<svg width="334" height="62" viewBox="0 0 334 62" fill="none" xmlns="http://www.w3.org/2000/svg"><g style="mix-blend-mode:color-dodge"><rect width="334" height="62" rx="5" fill="#323435"/><path d="M86.6035 36C86.1915 36 85.8095 36 85.4575 36C85.1095 36 84.7955 36 84.5155 36C84.2395 36 84.0055 36 83.8135 36C83.8135 35.528 83.8135 35.074 83.8135 34.638C83.8135 34.202 83.8135 33.718 83.8135 33.186V30.3C83.8135 29.764 83.8135 29.272 83.8135 28.824C83.8135 28.376 83.8135 27.916 83.8135 27.444C84.2775 27.444 84.7915 27.444 85.3555 27.444C85.9195 27.444 86.4935 27.444 87.0775 27.444C87.6055 27.444 88.0535 27.492 88.4215 27.588C88.7895 27.68 89.0855 27.814 89.3095 27.99C89.5335 28.162 89.6975 28.372 89.8015 28.62C89.9055 28.864 89.9575 29.138 89.9575 29.442C89.9575 29.806 89.8895 30.124 89.7535 30.396C89.6215 30.668 89.4395 30.892 89.2075 31.068C88.9795 31.244 88.7195 31.374 88.4275 31.458V31.584C88.7395 31.648 89.0275 31.758 89.2915 31.914C89.5555 32.066 89.7675 32.282 89.9275 32.562C90.0875 32.842 90.1675 33.198 90.1675 33.63C90.1675 33.974 90.1095 34.292 89.9935 34.584C89.8815 34.872 89.6915 35.122 89.4235 35.334C89.1555 35.546 88.7915 35.71 88.3315 35.826C87.8715 35.942 87.2955 36 86.6035 36ZM85.1935 34.854H86.7235C87.1955 34.854 87.5775 34.802 87.8695 34.698C88.1615 34.59 88.3735 34.436 88.5055 34.236C88.6415 34.036 88.7095 33.796 88.7095 33.516C88.7095 33.064 88.5475 32.738 88.2235 32.538C87.9035 32.334 87.4515 32.232 86.8675 32.232H84.8755V31.128H86.8315C87.2195 31.128 87.5355 31.068 87.7795 30.948C88.0275 30.824 88.2095 30.662 88.3255 30.462C88.4415 30.258 88.4995 30.034 88.4995 29.79C88.4995 29.382 88.3715 29.08 88.1155 28.884C87.8595 28.688 87.4775 28.59 86.9695 28.59H85.1935C85.1935 28.91 85.1935 29.23 85.1935 29.55C85.1935 29.87 85.1935 30.224 85.1935 30.612V32.892C85.1935 33.268 85.1935 33.612 85.1935 33.924C85.1935 34.232 85.1935 34.542 85.1935 34.854ZM98.2536 36.144C97.5696 36.144 96.9536 36.036 96.4056 35.82C95.8576 35.6 95.3916 35.292 95.0076 34.896C94.6236 34.5 94.3296 34.032 94.1256 33.492C93.9216 32.952 93.8196 32.36 93.8196 31.716C93.8196 30.856 93.9956 30.092 94.3476 29.424C94.6996 28.756 95.1956 28.232 95.8356 27.852C96.4756 27.472 97.2296 27.282 98.0976 27.282C98.3776 27.282 98.6516 27.302 98.9196 27.342C99.1876 27.378 99.4416 27.43 99.6816 27.498C99.9256 27.562 100.152 27.634 100.36 27.714C100.568 27.79 100.75 27.872 100.906 27.96L100.786 29.292C100.478 29.104 100.178 28.952 99.8856 28.836C99.5936 28.72 99.3096 28.636 99.0336 28.584C98.7576 28.528 98.4896 28.5 98.2296 28.5C97.6616 28.5 97.1556 28.63 96.7116 28.89C96.2676 29.146 95.9196 29.514 95.6676 29.994C95.4156 30.474 95.2896 31.048 95.2896 31.716C95.2896 32.16 95.3536 32.578 95.4816 32.97C95.6136 33.358 95.8096 33.702 96.0696 34.002C96.3296 34.298 96.6556 34.532 97.0476 34.704C97.4396 34.872 97.8936 34.956 98.4096 34.956C98.6096 34.956 98.8076 34.944 99.0036 34.92C99.2036 34.892 99.4016 34.85 99.5976 34.794C99.7976 34.738 99.9936 34.662 100.186 34.566C100.382 34.47 100.574 34.356 100.762 34.224L100.858 35.544C100.686 35.644 100.498 35.734 100.294 35.814C100.09 35.89 99.8756 35.952 99.6516 36C99.4276 36.048 99.1976 36.084 98.9616 36.108C98.7256 36.132 98.4896 36.144 98.2536 36.144ZM105.136 36C105.136 35.528 105.136 35.074 105.136 34.638C105.136 34.202 105.136 33.718 105.136 33.186V30.3C105.136 29.764 105.136 29.272 105.136 28.824C105.136 28.376 105.136 27.916 105.136 27.444H110.584V28.632C110.196 28.632 109.78 28.632 109.336 28.632C108.892 28.632 108.368 28.632 107.764 28.632H105.73L106.516 27.66C106.516 28.132 106.516 28.592 106.516 29.04C106.516 29.484 106.516 29.976 106.516 30.516V32.97C106.516 33.498 106.516 33.982 106.516 34.422C106.516 34.858 106.516 35.312 106.516 35.784L105.814 34.812H107.878C108.382 34.812 108.86 34.812 109.312 34.812C109.764 34.812 110.198 34.812 110.614 34.812V36H105.136ZM106.204 32.244V31.098H107.83C108.374 31.098 108.84 31.098 109.228 31.098C109.62 31.098 109.998 31.098 110.362 31.098V32.244C109.982 32.244 109.596 32.244 109.204 32.244C108.816 32.244 108.356 32.244 107.824 32.244H106.204ZM119.85 36C119.85 35.528 119.85 35.074 119.85 34.638C119.85 34.202 119.85 33.718 119.85 33.186V30.3C119.85 29.764 119.85 29.272 119.85 28.824C119.85 28.376 119.85 27.916 119.85 27.444C120.186 27.444 120.624 27.444 121.164 27.444C121.704 27.444 122.324 27.444 123.024 27.444C123.692 27.444 124.246 27.53 124.686 27.702C125.126 27.874 125.456 28.146 125.676 28.518C125.896 28.89 126.006 29.378 126.006 29.982C126.006 30.518 125.908 30.994 125.712 31.41C125.516 31.826 125.192 32.152 124.74 32.388C124.288 32.624 123.678 32.742 122.91 32.742C122.714 32.742 122.502 32.742 122.274 32.742C122.05 32.742 121.83 32.742 121.614 32.742C121.398 32.742 121.212 32.742 121.056 32.742V31.596H122.616C123.068 31.596 123.438 31.542 123.726 31.434C124.014 31.326 124.226 31.154 124.362 30.918C124.502 30.682 124.572 30.374 124.572 29.994C124.572 29.682 124.522 29.434 124.422 29.25C124.322 29.062 124.19 28.922 124.026 28.83C123.866 28.734 123.688 28.67 123.492 28.638C123.3 28.606 123.112 28.59 122.928 28.59H120.558L121.242 27.66C121.242 28.132 121.242 28.592 121.242 29.04C121.242 29.484 121.242 29.976 121.242 30.516V33.186C121.242 33.718 121.242 34.202 121.242 34.638C121.242 35.074 121.242 35.528 121.242 36H119.85ZM128.773 36C128.933 35.54 129.101 35.056 129.277 34.548C129.453 34.04 129.623 33.558 129.787 33.102L130.807 30.162C130.995 29.634 131.163 29.158 131.311 28.734C131.459 28.306 131.609 27.876 131.761 27.444H133.591C133.747 27.888 133.897 28.322 134.041 28.746C134.189 29.17 134.355 29.644 134.539 30.168L135.553 33.114C135.717 33.586 135.885 34.072 136.057 34.572C136.233 35.068 136.399 35.544 136.555 36H135.091C134.935 35.516 134.775 35.02 134.611 34.512C134.447 34 134.291 33.516 134.143 33.06L132.727 28.68H132.607L131.173 33.018C131.017 33.49 130.855 33.984 130.687 34.5C130.519 35.016 130.355 35.516 130.195 36H128.773ZM130.531 33.984L130.663 32.904H134.815L134.923 33.984H130.531ZM146.199 35.778C146.199 35.31 146.199 34.858 146.199 34.422C146.199 33.982 146.199 33.496 146.199 32.964V30.516C146.199 29.976 146.199 29.484 146.199 29.04C146.199 28.592 146.199 28.132 146.199 27.66L146.673 28.638H142.413L143.115 27.744C143.083 28.272 143.049 28.804 143.013 29.34C142.981 29.876 142.949 30.41 142.917 30.942C142.877 31.61 142.811 32.188 142.719 32.676C142.631 33.164 142.507 33.592 142.347 33.96C142.187 34.328 141.979 34.666 141.723 34.974L140.367 34.83C140.591 34.59 140.789 34.294 140.961 33.942C141.137 33.59 141.283 33.148 141.399 32.616C141.515 32.08 141.597 31.424 141.645 30.648C141.681 30.084 141.715 29.532 141.747 28.992C141.783 28.452 141.815 27.936 141.843 27.444H147.609C147.609 27.92 147.609 28.38 147.609 28.824C147.609 29.268 147.609 29.762 147.609 30.306V32.964C147.609 33.496 147.609 33.982 147.609 34.422C147.609 34.858 147.609 35.31 147.609 35.778H146.199ZM139.647 37.836C139.647 37.592 139.647 37.346 139.647 37.098C139.647 36.85 139.647 36.602 139.647 36.354C139.647 36.098 139.647 35.84 139.647 35.58C139.647 35.32 139.647 35.062 139.647 34.806C140.171 34.806 140.699 34.806 141.231 34.806C141.763 34.806 142.281 34.806 142.785 34.806H145.575C146.083 34.806 146.603 34.806 147.135 34.806C147.667 34.806 148.193 34.806 148.713 34.806C148.713 35.062 148.713 35.32 148.713 35.58C148.713 35.84 148.713 36.098 148.713 36.354C148.713 36.602 148.713 36.85 148.713 37.098C148.713 37.346 148.713 37.592 148.713 37.836H147.519L147.435 35.778L147.729 36H140.631L140.925 35.778L140.841 37.836H139.647ZM152.655 36C152.655 35.528 152.655 35.074 152.655 34.638C152.655 34.202 152.655 33.718 152.655 33.186V30.306C152.655 29.762 152.655 29.268 152.655 28.824C152.655 28.38 152.655 27.92 152.655 27.444H154.029C154.029 27.92 154.029 28.382 154.029 28.83C154.029 29.274 154.029 29.768 154.029 30.312V33.624H154.137L155.829 31.212C156.245 30.612 156.669 30.002 157.101 29.382C157.537 28.758 157.989 28.112 158.457 27.444H159.657C159.657 27.92 159.657 28.38 159.657 28.824C159.657 29.268 159.657 29.762 159.657 30.306V33.186C159.657 33.718 159.657 34.202 159.657 34.638C159.657 35.074 159.657 35.528 159.657 36H158.283C158.283 35.528 158.283 35.074 158.283 34.638C158.283 34.198 158.283 33.712 158.283 33.18V29.814H158.181L156.483 32.226C155.971 32.958 155.501 33.63 155.073 34.242C154.645 34.854 154.235 35.44 153.843 36H152.655ZM168.254 36.144C167.51 36.144 166.862 36.026 166.31 35.79C165.762 35.554 165.306 35.23 164.942 34.818C164.582 34.406 164.312 33.934 164.132 33.402C163.952 32.87 163.862 32.308 163.862 31.716C163.862 30.888 164.028 30.14 164.36 29.472C164.696 28.8 165.186 28.268 165.83 27.876C166.478 27.48 167.272 27.282 168.212 27.282C168.924 27.282 169.55 27.396 170.09 27.624C170.634 27.852 171.088 28.17 171.452 28.578C171.82 28.982 172.096 29.452 172.28 29.988C172.464 30.524 172.556 31.1 172.556 31.716C172.556 32.56 172.388 33.316 172.052 33.984C171.716 34.652 171.226 35.18 170.582 35.568C169.942 35.952 169.166 36.144 168.254 36.144ZM168.224 34.956C168.716 34.956 169.142 34.868 169.502 34.692C169.862 34.516 170.16 34.276 170.396 33.972C170.632 33.668 170.806 33.322 170.918 32.934C171.034 32.546 171.092 32.14 171.092 31.716C171.092 31.26 171.03 30.836 170.906 30.444C170.782 30.052 170.598 29.708 170.354 29.412C170.114 29.116 169.816 28.886 169.46 28.722C169.104 28.554 168.692 28.47 168.224 28.47C167.74 28.47 167.318 28.556 166.958 28.728C166.598 28.9 166.296 29.138 166.052 29.442C165.812 29.746 165.632 30.092 165.512 30.48C165.392 30.868 165.332 31.28 165.332 31.716C165.332 32.148 165.39 32.558 165.506 32.946C165.622 33.334 165.798 33.68 166.034 33.984C166.274 34.284 166.576 34.522 166.94 34.698C167.304 34.87 167.732 34.956 168.224 34.956ZM180.733 36.144C180.049 36.144 179.433 36.036 178.885 35.82C178.337 35.6 177.871 35.292 177.487 34.896C177.103 34.5 176.809 34.032 176.605 33.492C176.401 32.952 176.299 32.36 176.299 31.716C176.299 30.856 176.475 30.092 176.827 29.424C177.179 28.756 177.675 28.232 178.315 27.852C178.955 27.472 179.709 27.282 180.577 27.282C180.857 27.282 181.131 27.302 181.399 27.342C181.667 27.378 181.921 27.43 182.161 27.498C182.405 27.562 182.631 27.634 182.839 27.714C183.047 27.79 183.229 27.872 183.385 27.96L183.265 29.292C182.957 29.104 182.657 28.952 182.365 28.836C182.073 28.72 181.789 28.636 181.513 28.584C181.237 28.528 180.969 28.5 180.709 28.5C180.141 28.5 179.635 28.63 179.191 28.89C178.747 29.146 178.399 29.514 178.147 29.994C177.895 30.474 177.769 31.048 177.769 31.716C177.769 32.16 177.833 32.578 177.961 32.97C178.093 33.358 178.289 33.702 178.549 34.002C178.809 34.298 179.135 34.532 179.527 34.704C179.919 34.872 180.373 34.956 180.889 34.956C181.089 34.956 181.287 34.944 181.483 34.92C181.683 34.892 181.881 34.85 182.077 34.794C182.277 34.738 182.473 34.662 182.665 34.566C182.861 34.47 183.053 34.356 183.241 34.224L183.337 35.544C183.165 35.644 182.977 35.734 182.773 35.814C182.569 35.89 182.355 35.952 182.131 36C181.907 36.048 181.677 36.084 181.441 36.108C181.205 36.132 180.969 36.144 180.733 36.144ZM189.764 36C189.764 35.528 189.764 35.074 189.764 34.638C189.764 34.202 189.764 33.718 189.764 33.186V30.516C189.764 29.976 189.764 29.484 189.764 29.04C189.764 28.592 189.764 28.132 189.764 27.66L190.31 28.686H189.248C188.776 28.686 188.358 28.686 187.994 28.686C187.63 28.686 187.284 28.686 186.956 28.686V27.444H193.97V28.686C193.646 28.686 193.302 28.686 192.938 28.686C192.574 28.686 192.154 28.686 191.678 28.686H190.616L191.168 27.66C191.168 28.132 191.168 28.592 191.168 29.04C191.168 29.484 191.168 29.976 191.168 30.516V33.186C191.168 33.718 191.168 34.202 191.168 34.638C191.168 35.074 191.168 35.528 191.168 36H189.764ZM196.245 36C196.405 35.54 196.573 35.056 196.749 34.548C196.925 34.04 197.095 33.558 197.259 33.102L198.279 30.162C198.467 29.634 198.635 29.158 198.783 28.734C198.931 28.306 199.081 27.876 199.233 27.444H201.063C201.219 27.888 201.369 28.322 201.513 28.746C201.661 29.17 201.827 29.644 202.011 30.168L203.025 33.114C203.189 33.586 203.357 34.072 203.529 34.572C203.705 35.068 203.871 35.544 204.027 36H202.563C202.407 35.516 202.247 35.02 202.083 34.512C201.919 34 201.763 33.516 201.615 33.06L200.199 28.68H200.079L198.645 33.018C198.489 33.49 198.327 33.984 198.159 34.5C197.991 35.016 197.827 35.516 197.667 36H196.245ZM198.003 33.984L198.135 32.904H202.287L202.395 33.984H198.003ZM213.546 36C213.546 35.528 213.546 35.074 213.546 34.638C213.546 34.202 213.546 33.718 213.546 33.186V30.306C213.546 29.762 213.546 29.268 213.546 28.824C213.546 28.38 213.546 27.92 213.546 27.444H214.956C214.956 27.92 214.956 28.38 214.956 28.824C214.956 29.268 214.956 29.762 214.956 30.306V33.186C214.956 33.718 214.956 34.202 214.956 34.638C214.956 35.074 214.956 35.528 214.956 36H213.546ZM207.984 36C207.984 35.528 207.984 35.074 207.984 34.638C207.984 34.202 207.984 33.718 207.984 33.186V30.306C207.984 29.762 207.984 29.268 207.984 28.824C207.984 28.38 207.984 27.92 207.984 27.444H209.394C209.394 27.92 209.394 28.38 209.394 28.824C209.394 29.268 209.394 29.762 209.394 30.306V33.186C209.394 33.718 209.394 34.202 209.394 34.638C209.394 35.074 209.394 35.528 209.394 36H207.984ZM208.956 32.274V31.08H214.02V32.274H208.956ZM226.368 37.836L226.29 35.778L226.578 36H219.624C219.624 35.528 219.624 35.074 219.624 34.638C219.624 34.202 219.624 33.718 219.624 33.186V30.306C219.624 29.762 219.624 29.268 219.624 28.824C219.624 28.38 219.624 27.92 219.624 27.444H221.034C221.034 27.92 221.034 28.38 221.034 28.824C221.034 29.268 221.034 29.762 221.034 30.306V32.964C221.034 33.496 221.034 33.982 221.034 34.422C221.034 34.858 221.034 35.31 221.034 35.778L220.356 34.806H224.442C224.946 34.806 225.462 34.806 225.99 34.806C226.522 34.806 227.046 34.806 227.562 34.806C227.562 35.058 227.562 35.316 227.562 35.58C227.562 35.84 227.562 36.098 227.562 36.354C227.562 36.598 227.562 36.844 227.562 37.092C227.562 37.344 227.562 37.592 227.562 37.836H226.368ZM225.054 35.778C225.054 35.31 225.054 34.858 225.054 34.422C225.054 33.982 225.054 33.496 225.054 32.964V30.306C225.054 29.762 225.054 29.268 225.054 28.824C225.054 28.38 225.054 27.92 225.054 27.444H226.464C226.464 27.92 226.464 28.38 226.464 28.824C226.464 29.268 226.464 29.762 226.464 30.306V32.964C226.464 33.496 226.464 33.982 226.464 34.422C226.464 34.858 226.464 35.31 226.464 35.778H225.054ZM231.498 36C231.498 35.528 231.498 35.074 231.498 34.638C231.498 34.202 231.498 33.718 231.498 33.186V30.306C231.498 29.762 231.498 29.268 231.498 28.824C231.498 28.38 231.498 27.92 231.498 27.444H232.872C232.872 27.92 232.872 28.382 232.872 28.83C232.872 29.274 232.872 29.768 232.872 30.312V33.624H232.98L234.672 31.212C235.088 30.612 235.512 30.002 235.944 29.382C236.38 28.758 236.832 28.112 237.3 27.444H238.5C238.5 27.92 238.5 28.38 238.5 28.824C238.5 29.268 238.5 29.762 238.5 30.306V33.186C238.5 33.718 238.5 34.202 238.5 34.638C238.5 35.074 238.5 35.528 238.5 36H237.126C237.126 35.528 237.126 35.074 237.126 34.638C237.126 34.198 237.126 33.712 237.126 33.18V29.814H237.024L235.326 32.226C234.814 32.958 234.344 33.63 233.916 34.242C233.488 34.854 233.078 35.44 232.686 36H231.498ZM243.173 36C243.173 35.528 243.173 35.074 243.173 34.638C243.173 34.202 243.173 33.718 243.173 33.186V30.306C243.173 29.762 243.173 29.268 243.173 28.824C243.173 28.38 243.173 27.92 243.173 27.444H244.547C244.547 27.92 244.547 28.382 244.547 28.83C244.547 29.274 244.547 29.768 244.547 30.312V33.624H244.655L246.347 31.212C246.763 30.612 247.187 30.002 247.619 29.382C248.055 28.758 248.507 28.112 248.975 27.444H250.175C250.175 27.92 250.175 28.38 250.175 28.824C250.175 29.268 250.175 29.762 250.175 30.306V33.186C250.175 33.718 250.175 34.202 250.175 34.638C250.175 35.074 250.175 35.528 250.175 36H248.801C248.801 35.528 248.801 35.074 248.801 34.638C248.801 34.198 248.801 33.712 248.801 33.18V29.814H248.699L247.001 32.226C246.489 32.958 246.019 33.63 245.591 34.242C245.163 34.854 244.753 35.44 244.361 36H243.173Z" fill="#E3E3E3"/></g></svg>