<svg width="42" height="46" viewBox="0 0 42 46" fill="none" xmlns="http://www.w3.org/2000/svg"><path fill-rule="evenodd" clip-rule="evenodd" d="M38.71 30.4654C34.3676 34.8077 27.1894 34.8077 22.8471 30.4654C22.0938 29.7121 21.4292 28.8259 20.9418 27.8954L30.2468 22.5339L20.9418 17.1724C21.4292 16.2419 22.0938 15.4 22.8471 14.6025C27.1894 10.2601 34.3676 10.2601 38.71 14.6025C43.0967 18.9891 43.0967 26.0787 38.71 30.4654Z" fill="#0555D2"/><path fill-rule="evenodd" clip-rule="evenodd" d="M14.1181 0.379151C20.0999 1.9743 23.6447 8.13336 22.0495 14.1152C21.7837 15.1786 21.3406 16.1534 20.8089 17.0396L11.1493 11.5009V22.4454C10.2188 22.4454 9.24401 22.3125 8.31351 22.0466C2.33169 20.4515 -1.21309 14.2924 0.382058 8.3106C1.97721 2.37309 8.13627 -1.216 14.1181 0.379151Z" fill="#059BFF"/><path fill-rule="evenodd" clip-rule="evenodd" d="M0.382058 36.7574C-1.21309 30.7756 2.33169 24.6165 8.31351 23.0213C9.24401 22.7555 10.2188 22.6226 11.1493 22.6226V33.5671L20.8089 27.984C21.3406 28.8702 21.7837 29.845 22.0495 30.9085C23.6447 36.8903 20.0999 43.0494 14.1181 44.6445C8.13627 46.284 1.97721 42.7392 0.382058 36.7574Z" fill="#0F3787"/></svg>