<svg width="168" height="62" viewBox="0 0 168 62" fill="none" xmlns="http://www.w3.org/2000/svg"><g clip-path="url(#clip0_334_2755)"><path fill-rule="evenodd" clip-rule="evenodd" d="M52.857 40.1948C47.5766 45.4751 38.848 45.4751 33.5677 40.1948C32.6517 39.2789 31.8435 38.2012 31.2508 37.0698L42.5657 30.5502L31.2508 24.0306C31.8435 22.8991 32.6517 21.8754 33.5677 20.9055C38.848 15.6252 47.5766 15.6252 52.857 20.9055C58.1911 26.2397 58.1911 34.8606 52.857 40.1948Z" fill="#0555D2"/><path fill-rule="evenodd" clip-rule="evenodd" d="M22.9532 3.60997C30.2271 5.54968 34.5375 13.0391 32.5978 20.313C32.2745 21.6061 31.7357 22.7915 31.0892 23.8691L19.3432 17.134V30.4426C18.2117 30.4426 17.0263 30.2809 15.8948 29.9576C8.62092 28.0179 4.31046 20.5285 6.25017 13.2546C8.18987 6.0346 15.6793 1.67027 22.9532 3.60997Z" fill="#059BFF"/><path fill-rule="evenodd" clip-rule="evenodd" d="M6.25017 47.8461C4.31046 40.5723 8.62092 33.0828 15.8948 31.1431C17.0263 30.8198 18.2117 30.6582 19.3432 30.6582V43.9667L31.0892 37.1778C31.7357 38.2554 32.2745 39.4408 32.5978 40.7339C34.5375 48.0078 30.2271 55.4972 22.9532 57.4369C15.6793 59.4305 8.18987 55.12 6.25017 47.8461Z" fill="#0F3787"/><path fill-rule="evenodd" clip-rule="evenodd" d="M75.8101 11.315C69.3445 11.315 65.034 16.5954 65.034 22.0373C65.034 27.4793 69.2906 32.9212 75.8101 32.9212C82.0064 32.9212 86.5863 27.9103 86.5863 22.1451C86.5863 16.757 82.2758 11.315 75.8101 11.315ZM119.238 9.26758C120.585 9.26758 121.663 10.3452 121.663 11.6922C121.663 13.0392 120.585 14.1168 119.238 14.1168C117.891 14.1168 116.813 13.0392 116.813 11.6922C116.813 10.3452 117.891 9.26758 119.238 9.26758ZM105.876 32.4363V22.8455C105.876 18.2657 102.212 15.4639 98.7094 15.4639C96.7697 15.4639 95.0994 16.0027 93.3752 17.673V15.6794H89.2803V32.4363H93.3752V23.4382C93.3752 21.1213 95.1533 19.2355 97.6857 19.2355C99.5715 19.2355 101.781 20.9058 101.781 23.4382V32.4902L105.876 32.4363ZM75.8101 15.2483C79.5279 15.2483 82.4913 18.3195 82.4913 22.0912C82.4913 25.4857 79.8512 28.934 75.8101 28.934C71.8768 28.934 69.1828 25.5934 69.1289 22.1989C69.0212 18.7506 71.7691 15.2483 75.8101 15.2483ZM109.432 9.37534V32.4902H113.527V9.37534H109.432ZM121.285 15.6794V32.4363H117.191V15.6794H121.285ZM141.491 32.4363V22.8455C141.491 18.2657 137.827 15.4639 134.325 15.4639C132.385 15.4639 130.715 16.0027 128.99 17.673V15.6794H124.895V32.4363H128.99V23.4382C128.99 21.1213 130.768 19.2355 133.301 19.2355C135.187 19.2355 137.396 20.9058 137.396 23.4382V32.4902L141.491 32.4363ZM161.804 25.8628C162.935 20.5825 158.786 15.1945 153.183 15.1945C148.334 15.1945 144.292 19.1816 144.292 23.977C144.292 28.6646 147.903 32.9212 153.129 32.9212C155.823 32.9212 158.14 32.0591 160.349 29.7961L157.601 27.1021C156.577 28.3952 155.015 29.1496 153.506 29.1496C150.597 29.1496 149.142 27.3176 148.657 25.9167L161.804 25.8628ZM148.765 22.2528C149.411 20.4209 151.135 19.02 153.183 19.02C155.554 19.02 157.062 20.6903 157.601 22.2528H148.765Z" fill="#F7F7F7"/><path fill-rule="evenodd" clip-rule="evenodd" d="M73.6549 44.6671C76.4567 44.6671 78.3964 42.5118 78.3425 40.0872C78.3425 37.7703 76.5644 35.5073 73.7627 35.5073H67.1892V49.7857H68.3207V44.6671H72.2001L77.2649 49.7857H78.7736L73.6549 44.6671ZM155.122 39.2251C153.398 39.2251 151.836 40.0872 150.866 41.3803V35.3457H149.842V44.5593V49.7857H150.866V47.7383C151.836 49.0314 153.398 49.8935 155.122 49.8935C158.032 49.8935 160.403 47.5227 160.403 44.5593C160.403 41.5959 158.032 39.2251 155.122 39.2251ZM155.122 40.1411C157.439 40.1411 159.379 42.1347 159.379 44.5593C159.379 46.9839 157.493 48.9775 155.122 48.9775C152.806 48.9775 150.866 46.9839 150.866 44.5593C150.92 42.1347 152.806 40.1411 155.122 40.1411ZM85.1854 39.2251C86.9095 39.2251 88.4721 40.0872 89.4419 41.3803V39.3868H90.4657V44.5593V49.7319H89.4419V47.7383C88.4721 49.0314 86.9095 49.8935 85.1854 49.8935C82.2758 49.8935 79.9051 47.5227 79.9051 44.5593C79.9051 41.5959 82.2758 39.2251 85.1854 39.2251ZM85.1854 40.1411C82.8685 40.1411 80.9288 42.1347 80.9288 44.5593C80.9288 46.9839 82.8146 48.9775 85.1854 48.9775C87.5022 48.9775 89.4419 46.9839 89.4419 44.5593C89.4419 42.1347 87.5022 40.1411 85.1854 40.1411ZM97.9551 39.2251C99.6793 39.2251 101.242 40.0872 102.212 41.3803V35.3457H103.235V44.5593V49.7857H102.212V47.7383C101.242 49.0314 99.6793 49.8935 97.9551 49.8935C95.0455 49.8935 92.6748 47.5227 92.6748 44.5593C92.6748 41.5959 95.0455 39.2251 97.9551 39.2251ZM97.9551 40.1411C95.6382 40.1411 93.6985 42.1347 93.6985 44.5593C93.6985 46.9839 95.5843 48.9775 97.9551 48.9775C100.272 48.9775 102.212 46.9839 102.212 44.5593C102.212 42.1347 100.272 40.1411 97.9551 40.1411ZM115.197 39.2251C118.106 39.2251 120.477 41.5959 120.477 44.5593C120.477 47.5227 118.106 49.8935 115.197 49.8935C112.287 49.8935 109.917 47.5227 109.917 44.5593C109.917 41.5959 112.287 39.2251 115.197 39.2251ZM115.197 40.1411C112.88 40.1411 110.94 42.1347 110.94 44.5593C110.94 46.9839 112.826 48.9775 115.197 48.9775C117.514 48.9775 119.453 46.9839 119.453 44.5593C119.453 42.1347 117.514 40.1411 115.197 40.1411ZM68.3207 36.5311H73.601C75.7562 36.5311 77.1571 38.3091 77.1033 40.0333C77.1033 42.0808 75.3791 43.5356 73.601 43.5356H68.3207V36.5311ZM107.223 39.3329V49.7857H106.199V39.3329H107.223ZM105.876 36.3156C105.876 37.3932 107.546 37.3932 107.546 36.3156C107.546 35.2379 105.876 35.2379 105.876 36.3156ZM134.702 49.7857V35.3457H133.57V42.0269H124.195V35.3457H123.063V49.7857H124.195V43.1045H133.57V49.7857H134.702ZM147.148 49.7857V39.3868H146.124V45.3136C146.124 47.1995 144.616 48.9775 142.461 48.9775C140.413 48.9775 138.797 47.2533 138.797 45.3675V39.3868H137.773V45.2598C137.773 47.846 139.82 49.9474 142.461 49.9474C143.915 49.9474 145.155 49.4086 146.178 48.1693V49.8396H147.148V49.7857Z" fill="#059BFF"/></g><defs><clipPath id="clip0_334_2755"><rect width="168" height="61.1007" fill="white"/></clipPath></defs></svg>