<svg width="24" height="24" viewBox="0 0 24 24" fill="none" xmlns="http://www.w3.org/2000/svg"><g clip-path="url(#clip0_265_1194)"><path d="M21.875 12C21.875 6.54619 17.4538 2.125 12 2.125C6.54619 2.125 2.125 6.54619 2.125 12C2.125 17.4538 6.54619 21.875 12 21.875C17.4538 21.875 21.875 17.4538 21.875 12ZM23.125 12C23.125 18.1442 18.1442 23.125 12 23.125C5.85583 23.125 0.875 18.1442 0.875 12C0.875 5.85583 5.85583 0.875 12 0.875C18.1442 0.875 23.125 5.85583 23.125 12Z" fill="white"/><path d="M12.3254 12C12.3254 11.8206 12.1796 11.6749 12.0002 11.6748C11.8208 11.6748 11.675 11.8205 11.675 12C11.6752 12.1794 11.8208 12.3252 12.0002 12.3252C12.1796 12.3251 12.3253 12.1793 12.3254 12ZM13.5754 12C13.5753 12.8697 12.8699 13.5751 12.0002 13.5752C11.1305 13.5752 10.4252 12.8698 10.425 12C10.425 11.1302 11.1304 10.4248 12.0002 10.4248C12.87 10.4249 13.5754 11.1302 13.5754 12Z" fill="white"/><path d="M12.625 4.35986V11.7407L17.2119 16.3276L16.3281 17.2114L11.5576 12.4419L11.375 12.2583V4.35986H12.625Z" fill="white"/></g><defs><clipPath id="clip0_265_1194"><rect width="24" height="24" fill="white"/></clipPath></defs></svg>