<svg width="24" height="24" viewBox="0 0 24 24" fill="none" xmlns="http://www.w3.org/2000/svg"><path d="M7.50781 17.8774C7.50757 17.3331 7.06589 16.8921 6.52148 16.8921C5.97729 16.8923 5.53638 17.3332 5.53613 17.8774C5.53613 18.4218 5.97714 18.8635 6.52148 18.8638C7.06604 18.8638 7.50781 18.422 7.50781 17.8774ZM8.7832 17.8774C8.7832 19.1262 7.7702 20.1392 6.52148 20.1392C5.27298 20.1389 4.26074 19.126 4.26074 17.8774C4.26099 16.6291 5.27313 15.6169 6.52148 15.6167C7.77005 15.6167 8.78296 16.6289 8.7832 17.8774Z" fill="#1C1C1D"/><path d="M18.8639 17.8774C18.8636 17.3331 18.422 16.8921 17.8776 16.8921C17.3334 16.8923 16.8925 17.3332 16.8922 17.8774C16.8922 18.4218 17.3332 18.8635 17.8776 18.8638C18.4221 18.8638 18.8639 18.422 18.8639 17.8774ZM20.1393 17.8774C20.1393 19.1262 19.1263 20.1392 17.8776 20.1392C16.6291 20.1389 15.6168 19.126 15.6168 17.8774C15.6171 16.6291 16.6292 15.6169 17.8776 15.6167C19.1261 15.6167 20.139 16.6289 20.1393 17.8774Z" fill="#1C1C1D"/><path d="M20.4879 13.1201L19.0426 8.7832H16.8922V17.8779H15.6168V7.50781H19.9606L21.7301 12.8145L21.7623 12.9121V18.5156H19.5016V17.2402H20.4879V13.1201Z" fill="#1C1C1D"/><path d="M21.1246 13.1855V14.4609H18.694V13.1855H21.1246Z" fill="#1C1C1D"/><path d="M16.8922 13.1855V18.5156H8.14514V17.2402H15.6168V14.4609H3.91272V17.2402H4.89807V18.5156H2.63733V13.1855H16.8922Z" fill="#1C1C1D"/><path d="M13.1862 8.14551C13.1862 7.80282 13.1181 7.46308 12.9869 7.14648C12.8558 6.83006 12.6637 6.542 12.4215 6.2998C12.1793 6.05764 11.8913 5.86546 11.5748 5.73438C11.2584 5.60336 10.9193 5.53617 10.5768 5.53613H5.37952L4.01624 10.3037L8.3385 13.1855H10.5768C10.9193 13.1855 11.2584 13.1183 11.5748 12.9873C11.8913 12.8562 12.1792 12.6641 12.4215 12.4219C12.6637 12.1796 12.8558 11.8917 12.9869 11.5752C13.1181 11.2586 13.1862 10.9189 13.1862 10.5762V8.14551ZM14.4606 10.5762C14.4606 11.0861 14.3607 11.5914 14.1656 12.0625C13.9704 12.5338 13.6836 12.9625 13.3229 13.3232C12.9622 13.6838 12.5343 13.9699 12.0631 14.165C11.5919 14.3602 11.0868 14.4609 10.5768 14.4609H7.95276L2.92151 11.1064L2.53381 10.8486L4.28577 4.72363L4.4176 4.26074H10.5768C11.0868 4.26078 11.5919 4.36146 12.0631 4.55664C12.5342 4.7518 12.9622 5.03789 13.3229 5.39844C13.6836 5.75915 13.9704 6.18789 14.1656 6.65918C14.3608 7.13037 14.4606 7.63551 14.4606 8.14551V10.5762Z" fill="#1C1C1D"/><path d="M9.56396 5.08105L7.13232 13.1904L6.52197 13.0078L5.91162 12.8242L8.34229 4.71582L9.56396 5.08105Z" fill="#1C1C1D"/><path d="M12.811 5.88867L10.3794 14.0068L9.76904 13.8232L9.15869 13.6406L11.5894 5.52344L12.811 5.88867Z" fill="#1C1C1D"/></svg>