<svg width="24" height="24" viewBox="0 0 24 24" fill="none" xmlns="http://www.w3.org/2000/svg"><path d="M21.2539 9.80762L20.4463 10.7949L11.9248 3.82324L3.40332 10.7949L2.59668 9.80762L11.9248 2.17676L21.2539 9.80762Z" fill="#1C1C1D"/><path d="M12.911 9.48486C12.9109 9.22357 12.8067 8.97337 12.622 8.78857C12.437 8.60366 12.1862 8.49951 11.9247 8.49951C11.6633 8.4996 11.4123 8.60374 11.2274 8.78857C11.0429 8.97334 10.9395 9.22373 10.9393 9.48486V16.0513L10.7274 16.2417C10.4574 16.484 10.2668 16.8022 10.1815 17.1548C10.0963 17.5075 10.1202 17.8784 10.2499 18.2173C10.3797 18.5562 10.6091 18.8485 10.9081 19.0542C11.2071 19.2599 11.5618 19.3696 11.9247 19.3696C12.2876 19.3696 12.6423 19.2598 12.9413 19.0542C13.2404 18.8485 13.4697 18.5563 13.5995 18.2173C13.7293 17.8783 13.754 17.5076 13.6688 17.1548C13.5836 16.8022 13.3929 16.484 13.1229 16.2417L12.911 16.0513V9.48486ZM14.1864 15.5034C14.5362 15.885 14.7858 16.3496 14.9081 16.856C15.0538 17.4596 15.0129 18.0934 14.7909 18.6733C14.5688 19.2533 14.1756 19.752 13.6639 20.104C13.1523 20.456 12.5457 20.645 11.9247 20.645C11.3038 20.645 10.697 20.4559 10.1854 20.104C9.674 19.752 9.28144 19.2531 9.05946 18.6733C8.83741 18.0934 8.7965 17.4596 8.94227 16.856C9.06455 16.3496 9.3141 15.885 9.66395 15.5034V9.48486C9.66407 8.88537 9.90214 8.31014 10.3261 7.88623C10.75 7.46233 11.3252 7.22421 11.9247 7.22412C12.5242 7.22412 13.0993 7.46246 13.5233 7.88623C13.9472 8.31014 14.1863 8.88537 14.1864 9.48486V15.5034Z" fill="#1C1C1D"/><path d="M15.1715 9.66357V10.939H13.5485V9.66357H15.1715Z" fill="#1C1C1D"/><path d="M15.1715 12.9106V14.186H13.5485V12.9106H15.1715Z" fill="#1C1C1D"/><path d="M6.06885 8.67773V19.3965H7.87061V20.6709H4.79346V8.67773H6.06885Z" fill="#1C1C1D"/><path d="M19.0566 8.67773V20.6709H15.9795V19.3965H17.7812V8.67773H19.0566Z" fill="#1C1C1D"/></svg>