<svg width="24" height="24" viewBox="0 0 24 24" fill="none" xmlns="http://www.w3.org/2000/svg"><path d="M20.1506 18.4893C20.1506 18.0299 19.9745 17.5882 19.6594 17.2539C19.3463 16.9218 18.9194 16.7207 18.4641 16.6914H16.2317V8.58301H3.71118V20.2871H18.4651C18.9199 20.2576 19.3466 20.0574 19.6594 19.7256C19.9746 19.3912 20.1506 18.9488 20.1506 18.4893ZM21.426 18.4893C21.426 19.2739 21.1254 20.0296 20.5872 20.6006C20.0491 21.1712 19.3134 21.5151 18.5305 21.5615L18.511 21.5625H2.43579V7.30762H17.5061V15.417H18.511L18.5305 15.418C19.3135 15.4644 20.0491 15.8082 20.5872 16.3789C21.1253 16.9498 21.4259 17.7047 21.426 18.4893Z" fill="black"/><path d="M18.4989 2.4375C19.3075 2.44595 20.0805 2.77286 20.6503 3.34668C21.22 3.92047 21.541 4.69529 21.5438 5.50391V18.4688L20.2694 18.4736C20.266 18.0031 20.0766 17.5526 19.743 17.2207H19.7421C19.4496 16.9292 19.068 16.7476 18.661 16.7031L18.4852 16.6924H16.2313V2.4375H18.4989ZM17.5067 15.417H18.4999C19.1404 15.4244 19.7566 15.6334 20.2694 16.0039V5.50879L20.2596 5.33203C20.218 4.92337 20.0378 4.53915 19.746 4.24512C19.4539 3.95102 19.0705 3.76809 18.662 3.72363L18.4862 3.71289H17.5067V15.417Z" fill="black"/><path d="M7.30609 18.3242L7.30609 13.8018H12.6362V18.3242H7.30609ZM11.3608 15.0771H8.58148V17.0488H11.3608V15.0771Z" fill="black"/><path d="M14.2217 15.0688H5.72369L9.96588 10.2163L14.2217 15.0688ZM8.53229 13.7935H11.4073L9.96783 12.1519L8.53229 13.7935Z" fill="black"/></svg>