<svg width="24" height="24" viewBox="0 0 24 24" fill="none" xmlns="http://www.w3.org/2000/svg"><path d="M8.8053 8.53516V9.78516H4.69495V8.53516H8.8053Z" fill="white"/><path d="M13.5748 12.355V13.605H4.69495V12.355H13.5748Z" fill="white"/><path d="M13.5748 16.1748V17.4248H4.69495V16.1748H13.5748Z" fill="white"/><path d="M4.00684 3.60791L6.59375 1.70068L9.13086 3.60791L11.6807 1.69873L12.0557 1.97998L14.2207 3.60791L17.3945 1.23096V19.6577C17.3966 20.2517 17.6349 20.8204 18.0557 21.2397C18.4764 21.659 19.0457 21.8949 19.6396 21.895V23.145H4.36035C3.90269 23.145 3.44919 23.0545 3.02637 22.8794C2.60359 22.7043 2.21909 22.4481 1.89551 22.1245C1.24194 21.4709 0.875 20.5839 0.875 19.6597V1.21631L4.00684 3.60791ZM2.125 19.6597C2.125 20.2524 2.36015 20.8216 2.7793 21.2407C2.98683 21.4483 3.23373 21.6128 3.50488 21.7251C3.77598 21.8374 4.06693 21.895 4.36035 21.895H16.9619C16.4393 21.2716 16.1475 20.4826 16.1445 19.6626V3.729L14.2197 5.17139L11.6787 3.26123L9.12891 5.17139L6.58594 3.2583L4.37109 4.89307L3.99316 5.17139L2.125 3.74365V19.6597Z" fill="white"/><path d="M23.1255 9.48486V19.6782L23.1235 19.6968C23.0709 20.5863 22.6811 21.4224 22.0327 22.0337C21.3842 22.645 20.5264 22.9858 19.6353 22.9858C18.744 22.9858 17.8863 22.645 17.2378 22.0337C16.5893 21.4224 16.1986 20.5864 16.146 19.6968L16.145 19.6782V9.48486H23.1255ZM17.395 19.6313C17.4307 20.1997 17.6807 20.7338 18.0952 21.1245C18.5118 21.5171 19.0629 21.7358 19.6353 21.7358C20.2077 21.7358 20.7588 21.5171 21.1753 21.1245C21.5898 20.7337 21.8398 20.1997 21.8755 19.6313V10.7349H17.395V19.6313Z" fill="white"/></svg>