<svg width="24" height="24" viewBox="0 0 24 24" fill="none" xmlns="http://www.w3.org/2000/svg"><path d="M9.67285 6.65527C9.67285 4.98885 8.32167 3.63784 6.65527 3.6377C4.98875 3.6377 3.6377 4.98875 3.6377 6.65527C3.63784 8.32167 4.98885 9.67285 6.65527 9.67285C8.32158 9.6727 9.6727 8.32158 9.67285 6.65527ZM10.9473 6.65527C10.9471 9.02574 9.02574 10.9471 6.65527 10.9473C4.28468 10.9473 2.36245 9.02583 2.3623 6.65527C2.3623 4.28459 4.28459 2.3623 6.65527 2.3623C9.02583 2.36245 10.9473 4.28468 10.9473 6.65527Z" fill="#1C1C1D"/><path d="M20.2129 6.65527C20.2129 4.98884 18.8617 3.63784 17.1953 3.6377C15.5288 3.6377 14.1777 4.98875 14.1777 6.65527C14.1779 8.32167 15.5289 9.67285 17.1953 9.67285C18.8616 9.6727 20.2127 8.32158 20.2129 6.65527ZM21.4873 6.65527C21.4872 9.02574 19.5658 10.9471 17.1953 10.9473C14.8247 10.9473 12.9025 9.02583 12.9023 6.65527C12.9023 4.28459 14.8246 2.3623 17.1953 2.3623C19.5659 2.36245 21.4873 4.28468 21.4873 6.65527Z" fill="#1C1C1D"/><path d="M11.925 3.17725C12.9058 3.17725 13.85 3.54878 14.5686 4.21631L13.7014 5.1499C13.2187 4.70145 12.5839 4.45264 11.925 4.45264C11.2662 4.45265 10.6314 4.70146 10.1487 5.1499L9.28149 4.21631C10.0001 3.54877 10.9443 3.17726 11.925 3.17725Z" fill="#1C1C1D"/><path d="M21.4878 7.06299V21.6655H20.2124V7.06299H21.4878Z" fill="#1C1C1D"/></svg>