<svg width="24" height="24" viewBox="0 0 24 24" fill="none" xmlns="http://www.w3.org/2000/svg"><path d="M16.043 6.47461V6.47559C16.4459 6.47452 16.8451 6.55189 17.2178 6.70508C17.5913 6.85865 17.9307 7.08504 18.2168 7.37012C18.5028 7.65509 18.7299 7.9934 18.8848 8.36621C19.0396 8.73909 19.1191 9.13922 19.1191 9.54297V9.5459C19.1163 10.2998 18.8321 11.0257 18.3223 11.5811L18.1328 11.7871H10.3643V10.5127H17.5439C17.7363 10.2274 17.8431 9.89088 17.8447 9.54297L17.8359 9.36719C17.8186 9.19155 17.775 9.01906 17.707 8.85547C17.6165 8.63754 17.4845 8.43903 17.3174 8.27246C17.1503 8.10595 16.9516 7.97451 16.7334 7.88477C16.5151 7.79502 16.2809 7.74919 16.0449 7.75H7.93359V6.47461H16.043Z" fill="black"/><path d="M20.14 14.4355C20.14 13.9761 19.9649 13.5336 19.6498 13.1992C19.3369 12.8673 18.9094 12.6671 18.4545 12.6377H10.3646V11.3623H18.5013L18.5199 11.3633C19.3031 11.4096 20.0393 11.7533 20.5775 12.3242C21.1157 12.8952 21.4154 13.6509 21.4154 14.4355C21.4153 15.22 21.1156 15.975 20.5775 16.5459C20.0393 17.1168 19.3031 17.4605 18.5199 17.5068L18.5013 17.5078H10.3646V16.2334H18.4535C18.9088 16.2042 19.3366 16.0031 19.6498 15.6709C19.9647 15.3366 20.1399 14.8948 20.14 14.4355Z" fill="black"/><path d="M12.1582 14.4561C12.158 13.4657 11.3547 12.6631 10.3643 12.6631C9.374 12.6633 8.57147 13.4658 8.57129 14.4561C8.57129 15.4465 9.37389 16.2498 10.3643 16.25C11.3548 16.25 12.1582 15.4466 12.1582 14.4561ZM13.4326 14.4561C13.4326 16.1507 12.0589 17.5244 10.3643 17.5244C8.66973 17.5242 7.2959 16.1506 7.2959 14.4561C7.29608 12.7616 8.66984 11.3879 10.3643 11.3877C12.0588 11.3877 13.4324 12.7615 13.4326 14.4561Z" fill="black"/><path d="M7.28772 14.4561C7.28754 13.4657 6.48418 12.6631 5.49377 12.6631C4.50352 12.6633 3.70099 13.4658 3.70081 14.4561C3.70081 15.4465 4.50341 16.2498 5.49377 16.25C6.4843 16.25 7.28772 15.4466 7.28772 14.4561ZM8.56213 14.4561C8.56213 16.1507 7.18846 17.5244 5.49377 17.5244C3.79924 17.5242 2.42542 16.1506 2.42542 14.4561C2.4256 12.7616 3.79936 11.3879 5.49377 11.3877C7.18835 11.3877 8.56195 12.7615 8.56213 14.4561Z" fill="black"/><path d="M9.72717 9.54297C9.72699 8.5526 8.92364 7.75 7.93323 7.75C6.94297 7.75018 6.14044 8.55271 6.14026 9.54297C6.14026 10.5334 6.94286 11.3367 7.93323 11.3369C8.92375 11.3369 9.72717 10.5335 9.72717 9.54297ZM11.0016 9.54297C11.0016 11.2377 9.62791 12.6113 7.93323 12.6113C6.2387 12.6111 4.86487 11.2375 4.86487 9.54297C4.86505 7.84855 6.23881 6.47479 7.93323 6.47461C9.6278 6.47461 11.0014 7.84844 11.0016 9.54297Z" fill="black"/></svg>