<svg width="24" height="24" viewBox="0 0 24 24" fill="none" xmlns="http://www.w3.org/2000/svg"><path d="M21.5623 2.4375V8.58301H5.68433V2.4375H21.5623ZM6.95972 7.30859H20.2878V3.71289H6.95972V7.30859Z" fill="black"/><path d="M6.32202 4.86816V6.14355H5.91577L5.698 6.1543C5.19424 6.2057 4.72128 6.42984 4.36011 6.79102C3.94728 7.20384 3.71441 7.76287 3.71265 8.34668C3.71312 8.93096 3.94464 9.49145 4.35718 9.90527C4.77019 10.3195 5.33082 10.5529 5.91577 10.5547H14.2605V14.4307H12.9861V11.8301H5.91187C4.98958 11.8273 4.10608 11.4587 3.45483 10.8057C2.80352 10.1524 2.43725 9.26721 2.43726 8.34473V8.34277C2.44005 7.42216 2.80679 6.53965 3.45776 5.88867C4.10874 5.2377 4.99126 4.87096 5.91187 4.86816H6.32202Z" fill="black"/><path d="M14.6094 15.0688H12.6377V19.3013C12.6377 19.5628 12.7418 19.8136 12.9268 19.9985C13.1116 20.1833 13.3617 20.2875 13.623 20.2876C13.8845 20.2876 14.1354 20.1834 14.3203 19.9985C14.5052 19.8136 14.6094 19.5628 14.6094 19.3013V15.0688ZM15.8848 19.3013C15.8848 19.9009 15.6467 20.4769 15.2227 20.9009C14.7986 21.3249 14.2227 21.563 13.623 21.563C13.0236 21.5629 12.4483 21.3247 12.0244 20.9009C11.6004 20.4769 11.3623 19.9009 11.3623 19.3013V13.7935H15.8848V19.3013Z" fill="black"/></svg>