<svg xmlns="http://www.w3.org/2000/svg"><symbol id="whatsapp" viewBox="0 0 20 20" fill="none"><path fill-rule="evenodd" clip-rule="evenodd" d="M15.6 4.3C14.1 2.8 12.1 2 10 2C5.6 2 2 5.6 2 10C2 11.4 2.40001 12.8 3.10001 14L2 18L6.20001 16.9C7.40001 17.5 8.7 17.9 10 17.9C14.4 17.9 18 14.3 18 9.9C18 7.8 17.1 5.8 15.6 4.3ZM10 16.6C8.8 16.6 7.60001 16.3 6.60001 15.7L6.39999 15.6L3.89999 16.3L4.60001 13.9L4.39999 13.6C3.69999 12.5 3.39999 11.3 3.39999 10.1C3.39999 6.5 6.4 3.5 10 3.5C11.8 3.5 13.4 4.2 14.7 5.4C16 6.7 16.6 8.3 16.6 10.1C16.6 13.6 13.7 16.6 10 16.6ZM13.6 11.6C13.4 11.5 12.4 11 12.2 11C12 10.9 11.9 10.9 11.8 11.1C11.7 11.3 11.3 11.7 11.2 11.9C11.1 12 11 12 10.8 12C10.6 11.9 10 11.7 9.20001 11C8.60001 10.5 8.20001 9.8 8.10001 9.6C8.00001 9.4 8.10001 9.3 8.20001 9.2C8.30001 9.1 8.4 9 8.5 8.9C8.6 8.8 8.60001 8.7 8.70001 8.6C8.80001 8.5 8.70001 8.4 8.70001 8.3C8.70001 8.2 8.30001 7.2 8.10001 6.8C8.00001 6.5 7.80001 6.5 7.70001 6.5C7.60001 6.5 7.49999 6.5 7.29999 6.5C7.19999 6.5 6.99999 6.5 6.79999 6.7C6.59999 6.9 6.10001 7.4 6.10001 8.4C6.10001 9.4 6.79999 10.3 6.89999 10.5C6.99999 10.6 8.29999 12.7 10.3 13.5C12 14.2 12.3 14 12.7 14C13.1 14 13.9 13.5 14 13.1C14.2 12.6 14.2 12.2 14.1 12.2C14 11.7 13.8 11.7 13.6 11.6Z" fill="currentColor"/></symbol><symbol id="telegram" viewBox="0 0 20 20" fill="none"><path d="M3.09992 8.7083C7.39487 6.83705 10.2589 5.60341 11.6919 5.00738C15.7834 3.30558 16.6335 3.00996 17.1877 3.00009C17.3095 2.99805 17.582 3.02826 17.7586 3.17149C17.9076 3.29243 17.9486 3.45581 17.9683 3.57048C17.9879 3.68514 18.0123 3.94636 17.9929 4.15046C17.7712 6.48009 16.8118 12.1335 16.3237 14.7427C16.1172 15.8468 15.7105 16.217 15.3168 16.2532C14.4613 16.3319 13.8116 15.6878 12.9829 15.1446C11.6862 14.2946 10.9537 13.7654 9.69503 12.936C8.24042 11.9774 9.18338 11.4506 10.0124 10.5896C10.2293 10.3643 13.999 6.93546 14.0719 6.62441C14.0811 6.58551 14.0895 6.44051 14.0034 6.36394C13.9172 6.28737 13.7901 6.31355 13.6983 6.33438C13.5683 6.36389 11.4968 7.73307 7.48389 10.4419C6.89591 10.8457 6.36333 11.0424 5.88616 11.0321C5.36012 11.0207 4.34822 10.7346 3.59598 10.4901C2.67333 10.1902 1.94002 10.0316 2.00388 9.52227C2.03714 9.25697 2.40248 8.98564 3.09992 8.7083Z" fill="currentColor"/></symbol><symbol id="arrow-left" viewBox="0 0 20 20" fill="none"><path d="M3.39581 9.3623V10.6377H18.2708V9.3623H3.39581Z" fill="currentColor"/><path d="M2.49402 10L2.94519 10.4502L8.35632 15.8623L9.25867 14.96L4.29773 9.99902L9.25867 5.03906L8.35632 4.13672L2.49402 10Z" fill="currentColor"/></symbol><symbol id="arrow-right" viewBox="0 0 20 20" fill="none"><path d="M16.6042 9.3623V10.6377H1.72925V9.3623H16.6042Z" fill="currentColor"/><path d="M17.506 10.0005L17.0548 10.4507L11.6437 15.8628L10.7413 14.9604L15.7023 9.99951L10.7413 5.03955L11.6437 4.13721L17.506 10.0005Z" fill="currentColor"/></symbol><symbol id="download" viewBox="0 0 20 20" fill="none"><path d="M15.4164 15.625C15.7616 15.625 16.0414 15.9048 16.0414 16.25C16.0414 16.5952 15.7616 16.875 15.4164 16.875H4.58337C4.2382 16.875 3.95837 16.5952 3.95837 16.25C3.95837 15.9048 4.2382 15.625 4.58337 15.625H15.4164ZM9.37537 3.75C9.37537 3.40482 9.65519 3.125 10.0004 3.125C10.3454 3.12518 10.6254 3.40493 10.6254 3.75V11.8232L12.891 9.55762C13.1351 9.31354 13.5317 9.31354 13.7758 9.55762C14.0198 9.80169 14.0198 10.1983 13.7758 10.4424L10.0004 14.2168L9.55798 13.7754L6.22498 10.4424C5.9809 10.1983 5.9809 9.80169 6.22498 9.55762C6.46903 9.31392 6.86478 9.31381 7.10876 9.55762L9.37537 11.8242V3.75Z" fill="currentColor"/></symbol><symbol id="play" viewBox="0 0 20 20" fill="none"><path d="M16.3923 9.29657C16.9077 9.62391 16.9077 10.3761 16.3923 10.7035L6.28009 17.1256C5.72528 17.4779 5 17.0794 5 16.4222V3.57785C5 2.92061 5.72528 2.52204 6.28009 2.87439L16.3923 9.29657Z" fill="currentColor"/></symbol><symbol id="info" viewBox="0 0 20 20" fill="none"><path d="M16.875 10C16.875 6.20304 13.797 3.125 10 3.125C6.20304 3.125 3.125 6.20304 3.125 10C3.125 13.797 6.20304 16.875 10 16.875C13.797 16.875 16.875 13.797 16.875 10ZM18.125 10C18.125 14.4873 14.4873 18.125 10 18.125C5.51269 18.125 1.875 14.4873 1.875 10C1.875 5.51269 5.51269 1.875 10 1.875C14.4873 1.875 18.125 5.51269 18.125 10Z" fill="currentColor"/><path d="M10.2086 10C10.2084 9.88508 10.1146 9.79199 9.99963 9.79199C9.88482 9.79217 9.7918 9.88519 9.79163 10V13.334C9.7918 13.4488 9.88482 13.5418 9.99963 13.542C10.1146 13.542 10.2084 13.4489 10.2086 13.334V10ZM11.4586 13.334C11.4584 14.1393 10.805 14.792 9.99963 14.792C9.19446 14.7918 8.5418 14.1392 8.54163 13.334V10C8.5418 9.19483 9.19446 8.54217 9.99963 8.54199C10.805 8.54199 11.4584 9.19472 11.4586 10V13.334Z" fill="currentColor"/><path d="M10.2086 6.66602C10.2084 6.5511 10.1146 6.45801 9.99963 6.45801C9.88483 6.45818 9.7918 6.55121 9.79163 6.66602C9.79163 6.78098 9.88472 6.87482 9.99963 6.875C10.1147 6.875 10.2086 6.78108 10.2086 6.66602ZM11.4586 6.66602C11.4586 7.47143 10.8051 8.125 9.99963 8.125C9.19435 8.12482 8.54163 7.47132 8.54163 6.66602C8.5418 5.86087 9.19446 5.20818 9.99963 5.20801C10.805 5.20801 11.4584 5.86076 11.4586 6.66602Z" fill="currentColor"/></symbol><symbol id="arrow-down" viewBox="0 0 20 20" fill="none"><path d="M5 7.5L10 12.5L15 7.5" fill="currentColor"/></symbol><symbol id="menu" viewBox="0 0 20 20" fill="none"><path d="M3.91542 11.3528C4.66261 11.3528 5.26833 10.7471 5.26833 9.99989C5.26833 9.25269 4.66261 8.64697 3.91542 8.64697C3.16822 8.64697 2.5625 9.25269 2.5625 9.99989C2.5625 10.7471 3.16822 11.3528 3.91542 11.3528Z" fill="currentColor"/><path d="M10.0001 11.3528C10.7473 11.3528 11.3531 10.7471 11.3531 9.99989C11.3531 9.25269 10.7473 8.64697 10.0001 8.64697C9.25294 8.64697 8.64722 9.25269 8.64722 9.99989C8.64722 10.7471 9.25294 11.3528 10.0001 11.3528Z" fill="currentColor"/><path d="M16.0846 11.3528C16.8318 11.3528 17.4375 10.7471 17.4375 9.99989C17.4375 9.25269 16.8318 8.64697 16.0846 8.64697C15.3374 8.64697 14.7317 9.25269 14.7317 9.99989C14.7317 10.7471 15.3374 11.3528 16.0846 11.3528Z" fill="currentColor"/></symbol><symbol id="close" viewBox="0 0 20 20" fill="none"><path d="M14.314 6.55518L6.36377 14.5054L5.30322 13.4448L13.2534 5.49463L14.314 6.55518Z" fill="currentColor"/><path d="M14.314 13.4448L13.2534 14.5054L5.30322 6.55518L6.36377 5.49463L14.314 13.4448Z" fill="currentColor"/></symbol><symbol id="youtube" viewBox="0 0 20 20" fill="none"><path d="M17.6 5.7C17.4 5 16.9 4.5 16.2 4.3C15 4 9.89999 4 9.89999 4C9.89999 4 4.90001 4 3.60001 4.3C2.90001 4.5 2.4 5 2.2 5.7C2 7 2 9.6 2 9.6C2 9.6 2 12.2 2.3 13.5C2.5 14.2 3 14.7 3.7 14.9C4.9 15.2 10 15.2 10 15.2C10 15.2 15 15.2 16.3 14.9C17 14.7 17.5 14.2 17.7 13.5C18 12.2 18 9.6 18 9.6C18 9.6 18 7 17.6 5.7ZM8.39999 12V7.2L12.6 9.6L8.39999 12Z" fill="currentColor"/></symbol><symbol id="vk" viewBox="0 0 20 20" fill="none"><path d="M10.7113 15C5.24475 15 2.12787 10.8783 2 4.00881H4.74925C4.83716 9.04644 6.85115 11.1777 8.44955 11.6181V4.00881L11.031 4.00881V8.35068C12.6054 8.16573 14.2677 6.18415 14.8272 4L17.4006 4C17.1908 5.13062 16.7716 6.20141 16.1693 7.14546C15.567 8.08952 14.7945 8.88656 13.9001 9.48679C14.8982 10.0343 15.7797 10.8087 16.4864 11.759C17.1931 12.7093 17.709 13.8139 18 15H15.1628C14.5554 12.9127 13.037 11.2922 11.031 11.0721V15H10.7193H10.7113Z" fill="currentColor"/></symbol><symbol id="arrow-down-round" viewBox="0 0 16 16" fill="none"><path d="M4 6L8 10L12 6" fill="currentColor"/><path d="M12 5.25C12.3033 5.25 12.5772 5.43263 12.6933 5.71289C12.8094 5.99313 12.7447 6.31579 12.5302 6.53027L8.53023 10.5303C8.23733 10.8232 7.76257 10.8232 7.46968 10.5303L3.46968 6.53027C3.2552 6.31579 3.19055 5.99313 3.30659 5.71289C3.42268 5.43263 3.69661 5.25 3.99995 5.25H12ZM7.99995 8.93945L10.1894 6.75H5.8105L7.99995 8.93945Z" fill="currentColor"/></symbol><symbol id="arrow-up" viewBox="0 0 20 20" fill="none"><path d="M9.3623 3.39551L10.6377 3.39551L10.6377 18.2705L9.3623 18.2705L9.3623 3.39551Z" fill="currentColor"/><path d="M10.0005 2.49414L10.4507 2.94531L15.8628 8.35644L14.9604 9.25879L9.99951 4.29785L5.03955 9.25879L4.13721 8.35645L10.0005 2.49414Z" fill="currentColor"/></symbol><symbol id="menu-paint" viewBox="0 0 24 24" fill="none"><path d="M16.3627 6.3996V11.7814H8.43689V6.3996H16.3627ZM9.23767 10.9816H15.5629V7.20038H9.23767V10.9816Z" fill="currentColor"/><path d="M15.5629 11.7817H9.23767V12.3999C9.23767 12.6983 9.35575 12.9848 9.56677 13.1958C9.77781 13.4068 10.0642 13.5249 10.3627 13.5249H11.7816V16.981C11.7816 17.1449 11.8464 17.3025 11.9623 17.4185C12.0783 17.5344 12.2358 17.6001 12.3998 17.6001C12.5639 17.6001 12.7213 17.5345 12.8373 17.4185C12.9532 17.3024 13.0189 17.145 13.0189 16.981V13.5249H14.4369C14.7353 13.5249 15.0218 13.4068 15.2328 13.1958C15.4438 12.9848 15.5629 12.6984 15.5629 12.3999V11.7817ZM16.3627 12.3999C16.3627 12.9105 16.1593 13.4002 15.7982 13.7612C15.4372 14.1222 14.9475 14.3257 14.4369 14.3257H13.8187V16.981C13.8187 17.3572 13.6688 17.7188 13.4027 17.9849C13.1367 18.2507 12.7759 18.3999 12.3998 18.3999C12.0237 18.3999 11.6628 18.2507 11.3969 17.9849C11.1308 17.7188 10.9808 17.3572 10.9808 16.981V14.3257H10.3627C9.85204 14.3257 9.36241 14.1223 9.00134 13.7612C8.64029 13.4002 8.43689 12.9105 8.43689 12.3999V10.981H16.3627V12.3999Z" fill="currentColor"/><path d="M11.275 6.79999V9.85565H10.4742V6.79999H11.275Z" fill="currentColor"/></symbol><symbol id="menu-home" viewBox="0 0 24 24" fill="none"><path d="M12.6536 6.74646L18.2532 11.3275L18.0002 11.6371L17.7463 11.9467L12.3997 7.57263L7.05298 11.9467L6.54712 11.3275L12.3997 6.53943L12.6536 6.74646Z" fill="currentColor"/><path d="M13.0182 11.1252C13.0182 10.9612 12.9536 10.8037 12.8376 10.6877C12.7216 10.5718 12.5641 10.5071 12.4001 10.5071C12.236 10.5071 12.0786 10.5718 11.9626 10.6877C11.8466 10.8037 11.7809 10.9612 11.7809 11.1252V15.2454L11.6481 15.3645C11.4788 15.5165 11.3598 15.7165 11.3063 15.9377C11.2529 16.1591 11.2678 16.392 11.3493 16.6047C11.4307 16.8173 11.5748 17.0001 11.7624 17.1292C11.95 17.2582 12.1723 17.3274 12.4001 17.3274C12.6278 17.3274 12.8501 17.2582 13.0378 17.1292C13.2253 17.0001 13.3694 16.8173 13.4508 16.6047C13.5323 16.392 13.5473 16.1591 13.4938 15.9377C13.4404 15.7165 13.3213 15.5165 13.152 15.3645L13.0182 15.2454V11.1252ZM13.819 14.9016C14.0384 15.141 14.1945 15.4326 14.2712 15.7502C14.3626 16.129 14.3372 16.527 14.1979 16.8909C14.0586 17.2546 13.8118 17.5676 13.4909 17.7883C13.1699 18.0091 12.7896 18.1272 12.4001 18.1272C12.0105 18.1272 11.6302 18.009 11.3092 17.7883C10.9883 17.5676 10.7416 17.2546 10.6022 16.8909C10.4629 16.527 10.4366 16.129 10.528 15.7502C10.6047 15.4326 10.7617 15.141 10.9811 14.9016V11.1252C10.9811 10.749 11.1311 10.3883 11.3971 10.1223C11.6632 9.85632 12.0238 9.7063 12.4001 9.7063C12.7763 9.70631 13.137 9.85629 13.403 10.1223C13.669 10.3883 13.819 10.749 13.819 11.1252V14.9016Z" fill="currentColor"/><path d="M14.4373 11.2369V12.0377H13.4187V11.2369H14.4373Z" fill="currentColor"/><path d="M14.4373 13.2743V14.0751H13.4187V13.2743H14.4373Z" fill="currentColor"/><path d="M8.72571 10.6187V17.3442H9.85559V18.144H7.92493V10.6187H8.72571Z" fill="currentColor"/><path d="M16.8746 10.6187V18.144H14.944V17.3442H16.0748V10.6187H16.8746Z" fill="currentColor"/></symbol><symbol id="menu-document" viewBox="0 0 24 24" fill="none"><path d="M14.9438 10.981V11.7817H9.85596V10.981H14.9438Z" fill="currentColor"/><path d="M14.9438 13.0182V13.819H9.85596V13.0182H14.9438Z" fill="currentColor"/><path d="M14.9438 15.0556V15.8564H9.85596V15.0556H14.9438Z" fill="currentColor"/><path d="M10.3625 6.91162V7.7124H8.21899V17.6001H16.5813V7.7124H14.4377V6.91162H17.3811V18.3999H7.41821V6.91162H10.3625Z" fill="currentColor"/><path d="M14.8373 6.3996V7.8205C14.8353 8.1956 14.6855 8.55526 14.4203 8.8205C14.1551 9.08567 13.7953 9.23554 13.4203 9.23749H11.3793C11.0042 9.23554 10.6445 9.08574 10.3793 8.8205C10.1141 8.55527 9.96423 8.19554 9.96228 7.8205V6.3996H14.8373ZM10.7631 7.81659L10.7748 7.93768C10.799 8.05685 10.8585 8.16684 10.9457 8.25409C11.0619 8.37026 11.2189 8.43677 11.3832 8.43768H13.4164C13.5808 8.43683 13.7386 8.37032 13.8549 8.25409C13.9704 8.13836 14.0361 7.98202 14.0375 7.81854V7.20038H10.7631V7.81659Z" fill="currentColor"/></symbol><symbol id="menu-receipt" viewBox="0 0 24 24" fill="none"><path d="M13.0667 12.4004C13.0667 12.2943 13.0245 12.1922 12.9495 12.1172C12.8744 12.0422 12.7723 12 12.6663 12H12.1331C11.8149 11.9999 11.5094 11.8734 11.2844 11.6484C11.0595 11.4234 10.9329 11.118 10.9329 10.7998C10.9329 10.4816 11.0594 10.1762 11.2844 9.95117C11.5094 9.72617 11.8149 9.59966 12.1331 9.59961H13.8665V10.4004H12.1331C12.027 10.4004 11.9258 10.4426 11.8508 10.5176C11.7759 10.5925 11.7337 10.6938 11.7336 10.7998C11.7336 10.9059 11.7758 11.008 11.8508 11.083C11.9258 11.1578 12.0272 11.2001 12.1331 11.2002H12.6663C12.9845 11.2002 13.2898 11.3267 13.5149 11.5518C13.7399 11.7768 13.8665 12.0821 13.8665 12.4004C13.8664 12.7184 13.7398 13.0231 13.5149 13.248C13.2898 13.4731 12.9845 13.5996 12.6663 13.5996H10.9329V12.7998H12.6663C12.7723 12.7998 12.8744 12.7576 12.9495 12.6826C13.0243 12.6077 13.0665 12.5063 13.0667 12.4004Z" fill="currentColor"/><path d="M11.9996 8.53296H12.8004V10.4001H11.9996V8.53296Z" fill="currentColor"/><path d="M11.9996 12.7996H12.8004V14.6668H11.9996V12.7996Z" fill="currentColor"/><path d="M17.6 6.3996V17.632L16.7045 18.5275L16.4271 18.3205L15.2426 17.4318L13.8187 18.5002L13.5785 18.3205L12.3949 17.4328L10.976 18.5002L10.7357 18.3205L9.55212 17.4328L8.09607 18.5285L7.85095 18.2824L7.19958 17.632V6.3996H17.6ZM8.00037 17.301L8.17029 17.4709L9.31189 16.6135L9.55115 16.4328L9.79138 16.6135L10.975 17.4992L12.1547 16.6135L12.3939 16.4328L12.6342 16.6135L13.8177 17.5002L15.0033 16.6135L15.2426 16.4338L16.6283 17.4719L16.8002 17.301V7.20038H8.00037V17.301Z" fill="currentColor"/></symbol><symbol id="menu-coupon" viewBox="0 0 24 24" fill="none"><path d="M18.3997 7.92493V16.8751H6.39966V13.5255H6.80005C7.09851 13.5255 7.38491 13.4065 7.59595 13.1954C7.80685 12.9844 7.92505 12.6979 7.92505 12.3995C7.92493 12.1014 7.80672 11.8155 7.59595 11.6046C7.38491 11.3936 7.09851 11.2745 6.80005 11.2745H6.39966V7.92493H18.3997ZM8.72583 12.3995C8.72583 12.9102 8.52245 13.4008 8.16138 13.7618C7.89633 14.0268 7.56145 14.2045 7.20044 14.2814V16.0743H17.5999V8.72571H7.20044V10.5177C7.56154 10.5945 7.89628 10.7732 8.16138 11.0382C8.52234 11.3992 8.72571 11.8891 8.72583 12.3995Z" fill="currentColor"/><path d="M11.3812 9.96228V10.7631H10.3627V9.96228H11.3812Z" fill="currentColor"/><path d="M11.3812 11.9996V12.8004H10.3627V11.9996H11.3812Z" fill="currentColor"/><path d="M11.3812 14.0369V14.8377H10.3627V14.0369H11.3812Z" fill="currentColor"/></symbol><symbol id="menu-certificate" viewBox="0 0 24 24" fill="none"><path d="M18.8569 6.88416V17.1058H5.14307V6.88416H18.8569ZM6.05713 16.1918H17.9429V7.79822H6.05713V16.1918Z" fill="currentColor"/><path d="M12.0005 9.21271V10.1268H7.34326V9.21271H12.0005Z" fill="currentColor"/><path d="M12.0005 11.5411V12.4552H7.34326V11.5411H12.0005Z" fill="currentColor"/><path d="M10.8354 13.8694V14.7834H7.34326V13.8694H10.8354Z" fill="currentColor"/><path d="M16.5283 9.21271V12.4549H13.2861V9.21271H16.5283ZM14.2002 11.5408H15.6143V10.1268H14.2002V11.5408Z" fill="currentColor"/></symbol><symbol id="menu-team" viewBox="0 0 24 24" fill="none"><path d="M12.7075 9.59277C12.7075 8.39779 11.7384 7.42879 10.5435 7.42871C9.34842 7.42871 8.37939 8.39774 8.37939 9.59277C8.37947 10.7877 9.34847 11.7568 10.5435 11.7568C11.7384 11.7568 12.7074 10.7877 12.7075 9.59277ZM13.6216 9.59277C13.6215 11.2926 12.2433 12.6708 10.5435 12.6709C8.84353 12.6709 7.46541 11.2927 7.46533 9.59277C7.46533 7.89279 8.84348 6.51465 10.5435 6.51465C12.2434 6.51473 13.6216 7.89284 13.6216 9.59277Z" fill="currentColor"/><path d="M10.5454 11.7382C11.7165 11.7429 12.8498 12.1532 13.7524 12.8994C14.655 13.6456 15.2708 14.6817 15.4956 15.831L15.9224 17.9374L15.0259 18.1191L14.6001 16.0097L14.5991 16.0068C14.415 15.0649 13.91 14.216 13.1704 13.6044C12.4308 12.993 11.5021 12.6563 10.5425 12.6523C9.58068 12.6547 8.64925 12.9901 7.90674 13.6015C7.16384 14.2132 6.65594 15.0637 6.46924 16.0078V16.0087L6.04834 18.1181L5.6001 18.0283L5.15186 17.9394L5.57178 15.831C5.79942 14.6794 6.41952 13.6416 7.32568 12.8954C8.2318 12.1494 9.36875 11.7407 10.5425 11.7382H10.5454Z" fill="currentColor"/><path d="M15.625 9.59278C15.625 9.20064 15.5181 8.81576 15.3164 8.4795C15.1146 8.14317 14.8247 7.86812 14.4785 7.6836C14.1325 7.49917 13.7431 7.41183 13.3516 7.43165C12.9599 7.45155 12.5805 7.57733 12.2549 7.79591L12 7.417L11.7451 7.03712C12.2083 6.72611 12.7475 6.54689 13.3047 6.51856C13.862 6.49026 14.4168 6.6135 14.9092 6.87599C15.4016 7.13847 15.8135 7.53036 16.1006 8.0088C16.3876 8.48719 16.5391 9.03488 16.5391 9.59278C16.539 10.1507 16.3877 10.6984 16.1006 11.1768C15.8135 11.6551 15.4014 12.0461 14.9092 12.3086C14.4168 12.5711 13.862 12.6953 13.3047 12.667C12.7475 12.6387 12.2083 12.4594 11.7451 12.1484L12.2549 11.3887C12.5805 11.6073 12.9598 11.734 13.3516 11.7539C13.7431 11.7737 14.1325 11.6863 14.4785 11.502C14.8247 11.3174 15.1146 11.0424 15.3164 10.7061C15.5182 10.3698 15.625 9.98496 15.625 9.59278Z" fill="currentColor"/><path d="M11.8555 12.0113C12.5365 11.7837 13.2583 11.7041 13.9727 11.777C14.6873 11.8499 15.3788 12.0735 16 12.4342C16.6212 12.7949 17.1586 13.2843 17.5762 13.8688C17.9934 14.4528 18.2819 15.1189 18.4219 15.8229L18.8477 17.9381L18.4004 18.0289L17.9521 18.1188L17.5254 16.0035V16.0026C17.4108 15.4253 17.1742 14.8789 16.832 14.4C16.49 13.9212 16.0499 13.5207 15.541 13.2252C15.0321 12.9297 14.4654 12.7459 13.8799 12.6861C13.2945 12.6265 12.7026 12.6919 12.1445 12.8785L11.8555 12.0113Z" fill="currentColor"/></symbol><symbol id="menu-notebook" viewBox="0 0 24 24" fill="none"><path d="M18.3364 5.44263V18.5569H6.3335V5.44263H18.3364ZM7.20654 17.6838H17.4634V6.31567H7.20654V17.6838Z" fill="currentColor"/><path d="M8.43994 8.22388V9.09692H5.1001V8.22388H8.43994Z" fill="currentColor"/><path d="M8.43994 11.5634V12.4365H5.1001V11.5634H8.43994Z" fill="currentColor"/><path d="M8.43994 14.903V15.7761H5.1001V14.903H8.43994Z" fill="currentColor"/><path d="M14.124 10.3303C14.124 9.64914 13.5718 9.09698 12.8906 9.09692C12.2094 9.09692 11.6572 9.64911 11.6572 10.3303C11.6573 11.0115 12.2094 11.5637 12.8906 11.5637C13.5718 11.5637 14.124 11.0114 14.124 10.3303ZM14.9971 10.3303C14.997 11.4934 14.0537 12.4367 12.8906 12.4368C11.7275 12.4368 10.7842 11.4935 10.7842 10.3303C10.7842 9.16711 11.7274 8.22388 12.8906 8.22388C14.0538 8.22394 14.9971 9.16715 14.9971 10.3303Z" fill="white"/><path d="M14.6826 14.2285C14.6826 13.7532 14.4933 13.2969 14.1572 12.9609C13.8212 12.6251 13.3657 12.4365 12.8906 12.4365C12.4166 12.438 11.9627 12.6273 11.6279 12.9628C11.2929 13.2988 11.1045 13.754 11.1045 14.2285V14.9033H14.6826V14.2285ZM15.5557 15.7763H10.2314V14.2285C10.2314 13.5229 10.5115 12.8462 11.0098 12.3466C11.508 11.8471 12.1841 11.5653 12.8896 11.5634H12.8906C13.5971 11.5634 14.2747 11.8442 14.7744 12.3437C15.2741 12.8434 15.5557 13.5217 15.5557 14.2285V15.7763Z" fill="white"/></symbol><symbol id="" viewBox="" fill="none"/></svg>