<svg width="40" height="50" viewBox="0 0 40 50" fill="none" xmlns="http://www.w3.org/2000/svg"><g clip-path="url(#clip0_265_857)"><path fill-rule="evenodd" clip-rule="evenodd" d="M1.81561e-05 19.9993C1.81561e-05 8.95442 8.95444 0 20.0008 0C31.0456 0 40 8.95442 40 19.9993C40 25.5217 37.7625 30.5196 34.1463 34.1388C33.2014 35.0837 31.9222 36.1386 30.5389 37.2811C26.6226 40.5126 21.8698 44.4349 21.4998 48.4998C21.4256 49.3244 20.8283 50.0004 19.9993 50.0004C19.1717 50.0004 18.5745 49.3243 18.5002 48.4998C18.1302 44.4349 13.3774 40.5126 9.46107 37.2811C8.07935 36.1386 6.80014 35.0837 5.85523 34.1388C2.10006 30.3923 -0.00713572 25.3037 1.81561e-05 19.9993ZM27.0015 20.0007C27.0578 23.8667 23.9694 27.0463 20.1035 27.1027C16.2375 27.159 13.0579 24.0706 13.0015 20.2047C13.0005 20.1367 13.0005 20.0687 13.0015 20.0007C13.0579 16.1348 16.2375 13.0464 20.1035 13.1027C23.89 13.1579 26.9463 16.2142 27.0015 20.0007Z" fill="url(#paint0_linear_265_857)"/><path fill-rule="evenodd" clip-rule="evenodd" d="M1.81561e-05 19.9993C1.81561e-05 8.95442 8.95444 0 20.0008 0C31.0456 0 40 8.95442 40 19.9993C40 25.5217 37.7625 30.5196 34.1463 34.1388C33.2014 35.0837 31.9222 36.1386 30.5389 37.2811C26.6226 40.5126 21.8698 44.4349 21.4998 48.4998C21.4256 49.3244 20.8283 50.0004 19.9993 50.0004C19.1717 50.0004 18.5745 49.3243 18.5002 48.4998C18.1302 44.4349 13.3774 40.5126 9.46107 37.2811C8.07935 36.1386 6.80014 35.0837 5.85523 34.1388C2.10006 30.3923 -0.00713572 25.3037 1.81561e-05 19.9993ZM27.0015 20.0007C27.0578 23.8667 23.9694 27.0463 20.1035 27.1027C16.2375 27.159 13.0579 24.0706 13.0015 20.2047C13.0005 20.1367 13.0005 20.0687 13.0015 20.0007C13.0579 16.1348 16.2375 13.0464 20.1035 13.1027C23.89 13.1579 26.9463 16.2142 27.0015 20.0007Z" fill="#898987"/></g><defs><linearGradient id="paint0_linear_265_857" x1="20" y1="0" x2="20" y2="50.0004" gradientUnits="userSpaceOnUse"><stop stop-color="#FF6122"/><stop offset="1" stop-color="#F22411"/></linearGradient><clipPath id="clip0_265_857"><rect width="40" height="50.0004" fill="white"/></clipPath></defs></svg>