<svg width="40" height="37" viewBox="0 0 40 37" fill="none" xmlns="http://www.w3.org/2000/svg"><g clip-path="url(#clip0_265_847)"><g clip-path="url(#clip1_265_847)"><path fill-rule="evenodd" clip-rule="evenodd" d="M38.3789 36.96C40.7762 37.6419 37.6922 29.1702 37.6922 29.1702C39.0655 25.1002 40.4255 11.2054 39.5722 6.9702C38.7189 2.7337 35.5189 2.88038 29.6389 1.72149C23.6535 0.5322 8.60019 -0.148336 5.33352 0.0260928C2.08685 0.193914 -0.299813 2.39145 0.0335206 6.80502C0.376187 11.2054 5.58419 27.6043 8.16685 31.6743C10.7402 35.7443 14.5442 35.0334 16.8135 34.7612C19.9255 34.3806 31.6402 31.6743 31.6402 31.6743C30.5922 30.3397 35.9829 36.2782 38.3789 36.96ZM22.6669 11.3507L24.7522 6.95831H30.9922L24.1709 19.8317V27.4167H17.0109V19.8317L13.1975 12.6352L10.1802 6.95831H16.4202L20.5855 15.7128L22.6669 11.3507Z" fill="#898987"/></g></g><defs><clipPath id="clip0_265_847"><rect width="40" height="37" rx="8" fill="white"/></clipPath><clipPath id="clip1_265_847"><rect width="40" height="37" fill="white"/></clipPath></defs></svg>