<?xml version="1.0" encoding="UTF-8"?>
<svg id="_Слой_1" data-name="Слой 1" xmlns="http://www.w3.org/2000/svg" width="83.56" height="80.13" viewBox="0 0 83.56 80.13">
  <defs>
    <style>
      .cls-1 {
        fill: #023f88;
      }
    </style>
  </defs>
  <path id="Shape" class="cls-1" d="m41.78,53.04l-15.32-14.95H2.81L41.78,0l38.96,38.09h-23.65l-15.32,14.95Zm-9.96-17.72c.35,0,.7-.03,1.04-.11.28-.08.52-.18.7-.32.42-.35.67-.87.67-1.42,0-.38-.11-.7-.32-.97-.21-.27-.5-.48-.89-.58.29-.15.52-.34.67-.58.15-.23.22-.5.22-.77,0-.3-.09-.59-.25-.84-.16-.27-.4-.47-.69-.6-.3-.13-.69-.19-1.18-.19h-2.41v6.39h2.45Zm-1.6-3.7v-1.93h1.3c.33-.01.66.01.97.09.18.06.33.17.43.34.11.15.15.35.15.56s-.05.4-.16.54c-.11.16-.27.27-.49.32-.16.05-.43.08-.81.08h-1.4Zm.01,2.95v-2.21h1.48c.4,0,.73.04.94.11.21.07.39.2.51.38.12.18.19.4.18.62,0,.21-.04.39-.13.54-.08.15-.19.27-.33.36-.13.09-.29.14-.49.17-.11.02-.3.02-.57.02h-1.6Zm5.37.77l.69-1.95h2.71l.74,1.94h.97l-2.62-6.39h-.93l-2.47,6.39h.91Zm.94-2.62l.7-1.87c.14-.4.27-.81.36-1.23.11.36.26.8.45,1.34l.67,1.76h-2.19Zm9.42,2.63v-.76h-4.11l.39-.45,3.6-4.43v-.76h-4.59v.76h3.58c-.22.22-.43.46-.67.76l-3.29,4.09v.78h5.09Zm1.04,0h.87v-6.39h-.85v6.39Zm2.07-2.05c.01.42.14.8.36,1.15.22.34.54.6.92.76.87.34,1.83.34,2.69,0,.37-.16.65-.4.84-.7.19-.3.29-.62.29-.95s-.09-.65-.27-.91c-.17-.26-.45-.48-.82-.65-.26-.12-.74-.25-1.42-.4-.69-.16-1.13-.31-1.29-.45-.16-.15-.25-.36-.25-.57,0-.27.14-.52.36-.67.23-.19.61-.28,1.13-.28.49,0,.87.1,1.13.3.26.24.42.57.43.92l.82-.07c0-.74-.46-1.41-1.16-1.68-.4-.16-.83-.24-1.26-.24-.4,0-.8.07-1.18.22-.36.15-.63.37-.81.65-.18.28-.27.57-.27.9,0,.29.08.56.23.8.17.26.41.46.68.6.39.18.81.31,1.23.4.6.14.97.24,1.15.3.27.11.47.23.57.38.12.15.19.34.18.53,0,.2-.07.39-.19.54-.11.16-.29.29-.54.4-.28.09-.57.14-.87.14-.36,0-.69-.07-.97-.19-.3-.13-.52-.28-.65-.5-.14-.21-.23-.46-.27-.79l-.8.08Zm10.52-5.14h3.68v6.49h8.96L41.78,4.89l-30.37,29.72h8.88v-6.49h3.76l17.74-17.35,17.82,17.35Zm-2.5,0l-15.13-14.77v5.16l9.85,9.61h5.28Zm-15.5-8.98l-9.22,8.98h9.22v-8.98Zm-15.13,17.08l15.13,14.77v-5.16l-9.85-9.61h-5.28Zm15.5,8.98l9.31-8.98h-9.31v8.98Z"/>
  <g>
    <path class="cls-1" d="m3.23,68.21h4.45c1.31,0,2.32.35,3.03,1.05.71.7,1.07,1.68,1.07,2.93s-.36,2.21-1.07,2.91c-.72.69-1.72,1.04-3.02,1.04H1.48v-13.31h9.12v1.53H3.23v3.85Zm6.79,3.98c0-1.63-.97-2.45-2.92-2.45h-3.87v4.86h3.87c1.94,0,2.92-.8,2.92-2.41Z"/>
    <path class="cls-1" d="m19.87,62.82l5.2,13.31h-1.96l-1.48-4.08h-5.59l-1.51,4.08h-1.87l5.23-13.31h1.98Zm1.23,7.83l-2.26-6.15-2.3,6.15h4.56Z"/>
    <path class="cls-1" d="m36.3,72.24c0,.44-.1.89-.3,1.36-.2.47-.49.92-.88,1.36-.39.44-.93.79-1.63,1.07-.7.27-1.49.41-2.37.41-1.67,0-3.01-.4-4.01-1.19-1-.79-1.5-1.96-1.5-3.5h1.7c.04,1.13.42,1.96,1.14,2.48.72.52,1.66.78,2.82.78.93,0,1.71-.25,2.34-.77.62-.51.93-1.18.93-2.02,0-.46-.09-.85-.26-1.18-.17-.32-.43-.57-.77-.73s-.69-.27-1.06-.34-.79-.09-1.28-.09c-.42,0-.82.01-1.2.04v-1.46c.2.03.6.04,1.2.04,1.93,0,2.9-.8,2.9-2.39,0-1.42-.95-2.13-2.86-2.13-2.02,0-3.12.9-3.31,2.71h-1.7c.05-1.37.54-2.41,1.46-3.11.92-.7,2.12-1.06,3.61-1.06,1.36,0,2.46.3,3.3.9.84.6,1.26,1.5,1.26,2.69,0,.67-.22,1.28-.65,1.82s-.95.9-1.55,1.08v.06c.85.16,1.5.54,1.97,1.14.47.6.7,1.28.7,2.06Z"/>
    <path class="cls-1" d="m38.51,76.13v-13.31h1.76v11.27h.04l6.52-11.27h2.22v13.31h-1.76v-11.31h-.04l-6.54,11.31h-2.21Z"/>
    <path class="cls-1" d="m63.28,71.11c-.15,1.68-.73,2.99-1.75,3.93-1.02.94-2.35,1.41-4.01,1.41-1.89,0-3.4-.63-4.5-1.88-1.11-1.25-1.66-2.94-1.66-5.08,0-1.99.56-3.65,1.67-4.98,1.11-1.33,2.66-1.99,4.63-1.99,1.41,0,2.65.38,3.72,1.14,1.07.76,1.67,1.81,1.79,3.16h-1.76c-.2-.87-.64-1.55-1.31-2.05s-1.5-.74-2.49-.74c-1.48,0-2.6.52-3.36,1.57s-1.13,2.34-1.13,3.87c0,1.7.4,3.03,1.2,4,.8.97,1.89,1.46,3.27,1.46,1.13,0,2.04-.33,2.71-.98.67-.65,1.08-1.6,1.21-2.85h1.76Z"/>
    <path class="cls-1" d="m70.38,70.15v1.57h-5.44v-1.57h5.44Z"/>
    <path class="cls-1" d="m78.36,62.82l5.2,13.31h-1.96l-1.48-4.08h-5.59l-1.51,4.08h-1.87l5.23-13.31h1.98Zm1.23,7.83l-2.26-6.15-2.3,6.15h4.56Z"/>
  </g>
</svg>