<svg width="160" height="41" xmlns="http://www.w3.org/2000/svg" fill="none">
 <defs>
  <linearGradient y2="0.01055" x2="0.10059" y1="0.6421" x1="0.61646" id="paint0_linear">
   <stop stop-color="#074C89"/>
   <stop stop-color="#2F83C5" offset="1"/>
  </linearGradient>
 </defs>
 <g>
  <title>Layer 1</title>
  <g stroke="null" id="svg_5">
   <path stroke="null" id="svg_1" fill="#15599D" d="m144.11022,31.19673l2.49421,0c0.26384,0 0.47722,-0.21367 0.47722,-0.47693l0,0l0,-0.01225l0,-6.40105l4.26323,0c4.72315,0 8.58846,-2.51108 8.58846,-7.31843c0,-4.37869 -3.15886,-7.22662 -8.15882,-7.22662l-7.6643,0c-0.4429,0 -0.80161,0.35817 -0.80161,0.79969l0,19.8357c0,0.44189 0.35871,0.79988 0.80161,0.79988zm-73.30925,-3.20442l0.00014,0.01254c0,0.15628 -0.07526,0.29512 -0.19175,0.38206c-2.10667,1.736 -5.07464,3.17717 -8.76478,3.17717c-6.71693,0 -11.13385,-4.77721 -11.13385,-11.08512c0,-6.00196 4.60089,-11.08515 11.07272,-11.08515c3.3607,0 5.55864,0.83974 7.57174,2.36449l0.00087,0.00062l0.00332,0.00245c0.20228,0.14544 0.33405,0.38219 0.33405,0.65012c0,0.2028 -0.07569,0.38829 -0.20055,0.52915l0.0062,-0.00062l-1.54036,1.83368c-0.08737,0.11231 -0.2239,0.18469 -0.37745,0.18469c-0.11087,0 -0.21309,-0.03792 -0.29426,-0.10135l-0.00043,-0.00029l-0.00908,-0.00721c-1.53603,-1.23262 -3.11762,-1.9956 -5.64759,-1.9956c-3.95672,0 -6.96246,3.46056 -6.96246,7.62503c0,4.40971 2.91362,7.6555 7.29997,7.6555c2.02435,0 3.86473,-0.64302 5.18378,-1.62311l0,-4.01136l-5.00068,0l-0.0124,0c-0.26384,0 -0.47765,-0.21352 -0.47765,-0.47678l0.00029,0l0,-0.0124l0,-2.29742l-0.00029,-0.01312c0,-0.26341 0.21381,-0.47678 0.47765,-0.47678l0.0124,0l8.17309,0l0.00014,0c0.26384,0.00029 0.47736,0.21367 0.47736,0.47693l-0.00014,0.01225l0,8.27963zm4.68782,3.20442l2.49421,0c0.26384,0 0.47765,-0.21367 0.47765,-0.47693l-0.00014,0l0,-0.01225l0,-6.98279l4.66202,0l5.10665,7.14931l0.00087,-0.00115c0.1459,0.19651 0.3799,0.32382 0.64374,0.32382l3.10667,0c0.26384,0 0.4775,-0.21367 0.4775,-0.47693c0,-0.11145 -0.03835,-0.21395 -0.10265,-0.29541l-5.24534,-7.34265c3.00589,-0.85726 5.12236,-2.97028 5.12236,-6.49144c0,-4.13431 -2.94461,-6.82884 -7.97485,-6.82884l-8.75815,0l-0.01052,-0.0003c-0.44233,0 -0.80103,0.35833 -0.80103,0.79985l0,19.83584c0,0.44189 0.35871,0.79988 0.80103,0.79988zm2.97172,-10.80975l0,-6.7193c0,-0.26335 0.21381,-0.47668 0.47765,-0.47668l5.0125,0c2.79107,0 4.44748,1.25557 4.44748,3.55183c0,2.23571 -1.71755,3.64415 -4.41678,3.64415l-5.52086,0zm27.65578,11.1771c6.59467,0 11.25683,-5.05273 11.25683,-11.08512c0,-6.09371 -4.60089,-11.08515 -11.19541,-11.08515c-6.59467,0 -11.25683,5.05276 -11.25683,11.08515c0,6.09367 4.60089,11.08512 11.19541,11.08512zm0.06142,-3.46004c-4.26352,0 -7.29997,-3.46061 -7.29997,-7.62508c0,-4.22589 2.97503,-7.62503 7.23855,-7.62503c4.26337,0 7.30012,3.46056 7.30012,7.62503c0,4.22589 -2.97532,7.62508 -7.2387,7.62508zm23.54768,3.42947c5.61313,0 9.23234,-3.21508 9.23234,-9.61526l0,-11.3571c0,-0.44152 -0.35856,-0.79969 -0.80089,-0.79969l-2.49436,0c-0.26384,0 -0.47765,0.21335 -0.47765,0.4767l0.00014,0l0,0.01238l0,11.85154c0,3.9498 -2.05491,5.97112 -5.39817,5.97112c-3.37425,0 -5.42917,-2.14358 -5.42917,-6.12437l0,-11.69828l0,-0.01238l0.00014,0c0,-0.26335 -0.21367,-0.4767 -0.4775,-0.4767l-2.49421,0c-0.44261,0 -0.80118,0.35817 -0.80118,0.79969l0,11.54093c0,6.21636 3.55807,9.43144 9.1405,9.43144zm17.35626,-10.62578l0,-7.24005c0,-0.26335 0.21338,-0.47668 0.47722,-0.47668l3.90856,0c2.82149,0 4.63087,1.31658 4.63087,3.82807c0,2.29612 -1.77767,3.88867 -4.63087,3.88867l-4.38578,0z" clip-rule="evenodd" fill-rule="evenodd"/>
   <path stroke="null" id="svg_2" fill="url(#paint0_linear)" d="m31.44891,37.22884c6.87754,-2.44447 12.25106,-8.02834 12.25106,-16.75044c0,-8.72161 -5.37352,-14.30581 -12.25134,-16.75014c-2.69289,-0.95722 -5.61775,-1.43574 -8.54477,-1.43574c-2.92688,0 -5.85174,0.47853 -8.54477,1.43574c-6.87754,2.44433 -12.25109,8.02853 -12.25109,16.75014c0,8.72211 5.37356,14.30597 12.25137,16.75044c2.69289,0.95732 5.61775,1.43612 8.54477,1.43612c2.92688,0 5.85189,-0.4788 8.54477,-1.43612zm14.45937,-16.74987c0,26.91256 -46.00829,26.91256 -46.00829,0c0,-26.91253 46.00829,-26.91253 46.00829,0zm-1.20299,-0.00058c0,9.21879 -5.66792,15.11695 -12.92276,17.69565c-2.8026,0.99624 -5.84194,1.49437 -8.87839,1.49437c-3.0366,0 -6.07593,-0.49812 -8.87855,-1.49437c-7.25496,-2.5787 -12.92279,-8.47686 -12.92279,-17.69565c0,-9.21818 5.66783,-15.11652 12.92265,-17.69497c2.80262,-0.99652 5.84195,-1.49447 8.8784,-1.49447c3.0366,0 6.07593,0.49795 8.87853,1.49447c7.25499,2.57845 12.92291,8.47679 12.92291,17.69497z" clip-rule="evenodd" fill-rule="evenodd"/>
   <path stroke="null" id="svg_3" fill="#FEFEFE" d="m44.70515,20.47839c0,9.21879 -5.66778,15.11695 -12.92262,17.69565c-2.80275,0.99624 -5.84194,1.49437 -8.87839,1.49437c-3.0366,0 -6.07593,-0.49812 -8.87861,-1.49437c-7.25496,-2.5787 -12.92279,-8.47686 -12.92279,-17.69565c0,-9.21819 5.66783,-15.11653 12.92265,-17.69499c2.80267,-0.9965 5.84201,-1.49445 8.87846,-1.49445c3.0366,0 6.07579,0.49795 8.87853,1.49445c7.25499,2.57845 12.92276,8.47679 12.92276,17.69499zm-13.25624,16.75044c6.87754,-2.44447 12.25106,-8.02834 12.25106,-16.75044c0,-8.72161 -5.37352,-14.30583 -12.25134,-16.75016c-2.69289,-0.95722 -5.61775,-1.43573 -8.54477,-1.43573c-2.92688,0 -5.85189,0.47851 -8.54477,1.43573c-6.87758,2.44433 -12.25114,8.02854 -12.25114,16.75016c0,8.72211 5.37356,14.30597 12.25143,16.75044c2.69274,0.95732 5.61775,1.43612 8.54477,1.43612c2.92688,0 5.85174,-0.4788 8.54477,-1.43612z" clip-rule="evenodd" fill-rule="evenodd"/>
   <path stroke="null" id="svg_4" fill="white" d="m11.05398,31.30717l8.86317,0c4.8999,0 8.12465,-1.97951 8.12465,-5.93998c0,-2.97085 -1.55103,-4.42442 -4.06225,-5.3839c1.55016,-0.86634 2.85335,-2.22706 2.85335,-4.67196c0,-4.06153 -3.54423,-5.66196 -7.16373,-5.66196l-8.61519,0c-0.43964,0 -0.79594,0.35587 -0.79594,0.79493l0,0.00291l0,20.06512l0,0.00014c0,0.43915 0.3563,0.79469 0.79594,0.79469zm3.85643,-12.90143l0,-4.10262l0,-0.00016c0.00014,-0.26335 0.21367,-0.47654 0.4775,-0.47654l3.56788,0c2.01541,0 3.13204,0.80412 3.13204,2.22798c0,1.6704 -1.3339,2.35134 -3.44187,2.35134l-3.73555,0zm0,8.24763l0,-4.2876l4.85161,0c2.44938,0 3.53472,0.89763 3.53472,2.35119c0,1.67112 -1.27147,2.41333 -3.37959,2.41333l-4.52923,0c-0.26384,0 -0.4775,-0.21323 -0.4775,-0.47664l0,-0.00029zm16.34142,4.6538l3.50242,0c0.43959,0 0.79584,-0.35553 0.79584,-0.79469l0,-0.00014l0,-20.06804l0,-0.00014c-0.00029,-0.43908 -0.35625,-0.79479 -0.79584,-0.79479l-3.50242,0c-0.26369,0 -0.47722,0.21333 -0.47736,0.47684l0,20.70432c0,0.26341 0.21367,0.47664 0.47736,0.47664z" clip-rule="evenodd" fill-rule="evenodd"/>
  </g>
 </g>
</svg>