<svg width="111" height="54" viewBox="0 0 111 54" fill="none" xmlns="http://www.w3.org/2000/svg">
<path fill-rule="evenodd" clip-rule="evenodd" d="M25.7952 0.63411C24.0667 1.06687 22.7612 1.52699 22.8949 1.65741C23.0281 1.78738 22.2808 1.91597 21.2335 1.94334C20.1866 1.9707 19.2519 2.2247 19.1568 2.50788C19.0622 2.79062 18.7934 2.90553 18.5601 2.76234C17.9919 2.41395 16.3066 2.96846 16.3066 3.50337C16.3066 3.73731 17.1554 3.92884 18.1931 3.92884C19.7902 3.92884 20.0364 3.80662 19.7999 3.1308C19.533 2.37062 19.5495 2.37062 20.1457 3.1308C20.8738 4.05926 22.0989 4.18147 22.4333 3.35881C22.6184 2.9028 22.6721 2.9028 22.701 3.35881C22.7236 3.71405 23.4305 3.92884 24.5747 3.92884C26.2793 3.92884 26.6656 3.61737 26.4552 2.41303C26.4189 2.206 26.5921 2.16131 26.8402 2.31362C27.0877 2.46548 27.1741 2.8914 27.0317 3.2594C26.8475 3.73594 27.085 3.91835 27.8558 3.89281C28.4511 3.8732 28.6803 3.75327 28.3643 3.62695C28.0487 3.50018 27.7901 3.25484 27.7901 3.0811C27.7901 2.7099 36.0325 2.83941 36.4124 3.21608C36.5543 3.35745 35.9126 3.47282 34.9866 3.47282C33.3329 3.47282 33.3022 3.50565 33.3022 5.2636C33.3022 6.58514 33.5125 7.10865 34.106 7.26278C34.8717 7.46115 34.8717 7.47391 34.106 7.52408C32.9866 7.59795 33.0927 8.48901 34.2208 8.48901C35.0132 8.48901 35.1501 8.15931 35.2167 6.09492C35.2801 4.12538 35.326 4.00408 35.4739 5.41089C35.6485 7.06715 35.7109 7.12096 37.4638 7.12096C39.269 7.12096 39.2736 7.1164 39.2736 5.29689C39.2736 3.7975 39.1156 3.47282 38.3852 3.47282C37.7692 3.47282 37.4385 3.85678 37.3058 4.72687C37.128 5.89427 37.1096 5.87831 37.0458 4.49886C37.004 3.59731 37.202 3.00221 37.5511 2.97986C40.1574 2.81114 49.4875 2.97257 49.7061 3.18963C49.8586 3.34103 50.2472 3.24755 50.5692 2.98214C50.9978 2.62919 51.4093 2.75231 52.1043 3.44226C53.1659 4.49612 56.0464 4.74465 56.4244 3.81483C56.6095 3.35881 56.6633 3.35881 56.6922 3.81483C56.712 4.12857 57.1934 4.37026 57.762 4.35293C58.7482 4.32238 58.7533 4.30277 57.8769 3.92884C57.0004 3.5549 57.0055 3.53529 57.9917 3.50474C58.5604 3.48741 59.0252 3.67803 59.0252 3.92884C59.0252 4.17965 59.3477 4.38485 59.7413 4.38485C60.135 4.38485 60.3297 4.17965 60.1736 3.92884C60.0174 3.67803 60.1088 3.47282 60.3761 3.47282C60.6435 3.47282 60.8626 3.67803 60.8626 3.92884C60.8626 4.17965 61.2884 4.38485 61.8083 4.38485C62.3283 4.38485 62.6398 4.20108 62.5001 3.97672C62.1354 3.39119 63.2415 3.07152 64.6838 3.34559C65.3848 3.47829 66.2561 3.31002 66.6953 2.95661C67.1431 2.59544 67.3324 2.56033 67.1436 2.8727C66.9194 3.24298 67.252 3.39985 68.2037 3.37295C68.9662 3.35152 69.59 3.15999 69.59 2.94749C69.59 2.73498 69.8091 2.56078 70.0765 2.56078C70.3438 2.56078 70.4435 2.75231 70.2979 2.9867C70.1523 3.22064 70.6497 3.39484 71.4035 3.37341C72.2689 3.34924 72.6626 3.15041 72.4719 2.83394C72.3056 2.55805 72.5064 2.60365 72.9179 2.93472C73.9179 3.73913 78.5127 3.80206 79.4571 3.02364C79.9945 2.5813 80.3312 2.55349 80.7005 2.92012C80.9794 3.19693 81.8494 3.33282 82.6334 3.22155C83.9949 3.02911 83.9867 3.04234 82.4525 3.5166C80.5379 4.10851 80.221 4.52394 80.5159 6.05524C80.7088 7.0562 80.9141 7.17386 82.0542 6.93764C85.282 6.26866 86.1171 6.28553 83.5999 6.96865C82.0841 7.37952 80.775 7.8898 80.6909 8.10185C80.6068 8.3139 80.0386 8.36315 79.4277 8.21084C78.7539 8.04302 78.3175 8.13286 78.3175 8.43976C78.3175 8.71747 78.7309 8.94503 79.2362 8.94503C79.7465 8.94503 80.1549 9.24919 80.1549 9.62905C80.1549 10.0089 79.7465 10.3131 79.2362 10.3131C78.475 10.3131 78.3175 10.6172 78.3175 12.0838C78.3175 13.611 78.476 13.8851 79.4658 14.0729C80.4456 14.259 80.6142 14.1217 80.6142 13.1381C80.6142 12.5038 80.7295 12.0993 80.87 12.2393C81.0106 12.3788 82.2733 12.1955 83.6752 11.8321C85.0776 11.4686 86.316 11.2611 86.4271 11.3715C86.5383 11.4819 85.4308 11.8626 83.966 12.2174C81.6541 12.7774 81.2954 13.01 81.2426 13.9817C81.2095 14.5974 81.4162 15.2522 81.7019 15.4364C82.0372 15.6521 81.9518 15.7739 81.4612 15.7784C80.9206 15.7835 80.7718 16.0566 80.9472 16.7233C81.0864 17.2509 81.4548 17.5615 81.7901 17.4338C82.1181 17.3088 83.1759 17.0945 84.1415 16.9568C85.6784 16.7384 85.6205 16.7872 83.6757 17.349C82.4543 17.7019 81.3349 18.1101 81.1879 18.256C80.5618 18.8775 81.5765 19.0007 83.3702 18.5214C84.4318 18.2378 85.3941 18.0982 85.5085 18.2122C85.6228 18.3258 84.672 18.6673 83.395 18.9715C81.1525 19.5055 81.0735 19.5789 81.0735 21.1257C81.0735 22.7149 81.0864 22.7254 82.7961 22.4856L84.5186 22.2443L82.7961 22.7432C81.0405 23.2521 80.2729 24.5723 81.9922 24.1258C82.6344 23.9589 82.9109 24.1117 82.9109 24.6329C82.9109 25.2007 83.2127 25.322 84.1741 25.1396L85.4373 24.9002L84.1741 25.3968C82.4419 26.0781 82.4419 27.5733 84.1741 27.359C85.3619 27.2122 85.3707 27.2231 84.3229 27.5487C82.8002 28.0216 82.3767 29.2638 83.8829 28.8402C84.485 28.6705 85.598 28.4329 86.3559 28.3116C87.1139 28.1908 86.5971 28.4206 85.2076 28.8228C83.8181 29.225 82.4015 29.6382 82.0593 29.7417C81.7175 29.8452 81.5558 30.2356 81.7005 30.6095C81.8452 30.9839 81.763 31.2899 81.5186 31.2899C81.2738 31.2899 81.0735 30.9821 81.0735 30.6059C81.0735 30.0892 80.5122 29.9218 78.7768 29.9218H76.4801V31.7459C76.4801 33.2471 76.6377 33.57 77.3713 33.57C78.0626 33.57 78.3023 33.1869 78.4424 31.8599L78.6225 30.1498L78.6997 31.9105L78.7768 33.6717L80.4994 33.4199L82.2219 33.1682L80.3845 33.7948L78.5472 34.4209L81.0735 34.2718C82.463 34.1892 84.22 34.005 84.9779 33.8618C85.7358 33.7182 85.271 33.9316 83.9444 34.3356C81.4575 35.0931 80.9376 35.6289 82.3367 35.9919C83.1024 36.1902 83.1024 36.203 82.3367 36.2532C81.8507 36.2851 81.5329 36.6745 81.5329 37.2386C81.5329 38.0549 81.7483 38.142 83.2554 37.9345L84.9779 37.6974L83.2554 38.1871L81.5329 38.6769V41.8234C81.5329 43.5545 81.5848 44.9681 81.6477 44.9649C81.7106 44.9622 82.8994 44.6567 84.2889 44.2864C85.6784 43.9161 87.1253 43.6293 87.5043 43.6489C87.8832 43.6685 86.7827 44.0579 85.0583 44.5139C83.3335 44.9699 81.8007 45.4647 81.6514 45.6129C81.0157 46.2441 82.0276 46.3426 84.0211 45.8446C85.1984 45.55 86.2581 45.4054 86.3762 45.5226C86.4947 45.6398 85.4533 45.9887 84.062 46.2979C82.0804 46.7384 81.5329 47.0476 81.5329 47.7279C81.5329 48.4471 81.7887 48.5588 83.0257 48.3805L84.5186 48.1657L83.0257 48.6331C81.7129 49.0445 80.9366 49.967 81.8774 49.998C83.0487 50.0368 94.3944 47.0024 94.3944 46.6499C94.3944 46.4132 93.7228 46.3353 92.9015 46.4775C88.9324 47.1638 88.4345 47.1634 91.0642 46.4753C93.2061 45.9148 93.9351 45.5208 93.9351 44.9243C93.9351 44.4847 93.5736 44.0315 93.1312 43.9165C92.3655 43.7182 92.3655 43.7054 93.1312 43.6552C93.7077 43.6174 93.9351 43.2125 93.9351 42.2256C93.9351 40.9698 93.8244 40.8699 92.6719 41.0883L91.4087 41.3277L92.6719 40.8311C94.404 40.1498 94.404 38.6546 92.6719 38.8689C91.484 39.0157 91.4753 39.0048 92.523 38.6792C93.7398 38.3011 94.3838 37.2222 93.399 37.2113C92.9392 37.2058 92.958 37.0922 93.4757 36.7552C94.088 36.3558 94.088 36.2564 93.4757 35.8569C93.015 35.5568 92.9769 35.4059 93.3609 35.4009C94.1082 35.3918 94.1082 33.7154 93.3609 33.4158C92.9015 33.2321 92.9015 33.1787 93.3609 33.15C94.3379 33.0889 93.9929 32.2762 92.9015 32.0678L91.868 31.8699L92.9015 31.8079C93.4702 31.7737 93.9351 31.5548 93.9351 31.3218C93.9351 31.0883 93.4702 30.8083 92.9015 30.6998L91.868 30.5019L92.9015 30.4399C93.608 30.3975 93.9351 30.0892 93.9351 29.4658C93.9351 28.3686 93.6902 28.3554 90.1685 29.2615C88.6554 29.6505 87.1786 29.8872 86.8869 29.7868C86.5948 29.6865 88.0266 29.2428 90.0688 28.8014C93.6493 28.0275 93.7821 27.9527 93.7821 26.7069C93.7821 25.5254 93.6608 25.4314 92.3655 25.6102C91.1409 25.7789 91.1046 25.7575 92.0977 25.4506C92.7692 25.2435 93.3053 24.6922 93.3884 24.1231C93.5281 23.1659 93.49 23.1605 91.0917 23.7943C89.75 24.1486 88.3426 24.4213 87.9636 24.3999C87.5847 24.3789 88.603 24.0155 90.2273 23.5923C91.851 23.1696 93.2745 22.5412 93.3903 22.196C93.5304 21.7783 93.3604 21.6597 92.8818 21.8421C92.4863 21.9926 91.3733 22.2284 90.4078 22.3661C88.8708 22.5845 88.9287 22.5357 90.8736 21.9739C92.0949 21.6209 93.2144 21.2128 93.3613 21.0669C94.105 20.3286 92.755 20.3924 89.3462 21.2561C87.2696 21.7828 85.3661 22.1458 85.1166 22.0633C84.8672 21.9807 86.6462 21.439 89.0693 20.8589C92.6388 20.0044 93.4757 19.6464 93.4757 18.9728C93.4757 18.5155 93.2171 18.038 92.9015 17.9112C92.4422 17.7275 92.4422 17.6741 92.9015 17.6454C93.2176 17.6258 93.4757 17.3813 93.4757 17.1027C93.4757 16.778 92.8561 16.6827 91.7532 16.8373L90.0307 17.0786L91.7532 16.5797C93.7031 16.0147 93.9658 15.4866 92.4422 15.1952L91.4087 14.9973L92.4422 14.9353C93.1353 14.8938 93.4757 14.5832 93.4757 13.9931C93.4757 13.4427 93.0885 13.0387 92.4422 12.9151L91.4087 12.7172L92.4422 12.6552C93.2704 12.6055 93.4757 12.3214 93.4757 11.2251C93.4757 10.4727 93.4238 9.85934 93.3609 9.86253C93.298 9.86527 92.1092 10.1708 90.7197 10.5411C89.3302 10.9114 87.8832 11.1982 87.5043 11.1786C87.1253 11.159 88.2259 10.7696 89.9503 10.3135C93.4812 9.37961 93.6934 9.25375 93.3287 8.31025C93.1179 7.76485 92.749 7.72381 91.3917 8.09592C90.4693 8.34856 89.6228 8.46438 89.5107 8.35266C89.3982 8.24139 90.2447 7.91534 91.3912 7.62896C93.4436 7.11594 94.0283 6.50625 92.9015 6.05479C92.4422 5.87101 92.4422 5.81766 92.9015 5.78893C93.2176 5.76932 93.4757 5.52398 93.4757 5.24353C93.4757 4.95898 93.0706 4.8395 92.557 4.97312C92.0518 5.10399 91.6384 5.02556 91.6384 4.798C91.6384 4.57091 92.0325 4.38485 92.5139 4.38485C93.1716 4.38485 93.3283 4.15137 93.1427 3.44683C93.0035 2.91921 92.6351 2.60866 92.2998 2.73635C91.9718 2.8613 90.914 3.07563 89.9484 3.21334C88.4115 3.43178 88.4694 3.38298 90.4142 2.82117C92.9879 2.0774 93.4523 1.74223 92.6177 1.23012C92.2865 1.02674 79.7869 0.725768 64.8409 0.56069C49.8944 0.395612 35.7022 0.167603 33.3022 0.0540548C30.1139 -0.096887 28.0919 0.0595284 25.7952 0.63411ZM29.0436 1.01215C28.8911 1.16355 28.4947 1.17996 28.1635 1.04817C27.797 0.902703 27.9058 0.794627 28.441 0.772738C28.9251 0.75313 29.1961 0.86075 29.0436 1.01215ZM27.2926 1.35644C27.1874 1.44673 26.481 1.65832 25.723 1.82659C24.7166 2.05004 24.5311 2.00763 25.034 1.66973C25.6541 1.25293 27.7533 0.961987 27.2926 1.35644ZM91.2938 1.49461C90.9783 1.62139 90.4615 1.62139 90.1455 1.49461C89.8299 1.3683 90.0881 1.26478 90.7197 1.26478C91.3513 1.26478 91.6099 1.3683 91.2938 1.49461ZM29.503 1.92418C29.3505 2.07558 28.954 2.092 28.6229 1.96021C28.2563 1.81474 28.3652 1.70666 28.9003 1.68477C29.3844 1.66516 29.6555 1.77279 29.503 1.92418ZM87.2746 2.3647C86.0114 2.71355 84.7712 2.98169 84.5186 2.96025C83.7414 2.89413 87.6747 1.71852 88.6526 1.72445C89.1579 1.72764 88.5378 2.01584 87.2746 2.3647ZM55.0574 3.24481C54.9118 3.62102 54.6146 3.92884 54.3969 3.92884C54.1796 3.92884 54.1204 3.62102 54.2655 3.24481C54.4111 2.86859 54.7083 2.56078 54.9261 2.56078C55.1433 2.56078 55.2026 2.86859 55.0574 3.24481ZM29.1681 3.47282C29.1681 3.72363 29.4906 3.92884 29.8842 3.92884C30.2779 3.92884 30.4726 3.72363 30.3164 3.47282C30.1603 3.22201 29.8383 3.0168 29.6003 3.0168C29.3624 3.0168 29.1681 3.22201 29.1681 3.47282ZM50.5724 3.35243C50.0194 3.90102 50.3212 4.38485 51.2164 4.38485C51.7217 4.38485 52.1351 4.20153 52.1351 3.97763C52.1351 3.46507 50.9404 2.9867 50.5724 3.35243ZM79.9252 3.47282C80.0814 3.72363 80.3 3.92884 80.4116 3.92884C80.5232 3.92884 80.6142 3.72363 80.6142 3.47282C80.6142 3.22201 80.3951 3.0168 80.1277 3.0168C79.8604 3.0168 79.769 3.22201 79.9252 3.47282ZM31.4648 3.92884C31.8727 4.19059 31.9319 4.37391 31.61 4.37801C31.3109 4.38166 30.9802 4.94895 30.875 5.6389L30.6839 6.89295L30.615 5.6389C30.5167 3.84538 29.1681 3.95164 29.1681 5.75291C29.1681 7.0448 29.2701 7.12096 31.0055 7.12096H32.8428V5.29689C32.8428 3.70721 32.7101 3.47373 31.8093 3.47966C30.9738 3.48559 30.9076 3.57132 31.4648 3.92884ZM39.7329 5.29689C39.7329 6.79491 39.8914 7.12096 40.6194 7.12096C41.1739 7.12096 41.5808 6.73653 41.7053 6.09492L41.9047 5.06888L41.9672 6.09492C42.0025 6.67315 42.3291 7.12096 42.7154 7.12096C43.2211 7.12096 43.3819 6.64214 43.3291 5.29689C43.2579 3.49836 43.2326 3.47282 41.4949 3.47282C39.7453 3.47282 39.7329 3.48559 39.7329 5.29689ZM43.867 3.92884C43.867 4.17965 44.2804 4.38485 44.7857 4.38485C45.2909 4.38485 45.7043 4.17965 45.7043 3.92884C45.7043 3.67803 45.2909 3.47282 44.7857 3.47282C44.2804 3.47282 43.867 3.67803 43.867 3.92884ZM46.1637 3.98265C46.1637 4.20381 46.9905 4.38485 48.001 4.38485C49.0116 4.38485 49.8384 4.19241 49.8384 3.95756C49.8384 3.72226 49.0116 3.54122 48.001 3.55536C46.9905 3.56904 46.1637 3.76148 46.1637 3.98265ZM87.8392 3.74825C87.6867 3.89965 87.2902 3.91607 86.9591 3.78428C86.5925 3.63881 86.7014 3.53073 87.2365 3.50884C87.7206 3.48923 87.9917 3.59685 87.8392 3.74825ZM42.2593 4.38485C42.4178 4.63931 42.0742 4.83768 41.4825 4.83403C40.6291 4.8281 40.5565 4.74055 41.1109 4.38485C41.9658 3.83672 41.918 3.83672 42.2593 4.38485ZM64.1928 4.25534C65.2883 4.42042 65.456 4.65299 65.456 6.01101C65.456 7.52909 65.5111 7.57697 67.2612 7.57697C68.7683 7.57697 69.0999 7.40734 69.2657 6.55094L69.4651 5.5249L69.5276 6.55094C69.5813 7.43379 69.8468 7.57697 71.4274 7.57697H73.2647V5.75291V3.92884H71.4274C69.1036 3.92884 69.0149 4.72595 71.3126 4.96491L73.0351 5.14367L71.0829 5.22028C69.6194 5.27774 69.1307 5.12543 69.1307 4.61286C69.1307 4.23665 68.7306 3.92884 68.241 3.92884C67.5818 3.92884 67.3034 4.31235 67.1661 5.41089L66.981 6.89295L66.9075 5.41089C66.8363 3.97125 66.7784 3.93066 64.8818 3.99724C63.5111 4.04512 63.3058 4.12219 64.1928 4.25534ZM73.7241 4.38485C73.7241 4.63566 74.1375 4.84087 74.6428 4.84087C75.148 4.84087 75.5614 4.63566 75.5614 4.38485C75.5614 4.13404 75.148 3.92884 74.6428 3.92884C74.1375 3.92884 73.7241 4.13404 73.7241 4.38485ZM76.0208 4.43866C76.0208 4.65983 76.8476 4.84087 77.8582 4.84087C78.8687 4.84087 79.6955 4.64843 79.6955 4.41358C79.6955 4.17828 78.8687 3.99724 77.8582 4.01137C76.8476 4.02505 76.0208 4.21749 76.0208 4.43866ZM85.4373 4.38485C84.932 4.60055 84.1052 4.77064 83.5999 4.76335C82.8613 4.7524 82.9063 4.67853 83.8296 4.38485C85.4001 3.88551 86.6077 3.88551 85.4373 4.38485ZM16.3066 5.5249C16.3066 6.55094 16.4903 6.66494 18.1439 6.66494C19.7976 6.66494 19.9813 6.55094 19.9813 5.5249C19.9813 4.49886 19.7976 4.38485 18.1439 4.38485C16.4903 4.38485 16.3066 4.49886 16.3066 5.5249ZM20.4406 5.5249C20.4406 6.36078 20.6855 6.66494 21.3593 6.66494C22.0332 6.66494 22.278 6.36078 22.278 5.5249C22.278 4.68902 22.0332 4.38485 21.3593 4.38485C20.6855 4.38485 20.4406 4.68902 20.4406 5.5249ZM22.7373 6.20892V8.03299L24.6895 8.02615C26.119 8.02068 26.4575 7.90075 25.9527 7.57697C25.4934 7.28239 25.4553 7.13281 25.8379 7.1278C26.1681 7.12415 26.4121 6.53954 26.4121 5.75291C26.4121 4.46101 26.3101 4.38485 24.5747 4.38485H22.7373V6.20892ZM26.8714 5.75291C26.8714 6.73973 27.0956 7.13008 27.6752 7.15288C28.3624 7.18024 28.3459 7.2418 27.5604 7.57697C26.684 7.95091 26.689 7.97052 27.6752 8.00107C28.5801 8.02889 28.7088 7.8059 28.7088 6.20892C28.7088 4.68902 28.5558 4.38485 27.7901 4.38485C27.0753 4.38485 26.8714 4.68902 26.8714 5.75291ZM43.867 5.98091C43.867 6.81679 44.1118 7.12096 44.7857 7.12096C45.4595 7.12096 45.7043 6.81679 45.7043 5.98091C45.7043 5.14503 45.4595 4.84087 44.7857 4.84087C44.1118 4.84087 43.867 5.14503 43.867 5.98091ZM46.1637 5.98091C46.1637 6.81679 46.4085 7.12096 47.0824 7.12096C47.5876 7.12096 48.001 6.90754 48.001 6.64715C48.001 6.37309 48.273 6.42143 48.6446 6.76116C48.9987 7.08448 49.1021 7.41737 48.8742 7.50082C47.798 7.89619 48.6519 8.48901 50.2977 8.48901C52.1553 8.48901 52.8122 7.81958 51.3313 7.43515C50.5655 7.23678 50.5655 7.22402 51.3313 7.17386C52.5219 7.09542 52.4378 4.84087 51.244 4.84087C50.5527 4.84087 50.3129 5.22393 50.1728 6.55094L49.9927 8.261L49.9156 6.55094C49.8398 4.87279 49.8044 4.84087 48.001 4.84087C46.3474 4.84087 46.1637 4.95487 46.1637 5.98091ZM52.5944 6.66494V8.48901H54.4318H56.2692V6.66494V4.84087H54.4318H52.5944V6.66494ZM56.7285 6.66494C56.7285 8.11279 56.898 8.48901 57.5493 8.48901C58.1433 8.48901 58.4014 8.08589 58.4823 7.03066C58.6219 5.21389 59.0252 4.71592 59.0252 6.36078C59.0252 7.47574 59.1782 7.57697 60.8626 7.57697C62.598 7.57697 62.6999 7.50082 62.6999 6.20892C62.6999 5.16145 62.4923 4.84087 61.8134 4.84087C61.259 4.84087 60.852 5.22529 60.7275 5.86691L60.5282 6.89295L60.4657 5.86691C60.412 4.98406 60.1465 4.84087 58.5659 4.84087H56.7285V6.66494ZM63.1593 6.20892C63.1593 7.27281 63.3632 7.57697 64.0779 7.57697C64.7927 7.57697 64.9966 7.27281 64.9966 6.20892C64.9966 5.14503 64.7927 4.84087 64.0779 4.84087C63.3632 4.84087 63.1593 5.14503 63.1593 6.20892ZM82.107 5.14275C81.7915 5.26953 81.2747 5.26953 80.9587 5.14275C80.6431 5.01644 80.9013 4.91292 81.5329 4.91292C82.1645 4.91292 82.4231 5.01644 82.107 5.14275ZM90.49 5.29689C89.9847 5.51258 89.2613 5.68861 88.8823 5.68861C88.4482 5.68861 88.5328 5.54405 89.112 5.29689C89.6173 5.08119 90.3407 4.90517 90.7197 4.90517C91.1537 4.90517 91.0692 5.04973 90.49 5.29689ZM73.7241 6.43693C73.7241 7.27281 73.9689 7.57697 74.6428 7.57697C75.3166 7.57697 75.5614 7.27281 75.5614 6.43693C75.5614 5.60105 75.3166 5.29689 74.6428 5.29689C73.9689 5.29689 73.7241 5.60105 73.7241 6.43693ZM76.0208 6.43693C76.0208 7.78765 77.6606 8.0713 78.001 6.77894C78.2008 6.01876 78.2137 6.01876 78.2642 6.77894C78.3496 8.06126 79.6955 7.73977 79.6955 6.43693C79.6955 5.41089 79.5118 5.29689 77.8582 5.29689C76.2045 5.29689 76.0208 5.41089 76.0208 6.43693ZM87.8392 6.02834C87.6867 6.17974 87.2902 6.19615 86.9591 6.06436C86.5925 5.91889 86.7014 5.81082 87.2365 5.78893C87.7206 5.76932 87.9917 5.87694 87.8392 6.02834ZM91.9732 6.48436C91.8207 6.63576 91.4243 6.65217 91.0931 6.52038C90.7266 6.37491 90.8354 6.26684 91.3706 6.24495C91.8547 6.22534 92.1257 6.33296 91.9732 6.48436ZM25.034 7.12096C25.034 7.37177 24.8273 7.57697 24.5747 7.57697C24.3221 7.57697 24.1154 7.37177 24.1154 7.12096C24.1154 6.87015 24.3221 6.66494 24.5747 6.66494C24.8273 6.66494 25.034 6.87015 25.034 7.12096ZM89.3417 7.12096C87.7712 7.6203 86.5636 7.6203 87.734 7.12096C88.2392 6.90526 89.066 6.73517 89.5713 6.74246C90.3099 6.75341 90.2649 6.82728 89.3417 7.12096ZM16.3066 7.57697C16.3066 7.82778 16.72 8.03299 17.2253 8.03299C17.7305 8.03299 18.1439 7.82778 18.1439 7.57697C18.1439 7.32616 17.7305 7.12096 17.2253 7.12096C16.72 7.12096 16.3066 7.32616 16.3066 7.57697ZM18.6033 7.63078C18.6033 7.85195 19.4301 8.03299 20.4406 8.03299C21.4512 8.03299 22.278 7.84055 22.278 7.6057C22.278 7.3704 21.4512 7.18936 20.4406 7.2035C19.4301 7.21718 18.6033 7.40962 18.6033 7.63078ZM54.8911 7.57697C54.8911 7.82778 54.6844 8.03299 54.4318 8.03299C54.1792 8.03299 53.9725 7.82778 53.9725 7.57697C53.9725 7.32616 54.1792 7.12096 54.4318 7.12096C54.6844 7.12096 54.8911 7.32616 54.8911 7.57697ZM29.2627 7.82322C29.7046 8.26146 32.8428 8.40237 32.8428 7.98329C32.8428 7.75984 31.9816 7.57697 30.9287 7.57697C29.8764 7.57697 29.1263 7.68779 29.2627 7.82322ZM35.4735 8.45937C35.3347 8.98698 35.5143 9.44619 35.9209 9.60124C36.8804 9.96651 37.693 9.38691 36.9112 8.89486C36.4886 8.62946 36.7693 8.50086 37.7807 8.49585C38.6016 8.4922 39.2736 8.2838 39.2736 8.03299C39.2736 7.78218 38.4707 7.57697 37.49 7.57697C36.1119 7.57697 35.6531 7.77808 35.4735 8.45937ZM39.7329 8.03299C39.7329 8.2838 40.5597 8.48901 41.5703 8.48901C42.5808 8.48901 43.4076 8.2838 43.4076 8.03299C43.4076 7.78218 42.5808 7.57697 41.5703 7.57697C40.5597 7.57697 39.7329 7.78218 39.7329 8.03299ZM43.867 8.03299C43.867 8.2838 44.2804 8.48901 44.7857 8.48901C45.2909 8.48901 45.7043 8.2838 45.7043 8.03299C45.7043 7.78218 45.2909 7.57697 44.7857 7.57697C44.2804 7.57697 43.867 7.78218 43.867 8.03299ZM46.1637 8.03299C46.1637 8.2838 46.5771 8.48901 47.0824 8.48901C47.5876 8.48901 48.001 8.2838 48.001 8.03299C48.001 7.78218 47.5876 7.57697 47.0824 7.57697C46.5771 7.57697 46.1637 7.78218 46.1637 8.03299ZM86.4611 7.85241C86.3086 8.00381 85.9122 8.02022 85.581 7.88843C85.2145 7.74296 85.3233 7.63489 85.8585 7.613C86.3426 7.59339 86.6136 7.70101 86.4611 7.85241ZM59.0252 8.49448C59.0252 8.7421 59.5544 8.94503 60.2007 8.94503C60.9742 8.94503 61.2636 9.12561 61.0477 9.47309C60.8221 9.83472 61.0307 9.91954 61.71 9.74351C62.2553 9.60169 62.5856 9.67237 62.4436 9.89947C62.3021 10.127 62.5015 10.3131 62.8864 10.3131C63.7275 10.3131 64.5993 11.7655 64.1606 12.4354C63.9888 12.6976 63.5382 13.0296 63.1593 13.1728C62.7403 13.331 62.936 13.4473 63.6581 13.4692C64.7945 13.5038 64.8501 13.3894 64.9433 10.8193L65.0412 8.13332L62.033 8.08863C60.3279 8.06309 59.0252 8.23911 59.0252 8.49448ZM66.2598 8.35494C66.8285 8.46347 67.7582 8.46347 68.3268 8.35494C68.8955 8.24595 68.4302 8.15703 67.2933 8.15703C66.1565 8.15703 65.6911 8.24595 66.2598 8.35494ZM69.9345 8.33488C70.2506 8.46165 70.7673 8.46165 71.0829 8.33488C71.3989 8.20856 71.1403 8.10504 70.5087 8.10504C69.8771 8.10504 69.619 8.20856 69.9345 8.33488ZM71.8867 8.94503C71.8867 9.71524 72.1908 9.85615 73.8389 9.85022C75.2684 9.84475 75.6069 9.72482 75.1021 9.40104C74.6428 9.10646 74.6046 8.95688 74.9873 8.95187C75.3033 8.94822 75.5614 8.73982 75.5614 8.48901C75.5614 8.2382 74.7346 8.03299 73.7241 8.03299C72.1931 8.03299 71.8867 8.18485 71.8867 8.94503ZM76.0208 8.48901C76.0208 8.73982 76.4342 8.94503 76.9395 8.94503C77.4447 8.94503 77.8582 8.73982 77.8582 8.48901C77.8582 8.2382 77.4447 8.03299 76.9395 8.03299C76.4342 8.03299 76.0208 8.2382 76.0208 8.48901ZM84.5186 8.27012C82.9343 8.83969 80.5311 9.30437 80.8829 8.9733C81.114 8.75578 81.7166 8.47898 82.2219 8.35813C83.2986 8.10094 85.1906 8.02843 84.5186 8.27012ZM73.9538 8.94503C74.1099 9.19584 74.0185 9.40104 73.7512 9.40104C73.4839 9.40104 73.2647 9.19584 73.2647 8.94503C73.2647 8.69422 73.3557 8.48901 73.4673 8.48901C73.5789 8.48901 73.7976 8.69422 73.9538 8.94503ZM84.9899 9.6441C82.7226 10.2342 80.7897 10.6396 80.6946 10.5447C80.5995 10.4503 81.3174 10.1667 82.2903 9.91498C83.2632 9.6628 84.7827 9.2574 85.6669 9.01389C86.5512 8.77037 87.688 8.57155 88.1933 8.57155C88.6986 8.57155 87.2572 9.05447 84.9899 9.6441ZM19.6717 9.5871C19.8421 10.0276 19.9813 10.9866 19.9813 11.7185C19.9813 12.74 20.1921 13.0492 20.8894 13.0492C21.6597 13.0492 21.7819 12.7728 21.6933 11.2274C21.6358 10.2255 21.4507 9.40469 21.2821 9.40332C21.1131 9.40196 20.6124 9.26287 20.1687 9.09369C19.5362 8.85291 19.4292 8.95916 19.6717 9.5871ZM32.039 9.31896C31.3022 9.42248 31.0055 9.77179 31.0055 10.5356C31.0055 11.1248 30.8801 11.931 30.7266 12.3278C30.4974 12.9215 30.8231 13.0492 32.564 13.0492C34.676 13.0492 34.6802 13.0464 34.6802 11.4531C34.6802 9.44072 33.7858 9.33766 33.6926 11.3391C33.6274 12.7341 33.6072 12.714 33.3481 10.9971C33.1111 9.42886 32.9273 9.19356 32.039 9.31896ZM65.456 9.40104C65.456 9.65185 66.2828 9.85706 67.2933 9.85706C68.3039 9.85706 69.1307 9.65185 69.1307 9.40104C69.1307 9.15023 68.3039 8.94503 67.2933 8.94503C66.2828 8.94503 65.456 9.15023 65.456 9.40104ZM69.59 9.40104C69.59 9.65185 70.0034 9.85706 70.5087 9.85706C71.014 9.85706 71.4274 9.65185 71.4274 9.40104C71.4274 9.15023 71.014 8.94503 70.5087 8.94503C70.0034 8.94503 69.59 9.15023 69.59 9.40104ZM25.4934 11.2251C25.4934 12.745 25.6463 13.0492 26.4121 13.0492C27.1778 13.0492 27.3307 12.745 27.3307 11.2251C27.3307 9.70521 27.1778 9.40104 26.4121 9.40104C25.6463 9.40104 25.4934 9.70521 25.4934 11.2251ZM53.0538 10.7463C53.0538 11.47 52.9284 12.387 52.775 12.7838C52.5646 13.3278 52.7906 13.5052 53.6936 13.5052C54.9435 13.5052 55.1511 12.9183 54.61 10.9146C54.1778 9.3144 53.0538 9.19264 53.0538 10.7463ZM76.3653 9.70293C76.6813 9.8297 77.1981 9.8297 77.5136 9.70293C77.8297 9.57661 77.5711 9.47309 76.9395 9.47309C76.3079 9.47309 76.0497 9.57661 76.3653 9.70293ZM78.6909 9.7125C79.0221 9.84429 79.4185 9.82788 79.571 9.67648C79.7235 9.52508 79.4525 9.41746 78.9684 9.43707C78.4333 9.45896 78.3244 9.56703 78.6909 9.7125ZM41.1569 11.3391C41.1316 12.2799 41.3176 13.0492 41.5703 13.0492C42.0962 13.0492 42.0962 12.3994 41.5703 10.7691C41.2419 9.75172 41.1978 9.81283 41.1569 11.3391ZM42.489 11.708C42.489 12.7259 42.6557 13.4569 42.8592 13.3319C43.2152 13.1135 43.036 9.85706 42.6686 9.85706C42.5698 9.85706 42.489 10.6902 42.489 11.708ZM47.2881 10.2748C47.4315 10.5046 47.346 11.2206 47.0989 11.8654C46.7002 12.9064 46.7801 13.0711 47.8063 13.3264C49.3235 13.7045 49.499 13.4623 49.1278 11.4996C48.8977 10.2812 48.5862 9.85706 47.923 9.85706C47.4305 9.85706 47.1453 10.0449 47.2881 10.2748ZM58.1065 11.6811V13.5052L60.0587 13.4915C61.6081 13.4801 61.8451 13.3816 61.2071 13.0127C60.7289 12.7364 60.4032 12.0026 60.4032 11.2023C60.4032 10.0714 60.2204 9.85706 59.2549 9.85706C58.2214 9.85706 58.1065 10.0395 58.1065 11.6811ZM65.456 11.4531C65.456 12.4035 65.6746 12.5932 66.7701 12.5932C67.9245 12.5932 68.0577 12.7318 67.8652 13.7332C67.6567 14.8158 67.7472 14.8701 69.6511 14.8085L71.6571 14.7437L69.8197 14.4172L67.9823 14.0907L69.7049 14.026C70.6525 13.9904 71.4274 13.7323 71.4274 13.4518C71.4274 13.1536 70.9478 13.0337 70.268 13.1627C69.6304 13.284 68.9979 13.2051 68.8629 12.9881C68.7279 12.771 69.2497 12.5932 70.0223 12.5932C71.2147 12.5932 71.4274 12.4208 71.4274 11.4531C71.4274 9.94416 69.7444 9.84703 69.455 11.3391L69.2556 12.3652L69.1932 11.3391C69.1394 10.4563 68.8739 10.3131 67.2933 10.3131C65.6397 10.3131 65.456 10.4271 65.456 11.4531ZM71.9653 12.1371C72.0222 13.5768 72.2152 13.9612 72.8807 13.9612C73.8371 13.9612 74.0185 13.243 73.1499 12.895C72.8344 12.7687 73.1958 12.6652 73.9538 12.6652C74.7117 12.6652 75.0736 12.7687 74.7576 12.895C73.9579 13.2156 74.0383 13.9612 74.8724 13.9612C75.3699 13.9612 75.5614 13.4546 75.5614 12.1371C75.5614 10.3135 75.561 10.3131 73.7273 10.3131H71.8932L71.9653 12.1371ZM76.0208 12.1371C76.0208 13.6571 76.1738 13.9612 76.9395 13.9612C77.7052 13.9612 77.8582 13.6571 77.8582 12.1371C77.8582 10.6172 77.7052 10.3131 76.9395 10.3131C76.1738 10.3131 76.0208 10.6172 76.0208 12.1371ZM80.2692 12.3542C80.136 13.0478 79.7497 13.4911 79.2973 13.4692C78.8214 13.4464 78.7571 13.3492 79.1213 13.2033C79.4374 13.0765 79.6955 12.465 79.6955 11.8444C79.6955 11.2233 79.8747 10.8252 80.0933 10.9593C80.3119 11.0933 80.3914 11.7213 80.2692 12.3542ZM92.6719 11.527C92.3563 11.6538 91.8395 11.6538 91.5235 11.527C91.208 11.4007 91.4661 11.2972 92.0977 11.2972C92.7293 11.2972 92.9879 11.4007 92.6719 11.527ZM90.5952 11.9566C90.4427 12.108 90.0463 12.1244 89.7151 11.9926C89.3485 11.8471 89.4574 11.739 89.9925 11.7172C90.4767 11.6975 90.7477 11.8052 90.5952 11.9566ZM88.1933 12.5932C87.688 12.8089 86.9646 12.9849 86.5856 12.9849C86.1515 12.9849 86.2361 12.8403 86.8153 12.5932C87.3206 12.3775 88.044 12.2014 88.423 12.2014C88.857 12.2014 88.7725 12.346 88.1933 12.5932ZM65.456 13.5052C65.456 13.756 65.8694 13.9612 66.3746 13.9612C66.8799 13.9612 67.2933 13.756 67.2933 13.5052C67.2933 13.2544 66.8799 13.0492 66.3746 13.0492C65.8694 13.0492 65.456 13.2544 65.456 13.5052ZM85.3224 13.3511C85.0069 13.4778 84.4901 13.4778 84.1741 13.3511C83.8585 13.2247 84.1167 13.1212 84.7483 13.1212C85.3798 13.1212 85.6385 13.2247 85.3224 13.3511ZM90.49 13.5052C89.9847 13.7209 89.1579 13.891 88.6526 13.8837C87.914 13.8728 87.959 13.7989 88.8823 13.5052C90.4528 13.0059 91.6604 13.0059 90.49 13.5052ZM16.3066 15.3293C16.3066 16.8474 16.4605 17.1533 17.222 17.1533C17.9956 17.1533 18.126 16.8711 18.0654 15.3293C18.0084 13.8896 17.8155 13.5052 17.1499 13.5052C16.4724 13.5052 16.3066 13.8636 16.3066 15.3293ZM18.6033 13.9339C18.6033 14.1692 19.3786 14.4428 20.3258 14.5413L22.0483 14.72L20.3258 14.7966C18.815 14.8637 18.6033 15.0137 18.6033 16.0133C18.6033 17.5223 20.2863 17.6194 20.5757 16.1273L20.775 15.1013L20.8375 16.1273C20.8912 17.0102 21.1567 17.1533 22.7373 17.1533C24.391 17.1533 24.5747 17.0393 24.5747 16.0133C24.5747 14.6626 22.9349 14.3789 22.5945 15.6713C22.4792 16.1104 22.3607 15.8022 22.3313 14.9873C22.2803 13.5709 22.1962 13.5052 20.4406 13.5052C19.4301 13.5052 18.6033 13.6981 18.6033 13.9339ZM22.7373 13.9612C22.7373 14.212 23.1507 14.4172 23.656 14.4172C24.1613 14.4172 24.5747 14.212 24.5747 13.9612C24.5747 13.7104 24.1613 13.5052 23.656 13.5052C23.1507 13.5052 22.7373 13.7104 22.7373 13.9612ZM25.034 13.9899C25.034 14.2248 25.6183 14.4172 26.3326 14.4172C27.514 14.4172 27.6128 14.5404 27.4286 15.7853C27.2756 16.8209 27.4056 17.1533 27.9642 17.1533C28.5273 17.1533 28.6858 16.7333 28.632 15.3822C28.5636 13.6484 28.525 13.6101 26.7984 13.5864C25.8278 13.5731 25.034 13.7546 25.034 13.9899ZM29.1681 13.9612C29.1681 14.212 29.5815 14.4172 30.0868 14.4172C30.5921 14.4172 31.0055 14.212 31.0055 13.9612C31.0055 13.7104 30.5921 13.5052 30.0868 13.5052C29.5815 13.5052 29.1681 13.7104 29.1681 13.9612ZM31.4648 14.015C31.4648 14.2362 32.2916 14.4172 33.3022 14.4172C34.3127 14.4172 35.1395 14.2248 35.1395 13.9899C35.1395 13.7546 34.3127 13.5736 33.3022 13.5877C32.2916 13.6014 31.4648 13.7939 31.4648 14.015ZM35.5989 14.0041C35.5989 14.2312 36.0123 14.4172 36.5175 14.4172C37.0228 14.4172 37.4362 14.3383 37.4362 14.2426C37.4362 14.1464 37.0228 13.9603 36.5175 13.829C36.0123 13.6981 35.5989 13.7765 35.5989 14.0041ZM83.2458 13.7806C83.0933 13.932 82.6968 13.9484 82.3657 13.8167C81.9991 13.6712 82.108 13.5631 82.6431 13.5412C83.1272 13.5216 83.3983 13.6292 83.2458 13.7806ZM38.6994 14.2832C39.2676 14.3917 40.1982 14.3917 40.7664 14.2832C41.3346 14.1742 40.8698 14.0853 39.7329 14.0853C38.5961 14.0853 38.1312 14.1742 38.6994 14.2832ZM42.3741 14.2631C42.6902 14.3899 43.2069 14.3899 43.5225 14.2631C43.8385 14.1368 43.5799 14.0333 42.9483 14.0333C42.3167 14.0333 42.0586 14.1368 42.3741 14.2631ZM44.6998 14.2727C45.031 14.4045 45.4274 14.388 45.5799 14.2367C45.7324 14.0853 45.4614 13.9776 44.9772 13.9972C44.4421 14.0191 44.3332 14.1272 44.6998 14.2727ZM46.623 14.4172C47.0309 14.679 47.0902 14.8623 46.7682 14.8664C46.4691 14.8701 46.1384 15.4373 46.0332 16.1273L45.8421 17.3813L45.7732 16.1273C45.6749 14.3338 44.3263 14.44 44.3263 16.2413C44.3263 17.5355 44.4265 17.6094 46.1825 17.6094H48.0382L47.9298 15.7853C47.8403 14.2813 47.6556 13.9626 46.8775 13.9681C46.1003 13.974 46.0553 14.0529 46.623 14.4172ZM48.4604 15.7853C48.4604 17.3052 48.6133 17.6094 49.3791 17.6094C50.1181 17.6094 50.2977 17.3052 50.2977 16.0562C50.2977 14.7273 50.4305 14.5372 51.2164 14.741C51.73 14.8746 52.1351 14.7551 52.1351 14.4706C52.1351 14.1806 51.3446 13.9612 50.2977 13.9612H48.4604V15.7853ZM52.5944 14.4172C52.5944 14.668 53.0079 14.8733 53.5131 14.8733C54.0184 14.8733 54.4318 14.668 54.4318 14.4172C54.4318 14.1664 54.0184 13.9612 53.5131 13.9612C53.0079 13.9612 52.5944 14.1664 52.5944 14.4172ZM54.8911 14.4679C54.8911 14.6908 56.2347 14.8733 57.8769 14.8733C59.519 14.8733 60.8626 14.6908 60.8626 14.4679C60.8626 14.2449 59.519 14.0625 57.8769 14.0625C56.2347 14.0625 54.8911 14.2449 54.8911 14.4679ZM61.3219 14.4273C61.3219 14.6735 62.694 14.8733 64.3843 14.8733C66.0683 14.8733 67.3434 14.7711 67.2175 14.6457C66.7541 14.186 61.3219 13.9845 61.3219 14.4273ZM87.3798 14.2367C87.2273 14.388 86.8309 14.4045 86.4997 14.2727C86.1332 14.1272 86.242 14.0191 86.7772 13.9972C87.2613 13.9776 87.5323 14.0853 87.3798 14.2367ZM71.8867 16.2413V18.0654H74.8724H77.8582V16.2413C77.8582 14.7214 77.7052 14.4172 76.9395 14.4172C76.4342 14.4172 76.0451 14.5714 76.075 14.7592C76.2077 15.5933 76.0001 17.7407 75.8054 17.5473C75.6869 17.4297 75.5394 16.6773 75.4778 15.8756C75.3704 14.471 74.1834 13.7223 74.1834 15.0584C74.1834 15.4943 73.8605 15.6161 73.1747 15.4378C72.2115 15.1879 72.2064 15.1601 73.0599 14.8286C73.8862 14.5075 73.8757 14.4788 72.9202 14.4492C72.0153 14.4213 71.8867 14.6443 71.8867 16.2413ZM78.3175 16.2413C78.3175 17.7247 78.4792 18.0654 79.1843 18.0654C79.809 18.0654 80.114 17.6518 80.2775 16.5833C80.5526 14.7884 80.3698 14.4172 79.2091 14.4172C78.475 14.4172 78.3175 14.7396 78.3175 16.2413ZM84.7483 14.8733C83.1778 15.3726 81.9702 15.3726 83.1406 14.8733C83.6458 14.6576 84.4726 14.4875 84.9779 14.4948C85.7165 14.5057 85.6715 14.5796 84.7483 14.8733ZM25.034 16.0133C25.034 16.8492 25.2789 17.1533 25.9527 17.1533C26.6266 17.1533 26.8714 16.8492 26.8714 16.0133C26.8714 15.1774 26.6266 14.8733 25.9527 14.8733C25.2789 14.8733 25.034 15.1774 25.034 16.0133ZM29.1681 15.98C29.1681 16.6504 29.485 17.1688 29.9719 17.2952C30.7377 17.4935 30.7377 17.5063 29.9719 17.5565C28.8525 17.6303 28.9586 18.5214 30.0868 18.5214C30.8525 18.5214 31.0055 18.2172 31.0055 16.6973C31.0055 15.1774 30.8525 14.8733 30.0868 14.8733C29.4203 14.8733 29.1681 15.1774 29.1681 15.98ZM31.4648 16.6973C31.4648 18.1944 31.6237 18.5214 32.3499 18.5214C32.8364 18.5214 33.3293 18.1625 33.445 17.7234C33.6448 16.9632 33.6577 16.9632 33.7082 17.7234C33.7496 18.3417 34.1754 18.5214 35.5989 18.5214H37.4362V16.6973C37.4362 15.146 37.2915 14.8733 36.4675 14.8733C35.6306 14.8733 35.524 15.0908 35.6861 16.4693C35.7895 17.3471 35.7086 18.0654 35.5065 18.0654C35.3049 18.0654 35.1395 17.3471 35.1395 16.4693C35.1395 14.9111 35.0959 14.8733 33.3022 14.8733H31.4648V16.6973ZM37.9704 16.7593C38.0563 18.2017 38.2465 18.52 39.0191 18.5146C39.591 18.51 39.7563 18.3755 39.4394 18.1725C39.06 17.9295 39.0917 17.6755 39.5542 17.2496C39.9222 16.9103 40.1923 16.8619 40.1923 17.1356C40.1923 17.3959 40.5023 17.6094 40.8813 17.6094C41.3333 17.6094 41.5703 17.1602 41.5703 16.3033C41.5703 15.0821 41.4504 14.9977 39.7182 14.9977H37.8657L37.9704 16.7593ZM42.0296 16.6973C42.0296 18.2943 42.1582 18.5173 43.0631 18.4895C44.0493 18.4589 44.0544 18.4393 43.178 18.0654C42.3925 17.7302 42.376 17.6686 43.0631 17.6413C44.3043 17.592 44.1913 14.8733 42.9483 14.8733C42.1826 14.8733 42.0296 15.1774 42.0296 16.6973ZM50.7571 16.4693C50.7571 17.4954 50.9408 17.6094 52.5944 17.6094C54.2481 17.6094 54.4318 17.4954 54.4318 16.4693C54.4318 15.4433 54.2481 15.3293 52.5944 15.3293C50.9408 15.3293 50.7571 15.4433 50.7571 16.4693ZM54.8911 16.4693C54.8911 17.9783 56.5742 18.0754 56.8636 16.5833L57.0629 15.5573L57.1254 16.5833C57.2136 18.028 58.5659 17.9208 58.5659 16.4693C58.5659 15.4433 58.3821 15.3293 56.7285 15.3293C55.0749 15.3293 54.8911 15.4433 54.8911 16.4693ZM59.0252 16.4693C59.0252 17.3052 59.27 17.6094 59.9439 17.6094C60.6177 17.6094 60.8626 17.3052 60.8626 16.4693C60.8626 15.6334 60.6177 15.3293 59.9439 15.3293C59.27 15.3293 59.0252 15.6334 59.0252 16.4693ZM61.3219 16.4693C61.3219 17.3813 61.5516 17.6094 62.4703 17.6094C63.185 17.6094 63.6186 17.8679 63.6186 18.2934C63.6186 18.6696 63.9287 18.9774 64.3076 18.9774C64.8051 18.9774 64.9966 18.4708 64.9966 17.1533V15.3293H63.1593C61.5056 15.3293 61.3219 15.4433 61.3219 16.4693ZM65.5272 17.1533C65.6062 18.4813 65.8368 18.9774 66.3746 18.9774C66.9125 18.9774 67.1431 18.4813 67.2221 17.1533C67.3158 15.5751 67.2019 15.3293 66.3746 15.3293C65.5474 15.3293 65.4335 15.5751 65.5272 17.1533ZM67.7527 16.7511C67.7527 17.9806 67.8716 18.0654 69.59 18.0654C71.3167 18.0654 71.4274 17.9847 71.4274 16.7261C71.4274 15.4629 71.3222 15.3881 69.59 15.4118C67.8772 15.4351 67.7527 15.5258 67.7527 16.7511ZM90.49 15.7853C89.9847 16.001 89.1579 16.177 88.6526 16.177H87.734L88.6526 15.7853C89.1579 15.5696 89.9847 15.3936 90.49 15.3936H91.4087L90.49 15.7853ZM74.0378 17.2391C73.8913 17.6025 73.7824 17.4944 73.7604 16.9632C73.7406 16.4825 73.849 16.2135 74.0015 16.3649C74.154 16.5163 74.1706 16.9098 74.0378 17.2391ZM87.3798 16.5167C87.2273 16.6681 86.8309 16.6846 86.4997 16.5528C86.1332 16.4073 86.242 16.2992 86.7772 16.2773C87.2613 16.2577 87.5323 16.3653 87.3798 16.5167ZM89.112 17.6094C88.6067 17.8251 87.6765 17.9915 87.045 17.9792C86.0032 17.9596 86.0243 17.9254 87.2746 17.6094C89.1873 17.126 90.2447 17.126 89.112 17.6094ZM18.1439 18.0654C19.2808 18.2409 19.849 18.4151 19.4071 18.453C18.29 18.5483 18.3934 19.4334 19.522 19.4334C20.1343 19.4334 20.4406 19.1293 20.4406 18.5214C20.4406 17.7279 20.1572 17.618 18.2588 17.6778L16.0769 17.7462L18.1439 18.0654ZM20.9 18.5214C20.9 19.3012 21.1834 19.4234 22.8522 19.365C24.2375 19.3167 24.4351 19.2414 23.5334 19.106C22.8343 19.0011 22.3694 18.7435 22.5003 18.5332C22.6312 18.323 23.1517 18.2583 23.6565 18.3896C24.1696 18.5228 24.5747 18.4033 24.5747 18.1187C24.5747 17.8287 23.7842 17.6094 22.7373 17.6094C21.2064 17.6094 20.9 17.7612 20.9 18.5214ZM25.034 18.0654C25.034 18.3162 25.4474 18.5214 25.9527 18.5214C26.458 18.5214 26.8714 18.3162 26.8714 18.0654C26.8714 17.8146 26.458 17.6094 25.9527 17.6094C25.4474 17.6094 25.034 17.8146 25.034 18.0654ZM27.3307 18.0654C27.3307 18.3162 27.6408 18.5214 28.0197 18.5214C28.3987 18.5214 28.7088 18.3162 28.7088 18.0654C28.7088 17.8146 28.3987 17.6094 28.0197 17.6094C27.6408 17.6094 27.3307 17.8146 27.3307 18.0654ZM40.5657 18.3768C40.8969 18.5086 41.2933 18.4922 41.4458 18.3408C41.5983 18.1894 41.3273 18.0818 40.8431 18.1014C40.308 18.1233 40.1992 18.2314 40.5657 18.3768ZM45.3598 18.3919C46.0548 18.4963 46.623 18.7453 46.623 18.9446C46.623 19.1439 46.1063 19.2091 45.4747 19.0891C44.8045 18.9619 44.3263 19.0832 44.3263 19.3801C44.3263 19.6701 45.1173 19.8894 46.1637 19.8894C47.1742 19.8894 48.001 19.6842 48.001 19.4334C48.001 19.1826 47.7429 18.9742 47.4269 18.9706C47.0442 18.9656 47.0824 18.816 47.5417 18.5214C48.0369 18.2035 47.6496 18.0964 46.1637 18.1406C44.8206 18.1807 44.539 18.2688 45.3598 18.3919ZM48.4604 18.9774C48.4604 19.5853 48.7668 19.8894 49.3791 19.8894C49.9914 19.8894 50.2977 19.5853 50.2977 18.9774C50.2977 18.3695 49.9914 18.0654 49.3791 18.0654C48.7668 18.0654 48.4604 18.3695 48.4604 18.9774ZM50.7571 18.9774C50.7571 19.7376 51.0635 19.8894 52.5944 19.8894C54.1254 19.8894 54.4318 19.7376 54.4318 18.9774C54.4318 18.2172 54.1254 18.0654 52.5944 18.0654C51.0635 18.0654 50.7571 18.2172 50.7571 18.9774ZM54.8911 18.9774C54.8911 19.6213 55.1952 19.8872 55.9247 19.8826C56.7602 19.8767 56.8263 19.7909 56.2692 19.4334C55.8098 19.1388 55.7717 18.9893 56.1543 18.9843C56.4704 18.9806 56.7285 18.7722 56.7285 18.5214C56.7285 18.2706 56.3151 18.0654 55.8098 18.0654C55.1975 18.0654 54.8911 18.3695 54.8911 18.9774ZM57.1878 18.5214C57.1878 18.7722 57.4979 18.9774 57.8769 18.9774C58.2558 18.9774 58.5659 18.7722 58.5659 18.5214C58.5659 18.2706 58.2558 18.0654 57.8769 18.0654C57.4979 18.0654 57.1878 18.2706 57.1878 18.5214ZM59.0252 18.5592C59.0252 18.7895 59.9554 18.9774 61.0922 18.9774C62.2291 18.9774 63.1593 18.7895 63.1593 18.5592C63.1593 18.3294 62.2291 18.1415 61.0922 18.1415C59.9554 18.1415 59.0252 18.3294 59.0252 18.5592ZM90.0307 18.7813C88.7675 19.1302 87.5273 19.3983 87.2746 19.3769C86.4974 19.3108 90.4307 18.1351 91.4087 18.1411C91.914 18.1443 91.2938 18.4325 90.0307 18.7813ZM16.3066 18.9774C16.3066 19.2282 16.72 19.4334 17.2253 19.4334C17.7305 19.4334 18.1439 19.2282 18.1439 18.9774C18.1439 18.7266 17.7305 18.5214 17.2253 18.5214C16.72 18.5214 16.3066 18.7266 16.3066 18.9774ZM53.0538 18.9774C53.0538 19.2282 52.8471 19.4334 52.5944 19.4334C52.3418 19.4334 52.1351 19.2282 52.1351 18.9774C52.1351 18.7266 52.3418 18.5214 52.5944 18.5214C52.8471 18.5214 53.0538 18.7266 53.0538 18.9774ZM68.5565 18.8433C69.1252 18.9519 70.0549 18.9519 70.6235 18.8433C71.1922 18.7344 70.7269 18.6454 69.59 18.6454C68.4532 18.6454 67.9879 18.7344 68.5565 18.8433ZM72.2312 18.8233C72.5473 18.9501 73.064 18.9501 73.3796 18.8233C73.6956 18.697 73.437 18.5934 72.8054 18.5934C72.1738 18.5934 71.9157 18.697 72.2312 18.8233ZM74.9873 18.8433C75.5559 18.9519 76.4856 18.9519 77.0543 18.8433C77.623 18.7344 77.1577 18.6454 76.0208 18.6454C74.8839 18.6454 74.4186 18.7344 74.9873 18.8433ZM79.0065 18.9774L79.9252 19.3691L79.0065 19.4435C78.5012 19.4845 77.2096 19.4836 76.1356 19.4412C75.0011 19.3965 74.1834 19.5698 74.1834 19.8548C74.1834 20.1548 75.3451 20.3455 77.1691 20.3455C79.8485 20.3455 80.1549 20.252 80.1549 19.4334C80.1549 18.7822 79.8595 18.5305 79.1213 18.5533C78.1351 18.5839 78.1301 18.6035 79.0065 18.9774ZM25.3785 19.2793C25.6946 19.4061 26.2113 19.4061 26.5269 19.2793C26.8429 19.153 26.5843 19.0495 25.9527 19.0495C25.3211 19.0495 25.063 19.153 25.3785 19.2793ZM27.7042 19.2889C28.0354 19.4207 28.4318 19.4042 28.5843 19.2528C28.7368 19.1014 28.4658 18.9938 27.9816 19.0134C27.4465 19.0353 27.3376 19.1434 27.7042 19.2889ZM29.5126 19.2793C29.8286 19.4061 30.3454 19.4061 30.661 19.2793C30.977 19.153 30.7184 19.0495 30.0868 19.0495C29.4552 19.0495 29.197 19.153 29.5126 19.2793ZM31.8093 19.2793C32.1253 19.4061 32.6421 19.4061 32.9577 19.2793C33.2737 19.153 33.0151 19.0495 32.3835 19.0495C31.7519 19.0495 31.4937 19.153 31.8093 19.2793ZM34.795 19.3039C35.49 19.4083 36.0582 19.6897 36.0582 19.9282C36.0582 20.1672 35.5414 20.2342 34.9099 20.0769C33.8694 19.8174 33.7615 19.9236 33.7615 21.2082C33.7615 22.5576 33.8492 22.6255 35.5989 22.6255H37.4362V20.8015V18.9774L35.484 19.0458C34.1134 19.0937 33.908 19.1708 34.795 19.3039ZM37.8956 19.4334C37.8956 19.6842 38.309 19.8894 38.8142 19.8894C39.3195 19.8894 39.7329 19.6842 39.7329 19.4334C39.7329 19.1826 39.3195 18.9774 38.8142 18.9774C38.309 18.9774 37.8956 19.1826 37.8956 19.4334ZM40.1923 19.4334C40.1923 19.6842 40.5023 19.8894 40.8813 19.8894C41.2602 19.8894 41.5703 19.6842 41.5703 19.4334C41.5703 19.1826 41.2602 18.9774 40.8813 18.9774C40.5023 18.9774 40.1923 19.1826 40.1923 19.4334ZM42.0296 19.4334C42.0296 19.6842 42.443 19.8894 42.9483 19.8894C43.4536 19.8894 43.867 19.6842 43.867 19.4334C43.867 19.1826 43.4536 18.9774 42.9483 18.9774C42.443 18.9774 42.0296 19.1826 42.0296 19.4334ZM57.9917 19.7554C58.5604 19.8639 59.4901 19.8639 60.0587 19.7554C60.6274 19.6464 60.1621 19.5575 59.0252 19.5575C57.8883 19.5575 57.423 19.6464 57.9917 19.7554ZM61.6664 19.7353C61.9824 19.8621 62.4992 19.8621 62.8148 19.7353C63.1308 19.609 62.8722 19.5055 62.2406 19.5055C61.609 19.5055 61.3508 19.609 61.6664 19.7353ZM63.9921 19.7449C64.3232 19.8767 64.7197 19.8603 64.8721 19.7089C65.0247 19.5575 64.7536 19.4498 64.2695 19.4695C63.7344 19.4913 63.6255 19.5994 63.9921 19.7449ZM65.8005 19.7353C66.1165 19.8621 66.6333 19.8621 66.9488 19.7353C67.2648 19.609 67.0062 19.5055 66.3746 19.5055C65.7431 19.5055 65.4849 19.609 65.8005 19.7353ZM67.8239 21.2575C67.732 22.8011 67.8537 23.0816 68.6144 23.0816C69.1091 23.0816 69.6176 22.8253 69.7453 22.5115C69.9304 22.0555 69.9841 22.0555 70.0131 22.5115C70.0356 22.8668 70.7425 23.0816 71.8867 23.0816C73.5404 23.0816 73.7241 22.9676 73.7241 21.9415C73.7241 20.5908 72.0842 20.3072 71.7439 21.5995C71.6286 22.0387 71.5101 21.7304 71.4807 20.9155C71.4301 19.5123 71.3341 19.4334 69.6801 19.4334C67.9653 19.4334 67.9304 19.4681 67.8239 21.2575ZM71.8867 19.8894C71.8867 20.1403 72.3001 20.3455 72.8054 20.3455C73.3107 20.3455 73.7241 20.1403 73.7241 19.8894C73.7241 19.6386 73.3107 19.4334 72.8054 19.4334C72.3001 19.4334 71.8867 19.6386 71.8867 19.8894ZM84.5186 20.1494C83.2554 20.4982 82.0152 20.7664 81.7625 20.7449C80.9853 20.6788 84.9187 19.5032 85.8966 19.5091C86.4019 19.5123 85.7818 19.8005 84.5186 20.1494ZM16.6874 21.7135C16.8587 23.4997 16.8996 23.5376 18.6515 23.5376C20.4324 23.5376 20.4406 23.5294 20.4406 21.7135C20.4406 20.2201 20.2812 19.8894 19.5601 19.8894C19.0759 19.8894 18.5757 20.1462 18.448 20.4595C18.2629 20.9155 18.2092 20.9155 18.1802 20.4595C18.1605 20.1462 17.7769 19.8894 17.3281 19.8894C16.6529 19.8894 16.5422 20.2046 16.6874 21.7135ZM20.9785 21.7135C21.0355 23.1532 21.2284 23.5376 21.894 23.5376C22.8338 23.5376 23.0446 22.8034 22.1866 22.5193C21.8416 22.4053 21.928 22.2256 22.4163 22.0396C22.9877 21.8216 23.1967 21.9826 23.1967 22.6397C23.1967 23.134 23.5067 23.5376 23.8857 23.5376C24.3832 23.5376 24.5747 23.0309 24.5747 21.7135C24.5747 19.8899 24.5742 19.8894 22.7406 19.8894H20.9064L20.9785 21.7135ZM25.034 21.7135C25.034 23.2147 25.1916 23.5376 25.9252 23.5376C26.6165 23.5376 26.8562 23.1545 26.9963 21.8275L27.1764 20.1175L27.2536 21.8275C27.3165 23.2252 27.5034 23.5376 28.2765 23.5376C28.7965 23.5376 29.0946 23.3324 28.9384 23.0816C28.7772 22.823 29.1635 22.6255 29.83 22.6255C30.83 22.6255 31.0055 22.4213 31.0055 21.2575V19.8894H28.0197H25.034V21.7135ZM31.4648 21.2575C31.4648 22.3214 31.6687 22.6255 32.3835 22.6255C33.0982 22.6255 33.3022 22.3214 33.3022 21.2575C33.3022 20.1936 33.0982 19.8894 32.3835 19.8894C31.6687 19.8894 31.4648 20.1936 31.4648 21.2575ZM70.0494 20.3313C70.0494 20.5739 69.7393 20.6546 69.3604 20.5105C68.9814 20.366 68.6713 20.1672 68.6713 20.0687C68.6713 19.9702 68.9814 19.8894 69.3604 19.8894C69.7393 19.8894 70.0494 20.0883 70.0494 20.3313ZM37.8956 21.4855C37.8956 22.3214 38.1404 22.6255 38.8142 22.6255C39.4881 22.6255 39.7329 22.3214 39.7329 21.4855C39.7329 20.6496 39.4881 20.3455 38.8142 20.3455C38.1404 20.3455 37.8956 20.6496 37.8956 21.4855ZM40.1923 21.4855C40.1923 22.1951 40.4527 22.6255 40.8813 22.6255C41.3098 22.6255 41.5703 22.1951 41.5703 21.4855C41.5703 20.7759 41.3098 20.3455 40.8813 20.3455C40.4527 20.3455 40.1923 20.7759 40.1923 21.4855ZM42.0296 21.4855C42.0296 22.3214 42.2744 22.6255 42.9483 22.6255C43.6222 22.6255 43.867 22.3214 43.867 21.4855C43.867 20.6496 43.6222 20.3455 42.9483 20.3455C42.2744 20.3455 42.0296 20.6496 42.0296 21.4855ZM44.3263 21.4855C44.3263 22.9945 46.0093 23.0916 46.2987 21.5995L46.4981 20.5735L46.5606 21.5995C46.6143 22.4824 46.8798 22.6255 48.4604 22.6255C50.114 22.6255 50.2977 22.5115 50.2977 21.4855C50.2977 19.9765 48.6147 19.8794 48.3253 21.3715L48.126 22.3975L48.0635 21.3715C48.0098 20.4887 47.7443 20.3455 46.1637 20.3455C44.5101 20.3455 44.3263 20.4595 44.3263 21.4855ZM50.7571 22.1695V23.9936H52.5944H54.4318V22.1695V20.3455H52.5944H50.7571V22.1695ZM54.8911 22.1695C54.8911 23.6894 55.0441 23.9936 55.8098 23.9936C56.5755 23.9936 56.7285 23.6894 56.7285 22.1695C56.7285 20.6496 56.5755 20.3455 55.8098 20.3455C55.0441 20.3455 54.8911 20.6496 54.8911 22.1695ZM57.1878 22.1695C57.1878 23.7665 57.3165 23.9895 58.2214 23.9617C59.2076 23.9311 59.2126 23.9115 58.3362 23.5376C57.5507 23.2024 57.5342 23.1408 58.2214 23.1135C58.6637 23.0962 59.0252 22.8682 59.0252 22.6078C59.0252 22.3342 59.2953 22.3825 59.6632 22.7218C60.1258 23.1477 60.1575 23.4017 59.7781 23.6447C59.4905 23.829 60.1331 23.9827 61.2071 23.9868L63.1593 23.9936V22.1695C63.1593 20.6496 63.0063 20.3455 62.2406 20.3455C61.0137 20.3455 60.9113 22.9083 62.1258 23.2234C62.7307 23.3803 62.6737 23.445 61.8961 23.4847C61.0109 23.5298 60.8626 23.3082 60.8626 21.9415C60.8626 20.3833 60.8189 20.3455 59.0252 20.3455H57.1878V22.1695ZM63.6186 21.7135C63.6186 23.0054 63.7206 23.0816 65.456 23.0816C67.1914 23.0816 67.2933 23.0054 67.2933 21.7135C67.2933 20.667 67.0852 20.3455 66.4082 20.3455C65.9217 20.3455 65.4289 20.7043 65.3131 21.1435C65.1133 21.9037 65.1004 21.9037 65.0499 21.1435C64.9534 19.6975 63.6186 20.2292 63.6186 21.7135ZM74.1834 21.9415C74.1834 22.7774 74.4283 23.0816 75.1021 23.0816C75.776 23.0816 76.0208 22.7774 76.0208 21.9415C76.0208 21.1056 75.776 20.8015 75.1021 20.8015C74.4283 20.8015 74.1834 21.1056 74.1834 21.9415ZM76.4801 21.9415C76.4801 22.6511 76.7406 23.0816 77.1691 23.0816C77.5977 23.0816 77.8582 22.6511 77.8582 21.9415C77.8582 21.232 77.5977 20.8015 77.1691 20.8015C76.7406 20.8015 76.4801 21.232 76.4801 21.9415ZM78.3175 21.9415C78.3175 22.7774 78.5623 23.0816 79.2362 23.0816C79.91 23.0816 80.1549 22.7774 80.1549 21.9415C80.1549 21.1056 79.91 20.8015 79.2362 20.8015C78.5623 20.8015 78.3175 21.1056 78.3175 21.9415ZM19.1044 22.5904C18.7484 22.8139 18.1798 22.8914 17.8412 22.7624C16.8697 22.3925 17.1168 22.1691 18.4884 22.1764C19.4076 22.1814 19.5752 22.294 19.1044 22.5904ZM53.0538 23.0816C53.0538 23.3324 52.9628 23.5376 52.8512 23.5376C52.7396 23.5376 52.521 23.3324 52.3648 23.0816C52.2086 22.8308 52.3 22.6255 52.5673 22.6255C52.8347 22.6255 53.0538 22.8308 53.0538 23.0816ZM86.8153 23.3223C85.8047 23.653 84.5645 23.9193 84.0592 23.9138C83.554 23.9083 84.0707 23.6365 85.2076 23.3096C87.9048 22.5339 89.1942 22.5439 86.8153 23.3223ZM30.0009 23.393C30.3321 23.5248 30.7285 23.5084 30.881 23.357C31.0335 23.2056 30.7625 23.098 30.2783 23.1176C29.7432 23.1395 29.6343 23.2476 30.0009 23.393ZM31.8093 23.3835C32.1253 23.5102 32.6421 23.5102 32.9577 23.3835C33.2737 23.2571 33.0151 23.1536 32.3835 23.1536C31.7519 23.1536 31.4937 23.2571 31.8093 23.3835ZM34.5653 23.4035C35.1335 23.512 36.0642 23.512 36.6324 23.4035C37.2006 23.2945 36.7357 23.2056 35.5989 23.2056C34.462 23.2056 33.9971 23.2945 34.5653 23.4035ZM37.8956 23.5376C37.8956 23.7884 38.309 23.9936 38.8142 23.9936C39.3195 23.9936 39.7329 23.7884 39.7329 23.5376C39.7329 23.2868 39.3195 23.0816 38.8142 23.0816C38.309 23.0816 37.8956 23.2868 37.8956 23.5376ZM40.1923 23.4838C40.1923 23.7049 41.0191 23.8974 42.0296 23.9111C43.0402 23.9252 43.867 23.7442 43.867 23.5089C43.867 23.274 43.0402 23.0816 42.0296 23.0816C41.0191 23.0816 40.1923 23.2626 40.1923 23.4838ZM44.3263 23.5376C44.3263 23.7884 44.7397 23.9936 45.245 23.9936C45.7503 23.9936 46.1637 23.7884 46.1637 23.5376C46.1637 23.2868 45.7503 23.0816 45.245 23.0816C44.7397 23.0816 44.3263 23.2868 44.3263 23.5376ZM46.623 23.5914C46.623 23.8126 47.4498 23.9936 48.4604 23.9936C49.4709 23.9936 50.2977 23.8012 50.2977 23.5663C50.2977 23.331 49.4709 23.15 48.4604 23.1641C47.4498 23.1778 46.623 23.3702 46.623 23.5914ZM63.6567 23.7182C64.0844 24.1208 67.2933 24.3201 67.2933 23.9434C67.2933 23.7204 66.4321 23.5376 65.3793 23.5376C64.3269 23.5376 63.5515 23.6188 63.6567 23.7182ZM67.7527 23.9936C67.7527 24.2444 68.1661 24.4496 68.6713 24.4496C69.1766 24.4496 69.59 24.2444 69.59 23.9936C69.59 23.7428 69.1766 23.5376 68.6713 23.5376C68.1661 23.5376 67.7527 23.7428 67.7527 23.9936ZM70.0494 23.9316C70.0494 24.1482 70.8762 24.3251 71.8867 24.3251C72.8973 24.3251 73.7241 24.1482 73.7241 23.9316C73.7241 23.715 72.8973 23.5376 71.8867 23.5376C70.8762 23.5376 70.0494 23.715 70.0494 23.9316ZM74.1834 23.9936C74.1834 24.2444 74.5968 24.4496 75.1021 24.4496C75.6074 24.4496 76.0208 24.2444 76.0208 23.9936C76.0208 23.7428 75.6074 23.5376 75.1021 23.5376C74.5968 23.5376 74.1834 23.7428 74.1834 23.9936ZM76.4801 23.9398C76.4801 24.161 77.3069 24.3534 78.3175 24.3671C79.328 24.3812 80.1549 24.2002 80.1549 23.9649C80.1549 23.73 79.328 23.5376 78.3175 23.5376C77.3069 23.5376 76.4801 23.7186 76.4801 23.9398ZM17.5698 24.3155C18.138 24.4241 19.0686 24.4241 19.6368 24.3155C20.205 24.2066 19.7401 24.1176 18.6033 24.1176C17.4664 24.1176 17.0016 24.2066 17.5698 24.3155ZM20.9836 25.4519C20.8439 27.2687 20.4406 27.7667 20.4406 26.1218C20.4406 25.0069 20.2877 24.9056 18.6033 24.9056C16.8679 24.9056 16.7659 24.9818 16.7659 26.2737V27.6417H19.7516H22.7373V26.2737C22.7373 25.4871 22.4934 24.9024 22.1632 24.8988C21.7805 24.8938 21.8187 24.7442 22.278 24.4496C22.8467 24.0848 22.8035 24.0064 22.0313 24.0004C21.3065 23.995 21.0699 24.3224 20.9836 25.4519ZM23.1967 25.8177V27.6417H25.034H26.8714V25.8177C26.8714 24.28 26.723 23.9936 25.9256 23.9936C25.4056 23.9936 25.0988 24.1847 25.244 24.4182C25.3896 24.6516 25.2982 24.9713 25.0414 25.1291C24.7846 25.2864 24.5747 25.0953 24.5747 24.7045C24.5747 24.3137 24.2646 23.9936 23.8857 23.9936C23.3882 23.9936 23.1967 24.5002 23.1967 25.8177ZM27.3307 25.8177C27.3307 27.3376 27.4837 27.6417 28.2494 27.6417C29.0151 27.6417 29.1681 27.3376 29.1681 25.8177C29.1681 24.2978 29.0151 23.9936 28.2494 23.9936C27.4837 23.9936 27.3307 24.2978 27.3307 25.8177ZM29.6274 25.8177V27.6417H31.4648H33.3022V25.8177C33.3022 24.2668 33.157 23.9936 32.3343 23.9936C31.6628 23.9936 31.4473 24.2029 31.6311 24.6776C31.8189 25.1642 31.6008 25.3512 30.8764 25.3256C30.3155 25.306 30.1157 25.1861 30.4313 25.0598C31.231 24.7392 31.1506 23.9936 30.3164 23.9936C29.819 23.9936 29.6274 24.5002 29.6274 25.8177ZM33.7615 24.4496C33.7615 24.7004 34.1749 24.9056 34.6802 24.9056C35.1855 24.9056 35.5989 24.7004 35.5989 24.4496C35.5989 24.1988 35.1855 23.9936 34.6802 23.9936C34.1749 23.9936 33.7615 24.1988 33.7615 24.4496ZM39.5276 24.8669C39.3797 25.1045 39.4546 25.4187 39.6939 25.5655C39.9332 25.7123 40.2497 25.638 40.3976 25.4004C40.5455 25.1628 40.4706 24.8486 40.2313 24.7018C39.992 24.555 39.6755 24.6293 39.5276 24.8669ZM86.9205 24.7251C86.768 24.8764 86.3716 24.8929 86.0404 24.7611C85.6738 24.6156 85.7827 24.5075 86.3178 24.4856C86.802 24.466 87.073 24.5737 86.9205 24.7251ZM42.9483 26.7297C42.9483 28.2834 43.0925 28.5538 43.9207 28.5538C44.7048 28.5538 44.8394 28.3554 44.6157 27.5277C44.4637 26.9636 44.336 26.1428 44.3328 25.7037C44.3291 25.2645 44.0163 24.9056 43.6373 24.9056C43.1398 24.9056 42.9483 25.4123 42.9483 26.7297ZM33.7615 26.5017C33.7615 27.3376 34.0063 27.6417 34.6802 27.6417C35.354 27.6417 35.5989 27.3376 35.5989 26.5017C35.5989 25.6658 35.354 25.3617 34.6802 25.3617C34.0063 25.3617 33.7615 25.6658 33.7615 26.5017ZM46.7103 27.0357C46.8325 28.4749 47.03 28.7334 48.1159 28.8757C49.3125 29.0321 49.3791 28.9441 49.3791 27.2012C49.3791 25.4533 49.3092 25.3617 47.9735 25.3617C46.6345 25.3617 46.5743 25.4415 46.7103 27.0357ZM52.5944 27.1857C52.5944 28.7056 52.7474 29.0098 53.5131 29.0098C54.2788 29.0098 54.4318 28.7056 54.4318 27.1857C54.4318 25.6658 54.2788 25.3617 53.5131 25.3617C52.7474 25.3617 52.5944 25.6658 52.5944 27.1857ZM57.6472 27.1857C57.6472 28.5032 57.8387 29.0098 58.3362 29.0098C58.8337 29.0098 59.0252 28.5032 59.0252 27.1857C59.0252 25.8683 58.8337 25.3617 58.3362 25.3617C57.8387 25.3617 57.6472 25.8683 57.6472 27.1857ZM67.2933 27.1857C67.2933 28.7366 67.4385 29.0098 68.2612 29.0098C68.9548 29.0098 69.15 28.8055 68.9502 28.2884C68.7967 27.8916 68.6713 27.0708 68.6713 26.4643C68.6713 25.788 68.4049 25.3617 67.9823 25.3617C67.4849 25.3617 67.2933 25.8683 67.2933 27.1857ZM72.2818 25.4378C72.2464 25.5213 72.1729 26.3594 72.1182 27.2997C72.036 28.7152 72.1706 29.0098 72.8991 29.0098C73.6327 29.0098 73.7558 28.7307 73.6368 27.3348C73.5587 26.4137 73.2363 25.576 72.9202 25.4729C72.6047 25.3699 72.3171 25.3539 72.2818 25.4378ZM76.9395 27.4137C76.9395 28.7148 77.1122 29.0098 77.8738 29.0098C78.6372 29.0098 78.7704 28.7804 78.6004 27.7557C78.4865 27.0658 78.3758 26.3476 78.3552 26.1597C78.3345 25.9718 78.0074 25.8177 77.6285 25.8177C77.1471 25.8177 76.9395 26.2992 76.9395 27.4137ZM88.8823 26.5254C87.7454 26.8811 86.5052 27.1533 86.1263 27.131C85.1782 27.0749 88.8887 25.8888 90.0307 25.8833C90.5359 25.8806 90.0192 26.1697 88.8823 26.5254ZM92.3274 27.1857C91.8221 27.4014 90.9953 27.5774 90.49 27.5774H89.5713L90.49 27.1857C90.9953 26.97 91.8221 26.794 92.3274 26.794H93.246L92.3274 27.1857ZM89.2172 27.9172C89.0647 28.0686 88.6683 28.085 88.3371 27.9532C87.9705 27.8077 88.0794 27.6997 88.6145 27.6778C89.0987 27.6582 89.3697 27.7658 89.2172 27.9172ZM18.019 28.427C18.8343 28.5278 20.2812 28.5292 21.2344 28.4307C22.187 28.3317 21.5201 28.2496 19.7516 28.2473C17.9832 28.2455 17.2032 28.3262 18.019 28.427ZM23.5412 28.3996C23.8572 28.5264 24.374 28.5264 24.6895 28.3996C25.0056 28.2733 24.747 28.1698 24.1154 28.1698C23.4838 28.1698 23.2256 28.2733 23.5412 28.3996ZM26.8714 28.5538C27.7556 28.7385 28.2209 28.9168 27.9049 28.9496C26.9518 29.0495 27.2609 29.9218 28.2494 29.9218C28.8617 29.9218 29.1681 29.6177 29.1681 29.0098C29.1681 28.2314 28.8819 28.1064 27.2159 28.158L25.2637 28.2177L26.8714 28.5538ZM29.6274 29.0098C29.6274 29.77 29.9338 29.9218 31.4648 29.9218C32.9958 29.9218 33.3022 29.77 33.3022 29.0098C33.3022 28.2496 32.9958 28.0978 31.4648 28.0978C29.9338 28.0978 29.6274 28.2496 29.6274 29.0098ZM33.7615 28.5538C33.7615 28.8046 34.1749 29.0098 34.6802 29.0098C35.1855 29.0098 35.5989 28.8046 35.5989 28.5538C35.5989 28.303 35.1855 28.0978 34.6802 28.0978C34.1749 28.0978 33.7615 28.303 33.7615 28.5538ZM32.8428 29.2912C32.8428 29.3869 32.4294 29.4658 31.9241 29.4658C31.4189 29.4658 31.0055 29.2798 31.0055 29.0527C31.0055 28.8251 31.4189 28.7467 31.9241 28.8775C32.4294 29.0089 32.8428 29.1949 32.8428 29.2912ZM16.7659 30.8339C16.7659 32.3852 16.9106 32.6579 17.7347 32.6579C18.5716 32.6579 18.6781 32.4404 18.516 31.0619C18.4126 30.184 18.4935 29.4658 18.6956 29.4658C18.8973 29.4658 19.0626 30.184 19.0626 31.0619C19.0626 32.6201 19.1063 32.6579 20.9 32.6579C22.5536 32.6579 22.7373 32.5439 22.7373 31.5179C22.7373 30.6059 22.5077 30.3778 21.589 30.3778C20.9574 30.3778 20.4406 30.2009 20.4406 29.9852C20.4406 29.7691 20.9574 29.6902 21.589 29.8101C22.2592 29.9373 22.7373 29.816 22.7373 29.5192C22.7373 29.1963 21.6436 29.0098 19.7516 29.0098H16.7659V30.8339ZM23.1967 29.4658C23.1967 29.7166 23.6101 29.9218 24.1154 29.9218C24.6206 29.9218 25.034 29.7166 25.034 29.4658C25.034 29.215 24.6206 29.0098 24.1154 29.0098C23.6101 29.0098 23.1967 29.215 23.1967 29.4658ZM25.4934 29.4658C25.4934 29.7166 25.8034 29.9218 26.1824 29.9218C26.5613 29.9218 26.8714 29.7166 26.8714 29.4658C26.8714 29.215 26.5613 29.0098 26.1824 29.0098C25.8034 29.0098 25.4934 29.215 25.4934 29.4658ZM36.2787 29.4809C36.1184 29.7381 36.812 29.9218 37.9452 29.9218C40.1491 29.9218 40.1766 29.7239 38.0283 29.3181C37.2171 29.1648 36.4298 29.2383 36.2787 29.4809ZM34.106 29.7677C34.422 29.8945 34.9388 29.8945 35.2544 29.7677C35.5704 29.6414 35.3118 29.5379 34.6802 29.5379C34.0486 29.5379 33.7904 29.6414 34.106 29.7677ZM40.5368 29.7677C40.8528 29.8945 41.3695 29.8945 41.6851 29.7677C42.0011 29.6414 41.7425 29.5379 41.1109 29.5379C40.4793 29.5379 40.2212 29.6414 40.5368 29.7677ZM42.5602 31.2899L42.4518 33.1139H44.3075H46.1637V31.2899C46.1637 29.4813 46.1485 29.4658 44.4164 29.4658C42.7016 29.4658 42.6667 29.5005 42.5602 31.2899ZM46.623 31.2899C46.623 32.8098 46.776 33.1139 47.5417 33.1139C48.3074 33.1139 48.4604 32.8098 48.4604 31.2899C48.4604 29.77 48.3074 29.4658 47.5417 29.4658C46.776 29.4658 46.623 29.77 46.623 31.2899ZM48.9197 31.2899V33.1139H50.7571H52.5944V31.2899V29.4658H50.7571H48.9197V31.2899ZM53.0538 31.2899C53.0538 32.8098 53.2067 33.1139 53.9725 33.1139C55.1704 33.1139 55.2706 30.9994 54.0873 30.692C53.3216 30.4937 53.3216 30.4809 54.0873 30.4307C55.2067 30.3569 55.1006 29.4658 53.9725 29.4658C53.2067 29.4658 53.0538 29.77 53.0538 31.2899ZM55.3505 29.9218C55.3505 30.1726 55.6605 30.3778 56.0395 30.3778C56.4184 30.3778 56.7285 30.1726 56.7285 29.9218C56.7285 29.671 56.4184 29.4658 56.0395 29.4658C55.6605 29.4658 55.3505 29.671 55.3505 29.9218ZM57.1878 29.9218C57.1878 30.1726 57.6013 30.3778 58.1065 30.3778C58.6118 30.3778 59.0252 30.1726 59.0252 29.9218C59.0252 29.671 58.6118 29.4658 58.1065 29.4658C57.6013 29.4658 57.1878 29.671 57.1878 29.9218ZM59.4845 29.9218C59.4845 30.1726 60.3114 30.3778 61.3219 30.3778C62.3325 30.3778 63.1593 30.1726 63.1593 29.9218C63.1593 29.671 62.3325 29.4658 61.3219 29.4658C60.3114 29.4658 59.4845 29.671 59.4845 29.9218ZM63.6186 29.9218C63.6186 30.1726 64.032 30.3778 64.5373 30.3778C65.0426 30.3778 65.456 30.1726 65.456 29.9218C65.456 29.671 65.0426 29.4658 64.5373 29.4658C64.032 29.4658 63.6186 29.671 63.6186 29.9218ZM65.9153 30.0358C65.9153 30.2237 66.7421 30.3778 67.7527 30.3778C68.7632 30.3778 69.59 30.2237 69.59 30.0358C69.59 29.848 68.7632 29.6938 67.7527 29.6938C66.7421 29.6938 65.9153 29.848 65.9153 30.0358ZM44.7857 30.1229C44.7857 30.604 43.9042 30.8065 43.6419 30.3851C43.4834 30.1302 43.6759 29.9218 44.0696 29.9218C44.4632 29.9218 44.7857 30.0121 44.7857 30.1229ZM50.9868 30.3778C51.1429 30.6287 51.0515 30.8339 50.7842 30.8339C50.5168 30.8339 50.2977 30.6287 50.2977 30.3778C50.2977 30.127 50.3887 29.9218 50.5003 29.9218C50.6119 29.9218 50.8306 30.127 50.9868 30.3778ZM70.3939 30.2237C70.7099 30.3505 71.2267 30.3505 71.5422 30.2237C71.8583 30.0974 71.5996 29.9939 70.968 29.9939C70.3365 29.9939 70.0783 30.0974 70.3939 30.2237ZM72.7195 30.2333C73.0507 30.3651 73.4471 30.3487 73.5996 30.1973C73.7521 30.0459 73.4811 29.9382 72.997 29.9579C72.4618 29.9797 72.353 30.0878 72.7195 30.2333ZM74.5279 30.2237C74.844 30.3505 75.3607 30.3505 75.6763 30.2237C75.9923 30.0974 75.7337 29.9939 75.1021 29.9939C74.4705 29.9939 74.2124 30.0974 74.5279 30.2237ZM86.0018 30.1973C85.8493 30.3487 85.4529 30.3651 85.1217 30.2333C84.7551 30.0878 84.864 29.9797 85.3991 29.9579C85.8833 29.9382 86.1543 30.0459 86.0018 30.1973ZM23.1967 31.5179C23.1967 32.3538 23.4415 32.6579 24.1154 32.6579C24.7892 32.6579 25.034 32.3538 25.034 31.5179C25.034 30.682 24.7892 30.3778 24.1154 30.3778C23.4415 30.3778 23.1967 30.682 23.1967 31.5179ZM25.4934 31.5179C25.4934 32.2275 25.7538 32.6579 26.1824 32.6579C26.611 32.6579 26.8714 32.2275 26.8714 31.5179C26.8714 30.8083 26.611 30.3778 26.1824 30.3778C25.7538 30.3778 25.4934 30.8083 25.4934 31.5179ZM27.3307 31.5179C27.3307 32.3538 27.5756 32.6579 28.2494 32.6579C28.9233 32.6579 29.1681 32.3538 29.1681 31.5179C29.1681 30.682 28.9233 30.3778 28.2494 30.3778C27.5756 30.3778 27.3307 30.682 27.3307 31.5179ZM29.6274 31.5179C29.6274 33.0269 31.3105 33.124 31.5998 31.6319L31.7992 30.6059L31.8617 31.6606C31.9076 32.4363 32.1616 32.6775 32.8222 32.5727C33.3159 32.4942 33.7197 32.6351 33.7197 32.8859C33.7197 33.1367 33.3159 33.2777 32.8222 33.1992C32.3284 33.1208 31.9241 33.2749 31.9241 33.5412C31.9241 33.808 32.7509 34.026 33.7615 34.026H35.5989V32.2019C35.5989 30.7048 35.4399 30.3778 34.7137 30.3778C34.2273 30.3778 33.7344 30.7367 33.6186 31.1759C33.4188 31.9361 33.406 31.9361 33.3554 31.1759C33.3141 30.5575 32.8883 30.3778 31.4648 30.3778C29.8112 30.3778 29.6274 30.4918 29.6274 31.5179ZM36.0582 32.2019C36.0582 33.7989 36.1868 34.0219 37.0917 33.9941C38.0471 33.9644 38.0577 33.9357 37.2314 33.6147C36.3641 33.2777 36.3664 33.2594 37.2952 33.0186C38.455 32.7172 39.7306 33.3201 38.7513 33.7068C38.3149 33.8792 38.3687 33.9649 38.9291 33.99C39.5666 34.0187 39.7329 33.6489 39.7329 32.2019V30.3778H37.8956H36.0582V32.2019ZM40.1923 31.7459C40.1923 32.8098 40.3962 33.1139 41.1109 33.1139C41.8257 33.1139 42.0296 32.8098 42.0296 31.7459C42.0296 30.682 41.8257 30.3778 41.1109 30.3778C40.3962 30.3778 40.1923 30.682 40.1923 31.7459ZM83.9444 30.6797C83.6288 30.8065 83.1121 30.8065 82.7961 30.6797C82.4805 30.5534 82.7386 30.4499 83.3702 30.4499C84.0018 30.4499 84.2604 30.5534 83.9444 30.6797ZM38.2093 31.8316C38.0628 32.1951 37.9539 32.087 37.9319 31.5557C37.9121 31.0751 38.0205 30.806 38.173 30.9574C38.3255 31.1088 38.342 31.5024 38.2093 31.8316ZM55.3505 31.9739C55.3505 32.6835 55.6109 33.1139 56.0395 33.1139C56.4681 33.1139 56.7285 32.6835 56.7285 31.9739C56.7285 31.2643 56.4681 30.8339 56.0395 30.8339C55.6109 30.8339 55.3505 31.2643 55.3505 31.9739ZM57.1878 31.9739C57.1878 32.8098 57.4327 33.1139 58.1065 33.1139C58.7804 33.1139 59.0252 32.8098 59.0252 31.9739C59.0252 31.138 58.7804 30.8339 58.1065 30.8339C57.4327 30.8339 57.1878 31.138 57.1878 31.9739ZM59.4845 31.9739C59.4845 33.4829 61.1676 33.58 61.457 32.0879L61.6563 31.0619L61.7188 32.0879C61.807 33.5326 63.1593 33.4254 63.1593 31.9739C63.1593 30.9479 62.9755 30.8339 61.3219 30.8339C59.6683 30.8339 59.4845 30.9479 59.4845 31.9739ZM63.6186 31.9739C63.6186 32.6009 63.8772 33.1171 64.1928 33.1208C64.614 33.1263 64.6007 33.2325 64.1418 33.5212C63.7982 33.7373 63.1262 33.813 62.6489 33.689C62.1717 33.565 61.7812 33.6926 61.7812 33.9726C61.7812 34.2627 62.5718 34.482 63.6186 34.482H65.456V32.6579C65.456 31.138 65.303 30.8339 64.5373 30.8339C63.8634 30.8339 63.6186 31.138 63.6186 31.9739ZM65.9153 31.9739C65.9153 32.8859 66.145 33.1139 67.0637 33.1139C67.7784 33.1139 68.212 33.3725 68.212 33.798C68.212 34.1742 68.5221 34.482 68.901 34.482C69.3985 34.482 69.59 33.9754 69.59 32.6579V30.8339H67.7527C66.099 30.8339 65.9153 30.9479 65.9153 31.9739ZM70.0494 32.2019C70.0494 33.2658 70.2533 33.57 70.968 33.57C71.6828 33.57 71.8867 33.2658 71.8867 32.2019C71.8867 31.138 71.6828 30.8339 70.968 30.8339C70.2533 30.8339 70.0494 31.138 70.0494 32.2019ZM72.4173 32.6579C72.5068 34.1619 72.6915 34.4806 73.4696 34.4752C74.2468 34.4692 74.2918 34.3903 73.7241 34.026C73.2014 33.6904 73.3952 33.5823 74.5279 33.5768C75.8789 33.5704 76.0208 33.44 76.0208 32.2019C76.0208 31.1576 75.8122 30.8339 75.1402 30.8339C74.6561 30.8339 74.1559 31.0906 74.0282 31.4039C73.8431 31.8599 73.7893 31.8599 73.7604 31.4039C73.7406 31.0906 73.4058 30.8339 73.0163 30.8339C72.4793 30.8339 72.335 31.2726 72.4173 32.6579ZM89.5713 31.5498C88.3081 31.8987 87.0679 32.1668 86.8153 32.1454C86.0381 32.0792 89.9714 30.9036 90.9493 30.9096C91.4546 30.9128 90.8345 31.201 89.5713 31.5498ZM85.2076 32.6579C84.576 32.8586 83.6458 33.0232 83.1406 33.0232C82.413 33.0232 82.4607 32.947 83.3702 32.6579C84.0018 32.4573 84.932 32.2927 85.4373 32.2927C86.1649 32.2927 86.1171 32.3688 85.2076 32.6579ZM89.3417 33.1139C88.7101 33.3146 87.7799 33.4792 87.2746 33.4792C86.547 33.4792 86.5948 33.4031 87.5043 33.1139C88.1359 32.9133 89.066 32.7487 89.5713 32.7487C90.2989 32.7487 90.2511 32.8248 89.3417 33.1139ZM16.7659 34.026C16.7659 34.6339 17.0723 34.938 17.6846 34.938C18.2969 34.938 18.6033 34.6339 18.6033 34.026C18.6033 33.4181 18.2969 33.1139 17.6846 33.1139C17.0723 33.1139 16.7659 33.4181 16.7659 34.026ZM19.0626 34.026C19.0626 34.7862 19.369 34.938 20.9 34.938C22.431 34.938 22.7373 34.7862 22.7373 34.026C22.7373 33.2658 22.431 33.1139 20.9 33.1139C19.369 33.1139 19.0626 33.2658 19.0626 34.026ZM23.1967 34.026C23.1967 34.6339 23.5031 34.938 24.1154 34.938C24.7277 34.938 25.034 34.6339 25.034 34.026C25.034 33.4181 24.7277 33.1139 24.1154 33.1139C23.5031 33.1139 23.1967 33.4181 23.1967 34.026ZM25.4934 33.5162C25.4934 33.7373 26.3202 33.9298 27.3307 33.9434C28.3413 33.9576 29.1681 33.7765 29.1681 33.5412C29.1681 33.3064 28.3413 33.1139 27.3307 33.1139C26.3202 33.1139 25.4934 33.295 25.4934 33.5162ZM29.6274 33.57C29.6274 33.8208 30.0408 34.026 30.5461 34.026C31.0514 34.026 31.4648 33.8208 31.4648 33.57C31.4648 33.3192 31.0514 33.1139 30.5461 33.1139C30.0408 33.1139 29.6274 33.3192 29.6274 33.57ZM21.3593 34.026C21.3593 34.2768 21.2684 34.482 21.1567 34.482C21.0451 34.482 20.8265 34.2768 20.6703 34.026C20.5141 33.7752 20.6055 33.57 20.8729 33.57C21.1402 33.57 21.3593 33.7752 21.3593 34.026ZM40.5368 33.8719C40.8528 33.9986 41.3695 33.9986 41.6851 33.8719C42.0011 33.7455 41.7425 33.642 41.1109 33.642C40.4793 33.642 40.2212 33.7455 40.5368 33.8719ZM42.8335 33.8719C43.1495 33.9986 43.6663 33.9986 43.9818 33.8719C44.2978 33.7455 44.0392 33.642 43.4076 33.642C42.7761 33.642 42.5179 33.7455 42.8335 33.8719ZM45.827 33.8974C46.5261 34.0023 46.991 34.2599 46.86 34.4701C46.7291 34.6804 46.2087 34.7451 45.7039 34.6138C45.1908 34.4806 44.7857 34.6001 44.7857 34.8847C44.7857 35.1747 45.5762 35.394 46.623 35.394C48.154 35.394 48.4604 35.2422 48.4604 34.482C48.4604 33.7022 48.177 33.58 46.5082 33.6384C45.1228 33.6867 44.9253 33.762 45.827 33.8974ZM48.9197 34.482C48.9197 35.2422 49.2261 35.394 50.7571 35.394C52.2881 35.394 52.5944 35.2422 52.5944 34.482C52.5944 33.7218 52.2881 33.57 50.7571 33.57C49.2261 33.57 48.9197 33.7218 48.9197 34.482ZM53.0538 34.482C53.0538 35.0899 53.3602 35.394 53.9725 35.394C54.5848 35.394 54.8911 35.0899 54.8911 34.482C54.8911 33.8741 54.5848 33.57 53.9725 33.57C53.3602 33.57 53.0538 33.8741 53.0538 34.482ZM55.3505 34.482C55.3505 35.2422 55.6569 35.394 57.1878 35.394C58.7188 35.394 59.0252 35.2422 59.0252 34.482C59.0252 33.7218 58.7188 33.57 57.1878 33.57C55.6569 33.57 55.3505 33.7218 55.3505 34.482ZM59.4845 34.026C59.4845 34.2768 59.7432 34.4852 60.0587 34.4888C60.4414 34.4939 60.4032 34.6434 59.9439 34.938C59.3752 35.3028 59.4184 35.3813 60.1906 35.3872C60.7996 35.3918 61.1506 35.0757 61.1956 34.482C61.2429 33.86 60.9815 33.57 60.3747 33.57C59.8851 33.57 59.4845 33.7752 59.4845 34.026ZM65.9153 34.026C65.9153 34.2768 66.3287 34.482 66.834 34.482C67.3393 34.482 67.7527 34.2768 67.7527 34.026C67.7527 33.7752 67.3393 33.57 66.834 33.57C66.3287 33.57 65.9153 33.7752 65.9153 34.026ZM89.5713 34.5126C87.8029 34.9859 86.0459 35.358 85.6669 35.3393C84.7143 35.2928 90.7302 33.6589 91.868 33.6552C92.3733 33.6534 91.3398 34.0397 89.5713 34.5126ZM51.2164 34.482C51.2164 34.7328 51.0097 34.938 50.7571 34.938C50.5044 34.938 50.2977 34.7328 50.2977 34.482C50.2977 34.2312 50.5044 34.026 50.7571 34.026C51.0097 34.026 51.2164 34.2312 51.2164 34.482ZM58.5659 34.7634C58.5659 34.8591 58.1525 34.938 57.6472 34.938C57.1419 34.938 56.7285 34.752 56.7285 34.5249C56.7285 34.2973 57.1419 34.2189 57.6472 34.3498C58.1525 34.4811 58.5659 34.6671 58.5659 34.7634ZM70.3939 34.3279C70.7099 34.4546 71.2267 34.4546 71.5422 34.3279C71.8583 34.2016 71.5996 34.098 70.968 34.098C70.3365 34.098 70.0783 34.2016 70.3939 34.3279ZM75.0162 34.3374C75.3474 34.4692 75.7438 34.4528 75.8963 34.3014C76.0488 34.15 75.7778 34.0424 75.2937 34.062C74.7585 34.0839 74.6497 34.192 75.0162 34.3374ZM76.8246 34.3279C77.1407 34.4546 77.6574 34.4546 77.973 34.3279C78.289 34.2016 78.0304 34.098 77.3988 34.098C76.7672 34.098 76.5091 34.2016 76.8246 34.3279ZM26.2972 34.804C26.8654 34.9125 27.796 34.9125 28.3643 34.804C28.9325 34.695 28.4676 34.606 27.3307 34.606C26.1939 34.606 25.729 34.695 26.2972 34.804ZM29.9719 34.7839C30.288 34.9107 30.8047 34.9107 31.1203 34.7839C31.4363 34.6576 31.1777 34.5541 30.5461 34.5541C29.9145 34.5541 29.6564 34.6576 29.9719 34.7839ZM32.728 34.804C33.2962 34.9125 34.2268 34.9125 34.795 34.804C35.3632 34.695 34.8984 34.606 33.7615 34.606C32.6246 34.606 32.1598 34.695 32.728 34.804ZM37.2268 34.8049C38.5244 34.969 38.6112 35.0949 38.4394 36.556C38.2548 38.1251 38.2603 38.1301 40.1422 38.1301C41.8339 38.1301 42.0296 38.0157 42.0296 37.0234C42.0296 36.353 41.7127 35.8346 41.2258 35.7082C40.4601 35.5099 40.4601 35.4971 41.2258 35.4469C42.3245 35.3744 42.2496 34.482 41.1445 34.482C40.658 34.482 40.1652 34.8409 40.0494 35.28C39.8496 36.0402 39.8367 36.0402 39.7862 35.28C39.7435 34.6412 39.3439 34.4966 37.7807 34.555C36.247 34.6124 36.128 34.6658 37.2268 34.8049ZM42.489 34.938C42.489 35.1888 42.9024 35.394 43.4076 35.394C43.9129 35.394 44.3263 35.1888 44.3263 34.938C44.3263 34.6872 43.9129 34.482 43.4076 34.482C42.9024 34.482 42.489 34.6872 42.489 34.938ZM79.8103 34.804C79.2417 34.9125 78.7768 35.1783 78.7768 35.394C78.7768 35.6097 79.2417 35.8756 79.8103 35.9841C80.379 36.0931 79.4488 36.2099 77.7433 36.2441C74.759 36.3038 74.6428 36.3489 74.6428 37.4461C74.6428 38.8844 75.8812 38.9774 76.1558 37.5601L76.3552 36.5341L76.4177 37.5601C76.4595 38.2482 76.7723 38.5862 77.3667 38.5862C77.9211 38.5862 78.3281 38.2017 78.4525 37.5601L78.6519 36.5341L78.7144 37.5601C78.7571 38.2615 79.0676 38.5862 79.6955 38.5862C80.2008 38.5862 80.6248 38.5351 80.6376 38.4722C80.8429 37.468 81.1185 34.498 81.0014 34.544C80.9146 34.5782 80.379 34.695 79.8103 34.804ZM62.5851 35.26C63.1538 35.3685 64.0835 35.3685 64.6521 35.26C65.2208 35.151 64.7555 35.0621 63.6186 35.0621C62.4817 35.0621 62.0164 35.151 62.5851 35.26ZM65.9153 36.7621C65.9153 38.2943 66.0655 38.5862 66.8528 38.5862C67.658 38.5862 67.7747 38.3294 67.6815 36.7621C67.5974 35.3475 67.387 34.938 66.744 34.938C66.0834 34.938 65.9153 35.3078 65.9153 36.7621ZM68.212 36.7621V38.5862H70.0494H71.8867V36.7621C71.8867 35.265 71.7278 34.938 71.0016 34.938C70.5151 34.938 70.0223 35.2969 69.9065 35.736C69.7067 36.4962 69.6938 36.4962 69.6433 35.736C69.6139 35.2969 69.28 34.938 68.901 34.938C68.4036 34.938 68.212 35.4447 68.212 36.7621ZM72.3461 36.7621C72.3461 38.282 72.499 38.5862 73.2647 38.5862C74.0305 38.5862 74.1834 38.282 74.1834 36.7621C74.1834 35.2422 74.0305 34.938 73.2647 34.938C72.499 34.938 72.3461 35.2422 72.3461 36.7621ZM74.6428 35.394C74.6428 35.6448 74.9528 35.8501 75.3318 35.8501C75.7107 35.8501 76.0208 35.6448 76.0208 35.394C76.0208 35.1432 75.7107 34.938 75.3318 34.938C74.9528 34.938 74.6428 35.1432 74.6428 35.394ZM76.4801 35.394C76.4801 35.6448 76.8935 35.8501 77.3988 35.8501C77.9041 35.8501 78.3175 35.6448 78.3175 35.394C78.3175 35.1432 77.9041 34.938 77.3988 34.938C76.8935 34.938 76.4801 35.1432 76.4801 35.394ZM16.7659 36.5008C16.7659 37.1711 17.0829 37.6896 17.5698 37.8159C18.3355 38.0143 18.3355 38.0271 17.5698 38.0772C16.4503 38.1511 16.5565 39.0422 17.6846 39.0422C18.4503 39.0422 18.6033 38.738 18.6033 37.2181C18.6033 35.6982 18.4503 35.394 17.6846 35.394C17.0181 35.394 16.7659 35.6982 16.7659 36.5008ZM19.0626 36.4962C19.0626 37.1023 19.3212 37.7015 19.6368 37.8283C20.0961 38.012 20.0961 38.0654 19.6368 38.0941C19.3212 38.1137 19.0626 38.3354 19.0626 38.5862C19.0626 38.8434 20.3639 39.0422 22.0483 39.0422H25.034V37.2181C25.034 35.6982 24.8811 35.394 24.1154 35.394C23.4066 35.394 23.1967 35.6982 23.1967 36.7242C23.1967 37.4557 23.4553 38.1575 23.7709 38.2843C24.114 38.4215 24.0212 38.5287 23.5412 38.5501C22.922 38.5779 22.7373 38.22 22.7373 36.9901C22.7373 35.4319 22.6937 35.394 20.9 35.394C19.2633 35.394 19.0626 35.5144 19.0626 36.4962ZM25.4934 37.2181C25.4934 38.738 25.6463 39.0422 26.4121 39.0422C27.1778 39.0422 27.3307 38.738 27.3307 37.2181C27.3307 35.6982 27.1778 35.394 26.4121 35.394C25.6463 35.394 25.4934 35.6982 25.4934 37.2181ZM27.7901 37.2181V39.0422L29.7423 38.9692C31.276 38.9118 31.395 38.8584 30.2962 38.7193C28.9986 38.5551 28.9118 38.4293 29.0836 36.9682C29.2269 35.7493 29.102 35.394 28.5292 35.394C27.9729 35.394 27.7901 35.8455 27.7901 37.2181ZM29.6274 36.7621C29.6274 37.826 29.8314 38.1301 30.5461 38.1301C31.2609 38.1301 31.4648 37.826 31.4648 36.7621C31.4648 35.6982 31.2609 35.394 30.5461 35.394C29.8314 35.394 29.6274 35.6982 29.6274 36.7621ZM31.9241 36.7621C31.9241 38.054 32.0261 38.1301 33.7615 38.1301C35.4969 38.1301 35.5989 38.054 35.5989 36.7621C35.5989 35.4702 35.4969 35.394 33.7615 35.394C32.0261 35.394 31.9241 35.4702 31.9241 36.7621ZM36.0582 36.7621C36.0582 37.826 36.2621 38.1301 36.9769 38.1301C37.6916 38.1301 37.8956 37.826 37.8956 36.7621C37.8956 35.6982 37.6916 35.394 36.9769 35.394C36.2621 35.394 36.0582 35.6982 36.0582 36.7621ZM84.6238 35.6695C84.4713 35.8209 84.0749 35.8373 83.7437 35.7055C83.3771 35.56 83.486 35.452 84.0211 35.4301C84.5053 35.4105 84.7763 35.5181 84.6238 35.6695ZM92.557 35.7666C92.557 36.1811 85.7294 37.888 85.3955 37.5569C85.2797 37.4416 86.7919 36.9381 88.756 36.4374C90.7201 35.9367 92.3793 35.4971 92.4422 35.4606C92.5051 35.4241 92.557 35.5619 92.557 35.7666ZM42.489 36.9901C42.489 37.826 42.7338 38.1301 43.4076 38.1301C44.0815 38.1301 44.3263 37.826 44.3263 36.9901C44.3263 36.1542 44.0815 35.8501 43.4076 35.8501C42.7338 35.8501 42.489 36.1542 42.489 36.9901ZM44.7857 36.9901C44.7857 38.0161 44.9694 38.1301 46.623 38.1301C48.2766 38.1301 48.4604 38.0161 48.4604 36.9901C48.4604 35.9641 48.2766 35.8501 46.623 35.8501C44.9694 35.8501 44.7857 35.9641 44.7857 36.9901ZM48.9197 37.0188C48.9197 37.81 49.1733 38.1301 49.8003 38.1301C50.2844 38.1301 50.7846 37.8739 50.9123 37.5601C51.0975 37.1041 51.1512 37.1041 51.1801 37.5601C51.2495 38.6491 52.5944 38.158 52.5944 37.0439C52.5944 36.0849 52.3795 35.9545 50.7571 35.9326C49.109 35.9098 48.9197 36.022 48.9197 37.0188ZM53.0538 36.9522C53.0538 37.5583 53.3124 38.1575 53.628 38.2843C53.944 38.4106 53.5301 38.5305 52.7093 38.5501C50.5453 38.6021 50.871 39.4982 53.0538 39.4982H54.8911V37.6741C54.8911 36.1542 54.7382 35.8501 53.9725 35.8501C53.3073 35.8501 53.0538 36.1542 53.0538 36.9522ZM55.3505 37.6741C55.3505 39.194 55.5034 39.4982 56.2692 39.4982C57.0124 39.4982 57.2012 39.1712 57.2567 37.7881C57.3119 36.4128 57.3629 36.3234 57.5167 37.3321C57.7827 39.0736 59.0252 38.9797 59.0252 37.2181C59.0252 35.9262 58.9232 35.8501 57.1878 35.8501H55.3505V37.6741ZM59.4845 37.2181C59.4845 38.282 59.6885 38.5862 60.4032 38.5862C61.118 38.5862 61.3219 38.282 61.3219 37.2181C61.3219 36.1542 61.118 35.8501 60.4032 35.8501C59.6885 35.8501 59.4845 36.1542 59.4845 37.2181ZM61.7812 37.2181C61.7812 38.51 61.8832 38.5862 63.6186 38.5862C65.354 38.5862 65.456 38.51 65.456 37.2181C65.456 35.9262 65.354 35.8501 63.6186 35.8501C61.8832 35.8501 61.7812 35.9262 61.7812 37.2181ZM90.9493 37.9149C89.9388 38.2455 88.6986 38.5159 88.1933 38.5159C87.688 38.5159 88.1014 38.2455 89.112 37.9149C90.1225 37.5843 91.3627 37.3139 91.868 37.3139C92.3733 37.3139 91.9599 37.5843 90.9493 37.9149ZM21.3593 38.1301C21.3593 38.381 21.2684 38.5862 21.1567 38.5862C21.0451 38.5862 20.8265 38.381 20.6703 38.1301C20.5141 37.8793 20.6055 37.6741 20.8729 37.6741C21.1402 37.6741 21.3593 37.8793 21.3593 38.1301ZM33.5318 39.0422C34.5424 39.2218 35.111 39.3979 34.795 39.4334C33.9769 39.5256 34.0812 40.4102 34.9099 40.4102C35.2925 40.4102 35.5989 40.0048 35.5989 39.4982C35.5989 38.7189 35.3145 38.5957 33.6467 38.6509L31.6945 38.7157L33.5318 39.0422ZM36.4027 38.888C36.7187 39.0148 37.2355 39.0148 37.5511 38.888C37.8671 38.7617 37.6085 38.6582 36.9769 38.6582C36.3453 38.6582 36.0871 38.7617 36.4027 38.888ZM38.8142 39.0422C39.2736 39.3368 39.3117 39.4863 38.9291 39.4914C38.6135 39.495 38.3549 39.7034 38.3549 39.9542C38.3549 40.205 38.7904 40.4102 39.3227 40.4102C39.9943 40.4102 40.2097 40.2009 40.026 39.7262C39.8381 39.2396 40.0563 39.0527 40.7807 39.0782C41.3415 39.0978 41.5418 39.2177 41.2258 39.3441C40.4261 39.6646 40.5065 40.4102 41.3406 40.4102C41.7232 40.4102 42.0296 40.0048 42.0296 39.4982C42.0296 38.728 41.7255 38.5871 40.0774 38.593C38.648 38.5985 38.3094 38.7184 38.8142 39.0422ZM42.489 39.4982C42.489 40.1061 42.7953 40.4102 43.4076 40.4102C44.0199 40.4102 44.3263 40.1061 44.3263 39.4982C44.3263 38.8903 44.0199 38.5862 43.4076 38.5862C42.7953 38.5862 42.489 38.8903 42.489 39.4982ZM44.7857 39.4982C44.7857 40.2684 45.0897 40.4093 46.7379 40.4034C48.1673 40.3979 48.5059 40.278 48.001 39.9542C47.5417 39.6596 47.5036 39.51 47.8862 39.505C48.2022 39.5014 48.4604 39.293 48.4604 39.0422C48.4604 38.7914 47.6336 38.5862 46.623 38.5862C45.092 38.5862 44.7857 38.738 44.7857 39.4982ZM48.9197 39.0422C48.9197 39.293 49.3331 39.4982 49.8384 39.4982C50.3437 39.4982 50.7571 39.293 50.7571 39.0422C50.7571 38.7914 50.3437 38.5862 49.8384 38.5862C49.3331 38.5862 48.9197 38.7914 48.9197 39.0422ZM84.9779 39.3021C83.7147 39.651 82.4745 39.9191 82.2219 39.8977C81.4447 39.8315 85.378 38.6559 86.3559 38.6619C86.8612 38.6651 86.2411 38.9533 84.9779 39.3021ZM46.8527 39.4982C47.0089 39.749 46.9175 39.9542 46.6501 39.9542C46.3828 39.9542 46.1637 39.749 46.1637 39.4982C46.1637 39.2474 46.2546 39.0422 46.3663 39.0422C46.4779 39.0422 46.6965 39.2474 46.8527 39.4982ZM58.0206 39.3536C58.3518 39.4854 58.7482 39.469 58.9007 39.3176C59.0532 39.1662 58.7822 39.0586 58.2981 39.0782C57.7629 39.1001 57.6541 39.2082 58.0206 39.3536ZM59.8291 39.3441C60.1451 39.4708 60.6618 39.4708 60.9774 39.3441C61.2934 39.2177 61.0348 39.1142 60.4032 39.1142C59.7716 39.1142 59.5135 39.2177 59.8291 39.3441ZM62.5851 39.3641C63.1538 39.4727 64.0835 39.4727 64.6521 39.3641C65.2208 39.2551 64.7555 39.1662 63.6186 39.1662C62.4817 39.1662 62.0164 39.2551 62.5851 39.3641ZM66.2598 39.3441C66.5758 39.4708 67.0926 39.4708 67.4082 39.3441C67.7242 39.2177 67.4656 39.1142 66.834 39.1142C66.2024 39.1142 65.9442 39.2177 66.2598 39.3441ZM68.6713 39.4982C69.1307 39.7928 69.1688 39.9424 68.7862 39.9474C68.4706 39.951 68.212 40.1594 68.212 40.4102C68.212 40.661 68.6126 40.8662 69.1022 40.8662C69.709 40.8662 69.9704 40.5762 69.923 39.9542C69.878 39.3605 69.5271 39.0445 68.918 39.049C68.1459 39.0549 68.1027 39.1334 68.6713 39.4982ZM70.5087 39.9542C70.5087 40.4608 70.8151 40.8662 71.1977 40.8662C71.5804 40.8662 71.8867 40.4608 71.8867 39.9542C71.8867 39.4476 71.5804 39.0422 71.1977 39.0422C70.8151 39.0422 70.5087 39.4476 70.5087 39.9542ZM72.3461 39.9542C72.3461 40.5621 72.6525 40.8662 73.2647 40.8662C73.8771 40.8662 74.1834 40.5621 74.1834 39.9542C74.1834 39.3463 73.8771 39.0422 73.2647 39.0422C72.6525 39.0422 72.3461 39.3463 72.3461 39.9542ZM74.6428 39.9542C74.6428 40.7144 74.9492 40.8662 76.4801 40.8662C78.0111 40.8662 78.3175 40.7144 78.3175 39.9542C78.3175 39.3308 78.0111 39.0422 77.3497 39.0422C76.6781 39.0422 76.4627 39.2515 76.6464 39.7262C76.7916 40.1024 76.7103 40.4102 76.4659 40.4102C76.2211 40.4102 76.0208 40.1024 76.0208 39.7262C76.0208 39.35 75.7107 39.0422 75.3318 39.0422C74.9492 39.0422 74.6428 39.4476 74.6428 39.9542ZM78.7768 39.9542C78.7768 40.6054 79.0722 40.8571 79.8103 40.8343C80.7965 40.8038 80.8016 40.7842 79.9252 40.4102C79.1397 40.0751 79.1232 40.0135 79.8103 39.9861C80.9325 39.9414 80.8227 39.0422 79.6955 39.0422C79.0832 39.0422 78.7768 39.3463 78.7768 39.9542ZM91.0545 39.3176C90.902 39.469 90.5056 39.4854 90.1744 39.3536C89.8079 39.2082 89.9167 39.1001 90.4519 39.0782C90.936 39.0586 91.207 39.1662 91.0545 39.3176ZM17.1104 39.8001C17.4264 39.9268 17.9432 39.9268 18.2588 39.8001C18.5748 39.6738 18.3162 39.5702 17.6846 39.5702C17.053 39.5702 16.7949 39.6738 17.1104 39.8001ZM19.4071 39.8001C19.7231 39.9268 20.2399 39.9268 20.5555 39.8001C20.8715 39.6738 20.6129 39.5702 19.9813 39.5702C19.3497 39.5702 19.0916 39.6738 19.4071 39.8001ZM22.5279 39.8211C23.8255 39.9852 23.9123 40.1111 23.7405 41.5722C23.5931 42.8276 23.7153 43.1463 24.345 43.1463C24.9771 43.1463 25.097 42.8276 24.9468 41.5503C24.8328 40.5817 24.9578 39.9542 25.2637 39.9542C25.5696 39.9542 25.6946 40.5817 25.5807 41.5503C25.4185 42.9288 25.5251 43.1463 26.362 43.1463C27.186 43.1463 27.3307 42.8736 27.3307 41.3223V39.4982L24.2302 39.5712C22.5251 39.6113 21.7589 39.7239 22.5279 39.8211ZM27.7901 41.3223V43.1463H29.6274C31.2811 43.1463 31.4648 43.0323 31.4648 42.0063C31.4648 41.0386 31.2521 40.8662 30.0597 40.8662C29.2871 40.8662 28.7653 40.6884 28.9003 40.4713C29.0353 40.2543 29.6679 40.1754 30.3054 40.2967C30.9852 40.4257 31.4648 40.3058 31.4648 40.0076C31.4648 39.7175 30.6738 39.4982 29.6274 39.4982H27.7901V41.3223ZM31.9241 39.9542C31.9241 40.205 32.3375 40.4102 32.8428 40.4102C33.3481 40.4102 33.7615 40.205 33.7615 39.9542C33.7615 39.7034 33.3481 39.4982 32.8428 39.4982C32.3375 39.4982 31.9241 39.7034 31.9241 39.9542ZM36.0582 39.9542C36.0582 40.205 36.4716 40.4102 36.9769 40.4102C37.4822 40.4102 37.8956 40.205 37.8956 39.9542C37.8956 39.7034 37.4822 39.4982 36.9769 39.4982C36.4716 39.4982 36.0582 39.7034 36.0582 39.9542ZM88.6526 39.9542C88.1474 40.1699 87.3206 40.3459 86.8153 40.3459H85.8966L86.8153 39.9542C87.3206 39.7385 88.1474 39.5625 88.6526 39.5625H89.5713L88.6526 39.9542ZM49.2642 40.2561C49.5803 40.3829 50.097 40.3829 50.4126 40.2561C50.7286 40.1298 50.47 40.0263 49.8384 40.0263C49.2068 40.0263 48.9487 40.1298 49.2642 40.2561ZM52.0203 40.2762C52.5885 40.3847 53.5191 40.3847 54.0873 40.2762C54.6555 40.1672 54.1907 40.0783 53.0538 40.0783C51.9169 40.0783 51.4521 40.1672 52.0203 40.2762ZM55.695 40.2561C56.011 40.3829 56.5278 40.3829 56.8433 40.2561C57.1594 40.1298 56.9008 40.0263 56.2692 40.0263C55.6376 40.0263 55.3794 40.1298 55.695 40.2561ZM57.6472 41.7783V43.6023H59.4845H61.3219V41.7783C61.3219 40.2584 61.1689 39.9542 60.4032 39.9542C59.898 39.9542 59.5089 40.1083 59.5387 40.2962C59.5691 40.4841 59.5658 40.946 59.5319 41.3223C59.4786 41.9151 59.4143 41.9183 59.0486 41.3442C58.8162 40.9798 58.7285 40.5183 58.853 40.3181C58.9774 40.1179 58.757 39.9542 58.3633 39.9542C57.8341 39.9542 57.6472 40.4303 57.6472 41.7783ZM61.7812 40.4608C61.7812 40.6838 63.1248 40.8662 64.767 40.8662C66.4091 40.8662 67.7527 40.6838 67.7527 40.4608C67.7527 40.2379 66.4091 40.0554 64.767 40.0554C63.1248 40.0554 61.7812 40.2379 61.7812 40.4608ZM16.9643 41.4363C17.0705 42.0004 17.1724 42.8212 17.1913 43.2603C17.2184 43.901 17.6097 44.0447 19.1775 43.99C20.5481 43.9421 20.7534 43.865 19.8665 43.7319C18.7709 43.5668 18.6033 43.3342 18.6033 41.9762C18.6033 40.7158 18.4246 40.4102 17.6874 40.4102C16.9869 40.4102 16.8169 40.6515 16.9643 41.4363ZM19.0626 41.7783C19.0626 42.8422 19.2666 43.1463 19.9813 43.1463C20.696 43.1463 20.9 42.8422 20.9 41.7783C20.9 40.7144 20.696 40.4102 19.9813 40.4102C19.2666 40.4102 19.0626 40.7144 19.0626 41.7783ZM21.3593 41.7783C21.3593 42.8422 21.5633 43.1463 22.278 43.1463C22.9927 43.1463 23.1967 42.8422 23.1967 41.7783C23.1967 40.7144 22.9927 40.4102 22.278 40.4102C21.5633 40.4102 21.3593 40.7144 21.3593 41.7783ZM85.5425 40.6857C85.39 40.8371 84.9935 40.8535 84.6624 40.7217C84.2958 40.5762 84.4047 40.4681 84.9398 40.4463C85.4239 40.4266 85.695 40.5343 85.5425 40.6857ZM31.9241 42.0063C31.9241 42.8422 32.169 43.1463 32.8428 43.1463C33.5167 43.1463 33.7615 42.8422 33.7615 42.0063C33.7615 41.1704 33.5167 40.8662 32.8428 40.8662C32.169 40.8662 31.9241 41.1704 31.9241 42.0063ZM34.2208 41.9776C34.2208 42.9744 34.4101 43.0866 36.0582 43.0638C37.6806 43.0419 37.8956 42.9115 37.8956 41.9525C37.8956 40.9894 37.6875 40.8662 36.0582 40.8662C34.417 40.8662 34.2208 40.9848 34.2208 41.9776ZM38.3549 42.0063C38.3549 42.8422 38.5997 43.1463 39.2736 43.1463C39.9474 43.1463 40.1923 42.8422 40.1923 42.0063C40.1923 41.1704 39.9474 40.8662 39.2736 40.8662C38.5997 40.8662 38.3549 41.1704 38.3549 42.0063ZM40.7324 42.7441C40.8202 44.9695 42.0122 45.2271 42.0659 43.0323C42.0857 42.2174 42.2202 41.8581 42.3645 42.2343C42.5087 42.6105 42.8541 43.0693 43.132 43.2535C43.4816 43.4852 43.4605 43.5905 43.0631 43.5955C42.7476 43.5992 42.489 43.8076 42.489 44.0584C42.489 44.3092 42.9024 44.5144 43.4076 44.5144C44.1706 44.5144 44.3263 44.2102 44.3263 42.719C44.3263 40.9251 44.3249 40.9232 42.4945 40.9483C40.6645 40.9734 40.6626 40.9757 40.7324 42.7441ZM44.7857 42.6903C44.7857 44.1883 44.9441 44.5144 45.6722 44.5144C46.2266 44.5144 46.6336 44.13 46.7581 43.4883L46.9574 42.4623L47.0199 43.4883C47.0718 44.3384 47.3492 44.5144 48.6409 44.5144C50.2472 44.5144 50.7254 45.0456 51.0005 47.1365C51.1273 48.1 50.9698 48.1625 48.42 48.1625C46.3125 48.1625 45.7043 48.3157 45.7043 48.8465C45.7043 49.3974 46.4191 49.5306 49.3791 49.5306H53.0538V47.0225C53.0538 44.7415 53.1475 44.5094 54.0873 44.4606C55.0556 44.41 55.0478 44.3885 53.9624 44.1186C52.9495 43.8668 52.8416 43.658 53.1039 42.4623L53.4043 41.0943L53.4589 42.3483C53.5366 44.1455 54.8911 44.0378 54.8911 42.2343C54.8911 40.9456 54.7864 40.8662 53.079 40.8662H51.267L51.0947 43.0323L50.9224 45.1984L50.8398 43.0323C50.7699 41.1978 50.6165 40.8662 49.8384 40.8662C49.1296 40.8662 48.9197 41.1704 48.9197 42.1964C48.9197 42.9279 49.1783 43.6297 49.4939 43.7565C49.837 43.8937 49.7442 44.0009 49.2642 44.0223C48.645 44.0502 48.4604 43.6922 48.4604 42.4623C48.4604 40.9041 48.4167 40.8662 46.623 40.8662H44.7857V42.6903ZM55.3505 42.2343C55.3505 43.2982 55.5544 43.6023 56.2692 43.6023C56.9839 43.6023 57.1878 43.2982 57.1878 42.2343C57.1878 41.1704 56.9839 40.8662 56.2692 40.8662C55.5544 40.8662 55.3505 41.1704 55.3505 42.2343ZM83.4851 41.1681C83.1695 41.2949 82.6527 41.2949 82.3367 41.1681C82.0211 41.0418 82.2793 40.9383 82.9109 40.9383C83.5425 40.9383 83.8011 41.0418 83.4851 41.1681ZM61.7812 42.4623C61.7812 43.2982 62.0261 43.6023 62.6999 43.6023C63.3738 43.6023 63.6186 43.2982 63.6186 42.4623C63.6186 41.6264 63.3738 41.3223 62.6999 41.3223C62.0261 41.3223 61.7812 41.6264 61.7812 42.4623ZM64.0779 42.4623C64.0779 43.4883 64.2617 43.6023 65.9153 43.6023C67.5689 43.6023 67.7527 43.4883 67.7527 42.4623C67.7527 41.4363 67.5689 41.3223 65.9153 41.3223C64.2617 41.3223 64.0779 41.4363 64.0779 42.4623ZM68.212 42.4623C68.212 43.2982 68.4568 43.6023 69.1307 43.6023C69.8045 43.6023 70.0494 43.2982 70.0494 42.4623C70.0494 41.6264 69.8045 41.3223 69.1307 41.3223C68.4568 41.3223 68.212 41.6264 68.212 42.4623ZM70.5087 42.4623C70.5087 43.1719 70.7692 43.6023 71.1977 43.6023C71.6263 43.6023 71.8867 43.1719 71.8867 42.4623C71.8867 41.7527 71.6263 41.3223 71.1977 41.3223C70.7692 41.3223 70.5087 41.7527 70.5087 42.4623ZM72.3461 42.8755C72.3461 44.2043 72.2133 44.3945 71.4274 44.1906C70.9138 44.057 70.5087 44.1765 70.5087 44.461C70.5087 44.7511 71.2992 44.9704 72.3461 44.9704H74.1834V43.1463C74.1834 41.6264 74.0305 41.3223 73.2647 41.3223C72.5257 41.3223 72.3461 41.6264 72.3461 42.8755ZM74.6428 43.1463C74.6428 44.6972 74.7879 44.9704 75.6106 44.9704C76.1935 44.9704 76.493 44.7438 76.363 44.4004C76.2449 44.0871 76.3115 43.4199 76.5114 42.9183C76.8076 42.1755 76.8807 42.2813 76.9073 43.4883C76.9385 44.9335 76.9882 44.9686 78.8917 44.9056L80.8439 44.8409L79.0065 44.5144C77.1935 44.192 77.5729 43.8792 79.5807 44.0406C80.4465 44.1104 80.6142 43.896 80.6142 42.7232C80.6142 41.6433 80.4112 41.3223 79.7277 41.3223C79.1732 41.3223 78.7663 41.7067 78.6418 42.3483L78.4424 43.3743L78.38 42.3483C78.3262 41.4655 78.0607 41.3223 76.4801 41.3223H74.6428V43.1463ZM91.0545 41.5977C90.902 41.7491 90.5056 41.7655 90.1744 41.6337C89.8079 41.4883 89.9167 41.3802 90.4519 41.3583C90.936 41.3387 91.207 41.4463 91.0545 41.5977ZM86.3559 42.7209C84.5875 43.1942 82.8305 43.5663 82.4516 43.5476C81.4989 43.5011 87.5149 41.8672 88.6526 41.8636C89.1579 41.8617 88.1244 42.248 86.3559 42.7209ZM91.4087 42.9502C90.1455 43.2991 88.9053 43.5672 88.6526 43.5458C87.8754 43.4797 91.8088 42.3041 92.7867 42.31C93.292 42.3132 92.6719 42.6014 91.4087 42.9502ZM21.7038 43.9042C22.0198 44.031 22.5366 44.031 22.8522 43.9042C23.1682 43.7779 22.9096 43.6744 22.278 43.6744C21.6464 43.6744 21.3883 43.7779 21.7038 43.9042ZM23.656 44.0442C23.656 44.2868 23.9661 44.3675 24.345 44.2234C24.724 44.0789 25.034 43.8801 25.034 43.7816C25.034 43.6831 24.724 43.6023 24.345 43.6023C23.9661 43.6023 23.656 43.8012 23.656 44.0442ZM25.6597 43.9197C26.1562 44.4122 27.3307 44.4816 27.3307 44.0182C27.3307 43.7893 26.8829 43.6023 26.3353 43.6023C25.7883 43.6023 25.4842 43.7451 25.6597 43.9197ZM27.7901 43.9963C27.7901 44.213 28.6169 44.3899 29.6274 44.3899C30.638 44.3899 31.4648 44.213 31.4648 43.9963C31.4648 43.7797 30.638 43.6023 29.6274 43.6023C28.6169 43.6023 27.7901 43.7797 27.7901 43.9963ZM31.9241 44.0584C31.9241 44.3092 32.3375 44.5144 32.8428 44.5144C33.3481 44.5144 33.7615 44.3092 33.7615 44.0584C33.7615 43.8076 33.3481 43.6023 32.8428 43.6023C32.3375 43.6023 31.9241 43.8076 31.9241 44.0584ZM34.2208 44.0584C34.2208 44.3092 34.6342 44.5144 35.1395 44.5144C35.6448 44.5144 36.0582 44.3092 36.0582 44.0584C36.0582 43.8076 35.6448 43.6023 35.1395 43.6023C34.6342 43.6023 34.2208 43.8076 34.2208 44.0584ZM36.5175 44.0046C36.5175 44.2257 37.3444 44.4182 38.3549 44.4318C39.3654 44.446 40.1923 44.2649 40.1923 44.0296C40.1923 43.7948 39.3654 43.6023 38.3549 43.6023C37.3444 43.6023 36.5175 43.7834 36.5175 44.0046ZM55.695 44.3603C56.011 44.487 56.5278 44.487 56.8433 44.3603C57.1594 44.2339 56.9008 44.1304 56.2692 44.1304C55.6376 44.1304 55.3794 44.2339 55.695 44.3603ZM58.7955 44.4902C59.5534 44.6681 60.897 44.7529 61.7812 44.6786C62.6655 44.6038 63.0274 44.6544 62.5851 44.7903C61.4886 45.1273 61.5681 45.8824 62.6999 45.8824C63.3122 45.8824 63.6186 45.5783 63.6186 44.9704C63.6186 44.1432 63.3306 44.0634 60.5181 44.1122C58.2223 44.1523 57.7753 44.2504 58.7955 44.4902ZM64.0779 44.9991C64.0779 46.2819 67.5248 46.3061 67.6222 45.0238C67.6755 44.321 67.359 44.1605 65.8827 44.1404C64.3949 44.1199 64.0779 44.2709 64.0779 44.9991ZM68.212 44.5144C68.212 44.7652 68.6254 44.9704 69.1307 44.9704C69.636 44.9704 70.0494 44.7652 70.0494 44.5144C70.0494 44.2636 69.636 44.0584 69.1307 44.0584C68.6254 44.0584 68.212 44.2636 68.212 44.5144ZM91.179 44.5144C90.5474 44.715 89.6173 44.8797 89.112 44.8797C88.3844 44.8797 88.4322 44.8035 89.3417 44.5144C89.9732 44.3137 90.9034 44.1491 91.4087 44.1491C92.1363 44.1491 92.0885 44.2253 91.179 44.5144ZM53.9725 47.6094C53.9725 49.708 54.0257 49.7964 55.3505 49.8968C56.7124 49.9998 56.7285 49.9743 56.7285 47.7138C56.7285 45.4761 56.6986 45.4264 55.3505 45.4264C54.0111 45.4264 53.9725 45.488 53.9725 47.6094ZM57.6472 47.7065V49.9866H59.2549H60.8626V47.7065V45.4264H59.2549H57.6472V47.7065ZM68.5565 45.7283C68.8725 45.8551 69.3893 45.8551 69.7049 45.7283C70.0209 45.602 69.7623 45.4985 69.1307 45.4985C68.4991 45.4985 68.2409 45.602 68.5565 45.7283ZM71.3126 45.7484C71.8812 45.8569 72.8109 45.8569 73.3796 45.7484C73.9482 45.6394 73.4829 45.5505 72.3461 45.5505C71.2092 45.5505 70.7439 45.6394 71.3126 45.7484ZM74.9873 45.7283C75.3033 45.8551 75.8201 45.8551 76.1356 45.7283C76.4517 45.602 76.193 45.4985 75.5614 45.4985C74.9299 45.4985 74.6717 45.602 74.9873 45.7283ZM77.9808 45.7538C78.6799 45.8587 79.1448 46.1164 79.0139 46.3266C78.8829 46.5368 78.3625 46.6016 77.8577 46.4702C77.0846 46.2696 76.9395 46.457 76.9395 47.6532C76.9395 49.0075 77.0263 49.0746 78.7768 49.0746H80.6142V47.2505V45.4264L78.662 45.4948C77.2766 45.5432 77.0791 45.6184 77.9808 45.7538ZM61.8598 48.1625C61.9168 49.6022 62.1097 49.9866 62.7753 49.9866C63.4528 49.9866 63.6186 49.6282 63.6186 48.1625C63.6186 46.6444 63.4647 46.3385 62.7031 46.3385C61.9296 46.3385 61.7992 46.6207 61.8598 48.1625ZM64.0779 48.1913C64.0779 49.713 64.2254 49.9866 65.0458 49.9866C65.7173 49.9866 65.9328 49.7773 65.749 49.3026C65.5896 48.8899 65.7467 48.6185 66.145 48.6185C66.5432 48.6185 66.7003 48.8899 66.5409 49.3026C66.3324 49.842 66.6746 49.9866 68.1629 49.9866H70.0494V48.1625C70.0494 46.6613 69.8918 46.3385 69.1582 46.3385C68.4669 46.3385 68.2272 46.7215 68.0871 48.0485L67.907 49.7586L67.8298 48.1023C67.755 46.4912 67.7026 46.4452 65.9153 46.421C64.0784 46.3955 64.0779 46.3964 64.0779 48.1913ZM70.5087 48.1625C70.5087 49.6619 70.6667 49.9866 71.3971 49.9866C72.0131 49.9866 72.3438 49.6026 72.4765 48.7325L72.6676 47.4785L72.7365 48.7325C72.8008 49.9041 72.9336 49.9825 74.7576 49.9218L76.7098 49.8571L75.0346 49.5798C73.6354 49.3482 73.465 49.2059 74.0011 48.7148C74.3713 48.375 74.6428 48.3271 74.6428 48.6008C74.6428 48.8611 75.0562 49.0746 75.5614 49.0746C76.2762 49.0746 76.4801 48.7704 76.4801 47.7065C76.4801 46.6599 76.272 46.3385 75.595 46.3385C75.1085 46.3385 74.6157 46.6973 74.4999 47.1365C74.3001 47.8967 74.2872 47.8967 74.2367 47.1365C74.1954 46.5181 73.7696 46.3385 72.3461 46.3385H70.5087V48.1625ZM87.2746 47.7065C86.7693 47.9222 85.9425 48.0982 85.4373 48.0982H84.5186L85.4373 47.7065C85.9425 47.4908 86.7693 47.3148 87.2746 47.3148H88.1933L87.2746 47.7065ZM8.72746 49.9606L0 52.1148L17.2253 52.424C38.0352 52.797 78.8173 53.3493 86.1263 53.3575C89.6999 53.3611 92.1514 53.1286 93.7054 52.6379C94.9686 52.2389 99.3764 51.1203 103.501 50.1517L111 48.3905L106.717 48.0996C98.5308 47.5437 94.3944 47.6354 94.3944 48.3727C94.3944 49.0832 93.9185 49.2387 85.949 51.1326C81.4837 52.1933 80.1323 52.3114 73.3171 52.2361C67.0871 52.1673 65.2819 51.9949 63.4868 51.2972C61.8125 50.6464 60.0867 50.4426 56.2522 50.4426C53.4823 50.4426 51.2164 50.6241 51.2164 50.8453C51.2164 51.7044 48.6124 51.7988 32.9577 51.5088L16.7659 51.2087V50.1416C16.7659 49.3787 17.0277 49.0746 17.6846 49.0746C18.1949 49.0746 18.6033 48.7704 18.6033 48.3905C18.6033 47.5004 18.8582 47.4598 8.72746 49.9606ZM56.2692 48.4174C56.2692 48.8082 56.0592 48.9993 55.8025 48.842C55.5457 48.6842 55.4543 48.3645 55.5999 48.1311C55.9936 47.4986 56.2692 47.6162 56.2692 48.4174ZM21.8187 48.5953C21.8187 48.8721 22.8848 49.0746 24.345 49.0746C25.7345 49.0746 26.8714 48.9045 26.8714 48.6965C26.8714 48.4886 25.7345 48.2729 24.345 48.2172C22.82 48.1557 21.8187 48.3057 21.8187 48.5953ZM29.469 48.5045C29.3518 48.6924 30.3734 48.8953 31.7386 48.9551C33.1405 49.0162 34.2208 48.8675 34.2208 48.6131C34.2208 48.0923 29.7882 47.9915 29.469 48.5045ZM108.634 49.5306C107.711 49.8243 107.666 49.8981 108.404 49.9091C108.91 49.9164 109.736 49.7463 110.242 49.5306C111.412 49.0312 110.204 49.0312 108.634 49.5306ZM76.9776 49.6938C77.4636 50.1093 80.6142 50.3377 80.6142 49.9579C80.6142 49.723 79.7529 49.5306 78.7001 49.5306C77.6478 49.5306 76.8724 49.604 76.9776 49.6938ZM106.337 49.9866C105.748 50.3642 105.765 50.4298 106.452 50.4358C106.894 50.4394 107.256 50.2374 107.256 49.9866C107.256 49.4303 107.204 49.4303 106.337 49.9866ZM102.577 51.2101C102.908 51.3419 103.304 51.3255 103.457 51.1741C103.609 51.0227 103.338 50.915 102.854 50.9347C102.319 50.9565 102.21 51.0646 102.577 51.2101ZM98.9019 52.1221C99.2331 52.2539 99.6295 52.2375 99.782 52.0861C99.9345 51.9347 99.6635 51.8271 99.1793 51.8467C98.6442 51.8686 98.5353 51.9767 98.9019 52.1221ZM95.2272 53.0342C95.5584 53.1659 95.9548 53.1495 96.1073 52.9981C96.2598 52.8467 95.9888 52.7391 95.5046 52.7587C94.9695 52.7806 94.8606 52.8887 95.2272 53.0342ZM91.6384 53.6347C90.7289 53.9238 90.6811 54 91.4087 54C91.914 54 92.8441 53.8354 93.4757 53.6347C94.3852 53.3456 94.433 53.2695 93.7054 53.2695C93.2001 53.2695 92.27 53.4341 91.6384 53.6347Z" fill="#EC6945"/>
</svg>
