<svg width="132" height="84" viewBox="0 0 132 84" fill="none" xmlns="http://www.w3.org/2000/svg">
<path d="M50.1606 -6.10352e-05L49.1309 5.52094L62.2651 5.56475L86.1456 20.2655L88.7747 6.09056L55.9992 -6.10352e-05H50.1606Z" fill="#77C14F"/>
<path d="M47.3009 15.4128L47.8815 12.3017H62.2974L62.2646 5.56482L86.1451 20.2656L81.6428 44.5076L43.2259 37.3763L44.2227 32.0086H63.4148V25.2608H45.4715L46.0521 22.1497H60.0518V15.4128H47.3009ZM15.8838 69.8669H5.71817C3.96548 69.8669 2.59618 69.4725 1.61029 68.6729C0.536763 67.8294 0 66.6134 0 65.0141V52.1427C0 50.5653 0.481992 49.3384 1.43502 48.4402C2.38805 47.531 3.70257 47.0818 5.38954 47.0818H15.8838V50.3681H6.63834C4.58988 50.3681 3.56017 51.2226 3.56017 52.9424V56.8531H15.8838V60.1394H3.56017V63.9844C3.56017 65.7152 4.60083 66.5915 6.68216 66.5915H15.8838V69.8669ZM34.4295 69.8669H30.6612L26.1809 63.8968L21.7006 69.8669H17.9651L24.4611 61.0596L18.3705 52.7562H22.073L26.1481 58.2553L30.2888 52.7562H33.9914L27.9774 61.0596L34.4295 69.8669ZM48.0896 69.8669H40.9364C37.5187 69.8669 35.7988 68.3552 35.7988 65.3208V57.0612C35.7988 54.1912 37.2448 52.7562 40.1368 52.7562H48.0129V55.6262H41.4294C40.4873 55.6262 39.841 55.7905 39.4685 56.1082C39.1071 56.4259 38.9208 57.0065 38.9208 57.85V64.6307C38.9208 66.1643 39.8081 66.9311 41.5718 66.9311H48.0896V69.8669ZM53.8297 69.8669H50.7077V46.7094H53.8297V69.8669ZM72.2549 65.5618C72.2549 68.4319 70.6008 69.8669 67.3036 69.8669H61.914C58.6058 69.8669 56.9517 68.4319 56.9517 65.5618V52.7562H60.0737V64.7074C60.0737 65.4194 60.3037 65.989 60.7748 66.4163C61.1472 66.7559 61.8593 66.9311 62.9218 66.9311H66.3286C68.2018 66.9311 69.1329 66.2081 69.1329 64.7402V52.7562H72.2549V65.5618ZM88.8946 55.6262H80.5912C79.8354 55.6262 79.2767 55.7358 78.9152 55.9658C78.4003 56.2944 78.1484 56.7326 78.1484 57.2803V57.9705C78.1484 59.1645 78.9919 59.756 80.6788 59.756H84.7867C85.9807 59.756 86.9666 60.1394 87.7334 60.8843C88.5112 61.6402 88.8946 62.5713 88.8946 63.6886V65.8357C88.8946 66.9092 88.5003 67.8622 87.7225 68.7057C87.2624 69.2096 86.7695 69.5383 86.2546 69.7026C85.8383 69.8121 85.2358 69.8669 84.4252 69.8669H75.0264V66.9311H83.5817C84.4581 66.9311 85.0387 66.7011 85.3344 66.2519C85.5535 65.9343 85.6631 65.3427 85.6631 64.4773C85.6631 63.2833 84.9839 62.6918 83.6146 62.6918H79.7258C78.4003 62.6918 77.3158 62.3632 76.4614 61.7059C75.5084 61.0048 75.0264 60.0518 75.0264 58.8687V56.5793C75.0264 55.3085 75.5741 54.2679 76.6695 53.4682C77.3268 52.9972 78.3565 52.7562 79.7477 52.7562H88.8946V55.6262ZM95.3139 48.2101C95.3139 48.7359 95.1057 49.196 94.6895 49.5794C94.2732 49.9628 93.7803 50.16 93.2216 50.16C92.6629 50.16 92.17 49.9738 91.7756 49.6013C91.3703 49.2179 91.1622 48.7688 91.1622 48.243C91.1622 47.6953 91.3593 47.2352 91.7537 46.8518C92.148 46.4574 92.63 46.2712 93.2216 46.2712C93.8131 46.2712 94.3061 46.4574 94.7114 46.8299C95.1057 47.2023 95.3139 47.6624 95.3139 48.2101ZM94.8319 69.8669H91.7208V52.7562H94.8319V69.8669ZM115.295 52.7562L108.218 68.6729C107.802 69.604 107.09 70.075 106.093 70.075C105.085 70.075 104.373 69.604 103.957 68.6729L96.8475 52.7562H100.112L106.049 66.1095L112.074 52.7562H115.295ZM132 59.4822L119.928 64.0611V64.5759C119.928 65.4851 120.202 66.1315 120.739 66.5258C121.111 66.7997 121.747 66.9311 122.656 66.9311H132V69.8669H122.064C120.356 69.8669 119.096 69.5492 118.285 68.9139C117.255 68.1142 116.741 66.8873 116.741 65.2222V57.127C116.741 54.2131 118.417 52.7562 121.769 52.7562H127.301C130.434 52.7562 132 54.2788 132 57.3351V59.4822ZM128.768 57.8281V57.5542C128.768 56.2616 127.947 55.6262 126.282 55.6262H122.82C120.892 55.6262 119.928 56.3602 119.928 57.8281V61.2239L128.768 57.8281Z" fill="#004D40"/>
<path d="M6.69311 81.3361C7.08747 81.599 7.51469 81.8071 7.97477 81.9605L7.38324 83.0231C7.15319 82.9573 6.9122 82.8588 6.68216 82.7492C6.62739 82.7164 6.27685 82.4973 5.61959 82.092C5.10473 82.3001 4.52415 82.4096 3.89975 82.4096C2.68382 82.4096 1.71983 82.07 1.02971 81.4018C0.350539 80.7336 0 79.7915 0 78.5866C0 77.3816 0.350539 76.4395 1.04066 75.7713C1.73079 75.0921 2.67286 74.7635 3.85593 74.7635C5.02805 74.7635 5.95917 75.0921 6.64929 75.7713C7.32846 76.4395 7.679 77.3706 7.679 78.5866C7.679 79.2219 7.58041 79.7806 7.39419 80.2626C7.24083 80.635 7.01079 80.9965 6.69311 81.3361ZM5.41145 80.5036C5.61959 80.2735 5.77295 79.9997 5.87154 79.682C5.98108 79.3643 6.0249 78.9919 6.0249 78.5866C6.0249 77.7321 5.82772 77.0968 5.42241 76.6695C5.0171 76.2533 4.49129 76.0342 3.84498 76.0342C3.18772 76.0342 2.66191 76.2533 2.2566 76.6695C1.85129 77.0968 1.64315 77.7321 1.64315 78.5866C1.64315 79.452 1.85129 80.0983 2.2566 80.5255C2.66191 80.9527 3.17676 81.1718 3.79021 81.1718C4.0312 81.1718 4.23934 81.128 4.44747 81.0622C4.12979 80.8651 3.80116 80.7117 3.46158 80.6022L3.91071 79.7368C4.43651 79.9011 4.94041 80.164 5.41145 80.5036ZM8.93876 74.8949H10.5381V78.8933C10.5381 79.5286 10.56 79.9339 10.6038 80.1202C10.6695 80.4269 10.8229 80.6679 11.0858 80.8541C11.3378 81.0403 11.6883 81.128 12.1265 81.128C12.5756 81.128 12.9152 81.0403 13.1452 80.8651C13.3753 80.6898 13.5067 80.4817 13.5615 80.2297C13.6053 79.9778 13.6272 79.5615 13.6272 78.9809V74.8949H15.2266V78.7728C15.2266 79.6601 15.1937 80.2845 15.1061 80.6569C15.0184 81.0184 14.8541 81.3251 14.6241 81.5771C14.394 81.829 14.0873 82.0262 13.6929 82.1796C13.3095 82.3329 12.8056 82.4096 12.1812 82.4096C11.4254 82.4096 10.8558 82.322 10.4614 82.1577C10.078 81.9934 9.77129 81.7852 9.54124 81.5223C9.3112 81.2594 9.1688 80.9965 9.09212 80.7117C8.99353 80.2845 8.93876 79.6601 8.93876 78.8385V74.8949ZM16.9245 82.2672V74.8949H20.2984C21.1419 74.8949 21.7554 74.9607 22.1388 75.0921C22.5222 75.2236 22.8289 75.4646 23.0589 75.8042C23.289 76.1437 23.4095 76.5271 23.4095 76.9653C23.4095 77.513 23.2342 77.9731 22.8837 78.3346C22.5331 78.6961 22.0183 78.9261 21.3281 79.0138C21.6677 79.2 21.9525 79.4081 22.1716 79.6382C22.4017 79.8573 22.7084 80.2626 23.0808 80.8322L24.0448 82.2672H22.1388L20.9885 80.6569C20.5832 80.0873 20.2984 79.7258 20.1451 79.5834C19.9917 79.43 19.8383 79.3315 19.6631 79.2767C19.4878 79.2219 19.2249 79.189 18.8524 79.189H18.5348V82.2672H16.9245ZM18.5348 78.0169H19.7178C20.4846 78.0169 20.9557 77.9841 21.1529 77.9293C21.3391 77.8636 21.4924 77.765 21.602 77.6116C21.7115 77.4692 21.7554 77.283 21.7554 77.0639C21.7554 76.812 21.6896 76.6148 21.5472 76.4505C21.4048 76.3081 21.2076 76.2095 20.9447 76.1656C20.8133 76.1547 20.4299 76.1437 19.7726 76.1437H18.5348V78.0169ZM26.5862 82.2672V79.1671L23.6833 74.8949H25.5565L27.4297 77.8198L29.2481 74.8949H31.0885L28.1856 79.1781V82.2672H26.5862ZM31.921 82.2672V74.9607H33.5313V81.0294H37.4968V82.2672H31.921ZM39.6986 82.2672V79.1671L36.7957 74.8949H38.6689L40.553 77.8198L42.3715 74.8949H44.2118L41.3089 79.1781V82.2672H39.6986ZM44.5842 79.8792L46.1398 79.7368C46.2383 80.2188 46.4246 80.5803 46.7094 80.8103C46.9942 81.0294 47.3776 81.1499 47.8705 81.1499C48.3744 81.1499 48.7688 81.0513 49.0207 80.8432C49.2836 80.646 49.4151 80.405 49.4151 80.1311C49.4151 79.9559 49.3603 79.8134 49.2508 79.682C49.1412 79.5615 48.955 79.4629 48.6812 79.3643C48.4949 79.3095 48.0677 79.2 47.3995 79.0466C46.556 78.8495 45.9535 78.6085 45.603 78.3127C45.121 77.9074 44.88 77.4144 44.88 76.8229C44.88 76.4505 44.9895 76.0999 45.2196 75.7713C45.4496 75.4427 45.7783 75.1907 46.2055 75.0154C46.6327 74.8511 47.1585 74.7635 47.761 74.7635C48.7469 74.7635 49.5027 74.9607 49.9957 75.3769C50.4996 75.7822 50.7625 76.33 50.7844 77.0201L49.1851 77.0639C49.1193 76.6915 48.966 76.4176 48.7469 76.2533C48.5278 76.078 48.1882 76.0013 47.7391 76.0013C47.279 76.0013 46.9175 76.089 46.6546 76.2642C46.4903 76.3847 46.4027 76.5381 46.4027 76.7243C46.4027 76.8996 46.4903 77.0529 46.6437 77.1734C46.8408 77.3378 47.3338 77.5021 48.1115 77.6664C48.8893 77.8417 49.4589 78.0169 49.8314 78.2032C50.2038 78.3784 50.4996 78.6304 50.7077 78.9481C50.9159 79.2657 51.0254 79.6601 51.0254 80.1202C51.0254 80.5474 50.8939 80.9417 50.642 81.3142C50.39 81.6866 50.0285 81.9605 49.5685 82.1358C49.1084 82.311 48.5388 82.4096 47.8486 82.4096C46.8518 82.4096 46.074 82.1905 45.5373 81.7633C45.0005 81.3251 44.6828 80.7007 44.5842 79.8792ZM55.4729 82.2672V74.8949H57.0832V78.1593L60.3147 74.8949H62.4617L59.4712 77.765L62.6151 82.2672H60.5447L58.3648 78.8056L57.0832 80.0435V82.2672H55.4729ZM63.108 78.6304C63.108 77.8745 63.2285 77.2392 63.4695 76.7353C63.6558 76.3519 63.8968 76.0232 64.2144 75.7165C64.5212 75.4208 64.8607 75.2017 65.2332 75.0483C65.7261 74.8621 66.2958 74.7635 66.9421 74.7635C68.1142 74.7635 69.0453 75.1031 69.7464 75.7713C70.4475 76.4505 70.798 77.3925 70.798 78.5975C70.798 79.7915 70.4475 80.7227 69.7573 81.3909C69.0563 82.07 68.1251 82.4096 66.964 82.4096C65.7919 82.4096 64.8498 82.07 64.1597 81.4018C63.4586 80.7336 63.108 79.8025 63.108 78.6304ZM64.7622 78.5756C64.7622 79.4191 64.9703 80.0435 65.3866 80.4817C65.8028 80.9089 66.3286 81.128 66.964 81.128C67.5993 81.128 68.1251 80.9089 68.5414 80.4817C68.9467 80.0544 69.1549 79.4191 69.1549 78.5537C69.1549 77.7102 68.9577 77.0749 68.5524 76.6586C68.158 76.2423 67.6212 76.0342 66.964 76.0342C66.3067 76.0342 65.77 76.2533 65.3646 76.6695C64.9593 77.0968 64.7622 77.7321 64.7622 78.5756ZM72.0249 82.2672V74.8949H74.4239L75.848 79.923L77.2501 74.8949H79.6601V82.2672H78.1812L78.1703 76.4614L76.6038 82.2672H75.0702L73.5147 76.4614L73.5037 82.2672H72.0249ZM81.2594 82.2672V74.8949H83.8227C84.7977 74.8949 85.433 74.9278 85.7288 75.0045C86.1779 75.114 86.5613 75.355 86.868 75.7275C87.1748 76.0999 87.3281 76.5819 87.3281 77.1625C87.3281 77.6226 87.2405 77.995 87.0652 78.3017C86.879 78.6194 86.6599 78.8604 86.3861 79.0357C86.1232 79.211 85.8383 79.3315 85.5645 79.3862C85.1811 79.452 84.6334 79.4848 83.9104 79.4848H82.8697V82.2672H81.2594ZM82.8697 76.1437V78.247H83.7351C84.3705 78.247 84.7867 78.2032 84.9949 78.1265C85.2139 78.0498 85.3783 77.9293 85.4988 77.765C85.6193 77.6007 85.674 77.4035 85.674 77.1844C85.674 76.9215 85.5864 76.6915 85.4221 76.5162C85.2578 76.3409 85.0387 76.2314 84.7867 76.1876C84.5895 76.1547 84.2061 76.1437 83.6365 76.1437H82.8697ZM94.9524 82.2672H93.2325L92.5424 80.5912H89.3656L88.7084 82.2672H87.0105L90.0886 74.8949H91.7866L94.9524 82.2672ZM92.0275 79.3424L90.9212 76.6148L89.8586 79.3424H92.0275ZM95.8068 82.2672V74.8949H97.3623L100.627 79.8354V74.8949H102.106V82.2672H100.506L97.2966 77.4254V82.2672H95.8068ZM103.738 82.2672V74.8949H105.348V82.2672H103.738ZM106.816 82.2672V74.8949H108.415V82.2672H106.816ZM117.08 82.2672H115.349L114.67 80.5912H111.493L110.836 82.2672H109.138L112.216 74.8949H113.903L117.08 82.2672ZM114.144 79.3424L113.049 76.6148L111.975 79.3424H114.144ZM117.518 79.8792L119.074 79.7368C119.172 80.2188 119.359 80.5803 119.643 80.8103C119.928 81.0294 120.312 81.1499 120.794 81.1499C121.309 81.1499 121.692 81.0513 121.955 80.8432C122.218 80.646 122.349 80.405 122.349 80.1311C122.349 79.9559 122.294 79.8134 122.185 79.682C122.075 79.5615 121.878 79.4629 121.615 79.3643C121.429 79.3095 121.002 79.2 120.334 79.0466C119.479 78.8495 118.888 78.6085 118.537 78.3127C118.055 77.9074 117.814 77.4144 117.814 76.8229C117.814 76.4505 117.924 76.0999 118.154 75.7713C118.384 75.4427 118.712 75.1907 119.14 75.0154C119.567 74.8511 120.082 74.7635 120.695 74.7635C121.681 74.7635 122.426 74.9607 122.93 75.3769C123.434 75.7822 123.697 76.33 123.719 77.0201L122.119 77.0639C122.042 76.6915 121.9 76.4176 121.681 76.2533C121.451 76.078 121.122 76.0013 120.673 76.0013C120.213 76.0013 119.852 76.089 119.589 76.2642C119.424 76.3847 119.337 76.5381 119.337 76.7243C119.337 76.8996 119.413 77.0529 119.578 77.1734C119.775 77.3378 120.268 77.5021 121.046 77.6664C121.823 77.8417 122.393 78.0169 122.765 78.2032C123.138 78.3784 123.423 78.6304 123.642 78.9481C123.85 79.2657 123.949 79.6601 123.949 80.1202C123.949 80.5474 123.828 80.9417 123.576 81.3142C123.324 81.6866 122.963 81.9605 122.503 82.1358C122.042 82.311 121.473 82.4096 120.783 82.4096C119.775 82.4096 119.008 82.1905 118.471 81.7633C117.935 81.3251 117.617 80.7007 117.518 79.8792ZM127.388 82.2672V79.1671L124.485 74.8949H126.359L128.232 77.8198L130.061 74.8949H131.901L128.999 79.1781V82.2672H127.388Z" fill="#76C04F"/>
</svg>
