<svg width="150" height="50" xmlns="http://www.w3.org/2000/svg" clip-rule="evenodd" version="1.1" xml:space="preserve">
 <g>
  <title>Layer 1</title>
  <metadata id="CorelCorpID_0Corel-Layer" stroke="null"/>
  <g stroke="null" id="_1624330496000">
   <path stroke="null" id="svg_2" fill="#323D48" d="m0.14067,31.81741c0,0.17029 0.05046,0.22074 0.22074,0.22074l6.89984,0c1.09742,0 2.06869,-0.13875 2.91383,-0.35319c0.87036,-0.22705 1.57675,-0.58655 2.30836,-0.95866c2.11915,-1.07219 5.34202,-3.99232 7.44855,-5.6889c0.4478,-0.3595 3.38685,-2.72462 3.58237,-3.02105l4.99513,4.28244c0.13875,0.11983 0.15767,0.10722 0.29643,0.22705c0.13245,0.11983 0.15137,0.16398 0.30904,0.28381l2.54172,2.13176c0.66854,0.49825 1.43169,1.02173 2.17591,1.38754c1.09742,0.54871 2.04977,0.92082 3.35532,1.24878c1.2614,0.31535 2.66155,0.46041 4.21307,0.46041c3.12196,0 6.23761,0 9.35326,0c-0.0883,-0.32796 -0.16398,-0.24597 -0.53609,-0.57394c-2.03716,-1.8101 -4.6924,-3.7905 -6.6791,-5.56907l-7.95311,-6.66648c-0.25859,-0.19552 -0.35319,-0.30904 -0.60547,-0.50456c-0.13875,-0.10722 -0.15767,-0.13875 -0.27751,-0.24597l-2.40927,-2.04977c-0.12614,-0.10722 -0.1766,-0.1766 -0.30274,-0.28381c-0.25228,-0.20182 -0.42887,-0.31535 -0.60547,-0.58024c0.22705,-0.06307 0.42257,-0.2712 0.60547,-0.42887l1.70919,-1.41276c0.80099,-0.64962 1.51368,-1.2614 2.32728,-1.90471l2.27682,-1.87948c0.38473,-0.34058 0.75053,-0.59916 1.14787,-0.93343l10.41283,-8.58381c-2.49757,0 -5.00144,0.01261 -7.49901,0c-1.72811,-0.01261 -3.56345,0.76945 -4.80592,1.79749l-17.16131,14.0835c-1.30555,1.02173 -2.82553,2.37773 -4.1563,3.41208l-2.075,1.70919c-0.34688,0.2712 -0.65593,0.54871 -1.01542,0.83883l-1.06588,0.87036l0,-22.71145l-11.94543,0l0,31.39617z" class="fil1"/>
   <path stroke="null" id="svg_3" fill="#E4022C" d="m48.15575,5.76326l31.84397,0l-7.73867,7.32872c-0.27751,0.27751 -0.57394,0.61808 -0.86406,0.84514l-7.8585,7.35394c-0.30274,0.28381 -0.5424,0.59286 -0.85775,0.85144l-6.52142,6.09885c-0.1766,0.14506 -0.28381,0.2712 -0.4478,0.43518c-0.15767,0.15767 -0.25228,0.25859 -0.40995,0.40995c-0.18921,0.18921 -0.25228,0.21444 -0.44149,0.37842l-2.62371,2.49757c0.0946,0.05046 0.08199,0.07568 0.22705,0.07568l16.54953,0c0.23336,0 0.80099,-0.69377 0.98389,-0.87036l3.3427,-3.26702c1.03435,-0.85775 2.08761,-2.13807 2.95798,-2.82553l5.2411,-5.15281c1.04065,-0.91451 2.27051,-2.30205 2.95167,-2.83184c0.51717,-0.40365 1.74703,-1.70919 2.35251,-2.32728l2.89491,-2.81922c0.20182,-0.18921 0.31535,-0.23967 0.52348,-0.4478c0.65593,-0.66223 1.2677,-1.2677 1.92363,-1.92994c0.67485,-0.66854 0.71269,-0.56763 1.41907,-1.40646l1.33077,-1.48845c1.37492,-1.67135 2.82553,-4.11846 3.31747,-6.25022c-13.82491,0 -27.74443,0.05676 -41.56303,0c-2.99582,-0.01261 -5.07082,1.77857 -6.84308,3.54453l-1.69027,1.79749z" class="fil2"/>
   <path stroke="null" id="svg_4" fill="#323D48" d="m97.81064,31.81741c0,0.17029 0.05046,0.22074 0.22074,0.22074l2.44711,0c0.1766,0 0.22705,-0.05046 0.22705,-0.22074l0,-8.53966l5.19065,0c0.42887,0 0.59916,0.14506 0.80099,0.39103c0.48564,0.59916 0.40365,1.75965 -0.32166,2.1633c-0.97758,0.5424 -3.83465,-0.59286 -4.85638,0.93343c0.30274,0.4478 1.19833,1.38123 1.57044,1.84795l1.56413,1.84795c0.54871,0.58655 0.98389,1.29924 1.94255,1.47583c0.96497,0.17029 2.28313,0.10091 3.38685,0.10091c-0.02523,-0.28381 -0.60547,-0.85775 -0.83883,-1.09742l-2.72462,-3.13457c1.14787,0 1.8984,0.04415 2.50387,-0.53609c1.55152,-1.47583 1.2614,-5.84658 -1.39384,-5.84658l-9.71906,0l0,10.39391z" class="fil1"/>
   <path stroke="null" id="svg_5" fill="#323D48" d="m83.92897,26.39971c0,2.81922 1.11634,5.63844 4.30767,5.63844l8.60903,0l0,-6.2313l-5.78981,0c-0.95235,0 -1.40015,0.53609 -1.85425,1.18571c-0.15137,0.20813 -0.34688,0.34688 -0.37211,0.66854l5.12127,0l0,2.52279l-5.19696,0c-0.28381,0 -0.66854,-0.25859 -0.84514,-0.41626l-0.32166,-0.34688c-0.11983,-0.15767 -0.16398,-0.25859 -0.24597,-0.42257c-0.78207,-1.58936 -0.74422,-3.96709 0.50456,-5.22218c0.71269,-0.719 1.77857,-0.49825 3.28594,-0.49825c1.16049,0 2.66155,0.0883 3.78419,0c0.51087,-0.03784 0.9019,-0.36581 1.15418,-0.69377c0.21444,-0.27751 0.68746,-0.84514 0.77576,-1.16049c-2.97059,0 -5.94118,0 -8.91177,0c-2.56694,0 -4.00494,2.79399 -4.00494,4.97621z" class="fil1"/>
   <path stroke="null" id="svg_6" fill="#323D48" d="m113.31952,26.91689c0,-0.93343 0.06938,-1.7155 0.49825,-2.47234c0.23967,-0.42887 0.76315,-1.16679 1.356,-1.16679l4.1563,0c1.10372,0 1.86056,1.99301 1.86056,3.26702c0,1.04696 -0.0946,1.65874 -0.54871,2.49757c-0.26489,0.49825 -0.8136,1.14156 -1.5326,1.14156l-3.85987,0c-1.05327,0 -1.92994,-1.87948 -1.92994,-3.26702zm-2.89491,-0.59286c0,1.57675 0.13875,2.66155 0.97758,3.91664c0.53609,0.79468 1.48845,1.72181 2.51018,1.72181l6.6791,0c0.96497,0 1.99301,-0.9019 2.51018,-1.72181c2.20114,-3.43731 0.49194,-8.81717 -2.87599,-8.81717l-5.94118,0c-1.36231,0 -2.18222,0.79468 -2.78769,1.58936c-0.49825,0.65593 -1.07219,2.18852 -1.07219,3.31117z" class="fil1"/>
   <path stroke="null" id="svg_7" fill="#323D48" d="m124.89914,29.21894c0,1.11003 0.87036,2.81922 2.22637,2.81922l7.27195,0c1.54521,0 2.37773,-1.61459 2.37773,-3.19133l0,-7.42332l-2.89491,0l0,7.42332c0,0.61808 -0.30904,1.33708 -0.88928,1.33708l-4.45273,0c-0.20182,0 -0.42257,-0.24597 -0.51087,-0.37842c-0.13245,-0.19552 -0.23336,-0.42257 -0.23336,-0.73792l0,-7.64407l-2.89491,0l0,7.79543z" class="fil1"/>
   <path stroke="null" id="svg_8" fill="#323D48" d="m137.74017,21.64425l0,10.17317c0,0.17029 0.05046,0.22074 0.22074,0.22074l2.67416,0l0,-8.7604l5.34202,0c1.17941,0 1.38123,2.4408 0.05676,2.66155c-0.4541,0.07568 -1.60828,0.01261 -2.13807,0.01261c-0.37842,0 -0.64962,-0.01892 -0.93343,0.10091c-0.21444,0.0883 -0.46672,0.27751 -0.59916,0.44149c-0.15767,0.1829 -0.32166,0.39103 -0.4541,0.58655c-0.15137,0.21444 -0.3595,0.42887 -0.38473,0.7253c1.90471,0 3.80942,0.00631 5.71413,0.00631c1.36862,0 2.05608,-0.7253 2.38404,-1.84795c0.58024,-1.9867 -0.13875,-4.54103 -2.1633,-4.54103l-9.49832,0c-0.17029,0 -0.22074,0.05046 -0.22074,0.22074z" class="fil1"/>
   <path stroke="null" id="svg_9" fill="#323D48" d="m122.37635,41.83291l1.92994,0l0,4.6041l-2.89491,0c0.05046,-0.23336 0.10091,-0.25859 0.18921,-0.47933c0.39103,-0.95866 0.77576,-3.14088 0.77576,-4.12477zm-2.74985,4.6041l-0.88928,0l0,3.11565c1.84164,0 1.48845,0.36581 1.48845,-1.63351l5.19065,0c0,1.9867 -0.32166,1.63351 1.33708,1.63351c0.17029,0 0.22074,-0.05046 0.22074,-0.22074l0,-2.67416c0,-0.31535 -0.28381,-0.22074 -0.96497,-0.22074l0,-5.94118c0,-0.17029 -0.05046,-0.22074 -0.22074,-0.22074l-4.9699,0c0,0.61808 -0.05676,1.05327 -0.07568,1.70919c-0.06938,2.60478 -0.95866,3.8851 -1.11634,4.45273z" class="fil1"/>
   <path stroke="null" id="svg_10" fill="#323D48" d="m128.0148,40.49583l0,7.42332c1.74703,0 1.46322,0.15137 1.92994,-0.51717c0.14506,-0.20813 0.27751,-0.37842 0.42887,-0.61178l1.76596,-2.46603c0.21444,-0.29012 0.70638,-1.07219 0.92082,-1.22986c-0.17029,0.73792 -0.06938,3.64544 -0.06938,4.6041c0,0.37842 0.68115,0.22074 1.70289,0.22074l0,-7.42332c0,-0.35319 -0.49825,-0.22074 -1.40646,-0.22074c-0.27751,0 -1.69027,2.1696 -1.84164,2.39035c-0.18921,0.27751 -1.55152,2.27051 -1.79749,2.4345c0.01892,-0.23336 0.07568,-0.26489 0.07568,-0.51717l0,-4.08693c0,-0.3595 -0.5424,-0.22074 -1.48845,-0.22074c-0.17029,0 -0.22074,0.05046 -0.22074,0.22074z" class="fil1"/>
   <path stroke="null" id="svg_11" fill="#323D48" d="m30.12408,47.91915c1.9867,0 1.31816,0.25228 2.35251,-1.13526l1.72811,-2.42819c0.15137,-0.20813 0.73792,-1.07219 0.88928,-1.18571l0,4.74916l1.70919,0l0,-7.42332c0,-0.35319 -0.49825,-0.22074 -1.41276,-0.22074c-0.30904,0 -1.58305,2.03085 -1.84164,2.38404c-0.2712,0.37211 -1.60197,2.30205 -1.79118,2.4408l0,-4.82484l-1.63351,0l0,7.64407z" class="fil1"/>
   <path stroke="null" id="svg_12" fill="#323D48" d="m84.96962,40.49583l0,7.20258c0,0.31535 0.33427,0.23336 0.66223,0.22705c0.32796,-0.00631 0.64962,-0.00631 0.97128,-0.00631c0.05046,-0.19552 0.64331,-0.98389 0.80729,-1.19833c0.30274,-0.40995 0.56132,-0.78207 0.86406,-1.20463l1.60828,-2.2579c0.06938,-0.0883 0.07568,-0.0946 0.13245,-0.16398l0,4.82484l1.63351,0l0,-7.64407c-1.50106,0 -1.42538,-0.15767 -1.87317,0.50456l-3.09673,4.32028l0,-3.78419c0,-1.21725 0.29012,-1.04065 -1.48845,-1.04065c-0.17029,0 -0.22074,0.05046 -0.22074,0.22074z" class="fil1"/>
   <path stroke="null" id="svg_13" fill="#323D48" d="m22.62507,44.3557c0,-0.719 0.03153,-1.36862 0.53609,-1.91102c1.19202,-1.28032 4.06801,-0.85144 4.06801,1.46953c0,3.2544 -3.10304,2.83814 -3.94187,2.00562c-0.32166,-0.31535 -0.66223,-0.92713 -0.66223,-1.56413zm-1.70289,-0.66854c0,1.37492 0.0946,2.31466 1.12895,3.32378c1.8101,1.77857 5.72674,1.29924 6.61603,-1.28662c0.15137,-0.4478 0.34058,-1.11634 0.32796,-1.65874c-0.04415,-1.57044 -0.85144,-3.00843 -2.33989,-3.58867c-1.04696,-0.40995 -2.18852,-0.4478 -3.24179,-0.08199c-0.92082,0.32166 -1.63351,0.91451 -2.075,1.78488c-0.1829,0.3595 -0.41626,1.00281 -0.41626,1.50737z" class="fil1"/>
   <path stroke="null" id="svg_14" fill="#323D48" d="m103.8212,44.13496c0,-1.18571 0.73161,-2.37143 2.075,-2.37143c0.77576,0 1.55152,0.03153 2.05608,0.69377c1.09742,1.45061 0.55501,4.05539 -1.75334,4.05539c-1.50106,0 -2.37773,-1.04065 -2.37773,-2.37773zm-1.70919,-0.07568c0,5.39247 8.09186,5.27264 8.09186,0.15137c0,-5.53123 -8.09186,-5.29156 -8.09186,-0.15137z" class="fil1"/>
   <path stroke="null" id="svg_15" fill="#323D48" d="m136.25172,40.49583l0,7.42332c1.02804,0 1.70919,0.15767 1.70919,-0.22074l0,-2.81922l3.26702,0l0,3.03997l1.70289,0l0,-7.42332c0,-0.3595 -0.53609,-0.22074 -1.48214,-0.22074c-0.17029,0 -0.22074,0.05046 -0.22074,0.22074l0,2.82553l-3.26702,0l0,-2.82553c0,-0.3595 -0.5424,-0.22074 -1.48214,-0.22074c-0.17029,0 -0.22705,0.05046 -0.22705,0.22074z" class="fil1"/>
   <path stroke="null" id="svg_16" fill="#323D48" d="m66.78658,40.49583l0,7.20258c0,0.37842 0.68115,0.22074 1.70919,0.22074l0,-3.03997l3.3364,0l0,3.03997l1.63351,0l0,-7.64407l-1.63351,0l0,3.04627l-3.3364,0l0,-2.82553c0,-0.3595 -0.5424,-0.22074 -1.48845,-0.22074c-0.17029,0 -0.22074,0.05046 -0.22074,0.22074z" class="fil1"/>
   <path stroke="null" id="svg_17" fill="#323D48" d="m50.75423,46.58207c0,1.45691 -0.21444,1.41276 1.11634,1.41276c1.13526,0 1.74073,-1.40015 1.9867,-2.31466c0.15767,-0.58024 0.23967,-1.16679 0.33427,-1.81641c0.06938,-0.48564 0.20182,-1.48214 0.20182,-2.03085l1.99931,0l0,6.08624c1.02804,0 1.70919,0.15767 1.70919,-0.22074l0,-7.20258c0,-0.17029 -0.05046,-0.22074 -0.22074,-0.22074l-4.82484,0c-0.39103,0 -0.25228,1.23617 -0.34058,1.81641l-0.20182,2.02454c-0.08199,0.55501 -0.20182,1.24248 -0.4478,1.70289c-0.62439,1.17941 -1.31185,0.21444 -1.31185,0.76315z" class="fil1"/>
   <path stroke="null" id="svg_18" fill="#323D48" d="m110.94809,46.43701l-0.52348,0c0,1.57044 -0.20813,1.55783 0.96497,1.55783c1.86687,0 2.28313,-2.66155 2.46603,-4.14369l0.20813,-2.01824l2.00562,0l0,6.08624c1.02173,0 1.70289,0.15767 1.70289,-0.22074l0,-7.20258c0,-0.17029 -0.05046,-0.22074 -0.22074,-0.22074l-4.82484,0c-0.29012,0 -0.24597,0.42257 -0.27751,0.68746l-0.22074,2.74985c-0.12614,0.95866 -0.31535,2.72462 -1.28032,2.72462z" class="fil1"/>
   <path stroke="null" id="svg_19" fill="#323D48" d="m44.81935,40.49583l0,7.20258c0,0.17029 0.05046,0.22074 0.22074,0.22074l5.26633,0l0,-1.48214l-3.78419,0l0,-1.63351l3.19133,0c0.34688,0 0.22705,-0.41626 0.22705,-1.2614c0,-0.17029 -0.05676,-0.22074 -0.22705,-0.22074l-3.19133,0l0,-1.48845l3.48776,0c0.35319,0 0.22705,-0.4541 0.22705,-1.33708c0,-0.17029 -0.05046,-0.22074 -0.22705,-0.22074l-4.9699,0c-0.17029,0 -0.22074,0.05046 -0.22074,0.22074z" class="fil1"/>
   <path stroke="null" id="svg_20" fill="#323D48" d="m17.5038,43.91421l-1.70289,0l0,-2.08131c0.93343,0 2.74354,-0.23967 2.74354,0.81991c0,0.49825 0.01261,1.2614 -1.04065,1.2614zm-3.41208,-3.41839l0,7.20258c0,0.37842 0.68115,0.22074 1.70919,0.22074l0,-2.44711c2.08131,0 4.49688,-0.00631 4.50319,-2.59848c0.00631,-3.05258 -3.53822,-2.59848 -5.99164,-2.59848c-0.17029,0 -0.22074,0.05046 -0.22074,0.22074z" class="fil1"/>
   <path stroke="null" id="svg_21" fill="#323D48" d="m77.9941,46.43701l-1.2614,0l0,-2.15068c0.93343,0 2.74354,-0.22705 2.74354,0.88928c0,0.75053 -0.17029,1.2614 -1.48214,1.2614zm-2.97059,-5.94118l0,7.20258c0,0.17029 0.05046,0.22074 0.22074,0.22074c2.10023,0 5.94118,0.47933 5.94118,-2.30205c0,-0.87036 0.01261,-1.45061 -0.71269,-2.10653c-0.95866,-0.85144 -2.47234,-0.71269 -3.74004,-0.71269l0,-2.30205c0,-0.3595 -0.5424,-0.22074 -1.48845,-0.22074c-0.17029,0 -0.22074,0.05046 -0.22074,0.22074z" class="fil1"/>
   <path stroke="null" id="svg_22" fill="#323D48" d="m97.43853,43.98359c-0.32796,0.49825 -2.59217,3.62652 -2.67416,3.93556l1.92994,0c0.33427,-0.62439 1.61459,-2.32097 1.70919,-2.66785c0.22705,0.05676 0.17029,0.06307 0.28381,0.22705l0.68115,1.03435c0.1829,0.27751 0.8136,1.13526 0.88928,1.40646l2.00562,0l-2.67416,-3.93556c-0.02523,-0.24597 2.40927,-3.21656 2.44711,-3.70851c-2.10653,0 -1.74703,-0.20182 -2.31466,0.65593c-0.22074,0.33427 -1.02804,1.63351 -1.24248,1.79749c-0.28381,-0.42257 -0.55501,-0.79468 -0.85144,-1.23617c-0.15137,-0.23336 -0.2712,-0.40995 -0.40995,-0.62439c-0.50456,-0.75684 -0.13245,-0.59286 -2.08131,-0.59286c-0.32796,0 -0.15767,0.18921 -0.05676,0.34058c0.13245,0.18921 0.23967,0.31535 0.35319,0.47933l2.00562,2.8886z" class="fil1"/>
   <path stroke="null" id="svg_23" fill="#323D48" d="m62.70596,46.43701l-1.41276,0l0,-2.15068c0.85775,0 2.74985,-0.21444 2.74985,0.8136c0,0.66854 -0.01261,1.33708 -1.33708,1.33708zm-3.04627,1.48214c1.70289,0 4.11215,0.24597 5.25372,-0.61178c1.5326,-1.14787 1.29293,-4.50949 -1.9867,-4.50949l-1.63351,0l0,-2.52279l-1.63351,0l0,7.64407z" class="fil1"/>
   <path stroke="null" id="svg_24" fill="#323D48" d="m0.14067,43.98359c0,2.62371 1.6272,4.08693 4.22568,4.08693c0.94605,0 1.36231,-0.27751 2.08131,-0.4478l0,-1.70289c-0.22074,0.14506 -0.24597,0.20813 -0.5424,0.34688c-1.60197,0.74422 -4.0617,0.08199 -4.0617,-1.98039c0,-0.77576 0.24597,-1.40646 0.61178,-1.84164c0.59916,-0.70008 1.50737,-0.75684 2.35881,-0.75684c0.85144,0 1.19833,0.47933 1.63351,0.51717l0,-1.48214c-1.11003,-0.74422 -3.02105,-0.70638 -4.25722,-0.10091c-0.62439,0.30274 -1.04065,0.70008 -1.41907,1.25509c-0.31535,0.46672 -0.6307,1.36231 -0.6307,2.10653z" class="fil1"/>
   <path stroke="null" id="svg_25" fill="#323D48" d="m6.96483,41.83291l2.30205,0l0,6.08624l1.63351,0l0,-6.08624l2.15068,0c0.34688,0 0.22074,-0.4541 0.22074,-1.33708c0,-0.17029 -0.05046,-0.22074 -0.22074,-0.22074l-6.08624,0l0,1.55783z" class="fil1"/>
   <path stroke="null" id="svg_26" fill="#323D48" d="m37.69246,41.83291l2.30205,0l0,6.08624l1.63351,0l0,-6.08624l2.15068,0c0.34688,0 0.22074,-0.4541 0.22074,-1.33708c0,-0.17029 -0.05046,-0.22074 -0.22074,-0.22074l-6.08624,0l0,1.55783z" class="fil1"/>
   <path stroke="null" id="svg_27" fill="#323D48" d="m144.49495,47.91915c1.02173,0 1.70289,0.15767 1.70289,-0.22074l0,-5.8655l3.41839,0c0.34688,0 0.22074,-0.4541 0.22074,-1.33708c0,-0.17029 -0.05046,-0.22074 -0.22074,-0.22074l-5.12127,0l0,7.64407z" class="fil1"/>
   <path stroke="null" id="svg_28" fill="#323D48" d="m81.77829,47.91915c1.02173,0 1.70919,0.15767 1.70919,-0.22074l0,-7.20258c0,-0.37211 -0.68746,-0.22074 -1.70919,-0.22074l0,7.64407z" class="fil1"/>
   <path stroke="null" id="svg_29" fill="#323D48" d="m86.60313,39.3858c0.20813,0.05676 0.39734,0.20182 0.67485,0.29012c1.10372,0.35319 2.81292,0.05676 2.81292,-0.51087c0,-1.87317 -0.00631,-0.59916 -1.48214,-0.59916c-1.60197,0 -1.33077,-0.25859 -2.00562,-0.44149l0,1.2614z" class="fil1"/>
  </g>
 </g>

</svg>