<svg width="170" height="45.00000000000001" xmlns="http://www.w3.org/2000/svg" fill="none">
 <g>
  <title>Layer 1</title>
  <path fill-rule="evenodd" clip-rule="evenodd" d="m66.05428,42.67105l-0.84614,-0.7714c-0.43692,0.31355 -0.95855,0.48266 -1.49229,0.48266l-0.06421,0c-0.03247,0 -0.06666,0.00202 -0.09884,0.00202c-1.47382,0 -2.67017,-1.22535 -2.67017,-2.73524c0,-1.51004 1.19418,-2.73524 2.67017,-2.73524c1.47397,0 2.67031,1.2252 2.67031,2.73524l0,0.02265c0.00202,0.02063 0.00202,0.04127 0.00202,0.0619c0,0.56722 -0.16507,1.12016 -0.47112,1.59041l0.83186,0.75913l-0.53158,0.58785l-0.00001,0.00002zm-1.46661,-1.33876l-1.06316,-0.96331l0.47155,-0.5652l1.06128,0.93445c0.15079,-0.31355 0.2313,-0.66 0.2313,-1.00876l0,-0.04531c0,-1.16142 -0.64831,-1.97409 -1.65116,-1.97409c-1.00068,0 -1.65534,0.81483 -1.65534,1.97409c0,1.16128 0.64831,1.92662 1.65534,1.92662c0.01789,0 0.03838,0 0.05627,0c0.31817,0.00202 0.63259,-0.0948 0.8939,-0.27849l0.00002,0zm13.91184,-0.1795l-2.4126,0l-0.47112,1.16965l-0.9408,0l2.18115,-5.29719l0.8939,0l2.17711,5.29719l-0.94022,0l-0.48743,-1.16965l0.00001,0zm-0.28195,-0.72609l-0.94065,-2.3494l-0.94022,2.3494l1.88088,0l-0.00001,0zm13.99799,1.14079l0,0.75711l-4.22883,0l0,-0.70343l3.10088,-3.82856l-3.10088,0l0,-0.75711l4.18266,0l0,0.69319l-3.07101,3.85323l3.11719,-0.01443l-0.00001,0zm11.91784,-0.4147l-2.4126,0l-0.47127,1.16965l-0.93806,0l2.18707,-5.29719l0.8939,0l2.1748,5.29719l-0.94022,0l-0.49363,-1.16965l0.00001,0zm-0.27777,-0.72609l-0.94065,-2.3494l-0.94022,2.3494l1.88088,0l-0.00001,0zm14.75524,2.24435l-0.846,-0.7714c-0.43707,0.31355 -0.95811,0.48266 -1.49186,0.48266l-0.06479,0c-0.03622,0.00202 -0.0746,0.00202 -0.11241,0.00202c-1.47454,0 -2.67089,-1.22535 -2.67089,-2.73524c0,-1.51206 1.19476,-2.73524 2.67089,-2.73524c1.47382,0 2.67017,1.2252 2.67017,2.73524c0,0.01241 -0.00202,0.02886 -0.00202,0.03925c0,0.01645 0.00202,0.03506 0.00202,0.05353c0,0.5652 -0.16507,1.11814 -0.4691,1.59041l0.83561,0.74052l-0.52162,0.59824l0,0.00001zm-1.46603,-1.33876l-1.0633,-0.96331l0.47112,-0.5652l1.05753,0.93445c0.15093,-0.31355 0.22928,-0.66 0.22928,-1.00876l0,-0.04531c0,-1.16142 -0.64831,-1.97409 -1.64899,-1.97409c-1.00342,0 -1.65549,0.81887 -1.65549,1.98029c0,1.16128 0.64846,1.92662 1.65549,1.92662c0.01789,0 0.03781,0 0.05613,0c0.32033,0 0.63417,-0.09899 0.89823,-0.28469zm12.34048,0.35078c0.62479,0 1.09173,-0.28888 1.09173,-0.81901c0,-0.53014 -0.4691,-0.66837 -1.2405,-0.85191c-1.02911,-0.2414 -1.93729,-0.42913 -1.93729,-1.54092c0,-0.96331 0.70473,-1.53471 1.93095,-1.53471c1.22679,0 1.98982,0.57761 2.0787,1.79055l-0.88813,0l0,-0.03304c0,-0.58165 -0.46116,-1.05623 -1.02911,-1.05623c-0.04632,0 -0.09249,0.00216 -0.13722,0.01039c-0.64846,0 -1.04483,0.28469 -1.04483,0.8004c0,0.39392 0.23967,0.59204 1.28465,0.8333c0.67674,0.15887 1.90295,0.37141 1.90295,1.55535c0,0.93041 -0.76086,1.56574 -2.01767,1.56574c-1.35723,0 -2.21333,-0.75495 -2.25532,-2.03195l0.91598,0c0,0.01039 0,0.02063 0,0.03102c0,0.70964 0.56217,1.28508 1.25464,1.28508c0.03001,0 0.06046,-0.00202 0.09047,-0.00404l0,-0.00002zm14.3567,-3.89046l-1.68752,0l0,4.53199l-0.8939,0l0,-4.53199l-1.68795,0l0,-0.75711l4.26938,0l0,0.75711l-0.00001,0zm11.92231,3.36018l-2.41116,0l-0.46896,1.16965l-0.9408,0l2.18173,-5.29719l0.89174,0l2.1774,5.29719l-0.9408,0l-0.48916,-1.16965l0.00001,0zm-0.28282,-0.72609l-0.9408,-2.3494l-0.93936,2.3494l1.88015,0l0.00001,0zm14.21587,-3.38904l0,5.29719l-0.80805,0l-2.74015,-3.7997l0,3.7997l-0.88741,0l0,-5.29719l0.82103,0l2.72716,3.82437l0,-3.82437l0.88741,0l0.00001,0zm-169.39475,5.31162l43.41404,0l0,-4.44527l-43.41404,0l0,4.44527zm17.36518,-17.78961l26.04886,0l0,-4.44527l-26.04886,0l0,4.44527zm-8.68158,8.89487l34.73044,0l0,-4.44542l-34.73044,0l0,4.44542zm17.36319,-17.78754l17.36524,0l0,-4.44535l-17.36524,0l0,4.44535zm8.68363,-8.89272l8.68363,0l0,-4.44533l-8.68363,0l0,4.44533zm41.13843,-4.44533l-15.09534,0l0,26.68018l4.29146,0l0,-9.19789l6.15819,0l5.64061,9.19789l5.09705,0l-5.67913,-9.20006c3.89291,-0.12986 5.70698,-2.12877 5.70698,-6.26055l0,-4.95897c0,-4.26794 -1.94509,-6.2606 -6.11981,-6.2606l-0.00001,0zm1.83052,11.21957c0,1.6894 -0.34443,2.07927 -1.82835,2.07927l-10.8124,0l0,-9.1155l10.8124,0c1.48609,0 1.82835,0.38987 1.82835,2.07931l0,4.95693l0,-0.00001zm91.69539,-1.8689l0,-3.09008c0,-4.27209 -1.94509,-6.2606 -6.11086,-6.2606l-8.98087,0c-4.1701,0 -6.10942,1.99266 -6.10942,6.2606c0,4.84341 1.48046,6.16774 5.93049,7.70456l8.9751,3.07761c1.72865,0.59204 2.0129,1.06864 2.0129,3.37071c0,1.6956 -0.33909,2.08548 -1.82532,2.08548l-8.97943,0c-1.48046,0 -1.82388,-0.38988 -1.82388,-2.08548l0,-3.07563l-4.29131,0l0,3.08184c0,4.27616 1.94509,6.26049 6.10942,6.26049l8.97943,0c4.17443,0 6.1123,-1.99472 6.1123,-6.26049c0,-4.81467 -1.48334,-6.16372 -5.93338,-7.68192l-8.97655,-3.07562c-1.73009,-0.59202 -2.0129,-1.06854 -2.0129,-3.37064c0,-1.69149 0.34486,-2.08136 1.82532,-2.08136l8.97943,0c1.48623,0 1.82388,0.38987 1.82388,2.08136l0,3.08599l4.29564,-0.02682l0.00001,0zm-41.12444,6.19259l-6.09138,-15.54326l-6.41215,0l0,26.68018l4.29146,0l0,-20.83012l5.64075,14.44582l5.11913,0l5.66918,-14.44582l0,20.83012l4.29131,0l0,-26.68018l-6.45414,0l-6.05415,15.54326l-0.00001,0zm-26.72921,-15.54326l-5.78158,0l-8.93153,26.68018l4.53704,0l2.35055,-7.0052l9.96626,0l2.38215,7.0052l4.53113,0l-9.0119,-26.56467l-0.04213,-0.11551l0.00001,0zm-6.42629,15.4916l3.55469,-10.59452l3.58629,10.59452l-7.14098,0z" fill="#bd9a60" id="svg_1" stroke="null"/>
 </g>

</svg>