<svg width="132" height="132" viewBox="0 0 132 132" fill="none" xmlns="http://www.w3.org/2000/svg">
<path d="M63.0597 1.34383C64.5045 -0.447942 67.2347 -0.447942 68.6795 1.34383L73.2876 7.05791C74.4362 8.48274 76.4699 8.82212 78.0192 7.8475L84.233 3.93918C86.1808 2.71364 88.7631 3.60013 89.5479 5.76397L92.0509 12.6646C92.6746 14.3853 94.4882 15.3665 96.2699 14.9479L103.416 13.2688C105.657 12.7423 107.811 14.4191 107.851 16.7205L107.977 24.0599C108.009 25.89 109.405 27.4069 111.226 27.5894L118.53 28.3216C120.82 28.5512 122.313 30.8368 121.604 33.0264L119.34 40.0091C118.776 41.7503 119.604 43.6384 121.267 44.4024L127.938 47.4664C130.029 48.4272 130.699 51.0739 129.318 52.9143L124.909 58.7838C123.81 60.2474 123.98 62.302 125.306 63.5647L130.619 68.6286C132.286 70.2167 132.06 72.9377 130.156 74.2293L124.081 78.3494C122.565 79.3767 122.059 81.3758 122.902 83.0002L126.285 89.515C127.345 91.5581 126.249 94.0582 124.027 94.6617L116.943 96.5857C115.177 97.0658 114.049 98.7919 114.319 100.602L115.403 107.862C115.742 110.139 113.893 112.147 111.597 111.997L104.272 111.517C102.445 111.397 100.818 112.663 100.486 114.463L99.1534 121.682C98.7354 123.945 96.3342 125.245 94.2109 124.357L87.4384 121.525C85.7498 120.818 83.7998 121.487 82.901 123.082L79.297 129.477C78.1665 131.482 75.4736 131.931 73.7539 130.402L68.2683 125.523C66.9005 124.308 64.8387 124.308 63.4709 125.523L57.9855 130.402C56.2654 131.931 53.5725 131.482 52.4423 129.477L48.8379 123.082C47.9391 121.487 45.9892 120.818 44.3005 121.525L37.5285 124.357C35.405 125.245 33.0038 123.945 32.586 121.682L31.2532 114.463C30.9208 112.663 29.2938 111.397 27.4674 111.517L20.1427 111.997C17.8458 112.147 15.9967 110.139 16.3364 107.862L17.4197 100.602C17.6898 98.7919 16.5622 97.0658 14.7958 96.5857L7.71207 94.6617C5.49079 94.0582 4.39412 91.5581 5.45455 89.515L8.8365 83.0002C9.6798 81.3758 9.17364 79.3767 7.65879 78.3494L1.58374 74.2293C-0.321226 72.9377 -0.546682 70.2167 1.11965 68.6286L6.43372 63.5647C7.75885 62.302 7.92909 60.2474 6.82985 58.7838L2.42177 52.9143C1.03952 51.0739 1.70975 48.4272 3.80137 47.4664L10.4718 44.4024C12.1351 43.6384 12.9632 41.7503 12.3988 40.0091L10.1353 33.0264C9.4256 30.8368 10.9189 28.5512 13.2092 28.3216L20.513 27.5894C22.3342 27.4069 23.7306 25.89 23.7622 24.0599L23.8887 16.7205C23.9283 14.4191 26.0828 12.7423 28.3235 13.2688L35.4694 14.9479C37.2512 15.3665 39.0644 14.3853 39.6885 12.6646L42.1912 5.76397C42.976 3.60012 45.5582 2.71364 47.5066 3.93918L53.72 7.8475C55.2694 8.82212 57.3029 8.48274 58.4519 7.05791L63.0597 1.34383Z" fill="#EC6945"/>
<path d="M63.0602 8.56324C64.505 6.77152 67.2353 6.77152 68.6801 8.56324L72.2897 13.0395C73.439 14.4644 75.472 14.8037 77.0213 13.8292L81.8893 10.7675C83.8372 9.54191 86.4195 10.4284 87.2043 12.5923L89.1651 17.998C89.7888 19.7187 91.6024 20.7 93.3841 20.2812L98.9821 18.9659C101.223 18.4394 103.377 20.1164 103.417 22.4177L103.516 28.1672C103.548 29.9973 104.944 31.5141 106.765 31.6967L112.487 32.2702C114.777 32.4998 116.27 34.7855 115.561 36.975L113.788 42.4451C113.223 44.1863 114.051 46.0743 115.715 46.8384L120.94 49.2387C123.031 50.1994 123.701 52.8461 122.32 54.6866L118.867 59.2846C117.767 60.7482 117.937 62.8029 119.262 64.0655L123.426 68.0325C125.092 69.6203 124.866 72.3414 122.961 73.6329L118.202 76.8608C116.687 77.8881 116.181 79.8864 117.024 81.5115L119.674 86.6149C120.734 88.658 119.638 91.1581 117.416 91.7617L111.867 93.2691C110.101 93.7485 108.973 95.4746 109.243 97.2853L110.092 102.973C110.431 105.249 108.582 107.257 106.285 107.107L100.547 106.731C98.7207 106.611 97.0942 107.878 96.7621 109.677L95.7175 115.332C95.2994 117.596 92.899 118.895 90.775 118.007L85.4702 115.789C83.7816 115.082 81.8316 115.752 80.9328 117.346L78.1093 122.355C76.9787 124.36 74.2858 124.81 72.5662 123.28L68.2688 119.459C66.901 118.243 64.8393 118.243 63.4715 119.459L59.1743 123.28C57.4543 124.81 54.7613 124.36 53.6311 122.355L50.8075 117.346C49.9088 115.752 47.9588 115.082 46.2701 115.789L40.9651 118.007C38.8416 118.895 36.4405 117.596 36.0225 115.332L34.9785 109.677C34.6462 107.878 33.0192 106.611 31.1927 106.731L25.4547 107.107C23.1579 107.257 21.3088 105.249 21.6485 102.973L22.4971 97.2853C22.7672 95.4746 21.6396 93.7485 19.8732 93.2691L14.324 91.7617C12.1028 91.1581 11.006 88.658 12.0665 86.6149L14.7158 81.5115C15.5591 79.8864 15.053 77.8881 13.5381 76.8608L8.77907 73.6329C6.87408 72.3414 6.64862 69.6203 8.31501 68.0325L12.4779 64.0655C13.803 62.8029 13.9732 60.7482 12.874 59.2846L9.42081 54.6866C8.03857 52.8461 8.70882 50.1994 10.8004 49.2387L16.0259 46.8384C17.6892 46.0743 18.5173 44.1863 17.9529 42.4451L16.1798 36.975C15.47 34.7855 16.9633 32.4998 19.2535 32.2702L24.9752 31.6967C26.7965 31.5141 28.1928 29.9973 28.2243 28.1672L28.3235 22.4177C28.3631 20.1164 30.5176 18.4394 32.7583 18.9659L38.3562 20.2812C40.1381 20.7 41.9512 19.7187 42.5753 17.998L44.5358 12.5923C45.3207 10.4284 47.9029 9.54191 49.8512 10.7675L54.7187 13.8292C56.2681 14.8037 58.3017 14.4644 59.4506 13.0395L63.0602 8.56324Z" stroke="white" stroke-width="2"/>
<path d="M58.468 24.48L58.8066 25.7436L55.0074 26.7616L55.4791 25.9446L56.9948 31.6015L55.5723 31.9827L53.8906 25.7065L58.468 24.48Z" fill="white"/>
<path d="M71.3663 29.0769L71.5885 27.9022L76.0149 28.7397L75.7926 29.9144L71.3663 29.0769ZM75.4948 24.6383L77.2746 31.5879L75.7339 31.2964L74.2175 25.005L74.6942 25.0952L70.9841 30.3976L69.4434 30.1061L73.6391 24.2872L75.4948 24.6383Z" fill="white"/>
<path d="M92.2718 32.373C92.6853 32.6782 92.99 33.0143 93.1858 33.3813C93.3815 33.7483 93.4624 34.1202 93.4283 34.497C93.3988 34.8773 93.2573 35.2394 93.0034 35.5833C92.7497 35.9271 92.4454 36.1692 92.0907 36.3094C91.7441 36.4484 91.3649 36.4807 90.953 36.4065C90.5447 36.3276 90.1337 36.1355 89.7201 35.8303L87.4129 34.1275L88.1331 33.1517L90.3776 34.8082C90.6518 35.0105 90.9153 35.1009 91.1681 35.0793C91.4255 35.0611 91.64 34.9359 91.8115 34.7036C91.9864 34.4666 92.0429 34.2247 91.9809 33.9779C91.927 33.73 91.763 33.5049 91.4888 33.3026L89.3489 31.7232L90.3023 31.5547L86.7475 36.3713L85.5625 35.4968L89.4209 30.2689L92.2718 32.373Z" fill="white"/>
<path d="M98.2202 46.4308L99.2778 45.8721L101.382 49.8549L100.325 50.4136L98.2202 46.4308ZM104.265 46.8912L99.9413 52.6157L99.2085 51.2294L103.181 46.1212L103.408 46.5501L96.9496 46.9555L96.2168 45.5691L103.382 45.2214L104.265 46.8912Z" fill="white"/>
<path d="M108.526 60.7365L108.581 62.2083L102.088 62.4512L102.033 60.9794L108.526 60.7365ZM108.721 65.9309L108.775 67.4026L102.282 67.6456L102.227 66.1738L108.721 65.9309ZM105.994 61.6375L106.182 66.6761L104.892 66.7243L104.704 61.6858L105.994 61.6375Z" fill="white"/>
<path d="M104.871 81.4589L104.285 82.8009L98.9336 80.4659L99.5191 79.124L104.871 81.4589ZM106.51 79.3481L103.857 85.4305L102.665 84.9108L105.319 78.8284L106.51 79.3481Z" fill="white"/>
<path d="M92.5299 90.184L96.7681 95.1089L95.678 96.0471L91.9258 91.6868L92.3172 91.4643L92.9004 98.4375L91.4492 99.6864L87.2109 94.7613L88.301 93.8232L92.1041 98.2425L91.7127 98.4649L91.118 91.3989L92.5299 90.184Z" fill="white"/>
<path d="M74.7061 103.816L74.4325 102.795L77.1271 102.072L77.1422 102.096C77.6052 101.971 78.0306 101.941 78.4183 102.005C78.802 102.075 79.1296 102.227 79.4011 102.459C79.6741 102.697 79.8621 103.008 79.9653 103.393C80.0699 103.783 80.0635 104.15 79.946 104.492C79.8284 104.835 79.6212 105.133 79.3242 105.385C79.0232 105.645 78.6411 105.837 78.1781 105.962L74.4961 106.948L72.8145 100.672L74.237 100.291L75.8133 106.174L75.0047 105.7L77.7159 104.973C78.0451 104.885 78.2829 104.735 78.4292 104.522C78.5755 104.31 78.6106 104.061 78.5343 103.776C78.4581 103.492 78.3027 103.292 78.0682 103.175C77.8351 103.064 77.5541 103.053 77.2249 103.141L74.7061 103.816ZM75.7939 103.022L77.2914 99.4727L78.9483 99.0287L77.409 102.589L75.7939 103.022Z" fill="white"/>
<path d="M49.5392 105.658C49.0607 105.47 48.6794 105.224 48.3953 104.92C48.1113 104.617 47.937 104.278 47.8724 103.905C47.8023 103.53 47.8454 103.144 48.0015 102.746C48.1577 102.348 48.3889 102.036 48.6952 101.808C48.9941 101.584 49.3521 101.455 49.769 101.42C50.1839 101.391 50.6305 101.47 51.109 101.657L53.7784 102.705L53.3353 103.834L50.7385 102.815C50.4213 102.69 50.1435 102.672 49.9048 102.758C49.6608 102.842 49.486 103.018 49.3806 103.287C49.2729 103.561 49.281 103.809 49.4048 104.032C49.5209 104.258 49.7376 104.432 50.0549 104.557L52.5306 105.528L51.6533 105.938L53.8404 100.366L55.2113 100.904L52.8375 106.952L49.5392 105.658Z" fill="white"/>
<path d="M40.1547 93.6181L39.2784 94.4313L36.2142 91.1289L37.0906 90.3158L40.1547 93.6181ZM34.1973 94.7377L36.8919 88.0892L37.9585 89.2387L35.4427 95.2012L35.1128 94.8456L41.2465 92.7823L42.3131 93.9318L35.4818 96.1222L34.1973 94.7377Z" fill="white"/>
<path d="M28.5254 80.4248L27.6571 77.6102C27.5039 77.1135 27.4563 76.6748 27.5142 76.2944C27.5666 75.9156 27.7107 75.5991 27.9466 75.345C28.177 75.0926 28.4826 74.9077 28.8634 74.7902C29.2442 74.6728 29.6035 74.6617 29.9411 74.757C30.277 74.8468 30.577 75.0353 30.8409 75.3226C31.0975 75.6061 31.2974 75.9796 31.4404 76.4432L32.6431 80.3423L29.2416 80.8657L26.4343 82.2575L24.6953 76.6199L25.8046 76.2777L27.2755 81.0461L26.4307 80.7174L28.8031 79.5323L31.8193 79.0824L31.323 79.8248L30.4292 76.9274C30.3357 76.6238 30.1843 76.4076 29.9753 76.2786C29.7646 76.1442 29.5268 76.1178 29.2619 76.1995C28.997 76.2812 28.8153 76.437 28.717 76.6668C28.6186 76.8966 28.6163 77.1632 28.7099 77.4667L29.527 80.1158L28.5254 80.4248Z" fill="white"/>
<path d="M30.6756 61.6719C30.5629 62.4201 30.3239 63.0558 29.9589 63.579C29.5947 64.0965 29.1405 64.4749 28.5963 64.7141C28.0464 64.9524 27.4373 65.0212 26.7691 64.9205C26.1009 64.8198 25.5421 64.5749 25.0925 64.186C24.6373 63.7961 24.312 63.3003 24.1165 62.6984C23.9219 62.0908 23.8809 61.413 23.9937 60.6648C24.1065 59.9167 24.3449 59.2838 24.7091 58.7663C25.0742 58.2431 25.5317 57.8624 26.0816 57.624C26.6258 57.3847 27.232 57.3155 27.9002 57.4162C28.5684 57.5169 29.1301 57.7622 29.5853 58.1521C30.0348 58.5411 30.3569 59.0394 30.5515 59.647C30.747 60.2488 30.7884 60.9238 30.6756 61.6719ZM29.3821 61.477C29.4526 61.0087 29.4305 60.5936 29.3157 60.2317C29.2017 59.864 29.0043 59.5656 28.7234 59.3364C28.4435 59.1014 28.095 58.9525 27.6781 58.8897C27.2612 58.8268 26.8843 58.8664 26.5475 59.0084C26.2116 59.1447 25.935 59.3717 25.7177 59.6893C25.5013 60.0014 25.3578 60.3915 25.2872 60.8598C25.2175 61.3224 25.2396 61.7375 25.3536 62.1051C25.4676 62.4727 25.6646 62.7741 25.9446 63.009C26.2254 63.2382 26.5743 63.3842 26.9912 63.4471C27.4081 63.5099 27.7845 63.4732 28.1205 63.337C28.4573 63.1949 28.7343 62.9652 28.9516 62.6474C29.1688 62.3297 29.3123 61.9396 29.3821 61.477Z" fill="white"/>
<path d="M31.0677 44.2991L31.8924 43.0894L36.7169 46.3787L35.8921 47.5884L31.0677 44.2991ZM29.0645 46.0685L32.8027 40.5854L33.8764 41.3175L30.1382 46.8004L29.0645 46.0685Z" fill="white"/>
<path d="M40.0605 32.037L40.7152 31.3932L41.6257 32.3932L42.1936 31.1544L43.0048 31.5838L42.3393 32.7729L43.7164 32.9253L43.5618 33.8307L42.2101 33.5682L42.4499 34.9241L41.5421 35.0635L41.4066 33.6901L40.2128 34.3295L39.7969 33.5112L41.0513 32.9581L40.0605 32.037Z" fill="white"/>
</svg>
