<svg xmlns="http://www.w3.org/2000/svg"><symbol id="calendar" viewBox="0 0 20 20" fill="none"><path fill-rule="evenodd" clip-rule="evenodd" d="M13.9334 2.4999C13.9334 2.16853 13.6648 1.8999 13.3334 1.8999C13.002 1.8999 12.7334 2.16853 12.7334 2.4999V3.56657H7.26673V2.4999C7.26673 2.16853 6.9981 1.8999 6.66673 1.8999C6.33536 1.8999 6.06673 2.16853 6.06673 2.4999V3.56657H5.00006C3.74822 3.56657 2.7334 4.58139 2.7334 5.83324V9.16657V15.8332C2.7334 17.0851 3.74822 18.0999 5.00006 18.0999H15.0001C16.2519 18.0999 17.2667 17.0851 17.2667 15.8332V9.16657V5.83324C17.2667 4.58139 16.2519 3.56657 15.0001 3.56657H13.9334V2.4999ZM16.0667 8.56657V5.83324C16.0667 5.24413 15.5892 4.76657 15.0001 4.76657H13.9334V5.83324C13.9334 6.16461 13.6648 6.43324 13.3334 6.43324C13.002 6.43324 12.7334 6.16461 12.7334 5.83324V4.76657H7.26673V5.83324C7.26673 6.16461 6.9981 6.43324 6.66673 6.43324C6.33536 6.43324 6.06673 6.16461 6.06673 5.83324V4.76657H5.00006C4.41096 4.76657 3.9334 5.24413 3.9334 5.83324V8.56657H16.0667ZM3.9334 9.76657H16.0667V15.8332C16.0667 16.4223 15.5892 16.8999 15.0001 16.8999H5.00006C4.41096 16.8999 3.9334 16.4223 3.9334 15.8332V9.76657ZM8.56673 12.4999C8.56673 12.1685 8.83536 11.8999 9.16673 11.8999H10.0001C10.3314 11.8999 10.6001 12.1685 10.6001 12.4999V14.9999C10.6001 15.3313 10.3314 15.5999 10.0001 15.5999C9.66869 15.5999 9.40006 15.3313 9.40006 14.9999V13.0999H9.16673C8.83536 13.0999 8.56673 12.8313 8.56673 12.4999Z" fill="currentColor"/></symbol><symbol id="eye" viewBox="0 0 20 20" fill="none"><path d="M10.0002 11.6668C10.9206 11.6668 11.6668 10.9206 11.6668 10.0002C11.6668 9.07969 10.9206 8.3335 10.0002 8.3335C9.07969 8.3335 8.3335 9.07969 8.3335 10.0002C8.3335 10.9206 9.07969 11.6668 10.0002 11.6668Z" stroke="currentColor" stroke-width="1.2" stroke-linecap="round" stroke-linejoin="round"/><path d="M18.3332 9.99984C16.1107 13.889 13.3332 15.8332 9.99984 15.8332C6.6665 15.8332 3.889 13.889 1.6665 9.99984C3.889 6.11067 6.6665 4.1665 9.99984 4.1665C13.3332 4.1665 16.1107 6.11067 18.3332 9.99984Z" stroke="currentColor" stroke-width="1.2" stroke-linecap="round" stroke-linejoin="round"/></symbol><symbol id="telegram" viewBox="0 0 37 37" fill="none"><path fill-rule="evenodd" clip-rule="evenodd" d="M32.973 3.82347C33.0113 3.85202 33.0478 3.88353 33.0822 3.91792C33.1299 3.9657 33.1721 4.01754 33.2086 4.0725C33.2636 4.15537 33.305 4.24463 33.3327 4.33712C33.3949 4.54473 33.3882 4.76857 33.3127 4.9727L23.2948 32.7147C23.2854 32.7407 23.2749 32.7664 23.2633 32.7916C23.1159 33.1133 22.8792 33.3859 22.5814 33.577C22.2836 33.7681 21.9372 33.8697 21.5834 33.8697C21.2295 33.8697 20.8831 33.7681 20.5853 33.577C20.2932 33.3895 20.0599 33.1237 19.912 32.81L14.6714 22.3287L4.1901 17.0881C3.8764 16.9402 3.61054 16.7069 3.42307 16.4147C3.23196 16.1169 3.13037 15.7705 3.13037 15.4167C3.13037 15.0628 3.23196 14.7164 3.42307 14.4186C3.61418 14.1208 3.88677 13.8842 4.20845 13.7368C4.23365 13.7252 4.25933 13.7147 4.2854 13.7053L32.0103 3.69352C32.3263 3.5701 32.6923 3.61341 32.973 3.82347ZM28.497 7.08864L5.36777 15.4409L15.2191 20.3665L28.497 7.08864ZM16.6334 21.7807L29.9117 8.50235L21.5592 31.6323L16.6334 21.7807Z" fill="currentColor"/></symbol><symbol id="linkedin" viewBox="0 0 50 50" fill="none"><path d="M41,4H9C6.24,4,4,6.24,4,9v32c0,2.76,2.24,5,5,5h32c2.76,0,5-2.24,5-5V9C46,6.24,43.76,4,41,4z M17,20v19h-6V20H17z M11,14.47c0-1.4,1.2-2.47,3-2.47s2.93,1.07,3,2.47c0,1.4-1.12,2.53-3,2.53C12.2,17,11,15.87,11,14.47z M39,39h-6c0,0,0-9.26,0-10 c0-2-1-4-3.5-4.04h-0.08C27,24.96,26,27.02,26,29c0,0.91,0,10,0,10h-6V20h6v2.56c0,0,1.93-2.56,5.81-2.56 c3.97,0,7.19,2.73,7.19,8.26V39z" fill="currentColor"/></symbol><symbol id="twitter" viewBox="0 0 50 50" fill="none"><path d="M 5.9199219 6 L 20.582031 27.375 L 6.2304688 44 L 9.4101562 44 L 21.986328 29.421875 L 31.986328 44 L 44 44 L 28.681641 21.669922 L 42.199219 6 L 39.029297 6 L 27.275391 19.617188 L 17.933594 6 L 5.9199219 6 z M 9.7167969 8 L 16.880859 8 L 40.203125 42 L 33.039062 42 L 9.7167969 8 z" fill="currentColor"/></symbol><symbol id="facebook" viewBox="0 0 50 50" fill="none"><path d="M25,3C12.85,3,3,12.85,3,25c0,11.03,8.125,20.137,18.712,21.728V30.831h-5.443v-5.783h5.443v-3.848 c0-6.371,3.104-9.168,8.399-9.168c2.536,0,3.877,0.188,4.512,0.274v5.048h-3.612c-2.248,0-3.033,2.131-3.033,4.533v3.161h6.588 l-0.894,5.783h-5.694v15.944C38.716,45.318,47,36.137,47,25C47,12.85,37.15,3,25,3z" fill="currentColor"/></symbol><symbol id="whatsapp" viewBox="0 0 50 50" fill="none"><path d="M 25 2 C 12.309534 2 2 12.309534 2 25 C 2 29.079097 3.1186875 32.88588 4.984375 36.208984 L 2.0371094 46.730469 A 1.0001 1.0001 0 0 0 3.2402344 47.970703 L 14.210938 45.251953 C 17.434629 46.972929 21.092591 48 25 48 C 37.690466 48 48 37.690466 48 25 C 48 12.309534 37.690466 2 25 2 z M 25 4 C 36.609534 4 46 13.390466 46 25 C 46 36.609534 36.609534 46 25 46 C 21.278025 46 17.792121 45.029635 14.761719 43.333984 A 1.0001 1.0001 0 0 0 14.033203 43.236328 L 4.4257812 45.617188 L 7.0019531 36.425781 A 1.0001 1.0001 0 0 0 6.9023438 35.646484 C 5.0606869 32.523592 4 28.890107 4 25 C 4 13.390466 13.390466 4 25 4 z M 16.642578 13 C 16.001539 13 15.086045 13.23849 14.333984 14.048828 C 13.882268 14.535548 12 16.369511 12 19.59375 C 12 22.955271 14.331391 25.855848 14.613281 26.228516 L 14.615234 26.228516 L 14.615234 26.230469 C 14.588494 26.195329 14.973031 26.752191 15.486328 27.419922 C 15.999626 28.087653 16.717405 28.96464 17.619141 29.914062 C 19.422612 31.812909 21.958282 34.007419 25.105469 35.349609 C 26.554789 35.966779 27.698179 36.339417 28.564453 36.611328 C 30.169845 37.115426 31.632073 37.038799 32.730469 36.876953 C 33.55263 36.755876 34.456878 36.361114 35.351562 35.794922 C 36.246248 35.22873 37.12309 34.524722 37.509766 33.455078 C 37.786772 32.688244 37.927591 31.979598 37.978516 31.396484 C 38.003976 31.104927 38.007211 30.847602 37.988281 30.609375 C 37.969311 30.371148 37.989581 30.188664 37.767578 29.824219 C 37.302009 29.059804 36.774753 29.039853 36.224609 28.767578 C 35.918939 28.616297 35.048661 28.191329 34.175781 27.775391 C 33.303883 27.35992 32.54892 26.991953 32.083984 26.826172 C 31.790239 26.720488 31.431556 26.568352 30.914062 26.626953 C 30.396569 26.685553 29.88546 27.058933 29.587891 27.5 C 29.305837 27.918069 28.170387 29.258349 27.824219 29.652344 C 27.819619 29.649544 27.849659 29.663383 27.712891 29.595703 C 27.284761 29.383815 26.761157 29.203652 25.986328 28.794922 C 25.2115 28.386192 24.242255 27.782635 23.181641 26.847656 L 23.181641 26.845703 C 21.603029 25.455949 20.497272 23.711106 20.148438 23.125 C 20.171937 23.09704 20.145643 23.130901 20.195312 23.082031 L 20.197266 23.080078 C 20.553781 22.728924 20.869739 22.309521 21.136719 22.001953 C 21.515257 21.565866 21.68231 21.181437 21.863281 20.822266 C 22.223954 20.10644 22.02313 19.318742 21.814453 18.904297 L 21.814453 18.902344 C 21.828863 18.931014 21.701572 18.650157 21.564453 18.326172 C 21.426943 18.001263 21.251663 17.580039 21.064453 17.130859 C 20.690033 16.232501 20.272027 15.224912 20.023438 14.634766 L 20.023438 14.632812 C 19.730591 13.937684 19.334395 13.436908 18.816406 13.195312 C 18.298417 12.953717 17.840778 13.022402 17.822266 13.021484 L 17.820312 13.021484 C 17.450668 13.004432 17.045038 13 16.642578 13 z M 16.642578 15 C 17.028118 15 17.408214 15.004701 17.726562 15.019531 C 18.054056 15.035851 18.033687 15.037192 17.970703 15.007812 C 17.906713 14.977972 17.993533 14.968282 18.179688 15.410156 C 18.423098 15.98801 18.84317 16.999249 19.21875 17.900391 C 19.40654 18.350961 19.582292 18.773816 19.722656 19.105469 C 19.863021 19.437122 19.939077 19.622295 20.027344 19.798828 L 20.027344 19.800781 L 20.029297 19.802734 C 20.115837 19.973483 20.108185 19.864164 20.078125 19.923828 C 19.867096 20.342656 19.838461 20.445493 19.625 20.691406 C 19.29998 21.065838 18.968453 21.483404 18.792969 21.65625 C 18.639439 21.80707 18.36242 22.042032 18.189453 22.501953 C 18.016221 22.962578 18.097073 23.59457 18.375 24.066406 C 18.745032 24.6946 19.964406 26.679307 21.859375 28.347656 C 23.05276 29.399678 24.164563 30.095933 25.052734 30.564453 C 25.940906 31.032973 26.664301 31.306607 26.826172 31.386719 C 27.210549 31.576953 27.630655 31.72467 28.119141 31.666016 C 28.607627 31.607366 29.02878 31.310979 29.296875 31.007812 L 29.298828 31.005859 C 29.655629 30.601347 30.715848 29.390728 31.224609 28.644531 C 31.246169 28.652131 31.239109 28.646231 31.408203 28.707031 L 31.408203 28.708984 L 31.410156 28.708984 C 31.487356 28.736474 32.454286 29.169267 33.316406 29.580078 C 34.178526 29.990889 35.053561 30.417875 35.337891 30.558594 C 35.748225 30.761674 35.942113 30.893881 35.992188 30.894531 C 35.995572 30.982516 35.998992 31.07786 35.986328 31.222656 C 35.951258 31.624292 35.8439 32.180225 35.628906 32.775391 C 35.523582 33.066746 34.975018 33.667661 34.283203 34.105469 C 33.591388 34.543277 32.749338 34.852514 32.4375 34.898438 C 31.499896 35.036591 30.386672 35.087027 29.164062 34.703125 C 28.316336 34.437036 27.259305 34.092596 25.890625 33.509766 C 23.114812 32.325956 20.755591 30.311513 19.070312 28.537109 C 18.227674 27.649908 17.552562 26.824019 17.072266 26.199219 C 16.592866 25.575584 16.383528 25.251054 16.208984 25.021484 L 16.207031 25.019531 C 15.897202 24.609805 14 21.970851 14 19.59375 C 14 17.077989 15.168497 16.091436 15.800781 15.410156 C 16.132721 15.052495 16.495617 15 16.642578 15 z" fill="currentColor"/></symbol><symbol id="reddit" viewBox="0 0 50 50" fill="none"><path d="M 29 3 C 26.894531 3 24.433594 4.652344 24.0625 12.03125 C 24.375 12.023438 24.683594 12 25 12 C 25.351563 12 25.714844 12.019531 26.0625 12.03125 C 26.300781 7.597656 27.355469 5 29 5 C 29.703125 5 30.101563 5.382813 30.84375 6.1875 C 31.710938 7.128906 32.84375 8.351563 35.0625 8.8125 C 35.027344 8.550781 35 8.269531 35 8 C 35 7.578125 35.042969 7.179688 35.125 6.78125 C 33.75 6.40625 33.023438 5.613281 32.3125 4.84375 C 31.519531 3.984375 30.609375 3 29 3 Z M 41 4 C 38.792969 4 37 5.796875 37 8 C 37 10.203125 38.792969 12 41 12 C 43.207031 12 45 10.203125 45 8 C 45 5.796875 43.207031 4 41 4 Z M 25 14 C 12.867188 14 3 20.179688 3 29 C 3 37.820313 12.867188 45 25 45 C 37.132813 45 47 37.820313 47 29 C 47 20.179688 37.132813 14 25 14 Z M 7.5 14.9375 C 6.039063 14.9375 4.652344 15.535156 3.59375 16.59375 C 1.871094 18.316406 1.515625 20.792969 2.5 22.84375 C 4.011719 19.917969 6.613281 17.421875 9.96875 15.5625 C 9.207031 15.175781 8.363281 14.9375 7.5 14.9375 Z M 42.5 14.9375 C 41.636719 14.9375 40.792969 15.175781 40.03125 15.5625 C 43.386719 17.421875 45.988281 19.917969 47.5 22.84375 C 48.484375 20.792969 48.128906 18.316406 46.40625 16.59375 C 45.347656 15.535156 43.960938 14.9375 42.5 14.9375 Z M 17 23 C 18.65625 23 20 24.34375 20 26 C 20 27.65625 18.65625 29 17 29 C 15.34375 29 14 27.65625 14 26 C 14 24.34375 15.34375 23 17 23 Z M 33 23 C 34.65625 23 36 24.34375 36 26 C 36 27.65625 34.65625 29 33 29 C 31.34375 29 30 27.65625 30 26 C 30 24.34375 31.34375 23 33 23 Z M 16.0625 34 C 16.3125 34.042969 16.558594 34.183594 16.71875 34.40625 C 16.824219 34.554688 19.167969 37.6875 25 37.6875 C 30.910156 37.6875 33.257813 34.46875 33.28125 34.4375 C 33.597656 33.988281 34.234375 33.867188 34.6875 34.1875 C 35.136719 34.503906 35.222656 35.109375 34.90625 35.5625 C 34.789063 35.730469 31.9375 39.6875 25 39.6875 C 18.058594 39.6875 15.210938 35.730469 15.09375 35.5625 C 14.777344 35.109375 14.859375 34.503906 15.3125 34.1875 C 15.539063 34.027344 15.8125 33.957031 16.0625 34 Z" fill="currentColor"/></symbol></svg>