<svg width="203" height="50" viewBox="0 0 203 50" fill="none" xmlns="http://www.w3.org/2000/svg"><g clip-path="url(#clip0_2353_186)"><path d="M25.093 20.8024L36.5058 32.2152L47.9186 20.8024L44.9143 17.7937L36.5058 26.2022L31.106 20.8024L39.5145 12.394L28.1017 0.981201L25.093 3.9899L33.5015 12.394L25.093 20.8024Z" fill="white"/><path d="M33.5016 20.8024L36.5058 23.8067L47.9186 12.394L36.5058 0.981201L33.5016 3.9899L41.9056 12.394L33.5016 20.8024Z" fill="white"/><path d="M11.4128 15.5218L19.8212 23.9259L31.234 12.5131L19.8212 1.10034L16.8125 4.10904L25.221 12.5131L19.8212 17.9129L11.4128 9.50441L0 20.9216L3.0087 23.9259L11.4128 15.5218Z" fill="white"/><path d="M11.4128 7.11333L19.8212 15.5218L22.8255 12.5131L11.4128 1.10034L0 12.5131L3.0087 15.5218L11.4128 7.11333Z" fill="white"/><path d="M22.9447 29.2021L11.5319 17.7893L0.119141 29.2021L3.12784 32.2064L11.5319 23.8023L16.9317 29.2021L8.52321 37.6061L19.9404 49.0189L22.9447 46.0146L14.5406 37.6061L22.9447 29.2021Z" fill="white"/><path d="M14.5406 29.2021L11.5319 26.1934L0.119141 37.6061L11.5319 49.0189L14.5406 46.0146L6.13213 37.6061L14.5406 29.2021Z" fill="white"/><path d="M28.2208 32.0872L36.6248 40.4957L48.0376 29.0829L45.0333 26.0742L36.6248 34.4827L28.2208 26.0742L16.808 37.487L28.2208 48.8998L31.2251 45.8955L22.821 37.487L28.2208 32.0872Z" fill="white"/><path d="M36.625 42.887L28.2209 34.4829L25.2122 37.4872L36.625 48.9L48.0377 37.4872L45.0334 34.4829L36.625 42.887Z" fill="white"/></g><path d="M76.3674 16.0182H79.9323V31.3586H76.7087V22.5791L73.2765 31.3586H70.7356L67.3034 22.5602V31.3586H64.0798V16.0182H67.6258L72.006 28.0971L76.3674 16.0182ZM82.0695 16.0182H93.0297V19.0901H85.3879V21.8206L91.7592 21.8585V24.9115L85.3879 24.8925V28.3057H93.0297V31.3586H82.0695V16.0182ZM93.9901 16.0182H108.079V19.0901H102.732V31.3586H99.3375V19.0901H93.9901V16.0182ZM118.234 31.3586L117.039 28.1919H111.388L110.194 31.3586H106.97L112.602 16.0182H116.167L121.457 31.3586H118.234ZM112.45 25.3666H115.977L114.214 20.7018L112.45 25.3666ZM125.757 16.3026H135.732V31.6431H132.375V19.3745H128.583C128.583 19.3745 128.64 24.5512 128.014 27.2818C127.047 31.4914 126.459 31.6431 121.794 31.6431V28.6091C124.108 28.6091 124.79 28.5712 125.189 26.1819C125.644 23.3186 125.663 17.8006 125.757 16.3026ZM140.895 16.3026H150.87V31.6431H147.513V19.3745H143.721C143.721 19.3745 143.778 24.5512 143.152 27.2818C142.185 31.4914 141.597 31.6431 136.932 31.6431V28.6091C139.246 28.6091 139.928 28.5712 140.326 26.1819C140.782 23.3186 140.801 17.8006 140.895 16.3026ZM159.935 16.0182H172.886V31.3586H169.473V19.0901H163.329V31.3586H159.935V16.0182ZM182.128 16.0182C185.446 16.0182 187.172 18.5591 187.172 20.9673C187.172 24.134 184.782 25.8596 182.26 25.8596H178.43V31.3586H175.036V16.0182H177.292H182.128ZM182.052 22.8825C183.284 22.8825 184.195 22.143 184.195 20.9673C184.195 19.7917 183.227 18.9952 182.052 18.9952H178.43V22.8825H182.052ZM195.351 15.6958C199.541 15.6958 202.67 18.6539 202.67 23.6789C202.67 28.9315 199.352 31.6431 195.351 31.6431C191.35 31.6431 188.05 28.9125 188.05 23.6789C188.05 18.5591 191.35 15.6958 195.351 15.6958ZM195.351 28.4764C197.645 28.4764 199.352 26.9784 199.352 23.6789C199.352 20.3985 197.626 18.8815 195.351 18.8815C193.094 18.8815 191.35 20.3985 191.35 23.6789C191.35 26.9784 193.075 28.4764 195.351 28.4764Z" fill="white"/><defs><clipPath id="clip0_2353_186"><rect width="48.0377" height="48.0377" fill="white" transform="translate(0 0.981201)"/></clipPath></defs></svg>