<svg width="161" height="38" viewBox="0 0 161 38" fill="none" xmlns="http://www.w3.org/2000/svg"><g clip-path="url(#clip0_2353_375)"><path d="M19.8498 15.6795L28.8778 24.7075L37.9058 15.6795L35.5293 13.2995L28.8778 19.951L24.6063 15.6795L31.2578 9.02801L22.2298 0L19.8498 2.38002L26.5012 9.02801L19.8498 15.6795Z" fill="#373737"/><path d="M26.5013 15.6795L28.8778 18.056L37.9058 9.02801L28.8778 0L26.5013 2.38002L33.1492 9.02801L26.5013 15.6795Z" fill="#373737"/><path d="M9.02801 11.5023L15.6795 18.1503L24.7075 9.12225L15.6795 0.0942383L13.2995 2.47425L19.951 9.12225L15.6795 13.3937L9.02801 6.74223L0 15.7737L2.38002 18.1503L9.02801 11.5023Z" fill="#373737"/><path d="M9.02801 4.85078L15.6795 11.5023L18.056 9.12225L9.02801 0.0942383L0 9.12225L2.38002 11.5023L9.02801 4.85078Z" fill="#373737"/><path d="M18.1503 22.324L9.12225 13.296L0.0942383 22.324L2.47425 24.7006L9.12225 18.0526L13.3937 22.324L6.74223 28.972L15.7737 38L18.1503 35.6235L11.5023 28.972L18.1503 22.324Z" fill="#373737"/><path d="M11.5023 22.324L9.12225 19.944L0.0942383 28.972L9.12225 38L11.5023 35.6235L4.85078 28.972L11.5023 22.324Z" fill="#373737"/><path d="M22.324 24.6063L28.972 31.2578L38 22.2297L35.6235 19.8497L28.972 26.5012L22.324 19.8497L13.296 28.8777L22.324 37.9058L24.7005 35.5292L18.0525 28.8777L22.324 24.6063Z" fill="#373737"/><path d="M28.972 33.1492L22.324 26.5012L19.944 28.8777L28.972 37.9058L38 28.8777L35.6235 26.5012L28.972 33.1492Z" fill="#373737"/></g><path d="M60.41 11.865H63.23V24H60.68V17.055L57.965 24H55.955L53.24 17.04V24H50.69V11.865H53.495L56.96 21.42L60.41 11.865ZM64.9207 11.865H73.5907V14.295H67.5457V16.455L72.5857 16.485V18.9L67.5457 18.885V21.585H73.5907V24H64.9207V11.865ZM74.3504 11.865H85.4954V14.295H81.2654V24H78.5804V14.295H74.3504V11.865ZM93.5282 24L92.5832 21.495H88.1132L87.1682 24H84.6182L89.0732 11.865H91.8932L96.0782 24H93.5282ZM88.9532 19.26H91.7432L90.3482 15.57L88.9532 19.26ZM99.4797 12.09H107.37V24.225H104.715V14.52H101.715C101.715 14.52 101.76 18.615 101.265 20.775C100.5 24.105 100.035 24.225 96.3447 24.225V21.825C98.1747 21.825 98.7147 21.795 99.0297 19.905C99.3897 17.64 99.4047 13.275 99.4797 12.09ZM111.455 12.09H119.345V24.225H116.69V14.52H113.69C113.69 14.52 113.735 18.615 113.24 20.775C112.475 24.105 112.01 24.225 108.32 24.225V21.825C110.15 21.825 110.69 21.795 111.005 19.905C111.365 17.64 111.38 13.275 111.455 12.09ZM126.516 11.865H136.761V24H134.061V14.295H129.201V24H126.516V11.865ZM144.071 11.865C146.696 11.865 148.061 13.875 148.061 15.78C148.061 18.285 146.171 19.65 144.176 19.65H141.146V24H138.461V11.865H140.246H144.071ZM144.011 17.295C144.986 17.295 145.706 16.71 145.706 15.78C145.706 14.85 144.941 14.22 144.011 14.22H141.146V17.295H144.011ZM154.531 11.61C157.846 11.61 160.321 13.95 160.321 17.925C160.321 22.08 157.696 24.225 154.531 24.225C151.366 24.225 148.756 22.065 148.756 17.925C148.756 13.875 151.366 11.61 154.531 11.61ZM154.531 21.72C156.346 21.72 157.696 20.535 157.696 17.925C157.696 15.33 156.331 14.13 154.531 14.13C152.746 14.13 151.366 15.33 151.366 17.925C151.366 20.535 152.731 21.72 154.531 21.72Z" fill="#373737"/><defs><clipPath id="clip0_2353_375"><rect width="38" height="38" fill="white"/></clipPath></defs></svg>