<svg width="94" height="94" viewBox="0 0 94 94" fill="none" xmlns="http://www.w3.org/2000/svg">
<g clip-path="url(#clip0_163_2584)">
<path d="M90.6032 38.8499C89.5802 38.2914 88.4229 38.0258 87.2587 38.0823C86.0945 38.1388 84.9684 38.5152 84.0042 39.1701L62.7073 53.3685C62.2049 51.9398 61.2724 50.7016 60.0379 49.8243C58.8034 48.9469 57.3275 48.4734 55.813 48.4688H24.9692C24.5797 48.4688 24.2062 48.6236 23.9308 48.8991L14.688 58.1419L12.7889 56.2428C12.5134 55.9675 12.1399 55.8128 11.7505 55.8128C11.361 55.8128 10.9875 55.9675 10.7121 56.2428L3.36831 63.5866C3.09297 63.862 2.93828 64.2355 2.93828 64.625C2.93828 65.0145 3.09297 65.388 3.36831 65.6634L5.26741 67.5625L0.430814 72.3991C0.290533 72.5346 0.178641 72.6966 0.101665 72.8758C0.0246893 73.055 -0.015828 73.2478 -0.0175227 73.4428C-0.0192173 73.6378 0.0179445 73.8312 0.0917946 74.0117C0.165645 74.1922 0.274704 74.3562 0.412609 74.4941C0.550514 74.632 0.714502 74.7411 0.895006 74.8149C1.07551 74.8888 1.26891 74.9259 1.46393 74.9242C1.65895 74.9225 1.85168 74.882 2.03088 74.8051C2.21007 74.7281 2.37214 74.6162 2.50763 74.4759L7.34422 69.6393L24.3612 86.6562L19.5246 91.4928C19.3843 91.6283 19.2724 91.7904 19.1954 91.9696C19.1184 92.1488 19.0779 92.3415 19.0762 92.5365C19.0745 92.7316 19.1117 92.925 19.1855 93.1055C19.2594 93.286 19.3685 93.45 19.5064 93.5879C19.6443 93.7258 19.8083 93.8348 19.9888 93.9087C20.1693 93.9825 20.3627 94.0197 20.5577 94.018C20.7527 94.0163 20.9454 93.9758 21.1246 93.8988C21.3038 93.8218 21.4659 93.7099 21.6014 93.5697L26.438 88.7331L28.3371 90.6322C28.6125 90.9075 28.986 91.0622 29.3755 91.0622C29.7649 91.0622 30.1384 90.9075 30.4139 90.6322L37.7576 83.2884C38.033 83.013 38.1877 82.6395 38.1877 82.25C38.1877 81.8605 38.033 81.487 37.7576 81.2116L35.8585 79.3125L40.2648 74.9062H57.2817C57.5996 74.9066 57.9089 74.8035 58.163 74.6125L91.4302 49.6628C92.2265 49.062 92.873 48.285 93.3189 47.3927C93.7648 46.5003 93.9981 45.5168 94.0005 44.5193C94.0106 43.3532 93.6988 42.207 93.0994 41.2067C92.5 40.2064 91.6363 39.3909 90.6032 38.8499ZM29.3755 87.5169L6.48353 64.625L11.7505 59.3581L34.6424 82.25L29.3755 87.5169ZM89.6677 47.3128L56.7926 71.9688H39.6567C39.2672 71.9688 38.8937 72.1236 38.6183 72.3991L33.7817 77.2357L16.7648 60.2188L25.5773 51.4062H55.813C56.9816 51.4062 58.1023 51.8705 58.9287 52.6968C59.755 53.5231 60.2192 54.6439 60.2192 55.8125C60.2192 56.9811 59.755 58.1019 58.9287 58.9282C58.1023 59.7545 56.9816 60.2188 55.813 60.2188H36.7192C36.3297 60.2188 35.9561 60.3735 35.6807 60.6489C35.4052 60.9244 35.2505 61.298 35.2505 61.6875C35.2505 62.077 35.4052 62.4506 35.6807 62.7261C35.9561 63.0015 36.3297 63.1562 36.7192 63.1562H55.813C57.6093 63.1505 59.3409 62.4852 60.679 61.2868C62.0171 60.0884 62.8685 58.4404 63.0715 56.6556L85.6345 41.6141C86.1603 41.2634 86.7714 41.062 87.4027 41.0314C88.034 41.0008 88.6618 41.1421 89.2191 41.4404C89.7764 41.7386 90.2422 42.1825 90.5669 42.7248C90.8917 43.267 91.0631 43.8872 91.063 44.5193C91.0616 45.061 90.935 45.5951 90.6929 46.0797C90.4508 46.5643 90.0999 46.9864 89.6677 47.3128ZM31.0498 45.5312C31.3009 45.5311 31.5478 45.4666 31.7669 45.3439C31.986 45.2212 32.1699 45.0444 32.3012 44.8303C32.4324 44.6162 32.5066 44.3721 32.5167 44.1212C32.5267 43.8703 32.4723 43.621 32.3585 43.3972C30.3823 39.5086 29.3598 35.2056 29.3755 30.8438C29.3755 23.4426 32.3156 16.3445 37.549 11.1111C42.7825 5.87761 49.8805 2.9375 57.2817 2.9375C64.6829 2.9375 71.781 5.87761 77.0144 11.1111C82.2479 16.3445 85.188 23.4426 85.188 30.8438C85.191 31.7581 85.1449 32.672 85.0499 33.5815C85.0086 33.9689 85.1229 34.3568 85.3676 34.66C85.6124 34.9631 85.9675 35.1566 86.3549 35.1979C86.5467 35.2183 86.7407 35.2008 86.9257 35.1463C87.1108 35.0917 87.2832 35.0013 87.4333 34.8801C87.7365 34.6354 87.93 34.2803 87.9713 33.8929C88.0774 32.88 88.1289 31.8622 88.1255 30.8438C88.1255 22.6635 84.8759 14.8182 79.0915 9.03393C73.3072 3.2496 65.462 0 57.2817 0C49.1014 0 41.2562 3.2496 35.4719 9.03393C29.6876 14.8182 26.438 22.6635 26.438 30.8438C26.4208 35.6683 27.5526 40.4275 29.7397 44.7278C29.8625 44.9701 30.0501 45.1735 30.2817 45.3154C30.5133 45.4573 30.7797 45.532 31.0513 45.5312H31.0498Z" fill="white"/>
<path d="M79.7575 37.8965C80.1362 37.9886 80.5359 37.9266 80.8688 37.7242C81.2018 37.5218 81.4408 37.1955 81.5333 36.8169C82.3769 33.3867 82.4832 29.8165 81.8451 26.3421C81.207 22.8677 79.839 19.5683 77.8315 16.6617C75.824 13.7551 73.2227 11.3075 70.1993 9.48051C67.176 7.65355 63.7994 6.48881 60.2927 6.06324C56.7859 5.63766 53.2288 5.96092 49.8562 7.01168C46.4836 8.06244 43.3724 9.81678 40.7279 12.1588C38.0834 14.5009 35.9659 17.3773 34.5153 20.5982C33.0647 23.8191 32.3139 27.3111 32.3125 30.8435C32.3067 35.85 33.8072 40.7424 36.6189 44.8848C36.7242 45.0505 36.8618 45.1935 37.0233 45.3052C37.1849 45.4169 37.3672 45.495 37.5595 45.535C37.7518 45.575 37.9502 45.576 38.1429 45.538C38.3356 45.5 38.5187 45.4237 38.6814 45.3137C38.8441 45.2036 38.983 45.0621 39.0901 44.8974C39.1971 44.7327 39.27 44.5482 39.3045 44.3549C39.3389 44.1615 39.3343 43.9632 39.2908 43.7717C39.2473 43.5801 39.1658 43.3993 39.0511 43.2398C37.1124 40.3881 35.8699 37.1212 35.4236 33.7018C34.9773 30.2825 35.3397 26.8061 36.4816 23.5523C37.6235 20.2986 39.513 17.3582 41.9983 14.9676C44.4835 12.5771 47.495 10.8031 50.7907 9.78837C54.0864 8.77366 57.5742 8.54651 60.9736 9.1252C64.373 9.70389 67.5892 11.0723 70.3635 13.1203C73.1378 15.1683 75.3928 17.8388 76.9471 20.917C78.5013 23.9952 79.3115 27.3952 79.3125 30.8435C79.3119 32.6216 79.0989 34.3932 78.678 36.1207C78.6322 36.3082 78.6238 36.5029 78.6533 36.6936C78.6827 36.8844 78.7495 37.0674 78.8498 37.2323C78.95 37.3972 79.0818 37.5408 79.2376 37.6547C79.3933 37.7687 79.57 37.8508 79.7575 37.8965Z" fill="white"/>
<path d="M57.2812 16.1562C57.6708 16.1562 58.0444 16.0015 58.3198 15.7261C58.5953 15.4506 58.75 15.077 58.75 14.6875V13.2188C58.75 12.8292 58.5953 12.4556 58.3198 12.1802C58.0444 11.9047 57.6708 11.75 57.2812 11.75C56.8917 11.75 56.5181 11.9047 56.2427 12.1802C55.9672 12.4556 55.8125 12.8292 55.8125 13.2188V14.6875C55.8125 15.077 55.9672 15.4506 56.2427 15.7261C56.5181 16.0015 56.8917 16.1562 57.2812 16.1562ZM47.7344 14.3086C47.397 14.5033 47.1509 14.8241 47.0501 15.2004C46.9493 15.5766 47.0021 15.9775 47.1968 16.3149L47.9312 17.5868C48.1273 17.9214 48.4479 18.1648 48.8228 18.264C49.1978 18.3631 49.5968 18.3099 49.9326 18.116C50.2685 17.922 50.5141 17.6031 50.6157 17.2288C50.7173 16.8545 50.6668 16.4552 50.4751 16.1181L49.7407 14.8461C49.5459 14.5088 49.2251 14.2626 48.8489 14.1618C48.4726 14.061 48.0717 14.1138 47.7344 14.3086ZM44.0243 21.4937L42.7509 20.7593C42.5838 20.6614 42.399 20.5974 42.2071 20.5712C42.0152 20.5449 41.8199 20.5569 41.6327 20.6064C41.4454 20.6559 41.2698 20.742 41.1159 20.8596C40.9621 20.9773 40.833 21.1242 40.7361 21.292C40.6393 21.4597 40.5766 21.645 40.5516 21.8371C40.5266 22.0291 40.5399 22.2243 40.5907 22.4112C40.6414 22.5981 40.7286 22.7732 40.8473 22.9263C40.966 23.0794 41.1138 23.2075 41.2822 23.3032L42.5556 24.0376C42.7227 24.1355 42.9075 24.1995 43.0994 24.2257C43.2913 24.2519 43.4865 24.24 43.6738 24.1905C43.8611 24.1409 44.0367 24.0549 44.1905 23.9372C44.3444 23.8196 44.4735 23.6726 44.5703 23.5049C44.6672 23.3371 44.7299 23.1519 44.7549 22.9598C44.7798 22.7677 44.7666 22.5726 44.7158 22.3857C44.6651 22.1987 44.5778 22.0237 44.4592 21.8706C44.3405 21.7175 44.1927 21.5894 44.0243 21.4937ZM42.5938 30.8438C42.5938 30.4542 42.439 30.0806 42.1636 29.8052C41.8881 29.5297 41.5145 29.375 41.125 29.375H39.6562C39.2667 29.375 38.8931 29.5297 38.6177 29.8052C38.3422 30.0806 38.1875 30.4542 38.1875 30.8438C38.1875 31.2333 38.3422 31.6069 38.6177 31.8823C38.8931 32.1578 39.2667 32.3125 39.6562 32.3125H41.125C41.5145 32.3125 41.8881 32.1578 42.1636 31.8823C42.439 31.6069 42.5938 31.2333 42.5938 30.8438ZM42.018 41.125C42.2759 41.1254 42.5293 41.0575 42.7524 40.9282L44.0243 40.1938C44.1927 40.0981 44.3405 39.97 44.4592 39.8169C44.5778 39.6638 44.6651 39.4888 44.7158 39.3018C44.7666 39.1149 44.7798 38.9198 44.7549 38.7277C44.7299 38.5356 44.6672 38.3504 44.5703 38.1826C44.4735 38.0149 44.3444 37.8679 44.1905 37.7503C44.0367 37.6326 43.8611 37.5466 43.6738 37.497C43.4865 37.4475 43.2913 37.4356 43.0994 37.4618C42.9075 37.488 42.7227 37.552 42.5556 37.6499L41.2822 38.3843C41.0021 38.546 40.7832 38.7957 40.6595 39.0946C40.5358 39.3934 40.5142 39.7247 40.5981 40.0371C40.682 40.3495 40.8666 40.6254 41.1233 40.8221C41.3801 41.0189 41.6946 41.1253 42.018 41.125ZM64.8218 46.8414C64.9508 47.0649 65.1365 47.2504 65.36 47.3793C65.5836 47.5083 65.8372 47.576 66.0952 47.5757C66.3529 47.5755 66.606 47.5074 66.8291 47.3784C67.0521 47.2494 67.2373 47.064 67.3661 46.8407C67.4948 46.6175 67.5625 46.3643 67.5625 46.1066C67.5624 45.8489 67.4945 45.5958 67.3657 45.3726L66.6313 44.1007C66.4352 43.7661 66.1146 43.5227 65.7397 43.4235C65.3647 43.3244 64.9657 43.3776 64.6299 43.5715C64.294 43.7655 64.0484 44.0844 63.9468 44.4587C63.8452 44.833 63.8957 45.2323 64.0874 45.5694L64.8218 46.8414ZM70.5382 40.1938L71.8116 40.9282C72.1488 41.1199 72.5481 41.1704 72.9224 41.0688C73.2967 40.9672 73.6156 40.7217 73.8095 40.3858C74.0034 40.0499 74.0566 39.6509 73.9575 39.276C73.8584 38.901 73.6149 38.5805 73.2803 38.3843L72.0069 37.6499C71.8398 37.552 71.655 37.488 71.4631 37.4618C71.2712 37.4356 71.076 37.4475 70.8887 37.497C70.7014 37.5466 70.5258 37.6326 70.372 37.7503C70.2181 37.8679 70.089 38.0149 69.9922 38.1826C69.8953 38.3504 69.8326 38.5356 69.8076 38.7277C69.7827 38.9198 69.7959 39.1149 69.8467 39.3018C69.8974 39.4888 69.9847 39.6638 70.1033 39.8169C70.222 39.97 70.3698 40.0981 70.5382 40.1938ZM76.375 30.8438C76.375 30.4542 76.2203 30.0806 75.9448 29.8052C75.6694 29.5297 75.2958 29.375 74.9062 29.375H73.4375C73.048 29.375 72.6744 29.5297 72.3989 29.8052C72.1235 30.0806 71.9688 30.4542 71.9688 30.8438C71.9688 31.2333 72.1235 31.6069 72.3989 31.8823C72.6744 32.1578 73.048 32.3125 73.4375 32.3125H74.9062C75.2958 32.3125 75.6694 32.1578 75.9448 31.8823C76.2203 31.6069 76.375 31.2333 76.375 30.8438ZM71.274 24.2344C71.5319 24.2348 71.7853 24.1669 72.0084 24.0376L73.2803 23.3032C73.4487 23.2075 73.5965 23.0794 73.7152 22.9263C73.8339 22.7732 73.9211 22.5981 73.9718 22.4112C74.0226 22.2243 74.0359 22.0291 74.0109 21.8371C73.9859 21.645 73.9232 21.4597 73.8264 21.292C73.7295 21.1242 73.6004 20.9773 73.4466 20.8596C73.2927 20.742 73.1171 20.6559 72.9298 20.6064C72.7426 20.5569 72.5473 20.5449 72.3554 20.5712C72.1635 20.5974 71.9787 20.6614 71.8116 20.7593L70.5382 21.4937C70.2581 21.6554 70.0392 21.9051 69.9155 22.2039C69.7918 22.5028 69.7702 22.8341 69.8541 23.1465C69.938 23.4589 70.1226 23.7348 70.3794 23.9315C70.6361 24.1282 70.9506 24.2347 71.274 24.2344ZM66.8281 14.3086C66.6611 14.2119 66.4767 14.1492 66.2855 14.1239C66.0942 14.0986 65.8998 14.1113 65.7135 14.1612C65.5271 14.2112 65.3524 14.2974 65.1994 14.4149C65.0464 14.5324 64.9181 14.679 64.8218 14.8461L64.0874 16.1181C63.8957 16.4552 63.8452 16.8545 63.9468 17.2288C64.0484 17.6031 64.294 17.922 64.6299 18.116C64.9657 18.3099 65.3647 18.3631 65.7397 18.264C66.1146 18.1648 66.4352 17.9214 66.6313 17.5868L67.3657 16.3149C67.5604 15.9775 67.6132 15.5766 67.5124 15.2004C67.4116 14.8241 67.1655 14.5033 66.8281 14.3086ZM55.8125 30.8438C55.8125 31.2333 55.9672 31.6069 56.2427 31.8823C56.5181 32.1578 56.8917 32.3125 57.2812 32.3125H64.625C65.0145 32.3125 65.3881 32.1578 65.6636 31.8823C65.939 31.6069 66.0938 31.2333 66.0938 30.8438C66.0938 30.4542 65.939 30.0806 65.6636 29.8052C65.3881 29.5297 65.0145 29.375 64.625 29.375H58.75V20.5625C58.75 20.173 58.5953 19.7994 58.3198 19.5239C58.0444 19.2485 57.6708 19.0938 57.2812 19.0938C56.8917 19.0938 56.5181 19.2485 56.2427 19.5239C55.9672 19.7994 55.8125 20.173 55.8125 20.5625V30.8438Z" fill="white"/>
</g>
<defs>
<clipPath id="clip0_163_2584">
<rect width="94" height="94" fill="white"/>
</clipPath>
</defs>
</svg>
