<svg width="921" height="49" viewBox="0 0 921 49" fill="none" xmlns="http://www.w3.org/2000/svg">
<path d="M473.682 24.1924L447 48.5218L458.956 48.4958L486.057 24.1663L473.682 24.1924Z" fill="#E6FC97"/>
<path d="M496.644 24.1924L469.962 48.5218L481.918 48.4958L509.019 24.1663L496.644 24.1924Z" fill="#E6FC97"/>
<path d="M518.378 24.1924L491.696 48.5218L503.651 48.4958L530.753 24.1663L518.378 24.1924Z" fill="#E6FC97"/>
<path d="M540.112 24.1924L513.429 48.5218L525.385 48.4958L552.486 24.1663L540.112 24.1924Z" fill="#E6FC97"/>
<path d="M562.931 24.1924L536.249 48.5218L548.204 48.4958L575.306 24.1663L562.931 24.1924Z" fill="#E6FC97"/>
<path d="M584.663 24.1924L557.981 48.5218L569.937 48.4958L597.039 24.1663L584.663 24.1924Z" fill="#E6FC97"/>
<path d="M607.483 24.1924L580.8 48.5218L592.756 48.4958L619.858 24.1663L607.483 24.1924Z" fill="#E6FC97"/>
<path d="M629.216 24.1924L602.533 48.5218L614.489 48.4958L641.591 24.1663L629.216 24.1924Z" fill="#E6FC97"/>
<path d="M650.949 24.1924L624.266 48.5218L636.222 48.4958L663.324 24.1663L650.949 24.1924Z" fill="#E6FC97"/>
<path d="M672.681 24.1924L645.999 48.5218L657.955 48.4958L685.057 24.1663L672.681 24.1924Z" fill="#E6FC97"/>
<path d="M489.038 0.0260601L462.356 24.3554L474.312 24.3294L501.413 0L489.038 0.0260601Z" fill="#E6FC97"/>
<path d="M511.999 0.0260601L485.317 24.3554L497.273 24.3294L524.374 0L511.999 0.0260601Z" fill="#E6FC97"/>
<path d="M533.733 0.0260601L507.051 24.3554L519.006 24.3294L546.108 0L533.733 0.0260601Z" fill="#E6FC97"/>
<path d="M555.467 0.0260601L528.784 24.3554L540.74 24.3294L567.842 0L555.467 0.0260601Z" fill="#E6FC97"/>
<path d="M578.286 0.0260601L551.604 24.3554L563.559 24.3294L590.661 0L578.286 0.0260601Z" fill="#E6FC97"/>
<path d="M600.018 0.0260601L573.336 24.3554L585.292 24.3294L612.394 0L600.018 0.0260601Z" fill="#E6FC97"/>
<path d="M622.838 0.0260601L596.155 24.3554L608.111 24.3294L635.213 0L622.838 0.0260601Z" fill="#E6FC97"/>
<path d="M644.571 0.0260601L617.888 24.3554L629.844 24.3294L656.946 0L644.571 0.0260601Z" fill="#E6FC97"/>
<path d="M666.304 0.0260601L639.621 24.3554L651.577 24.3294L678.679 0L666.304 0.0260601Z" fill="#E6FC97"/>
<path d="M688.036 0.0260601L661.354 24.3554L673.31 24.3294L700.412 0L688.036 0.0260601Z" fill="#E6FC97"/>
<path d="M694.271 24.1924L667.59 48.5218L679.545 48.4958L706.646 24.1663L694.271 24.1924Z" fill="#E6FC97"/>
<path d="M717.233 24.1924L690.55 48.5218L702.506 48.4958L729.608 24.1663L717.233 24.1924Z" fill="#E6FC97"/>
<path d="M738.967 24.1924L712.284 48.5218L724.24 48.4958L751.342 24.1663L738.967 24.1924Z" fill="#E6FC97"/>
<path d="M760.7 24.1924L734.018 48.5218L745.974 48.4958L773.075 24.1663L760.7 24.1924Z" fill="#E6FC97"/>
<path d="M783.519 24.1924L756.837 48.5218L768.793 48.4958L795.895 24.1663L783.519 24.1924Z" fill="#E6FC97"/>
<path d="M805.252 24.1924L778.569 48.5218L790.525 48.4958L817.627 24.1663L805.252 24.1924Z" fill="#E6FC97"/>
<path d="M828.072 24.1924L801.39 48.5218L813.344 48.4958L840.446 24.1663L828.072 24.1924Z" fill="#E6FC97"/>
<path d="M849.804 24.1924L823.123 48.5218L835.078 48.4958L862.179 24.1663L849.804 24.1924Z" fill="#E6FC97"/>
<path d="M871.537 24.1924L844.854 48.5218L856.811 48.4958L883.912 24.1663L871.537 24.1924Z" fill="#E6FC97"/>
<path d="M893.269 24.1924L866.587 48.5218L878.543 48.4958L905.645 24.1663L893.269 24.1924Z" fill="#E6FC97"/>
<path d="M709.626 0.0260601L682.945 24.3554L694.9 24.3294L722.001 0L709.626 0.0260601Z" fill="#E6FC97"/>
<path d="M732.588 0.0260601L705.905 24.3554L717.861 24.3294L744.963 0L732.588 0.0260601Z" fill="#E6FC97"/>
<path d="M754.322 0.0260601L727.64 24.3554L739.596 24.3294L766.697 0L754.322 0.0260601Z" fill="#E6FC97"/>
<path d="M776.055 0.0260601L749.372 24.3554L761.328 24.3294L788.43 0L776.055 0.0260601Z" fill="#E6FC97"/>
<path d="M798.874 0.0260601L772.191 24.3554L784.147 24.3294L811.249 0L798.874 0.0260601Z" fill="#E6FC97"/>
<path d="M820.607 0.0260601L793.925 24.3554L805.881 24.3294L832.982 0L820.607 0.0260601Z" fill="#E6FC97"/>
<path d="M843.428 0.0260601L816.745 24.3554L828.7 24.3294L855.801 0L843.428 0.0260601Z" fill="#E6FC97"/>
<path d="M865.159 0.0260601L838.478 24.3554L850.432 24.3294L877.534 0L865.159 0.0260601Z" fill="#E6FC97"/>
<path d="M886.892 0.0260601L860.21 24.3554L872.166 24.3294L899.268 0L886.892 0.0260601Z" fill="#E6FC97"/>
<path d="M908.625 0.0260601L881.942 24.3554L893.898 24.3294L921 0L908.625 0.0260601Z" fill="#E6FC97"/>
<path d="M26.6823 24.1924L0 48.5218L11.9557 48.4958L39.0573 24.1663L26.6823 24.1924Z" fill="#E6FC97"/>
<path d="M49.6442 24.1924L22.9619 48.5218L34.9176 48.4958L62.0192 24.1663L49.6442 24.1924Z" fill="#E6FC97"/>
<path d="M71.3781 24.1924L44.6958 48.5218L56.6515 48.4958L83.7531 24.1663L71.3781 24.1924Z" fill="#E6FC97"/>
<path d="M93.1115 24.1924L66.4292 48.5218L78.3848 48.4958L105.486 24.1663L93.1115 24.1924Z" fill="#E6FC97"/>
<path d="M115.931 24.1924L89.2485 48.5218L101.204 48.4958L128.306 24.1663L115.931 24.1924Z" fill="#E6FC97"/>
<path d="M137.663 24.1924L110.981 48.5218L122.937 48.4958L150.039 24.1663L137.663 24.1924Z" fill="#E6FC97"/>
<path d="M160.483 24.1924L133.8 48.5218L145.756 48.4958L172.858 24.1663L160.483 24.1924Z" fill="#E6FC97"/>
<path d="M182.216 24.1924L155.533 48.5218L167.489 48.4958L194.591 24.1663L182.216 24.1924Z" fill="#E6FC97"/>
<path d="M203.949 24.1924L177.266 48.5218L189.222 48.4958L216.324 24.1663L203.949 24.1924Z" fill="#E6FC97"/>
<path d="M225.681 24.1924L198.999 48.5218L210.955 48.4958L238.057 24.1663L225.681 24.1924Z" fill="#E6FC97"/>
<path d="M42.0383 0.0260601L15.356 24.3554L27.3117 24.3294L54.4133 0L42.0383 0.0260601Z" fill="#E6FC97"/>
<path d="M64.9991 0.0260601L38.3169 24.3554L50.2725 24.3294L77.3741 0L64.9991 0.0260601Z" fill="#E6FC97"/>
<path d="M86.7331 0.0260601L60.0508 24.3554L72.0064 24.3294L99.1081 0L86.7331 0.0260601Z" fill="#E6FC97"/>
<path d="M108.467 0.0260601L81.7842 24.3554L93.7398 24.3294L120.842 0L108.467 0.0260601Z" fill="#E6FC97"/>
<path d="M131.286 0.0260601L104.604 24.3554L116.559 24.3294L143.661 0L131.286 0.0260601Z" fill="#E6FC97"/>
<path d="M153.018 0.0260601L126.336 24.3554L138.292 24.3294L165.394 0L153.018 0.0260601Z" fill="#E6FC97"/>
<path d="M175.838 0.0260601L149.155 24.3554L161.111 24.3294L188.213 0L175.838 0.0260601Z" fill="#E6FC97"/>
<path d="M197.571 0.0260601L170.888 24.3554L182.844 24.3294L209.946 0L197.571 0.0260601Z" fill="#E6FC97"/>
<path d="M219.304 0.0260601L192.621 24.3554L204.577 24.3294L231.679 0L219.304 0.0260601Z" fill="#E6FC97"/>
<path d="M241.036 0.0260601L214.354 24.3554L226.31 24.3294L253.412 0L241.036 0.0260601Z" fill="#E6FC97"/>
<path d="M247.271 24.1924L220.59 48.5218L232.545 48.4958L259.646 24.1663L247.271 24.1924Z" fill="#E6FC97"/>
<path d="M270.233 24.1924L243.55 48.5218L255.506 48.4958L282.608 24.1663L270.233 24.1924Z" fill="#E6FC97"/>
<path d="M291.967 24.1924L265.284 48.5218L277.24 48.4958L304.342 24.1663L291.967 24.1924Z" fill="#E6FC97"/>
<path d="M313.7 24.1924L287.017 48.5218L298.973 48.4958L326.075 24.1663L313.7 24.1924Z" fill="#E6FC97"/>
<path d="M336.519 24.1924L309.836 48.5218L321.792 48.4958L348.894 24.1663L336.519 24.1924Z" fill="#E6FC97"/>
<path d="M358.252 24.1924L331.569 48.5218L343.525 48.4958L370.627 24.1663L358.252 24.1924Z" fill="#E6FC97"/>
<path d="M381.073 24.1924L354.39 48.5218L366.345 48.4958L393.446 24.1663L381.073 24.1924Z" fill="#E6FC97"/>
<path d="M402.804 24.1924L376.123 48.5218L388.078 48.4958L415.179 24.1663L402.804 24.1924Z" fill="#E6FC97"/>
<path d="M424.537 24.1924L397.854 48.5218L409.811 48.4958L436.912 24.1663L424.537 24.1924Z" fill="#E6FC97"/>
<path d="M446.27 24.1924L419.587 48.5218L431.543 48.4958L458.645 24.1663L446.27 24.1924Z" fill="#E6FC97"/>
<path d="M262.626 0.0260601L235.945 24.3554L247.9 24.3294L275.001 0L262.626 0.0260601Z" fill="#E6FC97"/>
<path d="M285.588 0.0260601L258.905 24.3554L270.861 24.3294L297.963 0L285.588 0.0260601Z" fill="#E6FC97"/>
<path d="M307.322 0.0260601L280.639 24.3554L292.595 24.3294L319.697 0L307.322 0.0260601Z" fill="#E6FC97"/>
<path d="M329.055 0.0260601L302.372 24.3554L314.328 24.3294L341.43 0L329.055 0.0260601Z" fill="#E6FC97"/>
<path d="M351.874 0.0260601L325.191 24.3554L337.147 24.3294L364.249 0L351.874 0.0260601Z" fill="#E6FC97"/>
<path d="M373.607 0.0260601L346.924 24.3554L358.88 24.3294L385.982 0L373.607 0.0260601Z" fill="#E6FC97"/>
<path d="M396.428 0.0260601L369.745 24.3554L381.7 24.3294L408.801 0L396.428 0.0260601Z" fill="#E6FC97"/>
<path d="M418.159 0.0260601L391.478 24.3554L403.433 24.3294L430.534 0L418.159 0.0260601Z" fill="#E6FC97"/>
<path d="M439.892 0.0260601L413.209 24.3554L425.165 24.3294L452.267 0L439.892 0.0260601Z" fill="#E6FC97"/>
<path d="M461.625 0.0260601L434.942 24.3554L446.898 24.3294L474 0L461.625 0.0260601Z" fill="#E6FC97"/>
</svg>
