<svg width="24" height="24" viewBox="0 0 24 24" fill="none" xmlns="http://www.w3.org/2000/svg"><path d="M11.25 14.5C11.25 13.1076 11.8031 11.7723 12.7877 10.7877C13.7723 9.80312 15.1076 9.25 16.5 9.25H3.75V6.25H18.75V9.25H16.5C17.5734 9.24916 18.6209 9.57914 19.5 10.195V5.5C19.4996 5.1023 19.3414 4.721 19.0602 4.43978C18.779 4.15856 18.3977 4.0004 18 4H4.5C4.1023 4.0004 3.721 4.15856 3.43978 4.43978C3.15856 4.721 3.0004 5.1023 3 5.5V14.5C3.0004 14.8977 3.15856 15.279 3.43978 15.5602C3.721 15.8414 4.1023 15.9996 4.5 16H11.4703C11.3246 15.5133 11.2504 15.008 11.25 14.5Z" fill="#252525"/><path d="M16.5 10C15.61 10 14.74 10.2639 13.9999 10.7584C13.2599 11.2529 12.6831 11.9557 12.3425 12.7779C12.0019 13.6002 11.9128 14.505 12.0865 15.3779C12.2601 16.2508 12.6887 17.0526 13.318 17.682C13.9474 18.3113 14.7492 18.7399 15.6221 18.9135C16.495 19.0872 17.3998 18.9981 18.2221 18.6575C19.0443 18.3169 19.7471 17.7401 20.2416 17.0001C20.7361 16.26 21 15.39 21 14.5C21 13.3065 20.5259 12.1619 19.682 11.318C18.8381 10.4741 17.6935 10 16.5 10Z" fill="#252525"/><path d="M15.0335 16.3124C14.9212 16.4245 14.7395 16.4244 14.6273 16.3123C14.5151 16.2 14.5151 16.0181 14.6274 15.9059L17.9945 12.5414C18.1073 12.4286 18.2903 12.429 18.4027 12.5422C18.5146 12.6549 18.5142 12.837 18.4018 12.9492L15.0335 16.3124ZM17.7347 16.6023C17.5432 16.6023 17.3682 16.5559 17.2096 16.463C17.0529 16.3682 16.9271 16.2425 16.8324 16.0858C16.7376 15.9272 16.6902 15.7512 16.6902 15.5577C16.6902 15.3682 16.7385 15.1941 16.8353 15.0355C16.932 14.8769 17.0597 14.7502 17.2183 14.6554C17.3769 14.5606 17.549 14.5132 17.7347 14.5132C17.9262 14.5132 18.1013 14.5606 18.2599 14.6554C18.4185 14.7482 18.5443 14.874 18.6371 15.0326C18.7319 15.1893 18.7793 15.3643 18.7793 15.5577C18.7793 15.7512 18.7319 15.9272 18.6371 16.0858C18.5443 16.2425 18.4185 16.3682 18.2599 16.463C18.1013 16.5559 17.9262 16.6023 17.7347 16.6023ZM17.7347 16.0771C17.8295 16.0771 17.9156 16.0539 17.993 16.0075C18.0723 15.9591 18.1352 15.8953 18.1816 15.816C18.2299 15.7367 18.2541 15.6506 18.2541 15.5577C18.2541 15.4649 18.2299 15.3788 18.1816 15.2995C18.1352 15.2202 18.0723 15.1573 17.993 15.1109C17.9156 15.0626 17.8295 15.0384 17.7347 15.0384C17.6419 15.0384 17.5558 15.0626 17.4765 15.1109C17.3991 15.1573 17.3363 15.2202 17.2879 15.2995C17.2415 15.3788 17.2183 15.4649 17.2183 15.5577C17.2183 15.6506 17.2415 15.7367 17.2879 15.816C17.3363 15.8953 17.3991 15.9591 17.4765 16.0075C17.5558 16.0539 17.6419 16.0771 17.7347 16.0771ZM15.2946 14.3391C15.1031 14.3391 14.928 14.2927 14.7694 14.1998C14.6108 14.105 14.4841 13.9793 14.3893 13.8226C14.2964 13.664 14.25 13.488 14.25 13.2946C14.25 13.105 14.2984 12.9309 14.3951 12.7723C14.4918 12.6137 14.6195 12.487 14.7781 12.3922C14.9367 12.2974 15.1089 12.25 15.2946 12.25C15.4861 12.25 15.6601 12.2974 15.8168 12.3922C15.9754 12.485 16.1021 12.6108 16.1969 12.7694C16.2917 12.9261 16.3391 13.1011 16.3391 13.2946C16.3391 13.488 16.2917 13.664 16.1969 13.8226C16.1021 13.9793 15.9754 14.105 15.8168 14.1998C15.6601 14.2927 15.4861 14.3391 15.2946 14.3391ZM15.2946 13.8139C15.3874 13.8139 15.4735 13.7907 15.5528 13.7443C15.6321 13.6959 15.695 13.6321 15.7414 13.5528C15.7897 13.4735 15.8139 13.3874 15.8139 13.2946C15.8139 13.2017 15.7897 13.1156 15.7414 13.0363C15.695 12.957 15.6321 12.8941 15.5528 12.8477C15.4735 12.7994 15.3874 12.7752 15.2946 12.7752C15.2017 12.7752 15.1156 12.7994 15.0363 12.8477C14.9589 12.8941 14.8961 12.957 14.8477 13.0363C14.7994 13.1156 14.7752 13.2017 14.7752 13.2946C14.7752 13.3874 14.7994 13.4735 14.8477 13.5528C14.8961 13.6321 14.9589 13.6959 15.0363 13.7443C15.1137 13.7907 15.1998 13.8139 15.2946 13.8139Z" fill="white"/></svg>