<svg width="24" height="24" viewBox="0 0 24 24" fill="none" xmlns="http://www.w3.org/2000/svg"><g clip-path="url(#clip0_3741_17128)"><path fill-rule="evenodd" clip-rule="evenodd" d="M19.3888 9.7067C21.3105 11.7158 22.946 14.7484 21.9031 17.3255C20.8955 19.8153 17.4078 19.6727 14.9331 20.717C13.368 21.3775 11.9701 22.2146 10.2714 22.2343C8.15888 22.2589 5.95568 22.197 4.3361 20.8404C2.29854 19.1337 -0.0582618 16.7118 0.605943 14.1382C1.26695 11.577 4.79417 11.4223 7.10085 10.1278C8.9135 9.11057 10.403 7.54545 12.4804 7.47425C14.9947 7.38808 17.6498 7.88864 19.3888 9.7067Z" fill="#FFD5CA"/><path d="M23.625 17.8404H21.7781C21.8211 17.7201 21.8433 17.5933 21.8438 17.4654V5.22168C21.8438 4.92331 21.7252 4.63716 21.5142 4.42618C21.3033 4.21521 21.0171 4.09668 20.7188 4.09668H3.28125C2.98288 4.09668 2.69673 4.21521 2.48575 4.42618C2.27478 4.63716 2.15625 4.92331 2.15625 5.22168V17.4654C2.15666 17.5933 2.17886 17.7201 2.22188 17.8404H0.375C0.275544 17.8404 0.180161 17.8799 0.109835 17.9503C0.0395088 18.0206 0 18.116 0 18.2154L0 18.3092C0.000496227 18.7317 0.168568 19.1368 0.467347 19.4356C0.766125 19.7344 1.17121 19.9024 1.59375 19.9029H22.4062C22.8288 19.9024 23.2339 19.7344 23.5327 19.4356C23.8314 19.1368 23.9995 18.7317 24 18.3092V18.2154C24 18.116 23.9605 18.0206 23.8902 17.9503C23.8198 17.8799 23.7245 17.8404 23.625 17.8404ZM2.90625 5.22168C2.90625 5.12222 2.94576 5.02684 3.01609 4.95651C3.08641 4.88619 3.18179 4.84668 3.28125 4.84668H20.7188C20.8182 4.84668 20.9136 4.88619 20.9839 4.95651C21.0542 5.02684 21.0938 5.12222 21.0938 5.22168V17.4654C21.0938 17.5649 21.0542 17.6603 20.9839 17.7306C20.9136 17.8009 20.8182 17.8404 20.7188 17.8404H3.28125C3.18179 17.8404 3.08641 17.8009 3.01609 17.7306C2.94576 17.6603 2.90625 17.5649 2.90625 17.4654V5.22168ZM22.4062 19.1548H1.59375C1.41942 19.1544 1.24946 19.1002 1.10715 18.9995C0.964833 18.8988 0.857119 18.7566 0.79875 18.5923H23.2013C23.1426 18.7562 23.0347 18.898 22.8924 18.9984C22.7501 19.0987 22.5804 19.1527 22.4062 19.1529V19.1548Z" fill="#252525"/><path d="M10.7812 17.2783H13.2188C13.3182 17.2783 13.4136 17.2388 13.4839 17.1685C13.5542 17.0982 13.5938 17.0028 13.5938 16.9033C13.5938 16.8039 13.5542 16.7085 13.4839 16.6382C13.4136 16.5678 13.3182 16.5283 13.2188 16.5283H10.7812C10.6818 16.5283 10.5864 16.5678 10.5161 16.6382C10.4458 16.7085 10.4062 16.8039 10.4062 16.9033C10.4062 17.0028 10.4458 17.0982 10.5161 17.1685C10.5864 17.2388 10.6818 17.2783 10.7812 17.2783Z" fill="#252525"/><path d="M12 6.36914C12.233 6.36914 12.4219 6.18026 12.4219 5.94727C12.4219 5.71427 12.233 5.52539 12 5.52539C11.767 5.52539 11.5781 5.71427 11.5781 5.94727C11.5781 6.18026 11.767 6.36914 12 6.36914Z" fill="#252525"/></g><defs><clipPath id="clip0_3741_17128"><rect width="24" height="24" fill="white"/></clipPath></defs></svg>