<svg width="24" height="24" viewBox="0 0 24 24" fill="none" xmlns="http://www.w3.org/2000/svg"><path fill-rule="evenodd" clip-rule="evenodd" d="M10.2843 7.13611C13.4245 6.77201 16.5936 3.82765 19.263 5.52115C22.0004 7.25785 22.2008 11.2728 21.8911 14.4998C21.6093 17.4368 20.233 20.409 17.6906 21.906C15.4724 23.2121 12.8159 21.7997 10.2843 21.334C8.44747 20.9961 6.58457 20.8351 5.17953 19.6046C3.67424 18.2863 2.80513 16.4742 2.48061 14.4998C2.07899 12.0562 1.37035 9.08644 3.17145 7.3869C4.96523 5.69427 7.83445 7.42016 10.2843 7.13611Z" fill="#FFD5CA"/><path d="M21.4688 16.9453H2.57812C2.26875 16.9453 2.01562 16.6922 2.01562 16.3828V2.57812C2.01562 2.26875 2.26875 2.01562 2.57812 2.01562H21.4688C21.7781 2.01562 22.0312 2.26875 22.0312 2.57812V16.3828C22.0312 16.6922 21.7781 16.9453 21.4688 16.9453Z" stroke="#252525" stroke-width="0.8" stroke-miterlimit="10" stroke-linecap="square"/><path d="M11.0156 16.9688H13.0312V20.0156H11.0156V16.9688Z" stroke="#252525" stroke-width="0.8" stroke-miterlimit="10" stroke-linecap="square"/><path d="M18.0234 21.9844H6.02344V21.1266C6.02344 20.5125 6.52031 20.0156 7.13437 20.0156H16.9172C17.5312 20.0156 18.0281 20.5125 18.0281 21.1266V21.9844H18.0234Z" stroke="#252525" stroke-width="0.8" stroke-miterlimit="10" stroke-linecap="square"/><path d="M2.01562 14.5781H22.0312" stroke="#252525" stroke-width="0.8" stroke-miterlimit="10" stroke-linecap="square"/><path d="M12.0234 15.8438C12.0623 15.8438 12.0938 15.8123 12.0938 15.7734C12.0938 15.7346 12.0623 15.7031 12.0234 15.7031C11.9846 15.7031 11.9531 15.7346 11.9531 15.7734C11.9531 15.8123 11.9846 15.8438 12.0234 15.8438Z" stroke="#252525" stroke-miterlimit="10" stroke-linecap="square"/></svg>