<svg width="24" height="24" viewBox="0 0 24 24" fill="none" xmlns="http://www.w3.org/2000/svg"><path d="M2.27264 12.0273C2.05764 12.1065 1.94681 12.3448 2.02514 12.5606L2.28682 13.2806L4.2793 11.2881L2.27264 12.0273Z" fill="#252525"/><path d="M4.15625 18.4258L5.35626 21.7258C5.39376 21.83 5.47208 21.915 5.57208 21.9608C5.6279 21.9866 5.6879 22 5.74791 22C5.79709 22 5.84541 21.9917 5.89209 21.9742L7.21628 21.4858L4.15625 18.4258Z" fill="#252525"/><path d="M21.972 15.6089L20.5987 11.833L17.3028 15.1289L18.9361 14.5272C19.1503 14.4455 19.392 14.5572 19.4712 14.7739C19.5512 14.9897 19.4403 15.2297 19.2245 15.3089L17.1495 16.0739C17.102 16.0914 17.0536 16.0997 17.0053 16.0997C16.8361 16.0997 16.6761 15.9955 16.6144 15.8272C16.6136 15.8247 16.6144 15.8222 16.6136 15.8197L13.1211 19.3122L21.7245 16.1422C21.9403 16.063 22.0511 15.8247 21.972 15.6089Z" fill="#252525"/><path d="M21.8779 8.78862L15.2112 2.12188C15.0487 1.95937 14.7845 1.95937 14.622 2.12188L2.12188 14.622C1.95937 14.7845 1.95937 15.0487 2.12188 15.2112L8.78862 21.8779C8.86944 21.9596 8.97612 22.0004 9.0828 22.0004C9.18948 22.0004 9.29612 21.9596 9.3778 21.8787L21.8779 9.37862C22.0404 9.2153 22.0404 8.95194 21.8779 8.78862ZM6.87778 13.5453L5.21108 15.212C5.1294 15.2928 5.02276 15.3337 4.91608 15.3337C4.8094 15.3337 4.70276 15.2929 4.62108 15.212C4.45858 15.0495 4.45858 14.7853 4.62108 14.6228L6.28777 12.9561C6.45028 12.7936 6.71446 12.7936 6.87696 12.9561C7.03946 13.1187 7.04028 13.382 6.87778 13.5453ZM14.0737 14.0745C13.7787 14.3695 13.3778 14.5112 12.932 14.5112C12.1953 14.5112 11.3345 14.1253 10.6145 13.4045C10.0878 12.8778 9.71777 12.2478 9.57362 11.6311C9.41362 10.9436 9.5453 10.3453 9.94445 9.94531C10.3436 9.5453 10.942 9.41362 11.6303 9.57448C12.247 9.71867 12.877 10.0878 13.4036 10.6153C14.5612 11.772 14.8562 13.292 14.0737 14.0745ZM19.3779 9.37862L17.7112 11.0453C17.6295 11.1261 17.5229 11.167 17.4162 11.167C17.3095 11.167 17.2029 11.1262 17.1212 11.0453C16.9587 10.8828 16.9587 10.6186 17.1212 10.4561L18.7879 8.78944C18.9504 8.62694 19.2146 8.62694 19.3771 8.78944C19.5396 8.95194 19.5404 9.2153 19.3779 9.37862Z" fill="#252525"/></svg>