<svg width="24" height="24" viewBox="0 0 24 24" fill="none" xmlns="http://www.w3.org/2000/svg"><g clip-path="url(#clip0_3741_17157)"><path fill-rule="evenodd" clip-rule="evenodd" d="M12.5221 19.9927C14.4037 19.4605 15.4161 17.7082 17.0229 16.5961C19.3662 14.9743 23.3164 14.8889 23.9149 12.1075C24.5149 9.31925 21.8257 6.80038 19.4826 5.16583C17.4855 3.77268 14.9464 3.91071 12.5221 4.15998C10.4151 4.37662 8.59934 5.25403 6.86269 6.46341C4.56987 8.06011 1.59231 9.36045 1.10956 12.1075C0.587215 15.0798 1.97018 18.4319 4.45741 20.1504C6.75501 21.7378 9.83302 20.7534 12.5221 19.9927Z" fill="#FFD5CA"/><path d="M4.625 3.50195C4.3145 3.50195 4.0625 3.75395 4.0625 4.06445V7.0247C4.0625 7.3352 4.3145 7.5872 4.625 7.5872C4.9355 7.5872 5.1875 7.3352 5.1875 7.0247V4.06445C5.1875 3.75395 4.9355 3.50195 4.625 3.50195Z" fill="#252525"/><path d="M19.3711 7.5872C19.6816 7.5872 19.9336 7.3352 19.9336 7.0247V4.06445C19.9336 3.75395 19.6816 3.50195 19.3711 3.50195C19.0606 3.50195 18.8086 3.75395 18.8086 4.06445V7.0247C18.8086 7.3352 19.0606 7.5872 19.3711 7.5872Z" fill="#252525"/><path fill-rule="evenodd" clip-rule="evenodd" d="M5.4082 23.2475H18.5928C21.3025 23.2439 23.5146 21.1151 23.6533 18.4389L23.6602 18.1792V13.395C23.6588 12.7028 23.1333 12.1339 22.46 12.0649L22.3232 12.0581H17.8115V10.2221L17.9189 10.2299C18.8652 10.2988 19.9728 10.0285 20.8584 9.47799C21.7435 8.92775 22.3939 8.10712 22.457 7.08053V3.85787C22.4577 3.37078 22.2925 2.89764 21.9883 2.51803L21.9873 2.51705C19.2596 -0.975741 13.6153 1.10769 13.5254 5.41744V12.0581H10.4756V5.62447L10.4746 5.41744C10.3806 1.11179 4.74853 -0.975754 2.0166 2.51217L2.01562 2.51314C1.70918 2.89334 1.54408 3.36867 1.5498 3.85689V7.08346L1.56738 7.27388C1.68879 8.21271 2.31155 8.96571 3.1416 9.48092C4.02726 10.0306 5.13574 10.3005 6.08008 10.2299L6.1875 10.2212V12.0581H1.67773L1.54102 12.0649C0.912314 12.1292 0.412584 12.6295 0.347656 13.2583L0.339844 13.395V18.1792C0.343761 20.9761 2.6112 23.2431 5.4082 23.2475ZM1.26562 13.394V18.1792L1.27051 18.392C1.38479 20.5792 3.19245 22.3178 5.40723 22.3217H18.5928L18.8057 22.3159C20.993 22.201 22.7316 20.3941 22.7354 18.1792V13.394C22.7343 13.1675 22.5502 12.9829 22.3232 12.9829C17.4109 12.9829 11.5228 12.9821 6.63965 12.9829H1.67676C1.47841 12.9831 1.31252 13.1243 1.27344 13.311L1.26562 13.394ZM6.13281 1.68209L6.13086 1.68111L5.8623 1.66353C5.22287 1.64547 4.4936 1.79897 3.875 2.11373C3.16821 2.47346 2.58898 3.0532 2.47266 3.84322L2.47168 3.85006V7.09224C2.48322 7.53759 2.71527 7.8967 3.01562 8.18697C3.31553 8.47671 3.69277 8.70735 4.01172 8.894L4.01562 8.89596C4.7936 9.3069 5.69339 9.42419 6.55078 9.22603H6.55273C6.79315 9.16601 7.04763 9.33823 7.10254 9.57174L7.11328 9.67525V12.0581H9.55566V5.62642C9.5769 3.69746 8.19818 2.04752 6.31641 1.71041L6.13281 1.68209ZM20.9834 8.18697C21.2834 7.89674 21.5156 7.53702 21.5303 7.09224V3.85006L21.5293 3.84224C21.4059 3.05615 20.8281 2.4765 20.123 2.11568C19.5057 1.79984 18.7782 1.64399 18.1377 1.66256L17.8691 1.68111L17.8672 1.68209C15.8943 1.94293 14.4268 3.63668 14.4502 5.62642V12.0581H16.8848V9.67623C16.8819 9.38695 17.1642 9.16002 17.4463 9.22603L17.7705 9.2856C18.5284 9.39057 19.3031 9.25477 19.9844 8.894L19.9854 8.89498L19.9883 8.89205C20.3081 8.70572 20.6841 8.47639 20.9834 8.18697Z" fill="#252525"/><path d="M11.9978 15.1777C11.058 15.1822 11.058 16.611 11.9978 16.6147C12.9375 16.6102 12.9375 15.1815 11.9978 15.1777Z" fill="#252525"/></g><defs><clipPath id="clip0_3741_17157"><rect width="24" height="24" fill="white"/></clipPath></defs></svg>