<svg width="24" height="24" viewBox="0 0 24 24" fill="none" xmlns="http://www.w3.org/2000/svg"><path fill-rule="evenodd" clip-rule="evenodd" d="M12.5221 5.00726C14.4037 5.53949 15.4161 7.29176 17.0229 8.40386C19.3662 10.0257 23.3164 10.1111 23.9149 12.8925C24.5149 15.6808 21.8257 18.1996 19.4826 19.8342C17.4855 21.2273 14.9464 21.0893 12.5221 20.84C10.4151 20.6234 8.59934 19.746 6.86269 18.5366C4.56987 16.9399 1.59231 15.6396 1.10956 12.8925C0.587215 9.92017 1.97018 6.56812 4.45741 4.84963C6.75501 3.26215 9.83302 4.24664 12.5221 5.00726Z" fill="#FFD5CA"/><path d="M19.0732 0.991211L19.073 1.09084H4.89127L4.8916 0.991211H19.0732Z" fill="white"/><path fill-rule="evenodd" clip-rule="evenodd" d="M4.8916 23.9004H19.0732C20.4329 23.8986 21.5507 22.8651 21.6865 21.541L21.7002 21.2725V2.72754C21.6986 1.36795 20.6658 0.250304 19.3418 0.114258L19.0732 0.0996094H4.8916C3.53182 0.101233 2.41412 1.13472 2.27832 2.45898L2.26367 2.72754V21.2725C2.2654 22.7229 3.44121 23.8987 4.8916 23.9004ZM3.15527 21.2725V2.72754C3.15633 1.76912 3.93318 0.992271 4.8916 0.991211H19.0732C19.9719 0.992261 20.7101 1.67475 20.7998 2.5498L20.8096 2.72754V21.2725C20.8086 22.1708 20.126 22.9101 19.251 23L19.0732 23.0088H4.8916C3.99306 23.0078 3.25375 22.3253 3.16406 21.4502L3.15527 21.2725Z" fill="#252525"/><path d="M13.619 2.18164H10.3463C10.0451 2.18164 9.80078 2.42574 9.80078 2.72696C9.80078 3.02819 10.0451 3.27248 10.3463 3.27248H13.619C13.9203 3.27248 14.1644 3.02819 14.1644 2.72696C14.1644 2.42574 13.9203 2.18164 13.619 2.18164Z" fill="#252525"/><path d="M13.0725 20.7276C13.0725 21.3302 12.5841 21.8186 11.9817 21.8186C11.379 21.8186 10.8906 21.3302 10.8906 20.7276C10.8906 20.1251 11.379 19.6367 11.9817 19.6367C12.5841 19.6367 13.0725 20.1251 13.0725 20.7276Z" fill="#252525"/></svg>