<svg width="25" height="24" viewBox="0 0 25 24" fill="none" xmlns="http://www.w3.org/2000/svg"><path d="M14.8911 7.04102H9.69531V16.3758H14.8911V7.04102Z" fill="#C8C8C8"/><path d="M10.0395 11.7081C10.0395 9.8115 10.9311 8.12823 12.2992 7.04064C11.2923 6.24897 10.0222 5.77051 8.63677 5.77051C5.35478 5.77051 2.69922 8.42607 2.69922 11.7081C2.69922 14.99 5.35478 17.6456 8.63677 17.6456C10.0222 17.6456 11.2923 17.1671 12.2992 16.3755C10.9292 15.3033 10.0395 13.6046 10.0395 11.7081Z" fill="#7D7D7D"/><path d="M21.9008 11.7081C21.9008 14.99 19.2452 17.6456 15.9632 17.6456C14.5778 17.6456 13.3077 17.1671 12.3008 16.3755C13.6862 15.286 14.5605 13.6046 14.5605 11.7081C14.5605 9.8115 13.6689 8.12823 12.3008 7.04064C13.3057 6.24897 14.5759 5.77051 15.9613 5.77051C19.2452 5.77051 21.9008 8.44337 21.9008 11.7081Z" fill="#D0D0D0"/></svg>