<svg width="39" height="24" viewBox="0 0 39 24" fill="none" xmlns="http://www.w3.org/2000/svg"><g clip-path="url(#clip0_3834_1189)"><path fill-rule="evenodd" clip-rule="evenodd" d="M14.0416 8V8.00393C14.0378 8.00393 12.8363 8 12.5159 9.18297C12.2222 10.2677 11.3945 13.2624 11.3716 13.345H11.1428C11.1428 13.345 10.296 10.2834 9.9985 9.17904C9.67811 7.99607 8.47281 8 8.47281 8H5.72656V17H8.47281V11.655H8.58724H8.70166L10.3036 17H12.2108L13.8127 11.659H14.0416V17H16.7878V8H14.0416Z" fill="#D0D0D0"/><path fill-rule="evenodd" clip-rule="evenodd" d="M24.0754 8C24.0754 8 23.2706 8.07467 22.893 8.94323L20.9478 13.345H20.7189V8H17.9727V17H20.5663C20.5663 17 21.4093 16.9214 21.7869 16.0568L23.694 11.655H23.9229V17H26.6691V8H24.0754Z" fill="#D0D0D0"/><path fill-rule="evenodd" clip-rule="evenodd" d="M27.8867 12.0869V16.9996H30.633V14.1306H33.6081C34.9049 14.1306 36.0034 13.2777 36.4115 12.0869H27.8867Z" fill="#D0D0D0"/><path fill-rule="evenodd" clip-rule="evenodd" d="M33.6066 8H27.5C27.8051 9.71354 29.0524 11.0891 30.6658 11.5371C31.032 11.6393 31.4172 11.6943 31.8139 11.6943H36.5207C36.5626 11.49 36.5817 11.2817 36.5817 11.0655C36.5817 9.37162 35.2505 8 33.6066 8Z" fill="#D0D0D0"/></g><defs><clipPath id="clip0_3834_1189"><rect width="30.8571" height="9" fill="white" transform="translate(5.73047 8)"/></clipPath></defs></svg>