<svg width="49" height="24" viewBox="0 0 49 24" fill="none" xmlns="http://www.w3.org/2000/svg"><path d="M8.30078 7.48242L10.2383 10.9456V13.0581L8.30305 16.5145L8.30078 7.48242Z" fill="#D0D0D0"/><path d="M15.7422 9.68556L17.5577 8.5728L21.2733 8.56934L15.7422 11.9577V9.68556Z" fill="#D0D0D0"/><path d="M15.7326 7.46213L15.7428 12.0473L13.8008 10.854V4L15.7327 7.46213H15.7326Z" fill="#D0D0D0"/><path d="M21.274 8.56929L17.5582 8.57276L15.7326 7.46213L13.8008 4L21.2738 8.56929H21.274Z" fill="#D0D0D0"/><path d="M15.7428 16.5339V14.3093L13.8008 13.1387L13.8018 19.9995L15.7428 16.5339Z" fill="#D0D0D0"/><path d="M17.5511 15.4311L10.2382 10.9456L8.30078 7.48242L21.2634 15.4265L17.551 15.4311H17.5511Z" fill="#D0D0D0"/><path d="M13.8008 19.9995L15.7415 16.5339L17.5525 15.4313L21.2648 15.4268L13.8008 19.9995Z" fill="#D0D0D0"/><path d="M8.30469 16.5146L13.8155 13.1387L11.9628 12.002L10.2399 13.0582L8.30469 16.5146Z" fill="#D0D0D0"/><path fill-rule="evenodd" clip-rule="evenodd" d="M29.4845 12.5433C30.7348 12.5433 31.6633 11.7766 31.6633 10.6144C31.6633 9.48949 30.9783 8.75918 29.8333 8.75918C29.305 8.75918 28.869 8.94511 28.5406 9.26606C28.619 8.6028 29.1799 8.11845 29.7975 8.11845C29.94 8.11845 31.013 8.11623 31.013 8.11623L31.6199 6.95508C31.6199 6.95508 30.2727 6.98581 29.6464 6.98581C28.2156 7.01067 27.2491 8.31128 27.2491 9.8909C27.2491 11.7313 28.1917 12.5433 29.4845 12.5433ZM29.4921 9.78765C29.9563 9.78765 30.2781 10.0927 30.2781 10.6143C30.2781 11.0837 29.9922 11.4705 29.4921 11.4716C29.0136 11.4716 28.6918 11.1131 28.6918 10.6223C28.6918 10.1005 29.0136 9.78765 29.4921 9.78765ZM36.4913 8.49187V12.4034H35.0946V9.65953H33.7497V12.4034H32.353V8.49161L36.4913 8.49187ZM25.2896 11.32C25.7823 11.2841 26.1121 11.0939 26.1121 11.0939L26.629 12.0502C26.298 12.2628 25.7548 12.4011 25.3611 12.4157C23.9525 12.4416 22.9727 11.5845 22.9727 10.3357C22.9727 9.10265 24.0151 8.22508 25.3611 8.22508C25.8944 8.22508 26.3529 8.36818 26.6972 8.6291C26.6247 8.75748 26.5262 8.93534 26.4326 9.10552L26.2827 9.37868L26.1463 9.62815C26.1463 9.62815 25.6503 9.36827 25.2754 9.36827C24.6639 9.36827 24.2186 9.72359 24.2186 10.3435C24.2186 10.9791 24.7232 11.3368 25.2896 11.32ZM24.219 15.0359C24.1764 15.0903 24.1203 15.1315 24.053 15.1592C23.9838 15.1873 23.9099 15.2016 23.8353 15.2012C23.7612 15.2023 23.6874 15.1899 23.6176 15.1648C23.5549 15.142 23.4976 15.1065 23.4493 15.0605C23.4017 15.0144 23.3642 14.9588 23.3395 14.8972C23.3127 14.8299 23.2993 14.7579 23.3002 14.6854C23.3002 14.6134 23.3126 14.5467 23.3383 14.4836C23.3629 14.4203 23.3988 14.366 23.4437 14.3204C23.4641 14.2993 23.4863 14.2804 23.5101 14.2635L23.5247 14.2536C23.54 14.2436 23.556 14.2342 23.5725 14.2256L23.5903 14.2168L23.6031 14.2107C23.6648 14.184 23.7321 14.1695 23.8062 14.1695C23.8858 14.1695 23.9599 14.1795 24.0272 14.1995C24.0697 14.212 24.1081 14.2298 24.1425 14.253C24.1626 14.2666 24.1814 14.2821 24.1988 14.2995L24.1169 14.4381C24.0773 14.4022 24.0307 14.375 23.98 14.3581C23.9318 14.3426 23.8814 14.3347 23.8308 14.3349C23.786 14.3349 23.7433 14.3437 23.7019 14.3604C23.661 14.3768 23.6237 14.4009 23.5919 14.4315C23.5594 14.4627 23.5338 14.5006 23.5166 14.5424C23.4976 14.5855 23.4887 14.6333 23.4887 14.6866C23.4887 14.7408 23.4987 14.7897 23.5178 14.8319C23.537 14.8751 23.5627 14.9118 23.5952 14.9428C23.6277 14.9739 23.6659 14.9971 23.7096 15.0127C23.7274 15.0195 23.7457 15.0248 23.7643 15.0287C23.7914 15.0345 23.8196 15.0372 23.8488 15.0372C23.9093 15.0372 23.9644 15.0248 24.0115 15.0015C24.0362 14.9895 24.0595 14.9752 24.0813 14.9587C24.1005 14.944 24.1185 14.9276 24.1349 14.9096L24.219 15.0359ZM24.4501 15.1779V14.1906H24.6274V14.9263L25.2041 14.1906H25.3814V15.1781H25.2041V14.4426L24.6274 15.1781L24.4501 15.1779ZM26.556 15.0359C26.5124 15.0908 26.4552 15.1333 26.39 15.1592C26.3505 15.1752 26.3092 15.1868 26.2673 15.1937C26.2359 15.1988 26.2042 15.2014 26.1723 15.2012C26.1426 15.2016 26.1129 15.1999 26.0835 15.196C26.0397 15.1903 25.9965 15.1799 25.9547 15.1648C25.9404 15.1596 25.9263 15.1537 25.9126 15.1472C25.896 15.1393 25.8798 15.1304 25.8642 15.1208C25.8363 15.1035 25.8102 15.0833 25.7864 15.0605C25.7386 15.0144 25.7012 14.9588 25.6765 14.8972C25.6497 14.8299 25.6363 14.7579 25.6371 14.6854C25.6371 14.6134 25.6495 14.5467 25.6753 14.4836C25.7001 14.4203 25.7359 14.366 25.7808 14.3204C25.8257 14.2738 25.8795 14.2384 25.9401 14.2107C26.004 14.1825 26.0733 14.1685 26.1431 14.1695C26.1895 14.1695 26.2338 14.1729 26.276 14.1797L26.3008 14.184C26.3102 14.1858 26.3195 14.1879 26.3287 14.1901L26.3451 14.1941L26.3642 14.1995C26.4315 14.2194 26.4887 14.2527 26.5359 14.2995L26.4539 14.4381C26.4144 14.4022 26.3678 14.375 26.3171 14.3581C26.305 14.3541 26.2926 14.3506 26.2802 14.3476C26.2717 14.3457 26.2631 14.344 26.2544 14.3424C26.2463 14.341 26.2381 14.3397 26.2299 14.3387L26.2118 14.3367C26.1972 14.3354 26.1826 14.3347 26.1679 14.3349C26.0788 14.3351 25.9932 14.3698 25.9289 14.4315C25.9205 14.4397 25.9126 14.4482 25.9052 14.4571C25.8964 14.4677 25.8883 14.4789 25.8809 14.4905C25.8703 14.507 25.8612 14.5243 25.8537 14.5424C25.8495 14.5518 25.8459 14.5614 25.8427 14.5713C25.839 14.5827 25.8359 14.5942 25.8334 14.6061C25.8282 14.6315 25.8257 14.6582 25.8257 14.6866C25.8257 14.7122 25.8279 14.7366 25.8322 14.7596C25.8349 14.7733 25.8382 14.7863 25.8422 14.7989C25.8459 14.8104 25.8501 14.8213 25.8548 14.8319C25.8669 14.8592 25.8816 14.8839 25.899 14.9062C25.9091 14.9192 25.9202 14.9313 25.9322 14.9428C25.9647 14.9739 26.003 14.9971 26.0467 15.0127C26.0904 15.0282 26.1365 15.0372 26.1857 15.0372C26.2065 15.0372 26.2264 15.0358 26.2456 15.0329C26.2826 15.0276 26.3167 15.0169 26.3484 15.0015C26.3951 14.979 26.437 14.9477 26.4719 14.9096L26.556 15.0359ZM26.648 14.1906H27.5568V14.366H27.1911V15.1779H27.0138V14.366H26.648V14.1906ZM28.5587 15.0704C28.5094 15.1147 28.4522 15.147 28.3848 15.168C28.3199 15.189 28.2522 15.1998 28.184 15.2002C28.1567 15.2006 28.1294 15.1992 28.1023 15.196C28.0549 15.1904 28.0081 15.1796 27.963 15.1636C27.8968 15.1393 27.8408 15.1048 27.7947 15.0593C27.7477 15.0132 27.711 14.9576 27.687 14.8963C27.6623 14.833 27.6488 14.7621 27.6488 14.6843C27.6482 14.6155 27.66 14.5471 27.6837 14.4825C27.7052 14.4217 27.7392 14.3663 27.7834 14.3194C27.8045 14.2976 27.8275 14.2778 27.8522 14.2604C27.8808 14.2402 27.9115 14.2232 27.944 14.2095C27.9809 14.1941 28.021 14.1828 28.0643 14.176C28.0957 14.1711 28.1288 14.1685 28.1638 14.1685C28.1844 14.1683 28.2049 14.1695 28.2251 14.172C28.2435 14.1742 28.2617 14.1775 28.2797 14.1816C28.3016 14.1868 28.3233 14.1936 28.3445 14.2018C28.3995 14.2222 28.4499 14.2535 28.4926 14.2939C28.5035 14.3044 28.5138 14.3153 28.5235 14.3269C28.5315 14.3364 28.5391 14.3462 28.5463 14.3564C28.5573 14.3719 28.5673 14.3883 28.5762 14.4051C28.5816 14.4155 28.5866 14.4261 28.5913 14.437C28.6014 14.4599 28.6095 14.4837 28.6155 14.5086C28.624 14.5439 28.6283 14.5813 28.6283 14.6212C28.6283 14.6666 28.625 14.7054 28.6171 14.7398H27.8497C27.8576 14.8332 27.8923 14.9062 27.9562 14.9584C28.0202 15.0106 28.101 15.036 28.1986 15.036C28.2318 15.036 28.2637 15.0334 28.2938 15.0282C28.3226 15.0233 28.3501 15.016 28.3759 15.0062C28.4286 14.9862 28.4723 14.9618 28.5049 14.9329L28.5587 15.0704ZM28.1559 14.3338C28.0639 14.3338 27.991 14.3582 27.9361 14.408C27.8817 14.4571 27.8471 14.5242 27.8385 14.5967H28.4443C28.4398 14.5147 28.413 14.4504 28.3624 14.4038C28.354 14.3959 28.3451 14.3889 28.3357 14.3825C28.3269 14.3764 28.3176 14.3709 28.3078 14.366C28.3004 14.3622 28.2928 14.3588 28.2848 14.3557C28.2474 14.3411 28.2043 14.3338 28.1559 14.3338ZM28.8695 14.1906H29.0311L29.4148 14.6799L29.7783 14.1906H29.9353V15.1781H29.7581V14.458L29.4125 14.9162H29.4057L29.0468 14.4579V15.1779H28.8695V14.1906ZM30.3402 14.2204C30.3653 14.2097 30.3913 14.2009 30.4177 14.194C30.4749 14.1785 30.5343 14.1696 30.5973 14.1696C30.6586 14.1696 30.712 14.1763 30.7575 14.1896C30.7879 14.1984 30.8148 14.2103 30.838 14.225C30.8602 14.2389 30.8791 14.2556 30.8946 14.275C30.9196 14.3056 30.939 14.3419 30.953 14.3838C30.9709 14.4379 30.9798 14.5011 30.9798 14.5735V15.1792H30.8138V15.0516C30.7846 15.0894 30.7442 15.1226 30.6937 15.1515C30.6433 15.1803 30.577 15.1947 30.494 15.1947C30.4338 15.1947 30.3814 15.1834 30.3367 15.1608C30.3269 15.1558 30.3176 15.1503 30.3085 15.1443C30.3024 15.1402 30.2964 15.1358 30.2906 15.1312C30.2842 15.1261 30.2779 15.1207 30.2719 15.1149C30.2158 15.0617 30.1877 14.9862 30.1877 14.8897C30.1872 14.8432 30.1971 14.7974 30.2169 14.7553C30.2354 14.717 30.2622 14.6833 30.2954 14.6567C30.328 14.63 30.3683 14.61 30.4154 14.5967C30.4247 14.5941 30.4342 14.5916 30.4437 14.5894L30.458 14.5863L30.4741 14.5834C30.5032 14.5784 30.5334 14.5756 30.5647 14.5756C30.6077 14.5761 30.6505 14.5806 30.6926 14.589C30.7362 14.5966 30.7775 14.6136 30.8138 14.639C30.8138 14.6194 30.8134 14.6004 30.8125 14.582L30.8107 14.555C30.8095 14.5405 30.808 14.5263 30.806 14.5125C30.8004 14.4737 30.7902 14.4405 30.7745 14.4138C30.7671 14.4013 30.7582 14.3897 30.7478 14.3795C30.7429 14.3747 30.7377 14.3702 30.7321 14.366C30.7283 14.3633 30.7244 14.3605 30.7202 14.3581C30.7157 14.3553 30.711 14.3528 30.7061 14.3505C30.6758 14.335 30.6365 14.3271 30.5871 14.3271C30.5254 14.3271 30.4738 14.3338 30.4334 14.3483L30.412 14.3562L30.3938 14.3631L30.3725 14.3719C30.3524 14.3803 30.3323 14.3894 30.3122 14.3993L30.2652 14.2594C30.2892 14.2445 30.3143 14.2315 30.3402 14.2204ZM30.5558 15.036C30.6209 15.036 30.6737 15.0229 30.7141 14.994C30.7505 14.9697 30.7837 14.941 30.8127 14.9084V14.783C30.7931 14.769 30.7722 14.7573 30.75 14.7477C30.7376 14.7424 30.7248 14.7379 30.7116 14.7341C30.7024 14.7315 30.693 14.7291 30.6834 14.727C30.6725 14.7247 30.6613 14.7229 30.6498 14.7214C30.6301 14.719 30.6096 14.7177 30.5884 14.7177C30.5614 14.7177 30.5357 14.7209 30.5098 14.7276C30.497 14.7307 30.4845 14.735 30.4725 14.7405C30.4618 14.7453 30.4513 14.751 30.4414 14.7576C30.4224 14.7709 30.4056 14.7876 30.3931 14.8087L30.3906 14.8132C30.3887 14.8168 30.387 14.8203 30.3855 14.8239C30.3838 14.828 30.3824 14.8321 30.3812 14.8364C30.38 14.8403 30.379 14.8444 30.3782 14.8485C30.3761 14.8586 30.3752 14.8692 30.3752 14.8807C30.3752 14.9273 30.3909 14.9651 30.4224 14.9938C30.4405 15.0098 30.4631 15.0214 30.4899 15.0283C30.5096 15.0334 30.5316 15.036 30.5558 15.036ZM32.646 13.7581C32.6145 13.7991 32.5809 13.8268 32.5451 13.8434C32.5091 13.86 32.4699 13.8712 32.4272 13.8801C32.3952 13.8867 32.3618 13.8928 32.3267 13.8992L32.2915 13.9057C32.2383 13.9155 32.1866 13.9323 32.1377 13.9556C32.1192 13.9635 32.1014 13.9732 32.0847 13.9842C32.0727 13.9922 32.0612 14.0008 32.0504 14.0101L32.0373 14.022L32.0293 14.0299L32.0211 14.0387C32.015 14.0458 32.0092 14.0531 32.0036 14.0605C31.9924 14.0752 31.9821 14.0905 31.9727 14.1064C31.9633 14.1224 31.9547 14.139 31.9471 14.1564C31.9279 14.1995 31.9134 14.2452 31.9032 14.2928C31.8932 14.3406 31.8876 14.3871 31.8842 14.4325H31.8887C31.9044 14.3971 31.9268 14.366 31.9538 14.3381C31.9813 14.31 32.0126 14.2858 32.0469 14.2661C32.0543 14.2618 32.0619 14.2577 32.0696 14.2536C32.0782 14.2492 32.087 14.245 32.0959 14.2411C32.1164 14.2321 32.1375 14.2246 32.1591 14.2185C32.1995 14.2074 32.241 14.2018 32.2836 14.2018C32.3253 14.2013 32.3668 14.2058 32.4071 14.2153C32.4307 14.2209 32.4539 14.2282 32.4765 14.2372C32.5323 14.2594 32.5825 14.2936 32.6236 14.3372C32.6646 14.3817 32.696 14.4342 32.7156 14.4914C32.7369 14.5514 32.7481 14.619 32.7481 14.6932C32.7481 14.7621 32.7358 14.8274 32.71 14.8885C32.6994 14.9148 32.6866 14.9399 32.6719 14.9636C32.6526 14.9949 32.63 15.0235 32.6045 15.0494C32.5584 15.0963 32.5035 15.1335 32.4429 15.1592C32.3802 15.1859 32.3106 15.2003 32.2354 15.2003C32.1535 15.2003 32.0806 15.1859 32.0155 15.1571C31.9504 15.1283 31.8954 15.0882 31.8494 15.035C31.8034 14.9828 31.7687 14.9186 31.7439 14.8419C31.7193 14.7653 31.707 14.68 31.707 14.5856C31.707 14.5125 31.7114 14.436 31.7204 14.3561C31.7292 14.2777 31.7469 14.2008 31.7731 14.1264C31.7989 14.0531 31.8371 13.9866 31.8854 13.9279C31.9336 13.869 31.9975 13.8225 32.0773 13.788L32.0946 13.7805C32.1032 13.777 32.1118 13.7736 32.1204 13.7704C32.1362 13.7647 32.1521 13.7595 32.1681 13.7548C32.1778 13.7521 32.1875 13.7495 32.1972 13.7471C32.2095 13.7441 32.2218 13.7415 32.2343 13.7393L32.2957 13.7288L32.3285 13.723L32.3621 13.7171C32.3819 13.7137 32.4014 13.7091 32.4206 13.7034C32.4357 13.699 32.4506 13.6939 32.4653 13.6882C32.4735 13.685 32.4814 13.681 32.4891 13.6764L32.4991 13.6699C32.5172 13.6573 32.534 13.6404 32.5495 13.6194L32.646 13.7581ZM31.8966 14.619C31.8956 14.6776 31.9039 14.736 31.9212 14.792C31.9361 14.8394 31.9592 14.8837 31.9896 14.923C32.0187 14.9582 32.0551 14.9865 32.0963 15.0062C32.1377 15.0261 32.1827 15.0361 32.232 15.0361C32.2693 15.0361 32.3035 15.0311 32.3355 15.0208L32.347 15.0169C32.3533 15.0147 32.3595 15.0122 32.3656 15.0095C32.4044 14.9931 32.4395 14.9688 32.4688 14.9386C32.4981 14.9083 32.521 14.8724 32.5362 14.833C32.5517 14.7932 32.5608 14.7498 32.5608 14.7022C32.5608 14.6057 32.5339 14.5258 32.4788 14.4616C32.4604 14.4402 32.4393 14.4225 32.4154 14.4083C32.3958 14.3966 32.3743 14.3873 32.3509 14.3804C32.3181 14.3708 32.2815 14.366 32.241 14.366C32.1573 14.3653 32.0758 14.3931 32.0099 14.4448C31.9807 14.4682 31.956 14.4948 31.937 14.5247C31.9303 14.5346 31.9243 14.5449 31.9191 14.5556C31.9148 14.5642 31.911 14.5729 31.9077 14.5817C31.9031 14.5938 31.8994 14.6063 31.8966 14.619ZM33.9306 14.1907H34.108V15.1782H33.9306V14.1907ZM33.1812 14.1907H33.0038H33.0028V15.1792H33.3248C33.3409 15.1792 33.3564 15.1787 33.3714 15.1778C33.3809 15.1773 33.39 15.1765 33.399 15.1756C33.4071 15.1748 33.415 15.1739 33.4228 15.1727C33.4596 15.1675 33.4926 15.1592 33.5223 15.1483C33.5348 15.1436 33.5467 15.1386 33.558 15.1333L33.5725 15.126L33.584 15.1199C33.592 15.1152 33.5998 15.1102 33.6071 15.105C33.6119 15.1018 33.6165 15.0984 33.6209 15.095C33.6263 15.0907 33.6315 15.0863 33.6365 15.0817C33.6413 15.0774 33.6458 15.0729 33.6501 15.0683C33.6816 15.035 33.7052 14.9984 33.7187 14.9563C33.7273 14.9313 33.7332 14.9063 33.7365 14.8809C33.7388 14.8634 33.74 14.8455 33.74 14.8274C33.74 14.8179 33.7396 14.8086 33.739 14.7992C33.7385 14.791 33.7377 14.7829 33.7367 14.7748C33.7336 14.7493 33.7282 14.7244 33.7209 14.6998C33.7085 14.659 33.6872 14.6224 33.6569 14.5912C33.6266 14.5601 33.5862 14.5347 33.5357 14.5157C33.4851 14.497 33.4224 14.487 33.345 14.487H33.1812V14.1907ZM33.3102 15.0139H33.1812V14.6522V14.6498H33.3125C33.329 14.6498 33.3447 14.6504 33.3594 14.6515C33.3821 14.6534 33.4026 14.6566 33.421 14.6612C33.4349 14.6645 33.4475 14.6688 33.459 14.6738C33.4735 14.6802 33.486 14.6877 33.4965 14.6966C33.5085 14.707 33.5185 14.7188 33.5266 14.7324C33.5355 14.7472 33.5421 14.764 33.5462 14.7826C33.5497 14.7981 33.5514 14.8149 33.5514 14.833C33.5514 14.8919 33.5336 14.9362 33.4976 14.9673C33.4819 14.9808 33.4611 14.9915 33.4353 14.9992C33.4019 15.0089 33.3602 15.0139 33.3102 15.0139ZM35.2805 15.0359C35.2378 15.0903 35.1817 15.1315 35.1144 15.1592C35.0452 15.1872 34.9714 15.2015 34.8967 15.2012C34.8226 15.2023 34.7488 15.1899 34.679 15.1648C34.6164 15.142 34.5591 15.1065 34.5108 15.0605C34.4925 15.0428 34.4757 15.0237 34.4605 15.0033L34.4482 14.986C34.4438 14.9795 34.4395 14.9729 34.4354 14.9661L34.4298 14.9566C34.4261 14.9502 34.4225 14.9437 34.4192 14.9371C34.4146 14.9283 34.4103 14.9195 34.4063 14.9104L34.4008 14.8972C34.3741 14.8299 34.3608 14.7579 34.3616 14.6854C34.3616 14.6134 34.3738 14.5467 34.3997 14.4836C34.4244 14.4203 34.4602 14.366 34.5052 14.3204C34.5501 14.2738 34.6039 14.2384 34.6645 14.2107C34.7285 14.1825 34.7977 14.1685 34.8676 14.1695C34.9471 14.1695 35.0213 14.1795 35.0886 14.1995C35.156 14.2194 35.2131 14.2527 35.2602 14.2995L35.1784 14.4381C35.1618 14.423 35.1439 14.4095 35.1251 14.3976C35.1157 14.3918 35.1062 14.3863 35.0963 14.3812C35.0887 14.3773 35.0809 14.3737 35.0728 14.3702L35.0579 14.364L35.0414 14.3581C34.9932 14.3426 34.9428 14.3347 34.8923 14.3349C34.8742 14.3349 34.8565 14.3363 34.8391 14.339C34.8132 14.3432 34.788 14.3505 34.7632 14.3604C34.7223 14.3768 34.685 14.401 34.6533 14.4315C34.6429 14.4416 34.6332 14.4524 34.6243 14.4638L34.6165 14.4741C34.6011 14.4953 34.5882 14.5182 34.5781 14.5424C34.5591 14.5855 34.5501 14.6333 34.5501 14.6866C34.5501 14.7408 34.5601 14.7897 34.5792 14.8319C34.5983 14.8751 34.6241 14.9118 34.6567 14.9428C34.6891 14.9739 34.7273 14.9971 34.771 15.0127C34.8149 15.0282 34.8609 15.0372 34.9102 15.0372C34.9467 15.0372 34.9807 15.0328 35.0125 15.024C35.0205 15.0218 35.0284 15.0194 35.0361 15.0166C35.0488 15.0123 35.061 15.0072 35.0729 15.0015C35.1195 14.979 35.1614 14.9477 35.1963 14.9096L35.2805 15.0359ZM35.3724 14.1906H36.2813V14.366H35.9154V15.1779H35.7382V14.366H35.3724V14.1906ZM36.4742 14.1909H36.6515V14.3073C36.6851 14.2672 36.7333 14.2353 36.7951 14.2086C36.8568 14.1819 36.9219 14.1686 36.9913 14.1686C37.0026 14.1683 37.0138 14.1686 37.025 14.1693C37.0476 14.1706 37.07 14.1734 37.092 14.1778C37.1232 14.1841 37.1538 14.1936 37.1832 14.2062C37.2386 14.2294 37.2881 14.2647 37.328 14.3095C37.3687 14.3554 37.3999 14.409 37.42 14.4669C37.4304 14.4966 37.4383 14.5277 37.4438 14.5604C37.4496 14.595 37.4525 14.6312 37.4525 14.669C37.4525 14.7432 37.4401 14.8132 37.4155 14.8785C37.3908 14.944 37.356 14.9994 37.31 15.0473C37.2633 15.095 37.2077 15.133 37.1463 15.1593C37.0823 15.1859 37.0116 15.2002 36.9331 15.2002C36.8803 15.2002 36.8287 15.1947 36.7794 15.1837C36.73 15.1726 36.6874 15.1559 36.6515 15.1326V15.6174H36.4742V14.1909ZM36.9399 14.3338C36.8804 14.3338 36.8254 14.3472 36.7749 14.3739C36.7245 14.4005 36.6829 14.4327 36.6516 14.4703V14.9596C36.6918 14.9865 36.7361 15.0069 36.7828 15.0196C36.8254 15.0307 36.8704 15.0361 36.9185 15.0361C36.9682 15.0371 37.0175 15.0276 37.0633 15.0084C37.1044 14.9916 37.1415 14.9662 37.1721 14.9341C37.2026 14.9015 37.226 14.863 37.2407 14.8209C37.2563 14.7765 37.2653 14.7289 37.2653 14.6756C37.2653 14.6644 37.265 14.6534 37.2643 14.6425L37.2628 14.625L37.2614 14.6125L37.2594 14.5996L37.2571 14.5872L37.254 14.5728C37.2512 14.5609 37.2479 14.5493 37.244 14.538C37.2305 14.4959 37.2092 14.4604 37.1812 14.4293C37.153 14.3983 37.1194 14.375 37.0791 14.3583C37.0375 14.3416 36.9915 14.3338 36.9399 14.3338ZM38.635 14.1907H38.8124V15.1781H38.635V14.1907ZM37.8845 14.1907H37.7072H37.7061V15.1791H38.0281C38.1066 15.1791 38.1717 15.168 38.2256 15.1483C38.2794 15.1282 38.3221 15.1016 38.3534 15.0683C38.3849 15.035 38.4085 14.9984 38.4219 14.9562C38.4365 14.9141 38.4432 14.8718 38.4432 14.8274C38.4432 14.783 38.4365 14.741 38.4241 14.6998C38.4118 14.659 38.3905 14.6222 38.3602 14.5912C38.3299 14.5601 38.2896 14.5346 38.239 14.5157C38.1885 14.497 38.1257 14.487 38.0483 14.487H37.8845V14.1907ZM38.0148 15.0139H37.8857V14.6522V14.6498H38.017C38.1022 14.6498 38.1639 14.6655 38.201 14.6966C38.2369 14.7277 38.2559 14.773 38.2559 14.833C38.2559 14.8919 38.238 14.9362 38.2021 14.9671C38.1662 14.9984 38.1033 15.0139 38.0148 15.0139ZM39.6628 14.6666L40.042 15.1781H39.8244L39.5315 14.7786L39.2342 15.1781H39.0278L39.4047 14.6754L39.0502 14.1906H39.2679L39.5383 14.5634L39.8131 14.1906H40.0196L39.6628 14.6666ZM24.0878 16.3983H23.5437V17.2216H23.3664V16.2343H24.2651V17.2216H24.0878V16.3983ZM25.2714 16.4094H24.9214L24.9101 16.5758C24.9023 16.6645 24.8928 16.7421 24.881 16.809C24.874 16.8485 24.8661 16.8843 24.8574 16.9164C24.8338 17.003 24.8046 17.0695 24.771 17.1161C24.7374 17.1628 24.698 17.1949 24.6531 17.2105C24.6068 17.2273 24.5578 17.2355 24.5085 17.2349L24.495 17.0639C24.5141 17.065 24.5365 17.0607 24.5611 17.0496C24.5859 17.0385 24.6106 17.0141 24.6341 16.9776C24.6577 16.9397 24.679 16.8865 24.698 16.8177C24.7171 16.7478 24.7296 16.6569 24.7362 16.5425L24.7542 16.2352H25.4487V17.2227H25.2714V16.4094ZM25.774 16.3019C25.8177 16.2741 25.8694 16.252 25.9266 16.2365C25.9851 16.2203 26.0455 16.2121 26.1061 16.2121C26.2475 16.2121 26.3473 16.2474 26.4034 16.3175C26.4606 16.3874 26.4888 16.4873 26.4888 16.6159V17.2216H26.3227V17.094C26.2934 17.1318 26.2531 17.1651 26.2027 17.1939C26.1521 17.2228 26.086 17.2372 26.0029 17.2372C25.911 17.2372 25.8368 17.2105 25.7808 17.1573C25.75 17.1283 25.7278 17.0925 25.7138 17.0501C25.7024 17.0151 25.6966 16.9758 25.6966 16.9322C25.6966 16.9251 25.6967 16.9181 25.6971 16.9111C25.6979 16.8956 25.7 16.8804 25.7032 16.8654C25.708 16.8421 25.7156 16.8194 25.7257 16.7978C25.7442 16.7595 25.7711 16.7258 25.8043 16.6992C25.822 16.6847 25.8419 16.6722 25.8641 16.6616C25.8827 16.6528 25.9028 16.6453 25.9244 16.6392C25.9714 16.6258 26.0209 16.6181 26.0736 16.6181C26.1165 16.6186 26.1593 16.6231 26.2014 16.6314C26.2176 16.6343 26.2334 16.6384 26.2488 16.6438C26.2749 16.6529 26.2998 16.6655 26.3227 16.6813C26.3227 16.6358 26.3204 16.5938 26.3148 16.5548C26.3118 16.5343 26.3076 16.5153 26.3019 16.4979C26.299 16.4891 26.2957 16.4806 26.2921 16.4727C26.2894 16.467 26.2865 16.4614 26.2835 16.4561C26.2677 16.4295 26.2453 16.4073 26.2149 16.3929C26.1952 16.3828 26.1718 16.3759 26.1441 16.3724L26.1305 16.371C26.1196 16.3701 26.1081 16.3696 26.096 16.3696C26.0344 16.3696 25.9826 16.3763 25.9423 16.3907C25.9306 16.3948 25.9188 16.3992 25.9071 16.4038C25.8785 16.415 25.8499 16.4275 25.8212 16.4417L25.774 16.3019ZM26.0658 17.0785C26.1065 17.0785 26.1424 17.0733 26.1734 17.0624C26.192 17.0557 26.2089 17.0471 26.224 17.0362C26.2604 17.0121 26.2936 16.9833 26.3228 16.9508V16.8254C26.2611 16.7811 26.1858 16.7602 26.0984 16.7602C26.0882 16.7602 26.0779 16.7606 26.0678 16.7615C26.0516 16.763 26.0356 16.7659 26.0199 16.7699C25.994 16.7767 25.9705 16.7866 25.9514 16.8C25.9324 16.8133 25.9154 16.83 25.9032 16.8511C25.8908 16.8721 25.8852 16.8955 25.8852 16.9232C25.8852 16.9697 25.9009 17.0074 25.9324 17.0362C25.9638 17.0641 26.0074 17.0785 26.0658 17.0785ZM26.6637 16.2343H27.5725V16.4095H27.2067V17.2216H27.0295V16.4097H26.6637V16.2343ZM28.4806 17.1788C28.4556 17.1918 28.429 17.2027 28.4006 17.2116C28.3333 17.2327 28.2659 17.2439 28.1997 17.2439C28.1244 17.2448 28.0496 17.2324 27.9787 17.2072C27.9125 17.1828 27.8563 17.1483 27.8104 17.1029C27.7643 17.0574 27.7274 17.003 27.7026 16.9399C27.6779 16.8764 27.6645 16.8056 27.6645 16.7279C27.6639 16.659 27.6757 16.5906 27.6993 16.5259C27.7094 16.4977 27.7221 16.4706 27.7374 16.445C27.7548 16.4155 27.7755 16.3879 27.7992 16.3629C27.8447 16.3158 27.8993 16.2784 27.9597 16.253C28.0236 16.2263 28.0965 16.212 28.1796 16.212C28.2413 16.2116 28.3026 16.223 28.3602 16.2453C28.4152 16.2658 28.4655 16.2972 28.5082 16.3374C28.5504 16.378 28.584 16.4267 28.607 16.4805C28.6317 16.536 28.6441 16.597 28.6441 16.6646C28.6441 16.7102 28.6406 16.7491 28.6329 16.7833H27.8654C27.8733 16.8766 27.9079 16.9499 27.9719 17.002C28.0359 17.054 28.1167 17.0796 28.2143 17.0796C28.2794 17.0796 28.3389 17.0697 28.3915 17.0497C28.4443 17.0297 28.4881 17.0053 28.5206 16.9763L28.5745 17.1139C28.5459 17.1395 28.5148 17.1611 28.4806 17.1788ZM28.1706 16.3762C28.0786 16.3762 28.0057 16.4007 27.9507 16.4505C27.8964 16.4995 27.8617 16.5666 27.8531 16.6392H28.459C28.4545 16.5571 28.4275 16.4927 28.3771 16.4461C28.3266 16.4007 28.2582 16.3762 28.1706 16.3762ZM28.9548 16.2343H28.7304L29.0972 16.7102L28.7136 17.2216H28.9312L29.297 16.7103L28.9548 16.2343ZM29.518 16.2343H29.3407V17.2216H29.518V16.2343ZM29.7615 16.7102L30.1519 17.2216H29.932L29.5617 16.7102L29.9061 16.2342H30.1262L29.7615 16.7102ZM31.1358 17.1139C31.0865 17.1582 31.0293 17.1905 30.9619 17.2116C30.897 17.2324 30.8293 17.2434 30.7612 17.2439C30.6859 17.2448 30.611 17.2324 30.5401 17.2072C30.4739 17.1828 30.4179 17.1483 30.3719 17.1029C30.3258 17.0574 30.2888 17.003 30.2641 16.9399C30.2394 16.8764 30.226 16.8056 30.226 16.7279C30.2253 16.659 30.2371 16.5906 30.2608 16.5259C30.2823 16.4653 30.3164 16.4097 30.3607 16.3629C30.4061 16.3158 30.4607 16.2784 30.5211 16.253C30.5851 16.2263 30.658 16.212 30.7409 16.212C30.8027 16.2116 30.864 16.223 30.9216 16.2453C30.9766 16.2658 31.027 16.2972 31.0697 16.3374C31.1119 16.378 31.1454 16.4267 31.1684 16.4805C31.1932 16.536 31.2054 16.597 31.2054 16.6646C31.2054 16.7102 31.2021 16.7491 31.1942 16.7833H30.4268C30.4347 16.8766 30.4694 16.9499 30.5333 17.002C30.5973 17.054 30.6781 17.0796 30.7757 17.0796C30.8408 17.0796 30.9002 17.0697 30.953 17.0497C31.0057 17.0297 31.0494 17.0053 31.082 16.9763L31.1358 17.1139ZM30.7321 16.3762C30.6401 16.3762 30.5672 16.4007 30.5121 16.4505C30.4578 16.4995 30.4231 16.5666 30.4145 16.6392H31.0204C31.016 16.5571 30.989 16.4927 30.9385 16.4461C30.888 16.4007 30.8185 16.3762 30.7321 16.3762ZM31.8017 15.8572C31.8303 15.8874 31.8713 15.9025 31.9247 15.9025C32.0234 15.9025 32.0784 15.8448 32.0863 15.7295H32.2523C32.2523 15.7738 32.2444 15.8137 32.2287 15.8515C32.2131 15.8892 32.1906 15.9214 32.1626 15.948C32.15 15.9594 32.1366 15.9701 32.1222 15.9797C32.1032 15.9925 32.0824 16.0034 32.0594 16.0123C32.0366 16.0217 32.0123 16.0282 31.9863 16.0322C31.9664 16.0352 31.9455 16.0366 31.9236 16.0366C31.9024 16.0366 31.8822 16.0355 31.8631 16.0331C31.8325 16.0293 31.8044 16.0226 31.7789 16.0123C31.7374 15.9957 31.7014 15.9747 31.6734 15.948C31.6565 15.9319 31.642 15.9137 31.6299 15.8935C31.6221 15.8804 31.6152 15.8663 31.6094 15.8515C31.6013 15.8305 31.5953 15.8088 31.5916 15.786C31.5886 15.7679 31.587 15.7491 31.587 15.7295H31.7542C31.7586 15.7859 31.7745 15.8284 31.8017 15.8572ZM31.6228 17.2216H31.4456V16.2342H31.6228V16.9697L32.1995 16.2342H32.3769V17.2216H32.1995V16.486L31.6228 17.2216Z" fill="#D0D0D0"/></svg>