<svg xmlns="http://www.w3.org/2000/svg"><symbol id="heart" viewBox="0 0 20 20" fill="none"><path d="M18.3854 2.49851C17.3184 1.31085 15.8639 0.587122 14.311 0.471068C12.758 0.355013 11.2202 0.855126 10.0031 1.87207C8.78585 0.855126 7.24806 0.355013 5.69513 0.471068C4.1422 0.587122 2.68775 1.31085 1.62067 2.49851C0.528532 3.77758 -0.0507117 5.44861 0.00348759 7.16379C0.0576869 8.87898 0.741154 10.5062 1.91164 11.7068L8.96789 19.0991C9.24072 19.3848 9.61072 19.5453 9.9965 19.5453C10.3823 19.5453 10.7523 19.3848 11.0251 19.0991L18.0814 11.7068C19.2537 10.508 19.9396 8.88176 19.9962 7.16655C20.0528 5.45134 19.4759 3.77931 18.3854 2.49851ZM17.0593 10.6292L10.0031 18.0215L2.9468 10.6292C2.04041 9.71061 1.50712 8.46117 1.45793 7.141C1.40874 5.82083 1.84745 4.53164 2.68274 3.5418C3.11678 3.0554 3.64029 2.66604 4.22174 2.39716C4.80319 2.12828 5.43057 1.98544 6.0661 1.97724H6.13885C6.76159 1.97516 7.37852 2.1027 7.95383 2.35244C8.52914 2.60219 9.05137 2.96916 9.4902 3.43206C9.62662 3.57493 9.81161 3.65519 10.0045 3.65519C10.1974 3.65519 10.3824 3.57493 10.5188 3.43206C10.9679 2.96151 11.5026 2.59025 12.0912 2.34032C12.6798 2.09039 13.3104 1.96687 13.9454 1.97711C14.5805 1.98734 15.2071 2.13112 15.7881 2.3999C16.3692 2.66869 16.8927 3.057 17.3277 3.5418C18.1625 4.53222 18.6004 5.82174 18.5504 7.14192C18.5004 8.4621 17.9663 9.71121 17.0593 10.6292Z" fill="var(--icon-fill)" style="transition:fill 0.25s ease"/><path d="M17.0593 10.6292L10.0031 18.0215L2.9468 10.6292C2.04041 9.71061 1.50712 8.46117 1.45793 7.141C1.40874 5.82083 1.84745 4.53164 2.68274 3.5418C3.11678 3.0554 3.64029 2.66604 4.22174 2.39716C4.80319 2.12828 5.43057 1.98544 6.0661 1.97724H6.13885C6.76159 1.97516 7.37852 2.1027 7.95383 2.35244C8.52914 2.60219 9.05137 2.96916 9.4902 3.43206C9.62662 3.57493 9.81161 3.65519 10.0045 3.65519C10.1974 3.65519 10.3824 3.57493 10.5188 3.43206C10.9679 2.96151 11.5026 2.59025 12.0912 2.34032C12.6798 2.09039 13.3104 1.96687 13.9454 1.97711C14.5805 1.98734 15.2071 2.13112 15.7881 2.3999C16.3692 2.66869 16.8927 3.057 17.3277 3.5418C18.1625 4.53222 18.6004 5.82174 18.5504 7.14192C18.5004 8.4621 17.9663 9.71121 17.0593 10.6292Z" fill="var(--icon-fill)" style="transition:fill 0.25s ease"/><path d="M18.3854 2.49851C17.3184 1.31085 15.8639 0.587122 14.311 0.471068C12.758 0.355013 11.2202 0.855126 10.0031 1.87207C8.78585 0.855126 7.24806 0.355013 5.69513 0.471068C4.1422 0.587122 2.68775 1.31085 1.62067 2.49851C0.528532 3.77758 -0.0507117 5.44861 0.00348759 7.16379C0.0576869 8.87898 0.741154 10.5062 1.91164 11.7068L8.96789 19.0991C9.24072 19.3848 9.61072 19.5453 9.9965 19.5453C10.3823 19.5453 10.7523 19.3848 11.0251 19.0991L18.0814 11.7068C19.2537 10.508 19.9396 8.88176 19.9962 7.16655C20.0528 5.45134 19.4759 3.77931 18.3854 2.49851ZM17.0593 10.6292L10.0031 18.0215L2.9468 10.6292C2.04041 9.71061 1.50712 8.46117 1.45793 7.141C1.40874 5.82083 1.84745 4.53164 2.68274 3.5418C3.11678 3.0554 3.64029 2.66604 4.22174 2.39716C4.80319 2.12828 5.43057 1.98544 6.0661 1.97724H6.13885C6.76159 1.97516 7.37852 2.1027 7.95383 2.35244C8.52914 2.60219 9.05137 2.96916 9.4902 3.43206C9.62662 3.57493 9.81161 3.65519 10.0045 3.65519C10.1974 3.65519 10.3824 3.57493 10.5188 3.43206C10.9679 2.96151 11.5026 2.59025 12.0912 2.34032C12.6798 2.09039 13.3104 1.96687 13.9454 1.97711C14.5805 1.98734 15.2071 2.13112 15.7881 2.3999C16.3692 2.66869 16.8927 3.057 17.3277 3.5418C18.1625 4.53222 18.6004 5.82174 18.5504 7.14192C18.5004 8.4621 17.9663 9.71121 17.0593 10.6292Z" fill="currentColor"/></symbol><symbol id="cart" viewBox="0 0 20 20" fill="none"><path d="M4.07351 2.88247C4.07169 2.87503 4.06965 2.86766 4.06738 2.86035C3.7926 1.94039 3.33754 1 2.04713 1H0.585938C0.262344 1 0 1.2626 0 1.58651C0 1.91042 0.262344 2.17302 0.585938 2.17302H2.04713C2.40332 2.17302 2.65822 2.24378 2.94141 3.18573L3.19347 4.16788H4.40357L4.07351 2.88247ZM19.5632 5.76663C19.2836 5.49061 18.913 5.33884 18.5191 5.33884H18.5178L3.49707 5.34998L5.43726 12.909C5.43851 12.9135 5.4397 12.9182 5.44091 12.9227C5.75551 14.0359 6.4496 14.6744 7.34523 14.6744H8.53811V15.3077C7.55982 15.5649 6.83692 16.4504 6.83692 17.5004C6.83692 18.751 7.86279 19.7685 9.12405 19.7685C10.3853 19.7685 11.4113 18.751 11.4113 17.5004C11.4113 16.4504 10.6882 15.5649 9.70998 15.3077V14.6744H15.9519V15.3077C14.9736 15.5649 14.2506 16.4504 14.2506 17.5004C14.2506 18.751 15.2766 19.7685 16.5378 19.7685C17.7991 19.7685 18.8251 18.751 18.8251 17.5004C18.8251 16.4504 18.1019 15.5649 17.1238 15.3077V14.6744H17.9685C19.0886 14.6744 20 13.7704 20 12.6591V6.81C20 6.41533 19.8448 6.04472 19.5631 5.76663H19.5632Z" fill="currentColor"/></symbol><symbol id="search" viewBox="0 0 20 20" fill="none"><path d="M19.7556 18.5773L14.0682 12.8899C15.1699 11.5291 15.8332 9.7999 15.8332 7.9166C15.8332 3.55164 12.2815 0 7.91656 0C3.55161 0 0 3.55161 0 7.91656C0 12.2815 3.55165 15.8332 7.9166 15.8332C9.7999 15.8332 11.5291 15.1699 12.8899 14.0682L18.5773 19.7556C18.7398 19.9181 18.9531 19.9998 19.1665 19.9998C19.3798 19.9998 19.5932 19.9181 19.7557 19.7556C20.0815 19.4298 20.0815 18.9031 19.7556 18.5773ZM7.9166 14.1665C4.46996 14.1665 1.66666 11.3632 1.66666 7.91656C1.66666 4.46992 4.46996 1.66662 7.9166 1.66662C11.3632 1.66662 14.1665 4.46992 14.1665 7.91656C14.1665 11.3632 11.3632 14.1665 7.9166 14.1665Z" fill="currentColor"/></symbol><symbol id="user" viewBox="0 0 20 20" fill="none"><path d="M10 0C4.48589 0 0 4.48589 0 10C0 15.5141 4.48589 20 10 20C15.5141 20 20 15.5141 20 10C20 4.48589 15.5141 0 10 0ZM16.0703 16.024C15.3036 14.4472 13.6872 13.3587 11.8164 13.3587H8.18358C6.31305 13.3587 4.69642 14.4472 3.92968 16.024C2.39389 14.4764 1.44337 12.3474 1.44337 10C1.44337 5.2819 5.2819 1.44337 10 1.44337C14.7181 1.44337 18.5566 5.2819 18.5566 10C18.5566 12.3474 17.6061 14.4764 16.0703 16.024Z" fill="currentColor"/><path d="M10.0011 11.9226C12.1245 11.9226 13.8459 10.2012 13.8459 8.07775C13.8459 5.9543 12.1245 4.23291 10.0011 4.23291C7.87764 4.23291 6.15625 5.9543 6.15625 8.07775C6.15625 10.2012 7.87764 11.9226 10.0011 11.9226Z" fill="currentColor"/></symbol><symbol id="compare" viewBox="0 0 20 20" fill="none"><path d="M0 4C0 1.79086 1.79086 0 4 0H16C18.2091 0 20 1.79086 20 4V16C20 18.2091 18.2091 20 16 20H4C1.79086 20 0 18.2091 0 16V4Z" fill="var(--icon-fill)" style="transition:fill 0.25s ease"/><path d="M16 18.2998V20H4V18.2998H16ZM18.2998 16V4C18.2998 2.72975 17.2703 1.7002 16 1.7002H4C2.72975 1.7002 1.7002 2.72975 1.7002 4V16C1.7002 17.2703 2.72975 18.2998 4 18.2998V20L3.79395 19.9951C1.7488 19.8913 0.108652 18.2512 0.00488281 16.2061L0 16V4C0 1.85996 1.68056 0.112115 3.79395 0.00488281L4 0H16L16.2061 0.00488281C18.3194 0.112115 20 1.85996 20 4V16L19.9951 16.2061C19.8913 18.2512 18.2512 19.8913 16.2061 19.9951L16 20V18.2998C17.2703 18.2998 18.2998 17.2703 18.2998 16Z" fill="currentColor"/><path d="M4.14844 10.8335L4.15234 10.7466C4.19572 10.3178 4.55783 9.98291 4.99805 9.98291C5.43826 9.98291 5.80037 10.3178 5.84375 10.7466L5.84766 10.8335L5.84766 16.6665L4.14844 16.6665L4.14844 10.8335Z" fill="currentColor"/><path d="M9.14844 4.99951L9.15234 4.9126C9.19602 4.48413 9.55805 4.1499 9.99805 4.1499C10.438 4.1499 10.8001 4.48413 10.8437 4.9126L10.8477 4.99951L10.8477 16.6665L9.14844 16.6665L9.14844 4.99951Z" fill="currentColor"/><path d="M14.1484 8.3335L14.1523 8.24658C14.1957 7.81781 14.5578 7.48291 14.998 7.48291C15.4383 7.48291 15.8004 7.81781 15.8437 8.24658L15.8477 8.3335L15.8477 16.6665L14.1484 16.6665L14.1484 8.3335Z" fill="currentColor"/></symbol><symbol id="arrow-left" viewBox="0 0 16 11" fill="none"><path d="M6.02713 0.218618C5.73556 -0.0729598 5.26255 -0.0727836 4.97086 0.218619L0.218045 4.97229C-0.0736217 5.26396 -0.0736216 5.73604 0.218045 6.02771L4.97086 10.7814C5.26255 11.0728 5.73556 11.073 6.02714 10.7814C6.31871 10.4898 6.31854 10.0168 6.02714 9.72511L2.54855 6.24652L14.8043 6.24651C15.2167 6.24651 15.5508 5.91248 15.5508 5.5C15.5508 5.08752 15.2167 4.75348 14.8043 4.75348L2.54855 4.75349L6.02713 1.27489C6.31854 0.983207 6.31871 0.510197 6.02713 0.218618Z" fill="currentColor"/></symbol><symbol id="arrow-right" viewBox="0 0 16 11" fill="none"><path d="M9.52365 0.218618C9.81523 -0.0729598 10.2882 -0.0727836 10.5799 0.218619L15.3327 4.97229C15.6244 5.26396 15.6244 5.73604 15.3327 6.02771L10.5799 10.7814C10.2882 11.0728 9.81522 11.073 9.52365 10.7814C9.23207 10.4898 9.23224 10.0168 9.52365 9.72511L13.0022 6.24652L0.746515 6.24651C0.334036 6.24651 -5.3589e-07 5.91248 -4.98504e-07 5.5C-4.61118e-07 5.08752 0.334036 4.75348 0.746515 4.75348L13.0022 4.75348L9.52365 1.27489C9.23225 0.983207 9.23207 0.510197 9.52365 0.218618Z" fill="currentColor"/></symbol><symbol id="vk" viewBox="0 0 24 24" fill="none"><path d="M13.0718 20C4.87188 20 0.194878 14.3694 0 5H4.10743C4.24235 11.8769 7.27038 14.7898 9.66888 15.3904V5H13.5366V10.9309C15.9051 10.6757 18.3933 7.97297 19.2328 5H23.1004C22.4558 8.66366 19.7575 11.3664 17.8387 12.4775C19.7575 13.3784 22.8307 15.7357 24 20H19.7425C18.8281 17.1471 16.5497 14.9399 13.5366 14.6396V20H13.0718Z" fill="currentColor"/></symbol><symbol id="tg" viewBox="0 0 24 24" fill="none"><path fill-rule="evenodd" clip-rule="evenodd" d="M3.44318 10.7489C9.07843 8.20866 12.8362 6.53397 14.7163 5.72491C20.0846 3.41475 21.2002 3.01342 21.9272 3.00014C22.0871 2.99725 22.4446 3.03826 22.6762 3.23272C23.0198 3.52116 23.0218 4.14725 22.9836 4.56162C22.6927 7.72412 21.4339 15.3986 20.7935 18.9406C20.5225 20.4394 19.989 20.9419 19.4725 20.9911C18.3499 21.098 17.4975 20.2235 16.4102 19.4862C14.7089 18.3323 13.7478 17.614 12.0963 16.488C10.1877 15.1868 11.425 14.4716 12.5126 13.3028C12.7973 12.9969 17.7433 8.34233 17.839 7.92006C17.8511 7.86725 17.8621 7.67037 17.7491 7.56647C17.6361 7.46256 17.4693 7.49803 17.3489 7.52631C17.1783 7.56639 14.4603 9.42506 9.19517 13.1023C8.42368 13.6504 7.72491 13.9174 7.09885 13.9034C6.40862 13.888 5.081 13.4997 4.094 13.1677C2.88342 12.7606 1.92127 12.5453 2.00509 11.8539C2.04873 11.4937 2.52807 11.1254 3.44318 10.7489Z" fill="currentColor"/></symbol><symbol id="ig" viewBox="0 0 24 24" fill="none"><path d="M18.5386 6.66237C18.5386 5.99768 17.9999 5.46097 17.3377 5.46097C16.6754 5.46097 16.1362 5.99768 16.1362 6.66237C16.1362 7.32462 16.6754 7.86133 17.3377 7.86133C17.9999 7.86133 18.5386 7.32462 18.5386 6.66237Z" fill="currentColor"/><path fill-rule="evenodd" clip-rule="evenodd" d="M6.86523 12.0012C6.86523 9.16495 9.16229 6.86296 11.9985 6.86296C14.8348 6.86296 17.1343 9.16495 17.1343 12.0012C17.1343 14.835 14.8348 17.1345 11.9985 17.1345C9.16229 17.1345 6.86523 14.835 6.86523 12.0012ZM8.66561 12.0012C8.66561 13.8411 10.1586 15.3317 11.9985 15.3317C13.839 15.3317 15.3339 13.8411 15.3339 12.0012C15.3339 10.1583 13.839 8.66582 11.9985 8.66582C10.1586 8.66582 8.66561 10.1583 8.66561 12.0012Z" fill="currentColor"/><path fill-rule="evenodd" clip-rule="evenodd" d="M21.9392 7.87709C21.8903 6.81157 21.7222 6.08361 21.4727 5.44956C21.2187 4.79177 20.8781 4.2343 20.3207 3.67684C19.7657 3.12186 19.2082 2.78134 18.5504 2.52437C17.9139 2.27725 17.1884 2.10723 16.1224 2.06079C15.0564 2.00938 14.7159 2 11.9988 2C9.28409 2 8.94112 2.00938 7.87512 2.06079C6.81157 2.10723 6.08657 2.27725 5.44708 2.52437C4.79176 2.78134 4.2343 3.12186 3.67932 3.67684C3.12186 4.2343 2.78134 4.79177 2.52485 5.44956C2.27773 6.08361 2.10971 6.81157 2.0583 7.87709C2.01186 8.94309 2 9.28409 2 12.0012C2 14.7159 2.01186 15.0564 2.0583 16.1224C2.10971 17.1859 2.27773 17.9134 2.52485 18.5504C2.78134 19.2058 3.12186 19.7657 3.67932 20.3207C4.2343 20.8757 4.79176 21.2187 5.44708 21.4752C6.08657 21.7222 6.81157 21.8903 7.87512 21.9392C8.94112 21.9881 9.28409 22 11.9988 22C14.7159 22 15.0564 21.9881 16.1224 21.9392C17.1884 21.8903 17.9139 21.7222 18.5504 21.4752C19.2082 21.2187 19.7657 20.8757 20.3207 20.3207C20.8781 19.7657 21.2187 19.2058 21.4727 18.5504C21.7222 17.9134 21.8903 17.1859 21.9392 16.1224C21.9881 15.0564 22 14.7159 22 12.0012C22 9.28409 21.9881 8.94309 21.9392 7.87709ZM20.1388 16.0404C20.0943 17.0154 19.9312 17.5452 19.7958 17.8971C19.614 18.3636 19.397 18.6972 19.0451 19.0471C18.6972 19.397 18.3636 19.6135 17.8971 19.7934C17.5452 19.9307 17.0134 20.0943 16.0384 20.1408C14.9843 20.1872 14.6719 20.1971 11.9988 20.1971C9.32808 20.1971 9.01325 20.1872 7.95911 20.1408C6.98407 20.0943 6.45478 19.9307 6.10288 19.7934C5.63389 19.6135 5.30278 19.397 4.95289 19.0471C4.60051 18.6972 4.38356 18.3636 4.20417 17.8971C4.06873 17.5452 3.9032 17.0154 3.86116 16.0404C3.80979 14.9862 3.80038 14.6689 3.80038 12.0012C3.80038 9.32809 3.80979 9.01325 3.86116 7.95911C3.9032 6.98407 4.06873 6.45478 4.20417 6.09991C4.38356 5.63389 4.60051 5.30227 4.95289 4.95237C5.30278 4.60299 5.63389 4.38601 6.10288 4.20417C6.45478 4.06628 6.98407 3.90516 7.95911 3.85872C9.01325 3.81224 9.32808 3.80038 11.9988 3.80038C14.6719 3.80038 14.9843 3.81224 16.0384 3.85872C17.0134 3.90516 17.5452 4.06628 17.8971 4.20417C18.3636 4.38601 18.6972 4.60299 19.0451 4.95237C19.397 5.30227 19.614 5.63389 19.7958 6.09991C19.9312 6.45478 20.0943 6.98407 20.1388 7.95911C20.1877 9.01325 20.1996 9.32809 20.1996 12.0012C20.1996 14.6689 20.1877 14.9862 20.1388 16.0404Z" fill="currentColor"/></symbol><symbol id="wa" viewBox="0 0 24 24" fill="none"><path d="M19.3547 4.55156C17.3906 2.58281 14.775 1.5 11.9953 1.5C6.25781 1.5 1.58906 6.16875 1.58906 11.9062C1.58906 13.7391 2.06719 15.5297 2.97656 17.1094L1.5 22.5L7.01719 21.0516C8.53594 21.8813 10.2469 22.3172 11.9906 22.3172H11.9953C17.7281 22.3172 22.5 17.6484 22.5 11.9109C22.5 9.13125 21.3187 6.52031 19.3547 4.55156V4.55156ZM11.9953 20.5641C10.4391 20.5641 8.91562 20.1469 7.58906 19.3594L7.275 19.1719L4.00313 20.0297L4.875 16.8375L4.66875 16.5094C3.80156 15.1313 3.34688 13.5422 3.34688 11.9062C3.34688 7.13906 7.22812 3.25781 12 3.25781C14.3109 3.25781 16.4812 4.15781 18.1125 5.79375C19.7437 7.42969 20.7469 9.6 20.7422 11.9109C20.7422 16.6828 16.7625 20.5641 11.9953 20.5641V20.5641ZM16.7391 14.0859C16.4813 13.9547 15.2016 13.3266 14.9625 13.2422C14.7234 13.1531 14.55 13.1109 14.3766 13.3734C14.2031 13.6359 13.7063 14.2172 13.5516 14.3953C13.4016 14.5688 13.2469 14.5922 12.9891 14.4609C11.4609 13.6969 10.4578 13.0969 9.45 11.3672C9.18281 10.9078 9.71719 10.9406 10.2141 9.94687C10.2984 9.77344 10.2562 9.62344 10.1906 9.49219C10.125 9.36094 9.60469 8.08125 9.38906 7.56094C9.17813 7.05469 8.9625 7.125 8.80313 7.11563C8.65313 7.10625 8.47969 7.10625 8.30625 7.10625C8.13281 7.10625 7.85156 7.17188 7.6125 7.42969C7.37344 7.69219 6.70312 8.32031 6.70312 9.6C6.70312 10.8797 7.63594 12.1172 7.7625 12.2906C7.89375 12.4641 9.59531 15.0891 12.2062 16.2188C13.8562 16.9312 14.5031 16.9922 15.3281 16.8703C15.8297 16.7953 16.8656 16.2422 17.0812 15.6328C17.2969 15.0234 17.2969 14.5031 17.2313 14.3953C17.1703 14.2781 16.9969 14.2125 16.7391 14.0859Z" fill="currentColor"/></symbol><symbol id="location" viewBox="0 0 18 18" fill="none"><path d="M8.99939 0C5.40484 0 2.48047 2.92437 2.48047 6.51888C2.48047 10.9798 8.31426 17.5287 8.56264 17.8053C8.79594 18.0651 9.20326 18.0647 9.43613 17.8053C9.68451 17.5287 15.5183 10.9798 15.5183 6.51888C15.5182 2.92437 12.5939 0 8.99939 0ZM8.99939 9.79871C7.19088 9.79871 5.71959 8.32739 5.71959 6.51888C5.71959 4.71037 7.19091 3.23909 8.99939 3.23909C10.8079 3.23909 12.2791 4.71041 12.2791 6.51892C12.2791 8.32743 10.8079 9.79871 8.99939 9.79871Z" fill="currentColor"/></symbol><symbol id="telephone" viewBox="0 0 18 18" fill="none"><path d="M9.09891 4.29686C12.1319 4.32662 14.0319 4.13791 14.2885 7.49963H17.987C17.987 2.2918 13.4451 1.58984 9.00263 1.58984C4.55978 1.58984 0.0182055 2.2918 0.0182055 7.49963H3.68802C3.97195 4.07384 6.09115 4.26745 9.09891 4.29686ZM1.85241 9.17384C2.75323 9.17384 3.50281 9.22775 3.66946 8.34164C3.69187 8.2212 3.70482 8.08466 3.70482 7.92676H0C0 9.24491 0.829401 9.17384 1.85241 9.17384ZM14.3123 7.92676H14.2777C14.2777 8.08571 14.2913 8.2226 14.3169 8.34164C14.4926 9.15878 15.2412 9.10802 16.1388 9.10802C17.1667 9.10802 18 9.17559 18 7.92676H14.3123Z" fill="currentColor"/><path d="M12.5056 7.02952V6.50576C12.5056 6.27154 12.2356 6.25684 11.9023 6.25684H11.3579C11.025 6.25684 10.755 6.27154 10.755 6.50576V7.30715H6.90388V6.50576C6.90388 6.27154 6.63394 6.25684 6.30099 6.25684H5.75623C5.42328 6.25684 5.15335 6.27154 5.15335 6.50576V7.48676C4.27598 8.39843 1.40511 12.2794 1.30078 12.7492L1.30218 15.8844C1.30218 16.1739 1.5378 16.4096 1.82734 16.4096H15.8316C16.1211 16.4096 16.3567 16.1739 16.3567 15.8844V12.7334C16.2534 12.2773 13.3833 8.39808 12.5056 7.48641V7.02952ZM6.71412 13.1711C6.64598 13.1729 6.57818 13.161 6.51471 13.1361C6.45124 13.1113 6.39339 13.074 6.34456 13.0264C6.29574 12.9789 6.25694 12.922 6.23044 12.8592C6.20395 12.7964 6.1903 12.729 6.1903 12.6608C6.1903 12.5926 6.20395 12.5252 6.23044 12.4624C6.25694 12.3996 6.29574 12.3427 6.34456 12.2952C6.39339 12.2476 6.45124 12.2103 6.51471 12.1855C6.57818 12.1606 6.64598 12.1487 6.71412 12.1505C6.84714 12.154 6.97354 12.2093 7.06639 12.3046C7.15924 12.3999 7.21121 12.5277 7.21121 12.6608C7.21121 12.7939 7.15924 12.9217 7.06639 13.017C6.97354 13.1123 6.84714 13.1676 6.71412 13.1711ZM6.71412 11.4205C6.64598 11.4223 6.57818 11.4105 6.51471 11.3856C6.45124 11.3608 6.39339 11.3235 6.34456 11.2759C6.29574 11.2284 6.25694 11.1715 6.23044 11.1087C6.20395 11.0459 6.1903 10.9784 6.1903 10.9103C6.1903 10.8421 6.20395 10.7746 6.23044 10.7118C6.25694 10.649 6.29574 10.5922 6.34456 10.5446C6.39339 10.4971 6.45124 10.4598 6.51471 10.4349C6.57818 10.4101 6.64598 10.3982 6.71412 10.4C6.84714 10.4035 6.97354 10.4588 7.06639 10.5541C7.15924 10.6494 7.21121 10.7772 7.21121 10.9103C7.21121 11.0433 7.15924 11.1711 7.06639 11.2665C6.97354 11.3618 6.84714 11.4171 6.71412 11.4205ZM6.71412 9.67037C6.64598 9.67215 6.57818 9.66028 6.51471 9.63543C6.45124 9.61059 6.39339 9.57329 6.34456 9.52573C6.29574 9.47817 6.25694 9.42131 6.23044 9.35852C6.20395 9.29572 6.1903 9.22825 6.1903 9.16009C6.1903 9.09193 6.20395 9.02446 6.23044 8.96166C6.25694 8.89887 6.29574 8.84201 6.34456 8.79445C6.39339 8.74689 6.45124 8.70959 6.51471 8.68475C6.57818 8.6599 6.64598 8.64803 6.71412 8.64981C6.84714 8.6533 6.97354 8.70859 7.06639 8.8039C7.15924 8.89922 7.21121 9.02702 7.21121 9.16009C7.21121 9.29316 7.15924 9.42096 7.06639 9.51628C6.97354 9.61159 6.84714 9.66689 6.71412 9.67037ZM8.81475 13.1711C8.74662 13.1729 8.67882 13.161 8.61535 13.1361C8.55187 13.1113 8.49402 13.074 8.4452 13.0264C8.39638 12.9789 8.35757 12.922 8.33108 12.8592C8.30458 12.7964 8.29093 12.729 8.29093 12.6608C8.29093 12.5926 8.30458 12.5252 8.33108 12.4624C8.35757 12.3996 8.39638 12.3427 8.4452 12.2952C8.49402 12.2476 8.55187 12.2103 8.61535 12.1855C8.67882 12.1606 8.74662 12.1487 8.81475 12.1505C8.94778 12.154 9.07418 12.2093 9.16703 12.3046C9.25988 12.3999 9.31184 12.5277 9.31184 12.6608C9.31184 12.7939 9.25988 12.9217 9.16703 13.017C9.07418 13.1123 8.94778 13.1676 8.81475 13.1711ZM8.81475 11.4205C8.74662 11.4223 8.67882 11.4105 8.61535 11.3856C8.55187 11.3608 8.49402 11.3235 8.4452 11.2759C8.39638 11.2284 8.35757 11.1715 8.33108 11.1087C8.30458 11.0459 8.29093 10.9784 8.29093 10.9103C8.29093 10.8421 8.30458 10.7746 8.33108 10.7118C8.35757 10.649 8.39638 10.5922 8.4452 10.5446C8.49402 10.4971 8.55187 10.4598 8.61535 10.4349C8.67882 10.4101 8.74662 10.3982 8.81475 10.4C8.94778 10.4035 9.07418 10.4588 9.16703 10.5541C9.25988 10.6494 9.31184 10.7772 9.31184 10.9103C9.31184 11.0433 9.25988 11.1711 9.16703 11.2665C9.07418 11.3618 8.94778 11.4171 8.81475 11.4205ZM8.81475 9.67037C8.74662 9.67215 8.67882 9.66028 8.61535 9.63543C8.55187 9.61059 8.49402 9.57329 8.4452 9.52573C8.39638 9.47817 8.35757 9.42131 8.33108 9.35852C8.30458 9.29572 8.29093 9.22825 8.29093 9.16009C8.29093 9.09193 8.30458 9.02446 8.33108 8.96166C8.35757 8.89887 8.39638 8.84201 8.4452 8.79445C8.49402 8.74689 8.55187 8.70959 8.61535 8.68475C8.67882 8.6599 8.74662 8.64803 8.81475 8.64981C8.94778 8.6533 9.07418 8.70859 9.16703 8.8039C9.25988 8.89922 9.31184 9.02702 9.31184 9.16009C9.31184 9.29316 9.25988 9.42096 9.16703 9.51628C9.07418 9.61159 8.94778 9.66689 8.81475 9.67037ZM10.9154 13.1711C10.78 13.1711 10.6502 13.1173 10.5544 13.0216C10.4587 12.9258 10.4049 12.796 10.4049 12.6606C10.4049 12.5252 10.4587 12.3954 10.5544 12.2997C10.6502 12.204 10.78 12.1502 10.9154 12.1502C11.0508 12.1502 11.1806 12.204 11.2763 12.2997C11.372 12.3954 11.4258 12.5252 11.4258 12.6606C11.4258 12.796 11.372 12.9258 11.2763 13.0216C11.1806 13.1173 11.0508 13.1711 10.9154 13.1711ZM10.9154 11.4205C10.78 11.4205 10.6502 11.3668 10.5544 11.271C10.4587 11.1753 10.4049 11.0455 10.4049 10.9101C10.4049 10.7747 10.4587 10.6449 10.5544 10.5491C10.6502 10.4534 10.78 10.3996 10.9154 10.3996C11.0508 10.3996 11.1806 10.4534 11.2763 10.5491C11.372 10.6449 11.4258 10.7747 11.4258 10.9101C11.4258 11.0455 11.372 11.1753 11.2763 11.271C11.1806 11.3668 11.0508 11.4205 10.9154 11.4205ZM10.9154 9.67037C10.78 9.67037 10.6502 9.61659 10.5544 9.52086C10.4587 9.42513 10.4049 9.2953 10.4049 9.15991C10.4049 9.02453 10.4587 8.8947 10.5544 8.79897C10.6502 8.70324 10.78 8.64946 10.9154 8.64946C11.0508 8.64946 11.1806 8.70324 11.2763 8.79897C11.372 8.8947 11.4258 9.02453 11.4258 9.15991C11.4258 9.2953 11.372 9.42513 11.2763 9.52086C11.1806 9.61659 11.0508 9.67037 10.9154 9.67037Z" fill="currentColor"/></symbol><symbol id="mail" viewBox="0 0 19 20" fill="none"><path d="M0 4.69621V15.2925L5.92581 9.33621L0 4.69621ZM0.888287 3.90527L9.50393 10.6515L18.3244 3.90527H0.888287ZM13.1117 9.36645L19 15.1148V4.86289L13.1117 9.36645Z" fill="currentColor"/><path d="M12.1789 10.0813L9.83458 11.8743C9.73781 11.9484 9.62121 11.9883 9.50156 11.9882C9.37971 11.9883 9.26113 11.947 9.16342 11.8704L6.84961 10.0586L0.84375 16.0953H18.3393L12.1789 10.0813Z" fill="currentColor"/></symbol><symbol id="clock" viewBox="0 0 20 20" fill="none"><path d="M10 3.4375C8.70206 3.4375 7.43327 3.82238 6.35407 4.54348C5.27488 5.26458 4.43374 6.2895 3.93704 7.48864C3.44034 8.68778 3.31038 10.0073 3.5636 11.2803C3.81682 12.5533 4.44183 13.7226 5.35961 14.6404C6.2774 15.5582 7.44672 16.1832 8.71972 16.4364C9.99272 16.6896 11.3122 16.5597 12.5114 16.063C13.7105 15.5663 14.7354 14.7251 15.4565 13.6459C16.1776 12.5667 16.5625 11.2979 16.5625 10C16.5607 8.26008 15.8687 6.59194 14.6384 5.36162C13.4081 4.13131 11.7399 3.43932 10 3.4375ZM12.9875 12.2625C12.9293 12.3362 12.8553 12.3958 12.7709 12.4369C12.6865 12.4781 12.5939 12.4996 12.5 12.5C12.3587 12.5011 12.2215 12.4524 12.1125 12.3625L9.6125 10.4875C9.53884 10.4293 9.47924 10.3552 9.43813 10.2708C9.39701 10.1865 9.37544 10.0939 9.375 10V5.625C9.375 5.45924 9.44085 5.30027 9.55806 5.18306C9.67527 5.06585 9.83424 5 10 5C10.1658 5 10.3247 5.06585 10.4419 5.18306C10.5592 5.30027 10.625 5.45924 10.625 5.625V9.7L12.8875 11.3875C12.9525 11.4376 13.0069 11.5003 13.0472 11.5719C13.0876 11.6434 13.1132 11.7223 13.1225 11.8039C13.1318 11.8854 13.1247 11.9681 13.1015 12.0469C13.0783 12.1256 13.0395 12.199 12.9875 12.2625Z" fill="currentColor"/><path d="M10 0.625C8.1458 0.625 6.33324 1.17483 4.79153 2.20497C3.24982 3.23511 2.04821 4.69929 1.33863 6.41234C0.629062 8.1254 0.443406 10.0104 0.805142 11.829C1.16688 13.6475 2.05976 15.318 3.37088 16.6291C4.682 17.9402 6.35246 18.8331 8.17103 19.1949C9.98961 19.5566 11.8746 19.3709 13.5877 18.6614C15.3007 17.9518 16.7649 16.7502 17.795 15.2085C18.8252 13.6668 19.375 11.8542 19.375 10C19.372 7.51451 18.3834 5.13167 16.6258 3.37416C14.8683 1.61665 12.4855 0.627977 10 0.625ZM10 17.8544C8.44656 17.8544 6.92799 17.3937 5.63635 16.5307C4.3447 15.6676 3.33799 14.4409 2.74351 13.0057C2.14903 11.5705 1.99349 9.99129 2.29655 8.46769C2.59961 6.94409 3.34767 5.54457 4.44612 4.44612C5.54458 3.34766 6.94409 2.59961 8.46769 2.29654C9.99129 1.99348 11.5705 2.14902 13.0057 2.7435C14.4409 3.33798 15.6676 4.3447 16.5307 5.63634C17.3937 6.92799 17.8544 8.44655 17.8544 10C17.8524 12.0825 17.0242 14.0791 15.5517 15.5517C14.0791 17.0242 12.0825 17.8524 10 17.8544Z" fill="currentColor"/></symbol><symbol id="star" viewBox="0 0 24 24" fill="none"><path d="M14.9233 7.08817L12.8609 3.49797C12.4779 2.83136 11.5173 2.82817 11.13 3.49222L8.95364 7.22309C8.66538 7.71726 8.1793 8.06432 7.61831 8.17651L4.6446 8.77126C3.87441 8.92529 3.5743 9.86638 4.11312 10.4379L6.26395 12.719C6.72388 13.2068 6.9088 13.8926 6.75645 14.5455L5.78292 18.7178C5.5828 19.5755 6.5089 20.2543 7.26657 19.8053L10.9808 17.6043C11.6095 17.2318 12.3913 17.2318 13.02 17.6043L16.7342 19.8053C17.4919 20.2543 18.418 19.5755 18.2179 18.7178L17.2358 14.509C17.0882 13.8763 17.257 13.2114 17.6887 12.7258L19.8421 10.3031C20.3552 9.7259 20.0482 8.80965 19.2908 8.65819L16.2653 8.05308C15.6998 7.93998 15.2106 7.58825 14.9233 7.08817Z" fill="currentColor" stroke="currentColor" stroke-width="2" stroke-miterlimit="10"/></symbol><symbol id="check" viewBox="0 0 12 12" fill="none"><path d="M10 4.5L4.85355 9.64645C4.65829 9.84171 4.34171 9.84171 4.14645 9.64645L2 7.5" stroke="currentColor" stroke-width="1.2" stroke-linecap="round"/></symbol><symbol id="question" viewBox="0 0 15 15" fill="none"><path d="M7.5 11.25V11.2563M5 6.25C5 4.86929 6.11929 3.75 7.5 3.75C8.88071 3.75 10 4.86929 10 6.25C10 7.41718 9.20015 8.39754 8.11868 8.67286C7.78417 8.75802 7.5 9.02982 7.5 9.375M14.375 7.5C14.375 11.297 11.297 14.375 7.5 14.375C3.70304 14.375 0.625 11.297 0.625 7.5C0.625 3.70304 3.70304 0.625 7.5 0.625C11.297 0.625 14.375 3.70304 14.375 7.5Z" stroke="currentColor" stroke-linecap="round"/></symbol><symbol id="cart-add" viewBox="0 0 21 21" fill="none"><path d="M19.0295 5.25H17.717V3.9375C17.717 3.76345 17.6479 3.59653 17.5248 3.47346C17.4017 3.35039 17.2348 3.28125 17.0608 3.28125C16.8867 3.28125 16.7198 3.35039 16.5967 3.47346C16.4737 3.59653 16.4045 3.76345 16.4045 3.9375V5.25H15.092C14.918 5.25 14.7511 5.31914 14.628 5.44221C14.5049 5.56528 14.4358 5.7322 14.4358 5.90625C14.4358 6.0803 14.5049 6.24722 14.628 6.37029C14.7511 6.49336 14.918 6.5625 15.092 6.5625H16.4045V7.875C16.4045 8.04905 16.4737 8.21597 16.5967 8.33904C16.7198 8.46211 16.8867 8.53125 17.0608 8.53125C17.2348 8.53125 17.4017 8.46211 17.5248 8.33904C17.6479 8.21597 17.717 8.04905 17.717 7.875V6.5625H19.0295C19.2036 6.5625 19.3705 6.49336 19.4936 6.37029C19.6166 6.24722 19.6858 6.0803 19.6858 5.90625C19.6858 5.7322 19.6166 5.56528 19.4936 5.44221C19.3705 5.31914 19.2036 5.25 19.0295 5.25ZM18.4389 10.5C18.2823 10.5 18.1308 10.5561 18.0119 10.658C17.893 10.76 17.8145 10.9011 17.7905 11.0558L17.6252 12.1144C17.5564 12.5796 17.3221 13.0043 16.9652 13.3106C16.6083 13.6168 16.1529 13.7839 15.6827 13.7812H9.68453C9.21429 13.7839 8.75888 13.6168 8.402 13.3106C8.04513 13.0043 7.81078 12.5796 7.74203 12.1144L6.88891 6.5625H11.8108C11.9848 6.5625 12.1517 6.49336 12.2748 6.37029C12.3979 6.24722 12.467 6.0803 12.467 5.90625C12.467 5.7322 12.3979 5.56528 12.2748 5.44221C12.1517 5.31914 11.9848 5.25 11.8108 5.25H6.63297L6.35209 4.11863C6.24601 3.69206 6.00024 3.31327 5.65392 3.04259C5.30759 2.7719 4.88065 2.6249 4.44109 2.625H2.18359C2.00955 2.625 1.84263 2.69414 1.71956 2.81721C1.59648 2.94028 1.52734 3.1072 1.52734 3.28125C1.52734 3.4553 1.59648 3.62222 1.71956 3.74529C1.84263 3.86836 2.00955 3.9375 2.18359 3.9375H4.44109C4.58765 3.93761 4.72996 3.98678 4.84533 4.07717C4.96069 4.16757 5.04248 4.29397 5.07766 4.43625L6.44266 12.3113C6.51296 12.7847 6.68709 13.2367 6.95258 13.6349C7.21806 14.0331 7.56832 14.3677 7.97828 14.6147C7.74197 14.8896 7.57551 15.2175 7.49302 15.5706C7.41053 15.9236 7.41446 16.2913 7.50447 16.6425C7.64241 17.1848 7.9736 17.6582 8.43584 17.9736C8.89808 18.289 9.45958 18.4248 10.0149 18.3555C10.5702 18.2862 11.0811 18.0166 11.4516 17.5973C11.8222 17.1779 12.0269 16.6377 12.0273 16.0781C12.026 15.7369 11.9475 15.4003 11.7977 15.0938H13.5695C13.3418 15.5574 13.2811 16.0854 13.3976 16.5887C13.4722 16.9293 13.6233 17.2485 13.8396 17.522C14.0558 17.7955 14.3315 18.0162 14.6458 18.1674C14.96 18.3185 15.3045 18.3961 15.6532 18.3943C16.0019 18.3925 16.3456 18.3113 16.6582 18.157C16.9709 18.0026 17.2443 17.779 17.4577 17.5033C17.6711 17.2276 17.819 16.9068 17.89 16.5655C17.9611 16.2241 17.9535 15.871 17.8678 15.533C17.7821 15.195 17.6206 14.881 17.3955 14.6147C17.8037 14.3664 18.1522 14.0313 18.4165 13.6332C18.6807 13.2352 18.8542 12.7838 18.9245 12.3113L19.0853 11.2547C19.0995 11.1615 19.0933 11.0663 19.0674 10.9756C19.0414 10.885 18.9962 10.801 18.9349 10.7293C18.8736 10.6577 18.7975 10.6002 18.7119 10.5606C18.6263 10.521 18.5332 10.5003 18.4389 10.5ZM9.73047 17.0625C9.53578 17.0625 9.34546 17.0048 9.18358 16.8966C9.0217 16.7884 8.89553 16.6347 8.82102 16.4548C8.74652 16.275 8.72703 16.077 8.76501 15.8861C8.80299 15.6951 8.89674 15.5197 9.03441 15.3821C9.17208 15.2444 9.34748 15.1506 9.53843 15.1127C9.72938 15.0747 9.9273 15.0942 10.1072 15.1687C10.287 15.2432 10.4408 15.3694 10.5489 15.5312C10.6571 15.6931 10.7148 15.8834 10.7148 16.0781C10.7148 16.3392 10.6111 16.5896 10.4265 16.7742C10.2419 16.9588 9.99154 17.0625 9.73047 17.0625ZM15.6367 17.0625C15.442 17.0625 15.2517 17.0048 15.0898 16.8966C14.9279 16.7884 14.8018 16.6347 14.7273 16.4548C14.6528 16.275 14.6333 16.077 14.6713 15.8861C14.7092 15.6951 14.803 15.5197 14.9407 15.3821C15.0783 15.2444 15.2537 15.1506 15.4447 15.1127C15.6356 15.0747 15.8336 15.0942 16.0134 15.1687C16.1933 15.2432 16.347 15.3694 16.4552 15.5312C16.5634 15.6931 16.6211 15.8834 16.6211 16.0781C16.6211 16.3392 16.5174 16.5896 16.3328 16.7742C16.1482 16.9588 15.8978 17.0625 15.6367 17.0625Z" fill="currentColor"/></symbol><symbol id="chevron-down" viewBox="0 0 24 24" fill="none"><path d="M17.2927 9.29289C17.6833 8.90237 18.3163 8.90237 18.7068 9.29289C19.0973 9.68342 19.0973 10.3164 18.7068 10.707L13.4138 15.9999C12.6816 16.7321 11.5226 16.7783 10.7371 16.1376L10.5857 15.9999L5.29273 10.707L5.22437 10.6308C4.90402 10.238 4.92662 9.65901 5.29273 9.29289C5.65885 8.92678 6.23785 8.90418 6.63063 9.22453L6.7068 9.29289L11.9998 14.5859L17.2927 9.29289Z" fill="currentColor"/></symbol><symbol id="filter" viewBox="0 0 18 18" fill="none"><path d="M13.2 0.000488281C12.8816 0.000492073 12.5763 0.126885 12.3512 0.351863C12.1261 0.57684 11.9996 0.881973 11.9996 1.20014V1.80055H1.20035C0.882006 1.80055 0.576699 1.92693 0.351591 2.1519C0.126483 2.37686 1.26381e-05 2.68198 0 3.00014C-1.43976e-06 3.15768 0.0310454 3.31367 0.091368 3.45922C0.151691 3.60477 0.240107 3.73701 0.35157 3.84841C0.463033 3.95981 0.59536 4.04818 0.740994 4.10846C0.886628 4.16875 1.04272 4.19978 1.20035 4.19979H11.9996V4.8009C11.9996 5.11906 12.1261 5.4242 12.3512 5.64917C12.5763 5.87415 12.8816 6.00054 13.2 6.00055C13.5184 6.00054 13.8237 5.87415 14.0488 5.64917C14.2739 5.4242 14.4004 5.11906 14.4004 4.8009V4.19979H16.7996C16.9572 4.19979 17.1133 4.16877 17.259 4.10848C17.4046 4.0482 17.5369 3.95983 17.6484 3.84843C17.7599 3.73703 17.8483 3.60478 17.9086 3.45923C17.969 3.31368 18 3.15768 18 3.00014C18 2.8426 17.9689 2.6866 17.9086 2.54106C17.8483 2.39551 17.7599 2.26327 17.6484 2.15188C17.5369 2.04049 17.4046 1.95213 17.259 1.89185C17.1133 1.83156 16.9572 1.80054 16.7996 1.80055H14.4004V1.20014C14.4004 0.881973 14.2739 0.57684 14.0488 0.351863C13.8237 0.126885 13.5184 0.000492073 13.2 0.000488281ZM4.5 6.00049C4.34236 6.00048 4.18627 6.03151 4.04062 6.09179C3.89498 6.15208 3.76265 6.24044 3.65118 6.35184C3.53971 6.46324 3.45129 6.59549 3.39096 6.74104C3.33064 6.88659 3.29959 7.04259 3.29959 7.20014V7.80049H1.2007C1.04307 7.80049 0.886979 7.83152 0.741345 7.89181C0.595711 7.9521 0.463385 8.04046 0.351922 8.15186C0.240459 8.26326 0.152042 8.39551 0.0917195 8.54105C0.031397 8.6866 0.000350102 8.8426 0.000351557 9.00014C0.000350102 9.15768 0.031397 9.31367 0.0917195 9.45922C0.152042 9.60477 0.240459 9.73701 0.351922 9.84841C0.463385 9.95981 0.595711 10.0482 0.741345 10.1085C0.886979 10.1688 1.04307 10.1998 1.2007 10.1998H3.29959V10.8009C3.29959 10.9584 3.33064 11.1144 3.39096 11.26C3.45129 11.4055 3.53971 11.5378 3.65118 11.6492C3.76265 11.7606 3.89498 11.849 4.04062 11.9092C4.18626 11.9695 4.34236 12.0006 4.5 12.0005C4.81836 12.0005 5.12367 11.8742 5.34878 11.6492C5.57389 11.4242 5.70035 11.1191 5.70035 10.8009V10.1998H16.8C16.9576 10.1998 17.1137 10.1688 17.2594 10.1085C17.405 10.0482 17.5373 9.95981 17.6488 9.84841C17.7602 9.73701 17.8487 9.60477 17.909 9.45922C17.9693 9.31367 18.0004 9.15768 18.0004 9.00014C18.0004 8.8426 17.9693 8.6866 17.909 8.54105C17.8487 8.39551 17.7602 8.26326 17.6488 8.15186C17.5373 8.04046 17.405 7.9521 17.2594 7.89181C17.1137 7.83152 16.9576 7.80049 16.8 7.80049H5.70035V7.20014C5.70035 6.88197 5.57389 6.57684 5.34878 6.35186C5.12367 6.12689 4.81836 6.00049 4.5 6.00049ZM8.4 12.0005C8.08165 12.0006 7.77635 12.1269 7.55124 12.3519C7.32613 12.5769 7.19966 12.882 7.19965 13.2001V13.8005H1.2007C1.04307 13.8005 0.886979 13.8315 0.741345 13.8918C0.595711 13.9521 0.463385 14.0405 0.351922 14.1519C0.240459 14.2633 0.152042 14.3955 0.0917195 14.5411C0.031397 14.6866 0.000350102 14.8426 0.000351557 15.0001C0.000364218 15.3183 0.126835 15.6234 0.351943 15.8484C0.577051 16.0733 0.882358 16.1997 1.2007 16.1997H7.19965V16.8009C7.19966 17.1191 7.32613 17.4242 7.55124 17.6491C7.77635 17.8741 8.08165 18.0005 8.4 18.0005C8.71835 18.0005 9.02365 17.8741 9.24876 17.6491C9.47387 17.4242 9.60034 17.1191 9.60035 16.8009V16.1997H16.8C17.1183 16.1997 17.4237 16.0733 17.6488 15.8484C17.8739 15.6234 18.0003 15.3183 18.0004 15.0001C18.0004 14.8426 17.9693 14.6866 17.909 14.5411C17.8487 14.3955 17.7602 14.2633 17.6488 14.1519C17.5373 14.0405 17.405 13.9521 17.2594 13.8918C17.1137 13.8315 16.9576 13.8005 16.8 13.8005H9.60035V13.2001C9.60034 12.882 9.47387 12.5769 9.24876 12.3519C9.02365 12.1269 8.71835 12.0006 8.4 12.0005Z" fill="currentColor"/></symbol><symbol id="pillar" viewBox="0 0 24 24" fill="none"><path d="M23.4375 1.80859H0.5625C0.251625 1.80859 0 2.06022 0 2.37109V4.74147C0 5.05234 0.251625 5.30397 0.5625 5.30397H2.5875C2.5605 5.32947 2.53163 5.35234 2.505 5.37859C1.18387 6.69972 1.18387 8.84959 2.505 10.1707C3.0555 10.7212 3.7785 10.9965 4.5015 10.9965C5.0295 10.9965 5.55638 10.848 6.01688 10.5547V21.6285C6.01688 21.939 6.2685 22.191 6.57938 22.191C6.89025 22.191 7.14188 21.939 7.14188 21.6285V8.97297C7.29637 8.21809 7.08262 7.40209 6.498 6.81784C6.01087 6.32997 5.31675 6.12747 4.64363 6.27597C4.34025 6.34272 4.14825 6.64272 4.215 6.94609C4.28175 7.24984 4.58363 7.44147 4.88513 7.37472C5.18213 7.30984 5.48738 7.39834 5.70225 7.61322C6.18825 8.09922 6.18825 8.88972 5.70225 9.37572C5.04 10.038 3.96263 10.038 3.3 9.37572C2.41725 8.49297 2.41725 7.05672 3.3 6.17434C3.861 5.61334 4.60687 5.30434 5.40037 5.30434C6.19387 5.30434 6.93975 5.61334 7.50075 6.17434C8.15325 6.82684 8.54925 7.69122 8.61825 8.60997V21.6288C8.61825 21.9393 8.86987 22.1913 9.18075 22.1913C9.49162 22.1913 9.74325 21.9393 9.74325 21.6288V8.58222C9.74325 8.57509 9.74137 8.56872 9.74137 8.56197C9.741 8.55522 9.7425 8.54884 9.74175 8.54209C9.65625 7.34884 9.14325 6.22572 8.29612 5.37897C8.26987 5.35272 8.241 5.32984 8.21362 5.30434H11.4375V21.6288C11.4375 21.9393 11.6891 22.1913 12 22.1913C12.3109 22.1913 12.5625 21.9393 12.5625 21.6288V5.30434H15.7856C15.759 5.32984 15.7301 5.35234 15.7035 5.37897C14.8564 6.22534 14.3426 7.34884 14.2579 8.54247C14.2575 8.54922 14.2586 8.55559 14.2586 8.56197C14.2582 8.56909 14.2564 8.57547 14.2564 8.58222V21.6288C14.2564 21.9393 14.5084 22.1913 14.8189 22.1913C15.1294 22.1913 15.3814 21.9393 15.3814 21.6288V8.60959C15.45 7.69084 15.846 6.82684 16.4989 6.17434C17.0599 5.61334 17.8057 5.30434 18.5993 5.30434C19.3927 5.30434 20.1383 5.61334 20.6996 6.17434C21.5824 7.05709 21.5824 8.49334 20.6996 9.37572C20.0374 10.038 18.96 10.038 18.2974 9.37572C18.0619 9.14022 17.9321 8.82747 17.9321 8.49447C17.9321 8.16147 18.0619 7.84872 18.2974 7.61322C18.5119 7.39834 18.8171 7.30834 19.1156 7.37509C19.4198 7.44109 19.719 7.24947 19.7854 6.94609C19.8521 6.64272 19.6601 6.34272 19.3564 6.27597C18.6844 6.12822 17.9891 6.33034 17.502 6.81784C16.9166 7.40284 16.7033 8.21959 16.8585 8.97522V21.6288C16.8585 21.9393 17.1105 22.1913 17.421 22.1913C17.7315 22.1913 17.9835 21.9393 17.9835 21.6288V10.5551C18.4444 10.8483 18.9709 10.9965 19.4985 10.9965C20.2219 10.9965 20.9445 10.7212 21.495 10.1707C22.8161 8.84959 22.8161 6.69972 21.495 5.37859C21.4688 5.35234 21.4399 5.32947 21.4125 5.30397H23.4375C23.748 5.30397 24 5.05234 24 4.74147V2.37109C24 2.06059 23.748 1.80859 23.4375 1.80859ZM22.875 4.17934H1.125V2.93359H22.875V4.17934Z" fill="currentColor"/></symbol><symbol id="close" viewBox="0 0 24 24" fill="none"><path d="M17.6467 5.64669C17.842 5.45143 18.1585 5.45143 18.3537 5.64669C18.549 5.84195 18.549 6.15846 18.3537 6.35372L12.7072 12.0002L18.3537 17.6467L18.4182 17.7248C18.5463 17.9189 18.5246 18.1829 18.3537 18.3537C18.1829 18.5246 17.9189 18.5463 17.7248 18.4182L17.6467 18.3537L12.0002 12.7072L6.35372 18.3537C6.15846 18.549 5.84195 18.549 5.64669 18.3537C5.45143 18.1585 5.45143 17.8419 5.64669 17.6467L11.2932 12.0002L5.64669 6.35372L5.58224 6.27559C5.45408 6.08152 5.47583 5.81755 5.64669 5.64669C5.81755 5.47583 6.08152 5.45408 6.27559 5.58223L6.35372 5.64669L12.0002 11.2932L17.6467 5.64669Z" fill="currentColor"/></symbol><symbol id="close-thick" viewBox="0 0 24 24" fill="none"><path d="M19.2717 2.81468C19.6502 2.41253 20.2836 2.39325 20.6858 2.77171C21.0879 3.15021 21.1072 3.7836 20.7288 4.18577L13.3733 12.0002L20.7288 19.8147L20.7952 19.8928C21.1033 20.2951 21.0628 20.8739 20.6858 21.2287C20.3087 21.5836 19.7288 21.5883 19.3459 21.2561L19.2717 21.1858L12.0002 13.4592L4.72875 21.1858C4.35026 21.5879 3.71687 21.6072 3.31469 21.2287C2.91254 20.8502 2.89327 20.2169 3.27172 19.8147L10.6262 12.0002L3.27172 4.18577L3.20532 4.10765C2.89715 3.70536 2.93771 3.12652 3.31469 2.77171C3.69178 2.41686 4.27167 2.41214 4.65453 2.74437L4.72875 2.81468L12.0002 10.5403L19.2717 2.81468Z" fill="currentColor"/></symbol><symbol id="chevron-right" viewBox="0 0 6 10" fill="none"><path d="M0.93966 1.35331C0.744398 1.15805 0.744398 0.841539 0.93966 0.646277C1.13492 0.451015 1.45143 0.451015 1.64669 0.646277L6.00021 4.99979L1.64669 9.35331L1.56857 9.41776C1.37449 9.54593 1.11052 9.52417 0.93966 9.35331C0.768797 9.18244 0.747043 8.91848 0.875207 8.7244L0.93966 8.64628L4.58614 4.99979L0.93966 1.35331Z" fill="currentColor"/></symbol><symbol id="charger" viewBox="0 0 24 24" fill="none"><path d="M15.7919 4H7.95839C6.87834 4 6 4.87834 6 5.95839V12.4863C6 13.5664 6.87834 14.4447 7.95839 14.4447H8.28479V16.4031C8.28479 16.7635 8.57724 17.0559 8.93758 17.0559H9.59364V19.0143C9.59364 19.3746 9.88609 19.6671 10.2464 19.6671C10.6068 19.6671 10.8992 19.3746 10.8992 19.0143V17.0559H12.8508V19.0143C12.8508 19.3746 13.1432 19.6671 13.5036 19.6671C13.8639 19.6671 14.1564 19.3746 14.1564 19.0143V17.0559H14.8124C15.1728 17.0559 15.4652 16.7635 15.4652 16.4031V14.4447H15.7916C16.8717 14.4447 17.75 13.5664 17.75 12.4863V5.95839C17.75 4.87834 16.872 4 15.7919 4ZM13.3577 9.569L12.0837 11.8277C11.9636 12.0402 11.7423 12.1599 11.5145 12.1599C11.4058 12.1599 11.2958 12.1329 11.1946 12.0757C10.8806 11.8985 10.7697 11.5003 10.9466 11.1863L11.6715 9.90095H10.9616C10.7213 9.90095 10.5007 9.76908 10.3868 9.55758C10.2729 9.3464 10.2843 9.0892 10.4165 8.88879L11.9398 6.57789C12.1379 6.27695 12.543 6.19307 12.8442 6.39217C13.1452 6.59029 13.2284 6.99568 13.03 7.29662L12.1738 8.59536H12.7894C13.0215 8.59536 13.2362 8.71841 13.3531 8.91882C13.4699 9.11923 13.4719 9.36664 13.358 9.56868L13.3577 9.569Z" fill="currentColor"/></symbol><symbol id="action-cam" viewBox="0 0 24 24" fill="none"><path d="M15.7499 11.4022C16.8695 11.4022 17.7772 10.4945 17.7772 9.37491C17.7772 8.25529 16.8695 7.34766 15.7499 7.34766C14.6303 7.34766 13.7227 8.25529 13.7227 9.37491C13.7227 10.4945 14.6303 11.4022 15.7499 11.4022Z" fill="currentColor"/><path d="M19.3515 4.125H12.1489C11.2384 4.125 10.5 4.863 10.5 5.77388V12.9765C10.5 13.887 11.2384 14.6254 12.1489 14.6254H19.3515C20.262 14.6254 21.0004 13.8874 21.0004 12.9765V5.77388C21.0004 4.86338 20.2624 4.125 19.3515 4.125ZM15.7504 12.9022C13.8052 12.9022 12.2231 11.3197 12.2231 9.375C12.2231 7.43025 13.8056 5.84775 15.7504 5.84775C17.6951 5.84775 19.2776 7.43025 19.2776 9.375C19.2776 11.3197 17.6951 12.9022 15.7504 12.9022Z" fill="currentColor"/><path d="M19.3515 15.7502H12.1489C10.6192 15.7502 9.375 14.506 9.375 12.9763V5.77408C9.375 5.61096 9.39187 5.45196 9.41925 5.29633H7.87387C7.86675 4.88833 7.53487 4.55908 7.125 4.55908H6C5.589 4.55908 5.256 4.89021 5.25112 5.29971C4.00387 5.33758 3 6.36133 3 7.61758V17.3762C3 18.6561 4.04137 19.6975 5.32125 19.6975H17.976C19.2559 19.6975 20.2972 18.6561 20.2972 17.3762V15.5803C20.0017 15.688 19.6841 15.7502 19.3515 15.7502ZM6.75037 8.68408C7.37175 8.68408 7.87537 9.18771 7.87537 9.80908C7.87537 10.4305 7.37175 10.9341 6.75037 10.9341C6.129 10.9341 5.62537 10.4305 5.62537 9.80908C5.62537 9.18771 6.129 8.68408 6.75037 8.68408ZM7.87537 17.3091H6.00037C5.58637 17.3091 5.25037 16.9731 5.25037 16.5591C5.25037 16.1451 5.58637 15.8091 6.00037 15.8091H7.87537C8.28937 15.8091 8.62537 16.1451 8.62537 16.5591C8.62537 16.9731 8.28937 17.3091 7.87537 17.3091ZM7.87537 15.0591H6.00037C5.58637 15.0591 5.25037 14.7231 5.25037 14.3091C5.25037 13.8951 5.58637 13.5591 6.00037 13.5591H7.87537C8.28937 13.5591 8.62537 13.8951 8.62537 14.3091C8.62537 14.7231 8.28937 15.0591 7.87537 15.0591Z" fill="currentColor"/></symbol><symbol id="camera" viewBox="0 0 24 24" fill="none"><path fill-rule="evenodd" clip-rule="evenodd" d="M5.17647 8.01682H7.13101L7.44079 6.76056C7.55235 6.30813 7.9457 6 8.4117 6H11.0659C11.5319 6 11.9253 6.30813 12.0368 6.76056L12.3466 8.01682H15.4417V7.75103C15.4417 7.49535 15.6509 7.28619 15.9066 7.28619H17.1019C17.3576 7.28619 17.5667 7.49541 17.5667 7.75103V8.01682H18.8235C19.4706 8.01682 20 8.54622 20 9.19329V17.1933C20 17.8404 19.4706 18.3698 18.8235 18.3698H5.17647C4.52941 18.3698 4 17.8404 4 17.1933V9.19329C4 8.54622 4.52941 8.01682 5.17647 8.01682ZM11.9514 13.1933C11.9514 11.9713 10.9608 10.9807 9.73879 10.9807C8.51682 10.9807 7.52623 11.9713 7.52623 13.1933C7.52623 14.4153 8.51682 15.4059 9.73879 15.4059C10.9608 15.4059 11.9514 14.4153 11.9514 13.1933ZM9.73879 9.94957C7.94735 9.94957 6.49507 11.4018 6.49507 13.1933C6.49507 14.9847 7.94732 16.437 9.73879 16.437C11.5302 16.437 12.9825 14.9847 12.9825 13.1933C12.9825 11.4018 11.5302 9.94957 9.73879 9.94957ZM15.6303 10.4829H17.3782C17.6727 10.4829 17.9115 10.2441 17.9115 9.9496C17.9115 9.65504 17.6727 9.41626 17.3782 9.41626H15.6303C15.3357 9.41626 15.097 9.65504 15.097 9.9496C15.097 10.2442 15.3357 10.4829 15.6303 10.4829Z" fill="currentColor"/></symbol><symbol id="gift-card" viewBox="0 0 24 24" fill="none"><path d="M18.7667 6H8.39062V9.90611C9.23797 9.57598 10.1874 10.0252 10.4771 10.8829H20.3604V7.59371C20.3604 6.71493 19.6455 6 18.7667 6Z" fill="currentColor"/><path d="M9.54352 11.3914C9.54352 11.0735 9.28493 10.8149 8.96707 10.8149C8.64921 10.8149 8.39062 11.0735 8.39062 11.3914V11.9678H8.96707C9.28493 11.9678 9.54352 11.7092 9.54352 11.3914Z" fill="currentColor"/><path d="M3 7.59371V10.8829H5.28779C5.57747 10.0252 6.52678 9.57594 7.37422 9.90611V6H4.59371C3.71493 6 3 6.71493 3 7.59371Z" fill="currentColor"/><path d="M6.7991 10.8149C6.48124 10.8149 6.22266 11.0735 6.22266 11.3914C6.22266 11.7092 6.48124 11.9678 6.7991 11.9678H7.37555V11.3914C7.37555 11.0735 7.11696 10.8149 6.7991 10.8149Z" fill="currentColor"/><path d="M9.78197 12.7602C10.263 13.2447 10.5608 13.9114 10.5608 14.6465C10.5608 14.9274 10.3331 15.1551 10.0522 15.1551C9.77125 15.1551 9.54352 14.9274 9.54352 14.6465C9.54352 13.9077 9.05869 13.2803 8.39062 13.0649V18.9529H18.7667C19.6455 18.9529 20.3604 18.238 20.3604 17.3592V11.8999H10.4771C10.3546 12.2624 10.1054 12.567 9.78197 12.7602Z" fill="currentColor"/><path d="M6.22133 14.6465C6.22133 14.9274 5.9936 15.1551 5.7127 15.1551C5.4318 15.1551 5.20407 14.9274 5.20407 14.6465C5.20407 13.9114 5.50182 13.2447 5.98288 12.7602C5.65949 12.567 5.41023 12.2624 5.28775 11.8999H3V17.3592C3 18.238 3.71493 18.9529 4.59371 18.9529H7.37422V13.0649C6.70615 13.2803 6.22133 13.9077 6.22133 14.6465Z" fill="currentColor"/></symbol><symbol id="joystick" viewBox="0 0 24 24" fill="none"><path d="M20.2371 8.51476C19.4214 6.467 17.0998 5.46879 15.0521 6.28447C14.7583 6.4014 14.4874 6.54971 14.2392 6.72368C13.6175 7.15719 12.8845 7.41102 12.1259 7.41102C11.7466 7.41102 11.3729 7.34828 11.0193 7.23135C10.6628 7.11441 10.3234 6.94044 10.0154 6.72368C9.76725 6.54971 9.49345 6.4014 9.19969 6.28447C7.15193 5.46879 4.83038 6.467 4.0147 8.51476C3.19902 10.5654 1.96409 16.8199 4.58796 17.8666C6.03109 18.4427 7.71093 17.068 9.06565 15.3768C9.5562 14.7607 10.3063 14.4128 11.0934 14.4128H13.1583C13.9455 14.4128 14.6956 14.7607 15.1861 15.3768C16.5437 17.068 18.2207 18.4427 19.6667 17.8666C22.2905 16.8199 21.0527 10.5654 20.2371 8.51476ZM9.17403 10.9875H8.10737V12.0541C8.10737 12.3564 7.86209 12.6017 7.55977 12.6017C7.25746 12.6017 7.01218 12.3564 7.01218 12.0541V10.9875H5.94267C5.64036 10.9875 5.39508 10.7422 5.39508 10.4399C5.39508 10.1376 5.64036 9.89229 5.94267 9.89229H7.01218V8.82278C7.01218 8.52047 7.25746 8.27519 7.55977 8.27519C7.86209 8.27519 8.10737 8.52047 8.10737 8.82278V9.89229H9.17403C9.47634 9.89229 9.72162 10.1376 9.72162 10.4399C9.72162 10.7422 9.47634 10.9875 9.17403 10.9875ZM16.4952 8.08125C16.9373 8.08125 17.2938 8.43776 17.2938 8.87982C17.2938 9.31903 16.9373 9.67554 16.4952 9.67554C16.056 9.67554 15.6995 9.31903 15.6995 8.87982C15.6995 8.43776 16.056 8.08125 16.4952 8.08125ZM14.9351 11.2385C14.4959 11.2385 14.1366 10.8819 14.1366 10.4399C14.1366 10.0007 14.4959 9.64417 14.9351 9.64417C15.3743 9.64417 15.7337 10.0007 15.7337 10.4399C15.7337 10.8819 15.3743 11.2385 14.9351 11.2385ZM16.4952 12.7985C16.056 12.7985 15.6995 12.4392 15.6995 12.0028C15.6995 11.5579 16.056 11.2014 16.4952 11.2014C16.9373 11.2014 17.2938 11.5579 17.2938 12.0028C17.2938 12.4392 16.9373 12.7985 16.4952 12.7985ZM18.0581 11.2385C17.616 11.2385 17.2595 10.8819 17.2595 10.4399C17.2595 10.0007 17.616 9.64417 18.0581 9.64417C18.4973 9.64417 18.8538 10.0007 18.8538 10.4399C18.8538 10.8819 18.4973 11.2385 18.0581 11.2385Z" fill="currentColor"/></symbol><symbol id="apple" viewBox="0 0 24 24" fill="none"><path fill-rule="evenodd" clip-rule="evenodd" d="M12.828 4.65341C14.1176 3.00801 15.9103 3 15.9103 3C15.9103 3 16.177 4.54694 14.8959 6.03715C13.528 7.6284 11.9732 7.36803 11.9732 7.36803C11.9732 7.36803 11.6813 6.11661 12.828 4.65341ZM12.1372 8.45164C12.8007 8.45164 14.0319 7.56882 15.6345 7.56882C18.3932 7.56882 19.4784 9.46916 19.4784 9.46916C19.4784 9.46916 17.3559 10.5197 17.3559 13.0689C17.3559 15.9446 20 16.9358 20 16.9358C20 16.9358 18.1516 21.9721 15.655 21.9721C14.5084 21.9721 13.6169 21.2241 12.4087 21.2241C11.1775 21.2241 9.95572 22 9.15988 22C6.88015 22.0001 4 17.2225 4 13.3822C4 9.60386 6.43786 7.62175 8.72445 7.62175C10.2109 7.62175 11.3645 8.45164 12.1372 8.45164Z" fill="currentColor"/></symbol><symbol id="dyson" viewBox="0 0 24 24" fill="none"><path fill-rule="evenodd" clip-rule="evenodd" d="M4.54607 7H3.35253V9.2349H2.26032C1.01593 9.2349 0 10.2506 0 11.495C0 12.7652 1.01593 13.7808 2.26032 13.7808C2.56085 13.7821 2.85866 13.7238 3.13655 13.6094C3.41445 13.495 3.66694 13.3267 3.87944 13.1142C4.09195 12.9017 4.26027 12.6492 4.37468 12.3713C4.4891 12.0934 4.54735 11.7956 4.54607 11.495C4.54607 10.8857 4.5715 9.2349 4.5715 9.2349L4.54607 7ZM3.35253 11.495C3.35253 12.1045 2.86999 12.5872 2.26032 12.5872C1.67626 12.5872 1.19372 12.1047 1.19372 11.495C1.19372 10.911 1.67626 10.4284 2.26032 10.4284H3.35253V11.495ZM14.3999 11.495C14.3999 10.2506 15.4156 9.2349 16.6856 9.2349C17.9299 9.2349 18.9458 10.2506 18.9458 11.495C18.9458 12.7652 17.9299 13.7808 16.6856 13.7808C16.3851 13.7821 16.0873 13.7238 15.8094 13.6094C15.5315 13.495 15.279 13.3267 15.0665 13.1142C14.854 12.9017 14.6857 12.6492 14.5713 12.3713C14.4569 12.0934 14.3986 11.7956 14.3999 11.495ZM16.6602 12.5872C17.2697 12.5872 17.7524 12.1047 17.7524 11.495C17.7524 10.911 17.2699 10.4284 16.6602 10.4284C16.0762 10.4284 15.5934 10.911 15.5934 11.495C15.5934 12.1047 16.0762 12.5872 16.6602 12.5872ZM22.7809 11.495C22.7809 10.911 22.2983 10.4284 21.7143 10.4284C21.1048 10.4284 20.622 10.911 20.622 11.495V13.6793C20.0126 13.7049 19.4285 13.7049 19.4285 13.7049V11.495C19.4285 10.2506 20.4444 9.2349 21.7143 9.2349C22.9585 9.2349 24 10.2506 24 11.495V13.6793H22.7809V11.495ZM11.5809 10.7079C11.4286 10.6064 11.4794 10.3778 11.7587 10.3017C12.1396 10.2 12.7492 10.3017 13.2824 10.5301L13.8667 9.76829C13.6128 9.56525 13.0794 9.28575 12.2921 9.2349C12.2921 9.2349 10.9969 9.08253 10.4635 10.073C10.4635 10.073 9.98095 11.0127 10.9206 11.5713C11.4794 11.9269 12.4443 12.0539 12.7491 12.2317C13.0029 12.359 12.9269 12.6381 12.5458 12.7142C11.9363 12.8667 11.0982 12.511 10.8189 12.3077L10.2348 13.0952C10.6157 13.3743 11.1236 13.6286 11.9109 13.7806C11.9109 13.7806 13.1299 13.9838 13.8157 13.1459C13.9426 12.9679 14.5014 11.9267 13.3838 11.3429C12.8253 11.0381 11.8857 10.9112 11.5809 10.7079ZM5.99369 14.5683C6.04454 14.6189 6.60317 14.9998 7.13656 14.9998C8.45723 15.0254 8.53333 13.6793 8.53333 13.3491C8.27944 13.6286 7.77147 13.7806 7.46673 13.7806C6.19691 13.7806 5.18098 12.7903 5.18098 11.5461V9.31099H6.37471C6.37471 9.31099 6.40013 11.2666 6.40013 11.5461C6.40013 12.1301 6.88267 12.6127 7.46691 12.6127C8.05097 12.6127 8.53351 12.1301 8.53351 11.5461V9.31099H9.75248V11.5461C9.75248 13.5017 9.82875 15.5332 7.92402 15.9901C6.47641 16.3457 5.46048 15.4316 5.40981 15.381L5.99369 14.5683Z" fill="currentColor"/></symbol><symbol id="samsung" viewBox="0 0 24 24" fill="none"><path fill-rule="evenodd" clip-rule="evenodd" d="M13.1607 11.6468C13.1607 11.6468 12.9272 11.5011 12.7828 11.4447C12.7828 11.4447 12.3359 11.2356 12.2472 11.1362C12.2472 11.1362 12.073 10.9705 12.175 10.7781C12.175 10.7781 12.2177 10.6522 12.4018 10.6522C12.4018 10.6522 12.6414 10.6655 12.6414 10.8643V11.1446H13.5003L13.4988 10.7317C13.4988 10.7317 13.5648 10.0554 12.4872 10.0257C12.4872 10.0257 11.6396 9.96942 11.3965 10.4301C11.3965 10.4301 11.3011 10.5329 11.3011 10.8909V11.1495C11.3011 11.1495 11.2914 11.4479 11.4423 11.6401C11.4423 11.6401 11.5277 11.7662 11.738 11.9052C11.738 11.9052 12.165 12.1373 12.4213 12.2701C12.4213 12.2701 12.6799 12.4192 12.6459 12.6563C12.6459 12.6563 12.6248 12.8998 12.375 12.8899C12.375 12.8899 12.1466 12.8796 12.1466 12.6408V12.3605H11.2314V12.7676C11.2314 12.7676 11.2058 13.546 12.3817 13.546C12.3817 13.546 13.5053 13.569 13.5578 12.7472V12.4157C13.5576 12.4157 13.5975 11.9121 13.1607 11.6468ZM8.76389 10.1225L8.47632 11.9412H8.40907L8.13438 10.1389H6.69982L6.62793 13.4324H7.47731L7.4875 10.9509H7.5543L8.00452 13.4319H8.89809L9.34277 10.9518H9.40193L9.42245 13.4324H10.2763L10.1844 10.1225H8.76389ZM3.70775 10.1363L3.14264 13.4286H4.05703L4.39178 10.8759H4.46696L4.80156 13.4286H5.7158L5.15084 10.1363H3.70775ZM22.8944 11.6014V12.0871H23.1289V12.6084C23.1289 12.8633 22.9131 12.8679 22.9131 12.8679C22.6507 12.8679 22.6606 12.6258 22.6606 12.6258V10.8225C22.6606 10.6368 22.8935 10.6268 22.8935 10.6268C23.1169 10.6268 23.1184 10.8484 23.1184 10.8484V11.1226H23.9793C24.0075 10.5873 23.9017 10.4578 23.9017 10.4578C23.6882 9.9738 22.8803 10.0003 22.8803 10.0003C21.6388 10.0003 21.7766 10.9616 21.7766 10.9616V12.7052C21.8032 13.6068 23.0266 13.5152 23.0473 13.5144C23.5914 13.4537 23.7557 13.2791 23.7557 13.2791C23.907 13.1657 23.9459 13.0087 23.9459 13.0087C23.9892 12.9172 24 12.6258 24 12.6258V11.6014H22.8944ZM20.0407 12.1373H20.0032L19.1296 10.1234H18.0843V13.4327H18.935L18.8841 11.4191H18.9221L19.8272 13.4327H20.8408V10.1231H19.9793L20.0407 12.1373ZM16.0077 12.6081C16.0077 12.6081 16.0199 12.8797 15.7704 12.8797C15.7704 12.8797 15.508 12.8939 15.508 12.6149L15.5053 10.1254H14.5722V12.5951C14.5722 12.5951 14.4765 13.5299 15.7836 13.5299C15.7836 13.5299 16.9195 13.5435 16.9195 12.638V10.1256H16.0077V12.6081ZM1.92886 11.6468C1.92886 11.6468 1.69566 11.5011 1.55112 11.4448C1.55112 11.4448 1.10449 11.2359 1.01583 11.1363C1.01583 11.1363 0.841636 10.9704 0.943783 10.7784C0.943783 10.7784 0.98632 10.6525 1.17024 10.6525C1.17024 10.6525 1.41004 10.6656 1.41004 10.8644V11.1448H2.26915L2.2675 10.7317C2.2675 10.7317 2.33311 10.0554 1.25592 10.0258C1.25592 10.0258 1.17474 10.0205 1.05567 10.0266C1.05567 10.0266 0.403092 10.0619 0.169741 10.4232C0.168393 10.4259 0.166446 10.4279 0.165098 10.4303C0.165098 10.4303 0.0698405 10.5329 0.0698405 10.891V11.1496C0.0698405 11.1496 0.0599551 11.448 0.211079 11.6403C0.211079 11.6403 0.296452 11.7663 0.506737 11.9054C0.506737 11.9054 0.933598 12.1374 1.18987 12.2703C1.18987 12.2703 1.44883 12.419 1.41453 12.6565C1.41453 12.6565 1.39341 12.9 1.14373 12.89C1.14373 12.89 0.915326 12.8797 0.915326 12.6409V12.3605H4.46274e-05V12.7679C4.46274e-05 12.7679 -0.025567 13.5463 1.15032 13.5463C1.15032 13.5463 2.27364 13.5693 2.32652 12.7475V12.4163C2.32652 12.416 2.36576 11.9121 1.92886 11.6468Z" fill="currentColor"/></symbol><symbol id="headphones" viewBox="0 0 24 24" fill="none"><path d="M9.26254 5.8591C8.5944 4.60041 7.18035 3.8642 5.74079 4.02672C4.42372 4.1758 3.43656 5.00986 3.10064 6.25769L3.08462 6.31865C2.94355 6.87889 2.99304 8.67894 3.12898 9.18684C3.2111 9.49385 3.35045 9.95025 3.61454 10.3651C4.01484 10.994 4.68469 11.3855 5.40601 11.4124C6.04753 11.437 6.61465 11.1697 6.97517 10.6865C7.2556 10.3274 7.62699 10.0481 7.72829 10.0801C7.73 10.081 7.8828 10.1889 7.86533 10.9377V17.9969C7.86533 18.1548 7.99322 18.283 8.15145 18.283V19.7137C8.15145 19.8716 8.27934 19.9998 8.43757 19.9998H9.86825C10.0265 19.9998 10.1544 19.8716 10.1544 19.7137V18.283C10.3126 18.283 10.4405 18.1548 10.4405 17.9969V10.9835C10.4405 7.89066 9.63101 6.49633 9.32658 5.9713C9.3006 5.92664 9.27884 5.88945 9.26254 5.8591ZM4.71789 8.83604C4.71789 8.99397 4.59 9.12216 4.43177 9.12216C4.27353 9.12216 4.14564 8.99397 4.14564 8.83604V6.26084C4.14564 6.10291 4.27353 5.97472 4.43177 5.97472C4.59 5.97472 4.71789 6.10291 4.71789 6.26084V8.83604ZM7.29308 8.54992C6.6513 8.54992 6.14856 8.17279 6.14856 7.69152C6.14856 7.21024 6.6513 6.83312 7.29308 6.83312C7.93487 6.83312 8.4376 7.21024 8.4376 7.69152C8.4376 8.17279 7.93487 8.54992 7.29308 8.54992Z" fill="currentColor"/><path d="M20.0861 6.31304L20.0707 6.25409C19.7347 5.00542 18.7473 4.17133 17.4302 4.02225C15.9912 3.86003 14.5769 4.59624 13.9085 5.85463C13.8925 5.88498 13.8704 5.92217 13.8447 5.9668C13.5399 6.49186 12.7305 7.88619 12.7305 10.979V17.9924C12.7305 18.1503 12.8584 18.2785 13.0166 18.2785V19.7092C13.0166 19.8671 13.1445 19.9953 13.3027 19.9953H14.7334C14.8917 19.9953 15.0195 19.8671 15.0195 19.7092V18.2785C15.1778 18.2785 15.3057 18.1503 15.3057 17.9924V10.9267C15.2882 10.1845 15.4413 10.0765 15.4427 10.0757C15.5457 10.0442 15.9145 10.3224 16.1924 10.6772C16.5563 11.1653 17.13 11.4291 17.7652 11.4079C18.4866 11.381 19.1562 10.9896 19.5565 10.3607C19.8205 9.94581 19.9602 9.48942 20.042 9.18267C20.178 8.67451 20.2275 6.87445 20.0861 6.31304ZM15.8779 8.54548C15.2362 8.54548 14.7334 8.16835 14.7334 7.68708C14.7334 7.20581 15.2362 6.82868 15.8779 6.82868C16.5197 6.82868 17.0225 7.20581 17.0225 7.68708C17.0225 8.16835 16.5198 8.54548 15.8779 8.54548ZM19.0254 8.8316C19.0254 8.98953 18.8975 9.11772 18.7393 9.11772C18.5811 9.11772 18.4532 8.98953 18.4532 8.8316V6.2564C18.4532 6.09847 18.5811 5.97028 18.7393 5.97028C18.8975 5.97028 19.0254 6.09847 19.0254 6.2564V8.8316Z" fill="currentColor"/></symbol><symbol id="google" viewBox="0 0 24 24" fill="none"><path d="M12.1296 18.5384C8.51056 18.5384 5.67754 15.619 5.67754 12C5.67754 8.381 8.51056 5.46161 12.1296 5.46161C14.0816 5.46161 15.5067 6.23033 16.5605 7.21497L18.2965 5.47889C16.8282 4.07102 14.8676 3 12.1296 3C7.17179 3 3 7.04223 3 12C3 16.9578 7.17179 21 12.1296 21C14.8071 21 16.8282 20.119 18.4088 18.4779C20.0326 16.8541 20.5336 14.5739 20.5336 12.7255C20.5336 12.1468 20.4645 11.5509 20.3868 11.1104H12.1296V13.5115H18.0115C17.8388 15.0144 17.3637 16.0422 16.6641 16.7418C15.8177 17.5969 14.4789 18.5384 12.1296 18.5384Z" fill="currentColor"/></symbol><symbol id="xiaomi" viewBox="0 0 24 24" fill="none"><path d="M17.9502 3.5C19.3589 3.50011 20.4999 4.64108 20.5 6.0498V17.9502C20.4999 19.3589 19.3589 20.4999 17.9502 20.5H6.0498C4.64108 20.4999 3.50011 19.3589 3.5 17.9502V6.0498C3.50011 4.64108 4.64108 3.50011 6.0498 3.5H17.9502ZM6.97852 8.72949C6.88508 8.72953 6.80864 8.80598 6.80859 8.89941V15.1025C6.80869 15.1959 6.88511 15.2724 6.97852 15.2725H8.33887C8.43219 15.2723 8.5087 15.1959 8.50879 15.1025V10.5146C8.50879 10.4679 8.547 10.4297 8.59375 10.4297H11.9023C12.3718 10.4298 12.7518 10.8098 12.752 11.2793V15.1025C12.752 15.1958 12.8286 15.2723 12.9219 15.2725H14.2822C14.3757 15.2725 14.4521 15.196 14.4521 15.1025V11.2793C14.452 9.87055 13.3111 8.72956 11.9023 8.72949H6.97852ZM9.95117 11.2793C9.8579 11.2795 9.7814 11.3559 9.78125 11.4492V15.1025C9.78134 15.1959 9.85786 15.2723 9.95117 15.2725H11.3115C11.4049 15.2724 11.4814 15.1959 11.4814 15.1025V11.4492C11.4813 11.3559 11.4049 11.2793 11.3115 11.2793H9.95117ZM15.666 8.72949C15.5725 8.72949 15.4952 8.80595 15.4951 8.89941V15.1025C15.4952 15.196 15.5726 15.2725 15.666 15.2725H17.0254C17.1188 15.2725 17.1952 15.196 17.1953 15.1025V8.89941C17.1953 8.80595 17.1189 8.72949 17.0254 8.72949H15.666Z" fill="currentColor"/></symbol><symbol id="glasses" viewBox="0 0 24 24" fill="none"><path d="M21.75 8.625H21.2391C21.0024 8.48523 20.7508 8.37234 20.4891 8.28844C19.6641 8.01563 18.5747 7.875 17.25 7.875C15.9253 7.875 14.8359 8.01563 14.0128 8.28844C13.3538 8.50828 13.0636 8.75063 12.9698 8.84484C12.6672 8.70013 12.336 8.62501 12.0005 8.62501C11.665 8.62501 11.3338 8.70013 11.0311 8.84484C10.9373 8.75109 10.6472 8.50828 9.98812 8.28844C9.16406 8.01563 8.07469 7.875 6.75 7.875C5.42531 7.875 4.33594 8.01563 3.51281 8.28844C3.25106 8.37234 2.9995 8.48523 2.76281 8.625H2.25C2.05109 8.625 1.86032 8.70402 1.71967 8.84467C1.57902 8.98532 1.5 9.17609 1.5 9.375C1.5 9.57391 1.57902 9.76468 1.71967 9.90533C1.86032 10.046 2.05109 10.125 2.25 10.125H2.25797C2.30484 12.2559 2.55984 13.5366 3.10687 14.4483C3.44955 15.0369 3.97487 15.4977 4.60312 15.7608C5.17641 16.0064 5.87906 16.1259 6.75 16.1259C7.88203 16.1259 9.49125 15.952 10.3931 14.4492C10.8469 13.6927 11.1005 12.6825 11.1998 11.1436C11.2329 11.0579 11.2499 10.9668 11.25 10.875C11.25 10.6761 11.329 10.4853 11.4697 10.3447C11.6103 10.204 11.8011 10.125 12 10.125C12.1989 10.125 12.3897 10.204 12.5303 10.3447C12.671 10.4853 12.75 10.6761 12.75 10.875C12.7502 10.9665 12.7672 11.0572 12.8002 11.1427C12.8995 12.6816 13.1531 13.6917 13.6069 14.4483C13.9496 15.0369 14.4749 15.4977 15.1031 15.7608C15.6764 16.0064 16.3791 16.1259 17.25 16.1259C18.382 16.1259 19.9913 15.952 20.8931 14.4492C21.4402 13.5375 21.6961 12.2569 21.742 10.1259H21.75C21.9489 10.1259 22.1397 10.0469 22.2803 9.90627C22.421 9.76562 22.5 9.57485 22.5 9.37594C22.5 9.17703 22.421 8.98626 22.2803 8.84561C22.1397 8.70496 21.9489 8.62594 21.75 8.62594V8.625Z" fill="currentColor"/></symbol><symbol id="smartphone" viewBox="0 0 24 24" fill="none"><path d="M16.8369 0H7.14094C6.22898 0 5.46094 0.744 5.46094 1.68V22.32C5.46094 23.232 6.20494 24 7.14094 24H16.8609C17.7729 24 18.5409 23.256 18.5409 22.32V1.68C18.5169 0.744 17.7729 0 16.8369 0ZM11.9889 1.32005C12.2528 1.32005 12.4689 1.53614 12.4689 1.80009C12.4689 2.06405 12.2528 2.28014 11.9889 2.28014C11.7249 2.28014 11.5088 2.06405 11.5088 1.80009C11.5088 1.53614 11.7249 1.32005 11.9889 1.32005ZM13.429 22.68H10.5491V21.7199H13.429V22.68ZM17.5571 20.376H6.39694V3.62395H17.5571V20.376Z" fill="currentColor"/></symbol><symbol id="keychain" viewBox="0 0 24 24" fill="none"><path d="M18.5918 17.5222C18.0867 17.0235 16.8658 15.704 15.7414 15.1014C15.604 15.0267 15.4613 14.9622 15.3145 14.9083C15.3008 14.9035 15.2886 14.895 15.2794 14.8837C15.2702 14.8724 15.2643 14.8588 15.2624 14.8443C15.2605 14.8299 15.2626 14.8152 15.2686 14.8019C15.2745 14.7886 15.284 14.7772 15.2961 14.769C16.63 13.8763 17.3948 12.5455 16.9514 11.1834C16.8859 10.9846 16.7989 10.7936 16.6921 10.6136C16.6862 10.6039 16.6836 10.5925 16.6848 10.5811C16.6859 10.5697 16.6907 10.5591 16.6984 10.5507C16.7062 10.5423 16.7164 10.5366 16.7276 10.5345C16.7388 10.5324 16.7504 10.534 16.7607 10.5391C17.0324 10.6689 17.3071 10.7078 17.584 10.6023C18.8659 10.1133 17.9911 7.71593 14.6014 6.82401C14.5916 6.82143 14.5312 6.80686 14.5195 6.80424C13.7992 6.64353 13.0263 6.97137 12.7043 7.63868C12.5818 7.91065 12.5231 8.20707 12.5329 8.50522C12.5334 8.52095 12.5278 8.53628 12.5173 8.54801C12.5068 8.55973 12.4922 8.56697 12.4765 8.56822C12.3102 8.58121 12.1448 8.60405 11.9811 8.63662C11.9789 8.62714 11.784 8.00729 11.7061 7.70147C11.819 7.61828 11.908 7.50664 11.9638 7.37791C12.0196 7.24919 12.0404 7.10797 12.0239 6.96863C12.0074 6.82929 11.9543 6.6968 11.87 6.58464C11.7857 6.47248 11.6732 6.38465 11.544 6.3301C11.6734 5.00292 12.2717 3.7688 12.7641 2.75383C13.2565 1.73885 13.6117 1.00656 13.3462 0.483353C13.2225 0.239453 12.9831 0.0836205 12.6347 0.0201946C12.2008 -0.0583912 11.8044 0.0932628 11.4874 0.459729C10.6549 1.42285 10.4151 3.91285 10.7906 6.40317C10.6604 6.49083 10.5591 6.61506 10.4994 6.76022C10.4397 6.90537 10.4243 7.06495 10.4551 7.21884C10.486 7.37273 10.5617 7.51405 10.6727 7.62498C10.7838 7.73591 10.9252 7.81149 11.0791 7.84219C11.1625 8.17213 11.2571 8.49665 11.3633 8.81179C11.0949 8.9118 10.8375 9.03916 10.5952 9.19187C10.5807 9.20092 10.5643 9.20632 10.5472 9.20761C10.5302 9.20891 10.5131 9.20605 10.4975 9.19928C10.4818 9.19252 10.468 9.18205 10.4573 9.16878C10.4465 9.15551 10.4392 9.13983 10.4358 9.12309C10.4072 8.98707 10.3539 8.85748 10.2784 8.74076C9.87051 8.08684 8.97322 7.819 8.18758 7.96181C7.45406 8.0952 6.85505 8.50243 6.36259 8.89258C4.97167 9.99433 4.56117 11.5822 5.52648 11.905C6.87267 12.355 7.70503 9.29622 8.82478 9.30693C9.06247 9.30918 9.57941 9.52164 9.62045 9.97039C9.62142 9.98408 9.61959 9.99783 9.61505 10.0108C9.61052 10.0238 9.60339 10.0357 9.59409 10.0458C8.60558 11.1636 8.15897 12.7052 8.55324 13.9166C8.9894 15.2569 10.3535 15.884 11.9249 15.8435C11.9387 15.8433 11.9524 15.8466 11.9645 15.8534C11.9766 15.8601 11.9868 15.8699 11.9938 15.8818C12.0009 15.8937 12.0047 15.9073 12.0048 15.9212C12.005 15.935 12.0014 15.9487 11.9945 15.9607C11.9157 16.1011 11.8446 16.2457 11.7816 16.3939C11.2299 17.686 11.0788 19.4918 11.0327 20.2177C11.0231 20.3454 11.0625 20.4721 11.1431 20.5717C11.2236 20.6714 11.3392 20.7366 11.4661 20.7539C11.7291 20.785 11.929 20.6018 12.0088 20.3575C12.1406 19.9546 12.3859 19.1891 12.553 18.5677C12.5571 18.5523 12.566 18.5387 12.5786 18.529C12.5912 18.5192 12.6066 18.5139 12.6225 18.5139C12.6384 18.5138 12.6538 18.519 12.6665 18.5287C12.6791 18.5383 12.6882 18.5519 12.6923 18.5672C13.176 20.3484 13.9507 22.7268 14.1955 23.5555C14.2198 23.6378 14.2609 23.7142 14.3163 23.7797C14.3716 23.8453 14.44 23.8987 14.517 23.9365C14.594 23.9743 14.6781 23.9958 14.7638 23.9994C14.8495 24.0031 14.9351 23.989 15.0151 23.9579C15.1406 23.9063 15.2464 23.816 15.3171 23.7C15.3877 23.5841 15.4195 23.4487 15.4077 23.3134L15.1056 20.3869C15.1011 20.3434 15.1116 20.2996 15.1355 20.2629C15.1593 20.2262 15.1951 20.1988 15.2367 20.1852C15.2783 20.1717 15.3233 20.1728 15.3642 20.1885C15.4051 20.2042 15.4394 20.2334 15.4613 20.2712L16.9398 22.8147C17.0098 22.9309 17.1152 23.0218 17.2404 23.0739C17.3657 23.126 17.5044 23.1367 17.6362 23.1045C17.7191 23.0825 17.7966 23.0437 17.8638 22.9903C17.931 22.9369 17.9863 22.8702 18.0264 22.7943C18.0665 22.7185 18.0904 22.6351 18.0966 22.5496C18.1028 22.464 18.0913 22.3781 18.0626 22.2972C17.7766 21.4942 17.0202 19.1699 16.3693 17.4514C16.3641 17.4375 16.3632 17.4223 16.3669 17.4079C16.3706 17.3935 16.3787 17.3806 16.39 17.3709C16.4013 17.3612 16.4153 17.3553 16.4301 17.3539C16.4449 17.3525 16.4598 17.3556 16.4727 17.363C17.0684 17.7015 17.61 18.0497 17.9576 18.279C18.1671 18.4167 18.4387 18.4092 18.6138 18.226C18.7026 18.129 18.7499 18.0011 18.7458 17.8696C18.7417 17.7382 18.6865 17.6135 18.5918 17.5222ZM13.5705 11.1116L14.0154 10.967C14.0964 10.9406 14.1847 10.9475 14.2606 10.9862C14.3366 11.0249 14.3941 11.0921 14.4205 11.1732C14.4469 11.2543 14.4399 11.3425 14.4013 11.4185C14.3626 11.4944 14.2953 11.5519 14.2143 11.5783L13.7696 11.723C13.6886 11.7493 13.6003 11.7424 13.5244 11.7037C13.4484 11.6651 13.3909 11.5978 13.3645 11.5167C13.3381 11.4357 13.3451 11.3474 13.3837 11.2715C13.4224 11.1955 13.4897 11.138 13.5707 11.1116H13.5705ZM14.3573 8.29673C14.6553 8.51968 14.9649 8.8592 15.2835 9.21276C15.2855 9.21496 15.2867 9.21785 15.2868 9.22087C15.2869 9.2239 15.2859 9.22686 15.284 9.2292C15.2821 9.23155 15.2794 9.23312 15.2764 9.23362C15.2734 9.23413 15.2704 9.23353 15.2678 9.23194C14.7895 8.94954 14.2667 8.75029 13.7217 8.64268C13.7129 8.64101 13.7046 8.63741 13.6973 8.63214C13.69 8.62687 13.684 8.62005 13.6796 8.61218C13.6753 8.6043 13.6728 8.59557 13.6722 8.5866C13.6716 8.57763 13.6731 8.56864 13.6764 8.56029L13.7203 8.44993C13.8163 8.20834 14.1462 8.14561 14.3573 8.29673ZM11.9741 0.879657C12.1407 0.686808 12.2951 0.635864 12.4162 0.642185C12.4875 0.643057 12.5572 0.663106 12.618 0.700227C12.6788 0.737349 12.7285 0.79017 12.7619 0.85314C12.8798 1.09334 12.5182 1.7883 12.1861 2.47286C11.9098 3.04251 11.5826 3.717 11.3243 4.45743C11.322 4.464 11.3176 4.46957 11.3117 4.47318C11.3057 4.47678 11.2987 4.47818 11.2919 4.47713C11.285 4.47608 11.2788 4.47265 11.2742 4.46744C11.2696 4.46223 11.267 4.45557 11.2669 4.44864C11.2331 2.80381 11.5015 1.42644 11.9741 0.879657ZM10.9992 12.6245C10.9589 12.6381 10.9163 12.6436 10.8739 12.6406C10.8315 12.6377 10.7901 12.6263 10.7521 12.6072C10.7141 12.5882 10.6803 12.5618 10.6525 12.5295C10.6248 12.4973 10.6038 12.4599 10.5906 12.4195C10.5775 12.379 10.5725 12.3364 10.5759 12.294C10.5793 12.2517 10.5911 12.2104 10.6106 12.1726C10.6301 12.1348 10.6569 12.1013 10.6894 12.0739C10.722 12.0466 10.7596 12.0259 10.8002 12.0132L11.2448 11.8686C11.2851 11.855 11.3277 11.8495 11.3701 11.8525C11.4125 11.8554 11.4539 11.8668 11.4919 11.8858C11.5299 11.9049 11.5637 11.9313 11.5914 11.9635C11.6192 11.9958 11.6402 12.0332 11.6534 12.0736C11.6665 12.114 11.6715 12.1567 11.6681 12.1991C11.6647 12.2414 11.6529 12.2827 11.6334 12.3205C11.6139 12.3583 11.5871 12.3918 11.5545 12.4191C11.522 12.4465 11.4843 12.4671 11.4438 12.4798L10.9992 12.6245ZM11.6229 13.441C11.5391 13.1835 11.5336 12.9069 11.607 12.6463C11.6803 12.3857 11.8294 12.1526 12.0352 11.9767C12.241 11.8007 12.4944 11.6898 12.7632 11.6578C13.0321 11.6259 13.3044 11.6744 13.5458 11.7972C13.7871 11.92 13.9866 12.1116 14.119 12.3478C14.2514 12.584 14.3108 12.8541 14.2897 13.1241C14.2686 13.394 14.1679 13.6517 14.0003 13.8644C13.8328 14.0771 13.606 14.2354 13.3485 14.3192C13.1775 14.3748 12.9973 14.3963 12.818 14.3822C12.6388 14.3682 12.464 14.319 12.3038 14.2375C12.1436 14.1559 12.001 14.0436 11.8841 13.9069C11.7673 13.7703 11.6785 13.6119 11.6229 13.441ZM15.2046 18.8736C15.0244 19.0086 14.8082 19.087 14.5834 19.099C14.3585 19.1111 14.1352 19.0562 13.9416 18.9413C13.7479 18.8264 13.5927 18.6567 13.4955 18.4536C13.3984 18.2505 13.3636 18.0231 13.3956 17.8003C13.4277 17.5774 13.5251 17.3691 13.6755 17.2016C13.826 17.0341 14.0227 16.9149 14.2409 16.8592C14.4591 16.8036 14.6888 16.8138 14.9012 16.8887C15.1135 16.9636 15.2988 17.0998 15.4338 17.2801C15.5234 17.3997 15.5885 17.5359 15.6255 17.6807C15.6624 17.8256 15.6705 17.9763 15.6493 18.1243C15.628 18.2723 15.5778 18.4146 15.5015 18.5432C15.4252 18.6717 15.3243 18.784 15.2046 18.8736Z" fill="currentColor"/><path d="M13.2264 13.2162C13.2753 13.2252 13.3257 13.2211 13.3725 13.2042C13.4193 13.1874 13.4608 13.1584 13.4928 13.1203C13.5247 13.0822 13.546 13.0362 13.5544 12.9872C13.5629 12.9382 13.5581 12.8878 13.5407 12.8412C13.5239 12.7964 13.4961 12.7565 13.4599 12.7252C13.4236 12.6939 13.3801 12.6722 13.3333 12.6621C13.2694 12.6462 13.2109 12.6136 13.1638 12.5675C13.2033 12.4777 13.216 12.3785 13.2004 12.2817C13.1847 12.1849 13.1414 12.0947 13.0756 12.022C13.0098 11.9493 12.9244 11.8972 12.8296 11.872C12.7348 11.8468 12.6348 11.8496 12.5416 11.88C12.4484 11.9105 12.366 11.9672 12.3043 12.0435C12.2427 12.1197 12.2044 12.2122 12.1942 12.3097C12.1839 12.4072 12.2022 12.5056 12.2466 12.593C12.2911 12.6804 12.3599 12.753 12.4448 12.8022C12.4326 12.8633 12.4049 12.9204 12.3644 12.9678C12.3323 13.0033 12.3096 13.0463 12.2984 13.0929C12.2872 13.1394 12.2879 13.188 12.3004 13.2343C12.3135 13.2823 12.339 13.3259 12.3744 13.3608C12.4098 13.3957 12.4539 13.4206 12.5021 13.433C12.5503 13.4453 12.6009 13.4446 12.6487 13.431C12.6965 13.4174 12.7399 13.3914 12.7744 13.3556C12.8433 13.2811 12.8988 13.1954 12.9385 13.1021C13.0269 13.1569 13.1244 13.1955 13.2264 13.2162Z" fill="currentColor"/></symbol><symbol id="" viewBox="" fill="none"/><symbol id="" viewBox="" fill="none"/><symbol id="" viewBox="" fill="none"/></svg>