<svg width="24" height="24" viewBox="0 0 24 24" fill="none" xmlns="http://www.w3.org/2000/svg">
<g clip-path="url(#clip0_87_9413)">
<path d="M11.9995 24.0002C13.5757 24.0023 15.1368 23.6928 16.593 23.0896C18.0493 22.4864 19.3719 21.6013 20.485 20.4853C21.6011 19.3722 22.4861 18.0495 23.0893 16.5933C23.6925 15.1371 24.002 13.576 24 11.9997C24.002 10.4235 23.6925 8.86245 23.0893 7.40622C22.4861 5.94999 21.601 4.62732 20.485 3.51421C19.3719 2.39819 18.0493 1.51314 16.593 0.909924C15.1368 0.306713 13.5757 -0.00276466 11.9995 -0.00072238C10.4233 -0.00273179 8.86221 0.306761 7.40598 0.90997C5.94975 1.51318 4.62708 2.39821 3.51397 3.51421C2.39797 4.62732 1.51294 5.94999 0.909726 7.40622C0.306517 8.86245 -0.00297593 10.4235 -0.00096652 11.9997C-0.0030088 13.576 0.306469 15.1371 0.90968 16.5933C1.51289 18.0495 2.39794 19.3722 3.51397 20.4853C4.62708 21.6013 5.94975 22.4863 7.40598 23.0895C8.86221 23.6927 10.4233 24.0022 11.9995 24.0002Z" fill="#3BB0F2"/>
<path fill-rule="evenodd" clip-rule="evenodd" d="M12.0001 19.8009C12.3979 19.8009 12.7794 19.6429 13.0608 19.3615C13.3421 19.0802 13.5001 18.6987 13.5001 18.3008C13.5001 17.903 13.3421 17.5215 13.0608 17.2401C12.7794 16.9588 12.3979 16.8008 12.0001 16.8008C11.6022 16.8008 11.2207 16.9588 10.9394 17.2401C10.658 17.5215 10.5 17.903 10.5 18.3008C10.5 18.6987 10.658 19.0802 10.9394 19.3615C11.2207 19.6429 11.6022 19.8009 12.0001 19.8009Z" fill="white"/>
<path d="M11.999 4.80005V14.4004" stroke="white" stroke-width="2.16667" stroke-linecap="round" stroke-linejoin="round"/>
</g>
<defs>
<clipPath id="clip0_87_9413">
<rect width="24" height="24" fill="white"/>
</clipPath>
</defs>
</svg>
