<svg width="60" height="61" viewBox="0 0 60 61" fill="none" xmlns="http://www.w3.org/2000/svg">
<g clip-path="url(#clip0_773_78)">
<path fill-rule="evenodd" clip-rule="evenodd" d="M26.4649 6.01465C27.3499 5.13084 28.534 4.61079 29.7835 4.5571C31.0331 4.50342 32.2574 4.92 33.2149 5.72465L33.5349 6.01715L38.2849 10.7647H44.9999C46.2609 10.7649 47.4753 11.2416 48.3997 12.0992C49.3241 12.9569 49.8904 14.1322 49.9849 15.3897L49.9999 15.7647V22.4797L54.7499 27.2297C55.6344 28.1148 56.1549 29.2993 56.2086 30.5495C56.2623 31.7996 55.8453 33.0245 55.0399 33.9822L54.7474 34.2997L49.9974 39.0497V45.7647C49.9978 47.0261 49.5214 48.2411 48.6637 49.166C47.806 50.091 46.6303 50.6575 45.3724 50.7522L44.9999 50.7647H38.2874L33.5374 55.5147C32.6523 56.3992 31.4678 56.9197 30.2176 56.9734C28.9674 57.027 27.7426 56.61 26.7849 55.8047L26.4674 55.5147L21.7174 50.7647H14.9999C13.7385 50.7651 12.5235 50.2886 11.5986 49.4309C10.6736 48.5732 10.107 47.3975 10.0124 46.1397L9.99993 45.7647V39.0497L5.24993 34.2997C4.36541 33.4146 3.84492 32.23 3.79123 30.9798C3.73754 29.7297 4.15455 28.5048 4.95993 27.5472L5.24993 27.2297L9.99993 22.4797V15.7647C10.0002 14.5036 10.4769 13.2893 11.3345 12.3649C12.1922 11.4404 13.3675 10.8742 14.6249 10.7797L14.9999 10.7647H21.7149L26.4649 6.01465ZM37.6974 23.2222L27.0874 33.8322L22.6674 29.4122C22.1983 28.9434 21.5622 28.6802 20.899 28.6804C20.2359 28.6806 19.5999 28.9443 19.1312 29.4134C18.6624 29.8825 18.3992 30.5186 18.3994 31.1818C18.3997 31.845 18.6633 32.4809 19.1324 32.9497L25.1424 38.9597C25.3978 39.2151 25.701 39.4178 26.0347 39.5561C26.3685 39.6944 26.7262 39.7656 27.0874 39.7656C27.4487 39.7656 27.8064 39.6944 28.1401 39.5561C28.4738 39.4178 28.7771 39.2151 29.0324 38.9597L41.2324 26.7572C41.6878 26.2856 41.9398 25.6541 41.9341 24.9986C41.9284 24.3432 41.6655 23.7161 41.202 23.2526C40.7385 22.7891 40.1114 22.5262 39.4559 22.5205C38.8004 22.5148 38.1689 22.7668 37.6974 23.2222Z" fill="#3BB0F2"/>
</g>
<defs>
<clipPath id="clip0_773_78">
<rect width="60" height="60" fill="white" transform="translate(0 0.764648)"/>
</clipPath>
</defs>
</svg>
