<svg width="60" height="61" viewBox="0 0 60 61" fill="none" xmlns="http://www.w3.org/2000/svg">
<g clip-path="url(#clip0_773_87)">
<path d="M46.875 60.7646C50.356 60.7646 53.6944 59.3818 56.1558 56.9204C58.6172 54.459 60 51.1206 60 47.6396C60 44.1587 58.6172 40.8203 56.1558 38.3589C53.6944 35.8975 50.356 34.5146 46.875 34.5146C43.394 34.5146 40.0556 35.8975 37.5942 38.3589C35.1328 40.8203 33.75 44.1587 33.75 47.6396C33.75 51.1206 35.1328 54.459 37.5942 56.9204C40.0556 59.3818 43.394 60.7646 46.875 60.7646ZM53.1712 43.9159L48.165 52.2634C47.945 52.6301 47.6443 52.9419 47.2857 53.1749C46.9271 53.4079 46.5201 53.5561 46.0956 53.6082C45.6711 53.6602 45.2403 53.6148 44.8361 53.4754C44.4318 53.3359 44.0646 53.1061 43.7625 52.8034L40.86 49.9046C40.5079 49.5526 40.3101 49.0751 40.3101 48.5771C40.3101 48.0792 40.5079 47.6017 40.86 47.2496C41.2121 46.8976 41.6896 46.6998 42.1875 46.6998C42.6854 46.6998 43.1629 46.8976 43.515 47.2496L45.5662 49.3046L49.9538 41.9884C50.0803 41.7771 50.2472 41.5929 50.445 41.4461C50.6428 41.2994 50.8675 41.193 51.1064 41.1331C51.3453 41.0732 51.5936 41.061 51.8372 41.097C52.0809 41.1331 52.315 41.2168 52.5262 41.3434C52.7375 41.47 52.9218 41.6369 53.0685 41.8347C53.2153 42.0324 53.3216 42.2572 53.3815 42.4961C53.4414 42.7349 53.4537 42.9833 53.4176 43.2269C53.3815 43.4705 53.2978 43.7046 53.1712 43.9159ZM30 4.51465C24.1012 4.51465 18.6675 5.5984 14.64 7.4284C10.7812 9.1834 7.5 11.9884 7.5 15.7646C7.5 19.5409 10.7812 22.3459 14.64 24.1009C18.6675 25.9309 24.1012 27.0146 30 27.0146C35.8988 27.0146 41.3325 25.9309 45.36 24.1009C49.2188 22.3459 52.5 19.5409 52.5 15.7646C52.5 11.9884 49.2188 9.1834 45.36 7.4284C41.3325 5.5984 35.8988 4.51465 30 4.51465Z" fill="#3BB0F2"/>
<path d="M7.5 27.0147V23.8684C9.21375 25.4884 11.265 26.6847 13.0875 27.5134C17.7075 29.6134 23.6925 30.7647 30 30.7647C36.3075 30.7647 42.2925 29.6134 46.9125 27.5134C48.735 26.6884 50.7863 25.4884 52.5 23.8684V27.0147C52.5 28.6047 51.9188 30.0222 50.9587 31.2634C47.6035 30.4321 44.074 30.6489 40.8457 31.8845C37.6174 33.1202 34.8452 35.3155 32.9025 38.1747C31.9362 38.2351 30.9682 38.2651 30 38.2647C24.1012 38.2647 18.6675 37.1809 14.64 35.3509C10.7812 33.5959 7.5 30.7909 7.5 27.0147ZM30.9637 42.0072L30 42.0147C23.6925 42.0147 17.7075 40.8634 13.0875 38.7634C11.265 37.9384 9.21375 36.7384 7.5 35.1184V38.2647C7.5 42.0409 10.7812 44.8459 14.64 46.6009C18.6675 48.4309 24.1012 49.5147 30 49.5147H30.1013C29.8243 46.9791 30.119 44.4138 30.9637 42.0072ZM30.9563 53.2572L30 53.2647C23.6925 53.2647 17.7075 52.1134 13.0875 50.0134C11.265 49.1884 9.21375 47.9884 7.5 46.3684V49.5147C7.5 53.2909 10.7812 56.0959 14.64 57.8509C18.6675 59.6809 24.1012 60.7647 30 60.7647C32.01 60.7647 33.9675 60.6372 35.8313 60.4009C33.6142 58.4828 31.9342 56.0209 30.9563 53.2572Z" fill="#3BB0F2"/>
</g>
<defs>
<clipPath id="clip0_773_87">
<rect width="60" height="60" fill="white" transform="translate(0 0.764648)"/>
</clipPath>
</defs>
</svg>
