<svg width="60" height="60" viewBox="0 0 60 60" fill="none" xmlns="http://www.w3.org/2000/svg">
<path fill-rule="evenodd" clip-rule="evenodd" d="M18.7499 43.1252C18.7499 42.6279 18.9475 42.151 19.2991 41.7994C19.6507 41.4477 20.1276 41.2502 20.6249 41.2502H54.3749C54.8722 41.2502 55.3491 41.4477 55.7007 41.7994C56.0524 42.151 56.2499 42.6279 56.2499 43.1252C56.2499 43.6225 56.0524 44.0994 55.7007 44.451C55.3491 44.8026 54.8722 45.0002 54.3749 45.0002H20.6249C20.1276 45.0002 19.6507 44.8026 19.2991 44.451C18.9475 44.0994 18.7499 43.6225 18.7499 43.1252ZM18.7499 28.1252C18.7499 27.6279 18.9475 27.151 19.2991 26.7994C19.6507 26.4477 20.1276 26.2502 20.6249 26.2502H54.3749C54.8722 26.2502 55.3491 26.4477 55.7007 26.7994C56.0524 27.151 56.2499 27.6279 56.2499 28.1252C56.2499 28.6225 56.0524 29.0994 55.7007 29.451C55.3491 29.8026 54.8722 30.0002 54.3749 30.0002H20.6249C20.1276 30.0002 19.6507 29.8026 19.2991 29.451C18.9475 29.0994 18.7499 28.6225 18.7499 28.1252ZM18.7499 13.1252C18.7499 12.6279 18.9475 12.151 19.2991 11.7994C19.6507 11.4477 20.1276 11.2502 20.6249 11.2502H54.3749C54.8722 11.2502 55.3491 11.4477 55.7007 11.7994C56.0524 12.151 56.2499 12.6279 56.2499 13.1252C56.2499 13.6225 56.0524 14.0994 55.7007 14.451C55.3491 14.8026 54.8722 15.0002 54.3749 15.0002H20.6249C20.1276 15.0002 19.6507 14.8026 19.2991 14.451C18.9475 14.0994 18.7499 13.6225 18.7499 13.1252ZM14.4524 8.04768C14.627 8.22185 14.7656 8.42876 14.8601 8.65655C14.9546 8.88435 15.0033 9.12855 15.0033 9.37518C15.0033 9.62181 14.9546 9.86601 14.8601 10.0938C14.7656 10.3216 14.627 10.5285 14.4524 10.7027L8.82743 16.3277C8.65326 16.5023 8.44635 16.6408 8.21855 16.7354C7.99076 16.8299 7.74655 16.8785 7.49993 16.8785C7.2533 16.8785 7.0091 16.8299 6.7813 16.7354C6.55351 16.6408 6.3466 16.5023 6.17243 16.3277L4.29743 14.4527C4.1231 14.2783 3.98481 14.0714 3.89046 13.8436C3.79612 13.6158 3.74756 13.3717 3.74756 13.1252C3.74756 12.8786 3.79612 12.6345 3.89046 12.4067C3.98481 12.179 4.1231 11.972 4.29743 11.7977C4.47176 11.6233 4.67872 11.4851 4.90649 11.3907C5.13426 11.2964 5.37839 11.2478 5.62493 11.2478C5.87147 11.2478 6.11559 11.2964 6.34336 11.3907C6.57114 11.4851 6.7781 11.6233 6.95243 11.7977L7.49993 12.3489L11.7974 8.04768C11.9716 7.87307 12.1785 7.73453 12.4063 7.64001C12.6341 7.54548 12.8783 7.49683 13.1249 7.49683C13.3716 7.49683 13.6158 7.54548 13.8436 7.64001C14.0713 7.73453 14.2783 7.87307 14.4524 8.04768ZM14.4524 23.0477C14.627 23.2218 14.7656 23.4288 14.8601 23.6566C14.9546 23.8843 15.0033 24.1285 15.0033 24.3752C15.0033 24.6218 14.9546 24.866 14.8601 25.0938C14.7656 25.3216 14.627 25.5285 14.4524 25.7027L8.82743 31.3277C8.65326 31.5023 8.44635 31.6408 8.21855 31.7353C7.99076 31.8299 7.74655 31.8785 7.49993 31.8785C7.2533 31.8785 7.0091 31.8299 6.7813 31.7353C6.55351 31.6408 6.3466 31.5023 6.17243 31.3277L4.29743 29.4527C3.94535 29.1006 3.74756 28.6231 3.74756 28.1252C3.74756 27.6273 3.94535 27.1498 4.29743 26.7977C4.6495 26.4456 5.12702 26.2478 5.62493 26.2478C6.12284 26.2478 6.60035 26.4456 6.95243 26.7977L7.49993 27.3489L11.7974 23.0477C11.9716 22.8731 12.1785 22.7345 12.4063 22.64C12.6341 22.5455 12.8783 22.4968 13.1249 22.4968C13.3716 22.4968 13.6158 22.5455 13.8436 22.64C14.0713 22.7345 14.2783 22.8731 14.4524 23.0477ZM14.4524 38.0477C14.627 38.2218 14.7656 38.4288 14.8601 38.6566C14.9546 38.8843 15.0033 39.1285 15.0033 39.3752C15.0033 39.6218 14.9546 39.866 14.8601 40.0938C14.7656 40.3216 14.627 40.5285 14.4524 40.7027L8.82743 46.3277C8.65326 46.5023 8.44635 46.6408 8.21855 46.7353C7.99076 46.8299 7.74655 46.8785 7.49993 46.8785C7.2533 46.8785 7.0091 46.8299 6.7813 46.7353C6.55351 46.6408 6.3466 46.5023 6.17243 46.3277L4.29743 44.4527C3.94535 44.1006 3.74756 43.6231 3.74756 43.1252C3.74756 42.6273 3.94535 42.1498 4.29743 41.7977C4.6495 41.4456 5.12702 41.2478 5.62493 41.2478C6.12284 41.2478 6.60035 41.4456 6.95243 41.7977L7.49993 42.3489L11.7974 38.0477C11.9716 37.8731 12.1785 37.7345 12.4063 37.64C12.6341 37.5455 12.8783 37.4968 13.1249 37.4968C13.3716 37.4968 13.6158 37.5455 13.8436 37.64C14.0713 37.7345 14.2783 37.8731 14.4524 38.0477Z" fill="#3BB0F2"/>
</svg>
