<svg width="32" height="32" viewBox="0 0 32 32" fill="none" xmlns="http://www.w3.org/2000/svg">
<path d="M2.66699 14.6667L6.40966 10.4574C6.91003 9.89433 7.524 9.44362 8.21115 9.13498C8.8983 8.82634 9.64304 8.66676 10.3963 8.66675H10.667M2.66699 26.0001H10.0003L15.3337 22.0001C15.3337 22.0001 16.4137 21.2707 18.0003 20.0001C21.3337 17.3334 18.0003 13.1121 14.667 15.3334C11.9523 17.1427 9.33366 18.6667 9.33366 18.6667" stroke="#3BB0F2" stroke-width="2" stroke-linecap="round" stroke-linejoin="round"/>
<path d="M10.667 18.0001V9.33341C10.667 8.62617 10.9479 7.94789 11.448 7.4478C11.9481 6.9477 12.6264 6.66675 13.3337 6.66675H26.667C27.3742 6.66675 28.0525 6.9477 28.5526 7.4478C29.0527 7.94789 29.3337 8.62617 29.3337 9.33341V17.3334C29.3337 18.0407 29.0527 18.7189 28.5526 19.219C28.0525 19.7191 27.3742 20.0001 26.667 20.0001H18.0003" stroke="#3BB0F2" stroke-width="2"/>
<path d="M26 13.3467L26.0133 13.3321M14 13.3467L14.0133 13.3321M20 16.0001C19.2928 16.0001 18.6145 15.7191 18.1144 15.219C17.6143 14.7189 17.3333 14.0407 17.3333 13.3334C17.3333 12.6262 17.6143 11.9479 18.1144 11.4478C18.6145 10.9477 19.2928 10.6667 20 10.6667C20.7072 10.6667 21.3855 10.9477 21.8856 11.4478C22.3857 11.9479 22.6667 12.6262 22.6667 13.3334C22.6667 14.0407 22.3857 14.7189 21.8856 15.219C21.3855 15.7191 20.7072 16.0001 20 16.0001Z" stroke="#3BB0F2" stroke-width="2" stroke-linecap="round" stroke-linejoin="round"/>
</svg>
