<svg width="60" height="60" viewBox="0 0 60 60" fill="none" xmlns="http://www.w3.org/2000/svg">
<path d="M20 27.5002C22.6522 27.5002 25.1957 26.4467 27.0711 24.5713C28.9464 22.6959 30 20.1524 30 17.5002C30 14.8481 28.9464 12.3045 27.0711 10.4292C25.1957 8.55381 22.6522 7.50024 20 7.50024C17.3478 7.50024 14.8043 8.55381 12.9289 10.4292C11.0536 12.3045 10 14.8481 10 17.5002C10 20.1524 11.0536 22.6959 12.9289 24.5713C14.8043 26.4467 17.3478 27.5002 20 27.5002ZM42.5 27.5002C44.4891 27.5002 46.3968 26.7101 47.8033 25.3035C49.2098 23.897 50 21.9894 50 20.0002C50 18.0111 49.2098 16.1035 47.8033 14.6969C46.3968 13.2904 44.4891 12.5002 42.5 12.5002C40.5109 12.5002 38.6032 13.2904 37.1967 14.6969C35.7902 16.1035 35 18.0111 35 20.0002C35 21.9894 35.7902 23.897 37.1967 25.3035C38.6032 26.7101 40.5109 27.5002 42.5 27.5002ZM10.625 32.5002C9.13316 32.5002 7.70242 33.0929 6.64752 34.1478C5.59263 35.2027 5 36.6334 5 38.1252V38.7502C5 38.7502 5 50.0002 20 50.0002C23.475 50.0002 26.145 49.3977 28.195 48.4677C27.7326 46.938 27.4984 45.3484 27.5 43.7502C27.5 39.6077 29.05 35.8277 31.6 32.9577C30.8973 32.655 30.1401 32.4994 29.375 32.5002H10.625ZM57.5 43.7502C57.5 47.397 56.0513 50.8943 53.4727 53.473C50.8941 56.0516 47.3967 57.5002 43.75 57.5002C40.1033 57.5002 36.6059 56.0516 34.0273 53.473C31.4487 50.8943 30 47.397 30 43.7502C30 40.1035 31.4487 36.6061 34.0273 34.0275C36.6059 31.4489 40.1033 30.0002 43.75 30.0002C47.3967 30.0002 50.8941 31.4489 53.4727 34.0275C56.0513 36.6061 57.5 40.1035 57.5 43.7502ZM45.1375 36.0502C45.0517 35.7484 44.8698 35.4828 44.6194 35.2937C44.369 35.1046 44.0638 35.0023 43.75 35.0023C43.4362 35.0023 43.131 35.1046 42.8806 35.2937C42.6302 35.4828 42.4483 35.7484 42.3625 36.0502L40.97 40.5202H36.4625C35.0475 40.5202 34.4625 42.4052 35.605 43.2702L39.25 46.0327L37.8575 50.5002C37.42 51.9027 38.96 53.0702 40.105 52.2027L43.75 49.4427L47.395 52.2027C48.54 53.0702 50.08 51.9027 49.6425 50.5027L48.25 46.0327L51.895 43.2727C53.04 42.4052 52.4525 40.5202 51.0375 40.5202H46.53L45.1375 36.0502Z" fill="#3BB0F2"/>
</svg>
