<svg width="60" height="61" viewBox="0 0 60 61" fill="none" xmlns="http://www.w3.org/2000/svg">
<path d="M38.25 42.5147L41.75 39.0147L32.5 29.7647V18.2646H27.5V31.7647L38.25 42.5147ZM30 55.7647C26.5417 55.7647 23.2917 55.108 20.25 53.7947C17.2083 52.4813 14.5625 50.7005 12.3125 48.4522C10.0625 46.2022 8.28167 43.5563 6.97 40.5147C5.65833 37.473 5.00167 34.223 5 30.7647C5 27.3063 5.65667 24.0563 6.97 21.0147C8.28333 17.973 10.0642 15.3271 12.3125 13.0771C14.5625 10.8271 17.2083 9.04632 20.25 7.73465C23.2917 6.42298 26.5417 5.76632 30 5.76465C33.4583 5.76465 36.7083 6.42132 39.75 7.73465C42.7917 9.04798 45.4375 10.8288 47.6875 13.0771C49.9375 15.3271 51.7192 17.973 53.0325 21.0147C54.3458 24.0563 55.0017 27.3063 55 30.7647C55 34.223 54.3433 37.473 53.03 40.5147C51.7167 43.5563 49.9358 46.2022 47.6875 48.4522C45.4375 50.7022 42.7917 52.4838 39.75 53.7971C36.7083 55.1105 33.4583 55.7663 30 55.7647Z" fill="#3BB0F2"/>
</svg>
