<svg width="60" height="50" viewBox="0 0 60 50" fill="none" xmlns="http://www.w3.org/2000/svg">
<g clip-path="url(#clip0_773_57)">
<path d="M58.5 34.0281H57V23.8625C57 22.6682 56.5219 21.5209 55.6781 20.6745L46.3125 11.28C45.4688 10.4336 44.325 9.95405 43.1344 9.95405H39V5.44016C39 2.94812 36.9844 0.92627 34.5 0.92627H10.5C8.01562 0.92627 6 2.94812 6 5.44016V9.95405H0.75C0.3375 9.95405 0 10.2926 0 10.7064V12.211C0 12.6248 0.3375 12.9633 0.75 12.9633H26.25C26.6625 12.9633 27 13.3018 27 13.7156V15.2203C27 15.634 26.6625 15.9726 26.25 15.9726H3.75C3.3375 15.9726 3 16.3111 3 16.7249V18.2295C3 18.6433 3.3375 18.9818 3.75 18.9818H23.25C23.6625 18.9818 24 19.3204 24 19.7341V21.2388C24 21.6525 23.6625 21.9911 23.25 21.9911H0.75C0.3375 21.9911 0 22.3296 0 22.7434V24.248C0 24.6618 0.3375 25.0003 0.75 25.0003H20.25C20.6625 25.0003 21 25.3389 21 25.7527V27.2573C21 27.6711 20.6625 28.0096 20.25 28.0096H6V40.0466C6 45.0307 10.0312 49.0744 15 49.0744C19.9688 49.0744 24 45.0307 24 40.0466H36C36 45.0307 40.0312 49.0744 45 49.0744C49.9688 49.0744 54 45.0307 54 40.0466H58.5C59.325 40.0466 60 39.3696 60 38.542V35.5327C60 34.7052 59.325 34.0281 58.5 34.0281ZM15 44.5605C12.5156 44.5605 10.5 42.5387 10.5 40.0466C10.5 37.5546 12.5156 35.5327 15 35.5327C17.4844 35.5327 19.5 37.5546 19.5 40.0466C19.5 42.5387 17.4844 44.5605 15 44.5605ZM45 44.5605C42.5156 44.5605 40.5 42.5387 40.5 40.0466C40.5 37.5546 42.5156 35.5327 45 35.5327C47.4844 35.5327 49.5 37.5546 49.5 40.0466C49.5 42.5387 47.4844 44.5605 45 44.5605ZM52.5 25.0003H39V14.4679H43.1344L52.5 23.8625V25.0003Z" fill="#3BB0F2"/>
</g>
<defs>
<clipPath id="clip0_773_57">
<rect width="60" height="48.1481" fill="white" transform="translate(0 0.92627)"/>
</clipPath>
</defs>
</svg>
