<svg xmlns="http://www.w3.org/2000/svg">
	<symbol id="cart" viewBox="0 0 24 24" fill="none">
		<path d="M18.8332 19.0002C17.5382 19.0002 16.4998 20.0385 16.4998 21.3335C16.4998 21.9523 16.7457 22.5458 17.1833 22.9834C17.6208 23.421 18.2143 23.6668 18.8332 23.6668C19.452 23.6668 20.0455 23.421 20.4831 22.9834C20.9207 22.5458 21.1665 21.9523 21.1665 21.3335C21.1665 20.7147 20.9207 20.1212 20.4831 19.6836C20.0455 19.246 19.452 19.0002 18.8332 19.0002ZM0.166504 0.333496V2.66683H2.49984L6.69984 11.5218L5.11317 14.3802C4.93817 14.7068 4.83317 15.0918 4.83317 15.5002C4.83317 16.119 5.079 16.7125 5.51659 17.1501C5.95417 17.5877 6.54767 17.8335 7.1665 17.8335H21.1665V15.5002H7.6565C7.57915 15.5002 7.50496 15.4694 7.45026 15.4147C7.39557 15.36 7.36484 15.2859 7.36484 15.2085C7.36484 15.1502 7.3765 15.1035 7.39984 15.0685L8.44984 13.1668H17.1415C18.0165 13.1668 18.7865 12.6768 19.1832 11.9652L23.3598 4.41683C23.4415 4.23016 23.4998 4.03183 23.4998 3.8335C23.4998 3.52408 23.3769 3.22733 23.1581 3.00854C22.9393 2.78975 22.6426 2.66683 22.3332 2.66683H5.07817L3.9815 0.333496M7.1665 19.0002C5.8715 19.0002 4.83317 20.0385 4.83317 21.3335C4.83317 21.9523 5.079 22.5458 5.51659 22.9834C5.95417 23.421 6.54767 23.6668 7.1665 23.6668C7.78534 23.6668 8.37883 23.421 8.81642 22.9834C9.254 22.5458 9.49984 21.9523 9.49984 21.3335C9.49984 20.7147 9.254 20.1212 8.81642 19.6836C8.37883 19.246 7.78534 19.0002 7.1665 19.0002Z" fill="currentColor"/>
	</symbol>
	<symbol id="clock" viewBox="0 0 24 24" fill="none">
		<path d="M12 6V12H18" stroke="currentColor" stroke-width="2" stroke-linecap="round" stroke-linejoin="round"/>
		<path d="M12 22C17.523 22 22 17.523 22 12C22 6.477 17.523 2 12 2C6.477 2 2 6.477 2 12C2 17.523 6.477 22 12 22Z" stroke="currentColor" stroke-width="2" stroke-linecap="round" stroke-linejoin="round"/>
	</symbol>
	<symbol id="mail" viewBox="0 0 24 24" fill="none">
		<path d="M7 9L12 12.5L17 9" stroke="currentColor" stroke-width="2" stroke-linecap="round" stroke-linejoin="round"/>
		<path d="M2 17V7C2 6.46957 2.21071 5.96086 2.58579 5.58579C2.96086 5.21071 3.46957 5 4 5H20C20.5304 5 21.0391 5.21071 21.4142 5.58579C21.7893 5.96086 22 6.46957 22 7V17C22 17.5304 21.7893 18.0391 21.4142 18.4142C21.0391 18.7893 20.5304 19 20 19H4C3.46957 19 2.96086 18.7893 2.58579 18.4142C2.21071 18.0391 2 17.5304 2 17Z" stroke="currentColor" stroke-width="2"/>
	</symbol>
	<symbol id="phone" viewBox="0 0 24 24" fill="none">
		<path d="M18.118 14.702L14 15.5C11.218 14.104 9.49999 12.5 8.49999 10L9.26999 5.87L7.81499 2H4.06399C2.93599 2 2.04799 2.932 2.21699 4.047C2.63699 6.83 3.87699 11.877 7.49999 15.5C11.305 19.305 16.786 20.956 19.802 21.613C20.967 21.866 22 20.958 22 19.765V16.181L18.118 14.702Z" stroke="currentColor" stroke-width="2" stroke-linecap="round" stroke-linejoin="round"/>
	</symbol>
	<symbol id="hamburger" viewBox="0 0 24 24" fill="none">
		<path d="M3 5H21M3 12H21M3 19H21" stroke="currentColor" stroke-width="2" stroke-linecap="round" stroke-linejoin="round"/>
	</symbol>
	<symbol id="search" viewBox="0 0 16 16" fill="none">
		<path d="M11.3333 11.3333L14 14M2 7.33333C2 8.74782 2.5619 10.1044 3.5621 11.1046C4.56229 12.1048 5.91885 12.6667 7.33333 12.6667C8.74782 12.6667 10.1044 12.1048 11.1046 11.1046C12.1048 10.1044 12.6667 8.74782 12.6667 7.33333C12.6667 5.91885 12.1048 4.56229 11.1046 3.5621C10.1044 2.5619 8.74782 2 7.33333 2C5.91885 2 4.56229 2.5619 3.5621 3.5621C2.5619 4.56229 2 5.91885 2 7.33333Z" stroke="currentColor" stroke-width="1.5" stroke-linecap="round" stroke-linejoin="round"/>
	</symbol>
	<symbol id="chevron-left" viewBox="0 0 32 32" fill="none">
		<path d="M21.4141 28.7279C21.789 28.3528 21.9997 27.8442 21.9997 27.3139C21.9997 26.7836 21.789 26.275 21.4141 25.8999L11.5141 15.9999L21.4141 6.0999C21.7784 5.7227 21.98 5.21749 21.9754 4.6931C21.9709 4.16871 21.7605 3.66708 21.3897 3.29626C21.0189 2.92545 20.5173 2.71511 19.9929 2.71055C19.4685 2.706 18.9633 2.90759 18.5861 3.2719L7.2721 14.5859C6.89715 14.961 6.68652 15.4696 6.68652 15.9999C6.68652 16.5302 6.89715 17.0388 7.2721 17.4139L18.5861 28.7279C18.9612 29.1028 19.4698 29.3135 20.0001 29.3135C20.5304 29.3135 21.039 29.1028 21.4141 28.7279Z" fill="currentColor"/>
		<path d="M21.4141 28.7279C21.789 28.3528 21.9997 27.8442 21.9997 27.3139C21.9997 26.7836 21.789 26.275 21.4141 25.8999L11.5141 15.9999L21.4141 6.0999C21.7784 5.7227 21.98 5.21749 21.9754 4.6931C21.9709 4.16871 21.7605 3.66708 21.3897 3.29626C21.0189 2.92545 20.5173 2.71511 19.9929 2.71055C19.4685 2.706 18.9633 2.90759 18.5861 3.2719L7.2721 14.5859C6.89715 14.961 6.68652 15.4696 6.68652 15.9999C6.68652 16.5302 6.89715 17.0388 7.2721 17.4139L18.5861 28.7279C18.9612 29.1028 19.4698 29.3135 20.0001 29.3135C20.5304 29.3135 21.039 29.1028 21.4141 28.7279Z" stroke="currentColor"/>
	</symbol>
	<symbol id="chevron-right" viewBox="0 0 32 32" fill="none">
		<path d="M10.5859 3.2721C10.211 3.64715 10.0003 4.15577 10.0003 4.6861C10.0003 5.21642 10.211 5.72504 10.5859 6.1001L20.4859 16.0001L10.5859 25.9001C10.2216 26.2773 10.02 26.7825 10.0246 27.3069C10.0291 27.8313 10.2395 28.3329 10.6103 28.7037C10.9811 29.0746 11.4827 29.2849 12.0071 29.2894C12.5315 29.294 13.0367 29.0924 13.4139 28.7281L24.7279 17.4141C25.1028 17.039 25.3135 16.5304 25.3135 16.0001C25.3135 15.4698 25.1028 14.9612 24.7279 14.5861L13.4139 3.2721C13.0388 2.89715 12.5302 2.68652 11.9999 2.68652C11.4696 2.68652 10.961 2.89715 10.5859 3.2721Z" fill="currentColor"/>
		<path d="M10.5859 3.2721C10.211 3.64715 10.0003 4.15577 10.0003 4.6861C10.0003 5.21642 10.211 5.72504 10.5859 6.1001L20.4859 16.0001L10.5859 25.9001C10.2216 26.2773 10.02 26.7825 10.0246 27.3069C10.0291 27.8313 10.2395 28.3329 10.6103 28.7037C10.9811 29.0746 11.4827 29.2849 12.0071 29.2894C12.5315 29.294 13.0367 29.0924 13.4139 28.7281L24.7279 17.4141C25.1028 17.039 25.3135 16.5304 25.3135 16.0001C25.3135 15.4698 25.1028 14.9612 24.7279 14.5861L13.4139 3.2721C13.0388 2.89715 12.5302 2.68652 11.9999 2.68652C11.4696 2.68652 10.961 2.89715 10.5859 3.2721Z" stroke="currentColor"/>
	</symbol>
	<symbol id="location" viewBox="0 0 24 24" fill="none">
		<path d="M11.2948 1.41162C9.04827 1.41162 6.89374 2.30406 5.3052 3.8926C3.71665 5.48114 2.82422 7.63567 2.82422 9.88221C2.82422 11.8855 3.25057 13.197 4.41245 14.6469L11.2948 22.5881L18.1772 14.6469C19.339 13.197 19.7654 11.8855 19.7654 9.88221C19.7654 7.63567 18.873 5.48114 17.2844 3.8926C15.6959 2.30406 13.5413 1.41162 11.2948 1.41162Z" stroke="currentColor" stroke-width="1.5" stroke-linecap="round" stroke-linejoin="round"/>
		<path d="M11.2946 11.2937C12.0743 11.2937 12.7063 10.6617 12.7063 9.88198C12.7063 9.10228 12.0743 8.47021 11.2946 8.47021C10.5149 8.47021 9.88281 9.10228 9.88281 9.88198C9.88281 10.6617 10.5149 11.2937 11.2946 11.2937Z" stroke="currentColor" stroke-width="2" stroke-linecap="round" stroke-linejoin="round"/>
	</symbol>
	<symbol id="arrow-down" viewBox="0 0 16 16" fill="none">
		<path d="M8.00065 1.78955V13.7896M8.00065 13.7896L13.6673 8.12288M8.00065 13.7896L2.33398 8.12288" stroke="currentColor" stroke-width="1.5" stroke-linecap="round" stroke-linejoin="round"/>
	</symbol>
	<symbol id="close" viewBox="0 0 24 24" fill="none">
		<path d="M19.5459 17.954C19.7572 18.1653 19.876 18.452 19.876 18.7509C19.876 19.0497 19.7572 19.3364 19.5459 19.5477C19.3346 19.7591 19.0479 19.8778 18.749 19.8778C18.4501 19.8778 18.1635 19.7591 17.9521 19.5477L12 13.5937L6.0459 19.5459C5.83455 19.7572 5.54791 19.8759 5.24902 19.8759C4.95014 19.8759 4.66349 19.7572 4.45215 19.5459C4.2408 19.3345 4.12207 19.0479 4.12207 18.749C4.12207 18.4501 4.2408 18.1635 4.45215 17.9521L10.4062 11.9999L4.45402 6.04586C4.24268 5.83451 4.12395 5.54787 4.12395 5.24898C4.12395 4.9501 4.24268 4.66345 4.45402 4.45211C4.66537 4.24076 4.95201 4.12203 5.2509 4.12203C5.54978 4.12203 5.83643 4.24076 6.04777 4.45211L12 10.4062L17.954 4.45117C18.1654 4.23983 18.452 4.12109 18.7509 4.12109C19.0498 4.12109 19.3364 4.23983 19.5478 4.45117C19.7591 4.66251 19.8778 4.94916 19.8778 5.24804C19.8778 5.54693 19.7591 5.83358 19.5478 6.04492L13.5937 11.9999L19.5459 17.954Z" fill="currentColor"/>
	</symbol>
	<symbol id="chevron-up" viewBox="0 0 24 24" fill="none">
		<path d="M2.45383 16.0606C2.73512 16.3418 3.11658 16.4998 3.51433 16.4998C3.91207 16.4998 4.29354 16.3418 4.57483 16.0606L11.9998 8.63557L19.4248 16.0606C19.7077 16.3338 20.0866 16.485 20.4799 16.4816C20.8732 16.4782 21.2494 16.3204 21.5276 16.0423C21.8057 15.7642 21.9634 15.388 21.9668 14.9947C21.9703 14.6014 21.8191 14.2225 21.5458 13.9396L13.0603 5.45407C12.779 5.17287 12.3976 5.01489 11.9998 5.01489C11.6021 5.01489 11.2206 5.17287 10.9393 5.45407L2.45383 13.9396C2.17262 14.2209 2.01465 14.6023 2.01465 15.0001C2.01465 15.3978 2.17262 15.7793 2.45383 16.0606Z" fill="currentColor"/>
		<path d="M2.45383 16.0606C2.73512 16.3418 3.11658 16.4998 3.51433 16.4998C3.91207 16.4998 4.29354 16.3418 4.57483 16.0606L11.9998 8.63557L19.4248 16.0606C19.7077 16.3338 20.0866 16.485 20.4799 16.4816C20.8732 16.4782 21.2494 16.3204 21.5276 16.0423C21.8057 15.7642 21.9634 15.388 21.9668 14.9947C21.9703 14.6014 21.8191 14.2225 21.5458 13.9396L13.0603 5.45407C12.779 5.17287 12.3976 5.01489 11.9998 5.01489C11.6021 5.01489 11.2206 5.17287 10.9393 5.45407L2.45383 13.9396C2.17262 14.2209 2.01465 14.6023 2.01465 15.0001C2.01465 15.3978 2.17262 15.7793 2.45383 16.0606Z" stroke="currentColor"/>
	</symbol>
	<symbol id="" viewBox="" fill="none">
		
	</symbol>
	<symbol id="" viewBox="" fill="none">
		
	</symbol>
	<symbol id="" viewBox="" fill="none">
		
	</symbol>
	<symbol id="" viewBox="" fill="none">
		
	</symbol>
</svg>