<svg width="32" height="32" viewBox="0 0 32 32" fill="none" xmlns="http://www.w3.org/2000/svg">
<circle cx="16" cy="16" r="16" fill="#24CC63"/>
<path d="M23.0498 8.91006C22.133 7.98399 21.041 7.24973 19.8374 6.75011C18.6339 6.25049 17.3429 5.99552 16.0398 6.00006C10.5798 6.00006 6.1298 10.4501 6.1298 15.9101C6.1298 17.6601 6.5898 19.3601 7.4498 20.8601L6.0498 26.0001L11.2998 24.6201C12.7498 25.4101 14.3798 25.8301 16.0398 25.8301C21.4998 25.8301 25.9498 21.3801 25.9498 15.9201C25.9498 13.2701 24.9198 10.7801 23.0498 8.91006ZM16.0398 24.1501C14.5598 24.1501 13.1098 23.7501 11.8398 23.0001L11.5398 22.8201L8.4198 23.6401L9.2498 20.6001L9.0498 20.2901C8.22755 18.977 7.79094 17.4593 7.7898 15.9101C7.7898 11.3701 11.4898 7.67006 16.0298 7.67006C18.2298 7.67006 20.2998 8.53006 21.8498 10.0901C22.6173 10.854 23.2255 11.7627 23.6392 12.7635C24.0529 13.7642 24.2638 14.8372 24.2598 15.9201C24.2798 20.4601 20.5798 24.1501 16.0398 24.1501ZM20.5598 17.9901C20.3098 17.8701 19.0898 17.2701 18.8698 17.1801C18.6398 17.1001 18.4798 17.0601 18.3098 17.3001C18.1398 17.5501 17.6698 18.1101 17.5298 18.2701C17.3898 18.4401 17.2398 18.4601 16.9898 18.3301C16.7398 18.2101 15.9398 17.9401 14.9998 17.1001C14.2598 16.4401 13.7698 15.6301 13.6198 15.3801C13.4798 15.1301 13.5998 15.0001 13.7298 14.8701C13.8398 14.7601 13.9798 14.5801 14.0998 14.4401C14.2198 14.3001 14.2698 14.1901 14.3498 14.0301C14.4298 13.8601 14.3898 13.7201 14.3298 13.6001C14.2698 13.4801 13.7698 12.2601 13.5698 11.7601C13.3698 11.2801 13.1598 11.3401 13.0098 11.3301H12.5298C12.3598 11.3301 12.0998 11.3901 11.8698 11.6401C11.6498 11.8901 11.0098 12.4901 11.0098 13.7101C11.0098 14.9301 11.8998 16.1101 12.0198 16.2701C12.1398 16.4401 13.7698 18.9401 16.2498 20.0101C16.8398 20.2701 17.2998 20.4201 17.6598 20.5301C18.2498 20.7201 18.7898 20.6901 19.2198 20.6301C19.6998 20.5601 20.6898 20.0301 20.8898 19.4501C21.0998 18.8701 21.0998 18.3801 21.0298 18.2701C20.9598 18.1601 20.8098 18.1101 20.5598 17.9901Z" fill="white"/>
</svg>
