<svg width="32" height="32" viewBox="0 0 32 32" fill="none" xmlns="http://www.w3.org/2000/svg"><circle cx="16" cy="16" r="16" fill="#FF5632"/><path d="M10.6663 21.3334C10.2997 21.3334 9.98579 21.2029 9.72467 20.9417C9.46356 20.6806 9.33301 20.3667 9.33301 20.0001V12.0001C9.33301 11.6334 9.46356 11.3195 9.72467 11.0584C9.98579 10.7973 10.2997 10.6667 10.6663 10.6667H21.333C21.6997 10.6667 22.0136 10.7973 22.2747 11.0584C22.5358 11.3195 22.6663 11.6334 22.6663 12.0001V20.0001C22.6663 20.3667 22.5358 20.6806 22.2747 20.9417C22.0136 21.2029 21.6997 21.3334 21.333 21.3334H10.6663ZM15.9997 16.6667L21.333 13.3334V12.0001L15.9997 15.3334L10.6663 12.0001V13.3334L15.9997 16.6667Z" fill="white"/></svg>