<svg width="40" height="40" viewBox="0 0 40 40" fill="none" xmlns="http://www.w3.org/2000/svg"><circle cx="20" cy="20" r="20" fill="#7E206D"/><path fill-rule="evenodd" clip-rule="evenodd" d="M32.0834 18.6902H7.91669V25.7552C7.91669 27.2569 9.13419 28.4735 10.635 28.4735H29.365C30.8659 28.4735 32.0834 27.2569 32.0834 25.7552V18.6902ZM29.2217 23.9535V23.3335C29.2217 22.4677 28.52 21.766 27.6542 21.766H23.6259C22.76 21.766 22.0575 22.4677 22.0575 23.3335V23.9535C22.0575 24.8194 22.76 25.521 23.6259 25.521H27.6542C28.52 25.521 29.2217 24.8194 29.2217 23.9535ZM32.0834 15.8127V17.8569H7.91669V15.8127H32.0834ZM7.91669 14.9794H32.0834V14.2452C32.0834 12.7435 30.8659 11.5269 29.365 11.5269C24.8975 11.5269 15.1025 11.5269 10.635 11.5269C9.13419 11.5269 7.91669 12.7435 7.91669 14.2452V14.9794Z" fill="white"/></svg>