<svg width="40" height="40" viewBox="0 0 40 40" fill="none" xmlns="http://www.w3.org/2000/svg"><circle cx="20" cy="20" r="20" fill="#F7F7F7"/><g clip-path="url(#clip0_8_129)"><path fill-rule="evenodd" clip-rule="evenodd" d="M18.3155 21.3275L21.5809 23.4752V27.4584L18.3005 33.3334L18.3155 21.3275Z" fill="#62B22F"/><path fill-rule="evenodd" clip-rule="evenodd" d="M15.6081 19.6312L18.8659 21.5193L9.19305 27.3943L12.3502 21.6482L15.6081 19.6312Z" fill="#974995"/><path fill-rule="evenodd" clip-rule="evenodd" d="M30.8012 14.2031L24.5762 14.172L21.5781 12.3695L18.3193 6.66669L30.8012 14.2031Z" fill="#EE7024"/><path fill-rule="evenodd" clip-rule="evenodd" d="M18.3193 6.66669L21.5781 12.3695L21.5847 20.2277L18.2996 19.2239L18.3193 6.66669Z" fill="#FBB61B"/><path fill-rule="evenodd" clip-rule="evenodd" d="M9.16669 12.4044L12.3606 18.2107L12.3502 21.6482L9.19303 27.3944L9.16669 12.4044Z" fill="#5A58A3"/><path fill-rule="evenodd" clip-rule="evenodd" d="M9.16669 12.4044L30.7523 25.6116L24.5669 25.6549L12.3606 18.2107L9.16669 12.4044Z" fill="#2188CB"/><path fill-rule="evenodd" clip-rule="evenodd" d="M24.5763 14.1721L30.8012 14.2031L21.5875 19.8674L21.5781 15.999L24.5763 14.1721Z" fill="#DA0954"/><path fill-rule="evenodd" clip-rule="evenodd" d="M21.5809 27.4583L24.5669 25.6549L30.7523 25.6116L18.3005 33.3334L21.5809 27.4583Z" fill="#037F37"/></g><defs><clipPath id="clip0_8_129"><rect width="21.6346" height="26.6667" fill="white" transform="translate(9.16669 6.66669)"/></clipPath></defs></svg>