<svg width="24" height="24" viewBox="0 0 24 24" fill="none" xmlns="http://www.w3.org/2000/svg"><path fill-rule="evenodd" clip-rule="evenodd" d="M23.1677 8H0.53334C2.18069 3.33923 6.62565 0 11.8505 0C17.0754 0 21.5204 3.33923 23.1677 8Z" fill="#F0F0F0"/><path fill-rule="evenodd" clip-rule="evenodd" d="M23.3172 16C23.7594 14.7489 24 13.4025 24 12C24 10.5975 23.7594 9.25112 23.3172 8H0.682823C0.240617 9.25112 0 10.5975 0 12C0 13.4025 0.240617 14.7489 0.682823 16H23.3172Z" fill="#0052B5"/><path fill-rule="evenodd" clip-rule="evenodd" d="M23.1677 16C21.5204 20.6608 17.0754 24 11.8505 24C6.62565 24 2.18069 20.6608 0.53334 16H23.1677Z" fill="#D80128"/></svg>