<svg xmlns="http://www.w3.org/2000/svg"><symbol id="close" viewBox="0 0 32 32" fill="none"><path d="M9.2404 24.6262C8.84988 25.0167 8.21671 25.0167 7.82619 24.6262L7.37373 24.1737C6.98321 23.7832 6.98321 23.15 7.37373 22.7595L13.4262 16.7071C13.8167 16.3165 13.8167 15.6834 13.4262 15.2929L7.37373 9.2404C6.98321 8.84988 6.98321 8.21671 7.37373 7.82619L7.82619 7.37373C8.21671 6.98321 8.84987 6.98321 9.2404 7.37373L15.2929 13.4262C15.6834 13.8167 16.3165 13.8167 16.7071 13.4262L22.7595 7.37373C23.15 6.98321 23.7832 6.98321 24.1737 7.37373L24.6262 7.82619C25.0167 8.21671 25.0167 8.84987 24.6262 9.2404L18.5737 15.2929C18.1832 15.6834 18.1832 16.3165 18.5737 16.7071L24.6262 22.7595C25.0167 23.15 25.0167 23.7832 24.6262 24.1737L24.1737 24.6262C23.7832 25.0167 23.15 25.0167 22.7595 24.6262L16.7071 18.5737C16.3165 18.1832 15.6834 18.1832 15.2929 18.5737L9.2404 24.6262Z" fill="currentColor"/></symbol><symbol id="cancel-payment" viewBox="0 0 40 40" fill="none"><path d="M28.125 35.875L25.7917 33.5417L29.2917 30L25.7917 26.4584L28.125 24.125L31.6667 27.625L35.2083 24.125L37.5417 26.4584L34.0417 30L37.5417 33.5417L35.2083 35.875L31.6667 32.375L28.125 35.875ZM15 15V11.6667H30V15H15ZM15 20V16.6667H30V20H15ZM10 36.6667C8.61111 36.6667 7.43056 36.1806 6.45833 35.2084C5.48611 34.2362 5 33.0556 5 31.6667V26.6667H10V3.33337H35V20.625C34.4722 20.4306 33.9306 20.2848 33.375 20.1875C32.8194 20.0903 32.25 20.0417 31.6667 20.0417V6.66671H13.3333V26.6667H22.25C22.0556 27.2223 21.9097 27.7778 21.8125 28.3334C21.7153 28.8889 21.6667 29.4445 21.6667 30C21.6667 31.2223 21.8819 32.4028 22.3125 33.5417C22.7431 34.6806 23.3889 35.7223 24.25 36.6667H10Z" fill="currentColor"/></symbol><symbol id="warning-triangle" viewBox="0 0 24 24" fill="none"><path d="M1 21L12 2L23 21H1ZM12 18C12.2833 18 12.5208 17.9042 12.7125 17.7125C12.9042 17.5208 13 17.2833 13 17C13 16.7167 12.9042 16.4792 12.7125 16.2875C12.5208 16.0958 12.2833 16 12 16C11.7167 16 11.4792 16.0958 11.2875 16.2875C11.0958 16.4792 11 16.7167 11 17C11 17.2833 11.0958 17.5208 11.2875 17.7125C11.4792 17.9042 11.7167 18 12 18ZM11 15H13V10H11V15Z" fill="currentColor"/></symbol><symbol id="error-circle" viewBox="0 0 64 64" fill="none"><path d="M32.0006 45.3332C32.7562 45.3332 33.3895 45.0777 33.9007 44.5666C34.4118 44.0555 34.6673 43.4221 34.6673 42.6666C34.6673 41.911 34.4118 41.2777 33.9007 40.7666C33.3895 40.2555 32.7562 39.9999 32.0006 39.9999C31.2451 39.9999 30.6118 40.2555 30.1006 40.7666C29.5895 41.2777 29.334 41.911 29.334 42.6666C29.334 43.4221 29.5895 44.0555 30.1006 44.5666C30.6118 45.0777 31.2451 45.3332 32.0006 45.3332ZM29.334 34.6666H34.6673V18.6666H29.334V34.6666ZM32.0006 58.6666C28.3118 58.6666 24.8451 57.9666 21.6007 56.5666C18.3562 55.1666 15.534 53.2666 13.134 50.8666C10.734 48.4666 8.83398 45.6444 7.43398 42.3999C6.03398 39.1555 5.33398 35.6888 5.33398 31.9999C5.33398 28.311 6.03398 24.8444 7.43398 21.5999C8.83398 18.3555 10.734 15.5333 13.134 13.1333C15.534 10.7333 18.3562 8.83325 21.6007 7.43325C24.8451 6.03325 28.3118 5.33325 32.0006 5.33325C35.6895 5.33325 39.1562 6.03325 42.4007 7.43325C45.6451 8.83325 48.4673 10.7333 50.8673 13.1333C53.2673 15.5333 55.1673 18.3555 56.5673 21.5999C57.9673 24.8444 58.6673 28.311 58.6673 31.9999C58.6673 35.6888 57.9673 39.1555 56.5673 42.3999C55.1673 45.6444 53.2673 48.4666 50.8673 50.8666C48.4673 53.2666 45.6451 55.1666 42.4007 56.5666C39.1562 57.9666 35.6895 58.6666 32.0006 58.6666ZM32.0006 53.3332C37.9562 53.3332 43.0006 51.2666 47.134 47.1333C51.2673 42.9999 53.334 37.9555 53.334 31.9999C53.334 26.0444 51.2673 20.9999 47.134 16.8666C43.0006 12.7333 37.9562 10.6666 32.0006 10.6666C26.0451 10.6666 21.0007 12.7333 16.8673 16.8666C12.734 20.9999 10.6673 26.0444 10.6673 31.9999C10.6673 37.9555 12.734 42.9999 16.8673 47.1333C21.0007 51.2666 26.0451 53.3332 32.0006 53.3332Z" fill="currentColor"/></symbol><symbol id="success-circle" viewBox="0 0 64 64" fill="none"><path d="M28.2673 44.2666L47.0673 25.4666L43.334 21.7333L28.2673 36.7999L20.6673 29.1999L16.934 32.9333L28.2673 44.2666ZM32.0006 58.6666C28.3118 58.6666 24.8451 57.9666 21.6007 56.5666C18.3562 55.1666 15.534 53.2666 13.134 50.8666C10.734 48.4666 8.83398 45.6444 7.43398 42.3999C6.03398 39.1555 5.33398 35.6888 5.33398 31.9999C5.33398 28.311 6.03398 24.8444 7.43398 21.5999C8.83398 18.3555 10.734 15.5333 13.134 13.1333C15.534 10.7333 18.3562 8.83325 21.6007 7.43325C24.8451 6.03325 28.3118 5.33325 32.0006 5.33325C35.6895 5.33325 39.1562 6.03325 42.4007 7.43325C45.6451 8.83325 48.4673 10.7333 50.8673 13.1333C53.2673 15.5333 55.1673 18.3555 56.5673 21.5999C57.9673 24.8444 58.6673 28.311 58.6673 31.9999C58.6673 35.6888 57.9673 39.1555 56.5673 42.3999C55.1673 45.6444 53.2673 48.4666 50.8673 50.8666C48.4673 53.2666 45.6451 55.1666 42.4007 56.5666C39.1562 57.9666 35.6895 58.6666 32.0006 58.6666ZM32.0006 53.3332C37.9562 53.3332 43.0006 51.2666 47.134 47.1333C51.2673 42.9999 53.334 37.9555 53.334 31.9999C53.334 26.0444 51.2673 20.9999 47.134 16.8666C43.0006 12.7333 37.9562 10.6666 32.0006 10.6666C26.0451 10.6666 21.0007 12.7333 16.8673 16.8666C12.734 20.9999 10.6673 26.0444 10.6673 31.9999C10.6673 37.9555 12.734 42.9999 16.8673 47.1333C21.0007 51.2666 26.0451 53.3332 32.0006 53.3332Z" fill="currentColor"/></symbol><symbol id="check" viewBox="0 0 40 40" fill="none"><path d="M10 36.6666C8.61111 36.6666 7.43056 36.1805 6.45833 35.2083C5.48611 34.236 5 33.0555 5 31.6666V26.6666H10V3.33325L12.5 5.83325L15 3.33325L17.5 5.83325L20 3.33325L22.5 5.83325L25 3.33325L27.5 5.83325L30 3.33325L32.5 5.83325L35 3.33325V31.6666C35 33.0555 34.5139 34.236 33.5417 35.2083C32.5694 36.1805 31.3889 36.6666 30 36.6666H10ZM30 33.3333C30.4722 33.3333 30.8681 33.1735 31.1875 32.8541C31.5069 32.5346 31.6667 32.1388 31.6667 31.6666V8.33325H13.3333V26.6666H28.3333V31.6666C28.3333 32.1388 28.4931 32.5346 28.8125 32.8541C29.1319 33.1735 29.5278 33.3333 30 33.3333ZM15 14.9999V11.6666H25V14.9999H15ZM15 19.9999V16.6666H25V19.9999H15ZM28.3333 14.9999C27.8611 14.9999 27.4653 14.8402 27.1458 14.5208C26.8264 14.2013 26.6667 13.8055 26.6667 13.3333C26.6667 12.861 26.8264 12.4652 27.1458 12.1458C27.4653 11.8263 27.8611 11.6666 28.3333 11.6666C28.8056 11.6666 29.2014 11.8263 29.5208 12.1458C29.8403 12.4652 30 12.861 30 13.3333C30 13.8055 29.8403 14.2013 29.5208 14.5208C29.2014 14.8402 28.8056 14.9999 28.3333 14.9999ZM28.3333 19.9999C27.8611 19.9999 27.4653 19.8402 27.1458 19.5208C26.8264 19.2013 26.6667 18.8055 26.6667 18.3333C26.6667 17.861 26.8264 17.4652 27.1458 17.1458C27.4653 16.8263 27.8611 16.6666 28.3333 16.6666C28.8056 16.6666 29.2014 16.8263 29.5208 17.1458C29.8403 17.4652 30 17.861 30 18.3333C30 18.8055 29.8403 19.2013 29.5208 19.5208C29.2014 19.8402 28.8056 19.9999 28.3333 19.9999Z" fill="currentColor"/></symbol><symbol id="chevron-right" viewBox="0 0 24 24" fill="none"><path d="M12.9463 11.9999L8.34625 7.39994L9.4 6.34619L15.0538 11.9999L9.4 17.6537L8.34625 16.5999L12.9463 11.9999Z" fill="currentColor"/></symbol><symbol id="chevron-top" viewBox="0 0 24 24" fill="none"><path d="M12 10.8L7.4 15.4L6 14L12 8L18 14L16.6 15.4L12 10.8Z" fill="currentColor"/></symbol><symbol id="chevron-bottom" viewBox="0 0 24 24" fill="none"><path d="M12 15.4L6 9.4L7.4 8L12 12.6L16.6 8L18 9.4L12 15.4Z" fill="currentColor"/></symbol><symbol id="chevron-left" viewBox="0 0 24 24" fill="none"><path d="M14 18L8 12L14 6L15.4 7.4L10.8 12L15.4 16.6L14 18Z" fill="currentColor"/></symbol><symbol id="bank" viewBox="0 0 24 24" fill="none"><path d="M5 17V10H7V17H5ZM11 17V10H13V17H11ZM2 21V19H22V21H2ZM17 17V10H19V17H17ZM2 8V6L12 1L22 6V8H2ZM6.45 6H17.55L12 3.25L6.45 6Z" fill="currentColor"/></symbol><symbol id="time" viewBox="0 0 24 24" fill="none"><path d="M12 11C13.1 11 14.0417 10.6083 14.825 9.825C15.6083 9.04167 16 8.1 16 7V4H8V7C8 8.1 8.39167 9.04167 9.175 9.825C9.95833 10.6083 10.9 11 12 11ZM4 22V20H6V17C6 15.9833 6.2375 15.0292 6.7125 14.1375C7.1875 13.2458 7.85 12.5333 8.7 12C7.85 11.4667 7.1875 10.7542 6.7125 9.8625C6.2375 8.97083 6 8.01667 6 7V4H4V2H20V4H18V7C18 8.01667 17.7625 8.97083 17.2875 9.8625C16.8125 10.7542 16.15 11.4667 15.3 12C16.15 12.5333 16.8125 13.2458 17.2875 14.1375C17.7625 15.0292 18 15.9833 18 17V20H20V22H4Z" fill="currentColor"/></symbol><symbol id="copy" viewBox="0 0 16 16" fill="none"><path d="M6 12C5.63333 12 5.31944 11.8695 5.05833 11.6084C4.79722 11.3473 4.66667 11.0334 4.66667 10.6667V2.66671C4.66667 2.30004 4.79722 1.98615 5.05833 1.72504C5.31944 1.46393 5.63333 1.33337 6 1.33337H12C12.3667 1.33337 12.6806 1.46393 12.9417 1.72504C13.2028 1.98615 13.3333 2.30004 13.3333 2.66671V10.6667C13.3333 11.0334 13.2028 11.3473 12.9417 11.6084C12.6806 11.8695 12.3667 12 12 12H6ZM3.33333 14.6667C2.96667 14.6667 2.65278 14.5362 2.39167 14.275C2.13056 14.0139 2 13.7 2 13.3334V4.00004H3.33333V13.3334H10.6667V14.6667H3.33333Z" fill="currentColor"/></symbol><symbol id="user" viewBox="0 0 24 24" fill="none"><path d="M12 12C10.9 12 9.95833 11.6083 9.175 10.825C8.39167 10.0417 8 9.1 8 8C8 6.9 8.39167 5.95833 9.175 5.175C9.95833 4.39167 10.9 4 12 4C13.1 4 14.0417 4.39167 14.825 5.175C15.6083 5.95833 16 6.9 16 8C16 9.1 15.6083 10.0417 14.825 10.825C14.0417 11.6083 13.1 12 12 12ZM4 20V17.2C4 16.6333 4.14583 16.1125 4.4375 15.6375C4.72917 15.1625 5.11667 14.8 5.6 14.55C6.63333 14.0333 7.68333 13.6458 8.75 13.3875C9.81667 13.1292 10.9 13 12 13C13.1 13 14.1833 13.1292 15.25 13.3875C16.3167 13.6458 17.3667 14.0333 18.4 14.55C18.8833 14.8 19.2708 15.1625 19.5625 15.6375C19.8542 16.1125 20 16.6333 20 17.2V20H4ZM6 18H18V17.2C18 17.0167 17.9542 16.85 17.8625 16.7C17.7708 16.55 17.65 16.4333 17.5 16.35C16.6 15.9 15.6917 15.5625 14.775 15.3375C13.8583 15.1125 12.9333 15 12 15C11.0667 15 10.1417 15.1125 9.225 15.3375C8.30833 15.5625 7.4 15.9 6.5 16.35C6.35 16.4333 6.22917 16.55 6.1375 16.7C6.04583 16.85 6 17.0167 6 17.2V18ZM12 10C12.55 10 13.0208 9.80417 13.4125 9.4125C13.8042 9.02083 14 8.55 14 8C14 7.45 13.8042 6.97917 13.4125 6.5875C13.0208 6.19583 12.55 6 12 6C11.45 6 10.9792 6.19583 10.5875 6.5875C10.1958 6.97917 10 7.45 10 8C10 8.55 10.1958 9.02083 10.5875 9.4125C10.9792 9.80417 11.45 10 12 10Z" fill="currentColor"/></symbol><symbol id="card" viewBox="0 0 40 40" fill="none"><circle cx="20" cy="20" r="20" fill="currentColor"/><path fill-rule="evenodd" clip-rule="evenodd" d="M32.0834 18.6902H7.91669V25.7552C7.91669 27.2569 9.13419 28.4735 10.635 28.4735H29.365C30.8659 28.4735 32.0834 27.2569 32.0834 25.7552V18.6902ZM29.2217 23.9535V23.3335C29.2217 22.4677 28.52 21.766 27.6542 21.766H23.6259C22.76 21.766 22.0575 22.4677 22.0575 23.3335V23.9535C22.0575 24.8194 22.76 25.521 23.6259 25.521H27.6542C28.52 25.521 29.2217 24.8194 29.2217 23.9535ZM32.0834 15.8127V17.8569H7.91669V15.8127H32.0834ZM7.91669 14.9794H32.0834V14.2452C32.0834 12.7435 30.8659 11.5269 29.365 11.5269C24.8975 11.5269 15.1025 11.5269 10.635 11.5269C9.13419 11.5269 7.91669 12.7435 7.91669 14.2452V14.9794Z" fill="white"/></symbol><symbol id="amount" viewBox="0 0 40 40" fill="none"><circle cx="20" cy="20" r="20" fill="currentColor"/><path d="M20 18.8889C22.7778 18.8889 25.1389 18.4537 27.0833 17.5833C29.0278 16.713 30 15.6667 30 14.4444C30 13.2222 29.0278 12.1759 27.0833 11.3056C25.1389 10.4352 22.7778 10 20 10C17.2222 10 14.8611 10.4352 12.9167 11.3056C10.9722 12.1759 10 13.2222 10 14.4444C10 15.6667 10.9722 16.713 12.9167 17.5833C14.8611 18.4537 17.2222 18.8889 20 18.8889ZM20 21.6667C20.7593 21.6667 21.7083 21.588 22.8472 21.4306C23.9861 21.2731 25.0833 21.0185 26.1389 20.6667C27.1944 20.3148 28.1019 19.8565 28.8611 19.2917C29.6204 18.7269 30 18.037 30 17.2222V20C30 20.8148 29.6204 21.5046 28.8611 22.0694C28.1019 22.6343 27.1944 23.0926 26.1389 23.4444C25.0833 23.7963 23.9861 24.0509 22.8472 24.2083C21.7083 24.3657 20.7593 24.4444 20 24.4444C19.2407 24.4444 18.2917 24.3657 17.1528 24.2083C16.0139 24.0509 14.9167 23.7963 13.8611 23.4444C12.8056 23.0926 11.8981 22.6343 11.1389 22.0694C10.3796 21.5046 10 20.8148 10 20V17.2222C10 18.037 10.3796 18.7269 11.1389 19.2917C11.8981 19.8565 12.8056 20.3148 13.8611 20.6667C14.9167 21.0185 16.0139 21.2731 17.1528 21.4306C18.2917 21.588 19.2407 21.6667 20 21.6667ZM20 27.2222C20.7593 27.2222 21.7083 27.1435 22.8472 26.9861C23.9861 26.8287 25.0833 26.5741 26.1389 26.2222C27.1944 25.8704 28.1019 25.412 28.8611 24.8472C29.6204 24.2824 30 23.5926 30 22.7778V25.5556C30 26.3704 29.6204 27.0602 28.8611 27.625C28.1019 28.1898 27.1944 28.6481 26.1389 29C25.0833 29.3519 23.9861 29.6065 22.8472 29.7639C21.7083 29.9213 20.7593 30 20 30C19.2407 30 18.2917 29.9213 17.1528 29.7639C16.0139 29.6065 14.9167 29.3519 13.8611 29C12.8056 28.6481 11.8981 28.1898 11.1389 27.625C10.3796 27.0602 10 26.3704 10 25.5556V22.7778C10 23.5926 10.3796 24.2824 11.1389 24.8472C11.8981 25.412 12.8056 25.8704 13.8611 26.2222C14.9167 26.5741 16.0139 26.8287 17.1528 26.9861C18.2917 27.1435 19.2407 27.2222 20 27.2222Z" fill="white"/></symbol></svg>