<svg width="32" height="32" viewBox="0 0 32 32" fill="none" xmlns="http://www.w3.org/2000/svg"><g clip-path="url(#clip0_2014_1013)"><path d="M16 32C24.8366 32 32 24.8366 32 16C32 7.16344 24.8366 0 16 0C7.16344 0 0 7.16344 0 16C0 24.8366 7.16344 32 16 32Z" fill="url(#paint0_linear_2014_1013)"/><path d="M6.65875 15.8612L17.4333 11.4219C18.4969 10.9595 22.1038 9.4797 22.1038 9.4797C22.1038 9.4797 23.7686 8.8323 23.6298 10.4046C23.5836 11.052 23.2137 13.3178 22.8437 15.7687L21.6877 23.0288C21.6877 23.0288 21.5952 24.0924 20.809 24.2774C20.0229 24.4624 18.7281 23.63 18.4969 23.445C18.3119 23.3063 15.0287 21.2254 13.8264 20.208C13.5027 19.9306 13.1327 19.3756 13.8726 18.7283C15.5374 17.2022 17.5258 15.3063 18.7281 14.104C19.283 13.5491 19.8379 12.2543 17.5258 13.8265L11.0056 18.2196C11.0056 18.2196 10.2657 18.682 8.8784 18.2658C7.49112 17.8496 5.87262 17.2947 5.87262 17.2947C5.87262 17.2947 4.7628 16.6011 6.65875 15.8612Z" fill="white"/></g><defs><linearGradient id="paint0_linear_2014_1013" x1="21.3346" y1="5.33457" x2="13.3346" y2="24" gradientUnits="userSpaceOnUse"><stop stop-color="#37AEE2"/><stop offset="1" stop-color="#1E96C8"/></linearGradient><clipPath id="clip0_2014_1013"><rect width="32" height="32" fill="white"/></clipPath></defs></svg>