<svg xmlns="http://www.w3.org/2000/svg"><symbol id="arrow-up-right" viewBox="0 0 24 24" fill="none"><path d="M16.293 6.29302C16.6835 5.90249 17.3165 5.90249 17.707 6.29302C18.0975 6.68354 18.0975 7.31655 17.707 7.70708L7.70702 17.7071C7.31649 18.0976 6.68348 18.0976 6.29295 17.7071C5.90243 17.3166 5.90243 16.6835 6.29295 16.293L16.293 6.29302Z" fill="currentColor"/><path d="M16 17V8H7C6.44772 8 6 7.55228 6 7C6 6.44772 6.44772 6 7 6H17C17.5523 6 18 6.44772 18 7V17C18 17.5523 17.5523 18 17 18C16.4477 18 16 17.5523 16 17Z" fill="currentColor"/></symbol><symbol id="arrow-left" viewBox="0 0 24 24" fill="none"><path d="M19 11C19.5523 11 20 11.4477 20 12C20 12.5523 19.5523 13 19 13H5C4.44772 13 4 12.5523 4 12C4 11.4477 4.44772 11 5 11H19Z" fill="currentColor"/><path d="M11.293 4.29289C11.6835 3.90237 12.3165 3.90237 12.707 4.29289C13.0975 4.68342 13.0975 5.31643 12.707 5.70696L6.41405 11.9999L12.707 18.2929L12.7754 18.3691C13.0957 18.7618 13.0731 19.3408 12.707 19.707C12.3409 20.0731 11.7619 20.0957 11.3691 19.7753L11.293 19.707L4.29295 12.707C3.90243 12.3164 3.90243 11.6834 4.29295 11.2929L11.293 4.29289Z" fill="currentColor"/></symbol><symbol id="arrow-right" viewBox="0 0 24 24" fill="none"><path d="M19 11C19.5523 11 20 11.4477 20 12C20 12.5523 19.5523 13 19 13H5C4.44772 13 4 12.5523 4 12C4 11.4477 4.44772 11 5 11H19Z" fill="currentColor"/><path d="M11.293 4.29298C11.6591 3.92686 12.2381 3.90427 12.6309 4.22462L12.7071 4.29298L19.7071 11.293C20.0976 11.6835 20.0976 12.3165 19.7071 12.707L12.7071 19.707C12.3166 20.0976 11.6835 20.0976 11.293 19.707C10.9025 19.3165 10.9025 18.6835 11.293 18.293L17.586 12L11.293 5.70704L11.2247 5.63087C10.9043 5.2381 10.9269 4.65909 11.293 4.29298Z" fill="currentColor"/></symbol><symbol id="facebook" viewBox="0 0 48 48" fill="none"><path d="M26 14C26 12.9391 26.4217 11.922 27.1719 11.1719C27.922 10.4217 28.9391 10 30 10H34V6H30C27.8783 6 25.844 6.84346 24.3438 8.34375C22.8435 9.84404 22 11.8783 22 14V20C22 21.1046 21.1046 22 20 22H16V26H20C21.1046 26 22 26.8954 22 28V42H26V28C26 26.8954 26.8954 26 28 26H32.4395L33.4395 22H28C26.8954 22 26 21.1046 26 20V14ZM30 18H36C36.6159 18 37.1972 18.2841 37.5762 18.7695C37.955 19.2548 38.0886 19.8871 37.9395 20.4844L35.9395 28.4844C35.7169 29.3747 34.9177 30 34 30H30V44C30 45.1046 29.1046 46 28 46H20C18.8954 46 18 45.1046 18 44V30H14C12.8954 30 12 29.1046 12 28V20L12.0098 19.7949C12.1124 18.7867 12.9646 18 14 18H18V14C18 10.8174 19.2652 7.76606 21.5156 5.51562C23.7661 3.26519 26.8174 2 30 2H36L36.2051 2.00977C37.2133 2.11243 38 2.96465 38 4V12C38 13.1046 37.1046 14 36 14H30V18Z" fill="currentColor"/></symbol><symbol id="instagram" viewBox="0 0 48 48" fill="none"><path d="M42 14C42 9.58172 38.4183 6 34 6H14C9.58172 6 6 9.58172 6 14V34C6 38.4183 9.58172 42 14 42H34C38.4183 42 42 38.4183 42 34V14ZM46 34C46 40.6274 40.6274 46 34 46H14C7.37258 46 2 40.6274 2 34V14C2 7.37258 7.37258 2 14 2H34C40.6274 2 46 7.37258 46 14V34Z" fill="currentColor"/><path d="M19.4811 15.0363C21.3479 14.0678 23.4729 13.7123 25.5533 14.0207L25.9498 14.0891C27.9197 14.4627 29.7347 15.4208 31.1568 16.843C32.674 18.3601 33.6644 20.3242 33.9791 22.4465L34.0279 22.8371C34.2395 24.7916 33.8715 26.7686 32.9635 28.5188C31.9948 30.3856 30.4612 31.8993 28.5826 32.8449C26.7041 33.7905 24.575 34.1203 22.4986 33.7863C20.422 33.4522 18.5035 32.4709 17.0162 30.9836C15.5289 29.4963 14.5476 27.5778 14.2135 25.5012C13.8795 23.4248 14.2094 21.2958 15.1549 19.4172C16.1006 17.5386 17.6142 16.005 19.4811 15.0363ZM24.9674 17.9777C23.719 17.7926 22.4431 18.0059 21.3229 18.5871C20.2027 19.1684 19.2945 20.0888 18.7272 21.216C18.1599 22.3432 17.9622 23.6205 18.1627 24.8664C18.3632 26.1124 18.952 27.2631 19.8443 28.1555C20.7367 29.0479 21.8874 29.6366 23.1334 29.8371C24.3793 30.0376 25.6566 29.84 26.7838 29.2727C27.9111 28.7053 28.8315 27.7972 29.4127 26.677C29.9212 25.6971 30.1479 24.5985 30.0729 23.5031L30.0221 23.0324C29.8331 21.7593 29.2388 20.5812 28.3287 19.6711C27.5324 18.8748 26.531 18.3202 25.44 18.0676L24.9674 17.9777Z" fill="currentColor"/><path d="M35.0195 11L35.2246 11.0098C36.2331 11.1122 37.0195 11.9645 37.0195 13C37.0195 14.0355 36.2331 14.8878 35.2246 14.9902L35.0195 15H35C33.8954 15 33 14.1046 33 13C33 11.8954 33.8954 11 35 11H35.0195Z" fill="currentColor"/></symbol><symbol id="telegram" viewBox="0 0 48 48" fill="none"><path fill-rule="evenodd" clip-rule="evenodd" d="M11.576 28.04C11.6625 28.0666 11.7507 28.0873 11.84 28.102C12.4059 29.4353 12.9685 30.77 13.528 32.106C14.534 34.51 15.548 36.986 15.77 37.698C16.048 38.574 16.34 39.17 16.66 39.578C16.826 39.786 17.016 39.97 17.24 40.11C17.3576 40.1813 17.4823 40.2403 17.612 40.286C18.252 40.526 18.836 40.426 19.202 40.304C19.4169 40.2309 19.6213 40.1301 19.81 40.004L19.82 40L25.472 36.476L32.002 41.48C32.098 41.5533 32.202 41.6153 32.314 41.666C33.098 42.006 33.858 42.126 34.574 42.03C35.286 41.93 35.852 41.632 36.274 41.294C36.7582 40.903 37.1444 40.4044 37.402 39.838L37.42 39.794L37.426 39.778L37.43 39.77V39.766L37.432 39.764C37.4648 39.6773 37.4916 39.5884 37.512 39.498L43.472 9.44797C43.4885 9.35146 43.4978 9.25386 43.5 9.15597C43.5 8.27597 43.168 7.43797 42.39 6.93197C41.722 6.49797 40.98 6.47797 40.51 6.51397C40.006 6.55397 39.538 6.67797 39.224 6.77797C39.0486 6.83463 38.8751 6.89733 38.704 6.96597L38.682 6.97597L5.25402 20.088L5.25002 20.09C5.13666 20.1309 5.02522 20.177 4.91602 20.228C4.65084 20.3469 4.39655 20.4888 4.15602 20.652C3.70202 20.962 2.65602 21.814 2.83402 23.222C2.97402 24.342 3.74202 25.032 4.21202 25.364C4.46802 25.546 4.71202 25.676 4.89202 25.762C4.97202 25.802 5.14402 25.87 5.21802 25.902L5.23802 25.908L11.576 28.04ZM39.852 9.73597H39.848L39.796 9.75797L6.32802 22.888L6.27602 22.908L6.25602 22.914C6.19474 22.9377 6.13467 22.9644 6.07602 22.994C6.13194 23.0254 6.18934 23.0541 6.24802 23.08L12.532 25.196C12.643 25.2371 12.7501 25.2879 12.852 25.348L33.606 13.198L33.626 13.188C33.7071 13.1397 33.7898 13.0944 33.874 13.052C34.018 12.978 34.248 12.87 34.508 12.79C34.688 12.734 35.222 12.576 35.798 12.762C36.104 12.8574 36.3768 13.0375 36.5849 13.2813C36.7929 13.5251 36.9278 13.8228 36.974 14.14C37.0485 14.4175 37.0506 14.7094 36.98 14.988C36.84 15.538 36.456 15.966 36.106 16.294C35.806 16.574 31.914 20.326 28.076 24.03L22.85 29.07L21.92 29.97L33.664 38.974C33.8226 39.0402 33.9947 39.0676 34.166 39.054C34.2523 39.0422 34.3334 39.0061 34.4 38.95C34.481 38.8814 34.5505 38.8004 34.606 38.71L34.61 38.708L40.39 9.56197C40.2082 9.60674 40.0298 9.66421 39.856 9.73397L39.852 9.73597ZM22.93 34.524L20.586 32.728L20.018 36.338L22.93 34.524ZM18.436 29.164L20.766 26.914L25.992 21.87L27.938 19.994L14.898 27.628L14.968 27.792C15.7904 29.7348 16.6038 31.6815 17.408 33.632L17.974 30.032C18.0257 29.6982 18.1885 29.3937 18.436 29.164Z" fill="currentColor"/></symbol><symbol id="headphones" viewBox="0 0 32 32" fill="none"><path d="M26.6667 24.0001V16.0001C26.6667 13.1711 25.5433 10.4575 23.543 8.45711C21.5426 6.45672 18.829 5.33341 16 5.33341C13.171 5.33341 10.4574 6.45672 8.45702 8.45711C6.45663 10.4575 5.33332 13.1711 5.33332 16.0001V24.0001C5.33332 24.7365 4.73637 25.3334 3.99999 25.3334C3.26361 25.3334 2.66666 24.7365 2.66666 24.0001V16.0001C2.66666 12.4639 4.07112 9.07218 6.5716 6.5717C9.07209 4.07121 12.4638 2.66675 16 2.66675C19.5362 2.66675 22.9279 4.07121 25.4284 6.5717C27.9289 9.07218 29.3333 12.4639 29.3333 16.0001V24.0001C29.3333 24.7365 28.7364 25.3334 28 25.3334C27.2636 25.3334 26.6667 24.7365 26.6667 24.0001Z" fill="currentColor"/><path d="M9.32681 21.2017C9.29656 20.8964 9.16156 20.6094 8.9427 20.3905C8.69265 20.1405 8.35361 19.9999 7.99999 19.9999H5.33332V25.3333L5.33983 25.4648C5.37009 25.7701 5.50509 26.0571 5.72395 26.276C5.974 26.526 6.31304 26.6666 6.66666 26.6666H7.99999C8.35361 26.6666 8.69265 26.526 8.9427 26.276C9.16156 26.0571 9.29656 25.7701 9.32681 25.4648L9.33332 25.3333V21.3333L9.32681 21.2017ZM20 25.3333V21.3333C20 20.2724 20.4217 19.2553 21.1719 18.5051C21.922 17.755 22.9391 17.3333 24 17.3333H28L28.1367 17.3398C28.8089 17.4082 29.3333 17.9763 29.3333 18.6666V25.3333C29.3333 26.3941 28.9116 27.4112 28.1614 28.1614C27.4113 28.9115 26.3942 29.3333 25.3333 29.3333H24C22.9391 29.3333 21.922 28.9115 21.1719 28.1614C20.5156 27.5051 20.1105 26.6446 20.0195 25.7291L20 25.3333ZM12 25.3333L11.9805 25.7291C11.8894 26.6446 11.4844 27.5051 10.8281 28.1614C10.078 28.9115 9.06086 29.3333 7.99999 29.3333H6.66666C5.60579 29.3333 4.58868 28.9115 3.83853 28.1614C3.18227 27.5051 2.7772 26.6446 2.68619 25.7291L2.66666 25.3333V18.6666L2.67317 18.5299C2.74161 17.8577 3.30975 17.3333 3.99999 17.3333H7.99999C9.06086 17.3333 10.078 17.755 10.8281 18.5051C11.5783 19.2553 12 20.2724 12 21.3333V25.3333ZM22.6667 25.3333L22.6732 25.4648C22.7034 25.7701 22.8384 26.0571 23.0573 26.276C23.3073 26.526 23.6464 26.6666 24 26.6666H25.3333C25.6869 26.6666 26.026 26.526 26.276 26.276C26.5261 26.0259 26.6667 25.6869 26.6667 25.3333V19.9999H24C23.6464 19.9999 23.3073 20.1405 23.0573 20.3905C22.8072 20.6406 22.6667 20.9796 22.6667 21.3333V25.3333Z" fill="currentColor"/></symbol><symbol id="responsive" viewBox="0 0 32 32" fill="none"><path d="M5.33333 7.99992V21.3333H12V15.9999C12 15.2927 12.281 14.6144 12.781 14.1143C13.2811 13.6142 13.9594 13.3333 14.6667 13.3333H21.3333C22.0406 13.3333 22.7189 13.6142 23.219 14.1143C23.719 14.6144 24 15.2927 24 15.9999V21.3333H26.6667V7.99992H5.33333ZM0 26.6666V23.9999H5.33333C4.62609 23.9999 3.94781 23.719 3.44772 23.2189C2.94762 22.7188 2.66667 22.0405 2.66667 21.3333V7.99992C2.66667 7.29267 2.94762 6.6144 3.44772 6.1143C3.94781 5.6142 4.62609 5.33325 5.33333 5.33325H26.6667C27.3739 5.33325 28.0522 5.6142 28.5523 6.1143C29.0524 6.6144 29.3333 7.29267 29.3333 7.99992V21.3333C29.3333 22.0405 29.0524 22.7188 28.5523 23.2189C28.0522 23.719 27.3739 23.9999 26.6667 23.9999H32V26.6666H24C24 27.3738 23.719 28.0521 23.219 28.5522C22.7189 29.0523 22.0406 29.3333 21.3333 29.3333H14.6667C13.9594 29.3333 13.2811 29.0523 12.781 28.5522C12.281 28.0521 12 27.3738 12 26.6666H0ZM15.3333 26.6666C15.1565 26.6666 14.987 26.7368 14.8619 26.8618C14.7369 26.9869 14.6667 27.1564 14.6667 27.3333C14.6667 27.5101 14.7369 27.6796 14.8619 27.8047C14.987 27.9297 15.1565 27.9999 15.3333 27.9999C15.5101 27.9999 15.6797 27.9297 15.8047 27.8047C15.9298 27.6796 16 27.5101 16 27.3333C16 27.1564 15.9298 26.9869 15.8047 26.8618C15.6797 26.7368 15.5101 26.6666 15.3333 26.6666ZM20.6667 26.6666C20.4899 26.6666 20.3203 26.7368 20.1953 26.8618C20.0702 26.9869 20 27.1564 20 27.3333C20 27.5101 20.0702 27.6796 20.1953 27.8047C20.3203 27.9297 20.4899 27.9999 20.6667 27.9999C20.8435 27.9999 21.013 27.9297 21.1381 27.8047C21.2631 27.6796 21.3333 27.5101 21.3333 27.3333C21.3333 27.1564 21.2631 26.9869 21.1381 26.8618C21.013 26.7368 20.8435 26.6666 20.6667 26.6666ZM17.3333 26.6666V27.9999H18.6667V26.6666H17.3333ZM14.6667 15.9999V25.3333H21.3333V15.9999H14.6667Z" fill="currentColor"/></symbol><symbol id="sliders" viewBox="0 0 32 32" fill="none"><path d="M4 27.9999V18.6666C4 17.9302 4.59695 17.3333 5.33333 17.3333C6.06971 17.3333 6.66667 17.9302 6.66667 18.6666V27.9999C6.66667 28.7363 6.06971 29.3333 5.33333 29.3333C4.59695 29.3333 4 28.7363 4 27.9999Z" fill="currentColor"/><path d="M4 13.3334V4.00008C4 3.2637 4.59695 2.66675 5.33333 2.66675C6.06971 2.66675 6.66667 3.2637 6.66667 4.00008V13.3334C6.66667 14.0698 6.06971 14.6667 5.33333 14.6667C4.59695 14.6667 4 14.0698 4 13.3334Z" fill="currentColor"/><path d="M14.6667 28.0001V16.0001C14.6667 15.2637 15.2636 14.6667 16 14.6667C16.7364 14.6667 17.3333 15.2637 17.3333 16.0001V28.0001C17.3333 28.7365 16.7364 29.3334 16 29.3334C15.2636 29.3334 14.6667 28.7365 14.6667 28.0001Z" fill="currentColor"/><path d="M14.6667 10.6667V4.00008C14.6667 3.2637 15.2636 2.66675 16 2.66675C16.7364 2.66675 17.3333 3.2637 17.3333 4.00008V10.6667C17.3333 11.4031 16.7364 12.0001 16 12.0001C15.2636 12.0001 14.6667 11.4031 14.6667 10.6667Z" fill="currentColor"/><path d="M25.3333 28V21.3333C25.3333 20.597 25.9303 20 26.6667 20C27.4031 20 28 20.597 28 21.3333V28C28 28.7364 27.4031 29.3333 26.6667 29.3333C25.9303 29.3333 25.3333 28.7364 25.3333 28Z" fill="currentColor"/><path d="M25.3333 16.0001V4.00008C25.3333 3.2637 25.9303 2.66675 26.6667 2.66675C27.4031 2.66675 28 3.2637 28 4.00008V16.0001C28 16.7365 27.4031 17.3334 26.6667 17.3334C25.9303 17.3334 25.3333 16.7365 25.3333 16.0001Z" fill="currentColor"/><path d="M9.33333 17.3333C10.0697 17.3333 10.6667 17.9302 10.6667 18.6666C10.6667 19.403 10.0697 19.9999 9.33333 19.9999H1.33333C0.596954 19.9999 0 19.403 0 18.6666C0 17.9302 0.596954 17.3333 1.33333 17.3333H9.33333Z" fill="currentColor"/><path d="M20 9.33325C20.7364 9.33325 21.3333 9.93021 21.3333 10.6666C21.3333 11.403 20.7364 11.9999 20 11.9999H12C11.2636 11.9999 10.6667 11.403 10.6667 10.6666C10.6667 9.93021 11.2636 9.33325 12 9.33325H20Z" fill="currentColor"/><path d="M30.6667 20C31.4031 20 32 20.597 32 21.3333C32 22.0697 31.4031 22.6667 30.6667 22.6667H22.6667C21.9303 22.6667 21.3333 22.0697 21.3333 21.3333C21.3333 20.597 21.9303 20 22.6667 20H30.6667Z" fill="currentColor"/></symbol><symbol id="zap" viewBox="0 0 32 32" fill="none"><path d="M16.4622 1.65767C16.8448 1.32721 17.3894 1.23783 17.8646 1.44413C18.4073 1.67993 18.7296 2.24497 18.6563 2.83215L17.5104 12.0001H28C28.5174 12.0001 28.9876 12.2998 29.207 12.7683C29.3989 13.1782 29.3692 13.6529 29.1367 14.0314L29.0247 14.1876L15.6914 30.1876C15.3125 30.6422 14.6783 30.7918 14.1354 30.5561C13.5927 30.3203 13.2704 29.7553 13.3438 29.1681L14.4896 20.0001H4C3.48264 20.0001 3.01241 19.7004 2.79297 19.2319C2.57364 18.7634 2.6441 18.21 2.97526 17.8126L16.3086 1.81262L16.4622 1.65767ZM6.84766 17.3335H16C16.3824 17.3335 16.7469 17.4973 17 17.784C17.2531 18.0707 17.3704 18.4527 17.3229 18.8321L16.5534 24.9845L25.1523 14.6668H16C15.6176 14.6668 15.2531 14.503 15 14.2163C14.7469 13.9296 14.6296 13.5476 14.6771 13.1681L15.4453 7.01444L6.84766 17.3335Z" fill="currentColor"/></symbol><symbol id="palette" viewBox="0 0 32 32" fill="none"><path d="M16 29.3334C14.1778 29.3334 12.4555 28.9832 10.8333 28.2827C9.2111 27.5823 7.79466 26.6267 6.58399 25.4161C5.37332 24.2054 4.41777 22.789 3.71732 21.1667C3.01688 19.5445 2.66666 17.8223 2.66666 16.0001C2.66666 14.1556 3.02799 12.4223 3.75066 10.8001C4.47332 9.17786 5.4511 7.76675 6.68399 6.56675C7.91688 5.36675 9.35555 4.41697 11 3.71741C12.6444 3.01786 14.4 2.66764 16.2667 2.66675C18.0444 2.66675 19.7222 2.97253 21.3 3.58408C22.8778 4.19564 24.2613 5.04008 25.4507 6.11741C26.64 7.19475 27.5844 8.47253 28.284 9.95075C28.9835 11.429 29.3333 13.0232 29.3333 14.7334C29.3333 17.289 28.5555 19.2503 27 20.6174C25.4444 21.9845 23.5555 22.6676 21.3333 22.6667H18.8667C18.6667 22.6667 18.528 22.7223 18.4507 22.8334C18.3733 22.9445 18.3342 23.0667 18.3333 23.2001C18.3333 23.4667 18.5 23.8503 18.8333 24.3507C19.1667 24.8512 19.3333 25.4232 19.3333 26.0667C19.3333 27.1779 19.028 28.0001 18.4173 28.5334C17.8067 29.0667 17.0009 29.3334 16 29.3334ZM8.66666 17.3334C9.24443 17.3334 9.72221 17.1445 10.1 16.7667C10.4778 16.389 10.6667 15.9112 10.6667 15.3334C10.6667 14.7556 10.4778 14.2779 10.1 13.9001C9.72221 13.5223 9.24443 13.3334 8.66666 13.3334C8.08888 13.3334 7.6111 13.5223 7.23332 13.9001C6.85555 14.2779 6.66666 14.7556 6.66666 15.3334C6.66666 15.9112 6.85555 16.389 7.23332 16.7667C7.6111 17.1445 8.08888 17.3334 8.66666 17.3334ZM12.6667 12.0001C13.2444 12.0001 13.7222 11.8112 14.1 11.4334C14.4778 11.0556 14.6667 10.5779 14.6667 10.0001C14.6667 9.4223 14.4778 8.94453 14.1 8.56675C13.7222 8.18897 13.2444 8.00008 12.6667 8.00008C12.0889 8.00008 11.6111 8.18897 11.2333 8.56675C10.8555 8.94453 10.6667 9.4223 10.6667 10.0001C10.6667 10.5779 10.8555 11.0556 11.2333 11.4334C11.6111 11.8112 12.0889 12.0001 12.6667 12.0001ZM19.3333 12.0001C19.9111 12.0001 20.3889 11.8112 20.7667 11.4334C21.1444 11.0556 21.3333 10.5779 21.3333 10.0001C21.3333 9.4223 21.1444 8.94453 20.7667 8.56675C20.3889 8.18897 19.9111 8.00008 19.3333 8.00008C18.7555 8.00008 18.2778 8.18897 17.9 8.56675C17.5222 8.94453 17.3333 9.4223 17.3333 10.0001C17.3333 10.5779 17.5222 11.0556 17.9 11.4334C18.2778 11.8112 18.7555 12.0001 19.3333 12.0001ZM23.3333 17.3334C23.9111 17.3334 24.3889 17.1445 24.7667 16.7667C25.1444 16.389 25.3333 15.9112 25.3333 15.3334C25.3333 14.7556 25.1444 14.2779 24.7667 13.9001C24.3889 13.5223 23.9111 13.3334 23.3333 13.3334C22.7555 13.3334 22.2778 13.5223 21.9 13.9001C21.5222 14.2779 21.3333 14.7556 21.3333 15.3334C21.3333 15.9112 21.5222 16.389 21.9 16.7667C22.2778 17.1445 22.7555 17.3334 23.3333 17.3334ZM16 26.6667C16.2 26.6667 16.3613 26.6112 16.484 26.5001C16.6067 26.389 16.6675 26.2445 16.6667 26.0667C16.6667 25.7556 16.5 25.389 16.1667 24.9667C15.8333 24.5445 15.6667 23.9112 15.6667 23.0667C15.6667 22.1334 15.9889 21.389 16.6333 20.8334C17.2778 20.2779 18.0667 20.0001 19 20.0001H21.3333C22.8 20.0001 24.0555 19.5725 25.1 18.7174C26.1444 17.8623 26.6667 16.5343 26.6667 14.7334C26.6667 12.0445 25.6391 9.80542 23.584 8.01608C21.5289 6.22675 19.0898 5.33253 16.2667 5.33341C13.2444 5.33341 10.6667 6.36675 8.53332 8.43341C6.39999 10.5001 5.33332 13.0223 5.33332 16.0001C5.33332 18.9556 6.37243 21.4725 8.45066 23.5507C10.5289 25.629 13.0453 26.6676 16 26.6667Z" fill="currentColor"/></symbol><symbol id="line-up" viewBox="0 0 32 32" fill="none"><path d="M29.5 26C29.5 26.3978 29.342 26.7794 29.0607 27.0607C28.7794 27.342 28.3978 27.5 28 27.5H4C3.60218 27.5 3.22064 27.342 2.93934 27.0607C2.65804 26.7794 2.5 26.3978 2.5 26V6C2.5 5.60218 2.65804 5.22064 2.93934 4.93934C3.22064 4.65804 3.60218 4.5 4 4.5C4.39782 4.5 4.77936 4.65804 5.06066 4.93934C5.34196 5.22064 5.5 5.60218 5.5 6V18.375L10.9388 12.935C11.0781 12.7952 11.2437 12.6842 11.426 12.6085C11.6084 12.5328 11.8038 12.4938 12.0013 12.4938C12.1987 12.4938 12.3942 12.5328 12.5765 12.6085C12.7588 12.6842 12.9244 12.7952 13.0638 12.935L16 15.875L21.375 10.5H20C19.6022 10.5 19.2206 10.342 18.9393 10.0607C18.658 9.77936 18.5 9.39782 18.5 9C18.5 8.60218 18.658 8.22064 18.9393 7.93934C19.2206 7.65804 19.6022 7.5 20 7.5H25C25.3978 7.5 25.7794 7.65804 26.0607 7.93934C26.342 8.22064 26.5 8.60218 26.5 9V14C26.5 14.3978 26.342 14.7794 26.0607 15.0607C25.7794 15.342 25.3978 15.5 25 15.5C24.6022 15.5 24.2206 15.342 23.9393 15.0607C23.658 14.7794 23.5 14.3978 23.5 14V12.625L17.0613 19.065C16.9219 19.2048 16.7563 19.3158 16.574 19.3915C16.3917 19.4672 16.1962 19.5062 15.9987 19.5062C15.8013 19.5062 15.6058 19.4672 15.4235 19.3915C15.2412 19.3158 15.0756 19.2048 14.9362 19.065L12 16.125L5.5 22.625V24.5H28C28.3978 24.5 28.7794 24.658 29.0607 24.9393C29.342 25.2206 29.5 25.6022 29.5 26Z" fill="currentColor"/></symbol><symbol id="quote" viewBox="0 0 32 32" fill="none"><path fill-rule="evenodd" clip-rule="evenodd" d="M12.284 17.0001C12.172 18.0321 11.8733 18.8561 11.3533 19.5867C10.656 20.5614 9.48667 21.4721 7.55334 22.4401C7.42931 22.4946 7.31765 22.5738 7.22515 22.6728C7.13264 22.7717 7.06122 22.8885 7.01521 23.0159C6.9692 23.1434 6.94956 23.2788 6.9575 23.4141C6.96543 23.5493 7.00076 23.6816 7.06135 23.8027C7.12194 23.9239 7.20653 24.0315 7.30997 24.119C7.41341 24.2065 7.53356 24.2721 7.66311 24.3117C7.79266 24.3514 7.92892 24.3643 8.06362 24.3497C8.19831 24.3351 8.32863 24.2933 8.44667 24.2267C10.5133 23.1947 12.0107 22.1054 12.98 20.7467C13.968 19.3654 14.3333 17.8094 14.3333 16.0001V10.0001C14.3333 9.38124 14.0875 8.78775 13.6499 8.35017C13.2123 7.91258 12.6188 7.66675 12 7.66675H6.66667C6.04783 7.66675 5.45434 7.91258 5.01675 8.35017C4.57917 8.78775 4.33334 9.38124 4.33334 10.0001V14.6667C4.33334 15.9547 5.37867 17.0001 6.66667 17.0001H12.284ZM25.6173 17.0001C25.5053 18.0321 25.2067 18.8561 24.6867 19.5867C23.9893 20.5614 22.82 21.4721 20.8867 22.4401C20.7626 22.4946 20.651 22.5738 20.5585 22.6728C20.466 22.7717 20.3946 22.8885 20.3485 23.0159C20.3025 23.1434 20.2829 23.2788 20.2908 23.4141C20.2988 23.5493 20.3341 23.6816 20.3947 23.8027C20.4553 23.9239 20.5399 24.0315 20.6433 24.119C20.7467 24.2065 20.8669 24.2721 20.9964 24.3117C21.126 24.3514 21.2623 24.3643 21.3969 24.3497C21.5316 24.3351 21.662 24.2933 21.78 24.2267C23.8467 23.1947 25.344 22.1054 26.3133 20.7467C27.3013 19.3654 27.6667 17.8094 27.6667 16.0001V10.0001C27.6667 9.38124 27.4208 8.78775 26.9833 8.35017C26.5457 7.91258 25.9522 7.66675 25.3333 7.66675H20C19.3812 7.66675 18.7877 7.91258 18.3501 8.35017C17.9125 8.78775 17.6667 9.38124 17.6667 10.0001V14.6667C17.6667 15.9547 18.712 17.0001 20 17.0001H25.6173Z" fill="currentColor"/></symbol><symbol id="zoom-in" viewBox="0 0 24 24" fill="none"><path d="M18 11C18 7.13401 14.866 4 11 4C7.13401 4 4 7.13401 4 11C4 14.866 7.13401 18 11 18C14.866 18 18 14.866 18 11ZM20 11C20 15.9706 15.9706 20 11 20C6.02944 20 2 15.9706 2 11C2 6.02944 6.02944 2 11 2C15.9706 2 20 6.02944 20 11Z" fill="currentColor"/><path d="M15.9429 15.9429C16.3091 15.5768 16.8881 15.5542 17.2808 15.8745L17.357 15.9429L21.7066 20.2925L21.7759 20.3687C22.0963 20.7614 22.0727 21.3405 21.7066 21.7066C21.3405 22.0727 20.7615 22.0962 20.3687 21.7759L20.2926 21.7066L15.9429 17.3569L15.8746 17.2808C15.5542 16.888 15.5768 16.309 15.9429 15.9429Z" fill="currentColor"/><path d="M10 14V8C10 7.44772 10.4477 7 11 7C11.5523 7 12 7.44772 12 8V14C12 14.5523 11.5523 15 11 15C10.4477 15 10 14.5523 10 14Z" fill="currentColor"/><path d="M14 10C14.5523 10 15 10.4477 15 11C15 11.5523 14.5523 12 14 12H8C7.44772 12 7 11.5523 7 11C7 10.4477 7.44772 10 8 10H14Z" fill="currentColor"/></symbol><symbol id="menu" viewBox="0 0 24 24" fill="none"><path d="M21 11C21.5523 11 22 11.4477 22 12C22 12.5523 21.5523 13 21 13H3C2.44772 13 2 12.5523 2 12C2 11.4477 2.44772 11 3 11H21Z" fill="currentColor"/><path d="M21 5C21.5523 5 22 5.44772 22 6C22 6.55228 21.5523 7 21 7H3C2.44772 7 2 6.55228 2 6C2 5.44772 2.44772 5 3 5H21Z" fill="currentColor"/><path d="M21 17C21.5523 17 22 17.4477 22 18C22 18.5523 21.5523 19 21 19H3C2.44772 19 2 18.5523 2 18C2 17.4477 2.44772 17 3 17H21Z" fill="currentColor"/></symbol><symbol id="x" viewBox="0 0 24 24" fill="none"><path d="M17.293 5.29289C17.6835 4.90237 18.3165 4.90237 18.707 5.29289C19.0975 5.68342 19.0975 6.31643 18.707 6.70696L6.70702 18.707C6.31649 19.0975 5.68348 19.0975 5.29295 18.707C4.90243 18.3164 4.90243 17.6834 5.29295 17.2929L17.293 5.29289Z" fill="currentColor"/><path d="M5.29298 5.29298C5.65909 4.92686 6.2381 4.90427 6.63087 5.22462L6.70704 5.29298L18.707 17.293L18.7754 17.3692C19.0958 17.7619 19.0732 18.3409 18.707 18.707C18.3409 19.0732 17.7619 19.0958 17.3692 18.7754L17.293 18.707L5.29298 6.70704L5.22462 6.63087C4.90427 6.2381 4.92686 5.65909 5.29298 5.29298Z" fill="currentColor"/></symbol><symbol id="chevron-down" viewBox="0 0 16 16" fill="none"><path d="M11.5287 5.52865C11.789 5.2683 12.211 5.2683 12.4714 5.52865C12.7317 5.789 12.7317 6.21101 12.4714 6.47136L8.47136 10.4714C8.21101 10.7317 7.789 10.7317 7.52865 10.4714L3.52865 6.47136L3.48308 6.42058C3.26951 6.15873 3.28458 5.77273 3.52865 5.52865C3.77273 5.28457 4.15873 5.26951 4.42058 5.48308L4.47136 5.52865L8.00001 9.0573L11.5287 5.52865Z" fill="currentColor"/></symbol><symbol id="github" viewBox="0 0 24 24" fill="none"><path d="M12 2C10.6868 2 9.38642 2.25866 8.17317 2.7612C6.95991 3.26375 5.85752 4.00035 4.92893 4.92893C3.05357 6.8043 2 9.34784 2 12C2 16.42 4.87 20.17 8.84 21.5C9.34 21.58 9.5 21.27 9.5 21V19.31C6.73 19.91 6.14 17.97 6.14 17.97C5.68 16.81 5.03 16.5 5.03 16.5C4.12 15.88 5.1 15.9 5.1 15.9C6.1 15.97 6.63 16.93 6.63 16.93C7.5 18.45 8.97 18 9.54 17.76C9.63 17.11 9.89 16.67 10.17 16.42C7.95 16.17 5.62 15.31 5.62 11.5C5.62 10.39 6 9.5 6.65 8.79C6.55 8.54 6.2 7.5 6.75 6.15C6.75 6.15 7.59 5.88 9.5 7.17C10.29 6.95 11.15 6.84 12 6.84C12.85 6.84 13.71 6.95 14.5 7.17C16.41 5.88 17.25 6.15 17.25 6.15C17.8 7.5 17.45 8.54 17.35 8.79C18 9.5 18.38 10.39 18.38 11.5C18.38 15.32 16.04 16.16 13.81 16.41C14.17 16.72 14.5 17.33 14.5 18.26V21C14.5 21.27 14.66 21.59 15.17 21.5C19.14 20.16 22 16.42 22 12C22 10.6868 21.7413 9.38642 21.2388 8.17317C20.7362 6.95991 19.9997 5.85752 19.0711 4.92893C18.1425 4.00035 17.0401 3.26375 15.8268 2.7612C14.6136 2.25866 13.3132 2 12 2Z" fill="currentColor"/></symbol><symbol id="star" viewBox="0 0 16 16" fill="none"><path fill-rule="evenodd" clip-rule="evenodd" d="M8.60532 1.0541C8.55196 0.938459 8.46659 0.840521 8.35932 0.771875C8.25204 0.703229 8.12735 0.666748 7.99999 0.666748C7.87263 0.666748 7.74793 0.703229 7.64066 0.771875C7.53338 0.840521 7.44801 0.938459 7.39465 1.0541L5.48132 5.20077L0.94732 5.73877C0.82082 5.7537 0.701247 5.80457 0.602752 5.88534C0.504258 5.96611 0.430965 6.07341 0.391548 6.19454C0.352131 6.31566 0.34824 6.44555 0.380336 6.56882C0.412431 6.69208 0.47917 6.80358 0.572653 6.8901L3.92599 9.9901L3.03599 14.4701C3.01127 14.595 3.02282 14.7243 3.06928 14.8429C3.11575 14.9614 3.19517 15.0641 3.29818 15.1389C3.40118 15.2138 3.52345 15.2575 3.65054 15.2651C3.77762 15.2726 3.9042 15.2436 4.01532 15.1814L7.99999 12.9508L11.9847 15.1814C12.0958 15.2438 12.2226 15.273 12.3499 15.2656C12.4771 15.2581 12.5996 15.2143 12.7028 15.1394C12.8059 15.0645 12.8854 14.9615 12.9318 14.8428C12.9782 14.724 12.9896 14.5945 12.9647 14.4694L12.0747 9.99077L15.4273 6.8901C15.5208 6.80358 15.5875 6.69208 15.6196 6.56882C15.6517 6.44555 15.6478 6.31566 15.6084 6.19454C15.569 6.07341 15.4957 5.96611 15.3972 5.88534C15.2987 5.80457 15.1792 5.7537 15.0527 5.73877L10.518 5.2001L8.60532 1.0541Z" fill="currentColor"/></symbol></svg>