<svg width="16" height="16" viewBox="0 0 16 16" fill="none" xmlns="http://www.w3.org/2000/svg"><path d="M14.6667 12.6667H14V12C14 11.6 13.7333 11.3333 13.3333 11.3333C12.9333 11.3333 12.6667 11.6 12.6667 12V12.6667H12C11.6 12.6667 11.3333 12.9333 11.3333 13.3333C11.3333 13.7333 11.6 14 12 14H12.6667V14.6667C12.6667 15.0667 12.9333 15.3333 13.3333 15.3333C13.7333 15.3333 14 15.0667 14 14.6667V14H14.6667C15.0667 14 15.3333 13.7333 15.3333 13.3333C15.3333 12.9333 15.0667 12.6667 14.6667 12.6667ZM10.4667 5.53333C10.2 5.26667 9.8 5.26667 9.53333 5.53333L8 7.06667L6.46667 5.53333C6.2 5.26667 5.8 5.26667 5.53333 5.53333C5.26667 5.8 5.26667 6.2 5.53333 6.46667L7.06667 8L5.53333 9.53333C5.26667 9.8 5.26667 10.2 5.53333 10.4667C5.8 10.7333 6.2 10.7333 6.46667 10.4667L8 8.93333L9.53333 10.4667C9.8 10.7333 10.2 10.7333 10.4667 10.4667C10.7333 10.2 10.7333 9.8 10.4667 9.53333L8.93333 8L10.4667 6.46667C10.7333 6.2 10.7333 5.8 10.4667 5.53333ZM5.33333 12.6667C4.2 12.6667 3.33333 11.8 3.33333 10.6667V5.33333C3.33333 4.2 4.2 3.33333 5.33333 3.33333C5.73333 3.33333 6 3.06667 6 2.66667C6 2.26667 5.73333 2 5.33333 2C3.46667 2 2 3.46667 2 5.33333V10.6667C2 12.5333 3.46667 14 5.33333 14C5.73333 14 6 13.7333 6 13.3333C6 12.9333 5.73333 12.6667 5.33333 12.6667ZM12.6667 5.33333V9.33333C12.6667 9.73333 12.9333 10 13.3333 10C13.7333 10 14 9.73333 14 9.33333V5.33333C14 3.46667 12.5333 2 10.6667 2C10.2667 2 10 2.26667 10 2.66667C10 3.06667 10.2667 3.33333 10.6667 3.33333C11.8 3.33333 12.6667 4.2 12.6667 5.33333Z" fill="#112243"/></svg>