<svg width="19" height="19" viewBox="0 0 19 19" fill="none" xmlns="http://www.w3.org/2000/svg"><path d="M17.9297 15.543C18.0469 16.0117 18 16.4453 17.7891 16.8438C17.5547 17.2188 17.2031 17.4766 16.7344 17.6172L14.5898 18.1797C14.4258 18.2266 14.2734 18.25 14.1328 18.25C13.7578 18.25 13.418 18.1328 13.1133 17.8984C12.832 17.6875 12.6328 17.3945 12.5156 17.0195L10.125 8.16016V16.5625C10.1016 17.0312 9.9375 17.4297 9.63281 17.7578C9.30469 18.0625 8.90625 18.2266 8.4375 18.25H6.1875C5.74219 18.25 5.36719 18.1094 5.0625 17.8281C4.75781 18.1094 4.38281 18.25 3.9375 18.25H1.6875C1.21875 18.2266 0.820312 18.0625 0.492188 17.7578C0.1875 17.4297 0.0234375 17.0312 0 16.5625V1.9375C0.0234375 1.46875 0.1875 1.07031 0.492188 0.742188C0.820312 0.4375 1.21875 0.273438 1.6875 0.25H3.9375C4.38281 0.25 4.75781 0.390625 5.0625 0.671875C5.36719 0.390625 5.74219 0.25 6.1875 0.25H8.4375C9 0.273438 9.45703 0.507812 9.80859 0.953125C9.80859 0.929687 9.82031 0.917969 9.84375 0.917969C9.86719 0.894531 9.89062 0.882812 9.91406 0.882812L12.0938 0.320312C12.2344 0.273438 12.375 0.25 12.5156 0.25C12.9141 0.25 13.2539 0.367187 13.5352 0.601562C13.8398 0.8125 14.0508 1.11719 14.168 1.51562L17.9297 15.543ZM1.125 1.9375V3.625H4.5V1.9375C4.47656 1.58594 4.28906 1.39844 3.9375 1.375H1.6875C1.33594 1.39844 1.14844 1.58594 1.125 1.9375ZM1.125 4.75V13.75L4.5 13.7148V4.75H1.125ZM3.9375 17.125C4.28906 17.1016 4.47656 16.9141 4.5 16.5625V14.875H1.125V16.5625C1.14844 16.9141 1.33594 17.1016 1.6875 17.125H3.9375ZM9 16.5625V14.875L5.625 14.9102V16.5625C5.64844 16.9141 5.83594 17.1016 6.1875 17.125H8.4375C8.78906 17.1016 8.97656 16.9141 9 16.5625ZM9 13.75V4.75H5.66016V13.75H9ZM9 3.625V1.9375C8.97656 1.58594 8.78906 1.39844 8.4375 1.375H6.1875C5.83594 1.39844 5.64844 1.58594 5.625 1.9375V3.625H9ZM10.125 3.83594L10.2656 4.29297L13.5 3.41406L13.0781 1.79688C12.9844 1.53906 12.7969 1.39844 12.5156 1.375C12.4688 1.375 12.4219 1.38672 12.375 1.41016L10.1953 1.97266C10.1719 1.97266 10.1602 1.98437 10.1602 2.00781C10.1367 2.00781 10.125 2.00781 10.125 2.00781V3.83594ZM12.8672 13.9961L16.1367 13.1523L13.7812 4.50391L10.5469 5.34766L12.8672 13.9961ZM16.8047 16.2812C16.875 16.1875 16.8867 16.0469 16.8398 15.8594L16.418 14.207L13.1484 15.0859L13.6055 16.7031C13.6758 16.9609 13.8516 17.1016 14.1328 17.125C14.1562 17.125 14.1914 17.125 14.2383 17.125C14.2617 17.125 14.2734 17.1133 14.2734 17.0898L16.4531 16.5273C16.6406 16.457 16.7578 16.375 16.8047 16.2812Z" fill="#1F1F1F"/></svg>