<svg width="14" height="10" viewBox="0 0 14 10" fill="none" xmlns="http://www.w3.org/2000/svg"><path d="M14 1C14 1.27083 13.9062 1.51042 13.7188 1.71875L5.71875 9.71875C5.51042 9.90625 5.27083 10 5 10C4.72917 10 4.48958 9.90625 4.28125 9.71875L0.28125 5.71875C0.09375 5.51042 0 5.27083 0 5C0 4.70833 0.104167 4.46875 0.3125 4.28125C0.5 4.09375 0.729167 4 1 4C1.27083 4 1.51042 4.09375 1.71875 4.28125L5 7.59375L12.2812 0.28125C12.4896 0.09375 12.7292 0 13 0C13.2708 0 13.5 0.09375 13.6875 0.28125C13.8958 0.46875 14 0.708333 14 1Z" fill="#3ECF4D"/></svg>