<svg width="20" height="20" viewBox="0 0 20 20" fill="none" xmlns="http://www.w3.org/2000/svg"><path d="M10 0C8.02219 0 6.08879 0.58649 4.4443 1.6853C2.79981 2.78412 1.51809 4.3459 0.761209 6.17316C0.00433286 8.00043 -0.1937 10.0111 0.192152 11.9509C0.578004 13.8907 1.53041 15.6725 2.92894 17.0711C4.32746 18.4696 6.10929 19.422 8.0491 19.8078C9.98891 20.1937 11.9996 19.9957 13.8268 19.2388C15.6541 18.4819 17.2159 17.2002 18.3147 15.5557C19.4135 13.9112 20 11.9778 20 10C20 7.34783 18.9464 4.8043 17.0711 2.92893C15.1957 1.05357 12.6522 0 10 0ZM13.8667 8.14167L8.86667 12.3083C8.70688 12.4422 8.50271 12.5114 8.29445 12.5021C8.08618 12.4929 7.88895 12.4059 7.74167 12.2583L6.075 10.5917C5.91808 10.4347 5.82993 10.2219 5.82993 10C5.82993 9.77808 5.91808 9.56525 6.075 9.40833C6.23192 9.25141 6.44475 9.16326 6.66667 9.16326C6.88859 9.16326 7.10142 9.25141 7.25834 9.40833L8.38334 10.5417L12.8 6.85833C12.8843 6.78829 12.9815 6.73554 13.0862 6.70308C13.1908 6.67062 13.3008 6.65909 13.4099 6.66915C13.519 6.67921 13.6251 6.71066 13.7221 6.76171C13.819 6.81276 13.905 6.8824 13.975 6.96667C14.045 7.05093 14.0978 7.14817 14.1303 7.25282C14.1627 7.35747 14.1742 7.46749 14.1642 7.5766C14.1541 7.68571 14.1227 7.79177 14.0716 7.88872C14.0206 7.98568 13.9509 8.07163 13.8667 8.14167Z" fill="#F5F5F5"/></svg>