<svg width="28" height="28" viewBox="0 0 28 28" fill="none" xmlns="http://www.w3.org/2000/svg"><g clip-path="url(#clip0_2325_4631)"><path d="M6.20539 16.921L5.23075 20.5594L1.66846 20.6348C0.603859 18.6602 0 16.401 0 14.0002C0 11.6787 0.564594 9.48942 1.56538 7.56174H1.56614L4.73758 8.14317L6.12686 11.2956C5.83609 12.1433 5.6776 13.0533 5.6776 14.0002C5.67771 15.0279 5.86387 16.0125 6.20539 16.921Z" fill="#FBBB00"/><path d="M27.7562 11.3849C27.917 12.2318 28.0008 13.1064 28.0008 14.0003C28.0008 15.0026 27.8954 15.9803 27.6947 16.9234C27.0132 20.1326 25.2324 22.9349 22.7655 24.918L22.7647 24.9172L18.7701 24.7134L18.2048 21.1842C19.8417 20.2242 21.1209 18.7218 21.7948 16.9234H14.3086V11.3849H21.904H27.7562Z" fill="#518EF8"/><path d="M22.7633 24.9169L22.7641 24.9177C20.3649 26.8461 17.3172 28 13.9995 28C8.66797 28 4.0326 25.02 1.66797 20.6346L6.2049 16.9208C7.38719 20.0761 10.431 22.3223 13.9995 22.3223C15.5333 22.3223 16.9703 21.9077 18.2033 21.1838L22.7633 24.9169Z" fill="#28B446"/><path d="M22.9352 3.22306L18.3998 6.93613C17.1237 6.13845 15.6152 5.67766 13.9991 5.67766C10.3498 5.67766 7.24906 8.02687 6.12599 11.2954L1.56522 7.56153H1.56445C3.89447 3.06923 8.5883 0 13.9991 0C17.396 0 20.5106 1.21002 22.9352 3.22306Z" fill="#F14336"/></g><defs><clipPath id="clip0_2325_4631"><rect width="28" height="28" fill="white"/></clipPath></defs></svg>