<svg width="16" height="16" viewBox="0 0 16 16" fill="none" xmlns="http://www.w3.org/2000/svg"><path d="M9.60453 14.105H6.39453C5.20106 14.105 4.05646 13.6309 3.21255 12.787C2.36864 11.9431 1.89453 10.7985 1.89453 9.60502V6.39502C1.89453 5.20154 2.36864 4.05695 3.21255 3.21304C4.05646 2.36913 5.20106 1.89502 6.39453 1.89502H9.60453C10.798 1.89502 11.9426 2.36913 12.7865 3.21304C13.6304 4.05695 14.1045 5.20154 14.1045 6.39502V9.60502C14.1045 10.7985 13.6304 11.9431 12.7865 12.787C11.9426 13.6309 10.798 14.105 9.60453 14.105ZM6.39453 2.89502C5.46627 2.89502 4.57603 3.26377 3.91966 3.92015C3.26328 4.57652 2.89453 5.46676 2.89453 6.39502V9.60502C2.89453 10.5333 3.26328 11.4235 3.91966 12.0799C4.57603 12.7363 5.46627 13.105 6.39453 13.105H9.60453C10.5328 13.105 11.423 12.7363 12.0794 12.0799C12.7358 11.4235 13.1045 10.5333 13.1045 9.60502V6.39502C13.1045 5.46676 12.7358 4.57652 12.0794 3.92015C11.423 3.26377 10.5328 2.89502 9.60453 2.89502H6.39453Z" fill="#112243"/><path d="M9.66667 5H7.33333L6 8.79167H7.66667L7 12L10 7.625H8.33333L9.66667 5Z" fill="#112243"/></svg>