<svg width="18" height="21" viewBox="0 0 18 21" fill="none" xmlns="http://www.w3.org/2000/svg"><path d="M9 10.5C10.4062 10.474 11.5911 9.99219 12.5547 9.05469C13.4922 8.09115 13.974 6.90625 14 5.5C13.974 4.09375 13.4922 2.90885 12.5547 1.94531C11.5911 1.00781 10.4062 0.526042 9 0.5C7.59375 0.526042 6.40885 1.00781 5.44531 1.94531C4.50781 2.90885 4.02604 4.09375 4 5.5C4.02604 6.90625 4.50781 8.09115 5.44531 9.05469C6.40885 9.99219 7.59375 10.474 9 10.5ZM9 1.75C10.0677 1.77604 10.9531 2.14062 11.6562 2.84375C12.3594 3.54688 12.724 4.43229 12.75 5.5C12.724 6.56771 12.3594 7.45312 11.6562 8.15625C10.9531 8.85938 10.0677 9.22396 9 9.25C7.93229 9.22396 7.04688 8.85938 6.34375 8.15625C5.64062 7.45312 5.27604 6.56771 5.25 5.5C5.27604 4.43229 5.64062 3.54688 6.34375 2.84375C7.04688 2.14062 7.93229 1.77604 9 1.75ZM10.9922 12.375H7.00781C5.10677 12.4271 3.51823 13.0911 2.24219 14.3672C0.966146 15.6432 0.302083 17.2318 0.25 19.1328C0.25 19.5234 0.380208 19.849 0.640625 20.1094C0.901042 20.3698 1.22656 20.5 1.61719 20.5H16.3828C16.7734 20.5 17.099 20.3698 17.3594 20.1094C17.6198 19.849 17.75 19.5234 17.75 19.1328C17.6979 17.2318 17.0339 15.6432 15.7578 14.3672C14.4818 13.0911 12.8932 12.4271 10.9922 12.375ZM16.3828 19.25H1.61719C1.53906 19.25 1.5 19.2109 1.5 19.1328C1.55208 17.5703 2.08594 16.2682 3.10156 15.2266C4.14323 14.2109 5.44531 13.6771 7.00781 13.625H10.9922C12.5547 13.6771 13.8568 14.2109 14.8984 15.2266C15.9141 16.2682 16.4479 17.5703 16.5 19.1328C16.5 19.2109 16.4609 19.25 16.3828 19.25Z" fill="#112243"/></svg>