<svg xmlns="http://www.w3.org/2000/svg"><symbol id="eye" viewBox="0 0 18 12" fill="none"><path d="M9 2.5C8.71875 2.53125 8.28125 2.59375 8 2.65625C8.125 2.875 8.21875 3.28125 8.25 3.5C8.25 4.46875 7.4375 5.25 6.5 5.25C6.25 5.25 5.84375 5.15625 5.65625 5.03125C5.5625 5.3125 5.5 5.71875 5.5 6C5.5 7.9375 7.0625 9.5 9 9.5C10.9375 9.5 12.5 7.9375 12.5 6C12.5 4.09375 10.9375 2.5 9 2.5ZM17.875 5.5625C16.1875 2.25 12.8125 0 9 0C5.15625 0 1.78125 2.25 0.09375 5.5625C0.03125 5.6875 0 5.875 0 6.03125C0 6.15625 0.03125 6.34375 0.09375 6.46875C1.78125 9.78125 5.15625 12 9 12C12.8125 12 16.1875 9.78125 17.875 6.46875C17.9375 6.34375 17.9688 6.15625 17.9688 6C17.9688 5.875 17.9375 5.6875 17.875 5.5625ZM9 10.5C5.90625 10.5 3.0625 8.78125 1.5625 6C3.0625 3.21875 5.90625 1.5 9 1.5C12.0625 1.5 14.9062 3.21875 16.4062 6C14.9062 8.78125 12.0625 10.5 9 10.5Z" fill="currentColor"/></symbol><symbol id="close" viewBox="0 0 16 16" fill="none"><path d="M9.54688 8L15.3594 13.8125C15.5 13.9531 15.5 14.1875 15.3594 14.375L14.3281 15.4062C14.1406 15.5469 13.9062 15.5469 13.7656 15.4062L12.7812 14.4219L8 9.59375L2.1875 15.4062C2.04688 15.5469 1.8125 15.5469 1.625 15.4062L0.59375 14.375C0.453125 14.1875 0.453125 13.9531 0.59375 13.8125L6.40625 8L0.59375 2.23438C0.453125 2.09375 0.453125 1.85938 0.59375 1.67188L1.625 0.640625C1.8125 0.5 2.04688 0.5 2.1875 0.640625L8 6.45312L13.7656 0.640625C13.9062 0.5 14.1406 0.5 14.3281 0.640625L15.3594 1.67188C15.5 1.85938 15.5 2.09375 15.3594 2.23438L14.375 3.21875L9.54688 8Z" fill="currentColor"/></symbol><symbol id="user" viewBox="0 0 14 14" fill="none"><path d="M11.9498 9.05023C11.1873 8.28784 10.2799 7.72343 9.28974 7.38177C10.3502 6.65139 11.0469 5.42905 11.0469 4.04688C11.0469 1.81543 9.23144 0 7 0C4.76856 0 2.95312 1.81543 2.95312 4.04688C2.95312 5.42905 3.64982 6.65139 4.71029 7.38177C3.72017 7.72343 2.81269 8.28784 2.05026 9.05023C0.728137 10.3724 0 12.1302 0 14H1.09375C1.09375 10.7433 3.74328 8.09375 7 8.09375C10.2567 8.09375 12.9062 10.7433 12.9062 14H14C14 12.1302 13.2719 10.3724 11.9498 9.05023ZM7 7C5.37165 7 4.04688 5.67525 4.04688 4.04688C4.04688 2.4185 5.37165 1.09375 7 1.09375C8.62835 1.09375 9.95312 2.4185 9.95312 4.04688C9.95312 5.67525 8.62835 7 7 7Z" fill="currentColor"/></symbol><symbol id="crown" viewBox="0 0 6 6" fill="none"><path d="M5.99988 1.5776C6.0015 1.49058 5.98665 1.40409 5.9562 1.3232C5.92576 1.24231 5.88033 1.16864 5.82258 1.10649C5.76483 1.04435 5.69591 0.994982 5.61986 0.961282C5.5438 0.927581 5.46215 0.910223 5.37966 0.910223C5.29717 0.910223 5.21551 0.927581 5.13946 0.961282C5.06341 0.994982 4.99449 1.04435 4.93674 1.10649C4.87898 1.16864 4.83356 1.24231 4.80311 1.3232C4.77267 1.40409 4.75782 1.49058 4.75944 1.5776C4.75991 1.67516 4.78132 1.77133 4.82204 1.85891L3.88796 2.84376L3.39616 1.15814C3.49441 1.07225 3.56515 0.956475 3.59875 0.826602C3.63235 0.69673 3.62716 0.559083 3.5839 0.432435C3.54063 0.305788 3.4614 0.196303 3.357 0.118915C3.2526 0.041526 3.12812 0 3.00053 0C2.87295 0 2.74847 0.041526 2.64407 0.118915C2.53967 0.196303 2.46043 0.305788 2.41717 0.432435C2.37391 0.559083 2.36872 0.69673 2.40232 0.826602C2.43591 0.956475 2.50666 1.07225 2.60491 1.15814L2.11311 2.84376L1.17807 1.85891C1.2188 1.77133 1.2402 1.67516 1.24068 1.5776C1.2411 1.45196 1.20725 1.32884 1.14316 1.22295C1.07906 1.11706 0.987442 1.03287 0.879231 0.980432C0.771021 0.927997 0.650793 0.909531 0.532906 0.92724C0.415018 0.944949 0.304452 0.998085 0.21441 1.0803C0.124367 1.16252 0.058653 1.27034 0.0251144 1.3909C-0.00842424 1.51146 -0.00837032 1.63965 0.0252698 1.76018C0.0589099 1.88071 0.124715 1.98847 0.214826 2.0706C0.304938 2.15273 0.415549 2.20577 0.533451 2.22337L1.03715 4.79487C1.04812 4.85156 1.0773 4.90252 1.11976 4.93913C1.16222 4.97574 1.21536 4.99577 1.2702 4.99581H4.73087C4.78571 4.99577 4.83885 4.97574 4.88131 4.93913C4.92377 4.90252 4.95295 4.85156 4.96392 4.79487L5.46762 2.22337C5.61514 2.20136 5.7502 2.12393 5.84797 2.0053C5.94575 1.88668 5.99969 1.73481 5.99988 1.5776ZM3.00053 0.506348C3.02913 0.5063 3.0571 0.515224 3.08089 0.531987C3.10467 0.548749 3.1232 0.572593 3.13411 0.60049C3.14502 0.628386 3.14783 0.659075 3.14217 0.688658C3.13651 0.718242 3.12265 0.745383 3.10234 0.766634C3.08204 0.787885 3.0562 0.802286 3.02812 0.808009C3.00003 0.813731 2.97097 0.810515 2.94463 0.798771C2.91828 0.787026 2.89584 0.767283 2.88015 0.742049C2.86446 0.716815 2.85623 0.68723 2.85652 0.657052C2.85683 0.616968 2.87214 0.578638 2.89912 0.550411C2.92609 0.522184 2.96254 0.506347 3.00053 0.506348ZM0.620099 1.42539C0.653759 1.42402 0.686793 1.43525 0.713365 1.4571C0.739938 1.47894 0.758338 1.50999 0.765316 1.54476C0.772295 1.57953 0.767401 1.61579 0.7515 1.64712C0.7356 1.67845 0.709715 1.70285 0.67842 1.716H0.67723C0.674849 1.716 0.673183 1.71826 0.671041 1.71876C0.651622 1.72569 0.631018 1.72812 0.610629 1.7259C0.59024 1.72368 0.570542 1.71685 0.552875 1.70589C0.535208 1.69492 0.519985 1.68007 0.508241 1.66234C0.496496 1.64461 0.488506 1.62443 0.484811 1.60315C0.481117 1.58188 0.481806 1.56001 0.486832 1.53905C0.491857 1.51808 0.501101 1.4985 0.513935 1.48163C0.52677 1.46477 0.542894 1.45102 0.561213 1.44131C0.579531 1.43161 0.599615 1.42618 0.620099 1.42539ZM5.38049 1.73006C5.36319 1.72972 5.34609 1.72606 5.33003 1.71926C5.32788 1.71926 5.32622 1.717 5.32384 1.7165H5.32217C5.29007 1.70106 5.26451 1.67364 5.25043 1.6395C5.23636 1.60537 5.23475 1.56694 5.24592 1.53163C5.25709 1.49632 5.28026 1.46663 5.31095 1.44826C5.34164 1.4299 5.37768 1.42418 5.41214 1.43219C5.44659 1.4402 5.47701 1.46139 5.49754 1.49166C5.51808 1.52193 5.52726 1.55915 5.52333 1.59615C5.5194 1.63314 5.50263 1.6673 5.47626 1.69202C5.44989 1.71675 5.41577 1.7303 5.38049 1.73006ZM4.8787 5.74883C4.8787 5.81544 4.85362 5.87933 4.80898 5.92643C4.76433 5.97354 4.70379 6 4.64065 6H1.36041C1.29728 6 1.23673 5.97354 1.19209 5.92643C1.14745 5.87933 1.12237 5.81544 1.12237 5.74883C1.12237 5.68221 1.14745 5.61833 1.19209 5.57122C1.23673 5.52412 1.29728 5.49765 1.36041 5.49765H4.64065C4.70379 5.49765 4.76433 5.52412 4.80898 5.57122C4.85362 5.61833 4.8787 5.68221 4.8787 5.74883Z" fill="currentColor"/></symbol><symbol id="search" viewBox="0 0 15 15" fill="none"><path d="M14.0015 14L11.8477 11.8461" stroke="currentColor" stroke-width="1.1" stroke-miterlimit="10" stroke-linecap="round" stroke-linejoin="round"/><path d="M13.1662 6.87076C13.1662 10.3626 10.341 13.1915 6.85808 13.1915C3.37518 13.1915 0.55 10.3626 0.55 6.87076C0.55 3.37894 3.37518 0.55 6.85808 0.55C10.341 0.55 13.1662 3.37894 13.1662 6.87076Z" stroke="currentColor" stroke-width="1.1" stroke-miterlimit="10" stroke-linecap="round" stroke-linejoin="round"/></symbol><symbol id="exit" viewBox="0 0 24 22" fill="none"><path d="M22.4531 10.9062C22.4844 10.9375 22.5 10.9688 22.5 11C22.5 11.0312 22.4844 11.0625 22.4531 11.0938L16.2656 16.9062C16.2031 16.9688 16.1406 17 16.0781 17C15.8906 16.9688 15.7812 16.8594 15.75 16.6719V14C15.7188 13.5312 15.4688 13.2812 15 13.25H9.375C9.15625 13.2188 9.03125 13.0938 9 12.875V9.125C9.03125 8.90625 9.15625 8.78125 9.375 8.75H15C15.4688 8.71875 15.7188 8.46875 15.75 8V5.32812C15.7812 5.14062 15.8906 5.03125 16.0781 5C16.1406 5 16.2031 5.03125 16.2656 5.09375L22.4531 10.9062ZM24 11C24 10.5312 23.8281 10.1406 23.4844 9.82812L17.2969 4.01562C16.9531 3.67188 16.5469 3.5 16.0781 3.5C15.5469 3.5 15.1094 3.67188 14.7656 4.01562C14.4219 4.35937 14.25 4.79688 14.25 5.32812V7.25H9.375C8.84375 7.25 8.40625 7.4375 8.0625 7.8125C7.6875 8.15625 7.5 8.59375 7.5 9.125V12.875C7.5 13.4062 7.6875 13.8438 8.0625 14.1875C8.40625 14.5625 8.84375 14.75 9.375 14.75H14.25V16.6719C14.25 17.2031 14.4219 17.6406 14.7656 17.9844C15.1094 18.3281 15.5469 18.5 16.0781 18.5C16.5469 18.5 16.9531 18.3438 17.2969 18.0312L23.4844 12.1719C23.8281 11.8594 24 11.4688 24 11ZM8.25 2C8.71875 1.96875 8.96875 1.71875 9 1.25C8.96875 0.78125 8.71875 0.53125 8.25 0.5H3.75C2.6875 0.53125 1.79688 0.890625 1.07812 1.57812C0.390625 2.29687 0.03125 3.1875 0 4.25V17.75C0.03125 18.8125 0.390625 19.7031 1.07812 20.4219C1.79688 21.1094 2.6875 21.4688 3.75 21.5H8.25C8.71875 21.4688 8.96875 21.2188 9 20.75C8.96875 20.2812 8.71875 20.0312 8.25 20H3.75C3.125 19.9688 2.59375 19.75 2.15625 19.3438C1.75 18.9062 1.53125 18.375 1.5 17.75V4.25C1.53125 3.625 1.75 3.09375 2.15625 2.65625C2.59375 2.25 3.125 2.03125 3.75 2H8.25Z" fill="currentColor"/></symbol><symbol id="share" viewBox="0 0 10 10" fill="none"><path d="M8.75 4.58335C8.63949 4.58335 8.53351 4.62724 8.45537 4.70538C8.37723 4.78353 8.33333 4.88951 8.33333 5.00001V7.82918C8.31954 8.19654 8.16083 8.54348 7.89191 8.79413C7.62299 9.04478 7.26575 9.17873 6.89833 9.16668H2.26833C1.90091 9.17873 1.54368 9.04478 1.27476 8.79413C1.00584 8.54348 0.847127 8.19654 0.833333 7.82918V3.00418C0.847127 2.63682 1.00584 2.28988 1.27476 2.03923C1.54368 1.78858 1.90091 1.65463 2.26833 1.66668H5C5.11051 1.66668 5.21649 1.62278 5.29463 1.54464C5.37277 1.4665 5.41667 1.36052 5.41667 1.25001C5.41667 1.13951 5.37277 1.03352 5.29463 0.955385C5.21649 0.877244 5.11051 0.833346 5 0.833346H2.26833C1.67994 0.821383 1.11079 1.04315 0.685609 1.45006C0.260427 1.85697 0.0138829 2.41582 0 3.00418L0 7.82918C0.0138829 8.41753 0.260427 8.97639 0.685609 9.3833C1.11079 9.79021 1.67994 10.012 2.26833 10H6.89833C7.48673 10.012 8.05587 9.79021 8.48106 9.3833C8.90624 8.97639 9.15278 8.41753 9.16667 7.82918V5.00001C9.16667 4.88951 9.12277 4.78353 9.04463 4.70538C8.96649 4.62724 8.86051 4.58335 8.75 4.58335Z" fill="currentColor"/><path d="M9.74069 0.03375C9.69067 0.0116675 9.63662 0.000176502 9.58194 0L6.66528 0C6.55477 0 6.44879 0.0438987 6.37065 0.122039C6.29251 0.200179 6.24861 0.30616 6.24861 0.416667C6.24861 0.527174 6.29251 0.633154 6.37065 0.711294C6.44879 0.789435 6.55477 0.833333 6.66528 0.833333H8.57611L4.28736 5.12208C4.24756 5.16052 4.21582 5.2065 4.19398 5.25733C4.17215 5.30817 4.16065 5.36284 4.16017 5.41817C4.15969 5.47349 4.17023 5.52836 4.19118 5.57956C4.21213 5.63077 4.24307 5.67729 4.2822 5.71641C4.32132 5.75554 4.36784 5.78648 4.41905 5.80743C4.47025 5.82838 4.52512 5.83892 4.58044 5.83844C4.63577 5.83796 4.69044 5.82646 4.74128 5.80463C4.79211 5.78279 4.83809 5.75105 4.87653 5.71125L9.16528 1.4225V3.33333C9.16528 3.44384 9.20918 3.54982 9.28731 3.62796C9.36546 3.7061 9.47144 3.75 9.58194 3.75C9.69245 3.75 9.79843 3.7061 9.87657 3.62796C9.95471 3.54982 9.99861 3.44384 9.99861 3.33333V0.416667C9.99673 0.334861 9.97143 0.25531 9.92572 0.187442C9.88001 0.119574 9.8158 0.0662362 9.74069 0.03375Z" fill="currentColor"/></symbol><symbol id="ribbon" viewBox="0 0 21 54" fill="none"><path d="M0 2C0 0.895432 0.895431 0 2 0H19C20.1046 0 21 0.895431 21 2V51.9343C21 53.8629 18.5393 54.6742 17.3922 53.1238L11.7222 45.4604C10.9022 44.3521 9.23308 44.3864 8.45922 45.5274L3.65522 52.6106C2.54911 54.2415 0 53.4586 0 51.488V2Z" fill="currentColor"/></symbol><symbol id="arrow-right" viewBox="0 0 12 11" fill="none"><path d="M11.0859 5.89844L6.96094 9.83594C6.67969 10.0547 6.41406 10.0547 6.16406 9.83594C5.94531 9.55469 5.94531 9.28906 6.16406 9.03906L9.28125 6.0625L1.3125 6.0625C0.96875 6.03125 0.78125 5.84375 0.75 5.5C0.78125 5.15625 0.96875 4.96875 1.3125 4.9375L9.28125 4.9375L6.1875 1.96094C5.95313 1.71094 5.94531 1.44531 6.16406 1.16406C6.41406 0.945312 6.67969 0.945312 6.96094 1.16406L11.0859 5.10156C11.1953 5.21094 11.25 5.34375 11.25 5.5C11.25 5.65625 11.1953 5.78906 11.0859 5.89844Z" fill="currentColor"/></symbol><symbol id="hamburger" viewBox="0 0 24 17" fill="none"><rect width="24" height="3" fill="currentColor"/><rect x="4" y="14" width="20" height="3" fill="currentColor"/><rect x="10" y="7" width="14" height="3" fill="currentColor"/></symbol><symbol id="hamburger-close" viewBox="0 0 20 20" fill="none"><path d="M0.121094 17L17.0917 0.0294185L19.213 2.15074L2.24241 19.1213L0.121094 17Z" fill="currentColor"/><path d="M2.12132 0L19.0919 16.9706L16.9706 19.0919L0 2.12132L2.12132 0Z" fill="currentColor"/></symbol></svg>