<svg width="16" height="19" viewBox="0 0 16 19" fill="none" xmlns="http://www.w3.org/2000/svg"><path d="M11.6211 11.2539C12.8867 11.6523 13.9062 12.3672 14.6797 13.3984C15.4531 14.4297 15.8516 15.6367 15.875 17.0195C15.875 17.3711 15.7578 17.6641 15.5234 17.8984C15.2891 18.1328 14.9961 18.25 14.6445 18.25H1.35547C1.00391 18.25 0.710938 18.1328 0.476562 17.8984C0.242188 17.6641 0.125 17.3711 0.125 17.0195C0.148438 15.6367 0.546875 14.4297 1.32031 13.3984C2.09375 12.3672 3.11328 11.6523 4.37891 11.2539L8 14.875L11.6211 11.2539ZM14.6445 17.0898C14.7148 17.0898 14.75 17.0664 14.75 17.0195C14.75 16.0352 14.4922 15.1562 13.9766 14.3828C13.4609 13.5859 12.7695 12.9766 11.9023 12.5547L8.80859 15.6836C8.57422 15.8945 8.30469 16 8 16C7.69531 16 7.42578 15.8945 7.19141 15.6836L4.09766 12.5195C3.23047 12.9414 2.53906 13.5508 2.02344 14.3477C1.50781 15.1445 1.25 16.0234 1.25 16.9844C1.25 17.0547 1.28516 17.0898 1.35547 17.0898H14.6445ZM0.546875 3.0625C0.289062 2.96875 0.148438 2.78125 0.125 2.5C0.148438 2.21875 0.289062 2.03125 0.546875 1.9375L7.89453 0.25C7.98828 0.25 8.07031 0.25 8.14062 0.25L15.4531 1.9375C15.7109 2.03125 15.8516 2.21875 15.875 2.5C15.8516 2.78125 15.7109 2.96875 15.4531 3.0625L12.5 3.73047V4.75C12.5 4.96094 12.4062 5.125 12.2188 5.24219L9.96875 6.54297C9.33594 6.87109 8.67969 7.03516 8 7.03516C7.32031 7.03516 6.66406 6.87109 6.03125 6.54297L3.78125 5.24219C3.59375 5.125 3.5 4.96094 3.5 4.75V3.73047L2.375 3.44922V6.33203L3.46484 9.63672C3.51172 9.82422 3.48828 9.98828 3.39453 10.1289C3.27734 10.293 3.125 10.375 2.9375 10.375H0.6875C0.5 10.375 0.347656 10.293 0.230469 10.1289C0.113281 9.98828 0.0898438 9.82422 0.160156 9.63672L1.25 6.33203V3.20312L0.546875 3.0625ZM11.375 4.43359V3.97656L8.14062 4.75C8.09375 4.75 8.04688 4.75 8 4.75C7.95312 4.75 7.90625 4.75 7.85938 4.75L4.625 3.97656V4.43359L6.59375 5.55859C7.53125 6.05078 8.46875 6.05078 9.40625 5.55859L11.375 4.43359ZM8 1.375L3.18359 2.5L8 3.625L12.8164 2.5L8 1.375ZM1.8125 8.23047L1.46094 9.25H2.16406L1.8125 8.23047ZM11.9375 5.83984C12.2891 5.88672 12.4531 6.07422 12.4297 6.40234C12.4062 7.66797 11.9727 8.73438 11.1289 9.60156C10.2852 10.4453 9.23047 10.8789 7.96484 10.9023C6.69922 10.8789 5.64453 10.4453 4.80078 9.60156C3.95703 8.73438 3.52344 7.66797 3.5 6.40234C3.54688 6.07422 3.74609 5.88672 4.09766 5.83984C4.40234 5.86328 4.57812 6.05078 4.625 6.40234C4.64844 7.36328 4.98828 8.16016 5.64453 8.79297C6.30078 9.42578 7.09766 9.75391 8.03516 9.77734C8.97266 9.75391 9.75781 9.42578 10.3906 8.79297C11.0234 8.16016 11.3516 7.36328 11.375 6.40234C11.3984 6.05078 11.5859 5.86328 11.9375 5.83984Z" fill="#1F1F1F"/></svg>