<svg width="40" height="40" viewBox="0 0 40 40" fill="none" xmlns="http://www.w3.org/2000/svg"><rect width="40" height="40" rx="4" fill="#0277FE"/><circle cx="20" cy="20" r="17" fill="white"/><path d="M4.92188 4.92188C6.11979 3.77604 7.83854 3.07292 10.0781 2.8125C12.3177 2.55208 15.3906 2.44792 19.2969 2.5H20.7031C24.6094 2.44792 27.6823 2.55208 29.9219 2.8125C32.1615 3.07292 33.8802 3.77604 35.0781 4.92188C36.224 6.11979 36.9271 7.83854 37.1875 10.0781C37.4479 12.3177 37.5521 15.3906 37.5 19.2969V20.7031C37.5521 24.6094 37.4479 27.6823 37.1875 29.9219C36.9271 32.1615 36.224 33.8802 35.0781 35.0781C33.8802 36.224 32.1615 36.9271 29.9219 37.1875C27.6823 37.4479 24.6094 37.5521 20.7031 37.5H19.2969C15.3906 37.5521 12.3177 37.4479 10.0781 37.1875C7.83854 36.9271 6.11979 36.224 4.92188 35.0781C3.77604 33.8802 3.07292 32.1615 2.8125 29.9219C2.55208 27.6823 2.44792 24.6094 2.5 20.7031V19.2969C2.44792 15.3906 2.55208 12.3177 2.8125 10.0781C3.07292 7.83854 3.77604 6.11979 4.92188 4.92188ZM8.4375 13.125C8.54167 17.7083 9.6875 21.276 11.875 23.8281C14.0104 26.3802 17.0833 27.6823 21.0938 27.7344H21.5625V22.5C23.0208 22.7083 24.2969 23.2812 25.3906 24.2188C26.4844 25.1562 27.2135 26.3281 27.5781 27.7344H31.7188C31.3021 26.1198 30.5729 24.6875 29.5312 23.4375C28.4896 22.1354 27.2396 21.1198 25.7812 20.3906C27.0833 19.6094 28.1771 18.5938 29.0625 17.3438C29.9479 16.0417 30.5469 14.6354 30.8594 13.125H27.1094C26.6927 14.6354 25.9635 15.9375 24.9219 17.0312C23.8802 18.125 22.7604 18.75 21.5625 18.9062V13.125H17.8125V23.2031C16.5625 22.9427 15.3906 22.0312 14.2969 20.4688C13.151 18.9062 12.526 16.4583 12.4219 13.125H8.4375Z" fill="#0277FE"/></svg>