<svg width="75" height="75" viewBox="0 0 75 75" fill="none" xmlns="http://www.w3.org/2000/svg"><circle cx="37.5" cy="37.5" r="37.5" fill="#FFCD11"/><g clip-path="url(#clip0_2053_4699)"><path d="M50.0726 47.1647C47.4328 46.9429 44.9149 46.2945 42.5822 45.2951C41.5341 44.8466 40.3153 45.1221 39.6669 46.0605C39.5724 46.197 39.4789 46.3344 39.3866 46.4724C38.3873 47.9471 37.4342 49.5193 37.4342 49.5193C32.4032 46.743 28.2399 42.6066 25.4588 37.5804C25.4588 37.5804 27.3576 36.4372 28.9395 35.3404C29.8779 34.692 30.1534 33.4708 29.7049 32.4227C28.7055 30.0876 28.0571 27.5696 27.8353 24.9274C27.7378 23.7501 26.697 22.875 25.5148 22.875H19.2188C18.5582 22.875 18 23.4161 18 24.0767C17.9903 42.2336 32.7664 57.0098 50.9233 57C51.5839 57 52.125 56.4418 52.125 55.7812V49.4852C52.125 48.303 51.2499 47.2622 50.0726 47.1647Z" fill="#1C1C1C"/><path d="M44.8125 18C38.0923 18 32.625 22.3729 32.625 27.75C32.625 30.2826 33.7877 32.6152 35.9156 34.3946L35.0869 38.475C35.0401 38.7034 35.06 38.9405 35.1443 39.1579C35.2286 39.3753 35.3736 39.5639 35.5622 39.7011C35.7493 39.8392 35.9723 39.9205 36.2045 39.9352C36.4366 39.9499 36.668 39.8974 36.8711 39.7839L41.6121 37.1563C42.6635 37.3851 43.7365 37.5003 44.8125 37.5C51.5327 37.5 57 33.1271 57 27.75C57 22.3729 51.5327 18 44.8125 18Z" fill="#1C1C1C"/></g><defs><clipPath id="clip0_2053_4699"><rect width="39" height="39" fill="white" transform="translate(18 18)"/></clipPath></defs></svg>