<svg width="75" height="75" viewBox="0 0 75 75" fill="none" xmlns="http://www.w3.org/2000/svg"><circle cx="37.5" cy="37.5" r="37.5" fill="#FFCD11"/><path d="M25.1667 22.7H20.2333C19.5525 22.7 19 23.2525 19 23.9333V28.8666C19 29.5474 19.5525 30.1 20.2333 30.1C20.9141 30.1 21.4667 29.5474 21.4667 28.8666V25.1666H25.1667C25.8475 25.1666 26.4 24.6141 26.4 23.9333C26.4 23.2525 25.8475 22.7 25.1667 22.7ZM54.7667 44.9C54.0859 44.9 53.5333 45.4525 53.5333 46.1333V49.8333H49.8333C49.1525 49.8333 48.6 50.3858 48.6 51.0666C48.6 51.7474 49.1525 52.2999 49.8333 52.2999H54.7667C55.4475 52.2999 56 51.7474 56 51.0666V46.1333C56 45.4525 55.4475 44.9 54.7667 44.9ZM54.7667 22.7H49.8333C49.1525 22.7 48.6 23.2525 48.6 23.9333C48.6 24.6141 49.1525 25.1666 49.8333 25.1666H53.5333V28.8666C53.5333 29.5474 54.0859 30.1 54.7667 30.1C55.4475 30.1 56 29.5474 56 28.8666V23.9333C56 23.2525 55.4475 22.7 54.7667 22.7ZM25.1667 49.8333H21.4667V46.1333C21.4667 45.4525 20.9141 44.9 20.2333 44.9C19.5525 44.9 19 45.4525 19 46.1333V51.0666C19 51.7474 19.5525 52.2999 20.2333 52.2999H25.1667C25.8475 52.2999 26.4 51.7474 26.4 51.0666C26.4 50.3858 25.8475 49.8333 25.1667 49.8333ZM23.9333 27.6333H26.4V47.3666H23.9333V27.6333ZM28.8667 27.6333H31.3333V42.4333H28.8667V27.6333ZM33.8 27.6333H36.2667V42.4333H33.8V27.6333ZM38.7333 27.6333H41.2V47.3666H38.7333V27.6333ZM43.6667 27.6333H46.1333V42.4333H43.6667V27.6333ZM48.6 27.6333H51.0667V47.3666H48.6V27.6333ZM28.8667 44.9H31.3333V47.3666H28.8667V44.9ZM33.8 44.9H36.2667V47.3666H33.8V44.9ZM43.6667 44.9H46.1333V47.3666H43.6667V44.9Z" fill="#1C1C1C"/></svg>