<svg width="75" height="75" viewBox="0 0 75 75" fill="none" xmlns="http://www.w3.org/2000/svg"><circle cx="37.5" cy="37.5" r="37.5" fill="#FFCD11"/><g clip-path="url(#clip0_2053_4697)"><path d="M40.6525 51.1622C40.5508 50.6769 40.4997 50.1828 40.5 49.6875H18C18 53.7264 21.3575 57 25.5 57H43.955C42.2175 55.5204 41.02 53.4851 40.6525 51.1622ZM35.5 27.75H38V30.1875H35.5V27.75Z" fill="#1C1C1C"/><path d="M28 18V47.25H41.75C42.44 47.25 43 47.796 43 48.4688V49.6875C43 53.7191 46.365 57 50.5 57C54.635 57 58 53.7191 58 49.6875V18H28ZM40.5 41.1562C40.5 41.829 39.94 42.375 39.25 42.375H34.25C33.56 42.375 33 41.829 33 41.1562V36.2812C33 35.6085 33.56 35.0625 34.25 35.0625H39.25C39.94 35.0625 40.5 35.6085 40.5 36.2812V41.1562ZM40.5 31.4062C40.5 32.079 39.94 32.625 39.25 32.625H34.25C33.56 32.625 33 32.079 33 31.4062V26.5312C33 25.8585 33.56 25.3125 34.25 25.3125H39.25C39.94 25.3125 40.5 25.8585 40.5 26.5312V31.4062ZM51.75 39.9375H44.25C43.56 39.9375 43 39.3915 43 38.7188C43 38.046 43.56 37.5 44.25 37.5H51.75C52.44 37.5 53 38.046 53 38.7188C53 39.3915 52.44 39.9375 51.75 39.9375ZM51.75 30.1875H44.25C43.56 30.1875 43 29.6415 43 28.9688C43 28.296 43.56 27.75 44.25 27.75H51.75C52.44 27.75 53 28.296 53 28.9688C53 29.6415 52.44 30.1875 51.75 30.1875Z" fill="#1C1C1C"/><path d="M35.5 37.5H38V39.9375H35.5V37.5Z" fill="#1C1C1C"/></g><defs><clipPath id="clip0_2053_4697"><rect width="40" height="39" fill="white" transform="translate(18 18)"/></clipPath></defs></svg>