<svg width="12" height="8" viewBox="0 0 12 8" fill="none" xmlns="http://www.w3.org/2000/svg"><path d="M11.7508 0.788658C11.6711 0.697192 11.5763 0.624593 11.4719 0.57505C11.3674 0.525507 11.2554 0.5 11.1423 0.5C11.0291 0.5 10.9171 0.525507 10.8127 0.57505C10.7082 0.624593 10.6134 0.697192 10.5338 0.788658L6.6085 5.2581C6.52883 5.34956 6.43404 5.42216 6.3296 5.4717C6.22516 5.52125 6.11314 5.54676 6 5.54676C5.88686 5.54676 5.77484 5.52125 5.6704 5.4717C5.56596 5.42216 5.47117 5.34956 5.3915 5.2581L1.46623 0.788658C1.38655 0.697192 1.29176 0.624593 1.18732 0.57505C1.08289 0.525507 0.970865 0.5 0.857725 0.5C0.744585 0.5 0.632564 0.525507 0.528125 0.57505C0.423686 0.624593 0.328896 0.697192 0.249222 0.788658C0.0895969 0.971497 0 1.21883 0 1.47664C0 1.73445 0.0895969 1.98178 0.249222 2.16462L4.18306 6.64382C4.66515 7.19206 5.31865 7.5 6 7.5C6.68135 7.5 7.33485 7.19206 7.81694 6.64382L11.7508 2.16462C11.9104 1.98178 12 1.73445 12 1.47664C12 1.21883 11.9104 0.971497 11.7508 0.788658Z" fill="#222221"/></svg>