<svg xmlns="http://www.w3.org/2000/svg"><symbol id="phone" viewBox="0 0 20 20" fill="none"><path fill-rule="evenodd" clip-rule="evenodd" d="M19.4971 16.3404C19.4977 18.1463 17.9852 19.59 16.182 19.4938C12.5074 19.2973 8.49757 17.4978 5.25019 14.2504C2.00054 11.0026 0.200337 6.99085 0.00453297 3.31491C-0.0915217 1.51245 1.35135 0 3.15689 0H5.19949C5.69536 0 5.9901 0.419726 6.10257 0.903078L6.99067 4.76128C7.04643 5.00356 7.03907 5.2561 6.96928 5.49472C6.89949 5.73334 6.76961 5.95005 6.59208 6.1241L5.65739 7.04052C5.33325 7.35825 5.1305 7.77937 5.08428 8.2309C5.03806 8.68242 5.15128 9.13589 5.40433 9.5127C5.98866 10.3827 6.68033 11.2269 7.47422 12.0222C8.24188 12.7919 9.08239 13.4854 9.98396 14.0927C10.3607 14.3457 10.8141 14.4588 11.2655 14.4126C11.717 14.3664 12.138 14.1637 12.4557 13.8397L13.3726 12.9046C13.5466 12.727 13.7633 12.5972 14.0019 12.5274C14.2406 12.4576 14.4931 12.4502 14.7354 12.506L18.5934 13.3941C19.0767 13.5066 19.4965 13.8011 19.4965 14.2972L19.4971 16.3404Z" fill="currentColor"/></symbol><symbol id="wa" viewBox="0 0 28 28" fill="none"><path fill-rule="evenodd" clip-rule="evenodd" d="M23.9216 4.06933C21.2887 1.44667 17.7882 0.00116667 14.0592 0C6.37488 0 0.120745 6.223 0.117228 13.874C0.116056 16.3193 0.758468 18.7063 1.97881 20.811L0 28L7.39008 26.0703C9.42633 27.1763 11.7193 27.7585 14.0522 27.7597H14.058C21.7412 27.7597 27.9965 21.5355 28 13.8845C28.0023 10.178 26.5534 6.69083 23.9216 4.06933ZM14.0592 25.4158H14.0545C11.9749 25.4158 9.93628 24.8593 8.15675 23.8082L7.73356 23.5585L3.34804 24.703L4.51915 20.447L4.24367 20.0107C3.08311 18.1743 2.47117 16.0522 2.47235 13.874C2.47469 7.51567 7.67377 2.34267 14.0651 2.34267C17.1599 2.34267 20.0695 3.54433 22.257 5.72367C24.4445 7.90417 25.6484 10.801 25.6472 13.8822C25.6437 20.2428 20.4458 25.4158 14.0592 25.4158ZM20.4153 16.779C20.0672 16.6052 18.3544 15.7663 18.0344 15.6508C17.7156 15.5353 17.4834 15.477 17.2502 15.8235C17.0169 16.17 16.351 16.9517 16.147 17.1838C15.9442 17.4148 15.7403 17.444 15.3921 17.2702C15.0439 17.0963 13.9209 16.7312 12.5903 15.5493C11.5552 14.63 10.8553 13.4948 10.6525 13.1472C10.4497 12.7995 10.6314 12.6128 10.8049 12.4402C10.962 12.285 11.1531 12.0353 11.3278 11.8323C11.5036 11.6317 11.5611 11.487 11.6783 11.2548C11.7943 11.0238 11.7369 10.8208 11.649 10.647C11.5611 10.4743 10.8647 8.7675 10.5752 8.07333C10.2927 7.39667 10.0054 7.48883 9.79091 7.47833C9.58811 7.46783 9.356 7.46667 9.12271 7.46667C8.8906 7.46667 8.51312 7.553 8.19426 7.90067C7.8754 8.24833 6.97509 9.08717 6.97509 10.7928C6.97509 12.4997 8.22357 14.1482 8.39707 14.3792C8.57057 14.6102 10.853 18.1125 14.3476 19.614C15.1787 19.971 15.8282 20.1845 16.3334 20.3443C17.1681 20.608 17.9277 20.5707 18.5279 20.482C19.1973 20.3828 20.5888 19.6432 20.8795 18.8335C21.1703 18.0238 21.1703 17.3285 21.0824 17.185C20.9956 17.0392 20.7635 16.9528 20.4153 16.779Z" fill="currentColor"/></symbol><symbol id="tg" viewBox="0 0 28 28" fill="none"><path fill-rule="evenodd" clip-rule="evenodd" d="M14 0C6.2685 0 0 6.2685 0 14C0 21.7315 6.2685 28 14 28C21.7315 28 28 21.7315 28 14C28 6.2685 21.7315 0 14 0ZM20.489 9.52117C20.279 11.7343 19.3667 17.1068 18.9035 19.586C18.7075 20.636 18.3202 20.9872 17.9468 21.021C17.1337 21.0957 16.5165 20.4832 15.729 19.9675C14.497 19.1602 13.8005 18.6573 12.6047 17.8687C11.2222 16.9575 12.1182 16.457 12.9057 15.6392C13.1122 15.4245 16.6938 12.166 16.7638 11.8708C16.772 11.8335 16.7813 11.6958 16.6985 11.6235C16.6157 11.5512 16.4955 11.5757 16.4092 11.5955C16.2855 11.6235 14.3173 12.9243 10.5035 15.498C9.94467 15.8818 9.43833 16.0685 8.9845 16.0592C8.48517 16.0487 7.52383 15.7768 6.80867 15.5435C5.9325 15.2588 5.23483 15.1072 5.2955 14.6242C5.327 14.3722 5.6735 14.1143 6.33617 13.8507C10.4172 12.0727 13.139 10.9002 14.5005 10.3332C18.389 8.71617 19.1963 8.435 19.7237 8.42567C20.384 8.41633 20.5427 8.96117 20.489 9.52117Z" fill="currentColor"/></symbol><symbol id="location" viewBox="0 0 12 18" fill="none"><path d="M6.50307 17.2754C6.72754 17.0222 12 11.0294 12 6.90989C12 -1.58472 0 -1.68838 0 6.90989C0 11.0294 5.27246 17.0222 5.49693 17.2754C5.76274 17.575 6.23779 17.5747 6.50307 17.2754ZM3.99993 6.38698C3.99993 5.30551 4.89716 4.42579 6 4.42579C7.10266 4.42579 7.9999 5.30555 7.9999 6.38698C7.9999 7.46829 7.10266 8.348 6 8.348C4.89716 8.348 3.99993 7.46829 3.99993 6.38698Z" fill="currentColor"/></symbol><symbol id="hamburger" viewBox="0 0 22 17" fill="none"><path d="M1 1H21" stroke="currentColor" stroke-width="2" stroke-linecap="round"/><path d="M1 8.5H21" stroke="currentColor" stroke-width="2" stroke-linecap="round"/><path d="M1 16H21" stroke="currentColor" stroke-width="2" stroke-linecap="round"/></symbol><symbol id="search" viewBox="0 0 24 24" fill="none"><path d="M23.7195 22.3067L17.7554 16.3426C19.3807 14.3548 20.1798 11.8184 19.9874 9.25796C19.7951 6.69754 18.6259 4.309 16.7219 2.5864C14.8178 0.863809 12.3245 -0.0610491 9.75763 0.00313002C7.19079 0.0673091 4.74681 1.11562 2.93121 2.93121C1.11562 4.74681 0.0673091 7.19079 0.00313002 9.75763C-0.0610491 12.3245 0.863809 14.8178 2.5864 16.7219C4.309 18.6259 6.69754 19.7951 9.25796 19.9874C11.8184 20.1798 14.3548 19.3807 16.3426 17.7554L22.3067 23.7195C22.4951 23.9015 22.7475 24.0022 23.0095 24C23.2715 23.9977 23.5221 23.8926 23.7073 23.7073C23.8926 23.5221 23.9977 23.2715 24 23.0095C24.0022 22.7475 23.9015 22.4951 23.7195 22.3067ZM10.0238 18.0172C8.44282 18.0172 6.89737 17.5484 5.58286 16.6701C4.26835 15.7917 3.24381 14.5433 2.6388 13.0827C2.0338 11.6221 1.8755 10.0149 2.18393 8.46433C2.49236 6.91376 3.25366 5.48946 4.37156 4.37156C5.48946 3.25366 6.91376 2.49236 8.46433 2.18393C10.0149 1.8755 11.6221 2.0338 13.0827 2.6388C14.5433 3.24381 15.7917 4.26835 16.6701 5.58286C17.5484 6.89737 18.0172 8.44282 18.0172 10.0238C18.0148 12.143 17.1719 14.1748 15.6734 15.6734C14.1748 17.1719 12.143 18.0148 10.0238 18.0172Z" fill="currentColor"/></symbol><symbol id="chevron-left" viewBox="0 0 7 12" fill="none"><path d="M6.71134 0.249224C6.80281 0.328897 6.87541 0.423687 6.92495 0.528126C6.97449 0.632565 7 0.744586 7 0.857726C7 0.970866 6.97449 1.08289 6.92495 1.18733C6.87541 1.29176 6.80281 1.38655 6.71134 1.46623L2.2419 5.3915C2.15044 5.47117 2.07784 5.56596 2.0283 5.6704C1.97875 5.77484 1.95324 5.88686 1.95324 6C1.95324 6.11314 1.97875 6.22516 2.0283 6.3296C2.07784 6.43404 2.15044 6.52883 2.2419 6.6085L6.71134 10.5338C6.80281 10.6134 6.87541 10.7082 6.92495 10.8127C6.97449 10.9171 7 11.0291 7 11.1423C7 11.2554 6.97449 11.3674 6.92495 11.4719C6.87541 11.5763 6.80281 11.6711 6.71134 11.7508C6.5285 11.9104 6.28117 12 6.02336 12C5.76555 12 5.51822 11.9104 5.33538 11.7508L0.856181 7.81694C0.307941 7.33485 -2.44352e-07 6.68135 -2.14569e-07 6C-1.84786e-07 5.31865 0.307941 4.66515 0.856181 4.18306L5.33538 0.249224C5.51822 0.0895986 5.76555 -5.39594e-08 6.02336 -4.26903e-08C6.28117 -3.14211e-08 6.5285 0.0895986 6.71134 0.249224Z" fill="currentColor"/></symbol><symbol id="chevron-right" viewBox="0 0 7 12" fill="none"><path d="M0.288657 0.249224C0.197191 0.328897 0.124593 0.423687 0.0750497 0.528126C0.0255065 0.632565 -4.9199e-07 0.744586 -4.87044e-07 0.857726C-4.82099e-07 0.970866 0.0255066 1.08289 0.0750497 1.18733C0.124593 1.29176 0.197191 1.38655 0.288657 1.46623L4.7581 5.3915C4.84956 5.47117 4.92216 5.56596 4.9717 5.6704C5.02125 5.77484 5.04676 5.88686 5.04676 6C5.04676 6.11314 5.02125 6.22516 4.9717 6.3296C4.92216 6.43404 4.84956 6.52883 4.7581 6.6085L0.288658 10.5338C0.197192 10.6134 0.124593 10.7082 0.0750501 10.8127C0.025507 10.9171 -4.24379e-08 11.0291 -3.74923e-08 11.1423C-3.25468e-08 11.2554 0.025507 11.3674 0.0750502 11.4719C0.124593 11.5763 0.197192 11.6711 0.288658 11.7508C0.471497 11.9104 0.718831 12 0.976639 12C1.23445 12 1.48178 11.9104 1.66462 11.7508L6.14382 7.81694C6.69206 7.33485 7 6.68135 7 6C7 5.31865 6.69206 4.66515 6.14382 4.18306L1.66462 0.249224C1.48178 0.0895986 1.23445 -5.39594e-08 0.976639 -4.26903e-08C0.71883 -3.14211e-08 0.471497 0.0895986 0.288657 0.249224Z" fill="currentColor"/></symbol><symbol id="clock" viewBox="0 0 18 18" fill="none"><path d="M9 0C4.03725 0 0 4.03725 0 9C0 13.9628 4.03725 18 9 18C13.9628 18 18 13.9628 18 9C18 4.03725 13.9628 0 9 0ZM12 9.75H9C8.586 9.75 8.25 9.41475 8.25 9V4.5C8.25 4.08525 8.586 3.75 9 3.75C9.414 3.75 9.75 4.08525 9.75 4.5V8.25H12C12.4148 8.25 12.75 8.58525 12.75 9C12.75 9.41475 12.4148 9.75 12 9.75Z" fill="currentColor"/></symbol><symbol id="mail" viewBox="0 0 17 14" fill="none"><path d="M1.4178 14.0001H15.5795C16.3617 14.0001 16.9973 13.2623 16.9973 12.3539V4.13449L9.95717 9.58681C9.52535 9.92143 9.01782 10.1 8.49866 10.1C7.97949 10.1 7.47197 9.92143 7.04015 9.58681L0 4.13428V12.3539C0 13.2623 0.635621 14.0001 1.4178 14.0001Z" fill="currentColor"/><path d="M15.5795 0H1.4178C0.635621 0 0 0.737794 0 1.64617V2.44712L7.71371 8.41679C7.946 8.59871 8.21981 8.6959 8.5 8.6959C8.78019 8.6959 9.054 8.59871 9.28629 8.41679L17 2.44712V1.64928C16.9973 0.74091 16.3617 0 15.5795 0Z" fill="currentColor"/></symbol><symbol id="close" viewBox="0 0 22 22" fill="none"><path d="M1 1L21 21M21 1L1 21" stroke="currentColor" stroke-width="2" stroke-linecap="round"/></symbol><symbol id="close-thick" viewBox="0 0 24 24" fill="none"><path d="M2 2L22 22M22 2L2 22" stroke="currentColor" stroke-width="3" stroke-linecap="round"/></symbol><symbol id="check" viewBox="0 0 21 16" fill="none"><path d="M1 7L6.75977 14.0889C7.14802 14.5668 7.87175 14.5836 8.28182 14.1244L20 1" stroke="currentColor" stroke-width="2" stroke-linecap="round"/></symbol><symbol id="arrow-left" viewBox="0 0 32 8" fill="none"><path d="M0.646446 3.64645C0.451185 3.84171 0.451185 4.15829 0.646446 4.35356L3.82843 7.53554C4.02369 7.7308 4.34027 7.7308 4.53553 7.53554C4.7308 7.34027 4.7308 7.02369 4.53553 6.82843L1.70711 4L4.53553 1.17158C4.7308 0.976313 4.7308 0.659731 4.53553 0.464468C4.34027 0.269206 4.02369 0.269206 3.82843 0.464469L0.646446 3.64645ZM32 3.5L1 3.5L1 4.5L32 4.5L32 3.5Z" fill="currentColor"/></symbol><symbol id="sliders" viewBox="0 0 32 32" fill="none"><path d="M3 7H5.142C5.589 8.72 7.142 10 9 10C10.858 10 12.411 8.72 12.858 7H29C29.2652 7 29.5196 6.89464 29.7071 6.70711C29.8946 6.51957 30 6.26522 30 6C30 5.73478 29.8946 5.48043 29.7071 5.29289C29.5196 5.10536 29.2652 5 29 5H12.858C12.411 3.28 10.858 2 9 2C7.142 2 5.589 3.28 5.142 5H3C2.73478 5 2.48043 5.10536 2.29289 5.29289C2.10536 5.48043 2 5.73478 2 6C2 6.26522 2.10536 6.51957 2.29289 6.70711C2.48043 6.89464 2.73478 7 3 7ZM9 4C10.103 4 11 4.897 11 6C11 7.103 10.103 8 9 8C7.897 8 7 7.103 7 6C7 4.897 7.897 4 9 4ZM29 15H26.858C26.411 13.28 24.859 12 23 12C21.141 12 19.589 13.28 19.142 15H3C2.73478 15 2.48043 15.1054 2.29289 15.2929C2.10536 15.4804 2 15.7348 2 16C2 16.2652 2.10536 16.5196 2.29289 16.7071C2.48043 16.8946 2.73478 17 3 17H19.142C19.589 18.72 21.141 20 23 20C24.859 20 26.411 18.72 26.858 17H29C29.2652 17 29.5196 16.8946 29.7071 16.7071C29.8946 16.5196 30 16.2652 30 16C30 15.7348 29.8946 15.4804 29.7071 15.2929C29.5196 15.1054 29.2652 15 29 15ZM23 18C21.897 18 21 17.103 21 16C21 14.897 21.897 14 23 14C24.103 14 25 14.897 25 16C25 17.103 24.103 18 23 18ZM29 25H12.858C12.411 23.28 10.858 22 9 22C7.142 22 5.589 23.28 5.142 25H3C2.73478 25 2.48043 25.1054 2.29289 25.2929C2.10536 25.4804 2 25.7348 2 26C2 26.2652 2.10536 26.5196 2.29289 26.7071C2.48043 26.8946 2.73478 27 3 27H5.142C5.589 28.72 7.142 30 9 30C10.858 30 12.411 28.72 12.858 27H29C29.2652 27 29.5196 26.8946 29.7071 26.7071C29.8946 26.5196 30 26.2652 30 26C30 25.7348 29.8946 25.4804 29.7071 25.2929C29.5196 25.1054 29.2652 25 29 25ZM9 28C7.897 28 7 27.103 7 26C7 24.897 7.897 24 9 24C10.103 24 11 24.897 11 26C11 27.103 10.103 28 9 28Z" fill="currentColor"/></symbol><symbol id="hamburger-alt" viewBox="0 0 32 26" fill="none"><path d="M2 2H30" stroke="currentColor" stroke-width="3" stroke-linecap="round"/><path d="M2 13H22" stroke="currentColor" stroke-width="3" stroke-linecap="round"/><path d="M2 24H30" stroke="currentColor" stroke-width="3" stroke-linecap="round"/></symbol><symbol id="" viewBox="" fill="none"/><symbol id="" viewBox="" fill="none"/><symbol id="" viewBox="" fill="none"/></svg>