<svg width="19" height="19" viewBox="0 0 19 19" fill="none" xmlns="http://www.w3.org/2000/svg"><path fill-rule="evenodd" clip-rule="evenodd" d="M16.2325 2.76133C14.4459 0.981667 12.0706 0.000791667 9.54017 0C4.32581 0 0.0819343 4.22275 0.0795478 9.4145C0.0787524 11.0738 0.514674 12.6936 1.34277 14.1217L0 19L5.0147 17.6906C6.39644 18.4411 7.9524 18.8361 9.5354 18.8369H9.53938C14.7529 18.8369 18.9976 14.6134 19 9.42163C19.0016 6.9065 18.0184 4.54021 16.2325 2.76133ZM9.54017 17.2465H9.53699C8.12581 17.2465 6.74247 16.8688 5.53494 16.1555L5.24777 15.9861L2.27189 16.7628L3.06657 13.8747L2.87963 13.5787C2.09211 12.3326 1.67687 10.8925 1.67766 9.4145C1.67925 5.09992 5.2072 1.58967 9.54415 1.58967C11.6442 1.58967 13.6186 2.40508 15.103 3.88392C16.5873 5.36354 17.4043 7.32925 17.4035 9.42004C17.4011 13.7362 13.8739 17.2465 9.54017 17.2465ZM13.8533 11.3857C13.617 11.2678 12.4548 10.6986 12.2376 10.6202C12.0213 10.5418 11.8638 10.5022 11.7055 10.7374C11.5472 10.9725 11.0953 11.5029 10.9569 11.6605C10.8193 11.8172 10.6809 11.837 10.4446 11.719C10.2084 11.6011 9.4463 11.3533 8.54344 10.5513C7.84103 9.9275 7.36613 9.15721 7.22851 8.92129C7.09089 8.68538 7.21419 8.55871 7.33192 8.44154C7.43852 8.33625 7.56818 8.16683 7.68671 8.02908C7.80603 7.89292 7.84501 7.79475 7.92455 7.63721C8.00331 7.48046 7.96433 7.34271 7.90467 7.22475C7.84501 7.10758 7.37249 5.94938 7.17601 5.47833C6.9843 5.01917 6.78941 5.08171 6.64383 5.07458C6.50622 5.06746 6.34871 5.06667 6.19041 5.06667C6.03291 5.06667 5.77676 5.12525 5.56039 5.36117C5.34402 5.59708 4.7331 6.16629 4.7331 7.32371C4.7331 8.48192 5.58028 9.60054 5.69801 9.75729C5.81574 9.91404 7.36454 12.2906 9.73586 13.3095C10.2999 13.5518 10.7405 13.6966 11.0834 13.8051C11.6498 13.984 12.1652 13.9587 12.5725 13.8985C13.0268 13.8312 13.971 13.3293 14.1683 12.7799C14.3655 12.2305 14.3655 11.7586 14.3059 11.6613C14.247 11.5623 14.0895 11.5037 13.8533 11.3857Z" fill="#011830"/></svg>