<svg width="28" height="28" viewBox="0 0 28 28" fill="none" xmlns="http://www.w3.org/2000/svg"><g clip-path="url(#clip0_166_2572)"><path d="M26.0905 22.9091H21.636C18.829 22.9091 16.5452 20.6254 16.5452 17.8183C16.5452 15.0113 18.829 12.7275 21.636 12.7275H26.0905C26.1741 12.7276 26.2569 12.7112 26.3341 12.6792C26.4114 12.6472 26.4815 12.6004 26.5406 12.5413C26.5997 12.4821 26.6466 12.412 26.6786 12.3347C26.7105 12.2575 26.727 12.1747 26.7269 12.0911V10.1821C26.7269 8.84765 25.6918 7.76241 24.3841 7.65718L20.7294 1.27376C20.3907 0.68338 19.8438 0.261418 19.1895 0.0862021C18.5382 -0.0878206 17.8571 0.00357562 17.2742 0.342851L4.7458 7.63665H2.54543C1.14162 7.63665 0 8.77821 0 10.1821V25.4546C0 26.8584 1.14156 28 2.54543 28H24.1815C25.5853 28 26.7269 26.8584 26.7269 25.4546V23.5455C26.727 23.4619 26.7105 23.3791 26.6786 23.3019C26.6466 23.2247 26.5997 23.1545 26.5406 23.0954C26.4815 23.0363 26.4114 22.9894 26.3341 22.9575C26.2569 22.9255 26.1741 22.9091 26.0905 22.9091ZM21.5186 5.21477L22.9052 7.63665H17.3587L21.5186 5.21477ZM7.27531 7.63665L17.9149 1.44277C18.2026 1.27435 18.5388 1.22961 18.8601 1.3154C19.1851 1.40238 19.4561 1.61244 19.6245 1.90637L19.6258 1.9087L9.78757 7.63665H7.27531Z" fill="#011830"/><path d="M26.09 14.0002H21.6355C19.53 14.0002 17.8174 15.7128 17.8174 17.8183C17.8174 19.9238 19.53 21.6364 21.6355 21.6364H26.09C27.1427 21.6364 27.9991 20.7801 27.9991 19.7274V15.9092C27.9991 14.8565 27.1427 14.0002 26.09 14.0002ZM21.6355 19.091C20.9339 19.091 20.3628 18.5199 20.3628 17.8183C20.3628 17.1167 20.9339 16.5456 21.6355 16.5456C22.3371 16.5456 22.9082 17.1167 22.9082 17.8183C22.9082 18.5199 22.3371 19.091 21.6355 19.091Z" fill="#011830"/></g><defs><clipPath id="clip0_166_2572"><rect width="28" height="28" fill="white"/></clipPath></defs></svg>