<svg width="257" height="66" viewBox="0 0 257 66" fill="none" xmlns="http://www.w3.org/2000/svg">
<path d="M130.089 25.4077L124.96 36.7756H135.226L130.089 25.4077ZM123.547 40.253L120.384 46.9071H116.1C120.427 37.66 124.754 28.4042 129.089 19.1571H131.003L143.69 45.9798L144.147 46.9157L139.786 46.8985L136.622 40.2444H123.547V40.253ZM16.8395 19.6808V22.8834H4.28973V46.9672H0.376556V19.3202H16.8395V19.6808ZM20.9078 19.3202H36.9829V22.8319H24.5021V30.9371H36.5519V34.4488H24.5021V43.2838H37.4052V46.9501H20.5544V19.3202H20.9078ZM93.5688 19.6808V22.8834H81.019V46.9672H77.1058V19.3202H93.5688V19.6808ZM101.154 22.8577V34.7751H108.446C110.161 34.7751 111.669 34.1483 112.738 33.0836C113.79 32.0361 114.428 30.5507 114.428 28.7992C114.428 27.0734 113.807 25.5794 112.747 24.5319C111.695 23.4844 110.195 22.8662 108.446 22.8662C106.799 22.8405 105.11 22.8491 103.403 22.8577H101.154ZM101.197 38.364V46.9415H97.2837V19.3116H97.6371C99.2403 19.3116 100.223 19.3116 101.214 19.303C103.636 19.2945 106.075 19.2859 108.454 19.3116C111.385 19.3116 113.79 20.3162 115.488 21.9733C117.272 23.7077 118.272 26.1461 118.272 28.8765C118.272 31.5725 117.263 33.9852 115.479 35.711C113.772 37.3595 111.35 38.3726 108.454 38.3726H101.197V38.364ZM196.458 33.573L196.484 27.4254L179.59 46.8985H178.03V19.2687H181.986C181.986 26.0087 181.986 32.225 181.684 38.9221L198.733 19.2344H200.371V46.8642L196.458 46.9071V33.573ZM209.421 31.3922H214.481L222.23 19.2773H226.341L217.635 33.0579L226.617 46.9157H222.342L214.438 34.8008H209.421V46.9157H205.663V19.2687H209.421V31.3922ZM156.861 40.3646V25.6911C156.292 25.6911 155.904 25.6911 155.861 25.6911C153.43 25.8799 151.155 26.5067 149.594 27.8891C148.327 29.0224 147.534 30.671 147.534 33.0407C147.534 35.4705 148.379 37.1448 149.698 38.2696C151.042 39.4115 152.896 40.0211 154.887 40.3045C155.016 40.3302 155.826 40.3474 156.861 40.3646ZM156.861 46.2889V43.8934C153.163 43.7818 149.646 42.906 147.155 40.9398C144.966 39.2055 143.578 36.6468 143.578 33.0493C143.578 29.4517 144.957 26.8931 147.138 25.1587C149.62 23.1839 153.146 22.2996 156.826 22.1622V19.2687H160.584V22.1622C164.325 22.291 167.842 23.1324 170.315 25.0986C172.479 26.8158 173.832 29.383 173.832 33.0493C173.832 36.7069 172.462 39.257 170.298 40.9742C167.807 42.949 164.282 43.7818 160.584 43.8934V46.9071H160.231H156.861V46.2889ZM160.567 25.7082V40.4161C161.222 40.4247 161.687 40.4161 161.774 40.4075C163.954 40.1929 165.997 39.6434 167.488 38.5014C168.953 37.3766 169.884 35.6423 169.884 33.0493C169.884 30.7311 169.117 29.0911 167.902 27.9664C166.411 26.5926 164.221 25.94 161.886 25.7254C161.834 25.7168 161.291 25.7082 160.567 25.7082ZM49.5498 40.0727C49.274 39.3257 49.0844 38.5959 48.9896 37.8403C48.8948 37.0847 48.8862 36.312 48.9551 35.4791C49.0413 34.4746 49.3257 33.3927 49.7912 32.371C50.2308 31.4093 50.8255 30.4992 51.5668 29.7437C53.3337 27.9492 55.5317 27.2022 57.6003 27.2709C58.5484 27.3052 59.4707 27.5027 60.3154 27.8461C61.1601 28.1982 61.9272 28.6876 62.565 29.3144C63.7459 30.4649 64.4785 32.0447 64.4182 33.9165C64.4182 34.0538 64.4009 34.1912 64.3923 34.32C64.3751 34.4488 64.3579 34.5862 64.332 34.7236L64.2803 35.0327L60.4964 34.7922L60.6257 34.3629C60.7981 33.822 60.755 33.0922 60.3671 32.4397C60.0568 31.9245 59.5138 31.4609 58.6605 31.1861C57.833 30.9199 56.9969 30.9199 56.204 31.1432C55.4024 31.375 54.6611 31.8386 54.0491 32.4998C53.2993 33.324 52.8424 34.3887 52.6787 35.5049C52.4977 36.6726 52.6356 37.8918 53.0838 38.9479C53.3682 39.6176 53.7388 40.2186 54.1698 40.7424C55.2472 42.0389 56.7556 42.8803 58.4019 43.2323C60.0568 43.5843 61.8496 43.4384 63.5218 42.7429C64.3061 42.4166 65.0646 41.9616 65.7542 41.3949C66.8747 40.4676 67.7366 39.2741 68.3227 37.9519C68.9347 36.561 69.245 35.0327 69.2364 33.5215C69.2364 32.8003 69.1933 32.5513 69.133 32.122C69.1157 32.0018 69.0985 31.8644 69.0554 31.5897C69.0382 31.4694 69.0037 31.3407 68.9778 31.2033L68.9347 31.0058C68.5727 29.3573 67.6677 27.5972 66.2455 26.0946C65.0043 24.7809 63.3666 23.6647 61.3325 22.9779C60.2809 22.6258 59.169 22.4198 58.0744 22.3511C56.9107 22.2824 55.7816 22.3597 54.7559 22.5657L54.1353 22.7203C53.6268 22.8405 53.1269 23.0036 52.6442 23.1925C52.1529 23.39 51.6702 23.6132 51.2048 23.8622C49.4895 24.7895 47.9811 26.1118 46.7917 27.7431C45.6367 29.3229 44.7834 31.2033 44.3351 33.2897C44.0766 34.4831 43.9645 35.7109 43.9904 36.913C44.0162 38.1236 44.1886 39.3171 44.4989 40.459C44.5679 40.708 44.7058 41.1545 44.8609 41.6267C44.9816 41.9788 45.1195 42.3565 45.2488 42.6656L45.3867 42.9833L41.9993 44.4429L41.8528 44.1253C41.7235 43.8247 41.6201 43.5672 41.5166 43.2924L41.3701 42.906C40.9564 41.8414 40.6547 40.5621 40.4737 39.2484C40.2841 37.8746 40.2323 36.4665 40.3185 35.2387C40.3961 34.1826 40.5513 33.1094 40.8098 32.0447C41.0512 31.0316 41.3701 30.0356 41.7838 29.0911C41.9045 28.8078 42.0338 28.533 42.1631 28.2583C42.2924 27.9921 42.4389 27.7174 42.5854 27.4512C42.7751 27.1678 42.9302 26.8244 43.1284 26.5411C43.5853 25.8198 44.0852 25.133 44.6282 24.489C45.1712 23.8536 45.766 23.2526 46.4038 22.6945C46.8865 22.2738 47.3778 21.8874 47.8777 21.5354C48.3862 21.1834 48.912 20.8571 49.4636 20.5566C49.7395 20.4021 50.0584 20.2561 50.3687 20.1101C50.7221 19.947 51.0668 19.801 51.3858 19.6808C51.7305 19.552 52.1529 19.3975 52.5839 19.2687C52.989 19.1399 53.3941 19.0369 53.7302 18.9596C54.5577 18.7793 55.2817 18.6849 56.023 18.6333C56.747 18.5904 57.471 18.5904 58.3157 18.599L59.0483 18.6677C59.8844 18.7192 60.7636 18.8995 61.6169 19.1399C62.6167 19.4233 63.5993 19.8096 64.4871 20.2132C65.849 20.8399 67.116 21.7243 68.2107 22.746C69.3743 23.8279 70.3569 25.0814 71.0637 26.3436C71.2447 26.6699 71.4085 26.9704 71.555 27.2795C71.7101 27.5971 71.8481 27.9148 71.9773 28.2669L72.3135 29.2628C72.3997 29.5032 72.4686 29.7265 72.5204 29.9411C72.5721 30.1558 72.6238 30.3876 72.6669 30.6366C72.6927 30.7997 72.7272 30.9543 72.7531 31.1003C72.822 31.478 72.891 31.8215 72.9168 32.3796C72.9772 33.4442 72.9686 34.4145 72.8479 35.3761C72.7272 36.3463 72.5117 37.3079 72.1411 38.364C71.9946 38.7762 71.8222 39.2055 71.6326 39.6262C71.4429 40.0383 71.2275 40.4504 71.0034 40.8282C70.5207 41.6525 69.9001 42.4682 69.2105 43.198C68.5382 43.9106 67.7797 44.5546 67.004 45.0525C66.6506 45.2758 66.1076 45.6021 65.7369 45.7824C65.5387 45.894 65.237 46.0314 64.9353 46.1601C64.6337 46.2889 64.3148 46.4006 64.0993 46.4692C63.3666 46.6925 62.8064 46.847 62.2289 46.9415C61.6514 47.0445 61.0653 47.0874 60.2637 47.096C59.1087 47.1046 57.8847 46.9415 56.7211 46.598C55.6265 46.2803 54.5835 45.7995 53.6785 45.1556C53.6354 45.1212 53.5751 45.0955 53.5234 45.0611C53.4372 45.0096 53.3424 44.9581 53.2562 44.8894C52.8941 44.6061 52.5925 44.3571 52.308 44.0995C52.0236 43.8419 51.7392 43.5586 51.4289 43.1894C51.1703 42.8889 50.8772 42.5025 50.6186 42.1075C50.3687 41.7383 50.136 41.3434 49.9722 40.9999C49.886 40.8282 49.817 40.6737 49.7567 40.5191C49.6705 40.3903 49.6102 40.2358 49.5498 40.0727ZM248.846 39.9267C247.967 37.9691 247.088 36.0029 246.217 34.0367C244.924 31.1174 243.623 28.1896 242.33 25.3648C241.02 28.2325 239.71 31.1861 238.408 34.1225C237.417 36.3549 236.426 38.5787 235.426 40.8025C238.744 42.1676 241.149 41.4979 242.821 40.7681C244.847 39.9267 246.976 39.7721 248.846 39.9267ZM232.4 46.8728L228.341 46.8814C232.668 37.6256 236.994 28.3699 241.33 19.1227H243.243C247.613 28.3871 252.001 37.6428 256.379 46.8985L252.027 46.8728L251.932 46.6753C251.544 45.8596 251.165 45.0354 250.785 44.2197C250.148 43.9364 249.234 43.6444 247.967 43.5328C246.769 43.4298 245.407 43.6101 244.373 44.0566C241.933 45.1212 238.632 46.4263 233.831 44.2712C233.461 45.0697 233.09 45.8682 232.711 46.6753L232.616 46.8814L232.4 46.8728Z" fill="white"/>
<path d="M255.216 54.8921H249.363V64.912H255.371V63.813H250.57V60.2584H255.052V59.2109H250.57V55.9311H255.216V54.8921ZM241.201 60.6448V55.9482C242.166 55.9482 243.123 55.9311 244.045 55.9482C245.424 55.9482 246.398 56.9356 246.398 58.2922C246.398 59.6746 245.381 60.6448 244.045 60.6448H241.201ZM241.218 64.912V61.718H244.045C246.174 61.718 247.57 60.2155 247.57 58.318C247.57 56.4033 246.209 54.8921 244.045 54.8921C242.726 54.875 241.347 54.8921 240.02 54.8921V64.912H241.218ZM228.97 59.8978C228.97 57.4336 230.677 55.8023 232.866 55.8023C235.09 55.8023 236.762 57.4594 236.762 59.8978C236.762 62.3276 235.064 63.9676 232.849 63.9676C230.651 63.9676 228.97 62.3362 228.97 59.8978ZM237.968 59.8978C237.968 56.721 235.684 54.7118 232.866 54.7118C230.047 54.7118 227.763 56.6866 227.763 59.8978C227.763 63.0918 230.021 65.0666 232.849 65.0666C235.883 65.0666 237.968 62.9373 237.968 59.8978ZM221.109 60.4816L216.972 54.8921H216.498V64.912H217.704V57.6912L221.014 62.2074H221.204L224.514 57.6912V64.912H225.72V54.8921H225.264L221.109 60.4816ZM210.447 54.8921H204.594V64.912H210.602V63.813H205.801V60.2584H210.283V59.2109H205.801V55.9311H210.447V54.8921ZM193.544 59.8978C193.544 57.4336 195.251 55.8023 197.44 55.8023C199.664 55.8023 201.336 57.4594 201.336 59.8978C201.336 62.3276 199.638 63.9676 197.423 63.9676C195.225 63.9676 193.544 62.3362 193.544 59.8978ZM202.543 59.8978C202.543 56.721 200.259 54.7118 197.44 54.7118C194.622 54.7118 192.338 56.6866 192.338 59.8978C192.338 63.0918 194.596 65.0666 197.423 65.0666C200.457 65.0666 202.543 62.9373 202.543 59.8978ZM185.218 55.9654H189.088V64.912H190.278V54.8921C188.425 54.8921 186.054 54.8921 184.167 54.8921L183.331 62.4049C183.184 63.5898 182.839 64.208 181.495 63.9933L181.477 64.8777C183.615 65.204 184.322 64.4742 184.529 62.4736L185.218 55.9654ZM180.236 54.8921H174.384V64.912H180.391V63.813H175.59V60.2584H180.072V59.2109H175.59V55.9311H180.236V54.8921ZM166.135 55.9482H171.625V54.8921H164.954C164.954 58.2407 164.954 61.5635 164.954 64.912C166.273 64.912 167.652 64.912 168.979 64.912C171.307 64.8949 172.487 63.5812 172.487 61.8468C172.487 60.0867 171.324 58.8503 168.979 58.8503H166.135V55.9482ZM168.962 59.8892C170.514 59.8892 171.289 60.765 171.289 61.864C171.289 63.066 170.514 63.856 168.962 63.856C168.057 63.856 167.066 63.856 166.135 63.856V59.8892H168.962Z" fill="white"/>
<path d="M62.1685 6.7245V2.08804C63.1166 2.08804 64.0733 2.08804 64.9784 2.08804C66.3402 2.09663 67.3056 3.05826 67.3056 4.39768C67.3056 5.76286 66.2971 6.7245 64.9784 6.7245H62.1685ZM62.1771 10.9317V7.78058H64.9697C67.0728 7.78058 68.4433 6.2952 68.4433 4.42344C68.4433 2.53451 67.0901 1.04054 64.9697 1.04054C63.6682 1.04054 62.3064 1.04054 60.9962 1.04054V10.9317H62.1771ZM54.6783 2.8522L56.7641 7.47148H52.5924L54.6783 2.8522ZM57.1606 8.48463L58.3242 10.9317H59.5482V10.7771L54.9627 0.997614H54.4197L49.7911 10.7771V10.9317H51.0237L52.1873 8.48463H57.1606ZM40.7322 1.04054V10.9317C41.1287 10.9317 41.5252 10.9317 41.9216 10.9317V2.13097H47.1536V10.9317C47.5501 10.9317 47.9466 10.9317 48.343 10.9317V1.04054H40.7322ZM30.2597 5.9861C30.2597 3.55625 31.9491 1.94208 34.1039 1.94208C36.3018 1.94208 37.9481 3.58201 37.9481 5.9861C37.9481 8.39019 36.276 9.99578 34.0867 9.99578C31.9232 9.99578 30.2597 8.39019 30.2597 5.9861ZM39.1376 5.9861C39.1376 2.8522 36.8793 0.868824 34.1039 0.868824C31.3285 0.868824 29.0702 2.81785 29.0702 5.9861C29.0702 9.13717 31.294 11.0862 34.0953 11.0862C37.0862 11.0862 39.1376 8.98262 39.1376 5.9861ZM27.0447 10.9317V1.04054H25.8552V5.20477H20.606V1.04054H19.4252V10.9317H20.606V6.2952H25.8552V10.9317H27.0447ZM13.633 2.10521V10.9402H14.7794V2.10521H17.8392V1.04054H10.5645V2.09663H13.633V2.10521ZM5.02229 1.98501C7.13403 1.96784 8.65103 3.42746 8.7717 5.48811H4.42756V6.49267H8.75446C8.59932 8.54474 7.09093 9.98719 4.9792 9.98719C3.47943 9.98719 2.15206 9.20586 1.64352 7.79775H0.479908C1.04878 10.0044 2.98813 11.0604 4.9792 11.0604C7.76324 11.0604 10.0043 9.09424 10.0043 5.9861C10.0043 2.89513 7.80634 0.885996 5.02229 0.903168C3.09156 0.928926 1.19531 1.95066 0.58334 4.02848H1.74695C2.33306 2.69765 3.58287 1.98501 5.02229 1.98501ZM73.7701 5.51387H71.7187V1.07489H70.5982V10.9317H71.7187V6.49267H73.7528L76.6489 10.9317H77.9074L74.701 5.9861L77.8039 1.07489H76.6058L73.7701 5.51387Z" fill="white"/>
</svg>
