<svg width="754" height="413" viewBox="0 0 754 413" fill="none" xmlns="http://www.w3.org/2000/svg"><g clip-path="url(#clip0_55_86)"><mask id="mask0_55_86" style="mask-type:luminance" maskUnits="userSpaceOnUse" x="-33" y="0" width="1327" height="204"><path d="M-32.2465 17.136C25.8381 25.0059 79.4153 52.9099 141.344 113.31C165.055 136.446 192.119 154.542 221.284 168.237C283.118 197.265 354.403 206.408 423.245 201.491C492.106 196.561 558.542 177.543 610.642 150.208C640.205 134.698 665.147 116.533 683.309 96.7434C732.133 43.5228 776.354 6.0963 826.485 0.678062C876.634 -4.74017 932.541 21.8634 1004.66 96.7298C1036.82 130.12 1075.72 151.034 1117.29 162.318C1161.7 174.373 1209.2 175.416 1254.78 168.914C1267.81 167.059 1280.69 164.58 1293.28 161.573V162.561C1280.76 165.541 1267.98 167.993 1255.05 169.835C1209.23 176.364 1161.49 175.308 1116.83 163.198C1075.03 151.86 1035.93 130.824 1003.6 97.2717C931.821 22.7574 876.331 -3.75135 826.712 1.6127C777.055 6.97676 733.08 44.2542 684.446 97.2581C666.208 117.143 641.152 135.402 611.456 150.966C559.167 178.383 492.522 197.482 423.415 202.426C354.29 207.37 282.721 198.173 220.602 169.036C191.323 155.287 164.146 137.109 140.322 113.879C78.7903 53.8716 25.5162 26.076 -32.2086 18.179V17.136H-32.2465Z" fill="white"/></mask><g mask="url(#mask0_55_86)"><path d="M1293.24 -4.75391H-32.2465V207.356H1293.24V-4.75391Z" fill="white" fill-opacity="0.3"/></g><mask id="mask1_55_86" style="mask-type:luminance" maskUnits="userSpaceOnUse" x="-33" y="3" width="1327" height="216"><path d="M-32.2465 41.098C28.1107 46.5569 84.3015 72.9573 150.946 133.574C175.737 156.127 203.633 173.574 233.424 186.551C296.584 214.075 368.247 221.512 436.824 214.929C505.419 208.345 570.909 187.743 621.702 159.175C650.508 142.974 674.598 124.2 691.813 103.99C738.118 49.6318 780.54 11.1623 830.405 4.55203C880.27 -2.07176 937.408 23.1772 1012.97 96.2692C1046.68 128.873 1086.53 148.84 1128.61 159.107C1173.57 170.079 1221.09 169.998 1266.33 162.399C1275.4 160.882 1284.4 159.053 1293.26 156.953V157.942C1284.5 160.015 1275.61 161.803 1266.64 163.32C1221.15 170.946 1173.4 171.041 1128.2 160.001C1085.89 149.666 1045.81 129.591 1011.93 96.8246C936.707 24.0712 880.005 -1.08294 830.651 5.47313C781.279 12.0292 739.083 50.3361 692.949 104.478C675.658 124.783 651.455 143.638 622.535 159.906C571.572 188.569 505.855 209.239 437.013 215.85C368.153 222.46 296.186 214.983 232.761 187.336C202.838 174.305 174.828 156.777 149.943 134.143C83.6765 73.9054 27.7888 47.5999 -32.2465 42.1275V41.098Z" fill="white"/></mask><g mask="url(#mask1_55_86)"><path d="M1293.24 -2.07178H-32.2465V222.46H1293.24V-2.07178Z" fill="white" fill-opacity="0.3"/></g><mask id="mask2_55_86" style="mask-type:luminance" maskUnits="userSpaceOnUse" x="-33" y="7" width="1327" height="226"><path d="M-32.2519 65.4801C30.4537 68.2705 89.2579 92.9912 160.865 153.824C186.697 175.768 215.389 192.538 245.766 204.797C310.176 230.791 382.162 236.507 450.378 228.285C518.633 220.062 583.119 197.888 632.549 168.129C660.596 151.237 683.777 131.908 700.027 111.291C743.756 55.8492 784.36 16.3909 833.865 8.5751C883.409 0.759299 941.683 24.6266 1020.64 95.8629C1055.86 127.641 1096.62 146.645 1139.16 155.897C1184.61 165.785 1232.09 164.553 1276.95 155.883C1282.43 154.827 1287.84 153.662 1293.22 152.389V153.377C1287.96 154.61 1282.63 155.761 1277.29 156.791C1232.2 165.514 1184.47 166.747 1138.78 156.791C1095.99 147.485 1055.01 128.372 1019.61 96.4454C941.02 25.5342 883.162 1.76167 834.149 9.4962C785.117 17.2307 744.722 56.5265 701.163 111.752C684.819 132.463 661.543 151.887 633.382 168.847C583.782 198.715 519.069 220.956 450.587 229.206C382.086 237.455 309.797 231.712 245.103 205.609C214.593 193.296 185.769 176.459 159.842 154.434C88.6329 93.953 30.1128 69.3135 -32.2709 66.5096V65.4801H-32.2519Z" fill="white"/></mask><g mask="url(#mask2_55_86)"><path d="M1293.24 0.759277H-32.2526V237.455H1293.24V0.759277Z" fill="white" fill-opacity="0.3"/></g><mask id="mask3_55_86" style="mask-type:luminance" maskUnits="userSpaceOnUse" x="-33" y="10" width="1327" height="238"><path d="M-32.2465 90.3364C32.8454 90.1739 94.2442 113.025 171.116 174.048C197.971 195.355 227.439 211.42 258.366 222.948C323.969 247.37 396.163 251.366 463.982 241.505C531.801 231.644 595.226 207.953 643.216 177.015C670.45 159.46 692.703 139.588 707.986 118.593C749.083 62.1345 787.812 21.728 836.939 12.7202C886.084 3.7124 945.438 26.171 1027.71 95.4702C1064.39 126.381 1106.04 144.397 1148.97 152.619C1194.86 161.41 1242.24 159.04 1286.69 149.3C1288.89 148.826 1291.07 148.325 1293.24 147.81V148.799C1291.2 149.287 1289.14 149.747 1287.07 150.208C1242.39 160.001 1194.76 162.385 1148.63 153.54C1105.45 145.264 1063.58 127.153 1026.7 96.0798C944.813 27.1056 885.895 4.72831 837.261 13.6278C788.608 22.5408 750.106 62.7847 709.16 119.026C693.801 140.116 671.435 160.083 644.088 177.719C595.927 208.766 532.293 232.538 464.228 242.44C396.144 252.328 323.647 248.332 257.76 223.801C226.701 212.233 197.1 196.087 170.131 174.698C93.676 113.974 32.5424 91.2169 -32.2465 91.3524V90.3364Z" fill="white"/></mask><g mask="url(#mask3_55_86)"><path d="M1293.24 3.72607H-32.2465V252.328H1293.24V3.72607Z" fill="white" fill-opacity="0.3"/></g><mask id="mask4_55_86" style="mask-type:luminance" maskUnits="userSpaceOnUse" x="-33" y="14" width="1327" height="249"><path d="M-32.2465 115.707C35.2506 112.28 99.244 133.046 181.702 194.231C209.542 214.888 239.749 230.235 271.206 241.004C337.908 263.842 410.253 266.09 477.561 254.617C544.887 243.144 607.157 217.922 653.67 185.86C680.071 167.668 701.377 147.269 715.675 125.921C754.102 68.5009 790.918 27.1869 839.571 17.0141C888.262 6.84141 948.639 27.8642 1034.11 95.1451C1072.23 125.162 1114.69 142.162 1157.99 149.355C1203.48 156.913 1249.91 153.649 1293.24 143.273V144.261C1249.82 154.61 1203.29 157.848 1157.7 150.276C1114.14 143.042 1071.46 125.948 1033.14 95.7818C948.07 28.8124 888.13 7.85732 839.95 17.9217C791.751 27.9996 755.143 69.1376 716.868 126.327C702.513 147.783 681.093 168.278 654.598 186.551C607.915 218.735 545.437 244.025 477.883 255.552C410.31 267.079 337.662 264.817 270.657 241.871C239.067 231.048 208.728 215.633 180.775 194.895C98.6948 133.994 34.9854 113.323 -32.2465 116.723V115.707Z" fill="white"/></mask><g mask="url(#mask4_55_86)"><path d="M1293.24 6.85498H-32.2465V267.079H1293.24V6.85498Z" fill="white" fill-opacity="0.3"/></g><mask id="mask5_55_86" style="mask-type:luminance" maskUnits="userSpaceOnUse" x="-33" y="18" width="1327" height="260"><path d="M-32.2465 141.701C37.7126 134.671 104.244 153.066 192.611 214.4C221.398 234.38 252.305 248.996 284.255 259.006C351.998 280.232 424.419 280.747 491.14 267.662C557.879 254.577 618.937 227.878 663.916 194.719C689.445 175.904 709.785 155.003 723.061 133.316C758.779 75.0162 793.626 32.8352 841.787 21.4976C889.967 10.1599 951.309 29.7198 1039.88 94.9147C1079.39 123.997 1122.63 139.967 1166.24 146.117C1209.25 152.185 1252.66 148.704 1293.24 138.802V139.791C1252.58 149.652 1209.1 153.107 1166 147.038C1122.13 140.848 1078.65 124.783 1038.96 95.5649C950.798 30.668 889.891 11.1623 842.223 22.3916C794.517 33.6209 759.859 75.6122 724.292 133.696C710.941 155.477 690.506 176.473 664.882 195.369C619.733 228.65 558.485 255.43 491.5 268.569C424.495 281.708 351.79 281.194 283.743 259.873C251.662 249.822 220.621 235.139 191.721 215.078C103.713 154.014 37.4475 135.7 -32.2465 142.704V141.701Z" fill="white"/></mask><g mask="url(#mask5_55_86)"><path d="M1293.24 10.1465H-32.2465V281.695H1293.24V10.1465Z" fill="white" fill-opacity="0.3"/></g><mask id="mask6_55_86" style="mask-type:luminance" maskUnits="userSpaceOnUse" x="-33" y="22" width="1327" height="271"><path d="M-32.2465 168.345C40.2125 157.319 109.168 173.073 203.842 234.488C233.556 253.764 265.127 267.634 297.531 276.873C366.221 296.459 438.623 295.24 504.7 280.557C570.795 265.874 630.565 237.726 673.973 203.51C698.593 184.085 717.948 162.71 730.22 140.726C763.173 81.5993 796.032 38.6056 843.624 26.1165C891.255 13.6275 953.468 31.6974 1045.05 94.7385C1085.91 122.859 1129.86 137.786 1173.74 142.88C1214.48 147.621 1255.18 143.882 1293.26 134.359V135.348C1255.12 144.83 1214.37 148.542 1173.53 143.801C1129.41 138.667 1085.2 123.658 1044.15 95.4023C952.976 32.6591 891.198 14.6299 844.079 26.9835C796.922 39.3506 764.253 82.1547 731.432 141.051C719.122 163.144 699.672 184.614 674.939 204.119C631.38 238.471 571.42 266.7 505.097 281.437C438.756 296.175 366.051 297.408 297.057 277.726C264.521 268.447 232.799 254.522 202.971 235.166C108.675 174.021 39.9663 158.349 -32.2465 169.361V168.345Z" fill="white"/></mask><g mask="url(#mask6_55_86)"><path d="M1293.24 13.6274H-32.2465V297.421H1293.24V13.6274Z" fill="white" fill-opacity="0.3"/></g><mask id="mask7_55_86" style="mask-type:luminance" maskUnits="userSpaceOnUse" x="-33" y="26" width="1327" height="282"><path d="M-32.2465 195.735C42.7313 180.279 114.035 193.08 215.413 254.536C246.018 273.08 278.213 286.192 311.034 294.644C380.614 312.579 452.922 309.612 518.26 293.358C583.636 277.103 642.042 247.533 683.821 212.287C707.513 192.28 725.864 170.458 737.076 148.19C767.245 88.3045 798.058 44.5522 845.045 30.9253C892.05 17.2985 955.097 33.8783 1049.58 94.6709C1091.72 121.789 1136.36 135.66 1180.45 139.696C1219.14 143.245 1257.41 139.236 1293.24 129.984V130.987C1257.36 140.198 1219.02 144.18 1180.28 140.631C1135.92 136.567 1091.06 122.629 1048.69 95.3617C954.642 34.84 892.05 18.3008 845.537 31.7923C798.986 45.2837 768.362 88.8463 738.307 148.501C727.038 170.878 708.611 192.809 684.805 212.897C642.894 248.264 584.28 277.929 518.676 294.252C453.054 310.574 380.463 313.554 310.579 295.538C277.626 287.045 245.279 273.893 214.561 255.267C113.562 194.028 42.523 181.309 -32.2465 196.764V195.735Z" fill="white"/></mask><g mask="url(#mask7_55_86)"><path d="M1293.24 17.2983H-32.2465V313.54H1293.24V17.2983Z" fill="white" fill-opacity="0.3"/></g><mask id="mask8_55_86" style="mask-type:luminance" maskUnits="userSpaceOnUse" x="-33" y="30" width="1327" height="294"><path d="M-32.2465 223.991C45.3259 203.618 118.751 213.073 227.288 274.516C258.726 292.315 291.546 304.641 324.727 312.308C395.102 328.563 467.22 323.862 531.782 306.05C596.343 288.224 653.349 257.286 693.441 221.051C716.187 200.489 733.496 178.234 743.667 155.708C771.014 95.1316 799.744 50.6615 846.067 35.9239C892.41 21.1727 956.195 36.2219 1053.48 94.7253C1096.87 120.814 1142.13 133.601 1186.39 136.595C1223.25 139.087 1259.42 134.766 1293.24 125.691V126.693C1259.36 135.741 1223.17 140.022 1186.26 137.529C1141.76 134.522 1096.25 121.667 1052.63 95.4432C955.797 37.2107 892.467 22.1886 846.598 36.7772C800.709 51.3794 772.131 95.6599 744.898 155.992C734.69 178.627 717.304 200.99 694.445 221.634C654.201 257.99 597.025 289.05 532.236 306.931C467.429 324.824 395.008 329.538 324.31 313.216C290.978 305.522 258.025 293.141 226.454 275.274C118.315 214.021 45.1176 204.648 -32.2465 225.047V223.991Z" fill="white"/></mask><g mask="url(#mask8_55_86)"><path d="M1293.24 21.1729H-32.2465V329.525H1293.24V21.1729Z" fill="white" fill-opacity="0.3"/></g><mask id="mask9_55_86" style="mask-type:luminance" maskUnits="userSpaceOnUse" x="-33" y="34" width="1327" height="305"><path d="M-32.2465 253.209C47.9584 227.35 123.296 233.08 239.484 294.428C271.755 311.468 305.106 322.995 338.646 329.85C409.742 344.398 481.614 337.977 545.285 318.62C608.975 299.264 664.484 266.957 702.873 229.788C724.633 208.698 740.901 186.036 749.992 163.279C774.48 102.08 801.126 56.9465 846.73 41.0982C892.353 25.2498 956.801 38.7548 1056.78 94.8877C1101.38 119.92 1147.21 131.623 1191.58 133.533C1226.85 135.064 1261.18 130.418 1293.26 121.396V122.399C1261.16 131.38 1226.79 135.985 1191.51 134.468C1146.87 132.531 1100.79 120.787 1055.98 95.6192C956.46 39.7436 892.467 26.2522 847.317 41.938C802.149 57.6238 775.654 102.568 751.28 163.523C742.133 186.388 725.807 209.158 703.933 230.33C665.431 267.635 609.733 300.036 545.815 319.474C481.879 338.912 409.723 345.359 338.306 330.744C304.633 323.849 271.111 312.281 238.727 295.159C122.917 234.001 47.8258 228.38 -32.2086 254.252V253.209H-32.2465Z" fill="white"/></mask><g mask="url(#mask9_55_86)"><path d="M1293.24 25.2634H-32.2465V345.386H1293.24V25.2634Z" fill="white" fill-opacity="0.3"/></g><mask id="mask10_55_86" style="mask-type:luminance" maskUnits="userSpaceOnUse" x="-33" y="39" width="1327" height="316"><path d="M-32.2465 283.537C50.6855 251.57 127.614 253.087 251.984 314.258C285.031 330.513 318.912 341.228 352.756 347.283C424.495 360.124 496.026 351.969 558.75 331.096C621.494 310.222 675.469 276.602 712.077 238.525C732.853 216.92 748.022 193.892 756.052 170.919C777.642 109.165 802.168 63.4212 846.995 46.4892C891.861 29.5572 956.896 41.5045 1059.45 95.2127C1105.18 119.161 1151.55 129.754 1195.98 130.607C1229.88 131.258 1262.68 126.246 1293.23 117.184V118.2C1262.64 127.221 1229.84 132.192 1195.94 131.542C1151.24 130.689 1104.64 120.042 1058.65 95.9713C956.574 42.5204 891.974 30.5732 847.582 47.3291C803.172 64.0985 778.816 109.639 757.302 171.149C749.234 194.217 733.989 217.367 713.119 239.053C676.378 277.265 622.232 310.994 559.262 331.935C496.272 352.891 424.457 361.072 352.396 348.177C318.42 342.095 284.387 331.326 251.207 315.003C127.216 254.035 50.534 252.626 -32.2465 284.634V283.537Z" fill="white"/></mask><g mask="url(#mask10_55_86)"><path d="M1293.24 29.571H-32.2465V361.086H1293.24V29.571Z" fill="white" fill-opacity="0.3"/></g><mask id="mask11_55_86" style="mask-type:luminance" maskUnits="userSpaceOnUse" x="-33" y="43" width="1327" height="328"><path d="M-32.2465 315.139C53.5452 276.344 131.648 273.12 264.786 334.008C298.572 349.463 332.946 359.365 367.054 364.594C439.362 375.701 510.457 365.84 572.178 343.476C633.918 321.099 686.264 286.219 721.073 247.289C740.807 225.196 754.916 201.816 761.867 178.667C780.559 116.439 802.906 70.1127 846.92 52.1242C890.952 34.1221 956.517 44.5116 1061.55 95.7139C1108.39 118.552 1155.22 128.02 1199.67 127.817C1232.47 127.654 1263.97 122.236 1293.26 113.025V114.055C1263.98 123.211 1232.47 128.603 1199.69 128.765C1154.97 128.982 1107.89 119.459 1060.81 96.4995C956.271 45.5275 891.16 35.138 847.583 52.9505C803.986 70.7765 781.771 116.886 763.154 178.87C756.166 202.128 742.019 225.616 722.19 247.804C687.268 286.869 634.732 321.885 572.784 344.33C510.817 366.788 439.419 376.69 366.789 365.528C332.548 360.273 298.023 350.33 264.104 334.807C131.269 274.069 53.4316 277.414 -32.2465 316.277V315.139Z" fill="white"/></mask><g mask="url(#mask11_55_86)"><path d="M1293.24 34.1221H-32.2465V376.677H1293.24V34.1221Z" fill="white" fill-opacity="0.3"/></g><mask id="mask12_55_86" style="mask-type:luminance" maskUnits="userSpaceOnUse" x="-33" y="48" width="1327" height="338"><path d="M-32.2465 348.19C56.5565 301.742 135.303 293.168 277.91 353.663C312.416 368.292 347.226 377.367 381.542 381.783C454.323 391.143 524.926 379.589 585.567 355.749C646.228 331.908 696.907 295.782 729.86 256.04C748.553 233.486 761.545 209.768 767.416 186.483C783.172 123.835 803.342 77.0075 846.484 57.976C889.645 38.9309 955.665 47.7355 1063.03 96.3912C1110.9 118.091 1158.16 126.435 1202.59 125.162C1234.54 124.241 1265.03 118.349 1293.26 108.867V109.896C1265.05 119.31 1234.57 125.176 1202.64 126.083C1157.97 127.37 1110.47 118.985 1062.35 97.1769C955.476 48.7379 889.91 39.9197 847.185 58.7616C804.44 77.6171 784.403 124.241 768.722 186.646C762.832 210.052 749.784 233.879 731.016 256.514C697.949 296.405 647.08 332.653 586.211 356.575C525.324 380.51 454.437 392.105 381.334 382.704C346.847 378.261 311.886 369.159 277.248 354.475C134.962 294.116 56.4807 302.84 -32.2465 349.382V348.19Z" fill="white"/></mask><g mask="url(#mask12_55_86)"><path d="M1293.24 38.9172H-32.2465V392.118H1293.24V38.9172Z" fill="white" fill-opacity="0.3"/></g><mask id="mask13_55_86" style="mask-type:luminance" maskUnits="userSpaceOnUse" x="-33" y="53" width="1327" height="349"><path d="M-32.2465 382.921C59.8518 327.885 138.56 313.27 291.338 373.209C326.507 386.998 361.733 395.234 396.239 398.824C469.417 406.436 539.433 393.189 598.919 367.913C658.424 342.623 707.38 305.305 738.458 264.79C756.09 241.803 767.965 217.787 772.718 194.367C785.521 131.38 803.474 84.092 845.708 64.0309C887.959 43.9564 954.358 51.1762 1063.94 97.2312C1112.82 117.766 1160.43 124.973 1204.76 122.629C1236.13 120.977 1265.86 114.529 1293.26 104.668V105.724C1265.9 115.531 1236.18 121.925 1204.86 123.577C1160.28 125.934 1112.4 118.701 1063.27 98.0575C954.188 52.2192 888.244 44.9723 846.427 64.8301C804.592 84.7015 786.771 131.772 774.006 194.516C769.215 218.058 757.302 242.169 739.595 265.264C708.422 305.915 659.276 343.368 599.582 368.739C539.869 394.123 469.55 407.425 396.049 399.772C361.392 396.169 326.014 387.906 290.694 374.049C138.238 314.218 59.8139 329.01 -32.2465 384.167V382.921Z" fill="white"/></mask><g mask="url(#mask13_55_86)"><path d="M1293.24 43.9561H-32.2465V407.398H1293.24V43.9561Z" fill="white" fill-opacity="0.3"/></g><mask id="mask14_55_86" style="mask-type:luminance" maskUnits="userSpaceOnUse" x="-23" y="58" width="1317" height="356"><path d="M497.46 413.277C538.67 407.642 577.419 395.911 612.209 379.968C670.483 353.27 717.678 314.8 746.824 273.554C763.358 250.161 774.096 225.874 777.751 202.345C787.599 139.087 803.318 91.3929 844.585 70.3295C885.871 49.2526 952.554 54.874 1064.25 98.2741C1114.06 117.631 1162 123.686 1206.18 120.272C1237.24 117.875 1266.46 110.817 1293.24 100.401V101.471C1266.5 111.793 1237.31 118.809 1206.33 121.207C1161.88 124.634 1113.7 118.552 1063.63 99.1004C952.459 55.9035 886.212 50.2414 845.362 71.1017C804.492 91.9754 788.868 139.439 779.058 202.453C775.384 226.09 764.589 250.486 747.979 273.974C718.719 315.356 671.373 353.961 612.891 380.754C579.767 395.925 543.064 407.317 504.07 413.263H497.46V413.277ZM-22.7822 413.277C68.7668 353.541 146.718 335.39 305.044 392.647C333.073 402.779 360.989 409.511 388.412 413.277H381.821C356.311 409.362 330.441 402.887 304.438 393.487C147.532 336.744 69.8652 354.394 -20.8126 413.277H-22.7822Z" fill="white"/></mask><g mask="url(#mask14_55_86)"><path d="M1293.24 49.2664H-22.7822V413.277H1293.24V49.2664Z" fill="white" fill-opacity="0.3"/></g><mask id="mask15_55_86" style="mask-type:luminance" maskUnits="userSpaceOnUse" x="35" y="63" width="1259" height="351"><path d="M572.954 413.277C591.324 407.29 608.88 400.097 625.433 391.929C682.419 363.849 727.777 324.269 754.991 282.345C770.426 258.559 780.009 234.042 782.566 210.432C789.441 146.971 802.925 98.9379 843.169 76.8857C883.433 54.8335 950.362 58.843 1064.01 99.5339C1114.71 117.685 1162.89 122.589 1206.9 118.118C1237.94 114.976 1266.9 107.16 1293.24 96.0662V97.1499C1266.96 108.162 1238.04 115.911 1207.09 119.053C1162.83 123.55 1114.39 118.62 1063.44 100.374C950.305 59.8724 883.831 55.7952 843.984 77.6307C804.118 99.4662 790.729 147.282 783.892 210.499C781.316 234.218 771.695 258.857 756.204 282.725C728.913 324.784 683.404 364.513 626.209 392.688C610.358 400.49 593.616 407.412 576.117 413.263H572.954V413.277ZM35.951 413.277C108.921 373.94 184.789 367.398 319.045 411.977C320.37 412.424 321.696 412.857 323.041 413.277H319.859L318.495 412.83C185.869 368.793 110.417 374.889 38.2237 413.277H35.951Z" fill="white"/></mask><g mask="url(#mask15_55_86)"><path d="M1293.24 54.8469H35.951V413.277H1293.24V54.8469Z" fill="white" fill-opacity="0.3"/></g><mask id="mask16_55_86" style="mask-type:luminance" maskUnits="userSpaceOnUse" x="110" y="68" width="1184" height="346"><path d="M619.414 413.277C625.967 410.27 632.368 407.1 638.618 403.795C694.26 374.36 737.742 333.71 762.95 291.163C777.267 267.025 785.695 242.277 787.134 218.627C791.017 155.03 802.247 106.699 841.45 83.6989C880.672 60.685 947.733 63.0961 1063.24 101.037C1114.75 117.956 1163.14 121.694 1206.93 116.181C1238.23 112.239 1267.19 103.557 1293.27 91.5689V92.6796C1267.23 104.559 1238.36 113.174 1207.15 117.102C1163.12 122.656 1114.49 118.89 1062.71 101.891C947.733 64.1255 881.107 61.6467 842.302 84.4304C803.478 107.214 792.342 155.328 788.479 218.667C787.021 242.426 778.555 267.282 764.181 291.529C738.879 334.225 695.244 375.01 639.414 404.553C633.675 407.588 627.823 410.5 621.838 413.277H619.414ZM110.914 413.277C153.033 401.411 200.986 400.517 263.71 413.277H258.805C200.38 401.898 154.927 402.657 114.91 413.277H110.914Z" fill="white"/></mask><g mask="url(#mask16_55_86)"><path d="M1293.25 60.6985H110.914V413.277H1293.25V60.6985Z" fill="white" fill-opacity="0.3"/></g><mask id="mask17_55_86" style="mask-type:luminance" maskUnits="userSpaceOnUse" x="655" y="74" width="639" height="340"><path d="M655.663 413.277C707.953 382.758 748.046 342.081 770.677 300.008C783.84 275.545 791.112 250.608 791.453 226.944C792.362 163.293 801.301 114.718 839.405 90.7968C877.529 66.8617 944.666 67.6609 1061.88 102.798C1114.17 118.47 1162.69 121.058 1206.19 114.488C1238.06 109.679 1267.25 99.9536 1293.23 86.8686V88.02C1267.3 100.983 1238.21 110.614 1206.45 115.409C1162.71 122.019 1113.92 119.432 1061.37 103.665C944.685 68.6769 877.983 67.8099 840.258 91.5012C802.532 115.206 793.65 163.55 792.76 226.957C792.419 250.743 785.128 275.789 771.908 300.361C749.372 342.244 709.6 382.759 657.747 413.29H655.663V413.277Z" fill="white"/></mask><g mask="url(#mask17_55_86)"><path d="M1293.23 66.8484H655.663V413.277H1293.23V66.8484Z" fill="white" fill-opacity="0.3"/></g><mask id="mask18_55_86" style="mask-type:luminance" maskUnits="userSpaceOnUse" x="685" y="79" width="609" height="335"><path d="M685.979 413.277C728.156 383.314 760.029 346.47 778.248 308.881C790.255 284.106 796.353 259.02 795.577 235.355C793.494 171.718 800.16 122.954 837.109 98.1251C874.077 73.2825 941.215 72.4697 1060.02 104.79C1113.01 119.202 1161.62 120.611 1204.8 113.012C1237.58 107.228 1267.22 96.2558 1293.24 81.8162V83.0082C1267.28 97.2988 1237.75 108.176 1205.12 113.933C1161.72 121.586 1112.82 120.164 1059.56 105.684C941.309 73.5127 874.589 74.2442 838.018 98.8295C801.41 123.428 794.819 171.962 796.903 235.355C797.679 259.128 791.562 284.336 779.498 309.206C761.336 346.646 729.709 383.355 687.835 413.29H685.979V413.277Z" fill="white"/></mask><g mask="url(#mask18_55_86)"><path d="M1293.24 72.4697H685.979V413.277H1293.24V72.4697Z" fill="white" fill-opacity="0.3"/></g><mask id="mask19_55_86" style="mask-type:luminance" maskUnits="userSpaceOnUse" x="712" y="76" width="582" height="338"><path d="M712.052 413.277C745.839 384.628 771.046 351.387 785.591 317.794C796.442 292.748 801.348 267.526 799.473 243.889C794.416 180.333 798.772 131.447 834.547 105.751C870.322 80.0417 937.402 77.617 1057.64 107.052C1111.28 120.191 1159.95 120.435 1202.73 111.793C1236.76 104.925 1267.1 92.4224 1293.26 76.3167V77.5493C1267.16 93.4925 1236.95 105.86 1203.09 112.7C1160.06 121.383 1111.14 121.153 1057.23 107.946C937.535 78.6329 870.89 80.9628 835.475 106.415C800.041 131.867 795.742 180.55 800.779 243.849C802.673 267.594 797.73 292.938 786.86 318.078C772.372 351.55 747.335 384.682 713.776 413.277H712.052Z" fill="white"/></mask><g mask="url(#mask19_55_86)"><path d="M1293.24 76.3167H712.052V413.277H1293.24V76.3167Z" fill="white" fill-opacity="0.3"/></g><mask id="mask20_55_86" style="mask-type:luminance" maskUnits="userSpaceOnUse" x="734" y="70" width="560" height="344"><path d="M734.913 413.277C761.616 386.47 781.331 356.643 792.751 326.747C802.41 301.458 806.141 276.128 803.148 252.558C795.099 189.165 797.183 140.198 831.708 113.648C866.271 87.0853 933.181 83.0623 1054.75 109.598C1108.97 121.437 1157.62 120.516 1199.97 110.844C1235.67 102.703 1266.9 88.3451 1293.24 70.2075V71.5079C1266.95 89.4558 1235.86 103.652 1200.37 111.738C1157.77 121.451 1108.85 122.385 1054.37 110.492C933.37 84.0782 866.877 88.0064 832.674 114.285C798.452 140.577 796.444 189.327 804.455 252.477C807.466 276.168 803.716 301.607 794.02 327.005C782.638 356.792 763.055 386.524 736.522 413.277H734.913Z" fill="white"/></mask><g mask="url(#mask20_55_86)"><path d="M1293.24 70.2075H734.913V413.277H1293.24V70.2075Z" fill="white" fill-opacity="0.3"/></g></g><defs><clipPath id="clip0_55_86"><rect width="754" height="413" fill="white"/></clipPath></defs></svg>