<svg width="786" height="260" viewBox="0 0 786 260" fill="none" xmlns="http://www.w3.org/2000/svg"><g clip-path="url(#clip0_14_206)"><mask id="mask0_14_206" style="mask-type:luminance" maskUnits="userSpaceOnUse" x="-1" y="-180" width="1327" height="258"><path d="M-0.24646 -157.823C57.8381 -147.896 111.415 -112.701 173.344 -36.5173C197.055 -7.33559 224.119 15.4903 253.284 32.7635C315.118 69.3773 386.403 80.9099 455.245 74.7079C524.106 68.4889 590.542 44.5012 642.642 10.0231C672.205 -9.5396 697.147 -32.451 715.309 -57.4126C764.133 -124.541 808.354 -171.747 858.485 -178.581C908.634 -185.416 964.541 -151.86 1036.66 -57.4297C1068.82 -15.3144 1107.72 11.0652 1149.29 25.2973C1193.7 40.5032 1241.2 41.8188 1286.78 33.6178C1299.81 31.2771 1312.69 28.1505 1325.28 24.3576V25.6048C1312.76 29.3636 1299.98 32.456 1287.05 34.7796C1241.23 43.0147 1193.49 41.6821 1148.83 26.4078C1107.03 12.1075 1067.93 -14.426 1035.6 -56.7463C963.821 -150.732 908.331 -184.168 858.712 -177.403C809.055 -170.637 765.08 -123.618 716.446 -56.7633C698.208 -31.6821 673.152 -8.65118 643.456 10.9798C591.167 45.5604 524.522 69.6507 455.415 75.8869C386.29 82.123 314.721 70.5221 252.602 33.7716C223.323 16.43 196.146 -6.49841 172.322 -35.7997C110.79 -111.488 57.5162 -146.547 -0.208583 -156.507V-157.823H-0.24646Z" fill="white"/></mask><g mask="url(#mask0_14_206)"><path d="M1325.24 -185.433H-0.24646V82.1057H1325.24V-185.433Z" fill="#3A3C42" fill-opacity="0.08"/></g><mask id="mask1_14_206" style="mask-type:luminance" maskUnits="userSpaceOnUse" x="-1" y="-175" width="1327" height="271"><path d="M-0.24646 -127.599C60.1107 -120.714 116.301 -87.4144 182.946 -10.9577C207.737 17.4893 235.633 39.4951 265.424 55.8628C328.584 90.5801 400.247 99.96 468.824 91.6565C537.419 83.3531 602.909 57.3663 653.702 21.3334C682.508 0.899429 706.598 -22.7808 723.813 -48.272C770.118 -116.835 812.54 -165.358 862.405 -173.695C912.27 -182.05 969.408 -150.203 1044.97 -58.0106C1078.68 -16.8864 1118.53 8.29736 1160.61 21.248C1205.57 35.0871 1253.09 34.9846 1298.33 25.3997C1307.4 23.4862 1316.4 21.1797 1325.26 18.5315V19.7787C1316.5 22.3927 1307.61 24.648 1298.64 26.5616C1253.15 36.1806 1205.4 36.3002 1160.2 22.3757C1117.89 9.33958 1077.81 -15.9808 1043.93 -57.3102C968.707 -149.075 912.005 -180.803 862.651 -172.533C813.279 -164.264 771.083 -115.947 724.949 -47.657C707.658 -22.0461 683.455 1.73659 654.535 22.256C603.572 58.4085 537.855 84.4807 469.013 92.8183C400.153 101.156 328.186 91.7248 264.761 56.8537C234.838 40.4177 206.828 18.3093 181.943 -10.2402C115.676 -86.2185 59.7888 -119.398 -0.24646 -126.301V-127.599Z" fill="white"/></mask><g mask="url(#mask1_14_206)"><path d="M1325.24 -182.05H-0.24646V101.156H1325.24V-182.05Z" fill="#3A3C42" fill-opacity="0.08"/></g><mask id="mask2_14_206" style="mask-type:luminance" maskUnits="userSpaceOnUse" x="-1" y="-171" width="1327" height="286"><path d="M-0.251935 -96.8454C62.4537 -93.3258 121.258 -62.1452 192.865 14.5848C218.697 42.263 247.389 63.4146 277.766 78.8768C342.176 111.663 414.162 118.873 482.378 108.503C550.633 98.1319 615.119 70.1633 664.549 32.6269C692.596 11.3216 715.777 -13.0592 732.027 -39.063C775.756 -108.993 816.36 -158.763 865.865 -168.621C915.409 -178.479 973.683 -148.375 1052.64 -58.5231C1087.86 -18.441 1128.62 5.52965 1171.16 17.1989C1216.61 29.6712 1264.09 28.1164 1308.95 17.1818C1314.43 15.8491 1319.84 14.3798 1325.22 12.7738V14.021C1319.96 15.5758 1314.63 17.028 1309.29 18.3265C1264.2 29.3294 1216.47 30.8842 1170.78 18.3265C1127.99 6.58891 1087.01 -17.5184 1051.61 -57.7884C973.02 -147.23 915.162 -177.215 866.149 -167.459C817.117 -157.703 776.722 -108.139 733.163 -38.4821C716.819 -12.3587 693.543 12.1416 665.382 33.5324C615.782 71.2055 551.069 99.2596 482.587 109.664C414.086 120.069 341.797 112.825 277.103 79.9019C246.593 64.3714 217.769 43.1344 191.842 15.3537C120.633 -60.9321 62.1128 -92.0103 -0.270874 -95.5469V-96.8454H-0.251935Z" fill="white"/></mask><g mask="url(#mask2_14_206)"><path d="M1325.24 -178.479H-0.252563V120.069H1325.24V-178.479Z" fill="#3A3C42" fill-opacity="0.08"/></g><mask id="mask3_14_206" style="mask-type:luminance" maskUnits="userSpaceOnUse" x="-1" y="-166" width="1327" height="299"><path d="M-0.24646 -65.4938C64.8454 -65.6988 126.244 -36.8759 203.116 40.0933C229.971 66.9685 259.439 87.2316 290.366 101.771C355.969 132.576 428.163 137.616 495.982 125.178C563.801 112.74 627.226 82.8578 675.216 43.835C702.45 21.6924 724.703 -3.37166 739.986 -29.8539C781.083 -101.065 819.812 -152.031 868.939 -163.392C918.084 -174.754 977.438 -146.427 1059.71 -59.0185C1096.39 -20.0298 1138.04 2.69363 1180.97 13.0644C1226.86 24.1528 1274.24 21.1628 1318.69 8.87851C1320.89 8.28053 1323.07 7.64835 1325.24 6.99911V8.24635C1323.2 8.86142 1321.14 9.44231 1319.07 10.0232C1274.39 22.3759 1226.76 25.3829 1180.63 14.2262C1137.45 3.78705 1095.58 -19.056 1058.7 -58.2496C976.813 -145.248 917.895 -173.473 869.261 -162.248C820.608 -151.006 782.106 -100.245 741.16 -29.3071C725.801 -2.70534 703.435 22.4784 676.088 44.7234C627.927 83.8829 564.293 113.868 496.228 126.357C428.144 138.829 355.647 133.789 289.76 102.848C258.701 88.2568 229.1 67.8911 202.131 40.9134C125.676 -35.6799 64.5424 -64.3832 -0.24646 -64.2124V-65.4938Z" fill="white"/></mask><g mask="url(#mask3_14_206)"><path d="M1325.24 -174.737H-0.24646V138.829H1325.24V-174.737Z" fill="#3A3C42" fill-opacity="0.08"/></g><mask id="mask4_14_206" style="mask-type:luminance" maskUnits="userSpaceOnUse" x="-1" y="-162" width="1327" height="314"><path d="M-0.24646 -33.4932C67.2506 -37.8157 131.244 -11.624 213.702 65.5503C241.542 91.6053 271.749 110.963 303.206 124.546C369.908 153.352 442.253 156.188 509.561 141.716C576.887 127.245 639.157 95.4324 685.67 54.9915C712.071 32.046 733.377 6.31557 747.675 -20.6109C786.102 -93.0354 822.918 -145.146 871.571 -157.977C920.262 -170.808 980.639 -144.291 1066.11 -59.4286C1104.23 -21.5676 1146.69 -0.12558 1189.99 8.9467C1235.48 18.4803 1281.91 14.3627 1325.24 1.27541V2.52264C1281.82 15.5758 1235.29 19.6592 1189.7 10.1085C1146.14 0.98497 1103.46 -20.5767 1065.14 -58.6256C980.07 -143.095 920.13 -169.526 871.95 -156.832C823.751 -144.12 787.143 -92.2324 748.868 -20.0983C734.513 6.96481 713.093 32.8149 686.598 55.8629C639.915 96.4576 577.437 128.356 509.883 142.895C442.31 157.435 369.662 154.582 302.657 125.639C271.067 111.988 240.728 92.545 212.775 66.3874C130.695 -10.428 66.9854 -36.5002 -0.24646 -32.2118V-33.4932Z" fill="white"/></mask><g mask="url(#mask4_14_206)"><path d="M1325.24 -170.791H-0.24646V157.435H1325.24V-170.791Z" fill="#3A3C42" fill-opacity="0.08"/></g><mask id="mask5_14_206" style="mask-type:luminance" maskUnits="userSpaceOnUse" x="-1" y="-157" width="1327" height="328"><path d="M-0.24646 -0.706406C69.7126 -9.57367 136.244 13.6281 224.611 90.9903C253.398 116.191 284.305 134.626 316.255 147.252C383.998 174.025 456.419 174.674 523.14 158.17C589.879 141.665 650.937 107.99 695.916 66.1654C721.445 42.4339 741.785 16.0714 755.061 -11.2822C790.779 -84.8173 825.626 -138.021 873.787 -152.321C921.967 -166.622 983.309 -141.95 1071.88 -59.719C1111.39 -23.0369 1154.63 -2.89333 1198.24 4.86339C1241.25 12.5176 1284.66 8.12668 1325.24 -4.36266V-3.11543C1284.58 9.32266 1241.1 13.6794 1198 6.02521C1154.13 -1.78278 1110.65 -22.0459 1070.96 -58.8989C982.798 -140.755 921.891 -165.357 874.223 -151.194C826.517 -137.03 791.859 -84.0655 756.292 -10.8038C742.941 16.6693 722.506 43.1515 696.882 66.9855C651.733 108.964 590.485 142.742 523.5 159.314C456.495 175.887 383.79 175.238 315.743 148.346C283.662 135.668 252.621 117.148 223.721 91.8446C135.713 14.8241 69.4475 -8.27519 -0.24646 0.557907V-0.706406Z" fill="white"/></mask><g mask="url(#mask5_14_206)"><path d="M1325.24 -166.639H-0.24646V175.87H1325.24V-166.639Z" fill="#3A3C42" fill-opacity="0.08"/></g><mask id="mask6_14_206" style="mask-type:luminance" maskUnits="userSpaceOnUse" x="-1" y="-152" width="1327" height="342"><path d="M-0.24646 32.9001C72.2125 18.9927 141.168 38.8629 235.842 116.328C265.556 140.64 297.127 158.135 329.531 169.787C398.221 194.493 470.623 192.955 536.7 174.435C602.795 155.914 662.565 120.411 705.973 77.2535C730.593 52.7532 749.948 25.7926 762.22 -1.9368C795.173 -76.5141 828.032 -130.743 875.624 -146.495C923.255 -162.248 985.468 -139.456 1077.05 -59.9414C1117.91 -24.4723 1161.86 -5.64432 1205.74 0.779739C1246.48 6.7596 1287.18 2.04408 1325.26 -9.96689V-8.71967C1287.12 3.24004 1246.37 7.9214 1205.53 1.94156C1161.41 -4.53377 1117.2 -23.4643 1076.15 -59.1042C984.976 -138.243 923.198 -160.984 876.079 -145.402C828.922 -129.803 796.253 -75.8136 763.432 -1.52676C751.122 26.3393 731.672 53.4195 706.939 78.0224C663.38 121.351 603.42 156.956 537.097 175.545C470.756 194.134 398.051 195.689 329.057 170.864C296.521 159.16 264.799 141.597 234.971 117.182C140.675 40.0588 71.9663 20.2912 -0.24646 34.1815V32.9001Z" fill="white"/></mask><g mask="url(#mask6_14_206)"><path d="M1325.24 -162.248H-0.24646V195.706H1325.24V-162.248Z" fill="#3A3C42" fill-opacity="0.08"/></g><mask id="mask7_14_206" style="mask-type:luminance" maskUnits="userSpaceOnUse" x="-1" y="-147" width="1327" height="356"><path d="M-0.24646 67.4466C74.7313 47.9523 146.035 64.0979 247.413 141.614C278.018 165.004 310.213 181.542 343.034 192.203C412.614 214.824 484.922 211.083 550.26 190.58C615.636 170.078 674.042 132.781 715.821 88.3249C739.513 63.0899 757.864 35.5655 769.076 7.47726C799.245 -68.0568 830.058 -123.242 877.045 -140.43C924.05 -157.618 987.097 -136.706 1081.58 -60.0267C1123.72 -25.822 1168.36 -8.32663 1212.45 -3.23521C1251.14 1.24113 1289.41 -3.81612 1325.24 -15.4854V-14.2211C1289.36 -2.60306 1251.02 2.42001 1212.28 -2.05634C1167.92 -7.18192 1123.06 -24.7627 1080.69 -59.1554C986.642 -135.492 924.05 -156.354 877.537 -139.337C830.986 -122.32 800.362 -67.3734 770.307 7.87022C759.038 36.0951 740.611 63.7562 716.805 89.0937C674.894 133.703 616.28 171.12 550.676 191.708C485.054 212.296 412.463 216.054 342.579 193.331C309.626 182.619 277.279 166.029 246.561 142.536C145.562 65.2939 74.523 49.2508 -0.24646 68.7451V67.4466Z" fill="white"/></mask><g mask="url(#mask7_14_206)"><path d="M1325.24 -157.618H-0.24646V216.037H1325.24V-157.618Z" fill="#3A3C42" fill-opacity="0.08"/></g><mask id="mask8_14_206" style="mask-type:luminance" maskUnits="userSpaceOnUse" x="-1" y="-141" width="1327" height="370"><path d="M-0.24646 103.087C77.3259 77.3905 150.751 89.316 259.288 166.815C290.726 189.265 323.546 204.813 356.727 214.483C427.102 234.985 499.22 229.057 563.782 206.589C628.343 184.105 685.349 145.082 725.441 99.3793C748.187 73.4438 765.496 45.3727 775.667 16.9598C803.014 -59.4456 831.744 -115.537 878.067 -134.125C924.41 -152.731 988.195 -133.75 1085.48 -59.9581C1128.87 -27.0519 1174.13 -10.9233 1218.39 -7.14749C1255.25 -4.0038 1291.42 -9.45401 1325.24 -20.9012V-19.6369C1291.36 -8.22388 1255.17 -2.82494 1218.26 -5.96863C1173.76 -9.76155 1128.25 -25.9755 1084.63 -59.0526C987.797 -132.502 924.467 -151.45 878.598 -133.049C832.709 -114.631 804.131 -58.7792 776.898 17.3186C766.69 45.8681 749.304 74.076 726.445 100.114C686.201 145.971 629.025 185.147 564.236 207.7C499.429 230.27 427.008 236.215 356.31 215.628C322.978 205.923 290.025 190.307 258.454 167.772C150.315 90.512 77.1176 78.689 -0.24646 104.419V103.087Z" fill="white"/></mask><g mask="url(#mask8_14_206)"><path d="M1325.24 -152.731H-0.24646V236.198H1325.24V-152.731Z" fill="#3A3C42" fill-opacity="0.08"/></g><mask id="mask9_14_206" style="mask-type:luminance" maskUnits="userSpaceOnUse" x="-1" y="-136" width="1327" height="384"><path d="M-0.24646 139.94C79.9584 107.324 155.296 114.551 271.484 191.93C303.755 213.423 337.106 227.963 370.646 236.608C441.742 254.958 513.614 246.859 577.285 222.444C640.975 198.03 696.484 157.281 734.873 110.399C756.633 83.7973 772.901 55.2136 781.992 26.5103C806.48 -50.681 833.126 -107.609 878.73 -127.599C924.353 -147.589 988.801 -130.555 1088.78 -59.7533C1133.38 -28.1797 1179.21 -13.418 1223.58 -11.009C1258.85 -9.07833 1293.18 -14.9386 1325.26 -26.3174V-25.0531C1293.16 -13.7255 1258.79 -7.91653 1223.51 -9.83009C1178.87 -12.2733 1132.79 -27.0862 1087.98 -58.8307C988.46 -129.308 924.467 -146.324 879.317 -126.54C834.149 -106.755 807.654 -50.0659 783.28 26.8179C774.133 55.6579 757.807 84.3782 735.933 111.083C697.431 158.135 641.733 199.003 577.815 223.521C513.879 248.038 441.723 256.171 370.306 237.736C336.633 229.039 303.111 214.449 270.727 192.853C154.917 115.713 79.8258 108.622 -0.208583 141.255V139.94H-0.24646Z" fill="white"/></mask><g mask="url(#mask9_14_206)"><path d="M1325.24 -147.572H-0.24646V256.205H1325.24V-147.572Z" fill="#3A3C42" fill-opacity="0.08"/></g><mask id="mask10_14_206" style="mask-type:luminance" maskUnits="userSpaceOnUse" x="-1" y="-130" width="1327" height="398"><path d="M-0.24646 178.193C82.6855 137.872 159.614 139.786 283.984 216.943C317.031 237.445 350.912 250.96 384.756 258.597C456.495 274.794 528.026 264.508 590.75 238.18C653.494 211.851 707.469 169.446 744.077 121.419C764.853 94.168 780.022 65.123 788.052 36.1463C809.642 -41.7455 834.168 -99.4425 878.995 -120.799C923.861 -142.156 988.896 -127.087 1091.45 -59.3433C1137.18 -29.1365 1183.55 -15.7758 1227.98 -14.6995C1261.88 -13.8794 1294.68 -20.2009 1325.23 -31.631V-30.3496C1294.64 -18.9708 1261.84 -12.7005 1227.94 -13.5206C1183.24 -14.597 1136.64 -28.026 1090.65 -58.3866C988.574 -125.805 923.974 -140.874 879.582 -119.74C835.172 -98.5882 810.816 -41.1475 789.302 36.4368C781.234 65.533 765.989 94.7318 745.119 122.085C708.378 170.283 654.232 212.825 591.262 239.239C528.272 265.67 456.457 275.99 384.396 259.724C350.42 252.053 316.387 238.47 283.207 217.883C159.216 140.982 82.534 139.205 -0.24646 179.577V178.193Z" fill="white"/></mask><g mask="url(#mask10_14_206)"><path d="M1325.24 -142.138H-0.24646V276.007H1325.24V-142.138Z" fill="#3A3C42" fill-opacity="0.08"/></g><mask id="mask11_14_206" style="mask-type:luminance" maskUnits="userSpaceOnUse" x="-1" y="-125" width="1327" height="413"><path d="M-0.24646 218.054C85.5452 169.121 163.648 165.055 296.786 241.853C330.572 261.348 364.946 273.837 399.054 280.432C471.362 294.442 542.457 282.004 604.178 253.796C665.918 225.571 718.264 181.576 753.073 132.473C772.807 104.607 786.916 75.118 793.867 45.9192C812.559 -32.5706 834.906 -91.0023 878.92 -113.692C922.952 -136.398 988.517 -123.293 1093.55 -58.7111C1140.39 -29.9053 1187.22 -17.9627 1231.67 -18.2189C1264.47 -18.424 1295.97 -25.2581 1325.26 -36.8761V-35.5776C1295.98 -24.0279 1264.47 -17.228 1231.69 -17.023C1186.97 -16.7496 1139.89 -28.7606 1092.81 -57.7201C988.271 -122.012 923.16 -135.116 879.583 -112.649C835.986 -90.1651 813.771 -32.0068 795.154 46.1755C788.166 75.5109 774.019 105.137 754.19 133.123C719.268 182.397 666.732 226.562 604.784 254.872C542.817 283.2 471.419 295.689 398.789 281.611C364.548 274.982 330.023 262.441 296.104 242.861C163.269 166.251 85.4316 170.471 -0.24646 219.489V218.054Z" fill="white"/></mask><g mask="url(#mask11_14_206)"><path d="M1325.24 -136.398H-0.24646V295.672H1325.24V-136.398Z" fill="#3A3C42" fill-opacity="0.08"/></g><mask id="mask12_14_206" style="mask-type:luminance" maskUnits="userSpaceOnUse" x="-1" y="-119" width="1327" height="427"><path d="M-0.24646 259.742C88.5565 201.156 167.303 190.341 309.91 266.644C344.416 285.096 379.226 296.543 413.542 302.113C486.323 313.919 556.926 299.345 617.567 269.275C678.228 239.205 728.907 193.639 761.86 143.51C780.553 115.063 793.545 85.1471 799.416 55.7775C815.172 -23.242 835.342 -82.3059 878.484 -106.311C921.645 -130.333 987.665 -119.227 1095.03 -57.8568C1142.9 -30.4862 1190.16 -19.9616 1234.59 -21.5677C1266.54 -22.7295 1297.03 -30.1616 1325.26 -42.1213V-40.8228C1297.05 -28.9485 1266.57 -21.5506 1234.64 -20.4059C1189.97 -18.7828 1142.47 -29.3586 1094.35 -56.8659C987.476 -117.963 921.91 -129.085 879.185 -105.32C836.44 -81.537 816.403 -22.7295 800.722 55.9825C794.832 85.5059 781.784 115.559 763.016 144.108C729.949 194.425 679.08 240.145 618.211 270.317C557.324 300.507 486.437 315.132 413.334 303.275C378.847 297.671 343.886 286.19 309.248 267.669C166.962 191.537 88.4807 202.54 -0.24646 261.245V259.742Z" fill="white"/></mask><g mask="url(#mask12_14_206)"><path d="M1325.24 -130.35H-0.24646V315.149H1325.24V-130.35Z" fill="#3A3C42" fill-opacity="0.08"/></g><mask id="mask13_14_206" style="mask-type:luminance" maskUnits="userSpaceOnUse" x="-1" y="-112" width="1327" height="440"><path d="M-0.24646 303.548C91.8518 234.131 170.56 215.696 323.338 291.298C358.507 308.691 393.733 319.079 428.239 323.606C501.417 333.208 571.433 316.499 630.919 284.618C690.424 252.72 739.38 205.65 770.458 154.548C788.09 125.554 799.965 95.2616 804.718 65.7211C817.521 -13.7255 835.474 -73.3703 877.708 -98.6736C919.959 -123.994 986.358 -114.888 1095.94 -56.7975C1144.82 -30.8962 1192.43 -21.8069 1236.76 -24.7626C1268.13 -26.847 1297.86 -34.9796 1325.26 -47.4177V-46.085C1297.9 -33.7153 1268.18 -25.651 1236.86 -23.5666C1192.28 -20.5938 1144.4 -29.7173 1095.27 -55.7553C986.188 -113.572 920.244 -122.713 878.427 -97.6655C836.592 -72.6014 818.771 -13.23 806.006 65.909C801.215 95.6033 789.302 126.015 771.595 155.146C740.422 206.418 691.276 253.659 631.582 285.66C571.869 317.678 501.55 334.456 428.049 324.802C393.392 320.258 358.014 309.836 322.694 292.357C170.238 216.892 91.8139 235.549 -0.24646 305.12V303.548Z" fill="white"/></mask><g mask="url(#mask13_14_206)"><path d="M1325.24 -123.994H-0.24646V334.421H1325.24V-123.994Z" fill="#3A3C42" fill-opacity="0.08"/></g><mask id="mask14_14_206" style="mask-type:luminance" maskUnits="userSpaceOnUse" x="9" y="-106" width="1317" height="448"><path d="M529.46 341.836C570.67 334.729 609.419 319.933 644.209 299.824C702.483 266.149 749.678 217.626 778.824 165.602C795.358 136.095 806.096 105.462 809.751 75.7844C819.599 -4.00388 835.318 -64.1612 876.585 -90.7288C917.871 -117.314 984.554 -110.223 1096.25 -55.4819C1146.06 -31.067 1194 -23.4298 1238.18 -27.7353C1269.24 -30.7594 1298.46 -39.6609 1325.24 -52.7995V-51.4497C1298.5 -38.4307 1269.31 -29.5806 1238.33 -26.5565C1193.88 -22.2339 1145.7 -29.9052 1095.63 -54.4397C984.459 -108.925 918.212 -116.066 877.362 -89.7549C836.492 -63.4265 820.868 -3.55965 811.058 75.9211C807.384 105.735 796.589 136.506 779.979 166.131C750.719 218.327 703.373 267.02 644.891 300.815C611.767 319.95 575.064 334.319 536.07 341.819H529.46V341.836ZM9.21777 341.836C100.767 266.49 178.718 243.596 337.044 315.816C365.073 328.595 392.989 337.087 420.412 341.836H413.821C388.311 336.899 362.441 328.732 336.438 316.875C179.532 245.305 101.865 267.567 11.1874 341.836H9.21777Z" fill="white"/></mask><g mask="url(#mask14_14_206)"><path d="M1325.24 -117.296H9.21777V341.837H1325.24V-117.296Z" fill="#3A3C42" fill-opacity="0.08"/></g><mask id="mask15_14_206" style="mask-type:luminance" maskUnits="userSpaceOnUse" x="67" y="-100" width="1259" height="442"><path d="M604.954 341.837C623.324 334.285 640.88 325.213 657.433 314.91C714.419 279.492 759.777 229.569 786.991 176.69C802.426 146.688 812.009 115.764 814.566 85.9844C821.441 5.9398 834.925 -54.6446 875.169 -82.4595C915.433 -110.274 982.362 -105.217 1096.01 -53.8929C1146.71 -30.9986 1194.89 -24.8137 1238.9 -30.4518C1269.94 -34.4156 1298.9 -44.2738 1325.24 -58.2667V-56.8999C1298.96 -43.0095 1270.04 -33.2367 1239.09 -29.2729C1194.83 -23.6006 1146.39 -29.8197 1095.44 -52.8336C982.305 -103.919 915.831 -109.061 875.984 -81.5198C836.118 -53.9783 822.729 6.33276 815.892 86.0698C813.316 115.986 803.695 147.064 788.204 177.169C760.913 230.218 715.404 280.33 658.209 315.867C642.358 325.708 625.616 334.439 608.117 341.82H604.954V341.837ZM67.951 341.837C140.921 292.221 216.789 283.969 351.045 340.196C352.37 340.76 353.696 341.307 355.041 341.837H351.859L350.495 341.273C217.869 285.729 142.417 293.417 70.2237 341.837H67.951Z" fill="white"/></mask><g mask="url(#mask15_14_206)"><path d="M1325.24 -110.257H67.951V341.837H1325.24V-110.257Z" fill="#3A3C42" fill-opacity="0.08"/></g><mask id="mask16_14_206" style="mask-type:luminance" maskUnits="userSpaceOnUse" x="142" y="-93" width="1184" height="435"><path d="M651.414 341.836C657.967 338.043 664.368 334.046 670.618 329.877C726.26 292.75 769.742 241.477 794.95 187.812C809.267 157.366 817.695 126.152 819.134 96.3207C823.017 16.1053 834.247 -44.855 873.45 -73.8658C912.672 -102.894 979.733 -99.8526 1095.24 -51.9967C1146.75 -30.6571 1195.14 -25.9416 1238.93 -32.8953C1270.23 -37.8671 1299.19 -48.8188 1325.27 -63.9393V-62.5383C1299.23 -47.5545 1270.36 -36.6882 1239.15 -31.7335C1195.12 -24.7285 1146.49 -29.4783 1094.71 -50.9203C979.733 -98.5541 913.107 -101.681 874.302 -72.9432C835.478 -44.2058 824.342 16.4812 820.479 96.372C819.021 126.34 810.555 157.691 796.181 188.274C770.879 242.127 727.244 293.57 671.414 330.833C665.675 334.661 659.823 338.334 653.838 341.836H651.414ZM142.914 341.836C185.033 326.87 232.986 325.742 295.71 341.836H290.805C232.38 327.485 186.927 328.441 146.91 341.836H142.914Z" fill="white"/></mask><g mask="url(#mask16_14_206)"><path d="M1325.25 -102.877H142.914V341.836H1325.25V-102.877Z" fill="#3A3C42" fill-opacity="0.08"/></g><mask id="mask17_14_206" style="mask-type:luminance" maskUnits="userSpaceOnUse" x="687" y="-86" width="639" height="428"><path d="M687.663 341.836C739.953 303.343 780.046 252.036 802.677 198.969C815.84 168.113 823.112 136.659 823.453 106.811C824.362 26.5274 833.301 -34.7405 871.405 -64.9131C909.529 -95.1028 976.666 -94.0948 1093.88 -49.7755C1146.17 -30.0078 1194.69 -26.7446 1238.19 -35.0309C1270.06 -41.0962 1299.25 -53.3634 1325.23 -69.8678V-68.4156C1299.3 -52.065 1270.21 -39.9173 1238.45 -33.8691C1194.71 -25.5315 1145.92 -28.7948 1093.37 -48.6821C976.685 -92.8134 909.983 -93.9068 872.258 -64.0247C834.532 -34.1254 825.65 26.852 824.76 106.828C824.419 136.83 817.128 168.421 803.908 199.413C781.372 252.241 741.6 303.343 689.747 341.854H687.663V341.836Z" fill="white"/></mask><g mask="url(#mask17_14_206)"><path d="M1325.23 -95.1199H687.663V341.836H1325.23V-95.1199Z" fill="#3A3C42" fill-opacity="0.08"/></g><mask id="mask18_14_206" style="mask-type:luminance" maskUnits="userSpaceOnUse" x="717" y="-79" width="609" height="421"><path d="M717.979 341.837C760.156 304.044 792.029 257.572 810.248 210.16C822.255 178.911 828.353 147.269 827.577 117.421C825.494 37.1546 832.16 -24.3525 869.109 -55.6698C906.077 -87.0042 973.215 -88.0293 1092.02 -47.2638C1145.01 -29.0851 1193.62 -27.3082 1236.8 -36.8931C1269.58 -44.1885 1299.22 -58.0276 1325.24 -76.2405V-74.737C1299.28 -56.712 1269.75 -42.9925 1237.12 -35.7313C1193.72 -26.0781 1144.82 -27.872 1091.56 -46.1362C973.309 -86.7138 906.589 -85.7912 870.018 -54.7814C833.41 -23.7545 826.819 37.4621 828.903 117.421C829.679 147.406 823.562 179.202 811.498 210.57C793.336 257.794 761.709 304.095 719.835 341.854H717.979V341.837Z" fill="white"/></mask><g mask="url(#mask18_14_206)"><path d="M1325.24 -88.0293H717.979V341.837H1325.24V-88.0293Z" fill="#3A3C42" fill-opacity="0.08"/></g><mask id="mask19_14_206" style="mask-type:luminance" maskUnits="userSpaceOnUse" x="744" y="-84" width="582" height="426"><path d="M744.052 341.836C777.839 305.701 803.046 263.774 817.591 221.402C828.442 189.812 833.348 157.999 831.473 128.185C826.416 48.0207 830.772 -13.6401 866.547 -46.0509C902.322 -78.4787 969.402 -81.537 1089.64 -44.4107C1143.28 -27.8379 1191.95 -27.5304 1234.73 -38.4308C1268.76 -47.0931 1299.1 -62.8628 1325.26 -83.1772V-81.6224C1299.16 -61.513 1268.95 -45.9142 1235.09 -37.2861C1192.06 -26.3344 1143.14 -26.6249 1089.23 -43.283C969.535 -80.2556 902.89 -77.3169 867.475 -45.2137C832.041 -13.1104 827.742 48.2941 832.779 128.134C834.673 158.084 829.73 190.051 818.86 221.761C804.372 263.979 779.335 305.769 745.776 341.836H744.052Z" fill="white"/></mask><g mask="url(#mask19_14_206)"><path d="M1325.24 -83.1772H744.052V341.836H1325.24V-83.1772Z" fill="#3A3C42" fill-opacity="0.08"/></g><mask id="mask20_14_206" style="mask-type:luminance" maskUnits="userSpaceOnUse" x="766" y="-91" width="560" height="433"><path d="M766.913 341.836C793.616 308.025 813.331 270.403 824.751 232.696C834.41 200.797 838.141 168.848 835.148 139.119C827.099 59.1602 829.183 -2.6031 863.708 -36.0903C898.271 -69.5945 965.181 -74.6689 1086.75 -41.1988C1140.97 -26.2662 1189.62 -27.428 1231.97 -39.6269C1267.67 -49.8952 1298.9 -68.0056 1325.24 -90.8828V-89.2426C1298.95 -66.6046 1267.86 -48.6992 1232.37 -38.4993C1189.77 -26.2491 1140.85 -25.0703 1086.37 -40.0712C965.37 -73.3875 898.877 -68.4327 864.674 -35.2873C830.452 -2.12473 828.444 59.3652 836.455 139.017C839.466 168.899 835.716 200.985 826.02 233.02C814.638 270.591 795.055 308.093 768.522 341.836H766.913Z" fill="white"/></mask><g mask="url(#mask20_14_206)"><path d="M1325.24 -90.8828H766.913V341.836H1325.24V-90.8828Z" fill="#3A3C42" fill-opacity="0.08"/></g><rect width="787" height="260" fill="url(#paint0_linear_14_206)"/></g><defs><linearGradient id="paint0_linear_14_206" x1="-3.6108e-06" y1="120.5" x2="787" y2="120.5" gradientUnits="userSpaceOnUse"><stop stop-color="#F5F5F5"/><stop offset="1" stop-color="#F5F5F5" stop-opacity="0"/></linearGradient><clipPath id="clip0_14_206"><rect width="786" height="260" fill="white"/></clipPath></defs></svg>