<svg width="1920" height="651" viewBox="0 0 1920 651" fill="none" xmlns="http://www.w3.org/2000/svg"><g clip-path="url(#clip0_59_353)"><mask id="mask0_59_353" style="mask-type:luminance" maskUnits="userSpaceOnUse" x="-98" y="52" width="2019" height="391"><path d="M-97.9626 84.8796C-9.5268 99.9801 72.0464 153.521 166.336 269.413C202.437 313.804 243.641 348.528 288.047 374.804C382.192 430.502 490.725 448.046 595.539 438.611C700.382 429.151 801.534 392.66 880.858 340.211C925.869 310.452 963.844 275.598 991.497 237.626C1065.83 135.509 1133.16 63.6973 1209.49 53.301C1285.84 42.9048 1370.96 93.9503 1480.76 237.6C1529.72 301.667 1588.95 341.796 1652.24 363.446C1719.86 386.578 1792.18 388.579 1861.58 376.104C1881.42 372.543 1901.03 367.787 1920.2 362.017V363.914C1901.14 369.632 1881.68 374.336 1861.99 377.871C1792.23 390.399 1719.54 388.371 1651.55 365.136C1587.91 343.382 1528.37 303.018 1479.15 238.64C1369.86 95.6657 1285.38 44.8021 1209.83 55.0944C1134.23 65.3866 1067.27 136.913 993.227 238.614C965.459 276.768 927.311 311.803 882.098 341.666C802.485 394.271 701.016 430.918 595.799 440.405C490.552 449.891 381.586 432.243 287.009 376.338C242.43 349.957 201.053 315.078 164.779 270.504C71.0949 155.366 -10.017 102.033 -97.905 86.8808V84.8796H-97.9626Z" fill="white"/></mask><g mask="url(#mask0_59_353)"><path d="M1920.14 42.8789H-97.9628V449.865H1920.14V42.8789Z" fill="white" fill-opacity="0.08"/></g><mask id="mask1_59_353" style="mask-type:luminance" maskUnits="userSpaceOnUse" x="-98" y="58" width="2019" height="413"><path d="M-97.9628 130.857C-6.0668 141.331 79.4856 191.986 180.955 308.294C218.699 351.568 261.173 385.044 306.53 409.943C402.693 462.756 511.803 477.025 616.214 464.393C720.653 451.762 820.363 412.23 897.697 357.416C941.555 326.332 978.233 290.309 1004.44 251.531C1074.94 147.231 1139.53 73.4174 1215.46 60.734C1291.38 48.0246 1378.37 96.471 1493.42 236.716C1544.75 299.275 1605.41 337.585 1669.49 357.286C1737.94 378.339 1810.28 378.183 1879.17 363.602C1892.98 360.691 1906.68 357.182 1920.17 353.154V355.051C1906.82 359.028 1893.3 362.458 1879.63 365.369C1810.37 380.002 1737.68 380.184 1668.85 359.002C1604.43 339.171 1543.42 300.653 1491.84 237.782C1377.3 98.1864 1290.97 49.9219 1215.83 62.5013C1140.66 75.0808 1076.41 148.582 1006.17 252.466C979.847 291.426 942.997 327.605 898.966 358.82C821.372 413.816 721.316 453.477 616.502 466.161C511.659 478.844 402.088 464.497 305.52 411.451C259.962 386.448 217.315 352.816 179.426 309.386C78.534 193.806 -6.55698 143.332 -97.9628 132.832V130.857Z" fill="white"/></mask><g mask="url(#mask1_59_353)"><path d="M1920.14 48.0254H-97.9628V478.845H1920.14V48.0254Z" fill="white" fill-opacity="0.08"/></g><mask id="mask2_59_353" style="mask-type:luminance" maskUnits="userSpaceOnUse" x="-98" y="65" width="2019" height="434"><path d="M-97.9712 177.639C-2.49968 182.993 87.0319 230.426 196.056 347.15C235.386 389.255 279.071 421.431 325.321 444.952C423.388 494.828 532.988 505.796 636.851 490.02C740.771 474.244 838.953 431.697 914.211 374.596C956.915 342.186 992.209 305.097 1016.95 265.539C1083.53 159.16 1145.35 83.4495 1220.72 68.453C1296.15 53.4564 1384.88 99.2518 1505.09 235.936C1558.72 296.91 1620.78 333.375 1685.54 351.126C1754.74 370.099 1827.03 367.734 1895.34 351.1C1903.67 349.073 1911.92 346.838 1920.11 344.395V346.292C1912.09 348.657 1903.99 350.866 1895.86 352.842C1827.2 369.58 1754.54 371.945 1684.96 352.842C1619.82 334.986 1557.43 298.314 1503.53 237.054C1383.87 100.993 1295.78 55.3797 1221.16 70.2203C1146.5 85.0609 1085 160.46 1018.68 266.423C993.795 306.163 958.357 343.433 915.48 375.973C839.962 433.283 741.434 475.959 637.168 491.787C532.873 507.616 422.811 496.596 324.312 446.512C277.859 422.886 233.973 390.58 194.499 348.319C86.0803 232.272 -3.01871 184.995 -98 179.615V177.639H-97.9712Z" fill="white"/></mask><g mask="url(#mask2_59_353)"><path d="M1920.14 53.4561H-97.9721V507.615H1920.14V53.4561Z" fill="white" fill-opacity="0.08"/></g><mask id="mask3_59_353" style="mask-type:luminance" maskUnits="userSpaceOnUse" x="-98" y="72" width="2019" height="455"><path d="M-97.9628 225.333C1.14185 225.021 94.6238 268.867 211.664 385.955C252.551 426.838 297.418 457.663 344.505 479.78C444.388 526.641 554.306 534.309 657.562 515.388C760.819 496.466 857.386 451.009 930.453 391.646C971.918 357.963 1005.8 319.835 1029.07 279.549C1091.64 171.22 1150.61 93.6906 1225.4 76.4069C1300.23 59.1232 1390.6 102.215 1515.85 235.183C1571.71 294.494 1635.11 329.061 1700.48 344.837C1770.35 361.705 1842.49 357.157 1910.17 338.47C1913.51 337.56 1916.83 336.598 1920.14 335.611V337.508C1917.03 338.444 1913.89 339.327 1910.74 340.211C1842.72 359.002 1770.2 363.577 1699.96 346.605C1634.22 330.725 1570.47 295.975 1514.33 236.353C1389.64 104.009 1299.94 61.0724 1225.89 78.1482C1151.82 95.25 1093.2 172.468 1030.86 280.381C1007.47 320.848 973.417 359.158 931.78 392.998C858.453 452.568 761.569 498.182 657.937 517.181C554.277 536.154 443.898 528.487 343.582 481.418C296.293 459.222 251.225 428.241 210.164 387.202C93.7587 270.686 0.680496 227.022 -97.9628 227.282V225.333Z" fill="white"/></mask><g mask="url(#mask3_59_353)"><path d="M1920.14 59.1494H-97.9628V536.154H1920.14V59.1494Z" fill="white" fill-opacity="0.08"/></g><mask id="mask4_59_353" style="mask-type:luminance" maskUnits="userSpaceOnUse" x="-98" y="79" width="2019" height="477"><path d="M-97.9628 274.013C4.80385 267.437 102.236 307.281 227.782 424.68C270.169 464.316 316.16 493.763 364.055 514.426C465.61 558.246 575.759 562.56 678.237 540.546C780.744 518.532 875.552 470.138 946.37 408.618C986.566 373.713 1019 334.571 1040.77 293.61C1099.28 183.436 1155.33 104.165 1229.41 84.6456C1303.54 65.1267 1395.47 105.464 1525.6 234.559C1583.64 292.154 1648.29 324.772 1714.21 338.573C1783.47 353.076 1854.17 346.812 1920.14 326.904V328.801C1854.03 348.658 1783.18 354.87 1713.78 340.341C1647.46 326.462 1582.46 293.662 1524.13 235.781C1394.6 107.283 1303.34 67.076 1229.99 86.387C1156.6 105.724 1100.87 184.657 1042.59 294.389C1020.73 335.559 988.123 374.882 947.783 409.944C876.706 471.697 781.58 520.221 678.727 542.339C575.845 564.457 465.235 560.117 363.218 516.089C315.122 495.323 268.929 465.745 226.369 425.954C101.4 309.1 4.40017 269.439 -97.9628 275.962V274.013Z" fill="white"/></mask><g mask="url(#mask4_59_353)"><path d="M1920.14 65.1533H-97.9628V564.458H1920.14V65.1533Z" fill="white" fill-opacity="0.08"/></g><mask id="mask5_59_353" style="mask-type:luminance" maskUnits="userSpaceOnUse" x="-98" y="87" width="2019" height="498"><path d="M-97.9628 323.889C8.55235 310.4 109.848 345.695 244.391 463.38C288.22 501.716 335.278 529.76 383.922 548.967C487.063 589.694 597.327 590.682 698.911 565.575C800.525 540.468 893.487 489.241 961.97 425.616C1000.84 389.515 1031.81 349.412 1052.02 307.801C1106.4 195.937 1159.46 115.003 1232.78 93.2486C1306.14 71.4945 1399.54 109.025 1534.39 234.117C1594.54 289.919 1660.37 320.562 1726.78 332.362C1792.26 344.006 1858.35 337.326 1920.14 318.327V320.224C1858.24 339.145 1792.03 345.773 1726.4 334.129C1659.62 322.252 1593.42 291.427 1532.98 235.365C1398.76 110.844 1306.02 73.4178 1233.45 94.964C1160.81 116.51 1108.05 197.081 1053.89 308.529C1033.57 350.321 1002.45 390.607 963.44 426.864C894.698 490.722 801.447 542.106 699.459 567.317C597.442 592.527 486.746 591.54 383.143 550.631C334.297 531.346 287.037 503.172 243.036 464.68C109.041 347.514 8.14867 312.375 -97.9628 325.812V323.889Z" fill="white"/></mask><g mask="url(#mask5_59_353)"><path d="M1920.14 71.4688H-97.9628V592.502H1920.14V71.4688Z" fill="white" fill-opacity="0.08"/></g><mask id="mask6_59_353" style="mask-type:luminance" maskUnits="userSpaceOnUse" x="-98" y="94" width="2019" height="520"><path d="M-97.9628 375.012C12.3585 353.856 117.345 384.083 261.49 501.924C306.731 538.909 354.799 565.523 404.135 583.248C508.718 620.831 618.953 618.492 719.557 590.318C820.19 562.144 911.192 508.136 977.281 442.484C1014.77 405.213 1044.23 364.2 1062.92 322.017C1113.09 208.568 1163.12 126.074 1235.58 102.111C1308.1 78.1478 1402.82 112.819 1542.27 233.779C1604.46 287.736 1671.39 316.377 1738.2 326.15C1800.22 335.246 1862.19 328.073 1920.17 309.802V311.699C1862.1 329.892 1800.05 337.014 1737.88 327.917C1670.7 318.067 1603.4 289.269 1540.88 235.053C1402.07 114.665 1308.01 80.0711 1236.27 103.774C1164.48 127.504 1114.74 209.634 1064.77 322.641C1046.02 365.032 1016.41 406.227 978.752 443.653C912.432 509.565 821.141 563.73 720.163 592.007C619.155 620.285 508.459 622.65 403.414 584.886C353.876 567.082 305.578 540.364 260.163 503.224C116.596 385.902 11.9837 355.831 -97.9628 376.961V375.012Z" fill="white"/></mask><g mask="url(#mask6_59_353)"><path d="M1920.14 78.1475H-97.9628V622.676H1920.14V78.1475Z" fill="white" fill-opacity="0.08"/></g><mask id="mask7_59_353" style="mask-type:luminance" maskUnits="userSpaceOnUse" x="-98" y="102" width="2019" height="541"><path d="M-97.9628 427.565C16.1935 397.909 124.756 422.47 279.108 540.39C325.705 575.971 374.723 601.13 424.694 617.348C530.632 651.759 640.723 646.067 740.202 614.879C839.74 583.69 928.666 526.953 992.275 459.325C1028.35 420.937 1056.29 379.066 1073.36 336.338C1119.29 221.433 1166.21 137.484 1237.74 111.337C1309.31 85.1908 1405.3 117.003 1549.16 233.649C1613.32 285.682 1681.28 312.296 1748.41 320.042C1807.31 326.851 1865.59 319.158 1920.14 301.406V303.33C1865.5 321.003 1807.14 328.644 1748.15 321.835C1680.62 314.038 1612.31 287.293 1547.8 234.974C1404.61 118.849 1309.31 87.1141 1238.49 113.001C1167.62 138.887 1120.99 222.473 1075.23 336.935C1058.08 379.872 1030.02 421.951 993.774 460.495C929.963 528.356 840.72 585.275 740.837 616.594C640.925 647.913 530.402 653.631 424.002 619.063C373.83 602.767 324.58 577.53 277.81 541.793C124.035 424.29 15.8764 399.885 -97.9628 429.54V427.565Z" fill="white"/></mask><g mask="url(#mask7_59_353)"><path d="M1920.14 85.1904H-97.9628V653.604H1920.14V85.1904Z" fill="white" fill-opacity="0.08"/></g><mask id="mask8_59_353" style="mask-type:luminance" maskUnits="userSpaceOnUse" x="-98" y="110" width="2019" height="563"><path d="M-97.9628 481.782C20.1439 442.692 131.936 460.834 297.187 578.727C345.053 612.878 395.023 636.53 445.541 651.241C552.691 682.429 662.493 673.411 760.79 639.233C859.088 605.029 945.88 545.667 1006.92 476.142C1041.55 436.688 1067.91 393.986 1083.39 350.764C1125.03 234.534 1168.77 149.207 1239.3 120.929C1309.86 92.6253 1406.97 121.501 1555.1 233.754C1621.16 283.812 1690.07 308.347 1757.46 314.091C1813.57 318.873 1868.65 310.582 1920.14 293.169V295.092C1868.56 312.454 1813.46 320.667 1757.26 315.884C1689.5 310.114 1620.21 285.449 1553.8 235.132C1406.37 123.398 1309.95 94.5746 1240.11 122.566C1170.24 150.584 1126.73 235.547 1085.27 351.309C1069.72 394.74 1043.25 437.65 1008.45 477.26C947.177 547.018 860.126 606.615 761.482 640.922C662.81 675.256 552.547 684.301 444.907 652.982C394.158 638.219 343.986 614.464 295.918 580.182C131.273 462.653 19.8267 444.668 -97.9628 483.809V481.782Z" fill="white"/></mask><g mask="url(#mask8_59_353)"><path d="M1920.14 92.625H-97.9628V684.274H1920.14V92.625Z" fill="white" fill-opacity="0.08"/></g><mask id="mask9_59_353" style="mask-type:luminance" maskUnits="userSpaceOnUse" x="-98" y="119" width="2019" height="583"><path d="M-97.9628 537.843C24.1519 488.227 138.856 499.221 315.757 616.932C364.891 649.628 415.669 671.746 466.735 684.897C574.98 712.811 684.408 700.492 781.35 663.351C878.32 626.211 962.835 564.223 1021.28 492.905C1054.41 452.438 1079.18 408.956 1093.02 365.291C1130.31 247.866 1170.88 161.265 1240.31 130.857C1309.77 100.448 1407.9 126.36 1560.12 234.065C1628.02 282.096 1697.8 304.551 1765.36 308.216C1819.05 311.153 1871.33 302.238 1920.17 284.929V286.852C1871.3 304.084 1818.96 312.92 1765.25 310.009C1697.28 306.293 1627.13 283.759 1558.9 235.469C1407.38 128.257 1309.95 102.371 1241.2 132.468C1172.43 162.565 1132.09 248.802 1094.98 365.759C1081.06 409.631 1056.2 453.321 1022.9 493.945C964.277 565.523 879.474 627.692 782.157 664.989C684.811 702.285 574.951 714.657 466.216 686.613C414.948 673.384 363.91 651.188 314.603 618.336C138.279 500.988 23.9501 490.202 -97.9051 539.844V537.843H-97.9628Z" fill="white"/></mask><g mask="url(#mask9_59_353)"><path d="M1920.14 100.474H-97.9628V714.709H1920.14V100.474Z" fill="white" fill-opacity="0.08"/></g><mask id="mask10_59_353" style="mask-type:luminance" maskUnits="userSpaceOnUse" x="-98" y="127" width="2019" height="605"><path d="M-97.9628 596.036C28.3041 534.698 145.43 537.609 334.788 654.982C385.104 686.171 436.689 706.73 488.217 718.347C597.442 742.986 706.351 727.34 801.851 687.289C897.38 647.237 979.559 582.729 1035.3 509.669C1066.93 468.214 1090.02 424.03 1102.25 379.95C1135.12 261.459 1172.46 173.689 1240.71 141.201C1309.02 108.713 1408.04 131.636 1564.18 234.689C1633.82 280.64 1704.4 300.965 1772.05 302.602C1823.66 303.85 1873.61 294.233 1920.12 276.846V278.795C1873.55 296.105 1823.61 305.643 1771.99 304.396C1703.94 302.758 1632.98 282.33 1562.97 236.144C1407.55 133.586 1309.2 110.662 1241.61 142.812C1173.99 174.989 1136.91 262.369 1104.15 380.392C1091.87 424.654 1068.66 469.072 1036.88 510.683C980.943 584.002 898.505 648.719 802.63 688.9C706.726 729.107 597.385 744.806 487.669 720.063C435.939 708.393 384.124 687.73 333.605 656.412C144.825 539.428 28.0734 536.725 -97.9628 598.141V596.036Z" fill="white"/></mask><g mask="url(#mask10_59_353)"><path d="M1920.14 108.738H-97.9628V744.831H1920.14V108.738Z" fill="white" fill-opacity="0.08"/></g><mask id="mask11_59_353" style="mask-type:luminance" maskUnits="userSpaceOnUse" x="-98" y="136" width="2019" height="627"><path d="M-97.9628 656.672C32.6581 582.235 151.572 576.05 354.28 692.877C405.721 722.532 458.056 741.532 509.987 751.564C620.077 772.876 728.323 753.955 822.295 711.045C916.296 668.108 995.995 601.183 1048.99 526.486C1079.04 484.095 1100.52 439.235 1111.1 394.817C1139.56 275.417 1173.59 186.529 1240.6 152.014C1307.64 117.472 1407.46 137.407 1567.38 235.651C1638.69 279.471 1710 297.639 1777.67 297.249C1827.61 296.937 1875.57 286.541 1920.17 268.867V270.842C1875.6 288.412 1827.61 298.756 1777.7 299.068C1709.62 299.484 1637.94 281.213 1566.26 237.159C1407.09 139.356 1307.96 119.421 1241.61 153.599C1175.23 187.803 1141.41 276.274 1113.06 395.207C1102.42 439.833 1080.88 484.901 1050.69 527.473C997.523 602.43 917.536 669.616 823.217 712.682C728.871 755.774 620.164 774.773 509.583 753.357C457.45 743.273 404.885 724.196 353.242 694.411C150.995 577.869 32.4851 584.289 -97.9628 658.856V656.672Z" fill="white"/></mask><g mask="url(#mask11_59_353)"><path d="M1920.14 117.473H-97.9628V774.748H1920.14V117.473Z" fill="white" fill-opacity="0.08"/></g><mask id="mask12_59_353" style="mask-type:luminance" maskUnits="userSpaceOnUse" x="-98" y="145" width="2019" height="648"><path d="M-97.9628 720.089C37.2428 630.967 157.137 614.515 374.262 730.589C426.799 758.659 479.797 776.072 532.045 784.545C642.857 802.505 750.352 780.335 842.681 734.591C935.038 688.848 1012.2 619.531 1062.37 543.275C1090.83 500.001 1110.61 454.491 1119.55 409.813C1143.54 289.607 1174.25 199.758 1239.94 163.241C1305.65 126.698 1406.17 143.592 1569.63 236.95C1642.52 278.587 1714.47 294.597 1782.11 292.154C1830.76 290.387 1877.18 279.081 1920.17 260.887V262.863C1877.21 280.926 1830.82 292.18 1782.2 293.921C1714.18 296.39 1641.86 280.302 1568.59 238.458C1405.88 145.515 1306.05 128.595 1241 164.748C1175.92 200.927 1145.42 290.387 1121.54 410.125C1112.57 455.037 1092.71 500.754 1064.13 544.185C1013.79 620.727 936.336 690.278 843.661 736.177C750.958 782.102 643.03 804.35 531.728 786.313C479.22 777.788 425.991 760.322 373.253 732.148C156.618 616.334 37.1275 633.072 -97.9628 722.376V720.089Z" fill="white"/></mask><g mask="url(#mask12_59_353)"><path d="M1920.14 126.672H-97.9628V804.376H1920.14V126.672Z" fill="white" fill-opacity="0.08"/></g><mask id="mask13_59_353" style="mask-type:luminance" maskUnits="userSpaceOnUse" x="-98" y="154" width="2019" height="670"><path d="M-97.9628 786.729C42.2601 681.129 162.097 653.085 394.706 768.094C448.252 794.552 501.884 810.354 554.421 817.242C665.838 831.848 772.44 806.43 863.009 757.931C953.608 709.407 1028.15 637.803 1075.46 560.065C1102.31 515.959 1120.39 469.878 1127.62 424.94C1147.12 304.084 1174.45 213.351 1238.75 174.859C1303.08 136.341 1404.18 150.194 1571.02 238.562C1645.44 277.963 1717.93 291.79 1785.43 287.294C1833.18 284.123 1878.45 271.752 1920.17 252.831V254.858C1878.51 273.675 1833.27 285.943 1785.57 289.113C1717.7 293.636 1644.8 279.757 1570.01 240.147C1403.92 152.195 1303.52 138.29 1239.85 176.392C1176.15 214.52 1149.02 304.838 1129.59 425.226C1122.29 470.398 1104.15 516.661 1077.19 560.975C1029.73 638.972 954.905 710.836 864.018 759.517C773.103 808.223 666.04 833.746 554.133 819.061C501.365 812.148 447.502 796.293 393.725 769.705C161.607 654.905 42.2024 683.286 -97.9628 789.12V786.729Z" fill="white"/></mask><g mask="url(#mask13_59_353)"><path d="M1920.14 136.341H-97.9628V833.694H1920.14V136.341Z" fill="white" fill-opacity="0.08"/></g><mask id="mask14_59_353" style="mask-type:luminance" maskUnits="userSpaceOnUse" x="-84" y="164" width="2005" height="681"><path d="M708.534 844.974C771.279 834.162 830.274 811.654 883.243 781.063C971.968 729.836 1043.82 656.022 1088.2 576.881C1113.37 531.995 1129.72 485.394 1135.29 440.249C1150.28 318.873 1174.21 227.36 1237.04 186.945C1299.9 146.503 1401.43 157.289 1571.5 240.563C1647.33 277.704 1720.31 289.321 1787.58 282.772C1834.87 278.172 1879.37 264.63 1920.14 244.644V246.697C1879.42 266.502 1834.99 279.965 1787.81 284.565C1720.14 291.141 1646.78 279.471 1570.55 242.149C1401.29 159.265 1300.42 148.401 1238.23 188.426C1176 228.478 1152.21 319.549 1137.28 440.457C1131.68 485.81 1115.25 532.619 1089.96 577.687C1045.41 657.088 973.323 731.161 884.282 782.57C833.85 811.68 777.968 833.538 718.598 844.948H708.534V844.974ZM-83.5532 844.974C55.8335 730.355 174.517 695.528 415.574 805.39C458.25 824.831 500.752 837.748 542.505 844.974H532.47C493.63 837.462 454.242 825.039 414.652 807.002C175.757 698.127 57.5059 731.993 -80.5544 844.974H-83.5532Z" fill="white"/></mask><g mask="url(#mask14_59_353)"><path d="M1920.14 146.529H-83.5532V844.974H1920.14V146.529Z" fill="white" fill-opacity="0.08"/></g><mask id="mask15_59_353" style="mask-type:luminance" maskUnits="userSpaceOnUse" x="5" y="174" width="1916" height="671"><path d="M823.477 844.974C851.446 833.486 878.176 819.685 903.377 804.013C990.141 750.134 1059.2 674.19 1100.64 593.749C1124.14 548.109 1138.73 501.066 1142.62 455.765C1153.09 333.999 1173.62 241.837 1234.89 199.524C1296.19 157.211 1398.09 164.904 1571.13 242.98C1648.32 277.807 1721.68 287.216 1788.69 278.639C1835.95 272.609 1880.04 257.613 1920.14 236.327V238.406C1880.12 259.536 1836.09 274.403 1788.98 280.433C1721.59 289.061 1647.83 279.601 1570.26 244.592C1398.01 166.88 1296.8 159.057 1236.13 200.953C1175.43 242.85 1155.05 334.597 1144.64 455.895C1140.72 501.404 1126.07 548.681 1102.48 594.477C1060.93 675.177 991.64 751.408 904.56 805.468C880.425 820.439 854.935 833.72 828.292 844.948H823.477V844.974ZM5.87031 844.974C116.97 769.497 232.482 756.944 436.891 842.479C438.909 843.336 440.927 844.168 442.975 844.974H438.13L436.054 844.116C234.125 759.621 119.248 771.316 9.33046 844.974H5.87031Z" fill="white"/></mask><g mask="url(#mask15_59_353)"><path d="M1920.14 157.237H5.87031V844.974H1920.14V157.237Z" fill="white" fill-opacity="0.08"/></g><mask id="mask16_59_353" style="mask-type:luminance" maskUnits="userSpaceOnUse" x="120" y="184" width="1801" height="661"><path d="M894.214 844.973C904.191 839.203 913.937 833.121 923.452 826.78C1008.17 770.302 1074.37 692.305 1112.75 610.668C1134.55 564.353 1147.38 516.868 1149.57 471.489C1155.48 349.463 1172.58 256.729 1232.27 212.597C1291.99 168.439 1394.09 173.065 1569.95 245.865C1648.38 278.327 1722.06 285.5 1788.72 274.922C1836.39 267.359 1880.47 250.699 1920.18 227.697V229.828C1880.53 252.622 1836.59 269.152 1789.07 276.689C1722.03 287.346 1647.98 280.12 1569.15 247.502C1394.09 175.04 1292.65 170.284 1233.57 214C1174.46 257.716 1157.5 350.035 1151.62 471.567C1149.4 517.154 1136.51 564.847 1114.63 611.37C1076.1 693.292 1009.67 771.55 924.664 828.235C915.927 834.057 907.017 839.645 897.905 844.973H894.214ZM120.004 844.973C184.132 822.205 257.142 820.49 352.642 844.973H345.174C256.219 823.141 187.016 824.597 126.088 844.973H120.004Z" fill="white"/></mask><g mask="url(#mask16_59_353)"><path d="M1920.15 168.465H120.004V844.973H1920.15V168.465Z" fill="white" fill-opacity="0.08"/></g><mask id="mask17_59_353" style="mask-type:luminance" maskUnits="userSpaceOnUse" x="949" y="194" width="972" height="651"><path d="M949.405 844.973C1029.02 786.417 1090.06 708.367 1124.52 627.64C1144.56 580.701 1155.63 532.853 1156.15 487.447C1157.53 365.318 1171.14 272.115 1229.16 226.216C1287.2 180.291 1389.42 181.824 1567.88 249.244C1647.49 279.315 1721.37 284.279 1787.6 271.674C1836.13 262.447 1880.56 243.786 1920.12 218.679V220.888C1880.65 245.761 1836.36 264.24 1788 273.441C1721.39 286.124 1647.12 281.16 1567.1 250.907C1389.45 183.773 1287.89 182.11 1230.46 227.568C1173.02 273.051 1159.49 365.811 1158.14 487.473C1157.62 533.113 1146.52 581.169 1126.39 628.316C1092.08 708.679 1031.53 786.417 952.576 845H949.405V844.973Z" fill="white"/></mask><g mask="url(#mask17_59_353)"><path d="M1920.12 180.265H949.405V844.973H1920.12V180.265Z" fill="white" fill-opacity="0.08"/></g><mask id="mask18_59_353" style="mask-type:luminance" maskUnits="userSpaceOnUse" x="995" y="205" width="926" height="640"><path d="M995.562 844.974C1059.78 787.482 1108.31 716.788 1136.04 644.664C1154.33 597.128 1163.61 548.993 1162.43 503.587C1159.26 381.484 1169.41 287.918 1225.66 240.277C1281.95 192.61 1384.17 191.051 1565.05 253.064C1645.73 280.718 1719.74 283.421 1785.49 268.841C1835.4 257.743 1880.53 236.69 1920.14 208.984V211.272C1880.61 238.692 1835.66 259.562 1785.98 270.608C1719.89 285.293 1645.44 282.564 1564.35 254.78C1384.31 193.052 1282.73 194.456 1227.05 241.629C1171.31 288.827 1161.27 381.952 1164.45 503.587C1165.63 549.201 1156.32 597.569 1137.95 645.288C1110.3 717.126 1062.14 787.56 998.388 845H995.562V844.974Z" fill="white"/></mask><g mask="url(#mask18_59_353)"><path d="M1920.14 191.051H995.562V844.973H1920.14V191.051Z" fill="white" fill-opacity="0.08"/></g><mask id="mask19_59_353" style="mask-type:luminance" maskUnits="userSpaceOnUse" x="1035" y="198" width="886" height="647"><path d="M1035.26 844.974C1086.7 790.004 1125.08 726.223 1147.22 661.766C1163.75 613.71 1171.21 565.315 1168.36 519.962C1160.66 398.014 1167.29 304.214 1221.76 254.91C1276.23 205.58 1378.36 200.928 1561.43 257.405C1643.09 282.616 1717.2 283.084 1782.34 266.502C1834.15 253.325 1880.34 229.335 1920.16 198.433V200.798C1880.43 231.389 1834.44 255.118 1782.88 268.243C1717.37 284.903 1642.89 284.461 1560.8 259.121C1378.56 202.877 1277.09 207.347 1223.17 256.184C1169.22 305.02 1162.68 398.43 1170.35 519.884C1173.23 565.445 1165.71 614.074 1149.16 662.312C1127.1 726.535 1088.98 790.108 1037.88 844.974H1035.26Z" fill="white"/></mask><g mask="url(#mask19_59_353)"><path d="M1920.14 198.433H1035.26V844.974H1920.14V198.433Z" fill="white" fill-opacity="0.08"/></g><mask id="mask20_59_353" style="mask-type:luminance" maskUnits="userSpaceOnUse" x="1070" y="186" width="851" height="659"><path d="M1070.06 844.974C1110.72 793.539 1140.74 736.308 1158.13 678.946C1172.83 630.422 1178.51 581.82 1173.96 536.596C1161.7 414.96 1164.87 321.004 1217.44 270.063C1270.06 219.095 1371.93 211.376 1557.02 262.292C1639.58 285.007 1713.65 283.24 1778.13 264.683C1832.48 249.062 1880.03 221.512 1920.14 186.711V189.206C1880.12 223.644 1832.77 250.882 1778.73 266.398C1713.88 285.033 1639.4 286.827 1556.45 264.007C1372.22 213.325 1270.98 220.863 1218.91 271.284C1166.8 321.732 1163.75 415.272 1175.95 536.44C1180.53 581.898 1174.82 630.708 1160.06 679.44C1142.73 736.593 1112.91 793.643 1072.52 844.974H1070.06Z" fill="white"/></mask><g mask="url(#mask20_59_353)"><path d="M1920.14 186.711H1070.06V844.974H1920.14V186.711Z" fill="white" fill-opacity="0.08"/></g><mask id="mask21_59_353" style="mask-type:luminance" maskUnits="userSpaceOnUse" x="1100" y="173" width="821" height="672"><path d="M1100.75 844.974C1132.27 797.749 1155.31 746.885 1168.66 696.23C1181.55 647.289 1185.41 598.531 1179.18 553.463C1162.4 432.269 1162.08 338.262 1212.75 285.761C1263.44 233.234 1364.96 222.422 1551.84 267.723C1635.2 287.918 1709.16 283.915 1772.92 263.435C1830.47 244.955 1879.75 213.039 1920.12 173.403V176.054C1879.81 215.222 1830.76 246.775 1773.58 265.15C1709.45 285.735 1635.09 289.789 1551.32 269.49C1365.31 224.397 1264.39 235.001 1214.25 286.982C1164.07 338.989 1164.48 432.555 1181.17 553.282C1187.43 598.557 1183.57 647.523 1170.62 696.671C1157.33 747.171 1134.4 797.879 1103.09 845H1100.75V844.974Z" fill="white"/></mask><g mask="url(#mask21_59_353)"><path d="M1920.12 173.43H1100.75V844.974H1920.12V173.43Z" fill="white" fill-opacity="0.08"/></g><mask id="mask22_59_353" style="mask-type:luminance" maskUnits="userSpaceOnUse" x="1128" y="157" width="793" height="688"><path d="M1128.05 844.974C1151.84 802.505 1169.05 757.879 1179 713.617C1190.07 664.313 1192.12 615.477 1184.19 570.617C1162.91 449.995 1159.07 356.065 1207.75 302.057C1256.45 248.022 1357.51 234.143 1545.98 273.779C1630.03 291.453 1703.79 285.215 1766.76 262.811C1828.38 240.901 1879.68 203.501 1920.13 157.913V160.798C1879.71 205.814 1828.67 242.72 1767.48 264.5C1704.16 287.034 1630 293.298 1545.52 275.546C1357.92 236.119 1257.49 249.764 1209.27 303.2C1161.06 356.689 1164.96 450.203 1186.12 570.331C1194.08 615.399 1192.03 664.443 1180.9 713.955C1170.98 758.087 1153.88 802.583 1130.24 844.948H1128.05V844.974Z" fill="white"/></mask><g mask="url(#mask22_59_353)"><path d="M1920.16 157.913H1128.05V844.974H1920.16V157.913Z" fill="white" fill-opacity="0.08"/></g><mask id="mask23_59_353" style="mask-type:luminance" maskUnits="userSpaceOnUse" x="1152" y="139" width="769" height="706"><path d="M1152.21 844.974C1169.51 807.652 1181.88 769.16 1188.97 731.11C1198.2 681.494 1198.43 632.631 1188.86 588.032C1163.11 468.137 1155.78 374.363 1202.41 318.899C1249.06 263.435 1349.58 246.489 1539.4 280.407C1624.06 295.534 1697.56 287.061 1759.67 262.76C1826.02 236.795 1879.39 192.793 1919.47 140.214L1920.19 139.278V142.449C1880.02 194.768 1826.68 238.536 1760.48 264.423C1698.02 288.854 1624.15 297.379 1539.05 282.174C1350.1 248.439 1250.22 265.099 1204.02 319.991C1157.83 374.909 1165.18 468.241 1190.85 587.694C1200.48 632.501 1200.25 681.572 1190.99 731.395C1183.93 769.342 1171.61 807.73 1154.43 844.974H1152.21Z" fill="white"/></mask><g mask="url(#mask23_59_353)"><path d="M1920.13 139.278H1152.21V844.974H1920.13V139.278Z" fill="white" fill-opacity="0.08"/></g><mask id="mask24_59_353" style="mask-type:luminance" maskUnits="userSpaceOnUse" x="1166" y="115" width="755" height="730"><path d="M1173.6 844.974C1185.53 813.11 1193.95 780.699 1198.68 748.731C1206.06 698.881 1204.45 650.019 1193.23 605.731C1163.04 486.668 1152.2 393.18 1196.75 336.339C1241.33 279.497 1341.15 259.537 1532.13 287.658C1617.3 300.212 1690.46 289.504 1751.59 263.357C1816.93 235.417 1868.63 189.804 1906.72 136.055C1911.39 129.454 1915.89 122.722 1920.15 115.887V119.525C1916.41 125.451 1912.48 131.273 1908.42 137.017C1870.13 191.051 1818.17 236.899 1752.45 264.995C1690.95 291.297 1617.42 302.057 1531.81 289.426C1341.7 261.408 1242.48 281.109 1198.39 337.352C1154.28 393.622 1165.09 486.694 1195.19 605.289C1206.47 649.785 1208.08 698.829 1200.67 748.913C1195.94 780.803 1187.58 813.136 1175.73 844.922H1173.6V844.974Z" fill="white"/></mask><g mask="url(#mask24_59_353)"><path d="M1920.15 115.887H1152.2V844.974H1920.15V115.887Z" fill="white" fill-opacity="0.08"/></g><mask id="mask25_59_353" style="mask-type:luminance" maskUnits="userSpaceOnUse" x="1164" y="84" width="757" height="762"><path d="M1192.32 844.975C1199.93 818.802 1205.18 792.448 1208.06 766.457C1213.57 716.399 1210.16 667.615 1197.28 623.717C1162.67 505.642 1148.37 412.518 1190.76 354.377C1233.2 296.21 1332.19 273.234 1524.12 295.586C1609.73 305.54 1682.42 292.649 1742.57 264.657C1806.84 234.742 1856.81 187.595 1892.88 132.729C1903.06 117.239 1912.14 101.15 1920.1 84.6465V89.1168C1912.55 104.373 1904.04 119.292 1894.58 133.665C1858.34 188.817 1808.11 236.223 1743.46 266.295C1682.97 294.442 1609.9 307.412 1523.86 297.405C1332.83 275.157 1234.39 297.847 1192.4 355.39C1150.39 412.985 1164.69 505.668 1199.18 623.275C1212.12 667.381 1215.56 716.373 1210.02 766.665C1207.17 792.604 1201.92 818.88 1194.36 845.001H1192.32V844.975Z" fill="white"/></mask><g mask="url(#mask25_59_353)"><path d="M1920.13 84.6465H1148.37V844.974H1920.13V84.6465Z" fill="white" fill-opacity="0.08"/></g><rect y="-4" width="1920" height="686" fill="url(#paint0_linear_59_353)"/></g><defs><linearGradient id="paint0_linear_59_353" x1="-8.80907e-06" y1="313.935" x2="1920" y2="313.935" gradientUnits="userSpaceOnUse"><stop stop-color="#3C3D43"/><stop offset="1" stop-color="#3C3D43" stop-opacity="0.6"/></linearGradient><clipPath id="clip0_59_353"><rect width="1920" height="651" fill="white"/></clipPath></defs></svg>