<svg width="1069" height="154" viewBox="0 0 1069 154" fill="none" xmlns="http://www.w3.org/2000/svg"><path d="M762.004 0.5H765.288C787.71 0.500004 803.007 1.59251 810.642 2.68164C829.702 6.49548 841.526 14.6274 845.827 28.0537V28.0547C846.904 31.5534 847.723 37.2506 848.271 44.9746C848.817 52.6879 849.09 62.3885 849.09 73.873C849.09 85.0833 848.816 96.429 848.338 105.79C847.859 115.161 847.176 122.492 846.37 125.725C842.67 138.393 831.16 146.999 811.569 150.902L810.631 151.084L810.619 151.087C803.018 152.715 787.749 153.265 765.288 153.265H762.004C739.592 153.265 724.298 152.173 716.66 151.084H716.661C696.504 147.272 684.686 138.599 680.924 125.735C680.117 122.508 679.433 115.172 678.953 105.79C678.475 96.429 678.201 85.0833 678.201 73.873C678.201 62.1146 678.475 52.2775 679.021 44.5645C679.535 37.3202 680.286 31.9863 681.262 28.6963L681.46 28.0654L681.462 28.0596C685.695 14.8358 697.226 6.74793 715.777 2.86133L716.666 2.67871L716.673 2.67773C724.274 1.04961 739.543 0.5 762.004 0.5ZM1026.4 1.59473C1036.32 1.59476 1043.86 3.6659 1049.6 7.03223C1055.33 10.3976 1059.29 15.0759 1062.02 20.3408C1067.5 30.8931 1068.05 43.7781 1068.05 53.0791C1068.05 64.5639 1067.09 77.5808 1061.41 87.7188C1058.58 92.7762 1054.57 97.116 1048.92 100.195C1043.26 103.276 1035.92 105.11 1026.4 105.11H938.817C937.834 105.11 936.892 105.597 936.206 106.283C935.52 106.969 935.033 107.91 935.033 108.894V153.265H905.925V1.59473H1026.4ZM385.382 2.1416H408.968V152.717H379.86V54.7266L378.945 56.082L313.67 152.87L248.395 56.082L247.48 54.7266V153.265H218.372V2.68848H239.769C243.705 2.68848 246.036 4.24746 247.804 6.3418C248.699 7.40304 249.451 8.60417 250.195 9.83496C250.929 11.0482 251.659 12.3 252.493 13.415L313.251 106.431L313.669 107.071L314.088 106.432L376.477 11.2422C377.042 10.5331 377.637 9.5883 378.26 8.60352C378.894 7.60094 379.568 6.54157 380.306 5.56934C381.804 3.59493 383.452 2.1416 385.382 2.1416ZM79.9229 2.68848H169.199V153.265H140.091V105.11H51.1289L50.998 105.412L30.3262 153.265H0.754883L59.0342 16.0645L59.0332 16.0635C62.7868 8.04083 71.3639 2.68848 79.9229 2.68848ZM504.17 2.1416H616.438V127.451H634.503V152.717H452.118V126.904H468.455L468.532 126.497L488.786 19.793L488.789 19.7812L488.79 19.7705C489.334 15.9652 490.415 11.54 492.747 8.07715C495.059 4.64291 498.607 2.14173 504.17 2.1416ZM762.004 25.2188C748.043 25.2188 739.003 25.355 733.178 25.5605C727.737 25.7525 725.063 26.0057 723.798 26.2744L723.592 26.3213C719.141 27.1555 715.49 28.8316 712.67 31.4395C709.854 34.0434 707.898 37.5475 706.783 41.9893C706.216 43.6979 705.667 47.0316 705.258 52.2188C704.846 57.434 704.572 64.5619 704.572 73.873C704.572 83.1843 704.846 91.9499 705.257 98.8008C705.462 102.226 705.703 105.176 705.961 107.479C706.216 109.755 706.493 111.444 706.784 112.325V112.326C708.171 116.761 710.128 120.136 712.887 122.54C715.646 124.945 719.164 126.341 723.609 126.898C725.032 127.18 727.945 127.452 733.794 127.656C739.687 127.862 748.59 127.999 762.004 127.999H765.288C778.702 127.999 787.604 127.862 793.497 127.656C799.378 127.451 802.291 127.177 803.705 126.895L803.704 126.894C808.131 126.063 811.643 124.671 814.399 122.34C817.16 120.005 819.119 116.767 820.507 112.326L820.517 112.293L820.522 112.259C821.077 108.935 822.172 92.4828 822.719 73.8877V73.873C822.719 64.5619 822.445 57.434 822.033 52.2188C821.648 47.3438 821.141 44.1058 820.61 42.3154L820.504 41.9766C819.119 37.2774 817.167 33.7724 814.415 31.2334C811.831 28.849 808.578 27.3504 804.521 26.4863L803.699 26.3213C802.532 26.0354 800.009 25.7637 794.319 25.5605C788.563 25.355 779.523 25.2188 765.288 25.2188H762.004ZM516.271 27.2627L496.563 126.307L496.444 126.904H587.878V26.8604H516.351L516.271 27.2627ZM935.033 79.2979H1022.57C1027.78 79.2978 1032.11 78.7621 1035.08 74.9316C1038 71.1591 1039.5 64.295 1039.5 51.9844C1039.5 40.4793 1037.72 34.1492 1034.57 30.7158C1031.4 27.2564 1026.94 26.8604 1022.02 26.8604H935.033V79.2979ZM83.8418 27.7119L62.4922 78.0547L62.1973 78.75H139.544V27.4072H83.9707L83.8418 27.7119Z" stroke="url(#paint0_linear_11_170)"/><defs><linearGradient id="paint0_linear_11_170" x1="551.5" y1="-3.31463e-06" x2="551.5" y2="154" gradientUnits="userSpaceOnUse"><stop stop-color="white" stop-opacity="0.5"/><stop offset="1" stop-color="white" stop-opacity="0.3"/></linearGradient></defs></svg>