<svg width="350" height="68" viewBox="0 0 350 68" fill="none" xmlns="http://www.w3.org/2000/svg"><path d="M309.84 18.128C308.773 18.128 307.899 17.9147 307.216 17.488C306.544 17.0507 306.048 16.4533 305.728 15.696C305.408 14.9387 305.248 14.0587 305.248 13.056V6.688H306.944V13.072C306.944 13.7013 307.035 14.2827 307.216 14.816C307.397 15.3493 307.701 15.776 308.128 16.096C308.555 16.416 309.131 16.576 309.856 16.576C310.592 16.576 311.168 16.416 311.584 16.096C312 15.776 312.293 15.3493 312.464 14.816C312.635 14.2827 312.72 13.7013 312.72 13.072V6.688H314.432V13.056C314.432 14.048 314.272 14.928 313.952 15.696C313.632 16.4533 313.136 17.0507 312.464 17.488C311.792 17.9147 310.917 18.128 309.84 18.128ZM321.352 18.128C320.189 18.128 319.213 17.8827 318.424 17.392C317.645 16.9013 317.058 16.224 316.664 15.36C316.269 14.496 316.072 13.4987 316.072 12.368C316.072 11.2373 316.269 10.2347 316.664 9.36C317.069 8.48533 317.661 7.80267 318.44 7.312C319.229 6.81067 320.205 6.56 321.368 6.56C322.21 6.56 322.946 6.69867 323.576 6.976C324.205 7.24267 324.712 7.62667 325.096 8.128C325.49 8.61867 325.752 9.20533 325.88 9.888H324.216C324.056 9.344 323.73 8.912 323.24 8.592C322.749 8.272 322.12 8.112 321.352 8.112C320.498 8.112 319.81 8.30933 319.288 8.704C318.776 9.09867 318.402 9.616 318.168 10.256C317.933 10.8853 317.816 11.568 317.816 12.304C317.816 13.0613 317.938 13.7653 318.184 14.416C318.429 15.0667 318.818 15.5893 319.352 15.984C319.885 16.3787 320.568 16.576 321.4 16.576C321.912 16.576 322.365 16.5067 322.76 16.368C323.154 16.2187 323.485 16.0107 323.752 15.744C324.018 15.4667 324.2 15.1467 324.296 14.784H326.072C325.933 15.4773 325.65 16.0747 325.224 16.576C324.797 17.0773 324.258 17.4613 323.608 17.728C322.957 17.9947 322.205 18.128 321.352 18.128ZM327.688 18V6.688H331.768C332.611 6.688 333.336 6.82133 333.944 7.088C334.563 7.35467 335.037 7.77067 335.368 8.336C335.699 8.89067 335.864 9.61067 335.864 10.496C335.864 11.3493 335.672 12.064 335.288 12.64C334.915 13.216 334.403 13.6533 333.752 13.952C333.101 14.24 332.36 14.384 331.528 14.384H329.384V18H327.688ZM329.384 12.848H331.464C332.275 12.848 332.925 12.6613 333.416 12.288C333.907 11.904 334.152 11.2907 334.152 10.448C334.152 9.712 333.949 9.16267 333.544 8.8C333.139 8.42667 332.525 8.24 331.704 8.24H329.384V12.848Z" fill="white"/><path d="M53.2 7C47.9 7 42.6 11 40.5 15.6L32.8 33.5H50.3L55 22.6H68.2V37.5H8.2L0 54.9H68.2V67.1H83.2V7H53.2ZM26.1 49H8.5L11 43.6H28.4L26.1 49ZM68.2 49H43.6L45.9 43.6H68.2V49ZM22.1 58.3H39.6L35.7 67.1H18.2L22.1 58.3Z" fill="#E84F13"/><path d="M162.902 49L175.002 30.5C175.402 29.9 175.902 28.7 176.802 28.7H181.502V58.1H175.702V39.3L162.902 58.2L150.202 39.3V58.2H144.402V28.8H148.602C150.202 28.8 150.502 30.1 151.102 30.9L162.902 49ZM225.302 53H221.802V28.8H199.902C197.602 28.8 197.102 30.8 196.802 32.3L192.902 53H189.702V53.3V58.2H225.302V53ZM202.302 33.7H216.002V53H198.402L202.302 33.7ZM301.302 28.8L277.802 28.7V58.2L283.602 58.3V49.6C283.602 49.2 283.902 49 284.202 49H301.202C308.702 49 309.302 43.3 309.302 38.9C309.502 35.2 309.002 28.8 301.302 28.8ZM300.502 43.7H283.602V33.8H300.402C302.302 33.8 303.702 34.2 303.702 38.6C303.802 43.4 302.602 43.7 300.502 43.7ZM117.602 28.8C115.902 28.8 114.202 29.9 113.502 31.4L102.102 58.3H108.002L112.002 48.9H129.102V58.3H134.902V28.9H117.602V28.8ZM114.302 43.6L118.502 33.8H129.202V43.6H114.302ZM266.302 33.8C265.502 31.2 263.102 29.5 259.402 28.8C257.902 28.5 255.002 28.4 250.602 28.4C250.502 28.4 250.402 28.4 250.302 28.4C250.202 28.4 250.102 28.4 250.002 28.4C245.602 28.4 242.702 28.5 241.202 28.8C237.402 29.5 235.102 31.2 234.302 33.8C233.902 35.1 233.702 38.2 233.702 42.7C233.702 47.1 233.902 51.5 234.302 52.8C235.002 55.4 237.402 57.1 241.302 57.8C242.702 58.1 245.702 58.2 250.102 58.2C250.202 58.2 250.302 58.2 250.402 58.2C250.502 58.2 250.602 58.2 250.702 58.2C255.102 58.2 258.102 58.1 259.502 57.8C263.402 57.1 265.802 55.4 266.502 52.8C266.902 51.5 267.102 47.1 267.102 42.7C266.902 38.2 266.702 35.1 266.302 33.8ZM261.202 50.1C260.702 51.8 259.702 52.6 258.002 52.8C257.502 52.9 255.802 53 250.602 53C250.502 53 250.402 53 250.302 53C250.202 53 250.102 53 250.002 53C244.802 53 243.102 52.9 242.602 52.8C240.902 52.5 239.902 51.8 239.402 50.1C239.202 49.5 239.002 46.3 239.002 42.7C239.002 39.1 239.202 37.2 239.402 36.6C239.902 34.9 240.902 33.9 242.502 33.7C243.002 33.6 244.502 33.5 250.002 33.5C250.102 33.5 250.202 33.5 250.302 33.5C250.402 33.5 250.502 33.5 250.602 33.5C256.102 33.5 257.602 33.6 258.102 33.7C259.802 34 260.802 34.9 261.202 36.6C261.402 37.2 261.602 39.1 261.602 42.7C261.602 46.3 261.402 49.5 261.202 50.1Z" fill="#B9B9B9"/><path d="M343.56 18.282C342.363 18.282 341.313 18.051 340.41 17.589C339.528 17.127 338.846 16.4655 338.363 15.6045C337.901 14.7435 337.67 13.7145 337.67 12.5175C337.67 11.2995 337.911 10.2495 338.394 9.3675C338.877 8.4645 339.56 7.7715 340.442 7.2885C341.324 6.8055 342.363 6.564 343.56 6.564C344.778 6.564 345.818 6.816 346.679 7.32C347.561 7.803 348.233 8.496 348.695 9.399C349.178 10.281 349.419 11.3205 349.419 12.5175C349.419 13.7145 349.178 14.7435 348.695 15.6045C348.233 16.4655 347.561 17.127 346.679 17.589C345.818 18.051 344.778 18.282 343.56 18.282ZM343.56 17.085C344.988 17.085 346.112 16.686 346.931 15.888C347.75 15.069 348.159 13.9455 348.159 12.5175C348.159 11.0685 347.75 9.903 346.931 9.021C346.133 8.139 345.009 7.698 343.56 7.698C342.111 7.698 340.967 8.139 340.127 9.021C339.308 9.903 338.898 11.0685 338.898 12.5175C338.898 13.9455 339.308 15.069 340.127 15.888C340.967 16.686 342.111 17.085 343.56 17.085ZM341.387 15.321V9.336H343.907C344.537 9.336 345.051 9.483 345.45 9.777C345.849 10.071 346.049 10.554 346.049 11.226C346.049 11.667 345.944 12.045 345.734 12.36C345.545 12.675 345.219 12.885 344.757 12.99L346.332 15.321H344.978L343.497 13.116H342.521V15.321H341.387ZM342.521 12.108H343.907C344.201 12.108 344.442 12.045 344.631 11.919C344.841 11.772 344.946 11.541 344.946 11.226C344.946 10.932 344.841 10.722 344.631 10.596C344.442 10.47 344.222 10.407 343.97 10.407H342.521V12.108Z" fill="white"/></svg>