<svg width="1010" height="552" viewBox="0 0 1010 552" fill="none" xmlns="http://www.w3.org/2000/svg"><g clip-path="url(#clip0_183_1857)"><mask id="mask0_183_1857" style="mask-type:luminance" maskUnits="userSpaceOnUse" x="223" y="31" width="1327" height="257"><path d="M223.754 52.6139C281.838 62.5404 335.416 97.7361 397.345 173.919C421.056 203.101 448.119 225.927 477.284 243.2C539.119 279.814 610.404 291.347 679.245 285.145C748.106 278.926 814.542 254.938 866.642 220.46C896.206 200.897 921.148 177.986 939.31 153.024C988.133 85.896 1032.35 38.6894 1082.49 31.8553C1132.63 25.0211 1188.54 58.5766 1260.66 153.007C1292.82 195.122 1331.72 221.502 1373.29 235.734C1417.7 250.94 1465.2 252.255 1510.78 244.055C1523.81 241.714 1536.69 238.587 1549.28 234.794V236.042C1536.76 239.8 1523.98 242.893 1511.05 245.216C1465.23 253.451 1417.49 252.119 1372.83 236.845C1331.03 222.544 1291.93 196.011 1259.6 153.69C1187.82 59.7043 1132.33 26.2684 1082.71 33.0341C1033.06 39.7999 989.08 86.8186 940.446 153.673C922.208 178.755 897.152 201.786 867.457 221.417C815.167 255.997 748.523 280.087 679.416 286.324C610.29 292.56 538.721 280.959 476.603 244.208C447.324 226.867 420.147 203.938 396.322 174.637C334.791 98.9492 281.517 63.8902 223.792 53.9294V52.6139H223.754Z" fill="white"/></mask><g mask="url(#mask0_183_1857)"><path d="M1549.24 25.0039H223.754V292.542H1549.24V25.0039Z" fill="#3A3C42" fill-opacity="0.08"/></g><mask id="mask1_183_1857" style="mask-type:luminance" maskUnits="userSpaceOnUse" x="223" y="35" width="1327" height="272"><path d="M223.754 82.8377C284.111 89.7231 340.302 123.022 406.947 199.479C431.737 227.926 459.634 249.932 489.424 266.3C552.584 301.017 624.248 310.397 692.824 302.093C761.42 293.79 826.909 267.803 877.703 231.77C906.508 211.336 930.598 187.656 947.813 162.165C994.118 93.6014 1036.54 45.0792 1086.41 36.7416C1136.27 28.3869 1193.41 60.2338 1268.97 152.426C1302.68 193.55 1342.53 218.734 1384.61 231.685C1429.57 245.524 1477.09 245.421 1522.33 235.836C1531.41 233.923 1540.4 231.616 1549.26 228.968V230.215C1540.5 232.829 1531.61 235.085 1522.64 236.998C1477.15 246.617 1429.4 246.737 1384.2 232.812C1341.89 219.776 1301.81 194.456 1267.93 153.127C1192.71 61.3615 1136.01 29.6341 1086.65 37.9034C1037.28 46.1726 995.084 94.4898 948.949 162.78C931.659 188.391 907.455 212.173 878.536 232.693C827.572 268.845 761.855 294.917 693.014 303.255C624.153 311.593 552.187 302.162 488.761 267.29C458.838 250.854 430.828 228.746 405.943 200.197C339.677 124.218 283.789 91.0386 223.754 84.1362V82.8377Z" fill="white"/></mask><g mask="url(#mask1_183_1857)"><path d="M1549.24 28.387H223.754V311.593H1549.24V28.387Z" fill="#3A3C42" fill-opacity="0.08"/></g><mask id="mask2_183_1857" style="mask-type:luminance" maskUnits="userSpaceOnUse" x="223" y="40" width="1327" height="285"><path d="M223.748 113.591C286.454 117.111 345.258 148.292 416.865 225.022C442.697 252.7 471.389 273.851 501.767 289.314C566.177 322.1 638.162 329.31 706.379 318.939C774.633 308.569 839.119 280.6 888.549 243.064C916.597 221.758 939.778 197.378 956.027 171.374C999.756 101.444 1040.36 51.6742 1089.87 41.816C1139.41 31.9578 1197.68 62.062 1276.64 151.914C1311.86 191.996 1352.62 215.966 1395.16 227.636C1440.61 240.108 1488.09 238.553 1532.95 227.618C1538.43 226.286 1543.84 224.817 1549.22 223.21V224.458C1543.96 226.012 1538.63 227.465 1533.29 228.763C1488.2 239.766 1440.48 241.321 1394.78 228.763C1351.99 217.026 1311.01 192.918 1275.62 152.648C1197.02 63.2068 1139.16 33.2221 1090.15 42.9778C1041.12 52.7335 1000.72 102.298 957.163 171.955C940.819 198.078 917.544 222.578 889.382 243.969C839.782 281.642 775.069 309.696 706.587 320.101C638.086 330.506 565.798 323.262 501.104 290.339C470.594 274.808 441.769 253.571 415.842 225.79C344.633 149.505 286.113 118.426 223.729 114.89V113.591H223.748Z" fill="white"/></mask><g mask="url(#mask2_183_1857)"><path d="M1549.24 31.9578H223.748V330.506H1549.24V31.9578Z" fill="#3A3C42" fill-opacity="0.08"/></g><mask id="mask3_183_1857" style="mask-type:luminance" maskUnits="userSpaceOnUse" x="223" y="44" width="1327" height="300"><path d="M223.754 144.943C288.846 144.738 350.245 173.561 427.116 250.53C453.971 277.405 483.439 297.668 514.366 312.208C579.969 343.013 652.163 348.053 719.982 335.615C787.801 323.177 851.226 293.294 899.217 254.272C926.45 232.129 948.703 207.065 963.987 180.583C1005.08 109.371 1043.81 58.4059 1092.94 47.0442C1142.08 35.6825 1201.44 64.0099 1283.71 151.418C1320.39 190.407 1362.04 213.13 1404.97 223.501C1450.86 234.589 1498.24 231.6 1542.69 219.315C1544.89 218.717 1547.07 218.085 1549.24 217.436V218.683C1547.2 219.298 1545.14 219.879 1543.07 220.46C1498.4 232.813 1450.76 235.82 1404.63 224.663C1361.45 214.224 1319.58 191.381 1282.7 152.187C1200.81 65.1888 1141.9 36.9639 1093.26 48.1889C1044.61 59.4311 1006.11 110.191 965.161 181.13C949.802 207.731 927.435 232.915 900.088 255.16C851.927 294.32 788.294 324.304 720.228 336.794C652.144 349.266 579.647 344.226 513.76 313.284C482.701 298.693 453.1 278.328 426.131 251.35C349.676 174.757 288.543 146.053 223.754 146.224V144.943Z" fill="white"/></mask><g mask="url(#mask3_183_1857)"><path d="M1549.24 35.6997H223.754V349.266H1549.24V35.6997Z" fill="#3A3C42" fill-opacity="0.08"/></g><mask id="mask4_183_1857" style="mask-type:luminance" maskUnits="userSpaceOnUse" x="223" y="49" width="1327" height="313"><path d="M223.754 176.944C291.251 172.621 355.244 198.813 437.703 275.987C465.543 302.042 495.75 321.4 527.207 334.982C593.908 363.788 666.253 366.624 733.561 352.153C800.888 337.682 863.158 305.869 909.671 265.428C936.071 242.483 957.377 216.752 971.676 189.826C1010.1 117.401 1046.92 65.2912 1095.57 52.4601C1144.26 39.6291 1204.64 66.1454 1290.11 151.008C1328.23 188.869 1370.69 210.311 1413.99 219.383C1459.48 228.917 1505.91 224.799 1549.24 211.712V212.959C1505.82 226.013 1459.29 230.096 1413.7 220.545C1370.14 211.422 1327.46 189.86 1289.14 151.811C1204.07 67.3414 1144.13 40.9105 1095.95 53.6048C1047.75 66.3163 1011.14 118.204 972.869 190.338C958.513 217.402 937.094 243.252 910.599 266.3C863.915 306.894 801.437 338.792 733.883 353.332C666.31 367.872 593.662 365.018 526.657 336.076C495.068 322.425 464.728 302.982 436.775 276.824C354.695 200.009 290.986 173.937 223.754 178.225V176.944Z" fill="white"/></mask><g mask="url(#mask4_183_1857)"><path d="M1549.24 39.6462H223.754V367.872H1549.24V39.6462Z" fill="#3A3C42" fill-opacity="0.08"/></g><mask id="mask5_183_1857" style="mask-type:luminance" maskUnits="userSpaceOnUse" x="223" y="54" width="1327" height="327"><path d="M223.754 209.73C293.713 200.863 360.244 224.065 448.611 301.427C477.398 326.628 508.306 345.063 540.255 357.689C607.998 384.462 680.42 385.111 747.14 368.606C813.88 352.102 874.937 318.427 919.917 276.602C945.446 252.871 965.786 226.508 979.062 199.154C1014.78 125.619 1049.63 72.4158 1097.79 58.1154C1145.97 43.815 1207.31 68.4862 1295.89 150.718C1335.39 187.4 1378.63 207.543 1422.24 215.3C1465.25 222.954 1508.66 218.563 1549.24 206.074V207.321C1508.58 219.759 1465.1 224.116 1422 216.462C1378.14 208.654 1334.65 188.391 1294.96 151.538C1206.8 69.6822 1145.89 45.0794 1098.22 59.2431C1050.52 73.4068 1015.86 126.371 980.293 199.633C966.941 227.106 946.506 253.588 920.882 277.422C875.733 319.401 814.486 353.178 747.5 369.751C680.495 386.324 607.79 385.675 539.744 358.782C507.662 346.105 476.622 327.585 447.721 302.281C359.714 225.261 293.448 202.162 223.754 210.995V209.73Z" fill="white"/></mask><g mask="url(#mask5_183_1857)"><path d="M1549.24 43.7981H223.754V386.307H1549.24V43.7981Z" fill="#3A3C42" fill-opacity="0.08"/></g><mask id="mask6_183_1857" style="mask-type:luminance" maskUnits="userSpaceOnUse" x="223" y="59" width="1327" height="341"><path d="M223.754 243.337C296.213 229.429 365.168 249.3 459.842 326.764C489.557 351.077 521.127 368.572 553.531 380.224C622.221 404.929 694.623 403.392 760.7 384.871C826.796 366.351 886.566 330.848 929.973 287.69C954.593 263.19 973.948 236.229 986.221 208.5C1019.17 133.923 1052.03 79.6939 1099.62 63.9412C1147.26 48.1886 1209.47 70.9804 1301.06 150.495C1341.91 185.964 1385.86 204.792 1429.74 211.216C1470.48 217.196 1511.18 212.481 1549.26 200.47V201.717C1511.12 213.677 1470.37 218.358 1429.53 212.378C1385.41 205.903 1341.21 186.972 1300.15 151.333C1208.98 72.1934 1147.2 49.4529 1100.08 65.0347C1052.92 80.6336 1020.25 134.623 987.433 208.91C975.122 236.776 955.673 263.856 930.939 288.459C887.38 331.787 827.421 367.393 761.098 385.982C694.756 404.571 622.051 406.125 553.058 381.301C520.521 369.597 488.799 352.033 458.971 327.619C364.676 250.496 295.967 230.728 223.754 244.618V243.337Z" fill="white"/></mask><g mask="url(#mask6_183_1857)"><path d="M1549.24 48.1885H223.754V406.142H1549.24V48.1885Z" fill="#3A3C42" fill-opacity="0.08"/></g><mask id="mask7_183_1857" style="mask-type:luminance" maskUnits="userSpaceOnUse" x="223" y="64" width="1327" height="356"><path d="M223.754 277.883C298.732 258.389 370.035 274.535 471.413 352.051C502.018 375.44 534.214 391.979 567.034 402.64C636.615 425.261 708.922 421.519 774.26 401.017C839.636 380.515 898.043 343.217 939.821 298.762C963.513 273.527 981.865 246.002 993.076 217.914C1023.25 142.38 1054.06 87.1944 1101.04 70.0066C1148.05 52.8188 1211.1 73.7312 1305.58 150.41C1347.72 184.615 1392.36 202.11 1436.45 207.201C1475.14 211.678 1513.41 206.621 1549.24 194.951V196.216C1513.36 207.834 1475.02 212.857 1436.28 208.38C1391.92 203.255 1347.06 185.674 1304.69 151.281C1210.64 74.9443 1148.05 54.0831 1101.54 71.1001C1054.99 88.117 1024.36 143.063 994.307 218.307C983.039 246.532 964.612 274.193 940.806 299.53C898.895 344.14 840.28 381.557 774.677 402.145C709.055 422.732 636.463 426.491 566.58 403.768C533.627 393.055 501.28 376.465 470.561 352.973C369.562 275.731 298.523 259.688 223.754 279.182V277.883Z" fill="white"/></mask><g mask="url(#mask7_183_1857)"><path d="M1549.24 52.8187H223.754V426.474H1549.24V52.8187Z" fill="#3A3C42" fill-opacity="0.08"/></g><mask id="mask8_183_1857" style="mask-type:luminance" maskUnits="userSpaceOnUse" x="223" y="69" width="1327" height="370"><path d="M223.754 313.523C301.326 287.827 374.751 299.753 483.288 377.252C514.726 399.702 547.547 415.249 580.727 424.92C651.103 445.422 723.221 439.493 787.782 417.026C852.344 394.542 909.349 355.519 949.442 309.816C972.187 283.881 989.497 255.809 999.667 227.397C1027.01 150.991 1055.74 94.9001 1102.07 76.3113C1148.41 57.7055 1212.2 76.6872 1309.48 150.479C1352.87 183.385 1398.13 199.513 1442.39 203.289C1479.25 206.433 1515.42 200.983 1549.24 189.536V190.8C1515.36 202.213 1479.17 207.612 1442.26 204.468C1397.76 200.675 1352.25 184.461 1308.63 151.384C1211.8 77.9344 1148.47 58.9869 1102.6 77.3877C1056.71 95.8057 1028.13 151.657 1000.9 227.755C990.69 256.305 973.304 284.513 950.446 310.551C910.201 356.408 853.026 395.584 788.237 418.137C723.429 440.706 651.008 446.652 580.31 426.064C546.978 416.36 514.025 400.744 482.455 378.208C374.315 300.949 301.118 289.126 223.754 314.856V313.523Z" fill="white"/></mask><g mask="url(#mask8_183_1857)"><path d="M1549.24 57.7055H223.754V446.635H1549.24V57.7055Z" fill="#3A3C42" fill-opacity="0.08"/></g><mask id="mask9_183_1857" style="mask-type:luminance" maskUnits="userSpaceOnUse" x="223" y="75" width="1327" height="384"><path d="M223.754 350.376C303.959 317.76 379.296 324.988 495.484 402.367C527.756 423.86 561.107 438.4 594.647 447.045C665.742 465.394 737.614 457.296 801.285 432.881C864.976 408.466 920.485 367.718 958.873 320.836C980.634 294.234 996.902 265.65 1005.99 236.947C1030.48 159.756 1057.13 102.828 1102.73 82.8377C1148.35 62.8479 1212.8 79.882 1312.78 150.683C1357.38 182.257 1403.21 197.019 1447.58 199.428C1482.85 201.358 1517.18 195.498 1549.26 184.119V185.384C1517.16 196.711 1482.79 202.52 1447.51 200.607C1402.87 198.163 1356.79 183.35 1311.98 151.606C1212.46 81.1292 1148.47 64.1122 1103.32 83.897C1058.15 103.682 1031.65 160.371 1007.28 237.255C998.133 266.095 981.808 294.815 959.934 321.519C921.432 368.572 865.733 409.44 801.816 433.958C737.879 458.475 665.723 466.608 594.306 448.173C560.633 439.476 527.112 424.885 494.727 403.289C378.918 326.149 303.826 319.059 223.792 351.692V350.376H223.754Z" fill="white"/></mask><g mask="url(#mask9_183_1857)"><path d="M1549.24 62.8652H223.754V466.642H1549.24V62.8652Z" fill="#3A3C42" fill-opacity="0.08"/></g><mask id="mask10_183_1857" style="mask-type:luminance" maskUnits="userSpaceOnUse" x="223" y="80" width="1327" height="398"><path d="M223.754 388.63C306.686 348.309 383.614 350.222 507.984 427.38C541.032 447.882 574.913 461.396 608.756 469.034C680.495 485.23 752.026 474.945 814.751 448.617C877.494 422.288 931.469 379.883 968.077 331.856C988.853 304.605 1004.02 275.56 1012.05 246.583C1033.64 168.691 1058.17 110.994 1103 89.6376C1147.86 68.281 1212.9 83.3502 1315.45 151.093C1361.19 181.3 1407.55 194.661 1451.98 195.737C1485.88 196.557 1518.68 190.236 1549.23 178.806V180.087C1518.64 191.466 1485.84 197.736 1451.94 196.916C1407.24 195.84 1360.64 182.411 1314.65 152.05C1212.57 84.6316 1147.97 69.5624 1103.58 90.6969C1059.17 111.848 1034.82 169.289 1013.3 246.873C1005.23 275.97 989.989 305.169 969.119 332.522C932.378 380.72 878.233 423.262 815.262 449.676C752.272 476.107 680.457 486.426 608.396 470.161C574.42 462.49 540.388 448.907 507.207 428.319C383.217 351.418 306.534 349.642 223.754 390.014V388.63Z" fill="white"/></mask><g mask="url(#mask10_183_1857)"><path d="M1549.24 68.2982H223.754V486.444H1549.24V68.2982Z" fill="#3A3C42" fill-opacity="0.08"/></g><mask id="mask11_183_1857" style="mask-type:luminance" maskUnits="userSpaceOnUse" x="223" y="86" width="1327" height="412"><path d="M223.754 428.49C309.546 379.558 387.648 375.492 520.786 452.29C554.573 471.784 588.946 484.274 623.055 490.869C695.362 504.879 766.457 492.44 828.178 464.233C889.918 436.008 942.264 392.013 977.073 342.91C996.807 315.044 1010.92 285.555 1017.87 256.356C1036.56 177.866 1058.91 119.434 1102.92 96.7452C1146.95 74.0388 1212.52 87.1432 1317.55 151.726C1364.39 180.531 1411.22 192.474 1455.67 192.218C1488.47 192.013 1519.97 185.179 1549.26 173.561V174.859C1519.99 186.409 1488.47 193.209 1455.69 193.414C1410.97 193.687 1363.89 181.676 1316.81 152.717C1212.27 88.4246 1147.16 75.3202 1103.58 97.7874C1059.99 120.272 1037.77 178.43 1019.15 256.612C1012.17 285.948 998.019 315.574 978.191 343.559C943.268 392.833 890.732 436.999 828.784 465.309C766.817 493.636 695.419 506.126 622.789 492.047C588.549 485.418 554.024 472.878 520.105 453.298C387.269 376.688 309.432 380.908 223.754 429.925V428.49Z" fill="white"/></mask><g mask="url(#mask11_183_1857)"><path d="M1549.24 74.0389H223.754V506.109H1549.24V74.0389Z" fill="#3A3C42" fill-opacity="0.08"/></g><mask id="mask12_183_1857" style="mask-type:luminance" maskUnits="userSpaceOnUse" x="223" y="92" width="1327" height="426"><path d="M223.754 470.178C312.557 411.593 391.303 400.778 533.911 477.081C568.417 495.533 603.226 506.98 637.543 512.55C710.324 524.356 780.927 509.782 841.568 479.712C902.228 449.642 952.908 404.075 985.861 353.947C1004.55 325.5 1017.54 295.584 1023.42 266.214C1039.17 187.195 1059.34 128.131 1102.48 104.126C1145.65 80.1041 1211.67 91.2095 1319.03 152.58C1366.9 179.951 1414.16 190.475 1458.59 188.869C1490.54 187.707 1521.03 180.275 1549.26 168.315V169.614C1521.05 181.488 1490.57 188.886 1458.64 190.031C1413.97 191.654 1366.47 181.078 1318.35 153.571C1211.48 92.4738 1145.91 81.3513 1103.19 105.117C1060.44 128.9 1040.4 187.707 1024.72 266.419C1018.83 295.943 1005.78 325.996 987.016 354.545C953.949 404.861 903.08 450.582 842.212 480.754C781.324 510.944 710.437 525.569 637.334 513.712C602.847 508.108 567.887 496.626 533.248 478.106C390.962 401.974 312.481 412.977 223.754 471.682V470.178Z" fill="white"/></mask><g mask="url(#mask12_183_1857)"><path d="M1549.24 80.087H223.754V525.586H1549.24V80.087Z" fill="#3A3C42" fill-opacity="0.08"/></g><mask id="mask13_183_1857" style="mask-type:luminance" maskUnits="userSpaceOnUse" x="223" y="98" width="1327" height="440"><path d="M223.754 513.985C315.852 444.568 394.561 426.132 547.338 501.735C582.507 519.128 617.733 529.516 652.239 534.043C725.418 543.645 795.433 526.936 854.919 495.055C914.424 463.156 963.381 416.086 994.459 364.984C1012.09 335.99 1023.97 305.698 1028.72 276.158C1041.52 196.711 1059.47 137.066 1101.71 111.763C1143.96 86.4427 1210.36 95.5492 1319.94 153.639C1368.82 179.54 1416.43 188.63 1460.76 185.674C1492.13 183.59 1521.86 175.457 1549.26 163.019V164.352C1521.9 176.721 1492.18 184.786 1460.86 186.87C1416.28 189.843 1368.4 180.719 1319.27 154.681C1210.19 96.8648 1144.24 87.7241 1102.43 112.771C1060.59 137.835 1042.77 197.207 1030.01 276.346C1025.22 306.04 1013.3 336.452 995.595 365.582C964.422 416.855 915.277 464.096 855.582 496.097C795.869 528.115 725.55 544.892 652.05 535.239C617.392 530.694 582.015 520.272 546.694 502.794C394.239 427.328 315.814 445.986 223.754 515.557V513.985Z" fill="white"/></mask><g mask="url(#mask13_183_1857)"><path d="M1549.24 86.4427H223.754V544.858H1549.24V86.4427Z" fill="#3A3C42" fill-opacity="0.08"/></g><mask id="mask14_183_1857" style="mask-type:luminance" maskUnits="userSpaceOnUse" x="233" y="104" width="1317" height="449"><path d="M753.46 552.273C794.67 545.166 833.419 530.37 868.209 510.26C926.483 476.585 973.678 428.063 1002.82 376.038C1019.36 346.532 1030.1 315.898 1033.75 286.221C1043.6 206.433 1059.32 146.276 1100.59 119.708C1141.87 93.1232 1208.55 100.214 1320.25 154.955C1370.06 179.37 1418 187.007 1462.18 182.701C1493.24 179.677 1522.46 170.776 1549.24 157.637V158.987C1522.5 172.006 1493.31 180.856 1462.33 183.88C1417.88 188.203 1369.7 180.532 1319.63 155.997C1208.46 101.512 1142.21 94.3704 1101.36 120.682C1060.49 147.01 1044.87 206.877 1035.06 286.358C1031.38 316.172 1020.59 346.942 1003.98 376.568C974.719 428.764 927.373 477.457 868.891 511.251C835.767 530.387 799.064 544.756 760.07 552.256H753.46V552.273ZM233.218 552.273C324.767 476.927 402.718 454.033 561.044 526.252C589.073 539.032 616.989 547.523 644.412 552.273H637.821C612.311 547.336 586.441 539.169 560.438 527.312C403.532 455.741 325.865 478.003 235.187 552.273H233.218Z" fill="white"/></mask><g mask="url(#mask14_183_1857)"><path d="M1549.24 93.1404H233.218V552.273H1549.24V93.1404Z" fill="#3A3C42" fill-opacity="0.08"/></g><mask id="mask15_183_1857" style="mask-type:luminance" maskUnits="userSpaceOnUse" x="291" y="111" width="1259" height="442"><path d="M828.954 552.273C847.325 544.722 864.881 535.649 881.433 525.347C938.419 489.929 983.777 440.006 1010.99 387.127C1026.43 357.125 1036.01 326.201 1038.57 296.421C1045.44 216.377 1058.93 155.792 1099.17 127.977C1139.43 100.162 1206.36 105.22 1320.01 156.544C1370.71 179.438 1418.89 185.623 1462.9 179.985C1493.94 176.021 1522.9 166.163 1549.24 152.17V153.537C1522.96 167.427 1494.04 177.2 1463.09 181.164C1418.83 186.836 1370.39 180.617 1319.44 157.603C1206.3 106.518 1139.83 101.375 1099.98 128.917C1060.12 156.458 1046.73 216.769 1039.89 296.507C1037.32 326.423 1027.7 357.501 1012.2 387.605C984.913 440.655 939.404 490.766 882.209 526.304C866.358 536.145 849.616 544.875 832.117 552.256H828.954V552.273ZM291.951 552.273C364.921 502.658 440.789 494.405 575.045 550.633C576.371 551.197 577.696 551.744 579.041 552.273H575.859L574.496 551.71C441.869 496.165 366.418 503.854 294.224 552.273H291.951Z" fill="white"/></mask><g mask="url(#mask15_183_1857)"><path d="M1549.24 100.179H291.951V552.273H1549.24V100.179Z" fill="#3A3C42" fill-opacity="0.08"/></g><mask id="mask16_183_1857" style="mask-type:luminance" maskUnits="userSpaceOnUse" x="366" y="117" width="1184" height="436"><path d="M875.414 552.273C881.967 548.48 888.368 544.482 894.618 540.313C950.26 503.187 993.743 451.914 1018.95 398.249C1033.27 367.803 1041.7 336.588 1043.13 306.757C1047.02 226.542 1058.25 165.582 1097.45 136.571C1136.67 107.543 1203.73 110.584 1319.24 158.44C1370.75 179.78 1419.14 184.495 1462.93 177.541C1494.23 172.57 1523.19 161.618 1549.27 146.497V147.898C1523.23 162.882 1494.36 173.748 1463.15 178.703C1419.12 185.708 1370.49 180.958 1318.71 159.516C1203.73 111.883 1137.11 108.756 1098.3 137.493C1059.48 166.231 1048.34 226.918 1044.48 306.809C1043.02 336.776 1034.56 368.128 1020.18 398.711C994.879 452.563 951.245 504.007 895.414 541.27C889.675 545.097 883.823 548.771 877.839 552.273H875.414ZM366.914 552.273C409.033 537.306 456.986 536.179 519.71 552.273H514.805C456.38 537.921 410.927 538.878 370.91 552.273H366.914Z" fill="white"/></mask><g mask="url(#mask16_183_1857)"><path d="M1549.25 107.56H366.914V552.273H1549.25V107.56Z" fill="#3A3C42" fill-opacity="0.08"/></g><mask id="mask17_183_1857" style="mask-type:luminance" maskUnits="userSpaceOnUse" x="911" y="124" width="639" height="429"><path d="M911.664 552.273C963.953 513.78 1004.05 462.473 1026.68 409.406C1039.84 378.55 1047.11 347.096 1047.45 317.248C1048.36 236.964 1057.3 175.696 1095.41 145.524C1133.53 115.334 1200.67 116.342 1317.88 160.661C1370.17 180.429 1418.69 183.692 1462.19 175.406C1494.06 169.341 1523.25 157.073 1549.23 140.569V142.021C1523.3 158.372 1494.21 170.519 1462.45 176.568C1418.71 184.905 1369.92 181.642 1317.37 161.755C1200.69 117.623 1133.98 116.53 1096.26 146.412C1058.53 176.311 1049.65 237.289 1048.76 317.265C1048.42 347.267 1041.13 378.857 1027.91 409.85C1005.37 462.678 965.601 513.78 913.747 552.29H911.664V552.273Z" fill="white"/></mask><g mask="url(#mask17_183_1857)"><path d="M1549.23 115.317H911.664V552.273H1549.23V115.317Z" fill="#3A3C42" fill-opacity="0.08"/></g><mask id="mask18_183_1857" style="mask-type:luminance" maskUnits="userSpaceOnUse" x="941" y="131" width="609" height="422"><path d="M941.979 552.273C984.156 514.481 1016.03 468.009 1034.25 420.597C1046.26 389.348 1052.35 357.706 1051.58 327.858C1049.49 247.591 1056.16 186.084 1093.11 154.767C1130.08 123.432 1197.21 122.407 1316.02 163.173C1369.01 181.352 1417.62 183.128 1460.8 173.544C1493.58 166.248 1523.22 152.409 1549.24 134.196V135.7C1523.28 153.725 1493.75 167.444 1461.12 174.705C1417.72 184.359 1368.82 182.565 1315.56 164.3C1197.31 123.723 1130.59 124.646 1094.02 155.655C1057.41 186.682 1050.82 247.899 1052.9 327.858C1053.68 357.843 1047.56 389.638 1035.5 421.007C1017.34 468.231 985.709 514.532 943.835 552.29H941.979V552.273Z" fill="white"/></mask><g mask="url(#mask18_183_1857)"><path d="M1549.24 122.407H941.979V552.273H1549.24V122.407Z" fill="#3A3C42" fill-opacity="0.08"/></g><mask id="mask19_183_1857" style="mask-type:luminance" maskUnits="userSpaceOnUse" x="968" y="127" width="582" height="426"><path d="M968.053 552.273C1001.84 516.138 1027.05 474.211 1041.59 431.839C1052.44 400.248 1057.35 368.435 1055.47 338.622C1050.42 258.457 1054.77 196.797 1090.55 164.386C1126.32 131.958 1193.4 128.9 1313.64 166.026C1367.28 182.599 1415.95 182.906 1458.73 172.006C1492.76 163.344 1523.1 147.574 1549.26 127.26V128.814C1523.16 148.924 1492.95 164.523 1459.09 173.151C1416.06 184.102 1367.15 183.812 1313.23 167.154C1193.54 130.181 1126.89 133.12 1091.48 165.223C1056.04 197.326 1051.74 258.731 1056.78 338.57C1058.67 368.521 1053.73 400.488 1042.86 432.198C1028.37 474.416 1003.34 516.206 969.776 552.273H968.053Z" fill="white"/></mask><g mask="url(#mask19_183_1857)"><path d="M1549.24 127.26H968.053V552.273H1549.24V127.26Z" fill="#3A3C42" fill-opacity="0.08"/></g><mask id="mask20_183_1857" style="mask-type:luminance" maskUnits="userSpaceOnUse" x="990" y="119" width="560" height="434"><path d="M990.913 552.273C1017.62 518.461 1037.33 480.839 1048.75 443.132C1058.41 411.234 1062.14 379.284 1059.15 349.556C1051.1 269.597 1053.18 207.834 1087.71 174.346C1122.27 140.842 1189.18 135.768 1310.75 169.238C1364.97 184.17 1413.62 183.009 1455.97 170.81C1491.67 160.542 1522.9 142.431 1549.24 119.554V121.194C1522.95 143.832 1491.86 161.737 1456.37 171.937C1413.77 184.188 1364.86 185.366 1310.37 170.366C1189.37 137.049 1122.88 142.004 1088.67 175.149C1054.45 208.312 1052.44 269.802 1060.46 349.454C1063.47 379.336 1059.72 411.422 1050.02 443.457C1038.64 481.027 1019.06 518.53 992.523 552.273H990.913Z" fill="white"/></mask><g mask="url(#mask20_183_1857)"><path d="M1549.24 119.554H990.913V552.273H1549.24V119.554Z" fill="#3A3C42" fill-opacity="0.08"/></g><rect x="224" y="24" width="786" height="528" fill="url(#paint0_linear_183_1857)"/></g><defs><linearGradient id="paint0_linear_183_1857" x1="224" y1="268.708" x2="1010" y2="268.708" gradientUnits="userSpaceOnUse"><stop stop-color="#F5F5F5"/><stop offset="1" stop-color="#F5F5F5" stop-opacity="0"/></linearGradient><clipPath id="clip0_183_1857"><rect width="1010" height="552" fill="white"/></clipPath></defs></svg>