<svg width="49" height="48" viewBox="0 0 49 48" fill="none" xmlns="http://www.w3.org/2000/svg"><rect x="0.5" width="48" height="48" rx="24" fill="#EE8208"/><path d="M24.4996 12.8402C26.3852 12.8402 27.919 14.374 27.919 16.2596C27.919 18.1436 26.3848 19.6774 24.4996 19.6774C22.6151 19.6774 21.0809 18.1436 21.0809 16.2596C21.0805 14.3736 22.6155 12.8402 24.4996 12.8402ZM24.4996 24.5152C29.0543 24.5152 32.7584 20.8124 32.7584 16.2596C32.7584 11.7044 29.0547 8 24.4996 8C19.9452 8 16.2408 11.7048 16.2408 16.2596C16.2408 20.8124 19.9452 24.5152 24.4996 24.5152ZM27.8407 31.2517C29.5397 30.8648 31.161 30.1934 32.6362 29.266C33.1793 28.9244 33.5644 28.3809 33.7068 27.7553C33.8492 27.1297 33.7373 26.4731 33.3956 25.93C33.2266 25.6609 33.0062 25.4276 32.747 25.2437C32.4878 25.0598 32.1949 24.9287 31.8851 24.8581C31.5752 24.7875 31.2544 24.7786 30.9411 24.832C30.6278 24.8855 30.3281 25.0001 30.0592 25.1695C26.6757 27.2966 22.321 27.295 18.9403 25.1695C18.6714 25.0001 18.3718 24.8854 18.0585 24.8319C17.7452 24.7785 17.4245 24.7873 17.1146 24.858C16.8048 24.9286 16.5119 25.0597 16.2527 25.2436C15.9936 25.4276 15.7732 25.6608 15.6043 25.93C15.2625 26.473 15.1504 27.1294 15.2926 27.755C15.4348 28.3807 15.8196 28.9242 16.3625 29.266C17.8376 30.1931 19.4586 30.8644 21.1572 31.2517L16.5404 35.8693C16.0867 36.3232 15.8319 36.9387 15.832 37.5804C15.8321 38.2222 16.0871 38.8376 16.541 39.2913C16.9949 39.745 17.6104 39.9998 18.2521 39.9997C18.8939 39.9996 19.5093 39.7446 19.963 39.2907L24.4988 34.7541L29.0373 39.2911C29.2617 39.5158 29.5282 39.6941 29.8216 39.8157C30.115 39.9374 30.4294 40 30.747 40C31.0646 40 31.3791 39.9374 31.6725 39.8157C31.9658 39.6941 32.2323 39.5158 32.4567 39.2911C32.6818 39.0667 32.8604 38.8001 32.9822 38.5066C33.1041 38.2131 33.1668 37.8984 33.1668 37.5806C33.1668 37.2628 33.1041 36.9481 32.9822 36.6546C32.8604 36.361 32.6818 36.0945 32.4567 35.8701L27.8407 31.2517Z" fill="white"/></svg>