<svg xmlns="http://www.w3.org/2000/svg"><symbol id="search" viewBox="0 0 16 16" fill="none"><path d="M7.33333 12.6667C10.2789 12.6667 12.6667 10.2789 12.6667 7.33333C12.6667 4.38781 10.2789 2 7.33333 2C4.38781 2 2 4.38781 2 7.33333C2 10.2789 4.38781 12.6667 7.33333 12.6667Z" stroke="currentColor" stroke-width="2" stroke-linecap="round" stroke-linejoin="round"/><path d="M13.9996 14L11.0996 11.1" stroke="currentColor" stroke-width="2" stroke-linecap="round" stroke-linejoin="round"/></symbol><symbol id="phone" viewBox="0 0 25 24" fill="none"><path d="M20.333 4C20.333 1.8 18.533 0 16.333 0H8.33301C6.13301 0 4.33301 1.8 4.33301 4V20C4.33301 22.2 6.13301 24 8.33301 24H16.333C18.533 24 20.333 22.2 20.333 20V4ZM13.333 22H11.333C10.733 22 10.333 21.6 10.333 21C10.333 20.4 10.733 20 11.333 20H13.333C13.933 20 14.333 20.4 14.333 21C14.333 21.6 13.933 22 13.333 22ZM18.333 17C18.333 17.6 17.933 18 17.333 18H7.33301C6.73301 18 6.33301 17.6 6.33301 17V5C6.33301 4.4 6.73301 4 7.33301 4H17.333C17.933 4 18.333 4.4 18.333 5V17Z" fill="currentColor"/></symbol><symbol id="location" viewBox="0 0 17 16" fill="none"><path d="M8.33301 0C4.99967 0 2.33301 2.66667 2.33301 6C2.33301 10.1333 4.59967 13.8 7.99967 15.9333C8.19967 16.0667 8.46634 16.0667 8.73301 15.9333C12.0663 13.7333 14.333 10.1333 14.333 6C14.333 2.66667 11.6663 0 8.33301 0ZM8.33301 8.66667C6.86634 8.66667 5.66634 7.46667 5.66634 6C5.66634 4.53333 6.86634 3.33333 8.33301 3.33333C9.79967 3.33333 10.9997 4.53333 10.9997 6C10.9997 7.46667 9.79967 8.66667 8.33301 8.66667Z" fill="currentColor"/></symbol><symbol id="telegram" viewBox="0 0 38 38" fill="none"><circle cx="19.167" cy="19" r="18.5" fill="currentColor"/><path d="M9.31659 19.3461L13.5698 20.9321L15.2279 26.2666C15.2999 26.6271 15.7325 26.6992 16.0208 26.4829L18.3997 24.5365C18.616 24.3202 18.9765 24.3202 19.2648 24.5365L23.518 27.6363C23.8064 27.8526 24.2389 27.7084 24.311 27.3479L27.4829 12.2094C27.555 11.8489 27.1946 11.4885 26.8341 11.6326L9.31659 18.409C8.88405 18.5532 8.88405 19.2019 9.31659 19.3461ZM15.0116 20.1391L23.3739 15.0208C23.518 14.9487 23.6622 15.165 23.518 15.2371L16.6696 21.653C16.4534 21.8692 16.2371 22.1576 16.2371 22.518L16.0208 24.2481C16.0208 24.4644 15.6604 24.5365 15.5883 24.2481L14.7232 21.0762C14.507 20.7158 14.6512 20.2833 15.0116 20.1391Z" fill="white"/></symbol><symbol id="whatsapp" viewBox="0 0 38 38" fill="none"><circle cx="19.167" cy="19" r="18.5" fill="currentColor"/><path d="M26.4993 11.6578C24.6719 9.83667 22.2353 8.82495 19.6633 8.82495C14.3164 8.82495 9.98467 13.1416 9.98467 18.47C9.98467 20.1562 10.4585 21.8424 11.2707 23.2588L9.91699 28.25L15.0609 26.901C16.4822 27.6429 18.0389 28.0476 19.6633 28.0476C25.0103 28.0476 29.342 23.7309 29.342 18.4026C29.2743 15.907 28.3267 13.4789 26.4993 11.6578ZM24.3335 21.9098C24.1304 22.4494 23.1828 22.989 22.7091 23.0565C22.303 23.1239 21.7615 23.1239 21.22 22.989C20.8816 22.8541 20.4078 22.7192 19.8664 22.4494C17.4298 21.4377 15.8731 19.0096 15.7377 18.8072C15.6024 18.6723 14.7225 17.5257 14.7225 16.3117C14.7225 15.0976 15.3316 14.558 15.5347 14.2882C15.7377 14.0184 16.0085 14.0184 16.2115 14.0184C16.3469 14.0184 16.5499 14.0184 16.6853 14.0184C16.8206 14.0184 17.0237 13.951 17.2267 14.4231C17.4298 14.8953 17.9036 16.1093 17.9713 16.1768C18.0389 16.3117 18.0389 16.4466 17.9713 16.5815C17.9036 16.7164 17.8359 16.8513 17.7005 16.9861C17.5652 17.121 17.4298 17.3234 17.3621 17.3908C17.2267 17.5257 17.0914 17.6606 17.2267 17.863C17.3621 18.1328 17.8359 18.8747 18.5804 19.5492C19.528 20.3585 20.2725 20.6283 20.5432 20.7632C20.8139 20.8981 20.9493 20.8307 21.0847 20.6958C21.22 20.5609 21.6938 20.0213 21.8292 19.7515C21.9646 19.4817 22.1676 19.5492 22.3707 19.6166C22.5737 19.6841 23.792 20.2911 23.995 20.426C24.2658 20.5609 24.4011 20.6283 24.4688 20.6958C24.5365 20.8981 24.5365 21.3703 24.3335 21.9098Z" fill="white"/></symbol><symbol id="calculator" viewBox="0 0 13 18" fill="none"><path d="M11.375 0.5H1.625C0.757656 0.5 0 1.24309 0 2.09375V15.9062C0 16.7563 0.757656 17.5 1.625 17.5H11.375C12.2423 17.5 13 16.7569 13 15.9062V2.09375C13 1.24309 12.2417 0.5 11.375 0.5ZM2.16667 7.40625C2.16667 7.11406 2.41042 6.875 2.70833 6.875H3.79167C4.08958 6.875 4.33333 7.11406 4.33333 7.40625V8.46875C4.33333 8.76094 4.08958 9 3.79167 9H2.70833C2.41042 9 2.16667 8.76094 2.16667 8.46875V7.40625ZM2.16667 10.5938C2.16667 10.3016 2.41042 10.0625 2.70833 10.0625H3.79167C4.08958 10.0625 4.33333 10.3016 4.33333 10.5938V11.6562C4.33333 11.9484 4.08958 12.1875 3.79167 12.1875H2.70833C2.41042 12.1875 2.16667 11.9484 2.16667 11.6562V10.5938ZM7.58333 14.8438C7.58333 15.136 7.33962 15.375 7.04167 15.375H2.70833C2.41042 15.375 2.16667 15.1359 2.16667 14.8438V13.7812C2.16667 13.4891 2.41042 13.25 2.70833 13.25H7.04167C7.33962 13.25 7.58333 13.489 7.58333 13.7812V14.8438ZM7.58333 11.6562C7.58333 11.9485 7.33962 12.1875 7.04167 12.1875H5.95833C5.66042 12.1875 5.41667 11.9484 5.41667 11.6562V10.5938C5.41667 10.3016 5.66042 10.0625 5.95833 10.0625H7.04167C7.33958 10.0625 7.58333 10.3016 7.58333 10.5938V11.6562ZM7.58333 8.46875C7.58333 8.76094 7.33958 9 7.04167 9H5.95833C5.66042 9 5.41667 8.76094 5.41667 8.46875V7.40625C5.41667 7.11406 5.66042 6.875 5.95833 6.875H7.04167C7.33958 6.875 7.58333 7.11406 7.58333 7.40625V8.46875ZM10.8333 14.8438C10.8333 15.136 10.5896 15.375 10.2917 15.375H9.20833C8.91045 15.375 8.66667 15.136 8.66667 14.8438V13.7812C8.66667 13.489 8.91045 13.25 9.20833 13.25H10.2917C10.5896 13.25 10.8333 13.489 10.8333 13.7812V14.8438ZM10.8333 11.6562C10.8333 11.9485 10.5896 12.1875 10.2917 12.1875H9.20833C8.91045 12.1875 8.66667 11.9485 8.66667 11.6562V10.5938C8.66667 10.3016 8.91042 10.0625 9.20833 10.0625H10.2917C10.5896 10.0625 10.8333 10.3016 10.8333 10.5938V11.6562ZM10.8333 8.46875C10.8333 8.76094 10.5896 9 10.2917 9H9.20833C8.91042 9 8.66667 8.76094 8.66667 8.46875V7.40625C8.66667 7.11406 8.91042 6.875 9.20833 6.875H10.2917C10.5896 6.875 10.8333 7.11406 10.8333 7.40625V8.46875ZM10.8333 5.28125C10.8333 5.57344 10.5896 5.8125 10.2917 5.8125H2.70833C2.41042 5.8125 2.16667 5.57344 2.16667 5.28125V3.15625C2.16667 2.86406 2.41042 2.625 2.70833 2.625H10.2917C10.5896 2.625 10.8333 2.86406 10.8333 3.15625V5.28125Z" fill="currentColor"/></symbol><symbol id="eye" viewBox="0 0 28 28" fill="none"><path d="M14 7C9.52109 7 6.03203 9.66875 1.75 14C5.43594 17.7023 8.53125 21 14 21C19.4633 21 23.4828 16.8219 26.25 14.0766C23.4172 10.8609 19.4031 7 14 7ZM14 18.993C11.2984 18.993 9.1 16.7508 9.1 14C9.1 11.2438 11.2984 9.00703 14 9.00703C16.7016 9.00703 18.9 11.2492 18.9 14C18.9 16.7563 16.7016 18.993 14 18.993Z" fill="currentColor"/><path d="M14.0008 12.25C14.0008 11.818 14.1594 11.4242 14.4164 11.118C14.2797 11.0961 14.143 11.0852 14.0008 11.0852C12.4258 11.0852 11.1406 12.3922 11.1406 14C11.1406 15.6078 12.4258 16.9148 14.0008 16.9148C15.5758 16.9148 16.8609 15.6078 16.8609 14C16.8609 13.8742 16.85 13.7484 16.8391 13.6227C16.5383 13.8578 16.1664 14 15.7563 14C14.7828 14 14.0008 13.218 14.0008 12.25Z" fill="currentColor"/></symbol><symbol id="chevron-down" viewBox="0 0 18 18" fill="none"><path d="M13.943 5.625L14.625 6.35273L9 12.375L3.375 6.35273L4.05352 5.625L9 10.916L13.943 5.625Z" fill="currentColor"/></symbol><symbol id="chevron-right" viewBox="0 0 9 15" fill="none"><path d="M1.68029e-07 0.909372L0.970313 -1.92978e-06L9 7.5L0.970312 15L1.07883e-08 14.0953L7.05469 7.5L1.68029e-07 0.909372Z" fill="currentColor"/></symbol><symbol id="chevron-left" viewBox="0 0 9 15" fill="none"><path d="M9 14.0906L8.02969 15L-4.339e-07 7.5L8.02969 -2.21289e-08L9 0.904688L1.94531 7.5L9 14.0906Z" fill="currentColor"/></symbol><symbol id="chevron-left-double" viewBox="0 0 15 15" fill="none"><path d="M15 14.0906L14.0297 15L6 7.5L14.0297 -2.21289e-08L15 0.904688L7.94531 7.5L15 14.0906Z" fill="currentColor"/><path d="M9 14.0906L8.02969 15L-4.339e-07 7.5L8.02969 -2.21289e-08L9 0.904688L1.94531 7.5L9 14.0906Z" fill="currentColor"/></symbol><symbol id="label" viewBox="0 0 38 38" fill="none"><path d="M25.2344 15.7344C26.5461 15.7344 27.6094 14.6711 27.6094 13.3594C27.6094 12.0477 26.5461 10.9844 25.2344 10.9844C23.9227 10.9844 22.8594 12.0477 22.8594 13.3594C22.8594 14.6711 23.9227 15.7344 25.2344 15.7344Z" stroke="currentColor" stroke-width="2.8" stroke-miterlimit="10" stroke-linecap="round" stroke-linejoin="round"/><path d="M30.4733 19.3697L18.5252 31.2792C17.5972 32.2041 16.0956 32.2029 15.1691 31.2765L7.21613 23.3235C6.28723 22.3946 6.28884 20.888 7.21972 19.9611L19.1177 8.11391C19.5628 7.67071 20.1653 7.42188 20.7935 7.42188H28.7966C30.1083 7.42188 31.1716 8.4852 31.1716 9.79688V17.6876C31.1716 18.3188 30.9204 18.9241 30.4733 19.3697Z" stroke="currentColor" stroke-width="2.8" stroke-miterlimit="10" stroke-linecap="round" stroke-linejoin="round"/></symbol><symbol id="history" viewBox="0 0 38 38" fill="none"><path d="M32.5625 18.9744C32.5763 26.4469 26.4823 32.5572 19.0098 32.5624C15.7825 32.5647 12.818 31.4397 10.4883 29.5595C9.88256 29.0706 9.83727 28.1627 10.3878 27.6122L11.0039 26.9961C11.4747 26.5253 12.2264 26.4738 12.748 26.8876C14.4643 28.2496 16.6365 29.0625 19 29.0625C24.562 29.0625 29.0625 24.5611 29.0625 19C29.0625 13.438 24.5611 8.9375 19 8.9375C16.3305 8.9375 13.9059 9.97487 12.1057 11.6682L14.8813 14.4438C15.4325 14.995 15.0421 15.9375 14.2626 15.9375H6.3125C5.82923 15.9375 5.4375 15.5458 5.4375 15.0625V7.11241C5.4375 6.3329 6.37998 5.94248 6.93123 6.49368L9.63127 9.19371C12.0661 6.86681 15.3661 5.4375 19 5.4375C26.4818 5.4375 32.5487 11.4958 32.5625 18.9744ZM22.6689 23.2829L23.2061 22.5921C23.6511 22.02 23.548 21.1953 22.9758 20.7503L20.75 19.0191V13.3125C20.75 12.5876 20.1624 12 19.4375 12H18.5625C17.8376 12 17.25 12.5876 17.25 13.3125V20.7309L20.8271 23.5131C21.3993 23.9581 22.2238 23.855 22.6689 23.2829Z" fill="currentColor"/></symbol><symbol id="badge" viewBox="0 0 38 38" fill="none"><path d="M18.9977 19.9042C21.569 19.9042 23.6535 17.8197 23.6535 15.2484C23.6535 12.677 21.569 10.5925 18.9977 10.5925C16.4263 10.5925 14.3418 12.677 14.3418 15.2484C14.3418 17.8197 16.4263 19.9042 18.9977 19.9042Z" fill="currentColor"/><path d="M29.9505 14.8361C30.1034 14.6378 30.2149 14.4109 30.2786 14.1687C30.3422 13.9266 30.3566 13.6741 30.3209 13.4263C30.2852 13.1785 30.2001 12.9404 30.0707 12.726C29.9413 12.5117 29.7702 12.3255 29.5676 12.1785L28.7746 11.603C28.5132 11.4134 28.3052 11.1593 28.171 10.8655C28.0368 10.5718 27.981 10.2482 28.0088 9.92645L28.0927 8.94996C28.1156 8.69976 28.0879 8.4475 28.0112 8.20823C27.9345 7.96896 27.8104 7.74758 27.6464 7.55729C27.4823 7.367 27.2816 7.2117 27.0562 7.10065C26.8308 6.9896 26.5854 6.92506 26.3345 6.9109L25.3558 6.85653C25.0334 6.83817 24.7213 6.73672 24.4498 6.56203C24.1782 6.38735 23.9565 6.14538 23.8061 5.85965L23.353 4.99192C23.2355 4.77061 23.0747 4.57516 22.8803 4.41715C22.6858 4.25914 22.4616 4.14179 22.2209 4.07206C21.9802 4.00233 21.728 3.98164 21.4792 4.01122C21.2304 4.0408 20.9901 4.12005 20.7724 4.24426L19.9206 4.72684C19.6393 4.88609 19.3216 4.96979 18.9985 4.96979C18.6753 4.96979 18.3576 4.88609 18.0763 4.72684L17.2245 4.24426C17.0064 4.12075 16.7658 4.04231 16.5168 4.01357C16.2678 3.98483 16.0157 4.00639 15.7752 4.07697C15.5347 4.14754 15.3109 4.2657 15.1169 4.42442C14.923 4.58315 14.7629 4.77921 14.6462 5.00098L14.1931 5.86871C14.0427 6.15445 13.821 6.39642 13.5494 6.5711C13.2779 6.74578 12.9657 6.84723 12.6434 6.86559L11.6646 6.91996C11.4138 6.93413 11.1683 6.99866 10.943 7.10971C10.7176 7.22077 10.5169 7.37607 10.3528 7.56635C10.1887 7.75664 10.0647 7.97802 9.98798 8.21729C9.9113 8.45656 9.88359 8.70882 9.9065 8.95903L9.99033 9.93551C10.0182 10.2573 9.96235 10.5808 9.82816 10.8746C9.69397 11.1684 9.48602 11.4225 9.22455 11.6121L8.43158 12.1875C8.22893 12.3346 8.05785 12.5208 7.92846 12.7351C7.79907 12.9495 7.71401 13.1876 7.67831 13.4354C7.6426 13.6832 7.65699 13.9356 7.72061 14.1778C7.78423 14.4199 7.89579 14.6469 8.04869 14.8451L8.64681 15.62C8.84424 15.8755 8.9722 16.1777 9.01825 16.4973C9.0643 16.8169 9.02688 17.1429 8.90963 17.4438L8.55392 18.35C8.463 18.5833 8.41978 18.8324 8.42684 19.0826C8.4339 19.3328 8.49109 19.5791 8.59503 19.8068C8.69897 20.0346 8.84754 20.2391 9.03194 20.4084C9.21635 20.5777 9.43284 20.7083 9.66861 20.7924L10.5907 21.1209C10.8952 21.2291 11.1664 21.4144 11.378 21.6585C11.5896 21.9027 11.7344 22.1975 11.7983 22.5143L11.975 23.3752L9.62103 31.0262L13.3548 29.8572L15.6793 33.0018L17.8022 26.0622C18.12 26.326 18.516 26.4772 18.9287 26.4923C19.3413 26.5075 19.7474 26.3858 20.0837 26.1461L22.3176 33.0018L24.6421 29.8572L28.3759 31.0262L25.9653 23.6312C25.9811 23.5791 25.9947 23.5293 26.006 23.4749L26.1986 22.5143C26.2625 22.1975 26.4073 21.9027 26.6189 21.6585C26.8305 21.4144 27.1017 21.2291 27.4062 21.1209L28.3283 20.7924C28.5641 20.7083 28.7806 20.5777 28.965 20.4084C29.1494 20.2391 29.2979 20.0346 29.4019 19.8068C29.5058 19.5791 29.563 19.3328 29.5701 19.0826C29.5771 18.8324 29.5339 18.5833 29.443 18.35L29.0873 17.4438C28.97 17.1429 28.9326 16.8169 28.9787 16.4973C29.0247 16.1777 29.1527 15.8755 29.3501 15.62L29.9505 14.8361ZM12.5301 15.2484C12.5301 13.9691 12.9095 12.7185 13.6202 11.6548C14.331 10.5911 15.3412 9.76199 16.5231 9.27242C17.7051 8.78284 19.0056 8.65475 20.2604 8.90433C21.5151 9.15391 22.6677 9.76996 23.5723 10.6746C24.4769 11.5792 25.0929 12.7317 25.3425 13.9865C25.5921 15.2412 25.464 16.5418 24.9744 17.7237C24.4849 18.9057 23.6558 19.9159 22.5921 20.6266C21.5284 21.3374 20.2778 21.7168 18.9985 21.7168C17.2835 21.715 15.6393 21.0329 14.4266 19.8202C13.214 18.6076 12.5319 16.9634 12.5301 15.2484Z" fill="currentColor"/></symbol><symbol id="hamburger" viewBox="0 0 24 25" fill="none"><path d="M19 17.5H5C3.897 17.5 3 18.397 3 19.5C3 20.603 3.897 21.5 5 21.5H19C20.103 21.5 21 20.603 21 19.5C21 18.397 20.103 17.5 19 17.5Z" fill="currentColor"/><path d="M19 10.5H5C3.897 10.5 3 11.397 3 12.5C3 13.603 3.897 14.5 5 14.5H19C20.103 14.5 21 13.603 21 12.5C21 11.397 20.103 10.5 19 10.5Z" fill="currentColor"/><path d="M19 3.5H5C3.897 3.5 3 4.397 3 5.5C3 6.603 3.897 7.5 5 7.5H19C20.103 7.5 21 6.603 21 5.5C21 4.397 20.103 3.5 19 3.5Z" fill="currentColor"/></symbol><symbol id="close" viewBox="0 0 17 17" fill="none"><path d="M14.5269 12.8363L10.1906 8.49999L14.5269 4.16366C14.9951 3.6955 14.9951 2.94178 14.5269 2.47362C14.0587 2.00546 13.305 2.00546 12.8369 2.47362L8.50054 6.80995L4.16421 2.47362C3.69604 2.00546 2.94233 2.00546 2.47417 2.47362C2.00601 2.94178 2.00601 3.6955 2.47417 4.16366L6.8105 8.49999L2.47417 12.8363C2.00601 13.3045 2.00601 14.0582 2.47417 14.5264C2.94233 14.9945 3.69604 14.9945 4.16421 14.5264L8.50054 10.19L12.8369 14.5264C13.305 14.9945 14.0587 14.9945 14.5269 14.5264C14.9917 14.0582 14.9917 13.3012 14.5269 12.8363Z" fill="currentColor"/></symbol><symbol id="call" viewBox="0 0 25 25" fill="none"><path d="M15.5664 3.90625C16.8915 4.26189 18.0998 4.95982 19.07 5.92999C20.0402 6.90016 20.7381 8.10845 21.0938 9.43359" stroke="currentColor" stroke-width="2" stroke-linecap="round" stroke-linejoin="round"/><path d="M14.7559 6.92383C15.5529 7.13549 16.2797 7.55409 16.8628 8.13718C17.4459 8.72027 17.8645 9.44715 18.0762 10.2441" stroke="currentColor" stroke-width="2" stroke-linecap="round" stroke-linejoin="round"/><path d="M9.0332 12.1875C9.83713 13.8477 11.1796 15.1867 12.8418 15.9863C12.9644 16.0444 13.1 16.0695 13.2353 16.0592C13.3706 16.049 13.5008 16.0036 13.6133 15.9277L16.0547 14.2969C16.1626 14.2237 16.2872 14.1791 16.417 14.1671C16.5468 14.1552 16.6775 14.1763 16.7969 14.2285L21.3672 16.1914C21.5234 16.2564 21.6539 16.371 21.7386 16.5174C21.8233 16.6639 21.8575 16.8341 21.8359 17.002C21.6911 18.1326 21.1392 19.1716 20.2836 19.9248C19.428 20.6779 18.3273 21.0935 17.1875 21.0938C13.6651 21.0938 10.287 19.6945 7.79624 17.2038C5.30552 14.713 3.90625 11.3349 3.90625 7.8125C3.90651 6.67266 4.32208 5.57196 5.07522 4.71636C5.82836 3.86077 6.86744 3.30892 7.99805 3.16406C8.16586 3.14251 8.3361 3.17671 8.48256 3.26141C8.62903 3.34612 8.74358 3.47661 8.80859 3.63281L10.7715 8.21289C10.8225 8.33042 10.8439 8.4587 10.8337 8.58642C10.8234 8.71415 10.782 8.8374 10.7129 8.94531L9.08203 11.4258C9.00943 11.538 8.96681 11.6669 8.95826 11.8003C8.94971 11.9336 8.97552 12.067 9.0332 12.1875Z" stroke="currentColor" stroke-width="2" stroke-linecap="round" stroke-linejoin="round"/></symbol><symbol id="cart" viewBox="0 0 18 18" fill="none"><path d="M16.0761 4.98374C15.8852 4.91682 15.683 4.88794 15.4811 4.89874H7.74605C7.44855 4.89874 7.06605 4.85624 6.76855 4.94124C6.58605 4.98278 6.42326 5.08555 6.30728 5.23247C6.19129 5.37938 6.12911 5.56157 6.13105 5.74874C6.13105 5.97417 6.22061 6.19037 6.38001 6.34978C6.53942 6.50918 6.75562 6.59874 6.98105 6.59874H14.6736L13.9936 10.1687C13.9506 10.362 13.8428 10.5347 13.6883 10.6584C13.5337 10.782 13.3415 10.8492 13.1436 10.8487H6.76855C6.57233 10.8428 6.38336 10.7732 6.23006 10.6506C6.07677 10.528 5.96745 10.3589 5.91855 10.1687L4.55855 3.87874C4.47616 3.49833 4.26757 3.15695 3.96667 2.91006C3.66577 2.66316 3.29023 2.52526 2.90105 2.51874H2.30605C2.08062 2.51874 1.86442 2.60829 1.70501 2.7677C1.54561 2.9271 1.45605 3.1433 1.45605 3.36874C1.45605 3.59417 1.54561 3.81037 1.70501 3.96978C1.86442 4.12918 2.08062 4.21874 2.30605 4.21874H2.90105L4.26105 10.5087C4.51605 11.6987 5.53605 12.5062 6.76855 12.5062H13.1436C14.1636 12.5062 15.2261 11.8262 15.5236 10.8487C15.7361 10.1687 15.8636 9.40374 15.9911 8.72374C16.1186 8.00124 16.2886 7.27874 16.4161 6.59874C16.4647 6.4619 16.4933 6.31876 16.5011 6.17374C16.5362 6.03496 16.5505 5.89173 16.5436 5.74874C16.5436 5.40874 16.3736 5.06874 16.0761 4.98374ZM4.85605 14.2062C4.85605 14.5444 4.99038 14.8687 5.22949 15.1078C5.4686 15.3469 5.7929 15.4812 6.13105 15.4812C6.46921 15.4812 6.79351 15.3469 7.03262 15.1078C7.27173 14.8687 7.40605 14.5444 7.40605 14.2062C7.40605 13.8681 7.27173 13.5438 7.03262 13.3047C6.79351 13.0656 6.46921 12.9312 6.13105 12.9312C5.7929 12.9312 5.4686 13.0656 5.22949 13.3047C4.99038 13.5438 4.85605 13.8681 4.85605 14.2062ZM12.5061 14.2062C12.5061 14.4584 12.5808 14.7049 12.7209 14.9146C12.861 15.1243 13.0602 15.2877 13.2931 15.3842C13.5261 15.4807 13.7825 15.5059 14.0298 15.4567C14.2771 15.4075 14.5043 15.2861 14.6826 15.1078C14.8609 14.9295 14.9824 14.7023 15.0316 14.455C15.0808 14.2077 15.0555 13.9513 14.959 13.7183C14.8625 13.4853 14.6991 13.2862 14.4894 13.1461C14.2797 13.006 14.0332 12.9312 13.7811 12.9312C13.4429 12.9312 13.1186 13.0656 12.8795 13.3047C12.6404 13.5438 12.5061 13.8681 12.5061 14.2062Z" fill="currentColor"/></symbol><symbol id="mail" viewBox="0 0 16 16" fill="none"><path d="M13.3333 2H2.66667C1.2 2 0 3.2 0 4.66667V11.3333C0 12.8 1.2 14 2.66667 14H13.3333C14.8 14 16 12.8 16 11.3333V4.66667C16 3.2 14.8 2 13.3333 2ZM14.4 5.86667L9.13333 9.4C8.8 9.6 8.4 9.73333 8 9.73333C7.6 9.73333 7.2 9.6 6.86667 9.4L1.6 5.86667C1.33333 5.66667 1.26667 5.26667 1.46667 4.93333C1.66667 4.66667 2.06667 4.6 2.4 4.8L7.66667 8.33333C7.86667 8.46667 8.2 8.46667 8.4 8.33333L13.6667 4.8C14 4.6 14.4 4.66667 14.6 5C14.7333 5.26667 14.6667 5.66667 14.4 5.86667Z" fill="currentColor"/></symbol><symbol id="" viewBox="" fill="none"/><symbol id="" viewBox="" fill="none"/><symbol id="" viewBox="" fill="none"/></svg>