<svg width="49" height="48" viewBox="0 0 49 48" fill="none" xmlns="http://www.w3.org/2000/svg"><rect x="0.5" width="48" height="48" rx="24" fill="#675DA9"/><path d="M36.254 12.1845C35.4601 11.4547 32.2461 9.11782 25.0819 9.08581C25.0819 9.08581 16.6372 8.57362 12.5205 12.351C10.2285 14.643 9.42178 17.9915 9.33855 22.153C9.25532 26.3081 9.14648 34.0998 16.6564 36.2125H16.6628L16.6564 39.4329C16.6564 39.4329 16.6116 40.739 17.4695 41.0015C18.5067 41.3216 19.1213 40.3292 20.1137 39.26C20.6579 38.671 21.407 37.8131 21.9768 37.1537C27.1114 37.5826 31.0617 36.5967 31.5099 36.4494C32.547 36.1101 38.418 35.361 39.3719 27.5694C40.3579 19.5536 38.8918 14.4766 36.254 12.1845ZM37.1247 27.006C36.318 33.5107 31.5611 33.9205 30.684 34.2022C30.3126 34.3238 26.8425 35.1882 22.4761 34.9C22.4761 34.9 19.2238 38.8247 18.2122 39.8427C18.0521 40.0027 17.8665 40.0667 17.7448 40.0347C17.572 39.9899 17.5207 39.785 17.5271 39.4841C17.5271 39.0488 17.5527 34.1254 17.5527 34.1254C17.5463 34.1254 17.5463 34.1254 17.5527 34.1254C11.1952 32.3647 11.5666 25.7319 11.637 22.2618C11.7074 18.7918 12.3605 15.9427 14.3004 14.0284C17.7768 10.8785 24.9539 11.3458 24.9539 11.3458C31.0105 11.3714 33.9107 13.1961 34.583 13.8043C36.8174 15.725 37.957 20.3027 37.1247 27.006Z" fill="white"/><path d="M28.0331 22.3835C27.8218 22.3835 27.6425 22.217 27.6297 21.9993C27.5593 20.6228 26.9127 19.9506 25.5938 19.8802C25.3697 19.8674 25.1968 19.6753 25.2097 19.4512C25.2225 19.2271 25.4145 19.0543 25.6386 19.0671C27.38 19.1631 28.3532 20.1619 28.4428 21.9545C28.4556 22.1786 28.2828 22.3707 28.0587 22.3771C28.0459 22.3835 28.0395 22.3835 28.0331 22.3835Z" fill="white"/><path d="M30.1077 23.075H30.1013C29.8772 23.0686 29.6979 22.883 29.7043 22.6589C29.7363 21.276 29.3394 20.1556 28.4943 19.2336C27.6556 18.3117 26.4968 17.8123 24.9666 17.7035C24.7425 17.6843 24.5761 17.4922 24.5953 17.2681C24.6145 17.044 24.8065 16.8776 25.0306 16.8968C26.7593 17.0248 28.1229 17.6266 29.0961 18.6894C30.0757 19.7586 30.5494 21.0967 30.5174 22.6781C30.511 22.9022 30.3254 23.075 30.1077 23.075Z" fill="white"/><path d="M32.234 23.9073C32.0099 23.9073 31.8306 23.728 31.8306 23.5039C31.8114 21.0262 31.1007 19.1375 29.6538 17.7226C28.2261 16.3269 26.4142 15.6162 24.2823 15.597C24.0582 15.597 23.8789 15.4114 23.8789 15.1873C23.8789 14.9632 24.0646 14.7839 24.2823 14.7839C26.6319 14.8031 28.6294 15.5906 30.2108 17.14C31.7986 18.6894 32.6117 20.8277 32.6373 23.4911C32.6437 23.7216 32.4644 23.9073 32.234 23.9073C32.2404 23.9073 32.2404 23.9073 32.234 23.9073Z" fill="white"/><path d="M25.6906 27.3964C25.6906 27.3964 26.2605 27.4477 26.5678 27.0699L27.1632 26.3209C27.4513 25.9495 28.1491 25.7126 28.8278 26.0904C29.2055 26.3016 29.8906 26.7242 30.3131 27.0379C30.7677 27.3708 31.6896 28.1391 31.696 28.1455C32.1378 28.5169 32.2402 29.0611 31.9393 29.6437C31.9393 29.6437 31.9393 29.6501 31.9393 29.6565C31.632 30.2007 31.2159 30.7129 30.6973 31.1866C30.6909 31.1866 30.6909 31.193 30.6845 31.193C30.2555 31.5516 29.833 31.7564 29.4232 31.8013C29.372 31.8141 29.3144 31.8141 29.2375 31.8141C29.0583 31.8141 28.879 31.7885 28.6998 31.7308L28.6869 31.7116C28.0467 31.5324 26.9839 31.0842 25.2169 30.1046C24.0645 29.4708 23.1105 28.8242 22.2974 28.1775C21.8685 27.8382 21.4331 27.4605 20.9849 27.0123C20.9721 26.9995 20.9529 26.9803 20.9401 26.9675C20.9273 26.9547 20.9081 26.9355 20.8953 26.9227C20.8825 26.9099 20.8633 26.8907 20.8505 26.8779C20.8377 26.8651 20.8185 26.8458 20.8057 26.833C20.3639 26.3849 19.9798 25.9495 19.6404 25.5206C18.9938 24.7139 18.3472 23.7535 17.7133 22.6011C16.7338 20.8276 16.2856 19.7649 16.1063 19.131L16.0871 19.1182C16.0295 18.939 16.0039 18.7597 16.0039 18.5804C16.0039 18.5036 16.0039 18.446 16.0167 18.3948C16.0679 17.9786 16.2728 17.5624 16.6249 17.1335C16.6249 17.1271 16.6313 17.1271 16.6313 17.1207C17.1051 16.5957 17.6173 16.1859 18.1615 15.8786C18.1615 15.8786 18.1679 15.8786 18.1743 15.8786C18.7505 15.5777 19.2947 15.6802 19.6724 16.1219C19.6724 16.1219 20.4471 17.0503 20.7801 17.5048C21.0938 17.9338 21.5163 18.6124 21.7276 18.9902C22.1053 19.6688 21.8685 20.3667 21.4971 20.6548L20.748 21.2502C20.3703 21.5575 20.4215 22.1273 20.4215 22.1273C20.4215 22.1273 21.5291 26.3401 25.6906 27.3964Z" fill="white"/></svg>