<svg width="18" height="18" viewBox="0 0 18 18" fill="none" xmlns="http://www.w3.org/2000/svg">
<path d="M2.76 4.0875L8.535 8.6325C8.66741 8.73713 8.83124 8.79405 9 8.79405C9.16876 8.79405 9.33259 8.73713 9.465 8.6325L15.24 4.0875M15 14.25H3C2.80109 14.25 2.61032 14.171 2.46967 14.0303C2.32902 13.8897 2.25 13.6989 2.25 13.5V4.5C2.25 4.30109 2.32902 4.11032 2.46967 3.96967C2.61032 3.82902 2.80109 3.75 3 3.75H15C15.1989 3.75 15.3897 3.82902 15.5303 3.96967C15.671 4.11032 15.75 4.30109 15.75 4.5V13.5C15.75 13.6989 15.671 13.8897 15.5303 14.0303C15.3897 14.171 15.1989 14.25 15 14.25Z" stroke="black" stroke-width="1.2" stroke-linecap="round" stroke-linejoin="round"/>
</svg>
