<svg width="30" height="30" viewBox="0 0 30 30" fill="none" xmlns="http://www.w3.org/2000/svg">
<path d="M26.1375 6.975C26.0689 6.82537 25.9713 6.69078 25.8505 6.57895C25.7297 6.46712 25.588 6.38025 25.4335 6.32334C25.2791 6.26643 25.1149 6.24059 24.9504 6.24731C24.7859 6.25403 24.6243 6.29318 24.475 6.3625C24.0417 6.49129 23.5853 6.52334 23.1382 6.45638C22.6911 6.38942 22.2641 6.22509 21.8875 5.975C20.6024 5.39856 19.2085 5.10444 17.8 5.1125L18.0875 4.075C18.1364 3.88865 18.1415 3.69354 18.1024 3.50489C18.0634 3.31625 17.9813 3.13917 17.8625 2.9875C17.7461 2.83623 17.5965 2.71364 17.4254 2.62914C17.2542 2.54463 17.0659 2.50046 16.875 2.5H13.125C12.9341 2.50046 12.7459 2.54463 12.5747 2.62914C12.4035 2.71364 12.254 2.83623 12.1375 2.9875C12.0188 3.13917 11.9367 3.31625 11.8976 3.50489C11.8586 3.69354 11.8637 3.88865 11.9125 4.075L12.5875 6.575C12.6569 6.83324 12.8072 7.06244 13.0165 7.22894C13.2257 7.39543 13.4828 7.49043 13.75 7.5H15.6625C15.8412 7.60098 16.0451 7.64869 16.25 7.6375C17.7193 7.5192 19.197 7.71084 20.5875 8.2C21.5535 8.73757 22.6448 9.00931 23.75 8.9875C24.3759 8.99726 24.9971 8.87813 25.575 8.6375C25.8684 8.48985 26.0919 8.23267 26.1971 7.92157C26.3024 7.61047 26.281 7.27044 26.1375 6.975Z" fill="#F9F9F9" stroke="#0D0D0D" stroke-width="1.3"/>
<path d="M24.3625 16.4626L22.6375 10.6751C22.144 9.03327 21.1346 7.59414 19.7589 6.57111C18.3832 5.54808 16.7144 4.99561 15 4.99561C13.2856 4.99561 11.6168 5.54808 10.2411 6.57111C8.86539 7.59414 7.85597 9.03327 7.3625 10.6751L5.6375 16.4626C5.21452 17.8568 4.9997 19.3057 5 20.7626C4.99892 22.098 5.42554 23.3985 6.21734 24.4738C7.00915 25.549 8.12452 26.3424 9.4 26.7376C11.2186 27.2675 13.1059 27.5245 15 27.5001C16.8941 27.5245 18.7814 27.2675 20.6 26.7376C21.8755 26.3424 22.9909 25.549 23.7827 24.4738C24.5745 23.3985 25.0011 22.098 25 20.7626C25.0003 19.3057 24.7855 17.8568 24.3625 16.4626Z" fill="#F9F9F9" stroke="#0D0D0D" stroke-width="1.3"/>
<path d="M15.625 15H14.375C14.2092 15 14.0502 14.9342 13.933 14.8169C13.8158 14.6997 13.75 14.5408 13.75 14.375C13.75 14.2092 13.8158 14.0503 13.933 13.9331C14.0502 13.8158 14.2092 13.75 14.375 13.75H17.5C17.8315 13.75 18.1494 13.6183 18.3839 13.3839C18.6183 13.1495 18.75 12.8315 18.75 12.5C18.75 12.1685 18.6183 11.8505 18.3839 11.6161C18.1494 11.3817 17.8315 11.25 17.5 11.25H16.25C16.25 10.9185 16.1183 10.6005 15.8839 10.3661C15.6494 10.1317 15.3315 10 15 10C14.6685 10 14.3505 10.1317 14.1161 10.3661C13.8817 10.6005 13.75 10.9185 13.75 11.25V11.3125C12.9905 11.4667 12.3154 11.8976 11.8558 12.5216C11.3962 13.1455 11.1848 13.918 11.2627 14.6891C11.3405 15.4601 11.7021 16.1747 12.2773 16.6941C12.8524 17.2136 13.6 17.5008 14.375 17.5H15.625C15.7907 17.5 15.9497 17.5658 16.0669 17.6831C16.1841 17.8003 16.25 17.9592 16.25 18.125C16.25 18.2908 16.1841 18.4497 16.0669 18.5669C15.9497 18.6842 15.7907 18.75 15.625 18.75H12.5C12.1685 18.75 11.8505 18.8817 11.6161 19.1161C11.3817 19.3505 11.25 19.6685 11.25 20C11.25 20.3315 11.3817 20.6495 11.6161 20.8839C11.8505 21.1183 12.1685 21.25 12.5 21.25H13.75C13.75 21.5815 13.8817 21.8995 14.1161 22.1339C14.3505 22.3683 14.6685 22.5 15 22.5C15.3315 22.5 15.6494 22.3683 15.8839 22.1339C16.1183 21.8995 16.25 21.5815 16.25 21.25C17.0788 21.1671 17.8407 20.7584 18.3682 20.1137C18.8956 19.4691 19.1454 18.6413 19.0625 17.8125C18.9796 16.9837 18.5709 16.2218 17.9262 15.6943C17.2816 15.1669 16.4538 14.9171 15.625 15Z" fill="#F9F9F9" stroke="#0D0D0D" stroke-width="1.3"/>
</svg>
