<svg width="18" height="18" viewBox="0 0 18 18" fill="none" xmlns="http://www.w3.org/2000/svg">
<path d="M15.75 11.25V14.1975C15.7523 14.4142 15.7076 14.6288 15.619 14.8266C15.5304 15.0244 15.4 15.2006 15.2368 15.3432C15.0736 15.4857 14.8814 15.5912 14.6735 15.6524C14.4656 15.7136 14.2469 15.729 14.0325 15.6975C11.0602 15.3157 8.29946 13.9558 6.18523 11.8321C4.071 9.70832 2.72348 6.94149 2.355 3.96752C2.32367 3.75374 2.33889 3.5357 2.39963 3.32834C2.46037 3.12098 2.56519 2.92919 2.70692 2.7661C2.84865 2.603 3.02394 2.47245 3.2208 2.38338C3.41766 2.29431 3.63143 2.24882 3.8475 2.25002H6.75C6.93541 2.2489 7.11467 2.31649 7.25317 2.43976C7.39168 2.56303 7.47961 2.73323 7.5 2.91752C7.57443 3.90045 7.82864 4.86138 8.25 5.75252C8.32226 5.92129 8.3301 6.1107 8.27204 6.28487C8.21399 6.45904 8.09407 6.60586 7.935 6.69752L7.29 7.06502C7.19703 7.11616 7.11597 7.18643 7.05217 7.27121C6.98837 7.35599 6.94328 7.45335 6.91989 7.55684C6.8965 7.66033 6.89533 7.76761 6.91647 7.87159C6.9376 7.97557 6.98056 8.07388 7.0425 8.16002C7.7845 9.24691 8.72312 10.1855 9.81 10.9275C9.89615 10.9895 9.99446 11.0324 10.0984 11.0536C10.2024 11.0747 10.3097 11.0735 10.4132 11.0501C10.5167 11.0267 10.614 10.9817 10.6988 10.9179C10.7836 10.8541 10.8539 10.773 10.905 10.68L11.2725 10.035C11.3696 9.87387 11.5238 9.75512 11.7044 9.70233C11.885 9.64954 12.0789 9.66656 12.2475 9.75002C13.1386 10.1714 14.0996 10.4256 15.0825 10.5C15.2668 10.5204 15.437 10.6083 15.5603 10.7469C15.6835 10.8854 15.7511 11.0646 15.75 11.25Z" stroke="black" stroke-width="1.2" stroke-linecap="round" stroke-linejoin="round"/>
</svg>
