<svg width="30" height="30" viewBox="0 0 30 30" fill="none" xmlns="http://www.w3.org/2000/svg">
<path d="M13.6375 5.0751L8.42499 12.5001H6.97499C6.74758 12.4983 6.52497 12.4345 6.33114 12.3155C6.13731 12.1966 5.9796 12.027 5.87499 11.8251C5.77646 11.6286 5.73151 11.4095 5.74468 11.19C5.75784 10.9706 5.82866 10.7584 5.94999 10.5751L10.3375 4.3251C10.4249 4.18006 10.5409 4.0543 10.6785 3.95546C10.816 3.85661 10.9721 3.78675 11.1375 3.7501C11.2992 3.72011 11.4653 3.72234 11.6262 3.75666C11.7871 3.79098 11.9396 3.85671 12.075 3.9501L13.6375 5.0751ZM24.4625 7.0251L18.325 2.7251C18.053 2.53658 17.7174 2.46361 17.3916 2.52219C17.0659 2.58077 16.7767 2.76612 16.5875 3.0376L14.65 5.7876L9.99999 12.5001H21.5625C21.749 12.4863 21.9301 12.4309 22.0923 12.3379C22.2546 12.2449 22.3939 12.1166 22.5 11.9626L24.775 8.7501C24.9635 8.47811 25.0365 8.14246 24.9779 7.81675C24.9193 7.49104 24.734 7.20185 24.4625 7.0126V7.0251Z" fill="#F9F9F9" stroke="#0D0D0D" stroke-width="1.3"/>
<path d="M25 10H5C3.61929 10 2.5 11.1193 2.5 12.5V25C2.5 26.3807 3.61929 27.5 5 27.5H25C26.3807 27.5 27.5 26.3807 27.5 25V12.5C27.5 11.1193 26.3807 10 25 10Z" fill="#F9F9F9" stroke="#0D0D0D" stroke-width="1.3"/>
<path d="M21.25 16.25H27.5V21.25H21.25C20.9185 21.25 20.6005 21.1183 20.3661 20.8839C20.1317 20.6495 20 20.3315 20 20V17.5C20 17.1685 20.1317 16.8505 20.3661 16.6161C20.6005 16.3817 20.9185 16.25 21.25 16.25Z" fill="#F9F9F9" stroke="#0D0D0D" stroke-width="1.3"/>
</svg>
