<svg width="67" height="67" viewBox="0 0 67 67" fill="none" xmlns="http://www.w3.org/2000/svg"><path fill-rule="evenodd" clip-rule="evenodd" d="M36.3836 29.9146C39.2189 29.9146 41.5181 32.2143 41.5181 35.0497C41.5181 37.8849 39.2189 40.1842 36.3836 40.1842C33.5482 40.1842 31.2491 37.8849 31.2491 35.0497C31.2491 32.2143 33.5482 29.9146 36.3836 29.9146ZM27.3953 46.8478H29.3633L28.3796 44.0524L27.3953 46.8478ZM30.1351 49.0427H26.6223L26.1533 50.3756H23.6446L27.0989 40.5617H27.1504H29.6076H29.6592L32.3132 48.1019H32.6195L34.9888 40.6543H35.4363H37.4976H37.9451L40.3144 48.1019H41.1718V40.4343H43.6806V46.3383L47.0996 40.7099V40.4337H47.2675H49.6083H49.7763L49.6083 40.7099V43.7218C50.3362 41.7706 52.2161 40.3799 54.4209 40.3799C57.2563 40.3799 59.5554 42.679 59.5554 45.5144C59.5554 48.3497 57.2563 50.6489 54.4209 50.6489C52.2161 50.6489 50.3362 49.2587 49.6083 47.3069V50.4676H47.0996V44.8392L43.6806 50.4676H41.1706H41.0659H38.5571H34.3745H31.8663H30.7442V50.3744H30.6041L30.1351 49.0427ZM35.1277 48.1019L36.4664 43.8943L37.805 48.1019H35.1277ZM21.8781 47.3868H20.5527V50.5325H18.044V40.4979H18.2697V40.4881H21.2638C26.8053 40.4881 26.3374 47.3868 21.8781 47.3868ZM21.7599 45.1131C23.2508 45.0854 23.3857 42.7613 21.7802 42.7613H20.5533V45.1131H21.7599ZM21.7762 40.1696L17.9606 40.1842V30.1502H21.4895C25.7081 30.1502 25.4556 33.9513 23.9404 34.8395C26.206 35.613 26.2697 40.1523 21.7762 40.1696ZM21.6505 37.896C22.3997 37.896 22.9243 37.4913 22.8456 37.0617C22.7674 36.6361 22.6041 36.1862 21.6505 36.1862H20.4688V37.896H21.6505ZM21.4473 34.1869C22.5266 34.2344 22.5416 32.4233 21.5903 32.4233H20.4688V34.1869H21.4473ZM14.9012 38.7048H11.4486L10.4401 40.1842H7.44434L15.3024 30.1496H17.2797H17.41V40.1842H14.9012V38.7048ZM12.9876 36.4473H14.9017V33.6392L12.9876 36.4473ZM31.45 32.4233H29.647V40.1842H27.1382V32.4233H25.3352V30.1502H31.45V32.4233ZM54.4192 42.7665C55.9368 42.7665 57.1676 43.9974 57.1676 45.5149C57.1676 47.0325 55.9368 48.2634 54.4192 48.2634C52.9017 48.2634 51.6707 47.0325 51.6707 45.5149C51.6707 43.9974 52.9011 42.7665 54.4192 42.7665ZM36.3836 32.3012C37.9011 32.3012 39.1321 33.5321 39.1321 35.0497C39.1321 36.5672 37.9011 37.7981 36.3836 37.7981C34.866 37.7981 33.6351 36.5672 33.6351 35.0497C33.6351 33.5315 34.866 32.3012 36.3836 32.3012Z" fill="#7E8286"/><path fill-rule="evenodd" clip-rule="evenodd" d="M42.0012 15.9946L47.2503 20.5414L53.7623 18.1282L51.0595 24.5255L55.3672 29.9726L48.4483 29.3792L44.5985 35.1593L43.0248 28.3955L36.338 26.5201L42.2843 22.9332L42.0012 15.9946ZM36.3021 15.6333C38.0269 15.6333 39.6985 15.8609 41.2895 16.2858L41.2514 18.2011C39.1386 17.5104 37.0178 17.2353 35.1163 17.3454C27.4296 17.7912 20.759 22.2199 17.8809 29.1817C20.3254 21.3335 27.6491 15.6339 36.3021 15.6333ZM55.0534 30.3797C55.4054 31.8375 55.5936 33.3592 55.5936 34.9248C55.5936 36.7481 55.3406 38.5116 54.8675 40.1837H53.6001C53.7709 39.1277 53.8653 38.0432 53.8815 36.9374C53.9163 34.5264 53.6187 32.3564 53.064 30.4173L55.0534 30.3797ZM46.2278 33.6515C46.2863 34.0893 46.317 34.5357 46.317 34.9885C46.317 37.1944 45.5985 39.2325 44.3832 40.8826V40.1832H43.7399C44.5806 38.7537 45.0628 37.0879 45.0628 35.3098C45.0628 35.2745 45.0623 35.2403 45.0623 35.205L46.2278 33.6515ZM36.1823 26.0783C34.8511 25.7946 33.5681 25.658 32.3523 25.6528C33.9728 25.0472 35.8511 24.8926 37.5696 25.1091L36.1823 26.0783ZM36.3658 23.0902C37.5435 23.0902 38.6812 23.2621 39.7558 23.5811L38.2279 24.6488C35.561 23.8336 32.8363 24.082 30.1787 24.8242C31.9817 23.7247 34.0996 23.0907 36.3658 23.0902ZM47.7714 31.5938C48.0916 32.6696 48.2641 33.8091 48.2641 34.9885C48.2641 38.47 46.7674 41.6029 44.3832 43.7787V42.3816C46.0952 40.4293 47.134 37.8719 47.134 35.0719C47.134 34.2804 47.0511 33.5085 46.893 32.7639L47.7714 31.5938ZM36.3658 20.9143C38.0565 20.9143 39.6777 21.2131 41.1796 21.7596L41.1628 22.598L40.4188 23.1179C38.8207 22.4782 37.0762 22.125 35.2501 22.125C31.3106 22.125 27.7533 23.7635 25.2214 26.3951C27.7944 23.0623 31.8294 20.9149 36.3658 20.9143ZM49.7024 30.481C50.1806 31.8961 50.44 33.4124 50.44 34.989C50.44 36.8238 50.088 38.5771 49.4493 40.1843H48.538C48.9456 38.8758 49.1656 37.4845 49.1656 36.0416C49.1656 34.2618 48.831 32.5596 48.2213 30.9951L48.5913 30.5024L49.7024 30.481ZM37.7878 18.3105C38.9811 18.4078 40.1339 18.6319 41.2351 18.9666L41.2027 20.5889C39.6556 20.0128 38.0976 19.7117 36.6651 19.6782C30.1266 19.5247 24.1728 22.814 21.2547 28.5095C23.8671 22.0329 30.4618 17.7131 37.7878 18.3105ZM52.2956 30.4318C52.7635 32.1913 52.9453 34.0586 52.789 35.9768C52.6627 37.5256 52.3246 39.0061 51.8058 40.3928C51.3009 40.7072 50.8337 41.0777 50.3971 41.4946C50.7978 40.2463 51.0688 38.9291 51.2002 37.5621C51.4572 34.8866 51.2014 32.5237 50.5777 30.4642L52.2956 30.4318ZM44.1729 20.5739L46.8086 22.8574L50.0787 21.6456L48.7216 24.8578L50.8846 27.5935L47.4101 27.2954L45.4768 30.1978L44.6865 26.8015L41.3289 25.86L44.3148 24.0588L44.1729 20.5739Z" fill="#7E8286"/></svg>