<svg width="225" height="131" viewBox="0 0 225 131" fill="none" xmlns="http://www.w3.org/2000/svg"><path d="M26.3615 33.7686C24.9629 37.2226 25.571 39.2841 27.5777 40.6037C20.469 43.474 17.0575 47.0497 14.8075 51.6044C13.269 54.7726 12.9831 58.178 14.1264 60.2882C15.5372 62.9517 18.0244 64.928 25.0723 64.8672C32.1203 64.8064 42.0568 62.3314 43.3156 62.0699L48.0406 52.9057C45.8635 53.222 33.5798 55.253 30.3385 55.3382C27.8088 55.3382 25.8811 54.9855 26.0818 52.2976C26.2825 49.6098 29.9372 46.3686 36.6264 45.499C43.3156 44.6294 45.4014 44.4348 46.4595 44.2828L50.7162 35.9213C49.269 36.0733 40.3419 37.0341 39.8129 37.0767C39.2838 37.1193 37.3804 37.5328 36.7723 36.2922C36.1642 35.0517 37.046 31.1294 46.9277 30.3024C56.8095 29.4753 59.5946 29.1895 59.5946 29.1895L63.8514 20.9375L46.9338 22.2024C33.373 23.2057 27.748 30.3145 26.3615 33.7686Z" fill="url(#paint0_linear_82_9979)"/><path d="M79.0542 30.1382C79.0542 30.1382 70.7292 46.5572 68.4549 50.9781C66.734 51.2031 66.1684 51.3673 64.5083 51.5862C62.8481 51.8051 62.24 51.6227 61.9785 51.0207C61.7171 50.4186 61.6198 49.2572 71.5258 31.0139L60.5069 31.9261C60.5069 31.9261 55.6421 41.8261 52.2731 48.1322C48.9042 54.4382 49.3968 56.895 50.99 58.4153C51.7684 59.1693 53.4225 60.3734 57.6367 59.7288C61.8508 59.0842 64.186 58.8166 75.5333 56.9497L89.7569 29.2261L79.0542 30.1382Z" fill="url(#paint1_linear_82_9979)"/><path d="M104.345 27.8029C101.165 28.2164 92.3531 29.2624 85.8889 41.3759C79.4248 53.4894 78.0869 56.5786 78.0869 56.5786L88.7835 54.961C88.7835 54.961 92.7241 47.2563 95.7707 41.2725C98.8173 35.2887 102.886 35.2644 106.473 34.7354L110.365 27.2617C110.365 27.2617 107.525 27.4077 104.345 27.8029Z" fill="url(#paint2_linear_82_9979)"/><path d="M121.342 38.396C120.467 40.1732 119.297 41.7894 117.882 43.1757C116.832 44.2992 115.481 45.0971 113.99 45.4744C112.774 45.6872 112.476 45.3832 112.293 45.1764C112.08 44.8085 111.984 44.384 112.02 43.9602C112.402 42.3206 113.017 40.744 113.844 39.2778C114.834 37.3525 116.132 35.6024 117.687 34.0967C118.661 33.1281 119.906 32.4772 121.257 32.2298C121.573 32.2298 123.081 32.0656 123.081 33.2393C123.081 34.4129 122.272 36.596 121.293 38.4143L121.342 38.396ZM125.781 25.4555C122.982 25.6192 120.237 26.2953 117.681 27.4501C115.334 28.5811 110.676 31.4028 107.635 35.2703C104.595 39.1379 102.728 42.1541 102.333 46.2163C101.937 50.2784 104.084 51.8048 106.066 52.2062C107.803 52.5528 109.59 52.5528 111.327 52.2062C113.395 51.8157 115.413 51.1915 117.341 50.3453C119.315 49.3917 121.181 48.2275 122.905 46.873C124.531 45.6252 125.988 44.1719 127.241 42.5494C128.59 40.9707 129.776 39.2592 130.78 37.4413C131.327 36.444 133.979 31.0136 132.197 28.2406C130.415 25.4676 128.171 25.346 125.781 25.4616V25.4555Z" fill="url(#paint3_linear_82_9979)"/><path d="M147.77 32.8382C146.954 34.1528 145.727 35.1616 144.28 35.7085C143.259 35.9825 142.215 36.1576 141.16 36.2315L144.584 29.6457C146.475 29.4997 147.624 29.3051 148.233 29.9801C148.841 30.6551 148.5 31.4335 147.795 32.8382H147.77ZM156.059 25.693C154.897 23.6801 152.131 23.1997 148.445 23.522C144.76 23.8443 142.079 24.2457 139.324 24.4646L126.371 49.397L135.055 48.1808L137.743 42.8842C140.106 42.593 142.443 42.1131 144.73 41.449C149.268 39.8661 152.995 36.5519 155.098 32.2301C156.375 29.6031 157.202 27.6997 156.047 25.693H156.059Z" fill="#1F5295"/><path d="M166.889 37.5268C166.281 37.618 163.8 38.2991 163.295 36.9186C162.79 35.5382 163.228 34.5288 164.347 32.3335C165.065 30.9896 167.327 27.268 172.125 27.3045L166.889 37.5268ZM171.146 21.4484C162.146 22.543 157.877 29.8403 156.551 32.5281C155.225 35.2159 154.556 39.7828 155.724 41.5281C156.318 42.4176 157.138 43.1328 158.1 43.5999C159.062 44.067 160.131 44.2692 161.197 44.1855C163.429 43.9909 166.634 43.3281 171.675 42.4889L183.156 20.293C183.156 20.293 180.176 20.3659 171.17 21.4484H171.146Z" fill="#1F5295"/><path d="M48.1377 81.8151C47.1415 82.0964 46.1249 82.2997 45.0972 82.4232C47.1039 78.7076 49.4087 73.7212 49.6884 73.5266C50.7105 73.2242 51.7592 73.0206 52.8201 72.9185C53.3127 72.9185 55.6235 72.6448 55.5201 74.4935C55.4168 76.3421 54.5897 77.1874 53.2701 78.8171C51.9505 80.4468 48.8918 81.5536 48.1012 81.7725L48.1377 81.8151ZM64.8972 67.9137C63.4195 66.0225 59.6249 65.6333 57.758 65.5603C55.8911 65.4874 47.7668 66.8921 42.233 67.9137C36.1519 79.7718 33.1722 85.5489 26.0391 99.5901C31.1472 98.3374 37.733 96.6955 37.733 96.6955L41.1931 90.1826C43.6255 89.7022 48.3505 88.6259 50.3695 87.9995C53.2576 87.0964 55.9747 85.7173 58.4087 83.9191C61.3207 81.7498 63.6006 78.8422 65.0127 75.4968C66.6303 71.7995 66.3688 69.8049 64.8972 67.9137Z" fill="url(#paint4_linear_82_9979)"/><path d="M74.4875 80.9576C74.0801 80.2582 74.6334 79.3643 75.3571 77.7772C76.0807 76.19 81.6936 65.5664 84.126 60.8535L73.6848 62.5866C73.0767 63.8028 66.2051 77.2359 64.4598 80.538C62.7145 83.84 62.4713 86.1812 63.0976 87.5251C63.724 88.869 65.4814 89.8785 67.6341 89.538C69.7868 89.1974 76.3422 87.5251 76.3422 87.5251L80.1368 80.1853C77.4429 80.7873 74.8888 81.6569 74.4875 80.9576Z" fill="url(#paint5_linear_82_9979)"/><path d="M107.963 56.8583L98.0695 75.8131C96.537 76.2083 95.4911 76.5124 94.5789 76.7252C94.2566 76.8043 92.9006 77.0536 92.6269 76.561C92.3533 76.0685 92.3897 75.6306 93.6303 73.2651C94.7492 71.1124 97.8019 65.311 101.694 57.9104L91.4897 59.6374C89.7749 62.9881 84.6607 72.9063 83.0918 76.1232C81.5229 79.3401 81.1458 80.7144 81.7296 82.2043C82.0537 83.0351 82.6254 83.7462 83.3673 84.2412C84.1092 84.7361 84.9853 84.991 85.8769 84.9712C87.9506 84.9712 87.4702 84.9712 91.958 83.8644L104.552 80.8239L117.869 55.186L107.963 56.8583Z" fill="url(#paint6_linear_82_9979)"/><path d="M128.159 53.6112C122.34 54.8275 118.065 58.6585 116.976 60.6957C115.888 62.7329 115.626 64.3443 116.289 66.0045C116.952 67.6646 120.296 68.1754 121.865 68.5646C123.434 68.9538 123.361 69.4768 122.747 70.0423C122.133 70.6079 120.923 70.8815 118.612 71.368C116.301 71.8545 114.246 72.2862 110.859 73.016C109.344 75.9167 109.034 76.5004 107.052 80.2768L122.583 76.5004C126.292 75.5944 130.306 72.7606 131.34 70.7052C132.373 68.6498 132.714 67.4457 132.288 65.7004C131.863 63.9552 130.142 62.9579 128.688 62.5565C127.235 62.1552 124.693 62.07 124.693 61.3829C124.693 60.6957 125.301 60.2275 127.229 59.8261C129.156 59.4248 133.213 58.6099 137.044 57.8619L140.382 51.4038C140.382 51.4038 133.979 52.4133 128.159 53.6112Z" fill="#BD343F"/><path d="M223.717 37.332L193.92 42.3793L190.976 14.0293L174.144 45.8029L145.076 50.8685L164.834 60.5982C145.672 79.3766 118.411 92.2685 70.4189 107.508C92.7487 103.683 118.94 97.5834 137.104 91.2894C153.632 85.5854 168.294 78.8779 180.803 71.3678L200.676 80.5624L196.419 59.7773C209.512 49.3665 220.512 40.0806 223.717 37.332Z" fill="url(#paint7_linear_82_9979)"/><path d="M70.6133 107.471C91.8971 103.822 116.489 97.7413 134.015 91.8488C161.021 78.2515 185.096 55.8184 192.855 31.7981L191.031 14.1265L174.15 45.815L145.295 50.8562L164.827 60.5859C145.259 79.7717 118.611 92.2319 70.6133 107.471Z" fill="url(#paint8_linear_82_9979)"/><path d="M174.187 45.791L145.089 50.8626L164.889 60.5924C168.399 55.9382 171.511 50.9972 174.193 45.8214L174.187 45.791Z" fill="url(#paint9_linear_82_9979)"/><path d="M26.0391 108.286C45 106.692 63.747 103.154 81.985 97.7291C96.3959 93.4771 110.507 88.2682 124.224 82.1372C107.757 86.8196 71.9391 96.8291 26.0391 108.286Z" fill="url(#paint10_linear_82_9979)"/><defs><linearGradient id="paint0_linear_82_9979" x1="14.2237" y1="61.3463" x2="96.1176" y2="2.76722" gradientUnits="userSpaceOnUse"><stop stop-color="#1F5295"/><stop offset="0.14" stop-color="#1F5295"/><stop offset="0.9" stop-color="#43AEDF"/><stop offset="1" stop-color="#43AEDF"/></linearGradient><linearGradient id="paint1_linear_82_9979" x1="23.6008" y1="76.4457" x2="104.795" y2="17.9335" gradientUnits="userSpaceOnUse"><stop stop-color="#1F5295"/><stop offset="0.14" stop-color="#1F5295"/><stop offset="0.9" stop-color="#43AEDF"/><stop offset="1" stop-color="#43AEDF"/></linearGradient><linearGradient id="paint2_linear_82_9979" x1="28.8545" y1="87.3185" x2="111.6" y2="29.0921" gradientUnits="userSpaceOnUse"><stop stop-color="#1F5295"/><stop offset="0.14" stop-color="#1F5295"/><stop offset="0.9" stop-color="#4A9ED3"/><stop offset="1" stop-color="#4A9ED3"/></linearGradient><linearGradient id="paint3_linear_82_9979" x1="109.368" y1="34.2305" x2="154.788" y2="60.9203" gradientUnits="userSpaceOnUse"><stop stop-color="#4A90C8"/><stop offset="0.16" stop-color="#0487C5"/><stop offset="0.17" stop-color="#1F5295"/><stop offset="1" stop-color="#1F5295"/></linearGradient><linearGradient id="paint4_linear_82_9979" x1="35.9512" y1="75.4968" x2="90.3465" y2="122.437" gradientUnits="userSpaceOnUse"><stop stop-color="#DA444F"/><stop offset="0.55" stop-color="#BD343F"/><stop offset="0.85" stop-color="#B6363D"/><stop offset="1" stop-color="#B6363D"/></linearGradient><linearGradient id="paint5_linear_82_9979" x1="50.3395" y1="55.1008" x2="108.821" y2="103.549" gradientUnits="userSpaceOnUse"><stop stop-color="#DA444F"/><stop offset="0.55" stop-color="#BD343F"/><stop offset="0.85" stop-color="#B6363D"/><stop offset="1" stop-color="#B6363D"/></linearGradient><linearGradient id="paint6_linear_82_9979" x1="60.087" y1="48.0773" x2="131.552" y2="86.2482" gradientUnits="userSpaceOnUse"><stop stop-color="#DA444F"/><stop offset="0.55" stop-color="#BD343F"/><stop offset="0.72" stop-color="#BD343F"/><stop offset="1" stop-color="#BD343F"/></linearGradient><linearGradient id="paint7_linear_82_9979" x1="97.6014" y1="45.8881" x2="199.697" y2="91.7881" gradientUnits="userSpaceOnUse"><stop stop-color="#BD343F"/><stop offset="0.48" stop-color="#BD343F"/><stop offset="0.8" stop-color="#DA444F"/><stop offset="0.9" stop-color="#DE5C65"/><stop offset="1" stop-color="#DE5C65"/></linearGradient><linearGradient id="paint8_linear_82_9979" x1="70.6133" y1="60.7988" x2="192.855" y2="60.7988" gradientUnits="userSpaceOnUse"><stop stop-color="#BD343F"/><stop offset="0.47" stop-color="#BD343F"/><stop offset="0.67" stop-color="#A7313A"/><stop offset="1" stop-color="#A7313A"/></linearGradient><linearGradient id="paint9_linear_82_9979" x1="150.306" y1="42.4343" x2="169.285" y2="54.4201" gradientUnits="userSpaceOnUse"><stop stop-color="#BC4147"/><stop offset="0.29" stop-color="#BC4147"/><stop offset="0.69" stop-color="#B1333F"/><stop offset="0.94" stop-color="#A7313A"/><stop offset="1" stop-color="#A7313A"/></linearGradient><linearGradient id="paint10_linear_82_9979" x1="43.7168" y1="88.3886" x2="147.302" y2="110.882" gradientUnits="userSpaceOnUse"><stop stop-color="#0089CA"/><stop offset="0.33" stop-color="#0089CA"/><stop offset="0.77" stop-color="#00529B"/><stop offset="1" stop-color="#00529B"/></linearGradient></defs></svg>