<svg width="67" height="72" viewBox="0 0 67 72" fill="none" xmlns="http://www.w3.org/2000/svg"><g style="mix-blend-mode:overlay" opacity="0.17"><path fill-rule="evenodd" clip-rule="evenodd" d="M61.7508 48.5995C54.8237 55.5266 43.3728 55.5266 36.4457 48.5995C35.244 47.3979 34.1838 45.9842 33.4062 44.4998L48.25 35.947L33.4062 27.3941C34.1838 25.9098 35.244 24.5668 36.4457 23.2944C43.3728 16.3673 54.8237 16.3673 61.7508 23.2944C68.7486 30.2922 68.7486 41.6018 61.7508 48.5995Z" fill="white"/><path fill-rule="evenodd" clip-rule="evenodd" d="M22.5217 0.604836C32.0641 3.14948 37.7189 12.9746 35.1743 22.5171C34.7501 24.2135 34.0433 25.7686 33.1951 27.1823L17.7858 18.3467V35.8058C16.3015 35.8058 14.7464 35.5937 13.262 35.1696C3.7196 32.625 -1.93517 22.7998 0.609473 13.2574C3.15412 3.78564 12.9793 -1.93981 22.5217 0.604836Z" fill="white"/><path fill-rule="evenodd" clip-rule="evenodd" d="M0.609473 58.637C-1.93517 49.0946 3.7196 39.2694 13.262 36.7248C14.7464 36.3007 16.3015 36.0886 17.7858 36.0886V53.5477L33.1951 44.6415C34.0433 46.0552 34.7501 47.6102 35.1743 49.3066C37.7189 58.8491 32.0641 68.6742 22.5217 71.2189C12.9793 73.8342 3.15412 68.1794 0.609473 58.637Z" fill="white"/></g></svg>