<svg width="90" height="90" viewBox="0 0 90 90" fill="none" xmlns="http://www.w3.org/2000/svg"><mask id="mask0_72_6751" style="mask-type:luminance" maskUnits="userSpaceOnUse" x="0" y="18" width="90" height="54"><path d="M90 18.5664H0V71.4335H90V18.5664Z" fill="white"/></mask><g mask="url(#mask0_72_6751)"><path fill-rule="evenodd" clip-rule="evenodd" d="M61.414 56.2458L59.4428 59.1596V49.8301H56.8789V71.2736H59.4428V63.3007L61.414 60.4243V71.2736H63.981V49.8301H61.414V56.2458Z" fill="#1459DF"/><path d="M41.6506 60.6861H39.6828V53.927C39.6828 53.1348 39.8592 52.4446 40.7216 52.4446H41.6539L41.6506 60.6861ZM43.4519 49.8301H40.7316C38.6272 49.8301 37.2887 51.4076 37.1489 54.0528C37.1489 54.2704 37.1289 54.471 37.1289 54.6614V71.2736H39.6894V63.3007H41.6572V71.2669H44.2244V50.6223C44.2253 50.4124 44.1444 50.2109 43.9993 50.0623C43.8544 49.9137 43.6574 49.83 43.4519 49.8301Z" fill="#1459DF"/><path d="M70.7274 67.4551C70.701 67.9481 70.5279 68.7709 69.6688 68.7709C68.8097 68.7709 68.6297 67.9447 68.6064 67.4551C68.6064 67.2613 68.6064 53.8348 68.6064 53.6445C68.6329 53.1515 68.8059 52.3219 69.6688 52.3219C70.531 52.3219 70.7041 53.1515 70.7305 53.6411C70.7305 53.8621 70.7343 67.0947 70.7274 67.4551ZM69.6688 49.6631C67.5642 49.6631 66.2224 51.2407 66.0826 53.8858C66.0826 54.1034 66.0625 54.3007 66.0625 54.4944V66.7513C66.0625 69.6821 67.3942 71.433 69.6619 71.433C71.7665 71.433 73.1045 69.8521 73.2449 67.2103C73.2449 66.9927 73.2644 66.7956 73.2644 66.6017V54.3448C73.2644 51.4107 71.9226 49.6631 69.6688 49.6631Z" fill="#1459DF"/><path d="M30.9896 52.431H32.9409V55.151C32.9401 56.2294 32.5887 57.2769 31.9419 58.1294L30.993 59.3567L30.9896 52.431ZM28.4258 50.6189V71.2702H30.9864V63.2735L33.9497 59.4248C34.9544 58.1092 35.5014 56.4895 35.5048 54.8212V49.8301H29.2016C28.9962 49.8291 28.7988 49.9119 28.6532 50.0599C28.5077 50.208 28.4258 50.409 28.4258 50.6189Z" fill="#1459DF"/><path d="M51.6703 68.6386H49.1398C49.4916 65.8546 49.6762 63.0512 49.6924 60.2442V53.9304C49.6924 53.1382 49.8656 52.448 50.7279 52.448H51.6669L51.6703 68.6386ZM54.2307 68.6386V51.836V50.6223C54.2307 50.1847 53.8835 49.8301 53.4549 49.8301H50.7413C48.6337 49.8301 47.2951 51.4076 47.1553 54.0528C47.1553 54.2704 47.1352 54.471 47.1352 54.6614V60.2442C47.1352 63.0559 46.6691 67.7716 46.5792 68.6386H45.3672V71.2702H55.586V68.6386H54.2307Z" fill="#1459DF"/><path fill-rule="evenodd" clip-rule="evenodd" d="M67.5306 41.6002V38.0031L68.5791 36.643C69.155 37.1428 69.4879 37.8742 69.4917 38.6457V46.01H72.0557V38.4348C72.0551 36.9514 71.4056 35.5459 70.284 34.6031L70.194 34.5248L70.4974 34.1271C71.5031 32.8112 72.0494 31.1895 72.0488 29.5201V24.5459H69.4847V29.8805C69.4854 30.9591 69.1342 32.007 68.4859 32.8589L67.5406 34.0862V24.5459H64.9766V45.9895H67.5268V41.6002" fill="#1459DF"/><path fill-rule="evenodd" clip-rule="evenodd" d="M89.3965 27.164V24.5459H84.1557C83.7283 24.5479 83.3828 24.9019 83.3828 25.3382V45.1974C83.3822 45.4072 83.4634 45.6087 83.6081 45.7573C83.7529 45.906 83.9499 45.9896 84.1557 45.9896H89.3965V43.375H85.9437V33.9468H89.2467V31.3289H85.9437V27.164H89.3965Z" fill="#1459DF"/><path fill-rule="evenodd" clip-rule="evenodd" d="M62.0333 44.8684C62.6792 44.0422 63.0087 42.9237 63.0087 41.5331V39.1531H60.475V41.5976C60.5096 42.1135 60.3938 42.6281 60.1421 43.0767C59.9689 43.3594 59.6629 43.5285 59.3363 43.522C59.0151 43.5374 58.71 43.3783 58.5338 43.1038C58.2929 42.6617 58.1874 42.1561 58.2307 41.6521V28.824C58.188 28.3211 58.2935 27.8168 58.5338 27.3756C58.7129 27.1013 59.0204 26.9437 59.3429 26.9608C59.6691 26.9556 59.9745 27.1244 60.1487 27.4062C60.4005 27.8559 60.5163 28.3717 60.4816 28.8886V31.3298H63.0156V28.9497C63.0156 27.5625 62.6826 26.4406 62.04 25.6145C61.3777 24.7926 60.3902 24.3164 59.3479 24.3164C58.3056 24.3164 57.3181 24.7926 56.6559 25.6145C56.0099 26.4372 55.6836 27.5625 55.6836 28.9497V41.5296C55.6836 42.9203 56.0165 44.0422 56.6559 44.865C57.3181 45.6868 58.3056 46.163 59.3479 46.163C60.3902 46.163 61.3777 45.6868 62.04 44.865" fill="#1459DF"/><path d="M78.7411 42.4226C78.714 42.9225 78.5346 43.7588 77.6623 43.7588C76.79 43.7588 76.6132 42.919 76.5867 42.426C76.5867 42.2254 76.5867 28.5269 76.5867 28.3332C76.6132 27.8333 76.79 26.9936 77.6655 26.9936C78.5409 26.9936 78.714 27.8333 78.7411 28.3298C78.7411 28.5678 78.7442 42.0826 78.7411 42.4226ZM77.6655 24.3076C75.5344 24.3076 74.1794 25.9055 74.0397 28.5779C74.0397 28.799 74.0195 28.9995 74.0195 29.1934V41.7426C74.0195 44.7074 75.3777 46.4755 77.6554 46.4755C79.7865 46.4755 81.1383 44.8774 81.2812 42.205C81.2812 41.9909 81.3013 41.7868 81.3013 41.5896V29.054C81.3013 26.1028 79.9432 24.3212 77.6655 24.3212V24.3076Z" fill="#1459DF"/><path fill-rule="evenodd" clip-rule="evenodd" d="M50.3027 46.1638C51.351 46.1941 52.3505 45.7115 52.993 44.865C53.639 44.0388 53.9686 42.9168 53.9686 41.5296V39.1497H51.4348V41.5942C51.4694 42.11 51.3536 42.6247 51.1018 43.0733C50.9286 43.356 50.6226 43.5251 50.2959 43.5187C49.9756 43.5347 49.6707 43.377 49.4936 43.1038C49.2526 42.6617 49.1471 42.1561 49.1905 41.6521V28.824C49.1477 28.3211 49.2533 27.8168 49.4936 27.3756C49.6727 27.1013 49.9801 26.9437 50.3027 26.9608C50.6289 26.9556 50.9342 27.1244 51.1085 27.4062C51.3603 27.8559 51.4761 28.3717 51.4414 28.8886V31.3298H53.9686V28.9497C53.9686 27.5625 53.6356 26.4406 52.993 25.6145C52.3308 24.7926 51.3432 24.3164 50.301 24.3164C49.2588 24.3164 48.2712 24.7926 47.6089 25.6145C46.963 26.4372 46.6367 27.5625 46.6367 28.9497V41.5296C46.6367 42.9203 46.9697 44.0422 47.6089 44.865C48.2525 45.712 49.2532 46.1946 50.3027 46.1638Z" fill="#1459DF"/><path d="M31.3294 27.1502H33.2806V29.8703C33.2811 30.9488 32.9297 31.9968 32.2817 32.8486L31.3294 34.0862V27.1502ZM28.7656 25.3382V45.9896H31.3294V38.0031L34.2861 34.1407C35.2948 32.8257 35.8433 31.204 35.8445 29.5337V24.5459H29.5414C29.1129 24.5459 28.7656 24.9006 28.7656 25.3382Z" fill="#1459DF"/><path d="M42.1481 43.1947C42.1481 43.3713 42.008 43.5144 41.835 43.5144H40.2002C40.1138 43.52 40.029 43.4888 39.9658 43.4283C39.9027 43.3677 39.8671 43.2832 39.8672 43.1947V41.9538C39.8671 41.8654 39.9027 41.7808 39.9658 41.7202C40.029 41.6598 40.1138 41.6285 40.2002 41.6342H42.1481V43.1947ZM41.9915 24.5459V34.0862L41.0459 32.8589C40.398 32.007 40.0465 30.9591 40.047 29.8805V24.5459H37.4832V29.5201C37.4843 31.1904 38.0329 32.8121 39.0415 34.1271L42.1547 38.1594V39.1488H39.7307C38.4871 39.1488 37.4783 40.1773 37.4766 41.4472V43.6912C37.4783 44.9611 38.4871 45.9896 39.7307 45.9896H42.3045C43.5477 45.9896 44.5554 44.9605 44.5554 43.6912V24.5459H41.9915Z" fill="#1459DF"/><path d="M15.2024 63.2478C15.5854 61.2363 16.6721 59.5861 17.7994 57.9487C18.554 56.852 19.1886 55.6976 19.1822 54.3023C19.1733 52.7649 18.2399 51.868 16.7243 51.9616C16.4499 51.9769 16.1792 52.0423 15.906 52.073C15.3505 52.137 15.09 52.4471 14.9253 52.9878C14.1963 55.3863 13.2846 57.7039 11.5508 59.5873C9.57556 61.7283 7.26451 61.7693 5.23439 59.6758C3.57454 57.9654 2.67311 55.8193 1.95172 53.5976C0.312304 48.565 -0.128193 43.3736 0.0301301 38.1192C0.170579 33.4466 0.825583 28.8611 2.57098 24.487C3.1749 22.9739 3.91672 21.5312 5.02116 20.3191C6.17029 19.061 7.50581 18.2167 9.30613 18.7086C10.3735 19.0008 11.1779 19.7054 11.8598 20.5408C13.4775 22.5062 14.3725 24.8278 15.0658 27.2366C16.0298 30.5677 16.4792 33.9885 16.6388 37.4517C16.8619 41.8015 16.5154 46.162 15.6085 50.4216C15.5948 50.4915 15.6153 50.5638 15.6633 50.6162C17.6041 46.2845 17.9399 41.6618 18.0573 36.779C18.5336 37.2915 18.9103 37.6759 19.2677 38.0718C23.2591 42.5343 24.1325 47.6733 22.5505 53.3414C21.8865 55.7219 20.6352 57.7847 19.1554 59.7373C18.6292 60.4609 18.1483 61.2166 17.7152 62C17.5083 62.3586 17.4202 62.7853 17.2389 63.2811H20.7745C21.3272 63.2811 21.8813 63.267 22.4342 63.2928C22.9002 63.3145 23.2744 63.4951 23.2744 64.0499C23.2744 66.3767 23.271 68.7037 23.2642 71.0312C23.2513 71.1064 23.2291 71.1796 23.1977 71.2491H6.58271C6.42134 70.1417 7.11963 69.091 8.20039 68.8147C8.72515 68.6866 8.81075 68.4432 8.80049 67.9768C8.775 66.7814 8.78778 65.5861 8.79413 64.3894C8.79413 63.5118 9.01372 63.2863 9.88578 63.2799C11.5239 63.2696 13.1621 63.2799 14.8002 63.2799C14.9267 63.2811 15.0518 63.2607 15.2024 63.2478ZM10.4043 28.6214C9.40569 28.6599 8.86305 29.2505 8.58726 29.9681C8.04336 31.3915 7.48032 32.8367 7.19043 34.3255C6.34267 38.6701 6.33115 43.0557 6.9198 47.4362C7.19301 49.4657 7.57221 51.4823 8.56687 53.3107C8.91667 53.9513 9.33294 54.6264 10.1667 54.6073C10.9608 54.5894 11.4333 53.9576 11.6861 53.3043C12.1968 51.9821 12.728 50.6418 13.0216 49.2594C13.8604 45.3082 13.8516 41.3018 13.5323 37.2903C13.2898 34.1768 12.5773 31.1865 11.1587 28.3986C10.5344 27.1596 9.76834 25.9976 9.06483 24.7932L8.92435 24.8777L10.4043 28.6214Z" fill="#DB2419"/><path fill-rule="evenodd" clip-rule="evenodd" d="M19.5437 24.625C18.0829 24.625 16.8984 25.8135 16.8984 27.2794C16.8984 28.7454 18.0829 29.9338 19.5437 29.9338C21.0047 29.9338 22.1891 28.7454 22.1891 27.2794C22.1891 25.8135 21.0047 24.625 19.5437 24.625ZM17.4512 27.2794C17.4512 26.1198 18.3881 25.1797 19.5437 25.1797C20.6994 25.1797 21.6363 26.1198 21.6363 27.2794C21.6363 28.4391 20.6994 29.3792 19.5437 29.3792C18.3881 29.3792 17.4512 28.4391 17.4512 27.2794Z" fill="#DB2419"/><path d="M19.6067 27.5545H19.2976V28.3937H18.7266V26.0166H19.6588C19.9397 26.0166 20.1594 26.0792 20.3177 26.2044C20.4761 26.3295 20.5552 26.5064 20.5552 26.735C20.5552 26.9004 20.5217 27.0376 20.4544 27.1464C20.3882 27.2553 20.2841 27.3434 20.142 27.4108L20.6366 28.3692V28.3937H20.0249L19.6067 27.5545ZM19.2976 27.1121H19.6588C19.7672 27.1121 19.8486 27.0838 19.9029 27.0272C19.9581 26.9695 19.9858 26.8895 19.9858 26.7872C19.9858 26.6849 19.9581 26.6049 19.9029 26.5472C19.8475 26.4884 19.7662 26.4591 19.6588 26.4591H19.2976V27.1121Z" fill="#DB2419"/></g></svg>