<svg width="60" height="60" viewBox="0 0 60 60" fill="none" xmlns="http://www.w3.org/2000/svg"><mask id="mask0_82_11956" style="mask-type:luminance" maskUnits="userSpaceOnUse" x="0" y="0" width="60" height="60"><path d="M60 0H0V60H60V0Z" fill="white"/></mask><g mask="url(#mask0_82_11956)"><path d="M28.76 22.9236H28.7669C29.102 22.9236 29.3985 23.0358 29.6111 23.2176C29.828 23.401 29.9583 23.6564 29.9583 23.9402C29.9583 24.265 29.7886 24.7227 29.5186 25.0742C29.3103 25.345 29.0454 25.5482 28.7669 25.5593H28.7549C28.7454 25.5593 28.7445 25.5602 28.7445 25.5602H28.7309C28.4669 25.5542 28.22 25.3673 28.0229 25.1118C27.7614 24.7742 27.5943 24.3276 27.578 24.001V23.9984C27.5763 23.9813 27.5754 23.9658 27.5754 23.959C27.5745 23.9513 27.5745 23.9402 27.5745 23.923C27.5745 23.3924 28.0974 22.9236 28.76 22.9236ZM26.72 27.3053H30.9071C34.0366 22.945 42.5772 20.0812 47.2393 18.0935L45.1229 18.7261L44.9918 18.7655L39.0192 20.5647L37.8157 20.9264L31.1686 22.9441L29.852 21.7492L28.7669 21.7476L27.7349 21.7458L26.3771 22.963L16.8079 20.0272L12.4887 18.7261L10.4033 18.0987C15.2333 20.1772 24.1331 23.6701 26.72 27.3053Z" fill="#7E8286"/><path d="M52.2675 34.1259H49.7903L50.8309 30.6896H53.3089L52.2675 34.1259ZM54.6349 29.0541H48.3898L48.3443 29.2025L48.3212 29.2796L46.462 35.4159H46.4638L46.4398 35.4922L46.3574 35.7613H52.9644C54.0632 35.7802 54.7729 35.3748 55.1021 34.3762L55.9815 31.5065C56.3141 30.5302 56.4092 30.021 56.2472 29.6353C56.0449 29.1545 55.3018 29.049 54.6349 29.0541Z" fill="#7E8286"/><path d="M31.9176 30.6899H34.4111L33.3705 34.1254H31.5619V34.1263H30.8771L31.9176 30.6899ZM29.551 35.7617H34.0682C35.1653 35.7797 35.8759 35.3743 36.2042 34.3757L37.0837 31.5059C37.3022 30.7577 37.7831 29.6639 36.9679 29.2577C36.6388 29.0939 36.1725 29.0502 35.7371 29.0537H33.0627V29.0545H31.2216C30.1227 29.0365 29.413 29.4402 29.0839 30.4397L28.2045 33.3094C27.9867 34.0577 27.5059 35.1514 28.321 35.5577C28.6493 35.7223 29.1165 35.7651 29.551 35.7617Z" fill="#7E8286"/><path d="M13.8728 30.6898H19.2676L19.3131 30.5416L19.3362 30.4644H19.3371L19.6594 29.4007H19.6585L19.6817 29.3236L19.764 29.0544H11.4308L11.3853 29.2027L11.3622 29.2798H11.3613L9.50304 35.4162L9.4799 35.4925L9.39844 35.7616H17.7325L17.7771 35.6133L17.8002 35.5362H17.8011L18.1234 34.4724L18.1465 34.3944L18.2288 34.1262H12.8322L13.097 33.2493H17.3828L17.4274 33.101L17.4505 33.0248L17.7874 31.9122L17.8105 31.835L17.8928 31.5659H13.607L13.8728 30.6898Z" fill="#7E8286"/><path d="M43.5836 30.9761L43.4207 31.5203C43.3736 31.6661 43.287 31.7278 43.1361 31.7681L42.1265 32.0303L40.6461 32.4152L41.193 30.6897H43.3573C43.5725 30.6829 43.6487 30.7686 43.5836 30.9761ZM46.3119 31.6043C46.3787 31.3823 46.4465 31.1603 46.5133 30.9383C46.9891 29.5549 46.4671 29.0637 45.2439 29.0535H38.7707C38.1261 31.1723 37.485 33.2947 36.843 35.4152H36.8439L36.8199 35.4915L36.7393 35.7615H39.6561L39.7007 35.6132L39.7247 35.5361H39.7256L40.3744 33.3932H41.3456L42.1265 35.0449L42.387 35.5961V35.5952L42.4085 35.6407L42.4641 35.7615H45.6956C45.2696 34.9172 44.8436 34.0738 44.4176 33.2303C45.7591 33.0615 46.0719 32.5421 46.3119 31.6043Z" fill="#7E8286"/><path d="M5.38717 32.0311L3.90688 32.4159L4.45374 30.6896H6.6189C6.83407 30.6836 6.91033 30.7685 6.84433 30.9768L6.68147 31.5202C6.63433 31.6668 6.54775 31.7277 6.39689 31.7688L5.38717 32.0311ZM5.72575 35.7614H8.9572C8.53033 34.9179 8.10433 34.0737 7.67833 33.2302C9.0198 33.0622 9.33347 32.5419 9.5726 31.6042C9.63947 31.3831 9.70807 31.1611 9.77493 30.9391C10.2498 29.5556 9.7278 29.0645 8.50547 29.0542H2.03144C1.38687 31.1731 0.74572 33.2953 0.103715 35.4159H0.104572L0.0814287 35.4923L0 35.7614H2.91773L2.96231 35.6131L2.98545 35.5359H2.98631L3.63517 33.3931H4.60631L5.38717 35.0448L5.64861 35.5968V35.5959L5.66918 35.6405L5.72575 35.7614Z" fill="#7E8286"/><path d="M27.8142 31.5473L28.2891 30.0936C28.47 29.5819 28.128 29.0359 27.5305 29.0539H24.2108V29.0547H22.319C21.221 29.0367 20.5104 29.4404 20.1822 30.4399L19.3028 33.3096C19.0842 34.0579 18.6033 35.1516 19.4193 35.5579C19.7476 35.7225 20.2148 35.7654 20.6493 35.7619H25.5308C26.117 35.7799 26.7899 35.2339 26.9202 34.7222L27.3265 33.3062H25.0885L24.8502 34.1265H21.9753L23.0159 30.6902H25.739L25.4802 31.5473H27.8142Z" fill="#7E8286"/><path d="M58.4872 27.868H58.2086V27.4668H58.4872C58.5995 27.4668 58.668 27.4694 58.6904 27.4736C58.7452 27.4805 58.7838 27.502 58.8129 27.5345C58.8412 27.5671 58.8549 27.6108 58.8549 27.6631C58.8558 27.7111 58.8429 27.7505 58.824 27.7831C58.8018 27.8148 58.77 27.8371 58.734 27.85C58.6989 27.862 58.6158 27.868 58.4872 27.868ZM58.9381 28.2176C58.8935 28.1662 58.8344 28.1234 58.7658 28.0822C58.9046 28.0634 59.0101 28.0145 59.0778 27.9374C59.1489 27.8602 59.1832 27.7608 59.1832 27.6425C59.1841 27.55 59.1601 27.4668 59.1138 27.394C59.0701 27.3211 59.0066 27.2705 58.9321 27.2422C58.854 27.214 58.7306 27.1985 58.5609 27.1985H57.8906V28.7825H58.2086V28.1208H58.2738C58.3475 28.1208 58.4006 28.1268 58.4358 28.138C58.4538 28.1448 58.4692 28.1542 58.4864 28.1645L58.4872 28.1654C58.5018 28.1756 58.5155 28.1894 58.5309 28.2048C58.5609 28.2374 58.6192 28.3154 58.6989 28.4371L58.9321 28.7825H59.3118L59.1181 28.4722C59.0418 28.3496 58.9826 28.264 58.9381 28.2176Z" fill="#7E8286"/><path d="M58.4871 29.1823H58.4863C57.8271 29.1823 57.2931 28.6483 57.2931 27.9901C57.294 27.3317 57.8271 26.7977 58.4863 26.7977H58.4871C59.1445 26.7977 59.6794 27.3317 59.6794 27.9901C59.6794 28.6483 59.1445 29.1823 58.4871 29.1823ZM58.4871 26.4763H58.4863C57.6497 26.4763 56.9717 27.1552 56.9717 27.9901C56.9717 28.8249 57.6497 29.5037 58.4863 29.5046H58.4871C59.3211 29.5037 60 28.8249 60 27.9901C60 27.1543 59.3211 26.4763 58.4871 26.4763Z" fill="#7E8286"/><path d="M8.73792 40.5946H7.28845L7.90645 38.666H9.35679L8.73792 40.5946ZM9.87539 40.8157L10.2491 39.6483L10.6262 38.4732L10.6391 38.4337L10.6039 38.4114L10.2491 38.1903L9.97565 38.0206L9.96279 38.012H6.89845L6.88565 38.054L5.88361 41.1783L5.86133 41.2477H8.95219L8.96332 41.2434L9.84279 40.8526L9.86679 40.8414L9.87539 40.8157Z" fill="#7E8286"/><path d="M41.029 40.5908H39.5873L40.2027 38.6733H41.6445L41.029 40.5908ZM42.9079 38.4804L42.9207 38.4402L42.8865 38.4187L42.7073 38.3073L42.2607 38.0304L42.2479 38.0227H39.199L39.1861 38.0638L38.1893 41.1719L38.167 41.2413H41.2424L41.2536 41.2362L42.1279 40.8479L42.1527 40.8368L42.1605 40.8119L42.7073 39.1087L42.9079 38.4804Z" fill="#7E8286"/><path d="M44.7065 38.0922L44.7287 38.0227H43.5261L43.5125 38.0638L42.7085 40.5744L42.5165 41.1719L42.4941 41.2413H43.6959L43.7096 41.2002L44.5265 38.6527L44.7065 38.0922Z" fill="#7E8286"/><path d="M13.0094 39.8582H12.2585L12.634 39.4022L12.88 39.1038L13.0094 39.8582ZM13.7586 38.0538L13.75 38.0127H12.6828L12.6648 38.0333L12.634 38.0684L10.2494 40.801L9.93824 41.1576L9.85938 41.2476H11.0971L11.116 41.2262L11.7202 40.4822H13.1586L13.3274 41.2073L13.3368 41.2476H14.5086L14.4914 41.1773L13.7586 38.0538Z" fill="#7E8286"/><path d="M47.0422 40.5908H45.6013L46.2159 38.6733H47.6576L47.0422 40.5908ZM48.274 38.0304L48.2611 38.0227H46.0025L45.9913 38.0278L45.117 38.4162L45.093 38.4273L45.0845 38.4522L44.5256 40.193L44.337 40.7836L44.3242 40.823L44.3585 40.8453L44.5256 40.949L44.985 41.2336L44.997 41.2413H47.2556L47.2676 41.2362L48.1419 40.8479L48.1659 40.8368L48.1736 40.8119L48.9211 38.4804L48.9347 38.4402L48.8996 38.4187L48.274 38.0304Z" fill="#7E8286"/><path d="M36.4657 39.8572H35.7183L36.092 39.4046L36.3354 39.108L36.4657 39.8572ZM32.4962 39.3677H31.0546L31.2774 38.6717H32.7182L32.4962 39.3677ZM37.2114 38.0623L37.202 38.022H36.14L36.122 38.0426L36.092 38.0777L33.41 41.1506L33.3328 41.238L33.296 41.16L32.7671 40.0132L33.5874 39.648L33.6114 39.6369L33.62 39.612L33.9834 38.4806L33.9963 38.4403L33.9611 38.4188L33.3354 38.0297L33.3234 38.022H30.284L30.2702 38.0632L29.2742 41.1712L29.252 41.2406H30.4546L30.4674 41.1994L30.8386 40.0423H31.4831L31.8868 40.9817L31.9854 41.2098L31.9991 41.2406H34.5628L34.5808 41.2192L35.1826 40.4786H36.6132L36.782 41.2003L36.7906 41.2406H37.9563L37.94 41.1694L37.2114 38.0623Z" fill="#7E8286"/><path d="M19.5954 38.0827L19.6177 38.0125H18.4288L18.4152 38.0536L17.8837 39.7113L16.7908 38.0365L16.7746 38.0125H15.752L15.7383 38.0536L14.7371 41.1779L14.7148 41.2473H15.9131L15.9268 41.2062L16.4488 39.5502L17.5417 41.2242L17.5572 41.2473H18.5806L18.5943 41.2071L19.3743 38.7719L19.5954 38.0827Z" fill="#7E8286"/><path d="M23.0847 40.2312H22.285L22.2713 40.2723L22.1822 40.5346H20.5759L21.1819 38.7286H22.7865L22.6313 39.1914L23.4353 39.1906L23.5596 38.816L23.7833 38.144L23.8065 38.0737L23.8271 38.012H20.9059L20.8947 38.0163L20.8733 38.0266L19.9845 38.4072H19.9836L19.957 38.4192L19.933 38.4294L19.9245 38.4552L19.9185 38.4723L19.3741 40.0932L19.1496 40.7609L19.1445 40.778L19.1299 40.82L19.1667 40.8414L19.1847 40.8526L19.3741 40.9657L19.819 41.234L19.8345 41.2434L19.8465 41.2503H22.7402L22.7539 41.2109L22.8422 40.9469H22.8439L22.8567 40.9066L23.0607 40.3023L23.0847 40.2312Z" fill="#7E8286"/><path d="M28.2062 38.0127H24.3301L24.3172 38.0538L23.5604 40.4153L23.3161 41.1782L23.293 41.2476H27.169L27.1818 41.2073L27.3558 40.6656L27.3782 40.5953H24.7201L24.9216 39.9696H27.0867L27.0996 39.9276L27.2813 39.3618L27.3036 39.2916H25.1384L25.339 38.6667H27.997L28.0098 38.6256L28.1838 38.083L28.2062 38.0127Z" fill="#7E8286"/></g></svg>