<svg width="25" height="25" viewBox="0 0 25 25" fill="none" xmlns="http://www.w3.org/2000/svg"><g clip-path="url(#clip0_33_632)"><path d="M21.0938 7.03125V20.3125C21.0938 20.5197 21.0114 20.7184 20.8649 20.8649C20.7184 21.0114 20.5197 21.0938 20.3125 21.0938H4.6875C4.4803 21.0938 4.28159 21.0114 4.13507 20.8649C3.98856 20.7184 3.90625 20.5197 3.90625 20.3125V7.03125H21.0938Z" fill="#E6E6E6"/><path d="M20.3125 21.0938H4.6875C4.4803 21.0938 4.28159 21.0114 4.13507 20.8649C3.98856 20.7184 3.90625 20.5197 3.90625 20.3125V7.03125L5.46875 3.90625H19.5312L21.0938 7.03125V20.3125C21.0938 20.5197 21.0114 20.7184 20.8649 20.8649C20.7184 21.0114 20.5197 21.0938 20.3125 21.0938Z" stroke="#373D46" stroke-width="1.3" stroke-linecap="round" stroke-linejoin="round"/><path d="M3.90625 7.03125H21.0938" stroke="#373D46" stroke-width="1.3" stroke-linecap="round" stroke-linejoin="round"/><path d="M12.5 10.1562V17.9688" stroke="#373D46" stroke-width="1.3" stroke-linecap="round" stroke-linejoin="round"/><path d="M9.375 14.8438L12.5 17.9688L15.625 14.8438" stroke="#373D46" stroke-width="1.3" stroke-linecap="round" stroke-linejoin="round"/></g><defs><clipPath id="clip0_33_632"><rect width="25" height="25" fill="white"/></clipPath></defs></svg>