<svg width="25" height="25" viewBox="0 0 25 25" fill="none" xmlns="http://www.w3.org/2000/svg"><g clip-path="url(#clip0_33_506)"><path d="M21.0938 4.6875H3.90625C3.47478 4.6875 3.125 5.03728 3.125 5.46875V19.5312C3.125 19.9627 3.47478 20.3125 3.90625 20.3125H21.0938C21.5252 20.3125 21.875 19.9627 21.875 19.5312V5.46875C21.875 5.03728 21.5252 4.6875 21.0938 4.6875Z" fill="#E6E6E6"/><path d="M21.0938 4.6875H3.90625C3.47478 4.6875 3.125 5.03728 3.125 5.46875V19.5312C3.125 19.9627 3.47478 20.3125 3.90625 20.3125H21.0938C21.5252 20.3125 21.875 19.9627 21.875 19.5312V5.46875C21.875 5.03728 21.5252 4.6875 21.0938 4.6875Z" stroke="#373D46" stroke-width="1.3" stroke-linecap="round" stroke-linejoin="round"/><path d="M7.8125 9.375H17.1875" stroke="#373D46" stroke-width="1.3" stroke-linecap="round" stroke-linejoin="round"/><path d="M7.8125 12.5H17.1875" stroke="#373D46" stroke-width="1.3" stroke-linecap="round" stroke-linejoin="round"/><path d="M7.8125 15.625H17.1875" stroke="#373D46" stroke-width="1.3" stroke-linecap="round" stroke-linejoin="round"/></g><defs><clipPath id="clip0_33_506"><rect width="25" height="25" fill="white"/></clipPath></defs></svg>