<svg width="25" height="25" viewBox="0 0 25 25" fill="none" xmlns="http://www.w3.org/2000/svg"><g clip-path="url(#clip0_33_514)"><path d="M6.25 20.3125C8.40736 20.3125 10.1562 18.5636 10.1562 16.4062C10.1562 14.2489 8.40736 12.5 6.25 12.5C4.09264 12.5 2.34375 14.2489 2.34375 16.4062C2.34375 18.5636 4.09264 20.3125 6.25 20.3125Z" fill="#E6E6E6"/><path d="M18.75 20.3125C20.9074 20.3125 22.6562 18.5636 22.6562 16.4062C22.6562 14.2489 20.9074 12.5 18.75 12.5C16.5926 12.5 14.8438 14.2489 14.8438 16.4062C14.8438 18.5636 16.5926 20.3125 18.75 20.3125Z" fill="#E6E6E6"/><path d="M10.1562 8.59375H14.8438" stroke="#373D46" stroke-width="1.3" stroke-linecap="round" stroke-linejoin="round"/><path d="M22.4209 15.0703L18.1582 5.37109C17.7187 4.93159 17.1226 4.68468 16.501 4.68468C15.8794 4.68468 15.2833 4.93159 14.8438 5.37109V16.4062" stroke="#373D46" stroke-width="1.3" stroke-linecap="round" stroke-linejoin="round"/><path d="M10.1562 16.4062V5.37109C9.71671 4.93159 9.1206 4.68468 8.49902 4.68468C7.87745 4.68468 7.28133 4.93159 6.8418 5.37109L2.5791 15.0703" stroke="#373D46" stroke-width="1.3" stroke-linecap="round" stroke-linejoin="round"/><path d="M6.25 20.3125C8.40736 20.3125 10.1562 18.5636 10.1562 16.4062C10.1562 14.2489 8.40736 12.5 6.25 12.5C4.09264 12.5 2.34375 14.2489 2.34375 16.4062C2.34375 18.5636 4.09264 20.3125 6.25 20.3125Z" stroke="#373D46" stroke-width="1.3" stroke-linecap="round" stroke-linejoin="round"/><path d="M18.75 20.3125C20.9074 20.3125 22.6562 18.5636 22.6562 16.4062C22.6562 14.2489 20.9074 12.5 18.75 12.5C16.5926 12.5 14.8438 14.2489 14.8438 16.4062C14.8438 18.5636 16.5926 20.3125 18.75 20.3125Z" stroke="#373D46" stroke-width="1.3" stroke-linecap="round" stroke-linejoin="round"/></g><defs><clipPath id="clip0_33_514"><rect width="25" height="25" fill="white"/></clipPath></defs></svg>