<svg width="25" height="25" viewBox="0 0 25 25" fill="none" xmlns="http://www.w3.org/2000/svg"><g clip-path="url(#clip0_33_531)"><path d="M17.1875 3.125V12.5L14.0625 10.1562L10.9375 12.5V3.125H7.03125C6.40965 3.125 5.81351 3.37193 5.37397 3.81147C4.93443 4.25101 4.6875 4.84715 4.6875 5.46875V21.0938C4.6875 20.4721 4.93443 19.876 5.37397 19.4365C5.81351 18.9969 6.40965 18.75 7.03125 18.75H20.3125V3.125H17.1875Z" fill="#E6E6E6"/><path d="M4.6875 21.0938V21.875H18.75" stroke="#373D46" stroke-width="1.3" stroke-linecap="round" stroke-linejoin="round"/><path d="M17.1875 3.125V12.5L14.0615 10.1562L10.9375 12.5V3.125" stroke="#373D46" stroke-width="1.3" stroke-linecap="round" stroke-linejoin="round"/><path d="M4.6875 21.0938C4.6875 20.4721 4.93443 19.876 5.37397 19.4365C5.81351 18.9969 6.40965 18.75 7.03125 18.75H20.3125V3.125H7.03125C6.40965 3.125 5.81351 3.37193 5.37397 3.81147C4.93443 4.25101 4.6875 4.84715 4.6875 5.46875V21.0938Z" stroke="#373D46" stroke-width="1.3" stroke-linecap="round" stroke-linejoin="round"/></g><defs><clipPath id="clip0_33_531"><rect width="25" height="25" fill="white"/></clipPath></defs></svg>