<svg width="25" height="25" viewBox="0 0 25 25" fill="none" xmlns="http://www.w3.org/2000/svg"><g clip-path="url(#clip0_33_449)"><path d="M12.5 16.4062C13.4815 16.4077 14.4276 16.0397 15.15 15.3753C15.8725 14.711 16.3183 13.799 16.399 12.8209C16.4796 11.8427 16.189 10.8701 15.5851 10.0964C14.9812 9.32271 14.1081 8.80474 13.1397 8.6455C12.9595 8.61387 12.7964 8.51939 12.6793 8.37887C12.5622 8.23834 12.4987 8.06085 12.5 7.87793V3.90625C12.4996 3.79791 12.5218 3.69067 12.5651 3.59135C12.6084 3.49204 12.6718 3.40281 12.7515 3.32934C12.8311 3.25587 12.9251 3.19976 13.0276 3.16458C13.1301 3.1294 13.2387 3.11592 13.3467 3.125C18.1709 3.55762 21.9405 7.67773 21.874 12.6309C21.8037 17.6797 17.6826 21.8008 12.6338 21.8711H12.5V16.4062Z" fill="#E6E6E6"/><path d="M12.5 21.875V16.4062" stroke="#373D46" stroke-width="1.3" stroke-linecap="round" stroke-linejoin="round"/><path d="M3.125 12.5H8.59375" stroke="#373D46" stroke-width="1.3" stroke-linecap="round" stroke-linejoin="round"/><path d="M9.23341 10.2305C8.73927 10.9219 8.54981 11.7793 8.59864 12.7031C8.63714 13.4387 8.8828 14.1483 9.30729 14.7502C9.73178 15.3521 10.3178 15.8218 10.9977 16.105C11.6776 16.3881 12.4238 16.4733 13.15 16.3507C13.8763 16.228 14.5531 15.9025 15.1023 15.4118C15.6515 14.921 16.0508 14.285 16.2541 13.577C16.4574 12.8691 16.4564 12.1181 16.2512 11.4107C16.046 10.7034 15.645 10.0684 15.0944 9.57913C14.5439 9.08986 13.8662 8.7662 13.1397 8.64551C12.9595 8.61387 12.7964 8.51939 12.6793 8.37887C12.5621 8.23834 12.4986 8.06085 12.5 7.87793V3.90625C12.4996 3.79791 12.5218 3.69067 12.5651 3.59135C12.6084 3.49204 12.6718 3.40281 12.7515 3.32934C12.8311 3.25587 12.9251 3.19976 13.0276 3.16458C13.1301 3.1294 13.2387 3.11592 13.3467 3.125C18.1709 3.55762 21.9404 7.67773 21.874 12.6309C21.8037 17.6797 17.6826 21.8008 12.6338 21.8711C11.3918 21.8888 10.1586 21.6595 9.00595 21.1966C7.85329 20.7336 6.80412 20.0462 5.91941 19.1743C5.03469 18.3024 4.33206 17.2634 3.85235 16.1176C3.37264 14.9718 3.1254 13.7421 3.12501 12.5C3.12182 10.3177 3.88965 8.20445 5.29298 6.5332C5.3623 6.44968 5.44827 6.38153 5.54539 6.33307C5.64252 6.28462 5.74868 6.25694 5.85709 6.2518C5.96551 6.24665 6.07381 6.26416 6.17509 6.30319C6.27637 6.34223 6.3684 6.40193 6.44532 6.47851L9.14063 9.23242C9.27068 9.36149 9.35122 9.53216 9.36818 9.7146C9.38514 9.89704 9.33743 10.0796 9.23341 10.2305Z" stroke="#373D46" stroke-width="1.3" stroke-linecap="round" stroke-linejoin="round"/></g><defs><clipPath id="clip0_33_449"><rect width="25" height="25" fill="white"/></clipPath></defs></svg>