<svg width="25" height="25" viewBox="0 0 25 25" fill="none" xmlns="http://www.w3.org/2000/svg"><g clip-path="url(#clip0_33_467)"><path d="M7.80575 20.6162C9.77502 21.7559 12.0916 22.1406 14.3235 21.6985C16.5554 21.2563 18.5504 20.0176 19.9365 18.2132C21.3226 16.4088 22.0051 14.1619 21.8569 11.8915C21.7087 9.62099 20.7398 7.4819 19.1309 5.87302C17.5221 4.26414 15.383 3.29527 13.1125 3.14706C10.842 2.99885 8.59514 3.6814 6.79076 5.06747C4.98637 6.45354 3.74763 8.44852 3.30551 10.6805C2.86339 12.9124 3.24805 15.2289 4.38778 17.1982L3.1661 20.8457C3.1202 20.9833 3.11353 21.131 3.14686 21.2723C3.18019 21.4135 3.25219 21.5427 3.3548 21.6453C3.45741 21.7479 3.58656 21.8199 3.72779 21.8532C3.86901 21.8865 4.01673 21.8799 4.15438 21.834L7.80575 20.6162Z" fill="#E6E6E6"/><path d="M7.80575 20.6162C9.77502 21.7559 12.0916 22.1406 14.3235 21.6985C16.5554 21.2563 18.5504 20.0176 19.9365 18.2132C21.3226 16.4088 22.0051 14.1619 21.8569 11.8915C21.7087 9.62099 20.7398 7.4819 19.1309 5.87302C17.5221 4.26414 15.383 3.29527 13.1125 3.14706C10.842 2.99885 8.59514 3.6814 6.79076 5.06747C4.98637 6.45354 3.74763 8.44852 3.30551 10.6805C2.86339 12.9124 3.24805 15.2289 4.38778 17.1982L3.1661 20.8457C3.1202 20.9833 3.11353 21.131 3.14686 21.2723C3.18019 21.4135 3.25219 21.5427 3.3548 21.6453C3.45741 21.7479 3.58656 21.8199 3.72779 21.8532C3.86901 21.8865 4.01673 21.8799 4.15438 21.834L7.80575 20.6162Z" stroke="#373D46" stroke-width="1.3" stroke-linecap="round" stroke-linejoin="round"/><path d="M9.375 10.9375H15.625" stroke="#373D46" stroke-width="1.3" stroke-linecap="round" stroke-linejoin="round"/><path d="M9.375 14.0625H15.625" stroke="#373D46" stroke-width="1.3" stroke-linecap="round" stroke-linejoin="round"/></g><defs><clipPath id="clip0_33_467"><rect width="25" height="25" fill="white"/></clipPath></defs></svg>