<svg width="25" height="25" viewBox="0 0 25 25" fill="none" xmlns="http://www.w3.org/2000/svg"><g clip-path="url(#clip0_33_624)"><path d="M15.6251 4.6875C14.0717 4.68744 12.5536 5.15047 11.2646 6.01743C9.97564 6.88439 8.9744 8.11591 8.38877 9.55469V9.54492C7.63735 9.35311 6.85373 9.3233 6.08991 9.45748C5.3261 9.59166 4.59955 9.88677 3.9585 10.3232C3.31745 10.7596 2.77655 11.3274 2.37171 11.9889C1.96686 12.6503 1.70733 13.3903 1.61033 14.1597C1.51333 14.9292 1.58109 15.7104 1.8091 16.4517C2.03712 17.1929 2.42017 17.8772 2.93285 18.459C3.44553 19.0409 4.0761 19.5071 4.78272 19.8267C5.48933 20.1462 6.25583 20.3118 7.03135 20.3125H15.6251C17.6971 20.3125 19.6842 19.4894 21.1494 18.0243C22.6145 16.5591 23.4376 14.572 23.4376 12.5C23.4376 10.428 22.6145 8.44086 21.1494 6.97573C19.6842 5.5106 17.6971 4.6875 15.6251 4.6875Z" fill="#E6E6E6"/><path d="M9.37509 20.3125H7.03134C6.25591 20.3115 5.48955 20.1457 4.78311 19.826C4.07667 19.5062 3.4463 19.0399 2.93383 18.4579C2.42137 17.876 2.03852 17.1917 1.8107 16.4505C1.58287 15.7093 1.51528 14.9281 1.6124 14.1588C1.70953 13.3895 1.96915 12.6496 2.37404 11.9883C2.77893 11.3269 3.31983 10.7593 3.96085 10.3229C4.60188 9.8866 5.32836 9.59158 6.0921 9.45745C6.85584 9.32331 7.63938 9.35313 8.39071 9.54493" stroke="#373D46" stroke-width="1.3" stroke-linecap="round" stroke-linejoin="round"/><path d="M7.8125 12.5C7.8125 11.2621 8.10667 10.0419 8.67076 8.94C9.23485 7.83808 10.0527 6.88599 11.057 6.16217C12.0612 5.43836 13.2231 4.96354 14.4468 4.77685C15.6706 4.59017 16.9211 4.69695 18.0955 5.08841C19.2699 5.47987 20.3345 6.1448 21.2014 7.0284C22.0684 7.912 22.713 8.98897 23.0821 10.1706C23.4512 11.3522 23.5343 12.6046 23.3244 13.8245C23.1145 15.0445 22.6177 16.1972 21.875 17.1875" stroke="#373D46" stroke-width="1.3" stroke-linecap="round" stroke-linejoin="round"/><path d="M11.7188 17.1875L14.8438 20.3125L17.9688 17.1875" stroke="#373D46" stroke-width="1.3" stroke-linecap="round" stroke-linejoin="round"/><path d="M14.8438 12.5V20.3125" stroke="#373D46" stroke-width="1.3" stroke-linecap="round" stroke-linejoin="round"/></g><defs><clipPath id="clip0_33_624"><rect width="25" height="25" fill="white"/></clipPath></defs></svg>