<svg width="25" height="25" viewBox="0 0 25 25" fill="none" xmlns="http://www.w3.org/2000/svg"><g clip-path="url(#clip0_33_413)"><path d="M5.19723 19.5312C5.19723 19.5312 7.81246 17.9687 12.5 17.9687C17.1875 17.9687 19.8027 19.5312 19.8027 19.5312L23.416 8.458C23.4423 8.38277 23.4456 8.30138 23.4253 8.22429C23.405 8.14721 23.3621 8.07795 23.3022 8.02544C23.2422 7.97293 23.1679 7.93956 23.0888 7.92963C23.0097 7.9197 22.9295 7.93366 22.8584 7.96972L17.6406 10.5713C17.5502 10.6159 17.4464 10.6251 17.3497 10.5968C17.2529 10.5686 17.1703 10.5051 17.1181 10.4189L12.8437 3.3203C12.808 3.26171 12.7577 3.21329 12.6979 3.17969C12.638 3.14609 12.5706 3.12845 12.5019 3.12845C12.4333 3.12845 12.3658 3.14609 12.3059 3.17969C12.2461 3.21329 12.1959 3.26171 12.1601 3.3203L7.8818 10.4219C7.82975 10.5085 7.74694 10.5723 7.64991 10.6005C7.55288 10.6288 7.44876 10.6194 7.35836 10.5742L2.1484 7.9746C2.07726 7.93876 1.99704 7.92496 1.91801 7.93495C1.83898 7.94495 1.76473 7.9783 1.70475 8.03072C1.64478 8.08315 1.6018 8.15228 1.58132 8.22926C1.56085 8.30624 1.5638 8.38758 1.5898 8.46288L5.19723 19.5312Z" fill="#E6E6E6"/><path d="M5.19723 19.5312C5.19723 19.5312 7.81246 17.9687 12.5 17.9687C17.1875 17.9687 19.8027 19.5312 19.8027 19.5312L23.416 8.458C23.4423 8.38277 23.4456 8.30138 23.4253 8.22429C23.405 8.14721 23.3621 8.07795 23.3022 8.02544C23.2422 7.97293 23.1679 7.93956 23.0888 7.92963C23.0097 7.9197 22.9295 7.93366 22.8584 7.96972L17.6406 10.5713C17.5502 10.6159 17.4464 10.6251 17.3497 10.5968C17.2529 10.5686 17.1703 10.5051 17.1181 10.4189L12.8437 3.3203C12.808 3.26171 12.7577 3.21329 12.6979 3.17969C12.638 3.14609 12.5706 3.12845 12.5019 3.12845C12.4333 3.12845 12.3658 3.14609 12.3059 3.17969C12.2461 3.21329 12.1959 3.26171 12.1601 3.3203L7.8818 10.4219C7.82975 10.5085 7.74694 10.5723 7.64991 10.6005C7.55288 10.6288 7.44876 10.6194 7.35836 10.5742L2.1484 7.9746C2.07726 7.93876 1.99704 7.92496 1.91801 7.93495C1.83898 7.94495 1.76473 7.9783 1.70475 8.03072C1.64478 8.08315 1.6018 8.15228 1.58132 8.22926C1.56085 8.30624 1.5638 8.38758 1.5898 8.46288L5.19723 19.5312Z" stroke="#373D46" stroke-width="1.3" stroke-linecap="round" stroke-linejoin="round"/><path d="M8.59375 15.1768C11.179 14.7327 13.821 14.7327 16.4062 15.1768" stroke="#373D46" stroke-width="1.3" stroke-linecap="round" stroke-linejoin="round"/></g><defs><clipPath id="clip0_33_413"><rect width="25" height="25" fill="white"/></clipPath></defs></svg>