<svg width="25" height="25" viewBox="0 0 25 25" fill="none" xmlns="http://www.w3.org/2000/svg"><g clip-path="url(#clip0_33_608)"><path d="M12.5 12.5C17.2462 12.5 21.0938 10.4013 21.0938 7.8125C21.0938 5.22367 17.2462 3.125 12.5 3.125C7.7538 3.125 3.90625 5.22367 3.90625 7.8125C3.90625 10.4013 7.7538 12.5 12.5 12.5Z" fill="#E6E6E6"/><path d="M12.5 12.5C17.2462 12.5 21.0938 10.4013 21.0938 7.8125C21.0938 5.22367 17.2462 3.125 12.5 3.125C7.7538 3.125 3.90625 5.22367 3.90625 7.8125C3.90625 10.4013 7.7538 12.5 12.5 12.5Z" stroke="#373D46" stroke-width="1.3" stroke-linecap="round" stroke-linejoin="round"/><path d="M3.90625 7.8125V12.5C3.90625 15.0889 7.75391 17.1875 12.5 17.1875C17.2461 17.1875 21.0938 15.0889 21.0938 12.5V7.8125" stroke="#373D46" stroke-width="1.3" stroke-linecap="round" stroke-linejoin="round"/><path d="M3.90625 12.5V17.1875C3.90625 19.7764 7.75391 21.875 12.5 21.875C17.2461 21.875 21.0938 19.7764 21.0938 17.1875V12.5" stroke="#373D46" stroke-width="1.3" stroke-linecap="round" stroke-linejoin="round"/></g><defs><clipPath id="clip0_33_608"><rect width="25" height="25" fill="white"/></clipPath></defs></svg>