<svg width="25" height="25" viewBox="0 0 25 25" fill="none" xmlns="http://www.w3.org/2000/svg"><g clip-path="url(#clip0_33_539)"><path d="M20.4755 7.03125H4.52434C4.33231 7.03123 4.1469 7.1014 4.00301 7.22856C3.85912 7.35573 3.76668 7.53111 3.74309 7.72168L2.35149 19.4404C2.33862 19.5504 2.34926 19.6618 2.38272 19.7674C2.41617 19.8729 2.47167 19.9701 2.54555 20.0526C2.61942 20.135 2.70997 20.2008 2.8112 20.2457C2.91243 20.2905 3.02204 20.3132 3.13274 20.3125H21.8671C21.9778 20.3132 22.0874 20.2905 22.1887 20.2457C22.2899 20.2008 22.3804 20.135 22.4543 20.0526C22.5282 19.9701 22.5837 19.8729 22.6171 19.7674C22.6506 19.6618 22.6612 19.5504 22.6484 19.4404L21.2568 7.72168C21.2332 7.53111 21.1407 7.35573 20.9968 7.22856C20.853 7.1014 20.6675 7.03123 20.4755 7.03125Z" fill="#E6E6E6"/><path d="M20.4755 7.03125H4.52434C4.33231 7.03123 4.1469 7.1014 4.00301 7.22856C3.85912 7.35573 3.76668 7.53111 3.74309 7.72168L2.35149 19.4404C2.33862 19.5504 2.34926 19.6618 2.38272 19.7674C2.41617 19.8729 2.47167 19.9701 2.54555 20.0526C2.61942 20.135 2.70997 20.2008 2.8112 20.2457C2.91243 20.2905 3.02204 20.3132 3.13274 20.3125H21.8671C21.9778 20.3132 22.0874 20.2905 22.1887 20.2457C22.2899 20.2008 22.3804 20.135 22.4543 20.0526C22.5282 19.9701 22.5837 19.8729 22.6171 19.7674C22.6506 19.6618 22.6612 19.5504 22.6484 19.4404L21.2568 7.72168C21.2332 7.53111 21.1407 7.35573 20.9968 7.22856C20.853 7.1014 20.6675 7.03123 20.4755 7.03125Z" stroke="#373D46" stroke-width="1.3" stroke-linecap="round" stroke-linejoin="round"/><path d="M8.59375 7.03125V6.25C8.59375 5.214 9.0053 4.22043 9.73786 3.48786C10.4704 2.7553 11.464 2.34375 12.5 2.34375C13.536 2.34375 14.5296 2.7553 15.2621 3.48786C15.9947 4.22043 16.4062 5.214 16.4062 6.25V7.03125" stroke="#373D46" stroke-width="1.3" stroke-linecap="round" stroke-linejoin="round"/></g><defs><clipPath id="clip0_33_539"><rect width="25" height="25" fill="white"/></clipPath></defs></svg>