<svg width="25" height="25" viewBox="0 0 25 25" fill="none" xmlns="http://www.w3.org/2000/svg"><g clip-path="url(#clip0_33_615)"><path d="M20.3125 14.0625H4.6875C4.25603 14.0625 3.90625 14.4123 3.90625 14.8438V19.5312C3.90625 19.9627 4.25603 20.3125 4.6875 20.3125H20.3125C20.744 20.3125 21.0938 19.9627 21.0938 19.5312V14.8438C21.0938 14.4123 20.744 14.0625 20.3125 14.0625Z" fill="#E6E6E6"/><path d="M20.3125 4.6875H4.6875C4.25603 4.6875 3.90625 5.03728 3.90625 5.46875V10.1562C3.90625 10.5877 4.25603 10.9375 4.6875 10.9375H20.3125C20.744 10.9375 21.0938 10.5877 21.0938 10.1562V5.46875C21.0938 5.03728 20.744 4.6875 20.3125 4.6875Z" fill="#E6E6E6"/><path d="M20.3125 14.0625H4.6875C4.25603 14.0625 3.90625 14.4123 3.90625 14.8438V19.5312C3.90625 19.9627 4.25603 20.3125 4.6875 20.3125H20.3125C20.744 20.3125 21.0938 19.9627 21.0938 19.5312V14.8438C21.0938 14.4123 20.744 14.0625 20.3125 14.0625Z" stroke="#373D46" stroke-width="1.3" stroke-linecap="round" stroke-linejoin="round"/><path d="M20.3125 4.6875H4.6875C4.25603 4.6875 3.90625 5.03728 3.90625 5.46875V10.1562C3.90625 10.5877 4.25603 10.9375 4.6875 10.9375H20.3125C20.744 10.9375 21.0938 10.5877 21.0938 10.1562V5.46875C21.0938 5.03728 20.744 4.6875 20.3125 4.6875Z" stroke="#373D46" stroke-width="1.3" stroke-linecap="round" stroke-linejoin="round"/><path d="M17.5781 8.98438C18.2253 8.98438 18.75 8.45971 18.75 7.8125C18.75 7.16529 18.2253 6.64062 17.5781 6.64062C16.9309 6.64062 16.4062 7.16529 16.4062 7.8125C16.4062 8.45971 16.9309 8.98438 17.5781 8.98438Z" fill="#373D46"/><path d="M17.5781 18.3594C18.2253 18.3594 18.75 17.8347 18.75 17.1875C18.75 16.5403 18.2253 16.0156 17.5781 16.0156C16.9309 16.0156 16.4062 16.5403 16.4062 17.1875C16.4062 17.8347 16.9309 18.3594 17.5781 18.3594Z" fill="#373D46"/></g><defs><clipPath id="clip0_33_615"><rect width="25" height="25" fill="white"/></clipPath></defs></svg>