<svg width="25" height="25" viewBox="0 0 25 25" fill="none" xmlns="http://www.w3.org/2000/svg"><g clip-path="url(#clip0_33_545)"><path d="M19.1289 5.87109C20.8869 7.62923 21.8746 10.0137 21.8746 12.5C21.8746 14.9863 20.8869 17.3708 19.1289 19.1289L15.2617 15.2617C15.994 14.5292 16.4054 13.5358 16.4054 12.5C16.4054 11.4642 15.994 10.4708 15.2617 9.73828L19.1289 5.87109Z" fill="#E6E6E6"/><path d="M5.87114 19.1289C4.11312 17.3708 3.12549 14.9863 3.12549 12.5C3.12549 10.0137 4.11312 7.62923 5.87114 5.87109L9.73833 9.73828C9.00602 10.4708 8.59463 11.4642 8.59463 12.5C8.59463 13.5358 9.00602 14.5292 9.73833 15.2617L5.87114 19.1289Z" fill="#E6E6E6"/><path d="M12.5 21.875C17.6777 21.875 21.875 17.6777 21.875 12.5C21.875 7.32233 17.6777 3.125 12.5 3.125C7.32233 3.125 3.125 7.32233 3.125 12.5C3.125 17.6777 7.32233 21.875 12.5 21.875Z" stroke="#373D46" stroke-width="1.3" stroke-linecap="round" stroke-linejoin="round"/><path d="M12.5 16.4062C14.6574 16.4062 16.4062 14.6574 16.4062 12.5C16.4062 10.3426 14.6574 8.59375 12.5 8.59375C10.3426 8.59375 8.59375 10.3426 8.59375 12.5C8.59375 14.6574 10.3426 16.4062 12.5 16.4062Z" stroke="#373D46" stroke-width="1.3" stroke-linecap="round" stroke-linejoin="round"/><path d="M9.73828 9.73828L5.87109 5.87109" stroke="#373D46" stroke-width="1.3" stroke-linecap="round" stroke-linejoin="round"/><path d="M15.2617 9.73828L19.1289 5.87109" stroke="#373D46" stroke-width="1.3" stroke-linecap="round" stroke-linejoin="round"/><path d="M15.2617 15.2617L19.1289 19.1289" stroke="#373D46" stroke-width="1.3" stroke-linecap="round" stroke-linejoin="round"/><path d="M9.73828 15.2617L5.87109 19.1289" stroke="#373D46" stroke-width="1.3" stroke-linecap="round" stroke-linejoin="round"/></g><defs><clipPath id="clip0_33_545"><rect width="25" height="25" fill="white"/></clipPath></defs></svg>