<svg width="25" height="25" viewBox="0 0 25 25" fill="none" xmlns="http://www.w3.org/2000/svg"><g clip-path="url(#clip0_33_432)"><path d="M20.5021 4.49804C19.623 3.61903 18.4308 3.12521 17.1876 3.12521C15.9445 3.12521 14.7522 3.61903 13.8732 4.49804L11.1388 7.23242C10.4354 7.93353 9.97426 8.84085 9.82237 9.82226C8.84096 9.97415 7.93365 10.4353 7.23253 11.1387L4.49815 13.873C3.6309 14.7545 3.1471 15.943 3.15214 17.1796C3.15717 18.4162 3.65064 19.6007 4.52504 20.4751C5.39944 21.3495 6.58393 21.8429 7.82051 21.848C9.05709 21.853 10.2456 21.3692 11.1271 20.502L13.8614 17.7676C14.5648 17.0665 15.026 16.1591 15.1778 15.1777C16.1593 15.0258 17.0666 14.5647 17.7677 13.8613L20.5021 11.1269C21.3811 10.2479 21.8749 9.05564 21.8749 7.81249C21.8749 6.56935 21.3811 5.37711 20.5021 4.49804Z" fill="#E6E6E6"/><path d="M12.879 18.75L11.1271 20.5019C10.2456 21.3692 9.05709 21.853 7.82051 21.848C6.58393 21.8429 5.39944 21.3495 4.52504 20.4751C3.65064 19.6007 3.15717 18.4162 3.15214 17.1796C3.1471 15.943 3.6309 14.7545 4.49815 13.873L7.24327 11.1328C8.08782 10.2865 9.22381 9.79497 10.4188 9.75866C11.6139 9.72236 12.7776 10.1441 13.672 10.9375" stroke="#373D46" stroke-width="1.3" stroke-linecap="round" stroke-linejoin="round"/><path d="M12.1211 6.24999L13.873 4.49803C14.7545 3.63078 15.943 3.14698 17.1796 3.15202C18.4162 3.15705 19.6007 3.65051 20.4751 4.52492C21.3495 5.39932 21.8429 6.58381 21.848 7.82039C21.853 9.05697 21.3692 10.2454 20.502 11.1269L17.7568 13.8721C16.9117 14.7176 15.7753 15.2083 14.5803 15.2437C13.3853 15.2791 12.2219 14.8566 11.3281 14.0625" stroke="#373D46" stroke-width="1.3" stroke-linecap="round" stroke-linejoin="round"/></g><defs><clipPath id="clip0_33_432"><rect width="25" height="25" fill="white"/></clipPath></defs></svg>