<svg width="25" height="25" viewBox="0 0 25 25" fill="none" xmlns="http://www.w3.org/2000/svg"><g clip-path="url(#clip0_33_562)"><path d="M12.5 14.0625C15.0888 14.0625 17.1875 11.9638 17.1875 9.375C17.1875 6.78617 15.0888 4.6875 12.5 4.6875C9.91117 4.6875 7.8125 6.78617 7.8125 9.375C7.8125 11.9638 9.91117 14.0625 12.5 14.0625Z" fill="#E6E6E6"/><path d="M12.5 17.1875C16.8147 17.1875 20.3125 13.6897 20.3125 9.375C20.3125 5.06028 16.8147 1.5625 12.5 1.5625C8.18528 1.5625 4.6875 5.06028 4.6875 9.375C4.6875 13.6897 8.18528 17.1875 12.5 17.1875Z" stroke="#373D46" stroke-width="1.3" stroke-linecap="round" stroke-linejoin="round"/><path d="M12.5 14.0625C15.0888 14.0625 17.1875 11.9638 17.1875 9.375C17.1875 6.78617 15.0888 4.6875 12.5 4.6875C9.91117 4.6875 7.8125 6.78617 7.8125 9.375C7.8125 11.9638 9.91117 14.0625 12.5 14.0625Z" stroke="#373D46" stroke-width="1.3" stroke-linecap="round" stroke-linejoin="round"/><path d="M17.1875 15.625V23.4375L12.499 21.0938L7.8125 23.4375V15.626" stroke="#373D46" stroke-width="1.3" stroke-linecap="round" stroke-linejoin="round"/></g><defs><clipPath id="clip0_33_562"><rect width="25" height="25" fill="white"/></clipPath></defs></svg>