<svg width="25" height="25" viewBox="0 0 25 25" fill="none" xmlns="http://www.w3.org/2000/svg"><g clip-path="url(#clip0_33_556)"><path d="M13.2812 6.74707L4.125 3.93848C4.00865 3.90454 3.88599 3.89814 3.76674 3.91978C3.64748 3.94143 3.5349 3.99052 3.43789 4.06318C3.34088 4.13584 3.26211 4.23008 3.20781 4.33844C3.1535 4.44679 3.12515 4.5663 3.125 4.6875V18.75C3.12515 18.8712 3.1535 18.9907 3.20781 19.0991C3.26211 19.2074 3.34088 19.3017 3.43789 19.3743C3.5349 19.447 3.64748 19.4961 3.76674 19.5177C3.88599 19.5394 4.00865 19.533 4.125 19.499L13.2812 16.6904V6.74707Z" fill="#E6E6E6"/><path d="M21.3125 14.2266C21.4748 14.1792 21.6173 14.0805 21.7187 13.9453C21.8202 13.8101 21.875 13.6456 21.875 13.4766V9.96094C21.875 9.7919 21.8202 9.62742 21.7187 9.49219C21.6173 9.35696 21.4748 9.25827 21.3125 9.21094L4.125 3.9375C4.00857 3.90354 3.88582 3.89716 3.7665 3.91885C3.64717 3.94055 3.53453 3.98973 3.4375 4.0625C3.34047 4.13527 3.26172 4.22963 3.20748 4.33811C3.15324 4.4466 3.125 4.56621 3.125 4.6875V18.75C3.125 18.8713 3.15324 18.9909 3.20748 19.0994C3.26172 19.2079 3.34047 19.3022 3.4375 19.375C3.53453 19.4478 3.64717 19.497 3.7665 19.5186C3.88582 19.5403 4.00857 19.534 4.125 19.5L21.3125 14.2266Z" stroke="#373D46" stroke-width="1.3" stroke-linecap="round" stroke-linejoin="round"/><path d="M17.9688 15.252V18.75C17.9688 18.9572 17.8864 19.1559 17.7399 19.3024C17.5934 19.4489 17.3947 19.5313 17.1875 19.5313H14.0625C13.8553 19.5313 13.6566 19.4489 13.5101 19.3024C13.3636 19.1559 13.2812 18.9572 13.2812 18.75V6.74707" stroke="#373D46" stroke-width="1.3" stroke-linecap="round" stroke-linejoin="round"/></g><defs><clipPath id="clip0_33_556"><rect width="25" height="25" fill="white"/></clipPath></defs></svg>