<svg width="25" height="25" viewBox="0 0 25 25" fill="none" xmlns="http://www.w3.org/2000/svg"><g clip-path="url(#clip0_33_419)"><path d="M5.46875 3.90625H19.5312C19.7385 3.90625 19.9372 3.98856 20.0837 4.13507C20.2302 4.28159 20.3125 4.4803 20.3125 4.6875V19.5312C20.3125 20.1529 20.0656 20.749 19.626 21.1885C19.1865 21.6281 18.5904 21.875 17.9688 21.875H7.03125C6.40965 21.875 5.81351 21.6281 5.37397 21.1885C4.93443 20.749 4.6875 20.1529 4.6875 19.5312V4.6875C4.6875 4.4803 4.76981 4.28159 4.91632 4.13507C5.06284 3.98856 5.26155 3.90625 5.46875 3.90625Z" fill="#E6E6E6"/><path d="M9.375 12.5H15.625" stroke="#373D46" stroke-width="1.3" stroke-linecap="round" stroke-linejoin="round"/><path d="M9.375 15.625H15.625" stroke="#373D46" stroke-width="1.3" stroke-linecap="round" stroke-linejoin="round"/><path d="M5.46875 3.90625H19.5312C19.7385 3.90625 19.9372 3.98856 20.0837 4.13507C20.2302 4.28159 20.3125 4.4803 20.3125 4.6875V19.5312C20.3125 20.1529 20.0656 20.749 19.626 21.1885C19.1865 21.6281 18.5904 21.875 17.9688 21.875H7.03125C6.40965 21.875 5.81351 21.6281 5.37397 21.1885C4.93443 20.749 4.6875 20.1529 4.6875 19.5312V4.6875C4.6875 4.4803 4.76981 4.28159 4.91632 4.13507C5.06284 3.98856 5.26155 3.90625 5.46875 3.90625Z" stroke="#373D46" stroke-width="1.3" stroke-linecap="round" stroke-linejoin="round"/><path d="M7.8125 2.34375V5.46875" stroke="#373D46" stroke-width="1.3" stroke-linecap="round" stroke-linejoin="round"/><path d="M12.5 2.34375V5.46875" stroke="#373D46" stroke-width="1.3" stroke-linecap="round" stroke-linejoin="round"/><path d="M17.1875 2.34375V5.46875" stroke="#373D46" stroke-width="1.3" stroke-linecap="round" stroke-linejoin="round"/></g><defs><clipPath id="clip0_33_419"><rect width="25" height="25" fill="white"/></clipPath></defs></svg>