<svg width="25" height="25" viewBox="0 0 25 25" fill="none" xmlns="http://www.w3.org/2000/svg"><g clip-path="url(#clip0_33_456)"><path d="M21.0938 4.6875H3.90625C3.47478 4.6875 3.125 5.03728 3.125 5.46875V17.1875C3.125 17.619 3.47478 17.9688 3.90625 17.9688H21.0938C21.5252 17.9688 21.875 17.619 21.875 17.1875V5.46875C21.875 5.03728 21.5252 4.6875 21.0938 4.6875Z" fill="#E6E6E6"/><path d="M21.0938 4.6875H3.90625C3.47478 4.6875 3.125 5.03728 3.125 5.46875V17.1875C3.125 17.619 3.47478 17.9688 3.90625 17.9688H21.0938C21.5252 17.9688 21.875 17.619 21.875 17.1875V5.46875C21.875 5.03728 21.5252 4.6875 21.0938 4.6875Z" stroke="#373D46" stroke-width="1.3" stroke-linecap="round" stroke-linejoin="round"/><path d="M15.625 17.9688L18.75 21.875" stroke="#373D46" stroke-width="1.3" stroke-linecap="round" stroke-linejoin="round"/><path d="M9.375 17.9688L6.25 21.875" stroke="#373D46" stroke-width="1.3" stroke-linecap="round" stroke-linejoin="round"/><path d="M9.375 11.7188V14.0625" stroke="#373D46" stroke-width="1.3" stroke-linecap="round" stroke-linejoin="round"/><path d="M12.5 10.1562V14.0625" stroke="#373D46" stroke-width="1.3" stroke-linecap="round" stroke-linejoin="round"/><path d="M15.625 8.59375V14.0625" stroke="#373D46" stroke-width="1.3" stroke-linecap="round" stroke-linejoin="round"/><path d="M12.5 4.6875V2.34375" stroke="#373D46" stroke-width="1.3" stroke-linecap="round" stroke-linejoin="round"/></g><defs><clipPath id="clip0_33_456"><rect width="25" height="25" fill="white"/></clipPath></defs></svg>