<svg width="25" height="25" viewBox="0 0 25 25" fill="none" xmlns="http://www.w3.org/2000/svg"><g clip-path="url(#clip0_33_577)"><path d="M2.34375 16.4062C2.34375 18.1318 4.29688 18.75 5.46875 18.75C6.64062 18.75 8.59375 18.1318 8.59375 16.4062L5.46875 8.59375L2.34375 16.4062Z" fill="#E6E6E6"/><path d="M16.4062 13.2812C16.4062 15.0068 18.3594 15.625 19.5312 15.625C20.7031 15.625 22.6562 15.0068 22.6562 13.2812L19.5312 5.46875L16.4062 13.2812Z" fill="#E6E6E6"/><path d="M12.5 3.90625V21.0938" stroke="#373D46" stroke-width="1.3" stroke-linecap="round" stroke-linejoin="round"/><path d="M10.1562 21.0938H14.8438" stroke="#373D46" stroke-width="1.3" stroke-linecap="round" stroke-linejoin="round"/><path d="M5.46875 8.59375L19.5312 5.46875" stroke="#373D46" stroke-width="1.3" stroke-linecap="round" stroke-linejoin="round"/><path d="M2.34375 16.4062C2.34375 18.1318 4.29688 18.75 5.46875 18.75C6.64062 18.75 8.59375 18.1318 8.59375 16.4062L5.46875 8.59375L2.34375 16.4062Z" stroke="#373D46" stroke-width="1.3" stroke-linecap="round" stroke-linejoin="round"/><path d="M16.4062 13.2812C16.4062 15.0068 18.3594 15.625 19.5312 15.625C20.7031 15.625 22.6562 15.0068 22.6562 13.2812L19.5312 5.46875L16.4062 13.2812Z" stroke="#373D46" stroke-width="1.3" stroke-linecap="round" stroke-linejoin="round"/></g><defs><clipPath id="clip0_33_577"><rect width="25" height="25" fill="white"/></clipPath></defs></svg>