<svg width="25" height="25" viewBox="0 0 25 25" fill="none" xmlns="http://www.w3.org/2000/svg"><g clip-path="url(#clip0_33_587)"><path d="M6.25 6.25L2.34375 17.9688H10.1562L6.25 6.25Z" fill="#E6E6E6"/><path d="M15.2344 11.7188C17.6075 11.7188 19.5312 9.79497 19.5312 7.42188C19.5312 5.04878 17.6075 3.125 15.2344 3.125C12.8613 3.125 10.9375 5.04878 10.9375 7.42188C10.9375 9.79497 12.8613 11.7188 15.2344 11.7188Z" fill="#E6E6E6"/><path d="M21.875 14.8438H13.2812V20.3125H21.875V14.8438Z" fill="#E6E6E6"/><path d="M6.25 6.25L2.34375 17.9688H10.1562L6.25 6.25Z" stroke="#373D46" stroke-width="1.3" stroke-linecap="round" stroke-linejoin="round"/><path d="M15.2344 11.7188C17.6075 11.7188 19.5312 9.79497 19.5312 7.42188C19.5312 5.04878 17.6075 3.125 15.2344 3.125C12.8613 3.125 10.9375 5.04878 10.9375 7.42188C10.9375 9.79497 12.8613 11.7188 15.2344 11.7188Z" stroke="#373D46" stroke-width="1.3" stroke-linecap="round" stroke-linejoin="round"/><path d="M21.875 14.8438H13.2812V20.3125H21.875V14.8438Z" stroke="#373D46" stroke-width="1.3" stroke-linecap="round" stroke-linejoin="round"/></g><defs><clipPath id="clip0_33_587"><rect width="25" height="25" fill="white"/></clipPath></defs></svg>