<svg width="25" height="25" viewBox="0 0 25 25" fill="none" xmlns="http://www.w3.org/2000/svg"><g clip-path="url(#clip0_33_640)"><path d="M3.02052 19.4062C4.62794 17.6943 8.84766 14.0625 14.8438 14.0625V18.75L22.6563 10.9375L14.8438 3.125V7.8125C9.68751 7.8125 3.07716 12.7393 2.34376 19.0957C2.33361 19.178 2.34992 19.2614 2.39033 19.3339C2.43074 19.4063 2.49315 19.464 2.56853 19.4986C2.64391 19.5331 2.72834 19.5428 2.8096 19.5262C2.89086 19.5097 2.96473 19.4676 3.02052 19.4062Z" fill="#E6E6E6"/><path d="M3.02052 19.4063C4.62794 17.6943 8.84766 14.0625 14.8438 14.0625V18.75L22.6563 10.9375L14.8438 3.125V7.8125C9.68751 7.8125 3.07716 12.7393 2.34376 19.0957C2.33361 19.178 2.34992 19.2614 2.39033 19.3339C2.43074 19.4063 2.49315 19.464 2.56853 19.4986C2.64391 19.5331 2.72834 19.5428 2.8096 19.5262C2.89086 19.5097 2.96473 19.4676 3.02052 19.4063Z" stroke="#373D46" stroke-width="1.3" stroke-linecap="round" stroke-linejoin="round"/></g><defs><clipPath id="clip0_33_640"><rect width="25" height="25" fill="white"/></clipPath></defs></svg>