<svg xmlns="http://www.w3.org/2000/svg"><symbol id="search" viewBox="0 0 32 32" fill="none"><path d="M14 24C19.5228 24 24 19.5228 24 14C24 8.47715 19.5228 4 14 4C8.47715 4 4 8.47715 4 14C4 19.5228 8.47715 24 14 24Z" stroke="currentColor" stroke-width="1.5" stroke-linecap="round" stroke-linejoin="round"/><path d="M21.0713 21.0712L28 28" stroke="currentColor" stroke-width="1.5" stroke-linecap="round" stroke-linejoin="round"/></symbol><symbol id="close" viewBox="0 0 14 14" fill="none"><path d="M13 1.00005L1 13M0.999949 1L12.9999 13" stroke="currentColor" stroke-width="1.3" stroke-linecap="round"/></symbol><symbol id="crown" viewBox="0 0 20 20" fill="none"><path d="M19.05 5.9525C18.909 5.82957 18.7347 5.75131 18.5491 5.72767C18.3635 5.70402 18.1751 5.73605 18.0078 5.81969L14.0852 7.77282L10.8102 2.33297C10.726 2.19338 10.6071 2.07791 10.4652 1.99776C10.3233 1.91761 10.163 1.87549 10 1.87549C9.83699 1.87549 9.67674 1.91761 9.5348 1.99776C9.39285 2.07791 9.27403 2.19338 9.18984 2.33297L5.91484 7.77516L1.99375 5.82203C1.82683 5.73914 1.63914 5.70739 1.45424 5.73077C1.26934 5.75415 1.09546 5.83162 0.954429 5.95345C0.813397 6.07529 0.711491 6.23607 0.6615 6.41562C0.61151 6.59516 0.615662 6.78547 0.673434 6.96266L3.56406 15.8189C3.59312 15.9079 3.6418 15.9892 3.70649 16.0568C3.77119 16.1245 3.85025 16.1767 3.93784 16.2097C4.02542 16.2427 4.11931 16.2556 4.21255 16.2475C4.30579 16.2393 4.39602 16.2103 4.47656 16.1627C4.49609 16.1509 6.49375 15.0002 10 15.0002C13.5062 15.0002 15.5039 16.1509 15.5219 16.1619C15.6024 16.21 15.6928 16.2394 15.7863 16.2478C15.8798 16.2563 15.974 16.2435 16.0618 16.2106C16.1497 16.1776 16.2291 16.1253 16.294 16.0575C16.3589 15.9897 16.4076 15.9082 16.4367 15.8189L19.3273 6.965C19.3868 6.78776 19.3921 6.59685 19.3428 6.41655C19.2934 6.23625 19.1915 6.07472 19.05 5.9525ZM13.7375 12.2502C13.712 12.3947 13.6364 12.5257 13.524 12.6202C13.4115 12.7146 13.2695 12.7664 13.1227 12.7666C13.086 12.7665 13.0494 12.7634 13.0133 12.7572C11.0169 12.4145 8.9768 12.4145 6.98047 12.7572C6.89962 12.7715 6.81676 12.7697 6.73661 12.7519C6.65646 12.7341 6.5806 12.7007 6.51335 12.6537C6.37753 12.5586 6.28505 12.4134 6.25625 12.2502C6.22745 12.0869 6.26469 11.9189 6.35977 11.783C6.45486 11.6472 6.6 11.5547 6.76328 11.5259C8.90333 11.1582 11.0904 11.1582 13.2305 11.5259C13.3116 11.5398 13.3892 11.5696 13.4588 11.6135C13.5284 11.6575 13.5886 11.7148 13.636 11.7821C13.6834 11.8494 13.7171 11.9253 13.735 12.0057C13.753 12.086 13.7549 12.1691 13.7406 12.2502H13.7375Z" fill="currentColor"/></symbol><symbol id="arrow-left" viewBox="0 0 38 21" fill="none"><path d="M1.49998 9.5L10.8333 1.33333" stroke="currentColor" stroke-width="1.5" stroke-miterlimit="10" stroke-linecap="round" stroke-linejoin="round"/><path d="M3 14L9 20" stroke="#307EE6" stroke-width="1.5" stroke-miterlimit="10" stroke-linecap="round" stroke-linejoin="round"/><path d="M37 10L0.999998 10" stroke="currentColor" stroke-width="1.5" stroke-miterlimit="10" stroke-linecap="round" stroke-linejoin="round"/></symbol><symbol id="arrow-right" viewBox="0 0 38 21" fill="none"><path d="M36.5 11.5L27.1667 19.6667" stroke="currentColor" stroke-width="1.5" stroke-miterlimit="10" stroke-linecap="round" stroke-linejoin="round"/><path d="M35 7L29 1" stroke="#307EE6" stroke-width="1.5" stroke-miterlimit="10" stroke-linecap="round" stroke-linejoin="round"/><path d="M1 11L37 11" stroke="currentColor" stroke-width="1.5" stroke-miterlimit="10" stroke-linecap="round" stroke-linejoin="round"/></symbol><symbol id="clock" viewBox="0 0 17 17" fill="none"><path d="M15.5834 8.50002C15.5834 12.41 12.41 15.5834 8.50002 15.5834C4.59002 15.5834 1.41669 12.41 1.41669 8.50002C1.41669 4.59002 4.59002 1.41669 8.50002 1.41669C12.41 1.41669 15.5834 4.59002 15.5834 8.50002Z" stroke="currentColor" stroke-width="1.3" stroke-linecap="round" stroke-linejoin="round"/><path d="M11.1279 10.7525L8.93208 9.44208C8.54958 9.21541 8.23792 8.67 8.23792 8.22375V5.31958" stroke="currentColor" stroke-width="1.3" stroke-linecap="round" stroke-linejoin="round"/></symbol><symbol id="arrow-up-round" viewBox="0 0 24 24" fill="none"><path d="M12 17.9998H9.32998C6.01998 17.9998 4.65998 15.6498 6.31998 12.7798L7.65998 10.4698L8.99998 8.15982C10.66 5.28982 13.37 5.28982 15.03 8.15982L16.37 10.4698L17.71 12.7798C19.37 15.6498 18.01 17.9998 14.7 17.9998H12Z" stroke="currentColor" stroke-width="1.3" stroke-miterlimit="10" stroke-linecap="round" stroke-linejoin="round"/></symbol><symbol id="send" viewBox="0 0 25 24" fill="none"><path d="M10.01 4.23001L18.57 8.51001C22.41 10.43 22.41 13.57 18.57 15.49L10.01 19.77C4.25 22.65 1.9 20.29 4.78 14.54L5.65 12.81C5.87 12.37 5.87 11.64 5.65 11.2L4.78 9.46001C1.9 3.71001 4.26 1.35001 10.01 4.23001Z" stroke="currentColor" stroke-width="1.5" stroke-linecap="round" stroke-linejoin="round"/><path d="M5.94 12H11.34" stroke="currentColor" stroke-width="1.5" stroke-linecap="round" stroke-linejoin="round"/></symbol><symbol id="" viewBox="" fill="none"/><symbol id="" viewBox="" fill="none"/></svg>