<svg xmlns="http://www.w3.org/2000/svg"><symbol id="search" viewBox="0 0 32 32" fill="none"><path d="M14 24C19.5228 24 24 19.5228 24 14C24 8.47715 19.5228 4 14 4C8.47715 4 4 8.47715 4 14C4 19.5228 8.47715 24 14 24Z" stroke="currentColor" stroke-width="1.5" stroke-linecap="round" stroke-linejoin="round"/><path d="M21.0713 21.0712L28 28" stroke="currentColor" stroke-width="1.5" stroke-linecap="round" stroke-linejoin="round"/></symbol><symbol id="close" viewBox="0 0 14 14" fill="none"><path d="M13 1.00005L1 13M0.999949 1L12.9999 13" stroke="currentColor" stroke-width="1.3" stroke-linecap="round"/></symbol><symbol id="crown" viewBox="0 0 20 20" fill="none"><path d="M19.05 5.9525C18.909 5.82957 18.7347 5.75131 18.5491 5.72767C18.3635 5.70402 18.1751 5.73605 18.0078 5.81969L14.0852 7.77282L10.8102 2.33297C10.726 2.19338 10.6071 2.07791 10.4652 1.99776C10.3233 1.91761 10.163 1.87549 10 1.87549C9.83699 1.87549 9.67674 1.91761 9.5348 1.99776C9.39285 2.07791 9.27403 2.19338 9.18984 2.33297L5.91484 7.77516L1.99375 5.82203C1.82683 5.73914 1.63914 5.70739 1.45424 5.73077C1.26934 5.75415 1.09546 5.83162 0.954429 5.95345C0.813397 6.07529 0.711491 6.23607 0.6615 6.41562C0.61151 6.59516 0.615662 6.78547 0.673434 6.96266L3.56406 15.8189C3.59312 15.9079 3.6418 15.9892 3.70649 16.0568C3.77119 16.1245 3.85025 16.1767 3.93784 16.2097C4.02542 16.2427 4.11931 16.2556 4.21255 16.2475C4.30579 16.2393 4.39602 16.2103 4.47656 16.1627C4.49609 16.1509 6.49375 15.0002 10 15.0002C13.5062 15.0002 15.5039 16.1509 15.5219 16.1619C15.6024 16.21 15.6928 16.2394 15.7863 16.2478C15.8798 16.2563 15.974 16.2435 16.0618 16.2106C16.1497 16.1776 16.2291 16.1253 16.294 16.0575C16.3589 15.9897 16.4076 15.9082 16.4367 15.8189L19.3273 6.965C19.3868 6.78776 19.3921 6.59685 19.3428 6.41655C19.2934 6.23625 19.1915 6.07472 19.05 5.9525ZM13.7375 12.2502C13.712 12.3947 13.6364 12.5257 13.524 12.6202C13.4115 12.7146 13.2695 12.7664 13.1227 12.7666C13.086 12.7665 13.0494 12.7634 13.0133 12.7572C11.0169 12.4145 8.9768 12.4145 6.98047 12.7572C6.89962 12.7715 6.81676 12.7697 6.73661 12.7519C6.65646 12.7341 6.5806 12.7007 6.51335 12.6537C6.37753 12.5586 6.28505 12.4134 6.25625 12.2502C6.22745 12.0869 6.26469 11.9189 6.35977 11.783C6.45486 11.6472 6.6 11.5547 6.76328 11.5259C8.90333 11.1582 11.0904 11.1582 13.2305 11.5259C13.3116 11.5398 13.3892 11.5696 13.4588 11.6135C13.5284 11.6575 13.5886 11.7148 13.636 11.7821C13.6834 11.8494 13.7171 11.9253 13.735 12.0057C13.753 12.086 13.7549 12.1691 13.7406 12.2502H13.7375Z" fill="currentColor"/></symbol><symbol id="arrow-left" viewBox="0 0 38 21" fill="none"><path d="M1.49998 9.5L10.8333 1.33333" stroke="currentColor" stroke-width="1.5" stroke-miterlimit="10" stroke-linecap="round" stroke-linejoin="round"/><path d="M3 14L9 20" stroke="#307EE6" stroke-width="1.5" stroke-miterlimit="10" stroke-linecap="round" stroke-linejoin="round"/><path d="M37 10L0.999998 10" stroke="currentColor" stroke-width="1.5" stroke-miterlimit="10" stroke-linecap="round" stroke-linejoin="round"/></symbol><symbol id="arrow-right" viewBox="0 0 38 21" fill="none"><path d="M36.5 11.5L27.1667 19.6667" stroke="currentColor" stroke-width="1.5" stroke-miterlimit="10" stroke-linecap="round" stroke-linejoin="round"/><path d="M35 7L29 1" stroke="#307EE6" stroke-width="1.5" stroke-miterlimit="10" stroke-linecap="round" stroke-linejoin="round"/><path d="M1 11L37 11" stroke="currentColor" stroke-width="1.5" stroke-miterlimit="10" stroke-linecap="round" stroke-linejoin="round"/></symbol><symbol id="clock" viewBox="0 0 17 17" fill="none"><path d="M15.5834 8.50002C15.5834 12.41 12.41 15.5834 8.50002 15.5834C4.59002 15.5834 1.41669 12.41 1.41669 8.50002C1.41669 4.59002 4.59002 1.41669 8.50002 1.41669C12.41 1.41669 15.5834 4.59002 15.5834 8.50002Z" stroke="currentColor" stroke-width="1.3" stroke-linecap="round" stroke-linejoin="round"/><path d="M11.1279 10.7525L8.93208 9.44208C8.54958 9.21541 8.23792 8.67 8.23792 8.22375V5.31958" stroke="currentColor" stroke-width="1.3" stroke-linecap="round" stroke-linejoin="round"/></symbol><symbol id="arrow-up-round" viewBox="0 0 24 24" fill="none"><path d="M12 17.9998H9.32998C6.01998 17.9998 4.65998 15.6498 6.31998 12.7798L7.65998 10.4698L8.99998 8.15982C10.66 5.28982 13.37 5.28982 15.03 8.15982L16.37 10.4698L17.71 12.7798C19.37 15.6498 18.01 17.9998 14.7 17.9998H12Z" stroke="currentColor" stroke-width="1.3" stroke-miterlimit="10" stroke-linecap="round" stroke-linejoin="round"/></symbol><symbol id="send" viewBox="0 0 25 24" fill="none"><path d="M10.01 4.23001L18.57 8.51001C22.41 10.43 22.41 13.57 18.57 15.49L10.01 19.77C4.25 22.65 1.9 20.29 4.78 14.54L5.65 12.81C5.87 12.37 5.87 11.64 5.65 11.2L4.78 9.46001C1.9 3.71001 4.26 1.35001 10.01 4.23001Z" stroke="currentColor" stroke-width="1.5" stroke-linecap="round" stroke-linejoin="round"/><path d="M5.94 12H11.34" stroke="currentColor" stroke-width="1.5" stroke-linecap="round" stroke-linejoin="round"/></symbol><symbol id="clear" viewBox="0 0 18 15" fill="none"><path d="M2.03418 2.39449C2.30851 1.36577 3.24017 0.65 4.30483 0.65H15C16.2979 0.65 17.35 1.70213 17.35 3V12C17.35 13.2979 16.2979 14.35 15 14.35H4.30483C3.24017 14.35 2.30851 13.6342 2.03418 12.6055L0.834183 8.10551C0.728386 7.70877 0.728386 7.29123 0.834183 6.89449L2.03418 2.39449Z" stroke="currentColor" stroke-width="1.3"/><path d="M12 5.00002L7 10M6.99998 5L12 9.99998" stroke="currentColor" stroke-width="1.3" stroke-linecap="round"/></symbol><symbol id="trophy" viewBox="0 0 20 20" fill="none"><path d="M18.125 5H16.25V4.375C16.25 4.04348 16.1183 3.72554 15.8839 3.49112C15.6495 3.2567 15.3315 3.125 15 3.125H5C4.66848 3.125 4.35054 3.2567 4.11612 3.49112C3.8817 3.72554 3.75 4.04348 3.75 4.375V5H1.875C1.54348 5 1.22554 5.1317 0.991117 5.36612C0.756696 5.60054 0.625 5.91848 0.625 6.25V7.5C0.625 8.3288 0.95424 9.12366 1.54029 9.70971C1.83047 9.99989 2.17497 10.2301 2.55411 10.3871C2.93326 10.5442 3.33962 10.625 3.75 10.625H4.03516C4.40332 11.7917 5.10529 12.825 6.0543 13.5971C7.00331 14.3693 8.15777 14.8464 9.375 14.9695V16.875H7.5C7.33424 16.875 7.17527 16.9408 7.05806 17.0581C6.94085 17.1753 6.875 17.3342 6.875 17.5C6.875 17.6658 6.94085 17.8247 7.05806 17.9419C7.17527 18.0592 7.33424 18.125 7.5 18.125H12.5C12.6658 18.125 12.8247 18.0592 12.9419 17.9419C13.0592 17.8247 13.125 17.6658 13.125 17.5C13.125 17.3342 13.0592 17.1753 12.9419 17.0581C12.8247 16.9408 12.6658 16.875 12.5 16.875H10.625V14.9672C13.1203 14.7148 15.1906 12.9641 15.9438 10.625H16.25C17.0788 10.625 17.8737 10.2958 18.4597 9.70971C19.0458 9.12366 19.375 8.3288 19.375 7.5V6.25C19.375 5.91848 19.2433 5.60054 19.0089 5.36612C18.7745 5.1317 18.4565 5 18.125 5ZM3.75 9.375C3.25272 9.375 2.77581 9.17746 2.42417 8.82583C2.07254 8.47419 1.875 7.99728 1.875 7.5V6.25H3.75V8.75C3.75 8.95833 3.76016 9.16667 3.78047 9.375H3.75ZM18.125 7.5C18.125 7.99728 17.9275 8.47419 17.5758 8.82583C17.2242 9.17746 16.7473 9.375 16.25 9.375H16.2109C16.2366 9.14411 16.2496 8.912 16.25 8.67969V6.25H18.125V7.5Z" fill="currentColor"/></symbol><symbol id="rub" viewBox="0 0 20 20" fill="none"><path d="M13.75 8.4375C13.75 9.01766 13.5195 9.57406 13.1093 9.9843C12.6991 10.3945 12.1427 10.625 11.5625 10.625H8.75V6.25H11.5625C12.1427 6.25 12.6991 6.48047 13.1093 6.8907C13.5195 7.30094 13.75 7.85734 13.75 8.4375ZM18.125 10C18.125 11.607 17.6485 13.1779 16.7557 14.514C15.8629 15.8502 14.594 16.8916 13.1093 17.5065C11.6247 18.1215 9.99099 18.2824 8.4149 17.9689C6.8388 17.6554 5.39106 16.8815 4.25476 15.7452C3.11846 14.6089 2.34463 13.1612 2.03112 11.5851C1.71762 10.009 1.87852 8.37535 2.49348 6.8907C3.10844 5.40605 4.14985 4.1371 5.486 3.24431C6.82215 2.35152 8.39303 1.875 10 1.875C12.1542 1.87727 14.2195 2.73403 15.7427 4.25727C17.266 5.78051 18.1227 7.84581 18.125 10ZM15 8.4375C14.999 7.52614 14.6365 6.65239 13.992 6.00796C13.3476 5.36353 12.4739 5.00103 11.5625 5H8.125C7.95924 5 7.80027 5.06585 7.68306 5.18306C7.56585 5.30027 7.5 5.45924 7.5 5.625V10.625H6.25C6.08424 10.625 5.92527 10.6908 5.80806 10.8081C5.69085 10.9253 5.625 11.0842 5.625 11.25C5.625 11.4158 5.69085 11.5747 5.80806 11.6919C5.92527 11.8092 6.08424 11.875 6.25 11.875H7.5V13.125H6.25C6.08424 13.125 5.92527 13.1908 5.80806 13.3081C5.69085 13.4253 5.625 13.5842 5.625 13.75C5.625 13.9158 5.69085 14.0747 5.80806 14.1919C5.92527 14.3092 6.08424 14.375 6.25 14.375H7.5V15.625C7.5 15.7908 7.56585 15.9497 7.68306 16.0669C7.80027 16.1842 7.95924 16.25 8.125 16.25C8.29076 16.25 8.44974 16.1842 8.56695 16.0669C8.68416 15.9497 8.75 15.7908 8.75 15.625V14.375H11.875C12.0408 14.375 12.1997 14.3092 12.3169 14.1919C12.4342 14.0747 12.5 13.9158 12.5 13.75C12.5 13.5842 12.4342 13.4253 12.3169 13.3081C12.1997 13.1908 12.0408 13.125 11.875 13.125H8.75V11.875H11.5625C12.4739 11.874 13.3476 11.5115 13.992 10.867C14.6365 10.2226 14.999 9.34887 15 8.4375Z" fill="currentColor"/></symbol><symbol id="chevron-down" viewBox="0 0 12 7" fill="none"><path d="M1 1L6 6L11 1" stroke="currentColor" stroke-width="1.5" stroke-linecap="round" stroke-linejoin="round"/></symbol><symbol id="settings" viewBox="0 0 32 26" fill="none"><ellipse cx="12" cy="20.5" rx="4" ry="4.5" fill="white"/><path d="M12.2495 15.9999C14.7348 15.9999 16.7495 18.0146 16.7495 20.4999C16.7495 22.9852 14.7348 24.9999 12.2495 24.9999C9.76422 24.9999 7.74951 22.9852 7.74951 20.4999C7.74951 18.0146 9.76422 15.9999 12.2495 15.9999Z" stroke="currentColor" stroke-width="1.5"/><ellipse cx="20" cy="5.5" rx="4" ry="4.5" fill="white"/><path d="M19.7503 0.999994C17.265 0.999994 15.2503 3.01471 15.2503 5.49998C15.2503 7.98525 17.265 9.99996 19.7503 9.99996C22.2355 9.99996 24.2502 7.98525 24.2502 5.49998C24.2502 3.01471 22.2355 0.999994 19.7503 0.999994Z" stroke="currentColor" stroke-width="1.5"/><path d="M14.5001 5.49989L7.00012 5.49988M2.50003 5.49989L1 5.49989" stroke="currentColor" stroke-width="1.5" stroke-linecap="round"/><path d="M17.4998 20.4999L24.9997 20.4999M29.4998 20.4999L30.9998 20.4999" stroke="currentColor" stroke-width="1.5" stroke-linecap="round"/><path d="M1 20.4999L6.99998 20.4999" stroke="currentColor" stroke-width="1.5" stroke-linecap="round"/><path d="M30.9997 5.49988L24.9998 5.49988" stroke="currentColor" stroke-width="1.5" stroke-linecap="round"/></symbol><symbol id="danger" viewBox="0 0 18 18" fill="none"><path d="M9 6.75V10.5" stroke="currentColor" stroke-width="1.5" stroke-linecap="round" stroke-linejoin="round"/><path d="M8.99995 16.0575H4.45495C1.85245 16.0575 0.76495 14.1975 2.02495 11.925L4.36495 7.71001L6.56995 3.75001C7.90495 1.34251 10.0949 1.34251 11.4299 3.75001L13.6349 7.71751L15.9749 11.9325C17.2349 14.205 16.1399 16.065 13.5449 16.065H8.99995V16.0575Z" stroke="currentColor" stroke-width="1.5" stroke-linecap="round" stroke-linejoin="round"/><path d="M8.99585 12.75H9.00259" stroke="currentColor" stroke-width="2" stroke-linecap="round" stroke-linejoin="round"/></symbol><symbol id="" viewBox="" fill="none"/><symbol id="" viewBox="" fill="none"/></svg>