<svg width="25" height="25" viewBox="0 0 25 25" fill="none" xmlns="http://www.w3.org/2000/svg"><g clip-path="url(#clip0_33_487)"><path d="M6.25 10.1562H3.125C2.69353 10.1562 2.34375 10.506 2.34375 10.9375V14.0625C2.34375 14.494 2.69353 14.8438 3.125 14.8438H6.25C6.68147 14.8438 7.03125 14.494 7.03125 14.0625V10.9375C7.03125 10.506 6.68147 10.1562 6.25 10.1562Z" fill="#E6E6E6"/><path d="M21.0938 3.90625H16.4062C15.9748 3.90625 15.625 4.25603 15.625 4.6875V9.375C15.625 9.80647 15.9748 10.1562 16.4062 10.1562H21.0938C21.5252 10.1562 21.875 9.80647 21.875 9.375V4.6875C21.875 4.25603 21.5252 3.90625 21.0938 3.90625Z" fill="#E6E6E6"/><path d="M21.0938 14.8438H16.4062C15.9748 14.8438 15.625 15.1935 15.625 15.625V20.3125C15.625 20.744 15.9748 21.0938 16.4062 21.0938H21.0938C21.5252 21.0938 21.875 20.744 21.875 20.3125V15.625C21.875 15.1935 21.5252 14.8438 21.0938 14.8438Z" fill="#E6E6E6"/><path d="M6.25 10.1562H3.125C2.69353 10.1562 2.34375 10.506 2.34375 10.9375V14.0625C2.34375 14.494 2.69353 14.8438 3.125 14.8438H6.25C6.68147 14.8438 7.03125 14.494 7.03125 14.0625V10.9375C7.03125 10.506 6.68147 10.1562 6.25 10.1562Z" stroke="#373D46" stroke-width="1.3" stroke-linecap="round" stroke-linejoin="round"/><path d="M21.0938 3.90625H16.4062C15.9748 3.90625 15.625 4.25603 15.625 4.6875V9.375C15.625 9.80647 15.9748 10.1562 16.4062 10.1562H21.0938C21.5252 10.1562 21.875 9.80647 21.875 9.375V4.6875C21.875 4.25603 21.5252 3.90625 21.0938 3.90625Z" stroke="#373D46" stroke-width="1.3" stroke-linecap="round" stroke-linejoin="round"/><path d="M21.0938 14.8438H16.4062C15.9748 14.8438 15.625 15.1935 15.625 15.625V20.3125C15.625 20.744 15.9748 21.0938 16.4062 21.0938H21.0938C21.5252 21.0938 21.875 20.744 21.875 20.3125V15.625C21.875 15.1935 21.5252 14.8438 21.0938 14.8438Z" stroke="#373D46" stroke-width="1.3" stroke-linecap="round" stroke-linejoin="round"/><path d="M7.03125 12.5H11.7188" stroke="#373D46" stroke-width="1.3" stroke-linecap="round" stroke-linejoin="round"/><path d="M15.625 17.9688H14.0625C13.4409 17.9687 12.8448 17.7218 12.4052 17.2823C11.9657 16.8427 11.7188 16.2466 11.7188 15.625V9.375C11.7188 8.7534 11.9657 8.15726 12.4052 7.71772C12.8448 7.27818 13.4409 7.03125 14.0625 7.03125H15.625" stroke="#373D46" stroke-width="1.3" stroke-linecap="round" stroke-linejoin="round"/></g><defs><clipPath id="clip0_33_487"><rect width="25" height="25" fill="white"/></clipPath></defs></svg>