<svg width="25" height="25" viewBox="0 0 25 25" fill="none" xmlns="http://www.w3.org/2000/svg"><g clip-path="url(#clip0_33_498)"><path d="M8.20312 15.625C11.0077 15.625 13.2812 13.3514 13.2812 10.5469C13.2812 7.7423 11.0077 5.46875 8.20312 5.46875C5.39855 5.46875 3.125 7.7423 3.125 10.5469C3.125 13.3514 5.39855 15.625 8.20312 15.625Z" fill="#E6E6E6"/><path d="M0.999023 19.5313C1.77938 18.3314 2.84707 17.3455 4.10514 16.663C5.36322 15.9804 6.77184 15.623 8.20312 15.623C9.63441 15.623 11.043 15.9804 12.3011 16.663C13.5592 17.3455 14.6269 18.3314 15.4072 19.5313" stroke="#373D46" stroke-width="1.3" stroke-linecap="round" stroke-linejoin="round"/><path d="M16.7969 15.625C18.2281 15.6242 19.6368 15.9811 20.895 16.6633C22.1531 17.3455 23.2208 18.3314 24.001 19.5313" stroke="#373D46" stroke-width="1.3" stroke-linecap="round" stroke-linejoin="round"/><path d="M8.20312 15.625C11.0077 15.625 13.2812 13.3514 13.2812 10.5469C13.2812 7.7423 11.0077 5.46875 8.20312 5.46875C5.39855 5.46875 3.125 7.7423 3.125 10.5469C3.125 13.3514 5.39855 15.625 8.20312 15.625Z" stroke="#373D46" stroke-width="1.3" stroke-linecap="round" stroke-linejoin="round"/><path d="M14.9111 5.83008C15.6058 5.55302 16.353 5.43282 17.0995 5.47805C17.846 5.52328 18.5733 5.73283 19.2294 6.09173C19.8855 6.45063 20.4543 6.95002 20.895 7.55421C21.3357 8.1584 21.6376 8.85248 21.779 9.58685C21.9203 10.3212 21.8978 11.0778 21.7129 11.8024C21.528 12.527 21.1853 13.2019 20.7093 13.7787C20.2334 14.3556 19.6359 14.8202 18.9595 15.1393C18.2832 15.4585 17.5447 15.6243 16.7969 15.625" stroke="#373D46" stroke-width="1.3" stroke-linecap="round" stroke-linejoin="round"/></g><defs><clipPath id="clip0_33_498"><rect width="25" height="25" fill="white"/></clipPath></defs></svg>