<svg width="391" height="721" viewBox="0 0 391 721" fill="none" xmlns="http://www.w3.org/2000/svg"><path fill-rule="evenodd" clip-rule="evenodd" d="M201.394 71.1981C238.024 52.4461 273.081 -20.6773 307.382 5.65575C343.224 33.1715 321.341 119.533 335.624 174.246C344.589 208.586 375.011 230.042 375.534 266.716C376.087 305.547 335.894 330.156 338.397 368.828C341.792 421.275 391.568 452.92 390.995 505.588C390.502 550.917 356.797 580.384 335.728 614.098C311.264 653.245 292.967 724.637 256.469 720.856C214.074 716.464 196.421 637.098 164.711 596.382C146.643 573.182 127.043 554.344 108.862 531.328C92.0002 509.98 76.8696 487.477 60.8244 464.864C40.3227 435.97 -4.84085 419.087 0.423532 378.5C6.72377 329.926 80.2772 342.078 83.1371 292.837C87.201 222.865 1.8126 175.264 16.1261 108.136C26.8439 57.8714 88.1963 106.549 124.398 99.331C150.917 94.0437 176.171 84.1107 201.394 71.1981Z" fill="#D4D7F9"/></svg>