<svg width="83" height="25" viewBox="0 0 83 25" fill="none" xmlns="http://www.w3.org/2000/svg"><path d="M12.2281 0H70.3475C73.5906 0 76.7008 1.28986 78.994 3.58583C81.2873 5.88181 82.5756 8.99581 82.5756 12.2428C82.5756 15.4898 81.2873 18.6038 78.994 20.8998C76.7008 23.1957 73.5906 24.4856 70.3475 24.4856H12.2281C8.985 24.4856 5.87474 23.1957 3.58152 20.8998C1.28831 18.6038 0 15.4898 0 12.2428C0 8.99581 1.28831 5.88181 3.58152 3.58583C5.87474 1.28986 8.985 0 12.2281 0V0Z" fill="#010101"/><path d="M12.2281 0.864198C9.60582 0.865493 7.06463 1.77439 5.03508 3.43689C3.00554 5.09938 1.61246 7.41324 1.09187 9.98641C0.571288 12.5596 0.955217 15.2338 2.17861 17.556C3.402 19.8782 5.38962 21.7055 7.80469 22.7284C9.20413 23.321 10.7086 23.6247 12.2281 23.6214H70.3475C72.9697 23.6201 75.5109 22.7112 77.5405 21.0487C79.57 19.3862 80.9631 17.0724 81.4837 14.4992C82.0043 11.926 81.6203 9.25179 80.397 6.9296C79.1736 4.60741 77.186 2.78007 74.7709 1.7572C73.3714 1.16463 71.8669 0.860895 70.3475 0.864198H12.2281ZM12.2281 0H70.3475C73.5906 0 76.7008 1.28986 78.994 3.58583C81.2873 5.88181 82.5756 8.99581 82.5756 12.2428C82.5756 15.4898 81.2873 18.6038 78.994 20.8998C76.7008 23.1957 73.5906 24.4856 70.3475 24.4856H12.2281C8.985 24.4856 5.87474 23.1957 3.58152 20.8998C1.28831 18.6038 0 15.4898 0 12.2428C0 8.99581 1.28831 5.88181 3.58152 3.58583C5.87474 1.28986 8.985 0 12.2281 0V0Z" fill="#0D0D0D"/><path d="M12.2262 5.04102H39.8473C41.755 5.04102 43.5846 5.79976 44.9335 7.15033C46.2825 8.5009 47.0403 10.3327 47.0403 12.2427C47.0403 14.1527 46.2825 15.9844 44.9335 17.335C43.5846 18.6856 41.755 19.4443 39.8473 19.4443H12.2262C10.3185 19.4443 8.48893 18.6856 7.13998 17.335C5.79103 15.9844 5.0332 14.1527 5.0332 12.2427C5.0332 10.3327 5.79103 8.5009 7.13998 7.15033C8.48893 5.79976 10.3185 5.04102 12.2262 5.04102V5.04102Z" fill="#030303"/><path d="M70.059 5.61768C71.3678 5.61768 72.6472 6.00626 73.7355 6.73428C74.8237 7.4623 75.6719 8.49706 76.1728 9.70772C76.6737 10.9184 76.8047 12.2505 76.5494 13.5358C76.294 14.821 75.6638 16.0015 74.7383 16.9281C73.8128 17.8547 72.6337 18.4858 71.35 18.7414C70.0663 18.9971 68.7357 18.8658 67.5265 18.3644C66.3173 17.8629 65.2838 17.0137 64.5567 15.9241C63.8295 14.8346 63.4414 13.5536 63.4414 12.2432C63.4414 10.486 64.1386 8.80077 65.3796 7.55825C66.6207 6.31572 68.3039 5.61768 70.059 5.61768V5.61768Z" fill="#0F0C0F"/><path d="M70.0581 8.78613C70.741 8.78613 71.4085 8.98887 71.9763 9.36871C72.5441 9.74854 72.9866 10.2884 73.2479 10.9201C73.5092 11.5517 73.5776 12.2468 73.4444 12.9173C73.3112 13.5879 72.9823 14.2038 72.4995 14.6872C72.0166 15.1707 71.4014 15.4999 70.7317 15.6333C70.0619 15.7667 69.3677 15.6982 68.7368 15.4366C68.106 15.1749 67.5667 14.7319 67.1873 14.1634C66.808 13.5949 66.6055 12.9266 66.6055 12.2429C66.6055 11.3261 66.9692 10.4469 67.6167 9.7986C68.2642 9.15033 69.1424 8.78613 70.0581 8.78613V8.78613Z" fill="url(#paint0_radial_1_1009)"/><defs><radialGradient id="paint0_radial_1_1009" cx="0" cy="0" r="1" gradientUnits="userSpaceOnUse" gradientTransform="translate(70.0581 12.2429) scale(3.45264 3.45679)"><stop stop-color="#48235C"/><stop offset="0.537" stop-color="#0B112F"/><stop offset="1"/></radialGradient></defs></svg>