<svg width="228" height="228" viewBox="0 0 228 228" fill="none" xmlns="http://www.w3.org/2000/svg"><g filter="url(#filter0_iii_2004_255)"><path d="M143.232 164.961C171.404 148.696 181.201 112.828 165.341 84.5351L164.961 83.8679C148.568 55.4745 112.261 45.7461 83.868 62.1391L83.2057 62.5271C55.5437 78.9686 46.0243 114.495 61.7596 142.565L62.1392 143.232C78.404 171.404 114.272 181.201 142.565 165.341L143.232 164.961ZM170.316 211.871C116.015 243.222 46.5799 224.617 15.2292 170.316C-16.1215 116.015 2.48355 46.5798 56.7845 15.2291C111.086 -16.1216 180.52 2.48346 211.871 56.7845C243.222 111.085 224.617 180.52 170.316 211.871Z" fill="black"/></g><defs><filter id="filter0_iii_2004_255" x="-33.3333" y="-30" width="260.434" height="275.434" filterUnits="userSpaceOnUse" color-interpolation-filters="sRGB"><feFlood flood-opacity="0" result="BackgroundImageFix"/><feBlend mode="normal" in="SourceGraphic" in2="BackgroundImageFix" result="shape"/><feColorMatrix in="SourceAlpha" type="matrix" values="0 0 0 0 0 0 0 0 0 0 0 0 0 0 0 0 0 0 127 0" result="hardAlpha"/><feOffset dy="18.3333"/><feGaussianBlur stdDeviation="16.6667"/><feComposite in2="hardAlpha" operator="arithmetic" k2="-1" k3="1"/><feColorMatrix type="matrix" values="0 0 0 0 1 0 0 0 0 0.592157 0 0 0 0 0.788235 0 0 0 1 0"/><feBlend mode="normal" in2="shape" result="effect1_innerShadow_2004_255"/><feColorMatrix in="SourceAlpha" type="matrix" values="0 0 0 0 0 0 0 0 0 0 0 0 0 0 0 0 0 0 127 0" result="hardAlpha"/><feOffset/><feGaussianBlur stdDeviation="12.5"/><feComposite in2="hardAlpha" operator="arithmetic" k2="-1" k3="1"/><feColorMatrix type="matrix" values="0 0 0 0 1 0 0 0 0 1 0 0 0 0 1 0 0 0 0.9 0"/><feBlend mode="normal" in2="effect1_innerShadow_2004_255" result="effect2_innerShadow_2004_255"/><feColorMatrix in="SourceAlpha" type="matrix" values="0 0 0 0 0 0 0 0 0 0 0 0 0 0 0 0 0 0 127 0" result="hardAlpha"/><feOffset dx="-33.3333" dy="-30"/><feGaussianBlur stdDeviation="18.3333"/><feComposite in2="hardAlpha" operator="arithmetic" k2="-1" k3="1"/><feColorMatrix type="matrix" values="0 0 0 0 0.145098 0 0 0 0 0 0 0 0 0 0.560784 0 0 0 0.9 0"/><feBlend mode="normal" in2="effect2_innerShadow_2004_255" result="effect3_innerShadow_2004_255"/></filter></defs></svg>