<svg width="149" height="50" viewBox="0 0 149 50" fill="none" xmlns="http://www.w3.org/2000/svg"><path d="M72.0366 39.3424C70.6808 39.8305 69.2643 40.0746 67.7872 40.0746C66.3302 40.0746 65.0554 39.7492 64.0639 39.1593C61.9594 37.8983 60.7048 35.6204 60.7048 33.017C60.7048 30.9424 61.4333 29.1322 62.8093 27.8102C64.0841 26.5695 65.8041 25.939 67.9086 25.939C69.3048 25.939 70.6808 26.2034 72.0366 26.6916V30.0882H70.5392L70.1547 27.9119L69.8714 27.5661C69.325 27.3627 68.7989 27.261 68.2728 27.261C65.5006 27.261 63.6794 29.3966 63.6794 32.9966C63.6794 36.6373 65.5208 38.7932 68.5359 38.7932C68.8799 38.7932 69.2846 38.7322 69.7702 38.6102L70.0738 38.3051L70.5796 35.8441H72.0366V39.3424Z" fill="#156C5F"/><path d="M82.0435 37.3085V38.8136C80.6878 39.6068 79.2713 40.0136 77.8548 40.0136C74.8398 40.0136 72.8567 37.9797 72.8567 34.9085C72.8567 31.7966 74.941 29.661 77.8548 29.661C80.5057 29.661 82.0638 31.3288 82.0638 34.2577V34.6441H75.4468V34.7051C75.4468 37.0441 76.7014 38.4271 78.7047 38.4271C79.7772 38.4271 80.8699 38.061 82.0435 37.3085ZM79.413 33.5661V33.3424C79.413 31.6543 78.7654 30.7797 77.6525 30.7797C76.4384 30.7797 75.6087 31.7966 75.548 33.5661H79.413Z" fill="#156C5F"/><path d="M82.4971 39.8305V38.9153L83.5696 38.8339L83.8528 38.5288V31.5119H82.3959V30.6983L85.3705 29.7424H86.3418L86.2608 31.817C86.9893 31.0238 87.7987 30.3322 88.6284 29.7424C88.77 29.7221 88.9319 29.7017 89.0735 29.7017C89.5187 29.7017 89.9639 29.8238 90.4091 30.0475L90.146 32.8543H89.0938C88.7902 32.3458 88.3653 32.1221 87.7785 32.1221C87.4547 32.1221 86.9691 32.3051 86.3418 32.6916V38.5288L86.6453 38.8339L88.082 38.9153V39.8305H82.4971Z" fill="#156C5F"/><path d="M99.5533 37.3085V38.8136C98.1976 39.6068 96.7811 40.0136 95.3646 40.0136C92.3496 40.0136 90.3665 37.9797 90.3665 34.9085C90.3665 31.7966 92.4508 29.661 95.3646 29.661C98.0155 29.661 99.5736 31.3288 99.5736 34.2577V34.6441H92.9567V34.7051C92.9567 37.0441 94.2112 38.4271 96.2145 38.4271C97.287 38.4271 98.3797 38.061 99.5533 37.3085ZM96.9228 33.5661V33.3424C96.9228 31.6543 96.2752 30.7797 95.1623 30.7797C93.9482 30.7797 93.1185 31.7966 93.0578 33.5661H96.9228Z" fill="#156C5F"/><path d="M109.558 31.0848C111.177 30.1492 112.391 29.7017 113.14 29.7017C115.021 29.7017 115.952 30.8204 115.952 33.078V38.5288L116.215 38.8339L117.288 38.9153V39.8305H112.31V38.9153L113.18 38.8339L113.463 38.5288V33.6678C113.463 32.1424 112.937 31.4712 111.602 31.4712C111.096 31.4712 110.529 31.6136 109.861 31.8577V38.5288L110.145 38.8339L111.055 38.9356V39.8305H106.28V38.9153L107.109 38.8339L107.393 38.4882V33.5458C107.393 32.1221 106.867 31.4509 105.572 31.4509C105.086 31.4509 104.519 31.5729 103.872 31.817V38.5288L104.155 38.8339L105.005 38.9153V39.8305H100.047V38.9153L101.079 38.8339L101.363 38.5288V31.5119H100.047V30.6983L102.901 29.7424H103.872V30.9424C105.248 30.1288 106.3 29.661 107.19 29.661C108.202 29.661 109.012 30.1492 109.558 31.0848Z" fill="#156C5F"/><path d="M122.089 29.6814C125.185 29.6814 127.168 31.6949 127.168 34.9288C127.168 37.939 125.124 39.9932 121.927 39.9932C118.892 39.9932 116.848 37.9593 116.848 34.8882C116.848 31.756 118.912 29.6814 122.089 29.6814ZM122.008 30.7593C120.571 30.7593 119.661 32.1831 119.661 34.8068C119.661 37.4712 120.571 38.9153 121.988 38.9153C123.485 38.9153 124.375 37.5119 124.375 34.8678C124.375 32.2034 123.445 30.7593 122.008 30.7593Z" fill="#156C5F"/><path d="M127.339 39.8305V38.9153L128.371 38.8339L128.654 38.5288V31.5119H127.278V30.6983L130.192 29.7424H131.163V30.9424C132.6 30.1492 133.733 29.7017 134.624 29.7017C136.485 29.7017 137.376 30.8204 137.376 33.078V38.5288L137.639 38.8339L138.711 38.9153V39.8305H133.753V38.9153L134.624 38.8339L134.907 38.5288V33.6678C134.907 32.1627 134.36 31.4712 133.086 31.4712C132.58 31.4712 131.932 31.5932 131.163 31.817V38.5288L131.447 38.8339L132.337 38.9153V39.8305H127.339Z" fill="#156C5F"/><path d="M138.073 29.9458H143.213V30.8204L142.181 30.9424L141.978 31.2271L144.164 36.9831L146.369 31.2475L146.187 30.9424L145.115 30.8204V29.9458H149V30.8204L147.907 31.0034L144.002 40.5424C143.01 42.9424 141.574 44.2848 140.238 44.2848C139.247 44.2848 138.498 43.5526 138.498 42.7797C138.498 42.1899 138.882 41.6814 139.55 41.3356L141.311 42.556C141.837 42.1288 142.383 41.2949 142.889 40.0746L139.287 31.0034L138.073 30.8204V29.9458Z" fill="#156C5F"/><path d="M61.2444 22.0339V21.0577L62.4383 20.8949L62.8026 20.5288V9.76952L62.5193 9.48477L61.2242 9.38308V8.38647H65.8783V8.93562L72.0703 18.5966V9.89155L71.7061 9.50511L70.4717 9.3424V8.38647H75.0854V9.3424L73.8915 9.50511L73.5475 9.89155V22.0339H71.2811L64.2797 11.1119V20.5288L64.6035 20.8949L65.8581 21.0577V22.0339H61.2444Z" fill="#156C5F"/><path d="M80.3241 11.8848C83.4201 11.8848 85.4031 13.8983 85.4031 17.1322C85.4031 20.1424 83.3594 22.1966 80.1622 22.1966C77.1269 22.1966 75.0831 20.1627 75.0831 17.0916C75.0831 13.9593 77.1471 11.8848 80.3241 11.8848ZM80.2431 12.9627C78.8064 12.9627 77.8958 14.3865 77.8958 17.0102C77.8958 19.6746 78.8064 21.1187 80.2229 21.1187C81.7203 21.1187 82.6106 19.7153 82.6106 17.0712C82.6106 14.4068 81.6798 12.9627 80.2431 12.9627Z" fill="#156C5F"/><path d="M85.7906 22.0339V21.1187L86.8631 21.0373L87.1463 20.7322V13.7153H85.6894V12.9017L88.664 11.9458H89.6353L89.5543 14.0204C90.2828 13.2271 91.0922 12.5356 91.9219 11.9458C92.0635 11.9255 92.2254 11.9051 92.367 11.9051C92.8122 11.9051 93.2574 12.0271 93.7026 12.2509L93.4395 15.0577H92.3873C92.0837 14.5492 91.6588 14.3255 91.072 14.3255C90.7482 14.3255 90.2626 14.5085 89.6353 14.8949V20.7322L89.9388 21.0373L91.3755 21.1187V22.0339H85.7906Z" fill="#156C5F"/><path d="M100.783 8.77291H99.3057V7.95935L102.321 7.00342H103.252V20.7322L103.535 21.0577L104.567 21.139V22.0339H100.783V20.8949C99.6294 21.7492 98.6177 22.217 97.5857 22.217C95.3193 22.217 93.66 20.2441 93.66 17.3153C93.66 14.0407 95.805 11.8644 98.8807 11.8644C99.4271 11.8644 100.054 11.9255 100.783 12.0678V8.77291ZM100.783 20.1017V13.3085C100.196 13.1051 99.7104 13.0034 99.2854 13.0034C97.5654 13.0034 96.3716 14.4678 96.3716 16.8882C96.3716 19.1661 97.4036 20.4882 99.0831 20.4882C99.5687 20.4882 100.135 20.3458 100.783 20.1017Z" fill="#156C5F"/><path d="M35.1892 0.0495504C37.1599 -0.403468 39.7307 2.36568 40.9018 3.63602C44.2548 -1.07114 53.0689 0.668507 53.5022 6.99848C53.5579 7.81181 53.5162 8.65242 53.516 9.46893C53.5152 12.0565 53.7376 14.2789 51.7247 16.2526C51.4165 16.5549 51.0731 16.8304 50.7947 17.1617L50.7624 17.2007C51.4732 17.8128 53.7687 19.8607 54.2003 20.49C55.4512 22.3137 54.526 23.6258 53.5147 24.9986C54.2292 25.6933 54.7182 26.5145 54.7216 27.5427C54.7287 29.675 52.2346 31.1972 50.7624 32.6959C53.322 35.0659 53.6123 36.0507 53.5975 39.6598C53.5935 40.6377 53.6243 41.6235 53.5884 42.6005C53.3546 48.9466 45.1009 51.0057 40.9018 46.4158C38.6083 48.2518 36.7952 51.2477 33.3404 49.4417C31.8254 48.6498 29.0812 45.6013 27.4749 44.314C26.2644 45.2466 24.7285 46.7968 23.5974 47.8591C22.15 49.2183 21.4536 49.9606 19.3102 49.9181C17.3902 49.8094 15.5101 47.7383 14.076 46.4158C10.8725 49.45 6.39025 50.1858 3.11626 46.8441C1.39497 45.0873 1.32688 43.6644 1.31376 41.34L1.31111 38.2458C1.31202 35.2285 2.34497 34.5196 4.14276 32.6959C3.65947 32.2811 3.20152 31.8177 2.72495 31.391C0.587708 29.4779 -1.46891 27.4834 1.43699 24.9986C0.619473 24.469 0.0214543 23.2068 0.0667363 22.2525C0.137313 20.7656 1.29305 19.8739 2.29921 18.9696L4.26248 17.2007C1.35614 14.3387 1.31737 13.5843 1.31171 9.75393C1.30995 8.55742 1.21211 7.28156 1.45884 6.10628C2.46895 1.29453 8.62514 -0.379337 12.366 2.26111C12.964 2.68325 13.4828 3.20556 14.076 3.63602C15.0803 2.48276 17.4933 0.354711 18.8423 0.104903C20.9187 -0.279604 22.1053 0.709488 23.5088 2.02928L26.0666 4.38976C26.5046 4.78784 26.9354 5.24317 27.421 5.57993L27.4749 5.61689L27.505 5.5855C28.2235 4.84172 29.0549 4.18205 29.8186 3.48355L31.4888 1.96118C32.6787 0.864677 33.4642 0.068117 35.1892 0.0495504ZM35.7598 15.8709C35.2065 16.1255 33.2924 18.0233 32.7106 18.5525L27.337 23.5175C26.2766 24.5087 19.5565 31.0152 18.6029 31.5027C18.1275 31.2225 16.651 29.8431 16.2338 29.4059L16.2359 26.1901C16.2362 25.6564 16.2603 25.1122 16.2338 24.5796C15.6632 24.2038 15.1479 23.6137 14.6473 23.1418C13.282 21.8548 11.4808 19.9728 10.0012 18.8713C9.39765 19.3644 8.84942 19.9285 8.25613 20.4359C9.12353 21.1733 9.91635 21.9987 10.7643 22.7587L12.737 24.5406C13.026 24.8022 13.3783 25.0517 13.6149 25.3632L13.6174 27.975C13.6173 28.4495 13.6388 28.9326 13.6149 29.4059C13.5037 29.5132 13.3937 29.6219 13.281 29.7277C12.538 30.5029 11.6452 31.1031 11.0331 32.0035C11.6483 32.7689 12.4723 33.3441 13.1554 34.0432H19.4416C20.1851 33.2368 21.0703 32.5163 21.8801 31.7754L33.0718 21.5251C33.7857 20.8729 35.7045 18.8431 36.5064 18.5276C37.1837 18.8285 39.3426 20.9338 39.9921 21.5412C41.2633 20.3123 42.598 19.083 43.9527 17.9491C43.3927 17.2773 42.4125 16.4374 41.7199 15.8709L37.5796 15.8688C36.9901 15.8681 36.3408 15.7982 35.7598 15.8709ZM52.5578 25.9788C52.1354 26.2655 51.7616 26.6565 51.3854 27.0027L43.257 34.4622C42.9365 34.7509 42.603 35.1017 42.2288 35.3146L37.4801 35.3155C36.6829 35.3165 35.8711 35.355 35.0759 35.3146C34.4164 34.9456 33.9269 34.2774 33.3087 33.8369L24.2535 42.1439C22.875 43.4094 21.1011 45.2406 19.6836 46.3119C18.8637 45.7842 18.1233 45.005 17.4043 44.3438L15.0535 42.19C13.6495 40.8801 11.0036 38.3142 9.28961 37.4655V39.1429V40.155C9.71751 40.6643 10.2598 41.0991 10.7503 41.5456L16.3151 46.624C19.2018 49.2448 19.8041 49.4512 22.8394 46.7113L31.7196 38.5933C32.0757 38.2664 32.4805 37.9672 32.8205 37.6269H43.3057C44.1287 37.0307 44.8686 36.2502 45.6152 35.5587L51.5356 30.1247C52.9012 28.8619 54.352 27.6976 52.5578 25.9788ZM35.0759 1.34016C33.9269 1.46578 33.2672 2.13258 32.4469 2.8742L23.8348 10.7344C21.7299 12.6218 22.4692 12.3461 19.6898 12.3399L14.4299 12.3425C13.5135 12.3416 12.5754 12.2912 11.6624 12.3434C10.5605 12.8413 7.53244 15.986 6.43741 16.9892C5.33897 17.9955 4.23346 18.9904 3.15094 20.0151C1.71476 21.3744 0.632906 22.1788 2.33143 24.079L11.4532 15.6403C12.0005 15.133 12.2719 14.7484 12.9943 14.5436L17.1621 14.5422C20.0782 14.5424 19.3798 14.1851 21.6391 16.1387C22.5332 14.9202 25.5297 12.4867 26.7237 11.4012L32.439 6.18467C33.2291 5.46876 33.9992 4.71212 34.8161 4.02878C35.6979 3.29108 37.0352 5.09535 37.6911 5.68788L42.6204 10.1771C43.446 10.9146 44.8148 11.7973 45.4452 12.4911L45.466 12.5136C45.7806 11.7321 45.9277 11.0482 45.72 10.2145C45.5998 9.73313 41.5605 6.12636 40.8072 5.40937L38.3245 3.02369C37.5347 2.27121 36.3157 1.02495 35.0759 1.34016ZM5.15342 33.6348C2.40018 35.8519 2.7736 37.2613 2.77928 40.4224C2.78096 41.3504 2.67587 42.7652 2.86662 43.6313C3.60438 46.9813 7.35698 48.3664 10.3866 47.3611C11.7812 46.7214 12.0663 46.1852 13.1554 45.5179C12.0168 44.6427 10.994 43.5697 9.93308 42.5976C9.28585 42.0042 8.54868 41.452 7.93712 40.8264V36.1816L5.93775 34.3345C5.70481 34.1204 5.42619 33.7874 5.15342 33.6348ZM49.7689 33.6348C49.2852 33.9136 47.3164 35.7267 47.0424 36.1816C47.0499 39.8923 47.74 40.1144 45.0635 42.54L43.0555 44.3731C42.654 44.7436 42.2277 45.0963 41.8774 45.5179C42.8278 46.4494 43.4637 46.897 44.7008 47.3611C47.6062 48.2235 51.127 46.8587 52.0023 43.7289C52.3011 42.6603 52.1047 41.5266 52.104 40.4354C52.1019 37.5086 52.6051 35.6274 49.7689 33.6348ZM45.878 2.27894C44.2989 2.53475 42.8372 3.2376 41.8774 4.57233L41.9168 4.619C42.3244 5.09696 42.8465 5.50766 43.3098 5.93072L45.6322 8.07947C46.0354 8.45254 46.5785 8.83132 46.847 9.31932C47.4507 10.4172 47.2245 12.2841 46.5095 13.2771C47.186 13.9048 47.9196 14.4987 48.5656 15.1549C48.9812 15.4926 49.4111 15.8637 49.7689 16.2639C51.8545 14.0738 52.1134 14.1681 52.1091 10.7216C52.1064 8.42445 52.4781 5.70255 50.7034 3.95857C49.4152 2.6928 47.6473 2.1345 45.878 2.27894ZM8.06599 2.27894C5.76636 2.53853 3.42823 3.77769 2.87205 6.22496C2.64654 7.21724 2.78321 8.39377 2.78133 9.4119C2.77515 12.7636 2.49429 13.814 5.27389 16.2639C5.72896 15.7497 6.28857 15.3303 6.76693 14.8364C7.2602 14.4023 7.74494 13.944 8.25613 13.5326C7.68588 12.5836 7.70466 11.0472 7.95641 9.99265C8.22233 8.87848 8.95353 8.27953 9.75762 7.55269L11.6664 5.80479C12.1069 5.40796 12.6053 5.0182 12.9943 4.57233C11.7655 3.29995 9.90867 2.09139 8.06599 2.27894ZM44.9669 18.8713C44.1348 19.5211 39.4018 23.6541 38.9034 24.4158L38.9067 27.5442C38.9072 28.2574 39.1159 29.1041 38.579 29.6556C38.26 29.9828 36.8385 31.2946 36.5064 31.5027C35.2618 30.8252 31.6254 27.0193 30.2797 25.8764C29.6941 26.4555 29.0488 26.972 28.471 27.5593C29.483 28.3169 30.3202 29.3185 31.3084 30.1108C32.585 31.564 34.2085 32.6557 35.5439 34.0432H41.7199C42.4243 33.3273 43.1864 32.651 43.9527 32.0035C43.5784 31.6665 43.2101 31.322 42.8326 30.9888C41.0708 29.434 41.3445 29.8128 41.3276 27.6304C41.307 24.9737 40.9948 25.6801 42.838 23.9829C44.1265 22.7968 45.4581 21.6475 46.7219 20.4359C46.4577 20.1895 45.2151 18.9856 44.9669 18.8713ZM2.33143 25.9788C1.62262 26.5809 1.14715 27.9072 1.81225 28.6676C2.4469 29.3931 3.23121 30.0113 3.93862 30.6643L10.3417 36.5481C10.7679 36.934 11.1531 37.3538 11.6624 37.6269C15.0826 37.6907 18.5119 37.6087 21.9334 37.6269C22.932 38.2785 23.7196 39.2552 24.6751 39.9792C25.0487 39.5293 25.5416 39.2098 25.9453 38.795C26.125 38.6384 26.3194 38.486 26.4816 38.3109C25.0091 37.0283 22.9742 35.269 21.6391 33.8369C21.0825 34.3182 20.5415 34.8169 19.9991 35.3146C17.5394 35.2534 14.9708 35.4348 12.5459 35.3146C11.976 34.7412 11.3615 34.2176 10.7641 33.6745L5.0173 28.3595C4.55622 27.9332 2.77852 26.1326 2.33143 25.9788ZM30.2797 9.88759C29.7914 10.43 29.0401 11.1742 28.471 11.6213C29.8931 13.1321 32.0982 14.6404 33.3087 16.1387C33.9332 15.7119 34.5406 14.86 35.2109 14.5994C35.4736 14.4973 41.8185 14.4968 42.163 14.5596C42.5758 14.6346 43.5469 15.6914 43.8872 16.0078L49.6238 21.311C50.156 21.8047 50.7112 22.2712 51.2161 22.7951C51.6626 23.1803 52.0948 23.5993 52.5578 23.9625C53.796 22.61 53.6012 21.6854 52.28 20.4407C50.0481 18.3381 47.7931 16.2356 45.5006 14.2033C44.8638 13.6389 44.0987 12.8345 43.4472 12.3434C42.2888 12.3732 41.1237 12.3434 39.9646 12.3432L33.0286 12.3434C32.1719 11.7968 30.9003 10.1956 30.2797 9.88759ZM45.6413 37.4655C42.9582 39.2859 40.6743 41.4957 38.2904 43.6899L36.5673 45.2662C36.2198 45.5843 35.8814 45.9304 35.4989 46.2044L35.3504 46.3119C33.615 45.0407 32.0944 42.9327 30.2797 41.6947C29.7068 42.2656 29.0901 42.8129 28.471 43.3319C28.6465 43.4796 28.8305 43.623 28.9952 43.7826L31.2849 45.9078C32.7295 47.2671 34.6854 49.6863 36.8614 48.1902C37.5196 47.7378 38.2079 47.0071 38.8043 46.4561L44.2565 41.4314C45.784 40.0516 45.6188 40.2838 45.6561 38.0816C45.6594 37.894 45.7405 37.635 45.6413 37.4655ZM13.281 15.8709C12.6297 16.3862 11.5529 17.3182 11.0331 17.9491C12.2887 19.1478 13.7775 20.254 14.9324 21.5412C15.6397 20.9665 17.7908 18.7328 18.4539 18.5276C19.0815 18.785 22.1874 21.8066 22.9129 22.4711C23.4933 23.0153 24.091 23.539 24.6751 24.079C25.2965 23.6348 25.9891 23.0617 26.4816 22.4711C24.8567 20.876 23.1439 19.3623 21.4698 17.8196C20.7818 17.1856 20.0144 16.6205 19.4416 15.8709C17.4849 15.9307 15.2365 15.9282 13.281 15.8709ZM19.3102 1.34016C17.7507 1.70049 16.7474 3.01142 15.597 4.04816C13.9982 5.48904 12.3885 6.92177 10.8237 8.4007C9.14726 9.98502 9.10476 9.93076 9.28961 12.5136C9.70897 12.2099 10.0514 11.8067 10.4615 11.4918C10.8324 11.207 11.2837 11.0576 11.6512 10.7802C12.7577 9.94428 14.5284 8.22266 15.5379 7.23357L15.5794 7.2015C16.3791 6.57629 17.3835 5.56364 18.1507 4.85375C19.928 3.20942 19.8449 3.77998 21.4719 5.28661L23.5596 7.19015C23.9225 7.52197 24.2804 7.89849 24.6751 8.18955C25.2711 7.64459 25.8579 7.09834 26.4816 6.58548C25.2221 5.48644 24.0027 4.3238 22.7713 3.19152C21.7461 2.2489 20.8511 1.16831 19.3102 1.34016ZM27.4749 12.5136C25.95 13.8805 24.0019 15.5678 22.6229 17.0239C23.0857 17.6193 23.7908 18.1786 24.3491 18.6886L27.4749 21.5412C29.0447 19.9891 30.8508 18.5738 32.3648 17.0239C31.6986 16.4887 27.711 12.6076 27.4749 12.5136ZM27.4749 28.4613C26.0277 29.6439 23.9384 31.5921 22.6229 32.9135C23.1645 33.4384 27.2501 37.3474 27.4749 37.3438C28.4353 36.6157 29.3113 35.7139 30.1999 34.8946L31.7244 33.49C31.9335 33.2981 32.1666 33.1154 32.3648 32.9135C31.8208 32.4286 27.6243 28.5079 27.4749 28.4613ZM36.5064 20.1594C34.8281 21.83 32.9675 23.3039 31.3084 24.9986C32.5904 26.1178 33.8323 27.2984 35.0759 28.4613C35.5583 28.876 36.0005 29.344 36.5064 29.7277C36.8271 29.4337 37.1792 29.1528 37.4552 28.8142L37.4521 25.6765C37.4521 22.6843 37.5957 24.1908 38.9034 22.4711C38.1879 21.6152 37.2871 20.9497 36.5064 20.1594ZM18.4539 20.1594L16.9565 21.5225C16.609 21.8432 16.2714 22.1889 15.8924 22.4711C16.2657 22.8253 17.349 23.7298 17.5648 24.1017C17.8281 24.5554 17.6554 28.0835 17.6556 28.8142C17.9273 29.1693 18.2618 29.4449 18.6029 29.7277C19.0676 29.3092 19.5172 28.8579 19.9991 28.4613C20.8525 27.358 22.6178 26.2241 23.6655 24.9986C22.3789 23.6764 20.9716 22.4636 19.6215 21.2084C19.2465 20.8596 18.7776 20.5536 18.4539 20.1594ZM19.6189 5.42027C19.0871 5.74367 18.6379 6.21279 18.1804 6.63348L14.798 9.74336C14.3406 10.1631 13.888 10.5316 13.4945 11.0198H17.6556H21.5024C22.1816 10.5779 23.0008 9.64454 23.6655 9.08408C22.6817 8.34194 20.2404 5.69076 19.6189 5.42027ZM35.3504 5.42027C34.231 6.2485 32.246 8.06682 31.3084 9.08408C32.1533 9.54486 32.7811 10.4217 33.5358 11.0198C34.8407 11.0463 36.1497 11.0191 37.4552 11.0198H41.4707C41.0312 10.5373 35.6648 5.54448 35.3504 5.42027ZM18.0784 38.9295L15.0402 38.9324C14.5282 38.935 14.003 38.9903 13.4945 38.9295L17.6127 42.725C18.1716 43.2416 18.827 43.7261 19.3102 44.314L19.6189 44.5416C20.8156 43.525 22.6107 41.9679 23.6655 40.8264C23.0251 40.5025 22.031 39.4709 21.5024 38.9295C20.3636 38.9591 19.2182 38.9258 18.0784 38.9295ZM33.5358 38.9295C32.8127 39.2677 31.9526 40.2812 31.3084 40.8264C32.3969 41.7823 34.464 43.4617 35.3504 44.5416C36.0186 43.8967 36.7151 43.1996 37.4552 42.6411C38.1359 41.7736 40.5852 39.6775 41.4707 38.9295L36.3087 38.9305C35.3947 38.931 34.4457 38.9895 33.5358 38.9295ZM7.3254 21.4188C6.1177 22.1266 4.45482 24.0204 3.32512 24.9986C3.99891 25.521 7.09822 28.6567 7.3254 28.5741C8.59647 27.3917 10.0292 26.2016 11.2495 24.9986L8.42835 22.4028C8.10559 22.1067 7.68844 21.639 7.3254 21.4188ZM47.6953 21.4188C46.3221 22.5467 45.0881 23.8389 43.7428 24.9986C45.075 26.1757 46.3413 27.4198 47.6953 28.5741C48.6832 27.5928 50.4625 25.784 51.5971 24.9986C50.6561 23.9604 48.7945 22.3345 47.6953 21.4188ZM42.7429 25.9788C42.7098 26.99 42.6782 28.0768 42.7429 29.0876C43.357 29.6944 44.2458 30.5977 44.9669 31.0365C45.2921 30.8047 45.5597 30.4934 45.878 30.2483C46.1393 29.9875 46.422 29.771 46.7219 29.559C45.7152 28.6886 43.7539 26.588 42.7429 25.9788ZM12.218 25.9788C11.4462 26.4262 8.98357 28.825 8.25613 29.559C8.53809 29.8397 8.82928 30.1059 9.12609 30.3701C9.40294 30.6054 9.67603 30.8725 10.0012 31.0365C10.5795 30.2642 11.5233 29.5924 12.218 28.8949C12.2175 28.6504 12.2827 26.0475 12.2236 25.98L12.218 25.9788Z" fill="#544040"/></svg>