<svg width="51" height="16" viewBox="0 0 51 16" fill="none" xmlns="http://www.w3.org/2000/svg"><path d="M0.18 14.56V10.94H1.7L2.02 13.34L2.28 13.64C2.84 13.82 3.42 13.92 4.04 13.92C5.66 13.92 6.62 13.12 6.62 12.02C6.62 10.94 5.9 10.22 4.48 9.5C3.68 9.1 2.74 8.76 1.86 8.02C0.94 7.24 0.46 6.26 0.46 5.28C0.46 3.06 2.32 1.34 5.18 1.34C6.42 1.34 7.68 1.58 8.94 2.02V5.26H7.5L7.16 3.18L6.88 2.9C6.52 2.72 6.06 2.62 5.42 2.62C3.96 2.62 3.06 3.42 3.06 4.52C3.06 5.44 3.62 6.04 4.68 6.68C5.3 7.06 6.36 7.36 7.54 8.12C8.7 8.86 9.34 9.94 9.34 11.12C9.34 13.5 7.32 15.22 4.04 15.22C2.76 15.22 1.42 15 0.18 14.56ZM15.6239 5.02C18.6839 5.02 20.6439 7 20.6439 10.18C20.6439 13.14 18.6239 15.16 15.4639 15.16C12.4639 15.16 10.4439 13.16 10.4439 10.14C10.4439 7.06 12.4839 5.02 15.6239 5.02ZM15.5439 6.08C14.1239 6.08 13.2239 7.48 13.2239 10.06C13.2239 12.68 14.1239 14.1 15.5239 14.1C17.0039 14.1 17.8839 12.72 17.8839 10.12C17.8839 7.5 16.9639 6.08 15.5439 6.08ZM29.7269 14.1C28.4469 14.8 27.2269 15.16 25.9469 15.16C23.0469 15.16 21.1469 13.14 21.1469 10.24C21.1469 7.2 23.3069 5.06 26.3069 5.06C28.3669 5.06 29.6069 6.02 29.6069 7.24C29.6069 8.02 29.0269 8.6 28.1669 8.6C27.7269 8.6 27.3469 8.48 26.9869 8.22V6.1C26.7869 6.06 26.6269 6.04 26.4869 6.04C25.0869 6.04 23.8669 7.48 23.8669 9.76C23.8669 12.16 25.0869 13.58 26.9469 13.58C27.8069 13.58 28.7469 13.28 29.7269 12.68V14.1ZM32.3986 0.519999C33.2986 0.519999 33.8986 1.16 33.8986 1.98C33.8986 2.88 33.2586 3.5 32.4186 3.5C31.6186 3.5 30.9586 2.9 30.9586 2.02C30.9586 1.16 31.5786 0.519999 32.3986 0.519999ZM32.6186 5.08H33.5786V13.72L33.8786 14.02L34.9986 14.1V15H29.7586V14.1L30.8386 14.02L31.1186 13.72V6.82H29.7986V6.02L32.6186 5.08ZM41.4295 13.86C40.1495 14.72 39.0695 15.18 37.9895 15.18C36.4495 15.18 35.3695 14.1 35.3695 12.58C35.3695 10.28 37.2695 9.7 41.4495 8.76V8.16C41.4495 6.72 40.8695 6.08 39.5495 6.08C39.2495 6.08 38.9495 6.12 38.5895 6.2V8.08H36.7495C36.1495 8.08 35.8295 7.88 35.8295 7.34C35.8295 6.2 37.5495 5.02 40.1895 5.02C42.9895 5.02 43.9295 6 43.9295 8.56V13.74L44.1895 14.02L45.2495 14.12V15H41.6895L41.4295 13.86ZM41.4295 13.04V9.78C39.0695 10.3 38.0095 10.82 38.0095 12.14C38.0095 13.06 38.5695 13.64 39.4895 13.64C40.0095 13.64 40.6495 13.44 41.4295 13.04ZM44.7569 15V14.12L45.9169 14L46.1969 13.72V1.96H44.7569V1.18L47.7769 0.22H48.6569V13.68L48.9569 14L50.1169 14.12V15H44.7569Z" fill="#544040"/></svg>