<svg width="127" height="66" viewBox="0 0 127 66" fill="none" xmlns="http://www.w3.org/2000/svg"><path fill-rule="evenodd" clip-rule="evenodd" d="M2.02078 39.9496C14.1291 23.2904 21.6762 13.2271 30.4637 19.1604C36.002 22.8998 35.9189 24.4565 30.2797 29.4647C26.0069 33.2453 19.5103 41.115 14.506 47.412C5.79193 58.4073 -4.40731 48.833 2.02078 39.9496ZM63.0831 53.0108C62.4001 51.4746 65.144 47.0921 72.9108 37.4999L77.4667 31.8671L70.3075 26.3882C64.4277 21.8806 55.8856 16.2206 47.4037 17.1592C37.5868 18.1643 33.4674 8.50211 42.9188 6.60539C56.181 3.84142 76.2506 11.6943 83.8965 22.6623C84.5829 23.5558 85.2261 23.56 86.2953 22.4542C88.5573 20.2187 97.4632 10.213 101.993 4.77818C108.639 -3.31319 119.051 -0.582262 117.142 8.77259C114.266 23.0643 117.155 44.5805 123.628 57.4444C128.514 67.0863 127.844 67.6013 116.201 63.826C103.942 59.8496 97.4251 58.6747 85.7861 58.5568C71.4554 58.1266 64.6688 56.5542 63.0831 53.0108Z" fill="#F5DF93"/></svg>