<svg width="398" height="398" viewBox="0 0 398 398" fill="none" xmlns="http://www.w3.org/2000/svg"><path d="M277.956 16.3339C306.783 28.794 332.251 47.8996 352.279 72.0887C372.307 96.2778 386.326 124.863 393.189 155.509C400.053 186.154 399.566 217.988 391.769 248.409C383.971 278.83 369.085 306.973 348.327 330.539L333.394 317.385C352.077 296.176 365.474 270.847 372.492 243.468C379.509 216.089 379.947 187.438 373.77 159.858C367.593 132.277 354.976 106.55 336.951 84.7798C318.926 63.0097 296.005 45.8146 270.061 34.6005L277.956 16.3339Z" fill="url(#paint0_linear_37_559)"/><path d="M348.329 330.537C320.551 362.072 283.503 384.004 242.494 393.189C201.486 402.374 158.622 398.341 120.046 381.667C81.4708 364.994 49.164 336.536 27.7561 300.373C6.34817 264.21 -3.0617 222.198 0.875099 180.358L20.6876 182.222C17.1445 219.878 25.6134 257.689 44.8805 290.236C64.1476 322.783 93.2237 348.394 127.942 363.401C162.66 378.407 201.237 382.036 238.145 373.77C275.053 365.503 308.396 345.765 333.396 317.383L348.329 330.537Z" fill="url(#paint1_linear_37_559)"/><path d="M0.873851 180.371C3.81366 149.105 14.1116 118.978 30.9257 92.4541C47.7398 65.9302 70.5926 43.7622 97.6157 27.7627L107.754 44.8864C83.4334 59.286 62.8658 79.2372 47.7331 103.109C32.6004 126.98 23.3323 154.094 20.6865 182.234L0.873851 180.371Z" fill="url(#paint2_linear_37_559)"/><path d="M97.6057 27.7686C133.766 6.35622 175.777 -3.05885 217.618 0.872806L215.756 20.6855C178.1 17.147 140.29 25.6206 107.745 44.8918L97.6057 27.7686Z" fill="url(#paint3_linear_37_559)"/><path d="M217.539 0.865453C238.331 2.81087 258.686 8.01668 277.859 16.2918L269.973 34.5626C252.718 27.115 234.398 22.4298 215.685 20.6789L217.539 0.865453Z" fill="url(#paint4_linear_37_559)"/><g filter="url(#filter0_b_37_559)"><path opacity="0.5" d="M277.956 16.3339C306.783 28.794 332.251 47.8996 352.279 72.0887C372.307 96.2778 386.326 124.863 393.189 155.509C400.053 186.154 399.566 217.988 391.769 248.409C383.971 278.83 369.085 306.973 348.327 330.539L318.462 304.231C335.068 285.379 346.977 262.864 353.215 238.527C359.453 214.19 359.842 188.723 354.351 164.207C348.861 139.691 337.646 116.822 321.623 97.471C305.601 78.1197 285.226 62.8352 262.165 52.8671L277.956 16.3339Z" fill="url(#paint5_linear_37_559)"/><path opacity="0.5" d="M348.329 330.537C320.551 362.072 283.503 384.004 242.494 393.189C201.486 402.374 158.622 398.341 120.046 381.667C81.4708 364.994 49.164 336.536 27.7561 300.373C6.34817 264.21 -3.0617 222.198 0.875099 180.358L40.5001 184.086C37.3506 217.558 44.8785 251.168 62.0049 280.099C79.1312 309.029 104.977 331.795 135.837 345.134C166.697 358.472 200.988 361.699 233.795 354.351C266.602 347.003 296.241 329.458 318.463 304.229L348.329 330.537Z" fill="url(#paint6_linear_37_559)"/><path opacity="0.5" d="M0.873851 180.371C3.81366 149.105 14.1116 118.978 30.9257 92.4541C47.7398 65.9302 70.5926 43.7622 97.6157 27.7627L117.893 62.0101C96.2741 74.8098 77.9918 92.5441 64.5406 113.763C51.0893 134.982 42.8509 159.084 40.4991 184.097L0.873851 180.371Z" fill="url(#paint7_linear_37_559)"/><path opacity="0.5" d="M97.6057 27.7686C133.766 6.35622 175.777 -3.05885 217.618 0.872806L213.894 40.4982C180.422 37.3529 146.813 44.885 117.885 62.0149L97.6057 27.7686Z" fill="url(#paint8_linear_37_559)"/><path opacity="0.5" d="M217.539 0.865453C238.331 2.81087 258.686 8.01668 277.859 16.2918L262.087 52.8334C246.749 46.2133 230.464 42.0487 213.831 40.4924L217.539 0.865453Z" fill="url(#paint9_linear_37_559)"/></g><defs><filter id="filter0_b_37_559" x="-30.0002" y="-30.0002" width="458" height="458" filterUnits="userSpaceOnUse" color-interpolation-filters="sRGB"><feFlood flood-opacity="0" result="BackgroundImageFix"/><feGaussianBlur in="BackgroundImageFix" stdDeviation="15"/><feComposite in2="SourceAlpha" operator="in" result="effect1_backgroundBlur_37_559"/><feBlend mode="normal" in="SourceGraphic" in2="effect1_backgroundBlur_37_559" result="shape"/></filter><linearGradient id="paint0_linear_37_559" x1="168.77" y1="50.5828" x2="277.936" y2="327.116" gradientUnits="userSpaceOnUse"><stop stop-color="#FD4755"/><stop offset="1" stop-color="#A72B2B"/></linearGradient><linearGradient id="paint1_linear_37_559" x1="145.078" y1="96.4555" x2="299.09" y2="334.041" gradientUnits="userSpaceOnUse"><stop stop-color="#00F2A6"/><stop offset="0.245" stop-color="#00EDA3"/><stop offset="0.499" stop-color="#01E19A"/><stop offset="0.757" stop-color="#04CC8C"/><stop offset="1" stop-color="#07B27B"/></linearGradient><linearGradient id="paint2_linear_37_559" x1="102.286" y1="38.606" x2="-0.00071263" y2="183.08" gradientUnits="userSpaceOnUse"><stop stop-color="#FFC738"/><stop offset="0.429" stop-color="#FFBB23"/><stop offset="1" stop-color="#FFA700"/></linearGradient><linearGradient id="paint3_linear_37_559" x1="97.908" y1="27.064" x2="220.89" y2="7.164" gradientUnits="userSpaceOnUse"><stop stop-color="#5F5891"/><stop offset="1" stop-color="#3B395F"/></linearGradient><linearGradient id="paint4_linear_37_559" x1="216.91" y1="3.184" x2="278.998" y2="46.566" gradientUnits="userSpaceOnUse"><stop stop-color="#D8D2EC"/><stop offset="0.16" stop-color="#D1C9E2"/><stop offset="0.345" stop-color="#C4B9D1"/><stop offset="0.57" stop-color="#B2A4BA"/><stop offset="0.75" stop-color="#9A889C"/><stop offset="0.971" stop-color="#7E6678"/></linearGradient><linearGradient id="paint5_linear_37_559" x1="168.77" y1="50.5828" x2="277.936" y2="327.116" gradientUnits="userSpaceOnUse"><stop stop-color="#FD4755"/><stop offset="1" stop-color="#A72B2B"/></linearGradient><linearGradient id="paint6_linear_37_559" x1="145.078" y1="96.4555" x2="299.09" y2="334.041" gradientUnits="userSpaceOnUse"><stop stop-color="#00F2A6"/><stop offset="0.245" stop-color="#00EDA3"/><stop offset="0.499" stop-color="#01E19A"/><stop offset="0.757" stop-color="#04CC8C"/><stop offset="1" stop-color="#07B27B"/></linearGradient><linearGradient id="paint7_linear_37_559" x1="102.286" y1="38.606" x2="-0.00071263" y2="183.08" gradientUnits="userSpaceOnUse"><stop stop-color="#FFC738"/><stop offset="0.429" stop-color="#FFBB23"/><stop offset="1" stop-color="#FFA700"/></linearGradient><linearGradient id="paint8_linear_37_559" x1="97.908" y1="27.064" x2="220.89" y2="7.164" gradientUnits="userSpaceOnUse"><stop stop-color="#5F5891"/><stop offset="1" stop-color="#3B395F"/></linearGradient><linearGradient id="paint9_linear_37_559" x1="216.91" y1="3.184" x2="278.998" y2="46.566" gradientUnits="userSpaceOnUse"><stop stop-color="#D8D2EC"/><stop offset="0.16" stop-color="#D1C9E2"/><stop offset="0.345" stop-color="#C4B9D1"/><stop offset="0.57" stop-color="#B2A4BA"/><stop offset="0.75" stop-color="#9A889C"/><stop offset="0.971" stop-color="#7E6678"/></linearGradient></defs></svg>