<svg width="400" height="409" viewBox="0 0 400 409" fill="none" xmlns="http://www.w3.org/2000/svg"><path d="M213.348 101.724C204.731 89.3401 207.156 84.7772 220.79 87.3506C230.909 89.2047 249.301 105.294 252.455 114.934C255.345 123.583 264.833 116.779 264.289 106.411C263.489 89.5823 238.554 67.7315 221.989 69.5223C195.408 72.2692 184.109 108.221 205.123 123.107C214.236 129.562 220.844 112.508 213.348 101.724Z" fill="#F5DF93"/><path d="M244.046 229.091C260.548 230.798 266.012 218.084 251.114 212.522C234.518 206.401 225.981 191.176 236.778 187.071C245.99 183.614 254.018 185.919 269.533 196.748C278.454 204.838 290.408 207.51 286.459 197.628C273.071 164.476 242.192 158.06 223.389 184.832C210.433 203.349 221.401 226.736 244.046 229.091Z" fill="#F5DF93"/><path d="M145.272 326.254C145.183 322.97 143.177 321.71 127.952 314.79C112.116 307.597 110.426 297.706 123.297 288.629C135.01 280.503 130.705 272.945 118.469 280.217C106.675 287.32 96.6364 309.675 100.876 319.601C108.814 337.944 145.736 343.328 145.272 326.254Z" fill="#F5DF93"/><path d="M323.199 195.315C335.461 210.281 350.35 198.126 339.321 182.102C332.53 172.14 331.815 161.328 337.435 153.394C345.182 142.458 365.119 155.453 369.211 174.452C374 195.878 387.313 175.039 387.505 169.539C388.43 152.322 376.265 135.172 361.255 132.268C333.16 126.697 305.164 173.041 323.199 195.315Z" fill="#F5DF93"/><path d="M117.274 147.341C116.791 145.067 114.513 140.555 112.27 137.357C99.092 118.683 112.284 105.969 133.861 116.423C140.946 119.832 146.727 113.944 142.488 107.882C122.506 79.7196 78.8015 116.869 95.0084 148.315C103.38 164.228 120.682 163.442 117.274 147.341Z" fill="#F5DF93"/><path d="M258.277 329.016C258.076 328.391 254.769 326.692 250.869 325.379C220.586 314.715 216.449 299.87 240.43 288.519C250.629 283.668 251.719 277.355 242.28 277.27C220.117 277.19 201.43 314.027 215.484 330.1C228.479 344.941 264.629 344.142 258.277 329.016Z" fill="#F5DF93"/><path d="M159.881 235.165C159.748 232.172 158.506 230.97 149.178 224.363C129.772 210.617 131.005 201.83 152.833 198.292C166.311 196.085 169.973 191.595 162.682 186.43C144.456 173.52 113.023 208.574 124.057 229.593C133.304 246.77 160.6 250.971 159.881 235.165Z" fill="#F5DF93"/></svg>