<svg width="389" height="410" viewBox="0 0 389 410" fill="none" xmlns="http://www.w3.org/2000/svg"><path fill-rule="evenodd" clip-rule="evenodd" d="M84.0023 44.5015C90.137 58.3686 110.229 91.9627 115.091 94.9589C126.646 102.385 126.8 91.0867 115.515 69.4918C105.622 50.7124 101.223 41.4183 98.5585 36.6967C92.8223 26.0951 79.7485 34.9807 84.0023 44.5015ZM155.003 6.25457C149.477 13.4594 152.716 111.136 158.866 121.491C160.588 124.391 165.595 122.678 167.659 118.37C169.723 114.063 170.401 96.5699 169.313 71.8604C168.197 44.5067 167.313 15.8941 167.506 9.61555C167.757 -0.339579 161.423 -2.0411 155.003 6.25457ZM28.1339 103.039C27.0694 105.492 27.7491 105.929 39.6761 113.274C84.8723 140.783 88.8406 144.87 98.6038 137.251C105.963 131.479 105.655 130.961 83.0764 117.475C57.0992 101.805 43.9102 94.9294 40.7903 95.1013C37.1753 95.1471 29.428 100.029 28.1339 103.039ZM204.035 7.67223C199.505 13.7248 190.1 70.301 192.868 74.9609C198.034 83.6596 206.456 61.9879 216.376 14.7711C219.29 0.572802 212.409 -3.46522 204.035 7.67223ZM3.71532 154.384C-4.6012 161.844 19.5271 170.628 30.5043 164.109C39.3065 158.881 37.157 154.554 24.3632 151.646C16.6669 149.773 9.64691 149.04 3.71532 154.384ZM262.246 21.0083C258.292 27.5592 254.876 38.5534 247.036 54.8366C237.737 74.0878 228.306 95.2387 225.96 102.375C221.878 114.606 229.923 112.349 236.323 99.3025C238.491 94.9331 245.221 81.9706 251.365 70.6166C265.925 43.4777 280.081 14.4781 279.466 13.4425C277.17 9.34235 266.491 14.0042 262.246 21.0083ZM124.954 111.094C124.197 114.065 130.351 123.719 133.487 124.517C144.711 127.377 146.259 109.227 135.122 105.336C132.627 104.436 125.627 108.453 124.954 111.094ZM45.9037 170.932C44.464 174.169 46.3606 175.003 73.2818 182.829C104.948 192.038 107.323 192.028 113.436 183.215C116.222 179.179 115.315 178.596 101.434 174.093C65.9973 162.78 49.7862 161.902 45.9037 170.932ZM0.552987 228.546C-1.55646 233.721 1.6868 233.756 30.833 229.053C60.0827 224.288 76.9635 223.228 102.036 224.166C116.224 224.705 133.495 214.867 124.174 211.438C103.344 204.198 4.89804 217.7 0.552987 228.546ZM300.416 76.7853C255.328 131.301 252.166 136.121 258.439 137.719C261.41 138.476 264.021 136.504 273.735 125.972C337.334 57.1001 339.276 57.0675 325.793 55.8297C318.835 55.1995 316.845 56.8018 300.416 76.7853ZM208.702 137C204.891 148.509 205.458 151.114 211.124 149.57C222.5 146.316 228.216 124.57 228.174 124.735C228.384 123.91 228.368 122.939 227.833 122.275C227.403 121.551 226.558 121.072 225.733 120.861C218.137 119.629 212.681 124.831 208.702 137ZM164.201 180.241L166.947 189.817C172.542 208.907 169.327 230.148 160.111 235.622C153.38 239.62 160.801 242.917 169.099 239.67C180.066 235.257 199.059 246.951 209.314 263.274C216.267 274.273 227.781 267.715 225.158 258.346C218.43 234.045 218.108 222.889 224.689 206.373C228.762 196.249 228.251 195.152 219.412 194.658C205.204 193.851 200.67 191.641 184.085 177.397C165.422 161.304 162.229 173.147 164.201 180.241ZM21.2884 275.486C20.4474 278.787 22.1076 281.584 26.9885 284.849C33.0022 288.841 37.4687 287.87 70.2902 274.26C81.0927 269.805 94.7074 264.661 100.52 262.89C112.517 259.267 113.141 258.195 108.48 251.998C104.065 246.215 100.372 245.187 92.5141 247.052C80.9542 249.995 78.1613 250.954 55.171 260.125C43.0449 264.946 31.0644 269.54 28.3751 270.437C21.9415 272.577 22.1489 272.454 21.2884 275.486ZM191.538 201.267C195.454 203.144 200.325 204.033 206.047 203.997C215.384 203.915 216.436 204.27 213.944 207.151C211.453 210.032 207.6 221.706 206.866 228.726L206.239 234.982L200.571 232.044C194.966 229.209 184.852 227.512 180.075 228.668C177.842 229.153 177.845 228.451 180.107 221.645C184.484 208.259 179.543 195.223 183.54 197.472C184.654 197.931 188.24 199.724 191.538 201.267ZM252.806 177.766C249.399 182.171 261.248 188.442 268.241 185.829C280.241 181.504 327.547 153.128 326.317 151.057C324.533 148.054 315.209 145.327 310.536 146.421C303.691 148.105 255.673 174.102 252.806 177.766ZM326.558 138.726C327.747 145.445 339.605 145.126 356.245 137.764C373.093 130.28 374.487 127.91 364.011 124.187C355.266 121.256 325.531 132.752 326.558 138.726ZM126.427 266.414C124.199 275.162 138.093 281.339 146.795 275.47C152.824 271.469 152.471 267.336 145.677 262.266C140.016 257.923 128.003 260.575 126.427 266.414ZM87.6045 296.336C76.4047 306.49 60.3767 320.072 51.1539 326.95C38.7177 336.438 35.1485 340.099 36.5631 342.48C39.0232 346.623 50.6546 346.158 56.2724 341.701C58.3661 340.037 65.725 334.266 72.689 329.009C100.817 307.26 118.475 289.348 114.19 286.85C107.866 283.042 98.4936 286.367 87.6045 296.336ZM294.724 208.484C284.16 224.424 308.488 225.525 320.622 209.633C324.424 204.713 316.404 201.351 310.142 202.129C299.808 203.363 297.552 204.283 294.724 208.484ZM264.814 236.194C259.976 241.729 261.456 247.995 268 248.871C270.457 249.233 284.202 251.856 298.607 254.647C358.106 266.378 374.376 268.062 377.951 262.996C383.627 254.862 373.707 251.368 311.334 240.224C277.465 234.144 267.306 233.314 264.814 236.194ZM173.204 300.83C168.69 307.854 146.197 404.423 148.226 407.841C152.163 414.468 165.035 404.301 167.381 392.682C169.176 383.912 175.179 357.932 183.87 322.092C191.553 290.212 186.496 280.048 173.204 300.83ZM340.053 206.497C337.6 209.915 338.047 216.093 340.876 216.375C378.561 219.208 393.865 215.021 387.099 203.63C383.183 197.271 345.062 199.6 340.053 206.497ZM116.982 355.234C106.123 372.33 105.955 372.99 111.531 373.181C122.147 373.6 149.13 335.3 138.848 334.263C132.592 333.636 127.696 338.365 116.982 355.234ZM233.813 286.126C231.202 292.579 239.159 309.987 250.984 303.244C255.602 300.641 256.19 293.848 251.247 285.997C246.12 277.836 237.051 277.899 233.813 286.126ZM207.531 319.946C205.488 333.487 205.386 374.593 207.416 378.01C212.828 387.123 218.297 355.998 217.257 320.754C216.97 306.355 209.64 305.806 207.531 319.946ZM281.551 276.404C280.381 284.104 346.205 308.607 350.654 302.183C354.563 296.499 350.958 294.438 319.318 284.092C286.276 273.038 282.169 272.255 281.551 276.404ZM256.78 323.616C253.945 329.222 286.081 390.405 292.46 391.239C306.435 393.305 304.138 380.24 284.845 347.992C267.563 318.893 261.801 313.91 256.78 323.616Z" fill="#F5DF93"/></svg>