<svg width="193" height="191" viewBox="0 0 193 191" fill="none" xmlns="http://www.w3.org/2000/svg"><path fill-rule="evenodd" clip-rule="evenodd" d="M93.1026 45.8722C92.0746 46.9952 91.0183 48.149 89.9158 49.3411C89.7702 49.4985 89.61 49.6742 89.4355 49.8655C87.2616 52.2497 82.8618 57.0748 76.6165 59.584C71.1402 61.7842 65.4232 61.4554 60.4936 58.8561C56.2029 56.5938 53.4557 53.1173 51.8133 50.6044C49.1717 46.5626 47.1811 41.2759 46.3075 38.9557C46.1569 38.5557 46.0395 38.2439 45.9577 38.0418C42.8864 30.457 38.4975 29.2822 36.2603 29.3576C33.7101 29.4435 29.7289 31.2406 27.624 37.3785C25.7119 42.9542 25.3162 49.9351 27.7058 57.172C27.7058 57.172 31.1319 65.8667 30.3983 70.8999C29.6647 75.933 11.1867 82.8974 8.25616 77.362C5.87625 72.8668 2.96979 65.3393 2.96979 65.3393C-1.27272 52.491 -0.700787 39.6709 2.98304 28.9288C8.16942 13.8052 20.7789 3.81563 35.383 3.32356C52.7535 2.73828 65.2203 15.5177 71.0617 30.7317C71.1192 30.8815 71.1762 31.0296 71.2329 31.1761C71.9899 30.355 72.7668 29.5061 73.561 28.6381C80.5159 21.0383 87.8152 12.7667 96.308 6.84397C101.543 3.19318 109.105 -0.647525 118.253 0.0923072C122.481 0.434321 126.55 1.82808 130.015 4.52266C133.405 7.15783 135.46 10.4456 136.711 13.4123C138.976 18.7856 139.199 24.7194 139.315 27.8272L139.318 27.8894C139.422 30.6758 139.465 33.5338 139.41 36.4332C148.007 33.7494 160.681 31.4032 172.504 37.3144C185.075 43.5999 190.983 58.0451 187.808 70.8999C185.365 80.7903 178.754 86.7541 174.1 90.5939C171.842 92.4572 169.817 94.0486 167.953 95.5132C164.896 97.915 162.272 99.9762 159.767 102.338C160.223 102.489 160.672 102.641 161.09 102.79C168.048 105.262 174.856 108.915 180.837 114.023C185.793 118.257 190.371 124.021 192.193 131.327C194.126 139.077 192.544 146.941 187.917 153.918C178.912 167.496 158.952 191 139.41 191C135.51 191 124.399 183.655 128.56 174.372C130.641 169.731 138.641 166.125 138.641 166.125C139.488 165.431 140.327 164.747 141.156 164.071C151.448 155.676 160.26 148.489 166.208 139.521C166.776 138.664 166.901 138.163 166.931 138.008C166.956 137.875 166.956 137.786 166.917 137.631C166.813 137.212 166.24 135.814 163.918 133.83C160.698 131.08 156.782 128.903 152.369 127.336C151.476 127.018 150.761 126.796 149.852 126.513C149.231 126.319 148.518 126.097 147.596 125.797C145.69 125.178 143.262 124.33 140.773 123.075C138.584 121.972 134.665 119.763 131.989 115.548C128.777 110.489 128.742 104.921 130.241 100.197C132.237 93.9049 136.119 89.2327 139.169 86.077C143.551 81.5427 148.909 77.3261 153.316 73.8579C154.863 72.6409 156.292 71.5161 157.521 70.5021C161.439 67.2691 162.214 65.8851 162.518 64.6538C162.684 63.9805 162.636 63.0801 162.246 62.1997C161.865 61.3397 161.317 60.8448 160.854 60.6132C153.54 56.9564 144.494 62.7857 137.414 64.9452C135.346 65.5761 132.087 66.4298 128.642 66.38C125.517 66.3349 117.513 65.2694 113.974 57.0384C111.827 52.0432 120.269 27.8894 113.195 26.9775C109.084 26.4476 96.1822 42.5081 93.1026 45.8722Z" fill="#F5DF93"/></svg>