<svg width="346" height="351" viewBox="0 0 346 351" fill="none" xmlns="http://www.w3.org/2000/svg"><path d="M108.965 131.353C109.185 126.412 116.62 115.497 128.714 116.764C134.103 117.413 142.147 119.099 154.826 121.999C169.819 125.396 183.482 128.165 185.128 128.238C188.203 128.389 194.787 98.847 196.596 76.5404C200.049 34.3439 224.917 62.6411 225.029 62.7484L266.717 102.628C302.693 63.0009 303.054 59.4829 310.615 88.8212L317.448 115.105C322.247 133.646 303.876 160.925 294.767 126.027C287.825 99.8563 288.214 102.59 286.792 97.7952C285.306 100.022 278.829 109.708 273.849 117.606C263.046 134.957 255.537 127.774 249.272 122.21C243.118 116.752 234.148 107.956 213.416 88.1235C200.169 153.572 203.886 157.986 152.491 145.305C134.736 140.982 134.404 140.879 135.48 144.914C152.453 207.938 152.351 208.269 111.98 222.875C99.2475 227.434 88.8104 231.614 88.8152 231.834C88.9322 232.16 97.0692 238.013 107.092 244.811C136.38 264.673 136.034 263.913 118.521 280.425C111.967 286.603 105.398 292.124 103.99 292.923C102.362 293.726 111.192 296.163 126.067 299.234C167.561 315.535 140.713 326.55 121.983 322.797C70.1974 312.318 54.5756 315.187 96.0968 283.226C102.997 277.808 106.003 274.889 105.112 274.251C104.439 273.607 93.8712 266.931 81.7486 259.412C61.8397 247.02 31.8395 234.632 99.7599 210.97C114.237 205.932 126.399 200.398 126.399 200.398C126.399 200.398 108.696 139.037 108.965 131.353Z" fill="#F5DF93"/><path d="M176.24 212.237C171.807 200.269 166.744 189.633 177.231 182.709C183.068 178.851 192.606 178.53 206.824 181.615C227.323 185.987 225.582 186.682 231.274 171.31C241.006 145.208 249.68 140.628 262.84 155.363C287.917 183.217 264.77 202.926 252.415 184.882C244.712 173.865 246.243 173.61 240.283 186.795C231.389 206.188 225.44 209.939 208.683 206.142C196.667 203.447 197.311 202.775 200.906 216.516C205.806 234.725 200.373 237.04 185.004 246.375L189.804 250.107C202.642 260.243 187.581 268.584 165.747 263.364C145.896 258.539 148.84 247.834 173.462 235.333C178.778 232.692 182.891 230.188 182.881 229.749C182.54 229.208 179.626 221.485 176.24 212.237Z" fill="#F5DF93"/></svg>