<svg width="35" height="26" viewBox="0 0 35 26" fill="none" xmlns="http://www.w3.org/2000/svg"><path d="M5.2455 0C5.24458 0 5.24354 0 5.24261 0C4.91828 0 4.61323 0.123346 4.38289 0.347509C4.15001 0.574151 4.02173 0.875926 4.02173 1.19719V19.1488C4.02173 19.8071 4.57282 20.344 5.25035 20.3457C8.10662 20.3523 12.892 20.9331 16.1933 24.3036V5.51667C16.1933 5.29352 16.1349 5.08389 16.0246 4.91041C13.3151 0.65334 8.10824 0.0065334 5.2455 0Z" fill="#CFF649"/><path d="M30.2696 19.1489V1.19719C30.2696 0.875926 30.1413 0.574151 29.9084 0.347509C29.6781 0.123346 29.3728 0 29.0488 0C29.0478 0 29.0467 0 29.0458 0C26.1832 0.00664605 20.9764 0.653453 18.2667 4.91053C18.1565 5.084 18.0981 5.29363 18.0981 5.51678V24.3036C21.3994 20.9331 26.1848 20.3523 29.0411 20.3457C29.7185 20.344 30.2696 19.8071 30.2696 19.1489Z" fill="#CFF649"/><path d="M33.0643 4.13965H32.1745V19.1486C32.1745 20.8293 30.7709 22.1999 29.0454 22.2041C26.6227 22.2097 22.628 22.6719 19.7988 25.2842C24.6918 24.1154 29.8499 24.8752 32.7896 25.5288C33.1566 25.6103 33.5359 25.5261 33.83 25.2974C34.123 25.0693 34.2911 24.7283 34.2911 24.3623V5.33661C34.2913 4.67663 33.7407 4.13965 33.0643 4.13965Z" fill="#CFF649"/><path d="M2.11663 19.1486V4.13965H1.22689C0.550518 4.13965 0 4.67663 0 5.33661V24.362C0 24.7281 0.168111 25.0689 0.461151 25.2971C0.754999 25.5256 1.13394 25.6102 1.50157 25.5284C4.44121 24.8747 9.59942 24.1151 14.4922 25.2839C11.6632 22.6716 7.66845 22.2096 5.24574 22.2039C3.5204 22.1999 2.11663 20.8293 2.11663 19.1486Z" fill="#CFF649"/></svg>