<svg width="31" height="38" viewBox="0 0 31 38" fill="none" xmlns="http://www.w3.org/2000/svg"><path d="M23.7491 16.6244C20.1482 16.6244 17.2181 19.5544 17.2181 23.1554C17.2181 26.7563 20.1482 29.6864 23.7491 29.6864C27.3501 29.6864 30.2801 26.7563 30.2801 23.1554C30.2801 19.5544 27.3501 16.6244 23.7491 16.6244ZM26.5181 22.1075C24.6196 24.9556 25.158 24.1482 24.1432 25.6698C23.7787 26.2165 23.0408 26.3615 22.4964 25.9986L20.7152 24.8111C20.1697 24.4475 20.0227 23.7105 20.3864 23.1643C20.75 22.6188 21.487 22.4719 22.0332 22.8355L22.8259 23.3639C24.7197 20.5236 24.6179 20.6022 24.9366 20.4205C26.0181 19.7949 27.2132 21.0635 26.5181 22.1075ZM18.4056 30.2757V36.8111C18.4056 37.7209 19.391 38.2943 20.1823 37.842L23.7491 35.804L27.3159 37.842C28.104 38.2937 29.0927 37.7235 29.0927 36.8111V30.2757C25.929 32.6559 21.5738 32.6593 18.4056 30.2757ZM26.124 14.5716V2.57901C26.124 1.15703 24.967 0 23.545 0H2.57901C1.15703 0 0 1.15703 0 2.57901V30.076C0 31.498 1.15703 32.655 2.57901 32.655H16.0307C16.0307 27.545 16.0227 27.8614 16.0492 27.6262C12.0741 20.8111 18.4039 12.4276 26.124 14.5716ZM7.12474 5.93728H17.2181C17.8742 5.93728 18.4056 6.46867 18.4056 7.12474C18.4056 7.7808 17.8742 8.31219 17.2181 8.31219H7.12474C6.46867 8.31219 5.93728 7.7808 5.93728 7.12474C5.93728 6.46867 6.46867 5.93728 7.12474 5.93728ZM13.062 17.8118H7.12474C6.46867 17.8118 5.93728 17.2805 5.93728 16.6244C5.93728 15.9683 6.46867 15.4369 7.12474 15.4369H13.062C13.7181 15.4369 14.2495 15.9683 14.2495 16.6244C14.2495 17.2805 13.7181 17.8118 13.062 17.8118ZM7.12474 13.062C6.46867 13.062 5.93728 12.5306 5.93728 11.8746C5.93728 11.2185 6.46867 10.6871 7.12474 10.6871H17.2181C17.8742 10.6871 18.4056 11.2185 18.4056 11.8746C18.4056 12.5306 17.8742 13.062 17.2181 13.062H7.12474Z" fill="#CFF649"/></svg>