<svg width="32" height="31" viewBox="0 0 32 31" fill="none" xmlns="http://www.w3.org/2000/svg"><path d="M11.6548 11.8626C12.6525 14.1238 15.6859 15.2427 17.9741 14.15C21.033 12.9447 21.7306 8.59426 19.2514 6.54697C15.4696 3.13192 9.50472 7.27955 11.6548 11.8626Z" fill="black"/><path d="M21.2065 16.4748C20.248 15.8847 19.0808 15.5672 17.8968 15.5561C17.7561 15.5523 13.7516 15.5442 13.7549 15.5748C10.4746 15.7217 7.81216 18.4061 7.81296 21.6499C7.86862 22.187 7.72257 23.8189 7.90012 24.3217C8.24839 25.7655 9.5936 26.853 11.2 26.853H20.8001C22.6844 26.8607 24.2056 25.3365 24.1872 23.5717V21.6498C24.1781 19.4812 23.0073 17.5443 21.2065 16.4748Z" fill="black"/><path d="M4.24188 24.3217H6.42901C6.30413 23.8315 6.38165 22.0403 6.36126 21.5092C6.4334 18.2116 8.70013 15.3898 11.8871 14.4592C11.6001 14.2387 11.3481 13.9443 11.1129 13.6811C10.8903 13.653 10.6871 13.6436 10.4645 13.6436H6.93225C3.66132 13.6436 1 16.2217 1 19.3904V21.1811C1 22.9155 2.4516 24.3217 4.24188 24.3217Z" fill="black"/><path d="M8.70322 12.9408C9.3129 12.9408 9.88382 12.8283 10.4161 12.6127C9.97361 11.7507 9.72177 10.7402 9.77738 9.72526C9.8281 8.06797 10.6208 6.48274 11.8871 5.41277C9.16812 2.68952 4.069 4.70524 4.15488 8.54418C4.15482 10.9627 6.19675 12.9408 8.70322 12.9408Z" fill="black"/><path d="M25.0678 13.6436H21.5355C20.8403 13.5 20.5813 14.091 20.1129 14.4594C21.4097 14.8343 22.5613 15.528 23.4709 16.4561C24.7774 17.7687 25.6 19.5499 25.6387 21.5093C25.619 22.0469 25.6942 23.8142 25.571 24.3217C25.571 24.3218 27.7581 24.3218 27.7581 24.3218C29.5484 24.3218 31 22.9155 31 21.1812V19.3905C31 16.2218 28.3387 13.6436 25.0678 13.6436Z" fill="black"/><path d="M21.8355 7.84075C22.0971 8.49192 22.2238 9.21311 22.2322 9.94073C22.2322 10.8969 22 11.8063 21.5839 12.6125C22.1162 12.8282 22.6871 12.9406 23.2968 12.9406C29.3077 12.7512 29.3056 4.32956 23.2966 4.14697C22.058 4.14697 20.9355 4.63442 20.1129 5.41261C20.8774 6.05946 21.4774 6.89387 21.8355 7.84075Z" fill="black"/></svg>