<svg width="34" height="34" viewBox="0 0 34 34" fill="none" xmlns="http://www.w3.org/2000/svg"><path d="M26.0977 17C26.0977 18.7887 24.6426 20.2437 22.854 20.2437H19.6102V13.7563H22.854C24.6426 13.7563 26.0977 15.2113 26.0977 17ZM34 5.87695V28.123C34 31.3636 31.3636 34 28.123 34H5.87695C2.63639 34 0 31.3636 0 28.123V5.87695C0 2.63639 2.63639 0 5.87695 0H28.123C31.3636 0 34 2.63639 34 5.87695ZM16.1165 12.893C16.1165 12.4162 15.73 12.0297 15.2532 12.0297C14.7764 12.0297 14.3899 12.4162 14.3899 12.893V16.1367H7.90248V12.893C7.90248 12.4162 7.51599 12.0297 7.0392 12.0297C6.5624 12.0297 6.17591 12.4162 6.17591 12.893V21.107C6.17591 21.5838 6.5624 21.9702 7.0392 21.9702C7.51599 21.9702 7.90248 21.5838 7.90248 21.107V17.8633H14.3899V21.107C14.3899 21.5838 14.7764 21.9703 15.2532 21.9703C15.73 21.9703 16.1165 21.5838 16.1165 21.107V12.893ZM27.8242 17C27.8242 14.2593 25.5946 12.0297 22.854 12.0297H18.747C18.2702 12.0297 17.8837 12.4162 17.8837 12.893V21.107C17.8837 21.5838 18.2702 21.9702 18.747 21.9702H22.854C25.5946 21.9703 27.8242 19.7407 27.8242 17Z" fill="#CFF649"/></svg>