<svg width="29" height="29" viewBox="0 0 29 29" fill="none" xmlns="http://www.w3.org/2000/svg"><path d="M7.54586 16.147H4.11806C3.97391 16.147 3.85706 16.2638 3.85706 16.408V22.8547C3.85706 22.9988 3.97391 23.1157 4.11806 23.1157H7.54586C7.69 23.1157 7.80686 22.9988 7.80686 22.8547V16.408C7.80686 16.2638 7.69 16.147 7.54586 16.147Z" fill="black"/><path d="M13.3255 13.3486H9.89772C9.75357 13.3486 9.63672 13.4655 9.63672 13.6096V22.8548C9.63672 22.999 9.75357 23.1158 9.89772 23.1158H13.3255C13.4697 23.1158 13.5865 22.999 13.5865 22.8548V13.6096C13.5865 13.4655 13.4697 13.3486 13.3255 13.3486Z" fill="black"/><path d="M19.1023 9.61621H15.6745C15.5303 9.61621 15.4135 9.73307 15.4135 9.87721V22.8518C15.4135 22.996 15.5303 23.1128 15.6745 23.1128H19.1023C19.2464 23.1128 19.3633 22.996 19.3633 22.8518V9.87721C19.3633 9.73307 19.2464 9.61621 19.1023 9.61621Z" fill="black"/><path d="M24.882 5.88721H21.4542C21.3101 5.88721 21.1932 6.00406 21.1932 6.14821V22.8551C21.1932 22.9993 21.3101 23.1161 21.4542 23.1161H24.882C25.0262 23.1161 25.143 22.9993 25.143 22.8551V6.14821C25.143 6.00406 25.0262 5.88721 24.882 5.88721Z" fill="black"/></svg>