<svg width="10" height="10" viewBox="0 0 10 10" fill="none" xmlns="http://www.w3.org/2000/svg"><path d="M6.875 3.165L4.45501 5.63L3.215 4.385L2.55 5.05002L4.505 7.00002L7.64502 3.95501L6.875 3.165Z" fill="#6966AE"/><path d="M5 0C2.23859 0 0 2.23859 0 5C0 7.76141 2.23859 10 5 10C7.76141 10 10 7.76141 10 5C10 2.23859 7.76143 0 5 0ZM5 9.09501C2.73839 9.09501 0.904994 7.26161 0.904994 5C0.904994 2.73839 2.73839 0.904994 5 0.904994C7.26046 0.907736 9.09224 2.73952 9.09501 5C9.09501 7.26163 7.26163 9.09501 5 9.09501Z" fill="#6966AE"/></svg>