<svg width="48" height="48" viewBox="0 0 48 48" fill="none" xmlns="http://www.w3.org/2000/svg"><path d="M4.91437 34.4798C4.8642 34.6609 4.86289 34.852 4.91056 35.0338C4.95823 35.2155 5.05319 35.3814 5.1858 35.5146C5.32002 35.6482 5.48699 35.7442 5.67 35.793C5.85301 35.8419 6.04565 35.8418 6.22865 35.7929L11.8001 34.2871C15.2163 36.384 19.284 37.1551 23.2316 36.4542C27.1791 35.7533 30.7318 33.6291 33.2158 30.4846C35.6997 27.3401 36.9421 23.394 36.7072 19.3951C36.4723 15.3961 34.7764 11.6223 31.9413 8.78977C29.1063 5.95719 25.3292 4.26283 21.3267 4.02811C17.3242 3.7934 13.3747 5.03466 10.2274 7.51642C7.08015 9.99818 4.95408 13.5478 4.25254 17.4919C3.55101 21.4359 4.3228 25.5001 6.42151 28.9133L4.91437 34.4798ZM11.9715 18.0872C11.9723 17.8035 12.0855 17.5317 12.2862 17.3311C12.487 17.1306 12.759 17.0175 13.0429 17.0167H16.9929V13.0702C16.9937 12.7865 17.1069 12.5147 17.3076 12.3141C17.5084 12.1135 17.7804 12.0005 18.0643 11.9997H22.6358C22.9197 12.0005 23.1917 12.1136 23.3924 12.3141C23.5932 12.5147 23.7063 12.7865 23.7072 13.0702V17.0167H27.65C27.7908 17.0165 27.9302 17.044 28.0603 17.0978C28.1903 17.1515 28.3085 17.2303 28.4081 17.3298C28.5076 17.4292 28.5865 17.5473 28.6403 17.6773C28.6941 17.8072 28.7216 17.9465 28.7215 18.0872V22.6545C28.7216 22.7952 28.6941 22.9345 28.6403 23.0644C28.5865 23.1944 28.5076 23.3125 28.4081 23.4119C28.3085 23.5114 28.1903 23.5902 28.0603 23.6439C27.9302 23.6977 27.7908 23.7252 27.65 23.725H23.7072V27.6644C23.7074 27.805 23.6798 27.9443 23.626 28.0743C23.5722 28.2043 23.4933 28.3223 23.3938 28.4218C23.2943 28.5212 23.1761 28.6001 23.046 28.6538C22.9159 28.7075 22.7765 28.7351 22.6358 28.7349H18.0643C17.9236 28.7351 17.7842 28.7075 17.6541 28.6538C17.524 28.6001 17.4058 28.5212 17.3063 28.4218C17.2068 28.3223 17.1279 28.2043 17.0741 28.0743C17.0203 27.9443 16.9927 27.805 16.9929 27.6644V23.725H13.0429C12.759 23.7242 12.487 23.6111 12.2862 23.4106C12.0855 23.21 11.9723 22.9382 11.9715 22.6545V18.0872Z" fill="#6966AE"/><path d="M38.1143 21.1202C38.08 21.9299 37.9869 22.7361 37.8357 23.5323C37.1905 27.0905 35.4735 30.3671 32.9143 32.924C30.3551 35.481 27.0756 37.1965 23.5143 37.8411C22.7174 37.9921 21.9105 38.0852 21.1 38.1195C22.2136 39.9113 23.7647 41.3909 25.6076 42.4196C27.4505 43.4482 29.5248 43.992 31.6357 44C33.8784 44.0034 36.0792 43.3938 38 42.2373L42.0071 43.322C42.189 43.3703 42.3805 43.3701 42.5622 43.3212C42.744 43.2724 42.9097 43.1767 43.0428 43.0437C43.1759 42.9107 43.2717 42.7451 43.3206 42.5635C43.3695 42.3819 43.3698 42.1906 43.3214 42.0089L42.2357 38.0053C43.3933 36.0862 44.0034 33.8873 44 31.6466C43.992 29.5375 43.4477 27.465 42.4182 25.6237C41.3886 23.7825 39.9077 22.2328 38.1143 21.1202Z" fill="#6966AE"/><path d="M19.1358 22.6545V26.5939H21.5643V22.6545C21.5641 22.5139 21.5917 22.3746 21.6455 22.2447C21.6993 22.1147 21.7782 21.9966 21.8777 21.8972C21.9773 21.7977 22.0954 21.7189 22.2255 21.6652C22.3556 21.6114 22.495 21.5839 22.6358 21.5841H26.5786V19.1576H22.6358C22.3518 19.1568 22.0798 19.0438 21.8791 18.8432C21.6783 18.6426 21.5652 18.3708 21.5643 18.0872V14.1406H19.1358V18.0872C19.1337 18.3704 19.0202 18.6415 18.8197 18.8418C18.6192 19.0422 18.3479 19.1556 18.0643 19.1576H14.1143V21.5841H18.0643C18.3482 21.5849 18.6203 21.6979 18.821 21.8985C19.0218 22.0991 19.1349 22.3709 19.1358 22.6545Z" fill="#6966AE"/></svg>