<svg width="48" height="48" viewBox="0 0 48 48" fill="none" xmlns="http://www.w3.org/2000/svg"><path d="M15.1304 5.1354C15.1304 10.0307 19.1093 14.0134 24 14.0134C28.8907 14.0134 32.8696 10.0307 32.8696 5.1354V4C28.8645 4.26392 27.4058 5.83064 24 5.83064C20.5952 5.83064 19.1367 4.26422 15.1304 4V5.1354Z" fill="#6966AE"/><path d="M35.2134 4.03177V5.1354C35.2134 11.3244 30.1832 16.3593 24 16.3593C17.8168 16.3593 12.7866 11.3241 12.7866 5.1354V4.03146C7.84583 4.61337 4 8.83058 4 13.9306C4 17.3838 4.52704 20.8056 5.56647 24.1013L10.9525 41.1739C11.486 42.8643 13.0344 44 14.8057 44C16.2607 44 17.5974 43.2058 18.2941 41.9274L21.7225 35.6352C22.1778 34.8004 23.0506 34.2817 24 34.2817C24.9494 34.2817 25.8222 34.8004 26.2772 35.6346L29.7062 41.9277C30.4035 43.2058 31.7402 44 33.1943 44C34.9656 44 36.514 42.8643 37.0475 41.1736L42.4335 24.1013C43.473 20.8056 44 17.3838 44 13.9306C44 8.83089 40.1548 4.61398 35.2134 4.03177Z" fill="#6966AE"/></svg>