<svg width="104" height="104" viewBox="0 0 104 104" fill="none" xmlns="http://www.w3.org/2000/svg"><path d="M27.2543 44.0912L20.8998 42.7107C19.7667 42.4653 18.6183 42.68 17.6536 43.2936C16.6889 43.9224 16.0152 44.8888 15.7702 46.0085L14.729 50.8555C14.3921 52.4507 14.9893 54.0152 16.1377 55.0122C14.729 55.6411 13.6878 57.0062 13.5653 58.6474L13.2284 63.6018C13.1518 64.7522 13.5193 65.8566 14.2696 66.7309C14.4227 66.8996 14.5912 67.053 14.7596 67.191C13.6878 67.9733 12.9681 69.2464 12.9681 70.6729V75.6426C12.9681 76.9003 13.5193 78.02 14.3768 78.8023C13.5193 79.5999 12.9834 80.7196 12.9834 81.9774V85.3672C12.9834 88.619 15.6171 91.2572 18.8633 91.2572H23.7785C26.1519 91.2572 28.0812 89.3246 28.0812 86.9471V81.9774C28.0812 80.7196 27.53 79.5999 26.6725 78.8176C27.53 78.0354 28.0812 76.9157 28.0812 75.6579V70.6882C28.0812 69.4918 27.5912 68.4028 26.795 67.6205C27.6371 66.8996 28.2037 65.8566 28.2956 64.6602L28.6324 59.7058C28.709 58.6168 28.3721 57.5584 27.6831 56.7148C28.5712 56.1166 29.2449 55.1963 29.4899 54.0612L30.5311 49.2142C31.0518 46.8828 29.5818 44.582 27.2543 44.0912ZM15.8621 58.8162C15.9386 57.7578 16.8268 56.9449 17.868 56.9449H18.0058L24.4982 57.3897C25.0341 57.4204 25.5241 57.6658 25.8762 58.0799C26.2284 58.4941 26.3969 59.0002 26.3662 59.5371L26.0294 64.4914C25.9528 65.5958 25.0188 66.4088 23.8857 66.3627L17.3933 65.9179C16.8574 65.8872 16.3674 65.6418 16.0152 65.2277C15.663 64.8289 15.4946 64.3074 15.5252 63.7705L15.8621 58.8162ZM25.7997 81.9774V86.9471C25.7997 88.0515 24.8963 88.9564 23.7938 88.9564H18.8633C16.888 88.9564 15.2802 87.3459 15.2802 85.3672V81.9774C15.2802 80.873 16.1836 79.968 17.2861 79.968H23.7938C24.8963 79.968 25.7997 80.873 25.7997 81.9774ZM17.2861 77.6673C16.1836 77.6673 15.2802 76.7623 15.2802 75.6579V70.6882C15.2802 69.5838 16.1836 68.6789 17.2861 68.6789H23.7938C24.8963 68.6789 25.7997 69.5838 25.7997 70.6882V75.6579C25.7997 76.7623 24.8963 77.6673 23.7938 77.6673H17.2861ZM28.3109 48.7234L27.2697 53.5704C27.04 54.6594 25.9528 55.3497 24.881 55.1042L18.5264 53.7238C17.4392 53.4937 16.7502 52.42 16.9799 51.331L18.0211 46.484C18.1283 45.9625 18.4498 45.5023 18.8939 45.2109C19.2155 44.9961 19.5983 44.8888 19.9811 44.8888C20.1189 44.8888 20.272 44.9041 20.4098 44.9348L26.7644 46.3153C27.8515 46.5607 28.5406 47.6344 28.3109 48.7234Z" fill="#6966AE"/><path d="M95.2251 67.2064C95.3935 67.0683 95.562 66.9149 95.7151 66.7462C96.4654 65.8719 96.8482 64.7675 96.7563 63.6171L96.4194 58.6628C96.3122 57.0216 95.2557 55.6564 93.847 55.0275C94.9954 54.0305 95.5926 52.466 95.2557 50.8708L94.1992 46.0085C93.6939 43.6924 91.4123 42.2045 89.0849 42.6954L82.7303 44.0758C80.4029 44.582 78.9329 46.8828 79.4229 49.1989L80.4641 54.0459C80.7091 55.1809 81.3829 56.1012 82.271 56.6995C81.6126 57.5124 81.2451 58.5708 81.3216 59.6905L81.6585 64.6448C81.7351 65.7952 82.2557 66.8382 83.1285 67.6052L83.1438 67.6205C82.3629 68.4028 81.8729 69.4765 81.8729 70.6729V75.6426C81.8729 76.9003 82.4241 78.02 83.2816 78.8023C82.4241 79.5846 81.8729 80.7043 81.8729 81.9621V86.9317C81.8729 89.3092 83.8022 91.2419 86.1756 91.2419H91.0908C94.337 91.2419 96.9707 88.6036 96.9707 85.3519V81.9621C96.9707 80.7043 96.4194 79.5846 95.562 78.8023C96.4194 78.02 96.9707 76.9003 96.9707 75.6426V70.6729C97.0166 69.2464 96.2969 67.9886 95.2251 67.2064ZM94.4595 63.7705C94.4901 64.3074 94.3217 64.8289 93.9695 65.2277C93.6173 65.6265 93.1273 65.8719 92.5914 65.9179L86.099 66.3627C85.5631 66.3934 85.0425 66.2247 84.6444 65.8719C84.2463 65.5191 84.0013 65.0283 83.9553 64.4914L83.6185 59.5371C83.5419 58.4327 84.3841 57.4664 85.4865 57.3897L91.9789 56.9449C93.0661 56.8528 94.046 57.7118 94.1226 58.8162L94.4595 63.7705ZM83.2203 46.3306L89.5749 44.9501C90.0955 44.8274 90.6314 44.9348 91.0908 45.2262C91.5348 45.5176 91.8564 45.9625 91.9636 46.4993L93.0048 51.3463C93.112 51.8678 93.0201 52.4047 92.7292 52.8648C92.4383 53.3096 91.9942 53.6317 91.4583 53.7391L85.1037 55.1196C84.5831 55.2423 84.0472 55.1349 83.5878 54.8435C83.1438 54.5521 82.8222 54.1072 82.715 53.5704L81.6738 48.7234C81.4441 47.6344 82.1332 46.5607 83.2203 46.3306ZM94.7198 81.9774V85.3672C94.7198 87.3459 93.112 88.9564 91.1367 88.9564H86.2215C85.119 88.9564 84.2156 88.0515 84.2156 86.9471V81.9774C84.2156 80.873 85.119 79.968 86.2215 79.968H92.7292C93.8164 79.968 94.7198 80.873 94.7198 81.9774ZM86.2062 77.6673C85.1037 77.6673 84.2003 76.7623 84.2003 75.6579V70.6882C84.2003 69.5838 85.1037 68.6789 86.2062 68.6789H92.7139C93.8164 68.6789 94.7198 69.5838 94.7198 70.6882V75.6579C94.7198 76.7623 93.8164 77.6673 92.7139 77.6673H86.2062Z" fill="#6966AE"/><path d="M101.855 54.276C100.921 48.9995 99.6809 43.9838 98.0885 39.2902C97.1085 37.1888 95.4548 36.0998 93.3264 35.6856C95.0566 31.805 95.9754 26.099 95.9754 23.7062C95.9754 19.6262 93.0508 16.2977 89.4677 16.2977C88.3193 16.2977 86.9106 16.6352 85.7009 17.2027C85.0578 17.5095 83.4041 18.7826 82.9141 19.2887C81.6279 20.5618 79.5454 20.5618 78.2745 19.3041C77.1567 18.169 76.6361 16.0983 77.5701 14.7945C77.6314 14.7178 77.708 14.6258 77.7692 14.5491C78.1367 14.0429 78.0448 13.3527 77.5548 12.9692C77.0802 12.5858 76.3758 12.6471 75.9777 13.1073C75.9164 13.184 75.8399 13.2607 75.7786 13.3527C74.7986 14.4571 72.7009 14.7025 71.2309 13.8589C69.8069 13.0153 68.8728 11.236 69.2097 9.96289C69.3475 9.4107 69.0719 8.82783 68.536 8.61309C68.0153 8.36768 67.3876 8.58242 67.0966 9.07325C66.4382 10.2083 64.5395 10.8065 62.993 10.4077C61.6302 10.0242 60.543 8.81249 60.4052 7.52406C60.3439 7.00255 59.9458 6.57307 59.4099 6.51171C58.8893 6.43502 58.384 6.74179 58.1849 7.23262C57.7256 8.39835 56.3934 9.24197 55 9.24197C53.5913 9.24197 52.2591 8.41369 51.7998 7.24796C51.6007 6.75713 51.1107 6.45036 50.5901 6.54239C50.0695 6.60374 49.6561 7.01788 49.5948 7.55473C49.4417 8.87385 48.3698 10.0549 47.007 10.4384C45.4299 10.8525 43.5618 10.2543 42.8881 9.11927C42.5971 8.62843 41.9847 8.41369 41.464 8.64377C40.9281 8.85851 40.6525 9.44138 40.8056 9.99356C41.1425 11.2513 40.2084 13.0306 38.7997 13.8589C37.3298 14.7025 35.232 14.4417 34.252 13.3527C34.1908 13.276 34.1295 13.184 34.0529 13.1073C33.6548 12.6471 32.9505 12.5858 32.4758 12.9692C32.0011 13.3527 31.8939 14.0583 32.2614 14.5491C32.3227 14.6258 32.3839 14.7178 32.4605 14.7945C33.3945 16.1136 32.8739 18.1843 31.7714 19.3041C30.4852 20.5772 28.4028 20.5772 27.1318 19.3041C26.6265 18.7979 24.9728 17.5248 24.3297 17.218C23.1201 16.6505 21.7113 16.3284 20.5629 16.3284C16.9799 16.3284 14.0553 19.6569 14.0553 23.7369C14.0553 26.2984 15.1271 31.8357 16.7961 35.6243C14.5452 36.0384 12.8456 37.1888 11.8656 39.4589C10.2885 44.0758 9.03286 49.0762 8.14475 54.276C6.01636 66.3167 5.84792 78.1734 6.07761 86.0114C6.24604 92.4536 11.4522 97.4847 17.8986 97.4847H25.6619C27.9128 97.4847 30.0258 96.595 31.603 94.9691C33.1802 93.3432 34.007 91.1959 33.9458 88.9258C33.5783 77.2838 33.9611 55.7791 40.5606 42.6033C44.1284 35.4709 48.8598 31.9277 54.9388 31.759C61.033 31.9277 65.9023 35.5783 69.4241 42.6033C76.0695 55.8252 76.4217 77.2991 76.0389 88.9258C75.9777 91.1959 76.8045 93.3586 78.3817 94.9845C79.9588 96.6104 82.0566 97.5 84.3228 97.5H92.0861C98.5019 97.5 103.708 92.469 103.922 86.0268C104.152 78.2348 103.984 66.4088 101.855 54.276ZM16.3368 23.7062C16.3368 20.8993 18.2355 18.5985 20.5476 18.5985C21.3592 18.5985 22.4463 18.8592 23.3191 19.2734C23.656 19.4421 25.0953 20.5311 25.4781 20.9146C27.6525 23.062 31.1896 23.062 33.3639 20.8993C34.5889 19.6569 35.2167 18.0156 35.2167 16.4358C36.7479 16.8346 38.4935 16.6505 39.9328 15.8222C41.2344 15.0553 42.4134 13.6595 42.9034 12.0796C44.2815 12.8005 46.0118 13.0459 47.6042 12.6165C49.0436 12.2177 50.2838 11.2667 51.0495 10.0396C52.0907 10.9752 53.4994 11.5274 55 11.5274C56.47 11.5274 57.8787 10.9599 58.9199 10.0396C59.6855 11.2667 60.9258 12.2177 62.3805 12.6318C63.8198 13.0153 65.6113 12.8465 67.0507 12.0949C67.556 13.6902 68.7503 15.0706 70.0519 15.8376C71.4912 16.6658 73.2215 16.8346 74.7527 16.4511C74.7527 18.031 75.3805 19.6722 76.6208 20.9146C78.7951 23.062 82.3322 23.062 84.5066 20.9146C84.8894 20.5311 86.3134 19.4421 86.6503 19.2887C87.5384 18.8746 88.6408 18.6138 89.4371 18.6138C91.7645 18.6138 93.6479 20.8993 93.6479 23.7216C93.6479 26.0377 92.6679 32.0351 90.8611 35.4862C89.2533 35.5016 87.4771 35.747 85.5937 36.1611C81.3216 29.6269 70.1437 15.224 55 15.224C39.8563 15.224 28.6784 29.6269 24.391 36.1305C22.5382 35.7163 20.8079 35.4556 19.2461 35.4095C17.5617 32.1118 16.3368 26.2064 16.3368 23.7062ZM83.2203 36.698C81.6126 37.1275 79.9435 37.6336 78.2439 38.1551C77.8611 38.2779 77.4476 38.0938 77.2486 37.7257C75.748 34.842 73.9871 32.3265 72.0118 30.2251C67.4335 25.3628 61.6149 22.7092 55.1684 22.5405H54.7703C48.3545 22.7092 42.5359 25.3628 37.9729 30.2098C36.0129 32.2958 34.2367 34.8267 32.7208 37.741C32.5217 38.1091 32.1236 38.2932 31.7255 38.1705C30.0258 37.6336 28.3721 37.1428 26.7797 36.7133C31.1436 30.2558 41.464 17.5248 55.0153 17.5248C68.536 17.5248 78.8564 30.2405 83.2203 36.698ZM101.626 85.9501C101.442 91.1345 97.2616 95.1992 92.0861 95.1992H84.3228C82.6844 95.1992 81.1685 94.555 80.0354 93.3893C78.9023 92.2082 78.2898 90.659 78.3358 89.0178C78.7186 77.1764 78.3511 55.273 71.4759 41.591C67.5407 33.7376 61.9977 29.6729 54.9388 29.4735C47.9564 29.6729 42.4287 33.7376 38.5088 41.591C31.6796 55.227 31.2814 77.1611 31.6489 89.0178C31.6949 90.659 31.0977 92.2235 29.9493 93.3893C28.8162 94.555 27.285 95.1992 25.6619 95.1992H17.8986C12.6925 95.1992 8.51224 91.1345 8.37443 85.9501C8.14475 78.2194 8.31318 66.5161 10.411 54.6748C11.2837 49.5824 12.5087 44.7047 13.994 40.2565C14.729 38.5386 16.2755 37.7717 18.603 37.7103H18.7255C21.6195 37.6796 25.6925 38.692 31.0364 40.3639C32.4758 40.8087 34.0376 40.1645 34.742 38.8147C36.1813 36.0844 37.8197 33.7223 39.6419 31.7896C43.7762 27.4028 49.0283 24.9947 54.8009 24.8566H55.1531C60.9564 25.01 66.2085 27.4182 70.3581 31.8203C72.1956 33.7683 73.834 36.1151 75.2427 38.8147C75.9471 40.1798 77.5089 40.8241 78.9636 40.3792C84.2309 38.7227 88.4724 37.6796 91.4583 37.787C91.4889 37.787 91.5195 37.8024 91.5502 37.8024H91.5655C93.7398 37.9097 95.2404 38.6153 95.9601 40.1798C97.4607 44.6587 98.6856 49.5364 99.6044 54.7054C101.687 66.6235 101.855 78.2808 101.626 85.9501Z" fill="#6966AE"/></svg>