<svg width="48" height="48" viewBox="0 0 48 48" fill="none" xmlns="http://www.w3.org/2000/svg"><path fill-rule="evenodd" clip-rule="evenodd" d="M12.0006 0C13.4207 0 14.572 1.15127 14.572 2.57143V6.85714H21.4291V2.57143C21.4291 1.15127 22.5804 0 24.0006 0C25.4207 0 26.572 1.15127 26.572 2.57143V6.85714H33.4291V2.57143C33.4291 1.15127 34.5804 0 36.0006 0C37.4207 0 38.572 1.15127 38.572 2.57143V6.85714H41.1434C43.9836 6.85714 46.2863 9.15967 46.2863 12V41.1429C46.2863 43.9831 43.9836 46.2857 41.1434 46.2857H6.8577C4.01737 46.2857 1.71484 43.9831 1.71484 41.1429V12C1.71484 9.15967 4.01737 6.85714 6.8577 6.85714H9.42913V2.57143C9.42913 1.15127 10.5804 0 12.0006 0ZM18.4291 22.2857C18.4291 21.1022 19.3885 20.1429 20.572 20.1429H36.0006C37.1841 20.1429 38.1434 21.1022 38.1434 22.2857C38.1434 23.4692 37.1841 24.4286 36.0006 24.4286H20.572C19.3885 24.4286 18.4291 23.4692 18.4291 22.2857ZM18.4291 32.5714C18.4291 31.388 19.3885 30.4286 20.572 30.4286H29.1434C30.3269 30.4286 31.2863 31.388 31.2863 32.5714C31.2863 33.7549 30.3269 34.7143 29.1434 34.7143H20.572C19.3885 34.7143 18.4291 33.7549 18.4291 32.5714ZM12.0006 30.4286C10.8171 30.4286 9.8577 31.388 9.8577 32.5714C9.8577 33.7549 10.8171 34.7143 12.0006 34.7143H13.7148C14.8983 34.7143 15.8577 33.7549 15.8577 32.5714C15.8577 31.388 14.8983 30.4286 13.7148 30.4286H12.0006ZM9.8577 22.2857C9.8577 21.1022 10.8171 20.1429 12.0006 20.1429H13.7148C14.8983 20.1429 15.8577 21.1022 15.8577 22.2857C15.8577 23.4692 14.8983 24.4286 13.7148 24.4286H12.0006C10.8171 24.4286 9.8577 23.4692 9.8577 22.2857Z" fill="#34356D"/></svg>