<svg width="78" height="79" viewBox="0 0 78 79" fill="none" xmlns="http://www.w3.org/2000/svg"><rect y="0.666016" width="78" height="78" rx="39" fill="white"/><path fill-rule="evenodd" clip-rule="evenodd" d="M58.0125 54.7762H23.7903C22.1428 54.7762 20.8028 53.4202 20.8028 51.7545V25.9307C20.8028 24.2643 22.1428 22.9089 23.7903 22.9089H25.6915C25.9913 22.9089 26.2348 23.1548 26.2348 23.4578C26.2348 23.7617 25.9913 24.0076 25.6915 24.0076H23.7903C22.7419 24.0076 21.8892 24.8702 21.8892 25.9304V51.7543C21.8892 52.8147 22.7421 53.6771 23.7903 53.6771L58.0125 53.6774C59.061 53.6774 59.9136 52.8143 59.9136 51.7545V25.9307C59.9136 24.8702 59.0607 24.0078 58.0125 24.0078L35.4692 24.0076C35.1688 24.0076 34.9257 23.7617 34.9257 23.4578C34.9257 23.1546 35.1688 22.9089 35.4692 22.9089H58.0125C59.66 22.9089 61 24.2643 61 25.9307V51.7545C61.0007 53.4202 59.66 54.7762 58.0125 54.7762Z" fill="#34356D"/><path fill-rule="evenodd" clip-rule="evenodd" d="M33.9119 48.1824H27.2485C26.0902 48.1824 25.148 47.2292 25.148 46.0576V17.3399C25.148 16.1684 26.0902 15.2152 27.2485 15.2152H33.9119C35.0701 15.2152 36.0124 16.1684 36.0124 17.3399V46.0576C36.0126 47.2292 35.0704 48.1824 33.9119 48.1824ZM27.2485 16.3147C26.6892 16.3147 26.2348 16.775 26.2348 17.3399V46.0577C26.2348 46.6233 26.69 47.083 27.2485 47.083H33.9119C34.4711 47.083 34.9256 46.6226 34.9256 46.0577V17.3399C34.9256 16.7743 34.4703 16.3147 33.9119 16.3147H27.2485Z" fill="#34356D"/><path fill-rule="evenodd" clip-rule="evenodd" d="M41.4446 50.3796C40.2466 50.3796 39.2721 49.394 39.2721 48.1822C39.2721 46.9705 40.2466 45.9847 41.4446 45.9847C42.6427 45.9847 43.6172 46.9705 43.6172 48.1822C43.6172 49.394 42.6431 50.3796 41.4446 50.3796ZM41.4446 47.0836C40.8456 47.0836 40.3585 47.5766 40.3585 48.1822C40.3585 48.7878 40.8458 49.2808 41.4446 49.2808C42.0434 49.2808 42.5308 48.7878 42.5308 48.1822C42.5308 47.5766 42.0437 47.0836 41.4446 47.0836Z" fill="#34356D"/><path fill-rule="evenodd" clip-rule="evenodd" d="M47.9636 50.3796C46.7655 50.3796 45.791 49.394 45.791 48.1822C45.791 46.9705 46.7655 45.9847 47.9636 45.9847C49.1616 45.9847 50.1361 46.9705 50.1361 48.1822C50.1361 49.394 49.1616 50.3796 47.9636 50.3796ZM47.9636 47.0836C47.3645 47.0836 46.8774 47.5766 46.8774 48.1822C46.8774 48.7878 47.3648 49.2808 47.9636 49.2808C48.5626 49.2808 49.0497 48.7878 49.0497 48.1822C49.0497 47.5766 48.5626 47.0836 47.9636 47.0836Z" fill="#34356D"/><path fill-rule="evenodd" clip-rule="evenodd" d="M54.4818 50.3796C53.2837 50.3796 52.3092 49.394 52.3092 48.1822C52.3092 46.9705 53.2837 45.9847 54.4818 45.9847C55.6798 45.9847 56.655 46.9705 56.655 48.1822C56.655 49.394 55.6798 50.3796 54.4818 50.3796ZM54.4818 47.0836C53.8828 47.0836 53.3956 47.5766 53.3956 48.1822C53.3956 48.7878 53.883 49.2808 54.4818 49.2808C55.0808 49.2808 55.5686 48.7878 55.5686 48.1822C55.5686 47.5766 55.0808 47.0836 54.4818 47.0836Z" fill="#34356D"/><path fill-rule="evenodd" clip-rule="evenodd" d="M41.4446 43.787C40.2466 43.787 39.2721 42.8013 39.2721 41.5887C39.2721 40.3769 40.2466 39.3913 41.4446 39.3913C42.6427 39.3913 43.6172 40.3769 43.6172 41.5887C43.6177 42.8013 42.6431 43.787 41.4446 43.787ZM41.4446 40.4902C40.8456 40.4902 40.3585 40.9831 40.3585 41.5887C40.3585 42.1946 40.8458 42.6881 41.4446 42.6881C42.0434 42.6881 42.5308 42.1951 42.5308 41.5887C42.5308 40.9836 42.0437 40.4902 41.4446 40.4902Z" fill="#34356D"/><path fill-rule="evenodd" clip-rule="evenodd" d="M47.9636 43.787C46.7655 43.787 45.791 42.8013 45.791 41.5887C45.791 40.3769 46.7655 39.3913 47.9636 39.3913C49.1616 39.3913 50.1361 40.3769 50.1361 41.5887C50.1361 42.8013 49.1616 43.787 47.9636 43.787ZM47.9636 40.4902C47.3645 40.4902 46.8774 40.9831 46.8774 41.5887C46.8774 42.1946 47.3648 42.6881 47.9636 42.6881C48.5626 42.6881 49.0497 42.1951 49.0497 41.5887C49.0497 40.9836 48.5626 40.4902 47.9636 40.4902Z" fill="#34356D"/><path fill-rule="evenodd" clip-rule="evenodd" d="M54.4818 43.787C53.2837 43.787 52.3092 42.8013 52.3092 41.5887C52.3092 40.3769 53.2837 39.3913 54.4818 39.3913C55.6798 39.3913 56.655 40.3769 56.655 41.5887C56.655 42.8013 55.6798 43.787 54.4818 43.787ZM54.4818 40.4902C53.8828 40.4902 53.3956 40.9831 53.3956 41.5887C53.3956 42.1946 53.883 42.6881 54.4818 42.6881C55.0808 42.6881 55.5686 42.1951 55.5686 41.5887C55.5689 40.9836 55.0808 40.4902 54.4818 40.4902Z" fill="#34356D"/><path fill-rule="evenodd" clip-rule="evenodd" d="M41.4446 37.1937C40.2466 37.1937 39.2721 36.208 39.2721 34.9962C39.2721 33.7844 40.2466 32.7987 41.4446 32.7987C42.6427 32.7987 43.6172 33.7844 43.6172 34.9962C43.6172 36.208 42.6431 37.1937 41.4446 37.1937ZM41.4446 33.8969C40.8456 33.8969 40.3585 34.3899 40.3585 34.9955C40.3585 35.6014 40.8458 36.0941 41.4446 36.0941C42.0434 36.0941 42.5308 35.6011 42.5308 34.9955C42.5308 34.3899 42.0437 33.8969 41.4446 33.8969Z" fill="#34356D"/><path fill-rule="evenodd" clip-rule="evenodd" d="M47.9636 37.1937C46.7655 37.1937 45.791 36.208 45.791 34.9962C45.791 33.7844 46.7655 32.7987 47.9636 32.7987C49.1616 32.7987 50.1361 33.7844 50.1361 34.9962C50.1361 36.208 49.1616 37.1937 47.9636 37.1937ZM47.9636 33.8969C47.3645 33.8969 46.8774 34.3899 46.8774 34.9955C46.8774 35.6014 47.3648 36.0941 47.9636 36.0941C48.5626 36.0941 49.0497 35.6011 49.0497 34.9955C49.0497 34.3899 48.5626 33.8969 47.9636 33.8969Z" fill="#34356D"/><path fill-rule="evenodd" clip-rule="evenodd" d="M54.4818 37.1937C53.2837 37.1937 52.3092 36.208 52.3092 34.9962C52.3092 33.7844 53.2837 32.7987 54.4818 32.7987C55.6798 32.7987 56.655 33.7844 56.655 34.9962C56.655 36.208 55.6798 37.1937 54.4818 37.1937ZM54.4818 33.8969C53.8828 33.8969 53.3956 34.3899 53.3956 34.9955C53.3956 35.6014 53.883 36.0941 54.4818 36.0941C55.0808 36.0941 55.5686 35.6011 55.5686 34.9955C55.5689 34.3899 55.0808 33.8969 54.4818 33.8969Z" fill="#34356D"/><path fill-rule="evenodd" clip-rule="evenodd" d="M24.3337 64.1164C20.2897 64.1164 17 60.7889 17 56.6992V36.0952C17 33.6716 18.949 31.6995 21.3458 31.6995C21.6461 31.6995 21.8892 31.9453 21.8892 32.2491C21.8892 32.5529 21.6461 32.7988 21.3458 32.7988C19.5488 32.7988 18.0864 34.2775 18.0864 36.0957V56.6997C18.0864 60.1834 20.8889 63.0182 24.3333 63.0182C27.7775 63.0182 30.5802 60.1834 30.5802 56.6997V47.6339C30.5802 47.3302 30.8233 47.0843 31.1228 47.0843C31.4232 47.0843 31.6663 47.3302 31.6663 47.6339V56.6997C31.6668 60.7889 28.377 64.1164 24.3337 64.1164Z" fill="#34356D"/><path fill-rule="evenodd" clip-rule="evenodd" d="M55.5688 31.1497H39.2721C38.9718 31.1497 38.7288 30.9038 38.7288 30.6001V26.754C38.7288 26.4507 38.9718 26.2051 39.2721 26.2051H55.5688C55.8687 26.2051 56.1116 26.451 56.1116 26.754V30.6001C56.1116 30.904 55.8685 31.1497 55.5688 31.1497ZM39.8149 30.0511H55.0254V27.304H39.8149V30.0511Z" fill="#34356D"/><path fill-rule="evenodd" clip-rule="evenodd" d="M55.5688 20.1603C54.071 20.1603 52.8529 18.9276 52.8529 17.4132C52.8529 15.8988 54.071 14.666 55.5688 14.666C57.0667 14.666 58.2849 15.8988 58.2849 17.4132C58.2849 18.9276 57.0661 20.1603 55.5688 20.1603ZM55.5688 15.7649C54.67 15.7649 53.939 16.5042 53.939 17.4135C53.939 18.3226 54.67 19.0619 55.5688 19.0619C56.467 19.0619 57.1987 18.3226 57.1987 17.4135C57.1987 16.5042 56.467 15.7649 55.5688 15.7649Z" fill="#34356D"/><path fill-rule="evenodd" clip-rule="evenodd" d="M40.3583 64.666C38.2617 64.666 36.5559 62.9403 36.5559 60.8199C36.5559 58.6997 38.2621 56.9739 40.3583 56.9739C42.4546 56.9739 44.1608 58.6997 44.1608 60.8199C44.1608 62.9403 42.4553 64.666 40.3583 64.666ZM40.3583 58.0724C38.8603 58.0724 37.6423 59.3051 37.6423 60.8195C37.6423 62.3338 38.8611 63.5666 40.3583 63.5666C41.8555 63.5666 43.0743 62.3338 43.0743 60.8195C43.0743 59.3051 41.8562 58.0724 40.3583 58.0724Z" fill="#34356D"/><path fill-rule="evenodd" clip-rule="evenodd" d="M35.4693 40.4901H25.6914C25.3911 40.4901 25.148 40.2442 25.148 39.9411C25.148 39.6373 25.3911 39.3915 25.6914 39.3915L35.4693 39.3913C35.7691 39.3913 36.0126 39.6371 36.0126 39.9409C36.0126 40.2442 35.7688 40.4901 35.4693 40.4901Z" fill="#34356D"/><path fill-rule="evenodd" clip-rule="evenodd" d="M35.4693 43.7869H25.6914C25.3911 43.7869 25.148 43.541 25.148 43.2372C25.148 42.9338 25.3911 42.6883 25.6914 42.6883L35.4693 42.688C35.7691 42.688 36.0126 42.9338 36.0126 43.237C36.0126 43.541 35.7688 43.7869 35.4693 43.7869Z" fill="#34356D"/></svg>