<svg width="48" height="48" viewBox="0 0 48 48" fill="none" xmlns="http://www.w3.org/2000/svg"><path d="M35.297 36.7413H32.9761C32.9719 36.7399 32.9679 36.7384 32.9636 36.7369C32.1244 36.4675 31.4255 35.952 30.9391 35.2908H17.0609C16.5745 35.952 15.8756 36.4672 15.0367 36.7369C15.0321 36.7384 15.0281 36.7399 15.0239 36.7413H12.703C12.056 36.7413 11.5311 37.2472 11.5311 37.8707C11.5311 38.4944 12.056 39 12.703 39H35.297C35.944 39 36.4689 38.4944 36.4689 37.8707C36.4689 37.2472 35.944 36.7413 35.297 36.7413Z" fill="#6966AE"/><path d="M27.3478 16.0972C26.717 16.0972 26.352 16.2127 25.89 16.3592C25.3907 16.5174 24.8246 16.6965 24 16.6965C23.1754 16.6965 22.6093 16.5174 22.11 16.3592C21.6483 16.2127 21.2833 16.0972 20.6531 16.0972C19.6839 16.0972 18.8959 16.8568 18.8959 17.7906C18.8959 18.7449 19.0473 19.6904 19.3455 20.601C19.8298 22.08 20.5506 24.2792 20.9836 25.6L21.8693 24.0351C22.2953 23.2831 23.1119 22.8158 24.0003 22.8158C24.8884 22.8158 25.705 23.2831 26.1307 24.0349L27.0164 25.6C27.4494 24.279 28.1705 22.08 28.6545 20.6013C28.953 19.6901 29.1044 18.7446 29.1044 17.7906C29.1041 16.8568 28.3161 16.0972 27.3478 16.0972Z" fill="#6966AE"/><path d="M42.8281 9H5.17188C4.5246 9 4 9.50555 4 10.1293V31.9028C4 32.5266 4.5246 33.0322 5.17188 33.0322H42.8281C43.4754 33.0322 44 32.5266 44 31.9028V10.1293C44 9.50555 43.4754 9 42.8281 9ZM30.8896 21.2809C30.3403 22.9582 29.4868 25.5621 29.094 26.7605C28.8132 27.6175 27.9978 28.1937 27.0646 28.1937C26.294 28.1937 25.5857 27.7887 25.2164 27.1367L24.0732 25.1168C24.0439 25.0651 23.9564 25.0648 23.9268 25.1171L22.7839 27.1364C22.4143 27.7887 21.7063 28.1937 20.9354 28.1937C20.0022 28.1937 19.1868 27.6175 18.906 26.76C18.5132 25.5621 17.6597 22.9582 17.1104 21.2809C16.7399 20.1501 16.5522 18.9758 16.5522 17.7906C16.5522 15.6116 18.3915 13.8385 20.6525 13.8385C21.6587 13.8385 22.3148 14.0464 22.8422 14.2135C23.2535 14.3438 23.5508 14.4379 24.0003 14.4379C24.4495 14.4379 24.7468 14.3438 25.1581 14.2135C25.6855 14.0464 26.3416 13.8385 27.3472 13.8385C29.6088 13.8385 31.4481 15.6116 31.4481 17.7906C31.4478 18.9758 31.2601 20.1501 30.8896 21.2809Z" fill="#6966AE"/></svg>