<svg width="48" height="48" viewBox="0 0 48 48" fill="none" xmlns="http://www.w3.org/2000/svg"><path d="M41.8579 21.1688C41.8579 20.4626 41.2802 19.8897 40.5688 19.8897H37.8816V26.8312C37.8816 27.5374 37.3049 28.1103 36.5925 28.1103C35.8809 28.1103 35.3035 27.5374 35.3035 26.8312V19.8897H31.3279V26.8312C31.3279 27.5374 30.7505 28.1103 30.0388 28.1103C29.3264 28.1103 28.7497 27.5374 28.7497 26.8312V19.8897H24.7734V26.8312C24.7734 27.5374 24.196 28.1103 23.4844 28.1103C22.7727 28.1103 22.1953 27.5374 22.1953 26.8312V19.8897H18.219V26.8312C18.219 27.5374 17.6423 28.1103 16.93 28.1103C16.2183 28.1103 15.6409 27.5374 15.6409 26.8312V19.8897H12.9543C12.242 19.8897 11.6653 20.4626 11.6653 21.1688V31.0324H41.8579V21.1688Z" fill="#6966AE"/><path d="M41.259 33.5908H3.28906C2.57706 33.5908 2 34.1637 2 34.8699V41.7208C2 42.427 2.57706 43 3.28906 43H41.259C43.8734 43 46 40.8894 46 38.2954C46 35.7014 43.8734 33.5908 41.259 33.5908Z" fill="#6966AE"/><path d="M20.8274 15.9009L21.7119 16.7787C21.9059 16.9712 22.1064 17.1554 22.3121 17.3313H36.9145C39.9209 15.0508 41.8579 11.4548 41.8579 7.40944V6.27917C41.8579 5.57263 41.2808 5 40.5688 5C39.8568 5 39.2798 5.57263 39.2798 6.27917V6.28183C39.2798 9.68563 35.1225 11.3968 32.6955 8.98841L31.8116 8.11131C29.7897 6.10495 27.1011 5 24.2404 5C17.3331 5 11.7465 10.5071 11.667 17.3313H14.4556C15.3317 14.8183 18.7273 13.8169 20.8274 15.9009Z" fill="#6966AE"/></svg>