<svg width="48" height="48" viewBox="0 0 48 48" fill="none" xmlns="http://www.w3.org/2000/svg"><path d="M39.2956 9.22631C34.8794 7.67685 33.0385 8.91051 29.7047 7.74086C26.3705 6.57101 25.7077 4.45889 21.2882 2.90829L21.2868 2.90781C16.3641 1.18064 10.9533 3.78143 9.2258 8.70524C8.14159 11.7954 7.53865 15.0231 7.43389 18.299C7.43392 18.3023 7.43369 18.3056 7.43373 18.309C7.39034 19.6835 8.23271 20.9124 9.5303 21.3677L36.9426 30.9854C38.2402 31.4407 39.6658 31.0073 40.4906 29.9072C40.4916 29.9063 40.4923 29.9051 40.4934 29.9039C42.4599 27.2797 44.007 24.3811 45.0919 21.2891C46.8194 16.3652 44.2197 10.954 39.2956 9.22631Z" fill="#6966AE"/><path d="M15.4572 41.1436L19.959 42.7231C21.7858 43.3641 23.7795 42.4031 24.4192 40.5798L13.3139 36.6835C12.6731 38.5097 13.6337 40.5038 15.4572 41.1436Z" fill="#6966AE"/><path d="M15.1302 31.5068L26.2354 35.4032L25.1565 38.4783L14.0512 34.582L15.1302 31.5068Z" fill="#6966AE"/><path d="M16.9465 26.3299L28.0518 30.2263L26.9727 33.3017L15.8675 29.4053L16.9465 26.3299Z" fill="#6966AE"/></svg>