<svg xmlns="http://www.w3.org/2000/svg"><symbol id="chevron-left" viewBox="0 0 7 13" fill="none"><path d="M1.60132 6.2235L6.55589 1.09018C6.57304 1.07248 6.58421 1.04646 6.58698 1.01781C6.58974 0.989167 6.58387 0.960228 6.57065 0.937334L6.04765 0.0421139C6.0341 0.0198368 6.01482 0.00505319 5.99355 0.000628127C5.98274 -0.000921738 5.97182 0.00040349 5.9614 0.00452674C5.95099 0.00864999 5.9413 0.015489 5.93288 0.0246462L0.0306769 6.13834C0.0211027 6.14857 0.0133756 6.16154 0.00806605 6.17627C0.00275652 6.19101 0 6.20715 0 6.2235C0 6.23985 0.00275652 6.25598 0.00806605 6.27072C0.0133756 6.28546 0.0211027 6.29842 0.0306769 6.30865C0.0815014 6.33267 5.91649 12.4682 5.98371 12.4464C5.99604 12.4465 6.00822 12.4428 6.01931 12.4356C6.0304 12.4284 6.0401 12.4179 6.04765 12.4049L6.57229 11.5097C6.58551 11.4868 6.59138 11.4578 6.58862 11.4292C6.58585 11.4005 6.57467 11.3745 6.55753 11.3568L1.60132 6.2235Z" fill="currentColor"/></symbol><symbol id="chevron-right" viewBox="0 0 7 13" fill="none"><path d="M5.39868 6.7765L0.444105 11.9098C0.426965 11.9275 0.415789 11.9535 0.413023 11.9822C0.410257 12.0108 0.416129 12.0398 0.42935 12.0627L0.952352 12.9579C0.965905 12.9802 0.985184 12.9949 1.00645 12.9994C1.01726 13.0009 1.02818 12.9996 1.0386 12.9955C1.04901 12.9913 1.0587 12.9845 1.06712 12.9754L6.96932 6.86166C6.9789 6.85143 6.98662 6.83846 6.99193 6.82373C6.99724 6.80899 7 6.79285 7 6.7765C7 6.76015 6.99724 6.74402 6.99193 6.72928C6.98662 6.71454 6.9789 6.70158 6.96932 6.69135C6.9185 6.66733 1.08351 0.531794 1.01629 0.553629C1.00396 0.553543 0.991776 0.55724 0.980688 0.564434C0.9696 0.571629 0.959904 0.582127 0.952353 0.595114L0.427712 1.49033C0.41449 1.51323 0.408618 1.54217 0.411384 1.57081C0.41415 1.59946 0.425327 1.62548 0.442467 1.64318L5.39868 6.7765Z" fill="currentColor"/></symbol><symbol id="call" viewBox="0 0 24 24" fill="none"><path d="M16.7183 12.0681H16.0553C16.0553 9.9043 14.2955 8.14489 12.1329 8.14489L12.1325 7.48267C14.6616 7.48148 16.7183 9.53897 16.7183 12.0681ZM12.1325 8.62643L12.1321 9.28865C13.6655 9.28865 14.9111 10.5355 14.9103 12.0677L15.5733 12.0673C15.5733 10.1701 14.0308 8.62643 12.1325 8.62643ZM12 5.5C8.41551 5.5 5.5 8.41551 5.5 12.0004C5.5 15.5845 8.41551 18.5 12 18.5C12.2217 18.5 12.4008 18.3209 12.4008 18.0996C12.4008 17.8772 12.2217 17.6977 12 17.6977C8.85765 17.6977 6.3019 15.1412 6.3019 12.0004C6.3019 8.85805 8.85765 6.3019 12 6.3019C15.1424 6.3019 17.6977 8.85845 17.6977 12.0004C17.6977 13.3133 16.9989 14.6142 15.9988 15.1658C15.6354 15.3656 15.2414 15.4647 14.8212 15.4687C15.0735 15.3186 15.292 15.1157 15.4544 14.8602C15.4862 14.812 15.5284 14.7695 15.5491 14.7173C15.6796 14.4033 15.6911 14.0471 15.7699 13.7152C15.8667 13.2918 13.9162 12.4644 13.7467 12.9933C13.6854 13.1891 13.5915 13.8084 13.4685 13.9715C13.3591 14.1172 13.0892 14.0479 12.9205 13.9047C12.476 13.5258 11.9797 12.9691 11.5443 12.5289L11.5451 12.5285C11.534 12.517 11.5204 12.5042 11.5085 12.4919C11.4962 12.4803 11.4838 12.4672 11.4715 12.4553V12.4561C11.0313 12.0199 10.4742 11.5248 10.0957 11.0795C9.95246 10.9108 9.88321 10.6409 10.0289 10.5315C10.192 10.4077 10.8113 10.3154 11.0071 10.2533C11.5348 10.0846 10.7086 8.13295 10.2844 8.23006C9.95325 8.30766 9.59707 8.32039 9.28308 8.45013C9.22975 8.47282 9.18836 8.51381 9.14021 8.54564C8.0263 9.25164 7.88263 10.9661 8.96988 12.2436C9.38416 12.7323 9.81635 13.205 10.2613 13.6667L10.2589 13.6683C10.2712 13.6806 10.284 13.6922 10.2967 13.7041C10.3086 13.7164 10.3202 13.7288 10.3317 13.7419L10.3341 13.7395C10.7958 14.1844 11.343 14.8399 12.232 15.4329C14.1037 16.6829 15.5399 16.3339 16.386 15.8698C17.8465 15.0655 18.5 13.3475 18.5 12.002C18.5 8.41551 15.5841 5.5 12 5.5Z" fill="currentColor"/></symbol><symbol id="wa" viewBox="0 0 48 48" fill="none"><path fill-rule="evenodd" clip-rule="evenodd" d="M2.00002 24C2.00002 11.85 11.85 2 24 2C36.15 2 46 11.85 46 24C46 36.15 36.15 46 24 46C20.128 46 16.486 45 13.324 43.24L2.80002 45.2L4.76002 34.676C2.94466 31.4109 1.99455 27.7358 2.00002 24ZM14.294 13.294C15.602 11.984 17.348 11.868 18.29 11.914C19.16 11.954 19.842 12.458 20.258 13.042L22.162 15.71C22.5745 16.2878 22.7687 16.9931 22.7101 17.7006C22.6515 18.4081 22.3439 19.0719 21.842 19.574L20.494 20.92C20.94 22.008 21.834 23.76 23.038 24.962C24.242 26.164 25.992 27.062 27.078 27.508L28.428 26.16C28.93 25.6586 29.5934 25.3513 30.3004 25.2928C31.0075 25.2342 31.7124 25.4281 32.29 25.84L34.96 27.742C35.542 28.16 36.048 28.842 36.088 29.71C36.132 30.652 36.016 32.398 34.708 33.708C32.574 35.84 29.226 35.862 26.18 35.026C23.08 34.174 19.92 32.346 17.786 30.214C15.656 28.082 13.826 24.922 12.974 21.82C12.138 18.774 12.16 15.426 14.294 13.294Z" fill="currentColor"/></symbol><symbol id="tg" viewBox="0 0 48 48" fill="none"><path fill-rule="evenodd" clip-rule="evenodd" d="M24 46C36.15 46 46 36.15 46 24C46 11.85 36.15 2 24 2C11.85 2 2 11.85 2 24C2 36.15 11.85 46 24 46ZM9.964 22.35C9.964 22.146 10.098 21.954 10.288 21.882L34.936 12.488C35.0212 12.4565 35.1132 12.4485 35.2026 12.4647C35.2919 12.4808 35.3753 12.5207 35.444 12.58C35.58 12.7 35.644 12.894 35.6 13.072L30.684 33.748C30.6645 33.8278 30.6259 33.9018 30.5716 33.9634C30.5173 34.0251 30.4488 34.0726 30.372 34.102C30.2947 34.1302 30.2116 34.1391 30.1301 34.128C30.0485 34.1168 29.9709 34.0859 29.904 34.038L24.666 30.248L24.466 30.38C23.6711 30.909 22.8737 31.4343 22.074 31.956C21.4502 32.3636 20.8215 32.7636 20.188 33.156C19.9563 33.299 19.7216 33.437 19.484 33.57C19.3924 33.6212 19.299 33.6692 19.204 33.714C19.153 33.7384 19.101 33.7604 19.048 33.78C18.8001 33.8618 18.5345 33.8744 18.28 33.8162C18.0255 33.758 17.7917 33.6314 17.604 33.45C17.3956 33.2322 17.2552 32.9584 17.2 32.662L17.198 32.652L15.592 24.754L10.288 22.818C10.1936 22.781 10.1123 22.7168 10.0546 22.6334C9.99692 22.55 9.96537 22.4514 9.964 22.35ZM17.548 24.336L19.002 31.49L20.622 26.564L28.906 19.134C28.9584 19.0844 28.9916 19.018 29 18.9463C29.0084 18.8747 28.9914 18.8024 28.952 18.742C28.9102 18.6837 28.8494 18.6418 28.78 18.6235C28.7106 18.6053 28.6371 18.6118 28.572 18.642L17.548 24.336Z" fill="currentColor"/></symbol><symbol id="star" viewBox="0 0 14 13" fill="none"><path d="M7 0L9.34526 3.77202L13.6574 4.83688L10.7947 8.23298L11.1145 12.6631L7 10.99L2.8855 12.6631L3.20528 8.23298L0.342604 4.83688L4.65474 3.77202L7 0Z" fill="currentColor"/></symbol><symbol id="info" viewBox="0 0 36 36" fill="none"><path d="M18 7.75C12.3481 7.75 7.75 12.3481 7.75 18C7.75 23.6519 12.348 28.25 17.9999 28.25C23.6518 28.25 28.2499 23.6519 28.2499 18C28.2499 12.3481 23.6518 7.75 18 7.75ZM18 25.7432C13.7303 25.7432 10.2568 22.2696 10.2568 18C10.2568 13.7304 13.7303 10.2568 18 10.2568C22.2696 10.2568 25.7432 13.7304 25.7432 18C25.7432 22.2696 22.2695 25.7432 18 25.7432Z" fill="currentColor"/><path d="M19.5029 17.1221H16.9961V23.7233H19.5029V17.1221Z" fill="currentColor"/><path d="M19.5029 12.7764H16.9961V15.1996H19.5029V12.7764Z" fill="currentColor"/></symbol><symbol id="arrow-down" viewBox="0 0 24 25" fill="none"><path d="M5.25 5.75L18.75 19.25M18.75 19.25L9.75 19.25M18.75 19.25L18.75 9.75" stroke="currentColor"/></symbol><symbol id="close" viewBox="0 0 24 24" fill="none"><path d="M12 0C9.62663 0 7.30655 0.703788 5.33316 2.02236C3.35977 3.34094 1.8217 5.21508 0.913451 7.4078C0.00519941 9.60051 -0.232441 12.0133 0.230582 14.3411C0.693605 16.6689 1.83649 18.807 3.51472 20.4853C5.19295 22.1635 7.33115 23.3064 9.65892 23.7694C11.9867 24.2324 14.3995 23.9948 16.5922 23.0865C18.7849 22.1783 20.6591 20.6402 21.9776 18.6668C23.2962 16.6934 24 14.3734 24 12C23.9963 8.81853 22.7309 5.76841 20.4812 3.51877C18.2316 1.26912 15.1815 0.00366459 12 0ZM12 22.1538C9.99176 22.1538 8.02862 21.5583 6.35883 20.4426C4.68904 19.3269 3.38759 17.7411 2.61907 15.8857C1.85055 14.0303 1.64947 11.9887 2.04126 10.0191C2.43305 8.04943 3.40011 6.24019 4.82015 4.82015C6.24019 3.40011 8.04943 2.43305 10.0191 2.04126C11.9887 1.64947 14.0303 1.85055 15.8857 2.61907C17.7411 3.38759 19.3269 4.68903 20.4426 6.35882C21.5583 8.02861 22.1538 9.99176 22.1538 12C22.1507 14.692 21.0799 17.2728 19.1763 19.1763C17.2728 21.0799 14.692 22.1507 12 22.1538Z" fill="currentColor"/><path d="M17.268 6.732C17.0949 6.55895 16.8602 6.46173 16.6154 6.46173C16.3706 6.46173 16.1359 6.55895 15.9628 6.732L12 10.6948L8.03723 6.732C7.86314 6.56385 7.62997 6.47081 7.38794 6.47292C7.14591 6.47502 6.91439 6.5721 6.74325 6.74324C6.5721 6.91439 6.47502 7.14591 6.47292 7.38794C6.47082 7.62996 6.56386 7.86313 6.732 8.03723L10.6948 12L6.732 15.9628C6.56386 16.1369 6.47082 16.37 6.47292 16.6121C6.47502 16.8541 6.5721 17.0856 6.74325 17.2568C6.91439 17.4279 7.14591 17.525 7.38794 17.5271C7.62997 17.5292 7.86314 17.4361 8.03723 17.268L12 13.3052L15.9628 17.268C16.1369 17.4361 16.37 17.5292 16.6121 17.5271C16.8541 17.525 17.0856 17.4279 17.2568 17.2568C17.4279 17.0856 17.525 16.8541 17.5271 16.6121C17.5292 16.37 17.4361 16.1369 17.268 15.9628L13.3052 12L17.268 8.03723C17.4411 7.86413 17.5383 7.62938 17.5383 7.38461C17.5383 7.13985 17.4411 6.9051 17.268 6.732Z" fill="currentColor"/></symbol><symbol id="location" viewBox="0 0 48 48" fill="none"><path fill-rule="evenodd" clip-rule="evenodd" d="M24.0002 -0.00195312C32.9883 -0.00195312 40.4782 7.48798 40.4782 16.4761C40.4782 19.4096 39.4698 22.3026 38.0607 24.9237C36.6461 27.5551 34.7734 30.0119 32.9129 32.1036C31.0489 34.1994 29.1654 35.9639 27.698 37.2105C26.965 37.8331 26.3235 38.3371 25.8288 38.694C25.5846 38.8703 25.3557 39.0252 25.1582 39.1439C25.062 39.2015 24.9449 39.268 24.8203 39.3256C24.7583 39.354 24.6691 39.3924 24.5626 39.4264C24.4789 39.4531 24.2696 39.5159 24.0002 39.5159C23.7284 39.5159 23.5174 39.4521 23.4334 39.425C23.3264 39.3904 23.2369 39.3516 23.1748 39.3228C23.0499 39.2646 22.9327 39.1977 22.8366 39.1394C22.6391 39.0198 22.4103 38.8634 22.1662 38.6858C21.6719 38.3265 21.0306 37.8191 20.298 37.1923C18.8313 35.9382 16.9488 34.1646 15.0857 32.0632C13.2262 29.966 11.3545 27.5069 9.9403 24.8817C8.53215 22.2677 7.52213 19.3866 7.52213 16.4761C7.52213 7.48798 15.012 -0.00195312 24.0002 -0.00195312ZM24.0002 21.3973C21.2822 21.3973 19.0789 19.194 19.0789 16.4761C19.0789 13.7582 21.2822 11.5548 24.0002 11.5548C26.7181 11.5548 28.9214 13.7582 28.9214 16.4761C28.9214 19.194 26.7181 21.3973 24.0002 21.3973ZM34.6259 34.8225C35.2585 34.1114 35.8914 33.3663 36.5127 32.5924H41.1176C41.8033 32.5924 42.4232 33.001 42.6934 33.6313L47.8283 45.6136C48.0553 46.1433 48.0011 46.7515 47.684 47.2326C47.3669 47.7136 46.8289 48.003 46.2529 48.003H1.74749C1.17125 48.003 0.633554 47.7136 0.316338 47.2326C-0.000879377 46.7515 -0.0551766 46.1433 0.171819 45.6136L5.30703 33.6313C5.57717 33.001 6.19695 32.5924 6.88273 32.5924H11.5296C12.1367 33.3483 12.7547 34.0769 13.3721 34.7731C15.6402 37.3315 17.9324 39.4912 19.7169 41.0169C20.6083 41.7794 21.3855 42.3942 21.9807 42.8268C22.2752 43.0411 22.5456 43.2256 22.7745 43.3641C22.8863 43.432 23.0167 43.506 23.1519 43.5691C23.2192 43.6007 23.3133 43.6411 23.424 43.6768C23.5119 43.7052 23.7259 43.7697 24 43.7697C24.2718 43.7697 24.4841 43.7063 24.5716 43.6785C24.6819 43.6432 24.7756 43.6031 24.8428 43.5719C24.9778 43.5095 25.108 43.4361 25.2199 43.3689C25.4488 43.2314 25.7193 43.0483 26.014 42.8358C26.6095 42.4062 27.387 41.7959 28.2788 41.0382C30.064 39.5217 32.3571 37.3734 34.6259 34.8225Z" fill="currentColor"/></symbol><symbol id="menu" viewBox="0 0 25 24" fill="none"><rect x="1.5" y="1" width="10" height="10" rx="2" fill="currentColor"/><rect x="13.5" y="1" width="10" height="10" rx="2" fill="currentColor"/><rect x="1.5" y="13" width="10" height="10" rx="2" fill="currentColor"/><rect x="13.5" y="13" width="10" height="10" rx="2" fill="currentColor"/></symbol><symbol id="arrow-up" viewBox="0 0 24 24" fill="none"><path d="M5.25 18.75L18.75 5.25M18.75 5.25V14.25M18.75 5.25H9.25" stroke="currentColor"/></symbol><symbol id="paperclip" viewBox="0 0 24 25" fill="none"><path d="M22.0419 12.1352L11.9626 22.2992C11.5715 22.6976 11.1049 23.0142 10.5901 23.2302C10.0753 23.4464 9.52256 23.5576 8.96423 23.5576C8.40589 23.5576 7.85317 23.4464 7.33833 23.2302C6.82352 23.0142 6.35692 22.6976 5.96586 22.2992L2.95053 19.233C2.16117 18.4312 1.71875 17.3513 1.71875 16.2262C1.71875 15.1011 2.16117 14.0211 2.95053 13.2193L13.6905 2.44552C14.0054 2.12797 14.3802 1.87592 14.793 1.70392C15.2059 1.53192 15.6487 1.44336 16.0959 1.44336C16.5432 1.44336 16.986 1.53192 17.3989 1.70392C17.8117 1.87592 18.1865 2.12797 18.5014 2.44552L19.7041 3.64826C20.0218 3.96321 20.2738 4.33794 20.4457 4.75079C20.6178 5.16364 20.7063 5.60648 20.7063 6.05373C20.7063 6.50099 20.6178 6.94383 20.4457 7.35668C20.2738 7.76955 20.0218 8.14425 19.7041 8.4592L10.1839 18.0133C10.0264 18.1722 9.83906 18.2982 9.63263 18.3841C9.42621 18.4702 9.2048 18.5144 8.98117 18.5144C8.75754 18.5144 8.53612 18.4702 8.32969 18.3841C8.12327 18.2982 7.9359 18.1722 7.77842 18.0133L7.18552 17.4035C7.02674 17.246 6.90073 17.0587 6.81472 16.8522C6.72873 16.6458 6.68445 16.4244 6.68445 16.2008C6.68445 15.9772 6.72873 15.7557 6.81472 15.5493C6.90073 15.3429 7.02674 15.1555 7.18552 14.998L13.5719 8.66248" fill="none" stroke="currentColor" stroke-width="2" stroke-linecap="round" stroke-linejoin="round"/></symbol><symbol id="arrow-right" viewBox="0 0 24 24" fill="none"><path d="M2.45406 11.9991H21.5459M21.5459 11.9991L15.182 18.363M21.5459 11.9991L14.8284 5.28155" stroke="currentColor"/></symbol><symbol id="check" viewBox="0 0 48 48" fill="none"><path d="M24 45C12.4203 45 3 35.5796 3 24C3 12.4204 12.4203 3 24 3C27.9226 3 31.7488 4.08865 35.0655 6.14874C35.6451 6.50843 35.8228 7.27014 35.4631 7.84988C35.1028 8.42952 34.3411 8.60845 33.762 8.24747C30.8371 6.43051 27.4614 5.47066 24 5.47066C13.7828 5.47066 5.47056 13.7832 5.47056 24.0001C5.47056 34.217 13.7828 42.5294 24 42.5294C34.2169 42.5294 42.5293 34.2169 42.5293 24C42.5293 21.9463 42.1961 19.9299 41.5386 18.0069C41.3179 17.3616 41.6628 16.659 42.3081 16.4384C42.9547 16.2189 43.656 16.5625 43.8767 17.2079C44.6217 19.3889 45 21.6742 45 24.0001C44.9999 35.5796 35.5796 45 24 45Z" fill="currentColor"/><path d="M24 31.1248C23.6866 31.1248 23.3836 31.0057 23.1543 30.7896L13.2719 21.5063C12.7746 21.0392 12.7501 20.2574 13.2173 19.7601C13.6844 19.2635 14.4661 19.2377 14.9634 19.7061L23.8952 28.0965L40.125 8.82969C40.5638 8.30791 41.3436 8.24103 41.8653 8.68103C42.3871 9.12048 42.454 9.89957 42.014 10.4214L24.9444 30.6854C24.7263 30.9447 24.4104 31.103 24.072 31.1229C24.0483 31.1241 24.0238 31.1248 24 31.1248Z" fill="currentColor"/></symbol><symbol id="mail" viewBox="0 0 36 36" fill="none"><rect x="1.5" y="1.5" width="33" height="33" rx="16.5" fill="currentColor"/><path fill-rule="evenodd" clip-rule="evenodd" d="M9.44141 12.8026C9.44141 12.3163 9.63462 11.8498 9.97854 11.5059C10.3225 11.162 10.7889 10.9688 11.2753 10.9688H24.7238C25.2102 10.9688 25.6766 11.162 26.0206 11.5059C26.3645 11.8498 26.5577 12.3163 26.5577 12.8026V13.2208L18.4678 18.6148C18.3266 18.6998 18.1643 18.7435 17.9995 18.7408C17.8348 18.7435 17.6725 18.6998 17.5313 18.6148L9.44141 13.2208V12.8026ZM9.44141 15.0571V23.1947C9.44141 23.681 9.63462 24.1475 9.97854 24.4914C10.3225 24.8353 10.7889 25.0286 11.2753 25.0286H24.7238C25.2102 25.0286 25.6766 24.8353 26.0206 24.4914C26.3645 24.1475 26.5577 23.681 26.5577 23.1947V15.0571L19.3114 19.8888L19.3053 19.8937C18.9152 20.1417 18.4618 20.2721 17.9995 20.269C17.5411 20.269 17.0789 20.1443 16.6938 19.8937L16.6877 19.8888L9.44141 15.0571Z" fill="white"/></symbol><symbol id="close-alt" viewBox="0 0 25 24" fill="none"><path d="M21.75 2.75L3.25 21.25M3.25 2.75L21.75 21.25" stroke="currentColor" stroke-width="5" stroke-linecap="round"/></symbol><symbol id="check-bare" viewBox="0 0 24 24" fill="none"><path fill-rule="evenodd" clip-rule="evenodd" d="M23.3782 2.05298C23.5517 2.19637 23.6954 2.37255 23.8009 2.57146C23.9064 2.77037 23.9716 2.98812 23.993 3.21226C24.0143 3.4364 23.9913 3.66254 23.9252 3.87778C23.8591 4.09302 23.7513 4.29314 23.6079 4.4667L9.82501 21.1467L9.81987 21.1501C9.50657 21.5269 9.11317 21.829 8.66833 22.0346C8.2235 22.2401 7.73842 22.3438 7.24844 22.3381C6.75113 22.3321 6.26163 22.2136 5.81661 21.9915C5.37159 21.7695 4.98258 21.4496 4.67872 21.0558L4.67701 21.0524L0.360439 15.505C0.216306 15.3279 0.108988 15.1239 0.0447816 14.9048C-0.019425 14.6857 -0.0392265 14.456 -0.013461 14.2292C0.0123046 14.0024 0.0831182 13.783 0.194824 13.5839C0.30653 13.3848 0.456879 13.21 0.637046 13.0698C0.817213 12.9296 1.02357 12.8268 1.24401 12.7674C1.46445 12.708 1.69452 12.6933 1.92074 12.724C2.14695 12.7548 2.36475 12.8304 2.56134 12.9464C2.75793 13.0625 2.92937 13.2166 3.06558 13.3998L7.28958 18.829L20.9627 2.2827C21.1061 2.10911 21.2823 1.96546 21.4812 1.85997C21.6801 1.75448 21.8979 1.6892 22.122 1.66787C22.3461 1.64654 22.5723 1.66957 22.7875 1.73565C23.0028 1.80172 23.2029 1.90956 23.3764 2.05298H23.3782Z" fill="currentColor"/></symbol><symbol id="check-alt" viewBox="0 0 24 24" fill="none"><path d="M13.875 10.165L11.455 12.63L10.215 11.385L9.55 12.05L11.505 14L14.645 10.955L13.875 10.165Z" fill="currentColor"/><path d="M12 7C9.23859 7 7 9.23859 7 12C7 14.7614 9.23859 17 12 17C14.7614 17 17 14.7614 17 12C17 9.23859 14.7614 7 12 7ZM12 16.095C9.73839 16.095 7.90499 14.2616 7.90499 12C7.90499 9.73839 9.73839 7.90499 12 7.90499C14.2605 7.90774 16.0922 9.73952 16.095 12C16.095 14.2616 14.2616 16.095 12 16.095Z" fill="currentColor"/></symbol><symbol id="phone" viewBox="0 0 48 49" fill="none"><path fill-rule="evenodd" clip-rule="evenodd" d="M27.6053 3.45033C27.6053 2.03017 26.4541 0.878906 25.0339 0.878906C21.7696 0.878906 18.5373 1.52185 15.5215 2.77104C12.5057 4.02022 9.76546 5.85118 7.45724 8.1594C5.14906 10.4676 3.31808 13.2078 2.0689 16.2236C0.819707 19.2394 0.176758 22.4718 0.176758 25.736C0.176758 27.1562 1.32803 28.3075 2.74819 28.3075C4.16835 28.3075 5.31963 27.1562 5.31963 25.736C5.31963 23.1471 5.82953 20.5836 6.82028 18.1917C7.811 15.7999 9.26314 13.6266 11.0938 11.7959C12.9244 9.96529 15.0977 8.51315 17.4896 7.52244C19.8814 6.53168 22.445 6.02175 25.0339 6.02175C26.4541 6.02175 27.6053 4.8705 27.6053 3.45033ZM23.9234 46.6473C22.1461 47.7918 20.0305 48.2934 17.9285 48.0688C15.8265 47.8443 13.8647 46.9072 12.3692 45.4131L11.0663 44.1102C10.4884 43.526 10.1643 42.7374 10.1643 41.9159C10.1643 41.0941 10.4884 40.3059 11.0663 39.7216L16.552 34.2702C17.1303 33.6944 17.9131 33.3712 18.7292 33.3712C19.5452 33.3712 20.328 33.6944 20.9063 34.2702C21.4904 34.8479 22.2789 35.1723 23.1006 35.1723C23.9223 35.1723 24.7108 34.8479 25.2949 34.2702L34.0377 25.5273C34.6157 24.9432 34.9397 24.1547 34.9397 23.333C34.9397 22.5114 34.6157 21.7229 34.0377 21.1387C33.462 20.5604 33.1387 19.7776 33.1387 18.9616C33.1387 18.1456 33.462 17.3627 34.0377 16.7844L39.3177 11.2987C39.9019 10.7208 40.6905 10.3967 41.5119 10.3967C42.3338 10.3967 43.1223 10.7208 43.7062 11.2987L45.0091 12.6016C46.53 14.076 47.4993 16.0274 47.755 18.1302C48.0108 20.2329 47.538 22.3598 46.4148 24.1559C40.4364 33.0317 32.7993 40.6689 23.9234 46.6473ZM26.1104 10.796C27.5305 10.796 28.6818 11.9473 28.6818 13.3674C28.6818 14.7876 27.5305 15.9389 26.1104 15.9389C23.1551 15.9389 20.3209 17.1128 18.2312 19.2025C16.1415 21.2922 14.9675 24.1265 14.9675 27.0817C14.9675 28.5019 13.8162 29.6531 12.3961 29.6531C10.9759 29.6531 9.82464 28.5019 9.82464 27.0817C9.82464 22.7625 11.5404 18.6201 14.5946 15.566C17.6488 12.5118 21.7911 10.796 26.1104 10.796Z" fill="currentColor"/></symbol><symbol id="mail-send" viewBox="0 0 48 49" fill="none"><path fill-rule="evenodd" clip-rule="evenodd" d="M0 9.92801C0 8.56404 0.541835 7.25594 1.50631 6.29146C2.47078 5.32699 3.77889 4.78516 5.14286 4.78516H42.8571C44.2211 4.78516 45.5292 5.32699 46.4937 6.29146C47.4582 7.25594 48 8.56404 48 9.92801V11.1006L25.3131 26.2274C24.9171 26.4658 24.4621 26.5881 24 26.5806C23.5379 26.5881 23.0829 26.4658 22.6869 26.2274L0 11.1006V9.92801ZM0 16.2503V39.0709C0 40.4348 0.541835 41.7429 1.50631 42.7074C2.47078 43.6719 3.77889 44.2137 5.14286 44.2137H42.8571C44.2211 44.2137 45.5292 43.6719 46.4937 42.7074C47.4582 41.7429 48 40.4348 48 39.0709V16.2503L27.6789 29.8L27.6617 29.8137C26.5678 30.5094 25.2964 30.8749 24 30.8663C22.7143 30.8663 21.4183 30.5166 20.3383 29.8137L20.3211 29.8L0 16.2503Z" fill="currentColor"/></symbol><symbol id="clock" viewBox="0 0 48 49" fill="none"><path fill-rule="evenodd" clip-rule="evenodd" d="M24 48.5C37.2549 48.5 48 37.7549 48 24.5C48 11.2452 37.2549 0.5 24 0.5C10.7452 0.5 0 11.2452 0 24.5C0 37.7549 10.7452 48.5 24 48.5ZM26.1429 15.9286C26.1429 14.7451 25.1835 13.7857 24 13.7857C22.8165 13.7857 21.8571 14.7451 21.8571 15.9286V24.5C21.8571 25.0013 22.0329 25.4867 22.3538 25.8718L30.9252 36.1575C31.6829 37.0667 33.0341 37.1895 33.9433 36.4318C34.8525 35.6744 34.9752 34.3231 34.2176 33.4139L26.1429 23.7242V15.9286Z" fill="currentColor"/></symbol><symbol id="" viewBox="" fill="none"/><symbol id="" viewBox="" fill="none"/><symbol id="" viewBox="" fill="none"/><symbol id="" viewBox="" fill="none"/><symbol id="" viewBox="" fill="none"/></svg>