<svg width="48" height="48" viewBox="0 0 48 48" fill="none" xmlns="http://www.w3.org/2000/svg"><path d="M22.5095 11.5733C22.5095 12.3857 23.1777 13.0457 24.0002 13.0457C24.8224 13.0457 25.4906 12.3857 25.4906 11.5733C25.4906 10.7613 24.8224 10.1013 24.0002 10.1013C23.1777 10.1013 22.5095 10.7613 22.5095 11.5733Z" fill="#6966AE"/><path d="M19.8992 11.5733C19.8992 9.33994 21.7387 7.52316 24.0002 7.52316C26.2615 7.52316 28.1009 9.33994 28.1009 11.5733C28.1009 12.0926 28.001 12.5891 27.8198 13.0457H33.693V3.28906C33.693 2.57739 33.1084 2 32.3878 2H15.6123C14.8921 2 14.3071 2.57739 14.3071 3.28906V13.0457H20.1803C19.9995 12.5891 19.8992 12.0926 19.8992 11.5733Z" fill="#6966AE"/><path d="M21.1112 31.6672V32.0513C21.1112 33.6122 22.36 34.9228 23.9401 34.9537C25.5644 34.9852 26.8889 33.6992 26.8889 32.101V31.6672C25.959 31.8905 24.9913 32.0093 24.0002 32.0093C23.0091 32.0093 22.0412 31.8905 21.1112 31.6672Z" fill="#6966AE"/><path d="M40.787 40.6682L38.6322 34.2843C37.6863 31.4809 35.668 29.259 33.1165 27.9991C32.0932 29.1136 30.8662 30.0391 29.4988 30.7182L29.4992 30.7202V32.101C29.4992 35.1014 27.0418 37.5325 23.9999 37.5325C20.9671 37.5325 18.5009 35.0963 18.5009 32.1023V30.7182C17.1336 30.0388 15.907 29.1136 14.8832 27.9991C12.3321 29.259 10.3139 31.4809 9.36797 34.2836L7.21312 40.6682C6.32806 43.2896 8.31093 46 11.1041 46H36.8964C39.6943 46 41.6707 43.2849 40.787 40.6682Z" fill="#6966AE"/><path d="M33.6043 21.1469H14.3958C15.0338 25.8185 19.0981 29.4312 24.0002 29.4312C28.9024 29.4312 32.9663 25.8185 33.6043 21.1469Z" fill="#6966AE"/><path d="M14.3071 15.6238H33.693V18.5688H14.3071V15.6238Z" fill="#6966AE"/></svg>