<svg width="104" height="104" viewBox="0 0 104 104" fill="none" xmlns="http://www.w3.org/2000/svg"><path d="M94.2408 17.1575C87.5563 14.7303 80.5597 13.5 73.4475 13.5H70.1681C63.799 13.5 57.5405 15.1421 52 18.2589C46.4595 15.1421 40.201 13.5 33.8319 13.5H30.5525C23.4386 13.5 16.4421 14.7303 9.75922 17.1575C3.92181 19.2733 0 24.8608 0 31.0593C0 32.9492 0.355613 34.7972 1.06013 36.5531L1.79316 38.381C1.72271 38.679 1.67742 38.9837 1.67742 39.3017C1.67742 41.22 1.94581 43.1266 2.47252 44.9679L4.20361 51.0157C4.6951 52.7315 5.93471 54.084 7.49806 54.7954C5.90284 57.5875 5.03226 60.788 5.03226 64.0455V66.4208C2.87174 68.8245 1.67742 71.8894 1.67742 75.1452C1.67742 82.0183 6.37252 87.8619 13.0973 89.3517C16.5276 90.115 20.0502 90.5 23.5644 90.5H35.8012C41.8248 90.5 47.5163 88.354 52 84.4237C56.4837 88.354 62.1752 90.5 68.1988 90.5H80.4356C83.9498 90.5 87.4724 90.115 90.9027 89.3534C97.6275 87.8636 102.323 82.0216 102.323 75.1469C102.323 71.8911 101.128 68.8262 98.9677 66.4224V64.0471C98.9677 60.7897 98.0972 57.5892 96.5019 54.7971C98.0653 54.0857 99.3049 52.7332 99.7964 51.0174L101.527 44.9712C102.054 43.1266 102.323 41.2217 102.323 39.3017C102.323 38.9837 102.277 38.679 102.207 38.381L102.94 36.5531C103.644 34.7989 104 32.9492 104 31.0593C104 24.8608 100.078 19.2733 94.2408 17.1575ZM5.69819 44.0472C5.25703 42.5056 5.03226 40.9087 5.03226 39.3017C5.03226 38.7359 5.81897 38.4112 6.21819 38.8112L10.0645 42.6495V45.2207C10.0645 46.5648 10.2809 47.8956 10.707 49.1744C10.9603 49.9344 11.3545 50.6123 11.8375 51.2116L11.8174 51.2317C11.3209 51.7271 10.66 52 9.95884 52C8.79135 52 7.75135 51.2166 7.43097 50.0968L5.69819 44.0472ZM92.7948 55.2122C94.5477 57.6746 95.5441 60.6541 95.6112 63.7157L93.8147 62.3716C93.5732 59.8004 92.929 57.303 91.9108 54.9444C92.196 55.0532 92.4912 55.147 92.7948 55.2122ZM75.4839 56.2718V52H77.8021C78.6072 52 79.4006 51.8058 80.1437 51.4945C81.4639 53.8145 82.1935 56.4041 82.1935 59.1024V63.5149C82.1935 64.5493 81.3498 65.3913 80.3115 65.3913C79.8083 65.3913 79.3369 65.1971 78.9813 64.8423C77.5538 63.4178 76.3041 61.8175 75.2625 60.0917C75.4034 58.8229 75.4839 57.5473 75.4839 56.2718ZM84.5906 53.1868C85.3655 53.4965 86.1892 53.6739 87.0363 53.6739C87.1839 53.6739 87.3264 53.6488 87.4724 53.6388C89.5004 56.9782 90.5806 60.7763 90.5806 64.6983C90.5806 65.2624 89.7939 65.5888 89.393 65.1888L85.5484 61.3505V59.1024C85.5484 57.0686 85.2179 55.0783 84.5906 53.1868ZM90.5806 45.2207C90.5806 46.2049 90.4213 47.1791 90.1093 48.1148C89.6681 49.4372 88.4319 50.3244 87.0363 50.3244C86.3938 50.3244 85.7732 50.1369 85.2397 49.7821L83.304 48.4948C83.668 47.7114 83.871 46.8477 83.871 45.9438C83.871 44.1611 83.6965 42.4018 83.3963 40.6643L87.6485 34.2984C87.9454 33.8514 88.4436 33.587 88.9804 33.587C89.8627 33.587 90.5806 34.3034 90.5806 35.1839V45.2207ZM80.5161 45.9438C80.5161 46.9766 79.9408 47.9056 79.0148 48.3659C78.6408 48.5534 78.2214 48.6522 77.8021 48.6522H73.1657C72.7463 48.6522 72.327 48.5534 71.9512 48.3659C71.027 47.9056 70.4516 46.9766 70.4516 45.9438C70.4516 42.4018 71.1192 38.9368 72.441 35.6442C72.9409 34.3938 74.1352 33.587 75.4839 33.587C76.8325 33.587 78.0268 34.3938 78.5284 35.6475C79.8485 38.9368 80.5161 42.4018 80.5161 45.9438ZM70.4516 51.3606C70.9783 51.6234 71.5486 51.7774 72.129 51.8795V56.2718C72.129 58.8547 71.8103 61.4342 71.183 63.94C70.9683 64.7954 70.2034 65.3913 69.3194 65.3913C68.588 65.3913 67.9288 64.9862 67.6033 64.3317C66.2379 61.6099 65.2147 58.7224 64.5437 55.7462L64.8624 53.2086C65.7397 53.0311 66.6086 52.8169 67.4591 52.5357C68.3766 52.231 69.1365 51.6401 69.6632 50.8868C69.9115 51.0609 70.1732 51.2216 70.4516 51.3606ZM42.5712 53.627C45.0052 53.7375 47.4508 53.4597 49.7908 52.7918L48.8112 60.614C48.7324 61.2367 48.5512 61.8359 48.2694 62.3967C47.8618 63.2102 47.0415 63.7174 46.129 63.7174C45.2165 63.7174 44.3963 63.2102 43.9886 62.3967C43.7085 61.8359 43.5257 61.2367 43.4468 60.614L42.5712 53.627ZM60.5532 60.614C60.4743 61.2367 60.2932 61.8359 60.0114 62.3967C59.6037 63.2102 58.7835 63.7174 57.871 63.7174C56.9585 63.7174 56.1382 63.2102 55.7306 62.3967C55.4488 61.8342 55.2676 61.235 55.1888 60.614L54.2092 52.7918C56.212 53.3659 58.2819 53.6739 60.3871 53.6739C60.736 53.6739 61.0815 53.6488 61.4271 53.6321L60.5532 60.614ZM67.0968 48.3843C67.0968 48.8279 66.8166 49.2196 66.3973 49.3586C62.5342 50.6441 58.2383 50.6458 54.3752 49.3569C53.9575 49.2196 53.6774 48.8263 53.6774 48.3843V42.6093C53.6774 40.1621 54.1387 37.7818 55.0563 35.5153C55.4655 34.4624 56.1969 33.5568 57.1564 32.904C59.1089 31.6101 61.6787 31.6168 63.6027 32.8956C64.5773 33.5568 65.307 34.4624 65.7246 35.5371C66.6355 37.7818 67.0968 40.1621 67.0968 42.6093V48.3843ZM50.3226 48.3843C50.3226 48.8279 50.0424 49.2196 49.6231 49.3586C45.76 50.6441 41.4641 50.6458 37.601 49.3569C37.1834 49.2196 36.9032 48.8263 36.9032 48.3843V42.6093C36.9032 40.1621 37.3645 37.7818 38.2821 35.5153C38.6914 34.4624 39.4227 33.5568 40.3822 32.904C42.3347 31.6101 44.9045 31.6168 46.8285 32.8956C47.8031 33.5568 48.5328 34.4624 48.9504 35.5371C49.8613 37.7818 50.3226 40.1621 50.3226 42.6093V48.3843ZM36.5409 52.5323C37.3914 52.8152 38.2619 53.0278 39.1392 53.2035L39.4579 55.7445C38.7886 58.7157 37.7654 61.6032 36.3983 64.3317C36.0695 64.9862 35.412 65.3913 34.679 65.3913C33.7966 65.3913 33.0301 64.7954 32.817 63.9383C32.1897 61.4358 31.871 58.8563 31.871 56.2718V51.8795C32.4514 51.779 33.0217 51.6234 33.5484 51.3606C33.8268 51.2216 34.0885 51.0609 34.3385 50.8852C34.8635 51.6401 35.6234 52.2293 36.5409 52.5323ZM14.607 65.1871C14.2044 65.5905 13.4194 65.2624 13.4194 64.6983C13.4194 60.7746 14.4996 56.9765 16.5276 53.6388C16.6735 53.6488 16.8161 53.6739 16.9637 53.6739C17.8108 53.6739 18.6361 53.4965 19.4111 53.1868C18.7821 55.0783 18.4516 57.0686 18.4516 59.1024V61.3505L14.607 65.1871ZM10.187 62.3716L8.39045 63.7157C8.45587 60.6541 9.45226 57.6729 11.2052 55.2122C11.5088 55.1486 11.8023 55.0549 12.0908 54.9444C11.0726 57.303 10.4285 59.8004 10.187 62.3716ZM21.8065 59.1024C21.8065 56.4041 22.5361 53.8145 23.8563 51.4945C24.5994 51.8058 25.3928 52 26.1979 52H28.5161V56.2718C28.5161 57.549 28.5966 58.8245 28.7375 60.0917C27.6959 61.8175 26.4462 63.4161 25.0187 64.8406C24.6681 65.1904 24.1834 65.3913 23.6885 65.3913C22.6502 65.3913 21.8065 64.5493 21.8065 63.5149V59.1024ZM32.0488 48.3659C32.0471 48.3659 32.0471 48.3659 32.0488 48.3659C31.673 48.5534 31.2537 48.6522 30.8343 48.6522H26.1979C25.7786 48.6522 25.3592 48.5534 24.9835 48.3659C24.0592 47.9056 23.4839 46.9766 23.4839 45.9438C23.4839 42.4018 24.1515 38.9368 25.4733 35.6442C25.9732 34.3938 27.1675 33.587 28.5161 33.587C29.8648 33.587 31.0591 34.3938 31.5606 35.6475C32.8808 38.9368 33.5484 42.4018 33.5484 45.9438C33.5484 46.9766 32.973 47.9056 32.0488 48.3659ZM20.6943 48.4948L18.7586 49.7837C18.2268 50.1386 17.6062 50.3261 16.9637 50.3261C15.5665 50.3261 14.3319 49.4389 13.8907 48.1182C13.5787 47.1791 13.4194 46.2049 13.4194 45.2207V35.1839C13.4194 34.3034 14.1373 33.587 15.0196 33.587C15.5564 33.587 16.0546 33.8514 16.3515 34.2984L20.6021 40.6626C20.3035 42.4001 20.129 44.1611 20.129 45.9438C20.129 46.8477 20.332 47.7114 20.6943 48.4948ZM90.1764 86.0842C86.9826 86.7923 83.7049 87.1522 80.4356 87.1522H68.1988C62.5275 87.1522 57.195 84.9493 53.1859 80.947C52.5569 80.3193 51.4431 80.3193 50.8141 80.947C46.805 84.9493 41.4742 87.1522 35.8012 87.1522H23.5644C20.2951 87.1522 17.0174 86.7923 13.8236 86.0842C8.6471 84.9376 5.03226 80.4398 5.03226 75.1469C5.03226 72.5707 6.03032 70.1486 7.83523 68.314L10.4369 66.3672C11.076 67.7632 12.48 68.7391 14.1138 68.7391C15.179 68.7391 16.2223 68.3073 16.9772 67.5557L18.9079 65.629C19.7248 67.4569 21.5565 68.7391 23.6885 68.7391C25.0858 68.7391 26.4009 68.1968 27.3923 67.2092C28.1655 66.4358 28.8868 65.6123 29.5645 64.7552C30.155 67.102 32.2584 68.7391 34.6806 68.7391C36.6919 68.7391 38.5001 67.6243 39.3992 65.8299C39.8555 64.9209 40.2648 63.9902 40.6506 63.0495C40.7579 63.3324 40.8502 63.622 40.9877 63.8948C41.9674 65.85 43.9366 67.0652 46.129 67.0652C48.3214 67.0652 50.2907 65.85 51.2703 63.8932C51.6209 63.1951 51.844 62.4502 52 61.6869C52.1543 62.4486 52.3791 63.1918 52.7297 63.8932C53.7093 65.85 55.6786 67.0652 57.871 67.0652C60.0617 67.0652 62.031 65.85 63.0106 63.8948C63.1481 63.622 63.2421 63.3324 63.3494 63.0478C63.7352 63.9886 64.1462 64.9193 64.6024 65.8282C65.5015 67.6243 67.3081 68.7391 69.3194 68.7391C71.7432 68.7391 73.8467 67.1004 74.4355 64.7552C75.1148 65.6123 75.8344 66.4358 76.6094 67.2092C77.5991 68.1968 78.9125 68.7391 80.3115 68.7391C82.4435 68.7391 84.2735 67.4569 85.0905 65.629L87.0228 67.5573C87.7777 68.3073 88.821 68.7391 89.8845 68.7391C91.52 68.7391 92.9223 67.7632 93.5631 66.3689L96.1648 68.3156C97.9697 70.1502 98.9677 72.5707 98.9677 75.1469C98.9677 80.4398 95.3529 84.9376 90.1764 86.0842ZM98.3018 44.0489L96.5707 50.0968C96.2486 51.2166 95.2103 52 94.0412 52C93.34 52 92.6791 51.7271 92.1826 51.2317L92.1625 51.2116C92.6455 50.614 93.0381 49.9344 93.293 49.1744C93.7191 47.8956 93.9355 46.5648 93.9355 45.2207V42.6495L97.7801 38.8129C98.1844 38.4078 98.9677 38.7359 98.9677 39.3017C98.9677 40.9087 98.743 42.5056 98.3018 44.0489ZM99.8249 35.3111L99.7326 35.5421C99.2781 35.3663 98.7883 35.2609 98.2733 35.2609C97.2081 35.2609 96.1648 35.6927 95.4099 36.4443L93.9355 37.9157V35.1839C93.9355 32.4571 91.7129 30.2391 88.9804 30.2391C87.3181 30.2391 85.7765 31.0627 84.8573 32.4403L82.2942 36.2786C82.0879 35.6509 81.8899 35.0198 81.6434 34.4005C80.6285 31.8729 78.2113 30.2391 75.4839 30.2391C72.7564 30.2391 70.3392 31.8729 69.3227 34.4055C69.2388 34.6147 69.1818 34.8307 69.103 35.0416C69.0141 34.7972 68.9436 34.5461 68.8446 34.3051C68.1888 32.6161 67.028 31.1732 65.4764 30.1186C62.4201 28.0848 58.3675 28.0764 55.2827 30.127C53.7915 31.1397 52.6575 32.529 51.9983 34.1293C51.3307 32.5173 50.1985 31.1363 48.7005 30.1186C45.6443 28.0848 41.5916 28.0764 38.5068 30.127C36.9686 31.1732 35.8095 32.6161 35.1604 34.2816C35.0597 34.531 34.9859 34.7905 34.8937 35.0433C34.8132 34.8307 34.7561 34.6131 34.6706 34.4022C33.6608 31.8729 31.2436 30.2391 28.5161 30.2391C25.7886 30.2391 23.3715 31.8729 22.355 34.4055C22.1084 35.0215 21.9121 35.6509 21.7058 36.2769L19.1427 32.4403C18.2235 31.0627 16.6819 30.2391 15.0196 30.2391C12.2871 30.2391 10.0645 32.4571 10.0645 35.1839V37.9157L8.59006 36.4426C7.83523 35.6927 6.79187 35.2609 5.72671 35.2609C5.21174 35.2609 4.72194 35.3663 4.26735 35.5421L4.1751 35.3111C3.63161 33.9535 3.35484 32.5223 3.35484 31.0593C3.35484 26.2636 6.38929 21.9415 10.9049 20.3011C17.2221 18.0095 23.8328 16.8478 30.5525 16.8478H33.8319C39.9259 16.8478 45.911 18.5017 51.1361 21.6302C51.6679 21.9466 52.3304 21.9466 52.8622 21.6302C58.089 18.5017 64.0741 16.8478 70.1681 16.8478H73.4475C80.1689 16.8478 86.7796 18.0095 93.0951 20.3011C97.6107 21.9415 100.645 26.2636 100.645 31.0593C100.645 32.5223 100.368 33.9535 99.8249 35.3111Z" fill="#6966AE"/></svg>