<svg width="86" height="90" viewBox="0 0 86 90" fill="none" xmlns="http://www.w3.org/2000/svg"><g clip-path="url(#clip0_27_6774)"><path d="M26.2049 30.6844C24.3321 30.2203 22.5016 30.1781 20.7273 30.5156C15.5033 31.4859 11.3493 35.8312 10.6594 41.0906C10.3918 43.1297 10.589 45.1266 11.2508 47.025C11.4057 47.4609 11.814 47.7281 12.2505 47.7281C12.3632 47.7281 12.4899 47.7141 12.6026 47.6719C13.1517 47.475 13.4474 46.8703 13.2503 46.3219C12.7011 44.7469 12.5322 43.0734 12.7575 41.3719C13.3348 37.0125 16.7846 33.3984 21.1216 32.5969C22.6001 32.3156 24.135 32.3438 25.698 32.7375C26.2612 32.8781 26.8385 32.5406 26.9793 31.9781C27.1061 31.4016 26.7681 30.825 26.2049 30.6844Z" fill="#6966AE"/><path d="M85.0074 0H26.3175C23.628 0 21.4314 2.17969 21.4314 4.87969C21.4314 7.57969 23.614 9.75937 26.3175 9.75937H26.9512C27.1201 11.0531 26.754 12.4172 26.3598 13.8375C25.8388 15.7078 25.3037 17.6344 25.8951 19.6734C26.0218 20.1375 26.4443 20.4328 26.9089 20.4328C27.0075 20.4328 27.1061 20.4188 27.2046 20.3906C27.7679 20.2359 28.0917 19.6453 27.9228 19.0828C27.5003 17.6062 27.9368 16.0453 28.3874 14.3859C28.7958 12.8812 29.2182 11.3484 29.0633 9.74531H32.2738C32.4428 11.0391 32.0767 12.4031 31.6824 13.8234C31.1614 15.6938 30.6263 17.6203 31.2177 19.6594C31.3445 20.1234 31.7669 20.4188 32.2316 20.4188C32.3301 20.4188 32.4287 20.4047 32.5273 20.3766C33.0905 20.2219 33.4144 19.6312 33.2454 19.0687C32.823 17.5922 33.2595 16.0312 33.7101 14.3719C34.1184 12.8672 34.5409 11.3344 34.386 9.73125H37.5965C37.7654 11.025 37.3993 12.3891 37.0051 13.8094C36.4841 15.6797 35.949 17.6062 36.5404 19.6453C36.6671 20.1094 37.0895 20.4047 37.5542 20.4047C37.6528 20.4047 37.7514 20.3906 37.8499 20.3625C38.4132 20.2078 38.737 19.6172 38.5681 19.0547C38.1456 17.5781 38.5821 16.0172 39.0327 14.3578C39.4411 12.8531 39.8635 11.3203 39.7086 9.71719H42.9191C43.0881 11.0109 42.722 12.375 42.3277 13.7953C41.8067 15.6656 41.2716 17.5922 41.863 19.6312C41.9897 20.0953 42.4122 20.3906 42.8769 20.3906C42.9754 20.3906 43.074 20.3766 43.1726 20.3484C43.7358 20.1937 44.0597 19.6031 43.8907 19.0406C43.4683 17.5641 43.9048 16.0031 44.3554 14.3438C44.7637 12.8391 45.1862 11.3062 45.0313 9.70312H48.2418C48.4107 10.9969 48.0446 12.3609 47.6503 13.7812C47.1293 15.6516 46.5943 17.5781 47.1857 19.6172C47.3124 20.0813 47.7348 20.3766 48.1995 20.3766C48.2981 20.3766 48.3966 20.3625 48.4952 20.3344C49.0585 20.1797 49.3823 19.5891 49.2133 19.0266C48.7909 17.55 49.2274 15.9891 49.678 14.3297C50.0864 12.825 50.5088 11.2922 50.3539 9.68906H61.7033C63.4634 9.68906 65.1531 10.3078 66.4908 11.4469C68.2087 12.9094 70.3913 13.7109 72.6442 13.7109H84.937C85.5144 13.7109 85.9931 13.2328 85.9931 12.6562V1.05469C86.0635 0.464063 85.5847 0 85.0074 0ZM83.9513 11.6578H72.7006C70.9404 11.6578 69.2507 11.0391 67.913 9.9C66.1951 8.4375 64.0126 7.63594 61.7596 7.63594H26.3175C24.7968 7.63594 23.5436 6.39844 23.5436 4.86562C23.5436 3.34687 24.7827 2.09531 26.3175 2.09531H83.9373V11.6578H83.9513Z" fill="#6966AE"/><path d="M6.50546 16.4391C7.08278 16.4391 7.56154 15.9609 7.56154 15.3844V12.825C7.56154 12.2484 7.08278 11.7703 6.50546 11.7703C5.92813 11.7703 5.44938 12.2484 5.44938 12.825V15.3844C5.44938 15.9609 5.92813 16.4391 6.50546 16.4391Z" fill="#6966AE"/><path d="M6.50546 24.75C7.08278 24.75 7.56154 24.2719 7.56154 23.6953V21.1359C7.56154 20.5594 7.08278 20.0813 6.50546 20.0813C5.92813 20.0813 5.44938 20.5594 5.44938 21.1359V23.6953C5.44938 24.2719 5.92813 24.75 6.50546 24.75Z" fill="#6966AE"/><path d="M9.39207 19.3078H11.9548C12.5322 19.3078 13.0109 18.8297 13.0109 18.2531C13.0109 17.6766 12.5322 17.1984 11.9548 17.1984H9.39207C8.81475 17.1984 8.33599 17.6766 8.33599 18.2531C8.33599 18.8297 8.80067 19.3078 9.39207 19.3078Z" fill="#6966AE"/><path d="M3.63292 17.1984H1.05608C0.478756 17.1984 0 17.6766 0 18.2531C0 18.8297 0.478756 19.3078 1.05608 19.3078H3.61884C4.19616 19.3078 4.67492 18.8297 4.67492 18.2531C4.67492 17.6766 4.21024 17.1984 3.63292 17.1984Z" fill="#6966AE"/><path d="M25.529 42.4969C24.9517 42.4969 24.4729 42.975 24.4729 43.5516V46.1109C24.4729 46.6875 24.9517 47.1656 25.529 47.1656C26.1063 47.1656 26.5851 46.6875 26.5851 46.1109V43.5516C26.5851 42.975 26.1063 42.4969 25.529 42.4969Z" fill="#6966AE"/><path d="M25.529 50.8219C24.9517 50.8219 24.4729 51.3 24.4729 51.8766V54.4359C24.4729 55.0125 24.9517 55.4906 25.529 55.4906C26.1063 55.4906 26.5851 55.0125 26.5851 54.4359V51.8766C26.5851 51.2859 26.1063 50.8219 25.529 50.8219Z" fill="#6966AE"/><path d="M30.9784 47.9391H28.4156C27.8383 47.9391 27.3595 48.4172 27.3595 48.9938C27.3595 49.5703 27.8383 50.0484 28.4156 50.0484H30.9784C31.5557 50.0484 32.0344 49.5703 32.0344 48.9938C32.0344 48.4172 31.5557 47.9391 30.9784 47.9391Z" fill="#6966AE"/><path d="M22.6564 47.9391H20.0796C19.5023 47.9391 19.0235 48.4172 19.0235 48.9938C19.0235 49.5703 19.5023 50.0484 20.0796 50.0484H22.6424C23.2197 50.0484 23.6984 49.5703 23.6984 48.9938C23.6984 48.4172 23.2338 47.9391 22.6564 47.9391Z" fill="#6966AE"/><path d="M78.1218 62.325C75.5872 61.4813 73.5736 59.4703 72.7428 56.9531C72.5316 56.3063 71.9543 55.8703 71.2784 55.8703H71.2643C70.6025 55.8703 69.997 56.2922 69.7858 56.9391C69.3634 58.1906 68.6452 59.3297 67.7018 60.2578C66.7724 61.2 65.6178 61.9172 64.3787 62.325C63.7169 62.5359 63.2803 63.1266 63.2803 63.8016C63.2803 64.4766 63.7169 65.0812 64.3646 65.2781C65.6178 65.6859 66.7724 66.4031 67.7159 67.3453C68.6311 68.2453 69.3493 69.3984 69.7576 70.6641C69.9688 71.3109 70.5743 71.7469 71.2361 71.7469H71.2502C71.9261 71.7469 72.5034 71.3109 72.7147 70.6781C73.1371 69.4125 73.8552 68.2594 74.7987 67.3313C75.7139 66.3891 76.8686 65.6719 78.1077 65.2641C78.7414 65.0531 79.1779 64.4766 79.1779 63.8016C79.206 63.1406 78.7836 62.55 78.1218 62.325ZM73.3201 65.8547C72.4753 66.6703 71.7853 67.6547 71.2502 68.7234C70.7292 67.6547 70.0392 66.6703 69.2085 65.8688C68.3777 65.0391 67.4061 64.3359 66.3359 63.8156C67.4061 63.2953 68.3777 62.5922 69.2085 61.7625C70.0533 60.9328 70.7433 59.9625 71.2643 58.9078C72.3063 61.0312 74.0383 62.775 76.1645 63.8156C75.1084 64.3219 74.1368 65.025 73.3201 65.8547Z" fill="#6966AE"/><path d="M69.2648 44.6484C71.7008 44.1703 73.5454 42.0047 73.5454 39.4313C73.5454 36.5063 71.1657 34.1297 68.2369 34.1297C68.0538 34.1297 67.8708 34.1438 67.7018 34.1578C66.35 31.1484 63.3507 29.1797 59.9713 29.1797C59.6333 29.1797 59.3236 29.2219 58.9997 29.2641C56.6904 27.3516 53.9728 26.0437 51.0861 25.5094C45.2847 24.4406 39.5256 26.1844 35.4702 30.2062C31.3726 26.1844 25.5994 24.4406 19.8121 25.5094C12.4477 26.8734 6.6181 32.9906 5.61835 40.4016C4.84389 46.2234 6.95605 52.0172 11.2789 55.8984C13.2221 57.6562 14.3486 60.1031 14.3486 62.6063V68.1469C14.3486 76.5844 18.2772 84.6141 22.1495 88.1859C23.4591 89.3812 24.656 90 25.7261 90C25.7965 90 25.881 90 25.9514 89.9859C26.8385 89.9156 27.6271 89.4797 28.2748 88.7063C32.2175 84.0234 30.7108 66.0516 30.5418 64.1109C30.5418 61.4109 32.7526 59.2031 35.4561 59.2031C38.1597 59.2031 40.3704 61.4109 40.3704 64.0687C40.2719 66.2344 39.5115 85.3172 43.1726 89.1281C43.8485 89.8312 44.5666 89.9859 45.0453 89.9859C48.9317 89.9859 56.5637 80.0859 56.5637 68.1469V62.6203C56.5777 60.1031 57.6902 57.6703 59.6193 55.9266C61.6188 54.1266 63.1677 51.8625 64.1674 49.3594C66.7865 49.3031 68.9691 47.2641 69.2648 44.6484ZM65.66 34.8047C64.3364 35.5359 63.3507 36.8016 63.0269 38.3484C62.9142 38.925 63.2663 39.4734 63.8436 39.6C63.914 39.6141 63.9844 39.6281 64.0689 39.6281C64.5617 39.6281 64.9982 39.2906 65.0968 38.7844C65.3503 37.575 66.2796 36.6609 67.4483 36.3656C67.6877 36.2953 67.9412 36.2531 68.2228 36.2531H68.251C70.0111 36.2531 71.4474 37.6875 71.4474 39.4453C71.4474 41.2172 70.0111 42.6516 68.2228 42.6516C67.8989 42.6516 67.6032 42.8625 67.392 43.1156C67.1949 43.3687 67.1245 43.7625 67.1949 44.0859C67.1949 45.8578 65.7445 47.5313 63.9985 47.2922C60.0558 46.7719 60.957 42.8625 61.309 42.3422C61.6329 41.85 61.492 41.2031 60.9992 40.8797C60.5064 40.5563 59.8586 40.6969 59.5348 41.1891C58.9997 42.0047 58.7181 42.9469 58.6758 43.9172C57.6197 43.7062 56.6482 43.2422 55.8033 42.5109C55.6062 42.3422 55.3668 42.2578 55.1133 42.2578C55.0429 42.2578 54.9866 42.2578 54.9162 42.2719C54.6064 42.3281 54.3248 42.5391 54.184 42.8203C53.6348 43.875 52.5506 44.5219 51.3537 44.5219C49.5795 44.5219 48.1432 43.0875 48.1432 41.3156C48.1432 39.4875 49.7484 38.0391 51.5226 38.1234C51.5649 38.9672 51.7198 39.8109 52.0436 40.6406C52.1985 41.0625 52.6069 41.3297 53.0293 41.3297C53.156 41.3297 53.2828 41.3016 53.3954 41.2594C53.9446 41.0484 54.184 40.4578 54.015 39.8953C52.3816 34.6219 56.6059 31.2891 59.9854 31.2891C62.4214 31.2891 64.604 32.6672 65.66 34.8047ZM58.1689 54.3797C55.8033 56.5172 54.4374 59.5266 54.4233 62.6344V68.1609C54.4233 79.4813 47.2279 87.8906 45.0172 87.8906C44.9749 87.8906 44.8623 87.8906 44.6652 87.6797C42.384 85.2891 42.0883 72 42.4544 64.125C42.4544 60.2578 39.3003 57.1078 35.428 57.1078C31.5557 57.1078 28.4015 60.2578 28.4015 64.2234C28.8803 69.5109 29.4998 83.9531 26.6273 87.3563C26.2471 87.8063 25.9514 87.8766 25.7402 87.8906C25.36 87.9328 24.5996 87.6094 23.5436 86.6391C20.6851 84.0094 16.4185 76.9078 16.4185 68.1469V62.6063C16.4185 59.5125 15.0527 56.5031 12.6589 54.3375C8.80067 50.8641 6.98421 45.8859 7.67419 40.6828C8.54721 34.1719 13.6727 28.7719 20.15 27.5766C25.5853 26.5781 31.0065 28.3922 34.6394 32.4422C34.6535 32.4562 34.6817 32.4703 34.6958 32.4844C37.2585 35.325 38.6666 38.9953 38.6666 42.8344C38.6666 43.4109 39.1454 43.8891 39.7227 43.8891C40.3 43.8891 40.7788 43.4109 40.7788 42.8344C40.7788 38.7984 39.3848 34.9313 36.8642 31.7953C40.4408 28.2094 45.51 26.6203 50.6637 27.5766C52.7195 27.9563 54.6768 28.7719 56.4229 29.9531C53.9868 31.0641 52.1422 33.2719 51.6071 35.9859C48.6079 35.8172 45.9888 38.2641 45.9888 41.2875C45.9888 44.2266 48.3826 46.6031 51.3114 46.6031C52.8744 46.6031 54.3248 45.9281 55.3105 44.7891C56.4369 45.5203 57.6902 45.9562 59.0279 46.0828C59.577 47.4188 60.6472 48.4453 61.9567 48.9797C61.1119 51.0328 59.8164 52.8891 58.1689 54.3797Z" fill="#6966AE"/></g><defs><clipPath id="clip0_27_6774"><rect width="86" height="90" fill="white"/></clipPath></defs></svg>