<svg width="90" height="80" viewBox="0 0 90 80" fill="none" xmlns="http://www.w3.org/2000/svg"><path d="M55.1121 0.87086C48.0674 -0.434659 41.0789 1.75067 36.1856 6.73151C31.2501 1.75067 24.2476 -0.434659 17.2169 0.87086C8.37238 2.51695 1.36987 9.95273 0.188722 18.9495C-0.739322 26.0163 1.79171 33.0405 6.98032 37.766C9.38479 39.9513 10.7628 43.0164 10.7769 46.1525L10.7909 52.9497C10.7909 67.4807 19.8886 79.5 24.5428 79.5C29.1409 79.5 29.9846 70.56 29.9846 52.9497V47.9973C29.9846 44.549 32.7546 41.7535 36.1715 41.7535C39.5884 41.7535 42.3585 44.549 42.3585 47.9973V52.9497C42.3585 70.56 43.2022 79.5 47.8002 79.5C52.4404 79.5 61.5521 67.4807 61.5521 52.9497L61.5662 46.1667C61.5662 43.0306 62.9442 39.9797 65.3346 37.7943C70.5373 33.0405 73.0824 25.9879 72.1262 18.9069C70.931 9.92435 63.9285 2.51695 55.1121 0.87086ZM68.8359 29.0956C64.5472 28.3151 61.4396 24.5689 61.4396 20.1556C61.4396 16.381 63.7879 12.9753 67.2891 11.6414C67.8938 12.5922 68.414 13.6139 68.8359 14.664C66.4595 15.3877 64.7722 17.6156 64.7722 20.1556C64.7722 23.0931 66.9657 25.4912 69.8061 25.8176C69.5811 26.9387 69.2577 28.0313 68.8359 29.0956ZM66.8813 20.1556C66.8813 18.5379 67.9781 17.1047 69.5108 16.679C69.7358 17.502 69.9186 18.3393 70.0451 19.2049C70.2561 20.7375 70.2701 22.2558 70.1295 23.7316C68.2875 23.5472 66.8813 22.0288 66.8813 20.1556ZM66.0377 9.88178C62.0021 11.6556 59.3164 15.6857 59.3164 20.1556C59.3164 25.4203 62.8879 29.8903 67.9078 31.0681C67.3454 32.104 66.6985 33.0831 65.9392 34.0197C59.9773 32.033 55.9839 26.4704 55.9839 20.1556C55.9839 14.7633 58.8945 9.86759 63.591 7.3275C64.4909 8.09379 65.3065 8.94521 66.0377 9.88178ZM59.4289 52.9497C59.4289 66.5441 51.0765 77.3714 47.7861 77.3714C44.4536 77.3714 44.4536 60.2578 44.4536 52.9497V47.9973C44.4536 43.3854 40.7274 39.6249 36.1575 39.6249C31.5875 39.6249 27.8613 43.3854 27.8613 47.9973V52.9497C27.8613 60.2578 27.8613 77.3714 24.5288 77.3714C21.2525 77.3714 12.8861 66.5441 12.8861 52.9497L12.872 46.1525C12.872 42.4204 11.2268 38.7877 8.38644 36.1908C3.6478 31.8769 1.42611 25.7041 2.26979 19.2333C3.33845 11.1305 9.6379 4.44685 17.5966 2.97104C24.2757 1.72229 30.9407 3.97856 35.3982 9.00197C35.4263 9.03035 35.4544 9.03035 35.4825 9.05873C38.6322 12.5921 40.3618 17.1473 40.3618 21.9011C40.3618 22.4829 40.8399 22.9653 41.4164 22.9653C41.9929 22.9653 42.471 22.4829 42.471 21.9011C42.471 16.9202 40.7414 12.1522 37.6198 8.32083C42.0351 3.7799 48.3626 1.77905 54.7324 2.95685C55.2245 3.042 55.7026 3.15552 56.1667 3.28323C51.3155 7.49779 48.4329 13.6706 48.4329 20.1415C48.4329 28.6415 53.3263 36.4321 60.9194 40.1358C59.9632 41.9947 59.4429 44.0523 59.4289 46.1525V52.9497ZM62.0302 38.3336C55.0558 35.013 50.5562 27.9036 50.5562 20.1556C50.5562 13.8835 53.5231 7.90931 58.4868 4.12047C59.6539 4.61713 60.7787 5.22732 61.8193 5.93684C56.9119 8.9594 53.8747 14.295 53.8747 20.1556C53.8747 27.0806 58.0649 33.1966 64.3925 35.7084C64.2238 35.8786 64.0691 36.0631 63.9004 36.2192C63.2113 36.872 62.5786 37.5815 62.0302 38.3336Z" fill="#6966AE"/><path d="M25.8927 6.17808C23.3055 5.39761 20.6901 5.28408 18.1168 5.76656C11.3393 7.0295 5.98197 12.7199 5.06798 19.6164C4.4071 24.6966 6.02415 29.6774 9.51135 33.3102C9.72227 33.523 9.98943 33.6365 10.2707 33.6365C10.5378 33.6365 10.805 33.5372 11.0018 33.3386C11.4237 32.927 11.4237 32.2601 11.03 31.8344C7.95054 28.6273 6.57254 24.3986 7.16311 19.9144C7.95054 13.9261 12.6189 8.97359 18.4965 7.88093C20.7463 7.45522 23.0242 7.55455 25.274 8.23569C25.8365 8.40598 26.413 8.0796 26.5817 7.52617C26.7645 6.93017 26.4552 6.34836 25.8927 6.17808Z" fill="#6966AE"/><path d="M75.4868 12.4644C75.6275 12.4644 75.7681 12.4361 75.9087 12.3793L81.5051 9.95273C81.8285 9.81083 82.0535 9.52702 82.1238 9.17226C82.1941 8.8175 82.0816 8.46274 81.8285 8.2215L79.7333 6.10713L83.9095 4.30494C84.4439 4.0779 84.697 3.45352 84.4579 2.90009C84.2329 2.36086 83.6143 2.11962 83.0659 2.34666L77.4695 4.77323C77.1461 4.91513 76.9211 5.19894 76.8508 5.5537C76.7805 5.90846 76.893 6.26322 77.1461 6.50446L79.2412 8.61883L75.065 10.421C74.5307 10.6481 74.2776 11.2724 74.5166 11.8259C74.6994 12.2232 75.0791 12.4644 75.4868 12.4644Z" fill="#6966AE"/><path d="M89.3372 19.1623L83.6705 16.8777C83.3471 16.7499 82.9815 16.7925 82.6862 16.9912C82.3909 17.1898 82.2222 17.5162 82.2222 17.871V20.8652L78.0038 19.1623C77.4554 18.9353 76.8508 19.2049 76.6399 19.7583C76.4289 20.2976 76.682 20.9219 77.2304 21.1348L82.8971 23.4194C83.0237 23.4762 83.1502 23.4904 83.2909 23.4904C83.5018 23.4904 83.6986 23.4336 83.8814 23.3059C84.1767 23.1073 84.3455 22.7809 84.3455 22.4261V19.4319L88.5638 21.1348C89.1122 21.3618 89.7169 21.0922 89.9278 20.5388C90.1387 19.9996 89.8715 19.3752 89.3372 19.1623Z" fill="#6966AE"/><path d="M82.0675 30.8978C81.9269 30.5714 81.6457 30.3444 81.2942 30.2734C80.9567 30.2025 80.5911 30.316 80.352 30.5714L78.2569 32.6858L76.4711 28.4712C76.2462 27.932 75.6275 27.6908 75.0791 27.9178C74.5447 28.1449 74.2916 28.7692 74.5307 29.3227L76.9352 34.9704C77.0758 35.2968 77.357 35.5239 77.7085 35.5948C78.0601 35.6658 78.4116 35.5523 78.6506 35.2968L80.7458 33.1825L82.5315 37.397C82.7003 37.7943 83.094 38.0356 83.5018 38.0356C83.6424 38.0356 83.783 38.0072 83.9236 37.9504C84.4579 37.7234 84.711 37.099 84.472 36.5456L82.0675 30.8978Z" fill="#6966AE"/></svg>