<svg width="83" height="102" viewBox="0 0 83 102" fill="none" xmlns="http://www.w3.org/2000/svg"><path d="M41.5276 20.6712C42.1819 20.6712 42.7124 20.1414 42.7124 19.4878C42.7124 18.8343 42.1819 18.3045 41.5276 18.3045C40.8732 18.3045 40.3428 18.8343 40.3428 19.4878C40.3428 20.1414 40.8732 20.6712 41.5276 20.6712Z" fill="#6966AE"/><path d="M82.6484 93.485C76.1398 87.0319 67.9094 87.1266 67.5934 87.1423H65.3818C63.5493 87.1423 61.8905 88.1679 61.0533 89.8088C58.2255 95.3783 54.213 99.1176 51.0693 99.1176C49.1104 99.1176 46.6934 98.3918 45.398 92.6645C45.003 90.8816 43.3601 89.5721 41.496 89.5721C39.6319 89.5721 38.0048 90.8659 37.594 92.6645C36.3144 98.376 33.8974 99.1176 31.9227 99.1176C28.779 99.1176 24.7665 95.3783 21.9387 89.8088C21.1015 88.1679 19.4427 87.1423 17.6102 87.1423H15.4302C15.0826 87.1423 6.85215 87.0161 0.343595 93.485C-0.114532 93.9425 -0.114532 94.6998 0.343595 95.1574C0.801721 95.6149 1.56 95.6149 2.01813 95.1574C7.7842 89.4459 15.3196 89.5248 15.3986 89.509H17.6102C18.5423 89.509 19.3953 90.0297 19.8219 90.8816C23.1393 97.4294 27.7838 101.5 31.9227 101.5C36.0301 101.5 38.6367 98.7862 39.9005 93.201C40.0584 92.4752 40.7377 91.9545 41.496 91.9545C42.2543 91.9545 42.9178 92.4752 43.0915 93.201C44.3553 98.7862 46.9619 101.5 51.0693 101.5C55.2082 101.5 59.8527 97.4294 63.1701 90.8816C63.5967 90.0297 64.4497 89.509 65.3818 89.509H67.625C67.704 89.509 75.2236 89.4301 80.9897 95.1574C81.4478 95.6149 82.2061 95.6149 82.6642 95.1574C83.1223 94.6998 83.1065 93.9425 82.6484 93.485Z" fill="#6966AE"/><path d="M11.5756 47.856C10.7857 53.7095 12.9184 59.5315 17.2627 63.4601C19.1742 65.1799 20.2642 67.5938 20.28 70.0552V73.2265C20.28 84.9177 27.531 95.1732 31.9069 95.1732C34.8137 95.1732 36.4408 87.237 36.7094 71.554C36.7094 68.9192 38.842 66.7892 41.496 66.7892C44.1342 66.7892 46.2668 68.9192 46.2668 71.5698C46.5354 87.2212 48.1625 95.1732 51.0693 95.1732C55.4452 95.1732 62.6962 84.9177 62.6962 73.2265V70.0552C62.712 67.5938 63.802 65.1956 65.6977 63.4759C70.0578 59.5315 72.1905 53.678 71.4006 47.8087C70.4212 40.5194 64.813 34.4924 57.6568 32.9619C56.156 28.844 53.66 24.726 51.2746 21.0971C52.5068 20.0085 53.7548 18.9198 54.987 17.847C60.7689 12.8139 66.7403 7.59149 71.1636 2.46375C71.5902 1.97465 71.527 1.21732 71.0373 0.791322C70.5475 0.365326 69.7893 0.428436 69.3627 0.917543C65.05 5.91906 59.1418 11.0783 53.4231 16.0641C40.3428 27.4713 26.8359 39.2414 30.2798 50.9642C21.3384 40.5036 28.6685 29.696 36.425 18.2887C40.0268 12.9874 43.7392 7.5126 45.6823 2.08509C45.9035 1.46976 45.5875 0.791322 44.9714 0.570435C44.3553 0.349549 43.676 0.665101 43.4549 1.28043C42.9494 2.7793 42.2701 4.2624 41.496 5.7455C40.6587 4.13618 40.011 2.70042 39.5213 1.31198C39.3001 0.696656 38.6209 0.365326 38.0048 0.586213C37.3887 0.8071 37.0727 1.48554 37.2939 2.10087C37.9574 3.97841 38.8894 5.95061 40.1374 8.20681C38.4313 11.1415 36.4408 14.0761 34.4819 16.9634C33.9922 17.6734 33.5025 18.3992 33.0286 19.1249C31.8121 18.0521 30.5957 16.9792 29.3793 15.9221C23.7238 10.9837 17.8946 5.8875 13.6135 0.933321C13.1869 0.444214 12.4445 0.381103 11.9389 0.807099C11.4492 1.2331 11.386 1.97464 11.8126 2.47953C16.1885 7.55993 22.0967 12.7192 27.8154 17.705C29.1108 18.8409 30.4062 19.9769 31.7016 21.1129C29.1108 25.0416 26.757 29.0017 25.2878 32.9777C18.1315 34.5555 12.5392 40.5825 11.5756 47.856ZM54.987 32.5833C52.412 32.4097 49.8845 32.8199 47.5464 33.7035C46.33 32.1257 44.8767 30.4533 43.1547 28.6546C45.1452 26.6667 47.2779 24.6944 49.4895 22.7065C51.5116 25.7831 53.5811 29.1911 54.987 32.5833ZM41.5118 37.5059C40.3744 36.4172 39.0632 35.4864 37.6572 34.729C38.8104 33.2775 40.1058 31.8102 41.496 30.3428C42.981 31.9048 44.2606 33.3406 45.3348 34.6975C43.9604 35.4548 42.665 36.3857 41.5118 37.5059ZM30.1376 54.2617C32.8074 56.8493 33.7236 53.2993 33.2023 51.9424C31.2434 46.9094 32.5704 41.8763 36.2354 36.6539C37.8942 37.5059 39.4107 38.6261 40.6429 39.9988C40.6587 40.0145 40.6903 40.0303 40.7061 40.0461C43.2337 42.8703 44.6239 46.4991 44.6239 50.2858C44.6239 50.9327 45.161 51.4691 45.8087 51.4691C46.4564 51.4691 46.9935 50.9327 46.9935 50.2858C46.9935 46.2625 45.6191 42.397 43.1231 39.273C46.6618 35.7861 51.6538 34.2399 56.709 35.1866C63.1069 36.3541 68.1779 41.687 69.0468 48.14C69.7419 53.3151 67.941 58.2693 64.1022 61.7246C61.7168 63.8861 60.3266 66.9154 60.3108 70.0552V73.2265C60.3108 84.2077 53.5337 92.4279 51.2114 92.7907C49.8686 91.355 48.7944 80.7682 48.6206 71.554C48.6206 67.6254 45.4138 64.4225 41.4644 64.4225C37.5308 64.4225 34.3239 67.6254 34.3239 71.5383C34.166 80.784 33.0917 91.3708 31.7332 92.8065C29.4109 92.4436 22.6338 84.2235 22.6338 73.2422V70.0709C22.618 66.9312 21.2278 63.8861 18.8266 61.7246C15.0668 58.3324 13.2185 53.2835 13.8978 48.1874C14.6719 42.3654 18.8898 37.4586 24.4189 35.6757C22.855 41.8921 23.8344 48.14 30.1376 54.2617Z" fill="#6966AE"/><path d="M55.7295 40.6141C59.8053 41.3556 63.0279 44.7478 63.5808 48.8658C63.8336 50.8064 63.5493 52.7471 62.7278 54.4826C62.4434 55.0822 62.712 55.7764 63.2965 56.0604C63.4545 56.1393 63.6282 56.1708 63.802 56.1708C64.2443 56.1708 64.6709 55.9184 64.8762 55.4924C65.8873 53.3466 66.2506 50.9484 65.9189 48.566C65.2396 43.4383 61.2112 39.2257 56.1402 38.2948C55.4925 38.1686 54.8764 38.6103 54.7659 39.2414C54.6553 39.8883 55.0818 40.5036 55.7295 40.6141Z" fill="#6966AE"/></svg>