<svg width="48" height="48" viewBox="0 0 48 48" fill="none" xmlns="http://www.w3.org/2000/svg"><path fill-rule="evenodd" clip-rule="evenodd" d="M16.44 0.480469C12.7286 0.480469 9.72 3.48904 9.72 7.20047C9.72 10.9119 12.7286 13.9205 16.44 13.9205C20.1514 13.9205 23.16 10.9119 23.16 7.20047C23.16 3.48904 20.1514 0.480469 16.44 0.480469ZM16.44 15.6005C9.01714 15.6005 3 21.6176 3 29.0405V33.2405C3 34.1682 3.75223 34.9205 4.68 34.9205H8.24914L9.73474 46.0626C9.84617 46.8972 10.5579 47.5205 11.4 47.5205H21.48C22.3221 47.5205 23.0338 46.8972 23.1453 46.0626L24.6309 34.9205H28.2C29.1278 34.9205 29.88 34.1682 29.88 33.2405V29.0405C29.88 21.6176 23.8629 15.6005 16.44 15.6005ZM41.64 18.1205C43.0317 18.1205 44.16 19.2488 44.16 20.6405V35.7605C44.16 37.1521 43.0317 38.2805 41.64 38.2805C40.2483 38.2805 39.12 37.1521 39.12 35.7605V20.6405C39.12 19.2488 40.2483 18.1205 41.64 18.1205ZM38.28 44.1605C38.28 42.3049 39.7845 40.8005 41.64 40.8005C43.4955 40.8005 45 42.3049 45 44.1605C45 46.016 43.4959 47.5205 41.64 47.5205C39.7841 47.5205 38.28 46.0164 38.28 44.1605Z" fill="#34356D"/></svg>