<svg width="19" height="17" viewBox="0 0 19 17" fill="none" xmlns="http://www.w3.org/2000/svg">
<path d="M13.4583 4.0441C13.4583 5.88417 11.047 9.16326 9.98819 10.5147C9.7342 10.8382 9.2625 10.8382 9.01181 10.5147C7.95295 9.16326 5.54167 5.88417 5.54167 4.0441C5.54167 1.80974 7.31302 0 9.5 0C11.687 0 13.4583 1.80974 13.4583 4.0441ZM13.7222 6.75365C13.8377 6.52111 13.9432 6.28858 14.0389 6.05941C14.0554 6.01897 14.0719 5.97516 14.0884 5.93472L17.9148 4.371C18.4359 4.15868 19 4.54961 19 5.12253V14.2487C19 14.579 18.8021 14.8756 18.5019 15.0002L13.7222 16.9515V6.75365ZM4.53889 4.66083C4.61806 5.13601 4.77639 5.61456 4.96111 6.05941C5.05677 6.28858 5.16233 6.52111 5.27778 6.75365V15.226L1.08524 16.9414C0.564063 17.1537 0 16.7628 0 16.1899V7.0637C0 6.73343 0.197917 6.43686 0.49809 6.31217L4.54219 4.66083H4.53889ZM10.8128 11.1887C11.2714 10.6023 11.9905 9.64855 12.6667 8.59372V16.9953L6.33333 15.1452V8.59372C7.00955 9.64855 7.72865 10.6023 8.18715 11.1887C8.86337 12.0514 10.1366 12.0514 10.8128 11.1887ZM9.5 5.12253C9.84994 5.12253 10.1855 4.9805 10.433 4.7277C10.6804 4.47489 10.8194 4.13202 10.8194 3.7745C10.8194 3.41697 10.6804 3.0741 10.433 2.82129C10.1855 2.56849 9.84994 2.42646 9.5 2.42646C9.15006 2.42646 8.81446 2.56849 8.56701 2.82129C8.31957 3.0741 8.18056 3.41697 8.18056 3.7745C8.18056 4.13202 8.31957 4.47489 8.56701 4.7277C8.81446 4.9805 9.15006 5.12253 9.5 5.12253Z" fill="#A3A3A4"/>
</svg>
