<svg xmlns="http://www.w3.org/2000/svg">
	<symbol id="tg" viewBox="0 0 30 31" fill="none">
		<path d="M25.8308 5.05522L3.66826 13.6015C2.15576 14.209 2.16451 15.0527 3.39076 15.429L9.08076 17.204L22.2458 8.89772C22.8683 8.51897 23.437 8.72272 22.9695 9.13772L12.3033 18.764H12.3008L12.3033 18.7652L11.9108 24.6302C12.4858 24.6302 12.7395 24.3665 13.062 24.0552L15.8258 21.3677L21.5745 25.614C22.6345 26.1977 23.3958 25.8977 23.6595 24.6327L27.4333 6.84772C27.8195 5.29897 26.842 4.59772 25.8308 5.05522Z" fill="currentColor"/>
	</symbol>
	<symbol id="wa" viewBox="0 0 26 27" fill="none">
		<path d="M13 0.408966C20.1799 0.408966 26 6.22906 26 13.409C26 20.5889 20.1799 26.4089 13 26.4089C10.7026 26.4127 8.44567 25.8047 6.46101 24.6474L0.00521828 26.4089L1.76282 19.9506C0.604639 17.9653 -0.00381989 15.7074 1.80443e-05 13.409C1.80443e-05 6.22906 5.82012 0.408966 13 0.408966ZM8.56961 7.29896L8.30961 7.30936C8.14129 7.31961 7.97679 7.36383 7.82601 7.43936C7.68499 7.51922 7.55626 7.61905 7.44381 7.73576C7.28781 7.88266 7.19941 8.01006 7.10451 8.13356C6.62367 8.75873 6.36478 9.52627 6.36871 10.315C6.37131 10.952 6.53771 11.5721 6.79771 12.1519C7.32941 13.3245 8.20431 14.566 9.35871 15.7165C9.63691 15.9934 9.90991 16.2716 10.2037 16.5303C11.6381 17.7932 13.3474 18.7039 15.1957 19.1901L15.9341 19.3032C16.1746 19.3162 16.4151 19.298 16.6569 19.2863C17.0355 19.2667 17.4052 19.1642 17.7398 18.986C17.91 18.8983 18.0762 18.8028 18.2377 18.7C18.2377 18.7 18.2936 18.6636 18.4002 18.583C18.5757 18.453 18.6836 18.3607 18.8292 18.2086C18.9371 18.0968 19.0307 17.9655 19.1022 17.816C19.2036 17.6041 19.305 17.1998 19.3466 16.8631C19.3778 16.6057 19.3687 16.4653 19.3648 16.3782C19.3596 16.2391 19.2439 16.0948 19.1178 16.0337L18.3612 15.6944C18.3612 15.6944 17.2302 15.2017 16.5386 14.8871C16.4662 14.8555 16.3887 14.8374 16.3098 14.8338C16.2209 14.8246 16.131 14.8346 16.0462 14.8631C15.9615 14.8916 15.8838 14.9379 15.8184 14.9989C15.8119 14.9963 15.7248 15.0704 14.7849 16.2092C14.731 16.2816 14.6567 16.3364 14.5715 16.3665C14.4863 16.3966 14.394 16.4007 14.3065 16.3782C14.2218 16.3554 14.1388 16.3268 14.0582 16.2924C13.897 16.2248 13.8411 16.1988 13.7306 16.152C12.9845 15.8264 12.2937 15.3865 11.6831 14.8481C11.5193 14.7051 11.3672 14.5491 11.2112 14.3983C10.6998 13.9085 10.2541 13.3544 9.88521 12.7499L9.80851 12.6264C9.75342 12.5434 9.70888 12.4539 9.67591 12.3599C9.62651 12.1688 9.75521 12.0154 9.75521 12.0154C9.75521 12.0154 10.0711 11.6696 10.218 11.4824C10.361 11.3004 10.4819 11.1236 10.5599 10.9975C10.7133 10.7505 10.7614 10.497 10.6808 10.3007C10.3168 9.41146 9.93981 8.52616 9.55241 7.64736C9.47571 7.47316 9.24821 7.34836 9.04151 7.32366C8.97131 7.31586 8.90111 7.30806 8.83091 7.30286C8.65633 7.29419 8.48139 7.29592 8.30701 7.30806L8.56831 7.29766L8.56961 7.29896Z" fill="currentColor"/>
	</symbol>
	<symbol id="triangle" viewBox="0 0 45 22" fill="none">
		<path d="M20.0821 2.06669L5.16747 16.8708C3.26674 18.7575 4.60279 22 7.28089 22H37.562C40.2618 22 41.5877 18.7126 39.6435 16.8395L24.2769 2.03539C23.1025 0.90399 21.2394 0.917891 20.0821 2.06669Z" fill="currentColor"/>
		<path d="M0 22H45L35 12.5L22.1642 8L8.5 13.5L0 22Z" fill="currentColor"/>
	</symbol>
	<symbol id="arrow-right" viewBox="0 0 15 12" fill="none">
		<path d="M14.495 6.49497C14.7683 6.22161 14.7683 5.77839 14.495 5.50503L10.0402 1.05025C9.76684 0.776886 9.32362 0.776886 9.05025 1.05025C8.77689 1.32362 8.77689 1.76684 9.05025 2.0402L13.0101 6L9.05025 9.9598C8.77689 10.2332 8.77689 10.6764 9.05025 10.9497C9.32362 11.2231 9.76684 11.2231 10.0402 10.9497L14.495 6.49497ZM0 6.7H14V5.3H0V6.7Z" fill="currentColor"/>
	</symbol>
	<symbol id="chevron-left" viewBox="0 0 11 17" fill="none">
		<path fill-rule="evenodd" clip-rule="evenodd" d="M1.34963 7.72535C1.12466 7.95038 0.998282 8.25555 0.998282 8.57375C0.998282 8.89195 1.12466 9.19712 1.34963 9.42215L8.13803 16.2106C8.24872 16.3252 8.38114 16.4166 8.52754 16.4795C8.67394 16.5424 8.83141 16.5755 8.99074 16.5769C9.15008 16.5782 9.30809 16.5479 9.45557 16.4875C9.60305 16.4272 9.73703 16.3381 9.8497 16.2254C9.96237 16.1128 10.0515 15.9788 10.1118 15.8313C10.1721 15.6838 10.2025 15.5258 10.2011 15.3665C10.1997 15.2071 10.1666 15.0497 10.1037 14.9033C10.0409 14.7569 9.94944 14.6244 9.83483 14.5138L3.89483 8.57375L9.83483 2.63375C10.0534 2.40743 10.1744 2.10431 10.1716 1.78967C10.1689 1.47503 10.0427 1.17406 9.82021 0.951569C9.59772 0.72908 9.29674 0.602877 8.98211 0.600143C8.66747 0.597409 8.36435 0.718362 8.13803 0.936952L1.34963 7.72535Z" fill="currentColor"/>
	</symbol>
	<symbol id="chevron-right" viewBox="0 0 19 31" fill="none">
		<path fill-rule="evenodd" clip-rule="evenodd" d="M18.2746 13.8252C18.7391 14.2619 19 14.854 19 15.4714C19 16.0888 18.7391 16.6809 18.2746 17.1175L4.25951 30.2892C4.03097 30.5116 3.75759 30.6889 3.45533 30.811C3.15307 30.933 2.82797 30.9972 2.49901 30.9999C2.17005 31.0026 1.84382 30.9437 1.53935 30.8266C1.23487 30.7095 0.958255 30.5366 0.725637 30.318C0.49302 30.0994 0.309059 29.8394 0.184489 29.5533C0.059919 29.2672 -0.00276502 28.9606 9.35424e-05 28.6514C0.0029521 28.3422 0.0712967 28.0367 0.201139 27.7526C0.330981 27.4686 0.519721 27.2116 0.756346 26.9969L13.0199 15.4714L0.756346 3.94593C0.305052 3.50679 0.0553359 2.91864 0.0609806 2.30814C0.0666254 1.69765 0.327179 1.11366 0.786525 0.681965C1.24587 0.250265 1.86725 0.00539304 2.51684 8.80188e-05C3.16643 -0.005217 3.79225 0.22947 4.25951 0.653603L18.2746 13.8252Z" fill="currentColor"/>
	</symbol>
	<symbol id="location" viewBox="0 0 14 20" fill="none">
		<path d="M7 20C7 20 14 12.8925 14 7.5C14 5.51088 13.2625 3.60322 11.9497 2.1967C10.637 0.790176 8.85651 0 7 0C5.14348 0 3.36301 0.790176 2.05025 2.1967C0.737498 3.60322 2.76642e-08 5.51088 0 7.5C0 12.8925 7 20 7 20ZM7 11.25C6.07174 11.25 5.1815 10.8549 4.52513 10.1517C3.86875 9.44839 3.5 8.49456 3.5 7.5C3.5 6.50544 3.86875 5.55161 4.52513 4.84835C5.1815 4.14509 6.07174 3.75 7 3.75C7.92826 3.75 8.8185 4.14509 9.47487 4.84835C10.1313 5.55161 10.5 6.50544 10.5 7.5C10.5 8.49456 10.1313 9.44839 9.47487 10.1517C8.8185 10.8549 7.92826 11.25 7 11.25Z" fill="currentColor"/>
	</symbol>
	<symbol id="phone" viewBox="0 0 24 33" fill="none">
		<path d="M20 0H4C2.93913 0 1.92172 0.347677 1.17157 0.966547C0.421427 1.58542 0 2.42479 0 3.3V29.7C0 30.5752 0.421427 31.4146 1.17157 32.0335C1.92172 32.6523 2.93913 33 4 33H20C21.0609 33 22.0783 32.6523 22.8284 32.0335C23.5786 31.4146 24 30.5752 24 29.7V3.3C24 2.42479 23.5786 1.58542 22.8284 0.966547C22.0783 0.347677 21.0609 0 20 0ZM14 31.35H10V29.7H14V31.35ZM20 28.05H4V4.95H20V28.05Z" fill="currentColor"/>
	</symbol>
	<symbol id="download" viewBox="0 0 14 15" fill="none">
		<path d="M12.8333 11.7857V13.9286H1.16667V11.7857H0V13.9286C0 14.2127 0.122916 14.4853 0.341709 14.6862C0.560501 14.8871 0.857247 15 1.16667 15H12.8333C13.1428 15 13.4395 14.8871 13.6583 14.6862C13.8771 14.4853 14 14.2127 14 13.9286V11.7857H12.8333ZM12.8333 6.42857L12.0108 5.67321L7.58333 9.73393V0H6.41667V9.73393L1.98917 5.67321L1.16667 6.42857L7 11.7857L12.8333 6.42857Z" fill="currentColor"/>
	</symbol>
	<symbol id="search" viewBox="0 0 16 16" fill="none">
		<path d="M14.7556 16L9.15556 10.4C8.71111 10.7556 8.2 11.037 7.62222 11.2444C7.04444 11.4519 6.42963 11.5556 5.77778 11.5556C4.16296 11.5556 2.79644 10.9961 1.67822 9.87733C0.56 8.75852 0.000592593 7.392 0 5.77778C0 4.16296 0.559407 2.79644 1.67822 1.67822C2.79704 0.56 4.16356 0.000592593 5.77778 0C7.39259 0 8.75911 0.559407 9.87733 1.67822C10.9956 2.79704 11.555 4.16356 11.5556 5.77778C11.5556 6.42963 11.4519 7.04444 11.2444 7.62222C11.037 8.2 10.7556 8.71111 10.4 9.15556L16 14.7556L14.7556 16ZM5.77778 9.77778C6.88889 9.77778 7.83348 9.38874 8.61156 8.61067C9.38963 7.83259 9.77837 6.8883 9.77778 5.77778C9.77778 4.66667 9.38874 3.72207 8.61067 2.944C7.83259 2.16593 6.8883 1.77719 5.77778 1.77778C4.66667 1.77778 3.72207 2.16682 2.944 2.94489C2.16593 3.72296 1.77719 4.66726 1.77778 5.77778C1.77778 6.88889 2.16682 7.83348 2.94489 8.61156C3.72296 9.38963 4.66726 9.77837 5.77778 9.77778Z" fill="currentColor"/>
	</symbol>
	<symbol id="close" viewBox="0 0 17 17" fill="none">
		<path d="M1 1L16.0632 15.932" stroke="currentColor" stroke-linecap="round"/>
		<path d="M16 1L1 16" stroke="currentColor" stroke-linecap="round"/>
	</symbol>
	<symbol id="tap" viewBox="0 0 21 23" fill="none">
		<path d="M6.51053 2.32543C7.08649 2.17822 7.70304 2.27973 8.23513 2.60938C8.76721 2.93904 9.17499 3.47214 9.37575 4.10056L9.42248 4.26463L10.6074 8.90397L15.7015 8.25215C16.5847 8.1391 17.4916 8.37645 18.2601 8.92177C19.0286 9.46708 19.6086 10.2848 19.8964 11.2288L19.9531 11.4321L20.0342 11.7495C20.569 13.8434 20.3487 16.0426 19.4201 17.8815C18.4914 19.7203 16.9273 21.0544 15.0588 21.6014L14.833 21.6633L14.2213 21.8196C12.9168 22.1527 11.5368 22.0895 10.2262 21.6365C8.91572 21.1836 7.72319 20.3576 6.77404 19.2455L6.59057 19.023L2.54897 13.9553C2.03701 13.3134 2.03151 12.2813 2.70501 11.739C3.54162 11.0671 4.42034 10.7568 5.48041 11.043C5.71094 11.1054 5.94454 11.1949 6.18042 11.3085L6.41927 11.43L4.88515 5.42352C4.71454 4.75553 4.78994 4.05386 5.09475 3.47285C5.39957 2.89185 5.90884 2.47911 6.51053 2.32543ZM7.02516 4.34034C6.91895 4.36743 6.82666 4.43501 6.76435 4.53133C6.70205 4.62764 6.67368 4.74658 6.68418 4.86743L6.70008 4.95996L8.88727 13.5233C8.9404 13.732 8.93389 13.9503 8.86865 14.1482C8.8034 14.346 8.68264 14.5137 8.52303 14.6281C8.36341 14.7425 8.17281 14.7979 7.97753 14.7867C7.78225 14.7755 7.59192 14.6982 7.4328 14.5656L7.0268 14.2325L6.66074 13.9461C5.96536 13.4186 5.48991 13.1505 5.11704 13.0493C4.89498 12.9828 4.66308 12.9908 4.452 13.0722L4.3292 13.125L7.98399 17.7076C8.6664 18.5631 9.53667 19.2136 10.5042 19.5914C11.4717 19.9692 12.501 20.0606 13.4849 19.8559L13.7067 19.8047L14.3183 19.6484C15.7271 19.2887 16.9262 18.3368 17.6638 16.9927C18.4013 15.6486 18.6199 14.017 18.2735 12.4406L18.2193 12.213L18.1382 11.8957C18.0187 11.4275 17.756 11.0114 17.3954 10.7189C17.0347 10.4264 16.5986 10.2757 16.1618 10.2927L16.0123 10.3052L10.9184 10.958C10.4859 11.0134 10.0418 10.9008 9.66225 10.6395C9.28273 10.3783 8.99158 9.98463 8.83885 9.52632L8.79249 9.36752L7.60755 4.72818C7.57343 4.59459 7.4929 4.47867 7.38368 4.40594C7.27446 4.3332 7.1455 4.30961 7.02516 4.34034ZM2.54872 7.63003C2.7894 7.56856 3.04733 7.61575 3.26577 7.76122C3.48421 7.90669 3.64526 8.13852 3.71351 8.40571C3.78175 8.67291 3.75159 8.95358 3.62967 9.18598C3.50774 9.41838 3.30403 9.58348 3.06336 9.64495L2.15589 9.87672C1.91521 9.9382 1.65729 9.89101 1.43885 9.74554C1.22041 9.60007 1.05935 9.36824 0.991107 9.10104C0.922863 8.83385 0.953021 8.55318 1.07495 8.32078C1.19688 8.08838 1.40058 7.92328 1.64126 7.86181L2.54872 7.63003ZM13.181 3.84125C13.4124 3.78246 13.66 3.82396 13.8732 3.95728C14.0864 4.09059 14.2491 4.30566 14.3281 4.55854C14.4072 4.81142 14.3965 5.08301 14.2984 5.31784C14.2002 5.55267 14.0219 5.733 13.8 5.82199L13.6956 5.85616L12.7882 6.08794C12.5568 6.14673 12.3092 6.10523 12.096 5.97191C11.8828 5.83859 11.7201 5.62352 11.641 5.37065C11.562 5.11777 11.5727 4.84617 11.6708 4.61134C11.769 4.37652 11.9472 4.19618 12.1692 4.10719L12.2735 4.07302L13.181 3.84125ZM1.97912 2.72407L3.1439 3.49975C3.35773 3.64753 3.5142 3.87866 3.5796 4.14334C3.645 4.40802 3.6141 4.68508 3.49356 4.91484C3.37301 5.14461 3.17247 5.30869 2.93512 5.37176C2.69777 5.43482 2.44261 5.39183 2.22459 5.25202L1.0598 4.47634C0.845971 4.32856 0.689505 4.09743 0.624105 3.83275C0.558705 3.56807 0.589604 3.29101 0.710147 3.06125C0.830691 2.83148 1.03123 2.6674 1.26858 2.60433C1.50593 2.54127 1.76109 2.58426 1.97912 2.72407ZM11.9612 0.174515C12.1796 0.31999 12.3406 0.551784 12.4089 0.818926C12.4771 1.08607 12.447 1.36668 12.3251 1.59906L11.6749 2.83829C11.6158 2.9559 11.5353 3.05822 11.438 3.1393C11.3408 3.22038 11.2288 3.27858 11.1086 3.31052C10.9884 3.34246 10.8624 3.34749 10.738 3.32532C10.6135 3.30315 10.4931 3.25422 10.3837 3.18139C10.2744 3.10856 10.1783 3.01328 10.101 2.90112C10.0237 2.78896 9.9669 2.66217 9.93378 2.52813C9.90066 2.39409 9.89193 2.2555 9.9081 2.12044C9.92427 1.98538 9.965 1.85655 10.0279 1.74148L10.6781 0.502248C10.8 0.269915 11.0037 0.104871 11.2443 0.043412C11.485 -0.0180472 11.7428 0.0291108 11.9612 0.174515Z" fill="currentColor"/>
	</symbol>
</svg>