<svg width="19" height="20" viewBox="0 0 19 20" fill="none" xmlns="http://www.w3.org/2000/svg">
<path d="M6.39779 2.92207L1.75453 3.04371C1.53251 3.04883 1.31369 3.09774 1.11062 3.18765C0.907557 3.27756 0.724249 3.40669 0.57122 3.56763C0.418191 3.72857 0.298454 3.91815 0.218882 4.12548C0.139311 4.33281 0.101472 4.55382 0.107537 4.77582L0.229102 9.41644C0.2377 9.72071 0.36593 10.0093 0.585972 10.2197L10.1038 19.2542C10.4295 19.5623 10.8641 19.7287 11.3123 19.7169C11.7605 19.7052 12.1858 19.5162 12.4949 19.1915L16.796 14.6591C17.1042 14.3334 17.2706 13.8989 17.2589 13.4508C17.2471 13.0026 17.0582 12.5774 16.7334 12.2683L7.21859 3.2364C6.99707 3.0276 6.70211 2.91465 6.39779 2.92207ZM4.99027 6.58544C4.99653 6.82436 4.9318 7.05977 4.80427 7.26191C4.67673 7.46404 4.49213 7.62381 4.27379 7.72103C4.05545 7.81824 3.81319 7.84852 3.57763 7.80805C3.34208 7.76758 3.12382 7.65817 2.95046 7.49365C2.77709 7.32913 2.6564 7.1169 2.60365 6.88379C2.5509 6.65068 2.56846 6.40717 2.65411 6.18404C2.73976 5.96091 2.88965 5.76819 3.08483 5.63025C3.28 5.49231 3.5117 5.41534 3.75062 5.40908C4.07101 5.40069 4.3816 5.51991 4.61408 5.74052C4.84656 5.96113 4.98188 6.26506 4.99027 6.58544Z" fill="#A3A3A4"/>
<path d="M1.82778 1.22855C1.83197 1.38874 1.89963 1.5407 2.01587 1.65101C2.13211 1.76131 2.28741 1.82092 2.4476 1.81673L7.25583 1.69077L17.3791 11.2968C17.4362 11.3538 17.5041 11.3988 17.5788 11.4292C17.6535 11.4595 17.7335 11.4746 17.8142 11.4735C17.8948 11.4724 17.9744 11.4552 18.0483 11.4229C18.1222 11.3905 18.1889 11.3437 18.2444 11.2852C18.2999 11.2267 18.3431 11.1577 18.3715 11.0822C18.4 11.0068 18.413 10.9264 18.4098 10.8458C18.4067 10.7652 18.3875 10.6861 18.3532 10.613C18.319 10.54 18.2705 10.4746 18.2106 10.4206L8.06102 0.789117C7.95256 0.686677 7.82485 0.606791 7.68528 0.554095C7.54571 0.5014 7.39707 0.476943 7.24797 0.482143L2.41596 0.608722C2.25577 0.612918 2.1038 0.680578 1.9935 0.796817C1.88319 0.913057 1.82358 1.06835 1.82778 1.22855Z" fill="#A3A3A4"/>
</svg>
