<svg width="21" height="23" viewBox="0 0 21 23" fill="none" xmlns="http://www.w3.org/2000/svg">
<path d="M6.51053 2.32543C7.08649 2.17822 7.70304 2.27973 8.23513 2.60938C8.76721 2.93904 9.17499 3.47214 9.37575 4.10056L9.42248 4.26463L10.6074 8.90397L15.7015 8.25215C16.5847 8.1391 17.4916 8.37645 18.2601 8.92177C19.0286 9.46708 19.6086 10.2848 19.8964 11.2288L19.9531 11.4321L20.0342 11.7495C20.569 13.8434 20.3487 16.0426 19.4201 17.8815C18.4914 19.7203 16.9273 21.0544 15.0588 21.6014L14.833 21.6633L14.2213 21.8196C12.9168 22.1527 11.5368 22.0895 10.2262 21.6365C8.91572 21.1836 7.72319 20.3576 6.77404 19.2455L6.59057 19.023L2.54897 13.9553C2.03701 13.3134 2.03151 12.2813 2.70501 11.739C3.54162 11.0671 4.42034 10.7568 5.48041 11.043C5.71094 11.1054 5.94454 11.1949 6.18042 11.3085L6.41927 11.43L4.88515 5.42352C4.71454 4.75553 4.78994 4.05386 5.09475 3.47285C5.39957 2.89185 5.90884 2.47911 6.51053 2.32543ZM7.02516 4.34034C6.91895 4.36743 6.82666 4.43501 6.76435 4.53133C6.70205 4.62764 6.67368 4.74658 6.68418 4.86743L6.70008 4.95996L8.88727 13.5233C8.9404 13.732 8.93389 13.9503 8.86865 14.1482C8.8034 14.346 8.68264 14.5137 8.52303 14.6281C8.36341 14.7425 8.17281 14.7979 7.97753 14.7867C7.78225 14.7755 7.59192 14.6982 7.4328 14.5656L7.0268 14.2325L6.66074 13.9461C5.96536 13.4186 5.48991 13.1505 5.11704 13.0493C4.89498 12.9828 4.66308 12.9908 4.452 13.0722L4.3292 13.125L7.98399 17.7076C8.6664 18.5631 9.53667 19.2136 10.5042 19.5914C11.4717 19.9692 12.501 20.0606 13.4849 19.8559L13.7067 19.8047L14.3183 19.6484C15.7271 19.2887 16.9262 18.3368 17.6638 16.9927C18.4013 15.6486 18.6199 14.017 18.2735 12.4406L18.2193 12.213L18.1382 11.8957C18.0187 11.4275 17.756 11.0114 17.3954 10.7189C17.0347 10.4264 16.5986 10.2757 16.1618 10.2927L16.0123 10.3052L10.9184 10.958C10.4859 11.0134 10.0418 10.9008 9.66225 10.6395C9.28273 10.3783 8.99158 9.98463 8.83885 9.52632L8.79249 9.36752L7.60755 4.72818C7.57343 4.59459 7.4929 4.47867 7.38368 4.40594C7.27446 4.3332 7.1455 4.30961 7.02516 4.34034ZM2.54872 7.63003C2.7894 7.56856 3.04733 7.61575 3.26577 7.76122C3.48421 7.90669 3.64526 8.13852 3.71351 8.40571C3.78175 8.67291 3.75159 8.95358 3.62967 9.18598C3.50774 9.41838 3.30403 9.58348 3.06336 9.64495L2.15589 9.87672C1.91521 9.9382 1.65729 9.89101 1.43885 9.74554C1.22041 9.60007 1.05935 9.36824 0.991107 9.10104C0.922863 8.83385 0.953021 8.55318 1.07495 8.32078C1.19688 8.08838 1.40058 7.92328 1.64126 7.86181L2.54872 7.63003ZM13.181 3.84125C13.4124 3.78246 13.66 3.82396 13.8732 3.95728C14.0864 4.09059 14.2491 4.30566 14.3281 4.55854C14.4072 4.81142 14.3965 5.08301 14.2984 5.31784C14.2002 5.55267 14.0219 5.733 13.8 5.82199L13.6956 5.85616L12.7882 6.08794C12.5568 6.14673 12.3092 6.10523 12.096 5.97191C11.8828 5.83859 11.7201 5.62352 11.641 5.37065C11.562 5.11777 11.5727 4.84617 11.6708 4.61134C11.769 4.37652 11.9472 4.19618 12.1692 4.10719L12.2735 4.07302L13.181 3.84125ZM1.97912 2.72407L3.1439 3.49975C3.35773 3.64753 3.5142 3.87866 3.5796 4.14334C3.645 4.40802 3.6141 4.68508 3.49356 4.91484C3.37301 5.14461 3.17247 5.30869 2.93512 5.37176C2.69777 5.43482 2.44261 5.39183 2.22459 5.25202L1.0598 4.47634C0.845971 4.32856 0.689505 4.09743 0.624105 3.83275C0.558705 3.56807 0.589604 3.29101 0.710147 3.06125C0.830691 2.83148 1.03123 2.6674 1.26858 2.60433C1.50593 2.54127 1.76109 2.58426 1.97912 2.72407ZM11.9612 0.174515C12.1796 0.31999 12.3406 0.551784 12.4089 0.818926C12.4771 1.08607 12.447 1.36668 12.3251 1.59906L11.6749 2.83829C11.6158 2.9559 11.5353 3.05822 11.438 3.1393C11.3408 3.22038 11.2288 3.27858 11.1086 3.31052C10.9884 3.34246 10.8624 3.34749 10.738 3.32532C10.6135 3.30315 10.4931 3.25422 10.3837 3.18139C10.2744 3.10856 10.1783 3.01328 10.101 2.90112C10.0237 2.78896 9.9669 2.66217 9.93378 2.52813C9.90066 2.39409 9.89193 2.2555 9.9081 2.12044C9.92427 1.98538 9.965 1.85655 10.0279 1.74148L10.6781 0.502248C10.8 0.269915 11.0037 0.104871 11.2443 0.043412C11.485 -0.0180472 11.7428 0.0291108 11.9612 0.174515Z" fill="black"/>
</svg>
