<svg width="10" height="10" viewBox="0 0 10 10" fill="none" xmlns="http://www.w3.org/2000/svg"><path d="M5.55966 6.63744L8.87841 3.15431C8.93382 3.0962 8.96472 3.01898 8.96472 2.93869C8.96472 2.85839 8.93382 2.78118 8.87841 2.72306L8.87466 2.71931C8.8478 2.69104 8.81548 2.66853 8.77964 2.65315C8.74381 2.63776 8.70522 2.62983 8.66622 2.62983C8.62723 2.62983 8.58864 2.63776 8.55281 2.65315C8.51697 2.66853 8.48465 2.69104 8.45779 2.71931L5.33279 5.99931L2.20904 2.71931C2.18218 2.69104 2.14985 2.66853 2.11402 2.65314C2.07818 2.63776 2.0396 2.62983 2.0006 2.62983C1.9616 2.62983 1.92302 2.63776 1.88718 2.65314C1.85135 2.66853 1.81902 2.69104 1.79216 2.71931L1.78841 2.72306C1.73301 2.78118 1.7021 2.85839 1.7021 2.93869C1.7021 3.01898 1.73301 3.09619 1.78841 3.15431L5.10716 6.63744C5.13635 6.66807 5.17145 6.69246 5.21034 6.70912C5.24923 6.72578 5.2911 6.73437 5.33341 6.73437C5.37572 6.73437 5.41759 6.72578 5.45648 6.70912C5.49537 6.69246 5.53048 6.66807 5.55966 6.63744Z" fill="white"/></svg>