<svg width="10" height="10" viewBox="0 0 10 10" fill="none" xmlns="http://www.w3.org/2000/svg"><path d="M6.63756 4.77371L3.15444 1.45496C3.09632 1.39956 3.0191 1.36865 2.93881 1.36865C2.85852 1.36865 2.7813 1.39956 2.72319 1.45496L2.71944 1.45871C2.69116 1.48557 2.66865 1.5179 2.65327 1.55373C2.63788 1.58957 2.62995 1.62815 2.62995 1.66715C2.62995 1.70615 2.63788 1.74473 2.65327 1.78057C2.66865 1.8164 2.69116 1.84873 2.71944 1.87559L5.99943 5.00059L2.71944 8.12434C2.69116 8.1512 2.66865 8.18353 2.65327 8.21936C2.63788 8.25519 2.62995 8.29378 2.62995 8.33278C2.62995 8.37177 2.63788 8.41036 2.65327 8.44619C2.66865 8.48203 2.69116 8.51435 2.71944 8.54121L2.72319 8.54496C2.7813 8.60037 2.85852 8.63127 2.93881 8.63127C3.0191 8.63127 3.09632 8.60037 3.15444 8.54496L6.63756 5.22621C6.66819 5.19703 6.69258 5.16192 6.70924 5.12303C6.72591 5.08414 6.7345 5.04227 6.7345 4.99996C6.7345 4.95765 6.72591 4.91578 6.70924 4.87689C6.69258 4.838 6.66819 4.8029 6.63756 4.77371Z" fill="#373737"/></svg>