<svg width="72" height="72" viewBox="0 0 72 72" fill="none" xmlns="http://www.w3.org/2000/svg"><path d="M9 36H36V40.5H9V36ZM4.5 24.75H27V29.25H4.5V24.75Z" fill="#184B94"/><path d="M67.3177 37.3635L60.5677 21.6135C60.3943 21.2089 60.1059 20.864 59.7384 20.6216C59.3708 20.3793 58.9403 20.25 58.5 20.25H51.75V15.75C51.75 15.1533 51.5129 14.581 51.091 14.159C50.669 13.7371 50.0967 13.5 49.5 13.5H13.5V18H47.25V46.251C46.2254 46.8471 45.3286 47.6398 44.6112 48.5835C43.8938 49.5271 43.3698 50.6033 43.0695 51.75H28.9305C28.3829 49.629 27.0805 47.7806 25.2675 46.5511C23.4545 45.3217 21.2553 44.7957 19.0822 45.0717C16.9092 45.3477 14.9113 46.4068 13.4633 48.0505C12.0152 49.6941 11.2163 51.8095 11.2163 54C11.2163 56.1905 12.0152 58.3059 13.4633 59.9495C14.9113 61.5932 16.9092 62.6522 19.0822 62.9283C21.2553 63.2043 23.4545 62.6783 25.2675 61.4489C27.0805 60.2194 28.3829 58.371 28.9305 56.25H43.0695C43.5589 58.181 44.6783 59.8937 46.2505 61.1171C47.8227 62.3405 49.7579 63.0048 51.75 63.0048C53.7421 63.0048 55.6773 62.3405 57.2495 61.1171C58.8217 59.8937 59.941 58.181 60.4305 56.25H65.25C65.8467 56.25 66.419 56.0129 66.841 55.591C67.2629 55.169 67.5 54.5967 67.5 54V38.25C67.4999 37.9452 67.4379 37.6436 67.3177 37.3635ZM20.25 58.5C19.36 58.5 18.4899 58.2361 17.7499 57.7416C17.0099 57.2471 16.4331 56.5443 16.0925 55.7221C15.7519 54.8998 15.6628 53.995 15.8365 53.1221C16.0101 52.2492 16.4387 51.4474 17.068 50.818C17.6973 50.1887 18.4992 49.7601 19.3721 49.5865C20.245 49.4128 21.1498 49.5019 21.9721 49.8425C22.7943 50.1831 23.4971 50.7599 23.9916 51.4999C24.4861 52.24 24.75 53.11 24.75 54C24.75 55.1935 24.2759 56.3381 23.432 57.182C22.5881 58.0259 21.4435 58.5 20.25 58.5ZM51.75 24.75H57.015L61.839 36H51.75V24.75ZM51.75 58.5C50.86 58.5 49.9899 58.2361 49.2499 57.7416C48.5099 57.2471 47.9331 56.5443 47.5925 55.7221C47.2519 54.8998 47.1628 53.995 47.3365 53.1221C47.5101 52.2492 47.9387 51.4474 48.568 50.818C49.1973 50.1887 49.9992 49.7601 50.8721 49.5865C51.745 49.4128 52.6498 49.5019 53.4721 49.8425C54.2943 50.1831 54.9971 50.7599 55.4916 51.4999C55.9861 52.24 56.25 53.11 56.25 54C56.25 55.1935 55.7759 56.3381 54.932 57.182C54.0881 58.0259 52.9435 58.5 51.75 58.5ZM63 51.75H60.4305C59.9349 49.8227 58.8137 48.1144 57.2428 46.8928C55.6719 45.6713 53.74 45.0055 51.75 45V40.5H63V51.75Z" fill="#184B94"/></svg>