<svg width="72" height="72" viewBox="0 0 72 72" fill="none" xmlns="http://www.w3.org/2000/svg"><path d="M15 18C15 18.078 15.03 18.51 15.876 19.26C16.716 20.004 18.108 20.814 20.082 21.555C24.012 23.025 29.64 24 36 24C42.36 24 47.991 23.028 51.918 21.555C53.892 20.814 55.281 20.004 56.124 19.257C56.97 18.51 57 18.078 57 18C57 17.922 56.97 17.49 56.124 16.74C55.284 15.996 53.892 15.186 51.918 14.445C47.988 12.975 42.36 12 36 12C29.64 12 24.009 12.972 20.082 14.445C18.108 15.186 16.719 15.996 15.876 16.743C15.03 17.49 15 17.922 15 18ZM9 18C9 15.591 10.311 13.656 11.895 12.252C13.485 10.845 15.609 9.714 17.976 8.826C22.734 7.041 29.106 6 36 6C42.891 6 49.266 7.041 54.024 8.826C56.394 9.714 58.518 10.845 60.105 12.252C61.686 13.656 63 15.591 63 18V54C63 56.409 61.686 58.344 60.105 59.748C58.515 61.155 56.391 62.286 54.024 63.174C49.266 64.959 42.894 66 36 66C29.109 66 22.734 64.956 17.976 63.174C15.606 62.286 13.482 61.155 11.895 59.748C10.311 58.344 9 56.409 9 54V18ZM15 30C15 30.075 15.03 30.51 15.876 31.26C16.716 32.004 18.108 32.814 20.082 33.555C24.012 35.025 29.64 36 36 36C42.36 36 47.991 35.028 51.918 33.555C53.892 32.814 55.281 32.004 56.124 31.257C56.97 30.507 57 30.075 57 30V25.848C56.0372 26.3528 55.0432 26.7957 54.024 27.174C49.266 28.959 42.894 30 36 30C29.109 30 22.734 28.959 17.976 27.174C16.9568 26.7957 15.9628 26.3528 15 25.848V30ZM15 37.848V42C15 42.075 15.03 42.51 15.876 43.26C16.716 44.004 18.108 44.814 20.082 45.555C24.012 47.025 29.64 48 36 48C42.36 48 47.991 47.028 51.918 45.555C53.892 44.814 55.281 44.004 56.124 43.257C56.97 42.507 57 42.075 57 42V37.848C56.07 38.34 55.071 38.778 54.024 39.174C49.266 40.959 42.894 42 36 42C29.109 42 22.734 40.956 17.976 39.174C16.9568 38.7957 15.9628 38.3529 15 37.848ZM15 49.848V54C15 54.078 15.03 54.51 15.876 55.26C16.716 56.004 18.108 56.814 20.082 57.555C24.012 59.025 29.64 60 36 60C42.36 60 47.991 59.028 51.918 57.555C53.892 56.814 55.281 56.004 56.124 55.26C56.97 54.51 57 54.075 57 54V49.848C56.07 50.34 55.071 50.778 54.024 51.174C49.266 52.959 42.894 54 36 54C29.109 54 22.734 52.956 17.976 51.174C16.9568 50.7958 15.9628 50.3529 15 49.848Z" fill="#184B94"/></svg>