<svg width="72" height="72" viewBox="0 0 72 72" fill="none" xmlns="http://www.w3.org/2000/svg"><path d="M9 15C9 13.4087 9.63214 11.8826 10.7574 10.7574C11.8826 9.63214 13.4087 9 15 9H57C58.5913 9 60.1174 9.63214 61.2426 10.7574C62.3679 11.8826 63 13.4087 63 15V57C63 58.5913 62.3679 60.1174 61.2426 61.2426C60.1174 62.3679 58.5913 63 57 63H15C13.4087 63 11.8826 62.3679 10.7574 61.2426C9.63214 60.1174 9 58.5913 9 57V15ZM57 15H15V57H57V15ZM36 21C36.7956 21 37.5587 21.3161 38.1213 21.8787C38.6839 22.4413 39 23.2044 39 24V48C39 48.7957 38.6839 49.5587 38.1213 50.1213C37.5587 50.6839 36.7956 51 36 51C35.2044 51 34.4413 50.6839 33.8787 50.1213C33.3161 49.5587 33 48.7957 33 48V24C33 23.2044 33.3161 22.4413 33.8787 21.8787C34.4413 21.3161 35.2044 21 36 21ZM48 27C48.7957 27 49.5587 27.3161 50.1213 27.8787C50.6839 28.4413 51 29.2044 51 30V48C51 48.7957 50.6839 49.5587 50.1213 50.1213C49.5587 50.6839 48.7957 51 48 51C47.2043 51 46.4413 50.6839 45.8787 50.1213C45.3161 49.5587 45 48.7957 45 48V30C45 29.2044 45.3161 28.4413 45.8787 27.8787C46.4413 27.3161 47.2043 27 48 27ZM24 33C24.7956 33 25.5587 33.3161 26.1213 33.8787C26.6839 34.4413 27 35.2044 27 36V48C27 48.7957 26.6839 49.5587 26.1213 50.1213C25.5587 50.6839 24.7956 51 24 51C23.2044 51 22.4413 50.6839 21.8787 50.1213C21.3161 49.5587 21 48.7957 21 48V36C21 35.2044 21.3161 34.4413 21.8787 33.8787C22.4413 33.3161 23.2044 33 24 33Z" fill="#184B94"/></svg>