<svg width="72" height="72" viewBox="0 0 72 72" fill="none" xmlns="http://www.w3.org/2000/svg"><path d="M46.5 30C47.6935 30 48.8381 29.5259 49.682 28.682C50.5259 27.8381 51 26.6935 51 25.5C51 24.3065 50.5259 23.1619 49.682 22.318C48.8381 21.4741 47.6935 21 46.5 21C45.3065 21 44.1619 21.4741 43.318 22.318C42.4741 23.1619 42 24.3065 42 25.5C42 26.6935 42.4741 27.8381 43.318 28.682C44.1619 29.5259 45.3065 30 46.5 30Z" fill="#184B94"/><path d="M9 15C9 13.4087 9.63214 11.8826 10.7574 10.7574C11.8826 9.63214 13.4087 9 15 9H57C58.5913 9 60.1174 9.63214 61.2426 10.7574C62.3679 11.8826 63 13.4087 63 15V57C63 58.5913 62.3679 60.1174 61.2426 61.2426C60.1174 62.3679 58.5913 63 57 63H15C13.4087 63 11.8826 62.3679 10.7574 61.2426C9.63214 60.1174 9 58.5913 9 57V15ZM57 15H15V38.76L25.125 30.66C25.6571 30.234 26.3184 30.0019 27 30.0019C27.6816 30.0019 28.3429 30.234 28.875 30.66L41.775 40.98L45.879 36.879C46.4416 36.3166 47.2045 36.0006 48 36.0006C48.7955 36.0006 49.5584 36.3166 50.121 36.879L57 43.758V15ZM15 57H57V52.242L48 43.242L44.121 47.121C43.599 47.6433 42.9027 47.9548 42.1654 47.9957C41.4281 48.0367 40.7016 47.8043 40.125 47.343L27 36.84L15 46.44V57Z" fill="#184B94"/></svg>