<svg width="72" height="72" viewBox="0 0 72 72" fill="none" xmlns="http://www.w3.org/2000/svg"><path d="M58.6379 18.1322L18.1379 58.6322C17.8239 58.9461 17.4512 59.1952 17.041 59.3651C16.6309 59.535 16.1912 59.6224 15.7472 59.6224C15.3033 59.6224 14.8636 59.535 14.4534 59.3651C14.0433 59.1952 13.6706 58.9461 13.3566 58.6322C13.0427 58.3182 12.7936 57.9455 12.6237 57.5354C12.4538 57.1252 12.3664 56.6855 12.3664 56.2416C12.3664 55.7976 12.4538 55.3579 12.6237 54.9478C12.7936 54.5376 13.0427 54.1649 13.3566 53.8509L53.8566 13.3509C54.4907 12.7169 55.3506 12.3607 56.2472 12.3607C57.1439 12.3607 58.0038 12.7169 58.6379 13.3509C59.2719 13.985 59.6281 14.8449 59.6281 15.7416C59.6281 16.6382 59.2719 17.4982 58.6379 18.1322ZM13.4213 29.3259C11.5818 27.4846 10.4377 25.0624 10.1839 22.4721C9.93007 19.8818 10.5823 17.2836 12.0293 15.1202C13.4764 12.9568 15.6288 11.3621 18.1198 10.6078C20.6109 9.85351 23.2864 9.98626 25.6905 10.9834C28.0946 11.9806 30.0786 13.7806 31.3044 16.0765C32.5302 18.3725 32.922 21.0225 32.4131 23.575C31.9041 26.1275 30.5258 28.4245 28.5131 30.0747C26.5004 31.7249 23.9778 32.6262 21.3751 32.625C19.897 32.6286 18.4328 32.3389 17.0675 31.7726C15.7022 31.2063 14.4629 30.3747 13.4213 29.3259ZM16.8751 21.375C16.8746 22.4161 17.2351 23.4252 17.8952 24.2303C18.5554 25.0354 19.4742 25.5867 20.4952 25.7902C21.5163 25.9938 22.5763 25.837 23.4947 25.3466C24.4131 24.8562 25.133 24.0625 25.5318 23.1008C25.9306 22.1391 25.9836 21.0688 25.6818 20.0724C25.3799 19.076 24.7419 18.2151 23.8765 17.6364C23.011 17.0576 21.9717 16.7969 20.9355 16.8986C19.8994 17.0003 18.9305 17.4581 18.1941 18.1941C17.7746 18.6105 17.4419 19.1061 17.2155 19.6522C16.989 20.1983 16.8733 20.7839 16.8751 21.375ZM61.875 50.625C61.875 53.2277 60.9725 55.7498 59.3213 57.7616C57.6702 59.7735 55.3726 61.1506 52.8199 61.6584C50.2673 62.1662 47.6176 61.7732 45.3222 60.5464C43.0268 59.3196 41.2278 57.3349 40.2317 54.9304C39.2355 52.5259 39.1039 49.8504 39.8592 47.3598C40.6145 44.8691 42.21 42.7174 44.3739 41.2712C46.5378 39.825 49.1362 39.1739 51.7263 39.4286C54.3165 39.6834 56.7382 40.8284 58.5788 42.6684C59.6276 43.7104 60.4591 44.9503 61.0249 46.3161C61.5908 47.682 61.8797 49.1466 61.875 50.625ZM55.125 50.625C55.1272 50.0334 55.0116 49.4473 54.7852 48.9007C54.5587 48.3541 54.2259 47.858 53.806 47.4412C53.0696 46.7054 52.101 46.2476 51.0649 46.1458C50.0289 46.0441 48.9897 46.3046 48.1242 46.8832C47.2588 47.4617 46.6207 48.3224 46.3186 49.3186C46.0166 50.3148 46.0693 51.385 46.4677 52.3467C46.8662 53.3084 47.5858 54.1023 48.5039 54.593C49.4219 55.0837 50.4818 55.2409 51.5028 55.0378C52.5238 54.8348 53.4428 54.284 54.1033 53.4794C54.7638 52.6748 55.1249 51.666 55.125 50.625Z" fill="#184B94"/></svg>