<svg width="48" height="49" viewBox="0 0 48 49" fill="none" xmlns="http://www.w3.org/2000/svg"><path d="M24 8.5C19.7565 8.5 15.6869 10.1857 12.6863 13.1863C9.68571 16.1869 8 20.2565 8 24.5C8 28.7435 9.68571 32.8131 12.6863 35.8137C15.6869 38.8143 19.7565 40.5 24 40.5C28.2435 40.5 32.3131 38.8143 35.3137 35.8137C38.3143 32.8131 40 28.7435 40 24.5C40 20.2565 38.3143 16.1869 35.3137 13.1863C32.3131 10.1857 28.2435 8.5 24 8.5ZM4 24.5C4 13.454 12.954 4.5 24 4.5C35.046 4.5 44 13.454 44 24.5C44 35.546 35.046 44.5 24 44.5C12.954 44.5 4 35.546 4 24.5ZM24 12.5C24.5304 12.5 25.0391 12.7107 25.4142 13.0858C25.7893 13.4609 26 13.9696 26 14.5V23.672L31.414 29.086C31.7783 29.4632 31.9799 29.9684 31.9753 30.4928C31.9708 31.0172 31.7605 31.5188 31.3896 31.8896C31.0188 32.2605 30.5172 32.4708 29.9928 32.4753C29.4684 32.4799 28.9632 32.2783 28.586 31.914L22.586 25.914C22.2109 25.539 22.0001 25.0304 22 24.5V14.5C22 13.9696 22.2107 13.4609 22.5858 13.0858C22.9609 12.7107 23.4696 12.5 24 12.5Z" fill="#184B94"/></svg>