<svg width="48" height="49" viewBox="0 0 48 49" fill="none" xmlns="http://www.w3.org/2000/svg"><path d="M18 10.5C17.4696 10.5 16.9609 10.7107 16.5858 11.0858C16.2107 11.4609 16 11.9696 16 12.5C16 13.0304 16.2107 13.5391 16.5858 13.9142C16.9609 14.2893 17.4696 14.5 18 14.5C18.5304 14.5 19.0391 14.2893 19.4142 13.9142C19.7893 13.5391 20 13.0304 20 12.5C20 11.9696 19.7893 11.4609 19.4142 11.0858C19.0391 10.7107 18.5304 10.5 18 10.5ZM12.34 10.5C12.7532 9.32893 13.5195 8.31487 14.5332 7.59758C15.5469 6.88029 16.7582 6.4951 18 6.4951C19.2418 6.4951 20.4531 6.88029 21.4668 7.59758C22.4805 8.31487 23.2468 9.32893 23.66 10.5H38C38.5304 10.5 39.0391 10.7107 39.4142 11.0858C39.7893 11.4609 40 11.9696 40 12.5C40 13.0304 39.7893 13.5391 39.4142 13.9142C39.0391 14.2893 38.5304 14.5 38 14.5H23.66C23.2468 15.6711 22.4805 16.6851 21.4668 17.4024C20.4531 18.1197 19.2418 18.5049 18 18.5049C16.7582 18.5049 15.5469 18.1197 14.5332 17.4024C13.5195 16.6851 12.7532 15.6711 12.34 14.5H10C9.46957 14.5 8.96086 14.2893 8.58579 13.9142C8.21071 13.5391 8 13.0304 8 12.5C8 11.9696 8.21071 11.4609 8.58579 11.0858C8.96086 10.7107 9.46957 10.5 10 10.5H12.34ZM30 22.5C29.4696 22.5 28.9609 22.7107 28.5858 23.0858C28.2107 23.4609 28 23.9696 28 24.5C28 25.0304 28.2107 25.5391 28.5858 25.9142C28.9609 26.2893 29.4696 26.5 30 26.5C30.5304 26.5 31.0391 26.2893 31.4142 25.9142C31.7893 25.5391 32 25.0304 32 24.5C32 23.9696 31.7893 23.4609 31.4142 23.0858C31.0391 22.7107 30.5304 22.5 30 22.5ZM24.34 22.5C24.7532 21.3289 25.5195 20.3149 26.5332 19.5976C27.5469 18.8803 28.7582 18.4951 30 18.4951C31.2418 18.4951 32.4531 18.8803 33.4668 19.5976C34.4805 20.3149 35.2468 21.3289 35.66 22.5H38C38.5304 22.5 39.0391 22.7107 39.4142 23.0858C39.7893 23.4609 40 23.9696 40 24.5C40 25.0304 39.7893 25.5391 39.4142 25.9142C39.0391 26.2893 38.5304 26.5 38 26.5H35.66C35.2468 27.6711 34.4805 28.6851 33.4668 29.4024C32.4531 30.1197 31.2418 30.5049 30 30.5049C28.7582 30.5049 27.5469 30.1197 26.5332 29.4024C25.5195 28.6851 24.7532 27.6711 24.34 26.5H10C9.46957 26.5 8.96086 26.2893 8.58579 25.9142C8.21071 25.5391 8 25.0304 8 24.5C8 23.9696 8.21071 23.4609 8.58579 23.0858C8.96086 22.7107 9.46957 22.5 10 22.5H24.34ZM18 34.5C17.4696 34.5 16.9609 34.7107 16.5858 35.0858C16.2107 35.4609 16 35.9696 16 36.5C16 37.0304 16.2107 37.5391 16.5858 37.9142C16.9609 38.2893 17.4696 38.5 18 38.5C18.5304 38.5 19.0391 38.2893 19.4142 37.9142C19.7893 37.5391 20 37.0304 20 36.5C20 35.9696 19.7893 35.4609 19.4142 35.0858C19.0391 34.7107 18.5304 34.5 18 34.5ZM12.34 34.5C12.7532 33.3289 13.5195 32.3149 14.5332 31.5976C15.5469 30.8803 16.7582 30.4951 18 30.4951C19.2418 30.4951 20.4531 30.8803 21.4668 31.5976C22.4805 32.3149 23.2468 33.3289 23.66 34.5H38C38.5304 34.5 39.0391 34.7107 39.4142 35.0858C39.7893 35.4609 40 35.9696 40 36.5C40 37.0304 39.7893 37.5391 39.4142 37.9142C39.0391 38.2893 38.5304 38.5 38 38.5H23.66C23.2468 39.6711 22.4805 40.6851 21.4668 41.4024C20.4531 42.1197 19.2418 42.5049 18 42.5049C16.7582 42.5049 15.5469 42.1197 14.5332 41.4024C13.5195 40.6851 12.7532 39.6711 12.34 38.5H10C9.46957 38.5 8.96086 38.2893 8.58579 37.9142C8.21071 37.5391 8 37.0304 8 36.5C8 35.9696 8.21071 35.4609 8.58579 35.0858C8.96086 34.7107 9.46957 34.5 10 34.5H12.34Z" fill="#184B94"/></svg>