<svg xmlns="http://www.w3.org/2000/svg"><symbol id="email" viewBox="0 0 20 20" fill="none"><path d="M1.66663 5.00004C1.66663 4.55801 1.84222 4.13409 2.15478 3.82153C2.46734 3.50897 2.89127 3.33337 3.33329 3.33337H16.6666C17.1087 3.33337 17.5326 3.50897 17.8451 3.82153C18.1577 4.13409 18.3333 4.55801 18.3333 5.00004V15C18.3333 15.4421 18.1577 15.866 17.8451 16.1786C17.5326 16.4911 17.1087 16.6667 16.6666 16.6667H3.33329C2.89127 16.6667 2.46734 16.4911 2.15478 16.1786C1.84222 15.866 1.66663 15.4421 1.66663 15V5.00004ZM4.59913 5.00004L9.99996 9.72587L15.4008 5.00004H4.59913ZM16.6666 6.10754L10.5491 11.4609C10.3972 11.594 10.202 11.6674 9.99996 11.6674C9.79792 11.6674 9.60276 11.594 9.45079 11.4609L3.33329 6.10754V15H16.6666V6.10754Z" fill="currentColor"/></symbol><symbol id="clock" viewBox="0 0 20 20" fill="none"><path d="M9.99996 3.33329C8.23185 3.33329 6.53616 4.03567 5.28591 5.28591C4.03567 6.53616 3.33329 8.23185 3.33329 9.99996C3.33329 11.7681 4.03567 13.4638 5.28591 14.714C6.53616 15.9642 8.23185 16.6666 9.99996 16.6666C11.7681 16.6666 13.4638 15.9642 14.714 14.714C15.9642 13.4638 16.6666 11.7681 16.6666 9.99996C16.6666 8.23185 15.9642 6.53616 14.714 5.28591C13.4638 4.03567 11.7681 3.33329 9.99996 3.33329ZM1.66663 9.99996C1.66663 5.39746 5.39746 1.66663 9.99996 1.66663C14.6025 1.66663 18.3333 5.39746 18.3333 9.99996C18.3333 14.6025 14.6025 18.3333 9.99996 18.3333C5.39746 18.3333 1.66663 14.6025 1.66663 9.99996ZM9.99996 4.99996C10.221 4.99996 10.4329 5.08776 10.5892 5.24404C10.7455 5.40032 10.8333 5.61228 10.8333 5.83329V9.65496L13.0891 11.9108C13.2409 12.068 13.3249 12.2785 13.323 12.497C13.3211 12.7155 13.2335 12.9245 13.079 13.079C12.9245 13.2335 12.7155 13.3211 12.497 13.323C12.2785 13.3249 12.068 13.2409 11.9108 13.0891L9.41079 10.5891C9.2545 10.4329 9.16667 10.221 9.16663 9.99996V5.83329C9.16663 5.61228 9.25442 5.40032 9.4107 5.24404C9.56698 5.08776 9.77895 4.99996 9.99996 4.99996Z" fill="currentColor"/></symbol><symbol id="call" viewBox="0 0 20 20" fill="none"><path d="M3.1942 3.33329H6.93586L8.1417 6.34829L6.2042 7.63996C6.0901 7.71608 5.99656 7.81919 5.93187 7.94014C5.86718 8.06109 5.83334 8.19613 5.83336 8.33329C5.83586 8.41163 5.83336 8.33413 5.83336 8.33413V8.35163C5.83386 8.38889 5.83552 8.42613 5.83836 8.46329C5.84336 8.53163 5.8517 8.62413 5.86753 8.73829C5.90003 8.96329 5.96253 9.27329 6.0842 9.63829C6.3292 10.3716 6.8092 11.3208 7.7442 12.2558C8.6792 13.1908 9.62836 13.6708 10.3609 13.9158C10.7267 14.0375 11.0359 14.0991 11.2625 14.1325C11.3905 14.1503 11.5193 14.1615 11.6484 14.1658L11.6592 14.1666H11.6659C11.6659 14.1666 11.7592 14.1616 11.6667 14.1666C11.8214 14.1665 11.9731 14.1234 12.1046 14.042C12.2362 13.9606 12.3425 13.8442 12.4117 13.7058L12.97 12.5891L16.6667 13.2058V16.8058C14.9075 17.06 10.1559 17.3108 6.42253 13.5775C2.6892 9.84413 2.9392 5.09163 3.1942 3.33329ZM7.56086 8.73829L9.0667 7.73496C9.38482 7.52277 9.6203 7.20764 9.73364 6.84243C9.84698 6.47722 9.83129 6.08414 9.6892 5.72913L8.48336 2.71413C8.35962 2.40488 8.14606 2.1398 7.87023 1.95309C7.5944 1.76638 7.26895 1.6666 6.93586 1.66663H3.15086C2.39336 1.66663 1.68086 2.19246 1.5567 3.01413C1.27336 4.88246 0.889197 10.4008 5.2442 14.7558C9.5992 19.1108 15.1175 18.7258 16.9859 18.4433C17.8075 18.3183 18.3334 17.6066 18.3334 16.8491V13.2058C18.3334 12.8113 18.1935 12.4295 17.9385 12.1284C17.6835 11.8274 17.33 11.6265 16.9409 11.5616L13.2442 10.9458C12.8926 10.8871 12.5315 10.9427 12.2138 11.1044C11.8961 11.2661 11.6387 11.5253 11.4792 11.8441L11.1909 12.4216C11.0889 12.3965 10.988 12.3673 10.8884 12.3341C10.3717 12.1625 9.6542 11.8091 8.92253 11.0775C8.19086 10.3458 7.83753 9.62829 7.66586 9.11079C7.62487 8.98847 7.59011 8.86414 7.5617 8.73829H7.56086Z" fill="currentColor"/></symbol><symbol id="tg" viewBox="0 0 32 32" fill="none"><path d="M16 2.66663C8.63996 2.66663 2.66663 8.63996 2.66663 16C2.66663 23.36 8.63996 29.3333 16 29.3333C23.36 29.3333 29.3333 23.36 29.3333 16C29.3333 8.63996 23.36 2.66663 16 2.66663ZM22.1866 11.7333C21.9866 13.84 21.12 18.96 20.68 21.32C20.4933 22.32 20.12 22.6533 19.7733 22.6933C19 22.76 18.4133 22.1866 17.6666 21.6933C16.4933 20.92 15.8266 20.44 14.6933 19.6933C13.3733 18.8266 14.2266 18.3466 14.9866 17.5733C15.1866 17.3733 18.6 14.2666 18.6666 13.9866C18.6759 13.9442 18.6747 13.9002 18.663 13.8584C18.6514 13.8165 18.6298 13.7782 18.6 13.7466C18.52 13.68 18.4133 13.7066 18.32 13.72C18.2 13.7466 16.3333 14.9866 12.6933 17.44C12.16 17.8 11.68 17.9866 11.2533 17.9733C10.7733 17.96 9.86663 17.7066 9.18663 17.48C8.34663 17.2133 7.69329 17.0666 7.74663 16.6C7.77329 16.36 8.10663 16.12 8.73329 15.8666C12.6266 14.1733 15.2133 13.0533 16.5066 12.52C20.2133 10.9733 20.9733 10.7066 21.48 10.7066C21.5866 10.7066 21.84 10.7333 22 10.8666C22.1333 10.9733 22.1733 11.12 22.1866 11.2266C22.1733 11.3066 22.2 11.5466 22.1866 11.7333Z" fill="currentColor"/></symbol><symbol id="wa" viewBox="0 0 32 32" fill="none"><path fill-rule="evenodd" clip-rule="evenodd" d="M16 2.66663C8.63596 2.66663 2.66663 8.63596 2.66663 16C2.66663 18.52 3.36663 20.88 4.58396 22.8906L3.39463 26.9333C3.32634 27.1654 3.32185 27.4116 3.38162 27.6461C3.44139 27.8805 3.56322 28.0945 3.73431 28.2656C3.90539 28.4367 4.1194 28.5585 4.35385 28.6183C4.5883 28.6781 4.83452 28.6736 5.06663 28.6053L9.10929 27.416C11.1876 28.6732 13.5709 29.3364 16 29.3333C23.364 29.3333 29.3333 23.364 29.3333 16C29.3333 8.63596 23.364 2.66663 16 2.66663ZM12.984 19.0173C15.6813 21.7133 18.256 22.0693 19.1653 22.1026C20.548 22.1533 21.8946 21.0973 22.4186 19.872C22.4842 19.7194 22.5079 19.5521 22.4873 19.3874C22.4667 19.2226 22.4025 19.0663 22.3013 18.9346C21.5706 18.0013 20.5826 17.3306 19.6173 16.664C19.4158 16.5243 19.1681 16.4682 18.9261 16.5075C18.6841 16.5468 18.4668 16.6784 18.32 16.8746L17.52 18.0946C17.4777 18.16 17.4121 18.2068 17.3366 18.2256C17.2611 18.2444 17.1813 18.2338 17.1133 18.196C16.5706 17.8853 15.78 17.3573 15.212 16.7893C14.644 16.2213 14.148 15.4666 13.8693 14.9586C13.8356 14.8939 13.8261 14.8193 13.8424 14.7482C13.8588 14.677 13.9 14.6141 13.9586 14.5706L15.1906 13.656C15.367 13.5034 15.4808 13.2912 15.5103 13.0599C15.5398 12.8286 15.483 12.5946 15.3506 12.4026C14.7533 11.528 14.0573 10.416 13.048 9.67863C12.9174 9.58484 12.7649 9.52635 12.6051 9.50883C12.4453 9.49131 12.2837 9.51535 12.136 9.57863C10.9093 10.104 9.84796 11.4506 9.89863 12.836C9.93196 13.7453 10.288 16.32 12.984 19.0173Z" fill="currentColor"/></symbol><symbol id="home" viewBox="0 0 14 14" fill="none"><path d="M6.61273 1.31415C6.71948 1.21935 6.85729 1.16699 7.00006 1.16699C7.14283 1.16699 7.28064 1.21935 7.38739 1.31415L12.6374 5.98081C12.7471 6.08507 12.8121 6.22789 12.8184 6.37913C12.8248 6.53036 12.7722 6.67815 12.6716 6.79129C12.5711 6.90442 12.4305 6.97403 12.2795 6.98542C12.1286 6.99681 11.9791 6.94908 11.8627 6.85231L11.6667 6.67906V11.0832C11.6667 11.3927 11.5438 11.6894 11.325 11.9082C11.1062 12.127 10.8095 12.2499 10.5001 12.2499H3.50006C3.19064 12.2499 2.89389 12.127 2.6751 11.9082C2.45631 11.6894 2.33339 11.3927 2.33339 11.0832V6.67906L2.13739 6.85231C2.02099 6.94908 1.87154 6.99681 1.7206 6.98542C1.56966 6.97403 1.42906 6.90442 1.3285 6.79129C1.22793 6.67815 1.17529 6.53036 1.18167 6.37913C1.18806 6.22789 1.25298 6.08507 1.36273 5.98081L6.61273 1.31415ZM3.50006 5.64073V11.0832H5.25006V8.16656C5.25006 8.01186 5.31152 7.86348 5.42091 7.75409C5.53031 7.64469 5.67868 7.58323 5.83339 7.58323H8.16673C8.32144 7.58323 8.46981 7.64469 8.57921 7.75409C8.6886 7.86348 8.75006 8.01186 8.75006 8.16656V11.0832H10.5001V5.64131L7.00006 2.5304L3.50006 5.64073ZM7.58339 11.0832V8.7499H6.41673V11.0832H7.58339Z" fill="currentColor"/></symbol><symbol id="arrow-left" viewBox="0 0 26 10" fill="none"><path d="M25 5L1 5" stroke="currentColor" stroke-linecap="round" stroke-linejoin="round"/><path d="M5 9L1 5L5 1" stroke="currentColor" stroke-linecap="round" stroke-linejoin="round"/></symbol><symbol id="arrow-right" viewBox="0 0 26 10" fill="none"><path d="M1 5L25 5" stroke="currentColor" stroke-linecap="round" stroke-linejoin="round"/><path d="M21 1L25 5L21 9" stroke="currentColor" stroke-linecap="round" stroke-linejoin="round"/></symbol><symbol id="" viewBox="" fill="none"/><symbol id="" viewBox="" fill="none"/><symbol id="" viewBox="" fill="none"/><symbol id="" viewBox="" fill="none"/></svg>