<svg width="48" height="49" viewBox="0 0 48 49" fill="none" xmlns="http://www.w3.org/2000/svg"><path d="M16 6.5C16 5.96957 16.2107 5.46086 16.5858 5.08579C16.9609 4.71071 17.4696 4.5 18 4.5H30C30.5304 4.5 31.0391 4.71071 31.4142 5.08579C31.7893 5.46086 32 5.96957 32 6.5H36C37.0609 6.5 38.0783 6.92143 38.8284 7.67157C39.5786 8.42172 40 9.43913 40 10.5V40.5C40 41.5609 39.5786 42.5783 38.8284 43.3284C38.0783 44.0786 37.0609 44.5 36 44.5H12C10.9391 44.5 9.92172 44.0786 9.17157 43.3284C8.42143 42.5783 8 41.5609 8 40.5V10.5C8 9.43913 8.42143 8.42172 9.17157 7.67157C9.92172 6.92143 10.9391 6.5 12 6.5H16ZM16 10.5H12V40.5H36V10.5H32V12.5C32 13.0304 31.7893 13.5391 31.4142 13.9142C31.0391 14.2893 30.5304 14.5 30 14.5H18C17.4696 14.5 16.9609 14.2893 16.5858 13.9142C16.2107 13.5391 16 13.0304 16 12.5V10.5ZM28 8.5H20V10.5H28V8.5ZM31.414 22.086C31.7889 22.4611 31.9996 22.9697 31.9996 23.5C31.9996 24.0303 31.7889 24.5389 31.414 24.914L23.414 32.914C23.0389 33.2889 22.5303 33.4996 22 33.4996C21.4697 33.4996 20.9611 33.2889 20.586 32.914L16.586 28.914C16.395 28.7295 16.2426 28.5088 16.1378 28.2648C16.033 28.0208 15.9778 27.7584 15.9755 27.4928C15.9732 27.2272 16.0238 26.9639 16.1244 26.7181C16.2249 26.4723 16.3734 26.249 16.5612 26.0612C16.749 25.8734 16.9723 25.7249 17.2181 25.6244C17.4639 25.5238 17.7272 25.4732 17.9928 25.4755C18.2584 25.4778 18.5208 25.533 18.7648 25.6378C19.0088 25.7426 19.2295 25.895 19.414 26.086L22 28.672L28.586 22.086C28.9611 21.7111 29.4697 21.5004 30 21.5004C30.5303 21.5004 31.0389 21.7111 31.414 22.086Z" fill="#184B94"/></svg>