<svg width="24" height="24" viewBox="0 0 24 24" fill="none" xmlns="http://www.w3.org/2000/svg">
<path d="M22.2991 3.37562C21.165 2.26828 19.5983 1.71484 17.5981 1.71484C17.0445 1.71484 16.4796 1.81082 15.9038 2.00268C15.3278 2.19468 14.792 2.45371 14.2969 2.77959C13.8012 3.10538 13.3751 3.41132 13.0177 3.69695C12.6608 3.98267 12.3214 4.28632 12 4.60764C11.6785 4.28632 11.3392 3.98267 10.9822 3.69695C10.6249 3.41132 10.1987 3.10556 9.70304 2.77959C9.20749 2.45357 8.67174 2.19473 8.09588 2.00268C7.52007 1.81087 6.95524 1.71484 6.40171 1.71484C4.40164 1.71484 2.83477 2.26842 1.70088 3.37562C0.566992 4.48272 0 6.01835 0 7.98263C0 8.58086 0.105077 9.19706 0.314808 9.83076C0.524539 10.4647 0.763542 11.0049 1.03135 11.4513C1.29911 11.8976 1.60275 12.333 1.94204 12.7571C2.28134 13.1813 2.5293 13.4734 2.68537 13.6343C2.84158 13.7948 2.96438 13.911 3.05365 13.9823L11.4107 22.0449C11.5714 22.2057 11.7678 22.2862 12 22.2862C12.2321 22.2862 12.4286 22.2057 12.5893 22.0452L20.933 14.0093C22.9777 11.9648 24 9.95586 24 7.98263C24 6.01835 23.4329 4.48272 22.2991 3.37562Z" fill="#37979F"/>
</svg>
