<svg xmlns="http://www.w3.org/2000/svg"><symbol id="scroll" viewBox="0 0 31 35" fill="none"><path d="M9.5625 0C4.28963 0 0 4.03857 0 9.00285V24.8902C0 29.8545 4.28963 33.8931 9.5625 33.8931C14.8354 33.8931 19.125 29.8545 19.125 24.8902V9.00285C19.125 4.03857 14.8354 0 9.5625 0ZM18 24.8902C18 29.2704 14.2149 32.8339 9.5625 32.8339C4.91006 32.8339 1.125 29.2704 1.125 24.8902V9.00285C1.125 4.6227 4.91006 1.05916 9.5625 1.05916C14.2149 1.05916 18 4.6227 18 9.00285V24.8902Z" fill="currentColor"/><path d="M10.125 5.2959H9V9.53253H10.125V5.2959Z" fill="currentColor"/><path d="M27.3536 1.64645C27.1583 1.45118 26.8417 1.45118 26.6464 1.64645L23.4645 4.82843C23.2692 5.02369 23.2692 5.34027 23.4645 5.53553C23.6597 5.73079 23.9763 5.73079 24.1716 5.53553L27 2.70711L29.8284 5.53553C30.0237 5.73079 30.3403 5.73079 30.5355 5.53553C30.7308 5.34027 30.7308 5.02369 30.5355 4.82843L27.3536 1.64645ZM27.5 17L27.5 2H26.5L26.5 17H27.5Z" fill="currentColor"/><path d="M26.6464 34.3536C26.8417 34.5488 27.1583 34.5488 27.3536 34.3536L30.5355 31.1716C30.7308 30.9763 30.7308 30.6597 30.5355 30.4645C30.3403 30.2692 30.0237 30.2692 29.8284 30.4645L27 33.2929L24.1716 30.4645C23.9763 30.2692 23.6597 30.2692 23.4645 30.4645C23.2692 30.6597 23.2692 30.9763 23.4645 31.1716L26.6464 34.3536ZM26.5 19V34H27.5V19H26.5Z" fill="currentColor"/></symbol><symbol id="hamburger" viewBox="0 0 32 18" fill="none"><line x1="1.16668e-07" y1="1" x2="34.3091" y2="1" stroke="currentColor" stroke-width="2"/><line x1="1.16668e-07" y1="9" x2="17.8407" y2="9" stroke="currentColor" stroke-width="2"/><line x1="1.16668e-07" y1="17" x2="41.1709" y2="17" stroke="currentColor" stroke-width="2"/></symbol><symbol id="vk-circle" viewBox="0 0 41 40" fill="none"><path d="M20.4699 0H21.5246C27.0027 0.185156 32.1723 2.56953 35.7824 6.59844C39.0168 10.2083 40.7345 14.4812 40.9355 19.4172V20.4961C40.6324 30.4969 33.2496 38.5289 23.4285 39.8453C22.816 39.9273 22.1426 39.9617 21.4988 40H20.4387C9.76523 39.6609 1.29648 31.2492 0.935547 20.5453V19.4055C1.13034 14.8284 2.6457 10.7956 5.48164 7.30703C9.1457 2.79922 14.6777 0.163281 20.4699 0ZM23.1074 20.2609C22.6582 20.2375 22.6355 19.25 22.6434 18.8867C22.6616 18.0378 22.684 17.1888 22.7105 16.3398C22.7426 15.3367 22.5293 14.8555 21.4629 14.8086C20.7738 14.7784 19.9275 14.7716 18.9238 14.7883C18.3629 14.7977 17.8277 14.9094 17.5504 15.3945C17.5367 15.4184 17.5283 15.4449 17.5259 15.4724C17.5236 15.4998 17.5273 15.5274 17.5367 15.5532C17.5462 15.5791 17.5612 15.6025 17.5807 15.622C17.6002 15.6414 17.6237 15.6563 17.6496 15.6656C17.773 15.7102 17.9191 15.7172 18.034 15.7633C18.4085 15.9154 18.6197 16.1818 18.6676 16.5625C18.7121 16.9172 18.8996 19.8523 18.3848 20.2586C18.1027 20.4812 17.677 20.0023 17.4957 19.7703C16.6306 18.663 15.9324 17.4612 15.4012 16.1648C15.1535 15.5602 14.9379 15.2758 14.2754 15.2625C13.39 15.2443 12.5046 15.2372 11.6191 15.2414C11.4363 15.2422 11.241 15.2203 11.0949 15.3453C10.9132 15.501 10.8671 15.6924 10.9566 15.9195C11.0702 16.2086 11.3785 16.8802 11.8816 17.9344C12.6952 19.6406 13.665 21.2497 14.791 22.7617C16.1566 24.5961 17.9051 25.9281 20.2527 26.1523C21.0382 26.2273 21.6238 26.2398 22.0098 26.1898C22.5004 26.1258 22.641 25.7484 22.7004 25.2758C22.7473 24.9055 22.8668 23.9203 23.1582 23.6844C23.516 23.3945 23.9973 23.7938 24.2238 24.0359C24.6129 24.4542 25.0012 24.8729 25.3887 25.2922C25.9059 25.8516 26.4582 26.2219 27.2371 26.2422C28.0923 26.2651 28.9475 26.2742 29.8027 26.2695C30.8004 26.2641 31.2621 25.6742 30.6566 24.7891C29.8465 23.6055 28.8535 22.7141 27.884 21.7047C27.4973 21.3016 27.7215 20.8484 28.0121 20.457C29.1533 18.9195 29.8988 17.9008 30.2488 17.4008C30.4535 17.1078 31.0457 16.0102 30.9066 15.6211C30.7879 15.2883 30.3574 15.257 30.0566 15.2563C28.9499 15.2536 27.8431 15.2599 26.7363 15.275C26.4306 15.2792 26.2241 15.4107 26.1168 15.6695C25.9814 15.9956 25.8431 16.3201 25.702 16.643C25.1363 17.9367 24.3754 19.1018 23.4191 20.1383C23.3379 20.2263 23.234 20.2672 23.1074 20.2609Z" fill="currentColor"/></symbol><symbol id="ig-circle" viewBox="0 0 41 40" fill="none"><path d="M20.3535 0H21.5246C26.9762 0.184375 32.1191 2.54531 35.7254 6.5375C38.9962 10.1578 40.7329 14.4523 40.9355 19.4211V20.5898C40.7457 26.0727 38.359 31.2437 34.3254 34.8539C30.7124 38.0888 26.4382 39.8042 21.5027 40H20.3613C14.8816 39.8141 9.72461 37.4422 6.10898 33.4195C2.86523 29.8107 1.14076 25.538 0.935547 20.6016V19.3852C1.14492 14.4378 2.87852 10.1583 6.13633 6.54688C9.74414 2.54688 14.898 0.185938 20.3535 0ZM10.5973 28.5906C11.791 30.4391 13.7762 31.2922 15.9355 31.4055C18.1074 31.5195 20.3137 31.4984 22.6738 31.4937C23.8275 31.4917 24.9796 31.4536 26.1301 31.3797C29.7793 31.1438 32.141 28.7305 32.3309 25.0781C32.4777 22.2461 32.4387 19.3781 32.3934 16.543C32.384 15.9497 32.3582 15.3573 32.316 14.7656C32.1785 12.8438 31.4184 11.0109 29.8105 9.85156C28.341 8.79062 26.6309 8.58438 24.8809 8.55313C22.3418 8.50833 19.8027 8.50755 17.2637 8.55078C15.6957 8.57812 14.1473 8.66875 12.7332 9.43281C10.7301 10.5164 9.7207 12.4953 9.55898 14.7266C9.50898 15.4078 9.48034 15.9937 9.47305 16.4844C9.44336 18.488 9.44154 20.7016 9.46758 23.125C9.48789 25.0063 9.53789 26.9492 10.5973 28.5906Z" fill="currentColor"/><path d="M29.849 26.9593C29.0459 28.7562 27.4896 29.3687 25.6045 29.4499C22.9264 29.5656 20.2185 29.5296 17.5381 29.4906C16.7907 29.4796 16.1462 29.4479 15.6045 29.3953C13.2709 29.1687 11.885 27.7046 11.6412 25.4312C11.5745 24.8104 11.5373 23.9966 11.5295 22.9898C11.5144 21.0106 11.5165 19.0315 11.5357 17.0523C11.5545 15.1218 11.535 13.0218 13.156 11.7265C14.3475 10.7742 15.9162 10.7382 17.3623 10.714C20.2084 10.6656 23.0943 10.614 25.9357 10.7757C26.8396 10.8273 27.817 11.071 28.549 11.596C30.2365 12.8078 30.2951 14.7648 30.3225 16.6617C30.3532 18.8361 30.3576 21.0106 30.3357 23.1851C30.3217 24.557 30.3287 25.8867 29.849 26.9593ZM28.4435 13.9687C28.4435 13.6034 28.2984 13.2531 28.0401 12.9948C27.7818 12.7365 27.4315 12.5914 27.0662 12.5914C26.7009 12.5914 26.3506 12.7365 26.0923 12.9948C25.834 13.2531 25.6889 13.6034 25.6889 13.9687C25.6889 14.334 25.834 14.6843 26.0923 14.9426C26.3506 15.2009 26.7009 15.346 27.0662 15.346C27.4315 15.346 27.7818 15.2009 28.0401 14.9426C28.2984 14.6843 28.4435 14.334 28.4435 13.9687ZM26.8334 20.0984C26.8334 19.324 26.6809 18.5572 26.3845 17.8418C26.0882 17.1263 25.6538 16.4762 25.1062 15.9287C24.5587 15.3811 23.9086 14.9467 23.1932 14.6504C22.4777 14.354 21.7109 14.2015 20.9365 14.2015C19.3726 14.2015 17.8727 14.8228 16.7668 15.9287C15.6609 17.0345 15.0396 18.5344 15.0396 20.0984C15.0396 21.6623 15.6609 23.1622 16.7668 24.2681C17.8727 25.374 19.3726 25.9953 20.9365 25.9953C21.7109 25.9953 22.4777 25.8427 23.1932 25.5464C23.9086 25.25 24.5587 24.8157 25.1062 24.2681C25.6538 23.7205 26.0882 23.0705 26.3845 22.355C26.6809 21.6396 26.8334 20.8728 26.8334 20.0984Z" fill="currentColor"/><path d="M20.9352 23.6516C23.0481 23.6516 24.7609 21.9387 24.7609 19.8258C24.7609 17.7129 23.0481 16 20.9352 16C18.8222 16 17.1094 17.7129 17.1094 19.8258C17.1094 21.9387 18.8222 23.6516 20.9352 23.6516Z" fill="currentColor"/></symbol><symbol id="tg-circle" viewBox="0 0 41 40" fill="none"><path d="M20.3535 0H21.5246C27.0051 0.185156 32.1723 2.56719 35.7832 6.59766C39.0186 10.2096 40.7361 14.4841 40.9355 19.4211V20.5898C40.7457 26.0695 38.366 31.2367 34.3371 34.8469C30.722 38.087 26.4436 39.8047 21.502 40H20.3613C14.5738 39.8039 9.17617 37.1727 5.53633 32.7633C2.65195 29.269 1.11836 25.2146 0.935547 20.6V19.3859C1.14336 14.4458 2.87044 10.1727 6.1168 6.56641C9.7293 2.55391 14.8855 0.184375 20.3535 0ZM20.648 26.3547C20.6546 26.3484 20.6631 26.3446 20.6721 26.3438C20.6811 26.3431 20.69 26.3456 20.6973 26.3508C22.3046 27.5357 23.9087 28.7185 25.5098 29.8992C26.5012 30.6297 27.2449 30.2523 27.4895 29.1C28.5738 23.9964 29.6572 18.8927 30.7395 13.7891C30.841 13.3117 30.884 12.7688 30.5902 12.3742C30.3129 12.0016 29.7723 11.9828 29.3746 12.1352C23.0621 14.5669 16.7499 16.9995 10.4379 19.4328C9.91289 19.6352 9.52461 19.7688 9.23242 20.0938C8.80273 20.5711 9.32539 20.9805 9.77383 21.1211C11.4395 21.6435 13.1085 22.1664 14.7809 22.6898C14.787 22.6916 14.7935 22.692 14.7998 22.691C14.8061 22.6901 14.8122 22.6878 14.8176 22.6844C18.6259 20.2854 22.4348 17.8841 26.2441 15.4805C26.4293 15.3633 26.7746 15.2258 26.9762 15.3586C26.998 15.3732 27.0098 15.3932 27.0113 15.4187C27.0186 15.5068 26.9897 15.5799 26.9246 15.6383C23.821 18.4424 20.7204 21.2437 17.623 24.0422C17.6168 24.0476 17.6118 24.0542 17.6082 24.0616C17.6045 24.069 17.6024 24.077 17.602 24.0852L17.252 29.1008C17.2504 29.1221 17.2603 29.1331 17.2816 29.1336C17.5889 29.144 17.8316 29.0635 18.0098 28.8922C18.8921 28.0422 19.7715 27.1964 20.648 26.3547Z" fill="currentColor"/></symbol><symbol id="caret-down" viewBox="0 0 10 4" fill="none"><path d="M2.01099 0.75L5 3.33856L7.98901 0.75H2.01099Z" fill="currentColor" stroke="currentColor"/></symbol><symbol id="caret-left" viewBox="0 0 6 14" fill="none"><path d="M0 7L6 13.9282V0.0717968L0 7Z" fill="currentColor"/></symbol><symbol id="caret-right" viewBox="0 0 6 14" fill="none"><path d="M6 7L-5.96046e-07 0.0717954V13.9282L6 7Z" fill="currentColor"/></symbol><symbol id="close" viewBox="0 0 24 24" fill="none"><path d="M12.8918 12L23.8153 1.07641C24.0616 0.830185 24.0616 0.430974 23.8153 0.184748C23.569 -0.0614777 23.1699 -0.0614777 22.9236 0.184748L12 11.1082L1.07647 0.184669C0.830244 -0.0615565 0.431033 -0.0615565 0.184807 0.184669C-0.0614974 0.430895 -0.0614974 0.830106 0.184807 1.07633L11.1083 12L0.184729 22.9235C-0.0615762 23.1698 -0.0615762 23.569 0.184729 23.8153C0.307842 23.9384 0.469181 23.9999 0.630599 23.9999C0.792018 23.9999 0.953357 23.9384 1.07647 23.8153L12 12.8917L22.9236 23.8153C23.0468 23.9384 23.208 23.9999 23.3695 23.9999C23.5309 23.9999 23.6922 23.9384 23.8153 23.8153C24.0616 23.569 24.0616 23.1698 23.8153 22.9235L12.8918 12Z" fill="currentColor"/></symbol><symbol id="" viewBox="" fill="none"/><symbol id="" viewBox="" fill="none"/></svg>