<svg xmlns="http://www.w3.org/2000/svg">
	<symbol id="scroll" viewBox="0 0 31 35" fill="none">
		<path d="M9.5625 0C4.28963 0 0 4.03857 0 9.00285V24.8902C0 29.8545 4.28963 33.8931 9.5625 33.8931C14.8354 33.8931 19.125 29.8545 19.125 24.8902V9.00285C19.125 4.03857 14.8354 0 9.5625 0ZM18 24.8902C18 29.2704 14.2149 32.8339 9.5625 32.8339C4.91006 32.8339 1.125 29.2704 1.125 24.8902V9.00285C1.125 4.6227 4.91006 1.05916 9.5625 1.05916C14.2149 1.05916 18 4.6227 18 9.00285V24.8902Z" fill="currentColor"/>
		<path d="M10.125 5.2959H9V9.53253H10.125V5.2959Z" fill="currentColor"/>
		<path d="M27.3536 1.64645C27.1583 1.45118 26.8417 1.45118 26.6464 1.64645L23.4645 4.82843C23.2692 5.02369 23.2692 5.34027 23.4645 5.53553C23.6597 5.73079 23.9763 5.73079 24.1716 5.53553L27 2.70711L29.8284 5.53553C30.0237 5.73079 30.3403 5.73079 30.5355 5.53553C30.7308 5.34027 30.7308 5.02369 30.5355 4.82843L27.3536 1.64645ZM27.5 17L27.5 2H26.5L26.5 17H27.5Z" fill="currentColor"/>
		<path d="M26.6464 34.3536C26.8417 34.5488 27.1583 34.5488 27.3536 34.3536L30.5355 31.1716C30.7308 30.9763 30.7308 30.6597 30.5355 30.4645C30.3403 30.2692 30.0237 30.2692 29.8284 30.4645L27 33.2929L24.1716 30.4645C23.9763 30.2692 23.6597 30.2692 23.4645 30.4645C23.2692 30.6597 23.2692 30.9763 23.4645 31.1716L26.6464 34.3536ZM26.5 19V34H27.5V19H26.5Z" fill="currentColor"/>
	</symbol>
	<symbol id="hamburger" viewBox="0 0 32 18" fill="none">
		<line x1="1.16668e-07" y1="1" x2="34.3091" y2="1" stroke="currentColor" stroke-width="2"/>
		<line x1="1.16668e-07" y1="9" x2="17.8407" y2="9" stroke="currentColor" stroke-width="2"/>
		<line x1="1.16668e-07" y1="17" x2="41.1709" y2="17" stroke="currentColor" stroke-width="2"/>
	</symbol>
	<symbol id="vk-circle" viewBox="0 0 41 40" fill="none">
		<path d="M20.4699 0H21.5246C27.0027 0.185156 32.1723 2.56953 35.7824 6.59844C39.0168 10.2083 40.7345 14.4812 40.9355 19.4172V20.4961C40.6324 30.4969 33.2496 38.5289 23.4285 39.8453C22.816 39.9273 22.1426 39.9617 21.4988 40H20.4387C9.76523 39.6609 1.29648 31.2492 0.935547 20.5453V19.4055C1.13034 14.8284 2.6457 10.7956 5.48164 7.30703C9.1457 2.79922 14.6777 0.163281 20.4699 0ZM23.1074 20.2609C22.6582 20.2375 22.6355 19.25 22.6434 18.8867C22.6616 18.0378 22.684 17.1888 22.7105 16.3398C22.7426 15.3367 22.5293 14.8555 21.4629 14.8086C20.7738 14.7784 19.9275 14.7716 18.9238 14.7883C18.3629 14.7977 17.8277 14.9094 17.5504 15.3945C17.5367 15.4184 17.5283 15.4449 17.5259 15.4724C17.5236 15.4998 17.5273 15.5274 17.5367 15.5532C17.5462 15.5791 17.5612 15.6025 17.5807 15.622C17.6002 15.6414 17.6237 15.6563 17.6496 15.6656C17.773 15.7102 17.9191 15.7172 18.034 15.7633C18.4085 15.9154 18.6197 16.1818 18.6676 16.5625C18.7121 16.9172 18.8996 19.8523 18.3848 20.2586C18.1027 20.4812 17.677 20.0023 17.4957 19.7703C16.6306 18.663 15.9324 17.4612 15.4012 16.1648C15.1535 15.5602 14.9379 15.2758 14.2754 15.2625C13.39 15.2443 12.5046 15.2372 11.6191 15.2414C11.4363 15.2422 11.241 15.2203 11.0949 15.3453C10.9132 15.501 10.8671 15.6924 10.9566 15.9195C11.0702 16.2086 11.3785 16.8802 11.8816 17.9344C12.6952 19.6406 13.665 21.2497 14.791 22.7617C16.1566 24.5961 17.9051 25.9281 20.2527 26.1523C21.0382 26.2273 21.6238 26.2398 22.0098 26.1898C22.5004 26.1258 22.641 25.7484 22.7004 25.2758C22.7473 24.9055 22.8668 23.9203 23.1582 23.6844C23.516 23.3945 23.9973 23.7938 24.2238 24.0359C24.6129 24.4542 25.0012 24.8729 25.3887 25.2922C25.9059 25.8516 26.4582 26.2219 27.2371 26.2422C28.0923 26.2651 28.9475 26.2742 29.8027 26.2695C30.8004 26.2641 31.2621 25.6742 30.6566 24.7891C29.8465 23.6055 28.8535 22.7141 27.884 21.7047C27.4973 21.3016 27.7215 20.8484 28.0121 20.457C29.1533 18.9195 29.8988 17.9008 30.2488 17.4008C30.4535 17.1078 31.0457 16.0102 30.9066 15.6211C30.7879 15.2883 30.3574 15.257 30.0566 15.2563C28.9499 15.2536 27.8431 15.2599 26.7363 15.275C26.4306 15.2792 26.2241 15.4107 26.1168 15.6695C25.9814 15.9956 25.8431 16.3201 25.702 16.643C25.1363 17.9367 24.3754 19.1018 23.4191 20.1383C23.3379 20.2263 23.234 20.2672 23.1074 20.2609Z" fill="currentColor"/>
	</symbol>
	<symbol id="ig-circle" viewBox="0 0 41 40" fill="none">
		<path d="M20.3535 0H21.5246C26.9762 0.184375 32.1191 2.54531 35.7254 6.5375C38.9962 10.1578 40.7329 14.4523 40.9355 19.4211V20.5898C40.7457 26.0727 38.359 31.2437 34.3254 34.8539C30.7124 38.0888 26.4382 39.8042 21.5027 40H20.3613C14.8816 39.8141 9.72461 37.4422 6.10898 33.4195C2.86523 29.8107 1.14076 25.538 0.935547 20.6016V19.3852C1.14492 14.4378 2.87852 10.1583 6.13633 6.54688C9.74414 2.54688 14.898 0.185938 20.3535 0ZM10.5973 28.5906C11.791 30.4391 13.7762 31.2922 15.9355 31.4055C18.1074 31.5195 20.3137 31.4984 22.6738 31.4937C23.8275 31.4917 24.9796 31.4536 26.1301 31.3797C29.7793 31.1438 32.141 28.7305 32.3309 25.0781C32.4777 22.2461 32.4387 19.3781 32.3934 16.543C32.384 15.9497 32.3582 15.3573 32.316 14.7656C32.1785 12.8438 31.4184 11.0109 29.8105 9.85156C28.341 8.79062 26.6309 8.58438 24.8809 8.55313C22.3418 8.50833 19.8027 8.50755 17.2637 8.55078C15.6957 8.57812 14.1473 8.66875 12.7332 9.43281C10.7301 10.5164 9.7207 12.4953 9.55898 14.7266C9.50898 15.4078 9.48034 15.9937 9.47305 16.4844C9.44336 18.488 9.44154 20.7016 9.46758 23.125C9.48789 25.0063 9.53789 26.9492 10.5973 28.5906Z" fill="currentColor"/>
		<path d="M29.849 26.9593C29.0459 28.7562 27.4896 29.3687 25.6045 29.4499C22.9264 29.5656 20.2185 29.5296 17.5381 29.4906C16.7907 29.4796 16.1462 29.4479 15.6045 29.3953C13.2709 29.1687 11.885 27.7046 11.6412 25.4312C11.5745 24.8104 11.5373 23.9966 11.5295 22.9898C11.5144 21.0106 11.5165 19.0315 11.5357 17.0523C11.5545 15.1218 11.535 13.0218 13.156 11.7265C14.3475 10.7742 15.9162 10.7382 17.3623 10.714C20.2084 10.6656 23.0943 10.614 25.9357 10.7757C26.8396 10.8273 27.817 11.071 28.549 11.596C30.2365 12.8078 30.2951 14.7648 30.3225 16.6617C30.3532 18.8361 30.3576 21.0106 30.3357 23.1851C30.3217 24.557 30.3287 25.8867 29.849 26.9593ZM28.4435 13.9687C28.4435 13.6034 28.2984 13.2531 28.0401 12.9948C27.7818 12.7365 27.4315 12.5914 27.0662 12.5914C26.7009 12.5914 26.3506 12.7365 26.0923 12.9948C25.834 13.2531 25.6889 13.6034 25.6889 13.9687C25.6889 14.334 25.834 14.6843 26.0923 14.9426C26.3506 15.2009 26.7009 15.346 27.0662 15.346C27.4315 15.346 27.7818 15.2009 28.0401 14.9426C28.2984 14.6843 28.4435 14.334 28.4435 13.9687ZM26.8334 20.0984C26.8334 19.324 26.6809 18.5572 26.3845 17.8418C26.0882 17.1263 25.6538 16.4762 25.1062 15.9287C24.5587 15.3811 23.9086 14.9467 23.1932 14.6504C22.4777 14.354 21.7109 14.2015 20.9365 14.2015C19.3726 14.2015 17.8727 14.8228 16.7668 15.9287C15.6609 17.0345 15.0396 18.5344 15.0396 20.0984C15.0396 21.6623 15.6609 23.1622 16.7668 24.2681C17.8727 25.374 19.3726 25.9953 20.9365 25.9953C21.7109 25.9953 22.4777 25.8427 23.1932 25.5464C23.9086 25.25 24.5587 24.8157 25.1062 24.2681C25.6538 23.7205 26.0882 23.0705 26.3845 22.355C26.6809 21.6396 26.8334 20.8728 26.8334 20.0984Z" fill="currentColor"/>
		<path d="M20.9352 23.6516C23.0481 23.6516 24.7609 21.9387 24.7609 19.8258C24.7609 17.7129 23.0481 16 20.9352 16C18.8222 16 17.1094 17.7129 17.1094 19.8258C17.1094 21.9387 18.8222 23.6516 20.9352 23.6516Z" fill="currentColor"/>
	</symbol>
	<symbol id="tg-circle" viewBox="0 0 41 40" fill="none">
		<path d="M20.3535 0H21.5246C27.0051 0.185156 32.1723 2.56719 35.7832 6.59766C39.0186 10.2096 40.7361 14.4841 40.9355 19.4211V20.5898C40.7457 26.0695 38.366 31.2367 34.3371 34.8469C30.722 38.087 26.4436 39.8047 21.502 40H20.3613C14.5738 39.8039 9.17617 37.1727 5.53633 32.7633C2.65195 29.269 1.11836 25.2146 0.935547 20.6V19.3859C1.14336 14.4458 2.87044 10.1727 6.1168 6.56641C9.7293 2.55391 14.8855 0.184375 20.3535 0ZM20.648 26.3547C20.6546 26.3484 20.6631 26.3446 20.6721 26.3438C20.6811 26.3431 20.69 26.3456 20.6973 26.3508C22.3046 27.5357 23.9087 28.7185 25.5098 29.8992C26.5012 30.6297 27.2449 30.2523 27.4895 29.1C28.5738 23.9964 29.6572 18.8927 30.7395 13.7891C30.841 13.3117 30.884 12.7688 30.5902 12.3742C30.3129 12.0016 29.7723 11.9828 29.3746 12.1352C23.0621 14.5669 16.7499 16.9995 10.4379 19.4328C9.91289 19.6352 9.52461 19.7688 9.23242 20.0938C8.80273 20.5711 9.32539 20.9805 9.77383 21.1211C11.4395 21.6435 13.1085 22.1664 14.7809 22.6898C14.787 22.6916 14.7935 22.692 14.7998 22.691C14.8061 22.6901 14.8122 22.6878 14.8176 22.6844C18.6259 20.2854 22.4348 17.8841 26.2441 15.4805C26.4293 15.3633 26.7746 15.2258 26.9762 15.3586C26.998 15.3732 27.0098 15.3932 27.0113 15.4187C27.0186 15.5068 26.9897 15.5799 26.9246 15.6383C23.821 18.4424 20.7204 21.2437 17.623 24.0422C17.6168 24.0476 17.6118 24.0542 17.6082 24.0616C17.6045 24.069 17.6024 24.077 17.602 24.0852L17.252 29.1008C17.2504 29.1221 17.2603 29.1331 17.2816 29.1336C17.5889 29.144 17.8316 29.0635 18.0098 28.8922C18.8921 28.0422 19.7715 27.1964 20.648 26.3547Z" fill="currentColor"/>
	</symbol>
	<symbol id="caret-down" viewBox="0 0 10 4" fill="none">
		<path d="M2.01099 0.75L5 3.33856L7.98901 0.75H2.01099Z" fill="currentColor" stroke="currentColor"/>
	</symbol>
	<symbol id="caret-left" viewBox="0 0 6 14" fill="none">
		<path d="M0 7L6 13.9282V0.0717968L0 7Z" fill="currentColor"/>
	</symbol>
	<symbol id="caret-right" viewBox="0 0 6 14" fill="none">
		<path d="M6 7L-5.96046e-07 0.0717954V13.9282L6 7Z" fill="currentColor"/>
	</symbol>
	<symbol id="close" viewBox="0 0 24 24" fill="none">
		<path d="M12.8918 12L23.8153 1.07641C24.0616 0.830185 24.0616 0.430974 23.8153 0.184748C23.569 -0.0614777 23.1699 -0.0614777 22.9236 0.184748L12 11.1082L1.07647 0.184669C0.830244 -0.0615565 0.431033 -0.0615565 0.184807 0.184669C-0.0614974 0.430895 -0.0614974 0.830106 0.184807 1.07633L11.1083 12L0.184729 22.9235C-0.0615762 23.1698 -0.0615762 23.569 0.184729 23.8153C0.307842 23.9384 0.469181 23.9999 0.630599 23.9999C0.792018 23.9999 0.953357 23.9384 1.07647 23.8153L12 12.8917L22.9236 23.8153C23.0468 23.9384 23.208 23.9999 23.3695 23.9999C23.5309 23.9999 23.6922 23.9384 23.8153 23.8153C24.0616 23.569 24.0616 23.1698 23.8153 22.9235L12.8918 12Z" fill="currentColor"/>
	</symbol>
	<symbol id="home" viewBox="0 0 36 36" fill="none">
		<path d="M1.77179 11.1398C1.73466 11.1398 1.69699 11.1322 1.66094 11.1164C1.52175 11.0551 1.45841 10.8922 1.51971 10.753C1.59397 10.5848 1.6708 10.4176 1.75008 10.2519C1.81588 10.1145 1.98054 10.0567 2.11761 10.1227C2.25478 10.1884 2.31272 10.3531 2.24688 10.4901C2.17015 10.6504 2.09589 10.8123 2.0241 10.9751C1.97861 11.0784 1.8776 11.1398 1.77179 11.1398ZM1.23638 12.508C1.2066 12.508 1.17646 12.503 1.14663 12.493C1.0028 12.4434 0.9264 12.2867 0.975723 12.1428C1.05664 11.9078 1.14328 11.6721 1.2333 11.4421C1.28871 11.3005 1.44907 11.2308 1.59022 11.2861C1.73198 11.3417 1.80186 11.5014 1.74632 11.6431C1.65914 11.8658 1.57515 12.094 1.49695 12.3221C1.45765 12.4362 1.35077 12.508 1.23638 12.508ZM0.651619 14.6317C0.632801 14.6317 0.613956 14.6299 0.594918 14.6256C0.445864 14.5947 0.35043 14.4488 0.381663 14.2999C0.482862 13.8152 0.606043 13.3288 0.747726 12.8535C0.791339 12.7074 0.94471 12.6242 1.09054 12.668C1.23638 12.7114 1.31919 12.8649 1.27584 13.0109C1.13845 13.4715 1.01916 13.9429 0.92082 14.4125C0.893746 14.5423 0.779172 14.6317 0.651619 14.6317ZM0.275426 18.2793C0.123366 18.2793 0 18.1559 0 18.0038C0 17.0079 0.0820864 16.0085 0.244056 15.0331C0.269016 14.8828 0.410885 14.7816 0.561009 14.8064C0.710996 14.8315 0.812518 14.9732 0.787585 15.1235C0.630625 16.0691 0.550955 17.0381 0.550955 18.0038C0.550955 18.1559 0.427554 18.2793 0.275426 18.2793Z" fill="currentColor"/>
		<path d="M18 36C8.07481 36 0 27.9473 0 17.9963H0.550955C0.550955 27.5355 8.37862 35.449 18 35.449C22.7988 35.449 27.2718 33.5431 30.5946 30.0786L30.9923 30.459C27.5644 34.0329 22.9504 36 18 36Z" fill="currentColor"/>
		<path d="M29.4785 29.6543L32.08 28.7714L31.5442 31.4658L29.4785 29.6543Z" fill="currentColor"/>
		<path d="M35.4844 21.205C35.4694 21.205 35.4543 21.2035 35.4388 21.2011C35.2889 21.1763 35.1874 21.0342 35.2123 20.8843C35.3692 19.9394 35.4488 18.97 35.4488 18.0036C35.4488 17.8515 35.5722 17.7282 35.7243 17.7282C35.8764 17.7282 35.9997 17.8515 35.9997 18.0036C35.9997 19.0002 35.9178 20 35.7558 20.9746C35.7334 21.1092 35.6166 21.205 35.4844 21.205ZM34.9883 23.3509C34.9621 23.3509 34.9358 23.3474 34.9094 23.3394C34.7636 23.296 34.6807 23.1425 34.724 22.9968C34.8615 22.5362 34.9808 22.0645 35.0791 21.5952C35.1101 21.4461 35.2566 21.3496 35.405 21.3818C35.554 21.413 35.6494 21.559 35.6183 21.7079C35.5171 22.1922 35.3938 22.679 35.2521 23.1544C35.2165 23.2738 35.1069 23.3509 34.9883 23.3509ZM34.5099 24.7403C34.4766 24.7403 34.4427 24.7342 34.4097 24.7216C34.2679 24.6661 34.1979 24.5064 34.2533 24.3647C34.3419 24.1383 34.4259 23.9099 34.5028 23.6856C34.5524 23.5418 34.7091 23.466 34.8531 23.5145C34.9969 23.564 35.0733 23.7208 35.024 23.865C34.9443 24.096 34.8577 24.3317 34.7666 24.5652C34.724 24.674 34.6201 24.7403 34.5099 24.7403ZM34.0366 25.8369C33.9971 25.8369 33.9573 25.8287 33.9192 25.8108C33.7817 25.7458 33.7227 25.5816 33.7876 25.4442C33.8518 25.3078 33.9146 25.1704 33.9754 25.0323C34.0369 24.8928 34.1997 24.83 34.3386 24.891C34.478 24.9523 34.5411 25.1152 34.4798 25.2544C34.4169 25.3968 34.3522 25.5385 34.2859 25.6791C34.2389 25.7789 34.1399 25.8369 34.0366 25.8369Z" fill="currentColor"/>
		<path d="M36.0001 17.9961H35.4491C35.4491 8.25097 27.6214 0.551233 18.0001 0.551233C13.2076 0.551233 8.73877 2.45681 5.41682 5.91338L5.01953 5.53271C8.44621 1.96688 13.0562 -0.000190735 18.0001 -0.000190735C27.9253 -0.000190735 36.0001 8.11372 36.0001 17.9961Z" fill="currentColor"/>
		<path d="M6.53096 6.34328L3.92871 7.22363L4.46717 4.52986L6.53096 6.34328Z" fill="currentColor"/>
		<path d="M24.6484 25.5457H10.0992V18.9458L17.7157 9.29655L24.6484 18.4406V25.5457ZM11.9521 13.6045H12.3639V14.068L11.9521 14.5344V13.6045ZM26.5489 18.6272L17.8397 7.19187L12.9129 13.3682V13.0555H11.4717V15.2343L8.85843 18.6172C8.63882 18.8959 8.61953 19.3002 8.89844 19.5197C9.11139 19.6872 9.41287 19.698 9.55013 19.5703V26.0947H25.1974V19.1696L25.4484 19.4024C25.5747 19.5696 25.8046 19.6575 25.999 19.6575C26.1342 19.6575 26.2888 19.6151 26.405 19.5276C26.6881 19.3134 26.7629 18.9102 26.5489 18.6272Z" fill="currentColor"/>
		<path d="M15.0953 21.1366L15.1988 21.0247C15.2704 20.9527 15.3418 20.8805 15.4187 20.8145C15.493 20.7455 15.5737 20.6839 15.6529 20.6213C15.7348 20.5616 15.8161 20.5017 15.9019 20.4486C15.9852 20.3916 16.0745 20.3448 16.1613 20.2938C16.2513 20.2492 16.3391 20.1996 16.4314 20.1607L16.569 20.1002C16.6151 20.0809 16.6625 20.0643 16.7091 20.0464C16.8018 20.009 16.8974 19.9805 16.9921 19.9499C17.0868 19.9187 17.1844 19.8977 17.28 19.8712C17.3767 19.8484 17.4742 19.83 17.571 19.8093L17.5745 19.8084L17.5798 19.8077C17.6762 19.7946 17.7896 19.7648 17.8929 19.7305C17.9982 19.6956 18.1021 19.6544 18.2031 19.6058C18.3046 19.5584 18.4031 19.5041 18.4988 19.4452C18.5943 19.3855 18.6879 19.3225 18.7765 19.2525C18.822 19.2189 18.8658 19.183 18.9084 19.1458C18.9522 19.1099 18.9939 19.0718 19.0348 19.0327C19.0768 18.9942 19.1175 18.9548 19.1563 18.9132C19.1959 18.8725 19.2357 18.8318 19.2723 18.7883C19.3487 18.7041 19.4185 18.6138 19.4884 18.5237C19.5548 18.4307 19.6218 18.3382 19.6813 18.2402C19.7451 18.1451 19.7975 18.0429 19.8545 17.9435C19.9056 17.8406 19.9611 17.7398 20.0057 17.6336C20.0289 17.5811 20.0533 17.5288 20.0755 17.4757L20.1387 17.3151C20.1832 17.2085 20.2153 17.0975 20.2538 16.9888C20.2897 16.8789 20.3194 16.7673 20.3527 16.6564L20.4349 16.3194L20.503 15.9787L20.5583 15.6355C20.5583 15.6355 19.5202 16.5393 17.8217 16.7286C14.4634 17.1025 14.4195 19.6106 14.4195 19.6106C14.3974 20.408 14.5602 21.0197 14.8177 21.4893C14.874 21.4078 14.9345 21.3293 14.9967 21.2529C15.0295 21.2141 15.0616 21.1747 15.0953 21.1366Z" fill="currentColor"/>
		<path d="M20.5577 15.6358L20.5173 15.9813L20.4635 16.3257L20.3954 16.6676C20.3672 16.7802 20.3418 16.8939 20.3106 17.0062C20.2765 17.1174 20.2485 17.2312 20.2084 17.3405L20.1513 17.5061C20.1312 17.5608 20.1088 17.6148 20.0874 17.6691C20.0467 17.7789 19.9949 17.884 19.9472 17.9909C19.8936 18.095 19.8441 18.2017 19.7831 18.3022C19.7262 18.4049 19.6617 18.5034 19.5974 18.6021C19.5293 18.698 19.4611 18.7945 19.3854 18.8852C19.3492 18.9322 19.3097 18.9762 19.2704 19.0203C19.2319 19.0654 19.1914 19.1084 19.1494 19.1503C19.1085 19.1931 19.0662 19.2348 19.0221 19.2745C18.979 19.3154 18.9345 19.355 18.8884 19.3925C18.7981 19.4701 18.702 19.541 18.6037 19.6085C18.5047 19.6753 18.4025 19.7376 18.296 19.7932C18.1901 19.8495 18.0803 19.8993 17.9673 19.9421C17.8521 19.9848 17.7423 20.021 17.6097 20.045L17.6183 20.0436C17.5266 20.0676 17.4344 20.0892 17.3435 20.1146C17.2535 20.1441 17.162 20.1677 17.0737 20.2011C16.9854 20.234 16.8963 20.2644 16.8107 20.3033C16.7677 20.3223 16.7243 20.3396 16.6816 20.3595L16.5557 20.4217C16.471 20.4615 16.3915 20.5112 16.31 20.556C16.2318 20.6068 16.1509 20.6534 16.0764 20.7094C15.9993 20.7614 15.9272 20.8199 15.8547 20.8777C15.7848 20.9383 15.7132 20.9974 15.6483 21.0635C15.5807 21.1266 15.5186 21.1952 15.4563 21.2633L15.3668 21.3688C15.3377 21.4047 15.3104 21.4417 15.282 21.478C15.2269 21.5521 15.1739 21.6272 15.1251 21.7052C15.0967 21.7492 15.0702 21.7938 15.0439 21.8391C15.8881 22.9443 17.2847 23.0293 17.2847 23.0293C20.4757 22.9866 20.6751 20.1505 20.6751 20.1505C20.9478 17.9288 20.5577 15.6358 20.5577 15.6358Z" fill="currentColor"/>
		<path d="M15.1792 21.6431C15.1206 21.7263 15.0656 21.8121 15.0143 21.9C14.9619 21.9875 14.9142 22.0777 14.8693 22.1692C14.8242 22.2608 14.7829 22.3543 14.7449 22.4492C14.7069 22.5442 14.6733 22.6415 14.643 22.7401C14.6129 22.8406 14.5869 22.936 14.567 23.05C14.5663 23.0533 14.5657 23.057 14.5653 23.0601C14.5498 23.1803 14.6348 23.2902 14.755 23.3058C14.8751 23.3212 14.985 23.2362 15.0007 23.1161L15.001 23.1121C15.011 23.035 15.031 22.9417 15.0531 22.8557C15.076 22.7681 15.1022 22.6805 15.1325 22.5941C15.1626 22.5077 15.1961 22.4223 15.2332 22.3384C15.2701 22.2542 15.3096 22.1712 15.3534 22.0901C15.3718 22.0549 15.3913 22.0201 15.4111 21.9857C15.3297 21.879 15.2536 21.7626 15.1842 21.6361C15.1825 21.6384 15.1808 21.6406 15.1792 21.6431Z" fill="currentColor"/>
	</symbol>
	<symbol id="leaf" viewBox="0 0 47 46" fill="none">
		<path d="M14.4875 27.3602L14.8195 27.0008C15.0496 26.7699 15.2787 26.5383 15.5255 26.3259C15.7641 26.1044 16.0234 25.9069 16.2777 25.7056C16.54 25.514 16.8012 25.3217 17.0767 25.151C17.3445 24.9686 17.6314 24.8178 17.9096 24.6546C18.1987 24.5107 18.4803 24.3521 18.7771 24.2273L19.2185 24.033C19.3668 23.9711 19.5183 23.9177 19.668 23.8599C19.9659 23.7399 20.2731 23.6484 20.5775 23.5508C20.8813 23.4504 21.194 23.3831 21.5013 23.2978C21.8114 23.225 22.1242 23.1653 22.4352 23.0989L22.4462 23.0963L22.4633 23.094C22.7729 23.0521 23.137 22.9563 23.4689 22.8463C23.807 22.7344 24.1408 22.6013 24.4646 22.4456C24.7905 22.2934 25.1065 22.119 25.4139 21.9298C25.72 21.7383 26.0213 21.5365 26.3059 21.3118C26.4514 21.2034 26.592 21.0886 26.7288 20.9689C26.8693 20.8537 27.0038 20.7315 27.1351 20.6053C27.2699 20.4829 27.4 20.3554 27.5245 20.2221C27.6518 20.0914 27.7794 19.9612 27.8968 19.8209C28.1424 19.5505 28.3664 19.261 28.5909 18.9715C28.8041 18.6736 29.0188 18.3756 29.2102 18.0617C29.4146 17.7559 29.5836 17.4284 29.7668 17.1087C29.9303 16.7789 30.1082 16.455 30.2517 16.1145C30.3259 15.9456 30.4048 15.778 30.4759 15.6075L30.6782 15.0911C30.8212 14.7494 30.9243 14.3933 31.0486 14.0439C31.163 13.6915 31.259 13.333 31.3653 12.9773L31.6294 11.895L31.848 10.8013L32.0257 9.6989C32.0257 9.6989 28.6932 12.6009 23.2403 13.2083C12.4585 14.4093 12.3177 22.4608 12.3177 22.4608C12.2468 25.021 12.7693 26.9848 13.5962 28.4922C13.7768 28.2311 13.9707 27.9792 14.1708 27.733C14.2765 27.6089 14.3791 27.4819 14.4875 27.3602Z" fill="currentColor"/>
		<path d="M32.0256 9.69958L31.8953 10.8094L31.7233 11.9143L31.5049 13.0124C31.4137 13.374 31.3325 13.7393 31.2324 14.0994C31.1226 14.4567 31.0334 14.8211 30.9039 15.1727L30.7212 15.7045C30.6565 15.8802 30.5844 16.0532 30.5161 16.2282C30.3852 16.5802 30.2189 16.9173 30.0659 17.2611C29.8936 17.595 29.7346 17.9374 29.5388 18.26C29.3563 18.5902 29.1492 18.9058 28.9424 19.2225C28.7238 19.531 28.5049 19.8404 28.262 20.132C28.1462 20.2825 28.0195 20.4239 27.893 20.5656C27.7692 20.7099 27.6392 20.8484 27.504 20.9827C27.3727 21.1203 27.2372 21.2541 27.0952 21.3815C26.9572 21.513 26.8149 21.64 26.6665 21.7607C26.3771 22.0097 26.0684 22.2368 25.7525 22.4536C25.4348 22.6686 25.1064 22.8685 24.7647 23.0463C24.4251 23.2278 24.0723 23.3869 23.7093 23.5245C23.3399 23.662 22.9868 23.7783 22.5613 23.8554L22.5891 23.8508C22.2948 23.9275 21.9986 23.997 21.7064 24.079C21.418 24.173 21.1237 24.2492 20.841 24.3567C20.5571 24.4614 20.2712 24.5594 19.9968 24.6846C19.8586 24.745 19.7186 24.801 19.5822 24.8647L19.1777 25.0642C18.9056 25.192 18.6507 25.3518 18.3886 25.4957C18.1374 25.659 17.878 25.8086 17.6388 25.9878C17.3918 26.1556 17.16 26.343 16.9272 26.5282C16.7023 26.7233 16.473 26.9128 16.2644 27.1245C16.0475 27.3276 15.8484 27.5479 15.6483 27.7658L15.361 28.1051C15.2677 28.2199 15.1796 28.3393 15.0886 28.4557C14.9122 28.6931 14.7414 28.9347 14.5846 29.1854C14.4941 29.3264 14.4081 29.4701 14.3247 29.6152C17.0339 33.1628 21.5175 33.4365 21.5175 33.4365C31.7625 33.2989 32.4023 24.1936 32.4023 24.1936C33.2779 17.0612 32.0256 9.69958 32.0256 9.69958Z" fill="currentColor"/>
		<path d="M14.7538 28.9842C14.5659 29.2514 14.3889 29.527 14.2244 29.8096C14.0566 30.0903 13.9033 30.3797 13.7587 30.6736C13.6138 30.9674 13.4816 31.2676 13.3598 31.5729C13.2379 31.8779 13.1297 32.1894 13.0323 32.5062C12.9359 32.8287 12.8525 33.1351 12.788 33.5018C12.7864 33.5114 12.7843 33.5238 12.7832 33.5336C12.7335 33.9194 13.006 34.2726 13.3917 34.3223C13.7777 34.3718 14.1307 34.0995 14.1804 33.7136L14.182 33.7009C14.2138 33.453 14.278 33.1534 14.349 32.877C14.4228 32.5958 14.5065 32.3148 14.6039 32.0377C14.7008 31.7604 14.8079 31.4859 14.9265 31.2163C15.0454 30.9466 15.1721 30.6795 15.3126 30.4201C15.3721 30.3069 15.4347 30.1952 15.4985 30.0843C15.237 29.742 14.9926 29.3681 14.7698 28.962C14.7648 28.9695 14.7591 28.9766 14.7538 28.9842Z" fill="currentColor"/>
		<path d="M2.72343 14.234C2.67598 14.234 2.62786 14.2243 2.58178 14.2039C2.40393 14.1255 2.32299 13.9178 2.40133 13.74C2.49621 13.5245 2.59411 13.3115 2.6954 13.0997C2.77936 12.9241 2.98924 12.8499 3.16507 12.9339C3.34046 13.0179 3.41469 13.228 3.33076 13.4034C3.23273 13.6085 3.13756 13.8152 3.04583 14.0238C2.9877 14.1553 2.85863 14.234 2.72343 14.234ZM2.03929 15.982C2.00117 15.982 1.96273 15.9756 1.92472 15.9628C1.74084 15.8995 1.64321 15.6992 1.70623 15.5153C1.80962 15.2146 1.92033 14.9135 2.03536 14.6201C2.10616 14.4388 2.31107 14.3496 2.49142 14.4207C2.67256 14.4916 2.76186 14.6957 2.69089 14.8768C2.57949 15.1612 2.47217 15.453 2.37232 15.7441C2.32214 15.8903 2.18546 15.982 2.03929 15.982ZM1.2921 18.6956C1.26805 18.6956 1.24397 18.6929 1.21965 18.6878C1.02919 18.6481 0.907245 18.4616 0.947154 18.2712C1.07636 17.6523 1.23386 17.0308 1.4149 16.4232C1.47063 16.2366 1.6666 16.1314 1.85295 16.1864C2.03929 16.2419 2.1451 16.4381 2.08961 16.6244C1.91416 17.2132 1.76173 17.8155 1.63608 18.4155C1.60148 18.5814 1.45508 18.6956 1.2921 18.6956ZM0.811503 23.3564C0.617107 23.3564 0.459473 23.199 0.459473 23.0044C0.459473 21.7319 0.564422 20.4548 0.771323 19.2085C0.803216 19.0167 0.983809 18.8876 1.17632 18.9188C1.36797 18.9507 1.49769 19.1319 1.46583 19.3238C1.26527 20.5324 1.16358 21.7705 1.16358 23.0044C1.16358 23.199 1.00579 23.3564 0.811503 23.3564Z" fill="currentColor"/>
		<path d="M23.4595 46C10.7773 46 0.459473 35.7104 0.459473 22.9953H1.16358C1.16358 35.1843 11.1656 45.296 23.4595 45.296C29.5913 45.296 35.3067 42.8606 39.5526 38.434L40.0609 38.9198C35.6807 43.4864 29.785 46 23.4595 46Z" fill="currentColor"/>
		<path d="M38.1267 37.8913L41.4509 36.7631L40.7663 40.2061L38.1267 37.8913Z" fill="currentColor"/>
		<path d="M45.8009 27.0956C45.7818 27.0956 45.7625 27.0939 45.7428 27.0908C45.5512 27.0591 45.4214 26.8776 45.4533 26.686C45.6537 25.4787 45.7554 24.24 45.7554 23.0052C45.7554 22.8109 45.9131 22.6532 46.1075 22.6532C46.3017 22.6532 46.4594 22.8109 46.4594 23.0052C46.4594 24.2788 46.3547 25.5558 46.1477 26.801C46.1191 26.9734 45.9699 27.0956 45.8009 27.0956ZM45.1671 29.838C45.1336 29.838 45.0998 29.8333 45.0662 29.8231C44.8799 29.7677 44.7741 29.5716 44.8294 29.3854C45.0049 28.7966 45.1574 28.1941 45.283 27.5943C45.3227 27.4038 45.5108 27.2824 45.6995 27.3218C45.8899 27.3617 46.0118 27.5482 45.972 27.7385C45.8427 28.3573 45.6852 28.9791 45.5042 29.5867C45.4586 29.7393 45.3184 29.838 45.1671 29.838ZM44.5558 31.6136C44.5132 31.6136 44.4699 31.6058 44.4277 31.5893C44.2467 31.5185 44.1571 31.3143 44.2278 31.1332C44.341 30.8439 44.4483 30.552 44.5467 30.2655C44.6101 30.0817 44.8104 29.9841 44.9943 30.0474C45.1781 30.1106 45.2757 30.3109 45.2126 30.4947C45.1109 30.7901 45.0002 31.0911 44.8837 31.3895C44.8294 31.5284 44.6965 31.6136 44.5558 31.6136ZM43.951 33.0146C43.9006 33.0146 43.8496 33.0039 43.8011 32.981C43.6253 32.8979 43.5499 32.6881 43.6328 32.5125C43.7148 32.338 43.7951 32.1627 43.873 31.986C43.9514 31.808 44.1588 31.7273 44.3371 31.8059C44.5149 31.8845 44.5956 32.0921 44.517 32.2701C44.4369 32.452 44.3543 32.633 44.2696 32.8128C44.2095 32.9399 44.083 33.0146 43.951 33.0146Z" fill="currentColor"/>
		<path d="M46.4593 22.9951H45.7554C45.7554 10.543 35.7533 0.704453 23.4593 0.704453C17.3356 0.704453 11.6254 3.13936 7.38096 7.55626L6.87305 7.06967C11.2516 2.51334 17.1421 -0.000144958 23.4593 -0.000144958C36.1415 -0.000144958 46.4593 10.3676 46.4593 22.9951Z" fill="currentColor"/>
		<path d="M8.8063 8.10557L5.4812 9.23047L6.16923 5.78825L8.8063 8.10557Z" fill="currentColor"/>
	</symbol>
	<symbol id="download" viewBox="0 0 38 40" fill="none">
		<path d="M20.0001 25.0953L26.9922 18.1032C27.4261 17.6693 28.1296 17.6693 28.5635 18.1032C28.9974 18.5371 28.9974 19.2406 28.5635 19.6746L19.6746 28.5635C19.2407 28.9974 18.5372 28.9974 18.1033 28.5635L9.21438 19.6746C8.78046 19.2406 8.78046 18.5371 9.21438 18.1032C9.64829 17.6693 10.3518 17.6693 10.7857 18.1032L17.7778 25.0953V1.11111C17.7778 0.497461 18.2753 0 18.8889 0C19.5026 0 20.0001 0.497461 20.0001 1.11111V25.0953ZM35.5556 27.7778C35.5556 27.1641 36.0531 26.6667 36.6667 26.6667C37.2804 26.6667 37.7778 27.1641 37.7778 27.7778V34.4444C37.7778 37.5127 35.2905 40 32.2223 40H5.55561C2.48736 40 5.34058e-05 37.5127 5.34058e-05 34.4444V27.7778C5.34058e-05 27.1641 0.497513 26.6667 1.11116 26.6667C1.72481 26.6667 2.22227 27.1641 2.22227 27.7778V34.4444C2.22227 36.2854 3.71466 37.7778 5.55561 37.7778H32.2223C34.0632 37.7778 35.5556 36.2854 35.5556 34.4444V27.7778Z" fill="currentColor"/>
	</symbol>
	<symbol id="pdf" viewBox="0 0 63 54" fill="none">
		<path d="M27.2648 26H20.9729V30V40H23.0702V34H27.2648C29.5718 34 31.4594 32.1999 31.4594 30C31.4594 27.8001 29.5718 26 27.2648 26ZM27.2648 32.0001H23.0702V28.0001H27.2648C28.5232 28.0001 29.3621 28.8001 29.3621 30.0001C29.3621 31.2001 28.5232 32.0001 27.2648 32.0001Z" fill="currentColor"/>
		<path d="M39.8488 26H33.5569V40H39.8488C42.1557 40 44.0434 38.1999 44.0434 36V30C44.0434 27.8001 42.1557 26 39.8488 26ZM41.9461 36.0001C41.9461 37.2001 41.1072 38.0001 39.8488 38.0001H35.6542V28.0001H39.8488C41.1072 28.0001 41.9461 28.8001 41.9461 30.0001V36.0001Z" fill="currentColor"/>
		<path d="M56.627 20H39.8486V14L27.2649 0H4.19459C1.88751 0 0 1.79995 0 4V50C0 52.1999 1.88751 54 4.19459 54H35.6541C37.961 54 39.8486 52.1999 39.8486 50V46H56.627C60.1925 46 62.9189 43.4001 62.9189 40V25.9999C62.9189 22.5999 60.1925 20 56.627 20ZM27.2649 2.99995L37.1222 14H29.3622C28.3136 14 27.2649 13.0001 27.2649 12V2.99995ZM37.7514 49.9999C37.7514 50.9998 36.9124 51.9999 35.6541 51.9999H4.19459C3.146 51.9999 2.0973 51.1999 2.0973 49.9999V4C2.0973 3.00005 2.93622 2 4.19459 2H25.1676V12C25.1676 14.2001 27.0551 16 29.3622 16H37.7514V20H20.973C17.4075 20 14.6811 22.5999 14.6811 26V40C14.6811 43.4001 17.4075 46 20.973 46H37.7514V49.9999ZM60.8216 40C60.8216 42.1999 58.934 44 56.627 44H20.973C18.6659 44 16.7784 42.1999 16.7784 40V25.9999C16.7784 23.7998 18.6659 21.9999 20.973 21.9999H56.627C58.934 21.9999 60.8216 23.7998 60.8216 25.9999V40Z" fill="currentColor"/>
		<path d="M46.1406 40.0001H48.2379V34H54.5298V32.0001H48.2379V28.0001H56.6271V26H46.1406V40.0001Z" fill="currentColor"/>
	</symbol>
	<symbol id="arrow-right" viewBox="0 0 25 9" fill="none">
		<path d="M24.3645 4.85355C24.5598 4.65829 24.5598 4.34171 24.3645 4.14645L21.1826 0.964466C20.9873 0.769204 20.6707 0.769204 20.4755 0.964466C20.2802 1.15973 20.2802 1.47631 20.4755 1.67157L23.3039 4.5L20.4755 7.32843C20.2802 7.52369 20.2802 7.84027 20.4755 8.03553C20.6707 8.2308 20.9873 8.2308 21.1826 8.03553L24.3645 4.85355ZM0.989258 5H24.011V4H0.989258V5Z" fill="currentColor"/>
	</symbol>
	<symbol id="click" viewBox="0 0 24 32" fill="none">
		<path d="M5.80365 11.8857V10.5143C4.44743 9.6 3.54327 8 3.54327 6.28568C3.54327 3.42857 5.80365 1.14286 8.6291 1.14286C11.4545 1.14286 13.7149 3.42857 13.7149 6.28568C13.7149 7.31423 13.3759 8.34283 12.8108 9.1428C12.9238 9.1428 13.0368 9.1428 13.1498 9.1428C13.4889 9.1428 13.828 9.1428 14.054 9.25711C14.506 8.34283 14.8451 7.31423 14.8451 6.28568C14.8452 2.85711 12.0197 0 8.62915 0C5.23859 0 2.41309 2.85711 2.41309 6.28574C2.41309 8.68571 3.76931 10.8572 5.80365 11.8857Z" fill="currentColor"/>
		<path d="M12.5852 6.28616C12.5852 4.11476 10.7768 2.28613 8.62952 2.28613C6.48219 2.28613 4.67383 4.1147 4.67383 6.28616C4.67383 7.42902 5.1259 8.34331 5.80402 9.02902V6.28616C5.80402 4.68616 7.04726 3.42905 8.62946 3.42905C10.2117 3.42905 11.4549 4.68622 11.4549 6.28616V9.02902C12.1331 8.34325 12.5852 7.42896 12.5852 6.28616Z" fill="currentColor"/>
		<path d="M22.1916 12.5713C21.2875 12.5713 20.4963 13.3713 20.4963 14.2856V16.7999V17.1427H19.3662V14.5142V13.1427C19.3662 12.2285 18.5751 11.4284 17.6709 11.4284C16.7667 11.4284 15.9756 12.2285 15.9756 13.1427V14.2856V15.9999H14.8454V14.2856V11.9999C14.8454 11.0856 14.0543 10.2856 13.1501 10.2856C12.246 10.2856 11.4548 11.0856 11.4548 11.9999V14.1713V17.1427H10.3247V14.2856V6.2856C10.3247 5.37132 9.53352 4.57129 8.62937 4.57129C7.72522 4.57129 6.93406 5.37132 6.93406 6.2856V18.057C4.56063 15.5427 1.50915 12.7999 0.265975 14.057C-0.977203 15.3141 2.30037 18.7427 6.70808 26.2856C8.74242 29.7141 11.2288 31.9999 15.5236 31.9999C20.1573 31.9999 24 28.1141 24 23.4284V19.657V14.2855C23.887 13.3713 23.0958 12.5713 22.1916 12.5713Z" fill="currentColor"/>
	</symbol>
	<symbol id="" viewBox="" fill="none">
		
	</symbol>
	<symbol id="" viewBox="" fill="none">
		
	</symbol>
	<symbol id="" viewBox="" fill="none">
		
	</symbol>
	<symbol id="" viewBox="" fill="none">
		
	</symbol>
	<symbol id="" viewBox="" fill="none">
		
	</symbol>
</svg>