<svg width="129" height="104" viewBox="0 0 129 104" fill="none" xmlns="http://www.w3.org/2000/svg">
<path d="M53.3577 46.1036C53.4631 46.3521 53.2502 45.3322 53.1631 45.2993C52.8653 44.7694 52.5674 44.2395 52.148 43.7682C51.0984 42.3286 49.9616 40.8561 48.6689 39.5337" stroke="#E6FC97" stroke-width="3" stroke-miterlimit="1.5" stroke-linecap="round"/>
<path d="M62.863 33.8121C62.9846 33.7535 62.2227 34.7196 62.1538 34.9024C61.6695 35.6598 61.1507 36.5086 60.6319 37.3575C59.1283 40.0282 58.2691 42.8373 58.2285 45.8503" stroke="#E6FC97" stroke-width="3" stroke-miterlimit="1.5" stroke-linecap="round"/>
<path d="M63.6834 48.0097C63.5781 47.7612 64.4778 46.4293 64.5467 46.2464C65.8092 44.2158 67.3512 42.4994 69.3998 41.2871" stroke="#E6FC97" stroke-width="3" stroke-miterlimit="1.5" stroke-linecap="round"/>
<path d="M2 48.7899C15.9979 50.7217 60.2259 8.5919 45.9505 2.37866C31.4482 -4.02452 6.0257 72.9668 15.6124 68.1199C20.3886 65.7422 23.2908 46.6814 30.2897 47.6473C38.9766 48.6225 20.5728 72.9125 32.2586 75.4351C38.528 76.7527 37.8738 65.0195 46.7127 64.7988" stroke="#E6FC97" stroke-width="3" stroke-miterlimit="1.5" stroke-linecap="round"/>
<path d="M47.0592 64.4071C48.6538 67.3052 63.6184 62.709 62.0482 57.105C58.855 45.7728 28.5988 78.5466 50.8358 82.6423C67.0302 85.6103 100.529 36.3059 91.5701 32.6178C82.5251 28.8969 56.9798 73.9922 66.7201 86.4333C77.4571 100.189 125.769 47.485 109.333 40.6669C96.7841 35.4173 80.8821 81.326 86.2391 94.3094C87.7851 98.1284 94.4281 101.361 98.1771 94.3154" stroke="#E6FC97" stroke-width="3" stroke-miterlimit="1.5" stroke-linecap="round"/>
<path d="M127.338 80.0305C121.472 83.9816 115.654 91.5014 108.724 90.3527C100.819 89.15 103.8 77.0111 110.919 77.3954C121.291 77.857 111.082 106.278 101.145 101.49C92.6548 97.3524 103.352 87.1803 104.428 81.9468" stroke="#E6FC97" stroke-width="3" stroke-miterlimit="1.5" stroke-linecap="round"/>
</svg>
