<svg width="551" height="53" viewBox="0 0 551 53" fill="none" xmlns="http://www.w3.org/2000/svg">
<path d="M30.9956 26.2782L0 52.7052L13.8883 52.6769L45.371 26.2498L30.9956 26.2782Z" fill="#E6FC97"/>
<path d="M57.6689 26.2782L26.6733 52.7052L40.5616 52.6769L72.0443 26.2498L57.6689 26.2782Z" fill="#E6FC97"/>
<path d="M82.916 26.2782L51.9204 52.7052L65.8087 52.6769L97.2914 26.2498L82.916 26.2782Z" fill="#E6FC97"/>
<path d="M108.163 26.2782L77.167 52.7052L91.0553 52.6769L122.538 26.2498L108.163 26.2782Z" fill="#E6FC97"/>
<path d="M134.669 26.2782L103.674 52.7052L117.562 52.6769L149.045 26.2498L134.669 26.2782Z" fill="#E6FC97"/>
<path d="M159.917 26.2782L128.921 52.7052L142.809 52.6769L174.292 26.2498L159.917 26.2782Z" fill="#E6FC97"/>
<path d="M186.425 26.2782L155.43 52.7052L169.318 52.6769L200.801 26.2498L186.425 26.2782Z" fill="#E6FC97"/>
<path d="M211.671 26.2782L180.675 52.7052L194.564 52.6769L226.047 26.2498L211.671 26.2782Z" fill="#E6FC97"/>
<path d="M236.917 26.2782L205.921 52.7052L219.81 52.6769L251.293 26.2498L236.917 26.2782Z" fill="#E6FC97"/>
<path d="M262.163 26.2782L231.167 52.7052L245.056 52.6769L276.538 26.2498L262.163 26.2782Z" fill="#E6FC97"/>
<path d="M48.833 0.0283069L17.8374 26.4553L31.7258 26.427L63.2084 0L48.833 0.0283069Z" fill="#E6FC97"/>
<path d="M75.5057 0.0283069L44.5103 26.4553L58.3985 26.427L89.8811 0L75.5057 0.0283069Z" fill="#E6FC97"/>
<path d="M100.754 0.0283069L69.7583 26.4553L83.6466 26.427L115.129 0L100.754 0.0283069Z" fill="#E6FC97"/>
<path d="M125.999 0.0283069L95.0034 26.4553L108.892 26.427L140.374 0L125.999 0.0283069Z" fill="#E6FC97"/>
<path d="M152.507 0.0283069L121.512 26.4553L135.4 26.427L166.883 0L152.507 0.0283069Z" fill="#E6FC97"/>
<path d="M177.754 0.0283069L146.758 26.4553L160.647 26.427L192.129 0L177.754 0.0283069Z" fill="#E6FC97"/>
<path d="M204.261 0.0283069L173.266 26.4553L187.154 26.427L218.637 0L204.261 0.0283069Z" fill="#E6FC97"/>
<path d="M229.508 0.0283069L198.513 26.4553L212.401 26.427L243.884 0L229.508 0.0283069Z" fill="#E6FC97"/>
<path d="M254.754 0.0283069L223.759 26.4553L237.648 26.427L269.13 0L254.754 0.0283069Z" fill="#E6FC97"/>
<path d="M280.001 0.0283069L249.005 26.4553L262.894 26.427L294.376 0L280.001 0.0283069Z" fill="#E6FC97"/>
<path d="M287.241 26.2782L256.247 52.7052L270.134 52.6769L301.617 26.2498L287.241 26.2782Z" fill="#E6FC97"/>
<path d="M313.916 26.2782L282.92 52.7052L296.809 52.6769L328.291 26.2498L313.916 26.2782Z" fill="#E6FC97"/>
<path d="M339.163 26.2782L308.167 52.7052L322.056 52.6769L353.538 26.2498L339.163 26.2782Z" fill="#E6FC97"/>
<path d="M364.41 26.2782L333.414 52.7052L347.303 52.6769L378.785 26.2498L364.41 26.2782Z" fill="#E6FC97"/>
<path d="M390.918 26.2782L359.922 52.7052L373.811 52.6769L405.293 26.2498L390.918 26.2782Z" fill="#E6FC97"/>
<path d="M416.164 26.2782L385.168 52.7052L399.057 52.6769L430.539 26.2498L416.164 26.2782Z" fill="#E6FC97"/>
<path d="M442.672 26.2782L411.677 52.7052L425.564 52.6769L457.047 26.2498L442.672 26.2782Z" fill="#E6FC97"/>
<path d="M467.918 26.2782L436.924 52.7052L450.811 52.6769L482.294 26.2498L467.918 26.2782Z" fill="#E6FC97"/>
<path d="M493.165 26.2782L462.169 52.7052L476.058 52.6769L507.54 26.2498L493.165 26.2782Z" fill="#E6FC97"/>
<path d="M518.408 26.2782L487.412 52.7052L501.301 52.6769L532.783 26.2498L518.408 26.2782Z" fill="#E6FC97"/>
<path d="M305.08 0.0283069L274.086 26.4553L287.973 26.427L319.456 0L305.08 0.0283069Z" fill="#E6FC97"/>
<path d="M331.753 0.0283069L300.757 26.4553L314.646 26.427L346.128 0L331.753 0.0283069Z" fill="#E6FC97"/>
<path d="M357.002 0.0283069L326.006 26.4553L339.895 26.427L371.377 0L357.002 0.0283069Z" fill="#E6FC97"/>
<path d="M382.246 0.0283069L351.25 26.4553L365.139 26.427L396.621 0L382.246 0.0283069Z" fill="#E6FC97"/>
<path d="M408.753 0.0283069L377.758 26.4553L391.647 26.427L423.129 0L408.753 0.0283069Z" fill="#E6FC97"/>
<path d="M434.001 0.0283069L403.005 26.4553L416.894 26.427L448.376 0L434.001 0.0283069Z" fill="#E6FC97"/>
<path d="M460.51 0.0283069L429.515 26.4553L443.402 26.427L474.884 0L460.51 0.0283069Z" fill="#E6FC97"/>
<path d="M485.755 0.0283069L454.761 26.4553L468.648 26.427L500.131 0L485.755 0.0283069Z" fill="#E6FC97"/>
<path d="M511.002 0.0283069L480.006 26.4553L493.895 26.427L525.377 0L511.002 0.0283069Z" fill="#E6FC97"/>
<path d="M536.247 0.0283069L505.251 26.4553L519.14 26.427L550.622 0L536.247 0.0283069Z" fill="#E6FC97"/>
</svg>
