<svg width="177" height="159" viewBox="0 0 177 159" fill="none" xmlns="http://www.w3.org/2000/svg">
<path fill-rule="evenodd" clip-rule="evenodd" d="M129.068 115.798C135.197 112.62 139.713 108.717 144.837 102.167C152.035 92.9633 155.658 85.0614 155.899 78.0454C156.313 65.9789 149.694 58.1732 134.309 52.587C123.055 48.5001 114.694 48.3655 100.058 52.0379L89.6802 54.6417L85.7022 50.8525C80.4013 45.8013 63.5802 37.5354 60.2841 38.3625C58.1852 38.8891 57.86 39.7975 58.6211 43.0038C60.3281 50.1879 59.7125 62.4717 57.5421 64.5482C56.4081 65.6314 51.2585 68.39 46.0966 70.6787C33.2735 76.3619 29.86 79.4678 27.0593 87.9992C25.0026 94.2679 25.0074 96.595 27.0998 106.643C29.4279 117.819 29.6384 118.243 35.0765 122.664C42.3916 128.611 52.0455 130.856 67.0127 130.089C76.7286 129.592 82.6399 128.484 102.272 123.477C115.244 120.169 127.303 116.713 129.068 115.798ZM90.2588 120.552C87.1563 120.489 79.3225 121.396 72.8492 122.566C58.7865 125.109 52.7869 124.879 48.6297 121.639C46.9267 120.31 44.2088 118.289 42.5901 117.146C38.5444 114.287 32.361 101.663 32.1757 95.8811C31.8535 85.7915 41.7765 76.6108 58.575 71.4576L65.1354 69.3035L64.2314 58.8728C63.9884 53.5133 64.866 46.3726 65.4231 46.2328C66.6026 45.9369 79.0732 53.4912 86.3362 58.5784L91.3685 62.103L100.761 59.7464C110.926 57.1959 116.804 57.1966 128.369 59.749C137.933 61.8596 142.825 66.796 145.359 76.8962C149.147 91.9929 141.438 103.859 121.86 113.069C115.283 116.164 96.2366 120.673 90.2588 120.552Z" fill="#E6FC97"/>
<path fill-rule="evenodd" clip-rule="evenodd" d="M70.5738 71.9525C68.9531 73.0751 67.5027 74.8106 67.0554 76.1622C66.2007 78.7443 67.4103 80.8189 71.112 83.1197C72.6975 84.1053 72.685 84.0177 71.3576 84.8338C68.3049 86.71 65.9556 88.8494 64.0849 91.4556C62.8137 93.2267 61.8712 95.5053 62.0142 96.4617C62.3318 98.5853 66.0944 100.564 69.8415 100.579C74.9069 100.598 78.3256 98.3174 79.5734 94.0859C80.1655 92.0784 79.9355 89.9459 78.8839 87.695L78.3244 86.4975L80.1253 85.6353C82.3432 84.5735 84.9795 83.6216 87.374 83.0179C89.7728 82.4131 89.7746 82.4121 89.4495 81.7712C88.9175 80.7224 87.5994 80.2208 85.326 80.2021C82.9356 80.1823 78.2035 81.2869 76.0645 82.3639C75.2279 82.7851 75.0158 82.8016 74.5618 82.4808C73.7188 81.8852 71.6061 79.6873 71.3039 79.0916C71.0144 78.5209 71.0043 78.3162 71.2339 77.6849C71.7714 76.2074 74.6058 73.4849 76.1733 72.9407C77.0359 72.6411 78.0662 72.7377 78.5683 73.165C79.3859 73.861 78.9351 76.0022 77.7469 77.0669C77.4902 77.2971 76.996 77.6627 76.6489 77.8793C75.9728 78.3015 75.9181 78.6142 76.455 78.987C77.2816 79.5609 79.2059 78.8534 80.1646 77.6231C82.0658 75.1833 81.1279 71.4875 78.3143 70.3314C76.459 69.5691 72.9546 70.3031 70.5738 71.9525ZM48.4305 85.192C48.4101 85.2536 47.6958 85.7803 46.8435 86.3624C45.109 87.5468 44.616 88.1038 44.683 88.8035C44.7449 89.4496 45.5353 89.9797 46.4905 90.0159C47.1364 90.0402 47.2479 89.9974 47.6607 89.5651C48.7138 88.4624 49.3972 86.2796 48.9594 85.4166C48.8027 85.1076 48.5008 84.9793 48.4305 85.192ZM53.9982 83.5335C53.898 83.875 53.8375 84.8565 53.8639 85.7145C53.9107 87.2357 53.8975 87.2872 53.3312 87.7843C51.691 89.2239 50.6442 91.3698 50.9943 92.5752C51.0881 92.898 51.2272 93.1823 51.3037 93.2069C51.3802 93.2316 51.9052 92.8781 52.4706 92.4213C54.054 91.142 54.0155 91.1411 54.0141 92.4548C54.0101 96.4382 52.9627 104.453 52.4095 104.734C52.06 104.911 50.9096 101.711 50.355 99.0178C50.184 98.188 49.8477 96.2816 49.6073 94.7815C49.3184 92.9775 49.0736 91.9358 48.8839 91.7048C48.1072 90.7584 45.4843 90.7739 45.4766 91.725C45.4752 91.904 45.6217 92.4337 45.8023 92.9022C45.9828 93.3707 46.3324 94.7349 46.579 95.9337C47.2416 99.1545 47.8132 100.921 48.8952 103.091C50.6392 106.59 52.2343 107.618 53.4073 105.999C54.2274 104.867 55.1074 99.8746 55.1943 95.8594C55.2162 94.8502 55.2829 94.0404 55.3426 94.0595C55.4023 94.0789 55.6432 94.9036 55.8778 95.8924C56.882 100.123 58.0863 102.836 59.3737 103.768C60.4156 104.522 60.5334 104.187 59.9573 102.109C58.849 98.1108 56.8988 88.766 57.0885 88.3622C57.1578 88.215 57.8739 87.6139 58.68 87.0267C61.3237 85.1005 62.5073 83.5823 61.9665 82.811C61.7109 82.4461 61.4782 82.5469 58.3559 84.3741L56.445 85.4922L56.3512 85.0182C56.1734 84.1205 55.5213 83.0409 55.0487 82.8618C54.4584 82.6383 54.2154 82.7936 53.9982 83.5335ZM63.1458 82.6414C62.679 83.6372 62.8936 85.0785 63.5798 85.555C63.8132 85.7171 63.8317 85.9066 63.6737 86.5135L63.4767 87.2702L63.8514 87.0801C64.7934 86.6023 65.4667 83.763 64.9019 82.6495C64.6185 82.0908 64.033 81.8035 63.6123 82.0169C63.4869 82.0805 63.277 82.3616 63.1458 82.6414ZM76.9845 88.5262C77.9685 90.2559 78.1695 92.5203 77.4607 93.8888C75.9826 96.7424 71.257 98.2856 67.3362 97.1949C66.414 96.9384 66.4057 96.8091 67.2317 95.5654C68.4512 93.7295 70.8015 91.4474 73.4342 89.5428C75.2116 88.2569 75.4938 88.0697 76.0164 87.8307C76.4659 87.6252 76.4759 87.6325 76.9845 88.5262Z" fill="white"/>
<path fill-rule="evenodd" clip-rule="evenodd" d="M122.518 69.7653C121.759 70.6876 121.769 72.4672 122.554 76.4192C123.215 79.7424 123.61 81.1068 124.6 83.4707C125.422 85.4369 125.538 85.6576 125.78 85.7232C126.364 85.8818 126.473 85.2059 126.341 82.2593C126.199 79.0948 125.411 70.8226 125.156 69.8226C124.866 68.6843 123.433 68.6532 122.518 69.7653ZM93.3189 83.503C90.12 86.1654 88.6027 90.0686 89.1988 94.102C89.3956 95.4321 90.2211 97.4856 90.9266 98.3994C91.8739 99.6265 93.2566 100.509 94.8022 100.872L95.6232 101.065L96.5899 103.224C97.6166 105.518 98.3276 106.685 99.4309 107.889C101.377 110.012 103.626 110.749 105.531 109.886C107.802 108.859 109.134 105.641 109.233 100.944C109.289 98.2659 108.753 94.3599 108.034 92.2085C107.772 91.4266 107.775 91.3539 108.096 90.34C108.28 89.7599 108.523 88.8608 108.636 88.3423C108.749 87.8237 108.87 87.4104 108.906 87.4237C108.942 87.4372 109.227 88.4268 109.539 89.6231C110.08 91.6928 110.942 94.5493 112.213 98.4792C112.953 100.769 114.041 103.249 114.433 103.541C115.26 104.158 115.924 104.11 115.955 103.432C115.964 103.221 115.902 102.375 115.816 101.552C115.549 99.0014 115.455 94.2176 115.669 94.1207C115.711 94.1018 116.173 94.3682 116.696 94.7124C118.073 95.6181 121.529 96.8818 123.476 97.1917C126.661 97.6987 129.41 97.2952 131.344 96.0363C133.308 94.7586 134.297 92.6566 133.568 91.3124L133.312 90.8407L132.751 91.1163C132.443 91.268 131.377 91.8052 130.383 92.3102C127.545 93.7518 125.673 94.2083 123.001 94.11C120.745 94.027 117.879 93.3125 116.601 92.5147C115.911 92.0837 115.895 92.0597 116.047 91.6717C116.804 89.7382 118.192 83.5634 118.802 79.4119C119.188 76.7936 119.229 75.2559 118.937 74.4345C118.732 73.8582 118.672 73.791 118.212 73.6188C117.561 73.3758 117.155 73.5617 116.675 74.3215C115.984 75.4145 115.359 77.7441 114.638 81.9136C113.806 86.7241 113.44 90.3478 113.465 93.5162C113.471 94.2445 113.444 94.855 113.404 94.8729C113.171 94.9783 111.33 87.9376 110.471 83.6586C109.713 79.8783 109.521 79.1282 109.213 78.7417C108.875 78.3167 107.766 78.5184 107.567 79.0411C107.516 79.1756 107.508 79.5935 107.549 79.9695C107.666 81.035 107.688 82.9824 107.597 84.0731C107.445 85.8926 107.021 88.4853 106.83 88.768C106.79 88.8262 106.457 88.2912 106.09 87.5792C104.318 84.1462 101.516 81.7694 99.06 81.6158C97.2164 81.5005 94.7509 82.3111 93.3189 83.503ZM97.257 84.5971C94.8659 87.4005 93.9669 93.1435 95.0698 98.5682C95.2058 99.2377 95.2772 99.8035 95.2282 99.8256C95.0744 99.8953 93.9883 98.8557 93.5081 98.179C93.2256 97.7809 92.8482 97.0295 92.5317 96.2352C91.6021 93.9014 91.6079 91.7589 92.5513 89.2296C93.0257 87.9575 93.2342 87.5834 93.951 86.718C94.91 85.5602 95.7564 84.8906 96.9795 84.3216L97.829 83.9266L97.257 84.5971ZM100.979 84.1945C101.791 84.8989 102.986 86.4402 103.806 87.8412C104.594 89.1878 105.658 91.9759 105.543 92.3909C105.436 92.7773 103.839 95.2464 103.145 96.0985C101.918 97.6051 100.226 99.0638 99.1301 99.5596C98.6803 99.7632 98.7189 99.8519 98.4246 97.9366C97.8309 94.0723 98.055 89.7508 99.002 86.8014C99.4595 85.3759 100.126 83.8412 100.326 83.7505C100.377 83.7275 100.671 83.9272 100.979 84.1945ZM117.36 77.916C117.146 79.1903 116.412 82.2063 116.209 82.6406L116.053 82.9733L116.112 82.5375C116.339 80.866 117.292 76.8308 117.446 76.8885C117.49 76.9051 117.451 77.3675 117.36 77.916ZM106.263 95.268C106.466 96.0151 106.646 99.1344 106.588 100.906C106.53 102.682 106.163 105.218 105.814 106.263C105.511 107.17 104.844 108.425 104.609 108.532C104.51 108.576 104.184 108.487 103.885 108.334C102.36 107.553 101.239 106.156 100.1 103.619C99.6947 102.716 99.3111 101.767 99.2478 101.512L99.1326 101.048L100.076 100.557C102.34 99.3812 104.238 97.6449 105.603 95.5016C105.845 95.1209 106.062 94.798 106.084 94.7842C106.106 94.7703 106.187 94.988 106.263 95.268ZM127.803 85.8362C127.785 85.8816 127.265 86.2387 126.646 86.6299C124.984 87.68 124.708 88.0365 125.022 88.7293C125.16 89.0342 125.322 89.1453 125.852 89.298C126.215 89.4023 126.622 89.4373 126.758 89.3758C127.097 89.2224 127.809 88.2877 128.078 87.643C128.333 87.0308 128.373 86.0462 128.151 85.8278C127.999 85.6784 127.861 85.6818 127.803 85.8362Z" fill="white"/>
</svg>
