<svg width="24" height="30" viewBox="0 0 24 30" fill="none" xmlns="http://www.w3.org/2000/svg">
<path d="M11.5024 8.96713C11.6737 6.69693 13.6236 4.54268 15.682 3.61841C17.1124 2.97614 20.2178 2.12807 21.6177 3.26206C22.3908 3.88839 22.9444 6.09242 22.9589 7.03438C23.0241 11.2853 20.3635 15.0456 17.441 17.8413C14.0532 21.0822 9.95656 23.4629 6.40229 26.5185" stroke="black" stroke-width="2" stroke-linecap="round"/>
<path d="M11.9338 7.42633C11.9653 5.526 10.5515 3.99544 9.7953 2.40511C9.3881 1.54872 7.31371 1.36367 6.41386 1.34585C4.94603 1.31678 3.56665 3.45695 2.86198 4.39939C1.52269 6.1906 1.5259 7.74261 1.36199 9.9153C1.26489 11.2024 2.18809 13.2839 2.91933 14.2983C3.4084 14.9768 3.40268 15.986 3.8374 16.7276C4.33463 17.5757 4.72768 18.4158 5.05655 19.3369C6.12267 22.323 7.91754 25.4453 8.45135 28.5611" stroke="black" stroke-width="2" stroke-linecap="round"/>
<path d="M9.16969 10.2955C9.29454 10.2799 9.13281 9.86774 9.13281 9.79755C9.13281 9.60101 9.24346 9.44566 9.24346 9.24426C9.24346 8.99598 9.23609 8.77027 9.30904 8.53319C9.35494 8.384 9.46478 8.16721 9.46478 8.0086C9.46478 7.67279 9.73573 7.12922 9.48322 6.82621C9.34585 6.66137 9.34108 6.38997 9.25166 6.20121C9.16832 6.02526 9.04247 5.86613 8.95658 5.68481C8.77433 5.30008 8.54087 4.96274 8.3951 4.56185C8.33653 4.40078 8.2584 4.25211 8.20247 4.09053C8.14961 3.93783 7.90877 3.84946 7.76804 3.77496C7.70649 3.74237 7.7095 3.6755 7.65739 3.64791C7.57823 3.606 7.48879 3.58233 7.39919 3.58233C7.17247 3.58233 6.92281 3.55232 6.69836 3.58438C6.23936 3.64995 5.5945 4.01843 5.55491 4.53316C5.54078 4.71681 5.41957 4.93205 5.36843 5.11103C5.3388 5.21473 5.21543 5.50639 5.13073 5.57415C5.01769 5.66458 4.91191 5.91428 4.84589 6.05366C4.75627 6.24286 4.68705 6.44102 4.59589 6.62334C4.48859 6.83793 4.34617 7.0242 4.26392 7.25039C4.20741 7.40579 4.19169 7.55427 4.13482 7.71351C3.92831 8.29172 3.82129 8.94433 3.82129 9.55779C3.82129 10.2095 4.04136 10.8819 4.24547 11.4943C4.34249 11.7853 4.35675 12.1004 4.45654 12.3898C4.54408 12.6437 4.64007 12.8801 4.73523 13.1275C4.8205 13.3492 4.95219 13.5532 5.059 13.7668C5.21087 14.0706 5.33359 14.4267 5.40737 14.7587C5.46246 15.0066 5.49151 15.2673 5.59999 15.4964C5.69157 15.6897 5.7579 15.6808 5.96065 15.6808" stroke="#E6FC97" stroke-width="3" stroke-linecap="round"/>
<path d="M5.95996 14.98C5.97692 15.1496 6.14832 15.3279 6.20996 15.4882C6.24723 15.5851 6.3007 15.6838 6.32677 15.7751C6.36653 15.9142 6.42586 16.3339 6.53169 16.4185C6.70088 16.5539 6.72156 16.94 6.81653 17.1193C6.94323 17.3587 6.98052 17.6518 7.09522 17.8939C7.26602 18.2545 7.33454 18.7364 7.36366 19.1296C7.38917 19.474 7.45267 19.7803 7.54604 20.1071C7.59578 20.2812 7.73428 20.4173 7.77555 20.5948C7.84043 20.8738 7.96108 21.1565 8.04399 21.4329C8.1285 21.7146 8.13621 21.9727 8.13621 22.2669C8.13621 22.4746 8.13621 22.6822 8.13621 22.8899C8.13621 22.982 8.14597 22.9965 8.19563 22.9247C8.30431 22.7677 8.44447 22.639 8.57883 22.5046C8.80003 22.2834 8.99478 22.1481 9.26122 22.0046C9.44464 21.9059 9.67133 21.8755 9.83294 21.73C10.5308 21.1019 11.2776 20.5579 12.0645 20.0333C12.3033 19.8741 12.5237 19.6973 12.7694 19.5517C13.1695 19.3146 13.4327 18.9603 13.8084 18.7054C14.2485 18.4068 14.5209 18.022 14.8863 17.6357C15.0677 17.4439 15.2391 17.2506 15.4047 17.0435C15.6362 16.7541 15.9648 16.5461 16.251 16.3161C16.5922 16.0419 17.0256 15.7509 17.0256 15.2751" stroke="#E6FC97" stroke-width="3" stroke-linecap="round"/>
<path d="M17.1002 14.648C17.1002 14.5842 17.069 14.4636 17.1555 14.4636C17.2591 14.4636 17.3493 14.3153 17.4486 14.2792C17.5953 14.2258 17.5913 14.2222 17.6904 14.0948C17.7831 13.9755 17.8718 13.8586 17.967 13.7423C18.1512 13.5172 18.4001 13.344 18.5756 13.107C18.6953 12.9455 18.8544 12.8059 18.9814 12.648C19.183 12.3973 19.3561 12.1349 19.5428 11.8734C19.7543 11.5774 19.9341 11.2435 20.1597 10.9615C20.2727 10.8202 20.3855 10.568 20.4179 10.3898C20.49 9.99286 20.4535 9.58971 20.5121 9.19103C20.5553 8.89739 20.5551 8.59947 20.5961 8.30373C20.6527 7.89673 20.766 7.50144 20.8174 7.0947C20.8391 6.92383 20.9131 6.57466 20.6781 6.49634" stroke="#E6FC97" stroke-width="3" stroke-linecap="round"/>
<path d="M20.272 6.4963C20.272 5.95782 20.3001 5.12005 19.7187 4.84465C19.5425 4.76119 19.2795 4.78639 19.0998 4.83646C18.8377 4.90951 18.5706 5.00523 18.3089 5.08646C17.7663 5.25484 17.3329 5.45027 16.8785 5.80368C16.6308 5.99633 16.374 6.16373 16.1039 6.32007C15.9687 6.39835 15.8714 6.52303 15.7351 6.59876C15.3957 6.78731 15.1834 7.0563 14.8949 7.31598C14.7472 7.44888 14.5952 7.61405 14.481 7.7791C14.4183 7.86964 14.335 7.96587 14.2596 8.0455C14.1433 8.16845 14.079 8.33048 13.9646 8.45124C13.7237 8.70549 13.5317 9.00824 13.3375 9.29961C13.095 9.66336 12.8306 10.0077 12.5834 10.3672C12.3908 10.6474 12.2368 10.9496 12.0486 11.232C11.9478 11.3831 11.889 11.3669 11.7494 11.2709C11.4205 11.0448 11.1084 10.8792 10.7022 10.8467C10.3281 10.8168 9.82847 10.9028 9.49936 10.7217C9.17011 10.5407 8.83365 10.3027 8.65304 9.9615C8.42651 9.53362 8.14293 9.12541 7.93377 8.69099C7.75332 8.31621 7.62912 7.89659 7.52803 7.49221C7.41652 7.04618 7.40592 6.56499 7.26983 6.1295C7.23203 6.00854 7.08637 5.97322 6.97475 6.03524C6.84434 6.10768 6.78318 6.31845 6.71655 6.44303C6.59465 6.67092 6.43138 6.93194 6.40507 7.19508C6.35661 7.67969 6.47679 8.18448 6.47679 8.6705C6.47679 9.32658 6.5672 9.97219 6.5854 10.6275C6.60058 11.1741 6.53155 11.7541 6.67966 12.2873C6.79131 12.6893 7.03661 13.1356 7.30876 13.4513C7.71473 13.9222 8.06502 14.4867 8.28213 15.0701C8.35972 15.2787 8.41634 15.5032 8.52189 15.6992C8.5563 15.7632 8.55498 15.8715 8.61615 15.9021" stroke="#E6FC97" stroke-width="3" stroke-linecap="round"/>
<path d="M8.09961 12.4719C8.47884 12.4719 8.86866 12.4462 9.24306 12.5169C9.76591 12.6157 10.1843 12.9108 10.6242 13.187C11.0574 13.459 11.5004 13.7376 12.0259 13.726C12.4371 13.7168 12.7988 13.4542 13.1078 13.2014C13.481 12.8961 13.7869 12.5216 14.0197 12.101C14.5967 11.0588 15.277 10.0468 16.1038 9.18699C16.6541 8.61468 17.0558 7.90501 17.6161 7.34477C17.8229 7.13798 18.7709 6.54895 18.7903 7.15829C18.8162 7.97449 18.3655 8.81516 18.0239 9.53126C17.7983 10.0042 17.5028 10.4134 17.2185 10.8489C16.9839 11.2083 16.652 11.4757 16.362 11.7874C16.0267 12.1479 15.6884 12.5045 15.3661 12.8776C14.628 13.7318 13.878 14.5717 13.116 15.4043C12.4102 16.1755 11.6309 16.8236 10.7841 17.4309C10.2321 17.8267 9.63992 18.1696 9.09757 18.5764C8.9993 18.6501 8.95508 18.8111 8.91109 18.9186C8.73581 19.3471 8.95832 18.6972 8.99101 18.5867C9.29502 17.5584 9.57593 16.5272 9.9193 15.5108C9.97767 15.338 10.0545 15.1563 10.0545 14.9719C10.0545 14.891 10.0517 14.77 10.1447 14.894C10.546 15.4291 10.5842 16.3489 10.5464 16.9821C10.4967 17.8128 10.0773 18.5783 9.61192 19.2506C9.49794 19.4152 9.39471 19.6031 9.27995 19.7752" stroke="#E6FC97" stroke-width="3" stroke-linecap="round"/>
<path d="M3.96887 4.94727C3.80348 4.94727 3.66568 5.22169 3.60002 5.33661C3.4399 5.61681 3.39777 5.98024 3.29673 6.28334C3.16776 6.67026 3.06268 7.08402 3.0119 7.49032C2.96671 7.85182 3.00985 8.25264 3.00985 8.61738C3.00985 9.3249 2.8623 10.0335 2.8623 10.7403C2.8623 11.2675 3.00782 11.9617 3.48936 12.2506" stroke="#E6FC97" stroke-linecap="round"/>
<path d="M13.1533 7.89807C13.1533 7.46153 13.5758 6.99604 13.8726 6.69929C14.1159 6.45593 14.3947 6.21054 14.6103 5.94518C14.7126 5.81932 14.8509 5.74565 14.9689 5.63985C15.1107 5.51272 15.3113 5.34651 15.4771 5.25051C15.8896 5.01169 16.3053 4.67371 16.7681 4.54148C17.018 4.47007 17.2548 4.32017 17.5243 4.32017C17.6646 4.32017 17.8236 4.25875 17.9648 4.2382C18.7986 4.11693 19.6239 4.18901 20.4567 4.28329" stroke="#E6FC97" stroke-linecap="round"/>
</svg>
