<svg width="24" height="24" viewBox="0 0 24 24" fill="none" xmlns="http://www.w3.org/2000/svg">
<g clip-path="url(#clip0_388_11216)">
<path d="M24 0H0V24H24V0Z" fill="#19AA1E"/>
<path fill-rule="evenodd" clip-rule="evenodd" d="M0 0H24V7.875L0 4.125V0Z" fill="#FFB919"/>
<path fill-rule="evenodd" clip-rule="evenodd" d="M0 21.375L24 17.625V24H0V21.375Z" fill="#82D714"/>
<path fill-rule="evenodd" clip-rule="evenodd" d="M0 3.65039L8.3772 4.95959C9.42 4.29959 10.6608 3.93779 12 3.93779C13.8546 3.93779 15.5208 4.63199 16.734 5.85119C16.8864 6.00479 17.031 6.16559 17.166 6.33299L24 7.40099V8.34899L17.8602 7.39019C18.3197 8.26852 18.5605 9.24473 18.5622 10.236C18.5622 11.5218 18.2748 12.804 17.6802 14.091L17.6622 14.13L17.4102 14.6712H16.8126C15.5796 14.6712 14.7618 15.0396 14.2272 15.6936C13.8072 16.2066 13.5648 16.8984 13.4832 17.6532L13.4802 17.6772L13.4682 17.7972L13.4634 17.85L13.4538 17.952C13.4263 18.2369 13.4053 18.5223 13.3908 18.8082L24 17.1504V18.0996L0 21.8496V20.9004L10.6212 19.2408L10.6164 19.0278L10.6146 18.9678L10.614 18.9372L10.6122 18.8892C10.6026 18.6312 10.5792 18.3 10.5414 17.8992L10.5342 17.823L10.521 17.691C10.4448 16.932 10.2054 16.2318 9.7866 15.711C9.258 15.0528 8.4474 14.679 7.2246 14.6712H6.5904L6.3378 14.13C5.7312 12.8298 5.4378 11.535 5.4378 10.236C5.4378 8.60279 6.1002 7.02359 7.2666 5.85119C7.3002 5.81699 7.3338 5.78399 7.3686 5.75099L0 4.59899V3.65039Z" fill="white"/>
<path fill-rule="evenodd" clip-rule="evenodd" d="M12 4.875C15.3504 4.875 17.625 7.4538 17.625 10.236C17.625 11.3532 17.3814 12.5154 16.8126 13.734C13.5156 13.734 12.702 16.0944 12.5478 17.58L12.5382 17.679C12.4934 18.1034 12.4632 18.5293 12.4476 18.9558L11.5548 19.095V19.0662C11.5512 18.7302 11.5188 18.2586 11.4588 17.6514L11.4564 17.625C11.3142 16.143 10.5174 13.7334 7.1874 13.7334C6.6186 12.5154 6.375 11.3532 6.375 10.236C6.375 7.4538 8.649 4.875 12 4.875Z" fill="#0070CC"/>
</g>
<defs>
<clipPath id="clip0_388_11216">
<rect width="24" height="24" rx="4" fill="white"/>
</clipPath>
</defs>
</svg>
