<svg width="32" height="32" viewBox="0 0 32 32" fill="none" xmlns="http://www.w3.org/2000/svg"><g clip-path="url(#clip0_303_3636)"><path d="M26 32H6C4.4087 32 2.88258 31.3679 1.75736 30.2426C0.632141 29.1174 0 27.5913 0 26L0 6C0 4.4087 0.632141 2.88258 1.75736 1.75736C2.88258 0.632141 4.4087 0 6 0L26 0C27.5913 0 29.1174 0.632141 30.2426 1.75736C31.3679 2.88258 32 4.4087 32 6V26C32 27.5913 31.3679 29.1174 30.2426 30.2426C29.1174 31.3679 27.5913 32 26 32Z" fill="white"/><path d="M19.335 22.667C19.335 21.932 19.933 21.334 20.668 21.334C21.403 21.334 22.001 21.932 22.001 22.667C21.9877 23.0116 21.8414 23.3377 21.5929 23.5767C21.3443 23.8158 21.0129 23.9494 20.668 23.9494C20.3232 23.9494 19.9917 23.8158 19.7432 23.5767C19.4946 23.3377 19.3484 23.0116 19.335 22.667ZM10.002 22.667C10.002 21.932 10.6 21.334 11.335 21.334C12.07 21.334 12.668 21.932 12.668 22.667C12.668 23.402 12.07 24 11.335 24C10.6 24 10.002 23.402 10.002 22.667Z" fill="#F2A93F"/><path d="M9.43901 23.333H10.374C10.5066 23.333 10.6338 23.2803 10.7276 23.1866C10.8213 23.0928 10.874 22.9656 10.874 22.833C10.874 22.7004 10.8213 22.5732 10.7276 22.4795C10.6338 22.3857 10.5066 22.333 10.374 22.333H9.43901C9.40587 22.3331 9.37345 22.3233 9.34598 22.3048C9.31851 22.2862 9.29727 22.2598 9.28501 22.229L9.01401 21.555C8.99802 21.5158 8.99726 21.472 9.01187 21.4322C9.02648 21.3924 9.05542 21.3596 9.09302 21.34C13.926 19.004 18.57 18.689 22.896 20.406C22.973 20.437 23.016 20.528 22.996 20.614L22.6 22.207C22.5909 22.243 22.57 22.275 22.5407 22.2978C22.5113 22.3207 22.4752 22.333 22.438 22.333H21.553C21.4204 22.333 21.2932 22.3857 21.1995 22.4795C21.1057 22.5732 21.053 22.7004 21.053 22.833C21.053 22.9656 21.1057 23.0928 21.1995 23.1866C21.2932 23.2803 21.4204 23.333 21.553 23.333H22.438C22.974 23.333 23.44 22.969 23.57 22.448L23.966 20.854C24.0348 20.5784 24.0017 20.2872 23.8729 20.0341C23.7441 19.7809 23.5283 19.5827 23.265 19.476C18.669 17.652 13.754 17.975 8.65801 20.439C8.39177 20.5688 8.18467 20.7948 8.07851 21.0713C7.97236 21.3479 7.97504 21.6544 8.08602 21.929L8.35601 22.602C8.53601 23.046 8.96001 23.333 9.43901 23.333Z" fill="#F2A93F"/><path d="M12.229 19.573C12.229 19.586 12.236 19.606 12.242 19.62L12.535 20.353C12.5699 20.4354 12.626 20.5071 12.6974 20.561C12.7688 20.6149 12.8532 20.649 12.942 20.66L17.542 21.24C17.622 21.247 17.695 21.253 17.775 21.253C18.322 21.253 18.835 21.013 19.188 20.58L20.201 19.347C20.2547 19.279 20.2914 19.1991 20.308 19.114C17.655 18.58 14.962 18.753 12.229 19.573Z" fill="#F2A93F"/><path d="M23.661 9.217L20.161 8.027C20.0567 7.99104 19.9433 7.99104 19.839 8.027L16.339 9.217C16.24 9.25066 16.1541 9.31449 16.0933 9.39951C16.0325 9.48453 15.9999 9.58647 16 9.691V12.37C16 15.64 19.649 17.228 19.805 17.295C19.8668 17.3213 19.9333 17.3348 20.0005 17.3348C20.0677 17.3348 20.1342 17.3213 20.196 17.295C20.351 17.228 24 15.639 24 12.369V9.691C24.0001 9.58647 23.9675 9.48453 23.9067 9.39951C23.8459 9.31449 23.76 9.25066 23.661 9.217ZM22.191 11.745L20.358 14.078C20.3024 14.1487 20.2331 14.2073 20.1542 14.2505C20.0753 14.2937 19.9885 14.3205 19.899 14.3292C19.8096 14.338 19.7192 14.3286 19.6335 14.3016C19.5477 14.2746 19.4683 14.2305 19.4 14.172L18.233 13.172C18.1666 13.1151 18.112 13.0456 18.0724 12.9676C18.0328 12.8896 18.0089 12.8045 18.0022 12.7173C17.9954 12.63 18.006 12.5423 18.0331 12.4591C18.0603 12.376 18.1036 12.299 18.1605 12.2325C18.2174 12.1661 18.2869 12.1115 18.3649 12.0719C18.4429 12.0323 18.528 12.0084 18.6152 12.0017C18.7025 11.9949 18.7902 12.0055 18.8734 12.0326C18.9565 12.0598 19.0336 12.1031 19.1 12.16L19.739 12.707L21.143 10.921C21.2523 10.782 21.4123 10.6922 21.5878 10.6712C21.7633 10.6501 21.94 10.6997 22.079 10.809C22.218 10.9183 22.3078 11.0783 22.3289 11.2538C22.3499 11.4293 22.3003 11.606 22.191 11.745Z" fill="#FDD270"/><path d="M12.275 22.333H19.728V23.333H12.275V22.333Z" fill="#F2A93F"/></g><defs><clipPath id="clip0_303_3636"><rect width="32" height="32" fill="white"/></clipPath></defs></svg>