<svg width="32" height="32" viewBox="0 0 32 32" fill="none" xmlns="http://www.w3.org/2000/svg"><g clip-path="url(#clip0_303_3594)"><path d="M26 32H6C4.4087 32 2.88258 31.3679 1.75736 30.2426C0.632141 29.1174 0 27.5913 0 26L0 6C0 4.4087 0.632141 2.88258 1.75736 1.75736C2.88258 0.632141 4.4087 0 6 0L26 0C27.5913 0 29.1174 0.632141 30.2426 1.75736C31.3679 2.88258 32 4.4087 32 6V26C32 27.5913 31.3679 29.1174 30.2426 30.2426C29.1174 31.3679 27.5913 32 26 32Z" fill="white"/><path d="M21.793 17.96C21.406 18.2 21.04 18.387 20.713 18.52C20.486 18.62 20.24 18.667 20 18.667C19.76 18.667 19.513 18.62 19.287 18.52C18.5783 18.2161 17.9145 17.8167 17.314 17.333H10.947L11.934 15.066C12.041 14.826 12.281 14.666 12.541 14.666H15.168C14.9736 14.2413 14.8348 13.7932 14.755 13.333H12.54C11.747 13.333 11.027 13.806 10.707 14.533L9.387 17.566C9.38 17.579 9.387 17.593 9.38 17.613C8.96717 17.8192 8.61963 18.1359 8.376 18.5278C8.13238 18.9197 8.00222 19.3715 8 19.833V22.333C8.01497 22.7651 8.19716 23.1746 8.50814 23.475C8.81913 23.7754 9.23462 23.9433 9.667 23.9433C10.0994 23.9433 10.5149 23.7754 10.8259 23.475C11.1368 23.1746 11.319 22.7651 11.334 22.333V22H19.334V22.333C19.334 22.775 19.5096 23.1989 19.8221 23.5114C20.1346 23.8239 20.5585 23.9995 21.0005 23.9995C21.4425 23.9995 21.8664 23.8239 22.1789 23.5114C22.4914 23.1989 22.667 22.775 22.667 22.333V19.833C22.667 19.08 22.327 18.407 21.793 17.96ZM12 20.667H10.667C10.3 20.667 10 20.367 10 20C10 19.633 10.3 19.333 10.667 19.333H12C12.367 19.333 12.667 19.633 12.667 20C12.667 20.367 12.367 20.667 12 20.667ZM20 20.667H18.667C18.3 20.667 18 20.367 18 20C18 19.633 18.3 19.333 18.667 19.333H20C20.367 19.333 20.667 19.633 20.667 20C20.667 20.367 20.367 20.667 20 20.667Z" fill="#F2A93F"/><path d="M23.661 9.217L20.161 8.027C20.0567 7.99104 19.9433 7.99104 19.839 8.027L16.339 9.217C16.24 9.25066 16.1541 9.31449 16.0933 9.39951C16.0325 9.48453 15.9999 9.58647 16 9.691V12.37C16 15.64 19.649 17.228 19.805 17.295C19.8668 17.3213 19.9333 17.3348 20.0005 17.3348C20.0677 17.3348 20.1342 17.3213 20.196 17.295C20.351 17.228 24 15.639 24 12.369V9.691C24.0001 9.58647 23.9675 9.48453 23.9067 9.39951C23.8459 9.31449 23.76 9.25066 23.661 9.217ZM22.191 11.745L20.358 14.078C20.3024 14.1487 20.2331 14.2073 20.1542 14.2505C20.0753 14.2937 19.9885 14.3205 19.899 14.3292C19.8096 14.338 19.7192 14.3286 19.6335 14.3016C19.5477 14.2746 19.4683 14.2305 19.4 14.172L18.233 13.172C18.1666 13.1151 18.112 13.0456 18.0724 12.9676C18.0328 12.8896 18.0089 12.8045 18.0022 12.7173C17.9954 12.63 18.006 12.5423 18.0331 12.4591C18.0603 12.376 18.1036 12.299 18.1605 12.2325C18.2174 12.1661 18.2869 12.1115 18.3649 12.0719C18.4429 12.0323 18.528 12.0084 18.6152 12.0017C18.7025 11.9949 18.7902 12.0055 18.8734 12.0326C18.9565 12.0598 19.0336 12.1031 19.1 12.16L19.739 12.707L21.143 10.921C21.2523 10.782 21.4123 10.6922 21.5878 10.6712C21.7633 10.6501 21.94 10.6997 22.079 10.809C22.218 10.9183 22.3078 11.0783 22.3289 11.2538C22.3499 11.4293 22.3003 11.606 22.191 11.745Z" fill="#FDD270"/></g><defs><clipPath id="clip0_303_3594"><rect width="32" height="32" fill="white"/></clipPath></defs></svg>