<svg width="32" height="32" viewBox="0 0 32 32" fill="none" xmlns="http://www.w3.org/2000/svg">
<g clip-path="url(#clip0_303_3378)">
<path d="M30.6829 9.55389C30.5436 9.55389 30.4006 9.57375 30.2579 9.61321L28.643 10.0581L26.9661 5.97309C26.4911 4.81572 25.0867 3.87427 23.8357 3.87427H8.1417C6.89059 3.87427 5.4863 4.81572 5.01135 5.97309L3.33659 10.0525L1.74197 9.61321C1.60364 9.57447 1.46073 9.55452 1.31709 9.55389C0.55399 9.55389 0 10.1369 0 10.9402V11.8924C0 12.8302 0.762825 13.593 1.70061 13.593H1.88319L1.61258 14.2523C1.17124 15.3277 0.81221 17.1479 0.81221 18.3101V26.4256C0.81221 27.3633 1.57517 28.1262 2.51282 28.1262H4.73395C5.67173 28.1262 6.43456 27.3633 6.43456 26.4256V24.3988H25.5431V26.4256C25.5431 27.3633 26.306 28.1262 27.2437 28.1262H29.4647C30.4025 28.1262 31.1653 27.3633 31.1653 26.4256V18.3101C31.1653 17.148 30.8063 15.3277 30.3648 14.2523L30.0942 13.593H30.2994C31.237 13.593 32 12.8302 32 11.8924V10.9402C32 10.1369 31.4461 9.55389 30.6829 9.55389ZM4.55613 12.6693L7.09276 6.49035C7.37697 5.79813 8.22169 5.23176 8.96996 5.23176H23.0077C23.756 5.23176 24.6007 5.79813 24.8848 6.49035L27.4214 12.6693C27.7056 13.3615 27.3259 13.9279 26.5776 13.9279H5.40004C4.65178 13.9279 4.27206 13.3615 4.55613 12.6693ZM10.2189 20.4847C10.2189 20.8589 9.91278 21.165 9.53864 21.165H4.7198C4.34567 21.165 4.03956 20.8589 4.03956 20.4847V18.172C4.03956 17.7979 4.34567 17.4918 4.7198 17.4918H9.53864C9.91278 17.4918 10.2189 17.7979 10.2189 18.172V20.4847ZM27.8924 20.4847C27.8924 20.8589 27.5863 21.165 27.2122 21.165H22.3935C22.0193 21.165 21.7132 20.8589 21.7132 20.4847V18.172C21.7132 17.7979 22.0193 17.4918 22.3935 17.4918H27.2122C27.5863 17.4918 27.8924 17.7979 27.8924 18.172V20.4847Z" fill="white"/>
</g>
<defs>
<clipPath id="clip0_303_3378">
<rect width="32" height="32" fill="white"/>
</clipPath>
</defs>
</svg>
