<svg width="68" height="68" viewBox="0 0 68 68" fill="none" xmlns="http://www.w3.org/2000/svg"><path d="M34 0C15.223 0 0 15.2177 0 34C0 52.7823 15.223 68 34 68C52.777 68 68 52.773 68 34C68 15.227 52.777 0 34 0Z" fill="#F2A93F"/><path d="M3.15749e-05 34C-0.00764356 39.6199 1.38403 45.1533 4.04948 50.1008C7.44534 51.0979 10.9666 51.6028 14.5058 51.6003C34.9457 51.6003 51.5153 35.0306 51.5153 14.5908C51.5184 10.9955 50.9976 7.41888 49.9694 3.97374C45.0542 1.35563 39.569 -0.00928798 34 -1.40912e-05C15.223 -1.40912e-05 3.15749e-05 15.2176 3.15749e-05 34Z" fill="#F5BE6C"/><path d="M53.3906 28.366L32.9548 49.8272C32.3978 50.4115 31.7287 50.8773 30.9875 51.1968C30.2463 51.5163 29.4482 51.6829 28.641 51.6866H28.6145C27.8118 51.6868 27.0173 51.5257 26.2781 51.2129C25.5389 50.9002 24.87 50.442 24.3113 49.8657L13.4672 38.6962C12.9069 38.1338 12.4639 37.4657 12.1638 36.7307C11.8638 35.9956 11.7128 35.2083 11.7195 34.4145C11.7261 33.6206 11.8904 32.836 12.2028 32.1061C12.5152 31.3763 12.9694 30.7157 13.5391 30.1628C14.1088 29.6099 14.7826 29.1757 15.5215 28.8853C16.2604 28.5949 17.0496 28.4542 17.8433 28.4712C18.637 28.4883 19.4194 28.6628 20.1451 28.9847C20.8708 29.3066 21.5254 29.7694 22.0708 30.3463L28.572 37.0427L44.7073 20.0985C45.2479 19.5189 45.8979 19.0522 46.6199 18.7255C47.342 18.3987 48.1216 18.2184 48.9138 18.1948C49.7059 18.1713 50.4949 18.3051 51.235 18.5884C51.9752 18.8717 52.6518 19.299 53.2257 19.8455C53.7997 20.392 54.2596 21.0468 54.5789 21.7722C54.8982 22.4975 55.0704 23.279 55.0858 24.0714C55.1011 24.8637 54.9592 25.6513 54.6682 26.3884C54.3773 27.1256 53.943 27.7978 53.3906 28.366Z" fill="white"/></svg>