<svg width="24" height="24" viewBox="0 0 24 24" fill="none" xmlns="http://www.w3.org/2000/svg"><path d="M22.8291 14.6055L17.8159 12.0989L14.4756 2.74413C14.1026 1.70116 13.1084 1 12 1C10.8916 1 9.89747 1.70116 9.52439 2.74464L6.18408 12.0989L1.17089 14.6055C0.448266 14.9668 0 15.6924 0 16.5C0 17.3066 0.448266 18.0327 1.17089 18.3946L8.93456 22.2764C9.88181 22.7496 10.9414 23.0001 12 23.0001C13.0586 23.0001 14.1182 22.7496 15.0654 22.2764L22.8291 18.3946C23.5518 18.0327 24 17.3066 24 16.5C24 15.6924 23.5518 14.9668 22.8291 14.6055ZM9.23147 6.53908C9.99122 6.8418 10.9356 7 12 7C13.0645 7 14.0088 6.8418 14.7686 6.53908L15.6661 9.04984C14.9395 9.64117 13.5763 10 12.0001 10C10.4239 10 9.06066 9.64117 8.33409 9.04984L9.23147 6.53908ZM12 18C9.59569 18 6.12108 17.0591 6.00291 15.5781L6.65039 13.7666C7.86623 14.5567 9.7627 15 12 15C14.2373 15 16.1338 14.5567 17.3496 13.7666L17.9971 15.5781C17.8789 17.0591 14.4043 18 12 18Z" fill="#F2A93F"/></svg>