<svg width="57" height="57" viewBox="0 0 57 57" fill="none" xmlns="http://www.w3.org/2000/svg"><g clip-path="url(#clip0_387_9967)"><path d="M53.651 34.4624L41.9535 28.6137L34.1595 6.78593C33.2891 4.35234 30.9693 2.71631 28.3831 2.71631C25.7968 2.71631 23.4771 4.35234 22.6066 6.78714L14.8126 28.6137L3.11513 34.4624C1.42901 35.3056 0.383057 36.9986 0.383057 38.883C0.383057 40.7651 1.42901 42.4594 3.11513 43.3036L21.2304 52.3613C23.4406 53.4653 25.913 54.0498 28.3831 54.0498C30.8531 54.0498 33.3255 53.4653 35.5357 52.3613L53.651 43.3036C55.3372 42.4594 56.3831 40.7651 56.3831 38.883C56.3831 36.9986 55.3372 35.3056 53.651 34.4624ZM21.9232 15.6408C23.6959 16.3472 25.8994 16.7163 28.3832 16.7163C30.867 16.7163 33.0703 16.3472 34.8432 15.6408L36.9373 21.4993C35.242 22.879 32.061 23.7164 28.3833 23.7164C24.7055 23.7164 21.5246 22.879 19.8293 21.4993L21.9232 15.6408ZM28.3831 42.383C22.773 42.383 14.6656 40.1875 14.3898 36.7319L15.9006 32.505C18.7376 34.3485 23.1627 35.383 28.3831 35.383C33.6034 35.383 38.0286 34.3485 40.8655 32.505L42.3763 36.7319C42.1005 40.1875 33.9931 42.383 28.3831 42.383Z" fill="url(#paint0_linear_387_9967)"/></g><defs><linearGradient id="paint0_linear_387_9967" x1="-4.06751" y1="50.2743" x2="66.3256" y2="37.6148" gradientUnits="userSpaceOnUse"><stop stop-color="#FABD2F"/><stop offset="1" stop-color="#DB924B"/></linearGradient><clipPath id="clip0_387_9967"><rect width="56" height="56" fill="white" transform="translate(0.383057 0.382812)"/></clipPath></defs></svg>