<svg width="49" height="48" viewBox="0 0 49 48" fill="none" xmlns="http://www.w3.org/2000/svg"><path d="M39.5 48H9.5C7.11305 48 4.82387 47.0518 3.13604 45.364C1.44821 43.6761 0.5 41.3869 0.5 39L0.5 9C0.5 6.61305 1.44821 4.32387 3.13604 2.63604C4.82387 0.948211 7.11305 0 9.5 0L39.5 0C41.8869 0 44.1761 0.948211 45.864 2.63604C47.5518 4.32387 48.5 6.61305 48.5 9V39C48.5 41.3869 47.5518 43.6761 45.864 45.364C44.1761 47.0518 41.8869 48 39.5 48Z" fill="white"/><path d="M21.5 28.9995H19.25C18.9916 28.9895 18.747 28.8798 18.5677 28.6934C18.3884 28.507 18.2882 28.2584 18.2882 27.9998C18.2882 27.7411 18.3884 27.4925 18.5677 27.3061C18.747 27.1197 18.9916 27.01 19.25 27H21.5V25.0005H20.567C20.222 24.9995 19.883 24.9097 19.5827 24.7397C19.2824 24.5697 19.0309 24.3253 18.8525 24.03L16.727 20.487C16.6378 20.3391 16.512 20.2167 16.3617 20.1315C16.2114 20.0464 16.0417 20.0014 15.869 20.001H13.5005C13.2352 20.001 12.9807 19.8956 12.793 19.708C12.6054 19.5203 12.5 19.2658 12.5 19.0005C12.5 18.7352 12.6054 18.4807 12.793 18.293C12.9807 18.1054 13.2352 18 13.5005 18H15.8675C16.9145 18 17.9 18.558 18.4415 19.4565L20.567 23.001H21.5C22.6025 23.001 23.4995 23.898 23.4995 25.0005V27C23.4995 28.1025 22.6025 28.9995 21.5 28.9995Z" fill="#F2A93F"/><path d="M16.9995 31.0005C15.621 31.0005 14.499 29.8785 14.499 28.5C14.499 27.1215 15.6195 25.9995 16.9995 25.9995C18.3795 25.9995 19.5 27.1215 19.5 28.5C19.5 29.8785 18.378 31.0005 16.9995 31.0005Z" fill="#F2A93F"/><path d="M14.75 28.9995H13.5005C13.2353 28.9995 12.9811 28.8942 12.7936 28.7067C12.6061 28.5192 12.5007 28.2649 12.5007 27.9998C12.5007 27.7346 12.6061 27.4803 12.7936 27.2928C12.9811 27.1053 13.2353 27 13.5005 27H14.75C15.0084 27.01 15.253 27.1197 15.4323 27.3061C15.6116 27.4925 15.7118 27.7411 15.7118 27.9998C15.7118 28.2584 15.6116 28.507 15.4323 28.6934C15.253 28.8798 15.0084 28.9895 14.75 28.9995ZM15.5 24H13.5005C13.2352 24 12.9807 23.8946 12.793 23.707C12.6054 23.5193 12.5 23.2648 12.5 22.9995C12.5 22.7342 12.6054 22.4797 12.793 22.292C12.9807 22.1044 13.2352 21.999 13.5005 21.999H15.5C15.7653 21.999 16.0198 22.1044 16.2075 22.292C16.3951 22.4797 16.5005 22.7342 16.5005 22.9995C16.5005 23.2648 16.3951 23.5193 16.2075 23.707C16.0198 23.8946 15.7653 24 15.5 24ZM27.5 28.9995H29.75C30.0084 28.9895 30.253 28.8798 30.4323 28.6934C30.6116 28.507 30.7118 28.2584 30.7118 27.9998C30.7118 27.7411 30.6116 27.4925 30.4323 27.3061C30.253 27.1197 30.0084 27.01 29.75 27H27.5V25.0005H28.433C28.778 24.9995 29.117 24.9097 29.4173 24.7397C29.7176 24.5697 29.9691 24.3253 30.1475 24.03L32.273 20.487C32.3622 20.3391 32.488 20.2167 32.6383 20.1315C32.7886 20.0464 32.9583 20.0014 33.131 20.001H35.498C35.7633 20.0012 36.0179 19.896 36.2057 19.7085C36.3935 19.521 36.4991 19.2666 36.4993 19.0012C36.4994 18.7359 36.3942 18.4813 36.2067 18.2936C36.0193 18.1058 35.7648 18.0002 35.4995 18H33.1325C32.0855 18 31.1 18.558 30.5585 19.4565L28.433 23.001H27.5C26.3975 23.001 25.5005 23.898 25.5005 25.0005V27C25.5005 28.1025 26.3975 28.9995 27.5 28.9995Z" fill="#F2A93F"/><path d="M29.499 28.5C29.499 27.1215 30.6195 25.9995 31.9995 25.9995C33.3795 25.9995 34.5 27.1215 34.5 28.5C34.5 29.8785 33.3795 31.0005 31.9995 31.0005C30.6195 31.0005 29.499 29.8785 29.499 28.5Z" fill="#F2A93F"/><path d="M34.2495 28.9995H35.499C35.7575 28.9895 36.002 28.8798 36.1813 28.6934C36.3606 28.507 36.4608 28.2584 36.4608 27.9998C36.4608 27.7411 36.3606 27.4925 36.1813 27.3061C36.002 27.1197 35.7575 27.01 35.499 27H34.2495C33.9911 27.01 33.7465 27.1197 33.5672 27.3061C33.3879 27.4925 33.2878 27.7411 33.2878 27.9998C33.2878 28.2584 33.3879 28.507 33.5672 28.6934C33.7465 28.8798 33.9911 28.9895 34.2495 28.9995ZM33.4995 24H35.499C35.7644 24 36.0189 23.8946 36.2065 23.707C36.3941 23.5194 36.4995 23.2649 36.4995 22.9995C36.4995 22.7342 36.3941 22.4797 36.2065 22.2921C36.0189 22.1044 35.7644 21.999 35.499 21.999H33.4995C33.2342 21.999 32.9797 22.1044 32.7921 22.2921C32.6044 22.4797 32.499 22.7342 32.499 22.9995C32.499 23.2649 32.6044 23.5194 32.7921 23.707C32.9797 23.8946 33.2342 24 33.4995 24Z" fill="#F2A93F"/><path d="M24.5003 19.9995C24.3014 19.9995 24.1106 19.9205 23.97 19.7798C23.8293 19.6392 23.7503 19.4484 23.7503 19.2495V17.7495C23.7503 17.5506 23.8293 17.3598 23.97 17.2192C24.1106 17.0785 24.3014 16.9995 24.5003 16.9995C24.6992 16.9995 24.89 17.0785 25.0306 17.2192C25.1713 17.3598 25.2503 17.5506 25.2503 17.7495V19.2495C25.2503 19.4484 25.1713 19.6392 25.0306 19.7798C24.89 19.9205 24.6992 19.9995 24.5003 19.9995ZM27.2498 21C27.1016 21 26.9567 20.956 26.8334 20.8737C26.7102 20.7914 26.6141 20.6744 26.5572 20.5375C26.5004 20.4006 26.4855 20.2499 26.5142 20.1045C26.543 19.9591 26.6142 19.8255 26.7188 19.7205L27.2183 19.221C27.3598 19.0844 27.5492 19.0088 27.7459 19.0105C27.9425 19.0122 28.1306 19.0911 28.2697 19.2301C28.4087 19.3692 28.4876 19.5573 28.4893 19.754C28.491 19.9506 28.4154 20.1401 28.2788 20.2815L27.7793 20.781C27.7098 20.8506 27.6273 20.9058 27.5364 20.9434C27.4456 20.981 27.3481 21.0002 27.2498 21ZM21.7508 21C21.5518 21 21.3609 20.9213 21.2198 20.781L20.7203 20.28C20.5837 20.1386 20.5081 19.9491 20.5098 19.7525C20.5115 19.5558 20.5904 19.3677 20.7294 19.2286C20.8685 19.0896 21.0566 19.0107 21.2532 19.009C21.4499 19.0073 21.6393 19.0829 21.7808 19.2195L22.2803 19.719C22.3854 19.8238 22.457 19.9574 22.4861 20.103C22.5152 20.2485 22.5005 20.3994 22.4438 20.5365C22.3871 20.6737 22.291 20.7909 22.1676 20.8734C22.0443 20.9559 21.8992 21 21.7508 21Z" fill="#FDD270"/></svg>