<svg width="49" height="48" viewBox="0 0 49 48" fill="none" xmlns="http://www.w3.org/2000/svg">
<g clip-path="url(#clip0_113_6801)">
<path d="M39.5 48H9.5C7.11305 48 4.82387 47.0518 3.13604 45.364C1.44821 43.6761 0.5 41.3869 0.5 39L0.5 9C0.5 6.61305 1.44821 4.32387 3.13604 2.63604C4.82387 0.948211 7.11305 0 9.5 0L39.5 0C41.8869 0 44.1761 0.948211 45.864 2.63604C47.5518 4.32387 48.5 6.61305 48.5 9V39C48.5 41.3869 47.5518 43.6761 45.864 45.364C44.1761 47.0518 41.8869 48 39.5 48Z" fill="white"/>
<path d="M30.999 29.5005C32.6559 29.5005 33.999 28.1573 33.999 26.5005C33.999 24.8436 32.6559 23.5005 30.999 23.5005C29.3422 23.5005 27.999 24.8436 27.999 26.5005C27.999 28.1573 29.3422 29.5005 30.999 29.5005Z" fill="#F2A93F"/>
<path d="M33.751 31.0005H28.2505C27.5215 31.0013 26.8226 31.2912 26.3072 31.8067C25.7917 32.3221 25.5018 33.021 25.501 33.75V35.25C25.501 35.4489 25.58 35.6397 25.7206 35.7803C25.8613 35.921 26.0521 36 26.251 36H35.7505C35.9494 36 36.1402 35.921 36.2808 35.7803C36.4215 35.6397 36.5005 35.4489 36.5005 35.25V33.75C36.4997 33.021 36.2097 32.3221 35.6943 31.8067C35.1788 31.2912 34.4799 31.0013 33.751 31.0005Z" fill="#F2A93F"/>
<path d="M16.5005 30.999C17.6048 30.999 18.5 30.1038 18.5 28.9995C18.5 27.8952 17.6048 27 16.5005 27C15.3962 27 14.501 27.8952 14.501 28.9995C14.501 30.1038 15.3962 30.999 16.5005 30.999Z" fill="#F2A93F"/>
<path d="M17.75 31.9995H15.2495C14.5204 32.0007 13.8215 32.291 13.3061 32.8067C12.7907 33.3224 12.5008 34.0214 12.5 34.7505V35.25C12.5 35.4489 12.579 35.6397 12.7197 35.7803C12.8603 35.921 13.0511 36 13.25 36H19.7495C19.9484 36 20.1392 35.921 20.2798 35.7803C20.4205 35.6397 20.4995 35.4489 20.4995 35.25V34.7505C20.4987 34.0214 20.2088 33.3224 19.6934 32.8067C19.178 32.291 18.4791 32.0007 17.75 31.9995Z" fill="#F2A93F"/>
<path d="M24.7505 12H15.2495C14.5205 12.0008 13.8216 12.2907 13.3062 12.8062C12.7907 13.3216 12.5008 14.0205 12.5 14.7495V22.2495C12.5 23.766 13.733 24.999 15.2495 24.999H20.207L23.2415 27.801C23.3484 27.9005 23.482 27.9665 23.6259 27.991C23.7698 28.0155 23.9177 27.9974 24.0515 27.9389C24.1852 27.8804 24.2989 27.7841 24.3786 27.6617C24.4583 27.5394 24.5005 27.3965 24.5 27.2505V25.0005H24.7505C25.4795 24.9997 26.1784 24.7098 26.6938 24.1943C27.2093 23.6789 27.4992 22.98 27.5 22.251V14.751C27.4996 14.0218 27.2098 13.3225 26.6943 12.8067C26.1788 12.2909 25.4797 12.0008 24.7505 12ZM22.7495 20.5005H17.249C17.0501 20.5005 16.8593 20.4215 16.7187 20.2808C16.578 20.1402 16.499 19.9494 16.499 19.7505C16.499 19.5516 16.578 19.3608 16.7187 19.2202C16.8593 19.0795 17.0501 19.0005 17.249 19.0005H22.7495C22.9484 19.0005 23.1392 19.0795 23.2798 19.2202C23.4205 19.3608 23.4995 19.5516 23.4995 19.7505C23.4995 19.9494 23.4205 20.1402 23.2798 20.2808C23.1392 20.4215 22.9484 20.5005 22.7495 20.5005ZM22.7495 16.9995H17.249C17.0501 16.9995 16.8593 16.9205 16.7187 16.7798C16.578 16.6392 16.499 16.4484 16.499 16.2495C16.499 16.0506 16.578 15.8598 16.7187 15.7192C16.8593 15.5785 17.0501 15.4995 17.249 15.4995H22.7495C22.9484 15.4995 23.1392 15.5785 23.2798 15.7192C23.4205 15.8598 23.4995 16.0506 23.4995 16.2495C23.4995 16.4484 23.4205 16.6392 23.2798 16.7798C23.1392 16.9205 22.9484 16.9995 22.7495 16.9995Z" fill="#FDD270"/>
</g>
<defs>
<clipPath id="clip0_113_6801">
<rect width="48" height="48" fill="white" transform="translate(0.5)"/>
</clipPath>
</defs>
</svg>
