<svg width="32" height="32" viewBox="0 0 32 32" fill="none" xmlns="http://www.w3.org/2000/svg"><g clip-path="url(#clip0_303_3620)"><path d="M26 32H6C4.4087 32 2.88258 31.3679 1.75736 30.2426C0.632141 29.1174 0 27.5913 0 26L0 6C0 4.4087 0.632141 2.88258 1.75736 1.75736C2.88258 0.632141 4.4087 0 6 0L26 0C27.5913 0 29.1174 0.632141 30.2426 1.75736C31.3679 2.88258 32 4.4087 32 6V26C32 27.5913 31.3679 29.1174 30.2426 30.2426C29.1174 31.3679 27.5913 32 26 32Z" fill="white"/><path d="M16 11.334C16.9207 11.334 17.667 10.5877 17.667 9.667C17.667 8.74634 16.9207 8 16 8C15.0793 8 14.333 8.74634 14.333 9.667C14.333 10.5877 15.0793 11.334 16 11.334Z" fill="#F2A93F"/><path d="M20.667 20.667C21.5877 20.667 22.334 19.9207 22.334 19C22.334 18.0793 21.5877 17.333 20.667 17.333C19.7463 17.333 19 18.0793 19 19C19 19.9207 19.7463 20.667 20.667 20.667Z" fill="#F2A93F"/><path d="M11.333 20.667C12.2537 20.667 13 19.9207 13 19C13 18.0793 12.2537 17.333 11.333 17.333C10.4124 17.333 9.66602 18.0793 9.66602 19C9.66602 19.9207 10.4124 20.667 11.333 20.667Z" fill="#F2A93F"/><path d="M18.833 14.667H13.166C13.0334 14.667 12.9062 14.6143 12.8124 14.5206C12.7187 14.4268 12.666 14.2996 12.666 14.167V13.834C12.666 12.823 13.488 12.001 14.499 12.001H17.499C18.51 12.001 19.332 12.823 19.332 13.834V14.167C19.3321 14.2326 19.3193 14.2976 19.2943 14.3583C19.2693 14.4189 19.2326 14.4741 19.1862 14.5205C19.1399 14.5669 19.0848 14.6038 19.0242 14.6289C18.9636 14.6541 18.8986 14.667 18.833 14.667ZM23.5 24H17.833C17.7004 24 17.5732 23.9473 17.4794 23.8536C17.3857 23.7598 17.333 23.6326 17.333 23.5V23.167C17.333 22.156 18.155 21.334 19.166 21.334H22.166C23.177 21.334 23.999 22.156 23.999 23.167V23.5C23.9991 23.5656 23.9863 23.6306 23.9613 23.6913C23.9363 23.7519 23.8996 23.8071 23.8532 23.8535C23.8069 23.8999 23.7518 23.9368 23.6912 23.9619C23.6306 23.9871 23.5656 24 23.5 24ZM14.167 24H8.5C8.36739 24 8.24021 23.9473 8.14645 23.8536C8.05268 23.7598 8 23.6326 8 23.5V23.167C8 22.156 8.822 21.334 9.833 21.334H12.833C13.844 21.334 14.666 22.156 14.666 23.167V23.5C14.6661 23.5656 14.6533 23.6306 14.6283 23.6913C14.6033 23.7519 14.5666 23.8071 14.5202 23.8535C14.4739 23.8999 14.4188 23.9368 14.3582 23.9619C14.2976 23.9871 14.2326 24 14.167 24Z" fill="#F2A93F"/><path d="M9.83301 16.508C9.7004 16.508 9.57322 16.4553 9.47945 16.3615C9.38569 16.2678 9.33301 16.1406 9.33301 16.008C9.33596 14.7377 9.70029 13.4945 10.3834 12.4236C11.0666 11.3526 12.0404 10.4982 13.191 9.95999C13.2507 9.93154 13.3154 9.91519 13.3814 9.9119C13.4474 9.90862 13.5134 9.91846 13.5756 9.94085C13.6378 9.96324 13.695 9.99774 13.7437 10.0424C13.7925 10.087 13.832 10.1408 13.8598 10.2008C13.8876 10.2607 13.9033 10.3256 13.9059 10.3917C13.9085 10.4577 13.8979 10.5236 13.8749 10.5856C13.8519 10.6475 13.8168 10.7043 13.7716 10.7526C13.7265 10.8009 13.6723 10.8398 13.612 10.867C12.6338 11.3244 11.8059 12.0506 11.2251 12.961C10.6443 13.8713 10.3346 14.9282 10.332 16.008C10.3321 16.0736 10.3193 16.1386 10.2943 16.1993C10.2693 16.2599 10.2326 16.315 10.1862 16.3615C10.1399 16.4079 10.0848 16.4448 10.0242 16.4699C9.96359 16.4951 9.89862 16.508 9.83301 16.508ZM22.167 16.508C22.0344 16.508 21.9072 16.4553 21.8135 16.3615C21.7197 16.2678 21.667 16.1406 21.667 16.008C21.6648 14.9281 21.3552 13.8711 20.7743 12.9607C20.1935 12.0503 19.3654 11.3241 18.387 10.867C18.2752 10.8061 18.1907 10.7049 18.1508 10.584C18.1109 10.4631 18.1186 10.3316 18.1722 10.2161C18.2258 10.1006 18.3213 10.0098 18.4394 9.96227C18.5575 9.9147 18.6893 9.91389 18.808 9.95999C19.9587 10.4981 20.9326 11.3525 21.6157 12.4235C22.2989 13.4944 22.6632 14.7377 22.666 16.008C22.6661 16.0736 22.6533 16.1386 22.6283 16.1993C22.6033 16.2599 22.5666 16.315 22.5202 16.3615C22.4739 16.4079 22.4188 16.4448 22.3582 16.4699C22.2976 16.4951 22.2326 16.508 22.167 16.508ZM16 22.675C15.764 22.675 15.532 22.663 15.303 22.639C15.1746 22.6211 15.0581 22.5541 14.9782 22.452C14.8982 22.3499 14.8611 22.2207 14.8746 22.0917C14.8881 21.9628 14.9511 21.8441 15.0505 21.7607C15.1498 21.6774 15.2777 21.6359 15.407 21.645C15.808 21.687 16.229 21.685 16.632 21.641C16.7638 21.6264 16.896 21.6648 16.9995 21.7477C17.1031 21.8306 17.1694 21.9512 17.184 22.083C17.1986 22.2148 17.1602 22.347 17.0773 22.4505C16.9944 22.5541 16.8738 22.6204 16.742 22.635C16.498 22.661 16.251 22.675 16 22.675Z" fill="#F2A93F"/></g><defs><clipPath id="clip0_303_3620"><rect width="32" height="32" fill="white"/></clipPath></defs></svg>