<svg width="55" height="55" viewBox="0 0 55 55" fill="none" xmlns="http://www.w3.org/2000/svg">
<g clip-path="url(#clip0_387_9971)">
<path d="M38.3503 28.7616V25.3022C37.2566 25.4461 36.1903 25.7515 35.1863 26.2084C35.5194 26.8215 35.9705 27.3627 36.5135 27.8008C37.0565 28.239 37.6807 28.5655 38.3503 28.7616ZM41.3035 28.7616C41.9731 28.5655 42.5973 28.239 43.1403 27.8008C43.6833 27.3627 44.1344 26.8215 44.4675 26.2084C43.4635 25.7515 42.3972 25.4461 41.3035 25.3022V28.7616Z" fill="url(#paint0_linear_387_9971)"/>
<path d="M15.3582 24.7539C17.1056 24.7539 18.5222 23.3373 18.5222 21.5898C18.5222 19.8424 17.1056 18.4258 15.3582 18.4258C13.6107 18.4258 12.1941 19.8424 12.1941 21.5898C12.1941 23.3373 13.6107 24.7539 15.3582 24.7539Z" fill="url(#paint1_linear_387_9971)"/>
<path d="M15.3582 27.707C13.7363 27.7088 12.1814 28.3539 11.0346 29.5007C9.88781 30.6475 9.24275 32.2024 9.24097 33.8242V35.7227H21.4753V33.8242C21.4736 32.2024 20.8285 30.6475 19.6817 29.5007C18.5349 28.3539 16.98 27.7088 15.3582 27.707ZM39.8269 18.4258C38.5046 18.428 37.2312 18.9264 36.2587 19.8224C35.2862 20.7185 34.6855 21.9469 34.5754 23.2647C37.9501 21.935 41.7037 21.935 45.0784 23.2647C44.9683 21.9469 44.3676 20.7185 43.3951 19.8224C42.4226 18.9264 41.1493 18.428 39.8269 18.4258Z" fill="url(#paint2_linear_387_9971)"/>
<path d="M49.9519 9.56641H4.3894C3.32688 9.56775 2.30825 9.99043 1.55693 10.7417C0.805612 11.4931 0.382931 12.5117 0.381592 13.5742V40.5742C0.382931 41.6367 0.805612 42.6554 1.55693 43.4067C2.30825 44.158 3.32688 44.5807 4.3894 44.582H49.9519C51.0144 44.5807 52.0331 44.158 52.7844 43.4067C53.5357 42.6554 53.9584 41.6367 53.9597 40.5742V13.5742C53.9584 12.5117 53.5357 11.4931 52.7844 10.7417C52.0331 9.99043 51.0144 9.56775 49.9519 9.56641ZM24.4285 37.1992C24.4282 37.5908 24.2726 37.9662 23.9957 38.2431C23.7189 38.5199 23.3434 38.6756 22.9519 38.6758H7.7644C7.37286 38.6756 6.99742 38.5199 6.72056 38.2431C6.4437 37.9662 6.28807 37.5908 6.28784 37.1992V33.8242C6.28895 32.1985 6.72672 30.603 7.55538 29.2044C8.38405 27.8058 9.57318 26.6554 10.9985 25.8736C10.1527 25.0142 9.57971 23.9241 9.35152 22.7402C9.12333 21.5563 9.25011 20.3313 9.71593 19.2192C10.1818 18.107 10.9659 17.1574 11.9697 16.4895C12.9736 15.8216 14.1524 15.4653 15.3582 15.4653C16.5639 15.4653 17.7427 15.8216 18.7466 16.4895C19.7505 17.1574 20.5345 18.107 21.0004 19.2192C21.4662 20.3313 21.593 21.5563 21.3648 22.7402C21.1366 23.9241 20.5636 25.0142 19.7178 25.8736C21.1431 26.6554 22.3323 27.8058 23.1609 29.2044C23.9896 30.603 24.4274 32.1985 24.4285 33.8242V37.1992ZM46.5769 38.6758H28.8582C28.4665 38.6758 28.091 38.5202 27.8141 38.2433C27.5372 37.9664 27.3816 37.5908 27.3816 37.1992C27.3816 36.8076 27.5372 36.432 27.8141 36.1551C28.091 35.8782 28.4665 35.7227 28.8582 35.7227H46.5769C46.9685 35.7227 47.3441 35.8782 47.621 36.1551C47.8979 36.432 48.0535 36.8076 48.0535 37.1992C48.0535 37.5908 47.8979 37.9664 47.621 38.2433C47.3441 38.5202 46.9685 38.6758 46.5769 38.6758ZM39.8269 31.9258C38.1998 31.9258 36.6093 31.4433 35.2565 30.5394C33.9036 29.6354 32.8492 28.3506 32.2266 26.8474C31.6039 25.3442 31.441 23.6901 31.7584 22.0943C32.0758 20.4985 32.8593 19.0327 34.0098 17.8822C35.1604 16.7317 36.6262 15.9482 38.222 15.6307C39.8178 15.3133 41.4719 15.4762 42.9751 16.0989C44.4783 16.7215 45.7631 17.7759 46.667 19.1288C47.571 20.4816 48.0535 22.0722 48.0535 23.6992C48.051 25.8803 47.1835 27.9713 45.6413 29.5136C44.099 31.0558 42.008 31.9233 39.8269 31.9258Z" fill="url(#paint3_linear_387_9971)"/>
</g>
<defs>
<linearGradient id="paint0_linear_387_9971" x1="34.4487" y1="28.5072" x2="44.5221" y2="24.0518" gradientUnits="userSpaceOnUse">
<stop stop-color="#FABD2F"/>
<stop offset="1" stop-color="#DB924B"/>
</linearGradient>
<linearGradient id="paint1_linear_387_9971" x1="11.6912" y1="24.2885" x2="19.6857" y2="22.9705" gradientUnits="userSpaceOnUse">
<stop stop-color="#FABD2F"/>
<stop offset="1" stop-color="#DB924B"/>
</linearGradient>
<linearGradient id="paint2_linear_387_9971" x1="6.39281" y1="34.4505" x2="48.0395" y2="20.2257" gradientUnits="userSpaceOnUse">
<stop stop-color="#FABD2F"/>
<stop offset="1" stop-color="#DB924B"/>
</linearGradient>
<linearGradient id="paint3_linear_387_9971" x1="-3.8765" y1="42.0067" x2="61.4913" y2="25.518" gradientUnits="userSpaceOnUse">
<stop stop-color="#FABD2F"/>
<stop offset="1" stop-color="#DB924B"/>
</linearGradient>
<clipPath id="clip0_387_9971">
<rect width="54" height="54" fill="white" transform="translate(0.170654 0.0742188)"/>
</clipPath>
</defs>
</svg>
