<svg width="48" height="48" viewBox="0 0 48 48" fill="none" xmlns="http://www.w3.org/2000/svg"><g clip-path="url(#clip0_299_8851)"><path d="M24 48C30.3652 48 36.4697 45.4714 40.9706 40.9706C45.4714 36.4697 48 30.3652 48 24C48 17.6348 45.4714 11.5303 40.9706 7.02944C36.4697 2.52856 30.3652 0 24 0C17.6348 0 11.5303 2.52856 7.02944 7.02944C2.52856 11.5303 0 17.6348 0 24C0 30.3652 2.52856 36.4697 7.02944 40.9706C11.5303 45.4714 17.6348 48 24 48ZM26.79 19.764L23.79 33.879C23.58 34.899 23.877 35.478 24.702 35.478C25.284 35.478 26.163 35.268 26.76 34.74L26.496 35.988C25.635 37.026 23.736 37.782 22.101 37.782C19.992 37.782 19.095 36.516 19.677 33.825L21.891 23.421C22.083 22.542 21.909 22.224 21.03 22.011L19.677 21.768L19.923 20.625L26.79 19.764ZM24 16.5C23.2044 16.5 22.4413 16.1839 21.8787 15.6213C21.3161 15.0587 21 14.2956 21 13.5C21 12.7044 21.3161 11.9413 21.8787 11.3787C22.4413 10.8161 23.2044 10.5 24 10.5C24.7956 10.5 25.5587 10.8161 26.1213 11.3787C26.6839 11.9413 27 12.7044 27 13.5C27 14.2956 26.6839 15.0587 26.1213 15.6213C25.5587 16.1839 24.7956 16.5 24 16.5Z" fill="#F2A93F"/></g><defs><clipPath id="clip0_299_8851"><rect width="48" height="48" fill="white"/></clipPath></defs></svg>