<svg width="32" height="32" viewBox="0 0 32 32" fill="none" xmlns="http://www.w3.org/2000/svg">
<g clip-path="url(#clip0_303_3606)">
<path d="M26 32H6C4.4087 32 2.88258 31.3679 1.75736 30.2426C0.632141 29.1174 0 27.5913 0 26L0 6C0 4.4087 0.632141 2.88258 1.75736 1.75736C2.88258 0.632141 4.4087 0 6 0L26 0C27.5913 0 29.1174 0.632141 30.2426 1.75736C31.3679 2.88258 32 4.4087 32 6V26C32 27.5913 31.3679 29.1174 30.2426 30.2426C29.1174 31.3679 27.5913 32 26 32Z" fill="white"/>
<path d="M21.833 14.667H10.167C9.33999 14.667 8.66699 15.34 8.66699 16.167V22.5C8.66699 23.327 9.33999 24 10.167 24H21.834C22.661 24 23.334 23.327 23.334 22.5V16.167C23.3332 15.7692 23.1748 15.388 22.8934 15.1069C22.6121 14.8257 22.2307 14.6675 21.833 14.667ZM11.833 19.833H11.166C11.0334 19.833 10.9062 19.7803 10.8124 19.6865C10.7187 19.5928 10.666 19.4656 10.666 19.333C10.666 19.2004 10.7187 19.0732 10.8124 18.9794C10.9062 18.8857 11.0334 18.833 11.166 18.833H11.833C11.9656 18.833 12.0928 18.8857 12.1865 18.9794C12.2803 19.0732 12.333 19.2004 12.333 19.333C12.333 19.4656 12.2803 19.5928 12.1865 19.6865C12.0928 19.7803 11.9656 19.833 11.833 19.833ZM16 21.667C14.713 21.667 13.667 20.62 13.667 19.334C13.667 18.048 14.713 17 16 17C17.287 17 18.333 18.047 18.333 19.333C18.333 20.619 17.287 21.667 16 21.667ZM20.833 19.833H20.166C20.0334 19.833 19.9062 19.7803 19.8124 19.6865C19.7187 19.5928 19.666 19.4656 19.666 19.333C19.666 19.2004 19.7187 19.0732 19.8124 18.9794C19.9062 18.8857 20.0334 18.833 20.166 18.833H20.833C20.9656 18.833 21.0928 18.8857 21.1865 18.9794C21.2803 19.0732 21.333 19.2004 21.333 19.333C21.333 19.4656 21.2803 19.5928 21.1865 19.6865C21.0928 19.7803 20.9656 19.833 20.833 19.833Z" fill="#F2A93F"/>
<path d="M18.471 10.195L16.471 8.19499C16.3458 8.07023 16.1762 8.00018 15.9995 8.00018C15.8227 8.00018 15.6532 8.07023 15.528 8.19499L13.528 10.195C13.435 10.2883 13.3716 10.407 13.346 10.5362C13.3204 10.6654 13.3336 10.7993 13.384 10.9211C13.4343 11.0428 13.5196 11.1469 13.6291 11.2202C13.7385 11.2935 13.8672 11.3327 13.999 11.333H17.999C18.131 11.3334 18.2602 11.2946 18.3701 11.2214C18.48 11.1483 18.5657 11.0441 18.6163 10.9221C18.6669 10.8002 18.6801 10.6659 18.6542 10.5365C18.6283 10.407 18.5645 10.2881 18.471 10.195Z" fill="#FDD270"/>
<path d="M16 14C15.8231 14 15.6535 13.9297 15.5284 13.8046C15.4033 13.6796 15.333 13.5099 15.333 13.333V9.167C15.333 8.9901 15.4033 8.82045 15.5284 8.69536C15.6535 8.57027 15.8231 8.5 16 8.5C16.1769 8.5 16.3466 8.57027 16.4716 8.69536C16.5967 8.82045 16.667 8.9901 16.667 9.167V13.334C16.6667 13.5107 16.5964 13.6801 16.4713 13.805C16.3462 13.9299 16.1767 14 16 14Z" fill="#FDD270"/>
</g>
<defs>
<clipPath id="clip0_303_3606">
<rect width="32" height="32" fill="white"/>
</clipPath>
</defs>
</svg>
