<svg width="32" height="32" viewBox="0 0 32 32" fill="none" xmlns="http://www.w3.org/2000/svg">
<g clip-path="url(#clip0_303_3569)">
<path d="M26 32H6C4.4087 32 2.88258 31.3679 1.75736 30.2426C0.632141 29.1174 0 27.5913 0 26L0 6C0 4.4087 0.632141 2.88258 1.75736 1.75736C2.88258 0.632141 4.4087 0 6 0L26 0C27.5913 0 29.1174 0.632141 30.2426 1.75736C31.3679 2.88258 32 4.4087 32 6V26C32 27.5913 31.3679 29.1174 30.2426 30.2426C29.1174 31.3679 27.5913 32 26 32Z" fill="white"/>
<path d="M23.661 9.217L20.161 8.027C20.0567 7.99104 19.9433 7.99104 19.839 8.027L16.339 9.217C16.24 9.25066 16.1541 9.31449 16.0933 9.39951C16.0325 9.48453 15.9999 9.58647 16 9.691V12.37C16 15.64 19.649 17.228 19.805 17.295C19.8668 17.3213 19.9333 17.3348 20.0005 17.3348C20.0677 17.3348 20.1342 17.3213 20.196 17.295C20.351 17.228 24 15.639 24 12.369V9.691C24.0001 9.58647 23.9675 9.48453 23.9067 9.39951C23.8459 9.31449 23.76 9.25066 23.661 9.217ZM22.191 11.745L20.358 14.078C20.3024 14.1487 20.2331 14.2073 20.1542 14.2505C20.0753 14.2937 19.9885 14.3205 19.899 14.3292C19.8096 14.338 19.7192 14.3286 19.6335 14.3016C19.5477 14.2746 19.4683 14.2305 19.4 14.172L18.233 13.172C18.1666 13.1151 18.112 13.0456 18.0724 12.9676C18.0328 12.8896 18.0089 12.8045 18.0022 12.7173C17.9954 12.63 18.006 12.5423 18.0331 12.4591C18.0603 12.376 18.1036 12.299 18.1605 12.2325C18.2174 12.1661 18.2869 12.1115 18.3649 12.0719C18.4429 12.0323 18.528 12.0084 18.6152 12.0017C18.7025 11.9949 18.7902 12.0055 18.8734 12.0326C18.9565 12.0598 19.0336 12.1031 19.1 12.16L19.739 12.707L21.143 10.921C21.2523 10.782 21.4123 10.6922 21.5878 10.6712C21.7633 10.6501 21.94 10.6997 22.079 10.809C22.218 10.9183 22.3078 11.0783 22.3289 11.2538C22.3499 11.4293 22.3003 11.606 22.191 11.745Z" fill="#FDD270"/>
<path d="M24 17.5C24 18.14 23.473 18.667 22.833 18.667H21.993C21.9853 19.3662 21.798 20.0517 21.4489 20.6576C21.0999 21.2635 20.601 21.7695 20 22.127V22.834C20 23.473 19.473 24 18.833 24H18.166C17.8572 23.9982 17.5615 23.8746 17.3432 23.6561C17.1249 23.4376 17.0016 23.1418 17 22.833V22.666H14.333V22.833C14.333 23.473 13.806 24 13.166 24H12.5C11.86 24 11.333 23.473 11.333 22.833V21.906C10.4239 21.304 9.76879 20.3879 9.493 19.333H9.167C8.527 19.333 8 18.807 8 18.167V17.167C8 16.527 8.527 16 9.167 16H10.094C10.254 15.76 10.441 15.533 10.654 15.32C10.867 15.107 11.094 14.92 11.334 14.76V12.5C11.334 12.353 11.401 12.213 11.507 12.12C11.5623 12.0746 11.6263 12.0411 11.6952 12.0216C11.764 12.0022 11.8361 11.9972 11.907 12.007C13.687 12.274 14.36 13.167 14.58 14H14.913C15.646 16.387 17.866 17.927 19.286 18.52C19.513 18.62 19.759 18.667 19.999 18.667C20.239 18.667 20.486 18.62 20.712 18.52C21.165 18.333 21.692 18.047 22.232 17.667H22.832C22.925 17.667 22.999 17.594 22.999 17.5C22.999 17.406 22.926 17.333 22.832 17.333C22.7889 17.3333 22.746 17.3265 22.705 17.313C22.985 17.093 23.265 16.846 23.525 16.566C23.813 16.78 24 17.12 24 17.5Z" fill="#F2A93F"/>
</g>
<defs>
<clipPath id="clip0_303_3569">
<rect width="32" height="32" fill="white"/>
</clipPath>
</defs>
</svg>
