<svg width="52" height="52" viewBox="0 0 52 52" fill="none" xmlns="http://www.w3.org/2000/svg"><path d="M27.1788 47.9099C27.5282 47.666 31.6215 44.7573 35.6325 40.0588C39.6364 35.3686 43.6143 28.829 43.6143 21.3324V21.3318C43.609 16.662 41.7516 12.1849 38.4495 8.88283C35.1475 5.58075 30.6704 3.72332 26.0005 3.71802L25.9994 3.71802C21.3296 3.72332 16.8525 5.58075 13.5504 8.88283C10.2484 12.1849 8.39092 16.662 8.38562 21.3318V21.3324C8.38562 28.829 12.3635 35.3686 16.3675 40.0588C20.3758 44.7542 24.4662 47.6621 24.8204 47.9094M27.1788 47.9099L26.8927 47.4998L27.1795 47.9094C27.1793 47.9095 27.1791 47.9097 27.1788 47.9099ZM27.1788 47.9099C26.8333 48.1517 26.4217 48.2814 26 48.2814C25.5779 48.2814 25.1661 48.1515 24.8204 47.9094M24.8204 47.9094C24.8207 47.9095 24.8209 47.9097 24.8211 47.9099L25.1072 47.5L24.8204 47.9094Z" fill="#F2A93F" stroke="#F2A93F" stroke-width="3"/><g clip-path="url(#clip0_299_9447)"><path d="M34.5243 23.1714L30.3466 21.0826L27.563 13.2869C27.2521 12.4178 26.4237 11.8335 25.5 11.8335C24.5763 11.8335 23.7479 12.4178 23.437 13.2874L20.6534 21.0826L16.4757 23.1714C15.8736 23.4725 15.5 24.0772 15.5 24.7502C15.5 25.4224 15.8736 26.0274 16.4757 26.329L22.9455 29.5638C23.7348 29.9581 24.6179 30.1669 25.5 30.1669C26.3821 30.1669 27.2652 29.9581 28.0545 29.5638L34.5243 26.329C35.1265 26.0274 35.5 25.4224 35.5 24.7502C35.5 24.0772 35.1265 23.4725 34.5243 23.1714ZM23.1929 16.4494C23.826 16.7017 24.613 16.8335 25.5 16.8335C26.3871 16.8335 27.174 16.7017 27.8072 16.4494L28.5551 18.5417C27.9496 19.0345 26.8136 19.3335 25.5001 19.3335C24.1866 19.3335 23.0505 19.0345 22.4451 18.5417L23.1929 16.4494ZM25.5 26.0002C23.4964 26.0002 20.6009 25.2161 20.5024 23.9819L21.042 22.4723C22.0552 23.1307 23.6356 23.5002 25.5 23.5002C27.3644 23.5002 28.9448 23.1307 29.958 22.4723L30.4976 23.9819C30.3991 25.2161 27.5036 26.0002 25.5 26.0002Z" fill="white"/></g><defs><clipPath id="clip0_299_9447"><rect width="20" height="20" fill="white" transform="translate(15.5 11)"/></clipPath></defs></svg>