<svg width="32" height="32" viewBox="0 0 32 32" fill="none" xmlns="http://www.w3.org/2000/svg">
<path d="M16 0C7.17763 0 0 7.17763 0 16C0 24.8224 7.17763 32 16 32C24.8224 32 32 24.8224 32 16C32 7.17763 24.8225 0 16 0ZM13.519 22.6701C12.5846 23.5493 11.4144 23.9887 10.0083 23.9887C8.75564 23.9887 7.64564 23.4174 6.67889 22.2745C5.73379 21.198 5.26145 20.033 5.26145 18.7802C5.26145 15.109 7.79209 11.5609 12.8539 8.13521C13.0339 8.0133 13.486 7.90605 13.7504 8.19977L14.2383 8.8134C14.4743 9.21241 14.1885 9.58245 14.0035 9.73591C13.1239 10.4656 12.4843 11.03 12.0851 11.4292C11.3025 12.2523 10.7239 13.0762 10.3419 13.8977C10.2546 14.0855 10.4775 14.2047 10.5933 14.2425C13.4776 15.1878 14.9202 16.8543 14.9202 19.2417C14.9199 20.6484 14.4528 21.7913 13.519 22.6701ZM24.4962 22.6701C23.5618 23.5493 22.3916 23.9887 20.9855 23.9887C19.7328 23.9887 18.6228 23.4174 17.6561 22.2745C16.711 21.198 16.2386 20.033 16.2386 18.7802C16.2386 15.109 18.7693 11.5609 23.8311 8.13521C24.0111 8.0133 24.4632 7.90605 24.7276 8.19977L25.2155 8.8134C25.4515 9.21241 25.1657 9.58245 24.9807 9.73591C24.1011 10.4656 23.4614 11.03 23.0623 11.4292C22.2797 12.2523 21.7011 13.0762 21.3191 13.8977C21.2317 14.0855 21.4547 14.2047 21.5705 14.2425C24.4548 15.1878 25.8974 16.8543 25.8974 19.2417C25.8971 20.6484 25.43 21.7913 24.4962 22.6701Z" fill="#F2A93F"/>
</svg>
