<svg width="48" height="48" viewBox="0 0 48 48" fill="none" xmlns="http://www.w3.org/2000/svg"><path d="M39 48H9C6.61305 48 4.32387 47.0518 2.63604 45.364C0.948211 43.6761 0 41.3869 0 39L0 9C0 6.61305 0.948211 4.32387 2.63604 2.63604C4.32387 0.948211 6.61305 0 9 0L39 0C41.3869 0 43.6761 0.948211 45.364 2.63604C47.0518 4.32387 48 6.61305 48 9V39C48 41.3869 47.0518 43.6761 45.364 45.364C43.6761 47.0518 41.3869 48 39 48Z" fill="white"/><path d="M35.7075 34.293L28.8825 27.468C30.2533 25.7815 31.0013 23.6743 31.0005 21.501C31.0005 16.263 26.739 12.0015 21.501 12.0015C16.263 12.0015 12 16.2615 12 21.4995C12 26.7375 16.2615 30.999 21.4995 30.999C23.76 30.999 25.8345 30.2025 27.468 28.881L34.293 35.706C34.4843 35.873 34.7318 35.9612 34.9856 35.9526C35.2394 35.9441 35.4805 35.8396 35.6602 35.6601C35.8398 35.4806 35.9446 35.2397 35.9534 34.9859C35.9622 34.7321 35.8743 34.4845 35.7075 34.293ZM13.9995 21.4995C13.9995 17.364 17.364 13.9995 21.4995 13.9995C25.635 13.9995 28.9995 17.364 28.9995 21.4995C28.9995 25.635 25.635 28.9995 21.4995 28.9995C17.364 28.9995 13.9995 25.635 13.9995 21.4995Z" fill="#F2A93F"/><path d="M21.4995 21C22.6038 21 23.499 20.1048 23.499 19.0005C23.499 17.8962 22.6038 17.001 21.4995 17.001C20.3952 17.001 19.5 17.8962 19.5 19.0005C19.5 20.1048 20.3952 21 21.4995 21Z" fill="#FDD270"/><path d="M22.751 22.0005H20.2505C19.5215 22.0013 18.8226 22.2912 18.3072 22.8067C17.7917 23.3221 17.5018 24.021 17.501 24.75V25.2495C17.501 25.4484 17.58 25.6392 17.7206 25.7798C17.8613 25.9205 18.0521 25.9995 18.251 25.9995H24.7505C24.9494 25.9995 25.1402 25.9205 25.2808 25.7798C25.4215 25.6392 25.5005 25.4484 25.5005 25.2495V24.75C25.4997 24.021 25.2097 23.3221 24.6943 22.8067C24.1788 22.2912 23.4799 22.0013 22.751 22.0005Z" fill="#FDD270"/></svg>