<svg width="55" height="55" viewBox="0 0 55 55" fill="none" xmlns="http://www.w3.org/2000/svg"><path fill-rule="evenodd" clip-rule="evenodd" d="M39.0701 26.1931C39.1989 25.8435 39.2084 25.4611 39.0971 25.1055C38.9857 24.7499 38.7599 24.4412 38.4547 24.2275C38.1495 24.0137 37.7821 23.907 37.4099 23.924C37.0377 23.9409 36.6816 24.0805 36.3971 24.3211C36.3971 24.3211 26.0493 33.1163 24.9491 34.6868C24.1942 35.7871 23.9042 37.1408 24.1422 38.4537C24.3802 39.7666 25.1268 40.9325 26.2198 41.6978C27.3128 42.4632 28.6637 42.7661 29.9788 42.5406C31.2939 42.3152 32.4669 41.5797 33.2426 40.4941C34.3428 38.9258 39.0701 26.1931 39.0701 26.1931ZM41.1716 24.2311C41.4956 25.0906 41.5158 26.0603 41.1806 26.9693L41.1783 26.9761C41.1783 26.9761 40.0308 30.0316 38.7123 33.3818C38.8833 34.1783 38.9733 35.0063 38.9733 35.8546C38.9733 36.7883 39.7293 37.5421 40.6608 37.5421H49.6608L49.7486 37.5398C50.1804 37.5174 50.5871 37.33 50.8847 37.0164C51.1824 36.7028 51.3484 36.287 51.3483 35.8546C51.3549 30.0223 49.246 24.3856 45.4128 19.9898L41.1716 24.2311ZM8.90884 19.9898C5.07567 24.3856 2.96679 30.0223 2.97334 35.8546C2.97334 36.7883 3.72934 37.5421 4.66084 37.5421H13.6608C14.1084 37.5421 14.5376 37.3643 14.8541 37.0478C15.1706 36.7314 15.3483 36.3021 15.3483 35.8546C15.3483 33.2041 16.2236 30.7561 17.7018 28.7828L8.90884 19.9898ZM25.4733 11.7256C20.2328 12.0865 15.2541 14.1512 11.2961 17.6048L20.0891 26.3956C21.668 25.2114 23.5197 24.4438 25.4733 24.1636V11.7256ZM32.0546 25.1041C33.7173 23.6551 34.9391 22.6066 34.9391 22.6066C35.4577 22.1676 36.081 21.8702 36.7484 21.7433C37.4159 21.6163 38.1048 21.6641 38.7483 21.8821L43.0256 17.6048C39.0676 14.1512 34.0889 12.0865 28.8483 11.7256V24.1636C29.9756 24.3256 31.0533 24.6451 32.0546 25.1041Z" fill="url(#paint0_linear_387_9963)"/><defs><linearGradient id="paint0_linear_387_9963" x1="-0.871247" y1="40.3416" x2="57.9807" y2="25.1469" gradientUnits="userSpaceOnUse"><stop stop-color="#FABD2F"/><stop offset="1" stop-color="#DB924B"/></linearGradient></defs></svg>