<svg xmlns="http://www.w3.org/2000/svg"><symbol id="whatsapp" viewBox="0 0 20 21" fill="none"><path d="M10.0008 1.33423C15.0631 1.33423 19.1667 5.43778 19.1667 10.5001C19.1667 15.5624 15.0631 19.6659 10.0008 19.6659C8.38101 19.6685 6.78971 19.2399 5.3904 18.4239L0.83864 19.6659L2.07786 15.1123C1.26127 13.7126 0.832268 12.1206 0.834974 10.5001C0.834974 5.43778 4.93852 1.33423 10.0008 1.33423ZM6.8771 6.19212L6.69378 6.19946C6.5751 6.20668 6.45912 6.23786 6.35281 6.29112C6.25338 6.34742 6.16262 6.41781 6.08333 6.5001C5.97334 6.60367 5.91102 6.6935 5.84411 6.78057C5.50508 7.22136 5.32255 7.76252 5.32532 8.3186C5.32715 8.76773 5.44448 9.20494 5.62779 9.61373C6.00268 10.4405 6.61954 11.3158 7.43346 12.127C7.62961 12.3222 7.8221 12.5184 8.02924 12.7008C9.04059 13.5912 10.2458 14.2334 11.5489 14.5761L12.0695 14.6559C12.2391 14.665 12.4087 14.6522 12.5792 14.6439C12.8461 14.6302 13.1068 14.5579 13.3427 14.4322C13.4627 14.3704 13.5799 14.3031 13.6937 14.2306C13.6937 14.2306 13.7331 14.2049 13.8083 14.1481C13.932 14.0564 14.0081 13.9913 14.1108 13.8841C14.1869 13.8053 14.2528 13.7127 14.3033 13.6073C14.3748 13.4579 14.4462 13.1728 14.4756 12.9354C14.4976 12.754 14.4912 12.655 14.4884 12.5935C14.4847 12.4955 14.4032 12.3937 14.3143 12.3507L13.7808 12.1114C13.7808 12.1114 12.9834 11.764 12.4958 11.5422C12.4447 11.5199 12.3901 11.5072 12.3344 11.5046C12.2717 11.4982 12.2084 11.5053 12.1486 11.5253C12.0888 11.5454 12.0341 11.5781 11.988 11.6211C11.9834 11.6192 11.922 11.6715 11.2593 12.4744C11.2212 12.5255 11.1689 12.5641 11.1088 12.5854C11.0487 12.6066 10.9837 12.6094 10.922 12.5935C10.8623 12.5775 10.8038 12.5573 10.7469 12.5331C10.6333 12.4854 10.5938 12.4671 10.5159 12.4341C9.98988 12.2045 9.50282 11.8943 9.07232 11.5147C8.95683 11.4139 8.84959 11.3039 8.7396 11.1976C8.379 10.8523 8.06474 10.4616 7.80468 10.0354L7.7506 9.94829C7.71176 9.88978 7.68035 9.82666 7.65711 9.76039C7.62228 9.62565 7.71302 9.51749 7.71302 9.51749C7.71302 9.51749 7.93575 9.27368 8.03933 9.14169C8.14015 9.01337 8.22539 8.88872 8.28039 8.79981C8.38854 8.62566 8.42246 8.44692 8.36563 8.30852C8.10899 7.68157 7.84318 7.05738 7.57003 6.43777C7.51596 6.31495 7.35555 6.22695 7.20982 6.20954C7.16032 6.20404 7.11083 6.19854 7.06133 6.19487C6.93824 6.18876 6.81489 6.18998 6.69195 6.19854L6.87618 6.19121L6.8771 6.19212Z" fill="currentColor"/></symbol><symbol id="chevron-left" viewBox="0 0 33 32" fill="none"><path d="M19.1667 24L11.1667 16L19.1667 8" stroke="currentColor" stroke-width="2" stroke-linecap="round" stroke-linejoin="round"/></symbol><symbol id="chevron-right" viewBox="0 0 33 32" fill="none"><path d="M13.8334 24L21.8334 16L13.8334 8" stroke="currentColor" stroke-width="2" stroke-linecap="round" stroke-linejoin="round"/></symbol><symbol id="star" viewBox="0 0 18 19" fill="none"><path d="M16.4883 8.54233L13.3172 11.3098L14.2671 15.4301C14.3174 15.6455 14.303 15.871 14.2259 16.0783C14.1487 16.2856 14.0121 16.4655 13.8333 16.5956C13.6544 16.7257 13.4411 16.8002 13.2202 16.8098C12.9992 16.8193 12.7803 16.7635 12.5909 16.6494L8.99718 14.4697L5.41124 16.6494C5.2218 16.7635 5.0029 16.8193 4.78193 16.8098C4.56095 16.8002 4.34769 16.7257 4.16882 16.5956C3.98994 16.4655 3.85339 16.2856 3.77623 16.0783C3.69907 15.871 3.68472 15.6455 3.73499 15.4301L4.68351 11.314L1.51171 8.54233C1.34395 8.39764 1.22264 8.20664 1.163 7.99329C1.10336 7.77993 1.10803 7.55372 1.17644 7.34301C1.24485 7.1323 1.37395 6.94648 1.54754 6.80885C1.72113 6.67122 1.9315 6.58791 2.15226 6.56936L6.33304 6.20725L7.96499 2.31475C8.05021 2.1105 8.19396 1.93604 8.37814 1.81332C8.56231 1.6906 8.77868 1.62512 8.99999 1.62512C9.2213 1.62512 9.43767 1.6906 9.62185 1.81332C9.80602 1.93604 9.94977 2.1105 10.035 2.31475L11.6719 6.20725L15.8512 6.56936C16.072 6.58791 16.2824 6.67122 16.456 6.80885C16.6296 6.94648 16.7586 7.1323 16.8271 7.34301C16.8955 7.55372 16.9001 7.77993 16.8405 7.99329C16.7809 8.20664 16.6595 8.39764 16.4918 8.54233H16.4883Z" fill="currentColor"/></symbol><symbol id="tower" viewBox="0 0 29 29" fill="none"><path d="M10.3667 17.3V14.15C10.3667 13.8922 10.5755 13.6834 10.8334 13.6834H17.8334C18.0912 13.6834 18.3 13.8922 18.3 14.15V17.3C18.3 17.5579 18.0912 17.7667 17.8334 17.7667H10.8334C10.5755 17.7667 10.3667 17.5579 10.3667 17.3ZM21.3917 26.4V28.0334C21.3917 28.2912 21.1829 28.5 20.925 28.5H7.74169C7.48386 28.5 7.27502 28.2912 7.27502 28.0334V26.4C7.27502 25.3705 8.11211 24.5334 9.14169 24.5334H19.525C20.5546 24.5334 21.3917 25.3705 21.3917 26.4ZM11.1093 9.3667V6.15837C11.1093 5.90053 11.3181 5.6917 11.5759 5.6917H17.0908C17.3486 5.6917 17.5574 5.90053 17.5574 6.15837V9.3667C17.5574 9.62453 17.3486 9.83337 17.0908 9.83337H11.5759C11.3181 9.83337 11.1093 9.62453 11.1093 9.3667ZM15.8658 12.75H12.8009C12.5317 12.75 12.3183 12.5228 12.3352 12.254L12.4013 11.204C12.4088 11.0856 12.4611 10.9744 12.5476 10.8932C12.6341 10.8119 12.7483 10.7667 12.867 10.7667H15.7997C15.9184 10.7667 16.0327 10.8119 16.1192 10.8932C16.2057 10.9744 16.258 11.0856 16.2655 11.204L16.3316 12.254C16.3485 12.5228 16.1351 12.75 15.8658 12.75ZM16.5489 23.6H12.1179C11.8486 23.6 11.6352 23.3728 11.6521 23.104L11.9019 19.1374C11.9094 19.0189 11.9617 18.9078 12.0482 18.8265C12.1347 18.7453 12.249 18.7 12.3676 18.7H16.2991C16.4178 18.7 16.532 18.7453 16.6185 18.8265C16.705 18.9078 16.7573 19.0189 16.7648 19.1374L17.0146 23.104C17.0316 23.3728 16.8181 23.6 16.5489 23.6ZM14.8 0.982567V4.2917C14.8 4.41547 14.7509 4.53417 14.6633 4.62168C14.5758 4.7092 14.4571 4.75837 14.3334 4.75837C14.2096 4.75837 14.0909 4.7092 14.0034 4.62168C13.9159 4.53417 13.8667 4.41547 13.8667 4.2917V0.9667C13.8667 0.902812 13.8798 0.839602 13.9052 0.780987C13.9306 0.722372 13.9678 0.6696 14.0144 0.625943C14.0611 0.582285 14.1162 0.54867 14.1764 0.527183C14.2365 0.505695 14.3005 0.496792 14.3642 0.501025C14.6123 0.51695 14.8 0.73395 14.8 0.982567Z" fill="currentColor"/></symbol><symbol id="youtube-circle" viewBox="0 0 32 32" fill="none"><rect width="32" height="32" rx="16" fill="white"/><path d="M18.6 16L14.4 13.6V18.4L18.6 16Z" fill="currentColor"/><path fill-rule="evenodd" clip-rule="evenodd" d="M0 16C0 7.16344 7.16344 0 16 0C24.8366 0 32 7.16344 32 16C32 24.8366 24.8366 32 16 32C7.16344 32 0 24.8366 0 16ZM22.2 10.7C22.9 10.9 23.4 11.4 23.6 12.1C24 13.4 24 16 24 16C24 16 24 18.6 23.7 19.9C23.5 20.6 23 21.1 22.3 21.3C21 21.6 16 21.6 16 21.6C16 21.6 10.9 21.6 9.7 21.3C9 21.1 8.5 20.6 8.3 19.9C8 18.6 8 16 8 16C8 16 8 13.4 8.2 12.1C8.4 11.4 8.90001 10.9 9.60001 10.7C10.9 10.4 15.9 10.4 15.9 10.4C15.9 10.4 21 10.4 22.2 10.7Z" fill="currentColor"/></symbol><symbol id="vk-circle" viewBox="0 0 32 32" fill="none"><rect width="32" height="32" rx="16" fill="white"/><path d="M10.6987 12.8693C10.784 17.0293 12.864 19.5253 16.512 19.5253H16.7253V17.1467C18.064 17.28 19.0773 18.2613 19.4827 19.5253H21.376C21.1818 18.8071 20.8376 18.1381 20.366 17.5626C19.8943 16.9872 19.3061 16.5182 18.64 16.1866C19.2369 15.8232 19.7524 15.3405 20.1543 14.7688C20.5563 14.1971 20.836 13.5487 20.976 12.864H19.2587C18.8853 14.1866 17.776 15.3867 16.7253 15.4986V12.8693H15.0027V17.4773C13.936 17.2106 12.592 15.92 12.5333 12.8693H10.6987Z" fill="currentColor"/><path fill-rule="evenodd" clip-rule="evenodd" d="M16 0C24.8366 0 32 7.16344 32 16C32 24.8366 24.8366 32 16 32C7.16344 32 0 24.8366 0 16C0 7.16344 7.16344 0 16 0ZM8 15.68C8 12.0587 8 10.2507 9.12 9.12C10.256 8 12.064 8 15.68 8H16.32C19.9413 8 21.7493 8 22.88 9.12C24 10.256 24 12.064 24 15.68V16.32C24 19.9413 24 21.7493 22.88 22.88C21.744 24 19.936 24 16.32 24H15.68C12.0587 24 10.2507 24 9.12 22.88C8 21.744 8 19.936 8 16.32V15.68Z" fill="currentColor"/></symbol><symbol id="ok-circle" viewBox="0 0 32 32" fill="none"><rect width="32" height="32" rx="16" fill="white"/><path d="M16.0309 9.46832C17.1335 9.46832 18.0329 10.3677 18.0329 11.4703C18.0329 12.5728 17.1335 13.4721 16.0309 13.4721C14.9285 13.4721 14.0291 12.5728 14.0291 11.4703C14 10.3677 14.8995 9.46832 16.0309 9.46832Z" fill="currentColor"/><path fill-rule="evenodd" clip-rule="evenodd" d="M16 0C7.16344 0 0 7.16344 0 16C0 24.8366 7.16344 32 16 32C24.8366 32 32 24.8366 32 16C32 7.16344 24.8366 0 16 0ZM16.0309 16.3155C18.7003 16.3155 20.8763 14.1395 20.8763 11.4703C20.8763 8.80101 18.7003 6.625 16.0309 6.625C13.3327 6.625 11.1567 8.80101 11.1567 11.4703C11.1567 14.1395 13.3327 16.3155 16.0309 16.3155ZM17.9749 20.2904C18.9613 20.0583 19.9188 19.6811 20.7892 19.1299C21.4565 18.7236 21.6596 17.8243 21.2244 17.1569C20.8183 16.4896 19.9188 16.2865 19.2515 16.7217C17.2785 17.9693 14.6964 17.9693 12.7235 16.7217C12.0562 16.3156 11.1858 16.4896 10.7506 17.1569C10.3734 17.8243 10.5765 18.6947 11.2438 19.1008C12.1142 19.6521 13.0716 20.0292 14.0581 20.2613L11.3599 22.9596C10.8086 23.5109 10.8086 24.4103 11.3599 24.9616C11.65 25.2517 11.9982 25.3677 12.3753 25.3677C12.7525 25.3677 13.1007 25.2227 13.3908 24.9616L16.06 22.2923L18.7293 24.9616C19.2805 25.5128 20.18 25.5128 20.7312 24.9616C21.2824 24.4103 21.2824 23.5109 20.7312 22.9596L17.9749 20.2904Z" fill="currentColor"/></symbol><symbol id="instagram-circle" viewBox="0 0 32 32" fill="none"><rect width="32" height="32" rx="16" fill="white"/><path d="M16 18.8C14.5 18.8 13.2 17.6 13.2 16C13.2 14.5 14.4 13.2 16 13.2C17.5 13.2 18.8 14.4 18.8 16C18.8 17.5 17.5 18.8 16 18.8Z" fill="currentColor"/><path fill-rule="evenodd" clip-rule="evenodd" d="M19.4 9.2H12.6C11.8 9.3 11.4 9.4 11.1 9.5C10.7 9.6 10.4 9.8 10.1 10.1C9.86261 10.3374 9.75045 10.5748 9.61489 10.8617C9.57916 10.9373 9.5417 11.0166 9.5 11.1C9.48453 11.1464 9.46667 11.1952 9.44752 11.2475C9.34291 11.5333 9.2 11.9238 9.2 12.6V19.4C9.3 20.2 9.4 20.6 9.5 20.9C9.6 21.3 9.8 21.6 10.1 21.9C10.3374 22.1374 10.5748 22.2495 10.8617 22.3851C10.9374 22.4209 11.0165 22.4583 11.1 22.5C11.1464 22.5155 11.1952 22.5333 11.2475 22.5525C11.5333 22.6571 11.9238 22.8 12.6 22.8H19.4C20.2 22.7 20.6 22.6 20.9 22.5C21.3 22.4 21.6 22.2 21.9 21.9C22.1374 21.6626 22.2495 21.4252 22.3851 21.1383C22.4209 21.0626 22.4583 20.9835 22.5 20.9C22.5155 20.8536 22.5333 20.8048 22.5525 20.7525C22.6571 20.4667 22.8 20.0762 22.8 19.4V12.6C22.7 11.8 22.6 11.4 22.5 11.1C22.4 10.7 22.2 10.4 21.9 10.1C21.6626 9.86261 21.4252 9.75045 21.1383 9.61488C21.0627 9.57918 20.9833 9.54167 20.9 9.5C20.8536 9.48453 20.8048 9.46666 20.7525 9.44752C20.4667 9.3429 20.0762 9.2 19.4 9.2ZM16 11.7C13.6 11.7 11.7 13.6 11.7 16C11.7 18.4 13.6 20.3 16 20.3C18.4 20.3 20.3 18.4 20.3 16C20.3 13.6 18.4 11.7 16 11.7ZM21.4 11.6C21.4 12.1523 20.9523 12.6 20.4 12.6C19.8477 12.6 19.4 12.1523 19.4 11.6C19.4 11.0477 19.8477 10.6 20.4 10.6C20.9523 10.6 21.4 11.0477 21.4 11.6Z" fill="currentColor"/><path fill-rule="evenodd" clip-rule="evenodd" d="M0 16C0 7.16344 7.16344 0 16 0C24.8366 0 32 7.16344 32 16C32 24.8366 24.8366 32 16 32C7.16344 32 0 24.8366 0 16ZM12.6 7.7H19.4C20.3 7.8 20.9 7.9 21.4 8.1C22 8.4 22.4 8.6 22.9 9.1C23.4 9.6 23.7 10.1 23.9 10.6C24.1 11.1 24.3 11.7 24.3 12.6V19.4C24.2 20.3 24.1 20.9 23.9 21.4C23.6 22 23.4 22.4 22.9 22.9C22.4 23.4 21.9 23.7 21.4 23.9C20.9 24.1 20.3 24.3 19.4 24.3H12.6C11.7 24.2 11.1 24.1 10.6 23.9C10 23.6 9.6 23.4 9.1 22.9C8.6 22.4 8.3 21.9 8.1 21.4C7.9 20.9 7.7 20.3 7.7 19.4V12.6C7.8 11.7 7.9 11.1 8.1 10.6C8.4 10 8.6 9.6 9.1 9.1C9.6 8.6 10.1 8.3 10.6 8.1C11.1 7.9 11.7 7.7 12.6 7.7Z" fill="currentColor"/></symbol><symbol id="facebook-circle" viewBox="0 0 32 32" fill="none"><rect width="32" height="32" rx="16" fill="white"/><path fill-rule="evenodd" clip-rule="evenodd" d="M0 16C0 7.16344 7.16344 0 16 0C24.8366 0 32 7.16344 32 16C32 24.8366 24.8366 32 16 32C7.16344 32 0 24.8366 0 16ZM16 8C20.4 8 24 11.6 24 16C24 20 21.1 23.4 17.1 24V18.3H19L19.4 16H17.2V14.5C17.2 13.9 17.5 13.3 18.5 13.3H19.5V11.3C19.5 11.3 18.6 11.1 17.7 11.1C15.9 11.1 14.7 12.2 14.7 14.2V16H12.7V18.3H14.7V23.9C10.9 23.3 8 20 8 16C8 11.6 11.6 8 16 8Z" fill="currentColor"/></symbol><symbol id="arrow-up-right" viewBox="0 0 13 13" fill="none"><path d="M2.58337 10.25L10.0834 2.75" stroke="currentColor" stroke-width="2" stroke-linecap="round" stroke-linejoin="round"/><path d="M2.58337 2.75H10.0834V10.25" stroke="currentColor" stroke-width="2" stroke-linecap="round" stroke-linejoin="round"/></symbol><symbol id="play" viewBox="0 0 32 32" fill="none"><path d="M8.51746 5.60554C8.51746 4.91207 9.28462 4.49324 9.86795 4.86824L26.0372 15.2628C26.5739 15.6078 26.5739 16.3923 26.0372 16.7374L9.86795 27.1319C9.28462 27.5069 8.51746 27.088 8.51746 26.3946V5.60554Z" fill="currentColor"/></symbol><symbol id="chevron-right-sm" viewBox="0 0 13 12" fill="none"><path d="M5 9L8 6L5 3" stroke="currentColor" stroke-width="2" stroke-linecap="round" stroke-linejoin="round"/></symbol><symbol id="location" viewBox="0 0 565 781.66" fill="none"><path d="m303.47,770.96c-10.15,13.85-30.66,14.34-41.46.98h0C210.04,708.43.27,421.73.27,282.64-6.37,133.33,109.29,6.91,258.6.27c7.58-.34,15.18-.36,22.79-.04.65.03,1.3.03,1.95,0,148.88-6.09,274.76,109.39,281.39,258.37.36,8.01.36,16.03,0,24.04,0,118.21-142.57,326.43-249.89,472.8l-11.37,15.52Zm-21.11-718.01c-120.09-6.77-222.93,85.09-229.69,205.18-.46,8.17-.46,16.35,0,24.51,0,89.79,124.07,286.34,207.54,400.5,10.49,14.35,31.94,14.25,42.33-.17,74.87-103.98,209.57-301.25,209.57-400.33,6.77-120.09-85.09-222.93-205.18-229.69-8.17-.46-16.35-.46-24.51,0h-.05Z" fill="currentColor"/></symbol><symbol id="image-search" viewBox="0 0 24 24" fill="none"><path d="M5 21C4.45 21 3.979 20.804 3.587 20.412C3.195 20.02 2.99934 19.5493 3 19V5C3 4.45 3.196 3.979 3.588 3.587C3.98 3.195 4.45067 2.99933 5 3H9C9.28334 3 9.521 3.096 9.713 3.288C9.905 3.48 10.0007 3.71733 10 4C10 4.28333 9.904 4.521 9.712 4.713C9.52 4.905 9.28267 5.00067 9 5H5V19H19V15.65C19 15.3667 19.096 15.129 19.288 14.937C19.48 14.745 19.7173 14.6493 20 14.65C20.2833 14.65 20.521 14.746 20.713 14.938C20.905 15.13 21.0007 15.3673 21 15.65V19C21 19.55 20.804 20.021 20.412 20.413C20.02 20.805 19.5493 21.0007 19 21H5ZM11.25 16L13.85 12.525C13.95 12.3917 14.0833 12.325 14.25 12.325C14.4167 12.325 14.55 12.3917 14.65 12.525L17.4 16.2C17.5333 16.3667 17.55 16.5417 17.45 16.725C17.35 16.9083 17.2 17 17 17H7C6.8 17 6.65 16.9083 6.55 16.725C6.45 16.5417 6.46667 16.3667 6.6 16.2L8.6 13.525C8.7 13.3917 8.83334 13.325 9 13.325C9.16667 13.325 9.3 13.3917 9.4 13.525L11.25 16ZM16.05 11C14.8167 11 13.7667 10.5623 12.9 9.687C12.0333 8.81167 11.6 7.74933 11.6 6.5C11.6 5.25 12.0377 4.18733 12.913 3.312C13.7883 2.43667 14.8507 1.99933 16.1 2C17.35 2 18.4127 2.43767 19.288 3.313C20.1633 4.18833 20.6007 5.25067 20.6 6.5C20.6 6.95 20.5333 7.38333 20.4 7.8C20.2667 8.21667 20.1 8.6 19.9 8.95L22.25 11.3C22.4333 11.4833 22.525 11.7167 22.525 12C22.525 12.2833 22.4333 12.5167 22.25 12.7C22.0667 12.8833 21.8333 12.975 21.55 12.975C21.2667 12.975 21.0333 12.8833 20.85 12.7L18.45 10.3C18.1 10.5333 17.725 10.7083 17.325 10.825C16.925 10.9417 16.5 11 16.05 11ZM16.1 9C16.8 9 17.3917 8.75833 17.875 8.275C18.3583 7.79167 18.6 7.2 18.6 6.5C18.6 5.8 18.3583 5.20833 17.875 4.725C17.3917 4.24167 16.8 4 16.1 4C15.4 4 14.8083 4.24167 14.325 4.725C13.8417 5.20833 13.6 5.8 13.6 6.5C13.6 7.2 13.8417 7.79167 14.325 8.275C14.8083 8.75833 15.4 9 16.1 9Z" fill="currentColor"/></symbol><symbol id="" viewBox="" fill="none"/><symbol id="" viewBox="" fill="none"/><symbol id="" viewBox="" fill="none"/><symbol id="" viewBox="" fill="none"/><symbol id="" viewBox="" fill="none"/><symbol id="" viewBox="" fill="none"/><symbol id="" viewBox="" fill="none"/><symbol id="" viewBox="" fill="none"/></svg>