<svg xmlns="http://www.w3.org/2000/svg">
	<symbol id="whatsapp" viewBox="0 0 20 21" fill="none">
		<path d="M10.0008 1.33423C15.0631 1.33423 19.1667 5.43778 19.1667 10.5001C19.1667 15.5624 15.0631 19.6659 10.0008 19.6659C8.38101 19.6685 6.78971 19.2399 5.3904 18.4239L0.83864 19.6659L2.07786 15.1123C1.26127 13.7126 0.832268 12.1206 0.834974 10.5001C0.834974 5.43778 4.93852 1.33423 10.0008 1.33423ZM6.8771 6.19212L6.69378 6.19946C6.5751 6.20668 6.45912 6.23786 6.35281 6.29112C6.25338 6.34742 6.16262 6.41781 6.08333 6.5001C5.97334 6.60367 5.91102 6.6935 5.84411 6.78057C5.50508 7.22136 5.32255 7.76252 5.32532 8.3186C5.32715 8.76773 5.44448 9.20494 5.62779 9.61373C6.00268 10.4405 6.61954 11.3158 7.43346 12.127C7.62961 12.3222 7.8221 12.5184 8.02924 12.7008C9.04059 13.5912 10.2458 14.2334 11.5489 14.5761L12.0695 14.6559C12.2391 14.665 12.4087 14.6522 12.5792 14.6439C12.8461 14.6302 13.1068 14.5579 13.3427 14.4322C13.4627 14.3704 13.5799 14.3031 13.6937 14.2306C13.6937 14.2306 13.7331 14.2049 13.8083 14.1481C13.932 14.0564 14.0081 13.9913 14.1108 13.8841C14.1869 13.8053 14.2528 13.7127 14.3033 13.6073C14.3748 13.4579 14.4462 13.1728 14.4756 12.9354C14.4976 12.754 14.4912 12.655 14.4884 12.5935C14.4847 12.4955 14.4032 12.3937 14.3143 12.3507L13.7808 12.1114C13.7808 12.1114 12.9834 11.764 12.4958 11.5422C12.4447 11.5199 12.3901 11.5072 12.3344 11.5046C12.2717 11.4982 12.2084 11.5053 12.1486 11.5253C12.0888 11.5454 12.0341 11.5781 11.988 11.6211C11.9834 11.6192 11.922 11.6715 11.2593 12.4744C11.2212 12.5255 11.1689 12.5641 11.1088 12.5854C11.0487 12.6066 10.9837 12.6094 10.922 12.5935C10.8623 12.5775 10.8038 12.5573 10.7469 12.5331C10.6333 12.4854 10.5938 12.4671 10.5159 12.4341C9.98988 12.2045 9.50282 11.8943 9.07232 11.5147C8.95683 11.4139 8.84959 11.3039 8.7396 11.1976C8.379 10.8523 8.06474 10.4616 7.80468 10.0354L7.7506 9.94829C7.71176 9.88978 7.68035 9.82666 7.65711 9.76039C7.62228 9.62565 7.71302 9.51749 7.71302 9.51749C7.71302 9.51749 7.93575 9.27368 8.03933 9.14169C8.14015 9.01337 8.22539 8.88872 8.28039 8.79981C8.38854 8.62566 8.42246 8.44692 8.36563 8.30852C8.10899 7.68157 7.84318 7.05738 7.57003 6.43777C7.51596 6.31495 7.35555 6.22695 7.20982 6.20954C7.16032 6.20404 7.11083 6.19854 7.06133 6.19487C6.93824 6.18876 6.81489 6.18998 6.69195 6.19854L6.87618 6.19121L6.8771 6.19212Z" fill="currentColor"/>
	</symbol>
	<symbol id="chevron-left" viewBox="0 0 33 32" fill="none">
		<path d="M19.1667 24L11.1667 16L19.1667 8" stroke="currentColor" stroke-width="2" stroke-linecap="round" stroke-linejoin="round"/>
	</symbol>
	<symbol id="chevron-right" viewBox="0 0 33 32" fill="none">
		<path d="M13.8334 24L21.8334 16L13.8334 8" stroke="currentColor" stroke-width="2" stroke-linecap="round" stroke-linejoin="round"/>
	</symbol>
	<symbol id="star" viewBox="0 0 18 19" fill="none">
		<path d="M16.4883 8.54233L13.3172 11.3098L14.2671 15.4301C14.3174 15.6455 14.303 15.871 14.2259 16.0783C14.1487 16.2856 14.0121 16.4655 13.8333 16.5956C13.6544 16.7257 13.4411 16.8002 13.2202 16.8098C12.9992 16.8193 12.7803 16.7635 12.5909 16.6494L8.99718 14.4697L5.41124 16.6494C5.2218 16.7635 5.0029 16.8193 4.78193 16.8098C4.56095 16.8002 4.34769 16.7257 4.16882 16.5956C3.98994 16.4655 3.85339 16.2856 3.77623 16.0783C3.69907 15.871 3.68472 15.6455 3.73499 15.4301L4.68351 11.314L1.51171 8.54233C1.34395 8.39764 1.22264 8.20664 1.163 7.99329C1.10336 7.77993 1.10803 7.55372 1.17644 7.34301C1.24485 7.1323 1.37395 6.94648 1.54754 6.80885C1.72113 6.67122 1.9315 6.58791 2.15226 6.56936L6.33304 6.20725L7.96499 2.31475C8.05021 2.1105 8.19396 1.93604 8.37814 1.81332C8.56231 1.6906 8.77868 1.62512 8.99999 1.62512C9.2213 1.62512 9.43767 1.6906 9.62185 1.81332C9.80602 1.93604 9.94977 2.1105 10.035 2.31475L11.6719 6.20725L15.8512 6.56936C16.072 6.58791 16.2824 6.67122 16.456 6.80885C16.6296 6.94648 16.7586 7.1323 16.8271 7.34301C16.8955 7.55372 16.9001 7.77993 16.8405 7.99329C16.7809 8.20664 16.6595 8.39764 16.4918 8.54233H16.4883Z" fill="currentColor"/>
	</symbol>
	<symbol id="tower" viewBox="0 0 29 29" fill="none">
		<path d="M10.3667 17.3V14.15C10.3667 13.8922 10.5755 13.6834 10.8334 13.6834H17.8334C18.0912 13.6834 18.3 13.8922 18.3 14.15V17.3C18.3 17.5579 18.0912 17.7667 17.8334 17.7667H10.8334C10.5755 17.7667 10.3667 17.5579 10.3667 17.3ZM21.3917 26.4V28.0334C21.3917 28.2912 21.1829 28.5 20.925 28.5H7.74169C7.48386 28.5 7.27502 28.2912 7.27502 28.0334V26.4C7.27502 25.3705 8.11211 24.5334 9.14169 24.5334H19.525C20.5546 24.5334 21.3917 25.3705 21.3917 26.4ZM11.1093 9.3667V6.15837C11.1093 5.90053 11.3181 5.6917 11.5759 5.6917H17.0908C17.3486 5.6917 17.5574 5.90053 17.5574 6.15837V9.3667C17.5574 9.62453 17.3486 9.83337 17.0908 9.83337H11.5759C11.3181 9.83337 11.1093 9.62453 11.1093 9.3667ZM15.8658 12.75H12.8009C12.5317 12.75 12.3183 12.5228 12.3352 12.254L12.4013 11.204C12.4088 11.0856 12.4611 10.9744 12.5476 10.8932C12.6341 10.8119 12.7483 10.7667 12.867 10.7667H15.7997C15.9184 10.7667 16.0327 10.8119 16.1192 10.8932C16.2057 10.9744 16.258 11.0856 16.2655 11.204L16.3316 12.254C16.3485 12.5228 16.1351 12.75 15.8658 12.75ZM16.5489 23.6H12.1179C11.8486 23.6 11.6352 23.3728 11.6521 23.104L11.9019 19.1374C11.9094 19.0189 11.9617 18.9078 12.0482 18.8265C12.1347 18.7453 12.249 18.7 12.3676 18.7H16.2991C16.4178 18.7 16.532 18.7453 16.6185 18.8265C16.705 18.9078 16.7573 19.0189 16.7648 19.1374L17.0146 23.104C17.0316 23.3728 16.8181 23.6 16.5489 23.6ZM14.8 0.982567V4.2917C14.8 4.41547 14.7509 4.53417 14.6633 4.62168C14.5758 4.7092 14.4571 4.75837 14.3334 4.75837C14.2096 4.75837 14.0909 4.7092 14.0034 4.62168C13.9159 4.53417 13.8667 4.41547 13.8667 4.2917V0.9667C13.8667 0.902812 13.8798 0.839602 13.9052 0.780987C13.9306 0.722372 13.9678 0.6696 14.0144 0.625943C14.0611 0.582285 14.1162 0.54867 14.1764 0.527183C14.2365 0.505695 14.3005 0.496792 14.3642 0.501025C14.6123 0.51695 14.8 0.73395 14.8 0.982567Z" fill="currentColor"/>
	</symbol>
	<symbol id="youtube-circle" viewBox="0 0 32 32" fill="none">
		<rect width="32" height="32" rx="16" fill="white"/>
		<path d="M18.6 16L14.4 13.6V18.4L18.6 16Z" fill="currentColor"/>
		<path fill-rule="evenodd" clip-rule="evenodd" d="M0 16C0 7.16344 7.16344 0 16 0C24.8366 0 32 7.16344 32 16C32 24.8366 24.8366 32 16 32C7.16344 32 0 24.8366 0 16ZM22.2 10.7C22.9 10.9 23.4 11.4 23.6 12.1C24 13.4 24 16 24 16C24 16 24 18.6 23.7 19.9C23.5 20.6 23 21.1 22.3 21.3C21 21.6 16 21.6 16 21.6C16 21.6 10.9 21.6 9.7 21.3C9 21.1 8.5 20.6 8.3 19.9C8 18.6 8 16 8 16C8 16 8 13.4 8.2 12.1C8.4 11.4 8.90001 10.9 9.60001 10.7C10.9 10.4 15.9 10.4 15.9 10.4C15.9 10.4 21 10.4 22.2 10.7Z" fill="currentColor"/>
	</symbol>
	<symbol id="vk-circle" viewBox="0 0 32 32" fill="none">
		<rect width="32" height="32" rx="16" fill="white"/>
		<path d="M10.6987 12.8693C10.784 17.0293 12.864 19.5253 16.512 19.5253H16.7253V17.1467C18.064 17.28 19.0773 18.2613 19.4827 19.5253H21.376C21.1818 18.8071 20.8376 18.1381 20.366 17.5626C19.8943 16.9872 19.3061 16.5182 18.64 16.1866C19.2369 15.8232 19.7524 15.3405 20.1543 14.7688C20.5563 14.1971 20.836 13.5487 20.976 12.864H19.2587C18.8853 14.1866 17.776 15.3867 16.7253 15.4986V12.8693H15.0027V17.4773C13.936 17.2106 12.592 15.92 12.5333 12.8693H10.6987Z" fill="currentColor"/>
		<path fill-rule="evenodd" clip-rule="evenodd" d="M16 0C24.8366 0 32 7.16344 32 16C32 24.8366 24.8366 32 16 32C7.16344 32 0 24.8366 0 16C0 7.16344 7.16344 0 16 0ZM8 15.68C8 12.0587 8 10.2507 9.12 9.12C10.256 8 12.064 8 15.68 8H16.32C19.9413 8 21.7493 8 22.88 9.12C24 10.256 24 12.064 24 15.68V16.32C24 19.9413 24 21.7493 22.88 22.88C21.744 24 19.936 24 16.32 24H15.68C12.0587 24 10.2507 24 9.12 22.88C8 21.744 8 19.936 8 16.32V15.68Z" fill="currentColor"/>
	</symbol>
	<symbol id="ok-circle" viewBox="0 0 32 32" fill="none">
		<rect width="32" height="32" rx="16" fill="white"/>
		<path d="M16.0309 9.46832C17.1335 9.46832 18.0329 10.3677 18.0329 11.4703C18.0329 12.5728 17.1335 13.4721 16.0309 13.4721C14.9285 13.4721 14.0291 12.5728 14.0291 11.4703C14 10.3677 14.8995 9.46832 16.0309 9.46832Z" fill="currentColor"/>
		<path fill-rule="evenodd" clip-rule="evenodd" d="M16 0C7.16344 0 0 7.16344 0 16C0 24.8366 7.16344 32 16 32C24.8366 32 32 24.8366 32 16C32 7.16344 24.8366 0 16 0ZM16.0309 16.3155C18.7003 16.3155 20.8763 14.1395 20.8763 11.4703C20.8763 8.80101 18.7003 6.625 16.0309 6.625C13.3327 6.625 11.1567 8.80101 11.1567 11.4703C11.1567 14.1395 13.3327 16.3155 16.0309 16.3155ZM17.9749 20.2904C18.9613 20.0583 19.9188 19.6811 20.7892 19.1299C21.4565 18.7236 21.6596 17.8243 21.2244 17.1569C20.8183 16.4896 19.9188 16.2865 19.2515 16.7217C17.2785 17.9693 14.6964 17.9693 12.7235 16.7217C12.0562 16.3156 11.1858 16.4896 10.7506 17.1569C10.3734 17.8243 10.5765 18.6947 11.2438 19.1008C12.1142 19.6521 13.0716 20.0292 14.0581 20.2613L11.3599 22.9596C10.8086 23.5109 10.8086 24.4103 11.3599 24.9616C11.65 25.2517 11.9982 25.3677 12.3753 25.3677C12.7525 25.3677 13.1007 25.2227 13.3908 24.9616L16.06 22.2923L18.7293 24.9616C19.2805 25.5128 20.18 25.5128 20.7312 24.9616C21.2824 24.4103 21.2824 23.5109 20.7312 22.9596L17.9749 20.2904Z" fill="currentColor"/>
	</symbol>
	<symbol id="instagram-circle" viewBox="0 0 32 32" fill="none">
		<rect width="32" height="32" rx="16" fill="white"/>
		<path d="M16 18.8C14.5 18.8 13.2 17.6 13.2 16C13.2 14.5 14.4 13.2 16 13.2C17.5 13.2 18.8 14.4 18.8 16C18.8 17.5 17.5 18.8 16 18.8Z" fill="currentColor"/>
		<path fill-rule="evenodd" clip-rule="evenodd" d="M19.4 9.2H12.6C11.8 9.3 11.4 9.4 11.1 9.5C10.7 9.6 10.4 9.8 10.1 10.1C9.86261 10.3374 9.75045 10.5748 9.61489 10.8617C9.57916 10.9373 9.5417 11.0166 9.5 11.1C9.48453 11.1464 9.46667 11.1952 9.44752 11.2475C9.34291 11.5333 9.2 11.9238 9.2 12.6V19.4C9.3 20.2 9.4 20.6 9.5 20.9C9.6 21.3 9.8 21.6 10.1 21.9C10.3374 22.1374 10.5748 22.2495 10.8617 22.3851C10.9374 22.4209 11.0165 22.4583 11.1 22.5C11.1464 22.5155 11.1952 22.5333 11.2475 22.5525C11.5333 22.6571 11.9238 22.8 12.6 22.8H19.4C20.2 22.7 20.6 22.6 20.9 22.5C21.3 22.4 21.6 22.2 21.9 21.9C22.1374 21.6626 22.2495 21.4252 22.3851 21.1383C22.4209 21.0626 22.4583 20.9835 22.5 20.9C22.5155 20.8536 22.5333 20.8048 22.5525 20.7525C22.6571 20.4667 22.8 20.0762 22.8 19.4V12.6C22.7 11.8 22.6 11.4 22.5 11.1C22.4 10.7 22.2 10.4 21.9 10.1C21.6626 9.86261 21.4252 9.75045 21.1383 9.61488C21.0627 9.57918 20.9833 9.54167 20.9 9.5C20.8536 9.48453 20.8048 9.46666 20.7525 9.44752C20.4667 9.3429 20.0762 9.2 19.4 9.2ZM16 11.7C13.6 11.7 11.7 13.6 11.7 16C11.7 18.4 13.6 20.3 16 20.3C18.4 20.3 20.3 18.4 20.3 16C20.3 13.6 18.4 11.7 16 11.7ZM21.4 11.6C21.4 12.1523 20.9523 12.6 20.4 12.6C19.8477 12.6 19.4 12.1523 19.4 11.6C19.4 11.0477 19.8477 10.6 20.4 10.6C20.9523 10.6 21.4 11.0477 21.4 11.6Z" fill="currentColor"/>
		<path fill-rule="evenodd" clip-rule="evenodd" d="M0 16C0 7.16344 7.16344 0 16 0C24.8366 0 32 7.16344 32 16C32 24.8366 24.8366 32 16 32C7.16344 32 0 24.8366 0 16ZM12.6 7.7H19.4C20.3 7.8 20.9 7.9 21.4 8.1C22 8.4 22.4 8.6 22.9 9.1C23.4 9.6 23.7 10.1 23.9 10.6C24.1 11.1 24.3 11.7 24.3 12.6V19.4C24.2 20.3 24.1 20.9 23.9 21.4C23.6 22 23.4 22.4 22.9 22.9C22.4 23.4 21.9 23.7 21.4 23.9C20.9 24.1 20.3 24.3 19.4 24.3H12.6C11.7 24.2 11.1 24.1 10.6 23.9C10 23.6 9.6 23.4 9.1 22.9C8.6 22.4 8.3 21.9 8.1 21.4C7.9 20.9 7.7 20.3 7.7 19.4V12.6C7.8 11.7 7.9 11.1 8.1 10.6C8.4 10 8.6 9.6 9.1 9.1C9.6 8.6 10.1 8.3 10.6 8.1C11.1 7.9 11.7 7.7 12.6 7.7Z" fill="currentColor"/>
	</symbol>
	<symbol id="facebook-circle" viewBox="0 0 32 32" fill="none">
		<rect width="32" height="32" rx="16" fill="white"/>
		<path fill-rule="evenodd" clip-rule="evenodd" d="M0 16C0 7.16344 7.16344 0 16 0C24.8366 0 32 7.16344 32 16C32 24.8366 24.8366 32 16 32C7.16344 32 0 24.8366 0 16ZM16 8C20.4 8 24 11.6 24 16C24 20 21.1 23.4 17.1 24V18.3H19L19.4 16H17.2V14.5C17.2 13.9 17.5 13.3 18.5 13.3H19.5V11.3C19.5 11.3 18.6 11.1 17.7 11.1C15.9 11.1 14.7 12.2 14.7 14.2V16H12.7V18.3H14.7V23.9C10.9 23.3 8 20 8 16C8 11.6 11.6 8 16 8Z" fill="currentColor"/>
	</symbol>
	<symbol id="arrow-up-right" viewBox="0 0 13 13" fill="none">
		<path d="M2.58337 10.25L10.0834 2.75" stroke="currentColor" stroke-width="2" stroke-linecap="round" stroke-linejoin="round"/>
		<path d="M2.58337 2.75H10.0834V10.25" stroke="currentColor" stroke-width="2" stroke-linecap="round" stroke-linejoin="round"/>
	</symbol>
	<symbol id="play" viewBox="0 0 32 32" fill="none">
		<path d="M8.51746 5.60554C8.51746 4.91207 9.28462 4.49324 9.86795 4.86824L26.0372 15.2628C26.5739 15.6078 26.5739 16.3923 26.0372 16.7374L9.86795 27.1319C9.28462 27.5069 8.51746 27.088 8.51746 26.3946V5.60554Z" fill="currentColor"/>
	</symbol>
	<symbol id="chevron-left-sm" viewBox="0 0 16 17" fill="none">
		<path d="M10 13.5L6 9.5L10 5.5" stroke="currentColor" stroke-width="3" stroke-linecap="round" stroke-linejoin="round"/>
	</symbol>
	<symbol id="chevron-right-sm" viewBox="0 0 13 12" fill="none">
		<path d="M5 9L8 6L5 3" stroke="currentColor" stroke-width="2" stroke-linecap="round" stroke-linejoin="round"/>
	</symbol>
	<symbol id="image-search" viewBox="0 0 24 24" fill="none">
		<path d="M5 21C4.45 21 3.979 20.804 3.587 20.412C3.195 20.02 2.99934 19.5493 3 19V5C3 4.45 3.196 3.979 3.588 3.587C3.98 3.195 4.45067 2.99933 5 3H9C9.28334 3 9.521 3.096 9.713 3.288C9.905 3.48 10.0007 3.71733 10 4C10 4.28333 9.904 4.521 9.712 4.713C9.52 4.905 9.28267 5.00067 9 5H5V19H19V15.65C19 15.3667 19.096 15.129 19.288 14.937C19.48 14.745 19.7173 14.6493 20 14.65C20.2833 14.65 20.521 14.746 20.713 14.938C20.905 15.13 21.0007 15.3673 21 15.65V19C21 19.55 20.804 20.021 20.412 20.413C20.02 20.805 19.5493 21.0007 19 21H5ZM11.25 16L13.85 12.525C13.95 12.3917 14.0833 12.325 14.25 12.325C14.4167 12.325 14.55 12.3917 14.65 12.525L17.4 16.2C17.5333 16.3667 17.55 16.5417 17.45 16.725C17.35 16.9083 17.2 17 17 17H7C6.8 17 6.65 16.9083 6.55 16.725C6.45 16.5417 6.46667 16.3667 6.6 16.2L8.6 13.525C8.7 13.3917 8.83334 13.325 9 13.325C9.16667 13.325 9.3 13.3917 9.4 13.525L11.25 16ZM16.05 11C14.8167 11 13.7667 10.5623 12.9 9.687C12.0333 8.81167 11.6 7.74933 11.6 6.5C11.6 5.25 12.0377 4.18733 12.913 3.312C13.7883 2.43667 14.8507 1.99933 16.1 2C17.35 2 18.4127 2.43767 19.288 3.313C20.1633 4.18833 20.6007 5.25067 20.6 6.5C20.6 6.95 20.5333 7.38333 20.4 7.8C20.2667 8.21667 20.1 8.6 19.9 8.95L22.25 11.3C22.4333 11.4833 22.525 11.7167 22.525 12C22.525 12.2833 22.4333 12.5167 22.25 12.7C22.0667 12.8833 21.8333 12.975 21.55 12.975C21.2667 12.975 21.0333 12.8833 20.85 12.7L18.45 10.3C18.1 10.5333 17.725 10.7083 17.325 10.825C16.925 10.9417 16.5 11 16.05 11ZM16.1 9C16.8 9 17.3917 8.75833 17.875 8.275C18.3583 7.79167 18.6 7.2 18.6 6.5C18.6 5.8 18.3583 5.20833 17.875 4.725C17.3917 4.24167 16.8 4 16.1 4C15.4 4 14.8083 4.24167 14.325 4.725C13.8417 5.20833 13.6 5.8 13.6 6.5C13.6 7.2 13.8417 7.79167 14.325 8.275C14.8083 8.75833 15.4 9 16.1 9Z" fill="currentColor"/>
	</symbol>
	<symbol id="image-add" viewBox="0 0 32 32" fill="none">
		<path d="M18.133 9.73325C18.133 11.9611 17.248 14.0976 15.6727 15.6729C14.0974 17.2483 11.9608 18.1333 9.73301 18.1333C7.50519 18.1333 5.36862 17.2483 3.79331 15.6729C2.21801 14.0976 1.33301 11.9611 1.33301 9.73325C1.33301 7.50543 2.21801 5.36886 3.79331 3.79355C5.36862 2.21825 7.50519 1.33325 9.73301 1.33325C11.9608 1.33325 14.0974 2.21825 15.6727 3.79355C17.248 5.36886 18.133 7.50543 18.133 9.73325ZM10.6663 5.99992C10.6663 5.75238 10.568 5.51499 10.393 5.33995C10.2179 5.16492 9.98054 5.06659 9.73301 5.06659C9.48547 5.06659 9.24808 5.16492 9.07304 5.33995C8.89801 5.51499 8.79967 5.75238 8.79967 5.99992V8.79992H5.99967C5.75214 8.79992 5.51474 8.89825 5.33971 9.07329C5.16467 9.24832 5.06634 9.48572 5.06634 9.73325C5.06634 9.98079 5.16467 10.2182 5.33971 10.3932C5.51474 10.5683 5.75214 10.6666 5.99967 10.6666H8.79967V13.4666C8.79967 13.7141 8.89801 13.9515 9.07304 14.1266C9.24808 14.3016 9.48547 14.3999 9.73301 14.3999C9.98054 14.3999 10.2179 14.3016 10.393 14.1266C10.568 13.9515 10.6663 13.7141 10.6663 13.4666V10.6666H13.4663C13.7139 10.6666 13.9513 10.5683 14.1263 10.3932C14.3013 10.2182 14.3997 9.98079 14.3997 9.73325C14.3997 9.48572 14.3013 9.24832 14.1263 9.07329C13.9513 8.89825 13.7139 8.79992 13.4663 8.79992H10.6663V5.99992ZM9.73301 19.9999C11.4903 20.0002 13.2183 19.5495 14.7516 18.6908C16.2848 17.8321 17.572 16.5942 18.4899 15.0957C19.4077 13.5971 19.9256 11.888 19.9938 10.132C20.0621 8.376 19.6785 6.63188 18.8797 5.06659H25.5997C27.0849 5.06659 28.5093 5.65658 29.5595 6.70679C30.6097 7.75699 31.1997 9.18137 31.1997 10.6666V25.5999C31.1997 26.8133 30.8151 27.9333 30.1599 28.8517L20.0986 18.9434C19.5748 18.4275 18.8691 18.1384 18.1339 18.1384C17.3988 18.1384 16.6931 18.4275 16.1693 18.9434L6.10794 28.8517C5.42912 27.9034 5.06482 26.7661 5.06634 25.5999V18.8799C6.46634 19.5967 8.05301 19.9999 9.73301 19.9999ZM22.7997 14.3999C23.0472 14.3999 23.2846 14.3016 23.4596 14.1266C23.6347 13.9515 23.733 13.7141 23.733 13.4666C23.733 13.2191 23.6347 12.9817 23.4596 12.8066C23.2846 12.6316 23.0472 12.5333 22.7997 12.5333C22.5521 12.5333 22.3147 12.6316 22.1397 12.8066C21.9647 12.9817 21.8663 13.2191 21.8663 13.4666C21.8663 13.7141 21.9647 13.9515 22.1397 14.1266C22.3147 14.3016 22.5521 14.3999 22.7997 14.3999ZM22.7997 16.2666C23.5423 16.2666 24.2545 15.9716 24.7796 15.4465C25.3047 14.9214 25.5997 14.2092 25.5997 13.4666C25.5997 12.724 25.3047 12.0118 24.7796 11.4867C24.2545 10.9616 23.5423 10.6666 22.7997 10.6666C22.0571 10.6666 21.3449 10.9616 20.8198 11.4867C20.2947 12.0118 19.9997 12.724 19.9997 13.4666C19.9997 14.2092 20.2947 14.9214 20.8198 15.4465C21.3449 15.9716 22.0571 16.2666 22.7997 16.2666ZM7.42767 30.1695C8.34234 30.8191 9.46047 31.1999 10.6663 31.1999H25.5997C26.8055 31.1999 27.9237 30.8191 28.8383 30.1695L18.7882 20.2762C18.6136 20.104 18.3782 20.0076 18.133 20.0076C17.8878 20.0076 17.6524 20.104 17.4778 20.2762L7.42767 30.1695Z" fill="currentColor"/>
	</symbol>
	<symbol id="phone" viewBox="0 0 24 24" fill="none">
		<path d="M20 16.6406C20 16.526 19.9896 16.4427 19.9688 16.3906C19.9479 16.3385 19.8542 16.2526 19.6875 16.1328C19.5208 16.013 19.3099 15.8828 19.0547 15.7422C18.7995 15.6016 18.5521 15.4635 18.3125 15.3281C18.0729 15.1927 17.8359 15.0625 17.6016 14.9375C17.3672 14.8125 17.2188 14.7344 17.1562 14.7031C17.1042 14.6719 17.0052 14.6042 16.8594 14.5C16.7135 14.3958 16.5833 14.3177 16.4688 14.2656C16.3542 14.2135 16.2448 14.1875 16.1406 14.1875C15.9844 14.1875 15.7943 14.2943 15.5703 14.5078C15.3464 14.7214 15.1406 14.9557 14.9531 15.2109C14.7656 15.4661 14.5651 15.7005 14.3516 15.9141C14.138 16.1276 13.9635 16.2344 13.8281 16.2344C13.7552 16.2344 13.6693 16.2161 13.5703 16.1797C13.4714 16.1432 13.3906 16.1094 13.3281 16.0781C13.2656 16.0469 13.1771 15.9974 13.0625 15.9297C12.9479 15.862 12.875 15.8177 12.8438 15.7969C11.8125 15.224 10.9271 14.5651 10.1875 13.8203C9.44792 13.0755 8.78646 12.1875 8.20312 11.1562C8.18229 11.125 8.13802 11.0521 8.07031 10.9375C8.0026 10.8229 7.95312 10.7344 7.92188 10.6719C7.89062 10.6094 7.85677 10.5286 7.82031 10.4297C7.78385 10.3307 7.76562 10.2448 7.76562 10.1719C7.76562 10.0365 7.8724 9.86198 8.08594 9.64844C8.29948 9.4349 8.53385 9.23438 8.78906 9.04688C9.04427 8.85938 9.27865 8.65365 9.49219 8.42969C9.70573 8.20573 9.8125 8.01562 9.8125 7.85938C9.8125 7.75521 9.78646 7.64583 9.73438 7.53125C9.68229 7.41667 9.60417 7.28646 9.5 7.14062C9.39583 6.99479 9.32812 6.89583 9.29688 6.84375C9.26562 6.78125 9.1875 6.63281 9.0625 6.39844C8.9375 6.16406 8.80729 5.92708 8.67188 5.6875C8.53646 5.44792 8.39844 5.20052 8.25781 4.94531C8.11719 4.6901 7.98698 4.47917 7.86719 4.3125C7.7474 4.14583 7.66146 4.05208 7.60938 4.03125C7.55729 4.01042 7.47396 4 7.35938 4C6.85938 4 6.33333 4.11458 5.78125 4.34375C5.30208 4.5625 4.88542 5.05469 4.53125 5.82031C4.17708 6.58594 4 7.26562 4 7.85938C4 8.02604 4.01302 8.20312 4.03906 8.39062C4.0651 8.57812 4.09115 8.73698 4.11719 8.86719C4.14323 8.9974 4.1901 9.16927 4.25781 9.38281C4.32552 9.59635 4.3776 9.75 4.41406 9.84375C4.45052 9.9375 4.51562 10.1094 4.60938 10.3594C4.70312 10.6094 4.76042 10.7656 4.78125 10.8281C5.40625 12.5365 6.53385 14.2057 8.16406 15.8359C9.79427 17.4661 11.4635 18.5938 13.1719 19.2188C13.2344 19.2396 13.3906 19.2969 13.6406 19.3906C13.8906 19.4844 14.0625 19.5495 14.1562 19.5859C14.25 19.6224 14.4036 19.6745 14.6172 19.7422C14.8307 19.8099 15.0026 19.8568 15.1328 19.8828C15.263 19.9089 15.4219 19.9349 15.6094 19.9609C15.7969 19.987 15.974 20 16.1406 20C16.7344 20 17.4141 19.8229 18.1797 19.4688C18.9453 19.1146 19.4375 18.6979 19.6562 18.2188C19.8854 17.6667 20 17.1406 20 16.6406ZM24 4.5V19.5C24 20.7396 23.5599 21.7995 22.6797 22.6797C21.7995 23.5599 20.7396 24 19.5 24H4.5C3.26042 24 2.20052 23.5599 1.32031 22.6797C0.440104 21.7995 0 20.7396 0 19.5V4.5C0 3.26042 0.440104 2.20052 1.32031 1.32031C2.20052 0.440104 3.26042 0 4.5 0H19.5C20.7396 0 21.7995 0.440104 22.6797 1.32031C23.5599 2.20052 24 3.26042 24 4.5Z" fill="currentColor"/>
	</symbol>
	<symbol id="chevron-down" viewBox="0 0 24 25" fill="none">
		<path d="M6 9.5L12 15.5L18 9.5" stroke="currentColor" stroke-width="2" stroke-linecap="round" stroke-linejoin="round"/>
	</symbol>
	<symbol id="check" viewBox="0 0 24 25" fill="none">
		<path fill-rule="evenodd" clip-rule="evenodd" d="M7 2.5C4.23858 2.5 2 4.73858 2 7.5V17.5C2 20.2614 4.23858 22.5 7 22.5H17C19.7614 22.5 22 20.2614 22 17.5V7.5C22 4.73858 19.7614 2.5 17 2.5H7ZM11.865 15.745L16.615 10.995C16.955 10.655 16.955 10.105 16.615 9.755C16.275 9.415 15.715 9.415 15.375 9.755L11.245 13.885L9.495 12.135C9.155 11.795 8.595 11.795 8.255 12.135C7.915 12.475 7.915 13.025 8.255 13.375L10.635 15.745C10.805 15.915 11.025 15.995 11.245 15.995C11.475 15.995 11.695 15.915 11.865 15.745Z" fill="currentColor"/>
	</symbol>
	<symbol id="eye-closed" viewBox="0 0 24 24" fill="none">
		<path d="M17.94 17.94C16.2306 19.243 14.1491 19.9649 12 20C5 20 1 12 1 12C2.24389 9.68192 3.96914 7.65663 6.06 6.06003M9.9 4.24002C10.5883 4.0789 11.2931 3.99836 12 4.00003C19 4.00003 23 12 23 12C22.393 13.1356 21.6691 14.2048 20.84 15.19M14.12 14.12C13.8454 14.4148 13.5141 14.6512 13.1462 14.8151C12.7782 14.9791 12.3809 15.0673 11.9781 15.0744C11.5753 15.0815 11.1752 15.0074 10.8016 14.8565C10.4281 14.7056 10.0887 14.4811 9.80385 14.1962C9.51897 13.9113 9.29439 13.572 9.14351 13.1984C8.99262 12.8249 8.91853 12.4247 8.92563 12.0219C8.93274 11.6191 9.02091 11.2219 9.18488 10.8539C9.34884 10.4859 9.58525 10.1547 9.88 9.88003" stroke="currentColor" stroke-width="2" stroke-linecap="round" stroke-linejoin="round"/>
		<path d="M1 1L23 23" stroke="currentColor" stroke-width="2" stroke-linecap="round" stroke-linejoin="round"/>
	</symbol>
	<symbol id="eye-open" viewBox="0 0 24 24" fill="none">
		<path d="M17.94 17.94C16.2306 19.243 14.1491 19.9649 12 20C5 20 1 12 1 12C2.24389 9.68192 3.96914 7.65663 6.06 6.06003M9.9 4.24002C10.5883 4.0789 11.2931 3.99836 12 4.00003C19 4.00003 23 12 23 12C22.393 13.1356 21.6691 14.2048 20.84 15.19M14.12 14.12C13.8454 14.4148 13.5141 14.6512 13.1462 14.8151C12.7782 14.9791 12.3809 15.0673 11.9781 15.0744C11.5753 15.0815 11.1752 15.0074 10.8016 14.8565C10.4281 14.7056 10.0887 14.4811 9.80385 14.1962C9.51897 13.9113 9.29439 13.572 9.14351 13.1984C8.99262 12.8249 8.91853 12.4247 8.92563 12.0219C8.93274 11.6191 9.02091 11.2219 9.18488 10.8539C9.34884 10.4859 9.58525 10.1547 9.88 9.88003" stroke="currentColor" stroke-width="2" stroke-linecap="round" stroke-linejoin="round"/>
	</symbol>
	<symbol id="pin" viewBox="0 0 52 52" fill="none">
		<path d="M27.1788 47.9099C27.5282 47.666 31.6215 44.7573 35.6325 40.0588C39.6364 35.3686 43.6143 28.829 43.6143 21.3324V21.3318C43.609 16.662 41.7516 12.1849 38.4495 8.88283C35.1475 5.58075 30.6704 3.72332 26.0005 3.71802L25.9994 3.71802C21.3296 3.72332 16.8525 5.58075 13.5504 8.88283C10.2484 12.1849 8.39092 16.662 8.38562 21.3318V21.3324C8.38562 28.829 12.3635 35.3686 16.3675 40.0588C20.3758 44.7542 24.4662 47.6621 24.8204 47.9094M27.1788 47.9099L26.8927 47.4998L27.1795 47.9094C27.1793 47.9095 27.1791 47.9097 27.1788 47.9099ZM27.1788 47.9099C26.8333 48.1517 26.4217 48.2814 26 48.2814C25.5779 48.2814 25.1661 48.1515 24.8204 47.9094M24.8204 47.9094C24.8207 47.9095 24.8209 47.9097 24.8211 47.9099L25.1072 47.5L24.8204 47.9094Z" fill="var(--color-1)" stroke="var(--color-2)" stroke-width="3"/>
		<path d="M34.5243 23.1714L30.3466 21.0826L27.563 13.2869C27.2521 12.4178 26.4237 11.8335 25.5 11.8335C24.5763 11.8335 23.7479 12.4178 23.437 13.2874L20.6534 21.0826L16.4757 23.1714C15.8736 23.4725 15.5 24.0772 15.5 24.7502C15.5 25.4224 15.8736 26.0274 16.4757 26.329L22.9455 29.5638C23.7348 29.9581 24.6179 30.1669 25.5 30.1669C26.3821 30.1669 27.2652 29.9581 28.0545 29.5638L34.5243 26.329C35.1265 26.0274 35.5 25.4224 35.5 24.7502C35.5 24.0772 35.1265 23.4725 34.5243 23.1714ZM23.1929 16.4494C23.826 16.7017 24.613 16.8335 25.5 16.8335C26.3871 16.8335 27.174 16.7017 27.8072 16.4494L28.5551 18.5417C27.9496 19.0345 26.8136 19.3335 25.5001 19.3335C24.1866 19.3335 23.0505 19.0345 22.4451 18.5417L23.1929 16.4494ZM25.5 26.0002C23.4964 26.0002 20.6009 25.2161 20.5024 23.9819L21.042 22.4723C22.0552 23.1307 23.6356 23.5002 25.5 23.5002C27.3644 23.5002 28.9448 23.1307 29.958 22.4723L30.4976 23.9819C30.3991 25.2161 27.5036 26.0002 25.5 26.0002Z" fill="var(--color-3)"/>
	</symbol>
	<symbol id="" viewBox="" fill="none">
		
	</symbol>
	<symbol id="" viewBox="" fill="none">
		
	</symbol>
	<symbol id="" viewBox="" fill="none">
		
	</symbol>
</svg>