<svg width="49" height="48" viewBox="0 0 49 48" fill="none" xmlns="http://www.w3.org/2000/svg"><g clip-path="url(#clip0_113_5091)"><path d="M39.6665 48H9.6665C4.6956 48 0.666504 43.9709 0.666504 39V9C0.666504 4.02909 4.6956 0 9.6665 0H39.6665C44.6374 0 48.6665 4.02909 48.6665 9V39C48.6665 43.9709 44.6374 48 39.6665 48Z" fill="#F2A93F"/><path d="M32.666 16.7505C32.666 15.234 31.433 14.001 29.9165 14.001H15.416C13.8995 13.9995 12.6665 15.234 12.6665 16.7505V20.001H32.666V16.7505Z" fill="white"/><path d="M17.666 16.9995C17.1141 16.9995 16.6655 16.5509 16.6655 15.999V12.999C16.667 12.4472 17.1141 12 17.666 12C18.2179 12 18.6665 12.4472 18.6665 13.0005V16.0005C18.6665 16.5524 18.2193 16.9995 17.666 16.9995ZM27.6665 16.9995C27.1146 16.9995 26.666 16.5509 26.666 15.999V12.999C26.666 12.4472 27.1146 12 27.6665 12C28.2184 12 28.667 12.4486 28.667 13.0005V16.0005C28.667 16.5524 28.2198 16.9995 27.6665 16.9995Z" fill="#FCEED9"/><path d="M20.666 31.0005H15.6665C14.012 31.0005 12.6665 29.655 12.6665 28.0005V18C12.6665 17.4481 13.1137 16.9995 13.667 16.9995C14.2203 16.9995 14.666 17.4481 14.666 18V28.0005C14.666 28.5524 15.1146 29.001 15.6665 29.001H20.666C21.2193 28.9995 21.6665 29.4482 21.6665 30C21.6665 30.5518 21.2193 31.0005 20.666 31.0005ZM31.667 21C31.1137 21 30.6665 20.5514 30.6665 19.9995V18C30.6665 17.4481 31.1137 16.9995 31.667 16.9995C32.2189 16.9995 32.6675 17.4481 32.6675 18V19.9995C32.666 20.5514 32.2189 21 31.667 21Z" fill="white"/><path d="M30.167 22.9995C26.5836 22.9995 23.6675 25.9157 23.6675 29.499C23.6675 33.0823 26.5822 36 30.167 36C33.7518 36 36.6665 33.0839 36.6665 29.5005C36.6665 25.9171 33.7504 22.9995 30.167 22.9995ZM33.1728 28.4055L29.9224 32.1555C29.8324 32.2593 29.7221 32.3435 29.5982 32.4029C29.4744 32.4622 29.3396 32.4954 29.2024 32.5005H29.1665C28.9016 32.5004 28.6475 32.3951 28.4601 32.2079L26.7096 30.4574C26.3196 30.0674 26.3196 29.4346 26.7096 29.0431C27.0996 28.6516 27.7324 28.6531 28.1239 29.0431L29.1141 30.033L31.6611 27.0945C31.747 26.9952 31.8516 26.9137 31.969 26.8549C32.0864 26.7961 32.2143 26.761 32.3453 26.7517C32.4762 26.7424 32.6078 26.759 32.7323 26.8006C32.8569 26.8422 32.972 26.908 33.0711 26.9942C33.4896 27.3556 33.5328 27.9884 33.1728 28.4055Z" fill="#FCEED9"/></g><defs><clipPath id="clip0_113_5091"><rect width="48" height="48" fill="white" transform="translate(0.666504)"/></clipPath></defs></svg>