<svg width="48" height="49" viewBox="0 0 48 49" fill="none" xmlns="http://www.w3.org/2000/svg">
<path d="M39 48.6665H9C6.61305 48.6665 4.32387 47.7183 2.63604 46.0305C0.948211 44.3426 0 42.0535 0 39.6665L0 9.6665C0 7.27956 0.948211 4.99037 2.63604 3.30254C4.32387 1.61472 6.61305 0.666504 9 0.666504L39 0.666504C41.3869 0.666504 43.6761 1.61472 45.364 3.30254C47.0518 4.99037 48 7.27956 48 9.6665V39.6665C48 42.0535 47.0518 44.3426 45.364 46.0305C43.6761 47.7183 41.3869 48.6665 39 48.6665Z" fill="#F6F6F6"/>
<path d="M35.7075 34.9595L28.8825 28.1345C30.2533 26.448 31.0013 24.3408 31.0005 22.1675C31.0005 16.9295 26.739 12.668 21.501 12.668C16.263 12.668 12 16.928 12 22.166C12 27.404 16.2615 31.6655 21.4995 31.6655C23.76 31.6655 25.8345 30.869 27.468 29.5475L34.293 36.3725C34.4843 36.5395 34.7318 36.6276 34.9856 36.6191C35.2394 36.6106 35.4805 36.506 35.6602 36.3266C35.8398 36.1471 35.9446 35.9061 35.9534 35.6524C35.9622 35.3986 35.8743 35.1509 35.7075 34.9595ZM13.9995 22.166C13.9995 18.0305 17.364 14.666 21.4995 14.666C25.635 14.666 28.9995 18.0305 28.9995 22.166C28.9995 26.3015 25.635 29.666 21.4995 29.666C17.364 29.666 13.9995 26.3015 13.9995 22.166Z" fill="#F2A93F"/>
<path d="M21.4995 21.6665C22.6038 21.6665 23.499 20.7713 23.499 19.667C23.499 18.5627 22.6038 17.6675 21.4995 17.6675C20.3952 17.6675 19.5 18.5627 19.5 19.667C19.5 20.7713 20.3952 21.6665 21.4995 21.6665Z" fill="#FDD270"/>
<path d="M22.7505 22.667H20.25C19.521 22.6678 18.8221 22.9577 18.3067 23.4732C17.7912 23.9886 17.5013 24.6875 17.5005 25.4165V25.916C17.5005 26.1149 17.5795 26.3057 17.7202 26.4463C17.8608 26.587 18.0516 26.666 18.2505 26.666H24.75C24.9489 26.666 25.1397 26.587 25.2803 26.4463C25.421 26.3057 25.5 26.1149 25.5 25.916V25.4165C25.4992 24.6875 25.2093 23.9886 24.6938 23.4732C24.1784 22.9577 23.4795 22.6678 22.7505 22.667Z" fill="#FDD270"/>
</svg>
