<svg width="48" height="49" viewBox="0 0 48 49" fill="none" xmlns="http://www.w3.org/2000/svg"><path d="M39 48.6665H9C4.02909 48.6665 0 44.6374 0 39.6665V9.6665C0 4.6956 4.02909 0.666504 9 0.666504H39C43.9709 0.666504 48 4.6956 48 9.6665V39.6665C48 44.6374 43.9709 48.6665 39 48.6665Z" fill="#F2A93F"/><path d="M24 26.7759C25.165 26.7759 26.1094 25.8315 26.1094 24.6665C26.1094 23.5015 25.165 22.5571 24 22.5571C22.835 22.5571 21.8906 23.5015 21.8906 24.6665C21.8906 25.8315 22.835 26.7759 24 26.7759Z" fill="white"/><path d="M35.2969 21.1509H30.8795C30.1373 19.7021 28.9645 18.5293 27.5156 17.787V13.3696C27.5156 12.981 27.2011 12.6665 26.8125 12.6665H24.7031V14.8228C24.7031 15.2114 24.3886 15.5259 24 15.5259C23.6114 15.5259 23.2969 15.2114 23.2969 14.8228V12.6665H21.1875C20.7989 12.6665 20.4844 12.981 20.4844 13.3696V17.787C19.0356 18.5293 17.8628 19.702 17.1205 21.1509H12.7031C12.3145 21.1509 12 21.4654 12 21.854V23.9634H14.1562C14.5449 23.9634 14.8594 24.2779 14.8594 24.6665C14.8594 25.0551 14.5449 25.3696 14.1562 25.3696H12V27.479C12 27.8676 12.3145 28.1821 12.7031 28.1821H17.1205C17.8628 29.6309 19.0355 30.8038 20.4844 31.546V35.9634C20.4844 36.352 20.7989 36.6665 21.1875 36.6665H23.2969V34.5103C23.2969 34.1216 23.6114 33.8071 24 33.8071C24.3886 33.8071 24.7031 34.1216 24.7031 34.5103V36.6665H26.8125C27.2011 36.6665 27.5156 36.352 27.5156 35.9634V31.546C28.9644 30.8038 30.1373 29.631 30.8795 28.1821H35.2969C35.6855 28.1821 36 27.8676 36 27.479V25.3696H33.8438C33.4551 25.3696 33.1406 25.0551 33.1406 24.6665C33.1406 24.2779 33.4551 23.9634 33.8438 23.9634H36V21.854C36 21.4654 35.6855 21.1509 35.2969 21.1509ZM18.375 25.3696H16.9688C16.5801 25.3696 16.2656 25.0551 16.2656 24.6665C16.2656 24.2779 16.5801 23.9634 16.9688 23.9634H18.375C18.7636 23.9634 19.0781 24.2779 19.0781 24.6665C19.0781 25.0551 18.7636 25.3696 18.375 25.3696ZM23.2969 17.6353C23.2969 17.2466 23.6114 16.9321 24 16.9321C24.3886 16.9321 24.7031 17.2466 24.7031 17.6353V19.0415C24.7031 19.4301 24.3886 19.7446 24 19.7446C23.6114 19.7446 23.2969 19.4301 23.2969 19.0415V17.6353ZM24.7031 31.6978C24.7031 32.0864 24.3886 32.4009 24 32.4009C23.6114 32.4009 23.2969 32.0864 23.2969 31.6978V30.2915C23.2969 29.9029 23.6114 29.5884 24 29.5884C24.3886 29.5884 24.7031 29.9029 24.7031 30.2915V31.6978ZM24 28.1821C22.0616 28.1821 20.4844 26.6049 20.4844 24.6665C20.4844 22.7281 22.0616 21.1509 24 21.1509C25.9384 21.1509 27.5156 22.7281 27.5156 24.6665C27.5156 26.6049 25.9384 28.1821 24 28.1821ZM31.0312 25.3696H29.625C29.2364 25.3696 28.9219 25.0551 28.9219 24.6665C28.9219 24.2779 29.2364 23.9634 29.625 23.9634H31.0312C31.4199 23.9634 31.7344 24.2779 31.7344 24.6665C31.7344 25.0551 31.4199 25.3696 31.0312 25.3696Z" fill="white"/></svg>