<svg width="48" height="49" viewBox="0 0 48 49" fill="none" xmlns="http://www.w3.org/2000/svg"><path d="M39 48.6665H9C6.61305 48.6665 4.32387 47.7183 2.63604 46.0305C0.948211 44.3426 0 42.0535 0 39.6665L0 9.6665C0 7.27956 0.948211 4.99037 2.63604 3.30254C4.32387 1.61472 6.61305 0.666504 9 0.666504L39 0.666504C41.3869 0.666504 43.6761 1.61472 45.364 3.30254C47.0518 4.99037 48 7.27956 48 9.6665V39.6665C48 42.0535 47.0518 44.3426 45.364 46.0305C43.6761 47.7183 41.3869 48.6665 39 48.6665Z" fill="#F2A93F"/><path d="M15 35.666C14.8128 35.6661 14.6324 35.596 14.4945 35.4695C14.3925 35.378 12 33.1655 12 30.854C12 29.096 13.3455 27.6665 15 27.6665C16.6545 27.6665 18 29.096 18 30.854C18 33.1655 15.6075 35.378 15.5055 35.4695C15.3679 35.5965 15.1873 35.6667 15 35.666Z" fill="white"/><path d="M27.654 36.6665H15C14.8011 36.6665 14.6103 36.5875 14.4697 36.4468C14.329 36.3062 14.25 36.1154 14.25 35.9165C14.25 35.7176 14.329 35.5268 14.4697 35.3862C14.6103 35.2455 14.8011 35.1665 15 35.1665H27.654C27.795 35.1665 27.8595 35.0795 27.888 35.006C27.9165 34.9325 27.927 34.826 27.822 34.7315L21.171 28.7135C20.631 28.2245 20.4495 27.47 20.712 26.789C20.9745 26.108 21.615 25.667 22.3455 25.667H31.0005C31.1994 25.667 31.3902 25.746 31.5308 25.8867C31.6715 26.0273 31.7505 26.2181 31.7505 26.417C31.7505 26.6159 31.6715 26.8067 31.5308 26.9473C31.3902 27.088 31.1994 27.167 31.0005 27.167H22.3455C22.2045 27.167 22.14 27.254 22.1115 27.3275C22.083 27.401 22.0725 27.5075 22.1775 27.602L28.8285 33.62C29.3685 34.109 29.55 34.8635 29.2875 35.5445C29.025 36.2255 28.3845 36.6665 27.654 36.6665Z" fill="#FCEED9"/><path d="M30.9995 12.6665C28.2425 12.6665 26 14.9375 26 17.729C26 21.581 30.3275 25.328 30.512 25.487C30.6474 25.6041 30.8205 25.6685 30.9995 25.6685C31.1785 25.6685 31.3516 25.6041 31.487 25.487C31.6715 25.328 35.999 21.581 35.999 17.729C35.999 14.9375 33.7565 12.6665 30.9995 12.6665ZM30.9995 19.667C29.897 19.667 29 18.77 29 17.6675C29 16.565 29.897 15.668 30.9995 15.668C31.5298 15.668 32.0384 15.8787 32.4134 16.2536C32.7883 16.6286 32.999 17.1372 32.999 17.6675C32.999 18.1978 32.7883 18.7064 32.4134 19.0814C32.0384 19.4563 31.5298 19.667 30.9995 19.667Z" fill="white"/></svg>