<svg width="48" height="48" viewBox="0 0 48 48" fill="none" xmlns="http://www.w3.org/2000/svg"><path d="M39 48H9C6.61305 48 4.32387 47.0518 2.63604 45.364C0.948211 43.6761 0 41.3869 0 39L0 9C0 6.61305 0.948211 4.32387 2.63604 2.63604C4.32387 0.948211 6.61305 0 9 0L39 0C41.3869 0 43.6761 0.948211 45.364 2.63604C47.0518 4.32387 48 6.61305 48 9V39C48 41.3869 47.0518 43.6761 45.364 45.364C43.6761 47.0518 41.3869 48 39 48Z" fill="#F2A93F"/><path d="M20.6115 24.75L12.981 24.7605L13.6515 17.541C13.7142 16.8584 14.0303 16.2241 14.5376 15.7632C15.045 15.3022 15.7066 15.0481 16.392 15.051H17.292C17.1015 15.681 17.0025 16.3605 17.0025 17.061C17.001 20.1705 19.0605 23.04 20.6115 24.75ZM25.3905 26.7495L18.9615 36H14.9505C14.1705 36 13.431 35.67 12.9105 35.1C12.39 34.53 12.141 33.7605 12.21 32.9895L12.7905 26.76L22.8705 26.7495H25.3905ZM27.4005 24.75C28.941 23.04 31.0005 20.1705 31.0005 17.0595C31.0005 16.359 30.9 15.6795 30.711 15.0495H31.611C33.0405 15.0495 34.2105 16.119 34.3515 17.5395L35.022 24.7395L27.4005 24.75ZM35.208 26.7375L27.8235 26.748L21.3975 36H33.054C33.437 36.0002 33.8158 35.9205 34.1661 35.7658C34.5164 35.6111 34.8306 35.385 35.0885 35.1018C35.3463 34.8187 35.5422 34.4848 35.6635 34.1216C35.7848 33.7583 35.829 33.3738 35.793 32.9925L35.208 26.7375Z" fill="white"/><path d="M24.0015 12C21.2445 12 19.002 14.271 19.002 17.0625C19.002 20.9145 23.3295 24.6615 23.514 24.8205C23.6494 24.9376 23.8224 25.002 24.0015 25.002C24.1805 25.002 24.3535 24.9376 24.489 24.8205C24.6735 24.663 29.001 20.916 29.001 17.0625C29.001 14.271 26.757 12 24.0015 12ZM24.0015 19.0005C23.4874 18.9761 23.0024 18.7547 22.6472 18.3823C22.292 18.0098 22.0939 17.5149 22.0939 17.0002C22.0939 16.4856 22.292 15.9907 22.6472 15.6182C23.0024 15.2458 23.4874 15.0244 24.0015 15C24.5225 15.0143 25.0174 15.2313 25.3808 15.6048C25.7443 15.9784 25.9477 16.479 25.9477 17.0002C25.9477 17.5215 25.7443 18.0221 25.3808 18.3957C25.0174 18.7692 24.5225 18.9862 24.0015 19.0005Z" fill="#FCEED9"/></svg>