<svg width="49" height="48" viewBox="0 0 49 48" fill="none" xmlns="http://www.w3.org/2000/svg">
<path d="M39.6665 48H9.6665C7.27956 48 4.99037 47.0518 3.30254 45.364C1.61472 43.6761 0.666504 41.3869 0.666504 39L0.666504 9C0.666504 6.61305 1.61472 4.32387 3.30254 2.63604C4.99037 0.948211 7.27956 0 9.6665 0L39.6665 0C42.0535 0 44.3426 0.948211 46.0305 2.63604C47.7183 4.32387 48.6665 6.61305 48.6665 9V39C48.6665 41.3869 47.7183 43.6761 46.0305 45.364C44.3426 47.0518 42.0535 48 39.6665 48Z" fill="#F2A93F"/>
<path d="M33.416 22.0005H15.917C14.6765 22.0005 13.667 23.01 13.667 24.2505V33.75C13.667 34.9905 14.6765 36 15.917 36H33.4175C34.658 36 35.6675 34.9905 35.6675 33.75V24.2505C35.6663 23.6539 35.4287 23.082 35.0066 22.6603C34.5846 22.2385 34.0126 22.0013 33.416 22.0005ZM18.416 29.7495H17.4155C17.2166 29.7495 17.0258 29.6705 16.8852 29.5298C16.7445 29.3892 16.6655 29.1984 16.6655 28.9995C16.6655 28.8006 16.7445 28.6098 16.8852 28.4692C17.0258 28.3285 17.2166 28.2495 17.4155 28.2495H18.416C18.6149 28.2495 18.8057 28.3285 18.9463 28.4692C19.087 28.6098 19.166 28.8006 19.166 28.9995C19.166 29.1984 19.087 29.3892 18.9463 29.5298C18.8057 29.6705 18.6149 29.7495 18.416 29.7495ZM24.6665 32.5005C22.736 32.5005 21.167 30.93 21.167 29.001C21.167 27.072 22.736 25.5 24.6665 25.5C26.597 25.5 28.166 27.0705 28.166 28.9995C28.166 30.9285 26.597 32.5005 24.6665 32.5005ZM31.916 29.7495H30.9155C30.7166 29.7495 30.5258 29.6705 30.3852 29.5298C30.2445 29.3892 30.1655 29.1984 30.1655 28.9995C30.1655 28.8006 30.2445 28.6098 30.3852 28.4692C30.5258 28.3285 30.7166 28.2495 30.9155 28.2495H31.916C32.1149 28.2495 32.3057 28.3285 32.4463 28.4692C32.587 28.6098 32.666 28.8006 32.666 28.9995C32.666 29.1984 32.587 29.3892 32.4463 29.5298C32.3057 29.6705 32.1149 29.7495 31.916 29.7495Z" fill="white"/>
<path d="M28.3731 15.2925L25.3731 12.2925C25.1853 12.1054 24.931 12.0003 24.6658 12.0003C24.4007 12.0003 24.1464 12.1054 23.9586 12.2925L20.9586 15.2925C20.8191 15.4324 20.7241 15.6105 20.6856 15.8044C20.6472 15.9982 20.667 16.1991 20.7426 16.3816C20.8181 16.5642 20.9461 16.7203 21.1102 16.8303C21.2744 16.9403 21.4675 16.9991 21.6651 16.9995H27.6651C27.8631 17.0002 28.0569 16.9419 28.2218 16.8322C28.3867 16.7225 28.5152 16.5662 28.5911 16.3833C28.6669 16.2003 28.6867 15.9989 28.6479 15.8047C28.6091 15.6105 28.5134 15.4322 28.3731 15.2925Z" fill="#FCEED9"/>
<path d="M24.6665 21C24.4012 21 24.1467 20.8946 23.9591 20.707C23.7714 20.5193 23.666 20.2648 23.666 19.9995V13.7505C23.666 13.4852 23.7714 13.2307 23.9591 13.043C24.1467 12.8554 24.4012 12.75 24.6665 12.75C24.9319 12.75 25.1863 12.8554 25.374 13.043C25.5616 13.2307 25.667 13.4852 25.667 13.7505V20.001C25.6666 20.2661 25.561 20.5202 25.3734 20.7075C25.1859 20.8948 24.9316 21 24.6665 21Z" fill="#FCEED9"/>
</svg>
