<svg width="48" height="49" viewBox="0 0 48 49" fill="none" xmlns="http://www.w3.org/2000/svg">
<path d="M39 48.6665H9C4.02909 48.6665 0 44.6374 0 39.6665V9.6665C0 4.6956 4.02909 0.666504 9 0.666504H39C43.9709 0.666504 48 4.6956 48 9.6665V39.6665C48 44.6374 43.9709 48.6665 39 48.6665Z" fill="#F2A93F"/>
<path d="M25.7638 23.4924C25.1165 23.4924 24.5898 24.0191 24.5898 24.6664C24.5898 25.3138 25.1165 25.8404 25.7638 25.8404C26.4112 25.8404 26.9378 25.3138 26.9378 24.6664C26.9378 24.0191 26.4112 23.4924 25.7638 23.4924ZM26.5414 19.9338V22.0509C27.1443 22.2304 27.6604 22.6128 28.0102 23.119L30.0237 22.4648C29.3389 21.1451 28.0588 20.1822 26.5414 19.9338ZM30.5054 23.9434L28.4913 24.5979C28.4918 24.6207 28.493 24.6435 28.493 24.6664C28.493 25.2897 28.2826 25.8645 27.9296 26.3244L29.1732 28.036C30.03 27.1692 30.5599 25.9786 30.5599 24.6664C30.5599 24.4207 30.5412 24.1793 30.5054 23.9434Z" fill="white"/>
<path d="M25.7625 14.429H16.3026C15.8732 14.429 15.525 14.7771 15.525 15.2065C15.525 15.6359 15.8732 15.9841 16.3026 15.9841H20.3445C19.4933 16.5173 18.7245 17.172 18.0626 17.9275H12.7776C12.3481 17.9276 12 18.2758 12 18.7052C12 19.1346 12.3481 19.4827 12.7776 19.4827H16.9377C16.0406 21.0041 15.525 22.7761 15.525 24.6664C15.525 26.866 16.2225 28.9057 17.4075 30.5763H15.2013C14.7719 30.5763 14.4238 30.9244 14.4238 31.3538C14.4238 31.7833 14.7719 32.1314 15.2013 32.1314H18.7647C19.2507 32.5873 19.7797 32.995 20.3445 33.3487H12.8578C12.4283 33.3487 12.0802 33.6968 12.0802 34.1263C12.0802 34.5557 12.4283 34.9038 12.8578 34.9038H25.7625C31.4075 34.9038 36 30.3113 36 24.6664C36 19.0214 31.4075 14.429 25.7625 14.429ZM29.5396 29.7692C29.5253 29.7813 29.5111 29.7935 29.4957 29.8046C29.4783 29.8172 29.4606 29.829 29.4426 29.84C28.4037 30.5811 27.1331 31.0176 25.7625 31.0176C24.3919 31.0176 23.1214 30.5811 22.0824 29.84C22.0642 29.8289 22.0465 29.8171 22.0293 29.8046C22.014 29.7934 21.9998 29.7812 21.9854 29.7692C20.4247 28.6109 19.4113 26.7549 19.4113 24.6664C19.4113 21.1643 22.2604 18.3152 25.7625 18.3152C29.2646 18.3152 32.1137 21.1643 32.1137 24.6664C32.1137 26.7549 31.1003 28.6109 29.5396 29.7692Z" fill="white"/>
<path d="M21.501 22.4648L23.5146 23.119C23.8644 22.6129 24.3804 22.2304 24.9833 22.0509V19.9338C23.466 20.1823 22.1859 21.1451 21.501 22.4648ZM26.6693 27.2397C26.3776 27.3431 26.0704 27.3959 25.761 27.3957C25.4515 27.3958 25.1443 27.3431 24.8526 27.2397L23.6087 28.9516C24.2563 29.2782 24.9875 29.4625 25.761 29.4625C26.5344 29.4625 27.2656 29.2783 27.9132 28.9516L26.6693 27.2397ZM23.0318 24.6665C23.0318 24.6435 23.0329 24.6208 23.0335 24.5979L21.0193 23.9434C20.983 24.1827 20.9648 24.4244 20.9648 24.6665C20.9648 25.9787 21.4948 27.1693 22.3516 28.0362L23.5952 26.3245C23.2423 25.8646 23.0318 25.2898 23.0318 24.6665Z" fill="white"/>
</svg>
