<svg width="49" height="48" viewBox="0 0 49 48" fill="none" xmlns="http://www.w3.org/2000/svg"><g clip-path="url(#clip0_113_5217)"><path d="M39.3335 48H9.3335C4.36259 48 0.333496 43.9709 0.333496 39V9C0.333496 4.02909 4.36259 0 9.3335 0H39.3335C44.3044 0 48.3335 4.02909 48.3335 9V39C48.3335 43.9709 44.3044 48 39.3335 48Z" fill="#F2A93F"/><path d="M24.3335 12C17.7172 12 12.3335 17.3837 12.3335 24C12.3335 30.6163 17.7172 36 24.3335 36C30.9498 36 36.3335 30.6163 36.3335 24C36.3335 17.3837 30.9498 12 24.3335 12ZM30.0409 30.2069C29.9482 30.2998 29.8381 30.3735 29.7169 30.4237C29.5957 30.4739 29.4657 30.4997 29.3345 30.4995C29.0781 30.4995 28.8229 30.4021 28.6281 30.2069L23.6285 25.2074C23.441 25.0199 23.336 24.7665 23.336 24.501V18C23.336 17.4481 23.7846 16.9995 24.3364 16.9995C24.8886 16.9995 25.3369 17.4467 25.3369 18V24.0853L30.0438 28.7926C30.431 29.1841 30.431 29.8169 30.0409 30.2069Z" fill="white"/></g><defs><clipPath id="clip0_113_5217"><rect width="48" height="48" fill="white" transform="translate(0.333496)"/></clipPath></defs></svg>