<svg width="49" height="49" viewBox="0 0 49 49" fill="none" xmlns="http://www.w3.org/2000/svg"><path d="M39.5 48.6665H9.5C7.11305 48.6665 4.82387 47.7183 3.13604 46.0305C1.44821 44.3426 0.5 42.0535 0.5 39.6665L0.5 9.6665C0.5 7.27956 1.44821 4.99037 3.13604 3.30254C4.82387 1.61472 7.11305 0.666504 9.5 0.666504L39.5 0.666504C41.8869 0.666504 44.1761 1.61472 45.864 3.30254C47.5518 4.99037 48.5 7.27956 48.5 9.6665V39.6665C48.5 42.0535 47.5518 44.3426 45.864 46.0305C44.1761 47.7183 41.8869 48.6665 39.5 48.6665Z" fill="#F6F6F6"/><path d="M30.9995 30.167C32.6564 30.167 33.9995 28.8238 33.9995 27.167C33.9995 25.5101 32.6564 24.167 30.9995 24.167C29.3427 24.167 27.9995 25.5101 27.9995 27.167C27.9995 28.8238 29.3427 30.167 30.9995 30.167Z" fill="#F2A93F"/><path d="M33.7505 31.667H28.25C27.521 31.6678 26.8221 31.9577 26.3067 32.4732C25.7912 32.9886 25.5013 33.6875 25.5005 34.4165V35.9165C25.5005 36.1154 25.5795 36.3062 25.7202 36.4468C25.8608 36.5875 26.0516 36.6665 26.2505 36.6665H35.75C35.9489 36.6665 36.1397 36.5875 36.2803 36.4468C36.421 36.3062 36.5 36.1154 36.5 35.9165V34.4165C36.4992 33.6875 36.2093 32.9886 35.6938 32.4732C35.1783 31.9577 34.4795 31.6678 33.7505 31.667Z" fill="#F2A93F"/><path d="M16.5005 31.6655C17.6048 31.6655 18.5 30.7703 18.5 29.666C18.5 28.5617 17.6048 27.6665 16.5005 27.6665C15.3962 27.6665 14.501 28.5617 14.501 29.666C14.501 30.7703 15.3962 31.6655 16.5005 31.6655Z" fill="#F2A93F"/><path d="M17.75 32.666H15.2495C14.5204 32.6672 13.8215 32.9575 13.3061 33.4732C12.7907 33.9889 12.5008 34.6879 12.5 35.417V35.9165C12.5 36.1154 12.579 36.3062 12.7197 36.4468C12.8603 36.5875 13.0511 36.6665 13.25 36.6665H19.7495C19.9484 36.6665 20.1392 36.5875 20.2798 36.4468C20.4205 36.3062 20.4995 36.1154 20.4995 35.9165V35.417C20.4987 34.6879 20.2088 33.9889 19.6934 33.4732C19.178 32.9575 18.4791 32.6672 17.75 32.666Z" fill="#F2A93F"/><path d="M24.7505 12.6665H15.2495C14.5205 12.6673 13.8216 12.9572 13.3062 13.4727C12.7907 13.9882 12.5008 14.687 12.5 15.416V22.916C12.5 24.4325 13.733 25.6655 15.2495 25.6655H20.207L23.2415 28.4675C23.3484 28.567 23.482 28.633 23.6259 28.6575C23.7698 28.682 23.9177 28.6639 24.0515 28.6054C24.1852 28.5469 24.2989 28.4506 24.3786 28.3282C24.4583 28.2059 24.5005 28.063 24.5 27.917V25.667H24.7505C25.4795 25.6662 26.1784 25.3763 26.6938 24.8608C27.2093 24.3454 27.4992 23.6465 27.5 22.9175V15.4175C27.4996 14.6883 27.2098 13.989 26.6943 13.4732C26.1788 12.9574 25.4797 12.6673 24.7505 12.6665ZM22.7495 21.167H17.249C17.0501 21.167 16.8593 21.088 16.7187 20.9473C16.578 20.8067 16.499 20.6159 16.499 20.417C16.499 20.2181 16.578 20.0273 16.7187 19.8867C16.8593 19.746 17.0501 19.667 17.249 19.667H22.7495C22.9484 19.667 23.1392 19.746 23.2798 19.8867C23.4205 20.0273 23.4995 20.2181 23.4995 20.417C23.4995 20.6159 23.4205 20.8067 23.2798 20.9473C23.1392 21.088 22.9484 21.167 22.7495 21.167ZM22.7495 17.666H17.249C17.0501 17.666 16.8593 17.587 16.7187 17.4463C16.578 17.3057 16.499 17.1149 16.499 16.916C16.499 16.7171 16.578 16.5263 16.7187 16.3857C16.8593 16.245 17.0501 16.166 17.249 16.166H22.7495C22.9484 16.166 23.1392 16.245 23.2798 16.3857C23.4205 16.5263 23.4995 16.7171 23.4995 16.916C23.4995 17.1149 23.4205 17.3057 23.2798 17.4463C23.1392 17.587 22.9484 17.666 22.7495 17.666Z" fill="#FDD270"/></svg>