<svg width="49" height="48" viewBox="0 0 49 48" fill="none" xmlns="http://www.w3.org/2000/svg">
<path d="M39.3335 48H9.3335C6.94655 48 4.65736 47.0518 2.96953 45.364C1.28171 43.6761 0.333496 41.3869 0.333496 39L0.333496 9C0.333496 6.61305 1.28171 4.32387 2.96953 2.63604C4.65736 0.948211 6.94655 0 9.3335 0L39.3335 0C41.7204 0 44.0096 0.948211 45.6975 2.63604C47.3853 4.32387 48.3335 6.61305 48.3335 9V39C48.3335 41.3869 47.3853 43.6761 45.6975 45.364C44.0096 47.0518 41.7204 48 39.3335 48Z" fill="#F2A93F"/>
<path d="M29.3359 34.0005C29.3359 32.898 30.2329 32.001 31.3354 32.001C32.4379 32.001 33.3349 32.898 33.3349 34.0005C33.3149 34.5174 33.0955 35.0065 32.7227 35.3651C32.3499 35.7237 31.8527 35.9241 31.3354 35.9241C30.8181 35.9241 30.321 35.7237 29.9482 35.3651C29.5754 35.0065 29.356 34.5174 29.3359 34.0005ZM15.3364 34.0005C15.3364 32.898 16.2334 32.001 17.3359 32.001C18.4384 32.001 19.3354 32.898 19.3354 34.0005C19.3354 35.103 18.4384 36 17.3359 36C16.2334 36 15.3364 35.103 15.3364 34.0005Z" fill="white"/>
<path d="M14.4918 34.9995H15.8943C16.0932 34.9995 16.284 34.9205 16.4246 34.7798C16.5653 34.6392 16.6443 34.4484 16.6443 34.2495C16.6443 34.0506 16.5653 33.8598 16.4246 33.7192C16.284 33.5785 16.0932 33.4995 15.8943 33.4995H14.4918C14.4421 33.4997 14.3935 33.485 14.3523 33.4571C14.3111 33.4293 14.2792 33.3897 14.2608 33.3435L13.8543 32.3325C13.8303 32.2737 13.8292 32.208 13.8511 32.1483C13.873 32.0887 13.9164 32.0393 13.9728 32.01C21.2223 28.506 28.1883 28.0335 34.6773 30.609C34.7928 30.6555 34.8573 30.792 34.8273 30.921L34.2333 33.3105C34.2196 33.3646 34.1883 33.4125 34.1443 33.4467C34.1002 33.481 34.0461 33.4996 33.9903 33.4995H32.6628C32.4639 33.4995 32.2731 33.5785 32.1325 33.7192C31.9918 33.8598 31.9128 34.0506 31.9128 34.2495C31.9128 34.4484 31.9918 34.6392 32.1325 34.7798C32.2731 34.9205 32.4639 34.9995 32.6628 34.9995H33.9903C34.7943 34.9995 35.4933 34.4535 35.6883 33.672L36.2823 31.281C36.3854 30.8676 36.3358 30.4309 36.1427 30.0511C35.9495 29.6713 35.6257 29.3741 35.2308 29.214C28.3368 26.478 20.9643 26.9625 13.3203 30.6585C12.9209 30.8532 12.6103 31.1922 12.4511 31.607C12.2918 32.0218 12.2958 32.4816 12.4623 32.8935L12.8673 33.903C13.1373 34.569 13.7733 34.9995 14.4918 34.9995Z" fill="white"/>
<path d="M18.6768 29.3595C18.6768 29.379 18.6873 29.409 18.6963 29.43L19.1358 30.5295C19.1882 30.6531 19.2722 30.7607 19.3793 30.8415C19.4865 30.9223 19.613 30.9735 19.7463 30.99L26.6463 31.86C26.7663 31.8705 26.8758 31.8795 26.9958 31.8795C27.8163 31.8795 28.5858 31.5195 29.1153 30.87L30.6348 29.0205C30.7153 28.9184 30.7704 28.7986 30.7953 28.671C26.8158 27.87 22.7763 28.1295 18.6768 29.3595Z" fill="white"/>
<path d="M35.825 13.8255L30.575 12.0405C30.4185 11.9866 30.2485 11.9866 30.092 12.0405L24.842 13.8255C24.6936 13.876 24.5647 13.9717 24.4735 14.0993C24.3822 14.2268 24.3333 14.3797 24.3335 14.5365V18.555C24.3335 23.46 29.807 25.842 30.041 25.9425C30.1337 25.9819 30.2335 26.0022 30.3342 26.0022C30.435 26.0022 30.5347 25.9819 30.6275 25.9425C30.86 25.842 36.3335 23.4585 36.3335 18.5535V14.5365C36.3337 14.3797 36.2847 14.2268 36.1935 14.0993C36.1023 13.9717 35.9734 13.876 35.825 13.8255ZM33.62 17.6175L30.8705 21.117C30.7871 21.223 30.6831 21.311 30.5648 21.3758C30.4465 21.4405 30.3163 21.4807 30.1821 21.4939C30.0478 21.5071 29.9123 21.4929 29.7837 21.4524C29.655 21.4119 29.5359 21.3458 29.4335 21.258L27.683 19.758C27.5833 19.6726 27.5014 19.5684 27.442 19.4514C27.3826 19.3344 27.3469 19.2068 27.3368 19.0759C27.3267 18.9451 27.3424 18.8135 27.3832 18.6887C27.4239 18.564 27.4889 18.4484 27.5742 18.3488C27.6596 18.2491 27.7638 18.1672 27.8809 18.1078C27.9979 18.0484 28.1255 18.0126 28.2563 18.0025C28.3872 17.9924 28.5188 18.0082 28.6435 18.049C28.7683 18.0897 28.8838 18.1546 28.9835 18.24L29.942 19.0605L32.048 16.3815C32.2119 16.1731 32.4519 16.0382 32.7152 16.0067C32.9785 15.9752 33.2435 16.0496 33.452 16.2135C33.6605 16.3774 33.7953 16.6174 33.8268 16.8807C33.8583 17.144 33.7839 17.4091 33.62 17.6175Z" fill="#FCEED9"/>
<path d="M18.7461 33.4995H29.9256V34.9995H18.7461V33.4995Z" fill="white"/>
</svg>
