<svg width="48" height="49" viewBox="0 0 48 49" fill="none" xmlns="http://www.w3.org/2000/svg"><g clip-path="url(#clip0_299_21595)"><path d="M39 48.6665H9C6.61305 48.6665 4.32387 47.7183 2.63604 46.0305C0.948211 44.3426 0 42.0535 0 39.6665L0 9.6665C0 7.27956 0.948211 4.99037 2.63604 3.30254C4.32387 1.61472 6.61305 0.666504 9 0.666504L39 0.666504C41.3869 0.666504 43.6761 1.61472 45.364 3.30254C47.0518 4.99037 48 7.27956 48 9.6665V39.6665C48 42.0535 47.0518 44.3426 45.364 46.0305C43.6761 47.7183 41.3869 48.6665 39 48.6665Z" fill="#F6F6F6"/><path d="M32.6895 27.6065C32.109 27.9665 31.56 28.247 31.0695 28.4465C30.729 28.5965 30.36 28.667 30 28.667C29.64 28.667 29.2695 28.5965 28.9305 28.4465C27.8675 27.9906 26.8718 27.3916 25.971 26.666H16.4205L17.901 23.2655C18.0615 22.9055 18.4215 22.6655 18.8115 22.6655H22.752C22.4604 22.0284 22.2522 21.3564 22.1325 20.666H18.81C17.6205 20.666 16.5405 21.3755 16.0605 22.466L14.0805 27.0155C14.07 27.035 14.0805 27.056 14.07 27.086C13.4508 27.3953 12.9294 27.8704 12.564 28.4582C12.1986 29.0461 12.0033 29.7238 12 30.416V34.166C12.0225 34.8142 12.2957 35.4283 12.7622 35.8789C13.2287 36.3295 13.8519 36.5814 14.5005 36.5814C15.1491 36.5814 15.7723 36.3295 16.2388 35.8789C16.7053 35.4283 16.9785 34.8142 17.001 34.166V33.6665H29.001V34.166C29.001 34.829 29.2644 35.4648 29.7332 35.9336C30.202 36.4024 30.8378 36.6658 31.5007 36.6658C32.1637 36.6658 32.7995 36.4024 33.2683 35.9336C33.7371 35.4648 34.0005 34.829 34.0005 34.166V30.416C34.0005 29.2865 33.4905 28.277 32.6895 27.6065ZM18 31.667H16.0005C15.45 31.667 15 31.217 15 30.6665C15 30.116 15.45 29.666 16.0005 29.666H18C18.5505 29.666 19.0005 30.116 19.0005 30.6665C19.0005 31.217 18.5505 31.667 18 31.667ZM30 31.667H28.0005C27.45 31.667 27 31.217 27 30.6665C27 30.116 27.45 29.666 28.0005 29.666H30C30.5505 29.666 31.0005 30.116 31.0005 30.6665C31.0005 31.217 30.5505 31.667 30 31.667Z" fill="#F2A93F"/><path d="M35.4915 14.492L30.2415 12.707C30.085 12.653 29.915 12.653 29.7585 12.707L24.5085 14.492C24.3601 14.5424 24.2312 14.6382 24.14 14.7657C24.0488 14.8933 23.9998 15.0462 24 15.203V19.2215C24 24.1265 29.4735 26.5085 29.7075 26.609C29.8002 26.6484 29.9 26.6687 30.0008 26.6687C30.1015 26.6687 30.2013 26.6484 30.294 26.609C30.5265 26.5085 36 24.125 36 19.22V15.203C36.0002 15.0462 35.9513 14.8933 35.86 14.7657C35.7688 14.6382 35.6399 14.5424 35.4915 14.492ZM33.2865 18.284L30.537 21.7835C30.4536 21.8894 30.3496 21.9775 30.2313 22.0422C30.113 22.107 29.9828 22.1472 29.8486 22.1603C29.7143 22.1735 29.5788 22.1594 29.4502 22.1189C29.3216 22.0783 29.2024 22.0122 29.1 21.9245L27.3495 20.4245C27.2498 20.3391 27.168 20.2349 27.1085 20.1178C27.0491 20.0008 27.0134 19.8732 27.0033 19.7424C26.9932 19.6115 27.0089 19.4799 27.0497 19.3552C27.0904 19.2304 27.1554 19.1149 27.2408 19.0152C27.3261 18.9155 27.4303 18.8337 27.5474 18.7743C27.6644 18.7148 27.792 18.6791 27.9229 18.669C28.0537 18.6589 28.1853 18.6746 28.31 18.7154C28.4348 18.7561 28.5503 18.8211 28.65 18.9065L29.6085 19.727L31.7145 17.048C31.8784 16.8395 32.1184 16.7047 32.3817 16.6732C32.645 16.6417 32.91 16.7161 33.1185 16.88C33.327 17.0439 33.4618 17.2839 33.4933 17.5472C33.5248 17.8105 33.4504 18.0755 33.2865 18.284Z" fill="#FDD270"/></g><defs><clipPath id="clip0_299_21595"><rect width="48" height="48" fill="white" transform="translate(0 0.666504)"/></clipPath></defs></svg>