<svg width="49" height="49" viewBox="0 0 49 49" fill="none" xmlns="http://www.w3.org/2000/svg">
<path d="M39.5 48.6665H9.5C7.11305 48.6665 4.82387 47.7183 3.13604 46.0305C1.44821 44.3426 0.5 42.0535 0.5 39.6665L0.5 9.6665C0.5 7.27956 1.44821 4.99037 3.13604 3.30254C4.82387 1.61472 7.11305 0.666504 9.5 0.666504L39.5 0.666504C41.8869 0.666504 44.1761 1.61472 45.864 3.30254C47.5518 4.99037 48.5 7.27956 48.5 9.6665V39.6665C48.5 42.0535 47.5518 44.3426 45.864 46.0305C44.1761 47.7183 41.8869 48.6665 39.5 48.6665Z" fill="#F6F6F6"/>
<path d="M21.5 29.666H19.25C18.9916 29.656 18.747 29.5463 18.5677 29.3599C18.3884 29.1735 18.2882 28.9249 18.2882 28.6663C18.2882 28.4076 18.3884 28.159 18.5677 27.9726C18.747 27.7862 18.9916 27.6765 19.25 27.6665H21.5V25.667H20.567C20.222 25.666 19.883 25.5762 19.5827 25.4062C19.2824 25.2362 19.0309 24.9918 18.8525 24.6965L16.727 21.1535C16.6378 21.0056 16.512 20.8832 16.3617 20.798C16.2114 20.7129 16.0417 20.668 15.869 20.6675H13.5005C13.2352 20.6675 12.9807 20.5621 12.793 20.3745C12.6054 20.1868 12.5 19.9324 12.5 19.667C12.5 19.4017 12.6054 19.1472 12.793 18.9595C12.9807 18.7719 13.2352 18.6665 13.5005 18.6665H15.8675C16.9145 18.6665 17.9 19.2245 18.4415 20.123L20.567 23.6675H21.5C22.6025 23.6675 23.4995 24.5645 23.4995 25.667V27.6665C23.4995 28.769 22.6025 29.666 21.5 29.666Z" fill="#F2A93F"/>
<path d="M17 31.667C15.6215 31.667 14.4995 30.545 14.4995 29.1665C14.4995 27.788 15.62 26.666 17 26.666C18.38 26.666 19.5005 27.788 19.5005 29.1665C19.5005 30.545 18.3785 31.667 17 31.667Z" fill="#F2A93F"/>
<path d="M14.75 29.666H13.5005C13.2353 29.666 12.9811 29.5607 12.7936 29.3732C12.6061 29.1857 12.5007 28.9314 12.5007 28.6663C12.5007 28.4011 12.6061 28.1468 12.7936 27.9593C12.9811 27.7718 13.2353 27.6665 13.5005 27.6665H14.75C15.0084 27.6765 15.253 27.7862 15.4323 27.9726C15.6116 28.159 15.7118 28.4076 15.7118 28.6663C15.7118 28.9249 15.6116 29.1735 15.4323 29.3599C15.253 29.5463 15.0084 29.656 14.75 29.666ZM15.5 24.6665H13.5005C13.2352 24.6665 12.9807 24.5611 12.793 24.3735C12.6054 24.1858 12.5 23.9314 12.5 23.666C12.5 23.4007 12.6054 23.1462 12.793 22.9585C12.9807 22.7709 13.2352 22.6655 13.5005 22.6655H15.5C15.7653 22.6655 16.0198 22.7709 16.2075 22.9585C16.3951 23.1462 16.5005 23.4007 16.5005 23.666C16.5005 23.9314 16.3951 24.1858 16.2075 24.3735C16.0198 24.5611 15.7653 24.6665 15.5 24.6665ZM27.5 29.666H29.75C30.0084 29.656 30.253 29.5463 30.4323 29.3599C30.6116 29.1735 30.7118 28.9249 30.7118 28.6663C30.7118 28.4076 30.6116 28.159 30.4323 27.9726C30.253 27.7862 30.0084 27.6765 29.75 27.6665H27.5V25.667H28.433C28.778 25.666 29.117 25.5762 29.4173 25.4062C29.7176 25.2362 29.9691 24.9918 30.1475 24.6965L32.273 21.1535C32.3622 21.0056 32.488 20.8832 32.6383 20.798C32.7886 20.7129 32.9583 20.668 33.131 20.6675H35.498C35.7633 20.6677 36.0179 20.5625 36.2057 20.375C36.3935 20.1875 36.4991 19.9331 36.4993 19.6678C36.4994 19.4024 36.3942 19.1478 36.2067 18.9601C36.0193 18.7723 35.7648 18.6667 35.4995 18.6665H33.1325C32.0855 18.6665 31.1 19.2245 30.5585 20.123L28.433 23.6675H27.5C26.3975 23.6675 25.5005 24.5645 25.5005 25.667V27.6665C25.5005 28.769 26.3975 29.666 27.5 29.666Z" fill="#F2A93F"/>
<path d="M29.4995 29.1665C29.4995 27.788 30.62 26.666 32 26.666C33.38 26.666 34.5005 27.788 34.5005 29.1665C34.5005 30.545 33.38 31.667 32 31.667C30.62 31.667 29.4995 30.545 29.4995 29.1665Z" fill="#F2A93F"/>
<path d="M34.25 29.666H35.4995C35.758 29.656 36.0025 29.5463 36.1818 29.3599C36.3611 29.1735 36.4613 28.9249 36.4613 28.6663C36.4613 28.4076 36.3611 28.159 36.1818 27.9726C36.0025 27.7863 35.758 27.6765 35.4995 27.6665H34.25C33.9916 27.6765 33.747 27.7863 33.5677 27.9726C33.3884 28.159 33.2882 28.4076 33.2882 28.6663C33.2882 28.9249 33.3884 29.1735 33.5677 29.3599C33.747 29.5463 33.9916 29.656 34.25 29.666ZM33.5 24.6665H35.4995C35.7649 24.6665 36.0193 24.5611 36.207 24.3735C36.3946 24.1859 36.5 23.9314 36.5 23.666C36.5 23.4007 36.3946 23.1462 36.207 22.9586C36.0193 22.7709 35.7649 22.6655 35.4995 22.6655H33.5C33.2347 22.6655 32.9802 22.7709 32.7926 22.9586C32.6049 23.1462 32.4995 23.4007 32.4995 23.666C32.4995 23.9314 32.6049 24.1859 32.7926 24.3735C32.9802 24.5611 33.2347 24.6665 33.5 24.6665Z" fill="#F2A93F"/>
<path d="M24.5 20.666C24.3011 20.666 24.1103 20.587 23.9697 20.4463C23.829 20.3057 23.75 20.1149 23.75 19.916V18.416C23.75 18.2171 23.829 18.0263 23.9697 17.8857C24.1103 17.745 24.3011 17.666 24.5 17.666C24.6989 17.666 24.8897 17.745 25.0303 17.8857C25.171 18.0263 25.25 18.2171 25.25 18.416V19.916C25.25 20.1149 25.171 20.3057 25.0303 20.4463C24.8897 20.587 24.6989 20.666 24.5 20.666ZM27.2495 21.6665C27.1013 21.6665 26.9564 21.6225 26.8331 21.5402C26.7099 21.4579 26.6138 21.3409 26.5569 21.204C26.5001 21.0671 26.4851 20.9164 26.5139 20.771C26.5427 20.6256 26.6139 20.492 26.7185 20.387L27.218 19.8875C27.3594 19.7509 27.5489 19.6753 27.7455 19.677C27.9422 19.6787 28.1303 19.7576 28.2694 19.8967C28.4084 20.0357 28.4873 20.2238 28.489 20.4205C28.4907 20.6171 28.4151 20.8066 28.2785 20.948L27.779 21.4475C27.7095 21.5171 27.627 21.5723 27.5361 21.6099C27.4453 21.6475 27.3478 21.6667 27.2495 21.6665ZM21.7505 21.6665C21.5515 21.6665 21.3606 21.5878 21.2195 21.4475L20.72 20.9465C20.5834 20.8051 20.5078 20.6156 20.5095 20.419C20.5112 20.2223 20.5901 20.0342 20.7291 19.8952C20.8682 19.7561 21.0563 19.6772 21.2529 19.6755C21.4496 19.6738 21.639 19.7494 21.7805 19.886L22.28 20.3855C22.3851 20.4903 22.4567 20.6239 22.4858 20.7695C22.5149 20.915 22.5001 21.0659 22.4435 21.203C22.3868 21.3402 22.2907 21.4574 22.1673 21.5399C22.044 21.6224 21.8989 21.6665 21.7505 21.6665Z" fill="#FDD270"/>
</svg>
