<svg width="48" height="48" viewBox="0 0 48 48" fill="none" xmlns="http://www.w3.org/2000/svg">
<rect width="48" height="48" rx="12" fill="#F2A93F"/>
<path d="M37.5334 15.7599H17.9334C17.6753 15.7599 17.4667 16.0012 17.4667 16.2984V22.2932C17.4667 22.4169 17.5159 22.5356 17.6034 22.6231C17.6909 22.7106 17.8096 22.7598 17.9334 22.7598H37.5334C37.6571 22.7598 37.7758 22.7106 37.8633 22.6231C37.9508 22.5356 38 22.4169 38 22.2932V16.2984C38 16.0011 37.7914 15.7599 37.5334 15.7599Z" fill="white"/>
<path d="M37.5333 27.4265C37.657 27.4264 37.7757 27.3773 37.8632 27.2898C37.9507 27.2023 37.9999 27.0836 37.9999 26.9598V24.1598C38 23.9023 37.7909 23.6932 37.5334 23.6932H32.2009C32.5135 23.8567 32.7937 24.0424 33.047 24.2458C33.6713 24.7471 34.1145 25.3417 34.4755 25.9331L36.2503 26.5248L36.2504 26.5248C36.4056 26.5765 36.5406 26.6758 36.6362 26.8085C36.7319 26.9412 36.7833 27.1006 36.7833 27.2642V27.4265H37.5333Z" fill="white"/>
<path fill-rule="evenodd" clip-rule="evenodd" d="M16.9682 27.4265C16.7221 27.712 16.5792 28.0809 16.5611 28.4664L16.5215 29.3151C16.4308 29.3151 16.3439 29.3511 16.2798 29.4152C16.2718 29.4232 16.2642 29.4316 16.2571 29.4403C16.2073 29.5011 16.1797 29.5775 16.1797 29.6568V31.024C16.1797 31.0297 16.1798 31.0353 16.1801 31.041C16.1843 31.1254 16.2197 31.2056 16.2798 31.2657C16.2878 31.2737 16.2962 31.2813 16.3049 31.2884C16.3657 31.3382 16.4422 31.3658 16.5215 31.3658H17.8887C18.0783 31.3658 18.2301 31.21 18.2304 31.0203C18.2304 31.0195 18.2305 31.0186 18.2306 31.0178C18.2307 31.0168 18.2308 31.0159 18.2308 31.0148C18.2335 30.3224 18.5302 29.6992 19.0027 29.2639C19.4288 28.8712 19.9979 28.6314 20.6231 28.6314C20.6674 28.6314 20.7114 28.6326 20.7551 28.635C22.0125 28.7034 23.0116 29.7426 23.0156 31.0162C23.0156 31.0188 23.0156 31.0214 23.0156 31.024C23.0141 31.037 23.0133 31.0496 23.0132 31.062C23.0117 31.2477 23.1674 31.3658 23.3574 31.3658H29.5098C29.6995 31.3658 29.8513 31.2099 29.8516 31.0202V31.0201C29.8516 31.0197 29.8516 31.0193 29.8516 31.0189C29.8517 31.0185 29.8517 31.0181 29.8517 31.0177C29.8518 31.0172 29.8518 31.0167 29.8519 31.0162C29.8519 31.0158 29.8519 31.0153 29.8519 31.0149V31.0147C29.857 29.6978 30.9259 28.6314 32.2442 28.6314C32.4839 28.6314 32.7154 28.6666 32.9338 28.7323C33.2757 28.835 33.5854 29.0122 33.844 29.2449C34.3307 29.6829 34.6368 30.3177 34.6368 31.0239C34.6352 31.0369 34.6344 31.0496 34.6343 31.062C34.6328 31.2477 34.7885 31.3657 34.9785 31.3657H36.3457C36.4364 31.3657 36.5233 31.3297 36.5874 31.2656C36.6514 31.2015 36.6875 31.1146 36.6875 31.024V29.6568C36.6876 29.4681 36.5345 29.315 36.3458 29.315V27.2642C36.3458 27.1925 36.3233 27.1225 36.2813 27.0643C36.2393 27.0061 36.1801 26.9625 36.112 26.9399L34.1836 26.297C33.5495 25.223 32.7079 24.1943 31.0362 23.6932C30.8083 23.6249 30.5651 23.5664 30.3049 23.5189C30.2875 23.5158 30.2701 23.5127 30.2526 23.5096L30.2403 23.5076C28.3251 23.2428 26.6343 23.3055 25.1762 23.6932C24.7672 23.8019 24.3766 23.9362 24.0044 24.0959C23.6775 24.2363 23.3649 24.3963 23.0666 24.5759C22.3392 25.0141 21.6972 25.569 21.1426 26.2402C19.6807 26.2614 18.1884 26.567 17.3107 27.1289C17.181 27.212 17.0664 27.3126 16.9682 27.4265ZM27.0672 26.1888C27.0992 26.1567 27.1173 26.1133 27.1173 26.068V24.2469C27.1173 24.1464 27.0291 24.0657 26.9289 24.0746C25.8327 24.1716 24.8583 24.4264 24 24.841C23.672 24.9994 23.361 25.1812 23.0666 25.3863C22.8252 25.5546 22.595 25.7386 22.3758 25.9384C22.2593 26.0447 22.3311 26.2389 22.489 26.2389H26.9464C26.9917 26.2389 27.0351 26.2208 27.0672 26.1888ZM31.1729 26.1893C31.2049 26.1577 31.2231 26.1147 31.2236 26.0696L31.2373 24.6081C31.238 24.5357 31.1945 24.4697 31.1265 24.4447C30.8305 24.3364 30.5052 24.2482 30.1401 24.184C29.3735 24.078 28.6522 24.0284 27.9707 24.0291C27.8764 24.0291 27.8008 24.107 27.8008 24.2017V26.0679C27.8008 26.1132 27.8189 26.1567 27.8509 26.1888C27.883 26.2208 27.9264 26.2388 27.9718 26.2388H31.0527C31.0977 26.2388 31.1409 26.221 31.1729 26.1893ZM32.0781 26.2388H33.0075C33.1496 26.2388 33.2283 26.0761 33.1428 25.9623C32.8691 25.5973 32.5618 25.2756 32.1923 25.0056C32.0785 24.9222 31.9175 24.9988 31.9161 25.14L31.9072 26.0662C31.907 26.0888 31.9113 26.1112 31.9198 26.1322C31.9282 26.1531 31.9408 26.1721 31.9567 26.1882C31.9726 26.2042 31.9915 26.217 32.0123 26.2257C32.0332 26.2344 32.0556 26.2388 32.0781 26.2388Z" fill="white"/>
<path fill-rule="evenodd" clip-rule="evenodd" d="M23.0588 24.074C22.2603 24.5211 21.551 25.0982 20.9359 25.8074C19.5011 25.8527 18.0094 26.1622 17.0748 26.7605L17.0747 26.7605C16.805 26.9333 16.5884 27.1633 16.4303 27.4265H15.6C15.6 28.456 14.7628 29.2932 13.7334 29.2932C13.0455 29.2932 12.45 28.9152 12.1261 28.3598H10.4666C10.3429 28.3598 10.2242 28.3106 10.1367 28.2231C10.0492 28.1356 10 28.0169 10 27.8932V23.2265C10.0045 23.2033 10.0089 23.1804 10.0134 23.1574L10.0134 23.1574L10.0134 23.1571L10.0134 23.1571L10.0135 23.1568C10.0202 23.1222 10.0269 23.0877 10.0336 23.0525L11.8998 18.3867C11.9345 18.3001 11.9943 18.2258 12.0716 18.1735C12.1489 18.1212 12.24 18.0932 12.3334 18.0932H16.0667C16.1905 18.0933 16.3091 18.1425 16.3966 18.23C16.4841 18.3175 16.5333 18.4361 16.5334 18.5599V23.2265C16.5334 23.3503 16.5826 23.469 16.6701 23.5565C16.7576 23.644 16.8763 23.6931 17 23.6932H22.6C22.8283 23.6932 23.0184 23.8574 23.0588 24.074ZM11.2922 22.436C11.2274 22.59 11.3403 22.7599 11.5074 22.7599H13.9667C14.0286 22.7599 14.0879 22.7353 14.1317 22.6915C14.1755 22.6478 14.2 22.5884 14.2001 22.5265V20.1932C14.2 20.1314 14.1755 20.072 14.1317 20.0283C14.0879 19.9845 14.0286 19.9599 13.9667 19.9599H12.4883C12.4424 19.9599 12.3976 19.9734 12.3594 19.9988C12.3212 20.0242 12.2913 20.0604 12.2736 20.1027L11.2922 22.436ZM12.8 27.4265C12.8 27.9413 13.2186 28.3599 13.7334 28.3599C14.2481 28.3599 14.6666 27.9413 14.6667 27.4265C14.6667 26.9118 14.2481 26.4932 13.7334 26.4932C13.2186 26.4932 12.8 26.9118 12.8 27.4265Z" fill="white"/>
<path fill-rule="evenodd" clip-rule="evenodd" d="M18.9141 31.1334C18.9141 30.191 19.6807 29.4244 20.6231 29.4244C21.5654 29.4244 22.3321 30.1911 22.3321 31.1334C22.3321 32.0758 21.5654 32.8424 20.6231 32.8424C19.6807 32.8424 18.9141 32.0757 18.9141 31.1334ZM19.5977 31.1334C19.5977 31.6987 20.0577 32.1588 20.6231 32.1588C21.1884 32.1588 21.6485 31.6987 21.6485 31.1334C21.6485 30.5681 21.1884 30.108 20.6231 30.108C20.0577 30.108 19.5977 30.5681 19.5977 31.1334Z" fill="white"/>
<path fill-rule="evenodd" clip-rule="evenodd" d="M30.5352 31.1334C30.5352 30.191 31.3019 29.4244 32.2443 29.4244C33.1866 29.4244 33.9532 30.1911 33.9533 31.1334C33.9533 32.0758 33.1866 32.8424 32.2443 32.8424C31.3019 32.8424 30.5352 32.0757 30.5352 31.1334ZM31.2189 31.1334C31.2189 31.6987 31.6789 32.1588 32.2443 32.1588C32.8096 32.1588 33.2696 31.6987 33.2696 31.1334C33.2696 30.5681 32.8096 30.108 32.2443 30.108C31.6789 30.108 31.2189 30.5681 31.2189 31.1334Z" fill="white"/>
</svg>
