<svg width="32" height="32" viewBox="0 0 32 32" fill="none" xmlns="http://www.w3.org/2000/svg">
<g clip-path="url(#clip0_303_3581)">
<path d="M26 32H6C4.4087 32 2.88258 31.3679 1.75736 30.2426C0.632141 29.1174 0 27.5913 0 26L0 6C0 4.4087 0.632141 2.88258 1.75736 1.75736C2.88258 0.632141 4.4087 0 6 0L26 0C27.5913 0 29.1174 0.632141 30.2426 1.75736C31.3679 2.88258 32 4.4087 32 6V26C32 27.5913 31.3679 29.1174 30.2426 30.2426C29.1174 31.3679 27.5913 32 26 32Z" fill="white"/>
<path d="M19.667 14.006C20.01 14.006 20.344 14.042 20.67 14.1L21.191 13.566C21.2547 13.5001 21.2991 13.4179 21.3194 13.3285C21.3396 13.2391 21.335 13.1458 21.3059 13.0589C21.2768 12.972 21.2244 12.8947 21.1544 12.8354C21.0845 12.7762 20.9996 12.7373 20.909 12.723L16.912 12.112L15.12 8.294C14.955 7.943 14.38 7.943 14.215 8.294L12.423 12.112L8.42603 12.723C8.33548 12.7373 8.25059 12.7762 8.18062 12.8354C8.11064 12.8947 8.05826 12.972 8.02917 13.0589C8.00009 13.1458 7.99542 13.2391 8.01567 13.3285C8.03592 13.4179 8.08032 13.5001 8.14403 13.566L11.051 16.546L10.364 20.759C10.349 20.8516 10.3603 20.9465 10.3966 21.0329C10.433 21.1194 10.4929 21.1939 10.5695 21.2479C10.6462 21.3019 10.7365 21.3333 10.8301 21.3384C10.9237 21.3436 11.0169 21.3223 11.099 21.277L14 19.672C14.0019 18.1697 14.5996 16.7294 15.662 15.6672C16.7244 14.605 18.1647 14.0076 19.667 14.006Z" fill="#F2A93F"/>
<path d="M19.667 15.339C17.278 15.339 15.334 17.283 15.334 19.672C15.334 22.061 17.278 24.005 19.667 24.005C22.056 24.005 24 22.062 24 19.673C24 17.284 22.056 15.339 19.667 15.339ZM21.537 18.842L19.416 21.175C19.371 21.2246 19.3165 21.2646 19.2556 21.2927C19.1948 21.3207 19.1289 21.3361 19.062 21.338H19.045C18.9156 21.3379 18.7912 21.2877 18.698 21.198L17.486 20.031C17.4386 19.9855 17.4007 19.9311 17.3744 19.871C17.3481 19.8108 17.3339 19.7461 17.3326 19.6804C17.3313 19.6148 17.3429 19.5495 17.3668 19.4883C17.3907 19.4272 17.4265 19.3713 17.472 19.324C17.5175 19.2767 17.5719 19.2387 17.632 19.2124C17.6922 19.1861 17.7569 19.1719 17.8226 19.1706C17.8882 19.1693 17.9535 19.1809 18.0147 19.2048C18.0758 19.2288 18.1316 19.2645 18.179 19.31L19.02 20.12L20.795 18.168C20.8392 18.1193 20.8927 18.0798 20.9522 18.0517C21.0117 18.0236 21.0762 18.0075 21.1419 18.0044C21.2077 18.0012 21.2734 18.011 21.3354 18.0333C21.3973 18.0555 21.4543 18.0898 21.503 18.134C21.5517 18.1783 21.5912 18.2317 21.6193 18.2912C21.6474 18.3507 21.6635 18.4152 21.6666 18.481C21.6698 18.5467 21.66 18.6124 21.6377 18.6744C21.6155 18.7363 21.5812 18.7933 21.537 18.842Z" fill="#FDD270"/>
</g>
<defs>
<clipPath id="clip0_303_3581">
<rect width="32" height="32" fill="white"/>
</clipPath>
</defs>
</svg>
