<svg width="48" height="48" viewBox="0 0 48 48" fill="none" xmlns="http://www.w3.org/2000/svg">
<g clip-path="url(#clip0_299_9568)">
<path d="M39 48H9C6.61305 48 4.32387 47.0518 2.63604 45.364C0.948211 43.6761 0 41.3869 0 39L0 9C0 6.61305 0.948211 4.32387 2.63604 2.63604C4.32387 0.948211 6.61305 0 9 0L39 0C41.3869 0 43.6761 0.948211 45.364 2.63604C47.0518 4.32387 48 6.61305 48 9V39C48 41.3869 47.0518 43.6761 45.364 45.364C43.6761 47.0518 41.3869 48 39 48Z" fill="#FABD2F"/>
<path d="M22.5 18.2505V14.025C22.416 14.0175 22.335 13.9995 22.2495 13.9995H13.7505C12.7845 13.9995 12 14.7855 12 15.75V23.25C12.0008 23.3854 12.0381 23.5181 12.1079 23.634C12.1778 23.75 12.2776 23.845 12.3969 23.909C12.5162 23.9731 12.6505 24.0037 12.7858 23.9978C12.9211 23.9919 13.0522 23.9497 13.1655 23.8755L15.675 22.209C15.8779 22.0721 16.1173 21.9995 16.362 22.0005H22.251C23.0445 22.0005 23.754 21.6585 24.2565 21.12C23.7292 20.8482 23.2865 20.437 22.9768 19.931C22.6671 19.425 22.5022 18.8437 22.5 18.2505ZM35.25 22.0005C35.1021 22.0006 34.9575 21.9567 34.8345 21.8745L32.3385 20.211C32.1336 20.0736 31.8923 20.0004 31.6455 20.001H25.7505C25.2864 20.0006 24.8413 19.816 24.5131 19.4879C24.185 19.1597 24.0004 18.7146 24 18.2505V13.7505C24 12.7845 24.7845 12 25.7505 12H34.251C35.2155 12 36 12.7845 36 13.7505V21.2505C35.9992 21.4492 35.9199 21.6395 35.7795 21.78C35.639 21.9204 35.4487 21.9997 35.25 22.0005Z" fill="white"/>
<path d="M17.5005 30C19.1573 30 20.5005 28.6569 20.5005 27C20.5005 25.3431 19.1573 24 17.5005 24C15.8436 24 14.5005 25.3431 14.5005 27C14.5005 28.6569 15.8436 30 17.5005 30Z" fill="#FFF1D2"/>
<path d="M30.4995 30C32.1564 30 33.4995 28.6569 33.4995 27C33.4995 25.3431 32.1564 24 30.4995 24C28.8427 24 27.4995 25.3431 27.4995 27C27.4995 28.6569 28.8427 30 30.4995 30Z" fill="#FFF1D2"/>
<path d="M20.25 31.0005H14.7495C14.0205 31.0013 13.3216 31.2912 12.8062 31.8067C12.2907 32.3221 12.0008 33.021 12 33.75V35.25C12 35.4489 12.079 35.6397 12.2197 35.7803C12.3603 35.921 12.5511 36 12.75 36H22.2495C22.4484 36 22.6392 35.921 22.7798 35.7803C22.9205 35.6397 22.9995 35.4489 22.9995 35.25V33.75C22.9987 33.021 22.7088 32.3221 22.1933 31.8067C21.6779 31.2912 20.979 31.0013 20.25 31.0005ZM33.2505 31.0005H27.75C27.021 31.0013 26.3221 31.2912 25.8067 31.8067C25.2912 32.3221 25.0013 33.021 25.0005 33.75V35.25C25.0005 35.4489 25.0795 35.6397 25.2202 35.7803C25.3608 35.921 25.5516 36 25.7505 36H35.25C35.4489 36 35.6397 35.921 35.7803 35.7803C35.921 35.6397 36 35.4489 36 35.25V33.75C35.9992 33.021 35.7093 32.3221 35.1938 31.8067C34.6784 31.2912 33.9795 31.0013 33.2505 31.0005Z" fill="#FFF1D2"/>
</g>
<defs>
<clipPath id="clip0_299_9568">
<rect width="48" height="48" fill="white"/>
</clipPath>
</defs>
</svg>
