<svg width="48" height="48" viewBox="0 0 48 48" fill="none" xmlns="http://www.w3.org/2000/svg"><g clip-path="url(#clip0_299_9705)"><path d="M39 48H9C6.61305 48 4.32387 47.0518 2.63604 45.364C0.948211 43.6761 0 41.3869 0 39L0 9C0 6.61305 0.948211 4.32387 2.63604 2.63604C4.32387 0.948211 6.61305 0 9 0L39 0C41.3869 0 43.6761 0.948211 45.364 2.63604C47.0518 4.32387 48 6.61305 48 9V39C48 41.3869 47.0518 43.6761 45.364 45.364C43.6761 47.0518 41.3869 48 39 48Z" fill="#FABD2F"/><path d="M28.9995 32.9971C28.8957 32.9972 28.7931 32.9757 28.698 32.9341L22.4475 30.1846C22.3145 30.1256 22.2015 30.0293 22.1222 29.9074C22.0428 29.7854 22.0006 29.6431 22.0006 29.4976C22.0006 29.3521 22.0428 29.2098 22.1222 29.0878C22.2015 28.9659 22.3145 28.8696 22.4475 28.8106L28.698 26.0611C28.7933 26.0195 28.8962 25.998 29.0003 25.998C29.1043 25.998 29.2072 26.0195 29.3025 26.0611L35.553 28.8106C35.6865 28.8692 35.8 28.9655 35.8796 29.0876C35.9592 29.2097 36.0015 29.3523 36.0014 29.4981C36.0012 29.6439 35.9586 29.7864 35.8787 29.9083C35.7988 30.0303 35.6851 30.1263 35.5515 30.1846L29.301 32.9341C29.206 32.9759 29.1033 32.9974 28.9995 32.9971Z" fill="#FFF1D2"/><path d="M29.907 34.3064C29.6222 34.4325 29.3142 34.4978 29.0027 34.4981C28.6912 34.4983 28.383 34.4335 28.098 34.3079L24 32.5049V33.1934C24 33.8039 24.3195 34.3769 24.831 34.6889C26.2725 35.5619 27.636 35.9999 28.9995 35.9999C30.363 35.9999 31.7265 35.5619 33.168 34.6889C33.4226 34.5312 33.6326 34.311 33.7781 34.0493C33.9235 33.7875 33.9996 33.4928 33.999 33.1934V32.5049L29.907 34.3064Z" fill="#FFF1D2"/><path d="M21 22.0005C18.243 22.0005 16.0005 19.758 16.0005 17.001C16.0005 14.244 18.243 12 21 12C23.757 12 25.9995 14.2425 25.9995 16.9995C25.9995 19.7565 23.757 22.0005 21 22.0005ZM19.9995 29.5005C19.9995 28.41 20.64 27.42 21.639 26.9805L27.4185 24.4305C26.8199 24.1435 26.1639 23.9963 25.5 24H16.5C14.0205 24 12 26.0205 12 28.5V32.5005C11.9994 32.5663 12.0119 32.6315 12.0368 32.6924C12.0617 32.7532 12.0985 32.8085 12.145 32.855C12.1915 32.9015 12.2468 32.9383 12.3077 32.9632C12.3685 32.9881 12.4338 33.0006 12.4995 33H21.999V32.1705L21.639 32.01C21.152 31.7955 20.7378 31.4441 20.4467 30.9986C20.1557 30.5531 20.0003 30.0327 19.9995 29.5005Z" fill="white"/></g><defs><clipPath id="clip0_299_9705"><rect width="48" height="48" fill="white"/></clipPath></defs></svg>