<svg width="48" height="48" viewBox="0 0 48 48" fill="none" xmlns="http://www.w3.org/2000/svg">
<path d="M39 48H9C6.61305 48 4.32387 47.0518 2.63604 45.364C0.948211 43.6761 0 41.3869 0 39L0 9C0 6.61305 0.948211 4.32387 2.63604 2.63604C4.32387 0.948211 6.61305 0 9 0L39 0C41.3869 0 43.6761 0.948211 45.364 2.63604C47.0518 4.32387 48 6.61305 48 9V39C48 41.3869 47.0518 43.6761 45.364 45.364C43.6761 47.0518 41.3869 48 39 48Z" fill="#FABD2F"/>
<path d="M24 18.9961C23.8962 18.9962 23.7936 18.9748 23.6985 18.9331L17.448 16.1836C17.315 16.1247 17.202 16.0284 17.1227 15.9064C17.0433 15.7845 17.0011 15.6421 17.0011 15.4966C17.0011 15.3511 17.0433 15.2088 17.1227 15.0868C17.202 14.9649 17.315 14.8686 17.448 14.8096L23.6985 12.0601C23.7938 12.0185 23.8967 11.9971 24.0007 11.9971C24.1048 11.9971 24.2077 12.0185 24.303 12.0601L30.5535 14.8096C30.6865 14.8686 30.7995 14.9649 30.8788 15.0868C30.9582 15.2088 31.0004 15.3511 31.0004 15.4966C31.0004 15.6421 30.9582 15.7845 30.8788 15.9064C30.7995 16.0284 30.6865 16.1247 30.5535 16.1836L24.303 18.9331C24.2074 18.9746 24.1042 18.9961 24 18.9961Z" fill="#FFF1D2"/>
<path d="M24.906 20.3054C24.6212 20.4315 24.3132 20.4968 24.0017 20.4971C23.6902 20.4973 23.3821 20.4326 23.097 20.3069L18.999 18.5039V19.1924C18.999 19.8029 19.3185 20.3759 19.83 20.6879C21.2715 21.5624 22.635 21.9989 23.9985 21.9989C25.362 21.9989 26.7255 21.5609 28.167 20.6879C28.4216 20.5302 28.6316 20.31 28.7771 20.0483C28.9226 19.7865 28.9986 19.4919 28.998 19.1924V18.5039L24.906 20.3054Z" fill="#FFF1D2"/>
<path d="M34.2495 15.999H32.949C32.8706 16.4352 32.6866 16.8457 32.4131 17.1944C32.1396 17.5432 31.7849 17.8198 31.38 18H34.0005V28.9995H13.9995V18H16.62C16.2153 17.8197 15.8607 17.5433 15.587 17.1949C15.3133 16.8464 15.1288 16.4364 15.0495 16.0005H13.7505C13.287 16.0021 12.8429 16.1868 12.515 16.5144C12.1871 16.8421 12.002 17.286 12 17.7495V31.2495C12 32.2095 12.7905 33 13.7505 33H21.411C21.291 33.4995 20.9805 34.3095 20.151 35.1495C20.0786 35.2168 20.029 35.305 20.0094 35.4019C19.9897 35.4988 20.001 35.5994 20.0415 35.6895C20.0783 35.7812 20.1417 35.8597 20.2235 35.915C20.3053 35.9704 20.4017 36 20.5005 36H27.501C27.7005 36 27.8805 35.88 27.9615 35.6895C28.0018 35.5993 28.0129 35.4988 27.9933 35.402C27.9736 35.3052 27.9242 35.2169 27.852 35.1495C27.0195 34.32 26.7 33.4995 26.58 33H34.2495C35.2095 33 36 32.2095 36 31.2495V17.7495C36 16.7895 35.2095 15.999 34.2495 15.999Z" fill="white"/>
</svg>
