<svg width="48" height="48" viewBox="0 0 48 48" fill="none" xmlns="http://www.w3.org/2000/svg"><g clip-path="url(#clip0_299_9518)"><path d="M39 48H9C6.61305 48 4.32387 47.0518 2.63604 45.364C0.948211 43.6761 0 41.3869 0 39L0 9C0 6.61305 0.948211 4.32387 2.63604 2.63604C4.32387 0.948211 6.61305 0 9 0L39 0C41.3869 0 43.6761 0.948211 45.364 2.63604C47.0518 4.32387 48 6.61305 48 9V39C48 41.3869 47.0518 43.6761 45.364 45.364C43.6761 47.0518 41.3869 48 39 48Z" fill="#FABD2F"/><path d="M33 13.0005H15C13.3455 13.0005 12 14.346 12 16.0005V32.001C12 33.6555 13.3455 35.001 15 35.001H33C34.6545 35.001 36 33.6555 36 32.001V16.0005C36 14.346 34.6545 13.0005 33 13.0005ZM33 33H15C14.7348 32.9996 14.4805 32.8941 14.293 32.7065C14.1054 32.519 13.9999 32.2647 13.9995 31.9995V18H33.999V31.9995C33.999 32.2646 33.8938 32.5188 33.7065 32.7064C33.5192 32.894 33.2651 32.9996 33 33Z" fill="white"/><path d="M27.441 19.9995H20.5605C20.3556 19.9995 20.1528 20.0399 19.9635 20.1183C19.7742 20.1967 19.6023 20.3116 19.4574 20.4564C19.3125 20.6013 19.1976 20.7733 19.1192 20.9625C19.0408 21.1518 19.0005 21.3546 19.0005 21.5595V29.4405C19.0005 30.3015 19.6995 31.0005 20.5605 31.0005H25.431C25.884 31.0005 26.3085 30.825 26.6295 30.504L28.503 28.629C28.818 28.314 28.9995 27.8775 28.9995 27.4305V21.561C28.9995 20.7 28.3005 19.9995 27.441 19.9995ZM26.5935 24.219L23.8155 27.501C23.745 27.5843 23.6573 27.6512 23.5583 27.697C23.4593 27.7429 23.3516 27.7666 23.2425 27.7665C22.989 27.7455 22.809 27.6675 22.6665 27.4965L21.4005 25.9815C21.2797 25.8282 21.2234 25.6339 21.2436 25.4397C21.2638 25.2456 21.3589 25.067 21.5086 24.9419C21.6584 24.8167 21.8511 24.7548 22.0457 24.7694C22.2403 24.784 22.4216 24.8739 22.551 25.02L23.2455 25.851L25.446 23.25C25.5095 23.1748 25.5871 23.1128 25.6746 23.0676C25.762 23.0224 25.8575 22.9949 25.9556 22.9867C26.0537 22.9785 26.1525 22.9897 26.2462 23.0197C26.34 23.0497 26.4269 23.0979 26.502 23.1615C26.823 23.43 26.862 23.9025 26.5935 24.219Z" fill="#FFF1D2"/></g><defs><clipPath id="clip0_299_9518"><rect width="48" height="48" fill="white"/></clipPath></defs></svg>