<svg width="38" height="38" viewBox="0 0 38 38" fill="none" xmlns="http://www.w3.org/2000/svg"><path d="M37.3667 9.81665H10.7667C10.4164 9.81665 10.1334 10.1441 10.1334 10.5475V18.6833C10.1334 18.8512 10.2002 19.0123 10.3189 19.131C10.4377 19.2498 10.5987 19.3165 10.7667 19.3166H37.3667C37.5346 19.3165 37.6957 19.2498 37.8144 19.131C37.9332 19.0123 37.9999 18.8512 38 18.6833V10.5475C38 10.144 37.7169 9.81665 37.3667 9.81665ZM37.3667 20.5833H19.6333C19.4653 20.5833 19.3043 20.6501 19.1855 20.7688C19.0668 20.8876 19 21.0486 19 21.2166V24.9691C18.9922 25.0566 19.0027 25.1448 19.0309 25.228C19.0591 25.3113 19.1043 25.3877 19.1636 25.4525C19.2229 25.5174 19.2951 25.5691 19.3755 25.6045C19.456 25.6399 19.5429 25.6582 19.6308 25.6581H19.6314L21.534 25.6562C21.5371 27.0502 22.6714 28.1832 24.0667 28.1832C25.4638 28.1832 26.6 27.047 26.6 25.6499H30.4C30.4 27.0471 31.5362 28.1832 32.9333 28.1832C34.3305 28.1832 35.4666 27.047 35.4666 25.6499H37.3666C37.5345 25.6498 37.6956 25.5831 37.8143 25.4643C37.9331 25.3456 37.9998 25.1845 37.9999 25.0166V21.2166C38 20.867 37.7162 20.5833 37.3667 20.5833ZM24.0667 26.9167C23.3681 26.9167 22.8 26.3486 22.8 25.65C22.8 24.9514 23.368 24.3833 24.0667 24.3833C24.7652 24.3833 25.3334 24.9513 25.3334 25.65C25.3333 26.3485 24.7652 26.9167 24.0667 26.9167ZM32.9333 26.9167C32.2347 26.9167 31.6666 26.3486 31.6666 25.65C31.6666 24.9514 32.2347 24.3833 32.9333 24.3833C33.6318 24.3833 34.2 24.9513 34.2 25.65C34.2 26.3485 33.6319 26.9167 32.9333 26.9167Z" fill="white"/><path d="M17.1 20.5833H9.5C9.33205 20.5833 9.171 20.5165 9.05225 20.3978C8.93349 20.279 8.86675 20.118 8.86669 19.95V13.6167C8.86663 13.4488 8.79989 13.2877 8.68113 13.169C8.56238 13.0502 8.40133 12.9835 8.23338 12.9834H3.16669C3.04005 12.9834 2.91631 13.0214 2.81145 13.0924C2.70658 13.1634 2.62539 13.2641 2.57836 13.3817L0.0455703 19.7138C0.0304297 19.7936 0.0152148 19.8708 0 19.95V26.2833C5.90146e-05 26.4513 0.0668013 26.6123 0.185557 26.7311C0.304313 26.8498 0.465363 26.9166 0.633309 26.9166H2.88548C3.325 27.6703 4.13317 28.1833 5.06669 28.1833C6.46386 28.1833 7.6 27.0471 7.6 25.65H10.1333C10.1333 27.0472 11.2695 28.1833 12.6666 28.1833C14.0637 28.1833 15.2 27.0472 15.2 25.65H17.1C17.2679 25.65 17.429 25.5832 17.5478 25.4645C17.6665 25.3457 17.7332 25.1847 17.7333 25.0167V21.2167C17.7333 20.8671 17.4496 20.5833 17.1 20.5833ZM2.04569 19.3167C1.81895 19.3167 1.66569 19.0862 1.75371 18.8772L3.08564 15.7105C3.10969 15.6531 3.15017 15.604 3.202 15.5696C3.25383 15.5351 3.3147 15.5167 3.37695 15.5167H5.38338C5.46737 15.5167 5.54791 15.5501 5.6073 15.6095C5.66668 15.6689 5.70005 15.7494 5.70007 15.8334V19C5.70005 19.084 5.66668 19.1645 5.6073 19.2239C5.54791 19.2833 5.46737 19.3167 5.38338 19.3167H2.04569ZM5.06669 26.9167C4.36814 26.9167 3.8 26.3486 3.8 25.65C3.8 24.9515 4.36807 24.3833 5.06669 24.3833C5.76524 24.3833 6.33338 24.9514 6.33338 25.65C6.33331 26.3486 5.76524 26.9167 5.06669 26.9167ZM12.6667 26.9167C11.9681 26.9167 11.4 26.3486 11.4 25.65C11.4 24.9515 11.9681 24.3833 12.6667 24.3833C13.3652 24.3833 13.9334 24.9514 13.9334 25.65C13.9333 26.3486 13.3652 26.9167 12.6667 26.9167Z" fill="white"/></svg>