<svg width="38" height="38" viewBox="0 0 38 38" fill="none" xmlns="http://www.w3.org/2000/svg">
<path d="M8.23334 21.3625C6.48727 21.3625 5.06665 22.7831 5.06665 24.5292C5.06665 26.2753 6.4872 27.6959 8.23334 27.6959C9.97941 27.6959 11.4 26.2754 11.4 24.5292C11.4 22.7832 9.97949 21.3625 8.23334 21.3625ZM8.23334 26.4292C7.18582 26.4292 6.33334 25.5768 6.33334 24.5292C6.33334 23.4817 7.18582 22.6292 8.23334 22.6292C9.28087 22.6292 10.1333 23.4817 10.1333 24.5292C10.1333 25.5768 9.28087 26.4292 8.23334 26.4292Z" fill="white"/>
<path d="M37.3667 21.3626V17.5626C37.3667 17.4297 37.3249 17.3 37.2471 17.1922C37.1694 17.0843 37.0596 17.0036 36.9335 16.9616L33.3602 15.7703C32.0144 13.491 30.1644 11.3218 26.0762 10.6055L26.0535 10.6017C18.5035 9.55799 12.8352 11.261 9.196 15.6652C6.48724 15.7045 3.72207 16.2707 2.09571 17.3119C1.25341 17.8515 0.753691 18.7907 0.706785 19.7902L0.633309 21.3627C0.465363 21.3628 0.304313 21.4295 0.185557 21.5483C0.0668013 21.667 5.90146e-05 21.8281 0 21.996L0 24.5293C5.90146e-05 24.6973 0.0668013 24.8583 0.185557 24.9771C0.304313 25.0958 0.465363 25.1626 0.633309 25.1626H3.16662C3.51812 25.1626 3.79933 24.8738 3.79993 24.5223C3.79993 24.5192 3.80059 24.516 3.80059 24.5122C3.81009 22.0719 5.79055 20.0959 8.23331 20.0959C10.6818 20.0959 12.6666 22.0808 12.6666 24.5292C12.621 24.9137 12.9244 25.1626 13.2999 25.1626H24.6999C25.0514 25.1626 25.3326 24.8738 25.3332 24.5223C25.3332 24.5191 25.3338 24.516 25.3338 24.5121C25.3433 22.0719 27.3238 20.0959 29.7665 20.0959C32.215 20.0959 34.1999 22.0807 34.1999 24.5292C34.1543 24.9136 34.4576 25.1625 34.8332 25.1625H37.3665C37.5344 25.1624 37.6955 25.0957 37.8142 24.9769C37.933 24.8582 37.9997 24.6971 37.9998 24.5292V21.9959C38 21.6464 37.7163 21.3626 37.3667 21.3626ZM20.2667 15.346C20.2667 15.43 20.2333 15.5105 20.1739 15.5699C20.1145 15.6293 20.034 15.6627 19.95 15.6627H11.6907C11.3981 15.6627 11.2651 15.303 11.481 15.106C13.6787 13.1027 16.4736 11.957 19.9177 11.6524C20.1033 11.636 20.2667 11.7854 20.2667 11.9717V15.346ZM27.8755 15.3491C27.8746 15.4325 27.8408 15.5122 27.7816 15.5709C27.7223 15.6296 27.6423 15.6626 27.5588 15.6626H21.85C21.766 15.6626 21.6855 15.6292 21.6261 15.5698C21.5667 15.5105 21.5333 15.4299 21.5333 15.3459V11.8879C21.5333 11.7125 21.6733 11.5681 21.8481 11.5681C23.1109 11.5669 24.4473 11.6587 25.8678 11.8551C26.5443 11.9741 27.1471 12.1375 27.6956 12.3383C27.8216 12.3845 27.9021 12.5068 27.9008 12.641L27.8755 15.3491ZM31.1809 15.6626H29.4589C29.4171 15.6626 29.3756 15.6543 29.337 15.6382C29.2984 15.6221 29.2633 15.5985 29.2339 15.5688C29.2044 15.539 29.1812 15.5038 29.1654 15.465C29.1497 15.4262 29.1418 15.3847 29.1422 15.3428L29.1587 13.6265C29.1612 13.365 29.4595 13.2231 29.6704 13.3776C30.3551 13.8779 30.9244 14.4739 31.4317 15.1503C31.59 15.3612 31.4443 15.6626 31.1809 15.6626Z" fill="white"/>
<path d="M29.7667 21.3625C28.0206 21.3625 26.6 22.7831 26.6 24.5292C26.6 26.2753 28.0205 27.6959 29.7667 27.6959C31.5127 27.6959 32.9334 26.2754 32.9334 24.5292C32.9333 22.7832 31.5127 21.3625 29.7667 21.3625ZM29.7667 26.4292C28.7191 26.4292 27.8667 25.5768 27.8667 24.5292C27.8667 23.4817 28.7191 22.6292 29.7667 22.6292C30.8142 22.6292 31.6667 23.4817 31.6667 24.5292C31.6667 25.5768 30.8142 26.4292 29.7667 26.4292Z" fill="white"/>
</svg>
