<svg width="38" height="38" viewBox="0 0 38 38" fill="none" xmlns="http://www.w3.org/2000/svg"><path d="M10.1125 13.0978H23.0777V19.2946H10.1125V13.0978Z" fill="white"/><path d="M0.929504 18.4157C0.929504 18.058 1.20923 17.7615 1.56623 17.7405L3.70558 17.6152C3.74306 17.6129 3.77913 17.6049 3.81305 17.5922H7.61194C7.71036 17.5922 7.80475 17.5531 7.87434 17.4835C7.94393 17.4139 7.98303 17.3195 7.98303 17.2211V15.4685C7.98303 14.8606 7.48844 14.3661 6.88059 14.3661H5.02771C5.17171 14.2433 5.35466 14.1756 5.54391 14.1752H9.37033V22.6086H7.11304C6.9318 21.3143 5.818 20.3149 4.47456 20.3149C3.13113 20.3149 2.01733 21.3143 1.83609 22.6086H0.929504V18.4157Z" fill="white"/><path d="M4.67562 15.1082H6.88059C6.9761 15.1083 7.06766 15.1463 7.1352 15.2139C7.20273 15.2814 7.24073 15.373 7.24084 15.4685V16.8499H4.18155L4.67562 15.1082Z" fill="white"/><path d="M10.1125 20.0368H23.0777V21.2393H20.0514C19.5624 20.6737 18.8405 20.3147 18.036 20.3147C17.2314 20.3147 16.5095 20.6737 16.0205 21.2393H10.1125V20.0368Z" fill="white"/><path d="M10.1125 21.9815H15.5658C15.4841 22.1828 15.4276 22.3934 15.3976 22.6085H10.1126L10.1125 21.9815Z" fill="white"/><path d="M24.1053 13.0978H37.0704V19.2946H24.1053V13.0978Z" fill="white"/><path d="M24.1053 20.0368H37.0704V21.2393H36.1522C35.6632 20.6737 34.9414 20.3147 34.1368 20.3147C33.3321 20.3147 32.6103 20.6737 32.1213 21.2393H29.6483C29.1593 20.6737 28.4374 20.3147 27.6328 20.3147C26.8282 20.3147 26.1064 20.6737 25.6173 21.2393H24.1053V20.0368Z" fill="white"/><path d="M22.484 22.6085H20.6744C20.6443 22.3934 20.5878 22.1828 20.5061 21.9815H22.484V22.6085Z" fill="white"/><path d="M24.699 21.9815H25.1626C25.0809 22.1828 25.0244 22.3934 24.9943 22.6085H24.699V21.9815Z" fill="white"/><path d="M31.4984 22.6085H30.2712C30.2411 22.3934 30.1846 22.1828 30.103 21.9815H31.6666C31.5849 22.1828 31.5284 22.3934 31.4984 22.6085Z" fill="white"/><path d="M37.0705 22.6085H36.7752C36.7451 22.3934 36.6886 22.1828 36.607 21.9815H37.0705V22.6085Z" fill="white"/><path d="M23.0777 19.2946H10.1125V20.0368H23.0777V19.2946Z" fill="white"/><path d="M37.0704 19.2946H24.1053L24.1053 20.0368H37.0704V19.2946Z" fill="white"/><path d="M24.699 22.6085V21.9815H22.484V22.6085H24.699Z" fill="white"/><path d="M4.42674 20.8555C3.25437 20.8555 2.30078 21.8044 2.30078 22.9707C2.30078 24.137 3.2545 25.0859 4.42674 25.0859C5.59898 25.0859 6.55257 24.137 6.55257 22.9707C6.55257 21.8044 5.59898 20.8555 4.42674 20.8555ZM4.42674 23.7802C3.97816 23.7802 3.61318 23.417 3.61318 22.9707C3.61318 22.5244 3.97816 22.1612 4.42674 22.1612C4.87532 22.1612 5.24017 22.5244 5.24017 22.9707C5.24017 23.417 4.87532 23.7802 4.42674 23.7802ZM18.0166 20.8555C16.8442 20.8555 15.8906 21.8044 15.8906 22.9707C15.8906 24.137 16.8444 25.0859 18.0166 25.0859C19.1888 25.0859 20.1424 24.137 20.1424 22.9707C20.1424 21.8044 19.1887 20.8555 18.0166 20.8555ZM18.0166 23.7802C17.568 23.7802 17.203 23.417 17.203 22.9707C17.203 22.5244 17.568 22.1612 18.0166 22.1612C18.4652 22.1612 18.83 22.5244 18.83 22.9707C18.83 23.417 18.4652 23.7802 18.0166 23.7802ZM27.6388 20.8555C26.4665 20.8555 25.5129 21.8044 25.5129 22.9707C25.5129 24.137 26.4666 25.0859 27.6388 25.0859C28.8111 25.0859 29.7647 24.137 29.7647 22.9707C29.7647 21.8044 28.8111 20.8555 27.6388 20.8555ZM27.6388 23.7802C27.1902 23.7802 26.8253 23.417 26.8253 22.9707C26.8253 22.5244 27.1902 22.1612 27.6388 22.1612C28.0874 22.1612 28.4522 22.5244 28.4522 22.9707C28.4522 23.417 28.0874 23.7802 27.6388 23.7802ZM34.1671 20.8555C32.9948 20.8555 32.0412 21.8044 32.0412 22.9707C32.0412 24.137 32.9949 25.0859 34.1671 25.0859C35.3394 25.0859 36.293 24.137 36.293 22.9707C36.293 21.8044 35.3394 20.8555 34.1671 20.8555ZM34.1671 23.7802C33.7186 23.7802 33.3536 23.417 33.3536 22.9707C33.3536 22.5244 33.7186 22.1612 34.1671 22.1612C34.6157 22.1612 34.9806 22.5244 34.9806 22.9707C34.9806 23.417 34.6157 23.7802 34.1671 23.7802Z" fill="white"/></svg>