<svg width="38" height="38" viewBox="0 0 38 38" fill="none" xmlns="http://www.w3.org/2000/svg"><g clip-path="url(#clip0_1536_198)"><path d="M5.70012 18.6833C6.58235 18.6833 7.41516 18.8911 8.16187 19.2501L10.4906 15.5242C9.9213 15.0435 8.82368 14.3 7.40314 14.2195C5.91861 14.1385 4.43469 14.7781 2.96093 16.1246C2.83684 16.2378 2.67288 16.2971 2.50508 16.2895C2.33728 16.2819 2.17936 16.208 2.066 16.084C1.83043 15.8256 1.84817 15.4253 2.10593 15.1891C3.84821 13.5976 5.66523 12.8464 7.49175 12.9559C9.15996 13.0554 10.4405 13.8515 11.1695 14.4373L14.663 8.8475C14.7199 8.75645 14.7991 8.68136 14.893 8.62929C14.987 8.57722 15.0926 8.54987 15.2 8.54981H16.4667C16.4667 8.46664 16.483 8.38427 16.5149 8.30742C16.5467 8.23057 16.5933 8.16074 16.6521 8.10193C16.711 8.04312 16.7808 7.99647 16.8576 7.96465C16.9345 7.93284 17.0168 7.91647 17.1 7.9165C17.1832 7.91647 17.2656 7.93284 17.3424 7.96465C17.4193 7.99647 17.4891 8.04312 17.5479 8.10193C17.6067 8.16074 17.6534 8.23057 17.6852 8.30742C17.717 8.38427 17.7334 8.46664 17.7333 8.54981H18.3666C18.4498 8.54978 18.5322 8.56614 18.609 8.59796C18.6859 8.62978 18.7557 8.67642 18.8145 8.73524C18.8733 8.79405 18.92 8.86388 18.9518 8.94073C18.9836 9.01758 19 9.09994 18.9999 9.18312C19 9.26629 18.9836 9.34866 18.9518 9.42551C18.92 9.50236 18.8733 9.57219 18.8145 9.631C18.7557 9.68981 18.6859 9.73646 18.609 9.76828C18.5322 9.80009 18.4498 9.81646 18.3666 9.81643H17.7333C17.7334 9.8996 17.717 9.98197 17.6852 10.0588C17.6534 10.1357 17.6067 10.2055 17.5479 10.2643C17.4891 10.3231 17.4193 10.3698 17.3424 10.4016C17.2656 10.4334 17.1832 10.4498 17.1 10.4497C17.0168 10.4498 16.9345 10.4334 16.8576 10.4016C16.7808 10.3698 16.711 10.3231 16.6521 10.2643C16.5933 10.2055 16.5467 10.1357 16.5149 10.0588C16.483 9.98197 16.4667 9.8996 16.4667 9.81643H15.5515L14.5185 11.4694L14.8884 12.2085L16.2671 11.7487C16.3759 11.7118 16.4928 11.7059 16.6047 11.7316L22.2109 12.9774L37.3141 11.7186C37.5852 11.6958 37.829 11.8427 37.9411 12.0834C37.9958 12.2011 38.013 12.3327 37.9903 12.4605C37.9677 12.5883 37.9063 12.7061 37.8144 12.7978L35.2811 15.3311C35.2223 15.3899 35.1525 15.4366 35.0757 15.4684C34.9989 15.5003 34.9165 15.5167 34.8334 15.5166H33.9581L34.1329 15.8669C34.1748 15.9506 34.1976 16.0426 34.1997 16.1363C34.2018 16.2299 34.1831 16.3228 34.1449 16.4084C34.1066 16.4939 34.0498 16.5699 33.9786 16.6309C33.9074 16.6919 33.8236 16.7364 33.7332 16.7611L27.0794 18.5756L25.5632 22.6182L26.821 22.8278C27.5 20.4396 29.6963 18.6833 32.3 18.6833C35.4432 18.6833 38 21.2407 38 24.3833C38 27.5259 35.4432 30.0833 32.3 30.0833C29.1568 30.0833 26.6 27.5259 26.6 24.3833C26.6 24.2801 26.6102 24.18 26.6152 24.0781L24.6475 23.75H15.8334C15.6958 23.7499 15.5619 23.7051 15.452 23.6223C15.3421 23.5394 15.2621 23.4231 15.2241 23.2908L14.0024 19.0152L11.4184 16.4286L9.23596 19.9208C10.552 20.9658 11.4 22.5764 11.4 24.3833C11.4 27.5259 8.84327 30.0833 5.70004 30.0833C2.55681 30.0833 5.34058e-05 27.5259 5.34058e-05 24.3833C5.34058e-05 21.2407 2.55688 18.6833 5.70012 18.6833ZM32.3001 28.8166C34.7441 28.8166 36.7334 26.8279 36.7334 24.3833C36.7334 21.9387 34.7441 19.95 32.3001 19.95C30.3247 19.95 28.6483 21.249 28.077 23.0375L32.404 23.7588C32.4867 23.7717 32.566 23.8008 32.6374 23.8445C32.7088 23.8882 32.7708 23.9457 32.8199 24.0135C32.8689 24.0813 32.904 24.1582 32.9231 24.2397C32.9423 24.3212 32.945 24.4057 32.9313 24.4883C32.9176 24.5708 32.8876 24.6499 32.8431 24.7208C32.7987 24.7917 32.7406 24.8531 32.6722 24.9014C32.6039 24.9497 32.5266 24.984 32.4449 25.0023C32.3632 25.0205 32.2787 25.0224 32.1963 25.0078L27.8719 24.2871C27.8706 24.3193 27.8668 24.351 27.8668 24.3833C27.8668 26.828 29.8554 28.8166 32.3001 28.8166ZM5.70012 28.8166C8.14413 28.8166 10.1334 26.8279 10.1334 24.3833C10.1334 23.0286 9.52096 21.8158 8.5602 21.002L6.23716 24.719C6.11745 24.9115 5.91038 25.0167 5.69945 25.0167C5.58095 25.0167 5.46483 24.9834 5.36443 24.9204C5.29394 24.8763 5.23283 24.8187 5.1846 24.751C5.13636 24.6833 5.10194 24.6067 5.08329 24.5256C5.06465 24.4446 5.06216 24.3607 5.07595 24.2787C5.08973 24.1967 5.11954 24.1182 5.16367 24.0477L7.48738 20.3294C6.93957 20.0875 6.33595 19.9501 5.70012 19.9501C3.2561 19.9501 1.26682 21.9388 1.26682 24.3834C1.26682 26.828 3.25543 28.8166 5.70012 28.8166Z" fill="white"/></g><defs><clipPath id="clip0_1536_198"><rect width="38" height="38" fill="white"/></clipPath></defs></svg>