<svg width="38" height="38" viewBox="0 0 38 38" fill="none" xmlns="http://www.w3.org/2000/svg"><path d="M37.3667 7.81689H10.7667C10.4165 7.81689 10.1334 8.14435 10.1334 8.54773V16.6835C10.1334 16.8515 10.2002 17.0125 10.3189 17.1313C10.4377 17.25 10.5987 17.3168 10.7667 17.3168H37.3667C37.5346 17.3168 37.6957 17.25 37.8144 17.1313C37.9332 17.0125 37.9999 16.8515 38 16.6835V8.54773C38 8.14427 37.7169 7.81689 37.3667 7.81689Z" fill="white"/><path d="M37.3666 23.6501C37.5346 23.6501 37.6956 23.5833 37.8144 23.4646C37.9331 23.3458 37.9999 23.1848 37.9999 23.0168V19.2168C38 18.8672 37.7163 18.5835 37.3667 18.5835H30.1297C30.5541 18.8055 30.9343 19.0575 31.2781 19.3335C32.1253 20.0138 32.7268 20.8208 33.2167 21.6234L35.6254 22.4264L35.6256 22.4265C35.8362 22.4966 36.0194 22.6313 36.1492 22.8114C36.279 22.9915 36.3488 23.2079 36.3488 23.4299V23.6501H37.3666Z" fill="white"/><path fill-rule="evenodd" clip-rule="evenodd" d="M9.45684 23.6502C9.12292 24.0376 8.92894 24.5382 8.90439 25.0614L8.85057 26.2132C8.72756 26.2132 8.6096 26.2621 8.52262 26.3491C8.51175 26.36 8.50148 26.3713 8.49181 26.3831C8.42419 26.4657 8.38676 26.5694 8.38672 26.6771V28.5325C8.38672 28.5402 8.38691 28.5479 8.3873 28.5555C8.39302 28.6701 8.44108 28.7789 8.52262 28.8605C8.5335 28.8713 8.54485 28.8816 8.55664 28.8913C8.63917 28.9589 8.74294 28.9963 8.85057 28.9964H10.706C10.9635 28.9964 11.1694 28.7849 11.1699 28.5274C11.1699 28.5263 11.17 28.5252 11.1701 28.524C11.1702 28.5227 11.1704 28.5214 11.1704 28.52C11.174 27.5802 11.5767 26.7345 12.2179 26.1437C12.7962 25.6109 13.5685 25.2854 14.417 25.2854C14.4771 25.2854 14.5369 25.287 14.5962 25.2902C16.3027 25.383 17.6585 26.7935 17.6641 28.5219C17.6641 28.5254 17.6641 28.5289 17.6641 28.5325C17.662 28.5501 17.6609 28.5673 17.6608 28.5841C17.6587 28.8361 17.8701 28.9963 18.1279 28.9963H26.4776C26.735 28.9963 26.941 28.7848 26.9414 28.5274V28.5272C26.9415 28.5266 26.9415 28.5261 26.9415 28.5255C26.9416 28.525 26.9416 28.5245 26.9416 28.524C26.9417 28.5233 26.9418 28.5226 26.9418 28.5218C26.9419 28.5213 26.9419 28.5207 26.9419 28.5202V28.5199C26.9488 26.7326 28.3994 25.2853 30.1885 25.2853C30.5139 25.2853 30.8281 25.3332 31.1245 25.4223C31.5885 25.5617 32.0087 25.8021 32.3598 26.118C33.0203 26.7124 33.4356 27.5739 33.4356 28.5324C33.4335 28.55 33.4324 28.5672 33.4323 28.584C33.4302 28.8361 33.6416 28.9963 33.8994 28.9963H35.7549C35.8779 28.9962 35.9959 28.9473 36.0828 28.8604C36.1698 28.7734 36.2187 28.6554 36.2188 28.5324V26.6769C36.2189 26.421 36.0111 26.2131 35.7551 26.2131V23.4299C35.7551 23.3325 35.7244 23.2376 35.6675 23.1586C35.6105 23.0796 35.5302 23.0205 35.4378 22.9897L32.8206 22.1172C31.96 20.6596 30.8179 19.2636 28.5491 18.5835C28.2399 18.4908 27.9098 18.4115 27.5566 18.347C27.533 18.3427 27.5094 18.3385 27.4856 18.3344L27.469 18.3316C24.8698 17.9723 22.5752 18.0574 20.5962 18.5835C20.0412 18.7311 19.5111 18.9133 19.006 19.1301C18.5624 19.3206 18.1381 19.5377 17.7333 19.7815C16.746 20.3761 15.8748 21.1293 15.1221 22.0402C13.1381 22.069 11.1129 22.4837 9.92167 23.2463C9.74569 23.359 9.59011 23.4956 9.45684 23.6502ZM23.1626 21.9704C23.2061 21.9269 23.2306 21.8679 23.2306 21.8064V19.335C23.2306 19.1986 23.1109 19.0891 22.975 19.1012C21.4872 19.2327 20.1648 19.5786 19 20.1413C18.5549 20.3563 18.1328 20.6029 17.7333 20.8814C17.4057 21.1097 17.0932 21.3594 16.7957 21.6306C16.6376 21.7749 16.735 22.0384 16.9493 22.0384H22.9986C23.0601 22.0384 23.1191 22.0139 23.1626 21.9704ZM28.7347 21.9711C28.7781 21.9282 28.8028 21.8698 28.8035 21.8087L28.822 19.8252C28.8229 19.7269 28.764 19.6374 28.6717 19.6035C28.27 19.4564 27.8284 19.3367 27.333 19.2496C26.2926 19.1057 25.3137 19.0385 24.3888 19.0394C24.2608 19.0394 24.1583 19.1451 24.1583 19.2736V21.8064C24.1583 21.8679 24.1827 21.9269 24.2262 21.9704C24.2697 22.0139 24.3287 22.0383 24.3902 22.0383H28.5715C28.6326 22.0383 28.6912 22.0141 28.7347 21.9711ZM29.9632 22.0383H31.2245C31.4174 22.0383 31.5241 21.8175 31.4081 21.6631C31.0366 21.1676 30.6196 20.7311 30.1181 20.3647C29.9636 20.2515 29.7452 20.3554 29.7433 20.547L29.7312 21.8041C29.7309 21.8347 29.7367 21.8651 29.7482 21.8935C29.7598 21.922 29.7768 21.9478 29.7984 21.9696C29.8199 21.9914 29.8456 22.0086 29.8739 22.0204C29.9022 22.0322 29.9325 22.0383 29.9632 22.0383Z" fill="white"/><path fill-rule="evenodd" clip-rule="evenodd" d="M17.7226 19.1004C16.639 19.7071 15.6764 20.4903 14.8415 21.4528C12.8944 21.5143 10.8699 21.9343 9.60154 22.7463L9.60141 22.7463C9.23533 22.9808 8.94141 23.2929 8.72684 23.6502H7.6C7.6 25.0473 6.46386 26.1835 5.06669 26.1835C4.13317 26.1835 3.325 25.6705 2.88548 24.9168H0.633309C0.465363 24.9168 0.304313 24.85 0.185557 24.7313C0.0668013 24.6125 5.90146e-05 24.4515 0 24.2835V17.9502C0.00604744 17.9187 0.0120949 17.8876 0.0181376 17.8564L0.0181564 17.8563L0.0182134 17.856L0.0182333 17.8559L0.0182923 17.8556C0.027401 17.8087 0.036499 17.7618 0.0455703 17.714L2.57836 11.3819C2.62539 11.2643 2.70658 11.1635 2.81145 11.0925C2.91631 11.0215 3.04005 10.9836 3.16669 10.9836H8.23338C8.40133 10.9836 8.56238 11.0504 8.68113 11.1691C8.79989 11.2879 8.86663 11.4489 8.86669 11.6169V17.9502C8.86675 18.1181 8.93349 18.2792 9.05225 18.398C9.171 18.5167 9.33205 18.5835 9.5 18.5835H17.1C17.4098 18.5835 17.6679 18.8063 17.7226 19.1004ZM1.75371 16.8774C1.66569 17.0864 1.81895 17.3169 2.04569 17.3169H5.38338C5.46737 17.3169 5.54791 17.2835 5.6073 17.2241C5.66668 17.1647 5.70005 17.0842 5.70007 17.0002V13.8336C5.70005 13.7496 5.66668 13.6691 5.6073 13.6097C5.54791 13.5503 5.46737 13.5169 5.38338 13.5169H3.37695C3.3147 13.5169 3.25383 13.5353 3.202 13.5697C3.15017 13.6042 3.10969 13.6533 3.08564 13.7107L1.75371 16.8774ZM3.8 23.6502C3.8 24.3488 4.36814 24.9169 5.06669 24.9169C5.76524 24.9169 6.33331 24.3488 6.33338 23.6502C6.33338 22.9516 5.76524 22.3835 5.06669 22.3835C4.36807 22.3835 3.8 22.9517 3.8 23.6502Z" fill="white"/><path fill-rule="evenodd" clip-rule="evenodd" d="M12.0976 28.681C12.0976 27.402 13.1381 26.3616 14.417 26.3616C15.6959 26.3616 16.7364 27.4021 16.7364 28.681C16.7364 29.9599 15.6959 31.0003 14.417 31.0003C13.1381 31.0003 12.0976 29.9598 12.0976 28.681ZM13.0254 28.681C13.0254 29.4482 13.6498 30.0726 14.417 30.0726C15.1842 30.0726 15.8086 29.4482 15.8086 28.681C15.8086 27.9137 15.1842 27.2893 14.417 27.2893C13.6498 27.2893 13.0254 27.9137 13.0254 28.681Z" fill="white"/><path fill-rule="evenodd" clip-rule="evenodd" d="M27.8693 28.681C27.8693 27.402 28.9098 26.3616 30.1886 26.3616C31.4675 26.3616 32.5079 27.4021 32.508 28.681C32.508 29.9599 31.4675 31.0003 30.1886 31.0003C28.9097 31.0003 27.8693 29.9598 27.8693 28.681ZM28.797 28.681C28.797 29.4482 29.4214 30.0726 30.1886 30.0726C30.9559 30.0726 31.5802 29.4482 31.5802 28.681C31.5802 27.9137 30.9559 27.2893 30.1886 27.2893C29.4214 27.2893 28.797 27.9137 28.797 28.681Z" fill="white"/></svg>