<svg width="38" height="38" viewBox="0 0 38 38" fill="none" xmlns="http://www.w3.org/2000/svg"><g clip-path="url(#clip0_1536_765)"><path d="M37.3667 11.4H1.9C1.73205 11.4001 1.571 11.4668 1.45225 11.5856C1.33349 11.7043 1.26675 11.8654 1.26669 12.0333V18.7378L0.185547 19.819C0.126712 19.8777 0.0800418 19.9475 0.0482042 20.0244C0.0163665 20.1012 -1.38068e-05 20.1835 8.73203e-09 20.2667V24.7C5.90234e-05 24.868 0.0668013 25.029 0.185557 25.1478C0.304313 25.2665 0.465363 25.3333 0.633309 25.3333H9.21879C9.65831 26.087 10.4665 26.6 11.4 26.6C12.3335 26.6 13.1417 26.087 13.5812 25.3333H26.3195C26.759 26.087 27.5671 26.6 28.5007 26.6C29.4526 26.6 30.2734 26.0661 30.7059 25.2884L37.4801 24.0565C37.626 24.0299 37.7579 23.9529 37.8529 23.839C37.9479 23.7252 38 23.5816 38.0001 23.4333V12.0333C38 11.6838 37.7163 11.4 37.3667 11.4ZM6.96669 21.85C6.96667 21.934 6.9333 22.0146 6.87391 22.0739C6.81453 22.1333 6.73399 22.1667 6.65 22.1667H4.11669C4.03271 22.1667 3.95217 22.1333 3.89278 22.0739C3.83339 22.0146 3.80002 21.934 3.8 21.85V14.8833C3.80002 14.7993 3.83339 14.7188 3.89278 14.6594C3.95217 14.6 4.03271 14.5667 4.11669 14.5666H6.65C6.73399 14.5667 6.81453 14.6 6.87391 14.6594C6.9333 14.7188 6.96667 14.7993 6.96669 14.8833V21.85ZM11.4 25.3333C10.7015 25.3333 10.1333 24.7653 10.1333 24.0666C10.1333 23.368 10.7015 22.8 11.4 22.8C12.0985 22.8 12.6667 23.3681 12.6667 24.0667C12.6667 24.7653 12.0985 25.3333 11.4 25.3333ZM13.9333 17.4167C13.9333 17.5007 13.8999 17.5812 13.8405 17.6406C13.7811 17.7 13.7006 17.7334 13.6166 17.7334H8.55C8.46601 17.7334 8.38547 17.7 8.32609 17.6406C8.2667 17.5812 8.23333 17.5007 8.23331 17.4167V14.8834C8.23333 14.7994 8.2667 14.7189 8.32609 14.6595C8.38547 14.6001 8.46601 14.5667 8.55 14.5667H13.6167C13.7007 14.5667 13.7812 14.6001 13.8406 14.6595C13.9 14.7189 13.9334 14.7994 13.9334 14.8834L13.9333 17.4167ZM21.5333 17.4167C21.5333 17.5007 21.4999 17.5812 21.4405 17.6406C21.3811 17.7 21.3006 17.7334 21.2166 17.7334H15.5166C15.4326 17.7334 15.3521 17.7 15.2927 17.6406C15.2333 17.5812 15.1999 17.5007 15.1999 17.4167V14.8834C15.1999 14.7994 15.2333 14.7189 15.2927 14.6595C15.3521 14.6001 15.4326 14.5667 15.5166 14.5667H21.2166C21.3006 14.5667 21.3811 14.6001 21.4405 14.6595C21.4999 14.7189 21.5333 14.7994 21.5333 14.8834V17.4167ZM23.1167 17.7333C23.0327 17.7333 22.9522 17.6999 22.8928 17.6406C22.8334 17.5812 22.8 17.5006 22.8 17.4166V14.8833C22.8 14.7993 22.8334 14.7188 22.8928 14.6594C22.9522 14.6 23.0327 14.5667 23.1167 14.5666H28.8167C28.9007 14.5667 28.9812 14.6 29.0406 14.6594C29.1 14.7188 29.1334 14.7993 29.1334 14.8833V17.4166C29.1334 17.5006 29.1 17.5812 29.0406 17.6406C28.9812 17.6999 28.9007 17.7333 28.8167 17.7333H23.1167ZM28.5 25.3333C27.8015 25.3333 27.2333 24.7653 27.2333 24.0666C27.2333 23.368 27.8015 22.8 28.5 22.8C29.1985 22.8 29.7667 23.3681 29.7667 24.0667C29.7667 24.7653 29.1985 25.3333 28.5 25.3333ZM36.7333 17.4167C36.7333 17.5007 36.6999 17.5812 36.6405 17.6406C36.5811 17.7 36.5006 17.7334 36.4166 17.7334H30.7166C30.6326 17.7334 30.5521 17.7 30.4927 17.6406C30.4333 17.5812 30.3999 17.5007 30.3999 17.4167V14.8834C30.3999 14.7994 30.4333 14.7189 30.4927 14.6595C30.5521 14.6001 30.6326 14.5667 30.7166 14.5667H36.4166C36.5006 14.5667 36.5811 14.6001 36.6405 14.6595C36.6999 14.7189 36.7333 14.7994 36.7333 14.8834V17.4167Z" fill="white"/></g><defs><clipPath id="clip0_1536_765"><rect width="38" height="38" fill="white"/></clipPath></defs></svg>