<svg width="38" height="38" viewBox="0 0 38 38" fill="none" xmlns="http://www.w3.org/2000/svg"><path d="M32.9662 21.4897C32.4494 21.4897 31.9537 21.695 31.5882 22.0605C31.2228 22.4259 31.0174 22.9216 31.0174 23.4384C31.0174 23.9553 31.2228 24.451 31.5882 24.8164C31.9537 25.1819 32.4494 25.3872 32.9662 25.3872C33.4765 25.3774 33.9627 25.1677 34.3201 24.8033C34.6775 24.4389 34.8777 23.9489 34.8777 23.4384C34.8777 22.928 34.6775 22.4379 34.3201 22.0736C33.9627 21.7092 33.4765 21.4995 32.9662 21.4897ZM32.9648 24.2908C32.4934 24.2908 32.1077 23.9087 32.1077 23.4352C32.1168 23.2142 32.211 23.0052 32.3706 22.852C32.5302 22.6989 32.7428 22.6133 32.964 22.6133C33.1852 22.6133 33.3979 22.6989 33.5575 22.852C33.7171 23.0052 33.8113 23.2142 33.8204 23.4352C33.8204 23.6621 33.7303 23.8797 33.5698 24.0402C33.4093 24.2007 33.1917 24.2908 32.9648 24.2908ZM28.4161 21.4897C27.8993 21.4899 27.4038 21.6953 27.0386 22.0609C26.6733 22.4264 26.4682 22.9221 26.4684 23.4388C26.4686 23.9556 26.674 24.4511 27.0396 24.8163C27.4051 25.1816 27.9008 25.3867 28.4175 25.3865C28.9343 25.3863 29.4298 25.1808 29.795 24.8153C30.1603 24.4498 30.3654 23.9541 30.3652 23.4374C30.365 22.9206 30.1595 22.4251 29.794 22.0598C29.4285 21.6946 28.9328 21.4895 28.4161 21.4897ZM28.4161 24.2908C28.1894 24.2902 27.9723 24.1999 27.8122 24.0395C27.6521 23.8791 27.5621 23.6618 27.5619 23.4352C27.5619 23.2086 27.6519 22.9914 27.8121 22.8312C27.9723 22.671 28.1895 22.581 28.4161 22.581C28.6426 22.581 28.8599 22.671 29.0201 22.8312C29.1803 22.9914 29.2703 23.2086 29.2703 23.4352C29.2703 23.9087 28.8874 24.2908 28.4161 24.2908ZM23.8057 21.4897C23.5499 21.4895 23.2965 21.5397 23.06 21.6374C22.8235 21.7352 22.6087 21.8785 22.4276 22.0593C22.2465 22.2401 22.1029 22.4548 22.0048 22.6911C21.9067 22.9274 21.8561 23.1808 21.8559 23.4366C21.8557 23.6925 21.9059 23.9459 22.0037 24.1824C22.1014 24.4188 22.2448 24.6337 22.4255 24.8148C22.6063 24.9958 22.821 25.1395 23.0573 25.2376C23.2937 25.3357 23.547 25.3863 23.8028 25.3865C24.3196 25.3869 24.8153 25.182 25.181 24.8168C25.5467 24.4517 25.7523 23.9563 25.7527 23.4395C25.7531 22.9228 25.5482 22.427 25.183 22.0614C24.8179 21.6957 24.3225 21.4901 23.8057 21.4897ZM23.8057 24.2908C23.3344 24.2908 22.9457 23.9087 22.9457 23.4352C22.9457 22.9667 23.3293 22.581 23.8057 22.581C24.0325 22.581 24.2499 22.6711 24.4103 22.8314C24.5706 22.9917 24.6607 23.2092 24.6607 23.4359C24.6607 23.6626 24.5706 23.8801 24.4103 24.0404C24.2499 24.2007 24.0325 24.2908 23.8057 24.2908ZM4.11315 14.3813C4.11315 14.3813 5.27407 13.551 7.37692 12.6033V14.3813H4.11315ZM8.2762 12.4735V15.0448H8.11305V22.9871H21.4506C21.5695 22.4448 21.8697 21.9593 22.3017 21.6106C22.7337 21.2619 23.2716 21.0709 23.8268 21.0691C24.9 21.0691 25.8064 21.7616 26.137 22.7217C26.301 22.2404 26.6113 21.8224 27.0244 21.5261C27.4376 21.2298 27.933 21.07 28.4414 21.0691C29.4798 21.0691 30.3645 21.7203 30.7176 22.6383C30.9042 22.1478 31.2443 21.7307 31.6872 21.4491C32.13 21.1676 32.652 21.0367 33.1754 21.0759C33.6987 21.1151 34.1954 21.3223 34.5913 21.6667C34.9873 22.0111 35.2615 22.4742 35.3729 22.9871H37.3771V20.5905H38V12.4735H8.2762ZM36.8246 21.8044H36.5215V20.592H36.8246V21.8044ZM1.1416 22.7289C1.11033 22.8679 1.09404 23.0099 1.09301 23.1524C1.09301 23.2742 1.10824 23.3917 1.1329 23.5077H0.0742188V22.7289H1.1416ZM6.41178 22.7289H7.22682V23.5062H6.42411C6.43934 23.3917 6.45239 23.2727 6.45239 23.1524C6.45014 23.0104 6.43656 22.8688 6.41178 22.7289ZM21.4208 23.1524C21.4056 23.2684 21.394 23.3873 21.394 23.5077C21.394 23.5816 21.3998 23.6505 21.4041 23.7245H8.1145V23.1524H21.4208ZM35.4012 23.1524H37.3771H37.5918V23.723H35.4178C35.4236 23.6505 35.4294 23.5802 35.4294 23.5077C35.4294 23.3873 35.4178 23.2684 35.4012 23.1524ZM0.144556 18.5587V19.4144L0.14383 22.5128H1.33013C1.47295 21.9524 1.79826 21.4554 2.25477 21.1002C2.71127 20.7451 3.273 20.552 3.85138 20.5514C4.42936 20.5522 4.9906 20.7455 5.44659 21.1006C5.90258 21.4558 6.22737 21.9526 6.36973 22.5128H7.2435V15.0332H1.75433L0.144556 18.5587ZM6.64237 15.6017V17.4544H4.52429L2.9573 18.7719H0.863151L2.0277 15.6017H6.64237ZM3.85863 21.3483C3.30457 21.3483 2.77321 21.5684 2.38143 21.9602C1.98965 22.3519 1.76955 22.8833 1.76955 23.4374C1.76955 23.9914 1.98965 24.5228 2.38143 24.9145C2.77321 25.3063 3.30457 25.5264 3.85863 25.5264C4.41269 25.5264 4.94405 25.3063 5.33583 24.9145C5.72761 24.5228 5.9477 23.9914 5.9477 23.4374C5.9477 22.8833 5.72761 22.3519 5.33583 21.9602C4.94405 21.5684 4.41269 21.3483 3.85863 21.3483ZM3.85863 24.3532C3.73595 24.3566 3.61383 24.3354 3.49948 24.2909C3.38513 24.2463 3.28088 24.1793 3.19289 24.0937C3.1049 24.0082 3.03496 23.9058 2.9872 23.7928C2.93943 23.6797 2.91483 23.5583 2.91483 23.4355C2.91483 23.3128 2.93943 23.1913 2.9872 23.0783C3.03496 22.9652 3.1049 22.8629 3.19289 22.7774C3.28088 22.6918 3.38513 22.6248 3.49948 22.5802C3.61383 22.5356 3.73595 22.5144 3.85863 22.5179C4.09754 22.5246 4.32441 22.6242 4.49102 22.7956C4.65762 22.967 4.75084 23.1965 4.75084 23.4355C4.75084 23.6745 4.65762 23.9041 4.49102 24.0755C4.32441 24.2468 4.09754 24.3465 3.85863 24.3532Z" fill="white"/><path d="M21.4506 22.9871H8.11305L8.1145 23.1524H21.4208L21.4506 22.9871Z" fill="white"/><path d="M36.8246 21.8044H36.5215V20.592H36.8246V21.8044Z" fill="white"/><path d="M37.3771 22.9871H35.3729L35.4012 23.1524H37.3771V22.9871Z" fill="white"/><path d="M6.41178 22.7289H7.22682L7.2435 22.5128H6.36973L6.41178 22.7289Z" fill="white"/></svg>