<svg width="38" height="38" viewBox="0 0 38 38" fill="none" xmlns="http://www.w3.org/2000/svg"><g clip-path="url(#clip0_1536_229)"><path d="M0.0591545 23.5527C0.392315 21.2088 2.21753 19.2848 4.53481 18.8041C5.57222 18.5888 6.5665 18.6724 7.46705 18.9668L8.06806 17.6439C7.51203 17.5007 6.93313 17.4165 6.33339 17.4165H3.80014C3.71696 17.4166 3.6346 17.4002 3.55775 17.3684C3.4809 17.3366 3.41108 17.2899 3.35226 17.2311C3.29345 17.1723 3.24681 17.1025 3.21499 17.0256C3.18317 16.9488 3.16681 16.8664 3.16684 16.7832C3.16684 16.5812 3.52086 12.9263 4.43351 11.7167C5.96995 9.67925 8.89647 7.91675 11.4 7.91675C11.5023 7.91679 11.6031 7.94157 11.6937 7.98899C11.7844 8.0364 11.8622 8.10504 11.9206 8.18905C11.9788 8.27321 12.0158 8.37023 12.0284 8.47181C12.041 8.57338 12.0288 8.6765 11.9928 8.77232L11.6958 9.56459L13.1467 9.20234C13.4868 9.11491 13.8295 9.3239 13.9143 9.66337C13.9998 10.0028 13.7933 10.3467 13.4532 10.4316L11.1556 11.006L10.5995 12.4893C13.1144 11.5785 16.8421 10.7705 19.4489 11.8603C20.5876 12.3366 21.4223 13.1251 21.9359 14.2075L27.233 13.6767V12.9832C27.2329 12.8368 27.2836 12.6949 27.3764 12.5817C27.4693 12.4685 27.5986 12.3911 27.7422 12.3626L34.0753 11.096C34.1916 11.0729 34.3121 11.0829 34.423 11.1248C34.5339 11.1666 34.6309 11.2387 34.703 11.3328C34.7749 11.427 34.8189 11.5395 34.8301 11.6575C34.8413 11.7755 34.8192 11.8943 34.7663 12.0003L33.8258 13.88L36.9335 14.9155C37.045 14.9527 37.144 15.0202 37.2194 15.1105C37.2948 15.2007 37.3436 15.3102 37.3603 15.4265L37.9937 19.8598C38.0136 20.0001 37.986 20.143 37.9151 20.2658C37.8443 20.3885 37.7344 20.4839 37.6029 20.5368C37.4715 20.5897 37.3261 20.597 37.1901 20.5575C37.054 20.518 36.9352 20.434 36.8525 20.319C35.5637 18.5286 33.3338 17.4165 31.0329 17.4165C27.8378 17.4165 25.1449 19.5818 24.3267 22.5198L25.575 22.7466C26.2887 20.3697 28.5129 18.6401 31.1291 18.6839C34.126 18.7339 36.6441 21.2196 36.7302 24.2159C36.8227 27.4344 34.2311 30.083 31.0329 30.083C27.8897 30.083 25.333 27.5256 25.333 24.3831C25.333 24.2521 25.3438 24.1234 25.3527 23.9943L24.0974 23.7663C24.0797 23.969 24.0664 24.1741 24.0664 24.3819C24.0664 24.7308 23.7624 25.0164 23.4129 25.0164H13.9334C13.5863 25.0164 13.2994 24.7371 13.3001 24.3901C13.3026 21.5934 11.6452 19.1823 9.26459 18.0721L8.61734 19.4958C10.5508 20.6541 11.7491 22.9182 11.309 25.4129C10.8992 27.7353 9.02398 29.601 6.69905 29.9981C2.83502 30.658 -0.487972 27.3995 0.0591545 23.5527ZM31.0329 28.8163C33.4768 28.8163 35.4661 26.8276 35.4661 24.3831C35.4661 21.9385 33.4768 19.9498 31.0329 19.9498C29.081 19.9498 27.423 21.2196 26.8327 22.9758L31.1462 23.7599C31.3019 23.788 31.4414 23.8733 31.5373 23.9992C31.6332 24.125 31.6785 24.2821 31.6644 24.4396C31.6502 24.5972 31.5776 24.7438 31.4609 24.8505C31.3441 24.9572 31.1917 25.0164 31.0335 25.0163C30.9955 25.0163 30.9581 25.0132 30.9195 25.0062L26.6078 24.2222C26.6059 24.276 26.5996 24.3286 26.5996 24.383C26.5997 26.8276 28.5882 28.8163 31.0329 28.8163ZM5.70016 28.8163C8.14413 28.8163 10.1334 26.8276 10.1334 24.3831C10.1334 22.8188 9.31698 21.4444 8.09025 20.6554L6.27646 24.6453C6.24206 24.721 6.19307 24.7892 6.1323 24.8459C6.07153 24.9027 6.00017 24.9469 5.9223 24.9761C5.84443 25.0052 5.76157 25.0188 5.67846 25.0159C5.59536 25.013 5.51363 24.9938 5.43796 24.9593C5.36224 24.925 5.29404 24.876 5.23726 24.8152C5.18049 24.7545 5.13625 24.6831 5.10707 24.6052C5.07789 24.5273 5.06435 24.4445 5.06722 24.3614C5.07009 24.2783 5.08932 24.1965 5.1238 24.1208L6.93826 20.129C6.54498 20.0143 6.13011 19.9498 5.70009 19.9498C3.25613 19.9498 1.26689 21.9384 1.26689 24.383C1.26689 26.8275 3.25553 28.8163 5.70016 28.8163Z" fill="white"/></g><defs><clipPath id="clip0_1536_229"><rect width="38" height="38" fill="white"/></clipPath></defs></svg>