<svg width="38" height="38" viewBox="0 0 38 38" fill="none" xmlns="http://www.w3.org/2000/svg">
<g clip-path="url(#clip0_1536_405)">
<path d="M7.93 23.75C5.83429 23.75 4.13 25.4543 4.13 27.55C4.13 29.6457 5.83429 31.35 7.93 31.35C10.0257 31.35 11.73 29.6457 11.73 27.55C11.73 25.4543 10.0251 23.75 7.93 23.75ZM7.93 30.0833C6.53284 30.0833 5.3967 28.9471 5.3967 27.55C5.3967 26.1529 6.53291 25.0167 7.93 25.0167C9.3271 25.0167 10.4633 26.1529 10.4633 27.55C10.4633 28.9471 9.3265 30.0833 7.93 30.0833ZM29.4589 23.75C27.3631 23.75 25.6589 25.4543 25.6589 27.55C25.6589 29.6457 27.3631 31.35 29.4589 31.35C31.5546 31.35 33.2589 29.6457 33.2589 27.55C33.2589 25.4543 31.554 23.75 29.4589 23.75ZM29.4589 30.0833C28.0617 30.0833 26.9256 28.9471 26.9256 27.55C26.9256 26.1529 28.0618 25.0167 29.4589 25.0167C30.856 25.0167 31.9922 26.1529 31.9922 27.55C31.9922 28.9471 30.8554 30.0833 29.4589 30.0833Z" fill="white"/>
<path d="M37.3667 21.8499H36.7334V7.28321C36.7333 7.11527 36.6666 6.95422 36.5478 6.83546C36.4291 6.7167 36.268 6.64996 36.1001 6.6499H16.4667C15.0677 6.6499 13.9334 7.78419 13.9334 9.18321V22.4832H12.6667V12.9832C12.6666 12.8153 12.5999 12.6542 12.4811 12.5355C12.3624 12.4167 12.2013 12.35 12.0334 12.3499H4.43338C4.32914 12.3499 4.22651 12.3756 4.13459 12.4248C4.04267 12.4739 3.9643 12.545 3.90643 12.6317L0.10643 18.3317C0.0370011 18.4358 -3.40624e-05 18.5581 2.35075e-08 18.6832V25.6499C5.90381e-05 25.8178 0.0668014 25.9789 0.185557 26.0977C0.304313 26.2164 0.465363 26.2832 0.633309 26.2832H2.51683C2.78602 26.2832 3.03807 26.1236 3.12736 25.8697C3.83859 23.8449 5.76138 22.4832 7.90905 22.4832C9.22829 22.4832 10.8135 22.9582 11.6134 23.5915C11.735 23.6878 11.8781 23.7498 12.0333 23.7498H13.9333V25.6498C13.9334 25.8178 14.0001 25.9788 14.1189 26.0976C14.2376 26.2163 14.3987 26.2831 14.5666 26.2831H24.0666C24.3358 26.2831 24.5879 26.1236 24.6771 25.8696C25.3884 23.8448 27.3112 22.4831 29.4588 22.4831C31.5913 22.4831 33.5026 23.8264 34.2259 25.8291C34.3032 26.0913 34.5457 26.2831 34.8332 26.2831H37.3665C37.5345 26.2831 37.6955 26.2163 37.8143 26.0976C37.9331 25.9788 37.9998 25.8178 37.9999 25.6498V22.4831C38 22.1336 37.7163 21.8499 37.3667 21.8499ZM8.86669 17.7332C8.86667 17.8172 8.8333 17.8977 8.77391 17.9571C8.71453 18.0165 8.63399 18.0499 8.55 18.0499H2.40855C2.15583 18.0499 2.0045 17.7681 2.14507 17.5578L4.67838 13.7578C4.70727 13.7144 4.74643 13.6788 4.7924 13.6542C4.83836 13.6295 4.8897 13.6166 4.94186 13.6166H8.55C8.63399 13.6166 8.71453 13.65 8.77391 13.7094C8.8333 13.7688 8.86667 13.8493 8.86669 13.9333V17.7332Z" fill="white"/>
</g>
<defs>
<clipPath id="clip0_1536_405">
<rect width="38" height="38" fill="white"/>
</clipPath>
</defs>
</svg>
