<svg width="38" height="38" viewBox="0 0 38 38" fill="none" xmlns="http://www.w3.org/2000/svg"><g clip-path="url(#clip0_1536_530)"><path fill-rule="evenodd" clip-rule="evenodd" d="M36.8824 25.7059C36.882 25.0955 36.7565 24.4917 36.5138 23.9316C36.2711 23.3715 35.9163 22.8671 35.4712 22.4494C35.0261 22.0317 34.5002 21.7095 33.9259 21.5028C33.3516 21.2961 32.7411 21.2092 32.1319 21.2474C31.5227 21.2856 30.9278 21.4482 30.3838 21.7251C29.8398 22.002 29.3583 22.3873 28.969 22.8574C28.5796 23.3274 28.2906 23.8723 28.1198 24.4583C27.949 25.0443 27.9 25.659 27.9759 26.2647H21.7942C21.4978 26.2646 21.2135 26.1468 21.004 25.9372L19.655 24.5882H15.4973C15.3993 24.7581 15.2582 24.8992 15.0883 24.9973C14.9184 25.0954 14.7257 25.147 14.5295 25.147H11.7353C11.7353 24.4866 11.6053 23.8326 11.3525 23.2224C11.0998 22.6122 10.7293 22.0577 10.2623 21.5907C9.79524 21.1237 9.24081 20.7532 8.63061 20.5005C8.02041 20.2477 7.36641 20.1176 6.70594 20.1176C6.04547 20.1176 5.39146 20.2477 4.78126 20.5005C4.17107 20.7532 3.61663 21.1237 3.14961 21.5907C2.68258 22.0577 2.31212 22.6122 2.05937 23.2224C1.80662 23.8326 1.67653 24.4866 1.67653 25.147H0.55832C0.48494 25.1471 0.412266 25.1327 0.344465 25.1046C0.276663 25.0766 0.215067 25.0354 0.163205 24.9835C0.111343 24.9316 0.0702363 24.8699 0.0422399 24.8021C0.0142434 24.7343 -9.20666e-05 24.6616 5.50248e-05 24.5882V16.7647C5.50248e-05 16.4562 0.247614 16.2059 0.560555 16.2059H7.97447L5.00488 11.7353H0.554967C0.481353 11.7351 0.408513 11.7203 0.340663 11.6917C0.272814 11.6631 0.211304 11.6214 0.159695 11.5689C0.108085 11.5164 0.0674016 11.4542 0.0399992 11.3859C0.0125967 11.3176 -0.000980027 11.2445 5.50248e-05 11.1709V10.0644C5.50248e-05 9.75202 0.254879 9.49999 0.556084 9.49999H5.58829C5.77225 9.49996 5.95337 9.54534 6.11558 9.6321C6.27779 9.71886 6.41608 9.84431 6.51817 9.99734L10.6568 16.2059H14.5295C14.8259 16.2059 15.1102 16.3236 15.3198 16.5332C15.5294 16.7428 15.6471 17.0271 15.6471 17.3235V22.3529H20.1177C20.4141 22.353 20.6983 22.4708 20.9079 22.6804L22.2569 24.0294H24.6844L18.2099 17.5549C17.5058 16.8508 18.0042 15.647 19.0001 15.647H25.773L31.5881 9.30384C31.6928 9.18959 31.82 9.09836 31.9618 9.03592C32.1036 8.97349 32.2569 8.94122 32.4118 8.94116H37.444C37.7514 8.94116 38.0001 9.18872 38.0001 9.50557V10.612C38.0009 10.6856 37.9873 10.7586 37.9598 10.8269C37.9323 10.8951 37.8917 10.9573 37.8401 11.0098C37.7885 11.0622 37.727 11.104 37.6593 11.1326C37.5915 11.1612 37.5187 11.1761 37.4451 11.1765H32.9036L28.8052 15.647H37.439C37.587 15.6463 37.7292 15.7043 37.8344 15.8084C37.9396 15.9124 37.9992 16.054 38.0001 16.202V25.7003C38.0001 26.0166 37.748 26.2641 37.4373 26.2641H36.8478C36.8707 26.0808 36.8824 25.8953 36.8824 25.7059ZM10.6177 25.147C10.6177 25.6607 10.5165 26.1694 10.3199 26.644C10.1234 27.1186 9.83521 27.5498 9.47197 27.9131C9.10873 28.2763 8.6775 28.5645 8.2029 28.761C7.72831 28.9576 7.21964 29.0588 6.70594 29.0588C6.19224 29.0588 5.68357 28.9576 5.20897 28.761C4.73437 28.5645 4.30314 28.2763 3.9399 27.9131C3.57666 27.5498 3.28852 27.1186 3.09194 26.644C2.89535 26.1694 2.79417 25.6607 2.79417 25.147C2.79417 24.1096 3.2063 23.1146 3.9399 22.381C4.6735 21.6474 5.66847 21.2353 6.70594 21.2353C7.7434 21.2353 8.73837 21.6474 9.47197 22.381C10.2056 23.1146 10.6177 24.1096 10.6177 25.147ZM5.02947 25.147C5.02947 25.5917 5.20609 26.0181 5.52049 26.3325C5.83489 26.6469 6.26131 26.8235 6.70594 26.8235C7.15056 26.8235 7.57698 26.6469 7.89138 26.3325C8.20578 26.0181 8.38241 25.5917 8.38241 25.147C8.38241 24.7024 8.20578 24.276 7.89138 23.9616C7.57698 23.6472 7.15056 23.4706 6.70594 23.4706C6.26131 23.4706 5.83489 23.6472 5.52049 23.9616C5.20609 24.276 5.02947 24.7024 5.02947 25.147ZM32.4118 29.0588C31.5226 29.0588 30.6697 28.7056 30.0409 28.0768C29.4121 27.448 29.0589 26.5951 29.0589 25.7059C29.0589 24.8166 29.4121 23.9638 30.0409 23.335C30.6697 22.7062 31.5226 22.3529 32.4118 22.3529C33.3011 22.3529 34.1539 22.7062 34.7827 23.335C35.4115 23.9638 35.7648 24.8166 35.7648 25.7059C35.7648 26.5951 35.4115 27.448 34.7827 28.0768C34.1539 28.7056 33.3011 29.0588 32.4118 29.0588ZM32.4118 26.8235C32.7082 26.8235 32.9925 26.7058 33.2021 26.4962C33.4117 26.2866 33.5295 26.0023 33.5295 25.7059C33.5295 25.4095 33.4117 25.1252 33.2021 24.9156C32.9925 24.706 32.7082 24.5882 32.4118 24.5882C32.1154 24.5882 31.8311 24.706 31.6215 24.9156C31.4119 25.1252 31.2942 25.4095 31.2942 25.7059C31.2942 26.0023 31.4119 26.2866 31.6215 26.4962C31.8311 26.7058 32.1154 26.8235 32.4118 26.8235Z" fill="white"/></g><defs><clipPath id="clip0_1536_530"><rect width="38" height="38" fill="white"/></clipPath></defs></svg>