<svg width="38" height="38" viewBox="0 0 38 38" fill="none" xmlns="http://www.w3.org/2000/svg"><path d="M6.80144 24.9653C7.77687 24.7503 8.69868 24.9549 9.43623 25.4243L10.1783 24.5585C8.92917 23.6099 7.3443 23.3442 4.69456 23.8771C4.62244 23.8917 4.548 23.89 4.47662 23.8722C4.40524 23.8544 4.3387 23.821 4.28184 23.7743C4.22509 23.7276 4.17937 23.6689 4.14795 23.6024C4.11653 23.536 4.10018 23.4634 4.10007 23.3899C4.10007 22.0399 5.65066 20.4099 7.57671 20.4099C7.92389 20.4099 8.25366 20.4496 8.57401 20.5083C8.61621 17.1235 9.21221 15.5888 11.1989 13.6021L11.3559 13.4452C11.9956 12.808 12.4267 12.3729 12.7381 11.7287C12.0884 11.8797 11.3563 11.9656 10.5672 11.9666C10.289 11.9666 10.06 11.748 10.06 11.4699V7.49665C10.06 7.22694 10.2766 7.00047 10.5463 7.00001C13.1443 6.9975 15.1533 7.89453 15.4737 9.13466L18.699 10.5169C18.9513 10.6246 19.068 10.9167 18.9597 11.169C18.9215 11.2583 18.8579 11.3345 18.7767 11.388C18.6956 11.4415 18.6005 11.47 18.5033 11.4699C18.4378 11.4699 18.3712 11.457 18.3076 11.4292L16.4814 10.6465C16.4779 10.6554 16.4794 10.6649 16.4755 10.6733C14.2976 15.701 13.8491 18.99 15.1032 20.7283C16.091 22.0975 18.2188 22.6623 21.7585 22.4805C22.0659 22.4646 22.2835 22.1716 22.2129 21.8721C22.0351 21.1147 21.7272 19.7856 21.5732 19.0153C21.5126 18.7083 21.7481 18.4233 22.0614 18.4233H32.3479C32.5103 18.4233 32.6667 18.4987 32.7561 18.6348C32.9925 18.9939 33.1991 19.425 33.3695 19.9133L33.7375 21.4032C33.846 22.0599 33.9003 22.7243 33.9 23.3899C33.9 25.1133 32.7343 25.829 31.6426 26.1856C32.4929 27.248 32.7025 28.7658 31.9357 30.1098C31.4569 30.9491 30.6215 31.559 29.6754 31.7557C27.4364 32.2221 25.4567 30.516 25.4567 28.3565C25.4567 28.0689 25.5039 27.7883 25.5729 27.5122C24.2011 27.6979 22.8681 27.7968 21.5643 27.7968C18.7979 27.7968 16.1517 27.3731 13.4886 26.5362C13.5168 26.8113 13.5367 27.0875 13.5367 27.3632C13.5368 27.4716 13.5013 27.5771 13.4358 27.6635C13.3702 27.7499 13.2781 27.8124 13.1737 27.8415C13.0691 27.8707 12.9579 27.8648 12.857 27.8248C12.7561 27.7848 12.6711 27.7129 12.6149 27.62C12.0328 26.6554 11.4969 25.8563 10.9128 25.2275L10.1902 26.0709C10.8413 26.8144 11.185 27.8336 11.0072 28.9312C10.7782 30.3432 9.66223 31.5004 8.25663 31.7686C5.81752 32.2335 3.7072 30.1286 4.16264 27.69C4.41297 26.35 5.47087 25.2588 6.80144 24.9653ZM26.4739 28.7038C26.6134 29.7448 27.4394 30.6115 28.4734 30.7982C30.3026 31.1285 31.8632 29.4393 31.2999 27.5857C31.1727 27.1666 30.915 26.7976 30.5887 26.5055L30.5634 26.4826C29.9008 26.6619 29.2467 26.8273 28.606 26.9698L29.3465 28.0809C29.499 28.3088 29.4374 28.6178 29.2089 28.7698C29.1275 28.8242 29.0317 28.8533 28.9338 28.8532C28.852 28.8534 28.7713 28.8333 28.6992 28.7947C28.627 28.7562 28.5654 28.7003 28.5201 28.6322L27.5565 27.1869C27.2569 27.2444 26.9566 27.2982 26.6556 27.3483L26.5921 27.5281C26.4599 27.9011 26.4197 28.3004 26.4739 28.7038ZM8.23876 30.7535C9.03545 30.5459 9.68656 29.9206 9.93584 29.1359C10.214 28.2602 10.0004 27.4462 9.52906 26.8407L7.95316 28.6794C7.9068 28.7339 7.84911 28.7778 7.7841 28.8078C7.71908 28.8378 7.64832 28.8533 7.57671 28.8532C7.4582 28.8534 7.34359 28.8109 7.25385 28.7335C7.04526 28.5552 7.02093 28.2413 7.20019 28.0332L8.77563 26.195C8.17317 25.8593 7.43516 25.7396 6.63597 26.0629C5.90192 26.3599 5.33374 27.0081 5.1589 27.7804C4.74176 29.6231 6.38972 31.2352 8.23876 30.7535Z" fill="white"/><path d="M22.7841 15.4434H31.1092C31.9133 15.4434 32.41 15.7523 32.41 16.4367V16.9334C32.4099 17.0651 32.3576 17.1914 32.2645 17.2845C32.1713 17.3776 32.045 17.43 31.9133 17.43H21.98C21.8483 17.43 21.722 17.3776 21.6289 17.2845C21.5358 17.1914 21.4834 17.0651 21.4834 16.9334V16.4367C21.4834 15.7523 21.98 15.4434 22.7841 15.4434Z" fill="white"/></svg>