<svg width="38" height="38" viewBox="0 0 38 38" fill="none" xmlns="http://www.w3.org/2000/svg"><g clip-path="url(#clip0_1536_435)"><path fill-rule="evenodd" clip-rule="evenodd" d="M32.4118 29.0588C31.5226 29.0588 30.6698 28.7056 30.041 28.0768C29.4122 27.448 29.0589 26.5951 29.0589 25.7059C29.0589 24.8166 29.4122 23.9638 30.041 23.335C30.6698 22.7062 31.5226 22.3529 32.4118 22.3529C33.3011 22.3529 34.1539 22.7062 34.7827 23.335C35.4115 23.9638 35.7648 24.8166 35.7648 25.7059C35.7648 26.5951 35.4115 27.448 34.7827 28.0768C34.1539 28.7056 33.3011 29.0588 32.4118 29.0588ZM32.4118 26.8235C32.7083 26.8235 32.9925 26.7058 33.2021 26.4962C33.4117 26.2866 33.5295 26.0023 33.5295 25.7059C33.5295 25.4095 33.4117 25.1252 33.2021 24.9156C32.9925 24.706 32.7083 24.5882 32.4118 24.5882C32.1154 24.5882 31.8311 24.706 31.6215 24.9156C31.4119 25.1252 31.2942 25.4095 31.2942 25.7059C31.2942 26.0023 31.4119 26.2866 31.6215 26.4962C31.8311 26.7058 32.1154 26.8235 32.4118 26.8235Z" fill="white"/><path d="M36.5138 23.9316C36.7565 24.4917 36.882 25.0955 36.8824 25.7059C36.8824 25.8953 36.8707 26.0808 36.8478 26.2641H37.4373C37.7481 26.2641 38.0001 26.0166 38.0001 25.7003V16.202C37.9992 16.054 37.9396 15.9124 37.8344 15.8084C37.7292 15.7043 37.587 15.6463 37.439 15.647H28.8052L32.9036 11.1765H37.4452C37.5187 11.1761 37.5915 11.1612 37.6593 11.1326C37.7271 11.104 37.7885 11.0622 37.8401 11.0098C37.8917 10.9573 37.9324 10.8951 37.9598 10.8269C37.9873 10.7586 38.001 10.6856 38.0001 10.612V9.50557C38.0001 9.18872 37.7514 8.94116 37.444 8.94116H32.4118C32.2569 8.94122 32.1037 8.97349 31.9619 9.03592C31.8201 9.09836 31.6928 9.18959 31.5881 9.30384L25.773 15.647H19.0001C18.0043 15.647 17.5058 16.8508 18.2099 17.5549L24.6844 24.0294H22.2569L20.9079 22.6804C20.6984 22.4708 20.4141 22.353 20.1177 22.3529H14.4629C14.4693 22.3894 14.4725 22.4264 14.4724 22.4635V23.7302C14.4725 23.8134 14.4561 23.8958 14.4243 23.9726C14.3924 24.0495 14.3457 24.1192 14.2868 24.178L13.8766 24.5882H19.655L21.004 25.9372C21.2136 26.1468 21.4978 26.2646 21.7942 26.2647H27.9759C27.9001 25.659 27.949 25.0443 28.1198 24.4583C28.2906 23.8723 28.5796 23.3274 28.969 22.8574C29.3584 22.3873 29.8399 22.002 30.3838 21.7251C30.9278 21.4482 31.5227 21.2856 32.1319 21.2474C32.7411 21.2092 33.3517 21.2961 33.926 21.5028C34.5003 21.7095 35.0262 22.0317 35.4712 22.4494C35.9163 22.8671 36.2711 23.3715 36.5138 23.9316Z" fill="white"/><path fill-rule="evenodd" clip-rule="evenodd" d="M5.61888 29.133C4.72963 29.133 3.87679 28.7798 3.24799 28.151C2.61919 27.5222 2.26594 26.6693 2.26594 25.7801C2.26594 24.8908 2.61919 24.038 3.24799 23.4092C3.87679 22.7804 4.72963 22.4271 5.61888 22.4271C6.50814 22.4271 7.36097 22.7804 7.98977 23.4092C8.61857 24.038 8.97182 24.8908 8.97182 25.7801C8.97182 26.6693 8.61857 27.5222 7.98977 28.151C7.36097 28.7798 6.50814 29.133 5.61888 29.133ZM5.61888 26.8977C5.9153 26.8977 6.19958 26.78 6.40918 26.5704C6.61878 26.3608 6.73653 26.0765 6.73653 25.7801C6.73653 25.4837 6.61878 25.1994 6.40918 24.9898C6.19958 24.7802 5.9153 24.6624 5.61888 24.6624C5.32246 24.6624 5.03818 24.7802 4.82858 24.9898C4.61898 25.1994 4.50123 25.4837 4.50123 25.7801C4.50123 26.0765 4.61898 26.3608 4.82858 26.5704C5.03818 26.78 5.32246 26.8977 5.61888 26.8977Z" fill="white"/><path fill-rule="evenodd" clip-rule="evenodd" d="M14.2871 22.0158L13.8394 21.568V10.4302C13.8394 10.347 13.823 10.2646 13.7912 10.1878C13.7594 10.1109 13.7128 10.0411 13.654 9.98228C13.5951 9.92346 13.5253 9.87682 13.4485 9.845C13.3716 9.81318 13.2892 9.79682 13.2061 9.79685H0.371117C0.371117 9.79685 0.331686 9.8079 0.296904 9.83398C0.250521 9.86876 0.259789 9.94531 0.259789 9.94531V11.0586H0.890657C1.21858 11.0586 1.48441 11.3244 1.48441 11.6523V15.5117C1.48441 15.8396 1.21858 16.1054 0.890657 16.1054H0.259789V26.2635H0.539232C0.622407 26.2636 0.704773 26.2472 0.781623 26.2154C0.858474 26.1836 0.928299 26.1369 0.987113 26.0781C1.04593 26.0193 1.09258 25.9495 1.12439 25.8726C1.15621 25.7958 1.17257 25.7134 1.17254 25.6302C1.17254 23.1855 3.16183 21.1969 5.60585 21.1969C8.04987 21.1969 10.0392 23.1856 10.0392 25.6302C10.0391 25.7134 10.0555 25.7958 10.0873 25.8726C10.1191 25.9495 10.1658 26.0193 10.2246 26.0781C10.2834 26.1369 10.3532 26.1836 10.4301 26.2154C10.5069 26.2472 10.5893 26.2636 10.6725 26.2635H13.2058C13.2889 26.2636 13.3713 26.2472 13.4482 26.2154C13.525 26.1836 13.5948 26.1369 13.6537 26.0781C13.7125 26.0193 13.7591 25.9495 13.7909 25.8726C13.8228 25.7958 13.8391 25.7134 13.8391 25.6302V24.6258L13.8766 24.5882L14.2868 24.178C14.3457 24.1192 14.3924 24.0495 14.4243 23.9726C14.4561 23.8958 14.4725 23.8134 14.4724 23.7302V22.4635C14.4725 22.4264 14.4693 22.3894 14.4629 22.3529C14.455 22.3078 14.4421 22.2636 14.4245 22.2211C14.3927 22.1443 14.346 22.0745 14.2871 22.0158ZM2.37503 11.6523C2.37503 11.3244 2.64086 11.0586 2.96878 11.0586H6.30863C6.63655 11.0586 6.90238 11.3244 6.90238 11.6523V15.5117C6.90238 15.8396 6.63655 16.1054 6.30863 16.1054H2.96878C2.64086 16.1054 2.37503 15.8396 2.37503 15.5117V11.6523ZM8.38675 11.0586C8.05883 11.0586 7.793 11.3244 7.793 11.6523V15.5117C7.793 15.8396 8.05883 16.1054 8.38675 16.1054H11.8008C12.1287 16.1054 12.3946 15.8396 12.3946 15.5117V11.6523C12.3946 11.3244 12.1287 11.0586 11.8008 11.0586H8.38675Z" fill="white"/></g><defs><clipPath id="clip0_1536_435"><rect width="38" height="38" fill="white"/></clipPath></defs></svg>