<svg width="38" height="38" viewBox="0 0 38 38" fill="none" xmlns="http://www.w3.org/2000/svg"><g clip-path="url(#clip0_1536_325)"><path d="M29.1333 22.1667C27.3872 22.1667 25.9666 23.5873 25.9666 25.3334C25.9666 27.0795 27.3872 28.5001 29.1333 28.5001C30.8794 28.5001 32.3 27.0796 32.3 25.3334C32.3 23.5873 30.8795 22.1667 29.1333 22.1667ZM29.1333 27.2334C28.0858 27.2334 27.2333 26.3809 27.2333 25.3334C27.2333 24.2858 28.0858 23.4334 29.1333 23.4334C30.1808 23.4334 31.0333 24.2858 31.0333 25.3334C31.0333 26.3809 30.1808 27.2334 29.1333 27.2334ZM8.8667 22.1667C7.12063 22.1667 5.70001 23.5873 5.70001 25.3334C5.70001 27.0795 7.12056 28.5001 8.8667 28.5001C10.6128 28.5001 12.0334 27.0795 12.0334 25.3334C12.0333 23.5873 10.6128 22.1667 8.8667 22.1667ZM8.8667 27.2334C7.81918 27.2334 6.9667 26.3809 6.9667 25.3334C6.9667 24.2858 7.81918 23.4334 8.8667 23.4334C9.91423 23.4334 10.7667 24.2858 10.7667 25.3334C10.7667 26.3809 9.91423 27.2334 8.8667 27.2334Z" fill="white"/><path fill-rule="evenodd" clip-rule="evenodd" d="M37.8145 21.7189L37.3667 21.2712V10.1333C37.3667 10.0501 37.3504 9.96777 37.3185 9.89092C37.2867 9.81407 37.2401 9.74424 37.1813 9.68543C37.1225 9.62661 37.0526 9.57996 36.9758 9.54815C36.8989 9.51633 36.8166 9.49997 36.7334 9.5H8.23338C8.13153 9.49998 8.03119 9.52456 7.94088 9.57165C7.85056 9.61873 7.77296 9.68694 7.71467 9.77045L3.33071 16.0329C2.59795 16.6409 1.90193 17.361 1.39591 18.3667L0.917715 19.6334C0.787906 20.1186 0.690383 20.6493 0.64793 21.256L0.185547 21.7189C0.12667 21.7777 0.0799714 21.8475 0.0481307 21.9243C0.01629 22.0011 -6.62792e-05 22.0835 2.0185e-07 22.1667V23.4334C2.0185e-07 23.6012 0.0665002 23.7627 0.185547 23.8811L0.633309 24.3289V25.3334C0.63328 25.4166 0.649641 25.4989 0.681457 25.5758C0.713273 25.6526 0.759921 25.7225 0.818735 25.7813C0.877549 25.8401 0.947376 25.8867 1.02423 25.9185C1.10108 25.9504 1.18344 25.9667 1.26662 25.9667H3.8C3.88318 25.9667 3.96554 25.9504 4.04239 25.9185C4.11924 25.8867 4.18907 25.8401 4.24788 25.7813C4.3067 25.7225 4.35334 25.6526 4.38516 25.5758C4.41698 25.4989 4.43334 25.4166 4.43331 25.3334C4.43331 22.8887 6.42259 20.9001 8.86662 20.9001C11.3106 20.9001 13.2999 22.8888 13.2999 25.3334C13.2999 25.4166 13.3163 25.4989 13.3481 25.5758C13.3799 25.6526 13.4265 25.7225 13.4854 25.7813C13.5442 25.8401 13.614 25.8867 13.6908 25.9185C13.7677 25.9504 13.8501 25.9667 13.9332 25.9667H24.0665C24.1497 25.9667 24.2321 25.9504 24.3089 25.9185C24.3858 25.8867 24.4556 25.8401 24.5144 25.7813C24.5732 25.7225 24.6199 25.6526 24.6517 25.5758C24.6835 25.4989 24.6999 25.4166 24.6999 25.3334C24.6999 22.8887 26.6891 20.9001 29.1332 20.9001C31.5772 20.9001 33.5665 22.8888 33.5665 25.3334C33.5664 25.4166 33.5828 25.4989 33.6146 25.5758C33.6464 25.6526 33.6931 25.7225 33.7519 25.7813C33.8107 25.8401 33.8805 25.8867 33.9574 25.9185C34.0342 25.9504 34.1166 25.9667 34.1998 25.9667H36.7331C36.8163 25.9667 36.8986 25.9504 36.9755 25.9185C37.0523 25.8867 37.1222 25.8401 37.181 25.7813C37.2398 25.7225 37.2864 25.6526 37.3182 25.5758C37.3501 25.4989 37.3664 25.4166 37.3664 25.3334V24.3289L37.8142 23.8811C37.873 23.8224 37.9197 23.7526 37.9516 23.6758C37.9834 23.5989 37.9998 23.5166 37.9997 23.4334V22.1667C37.9999 22.0835 37.9836 22.0011 37.9518 21.9243C37.9201 21.8474 37.8734 21.7776 37.8145 21.7189ZM13.9333 15.2C13.9333 15.2832 13.917 15.3655 13.8852 15.4424C13.8533 15.5192 13.8067 15.5891 13.7479 15.6479C13.6891 15.7067 13.6192 15.7533 13.5424 15.7852C13.4655 15.817 13.3832 15.8333 13.3 15.8333H6.33331C6.21865 15.8333 6.10614 15.8022 6.00777 15.7434C5.90939 15.6845 5.82886 15.6 5.77474 15.4989C5.72077 15.3978 5.69522 15.284 5.7008 15.1696C5.70638 15.0552 5.74288 14.9444 5.80643 14.8491L8.33974 11.0491C8.39751 10.9622 8.47584 10.891 8.56777 10.8417C8.6597 10.7925 8.76239 10.7667 8.86669 10.7666H13.3C13.3832 10.7666 13.4655 10.7829 13.5424 10.8148C13.6192 10.8466 13.6891 10.8932 13.7479 10.952C13.8067 11.0109 13.8533 11.0807 13.8852 11.1575C13.917 11.2344 13.9333 11.3168 13.9333 11.3999V15.2ZM14.9922 11.3555C14.9922 11.0275 15.258 10.7617 15.5859 10.7617H19C19.3279 10.7617 19.5938 11.0275 19.5938 11.3555V15.2148C19.5938 15.5428 19.3279 15.8086 19 15.8086H15.5859C15.258 15.8086 14.9922 15.5428 14.9922 15.2148V11.3555ZM21.0781 10.7617C20.7502 10.7617 20.4844 11.0275 20.4844 11.3555V15.2148C20.4844 15.5428 20.7502 15.8086 21.0781 15.8086H24.418C24.7459 15.8086 25.0117 15.5428 25.0117 15.2148V11.3555C25.0117 11.0275 24.7459 10.7617 24.418 10.7617H21.0781ZM25.9023 11.3555C25.9023 11.0275 26.1682 10.7617 26.4961 10.7617H29.8359C30.1639 10.7617 30.4297 11.0275 30.4297 11.3555V15.2148C30.4297 15.5428 30.1639 15.8086 29.8359 15.8086H26.4961C26.1682 15.8086 25.9023 15.5428 25.9023 15.2148V11.3555ZM31.9141 10.7617C31.5861 10.7617 31.3203 11.0275 31.3203 11.3555V15.2148C31.3203 15.5428 31.5861 15.8086 31.9141 15.8086H35.3281C35.656 15.8086 35.9219 15.5428 35.9219 15.2148V11.3555C35.9219 11.0275 35.656 10.7617 35.3281 10.7617H31.9141Z" fill="white"/></g><defs><clipPath id="clip0_1536_325"><rect width="38" height="38" fill="white"/></clipPath></defs></svg>