<svg width="38" height="38" viewBox="0 0 38 38" fill="none" xmlns="http://www.w3.org/2000/svg">
<path d="M37.3667 12.35H34.2C34.2001 12.2668 34.1838 12.1844 34.152 12.1075C34.1202 12.0307 34.0735 11.9608 34.0147 11.902C33.9559 11.8432 33.886 11.7965 33.8091 11.7647C33.7323 11.7329 33.6499 11.7166 33.5667 11.7167H31.0334C30.9502 11.7166 30.8678 11.7329 30.7909 11.7647C30.7141 11.7965 30.6442 11.8432 30.5854 11.902C30.5266 11.9608 30.4799 12.0307 30.4481 12.1075C30.4163 12.1844 30.4 12.2668 30.4001 12.35H22.1667C22.1668 12.2668 22.1504 12.1844 22.1186 12.1075C22.0868 12.0307 22.0402 11.9608 21.9814 11.902C21.9225 11.8432 21.8527 11.7965 21.7758 11.7647C21.699 11.7329 21.6166 11.7166 21.5334 11.7167H19C18.9168 11.7166 18.8344 11.7329 18.7576 11.7647C18.6807 11.7965 18.6108 11.8432 18.552 11.902C18.4932 11.9608 18.4465 12.0307 18.4147 12.1075C18.3829 12.1844 18.3666 12.2668 18.3667 12.35V12.3506H9.5C9.50008 12.2674 9.48375 12.185 9.45195 12.1081C9.42015 12.0313 9.37351 11.9614 9.31468 11.9026C9.25586 11.8438 9.18601 11.7971 9.10914 11.7653C9.03227 11.7335 8.94988 11.7172 8.86669 11.7173H6.33331C6.25013 11.7171 6.16774 11.7333 6.09085 11.765C6.01396 11.7967 5.94409 11.8433 5.88524 11.9021C5.8264 11.9609 5.77975 12.0307 5.74796 12.1076C5.71617 12.1844 5.69987 12.2668 5.7 12.35V12.3506H2.50229C2.03998 12.3734 1.63845 12.6761 1.31033 13.2499C0.612453 14.471 0.0620469 17.3217 0 19.95C0 19.95 0 23.1167 0.713168 24.6912C0.808836 24.9014 1.03617 25.0167 1.26669 25.0167H3.51886C3.95838 25.7704 4.76655 26.2834 5.70007 26.2834C6.6336 26.2834 7.44177 25.7704 7.88129 25.0167H18.7189C19.1584 25.7704 19.9666 26.2834 20.9001 26.2834C21.8336 26.2834 22.6418 25.7704 23.0813 25.0167H26.3189C26.7584 25.7704 27.5666 26.2834 28.5001 26.2834C29.4336 26.2834 30.2418 25.7704 30.6813 25.0167H32.3C32.3507 25.0104 32.4007 25.004 32.4513 24.9983L37.5205 23.7311C37.6575 23.6967 37.779 23.6176 37.8659 23.5064C37.9528 23.3951 38 23.2579 38 23.1167V12.9833C37.9999 12.8153 37.9332 12.6543 37.8144 12.5355C37.6957 12.4168 37.5346 12.35 37.3667 12.35ZM2.16793 18.05C1.78541 18.05 1.49024 17.7162 1.53967 17.3368C1.61819 16.7358 1.72648 15.9701 1.81138 15.421C1.83424 15.2714 1.90991 15.1349 2.02469 15.0363C2.13948 14.9377 2.28578 14.8834 2.43712 14.8833H5.7C5.86795 14.8834 6.029 14.9501 6.14775 15.0688C6.26651 15.1876 6.33325 15.3487 6.33331 15.5166V17.4166C6.33325 17.5845 6.26651 17.7456 6.14775 17.8644C6.029 17.9831 5.86795 18.0498 5.7 18.0499L2.16793 18.05ZM5.7 25.0167C5.00145 25.0167 4.43331 24.4486 4.43331 23.75C4.43331 23.0514 5.00138 22.4833 5.7 22.4833C6.39855 22.4833 6.96669 23.0514 6.96669 23.75C6.96669 24.4486 6.39855 25.0167 5.7 25.0167ZM13.3 21.85C13.2999 22.0179 13.2332 22.179 13.1144 22.2977C12.9957 22.4165 12.8346 22.4832 12.6667 22.4833H10.7667C10.5987 22.4832 10.4377 22.4165 10.3189 22.2977C10.2002 22.179 10.1334 22.0179 10.1334 21.85V15.5167C10.1334 15.3487 10.2002 15.1877 10.3189 15.0689C10.4377 14.9502 10.5987 14.8834 10.7667 14.8834H12.6667C12.8346 14.8834 12.9957 14.9502 13.1144 15.0689C13.2332 15.1877 13.2999 15.3487 13.3 15.5167V21.85ZM20.9 25.0167C20.2015 25.0167 19.6333 24.4486 19.6333 23.75C19.6333 23.0514 20.2014 22.4833 20.9 22.4833C21.5985 22.4833 22.1667 23.0514 22.1667 23.75C22.1667 24.4486 21.5985 25.0167 20.9 25.0167ZM23.4333 17.4167C23.4333 17.5846 23.3665 17.7457 23.2478 17.8644C23.129 17.9832 22.9679 18.0499 22.8 18.05H19.6333C19.4654 18.0499 19.3043 17.9832 19.1856 17.8644C19.0668 17.7457 19.0001 17.5846 19 17.4167V15.5167C19.0001 15.3487 19.0668 15.1877 19.1856 15.0689C19.3043 14.9502 19.4654 14.8834 19.6333 14.8834H22.8C22.9679 14.8834 23.129 14.9502 23.2478 15.0689C23.3665 15.1877 23.4333 15.3487 23.4333 15.5167V17.4167ZM28.5 25.0167C27.8015 25.0167 27.2333 24.4486 27.2333 23.75C27.2333 23.0514 27.8014 22.4833 28.5 22.4833C29.1985 22.4833 29.7667 23.0514 29.7667 23.75C29.7667 24.4486 29.1985 25.0167 28.5 25.0167ZM32.9333 17.4167C32.9333 17.5846 32.8665 17.7457 32.7477 17.8644C32.629 17.9832 32.4679 18.0499 32.3 18.05H29.1333C28.9654 18.0499 28.8043 17.9832 28.6856 17.8644C28.5668 17.7457 28.5001 17.5846 28.5 17.4167V15.5167C28.5001 15.3487 28.5668 15.1877 28.6856 15.0689C28.8043 14.9502 28.9654 14.8834 29.1333 14.8834H32.3C32.4679 14.8834 32.629 14.9502 32.7477 15.0689C32.8665 15.1877 32.9333 15.3487 32.9333 15.5167V17.4167Z" fill="white"/>
</svg>
