<svg width="28" height="28" viewBox="0 0 28 28" fill="none" xmlns="http://www.w3.org/2000/svg"><path d="M27.5334 5.75989H7.93335C7.67528 5.75989 7.4667 6.00117 7.4667 6.2984V12.2932C7.46675 12.4169 7.51592 12.5356 7.60343 12.6231C7.69093 12.7106 7.8096 12.7598 7.93335 12.7598H27.5334C27.6571 12.7598 27.7758 12.7106 27.8633 12.6231C27.9508 12.5356 28 12.4169 28 12.2932V6.2984C28 6.00111 27.7914 5.75989 27.5334 5.75989Z" fill="white"/><path d="M27.5333 17.4265C27.657 17.4264 27.7757 17.3773 27.8632 17.2898C27.9507 17.2023 27.9999 17.0836 27.9999 16.9598V14.1598C28 13.9023 27.7909 13.6932 27.5334 13.6932H22.2009C22.5135 13.8567 22.7937 14.0424 23.047 14.2458C23.6713 14.7471 24.1145 15.3417 24.4755 15.9331L26.2503 16.5248L26.2504 16.5248C26.4056 16.5765 26.5406 16.6758 26.6362 16.8085C26.7319 16.9412 26.7833 17.1006 26.7833 17.2642V17.4265H27.5333Z" fill="white"/><path fill-rule="evenodd" clip-rule="evenodd" d="M6.96819 17.4265C6.72215 17.712 6.57922 18.0809 6.56113 18.4664L6.52147 19.3151C6.43084 19.3151 6.34392 19.3511 6.27983 19.4152C6.27182 19.4232 6.26425 19.4316 6.25713 19.4403C6.2073 19.5011 6.17972 19.5775 6.17969 19.6568V21.024C6.17969 21.0297 6.17983 21.0353 6.18011 21.041C6.18433 21.1254 6.21974 21.2056 6.27983 21.2657C6.28784 21.2737 6.29621 21.2813 6.3049 21.2884C6.36571 21.3382 6.44217 21.3658 6.52147 21.3658H7.88866C8.07835 21.3658 8.23011 21.21 8.23044 21.0203C8.23044 21.0195 8.23053 21.0186 8.23061 21.0178C8.2307 21.0168 8.2308 21.0159 8.2308 21.0148C8.2335 20.3224 8.53024 19.6992 9.00268 19.2639C9.42881 18.8712 9.99788 18.6314 10.6231 18.6314C10.6674 18.6314 10.7114 18.6326 10.7551 18.635C12.0125 18.7034 13.0116 19.7426 13.0156 21.0162C13.0156 21.0188 13.0156 21.0214 13.0156 21.024C13.0141 21.037 13.0133 21.0496 13.0132 21.062C13.0117 21.2477 13.1674 21.3658 13.3574 21.3658H19.5098C19.6995 21.3658 19.8513 21.2099 19.8516 21.0202V21.0201C19.8516 21.0197 19.8516 21.0193 19.8516 21.0189C19.8517 21.0185 19.8517 21.0181 19.8517 21.0177C19.8518 21.0172 19.8518 21.0167 19.8519 21.0162C19.8519 21.0158 19.8519 21.0153 19.8519 21.0149V21.0147C19.857 19.6978 20.9259 18.6314 22.2442 18.6314C22.4839 18.6314 22.7154 18.6666 22.9338 18.7323C23.2757 18.835 23.5854 19.0122 23.844 19.2449C24.3307 19.6829 24.6368 20.3177 24.6368 21.0239C24.6352 21.0369 24.6344 21.0496 24.6343 21.062C24.6328 21.2477 24.7885 21.3657 24.9785 21.3657H26.3457C26.4364 21.3657 26.5233 21.3297 26.5874 21.2656C26.6514 21.2015 26.6875 21.1146 26.6875 21.024V19.6568C26.6876 19.4681 26.5345 19.315 26.3458 19.315V17.2642C26.3458 17.1925 26.3233 17.1225 26.2813 17.0643C26.2393 17.0061 26.1801 16.9625 26.112 16.9399L24.1836 16.297C23.5495 15.223 22.7079 14.1943 21.0362 13.6932C20.8083 13.6249 20.5651 13.5664 20.3049 13.5189C20.2875 13.5158 20.2701 13.5127 20.2526 13.5096L20.2403 13.5076C18.3251 13.2428 16.6343 13.3055 15.1762 13.6932C14.7672 13.8019 14.3766 13.9362 14.0044 14.0959C13.6775 14.2363 13.3649 14.3963 13.0666 14.5759C12.3392 15.0141 11.6972 15.569 11.1426 16.2402C9.68074 16.2614 8.18842 16.567 7.31071 17.1289C7.18103 17.212 7.0664 17.3126 6.96819 17.4265ZM17.0672 16.1888C17.0992 16.1567 17.1173 16.1133 17.1173 16.068V14.2469C17.1173 14.1464 17.0291 14.0657 16.9289 14.0746C15.8327 14.1716 14.8583 14.4264 14 14.841C13.672 14.9994 13.361 15.1812 13.0666 15.3863C12.8252 15.5546 12.595 15.7386 12.3758 15.9384C12.2593 16.0447 12.3311 16.2389 12.489 16.2389H16.9464C16.9917 16.2389 17.0351 16.2208 17.0672 16.1888ZM21.1729 16.1893C21.2049 16.1577 21.2231 16.1147 21.2236 16.0696L21.2373 14.6081C21.238 14.5357 21.1945 14.4697 21.1265 14.4447C20.8305 14.3364 20.5052 14.2482 20.1401 14.184C19.3735 14.078 18.6522 14.0284 17.9707 14.0291C17.8764 14.0291 17.8008 14.107 17.8008 14.2017V16.0679C17.8008 16.1132 17.8189 16.1567 17.8509 16.1888C17.883 16.2208 17.9264 16.2388 17.9718 16.2388H21.0527C21.0977 16.2388 21.1409 16.221 21.1729 16.1893ZM22.0781 16.2388H23.0075C23.1496 16.2388 23.2283 16.0761 23.1428 15.9623C22.8691 15.5973 22.5618 15.2756 22.1923 15.0056C22.0785 14.9222 21.9175 14.9988 21.9161 15.14L21.9072 16.0662C21.907 16.0888 21.9113 16.1112 21.9198 16.1322C21.9282 16.1531 21.9408 16.1721 21.9567 16.1882C21.9726 16.2042 21.9915 16.217 22.0123 16.2257C22.0332 16.2344 22.0556 16.2388 22.0781 16.2388Z" fill="white"/><path fill-rule="evenodd" clip-rule="evenodd" d="M13.0588 14.074C12.2603 14.5211 11.551 15.0982 10.9359 15.8074C9.50114 15.8527 8.00937 16.1622 7.07482 16.7605L7.07472 16.7605C6.80498 16.9333 6.58841 17.1633 6.4303 17.4265H5.6C5.6 18.456 4.76284 19.2932 3.73335 19.2932C3.04549 19.2932 2.45 18.9152 2.12614 18.3598H0.466648C0.342899 18.3598 0.22423 18.3106 0.136726 18.2231C0.049222 18.1356 4.34845e-05 18.0169 0 17.8932V13.2265C0.00445601 13.2033 0.00891201 13.1804 0.0133646 13.1574L0.0133784 13.1574L0.0134204 13.1571L0.0134351 13.1571L0.0134786 13.1568C0.0201902 13.1222 0.026894 13.0877 0.0335781 13.0525L1.89984 8.38675C1.9345 8.30011 1.99432 8.22584 2.07159 8.17352C2.14886 8.12121 2.24004 8.09324 2.33335 8.09324H6.0667C6.19045 8.09328 6.30912 8.14246 6.39663 8.22997C6.48413 8.31747 6.53331 8.43614 6.53335 8.55989V13.2265C6.5334 13.3503 6.58257 13.469 6.67008 13.5565C6.75758 13.644 6.87625 13.6931 7 13.6932H12.6C12.8283 13.6932 13.0184 13.8574 13.0588 14.074ZM1.29221 12.436C1.22735 12.59 1.34028 12.7599 1.50735 12.7599H3.9667C4.02859 12.7599 4.08793 12.7353 4.13169 12.6915C4.17545 12.6478 4.20004 12.5884 4.20005 12.5265V10.1932C4.20004 10.1314 4.17545 10.072 4.13169 10.0283C4.08793 9.98449 4.02859 9.9599 3.9667 9.95989H2.48828C2.44241 9.95988 2.39756 9.97342 2.35937 9.99883C2.32118 10.0242 2.29135 10.0604 2.27363 10.1027L1.29221 12.436ZM2.8 17.4265C2.8 17.9413 3.21863 18.3599 3.73335 18.3599C4.24807 18.3599 4.66665 17.9413 4.6667 17.4265C4.6667 16.9118 4.24807 16.4932 3.73335 16.4932C3.21858 16.4932 2.8 16.9118 2.8 17.4265Z" fill="white"/><path fill-rule="evenodd" clip-rule="evenodd" d="M8.91405 21.1334C8.91405 20.191 9.68074 19.4244 10.6231 19.4244C11.5654 19.4244 12.3321 20.1911 12.3321 21.1334C12.3321 22.0758 11.5654 22.8424 10.6231 22.8424C9.6807 22.8424 8.91405 22.0757 8.91405 21.1334ZM9.59766 21.1334C9.59766 21.6987 10.0577 22.1588 10.6231 22.1588C11.1884 22.1588 11.6485 21.6987 11.6485 21.1334C11.6485 20.5681 11.1884 20.108 10.6231 20.108C10.0577 20.108 9.59766 20.5681 9.59766 21.1334Z" fill="white"/><path fill-rule="evenodd" clip-rule="evenodd" d="M20.5352 21.1334C20.5352 20.191 21.3019 19.4244 22.2443 19.4244C23.1866 19.4244 23.9532 20.1911 23.9533 21.1334C23.9533 22.0758 23.1866 22.8424 22.2443 22.8424C21.3019 22.8424 20.5352 22.0757 20.5352 21.1334ZM21.2189 21.1334C21.2189 21.6987 21.6789 22.1588 22.2443 22.1588C22.8096 22.1588 23.2696 21.6987 23.2696 21.1334C23.2696 20.5681 22.8096 20.108 22.2443 20.108C21.6789 20.108 21.2189 20.5681 21.2189 21.1334Z" fill="white"/></svg>