<svg width="48" height="48" viewBox="0 0 48 48" fill="none" xmlns="http://www.w3.org/2000/svg">
<path d="M24 3C29.5695 3 34.911 5.21249 38.8492 9.15076C42.7875 13.089 45 18.4305 45 24C45 29.5695 42.7875 34.911 38.8492 38.8492C34.911 42.7875 29.5695 45 24 45C18.4305 45 13.089 42.7875 9.15076 38.8492C5.21249 34.911 3 29.5695 3 24C3 18.4305 5.21249 13.089 9.15076 9.15076C13.089 5.21249 18.4305 3 24 3ZM24 12C23.6191 11.9997 23.2424 12.0788 22.8938 12.2323C22.5452 12.3858 22.2325 12.6103 21.9756 12.8915C21.7187 13.1727 21.5232 13.5044 21.4017 13.8654C21.2802 14.2263 21.2354 14.6087 21.27 14.988L22.365 27.006C22.4075 27.41 22.598 27.7841 22.8999 28.0559C23.2018 28.3278 23.5937 28.4782 24 28.4782C24.4063 28.4782 24.7982 28.3278 25.1001 28.0559C25.402 27.7841 25.5925 27.41 25.635 27.006L26.727 14.988C26.7616 14.6089 26.7168 14.2268 26.5955 13.8661C26.4742 13.5053 26.279 13.1738 26.0224 12.8926C25.7659 12.6115 25.4535 12.3869 25.1053 12.2332C24.7571 12.0795 24.3806 12.0001 24 12ZM24 36C24.6365 36 25.247 35.7471 25.6971 35.2971C26.1471 34.847 26.4 34.2365 26.4 33.6C26.4 32.9635 26.1471 32.353 25.6971 31.9029C25.247 31.4529 24.6365 31.2 24 31.2C23.3635 31.2 22.753 31.4529 22.3029 31.9029C21.8529 32.353 21.6 32.9635 21.6 33.6C21.6 34.2365 21.8529 34.847 22.3029 35.2971C22.753 35.7471 23.3635 36 24 36Z" fill="#F06423"/>
</svg>
