<svg width="55" height="55" viewBox="0 0 55 55" fill="none" xmlns="http://www.w3.org/2000/svg"><g clip-path="url(#clip0_387_9958)"><path d="M27.7501 30.9141C28.6239 30.9141 29.3322 30.2058 29.3322 29.332C29.3322 28.4583 28.6239 27.75 27.7501 27.75C26.8764 27.75 26.1681 28.4583 26.1681 29.332C26.1681 30.2058 26.8764 30.9141 27.7501 30.9141Z" fill="url(#paint0_linear_387_9958)"/><path d="M27.7501 0.75C12.8835 0.75 0.750122 12.8841 0.750122 27.75C0.750122 42.617 12.8842 54.75 27.7501 54.75C42.617 54.75 54.7501 42.6159 54.7501 27.75C54.7501 12.8833 42.616 0.75 27.7501 0.75ZM27.7501 7.18359C38.0147 7.18359 46.5467 14.7423 48.0731 24.5859H42.5867C39.1082 24.5859 35.8032 23.1901 33.5193 20.7563C30.3974 17.4291 25.1032 17.4281 21.981 20.7562C19.6971 23.1901 16.3921 24.5859 12.9134 24.5859H7.42714C8.95359 14.7423 17.4856 7.18359 27.7501 7.18359ZM27.7501 34.0781C25.1332 34.0781 23.004 31.9491 23.004 29.332C23.004 26.7149 25.1332 24.5859 27.7501 24.5859C30.3672 24.5859 32.4962 26.7149 32.4962 29.332C32.4962 31.9491 30.3672 34.0781 27.7501 34.0781ZM8.59911 35.2485C10.41 34.5381 11.7176 34.0781 13.5118 34.0781C19.2797 34.0781 23.7654 39.218 22.8966 44.9931H22.8929C22.764 45.8729 22.5117 46.7302 22.1435 47.5396C15.9463 45.7815 10.9311 41.1839 8.59911 35.2485ZM33.358 47.5392C32.9891 46.7301 32.7364 45.8729 32.6074 44.9931H32.6037C31.5913 38.2637 37.8034 32.711 44.2426 34.3475C44.9214 34.52 45.7708 34.8052 46.901 35.2486C44.5692 41.1834 39.5546 45.7808 33.358 47.5392Z" fill="url(#paint1_linear_387_9958)"/></g><defs><linearGradient id="paint0_linear_387_9958" x1="25.9166" y1="30.6813" x2="29.9139" y2="30.0224" gradientUnits="userSpaceOnUse"><stop stop-color="#FABD2F"/><stop offset="1" stop-color="#DB924B"/></linearGradient><linearGradient id="paint1_linear_387_9958" x1="-3.54149" y1="50.7783" x2="64.6789" y2="39.532" gradientUnits="userSpaceOnUse"><stop stop-color="#FABD2F"/><stop offset="1" stop-color="#DB924B"/></linearGradient><clipPath id="clip0_387_9958"><rect width="54" height="54" fill="white" transform="translate(0.750122 0.75)"/></clipPath></defs></svg>