<svg width="50" height="50" viewBox="0 0 50 50" fill="none" xmlns="http://www.w3.org/2000/svg">
<path fill-rule="evenodd" clip-rule="evenodd" d="M20.3872 10.6341C28.115 9.75368 35.914 2.63388 42.4831 6.72896C49.2197 10.9285 49.7129 20.637 48.9508 28.4403C48.2572 35.5422 44.8703 42.7294 38.6135 46.3494C33.1549 49.5076 26.6173 46.0923 20.3872 44.9663C15.8668 44.1492 11.2823 43.7598 7.82462 40.7843C4.1202 37.5965 1.98138 33.2147 1.18276 28.4403C0.194396 22.5314 -1.54952 15.3502 2.88288 11.2406C7.29726 7.14758 14.3582 11.321 20.3872 10.6341Z" fill="#EDD9C1"/>
<path d="M27.0449 8.72559C27.4637 8.7257 27.786 9.06694 27.7861 9.47363V14.7148C27.7861 17.6932 30.2191 20.1349 33.168 20.1514C34.3927 20.1514 35.3603 20.167 36.1016 20.167C36.6011 20.167 37.4225 20.1514 38.1152 20.1514C38.5181 20.1514 38.8408 20.4769 38.8408 20.8838V33.9697C38.8406 38.006 35.6017 41.2772 31.6055 41.2773H18.7773C14.5877 41.2771 11.1719 37.843 11.1719 33.6113V16.0654C11.1721 12.0291 14.427 8.72559 18.4395 8.72559H27.0449ZM20.0029 29.7217C19.3423 29.7218 18.7949 30.2595 18.7949 30.9268C18.7951 31.5938 19.3425 32.1473 20.0029 32.1475H28.7695C29.4301 32.1475 29.9783 31.5939 29.9785 30.9268C29.9785 30.2594 29.4302 29.7217 28.7695 29.7217H20.0029ZM20.0029 21.584C19.3423 21.5841 18.7949 22.1375 18.7949 22.8047C18.7949 23.4719 19.3423 24.0086 20.0029 24.0088H25.4502C26.1108 24.0087 26.6582 23.4719 26.6582 22.8047C26.6582 22.1374 26.1108 21.5841 25.4502 21.584H20.0029ZM30.1357 10.2002C30.1357 9.4988 30.9781 9.15037 31.46 9.65625C33.2019 11.4856 36.2465 14.6836 37.9482 16.4707C38.4188 16.9638 38.0739 17.7825 37.3955 17.7842C36.0709 17.7891 34.5089 17.7848 33.3857 17.7734C31.6036 17.7733 30.1357 16.2903 30.1357 14.4902V10.2002Z" fill="#4E4E4E"/>
</svg>
