<svg width="25" height="24" viewBox="0 0 25 24" fill="none" xmlns="http://www.w3.org/2000/svg">
<path d="M20.75 10C20.75 10.4142 21.0858 10.75 21.5 10.75C21.9142 10.75 22.25 10.4142 22.25 10H20.75ZM14.5 2.25C14.0858 2.25 13.75 2.58579 13.75 3C13.75 3.41421 14.0858 3.75 14.5 3.75V2.25ZM21.3474 3.76441L22.0157 3.42392L22.0157 3.42392L21.3474 3.76441ZM20.7356 3.15259L21.0761 2.48434L21.0761 2.48434L20.7356 3.15259ZM20.6303 4.93033C20.9232 4.63744 20.9232 4.16256 20.6303 3.86967C20.3374 3.57678 19.8626 3.57678 19.5697 3.86967L20.6303 4.93033ZM11.9697 11.4697C11.6768 11.7626 11.6768 12.2374 11.9697 12.5303C12.2626 12.8232 12.7374 12.8232 13.0303 12.5303L11.9697 11.4697ZM5.3614 20.6284L5.70189 19.9602L5.70189 19.9602L5.3614 20.6284ZM3.87157 19.1386L3.20331 19.4791L3.20331 19.4791L3.87157 19.1386ZM18.1284 19.1386L17.4602 18.7981L17.4602 18.7981L18.1284 19.1386ZM16.6386 20.6284L16.2981 19.9602L16.2981 19.9602L16.6386 20.6284ZM5.3614 6.37157L5.0209 5.70331L5.0209 5.70331L5.3614 6.37157ZM3.87157 7.8614L3.20331 7.5209L3.20331 7.5209L3.87157 7.8614ZM11 6.75C11.4142 6.75 11.75 6.41421 11.75 6C11.75 5.58579 11.4142 5.25 11 5.25V6.75ZM19.25 13.5C19.25 13.0858 18.9142 12.75 18.5 12.75C18.0858 12.75 17.75 13.0858 17.75 13.5H19.25ZM21.5 10H22.25V5.24H21.5H20.75V10H21.5ZM19.26 3V2.25H14.5V3V3.75H19.26V3ZM21.5 5.24H22.25C22.25 4.86034 22.2506 4.53049 22.2284 4.25941C22.2056 3.97957 22.1548 3.69701 22.0157 3.42392L21.3474 3.76441L20.6792 4.10491C20.6926 4.13129 20.7181 4.19449 20.7334 4.38156C20.7494 4.57738 20.75 4.83559 20.75 5.24H21.5ZM19.26 3V3.75C19.6644 3.75 19.9226 3.75058 20.1184 3.76658C20.3055 3.78187 20.3687 3.8074 20.3951 3.82085L20.7356 3.15259L21.0761 2.48434C20.803 2.34519 20.5204 2.29443 20.2406 2.27156C19.9695 2.24942 19.6397 2.25 19.26 2.25V3ZM21.3474 3.76441L22.0157 3.42392C21.8095 3.01937 21.4806 2.69047 21.0761 2.48434L20.7356 3.15259L20.3951 3.82085C20.5174 3.88316 20.6168 3.9826 20.6792 4.10491L21.3474 3.76441ZM20.1 4.4L19.5697 3.86967L11.9697 11.4697L12.5 12L13.0303 12.5303L20.6303 4.93033L20.1 4.4ZM13.0455 21V20.25H8.95455V21V21.75H13.0455V21ZM3.5 15.5455H4.25V11.4545H3.5H2.75V15.5455H3.5ZM8.95455 21V20.25C7.98754 20.25 7.30738 20.2494 6.77654 20.206C6.25444 20.1634 5.94316 20.0831 5.70189 19.9602L5.3614 20.6284L5.0209 21.2967C5.50888 21.5453 6.03953 21.6508 6.65439 21.7011C7.26049 21.7506 8.01229 21.75 8.95455 21.75V21ZM3.5 15.5455H2.75C2.75 16.4877 2.74942 17.2395 2.79894 17.8456C2.84917 18.4605 2.95468 18.9911 3.20331 19.4791L3.87157 19.1386L4.53982 18.7981C4.41689 18.5568 4.33661 18.2456 4.29396 17.7235C4.25058 17.1926 4.25 16.5125 4.25 15.5455H3.5ZM5.3614 20.6284L5.70189 19.9602C5.20155 19.7052 4.79476 19.2985 4.53982 18.7981L3.87157 19.1386L3.20331 19.4791C3.60206 20.2617 4.23832 20.8979 5.0209 21.2967L5.3614 20.6284ZM18.5 15.5455H17.75C17.75 16.5125 17.7494 17.1926 17.706 17.7235C17.6634 18.2456 17.5831 18.5568 17.4602 18.7981L18.1284 19.1386L18.7967 19.4791C19.0453 18.9911 19.1508 18.4605 19.2011 17.8456C19.2506 17.2395 19.25 16.4877 19.25 15.5455H18.5ZM13.0455 21V21.75C13.9877 21.75 14.7395 21.7506 15.3456 21.7011C15.9605 21.6508 16.4911 21.5453 16.9791 21.2967L16.6386 20.6284L16.2981 19.9602C16.0568 20.0831 15.7456 20.1634 15.2235 20.206C14.6926 20.2494 14.0125 20.25 13.0455 20.25V21ZM18.1284 19.1386L17.4602 18.7981C17.2052 19.2985 16.7985 19.7052 16.2981 19.9602L16.6386 20.6284L16.9791 21.2967C17.7617 20.8979 18.3979 20.2617 18.7967 19.4791L18.1284 19.1386ZM8.95455 6V5.25C8.01229 5.25 7.26049 5.24942 6.65439 5.29894C6.03953 5.34917 5.50888 5.45468 5.0209 5.70331L5.3614 6.37157L5.70189 7.03982C5.94316 6.91689 6.25444 6.83661 6.77654 6.79396C7.30738 6.75058 7.98753 6.75 8.95455 6.75V6ZM3.5 11.4545H4.25C4.25 10.4875 4.25058 9.80738 4.29396 9.27654C4.33661 8.75444 4.41689 8.44316 4.53982 8.20189L3.87157 7.8614L3.20331 7.5209C2.95468 8.00888 2.84917 8.53953 2.79894 9.15439C2.74942 9.76049 2.75 10.5123 2.75 11.4545H3.5ZM5.3614 6.37157L5.0209 5.70331C4.23832 6.10206 3.60206 6.73832 3.20331 7.5209L3.87157 7.8614L4.53982 8.20189C4.79476 7.70155 5.20155 7.29476 5.70189 7.03982L5.3614 6.37157ZM8.95455 6V6.75H11V6V5.25H8.95455V6ZM18.5 13.5H17.75V15.5455H18.5H19.25V13.5H18.5Z" fill="#252525"/>
</svg>
