<svg width="50" height="50" viewBox="0 0 50 50" fill="none" xmlns="http://www.w3.org/2000/svg">
<g clip-path="url(#clip0_3984_3798)">
<path fill-rule="evenodd" clip-rule="evenodd" d="M15.7727 19.1215C18.6623 14.3825 17.7114 10.2883 22.7304 7.91821C28.2828 5.29614 32.4847 4.35978 37.6814 7.63091C42.8632 10.8928 47.4507 13.8845 47.7062 20.0022C47.9359 25.5042 42.2642 28.8488 39.5211 33.6238C36.5631 38.7728 36.7917 46.4849 31.2567 48.636C25.5403 50.8576 19.3998 46.8846 14.3482 43.4069C9.56542 40.1142 4.55351 35.8377 4.24393 30.0394C3.95463 24.6208 12.9478 23.7544 15.7727 19.1215Z" fill="#EDD9C1"/>
<path fill-rule="evenodd" clip-rule="evenodd" d="M34.3921 19.111H41.2786C41.2786 13.5817 37.9656 10.3516 32.3521 10.3516H17.6531C12.0396 10.3516 8.72656 13.5817 8.72656 19.0405V30.9595C8.72656 36.4183 12.0396 39.6484 17.6531 39.6484H32.3521C37.9656 39.6484 41.2786 36.4183 41.2786 30.9595V30.4517H34.3921C31.196 30.4517 28.605 27.9257 28.605 24.8096C28.605 21.6935 31.196 19.1674 34.3921 19.1674V19.111ZM34.3897 21.537H40.061C40.7322 21.537 41.2763 22.0675 41.2763 22.7219V26.8406C41.2684 27.4918 40.7289 28.0179 40.061 28.0255H34.5199C32.9019 28.0467 31.487 26.9666 31.12 25.4301C30.9362 24.4763 31.1942 23.492 31.8249 22.7411C32.4555 21.9902 33.3943 21.5495 34.3897 21.537ZM34.6332 25.8674H35.1685C35.8557 25.8674 36.4127 25.3243 36.4127 24.6543C36.4127 23.9844 35.8557 23.4413 35.1685 23.4413H34.6332C34.3046 23.4375 33.988 23.5621 33.7543 23.7874C33.5205 24.0127 33.389 24.3198 33.389 24.6402C33.3889 25.3125 33.9437 25.8597 34.6332 25.8674ZM16.4367 19.1117H25.6236C26.3108 19.1117 26.8678 18.5686 26.8678 17.8986C26.8678 17.2287 26.3108 16.6855 25.6236 16.6855H16.4367C15.7551 16.6855 15.2004 17.2201 15.1925 17.8845C15.1924 18.5568 15.7472 19.1039 16.4367 19.1117Z" fill="#4E4E4E"/>
</g>
<defs>
<clipPath id="clip0_3984_3798">
<rect width="50" height="50" fill="white"/>
</clipPath>
</defs>
</svg>
