<svg width="50" height="50" viewBox="0 0 50 50" fill="none" xmlns="http://www.w3.org/2000/svg">
<g clip-path="url(#clip0_3984_3729)">
<path fill-rule="evenodd" clip-rule="evenodd" d="M43.7841 10.7232C48.1872 15.3266 48.81 24.5466 46.4204 30.4515C44.1117 36.1564 41.365 39.9601 35.6111 43.2821C32.2789 45.206 26.8138 47.3699 22.9216 47.4152C18.0811 47.4716 12.6632 45.5707 8.95232 42.4623C4.28367 38.5517 -1.11648 33.0025 0.40542 27.1056C1.91997 21.2372 11.2143 19.5518 16.4996 16.5857C20.6529 14.2548 21.7147 5.64662 26.1913 3.3095C31.9225 0.317358 39.7996 6.55755 43.7841 10.7232Z" fill="#EDD9C1"/>
<path d="M28.9333 14.4045C28.1585 14.2614 27.4469 14.7559 27.2994 15.5122C27.1519 16.2685 27.6479 17.0069 28.4016 17.1549C30.671 17.5973 32.4232 19.3539 32.8673 21.631V21.6326C32.9937 22.2881 33.5708 22.7647 34.2354 22.7647C34.3245 22.7647 34.4137 22.7566 34.5045 22.7403C35.2582 22.589 35.7542 21.8522 35.6067 21.0943C34.9437 17.6933 32.3259 15.0665 28.9333 14.4045" fill="#4E4E4E"/>
<path d="M28.8332 8.73752C28.4701 8.68547 28.1054 8.79282 27.8152 9.02378C27.517 9.25799 27.3306 9.5963 27.2901 9.97527C27.2041 10.7413 27.7569 11.4342 28.522 11.5204C33.7981 12.1092 37.8991 16.2194 38.4923 21.5119C38.5718 22.2211 39.1666 22.7562 39.8766 22.7562C39.9301 22.7562 39.982 22.753 40.0355 22.7464C40.4066 22.7058 40.7373 22.522 40.9707 22.2292C41.2025 21.9365 41.3079 21.5721 41.2657 21.1997C40.5266 14.5961 35.4158 9.47106 28.8332 8.73752" fill="#4E4E4E"/>
<path fill-rule="evenodd" clip-rule="evenodd" d="M23.4188 26.5827C29.9115 33.0735 31.3844 25.5643 35.5183 29.6953C39.5037 33.6796 41.7943 34.4779 36.7449 39.5259C36.1124 40.0342 32.0938 46.1495 17.971 32.0307C3.84655 17.9102 9.95831 13.8874 10.4667 13.2551C15.5284 8.19311 16.3129 10.497 20.2983 14.4813C24.4322 18.6141 16.9262 20.0918 23.4188 26.5827Z" fill="#4E4E4E"/>
</g>
<defs>
<clipPath id="clip0_3984_3729">
<rect width="50" height="50" fill="white"/>
</clipPath>
</defs>
</svg>
