<svg width="50" height="50" viewBox="0 0 50 50" fill="none" xmlns="http://www.w3.org/2000/svg">
<g clip-path="url(#clip0_3984_3768)">
<path fill-rule="evenodd" clip-rule="evenodd" d="M43.7841 10.7232C48.1872 15.3266 48.81 24.5466 46.4204 30.4515C44.1117 36.1564 41.365 39.9601 35.6111 43.2821C32.2789 45.206 26.5499 42.417 22.6577 42.4623C17.8173 42.5186 9.18114 44.5145 5.47022 41.4061C0.801563 37.4955 0.82332 32.8499 2.34521 26.953C3.85977 21.0846 11.2143 19.5518 16.4996 16.5857C20.6529 14.2548 21.7147 5.64662 26.1913 3.3095C31.9225 0.317358 39.7996 6.55755 43.7841 10.7232Z" fill="#EDD9C1"/>
<g clip-path="url(#clip1_3984_3768)">
<path d="M42.2047 30.8664C40.1953 28.8555 37.4072 28.0036 33.8265 28.9632L21.0581 16.1819L21.2268 15.5437C21.9622 12.7845 21.1676 9.81855 19.1538 7.8047C17.1033 5.75262 14.1882 4.99968 11.4314 5.75697C11.0382 5.86493 10.7322 6.17384 10.6281 6.56805C10.5239 6.96226 10.6381 7.38127 10.9263 7.66958L14.0007 10.744C14.8995 11.645 14.8908 13.0881 14.0029 13.9783C13.1221 14.8614 11.6416 14.8601 10.7642 13.9805L7.68922 10.9052C7.4009 10.6167 6.98068 10.5036 6.58647 10.6083C6.19218 10.713 5.88441 11.0198 5.77683 11.4133C5.0306 14.1399 5.7647 17.073 7.82502 19.1334C9.83354 21.1433 12.6182 21.9983 16.201 21.0366L28.9704 33.818C28.0175 37.3976 28.8395 40.1587 30.8759 42.1951C32.9289 44.2497 35.8453 44.9971 38.5962 44.2423C38.9894 44.1344 39.2955 43.8254 39.3997 43.4312C39.5039 43.037 39.3898 42.6179 39.1015 42.3295L36.0278 39.2558C35.1289 38.3548 35.1377 36.9116 36.0256 36.0216C36.9174 35.1343 38.3946 35.1484 39.2642 36.0204L42.3395 39.0948C42.6278 39.3831 43.048 39.4963 43.4422 39.3915C43.8364 39.2868 44.1441 38.9802 44.2517 38.5867C44.998 35.8606 44.264 32.9267 42.2047 30.8664Z" fill="#4E4E4E"/>
<path d="M17.7172 25.8076L6.80777 36.7184C5.02241 38.5038 5.02241 41.4071 6.80777 43.1923C8.59312 44.9777 11.4964 44.9777 13.2817 43.1923L24.1909 32.2818L17.7172 25.8076ZM12.2066 39.6408C11.7595 40.0879 11.0354 40.0879 10.5884 39.6408C10.1414 39.1938 10.1414 38.4696 10.5884 38.0226L17.5296 31.0801C17.9766 30.6331 18.7008 30.6331 19.1478 31.0801C19.5948 31.5271 19.5948 32.2513 19.1478 32.6983L12.2066 39.6408Z" fill="#4E4E4E"/>
<path d="M44.1938 7.77688L42.2209 5.804C41.8496 5.43267 41.2734 5.36172 40.8231 5.63173L34.7541 9.2727C34.1156 9.65577 34.0071 10.5367 34.5336 11.0632L35.0167 11.5462L27.3125 19.2188L30.55 22.4564L38.2542 14.7837L38.9347 15.4643C39.4612 15.9907 40.3422 15.8824 40.7252 15.2438L44.3662 9.17482C44.6361 8.72445 44.5652 8.1482 44.1938 7.77688Z" fill="#4E4E4E"/>
</g>
</g>
<defs>
<clipPath id="clip0_3984_3768">
<rect width="50" height="50" fill="white"/>
</clipPath>
<clipPath id="clip1_3984_3768">
<rect width="39.0625" height="39.0625" fill="white" transform="translate(5.46875 5.46875)"/>
</clipPath>
</defs>
</svg>
