<svg width="50" height="50" viewBox="0 0 50 50" fill="none" xmlns="http://www.w3.org/2000/svg">
<g clip-path="url(#clip0_3984_3750)">
<path fill-rule="evenodd" clip-rule="evenodd" d="M20.1518 14.9066C24.9119 12.0519 25.9714 7.98451 31.517 8.21671C37.652 8.47359 41.8081 9.59604 44.8908 14.9066C47.9648 20.2021 50.6379 24.9823 48.0226 30.5187C45.6705 35.4979 39.0943 35.8255 34.4472 38.7801C29.436 41.9661 26.0564 48.902 20.1556 48.2362C14.0613 47.5485 10.4687 41.1779 7.61035 35.7517C4.90414 30.6144 2.452 24.4992 4.87098 19.2205C7.13155 14.2875 15.4982 17.6974 20.1518 14.9066Z" fill="#EDD9C1"/>
<path d="M34.1523 34.2041C34.7815 33.5793 35.7908 33.5793 36.4199 34.2041L40.5771 37.5596H40.6494C41.4906 38.4098 41.4905 39.7884 40.6494 40.6387C39.8082 41.4889 38.4447 41.4889 37.6035 40.6387L34.1523 36.6846C33.8263 36.3561 33.6436 35.9096 33.6436 35.4443C33.6436 34.9791 33.8264 34.5326 34.1523 34.2041ZM22.6875 8.72461C26.3902 8.72461 29.9414 10.212 32.5596 12.8584C35.1777 15.5047 36.6484 19.0935 36.6484 22.8359C36.6484 30.6293 30.3979 36.9473 22.6875 36.9473C14.9772 36.9471 8.72656 30.6292 8.72656 22.8359C8.72667 15.0428 14.9773 8.72482 22.6875 8.72461Z" fill="#4E4E4E"/>
</g>
<defs>
<clipPath id="clip0_3984_3750">
<rect width="50" height="50" fill="white"/>
</clipPath>
</defs>
</svg>
