<svg width="50" height="50" viewBox="0 0 50 50" fill="none" xmlns="http://www.w3.org/2000/svg">
<g clip-path="url(#clip0_3984_3786)">
<path fill-rule="evenodd" clip-rule="evenodd" d="M1.79394 15.4717C-1.43863 20.9607 0.0654129 30.0784 3.74314 35.2796C7.29634 40.3047 10.8406 43.3787 17.2022 45.2956C20.8863 46.4056 26.7016 47.2612 30.5009 46.4145C35.2257 45.3614 40.0647 42.2709 42.9656 38.3957C46.6153 33.5203 50.6019 26.8824 47.7707 21.4904C44.9532 16.1244 35.5198 16.6111 29.6959 14.9335C25.1194 13.6151 22.1154 5.47849 17.2228 4.22803C10.9589 2.62711 4.71917 10.5046 1.79394 15.4717Z" fill="#EDD9C1"/>
<g clip-path="url(#clip1_3984_3786)">
<path d="M34.5452 40.2289C32.6076 39.6417 31.5128 37.595 32.1 35.6574C32.6871 33.7199 34.7338 32.6251 36.6714 33.2123C38.609 33.7994 39.7037 35.8461 39.1166 37.7837C38.5294 39.7213 36.4827 40.816 34.5452 40.2289Z" fill="#4E4E4E"/>
<path d="M14.5919 40.3914C12.5673 40.3914 10.926 38.7501 10.926 36.7255C10.926 34.7009 12.5673 33.0596 14.5919 33.0596C16.6165 33.0596 18.2578 34.7009 18.2578 36.7255C18.2578 38.7501 16.6165 40.3914 14.5919 40.3914Z" fill="#4E4E4E"/>
<path d="M5.98374 24.5674C7.06169 22.6749 8.28855 20.8712 9.65271 19.1734C10.2904 18.3845 11.0934 17.7451 12.0051 17.3003C12.9168 16.8556 13.915 16.6162 14.9292 16.5992C16.1499 16.5794 17.3531 16.5679 18.2571 16.5679H18.2663C18.4575 15.6057 18.9555 14.7313 19.6857 14.076C20.4158 13.4207 21.3387 13.0197 22.316 12.9333C23.6321 12.8173 28.7933 12.7334 31.2653 12.7334C33.7372 12.7334 38.8947 12.8173 40.2145 12.9333C41.2757 13.027 42.27 13.4911 43.0233 14.2444C43.7766 14.9977 44.2407 15.992 44.3344 17.0532C44.4473 18.3692 44.5312 22.0931 44.5312 24.5643C44.5312 27.0355 44.4473 30.7586 44.3306 32.0754C44.2512 32.9731 43.9062 33.8268 43.3398 34.5276C42.7733 35.2285 42.0109 35.7448 41.1499 36.0107C40.9731 34.6315 40.288 33.3679 39.2285 32.4674C38.1691 31.5668 36.8116 31.0941 35.422 31.1418C34.0323 31.1896 32.7105 31.7543 31.7153 32.7254C30.7201 33.6965 30.1232 35.0041 30.0415 36.3922C28.3859 36.3799 26.2367 36.3456 24.5766 36.2976C23.2529 36.3387 21.6072 36.3693 20.1622 36.3853C20.0767 34.9941 19.4738 33.6853 18.4721 32.7161C17.4705 31.7469 16.1425 31.1875 14.7493 31.1478C13.356 31.1081 11.9983 31.591 10.9431 32.5016C9.88794 33.4122 9.21154 34.6846 9.04694 36.0687C8.13993 35.8342 7.32782 35.3245 6.72221 34.6097C6.1166 33.895 5.74722 33.0102 5.66483 32.077C5.56412 30.9417 5.48783 28.7277 5.46875 26.554C5.46243 25.858 5.64008 25.1727 5.98374 24.5674ZM9.69849 25.7362H17.9977C17.9977 25.3257 17.9924 24.9313 17.9924 24.5643C17.9924 22.8614 18.0328 20.5634 18.0954 18.869C17.2264 18.869 16.0973 18.8812 14.9635 18.8995C14.2861 18.9109 13.6194 19.0711 13.0107 19.3686C12.4021 19.6662 11.8662 20.0939 11.441 20.6214C10.5138 21.7738 9.6545 22.9792 8.86765 24.2317C8.774 24.3802 8.72191 24.5511 8.71681 24.7265C8.71171 24.902 8.75379 25.0757 8.83866 25.2293C8.92352 25.383 9.04807 25.5111 9.19931 25.6003C9.35054 25.6894 9.52293 25.7363 9.69849 25.7362Z" fill="#4E4E4E"/>
</g>
</g>
<defs>
<clipPath id="clip0_3984_3786">
<rect width="50" height="50" fill="white"/>
</clipPath>
<clipPath id="clip1_3984_3786">
<rect width="39.0625" height="39.0625" fill="white" transform="matrix(-1 0 0 1 44.5312 7.03125)"/>
</clipPath>
</defs>
</svg>
