<svg width="50" height="50" viewBox="0 0 50 50" fill="none" xmlns="http://www.w3.org/2000/svg">
<g clip-path="url(#clip0_3984_3738)">
<path fill-rule="evenodd" clip-rule="evenodd" d="M41.1799 17.4563C43.8203 23.1516 50.9744 27.2458 49.8078 33.382C48.5782 39.85 41.6749 43.1666 35.7727 45.8993C29.4541 48.8249 22.5152 51.4535 15.9153 49.0745C8.98066 46.5747 2.40217 40.7992 1.24428 33.4528C0.174391 26.6648 6.91855 21.8782 10.7434 16.2608C13.404 12.3533 15.7458 8.44189 19.8448 6.13501C24.6863 3.41026 30.4738 -0.261736 35.4292 2.36781C40.3359 4.9715 38.8266 12.3801 41.1799 17.4563Z" fill="#EDD9C1"/>
<g clip-path="url(#clip1_3984_3738)">
<path d="M15.4548 40.2289C17.3924 39.6417 18.4872 37.595 17.9 35.6574C17.3129 33.7199 15.2662 32.6251 13.3286 33.2123C11.391 33.7994 10.2963 35.8461 10.8834 37.7837C11.4706 39.7213 13.5173 40.816 15.4548 40.2289Z" fill="#4E4E4E"/>
<path d="M35.4159 40.3914C37.4406 40.3914 39.0818 38.7501 39.0818 36.7255C39.0818 34.7009 37.4406 33.0596 35.4159 33.0596C33.3913 33.0596 31.75 34.7009 31.75 36.7255C31.75 38.7501 33.3913 40.3914 35.4159 40.3914Z" fill="#4E4E4E"/>
<path d="M44.0163 24.5674C42.9383 22.6749 41.7114 20.8712 40.3473 19.1734C39.7096 18.3845 38.9066 17.7451 37.9949 17.3003C37.0832 16.8556 36.085 16.6162 35.0708 16.5992C33.8501 16.5794 32.6469 16.5679 31.7429 16.5679H31.7337C31.5425 15.6057 31.0445 14.7313 30.3143 14.076C29.5842 13.4207 28.6613 13.0197 27.684 12.9333C26.3679 12.8173 21.2067 12.7334 18.7347 12.7334C16.2628 12.7334 11.1053 12.8173 9.78546 12.9333C8.72431 13.027 7.72997 13.4911 6.9767 14.2444C6.22343 14.9977 5.75928 15.992 5.66559 17.0532C5.55267 18.3692 5.46875 22.0931 5.46875 24.5643C5.46875 27.0355 5.55267 30.7586 5.6694 32.0754C5.74883 32.9731 6.09377 33.8268 6.66025 34.5276C7.22672 35.2285 7.98906 35.7448 8.8501 36.0107C9.02685 34.6315 9.71203 33.3679 10.7715 32.4674C11.8309 31.5668 13.1884 31.0941 14.578 31.1418C15.9677 31.1896 17.2895 31.7543 18.2847 32.7254C19.2799 33.6965 19.8768 35.0041 19.9585 36.3922C21.6141 36.3799 23.7633 36.3456 25.4234 36.2976C26.7471 36.3387 28.3928 36.3693 29.8378 36.3853C29.9233 34.9941 30.5262 33.6853 31.5279 32.7161C32.5295 31.7469 33.8575 31.1875 35.2507 31.1478C36.644 31.1081 38.0017 31.591 39.0569 32.5016C40.1121 33.4122 40.7885 34.6846 40.9531 36.0687C41.8601 35.8342 42.6722 35.3245 43.2778 34.6097C43.8834 33.895 44.2528 33.0102 44.3352 32.077C44.4359 30.9417 44.5122 28.7277 44.5312 26.554C44.5376 25.858 44.3599 25.1727 44.0163 24.5674ZM40.3015 25.7362H32.0023C32.0023 25.3257 32.0076 24.9313 32.0076 24.5643C32.0076 22.8614 31.9672 20.5634 31.9046 18.869C32.7736 18.869 33.9027 18.8812 35.0365 18.8995C35.7139 18.9109 36.3806 19.0711 36.9893 19.3686C37.5979 19.6662 38.1338 20.0939 38.559 20.6214C39.4862 21.7738 40.3455 22.9792 41.1324 24.2317C41.226 24.3802 41.2781 24.5511 41.2832 24.7265C41.2883 24.902 41.2462 25.0757 41.1613 25.2293C41.0765 25.383 40.9519 25.5111 40.8007 25.6003C40.6495 25.6894 40.4771 25.7363 40.3015 25.7362Z" fill="#4E4E4E"/>
</g>
</g>
<defs>
<clipPath id="clip0_3984_3738">
<rect width="50" height="50" fill="white"/>
</clipPath>
<clipPath id="clip1_3984_3738">
<rect width="39.0625" height="39.0625" fill="white" transform="translate(5.46875 7.03125)"/>
</clipPath>
</defs>
</svg>
