<svg width="105" height="73" viewBox="0 0 105 73" fill="none" xmlns="http://www.w3.org/2000/svg">
<g clip-path="url(#clip0_219_4025)">
<path fill-rule="evenodd" clip-rule="evenodd" d="M10.6749 66.9127L9.95727 65.0329H3.85732L3.13968 66.9575C2.87056 67.7183 2.60144 68.2107 2.42203 68.4792C2.24262 68.7478 1.8838 68.882 1.43528 68.882C1.07645 68.882 0.717634 68.7478 0.403665 68.4792C0.089697 68.2107 -0.0448608 67.8974 -0.0448608 67.5393C-0.0448608 67.3155 -8.21427e-06 67.1365 0.0448444 66.9127C0.13455 66.6889 0.224255 66.3756 0.403665 66.0175L4.21614 56.3051C4.30584 56.0365 4.4404 55.6785 4.61981 55.3204C4.75437 54.9176 4.93378 54.6043 5.11319 54.3358C5.2926 54.0672 5.51686 53.8882 5.78598 53.7091C6.0551 53.5301 6.41392 53.4854 6.81759 53.4854C7.22126 53.4854 7.58009 53.5749 7.89405 53.7091C8.16317 53.8882 8.38743 54.0672 8.56684 54.3358C8.74625 54.6043 8.88081 54.8728 9.01537 55.1414C9.14993 55.4099 9.28448 55.8128 9.4639 56.3051L13.3661 65.9728C13.68 66.6889 13.8146 67.226 13.8146 67.5841C13.8146 67.9421 13.68 68.2554 13.3661 68.524C13.097 68.7925 12.7381 68.9716 12.3345 68.9716C12.1102 68.9716 11.8859 68.9268 11.7065 68.8373C11.5271 68.7478 11.3926 68.6583 11.258 68.4792C11.1234 68.3449 11.0337 68.1212 10.8992 67.8079C10.8543 67.405 10.7646 67.1365 10.6749 66.9127ZM4.66466 62.7502H9.14993L6.9073 56.5736L4.66466 62.7502Z" fill="black"/>
<path fill-rule="evenodd" clip-rule="evenodd" d="M18.5241 59.0805V59.4386C19.0624 58.812 19.6006 58.3196 20.1837 58.0063C20.7668 57.693 21.3947 57.5588 22.1123 57.5588C22.9645 57.5588 23.7719 57.7825 24.4895 58.2301C25.2072 58.6777 25.7902 59.3043 26.1939 60.1547C26.5976 61.0051 26.8219 61.9898 26.8219 63.1535C26.8219 64.0039 26.6873 64.8095 26.463 65.5256C26.2388 66.2418 25.88 66.8236 25.4763 67.316C25.0726 67.8083 24.5344 68.1664 23.9961 68.4349C23.4131 68.7035 22.7851 68.8377 22.1572 68.8377C21.3498 68.8377 20.677 68.6587 20.1388 68.3454C19.6006 68.0321 19.0624 67.5398 18.569 66.9579V71.1651C18.569 72.3736 18.1204 73.0002 17.2234 73.0002C16.6852 73.0002 16.3712 72.8212 16.1918 72.5079C16.0124 72.1946 15.9227 71.747 15.9227 71.1204V59.0805C15.9227 58.5434 16.0572 58.1406 16.2815 57.8721C16.5058 57.6035 16.8197 57.4692 17.2234 57.4692C17.6271 57.4692 17.941 57.6035 18.2102 57.8721C18.3896 58.1854 18.5241 58.5882 18.5241 59.0805ZM23.9961 63.1535C23.9961 62.4374 23.9064 61.766 23.6373 61.2737C23.4131 60.7366 23.0991 60.3337 22.6954 60.0652C22.2917 59.7966 21.8432 59.6624 21.3947 59.6624C20.6322 59.6624 19.9594 59.9757 19.466 60.5575C18.9278 61.1841 18.6587 62.0345 18.6587 63.243C18.6587 64.3619 18.9278 65.2123 19.466 65.839C20.0043 66.4656 20.6322 66.7789 21.4395 66.7789C21.8881 66.7789 22.3366 66.6446 22.7403 66.376C23.1439 66.1075 23.4579 65.7047 23.6822 65.1676C23.8616 64.541 23.9961 63.9144 23.9961 63.1535Z" fill="black"/>
<path fill-rule="evenodd" clip-rule="evenodd" d="M31.6211 59.0805V59.4386C32.1593 58.812 32.6976 58.3196 33.2807 58.0063C33.8637 57.693 34.4917 57.5588 35.2093 57.5588C36.0615 57.5588 36.8689 57.7825 37.5865 58.2301C38.3041 58.6777 38.8872 59.3043 39.2909 60.1547C39.6946 61.0051 39.9188 61.9898 39.9188 63.1535C39.9188 64.0039 39.7843 64.8095 39.56 65.5256C39.3358 66.2418 38.9769 66.8236 38.5733 67.316C38.1696 67.8083 37.6314 68.1664 37.0931 68.4349C36.51 68.7035 35.8821 68.8377 35.2542 68.8377C34.4468 68.8377 33.774 68.6587 33.2358 68.3454C32.6976 68.0321 32.1593 67.5398 31.666 66.9579V71.1651C31.666 72.3736 31.2174 73.0002 30.3204 73.0002C29.7821 73.0002 29.4682 72.8212 29.2888 72.5079C29.1094 72.1946 29.0197 71.747 29.0197 71.1204V59.0805C29.0197 58.5434 29.1542 58.1406 29.3785 57.8721C29.6027 57.6035 29.9167 57.4692 30.3204 57.4692C30.7241 57.4692 31.038 57.6035 31.3071 57.8721C31.4866 58.1854 31.6211 58.5882 31.6211 59.0805ZM37.0931 63.1535C37.0931 62.4374 37.0034 61.766 36.7343 61.2737C36.51 60.7366 36.1961 60.3337 35.7924 60.0652C35.3887 59.7966 34.9402 59.6624 34.4917 59.6624C33.7292 59.6624 33.0564 59.9757 32.563 60.5575C32.0248 61.1841 31.7557 62.0345 31.7557 63.243C31.7557 64.3619 32.0248 65.2123 32.563 65.839C33.1012 66.4656 33.7292 66.7789 34.5365 66.7789C34.9851 66.7789 35.4336 66.6446 35.8373 66.376C36.2409 66.1075 36.5549 65.7047 36.7792 65.1676C36.9586 64.541 37.0931 63.9144 37.0931 63.1535Z" fill="black"/>
<path fill-rule="evenodd" clip-rule="evenodd" d="M42.1166 67.1365V55.0519C42.1166 54.5148 42.2512 54.0672 42.4754 53.7987C42.7445 53.5301 43.0585 53.3511 43.4622 53.3511C43.8659 53.3511 44.2247 53.4853 44.4938 53.7539C44.7629 54.0224 44.8975 54.47 44.8975 55.0071V67.0917C44.8975 67.6736 44.7629 68.0764 44.4938 68.3449C44.2247 68.6135 43.9107 68.7478 43.4622 68.7478C43.0585 68.7478 42.7445 68.6135 42.4754 68.3002C42.2512 68.1212 42.1166 67.6736 42.1166 67.1365Z" fill="black"/>
<path fill-rule="evenodd" clip-rule="evenodd" d="M55.5724 63.8693H50.1004C50.1004 64.4959 50.2349 65.0777 50.5041 65.5253C50.7732 66.0177 51.0871 66.3757 51.4908 66.5995C51.8945 66.8681 52.343 66.9576 52.8364 66.9576C53.1504 66.9576 53.4643 66.9128 53.7334 66.8233C54.0026 66.7338 54.2717 66.6443 54.5408 66.4652C54.8099 66.2862 55.0342 66.1072 55.2584 65.9281C55.4827 65.7491 55.7518 65.4806 56.1106 65.1673C56.2452 65.033 56.4695 64.9882 56.7386 64.9882C57.0077 64.9882 57.2768 65.0777 57.4562 65.212C57.6356 65.3463 57.7253 65.5701 57.7253 65.8834C57.7253 66.1519 57.6356 66.4205 57.4114 66.7785C57.2319 67.0918 56.918 67.4499 56.5143 67.7632C56.1106 68.0765 55.6173 68.3451 55.0342 68.5241C54.4511 68.7479 53.7334 68.8374 52.9709 68.8374C51.1768 68.8374 49.7864 68.3451 48.7997 67.3156C47.8129 66.2862 47.3195 64.8987 47.3195 63.1532C47.3195 62.3475 47.4541 61.5866 47.6783 60.8705C47.9026 60.1544 48.2614 59.5725 48.7548 59.0802C49.2482 58.5879 49.7864 58.185 50.5041 57.9165C51.1768 57.6479 51.9393 57.5137 52.7915 57.5137C53.868 57.5137 54.8099 57.7375 55.6173 58.185C56.3797 58.6326 56.9628 59.2592 57.3665 59.9754C57.7702 60.6915 57.9496 61.4524 57.9496 62.2132C57.9496 62.9294 57.7253 63.3769 57.3665 63.6007C56.8731 63.7798 56.3349 63.8693 55.5724 63.8693ZM50.1452 62.3028H55.1687C55.1239 61.3628 54.8548 60.6467 54.4062 60.1544C53.9577 59.662 53.3746 59.4383 52.657 59.4383C51.9393 59.4383 51.4011 59.662 50.9526 60.1544C50.5041 60.6467 50.2349 61.3628 50.1452 62.3028Z" fill="black"/>
<path fill-rule="evenodd" clip-rule="evenodd" d="M79.3891 62.5266V65.3911C79.3891 65.7939 79.3443 66.0625 79.2994 66.2862C79.2097 66.51 79.0752 66.7338 78.8958 66.9129C78.6715 67.0919 78.4472 67.2709 78.1333 67.4499C77.2362 67.9423 76.3392 68.3004 75.5318 68.5241C74.6796 68.7479 73.7826 68.8374 72.7958 68.8374C71.6296 68.8374 70.598 68.6584 69.6561 68.3004C68.7142 67.9423 67.9069 67.4499 67.2341 66.7786C66.5613 66.1072 66.0679 65.3016 65.7091 64.3169C65.3503 63.377 65.1709 62.3028 65.1709 61.0943C65.1709 59.9306 65.3503 58.8564 65.7091 57.9165C66.0679 56.9319 66.5613 56.1262 67.2341 55.4549C67.9069 54.7835 68.7142 54.2464 69.701 53.9331C70.6877 53.575 71.7642 53.396 72.9752 53.396C73.962 53.396 74.859 53.5303 75.6664 53.7988C76.4289 54.0674 77.0568 54.4254 77.5502 54.8282C78.0436 55.2311 78.4024 55.6786 78.6267 56.1262C78.8509 56.5738 78.9855 56.9766 78.9855 57.3347C78.9855 57.6927 78.8509 58.0508 78.5818 58.3194C78.3127 58.5879 77.9539 58.7222 77.5502 58.7222C77.3259 58.7222 77.1465 58.6774 76.9223 58.5879C76.698 58.4984 76.5634 58.3641 76.4289 58.1851C76.0701 57.6032 75.7561 57.1557 75.487 56.8423C75.2179 56.529 74.859 56.3053 74.4554 56.0815C74.0068 55.8577 73.4686 55.7682 72.751 55.7682C72.0333 55.7682 71.4054 55.9024 70.8672 56.1262C70.3289 56.35 69.8355 56.7081 69.4319 57.2004C69.0282 57.648 68.7591 58.2298 68.5348 58.9012C68.3106 59.5726 68.2208 60.2887 68.2208 61.1391C68.2208 62.8847 68.6245 64.2274 69.4319 65.2121C70.2392 66.152 71.3605 66.6443 72.7958 66.6443C73.5135 66.6443 74.1414 66.5548 74.7693 66.3758C75.3973 66.1967 76.0252 65.9282 76.6531 65.5701V63.1532H74.3208C73.7377 63.1532 73.334 63.0637 73.0201 62.8847C72.751 62.7056 72.5716 62.4371 72.5716 62.0343C72.5716 61.721 72.7061 61.4076 72.9304 61.2286C73.1546 61.0048 73.5135 60.9153 73.9171 60.9153H77.3708C77.7745 60.9153 78.1333 60.9601 78.4472 61.0048C78.7612 61.0943 78.9855 61.2286 79.1649 61.4972C79.2546 61.5867 79.3891 61.9895 79.3891 62.5266Z" fill="black"/>
<path fill-rule="evenodd" clip-rule="evenodd" d="M92.531 63.1979C92.531 64.0483 92.3964 64.8092 92.1273 65.4806C91.8582 66.1967 91.4994 66.7785 91.006 67.2709C90.5126 67.7632 89.9295 68.166 89.2567 68.4346C88.5839 68.7031 87.8214 68.8374 86.9692 68.8374C86.117 68.8374 85.3545 68.7031 84.6818 68.4346C84.009 68.166 83.4259 67.7632 82.9325 67.2709C82.4391 66.7785 82.0803 66.1519 81.8112 65.4806C81.5421 64.8092 81.4075 64.0036 81.4075 63.1979C81.4075 62.3475 81.5421 61.5866 81.8112 60.8705C82.0803 60.1544 82.4391 59.5725 82.9325 59.0802C83.4259 58.5879 84.009 58.185 84.6818 57.9165C85.3545 57.6479 86.117 57.5137 86.9692 57.5137C87.8214 57.5137 88.5839 57.6479 89.2567 57.9165C89.9295 58.185 90.5126 58.5879 91.006 59.0802C91.4994 59.5725 91.8582 60.1991 92.1273 60.8705C92.3964 61.5866 92.531 62.3475 92.531 63.1979ZM89.7053 63.1979C89.7053 62.079 89.4361 61.1838 88.9428 60.5572C88.4494 59.9306 87.7766 59.6173 86.9244 59.6173C86.3862 59.6173 85.8928 59.7516 85.4891 60.0201C85.0854 60.2887 84.7715 60.7362 84.5472 61.2733C84.3229 61.8104 84.1884 62.4818 84.1884 63.1979C84.1884 63.914 84.2781 64.5854 84.5023 65.1225C84.7266 65.6596 85.0406 66.0624 85.4443 66.3757C85.8479 66.6443 86.3413 66.8233 86.9244 66.8233C87.7766 66.8233 88.4494 66.51 88.9428 65.8834C89.481 65.1673 89.7053 64.3169 89.7053 63.1979Z" fill="black"/>
<path fill-rule="evenodd" clip-rule="evenodd" d="M102.354 67.2709V67.0024C101.995 67.4499 101.591 67.7633 101.232 68.0318C100.874 68.3003 100.47 68.5241 100.066 68.6584C99.6625 68.7927 99.1691 68.8822 98.6758 68.8822C98.003 68.8822 97.375 68.7479 96.8368 68.4794C96.2537 68.2108 95.7603 67.808 95.3567 67.2709C94.953 66.7338 94.639 66.152 94.4148 65.4358C94.1905 64.7197 94.1008 63.9588 94.1008 63.1532C94.1008 61.4076 94.5045 60.0649 95.3567 59.0802C96.2089 58.0956 97.3302 57.6032 98.7206 57.6032C99.528 57.6032 100.201 57.7375 100.739 58.0061C101.277 58.2746 101.815 58.7222 102.354 59.2593V55.1415C102.354 54.5597 102.488 54.1569 102.713 53.8436C102.937 53.5303 103.251 53.396 103.699 53.396C104.103 53.396 104.462 53.5303 104.686 53.7988C104.91 54.0674 105.045 54.4702 105.045 55.0073V67.2709C105.045 67.808 104.91 68.2108 104.686 68.4794C104.417 68.7479 104.103 68.8822 103.744 68.8822C103.385 68.8822 103.026 68.7479 102.802 68.4794C102.488 68.1661 102.354 67.7633 102.354 67.2709ZM96.8817 63.1532C96.8817 63.9141 97.0162 64.5407 97.2405 65.0778C97.4647 65.6149 97.7787 66.0177 98.2272 66.2862C98.6309 66.5548 99.0794 66.6891 99.5728 66.6891C100.066 66.6891 100.515 66.5548 100.918 66.2862C101.322 66.0177 101.636 65.6596 101.905 65.1225C102.129 64.5854 102.264 63.9588 102.264 63.1532C102.264 62.3923 102.129 61.7657 101.905 61.2286C101.681 60.6915 101.322 60.2887 100.918 60.0202C100.515 59.7516 100.066 59.6173 99.5728 59.6173C99.0794 59.6173 98.5861 59.7516 98.1824 60.0649C97.7787 60.3335 97.4647 60.781 97.2405 61.3181C96.9714 61.8105 96.8817 62.4371 96.8817 63.1532Z" fill="black"/>
<path fill-rule="evenodd" clip-rule="evenodd" d="M64.0047 13.472C61.2687 13.9196 58.7569 14.8147 56.9628 16.1127C45.1217 24.5719 48.6202 41.1771 60.6856 45.4291C63.0179 46.2347 66.5613 47.0404 68.3106 45.2948C69.2525 44.3549 69.4767 43.1017 68.7591 41.7142C68.176 40.5952 67.0995 40.2819 65.3951 40.1477C60.1474 39.7001 56.1555 35.8509 55.7967 30.5247C55.393 24.93 59.4746 20.499 64.0944 19.6038C70.6877 18.3506 72.437 23.0949 75.3524 21.9312C77.3708 21.1256 79.6583 17.4554 72.3024 14.5014C69.9701 13.5615 66.7856 12.9797 64.0047 13.472ZM44.2247 23.632C44.0453 23.8111 44.0901 23.7663 43.9107 24.0348L43.7313 24.3034C43.6865 24.3929 43.5519 24.751 43.4622 24.8852L35.4784 42.4751C34.7159 44.0863 34.1328 45.9214 32.4284 46.2347C30.4101 46.5928 28.7505 45.1158 28.7954 43.2359C28.8402 42.0722 36.1064 26.6308 37.138 24.3481C38.4387 21.4836 39.9188 17.724 41.4438 14.9042C42.1615 13.5615 44.3144 12.6216 45.9739 13.9643C47.0056 14.8147 47.6783 16.8288 48.396 18.3954C50.1452 22.0655 47.5438 20.0066 46.5122 28.6001L44.2247 23.632ZM73.2892 36.0299C71.0017 36.0747 68.8488 36.2985 67.862 34.7767C66.7407 33.0759 67.4584 31.1513 68.7591 30.3009C70.1047 29.4505 72.8407 29.8086 74.6348 29.8086C80.2413 29.8086 79.434 31.8675 79.434 38.044C79.434 40.3714 79.6583 42.1618 78.0436 43.1017C76.2495 44.1759 74.4554 43.1464 73.7377 42.0275C72.9752 40.8638 73.2443 37.6412 73.2892 36.0299ZM41.3541 40.3267C42.6997 39.9686 48.7099 40.0134 49.6519 40.6848C52.1636 42.3855 51.132 45.6976 48.8445 46.2347C47.2747 46.5928 41.4438 46.5033 40.3225 45.8319C38.3041 44.6234 38.5284 41.0876 41.3541 40.3267Z" fill="black"/>
<path fill-rule="evenodd" clip-rule="evenodd" d="M28.2123 10.0707C26.8667 11.5477 25.252 12.5771 25.6109 15.5759C27.0013 19.4698 33.1909 17.59 37.138 17.3662C38.1247 17.3214 39.56 17.1424 39.3358 16.0235C38.9769 14.0094 32.6527 15.8892 29.8718 14.4569C30.6343 11.5924 38.6181 7.16141 41.9821 6.04247C46.0188 4.69973 51.4011 4.34167 55.9312 4.47594C57.0525 4.5207 59.4297 4.74449 60.4165 5.23683C60.3268 5.86344 59.4746 6.2215 59.0709 6.5348L53.9129 9.71261C52.657 10.4287 51.4908 10.9211 50.2798 11.7267C49.4276 12.3086 46.6916 13.2932 47.9026 14.2779C48.2166 14.5017 48.1717 14.5465 48.7548 14.4569C48.9791 14.4122 49.4276 14.2331 49.6967 14.1436L54.7651 12.0848C55.8415 11.5924 56.918 11.1001 57.9944 10.6078C58.6672 10.2945 60.9099 9.26503 61.3584 9.22027C61.7621 8.63842 62.2554 8.54891 62.9282 8.10133C63.3768 7.78802 63.915 7.11666 64.2738 7.02714C64.7223 5.72916 65.3951 4.78925 64.5878 3.26748C64.0944 2.32757 63.1076 1.61145 62.2554 1.20862C58.9364 -0.492172 49.5622 -0.0445938 46.1085 0.761047C44.8526 1.07435 43.507 1.16387 42.3409 1.52193C36.5549 3.31224 32.6079 5.81868 28.2123 10.0707Z" fill="#F28569"/>
</g>
<defs>
<clipPath id="clip0_219_4025">
<rect width="105" height="73" fill="white"/>
</clipPath>
</defs>
</svg>
