<svg width="30" height="30" viewBox="0 0 30 30" fill="none" xmlns="http://www.w3.org/2000/svg"><path d="M10.442 17.0249C10.442 17.2985 10.3365 17.561 10.1484 17.7544C9.9609 17.9477 9.70543 18.0567 9.43942 18.0567C9.1734 18.0567 8.9191 17.9483 8.7316 17.7544C8.5441 17.561 8.43805 17.2985 8.43805 17.0249V12.8964C8.44098 12.6245 8.54821 12.3655 8.73571 12.1745C8.92321 11.9835 9.17633 11.8768 9.44 11.8768C9.70367 11.8768 9.9568 11.9835 10.1443 12.1745C10.3318 12.3655 10.4384 12.6245 10.442 12.8964V17.0249ZM14.6935 22.4055C14.6935 22.6798 14.588 22.9423 14.4005 23.1356C14.2119 23.329 13.9576 23.438 13.6916 23.438C13.4255 23.438 13.1713 23.329 12.9832 23.1356C12.7957 22.9423 12.6902 22.6792 12.6902 22.4055V18.277C12.6931 18.0057 12.7998 17.7462 12.9873 17.5552C13.1748 17.3641 13.4279 17.2575 13.6916 17.2575C13.9552 17.2575 14.2084 17.3647 14.3959 17.5552C14.5834 17.7462 14.6906 18.0057 14.6935 18.277V22.4055ZM18.2302 22.4055C18.2302 22.6798 18.1248 22.9423 17.9373 23.1356C17.7492 23.329 17.4943 23.438 17.2283 23.438C16.9623 23.438 16.708 23.329 16.5205 23.1356C16.3321 22.9392 16.2269 22.6777 16.2269 22.4055V18.277C16.2298 18.0057 16.3371 17.7462 16.5246 17.5552C16.7121 17.3641 16.9652 17.2575 17.2289 17.2575C17.4925 17.2575 17.7451 17.3647 17.9326 17.5552C18.1201 17.7462 18.2273 18.0057 18.2302 18.277V22.4055ZM22.5005 17.0249C22.5005 17.2985 22.3951 17.561 22.2076 17.7544C22.0189 17.9477 21.7646 18.0567 21.4986 18.0567C21.2326 18.0567 20.9783 17.9483 20.7902 17.7544C20.6027 17.561 20.4972 17.2985 20.4972 17.0249V12.8964C20.5002 12.6245 20.6068 12.3655 20.7943 12.1745C20.9818 11.9835 21.2349 11.8768 21.4986 11.8768C21.7623 11.8768 22.0154 11.9835 22.2029 12.1745C22.3904 12.3655 22.4976 12.6245 22.5005 12.8964V17.0249Z" fill="#7F888B"/><path d="M19.8957 11.8518V19.2727C19.8958 19.4999 19.8081 19.7183 19.6507 19.8821C19.5738 19.9612 19.4819 20.0242 19.3804 20.0675C19.2789 20.1107 19.1699 20.1334 19.0595 20.1341H11.8865C11.7761 20.134 11.6668 20.1117 11.5652 20.0684C11.4636 20.0251 11.3718 19.9617 11.2953 19.8821C11.1385 19.7181 11.0508 19.5002 11.0504 19.2733V11.8512L19.8957 11.8518ZM15.4724 7.57214C13.0701 7.57214 11.1172 9.22097 11.0586 11.2729H19.8863C19.8277 9.22097 17.8742 7.57214 15.4724 7.57214ZM13.5722 9.96218C13.4389 9.96002 13.3118 9.90509 13.2189 9.80943C13.126 9.71377 13.0748 9.58518 13.0765 9.45183C13.0792 9.31943 13.1327 9.19313 13.2259 9.0991C13.2711 9.0532 13.3249 9.01672 13.3842 8.99178C13.4436 8.96684 13.5073 8.95392 13.5716 8.95378C13.7017 8.95378 13.8259 9.00593 13.9179 9.0991C14.0111 9.19168 14.0644 9.31882 14.0673 9.45183C14.0673 9.5866 14.0152 9.71668 13.9226 9.81277C13.8773 9.85997 13.8229 9.89753 13.7627 9.92321C13.7025 9.94888 13.6377 9.96214 13.5722 9.96218ZM17.375 9.96218C17.3094 9.9624 17.2445 9.94921 17.1843 9.92341C17.124 9.89762 17.0697 9.85976 17.0246 9.81218C16.9305 9.71572 16.8785 9.58595 16.8798 9.45125C16.8805 9.31709 16.9323 9.18823 17.0246 9.09089C17.0701 9.04396 17.1246 9.00657 17.1847 8.98092C17.2449 8.95526 17.3096 8.94185 17.375 8.94148C17.5062 8.94148 17.6328 8.9948 17.7254 9.09089C17.8189 9.18771 17.8708 9.31724 17.8701 9.45183C17.8701 9.5866 17.8179 9.71668 17.7254 9.81277C17.68 9.85997 17.6256 9.89753 17.5654 9.92321C17.5052 9.94888 17.4404 9.96214 17.375 9.96218Z" fill="#7F888B"/><path d="M13.8301 8.25406C13.8477 8.28453 13.8533 8.32052 13.8457 8.35491C13.8381 8.38931 13.8179 8.4196 13.7891 8.4398C13.775 8.44963 13.7591 8.45656 13.7423 8.46018C13.7256 8.4638 13.7083 8.46403 13.6914 8.46086C13.6745 8.4577 13.6585 8.4512 13.6441 8.44175C13.6298 8.43229 13.6175 8.42008 13.608 8.40581L12.5592 6.77515C12.5399 6.74472 12.5331 6.70807 12.5401 6.67275C12.5471 6.63743 12.5673 6.60614 12.5967 6.58531C12.6111 6.57512 12.6275 6.56801 12.6449 6.56443C12.6622 6.56085 12.6801 6.56088 12.6974 6.56451C12.7147 6.56813 12.7311 6.57529 12.7455 6.58552C12.7599 6.59575 12.7721 6.60884 12.7812 6.62398L13.8301 8.25406ZM17.1189 8.25406C17.0995 8.28447 17.0924 8.3212 17.0993 8.35665C17.1062 8.39211 17.1264 8.42355 17.1559 8.44449C17.1703 8.45468 17.1867 8.46178 17.204 8.46536C17.2214 8.46894 17.2392 8.46891 17.2566 8.46528C17.2739 8.46166 17.2902 8.45451 17.3047 8.44427C17.3191 8.43404 17.3313 8.42095 17.3404 8.40581L18.3893 6.77515C18.4085 6.74472 18.4153 6.70807 18.4084 6.67275C18.4014 6.63743 18.3811 6.60614 18.3518 6.58531C18.3373 6.57512 18.3209 6.56801 18.3036 6.56443C18.2862 6.56085 18.2684 6.56088 18.2511 6.56451C18.2337 6.56813 18.2174 6.57529 18.2029 6.58552C18.1885 6.59575 18.1763 6.60884 18.1672 6.62398L17.1189 8.25406Z" fill="#7F888B"/></svg>