<svg width="30" height="30" viewBox="0 0 30 30" fill="none" xmlns="http://www.w3.org/2000/svg"><mask id="mask0_1_1060" style="mask-type:luminance" maskUnits="userSpaceOnUse" x="6" y="5" width="19" height="19"><path d="M6.11792 5.62561H24.4226V23.9303H6.11792V5.62561Z" fill="white"/></mask><g mask="url(#mask0_1_1060)"><path fill-rule="evenodd" clip-rule="evenodd" d="M12.4151 17.2881C12.545 17.2954 12.6707 17.3358 12.7805 17.4055C12.8902 17.4752 12.9803 17.5718 13.0421 17.6862L14.4847 20.3501C14.6064 20.5755 14.6631 20.8302 14.6483 21.0859C14.6334 21.3416 14.5478 21.5881 14.4009 21.7979C14.2539 22.0077 14.0516 22.1725 13.8163 22.2738C13.5811 22.3751 13.3223 22.409 13.069 22.3717L10.0716 21.9278C9.94307 21.9085 9.82163 21.8567 9.71874 21.7773C9.61586 21.698 9.53495 21.5936 9.48368 21.4743C9.4324 21.3549 9.41247 21.2244 9.42575 21.0951C9.43904 20.9658 9.48511 20.8421 9.5596 20.7357L10.0344 20.0567L9.90167 19.3062C9.88423 19.2075 9.8864 19.1064 9.90807 19.0085C9.92974 18.9107 9.97048 18.8181 10.028 18.736C10.0854 18.6539 10.1585 18.584 10.2431 18.5302C10.3276 18.4764 10.4219 18.4397 10.5206 18.4224L11.2717 18.2903L11.7464 17.6113C11.8209 17.5047 11.9214 17.419 12.0383 17.3624C12.1553 17.3057 12.2848 17.2799 12.4146 17.2875L12.4151 17.2881ZM17.2556 17.2698C17.3553 17.2159 17.4659 17.1851 17.5791 17.1794C17.6923 17.1738 17.8054 17.1935 17.91 17.2372L17.9986 17.2807L18.7154 17.6948L19.4522 17.4969C19.6327 17.4485 19.8247 17.468 19.9917 17.5519C20.1588 17.6357 20.2892 17.778 20.3582 17.9516L20.3868 18.0363L20.5842 18.7731L21.3009 19.1872C21.4064 19.248 21.4958 19.3331 21.5617 19.4355C21.6275 19.5379 21.6679 19.6545 21.6795 19.7757C21.691 19.8969 21.6734 20.0191 21.628 20.1321C21.5826 20.245 21.5109 20.3455 21.4188 20.4251L21.3398 20.4845L18.8115 22.1531C18.6062 22.2885 18.3685 22.3665 18.1229 22.3791C17.8774 22.3918 17.6329 22.3386 17.4147 22.2251C17.1966 22.1116 17.0128 21.9419 16.8822 21.7336C16.7517 21.5252 16.6791 21.2858 16.6721 21.04L16.6744 20.9193L16.8557 17.895C16.8641 17.7654 16.9052 17.64 16.9752 17.5307C17.0452 17.4213 17.1413 17.3315 17.2556 17.2698ZM15.2644 7.15186C16.0734 7.15186 16.8494 7.47326 17.4215 8.04535C17.9936 8.61745 18.315 9.39338 18.315 10.2025V10.9655C18.315 11.8911 18.6982 12.6942 19.2045 13.5236L19.7656 14.412C19.8423 14.5338 19.9143 14.6522 19.979 14.7609C20.2232 15.1728 20.4583 15.6304 20.5802 16.1189C20.6637 16.4587 20.7129 16.8053 20.7283 17.1542C20.5387 16.9654 20.3027 16.8296 20.0441 16.7607C19.7855 16.6917 19.5133 16.6919 19.2548 16.7613L18.8241 16.8762L18.3802 16.62C18.155 16.4899 17.9003 16.4195 17.6403 16.4156C17.3803 16.4117 17.1236 16.4743 16.8946 16.5975C16.6656 16.7208 16.4719 16.9005 16.3319 17.1197C16.192 17.3389 16.1104 17.5902 16.095 17.8498L15.9131 20.8741C15.8976 21.1372 15.9302 21.3958 16.0057 21.6395L15.8004 21.6429H15.4909C15.4326 21.6429 15.3752 21.6419 15.3187 21.64C15.4031 21.3675 15.432 21.0808 15.4039 20.7969C15.3758 20.513 15.2912 20.2376 15.1551 19.9869L13.7131 17.323C13.5894 17.0942 13.4092 16.9008 13.1897 16.7612C12.9702 16.6217 12.7186 16.5406 12.4589 16.5257C12.1992 16.5108 11.9401 16.5626 11.706 16.6761C11.472 16.7896 11.2709 16.9611 11.1218 17.1743L10.8283 17.5941L10.5767 17.6382C10.551 17.3434 10.5571 17.0467 10.595 16.7532C10.6236 16.5359 10.6607 16.3208 10.7111 16.1189C10.8621 15.5148 11.1189 15.0063 11.3649 14.5784L11.6978 14.0138C12.0153 13.467 12.2132 13.0414 12.2132 12.4905V10.2025C12.2134 9.39333 12.5349 8.6174 13.1071 8.04532C13.6793 7.47324 14.4553 7.15186 15.2644 7.15186ZM14.1678 11.5587L13.5403 11.8716C13.7119 12.3269 13.9768 12.7531 14.225 13.0917L14.38 13.2971L14.5208 13.4687L14.5825 13.5402L14.773 13.4327L15.0241 13.2822C15.1586 13.1993 15.3044 13.1055 15.456 13.0025C15.9165 12.6879 16.3901 12.3086 16.7236 11.9139L14.9572 11.4718C14.6921 11.4056 14.4121 11.4364 14.1678 11.5587Z" fill="#0F2027" fill-opacity="0.61"/></g></svg>