<svg width="30" height="30" viewBox="0 0 30 30" fill="none" xmlns="http://www.w3.org/2000/svg"><path d="M10.3861 19.9326H20.6328C20.6383 19.9326 20.6428 19.9346 20.6463 19.9385C20.6502 19.9424 20.6521 19.9469 20.6521 19.9519V21.1807C20.6522 21.1833 20.6518 21.1859 20.6508 21.1883C20.6499 21.1907 20.6485 21.1929 20.6467 21.1948C20.6449 21.1966 20.6427 21.1981 20.6404 21.1991C20.638 21.2001 20.6354 21.2006 20.6328 21.2006H10.3861C10.3835 21.2006 10.381 21.2001 10.3786 21.1991C10.3762 21.1981 10.3741 21.1966 10.3723 21.1948C10.3705 21.1929 10.3691 21.1907 10.3681 21.1883C10.3672 21.1859 10.3668 21.1833 10.3668 21.1807V19.9519C10.3668 19.9468 10.3689 19.9419 10.3725 19.9383C10.3761 19.9347 10.381 19.9326 10.3861 19.9326ZM23.0326 8.62195H7.99631C7.88234 8.62187 7.76949 8.64441 7.66429 8.68827C7.5591 8.73213 7.46365 8.79643 7.3835 8.87746C7.30335 8.95848 7.24007 9.05461 7.19735 9.16027C7.15463 9.26594 7.13331 9.37903 7.13462 9.49299V18.6459C7.13462 18.8743 7.22535 19.0933 7.38684 19.2548C7.54832 19.4163 7.76735 19.507 7.99573 19.507H23.0314C23.1446 19.5074 23.2568 19.4853 23.3614 19.4421C23.4661 19.399 23.5611 19.3356 23.6412 19.2556C23.7213 19.1755 23.7848 19.0805 23.828 18.9759C23.8712 18.8713 23.8933 18.7591 23.8931 18.6459V9.49299C23.8947 9.37896 23.8735 9.26577 23.8309 9.16C23.7882 9.05423 23.725 8.95801 23.6448 8.87694C23.5646 8.79586 23.469 8.73156 23.3637 8.68779C23.2584 8.64401 23.1455 8.62163 23.0314 8.62195M13.8422 16.3625V11.5244L17.9642 13.9435L13.8422 16.3625Z" fill="#0F2027" fill-opacity="0.61"/></svg>