<svg width="30" height="30" viewBox="0 0 30 30" fill="none" xmlns="http://www.w3.org/2000/svg"><path d="M9.33789 11.0143C9.33779 10.8739 9.38817 10.7383 9.47983 10.632C9.57149 10.5257 9.69831 10.456 9.83713 10.4355L13.9234 9.82988C14.0065 9.81753 14.0913 9.82324 14.1721 9.84662C14.2528 9.87001 14.3275 9.91051 14.3911 9.96538C14.4548 10.0203 14.5058 10.0882 14.5408 10.1646C14.5758 10.241 14.5939 10.324 14.594 10.408L14.5957 14.6633C14.5957 14.8176 14.5347 14.9657 14.4259 15.0752C14.3172 15.1847 14.1695 15.2468 14.0152 15.2479L9.93008 15.273C9.85307 15.2735 9.77672 15.2587 9.70543 15.2296C9.63413 15.2004 9.5693 15.1575 9.51465 15.1032C9.46 15.049 9.41662 14.9844 9.38698 14.9134C9.35735 14.8423 9.34206 14.766 9.34198 14.689L9.33789 11.0143ZM14.0111 15.8757C14.1653 15.8768 14.3129 15.9388 14.4216 16.0482C14.5304 16.1576 14.5915 16.3055 14.5916 16.4597L14.5951 20.7191C14.5952 20.8032 14.5771 20.8864 14.5421 20.9629C14.5071 21.0394 14.456 21.1074 14.3923 21.1624C14.3286 21.2173 14.2538 21.2579 14.173 21.2812C14.0921 21.3046 14.0072 21.3103 13.924 21.2978L9.84006 20.6869C9.70155 20.6662 9.57508 20.5964 9.48367 20.4903C9.39226 20.3842 9.34198 20.2488 9.34198 20.1088V16.4317C9.34198 16.3546 9.35724 16.2782 9.38687 16.207C9.4165 16.1358 9.45993 16.0712 9.51465 16.0169C9.56937 15.9625 9.6343 15.9195 9.7057 15.8904C9.7771 15.8613 9.85355 15.8465 9.93067 15.8471L14.0111 15.8757ZM15.2282 10.128C15.2282 9.98884 15.2778 9.85421 15.3681 9.74834C15.4585 9.64247 15.5836 9.57229 15.721 9.55044L21.5208 8.6303C21.6042 8.61703 21.6896 8.62201 21.7709 8.6449C21.8523 8.66779 21.9277 8.70805 21.992 8.76289C22.0563 8.81773 22.1079 8.88586 22.1433 8.96258C22.1787 9.0393 22.1971 9.12279 22.1972 9.20729V14.5949C22.1972 14.749 22.1363 14.8969 22.0278 15.0064C21.9193 15.1159 21.772 15.1781 21.6178 15.1795L15.8181 15.2292C15.7409 15.2299 15.6643 15.2153 15.5928 15.1862C15.5212 15.1571 15.4562 15.1142 15.4013 15.0598C15.3465 15.0055 15.3029 14.9408 15.2732 14.8695C15.2435 14.7982 15.2282 14.7218 15.2282 14.6446V10.128ZM21.6155 15.9307C21.7703 15.931 21.9187 15.9927 22.0281 16.1023C22.1375 16.2119 22.1989 16.3604 22.1989 16.5153L22.1972 21.8719C22.1971 21.9561 22.1789 22.0393 22.1437 22.1158C22.1085 22.1923 22.0572 22.2603 21.9933 22.3152C21.9294 22.37 21.8544 22.4104 21.7735 22.4336C21.6925 22.4568 21.6075 22.4622 21.5243 22.4495L15.7234 21.5591C15.5856 21.5379 15.4599 21.4682 15.369 21.3625C15.2781 21.2568 15.228 21.1221 15.2277 20.9827L15.2195 16.5059C15.2193 16.429 15.2344 16.3527 15.2637 16.2816C15.2931 16.2104 15.3363 16.1458 15.3907 16.0914C15.4451 16.037 15.5097 15.9938 15.5809 15.9644C15.652 15.935 15.7283 15.92 15.8052 15.9202L21.6155 15.9307Z" fill="#0F2027" fill-opacity="0.61"/></svg>