<svg xmlns="http://www.w3.org/2000/svg"><symbol id="phone" viewBox="0 0 20 20" fill="none"><path d="M18.175 14.6253C18.0833 14.417 17.9333 14.242 17.7166 14.092L14.9583 12.1337C14.75 11.992 14.5583 11.8837 14.375 11.8087C14.1916 11.7337 14.025 11.7003 13.8666 11.7003C13.6583 11.7003 13.4666 11.7587 13.275 11.8753C13.0833 11.9753 12.8833 12.1337 12.675 12.342L12.0416 12.967C11.95 13.0587 11.8416 13.1087 11.7 13.1087C11.625 13.1087 11.5583 13.1003 11.4916 13.0753C11.4333 13.0503 11.3833 13.0253 11.3416 13.0087C11.1666 12.917 10.9583 12.7837 10.725 12.6087C10.4333 12.3587 9.24163 11.3087 8.94163 11.017C8.50829 10.5753 8.10829 10.1337 7.73329 9.70033C7.36663 9.26699 7.10829 8.90866 6.95829 8.63366C6.94163 8.58366 6.91663 8.53366 6.89163 8.46699C6.87496 8.40033 6.86663 8.34199 6.86663 8.27533C6.86663 8.14199 6.90829 8.03366 6.99996 7.94199L7.63329 7.28366C7.83329 7.08366 7.99163 6.88366 8.09996 6.69199C8.21663 6.50033 8.27496 6.30033 8.27496 6.10033C8.27496 5.94199 8.23329 5.76699 8.15829 5.59199C8.08329 5.40866 7.97496 5.21699 7.82496 5.00866L5.89163 2.28366C5.74163 2.06699 5.54996 1.91699 5.33329 1.81699C5.12496 1.71699 4.89163 1.66699 4.65829 1.66699C4.04163 1.66699 3.45829 1.92533 2.92496 2.45033C2.48329 2.86699 2.16663 3.33366 1.96663 3.84199C1.76663 4.34199 1.66663 4.88366 1.66663 5.45033C1.66663 6.31699 1.86663 7.22533 2.26663 8.17533C2.66663 9.11699 3.21663 10.067 3.89996 11.017C4.59163 11.967 5.36663 12.8753 6.22496 13.742C6.50829 14.0253 7.69996 15.067 7.99996 15.3337C8.30829 15.592 8.63329 15.8337 8.95829 16.0753C9.90829 16.767 10.8666 17.317 11.825 17.7253C12.7833 18.1337 13.6916 18.3337 14.5416 18.3337C15.1166 18.3337 15.65 18.2253 16.1416 18.0253C16.1416 18.0253 16.1583 18.017 16.1666 18.017C16.675 17.8087 17.125 17.4837 17.5333 17.0337C17.775 16.767 17.9583 16.4837 18.1 16.1837C18.1333 16.117 18.1583 16.0503 18.1833 15.9837C18.2666 15.7503 18.3083 15.5087 18.3083 15.2753C18.3083 15.042 18.2583 14.8337 18.175 14.6253Z" fill="currentColor"/></symbol><symbol id="star" viewBox="0 0 32 32" fill="none"><path d="M15.7417 23.1829C15.9005 23.087 16.0995 23.087 16.2584 23.1829L23.2255 27.388C23.6042 27.6166 24.0713 27.2771 23.9708 26.8463L22.1219 18.9209C22.0798 18.7401 22.1412 18.5509 22.2815 18.4294L28.4394 13.0948C28.7734 12.8054 28.5953 12.2567 28.1549 12.2187L20.0464 11.5195C19.862 11.5036 19.7015 11.3871 19.6291 11.2167L16.4603 3.75129C16.2879 3.34511 15.7122 3.34511 15.5398 3.75129L12.3709 11.2167C12.2986 11.3871 12.138 11.5036 11.9536 11.5195L3.8436 12.2188C3.40349 12.2568 3.22521 12.8051 3.55883 13.0946L9.70601 18.4297C9.84588 18.5511 9.90719 18.7398 9.86536 18.9202L8.02717 26.8482C7.92734 27.2787 8.39423 27.6175 8.77261 27.3892L15.7417 23.1829Z" fill="currentColor"/></symbol><symbol id="arrow-right" viewBox="0 0 32 32" fill="none"><path d="M14.9391 5.60625C15.5249 5.02052 16.4744 5.02063 17.0602 5.60625L26.3942 14.9393C26.9799 15.5249 26.9797 16.4745 26.3942 17.0604L17.0602 26.3943C16.4744 26.9798 15.5248 26.98 14.9391 26.3943C14.3535 25.8087 14.3537 24.8591 14.9391 24.2732L21.7126 17.4998H6.66669C5.83826 17.4998 5.16669 16.8282 5.16669 15.9998C5.16686 15.1715 5.83837 14.4998 6.66669 14.4998H21.7126L14.9391 7.72734C14.3536 7.1416 14.3536 6.192 14.9391 5.60625Z" fill="currentColor"/></symbol><symbol id="chevron-left" viewBox="0 0 24 24" fill="none"><path d="M13.2929 5.29289C13.6834 4.90237 14.3164 4.90237 14.707 5.29289C15.0975 5.68342 15.0975 6.31643 14.707 6.70696L9.41399 11.9999L14.707 17.2929C15.0975 17.6834 15.0975 18.3164 14.707 18.707C14.3164 19.0975 13.6834 19.0975 13.2929 18.707L7.29289 12.707C6.90237 12.3164 6.90237 11.6834 7.29289 11.2929L13.2929 5.29289Z" fill="currentColor"/></symbol><symbol id="chevron-right" viewBox="0 0 24 24" fill="none"><path d="M9.29289 5.29289C9.68342 4.90237 10.3164 4.90237 10.707 5.29289L16.707 11.2929C17.0975 11.6834 17.0975 12.3164 16.707 12.707L10.707 18.707C10.3164 19.0975 9.68342 19.0975 9.29289 18.707C8.90237 18.3164 8.90237 17.6834 9.29289 17.2929L14.5859 11.9999L9.29289 6.70696C8.90237 6.31643 8.90237 5.68342 9.29289 5.29289Z" fill="currentColor"/></symbol><symbol id="check-circle" viewBox="0 0 24 24" fill="none"><path fill-rule="evenodd" clip-rule="evenodd" d="M12 23C14.9174 23 17.7153 21.8411 19.7782 19.7782C21.8411 17.7153 23 14.9174 23 12C23 9.08262 21.8411 6.28473 19.7782 4.22183C17.7153 2.15893 14.9174 1 12 1C9.08262 1 6.28473 2.15893 4.22183 4.22183C2.15893 6.28473 1 9.08262 1 12C1 14.9174 2.15893 17.7153 4.22183 19.7782C6.28473 21.8411 9.08262 23 12 23ZM17.0971 10.2221C17.3476 9.9628 17.4862 9.61547 17.4831 9.25495C17.4799 8.89443 17.3353 8.54956 17.0804 8.29462C16.8254 8.03969 16.4806 7.89508 16.1201 7.89195C15.7595 7.88881 15.4122 8.02741 15.1529 8.27788L10.625 12.8058L8.84712 11.0279C8.5878 10.7774 8.24047 10.6388 7.87995 10.6419C7.51943 10.6451 7.17456 10.7897 6.91962 11.0446C6.66469 11.2996 6.52008 11.6444 6.51695 12.0049C6.51381 12.3655 6.65241 12.7128 6.90288 12.9721L9.65287 15.7221C9.91073 15.9799 10.2604 16.1247 10.625 16.1247C10.9896 16.1247 11.3393 15.9799 11.5971 15.7221L17.0971 10.2221Z" fill="currentColor"/></symbol><symbol id="logo" viewBox="0 0 115 24" fill="none"><path d="M8.53606 14.3258L5.3907 17.6289V23.5958H0V0H5.3907V11.0226L15.766 0H21.7917L12.0844 10.5174L22.3609 23.5958H16.0341L8.53606 14.3258Z" fill="currentColor"/><path d="M24.2424 13.2126V0H29.6645V13.0105C29.6645 17.4932 31.6057 19.3484 34.8874 19.3484C38.2006 19.3484 40.1088 17.4932 40.1088 13.0105V0H45.465V13.2126C45.465 20.16 41.5153 24 34.8529 24C28.1906 24 24.2424 20.1568 24.2424 13.2126Z" fill="currentColor"/><path d="M70.7172 17.1568C70.7172 21.2353 67.5045 23.5958 61.3455 23.5958H49.2281V0H60.6744C66.5323 0 69.5444 2.46 69.5444 6.13421C69.5444 8.49316 68.3402 10.3137 66.432 11.3258C69.0442 12.169 70.7172 14.19 70.7172 17.1568ZM54.6173 4.11158V9.67421H60.0064C62.65 9.67421 64.0831 8.72685 64.0831 6.87632C64.0831 5.02579 62.6437 4.11158 60.0064 4.11158H54.6173ZM65.2623 16.5853C65.2623 14.5974 63.7554 13.6532 60.9441 13.6532H54.6173V19.4842H60.9441C63.7554 19.4826 65.2623 18.6063 65.2623 16.5837V16.5853Z" fill="currentColor"/><path d="M91.3706 19.2126V23.5958H73.2275V0H90.9347V4.38158H78.6167V9.50526H89.4953V13.7526H78.6167V19.2126H91.3706Z" fill="currentColor"/><path d="M108.808 23.6021L104.289 17.0289H99.3016V23.6021H93.8779V0H104.021C110.281 0 114.197 3.27 114.197 8.56105C114.197 12.1011 112.422 14.6968 109.377 16.0105L114.632 23.5895L108.808 23.6021ZM103.72 4.44947H99.3016V12.6742H103.72C107.033 12.6742 108.708 11.1237 108.708 8.56895C108.708 5.96526 107.033 4.44947 103.72 4.44947Z" fill="currentColor"/></symbol><symbol id="x" viewBox="0 0 24 24" fill="none"><path d="M17.293 5.29289C17.6835 4.90237 18.3165 4.90237 18.707 5.29289C19.0975 5.68342 19.0975 6.31643 18.707 6.70696L13.414 11.9999L18.707 17.2929C19.0975 17.6834 19.0975 18.3164 18.707 18.707C18.3165 19.0975 17.6835 19.0975 17.293 18.707L12 13.414L6.70702 18.707C6.31649 19.0975 5.68348 19.0975 5.29295 18.707C4.90243 18.3164 4.90243 17.6834 5.29295 17.2929L10.5859 11.9999L5.29295 6.70696C4.90243 6.31643 4.90243 5.68342 5.29295 5.29289C5.68348 4.90237 6.31649 4.90237 6.70702 5.29289L12 10.5859L17.293 5.29289Z" fill="currentColor"/></symbol></svg>