<svg width="827" height="53" viewBox="0 0 827 53" fill="none" xmlns="http://www.w3.org/2000/svg">
<path d="M425.337 26.2782L401.378 52.7052L412.114 52.6769L436.449 26.2498L425.337 26.2782Z" fill="#E6FC97"/>
<path d="M445.956 26.2782L421.997 52.7052L432.732 52.6769L457.068 26.2498L445.956 26.2782Z" fill="#E6FC97"/>
<path d="M465.471 26.2782L441.512 52.7052L452.248 52.6769L476.583 26.2498L465.471 26.2782Z" fill="#E6FC97"/>
<path d="M484.986 26.2782L461.027 52.7052L471.763 52.6769L496.098 26.2498L484.986 26.2782Z" fill="#E6FC97"/>
<path d="M505.476 26.2782L481.517 52.7052L492.252 52.6769L516.588 26.2498L505.476 26.2782Z" fill="#E6FC97"/>
<path d="M524.991 26.2782L501.032 52.7052L511.768 52.6769L536.103 26.2498L524.991 26.2782Z" fill="#E6FC97"/>
<path d="M545.483 26.2782L521.523 52.7052L532.259 52.6769L556.595 26.2498L545.483 26.2782Z" fill="#E6FC97"/>
<path d="M564.996 26.2782L541.037 52.7052L551.773 52.6769L576.108 26.2498L564.996 26.2782Z" fill="#E6FC97"/>
<path d="M584.511 26.2782L560.552 52.7052L571.288 52.6769L595.623 26.2498L584.511 26.2782Z" fill="#E6FC97"/>
<path d="M604.026 26.2782L580.066 52.7052L590.802 52.6769L615.138 26.2498L604.026 26.2782Z" fill="#E6FC97"/>
<path d="M439.126 0.0283069L415.167 26.4553L425.902 26.427L450.238 0L439.126 0.0283069Z" fill="#E6FC97"/>
<path d="M459.743 0.0283069L435.784 26.4553L446.52 26.427L470.855 0L459.743 0.0283069Z" fill="#E6FC97"/>
<path d="M479.259 0.0283069L455.3 26.4553L466.036 26.427L490.371 0L479.259 0.0283069Z" fill="#E6FC97"/>
<path d="M498.774 0.0283069L474.814 26.4553L485.55 26.427L509.886 0L498.774 0.0283069Z" fill="#E6FC97"/>
<path d="M519.264 0.0283069L495.305 26.4553L506.041 26.427L530.376 0L519.264 0.0283069Z" fill="#E6FC97"/>
<path d="M538.779 0.0283069L514.82 26.4553L525.556 26.427L549.892 0L538.779 0.0283069Z" fill="#E6FC97"/>
<path d="M559.269 0.0283069L535.31 26.4553L546.045 26.427L570.381 0L559.269 0.0283069Z" fill="#E6FC97"/>
<path d="M578.784 0.0283069L554.825 26.4553L565.561 26.427L589.896 0L578.784 0.0283069Z" fill="#E6FC97"/>
<path d="M598.299 0.0283069L574.34 26.4553L585.076 26.427L609.411 0L598.299 0.0283069Z" fill="#E6FC97"/>
<path d="M617.814 0.0283069L593.854 26.4553L604.59 26.427L628.926 0L617.814 0.0283069Z" fill="#E6FC97"/>
<path d="M623.412 26.2782L599.454 52.7052L610.189 52.6769L634.524 26.2498L623.412 26.2782Z" fill="#E6FC97"/>
<path d="M644.03 26.2782L620.071 52.7052L630.807 52.6769L655.143 26.2498L644.03 26.2782Z" fill="#E6FC97"/>
<path d="M663.546 26.2782L639.587 52.7052L650.323 52.6769L674.658 26.2498L663.546 26.2782Z" fill="#E6FC97"/>
<path d="M683.062 26.2782L659.103 52.7052L669.838 52.6769L694.174 26.2498L683.062 26.2782Z" fill="#E6FC97"/>
<path d="M703.551 26.2782L679.592 52.7052L690.328 52.6769L714.663 26.2498L703.551 26.2782Z" fill="#E6FC97"/>
<path d="M723.066 26.2782L699.106 52.7052L709.842 52.6769L734.178 26.2498L723.066 26.2782Z" fill="#E6FC97"/>
<path d="M743.557 26.2782L719.598 52.7052L730.332 52.6769L754.668 26.2498L743.557 26.2782Z" fill="#E6FC97"/>
<path d="M763.071 26.2782L739.113 52.7052L749.848 52.6769L774.183 26.2498L763.071 26.2782Z" fill="#E6FC97"/>
<path d="M782.586 26.2782L758.627 52.7052L769.363 52.6769L793.698 26.2498L782.586 26.2782Z" fill="#E6FC97"/>
<path d="M802.1 26.2782L778.141 52.7052L788.876 52.6769L813.212 26.2498L802.1 26.2782Z" fill="#E6FC97"/>
<path d="M637.201 0.0283069L613.243 26.4553L623.978 26.427L648.313 0L637.201 0.0283069Z" fill="#E6FC97"/>
<path d="M657.819 0.0283069L633.859 26.4553L644.595 26.427L668.931 0L657.819 0.0283069Z" fill="#E6FC97"/>
<path d="M677.334 0.0283069L653.375 26.4553L664.111 26.427L688.446 0L677.334 0.0283069Z" fill="#E6FC97"/>
<path d="M696.848 0.0283069L672.889 26.4553L683.624 26.427L707.96 0L696.848 0.0283069Z" fill="#E6FC97"/>
<path d="M717.339 0.0283069L693.38 26.4553L704.116 26.427L728.451 0L717.339 0.0283069Z" fill="#E6FC97"/>
<path d="M736.855 0.0283069L712.896 26.4553L723.631 26.427L747.967 0L736.855 0.0283069Z" fill="#E6FC97"/>
<path d="M757.345 0.0283069L733.386 26.4553L744.12 26.427L768.456 0L757.345 0.0283069Z" fill="#E6FC97"/>
<path d="M776.858 0.0283069L752.9 26.4553L763.635 26.427L787.971 0L776.858 0.0283069Z" fill="#E6FC97"/>
<path d="M796.374 0.0283069L772.415 26.4553L783.151 26.427L807.486 0L796.374 0.0283069Z" fill="#E6FC97"/>
<path d="M815.888 0.0283069L791.929 26.4553L802.664 26.427L827 0L815.888 0.0283069Z" fill="#E6FC97"/>
<path d="M23.9591 26.2782L0 52.7052L10.7355 52.6769L35.0711 26.2498L23.9591 26.2782Z" fill="#E6FC97"/>
<path d="M44.5777 26.2782L20.6187 52.7052L31.3541 52.6769L55.6897 26.2498L44.5777 26.2782Z" fill="#E6FC97"/>
<path d="M64.0929 26.2782L40.1338 52.7052L50.8692 52.6769L75.2048 26.2498L64.0929 26.2782Z" fill="#E6FC97"/>
<path d="M83.6085 26.2782L59.6494 52.7052L70.3848 52.6769L94.7204 26.2498L83.6085 26.2782Z" fill="#E6FC97"/>
<path d="M104.099 26.2782L80.1396 52.7052L90.8751 52.6769L115.211 26.2498L104.099 26.2782Z" fill="#E6FC97"/>
<path d="M123.613 26.2782L99.6543 52.7052L110.39 52.6769L134.726 26.2498L123.613 26.2782Z" fill="#E6FC97"/>
<path d="M144.104 26.2782L120.145 52.7052L130.88 52.6769L155.216 26.2498L144.104 26.2782Z" fill="#E6FC97"/>
<path d="M163.618 26.2782L139.659 52.7052L150.394 52.6769L174.73 26.2498L163.618 26.2782Z" fill="#E6FC97"/>
<path d="M183.133 26.2782L159.174 52.7052L169.91 52.6769L194.245 26.2498L183.133 26.2782Z" fill="#E6FC97"/>
<path d="M202.648 26.2782L178.689 52.7052L189.425 52.6769L213.76 26.2498L202.648 26.2782Z" fill="#E6FC97"/>
<path d="M37.7476 0.0283069L13.7886 26.4553L24.5241 26.427L48.8596 0L37.7476 0.0283069Z" fill="#E6FC97"/>
<path d="M58.3652 0.0283069L34.4062 26.4553L45.1417 26.427L69.4772 0L58.3652 0.0283069Z" fill="#E6FC97"/>
<path d="M77.8809 0.0283069L53.9219 26.4553L64.6573 26.427L88.9929 0L77.8809 0.0283069Z" fill="#E6FC97"/>
<path d="M97.3956 0.0283069L73.4365 26.4553L84.172 26.427L108.508 0L97.3956 0.0283069Z" fill="#E6FC97"/>
<path d="M117.886 0.0283069L93.9272 26.4553L104.663 26.427L128.998 0L117.886 0.0283069Z" fill="#E6FC97"/>
<path d="M137.401 0.0283069L113.441 26.4553L124.177 26.427L148.513 0L137.401 0.0283069Z" fill="#E6FC97"/>
<path d="M157.891 0.0283069L133.932 26.4553L144.667 26.427L169.003 0L157.891 0.0283069Z" fill="#E6FC97"/>
<path d="M177.406 0.0283069L153.447 26.4553L164.183 26.427L188.518 0L177.406 0.0283069Z" fill="#E6FC97"/>
<path d="M196.921 0.0283069L172.962 26.4553L183.698 26.427L208.033 0L196.921 0.0283069Z" fill="#E6FC97"/>
<path d="M216.436 0.0283069L192.477 26.4553L203.212 26.427L227.548 0L216.436 0.0283069Z" fill="#E6FC97"/>
<path d="M222.034 26.2782L198.076 52.7052L208.811 52.6769L233.146 26.2498L222.034 26.2782Z" fill="#E6FC97"/>
<path d="M242.652 26.2782L218.693 52.7052L229.429 52.6769L253.764 26.2498L242.652 26.2782Z" fill="#E6FC97"/>
<path d="M262.168 26.2782L238.208 52.7052L248.944 52.6769L273.28 26.2498L262.168 26.2782Z" fill="#E6FC97"/>
<path d="M281.683 26.2782L257.724 52.7052L268.459 52.6769L292.795 26.2498L281.683 26.2782Z" fill="#E6FC97"/>
<path d="M302.173 26.2782L278.214 52.7052L288.95 52.6769L313.285 26.2498L302.173 26.2782Z" fill="#E6FC97"/>
<path d="M321.688 26.2782L297.729 52.7052L308.464 52.6769L332.8 26.2498L321.688 26.2782Z" fill="#E6FC97"/>
<path d="M342.179 26.2782L318.22 52.7052L328.955 52.6769L353.29 26.2498L342.179 26.2782Z" fill="#E6FC97"/>
<path d="M361.693 26.2782L337.735 52.7052L348.47 52.6769L372.805 26.2498L361.693 26.2782Z" fill="#E6FC97"/>
<path d="M381.208 26.2782L357.249 52.7052L367.984 52.6769L392.32 26.2498L381.208 26.2782Z" fill="#E6FC97"/>
<path d="M400.722 26.2782L376.763 52.7052L387.499 52.6769L411.834 26.2498L400.722 26.2782Z" fill="#E6FC97"/>
<path d="M235.821 0.0283069L211.863 26.4553L222.598 26.427L246.933 0L235.821 0.0283069Z" fill="#E6FC97"/>
<path d="M256.44 0.0283069L232.481 26.4553L243.217 26.427L267.552 0L256.44 0.0283069Z" fill="#E6FC97"/>
<path d="M275.956 0.0283069L251.997 26.4553L262.733 26.427L287.068 0L275.956 0.0283069Z" fill="#E6FC97"/>
<path d="M295.47 0.0283069L271.511 26.4553L282.247 26.427L306.582 0L295.47 0.0283069Z" fill="#E6FC97"/>
<path d="M315.961 0.0283069L292.001 26.4553L302.737 26.427L327.073 0L315.961 0.0283069Z" fill="#E6FC97"/>
<path d="M335.476 0.0283069L311.517 26.4553L322.252 26.427L346.588 0L335.476 0.0283069Z" fill="#E6FC97"/>
<path d="M355.967 0.0283069L332.008 26.4553L342.742 26.427L367.078 0L355.967 0.0283069Z" fill="#E6FC97"/>
<path d="M375.481 0.0283069L351.523 26.4553L362.258 26.427L386.593 0L375.481 0.0283069Z" fill="#E6FC97"/>
<path d="M394.995 0.0283069L371.036 26.4553L381.772 26.427L406.107 0L394.995 0.0283069Z" fill="#E6FC97"/>
<path d="M414.51 0.0283069L390.551 26.4553L401.287 26.427L425.623 0L414.51 0.0283069Z" fill="#E6FC97"/>
</svg>
