<svg width="80" height="80" viewBox="0 0 80 80" fill="none" xmlns="http://www.w3.org/2000/svg"><path d="M28.4872 36.42H29.5312V45H28.4032V37.632L26.2192 39.288V38.1L28.4872 36.42ZM34.761 45.192C34.097 45.192 33.521 45.016 33.033 44.664C32.553 44.304 32.185 43.792 31.929 43.128C31.673 42.456 31.545 41.652 31.545 40.716C31.545 39.3 31.829 38.2 32.397 37.416C32.973 36.624 33.761 36.228 34.761 36.228C35.769 36.228 36.557 36.624 37.125 37.416C37.701 38.2 37.989 39.3 37.989 40.716C37.989 41.652 37.861 42.456 37.605 43.128C37.349 43.792 36.981 44.304 36.501 44.664C36.021 45.016 35.441 45.192 34.761 45.192ZM34.761 44.232C35.417 44.232 35.921 43.932 36.273 43.332C36.633 42.724 36.813 41.852 36.813 40.716C36.813 39.572 36.633 38.7 36.273 38.1C35.921 37.492 35.417 37.188 34.761 37.188C34.113 37.188 33.609 37.492 33.249 38.1C32.889 38.7 32.709 39.572 32.709 40.716C32.709 41.852 32.889 42.724 33.249 43.332C33.609 43.932 34.113 44.232 34.761 44.232ZM42.554 45.192C41.89 45.192 41.314 45.016 40.826 44.664C40.346 44.304 39.978 43.792 39.722 43.128C39.466 42.456 39.338 41.652 39.338 40.716C39.338 39.3 39.622 38.2 40.19 37.416C40.766 36.624 41.554 36.228 42.554 36.228C43.562 36.228 44.35 36.624 44.918 37.416C45.494 38.2 45.782 39.3 45.782 40.716C45.782 41.652 45.654 42.456 45.398 43.128C45.142 43.792 44.774 44.304 44.294 44.664C43.814 45.016 43.234 45.192 42.554 45.192ZM42.554 44.232C43.21 44.232 43.714 43.932 44.066 43.332C44.426 42.724 44.606 41.852 44.606 40.716C44.606 39.572 44.426 38.7 44.066 38.1C43.714 37.492 43.21 37.188 42.554 37.188C41.906 37.188 41.402 37.492 41.042 38.1C40.682 38.7 40.502 39.572 40.502 40.716C40.502 41.852 40.682 42.724 41.042 43.332C41.402 43.932 41.906 44.232 42.554 44.232ZM48.787 45H47.599L53.383 36.42H54.571L48.787 45ZM53.443 45.096C53.083 45.096 52.759 45.012 52.471 44.844C52.183 44.676 51.955 44.448 51.787 44.16C51.619 43.864 51.535 43.536 51.535 43.176C51.535 42.816 51.619 42.492 51.787 42.204C51.955 41.908 52.183 41.676 52.471 41.508C52.759 41.34 53.083 41.256 53.443 41.256C53.811 41.256 54.139 41.34 54.427 41.508C54.715 41.676 54.943 41.908 55.111 42.204C55.279 42.492 55.363 42.816 55.363 43.176C55.363 43.536 55.279 43.864 55.111 44.16C54.943 44.448 54.715 44.676 54.427 44.844C54.139 45.012 53.811 45.096 53.443 45.096ZM53.443 44.22C53.731 44.22 53.967 44.124 54.151 43.932C54.335 43.732 54.427 43.48 54.427 43.176C54.427 42.872 54.335 42.624 54.151 42.432C53.967 42.232 53.731 42.132 53.443 42.132C53.163 42.132 52.931 42.232 52.747 42.432C52.563 42.624 52.471 42.872 52.471 43.176C52.471 43.48 52.563 43.732 52.747 43.932C52.931 44.124 53.163 44.22 53.443 44.22ZM48.715 40.164C48.355 40.164 48.031 40.08 47.743 39.912C47.455 39.744 47.227 39.516 47.059 39.228C46.891 38.932 46.807 38.604 46.807 38.244C46.807 37.884 46.891 37.56 47.059 37.272C47.227 36.976 47.455 36.744 47.743 36.576C48.031 36.408 48.355 36.324 48.715 36.324C49.083 36.324 49.411 36.408 49.699 36.576C49.987 36.744 50.215 36.976 50.383 37.272C50.551 37.56 50.635 37.884 50.635 38.244C50.635 38.604 50.551 38.932 50.383 39.228C50.215 39.516 49.987 39.744 49.699 39.912C49.411 40.08 49.083 40.164 48.715 40.164ZM48.715 39.288C49.003 39.288 49.239 39.192 49.423 39C49.607 38.8 49.699 38.548 49.699 38.244C49.699 37.94 49.607 37.692 49.423 37.5C49.239 37.3 49.003 37.2 48.715 37.2C48.435 37.2 48.203 37.3 48.019 37.5C47.835 37.692 47.743 37.94 47.743 38.244C47.743 38.548 47.835 38.8 48.019 39C48.203 39.192 48.435 39.288 48.715 39.288Z" fill="#101010"/><path d="M44.9007 4.33513C45.2015 2.14656 47.2269 0.596241 49.3745 1.11393C57.6199 3.10152 65.058 7.67031 70.5719 14.2055C76.9494 21.7641 80.3007 31.4174 79.9788 41.3019C79.6569 51.1863 75.6847 60.6011 68.829 67.7289C61.9733 74.8566 52.7201 79.1919 42.8556 79.8979C32.9911 80.604 23.2149 77.6306 15.4139 71.5519C7.61292 65.4732 2.3404 56.7201 0.614105 46.9822C-1.11219 37.2444 0.830134 27.2122 6.06615 18.8223C10.5932 11.5685 17.3048 5.98699 25.1831 2.84538C27.2351 2.0271 29.4606 3.27317 30.07 5.39661L32.4803 13.796C33.0897 15.9195 31.8401 18.1048 29.8522 19.0685C25.9332 20.9685 22.6003 23.9442 20.2661 27.6843C17.2212 32.5634 16.0916 38.3975 17.0955 44.0604C18.0995 49.7234 21.1656 54.8137 25.7022 58.3487C30.2388 61.8837 35.9241 63.6128 41.6606 63.2022C47.3972 62.7917 52.7783 60.2705 56.7652 56.1254C60.7521 51.9804 63.0621 46.5053 63.2493 40.7571C63.4364 35.0089 61.4876 29.3951 57.7788 24.9995C54.9357 21.6298 51.213 19.1592 47.0634 17.8367C44.9585 17.1659 43.4104 15.1808 43.7112 12.9922L44.9007 4.33513Z" fill="#E52F3B"/></svg>