<svg width="80" height="80" viewBox="0 0 80 80" fill="none" xmlns="http://www.w3.org/2000/svg"><path d="M77.4843 40C78.8737 40 80.0082 41.1275 79.9209 42.5142C79.4784 49.5414 77.1871 56.3437 73.2588 62.2228C68.8635 68.8008 62.6164 73.9277 55.3073 76.9552C47.9983 79.9827 39.9556 80.7748 32.1964 79.2314C24.4371 77.688 17.3098 73.8784 11.7157 68.2843C6.12163 62.6902 2.312 55.5629 0.768589 47.8036C-0.77482 40.0444 0.0173134 32.0017 3.04482 24.6927C6.07232 17.3836 11.1992 11.1365 17.7772 6.74122C23.6563 2.81289 30.4586 0.521577 37.4858 0.0790738C38.8725 -0.00824317 40 1.12632 40 2.51571C40 3.9051 38.8722 5.022 37.4864 5.12186C31.4552 5.55647 25.6241 7.54934 20.5725 10.9247C14.8219 14.7671 10.3399 20.2284 7.69324 26.6181C5.04655 33.0078 4.35406 40.0388 5.70333 46.822C7.0526 53.6053 10.383 59.8361 15.2735 64.7265C20.1639 69.617 26.3947 72.9474 33.178 74.2967C39.9612 75.6459 46.9922 74.9534 53.3819 72.3068C59.7716 69.6601 65.2329 65.1781 69.0753 59.4275C72.4507 54.3759 74.4435 48.5448 74.8781 42.5136C74.978 41.1278 76.0949 40 77.4843 40Z" fill="#222222"/><path d="M44.9007 4.33513C45.2015 2.14656 47.2267 0.596225 49.3743 1.11394C56.3489 2.79526 62.769 6.32882 67.9385 11.3741C73.1079 16.4194 76.7964 22.7517 78.6468 29.6834C79.2165 31.8178 77.7159 33.8801 75.5352 34.234L66.9096 35.6336C64.729 35.9874 62.7069 34.4881 61.9851 32.4002C60.8084 28.9962 58.8508 25.8939 56.2473 23.3529C53.6438 20.8119 50.4948 18.9303 47.0633 17.8367C44.9585 17.1659 43.4104 15.1808 43.7112 12.9922L44.9007 4.33513Z" fill="#E52F3B"/><path d="M34.7367 46H28.9887V45.064L32.0487 42.208C32.5367 41.744 32.9087 41.324 33.1647 40.948C33.4287 40.572 33.5607 40.184 33.5607 39.784C33.5607 39.488 33.4887 39.22 33.3447 38.98C33.2087 38.74 33.0167 38.548 32.7687 38.404C32.5207 38.26 32.2327 38.188 31.9047 38.188C31.4487 38.188 31.0327 38.316 30.6567 38.572C30.2807 38.82 29.9527 39.172 29.6727 39.628L28.8927 38.896C29.3007 38.344 29.7567 37.928 30.2607 37.648C30.7727 37.368 31.3367 37.228 31.9527 37.228C32.5047 37.228 32.9847 37.344 33.3927 37.576C33.8007 37.8 34.1167 38.104 34.3407 38.488C34.5727 38.872 34.6887 39.308 34.6887 39.796C34.6887 40.164 34.6087 40.516 34.4487 40.852C34.2967 41.188 34.0687 41.532 33.7647 41.884C33.4607 42.236 33.0727 42.624 32.6007 43.048C32.3607 43.272 32.1167 43.5 31.8687 43.732C31.6207 43.956 31.3727 44.18 31.1247 44.404C30.8847 44.628 30.6447 44.848 30.4047 45.064H34.7367V46ZM39.4485 46.192C38.7845 46.192 38.2085 46.016 37.7205 45.664C37.2405 45.304 36.8725 44.792 36.6165 44.128C36.3605 43.456 36.2325 42.652 36.2325 41.716C36.2325 40.3 36.5165 39.2 37.0845 38.416C37.6605 37.624 38.4485 37.228 39.4485 37.228C40.4565 37.228 41.2445 37.624 41.8125 38.416C42.3885 39.2 42.6765 40.3 42.6765 41.716C42.6765 42.652 42.5485 43.456 42.2925 44.128C42.0365 44.792 41.6685 45.304 41.1885 45.664C40.7085 46.016 40.1285 46.192 39.4485 46.192ZM39.4485 45.232C40.1045 45.232 40.6085 44.932 40.9605 44.332C41.3205 43.724 41.5005 42.852 41.5005 41.716C41.5005 40.572 41.3205 39.7 40.9605 39.1C40.6085 38.492 40.1045 38.188 39.4485 38.188C38.8005 38.188 38.2965 38.492 37.9365 39.1C37.5765 39.7 37.3965 40.572 37.3965 41.716C37.3965 42.852 37.5765 43.724 37.9365 44.332C38.2965 44.932 38.8005 45.232 39.4485 45.232ZM45.6815 46H44.4935L50.2775 37.42H51.4655L45.6815 46ZM50.3375 46.096C49.9775 46.096 49.6535 46.012 49.3655 45.844C49.0775 45.676 48.8495 45.448 48.6815 45.16C48.5135 44.864 48.4295 44.536 48.4295 44.176C48.4295 43.816 48.5135 43.492 48.6815 43.204C48.8495 42.908 49.0775 42.676 49.3655 42.508C49.6535 42.34 49.9775 42.256 50.3375 42.256C50.7055 42.256 51.0335 42.34 51.3215 42.508C51.6095 42.676 51.8375 42.908 52.0055 43.204C52.1735 43.492 52.2575 43.816 52.2575 44.176C52.2575 44.536 52.1735 44.864 52.0055 45.16C51.8375 45.448 51.6095 45.676 51.3215 45.844C51.0335 46.012 50.7055 46.096 50.3375 46.096ZM50.3375 45.22C50.6255 45.22 50.8615 45.124 51.0455 44.932C51.2295 44.732 51.3215 44.48 51.3215 44.176C51.3215 43.872 51.2295 43.624 51.0455 43.432C50.8615 43.232 50.6255 43.132 50.3375 43.132C50.0575 43.132 49.8255 43.232 49.6415 43.432C49.4575 43.624 49.3655 43.872 49.3655 44.176C49.3655 44.48 49.4575 44.732 49.6415 44.932C49.8255 45.124 50.0575 45.22 50.3375 45.22ZM45.6095 41.164C45.2495 41.164 44.9255 41.08 44.6375 40.912C44.3495 40.744 44.1215 40.516 43.9535 40.228C43.7855 39.932 43.7015 39.604 43.7015 39.244C43.7015 38.884 43.7855 38.56 43.9535 38.272C44.1215 37.976 44.3495 37.744 44.6375 37.576C44.9255 37.408 45.2495 37.324 45.6095 37.324C45.9775 37.324 46.3055 37.408 46.5935 37.576C46.8815 37.744 47.1095 37.976 47.2775 38.272C47.4455 38.56 47.5295 38.884 47.5295 39.244C47.5295 39.604 47.4455 39.932 47.2775 40.228C47.1095 40.516 46.8815 40.744 46.5935 40.912C46.3055 41.08 45.9775 41.164 45.6095 41.164ZM45.6095 40.288C45.8975 40.288 46.1335 40.192 46.3175 40C46.5015 39.8 46.5935 39.548 46.5935 39.244C46.5935 38.94 46.5015 38.692 46.3175 38.5C46.1335 38.3 45.8975 38.2 45.6095 38.2C45.3295 38.2 45.0975 38.3 44.9135 38.5C44.7295 38.692 44.6375 38.94 44.6375 39.244C44.6375 39.548 44.7295 39.8 44.9135 40C45.0975 40.192 45.3295 40.288 45.6095 40.288Z" fill="white"/></svg>