<svg width="1174" height="1070" viewBox="0 0 1174 1070" fill="none" xmlns="http://www.w3.org/2000/svg"><path opacity="0.6" fill-rule="evenodd" clip-rule="evenodd" d="M948.388 21.0395C1006.44 59.551 1022.29 137.833 983.774 195.888L778.964 504.632C769.635 518.694 779.718 537.482 796.593 537.482C803.684 537.482 810.303 533.93 814.222 528.021L941.916 335.527C980.428 277.473 1058.71 261.63 1116.76 300.141C1174.82 338.653 1190.66 416.935 1152.15 474.99L794.872 1013.57C756.36 1071.63 678.078 1087.47 620.023 1048.96C561.969 1010.45 546.126 932.167 584.637 874.112L733.409 649.844C742.737 635.782 732.655 616.994 715.78 616.994C708.689 616.994 702.07 620.546 698.151 626.455L626.495 734.473C587.983 792.528 509.701 808.371 451.646 769.859C393.592 731.347 377.749 653.065 416.26 595.01L498.303 471.333C507.411 457.604 497.567 439.261 481.092 439.261C474.169 439.261 467.707 442.729 463.88 448.498L231.274 799.143C192.763 857.197 114.48 873.04 56.4256 834.529C-1.6291 796.017 -17.472 717.735 21.0395 659.68L378.319 121.095C416.83 63.0406 495.113 47.1977 553.167 85.7092C611.222 124.221 627.065 202.503 588.553 260.558L544.028 327.677C534.921 341.407 544.765 359.75 561.24 359.75C568.163 359.75 574.625 356.282 578.452 350.513L773.539 56.4256C812.051 -1.62906 890.333 -17.472 948.388 21.0395Z" fill="#171717"/></svg>