<svg width="181" height="37" viewBox="0 0 181 37" fill="none" xmlns="http://www.w3.org/2000/svg"><path d="M70.9975 0H10.2398C4.58451 0 0 4.52155 0 10.0992V26.3208C0 31.8985 4.58451 36.42 10.2398 36.42H70.9975C76.6527 36.42 81.2373 31.8985 81.2373 26.3208V10.0992C81.2373 4.52155 76.6527 0 70.9975 0Z" fill="#E52F3B"/><path d="M47.3528 5.14497L46.3295 3.76318H45.5741L45.5644 4.93484C45.5644 4.93484 15.1162 5.15134 13.8378 5.86134C12.5627 6.57133 8.88256 7.45008 7.92056 9.77747C6.96179 12.1049 6.63574 18.2274 6.63574 18.2274C6.63574 18.2274 6.94888 24.3499 7.90119 26.6805C8.85673 29.0079 12.5336 29.893 13.8088 30.6094C15.0839 31.3225 45.5321 31.6123 45.5321 31.6123L45.5192 32.6629H46.4974L47.3173 31.4021C47.3173 31.4021 52.1015 31.1984 53.4412 31.1379C54.7809 31.0774 62.1799 31.9657 67.0932 31.469C72.0065 30.9723 72.9717 23.4871 73.8013 23.4234C74.631 23.3629 74.5955 18.307 74.5955 18.307C74.5955 18.307 74.6439 13.2542 73.8143 13.1905C72.9846 13.1269 72.0355 5.63847 67.1255 5.12905C62.2154 4.61964 54.8132 5.49201 53.4735 5.42833C52.1338 5.36466 47.3496 5.14816 47.3496 5.14816L47.3528 5.14497ZM25.3398 9.27124C24.8944 8.58034 25.3398 7.31954 25.3398 7.31954L45.8162 7.34182C45.8162 7.34182 40.9029 9.7902 39.0532 9.66285C37.2034 9.53549 25.7853 9.96213 25.3398 9.26805V9.27124ZM8.34345 13.9101C8.34345 13.9101 8.68887 10.5543 9.07302 9.65648C9.45718 8.75545 12.5627 7.5838 12.5627 7.5838C12.5627 7.5838 12.7338 7.9181 12.5627 8.2142C12.3916 8.50711 10.2642 9.34446 9.7122 9.93029C9.16018 10.5161 9.11176 13.4516 8.8987 13.9133C8.68564 14.3749 8.34668 13.9133 8.34668 13.9133L8.34345 13.9101ZM21.395 8.51348L24.2842 11.9552L24.2681 25.1236L21.7146 27.9731C21.7146 27.9731 15.1097 26.1743 15.0936 18.2338C15.0742 10.5161 21.3982 8.5103 21.3982 8.5103L21.395 8.51348ZM9.05042 26.8683C8.6695 25.9673 8.33377 22.6115 8.33377 22.6115C8.33377 22.6115 8.67595 22.1499 8.88579 22.6115C9.09885 23.0732 9.13759 26.0087 9.6896 26.5977C10.2416 27.1867 12.3658 28.0273 12.5369 28.3202C12.708 28.6131 12.5369 28.9506 12.5369 28.9506C12.5369 28.9506 9.43458 27.7694 9.05365 26.8683H9.05042ZM25.314 29.1766C25.314 29.1766 24.8685 27.919 25.314 27.2249C25.7627 26.534 37.1776 26.9861 39.0306 26.862C40.8803 26.7378 45.7904 29.1989 45.7904 29.1989L25.314 29.1734V29.1766ZM71.2704 23.8755C70.373 28.2788 67.8195 28.9888 67.8195 28.9888C67.3191 29.218 67.1803 29.113 66.8414 28.6513C66.5024 28.1896 67.2675 27.3109 68.2489 25.4643C69.2302 23.6208 71.2704 23.8755 71.2704 23.8755ZM53.0958 18.6795C53.1732 24.5951 50.3615 28.0304 50.3615 28.0304C41.0514 26.5531 41.7745 25.84 41.7745 25.84C43.2692 21.061 41.7067 10.6562 41.7939 10.2359C41.8778 9.81567 50.3873 8.52622 50.3873 8.52622C50.3873 8.52622 53.0183 12.7639 53.0958 18.6795ZM67.8453 7.22721C67.8453 7.22721 70.3956 7.94357 71.2834 12.3468C71.2834 12.3468 69.2431 12.5952 68.265 10.7485C67.2901 8.90191 66.525 8.01998 66.8672 7.55833C67.2094 7.09667 67.345 6.99479 67.8453 7.22402V7.22721Z" fill="white"/><path d="M100.848 2.93984V16.0025H97.0608V6.04768H92.9332L92.8118 8.35428C92.747 10.0701 92.5852 11.4945 92.3262 12.6276C92.0672 13.7606 91.6463 14.6509 91.0636 15.2984C90.4809 15.9458 89.6716 16.2696 88.6356 16.2696C88.0853 16.2696 87.4297 16.1724 86.6689 15.9782L86.8632 12.8704C87.1222 12.9027 87.3083 12.9189 87.4216 12.9189C87.9882 12.9189 88.409 12.7166 88.6842 12.3119C88.9755 11.8911 89.1698 11.365 89.2669 10.7337C89.364 10.0863 89.4369 9.23646 89.4854 8.18432L89.6797 2.93984H100.848Z" fill="#E52F3B"/><path d="M110.998 13.1617C111.678 13.1617 112.277 13.0646 112.795 12.8704C113.329 12.6599 113.822 12.3362 114.276 11.8992L116.291 14.0844C115.061 15.4926 113.264 16.1967 110.901 16.1967C109.428 16.1967 108.125 15.9135 106.992 15.3469C105.859 14.7642 104.985 13.963 104.369 12.9432C103.754 11.9234 103.447 10.7661 103.447 9.47116C103.447 8.19242 103.746 7.04316 104.345 6.0234C104.96 4.98746 105.794 4.18622 106.846 3.61968C107.914 3.03697 109.112 2.74561 110.439 2.74561C111.686 2.74561 112.819 3.01269 113.839 3.54685C114.858 4.06482 115.668 4.82559 116.267 5.82916C116.882 6.81655 117.189 7.99008 117.189 9.34976L107.526 11.2193C107.801 11.8668 108.23 12.3524 108.813 12.6761C109.412 12.9999 110.14 13.1617 110.998 13.1617ZM110.439 5.61064C109.484 5.61064 108.707 5.91819 108.109 6.53328C107.51 7.14838 107.194 7.99818 107.162 9.08268L113.523 7.8444C113.345 7.16456 112.981 6.62231 112.43 6.21764C111.88 5.81298 111.216 5.61064 110.439 5.61064Z" fill="#E52F3B"/><path d="M125.927 16.1967C124.551 16.1967 123.313 15.9135 122.212 15.3469C121.127 14.7642 120.278 13.963 119.662 12.9432C119.047 11.9234 118.74 10.7661 118.74 9.47116C118.74 8.17623 119.047 7.01888 119.662 5.99912C120.278 4.97936 121.127 4.18622 122.212 3.61968C123.313 3.03697 124.551 2.74561 125.927 2.74561C127.303 2.74561 128.533 3.03697 129.617 3.61968C130.702 4.18622 131.552 4.97936 132.167 5.99912C132.782 7.01888 133.089 8.17623 133.089 9.47116C133.089 10.7661 132.782 11.9234 132.167 12.9432C131.552 13.963 130.702 14.7642 129.617 15.3469C128.533 15.9135 127.303 16.1967 125.927 16.1967ZM125.927 13.0889C126.898 13.0889 127.691 12.7652 128.306 12.1177C128.937 11.454 129.253 10.5719 129.253 9.47116C129.253 8.37047 128.937 7.49639 128.306 6.84892C127.691 6.18527 126.898 5.85344 125.927 5.85344C124.955 5.85344 124.154 6.18527 123.523 6.84892C122.892 7.49639 122.576 8.37047 122.576 9.47116C122.576 10.5719 122.892 11.454 123.523 12.1177C124.154 12.7652 124.955 13.0889 125.927 13.0889Z" fill="#E52F3B"/><path d="M135.694 2.93984H139.458V8.03864H145.139V2.93984H148.927V16.0025H145.139V11.1222H139.458V16.0025H135.694V2.93984Z" fill="#E52F3B"/><path d="M158.671 16.1967C157.296 16.1967 156.057 15.9135 154.957 15.3469C153.872 14.7642 153.022 13.963 152.407 12.9432C151.792 11.9234 151.485 10.7661 151.485 9.47116C151.485 8.17623 151.792 7.01888 152.407 5.99912C153.022 4.97936 153.872 4.18622 154.957 3.61968C156.057 3.03697 157.296 2.74561 158.671 2.74561C160.047 2.74561 161.278 3.03697 162.362 3.61968C163.447 4.18622 164.296 4.97936 164.911 5.99912C165.527 7.01888 165.834 8.17623 165.834 9.47116C165.834 10.7661 165.527 11.9234 164.911 12.9432C164.296 13.963 163.447 14.7642 162.362 15.3469C161.278 15.9135 160.047 16.1967 158.671 16.1967ZM158.671 13.0889C159.643 13.0889 160.436 12.7652 161.051 12.1177C161.682 11.454 161.998 10.5719 161.998 9.47116C161.998 8.37047 161.682 7.49639 161.051 6.84892C160.436 6.18527 159.643 5.85344 158.671 5.85344C157.7 5.85344 156.899 6.18527 156.268 6.84892C155.636 7.49639 155.321 8.37047 155.321 9.47116C155.321 10.5719 155.636 11.454 156.268 12.1177C156.899 12.7652 157.7 13.0889 158.671 13.0889Z" fill="#E52F3B"/><path d="M178.418 9.1798C179.956 9.69778 180.725 10.7337 180.725 12.2876C180.725 13.4693 180.28 14.3838 179.39 15.0313C178.499 15.6788 177.172 16.0025 175.408 16.0025H168.439V2.93984H175.116C176.751 2.93984 178.03 3.2393 178.952 3.8382C179.875 4.42092 180.336 5.24644 180.336 6.31476C180.336 6.96223 180.166 7.53686 179.827 8.03864C179.503 8.52424 179.033 8.90463 178.418 9.1798ZM171.911 8.30572H174.776C176.104 8.30572 176.767 7.83631 176.767 6.89748C176.767 5.97484 176.104 5.51352 174.776 5.51352H171.911V8.30572ZM175.092 13.4288C176.484 13.4288 177.18 12.9513 177.18 11.9963C177.18 11.4945 177.018 11.1303 176.694 10.9037C176.371 10.6609 175.861 10.5395 175.165 10.5395H171.911V13.4288H175.092Z" fill="#E52F3B"/><path d="M101.502 20.8739V33.9366H97.8838V32.4312C96.945 33.5643 95.5853 34.1308 93.8048 34.1308C92.5746 34.1308 91.4577 33.8556 90.4541 33.3053C89.4667 32.7549 88.6898 31.9699 88.1232 30.9501C87.5567 29.9304 87.2734 28.7487 87.2734 27.4052C87.2734 26.0618 87.5567 24.8801 88.1232 23.8604C88.6898 22.8406 89.4667 22.0556 90.4541 21.5052C91.4577 20.9549 92.5746 20.6797 93.8048 20.6797C95.472 20.6797 96.775 21.2058 97.7138 22.2579V20.8739H101.502ZM94.4603 31.023C95.4153 31.023 96.2085 30.6992 96.8398 30.0518C97.471 29.3881 97.7867 28.5059 97.7867 27.4052C97.7867 26.3046 97.471 25.4305 96.8398 24.783C96.2085 24.1194 95.4153 23.7875 94.4603 23.7875C93.4891 23.7875 92.6879 24.1194 92.0566 24.783C91.4253 25.4305 91.1097 26.3046 91.1097 27.4052C91.1097 28.5059 91.4253 29.3881 92.0566 30.0518C92.6879 30.6992 93.4891 31.023 94.4603 31.023Z" fill="#E52F3B"/><path d="M115.06 27.1139C116.598 27.6319 117.367 28.6678 117.367 30.2217C117.367 31.4034 116.922 32.3179 116.031 32.9654C115.141 33.6128 113.814 33.9366 112.049 33.9366H105.081V20.8739H111.758C113.393 20.8739 114.672 21.1734 115.594 21.7723C116.517 22.355 116.978 23.1805 116.978 24.2488C116.978 24.8963 116.808 25.4709 116.468 25.9727C116.145 26.4583 115.675 26.8387 115.06 27.1139ZM108.553 26.2398H111.418C112.745 26.2398 113.409 25.7704 113.409 24.8316C113.409 23.9089 112.745 23.4476 111.418 23.4476H108.553V26.2398ZM111.734 31.3629C113.126 31.3629 113.822 30.8854 113.822 29.9304C113.822 29.4286 113.66 29.0644 113.336 28.8378C113.013 28.595 112.503 28.4736 111.807 28.4736H108.553V31.3629H111.734Z" fill="#E52F3B"/><path d="M136.89 20.6797C138.524 20.6797 139.819 21.1653 140.774 22.1365C141.746 23.0915 142.231 24.5321 142.231 26.4583V33.9366H138.444V27.041C138.444 26.0051 138.225 25.2362 137.788 24.7344C137.367 24.2165 136.76 23.9575 135.967 23.9575C135.077 23.9575 134.373 24.2488 133.855 24.8316C133.337 25.3981 133.078 26.2479 133.078 27.381V33.9366H129.29V27.041C129.29 24.9853 128.464 23.9575 126.813 23.9575C125.939 23.9575 125.243 24.2488 124.725 24.8316C124.207 25.3981 123.948 26.2479 123.948 27.381V33.9366H120.161V20.8739H123.778V22.3793C124.264 21.8289 124.855 21.4081 125.551 21.1167C126.263 20.8254 127.04 20.6797 127.882 20.6797C128.804 20.6797 129.638 20.8658 130.383 21.2381C131.127 21.5942 131.726 22.1203 132.179 22.8163C132.713 22.1365 133.385 21.6104 134.195 21.2381C135.02 20.8658 135.918 20.6797 136.89 20.6797Z" fill="#E52F3B"/><path d="M151.651 34.1308C150.275 34.1308 149.036 33.8475 147.936 33.281C146.851 32.6983 146.001 31.897 145.386 30.8773C144.771 29.8575 144.464 28.7002 144.464 27.4052C144.464 26.1103 144.771 24.953 145.386 23.9332C146.001 22.9134 146.851 22.1203 147.936 21.5538C149.036 20.971 150.275 20.6797 151.651 20.6797C153.026 20.6797 154.257 20.971 155.341 21.5538C156.426 22.1203 157.275 22.9134 157.89 23.9332C158.506 24.953 158.813 26.1103 158.813 27.4052C158.813 28.7002 158.506 29.8575 157.89 30.8773C157.275 31.897 156.426 32.6983 155.341 33.281C154.257 33.8475 153.026 34.1308 151.651 34.1308ZM151.651 31.023C152.622 31.023 153.415 30.6992 154.03 30.0518C154.661 29.3881 154.977 28.5059 154.977 27.4052C154.977 26.3046 154.661 25.4305 154.03 24.783C153.415 24.1194 152.622 23.7875 151.651 23.7875C150.679 23.7875 149.878 24.1194 149.247 24.783C148.616 25.4305 148.3 26.3046 148.3 27.4052C148.3 28.5059 148.616 29.3881 149.247 30.0518C149.878 30.6992 150.679 31.023 151.651 31.023Z" fill="#E52F3B"/></svg>