<svg width="155" height="37" viewBox="0 0 155 37" fill="none" xmlns="http://www.w3.org/2000/svg"><g clip-path="url(#clip0_139_793)"><path d="M71.0029 0H10.2406C4.58486 0 0 4.52189 0 10.0999V26.3228C0 31.9009 4.58486 36.4228 10.2406 36.4228H71.0029C76.6586 36.4228 81.2434 31.9009 81.2434 26.3228V10.0999C81.2434 4.52189 76.6586 0 71.0029 0Z" fill="#E52F3B"/><path d="M106.632 3.74121V15.758H87.6387V3.74121H91.2255V12.8986H95.3675V3.74121H98.9543V12.8986H103.048V3.74121H106.635H106.632Z" fill="#E52F3B"/><path d="M121.808 12.3414C121.808 14.462 120.165 15.758 116.742 15.758H110.102V3.74121H116.465C119.587 3.74121 121.44 4.88111 121.44 6.8457C121.44 8.05246 120.768 8.9663 119.613 9.48212C121.069 9.95018 121.811 10.9118 121.811 12.3414H121.808ZM113.411 8.67973H116.142C117.391 8.67973 118.04 8.23396 118.04 7.38381C118.04 6.53365 117.391 6.11017 116.142 6.11017H113.411V8.67973ZM118.431 12.074C118.431 11.1569 117.83 10.7335 116.51 10.7335H113.411V13.3922H116.442C117.759 13.3922 118.431 12.9687 118.431 12.074Z" fill="#E52F3B"/><path d="M133.814 11.9854L135.735 13.9945C134.579 15.2682 132.842 15.9368 130.599 15.9368C126.295 15.9368 123.496 13.3227 123.496 9.75016C123.496 6.17761 126.318 3.56348 130.16 3.56348C133.675 3.56348 136.568 5.79552 136.591 9.63871L127.383 11.3581C127.916 12.5426 129.072 13.1444 130.692 13.1444C132.009 13.1444 132.959 12.7655 133.814 11.9822V11.9854ZM127.034 9.39354L133.094 8.25364C132.746 7.02458 131.661 6.1999 130.156 6.1999C128.352 6.1999 127.102 7.36209 127.034 9.39354Z" fill="#E52F3B"/><path d="M151.787 3.74106V13.7455C151.787 18.2127 149.288 20.2665 144.801 20.2665C142.441 20.2665 140.152 19.7093 138.692 18.6139L140.126 16.1112C141.191 16.9391 142.925 17.474 144.52 17.474C147.064 17.474 148.174 16.3564 148.174 14.1912V13.6786C147.225 14.6848 145.859 15.1751 144.242 15.1751C140.794 15.1751 138.018 12.8762 138.018 9.36734C138.018 5.85848 140.794 3.55957 144.242 3.55957C145.976 3.55957 147.412 4.11679 148.358 5.27898V3.73788H151.78L151.787 3.74106ZM148.223 9.37053C148.223 7.60654 146.857 6.42206 144.962 6.42206C143.067 6.42206 141.679 7.60654 141.679 9.37053C141.679 11.1345 143.067 12.319 144.962 12.319C146.857 12.319 148.223 11.1345 148.223 9.37053Z" fill="#E52F3B"/><path d="M100.2 22.1829V34.1997H96.7521V32.8146C95.8513 33.8654 94.5309 34.378 92.865 34.378C89.3493 34.378 86.6406 31.9645 86.6406 28.1913C86.6406 24.4182 89.346 22.0046 92.865 22.0046C94.3921 22.0046 95.6867 22.4727 96.5906 23.4566V22.1829H100.2ZM96.6617 28.1913C96.6617 26.1153 95.2734 24.8639 93.4914 24.8639C91.7093 24.8639 90.2984 26.1153 90.2984 28.1913C90.2984 30.2673 91.6867 31.5187 93.4914 31.5187C95.296 31.5187 96.6617 30.2673 96.6617 28.1913Z" fill="#E52F3B"/><path d="M115.306 30.7839C115.306 32.9045 113.663 34.2005 110.24 34.2005H103.6V22.1837H109.963C113.085 22.1837 114.938 23.3236 114.938 25.2882C114.938 26.495 114.266 27.4088 113.111 27.9246C114.567 28.3927 115.309 29.3543 115.309 30.7839H115.306ZM106.909 27.1222H109.64C110.889 27.1222 111.538 26.6765 111.538 25.8263C111.538 24.9762 110.889 24.5527 109.64 24.5527H106.909V27.1222ZM111.929 30.5165C111.929 29.5995 111.328 29.176 110.008 29.176H106.909V31.8347H109.94C111.257 31.8347 111.929 31.4112 111.929 30.5165Z" fill="#E52F3B"/><path d="M138.996 27.3221V34.1997H135.387V27.857C135.387 25.9147 134.486 25.02 133.027 25.02C131.406 25.02 130.273 26.0261 130.273 28.169V34.1997H126.664V27.857C126.664 25.9147 125.808 25.02 124.304 25.02C122.709 25.02 121.572 26.0261 121.572 28.169V34.1997H117.963V22.1829H121.411V23.568C122.337 22.5396 123.726 22.0046 125.32 22.0046C127.054 22.0046 128.536 22.651 129.414 23.9692C130.408 22.7402 132.029 22.0046 133.902 22.0046C136.862 22.0046 138.99 23.6572 138.99 27.3189L138.996 27.3221Z" fill="#E52F3B"/><path d="M141.123 28.1911C141.123 24.574 144.016 22.0044 147.971 22.0044C151.925 22.0044 154.795 24.574 154.795 28.1911C154.795 31.8082 151.929 34.3778 147.971 34.3778C144.012 34.3778 141.123 31.8082 141.123 28.1911ZM151.141 28.1911C151.141 26.1151 149.775 24.8637 147.971 24.8637C146.166 24.8637 144.778 26.1151 144.778 28.1911C144.778 30.2671 146.166 31.5184 147.971 31.5184C149.775 31.5184 151.141 30.2671 151.141 28.1911Z" fill="#E52F3B"/><path d="M47.3569 5.14605L46.3335 3.76416H45.578L45.5683 4.9359C45.5683 4.9359 15.1178 5.15242 13.8393 5.86247C12.5641 6.57252 8.88371 7.45133 7.92163 9.7789C6.96279 12.1065 6.63672 18.2295 6.63672 18.2295C6.63672 18.2295 6.94988 24.3525 7.90226 26.6832C8.85788 29.0108 12.5351 29.896 13.8103 30.6124C15.0855 31.3256 45.5361 31.6154 45.5361 31.6154L45.5231 32.6661H46.5014L47.3214 31.4052C47.3214 31.4052 52.1059 31.2014 53.4457 31.1409C54.7855 31.0804 62.1851 31.9688 67.0987 31.4721C72.0124 30.9754 72.9777 23.4896 73.8074 23.4259C74.6371 23.3654 74.6016 18.3091 74.6016 18.3091C74.6016 18.3091 74.65 13.2559 73.8203 13.1922C72.9906 13.1286 72.0415 5.63959 67.131 5.13013C62.2206 4.62068 54.8178 5.49312 53.478 5.42944C52.1382 5.36576 47.3537 5.14924 47.3537 5.14924L47.3569 5.14605ZM25.3422 9.27263C24.8967 8.58168 25.3422 7.32078 25.3422 7.32078L45.8202 7.34307C45.8202 7.34307 40.9065 9.79164 39.0566 9.66427C37.2067 9.53691 25.7878 9.96358 25.3422 9.26945V9.27263ZM8.34456 13.9118C8.34456 13.9118 8.69 10.5558 9.07418 9.6579C9.45837 8.75681 12.5641 7.58506 12.5641 7.58506C12.5641 7.58506 12.7352 7.91939 12.5641 8.21551C12.393 8.50845 10.2655 9.34586 9.71341 9.93174C9.16135 10.5176 9.11292 13.4533 8.89985 13.915C8.68677 14.3767 8.34779 13.915 8.34779 13.915L8.34456 13.9118ZM21.3971 8.51482L24.2865 11.9568L24.2704 25.1262L21.7167 27.976C21.7167 27.976 15.1113 26.1769 15.0952 18.2358C15.0758 10.5176 21.4003 8.51163 21.4003 8.51163L21.3971 8.51482ZM9.05158 26.8711C8.67063 25.97 8.33487 22.614 8.33487 22.614C8.33487 22.614 8.67709 22.1523 8.88693 22.614C9.10001 23.0756 9.13875 26.0114 9.69081 26.6004C10.2429 27.1895 12.3672 28.0301 12.5383 28.323C12.7094 28.616 12.5383 28.9535 12.5383 28.9535C12.5383 28.9535 9.43577 27.7722 9.05481 26.8711H9.05158ZM25.3164 29.1795C25.3164 29.1795 24.8709 27.9218 25.3164 27.2277C25.7652 26.5367 37.1809 26.9889 39.034 26.8647C40.8839 26.7405 45.7943 29.2018 45.7943 29.2018L25.3164 29.1764V29.1795ZM71.2763 23.878C70.3788 28.2816 67.8251 28.9917 67.8251 28.9917C67.3247 29.2209 67.1859 29.1159 66.8469 28.6542C66.5079 28.1925 67.2731 27.3137 68.2545 25.4669C69.236 23.6233 71.2763 23.878 71.2763 23.878ZM53.1003 18.6816C53.1778 24.5976 50.3658 28.0333 50.3658 28.0333C41.055 26.5559 41.7782 25.8426 41.7782 25.8426C43.2729 21.0633 41.7104 10.6577 41.7975 10.2374C41.8815 9.81711 50.3916 8.52755 50.3916 8.52755C50.3916 8.52755 53.0228 12.7656 53.1003 18.6816ZM67.851 7.22845C67.851 7.22845 70.4014 7.94487 71.2892 12.3485C71.2892 12.3485 69.2489 12.5968 68.2707 10.75C67.2957 8.90328 66.5305 8.02128 66.8728 7.55959C67.215 7.0979 67.3506 6.99601 67.851 7.22526V7.22845Z" fill="white"/></g><defs><clipPath id="clip0_139_793"><rect width="154.797" height="36.4228" fill="white"/></clipPath></defs></svg>