<svg width="120" height="24" viewBox="0 0 120 24" fill="none" xmlns="http://www.w3.org/2000/svg"><path d="M46.7858 0H6.74781C3.0211 0 0 2.9796 0 6.65513V17.3449C0 21.0204 3.0211 24 6.74781 24H46.7858C50.5125 24 53.5336 21.0204 53.5336 17.3449V6.65513C53.5336 2.9796 50.5125 0 46.7858 0Z" fill="#E52F3B"/><path d="M31.2047 3.39055L30.5304 2.47998H30.0326L30.0262 3.25208C30.0262 3.25208 9.96148 3.39475 9.11906 3.86262C8.27878 4.33049 5.85365 4.90956 5.21971 6.44326C4.5879 7.97696 4.37305 12.0116 4.37305 12.0116C4.37305 12.0116 4.5794 16.0462 5.20695 17.582C5.83663 19.1157 8.25963 19.699 9.09992 20.171C9.9402 20.641 30.0049 20.8319 30.0049 20.8319L29.9964 21.5243H30.641L31.1813 20.6935C31.1813 20.6935 34.334 20.5592 35.2168 20.5193C36.0997 20.4795 40.9754 21.0648 44.2132 20.7375C47.451 20.4102 48.087 15.4776 48.6337 15.4357C49.1805 15.3958 49.1571 12.064 49.1571 12.064C49.1571 12.064 49.189 8.73437 48.6423 8.69241C48.0955 8.65045 47.4701 3.71575 44.2345 3.38006C40.9988 3.04437 36.1209 3.61924 35.2381 3.57728C34.3553 3.53532 31.2026 3.39265 31.2026 3.39265L31.2047 3.39055ZM16.6986 6.10967C16.4051 5.65438 16.6986 4.82354 16.6986 4.82354L30.1921 4.83823C30.1921 4.83823 26.9544 6.45166 25.7354 6.36773C24.5165 6.28381 16.9922 6.56495 16.6986 6.10757V6.10967ZM5.49839 9.16658C5.49839 9.16658 5.72601 6.9552 5.97916 6.36354C6.23231 5.76978 8.27878 4.99768 8.27878 4.99768C8.27878 4.99768 8.39152 5.21798 8.27878 5.4131C8.16603 5.60613 6.76414 6.15792 6.40037 6.54397C6.0366 6.93002 6.00469 8.86445 5.86429 9.16868C5.72389 9.4729 5.50052 9.16868 5.50052 9.16868L5.49839 9.16658ZM14.0991 5.61032L16.003 7.87835L15.9924 16.556L14.3097 18.4338C14.3097 18.4338 9.95722 17.2484 9.94658 12.0158C9.93382 6.93002 14.1012 5.60823 14.1012 5.60823L14.0991 5.61032ZM5.96427 17.7058C5.71325 17.112 5.49201 14.9006 5.49201 14.9006C5.49201 14.9006 5.7175 14.5964 5.85578 14.9006C5.99618 15.2049 6.02171 17.1393 6.38548 17.5274C6.74925 17.9156 8.14901 18.4695 8.26176 18.6625C8.37451 18.8555 8.26176 19.0779 8.26176 19.0779C8.26176 19.0779 6.21742 18.2995 5.9664 17.7058H5.96427ZM16.6816 19.2269C16.6816 19.2269 16.3881 18.3982 16.6816 17.9408C16.9773 17.4855 24.4995 17.7834 25.7205 17.7016C26.9395 17.6198 30.1751 19.2416 30.1751 19.2416L16.6816 19.2248V19.2269ZM46.9659 15.7336C46.3745 18.6352 44.6918 19.1031 44.6918 19.1031C44.3621 19.2542 44.2706 19.1849 44.0473 18.8807C43.8239 18.5765 44.3281 17.9974 44.9748 16.7805C45.6215 15.5657 46.9659 15.7336 46.9659 15.7336ZM34.9892 12.3095C35.0403 16.2078 33.1874 18.4716 33.1874 18.4716C27.0522 17.4981 27.5288 17.0281 27.5288 17.0281C28.5137 13.8789 27.4841 7.02234 27.5415 6.74539C27.5968 6.46844 33.2044 5.61872 33.2044 5.61872C33.2044 5.61872 34.9382 8.41127 34.9892 12.3095ZM44.7089 4.7627C44.7089 4.7627 46.3894 5.23477 46.9744 8.13642C46.9744 8.13642 45.63 8.30007 44.9854 7.08318C44.343 5.86629 43.8388 5.28512 44.0643 4.9809C44.2898 4.67668 44.3791 4.60954 44.7089 4.7606V4.7627Z" fill="white"/><path d="M66.4563 1.93757V10.5456H63.9603V3.98557H61.2403L61.1603 5.50557C61.1176 6.63624 61.011 7.5749 60.8403 8.32157C60.6696 9.06824 60.3923 9.6549 60.0083 10.0816C59.6243 10.5082 59.091 10.7216 58.4083 10.7216C58.0456 10.7216 57.6136 10.6576 57.1123 10.5296L57.2403 8.48157C57.411 8.5029 57.5336 8.51357 57.6083 8.51357C57.9816 8.51357 58.259 8.38024 58.4403 8.11357C58.6323 7.83624 58.7603 7.48957 58.8243 7.07357C58.8883 6.6469 58.9363 6.0869 58.9683 5.39357L59.0963 1.93757H66.4563Z" fill="white"/><path d="M73.1446 8.67357C73.5926 8.67357 73.9872 8.60957 74.3286 8.48157C74.6806 8.3429 75.0059 8.12957 75.3046 7.84157L76.6326 9.28157C75.8219 10.2096 74.6379 10.6736 73.0806 10.6736C72.1099 10.6736 71.2512 10.4869 70.5046 10.1136C69.7579 9.72957 69.1819 9.20157 68.7766 8.52957C68.3712 7.85757 68.1686 7.0949 68.1686 6.24157C68.1686 5.3989 68.3659 4.64157 68.7606 3.96957C69.1659 3.2869 69.7152 2.7589 70.4086 2.38557C71.1126 2.00157 71.9019 1.80957 72.7766 1.80957C73.5979 1.80957 74.3446 1.98557 75.0166 2.33757C75.6886 2.6789 76.2219 3.18024 76.6166 3.84157C77.0219 4.49224 77.2246 5.26557 77.2246 6.16157L70.8566 7.39357C71.0379 7.82024 71.3206 8.14024 71.7046 8.35357C72.0992 8.5669 72.5792 8.67357 73.1446 8.67357ZM72.7766 3.69757C72.1472 3.69757 71.6352 3.90024 71.2406 4.30557C70.8459 4.7109 70.6379 5.2709 70.6166 5.98557L74.8086 5.16957C74.6912 4.72157 74.4512 4.36424 74.0886 4.09757C73.7259 3.8309 73.2886 3.69757 72.7766 3.69757Z" fill="white"/><path d="M82.9823 10.6736C82.0756 10.6736 81.2596 10.4869 80.5343 10.1136C79.8196 9.72957 79.2596 9.20157 78.8543 8.52957C78.449 7.85757 78.2463 7.0949 78.2463 6.24157C78.2463 5.38824 78.449 4.62557 78.8543 3.95357C79.2596 3.28157 79.8196 2.7589 80.5343 2.38557C81.2596 2.00157 82.0756 1.80957 82.9823 1.80957C83.889 1.80957 84.6996 2.00157 85.4143 2.38557C86.129 2.7589 86.689 3.28157 87.0943 3.95357C87.4996 4.62557 87.7023 5.38824 87.7023 6.24157C87.7023 7.0949 87.4996 7.85757 87.0943 8.52957C86.689 9.20157 86.129 9.72957 85.4143 10.1136C84.6996 10.4869 83.889 10.6736 82.9823 10.6736ZM82.9823 8.62557C83.6223 8.62557 84.145 8.41224 84.5503 7.98557C84.9663 7.54824 85.1743 6.9669 85.1743 6.24157C85.1743 5.51624 84.9663 4.94024 84.5503 4.51357C84.145 4.07624 83.6223 3.85757 82.9823 3.85757C82.3423 3.85757 81.8143 4.07624 81.3983 4.51357C80.9823 4.94024 80.7743 5.51624 80.7743 6.24157C80.7743 6.9669 80.9823 7.54824 81.3983 7.98557C81.8143 8.41224 82.3423 8.62557 82.9823 8.62557Z" fill="white"/><path d="M89.4191 1.93757H91.8991V5.29757H95.6431V1.93757H98.1391V10.5456H95.6431V7.32957H91.8991V10.5456H89.4191V1.93757Z" fill="white"/><path d="M104.56 10.6736C103.654 10.6736 102.838 10.4869 102.112 10.1136C101.398 9.72957 100.838 9.20157 100.432 8.52957C100.027 7.85757 99.8244 7.0949 99.8244 6.24157C99.8244 5.38824 100.027 4.62557 100.432 3.95357C100.838 3.28157 101.398 2.7589 102.112 2.38557C102.838 2.00157 103.654 1.80957 104.56 1.80957C105.467 1.80957 106.278 2.00157 106.992 2.38557C107.707 2.7589 108.267 3.28157 108.672 3.95357C109.078 4.62557 109.28 5.38824 109.28 6.24157C109.28 7.0949 109.078 7.85757 108.672 8.52957C108.267 9.20157 107.707 9.72957 106.992 10.1136C106.278 10.4869 105.467 10.6736 104.56 10.6736ZM104.56 8.62557C105.2 8.62557 105.723 8.41224 106.128 7.98557C106.544 7.54824 106.752 6.9669 106.752 6.24157C106.752 5.51624 106.544 4.94024 106.128 4.51357C105.723 4.07624 105.2 3.85757 104.56 3.85757C103.92 3.85757 103.392 4.07624 102.976 4.51357C102.56 4.94024 102.352 5.51624 102.352 6.24157C102.352 6.9669 102.56 7.54824 102.976 7.98557C103.392 8.41224 103.92 8.62557 104.56 8.62557Z" fill="white"/><path d="M117.573 6.04957C118.587 6.3909 119.093 7.07357 119.093 8.09757C119.093 8.87624 118.8 9.4789 118.213 9.90557C117.627 10.3322 116.752 10.5456 115.589 10.5456H110.997V1.93757H115.397C116.475 1.93757 117.317 2.1349 117.925 2.52957C118.533 2.91357 118.837 3.45757 118.837 4.16157C118.837 4.58824 118.725 4.9669 118.501 5.29757C118.288 5.61757 117.979 5.86824 117.573 6.04957ZM113.285 5.47357H115.173C116.048 5.47357 116.485 5.16424 116.485 4.54557C116.485 3.93757 116.048 3.63357 115.173 3.63357H113.285V5.47357ZM115.381 8.84957C116.299 8.84957 116.757 8.5349 116.757 7.90557C116.757 7.5749 116.651 7.3349 116.437 7.18557C116.224 7.02557 115.888 6.94557 115.429 6.94557H113.285V8.84957H115.381Z" fill="white"/><path d="M66.8877 13.7557V22.3637H64.5037V21.3717C63.8851 22.1184 62.9891 22.4917 61.8157 22.4917C61.0051 22.4917 60.2691 22.3104 59.6077 21.9477C58.9571 21.585 58.4451 21.0677 58.0717 20.3957C57.6984 19.7237 57.5117 18.945 57.5117 18.0597C57.5117 17.1744 57.6984 16.3957 58.0717 15.7237C58.4451 15.0517 58.9571 14.5344 59.6077 14.1717C60.2691 13.809 61.0051 13.6277 61.8157 13.6277C62.9144 13.6277 63.7731 13.9744 64.3917 14.6677V13.7557H66.8877ZM62.2477 20.4437C62.8771 20.4437 63.3997 20.2304 63.8157 19.8037C64.2317 19.3664 64.4397 18.785 64.4397 18.0597C64.4397 17.3344 64.2317 16.7584 63.8157 16.3317C63.3997 15.8944 62.8771 15.6757 62.2477 15.6757C61.6077 15.6757 61.0797 15.8944 60.6637 16.3317C60.2477 16.7584 60.0397 17.3344 60.0397 18.0597C60.0397 18.785 60.2477 19.3664 60.6637 19.8037C61.0797 20.2304 61.6077 20.4437 62.2477 20.4437Z" fill="white"/><path d="M75.8226 17.8677C76.8359 18.209 77.3426 18.8917 77.3426 19.9157C77.3426 20.6944 77.0493 21.297 76.4626 21.7237C75.8759 22.1504 75.0013 22.3637 73.8386 22.3637H69.2466V13.7557H73.6466C74.7239 13.7557 75.5666 13.953 76.1746 14.3477C76.7826 14.7317 77.0866 15.2757 77.0866 15.9797C77.0866 16.4064 76.9746 16.785 76.7506 17.1157C76.5373 17.4357 76.2279 17.6864 75.8226 17.8677ZM71.5346 17.2917H73.4226C74.2973 17.2917 74.7346 16.9824 74.7346 16.3637C74.7346 15.7557 74.2973 15.4517 73.4226 15.4517H71.5346V17.2917ZM73.6306 20.6677C74.5479 20.6677 75.0066 20.353 75.0066 19.7237C75.0066 19.393 74.8999 19.153 74.6866 19.0037C74.4733 18.8437 74.1373 18.7637 73.6786 18.7637H71.5346V20.6677H73.6306Z" fill="white"/><path d="M90.2077 13.6277C91.285 13.6277 92.1384 13.9477 92.7677 14.5877C93.4077 15.217 93.7277 16.1664 93.7277 17.4357V22.3637H91.2317V17.8197C91.2317 17.137 91.0877 16.6304 90.7997 16.2997C90.5224 15.9584 90.1224 15.7877 89.5997 15.7877C89.0131 15.7877 88.5491 15.9797 88.2077 16.3637C87.8664 16.737 87.6957 17.297 87.6957 18.0437V22.3637H85.1997V17.8197C85.1997 16.465 84.6557 15.7877 83.5677 15.7877C82.9917 15.7877 82.5331 15.9797 82.1917 16.3637C81.8504 16.737 81.6797 17.297 81.6797 18.0437V22.3637H79.1837V13.7557H81.5677V14.7477C81.8877 14.385 82.2771 14.1077 82.7357 13.9157C83.2051 13.7237 83.7171 13.6277 84.2717 13.6277C84.8797 13.6277 85.4291 13.7504 85.9197 13.9957C86.4104 14.2304 86.8051 14.577 87.1037 15.0357C87.4557 14.5877 87.8984 14.241 88.4317 13.9957C88.9757 13.7504 89.5677 13.6277 90.2077 13.6277Z" fill="white"/><path d="M99.9348 22.4917C99.0282 22.4917 98.2122 22.305 97.4868 21.9317C96.7722 21.5477 96.2122 21.0197 95.8068 20.3477C95.4015 19.6757 95.1988 18.913 95.1988 18.0597C95.1988 17.2064 95.4015 16.4437 95.8068 15.7717C96.2122 15.0997 96.7722 14.577 97.4868 14.2037C98.2122 13.8197 99.0282 13.6277 99.9348 13.6277C100.842 13.6277 101.652 13.8197 102.367 14.2037C103.082 14.577 103.642 15.0997 104.047 15.7717C104.452 16.4437 104.655 17.2064 104.655 18.0597C104.655 18.913 104.452 19.6757 104.047 20.3477C103.642 21.0197 103.082 21.5477 102.367 21.9317C101.652 22.305 100.842 22.4917 99.9348 22.4917ZM99.9348 20.4437C100.575 20.4437 101.098 20.2304 101.503 19.8037C101.919 19.3664 102.127 18.785 102.127 18.0597C102.127 17.3344 101.919 16.7584 101.503 16.3317C101.098 15.8944 100.575 15.6757 99.9348 15.6757C99.2948 15.6757 98.7668 15.8944 98.3508 16.3317C97.9348 16.7584 97.7268 17.3344 97.7268 18.0597C97.7268 18.785 97.9348 19.3664 98.3508 19.8037C98.7668 20.2304 99.2948 20.4437 99.9348 20.4437Z" fill="white"/></svg>