<svg width="24" height="33" viewBox="0 0 24 33" fill="none" xmlns="http://www.w3.org/2000/svg">
<path d="M20 0H4C2.93913 0 1.92172 0.347677 1.17157 0.966547C0.421427 1.58542 0 2.42479 0 3.3V29.7C0 30.5752 0.421427 31.4146 1.17157 32.0335C1.92172 32.6523 2.93913 33 4 33H20C21.0609 33 22.0783 32.6523 22.8284 32.0335C23.5786 31.4146 24 30.5752 24 29.7V3.3C24 2.42479 23.5786 1.58542 22.8284 0.966547C22.0783 0.347677 21.0609 0 20 0ZM14 31.35H10V29.7H14V31.35ZM20 28.05H4V4.95H20V28.05Z" fill="white"/>
</svg>
