<svg width="158" height="28" viewBox="0 0 158 28" fill="none" xmlns="http://www.w3.org/2000/svg"><g clip-path="url(#clip0_1_306)"><path d="M48.0039 6.25558L53.1926 21.5939H50.3403L49.248 18.1954H43.9074L42.8454 21.5939H39.9931L45.1819 6.25558H48.0039ZM44.666 15.6691H48.4287L46.517 9.74431L44.666 15.6691ZM55.347 21.5939V6.28566H61.9013C64.5716 6.28566 66.1798 7.90972 66.1798 9.65408V12.9022C66.1798 14.1353 65.3302 15.3082 63.904 15.8796L66.5136 21.5639H63.5095L61.0517 16.2105H58.1994V21.5639H55.347V21.5939ZM58.2297 8.84205V13.7142H61.6889C62.5992 13.7142 63.3578 13.203 63.3578 12.3007V10.2857C63.3578 9.35333 62.5689 8.84205 61.5675 8.84205H58.2297ZM71.8541 21.5939V8.81198H68.0307V6.31574H78.2262V8.81198H74.7064V21.5939H71.8541ZM81.6551 17.233V18.2255C81.6551 19.5789 82.9295 20.6015 84.5681 20.6015H86.3887C88.088 20.6015 89.3928 19.7894 89.3928 18.3759V17.2932C89.3928 14.9473 80.8662 14.4962 80.8662 10.4661V9.08265C80.8662 7.54882 82.353 6.19543 84.3253 6.19543H86.3584C88.5735 6.19543 90.212 7.66912 90.212 9.32325V10.7067H88.9376V9.56386C88.9376 8.3007 87.7542 7.33829 86.2673 7.33829H84.5074C83.2026 7.33829 82.1406 8.1804 82.1406 9.29318V10.406C82.1406 13.4135 90.6672 13.8045 90.6672 17.1127V18.5864C90.6672 20.5112 88.8769 21.7142 86.4798 21.7142H84.5074C82.1103 21.7142 80.3503 20.1804 80.3503 18.406V17.233H81.6551ZM97.0697 21.5939V7.42852H92.7609V6.31574H102.471V7.42852H98.3442V21.5939H97.0697ZM109.329 6.22551L114.76 21.5939H113.486L111.756 16.6917H105.596L103.897 21.5939H102.592L108.054 6.22551H109.329ZM105.991 15.5488H111.362L108.691 7.84957L105.991 15.5488ZM119.281 21.5939V7.42852H114.973V6.31574H124.683V7.42852H120.556V21.5939H119.281ZM127.535 21.5939V6.31574H128.809V21.5939H127.535ZM136.729 21.7142C134.605 21.7142 133.088 20.1804 133.088 18.406V9.50371C133.088 7.72927 134.635 6.19543 136.729 6.19543H139.794C141.887 6.19543 143.405 7.72927 143.405 9.50371V18.406C143.405 20.1804 141.887 21.7142 139.794 21.7142H136.729ZM139.672 20.5714C141.038 20.5714 142.13 19.5488 142.13 18.1954V9.71423C142.13 8.36085 141.038 7.33829 139.672 7.33829H136.79C135.424 7.33829 134.332 8.36085 134.332 9.71423V18.2255C134.332 19.5789 135.424 20.6015 136.79 20.6015H139.672V20.5714ZM147.683 21.5939V6.31574H149.018L156.756 19.3684V6.28566H158.03V21.5639H156.695L148.958 8.51122V21.5639H147.683V21.5939Z" fill="white"/><path d="M0 21.594L2.7006 26.2256C3.24678 27.2782 4.33916 28 5.58325 28H23.5771L19.8752 21.594H0ZM32.1037 21.6241C32.1037 20.9925 31.9216 20.391 31.5879 19.8797L21.0282 1.71429C20.482 0.691729 19.42 0 18.1759 0H12.5927L28.8873 27.9699L31.4665 23.5489C31.952 22.7068 32.1037 22.3459 32.1037 21.6241ZM17.2049 17.0226L9.92241 4.54135L2.63991 17.0226H17.2049Z" fill="#13AFF0"/></g><defs><clipPath id="clip0_1_306"><rect width="158" height="28" fill="white"/></clipPath></defs></svg>