<svg width="369" height="201" viewBox="0 0 369 201" fill="none" xmlns="http://www.w3.org/2000/svg"><mask id="mask0_3_1900" style="mask-type:luminance" maskUnits="userSpaceOnUse" x="0" y="0" width="369" height="201"><path d="M369 0H0V201H369V0Z" fill="white"/></mask><g mask="url(#mask0_3_1900)"><path opacity="0.501744" d="M363.659 0.485504H5.34074C2.65925 0.485504 0.485474 2.6592 0.485474 5.34058V195.659C0.485474 198.34 2.65925 200.514 5.34074 200.514H363.659C366.34 200.514 368.514 198.34 368.514 195.659V5.34058C368.514 2.6592 366.34 0.485504 363.659 0.485504Z" stroke="#CFF64A"/><g opacity="0.504348"><path opacity="0.495326" d="M0 18.4493H41.3773C42.8063 18.4493 44.1199 17.6647 44.7973 16.4066L49.3948 7.86871C50.0722 6.61062 51.3858 5.82608 52.8148 5.82608H133.777C135.126 5.82608 136.378 6.52581 137.084 7.67451L142.579 16.6008C143.286 17.7496 144.537 18.4493 145.886 18.4493H369" stroke="#CFF64A"/><path opacity="0.495326" d="M133.52 11.1667L130.497 14.1892" stroke="#CFF64A" stroke-linecap="round"/><path opacity="0.495326" d="M10.6815 13.1087C12.0223 13.1087 13.1092 12.0218 13.1092 10.6812C13.1092 9.34046 12.0223 8.25362 10.6815 8.25362C9.3408 8.25362 8.25391 9.34046 8.25391 10.6812C8.25391 12.0218 9.3408 13.1087 10.6815 13.1087Z" stroke="#CFF64A"/><path opacity="0.495326" d="M22.3342 13.1087C23.675 13.1087 24.7619 12.0218 24.7619 10.6812C24.7619 9.34046 23.675 8.25362 22.3342 8.25362C20.9935 8.25362 19.9066 9.34046 19.9066 10.6812C19.9066 12.0218 20.9935 13.1087 22.3342 13.1087Z" stroke="#CFF64A"/><path opacity="0.495326" d="M33.0158 13.1087C34.3565 13.1087 35.4434 12.0218 35.4434 10.6812C35.4434 9.34046 34.3565 8.25362 33.0158 8.25362C31.675 8.25362 30.5881 9.34046 30.5881 10.6812C30.5881 12.0218 31.675 13.1087 33.0158 13.1087Z" stroke="#CFF64A"/><path opacity="0.495326" d="M0.971069 38.8406H369" stroke="#CFF64A"/><path opacity="0.495326" d="M130.607 11.1667L133.629 14.1892" stroke="#CFF64A" stroke-linecap="round"/></g><g opacity="0.495326"><g opacity="0.500023"><path d="M36.9 26.2174L42.7263 32.0435" stroke="#CFF64A" stroke-linecap="round"/><path d="M42.7263 26.2174L36.9 32.0435" stroke="#CFF64A" stroke-linecap="round"/><path d="M21.3632 29.1304H29.1316" stroke="#CFF64A" stroke-linecap="round"/><path d="M27.1895 26.2174L29.1316 29.1304L27.1895 32.0435" stroke="#CFF64A" stroke-linecap="round"/><path d="M16.5079 29.1304H8.7395" stroke="#CFF64A" stroke-linecap="round"/><path d="M10.6816 26.2174L8.7395 29.1304L10.6816 32.0435" stroke="#CFF64A" stroke-linecap="round"/></g><path opacity="0.254209" d="M344.724 24.2754H56.3211C54.7122 24.2754 53.408 25.5795 53.408 27.1884V30.1014C53.408 31.7103 54.7122 33.0145 56.3211 33.0145H344.724C346.333 33.0145 347.637 31.7103 347.637 30.1014V27.1884C347.637 25.5795 346.333 24.2754 344.724 24.2754Z" fill="#CFF64A"/><g opacity="0.501721"><path d="M358.318 26.2174C358.854 26.2174 359.29 25.7827 359.29 25.2464C359.29 24.7101 358.854 24.2754 358.318 24.2754C357.782 24.2754 357.347 24.7101 357.347 25.2464C357.347 25.7827 357.782 26.2174 358.318 26.2174Z" fill="#CFF64A"/><path d="M358.318 29.1304C358.854 29.1304 359.29 28.6957 359.29 28.1594C359.29 27.6231 358.854 27.1884 358.318 27.1884C357.782 27.1884 357.347 27.6231 357.347 28.1594C357.347 28.6957 357.782 29.1304 358.318 29.1304Z" fill="#CFF64A"/><path d="M358.318 32.0435C358.854 32.0435 359.29 31.6087 359.29 31.0725C359.29 30.5362 358.854 30.1014 358.318 30.1014C357.782 30.1014 357.347 30.5362 357.347 31.0725C357.347 31.6087 357.782 32.0435 358.318 32.0435Z" fill="#CFF64A"/></g></g><path opacity="0.247698" d="M229.654 84.9638H140.317C138.708 84.9638 137.404 86.2679 137.404 87.8768V182.065C137.404 183.674 138.708 184.978 140.317 184.978H229.654C231.263 184.978 232.567 183.674 232.567 182.065V87.8768C232.567 86.2679 231.263 84.9638 229.654 84.9638Z" stroke="#CFF64A"/><g opacity="0.503953"><path d="M197.124 161.188H222.371C223.444 161.188 224.313 162.057 224.313 163.13V169.928C224.313 171.001 223.444 171.87 222.371 171.87H197.124C196.051 171.87 195.182 171.001 195.182 169.928V163.13C195.182 162.057 196.051 161.188 197.124 161.188Z" fill="#CFF64A"/><path opacity="0.247605" d="M189.355 161.188H147.6C146.527 161.188 145.658 162.057 145.658 163.13V169.928C145.658 171.001 146.527 171.87 147.6 171.87H189.355C190.428 171.87 191.297 171.001 191.297 169.928V163.13C191.297 162.057 190.428 161.188 189.355 161.188Z" fill="#CFF64A"/><path fill-rule="evenodd" clip-rule="evenodd" d="M205.523 167.183H204.888V168.471H203.88V164.585H205.488C205.826 164.585 206.176 164.649 206.473 164.935C206.776 165.226 206.834 165.552 206.834 165.878C206.834 166.187 206.794 166.548 206.491 166.846C206.188 167.143 205.826 167.183 205.523 167.183ZM204.888 165.401V166.368H205.226C205.331 166.368 205.529 166.356 205.652 166.245C205.774 166.141 205.78 165.983 205.78 165.89C205.78 165.785 205.768 165.645 205.663 165.54C205.547 165.418 205.36 165.401 205.232 165.401H204.888ZM210.359 168.471L210.12 167.819H208.71L208.448 168.471H207.382L208.874 164.585H209.975L211.437 168.471H210.359ZM208.99 167.049H209.852L209.415 165.791L208.99 167.049ZM213.628 168.471V166.607L212.224 164.585H213.43L214.164 165.645L214.869 164.585H216.092L214.642 166.607V168.471H213.628Z" fill="#1B1B1B"/></g><path d="M150.736 94.3478H149.83C149.813 94.2305 149.779 94.1264 149.729 94.0353C149.677 93.9429 149.612 93.8643 149.531 93.7994C149.452 93.7347 149.36 93.6849 149.255 93.6505C149.151 93.616 149.039 93.5988 148.918 93.5988C148.698 93.5988 148.507 93.6533 148.344 93.7622C148.182 93.8698 148.055 94.027 147.965 94.234C147.876 94.4394 147.831 94.6891 147.831 94.9829C147.831 95.285 147.876 95.5387 147.965 95.7443C148.056 95.9497 148.184 96.1049 148.346 96.2098C148.509 96.3145 148.697 96.367 148.911 96.367C149.031 96.367 149.142 96.3512 149.244 96.3194C149.348 96.2877 149.439 96.2414 149.52 96.1807C149.599 96.1187 149.665 96.0435 149.718 95.9553C149.772 95.867 149.809 95.7663 149.83 95.6532L150.736 95.6574C150.712 95.8519 150.654 96.0394 150.56 96.2201C150.468 96.3994 150.343 96.5601 150.186 96.7022C150.03 96.8429 149.843 96.9545 149.627 97.0373C149.412 97.1189 149.168 97.1597 148.896 97.1597C148.519 97.1597 148.181 97.0739 147.883 96.9029C147.586 96.7318 147.351 96.4842 147.18 96.1601C147.009 95.8359 146.923 95.4435 146.923 94.9829C146.923 94.5208 147.01 94.1277 147.183 93.8036C147.357 93.4795 147.593 93.2325 147.891 93.0629C148.189 92.8919 148.524 92.8064 148.896 92.8064C149.142 92.8064 149.369 92.8408 149.579 92.9098C149.791 92.9788 149.977 93.0795 150.14 93.2119C150.302 93.343 150.436 93.5036 150.537 93.694C150.64 93.8843 150.707 94.1022 150.736 94.3478ZM152.244 92.8643V97.1015H151.362V92.8643H152.244ZM154.385 97.1636C154.063 97.1636 153.786 97.0952 153.552 96.9587C153.319 96.8207 153.138 96.6291 153.012 96.3836C152.885 96.1367 152.821 95.8504 152.821 95.5249C152.821 95.1967 152.885 94.9098 153.012 94.6643C153.138 94.4174 153.319 94.2257 153.552 94.0891C153.786 93.9512 154.063 93.8823 154.385 93.8823C154.706 93.8823 154.984 93.9512 155.217 94.0891C155.451 94.2257 155.632 94.4174 155.759 94.6643C155.886 94.9098 155.949 95.1967 155.949 95.5249C155.949 95.8504 155.886 96.1367 155.759 96.3836C155.632 96.6291 155.451 96.8207 155.217 96.9587C154.984 97.0952 154.706 97.1636 154.385 97.1636ZM154.39 96.4808C154.535 96.4808 154.658 96.4394 154.756 96.3567C154.854 96.2725 154.928 96.158 154.977 96.0132C155.028 95.8684 155.054 95.7036 155.054 95.5187C155.054 95.3339 155.028 95.169 154.977 95.0243C154.928 94.8794 154.854 94.7649 154.756 94.6808C154.658 94.5967 154.535 94.5546 154.39 94.5546C154.242 94.5546 154.118 94.5967 154.017 94.6808C153.918 94.7649 153.842 94.8794 153.791 95.0243C153.742 95.169 153.717 95.3339 153.717 95.5187C153.717 95.7036 153.742 95.8684 153.791 96.0132C153.842 96.158 153.918 96.2725 154.017 96.3567C154.118 96.4394 154.242 96.4808 154.39 96.4808ZM158.56 95.7483V93.9236H159.442V97.1015H158.595V96.5242H158.562C158.49 96.7104 158.372 96.8601 158.205 96.9732C158.039 97.0863 157.837 97.1432 157.598 97.1432C157.386 97.1432 157.199 97.0946 157.038 96.998C156.877 96.9014 156.75 96.7642 156.659 96.5863C156.57 96.4083 156.524 96.1953 156.522 95.947V93.9236H157.404V95.7897C157.405 95.9773 157.455 96.1256 157.555 96.2345C157.654 96.3436 157.787 96.398 157.954 96.398C158.06 96.398 158.159 96.3739 158.252 96.3256C158.345 96.276 158.42 96.2029 158.476 96.1063C158.533 96.0097 158.562 95.8904 158.56 95.7483ZM161.318 97.1529C161.076 97.1529 160.858 97.0911 160.662 96.967C160.467 96.8414 160.313 96.6573 160.198 96.4146C160.086 96.1704 160.029 95.8712 160.029 95.5167C160.029 95.1525 160.088 94.8498 160.204 94.6084C160.322 94.3656 160.478 94.1842 160.672 94.0643C160.869 93.9429 161.083 93.8823 161.316 93.8823C161.494 93.8823 161.642 93.9125 161.761 93.9732C161.88 94.0326 161.977 94.107 162.05 94.1967C162.125 94.2849 162.181 94.3718 162.22 94.4574H162.246V92.8643H163.126V97.1015H162.257V96.5925H162.22C162.178 96.6808 162.12 96.7684 162.044 96.8552C161.97 96.9408 161.873 97.0118 161.752 97.0683C161.634 97.1248 161.489 97.1529 161.318 97.1529ZM161.597 96.4518C161.74 96.4518 161.859 96.4132 161.957 96.3359C162.056 96.2574 162.133 96.1477 162.185 96.007C162.239 95.8663 162.266 95.7014 162.266 95.5125C162.266 95.3235 162.24 95.1594 162.187 95.0201C162.135 94.8808 162.059 94.7733 161.959 94.6973C161.86 94.6215 161.74 94.5836 161.597 94.5836C161.452 94.5836 161.331 94.6228 161.231 94.7015C161.132 94.7801 161.057 94.8891 161.005 95.0284C160.954 95.1677 160.929 95.3291 160.929 95.5125C160.929 95.6974 160.954 95.8608 161.005 96.0028C161.058 96.1435 161.133 96.2539 161.231 96.3339C161.331 96.4125 161.452 96.4518 161.597 96.4518ZM164.012 97.1015V92.8643H165.444C165.776 92.8643 166.048 92.9243 166.259 93.0443C166.471 93.1629 166.629 93.3236 166.731 93.5264C166.833 93.7291 166.884 93.9553 166.884 94.2049C166.884 94.4546 166.833 94.6815 166.731 94.8856C166.63 95.0898 166.474 95.2525 166.264 95.3739C166.052 95.4939 165.782 95.5538 165.452 95.5538H164.426V95.0987H165.435C165.664 95.0987 165.846 95.0594 165.984 94.9809C166.122 94.9022 166.222 94.796 166.284 94.6622C166.347 94.527 166.379 94.3747 166.379 94.2049C166.379 94.0353 166.347 93.8836 166.284 93.7498C166.222 93.616 166.121 93.5112 165.982 93.4353C165.842 93.3581 165.658 93.3195 165.428 93.3195H164.525V97.1015H164.012ZM168.58 97.1762C168.379 97.1762 168.195 97.1384 168.031 97.0621C167.867 96.9849 167.737 96.8739 167.641 96.7291C167.544 96.5828 167.495 96.4063 167.495 96.1994C167.495 96.0173 167.531 95.8697 167.603 95.7567C167.675 95.6422 167.771 95.5525 167.89 95.4877C168.011 95.4229 168.143 95.3746 168.288 95.3429C168.434 95.3097 168.581 95.2835 168.728 95.2643C168.921 95.2394 169.078 95.2208 169.198 95.2084C169.32 95.1946 169.408 95.1719 169.463 95.1401C169.52 95.1084 169.548 95.0532 169.548 94.9746V94.958C169.548 94.7539 169.492 94.5953 169.381 94.4822C169.27 94.3691 169.102 94.3125 168.878 94.3125C168.645 94.3125 168.461 94.3636 168.329 94.4656C168.197 94.5677 168.104 94.6766 168.049 94.7926L167.586 94.627C167.669 94.4339 167.779 94.2836 167.917 94.176C168.057 94.067 168.209 93.9912 168.373 93.9484C168.538 93.9043 168.701 93.8823 168.861 93.8823C168.963 93.8823 169.081 93.8946 169.213 93.9194C169.347 93.9429 169.476 93.9919 169.599 94.0664C169.725 94.1408 169.829 94.2533 169.912 94.4036C169.994 94.5539 170.036 94.7553 170.036 95.0078V97.1015H169.548V96.6711H169.523C169.49 96.74 169.435 96.8138 169.357 96.8925C169.281 96.9711 169.178 97.038 169.05 97.0932C168.92 97.1481 168.764 97.1762 168.58 97.1762ZM168.654 96.7373C168.848 96.7373 169.01 96.6994 169.142 96.6235C169.276 96.5477 169.377 96.4497 169.445 96.3298C169.514 96.2098 169.548 96.0835 169.548 95.9511V95.5042C169.527 95.5291 169.482 95.5518 169.411 95.5725C169.342 95.5918 169.262 95.6091 169.171 95.6243C169.082 95.638 168.994 95.6505 168.909 95.6614C168.824 95.6711 168.756 95.6794 168.704 95.6863C168.577 95.7029 168.458 95.7298 168.348 95.767C168.239 95.8028 168.15 95.8573 168.083 95.9304C168.016 96.0022 167.983 96.1001 167.983 96.2242C167.983 96.3939 168.047 96.5221 168.172 96.6091C168.299 96.6946 168.459 96.7373 168.654 96.7373ZM171.128 98.2929C171.045 98.2929 170.971 98.2861 170.906 98.2725C170.842 98.2599 170.797 98.2473 170.772 98.2356L170.897 97.8045C171.015 97.8355 171.12 97.8462 171.211 97.8385C171.302 97.8297 171.382 97.7889 171.453 97.7161C171.525 97.6443 171.59 97.5277 171.649 97.3665L171.74 97.118L170.565 93.9236H171.095L171.972 96.4559H172.006L172.882 93.9236H173.413L172.063 97.5646C172.003 97.7287 171.928 97.8647 171.838 97.9725C171.748 98.0812 171.644 98.1618 171.525 98.2142C171.408 98.2667 171.275 98.2929 171.128 98.2929ZM174.056 97.1015V93.9236H174.528V94.4201H174.57C174.636 94.2505 174.743 94.1188 174.891 94.025C175.038 93.9298 175.216 93.8823 175.423 93.8823C175.632 93.8823 175.806 93.9298 175.946 94.025C176.087 94.1188 176.197 94.2505 176.274 94.4201H176.308C176.389 94.256 176.511 94.1257 176.674 94.0291C176.836 93.9312 177.032 93.8823 177.26 93.8823C177.543 93.8823 177.776 93.9712 177.957 94.1491C178.138 94.3256 178.228 94.6008 178.228 94.9746V97.1015H177.74V94.9746C177.74 94.7401 177.675 94.5725 177.547 94.4719C177.419 94.3712 177.268 94.3209 177.094 94.3209C176.87 94.3209 176.698 94.3884 176.574 94.5236C176.452 94.6574 176.391 94.827 176.391 95.0325V97.1015H175.894V94.9249C175.894 94.7442 175.835 94.5988 175.718 94.4884C175.601 94.3767 175.45 94.3209 175.265 94.3209C175.138 94.3209 175.02 94.3546 174.909 94.4222C174.8 94.4898 174.712 94.5836 174.644 94.7035C174.578 94.8222 174.545 94.9594 174.545 95.1152V97.1015H174.056ZM180.453 97.1675C180.147 97.1675 179.883 97.1001 179.66 96.9649C179.44 96.8284 179.27 96.638 179.15 96.3939C179.031 96.1484 178.972 95.8628 178.972 95.5373C178.972 95.2119 179.031 94.9249 179.15 94.6766C179.27 94.427 179.437 94.2326 179.651 94.0933C179.865 93.9526 180.117 93.8823 180.403 93.8823C180.569 93.8823 180.732 93.9098 180.894 93.965C181.055 94.0201 181.202 94.1098 181.334 94.234C181.466 94.3567 181.572 94.5194 181.651 94.7222C181.73 94.9249 181.769 95.1746 181.769 95.4711V95.678H179.319V95.2559H181.272C181.272 95.0767 181.236 94.9167 181.164 94.776C181.095 94.6353 180.994 94.5243 180.862 94.4429C180.733 94.3615 180.58 94.3209 180.403 94.3209C180.209 94.3209 180.041 94.3691 179.898 94.4656C179.757 94.5608 179.65 94.685 179.574 94.838C179.498 94.9911 179.46 95.1553 179.46 95.3304V95.6118C179.46 95.8519 179.501 96.0553 179.585 96.2222C179.668 96.3877 179.785 96.5139 179.934 96.6008C180.083 96.6862 180.256 96.7291 180.453 96.7291C180.581 96.7291 180.697 96.7111 180.8 96.6753C180.905 96.638 180.996 96.5828 181.071 96.5097C181.148 96.4352 181.206 96.3428 181.248 96.2325L181.719 96.3649C181.669 96.5249 181.586 96.6656 181.469 96.7869C181.352 96.907 181.207 97.0008 181.034 97.0683C180.862 97.1345 180.668 97.1675 180.453 97.1675ZM183 95.1897V97.1015H182.511V93.9236H182.983V94.4201H183.025C183.1 94.2587 183.212 94.1291 183.364 94.0312C183.516 93.9319 183.712 93.8823 183.951 93.8823C184.167 93.8823 184.355 93.9263 184.517 94.0146C184.678 94.1015 184.804 94.234 184.893 94.4118C184.983 94.5884 185.027 94.8118 185.027 95.0822V97.1015H184.539V95.1152C184.539 94.8656 184.475 94.6712 184.345 94.5319C184.216 94.3912 184.037 94.3209 183.811 94.3209C183.655 94.3209 183.516 94.3546 183.393 94.4222C183.272 94.4898 183.176 94.5884 183.106 94.7181C183.035 94.8477 183 95.0049 183 95.1897ZM187.302 93.9236V94.3374H185.655V93.9236H187.302ZM186.135 93.1622H186.624V96.1911C186.624 96.329 186.643 96.4325 186.683 96.5015C186.725 96.5691 186.777 96.6146 186.84 96.638C186.905 96.6601 186.973 96.6711 187.045 96.6711C187.1 96.6711 187.143 96.6684 187.178 96.6629C187.212 96.656 187.24 96.6504 187.261 96.6462L187.36 97.085C187.327 97.0973 187.28 97.1102 187.221 97.1219C187.162 97.1364 187.087 97.1432 186.996 97.1432C186.858 97.1432 186.723 97.1131 186.591 97.0539C186.46 96.9945 186.35 96.9042 186.263 96.7829C186.178 96.6615 186.135 96.5084 186.135 96.3236V93.1622ZM190.23 94.6353L189.792 94.7595C189.764 94.6863 189.723 94.6153 189.67 94.5463C189.618 94.476 189.546 94.4181 189.454 94.3725C189.364 94.3271 189.248 94.3043 189.105 94.3043C188.911 94.3043 188.748 94.3491 188.619 94.4387C188.491 94.527 188.427 94.6395 188.427 94.776C188.427 94.8974 188.471 94.9932 188.559 95.0636C188.647 95.1339 188.785 95.1925 188.973 95.2394L189.445 95.3553C189.728 95.4242 189.94 95.5298 190.08 95.6718C190.219 95.8125 190.288 95.9939 190.288 96.216C190.288 96.398 190.236 96.5608 190.131 96.7042C190.028 96.8476 189.884 96.9608 189.697 97.0435C189.511 97.1267 189.294 97.1675 189.047 97.1675C188.723 97.1675 188.455 97.0973 188.242 96.9567C188.03 96.816 187.896 96.6104 187.839 96.3401L188.303 96.2242C188.346 96.3952 188.43 96.5235 188.552 96.6091C188.677 96.6946 188.839 96.7373 189.039 96.7373C189.267 96.7373 189.448 96.6891 189.581 96.5925C189.717 96.4946 189.784 96.3774 189.784 96.2408C189.784 96.1304 189.745 96.038 189.668 95.9635C189.59 95.8877 189.472 95.8312 189.312 95.7939L188.782 95.6698C188.491 95.6007 188.277 95.4939 188.141 95.3491C188.006 95.2028 187.939 95.0201 187.939 94.8008C187.939 94.6215 187.989 94.4629 188.089 94.3249C188.191 94.1871 188.33 94.0788 188.505 94.0001C188.681 93.9215 188.881 93.8823 189.105 93.8823C189.419 93.8823 189.666 93.9512 189.846 94.0891C190.026 94.2271 190.154 94.4091 190.23 94.6353Z" fill="#CFF64A"/><g opacity="0.495698"><path d="M203.436 110.21H148.086C147.013 110.21 146.143 111.079 146.143 112.152V140.312C146.143 141.385 147.013 142.254 148.086 142.254H203.436C204.509 142.254 205.378 141.385 205.378 140.312V112.152C205.378 111.079 204.509 110.21 203.436 110.21Z" stroke="#CFF64A"/><path opacity="0.250605" d="M200.037 123.319H151.484C150.948 123.319 150.513 123.754 150.513 124.29V128.174C150.513 128.71 150.948 129.145 151.484 129.145H200.037C200.573 129.145 201.008 128.71 201.008 128.174V124.29C201.008 123.754 200.573 123.319 200.037 123.319Z" fill="#CFF64A"/><path opacity="0.250605" d="M159.253 133.029H151.484C150.948 133.029 150.513 133.464 150.513 134V136.913C150.513 137.449 150.948 137.884 151.484 137.884H159.253C159.789 137.884 160.224 137.449 160.224 136.913V134C160.224 133.464 159.789 133.029 159.253 133.029Z" fill="#CFF64A"/><path opacity="0.250605" d="M175.761 133.029H167.992C167.456 133.029 167.021 133.464 167.021 134V136.913C167.021 137.449 167.456 137.884 167.992 137.884H175.761C176.297 137.884 176.732 137.449 176.732 136.913V134C176.732 133.464 176.297 133.029 175.761 133.029Z" fill="#CFF64A"/><path opacity="0.504953" d="M164.593 133.839L162.651 137.48" stroke="#CFF64A" stroke-linecap="round"/><path fill-rule="evenodd" clip-rule="evenodd" d="M181.61 115.549H182.251L183.335 118.258L184.418 115.549H185.059L183.335 119.685L181.61 115.549ZM185.549 115.549H186.143V119.435H185.549V115.549ZM189.231 116.131L188.753 116.411C188.718 116.324 188.666 116.242 188.578 116.166C188.456 116.067 188.328 116.027 188.159 116.027C187.798 116.027 187.611 116.242 187.611 116.493C187.611 116.609 187.652 116.813 188.031 116.965L188.421 117.122C189.138 117.413 189.336 117.821 189.336 118.264C189.336 119.004 188.811 119.511 188.083 119.511C187.635 119.511 187.367 119.342 187.168 119.12C186.959 118.887 186.865 118.631 186.842 118.363L187.431 118.235C187.431 118.427 187.501 118.607 187.594 118.73C187.704 118.87 187.868 118.963 188.101 118.963C188.462 118.963 188.742 118.701 188.742 118.31C188.742 117.914 188.439 117.751 188.182 117.646L187.809 117.489C187.489 117.355 187.017 117.087 187.017 116.504C187.017 115.98 187.425 115.479 188.153 115.479C188.573 115.479 188.811 115.636 188.934 115.741C189.039 115.834 189.149 115.968 189.231 116.131ZM192.773 119.435L192.365 118.497H190.705L190.28 119.435H189.639L191.573 115.322L193.414 119.435H192.773ZM190.95 117.937H192.127L191.55 116.621L190.95 117.937Z" fill="#CFF64A"/></g><g opacity="0.250581"><path d="M164.108 142.739V147.594C164.108 148.667 164.977 149.536 166.05 149.536H222.371C223.444 149.536 224.313 148.667 224.313 147.594V118.464C224.313 117.391 223.444 116.522 222.371 116.522H204.892" stroke="#CFF64A"/><path opacity="0.506371" d="M218.487 134.971H209.747C209.211 134.971 208.776 135.406 208.776 135.942V138.855C208.776 139.391 209.211 139.826 209.747 139.826H218.487C219.023 139.826 219.458 139.391 219.458 138.855V135.942C219.458 135.406 219.023 134.971 218.487 134.971Z" fill="#CFF64A"/><path opacity="0.499488" d="M224.313 121.377H205.863V130.116H224.313V121.377Z" fill="#CFF64A"/></g><path fill-rule="evenodd" clip-rule="evenodd" d="M152.296 48.87H158.482V57.2897H157.194V50.0818H153.584V57.2897H152.296V48.87ZM160.754 48.87H162.61C163.127 48.87 163.847 48.9205 164.453 49.3244C165.16 49.7915 165.5 50.5994 165.5 51.3694C165.5 51.8617 165.374 52.6191 164.68 53.2124C164.011 53.7804 163.241 53.8688 162.622 53.8688H162.042V57.2897H160.754V48.87ZM162.042 50.0566V52.6822H162.622C163.733 52.6822 164.263 52.1394 164.263 51.3568C164.263 50.8897 164.074 50.0566 162.61 50.0566H162.042ZM171.042 48.7185C173.567 48.7185 175.423 50.612 175.423 53.0861C175.423 55.5603 173.567 57.4538 171.042 57.4538C168.517 57.4538 166.662 55.5603 166.662 53.0861C166.662 50.612 168.517 48.7185 171.042 48.7185ZM171.042 56.2672C172.847 56.2672 174.135 54.9544 174.135 53.0861C174.135 51.2179 172.847 49.9051 171.042 49.9051C169.237 49.9051 167.949 51.2179 167.949 53.0861C167.949 54.9544 169.237 56.2672 171.042 56.2672ZM177.291 48.87H178.566C179.652 48.87 180.333 49.0088 180.889 49.5264C181.343 49.9556 181.558 50.4984 181.558 51.1927C181.558 51.5209 181.507 51.8617 181.305 52.1899C181.116 52.5181 180.863 52.6822 180.674 52.7706C180.826 52.8084 181.343 52.9473 181.76 53.3765C182.214 53.8561 182.315 54.4368 182.315 54.9544C182.315 55.5603 182.164 56.04 181.76 56.4691C181.091 57.176 180.043 57.2897 179.399 57.2897H177.291V48.87ZM178.579 50.0818V52.4928H178.97C179.285 52.4928 179.715 52.455 180.018 52.1646C180.308 51.8869 180.346 51.4956 180.346 51.2053C180.346 50.9528 180.308 50.6499 180.043 50.3974C179.753 50.1197 179.386 50.0818 179.02 50.0818H178.579ZM178.579 53.5532V56.0778H179.361C179.727 56.0778 180.308 56.0147 180.636 55.7496C180.889 55.5477 181.053 55.1942 181.053 54.8155C181.053 54.4747 180.927 54.1465 180.712 53.9319C180.358 53.5911 179.841 53.5532 179.386 53.5532H178.579ZM188.829 48.87V50.0818H185.471V52.2151H188.728V53.427H185.471V56.0778H188.829V57.2897H184.183V48.87H188.829ZM191.556 48.87H196.807V56.0778H197.767V59.1831H196.555V57.2897H191.126V59.1831H189.915V56.0778C190.521 56.1031 191 55.5729 191.253 54.9417C191.417 54.5252 191.556 53.894 191.556 52.7327V48.87ZM192.843 50.0818V52.7327C192.843 54.0329 192.704 54.6767 192.553 55.0806C192.376 55.5477 192.136 55.8506 191.897 56.0778H195.52V50.0818H192.843ZM204.886 57.2897V51.6218L199.206 57.6684V48.87H200.493V54.563L206.174 48.5165V57.2897H204.886ZM212.713 50.0818H210.782V57.2897H209.494V50.0818H207.563V48.87H212.713V50.0818ZM218.747 48.87V50.0818H215.389V52.2151H218.646V53.427H215.389V56.0778H218.747V57.2897H214.102V48.87H218.747ZM166.188 65.2258C168.713 65.2258 170.568 67.1192 170.568 69.5934C170.568 72.0675 168.713 73.961 166.188 73.961C163.663 73.961 161.807 72.0675 161.807 69.5934C161.807 67.1192 163.663 65.2258 166.188 65.2258ZM166.188 72.7744C167.993 72.7744 169.281 71.4616 169.281 69.5934C169.281 67.7251 167.993 66.4123 166.188 66.4123C164.383 66.4123 163.095 67.7251 163.095 69.5934C163.095 71.4616 164.383 72.7744 166.188 72.7744ZM172.437 65.3772H178.622V73.7969H177.335V66.5891H173.724V73.7969H172.437V65.3772ZM181.702 65.3772H187.08V73.7969H185.792V66.5891H182.99V70.78C182.99 71.7393 182.952 72.7113 182.157 73.3677C181.728 73.7212 181.16 73.8726 180.629 73.8726C180.402 73.8726 180.213 73.8348 180.061 73.7969V72.6103C180.188 72.6482 180.352 72.6861 180.528 72.6861C180.857 72.6861 181.122 72.5598 181.286 72.3957C181.715 71.9792 181.702 71.1334 181.702 70.4013V65.3772ZM195.185 73.7969L194.301 71.7646H190.703L189.782 73.7969H188.393L192.584 64.8849L196.573 73.7969H195.185ZM191.233 70.5527H193.783L192.534 67.6999L191.233 70.5527ZM201.648 66.5891H199.716V73.7969H198.429V66.5891H196.497V65.3772H201.648V66.5891ZM202.367 65.3772H203.933L206.104 69.8711L208.073 65.3772H209.411L205.612 73.7969H204.274L205.359 71.4111L202.367 65.3772Z" fill="#CFF64A"/><path opacity="0.251558" d="M351.036 84.9638H261.699C260.09 84.9638 258.786 86.2679 258.786 87.8768V182.065C258.786 183.674 260.09 184.978 261.699 184.978H351.036C352.645 184.978 353.949 183.674 353.949 182.065V87.8768C353.949 86.2679 352.645 84.9638 351.036 84.9638Z" stroke="#CFF64A"/><path opacity="0.252302" d="M267.525 95.6449H346.18C347.253 95.6449 348.122 94.7755 348.122 93.7029C348.122 92.6303 347.253 91.7609 346.18 91.7609H267.525C266.452 91.7609 265.583 92.6303 265.583 93.7029C265.583 94.7755 266.452 95.6449 267.525 95.6449Z" stroke="#CFF64A"/><path opacity="0.252302" d="M269.29 96.5327C269.877 99.3037 270.169 101.435 270.168 102.928C270.165 105.762 268.739 115.029 268.725 128.677C268.712 142.325 271.033 147.054 271.024 155.973C271.018 161.92 270.236 167.865 268.68 173.812C270.513 172.53 272.347 171.89 274.181 171.89C276.014 171.89 277.848 172.53 279.682 173.812C281.515 172.53 283.349 171.89 285.183 171.89C287.017 171.89 288.85 172.53 290.684 173.812C292.518 172.53 294.351 171.89 296.185 171.89C298.019 171.89 299.852 172.53 301.686 173.812C303.52 172.53 305.353 171.89 307.187 171.89C309.021 171.89 310.854 172.53 312.688 173.812C314.522 172.53 316.355 171.89 318.19 171.89C320.023 171.89 321.856 172.53 323.691 173.812C325.524 172.53 327.357 171.89 329.192 171.89C331.025 171.89 332.858 172.53 334.693 173.812C336.526 172.53 338.359 171.89 340.194 171.89C342.027 171.89 343.86 172.53 345.695 173.812C344.4 171.018 343.753 165.071 343.753 155.973C343.753 142.325 345.695 141.366 345.695 128.677C345.695 115.989 343.753 107.484 343.753 102.928C343.753 100.796 344.071 98.7269 344.708 96.7178C345.033 95.6954 344.467 94.6037 343.445 94.2794C343.254 94.2191 343.056 94.1884 342.857 94.1884H271.19C270.118 94.1884 269.248 95.0578 269.248 96.1304C269.248 96.2656 269.262 96.4005 269.29 96.5327Z" stroke="#CFF64A"/><path opacity="0.50014" fill-rule="evenodd" clip-rule="evenodd" d="M299.939 111.666V108.055C299.434 108.093 298.639 108.144 298.197 108.144C297.149 108.144 296.518 108.005 296.114 107.689C295.407 107.147 295.344 106.301 295.344 105.733V103.246H296.278V105.607C296.278 105.935 296.278 106.629 296.783 106.995C297.086 107.222 297.591 107.26 298.247 107.26C298.967 107.26 299.535 107.21 299.939 107.172V103.246H300.873V111.666H299.939ZM309.063 103.246V104.13H305.629V106.629H308.962V107.513H305.629V110.782H309.063V111.666H304.695V103.246H309.063ZM313.365 103.246V106.856L316.95 103.246H318.212L314.273 107.172L318.338 111.666H317.051L313.604 107.803L313.365 108.043V111.666H312.43V103.246H313.365Z" fill="#CFF64A"/><path opacity="0.502325" fill-rule="evenodd" clip-rule="evenodd" d="M280.446 122.035L282.024 122.591L281.986 120.912H282.541L282.503 122.591L284.081 122.035L284.258 122.553L282.642 123.032L283.665 124.37L283.223 124.686L282.264 123.297L281.304 124.686L280.862 124.37L281.885 123.032L280.269 122.553L280.446 122.035ZM289.014 122.035L290.592 122.591L290.554 120.912H291.11L291.072 122.591L292.65 122.035L292.827 122.553L291.211 123.032L292.233 124.37L291.792 124.686L290.832 123.297L289.873 124.686L289.431 124.37L290.453 123.032L288.838 122.553L289.014 122.035ZM297.583 122.035L299.161 122.591L299.123 120.912H299.678L299.641 122.591L301.219 122.035L301.395 122.553L299.779 123.032L300.802 124.37L300.36 124.686L299.401 123.297L298.441 124.686L297.999 124.37L299.022 123.032L297.406 122.553L297.583 122.035ZM306.152 122.035L307.729 122.591L307.692 120.912H308.247L308.209 122.591L309.787 122.035L309.964 122.553L308.348 123.032L309.371 124.37L308.929 124.686L307.969 123.297L307.01 124.686L306.568 124.37L307.591 123.032L305.975 122.553L306.152 122.035ZM314.72 122.035L316.298 122.591L316.26 120.912H316.816L316.778 122.591L318.356 122.035L318.532 122.553L316.917 123.032L317.939 124.37L317.497 124.686L316.538 123.297L315.578 124.686L315.137 124.37L316.159 123.032L314.543 122.553L314.72 122.035ZM323.289 122.035L324.867 122.591L324.829 120.912H325.384L325.346 122.591L326.924 122.035L327.101 122.553L325.485 123.032L326.508 124.37L326.066 124.686L325.106 123.297L324.147 124.686L323.705 124.37L324.728 123.032L323.112 122.553L323.289 122.035ZM331.857 122.035L333.435 122.591L333.397 120.912H333.953L333.915 122.591L335.493 122.035L335.67 122.553L334.054 123.032L335.076 124.37L334.634 124.686L333.675 123.297L332.716 124.686L332.274 124.37L333.296 123.032L331.68 122.553L331.857 122.035Z" fill="#CFF64A"/><path opacity="0.502325" fill-rule="evenodd" clip-rule="evenodd" d="M280.446 158.934L282.024 159.489L281.986 157.81H282.541L282.503 159.489L284.081 158.934L284.258 159.451L282.642 159.931L283.665 161.269L283.223 161.585L282.264 160.196L281.304 161.585L280.862 161.269L281.885 159.931L280.269 159.451L280.446 158.934ZM289.014 158.934L290.592 159.489L290.554 157.81H291.11L291.072 159.489L292.65 158.934L292.827 159.451L291.211 159.931L292.233 161.269L291.792 161.585L290.832 160.196L289.873 161.585L289.431 161.269L290.453 159.931L288.838 159.451L289.014 158.934ZM297.583 158.934L299.161 159.489L299.123 157.81H299.678L299.641 159.489L301.219 158.934L301.395 159.451L299.779 159.931L300.802 161.269L300.36 161.585L299.401 160.196L298.441 161.585L297.999 161.269L299.022 159.931L297.406 159.451L297.583 158.934ZM306.152 158.934L307.729 159.489L307.692 157.81H308.247L308.209 159.489L309.787 158.934L309.964 159.451L308.348 159.931L309.371 161.269L308.929 161.585L307.969 160.196L307.01 161.585L306.568 161.269L307.591 159.931L305.975 159.451L306.152 158.934ZM314.72 158.934L316.298 159.489L316.26 157.81H316.816L316.778 159.489L318.356 158.934L318.532 159.451L316.917 159.931L317.939 161.269L317.497 161.585L316.538 160.196L315.578 161.585L315.137 161.269L316.159 159.931L314.543 159.451L314.72 158.934ZM323.289 158.934L324.867 159.489L324.829 157.81H325.384L325.346 159.489L326.924 158.934L327.101 159.451L325.485 159.931L326.508 161.269L326.066 161.585L325.106 160.196L324.147 161.585L323.705 161.269L324.728 159.931L323.112 159.451L323.289 158.934ZM331.857 158.934L333.435 159.489L333.397 157.81H333.953L333.915 159.489L335.493 158.934L335.67 159.451L334.054 159.931L335.076 161.269L334.634 161.585L333.675 160.196L332.716 161.585L332.274 161.269L333.296 159.931L331.68 159.451L331.857 158.934Z" fill="#CFF64A"/><g opacity="0.500046"><path opacity="0.500326" d="M313.165 135.29H335.499" stroke="#CFF64A" stroke-linecap="round"/><path opacity="0.500326" d="M313.165 146.942H335.499" stroke="#CFF64A" stroke-linecap="round"/><path opacity="0.983654" fill-rule="evenodd" clip-rule="evenodd" d="M285.093 132.009V132.942C284.518 132.421 283.982 132.367 283.687 132.367C282.561 132.367 281.799 133.198 281.799 134.34C281.799 135.435 282.592 136.282 283.695 136.282C284.316 136.282 284.798 135.963 285.093 135.684V136.624C284.573 136.934 284.029 137.012 283.672 137.012C282.732 137.012 282.141 136.585 281.838 136.297C281.232 135.73 281.007 135.07 281.007 134.34C281.007 133.384 281.403 132.724 281.838 132.312C282.374 131.807 282.996 131.637 283.71 131.637C284.184 131.637 284.643 131.722 285.093 132.009ZM286.707 138.69L287.911 136.398L286.513 133.641H287.43L288.362 135.552L289.31 133.641H290.164L287.562 138.69H286.707ZM291.336 136.911L292.129 133.346L293.48 135.839L294.832 133.346L295.624 136.911H294.847L294.521 135.272L293.48 137.16L292.439 135.272L292.113 136.911H291.336ZM296.858 136.911L297.65 133.346L299.002 135.839L300.353 133.346L301.146 136.911H300.369L300.043 135.272L299.002 137.16L297.961 135.272L297.634 136.911H296.858ZM305.145 134.021V133.641H305.906V136.911H305.145V136.569C304.81 136.958 304.399 137.012 304.166 137.012C303.156 137.012 302.581 136.173 302.581 135.272C302.581 134.208 303.311 133.555 304.173 133.555C304.414 133.555 304.834 133.617 305.145 134.021ZM304.267 134.239C303.715 134.239 303.358 134.705 303.358 135.288C303.358 135.855 303.715 136.328 304.267 136.328C304.748 136.328 305.191 135.979 305.191 135.295C305.191 134.581 304.748 134.239 304.267 134.239ZM307.916 134.021C307.916 133.765 308.126 133.555 308.382 133.555C308.638 133.555 308.848 133.765 308.848 134.021C308.848 134.278 308.638 134.487 308.382 134.487C308.126 134.487 307.916 134.278 307.916 134.021ZM307.916 136.546C307.916 136.29 308.126 136.08 308.382 136.08C308.638 136.08 308.848 136.29 308.848 136.546C308.848 136.802 308.638 137.012 308.382 137.012C308.126 137.012 307.916 136.802 307.916 136.546Z" fill="#CFF64A"/><path opacity="0.983654" fill-rule="evenodd" clip-rule="evenodd" d="M283.881 145.099H282.693V149.534H281.9V145.099H280.712V144.353H283.881V145.099ZM286.723 146.178C287.709 146.178 288.471 146.893 288.471 147.903C288.471 148.905 287.709 149.635 286.723 149.635C285.736 149.635 284.975 148.905 284.975 147.903C284.975 146.893 285.736 146.178 286.723 146.178ZM286.723 148.952C287.321 148.952 287.694 148.54 287.694 147.911C287.694 147.165 287.204 146.862 286.723 146.862C286.241 146.862 285.752 147.165 285.752 147.911C285.752 148.54 286.125 148.952 286.723 148.952ZM290.279 146.264H291.561C291.755 146.264 292.058 146.272 292.306 146.458C292.423 146.551 292.609 146.746 292.609 147.087C292.609 147.351 292.485 147.592 292.221 147.724C292.376 147.755 292.539 147.833 292.664 147.942C292.811 148.074 292.92 148.276 292.92 148.571C292.92 148.967 292.726 149.192 292.563 149.317C292.291 149.519 291.957 149.534 291.809 149.534H290.279V146.264ZM291.04 147.538H291.428C291.607 147.538 291.708 147.483 291.731 147.468C291.856 147.39 291.879 147.282 291.879 147.204C291.879 147.087 291.825 147.002 291.747 146.947C291.646 146.878 291.529 146.885 291.413 146.885H291.04V147.538ZM291.04 148.913H291.607C291.731 148.913 291.887 148.897 292.003 148.82C292.073 148.773 292.159 148.68 292.159 148.532C292.159 148.385 292.089 148.291 292.011 148.245C291.895 148.167 291.739 148.159 291.63 148.159H291.04V148.913ZM297.122 146.645V146.264H297.883V149.534H297.122V149.192C296.788 149.581 296.376 149.635 296.143 149.635C295.133 149.635 294.558 148.796 294.558 147.895C294.558 146.831 295.288 146.178 296.151 146.178C296.392 146.178 296.811 146.241 297.122 146.645ZM296.244 146.862C295.692 146.862 295.335 147.328 295.335 147.911C295.335 148.478 295.692 148.952 296.244 148.952C296.726 148.952 297.168 148.602 297.168 147.919C297.168 147.204 296.726 146.862 296.244 146.862ZM300.623 149.154V151.313H299.862V146.264H300.623V146.621C300.903 146.287 301.268 146.178 301.594 146.178C302.457 146.178 303.187 146.839 303.187 147.88C303.187 148.983 302.379 149.635 301.602 149.635C301.423 149.635 300.965 149.573 300.623 149.154ZM301.501 146.862C301.02 146.862 300.577 147.204 300.577 147.919C300.577 148.602 301.02 148.952 301.501 148.952C302.053 148.952 302.41 148.478 302.41 147.911C302.41 147.328 302.053 146.862 301.501 146.862ZM305.026 146.645C305.026 146.388 305.236 146.178 305.492 146.178C305.749 146.178 305.958 146.388 305.958 146.645C305.958 146.901 305.749 147.111 305.492 147.111C305.236 147.111 305.026 146.901 305.026 146.645ZM305.026 149.169C305.026 148.913 305.236 148.703 305.492 148.703C305.749 148.703 305.958 148.913 305.958 149.169C305.958 149.426 305.749 149.635 305.492 149.635C305.236 149.635 305.026 149.426 305.026 149.169Z" fill="#CFF64A"/></g><path fill-rule="evenodd" clip-rule="evenodd" d="M275.887 48.87H282.072V57.2897H280.785V50.0818H277.174V57.2897H275.887V48.87ZM288.321 48.7185C290.846 48.7185 292.701 50.612 292.701 53.0861C292.701 55.5603 290.846 57.4538 288.321 57.4538C285.796 57.4538 283.941 55.5603 283.941 53.0861C283.941 50.612 285.796 48.7185 288.321 48.7185ZM288.321 56.2672C290.126 56.2672 291.414 54.9544 291.414 53.0861C291.414 51.2179 290.126 49.9051 288.321 49.9051C286.516 49.9051 285.228 51.2179 285.228 53.0861C285.228 54.9544 286.516 56.2672 288.321 56.2672ZM295.378 48.87H300.755V57.2897H299.468V50.0818H296.665V54.2727C296.665 55.2321 296.627 56.2041 295.832 56.8605C295.403 57.2139 294.835 57.3654 294.305 57.3654C294.077 57.3654 293.888 57.3275 293.737 57.2897V56.1031C293.863 56.1409 294.027 56.1788 294.204 56.1788C294.532 56.1788 294.797 56.0526 294.961 55.8885C295.39 55.4719 295.378 54.6262 295.378 53.894V48.87ZM302.093 48.87H303.659L305.83 53.3638L307.799 48.87H309.138L305.338 57.2897H304L305.085 54.9039L302.093 48.87ZM314.818 57.2897V53.8309C314.326 53.8688 313.493 53.9193 313.101 53.9193C312.533 53.9193 311.637 53.8688 311.044 53.4017C310.261 52.7832 310.223 51.7607 310.223 51.3568V48.87H311.511V51.1674C311.511 51.5209 311.511 52.1141 311.965 52.4676C312.256 52.6948 312.723 52.7327 313.303 52.7327C313.859 52.7327 314.364 52.6948 314.818 52.6443V48.87H316.106V57.2897H314.818ZM324.059 57.2897V51.6218L318.378 57.6684V48.87H319.666V54.563L325.346 48.5165V57.2897H324.059ZM331.885 50.0818H329.954V57.2897H328.666V50.0818H326.735V48.87H331.885V50.0818ZM337.92 48.87V50.0818H334.562V52.2151H337.819V53.427H334.562V56.0778H337.92V57.2897H333.274V48.87H337.92ZM301.147 73.7969V70.3381C300.654 70.376 299.821 70.4265 299.43 70.4265C298.862 70.4265 297.966 70.376 297.372 69.909C296.59 69.2904 296.552 68.2679 296.552 67.864V65.3772H297.839V67.6747C297.839 68.0281 297.839 68.6214 298.294 68.9748C298.584 69.2021 299.051 69.2399 299.632 69.2399C300.187 69.2399 300.692 69.2021 301.147 69.1516V65.3772H302.434V73.7969H301.147ZM309.352 65.3772V66.5891H305.994V68.7224H309.251V69.9342H305.994V72.5851H309.352V73.7969H304.707V65.3772H309.352ZM312.559 65.3772V68.735L315.815 65.3772H317.507L313.707 69.1894L317.532 73.7969H315.815L312.811 70.0604L312.559 70.3129V73.7969H311.271V65.3772H312.559Z" fill="#CFF64A"/><g opacity="0.250302"><path d="M119.439 121.377L129.15 132.058" stroke="#CFF64A" stroke-linecap="round"/><path d="M119.439 142.739L129.15 132.058" stroke="#CFF64A" stroke-linecap="round"/></g><g opacity="0.250302"><path d="M241.792 121.377L251.503 132.058" stroke="#CFF64A" stroke-linecap="round"/><path d="M241.792 142.739L251.503 132.058" stroke="#CFF64A" stroke-linecap="round"/></g><path fill-rule="evenodd" clip-rule="evenodd" d="M30.6407 51.2767L29.86 50.5193C30.2445 50.0066 30.6873 49.7619 30.8621 49.6803C31.3282 49.4473 31.7943 49.389 32.2721 49.389C32.8314 49.389 33.5189 49.4706 34.0783 50.0066C34.4511 50.3678 34.6376 50.8106 34.6376 51.3699C34.6376 51.7194 34.5793 52.0224 34.3812 52.337C34.1831 52.6749 33.9268 52.873 33.6821 53.0128C34.1715 53.141 34.5094 53.4207 34.7308 53.7003C35.0338 54.0848 35.127 54.516 35.127 55.017C35.127 55.6695 34.9056 56.2638 34.3463 56.7532C33.6937 57.3125 32.878 57.429 32.2488 57.429C31.5613 57.429 30.9554 57.2892 30.3378 56.8231C29.9649 56.5318 29.6036 56.1123 29.3473 55.5647L30.396 55.0287C30.5825 55.518 30.8854 55.8094 31.1185 55.9725C31.5147 56.2521 31.9342 56.3337 32.4003 56.3337C32.6916 56.3337 33.216 56.2871 33.5888 55.9142C33.7986 55.7045 33.9617 55.3666 33.9617 54.9587C33.9617 54.5742 33.8336 54.2713 33.5073 54.0499C33.0761 53.7469 32.4935 53.7469 32.0973 53.7469H31.3982V52.6283H32.0274C32.3653 52.6283 32.8664 52.5467 33.146 52.3137C33.3441 52.1506 33.4956 51.8593 33.4956 51.5214C33.4956 51.1368 33.3208 50.8688 33.1227 50.7174C32.8547 50.5076 32.5052 50.4843 32.2255 50.4843C31.8643 50.4843 31.5846 50.5309 31.2816 50.7057C30.932 50.9038 30.7106 51.1834 30.6407 51.2767ZM41.9904 57.2892L41.1747 55.4132H37.8537L37.0031 57.2892H35.7213L39.59 49.0627L43.2722 57.2892H41.9904ZM38.3431 54.2946H40.697L39.5433 51.6612L38.3431 54.2946ZM44.4841 49.5172H50.1938V57.2892H49.0053V50.6358H45.6726V57.2892H44.4841V49.5172ZM55.9619 49.3774C58.2924 49.3774 60.0054 51.1252 60.0054 53.409C60.0054 55.6928 58.2924 57.4407 55.9619 57.4407C53.6314 57.4407 51.9184 55.6928 51.9184 53.409C51.9184 51.1252 53.6314 49.3774 55.9619 49.3774ZM55.9619 56.3454C57.6282 56.3454 58.8168 55.1335 58.8168 53.409C58.8168 51.6845 57.6282 50.4727 55.9619 50.4727C54.2956 50.4727 53.107 51.6845 53.107 53.409C53.107 55.1335 54.2956 56.3454 55.9619 56.3454ZM62.4757 49.5172H67.4397V57.2892H66.2512V50.6358H63.6643V54.5043C63.6643 55.3899 63.6293 56.2871 62.8952 56.893C62.499 57.2193 61.9747 57.3591 61.4852 57.3591C61.2755 57.3591 61.1007 57.3241 60.9609 57.2892V56.1939C61.0774 56.2288 61.2289 56.2638 61.392 56.2638C61.695 56.2638 61.9397 56.1473 62.0912 55.9958C62.4874 55.6113 62.4757 54.8306 62.4757 54.1547V49.5172ZM70.7258 49.5172V52.5934H74.0584V49.5172H75.247V57.2892H74.0584V53.712H70.7258V57.2892H69.5372V49.5172H70.7258ZM82.5882 57.2892V52.0574L77.3445 57.6387V49.5172H78.5331V54.7723L83.7767 49.1909V57.2892H82.5882ZM89.8128 50.6358H88.0299V57.2892H86.8414V50.6358H85.0585V49.5172H89.8128V50.6358ZM95.3828 49.5172V50.6358H92.2832V52.605H95.2895V53.7236H92.2832V56.1706H95.3828V57.2892H91.0946V49.5172H95.3828ZM46.0164 73.7964V72.7011H45.8066C43.3829 72.7011 42.3575 71.3378 42.3575 69.6716C42.3575 68.0053 43.3829 66.642 45.8066 66.642H46.0164V65.7098H47.205V66.642H47.4147C49.8384 66.642 50.8639 68.0053 50.8639 69.6716C50.8639 71.3378 49.8384 72.7011 47.4147 72.7011H47.205V73.7964H46.0164ZM46.0164 71.6058V67.7373H45.7833C44.2335 67.7373 43.546 68.5762 43.546 69.6716C43.546 70.7669 44.2335 71.6058 45.7833 71.6058H46.0164ZM47.205 67.7373V71.6058H47.438C48.9878 71.6058 49.6753 70.7669 49.6753 69.6716C49.6753 68.5762 48.9878 67.7373 47.438 67.7373H47.205ZM56.259 65.8846C58.5896 65.8846 60.3025 67.6324 60.3025 69.9163C60.3025 72.2001 58.5896 73.9479 56.259 73.9479C53.9285 73.9479 52.2156 72.2001 52.2156 69.9163C52.2156 67.6324 53.9285 65.8846 56.259 65.8846ZM56.259 72.8526C57.9254 72.8526 59.1139 71.6408 59.1139 69.9163C59.1139 68.1917 57.9254 66.9799 56.259 66.9799C54.5927 66.9799 53.4041 68.1917 53.4041 69.9163C53.4041 71.6408 54.5927 72.8526 56.259 72.8526ZM62.0271 66.0244H63.74C64.2178 66.0244 64.882 66.071 65.4413 66.4439C66.0939 66.875 66.4085 67.6208 66.4085 68.3316C66.4085 68.786 66.292 69.4851 65.6511 70.0328C65.0335 70.5571 64.3227 70.6387 63.7517 70.6387H63.2157V73.7964H62.0271V66.0244ZM63.2157 67.1197V69.5434H63.7517C64.7771 69.5434 65.2665 69.0423 65.2665 68.3199C65.2665 67.8888 65.0917 67.1197 63.74 67.1197H63.2157ZM68.5875 73.7964H67.3757L69.007 65.4418L71.7104 71.4776L74.4371 65.4418L75.9054 73.7964H74.6935L73.9011 69.1123L71.6405 74.1576L69.4032 69.1006L68.5875 73.7964ZM76.6628 66.0244H78.1077L80.112 70.1726L81.9298 66.0244H83.165L79.6575 73.7964H78.4224L79.4245 71.5942L76.6628 66.0244Z" fill="#CFF64A"/><path opacity="0.246512" d="M107.301 84.9638H17.9644C16.3555 84.9638 15.0513 86.2679 15.0513 87.8768V182.065C15.0513 183.674 16.3555 184.978 17.9644 184.978H107.301C108.91 184.978 110.214 183.674 110.214 182.065V87.8768C110.214 86.2679 108.91 84.9638 107.301 84.9638Z" stroke="#CFF64A"/><path opacity="0.497535" d="M28.1605 159.246H97.1052C98.1782 159.246 99.0473 160.115 99.0473 161.188V173.812C99.0473 174.885 98.1782 175.754 97.1052 175.754H28.1605C27.0879 175.754 26.2184 174.885 26.2184 173.812V161.188C26.2184 160.115 27.0879 159.246 28.1605 159.246Z" fill="#CFF64A"/><path fill-rule="evenodd" clip-rule="evenodd" d="M40.7913 166.16L40.3359 165.297C40.5466 165.154 40.7505 165.059 40.9612 164.977C41.2943 164.855 41.5866 164.807 41.9197 164.807C42.5722 164.807 42.9325 165.018 43.1364 165.215C43.3879 165.453 43.4763 165.739 43.4763 166.072C43.4763 166.316 43.4219 166.52 43.2791 166.724C43.1568 166.901 43.014 167.01 42.8577 167.084V167.105C43.0344 167.159 43.2248 167.261 43.3607 167.39C43.5035 167.526 43.687 167.771 43.687 168.152C43.687 168.6 43.4695 168.994 43.1228 169.232C42.7218 169.511 42.1916 169.545 41.8449 169.545C41.4642 169.545 41.1108 169.497 40.7505 169.348C40.4718 169.232 40.2067 169.056 40.0028 168.872L40.601 168.016C40.7437 168.179 40.9137 168.308 41.0768 168.396C41.2875 168.505 41.4778 168.546 41.6886 168.546C41.8517 168.546 42.0556 168.512 42.1848 168.43C42.3207 168.349 42.3955 168.206 42.3955 168.056C42.3955 167.92 42.3207 167.798 42.1916 167.717C42.11 167.662 41.9537 167.608 41.6342 167.608H41.1923V166.697H41.4846C41.7089 166.697 42.0352 166.663 42.1916 166.507C42.2731 166.425 42.3071 166.316 42.3071 166.221C42.3071 166.092 42.2323 165.976 42.1304 165.902C42.0148 165.82 41.8517 165.786 41.6954 165.786C41.607 165.786 41.3963 165.793 41.1652 165.908C41.036 165.97 40.8865 166.078 40.7913 166.16ZM47.7868 169.443L47.5081 168.682H45.8631L45.5572 169.443H44.3133L46.0534 164.909H47.3381L49.0443 169.443H47.7868ZM46.1894 167.784H47.1954L46.6856 166.316L46.1894 167.784ZM53.9394 169.443H52.7566V165.915H51.132V169.443H49.9561V164.909H53.9394V169.443ZM55.2794 164.909H56.4622V167.764L58.1615 164.909H59.3646V169.443H58.1819V166.588L56.4825 169.443H55.2794V164.909ZM63.9606 167.927V169.321C63.4916 169.491 63.2333 169.545 62.941 169.545C62.1525 169.545 61.5611 169.232 61.1873 168.865C60.7455 168.423 60.5008 167.805 60.5008 167.214C60.5008 166.568 60.7794 165.956 61.1873 165.541C61.5883 165.134 62.1933 164.835 62.9002 164.835C63.1177 164.835 63.478 164.869 63.9606 165.066V166.473C63.58 166.004 63.1313 165.976 62.9342 165.976C62.5943 165.976 62.336 166.078 62.1185 166.276C61.8398 166.534 61.7243 166.887 61.7243 167.207C61.7243 167.519 61.8534 167.866 62.0913 168.09C62.2885 168.274 62.6011 168.403 62.9342 168.403C63.1109 168.403 63.546 168.383 63.9606 167.927ZM68.142 169.443L67.8633 168.682H66.2183L65.9124 169.443H64.6685L66.4086 164.909H67.6933L69.3995 169.443H68.142ZM66.5446 167.784H67.5506L67.0408 166.316L66.5446 167.784ZM72.7855 165.908H71.8203V169.443H70.6444V165.908H69.6791V164.909H72.7855V165.908ZM73.6974 169.443V164.909H74.8801V166.677H75.4511C75.7774 166.677 76.4027 166.704 76.8038 167.098C77.1096 167.404 77.164 167.798 77.164 168.056C77.164 168.498 77.0213 168.804 76.8174 169.008C76.4231 169.402 75.8045 169.443 75.3831 169.443H73.6974ZM74.8801 168.532H75.3355C75.4647 168.532 75.7094 168.532 75.8453 168.396C75.9201 168.321 75.9677 168.199 75.9677 168.056C75.9677 167.886 75.9065 167.784 75.8385 167.723C75.7094 167.601 75.5055 167.587 75.3355 167.587H74.8801V168.532ZM81.4745 167.927V169.321C81.0055 169.491 80.7472 169.545 80.4549 169.545C79.6664 169.545 79.0751 169.232 78.7012 168.865C78.2594 168.423 78.0147 167.805 78.0147 167.214C78.0147 166.568 78.2934 165.956 78.7012 165.541C79.1022 165.134 79.7072 164.835 80.4141 164.835C80.6316 164.835 80.9919 164.869 81.4745 165.066V166.473C81.0939 166.004 80.6452 165.976 80.4481 165.976C80.1082 165.976 79.85 166.078 79.6324 166.276C79.3537 166.534 79.2382 166.887 79.2382 167.207C79.2382 167.519 79.3673 167.866 79.6052 168.09C79.8024 168.274 80.115 168.403 80.4481 168.403C80.6248 168.403 81.0599 168.383 81.4745 167.927ZM82.23 169.443L83.4943 167.737C83.3312 167.71 83.0661 167.635 82.8214 167.383C82.5835 167.139 82.4679 166.84 82.4679 166.432C82.4679 165.983 82.6175 165.603 82.8418 165.365C83.2292 164.95 83.807 164.909 84.1129 164.909H85.8598V169.443H84.6771V167.9H84.5615L83.5895 169.443H82.23ZM84.6771 166.989V165.902H84.344C84.2216 165.902 83.9973 165.908 83.8342 166.058C83.7594 166.126 83.6778 166.248 83.6778 166.445C83.6778 166.615 83.739 166.751 83.8206 166.833C83.9429 166.948 84.1672 166.989 84.344 166.989H84.6771Z" fill="#1B1B1B"/><g opacity="0.501279"><path opacity="0.499605" d="M92.7355 109.725H33.5013C33.2332 109.725 33.0157 109.942 33.0157 110.21C33.0157 110.478 33.2332 110.696 33.5013 110.696H92.7355C93.0036 110.696 93.221 110.478 93.221 110.21C93.221 109.942 93.0036 109.725 92.7355 109.725Z" fill="#CFF64A"/><path opacity="0.495977" d="M76.7131 96.1304H48.5526C47.48 96.1304 46.6105 96.9999 46.6105 98.0725C46.6105 99.1454 47.48 100.014 48.5526 100.014H76.7131C77.7857 100.014 78.6552 99.1454 78.6552 98.0725C78.6552 96.9999 77.7857 96.1304 76.7131 96.1304Z" fill="#CFF64A"/><path opacity="0.499605" d="M92.7355 119.435H33.5013C33.2332 119.435 33.0157 119.652 33.0157 119.92C33.0157 120.188 33.2332 120.406 33.5013 120.406H92.7355C93.0036 120.406 93.221 120.188 93.221 119.92C93.221 119.652 93.0036 119.435 92.7355 119.435Z" fill="#CFF64A"/><path opacity="0.499605" d="M92.7355 129.145H33.5013C33.2332 129.145 33.0157 129.362 33.0157 129.63C33.0157 129.898 33.2332 130.116 33.5013 130.116H92.7355C93.0036 130.116 93.221 129.898 93.221 129.63C93.221 129.362 93.0036 129.145 92.7355 129.145Z" fill="#CFF64A"/><path opacity="0.499605" d="M92.7355 138.855H33.5013C33.2332 138.855 33.0157 139.073 33.0157 139.341C33.0157 139.609 33.2332 139.826 33.5013 139.826H92.7355C93.0036 139.826 93.221 139.609 93.221 139.341C93.221 139.073 93.0036 138.855 92.7355 138.855Z" fill="#CFF64A"/></g></g></svg>