<svg width="48" height="48" viewBox="0 0 48 48" fill="none" xmlns="http://www.w3.org/2000/svg"><g clip-path="url(#clip0_3_1823)"><path d="M8.5 0H39.5C44.2 0 48 3.89744 48 8.71795V39.2821C48 44.1026 44.2 48 39.5 48H8.5C3.8 48 0 44.1026 0 39.2821V8.71795C0 3.89744 3.8 0 8.5 0Z" fill="white"/><path d="M10.8 33.6615V12.5538C10.8 12.4102 10.86 12.3282 11 12.3282C11.34 12.3282 11.66 12.3282 12.12 12.3076C12.6 12.2871 13.1 12.2871 13.64 12.2666C14.18 12.2461 14.76 12.2461 15.38 12.2256C16 12.2051 16.6 12.2051 17.2 12.2051C18.84 12.2051 20.2 12.4102 21.32 12.841C22.32 13.1897 23.24 13.7641 24 14.523C24.64 15.1794 25.14 15.9794 25.46 16.8615C25.76 17.723 25.9201 18.6051 25.9201 19.5282C25.9201 21.2923 25.52 22.7487 24.72 23.8974C23.92 25.0461 22.8 25.9076 21.5 26.3999C20.14 26.9128 18.64 27.0974 17 27.0974C16.52 27.0974 16.2 27.0974 16 27.0769C15.8 27.0564 15.52 27.0564 15.14 27.0564V33.641C15.16 33.7846 15.06 33.9076 14.92 33.9282C14.9 33.9282 14.88 33.9282 14.84 33.9282H11.04C10.88 33.9282 10.8 33.8461 10.8 33.6615ZM15.16 16.2871V23.1794C15.44 23.2 15.7 23.2205 15.94 23.2205H17C17.78 23.2205 18.56 23.0974 19.3 22.8512C19.94 22.6666 20.5 22.2769 20.94 21.7641C21.36 21.2512 21.5601 20.5538 21.5601 19.6512C21.58 19.0153 21.42 18.3794 21.1 17.8256C20.76 17.2923 20.28 16.882 19.7 16.6564C18.96 16.3487 18.16 16.2256 17.34 16.2461C16.82 16.2461 16.36 16.2461 15.98 16.2666C15.58 16.2461 15.3 16.2666 15.16 16.2871Z" fill="#1B1B1B"/><path d="M38.4 21.9284C37.8 21.6002 37.16 21.3745 36.48 21.2309C35.74 21.0668 35 20.9643 34.24 20.9643C33.84 20.9438 33.42 21.0053 33.04 21.1079C32.78 21.1694 32.56 21.313 32.42 21.5181C32.32 21.6822 32.26 21.8874 32.26 22.072C32.26 22.2566 32.34 22.4412 32.46 22.6053C32.64 22.8309 32.88 23.0156 33.14 23.1591C33.6 23.4053 34.08 23.6309 34.56 23.8361C35.64 24.2053 36.68 24.7181 37.64 25.3335C38.3 25.7643 38.84 26.3386 39.22 27.0361C39.54 27.6925 39.7 28.4104 39.68 29.1489C39.7 30.113 39.42 31.0771 38.9 31.8771C38.34 32.6976 37.56 33.3335 36.66 33.7027C35.68 34.1335 34.48 34.3591 33.04 34.3591C32.12 34.3591 31.22 34.2771 30.32 34.0925C29.62 33.9694 28.92 33.7438 28.28 33.4361C28.14 33.354 28.04 33.2104 28.06 33.0463V29.4771C28.06 29.4156 28.08 29.3335 28.14 29.2925C28.2 29.2515 28.26 29.272 28.32 29.313C29.1 29.7848 29.92 30.113 30.8 30.3181C31.56 30.5232 32.36 30.6258 33.16 30.6258C33.92 30.6258 34.46 30.5232 34.82 30.3386C35.14 30.195 35.36 29.8463 35.36 29.4771C35.36 29.1899 35.2 28.9232 34.88 28.6566C34.56 28.3899 33.9 28.0822 32.92 27.6925C31.9 27.3232 30.96 26.8309 30.08 26.2156C29.46 25.7643 28.94 25.1694 28.56 24.472C28.24 23.8156 28.08 23.0976 28.1 22.3797C28.1 21.4976 28.34 20.6566 28.78 19.8976C29.28 19.0771 30.02 18.4207 30.88 18.0104C31.82 17.5181 33 17.2925 34.42 17.2925C35.24 17.2925 36.08 17.354 36.9 17.4771C37.5 17.5591 38.08 17.7232 38.62 17.9489C38.7 17.9694 38.78 18.0515 38.82 18.1335C38.84 18.2156 38.86 18.2976 38.86 18.3797V21.7232C38.86 21.8053 38.82 21.8874 38.76 21.9284C38.58 21.9694 38.48 21.9694 38.4 21.9284Z" fill="#1B1B1B"/></g><defs><clipPath id="clip0_3_1823"><rect width="48" height="48" fill="white"/></clipPath></defs></svg>