<svg width="80" height="80" viewBox="0 0 80 80" fill="none" xmlns="http://www.w3.org/2000/svg"><g clip-path="url(#clip0_2424_4697)"><rect width="80" height="80" rx="40" fill="white"/><path d="M40 20C41.9271 20 43.6719 20.4688 45.2344 21.4062C46.7969 22.2917 48.0469 23.4896 48.9844 25C52.1094 25.1562 54.7135 26.276 56.7969 28.3594C58.8802 30.4948 59.9479 33.125 60 36.25C59.8958 39.4271 58.8021 42.0833 56.7188 44.2188C54.5833 46.3021 51.9271 47.3958 48.75 47.5C48.0208 47.5 47.2917 47.4219 46.5625 47.2656C44.8438 49.0365 42.6562 49.9479 40 50C37.3438 49.9479 35.1562 49.0365 33.4375 47.2656C32.7083 47.4219 31.9792 47.5 31.25 47.5C28.0729 47.3958 25.4167 46.3021 23.2812 44.2188C21.1979 42.0833 20.1042 39.4271 20 36.25C20.0521 33.125 21.1198 30.4948 23.2031 28.3594C25.2865 26.276 27.8906 25.1562 31.0156 25C31.9531 23.4896 33.2031 22.2917 34.7656 21.4062C36.3281 20.4688 38.0729 20 40 20ZM33.75 27.7344C33.3854 28.4635 32.7865 28.8021 31.9531 28.75C31.6927 28.75 31.4583 28.75 31.25 28.75C29.1146 28.8021 27.3438 29.5312 25.9375 30.9375C24.5312 32.3438 23.8021 34.1146 23.75 36.25C23.8021 38.3854 24.5312 40.1562 25.9375 41.5625C27.3438 42.9688 29.1146 43.6979 31.25 43.75C32.0312 43.75 32.7865 43.6458 33.5156 43.4375C34.2969 43.2292 34.974 43.4375 35.5469 44.0625C36.6406 45.4688 38.125 46.1979 40 46.25C41.875 46.1979 43.3594 45.4688 44.4531 44.0625C45.026 43.4375 45.7031 43.2292 46.4844 43.4375C47.2135 43.6458 47.9688 43.75 48.75 43.75C50.8854 43.6979 52.6562 42.9688 54.0625 41.5625C55.4688 40.1562 56.1979 38.3854 56.25 36.25C56.1979 34.1146 55.4688 32.3438 54.0625 30.9375C52.6562 29.5312 50.8854 28.8021 48.75 28.75C48.5417 28.75 48.3333 28.75 48.125 28.75C47.2396 28.8021 46.6146 28.4635 46.25 27.7344C45.6771 26.5365 44.8438 25.5729 43.75 24.8438C42.6562 24.1146 41.4062 23.75 40 23.75C38.5938 23.75 37.3438 24.1146 36.25 24.8438C35.1562 25.5729 34.3229 26.5365 33.75 27.7344ZM35 53.75C34.9479 55.1562 34.3229 56.25 33.125 57.0312C31.875 57.6562 30.625 57.6562 29.375 57.0312C28.1771 56.25 27.5521 55.1562 27.5 53.75C27.5521 52.3438 28.1771 51.25 29.375 50.4688C30.625 49.8438 31.875 49.8438 33.125 50.4688C34.3229 51.25 34.9479 52.3438 35 53.75ZM25 57.5C25 58.2292 24.7656 58.8281 24.2969 59.2969C23.8281 59.7656 23.2292 60 22.5 60C21.7708 60 21.1719 59.7656 20.7031 59.2969C20.2344 58.8281 20 58.2292 20 57.5C20 56.7708 20.2344 56.1719 20.7031 55.7031C21.1719 55.2344 21.7708 55 22.5 55C23.2292 55 23.8281 55.2344 24.2969 55.7031C24.7656 56.1719 25 56.7708 25 57.5Z" fill="#EB1C4E"/></g><defs><clipPath id="clip0_2424_4697"><rect width="80" height="80" fill="white"/></clipPath></defs></svg>