<svg width="730" height="1164" viewBox="0 0 730 1164" fill="none" xmlns="http://www.w3.org/2000/svg"><g filter="url(#filter0_f_5070_1543)"><path d="M86.2984 537.818L41.3902 481.168C23.3556 458.418 21.2954 426.952 36.2874 403.229C58.0483 368.795 42.8301 321.487 4.10443 306.672C-24.8478 295.595 -55.7267 284.64 -79.9811 277.983C-141.64 261.057 -143.557 377.631 -135.286 448.949C-127.016 520.267 -204.783 520.063 -232.702 552.616C-260.62 585.168 -249.768 663.109 -224.843 733.233C-199.918 803.356 -78.8405 782.921 2.07844 795.523C82.9974 808.124 132.822 814.113 209.169 819.841C285.516 825.57 363.447 806.45 383.105 783.162C393.457 770.898 379.823 728.413 363.085 688.869C348.142 653.568 316.681 628.608 280.456 618.664L156.67 584.685C129.122 577.123 104.41 560.665 86.2984 537.818Z" fill="#5D3EFE"/></g><g filter="url(#filter1_f_5070_1543)"><path d="M39.7908 200.831L58.9888 131.136C66.6984 103.147 90.8759 82.9027 118.874 80.9926C159.513 78.22 188.705 38.0019 177.792 -1.99933C169.634 -31.9052 160.24 -63.2941 151.29 -86.7995C128.538 -146.554 33.3287 -79.261 -19.3423 -30.4715C-72.0133 18.3181 -117.772 -44.562 -160.529 -47.8696C-203.286 -51.1771 -259.778 3.60673 -301.65 65.1317C-343.521 126.657 -255.531 212.3 -217.916 285.045C-180.301 357.79 -155.711 401.536 -115.249 466.532C-74.7869 531.528 -13.3363 583.129 17.0655 585.241C33.0758 586.353 59.3117 550.262 81.3399 513.402C101.005 480.497 102.569 440.367 89.202 405.262L43.5248 285.298C33.3596 258.6 32.0484 228.939 39.7908 200.831Z" fill="#5D3EFE"/></g><defs><filter id="filter0_f_5070_1543" x="-592.195" y="-66.6755" width="1321.9" height="1230.54" filterUnits="userSpaceOnUse" color-interpolation-filters="sRGB"><feFlood flood-opacity="0" result="BackgroundImageFix"/><feBlend mode="normal" in="SourceGraphic" in2="BackgroundImageFix" result="shape"/><feGaussianBlur stdDeviation="171.5" result="effect1_foregroundBlur_5070_1543"/></filter><filter id="filter1_f_5070_1543" x="-655.695" y="-453.307" width="1178.79" height="1381.57" filterUnits="userSpaceOnUse" color-interpolation-filters="sRGB"><feFlood flood-opacity="0" result="BackgroundImageFix"/><feBlend mode="normal" in="SourceGraphic" in2="BackgroundImageFix" result="shape"/><feGaussianBlur stdDeviation="171.5" result="effect1_foregroundBlur_5070_1543"/></filter></defs></svg>