<svg width="524" height="929" viewBox="0 0 524 929" fill="none" xmlns="http://www.w3.org/2000/svg"><g filter="url(#filter0_f_3151_2565)"><path d="M39.7908 200.831L58.9888 131.136C66.6984 103.147 90.8759 82.9027 118.874 80.9926C159.513 78.22 188.705 38.0019 177.792 -1.99933C169.634 -31.9052 160.24 -63.2941 151.29 -86.7995C128.538 -146.554 33.3287 -79.261 -19.3423 -30.4715C-72.0133 18.3181 -117.772 -44.562 -160.529 -47.8696C-203.286 -51.1771 -259.778 3.60673 -301.65 65.1317C-343.521 126.657 -255.531 212.3 -217.916 285.045C-180.301 357.79 -155.711 401.536 -115.249 466.532C-74.7869 531.528 -13.3363 583.129 17.0655 585.241C33.0758 586.353 59.3117 550.262 81.3399 513.402C101.005 480.497 102.569 440.367 89.202 405.262L43.5248 285.298C33.3596 258.6 32.0484 228.939 39.7908 200.831Z" fill="#5D3EFE"/></g><defs><filter id="filter0_f_3151_2565" x="-655.695" y="-453.307" width="1178.79" height="1381.57" filterUnits="userSpaceOnUse" color-interpolation-filters="sRGB"><feFlood flood-opacity="0" result="BackgroundImageFix"/><feBlend mode="normal" in="SourceGraphic" in2="BackgroundImageFix" result="shape"/><feGaussianBlur stdDeviation="171.5" result="effect1_foregroundBlur_3151_2565"/></filter></defs></svg>