<svg width="800" height="581" viewBox="0 0 800 581" fill="none" xmlns="http://www.w3.org/2000/svg"><g opacity="0.81" filter="url(#filter0_f_5046_1544)"><path d="M389.583 289.41L423.01 168.06C434.244 127.279 469.472 97.7811 510.266 94.998C569.48 90.9582 612.014 32.3578 596.115 -25.9266C584.227 -69.5015 570.54 -115.237 557.499 -149.486C524.348 -236.552 385.622 -138.502 308.877 -67.4124C232.131 3.67713 165.458 -87.9433 103.158 -92.7626C40.8578 -97.5819 -41.4536 -17.7583 -102.464 71.8876C-163.474 161.534 -35.2653 286.322 19.5421 392.316C74.3495 498.31 110.179 562.05 169.134 656.754C228.09 751.457 317.628 826.644 361.925 829.721C388.72 831.583 435.173 761.926 469.413 701.2C488.246 667.799 490.008 627.82 476.641 592.715L393.317 373.877C383.152 347.18 381.841 317.518 389.583 289.41Z" fill="white"/></g><g opacity="0.22" filter="url(#filter1_f_5046_1544)"><path d="M42.8444 92.2187L115.731 28.7609C142.175 5.73821 180.022 1.50295 209.476 18.2707C252.228 42.6091 308.456 21.6187 324.177 -25.9252C335.93 -61.4703 347.429 -99.3328 354.112 -128.964C371.103 -204.293 230.357 -200.123 144.777 -186.18C59.1958 -172.236 55.1176 -266.069 14.2925 -297.941C-26.5326 -329.812 -119.96 -312.386 -203.173 -278.416C-286.387 -244.446 -255 -99.5103 -265.704 -1.18592C-276.408 97.1384 -280.862 157.581 -283.527 250.008C-286.193 342.434 -258.792 435.39 -229.604 457.811C-212.989 470.573 -155.333 447.563 -105.697 422.923C-71.3555 405.875 -47.8207 373.44 -39.5555 336.796L-0.732448 164.673C5.5531 136.806 20.8558 111.363 42.8444 92.2187Z" fill="#5D3EFE"/></g><defs><filter id="filter0_f_5046_1544" x="-440.559" y="-505.738" width="1362.03" height="1657.5" filterUnits="userSpaceOnUse" color-interpolation-filters="sRGB"><feFlood flood-opacity="0" result="BackgroundImageFix"/><feBlend mode="normal" in="SourceGraphic" in2="BackgroundImageFix" result="shape"/><feGaussianBlur stdDeviation="161" result="effect1_foregroundBlur_5046_1544"/></filter><filter id="filter1_f_5046_1544" x="-626.707" y="-657.731" width="1325.23" height="1462.18" filterUnits="userSpaceOnUse" color-interpolation-filters="sRGB"><feFlood flood-opacity="0" result="BackgroundImageFix"/><feBlend mode="normal" in="SourceGraphic" in2="BackgroundImageFix" result="shape"/><feGaussianBlur stdDeviation="171.5" result="effect1_foregroundBlur_5046_1544"/></filter></defs></svg>