<svg width="1214" height="581" viewBox="0 0 1214 581" fill="none" xmlns="http://www.w3.org/2000/svg"><g opacity="0.81" filter="url(#filter0_f_5046_1545)"><path d="M681.583 289.41L715.01 168.06C726.244 127.279 761.472 97.7811 802.266 94.998C861.48 90.9582 904.014 32.3578 888.115 -25.9266C876.227 -69.5015 862.54 -115.237 849.499 -149.486C816.348 -236.552 677.622 -138.502 600.877 -67.4124C524.131 3.67713 457.458 -87.9433 395.158 -92.7626C332.858 -97.5819 250.546 -17.7583 189.536 71.8876C128.526 161.534 256.735 286.322 311.542 392.316C366.349 498.31 402.179 562.05 461.134 656.754C520.09 751.457 609.628 826.644 653.925 829.721C680.72 831.583 727.173 761.926 761.413 701.2C780.246 667.799 782.008 627.82 768.641 592.715L685.317 373.877C675.152 347.18 673.841 317.518 681.583 289.41Z" fill="white"/></g><g opacity="0.22" filter="url(#filter1_f_5046_1545)"><path d="M120.862 156.896L146.526 63.7256C155.837 29.9232 185.037 5.47362 218.85 3.16676C267.931 -0.181686 303.186 -48.7538 290.007 -97.064C280.155 -133.182 268.809 -171.091 258 -199.479C230.522 -271.645 115.536 -190.374 51.9245 -131.45C-11.6872 -72.5263 -66.951 -148.468 -118.59 -152.462C-170.228 -156.457 -238.454 -90.2935 -289.023 -15.9887C-339.592 58.3161 -233.324 161.75 -187.896 249.605C-142.468 337.46 -112.77 390.292 -63.9036 468.789C-15.0369 547.286 59.178 609.606 95.8948 612.157C116.795 613.609 152.125 562.564 179.869 514.594C199.065 481.405 200.749 441.366 187.382 406.261L124.596 241.363C114.431 214.666 113.119 185.004 120.862 156.896Z" fill="#5D3EFE"/></g><defs><filter id="filter0_f_5046_1545" x="-148.559" y="-505.738" width="1362.03" height="1657.5" filterUnits="userSpaceOnUse" color-interpolation-filters="sRGB"><feFlood flood-opacity="0" result="BackgroundImageFix"/><feBlend mode="normal" in="SourceGraphic" in2="BackgroundImageFix" result="shape"/><feGaussianBlur stdDeviation="161" result="effect1_foregroundBlur_5046_1545"/></filter><filter id="filter1_f_5046_1545" x="-645.363" y="-570.869" width="1281.16" height="1526.06" filterUnits="userSpaceOnUse" color-interpolation-filters="sRGB"><feFlood flood-opacity="0" result="BackgroundImageFix"/><feBlend mode="normal" in="SourceGraphic" in2="BackgroundImageFix" result="shape"/><feGaussianBlur stdDeviation="171.5" result="effect1_foregroundBlur_5046_1545"/></filter></defs></svg>