<svg width="898" height="1241" viewBox="0 0 898 1241" fill="none" xmlns="http://www.w3.org/2000/svg"><g filter="url(#filter0_f_5069_1542)"><path d="M509.791 278.831L528.989 209.136C536.698 181.147 560.876 160.903 588.874 158.993C629.513 156.22 658.705 116.002 647.792 76.0007C639.634 46.0948 630.24 14.7059 621.29 -8.79949C598.538 -68.5539 503.329 -1.261 450.658 47.5285C397.987 96.3181 352.228 33.438 309.471 30.1304C266.714 26.8229 210.222 81.6067 168.35 143.132C126.479 204.657 214.469 290.3 252.084 363.045C289.699 435.79 314.289 479.536 354.751 544.532C395.213 609.528 456.664 661.129 487.065 663.241C503.076 664.353 529.312 628.262 551.34 591.402C571.005 558.497 572.569 518.367 559.202 483.262L513.525 363.298C503.36 336.6 502.048 306.939 509.791 278.831Z" fill="#131318"/></g><g filter="url(#filter1_f_5069_1542)"><path d="M205.583 435.806L137.633 319.349C115.894 282.092 109.887 237.913 123.092 212.394C141.605 176.612 121.689 108.225 82.1502 74.441C46.9114 44.3308 8.35209 12.5357 -21.1344 -9.01009C-90.6628 -59.8146 -76.9568 97.3389 -58.2744 197.75C-39.592 298.161 -124.42 262.743 -150.452 294.254C-176.485 325.764 -154.09 436.319 -117.408 542.637C-80.7266 648.954 48.5315 675.965 138.476 729.612C228.421 783.259 283.563 813.891 367.591 856.154C451.619 898.418 534.008 907.716 552.287 885.031C563.12 871.589 535.649 792.549 508.72 725.409C492.522 685.024 466.166 650.812 437.562 629.911L263.541 502.754C242.09 487.08 221.876 463.731 205.583 435.806Z" fill="#5D3EFE"/></g><defs><filter id="filter0_f_5069_1542" x="-5.69531" y="-195.307" width="818.793" height="1021.57" filterUnits="userSpaceOnUse" color-interpolation-filters="sRGB"><feFlood flood-opacity="0" result="BackgroundImageFix"/><feBlend mode="normal" in="SourceGraphic" in2="BackgroundImageFix" result="shape"/><feGaussianBlur stdDeviation="81.5" result="effect1_foregroundBlur_5069_1542"/></filter><filter id="filter1_f_5069_1542" x="-504.727" y="-361.868" width="1402.43" height="1601.92" filterUnits="userSpaceOnUse" color-interpolation-filters="sRGB"><feFlood flood-opacity="0" result="BackgroundImageFix"/><feBlend mode="normal" in="SourceGraphic" in2="BackgroundImageFix" result="shape"/><feGaussianBlur stdDeviation="171.5" result="effect1_foregroundBlur_5069_1542"/></filter></defs></svg>