<svg width="589" height="934" viewBox="0 0 589 934" fill="none" xmlns="http://www.w3.org/2000/svg"><g filter="url(#filter0_f_3151_2564)"><path d="M542.884 278.63L563.001 348.065C571.08 375.949 561.074 405.854 538.216 422.134C505.038 445.766 501.212 495.314 531.446 523.688C554.049 544.902 578.482 566.732 598.41 582.077C649.071 621.087 694.981 513.917 714.327 444.776C733.674 375.636 805.575 405.268 843.74 385.709C881.905 366.15 901.369 289.903 904.849 215.563C908.328 141.222 788.527 114.296 718.403 71.9955C648.279 29.6954 604.431 5.28881 535.937 -28.9186C467.442 -63.126 388.073 -74.935 361.062 -60.8233C346.837 -53.3918 343.37 -8.90728 343.891 34.0305C344.356 72.3611 364.026 107.374 393.789 130.293L495.495 208.609C518.13 226.038 534.771 250.627 542.884 278.63Z" fill="#5D3EFE"/></g><defs><filter id="filter0_f_3151_2564" x="0.84375" y="-409.658" width="1247.08" height="1343.05" filterUnits="userSpaceOnUse" color-interpolation-filters="sRGB"><feFlood flood-opacity="0" result="BackgroundImageFix"/><feBlend mode="normal" in="SourceGraphic" in2="BackgroundImageFix" result="shape"/><feGaussianBlur stdDeviation="171.5" result="effect1_foregroundBlur_3151_2564"/></filter></defs></svg>