<svg width="809" height="1278" viewBox="0 0 809 1278" fill="none" xmlns="http://www.w3.org/2000/svg"><g filter="url(#filter0_f_3186_2178)"><path d="M539.391 269.873L562.376 432.6C571.05 494.004 562.329 553.724 539.904 586.485C504.881 637.653 505.625 748.746 543.478 820.194C562.484 856.067 581.978 891.063 598.41 917.016C649.071 997.03 694.981 777.21 714.327 635.394C733.674 493.578 805.575 554.357 843.74 514.239C881.905 474.12 901.369 317.727 904.849 165.245C908.328 12.7629 788.527 -42.4673 718.403 -129.231C648.279 -215.994 604.431 -266.055 535.937 -336.219C467.442 -406.383 388.073 -430.605 361.062 -401.66C344.642 -384.065 342.556 -265.2 344.392 -166.843C345.367 -114.644 360.114 -62.8418 382.369 -27.6924L503.325 163.349C520.735 190.847 533.592 228.821 539.391 269.873Z" fill="#5D3EFE"/></g><defs><filter id="filter0_f_3186_2178" x="0.84375" y="-756.629" width="1247.08" height="2033.69" filterUnits="userSpaceOnUse" color-interpolation-filters="sRGB"><feFlood flood-opacity="0" result="BackgroundImageFix"/><feBlend mode="normal" in="SourceGraphic" in2="BackgroundImageFix" result="shape"/><feGaussianBlur stdDeviation="171.5" result="effect1_foregroundBlur_3186_2178"/></filter></defs></svg>