<svg width="762" height="581" viewBox="0 0 762 581" fill="none" xmlns="http://www.w3.org/2000/svg"><g opacity="0.22" filter="url(#filter0_f_3151_2346)"><path d="M693.69 571.254L610.569 620.553C580.413 638.439 542.421 635.791 516.468 613.994C478.796 582.357 419.708 592.881 395.684 636.818C377.724 669.666 359.596 704.84 347.687 732.784C317.412 803.823 456.609 825.06 543.302 826.752C629.994 828.444 617.113 921.478 651.533 960.179C685.953 998.88 780.991 998.558 868.96 980.124C956.93 961.691 952.15 813.473 980.38 718.682C1008.61 623.891 1023.87 565.238 1043.14 474.802C1062.4 384.365 1052.18 287.995 1027.51 260.686C1013.46 245.141 952.603 257.395 899.342 272.696C862.493 283.283 833.503 310.951 818.776 345.508L749.599 507.829C738.399 534.109 718.766 556.382 693.69 571.254Z" fill="#5D3EFE"/></g><defs><filter id="filter0_f_3151_2346" x="0.457031" y="-89.5118" width="1395.72" height="1424.73" filterUnits="userSpaceOnUse" color-interpolation-filters="sRGB"><feFlood flood-opacity="0" result="BackgroundImageFix"/><feBlend mode="normal" in="SourceGraphic" in2="BackgroundImageFix" result="shape"/><feGaussianBlur stdDeviation="171.5" result="effect1_foregroundBlur_3151_2346"/></filter></defs></svg>