<svg width="645" height="581" viewBox="0 0 645 581" fill="none" xmlns="http://www.w3.org/2000/svg"><g opacity="0.22" filter="url(#filter0_f_3186_1988)"><path d="M603.59 444.742L544.963 521.567C523.693 549.44 487.471 561.204 455.246 550.706C408.471 535.467 357.617 567.342 351.784 617.077C347.424 654.26 343.778 693.662 343.194 724.032C341.707 801.239 478.736 768.835 559.76 737.956C640.785 707.078 663.66 798.171 710.063 821.176C756.467 844.181 844.477 808.313 919.153 758.294C993.829 708.275 933.922 572.619 924.622 474.152C915.323 375.685 907.524 315.582 891.537 224.509C875.551 133.437 830.007 47.8953 796.904 31.8065C778.061 22.6481 726.214 56.7889 682.551 90.9127C652.343 114.522 635.816 151.029 635.093 188.587L631.697 365C631.147 393.562 621.277 421.565 603.59 444.742Z" fill="#5D3EFE"/></g><defs><filter id="filter0_f_3186_1988" x="0.179688" y="-312.702" width="1298.97" height="1484" filterUnits="userSpaceOnUse" color-interpolation-filters="sRGB"><feFlood flood-opacity="0" result="BackgroundImageFix"/><feBlend mode="normal" in="SourceGraphic" in2="BackgroundImageFix" result="shape"/><feGaussianBlur stdDeviation="171.5" result="effect1_foregroundBlur_3186_1988"/></filter></defs></svg>