<svg width="2285" height="1208" viewBox="0 0 2285 1208" fill="none" xmlns="http://www.w3.org/2000/svg"><g opacity="0.1" clip-path="url(#clip0_3186_1920)"><path d="M23.3672 1360.84L148.778 1265.76L293.832 1166.89L431.898 1082.97L559.954 1014.73L676.11 962.178L779.423 924.183L869.138 900.177L945.631 888.457L1009.28 888.079L1060.47 897.341L1087.1 918.134L1119.2 930.232L1120.9 930.988L1121.28 931.177" stroke="#2222FF" stroke-linecap="round" stroke-linejoin="round"/><path d="M0.328125 912.085L136.694 870.121L287.981 833.072L431.524 806.986L564.301 791.675L684.424 786.382L790.381 790.162L881.985 802.26L958.856 821.352L1021.37 846.304L1065 873.146L1070.1 876.17L1102.02 906.036L1102.59 906.792L1106.18 910.195L1116.56 925.884" stroke="#2222FF" stroke-linecap="round" stroke-linejoin="round"/><path d="M239.063 1360.84L148.782 1265.76L43.391 1094.5L0.328125 972.574" stroke="#2222FF" stroke-linecap="round" stroke-linejoin="round"/><path d="M1691.68 1018.7L1592.9 1082.4L1480.15 1130.98L1357.19 1162.17L1228.76 1174.08L1100.13 1166.52L976.046 1139.67L861.589 1095.06L760.542 1034.95L676.116 962.178L610.389 879.95L564.304 791.675L538.051 700.374L531.062 609.263L541.828 520.42L569.215 436.113L611.144 358.045L665.917 287.349L731.456 225.348L805.872 172.42L887.842 129.322L975.101 96.2417L1066.33 73.5584L1160.2 61.2716L1254.82 59.5703L1349.07 68.4546L1441.24 87.9245L1529.82 117.98L1613.3 158.243L1689.79 208.335L1757.79 268.257L1815.21 336.874L1860.16 413.43L1890.75 496.791L1905.11 585.256L1901.52 676.746L1878.67 768.802L1835.98 858.59L1773.28 943.086L1691.68 1018.7Z" stroke="#2222FF" stroke-linecap="round" stroke-linejoin="round"/><path d="M0.328125 575.238L116.674 571.647L260.405 575.994L399.604 588.848L531.06 609.263L652.127 636.294L760.917 668.807L856.109 705.667L937.135 745.741L1003.81 787.894L1052.54 828.346L1056.31 831.56L1092.39 872.39L1095.22 875.603L1099.19 893.183L1115.05 918.324L1121.85 929.098" stroke="#2222FF" stroke-linecap="round" stroke-linejoin="round"/><path d="M2260 -0.162109L2344.8 78.2844L2417.89 168.262" stroke="#2222FF" stroke-linecap="round" stroke-linejoin="round"/><path d="M0.328125 77.7173L81.5433 -0.162109" stroke="#2222FF" stroke-linecap="round" stroke-linejoin="round"/><path d="M0.328125 736.668L110.818 718.521L260.594 703.21L403.948 697.35L538.048 700.375L660.437 711.716L769.417 730.052L864.231 754.436L944.312 784.114L1004 814.736L1009.66 817.572L1056.69 851.219L1061.04 854.243L1090.69 884.488L1099.19 893.183L1106.18 910.195L1116.38 925.885L1116.56 926.074" stroke="#2222FF" stroke-linecap="round" stroke-linejoin="round"/><path d="M519.162 1360.84L427.182 1299.21L293.838 1166.89L197.135 1021.53L136.696 870.121L110.82 718.521L116.675 571.647L149.917 432.9L207.145 304.929L284.394 189.244L377.886 87.3577L484.221 -0.162109" stroke="#2222FF" stroke-linecap="round" stroke-linejoin="round"/><path d="M485.355 -0.162109L566.76 67.3208L649.863 143.31L731.456 225.348L809.65 311.356L882.554 399.253L948.471 486.395L1006.27 571.08L1054.81 651.227L1094.09 725.515L1123.56 792.809L1143.58 852.353L1154.72 903.768L1146.79 913.976L1140.74 925.317L1136.97 937.226L1136.59 939.684" stroke="#2222FF" stroke-linecap="round" stroke-linejoin="round"/><path d="M937.137 -0.162109L975.1 96.242L1013.06 199.451L1048.76 304.172L1081.62 407.571L1110.71 507.188L1135.45 600.379L1155.47 685.63L1170.96 761.43L1181.54 826.834L1187.39 881.274L1189.09 924.75L1187.01 954.428" stroke="#2222FF" stroke-linecap="round" stroke-linejoin="round"/><path d="M633.805 1360.84L692.544 1285.04L781.692 1179.56L861.585 1095.06L931.468 1030.23L991.529 983.538L1042.34 953.293L1084.08 937.604L1117.7 934.958L1131.86 939.683L1137.34 941.762L1142.06 943.464H1143.57" stroke="#2222FF" stroke-linecap="round" stroke-linejoin="round"/><path d="M1963.09 -0.162109L2039.02 57.8694L2136.66 156.542L2218.26 269.391L2280.58 395.473L2319.3 533.085L2330.64 679.959L2310.8 832.505L2256.22 985.995L2164.81 1134.57L2036.37 1271.62L1913.04 1360.84" stroke="#2222FF" stroke-linecap="round" stroke-linejoin="round"/><path d="M1050.84 1360.84L1072.93 1269.35L1100.13 1166.52L1123.74 1086.56L1144.14 1027.39L1161.33 987.129L1175.3 963.312L1186.82 954.428" stroke="#2222FF" stroke-linecap="round" stroke-linejoin="round"/><path d="M1668.07 908.871L1600.64 969.36L1519.99 1020.02L1428.77 1058.39L1329.99 1082.97L1227.05 1092.42L1123.74 1086.56L1024.01 1065.39L931.467 1030.23L849.119 982.403L779.425 924.182L724.085 858.023L684.422 786.381L660.435 711.715L652.125 636.293L658.547 562.194L678.945 491.309L711.998 425.149L756.005 364.85L809.645 311.355L871.406 265.799L939.589 228.372L1013.06 199.45L1089.93 179.602L1169.26 169.017L1249.53 167.505L1329.04 175.444L1406.86 192.456L1481.27 218.731L1550.97 253.701L1614.43 297.178L1670.15 348.782L1716.42 407.381L1751.93 472.406L1775.16 542.536L1784.42 616.445L1778.94 692.245L1757.97 767.668L1720.95 840.821L1668.07 908.871Z" stroke="#2222FF" stroke-linecap="round" stroke-linejoin="round"/><path d="M201.855 -0.162109L284.204 37.0763L377.885 87.3577L474.398 146.712L571.29 214.195L665.915 287.349L756.007 364.85L839.489 444.053L914.66 523.445L980.01 600.757L1034.97 674.667L1078.98 743.851L1112.03 807.175L1134.51 864.072L1127.52 876.926L1122.99 890.725L1136.96 937.226L1137.15 939.872" stroke="#2222FF" stroke-linecap="round" stroke-linejoin="round"/><path d="M363.34 1360.84L427.179 1299.21L548.435 1192.79L660.058 1104.7L760.539 1034.95L849.12 982.404L925.613 945.922L990.396 924.183L1042.34 953.294L1099.94 974.465L1161.33 987.13L1224.6 990.532L1287.68 984.861L1348.5 970.117L1385.14 1005.47L1428.77 1058.39L1480.14 1130.98L1539.26 1224.93L1605.93 1341.56L1616.13 1360.84" stroke="#2222FF" stroke-linecap="round" stroke-linejoin="round"/><path d="M0.328125 263.154L85.6984 276.764L207.143 304.929L330.477 341.412L452.111 385.644L569.212 436.115L678.947 491.311L779.238 549.531L868.386 609.453L945.068 669.753L1008.91 728.729L1059.52 785.816L1097.3 840.067L1094.65 857.646L1120.15 903.769L1120.91 904.903L1130.16 933.824L1130.92 936.471" stroke="#2222FF" stroke-linecap="round" stroke-linejoin="round"/><path d="M1048.95 -0.162109L1066.33 73.5587L1089.93 179.603L1112.41 287.349L1133 393.583L1151.32 495.657L1166.99 591.305L1179.84 678.447L1189.66 755.76L1196.46 822.108L1200.42 877.115L1201.75 920.781L1200.42 953.293L1200.24 955.184" stroke="#2222FF" stroke-linecap="round" stroke-linejoin="round"/><path d="M0.328125 103.047L73.7995 118.547L176.546 148.98L284.392 189.243L394.694 238.39L504.617 295.288L611.141 358.045L711.999 425.15L804.736 494.523L887.651 564.652L959.422 633.836L1019.48 700.752L1067.27 764.076L1059.52 785.815L1055.75 808.498L1056.31 831.559L1061.04 854.243L1070.1 876.17L1083.32 896.585L1100.13 914.921L1118.64 929.287L1120.53 930.799L1121.29 931.177L1124.12 932.689L1124.5 932.878L1126.2 934.012L1130.92 936.47L1136.21 939.305L1136.58 939.683L1136.77 940.439L1137.15 941.384L1138.1 941.762L1142.06 942.708L1143.57 943.464L1148.86 945.354L1151.88 946.866L1156.23 948.189H1156.79L1157.17 948.378L1165.1 949.891L1175.11 951.97L1186.82 954.427H1187.01L1195.32 954.805L1200.23 955.183L1214.4 955.94L1223.28 956.318L1229.51 955.751L1243.86 954.616L1249.15 954.049L1257.09 953.293L1259.92 953.104L1268.98 951.025L1278.99 948.567L1287.12 946.488L1288.25 946.299H1288.44L1293.35 944.22L1295.24 943.464L1302.04 940.817V940.628L1306.57 939.116L1312.05 937.793L1316.39 936.092L1328.29 931.177L1358.13 913.408L1384.01 891.67L1435.38 880.707L1462.77 848.005L1534.35 836.474L1559.85 790.54L1575.9 742.149L1581.95 693.002L1578.55 644.233L1566.08 597.354L1545.3 553.122L1516.6 512.859L1481.47 477.132L1440.48 446.51L1394.77 421.747L1345.29 403.034L1293.35 390.747L1239.9 385.076L1186.26 386.021L1133 393.582L1081.62 407.57L1033.08 427.985L988.32 454.449L948.468 486.395L914.659 523.444L887.651 564.652L868.386 609.452L857.62 656.898L856.109 705.667L864.231 754.436L881.985 802.26L909.182 847.438L945.635 888.457L990.397 924.183L1044.04 915.488L1084.08 937.604L1128.27 953.86L1175.3 963.312L1223.84 966.147L1272.01 961.799L1318.66 950.458L1348.5 970.117L1405.16 946.866L1455.97 916.244L1499.41 879.005L1576.85 887.89L1620.29 833.828L1651.45 775.229L1670.15 714.362L1676.38 652.739L1670.53 592.25L1653.53 534.219L1625.95 480.157L1589.31 431.01L1544.55 387.533L1492.99 350.673L1435.95 320.807L1374.56 298.501L1310.35 283.757L1244.43 276.952L1178.14 278.275L1112.41 287.349L1048.76 304.172L988.509 328.746L932.602 360.502L882.551 399.253L839.488 444.053L804.736 494.523L779.238 549.53L764.506 608.129L760.917 668.806L769.417 730.051L790.381 790.162L823.812 847.627L869.141 900.176L925.614 945.921L991.531 983.538L1065.19 1010.95L1144.14 1027.39L1225.54 1031.93L1306.95 1024.56L1385.14 1005.46L1457.67 975.409L1522.26 935.714L1576.85 887.89L1668.07 908.872L1773.27 943.086L1892.07 991.666L2023.15 1055.56L2164.81 1134.57L2314.02 1228.52L2417.89 1301.48" stroke="#2222FF" stroke-linecap="round" stroke-linejoin="round"/><path d="M1533.97 1360.84L1605.93 1341.56L1770.06 1266.51L1910.58 1169.35L2023.15 1055.56L2105.69 930.799L2157.44 800.559L2180.11 669.752L2175.38 542.536L2146.3 421.937L2096.25 310.41L2027.87 209.659L1944.58 120.816L1849.01 44.4484L1774.78 -0.162109" stroke="#2222FF" stroke-linecap="round" stroke-linejoin="round"/><path d="M1514.52 -0.162109L1580.05 21.198L1678.08 66.5647L1768.74 123.462L1849.95 191.512L1919.84 270.337L1975.74 358.801L2015.41 456.151L2036.18 560.116L2035.99 668.996L2012.57 779.577L1964.79 888.457L1892.07 991.666L1795.18 1085.23L1676.38 1164.25L1539.26 1224.93L1388.73 1264.06L1231.02 1278.99L1072.93 1269.35L921.078 1235.51L781.691 1179.56L660.057 1104.7L559.954 1014.73L483.461 914.165L431.521 806.986L403.946 697.35L399.602 588.848L416.222 484.127L452.108 385.643L504.615 295.288L571.287 214.195L649.858 143.31L738.061 83.1991L834.197 34.43L928.822 -0.162109" stroke="#2222FF" stroke-linecap="round" stroke-linejoin="round"/><path d="M1067.27 764.077L1103.16 823.054L1097.3 840.067L1122.99 890.726L1120.91 904.903L1121.48 919.458L1124.5 932.879" stroke="#2222FF" stroke-linecap="round" stroke-linejoin="round"/><path d="M1154.71 -0.162109L1160.19 61.2719L1169.26 169.018L1178.13 278.276L1186.26 386.021L1193.43 489.42L1199.86 586.391L1204.95 674.667L1209.11 752.735L1212.13 819.651L1214.02 875.036L1214.78 918.702V950.836L1214.4 955.94" stroke="#2222FF" stroke-linecap="round" stroke-linejoin="round"/><path d="M0.328125 475.432L16.0045 419.668L85.6985 276.763L176.546 148.981L284.203 37.0763L331.233 -0.162109" stroke="#2222FF" stroke-linecap="round" stroke-linejoin="round"/><path d="M0.328125 1117.94L43.391 1094.5L197.133 1021.53L344.831 961.233L483.464 914.165L610.386 879.951L724.087 858.024L823.812 847.628L909.182 847.438L980.576 856.323L1038.37 873.146L1060.47 897.342L1100.13 914.921" stroke="#2222FF" stroke-linecap="round" stroke-linejoin="round"/><path d="M1319.79 930.233L1320.54 928.909L1322.81 926.83L1327.34 923.239L1328.1 922.104L1333.58 917.001L1336.03 914.732L1360.59 891.86L1366.44 888.457L1405.16 866.719L1462.77 848.006L1483.35 812.09L1496.38 774.474L1502.05 735.912L1581.94 693.003L1676.38 652.74L1784.42 616.447L1905.1 585.257L2036.18 560.116L2175.38 542.537L2319.3 533.085L2417.89 532.707" stroke="#2222FF" stroke-linecap="round" stroke-linejoin="round"/><path d="M813.047 -0.162109L834.201 34.43L887.84 129.322L939.591 228.372L988.509 328.746L1033.08 427.986L1072.37 523.634L1105.8 613.611L1132.81 696.027L1153.4 769.559L1167.37 833.45L1175.3 887.134L1177.38 930.61L1175.12 951.97" stroke="#2222FF" stroke-linecap="round" stroke-linejoin="round"/><path d="M1500.17 697.35L1491.29 660.111L1475.61 624.952L1453.7 592.439L1426.51 563.707L1394.4 538.944L1358.51 518.718L1319.6 503.407L1278.43 493.389L1236.12 488.663L1193.44 489.419L1151.32 495.657L1110.71 507.188L1072.37 523.633L1037.24 545.182L1006.26 571.079L980.011 600.756L959.424 633.836L945.069 669.752L937.514 707.179L937.137 745.741L944.314 784.113L958.857 821.352L980.577 856.322L1009.29 888.079L1044.04 915.488L1087.1 918.134L1117.7 934.958L1132.05 940.25L1138.1 941.384L1142.06 943.275L1149.05 946.299L1151.88 946.866L1156.42 948.189H1156.8" stroke="#2222FF" stroke-linecap="round" stroke-linejoin="round"/><path d="M1312.99 934.202L1313.94 931.178L1322.44 901.501L1347.37 853.299L1384.76 802.828L1435.57 750.657L1429.15 721.546L1491.29 660.112L1566.08 597.355L1653.53 534.22L1751.93 472.408L1860.16 413.431L1975.75 358.802L2096.25 310.411L2218.26 269.392L2339.14 237.068L2417.9 221.568" stroke="#2222FF" stroke-linecap="round" stroke-linejoin="round"/><path d="M1295.24 943.464L1296.37 911.329L1307.33 861.048L1328.1 803.395" stroke="#2222FF" stroke-linecap="round" stroke-linejoin="round"/><path d="M1429.15 721.546L1417.63 693.759L1401.19 668.24L1380.23 645.556L1355.68 625.898L1328.1 609.83L1297.88 597.543L1265.96 589.604L1233.1 585.824L1199.86 586.391L1166.99 591.306L1135.45 600.379L1105.8 613.611L1078.6 630.623L1054.8 651.227L1034.97 674.667L1019.48 700.753L1008.91 728.729L1003.62 758.028L1003.81 787.894L1009.66 817.572L1021.37 846.304L1038.37 873.146L1077.28 893.561L1083.32 896.585L1108.06 918.512L1110.71 920.781L1116.37 925.885L1116.56 926.074L1121.47 930.043L1124.12 932.69" stroke="#2222FF" stroke-linecap="round" stroke-linejoin="round"/><path d="M1257.08 953.294L1254.25 923.616L1254.63 880.14L1258.97 825.511L1267.47 759.729L1280.5 683.551L1297.88 597.543L1319.6 503.408L1345.29 403.034L1374.56 298.502L1406.86 192.457L1441.23 87.9248L1472.4 -0.162109" stroke="#2222FF" stroke-linecap="round" stroke-linejoin="round"/><path d="M1302.04 940.628L1305.81 939.305L1306.95 938.927L1307.89 938.549L1312.61 935.713L1317.71 931.366L1319.79 930.232L1322.81 928.341L1324.7 927.207L1325.46 926.829L1358.13 913.408L1401.57 909.249L1435.38 880.706L1499.41 879.005L1534.35 836.474L1620.29 833.827L1720.95 840.821L1835.98 858.59L1964.79 888.456L2105.69 930.799L2256.22 985.995L2412.98 1053.67L2417.89 1056.12" stroke="#2222FF" stroke-linecap="round" stroke-linejoin="round"/><path d="M1344.34 910.762L1360.58 891.86L1373.05 870.878L1381.17 848.761L1385.51 845.548L1431.6 810.389L1436.51 780.522L1435.57 750.656L1500.16 697.35" stroke="#2222FF" stroke-linecap="round" stroke-linejoin="round"/><path d="M1295.05 944.598L1318.66 950.458L1362.29 932.878L1405.16 946.866L1457.67 975.409L1519.99 1020.02L1592.9 1082.4L1676.38 1164.25L1770.06 1266.51L1849.01 1360.84" stroke="#2222FF" stroke-linecap="round" stroke-linejoin="round"/><path d="M1067.27 764.076L1078.98 743.85L1094.09 725.515L1112.03 709.447L1132.81 696.026L1155.47 685.63L1179.84 678.447L1204.96 674.666L1230.64 674.099L1255.95 677.124L1280.51 683.551L1303.55 693.002L1324.89 705.667L1343.59 721.167L1359.27 738.936L1371.54 758.784" stroke="#2222FF" stroke-linecap="round" stroke-linejoin="round"/><path d="M1327.34 923.238L1327.53 922.67L1337.73 906.036L1340.94 902.823L1341.89 902.066L1347.55 896.396L1373.05 870.877L1377.96 867.663L1421.21 839.309L1483.35 812.089L1559.85 790.54L1651.45 775.229L1757.97 767.668L1878.66 768.802L2012.57 779.576L2157.44 800.559L2310.8 832.504L2417.89 861.236" stroke="#2222FF" stroke-linecap="round" stroke-linejoin="round"/><path d="M1328.1 922.104L1337.73 906.037L1344.16 889.024L1347.37 871.255V853.298L1343.97 835.718L1337.55 819.084L1328.1 803.395L1359.27 738.936L1401.2 668.24L1453.7 592.44L1516.6 512.859L1589.31 431.01L1670.15 348.783L1757.79 268.257L1849.96 191.512L1944.58 120.816L2039.02 57.8694L2131 4.18553L2139.69 -0.162109" stroke="#2222FF" stroke-linecap="round" stroke-linejoin="round"/><path d="M1328.1 803.394L1316.01 789.406L1301.66 777.309L1285.41 767.29L1267.47 759.729L1248.58 754.625L1228.94 752.357L1209.11 752.735L1189.66 755.759L1170.96 761.43L1153.39 769.558L1137.34 780.144L1123.55 792.809L1112.03 807.175L1103.15 823.053L1127.52 876.926L1140.74 925.317L1142.06 942.708" stroke="#2222FF" stroke-linecap="round" stroke-linejoin="round"/><path d="M1302.04 940.818L1302.79 922.482L1314.88 873.713L1337.54 819.084L1371.54 758.784" stroke="#2222FF" stroke-linecap="round" stroke-linejoin="round"/><path d="M2417.89 1037.79L2412.98 1053.67L2314.01 1228.52L2197.29 1360.84" stroke="#2222FF" stroke-linecap="round" stroke-linejoin="round"/><path d="M1317.71 931.366L1322.44 915.865L1327.16 907.548L1347.37 871.255L1385.14 825.888L1436.52 780.522L1502.05 735.911L1500.17 697.349L1578.55 644.233L1670.53 592.25L1775.16 542.536L1890.75 496.791L2015.41 456.15L2146.3 421.936L2280.59 395.472L2414.31 377.514L2417.9 377.325" stroke="#2222FF" stroke-linecap="round" stroke-linejoin="round"/><path d="M0.328125 419.291L16.0045 419.669L149.915 432.901L284.581 454.639L416.225 484.127L541.825 520.421L658.548 562.196L764.506 608.129L857.62 656.899L937.513 707.18L1003.62 758.028L1055.75 808.499L1094.65 857.646L1095.22 875.604L1116.19 910.763L1121.47 919.458L1126.2 934.013" stroke="#2222FF" stroke-linecap="round" stroke-linejoin="round"/><path d="M1259.92 953.105L1272.01 961.801L1287.68 984.862L1306.95 1024.56L1329.99 1082.97L1357.19 1162.17L1388.73 1264.06L1416.3 1360.84" stroke="#2222FF" stroke-linecap="round" stroke-linejoin="round"/><path d="M1319.79 930.232L1322.43 915.866V901.5L1319.79 887.323L1314.88 873.713L1307.32 861.048L1297.69 849.706L1316.01 789.406L1343.59 721.167L1380.23 645.556L1426.5 563.707L1481.46 477.133L1544.55 387.534L1614.43 297.178L1689.79 208.335L1768.74 123.462L1849.01 44.4484L1899.25 -0.162109" stroke="#2222FF" stroke-linecap="round" stroke-linejoin="round"/><path d="M1223.28 956.318L1223.84 966.148L1224.6 990.532L1225.54 1031.93L1227.05 1092.42L1228.75 1174.08L1231.02 1278.99L1232.72 1360.84" stroke="#2222FF" stroke-linecap="round" stroke-linejoin="round"/><path d="M1322.81 928.342L1323.95 927.586L1325.46 926.83L1344.34 910.762L1351.33 907.36L1384.01 891.67L1405.16 866.719L1421.21 839.31L1431.6 810.389L1437.27 807.175L1496.39 774.473L1575.9 742.15L1670.15 714.362L1778.94 692.246L1901.52 676.746L2035.99 668.996L2180.1 669.752L2330.64 679.959L2417.89 691.112" stroke="#2222FF" stroke-linecap="round" stroke-linejoin="round"/><path d="M2124.96 -0.162109L2131 4.18553L2243.19 112.309L2339.14 237.068L2414.31 377.515L2417.9 388.479" stroke="#2222FF" stroke-linecap="round" stroke-linejoin="round"/><path d="M856.109 1360.84L859.32 1354.41L921.081 1235.51L976.043 1139.67L1024.02 1065.39L1065.19 1010.95L1099.94 974.464L1128.27 953.86L1151.13 947.055" stroke="#2222FF" stroke-linecap="round" stroke-linejoin="round"/><path d="M1195.32 954.806L1200.42 953.293L1214.78 950.836L1229.13 950.647L1243.49 952.537L1249.15 954.05" stroke="#2222FF" stroke-linecap="round" stroke-linejoin="round"/><path d="M1229.51 955.751L1229.13 950.647L1228.19 918.512L1227.81 874.847L1228 819.462L1228.94 752.357L1230.64 674.1L1233.1 585.824L1236.12 488.664L1239.9 385.076L1244.43 276.952L1249.53 167.505L1254.82 59.5706L1258.03 -0.162109" stroke="#2222FF" stroke-linecap="round" stroke-linejoin="round"/><path d="M1307.14 937.794V934.391L1319.79 887.323L1343.97 835.719L1380.23 780.334L1371.54 758.785L1417.63 693.759L1475.61 624.953L1545.3 553.122L1625.95 480.158L1716.42 407.382L1815.2 336.875L1919.84 270.337L2027.87 209.659L2136.66 156.542L2243.19 112.31L2344.8 78.2848L2417.9 60.1382" stroke="#2222FF" stroke-linecap="round" stroke-linejoin="round"/><path d="M1307.7 937.415L1307.14 934.391L1302.79 922.482L1296.37 911.329L1288.25 901.311L1278.24 892.616L1286.36 839.688L1301.66 777.309L1324.89 705.667L1355.68 625.898L1394.39 538.945L1440.48 446.51L1492.99 350.673L1550.97 253.702L1613.3 158.243L1678.08 66.5647L1729.27 -0.162109" stroke="#2222FF" stroke-linecap="round" stroke-linejoin="round"/><path d="M1288.25 946.299L1286.74 944.598L1288.25 901.311L1297.69 849.706L1286.36 839.688L1273.33 831.559L1258.97 825.511L1243.86 821.352L1228 819.462L1212.13 819.651L1196.46 822.108L1181.54 826.834L1167.37 833.45L1154.72 841.956L1143.57 852.352L1134.51 864.072L1146.78 913.975L1148.86 945.354" stroke="#2222FF" stroke-linecap="round" stroke-linejoin="round"/><path d="M1243.86 954.617L1243.48 952.537L1241.41 920.214V876.548L1243.86 821.352L1248.58 754.625L1255.95 677.124L1265.96 589.604L1278.43 493.389L1293.35 390.747L1310.34 283.757L1329.04 175.445L1349.06 68.4549L1362.85 -0.162109" stroke="#2222FF" stroke-linecap="round" stroke-linejoin="round"/><path d="M1287.12 946.488L1286.74 944.598L1277.11 936.092L1266.15 929.098L1267.1 885.622L1273.33 831.56L1285.42 767.29L1303.55 693.002L1328.1 609.83L1358.51 518.719L1394.77 421.748L1435.95 320.807L1481.28 218.732L1529.82 117.98L1580.06 21.198L1592.15 -0.162109" stroke="#2222FF" stroke-linecap="round" stroke-linejoin="round"/><path d="M1156.41 948.19L1157.36 946.678L1154.71 903.769L1164.16 894.695L1175.3 887.134L1187.39 881.274L1200.42 877.116L1214.02 875.036L1227.81 874.847L1241.41 876.549L1254.63 880.14L1267.09 885.622L1278.24 892.616L1277.1 936.092L1278.99 948.568" stroke="#2222FF" stroke-linecap="round" stroke-linejoin="round"/><path d="M1157.17 948.379L1157.36 946.678L1166.62 937.982L1177.38 930.61L1189.09 924.75L1201.75 920.781L1214.78 918.701L1228.19 918.512L1241.41 920.214L1254.25 923.616L1266.15 929.098L1268.98 951.025" stroke="#2222FF" stroke-linecap="round" stroke-linejoin="round"/><path d="M670.444 -0.162109L669.5 0.215946L566.753 67.3208L474.395 146.712L394.691 238.391L330.474 341.411L284.578 454.638L260.402 575.994L260.591 703.21L287.978 833.072L344.828 961.233L431.899 1082.97L548.433 1192.79L692.543 1285.04L859.317 1354.41L887.27 1360.84" stroke="#2222FF" stroke-linecap="round" stroke-linejoin="round"/><path d="M669.129 -0.162109L669.507 0.215946L738.067 83.1991L805.873 172.42L871.411 265.8L932.606 360.503L988.323 454.449L1037.24 545.183L1078.6 630.623L1112.03 709.448L1137.34 780.144L1154.72 841.956L1164.16 894.695L1166.62 937.982L1165.11 949.891" stroke="#2222FF" stroke-linecap="round" stroke-linejoin="round"/><path d="M1288.44 946.299L1295.05 944.598L1296.37 944.22L1302.04 941.952L1305.62 940.439L1306.57 939.116L1307.14 937.793L1307.7 937.415L1308.27 937.037L1312.61 935.714L1316.58 935.525L1328.29 931.177L1362.29 932.878L1401.57 909.25L1455.97 916.244L1522.26 935.714L1600.64 969.361L1691.68 1018.7L1795.18 1085.23L1910.58 1169.35L2036.37 1271.62L2135.91 1360.84" stroke="#2222FF" stroke-linecap="round" stroke-linejoin="round"/><path d="M1322.43 925.696L1328.67 915.111L1344.15 889.025L1347.55 885.433L1381.17 848.762L1385.14 825.89L1384.76 802.828L1380.23 780.334L1429.15 721.546" stroke="#2222FF" stroke-linecap="round" stroke-linejoin="round"/></g><defs><clipPath id="clip0_3186_1920"><rect width="2285" height="1208" fill="white"/></clipPath></defs></svg>