<svg width="19" height="18" viewBox="0 0 19 18" fill="none" xmlns="http://www.w3.org/2000/svg">
<path fill-rule="evenodd" clip-rule="evenodd" d="M1.94459 0.86283C0.253928 2.04783 -0.0917429 2.80375 0.0187095 5.07373C0.096718 6.67668 0.187608 6.97182 0.818356 7.66757C1.61108 8.54233 2.75879 9.13458 3.66101 9.13458C4.00573 9.13458 4.36071 9.33638 4.5036 9.61344C4.85977 10.3042 4.80705 12.0169 4.40484 12.824C3.84995 13.9377 2.5021 15.0093 1.4169 15.1997C0.452885 15.3686 0.43213 15.3931 0.502982 16.277C0.571687 17.1303 0.627271 17.186 1.48322 17.2593C1.98228 17.3019 3.08132 17.0983 3.92581 16.8067C5.6754 16.2023 6.60864 15.2562 7.73583 12.9439C8.34152 11.7012 8.43218 11.2142 8.52498 8.69658C8.6526 5.23516 8.35465 3.71466 7.23843 2.13078C5.57831 -0.22462 4.02601 -0.596513 1.94459 0.86283ZM11.7424 2.02382C10.9898 2.8711 10.7109 3.41953 10.5833 4.30221C10.4342 5.33445 10.4921 5.57734 11.1016 6.47167C12.0773 7.90303 12.85 8.41432 14.3196 8.60027L15.6049 8.76319L15.6767 10.199C15.795 12.5584 14.5574 14.0915 11.788 15.0165C10.5072 15.4444 10.3492 15.5706 10.286 16.2174C10.177 17.3355 11.0224 18.1368 12.1463 17.9805C13.5077 17.7909 14.6187 17.1397 15.9713 15.738C17.4196 14.2373 18.1906 12.679 18.7324 10.1569C19.3822 7.13325 18.8173 3.68966 17.3764 1.89284C16.7965 1.1696 16.6515 1.12132 14.748 1.01758L12.7334 0.907893L11.7424 2.02382ZM5.57759 2.33381C6.22408 3.00505 6.42042 3.41235 6.42042 4.08334C6.42042 4.56442 6.53874 5.18762 6.68355 5.46815C7.03685 6.15375 6.60077 7.1538 5.94831 7.1538C5.68327 7.1538 5.46046 7.2932 5.4533 7.4633C5.44615 7.63365 5.25816 7.28057 5.03582 6.67915C4.81325 6.07749 4.50312 5.54119 4.34663 5.48697C4.19014 5.43299 3.83826 5.8138 3.56464 6.33326L3.06724 7.2776L3.22493 6.412C3.31177 5.93587 3.54889 5.18515 3.75167 4.74393C3.95444 4.30246 4.0501 3.86818 3.96398 3.77904C3.68845 3.49306 3.02049 4.27102 2.44866 5.54441C1.99015 6.56501 1.89211 6.66826 1.8902 6.13172C1.88471 4.63548 3.1505 2.69704 4.13264 2.69704C4.78868 2.69704 4.94446 2.25458 4.46424 1.75616C4.25073 1.53456 4.24858 1.45905 4.45637 1.45905C4.60928 1.45905 5.11383 1.85273 5.57759 2.33381ZM16.6317 3.27543C16.8504 3.90309 16.8542 4.30395 16.6472 4.94671C16.318 5.9683 15.9627 6.4328 15.9627 5.84153C15.9627 5.61003 15.8017 5.42061 15.6049 5.42061C15.4081 5.42061 15.2471 5.63429 15.2471 5.89551C15.2471 6.15672 15.1741 6.56798 15.0848 6.80964C14.9536 7.16395 14.8647 7.08447 14.623 6.39665C14.3446 5.60408 14.3122 5.58353 14.1611 6.10151C14.0717 6.40779 13.9037 6.6586 13.7878 6.6586C13.4326 6.6586 13.5526 5.82296 14.0543 4.80162C14.3167 4.2673 14.5314 3.78523 14.5314 3.73002C14.5314 3.6748 14.3167 3.68792 14.0543 3.75923C13.4698 3.91769 13.4617 3.82163 13.9946 3.06101C14.3148 2.60419 14.6376 2.4633 15.378 2.45711C16.259 2.45018 16.3692 2.52198 16.6317 3.27543ZM16.917 8.39179C16.917 8.66415 16.8757 8.88699 16.8256 8.88699C16.7753 8.88699 16.6779 8.66415 16.6092 8.39179C16.5408 8.11943 16.5818 7.89659 16.7008 7.89659C16.8196 7.89659 16.917 8.11943 16.917 8.39179ZM6.70263 9.18831C6.53158 9.36584 6.42042 9.38045 6.42042 9.22545C6.42042 9.08457 6.49198 8.89516 6.57953 8.80454C6.66685 8.71367 6.794 8.69708 6.86175 8.7674C6.9295 8.83771 6.85793 9.02713 6.70263 9.18831ZM6.91542 10.4407C6.90564 10.5395 6.89753 10.8774 6.89753 11.1919C6.89753 11.5063 6.75583 11.9649 6.5824 12.2107C6.2613 12.6666 6.25891 12.6408 6.4073 10.2901C6.41445 10.1765 6.53588 10.1237 6.67687 10.1725C6.81785 10.2213 6.92521 10.3419 6.91542 10.4407ZM12.8615 16.4387C12.1565 16.8569 11.9073 16.8938 11.9073 16.5799C11.9073 16.3793 12.4285 16.1926 13.2193 16.1099C13.3505 16.096 13.1895 16.2441 12.8615 16.4387Z" fill="#E6FC97"/>
</svg>
