<svg width="33" height="33" viewBox="0 0 33 33" fill="none" xmlns="http://www.w3.org/2000/svg"><circle cx="16.5" cy="16.5" r="16.5" fill="#EB722E"/><path d="M16.8126 17.0988C19.0489 17.0988 20.8614 15.2859 20.8614 13.0492C20.8614 10.8125 19.0489 9 16.8126 9C14.5755 9 12.7622 10.8125 12.7622 13.0492C12.7622 15.2859 14.5755 17.0988 16.8126 17.0988ZM16.8126 11.057C17.9126 11.057 18.8043 11.9488 18.8043 13.0492C18.8043 14.1496 17.9126 15.0413 16.8126 15.0413C15.7114 15.0413 14.82 14.1496 14.82 13.0492C14.82 11.9488 15.7114 11.057 16.8126 11.057ZM21.4797 17.5929C21.2516 17.1336 20.6184 16.7516 19.7766 17.4144C18.6387 18.3105 16.8125 18.3105 16.8125 18.3105C16.8125 18.3105 14.9852 18.3105 13.8473 17.4144C13.0059 16.7516 12.3731 17.1336 12.1446 17.5929C11.7454 18.3933 12.1958 18.7804 13.2122 19.4328C14.0802 19.9902 15.2731 20.1984 16.043 20.2762L15.4001 20.9191C14.4946 21.8242 13.6208 22.6988 13.0141 23.3055C12.6512 23.6679 12.6512 24.2559 13.0141 24.6184L13.1231 24.7281C13.486 25.0906 14.0735 25.0906 14.4364 24.7281L16.8223 22.3418C17.7286 23.2473 18.6024 24.1215 19.209 24.7281C19.5719 25.0906 20.1594 25.0906 20.5223 24.7281L20.6312 24.6184C20.9941 24.2555 20.9941 23.6679 20.6312 23.3051L18.2453 20.9192L17.6008 20.2742C18.3715 20.1945 19.5512 19.9855 20.4121 19.4328C21.4285 18.7804 21.8782 18.3933 21.4797 17.5929Z" fill="white"/></svg>