<svg width="33" height="33" viewBox="0 0 33 33" fill="none" xmlns="http://www.w3.org/2000/svg"><circle cx="16.5" cy="16.5" r="16.5" fill="#1B92D1"/><path d="M21.643 11.1168C19.5322 11.991 10.4816 15.7399 7.98089 16.7616C6.30381 17.4161 7.28559 18.0297 7.28559 18.0297C7.28559 18.0297 8.71718 18.5205 9.94445 18.8887C11.1715 19.2568 11.826 18.8478 11.826 18.8478L17.5935 14.9619C19.6387 13.5711 19.1479 14.7164 18.657 15.2074C17.5935 16.271 15.8346 17.9479 14.362 19.2978C13.7076 19.8705 14.0347 20.3613 14.3212 20.6067C15.3846 21.5067 18.289 23.3474 18.4525 23.4701C19.3166 24.0818 21.0163 24.9624 21.2748 23.1019L22.2974 16.68C22.6247 14.5121 22.9519 12.5077 22.9927 11.9351C23.1156 10.5441 21.643 11.1168 21.643 11.1168Z" fill="white"/></svg>