<svg width="71" height="71" viewBox="0 0 71 71" fill="none" xmlns="http://www.w3.org/2000/svg"><path d="M18.3225 53.8223C15.4729 55.9595 12.1803 56.7671 10.0985 57.0723C9.47798 57.1633 9.34639 58.0095 9.9105 58.2838C16.9043 61.6851 24.4074 61.2775 28.9551 60.5264C31.1857 60.1579 33.2097 61.8679 33.2097 64.1288V53.8223H18.3225Z" fill="#91C84B"/><path d="M52.6775 53.8223C55.5271 55.9595 58.8197 56.7671 60.9015 57.0723C61.522 57.1633 61.6536 58.0095 61.0895 58.2838C54.0957 61.6851 46.5926 61.2775 42.0449 60.5264C39.8143 60.1579 37.7903 61.8679 37.7903 64.1288V53.8223H52.6775Z" fill="#A0D755"/><path d="M48.0969 56.1127C60.7459 56.1127 70.9999 45.8587 70.9999 33.2097C70.9999 20.5607 60.7459 10.3066 48.0969 10.3066C35.4479 10.3066 25.1938 20.5607 25.1938 33.2097C25.1938 45.8587 35.4479 56.1127 48.0969 56.1127Z" fill="#E4EAF8"/><path d="M48.0968 10.3066C51.1816 10.3066 54.1195 10.9254 56.8054 12.031C60.3083 16.3215 62.4112 21.7996 62.4112 27.7704C62.4112 41.5264 51.2599 52.6777 37.504 52.6777C36.9961 52.6777 36.493 52.6577 35.9927 52.6278C29.516 48.5817 25.1934 41.4092 25.1934 33.21C25.1935 20.5607 35.4476 10.3066 48.0968 10.3066Z" fill="#D5DCED"/><path d="M22.903 56.1127C35.5521 56.1127 45.8061 45.8587 45.8061 33.2097C45.8061 20.5607 35.5521 10.3066 22.903 10.3066C10.254 10.3066 0 20.5607 0 33.2097C0 45.8587 10.254 56.1127 22.903 56.1127Z" fill="#D5DCED"/><path d="M22.9033 10.3066C19.8185 10.3066 16.8806 10.9254 14.1947 12.031C10.6918 16.3215 8.58887 21.7996 8.58887 27.7704C8.58887 41.5264 19.7402 52.6777 33.4961 52.6777C34.004 52.6777 34.5071 52.6577 35.0074 52.6278C41.4841 48.5817 45.8066 41.4092 45.8066 33.21C45.8066 20.5607 35.5525 10.3066 22.9033 10.3066Z" fill="#C7CFE2"/><path d="M35.5 48.0971C48.149 48.0971 58.403 37.8431 58.403 25.1941C58.403 12.5451 48.149 2.29102 35.5 2.29102C22.851 2.29102 12.5969 12.5451 12.5969 25.1941C12.5969 37.8431 22.851 48.0971 35.5 48.0971Z" fill="#E4EAF8"/><path d="M46.9518 41.2261C34.3027 41.2261 24.0486 30.9719 24.0486 18.3229C24.0486 12.4176 26.3027 7.05193 29.9729 2.99023C19.9991 5.46678 12.5969 14.4542 12.5969 25.1938C12.5969 37.8429 22.851 48.097 35.5001 48.097C42.2439 48.097 48.2877 45.1647 52.4791 40.5264C50.7056 40.9668 48.8611 41.2261 46.9518 41.2261Z" fill="#D5DCED"/><path d="M61.801 34.0348C61.8454 33.3219 60.9993 32.9179 60.4687 33.3962C58.3488 35.3067 55.1893 37.2891 46.9583 38.9353C40.8179 40.1634 37.973 44.0237 36.6527 47.3417C36.4684 47.8049 36.0053 48.0967 35.5067 48.0967C35.0082 48.0967 34.5451 47.805 34.3608 47.3417C33.0403 44.0237 30.1955 40.1634 24.0552 38.9353C15.8242 37.2891 12.6649 35.3067 10.545 33.3962C10.0143 32.9179 9.16824 33.3219 9.21262 34.0348C9.55458 39.527 12.0656 54.7529 29.3031 57.0077C31.5554 57.3024 33.2166 59.2663 33.2166 61.5377V67.5643C33.2166 67.868 33.3372 68.1592 33.552 68.374C33.7667 68.5888 34.058 68.7094 34.3617 68.7094H36.652C36.9557 68.7094 37.247 68.5888 37.4618 68.374C37.6765 68.1592 37.7972 67.868 37.7972 67.5643L37.7973 61.5377C37.7973 59.2663 39.4585 57.3023 41.7108 57.0077C58.948 54.7529 61.459 39.527 61.801 34.0348Z" fill="#B4E66E"/><path d="M46.9516 45.8062C54.9784 41.7928 60.3668 36.9009 61.5785 33.44C61.2997 33.1534 60.8181 33.0811 60.4687 33.3961C58.3488 35.3065 55.1892 37.289 46.9583 38.9353C40.8179 40.1634 37.9732 44.0237 36.6526 47.3417C36.4683 47.8049 36.0052 48.0967 35.5066 48.0967C35.0081 48.0967 34.5449 47.805 34.3607 47.3417C33.0402 44.0237 30.1954 40.1634 24.055 38.9353C15.8241 37.2891 12.6646 35.3067 10.5447 33.3962C10.014 32.9179 9.168 33.3219 9.21237 34.0348C9.55434 39.527 12.0655 54.7529 29.3029 57.0077C31.555 57.3023 33.2163 59.2663 33.2163 61.5377V67.5643C33.2163 67.868 33.337 68.1592 33.5517 68.374C33.7665 68.5888 34.0578 68.7094 34.3615 68.7094H35.5V59.5481C35.5 52.6771 39.1511 49.7065 46.9516 45.8062Z" fill="#A0D755"/><path d="M30.9195 52.6779C27.6192 50.4777 14.8123 51.4362 9.74829 33.2422C9.43503 33.3523 9.1882 33.6436 9.2126 34.0354C9.55457 39.5276 12.0658 54.7535 29.3031 57.0083C31.5553 57.3029 33.2166 59.2669 33.2166 61.5383C33.2164 58.4036 33.05 54.0983 30.9195 52.6779Z" fill="#91C84B"/></svg>