<svg width="80" height="80" viewBox="0 0 80 80" fill="none" xmlns="http://www.w3.org/2000/svg"><path d="M64.4937 49.6449L41.9131 79.0546L40 0C57.0464 0 70.8652 13.8188 70.8652 30.8652C70.8652 37.9317 68.4887 44.4422 64.4937 49.6449Z" fill="#CA3D44"/><path d="M66.0362 30.8652C66.0362 37.9317 64.056 44.4422 60.7274 49.6449L41.913 79.0546C41.4717 79.6285 40.78 80 40 80C39.2199 80 38.5282 79.6285 38.0869 79.0546L15.5063 49.6449C11.5113 44.4422 9.13477 37.9317 9.13477 30.8652C9.13477 13.8188 22.9535 0 40 0C54.3794 0 66.0362 13.8188 66.0362 30.8652Z" fill="#FF3A33"/><path d="M40 9.13477V52.5955C52.0013 52.5955 61.7304 42.8664 61.7304 30.8651C61.7304 18.8639 52.0013 9.13477 40 9.13477Z" fill="#D6F9FA"/><path d="M39.9999 9.13477C27.9986 9.13477 18.2695 18.8639 18.2695 30.8651C18.2695 42.8664 27.9986 52.5955 39.9999 52.5955C49.3343 52.5955 56.9013 42.8664 56.9013 30.8651C56.9013 18.8639 49.3343 9.13477 39.9999 9.13477Z" fill="white"/><path d="M28.7503 31.8349C26.9352 31.1915 25.0234 30.8635 23.0977 30.8652C23.0977 40.1987 30.663 47.7649 39.996 47.7666L28.7503 31.8349Z" fill="#BEE070"/><path d="M40.0007 47.7667C40.0006 40.4148 35.3062 34.1606 28.752 31.835C29.0871 40.7166 33.9932 47.7643 40.0007 47.7667Z" fill="#7ED65F"/><path d="M51.2491 31.8349L40.002 47.7666C49.3357 47.7658 56.9018 40.1992 56.9018 30.8652C54.976 30.8635 53.0642 31.1915 51.2491 31.8349Z" fill="#39AA59"/><path d="M51.2488 31.835C44.6946 34.1606 40.0002 40.4148 40 47.7662C46.0068 47.7654 50.9136 40.7174 51.2488 31.835Z" fill="#3DCC4E"/></svg>