<svg width="37" height="36" viewBox="0 0 37 36" fill="none" xmlns="http://www.w3.org/2000/svg"><g clip-path="url(#clip0_489_6308)"><ellipse cx="18.5001" cy="18" rx="17.4722" ry="17" fill="white"/><path fill-rule="evenodd" clip-rule="evenodd" d="M18.5 0C28.7173 0 37 8.05887 37 18C37 27.9411 28.7173 36 18.5 36C8.28273 36 0 27.9411 0 18C0 8.05887 8.28273 0 18.5 0ZM9.94621 24.4749H13.5202C13.6175 24.4749 13.7108 24.4373 13.7797 24.3703C13.8485 24.3033 13.8871 24.2125 13.8871 24.1178C13.8871 24.0231 13.8485 23.9323 13.7797 23.8653C13.7108 23.7984 13.6175 23.7608 13.5202 23.7608H9.57924C9.48196 23.7609 9.38869 23.7985 9.31992 23.8655C9.25114 23.9324 9.21248 24.0232 9.21242 24.1178V29.0687C9.21267 29.1633 9.25139 29.254 9.32012 29.3209C9.38885 29.3878 9.48201 29.4256 9.57924 29.4259H13.5202C13.6166 29.4245 13.7087 29.3863 13.7764 29.3195C13.8441 29.2527 13.8821 29.1626 13.8821 29.0688C13.8821 28.9749 13.8441 28.8848 13.7764 28.818C13.7087 28.7512 13.6166 28.713 13.5202 28.7117H9.94621V26.9501H13.5202C13.6166 26.9488 13.7087 26.9106 13.7764 26.8438C13.8441 26.777 13.8821 26.6869 13.8821 26.5931C13.8821 26.4992 13.8441 26.4091 13.7764 26.3423C13.7087 26.2755 13.6166 26.2373 13.5202 26.236H9.94621V24.4749ZM27.0536 26.5931C27.0535 26.1741 26.9258 25.7646 26.6866 25.4163C26.4473 25.0679 26.1073 24.7965 25.7094 24.6362C25.3116 24.4758 24.8739 24.4339 24.4516 24.5157C24.0292 24.5974 23.6413 24.7991 23.3368 25.0954C23.0324 25.3916 22.825 25.7691 22.741 26.18C22.657 26.5909 22.7001 27.0168 22.8648 27.4039C23.0296 27.791 23.3086 28.1218 23.6666 28.3546C24.0246 28.5874 24.4455 28.7116 24.8761 28.7117C25.4534 28.7111 26.0069 28.4877 26.4151 28.0905C26.8233 27.6933 27.0529 27.1548 27.0536 26.5931ZM21.9651 26.5931C21.9651 27.1534 22.1358 27.7011 22.4556 28.167C22.7755 28.6329 23.2302 28.996 23.7622 29.2104C24.2942 29.4249 24.8796 29.481 25.4444 29.3717C26.0092 29.2624 26.528 28.9926 26.9351 28.5965C27.3423 28.2003 27.6196 27.6955 27.7319 27.146C27.8443 26.5965 27.7866 26.0269 27.5662 25.5093C27.3458 24.9917 26.9726 24.5493 26.4937 24.238C26.0149 23.9268 25.452 23.7607 24.8761 23.7608C24.1044 23.7617 23.3645 24.0604 22.8188 24.5914C22.2731 25.1223 21.9661 25.8422 21.9651 26.5931ZM15.7487 26.5931C15.7488 26.1565 15.8875 25.7306 16.1459 25.3737C16.4042 25.0167 16.7696 24.7461 17.192 24.5989C17.6145 24.4517 18.0733 24.4351 18.5058 24.5513C18.9383 24.6675 19.3234 24.9109 19.6083 25.2482C19.6389 25.2844 19.6765 25.3144 19.719 25.3364C19.7615 25.3585 19.8081 25.3722 19.856 25.3768C19.904 25.3813 19.9524 25.3767 19.9985 25.363C20.0446 25.3494 20.0875 25.3271 20.1247 25.2973C20.1619 25.2676 20.1927 25.231 20.2154 25.1896C20.2381 25.1482 20.2522 25.1029 20.2569 25.0563C20.2616 25.0096 20.2568 24.9626 20.2427 24.9177C20.2287 24.8729 20.2058 24.8311 20.1752 24.7949C19.7943 24.3439 19.2794 24.0184 18.7011 23.863C18.1227 23.7076 17.5092 23.7298 16.9443 23.9267C16.3795 24.1235 15.891 24.4854 15.5456 24.9627C15.2002 25.44 15.0148 26.0095 15.0148 26.5933C15.0148 27.1771 15.2002 27.7466 15.5456 28.2239C15.891 28.7013 16.3795 29.0631 16.9443 29.26C17.5092 29.4568 18.1227 29.479 18.7011 29.3236C19.2794 29.1682 19.7943 28.8427 20.1752 28.3917C20.2356 28.3184 20.2638 28.2249 20.2539 28.1315C20.2439 28.0381 20.1966 27.9522 20.122 27.8925C20.0475 27.8328 19.9518 27.8041 19.8556 27.8126C19.7595 27.821 19.6706 27.866 19.6083 27.9378C19.3235 28.2752 18.9385 28.5188 18.5059 28.6351C18.0734 28.7514 17.6144 28.7349 17.1919 28.5877C16.7694 28.4405 16.404 28.1698 16.1456 27.8128C15.8873 27.4557 15.7486 27.0298 15.7487 26.5931ZM25.2148 19.7613C25.7377 19.221 26.1602 18.5965 26.4637 17.9156L20.192 18.934L19.0956 20.7818C20.7605 21.5752 23.2372 21.7439 25.2148 19.7613ZM11.7852 19.8984C13.766 21.884 16.2243 21.7209 17.9041 20.9187C17.1535 20.4029 16.5302 19.7312 16.0791 18.9522L16.0728 18.9515L10.5365 18.0526C10.84 18.7334 11.2625 19.358 11.7852 19.8984ZM10.189 7.91578C9.73801 9.315 9.47879 11.122 9.50972 12.9518L13.5687 13.6107L10.189 7.91578ZM15.6042 14.5583C15.9495 13.3777 16.7359 12.184 17.8848 11.0654C17.3756 10.6429 16.8394 10.2524 16.2793 9.89606L14.6794 14.0549L15.431 15.3217C15.4723 15.064 15.5304 14.8091 15.6042 14.5583ZM10.8239 7.55726L14.2035 13.2539L15.6455 9.50766C14.0846 8.595 12.3582 7.88822 10.8239 7.55726ZM9.53704 13.6802C9.61234 14.9337 9.82979 16.1738 10.221 17.2774L15.7087 18.1683C15.5229 17.6781 15.4095 17.1647 15.372 16.6435C15.3614 16.6303 15.3517 16.6164 15.3431 16.602L14.0437 14.4118L9.53704 13.6802ZM18.4597 20.4249L19.5559 18.577L17.3265 12.7832C16.8734 13.3783 16.5293 14.045 16.3096 14.7541C15.5313 17.4133 16.9206 19.4183 18.4597 20.4249ZM20.7186 9.75502C19.6406 10.4449 18.6456 11.2481 17.8591 12.1298L20.0313 17.7759L22.3205 13.9181L20.7186 9.75502ZM27.4902 12.8149C27.521 10.9849 27.2617 9.17838 26.8109 7.77895L23.4315 13.4738L27.4902 12.8149ZM22.796 13.1168L26.1755 7.42191C24.7043 7.74169 22.9669 8.42653 21.3534 9.36766L22.796 13.1168ZM26.7788 17.1405C27.17 16.0366 27.3874 14.7968 27.4625 13.5434L22.9562 14.275L20.6667 18.133L26.7788 17.1405ZM27.2301 6.79753C27.1995 6.72377 27.1444 6.66209 27.0736 6.6223C27.0028 6.58251 26.9204 6.5669 26.8394 6.57795C24.864 6.84654 22.3421 7.8506 20.257 9.19821C19.6117 9.61294 18.9979 10.0723 18.4204 10.5728C16.136 8.64626 12.77 7.0695 10.1604 6.71477C10.0794 6.70374 9.997 6.71936 9.9262 6.75915C9.8554 6.79893 9.8003 6.86061 9.76966 6.93436C9.02056 8.73436 8.65309 11.3621 8.81106 13.7933C8.99627 16.6541 9.86549 18.999 11.2588 20.3957C12.2922 21.4317 13.5776 22.044 14.9766 22.1676C15.1476 22.1821 15.3202 22.1897 15.4932 22.1897C16.5953 22.1841 17.6764 21.8949 18.6266 21.3516C19.5152 21.8077 20.5037 22.0482 21.5083 22.0529C21.6993 22.0529 21.8902 22.0435 22.0803 22.0248C23.4568 21.8905 24.7229 21.2799 25.7414 20.2589C27.1345 18.8622 28.0037 16.5172 28.1889 13.6565C28.3468 11.225 27.9792 8.59718 27.2301 6.79753Z" fill="#10C44C"/></g><defs><clipPath id="clip0_489_6308"><rect width="37" height="36" fill="white"/></clipPath></defs></svg>