<svg width="40" height="40" viewBox="0 0 40 40" fill="none" xmlns="http://www.w3.org/2000/svg"><path d="M20 0.5C30.7696 0.5 39.5 9.23045 39.5 20C39.5 30.7696 30.7696 39.5 20 39.5C9.23045 39.5 0.5 30.7696 0.5 20C0.5 9.23045 9.23045 0.5 20 0.5Z" fill="white" stroke="#E3E4E5"/><path fill-rule="evenodd" clip-rule="evenodd" d="M29.7874 20.2271C29.7874 19.518 29.7238 18.8362 29.6056 18.1816H20.1874V22.0498H25.5692C25.3374 23.2998 24.6328 24.3589 23.5737 25.068V27.5771H26.8056C28.6965 25.8362 29.7874 23.2726 29.7874 20.2271Z" fill="#4285F4"/><path fill-rule="evenodd" clip-rule="evenodd" d="M20.187 29.9999C22.887 29.9999 25.1506 29.1045 26.8052 27.5772L23.5734 25.0681C22.6779 25.6681 21.5325 26.0226 20.187 26.0226C17.5824 26.0226 15.3779 24.2635 14.5915 21.8999H11.2506V24.4908C12.8961 27.759 16.2779 29.9999 20.187 29.9999Z" fill="#34A853"/><path fill-rule="evenodd" clip-rule="evenodd" d="M14.5919 21.8997C14.3919 21.2997 14.2783 20.6588 14.2783 19.9997C14.2783 19.3406 14.3919 18.6997 14.5919 18.0997V15.5088H11.251C10.5737 16.8588 10.1874 18.3861 10.1874 19.9997C10.1874 21.6133 10.5737 23.1406 11.251 24.4906L14.5919 21.8997Z" fill="#FBBC05"/><path fill-rule="evenodd" clip-rule="evenodd" d="M20.187 13.9773C21.6552 13.9773 22.9734 14.4818 24.0097 15.4727L26.8779 12.6046C25.1461 10.9909 22.8825 10 20.187 10C16.2779 10 12.8961 12.2409 11.2506 15.5091L14.5915 18.1C15.3779 15.7364 17.5824 13.9773 20.187 13.9773Z" fill="#EA4335"/></svg>