<svg width="80" height="80" viewBox="0 0 80 80" fill="none" xmlns="http://www.w3.org/2000/svg"><g clip-path="url(#clip0_767_12639)"><path d="M7.05859 40C7.05859 58.1635 21.8354 72.9412 39.9998 72.9412L41.5684 40L39.9998 7.05884C21.8363 7.05884 7.05859 21.8356 7.05859 40Z" fill="#DFF1F9"/><path d="M72.9412 40C72.9412 21.8366 58.1644 7.05884 40 7.05884V72.9412C58.1633 72.9412 72.9412 58.1644 72.9412 40Z" fill="#C2E9F8"/><path d="M30.3157 34.6472C26.8495 40.1931 27.6106 47.4901 32.314 52.1934L37.647 57.5266L40.0003 42.353L41.5689 33.8824L40.0003 19.1519L30.3157 34.6472Z" fill="#23C53D"/><path d="M49.6846 34.6472C53.1507 40.1931 52.3896 47.4901 47.6863 52.1934L42.3531 57.5266L40 42.353V19.1519L49.6846 34.6472Z" fill="#20A133"/><path d="M37.6465 42.353V70.4977L38.822 72.134L39.9994 70.5883L41.5681 56.4707L39.9994 42.353H37.6465Z" fill="#A2E82E"/><path d="M42.3529 70.4977V42.353H40V70.5883L41.1776 72.134L42.3529 70.4977Z" fill="#23C53D"/><path d="M0 40C0 47.1583 1.86965 54.0078 5.34651 60.0072L10.3529 59.9344L13.5159 55.2907C10.8908 50.7614 9.41177 45.5346 9.41177 40C9.41177 23.1341 23.1332 9.41177 40 9.41177L42.3529 4.70588L40 0C18.0275 0 0 17.7584 0 40Z" fill="#A2E82E"/><path d="M70.5873 40C70.5873 45.2562 69.2477 50.5211 66.4831 55.2907L69.4108 59.8797L74.6525 60.0071C78.1292 54.008 79.999 47.1584 79.999 40C79.999 17.635 61.8403 0 39.999 0V9.41177C56.8649 9.41177 70.5873 23.1332 70.5873 40ZM13.515 55.2907L5.3457 60.0072C12.3852 72.1544 25.3539 80 39.999 80L41.5677 75.2941L39.999 70.5882C28.8754 70.5882 18.9023 64.5857 13.515 55.2907Z" fill="#23C53D"/><path d="M74.6535 60.0073L66.4841 55.2908C61.1075 64.5675 51.1445 70.5883 40 70.5883V80.0001C54.752 80.0001 67.6817 72.0373 74.6535 60.0073Z" fill="#20A133"/></g><defs><clipPath id="clip0_767_12639"><rect width="80" height="80" fill="white"/></clipPath></defs></svg>