<svg width="71" height="71" viewBox="0 0 71 71" fill="none" xmlns="http://www.w3.org/2000/svg"><path d="M60.8471 66.6835L56.3523 46.8898C56.2209 46.325 55.9017 45.8215 55.4469 45.4617C54.9921 45.102 54.4286 44.9072 53.8487 44.9094H41.2686C45.9371 38.9378 51.1813 30.9956 51.1813 25.5264C51.1813 15.6454 43.1364 7.60059 33.2554 7.60059C23.3744 7.60059 15.3186 15.6454 15.3186 25.5264C15.3186 31.0055 20.695 38.9378 25.4771 44.9094H12.8872C11.8102 44.9094 10.8959 45.6478 10.6501 46.7052L6.08427 66.7556C6.01197 67.0687 6.01228 67.3942 6.08517 67.7072C6.15806 68.0201 6.30161 68.3123 6.50481 68.5612C6.91552 69.0746 7.52066 69.3619 8.1673 69.3619H58.7018C59.2971 69.3619 59.8509 69.1161 60.2616 68.7054C60.2922 68.6748 60.3228 68.6442 60.3534 68.6027C60.3854 68.5805 60.4132 68.5528 60.4353 68.5208C60.846 67.9976 61 67.3203 60.846 66.6846L60.8471 66.6835ZM17.3711 25.5264C17.3711 16.7738 24.4918 9.65303 33.2554 9.65303C42.019 9.65303 49.1288 16.7738 49.1288 25.5264C49.1288 33.2633 36.6514 47.4753 33.4608 50.9838C30.1981 47.4949 17.3711 33.2633 17.3711 25.5264ZM12.6512 47.1563C12.6818 47.0438 12.7747 46.9619 12.8872 46.9619H26.8425C26.9452 46.9619 27.0271 46.9313 27.1199 46.9106C30.0648 50.4409 32.4766 52.9335 32.7322 53.2001C32.9278 53.3965 33.1934 53.5073 33.4706 53.5081C33.6091 53.5101 33.7465 53.4829 33.8738 53.4281C34.001 53.3733 34.1153 53.2923 34.209 53.1902C34.4657 52.9237 36.7847 50.4606 39.6367 46.9619H43.7001L44.0289 59.6447L33.0905 54.5862C33.0807 54.5862 33.0697 54.5862 33.0697 54.5764C32.9976 54.5556 32.9256 54.5458 32.8546 54.5349C32.7925 54.5106 32.7267 54.4969 32.6601 54.4944H32.6295L21.3012 54.8538H21.2914L10.8249 55.1924L12.6512 47.1585V47.1563ZM8.1673 67.3094L8.08538 67.2067L10.353 57.2536L20.9014 56.9248L31.4498 67.3094H8.16621H8.1673ZM34.3838 67.3094L23.7327 56.8331L32.4548 56.5556L55.7166 67.3094H34.3838ZM46.1119 60.6092L45.7525 46.9619H53.8487C54.0945 46.9619 54.2998 47.1257 54.3512 47.3518L58.6811 66.417L46.1119 60.6092Z" fill="#F6F4EF"/><path d="M31.4487 67.3093H8.16615L8.08423 67.2066L10.3519 57.2535L20.9003 56.9258L31.4487 67.3093Z" fill="#4FBDE5"/><path d="M22.317 58.3207L11.501 58.762L9.56212 67.3093H8.16615L8.08423 67.2066L10.3519 57.2535L20.9003 56.9258L22.317 58.3207Z" fill="#27A8C6"/><path d="M43.9982 59.6348V59.5736L43.7 48.6658H38.2209C38.6721 48.1317 39.1439 47.568 39.6366 46.9629H43.7L44.0287 59.6457L43.9982 59.6348Z" fill="#49BC8F"/><path d="M12.5485 48.8914L12.6512 48.461C12.6719 48.3998 12.4666 48.5429 12.3027 48.6871L12.6512 47.1579C12.6818 47.0454 12.7746 46.9634 12.8871 46.9634H26.8424C26.9451 46.9634 27.027 46.9329 27.1199 46.9121C27.6125 47.5074 28.0942 48.0721 28.5563 48.5954L12.5496 48.8925L12.5485 48.8914Z" fill="#35A573"/><path d="M43.9983 59.5727V59.6339L33.5624 54.8015L33.0906 54.5863C33.0807 54.5863 33.0698 54.5863 33.0698 54.5765C32.9977 54.5558 32.9256 54.5459 32.8546 54.535C32.8142 54.5252 32.7727 54.5044 32.7312 54.5044C32.7104 54.4946 32.6798 54.4946 32.6591 54.4946H32.6285L21.3002 54.854H21.2904L11.1221 55.1827L10.825 55.1926L12.2515 48.9031L12.3028 48.6879C12.4667 48.5437 12.672 48.4006 12.6513 48.4618L12.5486 48.8921L28.5553 48.595C28.7508 48.831 28.9354 49.0462 29.1298 49.2624C31.1004 51.5093 32.5368 52.997 32.7312 53.2024C32.9268 53.3988 33.1924 53.5096 33.4696 53.5104C33.6081 53.5125 33.7455 53.4852 33.8728 53.4304C34 53.3756 34.1143 53.2946 34.208 53.1926C34.2899 53.1106 34.5881 52.7928 35.0491 52.2892C35.7678 51.4995 36.8962 50.2368 38.22 48.6671H43.699L43.9972 59.5749L43.9983 59.5727Z" fill="#49BC8F"/><path d="M43.7625 49.4763L37.9241 49.0252C38.4582 48.3894 39.0328 47.7013 39.6379 46.9629H43.7013L43.7625 49.4763Z" fill="#35A573"/><path d="M12.6512 48.4609L12.5486 48.8913L12.2515 48.9011H12.128C12.0767 48.9011 12.1794 48.7984 12.3028 48.6859C12.4666 48.5417 12.672 48.3987 12.6512 48.4598V48.4609ZM29.0064 48.5833H29.2423C29.164 48.5931 29.0847 48.5931 29.0064 48.5833Z" fill="#49BC8F"/><path d="M55.7165 67.3094H34.3838L23.7327 56.8331L32.4547 56.5557L55.7165 67.3094Z" fill="#4FBDE5"/><path d="M55.7165 67.3094H51.273L32.4547 58.6081L25.7545 58.8233L23.7327 56.8331L32.4547 56.5557L55.7165 67.3094Z" fill="#27A8C6"/><path d="M58.6821 66.417L46.1118 60.6092L45.7524 46.9619H53.8486C54.0944 46.9619 54.2997 47.1258 54.3511 47.3519L58.6821 66.417Z" fill="#FFDC7C"/><path d="M58.6822 66.4169L56.9793 65.6272L53.0284 48.2453C53.0014 48.1329 52.9369 48.033 52.8456 47.9621C52.7543 47.8913 52.6416 47.8536 52.526 47.8553H45.7744L45.7537 46.9629H53.8498C54.0956 46.9629 54.301 47.1267 54.3523 47.3528L58.6822 66.4169Z" fill="#E2BB62"/><path d="M33.2545 9.65332C24.492 9.65332 17.3701 16.7741 17.3701 25.5267C17.3701 33.2636 30.196 47.4952 33.4598 50.9841C36.6504 47.4745 49.1279 33.2636 49.1279 25.5267C49.1279 16.7741 42.0071 9.65332 33.2545 9.65332ZM33.2545 31.0778C28.729 31.0778 25.0556 27.3946 25.0556 22.879C25.0556 18.3634 28.729 14.691 33.2545 14.691C37.7799 14.691 41.4424 18.3645 41.4424 22.879C41.4424 27.3935 37.769 31.0778 33.2545 31.0778Z" fill="#F37974"/><path d="M49.129 25.5268C49.129 33.2636 36.6515 47.4756 33.4609 50.9841C32.6094 50.0729 31.7712 49.1495 30.9464 48.214C35.8105 42.3964 42.9924 32.8015 42.9924 26.9326C42.9924 18.1799 35.8716 11.0592 27.108 11.0592C26.9748 11.0592 26.8415 11.0592 26.7083 11.069C28.763 10.1313 30.9959 9.64844 33.2545 9.65336C42.0071 9.65336 49.129 16.7741 49.129 25.5268Z" fill="#E26D6D"/><path d="M49.1288 25.5267C49.1288 33.2636 36.6514 47.4756 33.4608 50.9841C33.1208 50.6291 32.789 50.2663 32.4657 49.8961C37.0108 44.6935 46.492 33.0265 46.492 26.2859C46.492 17.5332 39.3712 10.4125 30.6186 10.4125C29.5722 10.4125 28.5454 10.5152 27.5503 10.7205C29.3693 10.0137 31.3039 9.65177 33.2554 9.65333C42.0081 9.65333 49.1288 16.7741 49.1288 25.5267Z" fill="#D36767"/><path d="M33.2543 14.6904C28.7289 14.6904 25.0554 18.3639 25.0554 22.8784C25.0554 27.3929 28.7289 31.0772 33.2543 31.0772C37.7797 31.0772 41.4422 27.394 41.4422 22.8784C41.4422 18.3628 37.7688 14.6904 33.2543 14.6904ZM33.2543 29.0248C29.8681 29.0248 27.1079 26.2645 27.1079 22.8784C27.1079 19.4922 29.8681 16.7429 33.2543 16.7429C36.6404 16.7429 39.3909 19.4922 39.3909 22.8784C39.3909 26.2645 36.6404 29.0248 33.2543 29.0248Z" fill="#F6F4EF"/><path d="M39.3909 22.8796C39.3909 26.2658 36.6405 29.026 33.2543 29.026C29.8682 29.026 27.1079 26.2658 27.1079 22.8796C27.1079 19.4935 29.8682 16.7441 33.2543 16.7441C36.6405 16.7441 39.3909 19.4935 39.3909 22.8796Z" fill="#FFDC7C"/><path d="M39.3908 22.8799C39.3908 26.266 36.6404 29.0263 33.2542 29.0263C32.5914 29.0259 31.933 28.9186 31.3044 28.7084C33.7468 27.8979 35.5011 25.5888 35.5011 22.8799C35.5011 20.171 33.7468 17.8727 31.3044 17.0623C32.2271 16.7536 33.2099 16.6686 34.1719 16.8144C35.1338 16.9602 36.0473 17.3325 36.8371 17.9007C37.6269 18.4689 38.2703 19.2167 38.7143 20.0824C39.1583 20.9481 39.3902 21.907 39.3908 22.8799Z" fill="#E2BB62"/></svg>