<svg width="32" height="38" viewBox="0 0 32 38" fill="none" xmlns="http://www.w3.org/2000/svg"><g clip-path="url(#clip0_741_14992)"><path d="M8.88889 5.27783H3.55556C2.61256 5.27783 1.70819 5.72267 1.0414 6.51449C0.374602 7.30631 0 8.38025 0 9.50005L0 15.8334H8.88889V5.27783ZM28.4444 5.27783H14.2222V15.8334H32V9.50005C32 8.38025 31.6254 7.30631 30.9586 6.51449C30.2918 5.72267 29.3874 5.27783 28.4444 5.27783ZM8.88889 32.7223H3.55556C2.61256 32.7223 1.70819 32.2774 1.0414 31.4856C0.374602 30.6938 0 29.6199 0 28.5001V22.1667H8.88889V32.7223ZM28.4444 32.7223H14.2222V22.1667H32V28.5001C32 29.6199 31.6254 30.6938 30.9586 31.4856C30.2918 32.2774 29.3874 32.7223 28.4444 32.7223Z" fill="#EF2B2D"/><path d="M12.8889 5.27783H10.272L10.2498 17.4167H0V20.5834H10.2444L10.2222 32.7223H12.8889V20.5834H32V17.4167H12.8889V5.27783Z" fill="#002868"/><path d="M12.8889 32.7223H14.2222V22.1667H32V20.5834H12.8889V32.7223ZM14.2222 5.27783H12.8889V17.4167H32V15.8334H14.2222V5.27783ZM10.2222 5.27783H8.88889V15.8334H0V17.4167H10.2222V5.27783ZM0 20.5834V22.1667H8.88889V32.7223H10.2222V20.5834H0Z" fill="#EEEEEE"/></g><defs><clipPath id="clip0_741_14992"><rect width="32" height="38" fill="white"/></clipPath></defs></svg>