<svg width="36" height="36" viewBox="0 0 36 36" fill="none" xmlns="http://www.w3.org/2000/svg"><path d="M18 36C27.9411 36 36 27.9411 36 18C36 8.05887 27.9411 0 18 0C8.05887 0 0 8.05887 0 18C0 27.9411 8.05887 36 18 36Z" fill="#F0F0F0"/><path d="M0.620117 22.6957C1.66159 26.56 3.95694 29.9093 7.04352 32.2808V22.6957H0.620117ZM16.4348 35.9315C16.9553 35.9768 17.4775 35.9996 18 36C26.3165 36 33.3144 30.3595 35.3799 22.6957H16.4348V35.9315ZM35.3799 13.3043C33.3144 5.64054 26.3165 0 18 0C17.4725 0 16.9508 0.0240469 16.4348 0.0684844V13.3043H35.3799ZM7.04352 3.71918C3.95694 6.09082 1.66159 9.44002 0.620117 13.3043H7.04352V3.71918Z" fill="#D80027"/><path d="M35.8476 15.6521H14.087V0.427734C12.4468 0.791114 10.866 1.38387 9.39129 2.1885V15.652H0.152367C0.0521719 16.4206 0 17.2042 0 17.9999C0 18.7956 0.0521719 19.5792 0.152367 20.3477H9.39129V33.8112C10.866 34.6158 12.4468 35.2086 14.087 35.572V20.3478H35.8476C35.9477 19.5792 36 18.7956 36 17.9999C36 17.2042 35.9477 16.4206 35.8476 15.6521Z" fill="#0052B4"/></svg>