<svg width="71" height="71" viewBox="0 0 71 71" fill="none" xmlns="http://www.w3.org/2000/svg"><path d="M38.8281 4.4375H52.1406V14.4219H38.8281V4.4375Z" fill="#D9405A"/><path d="M38.8281 4.4375H41.0469V14.4219H38.8281V4.4375Z" fill="#CD284B"/><path d="M47.8473 23.0343L49.8997 22.1934L64.5989 58.0706L62.5466 58.9115L47.8473 23.0343ZM11.8381 60.438L27.1919 27.363L29.2032 28.2971L13.8505 61.372L11.8381 60.438Z" fill="#915A41"/><path d="M64.3438 58.7969C64.0495 58.7969 63.7674 58.68 63.5593 58.4719C63.3513 58.2639 63.2344 57.9817 63.2344 57.6875V52.6953C63.2344 51.6655 63.6435 50.6779 64.3716 49.9498C65.0998 49.2216 66.0874 48.8125 67.1172 48.8125C68.147 48.8125 69.1346 49.2216 69.8627 49.9498C70.5909 50.6779 71 51.6655 71 52.6953V53.25C71 53.5442 70.8831 53.8264 70.6751 54.0344C70.467 54.2425 70.1848 54.3594 69.8906 54.3594C69.5964 54.3594 69.3142 54.2425 69.1062 54.0344C68.8981 53.8264 68.7812 53.5442 68.7812 53.25V52.6953C68.7812 52.254 68.6059 51.8307 68.2939 51.5186C67.9818 51.2066 67.5585 51.0312 67.1172 51.0312C66.6759 51.0312 66.2526 51.2066 65.9405 51.5186C65.6284 51.8307 65.4531 52.254 65.4531 52.6953V57.6875C65.4531 57.9817 65.3362 58.2639 65.1282 58.4719C64.9201 58.68 64.638 58.7969 64.3438 58.7969Z" fill="#CB765E"/><path d="M34.3906 4.4375V59.9062H38.8281V4.4375C38.8281 3.84905 38.5944 3.2847 38.1783 2.86861C37.7622 2.45251 37.1978 2.21875 36.6094 2.21875C36.0209 2.21875 35.4566 2.45251 35.0405 2.86861C34.6244 3.2847 34.3906 3.84905 34.3906 4.4375Z" fill="#A16950"/><path d="M36.6094 6.65625V59.9062H38.8281V4.4375C38.2397 4.4375 37.6753 4.67126 37.2592 5.08736C36.8431 5.50345 36.6094 6.0678 36.6094 6.65625Z" fill="#915A41"/><path d="M8.875 38.8281H17.75V41.0469C17.75 41.6353 17.5162 42.1997 17.1001 42.6158C16.684 43.0319 16.1197 43.2656 15.5312 43.2656H8.875V38.8281Z" fill="#BC6351"/><path d="M65.9634 57.2992L64.3438 53.25C63.6976 55.1883 62.458 56.8742 60.8004 58.0689C59.1428 59.2635 57.1514 59.9063 55.1082 59.9062H19.4973C18.7019 59.9064 17.9328 59.6218 17.3292 59.1039C16.7256 58.586 16.3275 57.869 16.2069 57.0829L13.8217 41.5428C13.6786 40.7797 13.2733 40.0908 12.6758 39.595C12.0784 39.0993 11.3265 38.828 10.5502 38.8281H7.76562C6.88295 38.8281 6.03643 39.1788 5.41229 39.8029C4.78814 40.4271 4.4375 41.2736 4.4375 42.1562V43.2656H3.32812C2.73968 43.2656 2.17533 43.4994 1.75923 43.9155C1.34314 44.3316 1.10938 44.8959 1.10938 45.4844C1.10938 46.0728 1.34314 46.6372 1.75923 47.0533C2.17533 47.4694 2.73968 47.7031 3.32812 47.7031H6.65625V53.25L4.4375 56.9398C3.71019 58.1554 3.32674 59.5458 3.32812 60.9624C3.32798 61.9892 3.53012 63.006 3.923 63.9547C4.31589 64.9034 4.89182 65.7654 5.6179 66.4915C6.34397 67.2176 7.20598 67.7935 8.15467 68.1864C9.10337 68.5793 10.1202 68.7814 11.147 68.7812H58.19C60.4106 68.7812 62.5401 67.8992 64.1103 66.329C65.6804 64.7589 66.5625 62.6293 66.5625 60.4088C66.5626 59.3436 66.3592 58.2882 65.9634 57.2992Z" fill="#DA856D"/><path d="M65.9635 57.2992L64.3438 53.25C63.6977 55.1883 62.458 56.8742 60.8005 58.0689C59.1429 59.2635 57.1515 59.9063 55.1083 59.9062H19.4973C18.702 59.9064 17.9329 59.6218 17.3293 59.1039C16.7257 58.586 16.3276 57.869 16.2069 57.0829L13.7552 41.1079L13.682 41.0469H9.98445C9.396 41.0469 8.83165 41.2806 8.41556 41.6967C7.99946 42.1128 7.7657 42.6772 7.7657 43.2656V44.375H6.13159C5.69025 44.375 5.26699 44.5503 4.95492 44.8624C4.64285 45.1745 4.46753 45.5977 4.46753 46.0391C4.46753 46.4804 4.64285 46.9037 4.95492 47.2157C5.26699 47.5278 5.69025 47.7031 6.13159 47.7031H9.98445V53.25L7.85667 56.8C7.3122 57.6787 6.94021 58.6531 6.76061 59.6711C6.57393 60.7916 6.6335 61.9394 6.93518 63.0347C7.23685 64.1299 7.7734 65.1463 8.50754 66.0132C9.24167 66.8802 10.1558 67.5769 11.1863 68.0549C12.2169 68.5329 13.3392 68.7807 14.4752 68.7812H58.1901C60.4106 68.7812 62.5402 67.8992 64.1103 66.329C65.6805 64.7589 66.5626 62.6293 66.5626 60.4088C66.5627 59.3436 66.3593 58.2882 65.9635 57.2992Z" fill="#CB765E"/><path d="M23.2969 64.3438C25.7476 64.3438 27.7344 62.357 27.7344 59.9062C27.7344 57.4555 25.7476 55.4688 23.2969 55.4688C20.8461 55.4688 18.8594 57.4555 18.8594 59.9062C18.8594 62.357 20.8461 64.3438 23.2969 64.3438Z" fill="#727171"/><path d="M41.0469 64.3438C43.4976 64.3438 45.4844 62.357 45.4844 59.9062C45.4844 57.4555 43.4976 55.4688 41.0469 55.4688C38.5961 55.4688 36.6094 57.4555 36.6094 59.9062C36.6094 62.357 38.5961 64.3438 41.0469 64.3438Z" fill="#727171"/><path d="M49.9219 64.3438C52.3726 64.3438 54.3594 62.357 54.3594 59.9062C54.3594 57.4555 52.3726 55.4688 49.9219 55.4688C47.4711 55.4688 45.4844 57.4555 45.4844 59.9062C45.4844 62.357 47.4711 64.3438 49.9219 64.3438Z" fill="#727171"/><path d="M49.9219 61.0156C50.5346 61.0156 51.0312 60.5189 51.0312 59.9062C51.0312 59.2936 50.5346 58.7969 49.9219 58.7969C49.3092 58.7969 48.8125 59.2936 48.8125 59.9062C48.8125 60.5189 49.3092 61.0156 49.9219 61.0156Z" fill="#E8E1DF"/><path d="M26.625 22.1875H34.3906C28.474 28.8438 28.474 35.5 34.3906 42.1562H26.625C20.7083 35.5 20.7083 28.8438 26.625 22.1875Z" fill="#F6F3F2"/><path d="M32.65 24.4062H27.1031C23.0125 30.3229 23.5927 36.2396 28.8437 42.1562H34.3906C29.1314 36.2396 28.5512 30.3229 32.65 24.4062Z" fill="#E8E1DF"/><path d="M34.3906 22.1875H42.1562C36.2396 28.8438 36.2396 35.5 42.1562 42.1562H34.3906C28.474 35.5 28.474 28.8438 34.3906 22.1875Z" fill="#E8E1DF"/><path d="M42.1562 22.1875H49.9219C44.0052 28.8438 44.0052 35.5 49.9219 42.1562H42.1562C36.2396 35.5 36.2396 28.8438 42.1562 22.1875Z" fill="#F6F3F2"/><path d="M23.2969 61.0156C23.9096 61.0156 24.4062 60.5189 24.4062 59.9062C24.4062 59.2936 23.9096 58.7969 23.2969 58.7969C22.6842 58.7969 22.1875 59.2936 22.1875 59.9062C22.1875 60.5189 22.6842 61.0156 23.2969 61.0156Z" fill="#E8E1DF"/><path d="M32.1719 64.3438C34.6226 64.3438 36.6094 62.357 36.6094 59.9062C36.6094 57.4555 34.6226 55.4688 32.1719 55.4688C29.7211 55.4688 27.7344 57.4555 27.7344 59.9062C27.7344 62.357 29.7211 64.3438 32.1719 64.3438Z" fill="#727171"/><path d="M41.0469 61.0156C41.6596 61.0156 42.1562 60.5189 42.1562 59.9062C42.1562 59.2936 41.6596 58.7969 41.0469 58.7969C40.4342 58.7969 39.9375 59.2936 39.9375 59.9062C39.9375 60.5189 40.4342 61.0156 41.0469 61.0156Z" fill="#E8E1DF"/><path d="M32.1719 61.0156C32.7846 61.0156 33.2812 60.5189 33.2812 59.9062C33.2812 59.2936 32.7846 58.7969 32.1719 58.7969C31.5592 58.7969 31.0625 59.2936 31.0625 59.9062C31.0625 60.5189 31.5592 61.0156 32.1719 61.0156Z" fill="#E8E1DF"/><path d="M40.4156 24.4062H32.65C28.5594 30.3229 29.1396 36.2396 34.3906 42.1562H42.1562C36.8971 36.2396 36.3169 30.3229 40.4156 24.4062Z" fill="#D6CFCE"/><path d="M48.1813 24.4062H40.4156C36.325 30.3229 36.9052 36.2396 42.1562 42.1562H49.9219C44.6627 36.2396 44.0825 30.3229 48.1813 24.4062Z" fill="#E8E1DF"/></svg>