<svg xmlns="http://www.w3.org/2000/svg"><symbol id="menu" viewBox="0 0 30 30" fill="none"><path d="M11.25 0H2.8125C1.26187 0 0 1.26187 0 2.8125V11.25C0 12.8006 1.26187 14.0625 2.8125 14.0625H11.25C12.8006 14.0625 14.0625 12.8006 14.0625 11.25V2.8125C14.0625 1.26187 12.8006 0 11.25 0ZM12.1875 11.25C12.1875 11.7666 11.7675 12.1875 11.25 12.1875H2.8125C2.295 12.1875 1.875 11.7666 1.875 11.25V2.8125C1.875 2.29594 2.295 1.875 2.8125 1.875H11.25C11.7675 1.875 12.1875 2.29594 12.1875 2.8125V11.25ZM27.1875 0H18.75C17.1994 0 15.9375 1.26187 15.9375 2.8125V11.25C15.9375 12.8006 17.1994 14.0625 18.75 14.0625H27.1875C28.7381 14.0625 30 12.8006 30 11.25V2.8125C30 1.26187 28.7381 0 27.1875 0ZM28.125 11.25C28.125 11.7666 27.705 12.1875 27.1875 12.1875H18.75C18.2325 12.1875 17.8125 11.7666 17.8125 11.25V2.8125C17.8125 2.29594 18.2325 1.875 18.75 1.875H27.1875C27.705 1.875 28.125 2.29594 28.125 2.8125V11.25ZM27.1875 15.9375H18.75C17.1994 15.9375 15.9375 17.1994 15.9375 18.75V27.1875C15.9375 28.7381 17.1994 30 18.75 30H27.1875C28.7381 30 30 28.7381 30 27.1875V18.75C30 17.1994 28.7381 15.9375 27.1875 15.9375ZM28.125 27.1875C28.125 27.7041 27.705 28.125 27.1875 28.125H18.75C18.2325 28.125 17.8125 27.7041 17.8125 27.1875V18.75C17.8125 18.2334 18.2325 17.8125 18.75 17.8125H27.1875C27.705 17.8125 28.125 18.2334 28.125 18.75V27.1875ZM11.25 15.9375H2.8125C1.26187 15.9375 0 17.1994 0 18.75V27.1875C0 28.7381 1.26187 30 2.8125 30H11.25C12.8006 30 14.0625 28.7381 14.0625 27.1875V18.75C14.0625 17.1994 12.8006 15.9375 11.25 15.9375ZM12.1875 27.1875C12.1875 27.7041 11.7675 28.125 11.25 28.125H2.8125C2.295 28.125 1.875 27.7041 1.875 27.1875V18.75C1.875 18.2334 2.295 17.8125 2.8125 17.8125H11.25C11.7675 17.8125 12.1875 18.2334 12.1875 18.75V27.1875Z" fill="currentColor"/></symbol><symbol id="search" viewBox="0 0 30 30" fill="none"><path d="M13.75 23.75C19.2728 23.75 23.75 19.2728 23.75 13.75C23.75 8.22715 19.2728 3.75 13.75 3.75C8.22715 3.75 3.75 8.22715 3.75 13.75C3.75 19.2728 8.22715 23.75 13.75 23.75Z" stroke="currentColor" stroke-width="3" stroke-linecap="round" stroke-linejoin="round"/><path d="M26.25 26.25L20.8125 20.8125" stroke="currentColor" stroke-width="3" stroke-linecap="round" stroke-linejoin="round"/></symbol><symbol id="heart" viewBox="0 0 24 24" fill="none"><path d="M20.8401 4.60987C20.3294 4.09888 19.7229 3.69352 19.0555 3.41696C18.388 3.14039 17.6726 2.99805 16.9501 2.99805C16.2276 2.99805 15.5122 3.14039 14.8448 3.41696C14.1773 3.69352 13.5709 4.09888 13.0601 4.60987L12.0001 5.66987L10.9401 4.60987C9.90843 3.57818 8.50915 2.99858 7.05012 2.99858C5.59109 2.99858 4.19181 3.57818 3.16012 4.60987C2.12843 5.64156 1.54883 7.04084 1.54883 8.49987C1.54883 9.95891 2.12843 11.3582 3.16012 12.3899L4.22012 13.4499L12.0001 21.2299L19.7801 13.4499L20.8401 12.3899C21.3511 11.8791 21.7565 11.2727 22.033 10.6052C22.3096 9.93777 22.4519 9.22236 22.4519 8.49987C22.4519 7.77738 22.3096 7.06198 22.033 6.39452C21.7565 5.72706 21.3511 5.12063 20.8401 4.60987Z" stroke="currentColor" stroke-width="2" stroke-linecap="round" stroke-linejoin="round"/></symbol><symbol id="user" viewBox="0 0 24 24" fill="none"><path d="M20 21V19C20 17.9391 19.5786 16.9217 18.8284 16.1716C18.0783 15.4214 17.0609 15 16 15H8C6.93913 15 5.92172 15.4214 5.17157 16.1716C4.42143 16.9217 4 17.9391 4 19V21" stroke="currentColor" stroke-width="2" stroke-linecap="round" stroke-linejoin="round"/><path d="M12 11C14.2091 11 16 9.20914 16 7C16 4.79086 14.2091 3 12 3C9.79086 3 8 4.79086 8 7C8 9.20914 9.79086 11 12 11Z" stroke="currentColor" stroke-width="2" stroke-linecap="round" stroke-linejoin="round"/></symbol><symbol id="shopping-bag" viewBox="0 0 24 24" fill="none"><path d="M6 2L3 6V20C3 20.5304 3.21071 21.0391 3.58579 21.4142C3.96086 21.7893 4.46957 22 5 22H19C19.5304 22 20.0391 21.7893 20.4142 21.4142C20.7893 21.0391 21 20.5304 21 20V6L18 2H6Z" stroke="currentColor" stroke-width="2" stroke-linecap="round" stroke-linejoin="round"/><path d="M3 6H21" stroke="currentColor" stroke-width="2" stroke-linecap="round" stroke-linejoin="round"/><path d="M16 10C16 11.0609 15.5786 12.0783 14.8284 12.8284C14.0783 13.5786 13.0609 14 12 14C10.9391 14 9.92172 13.5786 9.17157 12.8284C8.42143 12.0783 8 11.0609 8 10" stroke="currentColor" stroke-width="2" stroke-linecap="round" stroke-linejoin="round"/></symbol><symbol id="flame" viewBox="0 0 12 12" fill="none"><path d="M5.99981 12C5.09806 11.9999 4.21713 11.7479 3.47124 11.2765C2.72535 10.8051 2.14891 10.1362 1.81664 9.35639C1.48437 8.57661 1.41161 7.72196 1.60779 6.90325C1.80397 6.08455 2.26004 5.33954 2.91688 4.76484C3.72211 4.05991 5.6998 2.7907 5.39978 0C8.99994 2.23256 10.8 4.46512 7.19986 7.81395C7.79989 7.81395 8.69992 7.81395 10.2 6.43535C10.362 6.86679 10.5 7.33061 10.5 7.81395C10.5 8.92416 10.0259 9.9889 9.18192 10.7739C8.33798 11.559 7.19333 12 5.99981 12Z" fill="currentColor"/></symbol><symbol id="discount" viewBox="0 0 12 12" fill="none"><path d="M1.24789 8.49589C1.24789 9.07189 1.48789 9.64789 1.91989 10.0799C2.35189 10.5119 2.92789 10.7519 3.50389 10.7519C3.83989 10.7519 4.17589 10.8959 4.41589 11.1359C4.84789 11.5679 5.37589 11.8079 5.99989 11.8079C6.62389 11.8079 7.15189 11.5679 7.58389 11.1359C7.82389 10.8959 8.15989 10.7519 8.49589 10.7519C9.07189 10.7519 9.64789 10.5119 10.0799 10.0799C10.5119 9.64789 10.7519 9.11989 10.7519 8.49589C10.7519 8.15989 10.8959 7.82389 11.1359 7.58389C11.5679 7.15189 11.8079 6.62389 11.8079 5.99989C11.8079 5.37589 11.5679 4.84789 11.1359 4.41589C10.8959 4.17589 10.7519 3.83989 10.7519 3.50389C10.7519 2.92789 10.5119 2.35189 10.0799 1.91989C9.64789 1.48789 9.07189 1.24789 8.49589 1.24789C8.15989 1.24789 7.82389 1.10389 7.58389 0.863895C7.15189 0.431895 6.57589 0.191895 5.99989 0.191895C5.42389 0.191895 4.84789 0.431895 4.41589 0.863895C4.17589 1.15189 3.83989 1.24789 3.50389 1.24789C2.92789 1.24789 2.35189 1.48789 1.91989 1.91989C1.48789 2.35189 1.24789 2.92789 1.24789 3.50389C1.24789 3.83989 1.10389 4.17589 0.863895 4.41589C0.431895 4.84789 0.191895 5.37589 0.191895 5.99989C0.191895 6.62389 0.431895 7.15189 0.863895 7.58389C1.15189 7.82389 1.24789 8.15989 1.24789 8.49589ZM7.58389 6.33589C8.06389 6.19189 8.63989 6.43189 8.78389 6.95989C8.92789 7.43989 8.68789 7.96789 8.15989 8.15989C7.67989 8.30389 7.15189 8.06389 6.95989 7.53589C6.81589 7.05589 7.10389 6.47989 7.58389 6.33589ZM6.57589 3.79189C6.71989 3.55189 7.00789 3.50389 7.19989 3.59989C7.43989 3.74389 7.53589 4.03189 7.39189 4.22389L5.47189 7.91989C5.32789 8.15989 5.03989 8.25589 4.79989 8.11189C4.55989 7.96789 4.46389 7.67989 4.60789 7.48789L6.57589 3.79189ZM3.88789 3.74389C4.36789 3.59989 4.8959 3.83989 5.08789 4.36789C5.23189 4.84789 4.99189 5.37589 4.46389 5.56789C3.98389 5.71189 3.45589 5.47189 3.26389 4.94389C3.11989 4.46389 3.40789 3.93589 3.88789 3.74389Z" fill="currentColor"/></symbol><symbol id="linkedin" viewBox="0 0 30 30" fill="none"><rect width="30" height="30" rx="15" fill="currentColor"/><path d="M21 15.5583V19.6951H18.5785V15.8105C18.5785 14.852 18.2253 14.1962 17.3677 14.1962C16.7119 14.1962 16.3083 14.6502 16.157 15.0538C16.1065 15.2052 16.0561 15.407 16.0561 15.6592V19.6951H13.6345C13.6345 19.6951 13.685 13.1368 13.6345 12.4809H16.0561V13.4899C16.3587 12.9854 16.9641 12.2791 18.2253 12.2791C19.7892 12.2791 21 13.3386 21 15.5583ZM11.1121 9C10.3049 9 9.75 9.55493 9.75 10.2612C9.75 10.9675 10.2545 11.5224 11.0617 11.5224C11.9193 11.5224 12.4238 10.9675 12.4238 10.2612C12.4742 9.50448 11.9697 9 11.1121 9ZM9.90134 19.6951H12.3229V12.4809H9.90134V19.6951Z" fill="#F6F4EF"/></symbol><symbol id="pinterest" viewBox="0 0 30 30" fill="none"><path d="M30 15C30 6.71573 23.2843 0 15 0C6.71573 0 0 6.71573 0 15C0 23.2843 6.71573 30 15 30C23.2843 30 30 23.2843 30 15Z" fill="currentColor"/><path d="M15 7.5C10.875 7.5 7.5 10.875 7.5 15C7.5 18.0938 9.375 20.7187 12 21.8437C12 21.2812 12 20.7188 12.0937 20.1562C12.2812 19.5 13.0312 16.0312 13.0312 16.0312C13.0312 16.0312 12.75 15.5625 12.75 14.8125C12.75 13.6875 13.4063 12.8438 14.1563 12.8438C14.8125 12.8438 15.1875 13.3125 15.1875 13.9687C15.1875 14.625 14.7187 15.6563 14.5312 16.5938C14.3437 17.3438 14.9063 18 15.75 18C17.1563 18 18.0938 16.2187 18.0938 13.9687C18.0938 12.2812 16.9687 11.0625 15 11.0625C12.75 11.0625 11.3438 12.75 11.3438 14.625C11.3438 15.2812 11.5313 15.75 11.8125 16.125C11.9063 16.3125 12 16.3125 11.9062 16.5C11.9062 16.5938 11.8125 16.9688 11.7187 17.0625C11.625 17.25 11.5313 17.3438 11.3438 17.25C10.3125 16.7812 9.84375 15.6562 9.84375 14.3438C9.84375 12.1875 11.625 9.65625 15.1875 9.65625C18.0937 9.65625 19.9687 11.7187 19.9687 13.9687C19.9687 16.875 18.375 19.125 15.9375 19.125C15.0937 19.125 14.3437 18.6562 14.0625 18.1875C14.0625 18.1875 13.5937 19.875 13.5 20.25C13.3125 20.8125 13.0313 21.375 12.75 21.8437C13.4063 22.0312 14.1562 22.125 14.9062 22.125C19.0312 22.125 22.4062 18.75 22.4062 14.625C22.5 10.875 19.125 7.5 15 7.5Z" fill="#F6F4EF"/></symbol><symbol id="instagram" viewBox="0 0 30 30" fill="none"><rect width="30" height="30" rx="15" fill="currentColor"/><path d="M15 8.85542C16.988 8.85542 17.259 8.85542 18.0723 8.85542C18.7952 8.85542 19.1566 9.03614 19.4277 9.12651C19.7892 9.30723 20.0602 9.39759 20.3313 9.66868C20.6024 9.93976 20.7831 10.2108 20.8735 10.5723C20.9639 10.8434 21.0542 11.2048 21.1446 11.9277C21.1446 12.741 21.1446 12.9217 21.1446 15C21.1446 17.0783 21.1446 17.259 21.1446 18.0723C21.1446 18.7952 20.9639 19.1566 20.8735 19.4277C20.6928 19.7892 20.6024 20.0602 20.3313 20.3313C20.0602 20.6024 19.7892 20.7831 19.4277 20.8735C19.1566 20.9639 18.7952 21.0542 18.0723 21.1446C17.259 21.1446 17.0783 21.1446 15 21.1446C12.9217 21.1446 12.741 21.1446 11.9277 21.1446C11.2048 21.1446 10.8434 20.9639 10.5723 20.8735C10.2108 20.6928 9.93976 20.6024 9.66868 20.3313C9.39759 20.0602 9.21687 19.7892 9.12651 19.4277C9.03614 19.1566 8.94578 18.7952 8.85542 18.0723C8.85542 17.259 8.85542 17.0783 8.85542 15C8.85542 12.9217 8.85542 12.741 8.85542 11.9277C8.85542 11.2048 9.03614 10.8434 9.12651 10.5723C9.30723 10.2108 9.39759 9.93976 9.66868 9.66868C9.93976 9.39759 10.2108 9.21687 10.5723 9.12651C10.8434 9.03614 11.2048 8.94578 11.9277 8.85542C12.741 8.85542 13.012 8.85542 15 8.85542ZM15 7.5C12.9217 7.5 12.741 7.5 11.9277 7.5C11.1145 7.5 10.5723 7.68072 10.1205 7.86145C9.66868 8.04217 9.21687 8.31325 8.76506 8.76506C8.31325 9.21687 8.13253 9.57831 7.86145 10.1205C7.68072 10.5723 7.59036 11.1145 7.5 11.9277C7.5 12.741 7.5 13.012 7.5 15C7.5 17.0783 7.5 17.259 7.5 18.0723C7.5 18.8855 7.68072 19.4277 7.86145 19.8795C8.04217 20.3313 8.31325 20.7831 8.76506 21.2349C9.21687 21.6867 9.57831 21.8675 10.1205 22.1386C10.5723 22.3193 11.1145 22.4096 11.9277 22.5C12.741 22.5 13.012 22.5 15 22.5C16.988 22.5 17.259 22.5 18.0723 22.5C18.8855 22.5 19.4277 22.3193 19.8795 22.1386C20.3313 21.9578 20.7831 21.6867 21.2349 21.2349C21.6867 20.7831 21.8675 20.4217 22.1386 19.8795C22.3193 19.4277 22.4096 18.8855 22.5 18.0723C22.5 17.259 22.5 16.988 22.5 15C22.5 13.012 22.5 12.741 22.5 11.9277C22.5 11.1145 22.3193 10.5723 22.1386 10.1205C21.9578 9.66868 21.6867 9.21687 21.2349 8.76506C20.7831 8.31325 20.4217 8.13253 19.8795 7.86145C19.4277 7.68072 18.8855 7.59036 18.0723 7.5C17.259 7.5 17.0783 7.5 15 7.5Z" fill="#F6F4EF"/><path d="M15 11.1145C12.8313 11.1145 11.1145 12.8313 11.1145 15C11.1145 17.1687 12.8313 18.8855 15 18.8855C17.1687 18.8855 18.8855 17.1687 18.8855 15C18.8855 12.8313 17.1687 11.1145 15 11.1145ZM15 17.5301C13.6446 17.5301 12.4699 16.4458 12.4699 15C12.4699 13.6446 13.5542 12.4699 15 12.4699C16.3554 12.4699 17.5301 13.5542 17.5301 15C17.5301 16.3554 16.3554 17.5301 15 17.5301Z" fill="#F6F4EF"/><path d="M18.9759 11.9277C19.475 11.9277 19.8795 11.5231 19.8795 11.0241C19.8795 10.525 19.475 10.1205 18.9759 10.1205C18.4769 10.1205 18.0723 10.525 18.0723 11.0241C18.0723 11.5231 18.4769 11.9277 18.9759 11.9277Z" fill="#F6F4EF"/></symbol><symbol id="facebook" viewBox="0 0 30 30" fill="none"><rect width="30" height="30" rx="15" fill="currentColor"/><path d="M16.2428 15.2736H19.0344L19.4728 12.4204H16.2422V10.861C16.2422 9.67574 16.6272 8.62471 17.7292 8.62471H19.5V6.13481C19.1889 6.09254 18.5308 6 17.2875 6C14.6911 6 13.169 7.37947 13.169 10.5223V12.4204H10.5V15.2736H13.169V23.1158C13.6976 23.1957 14.233 23.25 14.7826 23.25C15.2793 23.25 15.7642 23.2043 16.2428 23.1392V15.2736Z" fill="#F6F4EF"/></symbol><symbol id="close-circle" viewBox="0 0 20 20" fill="none"><path fill-rule="evenodd" clip-rule="evenodd" d="M10 20C15.5228 20 20 15.5228 20 10C20 4.47715 15.5228 0 10 0C4.47715 0 0 4.47715 0 10C0 15.5228 4.47715 20 10 20ZM7.35355 6.64645C7.15829 6.45118 6.84171 6.45118 6.64645 6.64645C6.45118 6.84171 6.45118 7.15829 6.64645 7.35355L9.29289 10L6.64645 12.6464C6.45118 12.8417 6.45118 13.1583 6.64645 13.3536C6.84171 13.5488 7.15829 13.5488 7.35355 13.3536L10 10.7071L12.6464 13.3536C12.8417 13.5488 13.1583 13.5488 13.3536 13.3536C13.5488 13.1583 13.5488 12.8417 13.3536 12.6464L10.7071 10L13.3536 7.35355C13.5488 7.15829 13.5488 6.84171 13.3536 6.64645C13.1583 6.45118 12.8417 6.45118 12.6464 6.64645L10 9.29289L7.35355 6.64645Z" fill="currentColor"/></symbol><symbol id="arrow-left" viewBox="0 0 28 28" fill="none"><path d="M22.1666 14H5.83325" stroke="currentColor" stroke-width="2" stroke-linecap="round" stroke-linejoin="round"/><path d="M13.9999 22.1666L5.83325 13.9999L13.9999 5.83325" stroke="currentColor" stroke-width="2" stroke-linecap="round" stroke-linejoin="round"/></symbol><symbol id="arrow-left-thin" viewBox="0 0 24 24" fill="none"><path d="M19 12H5" stroke="currentColor" stroke-linecap="round" stroke-linejoin="round"/><path d="M12 19L5 12L12 5" stroke="currentColor" stroke-linecap="round" stroke-linejoin="round"/></symbol><symbol id="arrow-right" viewBox="0 0 28 28" fill="none"><path d="M5.83301 14H22.1663" stroke="currentColor" stroke-width="2" stroke-linecap="round" stroke-linejoin="round"/><path d="M14 5.83203L22.1667 13.9987L14 22.1654" stroke="currentColor" stroke-width="2" stroke-linecap="round" stroke-linejoin="round"/></symbol><symbol id="arrow-right-thick" viewBox="0 0 32 32" fill="none"><path d="M6.66675 16H25.3334" stroke="currentColor" stroke-width="3" stroke-linecap="round" stroke-linejoin="round"/><path d="M16 6.66699L25.3333 16.0003L16 25.3337" stroke="currentColor" stroke-width="3" stroke-linecap="round" stroke-linejoin="round"/></symbol><symbol id="location" viewBox="0 0 24 24" fill="none"><path d="M21 10C21 17 12 23 12 23C12 23 3 17 3 10C3 7.61305 3.94821 5.32387 5.63604 3.63604C7.32387 1.94821 9.61305 1 12 1C14.3869 1 16.6761 1.94821 18.364 3.63604C20.0518 5.32387 21 7.61305 21 10Z" stroke="currentColor" stroke-width="2" stroke-linecap="round" stroke-linejoin="round"/><path d="M12 13C13.6569 13 15 11.6569 15 10C15 8.34315 13.6569 7 12 7C10.3431 7 9 8.34315 9 10C9 11.6569 10.3431 13 12 13Z" stroke="currentColor" stroke-width="2" stroke-linecap="round" stroke-linejoin="round"/></symbol><symbol id="chevron-right" viewBox="0 0 20 19" fill="none"><path d="M7.5 14.25L12.5 9.5L7.5 4.75" stroke="currentColor" stroke-linecap="round" stroke-linejoin="round"/></symbol><symbol id="chevron-right-alt" viewBox="0 0 18 18" fill="none"><path d="M6.75 13.5L11.25 9L6.75 4.5" stroke="currentColor" stroke-width="2" stroke-linecap="round" stroke-linejoin="round"/></symbol><symbol id="navigation" viewBox="0 0 17 17" fill="none"><path d="M2.125 7.79199L15.5833 1.41699L9.20833 14.8753L7.79167 9.20866L2.125 7.79199Z" stroke="currentColor" stroke-linecap="round" stroke-linejoin="round"/></symbol><symbol id="filter" viewBox="0 0 22 20" fill="none"><path fill-rule="evenodd" clip-rule="evenodd" d="M0 5.09709C0 4.85326 0.089148 4.61942 0.247833 4.44701C0.406517 4.27459 0.62174 4.17773 0.846154 4.17773H4.23077C4.45518 4.17773 4.67041 4.27459 4.82909 4.44701C4.98778 4.61942 5.07692 4.85326 5.07692 5.09709C5.07692 5.34092 4.98778 5.57476 4.82909 5.74717C4.67041 5.91958 4.45518 6.01644 4.23077 6.01644H0.846154C0.62174 6.01644 0.406517 5.91958 0.247833 5.74717C0.089148 5.57476 0 5.34092 0 5.09709ZM0 14.9035C0 14.6597 0.089148 14.4259 0.247833 14.2535C0.406517 14.081 0.62174 13.9842 0.846154 13.9842H7.61539C7.8398 13.9842 8.05502 14.081 8.21371 14.2535C8.37239 14.4259 8.46154 14.6597 8.46154 14.9035C8.46154 15.1474 8.37239 15.3812 8.21371 15.5536C8.05502 15.726 7.8398 15.8229 7.61539 15.8229H0.846154C0.62174 15.8229 0.406517 15.726 0.247833 15.5536C0.089148 15.3812 0 15.1474 0 14.9035ZM16.9231 14.9035C16.9231 14.6597 17.0122 14.4259 17.1709 14.2535C17.3296 14.081 17.5448 13.9842 17.7692 13.9842H21.1538C21.3783 13.9842 21.5935 14.081 21.7522 14.2535C21.9109 14.4259 22 14.6597 22 14.9035C22 15.1474 21.9109 15.3812 21.7522 15.5536C21.5935 15.726 21.3783 15.8229 21.1538 15.8229H17.7692C17.5448 15.8229 17.3296 15.726 17.1709 15.5536C17.0122 15.3812 16.9231 15.1474 16.9231 14.9035ZM13.5385 5.09709C13.5385 4.85326 13.6276 4.61942 13.7863 4.44701C13.945 4.27459 14.1602 4.17773 14.3846 4.17773H21.1538C21.3783 4.17773 21.5935 4.27459 21.7522 4.44701C21.9109 4.61942 22 4.85326 22 5.09709C22 5.34092 21.9109 5.57476 21.7522 5.74717C21.5935 5.91958 21.3783 6.01644 21.1538 6.01644H14.3846C14.1602 6.01644 13.945 5.91958 13.7863 5.74717C13.6276 5.57476 13.5385 5.34092 13.5385 5.09709Z" fill="currentColor"/><path fill-rule="evenodd" clip-rule="evenodd" d="M14.3847 12.1452C13.7114 12.1452 13.0658 12.4357 12.5897 12.953C12.1137 13.4702 11.8462 14.1717 11.8462 14.9032C11.8462 15.6347 12.1137 16.3362 12.5897 16.8535C13.0658 17.3707 13.7114 17.6613 14.3847 17.6613C15.0579 17.6613 15.7036 17.3707 16.1796 16.8535C16.6557 16.3362 16.9231 15.6347 16.9231 14.9032C16.9231 14.1717 16.6557 13.4702 16.1796 12.953C15.7036 12.4357 15.0579 12.1452 14.3847 12.1452ZM10.1539 14.9032C10.1539 13.6841 10.5996 12.5149 11.3931 11.6528C12.1865 10.7908 13.2626 10.3065 14.3847 10.3065C15.5067 10.3065 16.5829 10.7908 17.3763 11.6528C18.1697 12.5149 18.6154 13.6841 18.6154 14.9032C18.6154 16.1224 18.1697 17.2916 17.3763 18.1536C16.5829 19.0157 15.5067 19.5 14.3847 19.5C13.2626 19.5 12.1865 19.0157 11.3931 18.1536C10.5996 17.2916 10.1539 16.1224 10.1539 14.9032ZM7.61544 2.33871C6.9422 2.33871 6.29653 2.62929 5.82048 3.14653C5.34443 3.66377 5.07698 4.36529 5.07698 5.09677C5.07698 5.82826 5.34443 6.52978 5.82048 7.04702C6.29653 7.56426 6.9422 7.85484 7.61544 7.85484C8.28868 7.85484 8.93435 7.56426 9.41041 7.04702C9.88646 6.52978 10.1539 5.82826 10.1539 5.09677C10.1539 4.36529 9.88646 3.66377 9.41041 3.14653C8.93435 2.62929 8.28868 2.33871 7.61544 2.33871ZM3.38467 5.09677C3.38467 3.87763 3.83041 2.70843 4.62384 1.84636C5.41726 0.984302 6.49337 0.5 7.61544 0.5C8.73751 0.5 9.81363 0.984302 10.607 1.84636C11.4005 2.70843 11.8462 3.87763 11.8462 5.09677C11.8462 6.31591 11.4005 7.48512 10.607 8.34718C9.81363 9.20925 8.73751 9.69355 7.61544 9.69355C6.49337 9.69355 5.41726 9.20925 4.62384 8.34718C3.83041 7.48512 3.38467 6.31591 3.38467 5.09677Z" fill="currentColor"/></symbol><symbol id="close-circle-outline" viewBox="0 0 30 30" fill="none"><path d="M15 27.5C21.9036 27.5 27.5 21.9036 27.5 15C27.5 8.09644 21.9036 2.5 15 2.5C8.09644 2.5 2.5 8.09644 2.5 15C2.5 21.9036 8.09644 27.5 15 27.5Z" stroke="currentColor" stroke-linecap="round" stroke-linejoin="round"/><path d="M18.75 11.25L11.25 18.75" stroke="currentColor" stroke-linecap="round" stroke-linejoin="round"/><path d="M11.25 11.25L18.75 18.75" stroke="currentColor" stroke-linecap="round" stroke-linejoin="round"/></symbol><symbol id="close" viewBox="0 0 16 16" fill="none"><path d="M12 4L4 12" stroke="currentColor" stroke-linecap="round" stroke-linejoin="round"/><path d="M4 4L12 12" stroke="currentColor" stroke-linecap="round" stroke-linejoin="round"/></symbol><symbol id="close-circle-outline-light" viewBox="0 0 44 44" fill="none"><path d="M22 40.3337C32.1252 40.3337 40.3333 32.1255 40.3333 22.0003C40.3333 11.8751 32.1252 3.66699 22 3.66699C11.8747 3.66699 3.66663 11.8751 3.66663 22.0003C3.66663 32.1255 11.8747 40.3337 22 40.3337Z" fill="white" stroke="currentColor" stroke-linecap="round" stroke-linejoin="round"/><path d="M27.5 16.5L16.5 27.5" stroke="currentColor" stroke-linecap="round" stroke-linejoin="round"/><path d="M16.5 16.5L27.5 27.5" stroke="currentColor" stroke-linecap="round" stroke-linejoin="round"/></symbol><symbol id="plus" viewBox="0 0 24 24" fill="none"><path d="M12 5V19" stroke="currentColor" stroke-width="2" stroke-linecap="round" stroke-linejoin="round"/><path d="M5 12H19" stroke="currentColor" stroke-width="2" stroke-linecap="round" stroke-linejoin="round"/></symbol><symbol id="minus" viewBox="0 0 16 2" fill="none"><path d="M1 1H15" stroke="currentColor" stroke-width="2" stroke-linecap="round" stroke-linejoin="round"/></symbol><symbol id="search-thin" viewBox="0 0 25 25" fill="none"><path d="M11.4583 19.7917C16.0607 19.7917 19.7917 16.0607 19.7917 11.4583C19.7917 6.85596 16.0607 3.125 11.4583 3.125C6.85596 3.125 3.125 6.85596 3.125 11.4583C3.125 16.0607 6.85596 19.7917 11.4583 19.7917Z" stroke="currentColor" stroke-linecap="round" stroke-linejoin="round"/><path d="M21.875 21.875L17.3438 17.3438" stroke="currentColor" stroke-linecap="round" stroke-linejoin="round"/></symbol><symbol id="share" viewBox="0 0 22 22" fill="none"><path d="M15.6668 7.8C16.9555 7.8 18.0002 6.72548 18.0002 5.4C18.0002 4.07452 16.9555 3 15.6668 3C14.3782 3 13.3335 4.07452 13.3335 5.4C13.3335 6.72548 14.3782 7.8 15.6668 7.8Z" stroke="currentColor" stroke-width="2" stroke-linecap="round" stroke-linejoin="round"/><path d="M6.33333 13.4001C7.622 13.4001 8.66667 12.3256 8.66667 11.0001C8.66667 9.67461 7.622 8.6001 6.33333 8.6001C5.04467 8.6001 4 9.67461 4 11.0001C4 12.3256 5.04467 13.4001 6.33333 13.4001Z" stroke="currentColor" stroke-width="2" stroke-linecap="round" stroke-linejoin="round"/><path d="M15.6668 19.0002C16.9555 19.0002 18.0002 17.9257 18.0002 16.6002C18.0002 15.2747 16.9555 14.2002 15.6668 14.2002C14.3782 14.2002 13.3335 15.2747 13.3335 16.6002C13.3335 17.9257 14.3782 19.0002 15.6668 19.0002Z" stroke="currentColor" stroke-width="2" stroke-linecap="round" stroke-linejoin="round"/><path d="M8.34766 12.208L13.6599 15.392" stroke="currentColor" stroke-width="2" stroke-linecap="round" stroke-linejoin="round"/><path d="M13.6521 6.60791L8.34766 9.79191" stroke="currentColor" stroke-width="2" stroke-linecap="round" stroke-linejoin="round"/></symbol><symbol id="package" viewBox="0 0 16 16" fill="none"><path d="M10.7467 1.28615L3.486 5.00348L0.6 3.58348L7.73267 0.0614803C7.81347 0.0213635 7.90246 0.000488281 7.99267 0.000488281C8.08288 0.000488281 8.17187 0.0213635 8.25267 0.0614803L10.7467 1.28615ZM15.392 3.58348L8.004 7.24348L5.23733 5.88015L4.83733 5.67681L12.106 1.96015L12.506 2.16281L15.392 3.58348ZM7.412 8.29815L7.404 16.0001L0.328 12.3075C0.229209 12.255 0.14652 12.1767 0.0887549 12.0808C0.0309895 11.985 0.000313866 11.8754 0 11.7635L0 4.63815L2.99867 6.11548V8.71281C2.99867 9.04548 3.27067 9.32148 3.59867 9.32148C3.92667 9.32148 4.19867 9.04548 4.19867 8.71281V6.71615L4.59867 6.91081L7.412 8.29815ZM15.992 4.64615L8.612 8.29015L8.604 15.9921L16 12.1301L15.992 4.64615Z" fill="currentColor"/></symbol><symbol id="delivery" viewBox="0 0 17 17" fill="none"><path d="M8.39199 17.1099C13.0864 17.1099 16.8919 13.3043 16.8919 8.60986C16.8919 3.91544 13.0864 0.109863 8.39199 0.109863C3.69763 0.109863 -0.10791 3.91544 -0.10791 8.60986C-0.10791 13.3043 3.69763 17.1099 8.39199 17.1099Z" fill="currentColor"/><path fill-rule="evenodd" clip-rule="evenodd" d="M3.61339 7.5166C3.61339 7.2968 3.79193 7.1182 4.0112 7.1182H6.70042C6.92126 7.1182 7.09982 7.29676 7.09982 7.5166C7.09982 7.73674 6.92126 7.91507 6.70042 7.91507H4.0112C3.79193 7.91507 3.61339 7.73674 3.61339 7.5166ZM12.6349 10.0702H12.14C11.8847 9.79563 11.5213 9.62337 11.1188 9.62337C10.7632 9.62337 10.439 9.75718 10.1931 9.97662L10.7961 7.15804H12.3937L13.0546 8.10433L12.6349 10.0702ZM11.1188 11.6093C10.7914 11.6093 10.5252 11.3426 10.5252 11.0146C10.5252 10.6869 10.7914 10.4202 11.1188 10.4202C11.4461 10.4202 11.7139 10.6869 11.7139 11.0146C11.7139 11.3426 11.4461 11.6093 11.1188 11.6093ZM5.71213 11.6093C5.38322 11.6093 5.11696 11.3426 5.11696 11.0146C5.11696 10.6869 5.38322 10.4202 5.71213 10.4202C6.03948 10.4202 6.30574 10.6869 6.30574 11.0146C6.30574 11.3426 6.03948 11.6093 5.71213 11.6093ZM12.9277 6.53147C12.8526 6.42452 12.732 6.36113 12.6019 6.36113H10.9668L11.2409 5.0765C11.2532 5.01839 11.2524 4.95827 11.2385 4.90051C11.2247 4.84274 11.1983 4.78876 11.161 4.74248C11.1236 4.69629 11.0764 4.65904 11.0227 4.63348C10.969 4.60791 10.9103 4.59467 10.8509 4.59473H4.98541C4.76458 4.59473 4.58601 4.77303 4.58601 4.99313C4.58601 5.21333 4.76458 5.3916 4.98541 5.3916H10.3591L10.0835 6.6762L9.35833 10.0702H6.73177C6.47803 9.7956 6.11468 9.62334 5.71216 9.62334C5.30964 9.62334 4.94783 9.79464 4.69256 10.0679L3.52414 10.054H3.51943C3.30172 10.054 3.12318 10.2293 3.12162 10.4477C3.1185 10.6676 3.29547 10.8482 3.51475 10.8508L4.32919 10.8605C4.3229 10.9116 4.31976 10.963 4.31979 11.0145C4.31979 11.7819 4.94474 12.4061 5.71216 12.4061C6.47806 12.4061 7.10298 11.7819 7.10298 11.0145C7.10298 10.9647 7.09986 10.9156 7.09514 10.8671H9.67941L9.68097 10.8674C9.68253 10.8674 9.68253 10.8671 9.68409 10.8671H9.73578C9.72951 10.9156 9.72795 10.9647 9.72795 11.0145C9.72795 11.7819 10.3513 12.4061 11.1188 12.4061C11.8862 12.4061 12.5096 11.7819 12.5096 11.0145C12.5096 10.9647 12.508 10.9156 12.5017 10.8671H12.956C13.1439 10.8671 13.3068 10.7359 13.346 10.552L13.8706 8.10128C13.8926 7.99337 13.8706 7.88048 13.8064 7.78983L12.9277 6.53147Z" fill="white"/></symbol><symbol id="gallery" viewBox="0 0 22 22" fill="none"><path d="M4.4 0C1.9811 0 0 1.9811 0 4.4V16.247L4.9841 11.8118C5.9598 10.945 7.4558 10.813 8.5426 11.6193L10.5149 13.0823C10.7393 13.2473 11.0297 13.2253 11.2277 13.0273L14.7169 9.5392C14.9489 9.30858 15.2245 9.1264 15.5276 9.00328C15.8307 8.88015 16.1553 8.81853 16.4824 8.822C17.1204 8.8242 17.7584 9.0607 18.2446 9.5029L22 12.914V4.4C22 1.9811 20.0189 0 17.6 0H4.4ZM6.028 4.3582C6.47115 4.3582 6.89615 4.53424 7.2095 4.8476C7.52286 5.16095 7.6989 5.58595 7.6989 6.0291C7.6989 6.47225 7.52286 6.89725 7.2095 7.21061C6.89615 7.52396 6.47115 7.7 6.028 7.7C5.59534 7.6843 5.18564 7.50138 4.88511 7.18975C4.58458 6.87811 4.41664 6.46204 4.41664 6.0291C4.41664 5.59616 4.58458 5.18009 4.88511 4.86845C5.18564 4.55682 5.59534 4.3739 6.028 4.3582ZM16.2723 11.0946L12.7831 14.5838C11.8261 15.5408 10.2916 15.6541 9.2037 14.8478L7.2314 13.387C6.9982 13.2143 6.6979 13.233 6.4449 13.4574L0.2431 18.975C0.825 20.7218 2.464 22 4.4 22H17.6C20.0189 22 22 20.0189 22 17.6V15.8851L16.764 11.1287C16.6067 10.9934 16.4032 10.9461 16.2723 11.0946Z" fill="currentColor"/></symbol><symbol id="pin" viewBox="0 0 19 19" fill="none"><path fill-rule="evenodd" clip-rule="evenodd" d="M7.24784 4.36829L6.72872 7.90757C5.59315 8.12965 4.74512 9.06002 4.74512 10.2695V12.4553H8.55145L8.91351 18.0707H9.66337L10.025 12.4553H13.7577V10.2697C13.7577 9.06023 12.9103 8.12987 11.7732 7.90778L11.2552 4.3685L7.24784 4.36829ZM7.40385 3.31611H11.172C12.3014 3.31611 12.7652 2.40559 12.7652 1.27783H5.81165C5.81165 2.40559 6.27546 3.31611 7.40385 3.31611Z" fill="currentColor"/></symbol><symbol id="star" viewBox="0 0 24 24" fill="none"><path d="M11.6552 1.65527L14.7452 7.91527L21.6552 8.92527L16.6552 13.7953L17.8352 20.6753L11.6552 17.4253L5.47515 20.6753L6.65515 13.7953L1.65515 8.92527L8.56515 7.91527L11.6552 1.65527Z" fill="currentColor"/></symbol><symbol id="trash" viewBox="0 0 20 20" fill="none"><path d="M2.5 5H4.16667H17.5" stroke="currentColor" stroke-linecap="round" stroke-linejoin="round"/><path d="M15.8333 5.00033V16.667C15.8333 17.109 15.6577 17.5329 15.3451 17.8455C15.0326 18.1581 14.6087 18.3337 14.1666 18.3337H5.83329C5.39127 18.3337 4.96734 18.1581 4.65478 17.8455C4.34222 17.5329 4.16663 17.109 4.16663 16.667V5.00033M6.66663 5.00033V3.33366C6.66663 2.89163 6.84222 2.46771 7.15478 2.15515C7.46734 1.84259 7.89127 1.66699 8.33329 1.66699H11.6666C12.1087 1.66699 12.5326 1.84259 12.8451 2.15515C13.1577 2.46771 13.3333 2.89163 13.3333 3.33366V5.00033" stroke="currentColor" stroke-linecap="round" stroke-linejoin="round"/><path d="M8.33337 9.16699V14.167" stroke="currentColor" stroke-linecap="round" stroke-linejoin="round"/><path d="M11.6666 9.16699V14.167" stroke="currentColor" stroke-linecap="round" stroke-linejoin="round"/></symbol><symbol id="minus-alt" viewBox="0 0 15 15" fill="none"><path d="M3.125 7.5H11.875" stroke="currentColor" stroke-linecap="round" stroke-linejoin="round"/></symbol><symbol id="info" viewBox="0 0 24 24" fill="none"><path d="M12 22C17.5228 22 22 17.5228 22 12C22 6.47715 17.5228 2 12 2C6.47715 2 2 6.47715 2 12C2 17.5228 6.47715 22 12 22Z" stroke="currentColor" stroke-width="2" stroke-linecap="round" stroke-linejoin="round"/><path d="M12 16V12" stroke="currentColor" stroke-width="2" stroke-linecap="round" stroke-linejoin="round"/><path d="M12 8H12.01" stroke="currentColor" stroke-width="2" stroke-linecap="round" stroke-linejoin="round"/></symbol><symbol id="question" viewBox="0 0 19 19" fill="none"><path d="M9.5 0C4.26149 0 0 4.26149 0 9.5C0 14.7385 4.26149 19 9.5 19C14.7385 19 19 14.7385 19 9.5C19 4.26149 14.7385 0 9.5 0ZM9.5 15.0416C9.06296 15.0416 8.70838 14.687 8.70838 14.25C8.70838 13.813 9.06296 13.4584 9.5 13.4584C9.93704 13.4584 10.2916 13.813 10.2916 14.25C10.2916 14.687 9.93704 15.0416 9.5 15.0416ZM10.7532 10.0082C10.473 10.1372 10.2916 10.4199 10.2916 10.7279V11.0834C10.2916 11.5203 9.93778 11.875 9.5 11.875C9.06222 11.875 8.70838 11.5203 8.70838 11.0834V10.7279C8.70838 9.80396 9.2514 8.95698 10.0899 8.56982C10.8965 8.19857 11.4791 7.21284 11.4791 6.72912C11.4791 5.63829 10.5917 4.75 9.5 4.75C8.40832 4.75 7.52088 5.63829 7.52088 6.72912C7.52088 7.16615 7.16686 7.52088 6.72912 7.52088C6.29138 7.52088 5.9375 7.16615 5.9375 6.72912C5.9375 4.76507 7.5358 3.16662 9.5 3.16662C11.4642 3.16662 13.0625 4.76507 13.0625 6.72912C13.0625 7.79876 12.1346 9.37097 10.7532 10.0082Z" fill="currentColor"/></symbol><symbol id="clipboard" viewBox="0 0 19 19" fill="none"><path d="M13.5938 4H8.0625C7.28709 4 6.65625 4.63084 6.65625 5.40625V6.8125H7.59375V5.40625C7.59375 5.14778 7.80403 4.9375 8.0625 4.9375H13.5938C13.8522 4.9375 14.0625 5.14778 14.0625 5.40625V10.8438C14.0625 11.1022 13.8522 11.3125 13.5938 11.3125H12.2812V12.25H13.5938C14.3692 12.25 15 11.6192 15 10.8438V5.40625C15 4.63084 14.3692 4 13.5938 4ZM9.9375 7.75H4.40625C3.63084 7.75 3 8.38084 3 9.15625V14.5938C3 15.3692 3.63084 16 4.40625 16H9.9375C10.7129 16 11.3438 15.3692 11.3438 14.5938V9.15625C11.3438 8.38084 10.7129 7.75 9.9375 7.75ZM10.4062 14.5938C10.4062 14.8522 10.196 15.0625 9.9375 15.0625H4.40625C4.14778 15.0625 3.9375 14.8522 3.9375 14.5938V9.15625C3.9375 8.89778 4.14778 8.6875 4.40625 8.6875H9.9375C10.196 8.6875 10.4062 8.89778 10.4062 9.15625V14.5938Z" fill="currentColor"/></symbol><symbol id="calendar" viewBox="0 0 24 24" fill="none"><path d="M19 4H5C3.89543 4 3 4.89543 3 6V20C3 21.1046 3.89543 22 5 22H19C20.1046 22 21 21.1046 21 20V6C21 4.89543 20.1046 4 19 4Z" stroke="currentColor" stroke-width="2" stroke-linecap="round" stroke-linejoin="round"/><path d="M16 2V6" stroke="currentColor" stroke-width="2" stroke-linecap="round" stroke-linejoin="round"/><path d="M8 2V6" stroke="currentColor" stroke-width="2" stroke-linecap="round" stroke-linejoin="round"/><path d="M3 10H21" stroke="currentColor" stroke-width="2" stroke-linecap="round" stroke-linejoin="round"/></symbol><symbol id="heart-alt" viewBox="0 0 44 40" fill="none"><path d="M38.0698 6.00585C37.1413 5.05291 36.0389 4.29697 34.8255 3.78121C33.6121 3.26546 32.3116 3 30.9982 3C29.6848 3 28.3842 3.26546 27.1708 3.78121C25.9574 4.29697 24.855 5.05291 23.9265 6.00585L21.9995 7.98261L20.0725 6.00585C18.197 4.08187 15.6532 3.001 13.0009 3.001C10.3485 3.001 7.80471 4.08187 5.92918 6.00585C4.05366 7.92982 3 10.5393 3 13.2602C3 15.9811 4.05366 18.5906 5.92918 20.5145L7.85617 22.4913L21.9995 37L36.1429 22.4913L38.0698 20.5145C38.9988 19.562 39.7357 18.4311 40.2385 17.1864C40.7412 15.9417 41 14.6075 41 13.2602C41 11.9128 40.7412 10.5787 40.2385 9.33398C39.7357 8.08925 38.9988 6.95834 38.0698 6.00585Z" stroke="currentColor" stroke-width="2" stroke-linecap="round" stroke-linejoin="round"/></symbol><symbol id="" viewBox="" fill="none"/><symbol id="" viewBox="" fill="none"/><symbol id="" viewBox="" fill="none"/><symbol id="" viewBox="" fill="none"/><symbol id="" viewBox="" fill="none"/><symbol id="" viewBox="" fill="none"/></svg>