<svg width="80" height="80" viewBox="0 0 80 80" fill="none" xmlns="http://www.w3.org/2000/svg"><g clip-path="url(#clip0_767_12600)"><path fill-rule="evenodd" clip-rule="evenodd" d="M18.1447 61.855C27.5692 61.855 35.3159 69.0404 36.205 78.232C36.2503 78.7012 36.1103 79.1222 35.7934 79.4714C35.4764 79.8204 35.0706 80.0001 34.599 80.0001H1.69028C1.21872 80.0001 0.812935 79.8204 0.495904 79.4714C0.179185 79.1222 0.039185 78.7012 0.0844975 78.232C0.973404 69.0404 8.71981 61.855 18.1447 61.855Z" fill="#9DC6FB"/><path fill-rule="evenodd" clip-rule="evenodd" d="M16.5312 61.9255C25.2136 62.6904 32.1408 69.5704 32.9784 78.2318C33.0239 78.701 32.8837 79.1219 32.567 79.4711C32.25 79.8202 31.8442 79.9999 31.3727 79.9999H34.5986C35.0702 79.9999 35.4759 79.8202 35.793 79.4711C36.1097 79.1219 36.2498 78.701 36.2044 78.2318C35.3155 69.0402 27.5688 61.8547 18.1442 61.8547C17.6058 61.8548 17.0676 61.8784 16.5312 61.9255Z" fill="#80B4FB"/><path d="M24.6255 57.5516C28.2083 53.9689 28.2083 48.1601 24.6255 44.5773C21.0428 40.9945 15.234 40.9945 11.6512 44.5773C8.06846 48.1601 8.06846 53.9689 11.6512 57.5516C15.234 61.1344 21.0428 61.1344 24.6255 57.5516Z" fill="#FFECE4"/><path fill-rule="evenodd" clip-rule="evenodd" d="M16.5312 42.035C20.8288 42.7972 24.0923 46.5515 24.0923 51.0679C24.0923 55.5843 20.8288 59.3383 16.5312 60.1007C17.0548 60.1935 17.5939 60.2419 18.1442 60.2419C23.2109 60.2419 27.3183 56.1346 27.3183 51.0679C27.3183 46.0011 23.2109 41.8938 18.1442 41.8938C17.6035 41.8935 17.0637 41.9408 16.5312 42.035Z" fill="#FFCBBE"/><path fill-rule="evenodd" clip-rule="evenodd" d="M61.8538 61.855C71.2783 61.855 79.025 69.0404 79.9139 78.232C79.9594 78.7012 79.8193 79.1222 79.5025 79.4714C79.1857 79.8204 78.7797 80.0001 78.3082 80.0001H45.3993C44.9277 80.0001 44.5219 79.8204 44.2049 79.4714C43.8882 79.1222 43.7482 78.7012 43.7935 78.232C44.6825 69.0404 52.429 61.855 61.8538 61.855Z" fill="#FFE07D"/><path fill-rule="evenodd" clip-rule="evenodd" d="M60.2422 61.9255C68.9245 62.6904 75.8517 69.5704 76.6895 78.2318C76.735 78.701 76.5948 79.1219 76.278 79.4711C75.9609 79.8202 75.5552 79.9999 75.0836 79.9999H78.3095C78.7811 79.9999 79.1869 79.8202 79.5039 79.4711C79.8206 79.1219 79.9608 78.701 79.9155 78.2318C79.0264 69.0402 71.2798 61.8547 61.8552 61.8547C61.3167 61.8548 60.7786 61.8784 60.2422 61.9255Z" fill="#F0D47B"/><path d="M68.3306 57.556C71.9134 53.9732 71.9134 48.1645 68.3306 44.5817C64.7478 40.9989 58.939 40.9989 55.3563 44.5817C51.7735 48.1645 51.7735 53.9732 55.3563 57.556C58.9391 61.1388 64.7478 61.1388 68.3306 57.556Z" fill="#FFECE4"/><path fill-rule="evenodd" clip-rule="evenodd" d="M61.8552 60.2419C66.9219 60.2419 71.0292 56.1346 71.0292 51.0679C71.0292 46.0011 66.9219 41.8938 61.8552 41.8938C61.3048 41.8938 60.7658 41.9422 60.2422 42.035C64.5397 42.7972 67.8033 46.5515 67.8033 51.0679C67.8033 55.5843 64.5397 59.3383 60.2422 60.1007C60.7747 60.1949 61.3144 60.2421 61.8552 60.2419Z" fill="#FFCBBE"/><path fill-rule="evenodd" clip-rule="evenodd" d="M43.518 2.13295L35.5293 34.0839C38.9477 35.9783 43.031 36.7136 47.1618 35.8778C50.0174 35.3 52.5602 34.0389 54.6555 32.3L59.9107 34.1428C60.2268 34.2537 60.5604 34.1667 60.7821 33.9156C61.0038 33.6644 61.0488 33.3226 60.8996 33.0226L58.3823 27.9633C60.5045 24.4403 61.3654 20.1437 60.4854 15.795C58.8301 7.61498 51.5726 1.9992 43.518 2.13295Z" fill="#A2E19F"/><path fill-rule="evenodd" clip-rule="evenodd" d="M53.6448 33.0767L51.4296 32.2999C49.3343 34.0389 46.7915 35.3001 43.9359 35.8778C43.347 35.997 42.7524 36.0854 42.1543 36.1426C43.7873 36.2989 45.4705 36.2201 47.1618 35.8778C49.5727 35.3899 51.7607 34.4151 53.6448 33.0767ZM55.1562 27.9632C57.2784 24.4403 58.1393 20.1437 57.2593 15.7949C55.8765 8.96104 50.5835 3.91682 44.1823 2.51979C43.9646 2.38587 43.7439 2.25688 43.5204 2.13292C51.5741 2.00026 58.8302 7.61573 60.4852 15.7949C61.3652 20.1437 60.5041 24.4403 58.3821 27.9632L60.8995 33.0226C61.0487 33.3226 61.0038 33.6643 60.782 33.9156C60.5602 34.1667 60.2268 34.2537 59.9105 34.1428L57.7605 33.3889C57.7605 33.2617 57.7307 33.1362 57.6735 33.0226L55.1562 27.9632Z" fill="#97CF92"/><path fill-rule="evenodd" clip-rule="evenodd" d="M37.3294 0.128076C46.6716 1.27198 53.3174 9.77261 52.1735 19.1148C51.0294 28.4568 42.529 35.1028 33.1868 33.9589C30.2949 33.6048 27.6618 32.5451 25.4377 30.9743L20.3418 33.22C20.0352 33.3551 19.6958 33.2942 19.4552 33.061C19.2146 32.8278 19.1433 32.4906 19.2688 32.18L21.3855 26.9401C18.996 23.5928 17.8037 19.376 18.3429 14.9721C19.4866 5.63011 27.9873 -1.01583 37.3294 0.128076Z" fill="#C7EBFD"/><path fill-rule="evenodd" clip-rule="evenodd" d="M48.9477 19.1147C48.0418 26.5138 42.521 32.2214 35.6224 33.7074C34.976 33.8466 34.3221 33.9477 33.6638 34.0103C34.291 34.0697 34.914 34.0939 35.5305 34.0849C43.9116 33.9616 51.1262 27.6682 52.1737 19.1146C53.043 12.0146 49.413 5.4005 43.5195 2.13269C41.6584 1.10081 39.5716 0.402531 37.3296 0.127999C36.1009 -0.0231511 34.8594 -0.0404923 33.627 0.0762807C33.7855 0.0912807 33.9446 0.108468 34.1037 0.127999C37.5295 0.547531 40.5926 1.95612 43.042 4.03284C47.2723 7.61956 49.6721 13.1985 48.9477 19.1147Z" fill="#B6DDED"/><path fill-rule="evenodd" clip-rule="evenodd" d="M35.2416 15.4307C36.1324 15.4307 36.8546 16.1529 36.8546 17.0436C36.8546 17.9344 36.1324 18.6566 35.2416 18.6566C34.3509 18.6566 33.6287 17.9344 33.6287 17.0436C33.6288 16.1527 34.3509 15.4307 35.2416 15.4307ZM27.8962 15.4307C28.787 15.4307 29.5091 16.1529 29.5091 17.0436C29.5091 17.9344 28.7871 18.6566 27.8962 18.6566C27.0054 18.6566 26.2832 17.9344 26.2832 17.0436C26.2832 16.1527 27.0054 15.4307 27.8962 15.4307ZM42.6235 15.4307C43.5143 15.4307 44.2363 16.1529 44.2363 17.0436C44.2363 17.9344 43.5143 18.6566 42.6235 18.6566C41.7327 18.6566 41.0105 17.9344 41.0105 17.0436C41.0105 16.1527 41.7327 15.4307 42.6235 15.4307Z" fill="#F7F7F7"/></g><defs><clipPath id="clip0_767_12600"><rect width="80" height="80" fill="white"/></clipPath></defs></svg>