<svg width="37" height="36" viewBox="0 0 37 36" fill="none" xmlns="http://www.w3.org/2000/svg"><rect width="37" height="36" rx="18" fill="#10C44C"/><path d="M31.1808 19.0168L28.9816 15.0945C28.8923 14.9353 28.7618 14.8027 28.6038 14.7105C28.4457 14.6182 28.2657 14.5696 28.0824 14.5697H25.0859V11.7346C25.0856 11.5403 25.0081 11.354 24.8701 11.2164C24.7322 11.0788 24.5452 11.0011 24.3498 11.0002H10.754C10.5582 11.0004 10.3705 11.0778 10.2321 11.2155C10.0937 11.3532 10.0158 11.5399 10.0157 11.7346V13.0692H8.26231C8.15456 13.0692 8.05123 13.1118 7.97505 13.1875C7.89886 13.2633 7.85606 13.3661 7.85606 13.4733C7.85606 13.5804 7.89886 13.6832 7.97505 13.759C8.05123 13.8348 8.15456 13.8774 8.26231 13.8774H13.2218C13.3296 13.8774 13.4329 13.8348 13.5091 13.759C13.5853 13.6832 13.6281 13.5804 13.6281 13.4733C13.6281 13.3661 13.5853 13.2633 13.5091 13.1875C13.4329 13.1118 13.3296 13.0692 13.2218 13.0692H10.826V11.8084H24.2734V22.3805H18.3189C18.2253 21.8721 17.9555 21.4123 17.5563 21.0814C17.1572 20.7504 16.654 20.5692 16.1343 20.5692C15.6147 20.5692 15.1115 20.7504 14.7124 21.0814C14.3132 21.4123 14.0434 21.8721 13.9498 22.3805H10.826V20.2307H12.0253C12.133 20.2307 12.2363 20.1882 12.3125 20.1124C12.3887 20.0366 12.4315 19.9338 12.4315 19.8266C12.4315 19.7195 12.3887 19.6167 12.3125 19.5409C12.2363 19.4651 12.133 19.4225 12.0253 19.4225H6.86914C6.7614 19.4225 6.65807 19.4651 6.58188 19.5409C6.50569 19.6167 6.46289 19.7195 6.46289 19.8266C6.46289 19.9338 6.50569 20.0366 6.58188 20.1124C6.65807 20.1882 6.7614 20.2307 6.86914 20.2307H10.0135V22.7846C10.0135 22.8917 10.0563 22.9945 10.1325 23.0703C10.2087 23.1461 10.312 23.1887 10.4198 23.1887H13.9498C14.0434 23.6971 14.3132 24.1568 14.7124 24.4878C15.1115 24.8187 15.6147 25 16.1343 25C16.654 25 17.1572 24.8187 17.5563 24.4878C17.9555 24.1568 18.2253 23.6971 18.3189 23.1887H25.6856C25.7791 23.6971 26.049 24.1568 26.4481 24.4878C26.8473 24.8187 27.3505 25 27.8701 25C28.3897 25 28.8929 24.8187 29.2921 24.4878C29.6912 24.1568 29.9611 23.6971 30.0546 23.1887H30.8005C30.9857 23.1888 31.1634 23.1158 31.2946 22.9857C31.4257 22.8555 31.4995 22.6789 31.4998 22.4947V20.2377C31.4996 19.8104 31.3898 19.3902 31.1808 19.0168ZM16.1343 24.1892C15.8545 24.1895 15.5807 24.1072 15.3479 23.9528C15.115 23.7984 14.9334 23.5787 14.8261 23.3216C14.7187 23.0644 14.6905 22.7814 14.7449 22.5083C14.7993 22.2352 14.9339 21.9843 15.1317 21.7873C15.3295 21.5904 15.5816 21.4562 15.8561 21.4017C16.1306 21.3473 16.4152 21.3751 16.6738 21.4815C16.9324 21.588 17.1535 21.7684 17.309 21.9999C17.4645 22.2313 17.5476 22.5035 17.5476 22.7819C17.5478 22.9668 17.5115 23.1499 17.4406 23.3208C17.3698 23.4917 17.2658 23.6471 17.1345 23.778C17.0033 23.9089 16.8474 24.0129 16.6758 24.0839C16.5042 24.1549 16.3202 24.1916 16.1343 24.1919V24.1892ZM27.8717 24.1892C27.5918 24.1895 27.3181 24.1072 27.0852 23.9528C26.8524 23.7984 26.6708 23.5787 26.5634 23.3216C26.4561 23.0644 26.4278 22.7814 26.4823 22.5083C26.5367 22.2352 26.6713 21.9843 26.8691 21.7873C27.0669 21.5904 27.319 21.4562 27.5935 21.4017C27.868 21.3473 28.1525 21.3751 28.4112 21.4815C28.6698 21.588 28.8908 21.7684 29.0464 21.9999C29.2019 22.2313 29.2849 22.5035 29.2849 22.7819C29.2852 22.9669 29.2489 23.1501 29.1779 23.3211C29.107 23.492 29.0029 23.6474 28.8715 23.7784C28.7402 23.9093 28.5842 24.0133 28.4125 24.0842C28.2407 24.1552 28.0566 24.1917 27.8706 24.1919L27.8717 24.1892ZM30.6884 22.3778H30.0563C29.9627 21.8694 29.6929 21.4097 29.2937 21.0787C28.8946 20.7477 28.3914 20.5665 27.8717 20.5665C27.3521 20.5665 26.8489 20.7477 26.4497 21.0787C26.0506 21.4097 25.7807 21.8694 25.6872 22.3778H25.0859V15.3736H28.0824C28.1211 15.3735 28.159 15.3837 28.1923 15.4031C28.2257 15.4225 28.2532 15.4505 28.272 15.484L30.4712 19.4058C30.613 19.6589 30.6876 19.9437 30.6878 20.2334L30.6884 22.3778Z" fill="white"/><path d="M28.0753 16.3819C28.0062 16.2589 27.9054 16.1564 27.7833 16.085C27.6611 16.0136 27.522 15.9758 27.3803 15.9757H26.3089C26.2364 15.9758 26.1646 15.9902 26.0977 16.018C26.0308 16.0457 25.97 16.0863 25.9189 16.1375C25.8678 16.1886 25.8273 16.2493 25.7998 16.316C25.7723 16.3828 25.7583 16.4542 25.7586 16.5263V19.0586C25.7591 19.2033 25.817 19.342 25.9196 19.4445C26.0222 19.5471 26.1613 19.6053 26.3067 19.6066L28.9474 19.6147C29.0434 19.6146 29.1377 19.5896 29.2211 19.5421C29.3044 19.4947 29.3738 19.4264 29.4225 19.344C29.4711 19.2617 29.4973 19.1681 29.4984 19.0726C29.4996 18.9771 29.4756 18.8829 29.4289 18.7995L28.0753 16.3819ZM26.5711 18.8011V16.7839L27.3668 16.7774L28.5043 18.8043L26.5711 18.8011ZM10.4202 14.292C10.3125 14.292 10.2091 14.3346 10.1329 14.4103C10.0568 14.4861 10.014 14.5889 10.014 14.6961V17.3027H8.93929C8.83154 17.3027 8.72821 17.3453 8.65202 17.4211C8.57584 17.4969 8.53304 17.5996 8.53304 17.7068C8.53304 17.814 8.57584 17.9168 8.65202 17.9926C8.72821 18.0683 8.83154 18.1109 8.93929 18.1109H10.014V18.5543C10.014 18.6615 10.0568 18.7643 10.1329 18.8401C10.2091 18.9158 10.3125 18.9584 10.4202 18.9584C10.5279 18.9584 10.6313 18.9158 10.7075 18.8401C10.7837 18.7643 10.8265 18.6615 10.8265 18.5543V18.1109H16.1348C16.2425 18.1109 16.3459 18.0683 16.422 17.9926C16.4982 17.9168 16.541 17.814 16.541 17.7068C16.541 17.5996 16.4982 17.4969 16.422 17.4211C16.3459 17.3453 16.2425 17.3027 16.1348 17.3027H10.8265V14.6961C10.8265 14.5889 10.7837 14.4861 10.7075 14.4103C10.6313 14.3346 10.5279 14.292 10.4202 14.292ZM9.34608 15.5889C9.34608 15.4817 9.30328 15.3789 9.22709 15.3031C9.1509 15.2273 9.04757 15.1848 8.93983 15.1848H5.90649C5.79875 15.1848 5.69542 15.2273 5.61923 15.3031C5.54305 15.3789 5.50024 15.4817 5.50024 15.5889C5.50024 15.696 5.54305 15.7988 5.61923 15.8746C5.69542 15.9504 5.79875 15.9929 5.90649 15.9929H8.93983C9.04757 15.9929 9.1509 15.9504 9.22709 15.8746C9.30328 15.7988 9.34608 15.696 9.34608 15.5889Z" fill="white"/><path d="M16.1346 23.4598C16.5085 23.4598 16.8117 23.1582 16.8117 22.7863C16.8117 22.4143 16.5085 22.1128 16.1346 22.1128C15.7607 22.1128 15.4575 22.4143 15.4575 22.7863C15.4575 23.1582 15.7607 23.4598 16.1346 23.4598Z" fill="white"/><path d="M27.8863 23.4598C28.2603 23.4598 28.5634 23.1582 28.5634 22.7863C28.5634 22.4143 28.2603 22.1128 27.8863 22.1128C27.5124 22.1128 27.2092 22.4143 27.2092 22.7863C27.2092 23.1582 27.5124 23.4598 27.8863 23.4598Z" fill="white"/></svg>