<svg width="80" height="80" viewBox="0 0 80 80" fill="none" xmlns="http://www.w3.org/2000/svg"><g clip-path="url(#clip0_767_12628)"><path d="M72.3689 10.0683C66.5497 10.0683 61.2137 6.65094 58.775 1.36234C58.5875 0.955649 58.2874 0.611194 57.9102 0.369754C57.533 0.128315 57.0946 -4.31606e-08 56.6467 6.8041e-10L23.3552 6.80411e-10C22.9073 -1.07888e-05 22.4688 0.128298 22.0916 0.369737C21.7144 0.611176 21.4143 0.955637 21.2267 1.36234C18.788 6.65094 13.452 10.0683 7.63281 10.0683C6.33844 10.0683 5.28906 11.1177 5.28906 12.412V31.9886C5.28906 40.4755 7.51391 48.8569 11.7228 56.2266C15.9319 63.5963 22.0203 69.7709 29.3303 74.083L38.81 79.675C39.1773 79.8917 39.5891 80 40.0008 80C40.4125 80 40.8242 79.8917 41.1916 79.675L50.6713 74.083C57.9811 69.7708 64.0697 63.5963 68.2788 56.2266C72.4878 48.8569 74.7125 40.4755 74.7125 31.9886V12.412C74.7127 11.1175 73.6633 10.0683 72.3689 10.0683Z" fill="#54E2D4"/><path d="M72.368 10.0683C66.5487 10.0683 61.2128 6.65094 58.7741 1.36234C58.5866 0.955649 58.2864 0.611194 57.9093 0.369754C57.5321 0.128315 57.0936 -4.3841e-08 56.6458 0L40 0V80C40.4117 80 40.8234 79.8917 41.1908 79.675L50.6705 74.083C57.9803 69.7708 64.0689 63.5963 68.278 56.2266C72.487 48.8569 74.7117 40.4755 74.7117 31.9886V12.412C74.7117 11.1175 73.6623 10.0683 72.368 10.0683Z" fill="#4BB9EC"/><path d="M40.0007 15.7583C28.3896 15.7583 18.9434 25.2116 18.9434 36.8313C18.9434 43.9096 22.4487 50.1839 27.8134 54.0072H52.1882C57.5527 50.1839 61.058 43.9096 61.058 36.8314C61.058 25.2116 51.6118 15.7583 40.0007 15.7583Z" fill="#F3F5F9"/><path d="M40 15.7583V54.0072H52.1875C57.552 50.1839 61.0573 43.9096 61.0573 36.8314C61.0573 25.2116 51.6111 15.7583 40 15.7583Z" fill="#DDE5EF"/><path d="M48.2949 44.3693C46.0322 42.2723 43.0868 41.1174 40.0012 41.1174C36.9154 41.1174 33.9699 42.2723 31.7073 44.3693C29.049 46.8329 27.6101 50.3345 27.8093 54.0134C31.3707 56.5518 35.6344 57.9043 40.0012 57.9043L48.2949 44.3693Z" fill="#A993F9"/><path d="M48.2937 44.3693C46.0311 42.2723 43.0856 41.1174 40 41.1174V57.9042C44.3666 57.9042 48.6305 56.5516 52.1919 54.0132C52.3909 50.3343 50.952 46.8329 48.2937 44.3693Z" fill="#6D6DF2"/><path d="M48.9824 37.6055C48.9919 32.6405 44.9771 28.6079 40.0151 28.5984C35.0531 28.5889 31.0229 32.606 31.0134 37.571C31.0038 42.5359 35.0186 46.5685 39.9806 46.578C44.9426 46.5876 48.9729 42.5704 48.9824 37.6055Z" fill="#FFD2AA"/><path d="M40 28.6013V46.581C44.9541 46.581 48.9844 42.5482 48.9844 37.5912C48.9844 32.6341 44.9541 28.6013 40 28.6013Z" fill="#FAC08F"/></g><defs><clipPath id="clip0_767_12628"><rect width="80" height="80" fill="white"/></clipPath></defs></svg>