<svg width="71" height="71" viewBox="0 0 71 71" fill="none" xmlns="http://www.w3.org/2000/svg"><g clip-path="url(#clip0_230_4186)"><path d="M53.25 37.4665C53.25 42.1741 51.3799 46.6889 48.0511 50.0176C44.7224 53.3464 40.2076 55.2165 35.5 55.2165C30.7924 55.2165 26.2776 53.3464 22.9489 50.0176C19.6201 46.6889 17.75 42.1741 17.75 37.4665C17.75 27.3342 27.971 15.6784 35.5 9.86523C35.5 9.86523 53.25 23.6659 53.25 37.4665Z" fill="#8BD1EA"/><path d="M53.25 37.4665C53.2583 41.0908 52.1477 44.6293 50.0698 47.5988C47.4081 49.4493 44.2904 50.5355 41.055 50.7396C37.8196 50.9437 34.5901 50.2579 31.717 48.7565C28.8438 47.2552 26.4366 44.9956 24.7567 42.223C23.0768 39.4505 22.1883 36.2708 22.1875 33.029C22.1875 24.8936 29.11 14.8057 35.5 9.86523C35.5 9.86523 53.25 23.6659 53.25 37.4665Z" fill="#B2E5FB"/><path d="M35.4999 50.779C35.1076 50.779 34.7314 50.6231 34.454 50.3457C34.1766 50.0683 34.0208 49.6921 34.0208 49.2998C34.0208 48.9075 34.1766 48.5313 34.454 48.2539C34.7314 47.9765 35.1076 47.8206 35.4999 47.8206C38.246 47.8206 40.8796 46.7298 42.8214 44.788C44.7632 42.8462 45.8541 40.2126 45.8541 37.4665C45.8541 37.0742 46.0099 36.6979 46.2873 36.4205C46.5647 36.1431 46.941 35.9873 47.3333 35.9873C51.4158 35.9873 47.496 50.779 35.4999 50.779Z" fill="#EDEBF2"/><path d="M24.3616 4.92512C30.3594 2.72934 36.8722 2.35392 43.0826 3.84599C49.2929 5.33807 54.9243 8.63115 59.27 13.312H53.2498C52.8575 13.312 52.4812 13.4678 52.2038 13.7452C51.9264 14.0226 51.7706 14.3989 51.7706 14.7912C51.7706 15.1835 51.9264 15.5597 52.2038 15.8371C52.4812 16.1145 52.8575 16.2703 53.2498 16.2703H62.1248C62.5171 16.2703 62.8933 16.1145 63.1707 15.8371C63.4481 15.5597 63.6039 15.1835 63.6039 14.7912V5.91616C63.6039 5.52386 63.4481 5.14763 63.1707 4.87023C62.8933 4.59283 62.5171 4.43699 62.1248 4.43699C61.7325 4.43699 61.3562 4.59283 61.0788 4.87023C60.8014 5.14763 60.6456 5.52386 60.6456 5.91616V10.4572C55.8773 5.64815 49.8291 2.30856 43.2192 0.835018C36.6092 -0.638526 29.7152 -0.184116 23.3558 2.14429C22.9975 2.28545 22.7085 2.56074 22.55 2.91167C22.3915 3.2626 22.3761 3.66149 22.5071 4.02359C22.6381 4.38569 22.9051 4.68244 23.2514 4.85078C23.5977 5.01913 23.996 5.04579 24.3616 4.92512ZM2.95808 35.4995C2.94218 30.3842 4.14067 25.3383 6.455 20.7765C8.76933 16.2147 12.1334 12.2674 16.2706 9.25908V14.7912C16.2706 15.1835 16.4264 15.5597 16.7038 15.8371C16.9812 16.1145 17.3575 16.2703 17.7498 16.2703C18.1421 16.2703 18.5183 16.1145 18.7957 15.8371C19.0731 15.5597 19.2289 15.1835 19.2289 14.7912V5.91616C19.2289 5.52386 19.0731 5.14763 18.7957 4.87023C18.5183 4.59283 18.1421 4.43699 17.7498 4.43699H8.87475C8.48245 4.43699 8.10622 4.59283 7.82882 4.87023C7.55142 5.14763 7.39558 5.52386 7.39558 5.91616C7.39558 6.30846 7.55142 6.68469 7.82882 6.96209C8.10622 7.23949 8.48245 7.39533 8.87475 7.39533H13.83C7.85026 11.9854 3.49212 18.3647 1.39029 25.6041C-0.711547 32.8434 -0.4473 40.5647 2.14454 47.6434C2.27805 48.0121 2.55248 48.3127 2.90751 48.4791C3.26253 48.6455 3.66911 48.6642 4.03788 48.5309C6.67079 47.5695 2.95808 45.1141 2.95808 35.4995ZM46.6379 66.0739C40.6401 68.2696 34.1273 68.6451 27.917 67.153C21.7066 65.6609 16.0752 62.3678 11.7295 57.687H17.7498C18.1421 57.687 18.5183 57.5311 18.7957 57.2537C19.0731 56.9764 19.2289 56.6001 19.2289 56.2078C19.2289 55.8155 19.0731 55.4393 18.7957 55.1619C18.5183 54.8845 18.1421 54.7287 17.7498 54.7287H8.87475C8.48245 54.7287 8.10622 54.8845 7.82882 55.1619C7.55142 55.4393 7.39558 55.8155 7.39558 56.2078V65.0828C7.39558 65.4751 7.55142 65.8513 7.82882 66.1287C8.10622 66.4061 8.48245 66.562 8.87475 66.562C9.26705 66.562 9.64328 66.4061 9.92068 66.1287C10.1981 65.8513 10.3539 65.4751 10.3539 65.0828V60.5418C15.1222 65.3508 21.1704 68.6904 27.7804 70.164C34.3903 71.6375 41.2843 71.1831 47.6437 68.8547C48.002 68.7135 48.291 68.4382 48.4495 68.0873C48.608 67.7364 48.6234 67.3375 48.4924 66.9754C48.3615 66.6133 48.0944 66.3165 47.7481 66.1482C47.4018 65.9799 47.0035 65.9532 46.6379 66.0739ZM62.1248 63.6037H57.1695C63.1493 59.0135 67.5074 52.6343 69.6092 45.3949C71.711 38.1556 71.4468 30.4343 68.855 23.3555C68.7214 22.9869 68.447 22.6863 68.092 22.5199C67.737 22.3535 67.3304 22.3348 66.9616 22.468C64.3287 23.4295 68.0414 25.8849 68.0414 35.4995C68.0573 40.6147 66.8588 45.6607 64.5445 50.2225C62.2302 54.7843 58.8661 58.7316 54.7289 61.7399V56.2078C54.7289 55.8155 54.5731 55.4393 54.2957 55.1619C54.0183 54.8845 53.6421 54.7287 53.2498 54.7287C52.8575 54.7287 52.4812 54.8845 52.2038 55.1619C51.9264 55.4393 51.7706 55.8155 51.7706 56.2078V65.0828C51.7706 65.4751 51.9264 65.8513 52.2038 66.1287C52.4812 66.4061 52.8575 66.562 53.2498 66.562H62.1248C62.5171 66.562 62.8933 66.4061 63.1707 66.1287C63.4481 65.8513 63.6039 65.4751 63.6039 65.0828C63.6039 64.6905 63.4481 64.3143 63.1707 64.0369C62.8933 63.7595 62.5171 63.6037 62.1248 63.6037Z" fill="#84B749"/></g><defs><clipPath id="clip0_230_4186"><rect width="71" height="71" fill="white"/></clipPath></defs></svg>