<svg width="94" height="67" viewBox="0 0 94 67" fill="none" xmlns="http://www.w3.org/2000/svg">
<path fill-rule="evenodd" clip-rule="evenodd" d="M89.2483 0.0993501C88.7556 0.135034 85.7096 0.343953 82.4795 0.563837C79.2493 0.783521 75.3971 1.05484 73.9189 1.16667C72.4407 1.27871 69.2155 1.50597 66.7519 1.67203C58.4931 2.22861 50.9695 2.74513 45.1513 3.15499C36.2351 3.78315 34.5624 3.89797 29.3241 4.24026C26.6415 4.41569 23.9642 4.60985 23.3745 4.67185L22.3027 4.78448L22.4267 8.30521C22.495 10.2415 22.6092 16.722 22.6805 22.7063L22.8103 33.5864L17.0395 43.3391C13.8657 48.7028 10.7369 53.9886 10.0871 55.085C9.01721 56.8897 8.84461 57.0845 8.26468 57.1409C7.65986 57.1999 7.62403 57.1666 7.62243 56.5428C7.61188 52.4089 7.18425 34.7455 7.09088 34.5942C6.95172 34.3687 0.242804 34.5746 0.037748 34.8105C-0.0906609 34.9584 0.131118 53.3915 0.363648 61.895L0.501016 66.9109L1.52411 66.9862C2.09687 67.0285 2.60991 66.9705 2.68934 66.8544C2.77196 66.7338 3.84502 66.632 5.25772 66.6104C6.77991 66.5873 7.73492 66.4914 7.82032 66.3527C7.89538 66.2313 9.97799 65.4755 12.4486 64.6731L16.9405 63.2145L19.8971 63.4942C21.5234 63.6481 22.966 63.8122 23.1028 63.8588C23.2395 63.9054 23.3516 64.1389 23.3516 64.3777C23.3516 64.8095 23.3689 64.8113 26.1886 64.6873C27.749 64.6187 30.1902 64.4756 31.6136 64.3693C33.037 64.2629 35.5903 64.0801 37.2875 63.9631C38.9847 63.846 41.5827 63.6652 43.0609 63.5612C50.9353 63.0068 53.392 62.8357 60.4807 62.3483C62.7598 62.1916 63.7648 62.2018 64.725 62.3912C65.7146 62.5863 66.0658 62.5875 66.371 62.3966C66.7773 62.1426 70.5693 62.0347 71.1566 62.2606C71.3698 62.3423 71.5109 62.2556 71.5772 62.0019C71.6925 61.5605 72.5273 61.4782 86.1625 60.5627C91.0438 60.2348 93.874 59.9886 93.9799 59.8826C94.0709 59.7915 93.8473 44.1329 93.4217 20.7967C93.3158 14.9856 93.2294 7.97569 93.2296 5.21887C93.23 0.831963 93.1908 0.19145 92.915 0.0855949C92.6046 -0.0336167 90.998 -0.0276362 89.2483 0.0993501ZM83.7721 3.75006C83.8418 3.86289 83.762 3.89638 83.5848 3.8284C83.24 3.69583 83.1768 3.5529 83.4631 3.5529C83.5663 3.5529 83.7052 3.64161 83.7721 3.75006ZM90.3433 4.3503C90.3433 4.95473 90.2736 5.0562 89.8219 5.10863C89.4237 5.15488 89.273 5.06477 89.185 4.72747C89.0194 4.09294 89.3865 3.51622 89.9089 3.59057C90.2608 3.64081 90.3433 3.78494 90.3433 4.3503ZM87.0918 4.24464C87.3693 4.85446 87.0056 5.39649 86.3791 5.30678C85.6136 5.19734 85.8089 3.75225 86.5893 3.75225C86.7424 3.75225 86.9686 3.97393 87.0918 4.24464ZM64.1638 4.15095C64.328 4.2572 64.3728 4.34412 64.2633 4.34412C64.1538 4.34412 63.9298 4.2572 63.7656 4.15095C63.6014 4.04469 63.5566 3.95778 63.6661 3.95778C63.7756 3.95778 63.9995 4.04469 64.1638 4.15095ZM83.6341 4.19082C84.1291 4.6864 83.787 5.74575 83.1322 5.74575C82.6998 5.74575 82.401 4.86941 82.665 4.37542C82.9186 3.90096 83.2766 3.83279 83.6341 4.19082ZM80.1737 4.27195C80.6586 4.45835 80.5949 5.68515 80.0922 5.84483C79.8743 5.9142 79.6055 5.9148 79.495 5.84662C79.2167 5.67439 79.2428 4.68082 79.533 4.39017C79.8121 4.11068 79.7727 4.11786 80.1737 4.27195ZM77.2037 5.22565C77.2037 5.94311 76.679 6.33623 76.2251 5.95906C75.6033 5.44234 76.0112 4.47808 76.8032 4.59191C77.099 4.63437 77.2037 4.80023 77.2037 5.22565ZM73.9189 5.1477C74.2197 5.71047 73.8333 6.38806 73.2583 6.30613C72.8143 6.24273 72.5842 5.60142 72.802 5.03347C72.9625 4.61484 73.6728 4.6874 73.9189 5.1477ZM63.7117 5.06876C63.6456 5.13494 63.4737 5.14212 63.3302 5.08451C63.1713 5.02091 63.2185 4.97367 63.4505 4.9641C63.6603 4.95553 63.7777 5.00257 63.7117 5.06876ZM70.6117 5.39689C70.8932 5.84463 70.5633 6.41816 69.9736 6.50627C69.6623 6.55272 69.5197 6.4357 69.4244 6.05514C69.1862 5.10544 70.1072 4.5949 70.6117 5.39689ZM23.5394 5.33589C23.7719 5.48321 23.7822 5.61538 23.5935 6.03043C23.4534 6.33862 23.4378 6.54315 23.5549 6.54315C23.8549 6.54315 23.7856 7.61566 23.4575 8.05004C23.0582 8.57852 23.054 9.4146 23.4512 9.2619C23.6958 9.168 23.7498 9.35998 23.7498 10.3252C23.7498 10.9733 23.6602 11.5588 23.5507 11.6266C23.4412 11.6944 23.3516 11.5989 23.3516 11.4147C23.3516 11.1414 23.2973 11.1246 23.0572 11.3242C22.7994 11.5385 22.7631 11.1695 22.7657 8.35824C22.7689 5.06936 22.8177 4.87858 23.5394 5.33589ZM67.3109 5.88211C67.3565 6.35257 67.2695 6.57186 66.9744 6.72995C66.6491 6.90418 66.5209 6.86411 66.2743 6.51146C66.108 6.27383 65.9993 6.02684 66.0328 5.96245C66.066 5.89806 66.1514 5.68216 66.2225 5.48261C66.3069 5.24598 66.508 5.14192 66.8008 5.18358C67.1427 5.23223 67.2641 5.39848 67.3109 5.88211ZM44.4545 5.5464C44.6187 5.65266 44.6635 5.73957 44.554 5.73957C44.4445 5.73957 44.2206 5.65266 44.0563 5.5464C43.8921 5.44015 43.8473 5.35323 43.9568 5.35323C44.0663 5.35323 44.2902 5.44015 44.4545 5.5464ZM63.9687 5.75333C64.3846 6.53139 63.6661 7.43824 63.0435 6.92092C62.5082 6.47597 62.8355 5.34705 63.4998 5.34705C63.6382 5.34705 63.8492 5.52986 63.9687 5.75333ZM53.6123 5.74575C53.4481 5.85201 53.2241 5.93892 53.1146 5.93892C53.0051 5.93892 53.0499 5.85201 53.2142 5.74575C53.3784 5.6395 53.6024 5.55258 53.7119 5.55258C53.8214 5.55258 53.7766 5.6395 53.6123 5.74575ZM60.5404 5.78562C61.0943 6.34022 60.6034 7.48987 59.9241 7.22892C59.4467 7.04552 59.3457 6.53438 59.6844 6.01667C60.0316 5.4862 60.1968 5.44154 60.5404 5.78562ZM57.4979 6.35477C57.6583 6.86092 57.2653 7.53991 56.812 7.53991C56.1692 7.53991 55.9518 6.30373 56.5369 5.9758C56.9693 5.73339 57.3483 5.88291 57.4979 6.35477ZM54.11 6.82045C54.11 7.53791 53.5853 7.93103 53.1314 7.55386C52.5096 7.03714 52.9175 6.07289 53.7095 6.18672C54.0053 6.22918 54.11 6.39504 54.11 6.82045ZM50.7256 7.14121C50.7256 7.75261 50.6639 7.83893 50.2279 7.83893C49.8586 7.83893 49.7133 7.71932 49.6647 7.37584C49.5632 6.65838 49.778 6.30872 50.2769 6.37969C50.6448 6.43192 50.7256 6.56907 50.7256 7.14121ZM40.618 6.66356C40.5519 6.72975 40.38 6.73692 40.2365 6.67931C40.0776 6.61572 40.1248 6.56847 40.3568 6.5589C40.5666 6.55033 40.684 6.59738 40.618 6.66356ZM47.4316 6.83122C47.8419 7.3262 47.6076 8.03051 47.0099 8.09968C46.3828 8.17225 46.0969 7.59393 46.4413 6.94943C46.6958 6.47338 47.0955 6.42574 47.4316 6.83122ZM24.6457 6.94186C24.7134 7.0515 24.6791 7.14121 24.5696 7.14121C24.4601 7.14121 24.3152 7.0515 24.2475 6.94186C24.1798 6.83221 24.2141 6.7425 24.3236 6.7425C24.4331 6.7425 24.578 6.83221 24.6457 6.94186ZM44.2626 7.15456C44.4338 7.47512 44.4123 7.67447 44.1654 8.05164C43.8087 8.59686 43.6452 8.64331 43.2998 8.29744C42.8099 7.80684 43.1457 6.7425 43.7905 6.7425C43.9289 6.7425 44.1413 6.9279 44.2626 7.15456ZM40.8688 7.23829C41.4095 7.89076 40.5821 9.04102 39.9498 8.51573C39.6239 8.24481 39.6016 7.85309 39.8825 7.3274C40.1286 6.8669 40.5309 6.83062 40.8688 7.23829ZM37.4467 7.38043C38.0028 7.93721 37.4776 9.12753 36.7924 8.86419C36.2576 8.65886 36.5184 7.14121 37.0884 7.14121C37.1541 7.14121 37.3154 7.24886 37.4467 7.38043ZM34.4282 8.07716C34.5945 8.7402 34.0472 9.3227 33.5509 9.01131C33.0878 8.72066 33.0136 8.06021 33.4006 7.67287C33.8061 7.2668 34.271 7.4496 34.4282 8.07716ZM88.8501 8.40409C88.8501 9.2908 88.0337 9.64266 87.6485 8.922C87.3182 8.30402 87.9071 7.44721 88.4587 7.74285C88.6739 7.85827 88.8501 8.1559 88.8501 8.40409ZM27.8147 8.39731C28.1097 8.86559 27.7247 9.43374 27.1125 9.43374C26.6891 9.43374 26.6357 9.34323 26.6287 8.615C26.6216 7.84113 26.6479 7.80345 27.1113 7.92744C27.3809 7.99981 27.6974 8.21112 27.8147 8.39731ZM31.0163 8.53666C31.0163 9.10202 30.9339 9.24615 30.5819 9.29638C30.304 9.33586 30.0683 9.21026 29.9278 8.94752C29.6206 8.37239 29.9996 7.694 30.5819 7.77693C30.9339 7.82717 31.0163 7.9713 31.0163 8.53666ZM85.4707 8.24361C85.8189 8.66384 85.4183 9.53341 84.8764 9.53341C84.4488 9.53341 84.1368 8.77608 84.3431 8.23803C84.4918 7.8499 85.147 7.85309 85.4707 8.24361ZM75.4576 8.25837C75.3915 8.32455 75.2197 8.33173 75.0761 8.27411C74.9173 8.21052 74.9644 8.16327 75.1964 8.15371C75.4062 8.14513 75.5237 8.19218 75.4576 8.25837ZM82.1808 8.53666C82.4818 9.48656 81.673 10.142 81.0809 9.42776C80.8878 9.19472 80.881 9.00693 81.0524 8.63035C81.3232 8.03529 82.004 7.97888 82.1808 8.53666ZM78.7964 9.13471C78.7964 9.70685 78.7156 9.844 78.3477 9.89623C77.8189 9.97138 77.6023 9.55693 77.7865 8.82233C77.8832 8.43698 78.023 8.32694 78.3554 8.37419C78.7148 8.42542 78.7964 8.56616 78.7964 9.13471ZM75.4717 8.77588C75.8372 9.14189 75.756 9.89364 75.3262 10.1241C75.0361 10.2796 74.8653 10.2533 74.6294 10.0172C74.2631 9.65023 74.2432 9.4461 74.5231 8.9222C74.758 8.48283 75.1229 8.42662 75.4717 8.77588ZM72.0421 8.88851C72.4622 9.17657 72.5036 9.71542 72.1399 10.1652C71.8271 10.5521 71.7285 10.5786 71.4532 10.3498C71.0748 10.0354 71.0316 9.31472 71.3706 8.97523C71.6459 8.69953 71.7473 8.68637 72.0421 8.88851ZM69.0312 9.60259C69.278 10.3023 68.7373 10.9486 68.1914 10.6061C67.7208 10.3107 67.6563 9.65302 68.0584 9.25033C68.4865 8.82173 68.7949 8.93337 69.0312 9.60259ZM77.3447 9.52584C77.4012 9.91218 77.3347 10.1532 77.1518 10.2236C76.718 10.3902 76.706 10.3743 76.706 9.63309C76.706 8.75854 77.2195 8.67222 77.3447 9.52584ZM65.6569 10.1315C65.6569 10.7429 65.5952 10.8292 65.1592 10.8292C64.7899 10.8292 64.6446 10.7096 64.596 10.3661C64.4944 9.64864 64.7093 9.29897 65.2082 9.36994C65.5761 9.42217 65.6569 9.55933 65.6569 10.1315ZM62.377 9.83842C62.5701 10.0715 62.5769 10.2592 62.4055 10.6358C61.9611 11.6126 60.9452 10.9791 61.2771 9.93211C61.427 9.45945 62.0208 9.40882 62.377 9.83842ZM59.0871 10.5302C59.0871 11.0955 59.0047 11.2397 58.6527 11.2899C58.3748 11.3294 58.1391 11.2038 57.9986 10.941C57.6914 10.3659 58.0704 9.68751 58.6527 9.77044C59.0047 9.82067 59.0871 9.96481 59.0871 10.5302ZM55.8357 10.4245C56.1132 11.0343 55.7495 11.5764 55.123 11.4866C54.3575 11.3772 54.5528 9.93211 55.3332 9.93211C55.4863 9.93211 55.7125 10.1538 55.8357 10.4245ZM52.378 10.3707C52.7435 10.7367 52.6623 11.4884 52.2325 11.7189C51.9424 11.8744 51.7716 11.8481 51.5357 11.612C51.1694 11.245 51.1495 11.0409 51.4294 10.517C51.6643 10.0776 52.0292 10.0214 52.378 10.3707ZM57.594 10.9384C57.594 11.2492 57.5225 11.5476 57.4351 11.6017C57.108 11.8042 56.8172 11.3939 56.8831 10.8228C56.9683 10.085 56.9408 10.1225 57.2954 10.2586C57.4636 10.3234 57.594 10.6201 57.594 10.9384ZM48.9175 10.4518C49.3322 10.6111 49.3452 11.8397 48.9339 11.9978C48.4276 12.1921 48.038 11.9087 48.038 11.3461C48.038 11.0509 48.1455 10.7016 48.2769 10.57C48.556 10.2905 48.5166 10.2977 48.9175 10.4518ZM45.8389 10.8182C46.1612 11.2072 46.0292 11.9348 45.5875 12.2043C45.3 12.3797 45.1698 12.346 44.9405 12.0371C44.5714 11.5393 44.5781 11.2323 44.9663 10.8433C45.354 10.4552 45.5339 10.45 45.8389 10.8182ZM38.9299 10.8615C38.7931 10.9169 38.5692 10.9169 38.4322 10.8615C38.2954 10.8063 38.4073 10.761 38.6811 10.761C38.9548 10.761 39.0669 10.8063 38.9299 10.8615ZM42.6627 11.3276C42.9636 11.8903 42.5771 12.5679 42.0022 12.486C41.5582 12.4226 41.3281 11.7813 41.5459 11.2133C41.7063 10.7947 42.4167 10.8673 42.6627 11.3276ZM39.3964 11.6292C39.5423 12.2121 39.1987 12.723 38.6606 12.723C38.1957 12.723 37.9405 11.8405 38.2851 11.4246C38.6733 10.9562 39.2544 11.063 39.3964 11.6292ZM29.2702 11.448C29.2041 11.5142 29.0323 11.5213 28.8887 11.4637C28.7299 11.4001 28.7771 11.3529 29.009 11.3433C29.2188 11.3347 29.3363 11.3818 29.2702 11.448ZM35.9934 12.125C35.9934 12.7364 35.9317 12.8227 35.4957 12.8227C35.1264 12.8227 34.9811 12.7031 34.9325 12.3596C34.831 11.6421 35.0458 11.2925 35.5447 11.3634C35.9126 11.4157 35.9934 11.5528 35.9934 12.125ZM87.0044 11.448C86.9383 11.5142 86.7665 11.5213 86.623 11.4637C86.4641 11.4001 86.5113 11.3529 86.7432 11.3433C86.9531 11.3347 87.0705 11.3818 87.0044 11.448ZM32.7064 11.8233C33.0145 12.1951 32.8195 13.0364 32.3864 13.2029C31.6928 13.4694 31.1903 12.3295 31.753 11.7661C32.0741 11.4446 32.4091 11.4647 32.7064 11.8233ZM37.7472 12.2103C37.8853 12.6253 37.8638 12.8121 37.663 12.9363C37.3402 13.1361 37.0004 12.6421 37.165 12.2125C37.2256 12.0548 37.183 11.9256 37.0705 11.9256C36.9578 11.9256 36.9242 11.8311 36.9954 11.7157C37.2027 11.38 37.5461 11.6059 37.7472 12.2103ZM90.45 11.939C90.621 12.2589 90.6001 12.4581 90.357 12.8297C89.9843 13.3992 89.4974 13.2904 89.324 12.5988C89.097 11.6938 90.0275 11.1485 90.45 11.939ZM23.4116 12.3327C23.4767 12.5825 23.4335 12.717 23.3019 12.6732C23.1822 12.6333 23.0701 12.408 23.0528 12.1726C23.0144 11.6511 23.2624 11.7618 23.4116 12.3327ZM29.2843 11.9655C29.8461 12.5281 29.3446 13.6687 28.6526 13.4028C28.1888 13.2246 28.1505 12.1648 28.5975 11.8788C28.9124 11.6774 29.0088 11.6896 29.2843 11.9655ZM86.9425 11.8473C87.3835 12.0167 87.3516 13.0571 86.8983 13.3001C86.2583 13.6432 85.6889 12.8247 86.0707 12.1106C86.2895 11.7009 86.442 11.6549 86.9425 11.8473ZM83.877 12.3319C84.2929 13.11 83.5744 14.0168 82.9519 13.4995C82.4165 13.0545 82.7438 11.9256 83.4082 11.9256C83.5465 11.9256 83.7576 12.1084 83.877 12.3319ZM80.4795 12.413C80.8018 12.802 80.6698 13.5296 80.228 13.7991C79.9405 13.9745 79.8103 13.9409 79.581 13.6319C79.2119 13.1341 79.2187 12.8271 79.6069 12.4381C79.9945 12.05 80.1745 12.0448 80.4795 12.413ZM77.2728 12.8725C77.5635 13.4283 77.1922 14.1587 76.6575 14.0826C76.1988 14.0174 75.965 13.3855 76.1864 12.8081C76.3387 12.4104 77.053 12.4527 77.2728 12.8725ZM74.0184 13.399C74.0184 14.1165 73.4936 14.5096 73.0397 14.1324C72.418 13.6157 72.8259 12.6515 73.6179 12.7653C73.9137 12.8077 74.0184 12.9736 74.0184 13.399ZM63.9107 13.0428C63.8446 13.109 63.6728 13.1161 63.5293 13.0585C63.3704 12.9949 63.4176 12.9477 63.6495 12.9381C63.8594 12.9295 63.9768 12.9766 63.9107 13.0428ZM70.7335 13.3211C71.0343 13.8838 70.6479 14.5614 70.073 14.4795C69.629 14.4161 69.3989 13.7748 69.6167 13.2068C69.7771 12.7882 70.4875 12.8608 70.7335 13.3211ZM67.3469 13.4182C67.6451 13.778 67.4652 14.6292 67.058 14.7857C66.4142 15.0331 65.8761 13.8791 66.3935 13.3609C66.7146 13.0394 67.0497 13.0595 67.3469 13.4182ZM64.1241 14.0373C64.199 14.804 63.7222 15.2934 63.2679 14.9159C62.9064 14.6153 62.8715 13.594 63.2181 13.4508C63.7485 13.2316 64.0654 13.4369 64.1241 14.0373ZM60.804 13.9937C61.1932 14.8489 60.4341 15.6866 59.8237 15.0754C59.3288 14.5798 59.6708 13.5204 60.3256 13.5204C60.4704 13.5204 60.6858 13.7333 60.804 13.9937ZM89.8456 13.7198C89.8456 13.8294 89.8061 13.9191 89.7578 13.9191C89.7094 13.9191 89.6146 13.8294 89.5469 13.7198C89.4792 13.6101 89.5189 13.5204 89.6347 13.5204C89.7506 13.5204 89.8456 13.6101 89.8456 13.7198ZM57.3551 13.959C57.6852 14.2895 57.6545 15.0161 57.298 15.3124C56.6338 15.8644 56.0019 14.8896 56.5323 14.1314C56.8636 13.658 57.0214 13.6249 57.3551 13.959ZM54.3067 14.5096C54.4734 15.0353 54.0858 15.7133 53.6187 15.7133C53.1859 15.7133 52.9289 15.1033 53.1146 14.5172C53.2835 13.9849 54.1387 13.9795 54.3067 14.5096ZM50.9524 14.6172C51.1505 15.134 50.8469 15.9126 50.4475 15.9126C49.8427 15.9126 49.5331 15.3885 49.7963 14.8102C50.0462 14.2608 50.7696 14.14 50.9524 14.6172ZM89.8527 14.9282L90.3433 15.3058L89.6465 15.0947C89.2632 14.9787 88.8029 14.8381 88.6238 14.7827C88.4444 14.7273 88.2375 14.7793 88.1641 14.8985C88.0849 15.0269 88.1924 15.1152 88.4285 15.1152C89.1332 15.1152 89.0345 15.4137 88.3245 15.4296C87.8332 15.4406 87.6682 15.37 87.7408 15.1804C87.8051 15.0126 87.6901 14.9159 87.4259 14.9159C87.0785 14.9159 87.0506 14.9653 87.2575 15.2149C87.4287 15.4214 87.4362 15.5139 87.2818 15.5139C86.8902 15.5139 86.7703 15.4224 86.7187 15.0841C86.6833 14.8517 86.8848 14.703 87.401 14.5808C88.3855 14.3475 89.259 14.4715 89.8527 14.9282ZM47.5403 15.3174C47.5403 15.9258 47.4784 16.0123 47.0426 16.0123C46.6416 16.0123 46.5321 15.9003 46.4792 15.436C46.4105 14.8343 46.7232 14.4791 47.2417 14.57C47.4399 14.6047 47.5403 14.8557 47.5403 15.3174ZM44.2156 14.9557C44.5811 15.3218 44.4999 16.0735 44.0701 16.304C43.78 16.4594 43.6092 16.4331 43.3733 16.1971C43.007 15.8301 42.987 15.626 43.267 15.1021C43.5019 14.6627 43.8668 14.6065 44.2156 14.9557ZM23.7371 17.516C23.7388 18.8818 23.7398 20.1787 23.7388 20.398C23.7381 20.6173 23.7826 21.2901 23.838 21.8931C23.9069 22.6449 23.8776 22.8955 23.7446 22.6905C23.5832 22.4416 23.5302 22.4667 23.4279 22.8401C23.102 24.0312 22.9535 22.9463 22.9535 19.3734C22.9535 15.8761 22.9907 15.431 23.3015 15.2033C23.493 15.0632 23.6686 14.9673 23.6917 14.9904C23.7148 15.0136 23.7351 16.1501 23.7371 17.516ZM41.1101 15.4226C41.3076 15.8564 41.2797 15.9906 40.9176 16.3532C40.5642 16.7072 40.4436 16.7345 40.1851 16.5196C39.6132 16.0446 39.9168 14.9159 40.6164 14.9159C40.7611 14.9159 40.9833 15.1439 41.1101 15.4226ZM70.3354 14.9922C70.3354 15.0343 70.156 15.1156 69.937 15.173C69.7178 15.2304 69.5886 15.196 69.6501 15.0967C69.7572 14.9231 70.3354 14.8349 70.3354 14.9922ZM37.6458 15.3544C38.2041 15.9134 37.6761 17.1014 36.9869 16.8366C36.5417 16.6654 36.4069 16.1566 36.6598 15.6008C36.9005 15.072 37.2712 14.9793 37.6458 15.3544ZM86.6602 15.2031C86.6602 15.2516 86.5706 15.3465 86.4611 15.4143C86.3516 15.482 86.262 15.4424 86.262 15.3263C86.262 15.2103 86.3516 15.1152 86.4611 15.1152C86.5706 15.1152 86.6602 15.1547 86.6602 15.2031ZM34.2913 15.6016C34.4221 15.7593 34.5001 16.1407 34.4649 16.4489C34.4137 16.8964 34.3006 17.0091 33.9031 17.0091C33.5055 17.0091 33.3924 16.8964 33.3412 16.4489C33.2803 15.9166 33.5786 15.3146 33.9031 15.3146C33.9857 15.3146 34.1605 15.4438 34.2913 15.6016ZM82.1546 15.6706C82.2077 15.7567 82.0851 15.8271 81.8822 15.8271C81.6793 15.8271 81.5567 15.7567 81.6099 15.6706C81.6632 15.5845 81.7857 15.5139 81.8822 15.5139C81.9788 15.5139 82.1012 15.5845 82.1546 15.6706ZM88.9531 16.1229C89.0942 16.5681 88.7396 17.3081 88.3853 17.3081C87.6873 17.3081 87.3803 16.0867 87.9921 15.744C88.4245 15.5016 88.8035 15.6511 88.9531 16.1229ZM31.2339 16.2142C31.3663 16.7427 31.0482 17.3081 30.6182 17.3081C30.1882 17.3081 29.87 16.7427 30.0024 16.2142C30.094 15.8488 30.2608 15.7133 30.6182 15.7133C30.9755 15.7133 31.1424 15.8488 31.2339 16.2142ZM69.9284 16.2609C70.4204 16.5348 70.413 16.5392 69.6742 16.4154C69.2557 16.3452 68.7855 16.2388 68.629 16.1786C68.4725 16.1186 68.3445 16.162 68.3445 16.2754C68.3445 16.3887 68.5014 16.5149 68.6929 16.5557C68.9304 16.6066 68.8633 16.6666 68.4823 16.7443C68.0602 16.8306 67.9489 16.7916 68.0282 16.5848C68.0963 16.4068 67.9878 16.3113 67.7166 16.3113C67.3692 16.3113 67.3413 16.3608 67.5482 16.6104C67.7552 16.8601 67.7266 16.9094 67.3734 16.9094C67.1411 16.9094 66.9438 16.7973 66.9352 16.6602C66.9227 16.4608 66.8994 16.4608 66.8191 16.6602C66.7638 16.7973 66.6227 16.9094 66.5054 16.9094C66.3879 16.9094 66.4554 16.7286 66.6551 16.5077C67.3535 15.7348 68.7893 15.6266 69.9284 16.2609ZM27.9001 16.2615C28.1908 16.8173 27.8195 17.5477 27.2847 17.4715C26.826 17.4064 26.5923 16.7744 26.8137 16.1971C26.966 15.7994 27.6803 15.8417 27.9001 16.2615ZM85.5929 16.2121C85.656 16.3767 85.6501 16.7415 85.5798 17.0224C85.483 17.4078 85.3433 17.5178 85.0108 17.4706C84.5603 17.4064 84.3285 16.7692 84.5479 16.1971C84.6921 15.8207 85.4472 15.8317 85.5929 16.2121ZM75.7924 16.2826C75.8504 16.3763 75.6764 16.4108 75.406 16.359C75.1355 16.3071 74.9143 16.2304 74.9143 16.1883C74.9143 16.0342 75.6905 16.1174 75.7924 16.2826ZM82.2853 16.417C82.6377 16.8422 82.2328 17.7068 81.6811 17.7068C81.1922 17.7068 80.9973 17.2903 81.1677 16.61C81.3098 16.0426 81.8918 15.9421 82.2853 16.417ZM79.0132 16.8093C79.1806 17.4771 78.9909 17.9061 78.5284 17.9061C77.9145 17.9061 77.6023 17.3856 77.8671 16.8037C78.1661 16.1467 78.848 16.1499 79.0132 16.8093ZM86.1989 16.7475C86.1354 16.9064 86.0882 16.8591 86.0787 16.6269C86.0701 16.4168 86.1171 16.2992 86.1832 16.3654C86.2493 16.4315 86.2565 16.6036 86.1989 16.7475ZM75.6935 16.9592C75.9258 17.5752 75.5949 18.1454 75.0501 18.0678C74.2671 17.9562 74.4468 16.5107 75.2438 16.5107C75.3981 16.5107 75.6005 16.7126 75.6935 16.9592ZM65.5034 16.8304C65.4373 16.8966 65.2655 16.9038 65.122 16.8462C64.9631 16.7826 65.0103 16.7353 65.2422 16.7258C65.452 16.7172 65.5695 16.7643 65.5034 16.8304ZM72.2864 16.9492C72.6079 17.2712 72.589 18.0038 72.2519 18.2839C71.6294 18.8012 70.9109 17.8944 71.3268 17.1163C71.5717 16.658 71.9328 16.5952 72.2864 16.9492ZM66.1801 17.2582C66.4275 17.5744 66.4206 17.5814 66.1048 17.3336C65.9133 17.1831 65.7564 17.026 65.7564 16.9847C65.7564 16.8207 65.9199 16.9261 66.1801 17.2582ZM69.0029 17.2656C69.6003 17.9267 68.886 19.037 68.2197 18.4832C67.8826 18.2032 67.8637 17.4706 68.1853 17.1486C68.5048 16.8286 68.6234 16.8456 69.0029 17.2656ZM48.6978 17.7251C48.7706 18.004 48.6928 18.1055 48.4057 18.1055C48.1905 18.1055 48.0641 18.0251 48.1246 17.9271C48.1853 17.8288 48.0953 17.695 47.9247 17.6294C47.4931 17.4636 47.7535 17.1237 48.219 17.2455C48.4276 17.3003 48.6432 17.516 48.6978 17.7251ZM65.9555 17.9885C65.9555 18.6206 65.4319 19.0466 64.9931 18.7713C64.205 18.2767 64.7592 16.8803 65.5711 17.3155C65.7829 17.4291 65.9555 17.7311 65.9555 17.9885ZM50.1554 17.6248L50.7256 17.9414L49.9464 17.8314C49.518 17.7708 49.0744 17.6282 48.9609 17.5146C48.6293 17.1825 49.5042 17.2632 50.1554 17.6248ZM67.4871 18.0519C67.4365 18.2458 67.3919 18.1354 67.3879 17.8065C67.3839 17.4775 67.4252 17.3188 67.4797 17.4538C67.5343 17.5888 67.5376 17.8579 67.4871 18.0519ZM30.4191 17.7068C30.4868 17.8164 30.4525 17.9061 30.343 17.9061C30.2336 17.9061 30.0886 17.8164 30.0209 17.7068C29.9532 17.5971 29.9875 17.5074 30.097 17.5074C30.2065 17.5074 30.3514 17.5971 30.4191 17.7068ZM47.8389 18.1298C47.8389 18.2261 47.7045 18.3048 47.5403 18.3048C47.376 18.3048 47.2417 18.2151 47.2417 18.1055C47.2417 17.9958 47.1467 17.9061 47.0308 17.9061C46.915 17.9061 46.8753 17.9958 46.943 18.1055C47.0107 18.2151 46.9711 18.3048 46.8552 18.3048C46.524 18.3048 46.6088 17.946 46.9906 17.7319C47.3426 17.5347 47.8389 17.7676 47.8389 18.1298ZM62.4716 18.3048C62.4716 18.8702 62.3891 19.0143 62.0372 19.0646C61.4857 19.1431 61.1612 18.5726 61.3989 17.942C61.5231 17.6121 61.7021 17.4977 62.0224 17.5433C62.3909 17.5955 62.4716 17.7325 62.4716 18.3048ZM52.4676 17.8388C52.3308 17.8942 52.1069 17.8942 51.9699 17.8388C51.8331 17.7835 51.945 17.7383 52.2188 17.7383C52.4925 17.7383 52.6046 17.7835 52.4676 17.8388ZM59.2639 18.1553C59.5651 18.6344 59.1877 19.2019 58.5677 19.2019C58.2223 19.2019 58.0738 19.0759 58.0266 18.7424C57.8962 17.8214 58.7877 17.3984 59.2639 18.1553ZM55.9631 18.6405C56.0087 19.111 55.9217 19.3303 55.6267 19.4884C55.3014 19.6626 55.1732 19.6225 54.9265 19.2699C54.7603 19.0323 54.6516 18.7853 54.685 18.7209C54.7182 18.6565 54.8037 18.4406 54.8747 18.241C54.9591 18.0044 55.1602 17.9004 55.4531 17.942C55.7949 17.9907 55.9163 18.1569 55.9631 18.6405ZM52.5771 18.3447C52.9297 18.6978 52.8682 19.1925 52.4216 19.5972C52.0987 19.8897 51.9723 19.909 51.7248 19.7035C51.1807 19.2513 51.4636 18.1055 52.1192 18.1055C52.2397 18.1055 52.4457 18.2131 52.5771 18.3447ZM49.2233 18.5929C49.5457 18.9818 49.4137 19.7095 48.9719 19.979C48.6844 20.1544 48.5542 20.1207 48.3249 19.8117C47.9558 19.3139 47.9625 19.0069 48.3508 18.618C48.7384 18.2299 48.9183 18.2247 49.2233 18.5929ZM30.1205 18.9113C30.1205 19.0051 29.5829 19.0636 28.926 19.0412C28.269 19.0187 27.7315 19.0297 27.7315 19.0656C27.7315 19.1014 27.8659 19.2653 28.0301 19.4298C28.1943 19.5942 28.3287 19.6327 28.3287 19.5151C28.3287 19.3977 28.62 19.3137 28.9757 19.3287C29.5182 19.3514 29.5423 19.3704 29.1251 19.4453C28.8513 19.4946 28.5527 19.6064 28.4613 19.6941C28.2467 19.9 27.5324 19.7148 27.5324 19.4533C27.5324 19.3401 27.4024 19.3608 27.2338 19.5009C27.0536 19.6506 26.9351 19.667 26.9351 19.542C26.9351 19.0197 27.9357 18.6039 29.0281 18.6722C29.6289 18.7097 30.1205 18.8174 30.1205 18.9113ZM45.8232 18.684C46.1559 18.8949 46.1843 19.842 45.8674 20.1594C45.3074 20.7202 44.5403 19.4202 45.0609 18.7922C45.336 18.4601 45.4459 18.4446 45.8232 18.684ZM42.8618 19.5833C42.8618 20.1434 42.3878 20.5878 41.964 20.4249C41.482 20.2395 41.3958 19.7412 41.7517 19.1969C42.0223 18.7837 42.1471 18.7332 42.4704 18.9065C42.6886 19.0235 42.8618 19.3229 42.8618 19.5833ZM39.4824 19.4072C39.6781 19.6435 39.6833 19.8259 39.5047 20.2182C39.047 21.2241 37.9592 20.4337 38.3605 19.3867C38.5043 19.0111 39.164 19.0231 39.4824 19.4072ZM36.1702 19.7501C36.4517 20.1979 36.1218 20.7714 35.5322 20.8595C35.2208 20.906 35.0783 20.7889 34.9829 20.4084C34.7448 19.4587 35.6657 18.9481 36.1702 19.7501ZM87.3556 19.4987C87.4253 19.6116 87.3455 19.6451 87.1683 19.5771C86.8235 19.4445 86.7604 19.3016 87.0466 19.3016C87.1498 19.3016 87.2887 19.3903 87.3556 19.4987ZM32.875 20.1889C32.955 20.8938 32.4109 21.4275 31.9783 21.068C31.6984 20.8354 31.615 19.8651 31.8543 19.6253C31.9319 19.5478 32.1782 19.5103 32.4018 19.5424C32.6867 19.5833 32.828 19.7764 32.875 20.1889ZM84.1703 19.6981C84.24 19.8109 84.1601 19.8444 83.9829 19.7764C83.6381 19.6439 83.575 19.5009 83.8613 19.5009C83.9644 19.5009 84.1034 19.5896 84.1703 19.6981ZM90.5423 20.2983C90.5423 20.8637 90.4599 21.0078 90.1079 21.0581C89.5565 21.1366 89.232 20.5661 89.4697 19.9355C89.5939 19.6056 89.7729 19.4912 90.0932 19.5368C90.4617 19.589 90.5423 19.726 90.5423 20.2983ZM29.521 19.9967C29.8292 20.3685 29.6341 21.2098 29.2011 21.3762C28.5075 21.6428 28.005 20.5029 28.5676 19.9395C28.8887 19.618 29.2238 19.6381 29.521 19.9967ZM87.2553 19.9967C87.399 20.17 87.4476 20.5065 87.3723 20.8067C87.2678 21.2239 87.1422 21.3084 86.703 21.2578C86.3136 21.213 86.1444 21.067 86.0974 20.7359C85.9772 19.8863 86.7532 19.3909 87.2553 19.9967ZM83.7572 20.0206C84.1472 20.1706 84.1755 21.1603 83.7988 21.4735C83.3367 21.8575 82.8776 21.5178 82.8776 20.7919C82.8776 20.4291 82.9897 20.087 83.1265 20.0316C83.2635 19.9764 83.3905 19.924 83.4088 19.9154C83.4273 19.9068 83.584 19.9541 83.7572 20.0206ZM80.6855 20.3954C80.9937 20.7672 80.7986 21.6085 80.3656 21.7749C79.672 22.0415 79.1695 20.9016 79.7321 20.3382C80.0532 20.0167 80.3883 20.0368 80.6855 20.3954ZM70.5344 20.3767C70.5344 20.4197 70.3955 20.5085 70.2255 20.5738C70.0483 20.6418 69.9684 20.6083 70.0381 20.4955C70.155 20.3059 70.5344 20.2152 70.5344 20.3767ZM77.5024 21.1625C77.5024 22.0492 76.6859 22.4011 76.3007 21.6804C75.9704 21.0624 76.5593 20.2056 77.111 20.5013C77.3262 20.6167 77.5024 20.9143 77.5024 21.1625ZM74.2209 21.1067C74.3813 21.6129 73.9883 22.2918 73.535 22.2918C72.9123 22.2918 72.7126 21.3354 73.2278 20.8194C73.5914 20.4554 74.0572 20.5902 74.2209 21.1067ZM70.8607 21.1958C71.0588 21.7125 70.7552 22.4912 70.3559 22.4912C69.751 22.4912 69.4415 21.9671 69.7047 21.3888C69.9545 20.8394 70.678 20.7186 70.8607 21.1958ZM67.5482 21.4944C67.8265 22.0153 67.4819 22.6905 66.9376 22.6905C66.459 22.6905 66.2663 22.2693 66.4355 21.5937C66.5886 20.9829 67.2436 20.9245 67.5482 21.4944ZM64.1546 21.5832C64.5649 22.0781 64.3306 22.7824 63.7329 22.8516C63.1058 22.9242 62.82 22.3459 63.1644 21.7014C63.4188 21.2253 63.8186 21.1777 64.1546 21.5832ZM60.6943 21.6469C61.1144 21.935 61.1558 22.4738 60.7921 22.9236C60.4793 23.3105 60.3808 23.337 60.1054 23.1082C59.727 22.7938 59.6838 22.0732 60.0228 21.7337C60.2982 21.458 60.3995 21.4448 60.6943 21.6469ZM57.6372 22.2077C57.9133 22.8145 57.6503 23.3883 57.0963 23.3883C56.9012 23.3883 56.647 23.2382 56.5315 23.055C56.2647 22.6315 56.6539 21.6938 57.0963 21.6938C57.2653 21.6938 57.5086 21.925 57.6372 22.2077ZM54.4087 22.8835C54.4087 23.468 53.855 23.8609 53.415 23.5888C53.1411 23.4192 53.1608 22.425 53.4437 22.1417C53.8206 21.7644 54.4087 22.2167 54.4087 22.8835ZM51.1423 22.7928C51.2747 23.3213 50.9566 23.8866 50.5265 23.8866C50.0965 23.8866 49.7784 23.3213 49.9108 22.7928C50.0024 22.4274 50.1692 22.2918 50.5265 22.2918C50.8839 22.2918 51.0507 22.4274 51.1423 22.7928ZM47.7394 23.2886C47.7394 23.854 47.6569 23.9981 47.305 24.0483C46.7226 24.1312 46.3436 23.4529 46.6508 22.8777C46.7913 22.615 47.027 22.4894 47.305 22.5289C47.6569 22.5791 47.7394 22.7232 47.7394 23.2886ZM44.4617 23.1026C44.7919 23.7206 44.203 24.5774 43.6514 24.2818C43.2156 24.0481 43.131 23.2982 43.4989 22.9298C43.8539 22.5743 44.2138 22.6389 44.4617 23.1026ZM76.406 22.8877C76.4757 23.0005 76.3959 23.034 76.2187 22.966C75.8739 22.8335 75.8108 22.6905 76.097 22.6905C76.2002 22.6905 76.3391 22.7793 76.406 22.8877ZM41.0303 23.1291C41.3958 23.4951 41.3145 24.2469 40.8847 24.4773C40.5947 24.6328 40.4238 24.6065 40.1879 24.3705C39.8216 24.0035 39.8017 23.7993 40.0816 23.2754C40.3165 22.8361 40.6815 22.7799 41.0303 23.1291ZM31.1159 23.1656C31.1159 23.2077 30.9365 23.289 30.7175 23.3464C30.4983 23.4038 30.3691 23.3693 30.4306 23.2701C30.5378 23.0964 31.1159 23.0083 31.1159 23.1656ZM37.9247 23.596C38.1222 24.0298 38.0944 24.1639 37.7322 24.5266C37.3789 24.8806 37.2582 24.9079 36.9998 24.693C36.4278 24.218 36.7314 23.0892 37.431 23.0892C37.5758 23.0892 37.7979 23.3173 37.9247 23.596ZM34.4605 23.5278C35.0629 24.131 34.4263 25.3836 33.737 24.9512C33.2817 24.6655 33.218 24.0031 33.608 23.6125C33.9942 23.2258 34.144 23.2108 34.4605 23.5278ZM88.8103 23.7272C89.3664 24.284 88.8412 25.4743 88.1559 25.2109C87.6212 25.0056 87.882 23.4879 88.452 23.4879C88.5177 23.4879 88.6789 23.5956 88.8103 23.7272ZM31.2845 24.0362C31.5752 24.5919 31.2039 25.3224 30.6691 25.2462C30.2105 25.181 29.9767 24.5491 30.1981 23.9718C30.3504 23.5741 31.0647 23.6163 31.2845 24.0362ZM85.7677 24.2963C85.9089 24.7415 85.5543 25.4814 85.1999 25.4814C84.5195 25.4814 84.2467 24.5375 84.7747 24.009C85.1382 23.645 85.6041 23.7798 85.7677 24.2963ZM23.3516 24.086C23.3516 24.1956 23.2567 24.2853 23.1408 24.2853C23.0249 24.2853 22.9853 24.1956 23.053 24.086C23.1207 23.9764 23.2155 23.8866 23.2638 23.8866C23.3122 23.8866 23.3516 23.9764 23.3516 24.086ZM28.0486 24.3876C28.1945 24.9705 27.8509 25.4814 27.3128 25.4814C26.8479 25.4814 26.5927 24.5989 26.9373 24.1831C27.3255 23.7146 27.9067 23.8215 28.0486 24.3876ZM76.0079 24.2832C76.0775 24.396 75.9977 24.4295 75.8205 24.3615C75.4757 24.2289 75.4126 24.086 75.6989 24.086C75.802 24.086 75.941 24.1747 76.0079 24.2832ZM82.3799 24.8834C82.3799 25.4557 82.2993 25.5927 81.9308 25.6449C81.6105 25.6906 81.4315 25.5761 81.3073 25.2462C81.0695 24.6157 81.3941 24.0451 81.9455 24.1237C82.2975 24.1739 82.3799 24.318 82.3799 24.8834ZM79.0552 24.5246C79.3849 24.8547 79.354 25.2841 78.9704 25.7085C78.7241 25.981 78.5575 26.0189 78.2736 25.8668C77.6483 25.5317 77.9033 24.2853 78.5973 24.2853C78.7178 24.2853 78.9238 24.393 79.0552 24.5246ZM23.6626 25.1501C23.8201 25.0895 23.9489 25.1298 23.9489 25.2394C23.9489 25.4087 23.5091 25.6808 23.2358 25.6808C23.19 25.6808 23.1647 25.3891 23.1796 25.0329C23.1985 24.584 23.2328 24.5194 23.2915 24.8226C23.3463 25.1043 23.4784 25.2209 23.6626 25.1501ZM75.7015 24.7728C76.072 25.2197 75.8792 25.9701 75.3758 26.0418C74.8008 26.1238 74.4144 25.4462 74.7152 24.8834C74.966 24.4143 75.367 24.3693 75.7015 24.7728ZM72.508 25.0505C72.9215 25.8241 72.2161 26.7663 71.6041 26.2579C71.0688 25.813 71.3961 24.684 72.0604 24.684C72.1988 24.684 72.4003 24.8489 72.508 25.0505ZM69.1317 25.1715C69.454 25.5604 69.322 26.288 68.8803 26.5575C68.5928 26.733 68.4626 26.6993 68.2332 26.3903C67.8641 25.8925 67.8709 25.5855 68.2591 25.1966C68.6467 24.8084 68.8267 24.8033 69.1317 25.1715ZM65.8418 25.3959C66.2233 25.7781 66.2368 26.0899 65.8926 26.5615C65.5072 27.0892 64.8739 26.8893 64.7965 26.2153C64.7345 25.6774 65.035 25.0827 65.3684 25.0827C65.4566 25.0827 65.6696 25.2237 65.8418 25.3959ZM62.7702 26.1618C62.7702 26.794 62.2466 27.22 61.8078 26.9447C61.0196 26.4501 61.5739 25.0536 62.3857 25.4888C62.5976 25.6025 62.7702 25.9045 62.7702 26.1618ZM23.7068 30.2966C23.5079 30.4231 23.5063 30.4598 23.7 30.4622C24.0641 30.4666 24.0325 32.1846 23.6658 32.3256C23.4894 32.3933 23.4241 32.5935 23.4928 32.8564C23.5609 33.1172 23.711 33.2372 23.885 33.1704C24.1129 33.0827 24.1555 33.2968 24.1075 34.2896C24.0709 35.0495 23.9537 35.5484 23.7994 35.5993C23.6313 35.6549 23.5949 35.563 23.6875 35.3162C23.8079 34.9943 23.7842 34.9833 23.4884 35.2241C23.175 35.4795 23.1525 35.1922 23.1525 30.9538C23.1525 26.9064 23.1906 26.3678 23.5009 26.0237C23.8352 25.6531 23.8517 25.7284 23.9059 27.8858C23.9479 29.5502 23.8961 30.1764 23.7068 30.2966ZM59.2862 26.4782C59.2862 27.0896 59.2245 27.1759 58.7885 27.1759C58.4192 27.1759 58.2739 27.0563 58.2253 26.7128C58.1238 25.9954 58.3386 25.6457 58.8375 25.7167C59.2054 25.7689 59.2862 25.9061 59.2862 26.4782ZM55.9992 26.1766C56.3969 26.6564 56.0844 27.475 55.5036 27.475C55.1463 27.475 54.9794 27.3394 54.8879 26.974C54.7555 26.4455 55.0736 25.8801 55.5036 25.8801C55.641 25.8801 55.864 26.0135 55.9992 26.1766ZM52.7165 26.8769C52.7165 27.4883 52.6547 27.5746 52.2188 27.5746C51.8495 27.5746 51.7041 27.455 51.6555 27.1115C51.554 26.3941 51.7688 26.0444 52.2677 26.1154C52.6356 26.1676 52.7165 26.3048 52.7165 26.8769ZM49.4294 26.5753C49.7376 26.9471 49.5425 27.7883 49.1095 27.9548C48.4159 28.2213 47.9134 27.0814 48.476 26.5181C48.7971 26.1965 49.1322 26.2167 49.4294 26.5753ZM46.0073 26.7174C46.5023 27.213 46.1602 28.2724 45.5055 28.2724C45.3607 28.2724 45.1403 28.0485 45.0159 27.7748C44.8288 27.3637 44.8523 27.2078 45.1505 26.8777C45.5702 26.4134 45.6826 26.3923 46.0073 26.7174ZM35.7944 26.8769C35.7267 26.9865 35.5646 27.0749 35.4342 27.0733C35.2917 27.0713 35.3164 26.9929 35.4957 26.8769C35.8782 26.6293 35.9471 26.6293 35.7944 26.8769ZM42.959 27.268C43.1049 27.7283 42.7577 28.4717 42.397 28.4717C41.8338 28.4717 41.4003 27.4102 41.8001 27.0099C42.0886 26.721 42.8385 26.8881 42.959 27.268ZM39.642 27.6354C39.7145 28.1478 39.3711 28.6711 38.9624 28.6711C38.5222 28.6711 38.2345 27.9378 38.4884 27.4628C38.787 26.9042 39.5546 27.019 39.642 27.6354ZM36.297 27.5806C36.6494 28.0058 36.2445 28.8704 35.6928 28.8704C35.2039 28.8704 35.009 28.454 35.1794 27.7736C35.3215 27.2062 35.9035 27.1058 36.297 27.5806ZM33.0072 27.8737C33.2112 28.5178 32.9357 29.0698 32.4099 29.0698C31.8465 29.0698 31.5935 28.4701 31.9082 27.8812C32.1864 27.3607 32.8431 27.3563 33.0072 27.8737ZM90.8065 28.0341C90.8798 28.552 90.5344 29.0698 90.1155 29.0698C89.6658 29.0698 89.3357 28.149 89.6495 27.7702C90.0253 27.3169 90.7277 27.4769 90.8065 28.0341ZM29.6228 28.4745C29.6228 29.0829 29.5608 29.1694 29.1251 29.1694C28.5523 29.1694 28.3277 28.4548 28.743 27.9538C29.1702 27.4385 29.6228 27.7062 29.6228 28.4745ZM87.4565 28.073C87.7349 28.5939 87.3903 29.2691 86.846 29.2691C86.3674 29.2691 86.1747 28.8479 86.3439 28.1723C86.497 27.5615 87.1519 27.5031 87.4565 28.073ZM84.0323 28.1129C84.6216 28.703 83.9712 29.841 83.2621 29.4611C82.6274 29.121 82.873 27.8737 83.5744 27.8737C83.6949 27.8737 83.9009 27.9813 84.0323 28.1129ZM64.6601 28.2702C64.7298 28.383 64.6499 28.4165 64.4727 28.3485C64.1279 28.2159 64.0648 28.073 64.3511 28.073C64.4542 28.073 64.5932 28.1617 64.6601 28.2702ZM80.5718 28.194C80.9742 28.3487 80.9851 29.3379 80.5882 29.6678C79.9575 30.1919 79.3355 28.9087 79.9312 28.3122C80.2103 28.0327 80.1709 28.0399 80.5718 28.194ZM77.3164 28.4787C78.0566 28.8754 77.5774 30.291 76.8036 29.9937C76.3584 29.8225 76.2236 29.3138 76.4765 28.758C76.7261 28.2092 76.7801 28.1914 77.3164 28.4787ZM74.1828 28.9013C74.289 29.0696 74.3144 29.4513 74.2398 29.7495C74.1377 30.1566 73.9993 30.276 73.6847 30.229C73.1032 30.1419 72.8753 29.4268 73.2555 28.883C73.5832 28.4145 73.8798 28.4205 74.1828 28.9013ZM70.9304 29.1668C71.3105 29.6253 71.0216 30.0665 70.3415 30.0665C69.842 30.0665 69.7381 29.9864 69.7381 29.6014C69.7381 29.3455 69.7978 29.0763 69.8709 29.0034C70.1026 28.7713 70.676 28.8598 70.9304 29.1668ZM67.6264 29.3851C67.846 29.9581 67.7544 30.0665 67.0505 30.0665C66.2888 30.0665 66.2553 30.0248 66.5597 29.4553C66.8084 28.9902 67.4586 28.9474 67.6264 29.3851ZM64.3708 29.6826C64.5578 30.0326 64.5283 30.1126 64.1787 30.2043C63.9515 30.2637 63.7656 30.4439 63.7656 30.6048C63.7656 31.0611 63.2757 30.7864 63.2028 30.2892C63.071 29.3897 63.9659 28.925 64.3708 29.6826ZM54.2096 29.5448C54.2096 29.5869 54.0302 29.6682 53.8112 29.7256C53.592 29.783 53.4628 29.7485 53.5243 29.6493C53.6315 29.4756 54.2096 29.3875 54.2096 29.5448ZM60.9386 29.7077C61.2601 30.0296 61.2412 30.7622 60.9042 31.0423C60.2816 31.5596 59.5631 30.6528 59.979 29.8747C60.2239 29.4164 60.585 29.3536 60.9386 29.7077ZM57.8003 30.0799C57.9715 30.4004 57.95 30.5998 57.7031 30.9769C57.3464 31.5222 57.1829 31.5686 56.8375 31.2227C56.3475 30.7321 56.6834 29.6678 57.3282 29.6678C57.4666 29.6678 57.679 29.8532 57.8003 30.0799ZM54.6078 30.7469C54.6078 31.379 54.0842 31.805 53.6454 31.5297C52.8572 31.0352 53.4115 29.6387 54.2233 30.0739C54.4352 30.1875 54.6078 30.4895 54.6078 30.7469ZM51.1851 31.1263C51.1341 31.6539 51.04 31.761 50.6261 31.761C50.2285 31.761 50.1154 31.6484 50.0643 31.2008C49.9767 30.4365 50.3462 30.0093 50.8576 30.2832C51.1435 30.4363 51.2303 30.6602 51.1851 31.1263ZM47.957 30.9662C48.1029 31.5491 47.7593 32.06 47.2212 32.06C46.7563 32.06 46.5011 31.1775 46.8457 30.7616C47.2339 30.2932 47.815 30.4 47.957 30.9662ZM24.8448 30.8639C24.9124 30.9736 24.8728 31.0633 24.757 31.0633C24.6411 31.0633 24.5461 30.9736 24.5461 30.8639C24.5461 30.7543 24.5855 30.6646 24.6339 30.6646C24.6823 30.6646 24.7771 30.7543 24.8448 30.8639ZM44.6153 31.399C44.6611 31.8716 44.5739 32.0885 44.2739 32.2494C43.9369 32.43 43.8184 32.3854 43.5512 31.9771C43.1364 31.3431 43.4638 30.6087 44.1196 30.7022C44.4459 30.7489 44.5694 30.9223 44.6153 31.399ZM41.2293 31.1031C41.5819 31.4562 41.5204 31.951 41.0739 32.3557C40.7509 32.6481 40.6245 32.6674 40.3771 32.4619C39.833 32.0098 40.1159 30.8639 40.7714 30.8639C40.8919 30.8639 41.0979 30.9716 41.2293 31.1031ZM37.8449 31.3025C38.2857 31.7438 38.0107 32.8574 37.4609 32.8574C37.0904 32.8574 36.6847 32.192 36.8099 31.7899C37.0229 31.1057 37.4483 30.9054 37.8449 31.3025ZM89.1372 31.2441C89.1987 31.3433 89.0695 31.3778 88.8503 31.3204C88.3855 31.1986 88.3267 31.0633 88.7388 31.0633C88.8967 31.0633 89.0759 31.1446 89.1372 31.2441ZM34.5857 31.5758C34.7577 31.7482 34.8985 32.011 34.8985 32.1597C34.8985 32.4456 34.3733 33.0568 34.1278 33.0568C33.8423 33.0568 33.5049 32.5709 33.5049 32.1597C33.5049 31.7484 33.8423 31.2626 34.1278 31.2626C34.2075 31.2626 34.4135 31.4036 34.5857 31.5758ZM31.5141 32.3417C31.5141 32.9746 30.9905 33.4001 30.5517 33.1236C30.0811 32.8267 30.0287 32.2927 30.4267 31.8523C30.8631 31.3695 31.5141 31.6625 31.5141 32.3417ZM88.5424 32.2771C88.2427 32.8572 87.8547 32.9049 87.8547 32.3614C87.8547 31.9964 88.4372 31.4293 88.6664 31.5712C88.7687 31.6344 88.7142 31.9442 88.5424 32.2771ZM85.7739 32.1463C86.1866 32.7771 85.8573 33.5109 85.2033 33.4178C84.6973 33.3456 84.4916 32.4151 84.8784 31.9484C85.2125 31.5451 85.409 31.5886 85.7739 32.1463ZM28.1296 32.2594C28.4305 32.8221 28.044 33.4997 27.4691 33.4178C27.0251 33.3544 26.795 32.7131 27.0128 32.1451C27.1732 31.7265 27.8836 31.7991 28.1296 32.2594ZM82.6011 32.5753C82.7727 33.2605 82.2352 33.8496 81.7291 33.5304C81.2901 33.2535 81.1834 32.7219 81.492 32.3495C81.8798 31.8814 82.4566 31.9988 82.6011 32.5753ZM79.1946 33.0568C79.1946 33.6682 79.1329 33.7545 78.6969 33.7545C78.3276 33.7545 78.1822 33.6349 78.1337 33.2914C78.0321 32.5739 78.2469 32.2243 78.7458 32.2952C79.1137 32.3475 79.1946 32.4846 79.1946 33.0568ZM75.9869 32.9073C76.2684 33.355 75.9386 33.9285 75.3489 34.0166C75.0375 34.0631 74.895 33.9461 74.7996 33.5655C74.5615 32.6158 75.4825 32.1053 75.9869 32.9073ZM72.4094 32.7791C72.7994 32.929 72.8277 33.9188 72.451 34.2319C71.8432 34.7371 71.2326 33.9668 71.5532 33.0992C71.7236 32.6381 71.8852 32.5777 72.4094 32.7791ZM77.7015 33.5697C77.7015 34.5248 77.0769 34.4674 77.0019 33.5053C76.9615 32.9858 77.0258 32.8574 77.3264 32.8574C77.6238 32.8574 77.7015 33.0049 77.7015 33.5697ZM58.9876 33.2561C58.8233 33.3624 58.5994 33.4493 58.4899 33.4493C58.3804 33.4493 58.4252 33.3624 58.5894 33.2561C58.7537 33.1499 58.9776 33.0629 59.0871 33.0629C59.1966 33.0629 59.1518 33.1499 58.9876 33.2561ZM62.7702 34.2654C62.7702 34.9189 62.5279 35.1266 61.9721 34.95C61.4614 34.7877 61.4262 33.7585 61.9219 33.4806C62.3961 33.2149 62.7702 33.5611 62.7702 34.2654ZM65.0961 33.8916C65.0326 34.0505 64.9854 34.0033 64.9758 33.771C64.9673 33.5609 65.0143 33.4433 65.0803 33.5095C65.1464 33.5757 65.1536 33.7477 65.0961 33.8916ZM59.4853 34.3308C59.4853 35.0483 58.9605 35.4414 58.5066 35.0642C57.8849 34.5475 58.2928 33.5833 59.0847 33.6971C59.3806 33.7395 59.4853 33.9054 59.4853 34.3308ZM56.2004 34.2529C56.5012 34.8156 56.1148 35.4932 55.5399 35.4113C55.0959 35.3479 54.8658 34.7066 55.0836 34.1386C55.244 33.72 55.9544 33.7926 56.2004 34.2529ZM45.9932 34.1739C45.9271 34.2401 45.7553 34.2473 45.6118 34.1897C45.4529 34.1261 45.5001 34.0788 45.732 34.0693C45.9418 34.0607 46.0593 34.1077 45.9932 34.1739ZM52.8138 34.35C53.2116 34.8298 52.899 35.6483 52.3183 35.6483C51.9609 35.6483 51.7941 35.5128 51.7025 35.1474C51.5701 34.6189 51.8883 34.0535 52.3183 34.0535C52.4557 34.0535 52.6786 34.1869 52.8138 34.35ZM42.8079 34.3733C42.7418 34.4395 42.57 34.4466 42.4264 34.389C42.2676 34.3254 42.3147 34.2782 42.5467 34.2686C42.7565 34.26 42.874 34.3071 42.8079 34.3733ZM49.3157 34.3739C49.7181 34.5286 49.729 35.5177 49.332 35.8477C48.7013 36.3718 48.0794 35.0885 48.6751 34.4921C48.9542 34.2126 48.9148 34.2198 49.3157 34.3739ZM57.9076 34.7399C57.9747 35.0078 57.9683 35.3266 57.8932 35.4482C57.6486 35.8443 57.3067 35.5339 57.2743 34.886C57.2359 34.1205 57.724 34.0079 57.9076 34.7399ZM22.5537 35.2506C22.3793 35.3587 22.3747 35.4368 22.5372 35.5375C22.6951 35.6352 22.6612 35.8443 22.4223 36.2492C22.2364 36.5647 21.9971 36.7689 21.8908 36.7031C21.7844 36.6373 21.761 36.6863 21.8386 36.8121C21.916 36.9377 21.9053 37.1736 21.8145 37.336C21.674 37.5876 21.615 37.5766 21.4199 37.2639C21.2296 36.9587 21.3068 36.723 21.8728 35.8814C22.2483 35.3232 22.5656 34.751 22.5784 34.6095C22.5911 34.4682 22.6447 34.5212 22.6974 34.7273C22.7504 34.9335 22.6855 35.1691 22.5537 35.2506ZM46.2064 34.6914C46.7647 35.2504 46.2367 36.4383 45.5475 36.1736C45.1023 36.0024 44.9675 35.4936 45.2204 34.9378C45.4611 34.409 45.8317 34.3163 46.2064 34.6914ZM43.0609 35.5158C43.0609 36.4025 42.2445 36.7543 41.8592 36.0337C41.529 35.4157 42.1178 34.5589 42.6695 34.8545C42.8847 34.9699 43.0609 35.2676 43.0609 35.5158ZM5.94575 35.0277C5.88583 35.1248 5.96287 35.3092 6.11696 35.4374C6.33735 35.6206 6.44227 35.5933 6.60711 35.3104C6.7616 35.0455 6.81435 35.6206 6.80778 37.4923C6.80022 39.5566 6.74527 40.034 6.51453 40.034C6.16454 40.034 6.13866 40.3667 6.4793 40.4886C6.79902 40.6028 6.63896 40.7746 6.1309 40.8623C5.77972 40.9229 5.72875 40.8125 5.69889 39.925C5.67002 39.0662 5.72835 38.891 6.09706 38.7289C6.64414 38.4883 6.85477 36.9108 6.33974 36.9108C6.17012 36.9108 6.03136 36.9856 6.03136 37.0771C6.03136 37.1684 6.12095 37.2431 6.23044 37.2431C6.59417 37.2431 6.43609 37.7929 6.0429 37.896C5.5012 38.0377 5.43371 37.9111 5.43709 36.7613C5.43908 36.1182 5.50279 35.8469 5.61129 36.0185C5.73154 36.2083 5.82332 36.2229 5.91947 36.067C5.99493 35.9448 5.91649 35.7911 5.74528 35.7253C5.34054 35.5698 5.33994 34.8509 5.74448 34.8509C5.91509 34.8509 6.00568 34.9305 5.94575 35.0277ZM39.7794 35.4599C39.9206 35.9051 39.566 36.6451 39.2116 36.6451C38.5312 36.6451 38.2584 35.7011 38.7864 35.1727C39.1499 34.8087 39.6158 34.9434 39.7794 35.4599ZM0.855185 35.572C0.855185 35.796 0.976427 35.8624 1.25335 35.7899C1.57209 35.7065 1.65152 35.7839 1.65152 36.1772C1.65152 36.4475 1.56731 36.6166 1.46458 36.5528C1.36165 36.4892 1.27207 36.6184 1.2655 36.84C1.25873 37.0617 1.24738 37.4166 1.24001 37.6285C1.22608 38.0268 0.725781 38.5754 0.543221 38.3926C0.246587 38.0956 0.238026 36.8929 0.530679 36.5998C0.805813 36.3243 0.808201 36.2561 0.550986 36.0424C0.170537 35.7263 0.173921 35.2496 0.55656 35.2496C0.720804 35.2496 0.855185 35.3946 0.855185 35.572ZM29.573 35.3816C29.4362 35.437 29.2123 35.437 29.0753 35.3816C28.9385 35.3264 29.0504 35.2811 29.3241 35.2811C29.5979 35.2811 29.71 35.3264 29.573 35.3816ZM36.3916 36.047C36.3916 36.6124 36.3092 36.7565 35.9572 36.8067C35.6793 36.8462 35.4436 36.7206 35.303 36.4579C34.9958 35.8828 35.3749 35.2044 35.9572 35.2873C36.3092 35.3375 36.3916 35.4817 36.3916 36.047ZM33.184 35.8975C33.4852 36.3765 33.1077 36.9441 32.4878 36.9441C32.1424 36.9441 31.9938 36.8181 31.9467 36.4846C31.8163 35.5636 32.7078 35.1406 33.184 35.8975ZM90.7414 36.2464C90.7414 36.8185 90.6606 36.9557 90.2927 37.0079C89.7639 37.083 89.5473 36.6686 89.7315 35.934C89.8282 35.5486 89.968 35.4386 90.3005 35.4859C90.6598 35.5371 90.7414 35.6778 90.7414 36.2464ZM23.6503 35.8477C23.7179 35.9573 23.6335 36.047 23.4629 36.047C23.2923 36.047 23.1525 35.9573 23.1525 35.8477C23.1525 35.738 23.2368 35.6483 23.3399 35.6483C23.443 35.6483 23.5826 35.738 23.6503 35.8477ZM29.6825 35.8875C30.048 36.2536 29.9668 37.0053 29.537 37.2357C29.2469 37.3912 29.0761 37.3649 28.8402 37.1289C28.4739 36.7619 28.4539 36.5578 28.7339 36.0339C28.9688 35.5945 29.3337 35.5383 29.6825 35.8875ZM38.1678 36.1559C38.3149 36.7428 38.1812 37.0438 37.7734 37.0438C37.5783 37.0438 37.4866 36.8207 37.4866 36.3461C37.4866 35.5146 37.9731 35.3788 38.1678 36.1559ZM77.4484 35.9681C77.3823 36.0343 77.2105 36.0414 77.067 35.9838C76.9081 35.9202 76.9553 35.873 77.1872 35.8634C77.397 35.8548 77.5145 35.9019 77.4484 35.9681ZM84.2712 36.2464C84.572 36.8091 84.1856 37.4867 83.6106 37.4048C82.8372 37.2946 83.0046 35.8477 83.7908 35.8477C83.9379 35.8477 84.1539 36.0271 84.2712 36.2464ZM74.317 36.2464C74.4813 36.3526 74.5261 36.4395 74.4166 36.4395C74.3071 36.4395 74.0831 36.3526 73.9189 36.2464C73.7546 36.1401 73.7098 36.0532 73.8193 36.0532C73.9288 36.0532 74.1528 36.1401 74.317 36.2464ZM80.847 36.2862C81.4363 36.8763 80.7859 38.0144 80.0767 37.6344C79.6481 37.4048 79.5896 37.0103 79.8983 36.4326C80.1333 35.9932 80.4982 35.937 80.847 36.2862ZM23.9489 36.5667C23.9489 36.6098 23.8145 36.6451 23.6503 36.6451C23.486 36.6451 23.3516 36.5582 23.3516 36.4519C23.3516 36.3459 23.486 36.3106 23.6503 36.3736C23.8145 36.4368 23.9489 36.5237 23.9489 36.5667ZM77.4625 36.4856C78.0582 37.0821 77.4363 38.3653 76.8056 37.8412C76.3162 37.4345 76.5388 36.2464 77.1042 36.2464C77.1699 36.2464 77.3312 36.354 77.4625 36.4856ZM23.1243 52.6392L23.1525 56.9712L22.7046 57.0566C22.4583 57.1036 20.877 57.2356 19.1906 57.3496C17.5043 57.4638 16.0514 57.6305 15.962 57.72C15.7896 57.8926 10.8812 57.5161 10.6802 57.3147C10.5452 57.1794 10.5758 57.1249 14.7936 50.0016C16.5139 47.096 19.0313 42.8395 20.3877 40.5428L22.8539 36.3668L22.975 42.3369C23.0415 45.6204 23.1087 50.2565 23.1243 52.6392ZM74.5161 37.3255C74.5161 37.9576 73.9925 38.3836 73.5537 38.1083C72.7656 37.6137 73.3198 36.2173 74.1317 36.6525C74.3435 36.7661 74.5161 37.0681 74.5161 37.3255ZM70.7305 37.891C70.7337 38.4813 70.5559 38.5804 70.1761 38.2C69.8297 37.8531 69.8677 37.1738 70.2257 37.3113C70.4279 37.389 70.4819 37.3209 70.406 37.0834C70.3139 36.7948 70.3296 36.789 70.5125 37.0438C70.6308 37.2082 70.7287 37.5896 70.7305 37.891ZM63.7254 38.4891L63.6573 38.9376L63.4059 38.4891C63.2032 38.1276 63.2032 37.9534 63.4059 37.592L63.6573 37.1435L63.7254 37.592C63.7626 37.8388 63.7626 38.2423 63.7254 38.4891ZM61.147 37.7913C61.3441 38.1681 61.1435 38.9117 60.7845 39.1338C60.4652 39.3315 59.983 38.863 59.983 38.3551C59.983 37.5296 60.8024 37.1329 61.147 37.7913ZM64.4538 37.6281C64.5169 37.7301 64.4773 37.8699 64.366 37.9389C64.2547 38.0076 64.1638 37.9241 64.1638 37.7533C64.1638 37.403 64.2832 37.3516 64.4538 37.6281ZM21.2587 37.837C21.4231 38.1033 20.9887 38.8776 20.7558 38.7335C20.6531 38.6699 20.6188 38.748 20.6799 38.9071C20.7408 39.0662 20.6951 39.2556 20.578 39.3279C20.4611 39.4003 20.3654 39.3592 20.3654 39.2366C20.3654 39.114 20.275 39.0696 20.1647 39.138C20.0544 39.2063 20.0068 39.4982 20.059 39.7868C20.1247 40.1497 19.9937 40.522 19.6339 40.9941C19.1794 41.591 19.0902 41.6342 18.925 41.3388C18.7827 41.0838 18.9119 40.7359 19.4512 39.9224C19.8446 39.3293 20.1663 38.7947 20.1663 38.7343C20.1663 38.5168 20.8131 37.6418 20.9738 37.6418C21.0642 37.6418 21.1924 37.7297 21.2587 37.837ZM57.7533 37.881C58.2482 38.3766 57.9062 39.436 57.2514 39.436C56.819 39.436 56.5202 38.5596 56.7841 38.0656C57.0378 37.5912 57.3957 37.523 57.7533 37.881ZM47.6398 37.9195C47.6398 37.9626 47.5009 38.0513 47.3308 38.1167C47.1537 38.1847 47.0738 38.1512 47.1435 38.0383C47.2604 37.8488 47.6398 37.758 47.6398 37.9195ZM54.4941 38.1544C54.8823 38.5433 54.8891 38.8503 54.52 39.3481C54.2906 39.6571 54.1604 39.6908 53.8729 39.5153C53.4312 39.2458 53.2992 38.5182 53.6215 38.1292C53.9265 37.761 54.1065 37.7662 54.4941 38.1544ZM51.4224 38.9203C51.4224 39.5532 50.8988 39.9786 50.46 39.7021C49.9894 39.4053 49.937 38.8712 50.335 38.4309C50.7714 37.948 51.4224 38.2411 51.4224 38.9203ZM2.88922 38.8744C2.58502 39.179 2.36066 38.9544 2.52928 38.5142C2.62882 38.2542 2.71522 38.2285 2.89241 38.4059C3.06939 38.5832 3.0688 38.6946 2.88922 38.8744ZM41.2152 38.5596C41.1491 38.6258 40.9773 38.633 40.8338 38.5754C40.6749 38.5118 40.7221 38.4645 40.954 38.455C41.1638 38.4464 41.2813 38.4935 41.2152 38.5596ZM47.9385 39.2366C47.9385 39.848 47.8767 39.9344 47.4407 39.9344C47.0714 39.9344 46.9261 39.8147 46.8775 39.4713C46.776 38.7538 46.9908 38.4041 47.4897 38.4751C47.8576 38.5273 47.9385 38.6645 47.9385 39.2366ZM88.49 38.7582C88.4561 38.8569 88.6353 38.989 88.8882 39.0518C89.2967 39.1533 89.2758 39.1772 88.7008 39.2665C88.2455 39.3371 88.0538 39.2885 88.0538 39.1025C88.0538 38.9569 87.9015 38.8379 87.7154 38.8379C87.4522 38.8379 87.4301 38.8912 87.6158 39.0771C87.9694 39.4312 87.9069 39.6353 87.4448 39.6353C87.2194 39.6353 87.0902 39.5456 87.1579 39.436C87.2256 39.3263 87.186 39.2366 87.0701 39.2366C86.706 39.2366 86.8402 38.9418 87.3072 38.7153C87.8229 38.4655 88.581 38.4929 88.49 38.7582ZM89.7816 38.6786C90.1454 38.8102 90.4428 38.9994 90.4428 39.0987C90.4428 39.198 90.3001 39.2245 90.1257 39.1575C89.9513 39.0905 89.5929 38.9815 89.3293 38.9151C89.0657 38.8489 88.8501 38.7147 88.8501 38.6171C88.8501 38.383 88.9911 38.3924 89.7816 38.6786ZM44.7308 39.0871C45.0123 39.5349 44.6824 40.1084 44.0928 40.1965C43.7814 40.243 43.6388 40.1259 43.5435 39.7454C43.3054 38.7957 44.2263 38.2851 44.7308 39.0871ZM1.65152 39.6353C1.65152 40.2559 1.57428 40.4363 1.30312 40.4485C1.09508 40.4579 1.05487 40.5047 1.20358 40.5647C1.34055 40.6201 1.45244 40.8288 1.45244 41.0288C1.45244 41.2971 1.34553 41.3641 1.04392 41.2852C0.69114 41.1929 0.652717 41.2467 0.761417 41.6809C0.833286 41.9671 0.79327 42.2416 0.668644 42.3188C0.51515 42.4139 0.463588 41.9741 0.496437 40.8454C0.536851 39.4519 0.590603 39.2366 0.898187 39.2366C1.09349 39.2366 1.25335 39.1469 1.25335 39.0373C1.25335 38.9276 1.34294 38.8379 1.45244 38.8379C1.56193 38.8379 1.65152 39.1968 1.65152 39.6353ZM41.4511 39.2865C41.6655 39.8548 41.3745 40.4327 40.874 40.4327C40.3392 40.4327 40.0673 39.8694 40.3269 39.2992C40.5947 38.7107 41.2313 38.7036 41.4511 39.2865ZM24.1316 42.917C24.1107 45.6902 24.0379 46.7846 23.8762 46.7545C23.752 46.7312 23.6726 46.8245 23.7 46.9615C23.7273 47.0986 23.6602 47.2106 23.5507 47.2106C23.4247 47.2106 23.3516 45.7536 23.3516 43.2382C23.3516 39.6226 23.3829 39.2578 23.7 39.1746C23.8917 39.1246 24.0737 39.0732 24.1046 39.0604C24.1356 39.0476 24.1478 40.7832 24.1316 42.917ZM31.261 39.1577C31.1949 39.2239 31.0231 39.231 30.8796 39.1734C30.7207 39.1098 30.7679 39.0626 30.9998 39.053C31.2097 39.0445 31.3271 39.0915 31.261 39.1577ZM38.0878 39.4436C38.5037 40.2216 37.7852 41.1285 37.1627 40.6112C36.6273 40.1662 36.9546 39.0373 37.619 39.0373C37.7573 39.0373 37.9683 39.2201 38.0878 39.4436ZM34.6596 39.4758C35.1495 39.9665 34.8137 41.0308 34.1688 41.0308C34.0305 41.0308 33.8181 40.8454 33.6968 40.6187C33.5256 40.2982 33.5471 40.0988 33.794 39.7216C34.1507 39.1764 34.3142 39.13 34.6596 39.4758ZM86.8593 39.4146C86.8593 39.5125 86.7295 39.6425 86.5708 39.7035C86.3779 39.7777 86.319 39.7187 86.393 39.5255C86.5139 39.2101 86.8593 39.128 86.8593 39.4146ZM28.3287 40.5155C28.3287 41.3788 27.5093 41.7325 27.1342 41.0308C26.9783 40.7391 26.9879 40.5117 27.1695 40.1835C27.306 39.9367 27.398 39.665 27.3737 39.5797C27.3492 39.4942 27.5543 39.5717 27.829 39.7522C28.1101 39.9366 28.3287 40.2705 28.3287 40.5155ZM31.617 40.045C31.7581 40.4901 31.4036 41.2301 31.0492 41.2301C30.3512 41.2301 30.0442 40.0087 30.656 39.666C31.0884 39.4236 31.4675 39.5731 31.617 40.045ZM82.6785 39.6353C83.0425 39.8708 82.7281 39.8708 82.1808 39.6353C81.9182 39.5223 81.8844 39.4603 82.0813 39.4531C82.2455 39.4469 82.5143 39.5291 82.6785 39.6353ZM88.9333 39.557C89.3658 39.7232 89.3588 40.9457 88.9244 41.1125C88.2324 41.3785 87.7309 40.2378 88.2927 39.6752C88.5718 39.3957 88.5324 39.4029 88.9333 39.557ZM69.987 40.0815C70.3977 40.2001 70.7335 40.3725 70.7335 40.4646C70.7335 40.6823 70.723 40.6811 69.7829 40.349C69.0148 40.0775 68.9625 40.0859 68.5287 40.5484C68.0787 41.0278 67.3491 41.2068 67.3491 40.8376C67.3491 40.7316 67.1922 40.6939 67.0007 40.7541C66.7935 40.8191 66.8832 40.6648 67.2227 40.3731C67.858 39.8269 68.7728 39.7304 69.987 40.0815ZM82.6835 40.339C82.8792 40.5753 82.8844 40.7577 82.7058 41.15C82.2481 42.1559 81.1603 41.3655 81.5617 40.3185C81.7054 39.9429 82.3652 39.9549 82.6835 40.339ZM85.8639 40.6321C85.8639 41.0972 85.7755 41.2301 85.4657 41.2301C85.0078 41.2301 84.963 40.9935 85.3146 40.4299C85.6658 39.8668 85.8639 39.9395 85.8639 40.6321ZM50.3864 40.6231C50.2528 40.8374 50.1156 40.9847 50.0814 40.9506C49.9635 40.8324 50.2713 40.2334 50.4499 40.2334C50.5486 40.2334 50.5202 40.4088 50.3864 40.6231ZM67.7473 40.4327C67.7473 40.5424 67.8315 40.6321 67.9346 40.6321C68.0377 40.6321 68.1773 40.5424 68.245 40.4327C68.3127 40.3231 68.2283 40.2334 68.0576 40.2334C67.887 40.2334 67.7473 40.3231 67.7473 40.4327ZM79.4158 40.7487C79.5874 41.4339 79.0498 42.023 78.5438 41.7038C78.1048 41.4269 77.9981 40.8952 78.3067 40.5228C78.6945 40.0548 79.2712 40.1722 79.4158 40.7487ZM76.0092 41.2301C76.0092 41.8415 75.9475 41.9279 75.5115 41.9279C75.1422 41.9279 74.9969 41.8083 74.9483 41.4648C74.8468 40.7473 75.0616 40.3976 75.5605 40.4686C75.9284 40.5208 76.0092 40.658 76.0092 41.2301ZM72.6845 40.8713C73.2738 41.4614 72.6234 42.5995 71.9143 42.2195C71.2796 41.8794 71.5253 40.6321 72.2267 40.6321C72.3471 40.6321 72.5531 40.7397 72.6845 40.8713ZM4.87329 41.2734C4.73055 41.4163 4.63777 41.4281 4.63777 41.3033C4.63777 41.0372 4.87329 40.8013 5.00608 40.9345C5.06262 40.9911 5.00289 41.1436 4.87329 41.2734ZM6.03355 41.5318C6.17112 41.6976 6.42833 41.8098 6.60532 41.7809C6.80838 41.7478 6.95073 41.8942 6.99094 42.1771C7.03514 42.4892 6.95292 42.6256 6.72079 42.6256C6.50896 42.6256 6.42793 42.7326 6.49901 42.9182C6.56072 43.0791 6.5211 43.2665 6.41121 43.3347C6.28041 43.4156 6.28917 43.5528 6.43709 43.731C6.74388 44.1012 6.51812 44.4056 6.03116 44.278C5.49184 44.1369 5.38394 42.7153 5.88702 42.3814C6.06879 42.2608 6.04211 42.1673 5.7825 42.014C5.42415 41.8025 5.29734 41.2301 5.6089 41.2301C5.70486 41.2301 5.89598 41.3659 6.03355 41.5318ZM48.9613 41.5292C48.8984 41.6936 48.9337 41.8282 49.0396 41.8282C49.1457 41.8282 49.2325 41.6936 49.2325 41.5292C49.2325 41.1647 49.5749 41.1486 50.2862 41.4793C51.0155 41.8184 50.9667 42.0403 50.2108 41.8232C49.7955 41.704 49.4646 41.7247 49.1893 41.887C48.8692 42.076 48.7631 42.074 48.6922 41.878C48.6426 41.7411 48.4079 41.6316 48.1708 41.6352C47.7481 41.6414 47.7471 41.6474 48.1268 41.935C48.3999 42.1418 48.4519 42.2909 48.3032 42.4398C48.1545 42.5887 48.0101 42.5692 47.8144 42.3732C47.6617 42.2203 47.4254 42.1324 47.2894 42.1777C46.8696 42.3178 47.2305 41.696 47.7011 41.4682C48.3834 41.138 49.0981 41.1727 48.9613 41.5292ZM62.7304 41.4694C63.2203 41.96 62.8845 43.0243 62.2396 43.0243C62.1013 43.0243 61.8888 42.8389 61.7676 42.6122C61.5964 42.2917 61.6179 42.0923 61.8647 41.7152C62.2215 41.1699 62.385 41.1235 62.7304 41.4694ZM65.6633 42.0074C65.5902 42.2379 65.4471 42.4262 65.3449 42.4262C65.1313 42.4262 65.0913 41.564 65.2952 41.3597C65.538 41.1165 65.7996 41.577 65.6633 42.0074ZM53.0151 41.7498C53.0151 41.7929 52.7686 41.8268 52.4676 41.8252C52.0692 41.823 51.9966 41.7738 52.2006 41.6442C52.4543 41.4835 53.0151 41.5563 53.0151 41.7498ZM18.5326 42.8951C18.152 43.4563 18.0303 43.5259 17.8215 43.302C17.6168 43.0825 17.6525 42.9053 18.012 42.3561C18.3833 41.7887 18.4976 41.7235 18.7231 41.9494C18.9487 42.1753 18.918 42.3272 18.5326 42.8951ZM30.5551 42.0708C30.4123 42.2137 30.3196 42.2255 30.3196 42.1007C30.3196 41.9873 30.3793 41.8348 30.4523 41.7618C30.5252 41.6886 30.6313 41.6751 30.6879 41.7319C30.7444 41.7885 30.6847 41.941 30.5551 42.0708ZM59.547 42.3764C59.4974 42.9774 59.3973 43.1365 59.0366 43.1878C58.5108 43.2625 58.2912 42.8493 58.4722 42.1268C58.5643 41.7592 58.7294 41.6288 59.1029 41.6288C59.5659 41.6288 59.6036 41.6924 59.547 42.3764ZM67.8791 42.2767C67.8239 42.4139 67.7787 42.3016 67.7787 42.0275C67.7787 41.7534 67.8239 41.6414 67.8791 41.7784C67.9344 41.9155 67.9344 42.1398 67.8791 42.2767ZM56.3276 42.1276C56.5257 42.6443 56.2221 43.423 55.8228 43.423C55.2179 43.423 54.9084 42.8989 55.1716 42.3206C55.4214 41.7712 56.1449 41.6504 56.3276 42.1276ZM1.8506 42.5686C1.8506 42.8485 1.73075 43.0243 1.54023 43.0243C1.36962 43.0243 1.28759 43.118 1.35827 43.2324C1.42894 43.3468 1.37838 43.5711 1.24619 43.7308C1.07677 43.9351 1.07159 44.021 1.22906 44.021C1.3519 44.021 1.45244 44.1556 1.45244 44.3201C1.45244 44.5061 1.2645 44.6191 0.954727 44.6191C0.489469 44.6191 0.457018 44.5535 0.457018 43.6106C0.457018 43.056 0.536452 42.6511 0.633406 42.7113C0.730559 42.7713 0.851402 42.6613 0.902368 42.4667C1.04531 41.9189 1.8506 42.0054 1.8506 42.5686ZM53.0151 42.4262C53.2934 42.9471 52.9488 43.6223 52.4045 43.6223C51.9259 43.6223 51.7332 43.2011 51.9024 42.5255C52.0555 41.9147 52.7105 41.8563 53.0151 42.4262ZM43.0609 42.3032C43.0609 42.3453 42.8397 42.4221 42.5692 42.4739C42.2988 42.5257 42.1248 42.4912 42.1827 42.3975C42.2847 42.2323 43.0609 42.1491 43.0609 42.3032ZM49.6285 42.5233C50.0223 42.9984 49.7141 43.8217 49.1425 43.8217C48.5695 43.8217 48.3137 43.227 48.6313 42.6332C48.8875 42.1537 49.2859 42.1099 49.6285 42.5233ZM39.7645 42.607C39.826 42.7063 39.6968 42.7408 39.4776 42.6834C39.0127 42.5616 38.954 42.4262 39.3661 42.4262C39.524 42.4262 39.7032 42.5076 39.7645 42.607ZM46.1304 42.5472C46.5204 42.6972 46.5486 43.6869 46.172 44.0001C45.4987 44.5595 44.8552 43.3008 45.4897 42.6655C45.7688 42.386 45.7294 42.3931 46.1304 42.5472ZM30.5501 42.8708C31.4255 43.2589 31.2182 43.4148 30.225 43.1154C29.7348 42.9679 29.2857 42.9254 29.2266 43.0211C29.1675 43.1168 29.3221 43.2342 29.57 43.2819C29.8997 43.3454 29.8469 43.3759 29.3739 43.3959C29.0181 43.4108 28.7269 43.3333 28.7269 43.2236C28.7269 43.114 28.5746 43.0243 28.3884 43.0243C28.1253 43.0243 28.1032 43.0775 28.2889 43.2635C28.4203 43.3951 28.5278 43.5745 28.5278 43.6622C28.5278 43.9198 27.9732 43.8448 27.8627 43.5725C27.7868 43.3849 27.7096 43.3973 27.5505 43.6223C27.366 43.8839 27.3391 43.8807 27.3363 43.5968C27.3289 42.8032 29.3614 42.3439 30.5501 42.8708ZM43.26 43.5053C43.26 44.1375 42.7364 44.5635 42.2976 44.2882C41.5094 43.7936 42.0637 42.3971 42.8756 42.8323C43.0874 42.9459 43.26 43.248 43.26 43.5053ZM39.7497 43.2466C40.1451 43.8119 39.8831 44.5194 39.2783 44.5194C38.6735 44.5194 38.4115 43.8119 38.8069 43.2466C39.1782 42.7159 39.3785 42.7159 39.7497 43.2466ZM36.6092 43.7246C36.7541 44.3035 36.4123 44.8184 35.8829 44.8184C35.4653 44.8184 35.2132 44.1995 35.3962 43.6223C35.5881 43.0167 36.4499 43.0893 36.6092 43.7246ZM33.2063 44.2204C33.2063 44.7858 33.1238 44.9299 32.7719 44.9801C32.2204 45.0587 31.8959 44.4881 32.1336 43.8576C32.2578 43.5276 32.4368 43.4132 32.7571 43.4589C33.1256 43.5111 33.2063 43.6481 33.2063 44.2204ZM90.9682 43.7224C91.1712 44.2521 90.8627 45.0178 90.446 45.0178C89.9102 45.0178 89.5692 44.3386 89.8456 43.8217C90.0956 43.3538 90.8029 43.2914 90.9682 43.7224ZM29.9986 44.0709C30.2998 44.5499 29.9224 45.1175 29.3024 45.1175C28.957 45.1175 28.8085 44.9915 28.7613 44.658C28.6309 43.737 29.5224 43.3139 29.9986 44.0709ZM80.8328 43.7427C80.7667 43.8089 80.5949 43.8161 80.4514 43.7585C80.2925 43.6949 80.3397 43.6477 80.5716 43.6381C80.7815 43.6295 80.8989 43.6766 80.8328 43.7427ZM87.6556 44.021C87.9564 44.5838 87.57 45.2614 86.9951 45.1795C86.2216 45.0692 86.3891 43.6223 87.1752 43.6223C87.3224 43.6223 87.5384 43.8018 87.6556 44.021ZM17.6302 44.0709C17.7504 44.4221 17.1802 45.2409 16.9254 45.083C16.7942 45.0018 16.7614 45.0756 16.8388 45.2777C16.9075 45.4568 16.8844 45.6521 16.7874 45.7119C16.3781 45.9653 16.3739 44.9933 16.7819 44.4195C17.2382 43.778 17.4942 43.6728 17.6302 44.0709ZM77.7833 43.9923C77.8412 44.086 77.6672 44.1205 77.3969 44.0687C77.1263 44.0169 76.9051 43.9401 76.9051 43.898C76.9051 43.7439 77.6813 43.8271 77.7833 43.9923ZM81.0502 44.4817C81.0881 44.6777 80.971 45.0638 80.7904 45.3399C80.5258 45.7442 80.4064 45.7957 80.1767 45.6047C79.5977 45.1236 79.9881 43.9337 80.6813 44.0673C80.8466 44.0992 81.0126 44.2856 81.0502 44.4817ZM77.6923 44.5085C78.0146 44.8974 77.8826 45.625 77.4408 45.8945C77.1534 46.07 77.0232 46.0363 76.7938 45.7273C76.4247 45.2295 76.4315 44.9225 76.8197 44.5336C77.2073 44.1454 77.3873 44.1403 77.6923 44.5085ZM83.4138 44.9642C83.3632 45.1581 83.3186 45.0477 83.3146 44.7188C83.3106 44.3898 83.3518 44.2312 83.4064 44.3661C83.4609 44.5011 83.4643 44.7702 83.4138 44.9642ZM84.1553 45.3535C83.6443 45.7277 83.5951 45.5461 84.0021 44.7871C84.3489 44.1405 84.3616 44.1351 84.4337 44.6079C84.48 44.9109 84.3747 45.1928 84.1553 45.3535ZM74.2012 44.5407C74.6159 44.7 74.6288 45.9286 74.2175 46.0867C73.7112 46.2811 73.3216 45.9976 73.3216 45.435C73.3216 45.1398 73.4291 44.7905 73.5605 44.659C73.8396 44.3795 73.8002 44.3867 74.2012 44.5407ZM0.855185 45.3286C0.855185 45.7195 1.04352 45.6894 1.43631 45.2357C1.75007 44.8737 1.76759 44.902 1.8082 45.8337C1.83985 46.5616 1.77893 46.8119 1.57069 46.8119C1.38873 46.8119 1.32701 46.9515 1.3947 47.2106C1.47473 47.5167 1.40087 47.6093 1.07756 47.6093C0.845629 47.6093 0.656102 47.6606 0.656102 47.7232C0.656102 47.9572 1.23603 48.4068 1.53784 48.4068C1.74071 48.4068 1.8506 48.586 1.8506 48.9169C1.8506 49.239 1.76938 49.3768 1.63022 49.2907C1.4819 49.1988 1.45363 49.2929 1.54401 49.5779C1.64196 49.8869 1.59379 50.0016 1.36623 50.0016C1.19462 50.0016 1.05427 50.0913 1.05427 50.2009C1.05427 50.3106 1.14386 50.4003 1.25335 50.4003C1.56472 50.4003 1.48648 50.9425 1.1568 51.0693C0.988969 51.1337 0.78033 51.0312 0.67382 50.832C0.428748 50.3735 0.426558 44.776 0.67163 44.9277C0.772565 44.9901 0.855185 45.1705 0.855185 45.3286ZM70.5671 45.078C70.4488 45.2207 70.4072 45.5489 70.4745 45.8068C70.5599 46.134 70.5273 46.233 70.3668 46.1336C70.1186 45.9801 70.0515 45.1691 70.2691 44.9514C70.5183 44.7016 70.7851 44.8151 70.5671 45.078ZM6.89618 45.458C7.03175 45.9773 6.85457 46.4132 6.50777 46.4132C6.35527 46.4132 6.23044 46.503 6.23044 46.6126C6.23044 46.7222 6.32003 46.8119 6.42953 46.8119C6.84461 46.8119 6.60671 47.1684 6.1309 47.2595C5.72417 47.3372 5.63319 47.276 5.63319 46.9238C5.63319 46.687 5.74528 46.3722 5.88205 46.2245C6.08113 46.0098 6.08113 45.9842 5.88205 46.0967C5.71322 46.1922 5.63319 46.0841 5.63319 45.7606C5.63319 45.1705 5.67898 45.1242 6.29634 45.0898C6.63817 45.0708 6.8251 45.1854 6.89618 45.458ZM57.7391 45.3376C57.673 45.4037 57.5012 45.4109 57.3577 45.3533C57.1988 45.2897 57.246 45.2425 57.4779 45.2329C57.6878 45.2243 57.8052 45.2714 57.7391 45.3376ZM63.9647 46.0145C63.9647 46.4531 63.8769 46.8119 63.7694 46.8119C63.4503 46.8119 63.2997 45.8381 63.5687 45.5136C63.9259 45.0826 63.9647 45.1318 63.9647 46.0145ZM54.5538 45.5369C54.4877 45.6031 54.3159 45.6103 54.1724 45.5527C54.0135 45.4891 54.0607 45.4418 54.2926 45.4322C54.5024 45.4237 54.6199 45.4707 54.5538 45.5369ZM61.3384 46.1509C61.384 46.6214 61.297 46.8407 61.0019 46.9987C60.6766 47.173 60.5484 47.1329 60.3017 46.7803C60.1355 46.5426 60.0268 46.2956 60.0603 46.2312C60.0935 46.1669 60.1789 45.951 60.25 45.7514C60.3344 45.5148 60.5355 45.4107 60.8283 45.4524C61.1701 45.501 61.2916 45.6673 61.3384 46.1509ZM64.6217 45.6838C64.678 45.8307 64.6442 46.0775 64.5466 46.232C64.4172 46.4364 64.368 46.3636 64.3658 45.9647C64.3627 45.3694 64.4602 45.2622 64.6217 45.6838ZM57.9962 46.0221C58.412 46.8002 57.6935 47.707 57.071 47.1897C56.5357 46.7448 56.863 45.6158 57.5273 45.6158C57.6657 45.6158 57.8767 45.7986 57.9962 46.0221ZM54.5986 46.1033C55.1192 46.7312 54.3521 48.0312 53.7921 47.4704C53.4752 47.153 53.5036 46.2059 53.8363 45.995C54.2136 45.7556 54.3235 45.7711 54.5986 46.1033ZM66.8878 46.2514C66.8243 46.4103 66.7771 46.363 66.7676 46.1308C66.759 45.9207 66.806 45.803 66.8721 45.8692C66.9382 45.9354 66.9454 46.1074 66.8878 46.2514ZM16.3126 46.3162C16.454 46.6848 16.0198 47.2553 15.7331 47.0779C15.619 47.0073 15.5848 47.045 15.6568 47.1618C15.7287 47.2786 15.7275 47.531 15.6541 47.723C15.5358 48.0312 15.5008 48.0196 15.3542 47.6229C15.2394 47.3117 15.2933 46.9958 15.5304 46.5943C15.9117 45.948 16.1404 45.8666 16.3126 46.3162ZM51.5253 46.6236C51.6665 47.0687 51.3119 47.8087 50.9576 47.8087C50.2596 47.8087 49.9526 46.5873 50.5644 46.2446C50.9968 46.0022 51.3758 46.1517 51.5253 46.6236ZM48.1375 47.0892C48.1375 47.8067 47.6128 48.1998 47.1588 47.8227C46.5371 47.3059 46.945 46.3417 47.737 46.4555C48.0328 46.498 48.1375 46.6638 48.1375 47.0892ZM44.7531 47.41C44.7531 48.0214 44.6914 48.1077 44.2554 48.1077C43.8861 48.1077 43.7408 47.9881 43.6922 47.6446C43.5907 46.9272 43.8055 46.5775 44.3044 46.6485C44.6723 46.7007 44.7531 46.8379 44.7531 47.41ZM76.706 46.8119C76.706 46.9216 76.6666 47.0113 76.6182 47.0113C76.5699 47.0113 76.4751 46.9216 76.4074 46.8119C76.3397 46.7023 76.3793 46.6126 76.4952 46.6126C76.6111 46.6126 76.706 46.7023 76.706 46.8119ZM41.466 47.1084C41.8598 47.5834 41.5517 48.4068 40.9801 48.4068C40.4071 48.4068 40.1513 47.8121 40.4688 47.2182C40.7251 46.7388 41.1234 46.6949 41.466 47.1084ZM31.3647 47.1433C31.228 47.1987 31.004 47.1987 30.867 47.1433C30.7303 47.0881 30.8421 47.0428 31.1159 47.0428C31.3896 47.0428 31.5017 47.0881 31.3647 47.1433ZM38.2751 47.3956C38.521 47.8553 38.3641 48.3491 37.8919 48.6023C37.468 48.8294 37.0884 48.5014 37.0884 47.9084C37.0884 47.0699 37.9112 46.7145 38.2751 47.3956ZM89.1944 47.1317C89.1283 47.1979 88.9564 47.2051 88.8129 47.1475C88.654 47.0839 88.7012 47.0366 88.9332 47.027C89.143 47.0185 89.2604 47.0655 89.1944 47.1317ZM34.8963 47.5071C35.2045 47.8789 35.0094 48.7201 34.5764 48.8866C33.8828 49.1531 33.3803 48.0132 33.9429 47.4499C34.264 47.1283 34.5991 47.1485 34.8963 47.5071ZM31.4742 47.6492C32.0303 48.206 31.5051 49.3963 30.8199 49.133C30.2851 48.9277 30.5459 47.41 31.1159 47.41C31.1816 47.41 31.3428 47.5176 31.4742 47.6492ZM89.2085 47.6492C89.5407 47.9819 89.5069 48.7072 89.145 49.008C88.7128 49.367 87.9947 48.7112 88.1774 48.1241C88.3867 47.4519 88.8145 47.2547 89.2085 47.6492ZM5.94715 48.2572C5.84243 48.8431 5.85338 48.8623 6.06142 48.4566C6.41002 47.7764 7.02678 47.8679 7.02678 48.5999C7.02678 49.0712 6.95909 49.1657 6.69351 49.0636C6.44864 48.9695 6.3919 49.0176 6.4789 49.245C6.5442 49.4151 6.50717 49.6447 6.39668 49.7554C6.2615 49.8907 6.26667 50.0004 6.4122 50.0905C6.53126 50.1642 6.62861 50.3686 6.62861 50.545C6.62861 50.7212 6.57207 50.8087 6.50299 50.7396C6.43371 50.6704 6.22188 50.6969 6.03216 50.7986C5.7186 50.9666 5.68356 50.8295 5.64991 49.2965C5.62463 48.1526 5.68515 47.6093 5.83785 47.6093C5.98298 47.6093 6.0218 47.8398 5.94715 48.2572ZM28.4316 48.2184C28.5728 48.6635 28.2182 49.4035 27.8639 49.4035C27.1834 49.4035 26.9106 48.4596 27.4386 47.9311C27.8021 47.5671 28.268 47.7018 28.4316 48.2184ZM85.9606 47.9341C86.139 48.1127 86.235 48.3892 86.174 48.5485C86.1129 48.7078 86.063 48.9109 86.063 48.9998C86.063 49.2889 85.4225 49.4165 85.1418 49.1832C84.8047 48.9031 84.7858 48.1705 85.1074 47.8486C85.4241 47.5314 85.5736 47.5466 85.9606 47.9341ZM76.1088 47.9654C76.1088 48.0515 75.9362 48.1219 75.7252 48.1219C75.5143 48.1219 75.3851 48.0515 75.4383 47.9654C75.4916 47.8793 75.664 47.8087 75.8219 47.8087C75.9798 47.8087 76.1088 47.8793 76.1088 47.9654ZM15.067 48.3196C15.1327 48.4911 14.9758 48.9418 14.7184 49.3212C14.3114 49.9208 14.2173 49.9711 13.9979 49.7063C13.7892 49.4547 13.8277 49.2809 14.2185 48.7064C14.7456 47.9311 14.8924 47.8643 15.067 48.3196ZM82.838 48.6248C82.9057 49.2071 82.4365 49.7055 81.9843 49.5317C81.6316 49.3961 81.5965 48.9412 81.8955 48.3816C82.185 47.8402 82.7639 47.9895 82.838 48.6248ZM78.758 48.82C78.4944 49.2687 78.3803 49.3455 78.3316 49.1073C78.2314 48.6185 78.446 48.2074 78.8014 48.2074C79.0807 48.2074 79.0757 48.2788 78.758 48.82ZM23.929 49.0429C23.9399 48.8993 24.0385 48.8373 24.148 48.9051C24.4671 49.1025 24.3789 49.3487 23.9489 49.4613C23.6102 49.55 23.5537 49.4715 23.5706 48.9362C23.5895 48.3326 23.5969 48.3272 23.7498 48.8055C23.8374 49.0796 23.918 49.1864 23.929 49.0429ZM76.2083 48.8055C76.3887 49.3742 76.1414 50.0016 75.7371 50.0016C75.3051 50.0016 74.9143 49.6228 74.9143 49.2042C74.9143 48.4363 75.9865 48.1059 76.2083 48.8055ZM0.783117 48.9051C0.846227 49.0696 0.933027 49.2042 0.976029 49.2042C1.01903 49.2042 1.05427 49.0696 1.05427 48.9051C1.05427 48.7407 0.967468 48.6061 0.861357 48.6061C0.755444 48.6061 0.720207 48.7407 0.783117 48.9051ZM72.8239 49.4063C72.8239 50.0147 72.762 50.1012 72.3262 50.1012C71.9252 50.1012 71.8158 49.9892 71.7628 49.5249C71.6941 48.9233 72.0069 48.568 72.5253 48.6589C72.7236 48.6936 72.8239 48.9446 72.8239 49.4063ZM62.9153 48.9259C62.8492 48.992 62.6774 48.9992 62.5339 48.9416C62.375 48.878 62.4222 48.8308 62.6541 48.8212C62.8639 48.8126 62.9814 48.8597 62.9153 48.9259ZM68.9418 49.4434C68.9418 49.7653 68.8828 49.8229 68.7202 49.6601C68.5984 49.5381 68.5589 49.3407 68.6324 49.2215C68.8385 48.8878 68.9418 48.9619 68.9418 49.4434ZM63.0125 49.7181C63.2886 50.3249 63.0256 50.8986 62.4716 50.8986C62.2765 50.8986 62.0222 50.7485 61.9068 50.5653C61.64 50.1419 62.0292 49.2042 62.4716 49.2042C62.6406 49.2042 62.8839 49.4354 63.0125 49.7181ZM59.7495 50.162C59.822 50.6744 59.4785 51.1977 59.0698 51.1977C58.6296 51.1977 58.342 50.4644 58.5958 49.9894C58.8944 49.4308 59.6621 49.5456 59.7495 50.162ZM24.3361 52.981C24.3251 55.7129 24.2815 56.1437 24.0265 56.0457C23.788 55.9542 23.7572 56.0445 23.8698 56.5052C23.9471 56.8205 24.0731 57.1233 24.1498 57.1782C24.4428 57.3873 24.5015 59.2121 24.232 59.7323C24.0223 60.1369 24.0162 60.2872 24.2045 60.407C24.3751 60.5155 24.35 60.5619 24.1195 60.5641C23.9395 60.5657 23.7381 60.4252 23.6716 60.2518C23.449 59.6708 23.5338 50.2009 23.7615 50.2009C23.8774 50.2009 23.917 50.1112 23.8493 50.0016C23.7817 49.8919 23.8663 49.8022 24.0375 49.8022C24.3072 49.8022 24.347 50.2258 24.3361 52.981ZM56.3995 50.2009C56.5508 50.4842 56.5508 50.715 56.3995 50.9983C55.9757 51.7913 55.0569 51.2178 55.286 50.3032C55.4399 49.6896 56.0941 49.6296 56.3995 50.2009ZM13.5587 51.3169C13.3178 51.7257 13.0859 51.956 13.0433 51.8284C12.8854 51.3539 12.5577 51.6123 12.6571 52.1328C12.7843 52.799 12.2388 53.7535 11.9601 53.3526C11.8372 53.1758 11.8177 53.2308 11.8993 53.5233C12.0413 54.0308 11.7048 54.3354 11.5239 53.8634C11.4506 53.6722 11.7114 53.0028 12.1639 52.2197C13.461 49.9758 13.4335 50.0093 13.7321 50.3082C13.9523 50.5286 13.9232 50.6981 13.5587 51.3169ZM46.1923 50.122C46.1262 50.1881 45.9544 50.1953 45.8108 50.1377C45.652 50.0741 45.6992 50.0269 45.9311 50.0173C46.1409 50.0087 46.2584 50.0558 46.1923 50.122ZM53.1146 50.799C53.1146 51.3643 53.0322 51.5084 52.6802 51.5587C52.0979 51.6416 51.7189 50.9632 52.026 50.3881C52.1666 50.1254 52.4023 49.9998 52.6802 50.0392C53.0322 50.0895 53.1146 50.2336 53.1146 50.799ZM3.14465 50.5996C3.14465 50.7457 3.03276 50.9028 2.89579 50.9485C2.74767 50.9979 2.64694 50.8566 2.64694 50.5996C2.64694 50.3426 2.74767 50.2013 2.89579 50.2507C3.03276 50.2964 3.14465 50.4535 3.14465 50.5996ZM43.007 50.3213C42.9409 50.3875 42.769 50.3947 42.6255 50.3371C42.4666 50.2735 42.5138 50.2262 42.7458 50.2167C42.9556 50.2081 43.073 50.2551 43.007 50.3213ZM49.8698 50.7077C50.0672 51.1414 50.0394 51.2756 49.6772 51.6382C49.3239 51.9923 49.2032 52.0196 48.9448 51.8047C48.3729 51.3296 48.6765 50.2009 49.376 50.2009C49.5208 50.2009 49.7429 50.429 49.8698 50.7077ZM39.4774 50.4786C39.4774 50.5217 39.3384 50.6104 39.1684 50.6758C38.9912 50.7437 38.9114 50.7103 38.9811 50.5974C39.0979 50.4078 39.4774 50.3171 39.4774 50.4786ZM46.4055 50.6395C46.771 51.0055 46.6898 51.7572 46.26 51.9877C45.9699 52.1432 45.7991 52.1169 45.5632 51.8808C45.1969 51.5138 45.177 51.3097 45.4569 50.7858C45.6918 50.3464 46.0567 50.2902 46.4055 50.6395ZM36.5791 50.7804C36.6407 50.8797 36.5115 50.9142 36.2923 50.8568C35.8274 50.735 35.7687 50.5996 36.1808 50.5996C36.3386 50.5996 36.5178 50.6809 36.5791 50.7804ZM42.945 50.7206C43.3774 50.8869 43.3705 52.1093 42.9361 52.2761C42.2441 52.5421 41.7426 51.4014 42.3044 50.8388C42.5835 50.5593 42.5441 50.5665 42.945 50.7206ZM84.7675 50.7968C84.8372 50.9096 84.7574 50.9431 84.5802 50.8751C84.2354 50.7425 84.1723 50.5996 84.4585 50.5996C84.5617 50.5996 84.7006 50.6883 84.7675 50.7968ZM40.0746 51.6787C40.0746 52.3108 39.5511 52.7368 39.1123 52.4615C38.3241 51.9669 38.8784 50.5705 39.6902 51.0057C39.902 51.1193 40.0746 51.4213 40.0746 51.6787ZM6.63816 51.4522C6.97063 51.3651 7.02678 51.4546 7.02678 52.0714C7.02678 52.5726 6.93759 52.7925 6.73432 52.7925C6.54818 52.7925 6.48646 52.9083 6.5643 53.1116C6.68794 53.4342 6.33835 53.7806 5.88344 53.7862C5.72039 53.7882 5.64573 53.5008 5.66425 52.942C5.69471 52.025 6.02558 50.9556 6.16415 51.326C6.21113 51.4514 6.42435 51.5082 6.63816 51.4522ZM36.6902 51.5964C36.991 52.1591 36.6046 52.8367 36.0297 52.7548C35.5857 52.6914 35.3556 52.0501 35.5734 51.4821C35.7338 51.0635 36.4442 51.1361 36.6902 51.5964ZM91.1671 51.9343C91.3333 52.5973 90.786 53.1798 90.2897 52.8684C89.8266 52.5778 89.7524 51.9173 90.1394 51.53C90.5449 51.1239 91.0098 51.3067 91.1671 51.9343ZM33.4239 51.898C33.5698 52.4809 33.2262 52.9918 32.6881 52.9918C32.2232 52.9918 31.968 52.1093 32.3126 51.6934C32.7008 51.225 33.2819 51.3318 33.4239 51.898ZM1.85001 52.0929C2.08054 52.7004 1.91969 53.1858 1.4809 53.2069C1.27426 53.2169 1.24559 53.2597 1.40267 53.3231C1.82373 53.4934 1.6784 53.9369 1.16974 54.0342C0.704479 54.1233 0.687756 54.0862 0.682381 52.9438C0.677802 52.0038 0.734541 51.7831 0.958709 51.8693C1.11379 51.9289 1.29357 51.8918 1.35827 51.7869C1.54123 51.4907 1.64595 51.5559 1.85001 52.0929ZM30.0209 52.3938C30.0209 52.9591 29.9385 53.1032 29.5865 53.1535C29.0351 53.232 28.7106 52.6615 28.9483 52.0309C29.0725 51.701 29.2515 51.5866 29.5718 51.6322C29.9403 51.6845 30.0209 51.8214 30.0209 52.3938ZM87.7552 52.3938C87.7552 52.9591 87.6728 53.1032 87.3208 53.1535C86.7693 53.232 86.4448 52.6615 86.6825 52.0309C86.8067 51.701 86.9857 51.5866 87.306 51.6322C87.6745 51.6845 87.7552 51.8214 87.7552 52.3938ZM84.4625 52.1801C84.7844 52.7821 84.5394 53.1324 83.8655 53.0333C83.2396 52.9412 83.0757 52.4745 83.5147 52.0349C83.8633 51.6859 84.2284 51.7419 84.4625 52.1801ZM65.0596 52.1944C65.2153 52.4468 64.9517 52.4468 64.5619 52.1944C64.3045 52.028 64.3099 52.0008 64.6 51.9981C64.7851 51.9965 64.992 52.0848 65.0596 52.1944ZM81.0859 52.0784C81.0859 52.1242 81.1402 52.3036 81.2067 52.4771C81.3009 52.7229 81.1912 52.7925 80.709 52.7925C80.1273 52.7925 79.8874 52.4643 80.2232 52.128C80.3674 51.9837 81.0859 51.9424 81.0859 52.0784ZM74.4787 53.0438C74.5741 53.5398 73.9885 53.4798 73.8581 52.9802C73.7783 52.6742 73.835 52.5861 74.0815 52.6336C74.2633 52.6687 74.4421 52.8533 74.4787 53.0438ZM77.9005 52.9918C77.9005 53.1015 77.6095 53.1848 77.2535 53.1772C76.7112 53.1654 76.671 53.1353 77.0047 52.9918C77.5547 52.7552 77.9005 52.7552 77.9005 52.9918ZM64.079 53.7294C64.0091 54.2061 63.5665 54.3007 63.5665 53.8391C63.5665 53.6289 63.6239 53.3997 63.6937 53.3295C63.9 53.1232 64.1323 53.3644 64.079 53.7294ZM54.6575 53.5225C54.5208 53.5779 54.2968 53.5779 54.1598 53.5225C54.023 53.4673 54.1349 53.422 54.4087 53.422C54.6824 53.422 54.7945 53.4673 54.6575 53.5225ZM61.3368 53.6297C61.7871 54.0807 61.602 54.3873 60.8789 54.3873C60.4399 54.3873 60.1821 54.2914 60.1821 54.1281C60.1821 53.8117 60.5801 53.3905 60.8789 53.3905C60.9993 53.3905 61.2054 53.4982 61.3368 53.6297ZM5.17191 54.026C5.10841 54.1849 5.06122 54.1377 5.05167 53.9054C5.04311 53.6953 5.09009 53.5777 5.15619 53.6439C5.22228 53.7101 5.22945 53.8821 5.17191 54.026ZM51.5104 53.7707C51.5719 53.8699 51.4427 53.9044 51.2235 53.847C50.7587 53.7252 50.6999 53.5899 51.112 53.5899C51.2699 53.5899 51.4491 53.6712 51.5104 53.7707ZM58.152 54.1128C58.1984 54.4389 58.0845 54.5605 57.6555 54.6426C56.9032 54.7868 56.771 54.664 57.0404 54.0721C57.3217 53.4537 58.0621 53.4808 58.152 54.1128ZM54.6932 54.1024C55.1785 54.5886 55.0678 54.786 54.3091 54.786C53.5861 54.786 53.4009 54.4794 53.8512 54.0284C54.166 53.7133 54.3177 53.7264 54.6932 54.1024ZM6.23801 54.2968C6.37836 54.4662 6.61666 54.5573 6.76757 54.4993C7.18087 54.3406 7.34571 55.0025 6.96267 55.2829C6.7823 55.4151 6.69809 55.5864 6.77533 55.6637C6.85258 55.7411 6.78967 55.8824 6.63558 55.9777C6.40006 56.1234 6.39827 56.2025 6.62383 56.4747C6.83665 56.7316 6.92584 56.745 7.05584 56.5396C7.17788 56.3471 7.22048 56.3698 7.22287 56.6288C7.22506 56.8815 7.10382 56.9535 6.77792 56.8927C6.53166 56.8466 6.2181 56.8024 6.08113 56.7942C5.92067 56.7847 5.83227 56.4569 5.83227 55.8706C5.83227 55.3709 5.90335 55.0056 5.98995 55.0595C6.07675 55.1131 6.15718 54.9614 6.16873 54.7224C6.18047 54.4832 6.14663 54.4002 6.09367 54.538C5.97243 54.8531 5.63319 54.66 5.63319 54.2758C5.63319 53.9001 5.91728 53.9098 6.23801 54.2968ZM11.4409 54.5866C11.8255 54.5866 10.8436 55.8541 10.4357 55.8842C10.0453 55.9131 10.0509 55.8734 10.5681 54.9476C10.885 54.3803 11.1347 54.1062 11.1723 54.2838C11.2077 54.4505 11.3286 54.5866 11.4409 54.5866ZM51.3826 54.2278C51.7688 54.6145 51.6587 54.9684 51.1093 55.1065C50.4133 55.2813 50.1568 54.9763 50.5397 54.4289C50.8909 53.9268 51.0452 53.8899 51.3826 54.2278ZM0.969658 55.0352C0.868126 55.6001 0.879075 55.623 1.05467 55.2136C1.1775 54.9269 1.36663 54.7868 1.54043 54.8535C1.69691 54.9137 1.86832 54.8557 1.92148 54.725C1.97483 54.594 2.00868 55.2495 1.99713 56.1814C1.98319 57.2974 1.95114 57.5185 1.90296 56.8293C1.86275 56.2538 1.74768 55.7827 1.64734 55.7827C1.547 55.7827 1.51296 55.9081 1.57189 56.0616C1.63062 56.2149 1.57348 56.4055 1.44467 56.4852C1.26928 56.5937 1.27525 56.6698 1.46816 56.7892C1.81915 57.0063 1.34175 57.5984 0.940194 57.4441C0.58901 57.3091 0.522915 54.3873 0.870913 54.3873C1.0047 54.3873 1.04193 54.6325 0.969658 55.0352ZM48.3221 54.7202C48.4702 55.1065 48.1304 55.3766 47.4905 55.381C47.0265 55.3842 46.9574 55.2405 47.1634 54.7026C47.3235 54.285 48.1602 54.2978 48.3221 54.7202ZM45.0159 55.1348C45.0717 55.5281 44.9918 55.5834 44.3689 55.5834C43.5901 55.5834 43.5586 55.5441 43.8708 54.9602C44.1596 54.4194 44.9311 54.537 45.0159 55.1348ZM34.8445 54.9064C34.7784 54.9726 34.6066 54.9797 34.4631 54.9221C34.3042 54.8585 34.3514 54.8113 34.5833 54.8017C34.7932 54.7931 34.9106 54.8402 34.8445 54.9064ZM41.6534 55.1585C41.7629 55.3633 41.7957 55.5876 41.7266 55.6569C41.5308 55.8529 40.4728 55.8046 40.4728 55.5997C40.4728 54.7939 41.2944 54.4869 41.6534 55.1585ZM31.5141 55.0617C31.5141 55.1037 31.3347 55.1851 31.1157 55.2425C30.8965 55.2999 30.7673 55.2654 30.8288 55.1661C30.9359 54.9925 31.5141 54.9044 31.5141 55.0617ZM38.2431 55.2245C38.6934 55.6755 38.5083 55.9821 37.7852 55.9821C37.0235 55.9821 36.9901 55.9404 37.2944 55.3709C37.5294 54.9315 37.8943 54.8753 38.2431 55.2245ZM28.2748 55.3051C28.2087 55.3713 28.0369 55.3784 27.8933 55.3208C27.7345 55.2572 27.7816 55.21 28.0136 55.2004C28.2234 55.1918 28.3409 55.2389 28.2748 55.3051ZM35.1067 55.6005C35.3719 56.0967 35.3711 56.0975 34.5501 56.2737C34.0004 56.3915 33.9031 56.356 33.9031 56.0377C33.9031 55.2158 34.7388 54.912 35.1067 55.6005ZM31.9122 56.0887C31.9122 56.2494 31.8003 56.382 31.6634 56.3836C31.5266 56.385 31.213 56.4404 30.9666 56.5064C30.4275 56.6511 30.3486 56.1806 30.831 55.6976C31.1937 55.3344 31.9122 55.5943 31.9122 56.0887ZM28.407 56.0343C28.6548 56.4278 28.5911 56.5066 27.8804 56.6852C27.4269 56.7992 27.3333 56.7577 27.3333 56.4422C27.3333 56.008 27.7223 55.5471 28.0084 55.6426C28.1141 55.6779 28.2935 55.8541 28.407 56.0343ZM10.141 56.7348C10.1693 56.9238 10.0164 57.3028 9.8014 57.5769C9.51751 57.9389 9.44763 57.971 9.54658 57.6937C9.64074 57.4296 9.61088 57.3564 9.44962 57.4563C9.11417 57.6638 9.16314 57.2459 9.5422 56.6666C9.88442 56.1435 10.0556 56.1631 10.141 56.7348ZM78.0419 57.1782C78.0992 57.3975 78.2286 57.5769 78.3298 57.5769C78.4307 57.5769 78.3316 57.7722 78.1096 58.0109C77.6228 58.5342 77.4422 58.3984 77.3963 57.4746C77.3576 56.7009 77.8573 56.4715 78.0419 57.1782ZM78.7964 56.9788C78.8641 57.0885 78.8245 57.1782 78.7086 57.1782C78.5927 57.1782 78.4978 57.0885 78.4978 56.9788C78.4978 56.8692 78.5372 56.7795 78.5856 56.7795C78.634 56.7795 78.7287 56.8692 78.7964 56.9788ZM4.01703 57.7264C4.03714 57.2553 4.12473 57.1782 4.63777 57.1782C5.14862 57.1782 5.23502 57.2533 5.23502 57.6979C5.23502 58.0778 5.31525 58.1867 5.53365 58.1028C5.69789 58.0398 5.83227 58.0796 5.83227 58.1917C5.83227 58.3119 5.40464 58.3705 4.78709 58.3348C3.78092 58.2768 3.7405 58.2523 3.70666 57.6765L3.67142 57.0785L3.83248 57.6765L3.99334 58.2746L4.01703 57.7264ZM6.64254 57.7264C6.65449 58.0232 6.68097 58.0158 6.82033 57.6765L6.98397 57.2778L7.12413 57.6765C7.44485 58.59 7.44047 58.6005 6.77653 58.5363C6.42136 58.5021 6.16136 58.3922 6.19859 58.2925C6.23562 58.1927 6.12373 58.0312 5.94973 57.9337C5.47432 57.6674 5.56869 57.3775 6.1309 57.3775C6.46695 57.3775 6.63319 57.491 6.64254 57.7264ZM8.81853 58.087C8.81853 58.3675 8.90194 58.5455 9.00387 58.4825C9.10581 58.4193 9.24536 58.459 9.31425 58.5704C9.45858 58.8041 8.23223 58.8481 7.92265 58.6205C7.81316 58.5399 7.70227 58.2722 7.67619 58.0254C7.63637 57.6496 7.72536 57.5769 8.22367 57.5769C8.72914 57.5769 8.81853 57.6536 8.81853 58.087ZM10.9449 58.6653C10.8456 58.9641 10.2071 59.0471 9.9545 58.7941C9.80021 58.6396 9.84839 58.4704 10.1249 58.1967C10.4769 57.8482 10.5328 57.8428 10.7622 58.1362C10.9005 58.3131 10.9828 58.5511 10.9449 58.6653ZM12.4255 58.3478C12.4387 58.5268 12.4405 58.7349 12.4299 58.8101C12.4192 58.8854 12.5868 58.9337 12.802 58.9173C13.06 58.898 13.1265 58.8206 12.9969 58.6908C12.6143 58.3077 12.7709 57.92 13.2481 58.0693C13.4944 58.1462 13.8528 58.2072 14.0445 58.2044C14.28 58.2012 14.3929 58.3533 14.3929 58.6739C14.3929 58.9346 14.3256 59.1862 14.2436 59.2327C14.1615 59.2791 13.4064 59.2299 12.5659 59.1232C11.4106 58.9765 11.0582 58.8615 11.1225 58.6518C11.1693 58.4991 11.2454 58.2509 11.2913 58.1C11.4088 57.7158 12.3955 57.9313 12.4255 58.3478ZM1.45244 58.1992C1.45244 58.0762 1.58682 57.9756 1.75106 57.9756C1.96587 57.9756 2.04969 58.1957 2.04969 58.7606C2.04969 59.4934 2.01306 59.5433 1.50221 59.5082C1.025 59.4755 0.946962 59.5506 0.894205 60.0937C0.826318 60.7924 1.29496 61.4126 1.75683 61.2352C1.96946 61.1534 2.04969 61.268 2.04969 61.654C2.04969 61.9576 1.96428 62.1326 1.8506 62.0623C1.74111 61.9945 1.65152 62.0341 1.65152 62.1502C1.65152 62.2662 1.7636 62.3673 1.90037 62.3748C2.03734 62.3822 1.94776 62.4857 1.70129 62.6045C1.2436 62.8256 1.09409 63.1587 1.45244 63.1587C1.81158 63.1587 1.66048 63.7079 1.27346 63.8092C0.98021 63.8861 0.868922 63.7753 0.776746 63.3146C0.632212 62.5901 0.816762 61.7654 1.12554 61.7572C1.25057 61.7539 1.19084 61.6568 0.992951 61.5416C0.699303 61.3703 0.640573 61.1056 0.674218 60.1022C0.734142 58.3103 0.838661 57.9132 1.17671 58.1941C1.37738 58.3607 1.45244 58.3621 1.45244 58.1992ZM16.0618 58.586C16.4056 58.8994 16.0046 59.371 15.3945 59.371C14.8559 59.371 14.791 59.3064 14.791 58.7692C14.791 58.2142 14.8336 58.1773 15.3385 58.2965C15.6397 58.3677 15.965 58.4979 16.0618 58.586ZM58.3324 58.711C58.5711 59.0708 58.5629 59.1697 58.2707 59.4623C57.8612 59.8724 57.6018 59.5815 57.597 58.7066C57.5936 58.0681 57.9074 58.0699 58.3324 58.711ZM17.3791 58.5674C17.3791 58.6735 17.5135 58.7088 17.6777 58.6458C17.8961 58.5619 17.9764 58.6707 17.9764 59.0507C17.9764 59.5337 17.9133 59.5704 17.0805 59.5704C16.5583 59.5704 16.1846 59.4783 16.1846 59.3497C16.1846 59.2283 16.319 59.1806 16.4832 59.2438C16.8149 59.3712 16.8965 59.0668 16.5828 58.8726C16.2161 58.6456 16.3787 58.3743 16.8814 58.3743C17.1552 58.3743 17.3791 58.4612 17.3791 58.5674ZM19.5925 58.965C19.6057 59.1334 19.6019 59.3497 19.5846 59.4454C19.5671 59.5411 19.6879 59.5674 19.8531 59.5038C20.0184 59.4404 20.2091 59.4783 20.2768 59.5881C20.3532 59.7121 20.0725 59.7715 19.5366 59.7446C18.3383 59.6846 18.2214 59.6184 18.328 59.0606C18.4042 58.6615 18.5278 58.579 18.9953 58.6147C19.3471 58.6414 19.5782 58.777 19.5925 58.965ZM5.60432 59.2151C5.64315 59.315 5.88782 59.4779 6.14802 59.577C6.62941 59.7602 6.62821 60.2553 6.14543 60.6357C6.01683 60.7372 6.07058 60.7595 6.28021 60.6919C6.78429 60.5294 6.7385 61.2916 6.22765 61.5655C6.00707 61.6837 5.83845 61.7092 5.85298 61.6223C5.9348 61.1329 5.79445 60.7665 5.52489 60.7665C5.35587 60.7665 5.23204 60.6544 5.24996 60.5173C5.26767 60.3803 5.26887 59.999 5.25254 59.6701C5.22666 59.1489 5.1958 59.1186 5.01225 59.4348C4.80839 59.7855 4.79147 59.7855 4.49961 59.4348C4.29017 59.183 4.30033 59.2452 4.53305 59.6376C4.71761 59.9485 4.81755 60.2543 4.75503 60.3169C4.69232 60.3795 4.72637 60.5334 4.83029 60.659C4.95213 60.8057 4.92843 61.0629 4.76399 61.3803C4.62344 61.6514 4.545 61.9831 4.58979 62.1173C4.63439 62.2514 4.56192 62.3613 4.42893 62.3613C4.05525 62.3613 3.45462 63.1557 3.58024 63.4834C3.64196 63.6443 3.52967 63.8949 3.33099 64.0404C2.99693 64.285 3.00887 64.3049 3.48926 64.3049C3.8285 64.3049 3.97502 64.2166 3.91152 64.051C3.76977 63.681 4.20855 63.4828 4.54699 63.7639C4.77773 63.9557 4.83686 63.9469 4.83686 63.7212C4.83686 63.5654 4.73712 63.3379 4.61528 63.2159C4.33238 62.9326 4.5892 62.4994 4.95651 62.6404C5.1098 62.6994 5.23502 62.6553 5.23502 62.5427C5.23502 62.4299 5.32461 62.3932 5.43411 62.461C5.5436 62.5287 5.63319 62.803 5.63319 63.0708C5.63319 63.3385 5.72955 63.5574 5.8476 63.5574C5.97342 63.5574 6.03653 63.8658 6.0003 64.3049C5.95053 64.91 5.82929 65.1 5.36483 65.3017C4.67261 65.6023 4.63777 65.6047 4.63777 65.3515C4.63777 65.2419 4.81695 65.1522 5.03594 65.1522C5.25493 65.1522 5.43411 65.0625 5.43411 64.9528C5.43411 64.8432 5.15499 64.7535 4.81356 64.7535C4.28977 64.7535 4.20954 64.8161 4.29794 65.1548C4.36642 65.4169 4.27544 65.6243 4.03574 65.7528C3.29396 66.1503 2.96567 65.8583 3.5247 65.2985C3.91689 64.9058 3.59657 64.3779 3.1775 64.7262C2.74429 65.0862 2.62225 64.7467 2.68874 63.3654C2.74389 62.2179 3.0451 61.6221 3.0451 62.6603C3.0451 62.9344 3.14425 63.1587 3.26549 63.1587C3.38673 63.1587 3.43431 63.0241 3.3712 62.8597C3.30829 62.6952 3.34512 62.5606 3.45323 62.5606C3.56153 62.5606 3.59617 62.3461 3.53047 62.084C3.40764 61.5938 3.71582 61.1991 3.93899 61.5607C4.16097 61.9203 4.38892 61.7764 4.38892 61.2766C4.38892 61.0089 4.26011 60.7406 4.10264 60.68C3.93461 60.6154 3.87827 60.4665 3.96666 60.3193C4.08671 60.1192 4.05545 60.1186 3.81158 60.3161C3.64355 60.4523 3.44725 60.5047 3.37519 60.4326C3.21054 60.2677 3.20258 59.0804 3.36503 58.9177C3.54281 58.7397 5.5217 59.0024 5.60432 59.2151ZM21.5599 59.2714C21.5599 59.5455 21.6495 59.7697 21.759 59.7697C21.8685 59.7697 21.958 59.5903 21.958 59.371C21.958 59.0608 22.0908 58.9723 22.5553 58.9723C23.0759 58.9723 23.1525 59.0435 23.1525 59.5271C23.1525 60.0091 23.0809 60.0767 22.6051 60.0416C22.3039 60.0195 21.7217 59.9942 21.311 59.9852C20.8133 59.9745 20.5645 59.8766 20.5645 59.6914C20.5645 59.5387 20.4301 59.3621 20.2658 59.2989C19.6883 59.077 19.976 58.773 20.7635 58.773C21.4802 58.773 21.5599 58.8228 21.5599 59.2714ZM2.83666 61.0549C2.71642 61.1753 2.6555 60.8101 2.67043 60.0588L2.69372 58.8726L2.85996 59.8688C2.96049 60.4718 2.95134 60.9401 2.83666 61.0549ZM7.90215 59.3377C7.95849 59.4292 8.25492 59.4673 8.56091 59.4229C8.86691 59.3782 9.36561 59.4366 9.66921 59.5524C10.1219 59.7255 10.1996 59.8499 10.101 60.2434C9.97779 60.7346 10.3688 61.713 10.8466 62.1103C11.3638 62.5399 11.6547 62.4751 11.6865 61.9233C11.71 61.5136 11.6073 61.3582 11.2547 61.2694C10.751 61.1429 10.416 60.492 10.5637 59.9266C10.6794 59.4833 11.6057 59.4324 11.6057 59.8694C11.6057 60.0339 11.6925 60.1684 11.7986 60.1684C11.9045 60.1684 11.9346 60.0205 11.8653 59.8395C11.7588 59.5616 11.8291 59.5343 12.3196 59.6637C12.6387 59.7478 13.0341 59.8285 13.1984 59.8431C13.6135 59.8796 13.8179 60.2641 13.9266 61.2116C13.9885 61.7513 13.9322 62.0788 13.7584 62.1892C13.3244 62.4647 13.1984 62.3864 13.1984 61.8416C13.1984 61.4497 13.1209 61.3516 12.8834 61.4429C12.7102 61.5095 12.496 61.5639 12.4074 61.5639C12.2314 61.5639 11.9173 62.5232 11.9746 62.8854C11.9943 63.0092 11.852 63.1671 11.6587 63.236C10.6003 63.6142 10.2197 63.7063 10.3081 63.5632C10.3624 63.4753 10.2589 63.2809 10.0783 63.1314C9.78448 62.8884 9.76059 62.9167 9.85197 63.3981C9.90811 63.6941 9.90015 63.9264 9.83425 63.914C9.76836 63.9017 9.49044 63.9828 9.2167 64.094C8.94296 64.2053 8.47491 64.3556 8.17688 64.4277C7.73651 64.5344 7.65707 64.5003 7.75463 64.2461C7.82271 64.0681 8.00308 63.9826 8.1731 64.0478C8.41061 64.1393 8.44783 64.0436 8.35506 63.5789C8.27204 63.1633 8.3248 62.9621 8.53882 62.88C8.73332 62.8052 8.78887 62.8461 8.69669 62.9954C8.60153 63.1497 8.66424 63.1842 8.88542 63.0991C9.12532 63.007 9.2167 63.0801 9.2167 63.3642C9.2167 63.5801 9.30628 63.7567 9.41578 63.7567C9.60053 63.7567 9.70545 63.1944 9.62979 62.6105C9.61188 62.4735 9.70584 62.3613 9.83843 62.3613C9.97102 62.3613 10.0272 62.4135 9.96326 62.4775C9.82171 62.6194 10.5314 63.358 10.8094 63.358C11.0686 63.358 11.0664 63.0187 10.8062 62.8577C10.6949 62.7887 10.6553 62.6489 10.7184 62.5469C10.7813 62.4448 10.7379 62.3613 10.622 62.3613C10.5062 62.3613 10.4112 62.2164 10.4112 62.0389C10.4112 61.8169 10.2898 61.7485 10.02 61.8192C9.75343 61.889 9.59057 61.8009 9.50875 61.5433C9.44285 61.3354 9.31664 61.1652 9.22824 61.1652C9.13965 61.1652 9.01602 60.9076 8.95311 60.593C8.88184 60.2362 8.68096 59.9794 8.41917 59.9111C8.06599 59.8186 8.03832 59.8481 8.24477 60.0973C8.5631 60.4812 8.68693 61.6978 8.42454 61.8603C8.31266 61.9295 8.21849 62.1378 8.21511 62.3232C8.20794 62.6996 7.27185 63.4705 7.06878 63.2671C6.99731 63.1956 7.07057 63.0522 7.23163 62.9486C7.48407 62.7861 7.48527 62.7347 7.24059 62.577C7.08451 62.4763 6.92883 62.1849 6.89478 61.9291C6.84043 61.5216 6.85855 61.5079 7.04151 61.8173C7.15638 62.0114 7.34451 62.1121 7.45938 62.0409C7.57446 61.9698 7.74666 62.0351 7.84222 62.1863C7.95928 62.3713 8.01702 62.217 8.01921 61.7134C8.0208 61.3023 7.93261 60.9658 7.82311 60.9658C7.71361 60.9658 7.62403 60.8313 7.62403 60.6668C7.62403 60.3078 7.23124 60.2601 7.21332 60.617C7.20635 60.7541 7.11477 60.6513 7.00985 60.3887C6.90494 60.1262 6.87189 59.7448 6.93639 59.5415C7.05465 59.1687 7.71202 59.0299 7.90215 59.3377ZM23.7655 59.4872C23.7751 59.7195 23.8223 59.7667 23.8858 59.6078C23.9433 59.4639 23.9361 59.2919 23.87 59.2257C23.8039 59.1595 23.757 59.2771 23.7655 59.4872ZM38.482 59.9691C38.6349 60.2553 38.6317 60.4864 38.4706 60.7878C38.1398 61.4068 37.7699 60.8185 37.8618 59.8196C37.8969 59.439 38.2433 59.5225 38.482 59.9691ZM17.2541 60.3466C17.3948 60.4637 17.5203 61.0097 17.5328 61.5601C17.5577 62.6535 17.3096 62.8415 16.7321 62.1661C16.4321 61.8153 15.7711 61.7899 15.8163 62.131C15.88 62.6123 15.7192 62.7586 15.1394 62.7474C14.5521 62.7359 14.5338 62.7181 14.9403 62.5545C15.3897 62.3734 15.5726 61.7632 15.1775 61.7632C15.0616 61.7632 15.0182 61.6797 15.0811 61.5776C15.1442 61.4756 15.0946 61.3294 14.9712 61.2531C14.8476 61.1767 14.6768 61.2272 14.5916 61.3653C14.372 61.721 14.1287 60.8875 14.2969 60.3562C14.4148 59.9844 14.5468 59.9549 15.7126 60.04C16.4197 60.0917 17.1133 60.2296 17.2541 60.3466ZM88.1989 60.0895C88.1328 60.1557 87.961 60.1628 87.8175 60.1052C87.6586 60.0416 87.7058 59.9944 87.9377 59.9848C88.1476 59.9763 88.265 60.0233 88.1989 60.0895ZM18.6998 60.3209C18.8241 60.4015 18.9704 60.6469 19.0251 60.8662C19.1155 61.2282 19.1269 61.2236 19.1478 60.8163C19.1653 60.4758 19.2919 60.3678 19.6728 60.3678C20.3315 60.3678 20.6702 61.0603 20.3821 61.8187C20.1022 62.556 19.7472 62.5154 19.8975 61.7632C19.9879 61.3111 19.9441 61.1652 19.718 61.1652C19.4826 61.1652 19.4339 61.3773 19.4886 62.1619L19.5585 63.1587H18.5517C17.8304 63.1587 17.5708 63.0881 17.6363 62.9095C17.6865 62.7725 17.8508 62.695 18.0013 62.7375C19.1207 63.0526 19.1892 63.0337 18.9746 62.4683C18.8619 62.1717 18.8123 61.8601 18.8645 61.7758C18.9164 61.6917 18.8372 61.4558 18.6883 61.2519C18.4586 60.9373 18.3692 60.9214 18.0974 61.1472C17.7182 61.4624 17.6598 61.1592 17.9833 60.554C18.2055 60.1385 18.3475 60.0923 18.6998 60.3209ZM12.2029 60.5508C12.2029 60.6515 12.1486 60.8757 12.0821 61.0492C12.0029 61.2561 12.0712 61.3645 12.2812 61.3645C12.4896 61.3645 12.6011 61.1911 12.6011 60.8662C12.6011 60.592 12.5115 60.3678 12.402 60.3678C12.2925 60.3678 12.2029 60.4501 12.2029 60.5508ZM16.5828 60.5789C16.5828 60.6949 16.6724 60.7346 16.7819 60.6668C16.8914 60.599 16.981 60.5041 16.981 60.4557C16.981 60.4072 16.8914 60.3678 16.7819 60.3678C16.6724 60.3678 16.5828 60.4629 16.5828 60.5789ZM15.5945 60.8263C15.7628 60.9579 15.8683 61.2226 15.8289 61.4144C15.7544 61.777 16.0773 61.8988 16.273 61.5818C16.4641 61.2722 16.1777 60.8109 15.7229 60.6963C15.3554 60.6038 15.3357 60.6237 15.5945 60.8263ZM21.1161 60.9285C21.1595 61.0587 21.0926 61.1652 20.9674 61.1652C20.8424 61.1652 20.7906 61.083 20.8525 60.9828C20.9144 60.8825 20.8726 60.7547 20.7598 60.6987C20.6469 60.6429 20.6632 60.6184 20.7958 60.6443C20.9286 60.6704 21.0727 60.7982 21.1161 60.9285ZM22.7046 60.6927C23.1147 60.8028 23.1525 60.9301 23.1525 62.1988V63.5845L22.2417 63.4896C21.7406 63.4372 21.2704 63.3307 21.1966 63.2526C21.1227 63.1746 21.3982 63.1485 21.8087 63.1944C22.2194 63.2404 22.5553 63.2137 22.5553 63.135C22.5553 63.0562 22.611 62.8463 22.6793 62.6685C22.7474 62.4905 22.7251 62.3583 22.6296 62.3746C22.2963 62.4316 21.5651 62.1153 21.663 61.9566C21.7174 61.8687 21.6761 61.5709 21.5712 61.295C21.3244 60.6447 21.7273 60.4306 22.7046 60.6927ZM78.3485 60.6991C78.2117 60.7545 77.9877 60.7545 77.8508 60.6991C77.714 60.6439 77.8259 60.5986 78.0996 60.5986C78.3734 60.5986 78.4854 60.6439 78.3485 60.6991ZM76.6521 60.8869C76.586 60.9531 76.4142 60.9603 76.2706 60.9026C76.1118 60.839 76.159 60.7918 76.3909 60.7822C76.6007 60.7737 76.7182 60.8207 76.6521 60.8869ZM73.1723 61.0978C73.0355 61.1532 72.8116 61.1532 72.6746 61.0978C72.5378 61.0426 72.6497 60.9973 72.9234 60.9973C73.1972 60.9973 73.3093 61.0426 73.1723 61.0978ZM3.44327 61.3645C3.44327 61.4742 3.35368 61.5639 3.24419 61.5639C3.13469 61.5639 3.0451 61.4742 3.0451 61.3645C3.0451 61.2549 3.13469 61.1652 3.24419 61.1652C3.35368 61.1652 3.44327 61.2549 3.44327 61.3645ZM61.6255 61.8952C61.4887 61.9506 61.2647 61.9506 61.1277 61.8952C60.991 61.84 61.1029 61.7947 61.3766 61.7947C61.6503 61.7947 61.7624 61.84 61.6255 61.8952ZM70.7871 61.894C70.6523 61.9486 70.3835 61.952 70.1898 61.9014C69.9961 61.8507 70.1064 61.8061 70.4349 61.8021C70.7634 61.7981 70.9219 61.8394 70.7871 61.894ZM6.23044 62.2734C6.23044 62.4442 6.32102 62.5281 6.43191 62.4596C6.5438 62.3902 6.68754 62.6065 6.75543 62.9462C6.82252 63.2823 6.9559 63.5574 7.05166 63.5574C7.37 63.5574 7.23143 63.9254 6.87746 64.0201C6.58242 64.0988 6.59755 64.1353 6.97701 64.2573C7.47292 64.4168 7.5854 64.7535 7.14264 64.7535C6.98736 64.7535 6.72337 64.8061 6.55594 64.8705C6.29853 64.9694 6.26588 64.8129 6.34452 63.8594C6.40544 63.1212 6.36741 62.7749 6.23442 62.8571C6.12274 62.9262 6.03136 62.8951 6.03136 62.7881C6.03136 62.6808 5.97701 62.4514 5.91051 62.278C5.84402 62.1045 5.88881 61.9626 6.01006 61.9626C6.1313 61.9626 6.23044 62.1025 6.23044 62.2734ZM59.73 62.083C59.6639 62.1492 59.4921 62.1564 59.3485 62.0987C59.1897 62.0351 59.2368 61.9879 59.4688 61.9783C59.6786 61.9698 59.7961 62.0168 59.73 62.083ZM65.7564 62.1619C65.9991 62.319 65.9734 62.3557 65.6189 62.3583C65.379 62.3599 65.1273 62.2716 65.0596 62.1619C64.903 61.9082 65.3642 61.9082 65.7564 62.1619ZM14.3929 62.3613C14.3929 62.4709 14.2979 62.5606 14.182 62.5606C14.0662 62.5606 14.0266 62.4709 14.0942 62.3613C14.1619 62.2516 14.2567 62.1619 14.3051 62.1619C14.3534 62.1619 14.3929 62.2516 14.3929 62.3613ZM56.3456 62.2823C56.2795 62.3485 56.1076 62.3557 55.9641 62.2981C55.8052 62.2345 55.8524 62.1873 56.0844 62.1777C56.2942 62.1691 56.4117 62.2162 56.3456 62.2823ZM21.2945 62.6603C21.1924 62.9675 20.6268 63.0108 20.5153 62.7199C20.4512 62.5525 20.5828 62.461 20.8884 62.461C21.1482 62.461 21.3309 62.5507 21.2945 62.6603ZM17.0857 62.9209C17.0246 62.9823 16.8639 62.9211 16.7287 62.7847C16.5336 62.5877 16.5565 62.565 16.8402 62.6731C17.0365 62.748 17.147 62.8595 17.0857 62.9209ZM49.8795 62.6926C49.7427 62.748 49.5188 62.748 49.3818 62.6926C49.245 62.6374 49.3569 62.5921 49.6307 62.5921C49.9044 62.5921 50.0165 62.6374 49.8795 62.6926ZM48.2868 62.8919C48.1501 62.9474 47.9261 62.9474 47.7891 62.8919C47.6524 62.8367 47.7643 62.7915 48.038 62.7915C48.3117 62.7915 48.4238 62.8367 48.2868 62.8919ZM24.5461 63.6571C24.5461 64.2505 24.4782 64.3548 24.0918 64.3548C23.7492 64.3548 23.6274 64.2304 23.5957 63.8494C23.5591 63.4057 23.8308 63.1409 24.4964 62.9719C24.5236 62.9651 24.5461 63.2733 24.5461 63.6571ZM44.7987 63.0797C44.7326 63.1459 44.5608 63.1531 44.4173 63.0955C44.2584 63.0319 44.3056 62.9847 44.5375 62.9751C44.7473 62.9665 44.8648 63.0136 44.7987 63.0797ZM14.0871 63.422C14.3051 63.6403 14.2515 63.7226 13.7743 63.9031C13.276 64.0914 13.1984 64.0739 13.1984 63.7727C13.1984 63.1393 13.6334 62.9677 14.0871 63.422ZM14.8958 63.5189C14.8346 63.5803 14.674 63.5191 14.5388 63.3828C14.3437 63.1858 14.3666 63.1631 14.6503 63.2711C14.8466 63.3461 14.9571 63.4575 14.8958 63.5189ZM20.6142 63.2906C20.4775 63.3461 20.2535 63.3461 20.1165 63.2906C19.9798 63.2354 20.0916 63.1902 20.3654 63.1902C20.6391 63.1902 20.7512 63.2354 20.6142 63.2906ZM38.5318 63.49C38.395 63.5454 38.171 63.5454 38.034 63.49C37.8973 63.4348 38.0092 63.3895 38.2829 63.3895C38.5566 63.3895 38.6687 63.4348 38.5318 63.49ZM12.9993 63.8323C12.9993 64.0897 12.4866 64.3636 11.4679 64.6502C11.116 64.7493 11.0377 64.6941 11.0624 64.3646C11.0793 64.1399 11.2012 63.9561 11.3332 63.9561C11.4651 63.9561 11.7295 63.8961 11.9206 63.8225C12.1737 63.7254 12.2246 63.7595 12.1084 63.9481C12.0003 64.1231 12.0381 64.1746 12.225 64.1066C12.3771 64.0512 12.4793 63.9051 12.4518 63.7817C12.4243 63.6583 12.5364 63.5574 12.7007 63.5574C12.8649 63.5574 12.9993 63.681 12.9993 63.8323ZM36.5409 63.6894C36.4041 63.7448 36.1802 63.7448 36.0432 63.6894C35.9064 63.6341 36.0183 63.5889 36.2921 63.5889C36.5658 63.5889 36.6779 63.6341 36.5409 63.6894ZM33.1565 63.8887C33.0197 63.9441 32.7958 63.9441 32.6588 63.8887C32.522 63.8335 32.6339 63.7882 32.9076 63.7882C33.1814 63.7882 33.2935 63.8335 33.1565 63.8887ZM10.7375 64.5043C10.7082 64.8743 10.3383 65.1151 9.76418 65.1382C9.26587 65.1582 9.33356 64.6548 9.86372 64.3986C10.5205 64.0817 10.7686 64.1116 10.7375 64.5043ZM27.8766 64.2758C27.8105 64.342 27.6387 64.3492 27.4952 64.2916C27.3363 64.228 27.3835 64.1808 27.6154 64.1712C27.8252 64.1626 27.9427 64.2097 27.8766 64.2758ZM1.8506 65.9496C1.68815 66.0501 1.71662 66.1856 1.94975 66.4191C2.25375 66.7235 2.22687 66.747 1.57786 66.747C0.792872 66.747 0.506192 66.4703 0.855185 66.0493C0.983594 65.8944 1.03237 65.6767 0.963686 65.5654C0.895002 65.4542 1.06661 65.3061 1.34473 65.2361C1.62305 65.1661 1.86494 64.9616 1.88246 64.7818C1.89998 64.6018 1.95134 64.7591 1.99673 65.1313C2.04332 65.5128 1.97961 65.8699 1.8506 65.9496ZM9.91349 64.7535C9.98118 64.8631 10.0759 64.9528 10.1243 64.9528C10.1727 64.9528 10.2121 64.8631 10.2121 64.7535C10.2121 64.6438 10.1172 64.5541 10.0013 64.5541C9.88542 64.5541 9.8458 64.6438 9.91349 64.7535ZM1.15381 64.9528C1.2215 65.0625 1.18188 65.1522 1.06601 65.1522C0.950148 65.1522 0.855185 65.0625 0.855185 64.9528C0.855185 64.8432 0.894604 64.7535 0.942981 64.7535C0.991358 64.7535 1.08612 64.8432 1.15381 64.9528ZM9.1279 64.9702C9.34431 65.3208 8.97262 65.5359 7.76438 65.7596C6.29156 66.0321 5.61607 65.7387 6.85855 65.3659C7.46675 65.1833 7.73054 65.1733 7.7829 65.3306C7.88881 65.6488 8.22128 65.6017 8.22128 65.2684C8.22128 65.0146 8.47849 64.8125 8.85655 64.7692C8.93221 64.7607 9.05424 64.851 9.1279 64.9702ZM3.0451 65.8499C3.0451 66.0144 2.95552 66.1489 2.84602 66.1489C2.73653 66.1489 2.64694 66.0144 2.64694 65.8499C2.64694 65.6854 2.73653 65.5509 2.84602 65.5509C2.95552 65.5509 3.0451 65.6854 3.0451 65.8499ZM5.33457 66.1489C5.40902 66.2695 5.15838 66.3405 4.69929 66.3284C4.02679 66.3108 3.99732 66.2905 4.43869 66.1489C5.13767 65.9249 5.1962 65.9249 5.33457 66.1489ZM6.67838 66.2809C6.54161 66.3363 6.31764 66.3363 6.18067 66.2809C6.0439 66.2257 6.15579 66.1804 6.42953 66.1804C6.70327 66.1804 6.81535 66.2257 6.67838 66.2809Z" fill="#EC6945"/>
</svg>
