<svg width="68" height="71" viewBox="0 0 68 71" fill="none" xmlns="http://www.w3.org/2000/svg">
<path fill-rule="evenodd" clip-rule="evenodd" d="M13.2733 9.39595C2.35725 17.7781 1.07309 19.2418 1.07309 23.2971C1.07309 25.7899 1.70053 27.8287 2.4674 27.8287C3.23427 27.8287 3.86171 26.5753 3.86171 25.0435C3.86171 22.5312 4.79172 22.2582 13.3514 22.2582H22.8397L15.316 44.4594C8.36115 64.9867 7.52178 66.694 4.19216 67.0895C2.21085 67.3263 0.334103 68.3025 0.0189893 69.2592C-0.428584 70.6198 6.9264 71 33.7237 71C63.2621 71 68 70.7117 68 68.9111C68 67.531 66.6182 66.8221 63.9328 66.8221C59.9869 66.8221 59.708 66.3514 54.6746 51.1551C51.819 42.539 48.3249 32.5107 46.9111 28.8732L44.3372 22.2582H54.0778C62.8871 22.2582 63.8171 22.5242 63.8171 25.0435C63.8171 26.5753 64.4445 27.8287 65.2114 27.8287C65.9782 27.8287 66.6057 25.7523 66.6057 23.2135C66.6057 19.0413 65.4275 17.7071 54.2981 9.28732C42.3084 0.215779 41.7786 -0.0237538 33.732 0.00131344C25.6924 0.0263806 25.1514 0.274268 13.2733 9.39595ZM40.1138 11.1172V18.0803H33.8394H27.565V11.1172V4.15411H33.8394H40.1138V11.1172ZM23.3821 12.5099V18.0803L16.0619 18.0205L8.7418 17.962L15.0162 12.4541C18.4671 9.42519 21.7605 6.94493 22.3363 6.94354C22.9122 6.94075 23.3821 9.44608 23.3821 12.5099ZM52.8285 12.5099L59.8851 18.0803H52.0909H44.2967V12.5099C44.2967 9.44608 44.6286 6.93936 45.0343 6.93936C45.4414 6.93936 48.9481 9.44608 52.8285 12.5099ZM42.7853 26.6979C44.2131 30.7894 43.983 31.501 39.8586 35.7499C37.3977 38.2873 34.6885 40.3623 33.8394 40.3623C32.9903 40.3623 30.2811 38.2873 27.8201 35.7499C23.6958 31.501 23.4657 30.7894 24.8935 26.6979C26.3729 22.4587 26.7786 22.2582 33.8394 22.2582C40.9002 22.2582 41.3059 22.4587 42.7853 26.6979ZM23.1311 52.4531C18.3695 57.2506 14.1991 60.8993 13.8617 60.5623C13.5243 60.2253 15.3034 54.2523 17.8174 47.2906L22.3879 34.6317L27.0867 39.1814L31.7856 43.7311L23.1311 52.4531ZM49.7945 47.1082C52.1383 53.4599 54.0569 59.3786 54.0569 60.2615C54.0569 61.1444 49.9841 57.8355 45.0064 52.9084L35.9573 43.9497L40.3801 39.3916C42.8132 36.8849 44.9674 34.9965 45.1668 35.1971C45.3675 35.3962 47.4493 40.7564 49.7945 47.1082ZM44.2967 56.3775L54.6843 66.8221H33.8394H12.9944L23.3821 56.3775C29.0946 50.6329 33.8004 45.9328 33.8394 45.9328C33.8784 45.9328 38.5842 50.6329 44.2967 56.3775Z" fill="#EC6945"/>
</svg>
