<svg width="315" height="174" viewBox="0 0 315 174" fill="none" xmlns="http://www.w3.org/2000/svg">
<path fill-rule="evenodd" clip-rule="evenodd" d="M186.816 20.7446L205.588 39.1393C207.121 40.6424 207.987 42.6991 207.988 44.8466L207.993 50.3566L207.997 55.917C207.999 58.0348 207.161 60.0668 205.667 61.5677L187.343 79.9734L168.978 98.4208C167.508 99.897 165.521 100.742 163.438 100.776L158.144 100.861L152.93 100.946C150.799 100.981 148.742 100.163 147.216 98.6749L129.049 80.9619C117.747 69.9411 108.162 60.2915 107.749 59.5173C107.337 58.7431 107 54.5547 107 50.2084V45.6068C107 43.4928 107.837 41.4647 109.327 39.9657L128.036 21.153L146.726 2.35885C148.228 0.848956 150.269 0 152.399 0H157.36H162.381C164.475 0 166.485 0.820766 167.98 2.28614L186.816 20.7446ZM129.057 21.7379L112.743 38.1437C110.677 40.2212 110.622 43.5598 112.618 45.705C119.835 53.4614 149.084 82.9784 149.552 82.9784C149.818 82.9784 151.543 81.4485 153.385 79.5787C155.24 77.6959 155.233 74.6704 153.369 72.796L139.751 59.0983L128.421 47.7023C125.301 44.5643 125.322 39.4897 128.466 36.3766L143.14 21.8499L158.38 6.76367C160.274 4.88912 158.956 1.66086 156.291 1.64748L152.422 1.62805C150.278 1.61729 148.22 2.46711 146.709 3.987L129.057 21.7379ZM162.071 20.7784C160.439 22.4589 159.103 24.1838 159.103 24.6124C159.103 25.0409 166.498 32.8167 175.536 41.892C184.574 50.9673 191.968 58.6778 191.968 59.0258C191.968 59.3747 182.86 68.6989 171.728 79.7463L156.391 94.9678C154.58 96.7645 155.845 99.8533 158.395 99.8649L161.996 99.8813C164.114 99.8909 166.149 99.0601 167.656 97.5711L185.884 79.5545L200.808 64.8051C203.938 61.7115 203.981 56.6706 200.905 53.5234L186.19 38.4681C175.039 27.059 165.718 17.7235 165.477 17.7235C165.237 17.7235 163.704 19.0979 162.071 20.7784ZM145.669 37.267C139.391 43.5878 134.254 49.058 134.254 49.4229C134.254 50.177 156.449 74.3881 157.486 74.7643C157.857 74.8989 163.467 69.8162 169.953 63.4696L176.229 57.3275C179.307 54.3156 179.448 49.4079 176.549 46.2238L170.023 39.0562C163.577 31.9757 158.028 26.0907 157.693 25.9787C157.358 25.8667 151.947 30.9461 145.669 37.267Z" fill="black"/>
<path d="M14.448 141.624C11.312 141.624 8.624 140.904 6.384 139.464C4.176 137.992 2.624 135.96 1.728 133.368L5.568 131.16C6.848 135.224 9.84 137.256 14.544 137.256C16.816 137.256 18.56 136.792 19.776 135.864C21.024 134.936 21.648 133.672 21.648 132.072C21.648 130.504 21.04 129.304 19.824 128.472C18.736 127.736 16.704 126.888 13.728 125.928L10.512 124.872C9.808 124.584 8.88 124.168 7.728 123.624C6.608 123.048 5.792 122.472 5.28 121.896C3.872 120.36 3.168 118.488 3.168 116.28C3.168 113.336 4.192 111.032 6.24 109.368C8.288 107.64 10.784 106.776 13.728 106.776C16.352 106.776 18.656 107.432 20.64 108.744C22.624 110.056 24.112 111.848 25.104 114.12L21.36 116.28C19.92 112.824 17.376 111.096 13.728 111.096C11.904 111.096 10.432 111.544 9.312 112.44C8.192 113.336 7.632 114.552 7.632 116.088C7.632 117.56 8.16 118.68 9.216 119.448C10.304 120.248 12.128 121.048 14.688 121.848L16.656 122.472C17.744 122.888 18.336 123.112 18.432 123.144C19.456 123.528 20.576 124.056 21.792 124.728C22.656 125.208 23.52 125.944 24.384 126.936C25.504 128.056 26.064 129.736 26.064 131.976C26.064 134.92 24.992 137.272 22.848 139.032C20.672 140.76 17.872 141.624 14.448 141.624ZM51.8996 121.656V107.4H56.3156V141H51.8996V125.88H35.5796V141H31.1156V107.4H35.5796V121.656H51.8996ZM75.5063 141V107.4H79.9703V141H75.5063ZM98.6981 116.376C101.514 116.376 103.77 117.272 105.466 119.064C107.162 120.824 108.01 123.224 108.01 126.264V141H103.834V126.504C103.834 124.584 103.306 123.08 102.25 121.992C101.194 120.904 99.7381 120.36 97.8821 120.36C95.7381 120.36 94.0421 121.032 92.7941 122.376C91.5461 123.688 90.9221 125.656 90.9221 128.28V141H86.7461V117H90.9221V120.456C92.5861 117.736 95.1781 116.376 98.6981 116.376ZM122.776 136.536L130.312 117H134.824L125.224 141H120.328L110.728 117H115.24L122.776 136.536ZM160.458 130.92H140.346C140.762 133.032 141.738 134.696 143.274 135.912C144.81 137.096 146.73 137.688 149.034 137.688C152.202 137.688 154.506 136.52 155.946 134.184L159.498 136.2C157.13 139.816 153.61 141.624 148.938 141.624C145.162 141.624 142.058 140.44 139.626 138.072C137.258 135.64 136.074 132.616 136.074 129C136.074 125.352 137.242 122.344 139.578 119.976C141.914 117.576 144.938 116.376 148.65 116.376C152.17 116.376 155.034 117.624 157.242 120.12C159.482 122.552 160.602 125.528 160.602 129.048C160.602 129.656 160.554 130.28 160.458 130.92ZM148.65 120.312C146.442 120.312 144.586 120.936 143.082 122.184C141.61 123.432 140.698 125.128 140.346 127.272H156.378C156.026 125.064 155.146 123.352 153.738 122.136C152.33 120.92 150.634 120.312 148.65 120.312ZM168.065 123.48C168.065 125.016 169.649 126.216 172.817 127.08C174.001 127.336 174.993 127.608 175.793 127.896C176.625 128.152 177.521 128.552 178.481 129.096C179.473 129.64 180.225 130.36 180.737 131.256C181.249 132.152 181.505 133.208 181.505 134.424C181.505 136.6 180.657 138.344 178.961 139.656C177.265 140.968 175.121 141.624 172.529 141.624C170.225 141.624 168.225 141.128 166.529 140.136C164.865 139.112 163.681 137.736 162.977 136.008L166.577 133.944C166.961 135.096 167.681 136.008 168.737 136.68C169.793 137.352 171.057 137.688 172.529 137.688C173.969 137.688 175.121 137.416 175.985 136.872C176.849 136.328 177.281 135.512 177.281 134.424C177.281 132.792 175.697 131.608 172.529 130.872C171.473 130.584 170.673 130.36 170.129 130.2C169.585 130.04 168.833 129.752 167.873 129.336C166.945 128.92 166.241 128.488 165.761 128.04C165.281 127.56 164.833 126.936 164.417 126.168C164.033 125.368 163.841 124.488 163.841 123.528C163.841 121.448 164.641 119.736 166.241 118.392C167.873 117.048 169.905 116.376 172.337 116.376C174.289 116.376 176.017 116.824 177.521 117.72C179.057 118.584 180.209 119.8 180.977 121.368L177.473 123.336C176.609 121.288 174.897 120.264 172.337 120.264C171.121 120.264 170.097 120.552 169.265 121.128C168.465 121.704 168.065 122.488 168.065 123.48ZM198.568 117V121.032H192.184V134.04C192.184 135.224 192.408 136.072 192.856 136.584C193.336 137.064 194.056 137.32 195.016 137.352C195.976 137.352 197.16 137.32 198.568 137.256V141C194.888 141.48 192.2 141.176 190.504 140.088C188.84 139 188.008 136.984 188.008 134.04V121.032H183.256V117H188.008V111.528L192.184 110.28V117H198.568ZM229.572 116.376C232.292 116.376 234.468 117.256 236.1 119.016C237.764 120.776 238.596 123.128 238.596 126.072V141H234.42V126.216C234.42 124.392 233.94 122.968 232.98 121.944C232.052 120.888 230.772 120.36 229.14 120.36C227.284 120.36 225.828 120.984 224.772 122.232C223.748 123.448 223.236 125.256 223.236 127.656V141H219.06V126.216C219.06 124.392 218.596 122.968 217.668 121.944C216.772 120.888 215.54 120.36 213.972 120.36C212.148 120.36 210.66 121 209.508 122.28C208.388 123.528 207.828 125.32 207.828 127.656V141H203.652V117H207.828V120.216C209.46 117.656 211.844 116.376 214.98 116.376C218.212 116.376 220.564 117.736 222.036 120.456C223.7 117.736 226.212 116.376 229.572 116.376ZM267.427 130.92H247.315C247.731 133.032 248.707 134.696 250.243 135.912C251.779 137.096 253.699 137.688 256.003 137.688C259.171 137.688 261.475 136.52 262.915 134.184L266.467 136.2C264.099 139.816 260.579 141.624 255.907 141.624C252.131 141.624 249.027 140.44 246.595 138.072C244.227 135.64 243.043 132.616 243.043 129C243.043 125.352 244.211 122.344 246.547 119.976C248.883 117.576 251.907 116.376 255.619 116.376C259.139 116.376 262.003 117.624 264.211 120.12C266.451 122.552 267.571 125.528 267.571 129.048C267.571 129.656 267.523 130.28 267.427 130.92ZM255.619 120.312C253.411 120.312 251.555 120.936 250.051 122.184C248.579 123.432 247.667 125.128 247.315 127.272H263.347C262.995 125.064 262.115 123.352 260.707 122.136C259.299 120.92 257.603 120.312 255.619 120.312ZM284.323 116.376C287.139 116.376 289.395 117.272 291.091 119.064C292.787 120.824 293.635 123.224 293.635 126.264V141H289.459V126.504C289.459 124.584 288.931 123.08 287.875 121.992C286.819 120.904 285.363 120.36 283.507 120.36C281.363 120.36 279.667 121.032 278.419 122.376C277.171 123.688 276.547 125.656 276.547 128.28V141H272.371V117H276.547V120.456C278.211 117.736 280.803 116.376 284.323 116.376ZM312.521 117V121.032H306.137V134.04C306.137 135.224 306.361 136.072 306.809 136.584C307.289 137.064 308.009 137.32 308.969 137.352C309.929 137.352 311.113 137.32 312.521 137.256V141C308.841 141.48 306.153 141.176 304.457 140.088C302.793 139 301.961 136.984 301.961 134.04V121.032H297.209V117H301.961V111.528L306.137 110.28V117H312.521Z" fill="black"/>
<path d="M14.656 169.182C13.1627 169.182 11.9353 168.692 10.974 167.712C10.0127 166.741 9.532 165.537 9.532 164.1C9.532 162.663 10.0127 161.459 10.974 160.488C11.9353 159.508 13.1627 159.018 14.656 159.018C15.5427 159.018 16.364 159.233 17.12 159.662C17.876 160.091 18.464 160.67 18.884 161.398L17.75 162.056C17.47 161.515 17.05 161.085 16.49 160.768C15.9393 160.441 15.328 160.278 14.656 160.278C13.5173 160.278 12.5933 160.642 11.884 161.37C11.1747 162.089 10.82 162.999 10.82 164.1C10.82 165.192 11.1747 166.097 11.884 166.816C12.5933 167.544 13.5173 167.908 14.656 167.908C15.328 167.908 15.9393 167.749 16.49 167.432C17.05 167.105 17.47 166.676 17.75 166.144L18.884 166.788C18.4733 167.516 17.89 168.099 17.134 168.538C16.3873 168.967 15.5613 169.182 14.656 169.182ZM19.4512 159.2H26.5212V160.432H23.6232V169H22.3352V160.432H19.4512V159.2ZM27.8098 159.2H31.3658C32.2618 159.2 33.0131 159.503 33.6198 160.11C34.2264 160.717 34.5298 161.463 34.5298 162.35C34.5298 163.237 34.2264 163.983 33.6198 164.59C33.0131 165.197 32.2618 165.5 31.3658 165.5H29.1118V169H27.8098V159.2ZM29.1118 164.282H31.3658C31.9164 164.282 32.3644 164.1 32.7098 163.736C33.0644 163.353 33.2418 162.891 33.2418 162.35C33.2418 161.79 33.0644 161.328 32.7098 160.964C32.3551 160.6 31.9071 160.418 31.3658 160.418H29.1118V164.282ZM35.4812 164.1C35.4812 162.681 35.9712 161.482 36.9512 160.502C37.9312 159.513 39.1306 159.018 40.5492 159.018C41.9679 159.018 43.1672 159.513 44.1472 160.502C45.1366 161.482 45.6312 162.681 45.6312 164.1C45.6312 165.509 45.1366 166.709 44.1472 167.698C43.1672 168.687 41.9679 169.182 40.5492 169.182C39.1306 169.182 37.9312 168.687 36.9512 167.698C35.9712 166.699 35.4812 165.5 35.4812 164.1ZM44.3292 164.1C44.3292 163.017 43.9652 162.112 43.2372 161.384C42.5279 160.647 41.6319 160.278 40.5492 160.278C39.4759 160.278 38.5752 160.647 37.8472 161.384C37.1286 162.121 36.7692 163.027 36.7692 164.1C36.7692 165.164 37.1286 166.069 37.8472 166.816C38.5752 167.544 39.4759 167.908 40.5492 167.908C41.6319 167.908 42.5279 167.544 43.2372 166.816C43.9652 166.069 44.3292 165.164 44.3292 164.1ZM54.5885 169H53.2865V161.692L48.2465 169H47.1965V159.2H48.4985V166.522L53.5385 159.2H54.5885V169ZM55.8868 159.2H62.9568V160.432H60.0588V169H58.7708V160.432H55.8868V159.2ZM65.5473 164.66V167.768H70.0973V169H64.2453V159.2H70.0273V160.432H65.5473V163.442H69.6773V164.66H65.5473ZM70.8151 169V167.824C71.4778 167.917 71.9631 167.731 72.2711 167.264C72.5885 166.797 72.7471 165.962 72.7471 164.758V159.2H79.2151V169H77.9131V160.432H74.0491V164.758C74.0491 165.626 73.9651 166.359 73.7971 166.956C73.6385 167.553 73.4051 168.001 73.0971 168.3C72.7985 168.599 72.4625 168.804 72.0891 168.916C71.7251 169.019 71.3005 169.047 70.8151 169ZM82.6235 162.7H84.8775C85.7735 162.7 86.5248 163.003 87.1315 163.61C87.7382 164.217 88.0415 164.963 88.0415 165.85C88.0415 166.746 87.7382 167.497 87.1315 168.104C86.5342 168.701 85.7828 169 84.8775 169H81.3215V159.2H82.6235V162.7ZM82.6235 167.782H84.8775C85.4188 167.782 85.8668 167.6 86.2215 167.236C86.5762 166.872 86.7535 166.41 86.7535 165.85C86.7535 165.309 86.5762 164.851 86.2215 164.478C85.8762 164.105 85.4282 163.918 84.8775 163.918H82.6235V167.782ZM94.1853 169.182C92.692 169.182 91.4646 168.692 90.5033 167.712C89.542 166.741 89.0613 165.537 89.0613 164.1C89.0613 162.663 89.542 161.459 90.5033 160.488C91.4646 159.508 92.692 159.018 94.1853 159.018C95.072 159.018 95.8933 159.233 96.6493 159.662C97.4053 160.091 97.9933 160.67 98.4133 161.398L97.2793 162.056C96.9993 161.515 96.5793 161.085 96.0193 160.768C95.4686 160.441 94.8573 160.278 94.1853 160.278C93.0466 160.278 92.1226 160.642 91.4133 161.37C90.704 162.089 90.3493 162.999 90.3493 164.1C90.3493 165.192 90.704 166.097 91.4133 166.816C92.1226 167.544 93.0466 167.908 94.1853 167.908C94.8573 167.908 95.4686 167.749 96.0193 167.432C96.5793 167.105 96.9993 166.676 97.2793 166.144L98.4133 166.788C98.0026 167.516 97.4193 168.099 96.6633 168.538C95.9166 168.967 95.0906 169.182 94.1853 169.182ZM98.9805 159.2H106.051V160.432H103.153V169H101.865V160.432H98.9805V159.2ZM112.939 163.918C113.396 164.142 113.756 164.455 114.017 164.856C114.278 165.257 114.409 165.715 114.409 166.228C114.409 167.012 114.134 167.67 113.583 168.202C113.032 168.734 112.36 169 111.567 169H107.339V159.2H111.259C112.034 159.2 112.682 159.457 113.205 159.97C113.737 160.483 114.003 161.118 114.003 161.874C114.003 162.751 113.648 163.433 112.939 163.918ZM111.259 160.418H108.641V163.414H111.259C111.67 163.414 112.015 163.269 112.295 162.98C112.575 162.691 112.715 162.336 112.715 161.916C112.715 161.505 112.57 161.155 112.281 160.866C112.001 160.567 111.66 160.418 111.259 160.418ZM108.641 167.782H111.567C112.006 167.782 112.374 167.628 112.673 167.32C112.972 167.012 113.121 166.634 113.121 166.186C113.121 165.747 112.967 165.374 112.659 165.066C112.37 164.758 112.006 164.604 111.567 164.604H108.641V167.782ZM115.434 164.1C115.434 162.681 115.924 161.482 116.904 160.502C117.884 159.513 119.084 159.018 120.502 159.018C121.921 159.018 123.12 159.513 124.1 160.502C125.09 161.482 125.584 162.681 125.584 164.1C125.584 165.509 125.09 166.709 124.1 167.698C123.12 168.687 121.921 169.182 120.502 169.182C119.084 169.182 117.884 168.687 116.904 167.698C115.924 166.699 115.434 165.5 115.434 164.1ZM124.282 164.1C124.282 163.017 123.918 162.112 123.19 161.384C122.481 160.647 121.585 160.278 120.502 160.278C119.429 160.278 118.528 160.647 117.8 161.384C117.082 162.121 116.722 163.027 116.722 164.1C116.722 165.164 117.082 166.069 117.8 166.816C118.528 167.544 119.429 167.908 120.502 167.908C121.585 167.908 122.481 167.544 123.19 166.816C123.918 166.069 124.282 165.164 124.282 164.1ZM138.042 169H136.74V161.692L131.7 169H130.65V159.2H131.952V166.522L136.992 159.2H138.042V169ZM151.338 159.2H152.808V169H151.52V161.342L148.314 166.676H148.146L144.94 161.356V169H143.638V159.2H145.108L148.23 164.38L151.338 159.2ZM156.206 164.66V167.768H160.756V169H154.904V159.2H160.686V160.432H156.206V163.442H160.336V164.66H156.206ZM161.529 159.2H168.599V160.432H165.701V169H164.413V160.432H161.529V159.2ZM177.017 169H175.631L174.833 166.802H170.423L169.625 169H168.239L171.893 159.2H173.363L177.017 169ZM172.621 160.754L170.871 165.584H174.385L172.621 160.754ZM177.36 169V167.824C178.023 167.917 178.508 167.731 178.816 167.264C179.133 166.797 179.292 165.962 179.292 164.758V159.2H185.76V169H184.458V160.432H180.594V164.758C180.594 165.626 180.51 166.359 180.342 166.956C180.183 167.553 179.95 168.001 179.642 168.3C179.343 168.599 179.007 168.804 178.634 168.916C178.27 169.019 177.845 169.047 177.36 169ZM187.012 169V167.824C187.675 167.917 188.16 167.731 188.468 167.264C188.786 166.797 188.944 165.962 188.944 164.758V159.2H195.412V169H194.11V160.432H190.246V164.758C190.246 165.626 190.162 166.359 189.994 166.956C189.836 167.553 189.602 168.001 189.294 168.3C188.996 168.599 188.66 168.804 188.286 168.916C187.922 169.019 187.498 169.047 187.012 169ZM197.001 164.1C197.001 162.681 197.491 161.482 198.471 160.502C199.451 159.513 200.65 159.018 202.069 159.018C203.487 159.018 204.687 159.513 205.667 160.502C206.656 161.482 207.151 162.681 207.151 164.1C207.151 165.509 206.656 166.709 205.667 167.698C204.687 168.687 203.487 169.182 202.069 169.182C200.65 169.182 199.451 168.687 198.471 167.698C197.491 166.699 197.001 165.5 197.001 164.1ZM205.849 164.1C205.849 163.017 205.485 162.112 204.757 161.384C204.047 160.647 203.151 160.278 202.069 160.278C200.995 160.278 200.095 160.647 199.367 161.384C198.648 162.121 198.289 163.027 198.289 164.1C198.289 165.164 198.648 166.069 199.367 166.816C200.095 167.544 200.995 167.908 202.069 167.908C203.151 167.908 204.047 167.544 204.757 166.816C205.485 166.069 205.849 165.164 205.849 164.1ZM211.376 163.96L215.842 169H214.246L210.018 164.296V169H208.716V159.2H210.018V163.624L214.106 159.2H215.702L211.376 163.96ZM215.649 164.1C215.649 162.681 216.139 161.482 217.119 160.502C218.099 159.513 219.299 159.018 220.717 159.018C222.136 159.018 223.335 159.513 224.315 160.502C225.305 161.482 225.799 162.681 225.799 164.1C225.799 165.509 225.305 166.709 224.315 167.698C223.335 168.687 222.136 169.182 220.717 169.182C219.299 169.182 218.099 168.687 217.119 167.698C216.139 166.699 215.649 165.5 215.649 164.1ZM224.497 164.1C224.497 163.017 224.133 162.112 223.405 161.384C222.696 160.647 221.8 160.278 220.717 160.278C219.644 160.278 218.743 160.647 218.015 161.384C217.297 162.121 216.937 163.027 216.937 164.1C216.937 165.164 217.297 166.069 218.015 166.816C218.743 167.544 219.644 167.908 220.717 167.908C221.8 167.908 222.696 167.544 223.405 166.816C224.133 166.069 224.497 165.164 224.497 164.1ZM233.426 163.358V159.2H234.714V169H233.426V164.59H228.666V169H227.364V159.2H228.666V163.358H233.426ZM241.418 169.182C239.924 169.182 238.697 168.692 237.736 167.712C236.774 166.741 236.294 165.537 236.294 164.1C236.294 162.663 236.774 161.459 237.736 160.488C238.697 159.508 239.924 159.018 241.418 159.018C242.304 159.018 243.126 159.233 243.882 159.662C244.638 160.091 245.226 160.67 245.646 161.398L244.512 162.056C244.232 161.515 243.812 161.085 243.252 160.768C242.701 160.441 242.09 160.278 241.418 160.278C240.279 160.278 239.355 160.642 238.646 161.37C237.936 162.089 237.582 162.999 237.582 164.1C237.582 165.192 237.936 166.097 238.646 166.816C239.355 167.544 240.279 167.908 241.418 167.908C242.09 167.908 242.701 167.749 243.252 167.432C243.812 167.105 244.232 166.676 244.512 166.144L245.646 166.788C245.235 167.516 244.652 168.099 243.896 168.538C243.149 168.967 242.323 169.182 241.418 169.182ZM246.213 159.2H253.283V160.432H250.385V169H249.097V160.432H246.213V159.2ZM254.571 159.2H258.127C259.023 159.2 259.775 159.503 260.381 160.11C260.988 160.717 261.291 161.463 261.291 162.35C261.291 163.237 260.988 163.983 260.381 164.59C259.775 165.197 259.023 165.5 258.127 165.5H255.873V169H254.571V159.2ZM255.873 164.282H258.127C258.678 164.282 259.126 164.1 259.471 163.736C259.826 163.353 260.003 162.891 260.003 162.35C260.003 161.79 259.826 161.328 259.471 160.964C259.117 160.6 258.669 160.418 258.127 160.418H255.873V164.282ZM265.654 164.8L268.006 159.2H269.322L266.172 166.676C265.472 168.319 264.347 169.093 262.798 169V167.796C263.33 167.852 263.764 167.777 264.1 167.572C264.445 167.357 264.73 166.984 264.954 166.452L265.052 166.228L261.734 159.2H263.05L265.654 164.8ZM273.173 163.96L277.639 169H276.043L271.815 164.296V169H270.513V159.2H271.815V163.624L275.903 159.2H277.499L273.173 163.96ZM285.91 159.2V167.768H286.96V170.876H285.658V169H278.798V159.2H280.1V167.768H284.608V159.2H285.91ZM295.856 169H294.554V161.692L289.514 169H288.464V159.2H289.766V166.522L294.806 159.2H295.856V169ZM305.344 169H304.042V161.692L299.002 169H297.952V159.2H299.254V166.522L304.294 159.2H305.344V169Z" fill="black"/>
</svg>
