<svg width="99" height="56" viewBox="0 0 99 56" fill="none" xmlns="http://www.w3.org/2000/svg">
<path fill-rule="evenodd" clip-rule="evenodd" d="M60.4494 7.39411L67.0956 13.907C67.6708 14.4707 67.9952 15.2419 67.9959 16.0473L67.9974 17.9489L67.999 19.8694C67.9996 20.6636 67.6854 21.4256 67.125 21.9884L60.6371 28.5054L54.1337 35.0379C53.5826 35.5915 52.8373 35.9083 52.0563 35.921L50.2294 35.9506L48.4331 35.9797C47.6338 35.9927 46.8624 35.6862 46.2901 35.1281L39.8591 28.8577C35.8306 24.9295 32.414 21.49 32.2671 21.2141C32.1203 20.9381 32 19.4452 32 17.8961V16.3172C32 15.5244 32.3138 14.7639 32.8728 14.2017L39.498 7.5397L46.1163 0.88457C46.6794 0.318359 47.445 0 48.2435 0H49.95H51.6791C52.4642 0 53.2181 0.307787 53.7788 0.857304L60.4494 7.39411ZM39.862 7.74817L34.0471 13.5958C33.3108 14.3363 33.291 15.5263 34.0023 16.2909C36.5749 19.0556 47.0003 29.5765 47.1671 29.5765C47.262 29.5765 47.8766 29.0312 48.5331 28.3647C49.1944 27.6936 49.192 26.6152 48.5277 25.9471L43.6737 21.0648L39.7402 17.1083C38.5703 15.9316 38.5779 14.0286 39.7571 12.8612L44.8817 7.78808L50.3137 2.41082C50.9887 1.74266 50.5189 0.591989 49.5691 0.587221L48.2521 0.580609C47.4483 0.576573 46.6766 0.895254 46.1098 1.46521L39.862 7.74817ZM51.6294 7.40617C51.0474 8.00517 50.5714 8.61996 50.5714 8.77272C50.5714 8.92549 53.2071 11.6971 56.4286 14.9318C59.65 18.1665 62.2857 20.9149 62.2857 21.0389C62.2857 21.1632 59.0391 24.4867 55.0714 28.4244L49.6046 33.8499C48.9593 34.4903 49.41 35.5913 50.3191 35.5954L51.5411 35.601C52.3354 35.6046 53.0987 35.293 53.6636 34.7347L60.1171 28.3561L65.3313 23.2026C66.5051 22.0426 66.5214 20.1522 65.3679 18.972L60.2263 13.7114C56.2514 9.6448 52.9291 6.3173 52.8434 6.3173C52.7577 6.3173 52.2114 6.80718 51.6294 7.40617ZM45.7829 13.2833C43.5451 15.5363 41.7143 17.486 41.7143 17.6161C41.7143 17.8849 49.6254 26.5146 49.9949 26.6487C50.1271 26.6966 52.1269 24.885 54.4386 22.6228L56.5734 20.5338C57.7275 19.4043 57.7806 17.5639 56.6934 16.3699L54.4637 13.921C52.166 11.3973 50.1883 9.29964 50.0689 9.25973C49.9494 9.21981 48.0206 11.0303 45.7829 13.2833Z" fill="white"/>
<path d="M4.515 51.195C3.535 51.195 2.695 50.97 1.995 50.52C1.305 50.06 0.82 49.425 0.54 48.615L1.74 47.925C2.14 49.195 3.075 49.83 4.545 49.83C5.255 49.83 5.8 49.685 6.18 49.395C6.57 49.105 6.765 48.71 6.765 48.21C6.765 47.72 6.575 47.345 6.195 47.085C5.855 46.855 5.22 46.59 4.29 46.29L3.285 45.96C3.065 45.87 2.775 45.74 2.415 45.57C2.065 45.39 1.81 45.21 1.65 45.03C1.21 44.55 0.99 43.965 0.99 43.275C0.99 42.355 1.31 41.635 1.95 41.115C2.59 40.575 3.37 40.305 4.29 40.305C5.11 40.305 5.83 40.51 6.45 40.92C7.07 41.33 7.535 41.89 7.845 42.6L6.675 43.275C6.225 42.195 5.43 41.655 4.29 41.655C3.72 41.655 3.26 41.795 2.91 42.075C2.56 42.355 2.385 42.735 2.385 43.215C2.385 43.675 2.55 44.025 2.88 44.265C3.22 44.515 3.79 44.765 4.59 45.015L5.205 45.21C5.545 45.34 5.73 45.41 5.76 45.42C6.08 45.54 6.43 45.705 6.81 45.915C7.08 46.065 7.35 46.295 7.62 46.605C7.97 46.955 8.145 47.48 8.145 48.18C8.145 49.1 7.81 49.835 7.14 50.385C6.46 50.925 5.585 51.195 4.515 51.195ZM16.2186 44.955V40.5H17.5986V51H16.2186V46.275H11.1186V51H9.72363V40.5H11.1186V44.955H16.2186ZM23.5957 51V40.5H24.9907V51H23.5957ZM30.8432 43.305C31.7232 43.305 32.4282 43.585 32.9582 44.145C33.4882 44.695 33.7532 45.445 33.7532 46.395V51H32.4482V46.47C32.4482 45.87 32.2832 45.4 31.9532 45.06C31.6232 44.72 31.1682 44.55 30.5882 44.55C29.9182 44.55 29.3882 44.76 28.9982 45.18C28.6082 45.59 28.4132 46.205 28.4132 47.025V51H27.1082V43.5H28.4132V44.58C28.9332 43.73 29.7432 43.305 30.8432 43.305ZM38.3674 49.605L40.7224 43.5H42.1324L39.1324 51H37.6024L34.6024 43.5H36.0124L38.3674 49.605ZM50.1431 47.85H43.8581C43.9881 48.51 44.2931 49.03 44.7731 49.41C45.2531 49.78 45.8531 49.965 46.5731 49.965C47.5631 49.965 48.2831 49.6 48.7331 48.87L49.8431 49.5C49.1031 50.63 48.0031 51.195 46.5431 51.195C45.3631 51.195 44.3931 50.825 43.6331 50.085C42.8931 49.325 42.5231 48.38 42.5231 47.25C42.5231 46.11 42.8881 45.17 43.6181 44.43C44.3481 43.68 45.2931 43.305 46.4531 43.305C47.5531 43.305 48.4481 43.695 49.1381 44.475C49.8381 45.235 50.1881 46.165 50.1881 47.265C50.1881 47.455 50.1731 47.65 50.1431 47.85ZM46.4531 44.535C45.7631 44.535 45.1831 44.73 44.7131 45.12C44.2531 45.51 43.9681 46.04 43.8581 46.71H48.8681C48.7581 46.02 48.4831 45.485 48.0431 45.105C47.6031 44.725 47.0731 44.535 46.4531 44.535ZM52.5203 45.525C52.5203 46.005 53.0153 46.38 54.0053 46.65C54.3753 46.73 54.6853 46.815 54.9353 46.905C55.1953 46.985 55.4753 47.11 55.7753 47.28C56.0853 47.45 56.3203 47.675 56.4803 47.955C56.6403 48.235 56.7203 48.565 56.7203 48.945C56.7203 49.625 56.4553 50.17 55.9253 50.58C55.3953 50.99 54.7253 51.195 53.9153 51.195C53.1953 51.195 52.5703 51.04 52.0403 50.73C51.5203 50.41 51.1503 49.98 50.9303 49.44L52.0553 48.795C52.1753 49.155 52.4003 49.44 52.7303 49.65C53.0603 49.86 53.4553 49.965 53.9153 49.965C54.3653 49.965 54.7253 49.88 54.9953 49.71C55.2653 49.54 55.4003 49.285 55.4003 48.945C55.4003 48.435 54.9053 48.065 53.9153 47.835C53.5853 47.745 53.3353 47.675 53.1653 47.625C52.9953 47.575 52.7603 47.485 52.4603 47.355C52.1703 47.225 51.9503 47.09 51.8003 46.95C51.6503 46.8 51.5103 46.605 51.3803 46.365C51.2603 46.115 51.2003 45.84 51.2003 45.54C51.2003 44.89 51.4503 44.355 51.9503 43.935C52.4603 43.515 53.0953 43.305 53.8553 43.305C54.4653 43.305 55.0053 43.445 55.4753 43.725C55.9553 43.995 56.3153 44.375 56.5553 44.865L55.4603 45.48C55.1903 44.84 54.6553 44.52 53.8553 44.52C53.4753 44.52 53.1553 44.61 52.8953 44.79C52.6453 44.97 52.5203 45.215 52.5203 45.525ZM62.0524 43.5V44.76H60.0574V48.825C60.0574 49.195 60.1274 49.46 60.2674 49.62C60.4174 49.77 60.6424 49.85 60.9424 49.86C61.2424 49.86 61.6124 49.85 62.0524 49.83V51C60.9024 51.15 60.0624 51.055 59.5324 50.715C59.0124 50.375 58.7524 49.745 58.7524 48.825V44.76H57.2674V43.5H58.7524V41.79L60.0574 41.4V43.5H62.0524ZM71.7414 43.305C72.5914 43.305 73.2714 43.58 73.7814 44.13C74.3014 44.68 74.5614 45.415 74.5614 46.335V51H73.2564V46.38C73.2564 45.81 73.1064 45.365 72.8064 45.045C72.5164 44.715 72.1164 44.55 71.6064 44.55C71.0264 44.55 70.5714 44.745 70.2414 45.135C69.9214 45.515 69.7614 46.08 69.7614 46.83V51H68.4564V46.38C68.4564 45.81 68.3114 45.365 68.0214 45.045C67.7414 44.715 67.3564 44.55 66.8664 44.55C66.2964 44.55 65.8314 44.75 65.4714 45.15C65.1214 45.54 64.9464 46.1 64.9464 46.83V51H63.6414V43.5H64.9464V44.505C65.4564 43.705 66.2014 43.305 67.1814 43.305C68.1914 43.305 68.9264 43.73 69.3864 44.58C69.9064 43.73 70.6914 43.305 71.7414 43.305ZM83.5709 47.85H77.2859C77.4159 48.51 77.7209 49.03 78.2009 49.41C78.6809 49.78 79.2809 49.965 80.0009 49.965C80.9909 49.965 81.7109 49.6 82.1609 48.87L83.2709 49.5C82.5309 50.63 81.4309 51.195 79.9709 51.195C78.7909 51.195 77.8209 50.825 77.0609 50.085C76.3209 49.325 75.9509 48.38 75.9509 47.25C75.9509 46.11 76.3159 45.17 77.0459 44.43C77.7759 43.68 78.7209 43.305 79.8809 43.305C80.9809 43.305 81.8759 43.695 82.5659 44.475C83.2659 45.235 83.6159 46.165 83.6159 47.265C83.6159 47.455 83.6009 47.65 83.5709 47.85ZM79.8809 44.535C79.1909 44.535 78.6109 44.73 78.1409 45.12C77.6809 45.51 77.3959 46.04 77.2859 46.71H82.2959C82.1859 46.02 81.9109 45.485 81.4709 45.105C81.0309 44.725 80.5009 44.535 79.8809 44.535ZM88.851 43.305C89.731 43.305 90.436 43.585 90.966 44.145C91.496 44.695 91.761 45.445 91.761 46.395V51H90.456V46.47C90.456 45.87 90.291 45.4 89.961 45.06C89.631 44.72 89.176 44.55 88.596 44.55C87.926 44.55 87.396 44.76 87.006 45.18C86.616 45.59 86.421 46.205 86.421 47.025V51H85.116V43.5H86.421V44.58C86.941 43.73 87.751 43.305 88.851 43.305ZM97.6628 43.5V44.76H95.6678V48.825C95.6678 49.195 95.7378 49.46 95.8778 49.62C96.0278 49.77 96.2528 49.85 96.5528 49.86C96.8528 49.86 97.2228 49.85 97.6628 49.83V51C96.5128 51.15 95.6728 51.055 95.1428 50.715C94.6228 50.375 94.3628 49.745 94.3628 48.825V44.76H92.8778V43.5H94.3628V41.79L95.6678 41.4V43.5H97.6628Z" fill="white"/>
</svg>
