<svg width="124" height="84" viewBox="0 0 124 84" fill="none" xmlns="http://www.w3.org/2000/svg">
<path fill-rule="evenodd" clip-rule="evenodd" d="M60.744 1.17928C59.0998 1.80325 56.5215 2.89533 55.0143 3.6055C52.5879 4.74869 28.68 15.3778 19.3904 19.4433C17.4722 20.2828 15.2302 21.3228 14.4081 21.7543C13.586 22.1858 12.7235 22.5401 12.4909 22.5421C12.2587 22.5436 10.2408 23.4112 8.00675 24.4702C5.77315 25.5287 3.1604 26.7546 2.2013 27.1946C1.12162 27.6893 0.802253 28.006 1.36227 28.0261C1.85951 28.0436 2.67363 27.8391 3.17087 27.5715C3.93516 27.16 4.12349 27.3254 4.38407 28.6365C4.55347 29.49 4.69248 41.775 4.69248 55.9364C4.69248 76.1991 4.55995 81.6851 4.06968 81.6876C3.7274 81.6896 4.08364 82.0249 4.86188 82.4328C5.99138 83.0257 6.4936 83.0548 7.35306 82.5772C8.34156 82.0279 8.35451 81.9632 7.50801 81.7853C6.7771 81.632 6.63959 81.2656 6.84087 80.0096C7.46716 76.1014 7.31669 76.2598 12.4151 74.1438C13.7853 73.575 16.0273 72.5676 17.3975 71.905C22.4352 69.4678 24.7828 68.6368 25.8117 68.9255C26.5366 69.129 26.6597 69.0779 26.2068 68.7611C25.7395 68.4338 26.8181 67.7562 29.9436 66.4131C32.36 65.3746 35.6828 63.8996 37.3269 63.1353C42.7527 60.6129 44.2026 60.1142 45.1921 60.43C45.8493 60.6395 46.0565 60.5563 45.8229 60.1759C45.3844 59.4627 52.845 55.9609 54.0996 56.2912C54.5838 56.4185 54.9321 56.2897 54.8728 56.0055C54.8135 55.7209 56.3825 54.7396 58.359 53.8249L61.9532 52.162L62.2751 53.8885C62.4525 54.8383 62.4749 55.9369 62.3249 56.3298C62.175 56.7222 62.3932 57.1753 62.8092 57.3357C63.9965 57.7943 65.4773 57.678 65.4773 57.1267C65.4773 56.851 65.2531 56.6255 64.979 56.6255C64.3084 56.6255 64.3473 54.4614 65.0458 52.9193L65.6108 51.6723L78.8619 51.6743C88.5411 51.6758 92.2161 51.8367 92.4966 52.2712C92.7921 52.7298 92.9694 52.7283 93.2679 52.2652C93.5534 51.8222 97.0918 51.6668 106.698 51.6753C121.348 51.6879 120.546 51.4598 120.196 55.5094C120.042 57.2896 120.11 57.3848 121.653 57.5341C122.563 57.6223 123.273 57.458 123.273 57.1583C123.273 56.8656 123.105 56.6255 122.899 56.6255C122.694 56.6255 122.525 44.3902 122.525 29.4364C122.525 12.3937 122.339 1.82781 122.027 1.12365L121.529 0L92.6311 0.0220523C63.8465 0.0441043 63.722 0.0486149 60.744 1.17928ZM71.8163 25.9281L71.7052 50.8619L69.7342 51.0238C68.65 51.1125 67.0278 51.0463 66.129 50.8769L64.4952 50.5687L64.6123 26.0319C64.6891 10.0362 64.5565 1.42185 64.2317 1.28453C63.9576 1.16825 65.5769 1.05549 67.8304 1.03394L71.9274 0.994344L71.8163 25.9281ZM81.9096 25.7387L81.936 50.4825L80.3705 50.7978C78.4035 51.1932 75.5377 51.1917 74.0624 50.7942L72.9319 50.4895L73.1172 26.3682C73.2189 13.1019 73.3728 1.96563 73.459 1.62082C73.5681 1.18279 74.8576 0.994344 77.7493 0.994344H81.8832L81.9096 25.7387ZM91.3855 25.7733C91.3855 42.3408 91.2141 50.6584 90.8689 50.8734C90.5849 51.0499 88.6791 51.0368 86.6339 50.8439L82.9155 50.4935V25.7442V0.994344H87.1505H91.3855V25.7733ZM100.732 25.9281L100.603 50.8619L99.1231 51.0313C98.309 51.124 96.4591 51.0519 95.0127 50.8699L92.382 50.5392V25.7667V0.994344H96.6215H100.861L100.732 25.9281ZM110.005 2.122C110.17 2.74247 110.308 13.9018 110.312 26.921L110.319 50.5923L109.197 50.8639C108.581 51.0128 107.068 51.0398 105.834 50.9231C104.601 50.8063 103.2 50.6885 102.72 50.6609C101.902 50.6143 101.848 49.0767 101.848 25.8028V0.994344H105.776C109.428 0.994344 109.725 1.07353 110.005 2.122ZM120.034 26.0534V50.8619L118.29 51.0288C117.331 51.1205 115.369 51.0478 113.931 50.8674L111.315 50.5392V26.2679C111.315 7.18895 111.448 1.9952 111.938 1.98919C112.355 1.98368 112.314 1.81678 111.813 1.483C111.296 1.13868 112.448 1.02492 115.55 1.11513L120.034 1.24494V26.0534ZM62.4739 26.3165L62.5133 51.1371L60.1337 52.1785C58.8253 52.7519 56.9141 53.5252 55.8862 53.8986L54.0178 54.5762V29.7747V4.97322L57.6301 3.27572C59.617 2.34202 61.5103 1.55918 61.8387 1.53662C62.293 1.50505 62.444 7.38191 62.4739 26.3165ZM52.5286 28.6846C52.5316 41.158 52.6731 52.2096 52.843 53.244L53.1524 55.125L49.7574 56.6736C43.9126 59.3394 44.5514 62.1365 44.5514 33.8643V9.15659L47.9144 7.62247C49.7644 6.77848 51.558 6.06981 51.9003 6.04726C52.3901 6.01468 52.5241 10.8571 52.5286 28.6846ZM43.3018 11.6445C43.4612 12.5406 43.5275 23.6478 43.4488 36.3276L43.3058 59.382L40.4623 60.7452C38.8984 61.495 37.0409 62.2543 36.3349 62.4327L35.051 62.7569L35.1038 38.0923L35.1561 13.4282L38.733 11.7397C40.7 10.8115 42.4672 10.0437 42.6606 10.0337C42.8534 10.0236 43.1418 10.7483 43.3018 11.6445ZM33.9683 38.9338L33.8393 63.843L29.8534 65.4854C27.6612 66.389 25.6996 67.1333 25.4938 67.1393C24.9423 67.1553 25.0459 20.4317 25.6 19.5511C25.8989 19.0755 25.872 18.6936 25.5247 18.4776C25.1969 18.2736 25.451 17.8807 26.1739 17.4742C27.6397 16.6498 33.202 14.1443 33.7192 14.0757C33.9275 14.0476 34.0396 25.234 33.9683 38.9338ZM24.1237 43.2765V68.0173L20.4039 69.6487C18.3581 70.5458 16.3916 71.1673 16.0338 71.0289C15.5097 70.827 15.3926 66.0753 15.433 46.647C15.4623 32.6785 15.6766 22.3236 15.9421 22.059C16.4205 21.5824 23.0973 18.5848 23.75 18.5537C23.9558 18.5437 24.1237 29.6689 24.1237 43.2765ZM14.6477 47.6067L14.6746 72.1671L11.8317 73.4316C10.2682 74.1273 8.49751 74.8204 7.89663 74.9722L6.804 75.2479L6.96344 51.1411C7.06259 36.1938 6.9455 27.145 6.65503 27.3254C6.39794 27.4853 6.18719 27.2969 6.18719 26.9064C6.18719 26.1882 12.1924 23.1626 13.7674 23.0874C14.562 23.0493 14.6228 24.7413 14.6477 47.6067ZM57.9001 61.0108L57.7546 64.895L48.5372 65.1456L39.3199 65.3962L39.1754 69.5204L39.0309 73.6441L29.4598 73.7804L19.8887 73.9163L19.6396 78.052C19.4452 81.2796 19.5354 82.1878 20.0511 82.1868C20.5583 82.1858 20.6744 81.2541 20.5493 78.1753L20.3869 74.1643L29.978 74.1658L39.569 74.1668V69.9068V65.6468H49.0355H58.502V61.3867C58.502 59.0437 58.3993 57.1267 58.2738 57.1267C58.1482 57.1267 57.9803 58.8748 57.9001 61.0108Z" fill="#EC6945"/>
<path fill-rule="evenodd" clip-rule="evenodd" d="M60.744 2.27022C59.0998 2.89419 56.5215 3.98627 55.0143 4.69644C52.5879 5.83964 28.68 16.4687 19.3904 20.5343C17.4722 21.3738 15.2302 22.4137 14.4081 22.8452C13.586 23.2767 12.7235 23.6311 12.4909 23.6331C12.2587 23.6346 10.2408 24.5021 8.00675 25.5611C5.77315 26.6196 3.1604 27.8455 2.2013 28.2856C1.12162 28.7802 0.802253 29.097 1.36227 29.117C1.85951 29.1346 2.67363 28.9301 3.17087 28.6624C3.93516 28.251 4.12349 28.4164 4.38407 29.7275C4.55347 30.581 4.69248 42.8659 4.69248 57.0273C4.69248 77.2901 4.55995 82.776 4.06968 82.7785C3.7274 82.7805 4.08364 83.1158 4.86188 83.5238C5.99138 84.1167 6.4936 84.1457 7.35306 83.6681C8.34156 83.1188 8.35451 83.0542 7.50801 82.8763C6.7771 82.7229 6.63959 82.3565 6.84087 81.1006C7.46716 77.1924 7.31669 77.3507 12.4151 75.2347C13.7853 74.6659 16.0273 73.6585 17.3975 72.996C22.4352 70.5587 24.7828 69.7278 25.8117 70.0164C26.5366 70.2199 26.6597 70.1688 26.2068 69.852C25.7395 69.5248 26.8181 68.8472 29.9436 67.504C32.36 66.4656 35.6828 64.9906 37.3269 64.2263C42.7527 61.7038 44.2026 61.2052 45.1921 61.5209C45.8493 61.7304 46.0565 61.6472 45.8229 61.2668C45.3844 60.5536 52.845 57.0519 54.0996 57.3821C54.5838 57.5094 54.9321 57.3806 54.8728 57.0965C54.8135 56.8118 56.3825 55.8305 58.359 54.9158L61.9532 53.2529L62.2751 54.9795C62.4525 55.9292 62.4749 57.0278 62.3249 57.4207C62.175 57.8132 62.3932 58.2662 62.8092 58.4266C63.9965 58.8852 65.4773 58.7689 65.4773 58.2176C65.4773 57.942 65.2531 57.7164 64.979 57.7164C64.3084 57.7164 64.3473 55.5523 65.0458 54.0102L65.6108 52.7633L78.8619 52.7653C88.5411 52.7668 92.2161 52.9276 92.4966 53.3622C92.7921 53.8208 92.9694 53.8193 93.2679 53.3562C93.5534 52.9131 97.0918 52.7577 106.698 52.7663C121.348 52.7788 120.546 52.5508 120.196 56.6003C120.042 58.3805 120.11 58.4757 121.653 58.6251C122.563 58.7133 123.273 58.5489 123.273 58.2492C123.273 57.9565 123.105 57.7164 122.899 57.7164C122.694 57.7164 122.525 45.4811 122.525 30.5273C122.525 13.4847 122.339 2.91875 122.027 2.21459L121.529 1.09094L92.6311 1.11299C63.8465 1.13505 63.722 1.13956 60.744 2.27022ZM71.8163 27.0191L71.7052 51.9529L69.7342 52.1147C68.65 52.2034 67.0278 52.1373 66.129 51.9679L64.4952 51.6597L64.6123 27.1228C64.6891 11.1271 64.5565 2.51279 64.2317 2.37547C63.9576 2.2592 65.5769 2.14643 67.8304 2.12488L71.9274 2.08529L71.8163 27.0191ZM81.9096 26.8296L81.936 51.5735L80.3705 51.8887C78.4035 52.2841 75.5377 52.2826 74.0624 51.8852L72.9319 51.5805L73.1172 27.4591C73.2189 14.1928 73.3728 3.05658 73.459 2.71176C73.5681 2.27373 74.8576 2.08529 77.7493 2.08529H81.8832L81.9096 26.8296ZM91.3855 26.8642C91.3855 43.4318 91.2141 51.7494 90.8689 51.9644C90.5849 52.1408 88.6791 52.1278 86.6339 51.9348L82.9155 51.5845V26.8351V2.08529H87.1505H91.3855V26.8642ZM100.732 27.0191L100.603 51.9529L99.1231 52.1222C98.309 52.215 96.4591 52.1428 95.0127 51.9609L92.382 51.6301V26.8577V2.08529H96.6215H100.861L100.732 27.0191ZM110.005 3.21295C110.17 3.83341 110.308 14.9927 110.312 28.0119L110.319 51.6832L109.197 51.9549C108.581 52.1037 107.068 52.1308 105.834 52.014C104.601 51.8972 103.2 51.7794 102.72 51.7519C101.902 51.7053 101.848 50.1676 101.848 26.8938V2.08529H105.776C109.428 2.08529 109.725 2.16447 110.005 3.21295ZM120.034 27.1444V51.9529L118.29 52.1197C117.331 52.2115 115.369 52.1388 113.931 51.9584L111.315 51.6301V27.3589C111.315 8.27989 111.448 3.08615 111.938 3.08013C112.355 3.07462 112.314 2.90773 111.813 2.57394C111.296 2.22963 112.448 2.11586 115.55 2.20607L120.034 2.33588V27.1444ZM62.4739 27.4075L62.5133 52.228L60.1337 53.2695C58.8253 53.8428 56.9141 54.6161 55.8862 54.9895L54.0178 55.6671V30.8656V6.06417L57.6301 4.36667C59.617 3.43296 61.5103 2.65012 61.8387 2.62757C62.293 2.59599 62.444 8.47285 62.4739 27.4075ZM52.5286 29.7756C52.5316 42.249 52.6731 53.3005 52.843 54.335L53.1524 56.2159L49.7574 57.7646C43.9126 60.4303 44.5514 63.2274 44.5514 34.9553V10.2475L47.9144 8.71341C49.7644 7.86942 51.558 7.16075 51.9003 7.1382C52.3901 7.10562 52.5241 11.948 52.5286 29.7756ZM43.3018 12.7354C43.4612 13.6315 43.5275 24.7387 43.4488 37.4186L43.3058 60.4729L40.4623 61.8362C38.8984 62.5859 37.0409 63.3452 36.3349 63.5236L35.051 63.8479L35.1038 39.1832L35.1561 14.5191L38.733 12.8306C40.7 11.9024 42.4672 11.1346 42.6606 11.1246C42.8534 11.1146 43.1418 11.8393 43.3018 12.7354ZM33.9683 40.0247L33.8393 64.934L29.8534 66.5763C27.6612 67.4799 25.6996 68.2242 25.4938 68.2302C24.9423 68.2463 25.0459 21.5226 25.6 20.642C25.8989 20.1664 25.872 19.7845 25.5247 19.5685C25.1969 19.3645 25.451 18.9716 26.1739 18.5651C27.6397 17.7407 33.202 15.2353 33.7192 15.1666C33.9275 15.1386 34.0396 26.3249 33.9683 40.0247ZM24.1237 44.3675V69.1083L20.4039 70.7396C18.3581 71.6367 16.3916 72.2582 16.0338 72.1199C15.5097 71.9179 15.3926 67.1662 15.433 47.7379C15.4623 33.7695 15.6766 23.4146 15.9421 23.1499C16.4205 22.6733 23.0973 19.6758 23.75 19.6447C23.9558 19.6347 24.1237 30.7599 24.1237 44.3675ZM14.6477 48.6977L14.6746 73.2581L11.8317 74.5226C10.2682 75.2182 8.49751 75.9113 7.89663 76.0632L6.804 76.3388L6.96344 52.232C7.06259 37.2848 6.9455 28.2359 6.65503 28.4164C6.39794 28.5762 6.18719 28.3878 6.18719 27.9974C6.18719 27.2792 12.1924 24.2535 13.7674 24.1784C14.562 24.1403 14.6228 25.8323 14.6477 48.6977ZM57.9001 62.1018L57.7546 65.9859L48.5372 66.2365L39.3199 66.4871L39.1754 70.6113L39.0309 74.7351L29.4598 74.8714L19.8887 75.0072L19.6396 79.1429C19.4452 82.3706 19.5354 83.2787 20.0511 83.2777C20.5583 83.2767 20.6744 82.345 20.5493 79.2662L20.3869 75.2553L29.978 75.2568L39.569 75.2578V70.9977V66.7377H49.0355H58.502V62.4777C58.502 60.1346 58.3993 58.2176 58.2738 58.2176C58.1482 58.2176 57.9803 59.9657 57.9001 62.1018Z" fill="#EC6945"/>
<path fill-rule="evenodd" clip-rule="evenodd" d="M59.6532 2.27022C58.009 2.89419 55.4307 3.98627 53.9235 4.69644C51.4971 5.83964 27.5892 16.4687 18.2996 20.5343C16.3814 21.3738 14.1393 22.4137 13.3173 22.8452C12.4952 23.2767 11.6327 23.6311 11.4 23.6331C11.1679 23.6346 9.15001 24.5021 6.91593 25.5611C4.68233 26.6196 2.06958 27.8455 1.11048 28.2856C0.0308018 28.7802 -0.288567 29.097 0.27145 29.117C0.768689 29.1346 1.58281 28.9301 2.08005 28.6624C2.84434 28.251 3.03267 28.4164 3.29325 29.7275C3.46265 30.581 3.60166 42.8659 3.60166 57.0273C3.60166 77.2901 3.46913 82.776 2.97886 82.7785C2.63658 82.7805 2.99281 83.1158 3.77106 83.5238C4.90056 84.1167 5.40278 84.1457 6.26224 83.6681C7.25074 83.1188 7.26369 83.0542 6.41719 82.8763C5.68628 82.7229 5.54877 82.3565 5.75005 81.1006C6.37634 77.1924 6.22587 77.3507 11.3243 75.2347C12.6945 74.6659 14.9365 73.6585 16.3067 72.996C21.3443 70.5587 23.692 69.7278 24.7209 70.0164C25.4458 70.2199 25.5689 70.1688 25.116 69.852C24.6486 69.5248 25.7273 68.8472 28.8528 67.504C31.2692 66.4656 34.5919 64.9906 36.2361 64.2263C41.6619 61.7038 43.1118 61.2052 44.1013 61.5209C44.7584 61.7304 44.9657 61.6472 44.732 61.2668C44.2936 60.5536 51.7542 57.0519 53.0087 57.3821C53.493 57.5094 53.8413 57.3806 53.782 57.0965C53.7227 56.8118 55.2916 55.8305 57.2681 54.9158L60.8624 53.2529L61.1843 54.9795C61.3617 55.9292 61.3841 57.0278 61.2341 57.4207C61.0841 57.8132 61.3024 58.2662 61.7184 58.4266C62.9057 58.8852 64.3864 58.7689 64.3864 58.2176C64.3864 57.942 64.1622 57.7164 63.8882 57.7164C63.2176 57.7164 63.2565 55.5523 63.955 54.0102L64.52 52.7633L77.7711 52.7653C87.4503 52.7668 91.1253 52.9276 91.4058 53.3622C91.7012 53.8208 91.8786 53.8193 92.1771 53.3562C92.4625 52.9131 96.001 52.7577 105.607 52.7663C120.257 52.7788 119.455 52.5508 119.105 56.6003C118.951 58.3805 119.019 58.4757 120.563 58.6251C121.472 58.7133 122.182 58.5489 122.182 58.2492C122.182 57.9565 122.014 57.7164 121.808 57.7164C121.603 57.7164 121.434 45.4811 121.434 30.5273C121.434 13.4847 121.249 2.91875 120.936 2.21459L120.438 1.09094L91.5403 1.11299C62.7557 1.13505 62.6312 1.13956 59.6532 2.27022ZM70.7255 27.0191L70.6144 51.9529L68.6434 52.1147C67.5592 52.2034 65.937 52.1373 65.0381 51.9679L63.4044 51.6597L63.5215 27.1228C63.5982 11.1271 63.4657 2.51279 63.1409 2.37547C62.8668 2.2592 64.4861 2.14643 66.7396 2.12488L70.8366 2.08529L70.7255 27.0191ZM80.8188 26.8296L80.8452 51.5735L79.2797 51.8887C77.3127 52.2841 74.4468 52.2826 72.9715 51.8852L71.8411 51.5805L72.0264 27.4591C72.128 14.1928 72.282 3.05658 72.3682 2.71176C72.4773 2.27373 73.7667 2.08529 76.6585 2.08529H80.7924L80.8188 26.8296ZM90.2947 26.8642C90.2947 43.4318 90.1233 51.7494 89.778 51.9644C89.494 52.1408 87.5883 52.1278 85.543 51.9348L81.8247 51.5845V26.8351V2.08529H86.0597H90.2947V26.8642ZM99.6411 27.0191L99.5121 51.9529L98.0323 52.1222C97.2182 52.215 95.3683 52.1428 93.9219 51.9609L91.2912 51.6301V26.8577V2.08529H95.5307H99.7707L99.6411 27.0191ZM108.914 3.21295C109.079 3.83341 109.217 14.9927 109.221 28.0119L109.228 51.6832L108.107 51.9549C107.49 52.1037 105.977 52.1308 104.744 52.014C103.51 51.8972 102.109 51.7794 101.63 51.7519C100.811 51.7053 100.758 50.1676 100.758 26.8938V2.08529H104.685C108.337 2.08529 108.634 2.16447 108.914 3.21295ZM118.943 27.1444V51.9529L117.199 52.1197C116.24 52.2115 114.278 52.1388 112.84 51.9584L110.224 51.6301V27.3589C110.224 8.27989 110.357 3.08615 110.847 3.08013C111.264 3.07462 111.223 2.90773 110.722 2.57394C110.205 2.22963 111.357 2.11586 114.459 2.20607L118.943 2.33588V27.1444ZM61.3831 27.4075L61.4224 52.228L59.0429 53.2695C57.7345 53.8428 55.8233 54.6161 54.7954 54.9895L52.927 55.6671V30.8656V6.06417L56.5392 4.36667C58.5262 3.43296 60.4195 2.65012 60.7478 2.62757C61.2022 2.59599 61.3532 8.47285 61.3831 27.4075ZM51.4378 29.7756C51.4408 42.249 51.5823 53.3005 51.7522 54.335L52.0616 56.2159L48.6666 57.7646C42.8218 60.4303 43.4605 63.2274 43.4605 34.9553V10.2475L46.8236 8.71341C48.6736 7.86942 50.4672 7.16075 50.8095 7.1382C51.2993 7.10562 51.4333 11.948 51.4378 29.7756ZM42.211 12.7354C42.3704 13.6315 42.4367 24.7387 42.3579 37.4186L42.2149 60.4729L39.3715 61.8362C37.8076 62.5859 35.9501 63.3452 35.2441 63.5236L33.9602 63.8479L34.013 39.1832L34.0653 14.5191L37.6421 12.8306C39.6092 11.9024 41.3764 11.1346 41.5697 11.1246C41.7626 11.1146 42.051 11.8393 42.211 12.7354ZM32.8775 40.0247L32.7485 64.934L28.7626 66.5763C26.5703 67.4799 24.6088 68.2242 24.403 68.2302C23.8515 68.2463 23.9551 21.5226 24.5091 20.642C24.8081 20.1664 24.7812 19.7845 24.4339 19.5685C24.1061 19.3645 24.3602 18.9716 25.0831 18.5651C26.5489 17.7407 32.1112 15.2353 32.6284 15.1666C32.8367 15.1386 32.9488 26.3249 32.8775 40.0247ZM23.0329 44.3675V69.1083L19.313 70.7396C17.2673 71.6367 15.3007 72.2582 14.943 72.1199C14.4189 71.9179 14.3018 67.1662 14.3421 47.7379C14.3715 33.7695 14.5858 23.4146 14.8513 23.1499C15.3296 22.6733 22.0065 19.6758 22.6592 19.6447C22.865 19.6347 23.0329 30.7599 23.0329 44.3675ZM13.5569 48.6977L13.5838 73.2581L10.7409 74.5226C9.17742 75.2182 7.40669 75.9113 6.80581 76.0632L5.71318 76.3388L5.87262 52.232C5.97177 37.2848 5.85468 28.2359 5.56421 28.4164C5.30712 28.5762 5.09637 28.3878 5.09637 27.9974C5.09637 27.2792 11.1016 24.2535 12.6765 24.1784C13.4712 24.1403 13.532 25.8323 13.5569 48.6977ZM56.8093 62.1018L56.6638 65.9859L47.4464 66.2365L38.2291 66.4871L38.0846 70.6113L37.9401 74.7351L28.369 74.8714L18.7979 75.0072L18.5487 79.1429C18.3544 82.3706 18.4446 83.2787 18.9603 83.2777C19.4675 83.2767 19.5836 82.345 19.4585 79.2662L19.2961 75.2553L28.8871 75.2568L38.4782 75.2578V70.9977V66.7377H47.9447H57.4111V62.4777C57.4111 60.1346 57.3085 58.2176 57.183 58.2176C57.0574 58.2176 56.8895 59.9657 56.8093 62.1018Z" fill="#EC6945"/>
</svg>
