<svg width="92" height="79" viewBox="0 0 92 79" fill="none" xmlns="http://www.w3.org/2000/svg">
<path fill-rule="evenodd" clip-rule="evenodd" d="M63.022 0.113066C62.3856 0.233389 62.1247 0.362707 62.1091 0.565507C62.0972 0.721808 62.0693 1.02338 62.0473 1.23568C61.9972 1.71528 62.1829 1.83543 63.1493 1.94829L63.9132 2.03755V5.3326V8.62747L62.8979 8.89646C62.0106 9.1315 61.8821 9.21755 61.8794 9.57885C61.8763 9.97936 61.7354 10.0259 57.3776 11.0606C54.9034 11.6479 51.4658 12.4703 49.7386 12.8878C48.0113 13.3055 44.8029 14.069 42.6088 14.5847C38.5226 15.5451 23.2262 19.1604 19.2673 20.1014C14.5578 21.2208 10.4035 22.2032 5.34732 23.3932L0.0848781 24.6316L0.0375161 26.9666C-0.00645074 29.1383 0.0113737 29.2952 0.29215 29.2084C0.458342 29.1574 2.23654 28.6929 4.24391 28.1764C6.25127 27.66 10.6819 26.5194 14.0898 25.6419C17.4976 24.7643 20.3373 24.0963 20.3999 24.1578C20.6028 24.3558 21.7166 31.045 21.5626 31.1402C21.4808 31.1908 16.5957 32.6406 10.7069 34.3619L0 37.4917V39.8116V42.1315L1.82488 41.5701C2.82865 41.2614 7.04913 39.9423 11.2039 38.6389C21.9894 35.2551 22.2657 35.1733 22.4017 35.3291C22.594 35.5496 23.4262 40.5451 23.2917 40.6719C23.2257 40.7341 22.7898 40.8996 22.3229 41.0396C21.4329 41.3066 3.35897 47.4659 1.23073 48.2274L0 48.6678V51.021C0 52.4441 0.0656957 53.3741 0.166361 53.3741C0.25786 53.3741 0.620629 53.2625 0.972703 53.1259C1.32461 52.9892 6.38708 51.1523 12.2224 49.0439C18.0578 46.9353 23.121 45.0994 23.4739 44.9639C23.9776 44.7706 24.1303 44.7635 24.1847 44.9305C24.3118 45.322 24.9762 49.3358 24.9224 49.3877C24.8932 49.4157 23.7616 49.8629 22.4078 50.3812C21.054 50.8995 17.4637 52.287 14.4293 53.4644C11.3949 54.642 6.90704 56.3771 4.4561 57.32L0 59.0346V61.6409C0 64.1796 0.00865757 64.2427 0.333741 64.0688C0.517247 63.9707 1.87309 63.4003 3.34691 62.8014C4.82057 62.2027 7.78332 60.9923 9.93074 60.1117C21.6706 55.2983 25.6629 53.6867 25.7157 53.7395C25.7481 53.7719 25.9274 54.6003 26.1143 55.5803C26.3726 56.9349 26.4066 57.4069 26.2559 57.5484C26.091 57.7032 16.2243 61.9775 2.8463 67.6897L0.00594147 68.9024L0.00288586 71.4904C0.00135805 72.9138 0.0641678 74.0785 0.142425 74.0785C0.220853 74.0785 3.79201 72.4859 8.07853 70.5394C12.365 68.593 18.3367 65.8819 21.3489 64.5148C24.3609 63.1478 26.9254 62.0292 27.0476 62.0292C27.1929 62.0292 27.3367 62.4586 27.4627 63.2688C27.5687 63.9507 27.7056 64.6392 27.7669 64.7989C27.8582 65.0366 27.5131 65.2618 25.8646 66.0401C24.7569 66.563 23.0487 67.3727 22.0683 67.8393C21.088 68.306 19.7511 68.9367 19.0976 69.2406C18.444 69.5447 16.9276 70.2612 15.7277 70.8328C14.5281 71.4046 13.5246 71.8723 13.4982 71.8723C13.4717 71.8723 12.1233 72.5055 10.502 73.2795C8.88063 74.0535 5.85557 75.4854 3.77962 76.4615C0.510457 77.9987 0.00458342 78.2874 0.00254634 78.6182L0 79H4.66354H9.32692L13.2787 77.0665C15.4521 76.003 19.7065 73.9028 22.7332 72.3996C25.7598 70.8961 28.3243 69.6661 28.4323 69.6661C28.6649 69.6661 29.0743 72.0625 28.8759 72.2618C28.7251 72.4131 20.7636 76.4966 17.9588 77.8611C16.9592 78.3475 16.138 78.8026 16.134 78.8727C16.1238 79.0528 25.5307 79.0319 25.7266 78.8513C25.9635 78.6331 29.5001 76.7938 29.6827 76.7938C29.7684 76.7938 29.9323 77.2902 30.0469 77.8969L30.255 79H32.188C34.0062 79 34.467 78.8754 33.8839 78.5418C33.6447 78.4048 33.0327 75.1773 33.1958 74.9133C33.2413 74.8398 34.6712 74.0366 36.3733 73.1283C38.0756 72.2198 39.9267 71.2318 40.4869 70.9324C43.4501 69.3492 56.6755 62.305 58.0991 61.5517L59.7542 60.676L59.7486 62.0739L59.7428 63.4717L58.8574 63.9809C58.2055 64.3556 57.9585 64.6035 57.9217 64.9199C57.8634 65.4181 58.0751 65.632 59.9876 67.0074C61.6845 68.2278 61.9429 68.2343 63.8283 67.1016C65.9342 65.8368 65.9513 65.7633 64.4225 64.5623L63.3191 63.6953L63.3225 61.2077L63.326 58.7199L64.8078 57.9403C66.1024 57.2594 71.0803 54.6155 76.9469 51.4933L78.7767 50.5193L79.8645 51.0861L80.9523 51.6531L80.3689 52.0979C80.048 52.3427 79.7863 52.6726 79.7875 52.8312C79.7898 53.1866 83.2692 55.0712 83.9229 55.0712C84.3354 55.0712 85.78 54.3119 86.4484 53.7438C86.9376 53.328 86.7947 53.0821 85.7992 52.6266C85.0609 52.2887 84.8734 52.1273 84.9458 51.8928C84.9969 51.7275 85.1205 50.523 85.2207 49.2163C85.3208 47.9095 85.6676 43.7093 85.9912 39.8824C86.3148 36.0555 87.0761 27.044 87.6828 19.8569C88.2897 12.6697 88.8144 6.71147 88.8489 6.61627C88.8833 6.52106 89.4889 6.29942 90.1942 6.12394C90.8997 5.9483 91.5665 5.74923 91.676 5.68152C91.7855 5.61397 91.9145 5.20922 91.9625 4.7824C92.043 4.06895 92.0175 3.99988 91.647 3.92793C91.2983 3.86004 83.7536 2.78189 74.7776 1.51706C73.2838 1.30662 70.4436 0.897625 68.4661 0.608273C66.4886 0.318922 64.6552 0.0512928 64.3919 0.013448C64.1286 -0.0243968 63.5121 0.020406 63.022 0.113066ZM70.3881 3.1264C72.0554 3.39861 75.4249 3.94337 77.8757 4.33692C80.3266 4.73047 82.3316 5.09959 82.3314 5.15729C82.3313 5.21482 81.09 5.54779 79.5729 5.89704C78.0559 6.2463 76.0508 6.71419 75.1171 6.93667C71.2054 7.86922 67.3944 8.74101 67.2299 8.74101C67.1146 8.74101 67.0537 7.68508 67.0537 5.68627C67.0537 4.00616 67.1218 2.63153 67.2051 2.63153C67.2885 2.63153 68.7207 2.85419 70.3881 3.1264ZM83.1028 9.12285C83.0549 9.7063 82.9692 10.7824 82.9123 11.5144C82.8251 12.6392 82.7657 12.8344 82.528 12.7751C82.3734 12.7366 80.2034 12.254 77.7059 11.7026C75.2085 11.1512 73.1653 10.6602 73.1656 10.6115C73.1663 10.5114 82.4212 8.09815 82.8882 8.07626C83.1556 8.0637 83.18 8.18335 83.1028 9.12285ZM71.84 12.9162C74.0159 13.4392 76.3163 13.994 76.952 14.1491C78.1481 14.4408 78.4866 14.7259 77.7483 14.8194C77.5149 14.849 76.4837 15.1305 75.4566 15.445C74.4296 15.7594 72.9196 16.1832 72.1011 16.3868L70.6126 16.757L68.8757 16.2813C67.9203 16.0198 67.1101 15.7849 67.0751 15.7596C66.9804 15.6909 67.0576 12.2662 67.1574 12.1046C67.3085 11.8602 67.8032 11.9461 71.84 12.9162ZM63.9981 13.9071C63.9981 14.8958 63.9862 14.9153 63.2766 15.0849C62.81 15.1963 62.8098 15.1958 62.8098 14.2543C62.8098 13.436 62.8599 13.2921 63.1918 13.1587C63.9214 12.8654 63.9981 12.9367 63.9981 13.9071ZM58.4775 15.9112C58.5396 16.7746 58.5657 18.1275 58.5357 18.9177L58.481 20.3543L57.2078 20.7275C54.8891 21.4071 48.3181 23.3449 46.9376 23.7562C46.1907 23.9787 41.8746 25.2427 37.3464 26.5649C32.8181 27.8873 28.3888 29.1884 27.5034 29.4562C26.6181 29.7242 25.8444 29.8886 25.7839 29.8216C25.6821 29.7086 24.7508 23.9931 24.7155 23.2632C24.7019 22.9864 24.9871 22.8614 26.5668 22.4505C28.304 21.9986 31.8349 21.0894 40.6566 18.8228C42.6173 18.319 45.4819 17.5936 47.0225 17.2109C55.194 15.1812 57.9785 14.4736 58.0425 14.4108C58.2797 14.1779 58.3768 14.5131 58.4775 15.9112ZM82.5711 17.2688C82.3589 19.5173 82.3005 19.9417 82.2031 19.9417C82.109 19.9417 77.3221 18.6584 76.7439 18.4782C76.6005 18.4335 76.5662 18.3436 76.659 18.2557C76.8162 18.1067 82.0722 16.4142 82.4511 16.3906C82.5957 16.3816 82.6307 16.6373 82.5711 17.2688ZM63.9981 18.0955C63.9981 18.6334 63.929 18.7446 63.5033 18.8931C63.2311 18.9878 62.9638 19.0207 62.9091 18.9662C62.7825 18.8396 62.7786 17.3143 62.9045 17.1882C62.9566 17.1363 63.224 17.1784 63.4987 17.2821C63.9268 17.4436 63.9981 17.5597 63.9981 18.0955ZM75.2103 20.7298C76.9797 21.2568 78.4274 21.7374 78.4274 21.7981C78.4274 21.8587 77.6443 22.1608 76.6874 22.4695C75.7305 22.7782 74.5395 23.1757 74.041 23.353C73.5426 23.5302 72.9678 23.6753 72.7638 23.6753C72.5599 23.6753 71.1725 23.2676 69.6809 22.7696C66.1579 21.593 66.1375 21.5018 69.1757 20.5199C70.3894 20.1275 71.52 19.7988 71.6879 19.7893C71.8559 19.7798 73.441 20.2031 75.2103 20.7298ZM63.9557 23.5472C64.095 23.6587 64.1679 24.2056 64.1679 25.1427C64.1679 26.5172 64.1521 26.5747 63.7324 26.7343C63.4929 26.8252 63.2305 26.8997 63.1491 26.8997C63.0028 26.8997 62.8276 23.3725 62.9673 23.2344C63.0649 23.1376 63.6919 23.3362 63.9557 23.5472ZM58.7357 25.8676C58.7357 26.98 58.7817 28.01 58.8378 28.1562C58.9086 28.3409 58.7918 28.48 58.4559 28.6109C57.8417 28.8498 51.0503 31.1938 42.5239 34.1094C38.8827 35.3546 34.0701 37.0012 31.8293 37.7688C29.5885 38.5363 27.6441 39.1732 27.5085 39.1839C27.3201 39.199 27.1578 38.5902 26.8201 36.6038C26.4258 34.2847 26.4066 33.9893 26.6422 33.8657C26.7875 33.7897 28.1286 33.3418 29.6225 32.8707C35.3117 31.0761 38.4938 30.078 39.723 29.703C40.4232 29.4893 42.7461 28.764 44.8849 28.0911C47.0238 27.4182 49.8885 26.5405 51.2508 26.1405C55.0548 25.024 58.2734 24.0244 58.3676 23.93C58.6552 23.6427 58.7357 24.0668 58.7357 25.8676ZM82.0579 25.2451C82.0013 26.015 81.9279 26.6742 81.8948 26.7098C81.7926 26.8196 77.9181 25.5173 77.9181 25.3732C77.9181 25.2383 81.5449 23.8716 81.9493 23.8542C82.1099 23.8472 82.136 24.1827 82.0579 25.2451ZM68.5815 25.1774C68.5815 25.2902 67.3788 25.7118 67.0564 25.7118C66.8753 25.7118 66.813 24.8212 66.9822 24.6518C67.1016 24.5325 68.5815 25.0187 68.5815 25.1774ZM76.1686 27.6885C77.5042 28.1223 78.5971 28.5303 78.5971 28.5951C78.5971 28.7141 77.2637 29.2509 75.1587 29.9794L74.0122 30.3762L72.6973 29.8932C71.9741 29.6276 70.9062 29.2463 70.3239 29.046C69.7416 28.8456 69.288 28.61 69.3159 28.5225C69.3692 28.3553 73.0717 26.9262 73.4949 26.9094C73.6297 26.9041 74.8328 27.2548 76.1686 27.6885ZM64.1679 31.2329C64.1679 31.8866 64.1056 32.0144 63.6801 32.2343C63.4119 32.3731 63.1446 32.4387 63.086 32.3801C63.0274 32.3217 62.9796 31.9195 62.9796 31.4863C62.9796 30.7826 63.0291 30.6803 63.4464 30.5247C64.0848 30.2868 64.1679 30.3684 64.1679 31.2329ZM68.6683 31.08C69.5542 31.419 70.2791 31.7627 70.2791 31.8437C70.2791 31.9246 70.2594 31.991 70.2353 31.991C70.2112 31.991 69.5434 32.2201 68.7513 32.5001C67.9592 32.7801 67.215 33.0092 67.0975 33.0092C66.9449 33.0092 66.8839 32.6459 66.8839 31.7364C66.8839 31.0364 66.923 30.4636 66.9707 30.4636C67.0184 30.4636 67.7823 30.7409 68.6683 31.08ZM81.7614 31.1C81.715 31.2634 81.6254 31.8048 81.5621 32.3031C81.4687 33.0386 81.3945 33.1925 81.1679 33.1209C79.6422 32.6386 78.6144 32.2184 78.6526 32.0924C78.702 31.9299 81.243 30.8375 81.6217 30.8157C81.7558 30.8081 81.8116 30.922 81.7614 31.1ZM59.0349 36.1064C58.9572 36.2698 58.8007 36.4047 58.6873 36.4062C58.5739 36.4078 57.297 36.8718 55.8498 37.4374C54.4026 38.0029 51.8435 38.9882 50.163 39.627C47.363 40.691 29.3592 47.6857 28.9261 47.8776C28.7246 47.9669 27.9337 44.1363 28.0398 43.5852C28.0851 43.3504 29.2602 42.8555 33.0198 41.4883C38.863 39.3634 49.6455 35.497 53.8127 34.0324C55.4466 33.4581 57.2418 32.8168 57.802 32.6072L58.8205 32.226L58.9986 34.0176C59.0964 35.0031 59.1129 35.9429 59.0349 36.1064ZM76.6673 34.2642C77.682 34.6744 78.5123 35.0642 78.5123 35.1302C78.5123 35.1964 77.6804 35.5801 76.6638 35.983L74.8153 36.7156L73.0565 35.9411C72.0892 35.5151 71.2985 35.1204 71.2996 35.0637C71.301 34.9917 74.1157 33.7551 74.8 33.5258C74.8124 33.5217 75.6527 33.854 76.6673 34.2642ZM63.3191 34.5366C63.3191 34.6299 63.2855 34.7063 63.2442 34.7063C63.203 34.7063 63.1222 34.6299 63.0644 34.5366C63.0067 34.4432 63.0405 34.3669 63.1393 34.3669C63.2381 34.3669 63.3191 34.4432 63.3191 34.5366ZM69.5748 37.2222C70.5414 37.6633 71.3434 38.0864 71.3572 38.1626C71.3711 38.2386 70.7396 38.5563 69.954 38.8682L68.5257 39.4355L67.7047 39.0197L66.8839 38.6038V37.6993C66.8839 36.9288 66.9407 36.7674 67.2659 36.6104C67.7735 36.3659 67.5925 36.3178 69.5748 37.2222ZM81.1966 38.3126C81.1413 38.8025 81.0712 39.2326 81.0409 39.2682C80.9279 39.4009 79.0954 38.558 79.1487 38.3978C79.1965 38.2544 80.8332 37.4791 81.1779 37.4364C81.2435 37.4282 81.2519 37.8226 81.1966 38.3126ZM64.1679 40.5697C64.1679 40.8689 64.0395 41.0427 63.7324 41.1594C63.4929 41.2504 63.2637 41.3249 63.2232 41.3249C63.1826 41.3249 63.1493 40.941 63.1493 40.4719V39.6192L63.6586 39.8824C64.0183 40.0684 64.1679 40.2702 64.1679 40.5697ZM77.0551 40.5855C77.8098 40.9256 78.4274 41.2526 78.4274 41.312C78.4274 41.3716 78.2172 41.5082 77.9605 41.6159C77.7039 41.7235 77.0354 42.0075 76.4752 42.2469L75.4566 42.6822L74.0562 42.0531C73.2858 41.7072 72.6557 41.3797 72.6557 41.3254C72.6557 41.2105 75.1913 40.008 75.4848 39.9837C75.5936 39.9745 76.3002 40.2455 77.0551 40.5855ZM59.2753 41.682C59.3054 42.5317 59.2909 43.2893 59.2432 43.3655C59.1957 43.4417 57.5533 44.1899 55.5935 45.0279C42.9587 50.4316 39.7829 51.7921 35.2433 53.7458C32.4528 54.9467 30.1254 55.8851 30.0715 55.8313C29.9046 55.6643 29.3829 52.2777 29.5062 52.1614C29.6411 52.0341 31.1526 51.4089 44.1366 46.1101C49.4118 43.9572 54.8355 41.7385 56.1893 41.1795C57.5431 40.6204 58.7791 40.1571 58.9358 40.15C59.1791 40.1388 59.2288 40.3638 59.2753 41.682ZM70.8556 43.4651C71.5655 43.8021 72.1464 44.1364 72.1464 44.2082C72.1464 44.2798 71.8982 44.4368 71.5947 44.557C71.2912 44.6771 69.8314 45.3403 68.3508 46.0309C66.8702 46.7213 65.2278 47.4815 64.701 47.7203C64.1743 47.9591 63.6097 48.2244 63.4464 48.3096C63.1748 48.4513 63.1493 48.3428 63.1493 47.0425V45.6204L66.0776 44.2506C67.6883 43.4973 69.1317 42.8747 69.2853 42.8667C69.4391 42.8587 70.1456 43.128 70.8556 43.4651ZM80.804 44.3513C80.804 44.7092 80.7608 45.0451 80.708 45.0977C80.5889 45.217 79.2802 44.68 79.2779 44.511C79.2762 44.3879 80.4358 43.7225 80.6766 43.7083C80.7467 43.7042 80.804 43.9935 80.804 44.3513ZM77.0844 46.5434C77.627 46.8 78.0709 47.0865 78.0711 47.1798C78.0712 47.2731 77.254 47.7283 76.2548 48.1914C75.2556 48.6544 74.3534 49.0939 74.2498 49.1681C74.1463 49.2423 71.9649 50.3639 69.4023 51.6604C66.8396 52.957 64.4799 54.1782 64.1583 54.3742C63.8368 54.5702 63.5165 54.7308 63.4464 54.7311C63.3763 54.7315 63.3191 54.1942 63.3191 53.5372V52.3425L69.5576 49.2272C72.9887 47.5136 75.8641 46.1039 75.9471 46.0942C76.0301 46.0845 76.5419 46.2868 77.0844 46.5434ZM59.4493 48.7496C59.4848 49.5107 59.4369 50.1424 59.3354 50.2488C59.1763 50.4156 55.2136 52.2943 50.842 54.2753C49.9083 54.6984 47.9986 55.5927 46.5981 56.2627C45.1976 56.9327 42.2948 58.3062 40.1473 59.3146C37.9999 60.3232 35.1844 61.6521 33.8903 62.2677C32.5964 62.8832 31.4711 63.3869 31.3896 63.3869C31.2261 63.3869 31.1706 63.1695 30.8948 61.4512C30.7104 60.3025 30.7863 60.006 31.2676 59.9953C31.3321 59.9939 32.0578 59.6798 32.8802 59.2973C33.7027 58.9148 37.0875 57.3757 40.402 55.877C43.7165 54.3783 47.345 52.7369 48.4654 52.2291C49.5858 51.7215 50.999 51.0877 51.6059 50.8205C52.2128 50.5533 54.1225 49.6866 55.8498 48.8944C57.5771 48.1022 59.0797 47.4496 59.1891 47.4442C59.3198 47.4378 59.4089 47.8851 59.4493 48.7496ZM59.6197 55.3682C59.6552 55.9982 59.6605 56.5657 59.6316 56.629C59.6028 56.6924 56.8877 58.0942 53.598 59.7439C47.9763 62.5631 45.4799 63.8327 36.2005 68.5918C34.123 69.6573 32.4153 70.5066 32.4051 70.4793C32.3572 70.3493 31.9615 67.8799 31.9839 67.8505C31.998 67.832 37.8129 64.948 44.9058 61.4414C51.9987 57.9347 58.1457 54.8849 58.5659 54.6637C58.986 54.4428 59.3806 54.2531 59.4427 54.2422C59.5047 54.2315 59.5844 54.7383 59.6197 55.3682Z" fill="#EC6945"/>
</svg>
