<svg width="124" height="82" viewBox="0 0 124 82" fill="none" xmlns="http://www.w3.org/2000/svg">
<path fill-rule="evenodd" clip-rule="evenodd" d="M78.9177 0.18609C78.8145 0.288202 78.7302 0.593423 78.7302 0.864048C78.7302 1.28617 78.6008 1.31909 77.8183 1.09645C76.2248 0.643084 75.356 0.758868 75.356 1.42483C75.356 1.84723 75.2303 1.96469 74.9098 1.84276C74.664 1.7493 73.9681 1.59418 73.3633 1.4982C72.3589 1.3389 72.263 1.37824 72.263 1.94822C72.263 2.51905 72.1717 2.55615 71.2086 2.37788C69.9875 2.15217 70.0246 2.1558 69.381 2.19904C69.1105 2.21718 68.8889 2.42447 68.8889 2.65994C68.8889 3.01259 68.6403 3.05555 67.483 2.90322C66.2585 2.74196 66.0771 2.7813 66.0771 3.20844C66.0771 3.6367 65.8957 3.67492 64.6481 3.51088C63.3873 3.34487 63.2026 3.38561 63.078 3.8585C62.9529 4.33363 62.8056 4.36488 61.7731 4.13471C60.8053 3.91877 60.5505 3.95476 60.2612 4.3473C60.0017 4.69967 59.6614 4.77891 58.9202 4.6595C58.2249 4.54762 57.7958 4.62992 57.4888 4.93459C57.1859 5.23506 56.7524 5.32128 56.0846 5.21386C55.3765 5.09975 55.0521 5.1762 54.869 5.50067C54.6834 5.82961 54.362 5.90186 53.6175 5.7819C52.9154 5.6689 52.5113 5.74479 52.2687 6.03522C52.0198 6.33236 51.6276 6.40043 50.8825 6.27544C50.0822 6.14152 49.8039 6.2029 49.6723 6.54244C49.5387 6.88839 49.257 6.94503 48.3698 6.80413C47.4619 6.66017 47.2381 6.709 47.2381 7.05216C47.2381 7.39002 47.0019 7.44834 46.1134 7.33004C45.375 7.23183 44.9887 7.28875 44.9887 7.49604C44.9887 7.68436 44.4775 7.81187 43.7234 7.81187C42.9827 7.81187 42.458 7.94048 42.458 8.12183C42.458 8.32354 42.1232 8.36958 41.5001 8.25351C40.843 8.13131 40.5044 8.18655 40.4232 8.429C40.3481 8.65192 39.9232 8.74985 39.2723 8.69433C38.6678 8.64271 38.2404 8.7306 38.2404 8.90636C38.2404 9.07181 37.8051 9.20684 37.2728 9.20684C36.7406 9.20684 36.2297 9.32821 36.1371 9.47663C36.0446 9.62506 35.6096 9.67527 35.1707 9.58823C34.7203 9.49867 34.2887 9.5634 34.1807 9.73665C34.0755 9.90572 33.5542 10.0438 33.022 10.0438C32.4897 10.0438 32.0544 10.1577 32.0544 10.2966C32.0544 10.4358 31.7929 10.4818 31.4735 10.399C31.1541 10.3158 30.5934 10.4071 30.2273 10.6015C29.8612 10.796 29.3675 10.8811 29.1299 10.7907C28.8926 10.7 28.6235 10.7463 28.5321 10.8931C28.4407 11.0398 27.9306 11.1598 27.3984 11.1598C26.8661 11.1598 26.4308 11.2879 26.4308 11.4441C26.4308 11.6112 26.1286 11.6531 25.6978 11.5459C25.2946 11.4455 24.8832 11.4848 24.784 11.6335C24.6844 11.782 23.2113 12.126 21.5102 12.398C19.8091 12.67 18.2646 13.0157 18.0781 13.1661C17.8914 13.3167 17.6119 13.3619 17.4567 13.2668C17.3018 13.1716 16.9484 13.2149 16.6714 13.3628C16.3944 13.5103 15.029 13.8373 13.6372 14.089C12.2454 14.3406 8.73427 15.0585 5.83447 15.684L0.562358 16.8217V17.6177C0.562358 18.0555 0.435828 18.4137 0.281179 18.4137C0.126531 18.4137 0 18.7276 0 19.1112C0 19.4948 0.0795736 19.8087 0.176862 19.8087C0.394775 19.8087 10.7031 17.9444 34.7256 13.5603C40.1383 12.5724 45.5791 11.6227 46.8163 11.4497C48.0535 11.2767 49.8249 10.9564 50.7528 10.738C51.6807 10.5195 54.5909 9.96013 57.22 9.49476C59.849 9.02968 66.302 7.85874 71.5601 6.89286L81.1202 5.13686L89.0635 6.94642C93.4324 7.9416 97.0068 8.85754 97.0068 8.98141C97.0068 9.47272 94.7295 9.14211 88.2121 7.70529C81.766 6.28437 79.5737 6.04387 79.5737 6.75782C79.5737 6.91155 79.2723 6.96037 78.8983 6.86719C77.9994 6.64343 76.4416 6.96567 76.6677 7.32864C76.7827 7.51278 76.5752 7.54682 76.084 7.42462C75.2306 7.21203 73.1738 7.50832 73.6166 7.77978C73.7732 7.87576 73.3113 7.96531 72.59 7.97843C71.8688 7.99182 70.5197 8.15726 69.5918 8.34614C68.6639 8.53502 67.3039 8.75515 66.5692 8.8355C65.8344 8.91585 65.2336 9.10864 65.2336 9.26376C65.2336 9.4186 65.0224 9.46519 64.764 9.3667C64.5059 9.2685 63.6516 9.31286 62.866 9.46575C62.0804 9.61836 60.1723 9.94869 58.6258 10.1998C57.0794 10.4509 55.561 10.7597 55.2517 10.8861C54.9424 11.0125 54.4995 11.1157 54.2676 11.1149C53.2877 11.1127 48.7387 11.7803 48.2222 12.0027C47.9129 12.1355 46.3946 12.4496 44.8481 12.7001C43.3016 12.951 41.3404 13.2732 40.4898 13.4163C39.6392 13.5594 37.5374 13.798 35.8191 13.9467C32.1123 14.267 31.0765 14.561 32.7574 14.816L33.8821 14.9865L32.4762 15.0493C31.0967 15.1109 30.8026 15.1455 29.102 15.4463C28.6381 15.528 26.7401 15.8561 24.8844 16.1753C23.0286 16.4942 19.1061 17.1855 16.1678 17.7112C10.4357 18.7365 7.71415 19.1391 4.71284 19.4052C2.89502 19.5665 1.7419 20.0877 3.20291 20.0877C4.11028 20.0877 13.5545 20.8722 15.081 21.0742C16.1675 21.2181 16.2825 21.3211 16.8384 22.648C17.4255 24.0502 17.4331 24.3278 17.4331 44.6763V65.2849H18.2766H19.1202V44.8538V24.423L19.7419 22.9345L20.3636 21.4464L21.6398 21.5923C22.3417 21.6723 23.743 21.8132 24.7536 21.905L26.5914 22.0721L27.0733 23.4191C27.5114 24.6422 27.5556 26.5592 27.5556 44.298C27.5556 61.8516 27.6005 63.8475 28.0004 63.9995C29.3011 64.4948 29.2426 65.4087 29.2426 44.6211C29.2426 25.2644 29.2485 25.0599 29.8444 23.6853L30.4464 22.2973L31.6017 22.448C36.2859 23.0598 42.7848 23.4166 44.7075 23.1678C45.8673 23.0177 47.0376 22.891 47.3084 22.8863C47.7732 22.8782 47.8005 24.2159 47.8005 47.1449V71.4122L48.4832 71.5821C48.8585 71.6755 49.3964 71.6792 49.6782 71.5899C50.1677 71.435 50.195 70.3425 50.2897 47.083C50.3443 33.6934 50.4312 22.6937 50.4826 22.6396C50.5897 22.5272 57.1747 21.7767 58.1338 21.7675L58.7664 21.7616V45.7552V69.7488H59.7506H60.7347V45.7494V21.7496L61.3673 21.498C61.7154 21.3596 64.2143 21.0376 66.9206 20.7826C69.627 20.5279 72.0943 20.2174 72.4036 20.093C72.7129 19.9682 73.6619 19.8592 74.5125 19.8499C75.363 19.841 80.733 19.3257 86.4454 18.7052C92.1581 18.0845 97.1243 17.5767 97.4817 17.5767H98.1315V49.6558V81.735L98.8004 81.9015C99.1685 81.9931 99.8326 82.0271 100.277 81.9766L101.084 81.8851L101.155 49.4974L101.227 17.1094L104.248 16.7846C105.91 16.6061 107.491 16.4602 107.761 16.4604C108.224 16.4607 108.255 18.1804 108.323 47.4788L108.395 78.497L109.164 78.7012C109.587 78.8134 110.188 78.8393 110.498 78.7587C111.059 78.6133 111.064 78.3954 111.135 47.329L111.206 16.0456L115.424 15.5713C117.744 15.3107 119.934 15.09 120.291 15.0814C121.465 15.0529 120.673 14.5892 118.875 14.2527C115.473 13.6158 112.19 12.766 112.19 12.5221C112.19 12.1996 111.673 12.1067 117.814 13.5313C120.791 14.2218 123.401 14.7867 123.613 14.7867C123.855 14.7867 124 14.4748 124 13.9551C124 13.3005 123.85 13.086 123.297 12.9484C122.753 12.8129 122.594 12.5936 122.594 11.9773C122.594 11.2926 122.447 11.1428 121.54 10.9054C120.96 10.7536 118.018 9.98719 115.002 9.2021C111.987 8.41701 102.846 6.02518 94.6899 3.88724C86.5334 1.7493 79.6904 0 79.4826 0C79.2751 0 79.0206 0.0836985 78.9177 0.18609ZM80.9034 7.14339C80.81 7.23602 80.5674 7.24606 80.3646 7.16543C80.1403 7.07643 80.2069 7.01031 80.5345 6.99692C80.8308 6.98492 80.9967 7.05077 80.9034 7.14339ZM82.1746 7.43857C81.9814 7.51613 81.6651 7.51613 81.4716 7.43857C81.2785 7.36129 81.4365 7.29796 81.8231 7.29796C82.2097 7.29796 82.368 7.36129 82.1746 7.43857ZM78.0916 7.70138C77.9982 7.79401 77.7556 7.80405 77.5529 7.72342C77.3285 7.63442 77.3951 7.5683 77.7227 7.55491C78.0191 7.54291 78.185 7.60876 78.0916 7.70138ZM83.434 7.70138C83.3407 7.79401 83.098 7.80405 82.8953 7.72342C82.6709 7.63442 82.7375 7.5683 83.0651 7.55491C83.3615 7.54291 83.5274 7.60876 83.434 7.70138ZM79.3628 7.99656C79.1696 8.07412 78.8533 8.07412 78.6599 7.99656C78.4667 7.91928 78.6247 7.85595 79.0113 7.85595C79.398 7.85595 79.5563 7.91928 79.3628 7.99656ZM84.8399 7.98038C84.7465 8.073 84.5039 8.08305 84.3012 8.00242C84.0768 7.91342 84.1434 7.8473 84.471 7.83391C84.7673 7.82191 84.9333 7.88775 84.8399 7.98038ZM80.6222 8.25937C80.5289 8.352 80.2862 8.36204 80.0835 8.28141C79.8591 8.19241 79.9257 8.12629 80.2533 8.1129C80.5497 8.1009 80.7156 8.16675 80.6222 8.25937ZM85.9646 8.25937C85.8713 8.352 85.6286 8.36204 85.4259 8.28141C85.2015 8.19241 85.2681 8.12629 85.5957 8.1129C85.8921 8.1009 86.058 8.16675 85.9646 8.25937ZM82.0281 8.53837C81.9348 8.63099 81.6921 8.64104 81.4894 8.56041C81.265 8.47141 81.3316 8.40529 81.6592 8.3919C81.9556 8.3799 82.1215 8.44574 82.0281 8.53837ZM87.3705 8.53837C87.2772 8.63099 87.0345 8.64104 86.8318 8.56041C86.6074 8.47141 86.674 8.40529 87.0016 8.3919C87.298 8.3799 87.4639 8.44574 87.3705 8.53837ZM78.0916 8.81736C77.9982 8.90999 77.7556 8.92003 77.5529 8.8394C77.3285 8.7504 77.3951 8.68428 77.7227 8.67089C78.0191 8.6589 78.185 8.72474 78.0916 8.81736ZM83.434 8.81736C83.3407 8.90999 83.098 8.92003 82.8953 8.8394C82.6709 8.7504 82.7375 8.68428 83.0651 8.67089C83.3615 8.6589 83.5274 8.72474 83.434 8.81736ZM79.4975 9.09636C79.4041 9.18898 79.1615 9.19903 78.9588 9.1184C78.7344 9.0294 78.801 8.96328 79.1286 8.94989C79.4249 8.93789 79.5908 9.00373 79.4975 9.09636ZM84.8399 9.09636C84.7465 9.18898 84.5039 9.19903 84.3012 9.1184C84.0768 9.0294 84.1434 8.96328 84.471 8.94989C84.7673 8.93789 84.9333 9.00373 84.8399 9.09636ZM89.9011 9.09636C89.8078 9.18898 89.5651 9.19903 89.3624 9.1184C89.138 9.0294 89.2046 8.96328 89.5322 8.94989C89.8286 8.93789 89.9945 9.00373 89.9011 9.09636ZM70.4998 9.37535C70.4064 9.46798 70.1637 9.47802 69.961 9.39739C69.7366 9.3084 69.8033 9.24227 70.1309 9.22888C70.4272 9.21689 70.5931 9.28273 70.4998 9.37535ZM80.9034 9.37535C80.81 9.46798 80.5674 9.47802 80.3646 9.39739C80.1403 9.3084 80.2069 9.24227 80.5345 9.22888C80.8308 9.21689 80.9967 9.28273 80.9034 9.37535ZM85.9646 9.37535C85.8713 9.46798 85.6286 9.47802 85.4259 9.39739C85.2015 9.3084 85.2681 9.24227 85.5957 9.22888C85.8921 9.21689 86.058 9.28273 85.9646 9.37535ZM91.307 9.37535C91.2137 9.46798 90.971 9.47802 90.7683 9.39739C90.5439 9.3084 90.6105 9.24227 90.9381 9.22888C91.2345 9.21689 91.4004 9.28273 91.307 9.37535ZM77.2481 9.65435C77.1547 9.74697 76.912 9.75702 76.7093 9.67639C76.4849 9.58739 76.5516 9.52127 76.8792 9.50788C77.1755 9.49588 77.3414 9.56172 77.2481 9.65435ZM82.3093 9.65435C82.2159 9.74697 81.9733 9.75702 81.7705 9.67639C81.5462 9.58739 81.6128 9.52127 81.9404 9.50788C82.2367 9.49588 82.4026 9.56172 82.3093 9.65435ZM87.3705 9.65435C87.2772 9.74697 87.0345 9.75702 86.8318 9.67639C86.6074 9.58739 86.674 9.52127 87.0016 9.50788C87.298 9.49588 87.4639 9.56172 87.3705 9.65435ZM73.5927 9.93334C73.4994 10.026 73.2567 10.036 73.054 9.95539C72.8296 9.86639 72.8962 9.80026 73.2238 9.78687C73.5202 9.77488 73.6861 9.84072 73.5927 9.93334ZM78.654 9.93334C78.5606 10.026 78.3179 10.036 78.1152 9.95539C77.8908 9.86639 77.9575 9.80026 78.285 9.78687C78.5814 9.77488 78.7473 9.84072 78.654 9.93334ZM83.7152 9.93334C83.6218 10.026 83.3792 10.036 83.1764 9.95539C82.9521 9.86639 83.0187 9.80026 83.3463 9.78687C83.6426 9.77488 83.8085 9.84072 83.7152 9.93334ZM88.7764 9.93334C88.6831 10.026 88.4404 10.036 88.2377 9.95539C88.0133 9.86639 88.0799 9.80026 88.4075 9.78687C88.7039 9.77488 88.8698 9.84072 88.7764 9.93334ZM74.9986 10.2123C74.9053 10.305 74.6626 10.315 74.4599 10.2344C74.2355 10.1454 74.3021 10.0793 74.6297 10.0659C74.9261 10.0539 75.092 10.1197 74.9986 10.2123ZM80.0599 10.2123C79.9665 10.305 79.7238 10.315 79.5211 10.2344C79.2967 10.1454 79.3634 10.0793 79.6909 10.0659C79.9873 10.0539 80.1532 10.1197 80.0599 10.2123ZM85.1211 10.2123C85.0277 10.305 84.7851 10.315 84.5823 10.2344C84.358 10.1454 84.4246 10.0793 84.7522 10.0659C85.0485 10.0539 85.2144 10.1197 85.1211 10.2123ZM104.964 10.5789C107.334 11.1361 107.736 11.3325 107.047 11.5948C106.328 11.8685 102.349 10.8856 102.349 10.4344C102.349 9.95343 102.292 9.95036 104.964 10.5789ZM81.4658 10.4913C81.3724 10.584 81.1297 10.594 80.927 10.5134C80.7026 10.4244 80.7693 10.3583 81.0968 10.3449C81.3932 10.3329 81.5591 10.3987 81.4658 10.4913ZM96.9331 11.0739C96.6607 11.1445 96.4906 11.2873 96.5555 11.3917C96.6205 11.4957 96.0843 11.6048 95.3642 11.6335C94.6438 11.6623 93.6433 11.7401 93.1406 11.8065C92.6378 11.8729 91.8787 11.9516 91.4535 11.9814C90.7663 12.03 90.743 12.0615 91.2426 12.2652C91.5716 12.3991 91.0576 12.4312 90.0046 12.3425C88.8357 12.2437 88.2649 12.2886 88.3783 12.4702C88.4845 12.641 88.0366 12.7573 87.2263 12.7688C86.4969 12.7794 85.4574 12.8502 84.9161 12.9267C84.3748 13.0028 82.2238 13.2729 80.1361 13.5268C78.0483 13.7807 76.1503 14.0619 75.9184 14.152C75.6864 14.2421 75.117 14.354 74.6531 14.4009C73.703 14.4969 73.681 14.4999 66.9206 15.4329C62.4389 16.0512 61.538 16.1156 61.8827 15.7931C62.0731 15.6154 95.3681 10.945 96.4444 10.9453C96.9857 10.9455 97.2056 11.0033 96.9331 11.0739ZM94.9623 12.1653C94.869 12.2579 94.6263 12.268 94.4236 12.1873C94.1992 12.0983 94.2659 12.0322 94.5934 12.0188C94.8898 12.0068 95.0557 12.0727 94.9623 12.1653ZM104.241 12.1653C104.148 12.2579 103.905 12.268 103.703 12.1873C103.478 12.0983 103.545 12.0322 103.872 12.0188C104.169 12.0068 104.335 12.0727 104.241 12.1653ZM96.3682 12.4443C96.2749 12.5369 96.0322 12.547 95.8295 12.4663C95.6051 12.3773 95.6718 12.3112 95.9993 12.2978C96.2957 12.2858 96.4616 12.3517 96.3682 12.4443ZM105.647 12.4443C105.554 12.5369 105.311 12.547 105.108 12.4663C104.884 12.3773 104.951 12.3112 105.278 12.2978C105.575 12.2858 105.741 12.3517 105.647 12.4443ZM115.921 14.1328C115.731 14.2092 115.351 14.214 115.078 14.1431C114.804 14.0722 114.96 14.0097 115.424 14.0042C115.888 13.9986 116.112 14.0563 115.921 14.1328ZM113.672 14.4118C113.482 14.4882 113.102 14.493 112.828 14.4221C112.555 14.3512 112.711 14.2887 113.175 14.2832C113.639 14.2776 113.862 14.3353 113.672 14.4118ZM35.6428 15.2574C35.374 15.3272 34.8679 15.3297 34.5181 15.263C34.1683 15.1963 34.3882 15.1391 35.0068 15.136C35.6254 15.133 35.9116 15.1877 35.6428 15.2574ZM106.215 15.258C105.945 15.3283 105.502 15.3283 105.231 15.258C104.961 15.1879 105.182 15.1305 105.723 15.1305C106.265 15.1305 106.486 15.1879 106.215 15.258ZM37.8923 15.5364C37.6235 15.6062 37.1173 15.6087 36.7675 15.542C36.4178 15.4753 36.6376 15.4181 37.2562 15.415C37.8748 15.412 38.1611 15.4667 37.8923 15.5364ZM103.831 15.5278C103.64 15.6042 103.261 15.6089 102.987 15.5381C102.714 15.4672 102.869 15.4047 103.333 15.3991C103.797 15.3936 104.021 15.4513 103.831 15.5278ZM40.1417 15.8154C39.8729 15.8851 39.3668 15.8877 39.017 15.821C38.6672 15.7543 38.8871 15.6971 39.5057 15.694C40.1243 15.691 40.4105 15.7457 40.1417 15.8154ZM42.3911 16.0944C42.1223 16.1641 41.6162 16.1667 41.2664 16.1C40.9166 16.0333 41.1365 15.9761 41.7551 15.973C42.3737 15.97 42.6599 16.0246 42.3911 16.0944ZM44.356 16.3739C44.0852 16.4443 43.6427 16.4443 43.3719 16.3739C43.1011 16.3039 43.3227 16.2464 43.8639 16.2464C44.4052 16.2464 44.6268 16.3039 44.356 16.3739ZM96.2336 16.3664C96.0404 16.444 95.7241 16.444 95.5306 16.3664C95.3374 16.2891 95.4955 16.2258 95.8821 16.2258C96.2687 16.2258 96.427 16.2891 96.2336 16.3664ZM46.4649 16.6454C46.2717 16.723 45.9554 16.723 45.7619 16.6454C45.5687 16.5681 45.7268 16.5048 46.1134 16.5048C46.5 16.5048 46.6583 16.5681 46.4649 16.6454ZM57.2843 16.6292C57.191 16.7219 56.9483 16.7319 56.7456 16.6513C56.5212 16.5623 56.5879 16.4961 56.9154 16.4828C57.2118 16.4708 57.3777 16.5366 57.2843 16.6292ZM93.9895 16.6437C93.7991 16.7202 93.4195 16.7249 93.1459 16.6541C92.8723 16.5832 93.0281 16.5207 93.4921 16.5151C93.956 16.5095 94.1798 16.5673 93.9895 16.6437ZM91.4535 16.9244C91.2603 17.002 90.944 17.002 90.7506 16.9244C90.5574 16.8471 90.7154 16.7838 91.102 16.7838C91.4887 16.7838 91.647 16.8471 91.4535 16.9244ZM88.9229 17.2034C88.7297 17.281 88.4134 17.281 88.22 17.2034C88.0268 17.1261 88.1848 17.0628 88.5714 17.0628C88.958 17.0628 89.1163 17.1261 88.9229 17.2034ZM53.4997 17.4807C53.3093 17.5572 52.9297 17.5619 52.6561 17.491C52.3825 17.4202 52.5383 17.3577 53.0023 17.3521C53.4662 17.3465 53.69 17.4043 53.4997 17.4807ZM86.3923 17.4824C86.1991 17.56 85.8828 17.56 85.6893 17.4824C85.4962 17.4051 85.6542 17.3418 86.0408 17.3418C86.4274 17.3418 86.5857 17.4051 86.3923 17.4824ZM55.7491 17.7597C55.5587 17.8362 55.1792 17.8409 54.9056 17.77C54.632 17.6992 54.7878 17.6367 55.2517 17.6311C55.7156 17.6255 55.9395 17.6833 55.7491 17.7597ZM84.1482 17.7597C83.9578 17.8362 83.5782 17.8409 83.3047 17.77C83.0311 17.6992 83.1868 17.6367 83.6508 17.6311C84.1147 17.6255 84.3386 17.6833 84.1482 17.7597ZM46.4674 18.1425C46.121 18.2806 45.172 18.4698 44.3585 18.5627C43.5454 18.6558 41.6145 18.9067 40.068 19.1207C32.2063 20.2073 30.3314 20.4238 30.1694 20.2631C30.0721 20.1666 30.2349 20.0815 30.5313 20.0743C30.8279 20.067 34.3601 19.579 38.381 18.9901C42.4018 18.4011 46.0079 17.9129 46.3946 17.9051C47.0888 17.8911 47.0896 17.8942 46.4674 18.1425ZM57.5655 18.0242C57.4722 18.1168 57.2295 18.1269 57.0268 18.0462C56.8024 17.9572 56.869 17.8911 57.1966 17.8777C57.493 17.8657 57.6589 17.9316 57.5655 18.0242ZM81.6176 18.0387C81.4272 18.1152 81.0476 18.1199 80.774 18.049C80.5005 17.9782 80.6562 17.9157 81.1202 17.9101C81.5841 17.9045 81.8079 17.9623 81.6176 18.0387ZM79.3682 18.3177C79.1778 18.3942 78.7982 18.3989 78.5246 18.328C78.251 18.2572 78.4068 18.1947 78.8707 18.1891C79.3347 18.1835 79.5585 18.2413 79.3682 18.3177ZM76.551 18.5984C76.3578 18.6759 76.0415 18.6759 75.8481 18.5984C75.6549 18.5211 75.8129 18.4578 76.1995 18.4578C76.5862 18.4578 76.7445 18.5211 76.551 18.5984ZM64.7415 18.8774C64.5483 18.9549 64.232 18.9549 64.0385 18.8774C63.8454 18.8001 64.0034 18.7368 64.39 18.7368C64.7766 18.7368 64.9349 18.8001 64.7415 18.8774ZM66.7097 19.1564C66.5166 19.2339 66.2002 19.2339 66.0068 19.1564C65.8136 19.0791 65.9717 19.0158 66.3583 19.0158C66.7449 19.0158 66.9032 19.0791 66.7097 19.1564ZM68.822 19.4423C68.5532 19.5121 68.047 19.5146 67.6973 19.4479C67.3475 19.3812 67.5673 19.324 68.1859 19.321C68.8045 19.3179 69.0908 19.3726 68.822 19.4423ZM26.7823 20.8303C26.5891 20.9079 26.2728 20.9079 26.0794 20.8303C25.8862 20.7531 26.0442 20.6897 26.4308 20.6897C26.8175 20.6897 26.9758 20.7531 26.7823 20.8303ZM57.0032 20.8142C56.9098 20.9068 56.6672 20.9168 56.4644 20.8362C56.24 20.7472 56.3067 20.6811 56.6343 20.6677C56.9306 20.6557 57.0965 20.7215 57.0032 20.8142ZM51.9419 21.3721C51.8486 21.4648 51.6059 21.4748 51.4032 21.3942C51.1788 21.3052 51.2455 21.2391 51.573 21.2257C51.8694 21.2137 52.0353 21.2795 51.9419 21.3721Z" fill="#EC6945"/>
</svg>
