<svg width="131" height="131" viewBox="0 0 131 131" fill="none" xmlns="http://www.w3.org/2000/svg">
<path d="M62.7058 1.33629C64.1425 -0.445429 66.8574 -0.445429 68.2941 1.33629L72.8763 7.0183C74.0185 8.43513 76.0408 8.77262 77.5814 7.80346L83.7603 3.91707C85.6971 2.69841 88.265 3.57993 89.0454 5.73162L91.5343 12.5935C92.1546 14.3045 93.9579 15.2803 95.7297 14.864L102.835 13.1943C105.064 12.6708 107.206 14.3382 107.245 16.6267L107.371 23.9249C107.403 25.7447 108.791 27.2531 110.602 27.4346L117.865 28.1627C120.142 28.391 121.627 30.6637 120.921 32.841L118.671 39.7846C118.109 41.516 118.933 43.3935 120.587 44.1532L127.22 47.2C129.3 48.1555 129.966 50.7873 128.592 52.6174L124.208 58.4539C123.115 59.9093 123.285 61.9524 124.603 63.208L129.886 68.2435C131.544 69.8227 131.319 72.5284 129.425 73.8127L123.384 77.9097C121.877 78.9313 121.374 80.9191 122.213 82.5344L125.576 89.0126C126.631 91.0443 125.54 93.5303 123.331 94.1305L116.287 96.0437C114.531 96.5211 113.409 98.2376 113.678 100.037L114.755 107.256C115.093 109.521 113.254 111.518 110.971 111.369L103.687 110.891C101.871 110.772 100.252 112.031 99.9222 113.821L98.5969 120.999C98.1813 123.25 95.7936 124.542 93.6823 123.659L86.9477 120.843C85.2686 120.14 83.3295 120.805 82.4358 122.391L78.852 128.75C77.7278 130.744 75.0501 131.19 73.3401 129.67L67.8852 124.819C66.525 123.61 64.4749 123.61 63.1148 124.819L57.6601 129.67C55.9497 131.19 53.2719 130.744 52.148 128.75L48.5638 122.391C47.6701 120.805 45.7311 120.14 44.0519 120.843L37.3179 123.659C35.2063 124.542 32.8186 123.25 32.4031 120.999L31.0778 113.821C30.7473 112.031 29.1295 110.772 27.3133 110.891L20.0297 111.369C17.7457 111.518 15.907 109.521 16.2447 107.256L17.3219 100.037C17.5906 98.2376 16.4692 96.5211 14.7128 96.0437L7.66879 94.1305C5.45998 93.5303 4.36946 91.0443 5.42394 89.0126L8.78691 82.5344C9.62548 80.9191 9.12216 78.9313 7.61581 77.9097L1.57485 73.8127C-0.319424 72.5284 -0.543614 69.8227 1.11337 68.2435L6.39762 63.208C7.71531 61.9524 7.88459 59.9093 6.79153 58.4539L2.40818 52.6174C1.03369 50.7873 1.70015 48.1555 3.78004 47.2L10.413 44.1532C12.067 43.3935 12.8905 41.516 12.3292 39.7846L10.0785 32.841C9.37271 30.6637 10.8576 28.391 13.135 28.1627L20.3979 27.4346C22.2089 27.2531 23.5975 25.7447 23.6288 23.9249L23.7546 16.6267C23.794 14.3382 25.9364 12.6708 28.1645 13.1943L35.2703 14.864C37.0421 15.2803 38.8452 14.3045 39.4657 12.5935L41.9544 5.73162C42.7348 3.57992 45.3026 2.69841 47.24 3.91707L53.4186 7.80346C54.9592 8.77262 56.9814 8.43513 58.1239 7.0183L62.7058 1.33629Z" fill="#EC6945"/>
<path d="M62.7057 8.51496C64.1424 6.73329 66.8573 6.73329 68.294 8.51496L71.8834 12.9661C73.0262 14.383 75.0478 14.7204 76.5884 13.7513L81.4292 10.7068C83.366 9.48813 85.9339 10.3696 86.7143 12.5214L88.6641 17.8967C89.2843 19.6078 91.0877 20.5836 92.8594 20.1672L98.426 18.8593C100.654 18.3357 102.797 20.0032 102.836 22.2917L102.934 28.0089C102.966 29.8287 104.354 31.337 106.166 31.5186L111.855 32.0889C114.132 32.3172 115.617 34.59 114.912 36.7673L113.149 42.2067C112.587 43.9381 113.411 45.8156 115.065 46.5753L120.261 48.9621C122.34 49.9175 123.007 52.5493 121.633 54.3795L118.199 58.9517C117.106 60.4071 117.275 62.4502 118.592 63.7058L122.732 67.6505C124.389 69.2294 124.165 71.9352 122.271 73.2195L117.538 76.4292C116.032 77.4508 115.528 79.4379 116.367 81.0539L119.001 86.1287C120.056 88.1603 118.966 90.6463 116.757 91.2465L111.239 92.7455C109.482 93.2221 108.361 94.9386 108.629 96.7391L109.474 102.395C109.811 104.658 107.973 106.655 105.688 106.506L99.9824 106.132C98.1661 106.013 96.5487 107.272 96.2185 109.062L95.1797 114.685C94.764 116.936 92.377 118.228 90.265 117.345L84.9899 115.139C83.3108 114.436 81.3717 115.102 80.478 116.687L77.6703 121.669C76.5461 123.662 73.8683 124.109 72.1583 122.588L67.8851 118.788C66.5249 117.58 64.4748 117.58 63.1147 118.788L58.8416 122.588C57.1313 124.109 54.4534 123.662 53.3295 121.669L50.5218 116.687C49.6281 115.102 47.689 114.436 46.0098 115.139L40.7346 117.345C38.623 118.228 36.2353 116.936 35.8198 114.685L34.7815 109.062C34.4511 107.272 32.8333 106.013 31.0171 106.132L25.3113 106.506C23.0274 106.655 21.1886 104.658 21.5264 102.395L22.3702 96.7391C22.6388 94.9386 21.5175 93.2221 19.761 92.7455L14.2429 91.2465C12.0342 90.6463 10.9436 88.1603 11.9982 86.1287L14.6325 81.0539C15.4712 79.4379 14.9679 77.4508 13.4615 76.4292L8.72917 73.2195C6.83486 71.9352 6.61067 69.2294 8.26771 67.6505L12.4072 63.7058C13.7249 62.4502 13.8942 60.4071 12.8011 58.9517L9.3673 54.3795C7.99283 52.5493 8.65932 49.9175 10.7392 48.9621L15.9353 46.5753C17.5892 45.8156 18.4127 43.9381 17.8515 42.2067L16.0884 36.7673C15.3826 34.59 16.8675 32.3172 19.1448 32.0889L24.8344 31.5186C26.6455 31.337 28.0339 29.8287 28.0653 28.0089L28.1639 22.2917C28.2033 20.0032 30.3457 18.3357 32.5739 18.8593L38.1403 20.1672C39.9122 20.5836 41.7152 19.6078 42.3358 17.8967L44.2853 12.5214C45.0657 10.3696 47.6335 9.48813 49.5708 10.7068L54.411 13.7513C55.9517 14.7204 57.9738 14.383 59.1164 12.9661L62.7057 8.51496Z" stroke="white" stroke-width="2"/>
<path d="M65.8594 51.7129V79.3517" stroke="white" stroke-width="2" stroke-linecap="round"/>
<path d="M55.4492 68.9429L65.8587 79.3523L76.2681 68.9429" stroke="white" stroke-width="2" stroke-linecap="round" stroke-linejoin="round"/>
<path d="M58.1395 24.3423L58.4762 25.5988L54.6984 26.611L55.1675 25.7986L56.6747 31.4238L55.2601 31.8028L53.5879 25.5619L58.1395 24.3423Z" fill="white"/>
<path d="M70.9648 28.9136L71.1858 27.7455L75.5874 28.5783L75.3664 29.7465L70.9648 28.9136ZM75.0703 24.5L76.8401 31.4106L75.308 31.1207L73.8001 24.8647L74.2741 24.9544L70.5848 30.227L69.0527 29.9371L73.225 24.1509L75.0703 24.5Z" fill="white"/>
<path d="M91.7537 32.1909C92.1649 32.4944 92.4679 32.8286 92.6625 33.1936C92.8572 33.5585 92.9376 33.9283 92.9037 34.303C92.8744 34.6812 92.7336 35.0412 92.4812 35.3832C92.2289 35.7251 91.9263 35.9658 91.5736 36.1052C91.2289 36.2434 90.8519 36.2756 90.4423 36.2018C90.0363 36.1234 89.6276 35.9324 89.2163 35.6288L86.9221 33.9356L87.6382 32.9652L89.8702 34.6124C90.1427 34.8137 90.4048 34.9035 90.6562 34.8821C90.9122 34.864 91.1255 34.7394 91.296 34.5084C91.4699 34.2727 91.526 34.0322 91.4645 33.7869C91.4108 33.5403 91.2477 33.3165 90.9751 33.1153L88.8472 31.5447L89.7953 31.3773L86.2604 36.1668L85.082 35.2972L88.9187 30.0986L91.7537 32.1909Z" fill="white"/>
<path d="M97.6679 46.1698L98.7196 45.6143L100.812 49.5748L99.7613 50.1303L97.6679 46.1698ZM103.679 46.6277L99.3794 52.3201L98.6507 50.9415L102.601 45.862L102.827 46.2885L96.4044 46.6916L95.6758 45.313L102.801 44.9673L103.679 46.6277Z" fill="white"/>
<path d="M107.916 60.3955L107.97 61.859L101.514 62.1006L101.459 60.6371L107.916 60.3955ZM108.109 65.5607L108.163 67.0242L101.707 67.2658L101.652 65.8023L108.109 65.5607ZM105.397 61.2914L105.585 66.3018L104.302 66.3497L104.114 61.3395L105.397 61.2914Z" fill="white"/>
<path d="M104.283 81.0015L103.701 82.3359L98.3789 80.0141L98.9611 78.6796L104.283 81.0015ZM105.913 78.9025L103.274 84.9508L102.09 84.434L104.729 78.3857L105.913 78.9025Z" fill="white"/>
<path d="M92.0098 89.6782L96.2242 94.5755L95.1402 95.5084L91.4091 91.1726L91.7983 90.9513L92.3782 97.8854L90.9352 99.1273L86.7207 94.2299L87.8047 93.297L91.5864 97.6916L91.1972 97.9127L90.6059 90.8864L92.0098 89.6782Z" fill="white"/>
<path d="M74.2873 103.234L74.0153 102.219L76.6947 101.5L76.7097 101.523C77.1701 101.4 77.5932 101.37 77.9787 101.433C78.3602 101.503 78.6859 101.654 78.9559 101.884C79.2274 102.121 79.4144 102.431 79.517 102.813C79.621 103.202 79.6146 103.566 79.4977 103.907C79.3809 104.247 79.1748 104.543 78.8795 104.795C78.5801 105.053 78.2002 105.244 77.7398 105.368L74.0785 106.349L72.4062 100.108L73.8209 99.7285L75.3883 105.579L74.5842 105.108L77.2802 104.385C77.6076 104.297 77.844 104.148 77.9894 103.936C78.135 103.725 78.1699 103.477 78.094 103.194C78.0182 102.912 77.8637 102.713 77.6305 102.596C77.3988 102.486 77.1193 102.475 76.792 102.563L74.2873 103.234ZM75.369 102.444L76.8581 98.9151L78.5057 98.4736L76.975 102.014L75.369 102.444Z" fill="white"/>
<path d="M49.2601 105.065C48.7843 104.878 48.4052 104.633 48.1227 104.331C47.8403 104.03 47.6669 103.693 47.6026 103.323C47.533 102.949 47.5759 102.565 47.7311 102.17C47.8864 101.774 48.1163 101.463 48.4209 101.237C48.7181 101.015 49.074 100.886 49.4886 100.851C49.9012 100.822 50.3454 100.9 50.8212 101.087L53.4755 102.129L53.0349 103.251L50.4528 102.239C50.1373 102.114 49.861 102.096 49.6237 102.181C49.3811 102.265 49.2073 102.44 49.1024 102.708C48.9954 102.98 49.0034 103.227 49.1264 103.448C49.242 103.673 49.4575 103.847 49.7729 103.97L52.2348 104.936L51.3624 105.344L53.5372 99.8027L54.9005 100.338L52.5399 106.352L49.2601 105.065Z" fill="white"/>
<path d="M39.928 93.0921L39.0565 93.9008L36.0096 90.6169L36.881 89.8084L39.928 93.0921ZM34.0039 94.2055L36.6834 87.5942L37.7441 88.7373L35.2423 94.6663L34.9143 94.3127L41.0136 92.261L42.0742 93.4041L35.2813 95.5822L34.0039 94.2055Z" fill="white"/>
<path d="M28.3652 79.9727L27.5019 77.1738C27.3495 76.6799 27.3021 76.2437 27.3597 75.8654C27.4118 75.4887 27.5551 75.174 27.7897 74.9214C28.0188 74.6704 28.3227 74.4865 28.7014 74.3697C29.0801 74.2529 29.4373 74.2419 29.773 74.3366C30.1071 74.4259 30.4053 74.6134 30.6677 74.899C30.9229 75.1809 31.1217 75.5524 31.2639 76.0133L32.4599 79.8906L29.0774 80.4111L26.2859 81.795L24.5566 76.1891L25.6597 75.8488L27.1223 80.5904L26.2823 80.2636L28.6413 79.0851L31.6407 78.6377L31.1471 79.376L30.2584 76.4948C30.1653 76.193 30.0149 75.978 29.807 75.8497C29.5975 75.716 29.361 75.6898 29.0976 75.7711C28.8342 75.8523 28.6536 76.0072 28.5557 76.2357C28.4579 76.4642 28.4556 76.7294 28.5487 77.0312L29.3613 79.6654L28.3652 79.9727Z" fill="white"/>
<path d="M30.503 61.3252C30.3909 62.0691 30.1533 62.7012 29.7903 63.2216C29.4281 63.7361 28.9765 64.1124 28.4353 64.3502C27.8885 64.5873 27.2829 64.6557 26.6184 64.5555C25.954 64.4554 25.3983 64.2119 24.9513 63.8251C24.4986 63.4374 24.1751 62.9444 23.9807 62.3459C23.7871 61.7417 23.7464 61.0677 23.8586 60.3237C23.9707 59.5798 24.2079 58.9505 24.57 58.4359C24.933 57.9156 25.3879 57.537 25.9348 57.2999C26.4759 57.062 27.0787 56.9932 27.7432 57.0933C28.4076 57.1935 28.9662 57.4374 29.4188 57.8251C29.8658 58.2119 30.1861 58.7074 30.3796 59.3116C30.574 59.9101 30.6152 60.5812 30.503 61.3252ZM29.2167 61.1313C29.2869 60.6656 29.2649 60.2529 29.1507 59.893C29.0374 59.5274 28.8411 59.2306 28.5618 59.0027C28.2834 58.769 27.9369 58.621 27.5223 58.5586C27.1078 58.496 26.733 58.5354 26.3981 58.6766C26.064 58.8121 25.789 59.0378 25.5729 59.3537C25.3577 59.664 25.2151 60.0519 25.1449 60.5176C25.0755 60.9776 25.0975 61.3904 25.2109 61.7559C25.3242 62.1215 25.5201 62.4211 25.7985 62.6547C26.0778 62.8826 26.4247 63.0279 26.8393 63.0904C27.2538 63.1528 27.6281 63.1163 27.9622 62.9808C28.2971 62.8396 28.5726 62.6111 28.7886 62.2952C29.0047 61.9792 29.1474 61.5913 29.2167 61.1313Z" fill="white"/>
<path d="M30.8924 44.0503L31.7125 42.8474L36.5099 46.1181L35.6897 47.321L30.8924 44.0503ZM28.9004 45.8097L32.6177 40.3574L33.6853 41.0854L29.9681 46.5375L28.9004 45.8097Z" fill="white"/>
<path d="M39.8344 31.8577L40.4854 31.2175L41.3908 32.2119L41.9555 30.98L42.7621 31.4071L42.1004 32.5894L43.4698 32.741L43.3161 33.6413L41.972 33.3803L42.2104 34.7285L41.3077 34.8672L41.1729 33.5015L39.9858 34.1373L39.5723 33.3236L40.8196 32.7736L39.8344 31.8577Z" fill="white"/>
</svg>
