<svg width="14" height="14" viewBox="0 0 14 14" fill="none" xmlns="http://www.w3.org/2000/svg">
<path d="M13.125 3.5C13.125 3.72389 13.0396 3.94789 12.8687 4.11852L5.86865 11.1185C5.69844 11.2902 5.47422 11.375 5.25 11.375C5.02578 11.375 4.80211 11.2896 4.63148 11.1187L1.13148 7.61865C0.960586 7.44844 0.875 7.22422 0.875 7C0.875 6.50016 1.28379 6.125 1.75 6.125C1.97389 6.125 2.19789 6.21045 2.36852 6.38135L5.25 9.26406L11.632 2.88203C11.8016 2.71059 12.0258 2.625 12.25 2.625C12.7176 2.625 13.125 2.99961 13.125 3.5Z" fill="#435217"/>
</svg>
