<svg width="22" height="22" viewBox="0 0 22 22" fill="none" xmlns="http://www.w3.org/2000/svg">
<g clip-path="url(#clip0_19_319)">
<path d="M18.15 0H3.85C1.7237 0 0 1.7237 0 3.85V18.15C0 20.2763 1.7237 22 3.85 22H18.15C20.2763 22 22 20.2763 22 18.15V3.85C22 1.7237 20.2763 0 18.15 0Z" fill="#385997"/>
<path d="M18.6998 10.175H15.2623V7.56249C15.2623 6.92311 15.9979 6.87499 16.2248 6.87499H18.5623V3.29999H16.2248C13.6364 3.29999 11.6873 5.13218 11.6873 7.56249V10.175H8.7998V13.75H11.6873V22H15.2623V13.75H18.1498L18.6998 10.175Z" fill="white"/>
</g>
<defs>
<clipPath id="clip0_19_319">
<rect width="22" height="22" fill="white"/>
</clipPath>
</defs>
</svg>
