<svg width="23" height="22" viewBox="0 0 23 22" fill="none" xmlns="http://www.w3.org/2000/svg">
<g clip-path="url(#clip0_19_309)">
<path fill-rule="evenodd" clip-rule="evenodd" d="M5.24125 11C5.24125 10.2855 5.35985 9.60043 5.57177 8.95797L1.86443 6.12701C1.14186 7.59397 0.734863 9.24706 0.734863 11C0.734863 12.7516 1.14152 14.4035 1.86288 15.8696L5.56816 13.0331C5.3583 12.3936 5.24125 11.7111 5.24125 11Z" fill="#FBBC05"/>
<path fill-rule="evenodd" clip-rule="evenodd" d="M11.7503 4.50003C13.3025 4.50003 14.7045 5.05003 15.8061 5.94997L19.0105 2.75C17.0578 1.04998 14.5543 0 11.7503 0C7.39709 0 3.65571 2.48944 1.86426 6.127L5.57143 8.95796C6.42565 6.36505 8.8606 4.50003 11.7503 4.50003Z" fill="#EA4335"/>
<path fill-rule="evenodd" clip-rule="evenodd" d="M11.7503 17.5C8.86077 17.5 6.42582 15.635 5.5716 13.0421L1.86426 15.8725C3.65571 19.5106 7.39709 22 11.7503 22C14.4371 22 17.0023 21.0459 18.9275 19.2584L15.4085 16.538C14.4156 17.1634 13.1652 17.5 11.7503 17.5Z" fill="#34A853"/>
<path fill-rule="evenodd" clip-rule="evenodd" d="M22.2653 11C22.2653 10.35 22.1651 9.64992 22.0149 9.00006H11.7505V13.25H17.6589C17.3634 14.6991 16.5594 15.813 15.4087 16.538L18.9276 19.2584C20.9499 17.3815 22.2653 14.5855 22.2653 11Z" fill="#4285F4"/>
</g>
<defs>
<clipPath id="clip0_19_309">
<rect width="22" height="22" fill="white" transform="translate(0.5)"/>
</clipPath>
</defs>
</svg>
