<svg xmlns="http://www.w3.org/2000/svg">
	<symbol id="eye-closed" viewBox="0 0 24 24" fill="none">
		<path d="M11.9999 15C7.86807 15 4.01991 13.7857 1.70596 11.751C1.50678 11.5759 1.38532 11.3289 1.36828 11.0643C1.35124 10.7996 1.44003 10.539 1.61512 10.3399C1.7902 10.1407 2.03724 10.0192 2.30188 10.0022C2.56652 9.98515 2.82709 10.0739 3.02627 10.249C4.98575 11.9717 8.34024 13 11.9999 13C15.6596 13 19.0141 11.9717 20.9735 10.249C21.0722 10.1623 21.1869 10.0959 21.3112 10.0536C21.4355 10.0112 21.5669 9.99375 21.6979 10.0022C21.829 10.0106 21.9571 10.0448 22.0749 10.1027C22.1927 10.1607 22.298 10.2412 22.3847 10.3399C22.4714 10.4385 22.5378 10.5532 22.5802 10.6775C22.6225 10.8018 22.64 10.9332 22.6315 11.0643C22.6231 11.1953 22.5889 11.3234 22.531 11.4412C22.4731 11.5591 22.3925 11.6643 22.2938 11.751C19.9799 13.7857 16.1318 15 11.9999 15Z" fill="currentColor" fill-opacity="0.5"/>
		<path d="M12 18C11.7348 18 11.4804 17.8946 11.2929 17.7071C11.1054 17.5196 11 17.2652 11 17V14C11 13.7348 11.1054 13.4804 11.2929 13.2929C11.4804 13.1054 11.7348 13 12 13C12.2652 13 12.5196 13.1054 12.7071 13.2929C12.8946 13.4804 13 13.7348 13 14V17C13 17.2652 12.8946 17.5196 12.7071 17.7071C12.5196 17.8946 12.2652 18 12 18Z" fill="currentColor" fill-opacity="0.5"/>
		<path d="M7.74845 17.6675C7.69132 17.6676 7.6343 17.6627 7.57804 17.6528C7.4486 17.6306 7.3248 17.5832 7.21373 17.5131C7.10265 17.443 7.00647 17.3518 6.9307 17.2445C6.85492 17.1373 6.80102 17.0161 6.7721 16.888C6.74317 16.7599 6.73978 16.6274 6.76212 16.498L7.267 13.563C7.28925 13.4336 7.33677 13.3098 7.40684 13.1988C7.47692 13.0878 7.56818 12.9916 7.67541 12.9159C7.78264 12.8401 7.90375 12.7862 8.03181 12.7572C8.15987 12.7283 8.29239 12.7248 8.42178 12.7471C8.55118 12.7693 8.67493 12.8168 8.78596 12.8869C8.897 12.957 8.99314 13.0482 9.06891 13.1555C9.14467 13.2627 9.19857 13.3838 9.22753 13.5119C9.2565 13.6399 9.25995 13.7725 9.2377 13.9019L8.73282 16.8369C8.69289 17.0691 8.57224 17.2798 8.39215 17.4318C8.21205 17.5837 7.98408 17.6672 7.74845 17.6675Z" fill="currentColor" fill-opacity="0.5"/>
		<path d="M3.6359 16.3062C3.47572 16.3059 3.31794 16.2672 3.17581 16.1934C3.03368 16.1195 2.91134 16.0127 2.81906 15.8817C2.72679 15.7508 2.66727 15.5996 2.64551 15.441C2.62375 15.2823 2.64038 15.1207 2.69401 14.9697L3.67253 12.2251C3.71664 12.1014 3.78469 11.9876 3.87278 11.8902C3.96088 11.7928 4.06729 11.7137 4.18595 11.6575C4.30461 11.6012 4.43319 11.5689 4.56434 11.5623C4.6955 11.5557 4.82667 11.575 4.95036 11.6192C5.07405 11.6633 5.18785 11.7313 5.28524 11.8194C5.38263 11.9075 5.46172 12.0139 5.51799 12.1326C5.57426 12.2512 5.6066 12.3798 5.61318 12.511C5.61976 12.6421 5.60043 12.7733 5.55632 12.897L4.5778 15.6416C4.50846 15.836 4.38074 16.0041 4.21213 16.1231C4.04352 16.2421 3.84225 16.306 3.6359 16.3062Z" fill="currentColor" fill-opacity="0.5"/>
		<path d="M16.2513 17.6675C16.0156 17.6672 15.7877 17.5837 15.6076 17.4318C15.4275 17.2798 15.3068 17.0691 15.2669 16.8369L14.762 13.9019C14.7171 13.6405 14.7778 13.372 14.9308 13.1555C15.0838 12.9389 15.3166 12.792 15.5779 12.7471C15.8393 12.7021 16.1077 12.7629 16.3243 12.9159C16.5409 13.0689 16.6878 13.3017 16.7327 13.563L17.2376 16.498C17.2599 16.6275 17.2565 16.76 17.2276 16.8881C17.1987 17.0162 17.1448 17.1373 17.069 17.2446C16.9932 17.3518 16.8971 17.4431 16.786 17.5131C16.6749 17.5832 16.5511 17.6307 16.4217 17.6528C16.3654 17.6628 16.3084 17.6677 16.2513 17.6675Z" fill="currentColor" fill-opacity="0.5"/>
		<path d="M20.3643 16.3061C20.1579 16.306 19.9566 16.2421 19.788 16.1232C19.6194 16.0042 19.4917 15.836 19.4224 15.6416L18.4439 12.897C18.3997 12.7733 18.3804 12.6421 18.387 12.511C18.3936 12.3798 18.4259 12.2512 18.4822 12.1326C18.5958 11.8929 18.8 11.7082 19.0498 11.6191C19.2996 11.5301 19.5746 11.5438 19.8142 11.6575C20.0539 11.7711 20.2386 11.9753 20.3276 12.2251L21.3062 14.9697C21.3598 15.1207 21.3764 15.2823 21.3547 15.441C21.3329 15.5997 21.2734 15.7508 21.1811 15.8817C21.0888 16.0127 20.9665 16.1195 20.8244 16.1934C20.6822 16.2672 20.5244 16.3059 20.3643 16.3061Z" fill="currentColor" fill-opacity="0.5"/>
	</symbol>
	<symbol id="eye-opened" viewBox="0 0 24 24" fill="none">
		<path d="M11.9999 20.5C7.70105 20.5 3.75916 17.477 1.45593 12.4141C1.3968 12.284 1.36621 12.1428 1.36621 12C1.36621 11.8572 1.3968 11.716 1.45593 11.5859C3.75916 6.52295 7.70105 3.5 11.9999 3.5C16.2987 3.5 20.2406 6.52295 22.5438 11.5859C22.6029 11.7159 22.6335 11.857 22.6336 11.9997C22.6337 12.1425 22.6033 12.2836 22.5443 12.4136C22.148 13.2893 21.6826 14.1321 21.1527 14.9341C21.0805 15.0445 20.9872 15.1396 20.8781 15.2138C20.769 15.288 20.6463 15.3399 20.5171 15.3664C20.3879 15.393 20.2547 15.3938 20.1251 15.3686C19.9956 15.3435 19.8724 15.2929 19.7625 15.22C19.6525 15.147 19.5582 15.0529 19.4848 14.9433C19.4114 14.8337 19.3604 14.7106 19.3347 14.5812C19.3091 14.4518 19.3093 14.3186 19.3354 14.1892C19.3615 14.0599 19.4129 13.937 19.4867 13.8276C19.8741 13.2421 20.2222 12.6316 20.5287 12C18.5429 7.92041 15.3798 5.5 11.9999 5.5C8.62 5.5 5.45688 7.92041 3.47107 12C5.45688 16.0796 8.62 18.5 11.9999 18.5C13.8506 18.4649 15.6314 17.7862 17.036 16.5806C17.2415 16.4129 17.5052 16.3337 17.7692 16.3604C18.0331 16.3872 18.2755 16.5176 18.4432 16.7231C18.6109 16.9287 18.6901 17.1924 18.6634 17.4563C18.6367 17.7202 18.5062 17.9627 18.3007 18.1304C16.54 19.6291 14.3118 20.467 11.9999 20.5Z" fill="currentColor"/>
		<path d="M12 16C11.4108 15.9995 10.829 15.8689 10.296 15.6176C9.76312 15.3663 9.29223 15.0004 8.91698 14.5462C8.54173 14.0919 8.27137 13.5604 8.12518 12.9897C7.979 12.4189 7.9606 11.8229 8.07129 11.2441C8.12102 10.9836 8.27222 10.7535 8.49162 10.6044C8.71102 10.4553 8.98066 10.3995 9.24121 10.4492C9.50177 10.4989 9.73189 10.6501 9.88097 10.8695C10.03 11.0889 10.0859 11.3586 10.0361 11.6191C9.98308 11.8928 9.98783 12.1746 10.0501 12.4463C10.1123 12.7181 10.2307 12.9738 10.3976 13.1971C10.5644 13.4204 10.7762 13.6064 11.0191 13.7431C11.2621 13.8798 11.531 13.9641 11.8085 13.9908C12.086 14.0175 12.366 13.9858 12.6306 13.8979C12.8951 13.81 13.1384 13.6678 13.3447 13.4803C13.5511 13.2928 13.716 13.0643 13.8288 12.8094C13.9417 12.5545 14 12.2788 14 12C13.9906 11.4635 13.7696 10.9524 13.3852 10.5781C13.0007 10.2037 12.4839 9.99648 11.9473 10.0015C11.6861 10.0034 11.4339 9.90698 11.2406 9.73137C11.0473 9.55576 10.9273 9.31383 10.9043 9.05371C10.8926 8.92522 10.9068 8.79569 10.9461 8.67281C10.9854 8.54993 11.0491 8.43621 11.1332 8.33838C11.2173 8.24055 11.3202 8.16062 11.4358 8.10333C11.5514 8.04605 11.6773 8.01256 11.8061 8.00488L12 8C13.0609 8 14.0783 8.42143 14.8284 9.17157C15.5786 9.92172 16 10.9391 16 12C16 13.0609 15.5786 14.0783 14.8284 14.8284C14.0783 15.5786 13.0609 16 12 16Z" fill="currentColor"/>
	</symbol>
	<symbol id="expand" viewBox="0 0 16 16" fill="none">
		<path d="M5.828 10.172a.5.5 0 0 0-.707 0l-4.096 4.096V11.5a.5.5 0 0 0-1 0v3.975a.5.5 0 0 0 .5.5H4.5a.5.5 0 0 0 0-1H1.732l4.096-4.096a.5.5 0 0 0 0-.707zm4.344 0a.5.5 0 0 1 .707 0l4.096 4.096V11.5a.5.5 0 1 1 1 0v3.975a.5.5 0 0 1-.5.5H11.5a.5.5 0 0 1 0-1h2.768l-4.096-4.096a.5.5 0 0 1 0-.707zm0-4.344a.5.5 0 0 0 .707 0l4.096-4.096V4.5a.5.5 0 1 0 1 0V.525a.5.5 0 0 0-.5-.5H11.5a.5.5 0 0 0 0 1h2.768l-4.096 4.096a.5.5 0 0 0 0 .707zm-4.344 0a.5.5 0 0 1-.707 0L1.025 1.732V4.5a.5.5 0 0 1-1 0V.525a.5.5 0 0 1 .5-.5H4.5a.5.5 0 0 1 0 1H1.732l4.096 4.096a.5.5 0 0 1 0 .707z" fill="currentColor" fill-rule="evenodd"/>
	</symbol>
	<symbol id="collapse" viewBox="0 0 512 512" fill="none">
		<g transform="translate(0.000000,512.000000) scale(0.100000,-0.100000)"
		fill="currentColor" stroke="none">
		<path d="M415 4786 c-41 -18 -83 -69 -91 -111 -17 -90 -42 -61 609 -712 l601
		-602 -396 -3 c-383 -3 -398 -4 -424 -24 -53 -39 -69 -71 -69 -134 0 -63 16
		-95 69 -134 27 -21 37 -21 645 -21 l618 0 37 29 c69 52 67 29 64 700 -3 593
		-3 605 -24 632 -39 53 -71 69 -134 69 -63 0 -95 -16 -134 -69 -20 -26 -21 -43
		-26 -422 l-5 -394 -590 591 c-338 338 -604 597 -622 605 -40 17 -89 17 -128 0z"/>
		<path d="M4575 4786 c-16 -8 -295 -280 -620 -605 l-590 -591 -5 394 c-5 379
		-6 396 -26 422 -39 53 -71 69 -134 69 -63 0 -95 -16 -134 -69 -21 -27 -21 -39
		-24 -632 -3 -671 -5 -648 64 -700 l37 -29 618 0 c608 0 618 0 645 21 53 39 69
		71 69 134 0 63 -16 95 -69 134 -26 20 -41 21 -424 24 l-396 3 601 602 c531
		531 602 606 608 640 25 133 -101 237 -220 183z"/>
		<path d="M735 2066 c-94 -41 -124 -168 -58 -247 49 -58 56 -59 475 -59 l383 0
		-602 -602 c-653 -654 -626 -622 -608 -715 9 -49 69 -109 118 -118 93 -18 61
		-45 714 608 l602 601 3 -396 c3 -383 4 -398 24 -424 39 -53 71 -69 134 -69 63
		0 95 16 134 69 21 27 21 37 21 646 0 609 0 619 -21 646 -11 15 -33 37 -48 48
		-27 21 -39 21 -634 23 -489 2 -613 0 -637 -11z"/>
		<path d="M3135 2066 c-41 -18 -83 -69 -90 -109 -3 -18 -5 -298 -3 -624 3 -580
		3 -592 24 -619 39 -53 71 -69 134 -69 63 0 95 16 134 69 20 26 21 41 24 424
		l3 396 602 -601 c653 -653 621 -626 714 -608 49 9 109 69 118 118 18 93 45 61
		-608 714 l-601 602 396 3 c383 3 398 4 424 24 53 39 69 71 69 134 0 63 -16 95
		-69 134 -27 21 -39 21 -634 23 -489 2 -613 0 -637 -11z"/>
		</g>
	</symbol>
	<symbol id="message" viewBox="0 0 21 18" fill="none">
		<path d="M4.72136 17.5C4.30264 17.5 3.96766 17.4163 3.54894 17.3325C3.29771 17.2488 3.04648 17.0813 2.87899 16.9138L2.79525 16.83C2.7115 16.7463 2.62776 16.5788 2.62776 16.4951C2.62776 16.3276 2.71151 16.2438 2.87899 16.1601C3.54894 15.8251 4.13515 15.2389 4.47013 14.569C4.55387 14.4852 4.63761 14.4015 4.63761 14.3177C2.29279 12.8941 0.869141 10.633 0.869141 8.20443C0.869141 4.01724 5.22382 0.5 10.4997 0.5C15.7755 0.5 20.1302 4.01724 20.1302 8.20443C20.1302 12.3916 15.7755 15.9089 10.4997 15.9089C9.99722 15.9089 9.41101 15.9089 8.90855 15.8251C7.65239 16.9138 6.145 17.5 4.72136 17.5Z" fill="currentColor" />
	</symbol>
	<symbol id="music" viewBox="0 0 19 20" fill="none">
		<path d="M6.05358 3.50314V5.51922V7.62611V13.556C5.5254 13.2324 4.90641 13.0424 4.24161 13.0424C2.3205 13.0424 0.762207 14.6003 0.762207 16.5202C0.762207 18.4421 2.32009 20 4.24161 20C6.16188 20 7.71934 18.4425 7.71976 16.521V7.14708L16.5713 4.60241V10.554C16.0432 10.2304 15.4242 10.0404 14.7594 10.0404C12.8374 10.0404 11.28 11.5979 11.28 13.5177C11.28 15.4392 12.8374 16.9975 14.7594 16.9975C16.5688 16.9975 18.0559 15.6125 18.2209 13.8443H18.2375V4.12338V2.62965V0L6.05358 3.50314Z" fill="currentColor" />
	</symbol>
	<symbol id="music-muted" viewBox="0 0 20 32" fill="none">
		<path opacity="0.51" d="M6.05358 9.13886V11.1549V13.2618V19.1918C5.5254 18.8681 4.90641 18.6782 4.24161 18.6782C2.3205 18.6782 0.762207 20.236 0.762207 22.1559C0.762207 24.0778 2.32009 25.6357 4.24161 25.6357C6.16188 25.6357 7.71934 24.0782 7.71976 22.1567V12.7828L16.5713 10.2381V16.1897C16.0432 15.8661 15.4242 15.6761 14.7594 15.6761C12.8374 15.6761 11.28 17.2336 11.28 19.1534C11.28 21.075 12.8374 22.6333 14.7594 22.6333C16.5688 22.6333 18.0559 21.2482 18.2209 19.48H18.2375V9.75909V8.26536V5.63571L6.05358 9.13886Z" fill="currentColor"/>
		<path d="M1.76221 1.63571L18.0001 30.3643" stroke="currentColor" stroke-opacity="0.51" stroke-width="3" stroke-linecap="round"/>
	</symbol>
	<symbol id="user" viewBox="0 0 17 16" fill="none">
		<g clip-path="url(#clip0_1_445)">
		<path d="M12.7402 9H8.74023H4.74023C2.53123 9 0.740234 10.791 0.740234 13V16H16.7402V13C16.7402 10.791 14.9492 9 12.7402 9Z" fill="currentColor"/>
		<path d="M12.7402 5V4C12.7402 1.791 10.9492 0 8.74023 0C6.53123 0 4.74023 1.791 4.74023 4V5C4.74023 7.209 6.53123 9 8.74023 9C10.9492 9 12.7402 7.209 12.7402 5Z" fill="currentColor"/>
		</g>
		<defs>
		<clipPath id="clip0_1_445">
		<rect width="16" height="16" fill="currentColor" transform="translate(0.740234)"/>
		</clipPath>
		</defs>
	</symbol>
	<symbol id="arrow-left" viewBox="0 0 17 24" fill="none">
		<path d="M0.939339 10.9393C0.353552 11.5251 0.353552 12.4749 0.939339 13.0607L10.4853 22.6066C11.0711 23.1924 12.0208 23.1924 12.6066 22.6066C13.1924 22.0208 13.1924 21.0711 12.6066 20.4853L4.12132 12L12.6066 3.51472C13.1924 2.92893 13.1924 1.97919 12.6066 1.3934C12.0208 0.807612 11.0711 0.807612 10.4853 1.3934L0.939339 10.9393ZM17 10.5L2 10.5L2 13.5L17 13.5L17 10.5Z" fill="currentColor"/>
	</symbol>
	<symbol id="arrow-right" viewBox="0 0 17 24" fill="none">
		<path d="M16.0607 13.0534C16.6464 12.4676 16.6464 11.5179 16.0607 10.9321L6.51472 1.38615C5.92893 0.800362 4.97919 0.800362 4.3934 1.38615C3.80761 1.97194 3.80761 2.92168 4.3934 3.50747L12.8787 11.9928L4.3934 20.478C3.80761 21.0638 3.80761 22.0136 4.3934 22.5994C4.97919 23.1851 5.92893 23.1851 6.51472 22.5994L16.0607 13.0534ZM0 13.4928H15V10.4928H0V13.4928Z" fill="currentColor"/>
	</symbol>
	<symbol id="close" viewBox="0 0 20 20" fill="none">
		<path d="M17.0898 15.1016L11.9883 10L17.0898 4.89844C17.6406 4.34766 17.6406 3.46094 17.0898 2.91016C16.5391 2.35938 15.6523 2.35938 15.1016 2.91016L10 8.01172L4.89844 2.91016C4.34766 2.35938 3.46094 2.35938 2.91016 2.91016C2.35938 3.46094 2.35938 4.34766 2.91016 4.89844L8.01172 10L2.91016 15.1016C2.35938 15.6523 2.35938 16.5391 2.91016 17.0898C3.46094 17.6406 4.34766 17.6406 4.89844 17.0898L10 11.9883L15.1016 17.0898C15.6523 17.6406 16.5391 17.6406 17.0898 17.0898C17.6367 16.5391 17.6367 15.6484 17.0898 15.1016Z" fill="currentColor"/>
	</symbol>
	<symbol id="home" viewBox="0 0 21 20" fill="none">
		<path d="M19.743 10.3165L10.743 0.3165C10.364 -0.1055 9.63598 -0.1055 9.25698 0.3165L0.256984 10.3165C0.12744 10.4601 0.0424085 10.6382 0.0122281 10.8293C-0.0179524 11.0203 0.00801875 11.216 0.0869837 11.3925C0.246984 11.7535 0.604984 11.9855 0.999984 11.9855H2.99998V18.9855C2.99998 19.2507 3.10534 19.5051 3.29288 19.6926C3.48041 19.8801 3.73477 19.9855 3.99998 19.9855H6.99998C7.2652 19.9855 7.51955 19.8801 7.70709 19.6926C7.89463 19.5051 7.99998 19.2507 7.99998 18.9855V14.9855H12V18.9855C12 19.2507 12.1053 19.5051 12.2929 19.6926C12.4804 19.8801 12.7348 19.9855 13 19.9855H16C16.2652 19.9855 16.5196 19.8801 16.7071 19.6926C16.8946 19.5051 17 19.2507 17 18.9855V11.9855H19C19.1937 11.9863 19.3834 11.9308 19.546 11.8256C19.7087 11.7205 19.8372 11.5703 19.916 11.3934C19.9947 11.2165 20.0203 11.0204 19.9896 10.8292C19.9589 10.638 19.8732 10.4599 19.743 10.3165Z" fill="currentColor"/>
	</symbol>
</svg>