<svg width="60" height="60" viewBox="0 0 60 60" fill="none" xmlns="http://www.w3.org/2000/svg">
<path fill-rule="evenodd" clip-rule="evenodd" d="M44.5972 20.9799C44.9877 21.3704 44.9877 22.0036 44.5972 22.3941L27.2478 39.7435C26.8572 40.1341 26.2241 40.1341 25.8336 39.7435L15.9196 29.8296C15.5291 29.4391 15.5291 28.8059 15.9196 28.4154C16.3101 28.0248 16.9433 28.0248 17.3338 28.4154L26.5407 37.6222L43.183 20.9799C43.5735 20.5894 44.2066 20.5894 44.5972 20.9799Z" fill="#605DEC"/>
<path fill-rule="evenodd" clip-rule="evenodd" d="M30 58C45.464 58 58 45.464 58 30C58 14.536 45.464 2 30 2C14.536 2 2 14.536 2 30C2 45.464 14.536 58 30 58ZM30 60C46.5686 60 60 46.5686 60 30C60 13.4315 46.5686 0 30 0C13.4315 0 0 13.4315 0 30C0 46.5686 13.4315 60 30 60Z" fill="#605DEC"/>
</svg>
