<svg width="522" height="88" viewBox="0 0 522 88" fill="none" xmlns="http://www.w3.org/2000/svg"><path opacity="0.06" d="M1 1C8.81877 13.9899 11.402 20.4056 21.8994 28.0998C31.8308 35.3793 45.1598 39.4532 55.8335 39.1743C68.3818 38.8463 83.6878 32.0608 91.5153 12.7259C94.0314 6.51093 92.1952 2.48079 88.3841 2.95431C82.8237 3.64518 77.9625 10.6896 75.677 19.566C73.2367 29.0437 73.8672 40.2129 77.097 48.8807C85.1135 70.3951 102.794 72.0556 115.692 71.3553C158.295 69.0419 197.728 27.3282 241.015 36.0474C248.688 37.5929 258.884 41.5131 255.251 59.1734C252.151 74.2454 243.984 80.4416 235.663 82.6903C232.158 83.6375 217.546 86.4658 218.623 72.9839C219.186 65.9288 222.957 61.3911 226.014 58.2614C236.276 47.7557 249.243 44.6918 260.822 43.604C285.571 41.279 308.342 52.3206 331.967 63.7986C365.07 79.8816 398.044 91.969 432.532 84.9704C452.008 81.0179 468.423 69.2709 486.273 56.1768C493.298 51.0233 513.562 49.3396 521 48.8807" stroke="white" stroke-width="2" stroke-linecap="round"/></svg>