<svg width="206" height="137" viewBox="0 0 206 137" fill="none" xmlns="http://www.w3.org/2000/svg"><path d="M1.65874 106.761C27.4766 78.9184 65.758 54.4519 104.381 51.4432C111.816 50.864 142.828 52.1034 137.728 68.0712C135.939 73.6693 124.601 78.1102 120.229 73.0395C109.73 60.8625 154.249 43.2265 159.982 41.7287C171.507 38.7176 184.646 38.2894 196.442 40.1891" stroke="#FD8806" stroke-width="3" stroke-linecap="round" stroke-linejoin="round"/><path d="M187.577 27.8448C188.601 31.0468 189.874 33.1447 192.544 35.3324C195.019 37.3595 197.703 38.6487 200.798 39.3672C201.773 39.5934 204.632 39.7522 203.703 40.124C202.885 40.4515 201.964 40.4178 201.091 40.5383C199.748 40.7237 198.469 40.8736 197.148 41.1958C190.936 42.7107 185.497 48.329 185.379 54.9477" stroke="#FD8806" stroke-width="3" stroke-linecap="round"/></svg>