<svg width="245" height="72" viewBox="0 0 245 72" fill="none" xmlns="http://www.w3.org/2000/svg"><path d="M28.1574 9.52394C19.1155 16.2649 4.35236 24.4181 4.14889 37.44C4.01815 45.8079 9.76526 51.4246 16.832 54.958C30.5053 61.7946 46.8413 62.6826 61.7362 64.5945C90.4451 68.2795 119.819 70.7611 148.763 69.7274C175.523 68.7717 206.154 65.9312 229.961 52.3088C233.967 50.0168 239.945 45.4876 241.817 40.7847C244.956 32.8944 239.043 26.0787 232.743 22.472C224.662 17.8455 215.002 15.7784 206.118 13.7296C183.705 8.56045 160.651 4.8226 137.702 3.16583C92.1568 -0.122371 46.9918 4.13281 1.93018 10.12" stroke="#FD8806" stroke-width="3" stroke-linecap="round"/></svg>