<svg width="311" height="13" viewBox="0 0 311 13" fill="none" xmlns="http://www.w3.org/2000/svg"><path d="M1 3.26886C63.5802 1.16197 126.461 6.21208 188.957 1.3979C190.252 1.29817 194.128 0.915963 192.833 1.01678C182.594 1.81421 191.626 1.27559 176.085 2.33338C155.861 3.71001 135.718 3.85959 115.456 3.89251C94.054 3.9273 70.7195 2.43358 49.8543 7.94626C38.5109 10.9432 53.3899 7.60591 55.4491 7.25331C71.654 4.4785 87.8014 4.01108 104.23 3.92716C144.684 3.72054 185.065 1.96451 225.525 2.02156C243.64 2.0471 261.75 2.32916 279.864 2.50662C287.975 2.58608 292.058 2.61132 299.903 2.50662C302.098 2.47734 304.291 2.41355 306.485 2.36803C311.215 2.2699 311.623 2.22041 304.913 2.61056C246.204 6.02446 187.502 10.4941 128.694 12" stroke="#FD9D05" stroke-linecap="round"/></svg>