<svg width="823" height="600" viewBox="0 0 823 600" fill="none" xmlns="http://www.w3.org/2000/svg"><path d="M214 152.928C190.379 117.496 152.356 83.5807 110.129 73.3625C102.001 71.3956 67.4427 67.2379 70.2427 85.827C71.2244 92.3442 82.987 99.2829 88.7317 94.4483C102.528 82.8379 56.3802 55.3729 50.2995 52.6922C38.0758 47.3033 23.6048 44.4864 10.2053 44.4864" stroke="#FD8806" stroke-width="3" stroke-linecap="round" stroke-linejoin="round"/><path d="M22.223 32.3994C20.5178 35.7621 18.7343 37.8579 15.3873 39.8039C12.2861 41.6071 9.08426 42.556 5.52943 42.7995C4.40992 42.8762 1.21606 42.5422 2.17828 43.1195C3.02593 43.6281 4.05081 43.7548 4.99609 44.044C6.44964 44.4887 7.83951 44.8827 9.24503 45.4751C15.8521 48.2599 20.8728 55.4505 19.8229 62.7998" stroke="#FD8806" stroke-width="3" stroke-linecap="round"/><path d="M275.269 8.81545C287.9 -0.979485 290.551 -1.15804 291.595 15.5532C292.49 29.8583 294.521 29.8062 307.922 29.8062" stroke="#FD8806" stroke-width="3" stroke-linecap="round"/><path d="M144.66 521.924C145.738 495.521 158.971 510.262 174.98 510.262" stroke="#FD8806" stroke-width="3" stroke-linecap="round"/><path d="M727.738 106.773C731.136 91.4812 739.719 85.4846 754.689 83.7086C766.754 82.2771 771.592 78.2915 774.384 67.1232" stroke="#FD8806" stroke-width="3" stroke-linecap="round"/><path d="M774.384 526.589C787.992 519.785 796.403 525.386 809.498 530.087C816.846 532.725 818.958 522.44 821.03 517.259" stroke="#FD8806" stroke-width="3" stroke-linecap="round"/><path d="M783.292 475.037L679.264 579.066" stroke="#DB3F2C" stroke-width="3" stroke-linecap="round"/><path d="M805 431L700.972 535.028" stroke="#DB3F2C" stroke-width="3" stroke-linecap="round"/><path d="M720.028 493.644L616 597.672" stroke="#DB3F2C" stroke-width="3" stroke-linecap="round"/><path d="M251 158L166.787 242.214" stroke="#DB3F2C" stroke-width="3" stroke-linecap="round"/><path d="M182.214 208.712L98.0001 292.925" stroke="#DB3F2C" stroke-width="3" stroke-linecap="round"/></svg>