<svg width="390" height="501" viewBox="0 0 390 501" fill="none" xmlns="http://www.w3.org/2000/svg"><path d="M2 79.4079C10.9226 72.4884 12.7956 72.3623 13.5335 84.1678C14.1651 94.2734 15.6001 94.2367 25.0669 94.2367" stroke="#FD8806" stroke-width="3" stroke-linecap="round"/><path d="M321.641 148.609C324.041 137.806 330.105 133.57 340.68 132.315C349.203 131.304 352.621 128.489 354.593 120.599" stroke="#FD8806" stroke-width="3" stroke-linecap="round"/><path d="M354.594 445.183C364.207 440.377 370.149 444.334 379.4 447.655C384.591 449.518 386.083 442.252 387.547 438.593" stroke="#FD8806" stroke-width="3" stroke-linecap="round"/><path d="M348.228 433.548L292.6 489.176" stroke="#DB3F2C" stroke-width="3" stroke-linecap="round"/><path d="M359.835 410L304.208 465.628" stroke="#DB3F2C" stroke-width="3" stroke-linecap="round"/><path d="M314.398 443.497L258.77 499.125" stroke="#DB3F2C" stroke-width="3" stroke-linecap="round"/><path d="M270.969 101.951C281.774 87.4575 289.921 67.4204 287.992 49.0775C287.621 45.5466 284.361 31.1341 277.326 34.9019C274.859 36.2228 273.76 41.9153 276.512 43.524C283.12 47.3873 287.53 25.0199 287.736 22.2062C288.15 16.5501 287.215 10.3617 285.306 5.00304" stroke="#FD8806" stroke-width="2" stroke-linecap="round" stroke-linejoin="round"/><path d="M291.852 8.08747C290.264 7.88456 289.172 7.46985 287.917 6.40857C286.754 5.42523 285.918 4.2799 285.315 2.89297C285.125 2.45619 284.803 1.13133 284.709 1.59838C284.627 2.00982 284.722 2.43772 284.741 2.85695C284.77 3.50159 284.811 4.11355 284.774 4.76003C284.601 7.799 282.441 10.8312 279.352 11.4582" stroke="#FD8806" stroke-width="2" stroke-linecap="round"/></svg>