<svg width="295" height="284" viewBox="0 0 295 284" fill="none" xmlns="http://www.w3.org/2000/svg"><path d="M285.842 94.2706L285.158 78.7293" stroke="white" stroke-width="2" stroke-linecap="round"/><path d="M293.271 86.1576L277.729 86.8422" stroke="white" stroke-width="2" stroke-linecap="round"/><path d="M13.496 201.166L8.25882 182.542" stroke="white" stroke-width="2" stroke-linecap="round"/><path d="M20.1893 189.235L1.5654 194.472" stroke="white" stroke-width="2" stroke-linecap="round"/><g filter="url(#filter0_d_2080_612)"><circle cx="150" cy="142" r="124" stroke="#FA810A" stroke-opacity="0.17" stroke-width="2" shape-rendering="crispEdges"/></g><g filter="url(#filter1_di_2080_612)"><circle cx="150" cy="142" r="103" fill="#D9D9D9"/><circle cx="150" cy="142" r="103" fill="url(#paint0_linear_2080_612)"/></g><g clip-path="url(#clip0_2080_612)"><path d="M199.536 106.745C197.583 104.793 194.417 104.793 192.465 106.745L132.561 166.649L109.536 143.623C107.583 141.671 104.417 141.671 102.465 143.623C100.512 145.576 100.512 148.741 102.465 150.694L129.026 177.255C130.978 179.208 134.146 179.206 136.097 177.255L199.536 113.816C201.488 111.864 201.488 108.698 199.536 106.745Z" fill="white"/></g><g clip-path="url(#clip1_2080_612)"><path d="M259.125 225.722C258.575 225.468 257.924 225.708 257.67 226.258L249.883 243.118L243.402 240.125C242.853 239.871 242.201 240.11 241.947 240.66C241.694 241.21 241.933 241.861 242.483 242.115L249.959 245.568C250.508 245.821 251.16 245.581 251.413 245.032L259.66 227.177C259.914 226.627 259.674 225.976 259.125 225.722Z" fill="white"/></g><circle cx="81" cy="39" r="7.5" stroke="white"/><circle cx="40.5" cy="209.5" r="4.5" fill="white"/><defs><filter id="filter0_d_2080_612" x="8.9" y="0.9" width="282.2" height="282.2" filterUnits="userSpaceOnUse" color-interpolation-filters="sRGB"><feFlood flood-opacity="0" result="BackgroundImageFix"/><feColorMatrix in="SourceAlpha" type="matrix" values="0 0 0 0 0 0 0 0 0 0 0 0 0 0 0 0 0 0 127 0" result="hardAlpha"/><feOffset/><feGaussianBlur stdDeviation="8.05"/><feComposite in2="hardAlpha" operator="out"/><feColorMatrix type="matrix" values="0 0 0 0 0.992157 0 0 0 0 0.533333 0 0 0 0 0.0235294 0 0 0 0.51 0"/><feBlend mode="normal" in2="BackgroundImageFix" result="effect1_dropShadow_2080_612"/><feBlend mode="normal" in="SourceGraphic" in2="effect1_dropShadow_2080_612" result="shape"/></filter><filter id="filter1_di_2080_612" x="30.9" y="22.9" width="238.2" height="238.2" filterUnits="userSpaceOnUse" color-interpolation-filters="sRGB"><feFlood flood-opacity="0" result="BackgroundImageFix"/><feColorMatrix in="SourceAlpha" type="matrix" values="0 0 0 0 0 0 0 0 0 0 0 0 0 0 0 0 0 0 127 0" result="hardAlpha"/><feOffset/><feGaussianBlur stdDeviation="8.05"/><feComposite in2="hardAlpha" operator="out"/><feColorMatrix type="matrix" values="0 0 0 0 0.992157 0 0 0 0 0.533333 0 0 0 0 0.0235294 0 0 0 0.51 0"/><feBlend mode="normal" in2="BackgroundImageFix" result="effect1_dropShadow_2080_612"/><feBlend mode="normal" in="SourceGraphic" in2="effect1_dropShadow_2080_612" result="shape"/><feColorMatrix in="SourceAlpha" type="matrix" values="0 0 0 0 0 0 0 0 0 0 0 0 0 0 0 0 0 0 127 0" result="hardAlpha"/><feOffset dy="4"/><feGaussianBlur stdDeviation="2"/><feComposite in2="hardAlpha" operator="arithmetic" k2="-1" k3="1"/><feColorMatrix type="matrix" values="0 0 0 0 1 0 0 0 0 1 0 0 0 0 1 0 0 0 0.13 0"/><feBlend mode="normal" in2="shape" result="effect2_innerShadow_2080_612"/></filter><linearGradient id="paint0_linear_2080_612" x1="173.769" y1="-30.1572" x2="-65.9917" y2="23.0908" gradientUnits="userSpaceOnUse"><stop stop-color="#FD8806"/><stop offset="1" stop-color="#DB3F2C"/></linearGradient><clipPath id="clip0_2080_612"><rect width="100" height="100" fill="white" transform="translate(101 92)"/></clipPath><clipPath id="clip1_2080_612"><rect width="21.9224" height="21.9224" fill="white" transform="translate(237.737 230.151) rotate(-20.209)"/></clipPath></defs></svg>