<svg width="208" height="237" viewBox="0 0 208 237" fill="none" xmlns="http://www.w3.org/2000/svg"><path d="M207.257 300.133H0V-0.000482391H152.136L207.257 56.076V300.133Z" fill="white"/><path d="M137.162 47.7949H17.9219V41.6117H137.162V47.7949Z" fill="#898987"/><path d="M137.162 64.3613H17.9219V58.1771H137.162V64.3613Z" fill="#898987"/><path d="M17.9219 80.9297H189.335V74.7455H17.9219V80.9297Z" fill="#898987"/><path d="M17.9219 97.498H189.335V91.3138H17.9219V97.498Z" fill="#898987"/><path d="M17.9219 114.064H189.335V107.88H17.9219V114.064Z" fill="#898987"/><path d="M17.9219 130.633H189.335V124.449H17.9219V130.633Z" fill="#898987"/><path d="M17.9219 147.199H189.335V141.015H17.9219V147.199Z" fill="#898987"/><path d="M17.9219 163.768H189.335V157.584H17.9219V163.768Z" fill="#898987"/><path d="M17.9219 180.334H189.335V174.151H17.9219V180.334Z" fill="#898987"/><path d="M17.9219 196.902H189.335V190.718H17.9219V196.902Z" fill="#898987"/><path d="M17.9219 213.471H189.335V207.286H17.9219V213.471Z" fill="#898987"/><path d="M17.9219 230.037H189.335V223.853H17.9219V230.037Z" fill="#898987"/></svg>