<svg width="600" height="578" viewBox="0 0 600 578" fill="none" xmlns="http://www.w3.org/2000/svg"><path d="M472.751 438.011L471.191 437.111L488.502 427.116L490.062 428.016L472.751 438.011ZM491.622 427.116L490.062 426.215L511.214 414.003L512.774 414.904L491.622 427.116ZM514.335 414.003L512.774 413.103L536.265 399.54L537.825 400.441L514.335 414.003ZM539.385 399.54L537.823 398.64L551.994 390.459L553.555 391.359L539.385 399.54Z" fill="#395D3B"/><path d="M347.686 230.053C347.318 230.053 347.02 229.755 347.02 229.387V187.584C347.02 187.216 347.318 186.917 347.686 186.917C348.056 186.917 348.353 187.216 348.353 187.584V229.387C348.353 229.755 348.056 230.053 347.686 230.053Z" fill="#395D3B"/><path d="M299.577 278.047L299.241 277.955L265.368 258.146V266.552C265.368 266.92 265.07 267.219 264.701 267.219C264.333 267.219 264.034 266.92 264.034 266.552V255.822L299.914 276.804C300.232 276.991 300.338 277.399 300.153 277.716C300.029 277.928 299.806 278.047 299.577 278.047Z" fill="#395D3B"/><path d="M264.701 267.219L264.365 267.128L260.431 264.827V177.433L313.013 208.184V249.792C313.013 250.16 312.714 250.459 312.346 250.459C311.977 250.459 311.679 250.16 311.679 249.792V208.948L261.765 179.757V264.063L265.038 265.976C265.355 266.163 265.462 266.571 265.277 266.889C265.153 267.101 264.93 267.219 264.701 267.219Z" fill="#395D3B"/><path d="M265.368 205.413L308.074 230.389V211.936L265.368 186.96V205.413ZM309.408 232.713L264.034 206.177V184.636L309.408 211.172V232.713Z" fill="#395D3B"/><path d="M305.769 254.128L305.433 254.037L264.034 229.825V208.284L309.408 234.82V251.872C309.408 252.24 309.11 252.539 308.741 252.539C308.373 252.539 308.074 252.24 308.074 251.872V235.584L265.368 210.608V229.061L306.105 252.887C306.424 253.072 306.53 253.48 306.345 253.799C306.221 254.011 305.997 254.128 305.769 254.128Z" fill="#395D3B"/><path d="M299.577 274.155L299.241 274.064L264.034 253.473V231.932L303.628 255.087C303.946 255.273 304.053 255.681 303.866 256C303.681 256.319 303.269 256.423 302.955 256.239L265.368 234.256V252.709L299.914 272.913C300.232 273.099 300.338 273.507 300.153 273.825C300.029 274.037 299.806 274.155 299.577 274.155Z" fill="#395D3B"/><path d="M273.674 199.593L273.686 199.615L273.963 199.581C274.158 199.693 274.315 199.995 274.315 200.253C274.315 200.392 274.269 200.487 274.197 200.531L274.198 200.533L271.714 202L296.933 216.563L299.982 214.777L300.258 214.747C300.453 214.859 300.61 215.16 300.61 215.419C300.61 215.575 300.549 215.672 300.461 215.705L296.937 217.807L269.583 202.011L273.674 199.593Z" fill="#395D3B"/><path d="M273.674 223.586L273.686 223.608L273.963 223.573C274.158 223.686 274.315 223.986 274.315 224.246C274.315 224.385 274.269 224.478 274.197 224.524L274.198 224.526L271.714 225.993L296.933 240.556L299.982 238.769L300.258 238.738C300.453 238.85 300.61 239.152 300.61 239.412C300.61 239.568 300.549 239.664 300.461 239.698L296.937 241.8L269.583 226.004L273.674 223.586Z" fill="#395D3B"/><path d="M273.674 246.891L273.686 246.912L273.963 246.877C274.158 246.991 274.315 247.291 274.315 247.551C274.315 247.689 274.269 247.784 274.197 247.828L274.198 247.831L271.714 249.297L296.933 263.86L299.982 262.075L300.258 262.043C300.453 262.155 300.61 262.456 300.61 262.716C300.61 262.872 300.549 262.968 300.461 263.003L296.937 265.104L269.583 249.308L273.674 246.891Z" fill="#395D3B"/><path d="M312.349 209.34L312.01 209.141L259.785 178.6L294.867 157.757L314.663 168.652C314.986 168.829 315.103 169.234 314.926 169.557C314.746 169.88 314.339 169.996 314.019 169.82L294.891 159.295L262.411 178.59L312.343 207.792L347.347 187.011C347.662 186.823 348.073 186.927 348.259 187.244C348.449 187.56 348.345 187.969 348.026 188.157L312.349 209.34Z" fill="#395D3B"/><path d="M347.686 188.25L347.365 188.168L316.694 171.29C316.371 171.113 316.254 170.708 316.431 170.385C316.611 170.061 317.018 169.946 317.338 170.122L348.009 187C348.331 187.177 348.449 187.583 348.271 187.905C348.149 188.127 347.921 188.25 347.686 188.25Z" fill="#395D3B"/><path d="M264.702 267.219C264.477 267.219 264.257 267.104 264.13 266.897C263.939 266.583 264.041 266.172 264.355 265.981L272.395 261.113C272.709 260.924 273.119 261.024 273.31 261.339C273.501 261.653 273.401 262.064 273.085 262.255L265.046 267.123L264.702 267.219Z" fill="#395D3B"/><path d="M315.679 189.256C309.021 189.256 303.805 186.472 303.805 182.919C303.805 179.636 308.219 176.988 314.301 176.623C314.71 176.601 314.986 176.88 315.007 177.248C315.029 177.615 314.749 177.931 314.382 177.953C309.198 178.264 305.138 180.445 305.138 182.919C305.138 185.631 309.965 187.923 315.679 187.923C321.393 187.923 326.219 185.631 326.219 182.919C326.219 180.445 322.159 178.264 316.975 177.953C316.609 177.931 316.329 177.615 316.35 177.248C316.373 176.88 316.65 176.599 317.057 176.623C323.138 176.988 327.553 179.636 327.553 182.919C327.553 186.472 322.337 189.256 315.679 189.256Z" fill="#395D3B"/><path d="M315.679 183.887C314.517 183.887 313.675 183.321 313.675 182.543V160.947C313.675 160.579 313.973 160.28 314.342 160.28C314.71 160.28 315.009 160.579 315.009 160.947V182.413C315.111 182.471 315.342 182.553 315.679 182.553C316.017 182.553 316.246 182.471 316.35 182.413V160.975C316.35 160.607 316.647 160.308 317.017 160.308C317.385 160.308 317.683 160.607 317.683 160.975V182.543C317.683 183.321 316.841 183.887 315.679 183.887Z" fill="#395D3B"/><path d="M315.679 161.642C305.917 161.642 298.271 157.628 298.271 152.504C298.271 152.172 298.305 151.835 298.371 151.504L300.799 127.334C300.837 126.967 301.166 126.704 301.529 126.736C301.895 126.774 302.163 127.1 302.126 127.467L299.689 151.702C299.63 152.008 299.605 152.255 299.605 152.504C299.605 156.735 306.965 160.308 315.679 160.308C324.393 160.308 331.753 156.735 331.753 152.504C331.753 152.255 331.727 152.008 331.679 151.767L329.233 127.467C329.194 127.1 329.461 126.774 329.829 126.736C330.17 126.703 330.521 126.966 330.558 127.334L332.995 151.57C333.053 151.835 333.086 152.172 333.086 152.504C333.086 157.628 325.441 161.642 315.679 161.642Z" fill="#395D3B"/><path d="M315.679 120.873C308.334 120.873 302.129 123.861 302.129 127.4C302.129 130.937 308.334 133.926 315.679 133.926C323.023 133.926 329.229 130.937 329.229 127.4C329.229 123.861 323.023 120.873 315.679 120.873ZM315.679 135.26C307.334 135.26 300.795 131.806 300.795 127.4C300.795 122.992 307.334 119.54 315.679 119.54C324.023 119.54 330.562 122.992 330.562 127.4C330.562 131.806 324.023 135.26 315.679 135.26Z" fill="#395D3B"/><path d="M315.679 123.389C310.334 123.389 306.743 125.463 306.743 127.4C306.743 129.336 310.334 131.409 315.679 131.409C321.023 131.409 324.614 129.336 324.614 127.4C324.614 125.463 321.023 123.389 315.679 123.389ZM315.679 132.743C309.921 132.743 305.41 130.396 305.41 127.4C305.41 124.403 309.921 122.056 315.679 122.056C321.437 122.056 325.947 124.403 325.947 127.4C325.947 130.396 321.437 132.743 315.679 132.743Z" fill="#395D3B"/><path d="M57.8438 393.652C43.4146 393.652 31.6757 387.564 31.6757 380.081V376.764H33.009V380.081C33.009 386.829 44.1501 392.319 57.8438 392.319C71.5381 392.319 82.6793 386.829 82.6793 380.081V376.764H84.0126V380.081C84.0126 387.564 72.2741 393.652 57.8438 393.652Z" fill="#395D3B"/><path d="M57.8438 390.743C43.4146 390.743 31.6757 384.655 31.6757 377.172C31.6757 369.92 42.1782 364.099 56.1058 363.631L56.1501 364.964C43.1735 365.4 33.009 370.761 33.009 377.172C33.009 383.919 44.1501 389.409 57.8438 389.409C71.5381 389.409 82.6793 383.919 82.6793 377.172C82.6793 370.761 72.5146 365.4 59.5397 364.964L59.5834 363.631C73.5105 364.099 84.0126 369.92 84.0126 377.172C84.0126 384.655 72.2741 390.743 57.8438 390.743Z" fill="#395D3B"/><path d="M57.8438 374.129C56.4626 374.129 55.46 373.483 55.46 372.593V230.796H56.7933V372.593C56.8266 372.572 57.1856 372.796 57.8438 372.796C58.497 372.796 58.8642 372.577 58.9178 372.501L58.8949 230.796H60.2282V372.593C60.2282 373.483 59.2257 374.129 57.8438 374.129Z" fill="#395D3B"/><path d="M57.8438 231.496C43.4146 231.496 31.6757 225.408 31.6757 217.925C31.6757 217.441 31.7251 216.951 31.8219 216.469L35.5251 179.616L36.8522 179.749L33.1391 216.667C33.049 217.128 33.009 217.529 33.009 217.925C33.009 224.672 44.1501 230.163 57.8438 230.163C71.5381 230.163 82.6793 224.672 82.6793 217.925C82.6793 217.531 82.6391 217.129 82.5594 216.732L78.8366 179.749L80.1631 179.616L83.8766 216.535C83.9642 216.953 84.0126 217.443 84.0126 217.925C84.0126 225.408 72.2741 231.496 57.8438 231.496Z" fill="#395D3B"/><path d="M57.8438 169.392C46.2704 169.392 36.8553 174.008 36.8553 179.683C36.8553 185.357 46.2704 189.973 57.8438 189.973C69.4178 189.973 78.8329 185.357 78.8329 179.683C78.8329 174.008 69.4178 169.392 57.8438 169.392ZM57.8438 191.307C45.3272 191.307 35.522 186.201 35.522 179.683C35.522 173.165 45.3272 168.059 57.8438 168.059C70.361 168.059 80.1662 173.165 80.1662 179.683C80.1662 186.201 70.361 191.307 57.8438 191.307Z" fill="#395D3B"/><path d="M57.8439 171.827C48.7204 171.827 41.0127 175.424 41.0127 179.683C41.0127 182.652 44.8356 185.445 50.6095 186.757C50.9184 182.995 54.0793 180.027 57.92 180.027C61.7496 180.027 64.9037 182.977 65.2267 186.727C70.9127 185.401 74.6761 182.621 74.6761 179.683C74.6761 175.424 66.9679 171.827 57.8439 171.827ZM51.9611 188.395L51.1433 188.233C44.1793 186.857 39.6793 183.5 39.6793 179.683C39.6793 174.529 47.6585 170.493 57.8439 170.493C68.0304 170.493 76.0095 174.529 76.0095 179.683C76.0095 183.465 71.5704 186.811 64.7017 188.205L63.8772 188.373L63.9184 187.368C63.9209 184.053 61.2288 181.36 57.92 181.36C54.6105 181.36 51.9184 184.053 51.9184 187.361L51.9397 187.561L51.9611 188.395Z" fill="#395D3B"/><path d="M51.9271 187.026C55.7975 187.72 60.085 187.706 63.9074 187.002C63.7203 183.856 61.1058 181.36 57.9199 181.36C54.7235 181.36 52.1032 183.871 51.9271 187.026ZM57.8438 188.874C55.5475 188.874 53.2927 188.658 51.1443 188.234L50.6208 188.131L50.6063 187.598L50.585 187.362C50.585 183.318 53.8756 180.027 57.9199 180.027C61.9642 180.027 65.2542 183.318 65.2542 187.362L65.2224 188.086L64.7011 188.206C62.5167 188.648 60.2094 188.874 57.8438 188.874Z" fill="#395D3B"/><path d="M489.122 440.481C485.699 440.481 483.018 438.919 483.018 436.924V426.784H484.351V436.924C484.351 437.976 486.31 439.148 489.122 439.148C491.931 439.148 493.89 437.976 493.89 436.924V425.947H495.223V436.924C495.223 438.919 492.543 440.481 489.122 440.481Z" fill="#395D3B"/><path d="M548.675 405.744C545.253 405.744 542.573 404.181 542.573 402.187V397.84H543.906V402.187C543.906 403.239 545.865 404.411 548.675 404.411C551.486 404.411 553.445 403.239 553.445 402.187V391.409H554.778V402.187C554.778 404.181 552.097 405.744 548.675 405.744Z" fill="#395D3B"/><path d="M312.713 339.445C309.291 339.445 306.61 337.883 306.61 335.888V324.528H307.943V335.888C307.943 336.94 309.902 338.112 312.713 338.112C315.522 338.112 317.481 336.94 317.481 335.888V329.643H318.814V335.888C318.814 337.883 316.134 339.445 312.713 339.445Z" fill="#395D3B"/><path d="M473.25 263.001C472.349 259.649 470.222 256.52 467.961 255.213L397.494 214.759C395.115 213.369 390.874 214.405 386.946 217.336L386.149 216.268C390.567 212.971 395.281 211.924 398.162 213.605L468.626 254.057C471.215 255.553 473.534 258.928 474.537 262.656L473.25 263.001Z" fill="#395D3B"/><path d="M559.497 329.209H558.163V314.827C558.163 310.64 555.531 305.584 552.415 303.785L481.951 263.331C480.829 262.683 475.325 261.484 471.319 265.111L470.423 264.123C475.035 259.949 481.265 261.395 482.617 262.175L553.081 302.631C556.619 304.673 559.497 310.143 559.497 314.827V329.209Z" fill="#395D3B"/><path d="M312.701 326.642C311.359 326.642 308.655 326.244 304.515 323.847C302.695 322.794 298.91 320.602 298.91 314.592V265.271C298.91 260.587 301.789 255.116 305.325 253.075L366.305 217.868C370.11 215.912 373.931 216.67 378.361 220.24L377.525 221.278C372.366 217.123 369.161 217.899 366.943 219.039L305.991 254.23C302.875 256.028 300.243 261.084 300.243 265.271V314.592C300.243 319.832 303.457 321.694 305.183 322.694C310.681 325.875 313.315 325.267 313.343 325.258L313.695 326.544C313.657 326.555 313.327 326.642 312.701 326.642Z" fill="#395D3B"/><path d="M313.119 326.568C312.087 326.568 311.155 326.185 310.422 325.46C309.358 324.408 308.773 322.676 308.773 320.581V271.259C308.773 266.576 311.65 261.105 315.186 259.063L376.167 223.856C376.937 223.412 377.701 223.147 378.438 223.068L378.578 224.393C378.027 224.452 377.441 224.66 376.834 225.011L315.853 260.219C312.738 262.017 310.106 267.073 310.106 271.259V320.581C310.106 322.316 310.551 323.712 311.359 324.512C311.851 324.999 312.449 325.236 313.151 325.235L313.167 326.568H313.119Z" fill="#395D3B"/><path d="M472.886 417.759C470.545 417.759 468.349 417.272 466.75 416.349L317.571 330.22C314.234 328.293 312.046 326.523 312.046 319.732C312.046 310.151 313.723 303.647 317.031 300.4L317.966 301.352C314.965 304.297 313.379 310.652 313.379 319.732C313.379 325.945 315.226 327.327 318.238 329.067L467.417 415.195C469.475 416.383 472.719 416.744 475.877 416.141L476.127 417.452C475.046 417.659 473.951 417.759 472.886 417.759Z" fill="#395D3B"/><path d="M472.886 395.728C470.543 395.728 468.347 395.24 466.75 394.317L317.571 308.189C315.878 307.211 314.946 305.821 314.946 304.276C314.946 302.46 316.25 300.664 318.526 299.351L378.209 264.896L378.875 266.051L319.193 300.505C317.342 301.575 316.279 302.949 316.279 304.276C316.279 305.325 316.974 306.305 318.238 307.035L467.417 393.164C469.477 394.352 472.722 394.719 475.89 394.108L476.139 395.417C475.054 395.627 473.955 395.728 472.886 395.728Z" fill="#395D3B"/><path d="M393.346 341.639C390.315 341.639 387.129 340.907 384.649 339.472L329.451 307.605C326.947 306.16 325.511 304.189 325.511 302.197C325.511 300.509 326.533 298.989 328.39 297.917L376.329 270.24L376.995 271.395L329.057 299.072C327.629 299.896 326.845 301.005 326.845 302.197C326.845 303.7 328.037 305.251 330.118 306.452L385.315 338.319C389.426 340.695 395.89 340.975 399.429 338.932L448.946 310.344C449.767 309.867 450.373 309.308 450.745 308.683L451.891 309.361C451.402 310.188 450.635 310.907 449.613 311.497L400.095 340.085C398.291 341.128 395.873 341.639 393.346 341.639Z" fill="#395D3B"/><path d="M472.665 388.501C469.593 388.501 466.433 387.736 463.99 386.324L408.794 354.456C406.29 353.012 404.853 351.04 404.853 349.051C404.853 347.361 405.875 345.841 407.733 344.769L457.249 316.181L457.915 317.335L408.399 345.923C406.971 346.748 406.186 347.859 406.186 349.049C406.186 350.552 407.379 352.101 409.461 353.303L464.657 385.171C467.733 386.945 472.239 387.617 475.877 386.844L476.155 388.148C475.037 388.387 473.857 388.501 472.665 388.501Z" fill="#395D3B"/><path d="M452.962 309.783C452.574 309.783 452.167 309.727 451.749 309.615C449.937 309.128 448.147 307.653 447.075 305.799C438.742 307.153 421.421 303.159 414.955 300.383C402.262 294.935 390.629 285.635 383.741 275.445C381.083 275.912 377.269 275.437 376.282 272.855C375.458 270.705 376.395 269.273 377.221 268.011C377.569 267.48 377.898 266.976 378.091 266.44C377.161 262.559 376.203 258.483 375.465 254.863C374.699 251.111 374.302 248.484 374.251 246.833C374.178 244.404 375.669 228.048 378.095 222.987C377.157 221.475 376.947 219.669 377.559 218.187C378.217 216.593 379.711 215.527 381.767 215.184C383.877 214.829 385.99 215.439 388.035 216.991C393.167 217.06 401.382 220.576 405.65 223.093C415.243 228.753 426.366 235.381 436.942 242.411C437.958 243.087 439.017 243.757 440.086 244.437C441.27 245.189 442.47 245.951 443.649 246.739C447.201 249.115 451.101 252.076 453.282 256.096C455.73 256.005 459.578 255.943 461.646 258.161C462.611 259.197 462.682 261.048 461.843 263.369L460.587 262.916C461.23 261.141 461.261 259.703 460.67 259.069C458.945 257.217 455.269 257.357 453.073 257.437L452.486 257.459L452.293 257.079C450.295 253.139 446.427 250.201 442.906 247.847C441.739 247.064 440.547 246.308 439.371 245.563C438.294 244.879 437.227 244.201 436.203 243.521C425.655 236.511 414.553 229.893 404.973 224.241C400.793 221.776 392.75 218.323 387.885 218.323H387.811L387.577 218.325L387.394 218.18C385.599 216.767 383.789 216.199 381.986 216.499C380.378 216.767 379.274 217.527 378.791 218.695C378.306 219.869 378.543 221.348 379.409 222.553L379.655 222.896L379.451 223.265C377.162 227.395 375.495 243.905 375.585 246.792C375.633 248.367 376.021 250.919 376.773 254.596C377.518 258.255 378.491 262.389 379.433 266.313L379.474 266.489L379.422 266.663C379.185 267.444 378.753 268.104 378.337 268.74C377.561 269.927 376.947 270.864 377.526 272.379C378.246 274.259 381.687 274.557 383.899 274.055L384.349 273.951L384.603 274.335C391.319 284.461 402.862 293.741 415.481 299.157C422.578 302.203 440.021 305.84 447.305 304.403L447.803 304.304L448.03 304.757C448.897 306.495 450.493 307.896 452.095 308.327C452.646 308.475 453.431 308.567 454.047 308.16C455.809 306.997 456.313 304.955 455.682 301.532L456.994 301.291C457.454 303.788 457.726 307.332 454.782 309.272C454.269 309.611 453.646 309.783 452.962 309.783Z" fill="#395D3B"/><path d="M497.037 347.793C496.353 347.545 495.729 347.303 495.175 347.064C482.483 341.616 470.85 332.315 463.961 322.128C461.299 322.589 457.489 322.119 456.501 319.536C455.678 317.388 456.614 315.957 457.439 314.693C457.787 314.163 458.117 313.657 458.31 313.12C457.381 309.244 456.422 305.168 455.685 301.544C454.919 297.792 454.522 295.165 454.47 293.515C454.397 291.085 455.887 274.729 458.314 269.668C457.375 268.156 457.166 266.352 457.778 264.869C458.435 263.276 459.93 262.208 461.986 261.865C464.094 261.509 466.207 262.12 468.254 263.672C473.386 263.743 481.601 267.257 485.869 269.775C495.463 275.436 506.585 282.064 517.161 289.093C518.177 289.768 519.233 290.439 520.302 291.116C521.487 291.869 522.689 292.632 523.869 293.42C527.419 295.797 531.319 298.759 533.501 302.777C535.951 302.691 539.797 302.624 541.865 304.843C543.59 306.695 542.05 310.647 540.887 312.495C542.153 314.037 543.058 316.775 543.578 320.647L542.258 320.824C541.734 316.933 540.805 314.239 539.574 313.031L539.158 312.623L539.507 312.155C540.63 310.652 542.042 306.989 540.889 305.751C539.162 303.897 535.482 304.036 533.285 304.12L532.705 304.141L532.511 303.761C530.514 299.823 526.646 296.884 523.127 294.528C521.957 293.745 520.765 292.989 519.587 292.243C518.51 291.559 517.446 290.883 516.423 290.204C505.875 283.193 494.771 276.576 485.191 270.923C481.011 268.457 472.969 265.004 468.105 265.004H468.031L467.797 265.007L467.614 264.861C465.817 263.447 464.001 262.884 462.205 263.18C460.597 263.448 459.493 264.209 459.011 265.379C458.525 266.553 458.762 268.031 459.629 269.235L459.874 269.577L459.67 269.947C457.381 274.077 455.714 290.587 455.803 293.473C455.853 295.047 456.241 297.6 456.991 301.279C457.737 304.94 458.71 309.073 459.651 312.995L459.693 313.171L459.641 313.344C459.403 314.127 458.971 314.785 458.555 315.423C457.779 316.609 457.167 317.548 457.745 319.06C458.465 320.941 461.91 321.244 464.118 320.736L464.567 320.633L464.822 321.017C471.539 331.143 483.083 340.421 495.701 345.84C496.234 346.068 496.833 346.301 497.49 346.537L497.037 347.793Z" fill="#395D3B"/><path d="M489.135 428.911C487.794 428.911 485.09 428.512 480.952 426.116C477.442 424.084 475.347 420.625 475.347 416.861V367.54C475.347 362.859 478.224 357.387 481.76 355.345L542.74 320.139C546.222 318.292 549.827 318.816 553.471 321.693C556.784 324.307 558.971 327.836 559.063 327.984L557.927 328.683C557.906 328.648 555.767 325.203 552.646 322.74C549.408 320.185 546.379 319.717 543.387 321.304L482.427 356.499C479.311 358.299 476.681 363.355 476.681 367.54V416.861C476.681 420.193 478.48 423.144 481.62 424.963C487.123 428.147 489.756 427.535 489.778 427.527L490.132 428.812C490.092 428.823 489.763 428.911 489.135 428.911Z" fill="#395D3B"/><path d="M555.339 326.648C554.701 326.648 553.998 326.862 553.271 327.28L492.291 362.487C489.175 364.287 486.543 369.343 486.543 373.528V422.851C486.543 424.952 487.19 426.531 488.319 427.183C489.21 427.698 490.385 427.586 491.625 426.871L552.605 391.664C555.721 389.863 558.351 384.807 558.351 380.623V331.3C558.351 329.198 557.705 327.62 556.575 326.968C556.207 326.755 555.79 326.648 555.339 326.648ZM489.554 428.839C488.874 428.839 488.233 428.672 487.653 428.338C486.101 427.442 485.21 425.442 485.21 422.851V373.528C485.21 368.846 488.087 363.375 491.625 361.334L552.605 326.127C554.275 325.162 555.922 325.052 557.242 325.812C558.795 326.71 559.685 328.71 559.685 331.3V380.623C559.685 385.304 556.807 390.775 553.271 392.818L492.291 428.026C491.353 428.567 490.423 428.839 489.554 428.839Z" fill="#395D3B"/><path d="M233.745 380.082L233.653 378.751C237.163 378.507 240.757 378.362 244.333 378.316L244.35 379.65C240.798 379.695 237.231 379.839 233.745 380.082Z" fill="#395D3B"/><path d="M288.966 514.364C255.929 514.364 220.55 506.095 192.807 490.079C165.917 474.553 150.494 454.184 150.494 434.192C150.493 418.487 160.225 404.22 177.895 394.019C190.801 386.568 207.505 381.523 226.201 379.424L226.35 380.751C207.834 382.827 191.309 387.814 178.562 395.172C161.322 405.127 151.826 418.984 151.827 434.192C151.827 453.695 167.007 473.643 193.474 488.924C242.723 517.358 316.167 521.217 357.19 497.534C372.19 488.874 381.263 477.467 383.427 464.546C385.563 451.795 380.91 438.403 369.975 425.818L370.981 424.943C382.186 437.839 386.946 451.61 384.742 464.766C382.511 478.092 373.214 489.823 357.857 498.688C339.61 509.224 315.017 514.364 288.966 514.364Z" fill="#395D3B"/><path d="M233.778 390.988L233.619 389.665C243.007 388.541 252.89 388.333 262.997 389.044L262.903 390.374C252.879 389.668 243.081 389.877 233.778 390.988Z" fill="#395D3B"/><path d="M285.671 499.517C258.783 499.518 229.999 492.79 207.422 479.754C185.517 467.107 172.953 450.504 172.954 434.203C172.954 421.388 180.889 409.75 195.297 401.431C203.794 396.526 214.057 392.96 225.802 390.835L226.039 392.147C214.446 394.246 204.326 397.756 195.963 402.584C181.985 410.655 174.287 421.884 174.287 434.203C174.286 450.016 186.606 466.196 208.089 478.6C248.099 501.7 307.758 504.839 341.082 485.6C352.427 479.05 359.645 470.491 361.953 460.85C364.043 452.11 362.039 442.718 356.158 433.69L357.275 432.963C363.362 442.306 365.427 452.055 363.249 461.159C360.853 471.167 353.419 480.018 341.749 486.754C326.897 495.33 306.871 499.515 285.671 499.517Z" fill="#395D3B"/><path d="M254.476 410.108C242.024 410.108 230.28 412.561 221.566 417.592C213.316 422.356 208.774 428.969 208.774 436.214C208.774 445.545 216.072 455.11 228.796 462.457C252.582 476.188 288.038 478.059 307.836 466.633C316.084 461.869 320.627 455.254 320.627 448.009C320.627 438.68 313.33 429.114 300.606 421.766C287.291 414.08 270.312 410.108 254.476 410.108ZM274.93 475.428C258.844 475.428 241.63 471.406 228.13 463.61C214.982 456.021 207.44 446.034 207.44 436.214C207.44 428.472 212.219 421.449 220.899 416.438C241.066 404.794 277.12 406.668 301.272 420.613C314.42 428.204 321.96 438.19 321.96 448.009C321.96 455.752 317.183 462.776 308.503 467.786C299.608 472.921 287.62 475.428 274.93 475.428Z" fill="#395D3B"/><path d="M142.11 386.671C138.669 386.671 135.971 385.099 135.971 383.092V371.392H137.305V383.092C137.305 384.154 139.278 385.338 142.11 385.338C144.942 385.338 146.915 384.154 146.915 383.092V372.235H148.249V383.092C148.249 385.099 145.553 386.671 142.11 386.671Z" fill="#395D3B"/><path d="M82.1537 351.697C78.7121 351.697 76.0151 350.127 76.0151 348.12V336.62H77.3485V348.12C77.3485 349.181 79.3219 350.364 82.1537 350.364C84.9861 350.364 86.9594 349.181 86.9594 348.12V342.993H88.2927V348.12C88.2927 350.127 85.5959 351.697 82.1537 351.697Z" fill="#395D3B"/><path d="M237.917 331.771C234.474 331.771 231.778 330.198 231.778 328.194V321.1H233.111V328.194C233.111 329.254 235.085 330.437 237.917 330.437C240.749 330.437 242.722 329.254 242.722 328.194V316.107H244.055V328.194C244.055 330.198 241.359 331.771 237.917 331.771Z" fill="#395D3B"/><path d="M72.5975 274.963H71.2642V259.523C71.2642 254.81 74.1599 249.304 77.7194 247.248L148.662 206.519C152.057 204.428 155.91 205.132 160.102 208.62L159.249 209.646C155.494 206.52 152.254 205.874 149.345 207.666L78.3844 248.404C75.2484 250.215 72.5975 255.307 72.5975 259.523V274.963Z" fill="#395D3B"/><path d="M82.5261 264.821H81.1927C81.1927 260.291 83.9079 255.436 87.6479 253.277L88.7402 252.649L89.4037 253.805L88.3137 254.432C84.9605 256.367 82.5261 260.737 82.5261 264.821Z" fill="#395D3B"/><path d="M237.93 318.232C237.298 318.232 236.967 318.143 236.927 318.133L237.291 316.849C237.31 316.853 239.958 317.471 245.499 314.264C249.123 312.167 250.474 308.147 250.474 306.105V256.451C250.474 252.235 247.822 247.143 244.685 245.332L183.294 209.887C180.757 208.421 176.931 209.021 173.989 211.345L173.161 210.299C176.523 207.644 180.962 207 183.961 208.732L245.351 244.176C248.911 246.232 251.807 251.737 251.807 256.451V306.105C251.807 308.536 250.305 313.024 246.167 315.417C242.001 317.829 239.281 318.232 237.93 318.232Z" fill="#395D3B"/><path d="M237.507 318.159C237.354 318.159 237.198 318.149 237.041 318.133L237.182 316.807C237.959 316.888 238.633 316.681 239.183 316.187C240.062 315.399 240.545 313.96 240.545 312.135V262.479C240.545 258.264 237.894 253.171 234.757 251.36L173.363 215.916C173.102 215.764 172.845 215.64 172.593 215.543L173.074 214.299C173.387 214.42 173.706 214.573 174.03 214.76L235.423 250.205C238.983 252.26 241.878 257.767 241.878 262.479V312.135C241.878 314.343 241.238 316.135 240.075 317.179C239.357 317.824 238.477 318.159 237.507 318.159Z" fill="#395D3B"/><path d="M158.451 363.144C157.381 363.144 156.282 363.043 155.194 362.836L155.443 361.527C158.627 362.133 161.891 361.767 163.962 360.572L232.575 320.525C235.611 318.771 237.471 317.38 237.471 311.123L237.479 309.291C237.518 303.473 237.558 297.459 234.095 294.06L235.029 293.108C238.895 296.903 238.853 303.204 238.813 309.3L238.805 311.123C238.805 317.956 236.603 319.739 233.245 321.677L164.631 361.724C163.022 362.653 160.81 363.144 158.451 363.144Z" fill="#395D3B"/><path d="M158.454 340.965C157.382 340.965 156.281 340.863 155.193 340.655L155.442 339.345C158.626 339.951 161.89 339.588 163.962 338.392L232.575 298.345C233.85 297.608 234.551 296.62 234.551 295.563C234.551 294.224 233.482 292.839 231.615 291.761L179.726 261.805L180.393 260.651L232.282 290.607C234.573 291.929 235.885 293.735 235.885 295.563C235.885 297.116 234.947 298.515 233.245 299.499L164.631 339.544C163.023 340.472 160.811 340.965 158.454 340.965Z" fill="#395D3B"/><path d="M158.675 333.689C157.481 333.689 156.299 333.575 155.179 333.337L155.455 332.032C159.114 332.805 163.65 332.128 166.742 330.345L222.311 298.261C224.407 297.052 225.609 295.489 225.609 293.976C225.609 292.775 224.818 291.655 223.379 290.825L179.341 265.399L180.007 264.244L224.046 289.671C225.914 290.749 226.942 292.277 226.942 293.976C226.942 295.979 225.497 297.961 222.978 299.416L167.409 331.499C164.95 332.917 161.767 333.689 158.675 333.689Z" fill="#395D3B"/><path d="M134.267 292.744L133.741 291.519C147.937 285.424 165.453 275.376 172.038 265.448L172.293 265.064L172.742 265.167C174.965 265.676 178.435 265.373 179.162 263.477C179.746 261.952 179.129 261.008 178.346 259.812C177.927 259.171 177.493 258.507 177.254 257.72L177.201 257.547L177.243 257.371C178.101 253.799 178.505 250.105 178.403 247.009L178.199 247.483L178.159 244.332C178.102 238.835 177.531 231.149 176.55 227.092C175.938 224.563 174.15 218.643 171.763 214.337L171.559 213.968L171.805 213.625C172.678 212.412 172.917 210.921 172.429 209.737C171.942 208.559 170.829 207.793 169.207 207.523C167.405 207.223 165.57 207.792 163.761 209.217L163.577 209.361L163.343 209.36H163.269C158.367 209.36 150.271 212.836 146.063 215.319C136.422 221.008 125.244 227.668 114.621 234.729C113.592 235.413 112.52 236.093 111.436 236.781C110.252 237.533 109.051 238.295 107.874 239.084C104.329 241.455 100.434 244.413 98.4219 248.38L98.2298 248.76L97.647 248.739C95.4323 248.656 91.7303 248.515 89.9891 250.383C88.8266 251.631 90.249 255.321 91.3808 256.836L91.7303 257.304L91.3136 257.712C90.074 258.925 89.1391 261.639 88.6104 265.56L87.2886 265.381C87.8146 261.481 88.7256 258.725 89.9995 257.175C88.8303 255.317 87.2776 251.336 89.0142 249.473C91.0948 247.24 94.9735 247.301 97.4323 247.396C99.6292 243.351 103.556 240.368 107.132 237.975C108.319 237.181 109.528 236.413 110.721 235.656C111.798 234.972 112.862 234.297 113.883 233.619C124.533 226.54 135.729 219.868 145.386 214.171C149.682 211.636 157.953 208.097 163.119 208.028C165.178 206.465 167.302 205.853 169.427 206.208C171.495 206.553 172.999 207.625 173.661 209.229C174.274 210.717 174.066 212.529 173.125 214.049C175.482 218.443 177.237 224.259 177.846 226.779C178.845 230.907 179.427 238.647 179.491 244.211C180.041 247.8 179.701 252.753 178.585 257.496C178.779 258.039 179.113 258.547 179.462 259.083C180.294 260.353 181.235 261.793 180.407 263.953C179.411 266.556 175.571 267.032 172.897 266.559C165.967 276.607 148.463 286.649 134.267 292.744Z" fill="#395D3B"/><path d="M142.095 374.372C141.463 374.372 141.133 374.284 141.093 374.273L141.457 372.989C141.474 372.992 144.123 373.612 149.665 370.405C152.53 368.747 153.619 366.371 153.907 365.613L153.882 365.567L154.018 365.228C154.43 364.392 154.639 363.389 154.639 362.247V312.591C154.639 308.375 151.989 303.284 148.85 301.472L87.459 266.028C84.9938 264.435 81.2642 265.028 78.1533 267.485C75.0033 269.972 72.8579 273.435 72.837 273.469L71.7001 272.771C71.7927 272.621 73.9933 269.071 77.3271 266.439C80.887 263.627 85.2386 263.007 88.1537 264.889L149.517 300.317C153.077 302.372 155.973 307.877 155.973 312.591V362.247C155.973 363.528 155.742 364.676 155.289 365.661L155.274 365.733C155.234 365.877 154.23 369.303 150.333 371.559C146.166 373.971 143.446 374.372 142.095 374.372Z" fill="#395D3B"/><path d="M139.589 372.326C140.839 373.046 142.022 373.158 142.919 372.64C144.058 371.982 144.71 370.392 144.71 368.274V318.62C144.71 314.404 142.059 309.312 138.922 307.5L77.5298 272.056C76.2809 271.334 75.097 271.222 74.1979 271.741C73.0599 272.398 72.4079 273.989 72.4079 276.106V325.761C72.4079 329.977 75.059 335.069 78.1965 336.881L139.589 372.326ZM141.674 374.3C140.799 374.3 139.865 374.025 138.922 373.48L77.5298 338.034C73.9703 335.98 71.0746 330.474 71.0746 325.761V276.106C71.0746 273.5 71.9699 271.488 73.5312 270.586C74.8594 269.82 76.5167 269.932 78.1965 270.901L139.589 306.346C143.147 308.401 146.043 313.906 146.043 318.62V368.274C146.043 370.881 145.147 372.893 143.586 373.796C143.003 374.132 142.357 374.3 141.674 374.3Z" fill="#395D3B"/><path d="M355.394 119.916L355.059 119.827L305.77 91.2267V50.2066C305.77 49.8386 306.069 49.54 306.437 49.54C306.805 49.54 307.103 49.8386 307.103 50.2066V90.4573L355.729 118.672C356.047 118.857 356.155 119.265 355.97 119.584C355.847 119.797 355.623 119.916 355.394 119.916Z" fill="#395D3B"/><path d="M355.394 119.916C355.025 119.916 354.728 119.617 354.728 119.249V78.6133C354.728 78.2453 355.025 77.9467 355.394 77.9467C355.762 77.9467 356.061 78.2453 356.061 78.6133V119.249C356.061 119.617 355.762 119.916 355.394 119.916Z" fill="#395D3B"/><path d="M355.394 79.2803L355.059 79.1909L306.102 50.7829C305.783 50.5989 305.675 50.1909 305.859 49.8723C306.045 49.5523 306.454 49.4456 306.771 49.6296L355.729 78.0363C356.047 78.2216 356.155 78.6296 355.97 78.9483C355.847 79.1616 355.623 79.2803 355.394 79.2803Z" fill="#395D3B"/><path d="M358.403 77.1694L358.069 77.0788L309.479 48.8855L306.819 50.7521C306.521 50.9641 306.103 50.8908 305.891 50.5894C305.679 50.2881 305.751 49.8721 306.054 49.6614L309.411 47.3041L358.738 75.9254C359.057 76.1094 359.165 76.5188 358.979 76.8361C358.855 77.0494 358.631 77.1694 358.403 77.1694Z" fill="#395D3B"/><path d="M355.394 119.916C355.185 119.916 354.978 119.817 354.849 119.632C354.635 119.331 354.709 118.915 355.011 118.704L357.737 116.791V76.5027C357.737 76.1333 358.034 75.836 358.403 75.836C358.771 75.836 359.07 76.1333 359.07 76.5027V117.484L355.777 119.795C355.661 119.877 355.526 119.916 355.394 119.916Z" fill="#395D3B"/><path d="M355.394 79.2803C355.185 79.2803 354.978 79.1816 354.849 78.9963C354.635 78.6949 354.709 78.2789 355.011 78.0683L358.019 75.9563C358.318 75.7443 358.737 75.8162 358.949 76.1189C359.161 76.4202 359.087 76.8363 358.786 77.0483L355.777 79.1589C355.661 79.2416 355.526 79.2803 355.394 79.2803Z" fill="#395D3B"/><path d="M310.939 87.056L350.698 110.011L350.882 81.7506L310.939 58.4547V87.056ZM352.017 112.312L309.606 87.8253V56.1333L352.221 80.988L352.017 112.312Z" fill="#395D3B"/><path d="M424.098 173.375L423.763 173.285L374.474 144.685V62.9332C374.474 62.5652 374.773 62.2665 375.141 62.2665C375.51 62.2665 375.807 62.5652 375.807 62.9332V143.917L424.433 172.132C424.751 172.316 424.859 172.724 424.675 173.043C424.551 173.256 424.327 173.375 424.098 173.375Z" fill="#395D3B"/><path d="M424.098 173.375C423.73 173.375 423.431 173.077 423.431 172.708V91.3412C423.431 90.9718 423.73 90.6745 424.098 90.6745C424.466 90.6745 424.764 90.9718 424.764 91.3412V172.708C424.764 173.077 424.466 173.375 424.098 173.375Z" fill="#395D3B"/><path d="M424.098 92.0078L423.763 91.9185L374.806 63.5105C374.487 63.3251 374.379 62.9171 374.565 62.5985C374.749 62.2798 375.158 62.1718 375.475 62.3571L424.433 90.7638C424.751 90.9491 424.859 91.3571 424.675 91.6758C424.551 91.8878 424.327 92.0078 424.098 92.0078Z" fill="#395D3B"/><path d="M427.107 89.896L426.773 89.8053L378.185 61.612L375.523 63.4787C375.226 63.692 374.807 63.6173 374.595 63.316C374.383 63.0147 374.457 62.6 374.758 62.388L378.117 60.0307L427.442 88.652C427.761 88.8373 427.869 89.2453 427.685 89.564C427.561 89.776 427.337 89.896 427.107 89.896Z" fill="#395D3B"/><path d="M424.098 173.375C423.889 173.375 423.683 173.276 423.553 173.09C423.341 172.789 423.413 172.374 423.715 172.162L426.441 170.25V89.2292C426.441 88.8598 426.739 88.5625 427.107 88.5625C427.475 88.5625 427.774 88.8598 427.774 89.2292V170.943L424.481 173.253C424.365 173.336 424.231 173.375 424.098 173.375Z" fill="#395D3B"/><path d="M424.098 92.0078C423.889 92.0078 423.683 91.9091 423.553 91.7238C423.341 91.4225 423.413 91.0065 423.715 90.7958L426.725 88.6825C427.022 88.4718 427.441 88.5438 427.653 88.8465C427.865 89.1478 427.793 89.5625 427.49 89.7745L424.481 91.8865C424.365 91.9691 424.231 92.0078 424.098 92.0078Z" fill="#395D3B"/><path d="M379.643 140.515L419.398 163.468L419.587 94.4788L379.643 71.1814V140.515ZM420.726 165.773L378.31 141.284V68.8601L420.923 93.7148L420.726 165.773Z" fill="#395D3B"/><path d="M134.822 175.632C134.453 175.632 134.155 175.333 134.155 174.965V142.639C134.155 142.269 134.453 141.972 134.822 141.972C135.19 141.972 135.489 142.269 135.489 142.639V174.965C135.489 175.333 135.19 175.632 134.822 175.632Z" fill="#395D3B"/><path d="M134.821 177.057L134.489 176.969L100.449 157.316V123.177C100.449 122.809 100.747 122.51 101.116 122.51C101.484 122.51 101.782 122.809 101.782 123.177V156.546L135.155 175.813C135.474 175.998 135.583 176.405 135.399 176.724C135.275 176.938 135.051 177.057 134.821 177.057Z" fill="#395D3B"/><path d="M139.221 144.697V168.44L265.051 96.0491V72.2918L139.221 144.697ZM137.887 170.745V143.926L138.222 143.734L266.385 69.9851V96.8198L266.05 97.0131L137.887 170.745Z" fill="#395D3B"/><path d="M134.822 143.408L100.782 123.755C100.463 123.571 100.354 123.164 100.538 122.844C100.722 122.524 101.13 122.416 101.449 122.6L134.822 141.868L267.543 65.2415C267.861 65.0549 268.269 65.1642 268.454 65.4855C268.638 65.8042 268.529 66.2122 268.21 66.3962L134.822 143.408Z" fill="#395D3B"/><path d="M101.116 123.844C100.886 123.844 100.662 123.725 100.538 123.51C100.354 123.192 100.463 122.784 100.783 122.6L235.746 44.6798L269.785 64.3304C270.103 64.5157 270.213 64.9238 270.029 65.2424C269.843 65.5598 269.435 65.6691 269.118 65.4864L235.746 46.2184L101.449 123.754L101.116 123.844Z" fill="#395D3B"/><path d="M135.489 143.022V175.236L268.785 98.2771V66.0638L135.489 143.022ZM134.822 177.057L134.757 177.054L134.49 176.969L134.279 176.78L134.178 176.565L134.155 176.38V142.252L134.489 142.06L269.107 64.3371L269.278 64.2651L269.521 64.2465L269.777 64.3265L269.995 64.5238L270.094 64.7318L270.118 64.9198V99.0465L269.785 99.2398L135.165 176.962L134.985 177.037L134.822 177.057Z" fill="#395D3B"/><path d="M231.018 117.064C230.65 117.064 230.351 116.765 230.351 116.397V91.1053C230.351 90.7373 230.65 90.4386 231.018 90.4386C231.387 90.4386 231.685 90.7373 231.685 91.1053V116.397C231.685 116.765 231.387 117.064 231.018 117.064Z" fill="#395D3B"/><path d="M226.793 119.495C226.423 119.495 226.126 119.197 226.126 118.828V94.1827C226.126 93.8147 226.423 93.516 226.793 93.516C227.161 93.516 227.459 93.8147 227.459 94.1827V118.828C227.459 119.197 227.161 119.495 226.793 119.495Z" fill="#395D3B"/><path d="M226.791 119.495L226.457 119.405L204.67 106.732C204.351 106.548 204.243 106.139 204.429 105.821C204.614 105.503 205.021 105.396 205.341 105.58L227.127 118.252C227.446 118.437 227.554 118.845 227.369 119.164C227.245 119.377 227.021 119.495 226.791 119.495Z" fill="#395D3B"/><path d="M265.717 97.1016L265.378 97.0096L243.681 84.1976C243.363 84.0109 243.259 83.6015 243.446 83.2842C243.633 82.9695 244.043 82.8642 244.359 83.0496L266.057 95.8602C266.374 96.0482 266.479 96.4576 266.293 96.7736C266.167 96.9842 265.945 97.1016 265.717 97.1016Z" fill="#395D3B"/><path d="M158.633 145.365C158.265 145.365 157.966 145.067 157.966 144.699V138.299L178.907 126.208C179.225 126.024 179.634 126.133 179.818 126.452C180.002 126.771 179.893 127.179 179.574 127.363L159.299 139.068V144.699C159.299 145.067 159.001 145.365 158.633 145.365Z" fill="#395D3B"/><path d="M158.633 145.365C158.403 145.365 158.179 145.247 158.055 145.032C157.871 144.713 157.981 144.305 158.299 144.121L178.574 132.416V127.185L173.625 124.539C173.299 124.365 173.178 123.961 173.351 123.636C173.525 123.312 173.927 123.189 174.254 123.364L179.907 126.385V133.185L158.966 145.276L158.633 145.365Z" fill="#395D3B"/><path d="M158.631 145.365L158.298 145.276L147.938 139.26C147.621 139.075 147.511 138.667 147.697 138.348C147.881 138.029 148.289 137.924 148.607 138.107L158.967 144.121C159.286 144.307 159.394 144.715 159.21 145.033C159.086 145.247 158.862 145.365 158.631 145.365Z" fill="#395D3B"/><path d="M158.633 142.929C158.265 142.929 157.966 142.631 157.966 142.263V139.067L153.234 136.319C152.915 136.135 152.806 135.725 152.991 135.408C153.177 135.088 153.585 134.981 153.903 135.165L159.299 138.299V142.263C159.299 142.631 159.001 142.929 158.633 142.929Z" fill="#395D3B"/><path d="M158.167 155.156C157.798 155.156 157.5 154.858 157.5 154.49V148.088L178.442 135.999C178.758 135.815 179.167 135.923 179.352 136.243C179.536 136.562 179.427 136.97 179.108 137.154L158.834 148.859V154.49C158.834 154.858 158.535 155.156 158.167 155.156Z" fill="#395D3B"/><path d="M158.167 155.156C157.936 155.156 157.713 155.036 157.59 154.823C157.406 154.503 157.515 154.096 157.834 153.912L178.109 142.207V136.948L175.489 135.334C175.175 135.139 175.078 134.728 175.271 134.415C175.463 134.103 175.875 134.004 176.189 134.198L179.442 136.204V142.976L158.5 155.067L158.167 155.156Z" fill="#395D3B"/><path d="M158.166 155.156L157.833 155.066L139.267 144.287C138.95 144.102 138.841 143.694 139.026 143.375C139.211 143.056 139.619 142.95 139.937 143.134L158.502 153.912C158.821 154.098 158.929 154.506 158.743 154.824C158.621 155.036 158.397 155.156 158.166 155.156Z" fill="#395D3B"/><path d="M158.167 152.72C157.798 152.72 157.501 152.421 157.501 152.053V148.857L144.471 141.292C144.154 141.108 144.045 140.698 144.23 140.381C144.414 140.062 144.822 139.953 145.141 140.138L158.834 148.089V152.053C158.834 152.421 158.535 152.72 158.167 152.72Z" fill="#395D3B"/><path d="M347.606 468.361C345.009 468.361 343.05 467.228 343.05 465.727V436.341C343.05 435.972 343.349 435.675 343.717 435.675C344.085 435.675 344.383 435.972 344.383 436.341V465.727C344.383 466.256 345.638 467.028 347.606 467.028C349.573 467.028 350.829 466.256 350.829 465.727V436.341C350.829 435.972 351.127 435.675 351.495 435.675C351.863 435.675 352.162 435.972 352.162 436.341V465.727C352.162 467.228 350.203 468.361 347.606 468.361Z" fill="#395D3B"/><path d="M229.81 400.128C227.211 400.128 225.254 398.995 225.254 397.492V368.332C225.254 367.964 225.551 367.665 225.921 367.665C226.289 367.665 226.587 367.964 226.587 368.332V397.492C226.587 398.024 227.842 398.795 229.81 398.795C231.777 398.795 233.033 398.024 233.033 397.492V372.823C233.033 372.455 233.33 372.156 233.699 372.156C234.067 372.156 234.366 372.455 234.366 372.823V397.492C234.366 398.995 232.407 400.128 229.81 400.128Z" fill="#395D3B"/><path d="M390.989 442.644C388.393 442.644 386.434 441.512 386.434 440.011V415.784C386.434 415.416 386.733 415.117 387.101 415.117C387.469 415.117 387.767 415.416 387.767 415.784V440.011C387.767 440.54 389.022 441.311 390.989 441.311C392.957 441.311 394.211 440.54 394.211 440.011V411.293C394.211 410.924 394.51 410.627 394.878 410.627C395.246 410.627 395.545 410.924 395.545 411.293V440.011C395.545 441.512 393.586 442.644 390.989 442.644Z" fill="#395D3B"/><path d="M347.606 439.252L347.273 439.163L221.091 366.313V361.472C221.091 361.103 221.39 360.805 221.758 360.805C222.127 360.805 222.425 361.103 222.425 361.472V365.543L347.939 438.009C348.258 438.193 348.367 438.6 348.183 438.919C348.061 439.133 347.835 439.252 347.606 439.252Z" fill="#395D3B"/><path d="M347.606 439.252C347.238 439.252 346.939 438.955 346.939 438.585V434.129C346.939 433.76 347.238 433.463 347.606 433.463C347.974 433.463 348.273 433.76 348.273 434.129V438.585C348.273 438.955 347.974 439.252 347.606 439.252Z" fill="#395D3B"/><path d="M348.273 434.515V437.431L396.454 409.613V406.696L348.273 434.515ZM346.939 439.741V433.744L347.273 433.552L397.787 404.387V410.384L397.454 410.576L346.939 439.741Z" fill="#395D3B"/><path d="M347.606 431.167L347.273 430.973L223.037 359.248C222.717 359.064 222.607 358.656 222.793 358.337C222.977 358.019 223.385 357.907 223.703 358.093L347.606 429.628L396.787 401.233C397.105 401.048 397.514 401.156 397.697 401.476C397.882 401.796 397.773 402.203 397.454 402.387L347.606 431.167Z" fill="#395D3B"/><path d="M397.121 402.476L396.787 402.387L271.273 329.921L222.091 358.316C221.773 358.501 221.365 358.391 221.181 358.073C220.997 357.753 221.106 357.347 221.425 357.163L271.273 328.383L271.606 328.576L397.454 401.233C397.773 401.417 397.882 401.824 397.697 402.143C397.574 402.357 397.35 402.476 397.121 402.476Z" fill="#395D3B"/><path d="M222.425 361.086L346.939 432.974V430.783L222.425 358.895V361.086ZM348.273 435.284L347.273 434.706L221.091 361.858V356.584L222.091 357.163L348.273 430.012V435.284Z" fill="#395D3B"/><path d="M347.606 435.521C347.238 435.521 346.939 435.223 346.939 434.855V430.397C346.939 430.028 347.238 429.731 347.606 429.731C347.974 429.731 348.273 430.028 348.273 430.397V434.855C348.273 435.223 347.974 435.521 347.606 435.521Z" fill="#395D3B"/><path d="M397.121 406.933C396.751 406.933 396.454 406.636 396.454 406.266V401.809C396.454 401.441 396.751 401.142 397.121 401.142C397.489 401.142 397.787 401.441 397.787 401.809V406.266C397.787 406.636 397.489 406.933 397.121 406.933Z" fill="#395D3B"/><path d="M138.491 307.984L138.278 307.854L138.207 307.919L138.418 308.116L138.491 307.984Z" fill="#395D3B"/></svg>