<svg width="117" height="40" viewBox="0 0 117 40" fill="none" xmlns="http://www.w3.org/2000/svg"><path d="M95.3744 0.390421V15.5735H93.8079V0.390421H95.3744ZM101.881 14.9011V15.5735H95.3021V14.9011H101.881ZM100.845 7.76504V8.41574H95.3021V7.76504H100.845ZM101.881 0.390421V1.06281H95.3021V0.390421H101.881ZM103.351 12.0597L101.954 15.5735H97.9531L98.8207 14.9011C99.6722 14.9011 100.363 14.7854 100.893 14.554C101.44 14.3082 101.881 13.9684 102.219 13.5346C102.556 13.1008 102.853 12.6092 103.11 12.0597H103.351ZM100.845 8.37236V9.80391H100.604V9.47856C100.604 9.18936 100.492 8.94353 100.267 8.74109C100.042 8.52419 99.7686 8.41574 99.4473 8.41574V8.37236H100.845ZM100.845 6.37688V7.80842H99.4473V7.76504C99.7686 7.75058 100.042 7.64213 100.267 7.43969C100.492 7.22279 100.604 6.96974 100.604 6.68054V6.37688H100.845ZM101.881 0.997743V2.73295H101.64V2.34253C101.64 1.99549 101.504 1.69906 101.231 1.45323C100.958 1.19295 100.62 1.05558 100.218 1.04112V0.997743H101.881ZM101.881 0V0.629013L98.9412 0.390421C99.2946 0.390421 99.6642 0.368731 100.05 0.325352C100.451 0.281971 100.821 0.231361 101.158 0.173521C101.496 0.115681 101.737 0.0578403 101.881 0ZM93.8802 13.9901V15.5735H91.9521V15.3566C91.9521 15.3566 92.0003 15.3566 92.0967 15.3566C92.2092 15.3566 92.2654 15.3566 92.2654 15.3566C92.6832 15.3566 93.0366 15.2264 93.3258 14.9661C93.6311 14.6914 93.7918 14.366 93.8079 13.9901H93.8802ZM93.8802 1.9738H93.8079C93.8079 1.59783 93.6552 1.27971 93.35 1.01943C93.0447 0.744692 92.6832 0.607322 92.2654 0.607322C92.2654 0.607322 92.2172 0.607322 92.1208 0.607322C92.0244 0.607322 91.9762 0.607322 91.9762 0.607322L91.9521 0.390421H93.8802V1.9738Z" fill="white"/><path d="M82.1946 0.390381V15.5734H80.6281V0.390381H82.1946ZM88.7016 14.901V15.5734H82.1223V14.901H88.7016ZM90.1717 12.0596L88.7739 15.5734H84.7733L85.6409 14.901C86.4925 14.901 87.1833 14.7853 87.7135 14.554C88.2598 14.3082 88.7016 13.9684 89.039 13.5346C89.3764 13.1008 89.6737 12.6091 89.9307 12.0596H90.1717ZM80.7004 13.99V15.5734H78.7724V15.3565C78.7724 15.3565 78.8206 15.3565 78.917 15.3565C79.0295 15.3565 79.0857 15.3565 79.0857 15.3565C79.5034 15.3565 79.8569 15.2264 80.1461 14.9661C80.4514 14.6914 80.612 14.366 80.6281 13.99H80.7004ZM80.7004 1.97376H80.6281C80.612 1.59779 80.4514 1.27967 80.1461 1.01939C79.8569 0.744652 79.5034 0.607281 79.0857 0.607281C79.0857 0.607281 79.0295 0.607281 78.917 0.607281C78.8206 0.607281 78.7724 0.607281 78.7724 0.607281V0.390381H80.7004V1.97376ZM82.1223 1.97376V0.390381H84.0503V0.607281C84.0342 0.607281 83.978 0.607281 83.8816 0.607281C83.7852 0.607281 83.737 0.607281 83.737 0.607281C83.3193 0.607281 82.9578 0.744652 82.6525 1.01939C82.3633 1.27967 82.2107 1.59779 82.1946 1.97376H82.1223Z" fill="white"/><path d="M69.0149 0.390381V15.5734H67.4484V0.390381H69.0149ZM75.5219 14.901V15.5734H68.9426V14.901H75.5219ZM76.992 12.0596L75.5942 15.5734H71.5936L72.4612 14.901C73.3127 14.901 74.0036 14.7853 74.5338 14.554C75.08 14.3082 75.5219 13.9684 75.8593 13.5346C76.1967 13.1008 76.4939 12.6091 76.751 12.0596H76.992ZM67.5207 13.99V15.5734H65.5927V15.3565C65.5927 15.3565 65.6408 15.3565 65.7372 15.3565C65.8497 15.3565 65.9059 15.3565 65.9059 15.3565C66.3237 15.3565 66.6772 15.2264 66.9664 14.9661C67.2716 14.6914 67.4323 14.366 67.4484 13.99H67.5207ZM67.5207 1.97376H67.4484C67.4323 1.59779 67.2716 1.27967 66.9664 1.01939C66.6772 0.744652 66.3237 0.607281 65.9059 0.607281C65.9059 0.607281 65.8497 0.607281 65.7372 0.607281C65.6408 0.607281 65.5927 0.607281 65.5927 0.607281V0.390381H67.5207V1.97376ZM68.9426 1.97376V0.390381H70.8706V0.607281C70.8545 0.607281 70.7983 0.607281 70.7019 0.607281C70.6055 0.607281 70.5573 0.607281 70.5573 0.607281C70.1395 0.607281 69.778 0.744652 69.4728 1.01939C69.1836 1.27967 69.0309 1.59779 69.0149 1.97376H68.9426Z" fill="white"/><path d="M55.3409 0.390421V15.5735H53.7744V0.390421H55.3409ZM61.8479 14.9011V15.5735H55.2686V14.9011H61.8479ZM60.8116 7.76504V8.41574H55.2686V7.76504H60.8116ZM61.8479 0.390421V1.06281H55.2686V0.390421H61.8479ZM63.318 12.0597L61.9202 15.5735H57.9196L58.7872 14.9011C59.6388 14.9011 60.3296 14.7854 60.8598 14.554C61.4061 14.3082 61.8479 13.9684 62.1853 13.5346C62.5227 13.1008 62.82 12.6092 63.077 12.0597H63.318ZM60.8116 8.37236V9.80391H60.5706V9.47856C60.5706 9.18936 60.4582 8.94353 60.2332 8.74109C60.0083 8.52419 59.7352 8.41574 59.4138 8.41574V8.37236H60.8116ZM60.8116 6.37688V7.80842H59.4138V7.76504C59.7352 7.75058 60.0083 7.64213 60.2332 7.43969C60.4582 7.22279 60.5706 6.96974 60.5706 6.68054V6.37688H60.8116ZM61.8479 0.997743V2.73295H61.6069V2.34253C61.6069 1.99549 61.4704 1.69906 61.1972 1.45323C60.9241 1.19295 60.5867 1.05558 60.185 1.04112V0.997743H61.8479ZM61.8479 0V0.629013L58.9077 0.390421C59.2612 0.390421 59.6307 0.368731 60.0163 0.325352C60.418 0.281971 60.7875 0.231361 61.1249 0.173521C61.4623 0.115681 61.7033 0.0578403 61.8479 0ZM53.8467 13.9901V15.5735H51.9187V15.3566C51.9187 15.3566 51.9669 15.3566 52.0633 15.3566C52.1758 15.3566 52.232 15.3566 52.232 15.3566C52.6497 15.3566 53.0032 15.2264 53.2924 14.9661C53.5977 14.6914 53.7583 14.366 53.7744 13.9901H53.8467ZM53.8467 1.9738H53.7744C53.7744 1.59783 53.6218 1.27971 53.3165 1.01943C53.0112 0.744692 52.6497 0.607322 52.232 0.607322C52.232 0.607322 52.1838 0.607322 52.0874 0.607322C51.991 0.607322 51.9428 0.607322 51.9428 0.607322L51.9187 0.390421H53.8467V1.9738Z" fill="white"/><path d="M45.9018 0.209717L46.0946 1.66295L40.0455 13.7877C40.0455 13.7877 39.9812 13.9106 39.8527 14.1564C39.7402 14.4022 39.6197 14.6987 39.4912 15.0457C39.3627 15.3783 39.2743 15.6964 39.2261 16.0001H38.9851L38.6477 14.6336L45.9018 0.209717ZM31.0803 14.113V15.6964H28.4052V15.4795C28.4212 15.4795 28.4855 15.4795 28.598 15.4795C28.7265 15.4795 28.7908 15.4795 28.7908 15.4795C29.2246 15.4795 29.6102 15.3638 29.9476 15.1325C30.285 14.8867 30.4858 14.5468 30.5501 14.113H31.0803ZM31.7792 14.4601C31.7792 14.4745 31.7792 14.489 31.7792 14.5035C31.7792 14.5179 31.7792 14.5396 31.7792 14.5685C31.7792 14.7999 31.8675 15.0168 32.0443 15.2192C32.2371 15.4072 32.462 15.5012 32.7191 15.5012H33.0806V15.6964H31.6105V14.4601H31.7792ZM32.3576 0.209717H32.5986L33.0806 1.48943L31.6587 15.6964H30.3573L32.3576 0.209717ZM32.5986 0.209717L39.5394 13.7226L38.9851 16.0001L32.1407 2.639L32.5986 0.209717ZM46.1187 0.209717L48.1913 15.6964H46.3115L44.986 2.55224L45.9018 0.209717H46.1187ZM47.4683 14.113H47.9744C48.0547 14.5468 48.2636 14.8867 48.601 15.1325C48.9384 15.3638 49.316 15.4795 49.7337 15.4795C49.7337 15.4795 49.798 15.4795 49.9265 15.4795C50.055 15.4795 50.1193 15.4795 50.1193 15.4795V15.6964H47.4683V14.113ZM46.191 14.4601H46.3597V15.6964H44.8896V15.5012H45.2511C45.5242 15.5012 45.7492 15.4072 45.9259 15.2192C46.1026 15.0168 46.191 14.7999 46.191 14.5685C46.191 14.5396 46.191 14.5179 46.191 14.5035C46.191 14.489 46.191 14.4745 46.191 14.4601Z" fill="white"/><path d="M19.5492 0.390421V15.5735H17.9827V0.390421H19.5492ZM26.0562 14.9011V15.5735H19.4769V14.9011H26.0562ZM25.0199 7.76504V8.41574H19.4769V7.76504H25.0199ZM26.0562 0.390421V1.06281H19.4769V0.390421H26.0562ZM27.5264 12.0597L26.1285 15.5735H22.1279L22.9955 14.9011C23.8471 14.9011 24.5379 14.7854 25.0681 14.554C25.6144 14.3082 26.0562 13.9684 26.3936 13.5346C26.731 13.1008 27.0283 12.6092 27.2853 12.0597H27.5264ZM25.0199 8.37236V9.80391H24.7789V9.47856C24.7789 9.18936 24.6665 8.94353 24.4415 8.74109C24.2166 8.52419 23.9435 8.41574 23.6221 8.41574V8.37236H25.0199ZM25.0199 6.37688V7.80842H23.6221V7.76504C23.9435 7.75058 24.2166 7.64213 24.4415 7.43969C24.6665 7.22279 24.7789 6.96974 24.7789 6.68054V6.37688H25.0199ZM26.0562 0.997743V2.73295H25.8152V2.34253C25.8152 1.99549 25.6787 1.69906 25.4055 1.45323C25.1324 1.19295 24.795 1.05558 24.3933 1.04112V0.997743H26.0562ZM26.0562 0V0.629013L23.116 0.390421C23.4695 0.390421 23.839 0.368731 24.2246 0.325352C24.6263 0.281971 24.9958 0.231361 25.3332 0.173521C25.6706 0.115681 25.9116 0.0578403 26.0562 0ZM18.055 13.9901V15.5735H16.127V15.3566C16.127 15.3566 16.1752 15.3566 16.2716 15.3566C16.3841 15.3566 16.4403 15.3566 16.4403 15.3566C16.858 15.3566 17.2115 15.2264 17.5007 14.9661C17.806 14.6914 17.9667 14.366 17.9827 13.9901H18.055ZM18.055 1.9738H17.9827C17.9827 1.59783 17.8301 1.27971 17.5248 1.01943C17.2196 0.744692 16.858 0.607322 16.4403 0.607322C16.4403 0.607322 16.3921 0.607322 16.2957 0.607322C16.1993 0.607322 16.1511 0.607322 16.1511 0.607322L16.127 0.390421H18.055V1.9738Z" fill="white"/><path d="M3.10891 0.390381H6.50702C7.23002 0.390381 7.88072 0.484371 8.45913 0.672352C9.05359 0.860333 9.55166 1.13507 9.95333 1.49657C10.355 1.84362 10.6603 2.27019 10.8691 2.77629C11.0941 3.26793 11.2065 3.83187 11.2065 4.46811C11.2065 5.16219 11.0218 5.82736 10.6522 6.4636C10.2988 7.09984 9.80873 7.6204 9.18213 8.02528C8.57159 8.4157 7.88072 8.61091 7.10952 8.61091C7.38266 8.71213 7.67989 8.9218 8.00123 9.23992C8.32256 9.54358 8.60373 9.84002 8.84473 10.1292C8.84473 10.1292 8.94916 10.2738 9.15803 10.563C9.38296 10.8378 9.6561 11.1776 9.97743 11.5825C10.3148 11.9873 10.6522 12.385 10.9896 12.7754C11.327 13.1658 11.6162 13.4767 11.8572 13.7081C12.1786 14.0262 12.4999 14.3082 12.8212 14.554C13.1426 14.7998 13.488 14.995 13.8575 15.1396C14.2431 15.2842 14.6689 15.3565 15.1348 15.3565V15.5734H13.8093C13.0703 15.5734 12.4276 15.4722 11.8813 15.2698C11.3511 15.0673 10.9013 14.8215 10.5317 14.5323C10.1622 14.2286 9.8489 13.9394 9.59183 13.6647C9.54363 13.6069 9.40706 13.4406 9.18213 13.1658C8.97326 12.8911 8.71619 12.5657 8.41092 12.1898C8.12172 11.7994 7.83252 11.4162 7.54332 11.0402C7.25412 10.6642 7.00509 10.3461 6.79622 10.0858C6.58735 9.8111 6.46685 9.65204 6.43472 9.60866C6.12945 9.24716 5.79205 8.91457 5.42252 8.61091C5.05298 8.30725 4.65131 8.15542 4.21751 8.15542V7.93852C4.21751 7.93852 4.33801 7.94575 4.57901 7.96021C4.83608 7.96021 5.14135 7.95298 5.49482 7.93852C5.91255 7.92406 6.37045 7.86622 6.86852 7.765C7.36659 7.66378 7.83252 7.45411 8.26632 7.13599C8.70013 6.81787 9.0295 6.33346 9.25443 5.68276C9.30263 5.5237 9.3428 5.32849 9.37493 5.09712C9.40706 4.8513 9.4151 4.61271 9.39903 4.38135C9.38296 3.39807 9.1018 2.61723 8.55553 2.03883C8.02532 1.44596 7.31036 1.12784 6.41062 1.08446C5.96075 1.05554 5.49482 1.04831 5.01282 1.06277C4.54688 1.06277 4.15325 1.06277 3.83191 1.06277C3.51058 1.06277 3.34991 1.06277 3.34991 1.06277C3.34991 1.04831 3.32581 0.990473 3.27761 0.889252C3.24548 0.773572 3.20531 0.665121 3.15711 0.563902C3.12498 0.448221 3.10891 0.390381 3.10891 0.390381ZM3.42221 0.390381V15.5734H1.85571V0.390381H3.42221ZM1.92801 13.99V15.5734H0V15.3565C0 15.3565 0.0482001 15.3565 0.1446 15.3565C0.257067 15.3565 0.313301 15.3565 0.313301 15.3565C0.731036 15.3565 1.0845 15.2264 1.3737 14.9661C1.67897 14.6914 1.83964 14.366 1.85571 13.99H1.92801ZM1.92801 1.97376H1.85571C1.83964 1.59779 1.67897 1.27967 1.3737 1.01939C1.0845 0.744652 0.731036 0.607281 0.313301 0.607281C0.313301 0.607281 0.257067 0.607281 0.1446 0.607281C0.0482001 0.607281 0 0.607281 0 0.607281V0.390381H1.92801V1.97376ZM3.34991 13.99H3.42221C3.42221 14.366 3.57484 14.6914 3.88011 14.9661C4.18538 15.2264 4.54688 15.3565 4.96461 15.3565C4.96461 15.3565 5.01282 15.3565 5.10922 15.3565C5.20562 15.3565 5.25382 15.3565 5.25382 15.3565V15.5734H3.34991V13.99Z" fill="white"/><circle cx="39.1111" cy="0.888888" r="0.888888" fill="white"/><path opacity="0.5" d="M0.96 34V27.64H3.6C4.336 27.64 4.92 27.8 5.352 28.12C5.784 28.432 6 28.86 6 29.404C6 29.812 5.844 30.136 5.532 30.376C5.22 30.616 4.792 30.736 4.248 30.736V30.688C4.864 30.688 5.352 30.824 5.712 31.096C6.08 31.368 6.264 31.736 6.264 32.2C6.264 32.752 6.056 33.192 5.64 33.52C5.224 33.84 4.66 34 3.948 34H0.96ZM1.968 33.112H3.948C4.324 33.112 4.624 33.028 4.848 32.86C5.072 32.692 5.184 32.472 5.184 32.2C5.184 31.896 5.072 31.656 4.848 31.48C4.624 31.304 4.324 31.216 3.948 31.216H1.968V33.112ZM1.968 30.328H3.6C4 30.328 4.32 30.244 4.56 30.076C4.8 29.908 4.92 29.684 4.92 29.404C4.92 29.132 4.8 28.92 4.56 28.768C4.32 28.608 4 28.528 3.6 28.528H1.968V30.328ZM11.0616 35.8V27.64H11.9976L12.0216 29.008L11.8776 28.936C12.0376 28.464 12.3016 28.108 12.6696 27.868C13.0456 27.62 13.4776 27.496 13.9656 27.496C14.5976 27.496 15.1136 27.652 15.5136 27.964C15.9216 28.276 16.2216 28.684 16.4136 29.188C16.6136 29.692 16.7136 30.236 16.7136 30.82C16.7136 31.404 16.6136 31.948 16.4136 32.452C16.2216 32.956 15.9216 33.364 15.5136 33.676C15.1136 33.988 14.5976 34.144 13.9656 34.144C13.6376 34.144 13.3296 34.088 13.0416 33.976C12.7616 33.864 12.5216 33.708 12.3216 33.508C12.1296 33.308 11.9976 33.072 11.9256 32.8L12.0696 32.632V35.8H11.0616ZM13.8696 33.184C14.4216 33.184 14.8576 32.976 15.1776 32.56C15.4976 32.144 15.6576 31.564 15.6576 30.82C15.6576 30.076 15.4976 29.496 15.1776 29.08C14.8576 28.664 14.4216 28.456 13.8696 28.456C13.5016 28.456 13.1816 28.544 12.9096 28.72C12.6456 28.896 12.4376 29.16 12.2856 29.512C12.1416 29.864 12.0696 30.3 12.0696 30.82C12.0696 31.34 12.1416 31.776 12.2856 32.128C12.4296 32.48 12.6376 32.744 12.9096 32.92C13.1816 33.096 13.5016 33.184 13.8696 33.184ZM19.9612 34.144C19.3052 34.144 18.7812 33.992 18.3892 33.688C18.0052 33.384 17.8132 32.96 17.8132 32.416C17.8132 31.872 17.9732 31.444 18.2932 31.132C18.6132 30.82 19.1212 30.6 19.8172 30.472L22.0732 30.052C22.0732 29.516 21.9452 29.116 21.6892 28.852C21.4412 28.588 21.0652 28.456 20.5612 28.456C20.1212 28.456 19.7732 28.556 19.5172 28.756C19.2612 28.948 19.0852 29.228 18.9892 29.596L17.9212 29.512C18.0412 28.912 18.3292 28.428 18.7852 28.06C19.2492 27.684 19.8412 27.496 20.5612 27.496C21.3772 27.496 22.0012 27.728 22.4332 28.192C22.8652 28.648 23.0812 29.28 23.0812 30.088V32.716C23.0812 32.86 23.1052 32.964 23.1532 33.028C23.2092 33.084 23.2972 33.112 23.4172 33.112H23.6692V34C23.6372 34.008 23.5852 34.012 23.5132 34.012C23.4412 34.02 23.3652 34.024 23.2852 34.024C22.9972 34.024 22.7612 33.98 22.5772 33.892C22.4012 33.796 22.2732 33.652 22.1932 33.46C22.1132 33.26 22.0732 33 22.0732 32.68L22.1932 32.704C22.1372 32.976 22.0012 33.224 21.7852 33.448C21.5692 33.664 21.3012 33.836 20.9812 33.964C20.6612 34.084 20.3212 34.144 19.9612 34.144ZM20.0572 33.256C20.4812 33.256 20.8412 33.176 21.1372 33.016C21.4412 32.848 21.6732 32.624 21.8332 32.344C21.9932 32.056 22.0732 31.736 22.0732 31.384V30.928L20.0092 31.312C19.5772 31.392 19.2772 31.516 19.1092 31.684C18.9492 31.844 18.8692 32.056 18.8692 32.32C18.8692 32.616 18.9732 32.848 19.1812 33.016C19.3972 33.176 19.6892 33.256 20.0572 33.256ZM27.3882 34.192C27.0202 34.192 26.6522 34.12 26.2842 33.976C25.9162 33.832 25.5802 33.596 25.2762 33.268C24.9722 32.964 24.7442 32.548 24.5922 32.02C24.4402 31.492 24.3642 30.9 24.3642 30.244C24.3642 29.468 24.4362 28.824 24.5802 28.312C24.7242 27.8 24.9562 27.38 25.2762 27.052C25.6042 26.716 26.0322 26.436 26.5602 26.212C26.8322 26.092 27.0442 25.976 27.1962 25.864C27.3482 25.744 27.4562 25.608 27.5202 25.456C27.5842 25.296 27.6162 25.104 27.6162 24.88L28.6482 24.868C28.6482 25.332 28.5522 25.736 28.3602 26.08C28.1682 26.424 27.8242 26.712 27.3282 26.944C27.0562 27.072 26.8002 27.2 26.5602 27.328C26.3202 27.456 26.1082 27.62 25.9242 27.82C25.7482 28.012 25.6122 28.272 25.5162 28.6C25.4282 28.928 25.3922 29.36 25.4082 29.896L25.2042 29.872C25.3402 29.512 25.5202 29.208 25.7442 28.96C25.9762 28.712 26.2482 28.524 26.5602 28.396C26.8722 28.26 27.2082 28.192 27.5682 28.192C28.1362 28.192 28.6322 28.32 29.0562 28.576C29.4802 28.824 29.8082 29.172 30.0402 29.62C30.2802 30.068 30.4002 30.584 30.4002 31.168C30.4002 31.784 30.2722 32.32 30.0162 32.776C29.7602 33.232 29.4042 33.584 28.9482 33.832C28.5002 34.072 27.9802 34.192 27.3882 34.192ZM27.4122 33.232C27.7882 33.232 28.1202 33.144 28.4082 32.968C28.7042 32.792 28.9322 32.548 29.0922 32.236C29.2602 31.924 29.3442 31.568 29.3442 31.168C29.3442 30.776 29.2642 30.428 29.1042 30.124C28.9522 29.82 28.7362 29.584 28.4562 29.416C28.1762 29.24 27.8562 29.152 27.4962 29.152C27.1042 29.152 26.7562 29.24 26.4522 29.416C26.1482 29.584 25.9082 29.82 25.7322 30.124C25.5642 30.428 25.4762 30.776 25.4682 31.168C25.4602 31.568 25.5362 31.924 25.6962 32.236C25.8642 32.548 26.0962 32.792 26.3922 32.968C26.6882 33.144 27.0282 33.232 27.4122 33.232ZM34.2643 34.144C33.6803 34.144 33.1683 34.008 32.7283 33.736C32.2883 33.464 31.9483 33.08 31.7083 32.584C31.4683 32.08 31.3483 31.492 31.3483 30.82C31.3483 30.14 31.4683 29.552 31.7083 29.056C31.9483 28.56 32.2883 28.176 32.7283 27.904C33.1683 27.632 33.6803 27.496 34.2643 27.496C34.8483 27.496 35.3563 27.632 35.7883 27.904C36.2283 28.176 36.5683 28.56 36.8083 29.056C37.0483 29.552 37.1683 30.14 37.1683 30.82C37.1683 31.492 37.0483 32.08 36.8083 32.584C36.5683 33.08 36.2283 33.464 35.7883 33.736C35.3563 34.008 34.8483 34.144 34.2643 34.144ZM34.2643 33.184C34.8483 33.184 35.3003 32.976 35.6203 32.56C35.9483 32.136 36.1123 31.556 36.1123 30.82C36.1123 30.084 35.9483 29.508 35.6203 29.092C35.3003 28.668 34.8483 28.456 34.2643 28.456C33.6803 28.456 33.2243 28.668 32.8963 29.092C32.5683 29.508 32.4043 30.084 32.4043 30.82C32.4043 31.556 32.5683 32.136 32.8963 32.56C33.2243 32.976 33.6803 33.184 34.2643 33.184ZM40.1919 34V28.528H37.8999V27.64H43.5039V28.528H41.2119V34H40.1919ZM46.9909 34.144C46.3909 34.144 45.8709 34.008 45.4309 33.736C44.9989 33.464 44.6629 33.08 44.4229 32.584C44.1909 32.08 44.0749 31.492 44.0749 30.82C44.0749 30.148 44.1909 29.564 44.4229 29.068C44.6629 28.572 44.9949 28.188 45.4189 27.916C45.8509 27.636 46.3589 27.496 46.9429 27.496C47.4949 27.496 47.9829 27.628 48.4069 27.892C48.8309 28.148 49.1589 28.524 49.3909 29.02C49.6309 29.516 49.7509 30.12 49.7509 30.832V31.132H45.1309C45.1709 31.812 45.3509 32.324 45.6709 32.668C45.9989 33.012 46.4389 33.184 46.9909 33.184C47.4069 33.184 47.7469 33.088 48.0109 32.896C48.2829 32.696 48.4709 32.436 48.5749 32.116L49.6549 32.2C49.4869 32.768 49.1669 33.236 48.6949 33.604C48.2309 33.964 47.6629 34.144 46.9909 34.144ZM45.1309 30.244H48.6469C48.5989 29.628 48.4189 29.176 48.1069 28.888C47.8029 28.6 47.4149 28.456 46.9429 28.456C46.4549 28.456 46.0509 28.608 45.7309 28.912C45.4189 29.208 45.2189 29.652 45.1309 30.244ZM56.7174 34.144C56.1254 34.144 55.6094 34.008 55.1694 33.736C54.7374 33.464 54.4014 33.08 54.1614 32.584C53.9214 32.08 53.8014 31.492 53.8014 30.82C53.8014 30.148 53.9214 29.564 54.1614 29.068C54.4014 28.572 54.7374 28.188 55.1694 27.916C55.6094 27.636 56.1254 27.496 56.7174 27.496C57.2054 27.496 57.6374 27.584 58.0134 27.76C58.3974 27.928 58.7094 28.176 58.9494 28.504C59.1894 28.832 59.3454 29.232 59.4174 29.704L58.3614 29.776C58.2894 29.352 58.1054 29.028 57.8094 28.804C57.5134 28.572 57.1494 28.456 56.7174 28.456C56.1334 28.456 55.6774 28.668 55.3494 29.092C55.0214 29.508 54.8574 30.084 54.8574 30.82C54.8574 31.556 55.0214 32.136 55.3494 32.56C55.6774 32.976 56.1334 33.184 56.7174 33.184C57.1494 33.184 57.5134 33.064 57.8094 32.824C58.1054 32.584 58.2894 32.224 58.3614 31.744L59.4174 31.816C59.3454 32.288 59.1894 32.7 58.9494 33.052C58.7094 33.396 58.3974 33.664 58.0134 33.856C57.6374 34.048 57.2054 34.144 56.7174 34.144ZM63.5442 34C63.5442 33.4 63.6362 32.86 63.8202 32.38C64.0122 31.892 64.3442 31.428 64.8162 30.988C65.2962 30.548 65.9602 30.104 66.8082 29.656C67.2002 29.448 67.5162 29.256 67.7562 29.08C67.9962 28.904 68.1722 28.716 68.2842 28.516C68.3962 28.316 68.4522 28.072 68.4522 27.784C68.4522 27.488 68.3882 27.232 68.2602 27.016C68.1322 26.792 67.9402 26.616 67.6842 26.488C67.4362 26.36 67.1242 26.296 66.7482 26.296C66.1482 26.296 65.6722 26.452 65.3202 26.764C64.9762 27.076 64.7602 27.52 64.6722 28.096L63.5922 28.024C63.6882 27.192 64.0082 26.528 64.5522 26.032C65.0962 25.536 65.8282 25.288 66.7482 25.288C67.3322 25.288 67.8322 25.392 68.2482 25.6C68.6642 25.808 68.9802 26.1 69.1962 26.476C69.4202 26.844 69.5322 27.272 69.5322 27.76C69.5322 28.192 69.4602 28.568 69.3162 28.888C69.1722 29.2 68.9282 29.492 68.5842 29.764C68.2482 30.036 67.7842 30.328 67.1922 30.64C66.4242 31.048 65.8402 31.46 65.4402 31.876C65.0482 32.292 64.8402 32.664 64.8162 32.992H69.5322V34H63.5442ZM74.1087 34.192C73.4207 34.192 72.8247 34.012 72.3207 33.652C71.8167 33.292 71.4247 32.78 71.1447 32.116C70.8727 31.452 70.7367 30.664 70.7367 29.752C70.7367 28.84 70.8727 28.052 71.1447 27.388C71.4247 26.716 71.8167 26.2 72.3207 25.84C72.8247 25.472 73.4207 25.288 74.1087 25.288C74.8047 25.288 75.4047 25.472 75.9087 25.84C76.4127 26.2 76.8007 26.712 77.0727 27.376C77.3527 28.04 77.4927 28.832 77.4927 29.752C77.4927 30.664 77.3527 31.452 77.0727 32.116C76.8007 32.78 76.4127 33.292 75.9087 33.652C75.4047 34.012 74.8047 34.192 74.1087 34.192ZM74.1087 33.184C74.8447 33.184 75.4127 32.888 75.8127 32.296C76.2127 31.696 76.4127 30.848 76.4127 29.752C76.4127 29.016 76.3207 28.392 76.1367 27.88C75.9607 27.36 75.7007 26.968 75.3567 26.704C75.0207 26.432 74.6047 26.296 74.1087 26.296C73.6207 26.296 73.2047 26.432 72.8607 26.704C72.5247 26.968 72.2647 27.36 72.0807 27.88C71.9047 28.392 71.8167 29.016 71.8167 29.752C71.8167 30.848 72.0167 31.696 72.4167 32.296C72.8167 32.888 73.3807 33.184 74.1087 33.184ZM82.0658 34.192C81.3778 34.192 80.7818 34.012 80.2778 33.652C79.7738 33.292 79.3818 32.78 79.1018 32.116C78.8298 31.452 78.6938 30.664 78.6938 29.752C78.6938 28.84 78.8298 28.052 79.1018 27.388C79.3818 26.716 79.7738 26.2 80.2778 25.84C80.7818 25.472 81.3778 25.288 82.0658 25.288C82.7618 25.288 83.3618 25.472 83.8658 25.84C84.3698 26.2 84.7578 26.712 85.0298 27.376C85.3098 28.04 85.4498 28.832 85.4498 29.752C85.4498 30.664 85.3098 31.452 85.0298 32.116C84.7578 32.78 84.3698 33.292 83.8658 33.652C83.3618 34.012 82.7618 34.192 82.0658 34.192ZM82.0658 33.184C82.8018 33.184 83.3698 32.888 83.7698 32.296C84.1698 31.696 84.3698 30.848 84.3698 29.752C84.3698 29.016 84.2778 28.392 84.0938 27.88C83.9178 27.36 83.6578 26.968 83.3138 26.704C82.9778 26.432 82.5618 26.296 82.0658 26.296C81.5778 26.296 81.1618 26.432 80.8178 26.704C80.4818 26.968 80.2218 27.36 80.0378 27.88C79.8618 28.392 79.7738 29.016 79.7738 29.752C79.7738 30.848 79.9738 31.696 80.3738 32.296C80.7738 32.888 81.3378 33.184 82.0658 33.184ZM89.6748 34.192C89.0668 34.192 88.5228 34.096 88.0428 33.904C87.5708 33.712 87.1988 33.428 86.9268 33.052C86.6628 32.676 86.5308 32.212 86.5308 31.66C86.5308 31.044 86.7148 30.536 87.0828 30.136C87.4508 29.728 87.9388 29.452 88.5468 29.308L88.5708 29.548C88.0828 29.412 87.6868 29.192 87.3828 28.888C87.0868 28.576 86.9388 28.156 86.9388 27.628C86.9388 27.18 87.0508 26.78 87.2748 26.428C87.5068 26.076 87.8268 25.8 88.2348 25.6C88.6428 25.392 89.1228 25.288 89.6748 25.288C90.2268 25.288 90.7068 25.392 91.1148 25.6C91.5308 25.8 91.8508 26.076 92.0748 26.428C92.2988 26.78 92.4108 27.18 92.4108 27.628C92.4108 28.156 92.2628 28.576 91.9668 28.888C91.6708 29.192 91.2748 29.412 90.7788 29.548L90.8028 29.308C91.4188 29.452 91.9068 29.728 92.2668 30.136C92.6348 30.536 92.8188 31.044 92.8188 31.66C92.8188 32.212 92.6828 32.676 92.4108 33.052C92.1468 33.428 91.7788 33.712 91.3068 33.904C90.8348 34.096 90.2908 34.192 89.6748 34.192ZM89.6748 33.184C90.3068 33.184 90.8068 33.056 91.1748 32.8C91.5508 32.536 91.7388 32.136 91.7388 31.6C91.7388 31.104 91.5708 30.708 91.2348 30.412C90.9068 30.108 90.3868 29.956 89.6748 29.956C88.9708 29.956 88.4508 30.108 88.1148 30.412C87.7788 30.708 87.6108 31.104 87.6108 31.6C87.6108 32.136 87.7948 32.536 88.1628 32.8C88.5388 33.056 89.0428 33.184 89.6748 33.184ZM89.6748 28.996C90.2028 28.996 90.6108 28.884 90.8988 28.66C91.1868 28.428 91.3308 28.084 91.3308 27.628C91.3308 27.22 91.1908 26.896 90.9108 26.656C90.6308 26.416 90.2188 26.296 89.6748 26.296C89.1388 26.296 88.7268 26.416 88.4388 26.656C88.1588 26.896 88.0188 27.22 88.0188 27.628C88.0188 28.084 88.1628 28.428 88.4508 28.66C88.7388 28.884 89.1468 28.996 89.6748 28.996Z" fill="white"/></svg>