<svg width="98" height="46" viewBox="0 0 98 46" fill="none" xmlns="http://www.w3.org/2000/svg"><path d="M0 19.718V0H7.93533C9.30687 0 10.4914 0.240689 11.4889 0.722067C12.4864 1.20344 13.2612 1.88848 13.8134 2.77718C14.3655 3.66588 14.6416 4.71195 14.6416 5.91539C14.6416 6.8226 14.4546 7.62798 14.0805 8.33154C13.7065 9.03509 13.1988 9.59978 12.5576 10.0256C11.9342 10.4514 11.2395 10.7107 10.4736 10.8032L10.34 10.5255C11.569 10.5255 12.5131 10.8125 13.1721 11.3864C13.849 11.9604 14.2319 12.8398 14.321 14.0248L14.8019 19.718H11.2751L10.8743 14.5524C10.8209 13.7748 10.5804 13.2009 10.153 12.8306C9.72546 12.4603 9.01297 12.2751 8.01549 12.2751H3.47338V19.718H0ZM3.47338 9.10915H7.72159C8.77251 9.10915 9.59187 8.84994 10.1797 8.33154C10.7675 7.81313 11.0614 7.0818 11.0614 6.13756C11.0614 5.17481 10.7586 4.43423 10.153 3.91582C9.56515 3.39742 8.70126 3.13821 7.56128 3.13821H3.47338V9.10915Z" fill="#1C1C1D"/><path d="M23.4674 20.0512C22.0425 20.0512 20.8045 19.7365 19.7536 19.107C18.7027 18.459 17.8922 17.5518 17.3222 16.3854C16.7522 15.2189 16.4672 13.8581 16.4672 12.3029C16.4672 10.7477 16.7522 9.39612 17.3222 8.24822C17.8922 7.08181 18.6938 6.17459 19.7269 5.52658C20.7778 4.87858 21.9979 4.55457 23.3873 4.55457C24.741 4.55457 25.9255 4.86932 26.9408 5.49881C27.9739 6.12831 28.7666 7.03552 29.3187 8.22045C29.8709 9.40538 30.147 10.831 30.147 12.4973V13.3027H20.0208C20.092 14.5987 20.4305 15.58 21.0361 16.2465C21.6595 16.8945 22.4789 17.2185 23.4942 17.2185C24.2601 17.2185 24.8924 17.0426 25.3911 16.6908C25.9077 16.3206 26.2639 15.8114 26.4599 15.1634L29.96 15.3856C29.5681 16.8297 28.7933 17.9683 27.6355 18.8015C26.4955 19.6347 25.1062 20.0512 23.4674 20.0512ZM20.0208 10.9143H26.6202C26.5489 9.71087 26.2194 8.82217 25.6316 8.24822C25.0438 7.65576 24.2957 7.35952 23.3873 7.35952C22.4789 7.35952 21.7218 7.66501 21.1162 8.27599C20.5284 8.88697 20.1633 9.76641 20.0208 10.9143Z" fill="#1C1C1D"/><path d="M32.3794 19.718V4.88783H35.4788L35.5856 8.52594L35.265 8.35931C35.4253 7.56318 35.7014 6.8874 36.0933 6.33197C36.503 5.75802 36.9928 5.32293 37.5628 5.02669C38.1506 4.71195 38.7918 4.55457 39.4865 4.55457C40.6977 4.55457 41.6774 4.91561 42.4255 5.63767C43.1736 6.34122 43.6457 7.31324 43.8416 8.55371H43.3874C43.5477 7.68353 43.8238 6.96146 44.2156 6.38751C44.6075 5.79505 45.0974 5.34144 45.6852 5.02669C46.2908 4.71195 46.9676 4.55457 47.7158 4.55457C48.6954 4.55457 49.5415 4.77675 50.254 5.2211C50.9665 5.64693 51.5097 6.27642 51.8838 7.10958C52.2757 7.94273 52.4716 8.97029 52.4716 10.1922V19.718H49.0517V11.1087C49.0517 9.88676 48.8468 8.97029 48.4371 8.35931C48.0453 7.74833 47.4397 7.44284 46.6203 7.44284C46.0681 7.44284 45.5961 7.59095 45.2042 7.88719C44.8124 8.18342 44.5096 8.61851 44.2958 9.19246C44.0999 9.7479 44.0019 10.4237 44.0019 11.2198V19.718H40.8224V11.2198C40.8224 9.99784 40.6443 9.06286 40.2881 8.41485C39.9318 7.76684 39.3173 7.44284 38.4445 7.44284C37.8923 7.44284 37.4203 7.59095 37.0284 7.88719C36.6544 8.18342 36.3516 8.61851 36.12 9.19246C35.9063 9.7479 35.7994 10.4237 35.7994 11.2198V19.718H32.3794Z" fill="#1C1C1D"/><path d="M61.5934 20.0512C60.1684 20.0512 58.9305 19.7365 57.8796 19.107C56.8286 18.459 56.0182 17.5518 55.4482 16.3854C54.8782 15.2189 54.5932 13.8581 54.5932 12.3029C54.5932 10.7477 54.8782 9.39612 55.4482 8.24822C56.0182 7.08181 56.8197 6.17459 57.8528 5.52658C58.9038 4.87858 60.1239 4.55457 61.5132 4.55457C62.867 4.55457 64.0515 4.86932 65.0668 5.49881C66.0999 6.12831 66.8925 7.03552 67.4447 8.22045C67.9969 9.40538 68.273 10.831 68.273 12.4973V13.3027H58.1467C58.218 14.5987 58.5564 15.58 59.162 16.2465C59.7855 16.8945 60.6048 17.2185 61.6201 17.2185C62.386 17.2185 63.0184 17.0426 63.5171 16.6908C64.0337 16.3206 64.3899 15.8114 64.5858 15.1634L68.0859 15.3856C67.6941 16.8297 66.9192 17.9683 65.7615 18.8015C64.6215 19.6347 63.2321 20.0512 61.5934 20.0512ZM58.1467 10.9143H64.7462C64.6749 9.71087 64.3454 8.82217 63.7576 8.24822C63.1698 7.65576 62.4217 7.35952 61.5132 7.35952C60.6048 7.35952 59.8478 7.66501 59.2422 8.27599C58.6544 8.88697 58.2892 9.76641 58.1467 10.9143Z" fill="#1C1C1D"/><path d="M74.0558 19.718C73.0227 19.718 72.1944 19.4402 71.571 18.8848C70.9476 18.3294 70.6359 17.4407 70.6359 16.2187V0H74.0558V15.8577C74.0558 16.228 74.1449 16.5057 74.323 16.6908C74.5189 16.876 74.7861 16.9686 75.1245 16.9686H76.1666V19.718H74.0558Z" fill="#1C1C1D"/><path d="M81.286 19.718C80.2529 19.718 79.4247 19.4402 78.8012 18.8848C78.1778 18.3294 77.8661 17.4407 77.8661 16.2187V0H81.286V15.8577C81.286 16.228 81.3751 16.5057 81.5532 16.6908C81.7492 16.876 82.0163 16.9686 82.3548 16.9686H83.3968V19.718H81.286Z" fill="#1C1C1D"/><path d="M91.3204 20.0512C89.8955 20.0512 88.6575 19.7365 87.6066 19.107C86.5557 18.459 85.7452 17.5518 85.1752 16.3854C84.6052 15.2189 84.3202 13.8581 84.3202 12.3029C84.3202 10.7477 84.6052 9.39612 85.1752 8.24822C85.7452 7.08181 86.5468 6.17459 87.5799 5.52658C88.6308 4.87858 89.8509 4.55457 91.2403 4.55457C92.594 4.55457 93.7785 4.86932 94.7938 5.49881C95.8269 6.12831 96.6196 7.03552 97.1717 8.22045C97.7239 9.40538 98 10.831 98 12.4973V13.3027H87.8738C87.945 14.5987 88.2834 15.58 88.8891 16.2465C89.5125 16.8945 90.3318 17.2185 91.3471 17.2185C92.1131 17.2185 92.7454 17.0426 93.2441 16.6908C93.7607 16.3206 94.1169 15.8114 94.3129 15.1634L97.813 15.3856C97.4211 16.8297 96.6463 17.9683 95.4885 18.8015C94.3485 19.6347 92.9592 20.0512 91.3204 20.0512ZM87.8738 10.9143H94.4732C94.4019 9.71087 94.0724 8.82217 93.4846 8.24822C92.8968 7.65576 92.1487 7.35952 91.2403 7.35952C90.3318 7.35952 89.5748 7.66501 88.9692 8.27599C88.3814 8.88697 88.0163 9.76641 87.8738 10.9143Z" fill="#1C1C1D"/><g opacity="0.5"><path d="M3.69854 45.9363C2.92154 45.9363 2.26368 45.8145 1.72495 45.5707C1.19659 45.327 0.787365 44.9932 0.497283 44.5693C0.207201 44.1348 0.0414403 43.6367 0 43.0751L1.69387 42.9956C1.77675 43.4619 1.97359 43.8328 2.2844 44.1083C2.5952 44.3838 3.06658 44.5216 3.69854 44.5216C4.21655 44.5216 4.62577 44.4368 4.92621 44.2673C5.22666 44.0977 5.37688 43.8275 5.37688 43.4566C5.37688 43.2552 5.32508 43.0856 5.22148 42.9479C5.12823 42.7995 4.94175 42.6777 4.66203 42.5823C4.38231 42.4763 3.96791 42.3756 3.41882 42.2803C2.60038 42.1213 1.95805 41.9358 1.49185 41.7239C1.02565 41.5119 0.694125 41.2417 0.497283 40.9132C0.300442 40.5847 0.202021 40.1873 0.202021 39.721C0.202021 38.9474 0.481743 38.3168 1.04119 37.8294C1.61099 37.3419 2.42944 37.0982 3.49652 37.0982C4.21137 37.0982 4.81225 37.2253 5.29918 37.4797C5.7861 37.7234 6.16424 38.0572 6.4336 38.4811C6.71333 38.8944 6.88945 39.3607 6.96197 39.88L5.2681 39.9753C5.2163 39.6786 5.11269 39.4243 4.95729 39.2123C4.81225 38.9898 4.61541 38.8202 4.36677 38.7036C4.11813 38.5765 3.82287 38.5129 3.48098 38.5129C2.95262 38.5129 2.55894 38.6189 2.29994 38.8308C2.04093 39.0428 1.91143 39.3183 1.91143 39.6574C1.91143 39.9117 1.96841 40.1184 2.08237 40.2774C2.20669 40.4363 2.40354 40.5688 2.6729 40.6748C2.94226 40.7701 3.29968 40.8549 3.74517 40.9291C4.60505 41.0775 5.27846 41.2629 5.76538 41.4855C6.2523 41.6974 6.59418 41.9623 6.79103 42.2803C6.98787 42.5982 7.08629 42.985 7.08629 43.4407C7.08629 43.9705 6.94125 44.4209 6.65116 44.7918C6.36108 45.1627 5.96222 45.4489 5.45458 45.6502C4.94693 45.841 4.36159 45.9363 3.69854 45.9363Z" fill="#1C1C1D"/><path d="M8.75333 45.7456V37.2889H10.4006V45.7456H8.75333ZM8.72225 36.0649V34.3799H10.4317V36.0649H8.72225Z" fill="#1C1C1D"/><path d="M12.866 45.7456V37.2889H14.3734L14.4355 39.5461L14.2335 39.4349C14.3268 38.8838 14.5029 38.4387 14.7619 38.0996C15.0209 37.7605 15.3369 37.5114 15.7098 37.3525C16.0828 37.1829 16.4868 37.0982 16.922 37.0982C17.5436 37.0982 18.0564 37.2412 18.4604 37.5273C18.8748 37.8029 19.1856 38.1844 19.3928 38.6719C19.6104 39.1487 19.7192 39.6945 19.7192 40.3091V45.7456H18.0719V40.8178C18.0719 40.3197 18.0201 39.9011 17.9165 39.562C17.8129 39.2229 17.642 38.9633 17.4037 38.7831C17.1654 38.603 16.8546 38.5129 16.4713 38.5129C15.8911 38.5129 15.4197 38.7089 15.0571 39.101C14.6945 39.4932 14.5132 40.0654 14.5132 40.8178V45.7456H12.866Z" fill="#1C1C1D"/><path d="M25.2686 45.9363C24.4812 45.9363 23.7923 45.7562 23.2017 45.3959C22.6112 45.0356 22.1554 44.5216 21.8342 43.854C21.513 43.1863 21.3525 42.4074 21.3525 41.5172C21.3525 40.6271 21.513 39.8535 21.8342 39.1964C22.1554 38.5288 22.6112 38.0148 23.2017 37.6545C23.7923 37.2836 24.4812 37.0982 25.2686 37.0982C25.942 37.0982 26.5377 37.22 27.0557 37.4638C27.584 37.6969 28.0088 38.0413 28.33 38.497C28.6615 38.9527 28.8739 39.509 28.9671 40.1661L27.2422 40.2615C27.1593 39.7104 26.9417 39.2918 26.5895 39.0057C26.2372 38.7089 25.7969 38.5606 25.2686 38.5606C24.5744 38.5606 24.0305 38.8255 23.6369 39.3554C23.2535 39.8747 23.0619 40.5953 23.0619 41.5172C23.0619 42.4392 23.2535 43.1651 23.6369 43.695C24.0305 44.2143 24.5744 44.4739 25.2686 44.4739C25.7969 44.4739 26.2372 44.3255 26.5895 44.0288C26.9417 43.7215 27.1593 43.2605 27.2422 42.6459L28.9671 42.7412C28.8739 43.3877 28.6615 43.9493 28.33 44.4262C28.0088 44.9031 27.584 45.274 27.0557 45.5389C26.5377 45.8039 25.942 45.9363 25.2686 45.9363Z" fill="#1C1C1D"/><path d="M33.8733 45.9363C33.0652 45.9363 32.3659 45.7562 31.7754 45.3959C31.1952 45.0356 30.7446 44.5216 30.4234 43.854C30.1126 43.1863 29.9572 42.4074 29.9572 41.5172C29.9572 40.6271 30.1126 39.8535 30.4234 39.1964C30.7446 38.5288 31.1952 38.0148 31.7754 37.6545C32.3555 37.2836 33.0393 37.0982 33.8267 37.0982C34.5726 37.0982 35.2305 37.2783 35.8003 37.6386C36.3701 37.9883 36.8104 38.497 37.1212 39.1646C37.4423 39.8323 37.6029 40.6377 37.6029 41.5808V42.01H31.6666C31.708 42.8366 31.9204 43.4566 32.3037 43.8699C32.6974 44.2831 33.2258 44.4898 33.8888 44.4898C34.3758 44.4898 34.7798 44.3732 35.101 44.1401C35.4221 43.9069 35.6449 43.5943 35.7692 43.2022L37.4786 43.3135C37.261 44.0977 36.8311 44.7335 36.1888 45.221C35.5568 45.6979 34.785 45.9363 33.8733 45.9363ZM31.6666 40.7383H35.8624C35.8106 39.9859 35.5983 39.4296 35.2253 39.0693C34.8627 38.7089 34.3965 38.5288 33.8267 38.5288C33.2362 38.5288 32.7492 38.7195 32.3659 39.101C31.9929 39.472 31.7598 40.0177 31.6666 40.7383Z" fill="#1C1C1D"/><path d="M42.9539 45.7456C42.9539 44.8978 43.0783 44.1401 43.3269 43.4725C43.5755 42.8048 44.0003 42.1849 44.6012 41.6126C45.2021 41.0404 46.0309 40.4681 47.0876 39.8958C47.5952 39.6309 47.9993 39.3872 48.2997 39.1646C48.6105 38.9315 48.8333 38.6931 48.968 38.4493C49.1026 38.2056 49.17 37.9088 49.17 37.5591C49.17 37.1988 49.0923 36.8915 48.9369 36.6372C48.7918 36.3722 48.5743 36.1656 48.2842 36.0172C47.9941 35.8583 47.6263 35.7788 47.1808 35.7788C46.4764 35.7788 45.9169 35.9748 45.5025 36.3669C45.0985 36.7484 44.8447 37.2995 44.7411 38.0201L43.0006 37.9088C43.1249 36.7749 43.5445 35.8742 44.2593 35.2065C44.9845 34.5389 45.9584 34.2051 47.1808 34.2051C47.9682 34.2051 48.6364 34.3481 49.1855 34.6343C49.745 34.9098 50.1697 35.2966 50.4598 35.7947C50.7603 36.2928 50.9105 36.8703 50.9105 37.5273C50.9105 38.0996 50.8172 38.5924 50.6308 39.0057C50.4443 39.419 50.1335 39.8058 49.6983 40.1661C49.2632 40.5158 48.6727 40.892 47.9268 41.2947C46.9736 41.814 46.2536 42.3279 45.7667 42.8366C45.2798 43.3347 45.0208 43.7798 44.9897 44.1719H50.9105V45.7456H42.9539Z" fill="#1C1C1D"/><path d="M56.8956 45.9999C55.9839 45.9999 55.1914 45.7615 54.518 45.2846C53.8446 44.8077 53.3266 44.1295 52.964 43.2499C52.6014 42.3703 52.42 41.3265 52.42 40.1184C52.42 38.9103 52.6014 37.8665 52.964 36.9869C53.3369 36.0967 53.8549 35.4132 54.518 34.9363C55.1914 34.4488 55.9839 34.2051 56.8956 34.2051C57.8176 34.2051 58.6102 34.4488 59.2732 34.9363C59.9466 35.4132 60.4646 36.0914 60.8272 36.971C61.2002 37.8506 61.3867 38.8997 61.3867 40.1184C61.3867 41.3265 61.2054 42.3703 60.8428 43.2499C60.4802 44.1295 59.9622 44.8077 59.2888 45.2846C58.6154 45.7615 57.8176 45.9999 56.8956 45.9999ZM56.8956 44.4262C57.7762 44.4262 58.4548 44.0553 58.9314 43.3135C59.4079 42.5717 59.6462 41.5066 59.6462 40.1184C59.6462 39.1858 59.5374 38.3963 59.3199 37.7499C59.1127 37.1035 58.8019 36.616 58.3875 36.2875C57.9834 35.9483 57.4861 35.7788 56.8956 35.7788C56.3154 35.7788 55.8182 35.9483 55.4037 36.2875C54.9997 36.616 54.6889 37.1035 54.4713 37.7499C54.2641 38.3963 54.1605 39.1858 54.1605 40.1184C54.1605 41.5066 54.3988 42.5717 54.8754 43.3135C55.3519 44.0553 56.0254 44.4262 56.8956 44.4262Z" fill="#1C1C1D"/><path d="M67.3821 45.9999C66.4705 45.9999 65.6779 45.7615 65.0045 45.2846C64.3311 44.8077 63.8131 44.1295 63.4505 43.2499C63.0879 42.3703 62.9066 41.3265 62.9066 40.1184C62.9066 38.9103 63.0879 37.8665 63.4505 36.9869C63.8235 36.0967 64.3415 35.4132 65.0045 34.9363C65.6779 34.4488 66.4705 34.2051 67.3821 34.2051C68.3042 34.2051 69.0967 34.4488 69.7598 34.9363C70.4332 35.4132 70.9512 36.0914 71.3138 36.971C71.6867 37.8506 71.8732 38.8997 71.8732 40.1184C71.8732 41.3265 71.6919 42.3703 71.3293 43.2499C70.9667 44.1295 70.4487 44.8077 69.7753 45.2846C69.1019 45.7615 68.3042 45.9999 67.3821 45.9999ZM67.3821 44.4262C68.2627 44.4262 68.9413 44.0553 69.4179 43.3135C69.8944 42.5717 70.1327 41.5066 70.1327 40.1184C70.1327 39.1858 70.0239 38.3963 69.8064 37.7499C69.5992 37.1035 69.2884 36.616 68.874 36.2875C68.4699 35.9483 67.9727 35.7788 67.3821 35.7788C66.802 35.7788 66.3047 35.9483 65.8903 36.2875C65.4862 36.616 65.1754 37.1035 64.9579 37.7499C64.7507 38.3963 64.6471 39.1858 64.6471 40.1184C64.6471 41.5066 64.8854 42.5717 65.3619 43.3135C65.8385 44.0553 66.5119 44.4262 67.3821 44.4262Z" fill="#1C1C1D"/><path d="M75.5687 45.7456V37.7022H73.2377V36.3192H74.1857C74.6001 36.3192 74.9368 36.2663 75.1958 36.1603C75.4548 36.0437 75.6413 35.853 75.7552 35.588C75.8692 35.3125 75.9262 34.9363 75.9262 34.4594H77.2471V45.7456H75.5687Z" fill="#1C1C1D"/></g></svg>