<svg width="1440" height="241" viewBox="0 0 1440 241" fill="none" xmlns="http://www.w3.org/2000/svg"><path d="M-11 241V-1H90.0007C107.458 -1 122.534 1.95399 135.23 7.86198C147.926 13.77 157.788 22.1775 164.816 33.0845C171.844 43.9916 175.358 56.8301 175.358 71.6C175.358 82.7343 172.978 92.6188 168.217 101.254C163.456 109.888 156.994 116.819 148.833 122.045C140.898 127.271 132.056 130.453 122.307 131.589L120.607 128.18C136.25 128.18 148.266 131.702 156.654 138.746C165.269 145.791 170.144 156.584 171.277 171.127L177.399 241H132.509L127.408 177.603C126.728 168.059 123.668 161.015 118.226 156.47C112.785 151.926 103.717 149.654 91.0209 149.654H33.209V241H-11ZM33.209 110.797H87.2801C100.656 110.797 111.085 107.616 118.567 101.254C126.048 94.8911 129.789 85.9155 129.789 74.3268C129.789 62.5108 125.935 53.4216 118.226 47.0592C110.745 40.6967 99.7493 37.5155 85.2397 37.5155H33.209V110.797Z" fill="#1C1C1D"/><path d="M217.851 241V-1H380.404V37.5155H262.06V100.572H376.323V138.746H262.06V202.485H383.125V241H217.851Z" fill="#1C1C1D"/><path d="M419.802 241V-1H479.314L545.968 186.465L612.621 -1H672.133V241H627.924V73.9859L567.052 240.659H524.883L464.011 73.9859V241H419.802Z" fill="#1C1C1D"/><path d="M715.737 241V-1H878.29V37.5155H759.946V100.572H874.209V138.746H759.946V202.485H881.01V241H715.737Z" fill="#1C1C1D"/><path d="M919.348 241V-1H963.557V227.366L939.412 202.485H1078.16V241H919.348Z" fill="#1C1C1D"/><path d="M1104.03 241V-1H1148.24V227.366L1124.09 202.485H1262.84V241H1104.03Z" fill="#1C1C1D"/><path d="M1284.73 241V-1H1447.28V37.5155H1328.94V100.572H1443.2V138.746H1328.94V202.485H1450V241H1284.73Z" fill="#1C1C1D"/></svg>