<svg width="28" height="23" viewBox="0 0 28 23" fill="none" xmlns="http://www.w3.org/2000/svg"><path fill-rule="evenodd" clip-rule="evenodd" d="M9.33333 21.3212C9.33333 20.7111 9.85567 20.2165 10.5 20.2165H26.8333C27.4777 20.2165 28 20.7111 28 21.3212C28 21.9314 27.4777 22.426 26.8333 22.426H10.5C9.85567 22.426 9.33333 21.9314 9.33333 21.3212Z" fill="white"/><path fill-rule="evenodd" clip-rule="evenodd" d="M0 14.6928C0 14.0826 0.522334 13.588 1.16667 13.588H26.8333C27.4777 13.588 28 14.0826 28 14.6928C28 15.3029 27.4777 15.7975 26.8333 15.7975H1.16667C0.522334 15.7975 0 15.3029 0 14.6928Z" fill="white"/><path fill-rule="evenodd" clip-rule="evenodd" d="M0 8.06428C0 7.45415 0.522334 6.95953 1.16667 6.95953H26.8333C27.4777 6.95953 28 7.45415 28 8.06428C28 8.67442 27.4777 9.16903 26.8333 9.16903H1.16667C0.522334 9.16903 0 8.67442 0 8.06428Z" fill="white"/><path fill-rule="evenodd" clip-rule="evenodd" d="M0 1.4358C0 0.825667 0.522334 0.331055 1.16667 0.331055H26.8333C27.4777 0.331055 28 0.825667 28 1.4358C28 2.04594 27.4777 2.54055 26.8333 2.54055H1.16667C0.522334 2.54055 0 2.04594 0 1.4358Z" fill="white"/></svg>