<svg width="27" height="28" viewBox="0 0 27 28" fill="none" xmlns="http://www.w3.org/2000/svg"><g clip-path="url(#clip0_3_1876)"><path d="M25.3125 6.0639V9.62515H1.6875V6.0639C1.69613 5.37609 1.96747 4.71991 2.44199 4.2393C2.91652 3.75868 3.55549 3.49286 4.21875 3.50015H5.90625V5.25015C5.90625 5.94634 6.17293 6.61402 6.64764 7.1063C7.12234 7.59858 7.76617 7.87515 8.4375 7.87515C9.10883 7.87515 9.75266 7.59858 10.2274 7.1063C10.7021 6.61402 10.9688 5.94634 10.9688 5.25015V3.50015H16.0312V5.25015C16.0312 5.94634 16.2979 6.61402 16.7726 7.1063C17.2473 7.59858 17.8912 7.87515 18.5625 7.87515C19.2338 7.87515 19.8777 7.59858 20.3524 7.1063C20.8271 6.61402 21.0938 5.94634 21.0938 5.25015V3.50015H22.7812C23.4445 3.49286 24.0835 3.75868 24.558 4.2393C25.0325 4.71991 25.3039 5.37609 25.3125 6.0639Z" fill="black"/><path d="M1.6875 11.375V25.4362C1.69613 26.1241 1.96747 26.7802 2.44199 27.2609C2.91652 27.7415 3.55549 28.0073 4.21875 28H22.7812C23.4445 28.0073 24.0835 27.7415 24.558 27.2609C25.0325 26.7802 25.3039 26.1241 25.3125 25.4362V11.375H1.6875ZM9.28125 23.625C9.2806 23.8569 9.1915 24.079 9.03341 24.243C8.87531 24.4069 8.66108 24.4993 8.4375 24.5H6.75C6.52642 24.4993 6.31219 24.4069 6.15409 24.243C5.996 24.079 5.9069 23.8569 5.90625 23.625V21.875C5.9069 21.6431 5.996 21.421 6.15409 21.257C6.31219 21.0931 6.52642 21.0007 6.75 21H8.4375C8.66108 21.0007 8.87531 21.0931 9.03341 21.257C9.1915 21.421 9.2806 21.6431 9.28125 21.875V23.625ZM9.28125 17.5C9.2806 17.7319 9.1915 17.954 9.03341 18.118C8.87531 18.2819 8.66108 18.3743 8.4375 18.375H6.75C6.52642 18.3743 6.31219 18.2819 6.15409 18.118C5.996 17.954 5.9069 17.7319 5.90625 17.5V15.75C5.9069 15.5181 5.996 15.296 6.15409 15.132C6.31219 14.9681 6.52642 14.8757 6.75 14.875H8.4375C8.66108 14.8757 8.87531 14.9681 9.03341 15.132C9.1915 15.296 9.2806 15.5181 9.28125 15.75V17.5ZM15.1875 23.625C15.1869 23.8569 15.0978 24.079 14.9397 24.243C14.7816 24.4069 14.5673 24.4993 14.3438 24.5H12.6562C12.4327 24.4993 12.2184 24.4069 12.0603 24.243C11.9022 24.079 11.8131 23.8569 11.8125 23.625V21.875C11.8131 21.6431 11.9022 21.421 12.0603 21.257C12.2184 21.0931 12.4327 21.0007 12.6562 21H14.3438C14.5673 21.0007 14.7816 21.0931 14.9397 21.257C15.0978 21.421 15.1869 21.6431 15.1875 21.875V23.625ZM15.1875 17.5C15.1869 17.7319 15.0978 17.954 14.9397 18.118C14.7816 18.2819 14.5673 18.3743 14.3438 18.375H12.6562C12.4327 18.3743 12.2184 18.2819 12.0603 18.118C11.9022 17.954 11.8131 17.7319 11.8125 17.5V15.75C11.8131 15.5181 11.9022 15.296 12.0603 15.132C12.2184 14.9681 12.4327 14.8757 12.6562 14.875H14.3438C14.5673 14.8757 14.7816 14.9681 14.9397 15.132C15.0978 15.296 15.1869 15.5181 15.1875 15.75V17.5ZM21.0938 17.5C21.0931 17.7319 21.004 17.954 20.8459 18.118C20.6878 18.2819 20.4736 18.3743 20.25 18.375H18.5625C18.3389 18.3743 18.1247 18.2819 17.9666 18.118C17.8085 17.954 17.7194 17.7319 17.7188 17.5V15.75C17.7194 15.5181 17.8085 15.296 17.9666 15.132C18.1247 14.9681 18.3389 14.8757 18.5625 14.875H20.25C20.4736 14.8757 20.6878 14.9681 20.8459 15.132C21.004 15.296 21.0931 15.5181 21.0938 15.75V17.5Z" fill="black"/><path d="M9.28125 3.5V5.25C9.28125 5.48206 9.19236 5.70462 9.03412 5.86872C8.87589 6.03281 8.66128 6.125 8.4375 6.125C8.21372 6.125 7.99911 6.03281 7.84088 5.86872C7.68265 5.70462 7.59375 5.48206 7.59375 5.25V3.5C7.59375 3.26794 7.68265 3.04538 7.84088 2.88128C7.99911 2.71719 8.21372 2.625 8.4375 2.625C8.66128 2.625 8.87589 2.71719 9.03412 2.88128C9.19236 3.04538 9.28125 3.26794 9.28125 3.5Z" fill="black"/><path d="M19.4062 3.5V5.25C19.4062 5.48206 19.3174 5.70462 19.1591 5.86872C19.0009 6.03281 18.7863 6.125 18.5625 6.125C18.3387 6.125 18.1241 6.03281 17.9659 5.86872C17.8076 5.70462 17.7188 5.48206 17.7188 5.25V3.5C17.7188 3.26794 17.8076 3.04538 17.9659 2.88128C18.1241 2.71719 18.3387 2.625 18.5625 2.625C18.7863 2.625 19.0009 2.71719 19.1591 2.88128C19.3174 3.04538 19.4062 3.26794 19.4062 3.5Z" fill="black"/></g><defs><clipPath id="clip0_3_1876"><rect width="27" height="28" fill="white"/></clipPath></defs></svg>