<svg width="30" height="30" viewBox="0 0 30 30" fill="none" xmlns="http://www.w3.org/2000/svg"><g clip-path="url(#clip0_3_1882)"><path d="M20.5859 9.00352V3.82072C20.5859 1.7141 18.8718 0 16.7649 0H3.8205C1.71387 0 0 1.7141 0 3.82072V12.4759C0 14.2804 1.25725 15.7965 2.94159 16.1948V18.3598C2.94159 18.7152 3.15582 19.0356 3.48427 19.1718C3.59299 19.2169 3.7072 19.2387 3.8205 19.2387C4.04915 19.2387 4.27391 19.1494 4.44214 18.9812L7.12646 16.2968H7.65656V14.5821C7.65656 11.5059 10.1589 9.00352 13.2349 9.00352H20.5859Z" fill="black"/><path d="M26.1792 10.7612H13.2348C11.1282 10.7612 9.41431 12.4751 9.41431 14.582V23.2371C9.41431 25.344 11.1282 27.0578 13.2348 27.0578H22.8732L25.5576 29.7424C25.7258 29.9106 25.9506 29.9999 26.1794 29.9999C26.2925 29.9999 26.4067 29.9781 26.5154 29.9331C26.8439 29.7969 27.0581 29.4764 27.0581 29.121V26.956C28.7427 26.558 29.9999 25.0416 29.9999 23.2371V14.582C29.9999 12.4751 28.2858 10.7612 26.1792 10.7612ZM23.4489 17.4508L19.2883 21.6114C19.1166 21.783 18.8916 21.8686 18.6669 21.8686C18.4419 21.8686 18.2169 21.783 18.0454 21.6114L15.9649 19.5311C15.6216 19.188 15.6216 18.6313 15.9649 18.288C16.308 17.9449 16.8646 17.9449 17.2077 18.288L18.6669 19.7469L22.2058 16.2077C22.5491 15.8646 23.1056 15.8646 23.4489 16.2077C23.7922 16.551 23.7922 17.1077 23.4489 17.4508Z" fill="black"/></g><defs><clipPath id="clip0_3_1882"><rect width="30" height="30" fill="white"/></clipPath></defs></svg>