<svg width="163" height="163" viewBox="0 0 163 163" fill="none" xmlns="http://www.w3.org/2000/svg"><path d="M73.574 151.291L69.9808 151.521L69.9138 150.478L78.1441 149.949L78.2111 150.993L74.6179 151.224L75.1307 159.213L74.0868 159.28L73.574 151.291Z" fill="#A5A5A5"/><path d="M63.435 159.415C62.043 159.329 60.9328 158.816 60.1044 157.878C59.2759 156.94 58.9041 155.788 58.989 154.423C59.0739 153.058 59.5854 151.961 60.5237 151.132C61.4619 150.304 62.6271 149.933 64.019 150.02C65.411 150.106 66.5212 150.619 67.3496 151.557C68.1781 152.495 68.5499 153.647 68.465 155.012C68.3802 156.377 67.8686 157.474 66.9303 158.302C65.9921 159.131 64.827 159.502 63.435 159.415ZM63.4962 158.432C64.5803 158.499 65.4715 158.212 66.1697 157.57C66.8956 156.916 67.2926 156.041 67.3608 154.943C67.4282 153.859 67.1422 152.948 66.5029 152.21C65.8636 151.471 65.0152 151.069 63.9579 151.003C62.9139 150.938 62.0223 151.232 61.2831 151.885C60.5572 152.539 60.1606 153.407 60.0932 154.492C60.0258 155.576 60.3118 156.487 60.9511 157.225C61.5905 157.964 62.4388 158.366 63.4962 158.432Z" fill="#A5A5A5"/><path d="M83.8191 162.328L82.7924 162.528L80.2924 149.694L81.3191 149.494L81.5499 150.679C81.8284 150.215 82.2394 149.8 82.783 149.435C83.3372 149.053 83.9236 148.802 84.5422 148.682C85.8059 148.436 86.8936 148.654 87.8054 149.337C88.7172 150.02 89.3026 151.027 89.5616 152.356C89.8308 153.738 89.6314 154.959 88.9633 156.018C88.2821 157.08 87.2702 157.741 85.9276 158.003C84.7298 158.236 83.7334 158.171 82.9384 157.806L83.8191 162.328ZM84.4543 149.703C83.8751 149.816 83.3348 150.058 82.8332 150.429C82.3449 150.797 81.9812 151.21 81.7422 151.666L82.7384 156.78C83.6596 157.161 84.6335 157.251 85.6602 157.051C86.7132 156.846 87.5008 156.33 88.0231 155.504C88.5453 154.679 88.7 153.719 88.4872 152.627C88.2744 151.534 87.809 150.723 87.091 150.194C86.373 149.664 85.4941 149.501 84.4543 149.703Z" fill="#A5A5A5"/><path d="M42.0913 153.047L42.2021 153.976C41.5764 154.249 40.8439 154.372 40.0045 154.346C39.1825 154.311 38.372 154.138 37.573 153.824C35.6255 153.06 34.2799 151.827 33.5362 150.124C32.8002 148.438 32.8336 146.571 33.6366 144.524C34.3955 142.589 35.609 141.221 37.277 140.42C38.9548 139.594 40.7613 139.561 42.6964 140.32C44.3568 140.971 45.5185 141.902 46.1816 143.113L45.3936 143.69C44.7765 142.655 43.7564 141.859 42.3332 141.301C40.7352 140.674 39.2301 140.711 37.8179 141.41C36.4154 142.084 35.3837 143.264 34.7227 144.95C34.052 146.66 34.0204 148.246 34.6279 149.709C35.2354 151.172 36.3694 152.229 38.0298 152.88C39.4031 153.418 40.7569 153.474 42.0913 153.047Z" fill="#A5A5A5"/><path d="M46.9074 156.68L45.8842 156.463L47.7632 147.608L48.7274 147.813L51.3589 153.532L55.9488 149.345L56.8736 149.541L54.9947 158.396L53.9715 158.179L55.5205 150.878L51.0624 154.929L51.0034 154.917L48.4565 149.38L46.9074 156.68Z" fill="#A5A5A5"/><path d="M100.402 151.801L100.982 152.455C100.479 153.529 99.5599 154.29 98.2248 154.737C96.8516 155.197 95.6154 155.159 94.5162 154.622C93.4043 154.09 92.6225 153.15 92.1708 151.802C91.7361 150.505 91.7596 149.309 92.2413 148.214C92.7356 147.115 93.6631 146.337 95.0236 145.881C96.1298 145.511 97.1773 145.556 98.1661 146.016C99.1379 146.468 99.8199 147.279 100.212 148.449C100.314 148.754 100.385 149.028 100.423 149.269L93.3473 151.641C93.7306 152.658 94.3403 153.359 95.1763 153.743C96.0081 154.115 96.9389 154.129 97.9689 153.783C99.1641 153.383 99.9751 152.722 100.402 151.801ZM95.2414 146.848C94.3259 147.155 93.6716 147.671 93.2784 148.397C92.8979 149.118 92.8102 149.933 93.0152 150.84L99.1947 148.769C98.8794 147.87 98.3674 147.25 97.6587 146.908C96.9499 146.565 96.1442 146.545 95.2414 146.848Z" fill="#A5A5A5"/><path d="M103.484 143.809L100.232 145.354L99.783 144.409L107.233 140.871L107.681 141.816L104.429 143.36L107.863 150.592L106.919 151.041L103.484 143.809Z" fill="#A5A5A5"/><path d="M116.138 146.074L113.884 147.477L109.101 139.792L109.989 139.239L111.594 141.818L113.079 140.893C115.106 139.632 116.643 139.844 117.692 141.529C118.188 142.326 118.32 143.121 118.086 143.913C117.858 144.688 117.208 145.408 116.138 146.074ZM113.446 141.826L112.114 142.655L114.251 146.087L115.566 145.269C116.363 144.773 116.849 144.273 117.025 143.768C117.212 143.257 117.125 142.711 116.764 142.13C116.055 140.992 114.949 140.89 113.446 141.826Z" fill="#A5A5A5"/><path d="M127.274 138.046L121.132 131.397C121.457 131.097 121.768 130.8 122.064 130.509C122.676 129.906 123.066 129.528 123.233 129.373C125.066 127.681 126.509 127.406 127.565 128.548C127.92 128.933 128.106 129.381 128.124 129.894C128.142 130.389 127.976 130.861 127.626 131.312L127.654 131.342C128.863 130.517 129.886 130.557 130.724 131.463C131.879 132.714 131.467 134.254 129.487 136.083C129.359 136.202 128.961 136.551 128.293 137.132C127.959 137.423 127.619 137.727 127.274 138.046ZM126.813 132.803L125.217 134.277L127.387 136.627C128.174 135.937 128.681 135.487 128.907 135.278C130.286 134.004 130.598 132.958 129.843 132.14C129.133 131.372 128.123 131.593 126.813 132.803ZM123.991 130.015C123.666 130.316 123.187 130.776 122.556 131.396L124.63 133.642L126.388 132.018C126.871 131.572 127.155 131.118 127.24 130.656C127.315 130.185 127.189 129.772 126.862 129.417C126.179 128.679 125.222 128.878 123.991 130.015Z" fill="#A5A5A5"/><path d="M134.145 119.87L136.131 129.323L135.466 130.131L128.479 124.376L129.144 123.569L134.966 128.364L132.981 118.911L133.646 118.103L140.632 123.858L139.967 124.665L134.145 119.87Z" fill="#A5A5A5"/><path d="M144.927 121.789L144.408 122.627L141.621 120.899L142.215 119.941C142.022 119.412 141.575 118.772 140.873 118.021C140.178 117.259 139.322 116.515 138.304 115.789L136.207 114.323L139.249 109.417L146.105 113.667L146.9 112.385L149.686 114.113L149.167 114.95L147.218 113.742L142.978 120.58L144.927 121.789ZM137.564 114.005L139.176 115.146C140.168 115.888 140.981 116.613 141.615 117.321C142.233 118.004 142.627 118.564 142.798 119.001L145.553 114.556L139.536 110.825L137.564 114.005Z" fill="#A5A5A5"/><path d="M150.3 102.848L151.174 102.867C151.62 103.966 151.553 105.157 150.974 106.44C150.378 107.76 149.51 108.641 148.369 109.082C147.223 109.536 146.002 109.471 144.706 108.886C143.459 108.324 142.598 107.494 142.122 106.396C141.652 105.286 141.712 104.078 142.302 102.77C142.782 101.706 143.527 100.969 144.537 100.556C145.529 100.151 146.587 100.202 147.712 100.709C148.005 100.841 148.254 100.975 148.457 101.111L145.388 107.914C146.394 108.324 147.323 108.353 148.173 108.001C149.011 107.643 149.653 106.97 150.1 105.98C150.619 104.831 150.685 103.787 150.3 102.848ZM143.159 103.267C142.762 104.147 142.696 104.978 142.961 105.76C143.232 106.529 143.77 107.147 144.574 107.613L147.255 101.672C146.382 101.293 145.579 101.247 144.846 101.534C144.113 101.821 143.551 102.399 143.159 103.267Z" fill="#A5A5A5"/><path d="M154.914 95.8506C154.511 97.1858 153.759 98.1492 152.656 98.7408C151.553 99.3325 150.346 99.4307 149.037 99.0356C147.727 98.6404 146.777 97.8913 146.185 96.7883C145.593 95.6853 145.499 94.4662 145.902 93.131C146.305 91.7958 147.058 90.8324 148.161 90.2408C149.264 89.6492 150.47 89.5509 151.78 89.9461C153.089 90.3412 154.04 91.0903 154.631 92.1933C155.223 93.2963 155.317 94.5154 154.914 95.8506ZM153.971 95.5658C154.285 94.5259 154.209 93.5927 153.744 92.766C153.274 91.9098 152.513 91.3229 151.46 91.0052C150.42 90.6914 149.468 90.7612 148.602 91.2145C147.737 91.6678 147.152 92.4015 146.846 93.4158C146.543 94.4172 146.625 95.3524 147.091 96.2214C147.562 97.0776 148.316 97.6626 149.356 97.9764C150.396 98.2902 151.349 98.2204 152.214 97.7671C153.079 97.3138 153.665 96.5801 153.971 95.5658Z" fill="#A5A5A5"/><path d="M152.744 82.1862L151.925 86.7192L150.955 86.5439L151.774 82.011L152.744 82.1862Z" fill="#A5A5A5"/><path d="M150.213 77.2963L149.922 80.8852L148.879 80.8008L149.545 72.5805L150.588 72.6649L150.297 76.2538L158.277 76.8998L158.192 77.9424L150.213 77.2963Z" fill="#A5A5A5"/><path d="M162.606 68.8044L162.657 69.8491L149.599 70.494L149.547 69.4493L150.752 69.3898C150.333 69.048 149.981 68.582 149.697 67.9919C149.398 67.389 149.234 66.7728 149.202 66.1433C149.139 64.8575 149.51 63.812 150.316 63.0069C151.122 62.2018 152.202 61.7658 153.555 61.699C154.961 61.6296 156.141 62.001 157.094 62.8132C158.048 63.6388 158.558 64.7347 158.626 66.1008C158.686 67.3197 158.479 68.2966 158.005 69.0316L162.606 68.8044ZM150.201 66.3759C150.23 66.9652 150.392 67.5346 150.688 68.0839C150.983 68.6198 151.339 69.0385 151.757 69.3402L156.96 69.0832C157.469 68.2256 157.697 67.2745 157.645 66.2298C157.592 65.1583 157.194 64.3053 156.451 63.6706C155.708 63.036 154.781 62.7461 153.669 62.801C152.558 62.8559 151.689 63.2009 151.062 63.8361C150.436 64.4712 150.148 65.3178 150.201 66.3759Z" fill="#A5A5A5"/><path d="M154.548 50.8723L155.278 50.3908C156.27 51.0405 156.893 52.0579 157.147 53.4428C157.408 54.8673 157.196 56.0857 156.509 57.0979C155.824 58.1233 154.783 58.7642 153.385 59.0207C152.039 59.2676 150.859 59.0751 149.843 58.4435C148.825 57.7986 148.186 56.7705 147.928 55.3592C147.717 54.2116 147.91 53.181 148.506 52.2673C149.091 51.3692 149.99 50.8088 151.203 50.5862C151.52 50.5281 151.801 50.4971 152.045 50.4931L153.392 57.8333C154.453 57.5977 155.233 57.0933 155.732 56.3201C156.218 55.5493 156.363 54.6297 156.167 53.5613C155.939 52.3214 155.4 51.4251 154.548 50.8723ZM148.915 55.2802C149.089 56.2299 149.508 56.9507 150.171 57.4426C150.831 57.9213 151.625 58.1234 152.552 58.0487L151.376 51.6384C150.442 51.8234 149.755 52.2425 149.316 52.8957C148.877 53.5489 148.743 54.3437 148.915 55.2802Z" fill="#A5A5A5"/><path d="M146.065 42.0212L155.11 45.4117L155.435 46.4058L146.832 49.2198L146.507 48.2257L153.676 45.8807L144.631 42.4902L144.306 41.496L152.909 38.682L153.234 39.6762L146.065 42.0212ZM141.927 49.3639L141.633 48.4654C142.105 48.3111 142.452 48.0141 142.675 47.5743C142.885 47.1387 142.905 46.6596 142.734 46.1371C142.571 45.64 142.279 45.2842 141.856 45.0698C141.42 44.8596 140.967 44.8316 140.495 44.9858L140.201 44.0873C140.902 43.858 141.568 43.9084 142.198 44.2385C142.815 44.5727 143.248 45.1222 143.499 45.8869C143.765 46.7027 143.755 47.4256 143.467 48.0559C143.167 48.6903 142.653 49.1263 141.927 49.3639Z" fill="#A5A5A5"/><path d="M148.073 27.9639L148.525 28.9071L141.306 32.3679L142.958 35.8142L144.788 35.0709C147.16 34.1267 148.867 33.7772 149.906 34.0224C150.767 34.2046 151.368 34.6525 151.71 35.3659L150.82 35.882C150.669 35.5676 150.382 35.3409 149.959 35.2019C149.023 34.8324 147.384 35.1201 145.041 36.0648L142.441 37.1552L139.91 31.8769L148.073 27.9639Z" fill="#A5A5A5"/><path d="M140.631 19.5406L141.121 18.816C142.286 19.0356 143.251 19.7362 144.017 20.9177C144.805 22.133 145.076 23.3398 144.83 24.5381C144.591 25.7476 143.875 26.7389 142.682 27.5121C141.534 28.2561 140.37 28.5312 139.19 28.3374C138.002 28.1324 137.018 27.4278 136.238 26.2238C135.603 25.2448 135.386 24.2191 135.586 23.1467C135.782 22.0929 136.397 21.2304 137.432 20.5594C137.702 20.3843 137.95 20.248 138.174 20.1505L142.233 26.4127C143.123 25.7881 143.65 25.0231 143.814 24.1177C143.967 23.2195 143.748 22.3147 143.157 21.4032C142.471 20.3454 141.63 19.7246 140.631 19.5406ZM137.12 25.7721C137.645 26.5823 138.308 27.0874 139.109 27.2874C139.902 27.4762 140.713 27.3583 141.54 26.9338L137.995 21.4649C137.204 21.9941 136.73 22.6445 136.575 23.4161C136.42 24.1878 136.602 24.9731 137.12 25.7721Z" fill="#A5A5A5"/><path d="M142.167 11.7283L142.847 12.5226L132.919 21.0297L132.238 20.2354L133.155 19.4501C132.614 19.4369 132.05 19.2841 131.464 18.9916C130.859 18.6977 130.351 18.3114 129.941 17.8328C129.104 16.8552 128.757 15.8013 128.901 14.6712C129.045 13.541 129.632 12.5353 130.66 11.6541C131.729 10.738 132.89 10.3091 134.14 10.3675C135.4 10.4361 136.475 10.9898 137.365 12.0285C138.159 12.9552 138.593 13.8541 138.669 14.7254L142.167 11.7283ZM130.873 17.4053C131.257 17.8534 131.734 18.204 132.304 18.4572C132.865 18.7002 133.404 18.8131 133.918 18.7957L137.875 15.406C137.751 14.4169 137.349 13.5252 136.669 12.7309C135.971 11.9162 135.134 11.4855 134.158 11.4388C133.182 11.392 132.271 11.7308 131.426 12.455C130.581 13.1792 130.105 13.9841 129.998 14.8699C129.892 15.7557 130.184 16.6008 130.873 17.4053Z" fill="#A5A5A5"/><rect x="0.5" y="0.5" width="140" height="140" rx="70" stroke="#D9D9D9"/><g clip-path="url(#clip0_1_39)"><path d="M84.66 68.5801L61.44 56.9701C61.1268 56.825 60.7822 56.7605 60.4377 56.7825C60.0931 56.8046 59.7596 56.9125 59.4674 57.0963C59.1752 57.2802 58.9336 57.5342 58.7646 57.8353C58.5957 58.1364 58.5047 58.4749 58.5 58.8201V82.0301C58.4971 82.3845 58.5856 82.7336 58.7571 83.0437C58.9285 83.3539 59.177 83.6145 59.4787 83.8005C59.7803 83.9865 60.1248 84.0916 60.4789 84.1055C60.833 84.1195 61.1847 84.0418 61.5 83.8801L84.66 72.2701C85.0031 72.0979 85.2915 71.8337 85.4931 71.507C85.6946 71.1803 85.8014 70.804 85.8014 70.4201C85.8014 70.0362 85.6946 69.6599 85.4931 69.3332C85.2915 69.0065 85.0031 68.7423 84.66 68.5701V68.5801Z" fill="white"/></g><defs><clipPath id="clip0_1_39"><rect width="36" height="36" fill="white" transform="translate(52.5 52.5)"/></clipPath></defs></svg>