<svg xmlns="http://www.w3.org/2000/svg"><symbol id="palette" viewBox="0 0 48 48" fill="none"><path d="M47.9866 20.8977C47.6599 10.6338 38.3939 0 23.9235 0C17.0859 0 10.8374 2.72362 6.32886 7.63725C1.76549 12.6113 -0.507669 19.2484 0.101987 26.325C1.1443 38.4264 11.4457 48 23.4346 48H23.4813C27.3348 47.9911 29.0253 44.2181 26.8623 41.4755C25.2047 39.3729 25.6675 37.8112 26.1605 36.8883C26.9969 35.3241 28.3056 34.5935 30.2818 34.5894C32.0372 34.5894 33.8441 34.6155 35.5745 34.5043C43.1907 34.0195 48.2338 28.6788 47.9866 20.8977ZM5.70542 18.4588C5.70542 16.1325 7.59786 14.2401 9.92417 14.2401C12.2505 14.2401 14.1429 16.1325 14.1429 18.4588C14.1429 20.7851 12.2505 22.6776 9.92417 22.6776C7.59786 22.6776 5.70542 20.7851 5.70542 18.4588ZM11.3304 33.9276C9.00411 33.9276 7.11167 32.0351 7.11167 29.7088C7.11167 27.3825 9.00411 25.4901 11.3304 25.4901C13.6567 25.4901 15.5492 27.3825 15.5492 29.7088C15.5492 32.0351 13.6567 33.9276 11.3304 33.9276ZM18.3617 14.2401C16.0354 14.2401 14.1429 12.3476 14.1429 10.0213C14.1429 7.695 16.0354 5.80256 18.3617 5.80256C20.688 5.80256 22.5804 7.695 22.5804 10.0213C22.5804 12.3476 20.688 14.2401 18.3617 14.2401ZM29.6117 14.2401C27.2854 14.2401 25.3929 12.3476 25.3929 10.0213C25.3929 7.695 27.2854 5.80256 29.6117 5.80256C31.938 5.80256 33.8304 7.695 33.8304 10.0213C33.8304 12.3476 31.938 14.2401 29.6117 14.2401ZM38.0492 22.6776C35.7229 22.6776 33.8304 20.7851 33.8304 18.4588C33.8304 16.1325 35.7229 14.2401 38.0492 14.2401C40.3755 14.2401 42.2679 16.1325 42.2679 18.4588C42.2679 20.7851 40.3755 22.6776 38.0492 22.6776Z" fill="currentColor"/></symbol><symbol id="check" viewBox="0 0 24 24" fill="none"><path d="M18 6H20V8H18V6ZM16 10V8H18V10H16ZM14 12V10H16V12H14ZM12 14H14V12H12V14ZM10 16H12V14H10V16ZM8 16V18H10V16H8ZM6 14H8V16H6V14ZM6 14H4V12H6V14Z" fill="currentColor"/></symbol><symbol id="telegram" viewBox="0 0 35 35" fill="none"><path d="M17.5 2.91669C9.44999 2.91669 2.91666 9.45002 2.91666 17.5C2.91666 25.55 9.44999 32.0834 17.5 32.0834C25.55 32.0834 32.0833 25.55 32.0833 17.5C32.0833 9.45002 25.55 2.91669 17.5 2.91669ZM24.2667 12.8334C24.0479 15.1375 23.1 20.7375 22.6187 23.3188C22.4146 24.4125 22.0062 24.7771 21.6271 24.8209C20.7812 24.8938 20.1396 24.2667 19.3229 23.7271C18.0396 22.8813 17.3104 22.3563 16.0708 21.5396C14.6271 20.5917 15.5604 20.0667 16.3917 19.2209C16.6104 19.0021 20.3437 15.6042 20.4167 15.2979C20.4268 15.2516 20.4254 15.2034 20.4127 15.1576C20.4 15.1119 20.3763 15.07 20.3437 15.0354C20.2562 14.9625 20.1396 14.9917 20.0375 15.0063C19.9062 15.0354 17.8646 16.3917 13.8833 19.075C13.3 19.4688 12.775 19.6729 12.3083 19.6584C11.7833 19.6438 10.7917 19.3667 10.0479 19.1188C9.12916 18.8271 8.41457 18.6667 8.47291 18.1563C8.50207 17.8938 8.86666 17.6313 9.55207 17.3542C13.8104 15.5021 16.6396 14.2771 18.0542 13.6938C22.1083 12.0021 22.9396 11.7104 23.4937 11.7104C23.6104 11.7104 23.8875 11.7396 24.0625 11.8854C24.2083 12.0021 24.2521 12.1625 24.2667 12.2792C24.2521 12.3667 24.2812 12.6292 24.2667 12.8334Z" fill="currentColor"/></symbol><symbol id="videos" viewBox="0 0 56 56" fill="none"><path d="M47.6623 48.741H12.6725C11.5397 48.741 10.4118 47.8362 10.4118 46.4802C10.4118 45.215 11.4281 44.1987 12.6725 44.1987H47.6623C48.8324 44.1987 49.7363 43.2194 49.7363 42.1247C49.7363 41.8719 49.7157 8.5076 49.7156 8.25499C49.7156 5.41352 47.4132 3.11133 44.5718 3.11133C36.1307 3.11133 20.5678 3.11133 12.6725 3.11133C9.23957 3.11133 6.26369 5.92116 6.26369 9.52027V46.4802C6.26369 50.1287 9.23915 52.8891 12.6725 52.8891H47.6623C48.803 52.8891 49.7363 51.9557 49.7363 50.815C49.7363 49.6743 48.803 48.741 47.6623 48.741ZM10.4118 9.52027C10.4118 8.29651 11.4489 7.25948 12.6725 7.25948H14.5807V40.0506C13.2764 40.1321 12.1793 39.829 10.4118 40.4654V9.52027ZM25.366 19.8491C25.366 18.7498 25.9674 17.7335 26.9215 17.215C27.8755 16.6757 29.0577 16.7172 29.9911 17.3187L35.9229 21.135C36.794 21.6743 37.3125 22.6283 37.3125 23.6653C37.3125 24.6817 36.794 25.6357 35.9229 26.175L29.9911 29.9914C29.1138 30.5762 27.9193 30.6393 26.9215 30.0951C25.9674 29.5765 25.366 28.5603 25.366 27.4609V19.8491Z" fill="currentColor"/></symbol><symbol id="conversation" viewBox="0 0 56 56" fill="none"><path d="M13.9046 40.1438C18.3533 40.1438 21.9596 36.5189 21.9596 32.0475C21.9596 27.576 18.3533 23.9512 13.9046 23.9512C9.45596 23.9512 5.84961 27.576 5.84961 32.0475C5.84961 36.5189 9.45596 40.1438 13.9046 40.1438Z" fill="currentColor"/><path d="M23.2882 39.6987C22.1554 41.1026 20.7251 42.2346 19.1017 43.0122C17.4782 43.7897 15.7025 44.1932 13.9041 44.1932C12.1058 44.1932 10.3301 43.7897 8.70663 43.0122C7.08317 42.2346 5.65286 41.1026 4.52005 39.6987C2.22235 41.7572 0.659116 44.5157 0.0696508 47.5521C-0.0384404 48.1197 -0.0204827 48.7043 0.122242 49.2642C0.264966 49.824 0.528935 50.3452 0.89529 50.7907C1.27691 51.2574 1.75637 51.6336 2.29942 51.8926C2.84247 52.1515 3.4357 52.2867 4.03675 52.2885H23.7715C24.3726 52.2867 24.9658 52.1515 25.5089 51.8926C26.0519 51.6336 26.5314 51.2574 26.913 50.7907C27.2803 50.3458 27.5449 49.8246 27.6877 49.2646C27.8305 48.7046 27.8479 48.1197 27.7386 47.5521C27.1492 44.5157 25.5859 41.7572 23.2882 39.6987Z" fill="currentColor"/><path d="M42.0972 40.1438C46.5459 40.1438 50.1522 36.5189 50.1522 32.0475C50.1522 27.576 46.5459 23.9512 42.0972 23.9512C37.6485 23.9512 34.0422 27.576 34.0422 32.0475C34.0422 36.5189 37.6485 40.1438 42.0972 40.1438Z" fill="currentColor"/><path d="M55.9304 47.5521C55.3409 44.5157 53.7777 41.7572 51.48 39.6987C50.3472 41.1026 48.9169 42.2346 47.2934 43.0122C45.6699 43.7897 43.8943 44.1932 42.0959 44.1932C40.2975 44.1932 38.5219 43.7897 36.8984 43.0122C35.2749 42.2346 33.8446 41.1026 32.7118 39.6987C30.4141 41.7572 28.8509 44.5157 28.2614 47.5521C28.1522 48.1197 28.1696 48.7046 28.3124 49.2646C28.4551 49.8246 28.7197 50.3458 29.0871 50.7907C29.4687 51.2574 29.9481 51.6336 30.4912 51.8926C31.0342 52.1515 31.6275 52.2867 32.2285 52.2885H51.9633C52.5643 52.2867 53.1576 52.1515 53.7006 51.8926C54.2437 51.6336 54.7231 51.2574 55.1048 50.7907C55.4711 50.3452 55.7351 49.824 55.8778 49.2642C56.0205 48.7043 56.0385 48.1197 55.9304 47.5521Z" fill="currentColor"/><path d="M18.8887 21.626C19.1804 21.8071 19.5133 21.9104 19.8558 21.926C20.1984 21.9415 20.5392 21.869 20.846 21.7151L24.4486 19.9035H34.0422C35.1103 19.9035 36.1347 19.477 36.89 18.7178C37.6453 17.9587 38.0697 16.929 38.0697 15.8554V7.75908C38.0697 6.68545 37.6453 5.65579 36.89 4.89661C36.1347 4.13744 35.1103 3.71094 34.0422 3.71094H21.9596C20.8915 3.71094 19.8671 4.13744 19.1118 4.89661C18.3565 5.65579 17.9321 6.68545 17.9321 7.75908V19.9035C17.9322 20.2488 18.0201 20.5883 18.1875 20.8898C18.3549 21.1913 18.5963 21.4447 18.8887 21.626Z" fill="currentColor"/></symbol><symbol id="plus" viewBox="0 0 34 34" fill="none"><path d="M25.4999 18.4138H18.4166V25.4971C18.4166 25.8728 18.2673 26.2332 18.0017 26.4988C17.736 26.7645 17.3756 26.9138 16.9999 26.9138C16.6242 26.9138 16.2639 26.7645 15.9982 26.4988C15.7325 26.2332 15.5833 25.8728 15.5833 25.4971V18.4138H8.49992C8.1242 18.4138 7.76386 18.2645 7.49818 17.9988C7.23251 17.7332 7.08325 17.3728 7.08325 16.9971C7.08325 16.6214 7.23251 16.2611 7.49818 15.9954C7.76386 15.7297 8.1242 15.5804 8.49992 15.5804H15.5833V8.49711C15.5833 8.12139 15.7325 7.76105 15.9982 7.49538C16.2639 7.2297 16.6242 7.08044 16.9999 7.08044C17.3756 7.08044 17.736 7.2297 18.0017 7.49538C18.2673 7.76105 18.4166 8.12139 18.4166 8.49711V15.5804H25.4999C25.8756 15.5804 26.236 15.7297 26.5017 15.9954C26.7673 16.2611 26.9166 16.6214 26.9166 16.9971C26.9166 17.3728 26.7673 17.7332 26.5017 17.9988C26.236 18.2645 25.8756 18.4138 25.4999 18.4138Z" fill="currentColor"/></symbol><symbol id="ladder" viewBox="0 0 64 64" fill="none"><path d="M9.375 11.25C12.4816 11.25 15 8.7316 15 5.625C15 2.5184 12.4816 0 9.375 0C6.2684 0 3.75 2.5184 3.75 5.625C3.75 8.7316 6.2684 11.25 9.375 11.25Z" fill="currentColor"/><path d="M62.125 19H50.875C49.8386 19 49 19.8386 49 20.875V30.25H35.75C34.7136 30.25 33.875 31.0886 33.875 32.125V41.5H20.625C19.5886 41.5 18.75 42.3386 18.75 43.375V52.75H15V33.75H16.875C17.9114 33.75 18.75 32.9114 18.75 31.875V20.625C18.75 15.4559 14.5441 11.25 9.375 11.25C4.20587 11.25 0 15.4559 0 20.625V31.875C0 32.9114 0.838625 33.75 1.875 33.75H3.75V52.75H1.875C0.838625 52.75 0 53.5886 0 54.625V62.125C0 63.1614 0.838625 64 1.875 64H62.125C63.1614 64 64 63.1614 64 62.125V20.875C64 19.8386 63.1614 19 62.125 19ZM7.5 33.75H11.25V52.75H7.5V33.75Z" fill="currentColor"/></symbol><symbol id="play" viewBox="0 0 36 36" fill="none"><path d="M32.16 16.0801L8.93999 4.47011C8.62674 4.32498 8.28217 4.2605 7.93764 4.28254C7.5931 4.30459 7.25955 4.41245 6.96735 4.59632C6.67515 4.78019 6.43358 5.03422 6.26462 5.33529C6.09567 5.63636 6.0047 5.97491 5.99999 6.32011V29.5301C5.99707 29.8845 6.0856 30.2336 6.25704 30.5437C6.42848 30.8539 6.67703 31.1145 6.97865 31.3005C7.28028 31.4865 7.62479 31.5916 7.97888 31.6055C8.33297 31.6195 8.68468 31.5418 8.99999 31.3801L32.16 19.7701C32.5031 19.5979 32.7915 19.3337 32.993 19.007C33.1946 18.6803 33.3013 18.304 33.3013 17.9201C33.3013 17.5362 33.1946 17.1599 32.993 16.8332C32.7915 16.5065 32.5031 16.2423 32.16 16.0701V16.0801Z" fill="currentColor"/></symbol><symbol id="picture" viewBox="0 0 56 56" fill="none"><path d="M43.7721 41.3232C41.8969 39.8935 39.3772 39.7512 37.3528 40.9606L33.8317 43.064L27.8686 37.833L19.9062 43.2009V46.1564H46.1562V43.1406L43.7721 41.3232Z" fill="currentColor"/><path d="M36.8594 0C34.1455 0 31.9375 2.20795 31.9375 4.92188V8.3125H35.2188V4.92188C35.2188 4.01723 35.9547 3.28125 36.8594 3.28125C37.764 3.28125 38.5 4.01723 38.5 4.92188V20.2344C38.5 21.8025 37.2244 23.0781 35.6562 23.0781C34.0881 23.0781 32.8125 21.8025 32.8125 20.2344V13.2344H29.5312V20.2344C29.5312 23.6118 32.2789 26.3594 35.6562 26.3594C39.0336 26.3594 41.7812 23.6118 41.7812 20.2344V4.92188C41.7812 2.20795 39.5733 0 36.8594 0Z" fill="currentColor"/><path d="M45.0625 16.5156V20.2344C45.0625 25.421 40.8429 29.6406 35.6562 29.6406C30.4696 29.6406 26.25 25.421 26.25 20.2344V16.5156H10.0625V56H56V16.5156H45.0625ZM21.5469 23.0781C24.2608 23.0781 26.4688 25.2861 26.4688 28C26.4688 30.7139 24.2608 32.9219 21.5469 32.9219C18.833 32.9219 16.625 30.7139 16.625 28C16.625 25.2861 18.833 23.0781 21.5469 23.0781ZM49.4375 49.4375H16.625V41.4555L28.1314 33.6984L34.1996 39.0219L35.6699 38.1435C38.8522 36.2426 42.8134 36.4664 45.7613 38.7136L49.4375 41.5158V49.4375Z" fill="currentColor"/><path d="M21.5469 26.3594C20.6422 26.3594 19.9062 27.0954 19.9062 28C19.9062 28.9046 20.6422 29.6406 21.5469 29.6406C22.4515 29.6406 23.1875 28.9046 23.1875 28C23.1875 27.0954 22.4515 26.3594 21.5469 26.3594Z" fill="currentColor"/><path d="M45.0625 6.59375V13.2346H49.4375V11.4846C49.4375 8.95548 47.5199 6.86686 45.0625 6.59375Z" fill="currentColor"/><path d="M28.0078 6.5625L24.3984 2.1875H4.92188C2.20795 2.1875 0 4.39545 0 7.10938V36.6406C0 39.3545 2.20795 41.5625 4.92188 41.5625H6.78125V13.2344H26.25V9.95312H28.6562V6.5625H28.0078Z" fill="currentColor"/></symbol><symbol id="easel" viewBox="0 0 64 64" fill="none"><path d="M51.858 57.456C52.142 57.93 51.988 58.544 51.516 58.828L49.8 59.856C49.326 60.14 48.712 59.986 48.428 59.514L42.12 49H46.784L51.858 57.456Z" fill="currentColor"/><path d="M34 49V59C34 59.552 33.552 60 33 60H31C30.448 60 30 59.552 30 59V49H34Z" fill="currentColor"/><path d="M21.88 49L15.572 59.514C15.288 59.988 14.672 60.14 14.2 59.856L12.486 58.826C12.012 58.542 11.86 57.928 12.144 57.454L17.214 49H21.88Z" fill="currentColor"/><path d="M24 23C24 20.238 26.238 18 29 18C31.762 18 34 20.238 34 23C34 25.762 31.762 28 29 28C26.238 28 24 25.762 24 23Z" fill="currentColor"/><path d="M59 42H56V11C56 10.448 55.552 10 55 10H9C8.448 10 8 10.448 8 11V42H5C4.448 42 4 42.448 4 43V45C4 45.552 4.448 46 5 46H8H56H59C59.552 46 60 45.552 60 45V43C60 42.448 59.552 42 59 42ZM12 14H52V30.594C49.12 28.238 45.894 26 44 26C41.256 26 35.762 30.636 32.576 33.55C33.77 34.422 34.64 35.1 34.92 35.322C35.57 35.834 35.682 36.778 35.17 37.428C34.658 38.082 33.714 38.19 33.064 37.678C28.38 33.986 22.054 30 20 30C19.846 30 19.668 30.04 19.498 30.07C17.838 30.47 14.89 32.604 12 35.05V14Z" fill="currentColor"/><path d="M30 7V3C30 2.448 30.448 2 31 2H33C33.552 2 34 2.448 34 3V7H30Z" fill="currentColor"/></symbol><symbol id="paint" viewBox="0 0 64 64" fill="none"><path d="M51.803 29.6182C52.0984 29.9259 52.2338 30.3689 52.1107 30.8121C51.1138 34.3813 49.6369 38.3567 47.8522 42.3074C43.6061 51.7351 36.0122 61.1505 32.8615 61.1505C32.6768 61.1505 32.5045 61.1259 32.3446 61.0521C31.8645 60.8305 30.3753 60.1659 31.5076 52.5474C31.9507 49.6182 33.1322 43.6982 36.1353 37.0274C37.9322 33.0643 39.9384 29.3351 41.9446 26.2212C42.1907 25.852 42.6091 25.6551 43.0276 25.6675C43.6553 24.3874 44.3446 22.9966 45.0215 21.6428C46.0184 22.8982 47.2984 23.9074 48.7999 24.5721C50.1046 25.1628 51.5569 25.4828 52.9968 25.4828C53.1692 25.4828 53.3415 25.4828 53.5137 25.4705C52.9476 26.8613 52.3446 28.3013 51.803 29.6182Z" fill="currentColor"/><path d="M61.5384 10.3198C61.5507 13.2122 60.96 16.5598 60.1107 18.4429C58.8061 21.3229 55.9753 23.0214 52.9969 23.0214C51.9384 23.0214 50.843 22.7998 49.8092 22.3321C47.9138 21.4829 46.4738 19.9445 45.7353 17.9998C44.9969 16.0553 45.0584 13.9383 45.9199 12.0429C47.6061 8.99057 49.5507 8.44903 51.2615 7.96909C53.1077 7.46443 54.8553 6.97217 56.9969 3.43987C57.3169 2.91057 57.9815 2.70136 58.5476 2.95985C61.0092 4.0675 61.5384 7.57524 61.5384 10.3198Z" fill="currentColor"/><path d="M43.4337 18.8736C42.6338 16.769 42.5476 14.5168 43.163 12.3998C42.0676 11.4152 40.8984 10.566 39.6676 9.81521C36.0369 7.61208 31.8646 6.34443 27.5322 6.25826C20.8861 6.13522 14.5845 8.62132 9.83375 13.2737C5.083 17.9383 2.46146 24.1659 2.46146 30.8244C2.46146 40.0059 7.5199 48.3506 15.6553 52.5968C16.6276 53.1137 17.6737 53.3721 18.7323 53.3721C19.9753 53.3721 21.2307 53.0152 22.3507 52.3136C24.3815 51.0337 25.5384 48.8798 25.4645 46.529C25.3292 42.4675 26.6583 39.1075 29.206 37.0767C30.6215 35.9567 32.3691 35.2921 34.3138 35.1075C36.0369 31.366 37.9691 27.8582 39.8769 24.8921C40.2461 24.3259 40.7383 23.8952 41.3045 23.6121C42.0184 22.1721 42.7938 20.5844 43.5445 19.1198C43.4953 19.046 43.4707 18.9598 43.4337 18.8736ZM16.283 40.0552C14.043 40.0552 12.2461 38.2459 12.2461 36.0183C12.2461 33.7906 14.043 31.9814 16.283 31.9814C18.5107 31.9814 20.3076 33.7906 20.3076 36.0183C20.3076 38.2459 18.5107 40.0552 16.283 40.0552ZM18.4491 26.2829C16.2091 26.2829 14.4123 24.4736 14.4123 22.2459C14.4123 20.0183 16.2091 18.1967 18.4491 18.1967C20.6768 18.1967 22.4738 20.0183 22.4738 22.2459C22.4738 24.4736 20.6768 26.2829 18.4491 26.2829ZM32.5784 24.1167C30.3384 24.1167 28.5415 22.2951 28.5415 20.0798C28.5415 17.8521 30.3384 16.0306 32.5784 16.0306C34.8061 16.0306 36.603 17.8521 36.603 20.0798C36.603 22.2951 34.8061 24.1167 32.5784 24.1167Z" fill="currentColor"/></symbol><symbol id="gamepad" viewBox="0 0 48 48" fill="none"><path d="M47.9906 32.0344C47.8875 27.5812 46.5281 21.6375 44.3531 16.1344C43.3594 13.6125 42.2812 11.4469 41.2406 9.88123C39.8531 7.78123 38.6062 6.80623 37.2937 6.80623C36.5531 6.80623 35.8875 6.77811 35.25 6.74998C33.6375 6.68436 32.2406 6.62811 31.0312 7.12498C29.7844 7.64061 29.0625 8.60623 28.6219 9.57186H19.3781C18.9375 8.59686 18.2156 7.63123 16.9687 7.11561C15.75 6.61873 14.3625 6.67498 12.75 6.74061C12.1031 6.76873 11.4375 6.79686 10.7062 6.79686C9.39375 6.79686 8.14687 7.77186 6.75937 9.87186C5.71875 11.4469 4.65 13.6125 3.64687 16.1344C1.47187 21.6281 0.112496 27.5719 0.0093712 32.0344C-0.168754 39.8531 3.51562 41.1844 5.72812 41.2875H5.925C8.1375 41.2875 10.5656 39.5906 13.3312 36.1219C14.6344 34.4906 15.6844 32.8594 16.2562 31.9406H31.7437C32.3062 32.8594 33.3656 34.4812 34.6687 36.1219C37.5281 39.6937 40.0125 41.3906 42.2719 41.2875C44.4844 41.1937 48.1687 39.8531 47.9906 32.0344ZM33.5719 21.5625C33.5719 22.3875 32.8969 23.0625 32.0719 23.0625H31.7062C30.8812 23.0625 30.2062 22.3875 30.2062 21.5625C30.2062 20.7375 30.8812 20.0625 31.7062 20.0625H32.0719C32.8969 20.0719 33.5719 20.7281 33.5719 21.5625ZM17.7937 21.5625C17.7937 22.3875 17.1187 23.0625 16.2937 23.0625H14.4V24.9562C14.4 25.7812 13.725 26.4562 12.9 26.4562C12.075 26.4562 11.4 25.7812 11.4 24.9562V23.0625H9.50625C8.68125 23.0625 8.00625 22.3875 8.00625 21.5625C8.00625 20.7375 8.68125 20.0625 9.50625 20.0625H11.4V18.1687C11.4 17.3437 12.075 16.6687 12.9 16.6687C13.725 16.6687 14.4 17.3437 14.4 18.1687V20.0625H16.2937C17.1281 20.0719 17.7937 20.7281 17.7937 21.5625ZM36.6 18.1594V18.5344C36.6 19.3594 35.925 20.0344 35.1 20.0344C34.275 20.0344 33.6 19.3594 33.6 18.5344V18.1594C33.6 17.3344 34.275 16.6594 35.1 16.6594C35.925 16.6594 36.6 17.3344 36.6 18.1594ZM36.6 24.6V24.9656C36.6 25.7906 35.925 26.4656 35.1 26.4656C34.275 26.4656 33.6 25.7906 33.6 24.9656V24.6C33.6 23.775 34.275 23.1 35.1 23.1C35.925 23.0906 36.6 23.7656 36.6 24.6ZM39.9937 21.5625C39.9937 22.3875 39.3187 23.0625 38.4937 23.0625H38.1187C37.2937 23.0625 36.6187 22.3875 36.6187 21.5625C36.6187 20.7375 37.2937 20.0625 38.1187 20.0625H38.4937C39.3281 20.0719 39.9937 20.7281 39.9937 21.5625ZM27.4125 12.5625C26.4844 14.0531 25.1344 14.6156 24 14.6156C22.8656 14.6156 21.5156 14.0437 20.5875 12.5625H27.4125Z" fill="currentColor"/></symbol><symbol id="group" viewBox="0 0 48 48" fill="none"><path d="M12.8425 27.5834C12.8425 25.0968 13.6631 22.8007 15.0438 20.9446C13.598 19.6452 11.6928 18.8479 9.59652 18.8479C5.08898 18.8479 1.43463 22.5027 1.43463 27.0098C1.43463 27.0098 3.3549 44.159 9.59652 44.159C12.0088 44.159 13.7735 41.5951 15.0336 38.4522C13.563 33.6136 12.9684 28.7837 12.8517 27.7444L12.8425 27.5834Z" fill="currentColor"/><path d="M9.5965 18.2567C12.3272 18.2567 14.7025 16.7375 15.9261 14.4993C14.7044 12.8401 13.9786 10.7954 13.9786 8.58146C13.9786 7.57709 14.1308 6.60772 14.4074 5.6923C13.1313 4.54597 11.4477 3.84106 9.5965 3.84106C5.61595 3.84106 2.38892 7.06858 2.38892 11.0491C2.38892 15.0292 5.61595 18.2567 9.5965 18.2567Z" fill="currentColor"/><path d="M38.4035 18.8479C36.3072 18.8479 34.4025 19.6452 32.9562 20.9446C34.3379 22.8007 35.1575 25.0968 35.1575 27.5834L35.1483 27.7439C35.0316 28.7842 34.437 33.6131 32.9664 38.4517C34.2265 41.5946 35.9912 44.1586 38.4035 44.1586C44.6451 44.1586 46.5654 27.0093 46.5654 27.0093C46.5654 22.5027 42.911 18.8479 38.4035 18.8479Z" fill="currentColor"/><path d="M32.0744 14.4988C33.298 16.737 35.6724 18.2562 38.404 18.2562C42.3846 18.2562 45.6116 15.0287 45.6116 11.0486C45.6116 7.06809 42.3841 3.84058 38.404 3.84058C36.5523 3.84058 34.8692 4.545 33.5931 5.69182C33.8692 6.60771 34.0224 7.5766 34.0224 8.58098C34.0214 10.7949 33.2956 12.8396 32.0744 14.4988Z" fill="currentColor"/><path d="M24 17.8663C18.6335 17.8663 14.283 22.2168 14.283 27.5834C14.283 27.5834 16.5698 48 24 48C31.4303 48 33.7166 27.5834 33.7166 27.5834C33.7166 22.2168 29.3666 17.8663 24 17.8663Z" fill="currentColor"/><path d="M24 17.1619C28.7391 17.1619 32.581 13.3201 32.581 8.58094C32.581 3.84182 28.7391 0 24 0C19.2609 0 15.4191 3.84182 15.4191 8.58094C15.4191 13.3201 19.2609 17.1619 24 17.1619Z" fill="currentColor"/></symbol><symbol id="" viewBox="" fill="none"/><symbol id="" viewBox="" fill="none"/></svg>