<svg width="36" height="36" viewBox="0 0 36 36" fill="none" xmlns="http://www.w3.org/2000/svg"><path d="M36 18C36 27.9411 27.9411 36 18 36C8.05888 36 0 27.9411 0 18C0 8.05888 8.05888 0 18 0C27.9411 0 36 8.05888 36 18ZM27.0682 11.1818C26.4092 10.5227 25.3408 10.5227 24.6817 11.1818C24.6658 11.1977 24.6509 11.2145 24.637 11.2322L16.8241 21.1877L12.1137 16.4773C11.4547 15.8182 10.3862 15.8182 9.72724 16.4773C9.06823 17.1363 9.06823 18.2047 9.72724 18.8637L15.6817 24.8182C16.3408 25.4773 17.4092 25.4773 18.0682 24.8182C18.0829 24.8036 18.0968 24.7881 18.1097 24.7719L27.0922 13.5438C27.7271 12.8831 27.7192 11.8327 27.0682 11.1818Z" fill="white"/></svg>