<svg width="40" height="35" viewBox="0 0 40 35" fill="none" xmlns="http://www.w3.org/2000/svg"><g filter="url(#filter0_i_2026_256)"><path d="M0.00850445 25.3559C0.00850445 30.6823 4.2714 35 9.53018 35C14.789 35 19.0519 30.6823 19.0519 25.3559C19.0519 20.0295 14.789 15.7119 9.53018 15.7119C8.44941 15.7119 7.41487 15.9027 6.44638 16.239C8.58916 3.79161 18.1726 -4.23552 9.28878 2.37097C-0.561991 9.69683 -0.0020457 25.0612 0.00897684 25.3427C0.00897684 25.3471 0.00850445 25.351 0.00850445 25.3559Z" fill="#FD8806"/><path d="M20.9568 25.3559C20.9568 30.6823 25.2197 35 30.4785 35C35.7374 35 40.0003 30.6823 40.0003 25.3559C40.0003 20.0295 35.7373 15.7119 30.4784 15.7119C29.3976 15.7119 28.3631 15.9027 27.3946 16.239C29.5374 3.79161 39.1208 -4.23552 30.237 2.37097C20.3863 9.69683 20.9461 25.0612 20.9572 25.3427C20.9572 25.3471 20.9568 25.351 20.9568 25.3559Z" fill="#FD8806"/></g><defs><filter id="filter0_i_2026_256" x="0" y="0" width="40.0002" height="39" filterUnits="userSpaceOnUse" color-interpolation-filters="sRGB"><feFlood flood-opacity="0" result="BackgroundImageFix"/><feBlend mode="normal" in="SourceGraphic" in2="BackgroundImageFix" result="shape"/><feColorMatrix in="SourceAlpha" type="matrix" values="0 0 0 0 0 0 0 0 0 0 0 0 0 0 0 0 0 0 127 0" result="hardAlpha"/><feOffset dy="4"/><feGaussianBlur stdDeviation="2"/><feComposite in2="hardAlpha" operator="arithmetic" k2="-1" k3="1"/><feColorMatrix type="matrix" values="0 0 0 0 1 0 0 0 0 1 0 0 0 0 1 0 0 0 0.13 0"/><feBlend mode="normal" in2="shape" result="effect1_innerShadow_2026_256"/></filter></defs></svg>