<svg xmlns="http://www.w3.org/2000/svg"><symbol id="telephone" viewBox="0 0 18 18" fill="none"><path fill-rule="evenodd" clip-rule="evenodd" d="M2.12037 0.57496C2.95525 -0.259918 4.33293 -0.174147 5.05781 0.757839L7.07573 3.35231C7.44604 3.82842 7.5769 4.44835 7.4306 5.03351L6.81493 7.4962C6.74993 7.7562 6.82611 8.03123 7.01561 8.22074L9.77927 10.9844C9.96877 11.1739 10.2438 11.2501 10.5038 11.1851L12.9665 10.5694C13.5517 10.4231 14.1716 10.554 14.6477 10.9243L17.2422 12.9422C18.1741 13.6671 18.2599 15.0448 17.425 15.8796L16.2619 17.0428C15.4297 17.875 14.185 18.2404 13.025 17.8326C10.1447 16.8199 7.44118 15.1621 5.13955 12.8605C2.83792 10.5588 1.18007 7.85526 0.167443 4.97503C-0.240393 3.81501 0.125021 2.57031 0.957206 1.73812L2.12037 0.57496Z" fill="currentColor"/></symbol><symbol id="chevron-right" viewBox="0 0 7 13" fill="none"><path fill-rule="evenodd" clip-rule="evenodd" d="M6.85355 6.14645C7.04882 6.34171 7.04882 6.65829 6.85355 6.85355L0.853553 12.8536C0.658291 13.0488 0.341708 13.0488 0.146446 12.8536C-0.0488163 12.6583 -0.0488163 12.3417 0.146446 12.1464L5.79289 6.5L0.146447 0.853553C-0.0488158 0.658291 -0.0488157 0.341708 0.146447 0.146446C0.341709 -0.0488158 0.658291 -0.0488158 0.853553 0.146446L6.85355 6.14645Z" fill="currentColor"/></symbol><symbol id="follow" viewBox="0 0 40 41" fill="none"><path d="M0 20.5C0 31.5457 8.95431 40.5 20 40.5C31.0457 40.5 40 31.5457 40 20.5C40 9.45431 31.0457 0.5 20 0.5C8.95431 0.5 0 9.45431 0 20.5ZM14.7595 27.5082C14.2714 27.9964 13.4799 27.9964 12.9917 27.5082C12.5036 27.0201 12.5036 26.2286 12.9917 25.7405L23.2322 15.5L16.3129 15.5C15.6226 15.5 15.0629 14.9403 15.0629 14.25C15.0629 13.5596 15.6226 13 16.3129 13L26.25 13C26.9404 13 27.5 13.5596 27.5 14.25V24.1872C27.5 24.8775 26.9404 25.4372 26.25 25.4372C25.5596 25.4372 25 24.8775 25 24.1872L25 17.2677L14.7595 27.5082Z" fill="currentColor"/></symbol><symbol id="vk" viewBox="0 0 35 35" fill="none"><path fill-rule="evenodd" clip-rule="evenodd" d="M35 17.5C35 7.83502 27.165 0 17.5 0C7.83502 0 0 7.83502 0 17.5C0 27.165 7.83502 35 17.5 35C27.165 35 35 27.165 35 17.5ZM9.975 9.975C8.75 11.2117 8.75 13.1892 8.75 17.15V17.85C8.75 21.805 8.75 23.7825 9.975 25.025C11.2117 26.25 13.1892 26.25 17.15 26.25H17.85C21.805 26.25 23.7825 26.25 25.025 25.025C26.25 23.7883 26.25 21.8108 26.25 17.85V17.15C26.25 13.195 26.25 11.2175 25.025 9.975C23.7883 8.75 21.8108 8.75 17.85 8.75H17.15C13.195 8.75 11.2175 8.75 9.975 9.975Z" fill="currentColor"/><path d="M18.06 21.3558C14.07 21.3558 11.795 18.6258 11.7017 14.0758H13.7083C13.7725 17.4125 15.2425 18.8242 16.4092 19.1158V14.0758H18.2933V16.9517C19.4425 16.8292 20.6558 15.5167 21.0642 14.07H22.9425C22.7893 14.8189 22.4834 15.5281 22.0438 16.1534C21.6042 16.7787 21.0403 17.3066 20.3875 17.7042C21.116 18.0668 21.7594 18.5797 22.2753 19.2092C22.7911 19.8386 23.1676 20.5703 23.38 21.3558H21.3092C20.8658 19.9733 19.7575 18.9 18.2933 18.7542V21.3558H18.06Z" fill="currentColor"/></symbol><symbol id="ig" viewBox="0 0 35 35" fill="none"><path d="M17.5 20.5625C15.8594 20.5625 14.4375 19.25 14.4375 17.5C14.4375 15.8594 15.75 14.4375 17.5 14.4375C19.1406 14.4375 20.5625 15.75 20.5625 17.5C20.5625 19.1406 19.1406 20.5625 17.5 20.5625Z" fill="currentColor"/><path fill-rule="evenodd" clip-rule="evenodd" d="M21.2188 10.0625H13.7812C12.9062 10.1719 12.4688 10.2812 12.1406 10.3906C11.7031 10.5 11.375 10.7187 11.0469 11.0469C10.7872 11.3065 10.6646 11.5662 10.5163 11.88C10.4772 11.9627 10.4362 12.0494 10.3906 12.1406C10.3737 12.1914 10.3542 12.2448 10.3332 12.302C10.2188 12.6146 10.0625 13.0416 10.0625 13.7812V21.2187C10.1719 22.0937 10.2812 22.5312 10.3906 22.8594C10.5 23.2969 10.7188 23.625 11.0469 23.9531C11.3065 24.2128 11.5662 24.3354 11.88 24.4837C11.9628 24.5228 12.0493 24.5637 12.1406 24.6094C12.1914 24.6263 12.2448 24.6458 12.302 24.6668C12.6146 24.7812 13.0416 24.9375 13.7812 24.9375H21.2188C22.0937 24.8281 22.5312 24.7187 22.8594 24.6094C23.2969 24.5 23.625 24.2812 23.9531 23.9531C24.2128 23.6935 24.3354 23.4338 24.4837 23.12C24.5228 23.0373 24.5637 22.9507 24.6094 22.8594C24.6263 22.8086 24.6458 22.7552 24.6668 22.698C24.7812 22.3854 24.9375 21.9584 24.9375 21.2187V13.7812C24.8281 12.9062 24.7188 12.4687 24.6094 12.1406C24.5 11.7031 24.2812 11.375 23.9531 11.0469C23.6935 10.7872 23.4338 10.6646 23.12 10.5163C23.0374 10.4772 22.9505 10.4362 22.8594 10.3906C22.8086 10.3737 22.7552 10.3542 22.698 10.3332C22.3854 10.2188 21.9584 10.0625 21.2188 10.0625ZM17.5 12.7969C14.875 12.7969 12.7969 14.875 12.7969 17.5C12.7969 20.125 14.875 22.2031 17.5 22.2031C20.125 22.2031 22.2031 20.125 22.2031 17.5C22.2031 14.875 20.125 12.7969 17.5 12.7969ZM23.4062 12.6875C23.4062 13.2916 22.9166 13.7812 22.3125 13.7812C21.7084 13.7812 21.2188 13.2916 21.2188 12.6875C21.2188 12.0834 21.7084 11.5937 22.3125 11.5937C22.9166 11.5937 23.4062 12.0834 23.4062 12.6875Z" fill="currentColor"/><path fill-rule="evenodd" clip-rule="evenodd" d="M0 17.5C0 7.83502 7.83502 0 17.5 0C27.165 0 35 7.83502 35 17.5C35 27.165 27.165 35 17.5 35C7.83502 35 0 27.165 0 17.5ZM13.7812 8.42187H21.2188C22.2031 8.53125 22.8594 8.64062 23.4062 8.85937C24.0625 9.1875 24.5 9.40625 25.0469 9.95312C25.5938 10.5 25.9219 11.0469 26.1406 11.5937C26.3594 12.1406 26.5781 12.7969 26.5781 13.7812V21.2187C26.4687 22.2031 26.3594 22.8594 26.1406 23.4062C25.8125 24.0625 25.5938 24.5 25.0469 25.0469C24.5 25.5937 23.9531 25.9219 23.4062 26.1406C22.8594 26.3594 22.2031 26.5781 21.2188 26.5781H13.7812C12.7969 26.4687 12.1406 26.3594 11.5938 26.1406C10.9375 25.8125 10.5 25.5937 9.95312 25.0469C9.40625 24.5 9.07812 23.9531 8.85938 23.4062C8.64063 22.8594 8.42188 22.2031 8.42188 21.2187V13.7812C8.53125 12.7969 8.64063 12.1406 8.85938 11.5937C9.1875 10.9375 9.40625 10.5 9.95312 9.95312C10.5 9.40625 11.0469 9.07812 11.5938 8.85937C12.1406 8.64062 12.7969 8.42187 13.7812 8.42187Z" fill="currentColor"/></symbol><symbol id="fb" viewBox="0 0 35 35" fill="none"><path fill-rule="evenodd" clip-rule="evenodd" d="M0 17.5C0 7.83502 7.83502 0 17.5 0C27.165 0 35 7.83502 35 17.5C35 27.165 27.165 35 17.5 35C7.83502 35 0 27.165 0 17.5ZM17.5 8.75C22.3125 8.75 26.25 12.6875 26.25 17.5C26.25 21.875 23.0781 25.5938 18.7031 26.25V20.0156H20.7812L21.2188 17.5H18.8125V15.8594C18.8125 15.2031 19.1406 14.5469 20.2344 14.5469H21.3281V12.3594C21.3281 12.3594 20.3438 12.1406 19.3594 12.1406C17.3906 12.1406 16.0781 13.3438 16.0781 15.5312V17.5H13.8906V20.0156H16.0781V26.1406C11.9219 25.4844 8.75 21.875 8.75 17.5C8.75 12.6875 12.6875 8.75 17.5 8.75Z" fill="currentColor"/></symbol><symbol id="close" viewBox="0 0 24 24" fill="none"><path d="M2 22L22 2" stroke="currentColor" stroke-width="3" stroke-linecap="round"/><path d="M22 22L2 2" stroke="currentColor" stroke-width="3" stroke-linecap="round"/></symbol><symbol id="wa" viewBox="0 0 45 45" fill="none"><path fill-rule="evenodd" clip-rule="evenodd" d="M17.7188 30.5156C19.125 31.3594 20.8125 31.7812 22.5 31.7812C27.7031 31.7812 31.7813 27.5625 31.7813 22.6406C31.7813 20.1094 30.9375 17.8594 29.1094 16.0313C27.2813 14.3437 25.0313 13.3594 22.5 13.3594C17.4375 13.3594 13.2187 17.5781 13.2187 22.6406C13.2187 24.3281 13.6406 26.0156 14.625 27.5625L14.9063 27.9844L13.9219 31.3594L17.4375 30.375L17.7188 30.5156ZM25.5938 23.9062C25.875 23.9062 27.2813 24.6094 27.5625 24.75C27.6063 24.7719 27.6501 24.7904 27.6934 24.8086C27.9279 24.9077 28.1469 25.0001 28.2656 25.5937C28.4063 25.5937 28.4062 26.1562 28.125 26.8594C27.9844 27.4219 26.8594 28.125 26.2969 28.125C26.2016 28.125 26.1103 28.1331 26.0128 28.1417C25.5349 28.184 24.9075 28.2395 22.9219 27.4219C20.4575 26.4361 18.7488 24.0468 18.2691 23.3758C18.2013 23.281 18.158 23.2205 18.1406 23.2031C18.1167 23.1552 18.0683 23.0788 18.0044 22.978C17.6933 22.4868 17.0156 21.4168 17.0156 20.25C17.0156 18.8438 17.7187 18.1406 18 17.8594C18.2812 17.5781 18.5625 17.5781 18.7031 17.5781H19.2656C19.4063 17.5781 19.6875 17.5781 19.8281 18C20.1094 18.5625 20.6719 19.9687 20.6719 20.1094C20.6719 20.1563 20.6875 20.2031 20.7031 20.25C20.7344 20.3438 20.7656 20.4375 20.6719 20.5312C20.6016 20.6016 20.5664 20.6719 20.5313 20.7422C20.4961 20.8125 20.4609 20.8828 20.3906 20.9531L19.9688 21.375C19.8281 21.5156 19.6875 21.6563 19.8281 21.9375C19.9688 22.2188 20.5313 23.2031 21.375 23.9062C22.3244 24.737 23.0734 25.0669 23.4532 25.2342C23.5235 25.2652 23.5811 25.2905 23.625 25.3125C23.9062 25.3125 24.0469 25.3125 24.1875 25.1719C24.2578 25.0313 24.4336 24.8203 24.6094 24.6094C24.7851 24.3984 24.9609 24.1875 25.0312 24.0469C25.1719 23.7656 25.3125 23.7656 25.5938 23.9062Z" fill="currentColor"/><path fill-rule="evenodd" clip-rule="evenodd" d="M0 22.5C0 10.0736 10.0736 0 22.5 0C34.9264 0 45 10.0736 45 22.5C45 34.9264 34.9264 45 22.5 45C10.0736 45 0 34.9264 0 22.5ZM22.5 11.25C25.4531 11.25 28.2656 12.375 30.375 14.4844C32.4844 16.5938 33.75 19.4063 33.75 22.3594C33.75 28.5469 28.6875 33.6094 22.5 33.6094C20.6719 33.6094 18.8438 33.0469 17.1563 32.2031L11.25 33.75L12.7969 28.125C11.8125 26.4375 11.25 24.4688 11.25 22.5C11.25 16.3125 16.3125 11.25 22.5 11.25Z" fill="currentColor"/></symbol><symbol id="" viewBox="" fill="none"/><symbol id="" viewBox="" fill="none"/><symbol id="" viewBox="" fill="none"/><symbol id="" viewBox="" fill="none"/><symbol id="" viewBox="" fill="none"/><symbol id="" viewBox="" fill="none"/><symbol id="" viewBox="" fill="none"/><symbol id="" viewBox="" fill="none"/></svg>