<svg width="142" height="48" viewBox="0 0 142 48" fill="none" xmlns="http://www.w3.org/2000/svg"><g clip-path="url(#clip0_303_3683)"><path d="M130.735 -9.08875e-05H11.8074C11.3738 -9.08875e-05 10.9455 -9.08874e-05 10.5132 0.00226685C10.1513 0.00462459 9.79222 0.0114738 9.42682 0.0172385C8.633 0.0265537 7.84105 0.0961948 7.05785 0.225557C6.27575 0.357735 5.51814 0.606928 4.81067 0.964708C4.10405 1.32552 3.4584 1.79435 2.89713 2.3542C2.33292 2.91247 1.8626 3.55776 1.50426 4.26525C1.14494 4.97133 0.895784 5.72797 0.765401 6.50902C0.633778 7.28908 0.562951 8.07814 0.553555 8.86912C0.542584 9.23056 0.541425 9.5932 0.535645 9.95469V37.2034C0.541425 37.5694 0.542584 37.924 0.553555 38.2902C0.562954 39.0811 0.633781 39.8702 0.765401 40.6502C0.895424 41.4317 1.14459 42.1888 1.50426 42.8951C1.86243 43.6003 2.33282 44.243 2.89713 44.7982C3.45627 45.3605 4.10234 45.8296 4.81067 46.1877C5.51814 46.5464 6.27566 46.7971 7.05785 46.9313C7.84118 47.0596 8.63305 47.1293 9.42682 47.1397C9.79222 47.1478 10.1513 47.1524 10.5132 47.1524C10.9455 47.1547 11.3739 47.1547 11.8074 47.1547H130.735C131.16 47.1547 131.591 47.1547 132.016 47.1524C132.376 47.1524 132.746 47.1478 133.106 47.1397C133.898 47.1299 134.689 47.0602 135.47 46.9313C136.255 46.7962 137.015 46.5455 137.726 46.1877C138.434 45.8294 139.079 45.3603 139.638 44.7982C140.201 44.2408 140.672 43.5986 141.035 42.8951C141.392 42.1882 141.639 41.4312 141.767 40.6502C141.899 39.87 141.972 39.0812 141.986 38.2902C141.991 37.924 141.991 37.5694 141.991 37.2034C142 36.7751 142 36.3492 142 35.914V11.2418C142 10.8101 142 10.3818 141.991 9.95469C141.991 9.5932 141.991 9.23056 141.986 8.86907C141.972 8.07803 141.899 7.28914 141.767 6.50897C141.638 5.72837 141.392 4.9718 141.035 4.2652C140.305 2.84711 139.148 1.6928 137.726 0.964602C137.015 0.607696 136.255 0.358569 135.47 0.225451C134.689 0.0955188 133.898 0.0258534 133.106 0.0170735C132.746 0.0113206 132.376 0.0044124 132.016 0.0021136C131.591 -0.000244141 131.16 -0.000244141 130.735 -0.000244141V-9.08875e-05Z" fill="#A6A6A6"/><path d="M10.5188 46.123C10.1586 46.123 9.80715 46.1184 9.44978 46.1104C8.70948 46.1008 7.97091 46.0365 7.24013 45.9182C6.55871 45.8011 5.89859 45.5834 5.28156 45.2723C4.67019 44.9636 4.11256 44.559 3.63006 44.0738C3.14056 43.5943 2.73304 43.0382 2.42363 42.4275C2.11081 41.8128 1.89432 41.154 1.78171 40.4739C1.66009 39.7431 1.59429 39.0042 1.58487 38.2635C1.57738 38.0149 1.56757 37.1871 1.56757 37.1871V9.95452C1.56757 9.95452 1.57802 9.13944 1.58493 8.89997C1.59395 8.16045 1.65936 7.42268 1.78062 6.69305C1.89344 6.01109 2.1101 5.35033 2.42309 4.73365C2.73136 4.12336 3.13662 3.56684 3.62316 3.08564C4.10916 2.59988 4.66857 2.19315 5.28098 1.88028C5.8966 1.5701 6.55546 1.35395 7.2355 1.23905C7.96869 1.11947 8.70982 1.05482 9.45269 1.04564L10.5194 1.03125H132.01L133.09 1.04622C133.826 1.05494 134.56 1.11902 135.287 1.23789C135.974 1.35423 136.639 1.5719 137.262 1.88374C138.489 2.51425 139.487 3.51179 140.117 4.73652C140.425 5.34895 140.638 6.00432 140.75 6.68038C140.872 7.416 140.941 8.15957 140.955 8.90516C140.959 9.23902 140.959 9.59763 140.959 9.95452C140.968 10.3966 140.968 10.8174 140.968 11.2416V35.9138C140.968 36.3421 140.968 36.76 140.959 37.1813C140.959 37.5647 140.959 37.9159 140.954 38.2773C140.94 39.0096 140.873 39.7399 140.752 40.4623C140.642 41.1473 140.426 41.8113 140.114 42.4311C139.802 43.0351 139.397 43.5864 138.913 44.0646C138.43 44.5524 137.871 44.9594 137.259 45.27C136.638 45.5836 135.973 45.8021 135.287 45.9182C134.556 46.0372 133.817 46.1014 133.077 46.1104C132.731 46.1184 132.368 46.123 132.016 46.123L130.735 46.1254L10.5188 46.123Z" fill="black"/><path d="M29.8169 23.9317C29.8297 22.9477 30.0917 21.983 30.5788 21.1271C31.0659 20.2713 31.7622 19.5523 32.6028 19.0369C32.0688 18.2764 31.3643 17.6505 30.5452 17.2089C29.7262 16.7674 28.8152 16.5223 27.8845 16.4933C25.8994 16.2855 23.9749 17.6779 22.9633 17.6779C21.9321 17.6779 20.3745 16.5139 18.6974 16.5484C17.6125 16.5833 16.5552 16.8979 15.6285 17.4615C14.7019 18.025 13.9374 18.8184 13.4096 19.7642C11.1232 23.7115 12.8286 29.5128 15.0187 32.7035C16.1145 34.2659 17.3951 36.0112 19.0708 35.9493C20.7106 35.8815 21.323 34.9066 23.3023 34.9066C25.2633 34.9066 25.8378 35.9493 27.5475 35.91C29.3071 35.8815 30.4156 34.3406 31.473 32.7634C32.2603 31.6501 32.8661 30.4197 33.268 29.1177C32.2458 28.6866 31.3734 27.9649 30.7597 27.0427C30.146 26.1204 29.8181 25.0385 29.8169 23.9317Z" fill="white"/><path d="M26.5876 14.3948C27.547 13.2463 28.0197 11.7702 27.9052 10.2798C26.4395 10.4333 25.0856 11.1318 24.1133 12.2363C23.6379 12.7758 23.2738 13.4035 23.0418 14.0834C22.8098 14.7633 22.7144 15.4822 22.7612 16.1989C23.4943 16.2064 24.2196 16.048 24.8824 15.7355C25.5452 15.423 26.1283 14.9646 26.5876 14.3948Z" fill="white"/><path d="M50.5446 31.9937H44.9489L43.6051 35.9505H41.2349L46.5351 21.3113H48.9976L54.2978 35.9505H51.8872L50.5446 31.9937ZM45.5284 30.1678H49.9639L47.7774 23.7462H47.7162L45.5284 30.1678Z" fill="white"/><path d="M65.7443 30.6146C65.7443 33.9313 63.9641 36.0623 61.2777 36.0623C60.5972 36.0978 59.9204 35.9415 59.3248 35.6112C58.7292 35.281 58.2389 34.7901 57.9101 34.195H57.8593V39.4815H55.6623V25.2775H57.7889V27.0527H57.8293C58.1732 26.4603 58.6718 25.9721 59.2719 25.6398C59.872 25.3075 60.5512 25.1437 61.2373 25.1658C63.9537 25.1658 65.7443 27.3071 65.7443 30.6146ZM63.4862 30.6146C63.4862 28.4537 62.3663 27.0331 60.6577 27.0331C58.9791 27.0331 57.85 28.4837 57.85 30.6146C57.85 32.7651 58.9791 34.2053 60.6577 34.2053C62.3663 34.2053 63.4862 32.7951 63.4862 30.6146Z" fill="white"/><path d="M77.5247 30.6146C77.5247 33.9313 75.7445 36.0623 73.058 36.0623C72.3775 36.0978 71.7007 35.9414 71.1051 35.6112C70.5095 35.281 70.0193 34.7901 69.6904 34.1949H69.6396V39.4814H67.4426V25.2775H69.5692V27.0527H69.6096C69.9535 26.4603 70.4521 25.972 71.0522 25.6398C71.6523 25.3075 72.3315 25.1437 73.0176 25.1658C75.7341 25.1658 77.5247 27.3071 77.5247 30.6146ZM75.2665 30.6146C75.2665 28.4537 74.1467 27.0331 72.4381 27.0331C70.7595 27.0331 69.6304 28.4837 69.6304 30.6146C69.6304 32.7651 70.7595 34.2053 72.4381 34.2053C74.1467 34.2053 75.2665 32.7951 75.2665 30.6146H75.2665Z" fill="white"/><path d="M85.3104 31.8718C85.4732 33.3236 86.8874 34.2767 88.82 34.2767C90.6718 34.2767 92.004 33.3235 92.004 32.0145C92.004 30.8783 91.2005 30.1979 89.298 29.7316L87.3954 29.2746C84.6997 28.6253 83.4482 27.3681 83.4482 25.3281C83.4482 22.8023 85.6556 21.0674 88.79 21.0674C91.892 21.0674 94.0186 22.8023 94.0902 25.3281H91.8724C91.7396 23.8672 90.5286 22.9854 88.7588 22.9854C86.989 22.9854 85.7779 23.8776 85.7779 25.1762C85.7779 26.2111 86.5514 26.8201 88.4436 27.2863L90.061 27.6824C93.073 28.3927 94.3245 29.5992 94.3245 31.7405C94.3245 34.4793 92.1368 36.1946 88.6572 36.1946C85.4016 36.1946 83.2035 34.5196 83.0615 31.8717L85.3104 31.8718Z" fill="white"/><path d="M99.066 22.7515V25.2773H101.101V27.0122H99.066V32.8962C99.066 33.8103 99.4735 34.2362 100.368 34.2362C100.61 34.232 100.851 34.2151 101.091 34.1855V35.9101C100.689 35.9851 100.28 36.019 99.8707 36.0114C97.7037 36.0114 96.8587 35.1998 96.8587 33.1299V27.0122H95.3024V25.2773H96.8586V22.7515H99.066Z" fill="white"/><path d="M102.28 30.6144C102.28 27.2562 104.263 25.146 107.356 25.146C110.459 25.146 112.434 27.2562 112.434 30.6144C112.434 33.9818 110.47 36.0828 107.356 36.0828C104.244 36.0828 102.28 33.9818 102.28 30.6144ZM110.195 30.6144C110.195 28.3108 109.136 26.9511 107.356 26.9511C105.576 26.9511 104.518 28.3211 104.518 30.6144C104.518 32.9272 105.576 34.2765 107.356 34.2765C109.136 34.2765 110.195 32.9272 110.195 30.6144H110.195Z" fill="white"/><path d="M114.245 25.2774H116.34V27.094H116.391C116.533 26.5266 116.866 26.0252 117.335 25.674C117.804 25.3229 118.38 25.1434 118.966 25.1657C119.219 25.1648 119.471 25.1922 119.718 25.2474V27.2966C119.399 27.1992 119.065 27.1545 118.731 27.1642C118.412 27.1513 118.094 27.2074 117.799 27.3287C117.503 27.45 117.238 27.6336 117.02 27.8669C116.803 28.1002 116.638 28.3776 116.539 28.6802C116.439 28.9828 116.406 29.3033 116.442 29.6198V35.9505H114.245L114.245 25.2774Z" fill="white"/><path d="M129.848 32.8156C129.552 34.7531 127.66 36.0828 125.239 36.0828C122.125 36.0828 120.193 34.0025 120.193 30.665C120.193 27.3172 122.136 25.146 125.147 25.146C128.108 25.146 129.97 27.1745 129.97 30.4106V31.1612H122.41V31.2936C122.376 31.6864 122.425 32.0821 122.555 32.4545C122.685 32.8268 122.894 33.1672 123.166 33.4532C123.438 33.7391 123.768 33.964 124.135 34.1129C124.501 34.2618 124.895 34.3313 125.29 34.3168C125.809 34.3653 126.33 34.2454 126.775 33.9749C127.221 33.7044 127.566 33.2978 127.761 32.8156L129.848 32.8156ZM122.421 29.6301H127.772C127.792 29.2769 127.738 28.9235 127.614 28.5919C127.49 28.2604 127.299 27.958 127.053 27.7037C126.806 27.4493 126.51 27.2485 126.182 27.1138C125.854 26.9792 125.501 26.9136 125.147 26.9212C124.789 26.9191 124.434 26.9876 124.103 27.1229C123.772 27.2582 123.471 27.4575 123.218 27.7093C122.964 27.9612 122.763 28.2606 122.627 28.5902C122.49 28.9199 122.42 29.2733 122.421 29.6301V29.6301Z" fill="white"/><path d="M43.9668 13.266H44.91C45.0724 13.2862 45.2371 13.2726 45.394 13.2261C45.5508 13.1796 45.6963 13.1012 45.8212 12.9959C45.9462 12.8905 46.0479 12.7605 46.12 12.614C46.192 12.4675 46.2329 12.3077 46.2399 12.1447C46.2399 11.496 45.7504 11.0769 44.9204 11.0769C44.754 11.0538 44.5847 11.0641 44.4224 11.1072C44.2601 11.1504 44.1081 11.2255 43.9755 11.3282C43.8428 11.4309 43.7321 11.5591 43.6499 11.7052C43.5677 11.8512 43.5157 12.0122 43.4969 12.1787H42.4613C42.4791 11.8765 42.5592 11.5813 42.6964 11.3113C42.8336 11.0413 43.025 10.8024 43.2589 10.6094C43.4927 10.4165 43.7638 10.2735 44.0554 10.1896C44.347 10.1056 44.6528 10.0824 44.9538 10.1214C46.3427 10.1214 47.3206 10.8968 47.3206 12.0129C47.3238 12.3868 47.1984 12.7505 46.9651 13.0433C46.7319 13.3361 46.405 13.5403 46.0391 13.6218V13.7047C46.4729 13.7238 46.8815 13.9135 47.1755 14.2323C47.4695 14.551 47.625 14.9729 47.608 15.4056C47.5759 15.7167 47.4818 16.0183 47.3313 16.2926C47.1808 16.567 46.9769 16.8087 46.7316 17.0034C46.4862 17.1982 46.2043 17.3422 45.9024 17.4269C45.6005 17.5116 45.2847 17.5354 44.9735 17.4968C44.6616 17.5392 44.3444 17.5186 44.0407 17.4361C43.737 17.3536 43.453 17.211 43.2058 17.0168C42.9585 16.8226 42.753 16.5807 42.6015 16.3055C42.45 16.0304 42.3556 15.7277 42.324 15.4154H43.3757C43.4392 16.0883 44.0592 16.5224 44.9735 16.5224C45.8878 16.5224 46.4847 16.0348 46.4847 15.3475C46.4847 14.6504 45.9225 14.221 44.94 14.221H43.9668V13.266Z" fill="white"/><path d="M48.8028 15.8249C48.8028 14.8694 49.5174 14.3185 50.7827 14.2402L52.2247 14.1573V13.6991C52.2247 13.1385 51.8541 12.8219 51.1348 12.8219C50.5484 12.8219 50.1431 13.0366 50.0254 13.4119H49.0083C49.1157 12.5001 49.9769 11.9153 51.1845 11.9153C52.519 11.9153 53.2718 12.5778 53.2718 13.6991V17.3261H52.2593V16.5801H52.1762C52.0075 16.8477 51.7705 17.0659 51.4896 17.2123C51.2087 17.3587 50.8939 17.4282 50.5772 17.4136C50.3538 17.4367 50.1279 17.413 49.9142 17.3438C49.7005 17.2746 49.5037 17.1615 49.3365 17.0118C49.1694 16.8621 49.0355 16.6792 48.9436 16.4747C48.8516 16.2703 48.8037 16.0489 48.8028 15.8249ZM52.2247 15.3713V14.9275L50.9247 15.0104C50.1916 15.0593 49.8591 15.308 49.8591 15.776C49.8591 16.2537 50.2747 16.5317 50.8462 16.5317C51.0137 16.5486 51.1828 16.5318 51.3436 16.4822C51.5044 16.4326 51.6535 16.3512 51.7821 16.2429C51.9107 16.1347 52.0162 16.0017 52.0922 15.852C52.1682 15.7022 52.2133 15.5387 52.2247 15.3713Z" fill="white"/><path d="M56.0598 12.9002V17.3267H55.0093V12.0183H58.5143V12.9001L56.0598 12.9002Z" fill="white"/><path d="M64.8811 14.6699C64.8811 16.3565 64.0257 17.4139 62.6819 17.4139C62.352 17.4364 62.0225 17.3644 61.7323 17.2064C61.4421 17.0485 61.2032 16.8111 61.0437 16.5223H60.9605V19.0913H59.91V12.018H60.9213V12.8953H60.9998C61.1622 12.5964 61.4042 12.3481 61.6992 12.1777C61.9942 12.0074 62.3307 11.9216 62.6715 11.93C64.0257 11.93 64.8811 12.9828 64.8811 14.6699ZM63.8006 14.6699C63.8006 13.5486 63.2683 12.8711 62.3782 12.8711C61.494 12.8711 60.9409 13.563 60.9409 14.6745C60.9409 15.7809 61.4939 16.4733 62.3736 16.4733C63.2683 16.4733 63.8006 15.7958 63.8006 14.6699Z" fill="white"/><path d="M66.2805 19.228V18.326C66.3942 18.3404 66.5087 18.3469 66.6233 18.3455C66.8472 18.3621 67.0692 18.2956 67.2469 18.1589C67.4246 18.0221 67.5454 17.8248 67.5862 17.6047L67.6647 17.3462L65.7379 12.0183H66.8819L68.2166 16.2347H68.2997L69.6296 12.0183H70.7437L68.7592 17.546C68.3043 18.8377 67.801 19.2521 66.7158 19.2521C66.628 19.2521 66.3786 19.2423 66.2805 19.228Z" fill="white"/><path d="M71.5622 15.8198H72.6082C72.7109 16.2878 73.1508 16.5318 73.7661 16.5318C74.4657 16.5318 74.8952 16.2244 74.8952 15.7467C74.8952 15.235 74.5096 14.9909 73.7661 14.9909H72.9695V14.177H73.7522C74.3872 14.177 74.7104 13.9335 74.7104 13.4897C74.7104 13.1 74.3976 12.8024 73.7522 12.8024C73.1646 12.8024 72.7351 13.0511 72.667 13.4701H71.6546C71.7302 12.9886 71.9924 12.5559 72.3847 12.2652C72.777 11.9744 73.268 11.8488 73.7522 11.9154C75.0175 11.9154 75.7414 12.4858 75.7414 13.3826C75.7473 13.6324 75.6671 13.8766 75.5141 14.0744C75.3611 14.2722 75.1446 14.4116 74.9009 14.4694V14.5523C75.1911 14.5896 75.4574 14.7319 75.6494 14.952C75.8413 15.1722 75.9455 15.455 75.9423 15.7467C75.9423 16.7558 75.081 17.4235 73.7661 17.4235C72.6035 17.4234 71.6592 16.8922 71.5622 15.8198Z" fill="white"/><path d="M77.4552 17.3267V12.0183H78.4965V15.6695H78.5797L81.0329 12.0183H82.0743V17.3267H81.0329V13.656H80.9544L78.4965 17.3267L77.4552 17.3267Z" fill="white"/><path d="M87.8109 12.9001H86.1345V17.3266H85.0828V12.9001H83.4065V12.0183H87.8109V12.9001Z" fill="white"/><path d="M93.47 15.8929C93.3268 16.378 93.0173 16.7976 92.5955 17.0783C92.1737 17.359 91.6664 17.483 91.1622 17.4287C90.8115 17.4379 90.463 17.3709 90.1408 17.2324C89.8187 17.0938 89.5306 16.887 89.2967 16.6263C89.0627 16.3656 88.8884 16.0573 88.7859 15.7227C88.6835 15.3881 88.6552 15.0353 88.7032 14.6887C88.6565 14.3411 88.6852 13.9875 88.7875 13.6519C88.8897 13.3163 89.0631 13.0065 89.2958 12.7436C89.5285 12.4806 89.8152 12.2706 90.1364 12.1277C90.4576 11.9848 90.8059 11.9124 91.1576 11.9154C92.6388 11.9154 93.5335 12.9245 93.5335 14.5914V14.957H89.7745V15.0157C89.7579 15.2105 89.7823 15.4067 89.8462 15.5916C89.9101 15.7764 90.0121 15.9459 90.1456 16.0892C90.2792 16.2324 90.4412 16.3462 90.6215 16.4232C90.8017 16.5002 90.9961 16.5388 91.1922 16.5364C91.4434 16.5664 91.6977 16.5212 91.923 16.4066C92.1483 16.292 92.3344 16.1132 92.4575 15.8929L93.47 15.8929ZM89.7745 14.1822H92.4621C92.4754 14.0041 92.4512 13.8252 92.391 13.6571C92.3309 13.4889 92.2361 13.3351 92.1128 13.2056C91.9895 13.0761 91.8404 12.9737 91.6751 12.9051C91.5098 12.8365 91.332 12.8031 91.153 12.807C90.9712 12.8046 90.7908 12.8384 90.6224 12.9067C90.454 12.9749 90.301 13.0761 90.1725 13.2043C90.044 13.3325 89.9426 13.4851 89.8743 13.6531C89.8059 13.821 89.772 14.0009 89.7745 14.1822H89.7745Z" fill="white"/><path d="M97.924 12.0183H100.324C101.365 12.0183 101.976 12.5444 101.976 13.3681C101.978 13.6295 101.889 13.8835 101.726 14.0876C101.562 14.2917 101.333 14.4336 101.077 14.4894V14.5723C101.388 14.5919 101.679 14.7298 101.891 14.9575C102.103 15.1853 102.219 15.4855 102.215 15.7961C102.215 16.7222 101.517 17.3267 100.348 17.3267H97.924V12.0183ZM98.9653 12.8225V14.197H100.007C100.642 14.197 100.945 13.9535 100.945 13.5045C100.945 13.0907 100.681 12.8224 100.123 12.8224L98.9653 12.8225ZM98.9653 14.9672V16.5225H100.211C100.832 16.5225 101.165 16.2491 101.165 15.7472C101.165 15.2159 100.788 14.9672 100.079 14.9672L98.9653 14.9672Z" fill="white"/></g><defs><clipPath id="clip0_303_3683"><rect width="141.464" height="47.1548" fill="white" transform="translate(0.535583)"/></clipPath></defs></svg>