<svg width="993" height="330" viewBox="0 0 993 330" fill="none" xmlns="http://www.w3.org/2000/svg"><g style="mix-blend-mode:overlay" opacity="0.3"><path d="M605.54 332.983C610.465 342.943 612.839 347.974 617.384 358.101C624.996 359.975 628.843 360.937 636.594 362.919C643.193 355.473 646.327 351.721 652.316 344.149C633.127 339.407 623.779 337.192 605.54 332.983Z" fill="white"/><path d="M589.43 302.265C594.826 311.987 597.43 316.907 602.462 326.806C609.83 328.484 613.548 329.323 621.074 331.079C626.829 323.551 629.57 319.766 634.723 312.139C616.131 307.943 607.068 305.969 589.44 302.25L589.43 302.265Z" fill="white"/><path d="M487.835 161.163C495.411 169.458 499.1 173.672 506.36 182.216C512.476 183.108 515.576 183.581 521.853 184.51C523.56 177.217 524.265 173.606 525.402 166.382C509.9 164.21 502.403 163.177 487.851 161.174L487.835 161.163Z" fill="white"/><path d="M532.503 214.896C539.231 223.811 542.523 228.33 548.917 237.484C555.54 238.63 558.89 239.216 565.68 240.425C568.988 232.921 570.476 229.16 573.193 221.647C556.441 218.798 548.304 217.469 532.503 214.896Z" fill="white"/><path d="M510.814 187.549C517.967 196.154 521.465 200.525 528.301 209.379C534.667 210.386 537.891 210.915 544.435 211.969C546.931 204.552 548.037 200.851 549.939 193.467C533.806 190.984 525.984 189.811 510.824 187.534L510.814 187.549Z" fill="white"/><path d="M571.855 272.313C577.705 281.787 580.549 286.579 586.052 296.241C593.175 297.723 596.788 298.474 604.053 300.023C608.978 292.466 611.301 288.653 615.62 281.036C597.63 277.346 588.876 275.609 571.838 272.303L571.855 272.313Z" fill="white"/><path d="M552.877 243.168C559.174 252.368 562.242 257.023 568.19 266.451C575.06 267.753 578.541 268.421 585.578 269.785C589.696 262.234 591.598 258.434 595.117 250.849C577.74 247.607 569.299 246.067 552.877 243.168Z" fill="white"/><path d="M548.588 348.312C553.334 343.929 555.645 341.709 560.146 337.278C556.038 327.66 553.887 322.896 549.392 313.42C539.37 324.458 533.994 329.918 522.558 340.687C532.774 343.64 537.964 345.168 548.579 348.328L548.588 348.312Z" fill="white"/><path d="M463.584 135.815C471.551 143.779 475.451 147.804 483.108 156.043C488.965 156.837 491.94 157.252 497.967 158.068C498.889 150.966 499.22 147.439 499.579 140.431C484.711 138.529 477.523 137.625 463.601 135.825L463.584 135.815Z" fill="white"/><path d="M488.613 237.715C481.05 235.873 477.327 234.967 470.017 233.197C474.191 240.296 476.232 243.881 480.185 251.076C483.717 245.739 485.398 243.059 488.613 237.715Z" fill="white"/><path d="M504.581 265.549C496.745 263.556 492.907 262.578 485.314 260.674C489.134 267.935 490.983 271.57 494.565 278.917C498.731 273.593 500.739 270.905 504.564 265.539L504.581 265.549Z" fill="white"/><path d="M519.161 293.985C511.062 291.827 507.076 290.756 499.236 288.696C502.695 296.094 504.359 299.805 507.564 307.277C512.354 301.983 514.685 299.327 519.145 293.974L519.161 293.985Z" fill="white"/><path d="M432.603 158.391C425.832 156.895 422.52 156.14 416.014 154.661C421.235 161.223 423.793 164.534 428.791 171.233C430.483 166.086 431.247 163.514 432.62 158.401L432.603 158.391Z" fill="white"/><path d="M452.576 184.085C445.545 182.49 442.089 181.709 435.314 180.147C440.188 186.896 442.567 190.309 447.228 197.18C449.52 191.918 450.587 189.302 452.576 184.085Z" fill="white"/><path d="M438.13 111.546C446.481 119.153 450.571 123.021 458.612 130.903C464.217 131.624 467.067 131.983 472.825 132.715C472.986 125.839 472.933 122.413 472.527 115.672C458.296 113.998 451.419 113.183 438.12 111.561L438.13 111.546Z" fill="white"/><path d="M532.332 322.986C523.972 320.622 519.871 319.479 511.761 317.229C514.842 324.752 516.331 328.524 519.158 336.122C524.596 330.892 527.225 328.274 532.332 322.986Z" fill="white"/><path d="M536.365 318.752C540.568 314.284 542.613 312.047 546.578 307.557C542.002 298.136 539.623 293.443 534.677 284.174C525.953 295.301 521.251 300.821 511.133 311.756C521.039 314.472 526.084 315.866 536.365 318.752Z" fill="white"/><path d="M471.27 210.535C463.964 208.832 460.383 207.994 453.349 206.333C457.876 213.27 460.086 216.769 464.393 223.802C467.314 218.487 468.685 215.826 471.27 210.535Z" fill="white"/><path d="M354.87 45.7429C364.295 52.1887 368.929 55.4804 378.084 62.2474C382.952 62.8263 385.412 63.1108 390.427 63.6752C388.391 57.7039 387.24 54.7842 384.681 49.0611C372.317 47.8123 366.348 47.161 354.887 45.7532L354.87 45.7429Z" fill="white"/><path d="M335.853 48.6629C335.105 46.3802 334.693 45.2463 333.864 43.0196C324.799 36.5859 320.189 33.4378 310.847 27.2996C311.916 29.3996 312.445 30.4573 313.442 32.5979C322.561 38.8731 327.038 42.0871 335.87 48.6732L335.853 48.6629Z" fill="white"/><path d="M336.79 40.1828C339.817 40.5881 341.355 40.8062 344.444 41.1862C335.03 34.8326 330.245 31.745 320.577 25.7228C317.619 25.3179 316.14 25.1154 313.234 24.7006C322.78 30.7323 327.514 33.8299 336.79 40.1828Z" fill="white"/><path d="M383.729 66.4509C392.809 73.2994 397.277 76.7848 406.07 83.9442C411.177 84.5449 413.764 84.8454 419.025 85.4572C417.707 79.1467 416.903 76.0393 415.048 69.9256C402.056 68.5814 395.805 67.9029 383.729 66.4509Z" fill="white"/><path d="M411.51 88.4022C420.239 95.6278 424.512 99.3119 432.938 106.838C438.29 107.486 441.013 107.828 446.528 108.472C445.934 101.848 445.511 98.5737 444.364 92.1361C430.756 90.6401 424.19 89.9138 411.51 88.4022Z" fill="white"/><path d="M388.818 109.542C382.571 108.162 379.511 107.48 373.532 106.076C379.417 112.201 382.289 115.304 387.968 121.576C388.465 116.724 388.627 114.308 388.827 109.527L388.818 109.542Z" fill="white"/><path d="M411.332 133.524C404.84 132.097 401.636 131.388 395.401 129.952C400.964 136.301 403.673 139.515 409.012 146.001C410.095 140.983 410.562 138.482 411.332 133.524Z" fill="white"/><path d="M365.066 86.4702C359.091 85.1326 356.152 84.441 350.411 83.0586C356.605 88.9496 359.664 91.9358 365.641 97.9895C365.559 93.3293 365.447 91.0193 365.066 86.4702Z" fill="white"/><path d="M339.361 60.9556C338.495 57.3615 338.022 55.5923 336.952 52.1046C328.28 45.4477 323.848 42.1981 314.882 35.8264C318.388 43.9152 319.847 48.1372 322.156 56.8187C328.87 58.5135 332.298 59.3408 339.361 60.9556Z" fill="white"/><path d="M340.143 64.3903C334.416 63.0591 331.605 62.3836 326.096 60.9973C332.606 66.6391 335.811 69.5032 342.121 75.318C341.474 70.9006 341.08 68.712 340.143 64.3903Z" fill="white"/><path d="M317.397 53.5776C316.201 49.4133 315.531 47.3718 314.043 43.3442C308.548 42.0091 305.857 41.324 300.616 39.9135C307.427 45.2957 310.787 48.0224 317.397 53.5776Z" fill="white"/><path d="M540.335 266.451C534.847 257.205 532.023 252.638 526.178 243.594C524.347 246.585 523.406 248.086 521.491 251.066C527.051 260.123 529.739 264.69 534.952 273.935C537.152 270.94 538.23 269.441 540.335 266.451Z" fill="white"/><path d="M522.53 237.998C516.604 229.011 513.549 224.555 507.276 215.755C505.798 218.733 505.03 220.214 503.45 223.17C509.439 231.984 512.357 236.439 518.015 245.451C519.888 242.465 520.777 240.974 522.539 237.983L522.53 237.998Z" fill="white"/><path d="M571.711 325.5C567.152 315.834 564.771 311.033 559.832 301.534C557.316 304.521 556.015 306.01 553.397 308.976C558.045 318.463 560.298 323.248 564.576 332.887C567.475 329.948 568.913 328.46 571.727 325.511L571.711 325.5Z" fill="white"/><path d="M556.745 295.629C551.718 286.159 549.107 281.47 543.707 272.194C541.534 275.183 540.429 276.688 538.144 279.671C543.261 288.961 545.727 293.624 550.463 303.082C553.022 300.1 554.271 298.621 556.728 295.618L556.745 295.629Z" fill="white"/><path d="M364.727 82.843C364.338 79.0363 364.07 77.1607 363.47 73.4348C355.156 66.4265 350.908 62.9935 342.3 56.2704C344.701 64.9882 345.591 69.494 346.757 78.7173C353.772 80.4087 357.363 81.2317 364.717 82.8583L364.727 82.843Z" fill="white"/><path d="M292.204 35.5106C283.859 28.9527 279.588 25.7398 270.96 19.4518C275.722 27.6241 277.759 31.9106 281.139 40.859C288.838 47.7155 292.603 51.1869 299.987 58.2517C297.581 48.8477 296.024 44.3076 292.241 35.5978C292.218 35.5618 292.237 35.5312 292.214 35.4953L292.204 35.5106Z" fill="white"/><path d="M348.985 41.7734C353.605 42.3459 355.954 42.6247 360.713 43.157C357.99 37.5866 356.482 34.8698 353.243 29.5732C341.468 28.3737 335.815 27.7291 324.929 26.3193C334.691 32.3368 339.503 35.4194 348.985 41.7734Z" fill="white"/><path d="M503.359 210.332C496.995 201.603 493.742 197.279 487.039 188.764C485.89 191.692 485.311 193.164 484.068 196.096C490.494 204.651 493.627 208.985 499.696 217.742C501.207 214.786 501.933 213.299 503.359 210.332Z" fill="white"/><path d="M388.692 91.9674C388.555 89.4064 388.461 88.1308 388.229 85.5744C379.883 78.3969 375.624 74.8718 366.985 67.9795C367.456 70.4092 367.675 71.6341 368.075 74.1044C376.475 81.1234 380.593 84.6888 388.692 91.9674Z" fill="white"/><path d="M461.055 157.549C453.856 149.384 450.189 145.355 442.689 137.45C442.212 140.223 441.955 141.619 441.38 144.438C448.626 152.418 452.179 156.483 459.091 164.702C459.927 161.834 460.314 160.412 461.055 157.549Z" fill="white"/><path d="M482.847 183.488C476.062 175.028 472.602 170.852 465.484 162.631C464.674 165.495 464.252 166.936 463.347 169.804C470.195 178.09 473.525 182.291 480.032 190.79C481.197 187.873 481.767 186.416 482.847 183.488Z" fill="white"/><path d="M413.703 108.533C405.732 101.014 401.657 97.3057 393.385 90.0467C393.548 92.6027 393.607 93.8986 393.699 96.4952C401.724 103.855 405.668 107.589 413.367 115.213C413.538 112.526 413.619 111.19 413.703 108.533Z" fill="white"/><path d="M437.992 132.54C430.412 124.691 426.527 120.824 418.63 113.224C418.485 115.907 418.378 117.248 418.144 119.96C425.788 127.636 429.532 131.543 436.858 139.467C437.362 136.689 437.593 135.298 438.002 132.525L437.992 132.54Z" fill="white"/><path d="M370.764 64.8455C379.631 71.6673 384.004 75.1573 392.568 82.2796C395.928 82.702 397.613 82.9056 401.042 83.3284C392.324 76.195 387.892 72.6894 378.897 65.8515C375.613 65.4551 373.98 65.2416 370.747 64.8352L370.764 64.8455Z" fill="white"/><path d="M423.855 109.76C431.987 117.315 435.975 121.161 443.797 128.991C447.488 129.472 449.35 129.722 453.109 130.203C445.143 122.347 441.096 118.485 432.82 110.903C429.195 110.464 427.392 110.229 423.845 109.775L423.855 109.76Z" fill="white"/><path d="M362.842 69.755C362.396 67.3203 362.142 66.1156 361.609 63.7112C352.895 56.9005 348.462 53.5434 339.471 47.0281C340.254 49.2905 340.632 50.4446 341.318 52.7526C350.085 59.4049 354.378 62.8022 362.851 69.7397L362.842 69.755Z" fill="white"/><path d="M388.935 105.733C389.006 101.745 389.01 99.7629 388.878 95.8398C380.939 88.4904 376.891 84.8844 368.641 77.8099C369.899 87.0695 370.214 91.8334 370.207 101.537C377.513 103.24 381.274 104.084 388.952 105.743L388.935 105.733Z" fill="white"/><path d="M397.87 86.7371C406.387 93.9359 410.559 97.5989 418.772 105.098C422.302 105.542 424.072 105.756 427.661 106.216C419.321 98.7004 415.063 95.0268 406.429 87.7965C402.974 87.3787 401.257 87.1545 397.87 86.7371Z" fill="white"/><path d="M411.906 129.574C412.467 125.424 412.709 123.357 413.052 119.262C405.494 111.597 401.621 107.823 393.762 100.418C393.846 110.158 393.564 115.144 392.363 125.251C399.993 126.986 403.897 127.857 411.897 129.59L411.906 129.574Z" fill="white"/><path d="M522.716 289.707C526.39 285.205 528.171 282.952 531.605 278.428C526.571 269.189 523.952 264.623 518.571 255.572C511.167 266.716 507.115 272.26 498.295 283.284C507.872 285.793 512.762 287.068 522.716 289.707Z" fill="white"/><path d="M342.538 44.1513C351.757 50.5961 356.297 53.8923 365.239 60.6326C368.429 61.0336 370.035 61.2521 373.303 61.6382C364.234 54.8819 359.626 51.5853 350.286 45.1501C347.165 44.7494 345.617 44.5466 342.548 44.136L342.538 44.1513Z" fill="white"/><path d="M433.666 154.32C434.741 150.045 435.211 147.907 436.062 143.662C428.901 135.692 425.235 131.77 417.741 124.039C416.623 134.198 415.754 139.349 413.313 149.788C421.264 151.597 425.329 152.504 433.666 154.32Z" fill="white"/><path d="M491.138 233.433C493.757 228.93 495.005 226.684 497.392 222.185C491.469 213.413 488.431 209.075 482.161 200.49C477.325 211.453 474.563 216.953 468.353 227.95C477.285 230.097 481.826 231.197 491.155 233.443L491.138 233.433Z" fill="white"/><path d="M507.622 261.248C510.756 256.728 512.263 254.473 515.175 249.941C509.696 240.936 506.856 236.466 501.031 227.648C494.91 238.722 491.518 244.275 484.008 255.331C493.256 257.634 497.988 258.831 507.613 261.264L507.622 261.248Z" fill="white"/><path d="M473.304 206.306C475.387 201.852 476.378 199.614 478.245 195.174C471.894 186.646 468.643 182.429 461.968 174.124C458.391 184.874 456.268 190.305 451.326 201.181C459.933 203.188 464.317 204.21 473.297 206.28L473.304 206.306Z" fill="white"/><path d="M454.134 179.92C455.714 175.535 456.444 173.347 457.8 168.991C451.044 160.742 447.569 156.663 440.49 148.637C438.157 159.122 436.66 164.434 432.983 175.122C441.246 177.019 445.488 177.974 454.143 179.904L454.134 179.92Z" fill="white"/><path d="M570.394 298.303C575.586 307.875 578.084 312.707 582.895 322.447C587.773 323.522 590.25 324.073 595.203 325.175C590.253 315.327 587.682 310.429 582.358 300.773C577.527 299.77 575.133 299.27 570.378 298.293L570.394 298.303Z" fill="white"/><path d="M448.635 133.861C456.376 141.747 460.18 145.777 467.604 153.912C471.472 154.439 473.419 154.701 477.346 155.244C469.781 147.041 465.908 143.011 458.032 135.084C454.23 134.597 452.352 134.336 448.618 133.851L448.635 133.861Z" fill="white"/><path d="M585.86 328.51C590.574 338.295 592.842 343.238 597.193 353.2C602.242 354.405 604.791 355.023 609.906 356.269C605.443 346.193 603.109 341.209 598.257 331.315C593.254 330.183 590.787 329.616 585.877 328.52L585.86 328.51Z" fill="white"/><path d="M494.489 185.117C501.425 193.629 504.815 197.953 511.417 206.704C515.619 207.356 517.741 207.705 522.019 208.383C515.275 199.566 511.826 195.225 504.749 186.647C500.596 186.025 498.557 185.728 494.489 185.117Z" fill="white"/><path d="M472.187 159.006C479.537 167.223 483.134 171.4 490.15 179.855C494.186 180.445 496.224 180.743 500.328 181.333C493.171 172.81 489.505 168.633 482.004 160.364C478.035 159.815 476.071 159.544 472.17 158.996L472.187 159.006Z" fill="white"/><path d="M553.474 268.805C559.119 278.129 561.848 282.849 567.137 292.376C571.86 293.333 574.238 293.822 579.019 294.795C573.608 285.17 570.804 280.424 565.02 270.992C560.37 270.101 558.048 269.669 553.474 268.805Z" fill="white"/><path d="M535.181 240.068C541.281 249.144 544.224 253.742 549.967 263.021C554.508 263.864 556.813 264.286 561.43 265.156C555.555 255.795 552.53 251.144 546.315 241.997C541.83 241.21 539.6 240.814 535.191 240.053L535.181 240.068Z" fill="white"/><path d="M515.494 212.163C522.015 220.97 525.182 225.431 531.363 234.451C535.74 235.191 537.953 235.577 542.405 236.343C536.093 227.24 532.851 222.753 526.188 213.879C521.877 213.18 519.73 212.836 515.494 212.163Z" fill="white"/><path d="M557.632 194.005C565.415 202.92 569.213 207.437 576.66 216.632C576.745 216.643 576.824 216.628 576.909 216.638C594.807 219.78 604.047 221.437 623.051 224.975C615.086 215.433 611.025 210.752 602.732 201.516C584.124 198.335 575.105 196.837 557.632 194.005Z" fill="white"/><path d="M581.254 222.33C588.62 231.581 592.208 236.285 599.205 245.796C599.29 245.806 599.368 245.792 599.47 245.813C618.034 249.393 627.583 251.288 647.231 255.335C639.719 245.438 635.861 240.543 628.004 230.941C608.75 227.29 599.395 225.56 581.254 222.33Z" fill="white"/><path d="M532.727 166.774C540.921 175.328 544.928 179.656 552.802 188.5C552.887 188.511 552.949 188.485 553.041 188.522C570.288 191.276 579.181 192.717 597.54 195.784C589.162 186.645 584.875 182.142 576.168 173.309C558.235 170.55 549.546 169.26 532.737 166.759L532.727 166.774Z" fill="white"/><path d="M643.838 313.483C649.828 323.684 652.742 328.841 658.349 339.25C658.451 339.271 658.545 339.266 658.647 339.287C679.086 344.45 689.581 347.215 711.098 353.075C705.01 342.151 701.871 336.768 695.398 326.093C674.234 320.731 663.929 318.213 643.864 313.478L643.838 313.483Z" fill="white"/><path d="M624.391 282.122C630.847 292.019 633.995 297.023 640.082 307.179C640.184 307.2 640.262 307.185 640.363 307.206C660.198 311.798 670.372 314.233 691.279 319.455C684.706 308.866 681.317 303.625 674.349 293.301C653.813 288.547 643.822 286.333 624.381 282.138L624.391 282.122Z" fill="white"/><path d="M603.533 251.733C610.456 261.325 613.821 266.167 620.374 276.018C620.46 276.029 620.554 276.024 620.639 276.035C639.84 280.1 649.706 282.257 669.995 286.856C662.946 276.588 659.321 271.54 651.893 261.546C631.988 257.359 622.314 255.407 603.517 251.723L603.533 251.733Z" fill="white"/><path d="M514.296 339.666C510.99 330.38 509.233 325.757 505.533 316.586C494.488 328.412 488.555 334.249 475.86 345.744C478.405 354.744 479.586 359.262 481.766 368.332C495.513 357.134 501.971 351.413 514.089 339.813C514.144 339.762 514.232 339.732 514.287 339.681L514.296 339.666Z" fill="white"/><path d="M503.22 310.911C499.442 301.755 497.457 297.203 493.301 288.173C483.666 300.094 478.456 306.022 467.172 317.718C470.176 326.644 471.592 331.117 474.231 340.113C486.564 328.647 492.324 322.83 503.023 311.043C503.061 310.981 503.149 310.951 503.204 310.9L503.22 310.911Z" fill="white"/><path d="M276.303 36.6091C272.712 27.8491 270.558 23.6387 265.619 15.6755C265.596 15.6395 265.589 15.6139 265.582 15.5882C256.863 9.37143 252.418 6.32663 243.405 0.395029C249.293 7.75912 251.921 11.6904 256.481 19.9281C264.568 26.4949 268.54 29.8188 276.303 36.6091Z" fill="white"/><path d="M256.439 1.89314C254.248 -0.868304 253.104 -2.22625 250.725 -4.87092C241.005 -10.371 236.088 -13.0292 226.105 -18.1826C232.748 -12.3506 235.79 -9.22621 241.349 -2.58076C247.22 -0.711183 250.24 0.180544 256.423 1.8828L256.439 1.89314Z" fill="white"/><path d="M251.402 15.8453C246.632 7.79592 243.911 3.97679 237.855 -3.1936C237.822 -3.21426 237.825 -3.25521 237.792 -3.27587C228.714 -9.14124 224.102 -11.9924 214.731 -17.5726C221.716 -11.0783 224.903 -7.56391 230.613 -0.0983624C239.081 6.15293 243.234 9.33448 251.411 15.83L251.402 15.8453Z" fill="white"/><path d="M506.561 140.714C515.141 148.871 519.366 153.036 527.633 161.508C527.702 161.509 527.771 161.509 527.856 161.52C544.448 163.928 553.003 165.177 570.693 167.847C561.902 159.11 557.421 154.805 548.308 146.4C531.053 144.024 522.696 142.899 506.561 140.714Z" fill="white"/><path d="M420.968 70.034C430.644 76.9574 435.416 80.5058 444.828 87.776C444.896 87.7763 444.948 87.7664 445.017 87.7667C459.627 89.4217 467.189 90.2404 482.868 91.9471C472.935 84.5205 467.91 80.899 457.72 73.8449C442.475 72.3248 435.139 71.5842 420.985 70.0443L420.968 70.034Z" fill="white"/><path d="M390.235 49.1315C400.258 55.6113 405.2 58.925 414.95 65.7669C415.018 65.7673 415.07 65.7573 415.129 65.773C429.08 67.2708 436.315 67.9904 451.315 69.4631C441.041 62.5058 435.846 59.119 425.323 52.5598C410.76 51.2328 403.745 50.5656 390.242 49.1572L390.235 49.1315Z" fill="white"/><path d="M479.171 115.871C488.138 123.631 492.556 127.597 501.201 135.688C501.286 135.698 501.338 135.688 501.407 135.689C517.332 137.807 525.555 138.89 542.584 141.188C533.397 132.864 528.729 128.783 519.243 120.827C502.652 118.782 494.637 117.807 479.161 115.887L479.171 115.871Z" fill="white"/><path d="M358.487 29.6628C368.834 35.663 373.927 38.7727 384.017 45.1453C384.085 45.1457 384.111 45.1407 384.18 45.1411C397.486 46.5331 404.384 47.1689 418.734 48.4692C408.137 41.9915 402.779 38.865 391.948 32.7957C378.053 31.6105 371.368 31.0014 358.487 29.6628Z" fill="white"/><path d="M450.625 92.2873C459.963 99.639 464.558 103.396 473.59 111.09C473.658 111.09 473.711 111.08 473.796 111.091C489.061 112.944 496.959 113.887 513.297 115.858C503.737 107.983 498.883 104.127 489.033 96.6037C473.135 94.8446 465.454 93.9946 450.625 92.2873Z" fill="white"/><path d="M325.756 11.6894C336.4 17.2149 341.673 20.0746 352.051 25.9879C352.103 25.9779 352.146 25.9833 352.214 25.9837C364.883 27.2955 371.473 27.9092 385.155 29.0677C374.257 23.1056 368.745 20.224 357.604 14.6856C344.354 13.6063 337.994 13.0296 325.763 11.715L325.756 11.6894Z" fill="white"/><path d="M285.29 -7.85113C285.29 -7.85113 285.358 -7.85076 285.427 -7.85039C296.867 -6.51954 302.816 -5.94506 315.213 -4.93171C303.747 -9.84201 297.958 -12.172 286.282 -16.6379C274.307 -17.6644 268.563 -18.2378 257.54 -19.6484C268.75 -15.1337 274.313 -12.7742 285.29 -7.85113Z" fill="white"/><path d="M292.084 -4.78382C303.019 0.241431 308.429 2.8459 319.131 8.27956C319.173 8.2849 319.226 8.27495 319.268 8.2803C331.319 9.5888 337.569 10.1597 350.623 11.2227C339.424 5.77614 333.766 3.16524 322.367 -1.85224C309.757 -2.89233 303.714 -3.46219 292.084 -4.78382Z" fill="white"/><path d="M365.062 101.253C357.859 93.79 354.176 90.1143 346.659 82.8593C347.8 92.9632 347.984 98.1565 347.641 108.759C354.131 116.373 357.287 120.23 363.455 128.026C364.836 117.157 365.16 111.813 365.037 101.366C365.04 101.325 365.068 101.279 365.071 101.238L365.062 101.253Z" fill="white"/><path d="M633.121 306.354C628.224 298.14 625.726 294.076 620.58 286.004C616.945 292.237 615.031 295.325 610.987 301.514C619.723 303.389 624.161 304.36 633.121 306.354Z" fill="white"/><path d="M570.56 216.261C564.566 208.81 561.51 205.122 555.299 197.833C553.641 203.876 552.726 206.908 550.664 212.975C558.513 214.251 562.484 214.907 570.56 216.261Z" fill="white"/><path d="M592.803 245.321C587.161 237.6 584.287 233.77 578.419 226.227C576.119 232.38 574.867 235.435 572.156 241.586C580.302 243.048 584.43 243.782 592.803 245.321Z" fill="white"/><path d="M651.108 338.249C646.603 329.812 644.293 325.631 639.539 317.336C635.228 323.55 632.987 326.646 628.26 332.791C637.28 334.908 641.848 336.003 651.098 338.264L651.108 338.249Z" fill="white"/><path d="M410.563 65.8099C402.692 60.2531 398.698 57.5127 390.64 52.1802C392.64 56.8916 393.559 59.3032 395.205 64.1765C401.234 64.8436 404.293 65.162 410.546 65.7995L410.563 65.8099Z" fill="white"/><path d="M440.143 87.7817C432.545 81.8627 428.716 78.9696 420.931 73.275C422.361 78.3111 422.987 80.8594 424.066 86.0164C430.392 86.7209 433.611 87.0761 440.143 87.7817Z" fill="white"/><path d="M468.641 111.079C461.348 104.818 457.651 101.752 450.146 95.7206C450.991 101.03 451.309 103.705 451.786 109.125C458.408 109.908 461.787 110.3 468.631 111.094L468.641 111.079Z" fill="white"/><path d="M522.085 161.356C515.408 154.479 512.033 151.082 505.164 144.403C504.779 150.137 504.499 153.033 503.724 158.841C510.949 159.832 514.63 160.328 522.085 161.356Z" fill="white"/><path d="M495.964 135.624C488.984 129.048 485.435 125.818 478.236 119.446C478.473 124.993 478.492 127.778 478.355 133.41C485.288 134.282 488.802 134.715 495.964 135.624Z" fill="white"/><path d="M546.959 188.269C540.628 181.097 537.392 177.552 530.851 170.569C529.829 176.477 529.226 179.449 527.832 185.402C535.366 186.523 539.205 187.096 546.959 188.269Z" fill="white"/><path d="M613.693 275.368C608.42 267.388 605.734 263.441 600.219 255.628C597.246 261.829 595.675 264.918 592.301 271.101C600.743 272.749 605.017 273.617 613.693 275.368Z" fill="white"/><path d="M476.788 254.771C472.096 245.938 469.662 241.552 464.626 232.866C457.787 244.792 453.972 250.763 445.516 262.633C449.435 271.344 451.304 275.717 454.858 284.497C464.381 272.719 468.742 266.792 476.633 254.908C476.672 254.847 476.717 254.811 476.772 254.76L476.788 254.771Z" fill="white"/><path d="M341.974 78.4049C334.382 71.2315 330.502 67.6878 322.604 60.7483C324.975 70.2801 325.803 75.2157 326.728 85.3338C333.62 92.7084 336.99 96.4439 343.567 104.027C343.659 93.5658 343.333 88.4537 341.965 78.5278C341.952 78.4765 341.971 78.4459 341.974 78.4049Z" fill="white"/><path d="M386.917 124.971C380.119 117.228 376.634 113.42 369.495 105.891C369.369 116.479 368.928 121.9 367.271 132.916C373.342 140.757 376.294 144.721 382.053 152.729C384.743 141.529 385.698 135.984 386.873 125.114C386.885 125.058 386.921 125.037 386.917 124.971Z" fill="white"/><path d="M317.675 56.4619C309.696 49.5783 305.632 46.218 297.351 39.5939C300.934 48.4767 302.381 53.1186 304.544 62.6903C311.847 69.8111 315.405 73.4298 322.394 80.7588C321.235 70.793 320.282 65.949 317.683 56.5951C317.67 56.5438 317.679 56.5285 317.682 56.4876L317.675 56.4619Z" fill="white"/><path d="M264.451 13.1496C262.191 9.61972 260.993 7.90817 258.465 4.55094C253.439 3.12624 250.983 2.3963 246.168 0.890795C253.566 5.70262 257.236 8.15442 264.441 13.1649L264.451 13.1496Z" fill="white"/><path d="M490.724 282.589C486.481 273.589 484.285 269.118 479.68 260.255C471.457 272.229 466.94 278.186 457.071 290.003C460.538 298.814 462.179 303.257 465.288 312.163C476.2 300.51 481.264 294.597 490.56 282.741C490.598 282.68 490.67 282.639 490.715 282.604L490.724 282.589Z" fill="white"/><path d="M407.515 149.521C401.119 141.54 397.841 137.585 391.114 129.801C389.689 140.813 388.584 146.415 385.602 157.751C391.248 165.795 394.004 169.85 399.322 178.051C403.351 166.581 404.968 160.896 407.445 149.669C407.474 149.623 407.502 149.577 407.505 149.536L407.515 149.521Z" fill="white"/><path d="M461.494 227.509C456.369 218.853 453.715 214.563 448.243 206.095C442.784 217.905 439.659 223.839 432.61 235.696C436.968 244.256 439.055 248.573 443.072 257.238C451.19 245.432 454.865 239.502 461.398 227.662C461.436 227.601 461.465 227.555 461.51 227.519L461.494 227.509Z" fill="white"/><path d="M285.169 20.4289C283.402 17.3573 282.465 15.852 280.526 12.9075C271.141 7.02005 266.384 4.14254 256.729 -1.42379C262.357 5.22202 264.908 8.76369 269.405 16.1511C275.54 17.9299 278.69 18.7967 285.159 20.4442L285.169 20.4289Z" fill="white"/><path d="M444.821 200.834C439.262 192.396 436.403 188.212 430.49 179.937C426.391 191.554 423.956 197.409 418.269 209.182C423.066 217.59 425.39 221.822 429.837 230.351C436.58 218.579 439.556 212.701 444.709 200.976C444.738 200.93 444.766 200.884 444.805 200.823L444.821 200.834Z" fill="white"/><path d="M426.818 174.817C420.833 166.582 417.76 162.521 411.445 154.483C408.702 165.842 406.936 171.583 402.624 183.173C407.854 191.404 410.389 195.555 415.275 203.933C420.654 192.287 422.948 186.472 426.748 174.965C426.777 174.919 426.806 174.874 426.834 174.828L426.818 174.817Z" fill="white"/><path d="M291.5 32.8291C289.769 28.9692 288.823 27.0746 286.816 23.3617C281.572 21.9922 279.002 21.2974 273.953 19.8368C281.074 24.9441 284.563 27.5384 291.5 32.8291Z" fill="white"/><path d="M318.856 22.6157C323.244 23.1921 325.472 23.4805 330 24.0167C326.586 18.8881 324.755 16.3949 320.858 11.5607C309.674 10.3695 304.305 9.71103 293.99 8.23255C304.073 13.8114 309.046 16.6748 318.865 22.6004L318.856 22.6157Z" fill="white"/><path d="M307.281 20.9872C310.161 21.407 311.614 21.6145 314.546 22.0244C304.795 16.0991 299.859 13.2155 289.854 7.6217C287.042 7.2022 285.641 6.9848 282.892 6.54002C292.776 12.1434 297.66 15.037 307.281 20.9872Z" fill="white"/><path d="M315.553 8.27546C306.886 3.84093 302.527 1.68242 293.713 -2.4815C297.333 1.11197 299.071 2.94927 302.383 6.77665C307.556 7.41868 310.186 7.72457 315.56 8.3011L315.553 8.27546Z" fill="white"/><path d="M348.206 26.0086C339.806 21.1863 335.545 18.8337 326.974 14.2461C330.086 18.2465 331.553 20.2974 334.324 24.5111C339.781 25.1393 342.558 25.4306 348.206 26.0086Z" fill="white"/><path d="M307.748 28.727C306.705 26.622 306.15 25.5693 305.026 23.5202C295.61 17.4635 290.839 14.5347 281.169 8.80956C282.526 10.7063 283.199 11.6828 284.474 13.6354C293.928 19.5233 298.582 22.5283 307.765 28.7373L307.748 28.727Z" fill="white"/><path d="M278.568 9.9937C277.23 8.06635 276.555 7.13079 275.127 5.27464C265.383 -0.368975 260.445 -3.10406 250.454 -8.39056C252.099 -6.69711 252.89 -5.83774 254.454 -4.0884C264.236 1.38643 269.057 4.19772 278.584 10.004L278.568 9.9937Z" fill="white"/><path d="M287.701 4.79897C291.864 5.40489 293.971 5.70288 298.267 6.24295C294.213 1.5872 292.064 -0.656854 287.515 -4.96192C276.909 -6.19616 271.834 -6.88374 262.056 -8.45152C272.444 -3.32166 277.577 -0.677687 287.718 4.80931L287.701 4.79897Z" fill="white"/><path d="M276.749 3.09141C279.472 3.54117 280.847 3.76356 283.632 4.18804C273.57 -1.31389 268.463 -3.96285 258.154 -9.10766C255.499 -9.55706 254.176 -9.78941 251.566 -10.2744C261.772 -5.10967 266.8 -2.44577 276.749 3.09141Z" fill="white"/><path d="M379.895 45.2055C371.751 40.0108 367.632 37.4695 359.301 32.4991C361.856 36.8755 363.07 39.1094 365.277 43.6734C371.008 44.3031 373.939 44.6054 379.895 45.2055Z" fill="white"/><path d="M312.826 40.1267C311.506 36.781 310.793 35.1386 309.268 31.8993C300.228 25.6092 295.629 22.5532 286.328 16.5689C290.927 23.9773 292.94 27.8644 296.361 35.9425C302.782 37.6665 306.063 38.5084 312.826 40.1267Z" fill="white"/></g><path d="M644.097 288.127C650.149 297.536 653.097 302.308 658.783 311.935C666.511 312.964 670.405 313.487 678.292 314.594C683.895 306.395 686.537 302.292 691.535 294.033C672.046 291.451 662.568 290.284 644.097 288.127Z" fill="#F2A93F"/><path d="M662.283 317.949C667.887 327.631 670.595 332.531 675.834 342.431C683.807 343.657 687.839 344.288 695.986 345.601C702.435 337.442 705.499 333.326 711.32 325.072C691.198 321.964 681.393 320.55 662.283 317.949Z" fill="#F2A93F"/><path d="M624.522 259.204C631.004 268.328 634.16 272.953 640.309 282.316C647.768 283.154 651.546 283.605 659.172 284.505C663.958 276.328 666.189 272.223 670.351 264.016C651.525 261.914 642.35 260.958 624.522 259.204Z" fill="#F2A93F"/><path d="M507.481 129.408C515.938 136.847 520.093 140.648 528.247 148.388C534.374 148.605 537.499 148.709 543.78 148.937C544.59 141.465 544.856 137.749 545.109 130.397C529.568 129.971 522.049 129.778 507.481 129.408Z" fill="#F2A93F"/><path d="M557.956 178.164C565.661 186.326 569.458 190.479 576.853 198.916C583.525 199.326 586.899 199.543 593.716 199.979C596.072 192.09 597.09 188.163 598.875 180.343C582.014 179.388 573.842 178.955 557.973 178.174L557.956 178.164Z" fill="#F2A93F"/><path d="M533.294 153.218C541.383 161.024 545.354 165.009 553.14 173.115C559.536 173.416 562.786 173.576 569.352 173.898C570.924 166.2 571.567 162.358 572.575 154.754C556.38 154.089 548.517 153.786 533.31 153.229L533.294 153.218Z" fill="#F2A93F"/><path d="M603.615 231.196C610.522 240.009 613.901 244.498 620.474 253.55C627.67 254.223 631.316 254.591 638.679 255.327C642.629 247.201 644.463 243.145 647.812 235.026C629.635 233.352 620.799 232.588 603.622 231.221L603.615 231.196Z" fill="#F2A93F"/><path d="M581.408 204.164C588.722 212.657 592.302 216.972 599.306 225.74C606.244 226.274 609.743 226.548 616.842 227.119C619.997 219.091 621.416 215.074 623.967 207.094C606.451 205.792 597.937 205.209 581.418 204.148L581.408 204.164Z" fill="#F2A93F"/><path d="M616.715 368.201C621.962 363.385 624.519 360.956 629.52 356.092C625.23 346.509 622.984 341.75 618.324 332.319C607.106 344.421 601.129 350.401 588.481 362.223C599.574 364.51 605.224 365.707 616.732 368.211L616.715 368.201Z" fill="#171314"/><path d="M589.795 309.877C593.943 304.948 595.953 302.475 599.863 297.524C594.66 288.371 591.963 283.82 586.413 274.855C577.849 287.042 573.213 293.116 563.227 305.158C573.657 306.965 578.964 307.904 589.779 309.867L589.795 309.877Z" fill="#171314"/><path d="M603.97 338.741C608.664 333.855 610.939 331.399 615.404 326.476C610.646 317.091 608.17 312.443 603.074 303.23C593.191 315.4 587.894 321.465 576.574 333.438C587.341 335.477 592.819 336.546 603.987 338.751L603.97 338.741Z" fill="#171314"/><path d="M480.554 106.754C489.363 113.817 493.685 117.424 502.223 124.807C508.098 124.951 511.078 125.029 517.1 125.158C517.172 117.949 517.051 114.374 516.563 107.325C501.677 107.097 494.47 106.992 480.554 106.754Z" fill="#F2A93F"/><path d="M585.801 314.562C577.013 312.953 572.681 312.177 564.143 310.683C567.718 318.004 569.451 321.715 572.78 329.137C578.161 323.339 580.767 320.429 585.792 314.577L585.801 314.562Z" fill="#171314"/><path d="M517.415 205.922C509.736 204.924 505.967 204.458 498.542 203.492C503.51 210.129 505.944 213.491 510.698 220.25C513.546 214.504 514.888 211.633 517.415 205.922Z" fill="#171314"/><path d="M536.496 231.975C528.541 230.867 524.624 230.309 516.931 229.259C521.568 236.094 523.833 239.542 528.24 246.489C531.7 240.68 533.362 237.775 536.496 231.975Z" fill="#171314"/><path d="M554.282 258.815C546.053 257.557 541.985 256.947 534.01 255.762C538.309 262.77 540.38 266.309 544.449 273.428C548.546 267.592 550.501 264.658 554.282 258.815Z" fill="#171314"/><path d="M452.701 132.829C445.845 132.091 442.499 131.72 435.884 130.963C441.814 136.944 444.733 139.971 450.456 146.1C451.492 140.754 451.945 138.094 452.685 132.819L452.701 132.829Z" fill="#171314"/><path d="M475.491 156.3C468.373 155.504 464.882 155.107 458.005 154.292C463.628 160.507 466.385 163.646 471.784 169.998C473.406 164.487 474.165 161.741 475.474 156.29L475.491 156.3Z" fill="#171314"/><path d="M452.558 85.329C461.701 92.0038 466.2 95.4023 475.073 102.398C480.686 102.484 483.532 102.52 489.298 102.617C488.629 95.7112 488.171 92.3087 486.965 85.5994C472.738 85.5287 465.852 85.4971 452.548 85.3443L452.558 85.329Z" fill="#F2A93F"/><path d="M570.716 286.344C562.198 284.926 557.998 284.233 549.75 282.899C553.686 290.083 555.597 293.693 559.296 300.964C564.036 295.126 566.309 292.199 570.7 286.333L570.716 286.344Z" fill="#171314"/><path d="M574.204 281.661C577.813 276.714 579.565 274.25 582.925 269.295C577.278 260.376 574.384 255.957 568.389 247.225C561.135 259.337 557.151 265.394 548.492 277.479C558.567 279.084 563.709 279.921 574.188 281.651L574.204 281.661Z" fill="#171314"/><path d="M497.07 180.676C489.666 179.787 486.041 179.348 478.893 178.49C484.191 184.93 486.787 188.18 491.872 194.741C494.103 189.099 495.142 186.273 497.06 180.692L497.07 180.676Z" fill="#171314"/><path d="M362.592 28.8251C372.647 34.1939 377.615 36.9906 387.439 42.7268C392.3 42.7681 394.77 42.7812 399.78 42.767C397.068 37.0328 395.566 34.234 392.371 28.7943C380.034 28.9283 374.079 28.9478 362.592 28.8251Z" fill="#F2A93F"/><path d="M344.205 33.8886C343.193 31.6967 342.657 30.6134 341.558 28.4517C331.843 23.0182 326.932 20.3857 316.996 15.3043C318.305 17.2776 318.941 18.2744 320.186 20.3139C329.922 25.5683 334.732 28.2874 344.214 33.8733L344.205 33.8886Z" fill="#171314"/><path d="M344.111 25.2958C347.143 25.3632 348.685 25.3919 351.77 25.4493C341.72 20.1471 336.65 17.5854 326.386 12.661C323.406 12.5837 321.932 12.5554 319.03 12.4631C329.18 17.4227 334.198 19.9944 344.101 25.3111L344.111 25.2958Z" fill="#171314"/><path d="M393.521 46.3081C403.287 52.1362 408.105 55.1369 417.633 61.3068C422.743 61.3545 425.333 61.3581 430.583 61.3656C428.535 55.1946 427.373 52.1825 424.802 46.2597C411.841 46.3647 405.586 46.3877 393.521 46.3081Z" fill="#F2A93F"/><path d="M423.526 65.153C432.981 71.4045 437.664 74.6195 446.864 81.2024C452.222 81.2566 454.94 81.2762 460.445 81.3158C459.075 74.7592 458.253 71.534 456.353 65.1999C442.761 65.2504 436.199 65.2513 423.526 65.153Z" fill="#F2A93F"/><path d="M403.699 88.858C397.379 88.1792 394.288 87.8401 388.203 87.1164C394.724 92.5943 397.944 95.3613 404.281 101.023C404.183 96.096 404.07 93.6785 403.689 88.8733L403.699 88.858Z" fill="#171314"/><path d="M428.766 110.344C422.181 109.649 418.962 109.294 412.629 108.563C418.859 114.286 421.941 117.2 427.971 123.096C428.444 117.952 428.598 115.403 428.766 110.344Z" fill="#171314"/><path d="M377.522 68.4463C371.467 67.7842 368.496 67.4355 362.679 66.6876C369.494 71.8804 372.849 74.5405 379.48 79.9166C378.84 75.2688 378.445 72.9727 377.522 68.4463Z" fill="#171314"/><path d="M349.119 45.8052C347.843 42.3164 347.152 40.6024 345.681 37.2047C336.325 31.5273 331.586 28.7677 321.986 23.4064C326.419 31.1161 328.352 35.1666 331.68 43.6128C338.496 44.5606 341.984 44.9991 349.135 45.8155L349.119 45.8052Z" fill="#171314"/><path d="M350.301 49.1503C344.488 48.469 341.648 48.0954 336.062 47.3436C343.161 52.2665 346.665 54.7636 353.563 59.8595C352.397 55.5008 351.743 53.362 350.301 49.1503Z" fill="#171314"/><path d="M326.604 40.8768C324.927 36.8585 324.013 34.877 322.076 31.016C316.513 30.3002 313.778 29.9067 308.42 29.0845C315.779 33.7015 319.412 36.0661 326.604 40.8768Z" fill="#171314"/><path d="M571.851 228.871C565.335 220.238 561.992 215.986 555.169 207.588C553.736 210.785 552.986 212.384 551.432 215.592C558.004 224.024 561.191 228.307 567.439 236.963C569.26 233.732 570.141 232.108 571.851 228.871Z" fill="#171314"/><path d="M626.822 313.433C621.603 304.014 618.904 299.356 613.345 290.15C610.852 293.429 609.592 295.071 607.014 298.34C612.299 307.544 614.86 312.202 619.788 321.609C622.658 318.353 624.071 316.722 626.838 313.444L626.822 313.433Z" fill="#171314"/><path d="M642.37 343.18C637.612 333.538 635.144 328.768 630.022 319.303C627.17 322.57 625.73 324.206 622.776 327.452C627.616 336.89 629.947 341.659 634.407 351.264C637.643 348.045 639.236 346.42 642.37 343.18Z" fill="#171314"/><path d="M550.876 202.398C543.946 194.061 540.422 189.951 533.175 181.862C532.071 185.011 531.487 186.564 530.289 189.717C537.249 197.861 540.66 202.006 547.312 210.383C548.788 207.19 549.496 205.586 550.876 202.398Z" fill="#171314"/><path d="M609.859 284.442C604.202 275.282 601.289 270.745 595.276 261.788C593.152 265.064 592.055 266.702 589.82 269.972C595.549 278.943 598.325 283.48 603.698 292.654C606.207 289.385 607.441 287.748 609.865 284.468L609.859 284.442Z" fill="#171314"/><path d="M591.504 256.243C585.41 247.341 582.274 242.942 575.839 234.253C574.051 237.506 573.128 239.124 571.255 242.366C577.405 251.068 580.395 255.482 586.222 264.408C588.388 261.137 589.449 259.519 591.504 256.243Z" fill="#171314"/><path d="M376.767 64.8576C375.913 61.0997 375.455 59.2333 374.396 55.5818C365.358 49.5067 360.77 46.543 351.472 40.7737C354.885 49.2307 356.297 53.6368 358.552 62.7328C365.655 63.6258 369.306 64.06 376.751 64.8473L376.767 64.8576Z" fill="#171314"/><path d="M299.601 25.622C290.576 20.0027 286.007 17.2645 276.731 11.9357C282.404 19.5701 284.918 23.6441 289.336 32.219C297.745 38.1986 301.881 41.2623 309.989 47.5015C306.502 38.358 304.418 33.9995 299.638 25.7093C299.615 25.6733 299.617 25.6324 299.594 25.5964L299.601 25.622Z" fill="#171314"/><path d="M356.322 25.5094C360.941 25.5698 363.3 25.5773 368.053 25.5719C364.7 20.3105 362.89 17.7457 359.061 12.8043C347.309 12.921 341.664 12.9216 330.748 12.7303C341.081 17.6551 346.203 20.2068 356.305 25.499L356.322 25.5094Z" fill="#F2A93F"/><path d="M528.671 176.861C521.36 168.839 517.628 164.877 510 157.104C509.228 160.162 508.817 161.696 507.941 164.774C515.299 172.612 518.901 176.599 525.942 184.686C527.078 181.559 527.63 179.984 528.671 176.861Z" fill="#171314"/><path d="M401.479 71.2928C401.042 68.7353 400.784 67.464 400.249 64.9521C391.163 58.6975 386.555 55.6569 377.199 49.7235C377.958 52.0984 378.322 53.3088 379.01 55.7242C388.116 61.7997 392.618 64.9012 401.479 71.2928Z" fill="#171314"/><path d="M480.655 128.794C472.588 121.429 468.498 117.817 460.137 110.737C460.006 113.578 459.92 114.996 459.692 117.883C467.79 125.054 471.773 128.726 479.577 136.182C480.058 133.22 480.268 131.752 480.662 128.82L480.655 128.794Z" fill="#171314"/><path d="M505.251 152.311C497.558 144.604 493.626 140.815 485.639 133.393C485.184 136.351 484.938 137.839 484.404 140.812C492.144 148.334 495.936 152.164 503.358 159.936C504.156 156.873 504.541 155.344 505.251 152.311Z" fill="#171314"/><path d="M428.111 85.0557C419.35 78.429 414.902 75.1691 405.881 68.8483C406.354 71.3855 406.577 72.6771 406.952 75.2599C415.75 81.7178 420.074 85.0282 428.595 91.7816C428.459 89.0721 428.36 87.73 428.111 85.0557Z" fill="#171314"/><path d="M454.923 106.357C446.497 99.3426 442.224 95.9146 433.537 89.2064C433.716 91.9213 433.788 93.2684 433.862 96.0032C442.308 102.838 446.459 106.317 454.637 113.432C454.794 110.586 454.854 109.173 454.923 106.357Z" fill="#171314"/><path d="M380.551 46.1721C390.112 51.9991 394.834 55.0045 404.131 61.1783C407.5 61.2218 409.189 61.2359 412.609 61.2695C403.165 55.1103 398.374 52.1046 388.703 46.2719C385.42 46.2391 383.783 46.2149 380.551 46.1721Z" fill="#171314"/><path d="M438.245 85.1405C447.175 91.7886 451.563 95.1813 460.207 102.14C463.909 102.201 465.768 102.236 469.538 102.297C460.741 95.3275 456.294 91.9191 447.236 85.255C443.61 85.2203 441.819 85.1852 438.245 85.1405Z" fill="#171314"/><path d="M373.334 51.9714C372.601 49.5916 372.201 48.4014 371.397 46.0622C361.983 40.2206 357.233 37.3687 347.566 31.8587C348.603 34.0456 349.104 35.1492 350.07 37.3766C359.494 43.0544 364.163 45.9622 373.334 51.9714Z" fill="#171314"/><path d="M403.363 85.0416C402.962 81.0351 402.708 79.0623 402.113 75.147C393.41 68.6845 388.964 65.5321 380 59.3755C382.347 68.5078 383.231 73.2439 384.373 82.9434C391.787 83.8175 395.584 84.2372 403.353 85.0569L403.363 85.0416Z" fill="#171314"/><path d="M409.913 65.0188C419.162 71.2692 423.717 74.4682 432.712 81.05C436.234 81.1046 438.018 81.1141 441.608 81.1691C432.493 74.5969 427.852 71.3872 418.466 65.1361C415.003 65.0972 413.288 65.088 409.903 65.0341L409.913 65.0188Z" fill="#171314"/><path d="M428.865 106.31C428.942 102.091 428.902 99.9967 428.768 95.8586C420.407 89.0343 416.144 85.6986 407.489 79.1595C408.74 88.9056 409.065 93.9102 409.081 104.162C416.811 105.043 420.763 105.473 428.865 106.31Z" fill="#171314"/><path d="M557.247 254.125C560.33 249.21 561.808 246.744 564.643 241.823C558.568 233.147 555.449 228.865 549.05 220.413C543.074 232.389 539.754 238.414 532.393 250.439C542.12 251.868 547.098 252.601 557.237 254.14L557.247 254.125Z" fill="#171314"/><path d="M350.253 28.6365C360.108 34.0298 364.982 36.8312 374.59 42.5816C377.786 42.6447 379.406 42.6585 382.663 42.6963C372.908 36.9604 367.983 34.1691 357.99 28.7751C354.853 28.7276 353.311 28.6989 350.236 28.6262L350.253 28.6365Z" fill="#171314"/><path d="M453.266 128.638C453.801 124.237 454.025 122.052 454.342 117.706C446.313 110.535 442.234 107.016 433.938 100.126C434.045 110.414 433.795 115.676 432.658 126.377C440.712 127.291 444.833 127.743 453.249 128.627L453.266 128.638Z" fill="#171314"/><path d="M519.385 201.355C521.431 196.557 522.381 194.166 524.202 189.398C517.317 181.281 513.794 177.279 506.602 169.395C503.145 180.904 501.083 186.715 496.283 198.426C505.333 199.58 509.952 200.152 519.411 201.35L519.385 201.355Z" fill="#171314"/><path d="M538.97 227.339C541.518 222.472 542.744 220.042 545.061 215.179C538.581 206.783 535.248 202.622 528.444 194.449C523.743 206.222 521.046 212.168 514.98 224.067C524.365 225.346 529.169 225.991 538.97 227.339Z" fill="#171314"/><path d="M498.561 176.214C500.085 171.517 500.791 169.185 502.107 164.528C494.834 156.7 491.12 152.855 483.546 145.288C481.313 156.454 479.87 162.12 476.314 173.566C485.02 174.611 489.489 175.132 498.587 176.209L498.561 176.214Z" fill="#171314"/><path d="M476.52 151.953C477.546 147.391 478.007 145.12 478.816 140.613C471.161 133.101 467.256 129.414 459.308 122.187C458.269 132.951 457.421 138.435 455.089 149.54C463.474 150.511 467.766 150.985 476.52 151.953Z" fill="#171314"/><path d="M641.639 315.197C647.022 324.719 649.615 329.547 654.626 339.262C659.927 340.027 662.595 340.42 667.962 341.227C662.813 331.404 660.138 326.525 654.616 316.895C649.387 316.196 646.785 315.844 641.622 315.187L641.639 315.197Z" fill="#171314"/><path d="M605.291 257.381C611.56 266.37 614.6 270.924 620.519 280.141C625.468 280.664 627.954 280.944 632.978 281.493C626.928 272.193 623.805 267.588 617.405 258.516C612.529 258.06 610.108 257.822 605.307 257.391L605.291 257.381Z" fill="#171314"/><path d="M465.561 106.48C474.14 113.505 478.36 117.092 486.662 124.412C490.525 124.51 492.495 124.551 496.426 124.649C487.98 117.302 483.684 113.689 474.977 106.648C471.164 106.582 469.289 106.536 465.561 106.48Z" fill="#171314"/><path d="M624.148 285.876C629.97 295.139 632.803 299.84 638.267 309.306C643.397 309.943 645.966 310.274 651.162 310.952C645.559 301.377 642.66 296.635 636.69 287.279C631.633 286.709 629.13 286.419 624.148 285.876Z" fill="#171314"/><path d="M516.914 152.629C524.767 160.372 528.629 164.31 536.189 172.339C540.405 172.53 542.553 172.618 546.854 172.821C539.15 164.766 535.222 160.787 527.208 153.007C523.058 152.857 520.996 152.779 516.914 152.629Z" fill="#171314"/><path d="M491.793 128.997C500.021 136.399 504.068 140.153 512.002 147.841C516.051 147.97 518.087 148.053 522.221 148.192C514.143 140.479 510.031 136.683 501.659 129.254C497.685 129.151 495.698 129.1 491.793 128.997Z" fill="#171314"/><path d="M585.088 229.75C591.762 238.46 595.026 242.876 601.375 251.81C606.134 252.234 608.547 252.447 613.381 252.898C606.899 243.882 603.57 239.424 596.729 230.652C592.027 230.284 589.705 230.108 585.079 229.766L585.088 229.75Z" fill="#171314"/><path d="M563.598 203.039C570.695 211.439 574.15 215.697 580.92 224.361C585.505 224.698 587.81 224.864 592.479 225.212C585.573 216.506 582.036 212.196 574.798 203.729C570.27 203.448 568.04 203.309 563.598 203.039Z" fill="#171314"/><path d="M540.865 177.32C548.344 185.405 552.015 189.5 559.167 197.849C563.577 198.098 565.79 198.227 570.276 198.502C562.973 190.101 559.235 185.964 551.596 177.843C547.252 177.636 545.114 177.532 540.839 177.325L540.865 177.32Z" fill="#171314"/><path d="M701.057 294.545C707.739 304.412 711.007 309.406 717.319 319.533C717.43 319.538 717.525 319.534 717.627 319.555C739.057 322.992 750.066 324.864 772.628 328.947C765.79 318.342 762.281 313.11 755.055 302.795C732.871 299.205 722.077 297.575 701.048 294.56L701.057 294.545Z" fill="#F2A93F"/><path d="M721.211 325.837C727.443 336.019 730.468 341.181 736.314 351.612C736.425 351.618 736.52 351.613 736.638 351.645C758.722 355.685 770.053 357.886 793.247 362.643C786.895 351.702 783.622 346.278 776.874 335.601C754.039 331.368 742.915 329.424 721.228 325.847L721.211 325.837Z" fill="#F2A93F"/><path d="M580.224 154.41C588.966 162.455 593.255 166.554 601.685 174.915C601.77 174.926 601.831 174.9 601.926 174.896C619.943 176.021 629.234 176.644 648.408 178.047C639.422 169.401 634.851 165.168 625.559 156.864C606.838 155.766 597.777 155.287 580.207 154.4L580.224 154.41Z" fill="#F2A93F"/><path d="M606.886 180.12C615.242 188.562 619.347 192.844 627.399 201.587C627.494 201.583 627.572 201.568 627.657 201.578C646.378 203.081 656.008 203.895 675.873 205.732C667.268 196.664 662.899 192.216 653.997 183.474C634.581 181.983 625.155 181.318 606.896 180.104L606.886 180.12Z" fill="#F2A93F"/><path d="M552.395 129.975C561.492 137.602 565.974 141.502 574.791 149.466C574.859 149.466 574.937 149.451 575.032 149.447C592.349 150.261 601.302 150.693 619.771 151.718C610.422 143.506 605.664 139.497 596.026 131.636C578.027 130.885 569.298 130.572 552.421 129.97L552.395 129.975Z" fill="#F2A93F"/><path d="M679.495 264.29C686.619 273.816 690.104 278.648 696.893 288.455C696.988 288.45 697.082 288.445 697.184 288.466C717.957 291.342 728.626 292.915 750.536 296.355C743.22 286.11 739.484 281.057 731.811 271.123C710.308 268.131 699.848 266.774 679.511 264.3L679.495 264.29Z" fill="#F2A93F"/><path d="M656.574 235.103C664.126 244.279 667.827 248.948 675.043 258.403C675.144 258.424 675.232 258.394 675.317 258.405C695.42 260.775 705.74 262.064 726.976 264.932C719.214 255.07 715.268 250.204 707.15 240.652C686.34 238.201 676.222 237.103 656.558 235.093L656.574 235.103Z" fill="#F2A93F"/><path d="M632.361 207.026C640.323 215.84 644.234 220.321 651.867 229.44C651.961 229.436 652.04 229.421 652.125 229.432C671.53 231.342 681.523 232.384 702.066 234.711C693.884 225.225 689.709 220.578 681.187 211.413C661.073 209.463 651.291 208.596 632.345 207.016L632.361 207.026Z" fill="#F2A93F"/><path d="M567.928 333.177C563.99 324.093 561.934 319.581 557.645 310.617C546.76 323.653 540.887 330.125 528.327 342.941C531.464 351.801 532.942 356.249 535.714 365.178C549.365 352.598 555.755 346.216 567.737 333.335C567.785 333.258 567.873 333.228 567.928 333.177Z" fill="#171314"/><path d="M554.955 305.068C550.569 296.15 548.301 291.719 543.544 282.952C534.08 296.026 528.917 302.538 517.799 315.469C521.392 324.188 523.087 328.581 526.313 337.41C538.518 324.648 544.208 318.211 554.764 305.225C554.802 305.164 554.89 305.134 554.938 305.057L554.955 305.068Z" fill="#171314"/><path d="M540.587 277.535C535.769 268.794 533.271 264.474 528.098 255.895C520.045 268.915 515.594 275.425 505.887 288.41C509.926 297.004 511.85 301.325 515.53 310.014C526.31 297.147 531.291 290.671 540.439 277.698C540.477 277.636 540.549 277.596 540.587 277.535Z" fill="#171314"/><path d="M284.06 28.5244C279.465 20.1585 276.841 16.1862 271.007 8.77125C270.974 8.75059 270.977 8.70965 270.954 8.67368C261.603 3.42645 256.867 0.881866 247.289 -4.03886C253.976 2.67404 257.044 6.30554 262.529 14.0566C271.277 19.7154 275.586 22.6111 284.06 28.5244Z" fill="#171314"/><path d="M260.316 -3.99486C257.818 -6.52239 256.544 -7.74791 253.881 -10.1227C243.65 -14.5144 238.465 -16.6363 228.013 -20.6758C235.264 -15.5934 238.654 -12.8051 244.924 -6.78054C250.934 -5.57078 254.011 -5.02696 260.316 -3.99486Z" fill="#171314"/><path d="M257.026 10.5408C251.37 3.02437 248.226 -0.48467 241.388 -6.99355C241.355 -7.01421 241.348 -7.03982 241.324 -7.07579C231.672 -11.915 226.785 -14.2555 216.888 -18.7786C224.559 -13.0487 228.114 -9.90107 234.64 -3.07637C243.729 2.22068 248.213 4.94825 257.035 10.5255L257.026 10.5408Z" fill="#171314"/><path d="M523.485 106.825C532.919 114.023 537.579 117.714 546.749 125.26C546.818 125.26 546.88 125.235 546.965 125.246C563.605 125.785 572.19 126.071 589.953 126.76C580.231 118.996 575.312 115.207 565.333 107.816C548.034 107.375 539.666 107.182 523.502 106.835L523.485 106.825Z" fill="#F2A93F"/><path d="M430.655 45.7071C441.029 51.5538 446.163 54.5613 456.29 60.7651C456.359 60.7655 456.395 60.7452 456.473 60.7302C471.055 60.7465 478.624 60.7151 494.283 60.6602C483.606 54.346 478.21 51.2807 467.325 45.3699C452.128 45.5654 444.805 45.6442 430.665 45.6918L430.655 45.7071Z" fill="#F2A93F"/><path d="M397.872 28.2554C408.511 33.6068 413.789 36.3847 424.214 42.1139C424.282 42.1143 424.318 42.094 424.387 42.0943C438.315 42.02 445.526 41.9356 460.501 41.7286C449.549 35.9249 444.016 33.1149 432.848 27.73C418.338 28.0367 411.339 28.1479 397.863 28.2707L397.872 28.2554Z" fill="#F2A93F"/><path d="M493.515 85.0352C503.287 91.8055 508.107 95.2773 517.615 102.394C517.683 102.395 517.745 102.369 517.814 102.37C533.765 102.69 542.016 102.852 559.053 103.235C548.99 95.9406 543.901 92.3854 533.599 85.474C517.012 85.2883 509.004 85.215 493.505 85.0505L493.515 85.0352Z" fill="#F2A93F"/><path d="M364.238 12.3404C375.152 17.1811 380.558 19.719 391.264 24.9632C391.316 24.9533 391.368 24.9433 391.436 24.9437C404.714 24.8454 411.595 24.7029 425.882 24.3847C414.673 19.102 409.009 16.5729 397.599 11.7193C383.753 12.1012 377.088 12.2296 364.255 12.3507L364.238 12.3404Z" fill="#F2A93F"/><path d="M462.549 64.6491C472.626 70.9704 477.599 74.1973 487.428 80.8757C487.497 80.8761 487.559 80.8508 487.627 80.8512C502.888 80.9939 510.793 81.0463 527.135 81.1846C516.765 74.3804 511.506 71.0597 500.896 64.6383C484.998 64.6714 477.328 64.6817 462.533 64.6388L462.549 64.6491Z" fill="#F2A93F"/><path d="M329.813 -1.98108C340.975 2.35409 346.501 4.62636 357.456 9.36495C357.508 9.35499 357.544 9.33469 357.603 9.35037C370.246 9.2385 376.817 9.11478 390.44 8.72138C378.98 3.98521 373.205 1.70651 361.56 -2.59027C348.365 -2.18435 342.016 -2.04921 329.813 -1.98108Z" fill="#F2A93F"/><path d="M287.601 -16.984C287.601 -16.984 287.679 -16.9989 287.731 -17.0089C299.171 -16.9582 305.105 -17.0546 317.442 -17.4446C305.554 -21.0616 299.552 -22.7578 287.513 -25.9148C275.584 -25.5892 269.859 -25.5326 258.812 -25.699C270.398 -22.442 276.166 -20.701 287.577 -17.0199L287.601 -16.984Z" fill="#F2A93F"/><path d="M294.66 -14.6675C306.047 -10.8739 311.684 -8.85194 322.897 -4.63428C322.949 -4.64424 322.975 -4.64921 323.044 -4.64884C335.074 -4.69741 341.311 -4.8383 354.291 -5.23001C342.605 -9.4246 336.717 -11.412 324.87 -15.1313C312.328 -14.7424 306.299 -14.6413 294.676 -14.6572L294.66 -14.6675Z" fill="#F2A93F"/><path d="M379.301 83.2388C371.298 76.5752 367.246 73.3072 358.959 66.9135C361.284 76.8855 362.111 82.077 363.027 92.7226C370.337 99.6129 373.919 103.119 380.932 110.228C380.994 99.1934 380.651 93.815 379.3 83.3873C379.286 83.3361 379.306 83.3054 379.318 83.2492L379.301 83.2388Z" fill="#171314"/><path d="M728.47 351.022C723.77 342.569 721.365 338.393 716.421 330.107C711.568 336.856 709.036 340.196 703.767 346.876C713.525 348.475 718.479 349.32 728.477 351.048L728.47 351.022Z" fill="#F2A93F"/><path d="M668.088 258.371C662.28 250.695 659.318 246.895 653.291 239.423C650.452 246.07 648.942 249.39 645.701 256.019C654.546 256.916 659.017 257.396 668.088 258.371Z" fill="#F2A93F"/><path d="M595.623 175.252C588.821 168.466 585.374 165.109 578.369 158.538C577.461 164.775 576.917 167.911 575.628 174.208C583.519 174.614 587.52 174.819 595.623 175.252Z" fill="#F2A93F"/><path d="M621.035 201.819C614.546 194.718 611.254 191.224 604.571 184.322C603.036 190.719 602.159 193.946 600.251 200.388C608.451 200.923 612.609 201.206 621.045 201.804L621.035 201.819Z" fill="#F2A93F"/><path d="M689.622 288.268C684.167 280.322 681.393 276.405 675.712 268.638C672.217 275.343 670.362 278.702 666.448 285.379C675.596 286.488 680.232 287.071 689.613 288.283L689.622 288.268Z" fill="#F2A93F"/><path d="M709.768 319.17C704.682 310.965 702.089 306.906 696.761 298.869C692.577 305.611 690.405 308.964 685.812 315.663C695.27 317.009 700.061 317.71 709.752 319.16L709.768 319.17Z" fill="#F2A93F"/><path d="M419.879 42.659C411.443 37.9646 407.204 35.6889 398.622 31.2651C401.168 35.7643 402.36 38.0698 404.56 42.7566C410.583 42.7375 413.647 42.718 419.879 42.659Z" fill="#F2A93F"/><path d="M451.698 61.3191C443.503 56.2419 439.378 53.7825 431.02 48.9656C433.035 53.8358 433.949 56.3293 435.627 61.3718C441.941 61.3644 445.158 61.356 451.698 61.3191Z" fill="#F2A93F"/><path d="M482.562 81.4286C474.614 75.9942 470.614 73.3358 462.496 68.1361C463.957 73.3413 464.611 75.9922 465.718 81.3593C472.347 81.3998 475.718 81.4023 482.562 81.4286Z" fill="#F2A93F"/><path d="M541.277 125.753C533.882 119.62 530.13 116.605 522.558 110.681C522.873 116.469 522.917 119.398 522.864 125.297C530.118 125.474 533.801 125.565 541.277 125.753Z" fill="#F2A93F"/><path d="M512.424 102.915C504.748 97.1184 500.864 94.2762 493.019 88.7144C493.919 94.229 494.271 97.0318 494.81 102.683C501.753 102.771 505.275 102.826 512.424 102.915Z" fill="#F2A93F"/><path d="M569.024 149.88C561.908 143.411 558.314 140.217 551.012 133.972C550.719 139.997 550.48 143.048 549.813 149.158C557.379 149.424 561.229 149.578 569.024 149.88Z" fill="#F2A93F"/><path d="M645.211 229.553C639.067 222.157 635.94 218.51 629.561 211.307C627.38 217.855 626.2 221.126 623.624 227.682C632.146 228.398 636.463 228.759 645.221 229.538L645.211 229.553Z" fill="#F2A93F"/><path d="M507.816 224.331C502.138 216.01 499.23 211.903 493.205 203.77C487.901 216.467 484.847 222.872 477.938 235.713C482.848 243.979 485.21 248.149 489.76 256.551C497.733 243.694 501.32 237.282 507.678 224.478C507.716 224.417 507.745 224.371 507.783 224.31L507.816 224.331Z" fill="#171314"/><path d="M353.802 62.9535C345.451 56.626 341.207 53.5157 332.588 47.4684C336.067 56.7348 337.475 61.5864 339.598 71.6239C347.27 78.2294 351.05 81.6035 358.425 88.4276C357.266 77.9498 356.345 72.8704 353.794 63.0764C353.78 63.0251 353.799 62.9945 353.786 62.9432L353.802 62.9535Z" fill="#171314"/><path d="M403.686 104.532C396.048 97.5427 392.16 94.1219 384.238 87.4024C385.379 98.0184 385.595 103.488 385.29 114.691C392.221 121.856 395.606 125.494 402.233 132.852C403.537 121.337 403.831 115.675 403.684 104.681C403.697 104.624 403.716 104.594 403.702 104.542L403.686 104.532Z" fill="#171314"/><path d="M327.219 43.7378C318.536 37.7568 314.108 34.8298 305.157 29.129C309.743 37.6178 311.734 42.0884 315.018 51.4459C323.063 57.7513 327.017 60.9574 334.77 67.507C332.427 57.6731 330.91 52.9234 327.237 43.8557C327.223 43.8044 327.233 43.7891 327.219 43.7378Z" fill="#171314"/><path d="M269.572 6.37759C266.927 3.09655 265.531 1.51707 262.64 -1.55534C257.524 -2.39677 255.016 -2.86073 250.081 -3.84457C257.955 0.135125 261.858 2.17856 269.572 6.37759Z" fill="#171314"/><path d="M524.876 250.608C519.623 242.085 516.913 237.846 511.322 229.496C504.649 242.4 500.913 248.868 492.607 261.815C497.085 270.257 499.236 274.508 503.347 283.061C512.721 270.166 516.99 263.691 524.737 250.756C524.776 250.695 524.831 250.644 524.885 250.593L524.876 250.608Z" fill="#171314"/><path d="M426.927 126.772C419.66 119.483 415.953 115.919 408.396 108.874C408.306 120.062 407.906 125.785 406.316 137.462C412.862 144.875 416.049 148.646 422.274 156.242C424.866 144.32 425.785 138.431 426.883 126.915C426.895 126.859 426.914 126.828 426.927 126.772Z" fill="#171314"/><path d="M489.466 198.758C483.386 190.676 480.248 186.681 473.853 178.807C469.888 191.234 467.519 197.535 461.986 210.194C467.312 218.272 469.895 222.347 474.877 230.571C481.47 217.831 484.366 211.496 489.387 198.921C489.425 198.86 489.454 198.814 489.483 198.768L489.466 198.758Z" fill="#171314"/><path d="M290.875 11.3353C288.777 8.46173 287.661 7.05785 285.392 4.31135C275.439 -0.524323 270.398 -2.87593 260.225 -7.35946C266.563 -1.33457 269.512 1.90201 274.839 8.80738C281.105 9.90072 284.323 10.4043 290.875 11.3353Z" fill="#171314"/><path d="M469.838 173.941C463.346 166.113 460.027 162.26 453.221 154.64C450.575 166.721 448.876 172.867 444.673 185.272C450.407 193.137 453.202 197.131 458.6 205.168C463.85 192.63 466.06 186.4 469.742 174.094C469.771 174.048 469.8 174.002 469.838 173.941Z" fill="#171314"/><path d="M448.973 149.927C442.086 142.363 438.569 138.642 431.384 131.297C430.026 142.97 428.975 148.925 426.124 161.004C432.267 168.656 435.25 172.533 441.073 180.368C444.984 168.1 446.55 162.019 448.92 150.086C448.948 150.04 448.977 149.994 448.99 149.938L448.973 149.927Z" fill="#171314"/><path d="M298.591 23.0255C296.418 19.3578 295.268 17.5697 292.843 14.085C287.498 13.3141 284.893 12.8957 279.746 11.9926C287.367 16.3038 291.148 18.5054 298.601 23.0102L298.591 23.0255Z" fill="#171314"/><path d="M324.327 9.72632C328.721 9.8163 330.95 9.84863 335.477 9.87275C331.507 5.12015 329.404 2.84053 324.98 -1.55604C313.816 -1.49774 308.448 -1.53658 298.099 -1.86311C308.703 2.59199 313.953 4.90377 324.343 9.73665L324.327 9.72632Z" fill="#F2A93F"/><path d="M312.733 9.40875C315.609 9.506 317.073 9.54962 320.027 9.63193C309.714 4.7841 304.491 2.46736 293.965 -2.00268C291.141 -2.1099 289.755 -2.16845 286.977 -2.31127C297.389 2.19401 302.551 4.53602 312.742 9.39345L312.733 9.40875Z" fill="#171314"/><path d="M319.353 -4.25387C310.287 -7.72274 305.732 -9.38561 296.535 -12.5735C300.551 -9.39273 302.473 -7.73875 306.188 -4.29839C311.357 -4.23501 313.999 -4.24142 319.363 -4.26917L319.353 -4.25387Z" fill="#F2A93F"/><path d="M353.659 9.8209C344.783 5.93828 340.32 4.05573 331.323 0.438739C334.862 4.0881 336.562 5.98664 339.793 9.86992C345.248 9.8785 348.011 9.86251 353.652 9.79527L353.659 9.8209Z" fill="#F2A93F"/><path d="M314.105 17.0966C312.805 15.108 312.159 14.1265 310.779 12.1938C300.768 7.19399 295.714 4.79109 285.499 0.153722C287.063 1.90306 287.836 2.79304 289.335 4.6086C299.366 9.42933 304.311 11.934 314.105 17.0966Z" fill="#171314"/><path d="M283.101 1.63617C281.546 -0.128482 280.764 -1.00315 279.145 -2.70158C268.873 -7.24708 263.674 -9.42029 253.181 -13.6136C254.993 -12.1139 255.885 -11.3411 257.623 -9.75977C267.916 -5.39338 273.022 -3.10802 283.084 1.62583L283.101 1.63617Z" fill="#171314"/><path d="M291.489 -4.60192C295.649 -4.4671 297.773 -4.41482 302.066 -4.34586C297.501 -8.55372 295.104 -10.5482 290.127 -14.3537C279.526 -14.3897 274.438 -14.509 264.613 -14.9761C275.466 -11.0266 280.833 -8.93951 291.489 -4.60192Z" fill="#F2A93F"/><path d="M280.471 -5.07042C283.207 -4.93295 284.583 -4.85906 287.38 -4.74686C276.797 -9.12504 271.446 -11.2018 260.68 -15.1815C257.997 -15.3289 256.673 -15.4128 254.06 -15.6008C264.728 -11.5755 270.017 -9.4735 280.487 -5.06008L280.471 -5.07042Z" fill="#171314"/><path d="M387.197 25.4845C378.538 21.1832 374.174 19.1065 365.384 15.0861C368.438 19.1784 369.893 21.2856 372.623 25.6014C378.346 25.5858 381.272 25.5656 387.214 25.4948L387.197 25.4845Z" fill="#F2A93F"/><path d="M320.489 27.9508C318.782 24.7464 317.883 23.1799 316.005 20.1026C306.347 14.8333 301.457 12.2776 291.546 7.33973C296.951 14.2301 299.399 17.8993 303.747 25.5983C310.276 26.6008 313.624 27.0796 320.482 27.9251L320.489 27.9508Z" fill="#171314"/></svg>