<svg width="193" height="258" viewBox="0 0 193 258" fill="none" xmlns="http://www.w3.org/2000/svg">
<g style="mix-blend-mode:overlay" opacity="0.3">
<path d="M-0.999466 154.962C1.46318 159.942 2.6499 162.457 4.92251 167.521C8.72858 168.458 10.6522 168.939 14.5276 169.93C17.8269 166.207 19.3939 164.331 22.3886 160.545C12.7938 158.174 8.1199 157.066 -0.999466 154.962Z" fill="white"/>
<path d="M6.3228 170.683C8.5467 175.769 9.60994 178.335 11.6308 183.507C15.5494 184.558 17.5292 185.095 21.5301 186.197C25.2452 182.543 27.0296 180.686 30.4332 176.943C20.5489 174.284 15.7344 173.035 6.31938 170.67L6.3228 170.683Z" fill="white"/>
<path d="M23.6073 219.697C25.0704 225.064 25.7515 227.763 26.9916 233.193C31.2436 234.644 33.386 235.38 37.7025 236.893C42.6743 233.558 45.0879 231.85 49.7606 228.37C39.0778 224.698 33.8455 222.962 23.6039 219.684L23.6073 219.697Z" fill="white"/>
<path d="M27.7516 236.571C28.9478 242.016 29.489 244.755 30.467 250.255C34.8123 251.85 37.0096 252.663 41.431 254.338C46.8261 251.151 49.4496 249.511 54.5374 246.174C43.6015 242.119 38.2526 240.204 27.7516 236.571Z" fill="white"/>
<path d="M18.6395 203.075C20.3612 208.358 21.1692 211.02 22.6844 216.377C26.8301 217.687 28.9176 218.345 33.136 219.722C37.688 216.252 39.8951 214.489 44.1418 210.902C33.7135 207.592 28.6157 206.026 18.6395 203.075Z" fill="white"/>
<path d="M12.8744 186.72C14.8513 191.907 15.7911 194.524 17.5567 199.792C21.5912 200.968 23.6273 201.563 27.7393 202.798C31.8735 199.225 33.8611 197.411 37.6934 193.734C27.5389 190.756 22.5755 189.36 12.8744 186.72Z" fill="white"/>
<path d="M-9.05505 139.603C-6.3571 144.464 -5.05511 146.924 -2.53896 151.874C1.14501 152.713 3.00413 153.132 6.76699 154.01C9.64439 150.246 11.0152 148.354 13.5914 144.54C4.29573 142.442 -0.236167 141.455 -9.05026 139.596L-9.05505 139.603Z" fill="white"/>
<path d="M-17.842 124.627C-14.917 129.364 -13.4949 131.76 -10.7434 136.591C-7.18158 137.332 -5.37527 137.708 -1.74276 138.482C0.71959 134.704 1.88114 132.797 4.04094 128.989C-4.95426 127.144 -9.33112 126.275 -17.8502 124.622L-17.842 124.627Z" fill="white"/>
<path d="M-12.5837 223.898C-9.13562 221.986 -7.44107 221.022 -4.10137 219.063C-5.17067 213.965 -5.75985 211.43 -7.03428 206.384C-14.6996 211.379 -18.7144 213.811 -27.0808 218.516C-21.3737 220.592 -18.4739 221.675 -12.5885 223.905L-12.5837 223.898Z" fill="white"/>
<path d="M-10.3258 239.61C-6.60191 237.807 -4.77771 236.892 -1.17389 235.024C-1.9873 229.884 -2.44134 227.316 -3.4633 222.216C-11.7961 226.995 -16.1374 229.307 -25.1638 233.747C-19.3189 236.006 -16.3525 237.184 -10.3258 239.61Z" fill="white"/>
<path d="M31.0498 253.661C31.9757 259.17 32.3735 261.938 33.073 267.497C37.5232 269.254 39.7576 270.154 44.2757 271.986C50.0928 268.968 52.9248 267.416 58.4358 264.227C47.2742 259.764 41.797 257.651 31.0546 253.653L31.0498 253.661Z" fill="white"/>
<path d="M-8.88237 255.43C-4.89232 253.751 -2.93022 252.891 0.939777 251.147C0.395296 245.963 0.0668094 243.377 -0.69446 238.227C-9.692 242.749 -14.3585 244.921 -24.0469 249.063C-18.0737 251.52 -15.0408 252.793 -8.89059 255.425L-8.88237 255.43Z" fill="white"/>
<path d="M-8.25837 271.333C-4.00695 269.786 -1.90834 269.001 2.22784 267.382C1.95571 262.165 1.75757 259.555 1.26866 254.373C-8.38267 258.602 -13.3908 260.624 -23.722 264.437C-17.6171 267.104 -14.5224 268.48 -8.25837 271.333Z" fill="white"/>
<path d="M16.3916 232.698C17.4931 238.019 17.9958 240.693 18.884 246.061C21.7831 247.09 23.2451 247.613 26.1757 248.683C25.2327 243.238 24.7032 240.516 23.542 235.125C20.6614 234.14 19.231 233.658 16.3867 232.706L16.3916 232.698Z" fill="white"/>
<path d="M0.0789882 197.789C-1.47054 192.688 -2.29984 190.151 -4.05106 185.116C-5.84442 186.53 -6.75825 187.237 -8.6106 188.635C-6.99865 193.637 -6.24961 196.155 -4.83455 201.214C-2.84293 199.85 -1.86186 199.164 0.0789882 197.789Z" fill="white"/>
<path d="M12.9898 263.027C12.4892 257.699 12.1827 255.043 11.4701 249.742C8.96328 250.921 7.6934 251.501 5.13239 252.657C5.70842 257.883 5.9395 260.514 6.29875 265.775C8.99629 264.693 10.3368 264.148 12.9898 263.027Z" fill="white"/>
<path d="M26.7466 252.071C23.7995 250.99 22.3341 250.455 19.4151 249.402C20.2511 254.781 20.6105 257.482 21.2332 262.908C24.2023 264.045 25.6909 264.616 28.6916 265.794C28.0271 260.289 27.6279 257.542 26.7418 252.079L26.7466 252.071Z" fill="white"/>
<path d="M10.9962 246.457C10.2267 241.173 9.78156 238.536 8.80351 233.293C6.4675 234.548 5.28957 235.164 2.91241 236.393C3.75257 241.582 4.12702 244.185 4.75039 249.409C7.27368 248.239 8.52709 247.65 10.9962 246.457Z" fill="white"/>
<path d="M4.52904 213.809C3.22854 208.641 2.52616 206.066 1.02877 200.956C-0.946379 202.33 -1.94391 203.006 -3.97326 204.357C-2.61513 209.434 -1.98822 211.982 -0.830419 217.104C1.34162 215.799 2.41119 215.137 4.52904 213.809Z" fill="white"/>
<path d="M8.1752 230.051C7.13198 224.82 6.56474 222.213 5.31639 217.034C3.16081 218.349 2.07478 219.001 -0.126761 220.298C0.978898 225.43 1.47891 228.016 2.37601 233.187C4.72368 231.95 5.88516 231.324 8.18343 230.056L8.1752 230.051Z" fill="white"/>
<path d="M12.5271 216.202C13.8907 221.453 14.5286 224.093 15.6823 229.404C18.5149 230.339 19.937 230.815 22.7978 231.777C21.5844 226.397 20.9232 223.72 19.4965 218.387C16.6906 217.502 15.2918 217.062 12.5141 216.205L12.5271 216.202Z" fill="white"/>
<path d="M-3.8456 168.166C-1.72734 173.164 -0.712112 175.679 1.21267 180.748C3.8182 181.423 5.1292 181.765 7.77109 182.473C5.78181 177.342 4.73504 174.786 2.5475 169.733C-0.0347048 169.095 -1.30455 168.778 -3.85382 168.16L-3.8456 168.166Z" fill="white"/>
<path d="M7.85763 199.927C9.48331 205.108 10.2399 207.705 11.6687 212.943C14.4217 213.785 15.8171 214.212 18.6112 215.08C17.1358 209.77 16.3394 207.126 14.6575 201.889C11.923 201.091 10.564 200.697 7.87067 199.925L7.85763 199.927Z" fill="white"/>
<path d="M2.39448 183.911C4.27055 189.004 5.15405 191.563 6.83667 196.726C9.51834 197.48 10.8691 197.869 13.592 198.649C11.8579 193.422 10.938 190.829 8.99748 185.675C6.33913 184.956 5.01991 184.609 2.40272 183.916L2.39448 183.911Z" fill="white"/>
<path d="M-10.8391 152.725C-8.48212 157.618 -7.34822 160.09 -5.17302 165.071C-2.64844 165.673 -1.37381 165.982 1.1837 166.605C-1.04775 161.567 -2.21458 159.075 -4.64086 154.128C-7.14212 153.562 -8.3756 153.279 -10.8309 152.731L-10.8391 152.725Z" fill="white"/>
<path d="M42.759 194.821C45.011 200.319 46.0866 203.085 48.1225 208.672C48.1733 208.683 48.2288 208.686 48.283 208.709C59.3699 212.304 65.0454 214.211 76.6426 218.254C74.3872 212.358 73.2101 209.444 70.7372 203.657C59.2874 199.909 53.684 198.143 42.759 194.821Z" fill="white"/>
<path d="M49.3729 212.146C51.36 217.756 52.2991 220.575 54.0702 226.273C54.1292 226.289 54.1848 226.292 54.239 226.315C65.6002 230.295 71.404 232.4 83.2516 236.867C81.2788 230.85 80.2396 227.862 78.0329 221.943C66.3101 217.789 60.5818 215.839 49.3729 212.146Z" fill="white"/>
<path d="M27.1269 161.331C29.8852 166.571 31.2092 169.215 33.7678 174.554C33.8186 174.565 33.8659 174.562 33.9249 174.578C44.4493 177.479 49.8407 179.015 60.8844 182.295C58.0952 176.683 56.6471 173.908 53.6569 168.416C42.7718 165.395 37.4702 163.99 27.1317 161.323L27.1269 161.331Z" fill="white"/>
<path d="M35.3415 177.878C37.8466 183.248 39.0505 185.955 41.356 191.424C41.4068 191.434 41.4624 191.437 41.5083 191.455C52.3146 194.693 57.857 196.409 69.1846 200.059C66.6582 194.303 65.348 191.454 62.6124 185.812C51.4418 182.442 45.9893 180.856 35.3415 177.878Z" fill="white"/>
<path d="M60.0703 247.778C61.508 253.588 62.1692 256.52 63.3791 262.4C63.4381 262.416 63.4971 262.431 63.5561 262.447C75.4098 267.27 81.4544 269.814 93.7643 275.189C92.3733 268.94 91.6202 265.843 89.9918 259.679C77.7793 254.642 71.7924 252.263 60.0621 247.773L60.0703 247.778Z" fill="white"/>
<path d="M55.1515 229.799C56.8657 235.515 57.6682 238.387 59.1628 244.179C59.2218 244.195 59.2726 244.205 59.3316 244.221C70.9398 248.612 76.8753 250.928 88.9588 255.841C87.277 249.708 86.3708 246.654 84.455 240.619C72.4867 236.034 66.6218 233.88 55.1433 229.794L55.1515 229.799Z" fill="white"/>
<path d="M-24.9535 85.473C-21.0618 89.9307 -19.163 92.1888 -15.4394 96.7864C-15.3969 96.7918 -15.3578 96.7843 -15.3152 96.7897C-6.36598 98.3607 -1.74626 99.1893 7.75592 100.958C3.77371 96.1873 1.74315 93.8466 -2.40372 89.2287C-11.7077 87.6379 -16.2169 86.8893 -24.9535 85.473Z" fill="white"/>
<path d="M-13.1432 99.6354C-9.46006 104.261 -7.66619 106.613 -4.16763 111.368C-4.1251 111.374 -4.086 111.366 -4.03523 111.377C5.24673 113.167 10.0215 114.114 19.8454 116.138C16.0896 111.19 14.1606 108.742 10.2319 103.941C0.604838 102.115 -4.0725 101.251 -13.1432 99.6354Z" fill="white"/>
<path d="M18.1492 145.212C21.1442 150.313 22.6012 152.891 25.4048 158.095C25.4556 158.106 25.5029 158.104 25.5537 158.114C35.7734 160.696 41.0209 162.078 51.7791 165.008C48.7354 159.546 47.1659 156.854 43.9294 151.517C33.3475 148.836 28.1947 147.577 18.1622 145.209L18.1492 145.212Z" fill="white"/>
<path d="M8.42569 129.532C11.6539 134.48 13.2276 136.982 16.2713 142.06C16.3221 142.071 16.3612 142.063 16.4119 142.074C26.3291 144.369 31.416 145.587 41.8697 148.198C38.5832 142.904 36.8888 140.283 33.4046 135.121C23.1369 132.744 18.1412 131.637 8.42088 129.539L8.42569 129.532Z" fill="white"/>
<path d="M-2.00331 114.337C1.45821 119.133 3.14025 121.554 6.41722 126.48C6.45975 126.485 6.50709 126.483 6.54962 126.488C16.1499 128.521 21.0831 129.599 31.2274 131.899C27.7028 126.764 25.8904 124.241 22.1764 119.244C12.2242 117.15 7.38704 116.174 -2.01155 114.332L-2.00331 114.337Z" fill="white"/>
<path d="M37.458 190.706C35.6148 186.275 34.6641 184.078 32.6747 179.715C29.8454 182.762 28.3717 184.27 25.3359 187.262C30.1271 188.604 32.5515 189.293 37.4497 190.701L37.458 190.706Z" fill="white"/>
<path d="M12.7912 141.647C10.3429 137.54 9.09372 135.508 6.52059 131.473C4.70315 134.589 3.74606 136.133 1.72418 139.228C6.09212 140.165 8.31141 140.651 12.7912 141.647Z" fill="white"/>
<path d="M21.784 157.595C19.5319 153.376 18.3767 151.286 15.9998 147.139C13.8442 150.246 12.7238 151.794 10.3603 154.866C14.8702 155.925 17.154 156.472 21.7792 157.603L21.784 157.595Z" fill="white"/>
<path d="M30.0164 173.95C27.9688 169.625 26.9076 167.477 24.7269 163.218C22.2378 166.307 20.9343 167.837 18.2469 170.877C22.9023 172.069 25.2588 172.683 30.0164 173.95Z" fill="white"/>
<path d="M3.07691 126.155C0.440653 122.164 -0.902514 120.191 -3.6602 116.285C-5.14629 119.385 -5.93187 120.93 -7.61896 124.021C-3.39783 124.845 -1.26085 125.279 3.07691 126.155Z" fill="white"/>
<path d="M44.1 207.824C42.4729 203.304 41.6196 201.062 39.8512 196.603C36.6781 199.594 35.0391 201.073 31.6562 203.997C36.5832 205.488 39.0707 206.259 44.0951 207.832L44.1 207.824Z" fill="white"/>
<path d="M54.8966 243.06C53.7134 238.381 53.081 236.043 51.7482 231.42C47.8837 234.233 45.8989 235.623 41.834 238.354C47.0039 240.189 49.6259 241.13 54.8966 243.06Z" fill="white"/>
<path d="M49.9201 225.28C48.5091 220.672 47.7662 218.382 46.2139 213.834C42.6903 216.744 40.8826 218.181 37.1621 221.021C42.2153 222.676 44.766 223.53 49.9201 225.28Z" fill="white"/>
<path d="M58.9946 261.122C58.044 256.365 57.5207 253.999 56.4171 249.285C52.2081 251.989 50.0512 253.324 45.6515 255.93C50.9462 257.95 53.6087 258.991 58.9994 261.114L58.9946 261.122Z" fill="white"/>
</g>
<path d="M18.2795 132.534C21.3054 137.238 22.7796 139.625 25.6223 144.438C29.4867 144.953 31.4337 145.214 35.377 145.768C38.1782 141.668 39.4996 139.617 41.9983 135.487C32.254 134.196 27.5149 133.613 18.2795 132.534Z" fill="#F2A93F"/>
<path d="M27.3723 147.445C30.1746 152.286 31.5287 154.736 34.1478 159.686C38.1343 160.299 40.1505 160.614 44.2241 161.271C47.4487 157.192 48.9807 155.134 51.891 151.007C41.8297 149.453 36.9274 148.746 27.3723 147.445Z" fill="#F2A93F"/>
<path d="M50.279 194.557C52.3575 199.765 53.348 202.392 55.2364 207.684C59.5934 208.657 61.7948 209.153 66.2423 210.183C70.7463 206.277 72.9246 204.304 77.1089 200.304C66.1359 197.826 60.7739 196.681 50.2872 194.562L50.279 194.557Z" fill="#171314"/>
<path d="M56.3919 210.98C58.2186 216.297 59.0856 218.975 60.7058 224.365C65.1821 225.477 67.4433 226.042 72.0054 227.219C76.9354 223.42 79.3297 221.487 83.9545 217.571C72.6961 214.744 67.1866 213.432 56.405 210.978L56.3919 210.98Z" fill="#171314"/>
<path d="M43.401 178.475C45.7312 183.574 46.8501 186.143 48.9772 191.329C53.2231 192.168 55.36 192.602 59.6834 193.501C63.7552 189.516 65.7173 187.503 69.4729 183.437C58.7948 181.294 53.5851 180.308 43.401 178.475Z" fill="#171314"/>
<path d="M35.7519 162.762C38.3222 167.735 39.5563 170.248 41.94 175.318C46.0521 176.041 48.1376 176.411 52.332 177.186C55.9784 173.147 57.7279 171.108 61.0533 166.996C50.6846 165.164 45.6286 164.318 35.7519 162.762Z" fill="#171314"/>
<path d="M8.49201 118.073C11.7333 122.635 13.3111 124.947 16.3857 129.629C20.115 130.048 22.0043 130.273 25.8173 130.723C28.2103 126.635 29.3259 124.582 31.4068 120.479C21.9938 119.427 17.4063 118.95 8.49201 118.073Z" fill="#F2A93F"/>
<path d="M-1.96157 104.069C1.49173 108.475 3.18133 110.719 6.46792 115.246C10.0655 115.582 11.8889 115.766 15.5702 116.134C17.5455 112.071 18.4621 110.043 20.1369 105.984C11.0483 105.147 6.63029 104.765 -1.95814 104.081L-1.96157 104.069Z" fill="#F2A93F"/>
<path d="M-13.0647 90.5524C-9.40766 94.7989 -7.6179 96.9565 -4.11589 101.341C-0.646622 101.607 1.10277 101.745 4.6523 102.03C6.22967 98.016 6.93912 96.0074 8.21463 92.0176C-0.543252 91.3667 -4.80009 91.0752 -13.0599 90.5447L-13.0647 90.5524Z" fill="#F2A93F"/>
<path d="M61.6234 243.493C58.5109 242.64 56.9653 242.214 53.8892 241.394C55.0943 246.769 55.6382 249.468 56.6252 254.899C59.7596 255.809 61.3416 256.268 64.5124 257.212C63.4671 251.691 62.8834 248.946 61.6234 243.493Z" fill="#171314"/>
<path d="M4.58913 172.571C7.21263 170.163 8.49076 168.949 10.9915 166.517C8.84645 161.725 7.72352 159.346 5.39327 154.63C-0.215332 160.681 -3.20383 163.671 -9.52796 169.582C-3.98142 170.726 -1.15636 171.324 4.59736 172.576L4.58913 172.571Z" fill="#171314"/>
<path d="M10.2264 187.576C13.1215 185.211 14.5389 184.03 17.3161 181.633C15.405 176.743 14.4056 174.313 12.3093 169.499C6.02837 175.469 2.70783 178.422 -4.2989 184.214C1.40954 185.502 4.31554 186.173 10.2394 187.574L10.2264 187.576Z" fill="#171314"/>
<path d="M15.11 202.834C18.2837 200.536 19.8369 199.377 22.8892 197.035C21.2285 192.057 20.3478 189.584 18.4806 184.679C11.5205 190.543 7.85286 193.427 0.169711 199.072C6.04347 200.517 9.03043 201.26 15.1018 202.829L15.11 202.834Z" fill="#171314"/>
<path d="M-1.78399 157.841C0.563041 155.398 1.70053 154.17 3.933 151.709C1.55404 147.016 0.315855 144.692 -2.23187 140.086C-7.17365 146.171 -9.82187 149.203 -15.4819 155.19C-10.0987 156.209 -7.35935 156.744 -1.77576 157.846L-1.78399 157.841Z" fill="#171314"/>
<path d="M19.2193 218.299C22.6668 216.077 24.3593 214.952 27.6935 212.691C26.2784 207.632 25.5246 205.122 23.9078 200.128C16.2631 205.841 12.2661 208.646 3.89627 214.106C9.93056 215.715 12.9971 216.551 19.2193 218.299Z" fill="#171314"/>
<path d="M61.6905 227.714C63.262 233.128 63.9842 235.853 65.341 241.334C69.9318 242.593 72.2479 243.235 76.9197 244.566C82.2874 240.892 84.8965 239.019 89.9472 235.21C78.4144 231.997 72.754 230.505 61.6953 227.707L61.6905 227.714Z" fill="#171314"/>
<path d="M45.6849 242.402C43.1678 243.799 41.8945 244.494 39.3362 245.866C40.2717 251.104 40.6825 253.741 41.3964 259.021C44.1139 257.707 45.4578 257.046 48.1211 255.708C47.2528 250.363 46.7665 247.7 45.6931 242.407L45.6849 242.402Z" fill="#171314"/>
<path d="M22.543 233.976C26.2676 231.842 28.1028 230.764 31.7142 228.592C30.5612 223.462 29.926 220.909 28.5631 215.84C20.2351 221.38 15.8937 224.075 6.84813 229.314C13.0333 231.104 16.1794 232.032 22.5512 233.981L22.543 233.976Z" fill="#171314"/>
<path d="M25.054 249.814C29.0544 247.79 31.0274 246.766 34.916 244.682C34.0202 239.49 33.5202 236.904 32.4064 231.768C23.3896 237.088 18.7086 239.667 8.98525 244.652C15.3166 246.629 18.5327 247.665 25.054 249.814Z" fill="#171314"/>
<path d="M12.0684 205.012C7.13583 203.731 4.7025 203.111 -0.111354 201.915C0.913408 205.823 1.3908 207.786 2.28041 211.726C6.27599 209.07 8.23194 207.726 12.0601 205.006L12.0684 205.012Z" fill="#171314"/>
<path d="M7.45022 189.825C2.64185 188.675 0.276437 188.13 -4.39541 187.056C-3.17856 190.913 -2.59688 192.857 -1.50214 196.744C2.16895 194.001 3.95613 192.615 7.45846 189.83L7.45022 189.825Z" fill="#171314"/>
<path d="M2.07235 174.865C-2.59881 173.844 -4.90317 173.348 -9.44605 172.397C-8.0323 176.196 -7.35459 178.115 -6.06776 181.952C-2.73076 179.138 -1.09588 177.72 2.07235 174.865Z" fill="#171314"/>
<path d="M9.64169 145.187C7.03222 140.478 5.6829 138.148 2.90329 133.546C1.6567 135.185 1.02688 136.006 -0.262253 137.641C2.38015 142.243 3.66087 144.572 6.12489 149.275C7.55946 147.647 8.26612 146.831 9.64993 145.192L9.64169 145.187Z" fill="#171314"/>
<path d="M17.4157 160.061C15.0367 155.24 13.8026 152.855 11.2419 148.122C9.81554 149.756 9.09586 150.574 7.61876 152.197C10.0389 156.916 11.2043 159.3 13.4344 164.103C15.0522 162.493 15.8487 161.681 17.4157 160.061Z" fill="#171314"/>
<path d="M15.9131 220.407C10.853 218.982 8.35173 218.288 3.42675 216.958C4.25119 220.91 4.6243 222.894 5.31016 226.866C9.64189 224.314 11.7618 223.019 15.9179 220.399L15.9131 220.407Z" fill="#171314"/>
<path d="M44.723 208.386C46.4502 213.587 47.261 216.208 48.7865 221.475C51.7714 222.185 53.2704 222.539 56.2917 223.282C54.703 217.933 53.8689 215.276 52.069 210.007C49.1109 209.346 47.6483 209.026 44.723 208.386Z" fill="#171314"/>
<path d="M24.4673 175.281C22.3271 170.354 21.2082 167.913 18.878 163.069C17.2767 164.689 16.4637 165.491 14.8117 167.1C16.9931 171.925 18.0433 174.366 20.0394 179.267C21.8355 177.684 22.7254 176.887 24.4755 175.286L24.4673 175.281Z" fill="#171314"/>
<path d="M1.16023 130.692C-1.66809 126.112 -3.12444 123.843 -6.13113 119.364C-7.19318 121.003 -7.74136 121.821 -8.85898 123.457C-5.9943 127.942 -4.60656 130.21 -1.92025 134.797C-0.665421 133.163 -0.0486451 132.344 1.16365 130.705L1.16023 130.692Z" fill="#171314"/>
<path d="M45.0042 239.116C43.8739 233.841 43.2524 231.211 41.9121 225.996C39.5837 227.458 38.4023 228.19 36.0196 229.629C37.2172 234.796 37.7632 237.401 38.7426 242.624C41.2762 241.237 42.5282 240.539 45.0076 239.129L45.0042 239.116Z" fill="#171314"/>
<path d="M57.2568 226.608C54.2191 225.854 52.7085 225.483 49.7119 224.755C51.1805 230.04 51.8595 232.706 53.1216 238.064C56.1861 238.866 57.72 239.274 60.8209 240.109C59.5039 234.675 58.7933 231.967 57.2616 226.6L57.2568 226.608Z" fill="#171314"/>
<path d="M41.0613 222.763C39.6689 217.558 38.9158 214.973 37.3217 209.834C35.1784 211.349 34.0855 212.103 31.8833 213.602C33.3347 218.694 34.0076 221.261 35.2573 226.419C37.6022 224.967 38.7624 224.233 41.0613 222.763Z" fill="#171314"/>
<path d="M30.7738 190.812C28.8805 185.784 27.877 183.287 25.7855 178.337C24.0058 179.93 23.0948 180.724 21.2643 182.307C23.2118 187.231 24.1351 189.709 25.8842 194.711C27.8669 193.16 28.837 192.381 30.7738 190.812Z" fill="#171314"/>
<path d="M36.3135 206.651C34.6625 201.53 33.7906 198.988 31.9413 193.944C29.9751 195.506 28.9837 196.282 26.9633 197.82C28.6685 202.837 29.4731 205.358 30.9685 210.435C33.1282 208.931 34.1998 208.174 36.3135 206.651Z" fill="#171314"/>
<path d="M66.1669 244.754C67.4667 250.253 68.0655 253.029 69.1375 258.598C73.8382 260.011 76.2043 260.738 80.981 262.23C86.7851 258.702 89.6041 256.897 95.0959 253.227C83.2983 249.613 77.5097 247.923 66.1669 244.754Z" fill="#171314"/>
<path d="M35.4586 247.914C25.764 252.98 20.7319 255.424 10.3252 260.108C16.8013 262.293 20.0873 263.437 26.7438 265.81C31.0234 263.908 33.1426 262.943 37.3021 260.976C36.6719 255.727 36.3022 253.116 35.4586 247.914Z" fill="#171314"/>
<path d="M38.9425 192.31C40.9166 197.41 41.8591 199.986 43.635 205.164C46.5404 205.782 47.9947 206.097 50.9412 206.74C49.0974 201.486 48.1268 198.882 46.0799 193.715C43.2061 193.139 41.7751 192.86 38.9425 192.31Z" fill="#171314"/>
<path d="M17.0506 146.069C19.7424 150.83 21.0389 153.244 23.5441 158.101C26.1949 158.484 27.5285 158.681 30.2123 159.084C27.6378 154.173 26.3001 151.733 23.5391 146.918C20.9246 146.569 19.6239 146.393 17.0424 146.064L17.0506 146.069Z" fill="#171314"/>
<path d="M-1.1238 117.161C2.0105 121.656 3.53064 123.932 6.48999 128.541C8.96451 128.803 10.2076 128.943 12.7198 129.217C9.69463 124.567 8.13332 122.265 4.93317 117.729C2.49502 117.501 1.28486 117.381 -1.11557 117.166L-1.1238 117.161Z" fill="#171314"/>
<path d="M32.3903 176.549C34.6115 181.549 35.6692 184.069 37.7004 189.151C40.5213 189.684 41.9441 189.957 44.798 190.51C42.7024 185.366 41.6083 182.812 39.3227 177.751C36.5333 177.26 35.1468 177.02 32.3903 176.549Z" fill="#171314"/>
<path d="M25.0862 161.128C27.5427 166.009 28.7239 168.478 30.9938 173.454C33.7256 173.909 35.1038 174.144 37.8815 174.618C35.5472 169.579 34.3248 167.084 31.799 162.15C29.0906 161.731 27.7487 161.529 25.0862 161.128Z" fill="#171314"/>
<path d="M8.30493 131.408C11.2156 136.04 12.6321 138.39 15.3644 143.124C17.9295 143.442 19.2137 143.608 21.8117 143.947C19.0102 139.159 17.5607 136.788 14.5759 132.11C12.0472 131.825 10.7959 131.68 8.30493 131.408Z" fill="#171314"/>
<path d="M-11.2251 103.346C-7.88843 107.701 -6.25646 109.909 -3.08169 114.375C-0.702535 114.588 0.504195 114.694 2.92108 114.92C-0.319541 110.411 -1.98445 108.183 -5.40482 103.797C-7.75585 103.613 -8.91661 103.525 -11.2299 103.353L-11.2251 103.346Z" fill="#171314"/>
<path d="M69.789 262.058C70.4556 265.677 70.7629 267.491 71.3253 271.13C80.6341 270.665 85.2861 270.436 94.6032 269.976C84.5241 266.64 79.5518 265.057 69.7842 262.066L69.789 262.058Z" fill="#171314"/>
<path d="M66.1779 167.512C69.0604 172.756 70.4481 175.408 73.1296 180.771C73.1852 180.774 73.2407 180.776 73.2915 180.787C84.6549 183.136 90.4758 184.409 102.391 187.158C99.463 181.513 97.9511 178.729 94.8251 173.216C83.0878 170.749 77.3602 169.62 66.1862 167.517L66.1779 167.512Z" fill="#171314"/>
<path d="M74.7727 184.095C77.4054 189.481 78.6683 192.204 81.0918 197.704C81.1426 197.714 81.2029 197.709 81.2619 197.725C92.9402 200.432 98.912 201.885 111.123 205.022C108.454 199.219 107.069 196.344 104.194 190.668C92.1429 187.823 86.2595 186.522 74.7692 184.082L74.7727 184.095Z" fill="#171314"/>
<path d="M46.759 135.743C50.0998 140.676 51.7338 143.174 54.8901 148.237C54.9456 148.24 54.993 148.237 55.0437 148.248C65.7588 149.967 71.2635 150.902 82.5446 152.944C79.1256 147.641 77.3709 145.026 73.7577 139.868C62.666 138.073 57.269 137.258 46.7542 135.751L46.759 135.743Z" fill="#F2A93F"/>
<path d="M56.8364 151.389C59.9521 156.48 61.4647 159.061 64.3877 164.277C64.4433 164.28 64.4906 164.277 64.5496 164.293C75.5919 166.313 81.2571 167.413 92.8544 169.792C89.6783 164.322 88.0416 161.609 84.6679 156.271C73.2503 154.154 67.688 153.183 56.8446 151.394L56.8364 151.389Z" fill="#F2A93F"/>
<path d="M89.592 218.569C91.7089 224.229 92.7104 227.076 94.6063 232.831C94.6653 232.847 94.7257 232.842 94.7847 232.858C107.049 236.349 113.311 238.218 126.095 242.216C123.977 236.119 122.867 233.097 120.528 227.116C107.893 223.447 101.698 221.747 89.5968 218.562L89.592 218.569Z" fill="#171314"/>
<path d="M82.5829 201.124C84.9577 206.647 86.0957 209.441 88.266 215.07C88.325 215.086 88.3854 215.081 88.4444 215.096C100.415 218.179 106.536 219.832 119.045 223.391C116.652 217.441 115.396 214.487 112.789 208.659C100.439 205.413 94.4011 203.919 82.5959 201.122L82.5829 201.124Z" fill="#171314"/>
<path d="M-13.6572 65.6758C-9.28595 69.6983 -7.14151 71.7477 -2.9267 75.9281C-2.88417 75.9334 -2.85329 75.9208 -2.80595 75.9185C6.20234 76.4811 10.8481 76.7926 20.4348 77.494C15.9421 73.1713 13.6563 71.0546 9.0107 66.9026C-0.350218 66.3535 -4.88078 66.1143 -13.6654 65.6706L-13.6572 65.6758Z" fill="#F2A93F"/>
<path d="M-0.326391 78.5305C3.85137 82.7516 5.90389 84.8927 9.93003 89.2641C9.97737 89.2618 10.0165 89.2544 10.059 89.2597C19.4192 90.0111 24.2345 90.4182 34.1669 91.3365C29.8643 86.8024 27.68 84.5786 23.2292 80.2075C13.5212 79.4619 8.80814 79.1296 -0.321584 78.5228L-0.326391 78.5305Z" fill="#F2A93F"/>
<path d="M95.7613 236.404C97.6085 242.182 98.4687 245.09 100.087 250.959C100.146 250.975 100.21 250.983 100.269 250.999C112.805 254.916 119.201 257.009 132.25 261.482C130.424 255.248 129.448 252.16 127.392 246.038C114.479 241.916 108.143 240.001 95.7613 236.404Z" fill="#171314"/>
<path d="M-27.5717 53.4583C-23.0235 57.2717 -20.7823 59.2218 -16.374 63.2036C-16.3397 63.2037 -16.3006 63.1963 -16.2533 63.194C-7.59483 63.6011 -3.11846 63.817 6.11622 64.3296C1.44177 60.2235 -0.937309 58.219 -5.75653 54.2888C-14.7559 53.9132 -19.1205 53.7568 -27.5587 53.4558L-27.5717 53.4583Z" fill="#F2A93F"/>
<path d="M35.9781 120.616C39.5405 125.379 41.2829 127.795 44.6772 132.698C44.7245 132.696 44.7718 132.693 44.8226 132.704C55.2091 134.142 60.5437 134.928 71.4989 136.648C67.8405 131.526 65.9725 128.999 62.1364 124.032C51.385 122.536 46.1547 121.858 35.9863 120.621L35.9781 120.616Z" fill="#F2A93F"/>
<path d="M24.5183 106.022C28.294 110.61 30.1448 112.945 33.7525 117.672C33.8032 117.683 33.8471 117.668 33.8897 117.673C43.9414 118.858 49.101 119.503 59.7194 120.937C55.8381 116.005 53.8651 113.573 49.8061 108.797C39.401 107.571 34.3423 107.022 24.5101 106.017L24.5183 106.022Z" fill="#F2A93F"/>
<path d="M12.412 91.9836C16.3929 96.3906 18.3486 98.6311 22.1648 103.191C22.2122 103.189 22.2513 103.181 22.2938 103.186C31.9964 104.142 36.9927 104.663 47.2647 105.826C43.1734 101.083 41.0859 98.7599 36.8251 94.1773C26.7679 93.202 21.8772 92.7688 12.4038 91.9785L12.412 91.9836Z" fill="#F2A93F"/>
<path d="M133.374 265.377C120.197 260.78 113.739 258.639 101.069 254.605C102.63 260.492 103.357 263.466 104.689 269.444C104.714 269.459 104.74 269.454 104.778 269.467C116.514 268.882 122.375 268.591 134.106 268.013C133.817 266.957 133.671 266.439 133.369 265.385L133.374 265.377Z" fill="#171314"/>
<path d="M-1.14613 213.513C-2.15781 208.707 -2.71409 206.321 -3.92129 201.552C-12.2685 207.634 -16.6586 210.609 -25.8558 216.382C-25.2324 220.966 -24.9746 223.261 -24.5501 227.87C-14.824 222.332 -10.1794 219.464 -1.28402 213.587C-1.24355 213.559 -1.1866 213.541 -1.14613 213.513Z" fill="#171314"/>
<path d="M4.77025 259.034C4.52487 254.122 4.35484 251.668 3.89747 246.783C-6.6526 252.134 -12.1389 254.699 -23.5294 259.597C-23.6634 264.218 -23.7712 266.529 -24.111 271.149C-12.2149 266.578 -6.47202 264.153 4.60285 259.099C4.65637 259.069 4.71674 259.064 4.77848 259.039L4.77025 259.034Z" fill="#171314"/>
<path d="M4.90845 262.086C-6.3743 267.106 -12.227 269.504 -24.3343 274.028C-24.4016 274.775 -24.4263 275.144 -24.4935 275.891C-12.6759 275.304 -6.76706 275.01 5.0506 274.423C5.07667 274.418 5.10273 274.413 5.12537 274.395C5.14754 269.459 5.10649 267.001 4.91325 262.079L4.90845 262.086Z" fill="#171314"/>
<path d="M3.59429 243.755C3.08959 238.873 2.78577 236.431 2.06908 231.575C-7.749 237.204 -12.8642 239.927 -23.522 245.157C-23.4028 249.777 -23.3864 252.091 -23.4601 256.707C-12.2857 251.769 -6.9009 249.183 3.44473 243.811C3.49825 243.78 3.55038 243.77 3.59909 243.748L3.59429 243.755Z" fill="#171314"/>
<path d="M1.62257 228.575C0.866772 223.727 0.432622 221.31 -0.531729 216.502C-9.61165 222.38 -14.3626 225.236 -24.298 230.759C-23.9208 235.37 -23.7837 237.675 -23.6124 242.284C-13.1673 237.027 -8.14544 234.289 1.47164 228.651C1.52035 228.628 1.57729 228.61 1.61776 228.582L1.62257 228.575Z" fill="#171314"/>
<path d="M60.4657 163.982C58.1155 159.755 56.913 157.667 54.4414 153.524C52.0147 156.899 50.7489 158.569 48.1144 161.909C52.9935 162.708 55.47 163.131 60.4691 163.995L60.4657 163.982Z" fill="#F2A93F"/>
<path d="M30.2754 117.656C27.3716 113.818 25.8905 111.918 22.8769 108.182C21.4573 111.505 20.7026 113.166 19.0821 116.48C23.5042 116.929 25.74 117.169 30.2754 117.656Z" fill="#F2A93F"/>
<path d="M6.74835 89.3804C3.50356 85.8299 1.85784 84.0827 -1.48368 80.6315C-2.2515 83.8304 -2.68994 85.4436 -3.64367 88.6645C0.456062 88.9321 2.53542 89.0738 6.75315 89.3728L6.74835 89.3804Z" fill="#F2A93F"/>
<path d="M41.0421 132.604C38.3146 128.632 36.9275 126.673 34.0869 122.79C32.3394 126.142 31.4118 127.822 29.4551 131.16C34.0288 131.714 36.3469 132.006 41.0373 132.612L41.0421 132.604Z" fill="#F2A93F"/>
<path d="M51.1149 148.056C48.5719 143.953 47.2754 141.924 44.611 137.905C42.5192 141.276 41.4331 142.953 39.1368 146.302C43.8656 146.975 46.2612 147.326 51.1066 148.05L51.1149 148.056Z" fill="#F2A93F"/>
<path d="M18.836 103.247C15.7641 99.5491 14.2007 97.7256 11.0108 94.1241C9.92055 97.3981 9.33049 99.0335 8.04266 102.312C12.3036 102.67 14.4619 102.85 18.8408 103.24L18.836 103.247Z" fill="#F2A93F"/>
<path d="M66.8849 271.352C66.2553 267.052 65.9014 264.91 65.1367 260.643C61.9542 259.681 60.3688 259.209 57.2145 258.276C58.1335 263.632 58.5368 266.317 59.2377 271.728C62.2933 271.576 63.8211 271.499 66.8767 271.347L66.8849 271.352Z" fill="#171314"/>
<path d="M37.675 264.24C28.9471 268.259 24.4507 270.196 15.2193 273.921C24.5281 273.456 29.1801 273.227 38.4889 272.762C38.2119 269.345 38.0432 267.639 37.675 264.24Z" fill="#171314"/>
<path d="M48.6371 259.019C45.9361 260.344 44.5709 261.002 41.8205 262.296C42.3314 266.382 42.555 268.421 42.9355 272.533C45.8964 272.385 47.3851 272.316 50.3509 272.16C49.7742 266.88 49.4271 264.251 48.6419 259.011L48.6371 259.019Z" fill="#171314"/>
<path d="M21.2157 251.727C15.9162 249.971 13.2921 249.125 8.12638 247.484C8.53027 251.503 8.69963 253.519 8.96495 257.558C13.9566 255.27 16.3983 254.103 21.2205 251.719L21.2157 251.727Z" fill="#171314"/>
<path d="M69.0696 180.368C66.9205 176.022 65.8119 173.875 63.5331 169.608C60.7648 172.96 59.3193 174.624 56.3397 177.929C61.3724 178.867 63.9134 179.352 69.0696 180.368Z" fill="#171314"/>
<path d="M83.9132 214.419C82.1811 209.866 81.2818 207.605 79.4167 203.117C75.9432 206.368 74.1573 207.99 70.4739 211.173C75.7899 212.428 78.4833 213.072 83.9132 214.419Z" fill="#171314"/>
<path d="M76.8931 197.192C74.9484 192.74 73.9469 190.532 71.8643 186.153C68.7426 189.465 67.127 191.108 63.7989 194.365C68.9756 195.457 71.5928 196.022 76.88 197.195L76.8931 197.192Z" fill="#171314"/>
<path d="M95.4785 250.021C94.1882 245.275 93.5098 242.918 92.0783 238.233C87.8988 241.329 85.759 242.856 81.3758 245.857C86.9594 247.471 89.7858 248.306 95.4785 250.021Z" fill="#171314"/>
<path d="M99.9593 268.333C98.9064 263.501 98.3385 261.096 97.1313 256.328C92.5992 259.31 90.279 260.777 85.5432 263.663C91.255 265.475 94.1432 266.412 99.9593 268.333Z" fill="#171314"/>
<path d="M90.1259 232.037C88.6147 227.387 87.8177 225.073 86.1652 220.484C82.3445 223.667 80.3817 225.241 76.3477 228.343C81.8064 229.773 84.5581 230.507 90.1259 232.037Z" fill="#171314"/>
<path d="M18.9642 235.987C13.786 234.403 11.2169 233.634 6.1691 232.153C6.78498 236.145 7.05862 238.141 7.53592 242.153C12.1894 239.727 14.4815 238.488 18.969 235.979L18.9642 235.987Z" fill="#171314"/>
</svg>
