<svg width="993" height="330" viewBox="0 0 993 330" fill="none" xmlns="http://www.w3.org/2000/svg">
<path d="M605.54 332.983C610.465 342.943 612.838 347.974 617.384 358.101C624.996 359.975 628.843 360.937 636.594 362.919C643.192 355.473 646.326 351.721 652.316 344.149C633.126 339.407 623.778 337.192 605.54 332.983Z" fill="#F6C352"/>
<path d="M589.429 302.265C594.825 311.987 597.429 316.907 602.462 326.806C609.83 328.484 613.548 329.323 621.074 331.079C626.828 323.551 629.57 319.766 634.722 312.139C616.131 307.943 607.067 305.969 589.439 302.25L589.429 302.265Z" fill="#F6C352"/>
<path d="M487.834 161.163C495.411 169.458 499.1 173.672 506.359 182.216C512.476 183.108 515.575 183.581 521.852 184.51C523.56 177.217 524.265 173.606 525.401 166.382C509.9 164.21 502.403 163.177 487.851 161.174L487.834 161.163Z" fill="#F6C352"/>
<path d="M532.502 214.896C539.231 223.811 542.522 228.33 548.917 237.484C555.54 238.63 558.889 239.216 565.679 240.425C568.988 232.92 570.475 229.16 573.192 221.647C556.441 218.798 548.303 217.469 532.502 214.896Z" fill="#F6C352"/>
<path d="M510.814 187.549C517.966 196.154 521.465 200.525 528.3 209.379C534.666 210.386 537.891 210.915 544.434 211.969C546.93 204.552 548.036 200.851 549.938 193.467C533.806 190.985 525.983 189.811 510.824 187.534L510.814 187.549Z" fill="#F6C352"/>
<path d="M571.854 272.313C577.704 281.787 580.548 286.579 586.051 296.241C593.175 297.722 596.788 298.474 604.053 300.023C608.977 292.466 611.3 288.653 615.62 281.036C597.63 277.346 588.876 275.609 571.838 272.303L571.854 272.313Z" fill="#F6C352"/>
<path d="M552.877 243.168C559.174 252.368 562.242 257.023 568.189 266.451C575.059 267.753 578.54 268.421 585.577 269.785C589.695 262.234 591.597 258.434 595.117 250.849C577.74 247.607 569.299 246.067 552.877 243.168Z" fill="#F6C352"/>
<path d="M548.588 348.313C553.334 343.929 555.645 341.709 560.145 337.278C556.038 327.66 553.886 322.896 549.392 313.42C539.37 324.458 533.994 329.918 522.557 340.688C532.773 343.64 537.964 345.168 548.578 348.328L548.588 348.313Z" fill="#F6C352"/>
<path d="M463.584 135.815C471.551 143.779 475.45 147.804 483.107 156.043C488.965 156.837 491.939 157.252 497.967 158.068C498.889 150.965 499.22 147.439 499.578 140.431C484.711 138.529 477.522 137.625 463.6 135.825L463.584 135.815Z" fill="#F6C352"/>
<path d="M488.612 237.715C481.049 235.872 477.327 234.967 470.017 233.197C474.19 240.296 476.232 243.881 480.184 251.076C483.716 245.739 485.397 243.059 488.612 237.715Z" fill="#F6C352"/>
<path d="M504.58 265.549C496.744 263.556 492.907 262.578 485.314 260.674C489.133 267.935 490.983 271.57 494.565 278.917C498.731 273.593 500.738 270.905 504.564 265.539L504.58 265.549Z" fill="#F6C352"/>
<path d="M519.161 293.985C511.062 291.827 507.076 290.756 499.236 288.696C502.694 296.094 504.359 299.805 507.563 307.277C512.354 301.983 514.685 299.327 519.144 293.974L519.161 293.985Z" fill="#F6C352"/>
<path d="M432.603 158.39C425.832 156.895 422.519 156.14 416.013 154.661C421.235 161.223 423.792 164.534 428.791 171.233C430.483 166.086 431.247 163.514 432.619 158.401L432.603 158.39Z" fill="#F6C352"/>
<path d="M452.575 184.085C445.545 182.49 442.088 181.709 435.313 180.147C440.188 186.896 442.567 190.309 447.228 197.18C449.519 191.918 450.587 189.302 452.575 184.085Z" fill="#F6C352"/>
<path d="M438.129 111.546C446.48 119.153 450.57 123.021 458.612 130.903C464.217 131.624 467.066 131.983 472.825 132.715C472.986 125.839 472.932 122.413 472.527 115.672C458.296 113.998 451.419 113.183 438.119 111.561L438.129 111.546Z" fill="#F6C352"/>
<path d="M532.332 322.986C523.972 320.622 519.871 319.479 511.761 317.229C514.842 324.752 516.33 328.524 519.158 336.122C524.596 330.892 527.225 328.274 532.332 322.986Z" fill="#F6C352"/>
<path d="M536.364 318.752C540.567 314.284 542.613 312.047 546.577 307.557C542.002 298.136 539.623 293.443 534.677 284.174C525.953 295.301 521.25 300.821 511.132 311.756C521.038 314.472 526.083 315.866 536.364 318.752Z" fill="#F6C352"/>
<path d="M471.27 210.535C463.964 208.832 460.383 207.994 453.348 206.333C457.876 213.27 460.086 216.769 464.393 223.802C467.314 218.487 468.685 215.826 471.27 210.535Z" fill="#F6C352"/>
<path d="M354.87 45.7427C364.294 52.1886 368.929 55.4802 378.083 62.2472C382.951 62.8262 385.411 63.1107 390.426 63.6751C388.39 57.7038 387.239 54.7841 384.681 49.0609C372.317 47.8122 366.347 47.1608 354.886 45.7531L354.87 45.7427Z" fill="#F6C352"/>
<path d="M335.853 48.6628C335.105 46.3801 334.692 45.2462 333.863 43.0195C324.798 36.5858 320.188 33.4377 310.846 27.2995C311.915 29.3995 312.445 30.4572 313.442 32.5978C322.56 38.873 327.037 42.087 335.869 48.6731L335.853 48.6628Z" fill="#F6C352"/>
<path d="M336.79 40.1826C339.817 40.5879 341.355 40.806 344.443 41.1861C335.03 34.8324 330.244 31.7448 320.577 25.7227C317.619 25.3178 316.139 25.1153 313.233 24.7004C322.78 30.7322 327.514 33.8298 336.79 40.1826Z" fill="#F6C352"/>
<path d="M383.729 66.451C392.809 73.2995 397.276 76.7849 406.069 83.9443C411.176 84.545 413.764 84.8455 419.024 85.4573C417.706 79.1468 416.902 76.0394 415.048 69.9258C402.055 68.5815 395.804 67.903 383.729 66.451Z" fill="#F6C352"/>
<path d="M411.509 88.4022C420.238 95.6278 424.512 99.3119 432.937 106.838C438.29 107.486 441.012 107.828 446.528 108.472C445.934 101.848 445.51 98.5737 444.363 92.1361C430.755 90.6401 424.19 89.9138 411.509 88.4022Z" fill="#F6C352"/>
<path d="M388.817 109.542C382.57 108.162 379.51 107.48 373.531 106.076C379.417 112.201 382.289 115.304 387.967 121.576C388.464 116.724 388.626 114.308 388.827 109.527L388.817 109.542Z" fill="#F6C352"/>
<path d="M411.332 133.524C404.839 132.097 401.636 131.388 395.401 129.952C400.963 136.301 403.673 139.515 409.011 146.001C410.094 140.983 410.562 138.482 411.332 133.524Z" fill="#F6C352"/>
<path d="M365.066 86.4702C359.09 85.1326 356.151 84.441 350.411 83.0586C356.604 88.9496 359.664 91.9358 365.64 97.9895C365.558 93.3293 365.447 91.0193 365.066 86.4702Z" fill="#F6C352"/>
<path d="M339.361 60.9555C338.495 57.3613 338.022 55.5922 336.952 52.1045C328.279 45.4476 323.847 42.198 314.881 35.8263C318.388 43.915 319.846 48.1371 322.155 56.8186C328.87 58.5134 332.297 59.3407 339.361 60.9555Z" fill="#F6C352"/>
<path d="M340.143 64.3904C334.416 63.0593 331.604 62.3838 326.095 60.9974C332.606 66.6392 335.811 69.5033 342.121 75.3181C341.473 70.9007 341.079 68.7121 340.143 64.3904Z" fill="#F6C352"/>
<path d="M317.396 53.5776C316.2 49.4133 315.531 47.3718 314.042 43.3442C308.547 42.0091 305.857 41.324 300.615 39.9135C307.426 45.2957 310.786 48.0224 317.396 53.5776Z" fill="#F6C352"/>
<path d="M540.335 266.451C534.847 257.205 532.022 252.638 526.177 243.594C524.347 246.585 523.406 248.086 521.49 251.066C527.051 260.123 529.738 264.69 534.952 273.935C537.151 270.94 538.23 269.441 540.335 266.451Z" fill="#F6C352"/>
<path d="M522.529 237.998C516.604 229.011 513.548 224.555 507.275 215.755C505.798 218.733 505.029 220.213 503.45 223.17C509.438 231.984 512.357 236.439 518.015 245.45C519.888 242.465 520.777 240.974 522.539 237.983L522.529 237.998Z" fill="#F6C352"/>
<path d="M571.71 325.5C567.151 315.834 564.771 311.033 559.832 301.534C557.315 304.521 556.015 306.009 553.397 308.976C558.045 318.463 560.297 323.248 564.575 332.887C567.474 329.948 568.912 328.46 571.727 325.51L571.71 325.5Z" fill="#F6C352"/>
<path d="M556.744 295.629C551.718 286.16 549.107 281.471 543.707 272.194C541.533 275.183 540.429 276.688 538.144 279.671C543.26 288.962 545.727 293.624 550.463 303.082C553.022 300.1 554.27 298.621 556.728 295.618L556.744 295.629Z" fill="#F6C352"/>
<path d="M364.726 82.8429C364.338 79.0362 364.069 77.1606 363.47 73.4347C355.155 66.4264 350.907 62.9934 342.299 56.2703C344.7 64.9881 345.59 69.4939 346.756 78.7172C353.772 80.4085 357.362 81.2316 364.716 82.8582L364.726 82.8429Z" fill="#F6C352"/>
<path d="M292.204 35.5106C283.859 28.9527 279.588 25.7398 270.959 19.4518C275.721 27.6241 277.759 31.9106 281.139 40.859C288.837 47.7155 292.602 51.1869 299.986 58.2517C297.58 48.8477 296.023 44.3076 292.241 35.5978C292.217 35.5618 292.237 35.5312 292.213 35.4953L292.204 35.5106Z" fill="#F6C352"/>
<path d="M348.985 41.7733C353.604 42.3458 355.953 42.6246 360.713 43.1569C357.99 37.5865 356.482 34.8696 353.243 29.573C341.468 28.3735 335.815 27.729 324.929 26.3191C334.691 32.3367 339.502 35.4193 348.985 41.7733Z" fill="#F6C352"/>
<path d="M503.358 210.332C496.995 201.603 493.742 197.279 487.038 188.764C485.89 191.692 485.311 193.164 484.068 196.096C490.494 204.651 493.626 208.985 499.696 217.742C501.207 214.786 501.932 213.299 503.358 210.332Z" fill="#F6C352"/>
<path d="M388.692 91.9675C388.555 89.4065 388.46 88.1309 388.228 85.5745C379.882 78.397 375.624 74.8719 366.984 67.9796C367.456 70.4093 367.674 71.6343 368.075 74.1045C376.474 81.1236 380.593 84.689 388.692 91.9675Z" fill="#F6C352"/>
<path d="M461.055 157.549C453.856 149.384 450.188 145.355 442.689 137.45C442.211 140.223 441.955 141.619 441.38 144.438C448.625 152.418 452.179 156.483 459.091 164.702C459.927 161.834 460.314 160.412 461.055 157.549Z" fill="#F6C352"/>
<path d="M482.846 183.488C476.062 175.028 472.602 170.852 465.484 162.631C464.674 165.495 464.251 166.936 463.347 169.804C470.195 178.09 473.524 182.291 480.032 190.79C481.197 187.873 481.766 186.416 482.846 183.488Z" fill="#F6C352"/>
<path d="M413.703 108.533C405.731 101.014 401.656 97.3057 393.385 90.0467C393.548 92.6027 393.607 93.8986 393.698 96.4952C401.723 103.855 405.668 107.589 413.366 115.213C413.538 112.526 413.619 111.19 413.703 108.533Z" fill="#F6C352"/>
<path d="M437.991 132.54C430.411 124.691 426.527 120.824 418.63 113.224C418.484 115.907 418.377 117.248 418.144 119.96C425.787 127.636 429.531 131.543 436.858 139.467C437.362 136.689 437.592 135.298 438.001 132.525L437.991 132.54Z" fill="#F6C352"/>
<path d="M370.763 64.8456C379.631 71.6675 384.003 75.1574 392.567 82.2797C395.928 82.7022 397.612 82.9057 401.041 83.3285C392.323 76.1951 387.892 72.6895 378.897 65.8517C375.612 65.4552 373.979 65.2417 370.747 64.8353L370.763 64.8456Z" fill="#F6C352"/>
<path d="M423.854 109.76C431.986 117.315 435.975 121.161 443.797 128.991C447.487 129.472 449.349 129.722 453.109 130.203C445.143 122.347 441.095 118.485 432.819 110.903C429.194 110.464 427.392 110.229 423.845 109.775L423.854 109.76Z" fill="#F6C352"/>
<path d="M362.841 69.7549C362.395 67.3202 362.142 66.1155 361.608 63.7111C352.894 56.9004 348.461 53.5432 339.471 47.028C340.254 49.2904 340.631 50.4445 341.317 52.7524C350.084 59.4047 354.377 62.8021 362.851 69.7396L362.841 69.7549Z" fill="#F6C352"/>
<path d="M388.935 105.733C389.005 101.744 389.009 99.7628 388.878 95.8397C380.938 88.4903 376.891 84.8843 368.641 77.8097C369.898 87.0694 370.214 91.8332 370.206 101.537C377.513 103.24 381.273 104.084 388.951 105.743L388.935 105.733Z" fill="#F6C352"/>
<path d="M397.87 86.7371C406.386 93.9359 410.558 97.5989 418.771 105.098C422.302 105.542 424.071 105.756 427.661 106.216C419.32 98.7004 415.063 95.0268 406.429 87.7965C402.974 87.3787 401.256 87.1545 397.87 86.7371Z" fill="#F6C352"/>
<path d="M411.906 129.574C412.467 125.424 412.709 123.357 413.052 119.262C405.493 111.597 401.62 107.823 393.761 100.418C393.846 110.158 393.563 115.144 392.362 125.251C399.992 126.986 403.897 127.857 411.896 129.59L411.906 129.574Z" fill="#F6C352"/>
<path d="M522.716 289.707C526.389 285.205 528.17 282.952 531.605 278.428C526.571 269.189 523.952 264.623 518.571 255.572C511.167 266.716 507.115 272.26 498.295 283.284C507.872 285.793 512.762 287.068 522.716 289.707Z" fill="#F6C352"/>
<path d="M342.538 44.1512C351.757 50.5959 356.297 53.8922 365.238 60.6324C368.428 61.0335 370.035 61.252 373.303 61.6381C364.234 54.8818 359.625 51.5851 350.286 45.15C347.164 44.7493 345.617 44.5465 342.547 44.1359L342.538 44.1512Z" fill="#F6C352"/>
<path d="M433.665 154.32C434.741 150.045 435.21 147.907 436.061 143.662C428.901 135.692 425.235 131.77 417.741 124.039C416.622 134.198 415.753 139.35 413.312 149.788C421.263 151.597 425.329 152.504 433.665 154.32Z" fill="#F6C352"/>
<path d="M491.138 233.433C493.756 228.93 495.005 226.684 497.391 222.185C491.468 213.413 488.431 209.075 482.161 200.49C477.325 211.453 474.563 216.953 468.352 227.95C477.284 230.097 481.826 231.197 491.154 233.443L491.138 233.433Z" fill="#F6C352"/>
<path d="M507.622 261.248C510.756 256.728 512.263 254.473 515.174 249.941C509.696 240.936 506.856 236.466 501.031 227.648C494.909 238.722 491.517 244.275 484.007 255.331C493.255 257.634 497.987 258.831 507.612 261.264L507.622 261.248Z" fill="#F6C352"/>
<path d="M473.304 206.306C475.387 201.852 476.377 199.614 478.245 195.175C471.894 186.646 468.642 182.429 461.968 174.124C458.39 184.874 456.267 190.306 451.326 201.181C459.933 203.188 464.317 204.21 473.297 206.28L473.304 206.306Z" fill="#F6C352"/>
<path d="M454.133 179.92C455.714 175.535 456.444 173.347 457.8 168.991C451.044 160.742 447.569 156.663 440.489 148.637C438.156 159.122 436.659 164.434 432.983 175.122C441.245 177.019 445.488 177.974 454.143 179.904L454.133 179.92Z" fill="#F6C352"/>
<path d="M570.394 298.303C575.585 307.875 578.083 312.707 582.895 322.447C587.773 323.522 590.249 324.073 595.202 325.175C590.252 315.327 587.681 310.428 582.358 300.773C577.527 299.77 575.133 299.27 570.377 298.293L570.394 298.303Z" fill="#F6C352"/>
<path d="M448.634 133.861C456.375 141.747 460.18 145.777 467.604 153.912C471.472 154.439 473.419 154.701 477.345 155.244C469.78 147.041 465.907 143.011 458.032 135.084C454.23 134.597 452.351 134.337 448.618 133.851L448.634 133.861Z" fill="#F6C352"/>
<path d="M585.86 328.51C590.574 338.295 592.842 343.238 597.192 353.2C602.241 354.405 604.79 355.023 609.905 356.269C605.443 346.193 603.109 341.209 598.256 331.315C593.254 330.183 590.787 329.617 585.876 328.52L585.86 328.51Z" fill="#F6C352"/>
<path d="M494.489 185.117C501.424 193.629 504.814 197.953 511.416 206.704C515.619 207.356 517.74 207.705 522.018 208.383C515.275 199.566 511.826 195.225 504.749 186.646C500.596 186.025 498.557 185.728 494.489 185.117Z" fill="#F6C352"/>
<path d="M472.186 159.006C479.536 167.223 483.134 171.4 490.15 179.855C494.185 180.445 496.224 180.743 500.328 181.333C493.17 172.81 489.504 168.633 482.003 160.364C478.034 159.815 476.071 159.544 472.17 158.995L472.186 159.006Z" fill="#F6C352"/>
<path d="M553.473 268.805C559.119 278.129 561.848 282.849 567.137 292.376C571.859 293.333 574.237 293.822 579.019 294.795C573.608 285.17 570.803 280.424 565.019 270.992C560.369 270.101 558.048 269.669 553.473 268.805Z" fill="#F6C352"/>
<path d="M535.18 240.068C541.28 249.144 544.223 253.742 549.966 263.021C554.508 263.864 556.813 264.286 561.43 265.156C555.555 255.795 552.53 251.144 546.315 241.996C541.829 241.21 539.6 240.814 535.19 240.053L535.18 240.068Z" fill="#F6C352"/>
<path d="M515.494 212.163C522.015 220.97 525.181 225.431 531.362 234.451C535.739 235.191 537.952 235.577 542.405 236.343C536.092 227.24 532.85 222.753 526.188 213.879C521.877 213.18 519.729 212.836 515.494 212.163Z" fill="#F6C352"/>
<path d="M557.632 194.005C565.415 202.92 569.213 207.436 576.66 216.632C576.745 216.642 576.823 216.627 576.908 216.638C594.807 219.78 604.046 221.437 623.05 224.975C615.086 215.433 611.025 210.752 602.731 201.516C584.123 198.335 575.105 196.837 557.632 194.005Z" fill="#F6C352"/>
<path d="M581.253 222.33C588.619 231.581 592.207 236.285 599.204 245.796C599.289 245.806 599.368 245.792 599.469 245.813C618.033 249.393 627.583 251.288 647.23 255.335C639.719 245.438 635.861 240.543 628.003 230.941C608.749 227.29 599.395 225.56 581.253 222.33Z" fill="#F6C352"/>
<path d="M532.727 166.774C540.92 175.328 544.928 179.656 552.802 188.5C552.887 188.511 552.948 188.485 553.04 188.522C570.287 191.276 579.181 192.716 597.539 195.784C589.162 186.645 584.874 182.142 576.167 173.309C558.234 170.55 549.545 169.26 532.736 166.758L532.727 166.774Z" fill="#F6C352"/>
<path d="M643.837 313.482C649.827 323.684 652.742 328.84 658.349 339.25C658.45 339.271 658.545 339.266 658.646 339.287C679.086 344.45 689.581 347.215 711.097 353.075C705.01 342.151 701.871 336.768 695.398 326.093C674.234 320.731 663.928 318.213 643.864 313.477L643.837 313.482Z" fill="#F6C352"/>
<path d="M624.39 282.122C630.847 292.019 633.994 297.023 640.082 307.179C640.183 307.2 640.261 307.185 640.363 307.206C660.197 311.798 670.371 314.233 691.279 319.455C684.705 308.866 681.317 303.625 674.348 293.301C653.813 288.547 643.821 286.333 624.381 282.138L624.39 282.122Z" fill="#F6C352"/>
<path d="M603.533 251.733C610.456 261.325 613.82 266.167 620.374 276.018C620.459 276.029 620.554 276.024 620.639 276.035C639.839 280.1 649.706 282.257 669.994 286.856C662.945 276.588 659.32 271.54 651.892 261.546C631.988 257.359 622.314 255.407 603.516 251.723L603.533 251.733Z" fill="#F6C352"/>
<path d="M514.296 339.666C510.99 330.38 509.232 325.757 505.532 316.586C494.488 328.412 488.555 334.249 475.86 345.744C478.405 354.744 479.586 359.262 481.766 368.332C495.513 357.134 501.97 351.413 514.089 339.813C514.144 339.762 514.231 339.732 514.286 339.681L514.296 339.666Z" fill="#F6C352"/>
<path d="M503.22 310.911C499.442 301.755 497.456 297.203 493.301 288.173C483.666 300.094 478.456 306.022 467.171 317.718C470.176 326.644 471.591 331.117 474.231 340.113C486.563 328.647 492.324 322.83 503.022 311.043C503.061 310.981 503.148 310.951 503.203 310.9L503.22 310.911Z" fill="#F6C352"/>
<path d="M276.302 36.6091C272.712 27.8491 270.558 23.6387 265.619 15.6755C265.596 15.6395 265.589 15.6139 265.582 15.5882C256.863 9.37143 252.417 6.32663 243.404 0.395028C249.293 7.75912 251.92 11.6904 256.481 19.9281C264.567 26.4949 268.539 29.8188 276.302 36.6091Z" fill="#F6C352"/>
<path d="M256.439 1.89314C254.247 -0.868304 253.103 -2.22625 250.724 -4.87092C241.005 -10.371 236.087 -13.0292 226.104 -18.1826C232.748 -12.3506 235.789 -9.22621 241.349 -2.58076C247.22 -0.711183 250.24 0.180544 256.422 1.8828L256.439 1.89314Z" fill="#F6C352"/>
<path d="M251.401 15.8455C246.631 7.79604 243.91 3.97691 237.854 -3.19348C237.821 -3.21414 237.824 -3.25508 237.791 -3.27574C228.714 -9.14112 224.101 -11.9923 214.73 -17.5724C221.715 -11.0781 224.902 -7.56379 230.612 -0.09824C239.081 6.15306 243.234 9.3346 251.411 15.8301L251.401 15.8455Z" fill="#F6C352"/>
<path d="M506.56 140.714C515.141 148.871 519.365 153.036 527.633 161.508C527.701 161.509 527.77 161.509 527.855 161.52C544.447 163.928 553.002 165.177 570.692 167.847C561.902 159.11 557.421 154.805 548.308 146.4C531.053 144.024 522.696 142.899 506.56 140.714Z" fill="#F6C352"/>
<path d="M420.968 70.034C430.643 76.9574 435.415 80.5058 444.827 87.776C444.896 87.7763 444.948 87.7664 445.016 87.7667C459.626 89.4217 467.189 90.2404 482.868 91.9471C472.934 84.5205 467.91 80.899 457.72 73.8449C442.475 72.3248 435.138 71.5842 420.984 70.0443L420.968 70.034Z" fill="#F6C352"/>
<path d="M390.235 49.1316C400.257 55.6114 405.199 58.9252 414.949 65.767C415.018 65.7674 415.07 65.7574 415.129 65.7731C429.08 67.2709 436.315 67.9906 451.314 69.4633C441.04 62.5059 435.846 59.1191 425.322 52.5599C410.759 51.2329 403.744 50.5657 390.242 49.1573L390.235 49.1316Z" fill="#F6C352"/>
<path d="M479.17 115.871C488.138 123.631 492.556 127.597 501.201 135.688C501.286 135.699 501.338 135.689 501.406 135.689C517.332 137.807 525.555 138.89 542.583 141.188C533.396 132.864 528.729 128.783 519.243 120.827C502.652 118.782 494.636 117.808 479.161 115.887L479.17 115.871Z" fill="#F6C352"/>
<path d="M358.487 29.6628C368.833 35.663 373.926 38.7727 384.016 45.1453C384.085 45.1457 384.111 45.1407 384.18 45.1411C397.486 46.5331 404.383 47.1689 418.734 48.4692C408.136 41.9915 402.778 38.865 391.947 32.7957C378.053 31.6105 371.368 31.0014 358.487 29.6628Z" fill="#F6C352"/>
<path d="M450.624 92.2873C459.962 99.639 464.557 103.396 473.589 111.09C473.658 111.09 473.71 111.08 473.795 111.091C489.061 112.944 496.958 113.887 513.297 115.858C503.737 107.983 498.882 104.127 489.033 96.6037C473.135 94.8446 465.454 93.9946 450.624 92.2873Z" fill="#F6C352"/>
<path d="M325.756 11.6894C336.4 17.2149 341.673 20.0746 352.051 25.9879C352.103 25.9779 352.145 25.9833 352.214 25.9837C364.882 27.2955 371.472 27.9092 385.154 29.0677C374.256 23.1056 368.745 20.224 357.604 14.6856C344.354 13.6063 337.993 13.0296 325.762 11.715L325.756 11.6894Z" fill="#F6C352"/>
<path d="M285.289 -7.85101C285.289 -7.85101 285.358 -7.85064 285.426 -7.85027C296.867 -6.51942 302.816 -5.94494 315.213 -4.93159C303.746 -9.84189 297.958 -12.1719 286.282 -16.6378C274.306 -17.6643 268.563 -18.2377 257.54 -19.6482C268.749 -15.1336 274.313 -12.7741 285.289 -7.85101Z" fill="#F6C352"/>
<path d="M292.083 -4.78382C303.019 0.241432 308.429 2.8459 319.13 8.27956C319.173 8.2849 319.225 8.27495 319.268 8.2803C331.318 9.5888 337.568 10.1597 350.622 11.2227C339.423 5.77614 333.765 3.16524 322.366 -1.85224C309.757 -2.89233 303.713 -3.46219 292.083 -4.78382Z" fill="#F6C352"/>
<path d="M365.061 101.253C357.858 93.7899 354.176 90.1142 346.658 82.8592C347.799 92.9631 347.983 98.1564 347.641 108.759C354.131 116.372 357.286 120.23 363.455 128.025C364.835 117.157 365.159 111.812 365.036 101.366C365.039 101.325 365.068 101.279 365.071 101.238L365.061 101.253Z" fill="#F6C352"/>
<path d="M633.12 306.354C628.224 298.14 625.726 294.076 620.579 286.004C616.944 292.237 615.03 295.325 610.986 301.515C619.722 303.389 624.161 304.36 633.12 306.354Z" fill="#F6C352"/>
<path d="M570.559 216.261C564.565 208.81 561.51 205.122 555.299 197.833C553.641 203.876 552.726 206.908 550.663 212.975C558.513 214.251 562.483 214.907 570.559 216.261Z" fill="#F6C352"/>
<path d="M592.802 245.321C587.161 237.6 584.286 233.77 578.418 226.227C576.118 232.38 574.867 235.435 572.156 241.586C580.301 243.048 584.43 243.782 592.802 245.321Z" fill="#F6C352"/>
<path d="M651.107 338.249C646.603 329.812 644.293 325.631 639.539 317.336C635.227 323.55 632.987 326.646 628.26 332.791C637.279 334.908 641.847 336.003 651.097 338.264L651.107 338.249Z" fill="#F6C352"/>
<path d="M410.562 65.81C402.691 60.2532 398.697 57.5129 390.639 52.1803C392.639 56.8917 393.559 59.3033 395.205 64.1766C401.234 64.8437 404.292 65.1621 410.546 65.7997L410.562 65.81Z" fill="#F6C352"/>
<path d="M440.143 87.7818C432.545 81.8628 428.715 78.9698 420.931 73.2751C422.36 78.3112 422.987 80.8595 424.065 86.0166C430.392 86.7211 433.611 87.0762 440.143 87.7818Z" fill="#F6C352"/>
<path d="M468.64 111.078C461.348 104.818 457.65 101.752 450.145 95.7204C450.99 101.03 451.309 103.705 451.786 109.125C458.407 109.908 461.787 110.299 468.631 111.094L468.64 111.078Z" fill="#F6C352"/>
<path d="M522.084 161.356C515.408 154.479 512.033 151.082 505.163 144.403C504.779 150.137 504.499 153.033 503.723 158.841C510.949 159.832 514.63 160.328 522.084 161.356Z" fill="#F6C352"/>
<path d="M495.963 135.624C488.984 129.048 485.435 125.818 478.236 119.446C478.473 124.993 478.492 127.778 478.354 133.41C485.287 134.282 488.801 134.715 495.963 135.624Z" fill="#F6C352"/>
<path d="M546.958 188.269C540.628 181.097 537.391 177.552 530.851 170.569C529.828 176.477 529.226 179.449 527.832 185.402C535.366 186.523 539.205 187.096 546.958 188.269Z" fill="#F6C352"/>
<path d="M613.692 275.368C608.42 267.388 605.734 263.441 600.218 255.628C597.246 261.829 595.675 264.918 592.301 271.101C600.743 272.749 605.017 273.617 613.692 275.368Z" fill="#F6C352"/>
<path d="M476.788 254.771C472.096 245.938 469.662 241.552 464.625 232.866C457.786 244.792 453.972 250.763 445.515 262.633C449.435 271.344 451.303 275.717 454.858 284.497C464.381 272.719 468.741 266.792 476.633 254.908C476.671 254.847 476.716 254.811 476.771 254.76L476.788 254.771Z" fill="#F6C352"/>
<path d="M341.973 78.4051C334.382 71.2316 330.502 67.688 322.603 60.7484C324.975 70.2803 325.802 75.2158 326.728 85.334C333.619 92.7085 336.989 96.444 343.566 104.027C343.659 93.5659 343.332 88.4538 341.965 78.5279C341.951 78.4766 341.97 78.446 341.973 78.4051Z" fill="#F6C352"/>
<path d="M386.917 124.971C380.118 117.228 376.633 113.42 369.495 105.891C369.368 116.479 368.927 121.9 367.271 132.916C373.342 140.757 376.293 144.721 382.053 152.729C384.742 141.529 385.698 135.984 386.873 125.114C386.885 125.058 386.921 125.037 386.917 124.971Z" fill="#F6C352"/>
<path d="M317.675 56.4619C309.695 49.5783 305.631 46.218 297.351 39.5939C300.933 48.4767 302.38 53.1186 304.544 62.6903C311.847 69.8111 315.405 73.4298 322.394 80.7588C321.235 70.793 320.281 65.949 317.683 56.5951C317.669 56.5438 317.679 56.5285 317.682 56.4876L317.675 56.4619Z" fill="#F6C352"/>
<path d="M264.45 13.1497C262.19 9.61984 260.993 7.90829 258.464 4.55106C253.438 3.12636 250.982 2.39642 246.168 0.890917C253.566 5.70274 257.236 8.15454 264.44 13.165L264.45 13.1497Z" fill="#F6C352"/>
<path d="M490.724 282.589C486.481 273.589 484.284 269.118 479.68 260.255C471.456 272.229 466.939 278.186 457.071 290.003C460.538 298.814 462.179 303.257 465.287 312.163C476.2 300.51 481.263 294.597 490.559 282.741C490.598 282.68 490.669 282.639 490.714 282.604L490.724 282.589Z" fill="#F6C352"/>
<path d="M407.514 149.521C401.118 141.54 397.84 137.585 391.113 129.801C389.689 140.813 388.584 146.415 385.602 157.751C391.248 165.795 394.004 169.85 399.322 178.051C403.351 166.581 404.967 160.896 407.444 149.669C407.473 149.623 407.502 149.577 407.505 149.536L407.514 149.521Z" fill="#F6C352"/>
<path d="M461.493 227.509C456.369 218.853 453.714 214.563 448.243 206.095C442.784 217.905 439.658 223.839 432.609 235.696C436.968 244.256 439.055 248.573 443.072 257.238C451.189 245.432 454.864 239.502 461.397 227.662C461.435 227.601 461.464 227.555 461.51 227.519L461.493 227.509Z" fill="#F6C352"/>
<path d="M285.168 20.4289C283.401 17.3573 282.464 15.852 280.525 12.9075C271.141 7.02005 266.384 4.14254 256.729 -1.42379C262.357 5.22202 264.907 8.76369 269.405 16.1511C275.539 17.9299 278.689 18.7967 285.159 20.4442L285.168 20.4289Z" fill="#F6C352"/>
<path d="M444.821 200.834C439.262 192.396 436.402 188.212 430.489 179.937C426.39 191.554 423.956 197.409 418.268 209.182C423.066 217.59 425.39 221.822 429.836 230.351C436.579 218.579 439.556 212.701 444.708 200.976C444.737 200.93 444.766 200.884 444.804 200.823L444.821 200.834Z" fill="#F6C352"/>
<path d="M426.818 174.817C420.833 166.582 417.76 162.521 411.444 154.483C408.701 165.842 406.935 171.583 402.623 183.173C407.853 191.404 410.389 195.555 415.274 203.933C420.653 192.287 422.948 186.472 426.748 174.965C426.776 174.919 426.805 174.874 426.834 174.828L426.818 174.817Z" fill="#F6C352"/>
<path d="M291.5 32.8291C289.768 28.9692 288.823 27.0746 286.816 23.3617C281.572 21.9922 279.002 21.2974 273.953 19.8368C281.073 24.9441 284.563 27.5384 291.5 32.8291Z" fill="#F6C352"/>
<path d="M318.855 22.6158C323.243 23.1922 325.471 23.4806 329.999 24.0168C326.586 18.8882 324.754 16.395 320.858 11.5608C309.674 10.3696 304.305 9.71115 293.99 8.23267C304.073 13.8115 309.045 16.6749 318.865 22.6005L318.855 22.6158Z" fill="#F6C352"/>
<path d="M307.281 20.9872C310.161 21.407 311.614 21.6145 314.546 22.0244C304.795 16.0991 299.858 13.2155 289.853 7.6217C287.042 7.2022 285.641 6.9848 282.891 6.54002C292.776 12.1434 297.66 15.037 307.281 20.9872Z" fill="#F6C352"/>
<path d="M315.553 8.27558C306.886 3.84105 302.527 1.68255 293.713 -2.48138C297.332 1.11209 299.07 2.9494 302.382 6.77678C307.555 7.4188 310.185 7.72469 315.56 8.30123L315.553 8.27558Z" fill="#F6C352"/>
<path d="M348.206 26.0086C339.805 21.1863 335.545 18.8337 326.974 14.2461C330.085 18.2465 331.552 20.2974 334.323 24.5111C339.78 25.1393 342.557 25.4306 348.206 26.0086Z" fill="#F6C352"/>
<path d="M307.748 28.727C306.705 26.622 306.149 25.5693 305.026 23.5202C295.61 17.4635 290.839 14.5347 281.169 8.80956C282.526 10.7063 283.198 11.6828 284.474 13.6354C293.927 19.5233 298.581 22.5283 307.764 28.7373L307.748 28.727Z" fill="#F6C352"/>
<path d="M278.567 9.99382C277.23 8.06647 276.555 7.13092 275.127 5.27477C265.382 -0.368852 260.444 -3.10394 250.453 -8.39043C252.098 -6.69699 252.89 -5.83762 254.454 -4.08828C264.235 1.38656 269.057 4.19784 278.584 10.0042L278.567 9.99382Z" fill="#F6C352"/>
<path d="M287.701 4.79897C291.863 5.40489 293.971 5.70288 298.267 6.24295C294.213 1.5872 292.064 -0.656854 287.514 -4.96192C276.908 -6.19616 271.833 -6.88374 262.056 -8.45152C272.444 -3.32166 277.576 -0.677687 287.717 4.8093L287.701 4.79897Z" fill="#F6C352"/>
<path d="M276.748 3.09141C279.472 3.54117 280.847 3.76356 283.632 4.18804C273.569 -1.31389 268.463 -3.96285 258.153 -9.10766C255.498 -9.55706 254.175 -9.78941 251.566 -10.2744C261.771 -5.10967 266.8 -2.44577 276.748 3.09141Z" fill="#F6C352"/>
<path d="M379.895 45.2055C371.75 40.0108 367.631 37.4695 359.3 32.4991C361.855 36.8755 363.069 39.1094 365.277 43.6734C371.008 44.3031 373.939 44.6054 379.895 45.2055Z" fill="#F6C352"/>
<path d="M312.825 40.1267C311.506 36.781 310.792 35.1386 309.268 31.8993C300.228 25.6092 295.629 22.5532 286.328 16.5689C290.926 23.9773 292.939 27.8644 296.361 35.9425C302.782 37.6665 306.063 38.5084 312.825 40.1267Z" fill="#F6C352"/>
<path d="M644.097 288.128C650.148 297.536 653.097 302.308 658.782 311.935C666.511 312.964 670.405 313.487 678.292 314.594C683.894 306.395 686.537 302.292 691.534 294.033C672.046 291.451 662.567 290.284 644.097 288.128Z" fill="#F2A93F"/>
<path d="M662.282 317.949C667.887 327.632 670.595 332.531 675.833 342.432C683.806 343.657 687.839 344.288 695.986 345.601C702.435 337.442 705.499 333.326 711.32 325.072C691.197 321.964 681.392 320.55 662.282 317.949Z" fill="#F2A93F"/>
<path d="M624.521 259.204C631.004 268.328 634.159 272.953 640.309 282.316C647.767 283.154 651.546 283.605 659.172 284.506C663.958 276.328 666.189 272.223 670.351 264.016C651.525 261.914 642.35 260.958 624.521 259.204Z" fill="#F2A93F"/>
<path d="M507.481 129.408C515.938 136.847 520.092 140.649 528.246 148.388C534.374 148.605 537.498 148.709 543.779 148.937C544.589 141.465 544.856 137.749 545.108 130.397C529.567 129.971 522.048 129.778 507.481 129.408Z" fill="#F2A93F"/>
<path d="M557.956 178.164C565.661 186.327 569.457 190.479 576.852 198.916C583.525 199.326 586.899 199.543 593.715 199.979C596.071 192.09 597.09 188.163 598.875 180.343C582.014 179.388 573.842 178.955 557.972 178.175L557.956 178.164Z" fill="#F2A93F"/>
<path d="M533.293 153.218C541.383 161.024 545.353 165.009 553.139 173.115C559.536 173.416 562.785 173.576 569.352 173.898C570.923 166.2 571.567 162.358 572.574 154.754C556.38 154.089 548.516 153.786 533.31 153.229L533.293 153.218Z" fill="#F2A93F"/>
<path d="M603.615 231.196C610.522 240.009 613.901 244.498 620.474 253.55C627.669 254.223 631.316 254.591 638.678 255.327C642.629 247.201 644.462 243.145 647.812 235.026C629.635 233.352 620.799 232.588 603.622 231.221L603.615 231.196Z" fill="#F2A93F"/>
<path d="M581.408 204.164C588.722 212.657 592.301 216.972 599.305 225.74C606.244 226.274 609.743 226.548 616.842 227.119C619.996 219.091 621.415 215.074 623.966 207.094C606.451 205.792 597.937 205.209 581.417 204.148L581.408 204.164Z" fill="#F2A93F"/>
<path d="M616.715 368.201C621.962 363.385 624.518 360.956 629.52 356.092C625.23 346.509 622.984 341.751 618.323 332.319C607.106 344.421 601.129 350.401 588.481 362.223C599.574 364.51 605.224 365.708 616.731 368.211L616.715 368.201Z" fill="#171314"/>
<path d="M589.795 309.877C593.943 304.948 595.953 302.475 599.862 297.524C594.66 288.371 591.962 283.82 586.413 274.855C577.849 287.042 573.213 293.116 563.226 305.158C573.656 306.965 578.964 307.905 589.778 309.867L589.795 309.877Z" fill="#171314"/>
<path d="M603.97 338.741C608.664 333.855 610.939 331.399 615.404 326.477C610.646 317.091 608.169 312.443 603.074 303.23C593.19 315.4 587.894 321.465 576.574 333.439C587.34 335.478 592.819 336.546 603.986 338.751L603.97 338.741Z" fill="#171314"/>
<path d="M480.554 106.755C489.362 113.817 493.684 117.424 502.222 124.808C508.097 124.951 511.077 125.029 517.099 125.158C517.171 117.949 517.051 114.374 516.562 107.325C501.677 107.098 494.469 106.993 480.554 106.755Z" fill="#F2A93F"/>
<path d="M585.801 314.562C577.013 312.953 572.681 312.177 564.143 310.683C567.718 318.004 569.451 321.715 572.779 329.137C578.161 323.339 580.766 320.429 585.791 314.577L585.801 314.562Z" fill="#171314"/>
<path d="M517.415 205.922C509.735 204.924 505.966 204.458 498.542 203.492C503.51 210.129 505.944 213.491 510.698 220.25C513.545 214.504 514.887 211.634 517.415 205.922Z" fill="#171314"/>
<path d="M536.496 231.975C528.54 230.868 524.623 230.309 516.93 229.259C521.567 236.094 523.832 239.542 528.239 246.489C531.7 240.68 533.362 237.775 536.496 231.975Z" fill="#171314"/>
<path d="M554.281 258.815C546.053 257.557 541.985 256.947 534.009 255.762C538.309 262.77 540.379 266.309 544.448 273.428C548.546 267.592 550.501 264.658 554.281 258.815Z" fill="#171314"/>
<path d="M452.701 132.829C445.845 132.091 442.498 131.72 435.884 130.963C441.813 136.944 444.733 139.971 450.456 146.1C451.492 140.754 451.945 138.094 452.684 132.819L452.701 132.829Z" fill="#171314"/>
<path d="M475.49 156.3C468.372 155.504 464.881 155.107 458.005 154.292C463.627 160.508 466.385 163.646 471.784 169.999C473.406 164.487 474.165 161.741 475.474 156.29L475.49 156.3Z" fill="#171314"/>
<path d="M452.557 85.3291C461.7 92.0039 466.199 95.4024 475.072 102.398C480.685 102.485 483.531 102.52 489.298 102.617C488.629 95.7113 488.17 92.3088 486.965 85.5995C472.738 85.5288 465.851 85.4972 452.548 85.3444L452.557 85.3291Z" fill="#F2A93F"/>
<path d="M570.716 286.344C562.198 284.926 557.998 284.233 549.749 282.899C553.685 290.083 555.596 293.693 559.295 300.964C564.036 295.126 566.308 292.199 570.699 286.334L570.716 286.344Z" fill="#171314"/>
<path d="M574.203 281.661C577.812 276.714 579.564 274.25 582.925 269.296C577.278 260.376 574.383 255.957 568.389 247.225C561.134 259.338 557.151 265.395 548.491 277.479C558.566 279.084 563.709 279.921 574.187 281.651L574.203 281.661Z" fill="#171314"/>
<path d="M497.069 180.676C489.665 179.787 486.04 179.348 478.892 178.49C484.191 184.93 486.786 188.18 491.871 194.741C494.102 189.099 495.141 186.273 497.059 180.692L497.069 180.676Z" fill="#171314"/>
<path d="M362.592 28.8254C372.646 34.1941 377.614 36.9908 387.438 42.727C392.299 42.7683 394.769 42.7815 399.78 42.7672C397.068 37.033 395.565 34.2343 392.37 28.7945C380.034 28.9285 374.079 28.948 362.592 28.8254Z" fill="#F2A93F"/>
<path d="M344.204 33.8887C343.193 31.6968 342.657 30.6135 341.558 28.4519C331.842 23.0183 326.932 20.3858 316.995 15.3044C318.304 17.2777 318.941 18.2745 320.185 20.314C329.921 25.5684 334.732 28.2875 344.214 33.8734L344.204 33.8887Z" fill="#171314"/>
<path d="M344.11 25.2959C347.143 25.3633 348.685 25.392 351.769 25.4494C341.719 20.1472 336.65 17.5855 326.385 12.6611C323.405 12.5838 321.932 12.5555 319.03 12.4632C329.18 17.4228 334.198 19.9945 344.101 25.3112L344.11 25.2959Z" fill="#171314"/>
<path d="M393.521 46.3083C403.287 52.1364 408.104 55.1372 417.633 61.3071C422.742 61.3548 425.333 61.3583 430.582 61.3658C428.534 55.1948 427.372 52.1828 424.801 46.2599C411.841 46.365 405.585 46.388 393.521 46.3083Z" fill="#F2A93F"/>
<path d="M423.526 65.153C432.98 71.4045 437.663 74.6195 446.864 81.2024C452.222 81.2566 454.94 81.2762 460.445 81.3158C459.074 74.7592 458.252 71.534 456.352 65.1999C442.761 65.2504 436.198 65.2513 423.526 65.153Z" fill="#F2A93F"/>
<path d="M403.698 88.8582C397.378 88.1793 394.287 87.8402 388.202 87.1165C394.723 92.5945 397.943 95.3614 404.281 101.023C404.182 96.0961 404.07 93.6786 403.689 88.8735L403.698 88.8582Z" fill="#171314"/>
<path d="M428.765 110.344C422.181 109.649 418.962 109.294 412.628 108.564C418.859 114.286 421.94 117.2 427.97 123.096C428.444 117.952 428.598 115.403 428.765 110.344Z" fill="#171314"/>
<path d="M377.521 68.4464C371.466 67.7843 368.496 67.4356 362.678 66.6878C369.493 71.8805 372.849 74.5406 379.48 79.9167C378.839 75.2689 378.444 72.9728 377.521 68.4464Z" fill="#171314"/>
<path d="M349.118 45.8053C347.843 42.3165 347.151 40.6025 345.68 37.2048C336.324 31.5274 331.585 28.7678 321.985 23.4066C326.418 31.1162 328.351 35.1667 331.679 43.6129C338.496 44.5607 341.984 44.9992 349.135 45.8157L349.118 45.8053Z" fill="#171314"/>
<path d="M350.301 49.1504C344.487 48.4691 341.647 48.0955 336.061 47.3438C343.16 52.2666 346.664 54.7637 353.563 59.8596C352.397 55.5009 351.743 53.3621 350.301 49.1504Z" fill="#171314"/>
<path d="M326.604 40.877C324.926 36.8586 324.012 34.8771 322.075 31.0161C316.513 30.3003 313.777 29.9069 308.419 29.0846C315.779 33.7016 319.412 36.0662 326.604 40.877Z" fill="#171314"/>
<path d="M571.851 228.871C565.335 220.238 561.991 215.986 555.168 207.588C553.736 210.786 552.985 212.384 551.432 215.592C558.004 224.025 561.191 228.307 567.439 236.963C569.26 233.732 570.141 232.108 571.851 228.871Z" fill="#171314"/>
<path d="M626.821 313.433C621.603 304.014 618.904 299.356 613.345 290.15C610.851 293.429 609.592 295.071 607.014 298.34C612.298 307.544 614.86 312.202 619.788 321.609C622.657 318.353 624.07 316.722 626.838 313.444L626.821 313.433Z" fill="#171314"/>
<path d="M642.369 343.18C637.612 333.538 635.143 328.768 630.022 319.303C627.169 322.57 625.73 324.207 622.776 327.453C627.616 336.89 629.947 341.66 634.407 351.264C637.642 348.045 639.235 346.42 642.369 343.18Z" fill="#171314"/>
<path d="M550.876 202.399C543.946 194.061 540.421 189.951 533.174 181.863C532.071 185.011 531.486 186.565 530.288 189.718C537.248 197.861 540.659 202.006 547.312 210.383C548.787 207.191 549.495 205.586 550.876 202.399Z" fill="#171314"/>
<path d="M609.858 284.442C604.201 275.282 601.289 270.745 595.275 261.788C593.151 265.064 592.055 266.702 589.82 269.972C595.549 278.944 598.324 283.48 603.697 292.654C606.207 289.385 607.44 287.748 609.865 284.468L609.858 284.442Z" fill="#171314"/>
<path d="M591.504 256.243C585.41 247.342 582.273 242.942 575.839 234.254C574.051 237.506 573.127 239.124 571.254 242.366C577.405 251.068 580.394 255.482 586.221 264.408C588.388 261.137 589.449 259.52 591.504 256.243Z" fill="#171314"/>
<path d="M376.767 64.8577C375.912 61.0998 375.454 59.2334 374.395 55.5819C365.358 49.5068 360.769 46.5431 351.471 40.7739C354.884 49.2308 356.296 53.6369 358.551 62.7329C365.655 63.6259 369.306 64.0601 376.75 64.8474L376.767 64.8577Z" fill="#171314"/>
<path d="M299.6 25.6223C290.575 20.003 286.006 17.2647 276.73 11.936C282.403 19.5703 284.918 23.6443 289.336 32.2193C297.745 38.1989 301.88 41.2626 309.989 47.5017C306.501 38.3582 304.417 33.9997 299.637 25.7096C299.614 25.6736 299.617 25.6326 299.594 25.5966L299.6 25.6223Z" fill="#171314"/>
<path d="M356.321 25.5096C360.941 25.5701 363.3 25.5775 368.052 25.5721C364.699 20.3107 362.89 17.7459 359.06 12.8046C347.309 12.9212 341.664 12.9218 330.748 12.7306C341.081 17.6553 346.202 20.2071 356.305 25.4993L356.321 25.5096Z" fill="#F2A93F"/>
<path d="M528.671 176.861C521.359 168.839 517.628 164.877 509.999 157.104C509.228 160.162 508.816 161.696 507.941 164.774C515.299 172.612 518.9 176.599 525.941 184.687C527.078 181.559 527.629 179.985 528.671 176.861Z" fill="#171314"/>
<path d="M401.479 71.293C401.041 68.7355 400.784 67.4641 400.249 64.9522C391.163 58.6976 386.554 55.657 377.198 49.7236C377.957 52.0985 378.322 53.3089 379.009 55.7244C388.115 61.7998 392.617 64.9013 401.479 71.293Z" fill="#171314"/>
<path d="M480.655 128.794C472.587 121.429 468.497 117.817 460.136 110.737C460.006 113.578 459.919 114.996 459.692 117.883C467.789 125.054 471.772 128.726 479.576 136.183C480.058 133.22 480.268 131.752 480.662 128.82L480.655 128.794Z" fill="#171314"/>
<path d="M505.25 152.311C497.557 144.604 493.625 140.815 485.639 133.393C485.183 136.351 484.938 137.84 484.404 140.812C492.143 148.334 495.935 152.164 503.358 159.936C504.155 156.873 504.541 155.344 505.25 152.311Z" fill="#171314"/>
<path d="M428.11 85.0558C419.35 78.4292 414.902 75.1692 405.881 68.8484C406.354 71.3857 406.576 72.6772 406.952 75.26C415.749 81.7179 420.074 85.0283 428.594 91.7817C428.459 89.0722 428.36 87.7301 428.11 85.0558Z" fill="#171314"/>
<path d="M454.922 106.357C446.497 99.3427 442.223 95.9147 433.537 89.2065C433.715 91.9214 433.788 93.2685 433.862 96.0033C442.308 102.838 446.458 106.317 454.637 113.432C454.793 110.586 454.854 109.173 454.922 106.357Z" fill="#171314"/>
<path d="M380.551 46.1723C390.111 51.9992 394.834 55.0046 404.131 61.1784C407.499 61.2219 409.188 61.2361 412.609 61.2696C403.165 55.1104 398.374 52.1047 388.702 46.272C385.419 46.2392 383.782 46.2151 380.551 46.1723Z" fill="#171314"/>
<path d="M438.244 85.1406C447.175 91.7887 451.563 95.1814 460.206 102.14C463.908 102.201 465.767 102.236 469.538 102.298C460.74 95.3276 456.294 91.9192 447.235 85.2551C443.609 85.2204 441.819 85.1853 438.244 85.1406Z" fill="#171314"/>
<path d="M373.333 51.9714C372.601 49.5916 372.2 48.4014 371.396 46.0622C361.983 40.2206 357.233 37.3687 347.566 31.8587C348.603 34.0456 349.103 35.1492 350.069 37.3766C359.494 43.0544 364.163 45.9622 373.333 51.9714Z" fill="#171314"/>
<path d="M403.362 85.0416C402.962 81.0351 402.708 79.0623 402.113 75.147C393.41 68.6845 388.963 65.5321 380 59.3755C382.347 68.5078 383.23 73.2439 384.373 82.9434C391.786 83.8175 395.584 84.2372 403.353 85.0569L403.362 85.0416Z" fill="#171314"/>
<path d="M409.912 65.0188C419.161 71.2692 423.716 74.4682 432.711 81.05C436.234 81.1046 438.017 81.1141 441.608 81.1691C432.492 74.5969 427.852 71.3872 418.466 65.1361C415.003 65.0972 413.288 65.088 409.903 65.0341L409.912 65.0188Z" fill="#171314"/>
<path d="M428.864 106.31C428.941 102.091 428.902 99.9968 428.767 95.8587C420.406 89.0344 416.143 85.6987 407.489 79.1597C408.74 88.9057 409.064 93.9103 409.08 104.162C416.811 105.043 420.762 105.474 428.864 106.31Z" fill="#171314"/>
<path d="M557.246 254.125C560.33 249.21 561.807 246.745 564.642 241.824C558.567 233.148 555.449 228.866 549.05 220.413C543.074 232.389 539.753 238.414 532.393 250.439C542.119 251.868 547.097 252.601 557.237 254.14L557.246 254.125Z" fill="#171314"/>
<path d="M350.252 28.6367C360.108 34.03 364.981 36.8313 374.59 42.5817C377.785 42.6448 379.405 42.6586 382.663 42.6964C372.908 36.9606 367.982 34.1692 357.989 28.7752C354.853 28.7277 353.311 28.6991 350.236 28.6264L350.252 28.6367Z" fill="#171314"/>
<path d="M453.265 128.638C453.801 124.237 454.024 122.052 454.342 117.706C446.313 110.535 442.234 107.016 433.937 100.126C434.045 110.414 433.795 115.676 432.657 126.377C440.711 127.291 444.833 127.743 453.249 128.628L453.265 128.638Z" fill="#171314"/>
<path d="M519.385 201.355C521.431 196.557 522.38 194.166 524.201 189.398C517.317 181.281 513.793 177.279 506.601 169.396C503.145 180.904 501.082 186.715 496.282 198.426C505.332 199.58 509.952 200.152 519.411 201.35L519.385 201.355Z" fill="#171314"/>
<path d="M538.969 227.339C541.517 222.473 542.744 220.042 545.06 215.179C538.58 206.783 535.248 202.622 528.444 194.45C523.743 206.222 521.045 212.168 514.98 224.067C524.365 225.346 529.168 225.991 538.969 227.339Z" fill="#171314"/>
<path d="M498.56 176.215C500.085 171.517 500.79 169.186 502.106 164.528C494.833 156.701 491.119 152.856 483.546 145.288C481.313 156.454 479.869 162.12 476.314 173.567C485.019 174.611 489.488 175.132 498.586 176.21L498.56 176.215Z" fill="#171314"/>
<path d="M476.519 151.953C477.546 147.391 478.007 145.12 478.815 140.613C471.161 133.101 467.256 129.414 459.308 122.187C458.269 132.951 457.42 138.435 455.089 149.54C463.474 150.511 467.765 150.985 476.519 151.953Z" fill="#171314"/>
<path d="M641.638 315.197C647.022 324.72 649.615 329.547 654.625 339.262C659.927 340.027 662.594 340.42 667.962 341.227C662.813 331.404 660.137 326.525 654.615 316.895C649.386 316.196 646.785 315.844 641.622 315.187L641.638 315.197Z" fill="#171314"/>
<path d="M605.29 257.381C611.559 266.371 614.599 270.924 620.518 280.142C625.467 280.665 627.953 280.944 632.978 281.493C626.927 272.193 623.805 267.588 617.404 258.516C612.528 258.06 610.108 257.822 605.307 257.392L605.29 257.381Z" fill="#171314"/>
<path d="M465.56 106.48C474.139 113.505 478.36 117.092 486.662 124.412C490.524 124.51 492.494 124.551 496.425 124.649C487.979 117.302 483.683 113.689 474.977 106.648C471.164 106.582 469.288 106.536 465.56 106.48Z" fill="#171314"/>
<path d="M624.148 285.876C629.969 295.139 632.802 299.84 638.267 309.306C643.397 309.943 645.966 310.274 651.162 310.952C645.558 301.377 642.659 296.636 636.69 287.279C631.633 286.709 629.13 286.42 624.148 285.876Z" fill="#171314"/>
<path d="M516.913 152.629C524.767 160.373 528.629 164.31 536.189 172.339C540.405 172.53 542.552 172.619 546.854 172.821C539.15 164.766 535.222 160.787 527.208 153.007C523.057 152.857 520.995 152.779 516.913 152.629Z" fill="#171314"/>
<path d="M491.793 128.997C500.021 136.399 504.067 140.154 512.001 147.841C516.05 147.97 518.087 148.053 522.221 148.193C514.142 140.479 510.03 136.683 501.658 129.254C497.685 129.151 495.698 129.1 491.793 128.997Z" fill="#171314"/>
<path d="M585.088 229.751C591.761 238.46 595.025 242.876 601.375 251.81C606.133 252.235 608.546 252.447 613.38 252.898C606.899 243.882 603.569 239.425 596.728 230.652C592.026 230.284 589.705 230.108 585.078 229.766L585.088 229.751Z" fill="#171314"/>
<path d="M563.597 203.039C570.695 211.439 574.149 215.697 580.92 224.362C585.504 224.698 587.809 224.864 592.478 225.212C585.573 216.506 582.036 212.196 574.797 203.729C570.27 203.449 568.04 203.309 563.597 203.039Z" fill="#171314"/>
<path d="M540.865 177.321C548.343 185.405 552.015 189.5 559.167 197.849C563.577 198.098 565.79 198.228 570.275 198.502C562.972 190.102 559.235 185.965 551.595 177.844C547.251 177.636 545.114 177.533 540.838 177.326L540.865 177.321Z" fill="#171314"/>
<path d="M701.057 294.545C707.738 304.412 711.006 309.407 717.319 319.533C717.43 319.539 717.524 319.534 717.626 319.555C739.056 322.993 750.066 324.864 772.628 328.947C765.79 318.342 762.28 313.111 755.054 302.795C732.871 299.205 722.077 297.576 701.047 294.56L701.057 294.545Z" fill="#F2A93F"/>
<path d="M721.211 325.837C727.442 336.019 730.468 341.181 736.313 351.612C736.425 351.618 736.519 351.614 736.637 351.645C758.722 355.685 770.052 357.886 793.247 362.643C786.895 351.703 783.621 346.278 776.874 335.601C754.039 331.368 742.914 329.424 721.227 325.847L721.211 325.837Z" fill="#F2A93F"/>
<path d="M580.223 154.41C588.966 162.455 593.255 166.554 601.684 174.915C601.769 174.926 601.831 174.9 601.926 174.896C619.942 176.021 629.234 176.644 648.407 178.047C639.422 169.401 634.85 165.168 625.559 156.864C606.837 155.766 597.776 155.287 580.207 154.4L580.223 154.41Z" fill="#F2A93F"/>
<path d="M606.886 180.12C615.241 188.562 619.346 192.844 627.399 201.587C627.493 201.583 627.572 201.568 627.657 201.578C646.377 203.081 656.008 203.895 675.872 205.732C667.267 196.664 662.899 192.216 653.997 183.474C634.581 181.983 625.155 181.318 606.895 180.104L606.886 180.12Z" fill="#F2A93F"/>
<path d="M552.395 129.975C561.491 137.602 565.974 141.503 574.79 149.466C574.859 149.466 574.937 149.451 575.032 149.447C592.348 150.261 601.301 150.693 619.771 151.718C610.422 143.506 605.663 139.497 596.025 131.636C578.026 130.885 569.297 130.572 552.421 129.97L552.395 129.975Z" fill="#F2A93F"/>
<path d="M679.494 264.29C686.619 273.816 690.104 278.648 696.892 288.455C696.987 288.45 697.082 288.445 697.183 288.466C717.956 291.342 728.625 292.915 750.536 296.355C743.219 286.11 739.483 281.057 731.811 271.123C710.308 268.131 699.847 266.774 679.511 264.3L679.494 264.29Z" fill="#F2A93F"/>
<path d="M656.574 235.104C664.125 244.279 667.827 248.948 675.042 258.403C675.144 258.424 675.231 258.394 675.316 258.405C695.42 260.775 705.739 262.064 726.976 264.932C719.213 255.07 715.267 250.205 707.149 240.652C686.339 238.201 676.222 237.103 656.557 235.093L656.574 235.104Z" fill="#F2A93F"/>
<path d="M632.361 207.026C640.322 215.84 644.234 220.321 651.866 229.441C651.961 229.436 652.039 229.421 652.124 229.432C671.529 231.343 681.522 232.384 702.066 234.711C693.883 225.225 689.708 220.579 681.187 211.413C661.072 209.463 651.291 208.597 632.344 207.016L632.361 207.026Z" fill="#F2A93F"/>
<path d="M567.927 333.177C563.99 324.093 561.933 319.581 557.645 310.617C546.759 323.653 540.887 330.125 528.326 342.941C531.464 351.801 532.941 356.249 535.714 365.179C549.365 352.598 555.755 346.216 567.736 333.335C567.784 333.259 567.872 333.228 567.927 333.177Z" fill="#171314"/>
<path d="M554.954 305.068C550.568 296.15 548.3 291.719 543.544 282.952C534.08 296.026 528.917 302.538 517.798 315.469C521.391 324.188 523.087 328.581 526.312 337.41C538.517 324.648 544.208 318.211 554.763 305.225C554.802 305.164 554.89 305.134 554.938 305.057L554.954 305.068Z" fill="#171314"/>
<path d="M540.587 277.535C535.768 268.794 533.27 264.474 528.098 255.895C520.044 268.915 515.593 275.425 505.887 288.41C509.926 297.004 511.849 301.325 515.53 310.014C526.309 297.147 531.29 290.671 540.439 277.698C540.477 277.636 540.548 277.596 540.587 277.535Z" fill="#171314"/>
<path d="M284.06 28.5247C279.465 20.1587 276.84 16.1865 271.007 8.77149C270.974 8.75083 270.976 8.7099 270.953 8.67393C261.603 3.42669 256.866 0.88211 247.288 -4.03862C253.975 2.67429 257.043 6.30578 262.528 14.0569C271.276 19.7157 275.586 22.6113 284.06 28.5247Z" fill="#171314"/>
<path d="M260.316 -3.99474C257.817 -6.52227 256.544 -7.74778 253.881 -10.1226C243.649 -14.5142 238.465 -16.6362 228.012 -20.6757C235.263 -15.5932 238.654 -12.8049 244.924 -6.78041C250.933 -5.57066 254.011 -5.02684 260.316 -3.99474Z" fill="#171314"/>
<path d="M257.025 10.541C251.37 3.02449 248.225 -0.484548 241.387 -6.99343C241.354 -7.01409 241.347 -7.0397 241.324 -7.07567C231.672 -11.9149 226.784 -14.2554 216.888 -18.7784C224.559 -13.0486 228.114 -9.90094 234.639 -3.07625C243.729 2.2208 248.213 4.94837 257.035 10.5256L257.025 10.541Z" fill="#171314"/>
<path d="M523.485 106.825C532.919 114.023 537.578 117.715 546.749 125.26C546.817 125.26 546.879 125.235 546.964 125.246C563.605 125.785 572.19 126.071 589.952 126.76C580.23 118.997 575.312 115.207 565.333 107.816C548.034 107.375 539.666 107.182 523.501 106.835L523.485 106.825Z" fill="#F2A93F"/>
<path d="M430.655 45.7073C441.029 51.554 446.163 54.5615 456.29 60.7653C456.358 60.7657 456.394 60.7454 456.472 60.7305C471.055 60.7467 478.623 60.7153 494.282 60.6605C483.605 54.3462 478.209 51.2809 467.325 45.3701C452.128 45.5657 444.805 45.6445 430.664 45.692L430.655 45.7073Z" fill="#F2A93F"/>
<path d="M397.872 28.2554C408.51 33.6068 413.789 36.3847 424.213 42.1139C424.282 42.1143 424.318 42.094 424.386 42.0943C438.314 42.02 445.526 41.9356 460.5 41.7286C449.549 35.9249 444.015 33.1149 432.847 27.73C418.337 28.0367 411.338 28.1479 397.862 28.2707L397.872 28.2554Z" fill="#F2A93F"/>
<path d="M493.515 85.0353C503.286 91.8056 508.106 95.2774 517.614 102.395C517.683 102.395 517.745 102.37 517.813 102.37C533.765 102.691 542.015 102.852 559.052 103.235C548.99 95.9407 543.901 92.3855 533.598 85.4741C517.011 85.2885 509.004 85.2151 493.505 85.0506L493.515 85.0353Z" fill="#F2A93F"/>
<path d="M364.238 12.3406C375.151 17.1814 380.557 19.7193 391.263 24.9635C391.315 24.9535 391.367 24.9436 391.436 24.9439C404.713 24.8457 411.594 24.7031 425.882 24.385C414.672 19.1022 409.008 16.5732 397.598 11.7195C383.753 12.1015 377.087 12.2298 364.254 12.3509L364.238 12.3406Z" fill="#F2A93F"/>
<path d="M462.549 64.6492C472.625 70.9705 477.599 74.1974 487.428 80.8759C487.497 80.8762 487.558 80.8509 487.627 80.8513C502.887 80.994 510.793 81.0464 527.134 81.1847C516.765 74.3805 511.506 71.0599 500.896 64.6384C484.997 64.6715 477.328 64.6819 462.533 64.6389L462.549 64.6492Z" fill="#F2A93F"/>
<path d="M329.813 -1.98096C340.974 2.35421 346.501 4.62648 357.455 9.36508C357.508 9.35511 357.543 9.33481 357.602 9.35049C370.246 9.23862 376.817 9.11491 390.44 8.7215C378.979 3.98533 373.204 1.70663 361.56 -2.59015C348.365 -2.18423 342.016 -2.04909 329.813 -1.98096Z" fill="#F2A93F"/>
<path d="M287.6 -16.9839C287.6 -16.9839 287.678 -16.9988 287.73 -17.0087C299.171 -16.958 305.105 -17.0545 317.441 -17.4445C305.554 -21.0615 299.551 -22.7577 287.513 -25.9147C275.584 -25.589 269.858 -25.5325 258.812 -25.6989C270.397 -22.4419 276.165 -20.7009 287.577 -17.0198L287.6 -16.9839Z" fill="#F2A93F"/>
<path d="M294.66 -14.6672C306.046 -10.8737 311.684 -8.8517 322.896 -4.63403C322.948 -4.644 322.974 -4.64896 323.043 -4.6486C335.073 -4.69716 341.311 -4.83805 354.291 -5.22976C342.605 -9.42435 336.716 -11.4118 324.87 -15.131C312.328 -14.7421 306.299 -14.6411 294.676 -14.6569L294.66 -14.6672Z" fill="#F2A93F"/>
<path d="M379.301 83.2391C371.298 76.5755 367.245 73.3074 358.958 66.9137C361.283 76.8857 362.11 82.0773 363.026 92.7228C370.337 99.6131 373.919 103.119 380.931 110.228C380.993 99.1937 380.651 93.8152 379.3 83.3876C379.286 83.3363 379.305 83.3057 379.317 83.2494L379.301 83.2391Z" fill="#171314"/>
<path d="M728.469 351.023C723.769 342.569 721.364 338.393 716.421 330.107C711.568 336.856 709.036 340.197 703.767 346.876C713.525 348.475 718.478 349.321 728.476 351.048L728.469 351.023Z" fill="#F2A93F"/>
<path d="M668.087 258.371C662.28 250.695 659.318 246.895 653.29 239.423C650.451 246.07 648.942 249.39 645.701 256.019C654.545 256.917 659.017 257.396 668.087 258.371Z" fill="#F2A93F"/>
<path d="M595.622 175.252C588.82 168.467 585.374 165.11 578.368 158.538C577.461 164.776 576.916 167.912 575.627 174.208C583.518 174.614 587.519 174.82 595.622 175.252Z" fill="#F2A93F"/>
<path d="M621.035 201.82C614.545 194.719 611.254 191.224 604.571 184.322C603.035 190.72 602.158 193.946 600.251 200.388C608.45 200.923 612.609 201.206 621.044 201.804L621.035 201.82Z" fill="#F2A93F"/>
<path d="M689.622 288.268C684.167 280.322 681.393 276.405 675.711 268.638C672.216 275.343 670.361 278.702 666.448 285.379C675.595 286.488 680.231 287.071 689.612 288.283L689.622 288.268Z" fill="#F2A93F"/>
<path d="M709.768 319.17C704.682 310.965 702.089 306.906 696.76 298.869C692.576 305.611 690.404 308.964 685.812 315.663C695.269 317.009 700.061 317.71 709.751 319.16L709.768 319.17Z" fill="#F2A93F"/>
<path d="M419.878 42.6591C411.443 37.9647 407.203 35.6891 398.621 31.2652C401.168 35.7644 402.36 38.0699 404.559 42.7568C410.582 42.7376 413.646 42.7181 419.878 42.6591Z" fill="#F2A93F"/>
<path d="M451.697 61.3192C443.502 56.242 439.378 53.7826 431.019 48.9657C433.035 53.8359 433.948 56.3294 435.626 61.3719C441.94 61.3646 445.158 61.3561 451.697 61.3192Z" fill="#F2A93F"/>
<path d="M482.561 81.4286C474.613 75.9942 470.614 73.3358 462.495 68.1361C463.956 73.3413 464.611 75.9922 465.718 81.3593C472.346 81.3998 475.717 81.4023 482.561 81.4286Z" fill="#F2A93F"/>
<path d="M541.277 125.754C533.882 119.621 530.129 116.605 522.557 110.681C522.872 116.469 522.916 119.398 522.864 125.297C530.118 125.474 533.801 125.565 541.277 125.754Z" fill="#F2A93F"/>
<path d="M512.423 102.915C504.748 97.1185 500.864 94.2764 493.018 88.7145C493.918 94.2291 494.271 97.032 494.81 102.683C501.752 102.771 505.275 102.826 512.423 102.915Z" fill="#F2A93F"/>
<path d="M569.023 149.881C561.908 143.411 558.313 140.217 551.011 133.972C550.719 139.998 550.48 143.048 549.813 149.159C557.378 149.424 561.228 149.578 569.023 149.881Z" fill="#F2A93F"/>
<path d="M645.211 229.554C639.067 222.157 635.94 218.51 629.56 211.307C627.38 217.855 626.2 221.126 623.624 227.682C632.146 228.398 636.462 228.759 645.22 229.538L645.211 229.554Z" fill="#F2A93F"/>
<path d="M507.816 224.331C502.137 216.01 499.23 211.903 493.204 203.77C487.901 216.467 484.846 222.872 477.937 235.713C482.847 243.979 485.21 248.149 489.759 256.551C497.733 243.694 501.32 237.282 507.677 224.479C507.716 224.417 507.744 224.371 507.783 224.31L507.816 224.331Z" fill="#171314"/>
<path d="M353.802 62.9536C345.45 56.6262 341.206 53.5158 332.587 47.4686C336.067 56.7349 337.474 61.5865 339.598 71.624C347.27 78.2295 351.05 81.6036 358.424 88.4277C357.265 77.9499 356.345 72.8705 353.793 63.0765C353.78 63.0252 353.799 62.9946 353.785 62.9433L353.802 62.9536Z" fill="#171314"/>
<path d="M403.685 104.532C396.047 97.5427 392.159 94.1219 384.237 87.4024C385.378 98.0184 385.595 103.488 385.29 114.691C392.221 121.856 395.606 125.494 402.232 132.852C403.536 121.337 403.83 115.675 403.684 104.681C403.696 104.624 403.716 104.594 403.702 104.542L403.685 104.532Z" fill="#171314"/>
<path d="M327.219 43.7379C318.535 37.7569 314.108 34.8299 305.157 29.1291C309.743 37.6179 311.734 42.0885 315.018 51.446C323.062 57.7514 327.016 60.9575 334.77 67.5071C332.426 57.6733 330.909 52.9235 327.237 43.8558C327.223 43.8045 327.232 43.7892 327.219 43.7379Z" fill="#171314"/>
<path d="M269.571 6.37771C266.926 3.09667 265.531 1.51719 262.64 -1.55522C257.524 -2.39665 255.016 -2.86061 250.08 -3.84445C257.954 0.135247 261.858 2.17868 269.571 6.37771Z" fill="#171314"/>
<path d="M524.875 250.608C519.622 242.085 516.913 237.846 511.322 229.496C504.649 242.4 500.912 248.868 492.607 261.815C497.085 270.257 499.236 274.508 503.346 283.061C512.721 270.166 516.99 263.691 524.737 250.756C524.775 250.695 524.83 250.644 524.885 250.593L524.875 250.608Z" fill="#171314"/>
<path d="M426.926 126.772C419.66 119.483 415.953 115.92 408.396 108.874C408.306 120.062 407.905 125.785 406.316 137.462C412.862 144.875 416.049 148.646 422.273 156.242C424.866 144.32 425.784 138.431 426.882 126.915C426.895 126.859 426.914 126.828 426.926 126.772Z" fill="#171314"/>
<path d="M489.466 198.758C483.385 190.676 480.247 186.681 473.852 178.807C469.888 191.234 467.518 197.535 461.985 210.195C467.311 218.272 469.895 222.347 474.876 230.572C481.47 217.831 484.365 211.497 489.386 198.922C489.425 198.86 489.453 198.814 489.482 198.768L489.466 198.758Z" fill="#171314"/>
<path d="M290.874 11.3353C288.776 8.46173 287.661 7.05785 285.392 4.31135C275.439 -0.524323 270.398 -2.87593 260.224 -7.35946C266.563 -1.33457 269.511 1.90201 274.839 8.80738C281.105 9.90072 284.322 10.4043 290.874 11.3353Z" fill="#171314"/>
<path d="M469.838 173.941C463.345 166.113 460.027 162.26 453.22 154.64C450.574 166.721 448.875 172.867 444.672 185.272C450.407 193.137 453.202 197.131 458.599 205.168C463.849 192.63 466.06 186.4 469.742 174.094C469.77 174.049 469.799 174.003 469.838 173.941Z" fill="#171314"/>
<path d="M448.973 149.927C442.085 142.363 438.569 138.643 431.383 131.297C430.026 142.97 428.975 148.925 426.123 161.005C432.267 168.657 435.25 172.534 441.072 180.368C444.983 168.1 446.549 162.02 448.919 150.086C448.948 150.04 448.977 149.994 448.989 149.938L448.973 149.927Z" fill="#171314"/>
<path d="M298.591 23.0255C296.418 19.3578 295.268 17.5697 292.842 14.085C287.498 13.3141 284.892 12.8957 279.746 11.9926C287.366 16.3038 291.147 18.5054 298.6 23.0102L298.591 23.0255Z" fill="#171314"/>
<path d="M324.326 9.72656C328.721 9.81654 330.949 9.84888 335.477 9.873C331.506 5.1204 329.403 2.84077 324.98 -1.5558C313.815 -1.4975 308.448 -1.53634 298.098 -1.86286C308.703 2.59224 313.952 4.90401 324.343 9.7369L324.326 9.72656Z" fill="#F2A93F"/>
<path d="M312.732 9.409C315.608 9.50625 317.072 9.54987 320.026 9.63217C309.714 4.78434 304.491 2.4676 293.964 -2.00244C291.141 -2.10965 289.755 -2.16821 286.976 -2.31103C297.389 2.19426 302.55 4.53627 312.742 9.39369L312.732 9.409Z" fill="#171314"/>
<path d="M319.353 -4.25375C310.286 -7.72262 305.731 -9.38549 296.534 -12.5734C300.55 -9.3926 302.472 -7.73863 306.188 -4.29827C311.356 -4.23489 313.999 -4.2413 319.362 -4.26905L319.353 -4.25375Z" fill="#F2A93F"/>
<path d="M353.658 9.82103C344.783 5.9384 340.319 4.05585 331.323 0.438861C334.861 4.08823 336.561 5.98677 339.792 9.87004C345.248 9.87862 348.011 9.86264 353.652 9.79539L353.658 9.82103Z" fill="#F2A93F"/>
<path d="M314.104 17.0967C312.805 15.1081 312.159 14.1267 310.778 12.1939C300.768 7.19411 295.713 4.79121 285.499 0.153844C287.063 1.90319 287.835 2.79316 289.335 4.60872C299.366 9.42945 304.31 11.9341 314.104 17.0967Z" fill="#171314"/>
<path d="M283.1 1.63617C281.546 -0.128482 280.764 -1.00315 279.145 -2.70158C268.872 -7.24708 263.674 -9.42029 253.18 -13.6136C254.993 -12.1139 255.884 -11.3411 257.623 -9.75977C267.916 -5.39338 273.021 -3.10802 283.084 1.62583L283.1 1.63617Z" fill="#171314"/>
<path d="M291.488 -4.60192C295.648 -4.4671 297.772 -4.41482 302.065 -4.34586C297.501 -8.55372 295.104 -10.5482 290.126 -14.3537C279.525 -14.3897 274.438 -14.509 264.612 -14.9761C275.465 -11.0266 280.833 -8.93951 291.488 -4.60192Z" fill="#F2A93F"/>
<path d="M280.47 -5.0703C283.206 -4.93283 284.582 -4.85893 287.38 -4.74674C276.796 -9.12492 271.445 -11.2016 260.68 -15.1814C257.996 -15.3288 256.672 -15.4127 254.06 -15.6007C264.727 -11.5754 270.017 -9.47338 280.487 -5.05996L280.47 -5.0703Z" fill="#171314"/>
<path d="M387.197 25.4848C378.538 21.1834 374.173 19.1068 365.384 15.0864C368.438 19.1786 369.892 21.2858 372.623 25.6017C378.345 25.5861 381.272 25.5658 387.213 25.4951L387.197 25.4848Z" fill="#F2A93F"/>
<path d="M320.488 27.9509C318.781 24.7465 317.883 23.18 316.004 20.1027C306.347 14.8334 301.457 12.2777 291.545 7.33985C296.951 14.2303 299.398 17.8994 303.746 25.5984C310.276 26.601 313.624 27.0797 320.481 27.9253L320.488 27.9509Z" fill="#171314"/>
</svg>
