<svg width="571" height="300" viewBox="0 0 571 300" fill="none" xmlns="http://www.w3.org/2000/svg"><g clip-path="url(#clip0_299_9487)"><rect width="571" height="300" rx="15" fill="white"/><rect x="52" y="31" width="463" height="295" rx="18.1017" fill="#F3E3C3"/><circle cx="80.0583" cy="57.2475" r="6.33559" fill="white"/><circle cx="80.0583" cy="57.2475" r="6.33559" fill="white"/><circle cx="99.9704" cy="57.2475" r="6.33559" fill="white"/><circle cx="99.9704" cy="57.2475" r="6.33559" fill="white"/><circle cx="119.881" cy="57.2475" r="6.33559" fill="white"/><circle cx="119.881" cy="57.2475" r="6.33559" fill="white"/><rect x="74" y="77" width="415" height="81" rx="16.2915" fill="white"/><rect x="89" y="95" width="259" height="11" rx="5.5" fill="#F3E2C3"/><rect x="89" y="95" width="259" height="11" rx="5.5" fill="#CBBA9B"/><rect x="89" y="114" width="337" height="11" rx="5.5" fill="#F3E2C3"/><rect x="89" y="114" width="337" height="11" rx="5.5" fill="#DFCEAF"/><rect x="89" y="133" width="147" height="11" rx="5.5" fill="#F3E2C3"/><rect x="89" y="133" width="147" height="11" rx="5.5" fill="#DFCEAF"/><rect x="74" y="171" width="415" height="40" rx="8.29" fill="white"/><path d="M96.6 195.2L103.65 188.15L102.25 186.75L96.6 192.4L93.75 189.55L92.35 190.95L96.6 195.2ZM91 200C90.45 200 89.979 199.804 89.587 199.412C89.195 199.02 88.9993 198.549 89 198V184C89 183.45 89.196 182.979 89.588 182.587C89.98 182.195 90.4507 181.999 91 182H105C105.55 182 106.021 182.196 106.413 182.588C106.805 182.98 107.001 183.451 107 184V198C107 198.55 106.804 199.021 106.412 199.413C106.02 199.805 105.549 200.001 105 200H91Z" fill="#F2A93F"/><rect x="126" y="186" width="180" height="11" rx="5.5" fill="#F3E2C3"/><rect x="126" y="186" width="180" height="11" rx="5.5" fill="#DFCEAF"/><rect x="74" y="217" width="415" height="40" rx="8.29" fill="white"/><path d="M89.5 244.001V244V230C89.5 229.584 89.6425 229.24 89.9416 228.941C90.2406 228.642 90.5842 228.499 90.9994 228.5H91H105C105.416 228.5 105.76 228.642 106.059 228.942C106.359 229.241 106.501 229.584 106.5 229.999V230V244C106.5 244.416 106.358 244.76 106.058 245.059C105.759 245.359 105.416 245.501 105.001 245.5H105H91C90.5838 245.5 90.2396 245.358 89.9406 245.058C89.6415 244.759 89.4995 244.416 89.5 244.001Z" stroke="#F2A93F"/><rect x="129" y="232" width="180" height="11" rx="5.5" fill="#F3E2C3"/><rect x="129" y="232" width="180" height="11" rx="5.5" fill="#DFCEAF"/><rect x="74" y="263" width="415" height="40" rx="8.29" fill="white"/><path d="M89.5 290.001V290V276C89.5 275.584 89.6425 275.24 89.9416 274.941C90.2406 274.642 90.5842 274.499 90.9994 274.5H91H105C105.416 274.5 105.76 274.642 106.059 274.942C106.359 275.241 106.501 275.584 106.5 275.999V276V290C106.5 290.416 106.358 290.76 106.058 291.059C105.759 291.359 105.416 291.501 105.001 291.5H105H91C90.5838 291.5 90.2396 291.358 89.9406 291.058C89.6415 290.759 89.4995 290.416 89.5 290.001Z" stroke="#F2A93F"/><rect x="129" y="278" width="180" height="11" rx="5.5" fill="#F3E2C3"/><rect x="129" y="278" width="180" height="11" rx="5.5" fill="#DFCEAF"/></g><defs><clipPath id="clip0_299_9487"><rect width="571" height="300" rx="15" fill="white"/></clipPath></defs></svg>