<svg width="571" height="300" viewBox="0 0 571 300" fill="none" xmlns="http://www.w3.org/2000/svg">
<g clip-path="url(#clip0_299_9458)">
<rect width="571" height="300" rx="15" fill="white"/>
<rect x="62" y="41" width="526" height="295" rx="18.1017" fill="#F3E3C3"/>
<circle cx="90.0583" cy="67.2475" r="6.33559" fill="white"/>
<circle cx="90.0583" cy="67.2475" r="6.33559" fill="white"/>
<circle cx="109.97" cy="67.2475" r="6.33559" fill="white"/>
<circle cx="109.97" cy="67.2475" r="6.33559" fill="white"/>
<circle cx="129.881" cy="67.2475" r="6.33559" fill="white"/>
<circle cx="129.881" cy="67.2475" r="6.33559" fill="white"/>
<rect x="84" y="92" width="523" height="34" rx="17" fill="white"/>
<rect x="84" y="141" width="247" height="148" rx="16.2915" fill="white"/>
<rect x="180" y="187" width="56" height="56" rx="28" fill="white" fill-opacity="0.2"/>
<rect x="188.256" y="195.256" width="39.4872" height="39.4872" rx="19.7436" fill="#F2A93F" stroke="white" stroke-width="2.15385"/>
<path d="M202.628 207.537C202.628 207.039 203.179 206.739 203.598 207.008L215.206 214.471C215.592 214.718 215.592 215.282 215.206 215.529L203.598 222.992C203.179 223.261 202.628 222.961 202.628 222.463V207.537Z" fill="white"/>
<rect x="347" y="141" width="235" height="148" rx="16.2915" fill="white"/>
<rect x="437" y="187" width="56" height="56" rx="28" fill="white" fill-opacity="0.2"/>
<rect x="445.256" y="195.256" width="39.4872" height="39.4872" rx="19.7436" fill="#F2A93F" stroke="white" stroke-width="2.15385"/>
<path d="M459.628 207.537C459.628 207.039 460.179 206.739 460.598 207.008L472.206 214.471C472.592 214.718 472.592 215.282 472.206 215.529L460.598 222.992C460.179 223.261 459.628 222.961 459.628 222.463V207.537Z" fill="white"/>
</g>
<defs>
<clipPath id="clip0_299_9458">
<rect width="571" height="300" rx="15" fill="white"/>
</clipPath>
</defs>
</svg>
