<svg width="571" height="300" viewBox="0 0 571 300" fill="none" xmlns="http://www.w3.org/2000/svg">
<g clip-path="url(#clip0_299_9528)">
<rect width="571" height="300" rx="15" fill="white"/>
<rect x="52" y="31" width="463" height="295" rx="18.1017" fill="#F3E3C3"/>
<circle cx="80.0583" cy="57.2475" r="6.33559" fill="white"/>
<circle cx="80.0583" cy="57.2475" r="6.33559" fill="white"/>
<circle cx="99.9704" cy="57.2475" r="6.33559" fill="white"/>
<circle cx="99.9704" cy="57.2475" r="6.33559" fill="white"/>
<circle cx="119.881" cy="57.2475" r="6.33559" fill="white"/>
<circle cx="119.881" cy="57.2475" r="6.33559" fill="white"/>
<rect x="74" y="77" width="415" height="81" rx="16.2915" fill="white"/>
<rect x="86" y="90" width="55" height="55" rx="27.5" fill="#FABD2F"/>
<g clip-path="url(#clip1_299_9528)">
<path d="M113.499 117.375C117.641 117.375 120.999 114.017 120.999 109.875C120.999 105.733 117.641 102.375 113.499 102.375C109.357 102.375 105.999 105.733 105.999 109.875C105.999 114.017 109.357 117.375 113.499 117.375Z" fill="#FFF1D2"/>
<path d="M120.375 119.876H106.624C104.801 119.878 103.054 120.603 101.765 121.892C100.477 123.18 99.752 124.928 99.75 126.75V130.5C99.75 130.997 99.9475 131.474 100.299 131.826C100.651 132.177 101.128 132.375 101.625 132.375H125.374C125.871 132.375 126.348 132.177 126.7 131.826C127.051 131.474 127.249 130.997 127.249 130.5V126.75C127.247 124.928 126.522 123.18 125.233 121.892C123.945 120.603 122.197 119.878 120.375 119.876ZM152.876 119.876H139.125C137.303 119.878 135.555 120.603 134.267 121.892C132.978 123.18 132.253 124.928 132.251 126.75V130.5C132.251 130.997 132.449 131.474 132.8 131.826C133.152 132.177 133.629 132.375 134.126 132.375H157.875C158.372 132.375 158.849 132.177 159.201 131.826C159.552 131.474 159.75 130.997 159.75 130.5V126.75C159.748 124.928 159.023 123.18 157.735 121.892C156.446 120.603 154.699 119.878 152.876 119.876Z" fill="#FFF1D2"/>
</g>
<rect x="74" y="190" width="29" height="29" rx="14.5" fill="white"/>
<g clip-path="url(#clip2_299_9528)">
<path d="M88.5 204.434C90.684 204.434 92.4545 202.663 92.4545 200.479C92.4545 198.295 90.684 196.525 88.5 196.525C86.3159 196.525 84.5454 198.295 84.5454 200.479C84.5454 202.663 86.3159 204.434 88.5 204.434Z" fill="#FABD2F"/>
<path d="M92.125 205.753H84.8743C83.9134 205.754 82.9922 206.136 82.3127 206.816C81.6332 207.495 81.251 208.416 81.25 209.377V211.355C81.25 211.617 81.3542 211.868 81.5396 212.054C81.725 212.239 81.9764 212.343 82.2386 212.343H94.7607C95.0229 212.343 95.2744 212.239 95.4598 212.054C95.6452 211.868 95.7493 211.617 95.7493 211.355V209.377C95.7483 208.416 95.3661 207.495 94.6866 206.816C94.0072 206.136 93.0859 205.754 92.125 205.753ZM109.262 205.753H102.011C101.05 205.754 100.129 206.136 99.4497 206.816C98.7703 207.495 98.3881 208.416 98.387 209.377V211.355C98.387 211.617 98.4912 211.868 98.6766 212.054C98.862 212.239 99.1135 212.343 99.3757 212.343H111.898C112.16 212.343 112.411 212.239 112.597 212.054C112.782 211.868 112.886 211.617 112.886 211.355V209.377C112.885 208.416 112.503 207.495 111.824 206.816C111.144 206.136 110.223 205.754 109.262 205.753Z" fill="#FABD2F"/>
</g>
<path d="M110 187.29C110 182.712 113.712 179 118.29 179H309.71C314.288 179 318 182.712 318 187.29V210.71C318 215.288 314.288 219 309.71 219H110V187.29Z" fill="white"/>
<rect x="124" y="194" width="180" height="11" rx="5.5" fill="#F3E2C3"/>
<rect x="124" y="194" width="180" height="11" rx="5.5" fill="#DFCEAF"/>
<rect width="29" height="29" rx="14.5" transform="matrix(-1 0 0 1 489 242)" fill="#FABD2F"/>
<g clip-path="url(#clip3_299_9528)">
<path d="M474.5 256.434C472.316 256.434 470.545 254.663 470.545 252.479C470.545 250.295 472.316 248.525 474.5 248.525C476.684 248.525 478.455 250.295 478.455 252.479C478.455 254.663 476.684 256.434 474.5 256.434Z" fill="#FFF1D2"/>
<path d="M470.875 257.753H478.126C479.087 257.754 480.008 258.136 480.687 258.816C481.367 259.495 481.749 260.416 481.75 261.377V263.355C481.75 263.617 481.646 263.868 481.46 264.054C481.275 264.239 481.024 264.343 480.761 264.343H468.239C467.977 264.343 467.726 264.239 467.54 264.054C467.355 263.868 467.251 263.617 467.251 263.355V261.377C467.252 260.416 467.634 259.495 468.313 258.816C468.993 258.136 469.914 257.754 470.875 257.753ZM453.738 257.753H460.989C461.95 257.754 462.871 258.136 463.55 258.816C464.23 259.495 464.612 260.416 464.613 261.377V263.355C464.613 263.617 464.509 263.868 464.323 264.054C464.138 264.239 463.887 264.343 463.624 264.343H451.102C450.84 264.343 450.589 264.239 450.403 264.054C450.218 263.868 450.114 263.617 450.114 263.355V261.377C450.115 260.416 450.497 259.495 451.176 258.816C451.856 258.136 452.777 257.754 453.738 257.753Z" fill="#FFF1D2"/>
</g>
<path d="M453 239.29C453 234.712 449.288 231 444.71 231H253.29C248.712 231 245 234.712 245 239.29V262.71C245 267.288 248.712 271 253.29 271H453V239.29Z" fill="white"/>
<rect width="180" height="11" rx="5.5" transform="matrix(-1 0 0 1 439 246)" fill="#F3E2C3"/>
<rect width="180" height="11" rx="5.5" transform="matrix(-1 0 0 1 439 246)" fill="#DFCEAF"/>
<rect x="154" y="102" width="180" height="11" rx="5.5" fill="#F3E2C3"/>
<rect x="154" y="102" width="180" height="11" rx="5.5" fill="#DFCEAF"/>
<rect x="154" y="120" width="180" height="11" rx="5.5" fill="#F3E2C3"/>
<rect x="154" y="120" width="180" height="11" rx="5.5" fill="#DFCEAF"/>
</g>
<defs>
<clipPath id="clip0_299_9528">
<rect width="571" height="300" rx="15" fill="white"/>
</clipPath>
<clipPath id="clip1_299_9528">
<rect width="27.5" height="30" fill="white" transform="translate(99.75 102.375)"/>
</clipPath>
<clipPath id="clip2_299_9528">
<rect width="14.5" height="15.8182" fill="white" transform="translate(81.25 196.525)"/>
</clipPath>
<clipPath id="clip3_299_9528">
<rect width="14.5" height="15.8182" fill="white" transform="matrix(-1 0 0 1 481.75 248.525)"/>
</clipPath>
</defs>
</svg>
