<svg width="571" height="300" viewBox="0 0 571 300" fill="none" xmlns="http://www.w3.org/2000/svg">
<g clip-path="url(#clip0_299_9580)">
<rect width="571" height="300" rx="15" fill="white"/>
<rect x="52" y="31" width="463" height="295" rx="18.1017" fill="#F3E3C3"/>
<circle cx="80.0583" cy="57.2475" r="6.33559" fill="white"/>
<circle cx="80.0583" cy="57.2475" r="6.33559" fill="white"/>
<circle cx="99.9704" cy="57.2475" r="6.33559" fill="white"/>
<circle cx="99.9704" cy="57.2475" r="6.33559" fill="white"/>
<circle cx="119.881" cy="57.2475" r="6.33559" fill="white"/>
<circle cx="119.881" cy="57.2475" r="6.33559" fill="white"/>
<rect x="74" y="77" width="415" height="81" rx="16.2915" fill="white"/>
<rect x="85" y="87" width="144" height="62" rx="16.2915" fill="#FABD2F"/>
<rect x="74" y="179" width="56" height="40" rx="8" fill="white"/>
<g clip-path="url(#clip1_299_9580)">
<path fill-rule="evenodd" clip-rule="evenodd" d="M111.546 192.111C111.827 192.392 111.985 192.774 111.985 193.172C111.985 193.569 111.827 193.951 111.546 194.232L100.303 205.475C100.154 205.624 99.978 205.742 99.7839 205.822C99.5898 205.902 99.3817 205.944 99.1715 205.944C98.9614 205.944 98.7533 205.902 98.5591 205.822C98.365 205.742 98.1886 205.624 98.04 205.475L92.454 199.89C92.3108 199.752 92.1965 199.586 92.1179 199.403C92.0393 199.22 91.9979 199.023 91.9962 198.824C91.9944 198.625 92.0324 198.427 92.1078 198.243C92.1832 198.059 92.2946 197.891 92.4354 197.75C92.5763 197.61 92.7438 197.498 92.9281 197.423C93.1124 197.347 93.31 197.309 93.5091 197.311C93.7083 197.313 93.9051 197.354 94.0881 197.433C94.2711 197.512 94.4367 197.626 94.575 197.769L99.171 202.365L109.424 192.111C109.563 191.972 109.729 191.861 109.911 191.786C110.093 191.71 110.288 191.671 110.485 191.671C110.682 191.671 110.877 191.71 111.059 191.786C111.241 191.861 111.407 191.972 111.546 192.111Z" fill="#FABD2F"/>
</g>
<rect x="145" y="179" width="56" height="40" rx="8" fill="white"/>
<g clip-path="url(#clip2_299_9580)">
<path fill-rule="evenodd" clip-rule="evenodd" d="M182.546 192.111C182.827 192.392 182.985 192.774 182.985 193.172C182.985 193.569 182.827 193.951 182.546 194.232L171.303 205.475C171.154 205.624 170.978 205.742 170.784 205.822C170.59 205.902 170.382 205.944 170.172 205.944C169.961 205.944 169.753 205.902 169.559 205.822C169.365 205.742 169.189 205.624 169.04 205.475L163.454 199.89C163.311 199.752 163.196 199.586 163.118 199.403C163.039 199.22 162.998 199.023 162.996 198.824C162.994 198.625 163.032 198.427 163.108 198.243C163.183 198.059 163.295 197.891 163.435 197.75C163.576 197.61 163.744 197.498 163.928 197.423C164.112 197.347 164.31 197.309 164.509 197.311C164.708 197.313 164.905 197.354 165.088 197.433C165.271 197.512 165.437 197.626 165.575 197.769L170.171 202.365L180.424 192.111C180.563 191.972 180.729 191.861 180.911 191.786C181.093 191.71 181.288 191.671 181.485 191.671C181.682 191.671 181.877 191.71 182.059 191.786C182.241 191.861 182.407 191.972 182.546 192.111Z" fill="#FABD2F"/>
</g>
<rect x="217" y="179" width="56" height="40" rx="8" fill="white"/>
<g clip-path="url(#clip3_299_9580)">
<path fill-rule="evenodd" clip-rule="evenodd" d="M254.546 192.111C254.827 192.392 254.985 192.774 254.985 193.172C254.985 193.569 254.827 193.951 254.546 194.232L243.303 205.475C243.154 205.624 242.978 205.742 242.784 205.822C242.59 205.902 242.382 205.944 242.172 205.944C241.961 205.944 241.753 205.902 241.559 205.822C241.365 205.742 241.189 205.624 241.04 205.475L235.454 199.89C235.311 199.752 235.196 199.586 235.118 199.403C235.039 199.22 234.998 199.023 234.996 198.824C234.994 198.625 235.032 198.427 235.108 198.243C235.183 198.059 235.295 197.891 235.435 197.75C235.576 197.61 235.744 197.498 235.928 197.423C236.112 197.347 236.31 197.309 236.509 197.311C236.708 197.313 236.905 197.354 237.088 197.433C237.271 197.512 237.437 197.626 237.575 197.769L242.171 202.365L252.424 192.111C252.563 191.972 252.729 191.861 252.911 191.786C253.093 191.71 253.288 191.671 253.485 191.671C253.682 191.671 253.877 191.71 254.059 191.786C254.241 191.861 254.407 191.972 254.546 192.111Z" fill="#FABD2F"/>
</g>
<rect x="288" y="179" width="56" height="40" rx="8" fill="white"/>
<g clip-path="url(#clip4_299_9580)">
<path fill-rule="evenodd" clip-rule="evenodd" d="M325.546 192.111C325.827 192.392 325.985 192.774 325.985 193.172C325.985 193.569 325.827 193.951 325.546 194.232L314.303 205.475C314.154 205.624 313.978 205.742 313.784 205.822C313.59 205.902 313.382 205.944 313.172 205.944C312.961 205.944 312.753 205.902 312.559 205.822C312.365 205.742 312.189 205.624 312.04 205.475L306.454 199.89C306.311 199.752 306.196 199.586 306.118 199.403C306.039 199.22 305.998 199.023 305.996 198.824C305.994 198.625 306.032 198.427 306.108 198.243C306.183 198.059 306.295 197.891 306.435 197.75C306.576 197.61 306.744 197.498 306.928 197.423C307.112 197.347 307.31 197.309 307.509 197.311C307.708 197.313 307.905 197.354 308.088 197.433C308.271 197.512 308.437 197.626 308.575 197.769L313.171 202.365L323.424 192.111C323.563 191.972 323.729 191.861 323.911 191.786C324.093 191.71 324.288 191.671 324.485 191.671C324.682 191.671 324.877 191.71 325.059 191.786C325.241 191.861 325.407 191.972 325.546 192.111Z" fill="#FABD2F"/>
</g>
<rect x="360" y="179" width="56" height="40" rx="8" fill="white"/>
<g clip-path="url(#clip5_299_9580)">
<path fill-rule="evenodd" clip-rule="evenodd" d="M397.546 192.111C397.827 192.392 397.985 192.774 397.985 193.172C397.985 193.569 397.827 193.951 397.546 194.232L386.303 205.475C386.154 205.624 385.978 205.742 385.784 205.822C385.59 205.902 385.382 205.944 385.172 205.944C384.961 205.944 384.753 205.902 384.559 205.822C384.365 205.742 384.189 205.624 384.04 205.475L378.454 199.89C378.311 199.752 378.196 199.586 378.118 199.403C378.039 199.22 377.998 199.023 377.996 198.824C377.994 198.625 378.032 198.427 378.108 198.243C378.183 198.059 378.295 197.891 378.435 197.75C378.576 197.61 378.744 197.498 378.928 197.423C379.112 197.347 379.31 197.309 379.509 197.311C379.708 197.313 379.905 197.354 380.088 197.433C380.271 197.512 380.437 197.626 380.575 197.769L385.171 202.365L395.424 192.111C395.563 191.972 395.729 191.861 395.911 191.786C396.093 191.71 396.288 191.671 396.485 191.671C396.682 191.671 396.877 191.71 397.059 191.786C397.241 191.861 397.407 191.972 397.546 192.111Z" fill="#FABD2F"/>
</g>
<rect x="431" y="179" width="56" height="40" rx="8" fill="white"/>
<g clip-path="url(#clip6_299_9580)">
<path fill-rule="evenodd" clip-rule="evenodd" d="M468.546 192.111C468.827 192.392 468.985 192.774 468.985 193.172C468.985 193.569 468.827 193.951 468.546 194.232L457.303 205.475C457.154 205.624 456.978 205.742 456.784 205.822C456.59 205.902 456.382 205.944 456.172 205.944C455.961 205.944 455.753 205.902 455.559 205.822C455.365 205.742 455.189 205.624 455.04 205.475L449.454 199.89C449.311 199.752 449.196 199.586 449.118 199.403C449.039 199.22 448.998 199.023 448.996 198.824C448.994 198.625 449.032 198.427 449.108 198.243C449.183 198.059 449.295 197.891 449.435 197.75C449.576 197.61 449.744 197.498 449.928 197.423C450.112 197.347 450.31 197.309 450.509 197.311C450.708 197.313 450.905 197.354 451.088 197.433C451.271 197.512 451.437 197.626 451.575 197.769L456.171 202.365L466.424 192.111C466.563 191.972 466.729 191.861 466.911 191.786C467.093 191.71 467.288 191.671 467.485 191.671C467.682 191.671 467.877 191.71 468.059 191.786C468.241 191.861 468.407 191.972 468.546 192.111Z" fill="#FABD2F"/>
</g>
<rect x="74" y="229" width="56" height="40" rx="8" fill="white"/>
<g clip-path="url(#clip7_299_9580)">
<path fill-rule="evenodd" clip-rule="evenodd" d="M111.546 242.111C111.827 242.392 111.985 242.774 111.985 243.172C111.985 243.569 111.827 243.951 111.546 244.232L100.303 255.475C100.154 255.624 99.978 255.742 99.7839 255.822C99.5898 255.902 99.3817 255.944 99.1715 255.944C98.9614 255.944 98.7533 255.902 98.5591 255.822C98.365 255.742 98.1886 255.624 98.04 255.475L92.454 249.89C92.3108 249.752 92.1965 249.586 92.1179 249.403C92.0393 249.22 91.9979 249.023 91.9962 248.824C91.9944 248.625 92.0324 248.427 92.1078 248.243C92.1832 248.059 92.2946 247.891 92.4354 247.75C92.5763 247.61 92.7438 247.498 92.9281 247.423C93.1124 247.347 93.31 247.309 93.5091 247.311C93.7083 247.313 93.9051 247.354 94.0881 247.433C94.2711 247.512 94.4367 247.626 94.575 247.769L99.171 252.365L109.424 242.111C109.563 241.972 109.729 241.861 109.911 241.786C110.093 241.71 110.288 241.671 110.485 241.671C110.682 241.671 110.877 241.71 111.059 241.786C111.241 241.861 111.407 241.972 111.546 242.111Z" fill="#FABD2F"/>
</g>
<rect x="145" y="229" width="56" height="40" rx="8" fill="white"/>
<g clip-path="url(#clip8_299_9580)">
<path fill-rule="evenodd" clip-rule="evenodd" d="M182.546 242.111C182.827 242.392 182.985 242.774 182.985 243.172C182.985 243.569 182.827 243.951 182.546 244.232L171.303 255.475C171.154 255.624 170.978 255.742 170.784 255.822C170.59 255.902 170.382 255.944 170.172 255.944C169.961 255.944 169.753 255.902 169.559 255.822C169.365 255.742 169.189 255.624 169.04 255.475L163.454 249.89C163.311 249.752 163.196 249.586 163.118 249.403C163.039 249.22 162.998 249.023 162.996 248.824C162.994 248.625 163.032 248.427 163.108 248.243C163.183 248.059 163.295 247.891 163.435 247.75C163.576 247.61 163.744 247.498 163.928 247.423C164.112 247.347 164.31 247.309 164.509 247.311C164.708 247.313 164.905 247.354 165.088 247.433C165.271 247.512 165.437 247.626 165.575 247.769L170.171 252.365L180.424 242.111C180.563 241.972 180.729 241.861 180.911 241.786C181.093 241.71 181.288 241.671 181.485 241.671C181.682 241.671 181.877 241.71 182.059 241.786C182.241 241.861 182.407 241.972 182.546 242.111Z" fill="#FABD2F"/>
</g>
<rect x="217" y="229" width="56" height="40" rx="8" fill="white"/>
<g clip-path="url(#clip9_299_9580)">
<path fill-rule="evenodd" clip-rule="evenodd" d="M254.546 242.111C254.827 242.392 254.985 242.774 254.985 243.172C254.985 243.569 254.827 243.951 254.546 244.232L243.303 255.475C243.154 255.624 242.978 255.742 242.784 255.822C242.59 255.902 242.382 255.944 242.172 255.944C241.961 255.944 241.753 255.902 241.559 255.822C241.365 255.742 241.189 255.624 241.04 255.475L235.454 249.89C235.311 249.752 235.196 249.586 235.118 249.403C235.039 249.22 234.998 249.023 234.996 248.824C234.994 248.625 235.032 248.427 235.108 248.243C235.183 248.059 235.295 247.891 235.435 247.75C235.576 247.61 235.744 247.498 235.928 247.423C236.112 247.347 236.31 247.309 236.509 247.311C236.708 247.313 236.905 247.354 237.088 247.433C237.271 247.512 237.437 247.626 237.575 247.769L242.171 252.365L252.424 242.111C252.563 241.972 252.729 241.861 252.911 241.786C253.093 241.71 253.288 241.671 253.485 241.671C253.682 241.671 253.877 241.71 254.059 241.786C254.241 241.861 254.407 241.972 254.546 242.111Z" fill="#FABD2F"/>
</g>
<rect x="288" y="229" width="56" height="40" rx="8" fill="white"/>
<g clip-path="url(#clip10_299_9580)">
<path fill-rule="evenodd" clip-rule="evenodd" d="M325.546 242.111C325.827 242.392 325.985 242.774 325.985 243.172C325.985 243.569 325.827 243.951 325.546 244.232L314.303 255.475C314.154 255.624 313.978 255.742 313.784 255.822C313.59 255.902 313.382 255.944 313.172 255.944C312.961 255.944 312.753 255.902 312.559 255.822C312.365 255.742 312.189 255.624 312.04 255.475L306.454 249.89C306.311 249.752 306.196 249.586 306.118 249.403C306.039 249.22 305.998 249.023 305.996 248.824C305.994 248.625 306.032 248.427 306.108 248.243C306.183 248.059 306.295 247.891 306.435 247.75C306.576 247.61 306.744 247.498 306.928 247.423C307.112 247.347 307.31 247.309 307.509 247.311C307.708 247.313 307.905 247.354 308.088 247.433C308.271 247.512 308.437 247.626 308.575 247.769L313.171 252.365L323.424 242.111C323.563 241.972 323.729 241.861 323.911 241.786C324.093 241.71 324.288 241.671 324.485 241.671C324.682 241.671 324.877 241.71 325.059 241.786C325.241 241.861 325.407 241.972 325.546 242.111Z" fill="#FABD2F"/>
</g>
<rect x="360" y="229" width="56" height="40" rx="8" fill="white"/>
<g clip-path="url(#clip11_299_9580)">
<path fill-rule="evenodd" clip-rule="evenodd" d="M397.546 242.111C397.827 242.392 397.985 242.774 397.985 243.172C397.985 243.569 397.827 243.951 397.546 244.232L386.303 255.475C386.154 255.624 385.978 255.742 385.784 255.822C385.59 255.902 385.382 255.944 385.172 255.944C384.961 255.944 384.753 255.902 384.559 255.822C384.365 255.742 384.189 255.624 384.04 255.475L378.454 249.89C378.311 249.752 378.196 249.586 378.118 249.403C378.039 249.22 377.998 249.023 377.996 248.824C377.994 248.625 378.032 248.427 378.108 248.243C378.183 248.059 378.295 247.891 378.435 247.75C378.576 247.61 378.744 247.498 378.928 247.423C379.112 247.347 379.31 247.309 379.509 247.311C379.708 247.313 379.905 247.354 380.088 247.433C380.271 247.512 380.437 247.626 380.575 247.769L385.171 252.365L395.424 242.111C395.563 241.972 395.729 241.861 395.911 241.786C396.093 241.71 396.288 241.671 396.485 241.671C396.682 241.671 396.877 241.71 397.059 241.786C397.241 241.861 397.407 241.972 397.546 242.111Z" fill="#FABD2F"/>
</g>
<rect x="431" y="229" width="56" height="40" rx="8" fill="white"/>
<g clip-path="url(#clip12_299_9580)">
<path fill-rule="evenodd" clip-rule="evenodd" d="M468.546 242.111C468.827 242.392 468.985 242.774 468.985 243.172C468.985 243.569 468.827 243.951 468.546 244.232L457.303 255.475C457.154 255.624 456.978 255.742 456.784 255.822C456.59 255.902 456.382 255.944 456.172 255.944C455.961 255.944 455.753 255.902 455.559 255.822C455.365 255.742 455.189 255.624 455.04 255.475L449.454 249.89C449.311 249.752 449.196 249.586 449.118 249.403C449.039 249.22 448.998 249.023 448.996 248.824C448.994 248.625 449.032 248.427 449.108 248.243C449.183 248.059 449.295 247.891 449.435 247.75C449.576 247.61 449.744 247.498 449.928 247.423C450.112 247.347 450.31 247.309 450.509 247.311C450.708 247.313 450.905 247.354 451.088 247.433C451.271 247.512 451.437 247.626 451.575 247.769L456.171 252.365L466.424 242.111C466.563 241.972 466.729 241.861 466.911 241.786C467.093 241.71 467.288 241.671 467.485 241.671C467.682 241.671 467.877 241.71 468.059 241.786C468.241 241.861 468.407 241.972 468.546 242.111Z" fill="#FABD2F"/>
</g>
<rect x="74" y="279" width="56" height="40" rx="8" fill="white"/>
<g clip-path="url(#clip13_299_9580)">
<path fill-rule="evenodd" clip-rule="evenodd" d="M111.546 292.111C111.827 292.392 111.985 292.774 111.985 293.172C111.985 293.569 111.827 293.951 111.546 294.232L100.303 305.475C100.154 305.624 99.978 305.742 99.7839 305.822C99.5898 305.902 99.3817 305.944 99.1715 305.944C98.9614 305.944 98.7533 305.902 98.5591 305.822C98.365 305.742 98.1886 305.624 98.04 305.475L92.454 299.89C92.3108 299.752 92.1965 299.586 92.1179 299.403C92.0393 299.22 91.9979 299.023 91.9962 298.824C91.9944 298.625 92.0324 298.427 92.1078 298.243C92.1832 298.059 92.2946 297.891 92.4354 297.75C92.5763 297.61 92.7438 297.498 92.9281 297.423C93.1124 297.347 93.31 297.309 93.5091 297.311C93.7083 297.313 93.9051 297.354 94.0881 297.433C94.2711 297.512 94.4367 297.626 94.575 297.769L99.171 302.365L109.424 292.111C109.563 291.972 109.729 291.861 109.911 291.786C110.093 291.71 110.288 291.671 110.485 291.671C110.682 291.671 110.877 291.71 111.059 291.786C111.241 291.861 111.407 291.972 111.546 292.111Z" fill="#FABD2F"/>
</g>
<rect x="145" y="279" width="56" height="40" rx="8" fill="white"/>
<g clip-path="url(#clip14_299_9580)">
<path fill-rule="evenodd" clip-rule="evenodd" d="M182.546 292.111C182.827 292.392 182.985 292.774 182.985 293.172C182.985 293.569 182.827 293.951 182.546 294.232L171.303 305.475C171.154 305.624 170.978 305.742 170.784 305.822C170.59 305.902 170.382 305.944 170.172 305.944C169.961 305.944 169.753 305.902 169.559 305.822C169.365 305.742 169.189 305.624 169.04 305.475L163.454 299.89C163.311 299.752 163.196 299.586 163.118 299.403C163.039 299.22 162.998 299.023 162.996 298.824C162.994 298.625 163.032 298.427 163.108 298.243C163.183 298.059 163.295 297.891 163.435 297.75C163.576 297.61 163.744 297.498 163.928 297.423C164.112 297.347 164.31 297.309 164.509 297.311C164.708 297.313 164.905 297.354 165.088 297.433C165.271 297.512 165.437 297.626 165.575 297.769L170.171 302.365L180.424 292.111C180.563 291.972 180.729 291.861 180.911 291.786C181.093 291.71 181.288 291.671 181.485 291.671C181.682 291.671 181.877 291.71 182.059 291.786C182.241 291.861 182.407 291.972 182.546 292.111Z" fill="#FABD2F"/>
</g>
<rect x="217" y="279" width="56" height="40" rx="8" fill="white"/>
<g clip-path="url(#clip15_299_9580)">
<path fill-rule="evenodd" clip-rule="evenodd" d="M254.546 292.111C254.827 292.392 254.985 292.774 254.985 293.172C254.985 293.569 254.827 293.951 254.546 294.232L243.303 305.475C243.154 305.624 242.978 305.742 242.784 305.822C242.59 305.902 242.382 305.944 242.172 305.944C241.961 305.944 241.753 305.902 241.559 305.822C241.365 305.742 241.189 305.624 241.04 305.475L235.454 299.89C235.311 299.752 235.196 299.586 235.118 299.403C235.039 299.22 234.998 299.023 234.996 298.824C234.994 298.625 235.032 298.427 235.108 298.243C235.183 298.059 235.295 297.891 235.435 297.75C235.576 297.61 235.744 297.498 235.928 297.423C236.112 297.347 236.31 297.309 236.509 297.311C236.708 297.313 236.905 297.354 237.088 297.433C237.271 297.512 237.437 297.626 237.575 297.769L242.171 302.365L252.424 292.111C252.563 291.972 252.729 291.861 252.911 291.786C253.093 291.71 253.288 291.671 253.485 291.671C253.682 291.671 253.877 291.71 254.059 291.786C254.241 291.861 254.407 291.972 254.546 292.111Z" fill="#FABD2F"/>
</g>
<rect x="288" y="279" width="56" height="40" rx="8" fill="white"/>
<g clip-path="url(#clip16_299_9580)">
<path fill-rule="evenodd" clip-rule="evenodd" d="M325.546 292.111C325.827 292.392 325.985 292.774 325.985 293.172C325.985 293.569 325.827 293.951 325.546 294.232L314.303 305.475C314.154 305.624 313.978 305.742 313.784 305.822C313.59 305.902 313.382 305.944 313.172 305.944C312.961 305.944 312.753 305.902 312.559 305.822C312.365 305.742 312.189 305.624 312.04 305.475L306.454 299.89C306.311 299.752 306.196 299.586 306.118 299.403C306.039 299.22 305.998 299.023 305.996 298.824C305.994 298.625 306.032 298.427 306.108 298.243C306.183 298.059 306.295 297.891 306.435 297.75C306.576 297.61 306.744 297.498 306.928 297.423C307.112 297.347 307.31 297.309 307.509 297.311C307.708 297.313 307.905 297.354 308.088 297.433C308.271 297.512 308.437 297.626 308.575 297.769L313.171 302.365L323.424 292.111C323.563 291.972 323.729 291.861 323.911 291.786C324.093 291.71 324.288 291.671 324.485 291.671C324.682 291.671 324.877 291.71 325.059 291.786C325.241 291.861 325.407 291.972 325.546 292.111Z" fill="#FABD2F"/>
</g>
<rect x="360" y="279" width="56" height="40" rx="8" fill="white"/>
<g clip-path="url(#clip17_299_9580)">
<path fill-rule="evenodd" clip-rule="evenodd" d="M397.546 292.111C397.827 292.392 397.985 292.774 397.985 293.172C397.985 293.569 397.827 293.951 397.546 294.232L386.303 305.475C386.154 305.624 385.978 305.742 385.784 305.822C385.59 305.902 385.382 305.944 385.172 305.944C384.961 305.944 384.753 305.902 384.559 305.822C384.365 305.742 384.189 305.624 384.04 305.475L378.454 299.89C378.311 299.752 378.196 299.586 378.118 299.403C378.039 299.22 377.998 299.023 377.996 298.824C377.994 298.625 378.032 298.427 378.108 298.243C378.183 298.059 378.295 297.891 378.435 297.75C378.576 297.61 378.744 297.498 378.928 297.423C379.112 297.347 379.31 297.309 379.509 297.311C379.708 297.313 379.905 297.354 380.088 297.433C380.271 297.512 380.437 297.626 380.575 297.769L385.171 302.365L395.424 292.111C395.563 291.972 395.729 291.861 395.911 291.786C396.093 291.71 396.288 291.671 396.485 291.671C396.682 291.671 396.877 291.71 397.059 291.786C397.241 291.861 397.407 291.972 397.546 292.111Z" fill="#FABD2F"/>
</g>
<rect x="431" y="279" width="56" height="40" rx="8" fill="white"/>
<g clip-path="url(#clip18_299_9580)">
<path fill-rule="evenodd" clip-rule="evenodd" d="M468.546 292.111C468.827 292.392 468.985 292.774 468.985 293.172C468.985 293.569 468.827 293.951 468.546 294.232L457.303 305.475C457.154 305.624 456.978 305.742 456.784 305.822C456.59 305.902 456.382 305.944 456.172 305.944C455.961 305.944 455.753 305.902 455.559 305.822C455.365 305.742 455.189 305.624 455.04 305.475L449.454 299.89C449.311 299.752 449.196 299.586 449.118 299.403C449.039 299.22 448.998 299.023 448.996 298.824C448.994 298.625 449.032 298.427 449.108 298.243C449.183 298.059 449.295 297.891 449.435 297.75C449.576 297.61 449.744 297.498 449.928 297.423C450.112 297.347 450.31 297.309 450.509 297.311C450.708 297.313 450.905 297.354 451.088 297.433C451.271 297.512 451.437 297.626 451.575 297.769L456.171 302.365L466.424 292.111C466.563 291.972 466.729 291.861 466.911 291.786C467.093 291.71 467.288 291.671 467.485 291.671C467.682 291.671 467.877 291.71 468.059 291.786C468.241 291.861 468.407 291.972 468.546 292.111Z" fill="#FABD2F"/>
</g>
<rect x="249" y="102" width="180" height="11" rx="5.5" fill="#F3E2C3"/>
<rect x="249" y="102" width="180" height="11" rx="5.5" fill="#DFCEAF"/>
<rect x="249" y="122" width="101" height="11" rx="5.5" fill="#F3E2C3"/>
<rect x="249" y="122" width="101" height="11" rx="5.5" fill="#DFCEAF"/>
<path d="M103.697 134C103.145 134 102.697 133.552 102.697 133V128.718C102.697 128.166 103.145 127.718 103.697 127.718H108.234C108.786 127.718 109.234 127.271 109.234 126.718V113.915C109.234 113.102 108.314 112.629 107.652 113.101L104.279 115.511C103.617 115.984 102.697 115.511 102.697 114.698V109.515C102.697 109.192 102.853 108.89 103.115 108.702L109.015 104.477C109.185 104.355 109.388 104.29 109.597 104.29H115.916C116.468 104.29 116.916 104.738 116.916 105.29V126.718C116.916 127.271 117.363 127.718 117.916 127.718H121.221C121.773 127.718 122.221 128.166 122.221 128.718V133C122.221 133.552 121.773 134 121.221 134H103.697Z" fill="white"/>
<path d="M136.637 134.552C134.967 134.552 133.411 134.283 131.968 133.745C130.525 133.179 129.266 132.288 128.191 131.071C127.115 129.855 126.267 128.27 125.644 126.318C125.05 124.337 124.753 121.946 124.753 119.145V118.296C124.753 115.693 125.05 113.472 125.644 111.632C126.267 109.793 127.115 108.294 128.191 107.133C129.266 105.973 130.525 105.125 131.968 104.587C133.411 104.021 134.967 103.738 136.637 103.738C138.306 103.738 139.863 104.021 141.306 104.587C142.749 105.125 144.008 105.973 145.083 107.133C146.158 108.294 146.993 109.793 147.587 111.632C148.21 113.472 148.521 115.693 148.521 118.296V119.145C148.521 121.946 148.21 124.337 147.587 126.318C146.993 128.27 146.158 129.855 145.083 131.071C144.008 132.288 142.749 133.179 141.306 133.745C139.863 134.283 138.306 134.552 136.637 134.552ZM136.637 128.27C137.203 128.27 137.74 128.129 138.25 127.846C138.759 127.563 139.198 127.082 139.565 126.403C139.962 125.695 140.273 124.762 140.499 123.601C140.726 122.413 140.839 120.928 140.839 119.145V118.296C140.839 116.202 140.655 114.561 140.287 113.373C139.919 112.156 139.41 111.293 138.759 110.784C138.108 110.274 137.401 110.02 136.637 110.02C135.873 110.02 135.166 110.274 134.515 110.784C133.892 111.293 133.383 112.156 132.987 113.373C132.591 114.561 132.393 116.202 132.393 118.296V119.145C132.393 120.928 132.506 122.413 132.732 123.601C132.958 124.762 133.27 125.695 133.666 126.403C134.09 127.082 134.543 127.563 135.024 127.846C135.533 128.129 136.071 128.27 136.637 128.27Z" fill="white"/>
<path d="M164.242 134.552C162.572 134.552 161.016 134.283 159.573 133.745C158.13 133.179 156.871 132.288 155.795 131.071C154.72 129.855 153.871 128.27 153.249 126.318C152.655 124.337 152.357 121.946 152.357 119.145V118.296C152.357 115.693 152.655 113.472 153.249 111.632C153.871 109.793 154.72 108.294 155.795 107.133C156.871 105.973 158.13 105.125 159.573 104.587C161.016 104.021 162.572 103.738 164.242 103.738C165.911 103.738 167.467 104.021 168.91 104.587C170.353 105.125 171.613 105.973 172.688 107.133C173.763 108.294 174.598 109.793 175.192 111.632C175.814 113.472 176.126 115.693 176.126 118.296V119.145C176.126 121.946 175.814 124.337 175.192 126.318C174.598 128.27 173.763 129.855 172.688 131.071C171.613 132.288 170.353 133.179 168.91 133.745C167.467 134.283 165.911 134.552 164.242 134.552ZM164.242 128.27C164.807 128.27 165.345 128.129 165.854 127.846C166.364 127.563 166.802 127.082 167.17 126.403C167.566 125.695 167.878 124.762 168.104 123.601C168.33 122.413 168.443 120.928 168.443 119.145V118.296C168.443 116.202 168.259 114.561 167.892 113.373C167.524 112.156 167.014 111.293 166.364 110.784C165.713 110.274 165.006 110.02 164.242 110.02C163.478 110.02 162.77 110.274 162.119 110.784C161.497 111.293 160.988 112.156 160.591 113.373C160.195 114.561 159.997 116.202 159.997 118.296V119.145C159.997 120.928 160.11 122.413 160.337 123.601C160.563 124.762 160.874 125.695 161.271 126.403C161.695 127.082 162.148 127.563 162.629 127.846C163.138 128.129 163.676 128.27 164.242 128.27Z" fill="white"/>
<path d="M186.116 118.848C183.824 118.848 182.014 118.197 180.684 116.895C179.354 115.594 178.689 113.868 178.689 111.717V111.293C178.689 109.85 178.986 108.605 179.58 107.558C180.174 106.483 181.023 105.648 182.127 105.054C183.259 104.46 184.588 104.162 186.116 104.162C187.644 104.162 188.96 104.46 190.064 105.054C191.195 105.648 192.058 106.469 192.653 107.515C193.247 108.562 193.544 109.822 193.544 111.293V111.717C193.544 113.868 192.879 115.594 191.549 116.895C190.219 118.197 188.408 118.848 186.116 118.848ZM186.116 113.84C186.512 113.84 186.838 113.684 187.093 113.373C187.347 113.061 187.475 112.51 187.475 111.717V111.293C187.475 110.501 187.347 109.949 187.093 109.638C186.866 109.326 186.541 109.171 186.116 109.171C185.72 109.171 185.395 109.326 185.14 109.638C184.885 109.949 184.758 110.501 184.758 111.293V111.717C184.758 112.51 184.871 113.061 185.098 113.373C185.352 113.684 185.692 113.84 186.116 113.84ZM184.195 134.424C183.39 134.424 182.915 133.523 183.37 132.859L202.371 105.149C202.558 104.877 202.866 104.714 203.196 104.714H207.562C208.367 104.714 208.842 105.616 208.387 106.28L189.385 133.99C189.199 134.262 188.89 134.424 188.561 134.424H184.195ZM205.64 134.976C203.348 134.976 201.537 134.325 200.207 133.024C198.878 131.722 198.213 129.996 198.213 127.846V127.421C198.213 125.978 198.51 124.733 199.104 123.686C199.698 122.611 200.547 121.776 201.651 121.182C202.782 120.588 204.112 120.291 205.64 120.291C207.168 120.291 208.484 120.588 209.587 121.182C210.719 121.776 211.582 122.597 212.176 123.644C212.771 124.691 213.068 125.95 213.068 127.421V127.846C213.068 129.996 212.403 131.722 211.073 133.024C209.743 134.325 207.932 134.976 205.64 134.976ZM205.64 129.968C206.036 129.968 206.362 129.812 206.616 129.501C206.871 129.19 206.998 128.638 206.998 127.846V127.421C206.998 126.629 206.871 126.077 206.616 125.766C206.39 125.455 206.065 125.299 205.64 125.299C205.244 125.299 204.919 125.455 204.664 125.766C204.409 126.077 204.282 126.629 204.282 127.421V127.846C204.282 128.638 204.395 129.19 204.622 129.501C204.876 129.812 205.216 129.968 205.64 129.968Z" fill="white"/>
</g>
<defs>
<clipPath id="clip0_299_9580">
<rect width="571" height="300" rx="15" fill="white"/>
</clipPath>
<clipPath id="clip1_299_9580">
<rect width="24" height="24" fill="white" transform="translate(90 187)"/>
</clipPath>
<clipPath id="clip2_299_9580">
<rect width="24" height="24" fill="white" transform="translate(161 187)"/>
</clipPath>
<clipPath id="clip3_299_9580">
<rect width="24" height="24" fill="white" transform="translate(233 187)"/>
</clipPath>
<clipPath id="clip4_299_9580">
<rect width="24" height="24" fill="white" transform="translate(304 187)"/>
</clipPath>
<clipPath id="clip5_299_9580">
<rect width="24" height="24" fill="white" transform="translate(376 187)"/>
</clipPath>
<clipPath id="clip6_299_9580">
<rect width="24" height="24" fill="white" transform="translate(447 187)"/>
</clipPath>
<clipPath id="clip7_299_9580">
<rect width="24" height="24" fill="white" transform="translate(90 237)"/>
</clipPath>
<clipPath id="clip8_299_9580">
<rect width="24" height="24" fill="white" transform="translate(161 237)"/>
</clipPath>
<clipPath id="clip9_299_9580">
<rect width="24" height="24" fill="white" transform="translate(233 237)"/>
</clipPath>
<clipPath id="clip10_299_9580">
<rect width="24" height="24" fill="white" transform="translate(304 237)"/>
</clipPath>
<clipPath id="clip11_299_9580">
<rect width="24" height="24" fill="white" transform="translate(376 237)"/>
</clipPath>
<clipPath id="clip12_299_9580">
<rect width="24" height="24" fill="white" transform="translate(447 237)"/>
</clipPath>
<clipPath id="clip13_299_9580">
<rect width="24" height="24" fill="white" transform="translate(90 287)"/>
</clipPath>
<clipPath id="clip14_299_9580">
<rect width="24" height="24" fill="white" transform="translate(161 287)"/>
</clipPath>
<clipPath id="clip15_299_9580">
<rect width="24" height="24" fill="white" transform="translate(233 287)"/>
</clipPath>
<clipPath id="clip16_299_9580">
<rect width="24" height="24" fill="white" transform="translate(304 287)"/>
</clipPath>
<clipPath id="clip17_299_9580">
<rect width="24" height="24" fill="white" transform="translate(376 287)"/>
</clipPath>
<clipPath id="clip18_299_9580">
<rect width="24" height="24" fill="white" transform="translate(447 287)"/>
</clipPath>
</defs>
</svg>
