<svg width="162" height="48" viewBox="0 0 162 48" fill="none" xmlns="http://www.w3.org/2000/svg"><g clip-path="url(#clip0_303_3715)"><path d="M155.686 0H5.98791C2.68088 0 0 2.68088 0 5.98791V41.9154C0 45.2224 2.68088 47.9033 5.98791 47.9033H155.686C158.993 47.9033 161.674 45.2224 161.674 41.9154V5.98791C161.674 2.68088 158.993 0 155.686 0Z" fill="black"/><path d="M155.686 0.958066C157.02 0.958066 158.299 1.48799 159.242 2.43127C160.186 3.37455 160.716 4.65391 160.716 5.98791V41.9154C160.716 43.2494 160.186 44.5287 159.242 45.472C158.299 46.4153 157.02 46.9452 155.686 46.9452H5.98791C4.65391 46.9452 3.37455 46.4153 2.43127 45.472C1.48799 44.5287 0.958066 43.2494 0.958066 41.9154V5.98791C0.958066 4.65391 1.48799 3.37455 2.43127 2.43127C3.37455 1.48799 4.65391 0.958066 5.98791 0.958066H155.686ZM155.686 0H5.98791C4.39982 0 2.87677 0.630867 1.75382 1.75382C0.630868 2.87677 0 4.39982 0 5.98791V41.9154C0 43.5035 0.630868 45.0265 1.75382 46.1495C2.87677 47.2724 4.39982 47.9033 5.98791 47.9033H155.686C157.274 47.9033 158.797 47.2724 159.92 46.1495C161.043 45.0265 161.674 43.5035 161.674 41.9154V5.98791C161.674 4.39982 161.043 2.87677 159.92 1.75382C158.797 0.630867 157.274 0 155.686 0Z" fill="#A6A6A6"/><path d="M81.6033 26.0477C80.5943 26.0501 79.6086 26.3516 78.771 26.9142C77.9333 27.4767 77.2813 28.275 76.8974 29.2081C76.5134 30.1413 76.4148 31.1673 76.614 32.1564C76.8132 33.1456 77.3012 34.0535 78.0163 34.7653C78.7315 35.4771 79.6417 35.9609 80.6318 36.1554C81.6218 36.3499 82.6474 36.2465 83.5787 35.8582C84.51 35.4698 85.3052 34.8141 85.8638 33.9738C86.4225 33.1335 86.7194 32.1465 86.717 31.1374C86.7268 30.4643 86.601 29.7961 86.3471 29.1726C86.0933 28.5491 85.7166 27.9831 85.2395 27.5082C84.7623 27.0333 84.1945 26.6592 83.5698 26.4083C82.9452 26.1574 82.2764 26.0348 81.6033 26.0477ZM81.6033 34.2272C80.9849 34.2705 80.3677 34.1267 79.832 33.8145C79.2964 33.5023 78.867 33.0363 78.5998 32.4769C78.3325 31.9175 78.2398 31.2906 78.3335 30.6777C78.4273 30.0649 78.7032 29.4944 79.1255 29.0405C79.5477 28.5866 80.0968 28.2702 80.7013 28.1324C81.3057 27.9947 81.9376 28.042 82.5149 28.2681C83.0921 28.4943 83.588 28.8889 83.938 29.4006C84.288 29.9123 84.476 30.5175 84.4775 31.1374C84.4968 31.5303 84.4372 31.923 84.3023 32.2924C84.1674 32.6619 83.9599 33.0005 83.6921 33.2885C83.4242 33.5765 83.1014 33.8079 82.7426 33.9691C82.3839 34.1303 81.9965 34.2181 81.6033 34.2272ZM70.4418 26.0477C69.4328 26.0501 68.4472 26.3516 67.6095 26.9142C66.7719 27.4767 66.1198 28.275 65.7359 29.2081C65.352 30.1413 65.2533 31.1673 65.4525 32.1564C65.6517 33.1456 66.1397 34.0535 66.8549 34.7653C67.57 35.4771 68.4802 35.9609 69.4703 36.1554C70.4604 36.3499 71.4859 36.2465 72.4172 35.8582C73.3485 35.4698 74.1438 34.8141 74.7024 33.9738C75.261 33.1335 75.5579 32.1465 75.5555 31.1374C75.5653 30.4643 75.4395 29.7961 75.1857 29.1726C74.9318 28.5491 74.5551 27.9831 74.078 27.5082C73.6009 27.0333 73.0331 26.6592 72.4084 26.4083C71.7837 26.1574 71.1149 26.0348 70.4418 26.0477ZM70.4418 34.2272C69.8234 34.2705 69.2062 34.1267 68.6706 33.8145C68.1349 33.5023 67.7056 33.0363 67.4383 32.4769C67.1711 31.9175 67.0783 31.2906 67.1721 30.6777C67.2658 30.0649 67.5417 29.4944 67.964 29.0405C68.3863 28.5866 68.9353 28.2702 69.5398 28.1324C70.1443 27.9947 70.7762 28.042 71.3534 28.2681C71.9307 28.4943 72.4265 28.8889 72.7765 29.4006C73.1265 29.9123 73.3145 30.5175 73.316 31.1374C73.3353 31.5303 73.2758 31.923 73.1409 32.2924C73.006 32.6619 72.7985 33.0005 72.5306 33.2885C72.2627 33.5765 71.9399 33.8079 71.5812 33.9691C71.2224 34.1303 70.835 34.2181 70.4418 34.2272ZM57.1726 27.6165V29.7722H62.3462C62.2651 30.7875 61.843 31.7456 61.1486 32.4907C60.6296 33.0195 60.0054 33.4334 59.3164 33.7057C58.6274 33.978 57.8889 34.1026 57.1487 34.0715C55.6241 34.0715 54.162 33.4659 53.0839 32.3879C52.0059 31.3098 51.4003 29.8477 51.4003 28.3231C51.4003 26.7986 52.0059 25.3364 53.0839 24.2584C54.162 23.1804 55.6241 22.5747 57.1487 22.5747C58.6103 22.553 60.0215 23.108 61.0767 24.1196L62.5977 22.5987C61.8839 21.8927 61.0364 21.3363 60.1049 20.962C59.1733 20.5878 58.1764 20.4032 57.1726 20.4191C56.108 20.3776 55.0459 20.5516 54.0501 20.9304C53.0542 21.3093 52.1451 21.8852 51.3772 22.6238C50.6093 23.3624 49.9984 24.2485 49.5811 25.2288C49.1639 26.2091 48.9488 27.2636 48.9488 28.3291C48.9488 29.3946 49.1639 30.4491 49.5811 31.4294C49.9984 32.4098 50.6093 33.2958 51.3772 34.0344C52.1451 34.773 53.0542 35.349 54.0501 35.7278C55.0459 36.1067 56.108 36.2806 57.1726 36.2391C58.1971 36.2801 59.2186 36.1038 60.1701 35.722C61.1216 35.3401 61.9815 34.7613 62.6935 34.0236C63.9511 32.6421 64.6212 30.8251 64.5617 28.9578C64.566 28.5084 64.5299 28.0595 64.4539 27.6165H57.1726ZM111.435 29.2932C111.123 28.3743 110.539 27.572 109.76 26.9924C108.982 26.4129 108.046 26.0834 107.076 26.0477C106.421 26.0464 105.772 26.1795 105.171 26.4388C104.569 26.698 104.027 27.0779 103.578 27.5549C103.129 28.0319 102.783 28.596 102.561 29.2122C102.338 29.8284 102.245 30.4836 102.286 31.1374C102.275 32.2307 102.619 33.2978 103.265 34.1796C103.912 35.0614 104.826 35.7104 105.871 36.0297C106.917 36.3491 108.038 36.3216 109.067 35.9514C110.095 35.5812 110.977 34.8881 111.579 33.9757L109.842 32.7781C109.583 33.2096 109.216 33.5659 108.777 33.8117C108.338 34.0575 107.842 34.1842 107.339 34.1793C106.82 34.2007 106.307 34.0646 105.867 33.7889C105.426 33.5132 105.08 33.1107 104.872 32.6344L111.687 29.8201L111.435 29.2932ZM104.489 30.9937C104.465 30.6217 104.515 30.2486 104.637 29.8963C104.758 29.5439 104.949 29.2194 105.198 28.9417C105.447 28.664 105.748 28.4387 106.085 28.279C106.422 28.1193 106.787 28.0285 107.16 28.0117C107.546 27.9882 107.93 28.079 108.264 28.2729C108.599 28.4668 108.869 28.755 109.04 29.1015L104.489 30.9937ZM98.9563 35.9278H101.196V20.958H98.9563V35.9278ZM95.2917 27.1854H95.2078C94.8733 26.8044 94.4604 26.5002 93.9974 26.2935C93.5344 26.0868 93.0323 25.9825 92.5253 25.9878C91.2165 26.0513 89.9824 26.6159 89.0786 27.5646C88.1748 28.5132 87.6707 29.7733 87.6707 31.0836C87.6707 32.3938 88.1748 33.6539 89.0786 34.6025C89.9824 35.5512 91.2165 36.1158 92.5253 36.1793C93.033 36.1894 93.5367 36.0874 94.0004 35.8804C94.4642 35.6733 94.8764 35.3665 95.2078 34.9817H95.2917V35.7122C95.2917 37.6643 94.2498 38.7062 92.5732 38.7062C92.0131 38.6939 91.4693 38.5154 91.0109 38.1934C90.5524 37.8714 90.2 37.4205 89.9984 36.8978L88.0583 37.7002C88.417 38.6011 89.0406 39.3719 89.8467 39.9107C90.6529 40.4496 91.6036 40.7311 92.5732 40.7181C95.1959 40.7181 97.3635 39.1732 97.3635 35.4128V26.3471H95.2917V27.1854ZM92.7169 34.2272C91.9322 34.1783 91.1957 33.8321 90.6574 33.2592C90.1191 32.6862 89.8194 31.9296 89.8194 31.1434C89.8194 30.3573 90.1191 29.6006 90.6574 29.0277C91.1957 28.4548 91.9322 28.1086 92.7169 28.0597C93.1004 28.0762 93.4767 28.1697 93.8233 28.3347C94.1699 28.4996 94.4798 28.7326 94.7346 29.0197C94.9893 29.3069 95.1837 29.6423 95.3061 30.0062C95.4286 30.37 95.4766 30.7547 95.4474 31.1374C95.48 31.5215 95.4345 31.9082 95.3134 32.2741C95.1924 32.6401 94.9984 32.9777 94.7431 33.2665C94.4879 33.5553 94.1767 33.7894 93.8285 33.9545C93.4802 34.1196 93.102 34.2124 92.7169 34.2272ZM121.926 20.958H116.561V35.9278H118.8V30.2512H121.926C122.564 30.2971 123.205 30.211 123.809 29.9982C124.412 29.7855 124.965 29.4507 125.434 29.0147C125.902 28.5788 126.276 28.051 126.531 27.4643C126.787 26.8775 126.918 26.2445 126.918 25.6046C126.918 24.9647 126.787 24.3317 126.531 23.745C126.276 23.1583 125.902 22.6305 125.434 22.1945C124.965 21.7585 124.412 21.4237 123.809 21.211C123.205 20.9983 122.564 20.9121 121.926 20.958ZM121.926 28.1435H118.8V23.0418H121.974C122.31 23.0418 122.644 23.1081 122.955 23.2369C123.266 23.3657 123.548 23.5544 123.786 23.7924C124.024 24.0304 124.213 24.3129 124.342 24.6239C124.47 24.9348 124.537 25.2681 124.537 25.6046C124.537 25.9412 124.47 26.2744 124.342 26.5854C124.213 26.8963 124.024 27.1788 123.786 27.4168C123.548 27.6548 123.266 27.8436 122.955 27.9723C122.644 28.1011 122.31 28.1674 121.974 28.1674L121.926 28.1435ZM135.746 25.9998C134.93 25.9495 134.118 26.1394 133.409 26.5459C132.701 26.9525 132.126 27.5578 131.758 28.2872L133.734 29.1135C133.934 28.7535 134.233 28.4591 134.597 28.2657C134.96 28.0723 135.372 27.9882 135.782 28.0237C136.066 27.9905 136.354 28.0143 136.629 28.0936C136.904 28.1729 137.161 28.3062 137.384 28.4856C137.607 28.6651 137.792 28.8872 137.928 29.1389C138.064 29.3907 138.149 29.667 138.177 29.9518V30.0955C137.457 29.717 136.655 29.5197 135.842 29.5207C133.71 29.5207 131.531 30.7183 131.531 32.8979C131.552 33.3612 131.666 33.8155 131.866 34.2338C132.066 34.6522 132.348 35.0261 132.695 35.3333C133.043 35.6405 133.448 35.8748 133.888 36.0221C134.328 36.1695 134.793 36.227 135.255 36.1912C135.817 36.2223 136.377 36.1034 136.878 35.8467C137.379 35.5899 137.802 35.2046 138.105 34.7302H138.177V35.9278H140.333V30.1674C140.333 27.5447 138.345 26.0238 135.794 26.0238L135.746 25.9998ZM135.471 34.2033C134.74 34.2033 133.722 33.832 133.722 32.9338C133.722 31.7362 134.992 31.3291 136.117 31.3291C136.829 31.3115 137.532 31.4852 138.153 31.832C138.078 32.4824 137.77 33.0835 137.285 33.5239C136.801 33.9643 136.173 34.2142 135.518 34.2272L135.471 34.2033ZM148.189 26.3471L145.626 32.838H145.554L142.896 26.3471H140.5L144.488 35.4248L142.213 40.4666H144.548L150.68 26.3471H148.189ZM128.07 35.9278H130.297V20.958H128.07V35.9278Z" fill="white"/><path d="M12.5028 9.02988C12.1081 9.49648 11.9068 10.0963 11.9399 10.7065V37.197C11.8992 37.8082 12.1015 38.4108 12.5028 38.8736L12.5866 38.9694L27.4246 24.1314V23.7721L12.5866 8.94604L12.5028 9.02988Z" fill="url(#paint0_linear_303_3715)"/><path d="M32.3346 29.0777L27.4245 24.1317V23.7724L32.3346 18.8264L32.4424 18.8983L38.3225 22.2276C39.9991 23.1736 39.9991 24.7305 38.3225 25.6886L32.4664 29.0178L32.3346 29.0777Z" fill="url(#paint1_linear_303_3715)"/><path d="M32.4785 29.0055L27.4247 23.9517L12.5028 38.8735C12.8412 39.1748 13.2744 39.3481 13.7272 39.3634C14.1799 39.3787 14.6238 39.235 14.9818 38.9574L32.4785 29.0055Z" fill="url(#paint2_linear_303_3715)"/><path d="M32.4785 18.898L14.9818 8.95808C14.6262 8.67655 14.1826 8.52942 13.7292 8.54256C13.2758 8.5557 12.8416 8.72828 12.5028 9.02994L27.4247 23.9518L32.4785 18.898Z" fill="url(#paint3_linear_303_3715)"/><path opacity="0.2" d="M32.3348 28.8977L14.9818 38.7778C14.6368 39.0381 14.2164 39.179 13.7842 39.179C13.352 39.179 12.9316 39.0381 12.5866 38.7778L12.5028 38.8616L12.5866 38.9574C12.9316 39.2178 13.352 39.3586 13.7842 39.3586C14.2164 39.3586 14.6368 39.2178 14.9818 38.9574L32.4785 29.0055L32.3348 28.8977Z" fill="black"/><path opacity="0.12" d="M12.5028 38.7059C12.1181 38.2309 11.9296 37.6268 11.9758 37.0173V37.197C11.9351 37.8082 12.1374 38.4108 12.5387 38.8736L12.6225 38.7898L12.5028 38.7059Z" fill="black"/><path opacity="0.12" d="M38.3226 25.5085L32.3347 28.8977L32.4425 29.0055L38.3226 25.6762C38.6697 25.5294 38.9708 25.2918 39.1942 24.9883C39.4176 24.6848 39.5551 24.3267 39.5921 23.9517C39.5172 24.2925 39.3633 24.6109 39.1428 24.8813C38.9223 25.1517 38.6414 25.3666 38.3226 25.5085Z" fill="black"/><path opacity="0.25" d="M14.9817 9.12553L38.3226 22.3947C38.6413 22.5367 38.9223 22.7515 39.1428 23.0219C39.3633 23.2924 39.5172 23.6108 39.592 23.9516C39.555 23.5766 39.4176 23.2185 39.1942 22.915C38.9708 22.6115 38.6697 22.3738 38.3226 22.2271L14.9817 8.95787C13.3171 7.9998 11.9398 8.79021 11.9398 10.7063V10.886C11.9758 8.96984 13.3171 8.17944 14.9817 9.12553Z" fill="white"/><path d="M50.4302 17.0897H49.556V14.6946H50.2985C50.6325 14.3319 50.8838 13.9009 51.0347 13.4315C51.1857 12.9621 51.2328 12.4655 51.1727 11.976V8.3833H55.963V14.6826H56.7654V17.0778H55.8792V15.5688H50.4302V17.0897ZM52.0948 11.976C52.1483 12.938 51.9104 13.8938 51.4122 14.7185H55.005V9.26951H52.0948V11.976Z" fill="white" stroke="white" stroke-width="0.188819" stroke-miterlimit="10"/><path d="M63.963 14.6345C63.6181 14.9803 63.2084 15.2547 62.7573 15.4419C62.3062 15.6291 61.8227 15.7254 61.3343 15.7254C60.8459 15.7254 60.3623 15.6291 59.9112 15.4419C59.4602 15.2547 59.0504 14.9803 58.7056 14.6345C58.0204 13.919 57.638 12.9665 57.638 11.9759C57.638 10.9852 58.0204 10.0328 58.7056 9.31725C59.0504 8.97144 59.4602 8.69708 59.9112 8.50988C60.3623 8.32268 60.8459 8.22632 61.3343 8.22632C61.8227 8.22632 62.3062 8.32268 62.7573 8.50988C63.2084 8.69708 63.6181 8.97144 63.963 9.31725C64.3089 9.66694 64.5815 10.0823 64.7645 10.5389C64.9475 10.9955 65.0374 11.484 65.0288 11.9759C65.043 12.4684 64.9557 12.9586 64.7723 13.416C64.5889 13.8734 64.3135 14.2881 63.963 14.6345ZM59.3762 14.0357C59.6286 14.2978 59.932 14.5053 60.2678 14.6454C60.6036 14.7855 60.9645 14.8551 61.3283 14.8501C61.6924 14.8573 62.054 14.7886 62.39 14.6484C62.7261 14.5082 63.0293 14.2995 63.2803 14.0357C63.7971 13.4742 64.0839 12.739 64.0839 11.9759C64.0839 11.2128 63.7971 10.4776 63.2803 9.91604C63.0293 9.65222 62.7261 9.44356 62.39 9.30335C62.054 9.16315 61.6924 9.09446 61.3283 9.10168C60.9645 9.09663 60.6036 9.1663 60.2678 9.30638C59.932 9.44646 59.6286 9.65396 59.3762 9.91604C58.8671 10.4813 58.5853 11.2151 58.5853 11.9759C58.5853 12.7366 58.8671 13.4705 59.3762 14.0357Z" fill="white" stroke="white" stroke-width="0.188819" stroke-miterlimit="10"/><path d="M69.6754 15.7244C69.1908 15.732 68.7097 15.6415 68.2611 15.4583C67.8124 15.2752 67.4054 15.0031 67.0646 14.6586C66.3736 13.9364 65.9879 12.9755 65.9879 11.976C65.9879 10.9765 66.3736 10.0156 67.0646 9.29341C67.411 8.94292 67.8258 8.66744 68.2832 8.48408C68.7405 8.30072 69.2307 8.2134 69.7233 8.22756C70.2246 8.21337 70.7226 8.31389 71.1792 8.52143C71.6358 8.72898 72.039 9.03808 72.358 9.42514L71.7232 10.0479C71.488 9.74539 71.1835 9.50378 70.8355 9.34332C70.4875 9.18286 70.1061 9.10825 69.7233 9.12574C69.3546 9.11634 68.988 9.1827 68.6461 9.32072C68.3041 9.45873 67.9941 9.66547 67.7353 9.92812C67.2194 10.4948 66.9335 11.2336 66.9335 11.9999C66.9335 12.7663 67.2194 13.5051 67.7353 14.0718C67.9941 14.3344 68.3041 14.5411 68.6461 14.6792C68.988 14.8172 69.3546 14.8835 69.7233 14.8741C70.1348 14.8624 70.5388 14.761 70.907 14.5769C71.2752 14.3928 71.5987 14.1305 71.855 13.8083L72.5017 14.443C72.1736 14.8362 71.7653 15.1547 71.3041 15.3771C70.7946 15.6151 70.2376 15.7339 69.6754 15.7244Z" fill="white" stroke="white" stroke-width="0.188819" stroke-miterlimit="10"/><path d="M76.262 15.5688H75.3399V9.26951H73.3279V8.3833H78.262V9.26951H76.262V15.5688Z" fill="white" stroke="white" stroke-width="0.188819" stroke-miterlimit="10"/><path d="M84.6092 8.3833L81.8906 14.4431C81.8247 14.686 81.7067 14.9117 81.5449 15.1046C81.3831 15.2974 81.1812 15.4528 80.9534 15.5598C80.7256 15.6669 80.4772 15.7232 80.2254 15.7247C79.9737 15.7263 79.7246 15.6731 79.4955 15.5688L79.735 14.7185C79.8815 14.8009 80.046 14.8461 80.214 14.8502C80.3913 14.8591 80.5669 14.8131 80.717 14.7185C80.8625 14.5975 80.9739 14.4406 81.0404 14.2634L81.3038 13.6886L78.9087 8.3833H79.9985L81.7709 12.503L83.5194 8.3833H84.6092Z" fill="white" stroke="white" stroke-width="0.188819" stroke-miterlimit="10"/><path d="M85.6512 15.5688V8.3833H90.8487V15.5688H89.9265V9.26951H86.5733V15.5688H85.6512Z" fill="white" stroke="white" stroke-width="0.188819" stroke-miterlimit="10"/><path d="M92.4893 15.5688V8.3833H93.4115V11.4611H97.0042V8.3833H97.9383V15.5688H97.0042V12.3233H93.4115V15.5688H92.4893Z" fill="white" stroke="white" stroke-width="0.188819" stroke-miterlimit="10"/><path d="M105.459 14.6345C105.113 14.9807 104.702 15.2553 104.25 15.4427C103.798 15.63 103.314 15.7265 102.824 15.7265C102.335 15.7265 101.85 15.63 101.398 15.4427C100.946 15.2553 100.536 14.9807 100.19 14.6345C99.5046 13.919 99.1221 12.9665 99.1221 11.9759C99.1221 10.9852 99.5046 10.0328 100.19 9.31725C100.535 8.97144 100.944 8.69708 101.395 8.50988C101.846 8.32268 102.33 8.22632 102.818 8.22632C103.307 8.22632 103.79 8.32268 104.241 8.50988C104.693 8.69708 105.102 8.97144 105.447 9.31725C106.127 10.0356 106.506 10.9869 106.506 11.9759C106.506 12.9648 106.127 13.9162 105.447 14.6345H105.459ZM100.872 14.0357C101.123 14.2995 101.427 14.5082 101.763 14.6484C102.099 14.7886 102.46 14.8573 102.824 14.8501C103.188 14.8551 103.549 14.7855 103.885 14.6454C104.221 14.5053 104.524 14.2978 104.776 14.0357C105.286 13.4705 105.567 12.7366 105.567 11.9759C105.567 11.2151 105.286 10.4813 104.776 9.91604C104.524 9.65396 104.221 9.44646 103.885 9.30638C103.549 9.1663 103.188 9.09663 102.824 9.10168C102.46 9.09446 102.099 9.16315 101.763 9.30335C101.427 9.44356 101.123 9.65222 100.872 9.91604C100.356 10.4776 100.069 11.2128 100.069 11.9759C100.069 12.739 100.356 13.4742 100.872 14.0357Z" fill="white" stroke="white" stroke-width="0.188819" stroke-miterlimit="10"/><path d="M110.285 15.5687V8.38317H112.884C113.423 8.37776 113.944 8.57429 114.345 8.93405C114.545 9.10772 114.705 9.32324 114.812 9.56537C114.92 9.8075 114.973 10.0703 114.968 10.3352C114.971 10.6578 114.879 10.9742 114.704 11.2454C114.528 11.5025 114.283 11.7056 113.998 11.8322C114.344 11.9504 114.647 12.1668 114.872 12.4549C115.092 12.7484 115.21 13.106 115.207 13.4729C115.214 13.749 115.159 14.023 115.047 14.2755C114.935 14.528 114.769 14.7528 114.561 14.9339C114.145 15.3207 113.596 15.5311 113.028 15.5208L110.285 15.5687ZM111.208 11.461H112.884C113.041 11.47 113.198 11.4435 113.343 11.3834C113.488 11.3232 113.618 11.231 113.722 11.1137C113.926 10.9147 114.042 10.6435 114.046 10.3592C114.057 10.074 113.959 9.79535 113.77 9.58075C113.67 9.46906 113.546 9.38107 113.407 9.32309C113.268 9.26511 113.118 9.23859 112.968 9.24542H111.243L111.208 11.461ZM111.208 14.6824H113.076C113.238 14.6879 113.399 14.6574 113.548 14.5933C113.697 14.5291 113.831 14.4328 113.938 14.3112C114.145 14.0903 114.26 13.7994 114.261 13.4968C114.254 13.1968 114.134 12.9105 113.926 12.6945C113.811 12.5732 113.671 12.4776 113.516 12.4136C113.362 12.3497 113.195 12.3189 113.028 12.3232H111.208V14.6824Z" fill="white" stroke="white" stroke-width="0.188819" stroke-miterlimit="10"/></g><defs><linearGradient id="paint0_linear_303_3715" x1="26.1073" y1="10.431" x2="6.01187" y2="30.5265" gradientUnits="userSpaceOnUse"><stop stop-color="#00A0FF"/><stop offset="0.01" stop-color="#00A1FF"/><stop offset="0.26" stop-color="#00BEFF"/><stop offset="0.51" stop-color="#00D2FF"/><stop offset="0.76" stop-color="#00DFFF"/><stop offset="1" stop-color="#00E3FF"/></linearGradient><linearGradient id="paint1_linear_303_3715" x1="40.5141" y1="23.9521" x2="11.5446" y2="23.9521" gradientUnits="userSpaceOnUse"><stop stop-color="#FFE000"/><stop offset="0.41" stop-color="#FFBD00"/><stop offset="0.78" stop-color="#FFA500"/><stop offset="1" stop-color="#FF9C00"/></linearGradient><linearGradient id="paint2_linear_303_3715" x1="29.736" y1="26.7061" x2="2.47904" y2="53.9511" gradientUnits="userSpaceOnUse"><stop stop-color="#FF3A44"/><stop offset="1" stop-color="#C31162"/></linearGradient><linearGradient id="paint3_linear_303_3715" x1="8.7424" y1="0.215731" x2="20.9098" y2="12.3832" gradientUnits="userSpaceOnUse"><stop stop-color="#32A071"/><stop offset="0.07" stop-color="#2DA771"/><stop offset="0.48" stop-color="#15CF74"/><stop offset="0.8" stop-color="#06E775"/><stop offset="1" stop-color="#00F076"/></linearGradient><clipPath id="clip0_303_3715"><rect width="161.674" height="47.9033" fill="white"/></clipPath></defs></svg>