<svg width="323" height="628" viewBox="0 0 323 628" fill="none" xmlns="http://www.w3.org/2000/svg"><path d="M21 0V48.6667C21 79.5946 46.0721 104.667 77 104.667H269.667C298.57 104.667 322 128.097 322 157V157C322 185.903 298.57 209.333 269.667 209.333H73.3333C44.4304 209.333 21 232.764 21 261.667V261.667C21 290.57 44.4304 314 73.3333 314H269.667C298.57 314 322 337.43 322 366.333V366.333C322 395.236 298.57 418.667 269.667 418.667H73.3333C44.4304 418.667 21 442.097 21 471V471C21 499.903 44.4304 523.333 73.3333 523.333H266C296.928 523.333 322 548.405 322 579.333V628" stroke="#AFAFAF" stroke-dasharray="12 12"/><rect x="5" y="50" width="52" height="52" rx="26" fill="#F2A93F"/><rect x="2.5" y="47.5" width="57" height="57" rx="28.5" stroke="#F2A93F" stroke-opacity="0.15" stroke-width="5"/><g clip-path="url(#clip0_303_3360)"><path d="M45.6829 69.5539C45.5436 69.5539 45.4006 69.5738 45.2579 69.6132L43.643 70.0581L41.9661 65.9731C41.4911 64.8157 40.0867 63.8743 38.8357 63.8743H23.1417C21.8906 63.8743 20.4863 64.8157 20.0114 65.9731L18.3366 70.0525L16.742 69.6132C16.6036 69.5745 16.4607 69.5545 16.3171 69.5539C15.554 69.5539 15 70.1369 15 70.9402V71.8924C15 72.8302 15.7628 73.593 16.7006 73.593H16.8832L16.6126 74.2523C16.1712 75.3277 15.8122 77.1479 15.8122 78.3101V86.4256C15.8122 87.3633 16.5752 88.1262 17.5128 88.1262H19.7339C20.6717 88.1262 21.4346 87.3633 21.4346 86.4256V84.3988H40.5431V86.4256C40.5431 87.3633 41.306 88.1262 42.2437 88.1262H44.4647C45.4025 88.1262 46.1653 87.3633 46.1653 86.4256V78.3101C46.1653 77.148 45.8063 75.3277 45.3648 74.2523L45.0942 73.593H45.2994C46.237 73.593 47 72.8302 47 71.8924V70.9402C47 70.1369 46.4461 69.5539 45.6829 69.5539ZM19.5561 72.6693L22.0928 66.4903C22.377 65.7981 23.2217 65.2318 23.97 65.2318H38.0077C38.756 65.2318 39.6007 65.7981 39.8848 66.4903L42.4214 72.6693C42.7056 73.3615 42.3259 73.9279 41.5776 73.9279H20.4C19.6518 73.9279 19.2721 73.3615 19.5561 72.6693ZM25.2189 80.4847C25.2189 80.8589 24.9128 81.165 24.5386 81.165H19.7198C19.3457 81.165 19.0396 80.8589 19.0396 80.4847V78.172C19.0396 77.7979 19.3457 77.4918 19.7198 77.4918H24.5386C24.9128 77.4918 25.2189 77.7979 25.2189 78.172V80.4847ZM42.8924 80.4847C42.8924 80.8589 42.5863 81.165 42.2122 81.165H37.3935C37.0193 81.165 36.7132 80.8589 36.7132 80.4847V78.172C36.7132 77.7979 37.0193 77.4918 37.3935 77.4918H42.2122C42.5863 77.4918 42.8924 77.7979 42.8924 78.172V80.4847Z" fill="white"/></g><defs><clipPath id="clip0_303_3360"><rect width="32" height="32" fill="white" transform="translate(15 60)"/></clipPath></defs></svg>