<svg width="303" height="628" viewBox="0 0 303 628" fill="none" xmlns="http://www.w3.org/2000/svg"><path d="M1 0V48.6667C1 79.5946 26.0721 104.667 57 104.667H249.667C278.57 104.667 302 128.097 302 157V157C302 185.903 278.57 209.333 249.667 209.333H53.3333C24.4304 209.333 1 232.764 1 261.667V261.667C1 290.57 24.4304 314 53.3333 314H249.667C278.57 314 302 337.43 302 366.333V366.333C302 395.236 278.57 418.667 249.667 418.667H53.3333C24.4304 418.667 1 442.097 1 471V471C1 499.903 24.4304 523.333 53.3333 523.333H246C276.928 523.333 302 548.405 302 579.333V628" stroke="#AFAFAF" stroke-dasharray="12 12"/></svg>