<svg width="20" height="21" viewBox="0 0 20 21" fill="none" xmlns="http://www.w3.org/2000/svg">
<path d="M6.66667 11.3333V14.6667M13.3333 9.66667V14.6667M10 6.33333V14.6667M6.5 18H13.5C14.9001 18 15.6002 18 16.135 17.7275C16.6054 17.4878 16.9878 17.1054 17.2275 16.635C17.5 16.1002 17.5 15.4001 17.5 14V7C17.5 5.59987 17.5 4.8998 17.2275 4.36502C16.9878 3.89462 16.6054 3.51217 16.135 3.27248C15.6002 3 14.9001 3 13.5 3H6.5C5.09987 3 4.3998 3 3.86502 3.27248C3.39462 3.51217 3.01217 3.89462 2.77248 4.36502C2.5 4.8998 2.5 5.59987 2.5 7V14C2.5 15.4001 2.5 16.1002 2.77248 16.635C3.01217 17.1054 3.39462 17.4878 3.86502 17.7275C4.3998 18 5.09987 18 6.5 18Z" stroke="#D09F00" stroke-width="2" stroke-linecap="round" stroke-linejoin="round"/>
</svg>
