<svg width="20" height="21" viewBox="0 0 20 21" fill="none" xmlns="http://www.w3.org/2000/svg">
<path d="M5.41667 17.1665H4.16667C3.24619 17.1665 2.5 16.4203 2.5 15.4998V3.83317C2.5 2.9127 3.24619 2.1665 4.16667 2.1665H15.8333C16.7538 2.1665 17.5 2.9127 17.5 3.83317V15.4998C17.5 16.4203 16.7538 17.1665 15.8333 17.1665H14.5833M10 16.3332C11.3807 16.3332 12.5 15.2139 12.5 13.8332C12.5 12.4525 11.3807 11.3332 10 11.3332C8.61929 11.3332 7.5 12.4525 7.5 13.8332C7.5 15.2139 8.61929 16.3332 10 16.3332ZM10 16.3332L10.0179 16.333L7.35723 18.9936L5.0002 16.6366L7.51638 14.1204M10 16.3332L12.6607 18.9936L15.0177 16.6366L12.5015 14.1204M7.5 5.49984H12.5M5.83333 8.4165H14.1667" stroke="#D09F00" stroke-width="2" stroke-linecap="round" stroke-linejoin="round"/>
</svg>
