<svg width="21" height="21" viewBox="0 0 21 21" fill="none" xmlns="http://www.w3.org/2000/svg">
<path d="M17.5833 6.56478L10.5 10.5M10.5 10.5L3.41664 6.56478M10.5 10.5L10.5 18.4167M18 13.8821V7.11786C18 6.83232 18 6.68956 17.9579 6.56222C17.9207 6.44958 17.8599 6.34618 17.7795 6.25893C17.6886 6.16032 17.5638 6.09099 17.3142 5.95232L11.1475 2.52639C10.9112 2.39509 10.793 2.32944 10.6679 2.30371C10.5571 2.28093 10.4429 2.28093 10.3321 2.30371C10.207 2.32944 10.0888 2.39509 9.85248 2.52639L3.68581 5.95232C3.43621 6.09099 3.3114 6.16032 3.22053 6.25894C3.14013 6.34618 3.07929 6.44958 3.04207 6.56223C3 6.68956 3 6.83233 3 7.11786V13.8821C3 14.1677 3 14.3104 3.04207 14.4378C3.07929 14.5504 3.14013 14.6538 3.22053 14.741C3.3114 14.8397 3.43621 14.909 3.68581 15.0477L9.85248 18.4736C10.0888 18.6049 10.207 18.6705 10.3321 18.6963C10.4429 18.719 10.5571 18.719 10.6679 18.6963C10.793 18.6705 10.9112 18.6049 11.1475 18.4736L17.3142 15.0477C17.5638 14.909 17.6886 14.8397 17.7795 14.741C17.8599 14.6538 17.9207 14.5504 17.9579 14.4378C18 14.3104 18 14.1677 18 13.8821Z" stroke="#D09F00" stroke-width="2" stroke-linecap="round" stroke-linejoin="round"/>
</svg>
