<svg width="37" height="45" viewBox="0 0 37 45" fill="none" xmlns="http://www.w3.org/2000/svg">
<path d="M27.8328 0.708984C27.8328 0.918057 27.8328 8.5492 27.8328 8.5492H36" stroke="#333333" stroke-width="0.92474" stroke-miterlimit="10"/>
<path d="M12.2428 18.8228C13.0108 18.8228 13.5708 19.0228 13.9228 19.4228C14.2828 19.8228 14.4628 20.4668 14.4628 21.3548C14.4628 21.7468 14.4268 22.1028 14.3548 22.4228C14.2828 22.7428 14.1588 23.0188 13.9828 23.2508C13.8068 23.4748 13.5748 23.6508 13.2868 23.7788C13.0068 23.9068 12.6508 23.9708 12.2188 23.9708H11.6908V27.1748H10.3948V18.8228H12.2428ZM11.6908 20.0468V22.7348H12.1468C12.5468 22.7348 12.8228 22.6228 12.9748 22.3988C13.1348 22.1668 13.2148 21.8228 13.2148 21.3668C13.2148 20.9588 13.1388 20.6388 12.9868 20.4068C12.8428 20.1668 12.5708 20.0468 12.1708 20.0468H11.6908ZM18.0281 21.0188C18.0281 20.7148 17.9681 20.4788 17.8481 20.3108C17.7361 20.1348 17.5161 20.0468 17.1881 20.0468H16.6361V25.9508H17.1881C17.5081 25.9508 17.7281 25.8668 17.8481 25.6988C17.9681 25.5308 18.0281 25.2868 18.0281 24.9668V21.0188ZM17.4161 18.8228C17.9121 18.8228 18.3041 18.9108 18.5921 19.0868C18.8801 19.2548 19.0801 19.5428 19.1921 19.9508C19.2801 20.2468 19.3241 20.6548 19.3241 21.1748C19.3321 21.6868 19.3361 22.2908 19.3361 22.9868C19.3361 23.6748 19.3321 24.2668 19.3241 24.7628C19.3161 25.2588 19.2641 25.6508 19.1681 25.9388C19.0161 26.4108 18.7721 26.7348 18.4361 26.9108C18.1081 27.0868 17.7321 27.1748 17.3081 27.1748H15.3401V18.8228H17.4161ZM21.8509 20.0468V22.3148H23.9509V23.5508H21.8509V27.1748H20.5549V18.8228H24.2629V20.0468H21.8509Z" fill="#333333"/>
<path d="M36 44.5H3.43918H1V0.5H27.5957H28.0213L36 8.3759V9.21599V44.5Z" stroke="#333333" stroke-width="0.92474" stroke-miterlimit="10"/>
</svg>
