<svg xmlns="http://www.w3.org/2000/svg">
	<symbol id="check" viewBox="0 0 20 20" fill="none">
		<path d="M4.16659 10.8333L8.33325 14.1667L15.8333 5" stroke="currentColor" stroke-width="2"/>
	</symbol>
	<symbol id="yt" viewBox="0 0 24 24">
		<path d="M4.34791 16.3029C4.6651 17.4279 5.63545 17.6338 5.70018 17.6733C7.29714 18.1083 16.2484 18.1096 17.8693 17.6733C18.9795 17.3522 19.1834 16.3676 19.2216 16.3029C19.6443 14.054 19.6721 11.1223 19.2022 8.57053L19.2216 8.6974C18.9044 7.57235 17.934 7.3665 17.8693 7.32701C16.2937 6.89913 7.31915 6.88294 5.70018 7.32701C4.59001 7.64873 4.3861 8.63267 4.34791 8.6974C3.89543 11.0608 3.87277 13.7725 4.34791 16.3029ZM10.2295 14.8639V10.1429L14.2857 12.5069L10.2295 14.8639Z" fill="currentColor"/>
	</symbol>
	<symbol id="vk" viewBox="0 0 24 24">
		<path d="M17.225 12.7343C16.9479 12.3843 17.0271 12.2286 17.225 11.9157C17.2286 11.9121 19.5164 8.75071 19.7521 7.67857L19.7536 7.67786C19.8707 7.28714 19.7536 7 19.1871 7H17.3129C16.8357 7 16.6157 7.24643 16.4979 7.52214C16.4979 7.52214 15.5436 9.80643 14.1936 11.2871C13.7579 11.715 13.5564 11.8521 13.3186 11.8521C13.2014 11.8521 13.0193 11.715 13.0193 11.3243V7.67786C13.0193 7.20929 12.8857 7 12.4907 7H9.54357C9.24429 7 9.06643 7.21857 9.06643 7.42214C9.06643 7.86643 9.74143 7.96857 9.81143 9.21857V11.9307C9.81143 12.525 9.70357 12.6343 9.46429 12.6343C8.82714 12.6343 7.28071 10.3407 6.36429 7.71571C6.17929 7.20643 5.99857 7.00071 5.51786 7.00071H3.64286C3.10786 7.00071 3 7.24714 3 7.52286C3 8.01 3.63714 10.4321 5.96286 13.6321C7.51286 15.8164 9.69572 17 11.6814 17C12.875 17 13.0207 16.7371 13.0207 16.285C13.0207 14.1979 12.9129 14.0007 13.5107 14.0007C13.7879 14.0007 14.265 14.1379 15.3793 15.1914C16.6529 16.4407 16.8621 17 17.575 17H19.4493C19.9836 17 20.2543 16.7371 20.0986 16.2186C19.7421 15.1279 17.3336 12.8843 17.225 12.7343Z" fill="currentColor"/>
	</symbol>
	<symbol id="tg" viewBox="0 0 24 24">
		<path d="M10.2783 14.2269L10.0136 18.1357C10.3923 18.1357 10.5563 17.9649 10.7529 17.7598L12.5283 15.9783L16.2071 18.807C16.8818 19.2018 17.3571 18.9939 17.5391 18.1553L19.9538 6.27498L19.9545 6.27428C20.1685 5.22708 19.5938 4.81758 18.9365 5.07448L4.7428 10.7802C3.77411 11.175 3.78878 11.7419 4.57813 11.9988L8.20689 13.1839L16.6358 7.64627C17.0324 7.37047 17.3931 7.52307 17.0964 7.79887L10.2783 14.2269Z" fill="currentColor"/>
	</symbol>
	<symbol id="wa" viewBox="0 0 24 24">
		<path d="M 12.011719 2 C 6.5057187 2 2.0234844 6.478375 2.0214844 11.984375 C 2.0204844 13.744375 2.4814687 15.462563 3.3554688 16.976562 L 2 22 L 7.2324219 20.763672 C 8.6914219 21.559672 10.333859 21.977516 12.005859 21.978516 L 12.009766 21.978516 C 17.514766 21.978516 21.995047 17.499141 21.998047 11.994141 C 22.000047 9.3251406 20.962172 6.8157344 19.076172 4.9277344 C 17.190172 3.0407344 14.683719 2.001 12.011719 2 z M 12.009766 4 C 14.145766 4.001 16.153109 4.8337969 17.662109 6.3417969 C 19.171109 7.8517969 20.000047 9.8581875 19.998047 11.992188 C 19.996047 16.396187 16.413812 19.978516 12.007812 19.978516 C 10.674812 19.977516 9.3544062 19.642812 8.1914062 19.007812 L 7.5175781 18.640625 L 6.7734375 18.816406 L 4.8046875 19.28125 L 5.2851562 17.496094 L 5.5019531 16.695312 L 5.0878906 15.976562 C 4.3898906 14.768562 4.0204844 13.387375 4.0214844 11.984375 C 4.0234844 7.582375 7.6067656 4 12.009766 4 z M 8.4765625 7.375 C 8.3095625 7.375 8.0395469 7.4375 7.8105469 7.6875 C 7.5815469 7.9365 6.9355469 8.5395781 6.9355469 9.7675781 C 6.9355469 10.995578 7.8300781 12.182609 7.9550781 12.349609 C 8.0790781 12.515609 9.68175 15.115234 12.21875 16.115234 C 14.32675 16.946234 14.754891 16.782234 15.212891 16.740234 C 15.670891 16.699234 16.690438 16.137687 16.898438 15.554688 C 17.106437 14.971687 17.106922 14.470187 17.044922 14.367188 C 16.982922 14.263188 16.816406 14.201172 16.566406 14.076172 C 16.317406 13.951172 15.090328 13.348625 14.861328 13.265625 C 14.632328 13.182625 14.464828 13.140625 14.298828 13.390625 C 14.132828 13.640625 13.655766 14.201187 13.509766 14.367188 C 13.363766 14.534188 13.21875 14.556641 12.96875 14.431641 C 12.71875 14.305641 11.914938 14.041406 10.960938 13.191406 C 10.218937 12.530406 9.7182656 11.714844 9.5722656 11.464844 C 9.4272656 11.215844 9.5585938 11.079078 9.6835938 10.955078 C 9.7955938 10.843078 9.9316406 10.663578 10.056641 10.517578 C 10.180641 10.371578 10.223641 10.267562 10.306641 10.101562 C 10.389641 9.9355625 10.347156 9.7890625 10.285156 9.6640625 C 10.223156 9.5390625 9.737625 8.3065 9.515625 7.8125 C 9.328625 7.3975 9.131125 7.3878594 8.953125 7.3808594 C 8.808125 7.3748594 8.6425625 7.375 8.4765625 7.375 z" fill="currentColor" />
	</symbol>
	<symbol id="zen" viewBox="0 0 24 24">
		<path fill-rule="evenodd" clip-rule="evenodd" d="M5.00146 11.8584C7.88043 11.8253 9.49178 11.6368 10.5643 10.5643C11.6368 9.49178 11.8253 7.88043 11.8584 5.00146C8.1049 5.07598 5.07598 8.1049 5.00146 11.8584ZM12.2764 5.00541C12.3096 7.88191 12.4984 9.49228 13.5704 10.5643C14.6261 11.62 16.2038 11.8191 18.9986 11.8567C18.9241 8.14897 15.9669 5.14868 12.2764 5.00541ZM18.9946 12.2781C16.2023 12.3158 14.6256 12.5152 13.5704 13.5704C12.5152 14.6256 12.3158 16.2023 12.2781 18.9946C15.923 18.8523 18.8523 15.923 18.9946 12.2781ZM11.8567 18.9986C11.8191 16.2038 11.62 14.6261 10.5643 13.5704C9.49228 12.4984 7.88191 12.3096 5.00541 12.2764C5.14868 15.9669 8.14899 18.9241 11.8567 18.9986Z" fill="currentColor"/>
	</symbol>
	<symbol id="ok" viewBox="0 0 24 24">
		<path fill-rule="evenodd" clip-rule="evenodd" d="M11.9605 11.7792C10.7904 11.7744 9.66951 11.3136 8.84207 10.4971C8.01462 9.6806 7.54762 8.57457 7.54277 7.41988C7.54583 6.25903 8.01033 5.14569 8.83643 4.31919C9.66254 3.4927 10.7843 3.01903 11.9605 3C12.5461 2.99913 13.126 3.11331 13.6664 3.33588C14.2068 3.55844 14.6969 3.88494 15.1081 4.29634C15.5193 4.70774 15.8434 5.19582 16.0615 5.73208C16.2796 6.26836 16.3873 6.8421 16.3783 7.41988C16.3857 7.99438 16.2765 8.56453 16.0571 9.09673C15.8377 9.62895 15.5126 10.1124 15.1009 10.5187C14.6892 10.925 14.1992 11.2458 13.6599 11.4623C13.1205 11.6788 12.5428 11.7865 11.9605 11.7792ZM11.9605 5.60349C11.7136 5.60336 11.4691 5.65227 11.2417 5.74731C11.0142 5.84236 10.8085 5.98158 10.6368 6.15673C10.465 6.33185 10.3307 6.5393 10.2419 6.76671C10.1531 6.99413 10.1116 7.23685 10.1198 7.48042C10.1162 7.71716 10.1618 7.95212 10.2538 8.17079C10.3458 8.38946 10.4823 8.58717 10.6548 8.75174C10.8273 8.91629 11.0322 9.04419 11.2568 9.12754C11.4814 9.21087 11.7209 9.24788 11.9605 9.23625C12.1987 9.24189 12.4356 9.20075 12.6575 9.11526C12.8793 9.02976 13.0818 8.90161 13.2531 8.73825C13.4244 8.57488 13.561 8.37955 13.6551 8.16363C13.7492 7.94769 13.7989 7.71547 13.8013 7.48042C13.8095 7.23685 13.768 6.99413 13.6792 6.76671C13.5904 6.5393 13.4561 6.33185 13.2843 6.15673C13.1126 5.98158 12.9069 5.84236 12.6794 5.74731C12.452 5.65227 12.2075 5.60336 11.9605 5.60349ZM13.7399 15.412L16.2556 17.8338C16.3725 17.9491 16.4652 18.0859 16.5284 18.2366C16.5917 18.3872 16.6243 18.5487 16.6243 18.7117C16.6243 18.8748 16.5917 19.0362 16.5284 19.1869C16.4652 19.3375 16.3725 19.4744 16.2556 19.5896C16.1468 19.7181 16.0107 19.8214 15.8569 19.8923C15.7032 19.9633 15.5356 20 15.3659 20C15.1962 20 15.0286 19.9633 14.8749 19.8923C14.7211 19.8214 14.5851 19.7181 14.4762 19.5896L11.9605 17.1678L9.50624 19.5896C9.38686 19.71 9.24334 19.8045 9.08486 19.8671C8.92639 19.9296 8.75644 19.9589 8.58586 19.9529C8.24575 19.9404 7.92052 19.8121 7.66549 19.5896C7.54861 19.4744 7.45589 19.3375 7.39263 19.1869C7.32937 19.0362 7.29681 18.8748 7.29681 18.7117C7.29681 18.5487 7.32937 18.3872 7.39263 18.2366C7.45589 18.0859 7.54861 17.9491 7.66549 17.8338L10.2425 15.412C9.32183 15.1281 8.43672 14.7422 7.60414 14.2616C7.31979 14.0776 7.11713 13.7937 7.03735 13.4675C6.95756 13.1414 7.00665 12.7975 7.17463 12.5057C7.26826 12.3592 7.39113 12.2329 7.53577 12.1347C7.68041 12.0364 7.84379 11.9682 8.01598 11.9342C8.18816 11.9002 8.36556 11.9012 8.53736 11.937C8.70917 11.9728 8.8718 12.0427 9.01537 12.1425C9.91345 12.677 10.9424 12.9595 11.9912 12.9595C13.04 12.9595 14.069 12.677 14.9671 12.1425C15.1106 12.0427 15.2733 11.9728 15.4451 11.937C15.6169 11.9012 15.7943 11.9002 15.9665 11.9342C16.1387 11.9682 16.302 12.0364 16.4467 12.1347C16.5913 12.2329 16.7142 12.3592 16.8078 12.5057C16.9818 12.7904 17.0405 13.1293 16.9723 13.4548C16.904 13.7803 16.7138 14.0684 16.4397 14.2616C15.5857 14.7425 14.6802 15.1283 13.7399 15.412Z" fill="currentColor"/>
	</symbol>
	<symbol id="calendar-add" viewBox="0 0 21 21" fill="none">
		<path d="M11.8333 16.6665H15.3333C17.2189 16.6665 18.1617 16.6665 18.7475 16.0807C19.3333 15.4949 19.3333 14.5521 19.3333 12.6665V8.1665C19.3333 6.28089 19.3333 5.33808 18.7475 4.75229C18.1617 4.1665 17.2189 4.1665 15.3333 4.1665H8.33325C6.44763 4.1665 5.50482 4.1665 4.91904 4.75229C4.33325 5.33808 4.33325 6.28089 4.33325 8.1665V8.33317" stroke="currentColor" stroke-width="2" stroke-linecap="round"/>
		<path d="M4.33325 8.3335H18.4999" stroke="currentColor" stroke-width="2" stroke-linecap="round"/>
		<path d="M1.83325 16.6665H6.83325" stroke="currentColor" stroke-width="2" stroke-linecap="round"/>
		<path d="M4.33325 14.1665L4.33325 19.1665" stroke="currentColor" stroke-width="2" stroke-linecap="round"/>
		<path d="M8.5 1.6665L8.5 4.99984" stroke="currentColor" stroke-width="2" stroke-linecap="round"/>
		<path d="M15.1667 1.6665L15.1667 4.99984" stroke="currentColor" stroke-width="2" stroke-linecap="round"/>
	</symbol>
	<symbol id="calendar" viewBox="0 0 24 24" fill="none">
		<path d="M21 10H3M16 2V6M8 2V6M7.8 22H16.2C17.8802 22 18.7202 22 19.362 21.673C19.9265 21.3854 20.3854 20.9265 20.673 20.362C21 19.7202 21 18.8802 21 17.2V8.8C21 7.11984 21 6.27976 20.673 5.63803C20.3854 5.07354 19.9265 4.6146 19.362 4.32698C18.7202 4 17.8802 4 16.2 4H7.8C6.11984 4 5.27976 4 4.63803 4.32698C4.07354 4.6146 3.6146 5.07354 3.32698 5.63803C3 6.27976 3 7.11984 3 8.8V17.2C3 18.8802 3 19.7202 3.32698 20.362C3.6146 20.9265 4.07354 21.3854 4.63803 21.673C5.27976 22 6.11984 22 7.8 22Z" stroke="currentColor" stroke-width="2" stroke-linecap="round" stroke-linejoin="round"/>
	</symbol>
	<symbol id="clock" viewBox="0 0 20 20" fill="none">
		<circle cx="9.99992" cy="10.0002" r="7.66667" stroke="currentColor" stroke-width="2"/>
		<path d="M13.75 10.0002H10.25C10.1119 10.0002 10 9.88823 10 9.75016V7.0835" stroke="currentColor" stroke-width="2" stroke-linecap="round"/>
	</symbol>
	<symbol id="arrow-right" viewBox="0 0 24 24">
		<path d="M20 12L20.7071 11.2929L21.4142 12L20.7071 12.7071L20 12ZM5 13C4.44771 13 4 12.5523 4 12C4 11.4477 4.44771 11 5 11V13ZM14.7071 5.29289L20.7071 11.2929L19.2929 12.7071L13.2929 6.70711L14.7071 5.29289ZM20.7071 12.7071L14.7071 18.7071L13.2929 17.2929L19.2929 11.2929L20.7071 12.7071ZM20 13H5V11H20V13Z" fill="currentColor"/>
	</symbol>
	<symbol id="hamburger" viewBox="0 0 15 13" fill="none">
		<path d="M0.000488281 0.886719H14.727" stroke="currentColor" stroke-width="1.69675"/>
		<path d="M0 6.49902H14.7265" stroke="currentColor" stroke-width="1.69675"/>
		<path d="M0 12.1123H14.7265" stroke="currentColor" stroke-width="1.69675"/>
	</symbol>
	<symbol id="chevron-left" viewBox="0 0 9 14" fill="none">
		<path d="M8 1L2 7L8 13" stroke="currentColor" stroke-width="2"/>
	</symbol>
	<symbol id="chevron-right" viewBox="0 0 9 14" fill="none">
		<path d="M1.54687 1.00005L7.16644 7.08784L1.54688 13.1758" stroke="currentColor" stroke-width="2"/>
	</symbol>
	<symbol id="info" viewBox="0 0 20 21" fill="none">
		<path d="M11.4471 18.7071C12.5248 18.517 13.5545 18.1166 14.4775 17.5286C15.4005 16.9406 16.1986 16.1766 16.8263 15.2801C17.454 14.3837 17.8989 13.3724 18.1358 12.304C18.3727 11.2356 18.3968 10.131 18.2067 9.05326C18.0167 7.97553 17.6162 6.94579 17.0283 6.02283C16.4403 5.09986 15.6762 4.30175 14.7798 3.67406C13.8834 3.04637 12.8721 2.60139 11.8037 2.36453C10.7352 2.12766 9.63065 2.10356 8.55292 2.29359C7.4752 2.48363 6.44546 2.88407 5.5225 3.47206C4.59953 4.06006 3.80142 4.82409 3.17373 5.72052C2.54603 6.61696 2.10105 7.62826 1.86419 8.69666C1.62733 9.76507 1.60323 10.8697 1.79326 11.9474C1.98329 13.0251 2.38374 14.0549 2.97173 14.9778C3.55973 15.9008 4.32375 16.6989 5.22019 17.3266C6.11663 17.9543 7.12792 18.3993 8.19633 18.6361C9.26474 18.873 10.3693 18.8971 11.4471 18.7071L11.4471 18.7071Z" stroke="currentColor" stroke-width="2"/>
		<path d="M10 9.66699L10 6.33366" stroke="currentColor" stroke-width="2" stroke-linecap="round"/>
		<path d="M10 14.667L10 13.8337" stroke="currentColor" stroke-width="2" stroke-linecap="round"/>
	</symbol>
	<symbol id="home" viewBox="0 0 24 24" fill="none">
		<path d="M5 12.7595C5 11.4018 5 10.7229 5.27446 10.1262C5.54892 9.52943 6.06437 9.08763 7.09525 8.20401L8.09525 7.34687C9.95857 5.74974 10.8902 4.95117 12 4.95117C13.1098 4.95117 14.0414 5.74974 15.9047 7.34687L16.9047 8.20401C17.9356 9.08763 18.4511 9.52943 18.7255 10.1262C19 10.7229 19 11.4018 19 12.7595V16.9999C19 18.8856 19 19.8284 18.4142 20.4142C17.8284 20.9999 16.8856 20.9999 15 20.9999H9C7.11438 20.9999 6.17157 20.9999 5.58579 20.4142C5 19.8284 5 18.8856 5 16.9999V12.7595Z" stroke="currentColor" stroke-width="2"/>
		<path d="M14.5 21V16C14.5 15.4477 14.0523 15 13.5 15H10.5C9.94772 15 9.5 15.4477 9.5 16V21" stroke="currentColor" stroke-width="2" stroke-linecap="round" stroke-linejoin="round"/>
	</symbol>
	<symbol id="trash" viewBox="0 0 24 24" fill="none">
		<path d="M10 15L10 12" stroke="currentColor" stroke-width="2" stroke-linecap="round"/>
		<path d="M14 15L14 12" stroke="currentColor" stroke-width="2" stroke-linecap="round"/>
		<path d="M3 7H21V7C20.0681 7 19.6022 7 19.2346 7.15224C18.7446 7.35523 18.3552 7.74458 18.1522 8.23463C18 8.60218 18 9.06812 18 10V16C18 17.8856 18 18.8284 17.4142 19.4142C16.8284 20 15.8856 20 14 20H10C8.11438 20 7.17157 20 6.58579 19.4142C6 18.8284 6 17.8856 6 16V10C6 9.06812 6 8.60218 5.84776 8.23463C5.64477 7.74458 5.25542 7.35523 4.76537 7.15224C4.39782 7 3.93188 7 3 7V7Z" stroke="currentColor" stroke-width="2" stroke-linecap="round"/>
		<path d="M10.0681 3.37059C10.1821 3.26427 10.4332 3.17033 10.7825 3.10332C11.1318 3.03632 11.5597 3 12 3C12.4403 3 12.8682 3.03632 13.2175 3.10332C13.5668 3.17033 13.8179 3.26427 13.9319 3.37059" stroke="currentColor" stroke-width="2" stroke-linecap="round"/>
	</symbol>
	<symbol id="message" viewBox="0 0 24 24" fill="none">
		<rect x="4" y="6" width="16" height="12" rx="2" stroke="currentColor" stroke-width="2"/>
		<path d="M4 9L11.1056 12.5528C11.6686 12.8343 12.3314 12.8343 12.8944 12.5528L20 9" stroke="currentColor" stroke-width="2"/>
	</symbol>
	<symbol id="phone" viewBox="0 0 24 24" fill="none">
		<path d="M17.7071 13.7071L20.3552 16.3552C20.7113 16.7113 20.7113 17.2887 20.3552 17.6448C18.43 19.57 15.3821 19.7866 13.204 18.153L11.6286 16.9714C9.88504 15.6638 8.33622 14.115 7.02857 12.3714L5.84701 10.796C4.21341 8.61788 4.43001 5.56999 6.35523 3.64477C6.71133 3.28867 7.28867 3.28867 7.64477 3.64477L10.2929 6.29289C10.6834 6.68342 10.6834 7.31658 10.2929 7.70711L9.27175 8.72825C9.10946 8.89054 9.06923 9.13846 9.17187 9.34373C10.3585 11.7171 12.2829 13.6415 14.6563 14.8281C14.8615 14.9308 15.1095 14.8905 15.2717 14.7283L16.2929 13.7071C16.6834 13.3166 17.3166 13.3166 17.7071 13.7071Z" stroke="currentColor" stroke-width="2"/>
	</symbol>
	<symbol id="download" viewBox="0 0 24 25" fill="none">
		<path d="M21 21.5H3M18 11.5L12 17.5M12 17.5L6 11.5M12 17.5V3.5" stroke="currentColor" stroke-width="1.3" stroke-linecap="square" stroke-linejoin="round"/>
	</symbol>
	<symbol id="calendar-alt" viewBox="0 0 20 20" fill="none">
		<rect x="2.5" y="5" width="15" height="12.5" rx="2" stroke="currentColor" stroke-width="2"/>
		<path d="M3.33333 9.16699H16.6667" stroke="currentColor" stroke-width="2" stroke-linecap="round"/>
		<path d="M7.5 13.333H12.5" stroke="currentColor" stroke-width="2" stroke-linecap="round"/>
		<path d="M6.66667 2.5L6.66667 5.83333" stroke="currentColor" stroke-width="2" stroke-linecap="round"/>
		<path d="M13.3333 2.5L13.3333 5.83333" stroke="currentColor" stroke-width="2" stroke-linecap="round"/>
	</symbol>
	<symbol id="dashboard" viewBox="0 0 20 20" fill="none">
		<rect x="3.33331" y="3.33301" width="5" height="5" rx="1" stroke="currentColor" stroke-width="2" stroke-linejoin="round"/>
		<rect x="3.33331" y="11.667" width="5" height="5" rx="1" stroke="currentColor" stroke-width="2" stroke-linejoin="round"/>
		<rect x="11.6667" y="11.667" width="5" height="5" rx="1" stroke="currentColor" stroke-width="2" stroke-linejoin="round"/>
		<rect x="11.6667" y="3.33301" width="5" height="5" rx="1" stroke="currentColor" stroke-width="2" stroke-linejoin="round"/>
	</symbol>
	<symbol id="time" viewBox="0 0 20 20" fill="none">
		<path d="M10 5.5C10 5.26019 10 5.14028 10.0823 5.06584C10.1646 4.9914 10.2761 5.0026 10.4992 5.02498C11.2024 5.09554 11.8847 5.31461 12.5 5.66987C13.2601 6.10871 13.8913 6.7399 14.3301 7.5C14.769 8.2601 15 9.12232 15 10C15 10.8777 14.769 11.7399 14.3301 12.5C13.8913 13.2601 13.2601 13.8913 12.5 14.3301C11.7399 14.769 10.8777 15 10 15C9.12232 15 8.2601 14.769 7.5 14.3301C6.88466 13.9749 6.35381 13.4935 5.94109 12.9198C5.81017 12.7378 5.74471 12.6468 5.76803 12.5383C5.79136 12.4299 5.8952 12.3699 6.10289 12.25L9.75 10.1443C9.87201 10.0739 9.93301 10.0387 9.96651 9.98066C10 9.92265 10 9.85221 10 9.71132V5.5Z" fill="currentColor"/>
		<circle cx="10" cy="9.99967" r="7.66667" stroke="currentColor" stroke-width="2"/>
	</symbol>
	<symbol id="close" viewBox="0 0 13 14">
		<path fill-rule="evenodd" clip-rule="evenodd" d="M5.34907 6.9993L0.526367 11.8224L1.94065 13.2366L6.76322 8.41358L11.5858 13.2366L13.0001 11.8224L8.17737 6.9993L12.9994 2.17684L11.5851 0.762695L6.76322 5.58502L1.94134 0.762695L0.527057 2.17684L5.34907 6.9993Z" fill="currentColor"/>
	</symbol>
	<symbol id="" viewBox="0 0 24 24">
		
	</symbol>
</svg>