<svg width="229" height="45" viewBox="0 0 229 45" fill="none" xmlns="http://www.w3.org/2000/svg"><g clip-path="url(#clip0_166_3430)"><path d="M18.079 2.75024L3.01318 11.3619V28.5851L18.079 37.1938L33.1448 28.5851V11.3619L18.079 2.75024Z" fill="#ECECEC"/><path d="M33.1449 7.91662L30.1317 6.19549L27.1186 4.47137L24.1054 2.75024L21.0923 1.02911L20.339 0.599569C19.6519 0.206863 18.8725 0.00012207 18.0791 0.00012207C17.2857 0.00012207 16.5063 0.206863 15.8192 0.599569L15.069 1.02911L12.0558 2.75024L9.04265 4.47137L6.02949 6.19549L3.01633 7.91662L0.00317383 9.63775L6.02949 13.083L9.04265 11.3619L15.069 7.91662L16.9522 6.8398C17.2952 6.64341 17.6844 6.54 18.0806 6.54C18.4768 6.54 18.8661 6.64341 19.209 6.8398L21.0953 7.91662L27.1216 11.3619L30.1348 13.083L33.1479 14.8041L36.1611 16.5282V9.63775L33.1449 7.91662Z" fill="#FFCD11"/><path d="M24.1053 13.083L21.0922 11.3619L18.983 10.1687C18.7081 10.0116 18.3964 9.92892 18.079 9.92892C17.7617 9.92892 17.4499 10.0116 17.1751 10.1687L15.0659 11.3619L12.0527 13.083L9.03955 14.8041L15.0659 18.2494L17.3227 16.9578C17.5517 16.8269 17.8115 16.758 18.076 16.758C18.3405 16.758 18.6003 16.8269 18.8293 16.9578L21.0892 18.2494L24.1023 19.9705L27.1155 21.6946L30.1286 23.4158L33.1418 25.1369L36.155 26.861V19.9705L30.1286 16.5282L24.1053 13.083Z" fill="#FFCD11"/><path d="M30.1286 26.858L27.1155 28.5821L21.0892 32.0274L19.2029 33.1042C18.8598 33.3 18.4706 33.4031 18.0745 33.4031C17.6784 33.4031 17.2893 33.3 16.9461 33.1042L15.0629 32.0304L9.03654 28.5851L6.02339 26.861L3.01023 25.1399L-0.00292969 23.4187V30.3062L3.01023 32.0304L6.02339 33.7515L9.03654 35.4726L12.0497 37.1967L15.0629 38.9179L15.8161 39.3474C16.5032 39.7401 17.2826 39.9469 18.076 39.9469C18.8694 39.9469 19.6488 39.7401 20.3359 39.3474L21.0892 38.9179L24.1023 37.1967L30.1286 33.7515L33.1418 32.0304L36.155 30.3062L30.1286 26.861V26.858Z" fill="#FFCD11"/><path d="M0 19.9705L6.02632 23.4157L12.0526 26.861L15.0658 28.5821L17.175 29.7753C17.4498 29.9324 17.7616 30.0151 18.0789 30.0151C18.3963 30.0151 18.7081 29.9324 18.9829 29.7753L21.0921 28.5821L24.1053 26.861L27.1184 25.1369L21.0921 21.6916L18.8353 22.9832C18.6062 23.1141 18.3464 23.183 18.082 23.183C17.8175 23.183 17.5577 23.1141 17.3287 22.9832L15.0718 21.6916L12.0587 19.9705L9.0455 18.2494L6.03234 16.5282L3.01919 14.8041L0.0060276 13.083L0 19.9705Z" fill="#FFCD11"/><path d="M121.656 18.4462V29.2145H115.889V19.7557C115.889 19.0635 115.611 18.3996 115.117 17.9102C114.622 17.4207 113.952 17.1457 113.253 17.1457H111.276C111.189 17.1457 111.105 17.1799 111.044 17.2409C110.982 17.3019 110.947 17.3846 110.947 17.4708V29.2175H105.177V15.1979C105.177 14.8979 105.236 14.6009 105.352 14.3237C105.468 14.0465 105.637 13.7946 105.851 13.5824C106.065 13.3702 106.32 13.2018 106.6 13.087C106.879 12.9721 107.179 12.913 107.482 12.913H116.055C117.538 12.913 118.961 13.4955 120.011 14.5329C121.061 15.5702 121.653 16.9776 121.656 18.4462Z" fill="#FFCD11"/><path d="M97.1202 21.0384V21.0354L103.538 12.901H97.2648L93.9804 17.0652L90.6991 12.901H84.4257L90.8438 21.0384L84.3926 29.2145H90.663L93.9804 25.0116L97.301 29.2145H103.571L97.1202 21.0384Z" fill="#FFCD11"/><path d="M78.5049 22.8699H82.2412C82.4575 22.8703 82.6717 22.8284 82.8717 22.7468C83.0716 22.6651 83.2533 22.5452 83.4064 22.3939C83.5595 22.2426 83.681 22.063 83.7638 21.8652C83.8467 21.6674 83.8894 21.4554 83.8894 21.2412V17.5305C83.8902 16.9221 83.7698 16.3194 83.5351 15.7571C83.3005 15.1947 82.9561 14.6836 82.5218 14.2531C82.0875 13.8226 81.5717 13.4811 81.0039 13.248C80.4362 13.015 79.8276 12.8951 79.2129 12.8951H72.0868C70.8466 12.8951 69.6571 13.3828 68.7801 14.251C67.9031 15.1192 67.4104 16.2967 67.4104 17.5245C67.4104 17.5245 67.4104 24.8386 67.4104 24.9669C67.51 26.1232 68.0441 27.2005 68.9071 27.9858C69.7702 28.7712 70.8995 29.2075 72.0718 29.2086H83.8743V24.9728H74.5335C74.3603 24.9728 74.1889 24.939 74.0289 24.8733C73.869 24.8076 73.7237 24.7113 73.6014 24.59C73.479 24.4686 73.3821 24.3246 73.3161 24.1661C73.2501 24.0076 73.2164 23.8378 73.2168 23.6663V22.8699H78.5049ZM73.2378 18.4462C73.2378 18.1005 73.3766 17.769 73.6235 17.5245C73.8705 17.2801 74.2054 17.1427 74.5546 17.1427H77.1911C77.5403 17.1427 77.8753 17.2801 78.1222 17.5245C78.3691 17.769 78.5079 18.1005 78.5079 18.4462V19.2815H73.2378V18.4462Z" fill="#FFCD11"/><path d="M135.309 12.8951H131.359C129.261 12.8951 127.249 13.72 125.766 15.1885C124.282 16.6569 123.449 18.6485 123.449 20.7252V21.3784C123.45 23.4549 124.283 25.446 125.766 26.9143C127.25 28.3826 129.261 29.2078 131.359 29.2086H135.309C137.406 29.2086 139.418 28.3836 140.902 26.9152C142.385 25.4467 143.218 23.4551 143.218 21.3784V20.7252C143.218 18.6485 142.385 16.6569 140.902 15.1885C139.418 13.72 137.406 12.8951 135.309 12.8951ZM136.626 22.0287C136.626 22.4144 136.55 22.7964 136.401 23.1529C136.252 23.5093 136.034 23.8332 135.758 24.1061C135.483 24.379 135.156 24.5955 134.796 24.7432C134.436 24.8909 134.05 24.9669 133.661 24.9669H133.001C132.214 24.9661 131.46 24.6562 130.904 24.1053C130.348 23.5543 130.036 22.8074 130.036 22.0287V20.4001C130.036 19.6213 130.348 18.8744 130.904 18.3235C131.46 17.7726 132.214 17.4627 133.001 17.4619H133.661C134.05 17.4619 134.436 17.5379 134.796 17.6856C135.156 17.8333 135.483 18.0498 135.758 18.3226C136.034 18.5955 136.252 18.9194 136.401 19.2759C136.55 19.6324 136.626 20.0143 136.626 20.4001V22.0287Z" fill="#FFCD11"/><path d="M197.06 12.8951H192.056C191.112 12.8947 190.177 13.0784 189.305 13.4358C188.432 13.7931 187.64 14.3171 186.972 14.9777C186.304 15.6384 185.775 16.4228 185.414 17.2861C185.052 18.1494 184.866 19.0748 184.866 20.0093V29.2086H191.459V20.5253C191.459 19.6282 191.819 18.7678 192.46 18.1335C193.101 17.4991 193.97 17.1427 194.876 17.1427H197.06V12.8951Z" fill="#FFCD11"/><path d="M211.379 24.9728C210.93 24.9728 210.486 24.8853 210.071 24.7153C209.657 24.5454 209.28 24.2962 208.963 23.9821C208.646 23.668 208.394 23.2951 208.222 22.8847C208.051 22.4743 207.962 22.0344 207.962 21.5902V17.1427H211.918V12.8951H207.962V8.0061H201.372V12.8951H198.736V17.1368H201.372V22.0913C201.372 23.0259 201.558 23.9513 201.919 24.8148C202.279 25.6782 202.809 26.4629 203.476 27.1238C204.143 27.7847 204.936 28.309 205.808 28.6667C206.68 29.0244 207.615 29.2085 208.559 29.2085H212.578V24.9728H211.379Z" fill="#FFCD11"/><path d="M229 12.8951H217.984C216.936 12.8959 215.931 13.3084 215.19 14.0422C214.448 14.776 214.032 15.7709 214.031 16.8086C214.03 17.8079 214.344 18.7826 214.927 19.598C215.511 20.4134 216.336 21.0293 217.288 21.3605L224.019 23.6991C224.165 23.7511 224.287 23.852 224.365 23.9843C224.443 24.1166 224.472 24.2718 224.446 24.4228C224.42 24.5738 224.342 24.711 224.224 24.8104C224.106 24.9099 223.957 24.9653 223.802 24.9669H214.031V29.2086H225.044C226.093 29.2086 227.099 28.7959 227.841 28.0614C228.583 27.3269 229 26.3307 229 25.292V23.7081C229 22.8971 228.745 22.1061 228.272 21.4445C227.798 20.783 227.128 20.2835 226.355 20.0153L219.888 17.7691C219.815 17.744 219.753 17.6938 219.713 17.6276C219.674 17.5613 219.659 17.4833 219.672 17.4075C219.685 17.3316 219.725 17.2627 219.784 17.2132C219.844 17.1636 219.919 17.1365 219.997 17.1368H229V12.8951Z" fill="#FFCD11"/><path d="M71.2792 8.00909H63.0412H56.4484H48.2104V12.2508H56.4484V29.2145H63.0412V12.2508H71.2792V8.00909Z" fill="#FFCD11"/><path d="M146.018 12.5759V29.2145H152.61V21.7095H161.18C162.403 21.7087 163.576 21.2273 164.441 20.3711C165.306 19.5148 165.792 18.3537 165.793 17.1427V12.5759C165.793 11.3644 165.307 10.2025 164.442 9.34562C163.577 8.4887 162.404 8.00689 161.18 8.0061H150.634C149.409 8.0061 148.235 8.48757 147.37 9.34458C146.504 10.2016 146.018 11.3639 146.018 12.5759ZM152.61 17.4679V12.8951C152.61 12.7218 152.68 12.5557 152.804 12.4332C152.927 12.3107 153.095 12.2418 153.27 12.2418H157.224C157.748 12.2418 158.251 12.448 158.621 12.815C158.992 13.1819 159.2 13.6796 159.2 14.1986V15.5051C159.2 16.0241 158.992 16.5218 158.621 16.8888C158.251 17.2557 157.748 17.4619 157.224 17.4619L152.61 17.4679Z" fill="#FFCD11"/><path d="M183.058 17.1427C182.96 15.9853 182.427 14.9066 181.563 14.12C180.7 13.3334 179.57 12.8962 178.397 12.8951H168.243V17.1368H175.932C176.281 17.1368 176.616 17.2741 176.863 17.5186C177.11 17.763 177.249 18.0946 177.249 18.4403V19.2367H170.222C169.263 19.2367 168.344 19.6138 167.665 20.2851C166.987 20.9564 166.606 21.8669 166.606 22.8162V25.6112C166.606 26.5605 166.987 27.471 167.665 28.1423C168.344 28.8135 169.263 29.1907 170.222 29.1907H180.645C180.964 29.1907 181.28 29.1284 181.575 29.0074C181.87 28.8863 182.138 28.709 182.363 28.4854C182.589 28.2619 182.767 27.9965 182.889 27.7044C183.011 27.4124 183.074 27.0994 183.073 26.7835V24.5612C183.073 24.5612 183.067 17.268 183.058 17.1427ZM175.932 24.9728H173.058C172.771 24.9728 172.496 24.86 172.293 24.6592C172.09 24.4584 171.976 24.186 171.976 23.902C171.976 23.618 172.09 23.3456 172.293 23.1448C172.496 22.9439 172.771 22.8311 173.058 22.8311H177.249V23.6663C177.249 23.8378 177.216 24.0076 177.15 24.1661C177.084 24.3246 176.987 24.4686 176.864 24.59C176.742 24.7113 176.597 24.8076 176.437 24.8733C176.277 24.939 176.105 24.9728 175.932 24.9728Z" fill="#FFCD11"/><path d="M53.3782 40.5764C53.6463 40.8784 53.7904 41.269 53.782 41.6711C53.7879 42.0674 53.65 42.4527 53.3933 42.7569C53.1156 43.0797 52.7587 43.3263 52.3567 43.4728C51.9092 43.6406 51.4341 43.7245 50.9556 43.7203C50.4763 43.7208 50 43.6442 49.5455 43.4936C49.0912 43.3435 48.6692 43.1108 48.301 42.8076L48.5782 42.2707C48.896 42.5344 49.2608 42.7367 49.6539 42.8672C50.0409 43.0036 50.4484 43.0741 50.8592 43.076C51.2259 43.0793 51.5901 43.0177 51.9349 42.8941C52.2367 42.789 52.5064 42.6093 52.7183 42.3721C52.917 42.1492 53.0244 41.8609 53.0196 41.5637C53.0279 41.3766 52.987 41.1906 52.9009 41.0238C52.8148 40.857 52.6865 40.7152 52.5285 40.6122C52.1123 40.3645 51.6302 40.247 51.1454 40.2751H49.6087V39.6785H51.1153C51.5338 39.7037 51.949 39.5915 52.2965 39.3593C52.4363 39.2564 52.5482 39.1208 52.6223 38.9647C52.6965 38.8086 52.7305 38.6367 52.7213 38.4645C52.726 38.2669 52.6784 38.0716 52.5832 37.8979C52.4881 37.7242 52.3487 37.5781 52.179 37.4741C51.7711 37.2232 51.2969 37.0986 50.817 37.1162C50.0979 37.1225 49.395 37.3292 48.7892 37.7128L48.53 37.0864C49.2261 36.6728 50.0233 36.4562 50.8351 36.46C51.2898 36.4547 51.7415 36.5336 52.1669 36.6926C52.5406 36.827 52.8714 37.0577 53.1251 37.3608C53.3599 37.6516 53.4846 38.0146 53.4776 38.3869C53.4863 38.739 53.3748 39.0837 53.1613 39.3653C52.9307 39.6501 52.6138 39.854 52.2573 39.947C52.6881 40.0359 53.08 40.2559 53.3782 40.5764Z" fill="#ECECEC"/><path d="M60.6669 38.8075C60.8649 39.0116 61.0174 39.2546 61.1145 39.5208C61.2116 39.787 61.251 40.0704 61.2303 40.3526V43.6607H60.5343V42.8284C60.3633 43.1103 60.1116 43.3356 59.8112 43.4757C59.4574 43.6411 59.0693 43.7219 58.6782 43.7114C58.1647 43.7376 57.6578 43.5869 57.2439 43.2848C57.0799 43.1499 56.9473 42.9815 56.8552 42.7912C56.7631 42.6008 56.7136 42.393 56.7102 42.1819C56.7067 41.9709 56.7494 41.7616 56.8353 41.5684C56.9212 41.3752 57.0483 41.2026 57.2078 41.0626C57.5392 40.7842 58.0675 40.646 58.7927 40.6479H60.5012V40.3377C60.5145 40.1455 60.4867 39.9527 60.4198 39.7718C60.3528 39.5908 60.2481 39.4259 60.1125 39.2877C59.7944 39.028 59.3879 38.8989 58.9765 38.9268C58.6405 38.9257 58.307 38.9833 57.9912 39.0968C57.6953 39.1985 57.4214 39.3543 57.1837 39.5562L56.8552 39.0193C57.1442 38.78 57.478 38.5996 57.8375 38.4883C58.2266 38.3624 58.6335 38.2989 59.0428 38.3004C59.63 38.2555 60.212 38.4372 60.6669 38.8075ZM59.8473 42.8642C60.1461 42.67 60.375 42.387 60.5012 42.0559V41.1849H58.8108C57.8888 41.1849 57.4277 41.503 57.4277 42.1394C57.4228 42.2813 57.4528 42.4223 57.5153 42.5502C57.5778 42.6781 57.6708 42.7889 57.7863 42.8732C58.0835 43.0683 58.4367 43.1625 58.7927 43.1416C59.1639 43.1518 59.5302 43.0554 59.8473 42.8642Z" fill="#ECECEC"/><path d="M69.7033 38.3243V43.6607H68.9741V38.9626H65.5934V43.6607H64.8672V38.3243H69.7033Z" fill="#ECECEC"/><path d="M77.5375 38.3243V43.6607H76.8113V41.4384C76.2351 41.6995 75.6099 41.8377 74.9763 41.8441C74.4375 41.8751 73.9047 41.719 73.4697 41.4026C73.2825 41.2381 73.1361 41.0329 73.0421 40.8032C72.948 40.5735 72.9087 40.3254 72.9274 40.0782V38.3243H73.6565V40.0394C73.6469 40.2082 73.677 40.3769 73.7445 40.5322C73.8119 40.6875 73.9149 40.8251 74.0452 40.9343C74.3588 41.1526 74.7385 41.2579 75.1209 41.2326C75.7086 41.2145 76.2865 41.0796 76.8204 40.8359V38.3004L77.5375 38.3243Z" fill="#ECECEC"/><path d="M84.7813 38.8075C84.98 39.0112 85.1329 39.2541 85.23 39.5204C85.3271 39.7867 85.3662 40.0703 85.3448 40.3526V43.6607H84.6487V42.8285C84.4793 43.1116 84.2271 43.3373 83.9256 43.4757C83.5729 43.6412 83.1858 43.722 82.7956 43.7114C82.282 43.7381 81.775 43.5874 81.3614 43.2848C81.1974 43.1499 81.0648 42.9815 80.9726 42.7912C80.8805 42.6008 80.831 42.393 80.8276 42.1819C80.8242 41.9709 80.8668 41.7616 80.9527 41.5684C81.0386 41.3752 81.1657 41.2026 81.3252 41.0626C81.6567 40.7842 82.184 40.646 82.9071 40.648H84.6186V40.3377C84.6319 40.1455 84.6042 39.9527 84.5372 39.7718C84.4702 39.5909 84.3655 39.4259 84.2299 39.2878C83.9109 39.0276 83.5033 38.8984 83.0909 38.9268C82.7559 38.9258 82.4234 38.9834 82.1086 39.0968C81.8118 39.1985 81.5369 39.3543 81.2981 39.5562L80.9697 39.0193C81.2597 38.78 81.5945 38.5996 81.955 38.4883C82.344 38.3623 82.7509 38.2988 83.1602 38.3004C83.7465 38.2557 84.3274 38.4374 84.7813 38.8075ZM83.9617 42.8643C84.2614 42.6702 84.4913 42.3872 84.6186 42.0559V41.1849H82.9282C82.0062 41.1849 81.5452 41.5031 81.5452 42.1394C81.5402 42.2814 81.5703 42.4224 81.6328 42.5502C81.6952 42.6781 81.7882 42.7889 81.9037 42.8732C82.1996 43.0689 82.552 43.1632 82.9071 43.1417C83.2784 43.1521 83.6447 43.0558 83.9617 42.8643Z" fill="#ECECEC"/><path d="M89.8101 43.3654C89.395 43.1409 89.0524 42.8048 88.8218 42.3959C88.5866 41.9653 88.4634 41.4835 88.4634 40.994C88.4634 40.5044 88.5866 40.0226 88.8218 39.592C89.0544 39.1862 89.3967 38.8526 89.8101 38.6285C90.2486 38.3949 90.7404 38.2767 91.2384 38.2855C91.6686 38.2779 92.0947 38.3698 92.4828 38.5539C92.8422 38.7274 93.1435 38.9998 93.3506 39.3384L92.8082 39.7053C92.6417 39.4488 92.4072 39.2424 92.1303 39.1088C91.8492 38.9722 91.5394 38.9037 91.2263 38.9089C90.8599 38.9038 90.4985 38.9932 90.1777 39.1684C89.8682 39.3395 89.615 39.5953 89.4485 39.9052C89.278 40.2428 89.1892 40.615 89.1892 40.9925C89.1892 41.3699 89.278 41.7422 89.4485 42.0797C89.617 42.3866 89.8698 42.64 90.1777 42.8105C90.4988 42.9847 90.8602 43.0731 91.2263 43.0671C91.5384 43.0722 91.8475 43.0069 92.1303 42.8762C92.4076 42.7432 92.6423 42.5367 92.8082 42.2796L93.3506 42.6435C93.1433 42.983 92.8407 43.2556 92.4798 43.428C92.0931 43.6132 91.6679 43.7062 91.2384 43.6994C90.7413 43.7108 90.2495 43.5958 89.8101 43.3654Z" fill="#ECECEC"/><path d="M100.139 38.9626H98.0993V43.6607H97.3731V38.9626H95.3333V38.3243H100.139V38.9626Z" fill="#ECECEC"/><path d="M102.893 38.3243H103.623V42.563L107.217 38.3243H107.862V43.6607H107.136V39.419L103.55 43.6607H102.893V38.3243Z" fill="#ECECEC"/><path d="M121.283 43.0223V44.9374H120.599V43.6517H115.778V44.9374H115.091V43.0223H115.392C115.756 43.0015 115.995 42.739 116.13 42.2319C116.286 41.5317 116.376 40.8187 116.398 40.1021L116.468 38.3123H120.445V43.0223H121.283ZM116.868 42.0111C116.829 42.399 116.646 42.7588 116.356 43.0223H119.716V38.9626H117.124L117.064 40.1558C117.043 40.781 116.977 41.4039 116.868 42.0201V42.0111Z" fill="#ECECEC"/><path d="M128.804 38.3243V43.6607H128.077V38.9626H125.495L125.423 40.2811C125.408 41.1465 125.277 42.0061 125.034 42.8374C124.829 43.434 124.465 43.7323 123.937 43.7323C123.761 43.7274 123.586 43.7004 123.416 43.6517L123.467 43.0343C123.551 43.0553 123.637 43.0683 123.723 43.0731C123.855 43.0764 123.985 43.0419 124.097 42.9736C124.21 42.9053 124.3 42.8061 124.356 42.6883C124.517 42.3932 124.62 42.0701 124.657 41.7367C124.703 41.3579 124.745 40.8568 124.778 40.2453L124.871 38.3392L128.804 38.3243Z" fill="#ECECEC"/><path d="M136.713 38.3243V43.6607H136.047V41.8948H134.152L132.898 43.6607H132.109L133.453 41.7934C133.075 41.7014 132.737 41.4923 132.489 41.1968C132.255 40.8946 132.136 40.521 132.151 40.1408C132.134 39.8833 132.18 39.6255 132.285 39.3892C132.389 39.1529 132.55 38.9452 132.754 38.7836C133.245 38.4466 133.835 38.2817 134.432 38.3153L136.713 38.3243ZM134.405 41.3579H136.035V38.9716H134.456C133.404 38.9716 132.878 39.3742 132.88 40.1796C132.898 40.9611 133.399 41.3579 134.405 41.3579Z" fill="#ECECEC"/><path d="M145.692 43.3654C145.276 43.1417 144.934 42.8054 144.704 42.3959C144.469 41.9653 144.345 41.4835 144.345 40.994C144.345 40.5044 144.469 40.0226 144.704 39.592C144.936 39.1855 145.278 38.8517 145.692 38.6285C146.131 38.3945 146.622 38.2763 147.12 38.2855C147.551 38.2779 147.977 38.3699 148.365 38.554C148.723 38.7276 149.024 39 149.23 39.3385L148.687 39.7054C148.521 39.4496 148.288 39.2434 148.012 39.1088C147.731 38.9722 147.421 38.9037 147.108 38.9089C146.742 38.9038 146.381 38.9932 146.06 39.1684C145.75 39.3387 145.496 39.5947 145.331 39.9052C145.16 40.2428 145.071 40.615 145.071 40.9925C145.071 41.3699 145.16 41.7422 145.331 42.0797C145.498 42.3873 145.751 42.6409 146.06 42.8106C146.381 42.9847 146.742 43.0731 147.108 43.0671C147.42 43.0722 147.73 43.0069 148.012 42.8762C148.288 42.7422 148.522 42.5359 148.687 42.2796L149.23 42.6435C149.024 42.9843 148.721 43.2572 148.359 43.428C147.973 43.6135 147.549 43.7065 147.12 43.6995C146.623 43.7112 146.131 43.5962 145.692 43.3654Z" fill="#ECECEC"/><path d="M157.169 38.3243V43.6607H156.443V38.9626H153.062V43.6607H152.336V38.3243H157.169Z" fill="#ECECEC"/><path d="M165.654 41.2147H161.135C161.146 41.4703 161.208 41.7211 161.319 41.9523C161.43 42.1834 161.586 42.3901 161.78 42.56C162.188 42.9074 162.715 43.0895 163.253 43.0701C163.569 43.0748 163.883 43.0149 164.175 42.8941C164.454 42.7762 164.704 42.5979 164.904 42.3721L165.314 42.8374C165.07 43.1232 164.76 43.3463 164.41 43.4877C164.036 43.6401 163.634 43.7161 163.229 43.7114C162.716 43.7222 162.21 43.6009 161.758 43.3594C161.341 43.1356 160.994 42.8009 160.758 42.3929C160.516 41.9651 160.392 41.4814 160.4 40.991C160.392 40.5033 160.51 40.0218 160.743 39.592C160.961 39.1905 161.288 38.8569 161.686 38.6285C162.096 38.3969 162.561 38.2784 163.033 38.2855C163.503 38.2773 163.967 38.3959 164.374 38.6285C164.769 38.8558 165.092 39.1873 165.308 39.586C165.539 40.0186 165.655 40.502 165.645 40.991L165.654 41.2147ZM161.737 39.3951C161.379 39.7316 161.164 40.1901 161.135 40.6778H164.955C164.926 40.1901 164.71 39.7318 164.353 39.3951C163.991 39.0779 163.524 38.9027 163.041 38.9027C162.557 38.9027 162.09 39.0779 161.728 39.3951H161.737Z" fill="#ECECEC"/><path d="M174.585 43.0223V44.9881H173.901V43.6517H168.972V38.3243H169.701V43.0223H172.988V38.3243H173.715V43.0223H174.585Z" fill="#ECECEC"/><path d="M181.47 38.9626H179.433V43.6607H178.698V38.9626H176.661V38.3243H181.47V38.9626Z" fill="#ECECEC"/><path d="M188.693 41.2147H184.173C184.185 41.4702 184.248 41.7208 184.358 41.9518C184.469 42.1829 184.625 42.3897 184.818 42.56C185.228 42.9068 185.755 43.0888 186.294 43.0701C186.611 43.0746 186.925 43.0147 187.216 42.8941C187.495 42.7761 187.743 42.5977 187.943 42.3721L188.352 42.8374C188.109 43.1242 187.799 43.3475 187.448 43.4877C187.073 43.6405 186.67 43.7166 186.264 43.7114C185.752 43.7215 185.245 43.6003 184.794 43.3594C184.377 43.1355 184.032 42.8008 183.797 42.393C183.553 41.9656 183.429 41.4816 183.438 40.991C183.43 40.5033 183.548 40.0218 183.781 39.592C183.999 39.1914 184.325 38.858 184.722 38.6285C185.132 38.3967 185.599 38.2782 186.071 38.2855C186.541 38.2778 187.005 38.3963 187.412 38.6285C187.806 38.856 188.129 39.1876 188.343 39.5861C188.575 40.0184 188.692 40.5017 188.684 40.991L188.693 41.2147ZM184.776 39.3952C184.418 39.7318 184.203 40.1902 184.173 40.6778H187.994C187.964 40.1902 187.749 39.7318 187.391 39.3952C187.03 39.0781 186.563 38.9031 186.08 38.9031C185.598 38.9031 185.131 39.0781 184.77 39.3952H184.776Z" fill="#ECECEC"/><path d="M195.229 43.6607L193.52 41.4295L191.797 43.6607H190.977L193.11 40.9224L191.08 38.3243H191.899L193.52 40.4123L195.138 38.3243H195.937L193.909 40.9343L196.06 43.6726L195.229 43.6607Z" fill="#ECECEC"/><path d="M198.947 38.3243H199.676V40.6867H203.066V38.3243H203.795V43.6607H203.066V41.3072H199.676V43.6607H198.947V38.3243Z" fill="#ECECEC"/><path d="M207.564 38.3243H208.291V42.563L211.888 38.3243H212.533V43.6607H211.804V39.419L208.227 43.6607H207.564V38.3243Z" fill="#ECECEC"/><path d="M218.27 41.2863H217.041V43.6726H216.312V38.3243H217.041V40.6688H218.279L220.174 38.3243H220.964L218.855 40.9105L221.13 43.6607H220.268L218.27 41.2863Z" fill="#ECECEC"/><path d="M223.965 38.3243H224.694V42.563L228.289 38.3243H228.934V43.6607H228.208V39.419L224.622 43.6607H223.965V38.3243Z" fill="#ECECEC"/></g><defs><clipPath id="clip0_166_3430"><rect width="229" height="45" fill="white"/></clipPath></defs></svg>