<svg width="181" height="144" viewBox="0 0 181 144" fill="none" xmlns="http://www.w3.org/2000/svg"><g clip-path="url(#clip0_145_3698)"><path d="M90.4999 5.55347L60.3333 22.93V57.6862L90.4999 75.0657L120.667 57.6862V22.93L90.4999 5.55347Z" fill="#FFCD11"/><path d="M120.667 15.9799L114.633 12.5064L108.6 9.02984L102.567 5.55333L96.5334 2.08284L95.0251 1.21295C93.6493 0.420409 92.0887 0.00317383 90.5 0.00317383C88.9114 0.00317383 87.3508 0.420409 85.975 1.21295L84.4667 2.08284L78.4334 5.55634L72.4 9.03286L66.3667 12.5094L60.3334 15.9829L54.3 19.4594L66.3667 26.4124L72.4 22.9359L84.4667 15.9829L88.2375 13.8217C88.9254 13.4255 89.7057 13.2168 90.5 13.2168C91.2944 13.2168 92.0747 13.4255 92.7626 13.8217L96.5334 15.9799L108.6 22.9329L114.633 26.4094L120.667 29.8829L126.7 33.3594V19.4564L120.667 15.9799Z" fill="#F8F8F8"/><path d="M102.567 26.4066L96.5332 22.9331L92.3099 20.501C91.7596 20.184 91.1353 20.0171 90.4999 20.0171C89.8645 20.0171 89.2402 20.184 88.6899 20.501L84.4666 22.9331L78.4332 26.4066L72.3999 29.8831L84.4666 36.8361L88.9916 34.2295C89.4502 33.9653 89.9704 33.8262 90.4999 33.8262C91.0294 33.8262 91.5496 33.9653 92.0082 34.2295L96.5332 36.8361L102.567 40.3096L108.6 43.7861L114.633 47.2597L120.667 50.7362L126.7 54.2127V40.3096L114.633 33.3596L102.567 26.4066Z" fill="#F8F8F8"/><path d="M114.633 54.2095L108.6 57.686L96.5334 64.6391L92.7626 66.7972C92.0747 67.1935 91.2944 67.4021 90.5 67.4021C89.7057 67.4021 88.9254 67.1935 88.2375 66.7972L84.4667 64.6391L72.4 57.686L66.3667 54.2095L60.3334 50.736L54.3 47.2595V61.1626L60.3334 64.6391L66.3667 68.1126L72.4 71.5891L78.4334 75.0656L84.4667 78.5361L85.975 79.406C87.3508 80.1985 88.9114 80.6158 90.5 80.6158C92.0887 80.6158 93.6493 80.1985 95.0251 79.406L96.5334 78.5361L102.567 75.0626L114.633 68.1096L120.667 64.6361L126.7 61.1596L114.633 54.2065V54.2095Z" fill="#F8F8F8"/><path d="M54.3 40.3095L66.3667 47.2596L78.4334 54.2126L84.4667 57.6861L88.69 60.1212C89.2404 60.4382 89.8646 60.6051 90.5 60.6051C91.1355 60.6051 91.7597 60.4382 92.3101 60.1212L96.5334 57.6891L102.567 54.2156L108.6 50.7391L96.5334 43.7861L92.0084 46.3927C91.5498 46.6569 91.0296 46.796 90.5 46.796C89.9705 46.796 89.4503 46.6569 88.9917 46.3927L84.4667 43.7861L78.4334 40.3095L72.4 36.833L66.3667 33.3595L60.3334 29.883L54.3 26.4065V40.3095Z" fill="#F8F8F8"/><path d="M73.5343 117.064V127.927H67.7604V118.379C67.7604 117.681 67.4823 117.011 66.9873 116.517C66.4922 116.023 65.8209 115.745 65.1208 115.745H63.1388C63.0954 115.745 63.0524 115.754 63.0123 115.771C62.9722 115.787 62.9358 115.812 62.9053 115.843C62.8747 115.873 62.8505 115.91 62.8342 115.95C62.8178 115.99 62.8096 116.033 62.81 116.077V127.927H57.0361V113.78C57.0361 113.477 57.0959 113.178 57.2121 112.898C57.3283 112.618 57.4985 112.365 57.7131 112.151C57.9277 111.937 58.1825 111.767 58.4628 111.652C58.7432 111.536 59.0436 111.477 59.3469 111.477H67.9233C69.4096 111.476 70.8354 112.064 71.8875 113.112C72.9396 114.159 73.5319 115.581 73.5343 117.064Z" fill="#F8F8F8"/><path d="M48.9635 119.677V119.674L55.392 111.465H49.1113L45.8232 115.667L42.538 111.465H36.2543L42.6828 119.677L36.2241 127.927H42.5018L45.8232 123.686L49.1475 127.927H55.4252L48.9635 119.677Z" fill="#F8F8F8"/><path d="M30.3325 121.528H34.0702C34.2869 121.528 34.5015 121.485 34.7017 121.402C34.9019 121.32 35.0838 121.198 35.237 121.045C35.3902 120.892 35.5118 120.711 35.5947 120.511C35.6776 120.311 35.7203 120.097 35.7203 119.881V116.14C35.7203 114.901 35.227 113.713 34.349 112.837C33.471 111.96 32.2802 111.468 31.0385 111.468H23.904C22.6623 111.468 21.4715 111.96 20.5935 112.837C19.7154 113.713 19.2222 114.901 19.2222 116.14C19.2222 116.14 19.2222 123.52 19.2403 123.647C19.3392 124.813 19.8733 125.9 20.7369 126.693C21.6005 127.485 22.7307 127.926 23.904 127.927H35.7203V123.647H26.3687C26.019 123.647 25.6837 123.508 25.4365 123.261C25.1893 123.015 25.0504 122.68 25.0504 122.331V121.528H30.3325ZM25.0534 117.064C25.0534 116.715 25.1922 116.38 25.4393 116.133C25.6865 115.885 26.0218 115.746 26.3717 115.745H29.0113C29.3617 115.745 29.6978 115.884 29.9455 116.132C30.1933 116.379 30.3325 116.714 30.3325 117.064V117.907H25.0534V117.064Z" fill="#F8F8F8"/><path d="M87.2059 111.468H83.2601C81.1599 111.468 79.1457 112.301 77.6607 113.782C76.1756 115.264 75.3413 117.274 75.3413 119.369V120.026C75.3413 121.063 75.5461 122.091 75.9441 123.049C76.342 124.008 76.9253 124.879 77.6607 125.613C78.396 126.346 79.2689 126.928 80.2297 127.325C81.1904 127.722 82.2202 127.927 83.2601 127.927H87.2179C89.3181 127.927 91.3323 127.094 92.8173 125.613C94.3024 124.131 95.1367 122.121 95.1367 120.026V119.369C95.1367 118.331 94.9315 117.302 94.5327 116.343C94.134 115.384 93.5497 114.512 92.8131 113.778C92.0765 113.044 91.2021 112.463 90.2399 112.066C89.2778 111.67 88.2468 111.467 87.2059 111.468ZM88.5272 120.676C88.5272 121.065 88.4503 121.45 88.3009 121.81C88.1515 122.169 87.9326 122.496 87.6567 122.771C87.3807 123.046 87.0531 123.264 86.6926 123.413C86.3321 123.562 85.9458 123.638 85.5557 123.638H84.8981C84.508 123.638 84.1217 123.562 83.7612 123.413C83.4007 123.264 83.0731 123.046 82.7972 122.771C82.5212 122.496 82.3023 122.169 82.1529 121.81C82.0036 121.45 81.9267 121.065 81.9267 120.676V119.029C81.9275 118.244 82.2409 117.49 82.7981 116.935C83.3552 116.379 84.1106 116.068 84.8981 116.068H85.5557C86.3433 116.068 87.0986 116.379 87.6558 116.935C88.2129 117.49 88.5264 118.244 88.5272 119.029V120.676Z" fill="#F8F8F8"/><path d="M149.023 111.468H144.013C143.068 111.468 142.132 111.654 141.259 112.015C140.386 112.375 139.593 112.904 138.925 113.571C138.257 114.237 137.727 115.029 137.366 115.9C137.004 116.771 136.818 117.704 136.818 118.647V127.927H143.415V119.171C143.415 118.265 143.776 117.397 144.417 116.756C145.059 116.116 145.929 115.755 146.836 115.754H149.023V111.468Z" fill="#F8F8F8"/><path d="M163.362 123.647C162.454 123.647 161.584 123.287 160.943 122.647C160.301 122.007 159.941 121.138 159.941 120.233V115.745H163.899V111.468H159.941V106.529H153.34V111.468H150.701V115.745H153.34V120.748C153.34 121.691 153.526 122.625 153.888 123.496C154.25 124.367 154.78 125.158 155.449 125.825C156.117 126.492 156.911 127.021 157.784 127.381C158.657 127.742 159.593 127.927 160.538 127.927H164.559V123.647H163.362Z" fill="#F8F8F8"/><path d="M181 111.468H169.974C169.454 111.468 168.939 111.57 168.459 111.768C167.978 111.966 167.541 112.257 167.173 112.624C166.806 112.991 166.514 113.426 166.315 113.905C166.116 114.385 166.013 114.899 166.013 115.417C166.014 116.426 166.328 117.41 166.912 118.232C167.497 119.055 168.323 119.676 169.277 120.011L176.013 122.367C176.159 122.42 176.282 122.522 176.36 122.655C176.438 122.789 176.467 122.945 176.441 123.098C176.415 123.25 176.336 123.388 176.218 123.489C176.101 123.589 175.951 123.645 175.796 123.647H166.013V127.927H177.042C178.09 127.927 179.096 127.512 179.838 126.773C180.58 126.035 180.998 125.033 181 123.987V122.388C181 121.57 180.745 120.772 180.271 120.104C179.796 119.437 179.125 118.933 178.351 118.662L171.878 116.396C171.805 116.369 171.745 116.317 171.706 116.251C171.668 116.184 171.654 116.106 171.667 116.03C171.679 115.954 171.718 115.885 171.777 115.835C171.835 115.785 171.909 115.756 171.986 115.754H181V111.468Z" fill="#F8F8F8"/><path d="M23.0956 106.529H14.848H8.24757H0V110.806H8.24757V127.927H14.848V110.806H23.0956V106.529Z" fill="#F8F8F8"/><path d="M97.9241 111.137V127.927H104.522V120.357H113.101C113.708 120.357 114.309 120.237 114.869 120.006C115.43 119.774 115.939 119.434 116.368 119.006C116.797 118.578 117.137 118.069 117.369 117.51C117.601 116.95 117.72 116.351 117.719 115.745V111.137C117.719 109.915 117.233 108.743 116.367 107.879C115.501 107.014 114.326 106.529 113.101 106.529H102.543C101.318 106.529 100.143 107.014 99.2768 107.879C98.4107 108.743 97.9241 109.915 97.9241 111.137ZM104.522 116.076V111.468C104.522 111.293 104.591 111.126 104.715 111.002C104.839 110.878 105.007 110.809 105.182 110.809H109.143C109.668 110.809 110.171 111.017 110.542 111.387C110.913 111.758 111.122 112.26 111.122 112.784V114.102C111.122 114.626 110.913 115.128 110.542 115.498C110.171 115.868 109.668 116.076 109.143 116.076H104.522Z" fill="#F8F8F8"/><path d="M135.005 115.745C134.905 114.579 134.37 113.493 133.506 112.701C132.642 111.909 131.511 111.469 130.338 111.468H120.175V115.745H127.871C128.221 115.745 128.557 115.884 128.805 116.132C129.053 116.379 129.192 116.714 129.192 117.064V117.867H122.154C121.194 117.867 120.273 118.248 119.594 118.925C118.915 119.603 118.534 120.521 118.534 121.479V124.297C118.534 125.255 118.915 126.173 119.594 126.851C120.273 127.528 121.194 127.909 122.154 127.909H132.589C133.233 127.909 133.852 127.653 134.308 127.198C134.764 126.743 135.02 126.126 135.02 125.483V123.237C135.02 123.237 135.014 115.875 135.005 115.745ZM127.871 123.647H124.996C124.849 123.654 124.702 123.632 124.564 123.581C124.426 123.531 124.3 123.452 124.193 123.352C124.087 123.251 124.002 123.129 123.944 122.994C123.885 122.859 123.856 122.714 123.856 122.568C123.856 122.421 123.885 122.276 123.944 122.141C124.002 122.006 124.087 121.885 124.193 121.784C124.3 121.683 124.426 121.604 124.564 121.554C124.702 121.503 124.849 121.481 124.996 121.488H129.192V122.331C129.192 122.504 129.158 122.676 129.091 122.835C129.025 122.995 128.927 123.14 128.805 123.262C128.682 123.385 128.536 123.481 128.376 123.547C128.216 123.613 128.044 123.647 127.871 123.647Z" fill="#F8F8F8"/><path d="M5.09521 139.536C5.36573 139.841 5.51114 140.237 5.50245 140.644C5.50734 141.043 5.36815 141.431 5.11029 141.736C4.83517 142.064 4.47823 142.313 4.07558 142.459C3.62692 142.63 3.14998 142.714 2.66981 142.709C2.19089 142.709 1.71508 142.632 1.26102 142.48C0.805673 142.33 0.382938 142.095 0.0151367 141.788L0.289654 141.246C0.608775 141.51 0.973786 141.715 1.36661 141.848C1.75945 141.984 2.17236 142.055 2.58835 142.056C2.95551 142.06 3.32041 141.998 3.66531 141.872C3.96765 141.766 4.23772 141.585 4.44964 141.345C4.64781 141.121 4.75534 140.831 4.75131 140.532C4.7598 140.343 4.71897 140.155 4.63279 139.986C4.54661 139.817 4.41802 139.674 4.25959 139.569C3.84258 139.32 3.35998 139.203 2.87494 139.232H1.33644V138.63H2.84477C3.26456 138.655 3.68083 138.541 4.03032 138.308C4.16969 138.204 4.28133 138.067 4.35547 137.909C4.42961 137.752 4.46401 137.579 4.45567 137.405C4.46039 137.206 4.41273 137.01 4.31745 136.835C4.22217 136.66 4.0826 136.513 3.91267 136.409C3.50444 136.153 3.02804 136.026 2.54612 136.045C2.19602 136.046 1.84776 136.095 1.51141 136.192C1.15992 136.292 0.824661 136.442 0.515904 136.638L0.259486 136.015C0.955527 135.595 1.75408 135.375 2.56724 135.379C3.0225 135.374 3.47477 135.453 3.9006 135.614C4.27553 135.75 4.6069 135.984 4.8599 136.291C5.09588 136.583 5.22184 136.949 5.21588 137.324C5.22345 137.679 5.11081 138.027 4.89611 138.311C4.66782 138.604 4.3502 138.816 3.99111 138.913C4.41529 139.001 4.80136 139.219 5.09521 139.536Z" fill="#F8F8F8"/><path d="M12.3925 137.751C12.5911 137.958 12.744 138.203 12.8412 138.472C12.9384 138.742 12.9777 139.028 12.9566 139.313V142.648H12.2597V141.809C12.0903 142.095 11.8379 142.324 11.5357 142.465C11.1819 142.629 10.7947 142.71 10.4045 142.7C9.89029 142.727 9.38269 142.574 8.96854 142.269C8.80442 142.133 8.67169 141.964 8.57946 141.772C8.48724 141.58 8.43771 141.371 8.43427 141.158C8.43084 140.945 8.47357 140.734 8.55954 140.539C8.64551 140.345 8.77268 140.171 8.93234 140.03C9.26417 139.751 9.79209 139.61 10.5161 139.608H12.2296V139.28C12.2429 139.086 12.2151 138.892 12.1481 138.709C12.081 138.527 11.9762 138.36 11.8404 138.221C11.5206 137.959 11.1125 137.83 10.7001 137.86C10.365 137.859 10.0323 137.916 9.71667 138.028C9.41881 138.131 9.14335 138.289 8.90519 138.495L8.57637 137.95C8.86752 137.71 9.20248 137.528 9.56283 137.414C9.9523 137.287 10.3597 137.223 10.7695 137.224C11.3585 137.184 11.9403 137.372 12.3925 137.751ZM11.5719 141.845C11.8726 141.651 12.103 141.366 12.2296 141.032V140.15H10.5372C9.6141 140.15 9.15256 140.471 9.15256 141.113C9.14887 141.257 9.17952 141.399 9.24195 141.528C9.30438 141.658 9.3968 141.77 9.51154 141.857C9.8077 142.054 10.1606 142.149 10.5161 142.128C10.8882 142.139 11.2554 142.04 11.5719 141.845Z" fill="#F8F8F8"/><path d="M21.4393 137.267V142.648H20.7123V137.911H17.3276V142.648H16.5916V137.267H21.4393Z" fill="#F8F8F8"/><path d="M29.2857 137.267V142.649H28.5587V140.406C27.9817 140.669 27.3558 140.809 26.7215 140.816C26.1821 140.847 25.6486 140.689 25.2132 140.37C25.026 140.204 24.8796 139.998 24.7854 139.767C24.6912 139.535 24.6518 139.286 24.6702 139.037V137.267H25.3972V138.994C25.3885 139.165 25.4191 139.335 25.4865 139.491C25.554 139.648 25.6566 139.787 25.7863 139.897C26.1002 140.118 26.4804 140.224 26.8633 140.198C27.4522 140.18 28.0315 140.045 28.5677 139.801V137.243L29.2857 137.267Z" fill="#F8F8F8"/><path d="M36.5378 137.751C36.7358 137.958 36.8883 138.204 36.9855 138.473C37.0827 138.742 37.1223 139.028 37.1019 139.313V142.649H36.4051V141.809C36.2339 142.094 35.982 142.322 35.6811 142.465C35.3262 142.629 34.938 142.71 34.5468 142.7C34.0327 142.726 33.5252 142.574 33.1109 142.269C32.9467 142.133 32.814 141.964 32.7218 141.772C32.6296 141.58 32.58 141.371 32.5766 141.158C32.5732 140.945 32.6159 140.734 32.7019 140.539C32.7878 140.345 32.915 140.171 33.0747 140.03C33.4065 139.751 33.9354 139.61 34.6614 139.608H36.3719V139.28C36.3852 139.086 36.3574 138.892 36.2904 138.709C36.2234 138.527 36.1185 138.36 35.9827 138.221C35.6638 137.96 35.2569 137.831 34.8455 137.86C34.5094 137.859 34.1757 137.916 33.859 138.028C33.5621 138.131 33.2876 138.289 33.0505 138.495L32.7217 137.95C33.0118 137.71 33.3457 137.528 33.7052 137.414C34.0947 137.287 34.502 137.223 34.9118 137.225C35.5017 137.183 36.0846 137.372 36.5378 137.751ZM35.7173 141.845C36.0169 141.651 36.2464 141.366 36.3719 141.032V140.15H34.6916C33.7685 140.15 33.307 140.471 33.307 141.113C33.3033 141.257 33.3339 141.399 33.3964 141.528C33.4588 141.658 33.5512 141.77 33.6659 141.857C33.9635 142.054 34.3171 142.149 34.6735 142.128C35.0415 142.136 35.4041 142.038 35.7173 141.845Z" fill="#F8F8F8"/><path d="M41.5666 142.348C41.1524 142.12 40.8098 141.783 40.5771 141.372C40.3353 140.939 40.2115 140.45 40.2181 139.955C40.2103 139.461 40.3342 138.974 40.5771 138.543C40.81 138.134 41.1526 137.797 41.5666 137.571C42.0064 137.334 42.4998 137.214 42.9995 137.222C43.4303 137.214 43.8569 137.307 44.2454 137.493C44.6052 137.668 44.9061 137.944 45.1112 138.287L44.5682 138.654C44.401 138.397 44.1676 138.189 43.8924 138.052C43.6102 137.917 43.3004 137.849 42.9874 137.854C42.6196 137.848 42.2567 137.938 41.9346 138.116C41.625 138.286 41.3722 138.544 41.2076 138.856C41.035 139.196 40.9451 139.572 40.9451 139.953C40.9451 140.334 41.035 140.71 41.2076 141.05C41.3742 141.36 41.6265 141.616 41.9346 141.788C42.2567 141.965 42.6196 142.055 42.9874 142.05C43.3 142.054 43.6095 141.987 43.8924 141.854C44.1687 141.719 44.4024 141.511 44.5682 141.252L45.1112 141.619C44.9053 141.964 44.602 142.24 44.2393 142.414C43.8526 142.599 43.4282 142.691 42.9995 142.685C42.5007 142.698 42.007 142.582 41.5666 142.348Z" fill="#F8F8F8"/><path d="M51.9109 137.911H49.8716V142.648H49.1416V137.911H47.1023V137.267H51.9109V137.911Z" fill="#F8F8F8"/><path d="M54.6711 137.267H55.3982V141.544L59.0001 137.267H59.6456V142.648H58.9186V138.371L55.3288 142.648H54.6711V137.267Z" fill="#F8F8F8"/><path d="M73.0817 142.013V143.949H72.4V142.649H67.5733V143.949H66.8855V142.013H67.1872C67.5492 141.992 67.7905 141.728 67.9263 141.216C68.0808 140.509 68.1697 139.79 68.1917 139.067L68.2641 137.261H72.2431V142.007L73.0817 142.013ZM68.6593 140.996C68.6199 141.386 68.4385 141.748 68.1495 142.013H71.5131V137.911H68.9157L68.8554 139.115C68.8354 139.746 68.7699 140.375 68.6593 140.996Z" fill="#F8F8F8"/><path d="M80.6084 137.267V142.648H79.8814V137.911H77.2961L77.2237 139.241C77.2087 140.114 77.0779 140.982 76.8345 141.821C76.6334 142.423 76.2684 142.724 75.7395 142.724C75.5618 142.719 75.3854 142.691 75.2146 142.642L75.2659 142.016C75.3499 142.038 75.4357 142.052 75.5223 142.058C75.6545 142.061 75.7848 142.026 75.8976 141.957C76.0104 141.889 76.1011 141.789 76.1588 141.67C76.315 141.37 76.4122 141.043 76.4454 140.707C76.4937 140.325 76.5329 139.819 76.5691 139.202L76.6596 137.279L80.6084 137.267Z" fill="#F8F8F8"/><path d="M88.527 137.267V142.649H87.8603V140.867H85.9749L84.7109 142.649H83.9236L85.266 140.764C84.8877 140.673 84.5492 140.461 84.3007 140.162C84.0683 139.858 83.9489 139.482 83.9628 139.1C83.9453 138.84 83.9911 138.579 84.0961 138.34C84.2011 138.101 84.3624 137.891 84.5661 137.727C85.06 137.39 85.6518 137.225 86.2494 137.258L88.527 137.267ZM86.2313 140.325H87.8603V137.917H86.2766C85.2228 137.917 84.6958 138.318 84.6958 139.121C84.7019 139.94 85.2117 140.325 86.2313 140.325Z" fill="#F8F8F8"/><path d="M97.5168 142.348C97.1026 142.12 96.76 141.783 96.5273 141.372C96.2855 140.939 96.1617 140.45 96.1683 139.955C96.1605 139.461 96.2844 138.973 96.5273 138.543C96.7602 138.133 97.1029 137.797 97.5168 137.571C97.9565 137.338 98.4488 137.22 98.9467 137.231C99.3774 137.223 99.8039 137.316 100.193 137.501C100.552 137.677 100.853 137.953 101.058 138.296L100.515 138.663C100.348 138.405 100.113 138.197 99.8366 138.061C99.5546 137.926 99.2447 137.858 98.9316 137.863C98.5638 137.857 98.2009 137.947 97.8788 138.125C97.5691 138.295 97.3164 138.553 97.1518 138.865C96.9792 139.205 96.8893 139.581 96.8893 139.962C96.8893 140.343 96.9792 140.719 97.1518 141.059C97.3168 141.371 97.5696 141.627 97.8788 141.797C98.2065 141.972 98.5749 142.059 98.9467 142.047C99.2594 142.051 99.569 141.984 99.8517 141.851C100.129 141.717 100.364 141.508 100.53 141.249L101.073 141.616C100.867 141.96 100.564 142.236 100.202 142.411C99.8148 142.595 99.3904 142.688 98.9618 142.682C98.4592 142.698 97.9611 142.582 97.5168 142.348Z" fill="#F8F8F8"/><path d="M109.01 137.267V142.648H108.298V137.911H104.895V142.648H104.168V137.267H109.01Z" fill="#F8F8F8"/><path d="M117.502 140.183H112.977C112.988 140.441 113.051 140.693 113.162 140.926C113.273 141.159 113.43 141.367 113.623 141.538C114.032 141.89 114.56 142.075 115.101 142.056C115.418 142.059 115.732 141.998 116.024 141.875C116.304 141.757 116.552 141.577 116.751 141.348L117.161 141.821C116.918 142.109 116.607 142.334 116.256 142.474C115.83 142.642 115.372 142.718 114.914 142.696C114.456 142.674 114.007 142.556 113.599 142.348C113.182 142.12 112.836 141.781 112.6 141.369C112.356 140.939 112.232 140.452 112.241 139.958C112.233 139.465 112.351 138.979 112.585 138.546C112.802 138.141 113.128 137.804 113.526 137.574C113.937 137.339 114.404 137.218 114.878 137.225C115.349 137.218 115.812 137.339 116.22 137.574C116.615 137.803 116.937 138.138 117.152 138.54C117.385 138.976 117.502 139.464 117.493 139.958L117.502 140.183ZM113.581 138.344C113.223 138.684 113.008 139.147 112.977 139.639H116.802C116.772 139.147 116.557 138.684 116.199 138.344C115.837 138.024 115.37 137.848 114.887 137.848C114.403 137.848 113.936 138.024 113.575 138.344H113.581Z" fill="#F8F8F8"/><path d="M126.447 142.013V144H125.759V142.648H120.827V137.267H121.554V142.013H124.845V137.267H125.575V142.013H126.447Z" fill="#F8F8F8"/><path d="M133.337 137.911H131.294V142.648H130.567V137.911H128.525V137.267H133.352L133.337 137.911Z" fill="#F8F8F8"/><path d="M140.577 140.183H136.052C136.062 140.441 136.125 140.694 136.236 140.926C136.347 141.159 136.504 141.367 136.697 141.538C137.106 141.891 137.635 142.076 138.175 142.055C138.491 142.059 138.805 141.998 139.095 141.875C139.376 141.757 139.625 141.577 139.826 141.348L140.236 141.821C139.992 142.109 139.681 142.333 139.331 142.474C138.956 142.628 138.554 142.704 138.148 142.7C137.635 142.71 137.128 142.589 136.676 142.347C136.258 142.12 135.912 141.781 135.675 141.369C135.432 140.939 135.308 140.451 135.316 139.957C135.307 139.465 135.426 138.979 135.66 138.546C135.877 138.14 136.204 137.803 136.604 137.574C137.014 137.339 137.479 137.218 137.952 137.224C138.423 137.217 138.887 137.338 139.295 137.574C139.69 137.803 140.014 138.137 140.23 138.54C140.461 138.976 140.578 139.464 140.568 139.957L140.577 140.183ZM136.655 138.344C136.297 138.684 136.082 139.147 136.052 139.638H139.883C139.853 139.147 139.637 138.684 139.28 138.344C138.923 138.011 138.449 137.833 137.961 137.847C137.477 137.834 137.007 138.012 136.655 138.344Z" fill="#F8F8F8"/><path d="M147.114 142.648L145.403 140.397L143.678 142.648H142.857L144.99 139.885L142.96 137.267H143.78L145.4 139.374L147.02 137.267H147.817L145.786 139.885L147.94 142.648H147.114Z" fill="#F8F8F8"/><path d="M150.833 137.267H151.56V139.639H154.957V137.255H155.684V142.649H154.957V140.274H151.563V142.649H150.833V137.267Z" fill="#F8F8F8"/><path d="M159.461 137.267H160.185V141.544L163.805 137.267H164.451V142.648H163.723V138.371L160.119 142.648H159.461V137.267Z" fill="#F8F8F8"/><path d="M170.179 140.24H168.948V142.648H168.221V137.267H168.948V139.638H170.191L172.089 137.276H172.876L170.764 139.885L173.039 142.657H172.179L170.179 140.24Z" fill="#F8F8F8"/><path d="M175.872 137.267H176.599V141.544L180.2 137.267H180.846V142.648H180.116V138.371L176.538 142.648H175.872V137.267Z" fill="#F8F8F8"/></g><defs><clipPath id="clip0_145_3698"><rect width="181" height="144" fill="white"/></clipPath></defs></svg>