<svg width="194" height="155" viewBox="0 0 194 155" fill="none" xmlns="http://www.w3.org/2000/svg"><g clip-path="url(#clip0_145_6688)"><path d="M97.0003 5.97762L64.667 24.6816V62.0927L97.0003 80.7998L129.334 62.0927V24.6816L97.0003 5.97762Z" fill="#FFCD11"/><path d="M129.334 17.2006L122.867 13.4618L116.4 9.71969L109.934 5.97761L103.467 2.24201L101.85 1.30568C100.376 0.452594 98.7029 0.00348663 97.0002 0.00348663C95.2975 0.00348663 93.6248 0.452594 92.1502 1.30568L90.5335 2.24201L84.0669 5.98086L77.6002 9.72294L71.1335 13.465L64.6669 17.2039L58.2002 20.9459L71.1335 28.4301L77.6002 24.688L90.5335 17.2039L94.5752 14.8776C95.3125 14.4511 96.1488 14.2265 97.0002 14.2265C97.8515 14.2265 98.6879 14.4511 99.4252 14.8776L103.467 17.2006L116.4 24.6848L122.867 28.4269L129.334 32.1657L135.8 35.9078V20.9427L129.334 17.2006Z" fill="black"/><path d="M109.933 28.4236L103.466 24.6848L98.9396 22.067C98.3498 21.7257 97.6807 21.5461 96.9996 21.5461C96.3185 21.5461 95.6494 21.7257 95.0596 22.067L90.5329 24.6848L84.0663 28.4236L77.5996 32.1657L90.5329 39.6499L95.3829 36.8441C95.8745 36.5598 96.432 36.4101 96.9996 36.4101C97.5672 36.4101 98.1247 36.5598 98.6163 36.8441L103.466 39.6499L109.933 43.3887L116.4 47.1308L122.866 50.8697L129.333 54.6117L135.8 58.3538V43.3887L122.866 35.9078L109.933 28.4236Z" fill="black"/><path d="M122.867 58.3506L116.4 62.0927L103.467 69.5768L99.4252 71.8998C98.6879 72.3264 97.8515 72.5509 97.0002 72.5509C96.1488 72.5509 95.3125 72.3264 94.5752 71.8998L90.5335 69.5768L77.6002 62.0927L71.1335 58.3506L64.6669 54.6117L58.2002 50.8697V65.8348L64.6669 69.5768L71.1335 73.3157L77.6002 77.0577L84.0669 80.7998L90.5335 84.5354L92.1502 85.4718C93.6248 86.3249 95.2975 86.774 97.0002 86.774C98.7029 86.774 100.376 86.3249 101.85 85.4718L103.467 84.5354L109.934 80.7966L122.867 73.3124L129.334 69.5736L135.8 65.8315L122.867 58.3473V58.3506Z" fill="black"/><path d="M58.2002 43.3887L71.1335 50.8697L84.0669 58.3538L90.5335 62.0927L95.0602 64.7137C95.65 65.055 96.3191 65.2346 97.0002 65.2346C97.6813 65.2346 98.3504 65.055 98.9402 64.7137L103.467 62.0959L109.934 58.3571L116.4 54.615L103.467 47.1308L98.6169 49.9366C98.1253 50.2209 97.5678 50.3706 97.0002 50.3706C96.4326 50.3706 95.8751 50.2209 95.3835 49.9366L90.5335 47.1308L84.0669 43.3887L77.6002 39.6466L71.1335 35.9078L64.6669 32.1657L58.2002 28.4236V43.3887Z" fill="black"/><path d="M78.8159 126.006V137.699H72.6273V127.422C72.6273 126.67 72.3292 125.949 71.7987 125.417C71.2681 124.886 70.5485 124.587 69.7981 124.587H67.6738C67.6273 124.587 67.5812 124.596 67.5382 124.614C67.4953 124.632 67.4563 124.659 67.4235 124.692C67.3907 124.725 67.3648 124.764 67.3473 124.807C67.3298 124.851 67.321 124.897 67.3214 124.943V137.699H61.1328V122.471C61.1328 122.146 61.1969 121.823 61.3214 121.522C61.4459 121.221 61.6284 120.948 61.8584 120.718C62.0885 120.488 62.3615 120.305 62.662 120.181C62.9625 120.056 63.2845 119.992 63.6095 119.993H72.8019C74.3949 119.992 75.9232 120.625 77.0508 121.752C78.1785 122.88 78.8133 124.41 78.8159 126.006Z" fill="black"/><path d="M52.4805 128.818V128.815L59.3708 119.98H52.639L49.1146 124.503L45.5935 119.98H38.8585L45.7487 128.818L38.8262 137.699H45.5547L49.1146 133.134L52.6778 137.699H59.4063L52.4805 128.818Z" fill="black"/><path d="M32.5109 130.811H36.517C36.7493 130.811 36.9792 130.765 37.1938 130.676C37.4084 130.587 37.6034 130.456 37.7676 130.292C37.9318 130.127 38.0621 129.932 38.151 129.717C38.2399 129.502 38.2856 129.271 38.2856 129.039V125.011C38.2856 123.678 37.7569 122.399 36.8159 121.456C35.8748 120.513 34.5984 119.983 33.2675 119.983H25.6207C24.2898 119.983 23.0134 120.513 22.0723 121.456C21.1312 122.399 20.6025 123.678 20.6025 125.011C20.6025 125.011 20.6025 132.956 20.6219 133.092C20.728 134.347 21.3005 135.518 22.2261 136.371C23.1517 137.224 24.3631 137.698 25.6207 137.699H38.2856V133.092H28.2623C27.8876 133.092 27.5282 132.943 27.2632 132.677C26.9982 132.412 26.8493 132.051 26.8493 131.676V130.811H32.5109ZM26.8526 126.006C26.8526 125.63 27.0013 125.27 27.2662 125.004C27.5311 124.738 27.8905 124.588 28.2655 124.587H31.0947C31.4703 124.587 31.8305 124.737 32.0961 125.003C32.3617 125.269 32.5109 125.63 32.5109 126.006V126.913H26.8526V126.006Z" fill="black"/><path d="M93.4696 119.983H89.2404C86.9894 119.983 84.8306 120.879 83.2389 122.474C81.6472 124.069 80.7529 126.232 80.7529 128.488V129.194C80.7529 130.311 80.9725 131.417 81.399 132.449C81.8255 133.481 82.4507 134.418 83.2389 135.208C84.027 135.998 84.9627 136.624 85.9924 137.052C87.0222 137.479 88.1258 137.699 89.2404 137.699H93.4826C95.7336 137.699 97.8924 136.803 99.4841 135.208C101.076 133.613 101.97 131.45 101.97 129.194V128.488C101.97 127.37 101.75 126.263 101.323 125.23C100.895 124.198 100.269 123.259 99.4796 122.47C98.6901 121.68 97.7529 121.053 96.7216 120.627C95.6904 120.2 94.5853 119.981 93.4696 119.983ZM94.8858 129.894C94.8858 130.313 94.8034 130.728 94.6433 131.115C94.4832 131.502 94.2486 131.853 93.9528 132.149C93.657 132.446 93.3059 132.68 92.9195 132.84C92.5331 133 92.1191 133.083 91.701 133.082H90.9961C90.578 133.083 90.164 133 89.7776 132.84C89.3912 132.68 89.0401 132.446 88.7443 132.149C88.4485 131.853 88.2139 131.502 88.0538 131.115C87.8937 130.728 87.8113 130.313 87.8113 129.894V128.122C87.8122 127.276 88.1481 126.465 88.7452 125.867C89.3424 125.27 90.152 124.934 90.9961 124.934H91.701C92.5451 124.934 93.3547 125.27 93.9519 125.867C94.5491 126.465 94.885 127.276 94.8858 128.122V129.894Z" fill="black"/><path d="M159.727 119.983H154.356C153.343 119.983 152.341 120.183 151.405 120.571C150.469 120.96 149.619 121.529 148.903 122.246C148.187 122.964 147.619 123.816 147.232 124.753C146.844 125.691 146.645 126.696 146.645 127.71V137.699H153.716V128.274C153.716 127.299 154.102 126.365 154.79 125.675C155.477 124.985 156.41 124.598 157.382 124.597H159.727V119.983Z" fill="black"/><path d="M175.095 133.092C174.122 133.092 173.19 132.705 172.502 132.016C171.814 131.327 171.428 130.392 171.428 129.418V124.587H175.67V119.983H171.428V114.666H164.354V119.983H161.524V124.587H164.354V129.972C164.354 130.987 164.553 131.992 164.941 132.93C165.329 133.867 165.897 134.719 166.613 135.437C167.33 136.154 168.18 136.724 169.116 137.112C170.052 137.5 171.055 137.699 172.068 137.699H176.378V133.092H175.095Z" fill="black"/><path d="M194 119.983H182.182C181.625 119.983 181.073 120.092 180.558 120.306C180.042 120.519 179.574 120.832 179.18 121.227C178.786 121.622 178.473 122.091 178.26 122.606C178.046 123.122 177.937 123.675 177.937 124.234C177.937 125.32 178.274 126.378 178.9 127.264C179.527 128.15 180.413 128.818 181.435 129.178L188.655 131.715C188.811 131.771 188.943 131.881 189.026 132.025C189.11 132.168 189.141 132.337 189.113 132.501C189.085 132.665 189.001 132.814 188.875 132.922C188.748 133.03 188.588 133.09 188.422 133.092H177.937V137.699H189.758C190.881 137.699 191.959 137.252 192.754 136.457C193.549 135.662 193.997 134.584 194 133.458V131.738C194 130.857 193.726 129.998 193.218 129.279C192.709 128.56 191.99 128.018 191.161 127.727L184.222 125.287C184.145 125.258 184.08 125.203 184.039 125.131C183.997 125.059 183.982 124.975 183.996 124.894C184.01 124.812 184.052 124.738 184.114 124.684C184.177 124.629 184.256 124.599 184.339 124.597H194V119.983Z" fill="black"/><path d="M24.7544 114.666H15.9145H8.83993H0V119.27H8.83993V137.699H15.9145V119.27H24.7544V114.666Z" fill="black"/><path d="M104.957 119.627V137.699H112.028V129.551H121.224C121.874 129.551 122.518 129.422 123.119 129.173C123.72 128.923 124.266 128.558 124.725 128.097C125.185 127.636 125.55 127.088 125.798 126.486C126.047 125.884 126.175 125.239 126.174 124.587V119.627C126.174 118.311 125.653 117.05 124.724 116.119C123.796 115.189 122.537 114.666 121.224 114.666H109.907C108.594 114.666 107.335 115.189 106.407 116.119C105.479 117.05 104.957 118.311 104.957 119.627ZM112.028 124.943V119.983C112.028 119.795 112.103 119.615 112.236 119.481C112.369 119.348 112.549 119.274 112.736 119.274H116.982C117.544 119.274 118.084 119.498 118.482 119.896C118.879 120.295 119.103 120.835 119.103 121.399V122.818C119.103 123.382 118.879 123.922 118.482 124.321C118.084 124.72 117.544 124.943 116.982 124.943H112.028Z" fill="black"/><path d="M144.701 124.587C144.593 123.332 144.02 122.162 143.094 121.31C142.168 120.458 140.956 119.984 139.699 119.983H128.806V124.587H137.054C137.43 124.587 137.79 124.737 138.055 125.003C138.321 125.269 138.47 125.63 138.47 126.006V126.871H130.927C129.898 126.871 128.911 127.281 128.183 128.01C127.456 128.739 127.047 129.728 127.047 130.759V133.792C127.047 134.823 127.456 135.812 128.183 136.541C128.911 137.27 129.898 137.68 130.927 137.68H142.111C142.802 137.68 143.465 137.404 143.954 136.915C144.442 136.425 144.717 135.761 144.717 135.068V132.651C144.717 132.651 144.711 124.726 144.701 124.587ZM137.054 133.092H133.973C133.815 133.1 133.658 133.076 133.51 133.022C133.362 132.967 133.227 132.883 133.113 132.774C132.998 132.666 132.907 132.535 132.845 132.39C132.783 132.244 132.751 132.088 132.751 131.93C132.751 131.772 132.783 131.616 132.845 131.471C132.907 131.326 132.998 131.195 133.113 131.086C133.227 130.978 133.362 130.894 133.51 130.839C133.658 130.784 133.815 130.76 133.973 130.769H138.47V131.676C138.47 131.862 138.434 132.047 138.362 132.219C138.291 132.391 138.187 132.547 138.055 132.678C137.924 132.81 137.768 132.914 137.596 132.985C137.424 133.056 137.24 133.092 137.054 133.092Z" fill="black"/><path d="M5.46154 150.195C5.7515 150.524 5.90734 150.949 5.89804 151.388C5.90327 151.817 5.75409 152.235 5.47771 152.564C5.18283 152.916 4.80025 153.184 4.36868 153.341C3.88779 153.525 3.3766 153.616 2.86194 153.61C2.34862 153.611 1.83864 153.527 1.35197 153.364C0.863916 153.202 0.41082 152.949 0.0166016 152.619L0.310836 152.036C0.652876 152.32 1.0441 152.54 1.46514 152.683C1.8862 152.83 2.32877 152.906 2.77463 152.907C3.16816 152.912 3.55927 152.845 3.92894 152.709C4.25299 152.596 4.54247 152.4 4.76961 152.142C4.98201 151.901 5.09726 151.589 5.09294 151.268C5.10205 151.064 5.05828 150.861 4.96591 150.68C4.87353 150.498 4.73571 150.343 4.5659 150.231C4.11894 149.963 3.60168 149.836 3.08181 149.868H1.4328V149.22H3.04947C3.49941 149.246 3.94558 149.124 4.32017 148.873C4.46955 148.761 4.5892 148.614 4.66867 148.444C4.74814 148.275 4.78501 148.088 4.77607 147.901C4.78113 147.687 4.73004 147.476 4.62792 147.287C4.5258 147.099 4.3762 146.941 4.19407 146.829C3.75652 146.553 3.2459 146.416 2.72937 146.437C2.35412 146.438 1.98085 146.491 1.62034 146.596C1.24361 146.704 0.884268 146.865 0.553336 147.075L0.278501 146.405C1.02453 145.953 1.88045 145.716 2.75201 145.721C3.23996 145.715 3.72472 145.801 4.18114 145.974C4.58299 146.12 4.93816 146.372 5.20933 146.703C5.46226 147.017 5.59727 147.41 5.59088 147.814C5.59899 148.197 5.47827 148.571 5.24814 148.877C5.00346 149.192 4.66303 149.42 4.27814 149.525C4.73279 149.619 5.14659 149.853 5.46154 150.195Z" fill="black"/><path d="M13.2827 148.274C13.4956 148.496 13.6595 148.761 13.7637 149.05C13.8679 149.34 13.91 149.648 13.8874 149.955V153.545H13.1405V152.641C12.9588 152.95 12.6883 153.196 12.3644 153.348C11.9852 153.525 11.5702 153.611 11.1519 153.6C10.6008 153.629 10.0568 153.466 9.61289 153.137C9.43697 152.991 9.29471 152.808 9.19586 152.602C9.09702 152.395 9.04393 152.17 9.04025 151.941C9.03656 151.712 9.08236 151.485 9.17451 151.275C9.26666 151.066 9.40296 150.878 9.57408 150.727C9.92975 150.426 10.4956 150.275 11.2716 150.273H13.1081V149.92C13.1224 149.711 13.0926 149.502 13.0208 149.305C12.9489 149.109 12.8366 148.929 12.691 148.779C12.3482 148.498 11.9108 148.359 11.4688 148.391C11.1097 148.39 10.7531 148.451 10.4147 148.572C10.0955 148.682 9.80025 148.853 9.54498 149.074L9.19255 148.488C9.5046 148.229 9.86363 148.033 10.2499 147.911C10.6673 147.774 11.104 147.705 11.5432 147.707C12.1745 147.663 12.7981 147.866 13.2827 148.274ZM12.4032 152.68C12.7255 152.472 12.9725 152.165 13.1081 151.805V150.856H11.2942C10.3048 150.856 9.81012 151.202 9.81012 151.893C9.80617 152.047 9.83901 152.201 9.90593 152.34C9.97284 152.479 10.0719 152.6 10.1949 152.693C10.5123 152.906 10.8905 153.008 11.2716 152.985C11.6704 152.997 12.064 152.891 12.4032 152.68Z" fill="black"/><path d="M22.9792 147.752V153.545H22.1999V148.446H18.5721V153.545H17.7832V147.752H22.9792Z" fill="black"/><path d="M31.3892 147.752V153.545H30.61V151.132C29.9916 151.415 29.3208 151.565 28.6409 151.572C28.0627 151.606 27.4909 151.436 27.0242 151.093C26.8235 150.914 26.6666 150.692 26.5657 150.443C26.4647 150.194 26.4225 149.925 26.4422 149.657V147.752H27.2215V149.612C27.2121 149.795 27.2449 149.978 27.3172 150.147C27.3895 150.315 27.4995 150.465 27.6386 150.584C27.975 150.821 28.3824 150.936 28.7929 150.908C29.424 150.888 30.045 150.743 30.6197 150.48V147.726L31.3892 147.752Z" fill="black"/><path d="M39.1619 148.274C39.3742 148.496 39.5376 148.761 39.6418 149.051C39.7459 149.34 39.7884 149.648 39.7666 149.955V153.545H39.0197V152.641C38.8362 152.948 38.5662 153.194 38.2437 153.348C37.8633 153.525 37.4472 153.611 37.0279 153.6C36.4769 153.629 35.933 153.465 35.4889 153.137C35.3129 152.991 35.1707 152.808 35.0718 152.602C34.973 152.395 34.9199 152.17 34.9162 151.941C34.9125 151.712 34.9583 151.485 35.0505 151.275C35.1426 151.066 35.2789 150.878 35.4501 150.727C35.8057 150.426 36.3726 150.275 37.1508 150.273H38.9841V149.92C38.9984 149.711 38.9686 149.502 38.8967 149.305C38.8249 149.109 38.7125 148.929 38.567 148.779C38.2252 148.498 37.789 148.359 37.348 148.391C36.9878 148.39 36.6302 148.451 36.2907 148.572C35.9724 148.682 35.6783 148.853 35.4242 149.074L35.0718 148.488C35.3826 148.229 35.7406 148.033 36.1258 147.911C36.5433 147.774 36.9799 147.705 37.4192 147.707C38.0514 147.663 38.6762 147.866 39.1619 148.274ZM38.2825 152.68C38.6036 152.471 38.8495 152.165 38.9841 151.805V150.856H37.1831C36.1937 150.856 35.699 151.202 35.699 151.893C35.6951 152.047 35.7279 152.201 35.7948 152.34C35.8618 152.479 35.9608 152.6 36.0838 152.693C36.4027 152.905 36.7817 153.007 37.1637 152.985C37.5582 152.994 37.9468 152.888 38.2825 152.68Z" fill="black"/><path d="M44.5521 153.221C44.1082 152.977 43.741 152.613 43.4916 152.172C43.2324 151.705 43.0997 151.179 43.1068 150.646C43.0984 150.114 43.2312 149.589 43.4916 149.126C43.7412 148.685 44.1085 148.323 44.5521 148.08C45.0235 147.825 45.5523 147.695 46.088 147.704C46.5497 147.696 47.0069 147.795 47.4233 147.995C47.809 148.184 48.1315 148.481 48.3513 148.851L47.7693 149.246C47.5901 148.969 47.34 148.745 47.045 148.598C46.7425 148.453 46.4105 148.379 46.075 148.384C45.6808 148.378 45.2918 148.475 44.9466 148.666C44.6147 148.85 44.3438 149.127 44.1674 149.463C43.9824 149.829 43.886 150.234 43.886 150.644C43.886 151.054 43.9824 151.459 44.1674 151.825C44.346 152.159 44.6164 152.434 44.9466 152.619C45.2918 152.81 45.6808 152.907 46.075 152.901C46.4101 152.905 46.7417 152.833 47.045 152.69C47.3411 152.544 47.5916 152.32 47.7693 152.042L48.3513 152.437C48.1307 152.808 47.8056 153.106 47.4169 153.293C47.0023 153.491 46.5475 153.591 46.088 153.584C45.5533 153.598 45.0242 153.473 44.5521 153.221Z" fill="black"/><path d="M55.6393 148.446H53.4535V153.545H52.6711V148.446H50.4854V147.752H55.6393V148.446Z" fill="black"/><path d="M58.5977 147.752H59.3769V152.356L63.2375 147.752H63.9294V153.545H63.1502V148.941L59.3025 153.545H58.5977V147.752Z" fill="black"/><path d="M78.3307 152.862V154.945H77.6V153.545H72.4267V154.945H71.6895V152.862H72.0128C72.4008 152.839 72.6595 152.554 72.805 152.003C72.9706 151.242 73.0659 150.468 73.0895 149.69L73.1671 147.746H77.4319V152.855L78.3307 152.862ZM73.5907 151.767C73.5484 152.186 73.354 152.576 73.0442 152.862H76.6494V148.446H73.8655L73.8008 149.742C73.7794 150.421 73.7092 151.098 73.5907 151.767Z" fill="black"/><path d="M86.3984 147.752V153.545H85.6191V148.446H82.8482L82.7706 149.878C82.7545 150.818 82.6143 151.751 82.3535 152.654C82.1379 153.302 81.7467 153.626 81.1798 153.626C80.9893 153.621 80.8003 153.592 80.6172 153.539L80.6721 152.865C80.7622 152.888 80.8542 152.903 80.947 152.91C81.0887 152.913 81.2283 152.876 81.3492 152.802C81.4702 152.727 81.5674 152.62 81.6292 152.492C81.7966 152.17 81.9009 151.818 81.9364 151.456C81.9881 151.044 82.0302 150.5 82.069 149.836L82.1659 147.765L86.3984 147.752Z" fill="black"/><path d="M94.8852 147.752V153.545H94.1707V151.627H92.1498L90.7951 153.545H89.9512L91.39 151.517C90.9845 151.418 90.6217 151.191 90.3553 150.869C90.1063 150.541 89.9783 150.137 89.9932 149.725C89.9745 149.445 90.0235 149.165 90.1361 148.907C90.2486 148.65 90.4215 148.424 90.6399 148.248C91.1692 147.885 91.8035 147.707 92.4441 147.743L94.8852 147.752ZM92.4247 151.044H94.1707V148.452H92.4732C91.3437 148.452 90.7789 148.884 90.7789 149.748C90.7854 150.629 91.3318 151.044 92.4247 151.044Z" fill="black"/><path d="M104.521 153.221C104.077 152.977 103.71 152.613 103.46 152.172C103.201 151.705 103.068 151.179 103.076 150.646C103.067 150.114 103.2 149.589 103.46 149.126C103.71 148.685 104.077 148.323 104.521 148.08C104.992 147.829 105.52 147.703 106.053 147.713C106.515 147.706 106.972 147.805 107.389 148.005C107.775 148.194 108.097 148.491 108.317 148.86L107.735 149.256C107.555 148.978 107.304 148.754 107.007 148.608C106.705 148.462 106.373 148.388 106.037 148.394C105.643 148.388 105.254 148.485 104.909 148.676C104.577 148.859 104.306 149.136 104.13 149.473C103.945 149.839 103.848 150.243 103.848 150.654C103.848 151.064 103.945 151.469 104.13 151.835C104.307 152.17 104.577 152.446 104.909 152.628C105.26 152.817 105.655 152.91 106.053 152.897C106.389 152.902 106.72 152.83 107.023 152.687C107.321 152.542 107.573 152.318 107.751 152.039L108.333 152.434C108.111 152.804 107.787 153.102 107.399 153.289C106.984 153.488 106.529 153.588 106.07 153.581C105.531 153.598 104.997 153.474 104.521 153.221Z" fill="black"/><path d="M116.84 147.752V153.545H116.077V148.446H112.43V153.545H111.65V147.752H116.84Z" fill="black"/><path d="M125.941 150.892H121.091C121.103 151.169 121.171 151.441 121.289 151.691C121.408 151.942 121.576 152.166 121.783 152.35C122.222 152.729 122.788 152.928 123.367 152.907C123.707 152.911 124.044 152.845 124.357 152.713C124.656 152.586 124.923 152.392 125.136 152.146L125.576 152.654C125.315 152.965 124.982 153.206 124.606 153.357C124.149 153.538 123.658 153.62 123.167 153.596C122.676 153.573 122.195 153.445 121.757 153.221C121.31 152.976 120.94 152.611 120.687 152.168C120.426 151.705 120.293 151.181 120.302 150.649C120.293 150.119 120.42 149.596 120.671 149.129C120.904 148.693 121.253 148.331 121.68 148.083C122.12 147.83 122.62 147.7 123.128 147.707C123.633 147.7 124.13 147.83 124.567 148.083C124.99 148.33 125.336 148.69 125.566 149.123C125.815 149.592 125.941 150.117 125.931 150.649L125.941 150.892ZM121.738 148.912C121.355 149.278 121.124 149.776 121.091 150.305H125.191C125.159 149.776 124.928 149.278 124.544 148.912C124.156 148.568 123.656 148.378 123.138 148.378C122.62 148.378 122.119 148.568 121.731 148.912H121.738Z" fill="black"/><path d="M135.529 152.862V155H134.791V153.545H129.505V147.752H130.284V152.862H133.812V147.752H134.594V152.862H135.529Z" fill="black"/><path d="M142.913 148.446H140.724V153.545H139.945V148.446H137.756V147.752H142.929L142.913 148.446Z" fill="black"/><path d="M150.674 150.892H145.824C145.835 151.169 145.902 151.441 146.021 151.692C146.14 151.942 146.308 152.166 146.515 152.35C146.954 152.73 147.52 152.929 148.1 152.907C148.438 152.911 148.774 152.845 149.086 152.713C149.386 152.586 149.654 152.392 149.868 152.146L150.308 152.654C150.047 152.965 149.714 153.206 149.338 153.357C148.936 153.523 148.505 153.606 148.071 153.6C147.521 153.612 146.978 153.481 146.493 153.221C146.045 152.976 145.674 152.612 145.419 152.168C145.159 151.705 145.027 151.18 145.035 150.649C145.026 150.119 145.153 149.596 145.403 149.129C145.636 148.693 145.987 148.33 146.415 148.083C146.855 147.83 147.354 147.7 147.861 147.707C148.365 147.699 148.863 147.829 149.299 148.083C149.723 148.33 150.07 148.69 150.302 149.123C150.55 149.592 150.675 150.118 150.664 150.649L150.674 150.892ZM146.47 148.912C146.087 149.278 145.856 149.776 145.824 150.305H149.93C149.897 149.776 149.666 149.278 149.283 148.912C148.901 148.554 148.393 148.362 147.87 148.378C147.351 148.363 146.848 148.555 146.47 148.912Z" fill="black"/><path d="M157.68 153.545L155.847 151.122L153.998 153.545H153.118L155.404 150.571L153.228 147.752H154.108L155.844 150.02L157.58 147.752H158.434L156.258 150.571L158.566 153.545H157.68Z" fill="black"/><path d="M161.667 147.752H162.446V150.305H166.087V147.739H166.866V153.545H166.087V150.989H162.449V153.545H161.667V147.752Z" fill="black"/><path d="M170.914 147.752H171.69V152.356L175.57 147.752H176.262V153.545H175.483V148.941L171.619 153.545H170.914V147.752Z" fill="black"/><path d="M182.402 150.953H181.083V153.545H180.304V147.752H181.083V150.305H182.415L184.449 147.762H185.293L183.029 150.571L185.467 153.555H184.546L182.402 150.953Z" fill="black"/><path d="M188.503 147.752H189.282V152.356L193.143 147.752H193.835V153.545H193.052V148.941L189.218 153.545H188.503V147.752Z" fill="black"/></g><defs><clipPath id="clip0_145_6688"><rect width="194" height="155" fill="white"/></clipPath></defs></svg>