<svg width="38" height="36" viewBox="0 0 38 36" fill="none" xmlns="http://www.w3.org/2000/svg">
<path d="M8.3291 14.9629C8.3291 13.9885 8.3291 13.014 8.3291 12.0306C8.52636 11.3449 9.00542 10.8757 9.63477 10.5599C10.2078 10.2712 10.8089 10.0096 11.4195 9.8201C12.7628 9.39605 14.153 9.19756 15.562 9.08929C18.1357 8.89079 20.6813 9.00809 23.1893 9.59454C24.2602 9.83815 25.2934 10.172 26.1858 10.8216C26.6461 11.1464 27.0312 11.5524 27.0594 12.1208C27.097 13.0501 27.0688 13.9704 27.0594 14.8997C27.0594 15.008 27.0782 15.0711 27.1721 15.1253C27.7451 15.4772 28.196 15.9102 28.3557 16.5689C28.3557 17.5343 28.3557 18.4997 28.3557 19.4651C28.2242 19.8981 27.9893 20.2771 27.6136 20.5568C27.4445 20.6831 27.3694 20.7914 27.4633 20.9898C27.5009 21.0801 27.5009 21.1883 27.5009 21.2876C27.5009 22.1086 27.5009 22.9297 27.5009 23.7507C27.5009 24.0394 27.4069 24.3011 27.2473 24.5447C26.9748 24.9597 26.5803 25.2394 26.1482 25.483C25.1901 26.0153 24.1475 26.3131 23.0766 26.5296C21.1416 26.9266 19.1878 27.0529 17.2152 26.9807C15.4868 26.9176 13.7772 26.7281 12.1052 26.2589C11.241 26.0153 10.405 25.7086 9.67235 25.1853C9.08996 24.7612 8.72362 24.2379 8.76119 23.4981C8.78937 22.9387 8.76119 22.3703 8.77059 21.8109C8.77059 21.5583 8.7518 21.2966 8.79877 21.044C8.87391 20.5387 9.20268 20.1778 9.60659 19.862C9.70053 19.7899 9.72871 19.7267 9.69113 19.6094C9.64417 19.4651 9.62538 19.3117 9.62538 19.1673C9.62538 18.2921 9.63477 17.417 9.64417 16.5418C9.64417 16.4877 9.60659 16.4245 9.56902 16.3974C8.97724 16.0546 8.51697 15.6215 8.3291 14.9629ZM18.1639 14.7373C18.643 14.7102 19.5729 14.6651 20.4935 14.5749C21.7991 14.4486 23.086 14.205 24.3165 13.7629C24.8614 13.5644 25.3874 13.3298 25.8289 12.9509C26.2516 12.59 26.3361 12.2381 26.0731 11.8682C25.9979 11.7599 25.8946 11.6607 25.8007 11.5795C25.3686 11.2096 24.852 10.984 24.3259 10.7945C22.6351 10.181 20.8598 9.95544 19.0657 9.86522C17.2997 9.77499 15.5338 9.84717 13.7866 10.1269C12.697 10.2983 11.6262 10.5509 10.6211 10.993C10.1702 11.1915 9.7381 11.4171 9.40933 11.796C9.12753 12.1208 9.11814 12.4546 9.40933 12.7795C9.55963 12.9328 9.71931 13.0862 9.90718 13.2035C10.6399 13.6817 11.4665 13.9433 12.3119 14.1509C14.0778 14.5749 15.8907 14.7193 18.1639 14.7373ZM26.6649 15.7569C26.0731 16.3704 25.3592 16.7222 24.5983 16.9929C22.8136 17.6335 20.9443 17.8681 19.0469 17.9673C17.7882 18.0395 16.5295 18.0125 15.2802 17.8952C14.059 17.7779 12.8567 17.6064 11.6731 17.2636C11.2786 17.1463 10.8841 17.02 10.499 16.8937C10.4896 16.9027 10.4708 16.9117 10.4614 16.9207C10.5553 17.0561 10.6305 17.2095 10.7432 17.3267C11.1941 17.7959 11.7858 18.0485 12.387 18.2651C13.9087 18.8154 15.5056 19.05 17.1213 19.1583C19.0469 19.2936 20.9631 19.2305 22.87 18.9327C23.969 18.7613 25.0492 18.5177 26.0731 18.0666C26.5334 17.8681 26.9748 17.6335 27.3036 17.2546C27.5854 16.9207 27.5854 16.5689 27.2754 16.2621C27.0782 16.0817 26.8715 15.9283 26.6649 15.7569ZM10.1514 20.4124C10.0387 20.5477 9.90718 20.6741 9.79446 20.8184C9.55963 21.1162 9.55023 21.4049 9.77567 21.6936C9.85082 21.7928 9.94475 21.8831 10.0387 21.9643C10.4802 22.3342 10.9968 22.5597 11.5322 22.7582C13.0727 23.3176 14.6884 23.5522 16.3228 23.6515C18.2109 23.7778 20.0895 23.7236 21.9494 23.4259C23.0672 23.2545 24.1568 23.0109 25.1901 22.5597C25.6504 22.3613 26.0919 22.1267 26.4206 21.7477C26.5615 21.5853 26.6649 21.4139 26.6179 21.1793C26.3173 21.2966 26.0355 21.4139 25.7443 21.5131C24.2226 22.0455 22.6351 22.2801 21.0289 22.4064C18.9436 22.5688 16.8582 22.4966 14.8011 22.1537C13.1573 21.8921 11.5416 21.5222 10.1514 20.4124ZM19.4132 15.5042C19.4132 16.0456 19.4132 16.5869 19.4132 17.1373C19.9862 17.0831 20.5404 17.029 21.0946 16.9749C21.0946 16.4155 21.0946 15.8832 21.0946 15.3418C20.531 15.396 19.9862 15.4501 19.4132 15.5042ZM16.4168 26.1416C16.4168 25.5823 16.4168 25.0409 16.4168 24.5086C15.8532 24.4545 15.2989 24.4003 14.7353 24.3462C14.7353 24.8966 14.7353 25.4289 14.7353 25.9792C15.2896 26.0334 15.8438 26.0875 16.4168 26.1416ZM19.8359 26.1416C20.4089 26.0875 20.9631 26.0334 21.5267 25.9792C21.5267 25.4289 21.5267 24.8966 21.5267 24.3462C20.9537 24.4003 20.3995 24.4545 19.8359 24.5086C19.8359 25.0499 19.8359 25.5732 19.8359 26.1416ZM15.5807 21.4771C16.1443 21.5312 16.6986 21.5853 17.2715 21.6395C17.2715 21.071 17.2715 20.5387 17.2715 20.0064C16.7079 19.9523 16.1537 19.8981 15.5807 19.844C15.5807 20.3944 15.5807 20.9177 15.5807 21.4771ZM13.4485 16.8395C13.4485 16.2982 13.4485 15.7929 13.4391 15.2877C13.4391 15.2516 13.3639 15.1975 13.317 15.1794C12.8191 15.0621 12.3213 14.9539 11.814 14.8456C11.7952 14.8366 11.7671 14.8456 11.7295 14.8546C11.7295 15.2336 11.7295 15.6035 11.7295 15.9644C11.7295 16.4245 11.7295 16.4335 12.1898 16.5418C12.6031 16.6591 13.007 16.7403 13.4485 16.8395ZM24.9459 19.3478C24.3635 19.4741 23.8093 19.5914 23.2551 19.7177C23.2551 20.259 23.2551 20.7823 23.2551 21.3507C23.8093 21.2154 24.3353 21.0891 24.8613 20.9628C24.8989 20.9538 24.9459 20.8996 24.9459 20.8635C24.9459 20.3583 24.9459 19.862 24.9459 19.3478ZM13.8618 25.8349C13.8618 25.2665 13.8618 24.7432 13.8618 24.2108C13.2982 24.0845 12.7346 23.9672 12.1616 23.8409C12.1616 24.1838 12.1616 24.5086 12.1616 24.8334C12.1616 25.0319 12.1052 25.2845 12.1992 25.4108C12.2931 25.5371 12.5655 25.5371 12.7534 25.5823C13.1197 25.6815 13.4766 25.7537 13.8618 25.8349ZM18.1451 20.0425C18.1451 20.5838 18.1451 21.1162 18.1451 21.6665C18.7087 21.6665 19.2629 21.6665 19.8171 21.6665C19.8171 21.1162 19.8171 20.5838 19.8171 20.0425C19.2535 20.0425 18.7087 20.0425 18.1451 20.0425ZM18.9623 26.1777C18.9623 25.6183 18.9623 25.086 18.9623 24.5537C18.3987 24.5537 17.8445 24.5537 17.2997 24.5537C17.2997 25.095 17.2997 25.6274 17.2997 26.1777C17.8539 26.1777 18.3987 26.1777 18.9623 26.1777ZM18.5396 15.5403C17.9667 15.5403 17.4218 15.5403 16.8676 15.5403C16.8676 16.0907 16.8676 16.623 16.8676 17.1643C17.4312 17.1643 17.9854 17.1643 18.5396 17.1643C18.5396 16.623 18.5396 16.0907 18.5396 15.5403ZM14.2939 15.3418C14.2939 15.8651 14.2939 16.3704 14.3033 16.8756C14.3033 16.9117 14.3784 16.9749 14.4254 16.9839C14.942 17.038 15.4586 17.0922 15.9847 17.1463C15.9847 16.5869 15.9847 16.0456 15.9847 15.5042C15.4211 15.4501 14.8762 15.396 14.2939 15.3418ZM20.7001 20.0064C20.7001 20.5568 20.7001 21.0891 20.7001 21.6485C21.2261 21.5943 21.7334 21.5402 22.25 21.4951C22.3721 21.4861 22.3909 21.4229 22.3909 21.3237C22.3815 20.9989 22.3909 20.6741 22.3909 20.3493C22.3909 20.1869 22.3909 20.0245 22.3909 19.853C21.8085 19.8981 21.2637 19.9523 20.7001 20.0064ZM14.7072 19.7087C14.1342 19.5824 13.5894 19.4651 13.0164 19.3478C13.0164 19.862 13.0164 20.3583 13.0258 20.8545C13.0258 20.8906 13.1009 20.9538 13.1479 20.9628C13.3733 21.035 13.5988 21.0891 13.8242 21.1432C14.1154 21.2064 14.4066 21.2605 14.7072 21.3237C14.7072 20.7733 14.7072 20.25 14.7072 19.7087ZM24.0817 23.85C23.5369 23.9672 23.0109 24.0755 22.4848 24.1928C22.4379 24.2018 22.3909 24.3011 22.3909 24.3552C22.3815 24.7251 22.3909 25.095 22.3909 25.465C22.3909 25.5823 22.3909 25.6995 22.3909 25.8439C22.9827 25.7086 23.5369 25.5732 24.0911 25.4469C24.0817 24.9056 24.0817 24.3823 24.0817 23.85ZM23.6684 14.8456C23.1236 14.9629 22.5882 15.0711 22.0715 15.1884C22.0246 15.1975 21.9776 15.2787 21.9776 15.3328C21.9682 15.6305 21.9776 15.9193 21.9776 16.217C21.9776 16.4155 21.9776 16.614 21.9776 16.8486C22.5318 16.7132 23.0578 16.5869 23.5745 16.4606C23.612 16.4516 23.6684 16.3794 23.6684 16.3343C23.6684 15.8381 23.6684 15.3508 23.6684 14.8456ZM24.5232 16.1358C25.0116 15.9373 25.4531 15.7208 25.8383 15.396C26.1107 15.1614 26.261 14.8817 26.2328 14.5208C26.214 14.3042 26.2328 14.0877 26.2328 13.8621C26.2328 13.817 26.2234 13.7719 26.2234 13.7719C25.688 14.0245 25.1619 14.2682 24.6359 14.5208C24.5889 14.5388 24.542 14.611 24.542 14.6561C24.5138 15.1433 24.5232 15.6215 24.5232 16.1358ZM10.4708 18.2831C10.4708 18.5899 10.452 18.9327 10.4802 19.2756C10.4896 19.4109 10.5647 19.5643 10.6586 19.6816C11.0438 20.1598 11.5886 20.3944 12.171 20.647C12.171 20.1327 12.171 19.6365 12.171 19.1493C12.171 19.1132 12.124 19.0591 12.0864 19.041C11.5416 18.7794 11.0062 18.5358 10.4708 18.2831ZM9.62538 22.7853C9.62538 23.1011 9.61599 23.462 9.63477 23.8139C9.63477 23.9131 9.69113 24.0214 9.74749 24.1026C10.1326 24.6259 10.7056 24.8785 11.3162 25.1311C11.3162 24.6169 11.3162 24.1387 11.3162 23.6605C11.3162 23.6154 11.2692 23.5432 11.2222 23.5251C10.6868 23.2815 10.1514 23.0379 9.62538 22.7853ZM26.6273 22.7943C26.1013 23.0379 25.5565 23.2906 25.021 23.5432C24.9835 23.5612 24.9553 23.6154 24.9553 23.6605C24.9459 24.1477 24.9553 24.6349 24.9553 25.1492C25.5095 24.9236 26.0167 24.689 26.4112 24.265C26.5146 24.1567 26.6179 24.0124 26.6273 23.877C26.6461 23.4981 26.6273 23.1191 26.6273 22.7943ZM25.8007 20.638C26.2703 20.4485 26.7024 20.25 27.05 19.9432C27.2191 19.7899 27.4163 19.5914 27.4539 19.3929C27.5197 19.023 27.4727 18.635 27.4727 18.3012C26.9561 18.5448 26.43 18.7884 25.904 19.041C25.857 19.0591 25.8101 19.1312 25.8101 19.1763C25.8007 19.6455 25.8007 20.1237 25.8007 20.638ZM10.8841 16.1358C10.8841 15.6396 10.8841 15.1884 10.8841 14.7283C10.8841 14.602 10.8371 14.5478 10.7244 14.4937C10.2359 14.2591 9.75689 14.0065 9.27783 13.7629C9.24965 13.7539 9.22147 13.7449 9.18389 13.7268C9.18389 14.0336 9.19329 14.3223 9.18389 14.611C9.1745 14.8727 9.26843 15.0892 9.44691 15.2787C9.84143 15.6756 10.3393 15.9102 10.8841 16.1358Z" fill="#111C41" fill-opacity="0.3"/>
</svg>
