<svg width="38" height="36" viewBox="0 0 38 36" fill="none" xmlns="http://www.w3.org/2000/svg">
<path d="M19.2539 21.9883C18.8307 22.4766 18.3555 22.8704 17.8281 23.1699C17.3073 23.4629 16.7832 23.6094 16.2559 23.6094C15.6764 23.6094 15.1133 23.4401 14.5664 23.1016C14.0195 22.763 13.5736 22.2422 13.2285 21.5391C12.89 20.8359 12.7207 20.0645 12.7207 19.2246C12.7207 18.1895 12.9844 17.1543 13.5117 16.1191C14.0456 15.0775 14.7064 14.2962 15.4941 13.7754C16.2819 13.2546 17.0469 12.9941 17.7891 12.9941C18.3555 12.9941 18.8958 13.1439 19.4102 13.4434C19.9245 13.7363 20.3672 14.1855 20.7383 14.791L21.0703 13.2773H22.8184L21.4121 19.8301C21.2168 20.7415 21.1191 21.2461 21.1191 21.3438C21.1191 21.5195 21.1842 21.6725 21.3145 21.8027C21.4512 21.9264 21.6139 21.9883 21.8027 21.9883C22.1478 21.9883 22.6003 21.7897 23.1602 21.3926C23.9023 20.8717 24.4883 20.1751 24.918 19.3027C25.3542 18.4238 25.5723 17.5189 25.5723 16.5879C25.5723 15.5007 25.2923 14.485 24.7324 13.541C24.179 12.597 23.349 11.8418 22.2422 11.2754C21.1419 10.709 19.9245 10.4258 18.5898 10.4258C17.0664 10.4258 15.6732 10.7839 14.4102 11.5C13.1536 12.2096 12.1771 13.2318 11.4805 14.5664C10.7904 15.8945 10.4453 17.3203 10.4453 18.8438C10.4453 20.4388 10.7904 21.8125 11.4805 22.9648C12.1771 24.1172 13.1797 24.9668 14.4883 25.5137C15.8034 26.0671 17.2585 26.3438 18.8535 26.3438C20.5592 26.3438 21.9883 26.0573 23.1406 25.4844C24.293 24.9115 25.1556 24.2148 25.7285 23.3945H27.4961C27.1641 24.0781 26.5944 24.7747 25.7871 25.4844C24.9798 26.194 24.0195 26.7539 22.9062 27.1641C21.793 27.5807 20.4518 27.7891 18.8828 27.7891C17.4375 27.7891 16.1029 27.6035 14.8789 27.2324C13.6615 26.8613 12.623 26.3014 11.7637 25.5527C10.9043 24.8105 10.2565 23.9544 9.82031 22.9844C9.27344 21.7539 9 20.4258 9 19C9 17.4115 9.32552 15.8978 9.97656 14.459C10.7708 12.6947 11.8971 11.3438 13.3555 10.4062C14.8203 9.46875 16.5944 9 18.6777 9C20.2923 9 21.7409 9.33203 23.0234 9.99609C24.3125 10.6536 25.3281 11.6367 26.0703 12.9453C26.7018 14.0716 27.0176 15.2956 27.0176 16.6172C27.0176 18.5052 26.3535 20.1816 25.0254 21.6465C23.8405 22.9616 22.5449 23.6191 21.1387 23.6191C20.6895 23.6191 20.3249 23.5508 20.0449 23.4141C19.7715 23.2773 19.5697 23.082 19.4395 22.8281C19.3548 22.6654 19.293 22.3854 19.2539 21.9883ZM14.5273 19.3418C14.5273 20.2337 14.7389 20.9271 15.1621 21.4219C15.5853 21.9167 16.0703 22.1641 16.6172 22.1641C16.9818 22.1641 17.3659 22.0566 17.7695 21.8418C18.1732 21.6204 18.5573 21.2949 18.9219 20.8652C19.293 20.4355 19.5957 19.8919 19.8301 19.2344C20.0645 18.5703 20.1816 17.9062 20.1816 17.2422C20.1816 16.3568 19.9603 15.6699 19.5176 15.1816C19.0814 14.6934 18.5475 14.4492 17.916 14.4492C17.4993 14.4492 17.1055 14.5566 16.7344 14.7715C16.3698 14.9798 16.015 15.3184 15.6699 15.7871C15.3249 16.2559 15.0482 16.8255 14.8398 17.4961C14.6315 18.1667 14.5273 18.7819 14.5273 19.3418Z" fill="#111C41" fill-opacity="0.3"/>
</svg>
