<svg width="89" height="16" viewBox="0 0 89 16" fill="none" xmlns="http://www.w3.org/2000/svg">
<path d="M69.4973 7.82764C68.2019 7.82764 67.1518 8.87775 67.1518 10.1731V11.7645C67.1518 12.181 66.8141 12.5186 66.3977 12.5186C65.9812 12.5186 65.6436 12.181 65.6436 11.7645V4.93895C65.6436 2.72979 67.4344 0.938909 69.6436 0.938909C70.6085 0.920441 71.5452 1.28058 72.2291 1.94544C73.5968 3.20129 73.6811 5.31593 72.3977 6.67336C72.3415 6.72877 72.2853 6.78417 72.2291 6.83958C71.5265 7.49521 70.6647 7.82764 69.6436 7.82764H69.4973ZM69.1741 2.36098C68.0572 2.36098 67.1518 3.26639 67.1518 4.38328C67.1518 5.50016 68.0572 6.40557 69.1741 6.40557H69.6811C70.2431 6.42404 70.7865 6.20242 71.1705 5.80535C71.9574 5.00197 71.9387 3.70918 71.1237 2.9335C70.7396 2.56413 70.2244 2.36098 69.6811 2.36098H69.1741Z" fill="#3C4043"/>
<path d="M76.7895 4.33716C77.9042 4.33716 78.7848 4.63265 79.4312 5.21441C80.0775 5.79617 80.396 6.60878 80.396 7.63378V11.7974C80.396 12.1957 80.0731 12.5187 79.6747 12.5187H79.5029C79.1994 12.5187 78.9534 12.2727 78.9534 11.9692V11.4629C78.9534 11.4391 78.9341 11.4198 78.9104 11.4198C78.8963 11.4198 78.883 11.4268 78.8749 11.4384C78.2489 12.331 77.4287 12.7772 76.396 12.7772C75.5154 12.7772 74.766 12.5187 74.1759 12.0016C73.5951 11.5214 73.2672 10.8103 73.2859 10.0624C73.2859 9.24053 73.6044 8.59413 74.2321 8.10472C74.8597 7.61531 75.7028 7.37522 76.752 7.37522C77.4989 7.37522 78.1295 7.48987 78.6545 7.70859C78.7969 7.76792 78.9628 7.66801 78.9628 7.51373C78.9628 7.00585 78.738 6.52567 78.3445 6.19324C77.9417 5.84234 77.4265 5.64842 76.8925 5.64842C76.3072 5.64842 75.8077 5.81754 75.3939 6.15578C75.0727 6.4184 74.6206 6.53026 74.2676 6.31217C73.8869 6.07694 73.7759 5.56066 74.1077 5.2603C74.7859 4.64629 75.6813 4.33716 76.7895 4.33716ZM74.841 10.0901C74.841 10.4779 75.0283 10.8381 75.3375 11.0597C75.6747 11.3182 76.0869 11.4567 76.5084 11.4475C77.1454 11.4475 77.7543 11.1982 78.204 10.7549C79.061 9.95801 78.3837 8.61617 77.2141 8.57803C77.1397 8.57561 77.0637 8.57482 76.9862 8.57567C76.3773 8.57567 75.8621 8.72341 75.4499 9.00968C75.0471 9.29594 74.841 9.65607 74.841 10.0901Z" fill="#3C4043"/>
<path fill-rule="evenodd" clip-rule="evenodd" d="M87.5377 4.59595C88.0748 4.59595 88.4345 5.14821 88.2174 5.63948L83.8227 15.584C83.7108 15.837 83.4603 16.0002 83.1836 16.0002C82.6718 16.0002 82.3337 15.4679 82.5513 15.0046L83.5352 12.9096C83.8032 12.339 83.8096 11.6801 83.5529 11.1044L81.1169 5.64198C80.8976 5.15035 81.2574 4.59595 81.7957 4.59595C82.095 4.59595 82.3651 4.77548 82.481 5.05144L84.6731 10.2713C84.6764 10.2791 84.684 10.2842 84.6925 10.2842C84.7011 10.2842 84.7087 10.2791 84.712 10.2712L86.8501 5.05714C86.9645 4.77815 87.2361 4.59595 87.5377 4.59595Z" fill="#3C4043"/>
<path fill-rule="evenodd" clip-rule="evenodd" d="M61.0561 6.81206C61.0561 6.03003 60.3713 5.46387 59.5893 5.46387H55.8619C55.1556 5.46387 54.583 6.03647 54.583 6.74281C54.583 7.44915 55.1556 8.02175 55.8619 8.02175H56.5074C57.4026 8.02175 58.0753 8.88086 57.4712 9.54153C57.4276 9.58923 57.3824 9.63563 57.3357 9.68062C57.0729 9.93384 56.8781 10.2643 56.8781 10.6292C56.8781 11.224 57.3603 11.7062 57.9551 11.7062H58.4466C58.8358 11.7062 59.2181 11.5675 59.4774 11.2771C60.4869 10.1464 61.0561 8.60509 61.0561 6.81206Z" fill="#4285F4"/>
<path fill-rule="evenodd" clip-rule="evenodd" d="M54.584 13.3128C55.723 13.3128 56.7516 13.0807 57.6352 12.6573C58.4398 12.2718 58.4005 11.2074 57.6917 10.6654C57.2057 10.2937 56.5415 10.297 55.9579 10.4808C55.5438 10.6112 55.0837 10.681 54.584 10.681C53.1556 10.681 51.9059 9.90954 51.1998 8.78041C50.9036 8.30678 50.4238 7.93848 49.8652 7.93848C49.1446 7.93848 48.5605 8.52258 48.5605 9.2431V9.32362C48.5605 9.54213 48.61 9.75898 48.7189 9.94846C49.9099 12.022 52.1485 13.3128 54.584 13.3128Z" fill="#34A853"/>
<path fill-rule="evenodd" clip-rule="evenodd" d="M49.9541 8.58094C50.4572 8.19702 50.6302 7.53329 50.5927 6.9015C50.5673 6.47297 50.6117 6.04017 50.7261 5.62028C50.7681 5.46609 50.7965 5.30797 50.7965 5.14816V5.0718C50.7965 4.30376 50.1739 3.68115 49.4059 3.68115C48.885 3.68115 48.3958 3.96837 48.2192 4.45843C47.8087 5.59802 47.7263 6.82238 47.9719 7.99602C48.1595 8.89237 49.2261 9.13645 49.9541 8.58094Z" fill="#FBBC04"/>
<path fill-rule="evenodd" clip-rule="evenodd" d="M54.584 2.64729C55.1073 2.63728 55.6197 2.73863 56.0896 2.93811C56.7557 3.22091 57.578 3.24191 58.0934 2.73384C58.6406 2.19444 58.6284 1.29274 57.9644 0.906181C56.9488 0.314972 55.7832 0.00233133 54.584 0.0155386C52.3945 0.0155386 50.364 1.06562 49.1108 2.78493C48.7514 3.27808 48.9118 3.951 49.396 4.32244C50.0844 4.85059 51.1097 4.52618 51.7069 3.89669C52.4328 3.13155 53.4523 2.64729 54.584 2.64729Z" fill="#EA4335"/>
<path fill-rule="evenodd" clip-rule="evenodd" d="M7.15716 2.0045C7.9306 1.06445 6.7094 0.0292183 5.9209 0.956668C5.10343 1.87367 6.26486 2.96378 7.10239 2.06507C7.12104 2.04505 7.1393 2.02486 7.15716 2.0045Z" fill="black"/>
<path fill-rule="evenodd" clip-rule="evenodd" d="M7.81522 3.02169C6.75578 2.96035 5.85504 3.60597 5.34908 3.60597C4.8429 3.60597 4.06815 3.05259 3.23021 3.0675C2.13958 3.08306 1.1276 3.68231 0.574122 4.63538C-0.56422 6.54205 0.273717 9.37027 1.38071 10.9231C1.9183 11.6914 2.56616 12.5373 3.41985 12.5069C4.22643 12.4761 4.54256 11.9994 5.523 11.9994C6.50271 11.9994 6.78748 12.5069 7.6413 12.4915C8.52673 12.4761 9.08027 11.7229 9.61786 10.9539C10.3151 9.96372 9.61969 8.94902 9.06835 7.87077C8.89917 7.53991 8.78391 7.13643 8.77986 6.64932C8.77943 6.60603 8.78001 6.56337 8.78155 6.52133C8.83786 4.98593 9.34733 3.13684 7.81522 3.02169Z" fill="black"/>
<path d="M18.3789 0.878906C20.6815 0.878906 22.285 2.42133 22.285 4.667C22.285 6.92068 20.6487 8.4712 18.3213 8.4712H17.7417C16.6538 8.4712 15.7718 9.35314 15.7718 10.4411V11.4899C15.7718 11.9986 15.3594 12.411 14.8508 12.411C14.3421 12.411 13.9297 11.9986 13.9297 11.4899V5.32809C13.9297 2.87087 15.9217 0.878906 18.3789 0.878906ZM15.7718 4.85506C15.7718 6.02234 16.7181 6.96861 17.8854 6.96861C19.4891 6.96861 20.4018 6.12958 20.4018 4.67502C20.4018 3.22062 19.4891 2.38942 17.8936 2.38942C16.7218 2.38942 15.7718 3.33937 15.7718 4.5112V4.85506Z" fill="black"/>
<path d="M22.7422 10.0222C22.7422 8.54357 23.9018 7.69645 26.0399 7.56867L27.6961 7.47051C28.0545 7.44927 28.3343 7.15244 28.3343 6.79343C28.3343 5.85838 27.701 5.3469 26.5745 5.3469C25.9704 5.3469 25.4741 5.5427 25.1623 5.87506C24.8696 6.18701 24.5225 6.52168 24.0948 6.52168C23.5889 6.52168 23.1684 6.08601 23.3833 5.62804C23.8594 4.61321 25.0837 3.94043 26.6238 3.94043C28.7291 3.94043 30.1025 5.01132 30.1025 6.6735V11.5603C30.1025 12.0304 29.7214 12.4115 29.2513 12.4115H29.0913C28.7095 12.4115 28.4001 12.102 28.4001 11.7203V11.0548C28.4001 11.0406 28.3886 11.0291 28.3744 11.0291C28.3649 11.0291 28.3562 11.0343 28.3517 11.0426C27.8631 11.9378 26.7988 12.4994 25.6451 12.4994C23.9346 12.4994 22.7422 11.5085 22.7422 10.0222ZM28.3343 9.27888C28.3343 8.92803 28.0383 8.64994 27.6881 8.67181L26.2865 8.75938C25.1352 8.83123 24.535 9.24681 24.535 9.97409C24.535 10.6773 25.16 11.133 26.1385 11.133C27.3885 11.133 28.3343 10.3576 28.3343 9.27888Z" fill="black"/>
<path fill-rule="evenodd" clip-rule="evenodd" d="M32.2224 15.5408C31.8946 15.5303 31.6678 15.2671 31.6678 14.9391V14.6574C31.6678 14.3698 31.9228 14.1453 32.2105 14.1453C33.0247 14.1453 33.4852 13.8099 33.7649 12.9467C33.8714 12.6153 33.8635 12.2578 33.7423 11.9315L31.2568 5.24008C31.0415 4.66049 31.4702 4.04395 32.0885 4.04395C32.4746 4.04395 32.8164 4.29371 32.9338 4.66162L34.9017 10.8331C34.9054 10.8448 34.9162 10.8527 34.9285 10.8527C34.9407 10.8527 34.9515 10.8448 34.9552 10.8331L36.9276 4.64763C37.0423 4.28806 37.3764 4.04395 37.7538 4.04395C38.3565 4.04395 38.7754 4.64368 38.5679 5.20956L35.7632 12.8588C35.0231 14.8806 34.176 15.5441 32.3832 15.5441C32.3469 15.5441 32.2896 15.543 32.2224 15.5408Z" fill="black"/>
</svg>
