<svg width="59" height="29" viewBox="0 0 59 29" fill="none" xmlns="http://www.w3.org/2000/svg">
<path fill-rule="evenodd" clip-rule="evenodd" d="M52.0493 22.9369C52.0493 24.1813 51.0405 25.1901 49.7961 25.1901C48.5518 25.1901 47.543 24.1813 47.543 22.9369V19.3572C47.543 18.1128 48.5518 17.104 49.7961 17.104C51.0405 17.104 52.0493 18.1128 52.0493 19.3572V22.9369Z" fill="#6C6BBD"/>
<path fill-rule="evenodd" clip-rule="evenodd" d="M47.8285 21.147C47.8285 20.7296 47.8783 20.3238 47.9723 19.9353C48.3831 18.2371 48.3599 16.0044 46.6127 16.0044C43.7685 16.0044 41.4629 18.3068 41.4629 21.147C41.4629 23.9872 43.7685 26.2896 46.6127 26.2896C48.3599 26.2896 48.3831 24.0569 47.9723 22.3587C47.8783 21.9701 47.8285 21.5643 47.8285 21.147Z" fill="#D32011"/>
<path fill-rule="evenodd" clip-rule="evenodd" d="M58.1288 21.147C58.1288 23.9872 55.8233 26.2896 52.979 26.2896C51.2319 26.2896 51.2087 24.0568 51.6194 22.3586C51.7134 21.9701 51.7632 21.5643 51.7632 21.147C51.7632 20.7296 51.7134 20.3239 51.6194 19.9354C51.2087 18.2372 51.2319 16.0044 52.979 16.0044C55.8233 16.0044 58.1288 18.3068 58.1288 21.147Z" fill="#0099DF"/>
<path d="M53.5745 27.4748C53.5976 27.4748 53.6246 27.4765 53.6528 27.4801C53.7294 27.4898 53.7675 27.5695 53.7435 27.6429C53.7171 27.7234 53.6267 27.7633 53.5421 27.7585C53.5309 27.7579 53.5197 27.7576 53.5086 27.7576C53.3141 27.7576 53.2169 27.8832 53.2169 28.1088V28.7257C53.2169 28.8079 53.1503 28.8745 53.0681 28.8745C52.9859 28.8745 52.9192 28.8079 52.9192 28.7257V27.6565C52.9192 27.5751 52.9852 27.5091 53.0666 27.5091H53.1763C53.1971 27.5091 53.2139 27.526 53.2139 27.5468C53.2139 27.5844 53.2679 27.602 53.2957 27.5768C53.3655 27.5133 53.4556 27.4748 53.5745 27.4748ZM52.4749 27.6448C52.4749 27.7198 52.4141 27.7805 52.3392 27.7805H52.2318C52.0975 27.7805 51.9886 27.8894 51.9886 28.0236V28.3975C51.9886 28.5345 52.0371 28.626 52.1861 28.626C52.2196 28.626 52.2569 28.6211 52.2957 28.6114C52.3789 28.5905 52.4747 28.6249 52.5022 28.7063C52.5215 28.7635 52.5009 28.8278 52.4453 28.8514C52.3595 28.8878 52.2561 28.9088 52.1632 28.9088C51.8111 28.9088 51.6884 28.7202 51.6884 28.403V27.9194C51.6884 27.8427 51.6262 27.7805 51.5495 27.7805H51.5464C51.4714 27.7805 51.4107 27.7198 51.4107 27.6448C51.4107 27.5699 51.4714 27.5091 51.5464 27.5091H51.5495C51.6262 27.5091 51.6884 27.447 51.6884 27.3703V27.245C51.6884 27.1621 51.7556 27.0949 51.8385 27.0949C51.9214 27.0949 51.9886 27.1621 51.9886 27.245V27.302C51.9886 27.4164 52.0814 27.5091 52.1957 27.5091H52.3392C52.4141 27.5091 52.4749 27.5699 52.4749 27.6448ZM49.024 28.0718C48.8367 28.0718 48.6859 27.8691 48.8512 27.7813C48.9011 27.7548 48.9608 27.7403 49.0305 27.7403C49.0955 27.7403 49.1527 27.7542 49.2011 27.7807C49.3639 27.8702 49.2097 28.0718 49.024 28.0718ZM49.6857 28.1918C49.6827 27.7661 49.4195 27.4748 49.036 27.4748C48.6355 27.4748 48.3553 27.7661 48.3553 28.1918C48.3553 28.6257 48.647 28.9085 49.0563 28.9085C49.2236 28.9085 49.3795 28.8746 49.5211 28.7869C49.5785 28.7513 49.5887 28.6747 49.5513 28.6184C49.5081 28.5533 49.4184 28.5405 49.3481 28.5746C49.2606 28.6172 49.165 28.6401 49.0733 28.6401C49.0699 28.6401 49.0664 28.64 49.063 28.64C48.7647 28.6349 48.9376 28.3059 49.2359 28.3059H49.5655C49.63 28.3059 49.6857 28.2563 49.6857 28.1918ZM51.0622 27.7283C51.0247 27.7984 50.935 27.8224 50.8604 27.7951C50.7766 27.7645 50.6728 27.7403 50.5668 27.7403C50.4038 27.7403 50.3065 27.8005 50.3065 27.9005C50.3065 27.9917 50.4093 28.0176 50.538 28.0346L50.6782 28.0545C50.9758 28.0977 51.1559 28.2232 51.1559 28.4632C51.1559 28.7231 50.927 28.9088 50.5325 28.9088C50.3539 28.9088 50.1864 28.8722 50.0431 28.7962C49.9822 28.7639 49.9674 28.6865 50.0031 28.6275C50.0443 28.5596 50.1354 28.5436 50.2077 28.5764C50.295 28.6161 50.4035 28.643 50.5354 28.643C50.7384 28.643 50.8471 28.5832 50.8471 28.4772C50.8471 28.4004 50.7699 28.3573 50.6068 28.3347L50.4666 28.3147C50.1605 28.2716 49.9945 28.1346 49.9945 27.9119C49.9945 27.6406 50.2178 27.4748 50.5639 27.4748C50.7297 27.4748 50.8839 27.5032 51.0111 27.5584C51.0763 27.5867 51.0958 27.6657 51.0622 27.7283ZM54.6619 27.757C54.6007 27.757 54.544 27.7678 54.4913 27.789C54.4389 27.8106 54.3934 27.8407 54.3551 27.8793C54.3168 27.9178 54.2867 27.9643 54.2647 28.0182C54.2428 28.0722 54.232 28.1317 54.232 28.1964C54.232 28.2615 54.2428 28.3206 54.2647 28.3746C54.2867 28.4285 54.3168 28.475 54.3551 28.5135C54.3934 28.5521 54.4389 28.5822 54.4913 28.6038C54.544 28.6253 54.6007 28.6358 54.6619 28.6358C54.7232 28.6358 54.7801 28.6253 54.8325 28.6038C54.8852 28.5822 54.9311 28.5521 54.9694 28.5135C55.0084 28.475 55.0385 28.4285 55.0608 28.3746C55.0827 28.3206 55.0935 28.2615 55.0935 28.1964C55.0935 28.1317 55.0827 28.0722 55.0608 28.0182C55.0385 27.9643 55.0084 27.9178 54.9694 27.8793C54.9311 27.8407 54.8852 27.8106 54.8325 27.789C54.7801 27.7678 54.7232 27.757 54.6619 27.757ZM54.6619 27.4748C54.768 27.4748 54.8663 27.4931 54.9566 27.5301C55.047 27.5667 55.1253 27.6174 55.1911 27.6818C55.2572 27.7462 55.3086 27.8224 55.346 27.91C55.3833 27.9979 55.402 28.0934 55.402 28.1964C55.402 28.2994 55.3833 28.3949 55.346 28.4828C55.3086 28.5704 55.2572 28.6469 55.1911 28.7113C55.1253 28.7757 55.047 28.8261 54.9566 28.863C54.8663 28.8997 54.768 28.918 54.6619 28.918C54.5558 28.918 54.4576 28.8997 54.3672 28.863C54.2768 28.8261 54.1992 28.7757 54.1337 28.7113C54.0683 28.6469 54.0168 28.5704 53.9795 28.4828C53.9422 28.3949 53.9235 28.2994 53.9235 28.1964C53.9235 28.0934 53.9422 27.9979 53.9795 27.91C54.0168 27.8224 54.0683 27.7462 54.1337 27.6818C54.1992 27.6174 54.2768 27.5667 54.3672 27.5301C54.4576 27.4931 54.5558 27.4748 54.6619 27.4748ZM46.9289 28.1918C46.9289 27.9518 47.0864 27.7547 47.3438 27.7547C47.5897 27.7547 47.7557 27.9433 47.7557 28.1918C47.7557 28.4403 47.5897 28.6286 47.3438 28.6286C47.0864 28.6286 46.9289 28.4318 46.9289 28.1918ZM48.036 28.1918V27.6578C48.036 27.5757 47.9694 27.5091 47.8873 27.5091H47.7808C47.7575 27.5091 47.7387 27.528 47.7387 27.5512C47.7387 27.5914 47.6838 27.6118 47.6524 27.5867C47.564 27.5162 47.4493 27.4748 47.3068 27.4748C46.9233 27.4748 46.623 27.7746 46.623 28.1918C46.623 28.6087 46.9233 28.9088 47.3068 28.9088C47.4493 28.9088 47.564 28.8674 47.6524 28.7969C47.6838 28.7718 47.7387 28.7922 47.7387 28.8324C47.7387 28.8556 47.7575 28.8745 47.7808 28.8745H47.8873C47.9694 28.8745 48.036 28.8079 48.036 28.7258V28.1918ZM46.2096 28.8745C46.2926 28.8745 46.3598 28.8073 46.3598 28.7243V28.0176C46.3598 27.6949 46.1538 27.4778 45.8221 27.4748C45.8133 27.4747 45.8045 27.4747 45.7957 27.4748C45.5445 27.4792 45.1404 27.4748 44.8892 27.4748C44.7783 27.4748 44.6688 27.4996 44.5737 27.582C44.5439 27.6078 44.4887 27.5889 44.4887 27.5494C44.4887 27.5272 44.4707 27.5091 44.4484 27.5091H44.3401C44.258 27.5091 44.1914 27.5757 44.1914 27.6578V28.7243C44.1914 28.8073 44.2586 28.8745 44.3415 28.8745C44.4245 28.8745 44.4917 28.8073 44.4917 28.7243V28.1176C44.4917 27.8806 44.6233 27.7547 44.8263 27.7547C45.0238 27.7547 45.124 27.8832 45.124 28.1147V28.7243C45.124 28.8073 45.1912 28.8745 45.2741 28.8745C45.357 28.8745 45.4243 28.8073 45.4243 28.7243V28.1176C45.4243 27.8806 45.5618 27.7547 45.7589 27.7547C45.9623 27.7547 46.0595 27.8832 46.0595 28.1147V28.7243C46.0595 28.8073 46.1267 28.8745 46.2096 28.8745Z" fill="#110F0D"/>
<path fill-rule="evenodd" clip-rule="evenodd" d="M25.262 24.529C25.262 23.3456 26.2214 22.3862 27.4049 22.3862H29.6328C31.4869 22.3862 32.3478 24.3862 30.4937 24.3862H29.1746C28.5434 24.3862 28.0317 24.8978 28.0317 25.529C28.0317 26.1602 27.5201 26.6719 26.8889 26.6719H26.6469C25.882 26.6719 25.262 26.0519 25.262 25.287V24.529ZM15.4141 20.0567C15.4141 19.2919 16.0341 18.6719 16.799 18.6719C17.5638 18.6719 18.1838 19.2919 18.1838 20.0567V23.0506C18.1838 23.157 18.2701 23.2433 18.3765 23.2433C18.4474 23.2433 18.5125 23.2045 18.5461 23.1421C18.7405 22.7811 19.4527 21.4587 20.6458 19.2433C20.8741 18.8618 21.2718 18.7318 21.4619 18.6902C21.5328 18.6746 21.6054 18.6719 21.678 18.6719C22.9776 18.6719 24.031 19.7253 24.031 21.0249V25.287C24.031 26.0519 23.411 26.6719 22.6462 26.6719C21.8813 26.6719 21.2613 26.0519 21.2613 25.287V22.2931C21.2613 22.1867 21.175 22.1004 21.0686 22.1004C20.9977 22.1004 20.9328 22.1391 20.8992 22.2015C20.7324 22.5111 20.1549 23.5834 18.7993 26.1004C18.4916 26.6719 17.8761 26.6719 17.8761 26.6719C16.5164 26.6719 15.4141 25.5696 15.4141 24.2099V20.0567ZM5.10459 26.6719C4.33975 26.6719 3.71973 26.0519 3.71973 25.287V21.4416C3.71973 19.9119 4.95977 18.6719 6.48945 18.6719C6.48945 18.6719 7.28959 18.6719 7.72044 19.8147C8.10983 20.8792 9.79221 20.8789 10.1824 19.8147C10.6133 18.6719 11.4134 18.6719 11.4134 18.6719C12.9431 18.6719 14.1831 19.9119 14.1831 21.4416V25.287C14.1831 26.0519 13.5631 26.6719 12.7983 26.6719C12.0334 26.6719 11.4134 26.0519 11.4134 25.287V22.5668C11.4134 22.467 11.3325 22.3862 11.2327 22.3862C11.1565 22.3862 11.0885 22.434 11.0627 22.5058L9.7749 26.0926C9.65014 26.4401 9.32065 26.6719 8.95142 26.6719C8.5822 26.6719 8.25271 26.4401 8.12794 26.0926L6.84014 22.5058C6.81438 22.434 6.74635 22.3862 6.67011 22.3862C6.57033 22.3862 6.48945 22.467 6.48945 22.5668V25.287C6.48945 26.0519 5.86943 26.6719 5.10459 26.6719Z" fill="#4DB45F"/>
<path fill-rule="evenodd" clip-rule="evenodd" d="M30.7194 18.6719C27.6093 18.6719 25.9454 22.1236 29.0551 22.1714C29.0755 22.1717 29.0959 22.1719 29.1163 22.1719H33.2717C33.6259 22.1719 33.9256 21.9428 33.9256 21.5885C33.9256 19.9552 32.5149 18.6719 30.7194 18.6719Z" fill="url(#paint0_linear_807_861)"/>
<path d="M44.3278 12.8706C44.4186 12.8706 44.4922 12.797 44.4922 12.7062V12.0144C44.4922 11.6862 44.2921 11.4722 43.9491 11.4722C43.9414 11.4722 43.9337 11.4723 43.926 11.4725C43.668 11.4804 43.264 11.4722 43.0059 11.4722C42.8975 11.4722 42.7891 11.4968 42.6932 11.5772C42.662 11.6034 42.6058 11.5835 42.6058 11.5428C42.6058 11.5196 42.5869 11.5007 42.5637 11.5007H42.4557C42.3728 11.5007 42.3057 11.5679 42.3057 11.6508V12.7205C42.3057 12.8034 42.3728 12.8706 42.4557 12.8706C42.5386 12.8706 42.6058 12.8034 42.6058 12.7205V12.1143C42.6058 11.8717 42.7344 11.7576 42.9345 11.7576C43.1345 11.7576 43.2346 11.886 43.2346 12.1143V12.7205C43.2346 12.8034 43.3018 12.8706 43.3846 12.8706C43.4675 12.8706 43.5347 12.8034 43.5347 12.7205V12.1143C43.5347 11.8717 43.6776 11.7576 43.8634 11.7576C44.0635 11.7576 44.1635 11.886 44.1635 12.1143V12.7062C44.1635 12.797 44.2371 12.8706 44.3278 12.8706ZM48.9367 11.6363C48.9367 11.5614 48.876 11.5007 48.8011 11.5007H48.6577C48.5434 11.5007 48.4508 11.4081 48.4508 11.2938V11.237C48.4508 11.1541 48.3836 11.0869 48.3007 11.0869C48.2179 11.0869 48.1507 11.1541 48.1507 11.237V11.365C48.1507 11.4399 48.0898 11.5007 48.0148 11.5007C47.9399 11.5007 47.8791 11.5614 47.8791 11.6363C47.8791 11.7111 47.9399 11.7718 48.0148 11.7718C48.0898 11.7718 48.1507 11.8326 48.1507 11.9076V12.3997C48.1507 12.7136 48.2793 12.8991 48.6223 12.8991C48.7143 12.8991 48.8137 12.8772 48.8995 12.8437C48.9561 12.8217 48.98 12.7577 48.9608 12.7002C48.9342 12.6207 48.8368 12.5875 48.7546 12.6037C48.717 12.6111 48.6813 12.6137 48.6509 12.6137C48.5079 12.6137 48.4508 12.5281 48.4508 12.3854V12.0148C48.4508 11.8806 48.5595 11.7718 48.6937 11.7718H48.8011C48.876 11.7718 48.9367 11.7111 48.9367 11.6363ZM51.4805 11.4722C51.3655 11.4722 51.2763 11.5106 51.2084 11.5704C51.1796 11.5957 51.1232 11.5773 51.1232 11.5389C51.1232 11.5178 51.1061 11.5007 51.085 11.5007H50.9731C50.8903 11.5007 50.8231 11.5679 50.8231 11.6508V12.7205C50.8231 12.8034 50.8903 12.8706 50.9731 12.8706C51.056 12.8706 51.1232 12.8034 51.1232 12.7205V12.1C51.1232 11.8717 51.2232 11.7433 51.409 11.7433C51.4237 11.7433 51.4393 11.7442 51.4553 11.7459C51.5344 11.7539 51.6128 11.712 51.6356 11.6359C51.6601 11.5545 51.6104 11.4734 51.5254 11.4724C51.5093 11.4722 51.4941 11.4722 51.4805 11.4722ZM47.575 11.7302C47.61 11.6644 47.5905 11.5815 47.5222 11.5518C47.3949 11.4967 47.241 11.4722 47.0788 11.4722C46.7359 11.4722 46.5072 11.6434 46.5072 11.9145C46.5072 12.1428 46.6787 12.2713 46.9788 12.3141L47.1217 12.3283C47.2789 12.3569 47.3647 12.3997 47.3647 12.471C47.3647 12.5709 47.2503 12.6423 47.0503 12.6423C46.9196 12.6423 46.8072 12.6118 46.7171 12.5708C46.6463 12.5386 46.5581 12.5552 46.5169 12.6211C46.4793 12.6812 46.4943 12.7612 46.5577 12.793C46.6985 12.8637 46.8673 12.8991 47.036 12.8991C47.4361 12.8991 47.6648 12.7136 47.6648 12.4568C47.6648 12.2142 47.479 12.0858 47.1932 12.0429L47.0503 12.0287C46.9216 12.0144 46.8216 11.9859 46.8216 11.9003C46.8216 11.8004 46.9216 11.7433 47.0788 11.7433C47.1843 11.7433 47.2897 11.7703 47.3752 11.801C47.4506 11.8281 47.5375 11.801 47.575 11.7302ZM55.6106 11.4722C55.4956 11.4722 55.4063 11.5106 55.3385 11.5704C55.3097 11.5957 55.2533 11.5773 55.2533 11.5389C55.2533 11.5178 55.2362 11.5007 55.2151 11.5007H55.1032C55.0203 11.5007 54.9532 11.5679 54.9532 11.6508V12.7205C54.9532 12.8034 55.0203 12.8706 55.1032 12.8706C55.1861 12.8706 55.2533 12.8034 55.2533 12.7205V12.1C55.2533 11.8717 55.3533 11.7433 55.5391 11.7433C55.5538 11.7433 55.5694 11.7442 55.5854 11.7459C55.6645 11.7539 55.7429 11.712 55.7657 11.6359C55.7902 11.5545 55.7405 11.4734 55.6555 11.4724C55.6394 11.4722 55.6242 11.4722 55.6106 11.4722ZM51.7806 12.1856C51.7806 12.5994 52.0664 12.8991 52.5094 12.8991C52.6624 12.8991 52.7819 12.8741 52.8936 12.8113C52.9552 12.7767 52.9687 12.6969 52.9328 12.6361C52.8899 12.5633 52.7939 12.5463 52.7167 12.5807C52.6459 12.6122 52.5732 12.628 52.4951 12.628C52.2522 12.628 52.0807 12.4568 52.0807 12.1856C52.0807 11.9288 52.2522 11.7576 52.4951 11.7433C52.5732 11.7433 52.6459 11.7591 52.7167 11.7906C52.7939 11.825 52.8899 11.808 52.9328 11.7352C52.9687 11.6743 52.9552 11.5946 52.8936 11.56C52.7819 11.4972 52.6624 11.4722 52.5094 11.4722C52.0664 11.4722 51.7806 11.7718 51.7806 12.1856ZM54.553 12.1856V11.6508C54.553 11.5679 54.4858 11.5007 54.403 11.5007H54.2967C54.2725 11.5007 54.2529 11.5203 54.2529 11.5445C54.2529 11.5862 54.1963 11.6073 54.1635 11.5815C54.0734 11.5105 53.9603 11.4722 53.8242 11.4722C53.4383 11.4722 53.1382 11.7718 53.1382 12.1856C53.1382 12.5994 53.4383 12.8991 53.8242 12.8991C53.9666 12.8991 54.08 12.863 54.1645 12.7958C54.1953 12.7713 54.2529 12.7913 54.2529 12.8307C54.2529 12.8527 54.2707 12.8706 54.2927 12.8706H54.403C54.4858 12.8706 54.553 12.8034 54.553 12.7205V12.1856ZM53.4526 12.1856C53.4526 11.9431 53.6098 11.7433 53.8671 11.7433C54.11 11.7433 54.2815 11.9288 54.2815 12.1856C54.2815 12.4282 54.11 12.628 53.8671 12.628C53.6098 12.6137 53.4526 12.4282 53.4526 12.1856ZM49.8656 11.4722C49.4654 11.4722 49.1796 11.7576 49.1796 12.1856C49.1796 12.6137 49.4654 12.8991 49.8799 12.8991C50.0405 12.8991 50.2011 12.8623 50.3395 12.7814C50.3978 12.7473 50.4086 12.6708 50.3711 12.6146C50.3294 12.5521 50.244 12.5386 50.1767 12.5721C50.0885 12.6159 49.9913 12.6423 49.8942 12.6423C49.8844 12.6423 49.8747 12.642 49.865 12.6415C49.5775 12.6273 49.7437 12.3141 50.0315 12.3141H50.3802C50.4433 12.3141 50.4944 12.263 50.4944 12.1999C50.5087 11.7576 50.2514 11.4722 49.8656 11.4722ZM49.8656 11.729C49.9279 11.729 49.9838 11.7419 50.0317 11.767C50.1974 11.8542 50.0422 12.0572 49.8549 12.0572C49.6652 12.0572 49.5186 11.855 49.6877 11.769C49.738 11.7434 49.7975 11.729 49.8656 11.729ZM57.3112 12.1856V11.1086C57.3112 11.0257 57.244 10.9585 57.1611 10.9585C57.0782 10.9585 57.0111 11.0257 57.0111 11.1086V11.181C57.0111 11.3415 56.7428 11.4722 56.5823 11.4722C56.1965 11.4722 55.8964 11.7718 55.8964 12.1856C55.8964 12.5994 56.1965 12.8991 56.5823 12.8991C56.7247 12.8991 56.8382 12.863 56.9227 12.7958C56.9535 12.7713 57.0111 12.7913 57.0111 12.8307C57.0111 12.8527 57.0289 12.8706 57.0509 12.8706H57.1611C57.244 12.8706 57.3112 12.8034 57.3112 12.7205V12.1856ZM56.2108 12.1856C56.2108 11.9431 56.368 11.7433 56.6252 11.7433C56.8682 11.7433 57.0396 11.9288 57.0396 12.1856C57.0396 12.4282 56.8682 12.628 56.6252 12.628C56.368 12.6137 56.2108 12.4282 56.2108 12.1856ZM46.1785 12.1856V11.6508C46.1785 11.5679 46.1113 11.5007 46.0285 11.5007H45.9222C45.898 11.5007 45.8784 11.5203 45.8784 11.5445C45.8784 11.5862 45.8218 11.6073 45.789 11.5815C45.6989 11.5105 45.5858 11.4722 45.4497 11.4722C45.0638 11.4722 44.7637 11.7718 44.7637 12.1856C44.7637 12.5994 45.0638 12.8991 45.4497 12.8991C45.5921 12.8991 45.7055 12.863 45.79 12.7958C45.8208 12.7713 45.8784 12.7913 45.8784 12.8307C45.8784 12.8527 45.8962 12.8706 45.9182 12.8706H46.0285C46.1113 12.8706 46.1785 12.8034 46.1785 12.7205V12.1856ZM45.0638 12.1856C45.0638 11.9431 45.221 11.7433 45.4783 11.7433C45.7212 11.7433 45.8927 11.9288 45.8927 12.1856C45.8927 12.4282 45.7212 12.628 45.4783 12.628C45.221 12.6137 45.0638 12.4282 45.0638 12.1856Z" fill="black"/>
<path d="M52.0378 6.92412V3.34946C52.0378 2.10636 51.0301 1.09863 49.787 1.09863C48.5439 1.09863 47.5361 2.10636 47.5361 3.34946V6.92412C47.5361 8.16722 48.5439 9.17495 49.787 9.17495C51.0301 9.17495 52.0378 8.16722 52.0378 6.92412Z" fill="#FF5F00"/>
<path fill-rule="evenodd" clip-rule="evenodd" d="M47.8224 5.13688C47.8224 4.71927 47.8724 4.31368 47.9664 3.92551C48.3775 2.22943 48.3528 0 46.6076 0C43.7637 0 41.4629 2.29733 41.4629 5.13688C41.4629 7.97643 43.7637 10.2738 46.6076 10.2738C48.3477 10.2738 48.3749 8.04136 47.9663 6.34992C47.8723 5.96072 47.8224 5.55434 47.8224 5.13688Z" fill="#EB001B"/>
<path fill-rule="evenodd" clip-rule="evenodd" d="M58.1123 5.13688C58.1123 7.97643 55.8114 10.2738 52.9675 10.2738C51.2263 10.2738 51.2037 8.04427 51.6101 6.35117C51.7035 5.96211 51.7528 5.55553 51.7528 5.13688C51.7528 4.71927 51.7028 4.31368 51.6087 3.92551C51.1977 2.22943 51.2223 0 52.9675 0C55.8114 0 58.1123 2.3116 58.1123 5.13688Z" fill="#F79E1B"/>
<path fill-rule="evenodd" clip-rule="evenodd" d="M13.7262 11.4493C13.6298 12.0476 13.1134 12.4875 12.5073 12.4875C11.7472 12.4875 11.1677 11.8072 11.2885 11.0567L12.4475 3.85996C12.5439 3.26163 13.0603 2.82172 13.6664 2.82172C14.4265 2.82172 15.006 3.50208 14.8852 4.25254L13.7262 11.4493ZM8.67649 3.63262C8.8498 3.14639 9.31021 2.82172 9.82641 2.82172C10.6942 2.82172 11.2849 3.70171 10.9563 4.50487L8.15172 11.3582C7.87219 12.0413 7.20741 12.4875 6.46937 12.4875C5.64037 12.4875 4.91639 11.9267 4.70926 11.1239L3.08198 4.81758C2.9602 4.34565 2.66167 3.93301 2.22697 3.71257C1.34792 3.2668 0.63359 3.06251 0.384222 2.99889C0.333228 2.98588 0.303498 2.93234 0.320031 2.88237C0.332011 2.84617 0.365851 2.82172 0.403987 2.82172H4.29555C4.84989 2.82172 5.14482 3.05553 5.3004 3.28128C5.47112 3.52901 5.49808 3.84359 5.55533 4.13895L6.31155 8.04023C6.3898 8.44151 6.94745 8.48336 7.08472 8.09826L8.67649 3.63262ZM29.3511 12.4875C28.922 12.4875 28.5513 12.1874 28.4621 11.7677C28.3728 11.348 28.0021 11.0479 27.5731 11.0479H25.9083C25.4505 11.0479 25.0424 11.3363 24.8894 11.7677C24.7364 12.1992 24.3283 12.4875 23.8705 12.4875H23.8007C22.9589 12.4875 22.3879 11.6312 22.7116 10.8541L25.6534 3.79034C25.7225 3.62453 25.7797 3.45113 25.8843 3.3051C26.0346 3.09528 26.3391 2.82172 26.9054 2.82172C28.0792 2.82172 29.0913 3.64666 29.328 4.79629L30.6328 11.1323C30.7769 11.8319 30.2425 12.4875 29.5283 12.4875H29.3511ZM26.2297 8.03637C26.0493 8.53898 26.4218 9.06851 26.9558 9.06851C27.4439 9.06851 27.8093 8.62096 27.7116 8.14274C27.5556 7.37841 26.4934 7.30216 26.2297 8.03637ZM22.4364 3.84074C22.3265 4.48145 21.5838 4.85272 20.9417 4.75136C19.8704 4.58224 18.7059 4.75663 18.6883 5.52095C18.6883 6.60064 22.1844 6.832 22.1844 9.35128C22.1844 11.7677 19.607 12.6675 17.8972 12.6675C16.9633 12.6675 16.2046 12.5064 15.7082 12.3603C15.3194 12.2458 15.1135 11.8517 15.1842 11.4526C15.3034 10.7806 16.1647 10.3928 16.8333 10.5298C18.0934 10.7881 19.5814 10.6213 19.5814 9.71118C19.5814 8.40013 16.1364 8.37442 16.1364 5.88085C16.1364 3.20733 19.0711 2.66748 20.3215 2.66748C20.8736 2.66748 21.4139 2.76255 21.8261 2.86127C22.2624 2.96575 22.5123 3.39859 22.4364 3.84074Z" fill="#0066B3"/>
<path fill-rule="evenodd" clip-rule="evenodd" d="M4.12883 4.61329C4.39782 4.81565 5.79914 4.14509 5.72998 3.81567L5.66717 3.51649C5.66555 3.50878 5.66431 3.50134 5.66295 3.49358C5.64541 3.39369 5.48232 2.66748 4.44661 2.66748H0.400942C0.365602 2.66748 0.334071 2.68968 0.322148 2.72294C0.304783 2.7714 0.334075 2.8242 0.384272 2.83559C0.798141 2.92946 2.49354 3.37077 4.12883 4.61329Z" fill="#FAA634"/>
<defs>
<linearGradient id="paint0_linear_807_861" x1="24.7393" y1="20.4219" x2="33.9256" y2="20.4219" gradientUnits="userSpaceOnUse">
<stop stop-color="#00B4E6"/>
<stop offset="1" stop-color="#088CCB"/>
</linearGradient>
</defs>
</svg>
