<svg width="33" height="28" viewBox="0 0 33 28" fill="none" xmlns="http://www.w3.org/2000/svg">
<rect x="12.167" y="0.5" width="20" height="27" rx="1.5" fill="white" stroke="#2F8FFF"/>
<rect y="9.33325" width="28" height="14" rx="2" fill="#FF2F2F"/>
<path d="M5.35371 12.1333C6.38548 12.1333 7.13835 12.3557 7.61231 12.8005C8.08626 13.2416 8.32324 13.8505 8.32324 14.6271C8.32324 14.9771 8.27038 15.3125 8.16465 15.6333C8.05892 15.9505 7.88574 16.233 7.64512 16.481C7.40814 16.7289 7.09095 16.9257 6.69355 17.0716C6.29616 17.2138 5.80579 17.2849 5.22246 17.2849H4.49512V20.1286H2.7998V12.1333H5.35371ZM5.26621 13.5224H4.49512V15.8958H5.05293C5.37012 15.8958 5.64538 15.8539 5.87871 15.77C6.11204 15.6862 6.29251 15.5549 6.42012 15.3763C6.54772 15.1976 6.61152 14.9679 6.61152 14.6872C6.61152 14.2935 6.50215 14.0018 6.2834 13.8122C6.06465 13.619 5.72559 13.5224 5.26621 13.5224Z" fill="white"/>
<path d="M17.5862 16.0544C17.5862 16.9549 17.413 17.7078 17.0667 18.313C16.724 18.9146 16.2263 19.3685 15.5737 19.6747C14.9211 19.9773 14.1354 20.1286 13.2167 20.1286H10.9526V12.1333H13.4628C14.3013 12.1333 15.0287 12.2828 15.6448 12.5817C16.261 12.8771 16.7386 13.3164 17.0776 13.8997C17.4167 14.4794 17.5862 15.1976 17.5862 16.0544ZM15.8253 16.0981C15.8253 15.5075 15.7378 15.0226 15.5628 14.6435C15.3914 14.2606 15.1362 13.9781 14.7971 13.7958C14.4617 13.6135 14.0461 13.5224 13.5503 13.5224H12.6479V18.7286H13.3753C14.2029 18.7286 14.8172 18.508 15.2182 18.0669C15.6229 17.6257 15.8253 16.9695 15.8253 16.0981Z" fill="white"/>
<path d="M22.0312 20.1286H20.3632V12.1333H24.9461V13.5224H22.0312V15.5841H24.7437V16.9677H22.0312V20.1286Z" fill="white"/>
</svg>
