<svg width="38" height="36" viewBox="0 0 38 36" fill="none" xmlns="http://www.w3.org/2000/svg">
<path d="M14.2947 8C14.5549 8.09 14.6903 8.28 14.7944 8.53C15.6169 10.53 16.4498 12.52 17.2826 14.52C17.4805 14.99 17.3555 15.27 16.8662 15.46C16.0229 15.79 15.1796 16.12 14.3259 16.43C14.1697 16.49 14.1281 16.56 14.1489 16.72C14.3675 19.23 16.3248 21.51 18.8547 22.17C19.2503 22.27 19.6668 22.32 20.0624 22.4C20.2186 22.43 20.3019 22.39 20.3643 22.23C20.6975 21.41 21.0411 20.6 21.3742 19.79C21.572 19.32 21.8531 19.2 22.3529 19.39C24.4455 20.19 26.5485 21 28.6412 21.8C28.8806 21.89 29.0368 22.03 29.1305 22.26C29.1305 22.46 29.1305 22.65 29.1305 22.85C29.1201 22.9 29.0992 22.95 29.0992 23C28.839 25.31 27.142 27.22 24.7995 27.81C24.4663 27.9 24.1123 27.94 23.7688 28C23.3627 28 22.9567 28 22.5507 28C22.4778 27.99 22.4049 27.98 22.332 27.97C21.5824 27.87 20.8224 27.81 20.0832 27.66C16.8037 26.97 14.076 25.39 11.9001 22.95C9.95323 20.77 8.81842 18.24 8.44362 15.39C8.40198 15.06 8.36033 14.72 8.3291 14.39C8.3291 13.99 8.3291 13.58 8.3291 13.18C8.33951 13.12 8.36034 13.07 8.37075 13.01C8.6102 10.79 10.2864 8.87 12.504 8.26C12.8892 8.15 13.2952 8.1 13.6908 8.03C13.8886 8 14.0864 8 14.2947 8ZM15.9708 14.53C15.9396 14.46 15.9188 14.41 15.898 14.35C15.2317 12.76 14.5758 11.17 13.9095 9.58C13.7429 9.17 13.7429 9.18 13.2952 9.25C11.3587 9.57 9.77624 11.2 9.57843 13.06C9.48473 13.91 9.55761 14.75 9.70337 15.58C10.2656 19.05 12.0146 21.87 14.8777 24.04C16.8766 25.55 19.1566 26.43 21.6761 26.71C22.4986 26.8 23.3211 26.86 24.1436 26.73C26.0384 26.41 27.6209 24.82 27.8603 22.99C27.8811 22.82 27.8499 22.74 27.6729 22.67C25.9551 22.02 24.2477 21.36 22.5298 20.7C22.4674 20.67 22.3945 20.65 22.3216 20.62C22.2904 20.7 22.2696 20.75 22.2487 20.8C21.926 21.58 21.6033 22.35 21.2805 23.13C21.1556 23.44 20.9578 23.57 20.635 23.57C19.5627 23.56 18.532 23.38 17.5637 22.94C14.607 21.58 13.0453 19.33 12.8996 16.18C12.8788 15.84 13.0141 15.65 13.3473 15.52C13.7949 15.35 14.2426 15.18 14.6799 15.01C15.1067 14.86 15.5336 14.69 15.9708 14.53Z" fill="#111C41" fill-opacity="0.3"/>
</svg>
