<svg width="38" height="36" viewBox="0 0 38 36" fill="none" xmlns="http://www.w3.org/2000/svg">
<path d="M29.1513 17.4134C29.1513 17.8076 29.1513 18.1924 29.1513 18.5866C29.1415 18.6523 29.122 18.7274 29.1122 18.7931C29.0634 19.1497 29.0341 19.5157 28.9657 19.8724C28.5748 21.862 27.627 23.5889 26.1418 25.0249C24.5882 26.5359 22.7122 27.4838 20.5332 27.8498C20.1424 27.9155 19.7417 27.9531 19.3509 28C18.9405 28 18.5399 28 18.1295 28C17.8559 27.9718 17.5823 27.9437 17.3087 27.9061C15.2568 27.6246 13.4394 26.8362 11.8858 25.5223C10.0586 23.9737 8.9056 22.0404 8.48544 19.7222C8.41704 19.3468 8.37796 18.962 8.3291 18.5866C8.3291 18.1924 8.3291 17.8076 8.3291 17.4134C8.33887 17.3477 8.35841 17.2726 8.36819 17.2069C8.41704 16.8503 8.44635 16.4843 8.51475 16.1276C8.9056 14.138 9.85339 12.4111 11.3386 10.9751C12.8922 9.4641 14.7683 8.51619 16.9472 8.15016C17.3381 8.08447 17.7387 8.04693 18.1295 8C18.5399 8 18.9405 8 19.3509 8C19.6245 8.02816 19.8981 8.05631 20.1717 8.09385C22.2236 8.37541 24.041 9.16377 25.5946 10.4777C27.4218 12.0263 28.5748 13.9596 28.995 16.2778C29.0634 16.6532 29.1024 17.038 29.1513 17.4134ZM16.2828 18.9808C13.8986 17.329 13.8986 14.4195 15.4131 12.7489C17.0156 10.9939 19.732 10.7687 21.5494 12.2515C22.4386 12.9742 22.976 13.9033 23.0932 15.0202C23.2593 16.6626 22.5949 17.9672 21.2074 18.9714C22.3311 19.3843 23.2691 19.9944 24.0606 20.8297C24.8423 21.6649 25.3797 22.641 25.6826 23.7485C28.6921 20.5012 28.9266 14.9451 24.9009 11.4538C20.8556 7.95307 14.6901 8.52558 11.407 12.6926C8.29979 16.6344 9.54072 21.4585 11.8076 23.7391C12.1105 22.641 12.6382 21.6743 13.4296 20.839C14.2113 20.0038 15.1591 19.3937 16.2828 18.9808ZM18.9014 26.8268C19.1164 26.8081 19.517 26.7893 19.8981 26.7424C21.4517 26.5547 22.8685 26.0103 24.129 25.1281C24.6664 24.7527 24.6566 24.7433 24.5003 24.1145C23.7577 21.1769 20.8263 19.3186 17.7289 19.816C15.1982 20.229 13.2049 22.1999 12.8629 24.6495C12.8531 24.7058 12.8922 24.7996 12.9508 24.8372C14.6412 26.1511 16.5661 26.7987 18.9014 26.8268ZM18.7451 18.5209C20.4843 18.5115 21.9012 17.16 21.9012 15.4894C21.9012 13.8189 20.4746 12.4486 18.7255 12.4486C16.9863 12.4486 15.5499 13.8376 15.5695 15.4988C15.589 17.1788 17.0156 18.5303 18.7451 18.5209Z" fill="#111C41" fill-opacity="0.3"/>
</svg>
