<svg width="1920" height="840" viewBox="0 0 1920 840" fill="none" xmlns="http://www.w3.org/2000/svg"><g clip-path="url(#clip0_275_102)"><mask id="mask0_275_102" style="mask-type:alpha" maskUnits="userSpaceOnUse" x="0" y="0" width="1920" height="840"><rect width="1920" height="840" fill="url(#paint0_linear_275_102)"/></mask><g mask="url(#mask0_275_102)"><g opacity="0.6"><rect x="0.5" y="0.5" width="59" height="59" stroke="#07122A"/><rect x="59.5" y="0.5" width="59" height="59" stroke="#07122A"/><rect x="118.5" y="0.5" width="59" height="59" stroke="#07122A"/><rect x="177.5" y="0.5" width="59" height="59" stroke="#07122A"/><rect x="236.5" y="0.5" width="59" height="59" stroke="#07122A"/><rect x="295.5" y="0.5" width="59" height="59" stroke="#07122A"/><rect x="354.5" y="0.5" width="59" height="59" stroke="#07122A"/><rect x="413.5" y="0.5" width="59" height="59" fill="#08132C"/><rect x="413.5" y="0.5" width="59" height="59" stroke="#010D28"/><rect x="472.5" y="0.5" width="59" height="59" stroke="#07122A"/><rect x="531.5" y="0.5" width="59" height="59" stroke="#07122A"/><rect x="590.5" y="0.5" width="59" height="59" stroke="#07122A"/><rect x="649.5" y="0.5" width="59" height="59" stroke="#07122A"/><rect x="708.5" y="0.5" width="59" height="59" stroke="#07122A"/><rect x="767.5" y="0.5" width="59" height="59" stroke="#07122A"/><rect x="826.5" y="0.5" width="59" height="59" stroke="#07122A"/><rect x="885.5" y="0.5" width="59" height="59" stroke="#07122A"/><rect x="944.5" y="0.5" width="59" height="59" stroke="#07122A"/><rect x="1003.5" y="0.5" width="59" height="59" stroke="#07122A"/><rect x="1062.5" y="0.5" width="59" height="59" stroke="#07122A"/><rect x="1121.5" y="0.5" width="59" height="59" stroke="#07122A"/><rect x="1180.5" y="0.5" width="59" height="59" fill="#08132C"/><rect x="1180.5" y="0.5" width="59" height="59" stroke="#010D28"/><rect x="1239.5" y="0.5" width="59" height="59" stroke="#07122A"/><rect x="1298.5" y="0.5" width="59" height="59" stroke="#07122A"/><rect x="1357.5" y="0.5" width="59" height="59" stroke="#07122A"/><rect x="1416.5" y="0.5" width="59" height="59" stroke="#07122A"/><rect x="1475.5" y="0.5" width="59" height="59" stroke="#07122A"/><rect x="1534.5" y="0.5" width="59" height="59" stroke="#07122A"/><rect x="1593.5" y="0.5" width="59" height="59" stroke="#07122A"/><rect x="1652.5" y="0.5" width="59" height="59" stroke="#07122A"/><rect x="1711.5" y="0.5" width="59" height="59" stroke="#07122A"/><rect x="1770.5" y="0.5" width="59" height="59" stroke="#07122A"/><rect x="1829.5" y="0.5" width="59" height="59" stroke="#07122A"/><rect x="0.5" y="60.5" width="59" height="59" stroke="#07122A"/><rect x="59.5" y="60.5" width="59" height="59" stroke="#07122A"/><rect x="118.5" y="60.5" width="59" height="59" stroke="#07122A"/><rect x="177.5" y="60.5" width="59" height="59" stroke="#07122A"/><rect x="236.5" y="60.5" width="59" height="59" stroke="#07122A"/><rect x="295.5" y="60.5" width="59" height="59" stroke="#07122A"/><rect x="354.5" y="60.5" width="59" height="59" stroke="#07122A"/><rect x="413.5" y="60.5" width="59" height="59" stroke="#07122A"/><rect x="472.5" y="60.5" width="59" height="59" stroke="#07122A"/><rect x="531.5" y="60.5" width="59" height="59" stroke="#07122A"/><rect x="590.5" y="60.5" width="59" height="59" stroke="#07122A"/><rect x="649.5" y="60.5" width="59" height="59" stroke="#07122A"/><rect x="708.5" y="60.5" width="59" height="59" stroke="#07122A"/><rect x="767.5" y="60.5" width="59" height="59" stroke="#07122A"/><rect x="826.5" y="60.5" width="59" height="59" stroke="#07122A"/><rect x="885.5" y="60.5" width="59" height="59" stroke="#07122A"/><rect x="944.5" y="60.5" width="59" height="59" stroke="#07122A"/><rect x="1003.5" y="60.5" width="59" height="59" stroke="#07122A"/><rect x="1062.5" y="60.5" width="59" height="59" stroke="#07122A"/><rect x="1121.5" y="60.5" width="59" height="59" stroke="#07122A"/><rect x="1180.5" y="60.5" width="59" height="59" stroke="#07122A"/><rect x="1239.5" y="60.5" width="59" height="59" stroke="#07122A"/><rect x="1298.5" y="60.5" width="59" height="59" stroke="#07122A"/><rect x="1357.5" y="60.5" width="59" height="59" stroke="#07122A"/><rect x="1416.5" y="60.5" width="59" height="59" stroke="#07122A"/><rect x="1475.5" y="60.5" width="59" height="59" stroke="#07122A"/><rect x="1534.5" y="60.5" width="59" height="59" stroke="#07122A"/><rect x="1593.5" y="60.5" width="59" height="59" stroke="#07122A"/><rect x="1652.5" y="60.5" width="59" height="59" stroke="#07122A"/><rect x="1711.5" y="60.5" width="59" height="59" stroke="#07122A"/><rect x="1770.5" y="60.5" width="59" height="59" stroke="#07122A"/><rect x="1829.5" y="60.5" width="59" height="59" stroke="#07122A"/><rect x="0.5" y="120.5" width="59" height="59" stroke="#07122A"/><rect x="59.5" y="120.5" width="59" height="59" stroke="#07122A"/><rect x="118.5" y="120.5" width="59" height="59" stroke="#07122A"/><rect x="177.5" y="120.5" width="59" height="59" stroke="#07122A"/><rect x="236.5" y="120.5" width="59" height="59" stroke="#07122A"/><rect x="295.5" y="120.5" width="59" height="59" stroke="#07122A"/><rect x="354.5" y="120.5" width="59" height="59" stroke="#07122A"/><rect x="413.5" y="120.5" width="59" height="59" stroke="#07122A"/><rect x="472.5" y="120.5" width="59" height="59" stroke="#07122A"/><rect x="531.5" y="120.5" width="59" height="59" stroke="#07122A"/><rect x="590.5" y="120.5" width="59" height="59" stroke="#07122A"/><rect x="649.5" y="120.5" width="59" height="59" stroke="#07122A"/><rect x="708.5" y="120.5" width="59" height="59" stroke="#07122A"/><rect x="767.5" y="120.5" width="59" height="59" stroke="#07122A"/><rect x="826.5" y="120.5" width="59" height="59" fill="#08132C"/><rect x="826.5" y="120.5" width="59" height="59" stroke="#010D28"/><rect x="885.5" y="120.5" width="59" height="59" stroke="#07122A"/><rect x="944.5" y="120.5" width="59" height="59" stroke="#07122A"/><rect x="1003.5" y="120.5" width="59" height="59" stroke="#07122A"/><rect x="1062.5" y="120.5" width="59" height="59" stroke="#07122A"/><rect x="1121.5" y="120.5" width="59" height="59" stroke="#07122A"/><rect x="1180.5" y="120.5" width="59" height="59" stroke="#07122A"/><rect x="1239.5" y="120.5" width="59" height="59" stroke="#07122A"/><rect x="1298.5" y="120.5" width="59" height="59" fill="#08132C"/><rect x="1298.5" y="120.5" width="59" height="59" stroke="#010D28"/><rect x="1357.5" y="120.5" width="59" height="59" stroke="#07122A"/><rect x="1416.5" y="120.5" width="59" height="59" stroke="#07122A"/><rect x="1475.5" y="120.5" width="59" height="59" stroke="#07122A"/><rect x="1534.5" y="120.5" width="59" height="59" stroke="#07122A"/><rect x="1593.5" y="120.5" width="59" height="59" fill="#08132C"/><rect x="1593.5" y="120.5" width="59" height="59" stroke="#010D28"/><rect x="1652.5" y="120.5" width="59" height="59" stroke="#07122A"/><rect x="1711.5" y="120.5" width="59" height="59" stroke="#07122A"/><rect x="1770.5" y="120.5" width="59" height="59" stroke="#07122A"/><rect x="1829.5" y="120.5" width="59" height="59" stroke="#07122A"/><rect x="0.5" y="180.5" width="59" height="59" stroke="#07122A"/><rect x="59.5" y="180.5" width="59" height="59" stroke="#07122A"/><rect x="118.5" y="180.5" width="59" height="59" stroke="#07122A"/><rect x="177.5" y="180.5" width="59" height="59" stroke="#07122A"/><rect x="236.5" y="180.5" width="59" height="59" stroke="#07122A"/><rect x="295.5" y="180.5" width="59" height="59" stroke="#07122A"/><rect x="354.5" y="180.5" width="59" height="59" stroke="#07122A"/><rect x="413.5" y="180.5" width="59" height="59" stroke="#07122A"/><rect x="472.5" y="180.5" width="59" height="59" stroke="#07122A"/><rect x="531.5" y="180.5" width="59" height="59" stroke="#07122A"/><rect x="590.5" y="180.5" width="59" height="59" stroke="#07122A"/><rect x="649.5" y="180.5" width="59" height="59" stroke="#07122A"/><rect x="708.5" y="180.5" width="59" height="59" stroke="#07122A"/><rect x="767.5" y="180.5" width="59" height="59" stroke="#07122A"/><rect x="826.5" y="180.5" width="59" height="59" stroke="#07122A"/><rect x="885.5" y="180.5" width="59" height="59" stroke="#07122A"/><rect x="944.5" y="180.5" width="59" height="59" stroke="#07122A"/><rect x="1003.5" y="180.5" width="59" height="59" fill="#08132C"/><rect x="1003.5" y="180.5" width="59" height="59" stroke="#010D28"/><rect x="1062.5" y="180.5" width="59" height="59" stroke="#07122A"/><rect x="1121.5" y="180.5" width="59" height="59" stroke="#07122A"/><rect x="1180.5" y="180.5" width="59" height="59" stroke="#07122A"/><rect x="1239.5" y="180.5" width="59" height="59" stroke="#07122A"/><rect x="1298.5" y="180.5" width="59" height="59" stroke="#07122A"/><rect x="1357.5" y="180.5" width="59" height="59" stroke="#07122A"/><rect x="1416.5" y="180.5" width="59" height="59" stroke="#07122A"/><rect x="1475.5" y="180.5" width="59" height="59" stroke="#07122A"/><rect x="1534.5" y="180.5" width="59" height="59" stroke="#07122A"/><rect x="1593.5" y="180.5" width="59" height="59" stroke="#07122A"/><rect x="1652.5" y="180.5" width="59" height="59" stroke="#07122A"/><rect x="1711.5" y="180.5" width="59" height="59" stroke="#07122A"/><rect x="1770.5" y="180.5" width="59" height="59" stroke="#07122A"/><rect x="1829.5" y="180.5" width="59" height="59" stroke="#07122A"/><rect x="0.5" y="240.5" width="59" height="59" stroke="#07122A"/><rect x="59.5" y="240.5" width="59" height="59" stroke="#07122A"/><rect x="118.5" y="240.5" width="59" height="59" stroke="#07122A"/><rect x="177.5" y="240.5" width="59" height="59" stroke="#07122A"/><rect x="236.5" y="240.5" width="59" height="59" stroke="#07122A"/><rect x="295.5" y="240.5" width="59" height="59" stroke="#07122A"/><rect x="354.5" y="240.5" width="59" height="59" stroke="#07122A"/><rect x="413.5" y="240.5" width="59" height="59" stroke="#07122A"/><rect x="472.5" y="240.5" width="59" height="59" stroke="#07122A"/><rect x="531.5" y="240.5" width="59" height="59" stroke="#07122A"/><rect x="590.5" y="240.5" width="59" height="59" stroke="#07122A"/><rect x="649.5" y="240.5" width="59" height="59" stroke="#07122A"/><rect x="708.5" y="240.5" width="59" height="59" stroke="#07122A"/><rect x="767.5" y="240.5" width="59" height="59" stroke="#07122A"/><rect x="826.5" y="240.5" width="59" height="59" fill="#08132C"/><rect x="826.5" y="240.5" width="59" height="59" stroke="#010D28"/><rect x="885.5" y="240.5" width="59" height="59" stroke="#07122A"/><rect x="944.5" y="240.5" width="59" height="59" stroke="#07122A"/><rect x="1003.5" y="240.5" width="59" height="59" stroke="#07122A"/><rect x="1062.5" y="240.5" width="59" height="59" stroke="#07122A"/><rect x="1121.5" y="240.5" width="59" height="59" stroke="#07122A"/><rect x="1180.5" y="240.5" width="59" height="59" stroke="#07122A"/><rect x="1239.5" y="240.5" width="59" height="59" stroke="#07122A"/><rect x="1298.5" y="240.5" width="59" height="59" stroke="#07122A"/><rect x="1357.5" y="240.5" width="59" height="59" stroke="#07122A"/><rect x="1416.5" y="240.5" width="59" height="59" stroke="#07122A"/><rect x="1475.5" y="240.5" width="59" height="59" stroke="#07122A"/><rect x="1534.5" y="240.5" width="59" height="59" fill="#08132C"/><rect x="1534.5" y="240.5" width="59" height="59" stroke="#010D28"/><rect x="1593.5" y="240.5" width="59" height="59" stroke="#07122A"/><rect x="1652.5" y="240.5" width="59" height="59" stroke="#07122A"/><rect x="1711.5" y="240.5" width="59" height="59" stroke="#07122A"/><rect x="1770.5" y="240.5" width="59" height="59" stroke="#07122A"/><rect x="1829.5" y="240.5" width="59" height="59" stroke="#07122A"/><rect x="0.5" y="300.5" width="59" height="59" stroke="#07122A"/><rect x="59.5" y="300.5" width="59" height="59" stroke="#07122A"/><rect x="118.5" y="300.5" width="59" height="59" stroke="#07122A"/><rect x="177.5" y="300.5" width="59" height="59" stroke="#07122A"/><rect x="236.5" y="300.5" width="59" height="59" stroke="#07122A"/><rect x="295.5" y="300.5" width="59" height="59" stroke="#07122A"/><rect x="354.5" y="300.5" width="59" height="59" stroke="#07122A"/><rect x="413.5" y="300.5" width="59" height="59" stroke="#07122A"/><rect x="472.5" y="300.5" width="59" height="59" stroke="#07122A"/><rect x="531.5" y="300.5" width="59" height="59" stroke="#07122A"/><rect x="590.5" y="300.5" width="59" height="59" stroke="#07122A"/><rect x="649.5" y="300.5" width="59" height="59" stroke="#07122A"/><rect x="708.5" y="300.5" width="59" height="59" stroke="#07122A"/><rect x="767.5" y="300.5" width="59" height="59" stroke="#07122A"/><rect x="826.5" y="300.5" width="59" height="59" stroke="#07122A"/><rect x="885.5" y="300.5" width="59" height="59" stroke="#07122A"/><rect x="944.5" y="300.5" width="59" height="59" stroke="#07122A"/><rect x="1003.5" y="300.5" width="59" height="59" stroke="#07122A"/><rect x="1062.5" y="300.5" width="59" height="59" stroke="#07122A"/><rect x="1121.5" y="300.5" width="59" height="59" stroke="#07122A"/><rect x="1180.5" y="300.5" width="59" height="59" stroke="#07122A"/><rect x="1239.5" y="300.5" width="59" height="59" stroke="#07122A"/><rect x="1298.5" y="300.5" width="59" height="59" stroke="#07122A"/><rect x="1357.5" y="300.5" width="59" height="59" stroke="#07122A"/><rect x="1416.5" y="300.5" width="59" height="59" stroke="#07122A"/><rect x="1475.5" y="300.5" width="59" height="59" stroke="#07122A"/><rect x="1534.5" y="300.5" width="59" height="59" stroke="#07122A"/><rect x="1593.5" y="300.5" width="59" height="59" stroke="#07122A"/><rect x="1652.5" y="300.5" width="59" height="59" stroke="#07122A"/><rect x="1711.5" y="300.5" width="59" height="59" stroke="#07122A"/><rect x="1770.5" y="300.5" width="59" height="59" stroke="#07122A"/><rect x="1829.5" y="300.5" width="59" height="59" stroke="#07122A"/><rect x="0.5" y="360.5" width="59" height="59" stroke="#07122A"/><rect x="59.5" y="360.5" width="59" height="59" stroke="#07122A"/><rect x="118.5" y="360.5" width="59" height="59" stroke="#07122A"/><rect x="177.5" y="360.5" width="59" height="59" stroke="#07122A"/><rect x="236.5" y="360.5" width="59" height="59" stroke="#07122A"/><rect x="295.5" y="360.5" width="59" height="59" stroke="#07122A"/><rect x="354.5" y="360.5" width="59" height="59" stroke="#07122A"/><rect x="413.5" y="360.5" width="59" height="59" stroke="#07122A"/><rect x="472.5" y="360.5" width="59" height="59" stroke="#07122A"/><rect x="531.5" y="360.5" width="59" height="59" stroke="#07122A"/><rect x="590.5" y="360.5" width="59" height="59" stroke="#07122A"/><rect x="649.5" y="360.5" width="59" height="59" stroke="#07122A"/><rect x="708.5" y="360.5" width="59" height="59" stroke="#07122A"/><rect x="767.5" y="360.5" width="59" height="59" stroke="#07122A"/><rect x="826.5" y="360.5" width="59" height="59" stroke="#07122A"/><rect x="885.5" y="360.5" width="59" height="59" stroke="#07122A"/><rect x="944.5" y="360.5" width="59" height="59" stroke="#07122A"/><rect x="1003.5" y="360.5" width="59" height="59" stroke="#07122A"/><rect x="1062.5" y="360.5" width="59" height="59" stroke="#07122A"/><rect x="1121.5" y="360.5" width="59" height="59" stroke="#07122A"/><rect x="1180.5" y="360.5" width="59" height="59" stroke="#07122A"/><rect x="1239.5" y="360.5" width="59" height="59" stroke="#07122A"/><rect x="1298.5" y="360.5" width="59" height="59" stroke="#07122A"/><rect x="1357.5" y="360.5" width="59" height="59" stroke="#07122A"/><rect x="1416.5" y="360.5" width="59" height="59" stroke="#07122A"/><rect x="1475.5" y="360.5" width="59" height="59" stroke="#07122A"/><rect x="1534.5" y="360.5" width="59" height="59" stroke="#07122A"/><rect x="1593.5" y="360.5" width="59" height="59" stroke="#07122A"/><rect x="1652.5" y="360.5" width="59" height="59" stroke="#07122A"/><rect x="1711.5" y="360.5" width="59" height="59" stroke="#07122A"/><rect x="1770.5" y="360.5" width="59" height="59" stroke="#07122A"/><rect x="1829.5" y="360.5" width="59" height="59" fill="#08132C"/><rect x="1829.5" y="360.5" width="59" height="59" stroke="#010D28"/><rect x="0.5" y="420.5" width="59" height="59" stroke="#07122A"/><rect x="59.5" y="420.5" width="59" height="59" stroke="#07122A"/><rect x="118.5" y="420.5" width="59" height="59" stroke="#07122A"/><rect x="177.5" y="420.5" width="59" height="59" stroke="#07122A"/><rect x="236.5" y="420.5" width="59" height="59" stroke="#07122A"/><rect x="295.5" y="420.5" width="59" height="59" stroke="#07122A"/><rect x="354.5" y="420.5" width="59" height="59" stroke="#07122A"/><rect x="413.5" y="420.5" width="59" height="59" stroke="#07122A"/><rect x="472.5" y="420.5" width="59" height="59" stroke="#07122A"/><rect x="531.5" y="420.5" width="59" height="59" stroke="#07122A"/><rect x="590.5" y="420.5" width="59" height="59" stroke="#07122A"/><rect x="649.5" y="420.5" width="59" height="59" stroke="#07122A"/><rect x="708.5" y="420.5" width="59" height="59" stroke="#07122A"/><rect x="767.5" y="420.5" width="59" height="59" stroke="#07122A"/><rect x="826.5" y="420.5" width="59" height="59" stroke="#07122A"/><rect x="885.5" y="420.5" width="59" height="59" stroke="#07122A"/><rect x="944.5" y="420.5" width="59" height="59" stroke="#07122A"/><rect x="1003.5" y="420.5" width="59" height="59" stroke="#07122A"/><rect x="1062.5" y="420.5" width="59" height="59" stroke="#07122A"/><rect x="1121.5" y="420.5" width="59" height="59" stroke="#07122A"/><rect x="1180.5" y="420.5" width="59" height="59" stroke="#07122A"/><rect x="1239.5" y="420.5" width="59" height="59" stroke="#07122A"/><rect x="1298.5" y="420.5" width="59" height="59" stroke="#07122A"/><rect x="1357.5" y="420.5" width="59" height="59" stroke="#07122A"/><rect x="1416.5" y="420.5" width="59" height="59" stroke="#07122A"/><rect x="1475.5" y="420.5" width="59" height="59" stroke="#07122A"/><rect x="1534.5" y="420.5" width="59" height="59" stroke="#07122A"/><rect x="1593.5" y="420.5" width="59" height="59" stroke="#07122A"/><rect x="1652.5" y="420.5" width="59" height="59" stroke="#07122A"/><rect x="1711.5" y="420.5" width="59" height="59" stroke="#07122A"/><rect x="1770.5" y="420.5" width="59" height="59" stroke="#07122A"/><rect x="1829.5" y="420.5" width="59" height="59" stroke="#07122A"/><rect x="0.5" y="480.5" width="59" height="59" stroke="#07122A"/><rect x="59.5" y="480.5" width="59" height="59" stroke="#07122A"/><rect x="118.5" y="480.5" width="59" height="59" stroke="#07122A"/><rect x="177.5" y="480.5" width="59" height="59" stroke="#07122A"/><rect x="236.5" y="480.5" width="59" height="59" stroke="#07122A"/><rect x="295.5" y="480.5" width="59" height="59" stroke="#07122A"/><rect x="354.5" y="480.5" width="59" height="59" fill="#08132C"/><rect x="354.5" y="480.5" width="59" height="59" stroke="#010D28"/><rect x="413.5" y="480.5" width="59" height="59" stroke="#07122A"/><rect x="472.5" y="480.5" width="59" height="59" stroke="#07122A"/><rect x="531.5" y="480.5" width="59" height="59" stroke="#07122A"/><rect x="590.5" y="480.5" width="59" height="59" stroke="#07122A"/><rect x="649.5" y="480.5" width="59" height="59" stroke="#07122A"/><rect x="708.5" y="480.5" width="59" height="59" stroke="#07122A"/><rect x="767.5" y="480.5" width="59" height="59" stroke="#07122A"/><rect x="826.5" y="480.5" width="59" height="59" stroke="#07122A"/><rect x="885.5" y="480.5" width="59" height="59" stroke="#07122A"/><rect x="944.5" y="480.5" width="59" height="59" stroke="#07122A"/><rect x="1003.5" y="480.5" width="59" height="59" stroke="#07122A"/><rect x="1062.5" y="480.5" width="59" height="59" stroke="#07122A"/><rect x="1121.5" y="480.5" width="59" height="59" stroke="#07122A"/><rect x="1180.5" y="480.5" width="59" height="59" stroke="#07122A"/><rect x="1239.5" y="480.5" width="59" height="59" stroke="#07122A"/><rect x="1298.5" y="480.5" width="59" height="59" stroke="#07122A"/><rect x="1357.5" y="480.5" width="59" height="59" stroke="#07122A"/><rect x="1416.5" y="480.5" width="59" height="59" stroke="#07122A"/><rect x="1475.5" y="480.5" width="59" height="59" stroke="#07122A"/><rect x="1534.5" y="480.5" width="59" height="59" stroke="#07122A"/><rect x="1593.5" y="480.5" width="59" height="59" fill="#08132C"/><rect x="1593.5" y="480.5" width="59" height="59" stroke="#010D28"/><rect x="1652.5" y="480.5" width="59" height="59" stroke="#07122A"/><rect x="1711.5" y="480.5" width="59" height="59" stroke="#07122A"/><rect x="1770.5" y="480.5" width="59" height="59" stroke="#07122A"/><rect x="1829.5" y="480.5" width="59" height="59" stroke="#07122A"/><rect x="0.5" y="540.5" width="59" height="59" stroke="#07122A"/><rect x="59.5" y="540.5" width="59" height="59" stroke="#07122A"/><rect x="118.5" y="540.5" width="59" height="59" stroke="#07122A"/><rect x="177.5" y="540.5" width="59" height="59" stroke="#07122A"/><rect x="236.5" y="540.5" width="59" height="59" stroke="#07122A"/><rect x="295.5" y="540.5" width="59" height="59" stroke="#07122A"/><rect x="354.5" y="540.5" width="59" height="59" stroke="#07122A"/><rect x="413.5" y="540.5" width="59" height="59" stroke="#07122A"/><rect x="472.5" y="540.5" width="59" height="59" stroke="#07122A"/><rect x="531.5" y="540.5" width="59" height="59" stroke="#07122A"/><rect x="590.5" y="540.5" width="59" height="59" stroke="#07122A"/><rect x="649.5" y="540.5" width="59" height="59" stroke="#07122A"/><rect x="708.5" y="540.5" width="59" height="59" stroke="#07122A"/><rect x="767.5" y="540.5" width="59" height="59" stroke="#07122A"/><rect x="826.5" y="540.5" width="59" height="59" stroke="#07122A"/><rect x="885.5" y="540.5" width="59" height="59" stroke="#07122A"/><rect x="944.5" y="540.5" width="59" height="59" stroke="#07122A"/><rect x="1003.5" y="540.5" width="59" height="59" stroke="#07122A"/><rect x="1062.5" y="540.5" width="59" height="59" stroke="#07122A"/><rect x="1121.5" y="540.5" width="59" height="59" stroke="#07122A"/><rect x="1180.5" y="540.5" width="59" height="59" stroke="#07122A"/><rect x="1239.5" y="540.5" width="59" height="59" fill="#08132C"/><rect x="1239.5" y="540.5" width="59" height="59" stroke="#010D28"/><rect x="1298.5" y="540.5" width="59" height="59" stroke="#07122A"/><rect x="1357.5" y="540.5" width="59" height="59" stroke="#07122A"/><rect x="1416.5" y="540.5" width="59" height="59" stroke="#07122A"/><rect x="1475.5" y="540.5" width="59" height="59" stroke="#07122A"/><rect x="1534.5" y="540.5" width="59" height="59" stroke="#07122A"/><rect x="1593.5" y="540.5" width="59" height="59" stroke="#07122A"/><rect x="1652.5" y="540.5" width="59" height="59" stroke="#07122A"/><rect x="1711.5" y="540.5" width="59" height="59" stroke="#07122A"/><rect x="1770.5" y="540.5" width="59" height="59" stroke="#07122A"/><rect x="1829.5" y="540.5" width="59" height="59" stroke="#07122A"/><rect x="0.5" y="600.5" width="59" height="59" stroke="#07122A"/><rect x="59.5" y="600.5" width="59" height="59" fill="#08132C"/><rect x="59.5" y="600.5" width="59" height="59" stroke="#010D28"/><rect x="118.5" y="600.5" width="59" height="59" stroke="#07122A"/><rect x="177.5" y="600.5" width="59" height="59" stroke="#07122A"/><rect x="236.5" y="600.5" width="59" height="59" stroke="#07122A"/><rect x="295.5" y="600.5" width="59" height="59" stroke="#07122A"/><rect x="354.5" y="600.5" width="59" height="59" stroke="#07122A"/><rect x="413.5" y="600.5" width="59" height="59" stroke="#07122A"/><rect x="472.5" y="600.5" width="59" height="59" fill="#08132C"/><rect x="472.5" y="600.5" width="59" height="59" stroke="#010D28"/><rect x="531.5" y="600.5" width="59" height="59" stroke="#07122A"/><rect x="590.5" y="600.5" width="59" height="59" stroke="#07122A"/><rect x="649.5" y="600.5" width="59" height="59" stroke="#07122A"/><rect x="708.5" y="600.5" width="59" height="59" stroke="#07122A"/><rect x="767.5" y="600.5" width="59" height="59" stroke="#07122A"/><rect x="826.5" y="600.5" width="59" height="59" stroke="#07122A"/><rect x="885.5" y="600.5" width="59" height="59" stroke="#07122A"/><rect x="944.5" y="600.5" width="59" height="59" stroke="#07122A"/><rect x="1003.5" y="600.5" width="59" height="59" stroke="#07122A"/><rect x="1062.5" y="600.5" width="59" height="59" stroke="#07122A"/><rect x="1121.5" y="600.5" width="59" height="59" stroke="#07122A"/><rect x="1180.5" y="600.5" width="59" height="59" stroke="#07122A"/><rect x="1239.5" y="600.5" width="59" height="59" stroke="#07122A"/><rect x="1298.5" y="600.5" width="59" height="59" stroke="#07122A"/><rect x="1357.5" y="600.5" width="59" height="59" stroke="#07122A"/><rect x="1416.5" y="600.5" width="59" height="59" stroke="#07122A"/><rect x="1475.5" y="600.5" width="59" height="59" stroke="#07122A"/><rect x="1534.5" y="600.5" width="59" height="59" stroke="#07122A"/><rect x="1593.5" y="600.5" width="59" height="59" stroke="#07122A"/><rect x="1652.5" y="600.5" width="59" height="59" stroke="#07122A"/><rect x="1711.5" y="600.5" width="59" height="59" stroke="#07122A"/><rect x="1770.5" y="600.5" width="59" height="59" stroke="#07122A"/><rect x="1829.5" y="600.5" width="59" height="59" stroke="#07122A"/><rect x="0.5" y="660.5" width="59" height="59" stroke="#07122A"/><rect x="59.5" y="660.5" width="59" height="59" stroke="#07122A"/><rect x="118.5" y="660.5" width="59" height="59" stroke="#07122A"/><rect x="177.5" y="660.5" width="59" height="59" stroke="#07122A"/><rect x="236.5" y="660.5" width="59" height="59" stroke="#07122A"/><rect x="295.5" y="660.5" width="59" height="59" stroke="#07122A"/><rect x="354.5" y="660.5" width="59" height="59" stroke="#07122A"/><rect x="413.5" y="660.5" width="59" height="59" stroke="#07122A"/><rect x="472.5" y="660.5" width="59" height="59" stroke="#07122A"/><rect x="531.5" y="660.5" width="59" height="59" stroke="#07122A"/><rect x="590.5" y="660.5" width="59" height="59" stroke="#07122A"/><rect x="649.5" y="660.5" width="59" height="59" fill="#08132C"/><rect x="649.5" y="660.5" width="59" height="59" stroke="#010D28"/><rect x="708.5" y="660.5" width="59" height="59" stroke="#07122A"/><rect x="767.5" y="660.5" width="59" height="59" stroke="#07122A"/><rect x="826.5" y="660.5" width="59" height="59" stroke="#07122A"/><rect x="885.5" y="660.5" width="59" height="59" stroke="#07122A"/><rect x="944.5" y="660.5" width="59" height="59" stroke="#07122A"/><rect x="1003.5" y="660.5" width="59" height="59" stroke="#07122A"/><rect x="1062.5" y="660.5" width="59" height="59" stroke="#07122A"/><rect x="1121.5" y="660.5" width="59" height="59" stroke="#07122A"/><rect x="1180.5" y="660.5" width="59" height="59" stroke="#07122A"/><rect x="1239.5" y="660.5" width="59" height="59" stroke="#07122A"/><rect x="1298.5" y="660.5" width="59" height="59" stroke="#07122A"/><rect x="1357.5" y="660.5" width="59" height="59" stroke="#07122A"/><rect x="1416.5" y="660.5" width="59" height="59" stroke="#07122A"/><rect x="1475.5" y="660.5" width="59" height="59" stroke="#07122A"/><rect x="1534.5" y="660.5" width="59" height="59" stroke="#07122A"/><rect x="1593.5" y="660.5" width="59" height="59" fill="#08132C"/><rect x="1593.5" y="660.5" width="59" height="59" stroke="#010D28"/><rect x="1652.5" y="660.5" width="59" height="59" stroke="#07122A"/><rect x="1711.5" y="660.5" width="59" height="59" stroke="#07122A"/><rect x="1770.5" y="660.5" width="59" height="59" stroke="#07122A"/><rect x="1829.5" y="660.5" width="59" height="59" stroke="#07122A"/><rect x="0.5" y="720.5" width="59" height="59" stroke="#07122A"/><rect x="59.5" y="720.5" width="59" height="59" stroke="#07122A"/><rect x="118.5" y="720.5" width="59" height="59" stroke="#07122A"/><rect x="177.5" y="720.5" width="59" height="59" stroke="#07122A"/><rect x="236.5" y="720.5" width="59" height="59" stroke="#07122A"/><rect x="295.5" y="720.5" width="59" height="59" stroke="#07122A"/><rect x="354.5" y="720.5" width="59" height="59" stroke="#07122A"/><rect x="413.5" y="720.5" width="59" height="59" stroke="#07122A"/><rect x="472.5" y="720.5" width="59" height="59" stroke="#07122A"/><rect x="531.5" y="720.5" width="59" height="59" stroke="#07122A"/><rect x="590.5" y="720.5" width="59" height="59" stroke="#07122A"/><rect x="649.5" y="720.5" width="59" height="59" stroke="#07122A"/><rect x="708.5" y="720.5" width="59" height="59" stroke="#07122A"/><rect x="767.5" y="720.5" width="59" height="59" stroke="#07122A"/><rect x="826.5" y="720.5" width="59" height="59" stroke="#07122A"/><rect x="885.5" y="720.5" width="59" height="59" stroke="#07122A"/><rect x="944.5" y="720.5" width="59" height="59" stroke="#07122A"/><rect x="1003.5" y="720.5" width="59" height="59" stroke="#07122A"/><rect x="1062.5" y="720.5" width="59" height="59" stroke="#07122A"/><rect x="1121.5" y="720.5" width="59" height="59" stroke="#07122A"/><rect x="1180.5" y="720.5" width="59" height="59" stroke="#07122A"/><rect x="1239.5" y="720.5" width="59" height="59" stroke="#07122A"/><rect x="1298.5" y="720.5" width="59" height="59" stroke="#07122A"/><rect x="1357.5" y="720.5" width="59" height="59" stroke="#07122A"/><rect x="1416.5" y="720.5" width="59" height="59" stroke="#07122A"/><rect x="1475.5" y="720.5" width="59" height="59" stroke="#07122A"/><rect x="1534.5" y="720.5" width="59" height="59" stroke="#07122A"/><rect x="1593.5" y="720.5" width="59" height="59" stroke="#07122A"/><rect x="1652.5" y="720.5" width="59" height="59" stroke="#07122A"/><rect x="1711.5" y="720.5" width="59" height="59" stroke="#07122A"/><rect x="1770.5" y="720.5" width="59" height="59" stroke="#07122A"/><rect x="1829.5" y="720.5" width="59" height="59" stroke="#07122A"/><rect x="0.5" y="780.5" width="59" height="59" stroke="#07122A"/><rect x="59.5" y="780.5" width="59" height="59" stroke="#07122A"/><rect x="118.5" y="780.5" width="59" height="59" stroke="#07122A"/></g></g></g><defs><linearGradient id="paint0_linear_275_102" x1="960" y1="0" x2="960" y2="840" gradientUnits="userSpaceOnUse"><stop stop-opacity="0"/><stop offset="0.495592"/><stop offset="1" stop-opacity="0"/></linearGradient><clipPath id="clip0_275_102"><rect width="1920" height="840" fill="white"/></clipPath></defs></svg>