<svg width="300" height="300" viewBox="0 0 300 300" fill="none" xmlns="http://www.w3.org/2000/svg"><g clip-path="url(#clip0_318_118)"><path d="M300 0H0V300H300V0Z" fill="#20325B"/><g clip-path="url(#clip1_318_118)"><path d="M120.52 123.66C139.76 209.59 178.36 205.09 201.93 209.64C239.66 216.9 257.68 244.71 257.68 244.71C257.68 244.71 231.55 222.67 166.53 228.27C104.91 233.58 120.51 123.66 120.51 123.66" fill="#154477"/><path d="M49 243C49 243 135 216 237 290C237 290 158 269 122 281C122 281 104 243 49 243Z" fill="#154477"/><path d="M96 0C119 85 82.75 99 64 114C34 138 31 171 31 171C31 171 43.86 139.32 104 114C161 90 96 0 96 0Z" fill="#154477"/><path d="M300 75.24V94.82C288.87 84.89 272.13 73.41 247.41 63C220.02 51.47 220.8 24.7 229.01 0H248.06C249.22 40.97 273.28 51.69 287.41 63C292.29 66.9 296.45 71.04 300 75.24Z" fill="#154477"/></g><g clip-path="url(#clip2_318_118)"><path d="M183.2 187.1H125.18L124.47 188.78C119.14 201.43 106.74 209.66 93 209.66L134.01 111.08C139.32 98.31 151.78 90 165.6 90L206.61 188.58C210.78 198.61 203.41 209.66 192.55 209.66L183.2 187.1ZM151.53 121.71L135.84 160.5C134.76 163.16 136.72 166.07 139.59 166.07H166.04C170.22 166.07 173.08 161.83 171.51 157.96L156.85 121.71C155.88 119.32 152.49 119.32 151.53 121.71Z" fill="#D1690B"/><path d="M165.6 90C165.6 90 152.81 117.46 125.06 187.22C125.06 187.22 117.93 209.41 93.3501 209.41L133.79 111.12C133.79 111.12 141.75 90.41 165.6 90Z" fill="url(#paint0_linear_318_118)"/></g><path d="M112.533 259.536C112.533 258.64 112.709 257.845 113.061 257.152C113.424 256.459 113.909 255.925 114.517 255.552C115.136 255.179 115.824 254.992 116.581 254.992C117.242 254.992 117.818 255.125 118.309 255.392C118.81 255.659 119.21 255.995 119.509 256.4V255.136H121.765V264H119.509V262.704C119.221 263.12 118.821 263.467 118.309 263.744C117.808 264.011 117.226 264.144 116.565 264.144C115.818 264.144 115.136 263.952 114.517 263.568C113.909 263.184 113.424 262.645 113.061 261.952C112.709 261.248 112.533 260.443 112.533 259.536ZM119.509 259.568C119.509 259.024 119.402 258.56 119.189 258.176C118.976 257.781 118.688 257.483 118.325 257.28C117.962 257.067 117.573 256.96 117.157 256.96C116.741 256.96 116.357 257.061 116.005 257.264C115.653 257.467 115.365 257.765 115.141 258.16C114.928 258.544 114.821 259.003 114.821 259.536C114.821 260.069 114.928 260.539 115.141 260.944C115.365 261.339 115.653 261.643 116.005 261.856C116.368 262.069 116.752 262.176 117.157 262.176C117.573 262.176 117.962 262.075 118.325 261.872C118.688 261.659 118.976 261.36 119.189 260.976C119.402 260.581 119.509 260.112 119.509 259.568ZM125.409 254.08C125.014 254.08 124.683 253.957 124.417 253.712C124.161 253.456 124.033 253.141 124.033 252.768C124.033 252.395 124.161 252.085 124.417 251.84C124.683 251.584 125.014 251.456 125.409 251.456C125.803 251.456 126.129 251.584 126.385 251.84C126.651 252.085 126.785 252.395 126.785 252.768C126.785 253.141 126.651 253.456 126.385 253.712C126.129 253.957 125.803 254.08 125.409 254.08ZM126.513 255.136V264H124.273V255.136H126.513ZM128.47 259.536C128.47 258.64 128.646 257.845 128.998 257.152C129.361 256.459 129.851 255.925 130.47 255.552C131.089 255.179 131.777 254.992 132.534 254.992C133.11 254.992 133.659 255.12 134.182 255.376C134.705 255.621 135.121 255.952 135.43 256.368V252.16H137.702V264H135.43V262.688C135.153 263.125 134.763 263.477 134.262 263.744C133.761 264.011 133.179 264.144 132.518 264.144C131.771 264.144 131.089 263.952 130.47 263.568C129.851 263.184 129.361 262.645 128.998 261.952C128.646 261.248 128.47 260.443 128.47 259.536ZM135.446 259.568C135.446 259.024 135.339 258.56 135.126 258.176C134.913 257.781 134.625 257.483 134.262 257.28C133.899 257.067 133.51 256.96 133.094 256.96C132.678 256.96 132.294 257.061 131.942 257.264C131.59 257.467 131.302 257.765 131.078 258.16C130.865 258.544 130.758 259.003 130.758 259.536C130.758 260.069 130.865 260.539 131.078 260.944C131.302 261.339 131.59 261.643 131.942 261.856C132.305 262.069 132.689 262.176 133.094 262.176C133.51 262.176 133.899 262.075 134.262 261.872C134.625 261.659 134.913 261.36 135.126 260.976C135.339 260.581 135.446 260.112 135.446 259.568ZM139.634 259.536C139.634 258.64 139.81 257.845 140.162 257.152C140.524 256.459 141.01 255.925 141.618 255.552C142.236 255.179 142.924 254.992 143.682 254.992C144.343 254.992 144.919 255.125 145.41 255.392C145.911 255.659 146.311 255.995 146.61 256.4V255.136H148.866V264H146.61V262.704C146.322 263.12 145.922 263.467 145.41 263.744C144.908 264.011 144.327 264.144 143.666 264.144C142.919 264.144 142.236 263.952 141.618 263.568C141.01 263.184 140.524 262.645 140.162 261.952C139.81 261.248 139.634 260.443 139.634 259.536ZM146.61 259.568C146.61 259.024 146.503 258.56 146.29 258.176C146.076 257.781 145.788 257.483 145.426 257.28C145.063 257.067 144.674 256.96 144.258 256.96C143.842 256.96 143.458 257.061 143.106 257.264C142.754 257.467 142.466 257.765 142.242 258.16C142.028 258.544 141.922 259.003 141.922 259.536C141.922 260.069 142.028 260.539 142.242 260.944C142.466 261.339 142.754 261.643 143.106 261.856C143.468 262.069 143.852 262.176 144.258 262.176C144.674 262.176 145.063 262.075 145.426 261.872C145.788 261.659 146.076 261.36 146.29 260.976C146.503 260.581 146.61 260.112 146.61 259.568ZM153.613 256.512C153.901 256.043 154.275 255.675 154.733 255.408C155.203 255.141 155.736 255.008 156.333 255.008V257.36H155.741C155.037 257.36 154.504 257.525 154.141 257.856C153.789 258.187 153.613 258.763 153.613 259.584V264H151.373V255.136H153.613V256.512ZM157.586 259.536C157.586 258.64 157.762 257.845 158.114 257.152C158.477 256.459 158.967 255.925 159.586 255.552C160.205 255.179 160.893 254.992 161.65 254.992C162.226 254.992 162.775 255.12 163.298 255.376C163.821 255.621 164.237 255.952 164.546 256.368V252.16H166.818V264H164.546V262.688C164.269 263.125 163.879 263.477 163.378 263.744C162.877 264.011 162.295 264.144 161.634 264.144C160.887 264.144 160.205 263.952 159.586 263.568C158.967 263.184 158.477 262.645 158.114 261.952C157.762 261.248 157.586 260.443 157.586 259.536ZM164.562 259.568C164.562 259.024 164.455 258.56 164.242 258.176C164.029 257.781 163.741 257.483 163.378 257.28C163.015 257.067 162.626 256.96 162.21 256.96C161.794 256.96 161.41 257.061 161.058 257.264C160.706 257.467 160.418 257.765 160.194 258.16C159.981 258.544 159.874 259.003 159.874 259.536C159.874 260.069 159.981 260.539 160.194 260.944C160.418 261.339 160.706 261.643 161.058 261.856C161.421 262.069 161.805 262.176 162.21 262.176C162.626 262.176 163.015 262.075 163.378 261.872C163.741 261.659 164.029 261.36 164.242 260.976C164.455 260.581 164.562 260.112 164.562 259.568ZM177.566 259.376C177.566 259.696 177.545 259.984 177.502 260.24H171.022C171.075 260.88 171.299 261.381 171.694 261.744C172.089 262.107 172.574 262.288 173.15 262.288C173.982 262.288 174.574 261.931 174.926 261.216H177.342C177.086 262.069 176.595 262.773 175.87 263.328C175.145 263.872 174.254 264.144 173.198 264.144C172.345 264.144 171.577 263.957 170.894 263.584C170.222 263.2 169.694 262.661 169.31 261.968C168.937 261.275 168.75 260.475 168.75 259.568C168.75 258.651 168.937 257.845 169.31 257.152C169.683 256.459 170.206 255.925 170.878 255.552C171.55 255.179 172.323 254.992 173.198 254.992C174.041 254.992 174.793 255.173 175.454 255.536C176.126 255.899 176.643 256.416 177.006 257.088C177.379 257.749 177.566 258.512 177.566 259.376ZM175.246 258.736C175.235 258.16 175.027 257.701 174.622 257.36C174.217 257.008 173.721 256.832 173.134 256.832C172.579 256.832 172.11 257.003 171.726 257.344C171.353 257.675 171.123 258.139 171.038 258.736H175.246ZM183.217 261.936L185.457 255.136H187.841L184.561 264H181.841L178.577 255.136H180.977L183.217 261.936Z" fill="white"/></g><defs><linearGradient id="paint0_linear_318_118" x1="93.3601" y1="149.7" x2="165.6" y2="149.7" gradientUnits="userSpaceOnUse"><stop stop-color="#F8B215"/><stop offset="0.44" stop-color="#F28A09"/><stop offset="0.79" stop-color="#EE7202"/><stop offset="1" stop-color="#ED6900"/></linearGradient><clipPath id="clip0_318_118"><rect width="300" height="300" fill="white"/></clipPath><clipPath id="clip1_318_118"><rect width="269" height="290" fill="white" transform="translate(31)"/></clipPath><clipPath id="clip2_318_118"><rect width="114.8" height="119.66" fill="white" transform="translate(93 90)"/></clipPath></defs></svg>