<svg width="81" height="14" viewBox="0 0 81 14" fill="none" xmlns="http://www.w3.org/2000/svg"><path d="M0.794876 8.536C0.794876 7.64 0.970876 6.84533 1.32288 6.152C1.68554 5.45867 2.17088 4.92533 2.77888 4.552C3.39754 4.17867 4.08554 3.992 4.84288 3.992C5.50421 3.992 6.08021 4.12533 6.57088 4.392C7.07221 4.65867 7.47221 4.99467 7.77088 5.4V4.136H10.0269V13H7.77088V11.704C7.48288 12.12 7.08288 12.4667 6.57088 12.744C6.06954 13.0107 5.48821 13.144 4.82688 13.144C4.08021 13.144 3.39754 12.952 2.77888 12.568C2.17088 12.184 1.68554 11.6453 1.32288 10.952C0.970876 10.248 0.794876 9.44267 0.794876 8.536ZM7.77088 8.568C7.77088 8.024 7.66421 7.56 7.45088 7.176C7.23754 6.78133 6.94954 6.48267 6.58688 6.28C6.22421 6.06667 5.83488 5.96 5.41888 5.96C5.00288 5.96 4.61888 6.06133 4.26688 6.264C3.91488 6.46667 3.62688 6.76533 3.40288 7.16C3.18954 7.544 3.08288 8.00267 3.08288 8.536C3.08288 9.06933 3.18954 9.53867 3.40288 9.944C3.62688 10.3387 3.91488 10.6427 4.26688 10.856C4.62954 11.0693 5.01354 11.176 5.41888 11.176C5.83488 11.176 6.22421 11.0747 6.58688 10.872C6.94954 10.6587 7.23754 10.36 7.45088 9.976C7.66421 9.58133 7.77088 9.112 7.77088 8.568ZM13.6706 3.08C13.276 3.08 12.9453 2.95733 12.6786 2.712C12.4226 2.456 12.2946 2.14133 12.2946 1.768C12.2946 1.39467 12.4226 1.08533 12.6786 0.839999C12.9453 0.583999 13.276 0.455999 13.6706 0.455999C14.0653 0.455999 14.3906 0.583999 14.6466 0.839999C14.9133 1.08533 15.0466 1.39467 15.0466 1.768C15.0466 2.14133 14.9133 2.456 14.6466 2.712C14.3906 2.95733 14.0653 3.08 13.6706 3.08ZM14.7746 4.136V13H12.5346V4.136H14.7746ZM16.7318 8.536C16.7318 7.64 16.9078 6.84533 17.2598 6.152C17.6224 5.45867 18.1131 4.92533 18.7318 4.552C19.3504 4.17867 20.0384 3.992 20.7958 3.992C21.3718 3.992 21.9211 4.12 22.4438 4.376C22.9664 4.62133 23.3824 4.952 23.6918 5.368V1.16H25.9638V13H23.6918V11.688C23.4144 12.1253 23.0251 12.4773 22.5238 12.744C22.0224 13.0107 21.4411 13.144 20.7798 13.144C20.0331 13.144 19.3504 12.952 18.7318 12.568C18.1131 12.184 17.6224 11.6453 17.2598 10.952C16.9078 10.248 16.7318 9.44267 16.7318 8.536ZM23.7078 8.568C23.7078 8.024 23.6011 7.56 23.3878 7.176C23.1744 6.78133 22.8864 6.48267 22.5238 6.28C22.1611 6.06667 21.7718 5.96 21.3558 5.96C20.9398 5.96 20.5558 6.06133 20.2038 6.264C19.8518 6.46667 19.5638 6.76533 19.3398 7.16C19.1264 7.544 19.0198 8.00267 19.0198 8.536C19.0198 9.06933 19.1264 9.53867 19.3398 9.944C19.5638 10.3387 19.8518 10.6427 20.2038 10.856C20.5664 11.0693 20.9504 11.176 21.3558 11.176C21.7718 11.176 22.1611 11.0747 22.5238 10.872C22.8864 10.6587 23.1744 10.36 23.3878 9.976C23.6011 9.58133 23.7078 9.112 23.7078 8.568ZM27.8955 8.536C27.8955 7.64 28.0715 6.84533 28.4235 6.152C28.7862 5.45867 29.2715 4.92533 29.8795 4.552C30.4982 4.17867 31.1862 3.992 31.9435 3.992C32.6048 3.992 33.1808 4.12533 33.6715 4.392C34.1728 4.65867 34.5728 4.99467 34.8715 5.4V4.136H37.1275V13H34.8715V11.704C34.5835 12.12 34.1835 12.4667 33.6715 12.744C33.1702 13.0107 32.5888 13.144 31.9275 13.144C31.1808 13.144 30.4982 12.952 29.8795 12.568C29.2715 12.184 28.7862 11.6453 28.4235 10.952C28.0715 10.248 27.8955 9.44267 27.8955 8.536ZM34.8715 8.568C34.8715 8.024 34.7648 7.56 34.5515 7.176C34.3382 6.78133 34.0502 6.48267 33.6875 6.28C33.3248 6.06667 32.9355 5.96 32.5195 5.96C32.1035 5.96 31.7195 6.06133 31.3675 6.264C31.0155 6.46667 30.7275 6.76533 30.5035 7.16C30.2902 7.544 30.1835 8.00267 30.1835 8.536C30.1835 9.06933 30.2902 9.53867 30.5035 9.944C30.7275 10.3387 31.0155 10.6427 31.3675 10.856C31.7302 11.0693 32.1142 11.176 32.5195 11.176C32.9355 11.176 33.3248 11.0747 33.6875 10.872C34.0502 10.6587 34.3382 10.36 34.5515 9.976C34.7648 9.58133 34.8715 9.112 34.8715 8.568ZM41.8753 5.512C42.1633 5.04267 42.5366 4.67467 42.9953 4.408C43.4646 4.14133 43.9979 4.008 44.5953 4.008V6.36H44.0033C43.2993 6.36 42.7659 6.52533 42.4033 6.856C42.0513 7.18667 41.8753 7.76267 41.8753 8.584V13H39.6353V4.136H41.8753V5.512ZM47.416 13.112C47.0107 13.112 46.6747 12.9893 46.408 12.744C46.152 12.488 46.024 12.1733 46.024 11.8C46.024 11.4267 46.152 11.1173 46.408 10.872C46.6747 10.616 47.0107 10.488 47.416 10.488C47.8107 10.488 48.136 10.616 48.392 10.872C48.648 11.1173 48.776 11.4267 48.776 11.8C48.776 12.1733 48.648 12.488 48.392 12.744C48.136 12.9893 47.8107 13.112 47.416 13.112ZM50.3242 8.536C50.3242 7.64 50.5002 6.84533 50.8522 6.152C51.2149 5.45867 51.7056 4.92533 52.3242 4.552C52.9429 4.17867 53.6309 3.992 54.3882 3.992C54.9642 3.992 55.5136 4.12 56.0362 4.376C56.5589 4.62133 56.9749 4.952 57.2842 5.368V1.16H59.5562V13H57.2842V11.688C57.0069 12.1253 56.6176 12.4773 56.1162 12.744C55.6149 13.0107 55.0336 13.144 54.3722 13.144C53.6256 13.144 52.9429 12.952 52.3242 12.568C51.7056 12.184 51.2149 11.6453 50.8522 10.952C50.5002 10.248 50.3242 9.44267 50.3242 8.536ZM57.3002 8.568C57.3002 8.024 57.1936 7.56 56.9802 7.176C56.7669 6.78133 56.4789 6.48267 56.1162 6.28C55.7536 6.06667 55.3642 5.96 54.9482 5.96C54.5322 5.96 54.1482 6.06133 53.7962 6.264C53.4442 6.46667 53.1562 6.76533 52.9322 7.16C52.7189 7.544 52.6122 8.00267 52.6122 8.536C52.6122 9.06933 52.7189 9.53867 52.9322 9.944C53.1562 10.3387 53.4442 10.6427 53.7962 10.856C54.1589 11.0693 54.5429 11.176 54.9482 11.176C55.3642 11.176 55.7536 11.0747 56.1162 10.872C56.4789 10.6587 56.7669 10.36 56.9802 9.976C57.1936 9.58133 57.3002 9.112 57.3002 8.568ZM70.304 8.376C70.304 8.696 70.2827 8.984 70.24 9.24H63.76C63.8133 9.88 64.0373 10.3813 64.432 10.744C64.8267 11.1067 65.312 11.288 65.888 11.288C66.72 11.288 67.312 10.9307 67.664 10.216H70.08C69.824 11.0693 69.3333 11.7733 68.608 12.328C67.8827 12.872 66.992 13.144 65.936 13.144C65.0827 13.144 64.3147 12.9573 63.632 12.584C62.96 12.2 62.432 11.6613 62.048 10.968C61.6747 10.2747 61.488 9.47467 61.488 8.568C61.488 7.65067 61.6747 6.84533 62.048 6.152C62.4213 5.45867 62.944 4.92533 63.616 4.552C64.288 4.17867 65.0613 3.992 65.936 3.992C66.7787 3.992 67.5307 4.17333 68.192 4.536C68.864 4.89867 69.3813 5.416 69.744 6.088C70.1173 6.74933 70.304 7.512 70.304 8.376ZM67.984 7.736C67.9733 7.16 67.7653 6.70133 67.36 6.36C66.9547 6.008 66.4587 5.832 65.872 5.832C65.3173 5.832 64.848 6.00267 64.464 6.344C64.0907 6.67467 63.8613 7.13867 63.776 7.736H67.984ZM75.955 10.936L78.195 4.136H80.579L77.299 13H74.579L71.315 4.136H73.715L75.955 10.936Z" fill="white"/></svg>