<svg width="118" height="11" viewBox="0 0 118 11" fill="none" xmlns="http://www.w3.org/2000/svg"><path d="M7.34831 8.138H3.45631L2.81231 10H0.754312L4.26831 0.213999H6.55031L10.0643 10H7.99231L7.34831 8.138ZM6.81631 6.57L5.40231 2.482L3.98831 6.57H6.81631ZM13.6178 0.228V10H11.6578V0.228H13.6178ZM19.2503 0.228C20.2769 0.228 21.1776 0.428666 21.9523 0.83C22.7363 1.23133 23.3383 1.80533 23.7583 2.552C24.1876 3.28933 24.4023 4.148 24.4023 5.128C24.4023 6.108 24.1876 6.96667 23.7583 7.704C23.3383 8.432 22.7363 8.99667 21.9523 9.398C21.1776 9.79933 20.2769 10 19.2503 10H15.8343V0.228H19.2503ZM19.1803 8.334C20.2069 8.334 21.0003 8.054 21.5603 7.494C22.1203 6.934 22.4003 6.14533 22.4003 5.128C22.4003 4.11067 22.1203 3.31733 21.5603 2.748C21.0003 2.16933 20.2069 1.88 19.1803 1.88H17.7943V8.334H19.1803ZM32.1414 8.138H28.2494L27.6054 10H25.5474L29.0614 0.213999H31.3434L34.8574 10H32.7854L32.1414 8.138ZM31.6094 6.57L30.1954 2.482L28.7814 6.57H31.6094ZM41.4909 10L39.3349 6.192H38.4109V10H36.4509V0.228H40.1189C40.8749 0.228 41.5189 0.363333 42.0509 0.634C42.5829 0.895333 42.9796 1.25467 43.2409 1.712C43.5116 2.16 43.6469 2.664 43.6469 3.224C43.6469 3.868 43.4603 4.45133 43.0869 4.974C42.7136 5.48733 42.1583 5.842 41.4209 6.038L43.7589 10H41.4909ZM38.4109 4.722H40.0489C40.5809 4.722 40.9776 4.596 41.2389 4.344C41.5003 4.08267 41.6309 3.72333 41.6309 3.266C41.6309 2.818 41.5003 2.47267 41.2389 2.23C40.9776 1.978 40.5809 1.852 40.0489 1.852H38.4109V4.722ZM46.5677 10.098C46.213 10.098 45.919 9.99067 45.6857 9.776C45.4617 9.552 45.3497 9.27667 45.3497 8.95C45.3497 8.62333 45.4617 8.35267 45.6857 8.138C45.919 7.914 46.213 7.802 46.5677 7.802C46.913 7.802 47.1977 7.914 47.4217 8.138C47.6457 8.35267 47.7577 8.62333 47.7577 8.95C47.7577 9.27667 47.6457 9.552 47.4217 9.776C47.1977 9.99067 46.913 10.098 46.5677 10.098ZM57.7224 0.228V10H55.7624V5.842H51.5764V10H49.6164V0.228H51.5764V4.246H55.7624V0.228H57.7224ZM65.9235 8.138H62.0315L61.3875 10H59.3295L62.8435 0.213999H65.1255L68.6395 10H66.5675L65.9235 8.138ZM65.3915 6.57L63.9775 2.482L62.5635 6.57H65.3915ZM73.607 10.098C72.9257 10.098 72.3097 9.98133 71.759 9.748C71.2177 9.51467 70.7884 9.17867 70.471 8.74C70.1537 8.30133 69.9904 7.78333 69.981 7.186H72.081C72.109 7.58733 72.249 7.90467 72.501 8.138C72.7624 8.37133 73.117 8.488 73.565 8.488C74.0224 8.488 74.3817 8.38067 74.643 8.166C74.9044 7.942 75.035 7.65267 75.035 7.298C75.035 7.00867 74.9464 6.77067 74.769 6.584C74.5917 6.39733 74.3677 6.25267 74.097 6.15C73.8357 6.038 73.4717 5.91667 73.005 5.786C72.3704 5.59933 71.8524 5.41733 71.451 5.24C71.059 5.05333 70.7184 4.778 70.429 4.414C70.149 4.04067 70.009 3.546 70.009 2.93C70.009 2.35133 70.1537 1.84733 70.443 1.418C70.7324 0.988666 71.1384 0.662 71.661 0.438C72.1837 0.204666 72.781 0.0879999 73.453 0.0879999C74.461 0.0879999 75.2777 0.335333 75.903 0.83C76.5377 1.31533 76.8877 1.99667 76.953 2.874H74.797C74.7784 2.538 74.6337 2.26267 74.363 2.048C74.1017 1.824 73.7517 1.712 73.313 1.712C72.9304 1.712 72.6224 1.81 72.389 2.006C72.165 2.202 72.053 2.48667 72.053 2.86C72.053 3.12133 72.137 3.34067 72.305 3.518C72.4824 3.686 72.697 3.826 72.949 3.938C73.2104 4.04067 73.5744 4.162 74.041 4.302C74.6757 4.48867 75.1937 4.67533 75.595 4.862C75.9964 5.04867 76.3417 5.32867 76.631 5.702C76.9204 6.07533 77.065 6.56533 77.065 7.172C77.065 7.69467 76.9297 8.18 76.659 8.628C76.3884 9.076 75.9917 9.43533 75.469 9.706C74.9464 9.96733 74.3257 10.098 73.607 10.098ZM81.0043 1.81V4.26H84.2943V5.814H81.0043V8.404H84.7143V10H79.0443V0.213999H84.7143V1.81H81.0043ZM95.1335 10H93.1735L88.7355 3.294V10H86.7755V0.213999H88.7355L93.1735 6.934V0.213999H95.1335V10ZM101.886 10.098C100.972 10.098 100.132 9.88333 99.3664 9.454C98.601 9.02467 97.9944 8.432 97.5464 7.676C97.0984 6.91067 96.8744 6.04733 96.8744 5.086C96.8744 4.134 97.0984 3.28 97.5464 2.524C97.9944 1.75867 98.601 1.16133 99.3664 0.731999C100.132 0.302666 100.972 0.0879999 101.886 0.0879999C102.81 0.0879999 103.65 0.302666 104.406 0.731999C105.172 1.16133 105.774 1.75867 106.212 2.524C106.66 3.28 106.884 4.134 106.884 5.086C106.884 6.04733 106.66 6.91067 106.212 7.676C105.774 8.432 105.172 9.02467 104.406 9.454C103.641 9.88333 102.801 10.098 101.886 10.098ZM101.886 8.348C102.474 8.348 102.992 8.21733 103.44 7.956C103.888 7.68533 104.238 7.30267 104.49 6.808C104.742 6.31333 104.868 5.73933 104.868 5.086C104.868 4.43267 104.742 3.86333 104.49 3.378C104.238 2.88333 103.888 2.50533 103.44 2.244C102.992 1.98267 102.474 1.852 101.886 1.852C101.298 1.852 100.776 1.98267 100.318 2.244C99.8704 2.50533 99.5204 2.88333 99.2684 3.378C99.0164 3.86333 98.8904 4.43267 98.8904 5.086C98.8904 5.73933 99.0164 6.31333 99.2684 6.808C99.5204 7.30267 99.8704 7.68533 100.318 7.956C100.776 8.21733 101.298 8.348 101.886 8.348ZM117.401 0.228L113.817 10H111.437L107.853 0.228H109.953L112.641 7.998L115.315 0.228H117.401Z" fill="white"/></svg>