<svg width="27" height="26" viewBox="0 0 27 26" fill="none" xmlns="http://www.w3.org/2000/svg">
<path d="M22.6777 12.1223H3.32586C3.04768 12.1223 2.79369 12.0013 2.62436 11.7836C2.45503 11.578 2.38246 11.2877 2.44294 11.0216L3.80966 4.49039C4.25717 2.37379 5.16428 0.426514 8.75646 0.426514H17.2592C20.8514 0.426514 21.7585 2.38588 22.206 4.49039L23.5727 11.0337C23.6332 11.2998 23.5606 11.578 23.3913 11.7957C23.2099 12.0013 22.9559 12.1223 22.6777 12.1223ZM4.43859 10.308H21.5529L20.416 4.86533C20.0773 3.2809 19.6782 2.24074 17.2471 2.24074H8.75646C6.32539 2.24074 5.92626 3.2809 5.5876 4.86533L4.43859 10.308Z" fill="#565656"/>
<path d="M22.6314 25.4264H20.3575C18.3982 25.4264 18.0232 24.3016 17.7813 23.5638L17.5394 22.8381C17.225 21.9189 17.1887 21.798 16.1001 21.798H9.90757C8.81904 21.798 8.74647 22.0036 8.46829 22.8381L8.22639 23.5638C7.97239 24.3137 7.60955 25.4264 5.65018 25.4264H3.37634C2.42085 25.4264 1.50164 25.0273 0.860611 24.3258C0.231678 23.6364 -0.0706937 22.7172 0.0139704 21.798L0.691283 14.4322C0.872706 12.4366 1.40488 10.3079 5.28733 10.3079H20.7204C24.6028 10.3079 25.1229 12.4366 25.3164 14.4322L25.9938 21.798C26.0784 22.7172 25.776 23.6364 25.1471 24.3258C24.5061 25.0273 23.5869 25.4264 22.6314 25.4264ZM9.90757 19.9838H16.1001C18.3014 19.9838 18.8215 20.9634 19.2569 22.2455L19.5109 22.9954C19.7165 23.6122 19.7165 23.6243 20.3696 23.6243H22.6435C23.091 23.6243 23.5143 23.4429 23.8167 23.1163C24.107 22.8019 24.24 22.4027 24.2037 21.9794L23.5264 14.6136C23.3692 12.9808 23.1756 12.1342 20.7446 12.1342H5.28733C2.84417 12.1342 2.65065 12.9808 2.50551 14.6136L1.8282 21.9794C1.79192 22.4027 1.92496 22.8019 2.21524 23.1163C2.50551 23.4429 2.94093 23.6243 3.38844 23.6243H5.66227C6.3154 23.6243 6.3154 23.6122 6.52101 23.0075L6.76291 22.2697C7.06528 21.3021 7.51279 19.9838 9.90757 19.9838Z" fill="#565656"/>
<path d="M3.32754 8.49367H2.11805C1.62216 8.49367 1.21094 8.08245 1.21094 7.58656C1.21094 7.09067 1.62216 6.67944 2.11805 6.67944H3.32754C3.82343 6.67944 4.23466 7.09067 4.23466 7.58656C4.23466 8.08245 3.82343 8.49367 3.32754 8.49367Z" fill="#565656"/>
<path d="M23.89 8.49367H22.6806C22.1847 8.49367 21.7734 8.08245 21.7734 7.58656C21.7734 7.09067 22.1847 6.67944 22.6806 6.67944H23.89C24.3859 6.67944 24.7972 7.09067 24.7972 7.58656C24.7972 8.08245 24.3859 8.49367 23.89 8.49367Z" fill="#565656"/>
<path d="M13.0048 4.86528C12.5089 4.86528 12.0977 4.45406 12.0977 3.95817V1.5392C12.0977 1.04331 12.5089 0.63208 13.0048 0.63208C13.5007 0.63208 13.9119 1.04331 13.9119 1.5392V3.95817C13.9119 4.45406 13.5007 4.86528 13.0048 4.86528Z" fill="#565656"/>
<path d="M14.8129 4.86526H11.1845C10.6886 4.86526 10.2773 4.45403 10.2773 3.95814C10.2773 3.46225 10.6886 3.05103 11.1845 3.05103H14.8129C15.3088 3.05103 15.72 3.46225 15.72 3.95814C15.72 4.45403 15.3088 4.86526 14.8129 4.86526Z" fill="#565656"/>
<path d="M9.37151 16.9602H5.74305C5.24716 16.9602 4.83594 16.549 4.83594 16.0531C4.83594 15.5572 5.24716 15.146 5.74305 15.146H9.37151C9.8674 15.146 10.2786 15.5572 10.2786 16.0531C10.2786 16.549 9.8674 16.9602 9.37151 16.9602Z" fill="#565656"/>
<path d="M20.2621 16.9602H16.6337C16.1378 16.9602 15.7266 16.549 15.7266 16.0531C15.7266 15.5572 16.1378 15.146 16.6337 15.146H20.2621C20.758 15.146 21.1693 15.5572 21.1693 16.0531C21.1693 16.549 20.758 16.9602 20.2621 16.9602Z" fill="#565656"/>
</svg>
