<svg width="29" height="27" viewBox="0 0 29 27" fill="none" xmlns="http://www.w3.org/2000/svg">
<path d="M1 14.4001H23.95" stroke="#565656" stroke-width="1.75481" stroke-miterlimit="10" stroke-linecap="round" stroke-linejoin="round"/>
<path d="M23.95 11.2547V20.9072C23.9095 24.7547 22.8565 25.7267 18.847 25.7267H6.10304C2.02604 25.7267 1 24.7143 1 20.6913V11.2547C1 7.60974 1.8505 6.43524 5.05 6.24624C5.374 6.23274 5.72504 6.21924 6.10304 6.21924H18.847C22.924 6.21924 23.95 7.23174 23.95 11.2547Z" stroke="#565656" stroke-width="1.75481" stroke-linecap="round" stroke-linejoin="round"/>
<path d="M27.9969 6.46201V15.8985C27.9969 19.5435 27.1464 20.718 23.9469 20.907V11.2545C23.9469 7.23151 22.9209 6.21901 18.8439 6.21901H6.09992C5.72192 6.21901 5.37087 6.23251 5.04688 6.24601C5.08737 2.39851 6.14042 1.42651 10.1499 1.42651H22.8939C26.9709 1.42651 27.9969 2.43901 27.9969 6.46201Z" stroke="#565656" stroke-width="1.75481" stroke-linecap="round" stroke-linejoin="round"/>
<path d="M5.39062 21.4202H7.71258" stroke="#565656" stroke-width="1.75481" stroke-miterlimit="10" stroke-linecap="round" stroke-linejoin="round"/>
<path d="M10.6016 21.4202H15.2456" stroke="#565656" stroke-width="1.75481" stroke-miterlimit="10" stroke-linecap="round" stroke-linejoin="round"/>
</svg>
