<svg width="13" height="13" viewBox="0 0 13 13" fill="none" xmlns="http://www.w3.org/2000/svg">
<path d="M2.60226 4.0625H10.3958L6.49901 8.51581L2.60226 4.0625ZM1.99045 4.59794L5.8872 9.05044C5.96346 9.13771 6.05751 9.20765 6.16303 9.25558C6.26856 9.3035 6.38311 9.3283 6.49901 9.3283C6.61491 9.3283 6.72946 9.3035 6.83499 9.25558C6.94051 9.20765 7.03456 9.13771 7.11082 9.05044L11.0076 4.59794C11.4674 4.07225 11.0937 3.25 10.3958 3.25H2.60226C2.44606 3.24987 2.29313 3.29476 2.16179 3.3793C2.03045 3.46385 1.92626 3.58446 1.86171 3.72669C1.79715 3.86892 1.77496 4.02675 1.79779 4.18127C1.82062 4.33579 1.88751 4.48045 1.99045 4.59794Z" fill="#010048"/>
</svg>
