<svg width="16" height="14" viewBox="0 0 16 14" fill="none" xmlns="http://www.w3.org/2000/svg">
<path d="M10.6954 7.00394C10.6954 8.43959 9.53529 9.59971 8.09964 9.59971C6.664 9.59971 5.50391 8.43959 5.50391 7.00394C5.50391 5.56829 6.664 4.4082 8.09964 4.4082C9.53529 4.4082 10.6954 5.56829 10.6954 7.00394Z" stroke="#9A9A9A" stroke-width="1.5" stroke-linecap="round" stroke-linejoin="round"/>
<path d="M8.09487 13C10.6544 13 13.0399 11.4918 14.7003 8.88158C15.3529 7.85922 15.3529 6.1408 14.7003 5.11842C13.0399 2.50815 10.6544 1 8.09487 1C5.53534 1 3.14985 2.50815 1.48943 5.11842C0.836858 6.1408 0.836858 7.85922 1.48943 8.88158C3.14985 11.4918 5.53534 13 8.09487 13Z" stroke="#9A9A9A" stroke-width="1.5" stroke-linecap="round" stroke-linejoin="round"/>
</svg>
