<svg width="23" height="22" viewBox="0 0 23 22" fill="none" xmlns="http://www.w3.org/2000/svg">
<path d="M17.4715 21.976H5.62222C2.8185 21.976 0.546875 19.6942 0.546875 16.8904V9.30811C0.546875 7.91645 1.40641 6.16669 2.51153 5.30715L8.02688 1.00948C9.68455 -0.279822 12.3348 -0.341217 14.0539 0.86622L20.3776 5.29692C21.5952 6.14622 22.5469 7.96762 22.5469 9.45137V16.9007C22.5469 19.6942 20.2752 21.976 17.4715 21.976ZM8.96827 2.21692L3.45292 6.51459C2.72641 7.08762 2.08176 8.38715 2.08176 9.30811V16.8904C2.08176 18.8449 3.66781 20.4411 5.62222 20.4411H17.4715C19.4259 20.4411 21.012 18.8551 21.012 16.9007V9.45137C21.012 8.46901 20.3059 7.10808 19.4976 6.55552L13.1739 2.12483C12.0073 1.30622 10.0836 1.34715 8.96827 2.21692Z" fill="#8F8F8F"/>
<path d="M11.5448 17.883C11.1253 17.883 10.7773 17.5351 10.7773 17.1155V14.0458C10.7773 13.6262 11.1253 13.2783 11.5448 13.2783C11.9643 13.2783 12.3122 13.6262 12.3122 14.0458V17.1155C12.3122 17.5351 11.9643 17.883 11.5448 17.883Z" fill="#8F8F8F"/>
</svg>
