<svg width="27" height="26" viewBox="0 0 27 26" fill="none" xmlns="http://www.w3.org/2000/svg">
<path d="M25.1564 25.8469H0.909267C0.412201 25.8469 0 25.4347 0 24.9376C0 24.4405 0.412201 24.0283 0.909267 24.0283H25.1564C25.6535 24.0283 26.0657 24.4405 26.0657 24.9376C26.0657 25.4347 25.6535 25.8469 25.1564 25.8469Z" fill="#565656"/>
<path d="M2.97088 24.9373H1.15234L1.21296 10.3527C1.21296 9.32215 1.68578 8.36443 2.49806 7.734L10.9846 1.12665C12.1848 0.193135 13.87 0.193135 15.0823 1.12665L23.5688 7.72187C24.369 8.35229 24.8539 9.33428 24.8539 10.3527V24.9373H23.0354V10.3648C23.0354 9.9041 22.8172 9.45554 22.4534 9.16457L13.967 2.56935C13.4214 2.14503 12.6576 2.14503 12.0999 2.56935L3.61343 9.17671C3.24972 9.45555 3.0315 9.9041 3.0315 10.3648L2.97088 24.9373Z" fill="#565656"/>
<path d="M19.0953 25.8468H6.97177C6.4747 25.8468 6.0625 25.4346 6.0625 24.9376V13.4202C6.0625 11.9169 7.28698 10.6924 8.7903 10.6924H17.2768C18.7801 10.6924 20.0046 11.9169 20.0046 13.4202V24.9376C20.0046 25.4346 19.5924 25.8468 19.0953 25.8468ZM7.88103 24.0283H18.1861V13.4202C18.1861 12.9231 17.7739 12.5109 17.2768 12.5109H8.7903C8.29324 12.5109 7.88103 12.9231 7.88103 13.4202V24.0283Z" fill="#565656"/>
<path d="M10.6085 20.6944C10.1114 20.6944 9.69922 20.2822 9.69922 19.7852V17.9666C9.69922 17.4696 10.1114 17.0574 10.6085 17.0574C11.1056 17.0574 11.5178 17.4696 11.5178 17.9666V19.7852C11.5178 20.2822 11.1056 20.6944 10.6085 20.6944Z" fill="#565656"/>
<path d="M14.851 8.26775H11.214C10.7169 8.26775 10.3047 7.85555 10.3047 7.35849C10.3047 6.86142 10.7169 6.44922 11.214 6.44922H14.851C15.3481 6.44922 15.7603 6.86142 15.7603 7.35849C15.7603 7.85555 15.3481 8.26775 14.851 8.26775Z" fill="#565656"/>
</svg>
