<svg width="26" height="27" viewBox="0 0 26 27" fill="none" xmlns="http://www.w3.org/2000/svg">
<path d="M24.2073 23.1917C23.9622 23.1917 23.717 23.1014 23.5235 22.9078L17.1361 16.5205C16.7619 16.1463 16.7619 15.5269 17.1361 15.1527C17.5103 14.7785 18.1297 14.7785 18.5039 15.1527L24.8912 21.5401C25.2655 21.9143 25.2655 22.5336 24.8912 22.9078C24.6977 23.1014 24.4525 23.1917 24.2073 23.1917Z" fill="#565656"/>
<path d="M11.428 22.1209C10.486 22.1209 9.58276 21.7467 8.92467 21.0757L3.45349 15.6045C2.07279 14.2238 2.07279 11.9657 3.45349 10.5849L12.5765 1.46203C13.9572 0.0813399 16.2153 0.0813399 17.596 1.46203L23.0672 6.93319C23.7382 7.60418 24.1124 8.49453 24.1124 9.4365C24.1124 10.3785 23.7382 11.2818 23.0672 11.9399L13.9443 21.0626C13.2733 21.7594 12.3829 22.1209 11.428 22.1209ZM15.0798 2.36527C14.6669 2.36527 14.2539 2.5201 13.9443 2.84269L4.82131 11.9657C4.18903 12.5979 4.18903 13.6172 4.82131 14.2495L10.2925 19.7208C10.8989 20.3273 11.9571 20.3273 12.5765 19.7208L21.6994 10.5978C22.0091 10.2881 22.1768 9.88812 22.1768 9.4623C22.1768 9.03647 22.0091 8.62354 21.6994 8.32676L16.2282 2.85561C15.9056 2.52011 15.4927 2.36527 15.0798 2.36527Z" fill="#565656"/>
<path d="M8.70999 26.4048H0.967777C0.438725 26.4048 0 25.9661 0 25.437C0 24.908 0.438725 24.4692 0.967777 24.4692H8.70999C9.23904 24.4692 9.67777 24.908 9.67777 25.437C9.67777 25.9661 9.23904 26.4048 8.70999 26.4048Z" fill="#565656"/>
<path d="M15.9742 18.6494C15.729 18.6494 15.4838 18.5591 15.2903 18.3655L6.16737 9.24268C5.79317 8.86848 5.79317 8.2491 6.16737 7.87489C6.54158 7.50069 7.16096 7.50069 7.53516 7.87489L16.6581 16.9977C17.0323 17.3719 17.0323 17.9913 16.6581 18.3655C16.4774 18.5591 16.2193 18.6494 15.9742 18.6494Z" fill="#565656"/>
</svg>
