<svg width="26" height="26" viewBox="0 0 26 26" fill="none" xmlns="http://www.w3.org/2000/svg">
<path d="M5.73263 25.4151C5.61632 25.4151 5.48839 25.4034 5.38372 25.3918L2.86001 25.0429C1.65049 24.8801 0.557264 23.7985 0.371184 22.5657L0.0222833 20.0187C-0.0940169 19.2046 0.254884 18.1463 0.836385 17.5532L5.94197 12.4476C5.11623 9.14467 6.0699 5.65566 8.50057 3.24825C12.2687 -0.508247 18.3978 -0.519877 22.1775 3.24825C24.0034 5.07416 25.0036 7.50484 25.0036 10.0867C25.0036 12.6685 24.0034 15.0992 22.1775 16.9251C19.7352 19.3442 16.2578 20.2978 12.9782 19.4605L7.86092 24.5661C7.37246 25.0778 6.50021 25.4151 5.73263 25.4151ZM15.3274 2.16665C13.2922 2.16665 11.2686 2.93424 9.72172 4.48103C7.62832 6.5628 6.87237 9.60987 7.74462 12.4476C7.83766 12.7616 7.75625 13.0872 7.52365 13.3198L2.05754 18.7859C1.85983 18.9836 1.69701 19.4954 1.7319 19.7629L2.0808 22.3098C2.15058 22.7518 2.62741 23.2519 3.06935 23.31L5.60469 23.6589C5.88382 23.7054 6.39554 23.5426 6.59325 23.3449L12.0827 17.8672C12.3153 17.6346 12.6525 17.5648 12.9549 17.6578C15.7578 18.5417 18.8164 17.7858 20.9099 15.6923C22.3985 14.2037 23.2242 12.2033 23.2242 10.0867C23.2242 7.95841 22.3985 5.96967 20.9099 4.48103C19.3979 2.94587 17.3627 2.16665 15.3274 2.16665Z" fill="#565656"/>
<path d="M9.23566 22.8447C9.01469 22.8447 8.79372 22.7633 8.61926 22.5889L5.94436 19.914C5.60709 19.5767 5.60709 19.0184 5.94436 18.6812C6.28163 18.3439 6.83987 18.3439 7.17714 18.6812L9.85205 21.3561C10.1893 21.6934 10.1893 22.2516 9.85205 22.5889C9.6776 22.7633 9.45663 22.8447 9.23566 22.8447Z" fill="#565656"/>
<path d="M15.4097 12.6222C13.9676 12.6222 12.793 11.4476 12.793 10.0054C12.793 8.5633 13.9676 7.38867 15.4097 7.38867C16.8518 7.38867 18.0265 8.5633 18.0265 10.0054C18.0265 11.4476 16.8518 12.6222 15.4097 12.6222ZM15.4097 9.13318C14.9329 9.13318 14.5375 9.5286 14.5375 10.0054C14.5375 10.4823 14.9329 10.8777 15.4097 10.8777C15.8866 10.8777 16.282 10.4823 16.282 10.0054C16.282 9.5286 15.8866 9.13318 15.4097 9.13318Z" fill="#565656"/>
</svg>
