<svg width="24" height="26" viewBox="0 0 24 26" fill="none" xmlns="http://www.w3.org/2000/svg">
<path d="M19.597 8.8034C17.1699 8.8034 15.1953 6.82881 15.1953 4.4017C15.1953 1.97459 17.1699 0 19.597 0C22.0241 0 23.9987 1.97459 23.9987 4.4017C23.9987 6.82881 22.0241 8.8034 19.597 8.8034ZM19.597 2.04316C18.308 2.04316 17.2522 3.09902 17.2522 4.38799C17.2522 5.67696 18.308 6.73282 19.597 6.73282C20.886 6.73282 21.9418 5.67696 21.9418 4.38799C21.9418 3.09902 20.886 2.04316 19.597 2.04316Z" fill="#565656"/>
<path d="M4.40171 8.8034C1.97461 8.8034 0 6.82881 0 4.4017C0 1.97459 1.97461 0 4.40171 0C6.82882 0 8.8034 1.97459 8.8034 4.4017C8.8034 6.82881 6.82882 8.8034 4.40171 8.8034ZM4.40171 2.04316C3.11274 2.04316 2.05687 3.09902 2.05687 4.38799C2.05687 5.67696 3.11274 6.73282 4.40171 6.73282C5.69069 6.73282 6.74653 5.67696 6.74653 4.38799C6.74653 3.09902 5.7044 2.04316 4.40171 2.04316Z" fill="#565656"/>
<path d="M19.597 25.6835C17.1699 25.6835 15.1953 23.7089 15.1953 21.2818C15.1953 18.8547 17.1699 16.8801 19.597 16.8801C22.0241 16.8801 23.9987 18.8547 23.9987 21.2818C23.9987 23.7089 22.0241 25.6835 19.597 25.6835ZM19.597 18.9233C18.308 18.9233 17.2522 19.9791 17.2522 21.2681C17.2522 22.5571 18.308 23.6129 19.597 23.6129C20.886 23.6129 21.9418 22.5571 21.9418 21.2681C21.9418 19.9791 20.886 18.9233 19.597 18.9233Z" fill="#565656"/>
<path d="M4.40171 25.6835C1.97461 25.6835 0 23.7089 0 21.2818C0 18.8547 1.97461 16.8801 4.40171 16.8801C6.82882 16.8801 8.8034 18.8547 8.8034 21.2818C8.8034 23.7089 6.82882 25.6835 4.40171 25.6835ZM4.40171 18.9233C3.11274 18.9233 2.05687 19.9791 2.05687 21.2681C2.05687 22.5571 3.11274 23.6129 4.40171 23.6129C5.69069 23.6129 6.74653 22.5571 6.74653 21.2681C6.74653 19.9791 5.7044 18.9233 4.40171 18.9233Z" fill="#565656"/>
</svg>
