<svg width="24" height="23" viewBox="0 0 24 23" fill="none" xmlns="http://www.w3.org/2000/svg">
<path d="M18.1933 21.8959C17.864 21.8959 17.5346 21.8109 17.2372 21.6303L12.977 19.1017C12.5308 19.0911 12.0846 19.0593 11.6596 18.9956C11.3728 18.9531 11.1284 18.7617 11.0222 18.4855C10.9159 18.2093 10.969 17.9118 11.1603 17.6887C11.8615 16.8707 12.2227 15.8933 12.2227 14.8521C12.2227 12.2812 9.95977 10.1882 7.17629 10.1882C6.13515 10.1882 5.13649 10.4752 4.2972 11.0276C4.06347 11.1764 3.77663 11.1976 3.52166 11.0808C3.27731 10.9639 3.09671 10.7301 3.06484 10.4538C3.03297 10.1564 3.01172 9.85901 3.01172 9.55092C3.01172 4.28142 7.58 0 13.1894 0C18.7989 0 23.3671 4.28142 23.3671 9.55092C23.3671 12.4406 22.0285 15.0965 19.67 16.9132L20.0312 19.803C20.1162 20.5254 19.7975 21.2053 19.1919 21.5984C18.8945 21.7897 18.5439 21.8959 18.1933 21.8959ZM13.1788 17.4975C13.3276 17.4869 13.4763 17.5295 13.6038 17.6145L18.0552 20.2598C18.1721 20.3342 18.2677 20.3023 18.3314 20.2598C18.3845 20.2279 18.4695 20.143 18.4483 19.9942L18.0339 16.637C18.0021 16.3395 18.1296 16.0528 18.3633 15.8828C20.5306 14.3636 21.7736 12.0474 21.7736 9.52957C21.7736 5.14194 17.9277 1.57232 13.1894 1.57232C8.63176 1.57232 4.89214 4.88702 4.61592 9.05159C5.41271 8.74349 6.27326 8.57349 7.16567 8.57349C10.8309 8.57349 13.8056 11.3781 13.8056 14.8309C13.8163 15.7658 13.5932 16.6688 13.1788 17.4975Z" fill="#8F8F8F"/>
<path d="M4.07401 22.8308C3.79779 22.8308 3.53219 22.7565 3.28784 22.5971C2.80977 22.289 2.5548 21.7578 2.61855 21.1948L2.83101 19.5587C1.39679 18.3901 0.546875 16.6584 0.546875 14.8417C0.546875 12.77 1.63052 10.8365 3.44721 9.67845C4.54147 8.96666 5.83758 8.58423 7.18682 8.58423C10.8521 8.58423 13.8268 11.3889 13.8268 14.8417C13.8268 16.244 13.3168 17.6251 12.3819 18.7194C11.1814 20.1749 9.38596 21.0248 7.40992 21.0885L4.81769 22.629C4.58396 22.7671 4.32899 22.8308 4.07401 22.8308ZM7.17619 10.1778C6.13505 10.1778 5.13639 10.4646 4.2971 11.0171C2.93724 11.8882 2.12984 13.3118 2.12984 14.8417C2.12984 16.3184 2.85227 17.6676 4.12714 18.5388C4.37149 18.7088 4.49897 18.9956 4.4671 19.2931L4.23337 21.1098L6.77248 19.6012C6.89997 19.5268 7.03808 19.4843 7.17619 19.4843C8.73791 19.4843 10.2147 18.815 11.1496 17.6782C11.8507 16.8496 12.2226 15.8722 12.2226 14.831C12.2226 12.2707 9.95969 10.1778 7.17619 10.1778Z" fill="#8F8F8F"/>
</svg>
