<svg width="16" height="15" viewBox="0 0 16 15" fill="none" xmlns="http://www.w3.org/2000/svg">
<path d="M5.70444 12.1421H5.37742C2.76122 12.1421 1.45312 11.4867 1.45312 8.20962V4.93252C1.45312 2.31084 2.76122 1 5.37742 1H10.6098C13.226 1 14.5341 2.31084 14.5341 4.93252V8.20962C14.5341 10.8313 13.226 12.1421 10.6098 12.1421H10.2828C10.08 12.1421 9.88382 12.2405 9.75955 12.4043L8.77848 13.7152C8.3468 14.2919 7.64043 14.2919 7.20876 13.7152L6.22768 12.4043C6.12304 12.2601 5.88104 12.1421 5.70444 12.1421Z" stroke="#565656" stroke-opacity="0.6" stroke-width="1.5" stroke-miterlimit="10" stroke-linecap="round" stroke-linejoin="round"/>
<path d="M10.6094 6.89941H10.6162" stroke="#565656" stroke-opacity="0.6" stroke-width="2" stroke-linecap="round" stroke-linejoin="round"/>
<path d="M7.99219 6.89941H7.99909" stroke="#565656" stroke-opacity="0.6" stroke-width="2" stroke-linecap="round" stroke-linejoin="round"/>
<path d="M5.375 6.89941H5.38189" stroke="#565656" stroke-opacity="0.6" stroke-width="2" stroke-linecap="round" stroke-linejoin="round"/>
</svg>
