<svg width="46" height="13" viewBox="0 0 46 13" fill="none" xmlns="http://www.w3.org/2000/svg">
<path d="M5.88889 1.83887C3.2 1.83887 1 4.03887 1 6.72776C1 9.41665 3.2 11.6166 5.88889 11.6166C8.57778 11.6166 10.7778 9.41665 10.7778 6.72776C10.7778 4.03887 8.57778 1.83887 5.88889 1.83887Z" stroke="#565656" stroke-width="2"/>
<path d="M40.1076 1.83887C37.4188 1.83887 35.2188 4.03887 35.2188 6.72776C35.2188 9.41665 37.4188 11.6166 40.1076 11.6166C42.7965 11.6166 44.9965 9.41665 44.9965 6.72776C44.9965 4.03887 42.7965 1.83887 40.1076 1.83887Z" stroke="#565656" stroke-width="2"/>
<path d="M22.9983 1.83887C20.3094 1.83887 18.1094 4.03887 18.1094 6.72776C18.1094 9.41665 20.3094 11.6166 22.9983 11.6166C25.6872 11.6166 27.8872 9.41665 27.8872 6.72776C27.8872 4.03887 25.6872 1.83887 22.9983 1.83887Z" stroke="#565656" stroke-width="2"/>
</svg>
