<svg width="60" height="60" viewBox="0 0 60 60" fill="none" xmlns="http://www.w3.org/2000/svg">
<path d="M29.9406 56.0271C23.1556 56.0271 16.6485 53.2882 11.8508 48.4129C7.05313 43.5376 4.35781 36.9253 4.35781 30.0306C4.35781 23.1359 7.05313 16.5236 11.8508 11.6483C16.6485 6.77301 23.1556 4.0341 29.9406 4.0341C36.7256 4.0341 43.2327 6.77301 48.0304 11.6483C52.8281 16.5236 55.5234 23.1359 55.5234 30.0306C55.5234 36.9253 52.8281 43.5376 48.0304 48.4129C43.2327 53.2882 36.7256 56.0271 29.9406 56.0271ZM29.9406 59.7409C37.6949 59.7409 45.1315 56.6107 50.6146 51.039C56.0977 45.4672 59.1781 37.9103 59.1781 30.0306C59.1781 22.1509 56.0977 14.594 50.6146 9.02226C45.1315 3.4505 37.6949 0.320313 29.9406 0.320312C22.1863 0.320313 14.7497 3.4505 9.26659 9.02226C3.78349 14.594 0.703125 22.1509 0.703125 30.0306C0.703125 37.9103 3.78349 45.4672 9.26659 51.039C14.7497 56.6107 22.1863 59.7409 29.9406 59.7409Z" fill="white"/>
<path d="M23.6193 19.0937C23.9182 18.9373 24.2538 18.8677 24.5891 18.8926C24.9244 18.9175 25.2464 19.0359 25.5198 19.2348L38.3112 28.5193C38.548 28.6911 38.7411 28.9178 38.8743 29.1808C39.0076 29.4437 39.0771 29.7351 39.0771 30.0308C39.0771 30.3265 39.0076 30.618 38.8743 30.8809C38.7411 31.1438 38.548 31.3706 38.3112 31.5423L25.5198 40.8268C25.2465 41.0255 24.9246 41.1438 24.5895 41.1687C24.2544 41.1936 23.919 41.1242 23.6202 40.9679C23.3214 40.8117 23.0708 40.5748 22.8959 40.2832C22.721 39.9917 22.6286 39.6567 22.6289 39.3153V20.7464C22.6286 20.405 22.7208 20.0701 22.8955 19.7786C23.0703 19.487 23.3207 19.2501 23.6193 19.0937Z" fill="white"/>
</svg>
