<svg width="26" height="23" viewBox="0 0 26 23" fill="none" xmlns="http://www.w3.org/2000/svg">
<path d="M24.6738 5.81443H17.6964C17.2196 5.81443 16.8242 5.41904 16.8242 4.94225C16.8242 4.46546 17.2196 4.07007 17.6964 4.07007H24.6738C25.1506 4.07007 25.546 4.46546 25.546 4.94225C25.546 5.41904 25.1506 5.81443 24.6738 5.81443Z" fill="#8F8F8F"/>
<path d="M6.07067 5.81443H1.41905C0.942263 5.81443 0.546875 5.41904 0.546875 4.94225C0.546875 4.46546 0.942263 4.07007 1.41905 4.07007H6.07067C6.54746 4.07007 6.94285 4.46546 6.94285 4.94225C6.94285 5.41904 6.54746 5.81443 6.07067 5.81443Z" fill="#8F8F8F"/>
<path d="M10.7236 9.88469C8.0024 9.88469 5.78125 7.66354 5.78125 4.94235C5.78125 2.22115 8.0024 0 10.7236 0C13.4448 0 15.6659 2.22115 15.6659 4.94235C15.6659 7.66354 13.4448 9.88469 10.7236 9.88469ZM10.7236 1.74436C8.95598 1.74436 7.52561 3.17473 7.52561 4.94235C7.52561 6.70996 8.95598 8.14034 10.7236 8.14034C12.4912 8.14034 13.9216 6.70996 13.9216 4.94235C13.9216 3.17473 12.4912 1.74436 10.7236 1.74436Z" fill="#8F8F8F"/>
<path d="M24.6761 18.6064H20.0245C19.5477 18.6064 19.1523 18.211 19.1523 17.7342C19.1523 17.2574 19.5477 16.8621 20.0245 16.8621H24.6761C25.1529 16.8621 25.5483 17.2574 25.5483 17.7342C25.5483 18.211 25.1529 18.6064 24.6761 18.6064Z" fill="#8F8F8F"/>
<path d="M8.39648 18.6064H1.41905C0.942263 18.6064 0.546875 18.211 0.546875 17.7342C0.546875 17.2574 0.942263 16.8621 1.41905 16.8621H8.39648C8.87327 16.8621 9.26866 17.2574 9.26866 17.7342C9.26866 18.211 8.87327 18.6064 8.39648 18.6064Z" fill="#8F8F8F"/>
<path d="M15.3759 22.6767C12.6547 22.6767 10.4336 20.4555 10.4336 17.7343C10.4336 15.0131 12.6547 12.792 15.3759 12.792C18.0971 12.792 20.3183 15.0131 20.3183 17.7343C20.3183 20.4555 18.0971 22.6767 15.3759 22.6767ZM15.3759 14.5363C13.6083 14.5363 12.178 15.9667 12.178 17.7343C12.178 19.502 13.6083 20.9323 15.3759 20.9323C17.1436 20.9323 18.5739 19.502 18.5739 17.7343C18.5739 15.9667 17.1436 14.5363 15.3759 14.5363Z" fill="#8F8F8F"/>
</svg>
