<svg width="25" height="22" viewBox="0 0 25 22" fill="none" xmlns="http://www.w3.org/2000/svg">
<path d="M7.07153 22C4.45354 22 2.30859 20.097 2.30859 17.754V15.5101C2.30859 15.0591 2.68259 14.6851 3.13359 14.6851C3.58459 14.6851 3.95859 15.0591 3.95859 15.5101C3.95859 16.885 5.28954 17.919 7.07153 17.919C8.85352 17.919 10.1845 16.885 10.1845 15.5101C10.1845 15.0591 10.5585 14.6851 11.0095 14.6851C11.4605 14.6851 11.8345 15.0591 11.8345 15.5101V17.754C11.8345 20.097 9.70051 22 7.07153 22ZM4.24453 18.832C4.72853 19.734 5.81753 20.35 7.07153 20.35C8.32552 20.35 9.41453 19.723 9.89852 18.832C9.11753 19.305 8.14952 19.58 7.07153 19.58C5.99353 19.58 5.02553 19.305 4.24453 18.832Z" fill="#8F8F8F"/>
<path d="M7.07153 16.5549C5.26754 16.5549 3.65058 15.7299 2.84758 14.4209C2.49558 13.8489 2.30859 13.1779 2.30859 12.4959C2.30859 11.3409 2.81458 10.2629 3.73858 9.45993C5.52057 7.89796 8.58953 7.89802 10.3825 9.44904C11.3065 10.263 11.8235 11.3409 11.8235 12.4959C11.8235 13.1779 11.6365 13.8489 11.2845 14.4209C10.4925 15.7299 8.87552 16.5549 7.07153 16.5549ZM7.07153 9.89993C6.21353 9.89993 5.42156 10.1859 4.82756 10.7029C4.26656 11.1869 3.95859 11.8249 3.95859 12.4959C3.95859 12.8809 4.05754 13.233 4.25554 13.563C4.76154 14.399 5.83953 14.9159 7.07153 14.9159C8.30352 14.9159 9.38151 14.399 9.8765 13.574C10.0745 13.255 10.1735 12.8919 10.1735 12.5069C10.1735 11.8359 9.86555 11.1979 9.30455 10.7029C8.72155 10.1859 7.92952 9.89993 7.07153 9.89993Z" fill="#8F8F8F"/>
<path d="M7.07153 19.5799C4.35454 19.5799 2.30859 17.831 2.30859 15.521V12.496C2.30859 10.153 4.44254 8.25 7.07153 8.25C8.31452 8.25 9.50254 8.679 10.3935 9.44899C11.3175 10.263 11.8345 11.341 11.8345 12.496V15.521C11.8345 17.831 9.78851 19.5799 7.07153 19.5799ZM7.07153 9.89999C5.35554 9.89999 3.95859 11.066 3.95859 12.496V15.521C3.95859 16.896 5.28954 17.93 7.07153 17.93C8.85352 17.93 10.1845 16.896 10.1845 15.521V12.496C10.1845 11.825 9.87656 11.187 9.31556 10.692C8.72156 10.186 7.92952 9.89999 7.07153 9.89999Z" fill="#8F8F8F"/>
<path d="M20.1212 13.2552C18.4602 13.2552 17.0522 12.0232 16.9202 10.4392C16.8322 9.5262 17.1622 8.63521 17.8222 7.98621C18.3722 7.4142 19.1532 7.09521 19.9782 7.09521H22.2772C23.3662 7.12821 24.2022 7.98621 24.2022 9.0422V11.3082C24.2022 12.3642 23.3662 13.2222 22.3102 13.2552H20.1212ZM22.2442 8.74521H19.9892C19.6042 8.74521 19.2522 8.88821 18.9992 9.1522C18.6802 9.4602 18.5262 9.8782 18.5702 10.2962C18.6252 11.0222 19.3292 11.6052 20.1212 11.6052H22.2772C22.4202 11.6052 22.5522 11.4732 22.5522 11.3082V9.0422C22.5522 8.87721 22.4202 8.75621 22.2442 8.74521Z" fill="#8F8F8F"/>
<path d="M16.7828 20.3499H14.0328C13.5818 20.3499 13.2078 19.9759 13.2078 19.5249C13.2078 19.0739 13.5818 18.6999 14.0328 18.6999H16.7828C19.6208 18.6999 21.4577 16.8629 21.4577 14.0249V13.2549H20.1267C18.4658 13.2549 17.0578 12.0229 16.9258 10.439C16.8378 9.52595 17.1679 8.63496 17.8279 7.98596C18.3779 7.41398 19.1588 7.09498 19.9837 7.09498H21.4467V6.32497C21.4467 3.75098 19.9399 1.97997 17.4979 1.69397C17.2339 1.64997 17.0028 1.64999 16.7718 1.64999H6.87184C6.60785 1.64999 6.35484 1.67198 6.10184 1.70498C3.68185 2.01298 2.19687 3.77298 2.19687 6.32497V8.52496C2.19687 8.97596 1.82287 9.34996 1.37187 9.34996C0.920873 9.34996 0.546875 8.97596 0.546875 8.52496V6.32497C0.546875 2.93699 2.63691 0.484009 5.88189 0.0770106C6.17889 0.0330108 6.51985 0 6.87184 0H16.7718C17.0358 0 17.3768 0.0109999 17.7288 0.0659996C20.9737 0.439998 23.0967 2.90399 23.0967 6.32497V7.91997C23.0967 8.37096 22.7227 8.74496 22.2717 8.74496H19.9837C19.5987 8.74496 19.2469 8.88796 18.9939 9.15196C18.6749 9.45996 18.5208 9.87795 18.5648 10.296C18.6198 11.0219 19.3239 11.6049 20.1159 11.6049H22.2827C22.7337 11.6049 23.1077 11.9789 23.1077 12.4299V14.0249C23.1077 17.8089 20.5667 20.3499 16.7828 20.3499Z" fill="#8F8F8F"/>
</svg>
