<svg width="139" height="103" viewBox="0 0 139 103" fill="none" xmlns="http://www.w3.org/2000/svg">
<path d="M0 57.2222V22.8889C0 10.2657 10.339 0 23.0524 0H57.631V62.9444C57.631 85.8677 33.2876 103 11.5262 103V91.5555C27.1903 91.5555 46.1048 78.795 46.1048 62.9444V57.2222H0Z" fill="#010048" fill-opacity="0.05"/>
<path d="M80.6833 57.2222V22.8889C80.6833 10.2657 91.0223 0 103.736 0H138.314V62.9444C138.314 85.8677 113.983 103 92.2095 103V91.5555C107.862 91.5555 126.788 78.795 126.788 62.9444V57.2222H80.6833Z" fill="#010048" fill-opacity="0.05"/>
<path d="M11.5234 45.7767H46.102V11.4434H23.0496C16.6987 11.4434 11.5234 16.5705 11.5234 22.8878V45.7767Z" fill="#F1F1F1"/>
<path d="M92.2068 45.7767H126.785V11.4434H103.733C97.3705 11.4434 92.2068 16.5705 92.2068 22.8878V45.7767Z" fill="#F1F1F1"/>
</svg>
