<svg width="800" height="790" viewBox="0 0 800 790" fill="none" xmlns="http://www.w3.org/2000/svg">
<circle cx="395" cy="395" r="395" fill="white" fill-opacity="0.05"/>
<circle cx="395" cy="395" r="394.5" stroke="black" stroke-opacity="0.1"/>
<ellipse cx="394.5" cy="395" rx="266.5" ry="266" fill="white" fill-opacity="0.08"/>
<path d="M660.5 395C660.5 541.631 541.409 660.5 394.5 660.5C247.591 660.5 128.5 541.631 128.5 395C128.5 248.369 247.591 129.5 394.5 129.5C541.409 129.5 660.5 248.369 660.5 395Z" stroke="black" stroke-opacity="0.1"/>
<ellipse cx="395" cy="395.5" rx="145" ry="145.5" fill="white" fill-opacity="0.1"/>
<path d="M539.5 395.5C539.5 475.583 474.804 540.5 395 540.5C315.196 540.5 250.5 475.583 250.5 395.5C250.5 315.417 315.196 250.5 395 250.5C474.804 250.5 539.5 315.417 539.5 395.5Z" stroke="black" stroke-opacity="0.1"/>
<circle cx="158.596" cy="710.596" r="16" transform="rotate(-75 158.596 710.596)" fill="url(#paint0_linear_3014_4)"/>
<circle cx="788.023" cy="378.023" r="9" transform="rotate(-75 788.023 378.023)" fill="url(#paint1_linear_3014_4)"/>
<defs>
<linearGradient id="paint0_linear_3014_4" x1="158.596" y1="694.596" x2="158.596" y2="726.596" gradientUnits="userSpaceOnUse">
<stop stop-color="#B483E6"/>
<stop offset="1" stop-color="#C1789D"/>
</linearGradient>
<linearGradient id="paint1_linear_3014_4" x1="788.023" y1="369.023" x2="788.023" y2="387.023" gradientUnits="userSpaceOnUse">
<stop stop-color="#B483E6"/>
<stop offset="1" stop-color="#C1789D"/>
</linearGradient>
</defs>
</svg>
