<svg width="1886" height="616" viewBox="0 0 1886 616" fill="none" xmlns="http://www.w3.org/2000/svg">
<path d="M1607 40.9979C1607 40.9979 1620.65 81.0249 1639 99.4979C1700.51 161.412 1773.58 -41.0622 1844 10.4979C1864.03 25.1642 1884.5 59.4979 1884.5 59.4979" stroke="#FFD600" stroke-opacity="0.15" stroke-width="3"/>
<path d="M1 605C1 605 119 526.5 152.5 526.5C177.301 526.5 196.442 534.113 209 555.5C220.865 575.706 209 615.5 209 615.5" stroke="#FFD600" stroke-opacity="0.15" stroke-width="3"/>
<circle cx="86.5" cy="214.5" r="20.5" fill="#FFD600" fill-opacity="0.2"/>
<circle cx="78" cy="205" r="21.5" stroke="#FFD600" stroke-opacity="0.15" stroke-width="3"/>
<circle cx="78" cy="205" r="11.5" stroke="#FFD600" stroke-opacity="0.15" stroke-width="3"/>
<circle cx="1695" cy="461" r="21.5" stroke="#FFD600" stroke-opacity="0.15" stroke-width="3"/>
<circle cx="1695" cy="461" r="11.5" stroke="#FFD600" stroke-opacity="0.15" stroke-width="3"/>
<path d="M1123 520L1080 544.5C1080 544.5 1101.48 560.975 1113.5 554.5C1125.8 547.873 1123 520 1123 520Z" stroke="#FFD600" stroke-opacity="0.15" stroke-width="3"/>
<path d="M1129 524.5L1086 549C1086 549 1107.48 565.475 1119.5 559C1131.8 552.373 1129 524.5 1129 524.5Z" fill="#FFD600" fill-opacity="0.2"/>
<path d="M648.5 197L661.5 186L679.5 208L697.5 186L718 208L738 184L757 208L772.5 193" stroke="#FFD600" stroke-opacity="0.15" stroke-width="3"/>
</svg>
