<svg width="24" height="24" viewBox="0 0 24 24" fill="none" xmlns="http://www.w3.org/2000/svg"><g clip-path="url(#clip0_1_7657)"><path d="M20.25 8.24902V5.24902C20.25 4.8512 20.092 4.46967 19.8107 4.18836C19.5294 3.90706 19.1478 3.74902 18.75 3.74902H14.75" stroke="white" stroke-width="1.5" stroke-linecap="round" stroke-linejoin="round"/><path d="M6.25 3.74902H2.25C1.85218 3.74902 1.47064 3.90706 1.18934 4.18836C0.908035 4.46967 0.75 4.8512 0.75 5.24902V21.749C0.75 22.1468 0.908035 22.5284 1.18934 22.8097C1.47064 23.091 1.85218 23.249 2.25 23.249H8.25" stroke="white" stroke-width="1.5" stroke-linecap="round" stroke-linejoin="round"/><path d="M14.4218 4.73603C14.3719 4.88539 14.2763 5.01528 14.1486 5.10734C14.0208 5.1994 13.8673 5.24897 13.7098 5.24903H7.29184C7.13436 5.24897 6.98088 5.1994 6.85311 5.10734C6.72534 5.01528 6.62974 4.88539 6.57984 4.73603L5.57984 1.73603C5.54204 1.62325 5.53165 1.5031 5.54951 1.38552C5.56738 1.26793 5.61299 1.15629 5.68257 1.05983C5.75216 0.96337 5.84371 0.88487 5.94966 0.830823C6.0556 0.776776 6.1729 0.748737 6.29184 0.749026H14.7098C14.8288 0.748737 14.9461 0.776776 15.052 0.830823C15.158 0.88487 15.2495 0.96337 15.3191 1.05983C15.3887 1.15629 15.4343 1.26793 15.4522 1.38552C15.47 1.5031 15.4596 1.62325 15.4218 1.73603L14.4218 4.73603Z" stroke="white" stroke-width="1.5" stroke-linecap="round" stroke-linejoin="round"/><path d="M11.25 11.249H23.25V23.249H11.25V11.249Z" stroke="#E52F3B" stroke-width="1.5" stroke-linecap="round" stroke-linejoin="round"/><path d="M14.25 14.249H20.25" stroke="#E52F3B" stroke-width="1.5" stroke-linecap="round" stroke-linejoin="round"/><path d="M14.25 17.249H20.25" stroke="#E52F3B" stroke-width="1.5" stroke-linecap="round" stroke-linejoin="round"/><path d="M14.25 20.249H16.5" stroke="#E52F3B" stroke-width="1.5" stroke-linecap="round" stroke-linejoin="round"/></g><defs><clipPath id="clip0_1_7657"><rect width="24" height="24" fill="white"/></clipPath></defs></svg>