<svg width="24" height="24" viewBox="0 0 24 24" fill="none" xmlns="http://www.w3.org/2000/svg"><g clip-path="url(#clip0_1_9984)"><path d="M0.75 17.008C0.75 17.7042 1.02656 18.3719 1.51884 18.8642C2.01113 19.3564 2.67881 19.633 3.375 19.633C4.07119 19.633 4.73887 19.3564 5.23116 18.8642C5.72344 18.3719 6 17.7042 6 17.008C6 16.3118 5.72344 15.6441 5.23116 15.1518C4.73887 14.6596 4.07119 14.383 3.375 14.383C2.67881 14.383 2.01113 14.6596 1.51884 15.1518C1.02656 15.6441 0.75 16.3118 0.75 17.008Z" stroke="white" stroke-width="1.5" stroke-linecap="round" stroke-linejoin="round"/><path d="M7.514 23.116C7.24921 22.496 6.84852 21.9435 6.34154 21.4992C5.83455 21.0549 5.23422 20.7302 4.5849 20.5491C3.93557 20.3679 3.25385 20.335 2.59008 20.4526C1.92631 20.5703 1.29747 20.8356 0.75 21.229" stroke="white" stroke-width="1.5" stroke-linecap="round" stroke-linejoin="round"/><path d="M18 17.008C18 17.3527 18.0679 17.6941 18.1998 18.0125C18.3317 18.331 18.5251 18.6204 18.7688 18.8642C19.0126 19.1079 19.302 19.3013 19.6205 19.4332C19.9389 19.5651 20.2803 19.633 20.625 19.633C20.9697 19.633 21.3111 19.5651 21.6295 19.4332C21.948 19.3013 22.2374 19.1079 22.4812 18.8642C22.7249 18.6204 22.9183 18.331 23.0502 18.0125C23.1821 17.6941 23.25 17.3527 23.25 17.008C23.25 16.6633 23.1821 16.3219 23.0502 16.0035C22.9183 15.685 22.7249 15.3956 22.4812 15.1518C22.2374 14.9081 21.948 14.7147 21.6295 14.5828C21.3111 14.4509 20.9697 14.383 20.625 14.383C20.2803 14.383 19.9389 14.4509 19.6205 14.5828C19.302 14.7147 19.0126 14.9081 18.7688 15.1518C18.5251 15.3956 18.3317 15.685 18.1998 16.0035C18.0679 16.3219 18 16.6633 18 17.008Z" stroke="white" stroke-width="1.5" stroke-linecap="round" stroke-linejoin="round"/><path d="M16.4863 23.116C16.7511 22.496 17.1518 21.9435 17.6588 21.4992C18.1658 21.0549 18.7661 20.7302 19.4154 20.5491C20.0648 20.3679 20.7465 20.335 21.4102 20.4526C22.074 20.5703 22.7029 20.8356 23.2503 21.229" stroke="white" stroke-width="1.5" stroke-linecap="round" stroke-linejoin="round"/><path d="M8.625 16.258C8.625 17.1531 8.98058 18.0115 9.61351 18.6445C10.2465 19.2774 11.1049 19.633 12 19.633C12.8951 19.633 13.7535 19.2774 14.3865 18.6445C15.0194 18.0115 15.375 17.1531 15.375 16.258C15.375 15.3629 15.0194 14.5044 14.3865 13.8715C13.7535 13.2386 12.8951 12.883 12 12.883C11.1049 12.883 10.2465 13.2386 9.61351 13.8715C8.98058 14.5044 8.625 15.3629 8.625 16.258Z" stroke="white" stroke-width="1.5" stroke-linecap="round" stroke-linejoin="round"/><path d="M16.4857 23.116C15.9172 22.4914 15.2245 21.9924 14.452 21.651C13.6795 21.3095 12.8443 21.1332 11.9997 21.1332C11.1551 21.1332 10.3198 21.3095 9.54733 21.651C8.77485 21.9924 8.08218 22.4914 7.51367 23.116" stroke="white" stroke-width="1.5" stroke-linecap="round" stroke-linejoin="round"/><path d="M12.5313 1.20898L13.7793 3.66698H15.9063C16.0233 3.66412 16.1386 3.69666 16.2369 3.76033C16.3352 3.82401 16.412 3.91587 16.4573 4.02389C16.5025 4.13192 16.5141 4.25109 16.4906 4.36582C16.467 4.48056 16.4094 4.58552 16.3253 4.66698L14.3723 6.58498L15.4543 9.06998C15.502 9.18379 15.5127 9.30971 15.485 9.42995C15.4572 9.5502 15.3925 9.6587 15.2997 9.74014C15.207 9.82158 15.0911 9.87185 14.9683 9.88384C14.8455 9.89583 14.722 9.86895 14.6153 9.80698L12.0003 8.33598L9.38526 9.80698C9.27854 9.86895 9.15506 9.89583 9.03225 9.88384C8.90943 9.87185 8.79348 9.82158 8.70077 9.74014C8.60806 9.6587 8.54327 9.5502 8.51554 9.42995C8.48782 9.30971 8.49856 9.18379 8.54626 9.06998L9.62826 6.58498L7.67526 4.66298C7.5911 4.58152 7.53348 4.47656 7.50993 4.36182C7.48638 4.24709 7.498 4.12792 7.54326 4.01989C7.58853 3.91187 7.66533 3.82001 7.76363 3.75633C7.86194 3.69266 7.97717 3.66012 8.09426 3.66298H10.2213L11.4703 1.20898C11.5212 1.11248 11.5976 1.03172 11.6911 0.975384C11.7845 0.919051 11.8916 0.889282 12.0008 0.889282C12.1099 0.889282 12.217 0.919051 12.3104 0.975384C12.4039 1.03172 12.4803 1.11248 12.5313 1.20898Z" stroke="#E52F3B" stroke-width="1.5" stroke-linecap="round" stroke-linejoin="round"/><path d="M5.25026 2.38399C5.14035 2.38311 5.0324 2.41311 4.9387 2.47056C4.845 2.52802 4.76931 2.61063 4.72026 2.70899L3.47126 5.16699H1.34426C1.22717 5.16413 1.11194 5.19667 1.01363 5.26034C0.915329 5.32402 0.838525 5.41588 0.793262 5.5239C0.747999 5.63193 0.736383 5.7511 0.759932 5.86583C0.783482 5.98057 0.841101 6.08553 0.925257 6.16699L2.87826 8.08499L1.80026 10.57C1.75256 10.6838 1.74182 10.8097 1.76954 10.93C1.79727 11.0502 1.86206 11.1587 1.95477 11.2402C2.04748 11.3216 2.16343 11.3719 2.28624 11.3839C2.40906 11.3958 2.53254 11.369 2.63926 11.307L5.25026 9.83599L5.94226 10.225" stroke="white" stroke-width="1.5" stroke-linecap="round" stroke-linejoin="round"/><path d="M18.7496 2.38399C18.8595 2.38311 18.9675 2.41311 19.0612 2.47056C19.1549 2.52802 19.2306 2.61063 19.2796 2.70899L20.5286 5.16699H22.6556C22.7727 5.16413 22.8879 5.19667 22.9862 5.26034C23.0845 5.32402 23.1613 5.41588 23.2066 5.5239C23.2519 5.63193 23.2635 5.7511 23.2399 5.86583C23.2164 5.98057 23.1588 6.08553 23.0746 6.16699L21.1216 8.08499L22.1996 10.57C22.2473 10.6838 22.2581 10.8097 22.2303 10.93C22.2026 11.0502 22.1378 11.1587 22.0451 11.2402C21.9524 11.3216 21.8364 11.3719 21.7136 11.3839C21.5908 11.3958 21.4673 11.369 21.3606 11.307L18.7496 9.83599L18.0576 10.225" stroke="white" stroke-width="1.5" stroke-linecap="round" stroke-linejoin="round"/></g><defs><clipPath id="clip0_1_9984"><rect width="24" height="24" fill="white"/></clipPath></defs></svg>