<svg width="26" height="31" viewBox="0 0 26 31" fill="none" xmlns="http://www.w3.org/2000/svg"><path d="M13.6223 0.696987C10.7886 2.59183 8.14801 6.44684 7.2893 9.95338C7.11755 10.585 6.92434 11.1077 6.817 11.1077C6.73113 11.1077 6.45205 10.6939 6.19443 10.193C5.78655 9.40889 5.74361 9.03863 5.85095 7.51405L5.95829 5.77167L5.12104 6.75176C3.83297 8.25456 2.15847 10.8028 1.4715 12.3274C-1.06171 17.9901 -0.310332 23.1084 3.61829 27.1812C4.86343 28.488 7.65425 30.6224 7.84746 30.4264C7.8904 30.3828 7.71865 29.8165 7.46104 29.1631C6.817 27.5079 6.66673 23.1519 7.18196 21.1264C7.82599 18.5128 9.24287 15.8993 10.9818 14.1351L12.5489 12.5234L12.6777 14.3747C12.8495 16.5091 13.515 18.8613 14.3308 20.1027L14.9104 20.9957L15.0392 19.4711C15.1036 18.6435 15.2968 17.6634 15.4471 17.3149L15.7262 16.6615L15.9623 17.3149C16.177 17.9248 17.2719 20.1463 18.9464 23.3915C19.9768 25.3517 19.9768 27.4861 18.9464 30.1868C18.839 30.5135 18.8819 30.5135 19.483 30.1868C20.6853 29.5552 23.2829 27.3118 24.163 26.114C26.3957 23.1519 26.3957 19.3622 24.1416 14.832C23.6478 13.7866 22.9608 12.0878 22.6388 11.0206C22.0377 9.12575 22.0377 9.10397 21.7801 9.73558C21.4152 10.585 21.0287 12.4798 21.0287 13.351L21.0073 14.048L20.4706 13.3946C17.3577 9.56135 15.0392 4.31243 15.0177 1.02368C15.0177 0.457409 14.9319 3.43323e-05 14.846 3.43323e-05C14.7386 3.43323e-05 14.202 0.304951 13.6223 0.696987Z" fill="#E52F3B"/></svg>