<svg xmlns="http://www.w3.org/2000/svg"><symbol id="menu" viewBox="0 0 24 24" fill="none"><path d="M13.0299 18H3.92578M19.2591 12H3.92578M19.2591 6H3.92578" stroke="currentColor" stroke-width="2" stroke-linecap="round"/></symbol><symbol id="search" viewBox="0 0 24 24" fill="none"><path d="M16.3136 17.0401L19.642 20.4001M18.5687 11.4401C18.5687 15.77 15.2048 19.2801 11.0553 19.2801C6.90583 19.2801 3.54199 15.77 3.54199 11.4401C3.54199 7.11019 6.90583 3.6001 11.0553 3.6001C15.2048 3.6001 18.5687 7.11019 18.5687 11.4401Z" stroke="currentColor" stroke-width="1.5" stroke-linecap="round"/></symbol><symbol id="heart" viewBox="0 0 24 24" fill="none"><path fill-rule="evenodd" clip-rule="evenodd" d="M3.80577 6.20635C4.7059 5.30649 5.92658 4.80097 7.19936 4.80097C8.47215 4.80097 9.69283 5.30649 10.593 6.20635L11.9994 7.61155L13.4058 6.20635C13.8485 5.7479 14.3782 5.38223 14.9638 5.13066C15.5494 4.8791 16.1793 4.74669 16.8166 4.74115C17.454 4.73561 18.086 4.85706 18.6759 5.09841C19.2658 5.33975 19.8018 5.69617 20.2525 6.14685C20.7031 6.59754 21.0596 7.13347 21.3009 7.72337C21.5423 8.31327 21.6637 8.94533 21.6582 9.58268C21.6526 10.22 21.5202 10.8499 21.2686 11.4355C21.0171 12.0211 20.6514 12.5508 20.193 12.9935L11.9994 21.1883L3.80577 12.9935C2.9059 12.0934 2.40039 10.8727 2.40039 9.59995C2.40039 8.32716 2.9059 7.10648 3.80577 6.20635V6.20635Z" stroke="currentColor" stroke-width="1.5" stroke-linejoin="round"/></symbol><symbol id="user" viewBox="0 0 24 24" fill="none"><path d="M15.0682 7.00966C15.0682 8.65648 13.6742 10.1249 12 10.1249C10.3258 10.1249 8.93182 8.65648 8.93182 7.00966C8.93182 5.32695 10.3598 3.75 12 3.75C13.6402 3.75 15.0682 5.32695 15.0682 7.00966ZM20.25 16.7779C20.25 17.5917 19.7954 18.4261 18.5056 19.0984C17.191 19.7836 15.0781 20.2502 12 20.2502C8.92186 20.2502 6.80897 19.7836 5.49439 19.0984C4.20459 18.4261 3.75 17.5917 3.75 16.7779C3.75 16.0743 4.38661 15.2069 5.95458 14.4713C7.46298 13.7636 9.59955 13.3056 12 13.3056C14.4005 13.3056 16.537 13.7636 18.0454 14.4713C19.6134 15.2069 20.25 16.0743 20.25 16.7779Z" stroke="currentColor" stroke-width="1.5"/></symbol><symbol id="chevron-down" viewBox="0 0 16 16" fill="none"><path d="M13 6L8 11L3 6" stroke="currentColor" stroke-width="2" stroke-linecap="round" stroke-linejoin="round"/></symbol><symbol id="close" viewBox="0 0 22 22" fill="none"><path d="M16.758 5.92591L15.545 4.71289L10.7359 9.52193L5.92688 4.71289L4.71387 5.92591L9.52291 10.7349L4.71387 15.544L5.92688 16.757L10.7359 11.948L15.545 16.757L16.758 15.544L11.9489 10.7349L16.758 5.92591Z" fill="currentColor"/></symbol><symbol id="arrow-left-circle" viewBox="0 0 48 48" fill="none"><path d="M25.4829 32.9942C25.8365 33.4185 26.467 33.4758 26.8913 33.1222C27.3156 32.7687 27.3729 32.1381 27.0193 31.7138L25.4829 32.9942ZM19.6219 24.399L18.8537 23.7588C18.5447 24.1297 18.5447 24.6683 18.8537 25.0392L19.6219 24.399ZM27.0193 17.0842C27.3729 16.6599 27.3156 16.0293 26.8913 15.6758C26.467 15.3222 25.8365 15.3795 25.4829 15.8038L27.0193 17.0842ZM27.0193 31.7138L20.3902 23.7588L18.8537 25.0392L25.4829 32.9942L27.0193 31.7138ZM20.3902 25.0392L27.0193 17.0842L25.4829 15.8038L18.8537 23.7588L20.3902 25.0392ZM24 41C14.6112 41 7 33.3888 7 24L5 24C5 34.4934 13.5066 43 24 43L24 41ZM7 24C7 14.6112 14.6112 7 24 7L24 5C13.5066 5 5 13.5066 5 24L7 24ZM24 7C33.3888 7 41 14.6112 41 24L43 24C43 13.5066 34.4934 5 24 5L24 7ZM41 24C41 33.3888 33.3888 41 24 41L24 43C34.4934 43 43 34.4934 43 24L41 24Z" fill="currentColor"/></symbol><symbol id="arrow-right-circle" viewBox="0 0 48 48" fill="none"><path d="M22.5171 15.0058C22.1635 14.5815 21.533 14.5242 21.1087 14.8778C20.6844 15.2313 20.6271 15.8619 20.9807 16.2862L22.5171 15.0058ZM28.3781 23.601L29.1463 24.2412C29.4553 23.8703 29.4553 23.3317 29.1463 22.9608L28.3781 23.601ZM20.9807 30.9158C20.6271 31.3401 20.6844 31.9707 21.1087 32.3242C21.533 32.6778 22.1635 32.6205 22.5171 32.1962L20.9807 30.9158ZM20.9807 16.2862L27.6098 24.2412L29.1463 22.9608L22.5171 15.0058L20.9807 16.2862ZM27.6098 22.9608L20.9807 30.9158L22.5171 32.1962L29.1463 24.2412L27.6098 22.9608ZM24 7C33.3888 7 41 14.6112 41 24H43C43 13.5066 34.4934 5 24 5V7ZM41 24C41 33.3888 33.3888 41 24 41V43C34.4934 43 43 34.4934 43 24H41ZM24 41C14.6112 41 7 33.3888 7 24H5C5 34.4934 13.5066 43 24 43V41ZM7 24C7 14.6112 14.6112 7 24 7V5C13.5066 5 5 13.5066 5 24H7Z" fill="currentColor"/></symbol><symbol id="arrow-right" viewBox="0 0 12 11" fill="none"><path d="M0 5.5H10M10 5.5L5.11111 1M10 5.5L5.11111 10" stroke="currentColor" stroke-width="1.5"/></symbol><symbol id="eye" viewBox="0 0 24 24" fill="none"><path d="M12 4.5C7 4.5 2.73 7.61 1 12C2.73 16.39 7 19.5 12 19.5C17 19.5 21.27 16.39 23 12C21.27 7.61 17 4.5 12 4.5ZM12 17C9.24 17 7 14.76 7 12C7 9.24 9.24 7 12 7C14.76 7 17 9.24 17 12C17 14.76 14.76 17 12 17ZM12 9C10.34 9 9 10.34 9 12C9 13.66 10.34 15 12 15C13.66 15 15 13.66 15 12C15 10.34 13.66 9 12 9Z" fill="currentColor"/></symbol><symbol id="close-circle" viewBox="0 0 40 40" fill="none"><path d="M26.0104 15.4038C26.4009 15.0133 26.4009 14.3801 26.0104 13.9896C25.6199 13.5991 24.9867 13.5991 24.5962 13.9896L26.0104 15.4038ZM13.9896 24.5962C13.5991 24.9867 13.5991 25.6199 13.9896 26.0104C14.3801 26.4009 15.0133 26.4009 15.4038 26.0104L13.9896 24.5962ZM24.5962 26.0104C24.9867 26.4009 25.6199 26.4009 26.0104 26.0104C26.4009 25.6199 26.4009 24.9867 26.0104 24.5962L24.5962 26.0104ZM15.4038 13.9896C15.0133 13.5991 14.3801 13.5991 13.9896 13.9896C13.5991 14.3801 13.5991 15.0133 13.9896 15.4038L15.4038 13.9896ZM34 20C34 27.732 27.732 34 20 34V36C28.8366 36 36 28.8366 36 20H34ZM20 34C12.268 34 6 27.732 6 20H4C4 28.8366 11.1634 36 20 36V34ZM6 20C6 12.268 12.268 6 20 6V4C11.1634 4 4 11.1634 4 20H6ZM20 6C27.732 6 34 12.268 34 20H36C36 11.1634 28.8366 4 20 4V6ZM24.5962 13.9896L19.2929 19.2929L20.7071 20.7071L26.0104 15.4038L24.5962 13.9896ZM19.2929 19.2929L13.9896 24.5962L15.4038 26.0104L20.7071 20.7071L19.2929 19.2929ZM26.0104 24.5962L20.7071 19.2929L19.2929 20.7071L24.5962 26.0104L26.0104 24.5962ZM20.7071 19.2929L15.4038 13.9896L13.9896 15.4038L19.2929 20.7071L20.7071 19.2929Z" fill="currentColor"/></symbol><symbol id="chevron-left" viewBox="0 0 17 17" fill="none"><path d="M10 14L5 9L10 4" stroke="currentColor" stroke-width="2" stroke-linecap="round" stroke-linejoin="round"/></symbol><symbol id="chevron-right" viewBox="0 0 17 17" fill="none"><path d="M7 4L12 9L7 14" stroke="currentColor" stroke-width="2" stroke-linecap="round" stroke-linejoin="round"/></symbol><symbol id="chevron-top" viewBox="0 0 17 17" fill="none"><path d="M4 10L9 5L14 10" stroke="currentColor" stroke-width="2" stroke-linecap="round" stroke-linejoin="round"/></symbol><symbol id="arrow-right-thick" viewBox="0 0 12 12" fill="none"><path d="M6.83333 1.625L11 6M11 6L6.83333 10.375M11 6L1 6" stroke="currentColor" stroke-width="2" stroke-linecap="round" stroke-linejoin="round"/></symbol><symbol id="view-list" viewBox="0 0 18 18" fill="none"><path d="M17 15.2222C17 16.2041 16.215 17 15.2466 17L2.75342 17C1.78503 17 1 16.2041 1 15.2222L1 12.5556C1 11.5737 1.78504 10.7778 2.75342 10.7778L15.2466 10.7778C16.215 10.7778 17 11.5737 17 12.5556V15.2222Z" stroke="currentColor" stroke-width="1.5" stroke-linecap="round" stroke-linejoin="round"/><path d="M17 2.77778C17 1.79594 16.215 1 15.2466 1L2.75342 1C1.78503 1 1 1.79594 1 2.77778L1 5.44444C1 6.42628 1.78504 7.22222 2.75343 7.22222H15.2466C16.215 7.22222 17 6.42628 17 5.44444V2.77778Z" stroke="currentColor" stroke-width="1.5" stroke-linecap="round" stroke-linejoin="round"/></symbol><symbol id="view-grid" viewBox="0 0 18 18" fill="none"><path d="M15.2222 1C16.2041 1 17 1.78503 17 2.75342L17 5.7466C17 6.71499 16.2041 7.50002 15.2222 7.50002H12.5556C11.5737 7.50002 10.7778 6.71499 10.7778 5.7466L10.7778 2.75342C10.7778 1.78503 11.5737 1 12.5556 1L15.2222 1Z" stroke="currentColor" stroke-width="1.5" stroke-linecap="round" stroke-linejoin="round"/><path d="M2.77778 1C1.79594 1 0.999999 1.78503 0.999999 2.75342L1.00001 5.7466C1.00001 6.71499 1.79595 7.50002 2.77778 7.50002H5.44445C6.42629 7.50002 7.22223 6.71499 7.22223 5.7466L7.22222 2.75342C7.22222 1.78503 6.42628 1 5.44444 1L2.77778 1Z" stroke="currentColor" stroke-width="1.5" stroke-linecap="round" stroke-linejoin="round"/><path d="M15.2222 10.5C16.2041 10.5 17 11.285 17 12.2534V15.2466C17 16.215 16.2041 17 15.2222 17H12.5556C11.5737 17 10.7778 16.215 10.7778 15.2466L10.7778 12.2534C10.7778 11.285 11.5737 10.5 12.5556 10.5H15.2222Z" stroke="currentColor" stroke-width="1.5" stroke-linecap="round" stroke-linejoin="round"/><path d="M2.77778 10.5C1.79594 10.5 1.00001 11.285 1.00001 12.2534L1.00001 15.2466C1.00001 16.215 1.79595 17 2.77779 17H5.44445C6.42629 17 7.22223 16.215 7.22223 15.2466L7.22223 12.2534C7.22223 11.285 6.42629 10.5 5.44445 10.5H2.77778Z" stroke="currentColor" stroke-width="1.5" stroke-linecap="round" stroke-linejoin="round"/></symbol><symbol id="arrow-left" viewBox="0 0 24 24" fill="none"><path d="M11.1667 16.375L7 12M7 12L11.1667 7.625M7 12H17" stroke="currentColor" stroke-width="2" stroke-linecap="round" stroke-linejoin="round"/></symbol><symbol id="hourglass" viewBox="0 0 16 16" fill="none"><path d="M6.54948 11.9429H9.78353M11.4857 14H4.84735C4.47133 14 4.1665 13.693 4.1665 13.3143V11.4825C4.1665 11.3361 4.21301 11.1936 4.29923 11.0757L6.25189 8.40677C6.42886 8.16488 6.42886 7.83512 6.25189 7.59324L4.29923 4.92427C4.21301 4.80643 4.1665 4.66389 4.1665 4.51751V2.68571C4.1665 2.307 4.47133 2 4.84735 2H11.3154C11.6915 2 11.9963 2.307 11.9963 2.68571V4.53072C11.9963 4.66891 11.9548 4.80388 11.8774 4.91793L10.0566 7.59808C9.89306 7.83877 9.89859 8.15728 10.0704 8.39206L12.0338 11.0757C12.12 11.1936 12.1665 11.3361 12.1665 11.4825V13.3143C12.1665 13.693 11.8617 14 11.4857 14Z" stroke="currentColor" stroke-width="1.5" stroke-linecap="round" stroke-linejoin="round"/></symbol><symbol id="wrench" viewBox="0 0 24 24" fill="none"><path d="M20.982 7.37503C20.9682 7.2148 20.6105 6.90708 20.4592 6.85219C20.3075 6.79697 20.1376 6.83456 20.0235 6.94809L17.7339 9.23769L14.7599 6.26374L17.0954 3.93712C17.2096 3.82337 17.2469 3.65413 17.1919 3.50324C17.1363 3.35205 16.7696 3.03175 16.6084 3.01787C15.1901 2.89613 13.8004 3.40061 12.7956 4.40174C11.4195 5.77278 11.0551 7.77488 11.7004 9.48143C11.6299 9.54063 11.5603 9.60336 11.4916 9.671L3.69603 16.9993C3.69328 17.002 3.69057 17.0049 3.68759 17.0075C2.7708 17.9209 2.7708 19.407 3.68759 20.3206C4.60453 21.2339 6.08537 21.2228 7.00201 20.3094C7.00596 20.3057 7.00958 20.302 7.01319 20.2979L14.305 12.4712C14.3715 12.4047 14.4332 12.3351 14.4914 12.2637C16.2049 12.9077 18.2158 12.5455 19.5931 11.1736C20.5977 10.1724 21.1044 8.78782 20.982 7.37503Z" stroke="currentColor" stroke-width="2" stroke-linejoin="round"/></symbol><symbol id="clock-forward" viewBox="0 0 25 24" fill="none"><path d="M15.125 14.25L11.75 13.125V8.42087M20.75 12C20.75 7.02944 16.7206 3 11.75 3C6.77944 3 2.75 7.02944 2.75 12C2.75 16.9706 6.77944 21 11.75 21C15.0813 21 17.9898 19.1901 19.546 16.5M18.2811 11.0123L20.5311 13.2623L22.7811 11.0123" stroke="currentColor" stroke-width="2" stroke-linecap="round" stroke-linejoin="round"/></symbol><symbol id="marker" viewBox="0 0 24 24" fill="none"><path d="M11.9999 21.5999C11.9999 21.5999 19.5129 14.9216 19.5129 9.91294C19.5129 5.76361 16.1492 2.3999 11.9999 2.3999C7.85052 2.3999 4.48682 5.76361 4.48682 9.91294C4.48682 14.9216 11.9999 21.5999 11.9999 21.5999Z" stroke="currentColor" stroke-width="2"/><path d="M14.4002 9.60005C14.4002 10.9255 13.3257 12.0001 12.0002 12.0001C10.6747 12.0001 9.60017 10.9255 9.60017 9.60005C9.60017 8.27457 10.6747 7.20005 12.0002 7.20005C13.3257 7.20005 14.4002 8.27457 14.4002 9.60005Z" stroke="currentColor" stroke-width="2"/></symbol><symbol id="settings" viewBox="0 0 24 24" fill="none"><path d="M2.3999 8.7999L11.9999 8.7999M2.3999 15.9999H11.9999M11.9999 15.9999V18.3999M11.9999 15.9999V13.5999M16.7999 15.9999H21.5999M16.7999 8.7999L21.5999 8.7999M16.7999 8.7999V11.1999M16.7999 8.7999V6.3999" stroke="currentColor" stroke-width="2" stroke-linecap="round" stroke-linejoin="round"/></symbol></svg>