<svg width="24" height="24" viewBox="0 0 24 24" fill="none" xmlns="http://www.w3.org/2000/svg"><g clip-path="url(#clip0_1_7665)"><path d="M9.39914 16.7401L16.7391 9.40012C17.5876 9.8054 18.5408 9.93785 19.4677 9.77924C20.3945 9.62064 21.2495 9.17878 21.9149 8.51442C22.5804 7.85007 23.0236 6.99586 23.1838 6.06928C23.3439 5.14271 23.213 4.18927 22.8091 3.34012L21.3791 4.76012C21.0954 5.0439 20.7105 5.20333 20.3091 5.20333C19.9078 5.20333 19.5229 5.0439 19.2391 4.76012C18.9554 4.47634 18.7959 4.09145 18.7959 3.69012C18.7959 3.28879 18.9554 2.9039 19.2391 2.62012L20.6591 1.19012C19.81 0.786234 18.8566 0.655358 17.93 0.81549C17.0034 0.975622 16.1492 1.4189 15.4848 2.08434C14.8205 2.74979 14.3786 3.60473 14.22 4.53157C14.0614 5.45841 14.1939 6.41163 14.5991 7.26012L7.25914 14.6001C6.41065 14.1948 5.45744 14.0624 4.5306 14.221C3.60376 14.3796 2.74882 14.8215 2.08337 15.4858C1.41792 16.1502 0.974645 17.0044 0.814513 17.931C0.654381 18.8575 0.785257 19.811 1.18914 20.6601L2.61914 19.2401C2.90292 18.9563 3.28781 18.7969 3.68914 18.7969C4.09047 18.7969 4.47536 18.9563 4.75914 19.2401C5.04292 19.5239 5.20235 19.9088 5.20235 20.3101C5.20235 20.7114 5.04292 21.0963 4.75914 21.3801L3.33914 22.8101C4.1883 23.214 5.14173 23.3449 6.06831 23.1847C6.99489 23.0246 7.84909 22.5813 8.51345 21.9159C9.1778 21.2504 9.61966 20.3955 9.77827 19.4687C9.93687 18.5418 9.80442 17.5886 9.39914 16.7401Z" stroke="white" stroke-width="1.5" stroke-linecap="round" stroke-linejoin="round"/><path d="M7.25914 9.40012C6.41065 9.8054 5.45744 9.93785 4.5306 9.77924C3.60376 9.62064 2.74882 9.17878 2.08337 8.51442C1.41792 7.85007 0.974645 6.99586 0.814513 6.06928C0.654381 5.14271 0.785257 4.18927 1.18914 3.34012L2.61914 4.76012C2.90292 5.0439 3.28781 5.20333 3.68914 5.20333C4.09047 5.20333 4.47536 5.0439 4.75914 4.76012C5.04292 4.47634 5.20235 4.09145 5.20235 3.69012C5.20235 3.28879 5.04292 2.9039 4.75914 2.62012L3.33914 1.19012C4.1883 0.786234 5.14173 0.655358 6.06831 0.81549C6.99489 0.975622 7.84909 1.4189 8.51345 2.08434C9.1778 2.74979 9.61966 3.60473 9.77827 4.53157C9.93687 5.45841 9.80442 6.41163 9.39914 7.26012" stroke="#E52F3B" stroke-width="1.5" stroke-linecap="round" stroke-linejoin="round"/><path d="M16.7386 14.6001C17.5871 14.1948 18.5403 14.0624 19.4672 14.221C20.394 14.3796 21.2489 14.8214 21.9144 15.4858C22.5798 16.1501 23.0231 17.0043 23.1832 17.9309C23.3434 18.8575 23.2125 19.8109 22.8086 20.6601L21.3786 19.2401C21.0948 18.9563 20.7099 18.7969 20.3086 18.7969C19.9073 18.7969 19.5224 18.9563 19.2386 19.2401C18.9548 19.5239 18.7954 19.9088 18.7954 20.3101C18.7954 20.7114 18.9548 21.0963 19.2386 21.3801L20.6586 22.8101C19.8095 23.214 18.856 23.3448 17.9295 23.1847C17.0029 23.0246 16.1487 22.5813 15.4843 21.9159C14.82 21.2504 14.3781 20.3955 14.2195 19.4686C14.0609 18.5418 14.1933 17.5886 14.5986 16.7401" stroke="#E52F3B" stroke-width="1.5" stroke-linecap="round" stroke-linejoin="round"/></g><defs><clipPath id="clip0_1_7665"><rect width="24" height="24" fill="white"/></clipPath></defs></svg>