<svg width="620" height="807" viewBox="0 0 620 807" fill="none" xmlns="http://www.w3.org/2000/svg"><path d="M147.66 2C66.1838 36.8098 -3.04861 89.3574 2.28952 167.221C7.65411 245.47 98.9948 269.784 186.652 268.94C279.19 268.049 413.663 235.43 462.439 319.073C474.417 339.615 484.127 371.932 479.663 394.636C472.74 429.847 427.439 441.372 388.996 450C294.247 471.266 191.222 469.311 117.753 528.033C84.8849 554.304 38.7223 605.283 73.6495 643.121C89.2216 659.991 112.913 672.649 137.438 681.193C204.489 704.553 330.561 717.448 399.786 726.822C460.398 735.029 549.045 738.613 603.076 768.526C615.086 775.175 617.012 781.452 617.841 791.631C618.199 796.037 617.841 800.583 617.841 805" stroke="white" stroke-width="4" stroke-linecap="round"/></svg>