<svg width="1953" height="184" viewBox="0 0 1953 184" fill="none" xmlns="http://www.w3.org/2000/svg"><path opacity="0.06" d="M2 2C31.3104 29.2168 40.994 42.659 80.3458 58.7802C117.576 74.0324 167.543 82.5682 207.555 81.9837C254.595 81.2966 311.973 67.0795 341.317 26.5684C350.749 13.5466 343.865 5.10259 329.578 6.09473C308.734 7.54225 290.511 22.3019 281.943 40.8999C272.795 60.7579 275.159 84.1599 287.266 102.321C317.318 147.399 383.598 150.878 431.947 149.41C591.657 144.563 739.48 57.1635 901.748 75.4321C930.513 78.6705 968.733 86.8842 955.116 123.886C943.495 155.466 912.878 168.448 881.684 173.16C868.545 175.144 813.771 181.07 817.807 152.823C819.918 138.041 834.053 128.533 845.514 121.976C883.985 99.9638 932.595 93.5441 976 91.2651C1068.78 86.3937 1154.14 109.528 1242.7 133.577C1366.8 167.275 1490.41 192.601 1619.69 177.937C1692.7 169.656 1754.24 145.043 1821.15 117.608C1847.49 106.81 1923.45 103.282 1951.33 102.321" stroke="white" stroke-width="3" stroke-linecap="round"/></svg>