<svg width="53" height="86" viewBox="0 0 53 86" fill="none" xmlns="http://www.w3.org/2000/svg"><path d="M3.51961 69.281C10.0131 67.5817 11.1176 62.3748 11.1176 56.2799C11.1176 54.77 10.5932 50.2797 10.915 51.7548C11.5617 54.7189 12.5545 57.5729 14.2244 60.1296C16.4651 63.5601 18.8096 64.6744 22.768 64.7221C22.8243 64.7228 24.3101 64.6433 23.8823 64.8572C22.2921 65.6524 20.9416 66.392 19.83 67.8627C17.2765 71.2412 16.5582 75.5314 17.0272 79.6481C17.1739 80.9359 17.454 82.3656 17.9728 83.5653C18.3828 84.5135 17.6829 81.509 17.3649 80.526C15.2075 73.8578 8.69697 70.1927 2 70.1927" stroke="#FD8806" stroke-width="3" stroke-linecap="round"/><path d="M21.8901 25.7486C30.9794 24.4488 33.3382 17.4216 34.3454 8.9866C34.5949 6.89704 34.6255 0.597714 34.8183 2.69138C35.2057 6.89819 36.0808 11.0088 37.9235 14.8175C40.3961 19.9282 43.3924 21.8501 48.754 22.5572C48.8303 22.5673 50.859 22.698 50.2434 22.9247C47.9548 23.7675 46.0007 24.5724 44.2498 26.4277C40.2275 30.6898 38.5443 36.5109 38.5002 42.284C38.4864 44.09 38.63 46.114 39.1355 47.8583C39.535 49.2371 39.0821 44.9656 38.8131 43.5538C36.9886 33.9759 28.7626 27.8491 19.6781 26.7643" stroke="#FD8806" stroke-width="3" stroke-linecap="round"/></svg>