<svg width="39" height="55" viewBox="0 0 39 55" fill="none" xmlns="http://www.w3.org/2000/svg"><path d="M34.0372 33.2092C23.6636 30.8484 18.1987 37.4743 13.6128 46.1837C12.4767 48.3412 9.83266 55.1446 10.4918 52.7993C11.8162 48.0868 12.5731 43.2763 12.1579 38.3914C11.6007 31.8367 9.15528 28.5152 3.64696 25.5278C3.56859 25.4853 1.42768 24.5031 2.18775 24.5129C5.01343 24.5495 7.46143 24.4886 10.1249 23.2068C16.2437 20.2622 20.4777 14.6614 22.9183 8.433C23.6818 6.48457 24.3653 4.23505 24.5413 2.1381C24.6805 0.480627 23.4001 5.29015 23.1059 6.92932C21.1103 18.049 27.4716 28.088 36.8517 33.0271" stroke="#FD8806" stroke-width="3" stroke-linecap="round"/></svg>