<svg width="502" height="22" viewBox="0 0 502 22" fill="none" xmlns="http://www.w3.org/2000/svg"><path d="M2.40869 5.36395C103.133 1.7849 204.342 10.3637 304.931 2.1857C307.015 2.01628 313.254 1.36701 311.17 1.53828C294.689 2.89289 309.227 1.97793 284.214 3.77482C251.662 6.11335 219.241 6.36743 186.63 6.42337C152.182 6.48246 114.624 3.94504 81.041 13.3096C62.7836 18.4006 86.7318 12.7314 90.0461 12.1325C116.128 7.4188 142.118 6.62477 168.561 6.48223C233.672 6.13122 298.667 3.14821 363.788 3.24512C392.946 3.28851 422.094 3.76765 451.249 4.06911C464.304 4.20409 470.875 4.24696 483.502 4.06911C487.034 4.01936 490.565 3.91101 494.096 3.83368C501.709 3.66699 502.365 3.58291 491.565 4.24568C397.071 10.045 302.588 17.6376 207.936 20.1958" stroke="#FD9D05" stroke-width="3" stroke-linecap="round"/></svg>