<svg width="97" height="77" viewBox="0 0 97 77" fill="none" xmlns="http://www.w3.org/2000/svg"><path d="M8 43C5.8393 36.6861 3.85448 30.3907 2 24" stroke="white" stroke-width="3" stroke-linecap="round"/><path d="M26.4112 17C26.0402 29.4702 25.1726 41.1945 21.6627 53.1861C21.2097 54.7337 19.0455 57.2423 20.4903 57.8824C22.2155 58.6468 23.866 56.1858 25.5318 55.2934C41.0521 46.9789 65.2381 38.3475 79.3477 54.0892C83.8716 59.1365 85.9097 66.9733 79.6408 71.6704C78.5763 72.468 63.3628 78.1558 64.5747 72.5736C66.0608 65.7285 78.891 65.8973 83.4513 66.7935C88.0144 67.6901 91.4445 70.0322 95 72.8144" stroke="white" stroke-width="3" stroke-linecap="round"/><path d="M39 26C39.5772 17.9961 40.3259 9.99885 41 2" stroke="white" stroke-width="3" stroke-linecap="round"/></svg>