<svg width="125" height="61" viewBox="0 0 125 61" fill="none" xmlns="http://www.w3.org/2000/svg"><path d="M44.6865 29.0205C44.3397 28.6916 44.1685 28.2457 44.1685 27.6916V18.1462H41.3081C40.7134 18.1462 40.272 18.0201 39.9792 17.7723C39.6864 17.5246 39.5422 17.1417 39.5422 16.6282C39.5422 16.1146 39.6864 15.7362 39.9792 15.493C40.2675 15.2497 40.7134 15.1281 41.3081 15.1281H50.7948C51.3895 15.1281 51.8309 15.2497 52.1237 15.493C52.4165 15.7362 52.5607 16.1146 52.5607 16.6282C52.5607 17.1417 52.4165 17.5246 52.1237 17.7723C51.8309 18.0246 51.3895 18.1462 50.7948 18.1462H47.9344V27.6916C47.9344 28.2457 47.7632 28.6871 47.4164 29.0205C47.074 29.3538 46.6145 29.516 46.0469 29.516C45.4794 29.516 45.0244 29.3493 44.6775 29.0205H44.6865Z" fill="white"/><path d="M66.1421 28.0743C66.1421 28.5068 65.9619 28.8672 65.606 29.16C65.2456 29.4483 64.8312 29.5969 64.3582 29.5969C64.0339 29.5969 63.7276 29.5203 63.4483 29.3762C63.1645 29.2275 62.9212 29.0068 62.7185 28.705L60.0833 24.8535C59.8941 24.5832 59.6959 24.385 59.4842 24.2544C59.2725 24.1283 59.0292 24.0607 58.7454 24.0607H57.4256V27.6869C57.4256 28.2545 57.2634 28.705 56.9391 29.0338C56.6147 29.3672 56.1688 29.5293 55.6012 29.5293C55.0336 29.5293 54.5831 29.3627 54.2543 29.0338C53.921 28.705 53.7588 28.2545 53.7588 27.6869V16.8442C53.7588 16.2902 53.9074 15.8667 54.2048 15.5694C54.5021 15.2721 54.9255 15.1235 55.4796 15.1235H60.5653C62.2951 15.1235 63.5969 15.4974 64.4663 16.2496C65.3357 17.0019 65.7727 18.083 65.7727 19.502C65.7727 20.5831 65.4754 21.4976 64.8808 22.2498C64.2862 23.0021 63.4483 23.5021 62.3672 23.7589C62.8131 23.8265 63.2005 23.9751 63.5339 24.2048C63.8627 24.4346 64.1916 24.7814 64.5159 25.2364L65.7727 27.0383C66.0159 27.4031 66.1376 27.75 66.1376 28.0698L66.1421 28.0743ZM61.7545 20.8804C62.1104 20.6236 62.2906 20.2047 62.2906 19.6236C62.2906 19.0425 62.1104 18.6011 61.7545 18.3353C61.3987 18.0695 60.8041 17.9389 59.9797 17.9389H57.385V21.2633H59.9797C60.8041 21.2633 61.3942 21.1327 61.7545 20.8804Z" fill="white"/><path d="M81.733 27.8718C81.733 28.3178 81.5528 28.6962 81.197 29.007C80.8411 29.3178 80.4312 29.471 79.9717 29.471C79.6609 29.471 79.3771 29.3899 79.1203 29.2277C78.8635 29.0656 78.6608 28.8223 78.5122 28.498L77.6022 26.4529H71.0345L70.102 28.498C69.9534 28.8223 69.7461 29.0656 69.4849 29.2277C69.2236 29.3899 68.9353 29.471 68.6245 29.471C68.165 29.471 67.7506 29.3178 67.3767 29.007C67.0028 28.6962 66.8181 28.3178 66.8181 27.8718C66.8181 27.6286 66.8767 27.3808 67.0028 27.1196L72.3543 16.1327C72.53 15.7679 72.7913 15.4886 73.1336 15.2904C73.4805 15.0967 73.8589 14.9976 74.2778 14.9976C74.6967 14.9976 75.0616 15.0967 75.413 15.2904C75.7643 15.4886 76.0301 15.7679 76.2058 16.1327L81.5573 27.1196C81.679 27.3763 81.742 27.6241 81.742 27.8718H81.733ZM72.2868 23.6555H76.3409L74.3138 19.1328L72.2868 23.6555Z" fill="white"/><path d="M83.8002 29.0295C83.4623 28.6916 83.2957 28.2457 83.2957 27.6916V16.8489C83.2957 16.2948 83.4443 15.8714 83.7416 15.5741C84.0389 15.2768 84.4624 15.1281 85.0164 15.1281H91.8275C92.4356 15.1281 92.8815 15.2452 93.1653 15.484C93.4491 15.7227 93.5933 16.0966 93.5933 16.6101C93.5933 17.1237 93.4491 17.475 93.1563 17.7048C92.8635 17.9345 92.4221 18.0471 91.8275 18.0471H86.9624V20.6823H91.422C92.0167 20.6823 92.4581 20.804 92.7509 21.0472C93.0437 21.2905 93.1879 21.6644 93.1879 22.1644C93.1879 22.6644 93.0437 23.0293 92.7509 23.259C92.4581 23.4887 92.0167 23.6059 91.422 23.6059H86.9624V27.7006C86.9624 28.2682 86.7958 28.7186 86.4669 29.0475C86.1336 29.3808 85.6921 29.543 85.1381 29.543C84.584 29.543 84.138 29.3718 83.8002 29.0385V29.0295Z" fill="white"/><path d="M95.517 29.0295C95.1791 28.6916 95.0125 28.2457 95.0125 27.6916V16.8489C95.0125 16.2948 95.1611 15.8714 95.4584 15.5741C95.7557 15.2768 96.1792 15.1281 96.7332 15.1281H103.544C104.152 15.1281 104.598 15.2452 104.882 15.484C105.166 15.7227 105.31 16.0966 105.31 16.6101C105.31 17.1237 105.166 17.475 104.873 17.7048C104.58 17.9345 104.139 18.0471 103.544 18.0471H98.6792V20.6823H103.139C103.733 20.6823 104.175 20.804 104.468 21.0472C104.761 21.2905 104.905 21.6644 104.905 22.1644C104.905 22.6644 104.761 23.0293 104.468 23.259C104.175 23.4887 103.733 23.6059 103.139 23.6059H98.6792V27.7006C98.6792 28.2682 98.5126 28.7186 98.1837 29.0475C97.8504 29.3808 97.4089 29.543 96.8549 29.543C96.3008 29.543 95.8548 29.3718 95.517 29.0385V29.0295Z" fill="white"/><path d="M107.224 29.0386C106.891 28.7097 106.729 28.2593 106.729 27.6917V16.849C106.729 16.2949 106.895 15.8535 107.224 15.5201C107.553 15.1913 108.004 15.0246 108.571 15.0246C109.139 15.0246 109.612 15.1913 109.95 15.5201C110.287 15.8535 110.454 16.2949 110.454 16.849V27.6917C110.454 28.2593 110.283 28.7097 109.95 29.0386C109.612 29.3719 109.152 29.5341 108.571 29.5341C107.99 29.5341 107.553 29.3674 107.224 29.0386Z" fill="white"/><path d="M116.063 28.705C114.99 28.1104 114.157 27.2591 113.567 26.1509C112.981 25.0428 112.684 23.7454 112.684 22.2589C112.684 20.7724 112.977 19.4975 113.567 18.3849C114.153 17.2768 114.986 16.4254 116.063 15.8308C117.135 15.2361 118.391 14.9388 119.824 14.9388C121.54 14.9388 123.049 15.3938 124.347 16.2947C124.576 16.4569 124.743 16.6326 124.842 16.8218C124.941 17.011 124.995 17.2542 124.995 17.5515C124.995 17.9705 124.878 18.3263 124.639 18.6146C124.401 18.9074 124.117 19.0516 123.779 19.0516C123.576 19.0516 123.396 19.0201 123.234 18.9615C123.072 18.8984 122.883 18.8038 122.666 18.6687C122.193 18.3849 121.747 18.1822 121.329 18.0606C120.91 17.9389 120.477 17.8804 120.031 17.8804C118.828 17.8804 117.932 18.2407 117.346 18.966C116.761 19.6912 116.463 20.7859 116.463 22.2589C116.463 23.7319 116.756 24.8491 117.346 25.5743C117.932 26.2951 118.828 26.6599 120.031 26.6599C120.437 26.6599 120.828 26.5969 121.207 26.4662C121.585 26.3401 122.072 26.1374 122.666 25.8671C122.95 25.7185 123.157 25.6194 123.297 25.5653C123.432 25.5113 123.594 25.4842 123.784 25.4842C124.121 25.4842 124.41 25.6284 124.644 25.9212C124.878 26.214 125 26.5653 125 26.9843C125 27.2681 124.95 27.5068 124.847 27.705C124.743 27.9032 124.581 28.0789 124.351 28.2411C123.054 29.1465 121.545 29.597 119.828 29.597C118.396 29.597 117.144 29.2997 116.067 28.705H116.063Z" fill="white"/><path d="M53.5876 35.7915C53.9164 36.1249 54.0831 36.5663 54.0831 37.1204V47.9631C54.0831 48.5172 53.9164 48.9631 53.5876 49.301C53.2542 49.6388 52.8128 49.8055 52.2587 49.8055C51.7046 49.8055 51.2632 49.6388 50.9298 49.31C50.5965 48.9811 50.4343 48.5307 50.4343 47.9631V43.9089H44.5963V47.9631C44.5963 48.5172 44.4296 48.9631 44.1008 49.301C43.7674 49.6388 43.326 49.8055 42.7719 49.8055C42.2178 49.8055 41.7764 49.6388 41.443 49.31C41.1097 48.9811 40.9475 48.5307 40.9475 47.9631V37.1204C40.9475 36.5663 41.1142 36.1249 41.443 35.7915C41.7719 35.4627 42.2178 35.296 42.7719 35.296C43.326 35.296 43.7674 35.4627 44.1008 35.7915C44.4296 36.1249 44.5963 36.5663 44.5963 37.1204V40.9494H50.4343V37.1204C50.4343 36.5663 50.601 36.1249 50.9298 35.7915C51.2587 35.4627 51.7046 35.296 52.2587 35.296C52.8128 35.296 53.2542 35.4627 53.5876 35.7915Z" fill="white"/><path d="M58.2096 48.2874C57.1375 47.2333 56.5969 45.6927 56.5969 43.6657V37.1204C56.5969 36.5663 56.7636 36.1249 57.0924 35.7915C57.4213 35.4582 57.8672 35.296 58.4213 35.296C58.9754 35.296 59.4168 35.4627 59.7502 35.7915C60.079 36.1249 60.2457 36.5663 60.2457 37.1204V43.8098C60.2457 44.8369 60.4754 45.6297 60.9349 46.1793C61.3944 46.7333 62.0566 47.0126 62.9215 47.0126C63.7863 47.0126 64.4485 46.7378 64.908 46.1793C65.3675 45.6252 65.5972 44.8369 65.5972 43.8098V37.1204C65.5972 36.5663 65.7639 36.1249 66.0927 35.7915C66.4216 35.4582 66.8675 35.296 67.4216 35.296C67.9757 35.296 68.4216 35.4627 68.7595 35.7915C69.0973 36.1249 69.264 36.5663 69.264 37.1204V43.6657C69.264 45.6792 68.7189 47.2153 67.6333 48.2784C66.5432 49.3415 64.9756 49.8686 62.9215 49.8686C60.8673 49.8686 59.2817 49.3415 58.2096 48.2874Z" fill="white"/><path d="M84.035 35.8005C84.3683 36.1384 84.5305 36.5798 84.5305 37.1204V47.9631C84.5305 48.5172 84.3683 48.9631 84.044 49.301C83.7196 49.6388 83.3007 49.8055 82.7872 49.8055C82.1791 49.8055 81.7196 49.6028 81.4088 49.1974L75.2464 41.5169V47.9631C75.2464 48.5172 75.0888 48.9631 74.7779 49.301C74.4671 49.6388 74.0482 49.8055 73.5211 49.8055C72.9941 49.8055 72.5887 49.6343 72.2643 49.301C71.94 48.9631 71.7778 48.5172 71.7778 47.9631V37.1204C71.7778 36.5798 71.94 36.1429 72.2643 35.8005C72.5887 35.4627 73.0076 35.296 73.5211 35.296C74.1022 35.296 74.5527 35.4987 74.877 35.9042L81.0394 43.5666V37.1204C81.0394 36.5663 81.1971 36.1249 81.5169 35.7915C81.8322 35.4627 82.2511 35.296 82.7647 35.296C83.2782 35.296 83.7016 35.4672 84.0305 35.8005H84.035Z" fill="white"/><path d="M90.8637 49.2919C90.5213 48.963 90.3457 48.5171 90.3457 47.963V38.4176H87.4897C86.8951 38.4176 86.4536 38.2915 86.1608 38.0438C85.868 37.796 85.7239 37.4131 85.7239 36.8996C85.7239 36.386 85.868 36.0077 86.1608 35.7644C86.4536 35.5212 86.8951 35.3995 87.4897 35.3995H96.9765C97.5711 35.3995 98.0126 35.5212 98.3054 35.7644C98.5937 36.0077 98.7423 36.386 98.7423 36.8996C98.7423 37.4131 98.5982 37.796 98.3054 38.0438C98.0126 38.296 97.5711 38.4176 96.9765 38.4176H94.1205V47.963C94.1205 48.5171 93.9494 48.9585 93.6025 49.2919C93.2556 49.6252 92.8007 49.7874 92.2331 49.7874C91.6655 49.7874 91.2105 49.6207 90.8637 49.2919Z" fill="white"/><path d="M100.382 49.2378C100.085 48.9405 99.9363 48.5171 99.9363 47.963V37.1203C99.9363 36.5662 100.085 36.1428 100.382 35.8455C100.68 35.5482 101.103 35.3995 101.657 35.3995H108.671C109.252 35.3995 109.689 35.5212 109.986 35.7644C110.283 36.0077 110.432 36.359 110.432 36.8185C110.432 37.7915 109.842 38.278 108.666 38.278H103.558V40.9943H108.261C109.437 40.9943 110.027 41.4763 110.027 42.4358C110.027 42.8953 109.878 43.2466 109.581 43.4899C109.283 43.7331 108.842 43.8548 108.265 43.8548H103.563V46.8143H108.671C109.847 46.8143 110.437 47.3008 110.437 48.2738C110.437 48.7333 110.288 49.0847 109.991 49.3279C109.693 49.5712 109.252 49.6928 108.675 49.6928H101.662C101.107 49.6928 100.68 49.5441 100.387 49.2468L100.382 49.2378Z" fill="white"/><path d="M124.423 48.3458C124.423 48.7782 124.243 49.1386 123.887 49.4314C123.531 49.7197 123.112 49.8683 122.639 49.8683C122.315 49.8683 122.009 49.7918 121.725 49.6476C121.441 49.499 121.198 49.2782 120.995 48.9764L118.36 45.1249C118.171 44.8547 117.973 44.6565 117.761 44.5258C117.549 44.3997 117.306 44.3321 117.022 44.3321H115.707V47.9584C115.707 48.5259 115.545 48.9764 115.22 49.3053C114.896 49.6386 114.45 49.8008 113.882 49.8008C113.315 49.8008 112.864 49.6341 112.536 49.3053C112.202 48.9764 112.04 48.5259 112.04 47.9584V37.1157C112.04 36.5616 112.189 36.1382 112.486 35.8409C112.783 35.5436 113.207 35.3949 113.761 35.3949H118.847C120.576 35.3949 121.878 35.7688 122.748 36.5211C123.622 37.2733 124.054 38.3545 124.054 39.7734C124.054 40.8545 123.757 41.769 123.162 42.5213C122.567 43.2735 121.73 43.7735 120.648 44.0303C121.094 44.0979 121.482 44.2465 121.815 44.4763C122.144 44.706 122.473 45.0529 122.797 45.5078L124.054 47.3097C124.297 47.6746 124.419 48.0214 124.419 48.3413L124.423 48.3458ZM120.036 41.1518C120.392 40.8951 120.572 40.4761 120.572 39.895C120.572 39.3139 120.392 38.8725 120.036 38.6067C119.675 38.3409 119.085 38.2103 118.261 38.2103H115.666V41.5347H118.261C119.085 41.5347 119.675 41.4041 120.036 41.1518Z" fill="white"/><path d="M29.2268 28.978C27.4294 29.5996 23.6636 30.6898 21.177 29.942C21.177 29.942 22.7581 29.6987 23.8708 29.1402C21.695 29.1627 16.294 27.1491 16.1363 22.8877C21.3617 29.3789 28.3529 27.2077 28.8304 26.4644C27.5556 22.0003 21.8617 18.4957 20.1995 17.5542C19.4787 18.2479 18.3256 19.0452 16.5507 19.5317C16.5507 19.5317 16.7129 19.32 16.9606 18.9777L16.0687 19.7074L15.866 19.5498V22.8922C15.7174 27.1446 10.2983 29.1762 8.13154 29.1447C9.24418 29.7032 10.8253 29.9465 10.8253 29.9465C8.33875 30.6898 4.57286 29.5996 2.77551 28.9825C1.15834 31.0681 6.43779 33.4151 7.79819 33.6448H11.4965C11.8659 33.9646 13.7218 35.5953 14.0506 35.8791C14.0506 36.0278 14.1092 42.7802 14.1092 42.9289L15.8615 44.7217L15.9966 44.8614L17.8886 42.9289C17.8886 42.7982 17.9472 36.0097 17.9472 35.8791C18.285 35.5818 20.1229 33.9781 20.5013 33.6448C20.5013 33.6448 24.1996 33.6448 24.1951 33.6448C25.56 33.4151 30.8395 31.0726 29.2178 28.9825L29.2268 28.978Z" fill="url(#paint0_linear_206_1572)"/><path d="M28.8801 28.9239C27.0827 29.5456 23.3168 30.6357 20.8303 29.8879C20.8303 29.8879 22.4114 29.6447 23.524 29.0861C21.3483 29.1086 15.9472 27.095 15.7896 22.8336C21.015 29.3248 28.0062 27.1536 28.4837 26.4103C27.2088 21.9462 21.515 18.4416 19.8528 17.5001C19.132 18.1938 17.9788 18.9912 16.204 19.4777C16.204 19.4777 16.3662 19.2659 16.6139 18.9236L15.722 19.6533L15.5193 19.4957V44.6677L15.6544 44.8073L17.5464 42.8748C17.5464 42.7442 17.6049 35.9557 17.6049 35.825C17.9428 35.5277 19.7807 33.9241 20.1591 33.5907C20.1591 33.5907 23.8574 33.5907 23.8529 33.5907C25.2178 33.361 30.4972 31.0186 28.8756 28.9284L28.8801 28.9239Z" fill="url(#paint1_linear_206_1572)"/><path d="M15.9021 2.51324C15.7895 2.58982 15.6589 2.68442 15.5192 2.78803C14.4607 3.56283 12.6543 5.04486 10.9065 7.2161C11.2939 8.54497 12.2309 11.2613 12.812 14.1172V13.2208L14.1769 14.7704V11.7478L15.6589 16.0587L17.204 11.7478V16.1128L19.3887 13.2523C20.114 10.2928 21.0014 8.38731 21.3528 7.2161C19.3707 4.75656 16.8616 3.17543 15.9066 2.51324H15.9021Z" fill="url(#paint2_linear_206_1572)"/><path d="M14.8616 18.9782C15.0508 19.28 15.1814 19.4737 15.1814 19.4737C13.3841 18.9827 12.4921 18.1314 11.821 17.1223L11.6813 17.2304L9.75332 18.5503C9.54611 18.6899 9.32988 18.8341 9.10465 18.9917L9.07762 19.0098C6.75323 20.645 3.70808 23.2982 2.81616 26.4109C3.29365 27.1587 10.2849 29.3254 15.5103 22.8342V19.4918L14.8526 18.9782H14.8616Z" fill="url(#paint3_linear_206_1572)"/><path d="M16.6139 18.9197L19.2131 16.7845L18.8076 13.7619L19.8843 12.4195L18.9338 13.2529C18.6455 14.4286 18.3842 15.5592 18.1905 16.4917C17.677 17.4061 17.0238 18.3476 16.6094 18.9242L16.6139 18.9197Z" fill="#870000"/><path d="M13.0369 14.437C12.9693 14.0406 12.8927 13.6351 12.8117 13.2207L12.4963 17.1217L14.8658 18.9776C14.4468 18.3155 13.7351 17.1443 13.5054 16.4505L13.0414 14.437H13.0369Z" fill="#870000"/><path d="M12.1991 10.5772L11.4828 7.71221L14.8433 4.68959L15.8523 7.37436L16.8614 4.68959L20.2218 7.71221L19.5506 11.0727L21.5642 6.03197L15.519 0.991272L9.46924 6.70317L12.1991 10.5772Z" fill="#DB3541"/><path d="M28.7402 40.9831V31.9152L25.1996 37.2848L19.812 39.9785V57.6278C20.9562 56.925 22.0058 56.1142 22.9563 55.2628L21.5013 47.0373L24.5419 53.7132C25.2356 52.979 25.8573 52.2447 26.3978 51.5465L24.0194 46.195L27.3798 50.2266C28.56 48.5509 29.1817 47.3346 29.1817 47.3346L27.1636 42.6678L28.7402 40.9876V40.9831Z" fill="url(#paint4_linear_206_1572)"/><path d="M7.78461 29.0866C8.89726 29.6451 10.4784 29.8884 10.4784 29.8884C7.99182 30.6317 4.22594 29.5415 2.42858 28.9244C0.811416 31.01 6.09086 33.357 7.45127 33.5867H11.1496C11.519 33.9065 13.3749 35.5372 13.7037 35.821C13.7037 35.9697 13.7623 42.7221 13.7623 42.8708L15.5146 44.6636V22.8341C15.3659 27.0865 9.94685 29.1181 7.78011 29.0866H7.78461Z" fill="url(#paint5_linear_206_1572)"/><path d="M2.12646 47.33C2.12646 47.33 2.74811 48.5462 3.92832 50.222L7.28879 46.1903L4.91034 51.5418C5.4554 52.2401 6.07704 52.9743 6.76625 53.7086L9.80689 47.0327L8.35189 55.2582C9.30237 56.1096 10.352 56.9204 11.4961 57.6231V39.9739L6.10857 37.2801L2.56792 31.9106V40.9784L4.14455 42.6587L2.12646 47.3255V47.33Z" fill="url(#paint6_linear_206_1572)"/><path d="M27.9473 50.0552L24.5913 47.0326L27.3436 51.3976L27.9473 50.0552Z" fill="white"/><path d="M21.9019 48.037L25.3254 54.0867L24.3209 54.4246L21.9019 48.037Z" fill="white"/><path d="M22.5729 28.4829C17.5097 27.7487 15.8745 22.8341 15.8745 22.8341C16.3745 27.3297 19.0818 28.4694 20.4377 28.7577L21.9378 28.6586L22.5729 28.4829Z" fill="white"/><path d="M10.9196 17.4775L10.6088 17.9595C10.6088 17.9595 10.4781 20.1443 15.181 21.1533C15.2756 21.1533 15.0278 21.0227 14.6134 20.7794C12.0548 19.829 11.1854 18.1938 10.9196 17.473V17.4775Z" fill="white"/><path d="M15.5189 22.8341C15.5189 22.8341 13.9062 27.6766 8.92407 28.4649C9.02768 28.51 9.1448 28.5595 9.27994 28.6091L10.0592 28.8253C10.1178 28.8388 10.1764 28.8478 10.2349 28.8568C10.771 28.8343 14.8882 28.4919 15.5189 22.8386V22.8341Z" fill="white"/><path d="M3.67163 49.8524L6.81137 46.7622L4.09056 51.3975L3.67163 49.8524Z" fill="white"/><path d="M9.28418 48.1768L6.1084 54.0869L7.11744 54.4248L9.28418 48.1768Z" fill="white"/><path opacity="0.7" d="M18.8751 15.442L15.6813 19.8655L13.0506 15.7798L10.8118 17.1222C10.8118 17.1222 11.3478 19.9826 15.5597 21.0818C15.6002 21.0908 15.6408 21.1043 15.6858 21.1133C15.7263 21.1043 15.7669 21.0908 15.8119 21.0818C20.0238 19.9871 20.5598 17.1222 20.5598 17.1222L18.8796 15.442H18.8751Z" fill="#6C7C8A"/><path opacity="0.7" d="M23.582 28.5464C23.582 28.5464 26.9424 27.5373 29.6317 27.204C29.6317 27.204 23.9198 32.578 18.5413 28.8842L23.582 28.5464Z" fill="#6C7C8A"/><path opacity="0.7" d="M25.2628 53.416L23.5825 45.686L26.943 51.0646L25.2628 53.416Z" fill="#6C7C8A"/><path opacity="0.7" d="M21.6501 56.3983L21.2312 46.3574L23.9205 54.4207C23.9205 54.4207 22.9114 56.7722 22.5781 56.7722C22.2447 56.7722 21.6546 56.3938 21.6546 56.3938L21.6501 56.3983Z" fill="#6C7C8A"/><path opacity="0.7" d="M28.9566 31.906L26.2673 44.001L29.6278 40.6405L28.9566 31.906Z" fill="#6C7C8A"/><path opacity="0.7" d="M8.45989 28.2122C8.45989 28.2122 9.80227 29.2213 12.4915 28.8834C12.4915 28.8834 9.13108 32.2439 3.41919 28.2122H8.45989Z" fill="#6C7C8A"/><path opacity="0.7" d="M2.41045 31.906L5.09973 44.001L1.73926 40.6405L2.41045 31.906Z" fill="#6C7C8A"/><path opacity="0.7" d="M6.10894 53.416L7.78918 45.686L4.42871 51.0646L6.10894 53.416Z" fill="#6C7C8A"/><path opacity="0.7" d="M9.72152 56.3983L10.1404 46.3574L7.45117 54.4207C7.45117 54.4207 8.46021 56.7722 8.79356 56.7722C9.1269 56.7722 9.71701 56.3938 9.71701 56.3938L9.72152 56.3983Z" fill="#6C7C8A"/><path d="M30.5872 41.713V32.1767C32.344 29.8974 30.3394 26.199 30.3394 26.199C28.6502 20.5907 24.1365 18.2709 20.5689 15.523C21.4968 11.4778 23.096 7.21645 23.0915 7.28402L23.2446 6.76598L22.9158 6.33804C19.294 1.82889 16.9201 0.671193 15.902 0C15.8255 0.0405418 15.6903 0.112619 15.5191 0.22073C14.3524 0.936969 11.2037 3.16227 8.55946 6.76598L8.71262 7.28402C8.72163 7.25699 10.2802 11.3923 11.2172 15.4374L9.48742 16.514C6.92427 18.1087 2.1088 21.6403 0.969129 26.199C0.969129 26.199 -1.03544 29.8928 0.721372 32.1722V41.7085L2.298 43.3888L0.279918 47.3258L0.302439 47.5961C0.284421 48.8484 6.64498 57.8892 13.3434 60.9209V45.6771C13.411 45.7312 15.0371 47.006 15.5191 47.3844C15.6002 47.452 15.6543 47.4925 15.6543 47.4925C15.6408 47.506 17.8976 45.7267 17.9652 45.6771V60.9209C24.6861 57.8757 31.0422 48.8169 31.0061 47.5961L31.0287 47.3258L29.0106 43.3888L30.5872 41.7085V41.713ZM11.492 57.6235C10.3478 56.9207 9.29822 56.1099 8.34774 55.2585L9.80274 47.033L6.76211 53.7089C6.06839 52.9747 5.44675 52.2404 4.90619 51.5422L7.28464 46.1907L3.92418 50.2223C2.74396 48.5466 2.12232 47.3303 2.12232 47.3303L4.1404 42.6635L2.56377 40.9833V31.9154L6.10443 37.285L11.492 39.9788V57.628V57.6235ZM17.6003 35.821C17.6003 35.9516 17.5417 42.7401 17.5417 42.8707L15.6498 44.8032L15.5146 44.6636L13.7623 42.8707C13.7623 42.7176 13.7038 35.9696 13.7038 35.821C13.3749 35.5327 11.519 33.9065 11.1496 33.5867H7.45132C6.08641 33.3569 0.806961 31.01 2.42863 28.9243C4.22599 29.546 7.99187 30.6361 10.4784 29.8883C10.4784 29.8883 8.89731 29.6451 7.78466 29.0865C9.9514 29.118 15.3705 27.0864 15.5191 22.8341C10.2937 29.3253 3.30254 27.154 2.82505 26.4108C3.71697 23.2935 6.76211 20.6448 9.0865 19.0096L9.11353 18.9916C9.33877 18.8339 9.55499 18.6853 9.7622 18.5501L11.6902 17.2303L11.8298 17.1222C12.501 18.1312 13.3929 18.9826 15.1903 19.4736C15.1903 19.4736 13.8479 17.4555 13.5101 16.451L13.0461 14.4374C12.5236 11.3247 11.3568 8.73902 10.9154 7.21645C12.6632 5.04521 14.4741 3.56318 15.5282 2.78838C15.6678 2.68477 15.7984 2.59017 15.9111 2.51359C16.866 3.17578 18.9247 4.75691 20.9112 7.21645C20.4157 8.84713 18.8796 13.2076 18.2039 16.487C17.3886 17.942 16.2174 19.4736 16.2174 19.4736C17.9967 18.9871 19.1454 18.1943 19.8661 17.4961C21.5283 18.4375 27.2222 21.9466 28.497 26.4062C28.0195 27.154 21.0283 29.3208 15.8029 22.8296C15.9606 27.091 21.3617 29.1045 23.5374 29.082C22.4248 29.6406 20.8436 29.8838 20.8436 29.8838C23.3302 30.6271 27.0961 29.537 28.8934 28.9198C30.5106 31.0055 25.2312 33.3524 23.8708 33.5822H20.1769C19.7986 33.9155 17.9607 35.5192 17.6228 35.8165L17.6003 35.821ZM29.1772 47.3303C29.1772 47.3303 28.5556 48.5466 27.3754 50.2223L24.0149 46.1907L26.3934 51.5422C25.8483 52.2404 25.2267 52.9747 24.5374 53.7089L21.4968 47.033L22.9518 55.2585C22.0013 56.1099 20.9517 56.9207 19.8076 57.6235V39.9743L25.1951 37.2805L28.7358 31.9109V40.9788L27.1592 42.659L29.1772 47.3258V47.3303Z" fill="#1C1B35"/><path d="M17.4427 14.7167L17.1949 11.7481L15.6498 15.6131L14.1678 11.7481V14.7707L12.8029 13.2211L12.5461 12.9599L13.411 16.505L14.7714 18.8609C14.7985 18.9015 14.8345 18.942 14.8525 18.9781L15.4336 20.0096L15.5147 20.1448H15.8481L16.6093 18.9195C17.0238 18.3429 17.6769 17.4014 18.1905 16.487C18.3842 15.5545 18.9427 14.0995 19.231 12.9238L17.4427 14.7122V14.7167Z" fill="url(#paint7_linear_206_1572)"/><path d="M9.98322 35.5551H8.69489L7.1543 35.2127L8.18136 35.9289L9.1003 36.5686L11.1815 37.6092V36.456L9.98322 35.5551Z" fill="url(#paint8_linear_206_1572)"/><path d="M21.3257 35.7397H22.614L24.1546 35.3973L23.123 36.1136L22.2086 36.7532L20.1274 37.7938V36.6406L21.3257 35.7397Z" fill="url(#paint9_linear_206_1572)"/><defs><linearGradient id="paint0_linear_206_1572" x1="22.3662" y1="18.802" x2="9.49193" y2="41.1" gradientUnits="userSpaceOnUse"><stop stop-color="#F2F2F2"/><stop offset="1" stop-color="#9FACBC"/></linearGradient><linearGradient id="paint1_linear_206_1572" x1="24.8935" y1="20.4056" x2="12.0192" y2="42.7036" gradientUnits="userSpaceOnUse"><stop stop-color="#F2F2F2"/><stop offset="1" stop-color="#9FACBC"/></linearGradient><linearGradient id="paint2_linear_206_1572" x1="10.902" y1="9.31076" x2="21.3438" y2="9.31076" gradientUnits="userSpaceOnUse"><stop stop-color="#FD9D05"/><stop offset="1" stop-color="#FD6A07"/></linearGradient><linearGradient id="paint3_linear_206_1572" x1="12.9787" y1="17.789" x2="6.67665" y2="28.6993" gradientUnits="userSpaceOnUse"><stop stop-color="#F2F2F2"/><stop offset="1" stop-color="#9FACBC"/></linearGradient><linearGradient id="paint4_linear_206_1572" x1="30.6457" y1="33.0144" x2="17.2804" y2="56.1637" gradientUnits="userSpaceOnUse"><stop stop-color="#F2F2F2"/><stop offset="1" stop-color="#9FACBC"/></linearGradient><linearGradient id="paint5_linear_206_1572" x1="16.6453" y1="23.4873" x2="7.1945" y2="39.8617" gradientUnits="userSpaceOnUse"><stop stop-color="#F2F2F2"/><stop offset="1" stop-color="#9FACBC"/></linearGradient><linearGradient id="paint6_linear_206_1572" x1="11.4826" y1="37.0594" x2="2.58144" y2="52.4788" gradientUnits="userSpaceOnUse"><stop stop-color="#F2F2F2"/><stop offset="1" stop-color="#9FACBC"/></linearGradient><linearGradient id="paint7_linear_206_1572" x1="15.8931" y1="11.7481" x2="15.8931" y2="20.1448" gradientUnits="userSpaceOnUse"><stop stop-color="#DB3541"/><stop offset="1" stop-color="#DB451E"/></linearGradient><linearGradient id="paint8_linear_206_1572" x1="7.1543" y1="36.4109" x2="11.1815" y2="36.4109" gradientUnits="userSpaceOnUse"><stop stop-color="#FD9D05"/><stop offset="1" stop-color="#FD6A07"/></linearGradient><linearGradient id="paint9_linear_206_1572" x1="20.1274" y1="36.5956" x2="24.1546" y2="36.5956" gradientUnits="userSpaceOnUse"><stop stop-color="#FD9D05"/><stop offset="1" stop-color="#FD6A07"/></linearGradient></defs></svg>