<svg width="254" height="94" viewBox="0 0 254 94" fill="none" xmlns="http://www.w3.org/2000/svg"><mask id="path-1-outside-1_206_1864" maskUnits="userSpaceOnUse" x="4" y="6.59033" width="250" height="41" fill="black"><rect fill="white" x="4" y="6.59033" width="250" height="41"/><path d="M32.5103 43.4803L30.1516 45.3303L15.5364 27.0152L8.94572 33.2127V44.6366H5.89319V9.67124H8.94572V29.1196L30.3366 8.95436L32.5566 11.0588L17.7564 24.9801L32.5103 43.4803ZM67.9844 43.966L65.2325 45.1453L60.7 34.0684H45.1598L40.6273 45.1453L37.8754 43.966L51.8893 9.32436H53.9937L67.9844 43.966ZM59.5437 31.1315L52.953 14.805L46.3392 31.1315H59.5437ZM106.904 10.0412L98.1397 44.6366H95.5266L88.5427 17.0482L81.5589 44.6366H78.9458L70.1813 10.0412L73.1876 9.34749L80.2408 37.2828L87.2477 9.67124H89.8609L96.8216 37.2596L103.898 9.34749L106.904 10.0412ZM139.164 43.966L136.412 45.1453L131.879 34.0684H116.339L111.807 45.1453L109.055 43.966L123.069 9.32436H125.173L139.164 43.966ZM130.723 31.1315L124.132 14.805L117.519 31.1315H130.723ZM147.975 44.6366H144.922V9.67124H147.975V44.6366ZM185.53 35.4327L183.287 39.734L179.61 43.2028L175.748 44.9835H168.371L164.532 43.2028L160.832 39.734L159.075 36.2884L157.271 31.2702V23.0376L159.075 18.0194L160.832 14.5738L164.532 11.1281L168.371 9.32436H175.748L179.61 11.1281L183.287 14.5738L185.53 18.8751L182.847 20.2626L180.743 16.3544L177.783 13.5563L175.008 12.2381H169.134L166.336 13.5563L163.399 16.3544L161.85 19.1526L160.347 23.477V30.8308L161.85 35.1552L163.399 37.9534L166.336 40.7515L169.134 42.0697H175.008L177.783 40.7515L180.743 37.9534L182.847 34.0452L185.53 35.4327ZM226.022 43.966L223.27 45.1453L218.738 34.0684H203.198L198.665 45.1453L195.913 43.966L209.927 9.32436H212.031L226.022 43.966ZM217.582 31.1315L210.991 14.805L204.377 31.1315H217.582ZM252.709 12.2381H241.47V44.6366H238.394V12.2381H227.178V9.32436H252.709V12.2381Z"/></mask><path d="M32.5103 43.4803L30.1516 45.3303L15.5364 27.0152L8.94572 33.2127V44.6366H5.89319V9.67124H8.94572V29.1196L30.3366 8.95436L32.5566 11.0588L17.7564 24.9801L32.5103 43.4803ZM67.9844 43.966L65.2325 45.1453L60.7 34.0684H45.1598L40.6273 45.1453L37.8754 43.966L51.8893 9.32436H53.9937L67.9844 43.966ZM59.5437 31.1315L52.953 14.805L46.3392 31.1315H59.5437ZM106.904 10.0412L98.1397 44.6366H95.5266L88.5427 17.0482L81.5589 44.6366H78.9458L70.1813 10.0412L73.1876 9.34749L80.2408 37.2828L87.2477 9.67124H89.8609L96.8216 37.2596L103.898 9.34749L106.904 10.0412ZM139.164 43.966L136.412 45.1453L131.879 34.0684H116.339L111.807 45.1453L109.055 43.966L123.069 9.32436H125.173L139.164 43.966ZM130.723 31.1315L124.132 14.805L117.519 31.1315H130.723ZM147.975 44.6366H144.922V9.67124H147.975V44.6366ZM185.53 35.4327L183.287 39.734L179.61 43.2028L175.748 44.9835H168.371L164.532 43.2028L160.832 39.734L159.075 36.2884L157.271 31.2702V23.0376L159.075 18.0194L160.832 14.5738L164.532 11.1281L168.371 9.32436H175.748L179.61 11.1281L183.287 14.5738L185.53 18.8751L182.847 20.2626L180.743 16.3544L177.783 13.5563L175.008 12.2381H169.134L166.336 13.5563L163.399 16.3544L161.85 19.1526L160.347 23.477V30.8308L161.85 35.1552L163.399 37.9534L166.336 40.7515L169.134 42.0697H175.008L177.783 40.7515L180.743 37.9534L182.847 34.0452L185.53 35.4327ZM226.022 43.966L223.27 45.1453L218.738 34.0684H203.198L198.665 45.1453L195.913 43.966L209.927 9.32436H212.031L226.022 43.966ZM217.582 31.1315L210.991 14.805L204.377 31.1315H217.582ZM252.709 12.2381H241.47V44.6366H238.394V12.2381H227.178V9.32436H252.709V12.2381Z" fill="white"/><path d="M32.5103 43.4803L33.1275 44.2672L33.9207 43.645L33.2921 42.8568L32.5103 43.4803ZM30.1516 45.3303L29.3699 45.9541L29.9884 46.7292L30.7687 46.1172L30.1516 45.3303ZM15.5364 27.0152L16.3181 26.3914L15.6415 25.5436L14.8514 26.2867L15.5364 27.0152ZM8.94572 33.2127L8.26068 32.4842L7.94572 32.7804V33.2127H8.94572ZM8.94572 44.6366V45.6366H9.94572V44.6366H8.94572ZM5.89319 44.6366H4.89319V45.6366H5.89319V44.6366ZM5.89319 9.67124V8.67124H4.89319V9.67124H5.89319ZM8.94572 9.67124H9.94572V8.67124H8.94572V9.67124ZM8.94572 29.1196H7.94572V31.4366L9.63168 29.8472L8.94572 29.1196ZM30.3366 8.95436L31.0245 8.22861L30.3384 7.57828L29.6506 8.22671L30.3366 8.95436ZM32.5566 11.0588L33.2417 11.7872L34.0131 11.0616L33.2445 10.333L32.5566 11.0588ZM17.7564 24.9801L17.0713 24.2517L16.4 24.8831L16.9746 25.6036L17.7564 24.9801ZM31.8932 42.6935L29.5344 44.5435L30.7687 46.1172L33.1275 44.2672L31.8932 42.6935ZM30.9332 44.7066L16.3181 26.3914L14.7548 27.6389L29.3699 45.9541L30.9332 44.7066ZM14.8514 26.2867L8.26068 32.4842L9.63077 33.9412L16.2215 27.7437L14.8514 26.2867ZM7.94572 33.2127V44.6366H9.94572V33.2127H7.94572ZM8.94572 43.6366H5.89319V45.6366H8.94572V43.6366ZM6.89319 44.6366V9.67124H4.89319V44.6366H6.89319ZM5.89319 10.6712H8.94572V8.67124H5.89319V10.6712ZM7.94572 9.67124V29.1196H9.94572V9.67124H7.94572ZM9.63168 29.8472L31.0225 9.682L29.6506 8.22671L8.25977 28.3919L9.63168 29.8472ZM29.6486 9.68011L31.8686 11.7845L33.2445 10.333L31.0245 8.22861L29.6486 9.68011ZM31.8714 10.3304L17.0713 24.2517L18.4416 25.7085L33.2417 11.7872L31.8714 10.3304ZM16.9746 25.6036L31.7285 44.1038L33.2921 42.8568L18.5383 24.3566L16.9746 25.6036ZM67.9844 43.966L68.3783 44.8851L69.2783 44.4994L68.9117 43.5915L67.9844 43.966ZM65.2325 45.1453L64.307 45.524L64.692 46.465L65.6264 46.0645L65.2325 45.1453ZM60.7 34.0684L61.6255 33.6896L61.3713 33.0684H60.7V34.0684ZM45.1598 34.0684V33.0684H44.4885L44.2343 33.6896L45.1598 34.0684ZM40.6273 45.1453L40.2334 46.0645L41.1678 46.465L41.5528 45.524L40.6273 45.1453ZM37.8754 43.966L36.9484 43.5909L36.5809 44.4992L37.4815 44.8851L37.8754 43.966ZM51.8893 9.32436V8.32436H51.2151L50.9622 8.94935L51.8893 9.32436ZM53.9937 9.32436L54.9209 8.94988L54.6683 8.32436H53.9937V9.32436ZM59.5437 31.1315V32.1315H61.0258L60.471 30.7571L59.5437 31.1315ZM52.953 14.805L53.8803 14.4307L52.9547 12.1376L52.0262 14.4296L52.953 14.805ZM46.3392 31.1315L45.4124 30.756L44.8552 32.1315H46.3392V31.1315ZM67.5905 43.0468L64.8386 44.2262L65.6264 46.0645L68.3783 44.8851L67.5905 43.0468ZM66.158 44.7666L61.6255 33.6896L59.7745 34.4471L64.307 45.524L66.158 44.7666ZM60.7 33.0684H45.1598V35.0684H60.7V33.0684ZM44.2343 33.6896L39.7018 44.7666L41.5528 45.524L46.0853 34.4471L44.2343 33.6896ZM41.0212 44.2262L38.2693 43.0468L37.4815 44.8851L40.2334 46.0645L41.0212 44.2262ZM38.8024 44.341L52.8163 9.69938L50.9622 8.94935L36.9484 43.5909L38.8024 44.341ZM51.8893 10.3244H53.9937V8.32436H51.8893V10.3244ZM53.0664 9.69885L67.0572 44.3404L68.9117 43.5915L54.9209 8.94988L53.0664 9.69885ZM60.471 30.7571L53.8803 14.4307L52.0257 15.1794L58.6164 31.5058L60.471 30.7571ZM52.0262 14.4296L45.4124 30.756L47.266 31.5069L53.8799 15.1805L52.0262 14.4296ZM46.3392 32.1315H59.5437V30.1315H46.3392V32.1315ZM106.904 10.0412L107.874 10.2868L108.124 9.29656L107.129 9.06685L106.904 10.0412ZM98.1397 44.6366V45.6366H98.918L99.1091 44.8822L98.1397 44.6366ZM95.5266 44.6366L94.5571 44.882L94.7482 45.6366H95.5266V44.6366ZM88.5427 17.0482L89.5122 16.8028H87.5733L88.5427 17.0482ZM81.5589 44.6366V45.6366H82.3373L82.5284 44.882L81.5589 44.6366ZM78.9458 44.6366L77.9764 44.8822L78.1675 45.6366H78.9458V44.6366ZM70.1813 10.0412L69.9565 9.06685L68.9611 9.29656L69.2119 10.2868L70.1813 10.0412ZM73.1876 9.34749L74.1572 9.10269L73.9173 8.1528L72.9627 8.3731L73.1876 9.34749ZM80.2408 37.2828L79.2712 37.5276L81.2101 37.5287L80.2408 37.2828ZM87.2477 9.67124V8.67124H86.4698L86.2785 9.42527L87.2477 9.67124ZM89.8609 9.67124L90.8305 9.4266L90.6399 8.67124H89.8609V9.67124ZM96.8216 37.2596L95.852 37.5043L97.7909 37.5054L96.8216 37.2596ZM103.898 9.34749L104.123 8.3731L103.169 8.15302L102.929 9.10174L103.898 9.34749ZM105.935 9.79566L97.1703 44.391L99.1091 44.8822L107.874 10.2868L105.935 9.79566ZM98.1397 43.6366H95.5266V45.6366H98.1397V43.6366ZM96.496 44.3912L89.5122 16.8028L87.5733 17.2936L94.5571 44.882L96.496 44.3912ZM87.5733 16.8028L80.5895 44.3912L82.5284 44.882L89.5122 17.2936L87.5733 16.8028ZM81.5589 43.6366H78.9458V45.6366H81.5589V43.6366ZM79.9152 44.391L71.1507 9.79566L69.2119 10.2868L77.9764 44.8822L79.9152 44.391ZM70.4062 11.0156L73.4125 10.3219L72.9627 8.3731L69.9565 9.06685L70.4062 11.0156ZM72.218 9.59229L79.2712 37.5276L81.2104 37.038L74.1572 9.10269L72.218 9.59229ZM81.2101 37.5287L88.217 9.91721L86.2785 9.42527L79.2715 37.0368L81.2101 37.5287ZM87.2477 10.6712H89.8609V8.67124H87.2477V10.6712ZM88.8913 9.91588L95.852 37.5043L97.7912 37.015L90.8305 9.4266L88.8913 9.91588ZM97.7909 37.5054L104.867 9.59324L102.929 9.10174L95.8522 37.0139L97.7909 37.5054ZM103.673 10.3219L106.679 11.0156L107.129 9.06685L104.123 8.3731L103.673 10.3219ZM139.164 43.966L139.558 44.8851L140.458 44.4994L140.091 43.5915L139.164 43.966ZM136.412 45.1453L135.486 45.524L135.871 46.465L136.806 46.0645L136.412 45.1453ZM131.879 34.0684L132.805 33.6896L132.551 33.0684H131.879V34.0684ZM116.339 34.0684V33.0684H115.668L115.414 33.6896L116.339 34.0684ZM111.807 45.1453L111.413 46.0645L112.347 46.465L112.732 45.524L111.807 45.1453ZM109.055 43.966L108.128 43.5909L107.76 44.4992L108.661 44.8851L109.055 43.966ZM123.069 9.32436V8.32436H122.395L122.142 8.94935L123.069 9.32436ZM125.173 9.32436L126.1 8.94988L125.848 8.32436H125.173V9.32436ZM130.723 31.1315V32.1315H132.205L131.65 30.7571L130.723 31.1315ZM124.132 14.805L125.06 14.4307L124.134 12.1376L123.206 14.4296L124.132 14.805ZM117.519 31.1315L116.592 30.756L116.035 32.1315H117.519V31.1315ZM138.77 43.0468L136.018 44.2262L136.806 46.0645L139.558 44.8851L138.77 43.0468ZM137.337 44.7666L132.805 33.6896L130.954 34.4471L135.486 45.524L137.337 44.7666ZM131.879 33.0684H116.339V35.0684H131.879V33.0684ZM115.414 33.6896L110.881 44.7666L112.732 45.524L117.265 34.4471L115.414 33.6896ZM112.201 44.2262L109.449 43.0468L108.661 44.8851L111.413 46.0645L112.201 44.2262ZM109.982 44.341L123.996 9.69938L122.142 8.94935L108.128 43.5909L109.982 44.341ZM123.069 10.3244H125.173V8.32436H123.069V10.3244ZM124.246 9.69885L138.237 44.3404L140.091 43.5915L126.1 8.94988L124.246 9.69885ZM131.65 30.7571L125.06 14.4307L123.205 15.1794L129.796 31.5058L131.65 30.7571ZM123.206 14.4296L116.592 30.756L118.445 31.5069L125.059 15.1805L123.206 14.4296ZM117.519 32.1315H130.723V30.1315H117.519V32.1315ZM147.975 44.6366V45.6366H148.975V44.6366H147.975ZM144.922 44.6366H143.922V45.6366H144.922V44.6366ZM144.922 9.67124V8.67124H143.922V9.67124H144.922ZM147.975 9.67124H148.975V8.67124H147.975V9.67124ZM147.975 43.6366H144.922V45.6366H147.975V43.6366ZM145.922 44.6366V9.67124H143.922V44.6366H145.922ZM144.922 10.6712H147.975V8.67124H144.922V10.6712ZM146.975 9.67124V44.6366H148.975V9.67124H146.975ZM185.53 35.4327L186.417 35.8951L186.881 35.0055L185.989 34.5445L185.53 35.4327ZM183.287 39.734L183.973 40.4614L184.096 40.3458L184.173 40.1964L183.287 39.734ZM179.61 43.2028L180.029 44.1109L180.177 44.0424L180.296 43.9302L179.61 43.2028ZM175.748 44.9835V45.9835H175.967L176.167 45.8916L175.748 44.9835ZM168.371 44.9835L167.95 45.8906L168.15 45.9835H168.371V44.9835ZM164.532 43.2028L163.848 43.9324L163.966 44.0423L164.111 44.11L164.532 43.2028ZM160.832 39.734L159.941 40.1884L160.021 40.3441L160.148 40.4636L160.832 39.734ZM159.075 36.2884L158.134 36.6266L158.155 36.6863L158.184 36.7427L159.075 36.2884ZM157.271 31.2702H156.271V31.4445L156.33 31.6085L157.271 31.2702ZM157.271 23.0376L156.33 22.6994L156.271 22.8634V23.0376H157.271ZM159.075 18.0194L158.184 17.5651L158.155 17.6215L158.134 17.6812L159.075 18.0194ZM160.832 14.5738L160.151 13.842L160.022 13.9622L159.941 14.1194L160.832 14.5738ZM164.532 11.1281L164.107 10.2231L163.965 10.2896L163.851 10.3963L164.532 11.1281ZM168.371 9.32436V8.32436H168.148L167.946 8.4193L168.371 9.32436ZM175.748 9.32436L176.171 8.41832L175.97 8.32436H175.748V9.32436ZM179.61 11.1281L180.294 10.3984L180.177 10.2895L180.033 10.2221L179.61 11.1281ZM183.287 14.5738L184.173 14.1114L184.095 13.9605L183.971 13.8441L183.287 14.5738ZM185.53 18.8751L185.989 19.7633L186.881 19.3023L186.417 18.4127L185.53 18.8751ZM182.847 20.2626L181.967 20.7367L182.433 21.6027L183.307 21.1508L182.847 20.2626ZM180.743 16.3544L181.624 15.8803L181.547 15.7384L181.43 15.6277L180.743 16.3544ZM177.783 13.5563L178.47 12.8296L178.355 12.7209L178.212 12.653L177.783 13.5563ZM175.008 12.2381L175.437 11.3349L175.233 11.2381H175.008V12.2381ZM169.134 12.2381V11.2381H168.91L168.708 11.3335L169.134 12.2381ZM166.336 13.5563L165.91 12.6516L165.763 12.7206L165.646 12.8323L166.336 13.5563ZM163.399 16.3544L162.709 15.6304L162.598 15.7361L162.524 15.87L163.399 16.3544ZM161.85 19.1526L160.975 18.6682L160.933 18.7432L160.905 18.8243L161.85 19.1526ZM160.347 23.477L159.402 23.1487L159.347 23.3082V23.477H160.347ZM160.347 30.8308H159.347V30.9997L159.402 31.1591L160.347 30.8308ZM161.85 35.1552L160.905 35.4836L160.933 35.5646L160.975 35.6397L161.85 35.1552ZM163.399 37.9534L162.524 38.4378L162.598 38.5718L162.709 38.6774L163.399 37.9534ZM166.336 40.7515L165.646 41.4755L165.763 41.5872L165.91 41.6562L166.336 40.7515ZM169.134 42.0697L168.708 42.9743L168.91 43.0697H169.134V42.0697ZM175.008 42.0697V43.0697H175.233L175.437 42.973L175.008 42.0697ZM177.783 40.7515L178.212 41.6548L178.355 41.5869L178.47 41.4782L177.783 40.7515ZM180.743 37.9534L181.43 38.6801L181.547 38.5694L181.624 38.4275L180.743 37.9534ZM182.847 34.0452L183.307 33.157L182.433 32.7052L181.967 33.5711L182.847 34.0452ZM184.643 34.9703L182.4 39.2716L184.173 40.1964L186.417 35.8951L184.643 34.9703ZM182.601 39.0066L178.924 42.4754L180.296 43.9302L183.973 40.4614L182.601 39.0066ZM179.191 42.2947L175.329 44.0753L176.167 45.8916L180.029 44.1109L179.191 42.2947ZM175.748 43.9835H168.371V45.9835H175.748V43.9835ZM168.792 44.0763L164.953 42.2957L164.111 44.11L167.95 45.8906L168.792 44.0763ZM165.216 42.4733L161.516 39.0045L160.148 40.4636L163.848 43.9324L165.216 42.4733ZM161.723 39.2797L159.965 35.834L158.184 36.7427L159.941 40.1884L161.723 39.2797ZM160.016 35.9501L158.212 30.9319L156.33 31.6085L158.134 36.6266L160.016 35.9501ZM158.271 31.2702V23.0376H156.271V31.2702H158.271ZM158.212 23.3759L160.016 18.3577L158.134 17.6812L156.33 22.6994L158.212 23.3759ZM159.965 18.4738L161.723 15.0282L159.941 14.1194L158.184 17.5651L159.965 18.4738ZM161.514 15.3056L165.214 11.8599L163.851 10.3963L160.151 13.842L161.514 15.3056ZM164.958 12.0332L168.796 10.2294L167.946 8.4193L164.107 10.2231L164.958 12.0332ZM168.371 10.3244H175.748V8.32436H168.371V10.3244ZM175.325 10.2304L179.187 12.0342L180.033 10.2221L176.171 8.41832L175.325 10.2304ZM178.926 11.8578L182.603 15.3035L183.971 13.8441L180.294 10.3984L178.926 11.8578ZM182.4 15.0362L184.643 19.3375L186.417 18.4127L184.173 14.1114L182.4 15.0362ZM185.071 17.9869L182.388 19.3744L183.307 21.1508L185.989 19.7633L185.071 17.9869ZM183.728 19.7885L181.624 15.8803L179.863 16.8285L181.967 20.7367L183.728 19.7885ZM181.43 15.6277L178.47 12.8296L177.096 14.283L180.056 17.0811L181.43 15.6277ZM178.212 12.653L175.437 11.3349L174.579 13.1414L177.354 14.4596L178.212 12.653ZM175.008 11.2381H169.134V13.2381H175.008V11.2381ZM168.708 11.3335L165.91 12.6516L166.762 14.4609L169.56 13.1428L168.708 11.3335ZM165.646 12.8323L162.709 15.6304L164.089 17.0784L167.026 14.2803L165.646 12.8323ZM162.524 15.87L160.975 18.6682L162.725 19.637L164.274 16.8388L162.524 15.87ZM160.905 18.8243L159.402 23.1487L161.291 23.8053L162.794 19.4809L160.905 18.8243ZM159.347 23.477V30.8308H161.347V23.477H159.347ZM159.402 31.1591L160.905 35.4836L162.794 34.8269L161.291 30.5025L159.402 31.1591ZM160.975 35.6397L162.524 38.4378L164.274 37.469L162.725 34.6708L160.975 35.6397ZM162.709 38.6774L165.646 41.4755L167.026 40.0275L164.089 37.2294L162.709 38.6774ZM165.91 41.6562L168.708 42.9743L169.56 41.165L166.762 39.8469L165.91 41.6562ZM169.134 43.0697H175.008V41.0697H169.134V43.0697ZM175.437 42.973L178.212 41.6548L177.354 39.8483L174.579 41.1664L175.437 42.973ZM178.47 41.4782L181.43 38.6801L180.056 37.2267L177.096 40.0248L178.47 41.4782ZM181.624 38.4275L183.728 34.5193L181.967 33.5711L179.863 37.4793L181.624 38.4275ZM182.388 34.9334L185.071 36.321L185.989 34.5445L183.307 33.157L182.388 34.9334ZM226.022 43.966L226.416 44.8851L227.316 44.4994L226.949 43.5915L226.022 43.966ZM223.27 45.1453L222.345 45.524L222.73 46.465L223.664 46.0645L223.27 45.1453ZM218.738 34.0684L219.663 33.6896L219.409 33.0684H218.738V34.0684ZM203.198 34.0684V33.0684H202.526L202.272 33.6896L203.198 34.0684ZM198.665 45.1453L198.271 46.0645L199.206 46.465L199.591 45.524L198.665 45.1453ZM195.913 43.966L194.986 43.5909L194.619 44.4992L195.519 44.8851L195.913 43.966ZM209.927 9.32436V8.32436H209.253L209 8.94935L209.927 9.32436ZM212.031 9.32436L212.959 8.94988L212.706 8.32436H212.031V9.32436ZM217.581 31.1315V32.1315H219.064L218.509 30.7571L217.581 31.1315ZM210.991 14.805L211.918 14.4307L210.992 12.1376L210.064 14.4296L210.991 14.805ZM204.377 31.1315L203.45 30.756L202.893 32.1315H204.377V31.1315ZM225.628 43.0468L222.876 44.2262L223.664 46.0645L226.416 44.8851L225.628 43.0468ZM224.196 44.7666L219.663 33.6896L217.812 34.4471L222.345 45.524L224.196 44.7666ZM218.738 33.0684H203.198V35.0684H218.738V33.0684ZM202.272 33.6896L197.74 44.7666L199.591 45.524L204.123 34.4471L202.272 33.6896ZM199.059 44.2262L196.307 43.0468L195.519 44.8851L198.271 46.0645L199.059 44.2262ZM196.84 44.341L210.854 9.69938L209 8.94935L194.986 43.5909L196.84 44.341ZM209.927 10.3244H212.031V8.32436H209.927V10.3244ZM211.104 9.69885L225.095 44.3404L226.949 43.5915L212.959 8.94988L211.104 9.69885ZM218.509 30.7571L211.918 14.4307L210.064 15.1794L216.654 31.5058L218.509 30.7571ZM210.064 14.4296L203.45 30.756L205.304 31.5069L211.918 15.1805L210.064 14.4296ZM204.377 32.1315H217.581V30.1315H204.377V32.1315ZM252.709 12.2381V13.2381H253.709V12.2381H252.709ZM241.47 12.2381V11.2381H240.47V12.2381H241.47ZM241.47 44.6366V45.6366H242.47V44.6366H241.47ZM238.394 44.6366H237.394V45.6366H238.394V44.6366ZM238.394 12.2381H239.394V11.2381H238.394V12.2381ZM227.178 12.2381H226.178V13.2381H227.178V12.2381ZM227.178 9.32436V8.32436H226.178V9.32436H227.178ZM252.709 9.32436H253.709V8.32436H252.709V9.32436ZM252.709 11.2381H241.47V13.2381H252.709V11.2381ZM240.47 12.2381V44.6366H242.47V12.2381H240.47ZM241.47 43.6366H238.394V45.6366H241.47V43.6366ZM239.394 44.6366V12.2381H237.394V44.6366H239.394ZM238.394 11.2381H227.178V13.2381H238.394V11.2381ZM228.178 12.2381V9.32436H226.178V12.2381H228.178ZM227.178 10.3244H252.709V8.32436H227.178V10.3244ZM251.709 9.32436V12.2381H253.709V9.32436H251.709Z" fill="white" mask="url(#path-1-outside-1_206_1864)"/><path d="M4.49626 83.2476C4.21452 83.2476 4.07365 83.1067 4.07365 82.8249V60.9138C4.07365 60.632 4.21452 60.4911 4.49626 60.4911H5.40652C5.64492 60.4911 5.80747 60.5995 5.89416 60.8162L15.0943 82.1097L24.2943 60.8162C24.381 60.5995 24.5544 60.4911 24.8145 60.4911H25.6922C25.974 60.4911 26.1149 60.632 26.1149 60.9138V82.8249C26.1149 83.1067 25.974 83.2476 25.6922 83.2476H25.3997C25.0962 83.2476 24.9445 83.1067 24.9445 82.8249V61.8565L24.4244 63.3845L15.972 82.9225C15.8853 83.1392 15.7119 83.2476 15.4519 83.2476H14.7692C14.5091 83.2476 14.3357 83.1392 14.249 82.9225L5.79663 63.3845L5.24398 61.8565V82.8249C5.24398 83.1067 5.1031 83.2476 4.82136 83.2476H4.49626ZM32.7513 83.2476C32.4696 83.2476 32.3287 83.1067 32.3287 82.8249V60.9138C32.3287 60.632 32.4696 60.4911 32.7513 60.4911H43.2843C43.566 60.4911 43.7069 60.632 43.7069 60.9138V61.1413C43.7069 61.4447 43.566 61.5965 43.2843 61.5965H33.499V70.8291H42.7966C43.0784 70.8291 43.2192 70.9699 43.2192 71.2517V71.4792C43.2192 71.7827 43.0784 71.9344 42.7966 71.9344H33.499V82.1422H43.3168C43.6202 82.1422 43.7719 82.294 43.7719 82.5974V82.8249C43.7719 83.1067 43.6202 83.2476 43.3168 83.2476H32.7513ZM59.5985 83.6702C56.2392 83.6702 53.4868 82.554 51.3412 80.3217C49.2173 78.0678 48.1553 75.2828 48.1553 71.9669C48.1553 68.6509 49.2173 65.866 51.3412 63.612C53.4868 61.3581 56.2392 60.2311 59.5985 60.2311C62.4377 60.2311 64.9409 61.1413 67.1081 62.9618C67.4332 63.2869 67.4874 63.5578 67.2707 63.7746L67.1407 63.9696C66.9239 64.1647 66.6747 64.1538 66.3929 63.9371C64.399 62.225 62.1559 61.3689 59.6635 61.3689C56.6944 61.3689 54.2345 62.3767 52.284 64.3922C50.3334 66.3861 49.3581 68.911 49.3581 71.9669C49.3581 75.0227 50.3334 77.5476 52.284 79.5415C54.2345 81.5354 56.6944 82.5324 59.6635 82.5324C62.1559 82.5324 64.399 81.6763 66.3929 79.9641C66.6747 79.7474 66.9023 79.7257 67.0756 79.8991L67.2707 80.1267C67.4874 80.3434 67.4332 80.6143 67.1081 80.9394C64.9409 82.7599 62.4377 83.6702 59.5985 83.6702ZM77.8522 83.2476C77.5704 83.2476 77.4296 83.1067 77.4296 82.8249V61.5965H72.2931C72.0114 61.5965 71.8705 61.4447 71.8705 61.1413V60.9138C71.8705 60.632 72.0114 60.4911 72.2931 60.4911H83.7038C83.9856 60.4911 84.1264 60.632 84.1264 60.9138V61.1413C84.1264 61.4447 83.9856 61.5965 83.7038 61.5965H78.5999V82.8249C78.5999 83.1067 78.4482 83.2476 78.1448 83.2476H77.8522ZM98.6832 83.6702C95.3889 83.6702 92.6256 82.5432 90.3933 80.2892C88.1827 78.0353 87.0774 75.2611 87.0774 71.9669C87.0774 68.6509 88.1827 65.866 90.3933 63.612C92.6256 61.3581 95.3889 60.2311 98.6832 60.2311C101.956 60.2311 104.697 61.3581 106.908 63.612C109.14 65.866 110.256 68.6509 110.256 71.9669C110.256 75.2611 109.14 78.0353 106.908 80.2892C104.697 82.5432 101.956 83.6702 98.6832 83.6702ZM91.2386 79.509C93.2325 81.5246 95.714 82.5324 98.6832 82.5324C101.652 82.5324 104.123 81.5246 106.095 79.509C108.089 77.4934 109.086 74.9794 109.086 71.9669C109.086 68.9327 108.089 66.4078 106.095 64.3922C104.123 62.3767 101.652 61.3689 98.6832 61.3689C95.714 61.3689 93.2325 62.3767 91.2386 64.3922C89.2664 66.4078 88.2802 68.9327 88.2802 71.9669C88.2802 74.9794 89.2664 77.4934 91.2386 79.509ZM122.85 83.2476C122.568 83.2476 122.427 83.1067 122.427 82.8249V60.9138C122.427 60.632 122.568 60.4911 122.85 60.4911H132.895C133.22 60.4911 133.383 60.6537 133.383 60.9788V61.2063C133.383 61.5314 133.22 61.694 132.895 61.694H123.598V82.8249C123.598 83.1067 123.457 83.2476 123.175 83.2476H122.85ZM154.039 82.0447C154.364 82.0447 154.526 82.2073 154.526 82.5324V85.0031C154.526 85.3281 154.364 85.4907 154.039 85.4907H153.811C153.486 85.4907 153.323 85.3281 153.323 85.0031V83.2476H136.029V85.0031C136.029 85.3281 135.866 85.4907 135.541 85.4907H135.346C135.021 85.4907 134.858 85.3281 134.858 85.0031V82.5324C134.858 82.2073 135.021 82.0447 135.346 82.0447H135.801C137.101 82.0447 137.947 81.6871 138.337 80.9719C138.749 80.2567 138.954 79.0105 138.954 77.2334V60.9788C138.954 60.6537 139.117 60.4911 139.442 60.4911H153.258C153.54 60.4911 153.681 60.632 153.681 60.9138V82.0447H154.039ZM140.125 78.1436C140.125 79.9208 139.756 81.2212 139.019 82.0447H152.511V61.6615H140.125V78.1436ZM159.2 83.2476C158.919 83.2476 158.778 83.1067 158.778 82.8249V60.9138C158.778 60.632 158.919 60.4911 159.2 60.4911H169.733C170.015 60.4911 170.156 60.632 170.156 60.9138V61.1413C170.156 61.4447 170.015 61.5965 169.733 61.5965H159.948V70.8291H169.246C169.528 70.8291 169.668 70.9699 169.668 71.2517V71.4792C169.668 71.7827 169.528 71.9344 169.246 71.9344H159.948V82.1422H169.766C170.069 82.1422 170.221 82.294 170.221 82.5974V82.8249C170.221 83.1067 170.069 83.2476 169.766 83.2476H159.2ZM197.898 82.0447C198.18 82.0447 198.32 82.1856 198.32 82.4673V85.0681C198.32 85.3498 198.18 85.4907 197.898 85.4907H197.573C197.291 85.4907 197.15 85.3498 197.15 85.0681V83.2476H183.106C182.824 83.2476 182.684 83.1067 182.684 82.8249V60.9138C182.684 60.632 182.824 60.4911 183.106 60.4911H183.431C183.713 60.4911 183.854 60.632 183.854 60.9138V82.0447H196.012V60.9138C196.012 60.632 196.164 60.4911 196.467 60.4911H196.76C197.042 60.4911 197.183 60.632 197.183 60.9138V82.0447H197.898ZM203.043 83.2476C202.762 83.2476 202.621 83.1067 202.621 82.8249V60.9138C202.621 60.632 202.762 60.4911 203.043 60.4911H209.025C210.174 60.4911 211.16 60.6537 211.983 60.9788C212.829 61.2822 213.468 61.7048 213.901 62.2466C214.335 62.7885 214.649 63.352 214.844 63.9371C215.039 64.5223 215.137 65.1508 215.137 65.8226C215.137 66.9496 214.855 67.9791 214.292 68.911C213.75 69.8213 212.872 70.4606 211.658 70.8291C213.24 71.1758 214.432 71.9127 215.234 73.0397C216.036 74.1667 216.437 75.4779 216.437 76.9733C216.437 78.8588 215.798 80.3759 214.519 81.5246C213.262 82.6732 211.442 83.2476 209.058 83.2476H203.043ZM203.791 70.3739H209.188C210.64 70.3739 211.799 69.973 212.666 69.1711C213.533 68.3475 213.966 67.2205 213.966 65.7901C213.966 64.3814 213.544 63.3303 212.699 62.6368C211.853 61.9432 210.683 61.5965 209.188 61.5965H203.791V70.3739ZM203.791 82.1422H208.96C211.062 82.1422 212.634 81.6871 213.674 80.7769C214.736 79.8666 215.267 78.5662 215.267 76.8758C215.267 75.207 214.736 73.8958 213.674 72.9422C212.612 71.9669 211.041 71.4792 208.96 71.4792H203.791V82.1422ZM221.901 83.2476C221.62 83.2476 221.479 83.1067 221.479 82.8249V60.9138C221.479 60.632 221.62 60.4911 221.901 60.4911H232.434C232.716 60.4911 232.857 60.632 232.857 60.9138V61.1413C232.857 61.4447 232.716 61.5965 232.434 61.5965H222.649V70.8291H231.947C232.228 70.8291 232.369 70.9699 232.369 71.2517V71.4792C232.369 71.7827 232.228 71.9344 231.947 71.9344H222.649V82.1422H232.467C232.77 82.1422 232.922 82.294 232.922 82.5974V82.8249C232.922 83.1067 232.77 83.2476 232.467 83.2476H221.901ZM244.112 83.2476C243.831 83.2476 243.69 83.1067 243.69 82.8249V61.5965H238.553C238.272 61.5965 238.131 61.4447 238.131 61.1413V60.9138C238.131 60.632 238.272 60.4911 238.553 60.4911H249.964C250.246 60.4911 250.387 60.632 250.387 60.9138V61.1413C250.387 61.4447 250.246 61.5965 249.964 61.5965H244.86V82.8249C244.86 83.1067 244.708 83.2476 244.405 83.2476H244.112Z" fill="white"/></svg>