<svg width="84" height="35" viewBox="0 0 84 35" fill="none" xmlns="http://www.w3.org/2000/svg">
<path d="M0.582386 27V0.818181H5.32528V23.0241H16.8565V27H0.582386ZM29.3338 27.3835C27.4162 27.3835 25.7543 26.9616 24.348 26.1179C22.9418 25.2741 21.8509 24.0937 21.0753 22.5767C20.3082 21.0597 19.9247 19.2869 19.9247 17.2585C19.9247 15.2301 20.3082 13.4531 21.0753 11.9276C21.8509 10.402 22.9418 9.21733 24.348 8.37358C25.7543 7.52983 27.4162 7.10795 29.3338 7.10795C31.2514 7.10795 32.9134 7.52983 34.3196 8.37358C35.7259 9.21733 36.8125 10.402 37.5795 11.9276C38.3551 13.4531 38.7429 15.2301 38.7429 17.2585C38.7429 19.2869 38.3551 21.0597 37.5795 22.5767C36.8125 24.0937 35.7259 25.2741 34.3196 26.1179C32.9134 26.9616 31.2514 27.3835 29.3338 27.3835ZM29.3594 23.6761C30.3991 23.6761 31.2685 23.3906 31.9673 22.8196C32.6662 22.2401 33.1861 21.4645 33.527 20.4929C33.8764 19.5213 34.0511 18.4389 34.0511 17.2457C34.0511 16.044 33.8764 14.9574 33.527 13.9858C33.1861 13.0057 32.6662 12.2259 31.9673 11.6463C31.2685 11.0668 30.3991 10.777 29.3594 10.777C28.294 10.777 27.4077 11.0668 26.7003 11.6463C26.0014 12.2259 25.4773 13.0057 25.1278 13.9858C24.7869 14.9574 24.6165 16.044 24.6165 17.2457C24.6165 18.4389 24.7869 19.5213 25.1278 20.4929C25.4773 21.4645 26.0014 22.2401 26.7003 22.8196C27.4077 23.3906 28.294 23.6761 29.3594 23.6761ZM51.2106 34.7727C49.5487 34.7727 48.1211 34.5469 46.9279 34.0952C45.7347 33.652 44.7759 33.0554 44.0515 32.3054C43.3271 31.5554 42.8242 30.7244 42.543 29.8125L46.7106 28.8026C46.8981 29.1861 47.1708 29.5653 47.5288 29.9403C47.8867 30.3239 48.3683 30.6392 48.9734 30.8864C49.587 31.142 50.3583 31.2699 51.2873 31.2699C52.5998 31.2699 53.6864 30.9503 54.5472 30.3111C55.408 29.6804 55.8384 28.6406 55.8384 27.1918V23.4716H55.6083C55.3697 23.9489 55.0202 24.4389 54.56 24.9418C54.1083 25.4446 53.5075 25.8665 52.7575 26.2074C52.016 26.5483 51.0827 26.7188 49.9577 26.7188C48.4492 26.7188 47.0813 26.3651 45.854 25.6577C44.6353 24.9418 43.6637 23.8764 42.9393 22.4616C42.2234 21.0384 41.8654 19.2571 41.8654 17.1179C41.8654 14.9616 42.2234 13.142 42.9393 11.6591C43.6637 10.1676 44.6396 9.03835 45.8668 8.27131C47.0941 7.49574 48.462 7.10795 49.9705 7.10795C51.1211 7.10795 52.0671 7.30398 52.8086 7.69602C53.5586 8.07954 54.1552 8.54403 54.5984 9.08949C55.0415 9.62642 55.3782 10.1335 55.6083 10.6108H55.864V7.36364H60.4279V27.3196C60.4279 28.9986 60.0273 30.3878 59.2262 31.4872C58.4251 32.5866 57.3299 33.4091 55.9407 33.9545C54.5515 34.5 52.9748 34.7727 51.2106 34.7727ZM51.2489 23.0881C52.229 23.0881 53.0643 22.8494 53.7546 22.3722C54.445 21.8949 54.9691 21.2088 55.3271 20.3139C55.685 19.419 55.864 18.3452 55.864 17.0923C55.864 15.8565 55.685 14.7741 55.3271 13.8452C54.9776 12.9162 54.4577 12.196 53.7674 11.6847C53.0856 11.1648 52.2461 10.9048 51.2489 10.9048C50.2177 10.9048 49.3569 11.1733 48.6665 11.7102C47.9762 12.2472 47.4563 12.9844 47.1069 13.9219C46.7575 14.8509 46.5827 15.9077 46.5827 17.0923C46.5827 18.294 46.7575 19.3466 47.1069 20.25C47.4648 21.1449 47.989 21.8437 48.6793 22.3466C49.3782 22.8409 50.2347 23.0881 51.2489 23.0881ZM73.7362 27.3835C71.8185 27.3835 70.1566 26.9616 68.7504 26.1179C67.3441 25.2741 66.2532 24.0937 65.4776 22.5767C64.7106 21.0597 64.3271 19.2869 64.3271 17.2585C64.3271 15.2301 64.7106 13.4531 65.4776 11.9276C66.2532 10.402 67.3441 9.21733 68.7504 8.37358C70.1566 7.52983 71.8185 7.10795 73.7362 7.10795C75.6538 7.10795 77.3157 7.52983 78.7219 8.37358C80.1282 9.21733 81.2148 10.402 81.9819 11.9276C82.7575 13.4531 83.1452 15.2301 83.1452 17.2585C83.1452 19.2869 82.7575 21.0597 81.9819 22.5767C81.2148 24.0937 80.1282 25.2741 78.7219 26.1179C77.3157 26.9616 75.6538 27.3835 73.7362 27.3835ZM73.7617 23.6761C74.8015 23.6761 75.6708 23.3906 76.3697 22.8196C77.0685 22.2401 77.5884 21.4645 77.9293 20.4929C78.2788 19.5213 78.4535 18.4389 78.4535 17.2457C78.4535 16.044 78.2788 14.9574 77.9293 13.9858C77.5884 13.0057 77.0685 12.2259 76.3697 11.6463C75.6708 11.0668 74.8015 10.777 73.7617 10.777C72.6964 10.777 71.81 11.0668 71.1026 11.6463C70.4038 12.2259 69.8796 13.0057 69.5302 13.9858C69.1893 14.9574 69.0188 16.044 69.0188 17.2457C69.0188 18.4389 69.1893 19.5213 69.5302 20.4929C69.8796 21.4645 70.4038 22.2401 71.1026 22.8196C71.81 23.3906 72.6964 23.6761 73.7617 23.6761Z" fill="#2E3045"/>
</svg>
