<svg width="60" height="60" viewBox="0 0 60 60" fill="none" xmlns="http://www.w3.org/2000/svg"><path d="M33.0234 28.4034C33.0234 34.6446 27.9639 39.7043 21.7227 39.7043C15.481 39.7043 10.4219 34.6446 10.4219 28.4034C10.4219 22.1622 15.481 17.1025 21.7227 17.1025C27.9639 17.1025 33.0235 22.1622 33.0235 28.4034H33.0234Z" fill="url(#paint0_radial_172_1642)"/><path d="M10.4219 28.4034C10.4219 32.4367 12.5354 35.9762 15.7151 37.9762H27.7303C30.9101 35.9762 33.0235 32.4367 33.0235 28.4034C33.0235 24.37 30.9101 20.8306 27.7304 18.8306H15.7151C12.5354 20.8306 10.4219 24.37 10.4219 28.4034Z" fill="url(#paint1_linear_172_1642)"/><path d="M10.4219 28.4034C10.4219 31.2809 11.4977 33.9065 13.2688 35.9015H30.1766C31.9478 33.9066 33.0235 31.2808 33.0235 28.4034C33.0235 25.526 31.9478 22.9003 30.1767 20.9053H13.2688C11.4976 22.9002 10.4219 25.526 10.4219 28.4034Z" fill="url(#paint2_linear_172_1642)"/><path d="M10.4219 28.4034C10.4219 30.0853 10.7894 31.6806 11.4481 33.1147H31.9969C32.656 31.6806 33.0237 30.0853 33.0237 28.4034C33.0237 26.7215 32.656 25.1263 31.9969 23.6917H11.4481C10.7896 25.1258 10.4219 26.7215 10.4219 28.4034Z" fill="url(#paint3_linear_172_1642)"/><path d="M10.4219 28.4034C10.4219 29.3767 10.545 30.3214 10.7767 31.2224H32.6687C32.9052 30.3014 33.0246 29.3543 33.024 28.4034C33.0246 27.4526 32.9052 26.5054 32.6687 25.5845H10.7767C10.5404 26.5055 10.4212 27.4526 10.4219 28.4034Z" fill="url(#paint4_linear_172_1642)"/><path d="M20.8254 17.1377C15.0036 17.5951 10.4219 22.4639 10.4219 28.4033C10.4219 34.3423 15.0036 39.2111 20.8255 39.6689C26.6469 39.2111 31.229 34.3423 31.229 28.4033C31.229 22.4638 26.6468 17.5951 20.8254 17.1377Z" fill="url(#paint5_radial_172_1642)"/><path d="M21.4102 18.1718C21.022 18.1192 20.6286 18.1192 20.2405 18.1718C15.2019 18.8571 11.3187 23.1765 11.3187 28.4033C11.3187 33.6297 15.2019 37.9491 20.2405 38.6344C20.6282 38.6875 21.0224 38.6875 21.41 38.6344C26.4486 37.9491 30.3319 33.6297 30.3319 28.4033C30.3319 23.1765 26.4487 18.8576 21.4102 18.1718Z" fill="url(#paint6_radial_172_1642)"/><path d="M28.3366 28.4033C28.3366 23.8494 24.9532 20.158 20.7793 20.158C16.6059 20.158 13.2225 23.8494 13.2225 28.4033C13.2225 32.9572 16.6059 36.6486 20.7793 36.6486C24.9532 36.6486 28.3366 32.9572 28.3366 28.4033Z" fill="url(#paint7_radial_172_1642)"/><path d="M22.8542 20.473C21.9143 20.1805 20.9076 20.1805 19.9677 20.473C16.8027 21.4568 14.4854 24.6346 14.4854 28.4033C14.4854 32.2453 16.8942 35.4735 20.1544 36.3885C20.9763 36.6188 21.8457 36.6188 22.6676 36.3885C25.9277 35.4735 28.3365 32.2453 28.3365 28.4033C28.3365 24.6346 26.0188 21.4568 22.8542 20.473Z" fill="url(#paint8_radial_172_1642)"/><path d="M28.2504 29.6517L23.248 24.6493C23.1568 24.4913 22.9683 24.3604 22.6813 24.2574C22.3869 24.1517 22.0729 24.0797 21.7406 24.04L21.3015 23.6481C21.2924 23.5864 21.2563 23.53 21.189 23.4806C21.1117 23.4234 21.0279 23.395 20.9386 23.395C20.8406 23.395 20.7568 23.4234 20.6878 23.4806C20.6181 23.5378 20.5838 23.6028 20.5838 23.676V24.0309C19.9233 24.1045 19.3707 24.3242 18.9267 24.6913C18.4822 25.0585 18.2597 25.5959 18.2597 26.3041C18.2597 26.5563 18.2885 26.7861 18.3458 26.994C18.4025 27.2014 18.4964 27.3821 18.6268 27.5368C18.7573 27.6915 18.8814 27.8239 19 27.9337C19.0058 27.9397 19.0132 27.9452 19.0196 27.9512L20.5834 29.5185V31.5646C20.2221 31.5405 19.9041 31.4471 19.6289 31.2841C19.3538 31.1215 19.1378 30.9692 18.9803 30.8263C18.8228 30.684 18.6955 30.6126 18.5989 30.6126C18.4529 30.6126 18.3233 30.6904 18.2099 30.8446C18.0962 30.9993 18.0396 31.154 18.0396 31.3083C18.0396 31.5619 18.1864 31.8114 18.4794 32.0572L22.7783 36.3561C25.6238 35.5069 27.7996 32.8885 28.2504 29.6518V29.6517Z" fill="url(#paint9_linear_172_1642)"/><path d="M18.04 31.3084C18.04 31.1541 18.0962 30.9993 18.2099 30.8446C18.3233 30.6904 18.4529 30.6126 18.599 30.6126C18.6955 30.6126 18.8228 30.684 18.9803 30.8264C19.1378 30.9692 19.3538 31.1217 19.6289 31.2841C19.9041 31.447 20.2222 31.5405 20.5834 31.5648V28.6968C20.339 28.6071 20.1512 28.5362 20.0213 28.4831C19.8903 28.4303 19.7173 28.353 19.5012 28.2514C19.2851 28.1498 19.1176 28.0436 18.9995 27.9338C18.8814 27.8239 18.7569 27.6916 18.6269 27.5373C18.496 27.3826 18.4026 27.2018 18.3454 26.994C18.2882 26.7866 18.2598 26.5569 18.2598 26.3046C18.2598 25.5964 18.4818 25.0585 18.9263 24.6914C19.3708 24.3247 19.9233 24.1045 20.5833 24.0312V23.6765C20.5833 23.6033 20.6181 23.5378 20.6877 23.4811C20.7569 23.4239 20.8406 23.3955 20.9381 23.3955C21.0279 23.3955 21.1116 23.4239 21.1889 23.4811C21.2663 23.5382 21.3053 23.6033 21.3053 23.6765V24.0065C21.8024 24.023 22.2611 24.1068 22.6813 24.2574C23.1011 24.4086 23.3112 24.6181 23.3112 24.8873C23.3112 25.0343 23.2617 25.1872 23.1628 25.346C23.0644 25.5049 22.9326 25.5845 22.7683 25.5845C22.7032 25.5845 22.5247 25.5153 22.2327 25.3767C21.9407 25.238 21.6312 25.1565 21.3053 25.1322V27.6105C21.6299 27.7327 21.8994 27.8486 22.1141 27.9586C22.3288 28.0685 22.5559 28.2207 22.7953 28.4162C23.0347 28.6116 23.2151 28.8575 23.3364 29.1546C23.4581 29.4516 23.519 29.7996 23.519 30.1982C23.519 30.9266 23.3203 31.5057 22.9229 31.935C22.5257 32.3649 21.9864 32.6286 21.3053 32.727V33.1358C21.3053 33.2076 21.2664 33.2717 21.1889 33.328C21.1116 33.3839 21.0278 33.4118 20.9381 33.4118C20.8406 33.4118 20.7569 33.3839 20.6877 33.328C20.6181 33.2722 20.5834 33.2076 20.5834 33.1358V32.7636C19.8743 32.7554 19.2728 32.5933 18.7798 32.277C18.2863 31.9603 18.04 31.6375 18.04 31.3084ZM19.4705 26.1823C19.4705 26.4999 19.5694 26.7421 19.7672 26.9083C19.9649 27.0754 20.2615 27.232 20.657 27.3785V25.1551C19.866 25.253 19.4705 25.5955 19.4705 26.1823ZM21.232 31.5405C21.9492 31.41 22.3082 31.0072 22.3082 30.332C22.3082 29.9739 22.2144 29.6933 22.0272 29.4901C21.8394 29.2869 21.5745 29.1116 21.232 28.9651V31.5405Z" fill="url(#paint10_linear_172_1642)"/><path d="M27.317 18.5842C27.2493 18.5453 27.1813 18.5072 27.1128 18.4697C27.0689 18.4459 27.024 18.4226 26.9797 18.3988C26.9192 18.3672 26.8583 18.3355 26.797 18.3045C26.7476 18.2799 26.6981 18.2555 26.6482 18.2312C26.5917 18.2039 26.5349 18.177 26.4779 18.1507C26.424 18.1254 26.3698 18.1005 26.3155 18.0761C26.2656 18.0537 26.2147 18.0326 26.1643 18.0106C25.9193 17.9057 25.6706 17.8096 25.4186 17.7226C25.3963 17.7149 25.3738 17.7067 25.3514 17.6989C25.2667 17.67 25.1811 17.6431 25.0954 17.616L25.02 17.5927C24.9321 17.5657 24.8433 17.54 24.7544 17.5153L24.6941 17.4989C24.5942 17.4716 24.4939 17.4458 24.3933 17.4216C23.8462 17.2889 23.29 17.1976 22.7293 17.1482C23.2559 18.0171 23.8967 18.8114 24.6345 19.5098L33.0116 27.8869L33.0102 27.8516L33.0075 27.7971C33.0061 27.7715 33.0043 27.7467 33.0029 27.7212C33.0021 27.7033 33.001 27.6855 32.9997 27.6676C32.9988 27.6466 32.9965 27.6264 32.9951 27.6053C32.9928 27.5692 32.9901 27.5326 32.9873 27.496C32.9844 27.4579 32.9811 27.4199 32.9772 27.3819V27.3805C32.9768 27.3782 32.9768 27.3755 32.9768 27.3733C32.975 27.3582 32.9744 27.343 32.9733 27.3279C32.9722 27.3202 32.9713 27.3128 32.9709 27.3055C32.9695 27.2931 32.9686 27.2808 32.9672 27.2684C32.9648 27.2441 32.9621 27.2203 32.9594 27.1966C32.9558 27.1586 32.9512 27.1211 32.9465 27.083C32.9407 27.034 32.9356 26.9846 32.9292 26.9357C32.9268 26.9182 32.9242 26.9014 32.9223 26.8839C32.9196 26.8661 32.9172 26.8482 32.915 26.8303C32.9123 26.8135 32.9095 26.7965 32.9073 26.7796C32.9004 26.7304 32.893 26.6812 32.8852 26.6322C32.8834 26.6188 32.8811 26.606 32.8788 26.5928C32.8742 26.5621 32.8687 26.5309 32.8637 26.5002C32.8637 26.4999 32.8633 26.4989 32.8633 26.498C32.8533 26.4403 32.8432 26.3827 32.8326 26.3255L32.8244 26.2801C32.8215 26.2625 32.8182 26.2449 32.8143 26.2274C32.8101 26.2074 32.8065 26.1876 32.8024 26.1675C32.7914 26.1134 32.78 26.0594 32.7681 26.0055L32.7529 25.9346C32.7512 25.9267 32.7493 25.919 32.7474 25.9116C32.7425 25.8882 32.7373 25.8649 32.732 25.8416C32.7306 25.8342 32.7287 25.8274 32.7269 25.8201L32.7232 25.8054L32.7136 25.7651C32.7085 25.745 32.704 25.7253 32.6989 25.7052C32.6934 25.6837 32.6884 25.6621 32.683 25.6407C32.6729 25.6008 32.6628 25.5605 32.6523 25.5207C32.6444 25.4909 32.6362 25.4621 32.6285 25.4328C32.6252 25.4214 32.6222 25.4099 32.6193 25.3984C32.6156 25.3857 32.6124 25.3733 32.6088 25.3605C32.5932 25.3042 32.5767 25.2488 32.5603 25.1929C32.5521 25.1641 32.5433 25.1352 32.5345 25.1064C32.5049 25.0094 32.4742 24.9123 32.4422 24.8162C32.4398 24.8093 32.4375 24.8021 32.4352 24.7947C32.3995 24.6886 32.3621 24.5832 32.3231 24.4783C32.3158 24.4582 32.308 24.4385 32.3007 24.4189C32.2902 24.3919 32.2801 24.3649 32.27 24.3382C32.2668 24.3305 32.2642 24.3228 32.2609 24.3149C32.2421 24.2655 32.2224 24.2165 32.2027 24.168C32.1922 24.1429 32.1821 24.1176 32.1716 24.0925C32.141 24.0178 32.1093 23.9441 32.0774 23.8704C32.0727 23.8608 32.0686 23.8507 32.0645 23.8411C32.0573 23.8241 32.0498 23.8071 32.0421 23.7903C31.9953 23.6855 31.9469 23.5815 31.8969 23.4782C31.8851 23.4539 31.8731 23.4305 31.8613 23.4062C31.8251 23.3331 31.7882 23.2603 31.7505 23.1879C31.7089 23.1085 31.6664 23.0295 31.6233 22.9508L31.62 22.9449C31.6085 22.9248 31.5972 22.9047 31.5861 22.8844C31.577 22.8688 31.5688 22.8533 31.5601 22.8378C31.4491 22.6421 31.3323 22.4497 31.2098 22.261C31.2035 22.2514 31.1975 22.2422 31.1911 22.2331C31.1275 22.1352 31.0624 22.0385 30.9956 21.9428C30.7953 21.6562 30.5819 21.3789 30.3561 21.1119C30.2853 21.0281 30.2133 20.9453 30.14 20.8635C30.1387 20.8616 30.1368 20.8602 30.1354 20.8588C29.9804 20.686 29.8202 20.5179 29.6549 20.3549C29.653 20.353 29.6516 20.3516 29.6502 20.3507C29.5696 20.271 29.4877 20.1927 29.4044 20.1158L29.3962 20.1076C29.1409 19.8716 28.875 19.6474 28.5992 19.4357L28.5914 19.4297C28.2191 19.1442 27.8293 18.8823 27.4242 18.6455C27.3889 18.6244 27.3527 18.6044 27.317 18.5842Z" fill="url(#paint11_linear_172_1642)"/><path d="M54.6098 28.4034C54.6098 34.6446 49.5501 39.7043 43.3085 39.7043C37.0674 39.7043 32.0078 34.6446 32.0078 28.4034C32.0078 22.1622 37.0674 17.1025 43.3085 17.1025C49.5501 17.1025 54.6098 22.1622 54.6098 28.4034Z" fill="url(#paint12_radial_172_1642)"/><path d="M32.0077 28.4034C32.0077 32.4367 34.1212 35.9762 37.3009 37.9762H49.3167C52.4963 35.9762 54.6098 32.4367 54.6098 28.4034C54.6098 24.37 52.4963 20.8306 49.3167 18.8306H37.3008C34.1211 20.8306 32.0076 24.37 32.0076 28.4034H32.0077Z" fill="url(#paint13_linear_172_1642)"/><path d="M32.0078 28.4034C32.0078 31.2809 33.0839 33.9065 34.8546 35.9015H51.7629C53.5336 33.9066 54.6097 31.2808 54.6097 28.4034C54.6097 25.526 53.5335 22.9003 51.7629 20.9053H34.8546C33.0839 22.9002 32.0078 25.526 32.0078 28.4034Z" fill="url(#paint14_linear_172_1642)"/><path d="M32.0078 28.4034C32.0078 30.0853 32.3757 31.6806 33.0345 33.1147H53.583C54.2417 31.6806 54.6098 30.0853 54.6098 28.4034C54.6098 26.7215 54.2419 25.1263 53.583 23.6917H33.0345C32.3757 25.1258 32.0078 26.7215 32.0078 28.4034Z" fill="url(#paint15_linear_172_1642)"/><path d="M32.0078 28.4034C32.0072 29.3542 32.1264 30.3013 32.3625 31.2224H54.2551C54.4911 30.3013 54.6103 29.3542 54.6098 28.4034C54.6098 27.4297 54.4868 26.4854 54.2551 25.5845H32.3625C32.1264 26.5055 32.0072 27.4526 32.0078 28.4034Z" fill="url(#paint16_linear_172_1642)"/><path d="M42.4113 17.1377C36.5894 17.5951 32.0078 22.4639 32.0078 28.4033C32.0078 34.3423 36.5894 39.2111 42.4113 39.6689C48.2332 39.2111 52.8149 34.3423 52.8149 28.4033C52.8149 22.4638 48.2332 17.5951 42.4113 17.1377Z" fill="url(#paint17_radial_172_1642)"/><path d="M42.9963 18.1718C42.6081 18.1192 42.2146 18.1192 41.8263 18.1718C36.7877 18.8571 32.905 23.1765 32.905 28.4033C32.905 33.6297 36.7877 37.9491 41.8263 38.6344C42.2145 38.6875 42.6082 38.6875 42.9963 38.6344C48.0349 37.9491 51.9178 33.6297 51.9178 28.4033C51.9178 23.1765 48.0349 18.8576 42.9963 18.1718Z" fill="url(#paint18_radial_172_1642)"/><path d="M49.9224 28.4033C49.9224 23.8494 46.5391 20.158 42.3657 20.158C38.1917 20.158 34.8083 23.8494 34.8083 28.4033C34.8083 32.9572 38.1917 36.6486 42.3657 36.6486C46.5391 36.6486 49.9224 32.9572 49.9224 28.4033Z" fill="url(#paint19_radial_172_1642)"/><path d="M44.4402 20.473C43.5002 20.1805 42.4935 20.1805 41.5535 20.473C38.389 21.4568 36.0714 24.6346 36.0714 28.4034C36.0714 32.2454 38.4805 35.4735 41.7403 36.3885C42.5622 36.6188 43.4315 36.6188 44.2534 36.3885C47.5135 35.4735 49.9223 32.2454 49.9223 28.4034C49.9223 24.6346 47.6051 21.4568 44.4402 20.473Z" fill="url(#paint20_radial_172_1642)"/><path d="M49.8363 29.6517L44.8338 24.6493C44.7433 24.4913 44.5541 24.3604 44.2671 24.2574C43.9727 24.1517 43.6588 24.0797 43.3265 24.04L42.8875 23.6481C42.8787 23.5864 42.8426 23.53 42.7753 23.4806C42.6975 23.4234 42.6142 23.395 42.5244 23.395C42.4265 23.395 42.3428 23.4234 42.2736 23.4806C42.2045 23.5378 42.1697 23.6028 42.1697 23.676V24.0309C41.5091 24.1045 40.9566 24.3242 40.5125 24.6913C40.0681 25.0585 39.8461 25.5959 39.8461 26.3041C39.8461 26.5563 39.8745 26.7861 39.9317 26.994C39.9884 27.2014 40.0822 27.3821 40.2127 27.5368C40.3432 27.6915 40.4677 27.8239 40.5858 27.9337C40.5922 27.9397 40.599 27.9452 40.6055 27.9512L42.1697 29.5185V31.5646C41.8085 31.5405 41.4899 31.4471 41.2147 31.2841C40.9397 31.1215 40.7236 30.9692 40.5661 30.8263C40.4086 30.684 40.2813 30.6126 40.1848 30.6126C40.0388 30.6126 39.9093 30.6904 39.7957 30.8446C39.6822 30.9993 39.6258 31.154 39.6258 31.3083C39.6258 31.5619 39.7729 31.8114 40.0652 32.0572L44.3642 36.3561C47.21 35.5069 49.3859 32.8885 49.8363 29.6518V29.6517Z" fill="url(#paint21_linear_172_1642)"/><path d="M39.6258 31.3084C39.6258 31.1541 39.6826 30.9993 39.7962 30.8446C39.9097 30.6904 40.0392 30.6126 40.1852 30.6126C40.2818 30.6126 40.4091 30.684 40.5666 30.8264C40.7241 30.9692 40.94 31.1217 41.2152 31.2841C41.4904 31.447 41.8085 31.5405 42.1697 31.5648V28.6968C41.9252 28.6071 41.7375 28.5362 41.6071 28.4831C41.4766 28.4303 41.3036 28.353 41.0875 28.2514C40.8714 28.1498 40.7039 28.0436 40.5858 27.9338C40.4677 27.8239 40.3432 27.6916 40.2131 27.5373C40.0822 27.3826 39.9884 27.2018 39.9317 26.994C39.8745 26.7866 39.8461 26.5569 39.8461 26.3046C39.8461 25.5964 40.0681 25.0585 40.5125 24.6914C40.957 24.3247 41.5096 24.1045 42.1696 24.0312V23.6765C42.1696 23.6033 42.2045 23.5378 42.274 23.4811C42.3431 23.4239 42.4269 23.3955 42.5244 23.3955C42.6142 23.3955 42.6979 23.4239 42.7752 23.4811C42.8525 23.5382 42.8916 23.6033 42.8916 23.6765V24.0065C43.3887 24.023 43.8474 24.1068 44.2671 24.2574C44.6874 24.4086 44.897 24.6181 44.897 24.8873C44.897 25.0343 44.848 25.1872 44.7491 25.346C44.6507 25.5049 44.519 25.5845 44.3545 25.5845C44.2895 25.5845 44.111 25.5153 43.819 25.3767C43.5277 25.2383 43.2132 25.1554 42.8916 25.1322V27.6105C43.2156 27.7327 43.4852 27.8486 43.6999 27.9586C43.9151 28.0684 44.1422 28.2207 44.3816 28.4162C44.621 28.6116 44.8009 28.8575 44.9227 29.1546C45.044 29.4516 45.1052 29.7996 45.1052 30.1982C45.1052 30.9266 44.9066 31.5057 44.5092 31.935C44.1115 32.3649 43.5727 32.6286 42.8916 32.727V33.1358C42.8916 33.2076 42.8527 33.2717 42.7753 33.328C42.698 33.3839 42.6142 33.4118 42.5244 33.4118C42.4265 33.4118 42.3431 33.3839 42.274 33.328C42.2045 33.2722 42.1697 33.2076 42.1697 33.1358V32.7636C41.4606 32.7554 40.8591 32.5933 40.3656 32.277C39.8726 31.9603 39.6258 31.6375 39.6258 31.3084ZM41.0569 26.1823C41.0569 26.4999 41.1557 26.7421 41.3534 26.9083C41.5512 27.0754 41.8479 27.232 42.2434 27.3785V25.1551C41.4524 25.253 41.0569 25.5955 41.0569 26.1823ZM42.8179 31.5405C43.5356 31.41 43.8945 31.0072 43.8945 30.332C43.8945 29.9739 43.8007 29.6933 43.613 29.4901C43.4254 29.2869 43.1606 29.1116 42.8183 28.9651V31.5405H42.8179Z" fill="url(#paint22_linear_172_1642)"/><path d="M54.6058 28.0994L54.6043 28.0619C54.6039 28.0523 54.6039 28.0427 54.6039 28.0336C54.6029 28.0084 54.6012 27.9836 54.6002 27.9586C54.5993 27.9388 54.5988 27.9191 54.5979 27.8994C54.5974 27.8833 54.5971 27.8677 54.5961 27.8518C54.5952 27.834 54.5947 27.8151 54.5933 27.7973C54.5924 27.7716 54.5906 27.7469 54.5888 27.7214C54.5878 27.7034 54.5875 27.6856 54.5861 27.6678C54.5847 27.6467 54.5828 27.6266 54.5814 27.6055C54.5787 27.5694 54.5765 27.5328 54.5736 27.4961C54.5705 27.4582 54.5668 27.4201 54.5636 27.3826L54.5631 27.3807C54.5631 27.3784 54.5631 27.3757 54.5627 27.3734C54.5613 27.3583 54.5609 27.3432 54.559 27.3281C54.5585 27.3206 54.5577 27.3131 54.5566 27.3057C54.5558 27.2933 54.5544 27.281 54.5535 27.2686C54.5508 27.2443 54.5481 27.2205 54.5458 27.1963C54.5416 27.1588 54.5371 27.1213 54.5329 27.0838C54.527 27.0342 54.5215 26.9848 54.515 26.9359L54.5083 26.8841C54.5056 26.8662 54.5031 26.8484 54.5009 26.8305C54.4985 26.8136 54.4958 26.7966 54.4936 26.7798L54.4716 26.6323C54.4692 26.619 54.467 26.6062 54.4652 26.593C54.4602 26.5623 54.4547 26.5311 54.4497 26.5004C54.4497 26.5 54.4492 26.4991 54.4492 26.4982C54.4397 26.4405 54.4294 26.383 54.4185 26.3257L54.4103 26.2803L54.4075 26.2647C54.4051 26.2524 54.4024 26.2401 54.4002 26.2277L54.3883 26.1677C54.3777 26.1132 54.3659 26.0596 54.3539 26.0056C54.3489 25.9818 54.3443 25.958 54.3388 25.9347C54.337 25.9269 54.3356 25.9191 54.3338 25.9118C54.3284 25.8884 54.3238 25.8651 54.3183 25.8418C54.3164 25.8344 54.3145 25.8276 54.3128 25.8202C54.3118 25.8152 54.3104 25.8106 54.3095 25.8056C54.3063 25.7919 54.3027 25.7786 54.2994 25.7653C54.2945 25.7451 54.2898 25.7254 54.2848 25.7054C54.2799 25.6838 54.2742 25.6623 54.2693 25.6408C54.2591 25.6008 54.2487 25.5608 54.2381 25.5208C54.2304 25.4911 54.2221 25.4622 54.2143 25.4329C54.2112 25.4216 54.2085 25.4101 54.2052 25.3986L54.1947 25.3606C54.1791 25.3044 54.163 25.2489 54.1466 25.193L54.1209 25.1066C54.0912 25.0095 54.0605 24.9125 54.0285 24.8164C54.0258 24.8095 54.0238 24.8022 54.0211 24.7948C53.9854 24.6888 53.948 24.5833 53.909 24.4784C53.9017 24.4584 53.894 24.4387 53.8866 24.419C53.8765 24.3921 53.8664 24.3651 53.8559 24.3384C53.8532 24.3307 53.85 24.3229 53.8472 24.3151C53.828 24.2656 53.8083 24.2166 53.7886 24.1681L53.7579 24.0927C53.7273 24.0182 53.6957 23.9442 53.6632 23.8706L53.6503 23.8413C53.6495 23.8389 53.6486 23.8372 53.6476 23.8354C53.6412 23.8202 53.6347 23.8057 53.6284 23.7905C53.5813 23.6858 53.5328 23.5818 53.4829 23.4784L53.4471 23.4064C53.4435 23.3991 53.4394 23.3913 53.4356 23.3836C53.4032 23.3181 53.3701 23.2529 53.3364 23.1881C53.3268 23.1693 53.3167 23.1506 53.3071 23.1318C53.275 23.0714 53.2425 23.0109 53.2096 22.951C53.2082 22.9491 53.2072 22.9468 53.2058 22.945C53.1949 22.9249 53.1834 22.9047 53.172 22.8846C53.1633 22.869 53.1551 22.8535 53.1464 22.8379C53.0354 22.6421 52.9185 22.4498 52.7957 22.2611C52.7898 22.2515 52.7834 22.2424 52.7774 22.2332C52.7222 22.1483 52.6657 22.0642 52.6081 21.9809C52.5994 21.9686 52.5906 21.9557 52.5815 21.943C52.3184 21.5663 52.0329 21.2059 51.7263 20.8637L51.7218 20.859C51.5654 20.6845 51.4036 20.5151 51.2366 20.3509C51.1532 20.2683 51.0684 20.1873 50.9821 20.1078C50.7271 19.8717 50.4613 19.6475 50.1856 19.4359L50.1778 19.4299C49.9003 19.217 49.6129 19.0171 49.3167 18.8311C47.5763 17.7362 45.5168 17.1025 43.3085 17.1025C43.0064 17.1025 42.7076 17.1145 42.4113 17.1378C42.4104 17.1383 42.4096 17.1383 42.4086 17.1383C41.973 17.1727 41.5397 17.2323 41.1109 17.3169C41.0957 17.3196 41.0807 17.3223 41.0656 17.3255C40.9978 17.3393 40.9304 17.3539 40.8632 17.3686C40.8417 17.3736 40.8198 17.3777 40.7978 17.3827C40.7345 17.3969 40.6718 17.4125 40.6086 17.4281C40.5836 17.4339 40.5579 17.4399 40.5327 17.4464C40.4727 17.4615 40.4124 17.4775 40.3528 17.4939C40.2669 17.517 40.1814 17.5411 40.0961 17.5663C40.0671 17.575 40.0383 17.5832 40.0099 17.592C39.9537 17.6094 39.8973 17.6272 39.8406 17.645L39.7527 17.6738C39.6973 17.6921 39.6421 17.7108 39.587 17.7301L39.4982 17.7617C39.4441 17.7809 39.3897 17.8011 39.3361 17.8213C39.3059 17.8327 39.2761 17.8438 39.2463 17.8552C39.1933 17.8757 39.1402 17.8968 39.0871 17.9178C39.0573 17.9302 39.0275 17.9421 38.9978 17.9545C38.9452 17.9764 38.8925 17.9984 38.8404 18.0208C38.8111 18.0337 38.7822 18.046 38.7533 18.0589C38.7007 18.0822 38.6486 18.1055 38.5963 18.1293L38.5117 18.1692C38.4595 18.1934 38.4077 18.2182 38.3561 18.2434L38.2737 18.2845C38.2216 18.31 38.1699 18.3361 38.1184 18.3628C38.0919 18.3766 38.0658 18.3908 38.0393 18.4045C37.987 18.4319 37.9354 18.4595 37.884 18.4877C37.859 18.5015 37.8342 18.5157 37.8095 18.5294C37.7568 18.5587 37.7046 18.588 37.6525 18.6182L37.5874 18.6567C37.5329 18.6888 37.4784 18.7211 37.4245 18.7537C37.408 18.7638 37.3915 18.7743 37.3756 18.7844C37.3504 18.7995 37.3256 18.8151 37.3009 18.8306C37.2669 18.8521 37.2332 18.8728 37.1998 18.8947C36.9393 19.0626 36.6858 19.2411 36.4399 19.4298C36.4376 19.4316 36.4348 19.434 36.4321 19.4359C36.4225 19.4436 36.4124 19.4509 36.4028 19.4582C36.3858 19.4715 36.3684 19.4844 36.351 19.4981C36.3043 19.5342 36.2585 19.5718 36.2124 19.6088C36.1899 19.6271 36.167 19.645 36.1446 19.6633C36.1015 19.6985 36.0594 19.7348 36.0169 19.7704C35.9922 19.7915 35.967 19.8126 35.9419 19.8341C35.9015 19.8689 35.8617 19.9041 35.8219 19.9393C35.7958 19.9627 35.7691 19.9856 35.7431 20.0089C35.7069 20.0415 35.6713 20.0749 35.6356 20.1078C35.6327 20.1102 35.6305 20.1129 35.6274 20.1151C35.6012 20.1398 35.5746 20.1641 35.5486 20.1889C35.5119 20.2231 35.4758 20.2584 35.4396 20.2937C35.4122 20.3198 35.3851 20.3464 35.3582 20.3729C35.3229 20.4077 35.2881 20.4433 35.2533 20.4786C35.2263 20.506 35.1994 20.5336 35.1723 20.5614C35.1383 20.5966 35.1046 20.6325 35.0711 20.6676L34.9906 20.7542C34.9589 20.7889 34.9273 20.8234 34.8962 20.8585L34.8921 20.8626C34.866 20.8919 34.84 20.9212 34.8138 20.951C34.7822 20.9872 34.7507 21.0233 34.7195 21.06C34.693 21.0907 34.6674 21.1213 34.6412 21.1524C34.6106 21.1891 34.5803 21.2257 34.5502 21.2623C34.5245 21.2939 34.499 21.3259 34.4738 21.3575C34.444 21.3945 34.4147 21.4317 34.3854 21.4692C34.3602 21.5016 34.3355 21.5342 34.3104 21.5667C34.2819 21.6042 34.2536 21.6417 34.2257 21.6793C34.2005 21.7127 34.1762 21.7466 34.1518 21.7804C34.1244 21.8179 34.0975 21.8555 34.0704 21.8935L34.0265 21.9568L34.0173 21.97L33.9981 21.9979C33.9721 22.0359 33.9455 22.0739 33.9198 22.1118C33.893 22.1522 33.8665 22.1926 33.8401 22.2332C33.8343 22.2424 33.8278 22.2515 33.8218 22.2611C33.8063 22.2854 33.7902 22.3092 33.7747 22.3334C33.7513 22.3706 33.7284 22.4076 33.7056 22.4448C33.6818 22.4827 33.658 22.5207 33.6341 22.5596C33.6113 22.5976 33.5889 22.636 33.5665 22.6745C33.544 22.7125 33.5211 22.75 33.4997 22.7885C33.4895 22.8058 33.4794 22.8242 33.4693 22.8416C33.4621 22.8548 33.4553 22.8677 33.4474 22.8809C33.44 22.8946 33.4323 22.9079 33.425 22.9217C33.4204 22.9295 33.4163 22.9372 33.4117 22.945L33.4085 22.9509C33.3956 22.9743 33.3824 22.9972 33.3696 23.0205C33.3495 23.058 33.3298 23.0961 33.3101 23.1336L33.2822 23.1863C33.2707 23.2086 33.2584 23.2306 33.2469 23.2527C33.23 23.2861 33.214 23.3195 33.1975 23.3524L33.1811 23.3854C33.1782 23.3913 33.1751 23.3977 33.1718 23.4037C33.1572 23.4335 33.1422 23.4628 33.1279 23.4925C33.1105 23.5286 33.0935 23.5652 33.0766 23.6015C33.0556 23.6458 33.0345 23.6902 33.0144 23.7351C33.0056 23.7534 32.9979 23.7718 32.9892 23.7905L32.97 23.835C32.9692 23.837 32.9682 23.8389 32.9672 23.8408C32.9637 23.8496 32.9599 23.8583 32.9558 23.867C32.9393 23.9049 32.9224 23.943 32.9059 23.9814C32.8904 24.0182 32.8752 24.0552 32.8602 24.0922C32.8519 24.1114 32.8437 24.1311 32.8358 24.1508C32.8248 24.1769 32.8144 24.2035 32.8034 24.23L32.7704 24.3151C32.7676 24.3225 32.7645 24.3303 32.7617 24.338L32.7575 24.3486C32.7435 24.3856 32.7287 24.4227 32.7145 24.4603C32.7141 24.4626 32.7131 24.4644 32.7122 24.4666L32.7068 24.4818C32.6922 24.5216 32.678 24.5619 32.6637 24.6017C32.6477 24.6465 32.6317 24.6914 32.6161 24.7367C32.6098 24.7564 32.6029 24.7752 32.5959 24.7948L32.5891 24.8164C32.5845 24.8301 32.5805 24.8438 32.5758 24.858C32.5608 24.9034 32.5461 24.9487 32.5315 24.9944C32.5195 25.0316 32.5081 25.0691 32.4967 25.1066C32.4916 25.124 32.4861 25.1418 32.4806 25.1596C32.471 25.1913 32.4619 25.2229 32.4527 25.2549C32.4427 25.2901 32.4326 25.3249 32.423 25.3602C32.4202 25.3688 32.4183 25.3771 32.4156 25.3858L32.391 25.4761C32.3868 25.4907 32.3831 25.5057 32.3795 25.5204C32.369 25.5602 32.3589 25.6005 32.3483 25.6408C32.3465 25.65 32.3438 25.6586 32.3414 25.6673C32.3327 25.7026 32.3245 25.7374 32.3163 25.7727C32.3135 25.7837 32.3108 25.7941 32.3085 25.8051L32.3049 25.8198C32.3034 25.8271 32.3012 25.8339 32.2998 25.8413C32.2943 25.8637 32.2897 25.8862 32.2847 25.9086L32.2833 25.915L32.2806 25.9273C32.2715 25.9686 32.2628 26.0102 32.2536 26.0514C32.2458 26.0904 32.2376 26.1288 32.2297 26.1672C32.227 26.1809 32.2239 26.1942 32.2215 26.208C32.2174 26.2277 32.2138 26.2474 32.21 26.2666L32.2088 26.2734L32.2074 26.2816C32.2047 26.2964 32.2018 26.3109 32.1996 26.3257C32.1918 26.3663 32.184 26.4076 32.1767 26.4487C32.1721 26.4763 32.167 26.5038 32.1626 26.5316C32.1593 26.5517 32.156 26.5719 32.1529 26.5925C32.1505 26.6057 32.1483 26.619 32.1464 26.6323L32.1327 26.7215C32.1286 26.7477 32.125 26.7738 32.1213 26.7998L32.1171 26.8305C32.1144 26.8483 32.1121 26.8663 32.1099 26.8841C32.1075 26.9015 32.1048 26.9184 32.1029 26.9359C32.1012 26.9482 32.0998 26.9605 32.0979 26.9734L44.7377 39.6126C45.1515 39.5605 45.5581 39.4858 45.9567 39.3902L45.9696 39.3874C46.0634 39.3645 46.1568 39.3407 46.2492 39.316C46.2629 39.3124 46.2768 39.3083 46.2905 39.3045C46.5573 39.2317 46.8213 39.1491 47.082 39.0569C47.107 39.0478 47.1324 39.0396 47.1574 39.0304C47.2256 39.0057 47.2929 38.98 47.3608 38.9544C47.4038 38.9375 47.4468 38.921 47.4898 38.904C47.6045 38.8583 47.7183 38.8106 47.8313 38.7607C47.8821 38.7387 47.9329 38.7168 47.9833 38.6943C48.0822 38.6491 48.1801 38.6029 48.2772 38.5552C48.3156 38.5365 48.3536 38.5168 48.392 38.4976C48.4602 38.4628 48.5279 38.4284 48.5953 38.3922C48.6347 38.3716 48.6736 38.3506 48.7125 38.3295C48.7816 38.2916 48.8508 38.2527 48.9193 38.2133C48.9524 38.1945 48.9858 38.1758 49.0187 38.1566C49.1192 38.098 49.2187 38.0378 49.3172 37.9761V37.9757C49.6135 37.7895 49.901 37.5896 50.1786 37.3764L50.186 37.3709C50.4615 37.1591 50.7273 36.9349 50.9825 36.699L50.9912 36.6908C51.0744 36.6139 51.1565 36.5356 51.2371 36.4559C51.2384 36.4545 51.2398 36.4531 51.2412 36.4523C51.4065 36.2891 51.567 36.1211 51.7222 35.9483C51.7236 35.9464 51.725 35.9446 51.7269 35.9428C51.7392 35.9291 51.7511 35.9154 51.7635 35.9015C51.824 35.8332 51.8838 35.7643 51.9429 35.6947L51.9621 35.6713C52.1807 35.4115 52.3875 35.1421 52.582 34.8638C52.5906 34.8509 52.5994 34.8382 52.6085 34.8259C52.6657 34.7425 52.7224 34.6583 52.7779 34.5736C52.7837 34.5639 52.7903 34.5548 52.7961 34.5457C52.9185 34.3569 53.0353 34.1645 53.1464 33.9689C53.1551 33.9533 53.1638 33.9378 53.1724 33.9227C53.1839 33.9025 53.1949 33.8824 53.2064 33.8618C53.2072 33.8599 53.2086 33.8577 53.2096 33.8559C53.243 33.7959 53.275 33.7354 53.3071 33.675C53.3512 33.5916 53.3942 33.5077 53.4362 33.4232C53.4397 33.4155 53.444 33.4081 53.4476 33.4004C53.4594 33.3761 53.4714 33.3527 53.4833 33.3284C53.5333 33.2251 53.5819 33.121 53.6289 33.0163C53.6352 33.0011 53.6418 32.9865 53.6481 32.9714C53.6491 32.9695 53.65 32.9675 53.6508 32.9655L53.6637 32.9362C53.6957 32.8624 53.7273 32.7888 53.7579 32.7141C53.7684 32.6889 53.7785 32.6637 53.7891 32.6391C53.8088 32.5902 53.8284 32.5412 53.8477 32.4917C53.8504 32.4839 53.8532 32.4761 53.8563 32.4688C53.8664 32.4418 53.877 32.4148 53.887 32.3878C53.8943 32.3681 53.9022 32.3484 53.9094 32.3282C53.9483 32.2235 53.9859 32.1181 54.0216 32.012C54.0244 32.0046 54.0263 31.9973 54.0285 31.9904C54.0609 31.8943 54.0917 31.7977 54.1209 31.7002C54.1296 31.6719 54.1383 31.643 54.1466 31.6141C54.163 31.5583 54.1795 31.5024 54.1951 31.4465C54.1988 31.4337 54.2019 31.421 54.2057 31.4087C54.2088 31.3972 54.2115 31.3857 54.2148 31.3743C54.2225 31.345 54.2309 31.3157 54.2386 31.2864C54.2487 31.2466 54.2592 31.2063 54.2693 31.166C54.2748 31.1449 54.2799 31.123 54.2852 31.1015C54.2899 31.0817 54.2949 31.062 54.2994 31.042C54.3027 31.0286 54.3065 31.0154 54.3095 31.0017L54.3132 30.987C54.315 30.9796 54.3168 30.9729 54.3188 30.9655C54.3238 30.9422 54.3287 30.9188 54.3342 30.8955C54.3356 30.8877 54.3375 30.8803 54.3393 30.8725C54.3443 30.8492 54.3493 30.825 54.3545 30.8016C54.3662 30.7476 54.3777 30.6936 54.3887 30.6396C54.3928 30.6194 54.3966 30.5997 54.4002 30.5796C54.4029 30.5673 54.4052 30.555 54.4075 30.5425C54.4084 30.5375 54.4098 30.532 54.4107 30.527L54.419 30.4816C54.4295 30.4239 54.4396 30.3668 54.4497 30.3091V30.3068C54.4552 30.2761 54.4602 30.245 54.4652 30.2143C54.4754 30.1521 54.4849 30.0899 54.4936 30.0275C54.4963 30.0106 54.4991 29.9936 54.5013 29.9768C54.5037 29.9588 54.506 29.941 54.5087 29.9227L54.5155 29.8714C54.522 29.822 54.5275 29.7726 54.533 29.7232C54.5375 29.6857 54.5421 29.6485 54.5458 29.611C54.5484 29.5868 54.5513 29.563 54.5535 29.5386C54.5549 29.5263 54.5558 29.514 54.5572 29.5016C54.5582 29.4943 54.5585 29.4864 54.5596 29.4792L54.5631 29.4338C54.5631 29.4315 54.5636 29.4288 54.5636 29.4261V29.4247C54.5673 29.3867 54.5709 29.3486 54.5741 29.3107C54.5769 29.2746 54.5791 29.238 54.582 29.2013C54.5833 29.1807 54.5851 29.1601 54.5865 29.1395L54.5892 29.0855C54.5911 29.0602 54.5924 29.0352 54.5939 29.01L54.5966 28.955C54.5974 28.9389 54.5974 28.9234 54.5984 28.9074C54.5993 28.8877 54.5998 28.868 54.6007 28.8484C54.6016 28.8232 54.6034 28.7984 54.6039 28.7734C54.6043 28.7636 54.6043 28.7546 54.6048 28.7449C54.6048 28.7326 54.6058 28.7197 54.6058 28.7074C54.6113 28.5048 54.6113 28.302 54.6058 28.0994Z" fill="url(#paint23_linear_172_1642)"/><path d="M43.7018 11.3009C43.7018 17.5424 38.6421 22.6021 32.4009 22.6021C26.1594 22.6021 21.0997 17.5424 21.0997 11.3009C21.0996 5.05969 26.1594 0 32.4009 0C38.6421 0 43.7018 5.05969 43.7018 11.3009Z" fill="url(#paint24_radial_172_1642)"/><path d="M21.0996 11.3009C21.0996 15.3346 23.2132 18.8735 26.3928 20.8736H38.4087C41.5883 18.8736 43.7018 15.3346 43.7018 11.3009C43.7018 7.2675 41.5883 3.72809 38.4087 1.72852H26.3928C23.2136 3.72809 21.0996 7.2675 21.0996 11.3009Z" fill="url(#paint25_linear_172_1642)"/><path d="M21.0996 11.301C21.0996 14.1784 22.1759 16.8041 23.9466 18.7991H40.855C42.6257 16.8042 43.7018 14.1784 43.7018 11.301C43.7018 8.42344 42.6255 5.79773 40.855 3.80273H23.9466C22.1759 5.7982 21.0996 8.42344 21.0996 11.301Z" fill="url(#paint26_linear_172_1642)"/><path d="M21.0996 11.3008C21.0996 12.9825 21.4677 14.5783 22.1264 16.0125H42.675C43.3337 14.5783 43.7018 12.9825 43.7018 11.3008C43.7018 9.61936 43.3338 8.02361 42.675 6.58936H22.1265C21.4677 8.02361 21.0996 9.61936 21.0996 11.3008Z" fill="url(#paint27_linear_172_1642)"/><path d="M21.0996 11.3009C21.0991 12.2518 21.2185 13.1991 21.4549 14.1202H43.3471C43.5831 13.199 43.7023 12.2518 43.7018 11.3009C43.7018 10.3276 43.5787 9.38322 43.3471 8.48193H21.4549C21.2185 9.40292 21.0991 10.35 21.0996 11.3009Z" fill="url(#paint28_linear_172_1642)"/><path d="M31.5033 0.0351562C25.6819 0.493008 21.0997 5.3618 21.0997 11.3009C21.0997 17.2403 25.6814 22.1091 31.5033 22.5663C37.3252 22.1091 41.9068 17.2403 41.9068 11.3009C41.9068 5.3618 37.3252 0.492891 31.5033 0.0351562Z" fill="url(#paint29_radial_172_1642)"/><path d="M32.0883 1.06985C31.7001 1.01676 31.3064 1.01676 30.9183 1.06985C25.8801 1.75516 21.9969 6.07458 21.9969 11.3009C21.9969 16.5276 25.8801 20.847 30.9183 21.5323C31.3064 21.585 31.7001 21.585 32.0883 21.5323C37.1269 20.8471 41.0097 16.5276 41.0097 11.3009C41.0097 6.07458 37.1269 1.75516 32.0883 1.06985Z" fill="url(#paint30_radial_172_1642)"/><path d="M39.0148 11.301C39.0148 6.74707 35.6314 3.05566 31.4575 3.05566C27.2841 3.05566 23.9003 6.74707 23.9003 11.301C23.9003 15.8549 27.2841 19.5462 31.4575 19.5462C35.6314 19.5462 39.0148 15.8549 39.0148 11.301Z" fill="url(#paint31_radial_172_1642)"/><path d="M33.5326 3.371C32.5926 3.07848 31.5859 3.07848 30.6459 3.371C27.4809 4.35467 25.1633 7.53244 25.1633 11.3008C25.1633 15.1433 27.5725 18.3715 30.8326 19.286C31.6545 19.5167 32.524 19.5167 33.3458 19.286C36.6055 18.3715 39.0148 15.1433 39.0148 11.3008C39.0148 7.53244 36.697 4.35467 33.5326 3.371Z" fill="url(#paint32_radial_172_1642)"/><path d="M38.9283 12.5496L33.9258 7.54709C33.8352 7.38877 33.646 7.25822 33.3595 7.15486C33.0647 7.04904 32.7512 6.97721 32.4188 6.93783L31.9794 6.54596C31.9706 6.4842 31.9345 6.42795 31.8672 6.37803C31.7899 6.32119 31.7061 6.29248 31.6163 6.29248C31.5184 6.29248 31.4351 6.32119 31.3659 6.37803C31.2963 6.43521 31.2616 6.50072 31.2616 6.57396V6.92869C30.6015 7.00193 30.049 7.22213 29.6045 7.58928C29.16 7.95596 28.9379 8.49373 28.9379 9.20189C28.9379 9.4542 28.9664 9.684 29.0236 9.89131C29.0808 10.0992 29.1746 10.28 29.3051 10.4347C29.4351 10.5889 29.5596 10.7212 29.6777 10.8312C29.6842 10.837 29.691 10.843 29.6979 10.8485L31.2616 12.4165V14.4621C30.9004 14.4378 30.5823 14.3444 30.3071 14.1815C30.0316 14.019 29.8155 13.8665 29.658 13.7237C29.5005 13.5814 29.3737 13.5104 29.2772 13.5104C29.1312 13.5104 29.0012 13.5878 28.8881 13.7421C28.7746 13.8968 28.7178 14.0515 28.7178 14.2058C28.7178 14.4594 28.8647 14.7089 29.1576 14.9551L33.4561 19.2535C36.302 18.4044 38.4779 15.7864 38.9283 12.5496Z" fill="url(#paint33_linear_172_1642)"/><path d="M28.7178 14.2063C28.7178 14.0516 28.7746 13.8973 28.8881 13.7426C29.0015 13.5879 29.1312 13.5105 29.2772 13.5105C29.3737 13.5105 29.501 13.5818 29.658 13.7242C29.8155 13.8666 30.0316 14.019 30.3072 14.182C30.5823 14.3445 30.9004 14.4379 31.2616 14.4626V11.5942C31.073 11.526 30.8854 11.4549 30.699 11.3809C30.5686 11.3278 30.395 11.2505 30.1794 11.1489C29.963 11.0473 29.7958 10.9414 29.6777 10.8316C29.5596 10.7218 29.4351 10.5894 29.3046 10.4347C29.1742 10.2805 29.0803 10.0992 29.0236 9.8918C28.9664 9.68438 28.938 9.45422 28.938 9.20191C28.938 8.49375 29.16 7.95598 29.6045 7.5893C30.0486 7.22215 30.601 7.00242 31.2615 6.92918V6.57445C31.2615 6.50063 31.2964 6.4357 31.3655 6.37852C31.4351 6.32168 31.5184 6.29297 31.6163 6.29297C31.7061 6.29297 31.7894 6.32168 31.8671 6.37852C31.9445 6.4357 31.9835 6.50121 31.9835 6.57445V6.90445C32.4806 6.92086 32.9393 7.0043 33.359 7.15523C33.7793 7.30594 33.9889 7.51605 33.9889 7.78523C33.9889 7.93172 33.9395 8.08453 33.841 8.24391C33.7422 8.4027 33.6109 8.48238 33.4465 8.48238C33.3814 8.48238 33.2029 8.41324 32.9109 8.27449C32.6196 8.13616 32.3051 8.05311 31.9835 8.02957V10.5084C32.3075 10.6302 32.5772 10.7464 32.7919 10.8564C33.007 10.9662 33.2341 11.1186 33.4735 11.3141C33.7125 11.5091 33.8928 11.7554 34.0146 12.0524C34.1359 12.3491 34.1968 12.6975 34.1968 13.0957C34.1968 13.8245 33.9981 14.4035 33.6008 14.8329C33.2034 15.2623 32.6641 15.5264 31.9835 15.6248V16.0331C31.9835 16.1055 31.9446 16.1695 31.8672 16.2254C31.7894 16.2817 31.7061 16.3097 31.6163 16.3097C31.5184 16.3097 31.4351 16.2818 31.3656 16.2259C31.2964 16.1697 31.2616 16.1055 31.2616 16.0337V15.6615C30.5525 15.6533 29.951 15.4907 29.4575 15.1744C28.9645 14.8576 28.7178 14.5349 28.7178 14.2063ZM30.1487 9.08016C30.1487 9.39738 30.2476 9.63961 30.4454 9.80625C30.6431 9.97289 30.9398 10.1298 31.3353 10.2758V8.05254C30.5443 8.15051 30.1488 8.49293 30.1488 9.08027L30.1487 9.08016ZM31.9103 14.438C32.6274 14.3079 32.9864 13.905 32.9864 13.2298C32.9864 12.8719 32.8926 12.5907 32.7049 12.3875C32.5172 12.1843 32.2526 12.0094 31.9103 11.8625V14.438Z" fill="url(#paint34_linear_172_1642)"/><path d="M25.9455 40.1064C26.7883 40.9496 30.0677 42.5097 30.9924 42.7431C31.0153 42.7472 31.0381 42.7518 31.0606 42.7564C31.1595 42.7775 41.0413 44.7125 46.1192 39.7137C47.2481 38.6022 49.1267 38.5423 50.2473 39.6615C51.3752 40.7876 51.3758 42.6149 50.2492 43.7419C43.0352 50.956 30.8029 48.5938 29.8951 48.4061C29.6114 48.3503 29.24 48.2428 28.8135 48.0939L28.7082 48.0693C26.5115 47.549 24.2183 47.5993 22.0465 48.2154C19.8748 48.8314 17.8967 49.9928 16.3004 51.589C15.8578 52.0317 15.14 52.0317 14.6979 51.589L8.37654 45.2677C7.73248 44.6241 7.73248 43.5809 8.37654 42.9372L11.207 40.1064C15.2706 36.0433 21.882 36.0433 25.9456 40.1064H25.9455Z" fill="url(#paint35_linear_172_1642)"/><path d="M28.813 48.0939C29.2402 48.2427 29.6109 48.3503 29.8947 48.4061C30.3616 48.5027 33.8275 49.1747 38.0644 48.8217V43.0186C34.3525 43.4018 31.1169 42.7688 31.0607 42.7563C31.0382 42.7518 31.0153 42.7472 30.9925 42.7431C30.0679 42.5096 26.7884 40.9496 25.9456 40.1064C21.8821 36.0432 15.2701 36.0432 11.2069 40.1068L8.37622 42.9371C7.7325 43.5809 7.7325 44.6245 8.37622 45.2677L14.6974 51.589C14.8026 51.6942 14.9276 51.7777 15.0651 51.8347C15.2026 51.8917 15.3499 51.921 15.4988 51.921C15.6476 51.921 15.7949 51.8917 15.9324 51.8347C16.0699 51.7777 16.1949 51.6942 16.3001 51.589C17.8963 49.9927 19.8744 48.8313 22.0461 48.2153C24.2179 47.5992 26.5111 47.5489 28.7078 48.0691L28.813 48.0939Z" fill="url(#paint36_linear_172_1642)"/><path d="M21.0494 43.4937C21.1496 43.5938 21.257 43.6865 21.3707 43.7711C23.8998 45.6519 27.0314 46.568 30.1891 46.3501C33.381 46.1294 36.3852 44.7613 38.6472 42.4984C39.7733 41.3723 39.7733 39.5459 38.6472 38.4193C37.5207 37.2932 35.6946 37.2932 34.568 38.4193C31.9602 41.0277 27.7662 41.3385 24.8131 39.1421C23.535 38.1913 21.7282 38.4568 20.7775 39.7354C19.9126 40.8981 20.0542 42.4985 21.0494 43.4937Z" fill="url(#paint37_linear_172_1642)"/><path d="M9.19418 38.8054L6.97406 41.0261C6.43793 41.5621 6.43793 42.4309 6.97406 42.9664L17.1506 53.1435C17.6866 53.679 18.555 53.679 19.091 53.1435L21.3117 50.9229C21.8473 50.3869 21.8473 49.5181 21.3117 48.9824L11.1347 38.8055C10.5991 38.2699 9.73019 38.2698 9.19418 38.8054Z" fill="url(#paint38_linear_172_1642)"/><path d="M5.37281 39.9898L0.536487 44.8266C-0.0224976 45.385 -0.0224976 46.2915 0.536487 46.8499L13.2669 59.5807C13.8259 60.1397 14.7318 60.1397 15.2907 59.5807L20.127 54.7444C20.6859 54.1854 20.6859 53.2796 20.127 52.7206L7.39653 39.9899C6.83754 39.4314 5.93121 39.4314 5.3727 39.9899L5.37281 39.9898Z" fill="url(#paint39_linear_172_1642)"/><defs><radialGradient id="paint0_radial_172_1642" cx="0" cy="0" r="1" gradientUnits="userSpaceOnUse" gradientTransform="translate(21.1739 28.0137) scale(11.7704)"><stop stop-color="#FFFCF8"/><stop offset="0.224" stop-color="#FBF9F7"/><stop offset="0.425" stop-color="#F0F1F3"/><stop offset="0.618" stop-color="#DEE3ED"/><stop offset="0.806" stop-color="#C4D0E4"/><stop offset="0.988" stop-color="#A3B7D9"/><stop offset="1" stop-color="#A1B5D8"/></radialGradient><linearGradient id="paint1_linear_172_1642" x1="21.7227" y1="26.6178" x2="21.7227" y2="46.8122" gradientUnits="userSpaceOnUse"><stop stop-color="#A1B5D8" stop-opacity="0"/><stop offset="0.256" stop-color="#98ABCA" stop-opacity="0.255"/><stop offset="0.736" stop-color="#8292A6" stop-opacity="0.737"/><stop offset="1" stop-color="#748290"/></linearGradient><linearGradient id="paint2_linear_172_1642" x1="21.7227" y1="31.1381" x2="21.7227" y2="10.7308" gradientUnits="userSpaceOnUse"><stop stop-color="#A1B5D8" stop-opacity="0"/><stop offset="0.256" stop-color="#98ABCA" stop-opacity="0.255"/><stop offset="0.736" stop-color="#8292A6" stop-opacity="0.737"/><stop offset="1" stop-color="#748290"/></linearGradient><linearGradient id="paint3_linear_172_1642" x1="21.7227" y1="28.745" x2="21.7227" y2="35.2715" gradientUnits="userSpaceOnUse"><stop stop-color="#A1B5D8" stop-opacity="0"/><stop offset="0.256" stop-color="#98ABCA" stop-opacity="0.255"/><stop offset="0.736" stop-color="#8292A6" stop-opacity="0.737"/><stop offset="1" stop-color="#748290"/></linearGradient><linearGradient id="paint4_linear_172_1642" x1="21.7227" y1="30.8722" x2="21.7227" y2="19.7584" gradientUnits="userSpaceOnUse"><stop stop-color="#A1B5D8" stop-opacity="0"/><stop offset="0.256" stop-color="#98ABCA" stop-opacity="0.255"/><stop offset="0.736" stop-color="#8292A6" stop-opacity="0.737"/><stop offset="1" stop-color="#748290"/></linearGradient><radialGradient id="paint5_radial_172_1642" cx="0" cy="0" r="1" gradientUnits="userSpaceOnUse" gradientTransform="translate(17.5179 25.3548) scale(15.8207 15.8207)"><stop stop-color="#FFFCF8"/><stop offset="0.224" stop-color="#FBF9F7"/><stop offset="0.425" stop-color="#F0F1F3"/><stop offset="0.618" stop-color="#DEE3ED"/><stop offset="0.806" stop-color="#C4D0E4"/><stop offset="0.988" stop-color="#A3B7D9"/><stop offset="1" stop-color="#A1B5D8"/></radialGradient><radialGradient id="paint6_radial_172_1642" cx="0" cy="0" r="1" gradientUnits="userSpaceOnUse" gradientTransform="translate(20.8253 28.4032) scale(9.89602)"><stop stop-color="#FFFCF8"/><stop offset="0.949" stop-color="#FFFCF8" stop-opacity="0.051"/><stop offset="1" stop-color="#FFFCF8" stop-opacity="0"/></radialGradient><radialGradient id="paint7_radial_172_1642" cx="0" cy="0" r="1" gradientUnits="userSpaceOnUse" gradientTransform="translate(21.5532 27.3459) scale(11.8275 12.9049)"><stop stop-color="#FFFCF8"/><stop offset="0.224" stop-color="#FBF9F7"/><stop offset="0.425" stop-color="#F0F1F3"/><stop offset="0.618" stop-color="#DEE3ED"/><stop offset="0.806" stop-color="#C4D0E4"/><stop offset="0.988" stop-color="#A3B7D9"/><stop offset="1" stop-color="#A1B5D8"/></radialGradient><radialGradient id="paint8_radial_172_1642" cx="0" cy="0" r="1" gradientUnits="userSpaceOnUse" gradientTransform="translate(18.5303 25.5674) scale(12.0529)"><stop stop-color="#FFFCF8"/><stop offset="0.224" stop-color="#FBF9F7"/><stop offset="0.425" stop-color="#F0F1F3"/><stop offset="0.618" stop-color="#DEE3ED"/><stop offset="0.806" stop-color="#C4D0E4"/><stop offset="0.988" stop-color="#A3B7D9"/><stop offset="1" stop-color="#A1B5D8"/></radialGradient><linearGradient id="paint9_linear_172_1642" x1="25.097" y1="30.619" x2="17.43" y2="28.8463" gradientUnits="userSpaceOnUse"><stop stop-color="#A1B5D8" stop-opacity="0"/><stop offset="0.256" stop-color="#98ABCA" stop-opacity="0.255"/><stop offset="0.736" stop-color="#8292A6" stop-opacity="0.737"/><stop offset="1" stop-color="#748290"/></linearGradient><linearGradient id="paint10_linear_172_1642" x1="14.1571" y1="28.4033" x2="25.8562" y2="28.4033" gradientUnits="userSpaceOnUse"><stop stop-color="#FFFCF8"/><stop offset="0.188" stop-color="#FAF8F6"/><stop offset="0.404" stop-color="#ECEEF2"/><stop offset="0.635" stop-color="#D5DCEA"/><stop offset="0.875" stop-color="#B5C4DF"/><stop offset="1" stop-color="#A1B5D8"/></linearGradient><linearGradient id="paint11_linear_172_1642" x1="32.279" y1="25.0695" x2="28.2317" y2="21.0222" gradientUnits="userSpaceOnUse"><stop stop-color="#A1B5D8" stop-opacity="0"/><stop offset="0.034" stop-color="#9FB3D5" stop-opacity="0.035"/><stop offset="0.452" stop-color="#8898AF" stop-opacity="0.451"/><stop offset="0.788" stop-color="#798898" stop-opacity="0.788"/><stop offset="1" stop-color="#748290"/></linearGradient><radialGradient id="paint12_radial_172_1642" cx="0" cy="0" r="1" gradientUnits="userSpaceOnUse" gradientTransform="translate(42.7601 28.0137) scale(11.7704 11.7704)"><stop stop-color="#FF4974"/><stop offset="0.407" stop-color="#FE4772"/><stop offset="0.596" stop-color="#FB3F6D"/><stop offset="0.74" stop-color="#F73363"/><stop offset="0.862" stop-color="#F02055"/><stop offset="0.967" stop-color="#E70944"/><stop offset="1" stop-color="#E4003D"/></radialGradient><linearGradient id="paint13_linear_172_1642" x1="43.3087" y1="26.6178" x2="43.3087" y2="46.8122" gradientUnits="userSpaceOnUse"><stop stop-color="#E4003D" stop-opacity="0"/><stop offset="0.584" stop-color="#BD294B" stop-opacity="0.584"/><stop offset="1" stop-color="#A64153"/></linearGradient><linearGradient id="paint14_linear_172_1642" x1="43.3087" y1="31.1381" x2="43.3087" y2="10.7308" gradientUnits="userSpaceOnUse"><stop stop-color="#E4003D" stop-opacity="0"/><stop offset="0.584" stop-color="#BD294B" stop-opacity="0.584"/><stop offset="1" stop-color="#A64153"/></linearGradient><linearGradient id="paint15_linear_172_1642" x1="43.3087" y1="28.745" x2="43.3087" y2="35.2715" gradientUnits="userSpaceOnUse"><stop stop-color="#E4003D" stop-opacity="0"/><stop offset="0.584" stop-color="#BD294B" stop-opacity="0.584"/><stop offset="1" stop-color="#A64153"/></linearGradient><linearGradient id="paint16_linear_172_1642" x1="43.3087" y1="30.8722" x2="43.3087" y2="19.7584" gradientUnits="userSpaceOnUse"><stop stop-color="#E4003D" stop-opacity="0"/><stop offset="0.584" stop-color="#BD294B" stop-opacity="0.584"/><stop offset="1" stop-color="#A64153"/></linearGradient><radialGradient id="paint17_radial_172_1642" cx="0" cy="0" r="1" gradientUnits="userSpaceOnUse" gradientTransform="translate(39.1039 25.3548) scale(15.8207)"><stop stop-color="#FF4974"/><stop offset="0.407" stop-color="#FE4772"/><stop offset="0.596" stop-color="#FB3F6D"/><stop offset="0.74" stop-color="#F73363"/><stop offset="0.862" stop-color="#F02055"/><stop offset="0.967" stop-color="#E70944"/><stop offset="1" stop-color="#E4003D"/></radialGradient><radialGradient id="paint18_radial_172_1642" cx="0" cy="0" r="1" gradientUnits="userSpaceOnUse" gradientTransform="translate(42.4115 28.4032) scale(9.89602)"><stop stop-color="#FFFCF8"/><stop offset="0.949" stop-color="#FFFCF8" stop-opacity="0.051"/><stop offset="1" stop-color="#FFFCF8" stop-opacity="0"/></radialGradient><radialGradient id="paint19_radial_172_1642" cx="0" cy="0" r="1" gradientUnits="userSpaceOnUse" gradientTransform="translate(46.9328 27.4703) scale(11.8275 12.9049)"><stop stop-color="#FF4974"/><stop offset="0.407" stop-color="#FE4772"/><stop offset="0.596" stop-color="#FB3F6D"/><stop offset="0.74" stop-color="#F73363"/><stop offset="0.862" stop-color="#F02055"/><stop offset="0.967" stop-color="#E70944"/><stop offset="1" stop-color="#E4003D"/></radialGradient><radialGradient id="paint20_radial_172_1642" cx="0" cy="0" r="1" gradientUnits="userSpaceOnUse" gradientTransform="translate(40.1164 25.5674) scale(12.0529 12.0529)"><stop stop-color="#FF4974"/><stop offset="0.407" stop-color="#FE4772"/><stop offset="0.596" stop-color="#FB3F6D"/><stop offset="0.74" stop-color="#F73363"/><stop offset="0.862" stop-color="#F02055"/><stop offset="0.967" stop-color="#E70944"/><stop offset="1" stop-color="#E4003D"/></radialGradient><linearGradient id="paint21_linear_172_1642" x1="46.6831" y1="30.619" x2="39.0162" y2="28.8464" gradientUnits="userSpaceOnUse"><stop stop-color="#E4003D" stop-opacity="0"/><stop offset="0.584" stop-color="#BD294B" stop-opacity="0.584"/><stop offset="1" stop-color="#A64153"/></linearGradient><linearGradient id="paint22_linear_172_1642" x1="41.802" y1="28.4033" x2="44.5785" y2="28.4033" gradientUnits="userSpaceOnUse"><stop stop-color="#FF4974"/><stop offset="0.326" stop-color="#FE4672"/><stop offset="0.532" stop-color="#FB3E6C"/><stop offset="0.705" stop-color="#F52F60"/><stop offset="0.859" stop-color="#EE1A51"/><stop offset="1" stop-color="#E4003D"/></linearGradient><linearGradient id="paint23_linear_172_1642" x1="44.8294" y1="28.5205" x2="37.0622" y2="15.7823" gradientUnits="userSpaceOnUse"><stop stop-color="#E4003D" stop-opacity="0"/><stop offset="0.584" stop-color="#BD294B" stop-opacity="0.584"/><stop offset="1" stop-color="#A64153"/></linearGradient><radialGradient id="paint24_radial_172_1642" cx="0" cy="0" r="1" gradientUnits="userSpaceOnUse" gradientTransform="translate(31.8522 10.9114) scale(11.7704)"><stop stop-color="#FFA700"/><stop offset="0.323" stop-color="#FCA300"/><stop offset="0.665" stop-color="#F39600"/><stop offset="1" stop-color="#E58200"/></radialGradient><linearGradient id="paint25_linear_172_1642" x1="32.4008" y1="9.51551" x2="32.4008" y2="29.71" gradientUnits="userSpaceOnUse"><stop stop-color="#E58200" stop-opacity="0"/><stop offset="0.04" stop-color="#E27F04" stop-opacity="0.039"/><stop offset="0.467" stop-color="#C15D2F" stop-opacity="0.467"/><stop offset="0.802" stop-color="#AD4949" stop-opacity="0.8"/><stop offset="1" stop-color="#A64153"/></linearGradient><linearGradient id="paint26_linear_172_1642" x1="32.4008" y1="14.0358" x2="32.4008" y2="-6.37137" gradientUnits="userSpaceOnUse"><stop stop-color="#E58200" stop-opacity="0"/><stop offset="0.04" stop-color="#E27F04" stop-opacity="0.039"/><stop offset="0.467" stop-color="#C15D2F" stop-opacity="0.467"/><stop offset="0.802" stop-color="#AD4949" stop-opacity="0.8"/><stop offset="1" stop-color="#A64153"/></linearGradient><linearGradient id="paint27_linear_172_1642" x1="32.4008" y1="11.6426" x2="32.4008" y2="18.1691" gradientUnits="userSpaceOnUse"><stop stop-color="#E58200" stop-opacity="0"/><stop offset="0.04" stop-color="#E27F04" stop-opacity="0.039"/><stop offset="0.467" stop-color="#C15D2F" stop-opacity="0.467"/><stop offset="0.802" stop-color="#AD4949" stop-opacity="0.8"/><stop offset="1" stop-color="#A64153"/></linearGradient><linearGradient id="paint28_linear_172_1642" x1="32.4008" y1="13.7698" x2="32.4008" y2="2.65607" gradientUnits="userSpaceOnUse"><stop stop-color="#E58200" stop-opacity="0"/><stop offset="0.04" stop-color="#E27F04" stop-opacity="0.039"/><stop offset="0.467" stop-color="#C15D2F" stop-opacity="0.467"/><stop offset="0.802" stop-color="#AD4949" stop-opacity="0.8"/><stop offset="1" stop-color="#A64153"/></linearGradient><radialGradient id="paint29_radial_172_1642" cx="0" cy="0" r="1" gradientUnits="userSpaceOnUse" gradientTransform="translate(28.196 8.25258) scale(15.8207 15.8207)"><stop stop-color="#FFC738"/><stop offset="0.284" stop-color="#FFC534"/><stop offset="0.539" stop-color="#FFBF29"/><stop offset="0.783" stop-color="#FFB417"/><stop offset="1" stop-color="#FFA700"/></radialGradient><radialGradient id="paint30_radial_172_1642" cx="0" cy="0" r="1" gradientUnits="userSpaceOnUse" gradientTransform="translate(31.5034 11.301) scale(9.89602 9.89602)"><stop stop-color="#FFFCF8"/><stop offset="0.949" stop-color="#FFFCF8" stop-opacity="0.051"/><stop offset="1" stop-color="#FFFCF8" stop-opacity="0"/></radialGradient><radialGradient id="paint31_radial_172_1642" cx="0" cy="0" r="1" gradientUnits="userSpaceOnUse" gradientTransform="translate(32.2314 10.2439) scale(11.8275 12.9049)"><stop stop-color="#FFA700"/><stop offset="0.323" stop-color="#FCA300"/><stop offset="0.665" stop-color="#F39600"/><stop offset="1" stop-color="#E58200"/></radialGradient><radialGradient id="paint32_radial_172_1642" cx="0" cy="0" r="1" gradientUnits="userSpaceOnUse" gradientTransform="translate(29.2085 8.46502) scale(12.0529 12.0529)"><stop stop-color="#FFC738"/><stop offset="0.284" stop-color="#FFC534"/><stop offset="0.539" stop-color="#FFBF29"/><stop offset="0.783" stop-color="#FFB417"/><stop offset="1" stop-color="#FFA700"/></radialGradient><linearGradient id="paint33_linear_172_1642" x1="35.7751" y1="13.5167" x2="28.1082" y2="11.744" gradientUnits="userSpaceOnUse"><stop stop-color="#FFA700" stop-opacity="0"/><stop offset="0.021" stop-color="#FEA600" stop-opacity="0.02"/><stop offset="0.635" stop-color="#EC8C00" stop-opacity="0.635"/><stop offset="1" stop-color="#E58200"/></linearGradient><linearGradient id="paint34_linear_172_1642" x1="30.894" y1="11.301" x2="33.6705" y2="11.301" gradientUnits="userSpaceOnUse"><stop stop-color="#FFA700"/><stop offset="0.323" stop-color="#FCA300"/><stop offset="0.665" stop-color="#F39600"/><stop offset="1" stop-color="#E58200"/></linearGradient><linearGradient id="paint35_linear_172_1642" x1="51.0935" y1="44.49" x2="7.89366" y2="44.49" gradientUnits="userSpaceOnUse"><stop stop-color="#FFC738"/><stop offset="0.429" stop-color="#FFBB23"/><stop offset="1" stop-color="#FFA700"/></linearGradient><linearGradient id="paint36_linear_172_1642" x1="27.1723" y1="40.6664" x2="38.5237" y2="25.7304" gradientUnits="userSpaceOnUse"><stop stop-color="#FF5D00" stop-opacity="0"/><stop offset="1" stop-color="#D54003"/></linearGradient><linearGradient id="paint37_linear_172_1642" x1="35.3328" y1="41.9781" x2="16.0485" y2="41.9781" gradientUnits="userSpaceOnUse"><stop stop-color="#FFC738"/><stop offset="0.429" stop-color="#FFBB23"/><stop offset="1" stop-color="#FFA700"/></linearGradient><linearGradient id="paint38_linear_172_1642" x1="15.464" y1="44.6529" x2="13.3947" y2="46.7223" gradientUnits="userSpaceOnUse"><stop stop-color="#FFFCF8"/><stop offset="0.188" stop-color="#FAF8F6"/><stop offset="0.404" stop-color="#ECEEF2"/><stop offset="0.635" stop-color="#D5DCEA"/><stop offset="0.875" stop-color="#B5C4DF"/><stop offset="1" stop-color="#A1B5D8"/></linearGradient><linearGradient id="paint39_linear_172_1642" x1="10.4518" y1="49.9058" x2="17.0419" y2="56.4957" gradientUnits="userSpaceOnUse"><stop stop-color="#3B395F"/><stop offset="0.063" stop-color="#37355A"/><stop offset="0.403" stop-color="#232543"/><stop offset="0.723" stop-color="#171B35"/><stop offset="1" stop-color="#131830"/></linearGradient></defs></svg>