<svg xmlns="http://www.w3.org/2000/svg"><symbol id="exchange" viewBox="0 0 40 40" fill="none"><rect width="40" height="40" rx="20" fill="currentColor"/><path d="M25.2798 19.2C25.0898 19.2 24.8997 19.13 24.7497 18.98C24.4597 18.69 24.4597 18.21 24.7497 17.92L27.9397 14.73L24.7497 11.5399C24.4597 11.2499 24.4597 10.77 24.7497 10.48C25.0397 10.19 25.5197 10.19 25.8097 10.48L29.5298 14.2C29.6698 14.34 29.7497 14.53 29.7497 14.73C29.7497 14.93 29.6698 15.12 29.5298 15.26L25.8097 18.98C25.6597 19.12 25.4698 19.2 25.2798 19.2Z" fill="white"/><path d="M29 15.48H11C10.59 15.48 10.25 15.14 10.25 14.73C10.25 14.32 10.59 13.98 11 13.98H29C29.41 13.98 29.75 14.32 29.75 14.73C29.75 15.14 29.41 15.48 29 15.48Z" fill="white"/><path d="M14.72 29.75C14.53 29.75 14.34 29.68 14.19 29.53L10.47 25.81C10.33 25.67 10.25 25.48 10.25 25.28C10.25 25.08 10.33 24.89 10.47 24.75L14.19 21.03C14.48 20.74 14.96 20.74 15.25 21.03C15.54 21.32 15.54 21.8 15.25 22.09L12.06 25.28L15.25 28.4699C15.54 28.7599 15.54 29.24 15.25 29.53C15.11 29.68 14.92 29.75 14.72 29.75Z" fill="white"/><path d="M29 26.02H11C10.59 26.02 10.25 25.68 10.25 25.27C10.25 24.86 10.59 24.52 11 24.52H29C29.41 24.52 29.75 24.86 29.75 25.27C29.75 25.68 29.41 26.02 29 26.02Z" fill="white"/></symbol><symbol id="arrow-square-left" viewBox="0 0 40 40" fill="none"><path d="M26.9834 3.3335H13.0167C6.95004 3.3335 3.33337 6.95016 3.33337 13.0168V26.9668C3.33337 33.0502 6.95004 36.6668 13.0167 36.6668H26.9667C33.0334 36.6668 36.65 33.0502 36.65 26.9835V13.0168C36.6667 6.95016 33.05 3.3335 26.9834 3.3335ZM22.9834 25.0002C23.4667 25.4835 23.4667 26.2835 22.9834 26.7668C22.7334 27.0168 22.4167 27.1335 22.1 27.1335C21.7834 27.1335 21.4667 27.0168 21.2167 26.7668L15.3334 20.8835C14.85 20.4002 14.85 19.6002 15.3334 19.1168L21.2167 13.2335C21.7 12.7502 22.5 12.7502 22.9834 13.2335C23.4667 13.7168 23.4667 14.5168 22.9834 15.0002L17.9834 20.0002L22.9834 25.0002Z" fill="currentColor"/></symbol><symbol id="arrow-square-right" viewBox="0 0 40 40" fill="none"><path d="M26.9834 3.3335H13.0167C6.95004 3.3335 3.33337 6.95016 3.33337 13.0168V26.9668C3.33337 33.0502 6.95004 36.6668 13.0167 36.6668H26.9667C33.0334 36.6668 36.65 33.0502 36.65 26.9835V13.0168C36.6667 6.95016 33.05 3.3335 26.9834 3.3335ZM24.65 20.8835L18.7667 26.7668C18.5167 27.0168 18.2 27.1335 17.8834 27.1335C17.5667 27.1335 17.25 27.0168 17 26.7668C16.5167 26.2835 16.5167 25.4835 17 25.0002L22 20.0002L17 15.0002C16.5167 14.5168 16.5167 13.7168 17 13.2335C17.4834 12.7502 18.2834 12.7502 18.7667 13.2335L24.65 19.1168C25.15 19.6002 25.15 20.4002 24.65 20.8835Z" fill="currentColor"/></symbol><symbol id="star" viewBox="0 0 24 24" fill="none"><path d="M21.3536 9.04257L15.358 8.1301L12.6778 2.44017C12.6046 2.28438 12.4841 2.15827 12.3354 2.08161C11.9623 1.88873 11.5089 2.04947 11.3223 2.44017L8.64213 8.1301L2.64652 9.04257C2.48122 9.0673 2.33009 9.1489 2.21438 9.27254C2.07449 9.4231 1.99741 9.62566 2.00007 9.8357C2.00272 10.0457 2.0849 10.2461 2.22855 10.3927L6.56645 14.8215L5.5416 21.0753C5.51757 21.2207 5.53294 21.3704 5.58598 21.5071C5.63901 21.6439 5.72759 21.7624 5.84166 21.8492C5.95573 21.9359 6.09074 21.9875 6.23137 21.998C6.37199 22.0085 6.51262 21.9775 6.63729 21.9086L12 18.9561L17.3628 21.9086C17.5092 21.9902 17.6792 22.0174 17.8422 21.9877C18.2531 21.9135 18.5293 21.5055 18.4585 21.0753L17.4336 14.8215L21.7715 10.3927C21.8896 10.2716 21.9675 10.1133 21.9912 9.9402C22.0549 9.50746 21.7668 9.10686 21.3536 9.04257Z" fill="currentColor"/></symbol><symbol id="" viewBox="" fill="none"/><symbol id="" viewBox="" fill="none"/><symbol id="" viewBox="" fill="none"/><symbol id="" viewBox="" fill="none"/><symbol id="" viewBox="" fill="none"/><symbol id="" viewBox="" fill="none"/><symbol id="" viewBox="" fill="none"/><symbol id="" viewBox="" fill="none"/><symbol id="" viewBox="" fill="none"/><symbol id="" viewBox="" fill="none"/><symbol id="" viewBox="" fill="none"/><symbol id="" viewBox="" fill="none"/><symbol id="" viewBox="" fill="none"/><symbol id="" viewBox="" fill="none"/><symbol id="" viewBox="" fill="none"/><symbol id="" viewBox="" fill="none"/><symbol id="" viewBox="" fill="none"/><symbol id="" viewBox="" fill="none"/></svg>