<svg width="60" height="61" viewBox="0 0 60 61" fill="none" xmlns="http://www.w3.org/2000/svg"><g clip-path="url(#clip0_172_1502)"><path d="M8.14813 19.6261C7.52606 19.7971 6.94901 20.1023 6.45758 20.5202H54.4898V11.8071C54.4898 9.33025 52.132 7.53306 49.7437 8.18954L8.14813 19.6261Z" fill="url(#paint0_linear_172_1502)"/><path d="M8.25932 20.5203H54.4898V11.8068C54.4898 9.32988 52.132 7.53316 49.7437 8.18953L8.14858 19.6259L8.12936 19.6314C7.6258 19.7723 7.73654 20.5203 8.25932 20.5203Z" fill="url(#paint1_linear_172_1502)"/><path d="M49.5227 15.8895C49.5227 7.45673 41.878 0.620361 32.448 0.620361C23.018 0.620361 15.3738 7.45661 15.3738 15.8895V19.4995C15.3738 27.9323 23.0179 34.769 32.448 34.769C41.8781 34.769 49.5226 27.9323 49.5226 19.4995V15.8895H49.5227Z" fill="url(#paint2_linear_172_1502)"/><path d="M46.5105 7.22856C43.4303 3.23681 38.2814 0.620361 32.448 0.620361C26.6147 0.620361 21.4659 3.23681 18.3861 7.22856V28.1607C21.4658 32.1525 26.6148 34.7689 32.4481 34.7689C38.2815 34.7689 43.4303 32.1525 46.5106 28.1607L46.5105 7.22856Z" fill="url(#paint3_linear_172_1502)"/><path d="M22.4337 31.8664C25.247 33.692 28.7063 34.7691 32.4481 34.7691C36.1894 34.7691 39.6492 33.692 42.4626 31.8664V3.52263C39.6492 1.69755 36.1894 0.620361 32.448 0.620361C28.7062 0.620361 25.2469 1.69708 22.4335 3.52263L22.4337 31.8664Z" fill="url(#paint4_linear_172_1502)"/><path d="M28.5691 34.3726C29.815 34.6316 31.1137 34.769 32.448 34.769C33.7823 34.769 35.0812 34.6317 36.3271 34.3726V1.01633C35.0812 0.756992 33.7824 0.620117 32.4481 0.620117C31.1138 0.620117 29.8149 0.756992 28.569 1.01621L28.5691 34.3726Z" fill="url(#paint5_linear_172_1502)"/><path d="M49.5227 15.8895C49.5227 7.45673 41.878 0.620361 32.448 0.620361C23.018 0.620361 15.3738 7.45661 15.3738 15.8895C15.3738 24.3229 23.0179 31.1592 32.448 31.1592C41.8781 31.1592 49.5226 24.3229 49.5226 15.8897L49.5227 15.8895Z" fill="url(#paint6_radial_172_1502)"/><path d="M47.6184 15.8895C47.6184 8.39731 40.8266 2.32324 32.4481 2.32324C24.07 2.32324 17.2782 8.39731 17.2782 15.8895C17.2782 23.3822 24.07 29.4562 32.4481 29.4562C40.8266 29.4562 47.6184 23.3822 47.6184 15.8895Z" fill="url(#paint7_radial_172_1502)"/><path d="M46.1815 15.8894C46.1815 9.10671 40.0328 3.60815 32.4482 3.60815C24.8635 3.60815 18.7147 9.10671 18.7147 15.8894C18.7147 22.6726 24.8634 28.1712 32.4482 28.1712C40.0329 28.1712 46.1815 22.6726 46.1815 15.8894Z" fill="url(#paint8_radial_172_1502)"/><path d="M48.6841 20.625L36.8023 8.74332C36.6337 8.47918 36.3069 8.25992 35.8213 8.08508C35.2976 7.89687 34.7391 7.76914 34.1477 7.69918C34.1166 7.67923 34.0842 7.66146 34.0506 7.64598L33.1745 6.70766C33.0371 6.60641 32.8888 6.55566 32.73 6.55566C32.5566 6.55566 32.4082 6.60641 32.2855 6.70766C32.1625 6.80879 32.1011 6.92457 32.1011 7.05453V7.68359C30.9296 7.81367 29.9495 8.20402 29.1618 8.855C28.3734 9.50598 27.9793 10.4594 27.9793 11.7155C27.9793 12.1627 28.0297 12.5707 28.1313 12.9388C28.2321 13.3072 28.3985 13.628 28.6302 13.9023C28.8614 14.1765 29.0821 14.4109 29.2917 14.6059C29.2934 14.6071 29.2949 14.6085 29.2964 14.61L32.0255 17.3393C32.0511 17.3662 32.0759 17.3919 32.1011 17.4174V21.0461C31.46 21.0027 30.8958 20.837 30.4077 20.5481C29.9197 20.2598 29.5362 19.9891 29.2569 19.7364C28.9777 19.4838 28.7524 19.3575 28.5807 19.3575C28.3218 19.3575 28.092 19.4948 27.8905 19.769C27.6895 20.0432 27.5889 20.3175 27.5889 20.5917C27.5889 21.0301 27.8361 21.4618 28.33 21.8875L37.0417 30.5993C42.5426 29.2282 46.9235 25.4563 48.6841 20.625Z" fill="url(#paint9_linear_172_1502)"/><path d="M27.589 20.5917C27.589 20.3175 27.6892 20.0432 27.8906 19.769C28.0921 19.4948 28.3219 19.3575 28.5809 19.3575C28.7525 19.3575 28.9778 19.4838 29.257 19.7364C29.5363 19.9892 29.9198 20.2597 30.4078 20.5481C30.8959 20.837 31.4602 21.0027 32.1012 21.0461V15.959C31.6672 15.8001 31.3344 15.6738 31.1032 15.58C30.8716 15.4866 30.5644 15.3492 30.1813 15.1689C29.7981 14.9885 29.5016 14.801 29.2918 14.6059C29.0822 14.4109 28.8615 14.1765 28.6304 13.9023C28.3988 13.628 28.2321 13.3072 28.1314 12.9388C28.0302 12.5707 27.9795 12.1627 27.9795 11.7155C27.9795 10.4594 28.3732 9.50598 29.1619 8.855C29.9496 8.20402 30.9298 7.81355 32.1012 7.68359V7.05465C32.1012 6.92457 32.1625 6.80879 32.2856 6.70766C32.4083 6.60641 32.5566 6.55566 32.7301 6.55566C32.8889 6.55566 33.0373 6.60641 33.1746 6.70766C33.312 6.80879 33.3811 6.92457 33.3811 7.05453V7.64012C34.2627 7.66941 35.0761 7.81766 35.8214 8.08508C36.5657 8.35285 36.9383 8.72492 36.9383 9.20188C36.9383 9.46238 36.8504 9.73344 36.6756 10.0154C36.5007 10.2973 36.2672 10.4384 35.9756 10.4384C35.8608 10.4384 35.5436 10.3157 35.0258 10.0694C34.5093 9.82394 33.9515 9.6769 33.3811 9.63582V14.0319C33.956 14.2483 34.4344 14.4539 34.8152 14.6489C35.1961 14.8439 35.5993 15.1145 36.0237 15.461C36.448 15.807 36.768 16.2438 36.9837 16.7707C37.1993 17.2971 37.3072 17.9142 37.3072 18.6214C37.3072 19.9132 36.9548 20.9404 36.2498 21.7021C35.5448 22.4643 34.5891 22.9321 33.3811 23.1065V23.8312C33.3811 23.9589 33.312 24.0729 33.1746 24.1722C33.0373 24.2716 32.8889 24.3214 32.7301 24.3214C32.5567 24.3214 32.4083 24.2716 32.2856 24.1726C32.1626 24.073 32.1012 23.9593 32.1012 23.8316V23.172C30.8427 23.1574 29.7762 22.8695 28.9014 22.3082C28.0261 21.7469 27.5889 21.1748 27.5889 20.5916L27.589 20.5917ZM30.1273 11.4995C30.1273 12.0625 30.3021 12.4919 30.6532 12.7876C31.0034 13.0834 31.5298 13.3612 32.2311 13.6208V9.67754C30.8285 9.85098 30.1273 10.458 30.1273 11.4995ZM33.251 21.0027C34.5232 20.7719 35.16 20.0574 35.16 18.8594C35.16 18.225 34.9932 17.7269 34.6609 17.3662C34.3281 17.0055 33.858 16.6951 33.2511 16.435L33.251 21.0027Z" fill="url(#paint10_linear_172_1502)"/><path d="M32.448 34.769C36.3404 34.769 39.928 33.6034 42.8 31.6424L18.3861 7.22852C16.4867 9.68945 15.3739 12.673 15.3739 15.8894V19.4993C15.3734 27.9321 23.018 34.7689 32.4481 34.7689L32.448 34.769Z" fill="url(#paint11_linear_172_1502)"/><path d="M58.9155 24.9455V55.8725C58.9155 58.3164 56.9344 60.2976 54.4903 60.2976H9.3219C6.87784 60.2976 4.89667 58.3164 4.89667 55.8725V23.8935C4.89644 23.2518 5.03577 22.6178 5.305 22.0353C5.57423 21.4528 5.96692 20.9359 6.45585 20.5203H54.4903C56.9344 20.5203 58.9155 22.5014 58.9155 24.9455Z" fill="url(#paint12_linear_172_1502)"/><path d="M4.89618 24.7935H51.2449C53.2054 24.7935 54.7949 26.2569 54.7949 28.0628V52.1938C54.7949 53.9992 53.2056 55.4632 51.2449 55.4632H4.89618V24.7935Z" fill="url(#paint13_linear_172_1502)"/><path d="M58.9151 55.8725V32.5119C58.7309 32.4431 58.5358 32.4079 58.3392 32.408H43.4904C42.5729 32.408 41.8295 33.1514 41.8295 34.0687V41.8842C41.8295 42.4335 42.0972 42.9196 42.5088 43.2218L57.9354 58.6479C58.5706 57.8625 58.9165 56.8826 58.9151 55.8725Z" fill="url(#paint14_linear_172_1502)"/><path d="M58.3392 43.5449H43.4904C42.5729 43.5449 41.8295 42.8016 41.8295 41.8842V34.0687C41.8295 33.1514 42.5729 32.408 43.4902 32.408H58.3392C59.2565 32.408 60 33.1514 60 34.0687V41.8842C60 42.8011 59.2565 43.5449 58.3392 43.5449Z" fill="url(#paint15_linear_172_1502)"/><path d="M4.89618 45.9368V55.8725C4.89618 58.3165 6.87747 60.2976 9.32141 60.2976H54.4898C56.9339 60.2976 58.915 58.3165 58.915 55.8725V45.9368H4.89618Z" fill="url(#paint16_linear_172_1502)"/><path d="M50.1778 35.6438C49.5419 34.9415 48.6232 34.5007 47.6014 34.5007C45.682 34.5007 44.1261 36.0566 44.1261 37.976C44.1261 38.9978 44.567 39.9164 45.2687 40.5523L48.2611 43.5447H58.0791L50.1778 35.6438Z" fill="url(#paint17_linear_172_1502)"/><path d="M51.0773 37.976C51.0773 39.8959 49.5213 41.4518 47.6015 41.4518C45.682 41.4518 44.1261 39.8959 44.1261 37.976C44.1261 36.0566 45.682 34.5007 47.6014 34.5007C49.5213 34.5007 51.0773 36.0566 51.0773 37.976Z" fill="url(#paint18_linear_172_1502)"/><path d="M20.105 22.0932C19.3016 22.0932 18.6501 21.4417 18.6501 20.6384V20.5239L18.6506 20.5203H6.45585C5.96692 20.9359 5.57423 21.4528 5.305 22.0353C5.03577 22.6178 4.89644 23.2518 4.89667 23.8935V30.0243L35.1699 60.2976H54.4903C55.9318 60.2976 57.2117 59.6083 58.0198 58.5416L22.6071 23.1294C22.2786 22.8008 21.8885 22.5401 21.4592 22.3623C21.0299 22.1845 20.5697 22.093 20.105 22.0932Z" fill="url(#paint19_linear_172_1502)"/><path d="M18.6218 16.0007V34.8382C18.6218 35.6461 17.9667 35.5551 17.1588 35.5551H5.51693C4.70903 35.5551 4.05396 35.6461 4.05396 34.8382V16.0007C4.05396 14.8824 3.14751 13.976 2.02919 13.976C0.224738 13.976 -0.678426 11.7948 0.597394 10.519L9.90583 1.21045C10.6968 0.419434 11.9786 0.419434 12.7697 1.21045L22.0782 10.519C23.354 11.7948 22.4509 13.976 20.6464 13.976C19.5281 13.976 18.6217 14.8824 18.6217 16.0007H18.6218Z" fill="url(#paint20_linear_172_1502)"/></g><defs><linearGradient id="paint0_linear_172_1502" x1="30.4738" y1="10.9329" x2="30.4738" y2="21.8585" gradientUnits="userSpaceOnUse"><stop stop-color="#4F4A72"/><stop offset="1" stop-color="#3B395F"/></linearGradient><linearGradient id="paint1_linear_172_1502" x1="31.1471" y1="13.6368" x2="31.1471" y2="30.2375" gradientUnits="userSpaceOnUse"><stop stop-color="#B53759" stop-opacity="0"/><stop offset="1" stop-color="#FFB5B0"/></linearGradient><linearGradient id="paint2_linear_172_1502" x1="15.3738" y1="17.6946" x2="49.5224" y2="17.6946" gradientUnits="userSpaceOnUse"><stop stop-color="#FFC738"/><stop offset="0.234" stop-color="#FEC33A"/><stop offset="0.445" stop-color="#FBB840"/><stop offset="0.647" stop-color="#F6A649"/><stop offset="0.843" stop-color="#F08D56"/><stop offset="1" stop-color="#E97264"/></linearGradient><linearGradient id="paint3_linear_172_1502" x1="30.8229" y1="14.5688" x2="44.8569" y2="41.5575" gradientUnits="userSpaceOnUse"><stop stop-color="#FCA17A" stop-opacity="0"/><stop offset="0.152" stop-color="#F69373" stop-opacity="0.153"/><stop offset="0.416" stop-color="#EF816B" stop-opacity="0.416"/><stop offset="0.693" stop-color="#EA7666" stop-opacity="0.694"/><stop offset="1" stop-color="#E97264"/></linearGradient><linearGradient id="paint4_linear_172_1502" x1="31.9228" y1="23.0229" x2="30.2653" y2="39.8356" gradientUnits="userSpaceOnUse"><stop stop-color="#E97264" stop-opacity="0"/><stop offset="1" stop-color="#B53759"/></linearGradient><linearGradient id="paint5_linear_172_1502" x1="29.0663" y1="23.8796" x2="23.9422" y2="33.2513" gradientUnits="userSpaceOnUse"><stop stop-color="#E97264" stop-opacity="0"/><stop offset="1" stop-color="#B53759"/></linearGradient><radialGradient id="paint6_radial_172_1502" cx="0" cy="0" r="1" gradientUnits="userSpaceOnUse" gradientTransform="translate(27.6806 4.8362) scale(32.1928 28.7898)"><stop stop-color="#FFC738"/><stop offset="0.234" stop-color="#FEC33A"/><stop offset="0.445" stop-color="#FBB840"/><stop offset="0.647" stop-color="#F6A649"/><stop offset="0.843" stop-color="#F08D56"/><stop offset="1" stop-color="#E97264"/></radialGradient><radialGradient id="paint7_radial_172_1502" cx="0" cy="0" r="1" gradientUnits="userSpaceOnUse" gradientTransform="translate(33.6229 19.7679) rotate(180) scale(23.7427 21.2329)"><stop stop-color="#FFC738"/><stop offset="0.234" stop-color="#FEC33A"/><stop offset="0.445" stop-color="#FBB840"/><stop offset="0.647" stop-color="#F6A649"/><stop offset="0.843" stop-color="#F08D56"/><stop offset="1" stop-color="#E97264"/></radialGradient><radialGradient id="paint8_radial_172_1502" cx="0" cy="0" r="1" gradientUnits="userSpaceOnUse" gradientTransform="translate(30.1119 8.37378) scale(26.7298 23.9043)"><stop stop-color="#FFC738"/><stop offset="0.234" stop-color="#FEC33A"/><stop offset="0.445" stop-color="#FBB840"/><stop offset="0.647" stop-color="#F6A649"/><stop offset="0.843" stop-color="#F08D56"/><stop offset="1" stop-color="#E97264"/></radialGradient><linearGradient id="paint9_linear_172_1502" x1="41.9562" y1="22.9166" x2="21.8848" y2="9.74047" gradientUnits="userSpaceOnUse"><stop stop-color="#E97264" stop-opacity="0"/><stop offset="1" stop-color="#B53759"/></linearGradient><linearGradient id="paint10_linear_172_1502" x1="36.345" y1="15.4387" x2="21.0443" y2="15.4387" gradientUnits="userSpaceOnUse"><stop stop-color="#FFC738"/><stop offset="1" stop-color="#E97264"/></linearGradient><linearGradient id="paint11_linear_172_1502" x1="33.4105" y1="32.8104" x2="9.24043" y2="8.6405" gradientUnits="userSpaceOnUse"><stop stop-color="#E97264" stop-opacity="0"/><stop offset="1" stop-color="#B53759"/></linearGradient><linearGradient id="paint12_linear_172_1502" x1="31.9063" y1="29.7086" x2="31.9063" y2="64.568" gradientUnits="userSpaceOnUse"><stop stop-color="#4F4A72"/><stop offset="1" stop-color="#3B395F"/></linearGradient><linearGradient id="paint13_linear_172_1502" x1="26.2709" y1="24.7453" x2="39.0371" y2="84.9514" gradientUnits="userSpaceOnUse"><stop stop-color="#B53759" stop-opacity="0"/><stop offset="1" stop-color="#FFB5B0"/></linearGradient><linearGradient id="paint14_linear_172_1502" x1="52.0166" y1="39.1849" x2="65.6594" y2="52.8278" gradientUnits="userSpaceOnUse"><stop stop-color="#B53759" stop-opacity="0"/><stop offset="1" stop-color="#FFB5B0"/></linearGradient><linearGradient id="paint15_linear_172_1502" x1="50.4901" y1="34.7757" x2="52.6301" y2="50.908" gradientUnits="userSpaceOnUse"><stop stop-color="#00E7B2"/><stop offset="0.414" stop-color="#1FA999"/><stop offset="1" stop-color="#4F4A72"/></linearGradient><linearGradient id="paint16_linear_172_1502" x1="31.9058" y1="51.5339" x2="31.9058" y2="61.863" gradientUnits="userSpaceOnUse"><stop stop-color="#B53759" stop-opacity="0"/><stop offset="1" stop-color="#FFB5B0"/></linearGradient><linearGradient id="paint17_linear_172_1502" x1="52.8425" y1="43.2171" x2="43.8802" y2="34.2549" gradientUnits="userSpaceOnUse"><stop stop-color="#3B395F" stop-opacity="0"/><stop offset="1" stop-color="#3B395F"/></linearGradient><linearGradient id="paint18_linear_172_1502" x1="45.453" y1="35.8276" x2="49.3372" y2="39.7118" gradientUnits="userSpaceOnUse"><stop stop-color="#FFB5B0"/><stop offset="1" stop-color="#FF70AC"/></linearGradient><linearGradient id="paint19_linear_172_1502" x1="37.2677" y1="50.0926" x2="14.2045" y2="27.0294" gradientUnits="userSpaceOnUse"><stop stop-color="#4F4A72" stop-opacity="0"/><stop offset="1" stop-color="#3B395F"/></linearGradient><linearGradient id="paint20_linear_172_1502" x1="4.40263" y1="7.40116" x2="22.0089" y2="18.8271" gradientUnits="userSpaceOnUse"><stop stop-color="#FE5694"/><stop offset="1" stop-color="#E41F2D"/></linearGradient><clipPath id="clip0_172_1502"><rect width="60" height="60" fill="white" transform="translate(0 0.5)"/></clipPath></defs></svg>