<svg width="133" height="126" viewBox="0 0 133 126" fill="none" xmlns="http://www.w3.org/2000/svg"><g clip-path="url(#clip0_31_175)"><path d="M62.6853 90.3138H105.903C106.742 90.3138 107.422 89.6642 107.422 88.8638V79.2204L128.782 96.8427C129.223 97.2081 129.859 97.3027 130.406 97.065C130.949 96.829 131.295 96.3129 131.295 95.7465V42.0791C131.295 41.5128 130.949 40.9966 130.408 40.7607C129.871 40.5268 129.236 40.6117 128.784 40.9811L107.422 58.5839V48.9541C107.422 48.1537 106.742 47.5041 105.903 47.5041H89.9963C97.9944 43.39 103.445 35.3203 103.445 26.0538C103.445 12.6269 92.005 1.70361 77.9424 1.70361C65.2972 1.70361 54.8004 10.5466 52.808 22.0906C49.3861 16.4201 42.9836 12.5844 35.6515 12.5844C24.7315 12.5844 15.8486 21.0678 15.8486 31.4943C15.8486 38.2395 19.5785 44.1556 25.1609 47.5022H13.3905C12.5522 47.5022 11.8719 48.1518 11.8719 48.9523V62.2883H3.22378C2.38549 62.2883 1.70514 62.9379 1.70514 63.7382V74.503C1.70514 75.3035 2.38549 75.953 3.22378 75.953H11.8719V88.8619C11.8719 89.6622 12.5522 90.3119 13.3905 90.3119H56.6087L34.0946 122.034C33.6248 122.697 33.8049 123.6 34.4994 124.048C35.194 124.495 36.1375 124.327 36.6093 123.662L59.6479 91.2031L82.6887 123.662C83.1623 124.329 84.106 124.495 84.7984 124.048C85.4929 123.6 85.6731 122.697 85.2034 122.034L62.6853 90.3138ZM11.7261 73.0569H4.7424V65.1921H11.7261V73.0569ZM128.258 45.246V92.5777L107.422 75.3905V62.4178L128.258 45.246ZM77.9445 4.60553C90.3324 4.60553 100.41 14.2277 100.41 26.0559C100.41 37.8838 90.3324 47.506 77.9445 47.506C65.5564 47.506 55.4787 37.882 55.4787 26.0559C55.4787 14.2277 65.5564 4.60553 77.9445 4.60553ZM65.8926 47.5041H46.1444C50.3743 44.9695 53.5207 40.9579 54.8045 36.2269C57.131 41.0313 61.031 45.0044 65.8926 47.5041ZM18.8858 31.4962C18.8858 22.6687 26.4061 15.4863 35.6515 15.4863C44.8971 15.4863 52.4192 22.6687 52.4192 31.4962C52.4192 40.3238 44.8971 47.5041 35.6515 47.5041C26.4061 47.5041 18.8858 40.3238 18.8858 31.4962ZM14.9091 50.4042H104.385V87.4138H14.9091V50.4042Z" fill="#CAF4DF"/><path d="M77.9445 41.0893C86.627 41.0893 93.6896 34.3459 93.6896 26.0558C93.6896 17.7657 86.627 11.0203 77.9445 11.0203C69.262 11.0203 62.1973 17.7657 62.1973 26.0558C62.1973 34.3459 69.262 41.0893 77.9445 41.0893ZM77.9445 13.9203C84.9524 13.9203 90.6523 19.3645 90.6523 26.0558C90.6523 32.7469 84.9524 38.1893 77.9445 38.1893C70.9364 38.1893 65.2344 32.7469 65.2344 26.0558C65.2344 19.3645 70.9364 13.9203 77.9445 13.9203Z" fill="#CAF4DF"/><path d="M35.6536 19.6892C28.8359 19.6892 23.288 24.9867 23.288 31.4961C23.288 38.0057 28.8359 43.303 35.6536 43.303C42.4712 43.303 48.0193 38.0057 48.0193 31.4961C48.0173 24.9846 42.4712 19.6892 35.6536 19.6892ZM35.6536 40.4029C30.5105 40.4029 26.3251 36.4067 26.3251 31.4961C26.3251 26.5835 30.5105 22.5893 35.6536 22.5893C40.7967 22.5893 44.982 26.5855 44.982 31.4961C44.9799 36.4067 40.7967 40.4029 35.6536 40.4029Z" fill="#CAF4DF"/><path d="M57.2626 59.7341H21.2449C20.4065 59.7341 19.7263 60.3837 19.7263 61.1842V76.6335C19.7263 77.4337 20.4065 78.0835 21.2449 78.0835H57.2626C58.1011 78.0835 58.7814 77.4337 58.7814 76.6335V61.1842C58.7814 60.3837 58.1029 59.7341 57.2626 59.7341ZM55.7441 75.1853H22.7635V62.6342H55.7441V75.1853Z" fill="#CAF4DF"/><path d="M72.4267 61.9287C68.6138 61.9287 65.5119 64.8906 65.5119 68.5309C65.5119 72.1715 68.6138 75.1333 72.4267 75.1333C76.2395 75.1333 79.3415 72.1715 79.3415 68.5309C79.3415 64.8906 76.2416 61.9287 72.4267 61.9287ZM72.4267 72.2333C70.2884 72.2333 68.5492 70.5725 68.5492 68.5309C68.5492 66.4894 70.2884 64.8286 72.4267 64.8286C74.5649 64.8286 76.3043 66.4894 76.3043 68.5309C76.3043 70.5725 74.5649 72.2333 72.4267 72.2333Z" fill="#CAF4DF"/><path d="M92.1709 61.9287C88.3582 61.9287 85.2561 64.8906 85.2561 68.5309C85.2561 72.1715 88.3582 75.1333 92.1709 75.1333C95.9837 75.1333 99.0857 72.1715 99.0857 68.5309C99.0857 64.8906 95.9858 61.9287 92.1709 61.9287ZM92.1709 72.2333C90.0326 72.2333 88.2934 70.5725 88.2934 68.5309C88.2934 66.4894 90.0326 64.8286 92.1709 64.8286C94.3091 64.8286 96.0485 66.4894 96.0485 68.5309C96.0485 70.5725 94.3091 72.2333 92.1709 72.2333Z" fill="#CAF4DF"/><path d="M62.6853 90.3138V89.4625H61.0358L61.9896 90.8061L62.6853 90.3138ZM107.422 79.2204L107.965 78.564L106.57 77.4126V79.2204H107.422ZM128.784 40.9811L128.244 40.3225L128.242 40.3245L128.784 40.9811ZM107.422 58.584H106.57V60.3904L107.965 59.2407L107.422 58.584ZM89.9963 47.5042L89.6059 46.7473L89.9963 48.3555V47.5042ZM52.808 22.0906L52.0779 22.5299L53.2593 24.4879L53.6483 22.2352L52.808 22.0906ZM25.1609 47.5023V48.3536H28.2374L25.5998 46.7723L25.1609 47.5023ZM11.8719 62.2884V63.1397H12.7244V62.2884H11.8719ZM11.8719 75.9531H12.7244V75.1017H11.8719V75.9531ZM56.6087 90.312L57.3042 90.8042L58.2579 89.4606H56.6087V90.312ZM34.4994 124.048L34.0364 124.763L34.0378 124.764L34.4994 124.048ZM59.6479 91.2032L60.3435 90.7109L59.6479 89.731L58.9524 90.7109L59.6479 91.2032ZM11.7261 73.057V73.9083H12.5786V73.057H11.7261ZM4.74239 73.057H3.88983V73.9083H4.74239V73.057ZM4.74239 65.1922V64.3408H3.88983V65.1922H4.74239ZM11.7261 65.1922H12.5786V64.3408H11.7261V65.1922ZM128.258 45.246H129.11V43.4395L127.715 44.5895L128.258 45.246ZM128.258 92.5778L127.715 93.2341L129.11 94.3853V92.5778H128.258ZM107.422 75.3905H106.57V75.7915L106.879 76.0469L107.422 75.3905ZM107.422 62.4178L106.879 61.7612L106.57 62.0166V62.4178H107.422ZM65.8926 47.5042V48.3555L66.2829 46.7473L65.8926 47.5042ZM46.1444 47.5042L45.7056 46.7742L43.0666 48.3555H46.1444V47.5042ZM54.8045 36.227L55.572 35.8565L54.5786 33.8047L53.9816 36.0044L54.8045 36.227ZM14.9091 50.4042V49.5528H14.0566V50.4042H14.9091ZM104.385 50.4042H105.237V49.5528H104.385V50.4042ZM104.385 87.4138V88.2652H105.237V87.4138H104.385ZM14.9091 87.4138H14.0566V88.2652H14.9091V87.4138ZM55.7441 75.1855V76.0369H56.5966V75.1855H55.7441ZM22.7635 75.1855H21.9109V76.0369H22.7635V75.1855ZM22.7635 62.6344V61.783H21.9109V62.6344H22.7635ZM55.7441 62.6344H56.5966V61.783H55.7441V62.6344ZM62.6853 91.1652H105.903V89.4625H62.6853V91.1652ZM105.903 91.1652C107.176 91.1652 108.275 90.17 108.275 88.8638H106.57C106.57 89.1586 106.307 89.4625 105.903 89.4625V91.1652ZM108.275 88.8638V79.2204H106.57V88.8638H108.275ZM106.879 79.8768L128.239 97.4991L129.326 96.1873L107.965 78.564L106.879 79.8768ZM128.239 97.4991C128.929 98.0703 129.906 98.211 130.747 97.8456L130.066 96.2844C129.813 96.3944 129.519 96.3467 129.326 96.1873L128.239 97.4991ZM130.747 97.8456C131.586 97.4809 132.147 96.6675 132.147 95.7465H130.442C130.442 95.9583 130.312 96.1773 130.066 96.2844L130.747 97.8456ZM132.147 95.7465V42.0792H130.442V95.7465H132.147ZM132.147 42.0792C132.147 41.1587 131.586 40.3455 130.749 39.9806L130.067 41.5408C130.311 41.6477 130.442 41.8668 130.442 42.0792H132.147ZM130.749 39.9806C129.923 39.6203 128.946 39.7483 128.244 40.3225L129.324 41.6397C129.525 41.4752 129.82 41.4333 130.067 41.5408L130.749 39.9806ZM128.242 40.3245L106.879 57.9274L107.965 59.2407L129.327 41.6378L128.242 40.3245ZM108.275 58.584V48.9542H106.57V58.584H108.275ZM108.275 48.9542C108.275 47.648 107.176 46.6528 105.903 46.6528V48.3555C106.307 48.3555 106.57 48.6594 106.57 48.9542H108.275ZM105.903 46.6528H89.9963V48.3555H105.903V46.6528ZM90.3866 48.261C98.643 44.0141 104.298 35.667 104.298 26.0538H102.593C102.593 34.9738 97.3458 42.766 89.6059 46.7473L90.3866 48.261ZM104.298 26.0538C104.298 12.1212 92.4393 0.852295 77.9424 0.852295V2.555C91.5705 2.555 102.593 13.1327 102.593 26.0538H104.298ZM77.9424 0.852295C64.9008 0.852295 54.0338 9.9758 51.9679 21.9459L53.6483 22.2352C55.5671 11.1176 65.6938 2.555 77.9424 2.555V0.852295ZM53.5383 21.6512C49.9632 15.7269 43.2845 11.7331 35.6515 11.7331V13.4358C42.6824 13.4358 48.809 17.1133 52.0779 22.5299L53.5383 21.6512ZM35.6515 11.7331C24.2971 11.7331 14.9961 20.5623 14.9961 31.4943H16.7012C16.7012 21.5735 25.1662 13.4358 35.6515 13.4358V11.7331ZM14.9961 31.4943C14.9961 38.5655 18.9068 44.7459 24.722 48.2322L25.5998 46.7723C20.2499 43.5653 16.7012 37.9138 16.7012 31.4943H14.9961ZM25.1609 46.6509H13.3905V48.3536H25.1609V46.6509ZM13.3905 46.6509C12.1178 46.6509 11.0193 47.6462 11.0193 48.9523H12.7244C12.7244 48.6576 12.9866 48.3536 13.3905 48.3536V46.6509ZM11.0193 48.9523V62.2884H12.7244V48.9523H11.0193ZM11.8719 61.437H3.22377V63.1397H11.8719V61.437ZM3.22377 61.437C1.95103 61.437 0.85257 62.4323 0.85257 63.7382H2.5577C2.5577 63.4437 2.81993 63.1397 3.22377 63.1397V61.437ZM0.85257 63.7382V74.5031H2.5577V63.7382H0.85257ZM0.85257 74.5031C0.85257 75.8092 1.95105 76.8044 3.22377 76.8044V75.1017C2.81991 75.1017 2.5577 74.7978 2.5577 74.5031H0.85257ZM3.22377 76.8044H11.8719V75.1017H3.22377V76.8044ZM11.0193 75.9531V88.862H12.7244V75.9531H11.0193ZM11.0193 88.862C11.0193 90.1681 12.1178 91.1633 13.3905 91.1633V89.4606C12.9866 89.4606 12.7244 89.1565 12.7244 88.862H11.0193ZM13.3905 91.1633H56.6087V89.4606H13.3905V91.1633ZM55.913 89.8195L33.3989 121.542L34.7901 122.526L57.3042 90.8042L55.913 89.8195ZM33.3989 121.542C32.6423 122.61 32.9448 124.058 34.0364 124.763L34.9625 123.334C34.6651 123.142 34.6071 122.785 34.7901 122.526L33.3989 121.542ZM34.0378 124.764C35.1011 125.448 36.5595 125.205 37.305 124.154L35.9138 123.17C35.7158 123.449 35.2881 123.543 34.9625 123.334L34.0378 124.764ZM37.305 124.154L60.3435 91.6954L58.9524 90.7109L35.9138 123.17L37.305 124.154ZM58.9524 91.6954L81.993 124.154L83.3842 123.17L60.3435 90.7109L58.9524 91.6954ZM81.993 124.154C82.7407 125.206 84.1994 125.448 85.261 124.764L84.336 123.333C84.0125 123.542 83.584 123.451 83.3842 123.17L81.993 124.154ZM85.261 124.764C86.3526 124.059 86.656 122.61 85.8994 121.542L84.5074 122.526C84.6905 122.784 84.6334 123.141 84.336 123.333L85.261 124.764ZM85.8994 121.542L63.3808 89.8214L61.9896 90.8061L84.5074 122.526L85.8994 121.542ZM11.7261 72.2056H4.74239V73.9083H11.7261V72.2056ZM5.59496 73.057V65.1922H3.88983V73.057H5.59496ZM4.74239 66.0435H11.7261V64.3408H4.74239V66.0435ZM10.8735 65.1922V73.057H12.5786V65.1922H10.8735ZM127.405 45.246V92.5778H129.11V45.246H127.405ZM128.801 91.9214L107.965 74.7341L106.879 76.0469L127.715 93.2341L128.801 91.9214ZM108.275 75.3905V62.4178H106.57V75.3905H108.275ZM107.965 63.0745L128.8 45.9026L127.715 44.5895L106.879 61.7612L107.965 63.0745ZM77.9445 5.45692C89.8979 5.45692 99.5575 14.7335 99.5575 26.0559H101.263C101.263 13.722 90.7669 3.75421 77.9445 3.75421V5.45692ZM99.5575 26.0559C99.5575 37.3782 89.8979 46.6547 77.9445 46.6547V48.3574C90.7669 48.3574 101.263 38.3898 101.263 26.0559H99.5575ZM77.9445 46.6547C65.9909 46.6547 56.3313 37.3763 56.3313 26.0559H54.6262C54.6262 38.3877 65.1219 48.3574 77.9445 48.3574V46.6547ZM56.3313 26.0559C56.3313 14.7335 65.9909 5.45692 77.9445 5.45692V3.75421C65.1219 3.75421 54.6262 13.722 54.6262 26.0559H56.3313ZM65.8926 46.6528H46.1444V48.3555H65.8926V46.6528ZM46.5829 48.2341C50.9917 45.5924 54.2831 41.4039 55.6274 36.4497L53.9816 36.0044C52.7585 40.5118 49.7567 44.3467 45.7056 46.7742L46.5829 48.2341ZM54.0371 36.5977C56.4457 41.5716 60.4797 45.6785 65.5023 48.261L66.2829 46.7473C61.5822 44.3303 57.8165 40.4912 55.572 35.8565L54.0371 36.5977ZM19.7384 31.4962C19.7384 23.1742 26.8408 16.3377 35.6515 16.3377V14.635C25.9715 14.635 18.0333 22.163 18.0333 31.4962H19.7384ZM35.6515 16.3377C44.4626 16.3377 51.5667 23.1744 51.5667 31.4962H53.2718C53.2718 22.1628 45.3314 14.635 35.6515 14.635V16.3377ZM51.5667 31.4962C51.5667 39.818 44.4628 46.6528 35.6515 46.6528V48.3555C45.3314 48.3555 53.2718 40.8297 53.2718 31.4962H51.5667ZM35.6515 46.6528C26.8406 46.6528 19.7384 39.818 19.7384 31.4962H18.0333C18.0333 40.8296 25.9717 48.3555 35.6515 48.3555V46.6528ZM14.9091 51.2555H104.385V49.5528H14.9091V51.2555ZM103.532 50.4042V87.4138H105.237V50.4042H103.532ZM104.385 86.5624H14.9091V88.2652H104.385V86.5624ZM15.7617 87.4138V50.4042H14.0566V87.4138H15.7617ZM77.9445 41.9407C87.0613 41.9407 94.5422 34.8517 94.5422 26.0559H92.8371C92.8371 33.8401 86.1925 40.238 77.9445 40.238V41.9407ZM94.5422 26.0559C94.5422 17.2601 87.0615 10.169 77.9445 10.169V11.8717C86.1924 11.8717 92.8371 18.2713 92.8371 26.0559H94.5422ZM77.9445 10.169C68.8275 10.169 61.3447 17.2599 61.3447 26.0559H63.0499C63.0499 18.2715 69.6963 11.8717 77.9445 11.8717V10.169ZM61.3447 26.0559C61.3447 34.8519 68.8277 41.9407 77.9445 41.9407V40.238C69.6963 40.238 63.0499 33.8401 63.0499 26.0559H61.3447ZM77.9445 14.7717C84.5178 14.7717 89.7997 19.8701 89.7997 26.0559H91.5049C91.5049 18.8591 85.387 13.069 77.9445 13.069V14.7717ZM89.7997 26.0559C89.7997 32.2413 84.5179 37.338 77.9445 37.338V39.0407C85.3869 39.0407 91.5049 33.2529 91.5049 26.0559H89.7997ZM77.9445 37.338C71.3707 37.338 66.087 32.2411 66.087 26.0559H64.3819C64.3819 33.253 70.5021 39.0407 77.9445 39.0407V37.338ZM66.087 26.0559C66.087 19.8703 71.3709 14.7717 77.9445 14.7717V13.069C70.5019 13.069 64.3819 18.8589 64.3819 26.0559H66.087ZM35.6536 18.838C28.4015 18.838 22.4354 24.4809 22.4354 31.4962H24.1405C24.1405 25.4925 29.2704 20.5407 35.6536 20.5407V18.838ZM22.4354 31.4962C22.4354 38.5115 28.4015 44.1544 35.6536 44.1544V42.4517C29.2704 42.4517 24.1405 37.4999 24.1405 31.4962H22.4354ZM35.6536 44.1544C42.9056 44.1544 48.8719 38.5115 48.8719 31.4962H47.1668C47.1668 37.4999 42.0369 42.4517 35.6536 42.4517V44.1544ZM48.8719 31.4962C48.8697 24.4794 42.9058 18.838 35.6536 18.838V20.5407C42.0367 20.5407 47.1649 25.4901 47.1668 31.4962H48.8719ZM35.6536 39.5517C30.945 39.5517 27.1777 35.9011 27.1777 31.4962H25.4726C25.4726 36.9127 30.0761 41.2544 35.6536 41.2544V39.5517ZM27.1777 31.4962C27.1777 27.0894 30.9448 23.4407 35.6536 23.4407V21.738C30.0763 21.738 25.4726 26.0777 25.4726 31.4962H27.1777ZM35.6536 23.4407C40.3623 23.4407 44.1294 27.0913 44.1294 31.4962L45.8345 31.4965C45.8345 26.0802 41.2312 21.738 35.6536 21.738V23.4407ZM44.1294 31.4962C44.1277 35.9018 40.3619 39.5517 35.6536 39.5517V41.2544C41.2315 41.2544 45.8323 36.9123 45.8345 31.4965L44.1294 31.4962ZM57.2626 58.883H21.2449V60.5857H57.2626V58.883ZM21.2449 58.883C19.9722 58.883 18.8737 59.8782 18.8737 61.1843H20.5789C20.5789 60.8898 20.8409 60.5857 21.2449 60.5857V58.883ZM18.8737 61.1843V76.6337H20.5789V61.1843H18.8737ZM18.8737 76.6337C18.8737 77.9398 19.9722 78.935 21.2449 78.935V77.2323C20.8409 77.2323 20.5789 76.9282 20.5789 76.6337H18.8737ZM21.2449 78.935H57.2626V77.2323H21.2449V78.935ZM57.2626 78.935C58.5354 78.935 59.634 77.9398 59.634 76.6337H57.9288C57.9288 76.9282 57.6666 77.2323 57.2626 77.2323V78.935ZM59.634 76.6337V61.1843H57.9288V76.6337H59.634ZM59.634 61.1843C59.634 59.8789 58.5383 58.883 57.2626 58.883V60.5857C57.6678 60.5857 57.9288 60.8891 57.9288 61.1843H59.634ZM55.7441 74.3342H22.7635V76.0369H55.7441V74.3342ZM23.616 75.1855V62.6344H21.9109V75.1855H23.616ZM22.7635 63.4857H55.7441V61.783H22.7635V63.4857ZM54.8915 62.6344V75.1855H56.5966V62.6344H54.8915ZM72.4267 61.0774C68.1796 61.0774 64.6593 64.3847 64.6593 68.531H66.3645C66.3645 65.3963 69.0483 62.7801 72.4267 62.7801V61.0774ZM64.6593 68.531C64.6593 72.6772 68.1796 75.9847 72.4267 75.9847V74.2821C69.0483 74.2821 66.3645 71.6657 66.3645 68.531H64.6593ZM72.4267 75.9847C76.674 75.9847 80.1941 72.6772 80.1941 68.531H78.4889C78.4889 71.6657 75.8051 74.2821 72.4267 74.2821V75.9847ZM80.1941 68.531C80.1941 64.3849 76.676 61.0774 72.4267 61.0774V62.7801C75.8069 62.7801 78.4889 65.3961 78.4889 68.531H80.1941ZM72.4267 71.382C70.7229 71.382 69.4018 70.0668 69.4018 68.531H67.6967C67.6967 71.0784 69.854 73.0847 72.4267 73.0847V71.382ZM69.4018 68.531C69.4018 66.9952 70.7229 65.68 72.4267 65.68V63.9773C69.854 63.9773 67.6967 65.9838 67.6967 68.531H69.4018ZM72.4267 65.68C74.1305 65.68 75.4518 66.9952 75.4518 68.531H77.1569C77.1569 65.9838 74.9994 63.9773 72.4267 63.9773V65.68ZM75.4518 68.531C75.4518 70.0668 74.1305 71.382 72.4267 71.382V73.0847C74.9994 73.0847 77.1569 71.0784 77.1569 68.531H75.4518ZM92.1709 61.0774C87.9238 61.0774 84.4035 64.3847 84.4035 68.531H86.1087C86.1087 65.3963 88.7927 62.7801 92.1709 62.7801V61.0774ZM84.4035 68.531C84.4035 72.6772 87.9238 75.9847 92.1709 75.9847V74.2821C88.7927 74.2821 86.1087 71.6657 86.1087 68.531H84.4035ZM92.1709 75.9847C96.4182 75.9847 99.9383 72.6772 99.9383 68.531H98.2331C98.2331 71.6657 95.5493 74.2821 92.1709 74.2821V75.9847ZM99.9383 68.531C99.9383 64.3849 96.4204 61.0774 92.1709 61.0774V62.7801C95.5511 62.7801 98.2331 65.3961 98.2331 68.531H99.9383ZM92.1709 71.382C90.4671 71.382 89.146 70.0668 89.146 68.531H87.4409C87.4409 71.0784 89.5982 73.0847 92.1709 73.0847V71.382ZM89.146 68.531C89.146 66.9952 90.4671 65.68 92.1709 65.68V63.9773C89.5982 63.9773 87.4409 65.9838 87.4409 68.531H89.146ZM92.1709 65.68C93.8746 65.68 95.196 66.9952 95.196 68.531H96.9011C96.9011 65.9838 94.7436 63.9773 92.1709 63.9773V65.68ZM95.196 68.531C95.196 70.0668 93.8746 71.382 92.1709 71.382V73.0847C94.7436 73.0847 96.9011 71.0784 96.9011 68.531H95.196Z" fill="#CAF4DF"/></g><defs><clipPath id="clip0_31_175"><rect width="133" height="126" fill="white"/></clipPath></defs></svg>