<svg width="100" height="113" viewBox="0 0 100 113" fill="none" xmlns="http://www.w3.org/2000/svg"><path d="M40.8717 1.06235C39.5385 1.124 38.382 2.38206 38.4445 3.7029C38.507 5.02373 39.7772 6.16911 41.1104 6.10693H47.4752V13.7526C36.3349 14.3134 26.1394 18.5458 18.1172 25.2212L12.8661 19.9795L17.4409 15.4473C18.224 14.7187 18.4579 13.4724 17.9917 12.5136C17.5253 11.5548 16.3957 10.9594 15.3325 11.1121C14.7766 11.1917 14.2499 11.4596 13.8606 11.8609L1.13083 24.4723C0.152727 25.3939 0.126001 27.1234 1.07516 28.0741C2.02434 29.0249 3.77012 29.0175 4.71109 28.0588L9.28587 23.5264L14.4176 28.6499C5.73859 37.5093 0.375 49.5577 0.375 62.8584C0.375 89.9925 22.6326 112.043 50.0213 112.043C77.4099 112.043 99.6676 89.9925 99.6676 62.8584C99.6676 49.5577 94.304 37.5093 85.6249 28.6499L90.7567 23.5264L95.3315 28.0588C96.2724 29.0175 98.0181 29.0249 98.9674 28.0741C99.9165 27.1234 99.8897 25.3939 98.9117 24.4723L86.1819 11.8609C85.6517 11.3227 84.8688 11.0393 84.1133 11.1121C83.1494 11.205 82.2695 11.8922 81.9533 12.7991C81.637 13.7061 81.9011 14.7847 82.6017 15.4473L87.1763 19.9795L81.9254 25.2212C73.9031 18.5458 63.7077 14.3134 52.5672 13.7526V6.10693H58.932C60.2772 6.12576 61.5144 4.91734 61.5144 3.58464C61.5144 2.25195 60.2772 1.04351 58.932 1.06235C52.9201 1.06235 46.8656 1.06235 40.8717 1.06235ZM50.0213 18.7184C74.6581 18.7184 94.5756 38.4507 94.5756 62.8584C94.5756 87.2662 74.6581 106.998 50.0213 106.998C25.3844 106.998 5.46693 87.2662 5.46693 62.8584C5.46693 38.4507 25.3844 18.7184 50.0213 18.7184ZM29.3751 40.1184C28.4111 40.2114 27.5313 40.8986 27.2151 41.8054C26.8988 42.7124 27.1629 43.791 27.8635 44.4537L45.1283 61.558C45.0169 61.9727 44.9294 62.4088 44.9294 62.8584C44.9294 65.6445 47.209 67.9031 50.0213 67.9031C52.8335 67.9031 55.1131 65.6445 55.1131 62.8584C55.1131 60.0724 52.8335 57.8138 50.0213 57.8138C49.5674 57.8138 49.1272 57.9005 48.7085 58.0108L31.4436 40.9067C30.9738 40.415 30.2972 40.1235 29.6138 40.1184C29.5344 40.1148 29.4545 40.1148 29.3751 40.1184Z" fill="#1C3929"/></svg>