<svg width="133" height="133" viewBox="0 0 133 133" fill="none" xmlns="http://www.w3.org/2000/svg"><g clip-path="url(#clip0_31_45)"><path d="M46.9744 133.001C21.2235 133.001 0 112.06 0 86.0264C0 60.2753 20.9404 39.052 46.9744 39.052C72.7256 39.052 93.9489 59.9924 93.9489 86.0264C93.9489 112.06 72.7256 133.001 46.9744 133.001ZM46.9744 44.7115C24.0532 44.7115 5.37659 63.1051 5.37659 86.0264C5.37659 108.948 24.0532 127.624 46.9744 127.624C69.8958 127.624 88.2894 108.948 88.2894 86.3094C88.2894 63.1051 69.8958 44.7115 46.9744 44.7115Z" fill="#CAF4DF"/><path d="M46.9745 116.588C30.2788 116.588 16.4128 103.005 16.4128 86.0263C16.4128 69.3305 29.9958 55.4646 46.9745 55.4646C63.6703 55.4646 77.5362 69.0476 77.5362 86.0263C77.5362 102.722 63.6703 116.588 46.9745 116.588ZM46.9745 61.1241C33.1085 61.1241 22.0724 72.4434 22.0724 86.0263C22.0724 99.8923 33.3915 110.928 46.9745 110.928C60.8404 110.928 71.8765 99.6093 71.8765 86.0263C71.8765 72.1603 60.8404 61.1241 46.9745 61.1241Z" fill="#CAF4DF"/><path d="M46.9744 100.175C39.3341 100.175 33.1085 93.9496 33.1085 86.3093C33.1085 78.6688 39.3341 72.4434 46.9744 72.4434C54.615 72.4434 60.8403 78.6688 60.8403 86.3093C60.8403 93.6667 54.615 100.175 46.9744 100.175ZM46.9744 77.5369C42.1638 77.5369 38.485 81.2157 38.485 86.0263C38.485 90.8369 42.1638 94.5157 46.9744 94.5157C51.785 94.5157 55.4638 90.8369 55.4638 86.0263C55.4638 81.4987 51.5021 77.5369 46.9744 77.5369Z" fill="#CAF4DF"/><path d="M105.268 48.3901H84.6106V27.7326L112.343 0.000732422V20.6581H133L105.268 48.3901ZM90.2702 42.7305H103.004L119.7 26.0348H106.966V13.3007L90.2702 29.9964V42.7305Z" fill="#CAF4DF"/><path d="M89.42 47.3804L85.6182 43.5786L44.999 84.1978L48.8008 87.9996L89.42 47.3804Z" fill="#CAF4DF"/><mask id="mask0_31_45" style="mask-type:luminance" maskUnits="userSpaceOnUse" x="0" y="0" width="133" height="134"><path d="M46.9744 133.001C21.2235 133.001 0 112.06 0 86.0264C0 60.2753 20.9404 39.052 46.9744 39.052C72.7256 39.052 93.9489 59.9924 93.9489 86.0264C93.9489 112.06 72.7256 133.001 46.9744 133.001ZM46.9744 44.7115C24.0532 44.7115 5.37659 63.1051 5.37659 86.0264C5.37659 108.948 24.0532 127.624 46.9744 127.624C69.8958 127.624 88.2894 108.948 88.2894 86.3094C88.2894 63.1051 69.8958 44.7115 46.9744 44.7115Z" fill="white"/><path d="M46.9745 116.588C30.2788 116.588 16.4128 103.005 16.4128 86.0263C16.4128 69.3305 29.9958 55.4646 46.9745 55.4646C63.6703 55.4646 77.5362 69.0476 77.5362 86.0263C77.5362 102.722 63.6703 116.588 46.9745 116.588ZM46.9745 61.1241C33.1085 61.1241 22.0724 72.4434 22.0724 86.0263C22.0724 99.8923 33.3915 110.928 46.9745 110.928C60.8404 110.928 71.8765 99.6093 71.8765 86.0263C71.8765 72.1603 60.8404 61.1241 46.9745 61.1241Z" fill="white"/><path d="M46.9744 100.175C39.3341 100.175 33.1085 93.9496 33.1085 86.3093C33.1085 78.6688 39.3341 72.4434 46.9744 72.4434C54.615 72.4434 60.8403 78.6688 60.8403 86.3093C60.8403 93.6667 54.615 100.175 46.9744 100.175ZM46.9744 77.5369C42.1638 77.5369 38.485 81.2157 38.485 86.0263C38.485 90.8369 42.1638 94.5157 46.9744 94.5157C51.785 94.5157 55.4638 90.8369 55.4638 86.0263C55.4638 81.4987 51.5021 77.5369 46.9744 77.5369Z" fill="white"/><path d="M105.268 48.3901H84.6106V27.7326L112.343 0.000732422V20.6581H133L105.268 48.3901ZM90.2702 42.7305H103.004L119.7 26.0348H106.966V13.3007L90.2702 29.9964V42.7305Z" fill="white"/><path d="M89.42 47.3804L85.6182 43.5786L44.999 84.1978L48.8008 87.9996L89.42 47.3804Z" fill="white"/></mask><g mask="url(#mask0_31_45)"><path d="M105.268 48.3901V50.0526H105.957L106.444 49.5657L105.268 48.3901ZM84.6106 48.3901H82.9481V50.0526H84.6106V48.3901ZM84.6106 27.7325L83.4351 26.557L82.9481 27.0439V27.7325H84.6106ZM112.343 0.000698566H114.005V-4.01294L111.167 -1.17487L112.343 0.000698566ZM112.343 20.6581H110.68V22.3206H112.343V20.6581ZM133 20.6581L134.176 21.8337L137.014 18.9956H133V20.6581ZM90.2703 42.7305H88.6078V44.393H90.2703V42.7305ZM103.004 42.7305V44.393H103.693L104.18 43.906L103.004 42.7305ZM119.7 26.0348L120.876 27.2104L123.714 24.3723H119.7V26.0348ZM106.966 26.0348H105.303V27.6973H106.966V26.0348ZM106.966 13.3007H108.628V9.28706L105.79 12.1251L106.966 13.3007ZM90.2703 29.9964L89.0947 28.8208L88.6078 29.3078V29.9964H90.2703ZM85.6183 43.5785L86.7938 42.4029L85.6183 41.2274L84.4427 42.4029L85.6183 43.5785ZM89.4201 47.3803L90.5956 48.5559L91.7712 47.3803L90.5956 46.2048L89.4201 47.3803ZM48.8009 87.9995L47.6253 89.1751L48.8009 90.3506L49.9764 89.1751L48.8009 87.9995ZM44.9991 84.1977L43.8235 83.0221L42.648 84.1977L43.8235 85.3733L44.9991 84.1977ZM46.9745 131.338C22.135 131.338 1.66252 111.136 1.66252 86.0263H-1.66248C-1.66248 112.985 20.3118 134.663 46.9745 134.663V131.338ZM1.66252 86.0263C1.66252 61.1869 21.8651 40.7143 46.9745 40.7143V37.3893C20.0157 37.3893 -1.66248 59.3634 -1.66248 86.0263H1.66252ZM46.9745 40.7143C71.8139 40.7143 92.2864 60.9169 92.2864 86.0263H95.6114C95.6114 59.0675 73.6371 37.3893 46.9745 37.3893V40.7143ZM92.2864 86.0263C92.2864 111.136 71.8139 131.338 46.9745 131.338V134.663C73.6371 134.663 95.6114 112.985 95.6114 86.0263H92.2864ZM46.9745 43.0488C23.1498 43.0488 3.71412 62.1721 3.71412 86.0263H7.03911C7.03911 64.0379 24.9566 46.3738 46.9745 46.3738V43.0488ZM3.71412 86.0263C3.71412 109.866 23.135 129.287 46.9745 129.287V125.962C24.9714 125.962 7.03911 108.029 7.03911 86.0263H3.71412ZM46.9745 129.287C70.8214 129.287 89.9519 109.858 89.9519 86.3092H86.6269C86.6269 108.037 68.9702 125.962 46.9745 125.962V129.287ZM89.9519 86.3092C89.9519 62.1942 70.8214 43.0488 46.9745 43.0488V46.3738C68.9702 46.3738 86.6269 64.0158 86.6269 86.3092H89.9519ZM46.9745 114.926C31.1869 114.926 18.0752 102.077 18.0752 86.0263H14.7503C14.7503 103.933 29.3706 118.251 46.9745 118.251V114.926ZM18.0752 86.0263C18.0752 70.2387 30.924 57.127 46.9745 57.127V53.802C29.0677 53.802 14.7503 68.4224 14.7503 86.0263H18.0752ZM46.9745 57.127C62.7621 57.127 75.8737 69.9757 75.8737 86.0263H79.1987C79.1987 68.1193 64.5783 53.802 46.9745 53.802V57.127ZM75.8737 86.0263C75.8737 101.804 62.7521 114.926 46.9745 114.926V118.251C64.5885 118.251 79.1987 103.64 79.1987 86.0263H75.8737ZM46.9745 59.4615C32.178 59.4615 20.4099 71.5374 20.4099 86.0263H23.7349C23.7349 73.3491 34.039 62.7865 46.9745 62.7865V59.4615ZM20.4099 86.0263C20.4099 100.823 32.4856 112.591 46.9745 112.591V109.266C34.2974 109.266 23.7349 98.9617 23.7349 86.0263H20.4099ZM46.9745 112.591C61.7709 112.591 73.539 100.515 73.539 86.0263H70.2141C70.2141 98.7033 59.91 109.266 46.9745 109.266V112.591ZM73.539 86.0263C73.539 71.2422 61.7586 59.4615 46.9745 59.4615V62.7865C59.9223 62.7865 70.2141 73.0784 70.2141 86.0263H73.539ZM46.9745 98.5127C40.2523 98.5127 34.771 93.0314 34.771 86.3092H31.446C31.446 94.8678 38.4159 101.838 46.9745 101.838V98.5127ZM34.771 86.3092C34.771 79.5869 40.2523 74.1058 46.9745 74.1058V70.7808C38.4159 70.7808 31.446 77.7507 31.446 86.3092H34.771ZM46.9745 74.1058C53.6968 74.1058 59.1779 79.5869 59.1779 86.3092H62.5029C62.5029 77.7507 55.5332 70.7808 46.9745 70.7808V74.1058ZM59.1779 86.3092C59.1779 92.7706 53.6748 98.5127 46.9745 98.5127V101.838C55.555 101.838 62.5029 94.5629 62.5029 86.3092H59.1779ZM46.9745 75.8744C41.2457 75.8744 36.8226 80.2975 36.8226 86.0263H40.1476C40.1476 82.1337 43.082 79.1994 46.9745 79.1994V75.8744ZM36.8226 86.0263C36.8226 91.7551 41.2457 96.1782 46.9745 96.1782V92.8532C43.082 92.8532 40.1476 89.9187 40.1476 86.0263H36.8226ZM46.9745 96.1782C52.7033 96.1782 57.1263 91.7551 57.1263 86.0263H53.8013C53.8013 89.9187 50.867 92.8532 46.9745 92.8532V96.1782ZM57.1263 86.0263C57.1263 80.5804 52.4203 75.8744 46.9745 75.8744V79.1994C50.5839 79.1994 53.8013 82.4168 53.8013 86.0263H57.1263ZM105.268 46.7276H84.6106V50.0526H105.268V46.7276ZM86.2731 48.3901V27.7325H82.9481V48.3901H86.2731ZM85.7862 28.9081L113.518 1.17626L111.167 -1.17487L83.4351 26.557L85.7862 28.9081ZM110.68 0.000698566V20.6581H114.005V0.000698566H110.68ZM112.343 22.3206H133V18.9956H112.343V22.3206ZM131.824 19.4826L104.092 47.2146L106.444 49.5657L134.176 21.8337L131.824 19.4826ZM90.2703 44.393H103.004V41.068H90.2703V44.393ZM104.18 43.906L120.876 27.2104L118.524 24.8592L101.829 41.5549L104.18 43.906ZM119.7 24.3723H106.966V27.6973H119.7V24.3723ZM108.628 26.0348V13.3007H105.303V26.0348H108.628ZM105.79 12.1251L89.0947 28.8208L91.4458 31.1719L108.141 14.4763L105.79 12.1251ZM88.6078 29.9964V42.7305H91.9328V29.9964H88.6078ZM84.4427 44.7541L88.2445 48.5559L90.5956 46.2048L86.7938 42.4029L84.4427 44.7541ZM88.2445 46.2048L47.6253 86.824L49.9764 89.1751L90.5956 48.5559L88.2445 46.2048ZM49.9764 86.824L46.1746 83.0221L43.8235 85.3733L47.6253 89.1751L49.9764 86.824ZM46.1746 85.3733L86.7938 44.7541L84.4427 42.4029L43.8235 83.0221L46.1746 85.3733Z" fill="#CAF4DF"/></g></g><defs><clipPath id="clip0_31_45"><rect width="133" height="133" fill="white"/></clipPath></defs></svg>