<svg width="100" height="100" viewBox="0 0 100 100" fill="none" xmlns="http://www.w3.org/2000/svg"><path d="M9.47155 79.3754C4.9594 79.3754 1.28809 75.704 1.28809 71.192V48.6874C1.28809 44.1753 4.9594 40.5039 9.47155 40.5039C13.9837 40.5039 17.655 44.1753 17.655 48.6874V71.192C17.655 75.704 13.9837 79.3754 9.47155 79.3754ZM9.47155 44.5957C7.21497 44.5957 5.37982 46.4309 5.37982 48.6874V71.192C5.37982 73.4485 7.21497 75.2836 9.47155 75.2836C11.7281 75.2836 13.5633 73.4485 13.5633 71.192V48.6874C13.5633 46.4309 11.7281 44.5957 9.47155 44.5957Z" fill="#CCF7E2"/><path d="M91.3065 79.3754C86.7944 79.3754 83.123 75.704 83.123 71.192V48.6874C83.123 44.1753 86.7944 40.5039 91.3065 40.5039C95.8187 40.5039 99.49 44.1753 99.49 48.6874V71.192C99.49 75.704 95.8187 79.3754 91.3065 79.3754ZM91.3065 44.5957C89.05 44.5957 87.2149 46.4309 87.2149 48.6874V71.192C87.2149 73.4485 89.05 75.2836 91.3065 75.2836C93.5632 75.2836 95.3983 73.4485 95.3983 71.192V48.6874C95.3983 46.4309 93.5632 44.5957 91.3065 44.5957Z" fill="#CCF7E2"/><path d="M75.9626 94.7199H59.5957V90.6281H75.9626C83.295 90.6281 89.2608 84.6624 89.2608 77.3301H93.3525C93.3525 86.919 85.5517 94.7199 75.9626 94.7199Z" fill="#CCF7E2"/><path d="M54.9923 98.8117H49.8777C46.2114 98.8117 43.2285 95.8289 43.2285 92.1627C43.2285 88.4964 46.2114 85.5137 49.8777 85.5137H54.9923C58.6585 85.5137 61.6414 88.4964 61.6414 92.1627C61.6414 95.8289 58.6585 98.8117 54.9923 98.8117ZM49.8777 89.6053C48.467 89.6053 47.3203 90.752 47.3203 92.1627C47.3203 93.5733 48.467 94.7201 49.8777 94.7201H54.9923C56.403 94.7201 57.5496 93.5733 57.5496 92.1627C57.5496 90.752 56.403 89.6053 54.9923 89.6053H49.8777Z" fill="#CCF7E2"/><path d="M93.3522 43.5726H89.2605C89.2605 22.139 71.8226 4.70111 50.389 4.70111C28.9555 4.70111 11.5175 22.139 11.5175 43.5726H7.42578C7.42578 19.8825 26.6988 0.609375 50.389 0.609375C74.0791 0.609375 93.3522 19.8825 93.3522 43.5726Z" fill="#CCF7E2"/></svg>