<svg width="99" height="85" viewBox="0 0 99 85" fill="none" xmlns="http://www.w3.org/2000/svg"><path d="M86.6948 6.84689C82.2864 3.24071 76.6306 1.25456 70.7678 1.25456C63.9881 1.25456 57.4287 3.92565 52.7742 8.58503C51.6882 9.66721 50.6956 10.86 49.7745 12.1815C45.0171 5.34602 37.3315 1.21484 29.05 1.21484C27.5328 1.21484 25.9939 1.35333 24.4757 1.62602C16.6384 3.03994 10.4787 7.31068 6.16776 14.3158C-0.00386465 24.3581 -0.49261 33.6319 4.66902 42.6671C7.43786 47.5069 11.04 52.2414 15.688 57.1391C24.2394 66.1454 34.3601 74.6902 47.5486 84.0379C48.2508 84.5328 48.9986 84.7819 49.7668 84.7819C50.9589 84.7819 51.7652 84.1839 52.2247 83.8403C63.9459 75.5555 73.5637 67.5733 81.6328 59.4291C86.1714 54.847 91.3124 49.2171 95.0707 42.2162C96.6474 39.2682 98.4486 35.311 98.3434 30.8405C98.1072 21.0558 94.1896 12.9824 86.6948 6.84689ZM90.259 39.688C86.8302 46.079 82.0089 51.346 77.7478 55.6511C70.0645 63.4057 60.904 71.0314 49.7496 78.962C37.3336 70.0985 27.7474 61.9714 19.6544 53.4449C15.3065 48.8629 11.9579 44.4686 9.40801 40.0079C5.25096 32.7289 5.69745 25.4565 10.8201 17.1244C14.2868 11.488 19.2122 8.06004 25.4477 6.93384C26.642 6.71806 27.8546 6.6107 29.05 6.6107C36.4808 6.6107 43.0599 10.6699 46.6307 17.4411C46.8345 17.8351 47.0349 18.2108 47.3654 18.8206C47.8379 19.7031 48.7623 20.2507 49.7658 20.2507C49.781 20.2507 49.7972 20.2507 49.8124 20.2507C50.8322 20.2334 51.7577 19.6527 52.2085 18.7455C53.51 16.1303 54.9176 14.1098 56.6429 12.3812C60.2853 8.7364 65.4327 6.65043 70.7688 6.65043C75.3702 6.65043 79.7938 8.19747 83.2249 11.0081C89.4517 16.099 92.705 22.8175 92.9022 30.9683C92.9748 34.1698 91.605 37.1714 90.259 39.688Z" fill="#CCF7E2"/><mask id="mask0_97_976" style="mask-type:luminance" maskUnits="userSpaceOnUse" x="1" y="1" width="98" height="84"><path d="M86.6948 6.84689C82.2864 3.24071 76.6306 1.25456 70.7678 1.25456C63.9881 1.25456 57.4287 3.92565 52.7742 8.58503C51.6882 9.66721 50.6956 10.86 49.7745 12.1815C45.0171 5.34602 37.3315 1.21484 29.05 1.21484C27.5328 1.21484 25.9939 1.35333 24.4757 1.62602C16.6384 3.03994 10.4787 7.31068 6.16776 14.3158C-0.00386465 24.3581 -0.49261 33.6319 4.66902 42.6671C7.43786 47.5069 11.04 52.2414 15.688 57.1391C24.2394 66.1454 34.3601 74.6902 47.5486 84.0379C48.2508 84.5328 48.9986 84.7819 49.7668 84.7819C50.9589 84.7819 51.7652 84.1839 52.2247 83.8403C63.9459 75.5555 73.5637 67.5733 81.6328 59.4291C86.1714 54.847 91.3124 49.2171 95.0707 42.2162C96.6474 39.2682 98.4486 35.311 98.3434 30.8405C98.1072 21.0558 94.1896 12.9824 86.6948 6.84689ZM90.259 39.688C86.8302 46.079 82.0089 51.346 77.7478 55.6511C70.0645 63.4057 60.904 71.0314 49.7496 78.962C37.3336 70.0985 27.7474 61.9714 19.6544 53.4449C15.3065 48.8629 11.9579 44.4686 9.40801 40.0079C5.25096 32.7289 5.69745 25.4565 10.8201 17.1244C14.2868 11.488 19.2122 8.06004 25.4477 6.93384C26.642 6.71806 27.8546 6.6107 29.05 6.6107C36.4808 6.6107 43.0599 10.6699 46.6307 17.4411C46.8345 17.8351 47.0349 18.2108 47.3654 18.8206C47.8379 19.7031 48.7623 20.2507 49.7658 20.2507C49.781 20.2507 49.7972 20.2507 49.8124 20.2507C50.8322 20.2334 51.7577 19.6527 52.2085 18.7455C53.51 16.1303 54.9176 14.1098 56.6429 12.3812C60.2853 8.7364 65.4327 6.65043 70.7688 6.65043C75.3702 6.65043 79.7938 8.19747 83.2249 11.0081C89.4517 16.099 92.705 22.8175 92.9022 30.9683C92.9748 34.1698 91.605 37.1714 90.259 39.688Z" fill="white"/></mask><g mask="url(#mask0_97_976)"><path d="M52.7741 8.58458L53.2421 9.04554L53.243 9.0445L52.7741 8.58458ZM49.7744 12.1811L49.2309 12.5522L49.774 13.3324L50.3174 12.5526L49.7744 12.1811ZM47.5484 84.0375L47.1645 84.5692L47.1658 84.5703L47.5484 84.0375ZM52.2245 83.8399L51.8411 83.3074L51.827 83.318L52.2245 83.8399ZM49.7494 78.9616L49.3636 79.492L49.7486 79.7668L50.1342 79.4927L49.7494 78.9616ZM46.6305 17.4406L47.2179 17.1425L47.2155 17.1378L46.6305 17.4406ZM47.3652 18.8201L47.9484 18.5137L47.9468 18.5109L47.3652 18.8201ZM49.8122 20.2502V20.9041L49.8235 20.9039L49.8122 20.2502ZM87.115 6.34241C82.5851 2.63685 76.7796 0.600268 70.7676 0.600268V1.90796C76.4813 1.90796 81.9875 3.84381 86.2745 7.35062L87.115 6.34241ZM70.7676 0.600268C63.8168 0.600268 57.0868 3.33771 52.3049 8.12465L53.243 9.0445C57.7701 4.5127 64.1593 1.90796 70.7676 1.90796V0.600268ZM52.3059 8.12361C51.1906 9.23522 50.1731 10.4583 49.2312 11.8096L50.3174 12.5526C51.2179 11.2607 52.1857 10.0983 53.2421 9.04554L52.3059 8.12361ZM50.3177 11.8099C45.4421 4.80459 37.5571 0.560547 29.0498 0.560547V1.86824C37.1057 1.86824 44.5918 5.88653 49.2309 12.5522L50.3177 11.8099ZM29.0498 0.560547C27.4924 0.560547 25.9142 0.702681 24.3578 0.982219L24.5932 2.26893C26.0734 2.00309 27.5729 1.86824 29.0498 1.86824V0.560547ZM24.3578 0.982219C16.327 2.43105 10.0086 6.81786 5.60408 13.975L6.73115 14.6558C10.9485 7.8026 16.9495 3.64793 24.5932 2.26893L24.3578 0.982219ZM5.60408 13.975C2.47571 19.0655 0.764609 23.9989 0.509172 28.8346C0.253459 33.6754 1.45883 38.3751 4.09448 42.9888L5.24326 42.3447C2.71728 37.923 1.58621 33.4683 1.82736 28.9028C2.0688 24.3323 3.68788 19.6078 6.73115 14.6558L5.60408 13.975ZM4.09448 42.9888C6.89387 47.8819 10.53 52.6582 15.207 57.5865L16.1687 56.6908C11.5498 51.8237 7.98153 47.131 5.24326 42.3447L4.09448 42.9888ZM15.207 57.5865C23.795 66.6315 33.9507 75.2036 47.1645 84.5692L47.9324 83.5057C34.7691 74.1758 24.6835 65.6587 16.1687 56.6908L15.207 57.5865ZM47.1658 84.5703C47.9669 85.1348 48.8463 85.4353 49.7667 85.4353V84.1276C49.1507 84.1276 48.5345 83.93 47.931 83.5047L47.1658 84.5703ZM49.7667 85.4353C51.1941 85.4353 52.1538 84.712 52.6221 84.3618L51.827 83.318C51.3763 83.655 50.7236 84.1276 49.7667 84.1276V85.4353ZM52.6079 84.3721C64.353 76.0704 74.0019 68.0639 82.1038 59.8866L81.1617 58.9706C73.1253 67.0818 63.5384 75.0394 51.8411 83.3074L52.6079 84.3721ZM82.1038 59.8866C86.6536 55.2932 91.8492 49.6091 95.6532 42.5228L94.4878 41.9087C90.7754 48.8243 85.6889 54.3998 81.1617 58.9706L82.1038 59.8866ZM95.6532 42.5228C97.2409 39.5544 99.1124 35.471 99.0031 30.8249L97.6835 30.8553C97.7845 35.1499 96.0536 38.9812 94.4878 41.9087L95.6532 42.5228ZM99.0031 30.8249C98.7623 20.8544 94.7602 12.601 87.115 6.34241L86.2745 7.35062C93.6191 13.3632 97.4517 21.2565 97.6835 30.8553L99.0031 30.8249ZM89.6761 39.3806C86.2937 45.6852 81.5281 50.8973 77.2764 55.1929L78.2186 56.1087C82.4892 51.7941 87.3665 46.4719 90.8417 39.9944L89.6761 39.3806ZM77.2764 55.1929C69.6253 62.915 60.4957 70.5163 49.3646 78.4304L50.1342 79.4927C61.3121 71.5455 70.5031 63.8958 78.2186 56.1087L77.2764 55.1929ZM50.1352 78.431C37.7441 69.5851 28.1921 61.4852 20.1349 52.9965L19.1733 53.8923C27.3023 62.4565 36.923 70.6108 49.3636 79.492L50.1352 78.431ZM20.1349 52.9965C15.8156 48.4445 12.5011 44.0918 9.98216 39.6853L8.83342 40.3294C11.4143 44.8444 14.7971 49.2802 19.1733 53.8923L20.1349 52.9965ZM9.98216 39.6853C7.95819 36.1414 7.0692 32.6282 7.29278 29.0005C7.51681 25.3654 8.86123 21.5667 11.3836 17.4641L10.2563 16.7837C7.65603 21.013 6.21583 25.0169 5.97524 28.9207C5.73418 32.8321 6.70035 36.5944 8.83342 40.3294L9.98216 39.6853ZM11.3836 17.4641C14.7579 11.978 19.5258 8.66755 25.566 7.57665L25.3293 6.29015C18.8982 7.45164 13.8156 10.997 10.2563 16.7837L11.3836 17.4641ZM25.566 7.57665C26.7208 7.36794 27.894 7.26409 29.0498 7.26409V5.9564C27.815 5.9564 26.5628 6.06727 25.3293 6.29015L25.566 7.57665ZM29.0498 7.26409C36.2228 7.26409 42.5829 11.1773 46.0456 17.7434L47.2155 17.1378C43.5367 10.1617 36.7384 5.9564 29.0498 5.9564V7.26409ZM46.0431 17.7387C46.2497 18.1382 46.4524 18.5182 46.7838 19.1295L47.9468 18.5109C47.6171 17.9025 47.4188 17.531 47.2179 17.1425L46.0431 17.7387ZM46.7822 19.1265C47.3696 20.2235 48.5188 20.9041 49.7656 20.9041V19.5964C49.0056 19.5964 48.306 19.1817 47.9484 18.5137L46.7822 19.1265ZM49.7656 20.9041C49.7658 20.9041 49.7671 20.9041 49.7671 20.9041H49.7685C49.7685 20.9041 49.7699 20.9041 49.77 20.9041C49.77 20.9041 49.7713 20.9041 49.7715 20.9041C49.7715 20.9041 49.7728 20.9041 49.7729 20.9041H49.7742H49.7757H49.7771C49.7773 20.9041 49.7786 20.9041 49.7786 20.9041C49.7787 20.9041 49.78 20.9041 49.78 20.9041C49.78 20.9041 49.7813 20.9041 49.7815 20.9041C49.7815 20.9041 49.7828 20.9041 49.7829 20.9041H49.7844H49.7858C49.7858 20.9041 49.787 20.9041 49.7872 20.9041H49.7886C49.7887 20.9041 49.7901 20.9041 49.7901 20.9041C49.7902 20.9041 49.7915 20.9041 49.7915 20.9041C49.7915 20.9041 49.7928 20.9041 49.793 20.9041H49.7944H49.7959C49.796 20.9041 49.7973 20.9041 49.7973 20.9041C49.7975 20.9041 49.7988 20.9041 49.7988 20.9041H49.8001H49.8015H49.803H49.8045H49.8059H49.8074H49.8088C49.8088 20.9041 49.8101 20.9041 49.8103 20.9041C49.8104 20.9041 49.8122 20.9041 49.8122 20.9041V19.5964C49.8122 19.5964 49.8109 19.5964 49.8108 19.5964C49.8107 19.5964 49.8093 19.5964 49.8093 19.5964C49.8093 19.5964 49.8081 19.5964 49.808 19.5964C49.808 19.5964 49.8067 19.5964 49.8066 19.5964C49.8066 19.5964 49.8052 19.5964 49.8051 19.5964C49.8051 19.5964 49.8038 19.5964 49.8037 19.5964C49.8037 19.5964 49.8023 19.5964 49.8022 19.5964C49.8022 19.5964 49.8009 19.5964 49.8008 19.5964C49.8006 19.5964 49.7994 19.5964 49.7994 19.5964C49.7993 19.5964 49.798 19.5964 49.798 19.5964C49.798 19.5964 49.7967 19.5964 49.7965 19.5964C49.7965 19.5964 49.7952 19.5964 49.7951 19.5964H49.7936H49.7922C49.792 19.5964 49.7907 19.5964 49.7907 19.5964C49.7907 19.5964 49.7894 19.5964 49.7893 19.5964C49.7893 19.5964 49.7879 19.5964 49.7878 19.5964C49.7877 19.5964 49.7865 19.5964 49.7865 19.5964C49.7865 19.5964 49.7852 19.5964 49.785 19.5964H49.7836H49.7821C49.782 19.5964 49.7807 19.5964 49.7807 19.5964C49.7806 19.5964 49.7792 19.5964 49.7792 19.5964C49.7792 19.5964 49.7779 19.5964 49.7778 19.5964C49.7778 19.5964 49.7765 19.5964 49.7763 19.5964C49.7763 19.5964 49.775 19.5964 49.7749 19.5964H49.7736H49.7721H49.7707H49.7692C49.7692 19.5964 49.7679 19.5964 49.7678 19.5964C49.7678 19.5964 49.7658 19.5964 49.7656 19.5964V20.9041ZM49.8235 20.9039C51.0904 20.8826 52.2402 20.161 52.8005 19.0338L51.6163 18.4559C51.2748 19.1431 50.5733 19.5834 49.8008 19.5964L49.8235 20.9039ZM52.8005 19.0338C54.0766 16.4693 55.4456 14.5102 57.1121 12.8405L56.1737 11.9208C54.3897 13.7081 52.9431 15.7898 51.6163 18.4559L52.8005 19.0338ZM57.1121 12.8405C60.6259 9.32415 65.6025 7.30382 70.7687 7.30382V5.99613C65.2628 5.99613 59.9444 8.14747 56.1737 11.9208L57.1121 12.8405ZM70.7687 7.30382C75.2222 7.30382 79.4957 8.80135 82.8041 11.5116L83.6453 10.5038C80.0917 7.59267 75.5179 5.99613 70.7687 5.99613V7.30382ZM82.8041 11.5116C88.8797 16.479 92.0495 23.0178 92.2422 30.9835L93.5619 30.9532C93.3601 22.6175 90.0234 15.7183 83.6453 10.5038L82.8041 11.5116ZM92.2422 30.9835C92.3107 34.0037 91.0168 36.874 89.6761 39.3806L90.8417 39.9944C92.193 37.4681 93.6386 34.3359 93.5619 30.9532L92.2422 30.9835Z" fill="white"/></g></svg>