<svg width="68" height="100" viewBox="0 0 68 100" fill="none" xmlns="http://www.w3.org/2000/svg"><g clip-path="url(#clip0_82_42)"><path d="M47.7247 93.0375H23.6811C23.2697 93.0375 22.875 92.8686 22.5842 92.568C22.2933 92.2673 22.1298 91.8595 22.1298 91.4344V76.5492C21.8799 72.3889 20.5176 68.3819 18.1945 64.9745C11.8607 61.37 6.84641 55.717 3.92122 48.8833C0.996017 42.0494 0.321543 34.4123 2.0013 27.1442C3.68105 19.8761 7.62222 13.3783 13.2199 8.64833C18.8176 3.91836 25.7626 1.21746 32.9888 0.960188C40.2152 0.702913 47.3235 2.90347 53.2228 7.22411C59.1223 11.5448 63.4868 17.7467 65.6464 24.8783C67.8062 32.0097 67.6419 39.6767 65.1786 46.7023C62.7155 53.728 58.0894 59.7242 52.0107 63.7706C50.1365 67.5202 49.195 71.6931 49.2714 75.9128V91.4344C49.2714 91.8587 49.1085 92.2658 48.8186 92.5663C48.5288 92.8667 48.1353 93.0362 47.7247 93.0375ZM25.2323 89.8313H46.1735V75.9128C46.0788 71.1044 47.1762 66.3511 49.3613 62.1048C49.4743 61.7728 49.6931 61.4903 49.9818 61.3033C55.5469 57.7013 59.808 52.3039 62.1058 45.9467C64.4034 39.5894 64.6096 32.6267 62.6923 26.1361C60.775 19.6456 56.841 13.9891 51.4993 10.0422C46.1578 6.0952 39.7063 4.07788 33.1433 4.30239C26.5806 4.52689 20.2723 6.98072 15.1949 11.2841C10.1175 15.5874 6.55414 21.5003 5.05631 28.1078C3.55847 34.7152 4.20967 41.6486 6.90914 47.8348C9.6086 54.0212 14.2058 59.1155 19.9892 62.3294C20.1906 62.4417 20.3654 62.5989 20.5011 62.7894C23.3266 66.8081 24.9699 71.5842 25.2339 76.5444L25.2323 89.8313Z" fill="#1C3929"/><path d="M46.6446 78.4136H24.4096C23.9982 78.4136 23.6036 78.2447 23.3128 77.9441C23.0218 77.6435 22.8584 77.2357 22.8584 76.8105C22.8584 76.3854 23.0218 75.9776 23.3128 75.6769C23.6036 75.3763 23.9982 75.2074 24.4096 75.2074H46.6446C47.056 75.2074 47.4506 75.3763 47.7415 75.6769C48.0323 75.9776 48.1958 76.3854 48.1958 76.8105C48.1958 77.2357 48.0323 77.6435 47.7415 77.9441C47.4506 78.2447 47.056 78.4136 46.6446 78.4136Z" fill="#1C3929"/><path d="M35.4885 78.4135C35.0771 78.4135 34.6826 78.2446 34.3916 77.944C34.1007 77.6434 33.9373 77.2356 33.9373 76.8104V40.3214L28.5313 40.4481C27.8622 40.5324 27.184 40.4012 26.5896 40.0724C25.9951 39.7435 25.5134 39.2332 25.2102 38.6109C24.2795 36.3665 26.4697 33.7276 28.1978 31.9401C28.776 31.2531 29.4951 30.7078 30.3027 30.3439C31.1104 29.9801 31.9864 29.8068 32.867 29.8368C33.6303 29.9276 34.3678 30.1779 35.0345 30.5726C35.7012 30.9671 36.2832 31.4979 36.745 32.1326C36.9372 32.406 37.0409 32.7354 37.0412 33.0735V37.0462C41.639 36.9499 43.2461 36.9371 43.271 36.9371H43.2818C43.6932 36.9357 44.0884 37.1031 44.3803 37.4028C44.6721 37.7023 44.837 38.1095 44.8384 38.5346C44.8399 38.9598 44.6778 39.3682 44.3879 39.6699C44.0979 39.9717 43.704 40.142 43.2926 40.1434C43.2694 40.1434 41.6561 40.1562 37.0397 40.2524V76.804C37.0405 77.0151 37.001 77.2243 36.9235 77.4195C36.8459 77.6148 36.7317 77.7923 36.5875 77.9418C36.4435 78.0914 36.2722 78.2099 36.0835 78.2909C35.895 78.372 35.6927 78.4135 35.4885 78.4135ZM28.1498 37.2257C28.2527 37.2385 28.3562 37.2443 28.4599 37.2434C30.5432 37.192 32.3613 37.1504 33.9389 37.1135V33.6956C33.5777 33.3296 33.1099 33.0968 32.6079 33.0335C32.1791 33.054 31.7595 33.1696 31.3774 33.3724C30.9956 33.5751 30.6604 33.8603 30.3944 34.2085C29.4565 35.0471 28.693 36.0735 28.1498 37.2257Z" fill="#1C3929"/><path d="M39.3289 99.1535H31.7281C31.3167 99.1535 30.9221 98.9846 30.6311 98.684C30.3403 98.3833 30.1768 97.9755 30.1768 97.5504V91.4344C30.1768 91.0093 30.3403 90.6015 30.6311 90.3008C30.9221 90.0002 31.3167 89.8313 31.7281 89.8313C32.1395 89.8313 32.534 90.0002 32.8249 90.3008C33.1157 90.6015 33.2793 91.0093 33.2793 91.4344V95.9472H37.7778V91.4344C37.7778 91.0093 37.9411 90.6015 38.2321 90.3008C38.523 90.0002 38.9175 89.8313 39.3289 89.8313C39.7403 89.8313 40.1349 90.0002 40.4257 90.3008C40.7168 90.6015 40.8801 91.0093 40.8801 91.4344V97.5504C40.8801 97.9755 40.7168 98.3833 40.4257 98.684C40.1349 98.9846 39.7403 99.1535 39.3289 99.1535Z" fill="#1C3929"/><path d="M47.7246 93.0375V93.5844H47.7263L47.7246 93.0375ZM22.1297 76.5492H22.6706V76.5327L22.6697 76.5161L22.1297 76.5492ZM18.1944 64.9745L18.6398 64.6642L18.5687 64.56L18.4597 64.498L18.1944 64.9745ZM52.0106 63.7706L51.7133 63.3138L51.5929 63.3939L51.528 63.5239L52.0106 63.7706ZM49.2713 75.9128H49.8122L49.812 75.9028L49.2713 75.9128ZM25.2322 89.8313L24.6913 89.8311L24.6911 90.3781H25.2322V89.8313ZM46.1734 89.8313V90.3781H46.7143V89.8313H46.1734ZM46.1734 75.9128H46.7145L46.7143 75.9019L46.1734 75.9128ZM49.3612 62.1048L49.8411 62.3573L49.8596 62.3213L49.8726 62.283L49.3612 62.1048ZM20.5009 62.7894L20.9419 62.4727L20.94 62.4698L20.5009 62.7894ZM25.2337 76.5444H25.7747V76.5297L25.7739 76.515L25.2337 76.5444ZM33.9376 40.3214H34.4785V39.7617L33.9251 39.7747L33.9376 40.3214ZM28.5316 40.4481L28.5191 39.9014L28.4917 39.902L28.4647 39.9055L28.5316 40.4481ZM25.2104 38.6109L24.7115 38.8223L24.718 38.8377L24.7253 38.8525L25.2104 38.6109ZM28.1981 31.9402L28.5849 32.3225L28.5979 32.3089L28.6101 32.2945L28.1981 31.9402ZM32.8672 29.8369L32.9304 29.2937L32.908 29.2911L32.8854 29.2903L32.8672 29.8369ZM36.7452 32.1327L37.1861 31.8158L37.1809 31.8084L36.7452 32.1327ZM37.0415 37.0462H36.5006V37.6045L37.0528 37.593L37.0415 37.0462ZM43.282 36.9372V37.4841H43.2839L43.282 36.9372ZM43.2928 40.1434V40.6903H43.2949L43.2928 40.1434ZM37.0399 40.2525L37.0288 39.7058L36.499 39.7167V40.2525H37.0399ZM37.0399 76.8041H36.499V76.8063L37.0399 76.8041ZM28.15 37.2258L27.6617 36.9905L27.3383 37.6763L28.0842 37.7686L28.15 37.2258ZM28.4602 37.2434L28.4654 37.7903L28.4733 37.7902L28.4602 37.2434ZM33.9391 37.1136L33.9517 37.6603L34.48 37.648V37.1136H33.9391ZM33.9391 33.6956H34.48V33.4695L34.3221 33.3094L33.9391 33.6956ZM32.6082 33.0336L32.6751 32.4909L32.6291 32.485L32.5825 32.4873L32.6082 33.0336ZM30.3946 34.2086L30.7529 34.6183L30.7914 34.5839L30.8227 34.5428L30.3946 34.2086ZM33.2798 95.9472H32.7389V96.4941H33.2798V95.9472ZM37.7784 95.9472V96.4941H38.3193V95.9472H37.7784ZM47.7246 92.4906H23.681V93.5844H47.7246V92.4906ZM23.681 92.4906C23.4169 92.4906 23.1611 92.3823 22.9707 92.1855L22.1974 92.9503C22.5889 93.3549 23.1222 93.5844 23.681 93.5844V92.4906ZM22.9707 92.1855C22.7799 91.9883 22.6706 91.7183 22.6706 91.4344H21.5888C21.5888 92.0008 21.8064 92.5463 22.1974 92.9503L22.9707 92.1855ZM22.6706 91.4344V76.5492H21.5888V91.4344H22.6706ZM22.6697 76.5161C22.4138 72.257 21.0191 68.1542 18.6398 64.6642L17.749 65.2848C20.0158 68.6097 21.3458 72.5206 21.5899 76.5823L22.6697 76.5161ZM18.4597 64.498C12.2304 60.953 7.29644 55.3917 4.41752 48.6661L3.42468 49.1005C6.39614 56.0423 11.4908 61.7872 17.929 65.4511L18.4597 64.498ZM4.41752 48.6661C1.53852 41.9402 0.874487 34.423 2.52791 27.2686L1.47447 27.0198C-0.231615 34.4019 0.453299 42.1587 3.42468 49.1005L4.41752 48.6661ZM2.52791 27.2686C4.18132 20.1145 8.06018 13.7209 13.5667 9.06795L12.873 8.22872C7.18406 13.0358 3.18057 19.6375 1.47447 27.0198L2.52791 27.2686ZM13.5667 9.06795C19.0729 4.4152 25.9029 1.75969 33.0078 1.50673L32.9697 0.413652C25.6221 0.675249 18.562 3.42152 12.873 8.22872L13.5667 9.06795ZM33.0078 1.50673C40.1126 1.25377 47.1029 3.41723 52.9054 7.667L53.54 6.78124C47.5439 2.3897 40.3174 0.152055 32.9697 0.413652L33.0078 1.50673ZM52.9054 7.667C58.7083 11.9169 63.0034 18.0191 65.1292 25.0384L66.1636 24.7181C63.9698 17.4745 59.536 11.1726 53.54 6.78124L52.9054 7.667ZM65.1292 25.0384C67.255 32.0578 67.0931 39.6045 64.6688 46.5195L65.6883 46.885C68.1904 39.7487 68.3572 31.9617 66.1636 24.7181L65.1292 25.0384ZM64.6688 46.5195C62.2443 53.4345 57.6922 59.3338 51.7133 63.3138L52.3081 64.2273C58.4867 60.1145 63.1864 54.0214 65.6883 46.885L64.6688 46.5195ZM51.528 63.5239C49.6138 67.3534 48.6525 71.6145 48.7304 75.9228L49.812 75.9028C49.7374 71.7717 50.6591 67.687 52.4934 64.0172L51.528 63.5239ZM48.7304 75.9128V91.4344H49.8122V75.9128H48.7304ZM48.7304 91.4344C48.7304 91.7178 48.6214 91.9874 48.4313 92.1844L49.2058 92.9481C49.5954 92.5442 49.8122 91.9997 49.8122 91.4344H48.7304ZM48.4313 92.1844C48.2415 92.3811 47.9881 92.4898 47.7246 92.4906L47.7263 93.5844C48.284 93.5827 48.8157 93.3523 49.2058 92.9481L48.4313 92.1844ZM25.2322 90.3781H46.1734V89.2844H25.2322V90.3781ZM46.7143 89.8313L46.7145 75.9128H45.6325V89.8313H46.7143ZM46.7143 75.9019C46.6213 71.1847 47.6979 66.5219 49.8411 62.3573L48.8814 61.8525C46.6542 66.1803 45.5361 71.0242 45.6327 75.9236L46.7143 75.9019ZM49.8726 62.283C49.9466 62.0656 50.0888 61.8833 50.2733 61.7639L49.6901 60.8428C49.2974 61.0972 49.0019 61.48 48.8497 61.9269L49.8726 62.283ZM50.2733 61.7639C55.9396 58.0964 60.276 52.6025 62.6137 46.1344L61.5977 45.7589C59.3399 52.0053 55.1541 57.3061 49.6901 60.8428L50.2733 61.7639ZM62.6137 46.1344C64.9515 39.6664 65.161 32.583 63.2105 25.9797L62.1738 26.2927C64.0579 32.6705 63.8553 39.5123 61.5977 45.7589L62.6137 46.1344ZM63.2105 25.9797C61.2597 19.3763 57.2568 13.619 51.8185 9.60063L51.1801 10.4837C56.425 14.3592 60.2899 19.915 62.1738 26.2927L63.2105 25.9797ZM51.8185 9.60063C46.3799 5.58208 39.8099 3.52714 33.125 3.75583L33.1616 4.84895C39.6025 4.62861 45.9354 6.60833 51.1801 10.4837L51.8185 9.60063ZM33.125 3.75583C26.4403 3.9845 20.0163 6.48392 14.8473 10.865L15.5424 11.7032C20.528 7.47752 26.7206 5.06928 33.1616 4.84895L33.125 3.75583ZM14.8473 10.865C9.67844 15.2459 6.05279 21.2636 4.52897 27.9856L5.58345 28.23C7.05529 21.7372 10.5564 15.9291 15.5424 11.7032L14.8473 10.865ZM4.52897 27.9856C3.00516 34.7075 3.66752 41.7612 6.41414 48.0556L7.40391 47.6141C4.75162 41.5359 4.11157 34.7228 5.58345 28.23L4.52897 27.9856ZM6.41414 48.0556C9.16083 54.3502 13.8396 59.5361 19.7285 62.8086L20.2506 61.8506C14.5727 58.6953 10.0561 53.6922 7.40391 47.6141L6.41414 48.0556ZM19.7285 62.8086C19.8591 62.8814 19.9727 62.9836 20.062 63.1091L20.94 62.4698C20.758 62.2144 20.5227 62.0027 20.2506 61.8506L19.7285 62.8086ZM20.0602 63.1063C22.8258 67.04 24.4351 71.7162 24.6936 76.5738L25.7739 76.515C25.5045 71.4523 23.8272 66.5764 20.9419 62.4727L20.0602 63.1063ZM24.6928 76.5444L24.6913 89.8311L25.7731 89.8313L25.7747 76.5444H24.6928ZM46.6451 77.8667H24.41V78.9605H46.6451V77.8667ZM24.41 77.8667C24.1459 77.8667 23.8903 77.7584 23.6999 77.5617L22.9265 78.3266C23.3178 78.7309 23.8513 78.9605 24.41 78.9605V77.8667ZM23.6999 77.5617C23.509 77.3645 23.3998 77.0945 23.3998 76.8105H22.3179C22.3179 77.3769 22.5355 77.9225 22.9265 78.3266L23.6999 77.5617ZM23.3998 76.8105C23.3998 76.5266 23.509 76.2566 23.6999 76.0594L22.9265 75.2945C22.5355 75.6986 22.3179 76.2441 22.3179 76.8105H23.3998ZM23.6999 76.0594C23.8903 75.8625 24.1459 75.7542 24.41 75.7542V74.6605C23.8513 74.6605 23.3178 74.89 22.9265 75.2945L23.6999 76.0594ZM24.41 75.7542H46.6451V74.6605H24.41V75.7542ZM46.6451 75.7542C46.9091 75.7542 47.1648 75.8625 47.3552 76.0594L48.1286 75.2945C47.7371 74.89 47.2038 74.6605 46.6451 74.6605V75.7542ZM47.3552 76.0594C47.5461 76.2566 47.6554 76.5266 47.6554 76.8105H48.7372C48.7372 76.2441 48.5196 75.6986 48.1286 75.2945L47.3552 76.0594ZM47.6554 76.8105C47.6554 77.0945 47.5461 77.3645 47.3552 77.5617L48.1286 78.3266C48.5196 77.9225 48.7372 77.3769 48.7372 76.8105H47.6554ZM47.3552 77.5617C47.1648 77.7584 46.9091 77.8667 46.6451 77.8667V78.9605C47.2038 78.9605 47.7371 78.7309 48.1286 78.3266L47.3552 77.5617ZM35.4888 77.8667C35.2246 77.8667 34.969 77.7584 34.7785 77.5617L34.0053 78.3266C34.3966 78.7309 34.9299 78.9605 35.4888 78.9605V77.8667ZM34.7785 77.5617C34.5878 77.3644 34.4785 77.0945 34.4785 76.8105H33.3967C33.3967 77.3769 33.6143 77.9225 34.0053 78.3266L34.7785 77.5617ZM34.4785 76.8105V40.3214H33.3967V76.8105H34.4785ZM33.9251 39.7747L28.5191 39.9014L28.5441 40.9948L33.9501 40.8681L33.9251 39.7747ZM28.4647 39.9055C27.9086 39.9755 27.3447 39.8667 26.8494 39.5927L26.3302 40.5522C27.0237 40.9358 27.816 41.0894 28.5985 40.9908L28.4647 39.9055ZM26.8494 39.5927C26.354 39.3186 25.9504 38.892 25.6957 38.3692L24.7253 38.8525C25.077 39.5744 25.6368 40.1686 26.3302 40.5522L26.8494 39.5927ZM25.7093 38.3994C25.3396 37.5081 25.5631 36.4791 26.1786 35.3723C26.7896 34.2741 27.7273 33.2095 28.5849 32.3225L27.8113 31.558C26.9407 32.4584 25.9193 33.607 25.2358 34.8361C24.5568 36.0567 24.1505 37.4692 24.7115 38.8223L25.7093 38.3994ZM28.6101 32.2945C29.1363 31.6692 29.7901 31.1737 30.5231 30.8434L30.0828 29.8444C29.2006 30.2419 28.4161 30.837 27.7861 31.5859L28.6101 32.2945ZM30.5231 30.8434C31.2561 30.5133 32.0506 30.3563 32.849 30.3834L32.8854 29.2903C31.9226 29.2575 30.9651 29.447 30.0828 29.8444L30.5231 30.8434ZM32.804 30.38C33.4928 30.4619 34.1587 30.6878 34.7613 31.0445L35.3079 30.1006C34.5771 29.668 33.7682 29.3933 32.9304 29.2937L32.804 30.38ZM34.7613 31.0445C35.364 31.4013 35.8909 31.8816 36.3096 32.4567L37.1809 31.8084C36.6758 31.1145 36.0388 30.5333 35.3079 30.1006L34.7613 31.0445ZM36.3043 32.4494C36.4312 32.6298 36.5004 32.8484 36.5006 33.0741L37.5824 33.0736C37.5821 32.623 37.4439 32.1825 37.1861 31.8158L36.3043 32.4494ZM36.5006 33.0741V37.0462H37.5824V33.0736L36.5006 33.0741ZM37.0528 37.593C39.3509 37.5448 40.9011 37.5177 41.8795 37.5025C42.3687 37.4948 42.715 37.4903 42.9403 37.4875C43.0528 37.4863 43.1352 37.4853 43.1901 37.4848C43.2469 37.4842 43.2714 37.4841 43.2712 37.4841V36.3903C43.2398 36.3903 41.6273 36.4033 37.0304 36.4995L37.0528 37.593ZM43.2712 37.4841H43.282V36.3903H43.2712V37.4841ZM43.2839 37.4841C43.548 37.4831 43.8041 37.5905 43.9951 37.7866L44.7658 37.0191C44.373 36.6159 43.8389 36.3883 43.28 36.3903L43.2839 37.4841ZM43.9951 37.7866C44.1866 37.9831 44.2968 38.2527 44.2977 38.5366L45.3795 38.5328C45.3777 37.9664 45.1582 37.4217 44.7658 37.0191L43.9951 37.7866ZM44.2977 38.5366C44.2986 38.8206 44.1903 39.0909 44.0002 39.2889L44.7762 40.0511C45.1658 39.6456 45.3815 39.0992 45.3795 38.5328L44.2977 38.5366ZM44.0002 39.2889C43.8104 39.4864 43.555 39.5956 43.291 39.5966L43.2949 40.6903C43.8535 40.6883 44.3861 40.4569 44.7762 40.0511L44.0002 39.2889ZM43.2928 39.5966C43.2632 39.5966 41.6445 39.6095 37.0288 39.7058L37.0511 40.7992C39.3586 40.7513 40.915 40.7239 41.8971 40.7088C42.3881 40.7011 42.7357 40.6966 42.9617 40.6939C43.0746 40.6925 43.1572 40.6916 43.212 40.6911C43.2689 40.6905 43.2933 40.6903 43.2928 40.6903V39.5966ZM36.499 40.2525V76.8041H37.5808V40.2525H36.499ZM36.499 76.8063C36.4996 76.947 36.4732 77.0861 36.4218 77.2156L37.4255 77.6234C37.5292 77.3625 37.5819 77.0834 37.5808 76.802L36.499 76.8063ZM36.4218 77.2156C36.3703 77.3452 36.2949 77.4622 36.2004 77.5602L36.9752 78.3234C37.169 78.1223 37.3218 77.8844 37.4255 77.6234L36.4218 77.2156ZM36.2004 77.5602C36.106 77.6581 35.9944 77.7353 35.8723 77.7877L36.2952 78.7944C36.5505 78.6848 36.7814 78.5245 36.9752 78.3234L36.2004 77.5602ZM35.8723 77.7877C35.7504 77.84 35.6201 77.8667 35.4888 77.8667V78.9605C35.7659 78.9605 36.04 78.9039 36.2952 78.7944L35.8723 77.7877ZM28.0842 37.7686C28.2108 37.7842 28.3379 37.7916 28.4654 37.7903L28.4551 36.6966C28.375 36.6973 28.2951 36.6928 28.2157 36.683L28.0842 37.7686ZM28.4733 37.7902C30.5563 37.7389 32.3737 37.6972 33.9517 37.6603L33.9266 36.5669C32.3493 36.6037 30.5308 36.6453 28.4471 36.6967L28.4733 37.7902ZM34.48 37.1136V33.6956H33.3982V37.1136H34.48ZM34.3221 33.3094C33.8769 32.8581 33.2982 32.5695 32.6751 32.4909L32.5411 33.5763C32.9222 33.6244 33.2792 33.8011 33.5562 34.0819L34.3221 33.3094ZM32.5825 32.4873C32.0744 32.5117 31.5778 32.6486 31.1263 32.8883L31.6293 33.8566C31.9416 33.6908 32.2841 33.5966 32.6338 33.5798L32.5825 32.4873ZM31.1263 32.8883C30.6748 33.128 30.2795 33.4645 29.9664 33.8744L30.8227 34.5428C31.0416 34.2563 31.3168 34.0225 31.6293 33.8566L31.1263 32.8883ZM30.0362 33.7991C29.0434 34.6867 28.2359 35.7725 27.6617 36.9905L28.6382 37.4611C29.1504 36.3747 29.87 35.4078 30.7529 34.6183L30.0362 33.7991ZM39.3295 98.6066H31.7287V99.7003H39.3295V98.6066ZM31.7287 98.6066C31.4646 98.6066 31.2088 98.4983 31.0184 98.3016L30.245 99.0664C30.6365 99.4708 31.1698 99.7003 31.7287 99.7003V98.6066ZM31.0184 98.3016C30.8275 98.1042 30.7183 97.8342 30.7183 97.5503H29.6364C29.6364 98.1167 29.854 98.6623 30.245 99.0664L31.0184 98.3016ZM30.7183 97.5503V91.4344H29.6364V97.5503H30.7183ZM30.7183 91.4344C30.7183 91.1505 30.8275 90.8805 31.0184 90.6831L30.245 89.9183C29.854 90.3223 29.6364 90.868 29.6364 91.4344H30.7183ZM31.0184 90.6831C31.2088 90.4864 31.4646 90.3781 31.7287 90.3781V89.2844C31.1698 89.2844 30.6365 89.5139 30.245 89.9183L31.0184 90.6831ZM31.7287 90.3781C31.9926 90.3781 32.2484 90.4864 32.4388 90.6831L33.2122 89.9183C32.8207 89.5139 32.2874 89.2844 31.7287 89.2844V90.3781ZM32.4388 90.6831C32.6297 90.8805 32.7389 91.1503 32.7389 91.4344H33.8208C33.8208 90.868 33.6032 90.3223 33.2122 89.9183L32.4388 90.6831ZM32.7389 91.4344V95.9472H33.8208V91.4344H32.7389ZM33.2798 96.4941H37.7784V95.4003H33.2798V96.4941ZM38.3193 95.9472V91.4344H37.2374V95.9472H38.3193ZM38.3193 91.4344C38.3193 91.1503 38.4285 90.8805 38.6194 90.6831L37.846 89.9183C37.455 90.3223 37.2374 90.868 37.2374 91.4344H38.3193ZM38.6194 90.6831C38.8098 90.4864 39.0654 90.3781 39.3295 90.3781V89.2844C38.7708 89.2844 38.2374 89.5139 37.846 89.9183L38.6194 90.6831ZM39.3295 90.3781C39.5936 90.3781 39.8493 90.4864 40.0398 90.6831L40.813 89.9183C40.4217 89.5139 39.8882 89.2844 39.3295 89.2844V90.3781ZM40.0398 90.6831C40.2305 90.8805 40.3398 91.1503 40.3398 91.4344H41.4216C41.4216 90.868 41.204 90.3223 40.813 89.9183L40.0398 90.6831ZM40.3398 91.4344V97.5503H41.4216V91.4344H40.3398ZM40.3398 97.5503C40.3398 97.8342 40.2305 98.1042 40.0398 98.3016L40.813 99.0664C41.204 98.6622 41.4216 98.1167 41.4216 97.5503H40.3398ZM40.0398 98.3016C39.8493 98.4983 39.5936 98.6066 39.3295 98.6066V99.7003C39.8882 99.7003 40.4217 99.4708 40.813 99.0664L40.0398 98.3016Z" fill="#1C3929"/></g><defs><clipPath id="clip0_82_42"><rect width="68" height="100" fill="white"/></clipPath></defs></svg>