<svg width="113" height="100" viewBox="0 0 113 100" fill="none" xmlns="http://www.w3.org/2000/svg"><path d="M56.6904 44.4264C56.9486 44.4264 57.3361 44.4264 57.5943 44.4264C65.7301 43.913 71.9287 36.8538 71.4122 28.8962C71.154 25.0458 69.4751 21.4521 66.5049 18.7569C63.5347 16.1899 59.6606 14.9064 55.7864 15.1631C47.6506 15.6765 41.452 22.6073 41.9686 30.6932C42.4851 38.3939 49.0711 44.4264 56.6904 44.4264ZM56.0446 20.297C56.303 20.297 56.4321 20.297 56.6904 20.297C59.0148 20.297 61.2103 21.1955 63.0181 22.7356C64.9552 24.4041 66.1174 26.7144 66.2467 29.2813C66.5049 34.5436 62.5016 39.0358 57.3361 39.4209C52.0413 39.6775 47.5215 35.6987 47.134 30.4364C46.7468 25.0458 50.75 20.5536 56.0446 20.297Z" fill="#CCF7E2"/><path d="M112.737 91.9146L104.214 54.3089C103.568 51.3569 100.985 49.3032 97.8857 49.3032H81.4851C82.1309 48.2765 82.6474 47.6348 82.6474 47.5065C82.6474 47.5065 82.7765 47.3782 82.7765 47.2497C82.7765 47.1214 82.9056 46.9931 83.0347 46.9931C83.164 46.8648 83.2931 46.608 83.2931 46.4797C84.4553 44.4262 85.3593 42.2442 86.0049 39.934C86.7798 37.3669 87.1673 34.5434 87.1673 31.7197C87.1673 15.0345 73.4785 1.42969 56.6906 1.42969C39.9025 1.42969 26.2137 15.0345 26.2137 31.7197C26.2137 32.3614 26.2137 33.0032 26.3429 33.5166C26.472 36.0835 26.9886 38.6505 27.7635 40.9608C28.5382 43.3994 29.5713 45.7095 30.9919 47.7631L31.121 47.8916C31.2502 48.1482 31.6375 48.5332 32.025 49.1749H15.4953C12.3959 49.1749 9.81315 51.2285 9.16746 54.1805L0.6443 91.9146C0.256885 93.8399 0.6443 95.7651 1.93569 97.3052C3.22708 98.8454 5.03502 99.7439 6.9721 99.7439H106.409C108.346 99.7439 110.283 98.8454 111.445 97.3052C112.608 95.7651 113.124 93.8399 112.737 91.9146ZM31.3793 31.848C31.3793 17.9865 42.7436 6.69194 56.6906 6.69194C70.6376 6.69194 82.0016 17.9865 82.0016 31.848C82.0016 34.1583 81.7434 36.4686 81.0976 38.6505C80.5811 40.5757 79.8063 42.3725 78.9023 44.0411C78.9023 44.1694 78.7732 44.2977 78.6441 44.2977C78.5149 44.4262 78.5149 44.5545 78.3858 44.6828C77.9983 45.1962 76.5778 47.2497 74.6408 50.2017C74.5116 50.3302 74.5116 50.4585 74.3825 50.5868C68.5712 59.3145 58.2402 74.5877 56.9488 76.5129C56.9488 76.6414 56.8197 76.6414 56.8197 76.7697C55.7866 75.2295 44.9389 59.0577 39.1276 50.33C38.4819 49.4317 37.9654 48.6615 37.4488 47.8916L37.3197 47.7631C36.4157 46.3512 35.6408 45.3245 35.3826 44.9395L35.2535 44.8111C34.2204 43.1426 33.3164 41.3457 32.6706 39.2922C32.025 37.3669 31.6375 35.3134 31.5084 33.1316C31.5084 32.8748 31.3793 32.3614 31.3793 31.848ZM107.442 94.2249C107.313 94.3532 106.925 94.7383 106.409 94.7383H6.9721C6.45555 94.7383 6.06813 94.4817 5.93898 94.2249C5.80985 94.0966 5.55156 93.7115 5.68071 93.1982L14.2039 55.5923C14.333 54.9506 14.8496 54.5655 15.4953 54.5655H35.3826C41.7105 63.9349 52.2998 79.85 52.4289 79.9783C53.3329 81.3902 55.0117 82.1603 56.6906 82.1603C58.3693 82.1603 59.919 81.3902 60.823 79.9783C60.9521 79.85 60.9521 79.7217 61.0812 79.7217C61.5977 78.9515 71.7998 63.6782 77.9983 54.5655H97.8857C98.5314 54.5655 99.0479 54.9506 99.1772 55.5923L107.7 93.0699C107.829 93.5832 107.571 93.9683 107.442 94.2249Z" fill="#CCF7E2"/></svg>