<svg width="100" height="103" viewBox="0 0 100 103" fill="none" xmlns="http://www.w3.org/2000/svg"><path fill-rule="evenodd" clip-rule="evenodd" d="M63.5032 17.7837C62.3637 17.7593 61.286 18.7027 61.1614 19.8337L59.5403 33.9677L41.8159 75.003L35.2233 86.6195C34.6267 87.657 35.0195 89.1406 36.0519 89.7483L38.3935 91.1149C36.7546 97.2516 33.1051 98.5884 30.0718 98.0562C26.9503 97.5082 24.4049 94.9855 25.4965 90.5755C26.8095 85.3027 26.2802 81.5548 25.2083 79.1029C24.6722 77.8767 23.9973 76.9633 23.443 76.3696C23.1159 76.0192 22.8391 75.785 22.6145 75.6144C19.9387 72.923 16.6333 72.0632 13.464 72.0539C8.75195 72.0401 4.29322 73.8662 2.47631 74.1758C1.24839 74.3386 0.295371 75.6354 0.50843 76.8537C0.721489 78.0718 2.05833 78.9695 3.26887 78.7072C8.19565 77.868 15.2677 74.6249 19.4083 78.923C19.5368 79.0599 19.6824 79.181 19.8405 79.2827C19.8405 79.2827 19.8578 79.2827 20.0927 79.5345C20.3276 79.7862 20.644 80.2205 20.9573 80.9371C21.5838 82.37 22.153 84.9496 21.0294 89.4606C19.3738 96.1423 23.8308 101.631 29.2791 102.588C34.2984 103.469 40.0492 100.457 42.4645 93.4887L43.7613 94.2439C44.8065 94.8617 46.3227 94.4662 46.9316 93.4167L53.6322 81.8002L79.8946 45.8358L83.317 43.4262C83.3292 43.4148 83.3413 43.4021 83.353 43.3906L91.3146 37.3126C92.5052 36.3942 92.3638 34.2546 91.0625 33.5004C82.2483 28.3695 73.4341 23.2385 64.62 18.1077C64.2833 17.9074 63.8949 17.7946 63.5032 17.7837ZM65.3405 23.8616C72.1292 27.8522 78.9489 31.7894 85.7668 35.7299L80.5792 39.7219L78.1654 41.4482C73.5302 38.7389 68.8949 36.0296 64.2597 33.3203L65.3405 23.8616ZM62.8548 37.8517C66.8824 40.1813 70.9025 42.5235 74.9232 44.8649L49.8135 79.1748C49.7614 79.2439 49.7133 79.316 49.6694 79.3907L44.0856 89.101L40.3389 86.9071L45.8868 77.1608C45.9389 77.0917 45.987 77.0196 46.031 76.945L62.8548 37.8517Z" fill="#CCF7E2"/><path fill-rule="evenodd" clip-rule="evenodd" d="M79.6311 1.47451C78.1137 1.49787 76.6316 1.74154 75.2094 2.20856C70.6871 3.69355 66.971 7.33356 64.3898 12.4936L63.8959 13.3423C63.5925 13.863 63.5056 14.5051 63.6597 15.0875C63.8137 15.6699 64.2068 16.1854 64.7281 16.4886C73.9229 21.867 83.1098 27.1964 92.3181 32.5528C92.8398 32.8565 93.4837 32.9438 94.0676 32.7899C94.6516 32.636 95.1686 32.2431 95.4724 31.722L95.9714 30.8655C99.1154 26.0356 100.366 20.9658 99.3784 16.2822C98.386 11.5763 95.1422 7.47269 90.1276 4.55711C90.0884 4.53422 90.0483 4.51263 90.0076 4.49214L89.8367 4.40673C86.4202 2.41928 82.9398 1.42365 79.6311 1.47451ZM79.7397 6.05954C82.1129 6.01558 84.7262 6.74382 87.5913 8.42601C87.6335 8.45077 87.6765 8.47408 87.7202 8.49605L87.8237 8.54832L87.8505 8.5611C91.987 10.9782 94.1752 13.9562 94.866 17.2315C95.5033 20.254 94.8676 23.7104 92.6756 27.4326C84.7635 22.8476 76.8968 18.239 68.9941 13.6431C71.1059 9.82553 73.7552 7.53153 76.6505 6.58081C77.6311 6.25883 78.661 6.07955 79.7397 6.05954Z" fill="#CCF7E2"/></svg>