<svg width="117" height="133" viewBox="0 0 117 133" fill="none" xmlns="http://www.w3.org/2000/svg"><g clip-path="url(#clip0_31_156)"><path d="M1.62501 54.0159C1.62501 25.1268 24.9555 1.6228 53.6338 1.6228C82.334 1.6228 105.685 25.1268 105.685 54.0159C105.685 57.1766 105.395 60.378 104.819 63.5428L115.192 82.7244C115.625 83.5292 115.26 84.5349 114.412 84.8674L100.363 90.3739V114.389C100.363 115.228 99.6864 115.91 98.8526 115.91H78.5213V129.858C78.5213 130.698 77.8445 131.379 77.0105 131.379H28.2146C27.3806 131.379 26.7038 130.698 26.7038 129.858V98.8142C11.4624 89.5812 1.62501 72.7616 1.62501 54.0159ZM28.9739 96.6306C29.4392 96.9022 29.7271 97.405 29.7271 97.9464V128.338H75.4999V114.389C75.4999 113.55 76.1768 112.868 77.0105 112.868H97.344V89.3339C97.344 88.7073 97.7267 88.1437 98.3047 87.9166L111.715 82.6596L102.21 65.0857C101.805 64.7308 101.616 64.1815 101.721 63.6462C102.345 60.451 102.661 57.209 102.661 54.0159C102.663 26.8036 80.6684 4.66396 53.6338 4.66396C26.6212 4.66396 4.64637 26.8036 4.64637 54.0159C4.64637 72.0277 14.2521 88.0647 28.9739 96.6306Z" fill="#CAF4DF"/><path d="M19.8858 42.2568C19.9563 41.4174 20.6915 40.797 21.5173 40.87L28.5469 41.4721C29.2539 39.619 30.1642 37.847 31.266 36.1826L26.7239 30.7591C26.1802 30.1103 26.2748 29.1493 26.9053 28.6162L36.3639 20.5895C37.0004 20.0482 37.9551 20.1293 38.493 20.7719L43.035 26.1933C44.8398 25.3844 46.7311 24.7822 48.6748 24.3929L49.275 17.3172C49.3456 16.4819 50.1028 15.8636 50.9085 15.9325L63.2395 16.9887C64.0734 17.0598 64.6896 17.8038 64.6172 18.6331L64.017 25.7088C65.8539 26.4184 67.6143 27.3348 69.272 28.4438L74.6621 23.872C75.2984 23.3306 76.2533 23.4116 76.791 24.0544L84.7652 33.5753C85.3091 34.2241 85.2144 35.1851 84.584 35.7182L79.198 40.2881C79.9997 42.1067 80.5998 44.0085 80.9866 45.967L88.0142 46.5691C88.8461 46.6401 89.4624 47.376 89.3919 48.2134L88.3425 60.6254C88.272 61.4809 87.5126 62.0892 86.709 62.0121L79.6794 61.4099C78.9683 63.2732 78.06 65.0452 76.9623 66.7015L81.5022 72.1229C82.0461 72.7717 81.9514 73.7327 81.321 74.266L71.8622 82.2925C71.2278 82.8318 70.2751 82.7528 69.7333 82.1101L65.1913 76.6867C63.3705 77.4997 61.4811 78.1019 59.5494 78.4891L58.9513 85.5648C58.8848 86.3536 58.2301 86.9577 57.4467 86.9577C57.356 86.9577 45.0794 85.9014 44.9868 85.8954C44.1589 85.8243 43.5365 85.0885 43.6111 84.251L44.2112 77.1753C42.3582 76.4616 40.5979 75.5452 38.9522 74.4403L33.5662 79.0102C32.9318 79.5495 31.9771 79.4703 31.4373 78.8277L23.4631 69.3069C22.9211 68.66 23.0118 67.699 23.6442 67.1638L29.0322 62.5939C28.2285 60.7632 27.6284 58.8615 27.2417 56.9171L20.214 56.315C19.3822 56.244 18.7658 55.5081 18.8363 54.6707L19.8858 42.2568ZM28.6556 53.9835C29.3525 54.0422 29.9164 54.5755 30.0212 55.2689C30.3919 57.7078 31.1412 60.082 32.2449 62.3263C32.5531 62.9548 32.3979 63.7131 31.8662 64.1653L26.7462 68.5081L32.7727 75.7034L37.8927 71.3586C38.4306 70.9045 39.1979 70.8781 39.762 71.2957C41.7459 72.7636 43.9434 73.907 46.2899 74.6917C46.9526 74.9127 47.3777 75.5635 47.3192 76.265L46.7491 82.9921L56.0709 83.7909L56.6389 77.0639C56.6974 76.3624 57.2271 75.7947 57.9179 75.6892C60.3371 75.3181 62.6956 74.566 64.9293 73.451C65.5437 73.1428 66.3011 73.2928 66.7542 73.8321L71.0707 78.9859L78.2212 72.9198L73.9047 67.766C73.4536 67.2287 73.4294 66.4522 73.8423 65.8865C75.3006 63.8874 76.4345 61.6756 77.2161 59.3135C77.4356 58.6485 78.072 58.2087 78.7771 58.2795L85.4602 58.8513L86.2537 49.4704L79.5727 48.8966C78.8757 48.8378 78.3118 48.3045 78.207 47.6112C77.8323 45.1479 77.0851 42.7758 75.9834 40.5578C75.6712 39.9293 75.8282 39.167 76.362 38.7148L81.4821 34.37L75.4556 27.1726L70.3355 31.5174C69.8017 31.9696 69.0344 31.9958 68.4723 31.5843C66.4562 30.1063 64.2567 28.9628 61.9383 28.1863C61.2757 27.9653 60.8506 27.3146 60.9091 26.6131L61.4791 19.886L52.1573 19.0872L51.5872 25.8142C51.5289 26.5136 51.0011 27.0813 50.3103 27.1867C47.865 27.5619 45.5084 28.314 43.3028 29.4231C42.6826 29.7353 41.9252 29.5791 41.4741 29.0419L37.1595 23.8882L30.0092 29.9543L34.3255 35.108C34.7747 35.6433 34.801 36.4178 34.39 36.9854C32.9236 39.0067 31.7878 41.2187 31.0143 43.5624C30.7947 44.2274 30.1803 44.6633 29.4533 44.5964L22.7701 44.0247L21.9765 53.4056L28.6556 53.9835Z" fill="#CAF4DF"/><path d="M43.6191 38.9114C50.4634 33.1027 60.7399 33.9279 66.561 40.878C72.3658 47.8037 71.4877 58.1356 64.6071 63.9725C57.7569 69.7852 47.4823 68.9499 41.6634 62.0059C35.8766 55.0944 36.7547 44.7361 43.6191 38.9114ZM43.9736 60.0433C48.711 65.6999 57.0841 66.377 62.6594 61.6471C68.265 56.8907 68.9739 48.4769 64.2505 42.8385C59.5132 37.1819 51.1441 36.5028 45.5668 41.2368C39.9613 45.9932 39.2524 54.403 43.9736 60.0433Z" fill="#CAF4DF"/><path d="M104.819 63.5427L104.104 63.9279L103.968 63.6776L104.019 63.3979L104.819 63.5427ZM115.192 82.7244L115.907 82.3392L115.908 82.3406L115.192 82.7244ZM100.363 90.3738H99.5507V89.8211L100.066 89.619L100.363 90.3738ZM78.5213 115.909H77.7088V115.099H78.5213V115.909ZM26.7038 98.8141L27.1255 98.1209L27.5163 98.3577V98.8141H26.7038ZM29.7271 128.338V129.149H28.9146V128.338H29.7271ZM75.4999 128.338H76.3124V129.149H75.4999V128.338ZM97.344 112.868H98.1565V113.679H97.344V112.868ZM111.715 82.6595L112.43 82.2743L112.866 83.0797L112.012 83.4143L111.715 82.6595ZM102.21 65.0856L102.746 64.4763L102.856 64.5723L102.925 64.7004L102.21 65.0856ZM21.5173 40.8699L21.4477 41.678L21.4456 41.6777L21.5173 40.8699ZM28.5469 41.472L29.3062 41.7607L29.088 42.3324L28.4773 42.28L28.5469 41.472ZM31.266 36.1825L31.8893 35.6623L32.2774 36.1257L31.9439 36.6295L31.266 36.1825ZM43.035 26.1932L43.3678 26.9331L42.8064 27.1847L42.4117 26.7135L43.035 26.1932ZM48.6748 24.3928L49.4843 24.4613L49.4328 25.0682L48.8347 25.1881L48.6748 24.3928ZM64.6171 18.633L63.8076 18.5645L63.8077 18.5624L64.6171 18.633ZM64.017 25.7087L63.7237 26.465L63.1559 26.2458L63.2073 25.6403L64.017 25.7087ZM69.272 28.4437L69.7981 29.0616L69.33 29.4588L68.8196 29.1174L69.272 28.4437ZM79.1979 40.288L78.4543 40.6146L78.2104 40.0615L78.6718 39.6702L79.1979 40.288ZM80.9866 45.9669L80.9172 46.775L80.3077 46.7227L80.1895 46.1237L80.9866 45.9669ZM88.3425 60.6253L87.5327 60.5588L87.5329 60.557L88.3425 60.6253ZM86.709 62.0121L86.7784 61.204L86.7867 61.2048L86.709 62.0121ZM79.6794 61.4098L78.9201 61.1213L79.1383 60.5495L79.7488 60.6019L79.6794 61.4098ZM76.9623 66.7014L76.3388 67.2216L75.9505 66.758L76.2846 66.2541L76.9623 66.7014ZM69.7333 82.11L69.1116 82.6322L69.1099 82.6301L69.7333 82.11ZM65.1913 76.6867L64.8594 75.9464L65.4204 75.6958L65.8146 76.1665L65.1913 76.6867ZM59.5494 78.489L58.7398 78.4209L58.7912 77.8139L59.3895 77.6939L59.5494 78.489ZM44.9868 85.8953L44.9334 86.7046L44.9173 86.7033L44.9868 85.8953ZM43.6111 84.251L44.4207 84.3194L44.4203 84.3228L43.6111 84.251ZM44.2112 77.1752L44.5037 76.4187L45.0723 76.6377L45.0209 77.2436L44.2112 77.1752ZM38.9522 74.4403L38.4259 73.8223L38.895 73.4244L39.4058 73.7673L38.9522 74.4403ZM29.0322 62.5939L29.7765 62.2685L30.0191 62.8211L29.5584 63.212L29.0322 62.5939ZM27.2417 56.917L27.311 56.1091L27.9196 56.1612L28.0386 56.7592L27.2417 56.917ZM28.6556 53.9834L28.5872 54.7915L28.5854 54.7913L28.6556 53.9834ZM26.7462 68.508L26.1228 69.0281L25.6058 68.411L26.22 67.89L26.7462 68.508ZM32.7727 75.7033L33.2988 76.3212L32.6747 76.8508L32.1493 76.2234L32.7727 75.7033ZM37.8927 71.3586L37.3664 70.7408L37.368 70.7394L37.8927 71.3586ZM46.7491 82.992L46.6797 83.8L45.8711 83.7306L45.9396 82.9237L46.7491 82.992ZM56.0709 83.7908L56.8805 83.8589L56.8123 84.6683L56.0014 84.5989L56.0709 83.7908ZM64.9293 73.4509L65.2943 74.1754L65.2928 74.1762L64.9293 73.4509ZM71.0707 78.9858L71.5968 79.6037L70.9727 80.1331L70.4473 79.5059L71.0707 78.9858ZM78.2212 72.9197L78.8445 72.3995L79.3614 73.0167L78.7473 73.5376L78.2212 72.9197ZM78.7771 58.2795L78.7077 59.0877L78.6955 59.0864L78.7771 58.2795ZM85.4602 58.8512L86.2698 58.9195L86.2014 59.7287L85.3908 59.6593L85.4602 58.8512ZM86.2537 49.4703L86.3234 48.6623L87.1317 48.7317L87.0634 49.5386L86.2537 49.4703ZM81.482 34.37L82.1056 33.85L82.6221 34.4669L82.0084 34.9878L81.482 34.37ZM75.4556 27.1725L74.9294 26.5547L75.5536 26.0249L76.0791 26.6525L75.4556 27.1725ZM61.4791 19.8859L61.5485 19.0779L62.3571 19.1471L62.2887 19.9542L61.4791 19.8859ZM52.1573 19.0871L51.3477 19.0188L51.4163 18.2096L52.2268 18.2791L52.1573 19.0871ZM37.1595 23.8881L36.6333 23.2701L37.2577 22.7406L37.783 23.3681L37.1595 23.8881ZM30.0092 29.9542L29.3858 30.4744L28.8689 29.8572L29.483 29.3362L30.0092 29.9542ZM29.4533 44.5964L29.5227 43.7883L29.5279 43.7888L29.4533 44.5964ZM22.7701 44.0246L21.9604 43.9563L22.029 43.1473L22.8395 43.2166L22.7701 44.0246ZM21.9765 53.4055L21.9063 54.2136L21.0987 54.1437L21.1669 53.3374L21.9765 53.4055ZM0.8125 54.0158C0.8125 24.6861 24.4996 0.811768 53.6338 0.811768V2.43372C25.4113 2.43372 2.4375 25.5676 2.4375 54.0158H0.8125ZM53.6338 0.811768C82.7894 0.811768 106.497 24.6854 106.497 54.0158H104.872C104.872 25.5683 81.8789 2.43372 53.6338 2.43372V0.811768ZM106.497 54.0158C106.497 57.2258 106.203 60.4756 105.618 63.6877L104.019 63.3979C104.587 60.2801 104.872 57.1274 104.872 54.0158H106.497ZM105.534 63.1575L115.907 82.3392L114.477 83.1096L104.104 63.9279L105.534 63.1575ZM115.908 82.3406C116.568 83.5679 116.016 85.1096 114.709 85.6222L114.115 84.1126C114.504 83.96 114.682 83.4904 114.476 83.108L115.908 82.3406ZM114.709 85.6222L100.66 91.1287L100.066 89.619L114.115 84.1126L114.709 85.6222ZM101.176 90.3738V114.389H99.5507V90.3738H101.176ZM101.176 114.389C101.176 115.67 100.142 116.72 98.8526 116.72V115.099C99.2313 115.099 99.5507 114.787 99.5507 114.389H101.176ZM98.8526 116.72H78.5213V115.099H98.8526V116.72ZM79.3338 115.909V129.858H77.7088V115.909H79.3338ZM79.3338 129.858C79.3338 131.139 78.2996 132.19 77.0105 132.19V130.568C77.3893 130.568 77.7088 130.256 77.7088 129.858H79.3338ZM77.0105 132.19H28.2145V130.568H77.0105V132.19ZM28.2145 132.19C26.9254 132.19 25.8913 131.139 25.8913 129.858H27.5163C27.5163 130.256 27.8358 130.568 28.2145 130.568V132.19ZM25.8913 129.858V98.8141H27.5163V129.858H25.8913ZM26.2823 99.5073C10.8002 90.1287 0.8125 73.0475 0.8125 54.0158H2.4375C2.4375 72.4756 12.1244 89.0336 27.1255 98.1209L26.2823 99.5073ZM29.3831 95.93C30.0992 96.3479 30.5396 97.1189 30.5396 97.9464H28.9146C28.9146 97.6913 28.7781 97.4557 28.5636 97.3305L29.3831 95.93ZM30.5396 97.9464V128.338H28.9146V97.9464H30.5396ZM29.7271 127.527H75.4999V129.149H29.7271V127.527ZM74.6874 128.338V114.389H76.3124V128.338H74.6874ZM74.6874 114.389C74.6874 113.108 75.7216 112.057 77.0105 112.057V113.679C76.6319 113.679 76.3124 113.991 76.3124 114.389H74.6874ZM77.0105 112.057H97.344V113.679H77.0105V112.057ZM96.5315 112.868V89.3338H98.1565V112.868H96.5315ZM96.5315 89.3338C96.5315 88.3778 97.115 87.5125 98.0072 87.162L98.6022 88.6713C98.3383 88.7749 98.1565 89.0368 98.1565 89.3338H96.5315ZM98.0072 87.162L111.418 81.9046L112.012 83.4143L98.6022 88.6713L98.0072 87.162ZM111 83.0447L101.495 65.4709L102.925 64.7004L112.43 82.2743L111 83.0447ZM101.674 65.695C101.052 65.1496 100.763 64.3087 100.923 63.4906L102.518 63.8014C102.469 64.0539 102.559 64.3121 102.746 64.4763L101.674 65.695ZM100.923 63.4906C101.538 60.3455 101.849 57.1561 101.849 54.0158H103.474C103.474 57.262 103.153 60.5559 102.518 63.8014L100.923 63.4906ZM101.849 54.0158C101.851 27.2449 80.2132 5.47488 53.6338 5.47488V3.85293C81.1236 3.85293 103.476 26.3621 103.474 54.0158H101.849ZM53.6338 5.47488C27.077 5.47488 5.45886 27.2442 5.45886 54.0158H3.83386C3.83386 26.3627 26.1654 3.85293 53.6338 3.85293V5.47488ZM5.45886 54.0158C5.45886 71.7363 14.9086 87.508 29.3831 95.93L28.5636 97.3305C13.5943 88.6207 3.83386 72.3187 3.83386 54.0158H5.45886ZM19.076 42.1889C19.1836 40.9092 20.3071 39.9488 21.5889 40.062L21.4456 41.6777C21.0758 41.6451 20.729 41.9253 20.6953 42.3245L19.076 42.1889ZM21.5868 40.0619L28.6162 40.6641L28.4773 42.28L21.4477 41.678L21.5868 40.0619ZM27.7875 41.1834C28.5158 39.2746 29.4536 37.4494 30.588 35.7355L31.9439 36.6295C30.875 38.2445 29.9918 39.9634 29.3062 41.7607L27.7875 41.1834ZM30.6426 36.7026L26.1006 31.2792L27.3471 30.2387L31.8893 35.6623L30.6426 36.7026ZM26.1006 31.2792C25.2673 30.2849 25.4121 28.8159 26.3799 27.9973L27.4315 29.2339C27.1385 29.4817 27.0928 29.9354 27.3471 30.2387L26.1006 31.2792ZM26.3799 27.9973L35.8377 19.9716L36.8909 21.2067L27.4315 29.2339L26.3799 27.9973ZM35.8377 19.9716C36.8191 19.1369 38.2899 19.2641 39.1165 20.252L37.8696 21.2922C37.6207 20.9945 37.1826 20.9587 36.8909 21.2067L35.8377 19.9716ZM39.1165 20.252L43.6582 25.6731L42.4117 26.7135L37.8696 21.2922L39.1165 20.252ZM42.7021 25.4534C44.563 24.6194 46.5124 23.9989 48.5149 23.5978L48.8347 25.1881C46.9497 25.5655 45.1165 26.1493 43.3678 26.9331L42.7021 25.4534ZM47.8652 24.3246L48.4655 17.2488L50.0846 17.3852L49.4843 24.4613L47.8652 24.3246ZM48.4655 17.2488C48.574 15.9631 49.7282 15.0175 50.9779 15.1244L50.8391 16.7405C50.4774 16.7095 50.1171 17.0002 50.0846 17.3852L48.4655 17.2488ZM50.9779 15.1244L63.309 16.1807L63.1704 17.7967L50.8391 16.7405L50.9779 15.1244ZM63.309 16.1807C64.5976 16.2904 65.5375 17.4345 65.4266 18.7035L63.8077 18.5624C63.8419 18.173 63.5495 17.829 63.1704 17.7967L63.309 16.1807ZM65.4267 18.7014L64.8266 25.7772L63.2073 25.6403L63.8076 18.5645L65.4267 18.7014ZM64.3102 24.9524C66.204 25.6839 68.0176 26.6282 69.7244 27.7701L68.8196 29.1174C67.211 28.0413 65.5039 27.1528 63.7237 26.465L64.3102 24.9524ZM68.7458 27.8257L74.1359 23.2539L75.1889 24.4892L69.7981 29.0616L68.7458 27.8257ZM74.1359 23.2539C75.1172 22.4193 76.588 22.5466 77.4147 23.5345L76.1676 24.5745C75.9187 24.277 75.4806 24.2412 75.1889 24.4892L74.1359 23.2539ZM77.4147 23.5345L85.3885 33.055L84.1422 34.0955L76.1676 24.5745L77.4147 23.5345ZM85.3885 33.055C86.222 34.0493 86.0771 35.5183 85.1092 36.3369L84.0577 35.1003C84.3508 34.8525 84.3963 34.399 84.1422 34.0955L85.3885 33.055ZM85.1092 36.3369L79.7243 40.9059L78.6718 39.6702L84.0577 35.1003L85.1092 36.3369ZM79.9417 39.9615C80.7672 41.8343 81.3855 43.793 81.7838 45.8101L80.1895 46.1237C79.8143 44.2238 79.2321 42.379 78.4543 40.6146L79.9417 39.9615ZM81.0561 45.1589L88.0836 45.7611L87.945 47.377L80.9172 46.775L81.0561 45.1589ZM88.0836 45.7611C89.369 45.8707 90.309 47.0048 90.2015 48.2813L88.5822 48.1453C88.6158 47.7472 88.3235 47.4093 87.945 47.377L88.0836 45.7611ZM90.2015 48.2813L89.152 60.6934L87.5329 60.557L88.5822 48.1453L90.2015 48.2813ZM89.1522 60.6918C89.0445 61.9989 87.885 62.9395 86.6313 62.8193L86.7867 61.2048C87.1403 61.2387 87.4994 60.9628 87.5327 60.5588L89.1522 60.6918ZM86.6395 62.8201L79.6099 62.2179L79.7488 60.6019L86.7784 61.204L86.6395 62.8201ZM80.4386 61.6985C79.7067 63.6168 78.7711 65.4422 77.6399 67.1489L76.2846 66.2541C77.3489 64.6481 78.2301 62.9294 78.9201 61.1213L80.4386 61.6985ZM77.5856 66.1814L82.1257 71.6028L80.8792 72.6433L76.3388 67.2216L77.5856 66.1814ZM82.1257 71.6028C82.9592 72.5971 82.8141 74.0661 81.8462 74.8847L80.7947 73.6481C81.0878 73.4003 81.1333 72.9466 80.8792 72.6433L82.1257 71.6028ZM81.8462 74.8847L72.3885 82.9104L71.3355 81.6751L80.7947 73.6481L81.8462 74.8847ZM72.3885 82.9104C71.4088 83.7433 69.9416 83.6168 69.1116 82.6322L70.355 81.5879C70.6085 81.8887 71.0463 81.9209 71.3355 81.6751L72.3885 82.9104ZM69.1099 82.6301L64.5679 77.2068L65.8146 76.1665L70.3566 81.59L69.1099 82.6301ZM65.5231 77.4269C63.6473 78.2645 61.7004 78.8851 59.7095 79.284L59.3895 77.6939C61.2618 77.3186 63.0935 76.7348 64.8594 75.9464L65.5231 77.4269ZM60.359 78.5573L59.7608 85.633L58.1415 85.4968L58.7398 78.4209L60.359 78.5573ZM59.7608 85.633C59.6594 86.836 58.6583 87.7686 57.4467 87.7686V86.1467C57.8021 86.1467 58.11 85.8711 58.1415 85.4968L59.7608 85.633ZM57.4467 87.7686C57.4273 87.7686 57.4119 87.7678 57.409 87.7678C57.403 87.7675 57.3979 87.7672 57.3947 87.767C57.3882 87.7667 57.3818 87.7662 57.3768 87.7659C57.3666 87.7652 57.3542 87.7643 57.3406 87.7631C57.3129 87.761 57.2744 87.7579 57.2266 87.754C57.1308 87.7463 56.9935 87.7349 56.821 87.7203C56.4759 87.6914 55.9882 87.6501 55.4055 87.6006C54.2402 87.5013 52.694 87.3691 51.148 87.2368C49.602 87.1043 48.0558 86.9718 46.8905 86.8719C46.3078 86.8219 45.8203 86.7802 45.4758 86.7507C45.3034 86.7359 45.1669 86.7243 45.0721 86.7163C44.9688 86.7076 44.929 86.7043 44.9334 86.7046L45.0401 85.0861C45.0972 85.0898 48.2058 85.3568 51.2869 85.6207C52.833 85.7532 54.3787 85.8854 55.5436 85.9845C56.126 86.034 56.613 86.0753 56.9571 86.1042C57.1291 86.1186 57.265 86.1298 57.3589 86.1374C57.406 86.1413 57.4416 86.1443 57.4658 86.146C57.5183 86.1501 57.4849 86.1467 57.4467 86.1467V87.7686ZM44.9173 86.7033C43.64 86.5939 42.6876 85.4624 42.8017 84.1793L44.4203 84.3228C44.3856 84.7143 44.6777 85.0548 45.0562 85.0872L44.9173 86.7033ZM42.8015 84.1827L43.4016 77.1069L45.0209 77.2436L44.4207 84.3194L42.8015 84.1827ZM43.9189 77.9318C42.0088 77.1963 40.1945 76.2518 38.4987 75.113L39.4058 73.7673C41.0012 74.8386 42.7076 75.727 44.5037 76.4187L43.9189 77.9318ZM39.4784 75.0581L34.0925 79.6279L33.0395 78.3926L38.4259 73.8223L39.4784 75.0581ZM34.0925 79.6279C33.1134 80.46 31.6433 80.3354 30.8145 79.3486L32.0598 78.3067C32.3107 78.6053 32.7496 78.639 33.0395 78.3926L34.0925 79.6279ZM30.8145 79.3486L22.8397 69.8269L24.0862 68.7866L32.0598 78.3067L30.8145 79.3486ZM22.8397 69.8269C22.0098 68.8364 22.1476 67.3671 23.1189 66.5452L24.1704 67.7818C23.8766 68.0305 23.8326 68.4836 24.0862 68.7866L22.8397 69.8269ZM23.1189 66.5452L28.5061 61.9759L29.5584 63.212L24.1704 67.7818L23.1189 66.5452ZM28.288 62.9194C27.461 61.0355 26.843 59.0775 26.4448 57.075L28.0386 56.7592C28.4138 58.6452 28.9962 60.4908 29.7765 62.2685L28.288 62.9194ZM27.1721 57.7251L20.1446 57.123L20.2832 55.5069L27.311 56.1091L27.1721 57.7251ZM20.1446 57.123C18.8593 57.0134 17.9192 55.8793 18.0268 54.6028L19.6461 54.7386C19.6124 55.1368 19.9048 55.4746 20.2832 55.5069L20.1446 57.123ZM18.0268 54.6028L19.076 42.1889L20.6953 42.3245L19.6461 54.7386L18.0268 54.6028ZM28.724 53.1753C29.8012 53.2662 30.6647 54.0887 30.8246 55.1478L29.218 55.3904C29.1684 55.063 28.9037 54.8182 28.5872 54.7915L28.724 53.1753ZM30.8246 55.1478C31.1824 57.5034 31.9064 59.7976 32.9743 61.9689L31.5156 62.6837C30.3758 60.3663 29.6012 57.9127 29.218 55.3904L30.8246 55.1478ZM32.9743 61.9689C33.4441 62.9268 33.2103 64.0878 32.3931 64.7825L31.3394 63.5479C31.5858 63.3383 31.6623 62.9828 31.5156 62.6837L32.9743 61.9689ZM32.3931 64.7825L27.2722 69.1259L26.22 67.89L31.3394 63.5479L32.3931 64.7825ZM27.3695 67.9878L33.396 75.1833L32.1493 76.2234L26.1228 69.0281L27.3695 67.9878ZM32.2463 75.0855L37.3664 70.7408L38.4191 71.9763L33.2988 76.3212L32.2463 75.0855ZM37.368 70.7394C38.1917 70.0438 39.3768 70.0008 40.246 70.6444L39.278 71.9472C39.0193 71.7554 38.6693 71.765 38.4176 71.9777L37.368 70.7394ZM40.246 70.6444C42.1614 72.0613 44.2824 73.1651 46.548 73.9227L46.0325 75.4608C43.6051 74.6492 41.3307 73.4658 39.278 71.9472L40.246 70.6444ZM46.548 73.9227C47.5715 74.264 48.2178 75.2642 48.1289 76.3321L46.5094 76.1978C46.5374 75.8625 46.3341 75.5613 46.0325 75.4608L46.548 73.9227ZM48.1289 76.3321L47.5589 83.0603L45.9396 82.9237L46.5094 76.1978L48.1289 76.3321ZM46.8187 82.1839L56.1405 82.9827L56.0014 84.5989L46.6797 83.8L46.8187 82.1839ZM55.2614 83.7227L55.8293 76.9956L57.4486 77.1309L56.8805 83.8589L55.2614 83.7227ZM55.8293 76.9956C55.9187 75.923 56.7297 75.0501 57.7951 74.8874L58.0414 76.4907C57.725 76.5389 57.4761 76.8005 57.4486 77.1309L55.8293 76.9956ZM57.7951 74.8874C60.1291 74.5295 62.4063 73.8036 64.566 72.7255L65.2928 74.1762C62.9848 75.3283 60.5454 76.1066 58.0414 76.4907L57.7951 74.8874ZM64.566 72.7255C65.5164 72.2488 66.6812 72.4832 67.3767 73.3109L66.1318 74.3532C65.9209 74.1022 65.5723 74.0359 65.2943 74.1754L64.566 72.7255ZM67.3767 73.3109L71.694 78.4656L70.4473 79.5059L66.1318 74.3532L67.3767 73.3109ZM70.5445 78.3678L77.695 72.3017L78.7473 73.5376L71.5968 79.6037L70.5445 78.3678ZM77.5978 73.4398L73.2813 68.2861L74.5274 67.245L78.8445 72.3995L77.5978 73.4398ZM73.2813 68.2861C72.5891 67.4618 72.554 66.2741 73.1856 65.4089L74.4991 66.3638C74.3047 66.6298 74.3173 66.9947 74.5274 67.245L73.2813 68.2861ZM73.1856 65.4089C74.5937 63.4786 75.6891 61.3422 76.4445 59.0591L77.9876 59.5673C77.18 62.0083 76.0074 64.2961 74.4991 66.3638L73.1856 65.4089ZM76.4445 59.0591C76.7764 58.0537 77.753 57.3613 78.8585 57.4727L78.6955 59.0864C78.3911 59.0557 78.0949 59.2427 77.9876 59.5673L76.4445 59.0591ZM78.8465 57.4716L85.5296 58.0433L85.3908 59.6593L78.7077 59.0877L78.8465 57.4716ZM84.6505 58.7831L85.4441 49.402L87.0634 49.5386L86.2698 58.9195L84.6505 58.7831ZM86.1841 50.2782L79.503 49.7045L79.6411 48.0884L86.3234 48.6623L86.1841 50.2782ZM79.503 49.7045C78.4257 49.6135 77.5635 48.7912 77.4036 47.7321L79.0103 47.4894C79.0598 47.8171 79.3245 48.0617 79.6411 48.0884L79.503 49.7045ZM77.4036 47.7321C77.0414 45.3509 76.3196 43.0602 75.2554 40.9179L76.7112 40.1975C77.8507 42.4912 78.6232 44.9439 79.0103 47.4894L77.4036 47.7321ZM75.2554 40.9179C74.7779 39.9568 75.0168 38.7904 75.8363 38.0964L76.8883 39.3326C76.6402 39.5428 76.5643 39.9016 76.7112 40.1975L75.2554 40.9179ZM75.8363 38.0964L80.9559 33.7522L82.0084 34.9878L76.8883 39.3326L75.8363 38.0964ZM80.8587 34.89L74.8322 27.6925L76.0791 26.6525L82.1056 33.85L80.8587 34.89ZM75.9819 27.7903L70.8619 32.1352L69.8092 30.8995L74.9294 26.5547L75.9819 27.7903ZM70.8619 32.1352C70.0416 32.8301 68.8571 32.8719 67.9918 32.2381L68.953 30.9304C69.2115 31.1197 69.562 31.1089 69.8092 30.8995L70.8619 32.1352ZM67.9918 32.2381C66.0418 30.8086 63.9168 29.7042 61.6798 28.9551L62.1957 27.4171C64.5955 28.2208 66.8705 29.4039 68.953 30.9304L67.9918 32.2381ZM61.6798 28.9551C60.6562 28.6136 60.0104 27.6136 60.0993 26.5458L61.7188 26.6801C61.6908 27.0152 61.8941 27.3164 62.1957 27.4171L61.6798 28.9551ZM60.0993 26.5458L60.6694 19.8176L62.2887 19.9542L61.7188 26.6801L60.0993 26.5458ZM61.4096 20.694L52.0879 19.8952L52.2268 18.2791L61.5485 19.0779L61.4096 20.694ZM52.9669 19.1554L52.397 25.8824L50.7777 25.7469L51.3477 19.0188L52.9669 19.1554ZM52.397 25.8824C52.3078 26.952 51.4993 27.8257 50.433 27.9884L50.1868 26.3851C50.5022 26.3369 50.75 26.0763 50.7777 25.7469L52.397 25.8824ZM50.433 27.9884C48.072 28.3506 45.7977 29.0766 43.6685 30.1472L42.937 28.6988C45.2189 27.5514 47.6575 26.7732 50.1868 26.3851L50.433 27.9884ZM43.6685 30.1472C42.7086 30.6304 41.543 30.3863 40.8514 29.5628L42.0968 28.5209C42.3075 28.7718 42.6561 28.8402 42.937 28.6988L43.6685 30.1472ZM40.8514 29.5628L36.536 24.4081L37.783 23.3681L42.0968 28.5209L40.8514 29.5628ZM37.6857 24.5061L30.5354 30.5722L29.483 29.3362L36.6333 23.2701L37.6857 24.5061ZM30.6325 29.434L34.9489 34.5878L33.7027 35.6286L29.3858 30.4744L30.6325 29.434ZM34.9489 34.5878C35.6384 35.4095 35.6759 36.5935 35.0486 37.4603L33.7314 36.5104C33.9259 36.2417 33.9115 35.8776 33.7027 35.6286L34.9489 34.5878ZM35.0486 37.4603C33.6307 39.4149 32.5328 41.5528 31.786 43.816L30.2425 43.3087C31.0425 40.8845 32.2168 38.5984 33.7314 36.5104L35.0486 37.4603ZM31.786 43.816C31.4545 44.8202 30.5029 45.5074 29.3787 45.4039L29.5279 43.7888C29.8577 43.8191 30.135 43.6345 30.2425 43.3087L31.786 43.816ZM29.3839 45.4044L22.7008 44.8327L22.8395 43.2166L29.5227 43.7883L29.3839 45.4044ZM23.5797 44.0929L22.7861 53.4738L21.1669 53.3374L21.9604 43.9563L23.5797 44.0929ZM22.0467 52.5976L28.7258 53.1755L28.5854 54.7913L21.9063 54.2136L22.0467 52.5976ZM43.0927 38.2936C50.2799 32.1939 61.0729 33.061 67.1843 40.3579L65.9378 41.3984C60.4073 34.7951 50.6469 34.0115 44.1454 39.5292L43.0927 38.2936ZM67.1843 40.3579C73.2751 47.6245 72.3544 58.4645 65.1332 64.5905L64.0809 63.3547C70.6209 57.8065 71.4568 47.983 65.9378 41.3984L67.1843 40.3579ZM65.1332 64.5905C57.9397 70.6944 47.1492 69.8164 41.04 62.5262L42.2866 61.4856C47.8155 68.0835 57.5737 68.8762 64.0809 63.3547L65.1332 64.5905ZM41.04 62.5262C34.9679 55.2738 35.8876 44.4076 43.0927 38.2936L44.1454 39.5292C37.6217 45.0651 36.7851 54.9149 42.2866 61.4856L41.04 62.5262ZM44.597 59.5233C49.0441 64.8333 56.9008 65.4683 62.1332 61.0292L63.1857 62.2649C57.2674 67.2858 48.3779 66.5667 43.3503 60.5635L44.597 59.5233ZM62.1332 61.0292C67.3978 56.562 68.0652 48.6564 63.6274 43.3588L64.8739 42.3183C69.8826 48.2973 69.132 57.2194 63.1857 62.2649L62.1332 61.0292ZM63.6274 43.3588C59.1801 38.0487 51.3274 37.4119 46.0933 41.8546L45.0404 40.619C50.961 35.5937 59.8463 36.3153 64.8739 42.3183L63.6274 43.3588ZM46.0933 41.8546C40.8286 46.3218 40.1607 54.2236 44.597 59.5233L43.3503 60.5635C38.3438 54.5826 39.0941 45.6646 45.0404 40.619L46.0933 41.8546Z" fill="#CAF4DF"/></g><defs><clipPath id="clip0_31_156"><rect width="117" height="133" fill="white" transform="matrix(-1 0 0 1 117 0)"/></clipPath></defs></svg>