<svg width="100" height="129" viewBox="0 0 100 129" fill="none" xmlns="http://www.w3.org/2000/svg"><path d="M51.4656 2.19236e-06C78.2356 -0.00796406 100.008 21.6949 100 48.3795C99.992 75.0639 78.2356 96.7509 51.4656 96.7589C40.7749 96.762 30.8578 93.3129 22.8321 87.4587L6.56217 115.497C5.11953 117.986 5.94446 121.021 8.44656 122.46C10.9467 123.898 14.0348 123.073 15.4785 120.582L26.7389 101.203C26.9215 100.846 27.1753 100.531 27.4848 100.276C27.7945 100.021 28.1531 99.8316 28.5388 99.7201C28.9244 99.6085 29.3289 99.5767 29.7274 99.6269C30.1259 99.677 30.5098 99.808 30.8554 100.012C31.2012 100.215 31.5015 100.487 31.7377 100.811C31.974 101.135 32.1413 101.503 32.2292 101.894C32.3172 102.284 32.324 102.689 32.2493 103.082C32.1745 103.475 32.0197 103.849 31.7944 104.181L20.5341 123.514C17.5095 128.733 10.7445 130.559 5.50508 127.546C0.267639 124.534 -1.56524 117.785 1.46055 112.565L18.2361 83.6562C8.81171 74.8284 2.92714 62.266 2.93129 48.3795C2.93928 21.6949 24.6957 0.00796845 51.4656 2.19236e-06ZM51.4656 5.86418C27.8751 5.87121 8.82128 24.8642 8.81424 48.3795C8.8072 71.8947 27.8751 90.9018 51.4656 90.8947C75.0562 90.8876 94.1099 71.8947 94.117 48.3795C94.1239 24.8642 75.0562 5.85716 51.4656 5.86418Z" fill="#1C3929"/></svg>