<svg width="111" height="133" viewBox="0 0 111 133" fill="none" xmlns="http://www.w3.org/2000/svg"><g clip-path="url(#clip0_31_161)"><path d="M111 14.7785C111 6.63595 104.265 0.000732422 96 0.000732422C87.7349 0.000732422 81 6.63595 81 14.7785C81 21.9162 86.16 27.8865 93 29.2608V130.045C93 131.671 94.35 133.001 96 133.001C97.65 133.001 99 131.671 99 130.045V29.2608C105.84 27.8865 111 21.9162 111 14.7785ZM96 23.6452C91.035 23.6452 87 19.6699 87 14.7785C87 9.88706 91.035 5.91185 96 5.91185C100.965 5.91185 105 9.88706 105 14.7785C105 19.6699 100.965 23.6452 96 23.6452ZM58.5 52.0185V2.95629C58.5 1.33073 57.15 0.000732422 55.5 0.000732422C53.85 0.000732422 52.5 1.33073 52.5 2.95629V52.0185C45.6599 53.3929 40.5 59.363 40.5 66.5008C40.5 73.6385 45.6599 79.6086 52.5 80.9829V130.045C52.5 131.671 53.85 133.001 55.5 133.001C57.15 133.001 58.5 131.671 58.5 130.045V80.9829C65.3401 79.6086 70.5 73.6385 70.5 66.5008C70.5 59.363 65.3401 53.3929 58.5 52.0185ZM55.5 75.3675C50.535 75.3675 46.5 71.3922 46.5 66.5008C46.5 61.6093 50.535 57.634 55.5 57.634C60.465 57.634 64.5 61.6093 64.5 66.5008C64.5 71.3922 60.465 75.3675 55.5 75.3675ZM18 103.741V2.95629C18 1.33073 16.65 0.000732422 15 0.000732422C13.35 0.000732422 12 1.33073 12 2.95629V103.741C5.16 105.115 0 111.085 0 118.223C0 126.365 6.735 133.001 15 133.001C23.2651 133.001 30 126.365 30 118.223C30 111.085 24.84 105.115 18 103.741ZM15 127.09C10.035 127.09 6.00001 123.114 6.00001 118.223C6.00001 113.331 10.035 109.356 15 109.356C19.965 109.356 24 113.331 24 118.223C24 123.114 19.965 127.09 15 127.09Z" fill="#CAF4DF"/><mask id="mask0_31_161" style="mask-type:luminance" maskUnits="userSpaceOnUse" x="0" y="0" width="111" height="134"><path d="M111 14.7785C111 6.63595 104.265 0.000732422 96 0.000732422C87.7349 0.000732422 81 6.63595 81 14.7785C81 21.9162 86.16 27.8865 93 29.2608V130.045C93 131.671 94.35 133.001 96 133.001C97.65 133.001 99 131.671 99 130.045V29.2608C105.84 27.8865 111 21.9162 111 14.7785ZM96 23.6452C91.035 23.6452 87 19.6699 87 14.7785C87 9.88706 91.035 5.91185 96 5.91185C100.965 5.91185 105 9.88706 105 14.7785C105 19.6699 100.965 23.6452 96 23.6452ZM58.5 52.0185V2.95629C58.5 1.33073 57.15 0.000732422 55.5 0.000732422C53.85 0.000732422 52.5 1.33073 52.5 2.95629V52.0185C45.6599 53.3929 40.5 59.363 40.5 66.5008C40.5 73.6385 45.6599 79.6086 52.5 80.9829V130.045C52.5 131.671 53.85 133.001 55.5 133.001C57.15 133.001 58.5 131.671 58.5 130.045V80.9829C65.3401 79.6086 70.5 73.6385 70.5 66.5008C70.5 59.363 65.3401 53.3929 58.5 52.0185ZM55.5 75.3675C50.535 75.3675 46.5 71.3922 46.5 66.5008C46.5 61.6093 50.535 57.634 55.5 57.634C60.465 57.634 64.5 61.6093 64.5 66.5008C64.5 71.3922 60.465 75.3675 55.5 75.3675ZM18 103.741V2.95629C18 1.33073 16.65 0.000732422 15 0.000732422C13.35 0.000732422 12 1.33073 12 2.95629V103.741C5.16 105.115 0 111.085 0 118.223C0 126.365 6.735 133.001 15 133.001C23.2651 133.001 30 126.365 30 118.223C30 111.085 24.84 105.115 18 103.741ZM15 127.09C10.035 127.09 6.00001 123.114 6.00001 118.223C6.00001 113.331 10.035 109.356 15 109.356C19.965 109.356 24 113.331 24 118.223C24 123.114 19.965 127.09 15 127.09Z" fill="white"/></mask><g mask="url(#mask0_31_161)"><path d="M93 29.2608H94.7619V27.8293L93.3494 27.5454L93 29.2608ZM99 29.2608L98.6506 27.5454L97.2381 27.8293V29.2608H99ZM58.5 52.0185H56.7381V53.45L58.1506 53.7338L58.5 52.0185ZM52.5 52.0185L52.8494 53.7338L54.2619 53.45V52.0185H52.5ZM52.5 80.9829H54.2619V79.5516L52.8494 79.2677L52.5 80.9829ZM58.5 80.9829L58.1506 79.2677L56.7381 79.5516V80.9829H58.5ZM18 103.741H16.2381V105.172L17.6506 105.456L18 103.741ZM12 103.741L12.3494 105.456L13.7619 105.172V103.741H12ZM112.762 14.7785C112.762 5.65604 105.224 -1.74927 96 -1.74927V1.75074C103.305 1.75074 109.238 7.61586 109.238 14.7785H112.762ZM96 -1.74927C86.7756 -1.74927 79.2381 5.65604 79.2381 14.7785H82.762C82.762 7.61586 88.6945 1.75074 96 1.75074V-1.74927ZM79.2381 14.7785C79.2381 22.7763 85.0163 29.4421 92.6507 30.9759L93.3494 27.5454C87.3038 26.3307 82.762 21.0561 82.762 14.7785H79.2381ZM91.2381 29.2608V130.045H94.7619V29.2608H91.2381ZM91.2381 130.045C91.2381 132.651 93.3905 134.751 96 134.751V131.251C95.3095 131.251 94.7619 130.691 94.7619 130.045H91.2381ZM96 134.751C98.6096 134.751 100.762 132.651 100.762 130.045H97.2381C97.2381 130.691 96.6905 131.251 96 131.251V134.751ZM100.762 130.045V29.2608H97.2381V130.045H100.762ZM99.3494 30.9759C106.984 29.4421 112.762 22.7763 112.762 14.7785H109.238C109.238 21.0561 104.696 26.3307 98.6506 27.5454L99.3494 30.9759ZM96 21.8952C91.9945 21.8952 88.762 18.6901 88.762 14.7785H85.2381C85.2381 20.6499 90.0755 25.3952 96 25.3952V21.8952ZM88.762 14.7785C88.762 10.867 91.9945 7.66185 96 7.66185V4.16185C90.0755 4.16185 85.2381 8.90715 85.2381 14.7785H88.762ZM96 7.66185C100.006 7.66185 103.238 10.867 103.238 14.7785H106.762C106.762 8.90715 101.924 4.16185 96 4.16185V7.66185ZM103.238 14.7785C103.238 18.6901 100.006 21.8952 96 21.8952V25.3952C101.924 25.3952 106.762 20.6499 106.762 14.7785H103.238ZM60.2619 52.0185V2.95629H56.7381V52.0185H60.2619ZM60.2619 2.95629C60.2619 0.350822 58.1096 -1.74927 55.5 -1.74927V1.75074C56.1905 1.75074 56.7381 2.31065 56.7381 2.95629H60.2619ZM55.5 -1.74927C52.8905 -1.74927 50.7381 0.350822 50.7381 2.95629H54.2619C54.2619 2.31065 54.8095 1.75074 55.5 1.75074V-1.74927ZM50.7381 2.95629V52.0185H54.2619V2.95629H50.7381ZM52.1506 50.3033C44.5163 51.8372 38.7381 58.5029 38.7381 66.5008H42.2619C42.2619 60.2232 46.8038 54.9485 52.8494 53.7338L52.1506 50.3033ZM38.7381 66.5008C38.7381 74.4986 44.5163 81.1644 52.1506 82.6982L52.8494 79.2677C46.8038 78.053 42.2619 72.7782 42.2619 66.5008H38.7381ZM50.7381 80.9829V130.045H54.2619V80.9829H50.7381ZM50.7381 130.045C50.7381 132.651 52.8905 134.751 55.5 134.751V131.251C54.8095 131.251 54.2619 130.691 54.2619 130.045H50.7381ZM55.5 134.751C58.1096 134.751 60.2619 132.651 60.2619 130.045H56.7381C56.7381 130.691 56.1905 131.251 55.5 131.251V134.751ZM60.2619 130.045V80.9829H56.7381V130.045H60.2619ZM58.8494 82.6982C66.4837 81.1644 72.2619 74.4986 72.2619 66.5008H68.7381C68.7381 72.7782 64.1962 78.053 58.1506 79.2677L58.8494 82.6982ZM72.2619 66.5008C72.2619 58.5029 66.4837 51.8372 58.8494 50.3033L58.1506 53.7338C64.1962 54.9485 68.7381 60.2232 68.7381 66.5008H72.2619ZM55.5 73.6175C51.4945 73.6175 48.2619 70.4122 48.2619 66.5008H44.7381C44.7381 72.372 49.5754 77.1175 55.5 77.1175V73.6175ZM48.2619 66.5008C48.2619 62.5891 51.4945 59.384 55.5 59.384V55.884C49.5754 55.884 44.7381 60.6293 44.7381 66.5008H48.2619ZM55.5 59.384C59.5055 59.384 62.7381 62.5891 62.7381 66.5008H66.2619C66.2619 60.6293 61.4246 55.884 55.5 55.884V59.384ZM62.7381 66.5008C62.7381 70.4122 59.5055 73.6175 55.5 73.6175V77.1175C61.4246 77.1175 66.2619 72.372 66.2619 66.5008H62.7381ZM19.7619 103.741V2.95629H16.2381V103.741H19.7619ZM19.7619 2.95629C19.7619 0.350822 17.6095 -1.74927 15 -1.74927V1.75074C15.6905 1.75074 16.2381 2.31065 16.2381 2.95629H19.7619ZM15 -1.74927C12.3905 -1.74927 10.2381 0.350822 10.2381 2.95629H13.7619C13.7619 2.31065 14.3095 1.75074 15 1.75074V-1.74927ZM10.2381 2.95629V103.741H13.7619V2.95629H10.2381ZM11.6507 102.025C4.01626 103.559 -1.7619 110.225 -1.7619 118.223H1.76191C1.76191 111.945 6.30374 106.671 12.3494 105.456L11.6507 102.025ZM-1.7619 118.223C-1.7619 127.345 5.77549 134.751 15 134.751V131.251C7.69452 131.251 1.76191 125.386 1.76191 118.223H-1.7619ZM15 134.751C24.2244 134.751 31.7619 127.345 31.7619 118.223H28.2381C28.2381 125.386 22.3055 131.251 15 131.251V134.751ZM31.7619 118.223C31.7619 110.225 25.9837 103.559 18.3494 102.025L17.6506 105.456C23.6962 106.671 28.2381 111.945 28.2381 118.223H31.7619ZM15 125.34C10.9945 125.34 7.76191 122.134 7.76191 118.223H4.2381C4.2381 124.094 9.07548 128.84 15 128.84V125.34ZM7.76191 118.223C7.76191 114.311 10.9945 111.106 15 111.106V107.606C9.07548 107.606 4.2381 112.352 4.2381 118.223H7.76191ZM15 111.106C19.0055 111.106 22.2381 114.311 22.2381 118.223H25.7619C25.7619 112.352 20.9246 107.606 15 107.606V111.106ZM22.2381 118.223C22.2381 122.134 19.0055 125.34 15 125.34V128.84C20.9246 128.84 25.7619 124.094 25.7619 118.223H22.2381Z" fill="#CAF4DF"/></g></g><defs><clipPath id="clip0_31_161"><rect width="111" height="133" fill="white"/></clipPath></defs></svg>