<svg xmlns="http://www.w3.org/2000/svg"><symbol id="chevron-left" viewBox="0 0 20 34" fill="none"><path fill-rule="evenodd" clip-rule="evenodd" d="M19.5816 0.383014C19.0237 -0.127671 18.1192 -0.127671 17.5613 0.383014L0.418419 16.0753C-0.139475 16.586 -0.139475 17.414 0.418419 17.9247L17.5613 33.617C18.1192 34.1277 19.0237 34.1277 19.5816 33.617C20.1395 33.1063 20.1395 32.2783 19.5816 31.7676L3.44888 17L19.5816 2.23237C20.1395 1.72168 20.1395 0.8937 19.5816 0.383014Z" fill="currentColor"/></symbol><symbol id="chevron-right" viewBox="0 0 20 34" fill="none"><path fill-rule="evenodd" clip-rule="evenodd" d="M0.418419 33.617C0.976311 34.1277 1.88083 34.1277 2.43872 33.617L19.5816 17.9247C20.1395 17.414 20.1395 16.586 19.5816 16.0753L2.43872 0.383015C1.88083 -0.12767 0.976311 -0.12767 0.418419 0.383015C-0.139473 0.8937 -0.139473 1.72168 0.418419 2.23237L16.5511 17L0.418419 31.7676C-0.139473 32.2783 -0.139473 33.1063 0.418419 33.617Z" fill="currentColor"/></symbol><symbol id="arrow-right" viewBox="0 0 34 8" fill="none"><path d="M33.3536 4.35356C33.5488 4.15829 33.5488 3.84171 33.3536 3.64645L30.1716 0.464469C29.9763 0.269207 29.6597 0.269206 29.4645 0.464469C29.2692 0.659731 29.2692 0.976313 29.4645 1.17158L32.2929 4L29.4645 6.82843C29.2692 7.02369 29.2692 7.34027 29.4645 7.53554C29.6597 7.7308 29.9763 7.7308 30.1716 7.53554L33.3536 4.35356ZM-4.37114e-08 4.5L33 4.5L33 3.5L4.37114e-08 3.5L-4.37114e-08 4.5Z" fill="currentColor"/></symbol><symbol id="hamburger" viewBox="0 0 26 18" fill="none"><path d="M1 1H25" stroke="currentColor" stroke-width="2" stroke-linecap="round"/><path d="M1 9H25" stroke="currentColor" stroke-width="2" stroke-linecap="round"/><path d="M1 17H25" stroke="currentColor" stroke-width="2" stroke-linecap="round"/></symbol><symbol id="close" viewBox="0 0 26 26" fill="none"><path d="M1 1L13 13M25 25L13 13M13 13L25 1M13 13L1 25" stroke="currentColor" stroke-width="2" stroke-linecap="round"/></symbol><symbol id="" viewBox="" fill="none"/><symbol id="" viewBox="" fill="none"/><symbol id="" viewBox="" fill="none"/><symbol id="" viewBox="" fill="none"/><symbol id="" viewBox="" fill="none"/><symbol id="" viewBox="" fill="none"/></svg>