<svg width="100" height="95" viewBox="0 0 100 95" fill="none" xmlns="http://www.w3.org/2000/svg"><path d="M96.1394 43.4399C98.1141 41.497 98.8111 38.6457 97.9592 35.9985C97.107 33.3514 94.8825 31.4584 92.1536 31.0582L68.292 27.5585C67.8236 27.4899 67.4188 27.1929 67.2091 26.7642L56.5379 4.9395C55.3178 2.44346 52.8466 0.892944 50.0889 0.892944C47.3313 0.892944 44.8601 2.44346 43.64 4.9395L32.9686 26.7645C32.7589 27.1929 32.3542 27.4899 31.8857 27.5586L8.02441 31.0582C5.29553 31.4584 3.07123 33.3514 2.21884 35.9985C1.36644 38.6457 2.06378 41.497 4.03866 43.4399L21.305 60.4283C21.6438 60.762 21.7986 61.2425 21.7186 61.7135L17.6426 85.7013C17.1766 88.4447 18.2726 91.165 20.5035 92.801C22.7344 94.4376 25.637 94.6489 28.0775 93.3541L49.4197 82.0286C49.8389 81.8061 50.3392 81.8061 50.7586 82.0286L72.101 93.3541C73.1625 93.9173 74.3111 94.1958 75.4544 94.1955C76.9389 94.1955 78.4141 93.726 79.6744 92.8009C81.9053 91.1647 83.0016 88.4441 82.5353 85.701L78.4592 61.7133C78.3794 61.2422 78.5339 60.7617 78.8729 60.428L96.1394 43.4399ZM72.7891 62.6954L76.8653 86.6835C77.0016 87.4864 76.5106 87.944 76.2931 88.1033C76.0754 88.2624 75.4922 88.5928 74.7784 88.2136L53.4358 76.8881C52.3882 76.3324 51.2389 76.0542 50.0894 76.0542C48.9398 76.0542 47.7903 76.3324 46.7428 76.888L25.4007 88.2131C24.6863 88.5922 24.1034 88.2623 23.8859 88.1029C23.6684 87.9436 23.1772 87.4859 23.3138 86.6832L27.3898 62.6954C27.79 60.3401 27.017 57.9383 25.3214 56.2701L8.05507 39.2819C7.47722 38.7129 7.608 38.0515 7.69128 37.7935C7.77413 37.5352 8.05379 36.9223 8.85231 36.8054L32.7134 33.3055C35.056 32.962 37.0806 31.4777 38.1285 29.3345L48.7997 7.50948C49.1569 6.77917 49.8206 6.70026 50.0895 6.70026C50.3582 6.70026 51.0219 6.77895 51.3792 7.50948L62.0504 29.3347C63.0982 31.478 65.1225 32.9622 67.4651 33.3058L91.3266 36.8055C92.1251 36.9225 92.4045 37.5355 92.4876 37.7937C92.5707 38.052 92.7017 38.7137 92.1236 39.2821L74.8573 56.2704C73.1619 57.9383 72.3889 60.3401 72.7891 62.6954Z" fill="#1C3929"/><path d="M96.6526 43.9715C98.8277 41.8313 99.597 38.685 98.6585 35.7691L97.2599 36.2278C98.0254 38.6064 97.4004 41.1629 95.6261 42.9085L96.6526 43.9715ZM98.6585 35.7691C97.7198 32.8532 95.2652 30.7644 92.2593 30.3237L92.0479 31.7926C94.4998 32.152 96.4942 33.8494 97.2599 36.2278L98.6585 35.7691ZM92.2593 30.3237L68.3977 26.824L68.1862 28.2929L92.0479 31.7926L92.2593 30.3237ZM68.3977 26.824C68.169 26.7906 67.971 26.6454 67.8685 26.4358L66.5498 27.0927C66.8664 27.7404 67.4782 28.1892 68.1862 28.2929L68.3977 26.824ZM67.8685 26.4358L57.1973 4.61102L55.8785 5.26791L66.5498 27.0927L67.8685 26.4358ZM57.1973 4.61102C55.8532 1.8616 53.1264 0.150757 50.0889 0.150757V1.63513C52.5667 1.63513 54.7821 3.02526 55.8785 5.26791L57.1973 4.61102ZM50.0889 0.150757C47.0514 0.150757 44.3246 1.86164 42.9805 4.61106L44.2992 5.26796C45.3957 3.02531 47.6111 1.63513 50.0889 1.63513V0.150757ZM42.9805 4.61106L32.3093 26.436L33.6279 27.0933L44.2992 5.26796L42.9805 4.61106ZM32.3093 26.436C32.2065 26.6457 32.0088 26.7906 31.7798 26.8241L31.9914 28.2931C32.6996 28.1892 33.311 27.7404 33.6279 27.0933L32.3093 26.436ZM31.7798 26.8241L7.91864 30.3237L8.13006 31.7928L31.9914 28.2931L31.7798 26.8241ZM7.91864 30.3237C4.91272 30.7644 2.4584 32.8534 1.51952 35.7691L2.91809 36.228C3.684 33.8494 5.67822 32.1522 8.13006 31.7928L7.91864 30.3237ZM1.51952 35.7691C0.580583 38.685 1.35008 41.8315 3.5254 43.9715L4.55186 42.9085C2.77743 41.1628 2.15222 38.6064 2.91809 36.228L1.51952 35.7691ZM3.5254 43.9715L20.7917 60.9597L21.8183 59.8971L4.55186 42.9085L3.5254 43.9715ZM20.7917 60.9597C20.9576 61.1231 21.033 61.358 20.9939 61.5879L22.4433 61.8391C22.5643 61.127 22.3302 60.401 21.8183 59.8971L20.7917 60.9597ZM20.9939 61.5879L16.9179 85.5759L18.3673 85.8267L22.4433 61.8391L20.9939 61.5879ZM16.9179 85.5759C16.4046 88.5977 17.6139 91.5994 20.0713 93.4015L20.9357 92.2008C18.9313 90.7308 17.9485 88.2918 18.3673 85.8267L16.9179 85.5759ZM20.0713 93.4015C22.5288 95.2041 25.7315 95.4373 28.4196 94.011L27.7354 92.6971C25.5426 93.8606 22.9401 93.671 20.9357 92.2008L20.0713 93.4015ZM28.4196 94.011L49.7618 82.6855L49.0776 81.3717L27.7354 92.6971L28.4196 94.011ZM49.7618 82.6855C49.9667 82.5767 50.2111 82.5767 50.4164 82.6855L51.1007 81.3717C50.4671 81.0354 49.7111 81.0354 49.0776 81.3717L49.7618 82.6855ZM50.4164 82.6855L71.7587 94.011L72.443 92.6971L51.1007 81.3717L50.4164 82.6855ZM71.7587 94.011C72.9261 94.6304 74.1923 94.938 75.4545 94.9377L75.4543 93.4533C74.4301 93.4536 73.3988 93.2042 72.443 92.6971L71.7587 94.011ZM75.4545 94.9377C77.0936 94.9377 78.7202 94.419 80.1068 93.4012L79.2421 92.2005C78.1082 93.0329 76.7843 93.4533 75.4543 93.4533L75.4545 94.9377ZM80.1068 93.4012C82.5642 91.5989 83.7736 88.5972 83.2599 85.5756L81.8105 85.8266C82.2295 88.2911 81.2467 90.7302 79.2421 92.2005L80.1068 93.4012ZM83.2599 85.5756L79.1839 61.5878L77.7345 61.8385L81.8105 85.8266L83.2599 85.5756ZM79.1839 61.5878C79.1449 61.3572 79.2205 61.1226 79.3863 60.9594L78.3596 59.8966C77.8477 60.4008 77.6138 61.1269 77.7345 61.8385L79.1839 61.5878ZM79.3863 60.9594L96.6526 43.9715L95.6261 42.9085L78.3596 59.8966L79.3863 60.9594ZM72.0643 62.8208L76.1405 86.8091L77.5899 86.5582L73.5137 62.57L72.0643 62.8208ZM76.1405 86.8091C76.1771 87.0247 76.1301 87.1665 76.0735 87.2666C76.009 87.3803 75.9179 87.4612 75.8611 87.5027L76.7243 88.7045C77.0317 88.4793 77.7965 87.7751 77.5899 86.5582L76.1405 86.8091ZM75.8611 87.5027C75.8032 87.5449 75.6992 87.6071 75.572 87.6338C75.4601 87.6572 75.3121 87.6586 75.1207 87.5569L74.4358 88.8704C75.5189 89.4458 76.4186 88.9279 76.7243 88.7045L75.8611 87.5027ZM75.1207 87.5569L53.778 76.2313L53.0937 77.5451L74.4358 88.8704L75.1207 87.5569ZM53.778 76.2313C52.6235 75.6188 51.3564 75.312 50.0893 75.312V76.7964C51.1213 76.7964 52.153 77.0462 53.0937 77.5451L53.778 76.2313ZM50.0893 75.312C48.8223 75.312 47.5552 75.6187 46.4008 76.231L47.0848 77.5449C48.0254 77.0462 49.0573 76.7964 50.0893 76.7964V75.312ZM46.4008 76.231L25.0585 87.5563L25.7427 88.8701L47.0848 77.5449L46.4008 76.231ZM25.0585 87.5563C24.8665 87.6581 24.7183 87.6568 24.6065 87.6333C24.4793 87.6066 24.3749 87.5441 24.3177 87.5023L23.4539 88.7036C23.7605 88.9282 24.6596 89.4447 25.7427 88.8701L25.0585 87.5563ZM24.3177 87.5023C24.2608 87.4606 24.1698 87.3798 24.1054 87.266C24.0488 87.1661 24.0017 87.0243 24.0383 86.8086L22.589 86.5576C22.382 87.7748 23.1467 88.4785 23.4539 88.7036L24.3177 87.5023ZM24.0383 86.8086L28.1145 62.8208L26.6651 62.57L22.589 86.5576L24.0383 86.8086ZM28.1145 62.8208C28.5555 60.2248 27.7036 57.5773 25.8346 55.7387L24.8082 56.8017C26.3304 58.2993 27.0243 60.4555 26.6651 62.57L28.1145 62.8208ZM25.8346 55.7387L8.56828 38.7504L7.54165 39.8132L24.8082 56.8017L25.8346 55.7387ZM8.56828 38.7504C8.41297 38.5975 8.36856 38.4548 8.35615 38.3404C8.34203 38.2102 8.36864 38.0907 8.39036 38.0235L6.99212 37.5636C6.87439 37.9283 6.66578 38.9509 7.54165 39.8132L8.56828 38.7504ZM8.39036 38.0235C8.41194 37.9562 8.46038 37.8425 8.54768 37.7454C8.6244 37.6602 8.74349 37.5713 8.95786 37.5398L8.74668 36.0709C7.53593 36.2481 7.10925 37.1986 6.99212 37.5636L8.39036 38.0235ZM8.95786 37.5398L32.819 34.04L32.6076 32.571L8.74668 36.0709L8.95786 37.5398ZM32.819 34.04C35.4013 33.6613 37.6327 32.0252 38.7879 29.6629L37.469 29.006C36.5283 30.9301 34.7108 32.2626 32.6076 32.571L32.819 34.04ZM38.7879 29.6629L49.459 7.83796L48.1404 7.18095L37.469 29.006L38.7879 29.6629ZM49.459 7.83796C49.5551 7.6418 49.6755 7.55504 49.7796 7.50772C49.898 7.45391 50.0189 7.44245 50.0895 7.44245V5.95807C49.7101 5.95807 48.6818 6.07368 48.1404 7.18095L49.459 7.83796ZM50.0895 7.44245C50.1601 7.44245 50.2808 7.45386 50.3992 7.50766C50.5032 7.55493 50.6239 7.6418 50.7199 7.83811L52.0386 7.18102C51.4968 6.0736 50.4686 5.95807 50.0895 5.95807V7.44245ZM50.7199 7.83811L61.391 29.6632L62.7098 29.0063L52.0386 7.18102L50.7199 7.83811ZM61.391 29.6632C62.5458 32.0255 64.7771 33.6616 67.3593 34.0403L67.5708 32.5713C65.4676 32.2629 63.6504 30.9304 62.7098 29.0063L61.391 29.6632ZM67.3593 34.0403L91.2208 37.54L91.4323 36.0711L67.5708 32.5713L67.3593 34.0403ZM91.2208 37.54C91.4352 37.5713 91.5543 37.6604 91.6311 37.7456C91.7183 37.8427 91.7664 37.9552 91.7883 38.0229L93.187 37.5645C93.0698 37.2002 92.6432 36.2484 91.4323 36.0711L91.2208 37.54ZM91.7883 38.0229C91.8101 38.0908 91.8367 38.2106 91.8226 38.3408C91.8102 38.4553 91.7657 38.5979 91.6105 38.7505L92.6367 39.8136C93.5133 38.9516 93.304 37.9283 93.187 37.5645L91.7883 38.0229ZM91.6105 38.7505L74.344 55.7389L75.3705 56.8018L92.6367 39.8136L91.6105 38.7505ZM74.344 55.7389C72.4752 57.5773 71.6233 60.225 72.0643 62.8208L73.5137 62.57C73.1545 60.4553 73.8485 58.2993 75.3705 56.8018L74.344 55.7389Z" fill="#1C3929"/></svg>