<svg width="99" height="99" viewBox="0 0 99 99" fill="none" xmlns="http://www.w3.org/2000/svg"><rect x="2" y="2" width="97" height="97" rx="8" fill="white"/><g filter="url(#filter0_i_764_1348)"><rect width="97" height="97" rx="8" fill="#F7F9FC"/></g><path fill-rule="evenodd" clip-rule="evenodd" d="M61.8826 44.6056C62.9679 42.7968 63.5925 40.6756 63.5925 38.4073C63.5925 31.783 58.268 26.4152 51.6972 26.4152C45.5067 26.4152 40.4225 31.1797 39.8547 37.2707C39.4693 37.2733 39.0719 37.2746 38.6615 37.2746C38.0643 37.2746 37.5802 37.7627 37.5802 38.3648C37.5802 38.9669 38.0643 39.455 38.6615 39.455C39.0676 39.455 39.4624 39.4537 39.8464 39.4508C40.3709 45.5851 45.4759 50.3994 51.6972 50.3994C55.2384 50.3994 58.4179 48.8397 60.5969 46.3645C64.4864 48.8569 66.8371 52.832 66.8371 57.1423V66.7294C66.8371 67.3331 66.3544 67.8196 65.7557 67.8196H37.6396C37.0409 67.8196 36.5582 67.3331 36.5582 66.7294V57.1423C36.5582 53.8112 37.9532 50.6682 40.4452 48.2307C40.8738 47.8114 40.8841 47.1212 40.4682 46.6891C40.0523 46.257 39.3677 46.2466 38.9391 46.6658C36.0383 49.5033 34.3955 53.2046 34.3955 57.1423V66.7294C34.3955 68.5373 35.8464 70 37.6396 70H65.7557C67.5489 70 68.9998 68.5373 68.9998 66.7294V57.1423C68.9998 52.1023 66.2995 47.4896 61.8826 44.6056ZM42.0155 39.4152C42.516 44.3604 46.6593 48.219 51.6972 48.219C57.0728 48.219 61.4297 43.826 61.4297 38.4073C61.4297 32.9872 57.0735 28.5956 51.6972 28.5956C46.7141 28.5956 42.6074 32.3683 42.0334 37.2359C48.963 37.0498 51.3237 36.124 54.427 32.9955C54.8492 32.5697 55.534 32.5697 55.9563 32.9955C56.3786 33.4212 56.3786 34.1115 55.9563 34.5372C52.3849 38.1377 49.5588 39.21 42.0155 39.4152Z" fill="white"/><path fill-rule="evenodd" clip-rule="evenodd" d="M59.4871 42.1904C60.5723 40.3816 61.197 38.2604 61.197 35.9921C61.197 29.3678 55.8725 24 49.3017 24C43.1112 24 38.027 28.7645 37.4592 34.8555C37.0738 34.8581 36.6764 34.8594 36.266 34.8594C35.6688 34.8594 35.1846 35.3475 35.1846 35.9496C35.1846 36.5517 35.6688 37.0398 36.266 37.0398C36.6721 37.0398 37.0669 37.0385 37.4509 37.0356C37.9754 43.1699 43.0804 47.9842 49.3017 47.9842C52.8429 47.9842 56.0224 46.4245 58.2014 43.9493C62.0909 46.4417 64.4415 50.4168 64.4415 54.7271V64.3142C64.4415 64.9179 63.9589 65.4044 63.3602 65.4044H35.2441C34.6454 65.4044 34.1627 64.9179 34.1627 64.3142V54.7271C34.1627 51.396 35.5577 48.253 38.0497 45.8155C38.4783 45.3962 38.4886 44.706 38.0727 44.2739C37.6568 43.8418 36.9722 43.8314 36.5436 44.2507C33.6428 47.0881 32 50.7894 32 54.7271V64.3142C32 66.1221 33.4509 67.5848 35.2441 67.5848H63.3602C65.1534 67.5848 66.6043 66.1221 66.6043 64.3142V54.7271C66.6043 49.6871 63.904 45.0744 59.4871 42.1904ZM39.62 37C40.1205 41.9452 44.2637 45.8038 49.3017 45.8038C54.6773 45.8038 59.0342 41.4108 59.0342 35.9921C59.0342 30.572 54.678 26.1804 49.3017 26.1804C44.3186 26.1804 40.2119 29.9531 39.6379 34.8207C46.5675 34.6346 48.9282 33.7088 52.0315 30.5803C52.4537 30.1545 53.1385 30.1545 53.5607 30.5803C53.9831 31.006 53.9831 31.6963 53.5607 32.122C49.9894 35.7225 47.1633 36.7948 39.62 37Z" fill="#D1D1D1"/><defs><filter id="filter0_i_764_1348" x="0" y="0" width="100" height="100" filterUnits="userSpaceOnUse" color-interpolation-filters="sRGB"><feFlood flood-opacity="0" result="BackgroundImageFix"/><feBlend mode="normal" in="SourceGraphic" in2="BackgroundImageFix" result="shape"/><feColorMatrix in="SourceAlpha" type="matrix" values="0 0 0 0 0 0 0 0 0 0 0 0 0 0 0 0 0 0 127 0" result="hardAlpha"/><feOffset dx="3" dy="3"/><feGaussianBlur stdDeviation="9.5"/><feComposite in2="hardAlpha" operator="arithmetic" k2="-1" k3="1"/><feColorMatrix type="matrix" values="0 0 0 0 0 0 0 0 0 0 0 0 0 0 0 0 0 0 0.05 0"/><feBlend mode="normal" in2="shape" result="effect1_innerShadow_764_1348"/></filter></defs></svg>