<svg width="269" height="144" viewBox="0 0 269 144" fill="none" xmlns="http://www.w3.org/2000/svg"><g style="mix-blend-mode:luminosity"><path opacity="0.5" d="M262.949 144.078C262.93 144.115 262.902 144.152 262.884 144.189C262.737 144.456 262.58 144.724 262.423 145L21.1869 144.926C21.1869 144.926 20.9565 144.668 20.5326 144.161C20.505 144.134 20.4865 144.106 20.4589 144.069C19.3807 142.779 17.2151 140.051 14.6717 136.218C7.93538 126.026 -1.39965 107.982 0.176153 87.9577C0.618484 82.3088 1.92705 76.4939 4.41516 70.6607C11.9532 52.9582 34.4292 41.0245 54.6843 40.7849C62.5264 40.6928 70.0276 42.3515 76.2018 46.1021C77.2985 46.7656 78.6715 47.2817 80.275 47.6318C81.6204 47.9267 83.1317 48.111 84.772 48.1663C97.9222 48.6271 119.32 41.218 132.009 22.5664C138.746 12.66 149.094 6.1817 160.982 2.79971C161.535 2.64305 162.097 2.49561 162.65 2.34816C165.35 1.65702 168.133 1.11332 170.953 0.735497C171.46 0.67099 171.976 0.606483 172.483 0.541977C185.025 -0.914031 198.46 0.588052 210.79 4.75334C212.412 5.29704 214.016 5.89603 215.601 6.53188C238.795 15.9222 256.839 35.0991 255.254 61.8786C255.189 62.9383 255.097 64.0073 254.968 65.0947C254.729 67.1589 254.378 69.26 253.908 71.4071C253.632 72.6696 253.309 73.9505 252.941 75.2499C243.385 109.208 281.591 110.738 262.949 144.078Z" fill="#DCEAFF"/><path d="M262.948 144.079L75.1788 144.097L76.8007 87.9762V72.7434H83.8227V60.8281H97.8299V70.9372H102.106V52.2487H103.036V50.9401H103.202V52.2487H106.584V50.9401H106.75V52.2487H111.533V50.9401H111.699V52.2487H114.712V50.9401H114.878V52.2487H116.113V69.7023H120.84V66.8733L126.416 66.9009V62.3302H127.54V61.4271H127.687V62.3302H131.991H132.848V61.4271H132.995V62.3302H134.037V71.4256H140.672V74.7707H144.367V72.8263H147.786V65.1132H149.49V61.51H149.749V65.1132H153.84V58.3676H154.246V65.1132H156.955V65.021V64.164V63.353V62.0076V61.1506V59.8052V58.9482V57.6027V56.672V55.3266V54.1378V52.7924V51.8985H157.757V50.894H157.886V51.8985H163.857V50.894H163.986V51.8985H165.073V58.9482H165.838H165.829V57.6027H165.838V56.672H165.829V55.3266H165.838V54.3958H165.829V53.0504H165.838H173.081H174.326C174.39 53.0873 174.455 53.1241 174.519 53.161V62.1551H175.855V60.8557H191.153V70.9648H195.825V52.2487H196.838V50.9401H197.023V52.2487H200.709V50.9401H200.893V52.2487H206.118V50.9401H206.302V52.2487H209.592V50.9401H209.777V52.2487H211.131V69.7023H216.292V66.8733L222.374 66.9009V62.3302H223.599V61.4271H223.765V62.3302H228.465H229.405V61.4271H229.571V62.3302H230.704V71.4256H237.948V74.7707H241.975V72.8263H245.707V65.1132H247.568V61.51H247.854V65.1132H252.323V58.3676H252.766V65.1132H254.959C254.719 67.1774 254.369 69.2784 253.899 71.4256C253.623 72.6881 253.3 73.969 252.932 75.2683C243.385 109.208 281.591 110.738 262.948 144.079Z" fill="#DFEBFA"/><path d="M215.601 6.55045V144.088H210.79V4.7627C212.421 5.31561 214.025 5.90538 215.601 6.55045Z" fill="#AFCDFB"/><path d="M80.275 47.6408V144.17H20.5326C20.505 144.143 20.4865 144.115 20.4589 144.078C19.3807 142.788 17.2151 140.06 14.6717 136.227C7.93538 126.035 -1.39965 107.991 0.176153 87.9667C0.618484 82.3177 1.92705 76.5029 4.41516 70.6697C11.9532 52.958 34.4292 41.0243 54.6843 40.7847C62.4527 40.8676 69.8525 42.5448 75.9991 46.1019C77.151 46.7746 78.5978 47.2906 80.275 47.6408Z" fill="#CEE1FD"/><path d="M172.492 0.55127V17.4889C172.492 18.8067 172.17 19.8848 171.773 19.8848H171.672C171.276 19.8848 170.953 18.8067 170.953 17.4889V0.744789C171.469 0.671067 171.976 0.606561 172.492 0.55127Z" fill="#9FC1F4"/><path d="M171.322 15.8115C165.737 15.8115 161.212 20.5942 161.212 26.5012H181.431C181.431 20.5942 176.906 15.8115 171.322 15.8115Z" fill="#FF9843"/><path d="M172.132 15.9408C171.838 15.8763 171.543 15.8486 171.248 15.8486C167.608 15.8486 164.659 20.6221 164.659 26.5014H166.437C166.428 21.1013 168.916 16.6411 172.132 15.9408Z" fill="#FFC48A"/><path d="M237.893 128.321C237.893 128.321 235.202 125.178 237.727 123.188C237.727 123.188 239.57 122.073 241.072 122.165C241.072 122.165 238.943 125.74 239.634 126.091C240.325 126.45 241.717 121.944 241.717 121.944C241.717 121.944 245.91 121.538 247.264 122.183C247.264 122.183 243.68 125.114 244.435 125.289C245.191 125.464 249.061 122.58 249.061 122.58C249.061 122.58 252.969 123.243 252.757 125.63C252.545 128.007 251.199 128.744 250.61 128.68C250.02 128.615 246.555 127.298 246.481 127.777C246.407 128.256 248.49 129.841 249.946 129.915C249.946 129.915 247.191 132.947 245.366 132.071C243.532 131.196 243.385 129.804 242.242 129.288C241.099 128.763 240.132 128.772 240.602 129.297C241.072 129.832 243.136 130.348 243.79 131.5C244.445 132.652 245.025 133.435 243.136 133.149C241.247 132.864 238.169 131.481 238.031 129.896C237.893 128.321 237.893 128.321 237.893 128.321Z" fill="#77A4E5"/><path d="M250.839 125.694C250.839 125.694 240.233 125.289 237.892 128.321C237.892 128.321 237.376 129.869 235.782 131.288L235.533 131.961C235.533 131.961 237.367 130.025 238.03 129.906C238.021 129.906 236.998 126.146 250.839 125.694Z" fill="#77A4E5"/><path d="M235.773 131.279C235.773 131.279 233.497 132.965 233.34 135.969L233.755 136.006C233.755 136.006 234.483 132.891 235.791 131.675C237.109 130.468 235.773 131.279 235.773 131.279Z" fill="#77A4E5"/><path d="M228.483 124.377C228.483 124.377 232.759 121.981 230.769 118.728C230.769 118.728 229.175 116.728 227.461 116.221C227.461 116.221 228.373 121.068 227.461 121.188C226.548 121.299 226.834 115.714 226.834 115.714C226.834 115.714 222.328 113.549 220.558 113.715C220.558 113.715 223.351 118.451 222.438 118.331C221.526 118.212 218.384 113.429 218.384 113.429C218.384 113.429 213.767 112.572 213.02 115.309C212.283 118.046 213.481 119.419 214.163 119.585C214.845 119.76 219.241 119.695 219.13 120.267C219.019 120.838 216.052 121.75 214.393 121.234C214.393 121.234 216.218 125.74 218.614 125.51C221.01 125.28 221.756 123.796 223.231 123.685C224.714 123.575 225.802 123.971 225.055 124.367C224.318 124.764 221.802 124.496 220.604 125.519C219.406 126.542 218.439 127.169 220.66 127.62C222.881 128.081 226.88 127.795 227.673 126.081C228.483 124.377 228.483 124.377 228.483 124.377Z" fill="#77A4E5"/><path d="M215.131 116.157C215.131 116.157 227.111 120.036 228.484 124.368C228.484 124.368 228.428 126.303 229.626 128.533V129.39C229.626 129.39 228.373 126.478 227.691 126.082C227.682 126.082 230.364 122.322 215.131 116.157Z" fill="#77A4E5"/><path d="M229.626 128.533C229.626 128.533 231.469 131.334 230.419 134.753L229.94 134.624C229.94 134.624 230.4 130.864 229.433 128.966C228.474 127.086 229.626 128.533 229.626 128.533Z" fill="#77A4E5"/><path d="M235.294 121.068C235.294 121.068 229.654 117.907 232.29 113.622C232.29 113.622 234.4 110.987 236.648 110.314C236.648 110.314 235.441 116.709 236.648 116.857C237.856 117.004 237.478 109.641 237.478 109.641C237.478 109.641 243.422 106.785 245.753 107.006C245.753 107.006 242.067 113.244 243.274 113.097C244.481 112.95 248.61 106.628 248.61 106.628C248.61 106.628 254.701 105.504 255.678 109.107C256.655 112.719 255.079 114.525 254.176 114.747C253.273 114.968 247.485 114.894 247.633 115.65C247.78 116.405 251.697 117.603 253.872 116.931C253.872 116.931 251.466 122.874 248.306 122.57C245.145 122.266 244.168 120.313 242.214 120.165C240.261 120.018 238.832 120.543 239.809 121.068C240.786 121.593 244.094 121.243 245.679 122.579C247.264 123.916 248.536 124.745 245.606 125.353C242.675 125.952 237.404 125.574 236.353 123.326C235.303 121.077 235.294 121.068 235.294 121.068Z" fill="#9FC1F4"/><path d="M252.886 110.24C252.886 110.24 237.091 115.355 235.284 121.068C235.284 121.068 235.358 123.621 233.782 126.56V127.685C233.782 127.685 235.441 123.851 236.335 123.326C236.344 123.326 232.806 118.359 252.886 110.24Z" fill="#9FC1F4"/><path d="M233.792 126.56C233.792 126.56 231.359 130.256 232.741 134.762L233.368 134.596C233.368 134.596 232.76 129.638 234.031 127.141C235.303 124.643 233.792 126.56 233.792 126.56Z" fill="#9FC1F4"/><path d="M235.1 144.521C241.201 144.521 246.149 139.572 246.149 133.472H224.051C224.051 139.572 229 144.521 235.1 144.521Z" fill="#9FC1F4"/><path d="M237.819 144.438C237.367 144.493 236.916 144.521 236.446 144.521C230.345 144.521 225.397 139.572 225.397 133.472H228.143C228.143 139.111 232.363 143.756 237.819 144.438Z" fill="#AFCDFB"/><path d="M246.407 133.472H223.691V133.813H246.407V133.472Z" fill="#9FC1F4"/><path d="M183.67 143.977L172.814 98.9143L173.57 97.145L184.324 143.977C184.352 144.097 184.26 144.207 184.14 144.207H183.965C183.817 144.207 183.698 144.115 183.67 143.977Z" fill="#77A4E5"/><path d="M134.672 144.207C134.451 144.207 134.276 144.005 134.313 143.783L137.511 124.404H138.884L135.069 143.876C135.032 144.069 134.866 144.207 134.672 144.207Z" fill="#77A4E5"/><path d="M165.341 144.207C165.12 144.207 164.945 144.005 164.981 143.783L168.179 124.404H169.552L165.737 143.876C165.7 144.069 165.534 144.207 165.341 144.207Z" fill="#77A4E5"/><path d="M172.777 124.45H134.589L142.505 74.8442H180.693L172.777 124.45Z" fill="#F5FBFF"/><path d="M175.634 124.063H131.779V125.519H175.634V124.063Z" fill="#77A4E5"/><path d="M157.628 85.2206C157.6 85.6169 157.545 85.9947 157.453 86.3725C156.66 89.9204 153.499 92.6297 149.933 92.6389C145.989 92.6481 143.031 89.3306 143.335 85.2391C143.639 81.1475 147.076 77.8208 151.03 77.8208C151.859 77.8208 152.642 77.9682 153.361 78.2355C153.684 78.3553 153.997 78.5027 154.292 78.6686C154.928 79.028 155.499 79.498 155.978 80.0509C156.246 80.355 156.485 80.696 156.697 81.0461C156.817 81.2489 156.927 81.47 157.029 81.6912C157.305 82.3086 157.499 82.9721 157.591 83.6725C157.637 84.0227 157.655 84.3913 157.655 84.7599C157.646 84.9073 157.637 85.064 157.628 85.2206Z" fill="#BDD1F9"/><path d="M157.019 81.6911L150.477 85.2389C150.477 85.2389 153.177 80.4839 154.282 78.6685C154.918 79.0279 155.49 79.4978 155.969 80.0507C156.236 80.3548 156.476 80.6958 156.688 81.046C156.817 81.2579 156.927 81.4699 157.019 81.6911Z" fill="white"/><path d="M157.702 80.7881L151.73 84.0318C151.73 84.0318 154.191 79.6915 155.204 78.0327C155.785 78.3645 156.31 78.7884 156.743 79.2952C156.983 79.5717 157.204 79.885 157.397 80.2075C157.508 80.3918 157.609 80.5853 157.702 80.7881Z" fill="#F99746"/><path d="M169.737 120.672H138.303L141.483 102.536H172.916L169.737 120.672ZM138.561 120.487H169.552L172.667 102.72H141.676L138.561 120.487Z" fill="#BDD1F9"/><path d="M167.866 118.184H139.99C139.99 118.184 144.938 115.53 146.293 115.668C147.647 115.806 149.601 116.885 150.854 116.921C152.108 116.958 153.462 113.199 154.863 113.374C156.255 113.549 156.78 116.885 157.508 116.553C158.236 116.221 160.401 116.083 161.645 116.553C162.899 117.023 164.714 115.069 165.811 115.134C166.907 115.207 167.866 118.184 167.866 118.184Z" fill="#F99746"/><path d="M146.689 112.857H141.372L141.418 112.572H146.744L146.689 112.857Z" fill="#F99746"/><path d="M146.588 113.466L141.261 113.457L141.307 113.18H146.634L146.588 113.466Z" fill="#F99746"/><path d="M141.584 109.098H169.46C169.46 109.098 165.442 106.444 164.042 106.582C162.632 106.72 160.309 107.798 159.038 107.835C157.766 107.881 157.729 104.112 156.273 104.287C154.817 104.462 153.121 107.789 152.513 107.466C151.905 107.144 149.786 106.996 148.376 107.466C146.966 107.936 145.823 105.983 144.708 106.047C143.584 106.112 141.584 109.098 141.584 109.098Z" fill="#BDD1F9"/><path d="M148.2 104.287H142.874L142.92 104.001H148.246L148.2 104.287Z" fill="#BDD1F9"/><path d="M148.09 104.886H142.763L142.819 104.61H148.136L148.09 104.886Z" fill="#BDD1F9"/><path d="M143.39 100.011H142.164L143.233 94.2793H144.45L143.39 100.011Z" fill="#BDD1F9"/><path d="M145.058 100.011H143.833L144.662 95.5693H145.878L145.058 100.011Z" fill="#BDD1F9"/><path d="M146.726 100.011H145.5L146.357 95.376H147.583L146.726 100.011Z" fill="#BDD1F9"/><path d="M148.385 100.011H147.168L147.823 96.4912H149.039L148.385 100.011Z" fill="#BDD1F9"/><path d="M150.053 100.011H148.827L149.528 96.2329H150.753L150.053 100.011Z" fill="#BDD1F9"/><path d="M151.721 100.011H150.495L151.039 97.0806H152.264L151.721 100.011Z" fill="#BDD1F9"/><path d="M159.747 100.011H158.521L159.59 94.2793H160.807L159.747 100.011Z" fill="#F99746"/><path d="M161.415 100.011H160.19L161.01 95.5693H162.235L161.415 100.011Z" fill="#F99746"/><path d="M163.083 100.011H161.857L162.714 95.376H163.94L163.083 100.011Z" fill="#F99746"/><path d="M164.742 100.011H163.526L164.171 96.4912H165.396L164.742 100.011Z" fill="#F99746"/><path d="M166.41 100.011H165.184L165.884 96.2329H167.11L166.41 100.011Z" fill="#F99746"/><path d="M168.078 100.011H166.852L167.396 97.0806H168.622L168.078 100.011Z" fill="#F99746"/><path d="M165.636 81.304H161.655L161.756 80.7603H165.737L165.636 81.304Z" fill="#BDD1F9"/><path d="M170.52 81.304H166.124L166.226 80.7603H170.621L170.52 81.304Z" fill="#BDD1F9"/><path d="M173.653 81.304H170.852L170.953 80.7603H173.754L173.653 81.304Z" fill="#BDD1F9"/><path d="M176.27 81.304H174.104L174.206 80.7603H176.371L176.27 81.304Z" fill="#BDD1F9"/><path d="M165.203 83.6262H161.222L161.323 83.0825H165.304L165.203 83.6262Z" fill="#BDD1F9"/><path d="M170.077 83.6262H165.682L165.792 83.0825H170.179L170.077 83.6262Z" fill="#BDD1F9"/><path d="M173.21 83.6262H170.409L170.51 83.0825H173.312L173.21 83.6262Z" fill="#BDD1F9"/><path d="M175.828 83.6262H173.662L173.773 83.0825H175.929L175.828 83.6262Z" fill="#BDD1F9"/><path d="M168.004 80.0325H161.894L161.996 79.4888H168.105L168.004 80.0325Z" fill="#BDD1F9"/><path d="M172.105 80.0325H168.585L168.686 79.4888H172.206L172.105 80.0325Z" fill="#BDD1F9"/><path d="M176.51 80.0325H172.602L172.704 79.4888H176.611L176.51 80.0325Z" fill="#BDD1F9"/><path d="M167.534 82.5022H161.433L161.535 81.9585H167.635L167.534 82.5022Z" fill="#BDD1F9"/><path d="M171.635 82.5022H168.115L168.216 81.9585H171.736L171.635 82.5022Z" fill="#BDD1F9"/><path d="M176.04 82.5022H172.132L172.234 81.9585H176.141L176.04 82.5022Z" fill="#BDD1F9"/><path d="M164.76 85.9578H160.779L160.881 85.4141H164.862L164.76 85.9578Z" fill="#BDD1F9"/><path d="M169.644 85.9578H165.249L165.35 85.4141H169.746L169.644 85.9578Z" fill="#BDD1F9"/><path d="M172.778 85.9578H169.976L170.078 85.4141H172.879L172.778 85.9578Z" fill="#BDD1F9"/><path d="M175.395 85.9578H173.229L173.33 85.4141H175.496L175.395 85.9578Z" fill="#BDD1F9"/><path d="M167.101 84.8337H160.991L161.093 84.29H167.202L167.101 84.8337Z" fill="#BDD1F9"/><path d="M171.202 84.8337H167.682L167.783 84.29H171.303L171.202 84.8337Z" fill="#BDD1F9"/><path d="M175.607 84.8337H171.699L171.801 84.29H175.708L175.607 84.8337Z" fill="#BDD1F9"/><path d="M164.355 88.1418H160.374L160.475 87.5889H164.456L164.355 88.1418Z" fill="#BDD1F9"/><path d="M169.23 88.1418H164.843L164.945 87.5889H169.34L169.23 88.1418Z" fill="#BDD1F9"/><path d="M172.363 88.1418H169.562L169.663 87.5889H172.474L172.363 88.1418Z" fill="#BDD1F9"/><path d="M174.98 88.1418H172.824L172.925 87.5889H175.081L174.98 88.1418Z" fill="#BDD1F9"/><path d="M166.686 87.0085H160.586L160.687 86.4648H166.788L166.686 87.0085Z" fill="#BDD1F9"/><path d="M170.787 87.0085H167.267L167.377 86.4648H170.898L170.787 87.0085Z" fill="#BDD1F9"/><path d="M175.201 87.0085H171.285L171.386 86.4648H175.302L175.201 87.0085Z" fill="#BDD1F9"/><path d="M155.296 95.1266H153.342L153.398 94.8594H155.342L155.296 95.1266Z" fill="#BDD1F9"/><path d="M157.683 95.1266H155.536L155.582 94.8594H157.739L157.683 95.1266Z" fill="#BDD1F9"/><path d="M155.084 96.2697H153.13L153.186 96.0024H155.13L155.084 96.2697Z" fill="#BDD1F9"/><path d="M157.471 96.2697H155.315L155.37 96.0024H157.517L157.471 96.2697Z" fill="#BDD1F9"/><path d="M156.448 94.5094H153.462L153.508 94.2422H156.503L156.448 94.5094Z" fill="#BDD1F9"/><path d="M158.457 94.5094H156.734L156.789 94.2422H158.512L158.457 94.5094Z" fill="#BDD1F9"/><path d="M156.227 95.7165H153.232L153.287 95.4492H156.273L156.227 95.7165Z" fill="#BDD1F9"/><path d="M158.236 95.7165H156.513L156.559 95.4492H158.282L158.236 95.7165Z" fill="#BDD1F9"/><path d="M170.897 95.1266H168.953L168.999 94.8594H170.953L170.897 95.1266Z" fill="#BDD1F9"/><path d="M173.294 95.1266H171.137L171.193 94.8594H173.34L173.294 95.1266Z" fill="#BDD1F9"/><path d="M170.686 96.2697H168.741L168.787 96.0024H170.732L170.686 96.2697Z" fill="#BDD1F9"/><path d="M173.073 96.2697H170.926L170.972 96.0024H173.128L173.073 96.2697Z" fill="#BDD1F9"/><path d="M172.059 94.5094H169.073L169.119 94.2422H172.105L172.059 94.5094Z" fill="#BDD1F9"/><path d="M174.068 94.5094H172.344L172.39 94.2422H174.114L174.068 94.5094Z" fill="#BDD1F9"/><path d="M171.828 95.7165H168.843L168.889 95.4492H171.884L171.828 95.7165Z" fill="#BDD1F9"/><path d="M173.837 95.7165H172.114L172.169 95.4492H173.883L173.837 95.7165Z" fill="#BDD1F9"/><path d="M181.265 143.47C181.2 144.401 179.882 144.41 178.39 144.235C176.897 144.06 177.293 144.438 175.201 144.466C173.109 144.493 172.39 143.802 172.289 143.507C172.197 143.24 173.201 143.019 174.28 142.761C174.418 142.724 174.547 142.696 174.685 142.659C175.901 142.355 176.703 141.443 177.745 140.651C178.731 139.895 180.002 137.176 180.002 137.176L182.859 137.047C182.859 137.047 181.661 139.489 181.209 140.54C180.942 141.157 181.053 141.922 181.173 142.503C181.228 142.816 181.292 143.139 181.265 143.47Z" fill="#FFB27D"/><path d="M178.39 144.245C176.897 144.07 177.293 144.447 175.201 144.475C173.109 144.503 172.39 143.812 172.289 143.517C172.197 143.249 173.201 143.028 174.28 142.77L174.289 142.789C174.289 142.789 175.634 143.507 177.357 143.342C178.758 143.203 180.196 142.614 181.163 142.512C181.228 142.826 181.283 143.157 181.265 143.48C181.2 144.401 179.882 144.411 178.39 144.245Z" fill="#233862"/><path d="M200.985 143.664C200.921 144.595 199.603 144.604 198.11 144.438C196.617 144.263 197.014 144.641 194.922 144.678C192.83 144.705 192.111 144.023 192.01 143.719C191.918 143.452 192.922 143.231 194 142.964C194.138 142.927 194.268 142.899 194.406 142.862C195.622 142.549 196.424 141.646 197.465 140.844C198.451 140.089 197.465 135.638 197.465 135.638L200.608 135.333C200.608 135.333 200.46 139.084 200.46 140.789C200.46 141.462 200.773 142.107 200.884 142.696C200.949 143.01 201.004 143.332 200.985 143.664Z" fill="#FFB27D"/><path d="M198.11 144.438C196.617 144.263 197.014 144.641 194.922 144.678C192.83 144.705 192.111 144.023 192.01 143.719C191.918 143.452 192.922 143.231 194 142.963L194.009 142.982C194.009 142.982 195.355 143.701 197.078 143.526C198.479 143.387 199.907 142.798 200.875 142.687C200.939 143 200.995 143.332 200.976 143.655C200.912 144.595 199.603 144.613 198.11 144.438Z" fill="#233862"/><path d="M191.816 66.6521C191.273 64.4312 192.056 63.3899 192.766 62.8462C193.097 62.0261 193.484 61.4363 193.871 61.2151C194.581 60.8097 195.438 60.7636 196.037 60.8004C195.88 60.6438 195.576 60.5793 195.576 60.5793C195.945 60.524 196.774 60.8926 196.774 60.8926C201.935 58.9021 202.746 66.5047 202.635 68.2648C202.524 70.0341 202.543 72.1075 205.225 73.499C210.348 76.153 203.52 86.1515 203.52 86.1515C203.649 84.7232 197.069 77.1943 193.632 74.9458C192.793 73.711 192.498 71.5454 192.48 71.3703C192.627 73.0936 192.922 74.0612 193.18 74.6049C191.632 73.1581 191.402 69.7024 191.816 66.6521Z" fill="#A9453D"/><path d="M193.853 75.0566C193.834 75.0658 195.512 75.932 196.774 75.5911C197.963 75.2685 198.737 73.7296 198.718 73.7296C198.221 73.6282 198.073 72.9371 198.083 69.979L197.852 70.0251L194.037 70.7807C194.037 70.7807 194.12 71.9787 194.129 73.1122C194.129 74.0521 194.074 74.9552 193.853 75.0566Z" fill="#FFB27D"/><path d="M194.037 70.7713C194.037 70.7713 194.12 71.9693 194.129 73.1027C196.267 73.0382 197.391 71.0938 197.852 70.0156L194.037 70.7713Z" fill="#ED975D"/><path d="M178.519 138.687C178.335 139.277 178.749 139.876 179.367 139.904L180.86 139.978L182.435 140.024C182.832 140.033 183.209 139.867 183.458 139.554C184.721 138.005 188.591 132.863 190.941 125.381C191.005 125.169 191.079 124.957 191.153 124.745C192.701 120.22 195.926 114.534 197.622 109.392C197.889 108.572 198.138 107.798 198.35 107.07C198.424 106.84 198.488 106.609 198.553 106.379C199.806 102.038 200.165 99.1817 200.497 96.1406L188.25 96.242C188.241 96.2512 185.67 116.294 178.519 138.687Z" fill="#2A4E96"/><path d="M189.955 89.2202C189.982 95.0442 189.098 97.5508 189.098 97.5508C189.098 97.5508 194.341 100.214 200.571 98.2511C200.644 98.2235 205.031 96.9886 205.031 96.9886C204.929 96.749 204.063 92.851 203.962 92.639C202.644 89.81 202.285 88.6304 202.128 87.755C201.842 86.1331 201.833 84.4559 201.98 82.8709C202.358 78.678 203.492 75.2038 203.492 75.2038C201.796 74.8168 200.202 74.1349 198.433 73.4806C198.027 73.9874 196.783 74.5127 195.705 74.4943C194.461 74.4666 194.065 73.9321 194.129 73.3516C192.802 74.0888 191.752 74.7799 191.752 74.7799C190.627 76.7336 188.351 78.6319 188.185 81.6268C188.148 82.3641 189.955 89.0543 189.955 89.2202Z" fill="white"/><path d="M200.488 89.8653C201.022 90.621 202.045 95.2286 204.607 95.8091C203.289 92.5285 202.294 91.0909 202.137 90.0773C201.852 88.1974 201.842 86.2437 201.99 84.4099C201.133 82.9078 200.497 81.8849 200.497 81.8849C200.432 81.6453 199.142 77.6459 198.728 81.2214C198.304 84.7877 199.889 89.0175 200.488 89.8653Z" fill="#5F9AA8"/><path d="M193.328 71.8401C193.328 71.8401 198.378 71.923 198.387 68.7806C198.387 65.6382 199.041 63.5279 195.816 63.3436C192.59 63.1593 191.964 64.3573 191.706 65.4078C191.448 66.4491 192.01 71.7387 193.328 71.8401Z" fill="#FFB27D"/><path d="M193.512 63.2608C193.512 63.2608 194.894 66.9561 197.014 67.4998C199.133 68.0435 200.055 67.4814 200.055 67.4814C200.055 67.4814 198.424 66.1912 198.092 63.9335C198.101 63.9243 194.553 61.5007 193.512 63.2608Z" fill="#A9453D"/><path d="M193.853 63.5558C193.853 63.5558 192.821 64.3759 192.572 65.1776C192.323 65.9794 192.203 67.6289 191.724 67.5736C191.724 67.5736 190.683 65.0671 191.853 63.6479C193.097 62.1458 193.853 63.5558 193.853 63.5558Z" fill="#A9453D"/><path d="M185.375 93.2656L182.997 100.536L184.352 101.08L188.296 94.6571L185.375 93.2656Z" fill="#FFB27D"/><path d="M191.807 74.356C191.807 74.356 188.997 75.471 188.176 77.2127C187.365 78.9544 186.131 90.6301 185.642 91.828C185.154 93.026 184.785 93.9752 184.785 93.9752C184.785 93.9752 186.204 95.1732 187.633 95.2561C189.061 95.339 191.807 74.356 191.807 74.356Z" fill="#F99746"/><path d="M194.129 73.3516C194.129 73.3516 191.208 80.5671 191.125 82.0323C191.042 83.4975 190.784 105.927 190.784 105.927C190.784 105.927 190.959 106.96 188.978 106.526C186.997 106.093 186.49 105.669 186.49 105.669C186.49 105.669 188.379 91.8281 187.863 87.0178C187.347 82.2074 191.816 74.356 191.816 74.356L194.129 73.3516Z" fill="#F99746"/><path d="M180.859 139.978L182.573 140.033C182.877 140.042 183.172 139.913 183.366 139.674C184.518 138.282 188.526 133.066 190.941 125.39C191.005 125.178 191.079 124.966 191.153 124.754C192.701 120.23 195.926 114.544 197.622 109.402C197.889 108.581 198.138 107.807 198.35 107.079C198.423 106.849 198.488 106.619 198.553 106.388L196.746 105.024C196.746 105.024 191.328 113.788 189.66 122.045C188.195 129.214 182.361 137.84 180.859 139.978Z" fill="#1E3D70"/><path d="M196.553 122.81C196.525 126.606 196.7 135.066 197.161 139.204C197.207 139.581 197.52 139.867 197.907 139.867H199.188C199.723 139.867 200.128 139.867 200.396 139.858C200.626 139.858 200.829 139.692 200.865 139.462C202.137 132.993 203.05 127.62 203.713 122.985C204.266 119.096 204.764 115.769 205.141 112.903C205.528 110.019 205.796 107.605 205.888 105.559C205.906 105.236 205.915 104.923 205.915 104.619C205.925 104.315 205.925 104.02 205.925 103.725L195.346 102.693C195.484 109.733 196.571 120.478 196.553 122.81Z" fill="#2A4E96"/><path d="M199.188 139.867C199.668 139.867 200.045 139.867 200.313 139.858C200.598 139.858 200.838 139.655 200.893 139.378C202.156 132.946 203.059 127.601 203.722 122.985C204.275 119.096 204.773 115.769 205.151 112.903C205.538 110.019 205.805 107.604 205.897 105.559L202.017 107.844C202.017 107.844 204.496 108.719 203.547 115.336C202.598 121.952 200.506 138.936 199.188 139.867Z" fill="#1E3D70"/><path d="M198.691 105.494C198.691 105.494 199.437 108.185 202.017 107.844C204.598 107.503 208.265 105.955 208.265 105.955C208.265 105.955 207.16 102.472 205.796 97.901C204.137 92.3627 202.082 85.2209 201.114 80.7238C200.847 79.4613 200.654 78.4108 200.589 77.6552L198.451 73.5083C198.451 73.5083 195.263 80.6685 195.088 82.4747C194.903 84.2625 198.691 105.494 198.691 105.494Z" fill="#F99746"/><path d="M201.262 82.1889L198.442 73.4897C198.451 73.4897 202.008 74.5495 203.796 75.4526C203.796 75.4526 204.911 76.8994 205.611 80.2261C205.611 80.2261 206.339 88.2157 204.708 91.1369C204.708 91.1369 199.548 92.169 191.3 89.3307V87.4416C191.3 87.4416 200.322 87.9116 202.174 88.1328L201.262 82.1889Z" fill="#FFB27D"/><path d="M198.801 86.2435C198.912 89.1648 199.603 94.8414 205.731 97.8732C205.75 97.8824 205.768 97.8916 205.777 97.9008C204.119 92.3625 202.064 85.2207 201.096 80.7236C199.981 82.4008 198.737 84.6309 198.801 86.2435Z" fill="#ED7D2B"/><path d="M198.442 73.499C198.442 73.499 203.676 73.8676 204.939 76.6783C206.201 79.4889 206.597 88.824 204.994 91.5793C204.994 91.5793 202.782 92.2059 198.875 91.4779C198.829 91.4687 198.783 91.4595 198.728 91.4503C198.728 91.4503 197.484 88.4001 198.599 87.8011C198.599 87.8011 201.898 87.9761 201.547 86.8888C201.197 85.8014 198.442 73.499 198.442 73.499Z" fill="#F99746"/><path d="M185.319 88.6119L185.476 89.1095L194.065 86.4371C194.065 86.4371 194.175 86.3081 194.12 86.133C194.055 85.9395 193.908 85.9395 193.908 85.9395L185.319 88.6119Z" fill="#A9453D"/><path d="M184.693 89.0818L185.32 88.6118L185.467 89.1094L184.693 89.0818Z" fill="#A9453D"/><path d="M183.329 100.343C183.329 100.343 181.154 101.55 180.859 102.462C180.574 103.384 180.767 105.301 181.117 105.273C181.468 105.245 181.984 103.209 182.269 103.061C182.555 102.914 182.961 102.49 182.961 102.803C182.961 103.117 182.675 103.688 182.813 103.78C182.961 103.863 183.412 102.978 183.735 102.803C184.048 102.628 184.186 101.218 184.49 100.831C184.794 100.444 183.329 100.343 183.329 100.343Z" fill="#FFB27D"/><path d="M191.3 87.4416C191.3 87.4416 189.356 86.2437 188.536 86.428C187.716 86.6123 185.633 88.1236 186.637 88.4461C187.642 88.7686 188.453 88.4277 188.84 88.6673C189.227 88.9069 189.513 89.34 191.31 89.3308C193.107 89.3216 191.3 87.4416 191.3 87.4416Z" fill="#FFB27D"/><g opacity="0.6"><path d="M96.9364 144.207H96.9087C96.7152 144.207 96.5677 144.051 96.5677 143.866L97.0838 121.695L98.5951 121.52L97.3142 143.866C97.2865 144.051 97.1299 144.207 96.9364 144.207Z" fill="#77A4E5"/><path d="M88.154 144.207H88.1264C87.9329 144.207 87.7854 144.051 87.7854 143.866L88.3015 121.695L89.8128 121.52L88.5318 143.866C88.5042 144.051 88.3475 144.207 88.154 144.207Z" fill="#77A4E5"/><path d="M112.39 144.207H112.418C112.611 144.207 112.759 144.051 112.759 143.866L112.243 121.695L110.731 121.52L112.012 143.866C112.031 144.051 112.196 144.207 112.39 144.207Z" fill="#77A4E5"/><path d="M87.1597 120.312V105.116C87.1597 102.444 89.3252 100.278 91.9977 100.278H102.945C105.618 100.278 107.783 102.444 107.783 105.116V120.893L87.1597 120.312Z" fill="#77A4E5"/><path d="M109.745 122.708H88.6057C87.8039 122.708 87.1497 122.054 87.1497 121.252V120.303H109.736V122.708H109.745Z" fill="#77A4E5"/><path d="M112.28 122.708H96.2912C95.7014 122.708 95.213 122.229 95.213 121.63V121.381C95.213 120.792 95.6922 120.303 96.2912 120.303H112.28C112.869 120.303 113.358 120.782 113.358 121.381V121.63C113.358 122.229 112.869 122.708 112.28 122.708Z" fill="#77A4E5"/></g><path d="M124.241 135.361C124.398 136.125 125.485 135.996 126.702 135.701C127.918 135.407 127.632 135.757 129.356 135.563C131.079 135.37 131.613 134.725 131.659 134.467C131.705 134.236 130.848 134.153 129.936 134.052C129.816 134.043 129.706 134.024 129.586 134.006C128.554 133.877 127.789 133.204 126.849 132.66C125.955 132.144 124.628 130.025 124.628 130.025L122.251 130.209C122.251 130.209 123.495 132.098 123.974 132.928C124.26 133.416 124.241 134.052 124.204 134.55C124.204 134.817 124.186 135.093 124.241 135.361Z" fill="#FFB27D"/><path d="M126.701 135.702C127.918 135.407 127.632 135.757 129.355 135.564C131.079 135.37 131.613 134.725 131.659 134.467C131.705 134.237 130.848 134.154 129.936 134.052L129.927 134.071C129.927 134.071 128.885 134.808 127.448 134.845C126.278 134.872 125.033 134.541 124.223 134.55C124.204 134.817 124.186 135.094 124.241 135.361C124.398 136.126 125.485 135.997 126.701 135.702Z" fill="#233862"/><path d="M103.838 138.78C103.368 139.397 104.179 140.134 105.211 140.844C106.243 141.553 105.783 141.572 107.073 142.751C108.363 143.931 109.192 143.885 109.423 143.756C109.625 143.636 109.118 142.945 108.593 142.189C108.529 142.097 108.464 141.996 108.39 141.904C107.801 141.037 107.801 140.033 107.589 138.964C107.386 137.95 109.045 134.227 109.045 134.227L106.391 133.896C106.391 133.896 106.041 136.144 105.746 137.047C105.571 137.582 104.833 137.932 104.437 138.227C104.225 138.393 104.004 138.558 103.838 138.78Z" fill="#FFB27D"/><path d="M105.211 140.844C106.234 141.563 105.783 141.572 107.073 142.751C108.363 143.931 109.192 143.885 109.423 143.756C109.625 143.636 109.118 142.945 108.593 142.189L108.575 142.198C108.575 142.198 107.34 141.904 106.354 140.853C105.552 139.987 104.981 138.835 104.437 138.236C104.225 138.402 104.004 138.568 103.838 138.789C103.368 139.397 104.188 140.134 105.211 140.844Z" fill="#233862"/><path d="M114.685 119.759L112.261 126.284L109.091 134.808C109.091 134.808 108.234 134.891 107.405 134.651C106.649 134.43 105.773 133.859 105.773 133.859C105.773 133.859 106.649 124.708 108.289 119.455C108.713 118.11 109.183 117.013 109.699 116.405C112.261 113.401 114.685 119.759 114.685 119.759Z" fill="#163560"/><path d="M112.224 109.401C110.639 108.885 105.847 109.199 101.295 110.083L100.594 108.867L90.7617 108.102C90.7617 108.102 87.518 115.299 89.2965 119.879C89.5545 120.552 90.0798 120.985 90.9645 121.003H91.1119C91.1119 121.003 96.9636 121.003 98.8619 121.003C103.755 121.003 109.211 117.64 109.92 117.502C111.072 117.271 111.542 119.584 112.694 122.008C113.846 124.431 123.559 132.753 123.559 132.753C123.559 132.753 125.052 132.771 125.669 132.541C126.333 132.292 126.572 131.97 126.572 131.97C126.572 131.97 115.809 110.553 112.224 109.401Z" fill="#2A4E96"/><path d="M97.1481 79.1016C95.7658 78.7699 93.8859 79.1569 93.5726 79.1938C89.8404 79.6269 89.0018 85.4325 89.2783 87.0544C89.7943 90.0401 88.3568 90.8879 86.6427 93.2747C83.2054 98.0666 85.583 102.02 88.3752 102.997C90.0524 103.587 92.3377 101.983 92.3377 101.983C92.3838 102.002 98.2724 96.371 101.194 93.6341C106.105 91.6159 100.678 79.9402 97.1481 79.1016Z" fill="#233862"/><path d="M97.9501 92.7772C97.9685 92.7865 96.4296 93.7909 95.1763 93.579C93.9967 93.3855 92.7527 91.8465 92.7619 91.8373C93.2411 91.6899 93.6558 91.1369 93.3609 88.271L93.5821 88.2894L97.3511 88.6488C97.3511 88.6488 97.3879 89.8192 97.4893 90.9158C97.5907 91.8281 97.7289 92.6943 97.9501 92.7772Z" fill="#FFB27D"/><path d="M97.3601 88.6485C97.3601 88.6485 97.397 89.8188 97.4983 90.9154C95.4249 91.0628 94.144 89.2843 93.5911 88.2891L97.3601 88.6485Z" fill="#ED975D"/><path d="M98.1527 89.6162C98.1527 89.6162 93.2686 90.1875 92.9645 87.1373C92.6604 84.087 91.8218 82.115 94.9181 81.6173C98.0237 81.1197 98.7425 82.2255 99.1018 83.2208C99.4612 84.216 99.4152 89.3858 98.1527 89.6162Z" fill="#FFB27D"/><path d="M98.5122 81.6543C98.5122 81.6543 96.153 85.0271 94.1533 85.7643C92.1536 86.5015 91.2045 86.0408 91.2045 86.0408C91.2045 86.0408 92.1629 84.723 92.4762 82.9168C92.5683 82.3823 92.9369 81.94 93.453 81.7649C94.8906 81.2581 97.6551 80.484 98.5122 81.6543Z" fill="#233862"/><path d="M96.5677 81.9033C96.5677 81.9033 97.8302 82.6221 98.3279 83.2672C98.8163 83.8846 99.3323 85.5341 99.2586 86.2621C99.2586 86.2621 100.051 82.7972 98.7794 81.5347C97.434 80.2077 96.5677 81.9033 96.5677 81.9033Z" fill="#233862"/><path d="M101.71 100.859C101.562 110.719 101.673 108.664 100.595 109.595C100.336 109.816 99.5993 109.954 98.6409 110.019C95.6183 110.222 90.3011 109.724 90.0984 109.162C89.398 107.227 89.8956 106.628 89.3151 103.67C89.2506 103.356 89.1768 103.015 89.0939 102.647C88.6055 100.61 88.1355 99.919 89.8588 96.6568C91.4161 93.6987 93.1025 91.3304 93.25 91.4225C97.3692 93.8646 97.6364 91.7727 97.6364 91.7727C97.6364 91.7727 101.774 96.0486 101.71 100.859Z" fill="white"/><path d="M112.261 126.284L109.027 135.158C109.027 135.158 107.866 135.536 107.018 135.416C106.151 135.287 105.682 134.817 105.682 134.817C105.682 134.817 106.668 124.708 108.308 119.455L112.261 126.284Z" fill="#2A4E96"/><path d="M97.6273 91.7632C97.6273 91.7632 101.866 92.482 102.364 94.3066C102.862 96.1312 106.502 106.185 106.502 106.185C106.502 106.185 103.636 107.245 102.64 106.25C101.645 105.254 99.1755 97.0159 99.1755 97.0159L97.6273 91.7632Z" fill="white"/><path d="M98.6317 110.019C95.6091 110.222 90.2919 109.724 90.0892 109.162C89.3888 107.227 89.8865 106.628 89.3059 103.67L90.7251 100.444C90.7251 100.444 90.5223 104.14 91.877 105.347C93.2224 106.554 97.3969 107.669 98.0512 108.674C98.3645 109.144 98.5764 109.632 98.6317 110.019Z" fill="#DFEBFD"/><path d="M98.8805 107.909C98.8805 107.909 99.7836 108.683 100.042 108.747C100.3 108.812 100.447 108.747 100.447 108.747L99.7928 107.982L98.8805 107.909Z" fill="#FFB27D"/><path d="M98.5212 106.997L100.797 107.586C100.797 107.586 100.742 107.752 100.484 107.789C100.226 107.826 99.5349 107.725 99.5349 107.725L98.5212 106.997Z" fill="#FFB27D"/><path d="M94.6599 108.259C94.6599 108.259 97.9129 106.812 98.5303 107.006C99.1477 107.199 100.705 108.029 100.954 108.379C101.203 108.729 99.673 108.333 99.1938 108.305C98.8805 108.287 98.1709 108.71 97.8115 108.913C96.3094 109.77 95.2681 109.696 95.2681 109.696L94.6599 108.259Z" fill="#FFB27D"/><path d="M93.2406 91.4131C93.2406 91.4131 88.6329 92.2793 87.7851 93.551C85.9237 96.334 81.9611 107.881 84.182 109.429C86.6793 111.171 95.5536 109.88 95.5536 109.88C95.5536 109.88 95.8485 108.498 95.4338 107.835C95.0191 107.171 88.3473 106.084 88.034 105.78C87.7299 105.476 91.075 101.015 90.7248 100.158C89.5821 97.4306 93.2406 91.4131 93.2406 91.4131Z" fill="white"/><path d="M111.441 107.761C111.441 107.761 114.666 108.627 114.998 109.134C115.33 109.632 115.975 111.162 115.947 111.567C115.92 111.963 115.044 110.775 114.712 110.471C114.5 110.277 113.726 110.157 113.349 110.093C112.39 109.936 111.929 109.503 111.57 109.282C111.33 109.134 111.036 109.162 111.036 109.162L111.441 107.761Z" fill="#FFB27D"/><path d="M114.721 110.01C114.721 110.01 114.915 111.106 115.062 111.3C115.21 111.493 115.348 111.539 115.348 111.539L115.33 110.59L114.721 110.01Z" fill="#FFB27D"/><path d="M114.998 109.134L116.306 110.913C116.306 110.913 116.168 110.996 115.956 110.876C115.744 110.756 115.302 110.268 115.302 110.268L114.998 109.134Z" fill="#FFB27D"/><path d="M111.57 109.282C111.57 109.282 111.865 110.01 112.464 110.268C113.063 110.526 113.496 110.922 113.597 110.775C113.689 110.636 113.146 109.899 113.146 109.899L111.57 109.282Z" fill="#FFB27D"/><path d="M105.644 103.808L112.427 108.093C112.427 108.093 111.717 109.042 111.478 109.134C110.224 109.595 104.575 109.152 102.64 106.25L105.644 103.808Z" fill="white"/><path d="M102.954 108.461C103.35 108.461 107.331 108.185 107.331 108.185C107.331 108.185 107.22 108.894 107.46 109.263L103.58 110.009L102.788 109.779L102.954 108.461Z" fill="#F9DDBF"/><path d="M96.3187 109.106L102.954 108.47C102.954 108.47 102.723 109.696 103.59 110.018L96.2727 110.553C96.2727 110.553 95.6829 109.714 96.3187 109.106Z" fill="#F99746"/><path d="M107.322 108.277L102.834 108.618C102.834 108.618 102.871 108.461 102.954 108.461C103.036 108.461 107.414 108.139 107.414 108.139L107.395 108.258L107.322 108.277Z" fill="#F99746"/><path d="M103.589 110.009L107.533 109.263L107.506 109.162L103.294 109.963L103.589 110.009Z" fill="#F99746"/><path d="M57.6239 144.171H57.5871C57.3751 144.171 57.2092 143.996 57.2092 143.784L57.7806 119.023L59.4577 118.829L58.0294 143.784C58.011 144.005 57.8359 144.171 57.6239 144.171Z" fill="#77A4E5"/><path d="M47.8739 144.171H47.8371C47.6251 144.171 47.4592 143.996 47.4592 143.784L48.0306 119.023L49.7077 118.829L48.2794 143.784C48.261 144.005 48.0859 144.171 47.8739 144.171Z" fill="#77A4E5"/><path d="M74.7733 144.171H74.8101C75.0221 144.171 75.188 143.996 75.188 143.784L74.6166 119.023L72.9395 118.829L74.3678 143.784C74.377 144.005 74.5613 144.171 74.7733 144.171Z" fill="#77A4E5"/><path d="M46.7693 117.493V100.528C46.7693 97.5418 49.1745 95.1182 52.1418 95.1182H64.2967C67.264 95.1182 69.6691 97.5418 69.6691 100.528V118.138L46.7693 117.493Z" fill="#77A4E5"/><path d="M71.8431 120.165H48.3812C47.4873 120.165 46.7593 119.437 46.7593 118.543V117.483H71.8339V120.165H71.8431Z" fill="#77A4E5"/><path d="M74.6534 120.165H56.9049C56.2414 120.165 55.7069 119.631 55.7069 118.967V118.681C55.7069 118.018 56.2414 117.483 56.9049 117.483H74.6442C75.3077 117.483 75.8422 118.018 75.8422 118.681V118.967C75.8422 119.631 75.3077 120.165 74.6534 120.165Z" fill="#77A4E5"/><path d="M65.1068 88.8516C65.1068 88.8516 64.0931 89.7178 63.8719 91.9571C63.7061 93.6619 64.8856 106.886 65.7795 107.936C68.286 110.894 71.4192 109.641 72.6449 110.093L73.806 109.051C73.806 109.051 69.7328 106.047 69.4195 105.061C68.2215 101.292 68.9588 90.2799 65.1068 88.8516Z" fill="#F9DDBF"/><path d="M64.3788 78.0699C64.3788 78.0699 64.4433 75.6463 61.2456 75.1671C58.0479 74.688 57.1633 75.4436 56.6196 76.2545C56.0759 77.0747 55.053 80.4014 55.1543 81.7284C55.2557 83.0554 58.9049 84.6957 58.8497 85.4698C58.7851 86.2346 64.3788 78.0699 64.3788 78.0699Z" fill="#163560"/><path d="M79.2151 142.079C79.1137 142.899 80.2287 143.139 81.5281 143.258C82.8274 143.369 82.422 143.627 84.2005 144.023C85.9698 144.419 86.707 143.949 86.8453 143.71C86.9651 143.498 86.1541 143.129 85.2787 142.705C85.1681 142.65 85.0575 142.604 84.9469 142.549C83.9701 142.07 83.4449 141.139 82.6984 140.263C81.9888 139.434 81.3806 136.854 81.3806 136.854L78.9755 136.236C78.9755 136.236 79.5745 138.559 79.7772 139.554C79.897 140.134 79.6666 140.77 79.4639 141.259C79.3625 141.517 79.2519 141.784 79.2151 142.079Z" fill="#FFB27D"/><path d="M81.5283 143.249C82.8276 143.36 82.4221 143.618 84.2007 144.014C85.97 144.41 86.7072 143.94 86.8454 143.701C86.9652 143.489 86.1543 143.12 85.2789 142.696L85.2604 142.715C85.2604 142.715 83.9887 143.102 82.5512 142.65C81.3808 142.282 80.2658 141.517 79.4548 141.259C79.3442 141.526 79.2429 141.793 79.206 142.079C79.1139 142.899 80.2289 143.139 81.5283 143.249Z" fill="#233862"/><path d="M61.19 108.655C61.19 108.655 77.289 110.323 79.943 112.793C82.597 115.253 82.127 138.218 82.127 138.218C81.7123 138.651 81.4082 138.632 80.754 138.586C80.1273 138.54 78.8464 137.997 78.8464 137.997C78.8464 137.997 75.3999 126.726 75.3538 124.109C75.3078 121.501 74.7641 117.069 73.6674 116.811C72.5708 116.553 59.5405 118.009 58.1121 113.899C56.6838 109.779 59.0521 106.397 59.0521 106.397L61.19 108.655Z" fill="#ED7D2B"/><path d="M53.6703 112.793C54.3615 113.253 55.6055 113.972 57.6882 114.046C61.4203 114.184 66.074 113.733 66.9864 112.876C67.2259 112.654 67.3365 112.286 67.3734 111.816C67.4748 110.388 66.7928 108.028 66.3321 106.084C66.0372 104.822 65.8344 103.725 66.0003 103.163C66.5072 101.458 68.0737 97.993 68.212 96.8596C68.3502 95.7169 66.9864 89.6164 65.1064 88.8607C63.2265 88.1051 55.9741 88.8607 55.9741 88.8607C53.1359 89.4321 53.0161 95.4773 53.9652 100.619C53.9929 100.748 54.0113 100.887 54.0389 101.016C55.0526 106.231 51.7351 111.493 53.6703 112.793Z" fill="#F9DDBF"/><path d="M63.0424 89.9667C62.9871 90.2985 62.084 90.833 60.1488 90.3261C58.2873 89.8377 58.0662 89.2295 58.0662 88.8333C58.0662 88.3633 58.8771 87.7274 58.8679 84.8154L59.0891 84.8615L62.8397 85.6079C62.8397 85.6079 62.7567 86.7875 62.7475 87.8933C62.7383 88.8148 63.1253 89.4138 63.0424 89.9667Z" fill="#FFB27D"/><path d="M62.8303 85.5892C62.8303 85.5892 62.7474 86.7688 62.7382 87.8746C60.6371 87.8193 59.5313 85.9025 59.0797 84.8428L62.8303 85.5892Z" fill="#ED975D"/><path d="M63.531 86.6494C63.531 86.6494 58.5732 86.7324 58.564 83.6453C58.564 80.5582 57.9189 78.4847 61.089 78.3004C64.259 78.1161 64.8764 79.2957 65.1252 80.3278C65.374 81.3507 64.8211 86.5481 63.531 86.6494Z" fill="#FFB27D"/><path d="M63.3465 78.2173C63.3465 78.2173 61.9919 81.8389 59.9 82.3826C57.8174 82.917 56.9143 82.3641 56.9143 82.3641C56.9143 82.3641 58.5085 81.0924 58.8403 78.8808C58.8495 78.8715 62.3237 76.494 63.3465 78.2173Z" fill="#163560"/><path d="M63.0149 78.5121C63.0149 78.5121 64.0286 79.323 64.2774 80.1063C64.5262 80.8896 64.6368 82.5115 65.1068 82.4562C65.1068 82.4562 66.1296 79.9957 64.9777 78.595C63.7521 77.1206 63.0149 78.5121 63.0149 78.5121Z" fill="#163560"/><path d="M67.1246 142.752C67.1154 143.581 68.2488 143.692 69.5574 143.655C70.8659 143.618 70.4881 143.922 72.2943 144.106C74.1005 144.291 74.7732 143.738 74.8838 143.489C74.9852 143.259 74.1281 142.991 73.2158 142.678C73.1053 142.641 72.9855 142.595 72.8749 142.558C71.852 142.19 71.2253 141.333 70.3868 140.549C69.5942 139.812 71.3451 136.236 71.3451 136.236L69.0505 135.103C69.0505 135.103 68.6174 137.656 68.0553 139.886C67.9079 140.466 67.4379 141.415 67.2904 141.913C67.2075 142.18 67.1338 142.457 67.1246 142.752Z" fill="#FFB27D"/><path d="M53.7719 112.175C54.463 112.636 55.6057 113.972 57.6975 114.046C61.1348 113.263 65.0513 112.35 67.3828 111.807C67.4841 110.378 66.8022 108.019 66.3414 106.075C63.6229 106.904 59.5867 104.075 58.2228 102.96C56.7944 101.79 56.8405 97.8823 56.8405 97.8823L53.9654 100.61C53.993 100.739 54.0114 100.877 54.0391 101.006C55.0528 106.231 51.8274 110.885 53.7719 112.175Z" fill="#F2CCAA"/><path d="M69.5574 143.655C70.8659 143.618 70.4881 143.922 72.2943 144.106C74.1005 144.291 74.7732 143.738 74.8838 143.489C74.9852 143.259 74.1281 142.991 73.2158 142.678L73.2066 142.696C73.2066 142.696 71.9902 143.231 70.5066 142.945C69.2994 142.715 68.1106 142.088 67.2812 141.922C67.2075 142.199 67.1246 142.475 67.1246 142.77C67.1154 143.572 68.2488 143.692 69.5574 143.655Z" fill="#233862"/><path d="M57.7161 109.632C61.8076 109.512 74.0086 110.489 76.3585 112.258C79.2428 114.433 70.9952 137.969 70.9952 137.969C70.9952 137.969 70.0368 138.061 69.7327 138.024C68.4242 137.877 67.8897 137.48 67.8897 137.48C67.8897 137.48 67.9173 123.63 68.8849 120.976C69.7788 118.525 70.3225 117.658 69.2075 117.511C68.0924 117.363 54.1682 119.142 53.0071 114.94C52.104 111.659 53.4402 108.618 53.4402 108.618C53.4402 108.618 53.947 109.742 57.7161 109.632Z" fill="#F99746"/><path d="M55.9744 88.8515C55.9744 88.8515 53.1361 89.0911 52.9149 91.3396C52.7491 93.0444 51.5142 105.126 52.3989 106.176C54.9054 109.134 63.2452 109.761 64.4708 110.212L64.8118 108.812C64.8118 108.812 55.9007 104.324 56.0389 103.301C56.1771 102.287 58.6929 88.446 55.9744 88.8515Z" fill="#F9DDBF"/><path d="M58.1678 76.3834C58.1678 76.3834 58.3706 75.0933 56.5736 74.7523C54.7766 74.4206 54.749 78.2357 54.5555 79.148C54.362 80.0695 54.8411 80.6224 55.5231 80.6777C56.205 80.733 58.1678 76.3834 58.1678 76.3834Z" fill="#163560"/><path d="M64.9041 108.756C64.9041 108.756 67.4383 108.038 68.0465 108.204C68.6547 108.369 70.7189 109.743 70.4332 110.111C70.1383 110.48 68.3137 109.89 67.4751 110.001C66.6366 110.111 65.9823 110.526 65.3833 110.434C64.7751 110.341 64.1484 110.111 64.1484 110.111L64.9041 108.756Z" fill="#FFB27D"/><path d="M64.9038 108.757C64.9038 108.757 66.1479 108.121 66.498 107.752C66.5441 107.706 66.6178 107.715 66.6547 107.771C66.7469 107.918 66.839 108.204 66.4059 108.499C65.7793 108.904 64.9038 108.757 64.9038 108.757Z" fill="#FFB27D"/><path d="M73.7968 109.061C73.7968 109.061 76.4324 109.208 76.9484 109.558C77.4645 109.918 78.9758 111.88 78.5795 112.138C78.1833 112.396 76.6535 111.245 75.8242 111.079C74.9948 110.913 74.2483 111.097 73.7046 110.811C73.161 110.526 72.6449 110.102 72.6449 110.102L73.7968 109.061Z" fill="#FFB27D"/><path d="M55.7165 144.383H44.9991C44.4831 143.756 44.6766 141.434 44.7503 140.678C44.7688 140.522 44.778 140.439 44.778 140.439C44.778 140.439 48.4364 137.518 48.9341 139.757C48.9525 139.831 48.9709 139.895 48.9893 139.96C49.6252 142.051 52.4635 143.01 54.1038 143.277C55.1728 143.443 55.569 143.996 55.7165 144.383Z" fill="#1B3051"/><path d="M26.4855 109.577C26.8726 109.577 44.8331 112.949 47.8004 116.626C49.284 118.46 49.5052 139.683 49.5052 139.683C49.5052 139.683 47.6714 141.959 43.6996 140.641C43.6996 140.641 40.7876 126.127 41.0088 121.722C41.0641 120.506 28.7341 121.547 26.4763 120.957C24.2186 120.377 18.7079 115.465 19.9243 113.069C21.1499 110.682 26.4855 109.577 26.4855 109.577Z" fill="#233862"/><path d="M39.4882 108.582C39.4882 108.582 40.6401 109.577 41.8197 109.853C42.4924 110.01 43.1467 110.194 43.5337 110.369C44.6027 110.858 46.6208 113.042 46.4365 113.263C45.8375 113.963 43.4047 112.148 42.9347 112.277C42.474 112.406 43.6996 113.456 43.2112 113.742C42.9532 113.89 42.474 112.977 42.0316 112.848C41.4234 112.673 41.0272 111.761 40.8429 111.696C40.4927 111.576 39.009 110.249 39.009 110.249L39.4882 108.582Z" fill="#FFB27D"/><path d="M60.4528 144.383H49.7355C49.2194 143.756 49.4129 141.434 49.4867 140.678C49.5051 140.522 49.5143 140.439 49.5143 140.439C49.5143 140.439 53.1728 137.518 53.6704 139.757C53.6888 139.831 53.7072 139.895 53.7257 139.96C54.3615 142.051 57.1998 143.01 58.8401 143.277C59.9091 143.443 60.3053 143.996 60.4528 144.383Z" fill="#1E3C68"/><path d="M31.7846 109.577C32.1717 109.577 50.1322 112.949 53.0995 116.626C54.5831 118.46 54.8043 139.683 54.8043 139.683C54.8043 139.683 52.9704 141.959 48.9987 140.641C48.9987 140.641 46.0867 126.127 46.3078 121.722C46.3631 120.506 34.0331 121.547 31.7754 120.957C29.5177 120.377 24.007 115.465 25.2234 113.069C26.4398 110.682 31.7846 109.577 31.7846 109.577Z" fill="#2B478B"/><path d="M30.6601 87.7551C29.3699 87.6445 28.0153 87.3036 26.845 86.9257C25.3797 86.4465 24.2002 85.7554 24.965 84.4192C25.6654 83.1843 26.7989 80.429 26.7252 78.1528L29.4529 80.3461L31.3051 81.8389C31.3051 81.8389 31.2959 82.7144 31.0932 84.2625C31.0563 84.539 31.0102 84.8431 30.9642 85.1748C30.9273 85.4329 31.0471 85.7001 31.2683 85.8383C31.2867 85.8476 31.2959 85.8568 31.3143 85.866C32.2082 86.4281 31.7382 87.838 30.6601 87.7551Z" fill="#FFB27D"/><path d="M31.2865 81.4703C31.2865 81.4703 31.3787 81.7928 31.222 82.9632C29.5725 82.6959 28.0336 81.3782 28.0336 81.3782C28.8722 81.1478 29.1763 80.2447 29.8029 80.3276L31.2865 81.4703Z" fill="#ED975D"/><path d="M32.8164 81.7373C32.8164 81.7373 26.4763 82.7878 25.8773 78.8345C25.2783 74.872 24.0619 72.3378 28.089 71.4992C32.116 70.6606 33.1297 72.0521 33.655 73.3238C34.1618 74.5955 34.4475 81.3595 32.8164 81.7373Z" fill="#FFB27D"/><path d="M34.5765 71.5731C34.853 72.5315 34.1157 73.6926 32.8993 74.0704C31.0839 74.6418 31.4802 76.8627 30.6692 76.835C29.8491 76.8074 29.5173 75.5541 28.7893 76.5493C28.1627 77.3971 29.3054 78.4108 29.2317 78.8808C29.0934 79.6825 27.8402 81.3228 26.7067 81.2399C25.5732 81.157 23.4537 75.7753 23.8776 74.1073C24.3015 72.4393 25.9971 70.6884 27.6006 70.4396C29.204 70.2 31.4341 70.8912 31.9502 70.8912C32.457 70.9004 34.4291 71.0571 34.5765 71.5731Z" fill="#2B478B"/><path d="M36.1525 108.388C36.0419 109.301 35.8576 109.927 35.5535 110.13C34.6043 110.766 33.3511 111.549 31.9503 112.332C26.9833 115.097 20.1917 117.769 18.8094 113.097C17.1875 107.605 18.2565 97.2931 19.8415 90.8793C20.7538 87.184 23.2972 83.3136 25.0021 83.3228C27.9233 83.332 32.1162 84.0969 33.8118 88.2806C34.4661 89.9025 35.4337 95.5145 35.9221 100.657C36.2262 103.716 36.3552 106.61 36.1525 108.388Z" fill="white"/><path d="M24.7162 83.3503L25.3797 81.8574C25.3797 81.8574 31.2406 82.4564 32.2358 85.82C32.2358 85.8292 27.7019 83.424 24.7162 83.3503Z" fill="#DFEBFD"/><path d="M36.1526 108.388C36.042 109.301 35.8577 109.927 35.5536 110.13C34.6044 110.766 33.3511 111.549 31.9504 112.332C30.4944 111.448 27.4903 109.328 26.7899 106.831C25.8776 103.569 26.5134 99.5508 26.5134 99.5508L36.1526 108.388Z" fill="#DFEBFD"/><path d="M25.905 88.3816C25.905 88.3816 26.4119 102.416 27.2136 105.19C28.5774 109.918 40.9812 111.604 40.9812 111.604C40.9812 111.604 41.7092 110.775 41.3866 109.402C41.3866 109.402 33.9684 103.55 33.7472 102.444C33.526 101.329 35.3599 93.7909 33.268 91.0448C31.1761 88.2895 27.315 85.9119 25.905 88.3816Z" fill="white"/><path d="M10.3496 144.254H10.3127C9.98095 144.244 9.72292 143.977 9.75057 143.664L11.9807 121.4L13.9251 121.575L10.7274 143.959C10.6997 144.125 10.5339 144.254 10.3496 144.254Z" fill="#77A4E5"/><path d="M21.8227 144.254H21.7858C21.4541 144.244 21.1961 143.977 21.2237 143.664L23.4538 121.4L25.3982 121.575L22.2005 143.959C22.1729 144.125 22.007 144.254 21.8227 144.254Z" fill="#77A4E5"/><path d="M43.3681 144.254H43.405C43.7367 144.244 43.9947 143.977 43.9671 143.664L41.737 121.4L39.7926 121.575L42.9903 143.959C43.0179 144.125 43.1746 144.254 43.3681 144.254Z" fill="#77A4E5"/><path d="M10.9762 118.239L8.85665 99.6427C8.58019 96.9611 9.47407 94.3348 13.3445 94.132L20.1453 93.7173C24.1816 93.5515 25.997 96.9058 26.5038 99.4861L30.5401 119.925L10.9762 118.239Z" fill="#77A4E5"/><path d="M12.1193 121.723H42.3084C42.9166 121.723 43.4142 121.225 43.4142 120.617V119.262C43.4142 118.654 42.9166 118.156 42.3084 118.156H11.0134V120.617C11.0134 121.225 11.5111 121.723 12.1193 121.723Z" fill="#77A4E5"/><path d="M11.8704 121.723H29.7019C30.1719 121.723 30.5589 121.336 30.5589 120.866V119.013C30.5589 118.543 30.1719 118.156 29.7019 118.156H11.0134V120.866C11.0134 121.336 11.4005 121.723 11.8704 121.723Z" fill="#77A4E5"/><path d="M58.8219 61.7586H48.3718C47.8926 61.7586 47.4963 61.3623 47.4963 60.8831V50.7924C47.4963 50.3132 47.8926 49.917 48.3718 49.917H58.8219C59.301 49.917 59.6973 50.3132 59.6973 50.7924V60.8831C59.6973 61.3623 59.301 61.7586 58.8219 61.7586Z" fill="#77A4E5"/><path d="M58.3705 61.2426H48.8235C48.3812 61.2426 48.031 60.8832 48.031 60.4501V51.2349C48.031 50.7926 48.3904 50.4424 48.8235 50.4424H58.3705C58.8128 50.4424 59.163 50.8018 59.163 51.2349V60.4501C59.163 60.8832 58.8128 61.2426 58.3705 61.2426Z" fill="#DFEBFD"/><path d="M53.597 51.7691C53.7344 51.7691 53.8458 51.6577 53.8458 51.5203C53.8458 51.3829 53.7344 51.2715 53.597 51.2715C53.4595 51.2715 53.3481 51.3829 53.3481 51.5203C53.3481 51.6577 53.4595 51.7691 53.597 51.7691Z" fill="#77A4E5"/><path d="M55.3848 51.8703C55.4493 51.7505 55.606 51.7044 55.7258 51.769C55.8456 51.8335 55.8916 51.9901 55.8271 52.1099C55.7626 52.2297 55.606 52.2758 55.4862 52.2113C55.3571 52.1468 55.3111 51.9993 55.3848 51.8703Z" fill="#77A4E5"/><path d="M57.1265 53.2619C57.2463 53.1881 57.4029 53.2158 57.4767 53.3356C57.5504 53.4554 57.5227 53.612 57.4029 53.6858C57.2831 53.7595 57.1265 53.7318 57.0528 53.612C56.979 53.4922 57.0159 53.3356 57.1265 53.2619Z" fill="#77A4E5"/><path d="M57.9925 55.4092C58.1307 55.4092 58.2413 55.5198 58.2413 55.658C58.2413 55.7962 58.1307 55.9068 57.9925 55.9068C57.8542 55.9068 57.7437 55.7962 57.7437 55.658C57.7437 55.5198 57.8542 55.4092 57.9925 55.4092Z" fill="#77A4E5"/><path d="M57.3751 58.3301C57.5126 58.3301 57.624 58.2187 57.624 58.0813C57.624 57.9439 57.5126 57.8325 57.3751 57.8325C57.2377 57.8325 57.1263 57.9439 57.1263 58.0813C57.1263 58.2187 57.2377 58.3301 57.3751 58.3301Z" fill="#77A4E5"/><path d="M55.9656 59.4916C56.0669 59.5929 56.0669 59.7496 55.9656 59.8509C55.8642 59.9523 55.7075 59.9523 55.6062 59.8509C55.5048 59.7496 55.5048 59.5929 55.6062 59.4916C55.7075 59.3902 55.8642 59.3902 55.9656 59.4916Z" fill="#77A4E5"/><path d="M53.597 60.5606C53.7344 60.5606 53.8458 60.4492 53.8458 60.3118C53.8458 60.1744 53.7344 60.063 53.597 60.063C53.4595 60.063 53.3481 60.1744 53.3481 60.3118C53.3481 60.4492 53.4595 60.5606 53.597 60.5606Z" fill="#77A4E5"/><path d="M51.7998 51.8703C51.7353 51.7505 51.5786 51.7044 51.4588 51.769C51.339 51.8335 51.2929 51.9901 51.3575 52.1099C51.422 52.2297 51.5786 52.2758 51.6984 52.2113C51.8274 52.1468 51.8735 51.9993 51.7998 51.8703Z" fill="#77A4E5"/><path d="M50.0582 53.2619C49.9384 53.1881 49.7817 53.2158 49.708 53.3356C49.6343 53.4554 49.6619 53.612 49.7817 53.6858C49.9015 53.7595 50.0582 53.7318 50.1319 53.612C50.2056 53.4922 50.178 53.3356 50.0582 53.2619Z" fill="#77A4E5"/><path d="M49.1922 55.4092C49.0539 55.4092 48.9434 55.5198 48.9434 55.658C48.9434 55.7962 49.0539 55.9068 49.1922 55.9068C49.3304 55.9068 49.441 55.7962 49.441 55.658C49.441 55.5198 49.3304 55.4092 49.1922 55.4092Z" fill="#77A4E5"/><path d="M49.8095 58.3301C49.9469 58.3301 50.0583 58.2187 50.0583 58.0813C50.0583 57.9439 49.9469 57.8325 49.8095 57.8325C49.6721 57.8325 49.5607 57.9439 49.5607 58.0813C49.5607 58.2187 49.6721 58.3301 49.8095 58.3301Z" fill="#77A4E5"/><path d="M51.2193 59.4916C51.118 59.5929 51.118 59.7496 51.2193 59.8509C51.3207 59.9523 51.4774 59.9523 51.5787 59.8509C51.6801 59.7496 51.6801 59.5929 51.5787 59.4916C51.4774 59.3902 51.3207 59.3902 51.2193 59.4916Z" fill="#77A4E5"/><path d="M53.5323 55.658C53.5323 55.5198 53.6429 55.4092 53.7812 55.4092C53.9194 55.4092 54.03 55.5198 54.03 55.658C54.03 55.7962 53.9194 55.9068 53.7812 55.9068C53.6429 55.916 53.5323 55.7962 53.5323 55.658Z" fill="#77A4E5"/><path d="M53.8088 52.5063H53.7443V55.6672H53.8088V52.5063Z" fill="#77A4E5"/><path d="M55.3615 54.2544L53.687 55.5688L53.8122 55.7283L55.4867 54.4138L55.3615 54.2544Z" fill="#77A4E5"/></g></svg>