<svg width="270" height="154" viewBox="0 0 270 154" fill="none" xmlns="http://www.w3.org/2000/svg"><g style="mix-blend-mode:luminosity"><path d="M21.8353 154.57C21.8353 154.57 -17.9962 112.238 9.93542 72.7476C20.3588 58.016 46.9683 49.7412 71.4181 56.4514C85.8632 60.4181 107.779 59.8341 129.188 24.8837C158.386 -22.7709 279.578 -1.10868 255.921 82.3998C245.961 117.57 283.093 119.179 264.703 154.647L21.8353 154.57Z" fill="#EBF3FA"/><path d="M237.476 69.7729L150.717 142.362L105.068 103.467C96.529 110.993 83.3289 122.606 70.0518 134.253C60.9836 142.219 53.6344 148.654 47.6844 153.854L6.22217 153.81C17.7144 144.026 64.0137 103.335 95.2068 75.844L104.738 67.437L150.883 106.751L218.613 50.083L237.476 69.7729Z" fill="#D5E5FB"/><path d="M207.639 41.169L248.958 82.6092L260.626 35.2632L207.639 41.169Z" fill="#D5E5FB"/><path d="M72.1784 128.501C72.0241 124.71 71.6935 121.405 71.2969 119.102C70.6578 115.433 70.0959 113.317 70.0849 113.295C69.9967 112.976 68.7957 111.665 66.1072 111.709C63.4187 111.753 63.6721 113.461 63.6721 113.461C63.6721 113.516 63.6832 113.571 63.6942 113.615C63.7162 113.703 66.1843 122.639 66.0742 134.186C66.0742 134.351 66.0521 134.627 66.0631 134.814C66.0631 134.814 72.2885 134.979 72.2885 134.814C72.5089 133.8 72.3987 131.002 72.1784 128.501Z" fill="#B7D3F3"/><path d="M72.9607 134.12C72.9607 134.286 72.8725 134.407 72.7734 134.407C72.6742 134.407 72.5861 134.275 72.5861 134.12H67.2532C67.2532 134.286 67.165 134.407 67.0658 134.407C66.9557 134.407 66.8785 134.275 66.8785 134.109C66.9116 130.804 66.7243 127.719 66.4378 124.997C65.7326 118.21 64.4214 113.67 64.3994 113.604C64.3884 113.56 64.3773 113.505 64.3773 113.45C64.3773 113.45 64.1239 111.742 66.8124 111.698C69.5009 111.654 70.7019 112.965 70.7901 113.285C70.7901 113.307 71.1206 114.497 71.5503 116.645C71.6936 117.361 71.8478 118.177 72.0021 119.091C72.3987 121.394 72.7293 124.7 72.8836 128.49C73.0929 131.002 73.17 133.118 72.9607 134.12Z" fill="#D2E3FC"/><path d="M66.4709 134.407H87.3839C87.3839 134.407 86.8991 132.434 74.7898 132.732C66.2175 132.941 66.4709 134.407 66.4709 134.407Z" fill="#C5DCF8"/><path d="M64.763 154.989C67.187 142.714 66.559 135.189 66.559 135.09C66.548 134.902 66.9006 134.726 67.0879 134.726C67.2752 134.726 68.1126 134.671 68.2118 134.836C68.344 135.046 68.8288 144.323 65.2148 155H64.763V154.989Z" fill="#B7D3F3"/><path d="M84.2876 154.989C81.8636 142.714 82.4916 135.189 82.4916 135.09C82.5026 134.902 82.15 134.726 81.9627 134.726C81.7754 134.726 80.938 134.671 80.8388 134.836C80.7066 135.046 80.2218 144.323 83.8358 155H84.2876V154.989Z" fill="#B7D3F3"/><path d="M88.1551 154.989C85.7311 142.714 86.3591 135.189 86.3591 135.09C86.3701 134.902 86.0175 134.726 85.8302 134.726C85.6429 134.726 84.8055 134.671 84.7063 134.836C84.5741 135.046 84.0893 144.323 87.7033 155H88.1551V154.989Z" fill="#B7D3F3"/><path d="M68.6635 154.989C71.0876 142.714 70.4595 135.189 70.4595 135.09C70.4485 134.902 70.8011 134.726 70.9884 134.726C71.1757 134.726 72.0131 134.671 72.1123 134.836C72.2445 135.046 72.7293 144.323 69.1153 155H68.6635V154.989Z" fill="#B7D3F3"/><path d="M87.3948 135.035H66.4818C66.2505 135.035 66.0521 134.847 66.0521 134.605V134.318C66.0521 134.087 66.2394 133.889 66.4818 133.889H87.3948C87.6262 133.889 87.8245 134.076 87.8245 134.318V134.605C87.8135 134.847 87.6262 135.035 87.3948 135.035Z" fill="#B7D3F3"/><path d="M86.6564 116.16L93.609 114.651L94.0167 115.654C94.0167 115.654 86.3479 120.215 85.6317 119.995C84.9045 119.763 86.6564 116.16 86.6564 116.16Z" fill="#FFB27D"/><path d="M80.3318 147.596C80.1555 147.794 80.1335 148.014 80.2216 148.257C80.3759 148.698 80.9048 149.193 81.5218 149.678C81.5989 149.744 81.665 149.799 81.7311 149.855C81.7422 149.866 81.7642 149.888 81.7752 149.899C81.7862 149.91 81.7973 149.921 81.8083 149.932C82.3812 150.461 82.1609 150.582 83.1856 151.64C84.3535 152.852 85.1579 152.874 85.3893 152.763C85.5876 152.664 85.1909 152.025 84.7502 151.298C84.7281 151.265 84.7061 151.232 84.6841 151.188C84.629 151.089 84.5739 150.989 84.5078 150.901C84.0009 150.031 84.1332 149.623 84.2544 148.323C84.3535 147.265 85.8961 142.428 85.8961 142.428L83.6594 142.042C83.6594 142.042 82.9872 145.888 82.238 146.483C81.8413 146.802 81.4006 146.802 81.0149 147.034C80.9929 147.045 80.9599 147.067 80.9378 147.089C80.7285 147.243 80.5081 147.386 80.3318 147.596Z" fill="#FFB27D"/><path d="M80.3318 147.596C80.1555 147.794 80.1335 148.015 80.2216 148.257C80.42 148.698 80.9268 149.182 81.5218 149.678C81.5989 149.744 81.665 149.8 81.7311 149.855C81.7422 149.866 81.7642 149.888 81.7752 149.899C81.7862 149.91 81.7973 149.921 81.8083 149.932C82.3812 150.461 82.1609 150.582 83.1856 151.64C84.3535 152.852 85.1579 152.874 85.3893 152.763C85.5876 152.664 85.1909 152.025 84.7502 151.298C84.5188 151.21 83.472 150.791 82.6677 149.766C81.9625 148.874 81.4998 147.717 81.0149 147.045C80.9929 147.056 80.9599 147.078 80.9378 147.1C80.7285 147.243 80.5081 147.386 80.3318 147.596Z" fill="#1C468A"/><path d="M98.3801 146.196C98.5234 146.89 99.504 146.769 100.606 146.505C101.708 146.24 101.443 146.56 103.008 146.383C104.572 146.207 105.046 145.623 105.09 145.392C105.134 145.182 104.363 145.116 103.526 145.017C103.427 145.006 103.316 144.995 103.206 144.984C102.27 144.863 101.586 144.257 100.727 143.761C99.9227 143.287 98.7217 141.37 98.7217 141.37L96.5731 141.535C96.5731 141.535 97.697 143.243 98.1377 143.993C98.3912 144.433 98.3801 145.006 98.3471 145.458C98.3471 145.7 98.3361 145.954 98.3801 146.196Z" fill="#FFB27D"/><path d="M100.606 146.505C101.708 146.241 101.443 146.56 103.008 146.384C104.572 146.208 105.046 145.624 105.09 145.392C105.134 145.183 104.363 145.117 103.526 145.018L103.515 145.029C103.515 145.029 102.578 145.69 101.267 145.723C100.209 145.745 99.0741 145.447 98.3469 145.458C98.3249 145.701 98.3139 145.954 98.3689 146.197C98.5232 146.88 99.5038 146.77 100.606 146.505Z" fill="#1C468A"/><path d="M93.6091 114.651C93.6091 114.651 94.116 113.395 94.6889 113.35C95.2619 113.306 97.0469 113.02 97.1681 113.273C97.3003 113.527 97.1681 114.452 96.7824 114.783C96.3968 115.113 94.0168 115.653 94.0168 115.653L93.6091 114.651Z" fill="#FFB27D"/><path d="M90.1494 132.456L85.5216 144.907C85.5216 144.907 84.8054 144.973 84.1333 144.775C83.5053 144.599 82.7891 144.125 82.7891 144.125C82.7891 144.125 83.935 132.17 86.0395 129.68C88.144 127.201 90.1494 132.456 90.1494 132.456Z" fill="#163560"/><path d="M71.8477 127.421C71.8477 127.421 85.1469 122.925 88.1108 123.884C91.0748 124.843 99.9777 142.56 99.9777 142.56C99.9777 142.56 99.7793 142.825 99.2284 143.034C98.7216 143.221 97.4875 143.21 97.4875 143.21C97.4875 143.21 89.4551 136.324 88.4965 134.307C87.5379 132.302 87.1522 130.385 86.2047 130.572C85.2461 130.76 73.8641 135.255 71.2747 132.578C68.6964 129.9 69.3685 126.418 69.3685 126.418L71.8477 127.421Z" fill="#1C468A"/><path d="M79.4283 95.7211C78.8554 95.3906 78.1612 95.3575 77.6874 95.3906C77.8086 95.2583 78.051 95.2143 78.051 95.2143C77.7535 95.1702 77.0814 95.4677 77.0814 95.4677C72.9275 93.87 72.2774 99.9852 72.3545 101.407C72.4427 102.828 72.4537 104.47 70.3822 105.737C66.3054 108.249 69.7432 112.623 69.7432 112.623C69.7762 112.645 71.6383 115.808 71.6383 115.808C71.5281 114.662 76.839 108.591 79.6046 106.784C80.2767 105.792 80.5191 104.04 80.5302 103.908C80.409 105.296 80.1776 106.078 79.9682 106.508C82.3151 104.349 80.9489 96.5805 79.4283 95.7211Z" fill="#B5453C"/><path d="M79.4504 106.872C79.4615 106.883 78.1172 107.577 77.1035 107.301C76.1449 107.037 75.5279 105.803 75.5389 105.803C75.9466 105.726 76.0568 105.164 76.0457 102.784L76.2331 102.817L79.3072 103.423C79.3072 103.423 79.2411 104.392 79.2301 105.296C79.2301 106.067 79.2741 106.783 79.4504 106.872Z" fill="#FFB27D"/><path d="M79.2962 103.423C79.2962 103.423 79.2301 104.393 79.2191 105.296C77.5002 105.252 76.5857 103.677 76.222 102.806L79.2962 103.423Z" fill="#ED975D"/><path d="M75.9135 102.475C75.9135 102.475 75.01 101.054 74.8006 99.831C74.6464 98.9605 75.0871 95.7431 78.3265 96.2059C78.3265 96.2059 79.2631 96.2941 80.1556 96.9001C80.8607 97.3739 81.8744 98.3986 80.7395 101.208L80.442 102.156L75.9135 102.475Z" fill="#B5453C"/><path d="M79.8691 104.282C79.8691 104.282 75.8033 104.348 75.8033 101.814C75.8033 99.28 75.2744 97.5832 77.8748 97.4289C80.4751 97.2746 80.982 98.2443 81.1803 99.0927C81.3896 99.9411 80.9269 104.194 79.8691 104.282Z" fill="#FFB27D"/><path d="M79.726 97.3737C79.726 97.3737 78.6131 100.349 76.9053 100.789C75.1974 101.23 74.4592 100.767 74.4592 100.767C74.4592 100.767 75.7704 99.7206 76.0458 97.9026C76.0348 97.9026 78.8886 95.9523 79.726 97.3737Z" fill="#B5453C"/><path d="M79.4504 97.6161C79.4504 97.6161 80.2768 98.2772 80.4861 98.9273C80.6844 99.5774 80.7836 100.9 81.1692 100.856C81.1692 100.856 82.0066 98.8391 81.0701 97.6932C80.0564 96.4702 79.4504 97.6161 79.4504 97.6161Z" fill="#B5453C"/><path d="M70.3823 117.813C69.9857 116.127 71.3409 112.866 72.7733 110.166C74.0625 107.72 75.4067 105.726 75.5279 105.803C78.9326 107.83 79.2411 106.145 79.2411 106.145C79.2411 106.145 82.3373 106.552 83.2187 108.062C84.3096 109.935 85.4775 115.169 86.6455 116.16C86.4692 116.711 86.5463 116.998 86.7336 117.681C86.7777 117.824 86.8218 117.967 86.8658 118.099C87.0421 118.573 87.2625 118.97 87.4498 119.3C86.8548 119.664 85.7089 120.347 84.8715 119.851C83.5824 119.102 82.5797 116.799 82.0177 115.896C82.0177 115.896 82.0177 115.885 82.0067 115.885C80.7837 122.837 82.4475 124.424 81.599 125.151C80.7066 125.923 79.4284 124.788 76.6187 126C74.7787 126.793 72.2224 127.95 70.5035 128.148C69.6 128.258 68.9279 128.093 68.7075 127.487C68.0905 125.724 71.1536 121.019 70.3823 117.813Z" fill="#1C468A"/><path d="M78.9656 102.751C78.9656 102.751 79.0427 103.07 79.847 103.026C79.847 103.026 80.5192 102.982 80.4971 102.629C80.4971 102.618 79.847 102.365 78.9656 102.751Z" fill="white"/><path d="M68.7296 127.498C68.95 128.104 69.6221 128.27 70.5257 128.159C71.7156 127.642 76.8612 125.647 76.7951 124.303C76.707 122.309 75.8035 122.243 76.4425 119.774C76.9494 117.791 72.2004 114.111 71.4512 113.307C70.0298 116.006 69.9858 116.138 70.3934 117.824C71.1537 121.02 68.0906 125.724 68.7296 127.498Z" fill="#163560"/><path d="M68.1455 120.281C69.06 119.003 70.0076 118.32 70.6357 117.978C70.4924 117.604 74.4701 112.734 74.4701 111.973C74.4701 111.213 75.5278 105.792 75.5278 105.792C75.5278 105.792 72.2113 106.001 71.0654 107.599C69.633 109.604 66.647 117.306 68.1455 120.281Z" fill="#1C468A"/><path d="M70.6357 117.989L77.2577 119.719L76.6407 120.832C76.6407 120.832 68.5752 120.777 68.1455 120.281C67.7158 119.796 70.6357 117.989 70.6357 117.989Z" fill="#FFB27D"/><path d="M82.0287 115.896C82.5907 116.811 83.5934 119.102 84.8825 119.852C85.7309 120.347 86.8768 119.664 87.4608 119.301C87.2735 118.959 87.0531 118.573 86.8769 118.1C86.4031 118.21 85.8301 118.342 85.4555 118.463C84.7283 118.673 82.0287 115.896 82.0287 115.896Z" fill="#163560"/><path d="M77.2577 119.719C77.2577 119.719 79.3402 119.135 79.8361 119.268C80.3319 119.4 82.0287 120.535 81.7863 120.832C81.5439 121.141 80.0564 120.645 79.3623 120.744C78.6791 120.832 78.1392 121.174 77.6434 121.108C77.1476 121.03 76.6297 120.843 76.6297 120.843L77.2577 119.719Z" fill="#FFB27D"/><path d="M77.2578 119.719C77.2578 119.719 78.2714 119.201 78.5689 118.904C78.602 118.871 78.6681 118.871 78.6901 118.915C78.7673 119.036 78.8444 119.279 78.4808 119.51C77.9739 119.84 77.2578 119.719 77.2578 119.719Z" fill="#FFB27D"/><path d="M86.8768 122.639H77.1696C77.1696 122.209 77.5112 121.868 77.9409 121.868H86.8768V122.639Z" fill="#ED7D2B"/><path d="M86.8437 112.072H101.862L98.2588 122.639H83.1525L86.8437 112.072Z" fill="#ED7D2B"/><path d="M102.082 112.072L98.4792 122.639H83.3729L87.0641 112.072H102.082Z" fill="#F99746"/><path d="M93.9837 117.262C93.8955 117.67 93.4878 117.989 93.0801 117.989C92.6725 117.989 92.419 117.659 92.5182 117.262C92.6064 116.854 93.014 116.535 93.4217 116.535C93.8294 116.535 94.0828 116.854 93.9837 117.262Z" fill="#F9DDBF"/><path d="M102.082 112.072L98.4792 122.639H88.4745C95.0965 120.38 96.8595 113.483 97.157 112.072H102.082Z" fill="#ED893E"/><path d="M58.5046 154.989C58.6919 154.989 58.8571 154.857 58.8902 154.67L60.7743 143.982L63.4849 128.611L64.2451 124.314L62.3169 124.259L61.9864 126.749L59.6284 144.279L58.2291 154.67C58.2071 154.846 58.3393 154.989 58.5046 154.989Z" fill="#95C0F4"/><path d="M61.9753 126.771C63.2314 127.322 63.4849 128.633 63.4849 128.633L64.2451 124.336L62.3169 124.281L61.9753 126.771Z" fill="#78ACEA"/><path d="M106.546 154.989C106.358 154.989 106.193 154.857 106.16 154.67L104.276 143.982L101.565 128.611L100.805 124.314L102.733 124.259L103.064 126.749L105.422 144.279L106.821 154.67C106.832 154.846 106.711 154.989 106.546 154.989Z" fill="#95C0F4"/><path d="M103.063 126.773C101.807 127.324 101.554 128.635 101.554 128.635L100.793 124.338L102.721 124.283L103.063 126.773Z" fill="#78ACEA"/><path d="M57.2154 126.011H106.666C107.316 126.011 107.845 125.482 107.845 124.832V123.818C107.845 123.168 107.316 122.639 106.666 122.639H57.2154C56.5653 122.639 56.0364 123.168 56.0364 123.818V124.832C56.0364 125.482 56.5653 126.011 57.2154 126.011Z" fill="#78ACEA"/><path d="M180.06 120.843C180.06 120.843 178.781 122.429 179.178 122.65C179.575 122.87 180.643 123.278 180.886 123.013C181.128 122.749 181.216 120.887 181.216 120.887L180.06 120.843Z" fill="#FFB27D"/><path d="M180.104 120.865C180.104 120.865 179.575 121.052 179.376 121.316C179.178 121.581 178.715 122.011 178.825 122.121C178.936 122.231 179.597 121.724 179.597 121.724L180.104 120.865Z" fill="#FFB27D"/><path d="M184.908 99.5996C184.908 99.5996 183.464 113.064 183.332 113.439C183.299 113.527 183.189 113.946 183.034 114.563C182.803 115.433 182.483 116.7 182.175 117.89C181.712 119.697 181.293 121.361 181.293 121.361L180.037 120.942C180.037 120.942 179.971 114.397 180.291 112.899C180.61 111.389 181.646 102.134 182.164 100.889C182.693 99.6547 184.908 99.5996 184.908 99.5996Z" fill="#AEC3FF"/><path d="M181.899 131.872L174.01 129.801C172.986 129.537 172.368 128.468 172.633 127.443L173.525 124.027C173.79 123.003 174.859 122.386 175.883 122.65L183.773 124.722C184.797 124.986 185.414 126.055 185.15 127.079L184.257 130.495C183.982 131.531 182.924 132.148 181.899 131.872Z" fill="#A02E2E"/><path d="M174.572 124.303L173.669 127.763C173.492 128.435 173.691 129.118 174.143 129.581C174.286 129.735 174.462 129.867 174.66 129.966C174.782 130.032 174.914 130.076 175.057 130.121L182.924 132.181C183.949 132.456 185.018 131.828 185.293 130.804L186.197 127.344C186.461 126.308 185.844 125.25 184.819 124.975L182.109 124.259L182.307 123.52C182.395 123.179 182.197 122.826 181.855 122.738L181.558 122.661L179.905 122.231L179.497 122.121C179.332 122.077 179.156 122.099 179.013 122.187C178.869 122.275 178.759 122.408 178.715 122.573L178.517 123.311L176.952 122.903C176.886 122.892 176.831 122.87 176.765 122.859C176.137 122.76 175.509 122.981 175.079 123.421C174.837 123.675 174.66 123.972 174.572 124.303ZM181.712 124.171L178.891 123.432L179.09 122.694C179.123 122.562 179.255 122.496 179.376 122.529L180.081 122.716L181.382 123.058L181.734 123.146C181.756 123.157 181.778 123.157 181.8 123.179C181.888 123.234 181.933 123.333 181.899 123.443L181.712 124.171Z" fill="#BC3F3F"/><path d="M180.809 123.058C180.809 123.058 181.161 122.463 181.029 122.264C180.897 122.055 180.423 122.87 180.423 122.87C180.423 122.87 180.743 122.165 180.621 122.055C180.5 121.945 180.004 122.749 180.004 122.749C180.004 122.749 180.313 122.066 180.203 122.044C180.093 122.022 179.729 122.617 179.729 122.617C179.729 122.617 179.916 122.11 179.751 122.132C179.575 122.154 179.2 122.617 179.2 122.617L180.809 123.058Z" fill="#FFB27D"/><path d="M183.034 114.562C182.803 115.433 182.483 116.7 182.175 117.89C181.977 117.339 181.723 116.458 181.569 115.246C181.282 113.02 182.175 108.271 182.175 108.271L183.034 114.562Z" fill="#9DB0F4"/><path d="M199.573 120.292C199.573 120.292 200.972 121.427 201.149 121.779C201.325 122.132 201.755 123.443 201.733 123.873C201.711 124.292 200.664 122.903 200.355 122.793C200.047 122.683 200.675 123.366 200.609 123.509C200.543 123.653 199.882 123.179 199.628 123.025C199.375 122.87 199.198 121.802 198.835 121.229C198.449 120.645 199.573 120.292 199.573 120.292Z" fill="#FFB27D"/><path d="M181.227 154.295H188.202C188.698 153.953 188.07 150.648 188.07 150.648C188.07 150.648 186.164 149.921 185.844 151.397C185.514 152.863 183.42 153.325 182.318 153.513C181.536 153.634 181.304 154.042 181.227 154.295Z" fill="#233862"/><path d="M191.562 154.295H198.537C199.033 153.953 198.405 150.648 198.405 150.648C198.405 150.648 196.499 149.921 196.179 151.397C195.849 152.863 193.755 153.325 192.653 153.513C191.882 153.634 191.64 154.042 191.562 154.295Z" fill="#233862"/><path d="M183.101 120.512C183.101 120.512 183.409 124.424 183.784 129.117C184.28 135.497 185.635 151.331 185.635 151.331C185.635 151.331 186.516 152.091 188.478 151.672C188.478 151.672 190.141 146.207 190.648 139.982C190.659 139.882 190.659 139.772 190.67 139.673C191.133 133.326 191.86 119.972 191.86 119.972L183.101 120.512Z" fill="#2B478B"/><path d="M182.99 119.168C182.99 119.168 183.409 124.424 183.784 129.129L190.648 139.993C190.659 139.894 190.659 139.783 190.67 139.684C191.133 133.338 191.86 119.983 191.86 119.983L182.99 119.168Z" fill="#233862"/><path d="M184.996 119.168C184.996 119.168 189.976 131.564 191.563 136.258C192.698 139.607 195.893 151.342 195.893 151.342C195.893 151.342 197.281 151.76 198.449 150.945C198.449 150.945 199.639 138.957 197.237 135.574C195.959 133.778 196.918 116.931 191.75 116.788C186.582 116.634 184.996 119.168 184.996 119.168Z" fill="#2B478B"/><path d="M194.483 120.292C192.411 121.46 183.519 121.438 183.101 120.512C182.175 118.463 181.955 108.028 182.384 104.833C182.384 104.833 182.605 99.9188 183.101 100.128C186.384 98.6186 191.706 99.9849 191.706 99.9849C193.138 100.404 193.017 103.687 193.414 108.282C193.469 108.877 193.524 109.494 193.59 110.133C193.877 112.976 194.284 116.237 194.912 119.675C194.945 119.917 194.791 120.116 194.483 120.292Z" fill="#AEC3FF"/><path d="M189.249 99.4451C189.194 100.327 188.048 100.227 186.67 99.9079C185.293 99.5993 185.789 98.784 185.789 98.784C185.789 98.784 185.811 98.1559 185.899 97.4067C185.932 97.1312 185.976 96.8448 186.02 96.5693C186.042 96.4371 186.075 96.2938 186.097 96.1616C186.274 95.3903 188.852 96.1396 188.83 96.3379C188.786 96.8999 189.194 98.7509 189.249 99.4451Z" fill="#FFB27D"/><path d="M186.285 100.977L186.186 99.7646L187.706 100.051L187.122 101.131L186.285 100.977Z" fill="#233862"/><path d="M185.822 98.2109L184.908 99.5993C184.908 99.5993 184.908 100.448 185.701 101.076L186.946 99.9188C186.946 99.9078 186.142 99.5993 185.822 98.2109Z" fill="#9DB0F4"/><path d="M186.946 99.9081C186.946 99.9081 187.199 100.834 187.706 101.263C187.706 101.263 189.656 100.734 190.119 99.7428L189.105 98.4316C189.094 98.4316 189.05 99.4233 186.946 99.9081Z" fill="#9DB0F4"/><path d="M188.852 96.7786C188.852 96.7786 187.607 97.605 185.899 97.4066C185.932 97.1312 185.976 96.8447 186.02 96.5692C186.362 96.4921 186.649 96.437 186.649 96.437L188.852 96.7786Z" fill="#E2915A"/><path d="M189.634 95.842C189.028 97.5057 186.814 97.087 185.877 96.8116C185.613 96.7344 185.447 96.6794 185.447 96.6794C185.161 96.5471 185.062 96.0403 185.095 95.4012C185.15 94.1341 185.646 92.3381 185.932 91.9084C186.362 91.2583 187.089 90.5972 189.227 91.5227C191.375 92.4373 190.417 93.7044 189.634 95.842Z" fill="#FFB27D"/><path d="M191.298 94.9827C190.626 95.5336 189.172 96.5583 189.172 96.5583C189.172 96.5583 189.337 96.371 189.535 95.8201C189.557 95.754 189.568 95.6658 189.557 95.5666C189.546 95.2912 189.612 95.0267 189.756 94.7954C189.844 94.6521 189.877 94.4979 189.767 94.3987C189.579 94.2224 189.271 94.3877 189.062 94.5199C188.929 94.608 188.753 94.6191 188.61 94.5309C188.037 94.1673 188.665 93.5282 188.202 92.9994C187.728 92.4705 185.701 92.3933 185.778 92.0628C185.084 91.6661 185.525 90.2227 185.536 90.1456C185.536 90.1456 186.527 90.2337 187.772 89.9252C188.786 89.6718 189.899 90.3219 190.252 90.5863C190.252 90.5202 190.241 90.4321 190.196 90.3439C190.196 90.3439 190.351 90.4982 190.351 90.6745C190.362 90.6855 190.373 90.6965 190.373 90.7075C190.373 90.7075 190.571 90.7075 190.692 90.7847C190.692 90.7847 190.604 90.7626 190.56 90.8067C190.56 90.8177 190.549 90.8177 190.538 90.8177C191.871 91.7653 191.849 94.5309 191.298 94.9827Z" fill="#233862"/><path d="M186.439 95.5997C186.439 95.5997 186.329 95.8091 185.789 95.6328C185.789 95.6328 185.326 95.4895 185.403 95.2471C185.403 95.2471 185.899 95.192 186.439 95.5997Z" fill="white"/><path d="M186.285 100.977C186.285 100.977 185.062 116.369 185.084 117.647C185.106 118.926 186.428 120.281 186.428 120.281C186.428 120.281 187.486 119.124 187.695 117.89C187.905 116.667 187.111 101.12 187.111 101.12L186.285 100.977Z" fill="#2A4E96"/><path d="M191.706 99.9961C191.706 99.9961 193.667 100.47 195.232 103.456C196.785 106.442 198.008 112.469 198.758 114.056C199.496 115.642 200.014 120.656 200.014 120.656L198.835 121.229C198.835 121.229 196.003 116.094 195.573 114.419C195.342 113.505 191.882 106.221 191.882 106.221L191.706 99.9961Z" fill="#AEC3FF"/><path d="M194.483 120.292C190.78 119.763 191.838 107.51 192.125 107.455C192.411 107.411 193.48 109.648 193.48 109.648L193.579 110.144C193.866 112.986 194.273 116.248 194.901 119.686C194.945 119.917 194.791 120.115 194.483 120.292Z" fill="#9DB0F4"/><path d="M240.672 147.056C240.672 147.056 242.214 148.466 241.917 149.458C241.619 150.46 240.22 151.121 240.033 152.345C239.845 153.568 239.096 154.229 238.413 154.229C237.741 154.229 235.185 154.229 235.185 154.229C235.185 154.229 234.689 153.369 235.89 153.105C237.091 152.84 237.543 151.408 237.477 150.075C237.399 148.742 237.587 146.968 237.587 146.968L240.143 146.373L240.672 147.056Z" fill="#233862"/><path d="M221.764 150.692C221.764 150.692 222.04 153.898 221.367 154.229L212.707 154.206C212.707 154.206 212.707 153.204 214.095 152.983C215.484 152.763 217.93 151.948 218.348 150.13C218.756 148.323 221.764 150.692 221.764 150.692Z" fill="#233862"/><path d="M214.448 105.472C214.448 105.472 214.9 111.08 215.44 117.824C216.167 126.991 217.048 138.241 217.136 140.378C217.291 144.08 217.886 150.008 217.886 150.008C217.886 150.008 219.318 151.419 222.172 150.824C222.172 150.824 224.717 142.373 225.444 133.426C225.455 133.282 225.466 133.128 225.477 132.985C226.149 123.884 227.207 104.701 227.207 104.701L214.448 105.472Z" fill="#2A4E96"/><path d="M214.448 105.472C214.448 105.472 214.9 111.081 215.44 117.824L225.444 133.415C225.455 133.272 225.466 133.117 225.477 132.974C226.149 123.873 227.207 104.69 227.207 104.69L214.448 105.472Z" fill="#233862"/><path d="M216.53 106.133C216.53 106.133 224.761 126.451 230.182 136.004C235.603 145.557 237.289 148.223 237.289 148.223C237.289 148.223 240.385 147 240.672 146.174C240.672 146.174 238.6 127.74 234.975 123.245C232.926 120.711 231.163 115.069 231.251 112.403C231.405 107.808 229.675 102.475 229.675 102.475L216.53 106.133Z" fill="#2A4E96"/><path d="M209.963 106.442C209.963 106.442 208.421 108.524 208.311 109.075C208.201 109.626 208.068 111.61 208.245 112.193C208.432 112.777 209.391 110.464 209.776 110.199C210.162 109.935 209.534 111.114 209.688 111.29C209.842 111.466 210.581 110.563 210.867 110.254C211.153 109.946 211.021 108.403 211.33 107.467C211.638 106.53 209.963 106.442 209.963 106.442Z" fill="#FFB27D"/><path d="M216.74 76.1851C216.74 76.1851 214.657 95.5223 214.481 96.0733C214.437 96.1945 214.283 96.8005 214.051 97.6819C213.721 98.938 213.258 100.745 212.828 102.464C212.167 105.064 211.451 107.301 211.451 107.301C211.451 107.301 211.142 107.499 210.382 107.444C209.864 107.4 209.589 106.959 209.589 106.959C209.589 106.959 209.666 97.4616 210.129 95.302C210.591 93.1314 212.079 79.8432 212.828 78.0472C213.566 76.2732 216.74 76.1851 216.74 76.1851Z" fill="white"/><path d="M214.04 97.693C213.71 98.9491 213.247 100.756 212.817 102.475C212.531 101.682 212.178 100.415 211.947 98.6847C211.528 95.4893 212.817 88.6689 212.817 88.6689L214.04 97.693Z" fill="#DCEAFF"/><path d="M230.491 105.913C227.505 107.599 214.734 107.555 214.139 106.233C212.817 103.28 212.487 88.3057 213.115 83.7C213.115 83.7 213.434 76.6372 214.139 76.9457C218.855 74.7751 226.491 76.7474 226.491 76.7474C228.551 77.3534 228.375 82.0583 228.948 88.6693C229.025 89.5177 229.102 90.4102 229.19 91.3247C229.598 95.4016 230.193 100.095 231.086 105.043C231.163 105.384 230.931 105.671 230.491 105.913Z" fill="white"/><path d="M222.976 75.965C222.899 77.2321 221.246 77.0889 219.263 76.6371C217.28 76.1854 217.996 75.0174 217.996 75.0174C217.996 75.0174 218.029 74.1249 218.15 73.0451C218.194 72.6595 218.249 72.2408 218.326 71.8331C218.359 71.6348 218.404 71.4364 218.448 71.2491C218.701 70.1363 222.403 71.2051 222.381 71.5136C222.315 72.3179 222.899 74.9734 222.976 75.965Z" fill="#FFB27D"/><path d="M218.723 78.1686L218.569 76.4277L220.761 76.8464L219.924 78.4L218.723 78.1686Z" fill="#233862"/><path d="M218.051 74.1909L216.74 76.1853C216.74 76.1853 216.74 77.4083 217.875 78.3008L219.671 76.637C219.671 76.637 218.514 76.1963 218.051 74.1909Z" fill="#DCEAFF"/><path d="M219.671 76.6368C219.671 76.6368 220.045 77.97 220.761 78.576C220.761 78.576 223.56 77.8268 224.221 76.3944L222.767 74.5103C222.767 74.5103 222.69 75.9316 219.671 76.6368Z" fill="#DCEAFF"/><path d="M222.403 72.1413C222.403 72.1413 220.618 73.3203 218.15 73.0448C218.194 72.6592 218.249 72.2405 218.327 71.8328C218.811 71.7116 219.219 71.6455 219.219 71.6455L222.403 72.1413Z" fill="#E2915A"/><path d="M223.538 70.7971C222.668 73.1881 219.494 72.5821 218.139 72.1964C217.753 72.0862 217.522 71.9981 217.522 71.9981C217.103 71.8108 216.971 71.0836 217.015 70.158C217.092 68.34 217.808 65.7617 218.216 65.1446C218.833 64.2081 219.88 63.2605 222.954 64.5827C226.039 65.8939 224.651 67.723 223.538 70.7971Z" fill="#FFB27D"/><path d="M225.918 69.5632C224.948 70.3565 222.855 71.8219 222.855 71.8219C222.855 71.8219 223.086 71.5465 223.373 70.7532C223.406 70.665 223.417 70.5328 223.406 70.3896C223.395 70.0039 223.483 69.6183 223.692 69.2877C223.825 69.0784 223.869 68.869 223.703 68.7148C223.439 68.4613 222.987 68.6927 222.69 68.9021C222.491 69.0343 222.238 69.0453 222.04 68.9241C221.213 68.4062 222.128 67.4917 221.456 66.7204C220.784 65.9602 217.853 65.85 217.974 65.3762C216.971 64.8142 217.61 62.7318 217.621 62.6216C217.621 62.6216 219.054 62.7428 220.839 62.302C222.293 61.9384 223.891 62.875 224.398 63.2496C224.398 63.1615 224.387 63.0293 224.32 62.897C224.32 62.897 224.541 63.1174 224.541 63.3708C224.563 63.3929 224.574 63.4039 224.563 63.4149C224.563 63.4149 224.849 63.4039 225.026 63.5251C225.026 63.5251 224.904 63.481 224.838 63.5581C224.827 63.5692 224.827 63.5692 224.816 63.5802C226.744 64.9354 226.722 68.9021 225.918 69.5632Z" fill="#BC3F3F"/><path d="M218.943 70.4448C218.943 70.4448 218.789 70.7423 218.007 70.4999C218.007 70.4999 217.346 70.2905 217.456 69.9379C217.445 69.9379 218.161 69.8608 218.943 70.4448Z" fill="white"/><path d="M218.723 78.1685C218.723 78.1685 216.971 100.282 216.993 102.122C217.015 103.963 218.932 105.913 218.932 105.913C218.932 105.913 220.453 104.238 220.75 102.486C221.048 100.723 219.902 78.3998 219.902 78.3998L218.723 78.1685Z" fill="#2A4E96"/><path d="M230.491 105.913C225.169 105.153 226.689 87.5451 227.108 87.479C227.527 87.4129 229.058 90.6303 229.058 90.6303L229.201 91.3465C229.609 95.4233 230.204 100.117 231.097 105.064C231.163 105.384 230.931 105.67 230.491 105.913Z" fill="#DCEAFF"/><path d="M246.126 119.024L234.876 122.297C233.41 122.727 231.868 121.878 231.438 120.413L230.017 115.543C229.587 114.077 230.436 112.535 231.901 112.105L243.151 108.832C244.616 108.403 246.159 109.251 246.589 110.717L248.01 115.587C248.44 117.052 247.591 118.606 246.126 119.024Z" fill="#A02E2E"/><path d="M231.504 115.102L232.937 120.027C233.212 120.986 233.961 121.68 234.865 121.922C235.162 122.011 235.471 122.044 235.791 122.022C235.989 122.011 236.187 121.978 236.386 121.922L247.613 118.65C249.079 118.22 249.938 116.667 249.508 115.201L248.076 110.276C247.646 108.811 246.093 107.951 244.627 108.381L240.76 109.505L240.451 108.458C240.308 107.973 239.801 107.687 239.316 107.83L238.898 107.951L236.551 108.634L235.967 108.8C235.735 108.866 235.537 109.02 235.416 109.24C235.295 109.461 235.273 109.703 235.339 109.934L235.647 110.981L233.411 111.631C233.322 111.653 233.234 111.686 233.157 111.719C232.309 112.061 231.703 112.799 231.493 113.648C231.372 114.132 231.372 114.628 231.504 115.102ZM240.209 109.67L236.198 110.849L235.89 109.802C235.835 109.626 235.945 109.428 236.121 109.373L237.135 109.075L238.986 108.535L239.482 108.392C239.515 108.381 239.548 108.381 239.581 108.381C239.724 108.381 239.856 108.48 239.9 108.623L240.209 109.67Z" fill="#BC3F3F"/><path d="M236.848 106.53C236.848 106.53 236.496 109.45 237.157 109.406C237.818 109.362 239.416 109.053 239.515 108.546C239.625 108.04 238.292 105.704 238.292 105.704L236.848 106.53Z" fill="#FFB27D"/><path d="M236.925 106.519C236.925 106.519 236.43 107.136 236.386 107.632C236.341 108.117 236.099 108.976 236.33 109.031C236.551 109.086 236.97 107.962 236.97 107.962L236.925 106.519Z" fill="#FFB27D"/><path d="M226.502 76.7583C226.502 76.7583 229.323 77.4304 231.56 81.7276C233.796 86.0138 235.559 94.6742 236.617 96.955C237.686 99.2358 238.49 106.089 238.49 106.089C238.49 106.089 238.325 106.431 237.752 106.552C237.311 106.651 236.848 106.607 236.848 106.607C236.848 106.607 232.65 99.8859 232.044 97.4619C231.714 96.1507 226.733 85.6832 226.733 85.6832L226.502 76.7583Z" fill="white"/><path d="M40.4783 151.441L40.0596 148.4L41.8336 146.913L42.3955 150.945L40.4783 151.441Z" fill="#FFB27D"/><path d="M46.3843 154.163H39.1341C39.1341 154.163 38.9579 153.061 39.3435 152.223C39.7071 151.419 40.269 150.923 40.3241 150.306C40.7869 150.78 41.3488 151.088 42.3956 150.945C42.5278 151.155 43.222 152.267 43.6517 152.576C44.1255 152.918 46.241 152.796 46.3843 154.163Z" fill="#233862"/><path d="M44.9298 110.288C44.456 114.1 44.0703 117.692 43.7508 121.041C42.065 138.891 42.3955 149.8 42.3955 149.8C42.3955 149.8 42.2743 150.119 41.2276 150.13C40.6326 150.13 40.0596 150.009 40.0596 150.009C40.0596 150.009 36.2803 138.351 36.5778 131.718C36.6109 130.925 36.71 130.198 36.8753 129.57C37.7788 126.176 33.5257 113.196 38.1534 108.359C42.7701 103.533 45.1501 108.536 44.9298 110.288Z" fill="#F99746"/><path d="M44.9298 110.288C44.456 114.1 44.0703 117.692 43.7508 121.041L36.5778 131.718C36.6109 130.925 36.71 130.198 36.8753 129.57C37.7788 126.176 33.5257 113.196 38.1534 108.359C42.7701 103.533 45.1501 108.536 44.9298 110.288Z" fill="#ED7D2B"/><path d="M50.6374 73.9157C50.6374 73.9157 50.4611 73.0453 50.2627 72.3842C50.1746 72.0867 50.7806 70.1584 51.1993 69.916C51.618 69.6736 52.7088 70.9848 52.4003 71.9765C52.246 72.4944 51.9816 74.1581 51.9816 74.1581L50.6374 73.9157Z" fill="#FFB27D"/><path d="M50.6374 73.9157C50.6374 73.9157 50.406 73.4088 50.2077 73.3317C49.9983 73.2546 49.7779 72.4282 49.6347 72.0976C49.6347 72.0976 49.7779 71.8883 50.0314 72.1638C50.1856 72.329 50.5382 72.8249 50.5382 72.8249L50.6374 73.9157Z" fill="#FFB27D"/><path d="M20.7113 76.8464C20.6673 76.9346 20.6012 77.0998 20.5461 77.2541C20.5461 77.21 20.5461 77.166 20.5461 77.1329C20.5461 76.8244 19.4002 75.1606 18.9264 75.0504C18.4526 74.9513 17.7915 76.5049 18.3754 77.3753C18.6729 77.816 19.4112 79.3366 19.4112 79.3366L20.6342 78.7085C20.6342 78.7085 20.7003 78.1576 20.8766 78.0254C21.0529 77.8822 21.0199 77.0337 21.0639 76.6701C21.075 76.6701 20.8766 76.5049 20.7113 76.8464Z" fill="#FFB27D"/><path d="M28.325 150.526C28.2259 149.546 28.1928 146.979 28.1928 146.979C28.1928 146.979 30.8152 146.141 30.716 146.714C30.2422 149.535 30.3745 150.934 30.3745 150.934L29.3167 151.562L28.325 150.526Z" fill="#FFB27D"/><path d="M42.7371 110.1C42.7371 110.1 32.6222 137.834 30.6279 149.866C30.6279 149.866 30.1651 150.185 29.3057 150.075C28.3251 149.954 28.0606 149.282 28.0606 149.282C28.0606 149.282 26.2316 134.859 29.8676 129.856C32.3688 126.418 28.7878 111.312 34.6055 110.1C40.4233 108.888 42.7371 110.1 42.7371 110.1Z" fill="#F99746"/><path d="M40.9412 83.4244C40.9412 83.4134 40.9412 83.4024 40.9301 83.3913C40.875 83.1489 40.8089 82.9065 40.7318 82.6641C40.5225 81.9369 40.269 81.2427 39.9936 80.6257C39.8393 80.2731 39.674 79.9536 39.5088 79.6561C39.4867 79.612 39.4537 79.5679 39.4316 79.5239C39.046 78.8628 38.6383 78.411 38.2747 78.2678C37.6136 78.0144 36.8754 78.0805 36.3685 78.1906C36.4787 78.0364 36.7321 77.9482 36.7321 77.9482C36.4126 77.9482 35.7515 78.3669 35.7515 78.3669C31.0907 77.3202 31.3662 83.9202 31.6857 85.4077C32.0052 86.9062 30.5067 87.6334 28.3802 89.1539C24.3364 92.0738 24.4136 95.159 24.4136 95.159C24.4466 95.17 24.4907 95.192 24.5348 95.2141C24.7 94.8174 25.0416 94.0571 25.4052 93.8919C25.3942 93.9249 25.0967 94.9056 25.0196 95.4565C25.6366 95.798 26.485 96.3159 27.4106 96.9109C28.6446 97.7042 30.0109 98.6187 31.1017 99.357C31.0466 99.0595 31.0026 98.6298 31.0797 98.3874L31.4323 99.4672L31.4764 99.6104C32.1705 100.084 32.7214 100.459 33.0079 100.657C33.041 100.679 33.063 100.69 33.085 100.712C33.1622 100.767 33.2062 100.8 33.2062 100.8C33.1181 100.415 33.5258 99.4231 34.2089 98.167C34.253 98.0789 34.3081 97.9907 34.3522 97.9026C34.5725 97.5059 34.8149 97.0872 35.0794 96.6575C35.1785 96.5032 35.2667 96.349 35.3769 96.1837C35.454 96.0515 35.5421 95.9303 35.6193 95.798C35.8176 95.4895 36.027 95.181 36.2363 94.8725C36.7762 94.0682 37.3492 93.2748 37.9221 92.5476C38.7485 91.4899 39.5528 90.5643 40.225 89.9583C40.247 89.9142 40.269 89.8701 40.2911 89.8151C40.4013 89.5726 40.4784 89.2972 40.5445 89.0217C40.5665 88.9336 40.5775 88.8565 40.5996 88.7683C40.7649 87.8758 40.7759 87.0054 40.7649 86.796C40.82 87.6554 40.7979 88.2945 40.7428 88.7903C40.7318 88.9005 40.7208 88.9997 40.6988 89.0878C40.6657 89.2972 40.6216 89.4735 40.5775 89.6167C40.6877 89.4845 40.7869 89.3302 40.875 89.165C40.9301 89.0548 40.9852 88.9446 41.0293 88.8234C41.5692 87.4461 41.415 85.3746 40.9412 83.4244Z" fill="#163560"/><path d="M40.0707 90.1016C40.0817 90.1016 38.7706 91.0602 37.6467 90.928C36.5889 90.8068 35.7405 89.5838 35.7515 89.5838C36.1702 89.4295 36.2033 88.8235 35.8176 86.3003L36.016 86.3113L39.3655 86.4766C39.3655 86.4766 39.4427 87.5123 39.5859 88.4819C39.7071 89.2753 39.8724 90.0465 40.0707 90.1016Z" fill="#FFB27D"/><path d="M39.3655 86.4658C39.3655 86.4658 39.4426 87.5015 39.5859 88.4711C37.7568 88.6915 36.5448 87.171 36.0159 86.3115L39.3655 86.4658Z" fill="#ED975D"/><path d="M35.6193 86.0028C35.6193 86.0028 34.4403 84.6365 34.0216 83.3804C33.7241 82.4879 33.68 78.995 37.1839 78.973C37.1839 78.973 38.1976 78.9179 39.2223 79.4137C40.0377 79.8104 41.2827 80.736 40.5225 83.8982L40.3572 84.956L35.6193 86.0028Z" fill="#163560"/><path d="M45.3485 109.571C45.3485 109.571 40.9852 112.16 35.498 110.827C35.4319 110.816 30.9805 110.1 30.9805 110.1C31.0576 109.891 31.6306 106.453 31.7077 106.265C32.6773 103.753 34.4623 90.1346 35.9387 89.4624C36.3134 89.8701 37.4042 90.1566 38.3297 90.0795C39.3985 89.9803 39.7511 89.5285 39.663 89.0327C40.8419 89.5947 41.7565 90.1125 41.7565 90.1125C42.8473 91.7212 45.3485 109.571 45.3485 109.571Z" fill="white"/><path d="M40.1148 87.292C40.1148 87.292 35.8066 88.0082 35.4099 85.3197C35.0022 82.6312 34.1759 80.9123 36.9084 80.3504C39.641 79.7774 40.3241 80.725 40.6767 81.5955C41.0293 82.4439 41.2276 87.0386 40.1148 87.292Z" fill="#FFB27D"/><path d="M38.8587 79.987C38.8587 79.987 38.1425 83.3146 36.4016 84.0528C34.6606 84.791 33.8012 84.4164 33.8012 84.4164C33.8012 84.4164 35.0243 83.1052 35.0243 81.1329C35.0353 81.1329 37.7458 78.6207 38.8587 79.987Z" fill="#163560"/><path d="M38.6052 80.2842C38.6052 80.2842 39.5969 80.8572 39.9054 81.5073C40.2249 82.1574 40.5334 83.5567 40.9301 83.4465C40.9301 83.4465 41.5031 81.1657 40.3241 80.108C39.079 78.9841 38.6052 80.2842 38.6052 80.2842Z" fill="#163560"/><path d="M52.0146 73.9818C51.8383 73.9157 51.5849 73.7724 51.2433 73.7394C50.9458 73.7173 50.5712 73.8055 50.5712 73.8055C50.5712 73.8055 49.3592 81.3531 49.271 81.7498C49.1829 82.1464 44.0593 87.9201 42.682 87.887C41.4369 87.865 39.9605 88.8236 39.685 89.0109C39.685 89.0109 42.5828 95.1481 42.7371 96.3051C42.8914 97.5612 44.4009 116.876 44.4009 116.876C44.4009 116.876 44.3127 117.78 45.9875 117.295C47.6623 116.81 48.081 116.414 48.081 116.414C48.081 116.414 46.5384 101.208 46.2189 96.4813C46.1748 95.8423 46.0757 95.2583 45.9214 94.7184C45.7782 94.2005 45.8884 93.6386 46.2079 93.1979C48.3344 90.289 51.684 85.5621 51.8713 84.5594C52.1358 83.094 52.0146 73.9818 52.0146 73.9818Z" fill="#2B478B"/><path d="M34.3631 154.163H27.113C27.113 154.163 26.9367 153.061 27.3224 152.223C27.686 151.419 28.2479 150.923 28.303 150.306C28.7658 150.78 29.3277 151.088 30.3745 150.945C30.5067 151.155 31.2009 152.267 31.6306 152.576C32.1044 152.918 34.2199 152.796 34.3631 154.163Z" fill="#233862"/><path d="M39.3435 96.911C39.101 95.4125 35.9828 89.3744 35.9828 89.3744C35.9828 89.3744 34.0105 88.7794 32.7104 89.2532C31.4102 89.727 24.7 85.9367 24.4796 85.5841C24.2593 85.2315 20.6673 78.5323 20.6673 78.5323C20.6673 78.5323 20.3698 78.356 19.896 78.6095C19.4222 78.8519 19.4222 79.3367 19.4222 79.3367C19.4222 79.3367 22.1988 87.7768 22.9371 89.0769C23.3778 89.8593 27.124 92.6028 30.0329 94.6523C30.5838 95.0489 30.8813 95.71 30.7822 96.3821C30.3965 99.269 30.2973 100.889 29.8456 105.847C29.471 109.957 29.3277 117.901 29.3277 117.901C29.3277 117.901 32.5782 119.025 34.8149 119.179C37.0516 119.333 37.5474 116.965 37.5474 116.965C37.5474 116.965 39.5969 98.4536 39.3435 96.911Z" fill="#2B478B"/><path d="M38.7043 85.9587C38.7043 85.9587 39.2222 86.2672 39.8392 86.168C40.2579 86.1019 40.3571 85.6061 40.3571 85.6061C40.3571 85.6061 40.0596 85.5179 39.5968 85.6061C39.1341 85.7052 38.7043 85.9587 38.7043 85.9587Z" fill="white"/><path d="M176.17 34.734C176.17 34.734 174.154 31.153 176.17 30.4258C178.186 29.6986 179.09 30.3707 179.189 31.1861C179.288 32.0015 178.418 35.2188 178.418 35.2188L176.17 34.734Z" fill="#FFB27D"/><path d="M177.79 57.63C174.121 58.2911 170.738 58.5996 167.697 58.6657C164.799 58.7318 162.21 58.5775 159.94 58.3131C159.334 58.247 158.739 58.1699 158.177 58.0817C152.227 57.1782 148.944 55.5805 148.944 55.5805C148.944 55.5805 154.376 44.2096 158.761 44.6503C163.907 45.1682 172.633 49.7849 173.504 48.4847C174.484 47.0303 175.3 34.5023 175.3 34.5023C177.58 32.9377 178.947 34.5905 178.947 34.5905C178.947 34.5905 183.398 56.6163 177.79 57.63Z" fill="#F99746"/><path d="M177.79 57.6301C174.121 58.2913 170.738 58.5998 167.697 58.6659C164.799 58.732 162.21 58.5777 159.94 58.3133C158.574 53.961 157.582 49.5096 160.337 52.1871C165.196 56.925 177.79 57.6301 177.79 57.6301Z" fill="#ED7D2B"/><path d="M148.536 149.436C148.536 149.436 148.15 153.953 149.098 154.427L161.328 154.405C161.328 154.405 161.328 152.995 159.367 152.675C157.406 152.367 153.957 151.21 153.373 148.653C152.778 146.086 148.536 149.436 148.536 149.436Z" fill="#233862"/><path d="M157.516 94.7292C157.461 97.6821 157.318 100.734 157.031 103.478C155.709 116.48 155.246 132.192 155.059 135.222C154.728 140.478 153.692 148.874 153.692 148.874C153.692 148.874 151.632 150.824 147.621 149.898C147.621 149.898 144.294 137.8 143.556 125.063C143.545 124.854 143.534 124.644 143.522 124.435C143.434 122.749 143.346 120.821 143.258 118.749C142.641 104.844 141.98 84.1846 141.98 84.1846L157.329 80.5816C157.307 80.5596 157.659 87.3579 157.516 94.7292Z" fill="#2A4E96"/><path d="M157.516 94.729C153.626 101.439 146.211 113.802 143.247 118.738C142.63 104.833 141.969 84.1734 141.969 84.1734L157.318 80.5703C157.307 80.5593 157.659 87.3577 157.516 94.729Z" fill="#233862"/><path d="M118.654 81.7275C118.654 81.7275 116.153 84.6695 115.932 85.4738C115.712 86.2781 115.304 89.22 115.525 90.1015C115.734 90.983 117.398 87.6444 118.004 87.2918C118.61 86.9392 117.552 88.6251 117.761 88.9005C117.971 89.187 119.161 87.9199 119.624 87.4902C120.086 87.0604 120.042 84.7576 120.604 83.4023C121.155 82.0361 118.654 81.7275 118.654 81.7275Z" fill="#FFB27D"/><path d="M118.07 144.301C118.07 144.301 115.888 146.284 116.318 147.694C116.748 149.105 118.709 150.041 118.973 151.771C119.238 153.501 120.296 154.438 121.254 154.438C122.213 154.438 125.805 154.438 125.805 154.438C125.805 154.438 126.51 153.226 124.813 152.862C123.116 152.499 122.477 150.471 122.576 148.587C122.687 146.703 122.422 144.202 122.422 144.202L118.808 143.364L118.07 144.301Z" fill="#233862"/><path d="M154.893 84.4821C154.893 84.4821 140.525 115.212 132.89 128.699C125.243 142.185 122.852 145.943 122.852 145.943C122.852 145.943 118.478 144.213 118.07 143.045C118.07 143.045 120.99 117.008 126.113 110.662C129.011 107.081 132.405 96.3159 132.559 92.5476C132.713 88.7793 136.074 79.7993 136.074 79.7993L154.893 84.4821Z" fill="#2A4E96"/><path d="M159.091 85.9367C159.091 85.9367 153.384 89.7601 145.296 89.3964C141.748 89.2422 134.708 88.2395 133.573 85.4188C133.308 84.7577 133.507 83.9203 133.903 82.6201C134.939 79.2705 137.363 72.8799 136.636 58.7212C136.57 57.399 136.603 56.165 136.735 55.008C137.495 48.0334 141.495 43.9015 145.362 42.5462C154.783 39.2517 157.923 43.8133 157.923 43.8133C157.923 43.8133 162.088 47.1078 162.716 54.0053C163.962 67.7783 159.091 85.9367 159.091 85.9367Z" fill="#F99746"/><path d="M148.106 41.7527C148.106 41.7527 152.425 44.3861 157.119 43.6369C157.119 43.6369 158.045 43.4055 157.593 42.3147C157.879 41.4332 157.846 41.5103 158.012 40.8602C158.419 39.3617 158.552 38.4913 158.552 38.4913L155.885 35.6926L153.362 33.0151C152.668 39.4168 148.106 41.7527 148.106 41.7527Z" fill="#FFB27D"/><path d="M152.965 35.4502C152.965 35.4502 154.409 39.3177 158.012 40.8712C158.419 39.3727 158.695 37.7971 158.695 37.7971L155.896 35.7036L152.965 35.4502Z" fill="#ED985F"/><path d="M161.527 38.3592C161.527 38.3592 153.274 39.3949 152.69 34.3155C152.106 29.247 150.651 25.9635 155.896 25.0931C161.141 24.2226 162.386 26.0406 163.003 27.6934C163.62 29.3351 163.664 37.9625 161.527 38.3592Z" fill="#FFB27D"/><path d="M150.089 24.2664C150.023 24.1783 149.847 24.1012 149.472 24.0681C149.472 24.0681 149.781 23.8918 150.189 23.8918C150.288 23.3629 150.607 22.4374 151.533 22.2391C151.533 22.2391 151.026 22.4815 150.949 23.0434C152.051 21.9966 154.354 21.2915 160.612 22.0187C168.876 22.9883 165.945 28.189 164.843 28.784C163.741 29.379 161.108 27.5389 159.114 27.6271C157.108 27.7152 156.623 30.58 155.929 30.9546C155.235 31.3292 155.533 30.6351 154.629 30.1833C153.726 29.7316 153.582 31.2521 153.814 32.2438C154.045 33.2464 152.734 34.5025 152.734 34.5025C152.734 34.5025 152.734 34.5025 151.511 33.0812C150.288 31.6598 149.307 25.809 149.935 24.586C149.979 24.4868 150.034 24.3766 150.089 24.2664Z" fill="#2C3A64"/><path d="M175.3 32.3649L161.284 32.4861L161.196 30.3816L175.156 29.3018L175.3 32.3649Z" fill="#2A4E96"/><path d="M185.877 32.7178L170.617 32.9382L170.451 29.1038L185.657 27.9248L185.877 32.7178Z" fill="#2A4E96"/><path d="M196.157 33.015L183.299 33.026L183.068 27.8584L195.871 26.6904L196.157 33.015Z" fill="#233862"/><path d="M196.345 33.8857C196.741 33.8637 197.05 33.5331 197.028 33.1365L196.73 26.4924C196.708 26.0957 196.378 25.7872 195.981 25.8092C195.584 25.8313 195.276 26.1618 195.298 26.5585L195.595 33.2026C195.617 33.5992 195.948 33.9077 196.345 33.8857Z" fill="#233862"/><path d="M161.24 32.938C160.887 32.9491 160.59 32.6846 160.568 32.332L160.491 30.6021C160.48 30.2496 160.744 29.9521 161.097 29.93C161.449 29.919 161.747 30.1834 161.769 30.536L161.846 32.2659C161.868 32.6185 161.593 32.916 161.24 32.938Z" fill="#2A4E96"/><path d="M133.903 82.6202C134.939 79.2706 137.363 72.8799 136.636 58.7212C136.57 57.399 136.603 56.165 136.735 55.008C139.831 54.7436 144.58 58.0932 144.58 58.0932C144.58 58.0932 141.649 75.8879 133.903 82.6202Z" fill="#ED7D2B"/><path d="M148.106 41.7529C148.106 41.7529 140.151 43.1192 136.008 48.1877C131.865 53.2561 125.188 60.385 123.612 62.8862C122.037 65.3874 117.651 82.3998 117.651 82.3998C117.651 82.3998 117.938 82.9507 119.15 83.2702C120.307 83.5788 121.144 83.105 121.144 83.105C121.144 83.105 126.951 73.1774 129.132 68.2191C130.036 66.1587 145.726 57.994 151.632 58.8425C153.946 59.162 148.106 41.7529 148.106 41.7529Z" fill="#F99746"/><path d="M175.211 28.6958C175.211 28.6958 176.919 29.7426 177.944 29.3018C178.969 28.8611 178.88 28.4534 178.88 28.4534C178.88 28.4534 175.795 27.594 175.211 28.6958Z" fill="#FFB27D"/><path d="M155.819 47.2948C155.819 47.2948 152.326 69.3316 127.568 75.7443L124.868 81.0662L129.606 81.8706C129.606 81.8706 157.791 73.7059 157.417 46.9092L155.819 47.2948Z" fill="#BC3F3F"/><path d="M155.279 43.7803L154.144 43.8905V45.5542L155.819 47.2951L157.428 46.9095V44.6177L156.271 43.7803H155.279Z" fill="#A02E2E"/><path d="M150.795 39.4058C150.795 39.4058 149.693 39.6592 147.159 41.7527C147.159 41.7527 149.671 47.0966 154.982 47.7357C154.982 47.7357 154.893 45.2565 155.279 43.7911C155.279 43.7801 151.081 42.2816 150.795 39.4058Z" fill="#ED7D2B"/><path d="M155.279 43.7802C155.279 43.7802 157.868 45.1575 158.056 47.295C158.056 47.295 159.047 45.7304 158.761 44.6396C158.474 43.5488 157.582 42.3037 157.582 42.3037C157.582 42.3037 157.681 43.6259 155.279 43.7802Z" fill="#ED7D2B"/></g></svg>