<svg width="257" height="160" viewBox="0 0 257 160" fill="none" xmlns="http://www.w3.org/2000/svg"><g style="mix-blend-mode:luminosity"><path d="M21.0304 159.534C21.0304 159.534 -28.2514 83.9063 24.0666 63.2177C37.2446 58.0083 41.8468 -14.9343 100.376 21.5317C123.653 36.0307 157.179 18.4848 189.277 28.0727C218.754 36.883 219.436 62.3016 215.707 71.442C211.638 81.4347 227.873 93.3877 244.514 101.601C270.603 114.481 251.417 159.736 226.765 159.949C202.124 160.183 21.0304 159.534 21.0304 159.534Z" fill="#EBF3FA"/><path d="M230.345 134.253C220.544 129.033 212.554 152.79 208.825 144.694C205.097 136.597 201.155 125.198 193.218 129.033C185.282 132.869 182.086 147.676 176.014 145.013C169.941 142.35 146.078 150.159 152.15 159.47H217.241C217.241 159.47 240.146 139.474 230.345 134.253Z" fill="#A8D29F"/><path d="M123.674 77.8128L127.595 77.7276C126.338 79.3575 126.05 80.8703 126.838 82.138C127.627 83.4377 129.502 84.503 132.303 85.3127C130.183 79.6664 129.118 73.7113 129.118 67.5963C129.118 60.757 130.46 54.1094 133.102 47.8772C135.648 41.8475 139.303 36.4144 143.958 31.7696C148.613 27.1141 154.036 23.4601 160.066 20.9033C166.319 18.2613 172.956 16.9296 179.785 16.9296C186.624 16.9296 193.261 18.2719 199.515 20.9033C200.26 21.2229 201.006 21.5638 201.73 21.9047C201.73 21.9047 201.73 21.9047 201.741 21.9047C203.925 21.2442 206.045 20.6902 208.09 20.2747C218.424 18.1761 225.764 19.6249 228.747 24.3549C231.581 28.8506 230.036 35.626 224.411 43.5307C225.168 44.9369 225.849 46.3751 226.478 47.8666C226.957 48.9852 227.383 50.1038 227.767 51.2543C238.346 51.8828 244.002 53.7472 246.058 57.1136C248.455 61.034 245.185 66.3073 234.723 71.4209C233.285 72.124 231.741 72.8271 230.121 73.5195C229.578 78.2709 228.363 82.8837 226.478 87.3048C223.932 93.3345 220.278 98.7677 215.622 103.423C210.967 108.068 205.555 111.722 199.515 114.279C193.261 116.921 186.624 118.252 179.785 118.252C172.956 118.252 166.319 116.91 160.066 114.279C154.036 111.722 148.613 108.068 143.958 103.423C139.43 98.8955 135.84 93.6222 133.305 87.7842C128.149 86.7189 124.75 85.0463 123.397 82.8305C122.47 81.3177 122.588 79.6132 123.674 77.8128ZM135.776 86.1116C139.207 86.7295 143.5 87.0918 148.496 87.145C156.262 87.2409 165.179 86.623 174.575 85.3872C173.787 83.6614 173.009 81.893 172.253 80.0926C169.334 81.0727 166.511 81.8397 163.805 82.3937C160.716 83.0222 157.892 83.3312 155.368 83.3312C149.466 83.3312 145.236 81.6266 143.148 78.3135C142.807 77.7702 142.52 77.1842 142.307 76.577H145.322C145.375 76.6729 145.428 76.7581 145.481 76.8433C147.037 79.3042 150.499 80.5826 155.368 80.5826C157.701 80.5826 160.343 80.295 163.262 79.6984C165.797 79.1871 168.46 78.4626 171.209 77.5465C170.485 75.7354 169.781 73.8817 169.1 72.0068C167.267 66.9465 165.691 61.9288 164.423 57.1136C158.627 57.9658 152.417 58.392 145.812 58.392C141.7 58.392 137.438 58.2215 133.038 57.8913C132.389 61.0659 132.058 64.3045 132.058 67.5963C132.069 74.0202 133.315 80.2524 135.776 86.1116ZM198.481 111.232C199.941 110.699 200.686 108.601 201.049 106.928C201.624 104.286 201.73 100.589 201.347 96.2109C201.155 93.995 200.846 91.6513 200.431 89.1904C194.433 90.7884 188.488 92.8445 182.704 95.3267C184.003 97.5745 185.324 99.6625 186.645 101.548C189.16 105.149 191.61 107.919 193.74 109.581C195.104 110.625 197.022 111.765 198.481 111.232ZM181.393 92.983C187.444 90.3729 193.677 88.221 199.962 86.5484C199.738 85.4085 199.493 84.2473 199.238 83.0648C197.49 83.459 195.711 83.8425 193.922 84.2154C188.67 85.2914 183.428 86.2075 178.293 86.9426C179.305 89.0519 180.339 91.0654 181.393 92.983ZM192.76 82.3191C194.795 81.9036 196.787 81.4668 198.758 81.0088C197.831 77.1523 196.691 73.136 195.37 69.0452C188.467 73.2852 181.447 76.7368 174.81 79.187C175.641 81.1792 176.504 83.1181 177.377 84.9931C182.416 84.2793 187.572 83.3844 192.76 82.3191ZM209.614 30.3207C209.177 31.2263 208.57 32.3342 207.749 33.6019C204.266 38.9924 199.653 42.9022 196.404 45.2352C194.539 46.5775 192.547 47.8133 190.438 48.9532C192.366 53.1506 194.199 57.6356 195.892 62.291C196.212 63.154 196.51 64.0275 196.809 64.8904C206.887 58.328 215.43 50.7962 221.023 43.5094C219.617 41.1231 218.019 38.854 216.219 36.734C215.473 35.8604 214.706 35.0081 213.886 34.1878C213.769 34.0707 213.662 33.9641 213.555 33.8576C212.288 32.5899 210.977 31.418 209.614 30.3207ZM166.5 23.0552C165.041 23.5879 164.295 25.6866 163.933 27.3591C163.358 30.0011 163.251 33.6978 163.635 38.0763C164.05 42.8596 165.009 48.2927 166.436 54.0774C168.162 53.7791 169.845 53.4489 171.475 53.0654C177.132 51.7657 182.299 49.9866 186.901 47.7494C184.153 42.018 181.244 36.9044 178.336 32.739C175.822 29.1382 173.372 26.3684 171.241 24.7065C170.122 23.8436 168.631 22.9167 167.321 22.9167C167.033 22.9167 166.756 22.9594 166.5 23.0552ZM172.253 55.6328C170.58 56.0269 168.855 56.3679 167.097 56.6768C168.333 61.3323 169.856 66.1795 171.635 71.08C172.317 72.9656 173.031 74.8299 173.755 76.6516C180.424 74.2013 187.508 70.6964 194.465 66.3712C194.103 65.3166 193.73 64.2619 193.346 63.2072C191.695 58.6583 189.905 54.2798 188.03 50.1783C183.3 52.4688 178.027 54.3011 172.253 55.6328ZM146.046 33.8469C141.657 38.2361 138.216 43.339 135.808 49.0278C134.945 51.0625 134.242 53.1399 133.678 55.2493C144.682 56.0589 154.76 55.8032 163.773 54.4929C162.345 48.6549 161.376 43.1579 160.961 38.3C160.492 32.9414 160.556 26.5921 162.729 23.0126C162.228 23.2044 161.728 23.4068 161.227 23.6198C155.527 26.0275 150.424 29.4578 146.046 33.8469ZM179.785 19.8593C176.482 19.8593 173.222 20.1895 170.048 20.85C173.798 22.48 177.622 27.0289 180.531 31.1943C183.503 35.4556 186.475 40.6757 189.277 46.5136C191.173 45.4803 192.963 44.3723 194.635 43.1792C200.218 39.2268 203.552 35.0827 205.374 32.3022C206.343 30.8214 206.993 29.5643 207.409 28.6695C205.448 27.2739 203.392 26.0381 201.24 24.9515C200.367 24.5041 199.472 24.0992 198.566 23.7051C198.502 23.6731 198.439 23.6518 198.375 23.6198C198.364 23.6092 198.343 23.6092 198.332 23.5985C198.14 23.5133 197.949 23.4387 197.746 23.3535C197.693 23.3322 197.64 23.3109 197.586 23.2896C191.951 21.0205 185.953 19.8593 179.785 19.8593ZM226.425 25.8357C224.869 23.3748 221.407 22.0964 216.538 22.0964C214.205 22.0964 211.563 22.3841 208.644 22.9807C207.536 23.2044 206.407 23.4707 205.257 23.769C209.039 25.9529 212.511 28.6269 215.633 31.7696C216.293 32.4088 216.922 33.0799 217.54 33.7724C218.307 34.6246 219.042 35.5088 219.756 36.4144C220.885 37.8526 221.929 39.3653 222.898 40.8994C227.192 34.5287 228.481 29.1063 226.425 25.8357ZM223.783 49.0278C223.356 48.0477 222.92 47.0889 222.44 46.1514C216.549 53.5234 207.856 61.0553 197.704 67.5857C199.142 71.9642 200.367 76.2787 201.358 80.4015C208.74 78.6118 215.59 76.5877 221.588 74.4251C222.845 73.9776 224.07 73.5089 225.242 73.0508C225.935 72.7845 226.616 72.4968 227.288 72.2198C227.394 71.1865 227.469 70.1531 227.49 69.1091C227.501 68.6084 227.511 68.1184 227.511 67.6177C227.511 67.0424 227.501 66.4458 227.49 65.8705C227.319 61.5347 226.584 57.3053 225.306 53.2145C225.082 52.522 224.859 51.8402 224.603 51.1584C224.347 50.4234 224.081 49.7202 223.783 49.0278ZM232.39 69.9187C241.51 65.4657 245.675 61.1725 243.811 58.1256C242.309 55.6541 236.822 53.9815 228.438 53.3636C229.471 56.8366 230.1 60.4267 230.345 64.0701C230.42 65.1461 230.462 66.2327 230.473 67.33V67.6177C230.473 68.7149 230.43 69.8016 230.366 70.8882C231.069 70.5579 231.73 70.2383 232.39 69.9187ZM225.466 75.3839C224.23 75.8419 222.973 76.3107 221.673 76.7581C215.697 78.8248 209.007 80.7531 201.848 82.4576C202.103 83.6188 202.348 84.7587 202.572 85.8879C203.158 85.7494 203.744 85.6109 204.33 85.4725C214.227 83.214 221.663 82.7559 225.104 82.6813C225.956 80.1139 226.584 77.4825 226.979 74.7979C226.478 75.0003 225.966 75.1921 225.466 75.3839ZM223.783 86.1756C223.889 85.9199 223.996 85.6536 224.102 85.3979C219.915 85.5683 212.948 86.2608 204.82 88.1145C204.234 88.2529 203.637 88.3914 203.051 88.5299C203.499 91.14 203.829 93.6328 204.032 95.9872C204.415 100.43 204.447 105.554 203.201 109.208C206.972 107.088 210.434 104.456 213.534 101.356C217.934 96.9673 221.375 91.8644 223.783 86.1756ZM161.216 111.583C167.107 114.076 173.35 115.344 179.795 115.344C184.76 115.344 189.607 114.598 194.273 113.107C190.747 111.253 187.199 107.003 184.462 103.093C183.055 101.069 181.649 98.8422 180.254 96.424C172.242 100.057 164.529 104.51 157.285 109.709C158.553 110.39 159.874 111.019 161.216 111.583ZM146.046 101.356C148.688 103.998 151.586 106.3 154.728 108.238C162.335 102.677 170.463 97.9261 178.922 94.0696C177.761 91.939 176.61 89.6805 175.492 87.3368C167.747 88.3595 160.289 88.9774 153.493 89.1372C151.714 89.1904 149.998 89.1904 148.326 89.1798C143.99 89.1265 140.133 88.8708 136.82 88.4127C139.143 93.2067 142.243 97.5532 146.046 101.356Z" fill="#ADCBF9"/><path d="M190.768 13.9148L202.764 15.9496L194.912 10.2927L194.465 12.0292L191.525 12.4766L190.768 13.9148Z" fill="#456AA3"/><path d="M202.764 15.9496L192.878 10.5165L183.077 9.77073L202.764 15.9496Z" fill="#ADCBF9"/><path d="M194.912 10.2927L202.764 15.9496L196.798 7.27789L194.912 10.2927Z" fill="#ADCBF9"/><path d="M243.417 43.1578L232.071 47.5362L238.633 40.4305L239.422 42.0498L242.394 41.9113L243.417 43.1578Z" fill="#456AA3"/><path d="M232.071 47.5363L240.679 40.2495L250.128 37.5756L232.071 47.5363Z" fill="#ADCBF9"/><path d="M238.633 40.4305L232.071 47.5362L236.194 37.8525L238.633 40.4305Z" fill="#ADCBF9"/><path d="M123.088 86.1647L128.926 155.549C128.926 155.549 129.534 159.757 126.412 159.757C121.267 159.768 100.812 159.757 100.812 159.757C100.812 159.757 104.68 158.884 104.637 156.913C104.584 154.59 97.8189 85.5042 97.8189 85.5042L123.088 86.1647Z" fill="#D86713"/><path d="M124.708 158.5C119.701 158.564 100.163 158.5 99.1506 158.5C99.5341 158.5 102.474 158.426 102.89 156.22C102.922 156.05 102.943 155.858 102.943 155.656C102.943 155.219 102.698 152.481 102.315 148.294C101.974 144.544 101.505 139.633 100.983 134.211C98.9695 113.171 96.1144 84.2578 96.1144 84.2578L121.395 84.9183L125.539 134.221L126.348 143.841L127.073 152.502L127.222 154.303C127.222 154.281 127.936 158.457 124.708 158.5Z" fill="#EE9849"/><path d="M184.483 48.4098L170.271 105.5L168.322 113.32L161.706 139.91H38.7148L63.1214 48.4098H184.483Z" fill="#F1A34F"/><path d="M184.483 48.4097L186.454 49.0702L164.327 141.902L161.706 139.91L184.483 48.4097Z" fill="#EE9849"/><path d="M164.327 141.902H42.0919L38.7148 139.91H161.706L164.327 141.902Z" fill="#D86713"/><path d="M121.394 158.521H94.9319V159.778H121.394V158.521Z" fill="#F1A34F"/><path d="M126.508 141.86L126.338 143.831L126.327 143.905C126.327 143.905 109.133 145.556 102.293 148.294C102.123 146.409 101.92 144.246 101.697 141.86H126.508Z" fill="#D86713"/><path opacity="0.4" d="M124.708 158.5C119.701 158.564 100.163 158.5 99.1506 158.5C99.5341 158.5 102.474 158.426 102.89 156.22C104.903 156.327 116.089 156.678 127.083 152.492L127.232 154.292C127.222 154.281 127.936 158.457 124.708 158.5Z" fill="#D86713"/><path opacity="0.4" d="M166.021 121.949L161.546 139.91H120.137C137.641 134.349 145.929 126.21 149.274 121.949H166.021Z" fill="#D86713"/><path d="M183.556 49.6241L166.021 121.949H44.9789L64.6341 49.6241H183.556Z" fill="#D2E4FF"/><path d="M43.4768 121.949H44.9789L44.6807 123.057L43.2318 122.886L43.4768 121.949Z" fill="#F1A34F"/><path d="M184.675 48.4097V49.6241H183.556L183.844 48.4097H184.675Z" fill="#F1A34F"/><path d="M65.6355 116.601H110.741L125.858 55.9629H80.7525L65.6355 116.601Z" fill="white"/><g opacity="0.5"><path d="M81.5515 83.9061H111.434C111.807 83.9061 112.179 83.6078 112.275 83.235L112.339 82.9793C112.435 82.6064 112.201 82.3081 111.839 82.3081H81.9563C81.5834 82.3081 81.2106 82.6064 81.1147 82.9793L81.0508 83.235C80.9549 83.6078 81.1786 83.9061 81.5515 83.9061Z" fill="#699DEE"/><path d="M84.2148 73.2422H114.097C114.47 73.2422 114.843 72.944 114.939 72.5711L115.003 72.3154C115.098 71.9425 114.864 71.6443 114.502 71.6443H84.609C84.2361 71.6443 83.8632 71.9425 83.7674 72.3154L83.7034 72.5711C83.6182 72.944 83.8419 73.2422 84.2148 73.2422Z" fill="#699DEE"/><path d="M83.288 76.9496H113.17C113.543 76.9496 113.916 76.6513 114.012 76.2784L114.076 76.0227C114.172 75.6499 113.937 75.3516 113.575 75.3516H83.6928C83.3199 75.3516 82.9471 75.6499 82.8512 76.0227L82.7873 76.2784C82.6914 76.6513 82.9151 76.9496 83.288 76.9496Z" fill="#699DEE"/><path d="M82.4251 80.4332H112.307C112.68 80.4332 113.053 80.1349 113.149 79.762L113.213 79.5063C113.309 79.1335 113.074 78.8352 112.712 78.8352H82.8299C82.457 78.8352 82.0842 79.1335 81.9883 79.5063L81.9244 79.762C81.8178 80.1242 82.0522 80.4332 82.4251 80.4332Z" fill="#699DEE"/><path d="M79.783 91.0012H109.665C110.038 91.0012 110.411 90.7029 110.507 90.33L110.571 90.0743C110.667 89.7015 110.432 89.4032 110.07 89.4032H80.1879C79.815 89.4032 79.4421 89.7015 79.3463 90.0743L79.2823 90.33C79.1865 90.6922 79.4102 91.0012 79.783 91.0012Z" fill="#699DEE"/><path d="M80.6566 87.5176H110.539C110.912 87.5176 111.285 87.2193 111.381 86.8464L111.444 86.5907C111.54 86.2179 111.306 85.9196 110.944 85.9196H81.0614C80.6886 85.9196 80.3157 86.2179 80.2198 86.5907L80.1559 86.8464C80.0494 87.2193 80.2837 87.5176 80.6566 87.5176Z" fill="#699DEE"/><path d="M77.1836 101.931H84.4385C84.8753 101.931 85.3227 101.569 85.4399 101.132C85.5464 100.696 85.2801 100.333 84.8433 100.333H77.5884C77.1517 100.333 76.7042 100.696 76.587 101.132C76.4699 101.569 76.7468 101.931 77.1836 101.931Z" fill="#699DEE"/><path d="M99.4169 101.931H106.672C107.109 101.931 107.556 101.569 107.673 101.132C107.78 100.696 107.513 100.333 107.077 100.333H99.8217C99.3849 100.333 98.9375 100.696 98.8203 101.132C98.7031 101.569 98.9801 101.931 99.4169 101.931Z" fill="#699DEE"/></g><path d="M83.4264 110.539H72.8371C72.5601 110.539 72.3151 110.433 72.166 110.23C72.0062 110.028 71.9529 109.751 72.0275 109.463L72.7945 106.406C72.9436 105.831 73.5296 105.351 74.1155 105.351H84.7048C84.9818 105.351 85.2268 105.458 85.3759 105.66C85.5357 105.863 85.589 106.14 85.5144 106.427L84.7474 109.485C84.5983 110.071 84.0123 110.539 83.4264 110.539ZM74.1155 105.436C73.5722 105.436 73.0182 105.884 72.8797 106.427L72.1127 109.485C72.0488 109.751 72.0914 109.996 72.2299 110.177C72.3684 110.348 72.5814 110.454 72.8371 110.454H83.4264C83.9697 110.454 84.5237 110.007 84.6622 109.463L85.4292 106.406C85.4931 106.14 85.4505 105.895 85.312 105.713C85.1735 105.543 84.9605 105.436 84.7048 105.436H74.1155Z" fill="#476BA7"/><path d="M105.702 110.539H95.113C94.836 110.539 94.591 110.433 94.4418 110.23C94.282 110.028 94.2288 109.751 94.3033 109.463L95.0704 106.406C95.2195 105.831 95.8054 105.351 96.3914 105.351H106.981C107.258 105.351 107.503 105.458 107.652 105.66C107.812 105.863 107.865 106.14 107.79 106.427L107.023 109.485C106.874 110.071 106.278 110.539 105.702 110.539ZM96.3914 105.436C95.8481 105.436 95.2941 105.884 95.1556 106.427L94.3886 109.485C94.3247 109.751 94.3673 109.996 94.5058 110.177C94.6443 110.348 94.8573 110.454 95.113 110.454H105.702C106.246 110.454 106.8 110.007 106.938 109.463L107.705 106.406C107.769 106.14 107.726 105.895 107.588 105.713C107.449 105.543 107.236 105.436 106.981 105.436H96.3914Z" fill="#476BA7"/><path d="M86.388 62.1524C86.7502 61.0551 87.8688 60.1602 89.0513 60.1602C89.7757 60.1602 90.0953 60.4372 90.3404 60.7888L89.6372 61.3747C89.4242 61.1084 89.2324 60.9486 88.785 60.9486C88.1351 60.9486 87.4853 61.4919 87.2722 62.163C87.0592 62.8235 87.3361 63.3775 87.9966 63.3775C88.4334 63.3775 88.7637 63.1964 89.1578 62.9301L89.5094 63.5054C88.9767 63.9315 88.4547 64.1658 87.709 64.1658C86.5798 64.1552 86.0151 63.271 86.388 62.1524Z" fill="#476BA7"/><path d="M90.3404 62.1525C90.7026 61.0552 91.8638 60.1604 93.0463 60.1604C94.2394 60.1604 94.8041 61.0446 94.4312 62.1525C94.069 63.2498 92.9078 64.1447 91.7253 64.1447C90.5428 64.1447 89.9782 63.2604 90.3404 62.1525ZM93.5576 62.1525C93.7707 61.492 93.4724 60.938 92.7906 60.938C92.1088 60.938 91.4589 61.4814 91.2352 62.1525C91.0222 62.813 91.3205 63.367 92.0023 63.367C92.6841 63.367 93.3339 62.8237 93.5576 62.1525Z" fill="#476BA7"/><path d="M95.8268 60.2243H96.6044L97.6378 62.6L98.4155 60.2243H99.2571L97.9894 64.0808H97.2649L96.1996 61.6305L95.4006 64.0808H94.559L95.8268 60.2243Z" fill="#476BA7"/><path d="M100.823 61.0126H99.6513L99.907 60.2349H103.103L102.847 61.0126H101.675L100.663 64.0914H99.8111L100.823 61.0126Z" fill="#476BA7"/><path d="M103.753 60.2243H105.511C106.001 60.2243 106.331 60.3628 106.501 60.6185C106.65 60.8315 106.661 61.1405 106.544 61.5133C106.341 62.1312 105.873 62.5254 105.329 62.7065L105.819 64.0808H104.829L104.392 62.845H103.731L103.327 64.0808H102.474L103.753 60.2243ZM104.839 62.0993C105.255 62.0993 105.564 61.8755 105.67 61.5453C105.788 61.1831 105.596 60.9913 105.18 60.9913H104.339L103.976 62.0993H104.839Z" fill="#476BA7"/><path d="M109.069 60.203H109.846L110.23 64.0914H109.346L109.282 63.2285H107.652L107.013 64.0914H106.15L109.069 60.203ZM109.218 62.4721L109.111 61.2257L108.185 62.4721H109.218Z" fill="#476BA7"/><path d="M111.04 62.1525C111.402 61.0552 112.52 60.1604 113.703 60.1604C114.427 60.1604 114.747 60.4373 114.992 60.7889L114.289 61.3748C114.076 61.1085 113.884 60.9487 113.437 60.9487C112.787 60.9487 112.137 61.492 111.924 62.1632C111.711 62.8237 111.988 63.3776 112.648 63.3776C113.085 63.3776 113.415 63.1965 113.809 62.9302L114.161 63.5055C113.628 63.9316 113.106 64.166 112.361 64.166C111.221 64.1553 110.667 63.2711 111.04 62.1525Z" fill="#476BA7"/><path d="M116.547 61.0126H115.375L115.631 60.2349H118.827L118.571 61.0126H117.4L116.387 64.0914H115.535L116.547 61.0126Z" fill="#476BA7"/><path d="M107.993 104.946C106.384 105.607 104.786 106.342 103.209 107.12C103.273 106.939 103.327 106.768 103.38 106.587C103.422 106.448 103.231 106.353 103.114 106.502C103.06 106.576 103.007 106.64 102.943 106.704C102.986 106.576 102.837 106.502 102.698 106.598C102.687 106.608 102.677 106.608 102.677 106.619C102.741 106.448 102.474 106.417 102.368 106.587L102.219 106.832C102.091 106.981 101.92 107.098 101.739 107.152C101.707 107.066 101.675 106.981 101.665 106.885C101.654 106.811 101.601 106.768 101.537 106.768C101.537 106.683 101.452 106.63 101.334 106.683C101.196 106.747 101.068 106.843 100.972 106.949C100.898 106.8 100.642 106.907 100.503 107.045C100.503 107.034 100.514 107.024 100.514 107.024C100.578 106.885 100.461 106.725 100.301 106.864C100.013 107.109 99.811 107.418 99.7045 107.727C99.6086 107.833 99.5128 107.929 99.4062 108.025C99.353 108.068 99.1079 108.302 99.0547 108.281C99.0014 108.26 99.0334 108.121 99.0547 108.025C99.0653 108.015 99.076 108.004 99.076 107.993C99.2784 107.706 100.258 106.374 99.566 106.385C99.4915 106.385 99.4169 106.438 99.3743 106.502C99.1186 106.896 98.9268 107.301 98.8096 107.716C98.7883 107.791 98.7564 107.897 98.7244 108.004C98.7031 108.036 98.6818 108.057 98.6605 108.089C98.3835 108.451 98 108.973 97.5632 109.144C97.5206 108.579 97.8082 107.908 98.0213 107.322C98.1172 107.066 98.2131 106.811 98.3089 106.555C98.3409 106.544 98.3729 106.534 98.4048 106.502C98.8842 106.097 99.0866 105.49 98.8629 105.096C98.799 104.978 98.6072 105.085 98.554 105.213C98.2237 105.958 97.9254 106.704 97.6484 107.45C97.4141 108.11 97.1371 108.814 97.2436 109.431C97.2543 109.495 97.3288 109.517 97.4034 109.506C97.9148 109.399 98.3516 108.941 98.7138 108.494C98.7351 108.547 98.7883 108.6 98.8522 108.622C99.0866 108.696 99.4169 108.43 99.6406 108.206C99.6406 108.281 99.6619 108.355 99.6832 108.43C99.7045 108.505 99.7897 108.526 99.8856 108.483C100.109 108.398 100.312 108.249 100.482 108.078C100.717 108.004 100.908 107.823 101.079 107.599C101.185 107.503 101.281 107.407 101.377 107.301C101.398 107.354 101.42 107.407 101.462 107.45C101.548 107.546 101.771 107.461 101.91 107.397C102.048 107.333 102.165 107.258 102.272 107.152C102.357 107.141 102.442 107.12 102.528 107.088C102.538 107.109 102.56 107.13 102.592 107.152C102.677 107.205 102.783 107.184 102.879 107.12C102.858 107.184 102.837 107.247 102.805 107.311C102.57 107.429 102.347 107.546 102.112 107.663C101.963 107.738 101.92 107.972 102.091 107.961C102.304 107.94 102.517 107.929 102.73 107.908C102.826 107.897 102.9 107.844 102.943 107.748C102.986 107.663 103.018 107.578 103.05 107.493C104.701 106.662 106.373 105.905 108.057 105.202C108.28 105.138 108.206 104.861 107.993 104.946ZM100.621 107.386C100.61 107.429 100.589 107.471 100.567 107.514C100.557 107.546 100.535 107.578 100.525 107.599C100.546 107.524 100.578 107.45 100.621 107.386ZM100.163 107.78C100.141 107.865 100.12 107.961 100.152 108.025C100.099 108.068 100.045 108.1 99.9922 108.132C99.9815 108.036 99.9921 107.94 100.013 107.833C100.088 107.748 100.152 107.663 100.216 107.567C100.195 107.642 100.173 107.706 100.163 107.78Z" fill="#365DA2"/><path d="M78.4087 103.966C77.8441 105.021 77.5245 106.108 77.0558 107.184C76.832 107.706 76.5657 108.228 76.2248 108.718C75.9798 109.059 75.4578 109.804 75.021 109.644C74.9145 109.602 74.8825 109.506 74.9145 109.378C74.9251 109.346 74.9358 109.325 74.9464 109.293C74.9997 109.325 75.0849 109.314 75.1808 109.261C75.3193 109.186 75.4471 109.037 75.511 108.899C75.575 108.75 75.5643 108.6 75.4471 108.537C75.3406 108.483 75.1915 108.526 75.0849 108.643C74.9677 108.76 74.9145 108.909 74.8506 109.048C74.776 109.218 74.6801 109.399 74.6908 109.559C74.7121 109.804 74.9677 109.889 75.2234 109.836C75.5324 109.772 75.8093 109.495 76.0224 109.25C76.2674 108.952 76.4911 108.643 76.6829 108.323C77.0664 107.674 77.3434 107.002 77.5991 106.331C77.8974 105.554 78.1744 104.776 78.5792 104.02C78.6538 103.892 78.4727 103.838 78.4087 103.966ZM75.33 108.771C75.3513 108.845 75.2767 108.941 75.2128 109.016C75.1915 109.037 75.1702 109.059 75.1488 109.08C75.1382 109.09 75.1169 109.101 75.0956 109.112C75.0849 109.112 75.0849 109.112 75.0849 109.112C75.0743 109.09 75.053 109.08 75.021 109.08C75.0423 109.027 75.0743 108.973 75.0956 108.92C75.1382 108.835 75.2873 108.611 75.33 108.771Z" fill="#365DA2"/><path d="M82.2225 107.269C82.1054 107.333 81.9775 107.397 81.8603 107.418C81.8284 107.418 81.7964 107.429 81.7645 107.418C81.8497 107.333 81.9349 107.237 81.9456 107.141C81.9669 106.992 81.7964 106.949 81.6579 107.034C81.5301 107.109 81.4449 107.248 81.4342 107.365C81.4342 107.407 81.4342 107.439 81.4555 107.471C81.3277 107.556 81.1253 107.684 80.9868 107.663C81.1572 107.546 81.3064 107.407 81.4129 107.237C81.4342 107.205 81.4342 107.162 81.4236 107.141C81.349 107.045 81.1998 107.034 81.0613 107.109C80.9122 107.184 80.8057 107.343 80.7524 107.482C80.7311 107.525 80.7205 107.578 80.7098 107.62C80.5607 107.684 80.4008 107.727 80.2517 107.727C80.305 107.684 80.3476 107.642 80.3902 107.588C80.4648 107.514 80.4222 107.45 80.3582 107.439C80.2091 107.418 80.1026 107.546 80.06 107.674C79.8362 107.876 79.5912 108.057 79.3355 108.196C79.2716 108.228 79.1864 108.313 79.1438 108.26C79.2503 108.185 79.3462 108.089 79.4421 108.004C79.6125 107.823 79.7936 107.493 79.5806 107.375C79.5486 107.354 79.474 107.354 79.4314 107.407C79.3355 107.525 79.2503 107.652 79.1544 107.77C79.0799 107.876 78.9946 107.983 78.9414 108.1C78.9307 108.132 78.9201 108.174 78.9094 108.217C78.8135 108.27 78.7176 108.324 78.6218 108.366C78.6111 108.366 78.6005 108.377 78.6005 108.377C78.6537 108.334 78.707 108.292 78.7603 108.249C78.9094 108.132 79.0479 107.983 79.0585 107.812C79.0692 107.652 78.9627 107.546 78.8668 107.45C78.8455 107.429 78.7816 107.439 78.739 107.461C78.4513 107.684 78.2063 107.983 78.0891 108.292C78.0465 108.387 78.0358 108.494 78.0784 108.569C77.8228 108.771 77.5564 108.963 77.2901 109.144C77.2581 109.165 77.1942 109.229 77.1623 109.218C77.141 109.208 77.1516 109.154 77.1516 109.123C77.1516 109.048 77.1516 108.973 77.1623 108.899C77.1836 108.739 77.2262 108.569 77.2795 108.398C77.3327 108.249 77.3966 108.11 77.4819 107.972C77.5138 107.983 77.5564 107.983 77.5884 107.951C77.7908 107.791 77.8867 107.578 77.8654 107.375C77.8547 107.301 77.7482 107.311 77.6949 107.375C77.2049 107.94 76.9066 108.632 76.9386 109.229C76.9492 109.368 77.0025 109.474 77.1836 109.399C77.2688 109.368 77.3434 109.304 77.4179 109.25C77.5138 109.186 77.6097 109.112 77.7056 109.037C77.8867 108.909 78.0678 108.771 78.2489 108.632C78.3448 108.632 78.462 108.601 78.5685 108.558C78.6963 108.515 78.8135 108.451 78.9307 108.387C78.9627 108.451 79.0266 108.483 79.1225 108.483C79.2183 108.473 79.3568 108.377 79.4421 108.324C79.5486 108.26 79.6551 108.185 79.7617 108.121C79.8575 108.047 79.9534 107.972 80.0493 107.897C80.0706 107.929 80.1132 107.94 80.1771 107.94C80.2624 107.94 80.3582 107.929 80.4541 107.908C80.55 107.887 80.6565 107.855 80.7524 107.802C80.7631 107.812 80.7844 107.823 80.8057 107.833C80.9122 107.887 81.0614 107.865 81.1998 107.812C81.3277 107.759 81.4555 107.695 81.5727 107.599C81.6047 107.61 81.6473 107.62 81.6792 107.631C81.8603 107.652 82.0734 107.556 82.2545 107.45C82.393 107.375 82.3504 107.205 82.2225 107.269ZM78.3448 108.164C78.4407 107.972 78.5898 107.802 78.7603 107.652C78.8348 107.738 78.8987 107.844 78.8029 107.972C78.7496 108.047 78.6644 108.1 78.5898 108.164C78.5046 108.228 78.43 108.292 78.3448 108.355C78.3235 108.377 78.3022 108.387 78.2809 108.409C78.2489 108.355 78.3128 108.228 78.3448 108.164ZM79.4634 107.642C79.4421 107.748 79.3142 107.876 79.2503 107.951C79.2396 107.961 79.229 107.972 79.2077 107.993C79.2823 107.865 79.3675 107.759 79.4634 107.642ZM81.1892 107.248C81.1146 107.333 81.0294 107.418 80.9335 107.482C80.9868 107.375 81.1146 107.248 81.1892 107.248ZM81.6686 107.248C81.6792 107.226 81.7325 107.162 81.7325 107.205C81.7325 107.226 81.6899 107.269 81.6473 107.301C81.6473 107.29 81.6579 107.269 81.6686 107.248Z" fill="#365DA2"/><path d="M128.916 84.9929H150.51L157.743 55.9629H136.149L128.916 84.9929Z" fill="white"/><g opacity="0.5"><path d="M137.46 64.1767H151.767C151.948 64.1767 152.129 64.0276 152.172 63.8571L152.204 63.7399C152.246 63.5588 152.14 63.4203 151.959 63.4203H137.651C137.47 63.4203 137.289 63.5695 137.246 63.7399L137.215 63.8571C137.172 64.0382 137.289 64.1767 137.46 64.1767Z" fill="#699DEE"/><path d="M138.738 59.0738H153.045C153.226 59.0738 153.407 58.9247 153.45 58.7542L153.482 58.637C153.525 58.4559 153.418 58.3174 153.237 58.3174H138.93C138.749 58.3174 138.567 58.4666 138.525 58.637L138.493 58.7542C138.45 58.9247 138.557 59.0738 138.738 59.0738Z" fill="#699DEE"/><path d="M138.291 60.8423H152.598C152.779 60.8423 152.96 60.6931 153.003 60.5227L153.035 60.4055C153.077 60.2244 152.971 60.0859 152.79 60.0859H138.482C138.301 60.0859 138.12 60.235 138.077 60.4055L138.045 60.5227C138.003 60.7038 138.12 60.8423 138.291 60.8423Z" fill="#699DEE"/><path d="M137.875 62.5148H152.182C152.363 62.5148 152.544 62.3657 152.587 62.1952L152.619 62.078C152.662 61.8969 152.555 61.7584 152.374 61.7584H138.067C137.886 61.7584 137.705 61.9076 137.662 62.078L137.63 62.1952C137.587 62.3657 137.705 62.5148 137.875 62.5148Z" fill="#699DEE"/><path d="M136.618 67.5751H150.925C151.106 67.5751 151.287 67.426 151.33 67.2555L151.362 67.1383C151.405 66.9572 151.298 66.8187 151.117 66.8187H136.81C136.629 66.8187 136.447 66.9679 136.405 67.1383L136.373 67.2555C136.33 67.426 136.437 67.5751 136.618 67.5751Z" fill="#699DEE"/><path d="M137.033 65.9026H151.341C151.522 65.9026 151.703 65.7534 151.745 65.583L151.777 65.4658C151.82 65.2847 151.714 65.1462 151.532 65.1462H137.225C137.044 65.1462 136.863 65.2953 136.82 65.4658L136.788 65.583C136.746 65.7641 136.852 65.9026 137.033 65.9026Z" fill="#699DEE"/><path d="M134.445 77.9725H137.918C138.131 77.9725 138.344 77.8021 138.397 77.589C138.45 77.376 138.322 77.2055 138.109 77.2055H134.636C134.423 77.2055 134.21 77.376 134.157 77.589C134.104 77.8021 134.232 77.9725 134.445 77.9725Z" fill="#699DEE"/><path d="M145.087 77.9725H148.56C148.773 77.9725 148.986 77.8021 149.04 77.589C149.093 77.376 148.965 77.2055 148.752 77.2055H145.279C145.066 77.2055 144.853 77.376 144.8 77.589C144.746 77.8021 144.874 77.9725 145.087 77.9725Z" fill="#699DEE"/></g><path d="M137.428 82.0952H132.357C132.218 82.0952 132.112 82.042 132.037 81.9461C131.962 81.8502 131.941 81.7224 131.973 81.5732L132.335 80.1031C132.399 79.8261 132.687 79.6024 132.964 79.6024H138.035C138.173 79.6024 138.28 79.6557 138.354 79.7515C138.429 79.8474 138.45 79.9753 138.418 80.1244L138.056 81.5945C137.992 81.8715 137.705 82.0952 137.428 82.0952ZM132.975 79.6557C132.719 79.6557 132.453 79.8687 132.389 80.1244L132.026 81.5945C131.994 81.7224 132.016 81.8396 132.08 81.9248C132.144 82.01 132.25 82.0526 132.367 82.0526H137.438C137.694 82.0526 137.96 81.8396 138.024 81.5839L138.386 80.1138C138.418 79.9859 138.397 79.8687 138.333 79.7835C138.269 79.6983 138.163 79.6557 138.045 79.6557H132.975Z" fill="#476BA7"/><path d="M148.091 82.0952H143.021C142.882 82.0952 142.776 82.042 142.701 81.9461C142.626 81.8502 142.605 81.7224 142.637 81.5732L142.999 80.1031C143.074 79.8261 143.351 79.6024 143.628 79.6024H148.699C148.837 79.6024 148.944 79.6557 149.018 79.7515C149.093 79.8474 149.114 79.9753 149.082 80.1244L148.72 81.5945C148.656 81.8715 148.368 82.0952 148.091 82.0952ZM143.638 79.6557C143.383 79.6557 143.116 79.8687 143.052 80.1244L142.69 81.5945C142.658 81.7224 142.68 81.8396 142.744 81.9248C142.807 82.01 142.914 82.0526 143.031 82.0526H148.102C148.358 82.0526 148.624 81.8396 148.688 81.5839L149.05 80.1138C149.082 79.9859 149.061 79.8687 148.997 79.7835C148.933 79.6983 148.827 79.6557 148.709 79.6557H143.638Z" fill="#476BA7"/><path d="M149.189 79.4213C148.422 79.7409 147.655 80.0924 146.898 80.4653C146.93 80.3801 146.952 80.2948 146.984 80.2096C147.005 80.1457 146.909 80.0924 146.856 80.167C146.834 80.199 146.802 80.2309 146.77 80.2629C146.792 80.199 146.717 80.167 146.653 80.2096L146.643 80.2203C146.675 80.135 146.547 80.1244 146.493 80.2096L146.419 80.3268C146.355 80.4014 146.28 80.4546 146.185 80.4759C146.163 80.4333 146.153 80.3907 146.153 80.3481C146.153 80.3161 146.121 80.2948 146.089 80.2948C146.089 80.2522 146.046 80.2309 145.993 80.2522C145.929 80.2842 145.865 80.3268 145.822 80.3801C145.78 80.3055 145.663 80.3587 145.599 80.4227C145.599 80.4227 145.599 80.412 145.609 80.412C145.641 80.3481 145.588 80.2735 145.503 80.3374C145.364 80.4546 145.268 80.6038 145.215 80.7529C145.172 80.8062 145.119 80.8488 145.066 80.8914C145.045 80.9127 144.927 81.0192 144.895 81.0086C144.874 80.9979 144.885 80.934 144.895 80.8808C144.895 80.8701 144.906 80.8701 144.906 80.8595C145.002 80.721 145.471 80.0818 145.14 80.0924C145.109 80.0924 145.066 80.1137 145.045 80.1457C144.927 80.3374 144.832 80.5292 144.768 80.721C144.757 80.7636 144.746 80.8062 144.725 80.8595C144.714 80.8701 144.704 80.8808 144.693 80.9021C144.565 81.0725 144.384 81.3282 144.16 81.4134C144.139 81.1471 144.278 80.8275 144.384 80.5399C144.427 80.4227 144.48 80.2948 144.523 80.1777C144.533 80.1777 144.555 80.167 144.565 80.1563C144.8 79.9646 144.885 79.677 144.789 79.4852C144.757 79.4319 144.672 79.4852 144.64 79.5385C144.48 79.89 144.342 80.2522 144.203 80.6144C144.086 80.934 143.958 81.2643 144.011 81.5626C144.011 81.5945 144.054 81.6052 144.086 81.5945C144.331 81.5413 144.544 81.3282 144.714 81.1045C144.725 81.1364 144.746 81.1577 144.778 81.1684C144.895 81.2004 145.045 81.0725 145.162 80.966C145.162 80.998 145.172 81.0406 145.183 81.0725C145.194 81.1045 145.236 81.1151 145.279 81.1045C145.386 81.0619 145.481 80.998 145.567 80.9127C145.673 80.8808 145.769 80.7849 145.854 80.6783C145.908 80.6357 145.95 80.5825 145.993 80.5399C146.003 80.5718 146.014 80.5931 146.035 80.6144C146.078 80.657 146.185 80.6144 146.248 80.5931C146.312 80.5612 146.376 80.5292 146.419 80.4759C146.461 80.4759 146.504 80.4653 146.536 80.444C146.547 80.4546 146.557 80.4653 146.568 80.4759C146.611 80.5079 146.653 80.4972 146.707 80.4653C146.696 80.4972 146.685 80.5292 146.675 80.5612C146.568 80.6144 146.451 80.6783 146.344 80.7316C146.27 80.7742 146.259 80.8808 146.334 80.8701C146.43 80.8595 146.536 80.8594 146.632 80.8488C146.675 80.8488 146.717 80.8168 146.738 80.7742C146.76 80.7316 146.77 80.689 146.792 80.657C147.58 80.2629 148.379 79.89 149.189 79.5598C149.327 79.5065 149.295 79.3787 149.189 79.4213ZM145.663 80.5825C145.652 80.6038 145.652 80.6251 145.641 80.6464C145.631 80.657 145.631 80.6783 145.62 80.689C145.631 80.657 145.641 80.6144 145.663 80.5825ZM145.439 80.7742C145.428 80.8168 145.417 80.8595 145.439 80.8914C145.417 80.9127 145.386 80.9234 145.364 80.9447C145.364 80.9021 145.364 80.8488 145.375 80.8062C145.407 80.7636 145.439 80.721 145.471 80.6783C145.46 80.6997 145.449 80.7423 145.439 80.7742Z" fill="#365DA2"/><path d="M135.031 78.9419C134.754 79.4532 134.604 79.9646 134.381 80.4759C134.274 80.721 134.146 80.9767 133.976 81.211C133.859 81.3708 133.614 81.733 133.401 81.6585C133.347 81.6372 133.337 81.5945 133.347 81.5306C133.347 81.52 133.358 81.4987 133.358 81.488C133.39 81.5093 133.422 81.4987 133.465 81.4774C133.528 81.4454 133.592 81.3708 133.624 81.3069C133.656 81.243 133.656 81.1684 133.592 81.1365C133.539 81.1045 133.475 81.1365 133.422 81.1897C133.369 81.243 133.337 81.3176 133.315 81.3815C133.283 81.4667 133.23 81.5519 133.241 81.6265C133.252 81.7437 133.379 81.7863 133.497 81.7543C133.646 81.7224 133.784 81.5945 133.88 81.4667C133.997 81.3282 134.104 81.1791 134.2 81.0193C134.381 80.7103 134.519 80.3801 134.636 80.0605C134.775 79.6876 134.913 79.3148 135.105 78.9525C135.137 78.9099 135.063 78.8886 135.031 78.9419ZM133.55 81.243C133.56 81.2749 133.528 81.3282 133.497 81.3602C133.486 81.3708 133.475 81.3815 133.465 81.3921C133.454 81.4028 133.454 81.4028 133.443 81.4028H133.433C133.422 81.3921 133.411 81.3921 133.401 81.3815C133.411 81.3495 133.422 81.3282 133.433 81.3069C133.465 81.2749 133.528 81.1684 133.55 81.243Z" fill="#365DA2"/><path d="M136.852 80.5292C136.799 80.5611 136.735 80.5931 136.682 80.6037C136.671 80.6037 136.65 80.6037 136.639 80.6037C136.682 80.5611 136.714 80.5185 136.724 80.4652C136.735 80.3907 136.65 80.38 136.586 80.412C136.522 80.4439 136.49 80.5185 136.479 80.5718C136.479 80.5931 136.479 80.6037 136.49 80.625C136.426 80.6676 136.33 80.7316 136.266 80.7103C136.341 80.657 136.415 80.5824 136.469 80.5079C136.479 80.4972 136.479 80.4759 136.469 80.4652C136.437 80.4226 136.362 80.412 136.298 80.4546C136.224 80.4972 136.181 80.5611 136.149 80.6357C136.139 80.657 136.128 80.6783 136.128 80.6996C136.053 80.7316 135.979 80.7529 135.904 80.7529C135.925 80.7316 135.947 80.7103 135.968 80.6889C136 80.657 135.979 80.625 135.947 80.6144C135.872 80.6037 135.83 80.6676 135.808 80.7209C135.702 80.8168 135.585 80.902 135.457 80.9766C135.425 80.9979 135.382 81.0299 135.361 81.0085C135.414 80.9659 135.457 80.934 135.499 80.8807C135.585 80.7955 135.67 80.6357 135.563 80.5824C135.542 80.5718 135.51 80.5718 135.489 80.6037C135.446 80.657 135.403 80.7209 135.361 80.7742C135.318 80.8274 135.286 80.8701 135.265 80.934C135.254 80.9553 135.254 80.9659 135.254 80.9872C135.212 81.0192 135.158 81.0405 135.116 81.0618H135.105C135.126 81.0405 135.158 81.0192 135.18 80.9979C135.254 80.9446 135.318 80.8701 135.318 80.7848C135.318 80.7103 135.276 80.657 135.222 80.6144C135.212 80.6037 135.18 80.6037 135.158 80.625C135.02 80.7316 134.903 80.8701 134.849 81.0192C134.828 81.0618 134.828 81.1151 134.849 81.147C134.722 81.2429 134.604 81.3388 134.477 81.424C134.466 81.4347 134.434 81.4666 134.413 81.456C134.402 81.456 134.402 81.424 134.402 81.4134C134.402 81.3814 134.402 81.3388 134.413 81.3068C134.423 81.2323 134.445 81.147 134.466 81.0725C134.487 80.9979 134.519 80.934 134.562 80.8701C134.572 80.8807 134.594 80.8701 134.615 80.8594C134.711 80.7848 134.754 80.6783 134.754 80.5824C134.754 80.5505 134.7 80.5505 134.668 80.5824C134.434 80.8487 134.295 81.179 134.306 81.4773C134.306 81.5412 134.338 81.5945 134.423 81.5625C134.466 81.5412 134.498 81.5199 134.53 81.4879C134.572 81.456 134.626 81.424 134.668 81.3921C134.754 81.3282 134.839 81.2642 134.924 81.2003C134.967 81.2003 135.031 81.179 135.073 81.1683C135.137 81.147 135.19 81.1151 135.254 81.0831C135.276 81.1151 135.297 81.1364 135.35 81.1257C135.393 81.1257 135.457 81.0725 135.499 81.0512C135.553 81.0192 135.606 80.9872 135.648 80.9553C135.702 80.9233 135.744 80.8807 135.787 80.8487C135.798 80.8594 135.819 80.8701 135.851 80.8701C135.893 80.8701 135.936 80.8701 135.979 80.8594C136.021 80.8488 136.075 80.8275 136.117 80.8061C136.128 80.8168 136.128 80.8168 136.138 80.8168C136.192 80.8381 136.266 80.8275 136.33 80.8061C136.394 80.7848 136.458 80.7529 136.511 80.7103C136.522 80.7209 136.543 80.7209 136.565 80.7209C136.65 80.7316 136.756 80.6783 136.842 80.6357C136.937 80.5718 136.916 80.4972 136.852 80.5292ZM134.999 80.9553C135.041 80.8594 135.116 80.7848 135.201 80.7103C135.233 80.7529 135.265 80.8061 135.222 80.8594C135.201 80.8914 135.158 80.9233 135.116 80.9446C135.073 80.9766 135.041 81.0086 134.999 81.0405C134.988 81.0512 134.977 81.0512 134.967 81.0618C134.945 81.0512 134.988 80.9872 134.999 80.9553ZM135.531 80.7103C135.521 80.7635 135.457 80.8275 135.425 80.8594C135.414 80.8701 135.414 80.8701 135.403 80.8807C135.446 80.8168 135.489 80.7635 135.531 80.7103ZM136.362 80.5185C136.33 80.5611 136.288 80.6037 136.245 80.6357C136.266 80.5824 136.32 80.5185 136.362 80.5185ZM136.586 80.5185C136.597 80.5078 136.618 80.4759 136.618 80.4972C136.618 80.5079 136.597 80.5292 136.575 80.5398C136.575 80.5398 136.575 80.5292 136.586 80.5185Z" fill="#365DA2"/><path d="M120.777 116.963H142.381L149.615 87.9226H128.021L120.777 116.963Z" fill="white"/><g opacity="0.5"><path d="M129.757 96.4134H144.065C144.246 96.4134 144.427 96.2642 144.469 96.0938L144.501 95.9766C144.544 95.7955 144.437 95.657 144.256 95.657H129.949C129.768 95.657 129.587 95.8061 129.544 95.9766L129.512 96.0938C129.48 96.2642 129.587 96.4134 129.757 96.4134Z" fill="#699DEE"/><path d="M131.036 91.2998H145.343C145.524 91.2998 145.705 91.1507 145.748 90.9802L145.78 90.863C145.822 90.6819 145.716 90.5434 145.535 90.5434H131.227C131.046 90.5434 130.865 90.6926 130.823 90.863L130.791 90.9802C130.748 91.1613 130.855 91.2998 131.036 91.2998Z" fill="#699DEE"/><path d="M130.588 93.0789H144.895C145.077 93.0789 145.258 92.9298 145.3 92.7593L145.332 92.6421C145.375 92.461 145.268 92.3225 145.087 92.3225H130.78C130.599 92.3225 130.418 92.4717 130.375 92.6421L130.343 92.7593C130.311 92.9298 130.418 93.0789 130.588 93.0789Z" fill="#699DEE"/><path d="M130.173 94.7408H144.48C144.661 94.7408 144.842 94.5916 144.885 94.4212L144.917 94.304C144.959 94.1229 144.853 93.9844 144.672 93.9844H130.364C130.183 93.9844 130.002 94.1336 129.96 94.304L129.928 94.4212C129.896 94.6023 130.002 94.7408 130.173 94.7408Z" fill="#699DEE"/><path d="M128.916 99.8011H143.223C143.404 99.8011 143.585 99.6519 143.628 99.4815L143.66 99.3643C143.702 99.1832 143.596 99.0447 143.415 99.0447H129.107C128.926 99.0447 128.745 99.1938 128.703 99.3643L128.671 99.4815C128.628 99.6626 128.735 99.8011 128.916 99.8011Z" fill="#699DEE"/><path d="M129.331 98.1392H143.638C143.82 98.1392 144.001 97.99 144.043 97.8196L144.075 97.7024C144.118 97.5213 144.011 97.3828 143.83 97.3828H129.523C129.342 97.3828 129.161 97.5319 129.118 97.7024L129.086 97.8196C129.043 97.99 129.15 98.1392 129.331 98.1392Z" fill="#699DEE"/><path d="M126.306 109.932H129.779C129.992 109.932 130.205 109.762 130.258 109.549C130.311 109.336 130.183 109.165 129.97 109.165H126.497C126.284 109.165 126.071 109.336 126.018 109.549C125.965 109.762 126.103 109.932 126.306 109.932Z" fill="#699DEE"/><path d="M136.959 109.932H140.432C140.645 109.932 140.858 109.762 140.911 109.549C140.964 109.336 140.837 109.165 140.624 109.165H137.151C136.938 109.165 136.724 109.336 136.671 109.549C136.618 109.762 136.746 109.932 136.959 109.932Z" fill="#699DEE"/></g><path d="M129.299 114.055H124.228C124.09 114.055 123.983 114.002 123.909 113.906C123.834 113.81 123.813 113.682 123.845 113.533L124.207 112.063C124.271 111.786 124.558 111.562 124.835 111.562H129.906C130.045 111.562 130.151 111.615 130.226 111.711C130.301 111.807 130.322 111.935 130.29 112.084L129.928 113.554C129.864 113.831 129.576 114.055 129.299 114.055ZM124.835 111.615C124.58 111.615 124.313 111.828 124.25 112.084L123.887 113.554C123.855 113.682 123.877 113.799 123.941 113.885C124.005 113.97 124.111 114.012 124.228 114.012H129.299C129.555 114.012 129.821 113.799 129.885 113.544L130.247 112.073C130.279 111.946 130.258 111.828 130.194 111.743C130.13 111.658 130.024 111.615 129.906 111.615H124.835Z" fill="#476BA7"/><path d="M139.963 114.055H134.892C134.754 114.055 134.647 114.002 134.573 113.906C134.498 113.81 134.477 113.682 134.509 113.533L134.871 112.063C134.935 111.786 135.222 111.562 135.499 111.562H140.57C140.709 111.562 140.815 111.615 140.89 111.711C140.964 111.807 140.986 111.935 140.954 112.084L140.592 113.554C140.528 113.831 140.24 114.055 139.963 114.055ZM135.499 111.615C135.244 111.615 134.977 111.828 134.913 112.084L134.551 113.554C134.519 113.682 134.541 113.799 134.604 113.885C134.668 113.97 134.775 114.012 134.892 114.012H139.963C140.219 114.012 140.485 113.799 140.549 113.544L140.911 112.073C140.943 111.946 140.922 111.828 140.858 111.743C140.794 111.658 140.687 111.615 140.57 111.615H135.499Z" fill="#476BA7"/><path d="M141.06 111.381C140.293 111.701 139.526 112.052 138.77 112.425C138.802 112.34 138.823 112.255 138.855 112.169C138.876 112.105 138.781 112.052 138.727 112.127C138.706 112.159 138.674 112.191 138.642 112.223C138.663 112.159 138.589 112.127 138.525 112.169L138.514 112.18C138.546 112.095 138.418 112.084 138.365 112.169L138.29 112.287C138.227 112.361 138.152 112.414 138.056 112.436C138.035 112.393 138.024 112.35 138.024 112.308C138.024 112.276 137.992 112.255 137.96 112.255C137.96 112.212 137.918 112.191 137.864 112.212C137.8 112.244 137.737 112.287 137.694 112.34C137.651 112.265 137.534 112.318 137.47 112.393C137.47 112.393 137.47 112.382 137.481 112.382C137.513 112.318 137.46 112.244 137.374 112.308C137.236 112.425 137.14 112.574 137.087 112.723C137.044 112.777 136.991 112.819 136.938 112.862C136.916 112.883 136.799 112.99 136.767 112.979C136.746 112.968 136.756 112.904 136.767 112.851C136.767 112.84 136.778 112.84 136.778 112.83C136.874 112.691 137.342 112.052 137.012 112.063C136.98 112.063 136.938 112.084 136.916 112.116C136.799 112.308 136.703 112.5 136.639 112.691C136.629 112.734 136.618 112.777 136.597 112.83C136.586 112.84 136.575 112.851 136.565 112.872C136.437 113.043 136.256 113.299 136.032 113.384C136.011 113.117 136.149 112.798 136.256 112.51C136.298 112.393 136.352 112.265 136.394 112.148C136.405 112.148 136.426 112.137 136.437 112.127C136.671 111.935 136.756 111.647 136.661 111.456C136.629 111.402 136.543 111.456 136.511 111.509C136.352 111.86 136.213 112.223 136.075 112.585C135.957 112.904 135.83 113.235 135.883 113.533C135.883 113.565 135.925 113.576 135.957 113.565C136.202 113.512 136.416 113.299 136.586 113.075C136.597 113.107 136.618 113.128 136.65 113.139C136.767 113.171 136.916 113.043 137.033 112.936C137.033 112.968 137.044 113.011 137.055 113.043C137.065 113.075 137.108 113.085 137.151 113.075C137.257 113.032 137.353 112.968 137.438 112.883C137.545 112.851 137.641 112.755 137.726 112.649C137.779 112.606 137.822 112.553 137.864 112.51C137.875 112.542 137.886 112.563 137.907 112.585C137.95 112.627 138.056 112.585 138.12 112.563C138.184 112.532 138.248 112.5 138.29 112.446C138.333 112.446 138.376 112.436 138.408 112.414C138.418 112.425 138.429 112.436 138.44 112.446C138.482 112.478 138.536 112.468 138.578 112.436C138.567 112.468 138.557 112.5 138.546 112.532C138.44 112.585 138.322 112.649 138.216 112.702C138.141 112.745 138.131 112.851 138.205 112.84C138.301 112.83 138.408 112.83 138.504 112.819C138.546 112.819 138.589 112.787 138.61 112.745C138.631 112.702 138.642 112.659 138.663 112.627C139.452 112.233 140.251 111.86 141.06 111.53C141.199 111.466 141.167 111.338 141.06 111.381ZM137.534 112.542C137.523 112.563 137.523 112.585 137.513 112.606C137.502 112.617 137.502 112.638 137.492 112.649C137.502 112.617 137.513 112.585 137.534 112.542ZM137.31 112.734C137.3 112.777 137.289 112.819 137.31 112.851C137.289 112.872 137.257 112.883 137.236 112.904C137.236 112.862 137.236 112.809 137.246 112.766C137.278 112.723 137.31 112.681 137.342 112.638C137.332 112.67 137.321 112.702 137.31 112.734Z" fill="#365DA2"/><path d="M126.892 110.912C126.615 111.424 126.465 111.935 126.242 112.446C126.135 112.691 126.007 112.947 125.837 113.181C125.72 113.341 125.475 113.703 125.262 113.629C125.208 113.608 125.198 113.565 125.208 113.501C125.208 113.49 125.219 113.469 125.219 113.458C125.251 113.48 125.283 113.469 125.326 113.448C125.389 113.416 125.453 113.341 125.485 113.277C125.517 113.213 125.517 113.139 125.453 113.107C125.4 113.075 125.336 113.107 125.283 113.16C125.23 113.213 125.198 113.288 125.176 113.352C125.144 113.437 125.091 113.522 125.102 113.597C125.112 113.714 125.24 113.757 125.357 113.725C125.507 113.693 125.645 113.565 125.741 113.437C125.858 113.299 125.965 113.149 126.05 112.99C126.231 112.681 126.37 112.35 126.487 112.031C126.625 111.658 126.764 111.285 126.955 110.923C127.009 110.88 126.923 110.848 126.892 110.912ZM125.421 113.213C125.432 113.245 125.4 113.299 125.368 113.331C125.357 113.341 125.347 113.352 125.336 113.363C125.326 113.373 125.326 113.373 125.315 113.373H125.304C125.294 113.363 125.283 113.363 125.272 113.352C125.283 113.32 125.294 113.299 125.304 113.277C125.326 113.235 125.4 113.139 125.421 113.213Z" fill="#365DA2"/><path d="M128.724 112.489C128.671 112.521 128.607 112.553 128.553 112.563C128.543 112.563 128.522 112.563 128.511 112.563C128.553 112.521 128.585 112.478 128.596 112.425C128.607 112.35 128.522 112.34 128.458 112.372C128.394 112.404 128.362 112.478 128.351 112.531C128.351 112.553 128.351 112.563 128.362 112.585C128.298 112.627 128.202 112.691 128.138 112.67C128.213 112.617 128.287 112.542 128.34 112.468C128.351 112.457 128.351 112.436 128.34 112.425C128.308 112.382 128.234 112.372 128.17 112.414C128.095 112.457 128.053 112.521 128.021 112.595C128.01 112.617 128 112.638 128 112.659C127.925 112.691 127.85 112.713 127.776 112.713C127.797 112.691 127.818 112.67 127.84 112.649C127.872 112.617 127.85 112.585 127.818 112.574C127.744 112.563 127.701 112.627 127.68 112.681C127.573 112.777 127.456 112.862 127.328 112.936C127.296 112.958 127.254 112.99 127.232 112.968C127.286 112.926 127.328 112.894 127.371 112.84C127.456 112.755 127.541 112.595 127.435 112.542C127.414 112.531 127.382 112.532 127.36 112.563C127.318 112.617 127.275 112.681 127.232 112.734C127.19 112.787 127.158 112.83 127.137 112.894C127.126 112.915 127.126 112.926 127.126 112.947C127.083 112.979 127.03 113 126.987 113.022H126.977C126.998 113 127.03 112.979 127.051 112.958C127.126 112.904 127.19 112.83 127.19 112.745C127.19 112.67 127.147 112.617 127.094 112.574C127.083 112.563 127.051 112.563 127.03 112.585C126.892 112.691 126.774 112.83 126.721 112.979C126.7 113.022 126.7 113.075 126.721 113.107C126.593 113.203 126.476 113.299 126.348 113.384C126.338 113.394 126.306 113.426 126.284 113.416C126.274 113.416 126.274 113.384 126.274 113.373C126.274 113.341 126.274 113.299 126.284 113.267C126.295 113.192 126.316 113.107 126.338 113.032C126.359 112.958 126.391 112.894 126.433 112.83C126.444 112.84 126.465 112.83 126.487 112.819C126.583 112.745 126.625 112.638 126.625 112.542C126.625 112.51 126.572 112.51 126.54 112.542C126.306 112.808 126.167 113.139 126.178 113.426C126.178 113.49 126.21 113.544 126.295 113.512C126.338 113.49 126.37 113.469 126.402 113.437C126.444 113.405 126.497 113.373 126.54 113.341C126.625 113.277 126.71 113.213 126.796 113.149C126.838 113.149 126.902 113.128 126.945 113.117C127.009 113.096 127.062 113.064 127.126 113.032C127.147 113.064 127.169 113.085 127.222 113.075C127.264 113.075 127.328 113.022 127.371 113C127.424 112.968 127.477 112.936 127.52 112.904C127.573 112.872 127.616 112.83 127.659 112.798C127.669 112.808 127.691 112.819 127.723 112.819C127.765 112.819 127.808 112.819 127.85 112.808C127.893 112.798 127.946 112.777 127.989 112.755C127.999 112.766 127.999 112.766 128.01 112.766C128.063 112.787 128.138 112.777 128.202 112.755C128.266 112.734 128.33 112.702 128.383 112.659C128.394 112.67 128.415 112.67 128.436 112.67C128.522 112.681 128.628 112.627 128.713 112.585C128.798 112.542 128.788 112.457 128.724 112.489ZM126.87 112.926C126.913 112.83 126.987 112.755 127.073 112.681C127.105 112.723 127.137 112.777 127.094 112.83C127.073 112.862 127.03 112.894 126.987 112.915C126.945 112.947 126.913 112.979 126.87 113.011C126.86 113.022 126.849 113.022 126.838 113.032C126.817 113.011 126.849 112.947 126.87 112.926ZM127.403 112.67C127.392 112.723 127.328 112.787 127.296 112.819C127.286 112.83 127.286 112.83 127.275 112.84C127.318 112.777 127.36 112.723 127.403 112.67ZM128.223 112.478C128.191 112.521 128.149 112.563 128.106 112.595C128.127 112.542 128.191 112.478 128.223 112.478ZM128.458 112.478C128.468 112.468 128.49 112.436 128.49 112.457C128.49 112.468 128.468 112.489 128.447 112.5C128.447 112.5 128.447 112.489 128.458 112.478Z" fill="#365DA2"/><path d="M145.844 155.304C145.844 155.304 146.11 159.715 145.311 159.778C145.204 159.789 141.241 159.789 141.241 159.789L136.181 159.757C136.181 159.757 136.213 158.447 137.694 158.17C139.175 157.893 141.774 156.881 142.211 154.612C142.648 152.343 145.844 155.304 145.844 155.304Z" fill="#163560"/><path d="M136.202 155.304C136.202 155.304 136.469 159.715 135.67 159.778C135.563 159.789 131.6 159.789 131.6 159.789L126.54 159.757C126.54 159.757 126.572 158.447 128.053 158.17C129.534 157.893 132.133 156.881 132.57 154.612C133.007 152.343 136.202 155.304 136.202 155.304Z" fill="#163560"/><path d="M157.36 123.334L161.802 124.868C161.802 124.868 164.625 119.115 165.318 118.337C166.106 117.443 166.671 110.593 167.022 104.392C167.331 98.9699 167.48 94.0481 167.48 94.0481C167.48 94.0481 165.968 94.389 164.987 96.9458C163.294 101.314 163.304 109.858 162.367 114.257C161.823 116.793 158.276 122.972 157.36 123.334Z" fill="#699DEE"/><path d="M161.802 124.868C163.496 122.897 164.625 119.115 165.318 118.337C166.106 117.443 169.813 112.382 166.351 104.424C164.647 109.463 166.074 112.201 165.531 115.173C164.998 118.124 161.951 122.897 161.802 124.868Z" fill="#3B76CA"/><path d="M174.618 157.829C174.618 157.829 175.033 158.202 176.014 158.202C177.132 158.202 177.409 157.829 177.409 157.829V142.179H174.607V157.829H174.618Z" fill="#D86713"/><path d="M159.224 135.819C159.224 135.83 159.224 135.841 159.224 135.851C159.32 136.544 159.458 137.194 159.629 137.79C159.949 138.941 160.364 139.878 160.758 140.539C162.271 143.096 165.147 145.94 172.029 146.867C172.36 146.909 172.711 146.952 173.063 146.984C173.702 147.048 174.384 147.101 175.087 147.133C175.129 147.133 175.172 147.133 175.225 147.133C175.268 147.133 175.31 147.133 175.364 147.133C177.367 147.08 179.604 146.718 182.107 146.121C187.242 144.907 190.587 142.392 192.697 139.346C192.878 139.09 193.048 138.824 193.208 138.557C193.634 137.865 193.996 137.151 194.305 136.416C195.477 133.678 195.924 130.716 195.967 127.979C195.924 125.379 195.52 123.025 195.072 121.352C194.721 120.053 194.177 118.806 193.442 117.72C193.25 117.432 193.037 117.155 192.814 116.889C192.111 116.047 191.269 115.323 190.278 114.758C187.828 113.362 179.763 111.967 172.935 115.578C160.385 122.226 158.5 130.418 159.224 135.819Z" fill="#E57970"/><path d="M161.344 141.423C163.347 143.756 165.158 146.142 172.04 146.909C172.37 146.941 172.722 146.984 173.073 147.005C173.712 147.059 174.394 147.101 175.097 147.122C175.14 147.122 175.183 147.122 175.236 147.122C175.278 147.122 175.321 147.122 175.374 147.122C177.377 147.069 179.614 146.707 182.118 146.11C187.253 144.896 190.598 142.382 192.707 139.335C192.888 139.079 193.059 138.813 193.219 138.547C189.319 137.62 181.01 135.99 172.743 136.65C168.258 137.013 163.613 137.407 159.629 137.758C159.501 137.801 160.684 140.656 161.344 141.423Z" fill="#C65447"/><path d="M184.93 100.504C184.866 100.238 184.802 99.982 184.728 99.7263C183.748 96.2427 182.139 93.7179 179.614 93.3024C179.295 94.1653 176.216 95.5928 173.51 95.4543C173.212 95.4437 172.775 95.0389 172.764 95.0282C170.634 94.7299 169.622 93.5794 169.718 93.4302C169.632 93.4409 167.48 94.0375 167.48 94.0375C165.616 102.198 165.392 106.725 167.64 118.359C168.46 122.609 167.203 124.921 167.48 125.198C167.97 125.688 173.34 125.827 177.665 125.997C178.187 126.018 178.698 126.04 179.188 126.05C182.342 126.157 184.952 126.189 184.952 126.189C185.165 125.923 185.559 123.451 185.825 119.989C186.262 114.449 186.368 106.342 184.93 100.504Z" fill="#699DEE"/><path d="M178.123 93.6966L175.555 95.8272L171.646 95.22C171.678 94.8471 171.88 93.2065 172.04 91.8216C172.178 90.6817 172.296 89.7123 172.296 89.7123L176.972 87.848L177.111 87.7947C177.111 87.816 177.111 87.8373 177.111 87.8693C177.1 88.061 177.09 88.2421 177.09 88.4232C177.004 91.5873 178.123 93.6966 178.123 93.6966Z" fill="#E49963"/><path d="M167.342 137.641C154.27 138.579 150.19 138.408 149.732 139.037C146.845 142.989 146.557 143.671 140.698 151.597C139.58 153.11 138.259 154.889 136.682 156.998H130.567C130.567 156.998 137.161 144.417 142.435 135.883C144.512 132.517 146.387 129.79 147.569 128.703C151.66 124.974 167.938 125.07 167.938 125.07C167.938 125.07 182.075 124.729 183.183 126.817C183.439 127.276 177.185 136.927 167.342 137.641Z" fill="#1C468A"/><path d="M167.342 137.641C154.27 138.579 150.19 138.408 149.732 139.037C146.845 142.989 146.557 143.671 140.698 151.597L142.435 135.883C144.512 132.517 146.387 129.79 147.569 128.703C151.66 124.974 167.938 125.07 167.938 125.07C167.938 125.07 182.075 124.729 183.183 126.817C183.439 127.276 177.185 136.927 167.342 137.641Z" fill="#163560"/><path d="M174.852 95.5076L172.274 95.2306C172.274 95.2306 171.955 95.3052 172.019 95.71C172.083 96.1149 172.924 97.2121 173.244 97.2654C173.574 97.3187 175.555 96.2534 174.852 95.5076Z" fill="#365DA4"/><path d="M184.408 129.001C184.408 129.001 183.972 136.917 174.128 137.63C161.056 138.568 158.351 138.259 157.498 139.058C153.29 142.989 156.071 143.82 146.217 157.009H140.027C140.027 157.009 147.58 131.984 151 128.991C155.155 125.358 172.125 125.081 172.125 125.081C172.125 125.081 183.439 124.207 184.547 126.306C184.802 126.754 184.408 129.001 184.408 129.001Z" fill="#1C468A"/><path d="M172.04 146.867C172.04 146.909 173.393 147.101 174.139 147.133C174.437 147.144 174.746 147.154 175.055 147.144C175.076 147.144 175.108 147.144 175.129 147.144C175.204 147.144 175.289 147.144 175.374 147.144C177.377 147.091 179.614 146.728 182.118 146.132C188.819 144.544 192.473 140.752 194.326 136.427C195.498 133.678 195.946 130.727 195.988 127.989C195.946 125.39 195.541 123.036 195.094 121.363C194.742 120.063 194.199 118.817 193.464 117.73C193.314 117.517 193.165 117.304 193.005 117.102C192.952 117.038 192.899 116.974 192.846 116.899C188.222 121.736 174.266 137.098 172.04 146.867Z" fill="#E57970"/><path d="M172.391 146.867C172.391 146.909 173.744 147.101 174.49 147.133C174.682 147.144 174.863 147.144 175.055 147.144C175.076 147.144 175.108 147.144 175.129 147.144C175.204 147.144 175.289 147.144 175.374 147.144C177.377 147.09 179.614 146.728 182.118 146.132C188.819 144.544 192.473 140.752 194.326 136.427C195.498 133.678 195.946 130.727 195.988 127.989C195.946 125.39 195.541 123.036 195.094 121.363C194.742 120.063 194.199 118.817 193.464 117.73C193.314 117.517 193.165 117.304 193.005 117.102C188.201 122.141 174.586 137.226 172.391 146.867Z" fill="#E57970"/><path d="M171.955 92.6207C171.955 92.6207 172.381 94.5276 173.51 95.4544L171.774 97.7236C171.774 97.7236 169.664 95.2307 169.728 93.441C169.718 93.441 171.39 92.6846 171.955 92.6207Z" fill="#3B76CA"/><path d="M171.955 92.6207C171.955 92.6207 172.285 94.4211 173.414 95.3479L171.742 97.404C171.742 97.404 169.909 95.2733 169.728 93.441C169.718 93.441 171.39 92.6846 171.955 92.6207Z" fill="#699DEE"/><path d="M177.814 92.6207C177.814 92.6207 175.151 95.1455 173.404 95.3479L174.597 98.3201C174.597 98.3201 179.785 95.2414 179.795 93.409C179.806 93.409 178.379 92.6313 177.814 92.6207Z" fill="#3B76CA"/><path d="M177.622 92.5141C177.622 92.5141 175.151 95.1348 173.404 95.3372L174.373 98.0751C174.373 98.0751 179.593 95.1348 179.614 93.2918C179.614 93.3025 178.187 92.5354 177.622 92.5141Z" fill="#699DEE"/><path d="M185.825 119.989C185.559 123.462 185.633 125.273 184.557 126.295C184.557 126.295 182.384 127.116 179.188 126.05C178.091 125.496 177.239 124.719 176.823 123.675C174.714 118.433 178.73 114.087 178.933 110.614C179.135 107.141 182.32 104.605 182.32 104.605C182.32 104.605 186.262 114.449 185.825 119.989Z" fill="#3B76CA"/><path d="M173.649 96.9671C173.649 96.9671 174.139 101.569 174.224 103.114C174.469 107.45 174.554 120.468 174.554 120.468C174.554 120.468 174.682 121.608 173.926 122.514C173.169 123.419 172.37 124.037 172.37 124.037C172.37 124.037 171.252 123.068 170.815 121.235C170.517 120.021 171.23 109.794 171.933 102.986C172.296 99.5665 172.882 96.8819 172.882 96.8819C172.882 96.8819 173.478 96.7754 173.649 96.9671Z" fill="#365DA4"/><path d="M191.844 159.768H161.248C162.708 156.583 169.004 154.186 176.546 154.186C184.089 154.186 190.385 156.583 191.844 159.768Z" fill="#F1A34F"/><path d="M176.109 120.681C176.109 120.681 174.032 121.224 173.35 121.597C172.668 121.97 171.305 123.771 171.614 124.048C173.148 125.454 173.382 123.898 175.278 123.387C175.619 123.291 177.196 121.533 177.196 121.533L176.109 120.681Z" fill="#E49963"/><path d="M174.416 125.028L171.305 114.257H153.503L156.721 125.464H156.774H174.543H180.083V125.028H174.416Z" fill="#C65447"/><path d="M162.377 119.68C162.26 119.286 162.495 118.966 162.889 118.966C163.283 118.966 163.698 119.286 163.805 119.68C163.922 120.074 163.688 120.394 163.294 120.394C162.899 120.394 162.495 120.074 162.377 119.68Z" fill="white"/><path d="M179.614 93.3024C179.614 93.3024 183.151 93.8777 184.92 95.71C186.688 97.5424 189.682 112.585 188.936 114.694C188.19 116.803 182.203 121.086 177.91 122.854C177.91 122.854 175.801 121.906 175.662 120.266C175.662 120.266 182.938 114.14 183.279 112.51C183.62 110.891 179.614 93.3024 179.614 93.3024Z" fill="#699DEE"/><path d="M177.111 87.848C177.1 88.0397 177.09 88.2208 177.09 88.4019C176.184 89.3714 174.064 91.4594 172.051 91.8216C172.189 90.6817 172.306 89.7123 172.306 89.7123L176.983 87.848H177.111Z" fill="#D68D5D"/><path d="M171.816 90.0745C171.816 90.0745 177.42 90.3302 177.526 86.8359C177.633 83.3416 178.432 81.0299 174.852 80.7103C171.284 80.4014 170.548 81.7117 170.229 82.8622C169.909 84.0341 170.357 89.9253 171.816 90.0745Z" fill="#E49963"/><path d="M177.526 86.8465C177.526 86.8465 177.111 82.1911 172.114 82.3509C167.118 82.5107 169.281 77.7913 173.574 77.0988C173.574 77.0988 173.127 78.7607 175.822 79.0271C181.489 79.581 178.027 86.1008 177.526 86.8465Z" fill="#1C468A"/><path d="M70.2697 70.2596C70.0247 70.5152 69.9821 70.8135 70.078 71.1331C70.2591 71.7297 70.9302 72.4222 71.7079 73.1253C71.8038 73.2105 71.8997 73.2957 71.9743 73.3703C71.9956 73.3916 72.0169 73.4129 72.0382 73.4342C72.0488 73.4449 72.0701 73.4662 72.0808 73.4768C72.8052 74.2226 72.5069 74.3611 73.8066 75.8525C75.2874 77.557 76.3527 77.6422 76.6723 77.5038C76.9387 77.3866 76.4593 76.5023 75.9266 75.5116C75.9053 75.4583 75.8733 75.4157 75.852 75.3625C75.7775 75.2346 75.7135 75.0961 75.639 74.9576C75.0211 73.7538 75.2235 73.2212 75.4685 71.4953C75.6709 70.0891 78.0573 63.7398 78.0573 63.7398L75.0957 63.0686C75.0957 63.0686 73.9345 68.1609 72.9011 68.9066C72.3471 69.3008 71.7505 69.2795 71.2285 69.5671C71.1966 69.5884 71.154 69.6097 71.122 69.631C70.8237 69.8228 70.5254 70.0039 70.2697 70.2596Z" fill="#E49963"/><path d="M70.2697 70.2595C70.0247 70.5152 69.9821 70.8135 70.078 71.1331C70.3124 71.7297 70.9622 72.4221 71.7186 73.1146C71.8145 73.2105 71.8997 73.2851 71.9849 73.3703C72.0062 73.3916 72.0275 73.4129 72.0488 73.4342C72.0595 73.4449 72.0808 73.4662 72.0914 73.4768C72.8159 74.2225 72.5176 74.361 73.8173 75.8525C75.2981 77.557 76.3634 77.6422 76.683 77.5037C76.9493 77.3865 76.4699 76.5023 75.9373 75.5116C75.639 75.3837 74.254 74.7445 73.2633 73.317C72.3897 72.0706 71.8358 70.5046 71.2392 69.5777C71.2072 69.599 71.1646 69.6203 71.1327 69.6417C70.8237 69.8228 70.5254 70.0039 70.2697 70.2595Z" fill="#4A75CB"/><path d="M94.4632 69.6204C94.6017 70.5472 95.9227 70.462 97.4141 70.185C98.9056 69.8973 98.5327 70.3128 100.631 70.185C102.73 70.0571 103.412 69.3114 103.486 69.0025C103.561 68.7255 102.528 68.5763 101.43 68.3952C101.292 68.3739 101.153 68.3526 101.015 68.3207C99.7685 68.0969 98.895 67.2447 97.7977 66.5203C96.7537 65.8385 95.2729 63.1965 95.2729 63.1965L92.3965 63.2817C92.3965 63.2817 93.7814 65.6467 94.3141 66.6694C94.623 67.266 94.5697 68.0437 94.4952 68.6403C94.4526 68.9599 94.4206 69.2901 94.4632 69.6204Z" fill="#E49963"/><path d="M97.4141 70.185C98.9056 69.8974 98.5327 70.3128 100.631 70.185C102.73 70.0571 103.412 69.3114 103.486 69.0025C103.561 68.7255 102.528 68.5764 101.43 68.3952L101.42 68.4166C101.42 68.4166 100.12 69.2369 98.3729 69.1942C96.9561 69.1516 95.4753 68.6722 94.4952 68.6403C94.4526 68.9599 94.4206 69.2901 94.4632 69.6204C94.6017 70.5579 95.9227 70.4726 97.4141 70.185Z" fill="#4A75CB"/><path d="M90.2339 27.1779C90.2339 27.1779 91.0009 25.5373 91.7573 25.5054C92.5137 25.4734 94.9213 25.2177 95.0811 25.5693C95.2302 25.9208 94.9959 27.1353 94.4632 27.5614C93.9305 27.9769 90.7133 28.5309 90.7133 28.5309L90.2339 27.1779Z" fill="#E49963"/><path d="M84.4172 50.7322L77.3861 67.0529C77.3861 67.0529 76.4273 67.0955 75.5324 66.7866C74.7121 66.4989 73.7747 65.8171 73.7747 65.8171C73.7747 65.8171 76.1184 49.9225 79.1013 46.7479C82.0842 43.5626 84.4172 50.7322 84.4172 50.7322Z" fill="#4A75CB"/><path d="M60.309 42.7529C60.309 42.7529 78.3768 37.65 82.2652 39.1308C86.1643 40.6116 96.8495 64.869 96.8495 64.869C96.8495 64.869 96.5619 65.2099 95.8161 65.4549C95.1237 65.6787 93.4724 65.5721 93.4724 65.5721C93.4724 65.5721 83.2134 55.8244 82.0735 53.0759C80.9336 50.3274 80.5501 47.7493 79.261 47.941C77.972 48.1328 62.4609 53.3635 59.201 49.6136C55.9305 45.8637 57.0704 41.2615 57.0704 41.2615L60.309 42.7529Z" fill="#699DEE"/><path d="M72.5815 15.3741C72.8904 14.7989 73.2633 13.7762 73.519 11.9332C73.487 12.1143 73.0502 14.4367 72.0808 15.7151C68.2669 17.9522 60.7777 25.6865 60.831 27.2312C60.831 27.2312 58.5512 22.874 58.5086 22.8527C58.5086 22.8527 54.2047 16.7697 59.8296 13.7016C62.6846 12.1356 62.7805 9.95166 62.7699 8.05538C62.7486 6.14846 64.0376 -1.97995 69.4814 0.448984C69.4814 0.448984 70.3869 0.0974279 70.7917 0.182654C70.7917 0.182654 70.4615 0.225267 70.291 0.395718C70.9409 0.395718 71.8571 0.480943 72.6028 0.960338C74.563 2.19611 75.8627 12.6576 72.5815 15.3741Z" fill="#1C468A"/><path d="M71.8571 15.8323C71.8784 15.8429 70.0247 16.6845 68.6931 16.2477C67.436 15.8323 66.6903 14.1384 66.7009 14.1384C67.2442 14.0638 67.436 13.3287 67.5958 10.1328L67.8408 10.1967L71.8997 11.2194C71.8997 11.2194 71.7399 12.5085 71.676 13.7229C71.612 14.735 71.6227 15.7044 71.8571 15.8323Z" fill="#E49963"/><path d="M71.889 11.2088C71.889 11.2088 71.7292 12.4978 71.6653 13.7123C69.3749 13.5312 68.2669 11.3792 67.8301 10.1861L71.889 11.2088Z" fill="#D68D5D"/><path d="M67.436 9.71728C67.436 9.71728 66.3281 7.75709 66.1256 6.11649C65.9765 4.94464 66.7861 0.672695 71.0794 1.5143C71.0794 1.5143 72.3258 1.70606 73.4657 2.55831C74.3712 3.24012 75.6603 4.67831 73.9558 8.35367L73.4977 9.60009L67.436 9.71728Z" fill="#1C468A"/><path d="M72.6028 12.4019C72.6028 12.4019 67.1696 12.2101 67.3294 8.83306C67.4999 5.44533 66.914 3.14423 70.3869 3.12293C73.8705 3.10162 74.4778 4.42262 74.6908 5.56251C74.9145 6.70241 74.0197 12.3593 72.6028 12.4019Z" fill="#E49963"/><path d="M67.9047 3.62367C67.9047 3.62367 71.7399 1.27996 72.8265 3.09101C73.1994 2.80337 73.8386 2.61161 74.6269 3.67693C75.8094 5.26426 74.5523 7.90626 74.5523 7.90626C74.0303 7.93822 73.9984 6.15914 73.7747 5.28557C73.6042 4.62507 72.9544 3.92196 72.6454 3.62367C72.1128 4.66768 70.6852 7.16054 68.8635 7.5334C66.5518 8.00214 65.593 7.34164 65.593 7.34164C65.593 7.34164 67.4147 6.0313 67.9047 3.62367Z" fill="#1C468A"/><path d="M56.1436 42.6357C56.3992 43.4667 57.2835 43.7224 58.4979 43.6371C60.8097 43.488 64.2933 42.1137 66.8074 41.1763C70.6426 39.7381 72.2619 41.3574 73.5083 40.3879C74.7547 39.4185 72.3151 36.9895 75.0743 26.4215C76.0118 22.8421 71.644 14.8308 71.644 14.8308C71.644 14.8308 71.2072 16.9189 66.7009 14.1277C66.6796 14.1171 64.6129 16.5886 62.7272 19.7739C60.6392 23.2895 58.5938 27.5508 59.0199 29.8306C59.8189 34.1664 55.4085 40.2281 56.1436 42.6357Z" fill="#C65447"/><path d="M71.644 14.8308L73.8599 26.4961C73.8599 26.4961 74.1795 27.1353 74.6802 28.0515C75.8627 30.1928 78.0573 33.8468 79.5594 34.2836C80.3051 34.4967 81.935 33.9533 83.7461 33.1544C87.1764 31.6309 91.2673 29.1914 91.2673 29.1914C91.5975 27.6679 90.3298 26.3576 90.3298 26.3576C90.3298 26.3576 82.1694 28.957 81.3704 28.9783C79.6339 29.0102 78.2916 20.5622 76.8108 17.6859C75.7455 15.5978 71.644 14.8308 71.644 14.8308Z" fill="#C65447"/><path d="M71.4949 10.2926C71.4949 10.2926 71.5694 10.7293 72.6454 10.7187C72.6454 10.7187 73.5509 10.708 73.5403 10.2393C73.5509 10.2286 72.6987 9.84512 71.4949 10.2926Z" fill="white"/><path d="M56.1436 42.6358C56.3992 43.4667 57.2835 43.7224 58.4979 43.6372C60.1172 43.0299 67.127 40.7182 67.1377 38.9071C67.159 36.2332 65.9552 36.084 66.9779 32.8348C67.7982 30.2248 61.7045 24.9834 60.7457 23.8648C58.6577 27.3803 58.5938 27.5401 59.0199 29.8199C59.8189 34.1664 55.4085 40.2281 56.1436 42.6358Z" fill="#AA413E"/><path d="M74.6802 28.0515C75.8627 30.1928 78.0572 33.8468 79.5593 34.2836C80.3051 34.4967 81.935 33.9534 83.7461 33.1544C82.4357 33.4207 81.1893 33.3461 79.9748 33.165C78.6645 32.9733 78.3555 31.3327 76.3953 28.7972C75.1276 27.1566 74.7761 27.5295 74.6802 28.0515Z" fill="#AA413E"/><path d="M68.0645 32.8348C68.0645 32.8348 69.2577 32.0038 70.3337 32.2702C71.4096 32.5365 71.8997 33.3142 71.8464 33.6444C71.7825 33.9853 71.1646 34.9122 70.323 34.9548C69.4921 34.9974 67.159 34.2836 67.159 34.2836L68.0645 32.8348Z" fill="#E49963"/><path d="M66.7009 14.1277C66.7009 14.1277 62.2585 14.1704 60.6179 16.2371C58.3061 19.1348 52.4469 32.2595 54.8119 34.0919C57.4752 36.1586 68.2882 34.7204 68.2882 34.7204C68.2882 34.7204 68.693 33.2077 68.2776 32.4513C67.8621 31.6949 60.5433 30.1182 60.2131 29.7667C59.8935 29.4045 64.8046 23.3428 64.8579 22.3201C64.9111 21.2974 66.7009 14.1277 66.7009 14.1277Z" fill="#C65447"/><path d="M69.2684 38.1081L85.93 38.9604L89.4669 28.6374L72.8372 27.7958L69.2684 38.1081Z" fill="#1C468A"/><path d="M64.0971 37.845L85.8759 38.954L85.8965 38.5497L64.1177 37.4407L64.0971 37.845Z" fill="#163560"/><path d="M80.9123 33.2822C81.0402 32.92 80.8378 32.6111 80.4756 32.5897C80.1027 32.5684 79.7085 32.8454 79.5807 33.2076C79.4529 33.5698 79.6553 33.8788 80.0175 33.9001C80.3903 33.9214 80.7952 33.6444 80.9123 33.2822Z" fill="white"/><path d="M221.045 70.8135H193.804C193.165 70.8135 192.643 71.3355 192.643 71.9747V83.7571C192.643 84.3963 193.165 84.9183 193.804 84.9183H195.349V88.0078L200.164 84.9183H221.034C221.673 84.9183 222.195 84.3963 222.195 83.7571V71.9747C222.206 71.3355 221.684 70.8135 221.045 70.8135Z" fill="#1C468A"/><path d="M218.339 75.5435H196.51C196.084 75.5435 195.733 75.1919 195.733 74.7658C195.733 74.3397 196.084 73.9881 196.51 73.9881H218.339C218.765 73.9881 219.116 74.3397 219.116 74.7658C219.106 75.2026 218.765 75.5435 218.339 75.5435Z" fill="white"/><path d="M218.339 78.3452H196.51C196.084 78.3452 195.733 77.9937 195.733 77.5675C195.733 77.1414 196.084 76.7898 196.51 76.7898H218.339C218.765 76.7898 219.116 77.1414 219.116 77.5675C219.106 77.9937 218.765 78.3452 218.339 78.3452Z" fill="white"/><path d="M218.339 81.147H196.51C196.084 81.147 195.733 80.7954 195.733 80.3693C195.733 79.9432 196.084 79.5916 196.51 79.5916H218.339C218.765 79.5916 219.116 79.9432 219.116 80.3693C219.106 80.7954 218.765 81.147 218.339 81.147Z" fill="white"/></g></svg>