<svg width="46" height="39" viewBox="0 0 46 39" fill="none" xmlns="http://www.w3.org/2000/svg"><path fill-rule="evenodd" clip-rule="evenodd" d="M23.0074 9.03613C26.9396 9.03613 30.2025 12.1863 30.2025 16.1655C30.2025 20.1448 27.0233 23.295 23.0074 23.295C19.0752 23.295 15.8124 20.1448 15.8124 16.1655C15.8124 12.1863 19.0752 9.03613 23.0074 9.03613ZM23.0074 13.5956C21.5851 13.5956 20.4139 14.7562 20.4139 16.1655C20.4139 17.5748 21.5851 18.7354 23.0074 18.7354C24.4297 18.7354 25.601 17.5748 25.601 16.1655C25.6847 14.7562 24.5134 13.5956 23.0074 13.5956Z" fill="#D4D4D6"/><path fill-rule="evenodd" clip-rule="evenodd" d="M39.6564 9.78222L36.3936 13.0153L31.2901 7.95841C29.1985 5.88591 26.2703 4.55951 23.0074 4.55951C19.7446 4.55951 16.8163 5.88591 14.7248 7.95841L6.44208 16.1655L9.62129 19.3157L6.44208 22.5488L0 16.1655L11.5455 4.72531C14.4738 1.8238 18.5733 0 23.0911 0C27.6089 0 31.6248 1.8238 34.553 4.72531L39.6564 9.78222Z" fill="#E9E9E9"/><path d="M12.8162 22.5868L9.62164 25.7522L22.9914 39L26.186 35.8346L12.8162 22.5868Z" fill="#C4C8CC"/><path d="M42.8054 12.9855L19.7928 35.7881L22.9874 38.9536L46 16.1509L42.8054 12.9855Z" fill="#C4C8CC"/></svg>