<svg width="236" height="43" viewBox="0 0 236 43" fill="none" xmlns="http://www.w3.org/2000/svg"><path fill-rule="evenodd" clip-rule="evenodd" d="M25.0081 9.91235C29.2822 9.91235 32.8288 13.368 32.8288 17.7331C32.8288 22.0981 29.3731 25.5538 25.0081 25.5538C20.734 25.5538 17.1874 22.0981 17.1874 17.7331C17.1874 13.368 20.734 9.91235 25.0081 9.91235ZM25.0081 14.914C23.4621 14.914 22.189 16.1871 22.189 17.7331C22.189 19.279 23.4621 20.5522 25.0081 20.5522C26.554 20.5522 27.8272 19.279 27.8272 17.7331C27.9181 16.1871 26.645 14.914 25.0081 14.914Z" fill="#374042"/><path fill-rule="evenodd" clip-rule="evenodd" d="M43.1048 10.7307L39.5582 14.2773L34.011 8.73009C31.7375 6.45663 28.5547 5.00162 25.0081 5.00162C21.4615 5.00162 18.2786 6.45663 16.0052 8.73009L7.00226 17.733L10.4579 21.1887L7.00226 24.7353L0 17.733L12.5495 5.18349C15.7324 2.00065 20.1883 0 25.099 0C30.0097 0 34.3747 2.00065 37.5576 5.18349L43.1048 10.7307Z" fill="#0078CA"/><path d="M13.9307 24.7769L10.4583 28.2492L24.9907 42.7816L28.463 39.3092L13.9307 24.7769Z" fill="#374042"/><path d="M46.5277 14.2446L21.514 39.2583L24.9863 42.7306L50 17.7169L46.5277 14.2446Z" fill="#666666"/><path d="M63.349 32V12.965H70.882C72.934 12.965 74.5 13.46 75.58 14.45C76.678 15.44 77.227 16.853 77.227 18.689C77.227 20.507 76.678 21.92 75.58 22.928C74.5 23.918 72.934 24.413 70.882 24.413H65.563V32H63.349ZM65.563 22.55H70.612C73.564 22.55 75.04 21.263 75.04 18.689C75.04 16.097 73.564 14.801 70.612 14.801H65.563V22.55ZM81.2449 36.86L83.4859 31.784L77.9509 18.878H80.3269L84.6739 29.516L89.0479 18.878H91.3429L83.5399 36.86H81.2449ZM98.7559 32.243C97.4419 32.243 96.3079 31.964 95.3539 31.406C94.3999 30.83 93.6619 30.029 93.1399 29.003C92.6359 27.959 92.3839 26.744 92.3839 25.358C92.3839 23.27 92.9509 21.632 94.0849 20.444C95.2189 19.238 96.7759 18.635 98.7559 18.635C99.5659 18.635 100.367 18.779 101.159 19.067C101.951 19.355 102.608 19.76 103.13 20.282L102.374 21.875C101.852 21.371 101.276 21.002 100.646 20.768C100.034 20.534 99.4489 20.417 98.8909 20.417C97.5229 20.417 96.4699 20.849 95.7319 21.713C94.9939 22.559 94.6249 23.783 94.6249 25.385C94.6249 26.951 94.9939 28.193 95.7319 29.111C96.4699 30.011 97.5229 30.461 98.8909 30.461C99.4489 30.461 100.034 30.344 100.646 30.11C101.276 29.876 101.852 29.498 102.374 28.976L103.13 30.569C102.608 31.091 101.942 31.505 101.132 31.811C100.34 32.099 99.5479 32.243 98.7559 32.243Z" fill="#404E62"/><path d="M105.308 32V12.965H121.859V32H118.403V15.854H108.764V32H105.308ZM125.331 36.86V18.797H128.625V20.903C129.003 20.183 129.57 19.607 130.326 19.175C131.1 18.743 131.973 18.527 132.945 18.527C134.097 18.527 135.105 18.806 135.969 19.364C136.851 19.922 137.535 20.714 138.021 21.74C138.507 22.748 138.75 23.963 138.75 25.385C138.75 26.789 138.507 28.013 138.021 29.057C137.535 30.083 136.86 30.875 135.996 31.433C135.132 31.991 134.115 32.27 132.945 32.27C132.009 32.27 131.163 32.072 130.407 31.676C129.669 31.262 129.102 30.713 128.706 30.029V36.86H125.331ZM132 29.705C133.008 29.705 133.818 29.345 134.43 28.625C135.042 27.887 135.348 26.807 135.348 25.385C135.348 23.945 135.042 22.874 134.43 22.172C133.818 21.452 133.008 21.092 132 21.092C130.992 21.092 130.182 21.452 129.57 22.172C128.958 22.874 128.652 23.945 128.652 25.385C128.652 26.807 128.958 27.887 129.57 28.625C130.182 29.345 130.992 29.705 132 29.705ZM147.397 32.27C146.029 32.27 144.841 31.991 143.833 31.433C142.825 30.875 142.042 30.083 141.484 29.057C140.926 28.013 140.647 26.789 140.647 25.385C140.647 23.981 140.926 22.766 141.484 21.74C142.042 20.714 142.825 19.922 143.833 19.364C144.841 18.806 146.029 18.527 147.397 18.527C148.765 18.527 149.953 18.806 150.961 19.364C151.969 19.922 152.752 20.714 153.31 21.74C153.868 22.766 154.147 23.981 154.147 25.385C154.147 26.789 153.868 28.013 153.31 29.057C152.752 30.083 151.969 30.875 150.961 31.433C149.953 31.991 148.765 32.27 147.397 32.27ZM147.397 29.705C148.405 29.705 149.215 29.345 149.827 28.625C150.439 27.887 150.745 26.807 150.745 25.385C150.745 23.945 150.439 22.874 149.827 22.172C149.215 21.452 148.405 21.092 147.397 21.092C146.389 21.092 145.579 21.452 144.967 22.172C144.355 22.874 144.049 23.945 144.049 25.385C144.049 26.807 144.355 27.887 144.967 28.625C145.579 29.345 146.389 29.705 147.397 29.705ZM156.735 32V18.797H163.863C165.573 18.797 166.797 19.103 167.535 19.715C168.291 20.309 168.669 21.155 168.669 22.253C168.669 22.937 168.48 23.531 168.102 24.035C167.724 24.539 167.202 24.908 166.536 25.142C167.4 25.34 168.048 25.718 168.48 26.276C168.912 26.834 169.128 27.509 169.128 28.301C169.128 29.435 168.696 30.335 167.832 31.001C166.968 31.667 165.717 32 164.079 32H156.735ZM159.867 24.224H163.539C164.187 24.224 164.691 24.08 165.051 23.792C165.411 23.486 165.591 23.063 165.591 22.523C165.591 21.983 165.411 21.578 165.051 21.308C164.691 21.02 164.187 20.876 163.539 20.876H159.867V24.224ZM159.867 29.921H163.782C165.294 29.921 166.05 29.318 166.05 28.112C166.05 26.906 165.294 26.303 163.782 26.303H159.867V29.921ZM178.074 32.27C176.58 32.27 175.293 31.991 174.213 31.433C173.133 30.875 172.296 30.083 171.702 29.057C171.126 28.031 170.838 26.816 170.838 25.412C170.838 24.044 171.117 22.847 171.675 21.821C172.251 20.795 173.034 19.994 174.024 19.418C175.032 18.824 176.175 18.527 177.453 18.527C179.325 18.527 180.801 19.121 181.881 20.309C182.979 21.497 183.528 23.117 183.528 25.169V26.168H174.078C174.33 28.526 175.68 29.705 178.128 29.705C178.866 29.705 179.604 29.597 180.342 29.381C181.08 29.147 181.755 28.787 182.367 28.301L183.312 30.569C182.682 31.091 181.89 31.505 180.936 31.811C179.982 32.117 179.028 32.27 178.074 32.27ZM177.588 20.822C176.598 20.822 175.797 21.128 175.185 21.74C174.573 22.352 174.204 23.18 174.078 24.224H180.72C180.648 23.126 180.342 22.289 179.802 21.713C179.28 21.119 178.542 20.822 177.588 20.822ZM186.03 36.86V18.797H189.324V20.903C189.702 20.183 190.269 19.607 191.025 19.175C191.799 18.743 192.672 18.527 193.644 18.527C194.796 18.527 195.804 18.806 196.668 19.364C197.55 19.922 198.234 20.714 198.72 21.74C199.206 22.748 199.449 23.963 199.449 25.385C199.449 26.789 199.206 28.013 198.72 29.057C198.234 30.083 197.559 30.875 196.695 31.433C195.831 31.991 194.814 32.27 193.644 32.27C192.708 32.27 191.862 32.072 191.106 31.676C190.368 31.262 189.801 30.713 189.405 30.029V36.86H186.03ZM192.699 29.705C193.707 29.705 194.517 29.345 195.129 28.625C195.741 27.887 196.047 26.807 196.047 25.385C196.047 23.945 195.741 22.874 195.129 22.172C194.517 21.452 193.707 21.092 192.699 21.092C191.691 21.092 190.881 21.452 190.269 22.172C189.657 22.874 189.351 23.945 189.351 25.385C189.351 26.807 189.657 27.887 190.269 28.625C190.881 29.345 191.691 29.705 192.699 29.705ZM202.048 32V18.797H205.423V23.927H207.34L211.174 18.797H214.792L210.472 24.71C210.886 24.926 211.255 25.232 211.579 25.628C211.921 26.006 212.263 26.492 212.605 27.086L215.386 32H211.768L209.554 28.112C209.212 27.482 208.861 27.068 208.501 26.87C208.159 26.654 207.691 26.546 207.097 26.546H205.423V32H202.048ZM220.964 32.27C220.01 32.27 219.155 32.09 218.399 31.73C217.661 31.352 217.076 30.848 216.644 30.218C216.23 29.588 216.023 28.877 216.023 28.085C216.023 27.113 216.275 26.348 216.779 25.79C217.283 25.214 218.102 24.8 219.236 24.548C220.37 24.296 221.891 24.17 223.799 24.17H224.744V23.603C224.744 22.703 224.546 22.055 224.15 21.659C223.754 21.263 223.088 21.065 222.152 21.065C221.414 21.065 220.658 21.182 219.884 21.416C219.11 21.632 218.327 21.974 217.535 22.442L216.563 20.147C217.031 19.823 217.58 19.544 218.21 19.31C218.858 19.058 219.533 18.869 220.235 18.743C220.955 18.599 221.63 18.527 222.26 18.527C224.186 18.527 225.617 18.977 226.553 19.877C227.489 20.759 227.957 22.136 227.957 24.008V32H224.798V29.894C224.492 30.632 224.006 31.217 223.34 31.649C222.674 32.063 221.882 32.27 220.964 32.27ZM221.666 29.948C222.548 29.948 223.277 29.642 223.853 29.03C224.447 28.418 224.744 27.644 224.744 26.708V26.114H223.826C222.134 26.114 220.955 26.249 220.289 26.519C219.641 26.771 219.317 27.239 219.317 27.923C219.317 28.517 219.524 29.003 219.938 29.381C220.352 29.759 220.928 29.948 221.666 29.948Z" fill="#32373E"/></svg>