<svg width="256" height="236" viewBox="0 0 256 236" fill="none" xmlns="http://www.w3.org/2000/svg"><path fill-rule="evenodd" clip-rule="evenodd" d="M137.545 54.6024C161.053 54.6024 180.559 73.6086 180.559 97.6164C180.559 121.624 161.553 140.63 137.545 140.63C114.038 140.63 94.5312 121.624 94.5312 97.6164C94.5312 73.6086 114.038 54.6024 137.545 54.6024ZM137.545 82.1114C129.042 82.1114 122.04 89.1137 122.04 97.6164C122.04 106.119 129.042 113.121 137.545 113.121C146.048 113.121 153.05 106.119 153.05 97.6164C153.55 89.1137 146.548 82.1114 137.545 82.1114Z" fill="#3D434B"/><path fill-rule="evenodd" clip-rule="evenodd" d="M237.077 59.1032L217.571 78.6096L187.061 48.0996C174.557 35.5955 157.051 27.5929 137.545 27.5929C118.038 27.5929 100.533 35.5955 88.0286 48.0996L38.5125 97.6157L57.5187 116.622L38.5125 136.128L0 97.6157L69.0225 28.5933C86.5281 11.0876 111.036 0.0839844 138.045 0.0839844C165.054 0.0839844 189.061 11.0876 206.567 28.5933L237.077 59.1032Z" fill="#3D434B"/><path d="M76.6145 136.357L57.5166 155.455L137.445 235.383L156.543 216.285L76.6145 136.357Z" fill="#3D434B"/><path d="M255.902 78.4285L118.326 216.004L137.424 235.102L275 97.5264L255.902 78.4285Z" fill="#3D434B"/></svg>