<svg width="232" height="197" viewBox="0 0 232 197" fill="none" xmlns="http://www.w3.org/2000/svg"><g style="mix-blend-mode:luminosity" opacity="0.57" filter="url(#filter0_d_54_5936)"><path d="M155.685 125.865C155.685 125.865 158.364 120.133 161.007 120.021C163.65 119.909 172.061 119.016 172.62 120.244C173.141 121.473 172.322 125.716 170.461 127.205C168.6 128.656 157.359 130.592 157.359 130.592L155.685 125.865Z" fill="#E49963"/><path d="M135.362 208.158L110.797 265.179C110.797 265.179 107.447 265.328 104.321 264.249C101.455 263.244 98.1797 260.862 98.1797 260.862C98.1797 260.862 106.368 205.329 116.79 194.238C127.211 183.109 135.362 208.158 135.362 208.158Z" fill="#4463A3"/><path d="M51.1343 180.28C51.1343 180.28 114.259 162.452 127.845 167.626C141.467 172.799 178.799 257.549 178.799 257.549C178.799 257.549 177.794 258.74 175.189 259.596C172.769 260.378 167 260.006 167 260.006C167 260.006 131.157 225.949 127.175 216.347C123.192 206.744 121.852 197.737 117.349 198.407C112.845 199.077 58.6527 217.352 47.2634 204.25C35.8368 191.149 39.8194 175.07 39.8194 175.07L51.1343 180.28Z" fill="#2A4E96"/><path d="M94.0115 84.6248C95.0909 82.6149 96.3936 79.0418 97.2869 72.6027C97.1752 73.2355 95.6492 81.3495 92.2621 85.8159C78.9374 93.6321 52.7717 120.654 52.9578 126.051C52.9578 126.051 44.9927 110.828 44.8438 110.753C44.8438 110.753 29.8069 89.5006 49.4591 78.7813C59.4341 73.3099 59.769 65.6798 59.7318 59.0546C59.6574 52.3923 64.161 23.9934 83.1805 32.4795C83.1805 32.4795 86.3442 31.2513 87.7585 31.549C87.7585 31.549 86.6047 31.6979 86.0092 32.2934C88.2796 32.2934 91.4805 32.5912 94.0859 34.2661C100.934 38.5836 105.475 75.1337 94.0115 84.6248Z" fill="#1C468A"/><path d="M91.4807 86.2255C91.5551 86.2627 85.0788 89.2031 80.4263 87.6771C76.0344 86.2255 73.429 80.3075 73.4662 80.3075C75.3644 80.047 76.0344 77.4788 76.5927 66.3128L77.4487 66.5361L91.6296 70.1093C91.6296 70.1093 91.0713 74.6129 90.848 78.856C90.6246 82.3919 90.6619 85.7789 91.4807 86.2255Z" fill="#E49963"/><path d="M91.592 70.0719C91.592 70.0719 91.0337 74.5755 90.8103 78.8186C82.808 78.1859 78.9372 70.6674 77.4111 66.4988L91.592 70.0719Z" fill="#D68D5D"/><path d="M76.0346 64.8612C76.0346 64.8612 72.1638 58.0127 71.4566 52.2808C70.9355 48.1866 73.7642 33.2614 88.7639 36.2018C88.7639 36.2018 93.1187 36.8717 97.1012 39.8493C100.265 42.2314 104.769 47.2561 98.8133 60.097L97.2129 64.4518L76.0346 64.8612Z" fill="#1C468A"/><path d="M94.0864 74.2405C94.0864 74.2405 75.1042 73.5705 75.6625 61.7718C76.258 49.9358 74.2109 41.8963 86.3446 41.8218C98.5156 41.7474 100.637 46.3627 101.382 50.3452C102.163 54.3277 99.0367 74.0916 94.0864 74.2405Z" fill="#E49963"/><path d="M77.6715 43.5713C77.6715 43.5713 91.0707 35.3829 94.8671 41.7103C96.1698 40.7054 98.403 40.0354 101.157 43.7574C105.289 49.3032 100.897 58.5338 100.897 58.5338C99.073 58.6454 98.9613 52.4297 98.1797 49.3777C97.5842 47.07 95.3138 44.6135 94.2344 43.5713C92.3734 47.2189 87.3859 55.9284 81.0213 57.2311C72.9445 58.8688 69.5947 56.5611 69.5947 56.5611C69.5947 56.5611 75.9594 51.9831 77.6715 43.5713Z" fill="#1C468A"/><path d="M36.581 179.871C37.4743 182.774 40.5636 183.667 44.8067 183.37C52.8834 182.849 65.0544 178.047 73.8383 174.772C87.2375 169.747 92.895 175.405 97.2497 172.018C101.604 168.631 93.0811 160.144 102.721 123.222C105.996 110.716 90.7362 82.7267 90.7362 82.7267C90.7362 82.7267 89.2102 90.0219 73.4661 80.2702C73.3917 80.233 66.171 88.868 59.583 99.9968C52.2879 112.279 45.1416 127.167 46.6304 135.133C49.4219 150.281 34.0128 171.459 36.581 179.871Z" fill="#27C3E9"/><path d="M90.7363 82.7266L98.4781 123.483C98.4781 123.483 99.5947 125.716 101.344 128.917C105.475 136.398 113.143 149.164 118.391 150.69C120.996 151.435 126.691 149.537 133.018 146.745C145.003 141.423 159.296 132.899 159.296 132.899C160.449 127.577 156.02 122.999 156.02 122.999C156.02 122.999 127.51 132.08 124.718 132.155C118.651 132.266 113.962 102.751 108.788 92.7016C105.066 85.4065 90.7363 82.7266 90.7363 82.7266Z" fill="#27C3E9"/><path d="M90.2148 66.8709C90.2148 66.8709 90.4754 68.3969 94.2346 68.3597C94.2346 68.3597 97.3983 68.3225 97.3611 66.6848C97.3983 66.6476 94.4207 65.3076 90.2148 66.8709Z" fill="white"/><path d="M36.581 179.871C37.4743 182.774 40.5636 183.668 44.8067 183.37C50.4641 181.248 74.9549 173.172 74.9921 166.844C75.0666 157.502 70.8607 156.981 74.4338 145.629C77.2998 136.51 56.0099 118.198 52.6601 114.289C45.365 126.572 45.1416 127.13 46.6304 135.095C49.4219 150.281 34.0128 171.459 36.581 179.871Z" fill="#2267C3"/><path d="M101.344 128.917C105.475 136.398 113.142 149.164 118.391 150.691C120.996 151.435 126.691 149.537 133.018 146.745C128.44 147.676 124.085 147.415 119.842 146.782C115.264 146.112 114.185 140.381 107.336 131.522C102.907 125.79 101.679 127.093 101.344 128.917Z" fill="#AA413E"/><path d="M78.2301 145.629C78.2301 145.629 82.3987 142.726 86.158 143.656C89.9172 144.587 91.6293 147.304 91.4432 148.457C91.2199 149.648 89.0611 152.887 86.1208 153.035C83.2176 153.184 75.0664 150.691 75.0664 150.691L78.2301 145.629Z" fill="#E49963"/><path d="M73.4659 80.2703C73.4659 80.2703 57.9452 80.4192 52.2133 87.6398C44.1365 97.7637 23.6655 143.619 31.9284 150.021C41.2334 157.241 79.0117 152.217 79.0117 152.217C79.0117 152.217 80.4261 146.931 78.9745 144.289C77.5229 141.646 51.9527 136.138 50.7989 134.909C49.6823 133.644 66.8408 112.466 67.0269 108.892C67.213 105.319 73.4659 80.2703 73.4659 80.2703Z" fill="#27C3E9"/><path d="M82.4365 164.052L140.649 167.03L153.006 130.964L94.9052 128.023L82.4365 164.052Z" fill="#1C468A"/><path d="M64.3686 163.133L140.459 167.008L140.531 165.595L64.4405 161.721L64.3686 163.133Z" fill="#163560"/><path d="M123.118 147.192C123.565 145.926 122.857 144.847 121.592 144.772C120.289 144.698 118.912 145.666 118.465 146.931C118.019 148.197 118.726 149.276 119.991 149.35C121.294 149.425 122.708 148.457 123.118 147.192Z" fill="white"/></g><defs><filter id="filter0_d_54_5936" x="0" y="0.910889" width="232.001" height="330.939" filterUnits="userSpaceOnUse" color-interpolation-filters="sRGB"><feFlood flood-opacity="0" result="BackgroundImageFix"/><feColorMatrix in="SourceAlpha" type="matrix" values="0 0 0 0 0 0 0 0 0 0 0 0 0 0 0 0 0 0 127 0" result="hardAlpha"/><feOffset/><feGaussianBlur stdDeviation="15"/><feComposite in2="hardAlpha" operator="out"/><feColorMatrix type="matrix" values="0 0 0 0 0 0 0 0 0 0 0 0 0 0 0 0 0 0 0.17 0"/><feBlend mode="normal" in2="BackgroundImageFix" result="effect1_dropShadow_54_5936"/><feBlend mode="normal" in="SourceGraphic" in2="effect1_dropShadow_54_5936" result="shape"/></filter></defs></svg>