<svg width="255" height="291" viewBox="0 0 255 291" fill="none" xmlns="http://www.w3.org/2000/svg"><g filter="url(#filter0_d_54_6017)"><path d="M175.134 61.1102C175.134 61.1102 170.313 52.5494 175.134 50.8109C179.954 49.0724 182.114 50.6792 182.351 52.6284C182.588 54.5776 180.507 62.2692 180.507 62.2692L175.134 61.1102Z" fill="#FFB27D"/><path d="M179.005 115.847C170.233 117.427 162.147 118.165 154.876 118.323C147.949 118.481 141.759 118.112 136.332 117.48C134.884 117.322 133.461 117.137 132.118 116.927C117.894 114.767 110.044 110.947 110.044 110.947C110.044 110.947 123.03 83.7632 133.514 84.8169C145.815 86.0549 166.677 97.0918 168.758 93.9836C171.103 90.5066 173.052 60.5567 173.052 60.5567C178.504 56.8163 181.771 60.7675 181.771 60.7675C181.771 60.7675 192.412 113.423 179.005 115.847Z" fill="#27C3E9"/><path d="M179.005 115.847C170.234 117.427 162.147 118.165 154.877 118.323C147.949 118.481 141.759 118.112 136.333 117.48C133.067 107.075 130.696 96.4334 137.281 102.834C148.898 114.161 179.005 115.847 179.005 115.847Z" fill="#049ADB"/><path d="M130.537 204.537C130.406 211.596 130.063 218.893 129.378 225.452C126.217 256.534 125.111 294.097 124.663 301.34C123.873 313.905 121.397 333.977 121.397 333.977C121.397 333.977 116.471 338.639 106.883 336.427C106.883 336.427 98.9281 307.504 97.1632 277.054C97.1369 276.553 97.1106 276.053 97.0842 275.552C96.8735 271.522 96.6628 266.913 96.452 261.96C94.9769 228.718 93.3965 179.328 93.3965 179.328L130.09 170.715C130.037 170.662 130.88 186.915 130.537 204.537Z" fill="#2A4E96"/><path d="M130.537 204.537C121.239 220.579 103.511 250.134 96.4257 261.935C94.9506 228.692 93.3701 179.303 93.3701 179.303L130.063 170.689C130.037 170.663 130.88 186.915 130.537 204.537Z" fill="#233862"/><path d="M37.6324 173.455C37.6324 173.455 31.653 180.488 31.1261 182.411C30.5993 184.333 29.6247 191.367 30.1515 193.474C30.652 195.581 34.6295 187.6 36.0783 186.757C37.527 185.914 34.9983 189.944 35.4987 190.603C35.9992 191.288 38.8441 188.258 39.9504 187.231C41.0567 186.204 40.9514 180.698 42.2948 177.458C43.6118 174.192 37.6324 173.455 37.6324 173.455Z" fill="#FFB27D"/><path d="M124.268 180.04C124.268 180.04 89.9195 253.505 71.6651 285.747C53.3844 317.988 47.6684 326.971 47.6684 326.971C47.6684 326.971 37.2109 322.835 36.2363 320.043C36.2363 320.043 43.2167 257.799 55.4653 242.627C62.393 234.066 70.5061 208.331 70.8748 199.322C71.2436 190.313 79.2777 168.845 79.2777 168.845L124.268 180.04Z" fill="#2A4E96"/><path d="M134.305 183.517C134.305 183.517 120.66 192.657 101.326 191.788C92.8437 191.419 76.0117 189.022 73.2986 182.279C72.6664 180.699 73.1405 178.697 74.0888 175.588C76.5649 167.581 82.3599 152.303 80.6214 118.455C80.4634 115.294 80.5424 112.343 80.8585 109.578C82.676 92.9037 92.2378 83.0258 101.484 79.7858C124.005 71.9099 131.512 82.8151 131.512 82.8151C131.512 82.8151 141.469 90.6911 142.971 107.181C145.947 140.107 134.305 183.517 134.305 183.517Z" fill="#27C3E9"/><path d="M108.043 77.8895C108.043 77.8895 118.369 84.185 129.59 82.3938C129.59 82.3938 131.803 81.8406 130.723 79.2328C131.407 77.1256 131.328 77.3099 131.724 75.7558C132.698 72.1734 133.014 70.0925 133.014 70.0925L126.64 63.4019L120.608 57.001C118.948 72.3051 108.043 77.8895 108.043 77.8895Z" fill="#FFB27D"/><path d="M119.659 62.8223C119.659 62.8223 123.11 72.068 131.723 75.7821C132.698 72.1997 133.357 68.4329 133.357 68.4329L126.666 63.4281L119.659 62.8223Z" fill="#ED985F"/><path d="M140.126 69.7759C140.126 69.7759 120.396 72.252 119 60.1087C117.604 47.9918 114.127 40.1422 126.666 38.0613C139.204 35.9803 142.18 40.3266 143.656 44.2777C145.131 48.2026 145.236 68.8276 140.126 69.7759Z" fill="#FFB27D"/><path d="M112.783 36.086C112.625 35.8752 112.203 35.6908 111.308 35.6118C111.308 35.6118 112.045 35.1904 113.02 35.1904C113.257 33.926 114.021 31.7133 116.233 31.2392C116.233 31.2392 115.022 31.8187 114.837 33.1621C117.471 30.6597 122.977 28.9739 137.938 30.7124C157.694 33.0304 150.688 45.4634 148.053 46.8858C145.419 48.3082 139.124 43.9093 134.356 44.12C129.562 44.3307 128.403 51.1794 126.743 52.075C125.084 52.9706 125.795 51.3111 123.635 50.2311C121.475 49.1511 121.133 52.7862 121.686 55.1569C122.239 57.5539 119.105 60.5568 119.105 60.5568C119.105 60.5568 119.105 60.5568 116.181 57.1588C113.257 53.7608 110.912 39.7737 112.414 36.8498C112.519 36.6128 112.651 36.3494 112.783 36.086Z" fill="#2C3A64"/><path d="M173.053 55.4464L139.547 55.7361L139.336 50.705L172.71 48.1235L173.053 55.4464Z" fill="#2A4E96"/><path d="M198.34 56.2894L161.858 56.8162L161.463 47.6495L197.814 44.8311L198.34 56.2894Z" fill="#2A4E96"/><path d="M222.916 57.0006L192.176 57.027L191.623 44.673L222.231 41.8809L222.916 57.0006Z" fill="#233862"/><path d="M223.364 59.0817C224.313 59.029 225.05 58.2388 224.998 57.2905L224.286 41.4068C224.234 40.4585 223.443 39.721 222.495 39.7737C221.547 39.8263 220.809 40.6166 220.862 41.5648L221.573 57.4485C221.626 58.3968 222.416 59.1343 223.364 59.0817Z" fill="#233862"/><path d="M139.441 56.8164C138.598 56.8428 137.887 56.2106 137.835 55.3677L137.65 51.2321C137.624 50.3892 138.256 49.678 139.099 49.6253C139.942 49.599 140.653 50.2312 140.706 51.0741L140.89 55.2096C140.943 56.0525 140.284 56.7638 139.441 56.8164Z" fill="#2A4E96"/><path d="M74.0889 175.588C76.5649 167.581 82.36 152.303 80.6215 118.454C80.4634 115.294 80.5425 112.343 80.8585 109.578C88.2604 108.945 99.6134 116.953 99.6134 116.953C99.6134 116.953 92.6066 159.494 74.0889 175.588Z" fill="#049ADB"/><path d="M108.042 77.8892C108.042 77.8892 89.0238 81.1554 79.1196 93.2723C69.2154 105.389 53.2527 122.432 49.4859 128.411C45.7191 134.391 35.2354 175.061 35.2354 175.061C35.2354 175.061 35.9202 176.378 38.8177 177.142C41.5835 177.88 43.5855 176.747 43.5855 176.747C43.5855 176.747 57.4673 153.014 62.6828 141.16C64.8428 136.235 102.352 116.716 116.471 118.744C122.003 119.508 108.042 77.8892 108.042 77.8892Z" fill="#27C3E9"/><path d="M172.841 46.675C172.841 46.675 176.924 49.1774 179.373 48.1237C181.823 47.0701 181.612 46.0955 181.612 46.0955C181.612 46.0955 174.237 44.0409 172.841 46.675Z" fill="#FFB27D"/><path d="M126.48 91.1387C126.48 91.1387 118.13 143.821 58.9418 159.151L52.4883 171.874L63.8149 173.797C63.8149 173.797 131.195 154.278 130.3 90.2168L126.48 91.1387Z" fill="#205CAB"/><path d="M125.19 82.7358L122.477 82.9993V86.9768L126.48 91.1386L130.326 90.2167V84.7378L127.56 82.7358H125.19Z" fill="#233862"/><path d="M114.47 72.2788C114.47 72.2788 111.836 72.8847 105.777 77.8895C105.777 77.8895 111.783 90.6649 124.48 92.1927C124.48 92.1927 124.269 86.2659 125.191 82.7626C125.191 82.7362 115.155 79.1538 114.47 72.2788Z" fill="#049ADB"/><path d="M125.19 82.7362C125.19 82.7362 131.381 86.0289 131.828 91.139C131.828 91.139 134.199 87.3986 133.514 84.7908C132.829 82.1831 130.696 79.2065 130.696 79.2065C130.696 79.2065 130.933 82.3675 125.19 82.7362Z" fill="#049ADB"/></g><g filter="url(#filter1_d_54_6017)"><path d="M197.953 217.688C197.953 217.688 196.993 229.604 195.846 243.931C194.301 263.409 192.428 287.312 192.241 291.853C191.913 299.719 190.649 312.314 190.649 312.314C190.649 312.314 187.606 315.311 181.542 314.047C181.542 314.047 176.134 296.091 174.589 277.081C174.566 276.777 174.542 276.449 174.519 276.145C173.091 256.807 170.843 216.049 170.843 216.049L197.953 217.688Z" fill="#2A4E96"/><path d="M197.953 217.688C197.953 217.688 196.993 229.604 195.846 243.931L174.589 277.058C174.566 276.753 174.542 276.425 174.519 276.121C173.091 256.784 170.843 216.025 170.843 216.025L197.953 217.688Z" fill="#233862"/><path d="M193.528 219.092C193.528 219.092 176.04 262.262 164.522 282.559C153.004 302.856 149.422 308.522 149.422 308.522C149.422 308.522 142.844 305.923 142.235 304.167C142.235 304.167 146.636 265.001 154.339 255.449C158.693 250.065 162.439 238.078 162.251 232.413C161.924 222.651 165.599 211.32 165.599 211.32L193.528 219.092Z" fill="#2A4E96"/><path d="M207.481 219.748C207.481 219.748 210.758 224.173 210.992 225.343C211.227 226.514 211.507 230.728 211.133 231.968C210.735 233.209 208.698 228.293 207.879 227.731C207.059 227.169 208.394 229.674 208.066 230.049C207.738 230.423 206.17 228.504 205.561 227.848C204.952 227.193 205.233 223.915 204.578 221.925C203.922 219.935 207.481 219.748 207.481 219.748Z" fill="#FFB27D"/><path d="M193.083 155.461C193.083 155.461 197.507 196.547 197.882 197.718C197.976 197.976 198.303 199.263 198.795 201.136C199.497 203.805 200.481 207.644 201.394 211.296C202.798 216.821 204.32 221.574 204.32 221.574C204.32 221.574 204.975 221.995 206.591 221.878C207.691 221.784 208.276 220.848 208.276 220.848C208.276 220.848 208.113 200.668 207.129 196.079C206.146 191.467 202.986 163.234 201.394 159.418C199.825 155.649 193.083 155.461 193.083 155.461Z" fill="white"/><path d="M198.82 201.16C199.522 203.829 200.505 207.668 201.418 211.32C202.027 209.635 202.776 206.942 203.268 203.267C204.157 196.478 201.418 181.986 201.418 181.986L198.82 201.16Z" fill="#DCEAFF"/><path d="M163.866 218.624C170.211 222.206 197.344 222.113 198.608 219.303C201.417 213.029 202.12 181.214 200.785 171.428C200.785 171.428 200.106 156.422 198.608 157.077C188.588 152.465 172.364 156.656 172.364 156.656C167.987 157.943 168.361 167.94 167.144 181.986C166.98 183.789 166.816 185.685 166.629 187.628C165.763 196.29 164.498 206.263 162.602 216.775C162.438 217.501 162.93 218.109 163.866 218.624Z" fill="white"/><path d="M179.832 154.993C179.996 157.686 183.508 157.381 187.722 156.421C191.936 155.462 190.414 152.98 190.414 152.98C190.414 152.98 190.344 151.084 190.086 148.79C189.993 147.97 189.876 147.081 189.712 146.214C189.641 145.793 189.548 145.372 189.454 144.974C188.916 142.609 181.05 144.88 181.097 145.535C181.237 147.244 179.996 152.886 179.832 154.993Z" fill="#FFB27D"/><path d="M188.869 159.675L189.196 155.977L184.538 156.866L186.317 160.167L188.869 159.675Z" fill="#233862"/><path d="M190.298 151.224L193.084 155.461C193.084 155.461 193.084 158.06 190.673 159.956L186.857 156.421C186.857 156.421 189.315 155.485 190.298 151.224Z" fill="#DCEAFF"/><path d="M186.856 156.422C186.856 156.422 186.06 159.254 184.539 160.542C184.539 160.542 178.592 158.95 177.188 155.907L180.278 151.903C180.278 151.903 180.442 154.923 186.856 156.422Z" fill="#DCEAFF"/><path d="M181.05 146.87C181.05 146.87 184.843 149.375 190.087 148.79C189.993 147.97 189.876 147.081 189.712 146.214C188.682 145.957 187.816 145.816 187.816 145.816L181.05 146.87Z" fill="#E2915A"/><path d="M178.638 144.014C180.488 149.094 187.23 147.806 190.11 146.987C190.929 146.753 191.421 146.566 191.421 146.566C192.31 146.168 192.591 144.623 192.498 142.656C192.334 138.793 190.812 133.315 189.946 132.004C188.635 130.014 186.411 128.001 179.879 130.81C173.324 133.596 176.274 137.482 178.638 144.014Z" fill="#FFB27D"/><path d="M173.582 141.392C175.642 143.077 180.09 146.191 180.09 146.191C180.09 146.191 179.599 145.606 178.99 143.92C178.92 143.733 178.896 143.452 178.92 143.148C178.943 142.328 178.756 141.509 178.311 140.806C178.03 140.362 177.936 139.917 178.288 139.589C178.849 139.051 179.809 139.542 180.441 139.987C180.863 140.268 181.401 140.291 181.823 140.034C183.578 138.934 181.635 136.99 183.063 135.352C184.491 133.736 190.719 133.502 190.461 132.496C192.592 131.302 191.234 126.877 191.21 126.643C191.21 126.643 188.167 126.9 184.374 125.964C181.284 125.191 177.89 127.181 176.813 127.977C176.813 127.79 176.836 127.509 176.977 127.228C176.977 127.228 176.508 127.696 176.508 128.235C176.462 128.282 176.438 128.305 176.462 128.328C176.462 128.328 175.853 128.305 175.478 128.563C175.478 128.563 175.736 128.469 175.876 128.633C175.9 128.656 175.9 128.656 175.923 128.68C171.826 131.559 171.873 139.987 173.582 141.392Z" fill="#3B454B"/><path d="M188.401 143.265C188.401 143.265 188.729 143.897 190.391 143.382C190.391 143.382 191.796 142.937 191.562 142.188C191.585 142.188 190.063 142.024 188.401 143.265Z" fill="white"/><path d="M188.869 159.676C188.869 159.676 192.591 206.661 192.544 210.571C192.498 214.481 188.424 218.624 188.424 218.624C188.424 218.624 185.193 215.066 184.561 211.344C183.929 207.598 186.364 160.167 186.364 160.167L188.869 159.676Z" fill="#2A4E96"/><path d="M163.866 218.624C175.174 217.009 171.943 179.598 171.053 179.458C170.164 179.317 166.91 186.153 166.91 186.153L166.605 187.675C165.739 196.337 164.475 206.31 162.579 216.821C162.438 217.5 162.93 218.109 163.866 218.624Z" fill="#DCEAFF"/><path d="M130.647 246.483L154.55 253.436C157.663 254.349 160.941 252.547 161.854 249.433L164.874 239.085C165.787 235.972 163.984 232.694 160.871 231.781L136.968 224.828C133.855 223.915 130.577 225.718 129.664 228.831L126.644 239.179C125.731 242.293 127.534 245.594 130.647 246.483Z" fill="#4DDAEE"/><path d="M161.714 238.149L158.671 248.614C158.085 250.65 156.493 252.125 154.574 252.64C153.942 252.827 153.286 252.898 152.607 252.851C152.186 252.827 151.764 252.757 151.343 252.64L127.487 245.687C124.374 244.774 122.548 241.473 123.461 238.36L126.504 227.895C127.417 224.781 130.718 222.955 133.832 223.868L142.049 226.256L142.704 224.032C143.009 223.002 144.086 222.393 145.116 222.698L146.005 222.955L150.992 224.407L152.233 224.758C152.724 224.898 153.146 225.226 153.403 225.694C153.661 226.162 153.708 226.678 153.567 227.169L152.912 229.393L157.664 230.774C157.851 230.821 158.039 230.891 158.202 230.962C160.005 231.687 161.293 233.256 161.737 235.059C161.995 236.089 161.995 237.142 161.714 238.149ZM143.219 226.607L151.741 229.112L152.396 226.888C152.514 226.514 152.279 226.092 151.905 225.975L149.751 225.343L145.818 224.196L144.765 223.892C144.694 223.868 144.624 223.868 144.554 223.868C144.25 223.868 143.969 224.079 143.875 224.383L143.219 226.607Z" fill="#27C3E9"/><path d="M150.359 219.935C150.359 219.935 151.108 226.139 149.704 226.045C148.299 225.952 144.904 225.296 144.694 224.219C144.459 223.142 147.292 218.179 147.292 218.179L150.359 219.935Z" fill="#FFB27D"/><path d="M150.194 219.912C150.194 219.912 151.248 221.223 151.341 222.276C151.435 223.306 151.95 225.132 151.458 225.249C150.99 225.366 150.101 222.978 150.101 222.978L150.194 219.912Z" fill="#FFB27D"/><path d="M172.342 156.679C172.342 156.679 166.349 158.107 161.596 167.237C156.844 176.344 153.098 194.745 150.851 199.591C148.58 204.437 146.871 218.998 146.871 218.998C146.871 218.998 147.222 219.724 148.439 219.982C149.376 220.192 150.359 220.099 150.359 220.099C150.359 220.099 159.279 205.818 160.566 200.668C161.268 197.882 171.85 175.642 171.85 175.642L172.342 156.679Z" fill="white"/></g><defs><filter id="filter0_d_54_6017" x="0" y="0" width="255" height="377.279" filterUnits="userSpaceOnUse" color-interpolation-filters="sRGB"><feFlood flood-opacity="0" result="BackgroundImageFix"/><feColorMatrix in="SourceAlpha" type="matrix" values="0 0 0 0 0 0 0 0 0 0 0 0 0 0 0 0 0 0 127 0" result="hardAlpha"/><feOffset/><feGaussianBlur stdDeviation="15"/><feComposite in2="hardAlpha" operator="out"/><feColorMatrix type="matrix" values="0 0 0 0 0 0 0 0 0 0 0 0 0 0 0 0 0 0 0.17 0"/><feBlend mode="normal" in2="BackgroundImageFix" result="effect1_dropShadow_54_6017"/><feBlend mode="normal" in="SourceGraphic" in2="effect1_dropShadow_54_6017" result="shape"/></filter><filter id="filter1_d_54_6017" x="93.2251" y="95.7891" width="148.09" height="255.492" filterUnits="userSpaceOnUse" color-interpolation-filters="sRGB"><feFlood flood-opacity="0" result="BackgroundImageFix"/><feColorMatrix in="SourceAlpha" type="matrix" values="0 0 0 0 0 0 0 0 0 0 0 0 0 0 0 0 0 0 127 0" result="hardAlpha"/><feOffset/><feGaussianBlur stdDeviation="15"/><feComposite in2="hardAlpha" operator="out"/><feColorMatrix type="matrix" values="0 0 0 0 0 0 0 0 0 0 0 0 0 0 0 0 0 0 0.17 0"/><feBlend mode="normal" in2="BackgroundImageFix" result="effect1_dropShadow_54_6017"/><feBlend mode="normal" in="SourceGraphic" in2="effect1_dropShadow_54_6017" result="shape"/></filter></defs></svg>