<svg width="288" height="300" viewBox="0 0 288 300" fill="none" xmlns="http://www.w3.org/2000/svg"><g filter="url(#filter0_d_654_1404)"><path d="M199.695 66.3749C199.695 66.3749 194.059 56.3652 199.695 54.3325C205.331 52.2998 207.857 54.1785 208.134 56.4576C208.411 58.7368 205.978 67.7301 205.978 67.7301L199.695 66.3749Z" fill="#FFB27D"/><path d="M204.222 130.375C193.966 132.223 184.511 133.085 176.011 133.27C167.91 133.455 160.673 133.024 154.328 132.285C152.634 132.1 150.971 131.884 149.4 131.638C132.769 129.112 123.591 124.646 123.591 124.646C123.591 124.646 138.775 92.8619 151.033 94.0939C165.416 95.5414 189.808 108.446 192.242 104.812C194.983 100.746 197.262 65.7281 197.262 65.7281C203.637 61.3546 207.456 65.9745 207.456 65.9745C207.456 65.9745 219.899 127.542 204.222 130.375Z" fill="#27C3E9"/><path d="M204.222 130.376C193.966 132.223 184.511 133.086 176.01 133.271C167.91 133.455 160.672 133.024 154.328 132.285C150.509 120.119 147.737 107.677 155.437 115.161C169.019 128.404 204.222 130.376 204.222 130.376Z" fill="#049ADB"/><path d="M147.552 234.075C147.398 242.329 146.998 250.861 146.197 258.53C142.501 294.872 141.208 338.792 140.684 347.261C139.76 361.952 136.865 385.421 136.865 385.421C136.865 385.421 131.105 390.873 119.895 388.286C119.895 388.286 110.593 354.468 108.53 318.865C108.499 318.28 108.468 317.694 108.437 317.109C108.191 312.397 107.945 307.007 107.698 301.217C105.974 262.349 104.126 204.601 104.126 204.601L147.029 194.529C146.967 194.468 147.953 213.471 147.552 234.075Z" fill="#2A4E96"/><path d="M147.552 234.075C136.68 252.832 115.952 287.388 107.668 301.186C105.943 262.318 104.095 204.57 104.095 204.57L146.998 194.499C146.967 194.468 147.953 213.471 147.552 234.075Z" fill="#233862"/><path d="M38.924 197.732C38.924 197.732 31.9327 205.956 31.3167 208.204C30.7007 210.452 29.5612 218.676 30.1772 221.14C30.7624 223.604 35.413 214.271 37.1069 213.286C38.8009 212.3 35.8442 217.013 36.4293 217.783C37.0145 218.583 40.3408 215.041 41.6344 213.84C42.9279 212.639 42.8047 206.202 44.3755 202.414C45.9154 198.595 38.924 197.732 38.924 197.732Z" fill="#FFB27D"/><path d="M140.222 205.432C140.222 205.432 100.06 291.331 78.7163 329.028C57.3419 366.726 50.6585 377.229 50.6585 377.229C50.6585 377.229 38.4313 372.393 37.2917 369.129C37.2917 369.129 45.4535 296.351 59.775 278.611C67.8751 268.601 77.3612 238.51 77.7924 227.977C78.2235 217.444 87.6172 192.343 87.6172 192.343L140.222 205.432Z" fill="#2A4E96"/><path d="M151.956 209.498C151.956 209.498 136.002 220.185 113.396 219.169C103.479 218.738 83.7981 215.935 80.6258 208.05C79.8866 206.203 80.441 203.862 81.5498 200.228C84.4449 190.865 91.2206 173.001 89.1879 133.425C89.0031 129.729 89.0955 126.279 89.4651 123.045C91.5902 103.55 102.77 92 113.581 88.2118C139.914 79.0029 148.691 91.7536 148.691 91.7536C148.691 91.7536 160.333 100.963 162.089 120.243C165.569 158.741 151.956 209.498 151.956 209.498Z" fill="#27C3E9"/><path d="M121.25 85.9939C121.25 85.9939 133.323 93.3548 146.443 91.2605C146.443 91.2605 149.03 90.6137 147.768 87.5646C148.568 85.1007 148.476 85.3163 148.938 83.4992C150.078 79.3105 150.447 76.8774 150.447 76.8774L142.994 69.0545L135.941 61.5703C134.001 79.4645 121.25 85.9939 121.25 85.9939Z" fill="#FFB27D"/><path d="M134.832 68.377C134.832 68.377 138.867 79.1874 148.938 83.53C150.078 79.3414 150.847 74.9371 150.847 74.9371L143.025 69.0853L134.832 68.377Z" fill="#ED985F"/><path d="M158.763 76.5078C158.763 76.5078 135.695 79.4029 134.062 65.2046C132.43 51.0371 128.364 41.859 143.025 39.4259C157.685 36.9928 161.165 42.0746 162.89 46.6944C164.615 51.2835 164.738 75.399 158.763 76.5078Z" fill="#FFB27D"/><path d="M126.794 37.1159C126.609 36.8695 126.116 36.6539 125.069 36.5615C125.069 36.5615 125.931 36.0688 127.071 36.0688C127.348 34.5904 128.241 32.0033 130.828 31.4489C130.828 31.4489 129.412 32.1265 129.196 33.6972C132.276 30.7713 138.713 28.8002 156.207 30.8329C179.306 33.5432 171.113 48.0804 168.033 49.7435C164.953 51.4066 157.593 46.2632 152.018 46.5096C146.413 46.756 145.057 54.7637 143.117 55.8109C141.177 56.8581 142.008 54.9177 139.483 53.655C136.957 52.3922 136.557 56.6425 137.204 59.4144C137.85 62.2171 134.185 65.7281 134.185 65.7281C134.185 65.7281 134.185 65.7282 130.767 61.7551C127.348 57.782 124.607 41.4278 126.362 38.0091C126.486 37.7319 126.64 37.4239 126.794 37.1159Z" fill="#2C3A64"/><path d="M197.262 59.753L158.085 60.0918L157.839 54.2092L196.861 51.1909L197.262 59.753Z" fill="#2A4E96"/><path d="M226.829 60.7389L184.172 61.3548L183.71 50.6368L226.213 47.3413L226.829 60.7389Z" fill="#2A4E96"/><path d="M255.564 61.5702L219.622 61.601L218.975 47.1563L254.763 43.8916L255.564 61.5702Z" fill="#233862"/><path d="M256.088 64.0035C257.196 63.9419 258.059 63.018 257.997 61.9092L257.166 43.3374C257.104 42.2287 256.18 41.3663 255.071 41.4279C253.962 41.4895 253.1 42.4135 253.162 43.5222L253.993 62.094C254.055 63.2028 254.979 64.0651 256.088 64.0035Z" fill="#233862"/><path d="M157.962 61.3549C156.976 61.3857 156.145 60.6465 156.083 59.6609L155.868 54.8255C155.837 53.8399 156.576 53.0083 157.562 52.9467C158.547 52.9159 159.379 53.6551 159.44 54.6407L159.656 59.4761C159.718 60.4617 158.948 61.2933 157.962 61.3549Z" fill="#2A4E96"/><path d="M81.55 200.227C84.4451 190.864 91.2209 173.001 89.1881 133.424C89.0033 129.728 89.0958 126.279 89.4653 123.045C98.1198 122.306 111.394 131.669 111.394 131.669C111.394 131.669 103.202 181.409 81.55 200.227Z" fill="#049ADB"/><path d="M121.25 85.9941C121.25 85.9941 99.0127 89.8132 87.4323 103.981C75.8519 118.148 57.1877 138.075 52.7834 145.067C48.3792 152.058 36.1212 199.611 36.1212 199.611C36.1212 199.611 36.922 201.151 40.3099 202.045C43.5438 202.907 45.8845 201.583 45.8845 201.583C45.8845 201.583 62.1156 173.833 68.2138 159.973C70.7393 154.214 114.597 131.392 131.105 133.763C137.573 134.656 121.25 85.9941 121.25 85.9941Z" fill="#27C3E9"/><path d="M197.015 49.4974C197.015 49.4974 201.789 52.4233 204.653 51.1913C207.518 49.9594 207.271 48.8198 207.271 48.8198C207.271 48.8198 198.647 46.4175 197.015 49.4974Z" fill="#FFB27D"/><path d="M142.809 101.486C142.809 101.486 133.046 163.084 63.8406 181.009L56.2948 195.884L69.5384 198.133C69.5384 198.133 148.322 175.311 147.275 100.408L142.809 101.486Z" fill="#205CAB"/><path d="M141.3 91.6606L138.128 91.9686V96.6193L142.809 101.486L147.306 100.408V94.0014L144.072 91.6606H141.3Z" fill="#233862"/><path d="M128.765 79.4336C128.765 79.4336 125.685 80.142 118.601 85.9938C118.601 85.9938 125.623 100.931 140.468 102.718C140.468 102.718 140.222 95.7879 141.3 91.6916C141.3 91.6608 129.565 87.4721 128.765 79.4336Z" fill="#049ADB"/><path d="M141.3 91.6607C141.3 91.6607 148.538 95.5106 149.061 101.486C149.061 101.486 151.833 97.1121 151.032 94.0631C150.232 91.014 147.737 87.5337 147.737 87.5337C147.737 87.5337 148.014 91.2296 141.3 91.6607Z" fill="#049ADB"/></g><g filter="url(#filter1_d_654_1404)"><path d="M226.376 249.451C226.376 249.451 225.254 263.384 223.912 280.136C222.106 302.91 219.916 330.858 219.697 336.168C219.314 345.366 217.836 360.092 217.836 360.092C217.836 360.092 214.277 363.596 207.188 362.118C207.188 362.118 200.865 341.123 199.058 318.896C199.031 318.54 199.003 318.157 198.976 317.801C197.306 295.191 194.678 247.535 194.678 247.535L226.376 249.451Z" fill="#2A4E96"/><path d="M226.376 249.451C226.376 249.451 225.254 263.384 223.912 280.136L199.058 318.869C199.031 318.513 199.003 318.13 198.976 317.774C197.306 295.164 194.678 247.508 194.678 247.508L226.376 249.451Z" fill="#233862"/><path d="M221.202 251.094C221.202 251.094 200.755 301.569 187.287 325.301C173.82 349.034 169.632 355.658 169.632 355.658C169.632 355.658 161.94 352.619 161.228 350.566C161.228 350.566 166.375 304.772 175.38 293.604C180.472 287.308 184.851 273.293 184.632 266.669C184.249 255.254 188.547 242.006 188.547 242.006L221.202 251.094Z" fill="#2A4E96"/><path d="M237.517 251.86C237.517 251.86 241.349 257.033 241.623 258.402C241.896 259.771 242.225 264.698 241.787 266.148C241.321 267.599 238.94 261.851 237.982 261.194C237.024 260.537 238.584 263.466 238.201 263.904C237.818 264.342 235.984 262.097 235.272 261.331C234.56 260.564 234.889 256.732 234.122 254.406C233.356 252.079 237.517 251.86 237.517 251.86Z" fill="#FFB27D"/><path d="M220.682 176.694C220.682 176.694 225.856 224.734 226.294 226.102C226.403 226.403 226.787 227.909 227.361 230.099C228.183 233.219 229.332 237.708 230.4 241.979C232.042 248.438 233.821 253.995 233.821 253.995C233.821 253.995 234.588 254.488 236.477 254.351C237.763 254.242 238.447 253.147 238.447 253.147C238.447 253.147 238.256 229.551 237.106 224.186C235.956 218.794 232.261 185.782 230.4 181.32C228.566 176.913 220.682 176.694 220.682 176.694Z" fill="white"/><path d="M227.389 230.126C228.21 233.246 229.359 237.736 230.427 242.006C231.139 240.035 232.015 236.887 232.589 232.589C233.63 224.651 230.427 207.708 230.427 207.708L227.389 230.126Z" fill="#DCEAFF"/><path d="M186.521 250.546C193.939 254.734 225.664 254.625 227.143 251.34C230.427 244.004 231.248 206.805 229.688 195.363C229.688 195.363 228.894 177.817 227.143 178.583C215.427 173.191 196.458 178.09 196.458 178.09C191.339 179.596 191.777 191.284 190.353 207.708C190.162 209.816 189.97 212.033 189.751 214.305C188.739 224.433 187.26 236.094 185.043 248.384C184.852 249.232 185.426 249.944 186.521 250.546Z" fill="white"/><path d="M205.189 176.147C205.381 179.295 209.487 178.939 214.414 177.817C219.341 176.694 217.562 173.793 217.562 173.793C217.562 173.793 217.48 171.576 217.179 168.893C217.069 167.935 216.932 166.895 216.741 165.882C216.658 165.389 216.549 164.897 216.44 164.431C215.81 161.667 206.613 164.322 206.667 165.088C206.832 167.086 205.381 173.683 205.189 176.147Z" fill="#FFB27D"/><path d="M215.755 181.621L216.139 177.296L210.691 178.337L212.772 182.196L215.755 181.621Z" fill="#233862"/><path d="M217.425 171.74L220.682 176.694C220.682 176.694 220.682 179.733 217.863 181.95L213.401 177.817C213.401 177.817 216.275 176.722 217.425 171.74Z" fill="#DCEAFF"/><path d="M213.401 177.817C213.401 177.817 212.471 181.129 210.691 182.634C210.691 182.634 203.739 180.773 202.096 177.214L205.71 172.534C205.71 172.534 205.901 176.065 213.401 177.817Z" fill="#DCEAFF"/><path d="M206.613 166.648C206.613 166.648 211.047 169.577 217.178 168.893C217.069 167.935 216.932 166.895 216.74 165.882C215.536 165.581 214.523 165.417 214.523 165.417L206.613 166.648Z" fill="#E2915A"/><path d="M203.794 163.309C205.956 169.249 213.839 167.744 217.206 166.785C218.164 166.512 218.739 166.293 218.739 166.293C219.779 165.827 220.108 164.021 219.998 161.721C219.807 157.205 218.027 150.8 217.015 149.267C215.482 146.94 212.881 144.586 205.244 147.871C197.58 151.128 201.029 155.672 203.794 163.309Z" fill="#FFB27D"/><path d="M197.881 160.243C200.29 162.214 205.491 165.855 205.491 165.855C205.491 165.855 204.916 165.17 204.204 163.199C204.122 162.98 204.095 162.652 204.122 162.296C204.149 161.338 203.93 160.38 203.41 159.559C203.082 159.039 202.972 158.519 203.383 158.135C204.04 157.506 205.162 158.081 205.901 158.601C206.394 158.929 207.023 158.957 207.516 158.656C209.569 157.369 207.297 155.097 208.967 153.181C210.637 151.292 217.918 151.019 217.617 149.842C220.108 148.446 218.52 143.272 218.493 142.998C218.493 142.998 214.934 143.299 210.5 142.205C206.887 141.301 202.917 143.628 201.658 144.559C201.658 144.34 201.686 144.011 201.85 143.683C201.85 143.683 201.302 144.23 201.302 144.86C201.248 144.914 201.22 144.942 201.248 144.969C201.248 144.969 200.536 144.942 200.098 145.243C200.098 145.243 200.399 145.133 200.563 145.325C200.591 145.352 200.591 145.352 200.618 145.38C195.828 148.747 195.883 158.601 197.881 160.243Z" fill="#3B454B"/><path d="M215.208 162.433C215.208 162.433 215.591 163.172 217.535 162.57C217.535 162.57 219.177 162.05 218.903 161.174C218.931 161.174 217.151 160.982 215.208 162.433Z" fill="white"/><path d="M215.756 181.621C215.756 181.621 220.108 236.558 220.053 241.13C219.998 245.701 215.235 250.546 215.235 250.546C215.235 250.546 211.458 246.385 210.719 242.033C209.98 237.653 212.827 182.196 212.827 182.196L215.756 181.621Z" fill="#2A4E96"/><path d="M186.522 250.546C199.743 248.657 195.965 204.916 194.925 204.752C193.885 204.587 190.08 212.58 190.08 212.58L189.724 214.359C188.711 224.487 187.233 236.148 185.016 248.439C184.852 249.232 185.427 249.944 186.522 250.546Z" fill="#DCEAFF"/><path d="M147.679 283.12L175.627 291.25C179.268 292.317 183.1 290.209 184.167 286.569L187.698 274.47C188.766 270.829 186.658 266.997 183.018 265.93L155.07 257.8C151.429 256.732 147.597 258.84 146.53 262.481L142.999 274.58C141.931 278.22 144.039 282.08 147.679 283.12Z" fill="#4DDAEE"/><path d="M184.003 273.375L180.444 285.611C179.76 287.992 177.899 289.717 175.654 290.319C174.915 290.538 174.149 290.62 173.355 290.565C172.862 290.538 172.369 290.456 171.877 290.319L143.984 282.189C140.343 281.122 138.208 277.262 139.276 273.622L142.834 261.386C143.902 257.745 147.761 255.61 151.402 256.678L161.01 259.47L161.776 256.869C162.132 255.665 163.391 254.953 164.596 255.309L165.636 255.61L171.466 257.307L172.917 257.718C173.492 257.882 173.984 258.265 174.286 258.813C174.587 259.36 174.641 259.962 174.477 260.537L173.711 263.138L179.267 264.753C179.486 264.807 179.705 264.89 179.897 264.972C182.005 265.82 183.51 267.654 184.03 269.762C184.331 270.966 184.331 272.198 184.003 273.375ZM162.378 259.88L172.342 262.809L173.108 260.209C173.245 259.771 172.972 259.278 172.534 259.141L170.015 258.402L165.417 257.061L164.185 256.705C164.103 256.678 164.021 256.678 163.939 256.678C163.583 256.678 163.254 256.924 163.145 257.28L162.378 259.88Z" fill="#27C3E9"/><path d="M170.727 252.079C170.727 252.079 171.603 259.333 169.961 259.223C168.318 259.114 164.349 258.347 164.103 257.088C163.829 255.829 167.141 250.026 167.141 250.026L170.727 252.079Z" fill="#FFB27D"/><path d="M170.535 252.052C170.535 252.052 171.767 253.585 171.877 254.816C171.986 256.021 172.588 258.156 172.014 258.293C171.466 258.43 170.426 255.638 170.426 255.638L170.535 252.052Z" fill="#FFB27D"/><path d="M196.43 178.118C196.43 178.118 189.423 179.787 183.866 190.463C178.309 201.111 173.93 222.626 171.302 228.292C168.647 233.958 166.648 250.984 166.648 250.984C166.648 250.984 167.059 251.833 168.482 252.134C169.577 252.38 170.727 252.271 170.727 252.271C170.727 252.271 181.156 235.573 182.662 229.551C183.483 226.294 195.855 200.29 195.855 200.29L196.43 178.118Z" fill="white"/></g><defs><filter id="filter0_d_654_1404" x="0" y="0" width="288" height="430.975" filterUnits="userSpaceOnUse" color-interpolation-filters="sRGB"><feFlood flood-opacity="0" result="BackgroundImageFix"/><feColorMatrix in="SourceAlpha" type="matrix" values="0 0 0 0 0 0 0 0 0 0 0 0 0 0 0 0 0 0 127 0" result="hardAlpha"/><feOffset/><feGaussianBlur stdDeviation="15"/><feComposite in2="hardAlpha" operator="out"/><feColorMatrix type="matrix" values="0 0 0 0 0 0 0 0 0 0 0 0 0 0 0 0 0 0 0.17 0"/><feBlend mode="normal" in2="BackgroundImageFix" result="effect1_dropShadow_654_1404"/><feBlend mode="normal" in="SourceGraphic" in2="effect1_dropShadow_654_1404" result="shape"/></filter><filter id="filter1_d_654_1404" x="109" y="112" width="163" height="288.576" filterUnits="userSpaceOnUse" color-interpolation-filters="sRGB"><feFlood flood-opacity="0" result="BackgroundImageFix"/><feColorMatrix in="SourceAlpha" type="matrix" values="0 0 0 0 0 0 0 0 0 0 0 0 0 0 0 0 0 0 127 0" result="hardAlpha"/><feOffset/><feGaussianBlur stdDeviation="15"/><feComposite in2="hardAlpha" operator="out"/><feColorMatrix type="matrix" values="0 0 0 0 0 0 0 0 0 0 0 0 0 0 0 0 0 0 0.17 0"/><feBlend mode="normal" in2="BackgroundImageFix" result="effect1_dropShadow_654_1404"/><feBlend mode="normal" in="SourceGraphic" in2="effect1_dropShadow_654_1404" result="shape"/></filter></defs></svg>