<svg width="159" height="215" viewBox="0 0 159 215" fill="none" xmlns="http://www.w3.org/2000/svg"><g filter="url(#filter0_d_11_21982)"><path d="M96.3348 170.445C96.8241 170.955 96.9092 171.551 96.7177 172.189C96.3561 173.38 95.0159 174.763 93.463 176.167C93.2716 176.337 93.0801 176.507 92.9312 176.656C92.8887 176.699 92.8461 176.741 92.8036 176.784C92.7823 176.805 92.7398 176.848 92.7185 176.869C91.272 178.358 91.8676 178.635 89.2724 181.613C86.3155 185.016 84.1883 185.187 83.5501 184.91C83.0183 184.676 83.9756 182.91 85.0392 180.932C85.0817 180.826 85.1455 180.741 85.1881 180.634C85.337 180.379 85.4646 180.102 85.6135 179.826C86.8473 177.422 86.4431 176.359 85.9539 172.912C85.5497 170.104 80.7847 157.426 80.7847 157.426L86.6984 156.086C86.6984 156.086 89.0171 166.254 91.0805 167.743C92.1867 168.53 93.3779 168.488 94.4203 169.062C94.4841 169.105 94.5692 169.147 94.633 169.19C95.2286 169.573 95.8243 169.934 96.3348 170.445Z" fill="#E49963"/><path d="M96.3348 170.445C96.8241 170.955 96.9092 171.551 96.7177 172.189C96.2497 173.38 94.9521 174.763 93.4418 176.146C93.2503 176.337 93.0801 176.486 92.91 176.656C92.8674 176.699 92.8249 176.741 92.7823 176.784C92.7611 176.805 92.7185 176.848 92.6972 176.869C91.2507 178.358 91.8463 178.635 89.2511 181.613C86.2942 185.016 84.167 185.186 83.5288 184.91C82.997 184.676 83.9543 182.91 85.0179 180.932C85.6135 180.677 88.3789 179.4 90.3573 176.55C92.1016 174.061 93.2078 170.934 94.399 169.083C94.4628 169.126 94.5479 169.168 94.6117 169.211C95.2286 169.573 95.8243 169.934 96.3348 170.445Z" fill="#4A75CB"/><path d="M48.0253 169.168C47.7487 171.019 45.1109 170.849 42.1328 170.296C39.1547 169.721 39.8992 170.551 35.7085 170.296C31.5179 170.041 30.1565 168.551 30.0076 167.935C29.8586 167.381 31.9221 167.084 34.1131 166.722C34.3896 166.68 34.6662 166.637 34.9427 166.573C37.4316 166.126 39.1759 164.425 41.367 162.978C43.4517 161.617 46.4086 156.341 46.4086 156.341L52.1521 156.511C52.1521 156.511 49.3867 161.234 48.3231 163.276C47.7062 164.467 47.8125 166.02 47.9614 167.211C48.0465 167.849 48.1103 168.509 48.0253 169.168Z" fill="#E49963"/><path d="M42.1327 170.296C39.1546 169.721 39.8991 170.551 35.7084 170.296C31.5178 170.041 30.1563 168.551 30.0074 167.935C29.8585 167.381 31.9219 167.084 34.113 166.722L34.1343 166.765C34.1343 166.765 36.7295 168.403 40.2182 168.317C43.0474 168.232 46.0042 167.275 47.9613 167.211C48.0464 167.849 48.1102 168.509 48.0251 169.168C47.7486 171.04 45.1108 170.87 42.1327 170.296Z" fill="#4A75CB"/><path d="M56.4704 84.4191C56.4704 84.4191 54.9388 81.1432 53.4285 81.0793C51.9181 81.0155 47.1105 80.505 46.7915 81.207C46.4936 81.909 46.9617 84.334 48.0253 85.1849C49.0889 86.0145 55.5131 87.1207 55.5131 87.1207L56.4704 84.4191Z" fill="#E49963"/><path d="M68.085 131.452L82.1248 164.042C82.1248 164.042 84.0393 164.127 85.8262 163.51C87.4642 162.935 89.3362 161.574 89.3362 161.574C89.3362 161.574 84.6562 129.836 78.6999 123.496C72.7437 117.136 68.085 131.452 68.085 131.452Z" fill="#4463A3"/><path d="M116.225 115.519C116.225 115.519 80.1466 105.33 72.3822 108.287C64.5965 111.244 43.2603 159.681 43.2603 159.681C43.2603 159.681 43.8346 160.362 45.3237 160.851C46.7064 161.298 50.0036 161.085 50.0036 161.085C50.0036 161.085 70.4889 141.621 72.7651 136.132C75.0412 130.644 75.807 125.496 78.381 125.879C80.9549 126.262 111.928 136.707 118.437 129.219C124.968 121.731 122.691 112.541 122.691 112.541L116.225 115.519Z" fill="#2A4E96"/><path d="M91.7188 60.8493C91.1019 59.7006 90.3573 57.6584 89.8468 53.9783C89.9106 54.3399 90.7828 58.9773 92.7186 61.53C100.334 65.9972 115.289 81.441 115.182 84.5255C115.182 84.5255 119.735 75.8251 119.82 75.7825C119.82 75.7825 128.414 63.636 117.182 57.5095C111.481 54.3825 111.289 50.0216 111.311 46.2352C111.353 42.4274 108.779 26.1966 97.909 31.0467C97.909 31.0467 96.1009 30.3447 95.2925 30.5149C95.2925 30.5149 95.952 30.6 96.2923 30.9403C94.9947 30.9403 93.1653 31.1105 91.6762 32.0678C87.7621 34.5353 85.1669 55.4248 91.7188 60.8493Z" fill="#1C468A"/><path d="M93.1653 61.7641C93.1227 61.7854 96.8241 63.4659 99.4832 62.5938C101.993 61.7641 103.482 58.3818 103.461 58.3818C102.376 58.2329 101.993 56.7651 101.674 50.3834L101.185 50.5111L93.0802 52.5532C93.0802 52.5532 93.3993 55.1272 93.5269 57.5522C93.6545 59.5731 93.6332 61.5089 93.1653 61.7641Z" fill="#E49963"/><path d="M93.1015 52.5318C93.1015 52.5318 93.4206 55.1058 93.5482 57.5308C98.1218 57.1692 100.334 52.8722 101.206 50.4897L93.1015 52.5318Z" fill="#D68D5D"/><path d="M101.993 49.5538C101.993 49.5538 104.206 45.6397 104.61 42.3637C104.908 40.0238 103.291 31.4935 94.7182 33.174C94.7182 33.174 92.2293 33.5569 89.9531 35.2587C88.145 36.6202 85.571 39.4919 88.9746 46.8309L89.8893 49.3198L101.993 49.5538Z" fill="#1C468A"/><path d="M91.6762 54.9143C91.6762 54.9143 102.525 54.5314 102.206 47.7881C101.866 41.0234 103.036 36.4286 96.1008 36.3861C89.1448 36.3435 87.9322 38.9813 87.5068 41.2574C87.0601 43.5336 88.847 54.8292 91.6762 54.9143Z" fill="#E49963"/><path d="M101.057 37.386C101.057 37.386 93.3993 32.706 91.2295 36.3223C90.485 35.748 89.2086 35.3651 87.6345 37.4923C85.2732 40.6619 87.7834 45.9375 87.7834 45.9375C88.8257 46.0013 88.8896 42.4488 89.3363 40.7045C89.6766 39.3856 90.9742 37.9816 91.5911 37.386C92.6548 39.4707 95.5053 44.4484 99.1428 45.1929C103.759 46.1289 105.673 44.81 105.673 44.81C105.673 44.81 102.036 42.1935 101.057 37.386Z" fill="#1C468A"/><path d="M124.542 115.285C124.031 116.945 122.266 117.455 119.841 117.285C115.225 116.987 108.269 114.243 103.248 112.371C95.5903 109.499 92.3569 112.733 89.868 110.797C87.3792 108.861 92.2505 104.011 86.741 82.9088C84.869 75.7613 93.5907 59.7645 93.5907 59.7645C93.5907 59.7645 94.4628 63.9338 103.461 58.3605C103.504 58.3392 107.63 63.2744 111.396 69.6348C115.565 76.6547 119.649 85.1637 118.798 89.716C117.203 98.3738 126.01 110.478 124.542 115.285Z" fill="#27C3E9"/><path d="M93.5907 59.7644L89.166 83.0577C89.166 83.0577 88.5279 84.334 87.5281 86.1634C85.1668 90.4392 80.7847 97.7356 77.7853 98.6078C76.2963 99.0332 73.0416 97.9483 69.4253 96.3529C62.5756 93.311 54.407 88.4396 54.407 88.4396C53.7475 85.3976 56.2789 82.7811 56.2789 82.7811C56.2789 82.7811 72.5736 87.9716 74.169 88.0141C77.6364 88.0779 80.3167 71.2089 83.2736 65.4654C85.4008 61.296 93.5907 59.7644 93.5907 59.7644Z" fill="#27C3E9"/><path d="M93.8885 50.7024C93.8885 50.7024 93.7396 51.5745 91.591 51.5533C91.591 51.5533 89.7829 51.532 89.8042 50.596C89.7829 50.5747 91.4847 49.8089 93.8885 50.7024Z" fill="white"/><path d="M124.542 115.285C124.031 116.945 122.266 117.455 119.841 117.285C116.607 116.073 102.61 111.456 102.589 107.84C102.546 102.501 104.95 102.203 102.908 95.7149C101.27 90.5031 113.438 80.0371 115.352 77.8035C119.522 84.8234 119.649 85.1425 118.798 89.6948C117.203 98.3739 126.01 110.478 124.542 115.285Z" fill="#2267C3"/><path d="M87.528 86.1635C85.1668 90.4392 80.7847 97.7357 77.7853 98.6078C76.2962 99.0333 73.0415 97.9484 69.4252 96.353C72.0417 96.8848 74.5306 96.7359 76.9557 96.3742C79.5722 95.9913 80.1891 92.7154 84.1032 87.6526C86.6346 84.3766 87.3366 85.1211 87.528 86.1635Z" fill="#AA413E"/><path d="M100.738 95.7148C100.738 95.7148 98.3557 94.0556 96.2072 94.5874C94.0587 95.1192 93.0802 96.6721 93.1865 97.3315C93.3142 98.0123 94.548 99.863 96.2285 99.9481C97.8877 100.033 102.546 98.6079 102.546 98.6079L100.738 95.7148Z" fill="#E49963"/><path d="M103.461 58.3605C103.461 58.3605 112.332 58.4456 115.608 62.5725C120.224 68.3586 131.924 94.5661 127.201 98.225C121.883 102.352 100.292 99.4801 100.292 99.4801C100.292 99.4801 99.4832 96.4594 100.313 94.949C101.142 93.4387 115.757 90.2904 116.416 89.5884C117.054 88.8651 107.248 76.7611 107.141 74.719C107.035 72.6768 103.461 58.3605 103.461 58.3605Z" fill="#27C3E9"/><path d="M98.3343 106.245L65.0643 107.946L58.0019 87.3334L91.2081 85.6529L98.3343 106.245Z" fill="#1C468A"/><path d="M108.66 105.719L65.1724 107.934L65.1313 107.126L108.619 104.912L108.66 105.719Z" fill="#163560"/><path d="M75.0836 96.6081C74.8283 95.8849 75.2325 95.268 75.9558 95.2254C76.7003 95.1829 77.4874 95.736 77.7426 96.4592C77.9979 97.1825 77.5937 97.7994 76.8705 97.8419C76.1259 97.8845 75.3176 97.3314 75.0836 96.6081Z" fill="white"/></g><defs><filter id="filter0_d_11_21982" x="-0.000183105" y="0.150146" width="158.303" height="214.85" filterUnits="userSpaceOnUse" color-interpolation-filters="sRGB"><feFlood flood-opacity="0" result="BackgroundImageFix"/><feColorMatrix in="SourceAlpha" type="matrix" values="0 0 0 0 0 0 0 0 0 0 0 0 0 0 0 0 0 0 127 0" result="hardAlpha"/><feOffset/><feGaussianBlur stdDeviation="15"/><feComposite in2="hardAlpha" operator="out"/><feColorMatrix type="matrix" values="0 0 0 0 0 0 0 0 0 0 0 0 0 0 0 0 0 0 0.17 0"/><feBlend mode="normal" in2="BackgroundImageFix" result="effect1_dropShadow_11_21982"/><feBlend mode="normal" in="SourceGraphic" in2="effect1_dropShadow_11_21982" result="shape"/></filter></defs></svg>