<svg width="441" height="73" viewBox="0 0 441 73" fill="none" xmlns="http://www.w3.org/2000/svg"><path d="M143.194 23.3463C144.237 25.029 145.823 24.6141 147.24 24.7732C148.414 24.9048 149.6 24.885 150.749 24.9307C151.433 25.6301 151.296 26.1614 150.364 26.1896C142.97 26.4078 135.574 26.5785 127.441 26.782C125.734 25.5802 123.468 23.9843 120.541 21.9248C117.852 21.1881 114.235 22.6315 110.781 21.0405C109.204 20.3137 107.258 20.5169 105.486 20.6111C95.9817 21.1255 86.5196 20.3853 77.0603 19.7415C73.2394 19.4818 69.4331 20.9619 65.6034 19.736C64.5537 19.4006 63.1691 19.7535 62.1218 20.3089C55.8434 23.6337 49.2925 22.8543 42.7956 22.684C35.9768 22.5041 29.1452 22.3741 22.3549 21.7484C16.6197 21.22 11.2133 22.9025 5.45146 24.1971C3.88113 28.5396 2.3427 32.7918 0.701229 37.3289C0.890752 40.7038 1.09002 44.2405 1.24387 46.9859C2.71906 49.681 4.3833 50.2709 6.14969 50.7327C15.7134 53.2292 25.4402 54.5037 35.1825 55.4264C63.2697 58.0886 91.4697 58.3865 119.634 59.4073C128.537 59.7305 137.43 59.5246 146.328 58.9421C147.801 58.8457 149.281 58.8198 150.755 58.8589C162.31 59.157 173.863 59.5904 185.42 59.7483C191.338 59.8304 197.267 59.3581 203.19 59.274C210.894 59.1628 218.602 59.0746 226.304 59.1983C230.474 59.2646 234.574 59.0215 238.713 58.1616C242.486 57.3785 246.313 56.9989 250.186 57.9295C255.453 59.1946 260.813 58.9999 266.122 57.764C269.044 57.0841 271.917 56.9552 274.903 57.012C279.587 57.1005 284.322 57.4341 289.031 56.1351C291.306 55.5062 293.76 55.8386 296.133 55.8106C301.145 55.749 306.237 56.4214 311.149 55.5074C315.903 54.623 320.621 55.0849 325.335 54.4094C329.753 53.7775 334.214 53.6792 338.636 53.0965C346.324 52.0825 354.067 52.3253 361.722 51.4975C377.377 49.802 393.096 49.0665 408.689 46.4092C411.917 45.8589 415.124 45.1007 419.15 44.2722C420.373 44.5297 422.391 44.9542 424.674 45.4349C426.453 44.765 428.429 44.0196 430.465 43.2506C430.817 42.3232 431.148 41.4522 431.532 40.4364C428.723 38.7992 426.108 37.2759 423.37 35.6807C422.011 35.6267 420.457 35.1668 419.071 35.5782C412.932 37.3962 406.661 36.4877 400.495 37.497C397.742 37.947 395.216 37.2315 392.594 35.5544C392.286 34.0233 391.948 32.3441 391.559 30.4149C390.002 29.8766 388.342 29.3015 386.686 28.7283C386.862 27.7939 387.023 26.934 387.205 25.9689C386.337 25.8136 385.474 25.6587 384.747 25.5286C382.51 26.7383 384.062 30.6715 380.404 31.7447C378.267 31.5144 375.083 31.1708 371.791 30.8147C371.548 29.4917 371.374 28.5499 371.243 27.8383C372.462 25.2993 376.11 23.6774 385.033 21.6358C378.395 20.1563 372.447 19.1677 366.339 21.2006C364.661 21.7588 362.824 21.5583 361.061 21.7345C351.004 22.744 340.928 22.8538 330.858 23.2885C327.604 23.4299 324.361 24.1314 321.106 24.325C318.767 24.4636 316.416 24.184 314.35 24.1018C312.519 22.9588 313.054 20.7777 312.312 19.2815C312.124 19.0832 311.901 18.6533 311.708 18.675C310.065 18.8625 308.119 17.4735 306.717 20.3853C307.485 21.1533 308.285 21.9535 309.091 22.7589C308.747 23.2265 308.4 24.0903 308.065 24.09C305.131 24.0826 302.2 23.9204 298.57 23.776C297.97 22.2806 297.189 20.331 296.734 19.197C289.055 18.2226 282.539 19.1397 276.045 19.3006C273.74 19.3574 271.438 20.5546 269.24 21.1997C267.538 20.6426 265.764 19.3403 264.23 19.692C259.467 20.7799 254.765 20.247 250.031 20.1207C246.186 20.0184 242.313 19.7012 238.494 20.1203C230.774 20.965 223.081 20.2349 215.378 20.4717C210.341 20.627 205.309 21.0239 200.271 21.1971C198.215 21.2687 196.154 21.0529 194.097 20.9286C190.848 20.7341 187.564 19.9934 184.36 20.3879C173.979 21.6685 163.639 21.2718 153.288 20.6235C150.299 20.4361 147.344 20.5926 144.528 22.0322C144.027 22.2863 143.641 22.8926 143.194 23.3463ZM159.662 25.7045C167.218 24.6037 168.817 24.6787 181.287 26.9188C174.508 26.9918 167.729 26.8608 160.954 26.6549C160.525 26.6427 160.115 26.0521 159.662 25.7045ZM346.529 27.2924C351.708 24.6629 355.331 24.4138 359.005 25.4197C359.934 25.6736 360.482 26.4526 359.427 28.0372C355.79 27.6756 351.866 29.7707 346.529 27.2924ZM248.503 24.7193C251.103 24.2322 253.703 23.745 256.251 23.2688C257.035 23.9722 257.715 24.5801 258.389 25.1845C258.196 25.5406 258.102 25.9479 257.914 26.0285C254.621 27.4539 251.542 25.5972 248.503 24.7193ZM228.581 26.2386C227.546 26.3459 226.989 26.4039 226.434 26.4617C226.431 26.3588 226.429 26.2558 226.426 26.1529C226.985 26.1751 227.542 26.1973 228.581 26.2386ZM210.211 25.472C211.094 25.5072 211.77 25.5341 213.306 25.5951C211.955 25.9542 211.474 26.1455 210.988 26.1801C210.803 26.1923 210.605 25.845 210.211 25.472ZM306.104 31.7598C305.947 31.5285 305.667 31.2989 305.669 31.0656C305.67 30.7965 305.897 30.3208 306.065 30.2883C306.811 30.1484 307.113 30.5993 306.815 31.395C306.738 31.6024 306.35 31.6424 306.104 31.7598ZM281.702 24.3792C282.139 24.1127 282.563 23.694 283.009 23.6481C283.235 23.6245 283.501 24.2713 283.749 24.6156C283.525 24.7568 283.271 25.0566 283.084 25.0068C282.607 24.8834 282.164 24.6015 281.702 24.3792Z" fill="#2267C4"/><path d="M329.411 17.9827C327.649 15.7183 325.757 17.108 323.94 17.0911C323.643 20.0763 324.88 20.8207 326.416 20.8704C327.964 20.9221 329.24 20.1963 329.411 17.9827Z" fill="#2267C4"/><path d="M367.519 15.1703C367.522 15.5 367.489 16.1056 367.536 16.114C368.02 16.2018 368.619 16.4149 368.989 16.1621C369.649 15.7103 369.656 14.8362 369.035 14.6141C368.615 14.4652 368.031 14.9623 367.519 15.1703Z" fill="#2267C4"/><path d="M360.487 18.5418C360.15 17.5854 360.079 16.77 359.752 16.5776C359.057 16.1714 357.991 17.1585 357.978 18.0945C357.974 18.3668 358.198 18.8798 358.305 18.8726C358.999 18.8317 359.69 18.6781 360.487 18.5418Z" fill="#2267C4"/><path d="M436.018 38.512C437.279 39.789 437.841 40.4084 438.459 40.9338C438.567 41.0262 439.079 40.7675 439.106 40.6038C439.2 40.0414 439.273 38.984 439.157 38.9451C438.437 38.7093 437.664 38.6982 436.018 38.512Z" fill="#2267C4"/></svg>