<svg width="322" height="68" viewBox="0 0 322 68" fill="none" xmlns="http://www.w3.org/2000/svg"><path d="M104.966 21.8253C105.71 23.4961 106.873 23.0644 107.906 23.2083C108.763 23.3272 109.63 23.2947 110.469 23.3281C110.961 24.0199 110.855 24.5524 110.174 24.5906C104.769 24.8878 99.3635 25.1378 93.4186 25.4283C92.1841 24.2453 90.5455 22.6743 88.4294 20.6471C86.4725 19.9395 83.8139 21.421 81.3076 19.8677C80.1626 19.1581 78.7388 19.3821 77.4429 19.4953C70.4931 20.1112 63.5874 19.4728 56.6828 18.9306C53.8938 18.7119 51.0968 20.2321 48.3117 19.0479C47.5484 18.7238 46.5329 19.0914 45.7617 19.6578C41.1387 23.0484 36.3605 22.3396 31.6154 22.2389C26.635 22.1321 21.6449 22.0755 16.6901 21.5227C12.5053 21.056 8.53705 22.7957 4.3132 24.1515C3.11928 28.5089 1.94964 32.7759 0.701686 37.3286C0.803998 40.7 0.911697 44.2331 0.994709 46.9756C2.04369 49.6538 3.25336 50.2256 4.53906 50.6683C11.5001 53.0612 18.5935 54.231 25.7019 55.0489C46.1956 57.4091 66.7972 57.4047 87.365 58.1234C93.8665 58.351 100.366 58.0499 106.874 57.3723C107.951 57.2602 109.033 57.2185 110.11 57.2417C118.549 57.4159 126.986 57.7253 135.429 57.7594C139.752 57.778 144.089 57.2424 148.417 57.0949C154.048 56.9012 159.68 56.7305 165.307 56.7715C168.353 56.7932 171.351 56.5062 174.385 55.6024C177.15 54.7792 179.95 54.3587 182.77 55.2475C186.605 56.4556 190.523 56.2036 194.415 54.9113C196.558 54.2004 198.658 54.0408 200.839 54.0655C204.261 54.1037 207.717 54.3865 211.172 53.0376C212.841 52.3846 214.63 52.6906 216.364 52.6372C220.027 52.5219 223.74 53.1394 227.339 52.1732C230.822 51.2382 234.264 51.6494 237.716 50.9236C240.951 50.2447 244.211 50.0987 247.449 49.4688C253.077 48.3729 258.732 48.5326 264.334 47.6232C275.791 45.7606 287.284 44.8571 298.706 42.0339C301.07 41.4492 303.421 40.657 306.372 39.7857C307.262 40.0299 308.733 40.4327 310.395 40.8887C311.702 40.2 313.154 39.4337 314.651 38.6433C314.917 37.7125 315.169 36.8383 315.46 35.8188C313.425 34.2124 311.531 32.7178 309.547 31.1527C308.555 31.1132 307.425 30.6701 306.407 31.0962C301.902 32.9792 297.33 32.1383 292.814 33.2132C290.797 33.6926 288.96 33.0044 287.062 31.3561C286.853 29.8289 286.624 28.1541 286.361 26.2299C285.229 25.7085 284.022 25.1514 282.818 24.5962C282.957 23.6603 283.084 22.7991 283.227 21.8324C282.594 21.6866 281.966 21.5409 281.435 21.4186C279.789 22.6518 280.88 26.5667 278.196 27.6786C276.637 27.4714 274.314 27.162 271.913 26.8414C271.749 25.5215 271.632 24.582 271.544 23.8721C272.462 21.3211 275.145 19.6608 281.686 17.5244C276.852 16.1167 272.517 15.1923 268.032 17.2898C266.8 17.8656 265.46 17.6849 264.17 17.88C256.811 18.9968 249.447 19.2145 242.085 19.7569C239.706 19.9331 237.329 20.6691 234.949 20.8974C233.238 21.061 231.523 20.8067 230.015 20.7467C228.689 19.6238 229.103 17.4379 228.577 15.9503C228.442 15.754 228.283 15.3267 228.143 15.3505C226.94 15.5555 225.533 14.1879 224.477 17.1136C225.03 17.873 225.606 18.6643 226.186 19.4607C225.93 19.9318 225.667 20.7989 225.423 20.8023C223.279 20.8263 221.139 20.6956 218.488 20.5901C218.066 19.1018 217.516 17.1614 217.196 16.0327C211.595 15.141 206.825 16.1275 202.078 16.358C200.393 16.4394 198.699 17.6608 197.085 18.3291C195.848 17.7905 194.566 16.5077 193.441 16.8758C189.949 18.0143 186.519 17.532 183.062 17.4564C180.254 17.3953 177.427 17.1198 174.632 17.5796C168.982 18.5066 163.369 17.8593 157.738 18.1786C154.057 18.3878 150.375 18.8384 146.693 19.0655C145.19 19.1591 143.686 18.9654 142.184 18.8633C139.812 18.7037 137.421 17.9984 135.075 18.4271C127.477 19.8184 119.926 19.5326 112.37 18.9955C110.188 18.8402 108.027 19.0283 105.954 20.4974C105.585 20.7568 105.297 21.367 104.966 21.8253ZM116.973 24.0061C122.506 22.8247 123.673 22.8826 132.76 24.9882C127.807 25.1337 122.855 25.0754 117.907 24.9422C117.593 24.9346 117.3 24.3486 116.973 24.0061ZM253.493 23.5911C257.304 20.9073 259.955 20.6195 262.628 21.5856C263.304 21.8295 263.696 22.6023 262.909 24.1975C260.255 23.875 257.365 26.0113 253.493 23.5911ZM181.896 22.0695C183.801 21.5546 185.706 21.0398 187.573 20.5366C188.138 21.2312 188.629 21.8316 189.114 22.4285C188.97 22.7866 188.897 23.1947 188.758 23.2773C186.337 24.7374 184.108 22.9144 181.896 22.0695ZM167.323 23.8015C166.566 23.9199 166.159 23.9838 165.752 24.0475C165.751 23.9447 165.751 23.8418 165.75 23.7389C166.158 23.7552 166.565 23.7714 167.323 23.8015ZM153.909 23.2321C154.555 23.2578 155.048 23.2774 156.169 23.322C155.178 23.6953 154.825 23.8918 154.47 23.9315C154.334 23.9457 154.193 23.6007 153.909 23.2321ZM223.907 28.4898C223.795 28.2602 223.593 28.0337 223.597 27.8005C223.601 27.5315 223.771 27.0536 223.895 27.0194C224.442 26.8715 224.657 27.3189 224.431 28.1175C224.373 28.3257 224.088 28.3698 223.907 28.4898ZM206.157 21.3738C206.479 21.1027 206.793 20.6797 207.12 20.629C207.285 20.603 207.472 21.2466 207.65 21.5881C207.485 21.7316 207.296 22.0341 207.16 21.9863C206.813 21.868 206.492 21.5911 206.157 21.3738Z" fill="#2267C4"/><path d="M241.085 14.4692C239.822 12.2246 238.425 13.634 237.097 13.6366C236.848 16.6237 237.744 17.3545 238.866 17.3877C239.996 17.4229 240.937 16.6837 241.085 14.4692Z" fill="#2267C4"/><path d="M268.959 11.2498C268.958 11.5793 268.927 12.185 268.961 12.1928C269.314 12.2754 269.749 12.482 270.022 12.2253C270.51 11.7667 270.523 10.8928 270.072 10.6775C269.767 10.5332 269.335 11.0363 268.959 11.2498Z" fill="#2267C4"/><path d="M263.785 14.6948C263.549 13.7424 263.506 12.9282 263.269 12.7393C262.766 12.3408 261.976 13.3389 261.957 14.2746C261.951 14.5468 262.109 15.0572 262.187 15.0489C262.694 15.0005 263.201 14.8396 263.785 14.6948Z" fill="#2267C4"/><path d="M318.759 33.8476C319.667 35.1106 320.071 35.7236 320.516 36.2422C320.594 36.3334 320.971 36.0694 320.993 35.9055C321.067 35.3423 321.132 34.2845 321.048 34.2469C320.524 34.0189 319.96 34.0161 318.759 33.8476Z" fill="#2267C4"/></svg>