<svg width="64" height="64" viewBox="0 0 64 64" fill="none" xmlns="http://www.w3.org/2000/svg">
<path fill-rule="evenodd" clip-rule="evenodd" d="M49.4639 49.3002C52.568 48.4413 55.3068 46.5923 57.2639 44.0344C59.2904 41.4015 60.3935 38.1745 60.4027 34.8519V27.5894L49.4652 24.4373C46.0329 25.2013 41.974 26.5937 38.5189 27.5894V34.8519C38.5282 38.1744 39.6313 41.4014 41.6577 44.0344C43.477 46.4009 46.5315 48.6533 49.4639 49.3002ZM45.446 37.6411C45.2826 37.5094 45.1776 37.3186 45.1539 37.1101C45.1302 36.9016 45.1897 36.6922 45.3193 36.5272C45.449 36.3622 45.6385 36.255 45.8467 36.2288C46.0549 36.2026 46.2651 36.2595 46.4316 36.3872L48.7098 38.1786L52.3809 33.9382C52.519 33.7785 52.7149 33.6803 52.9255 33.665C53.136 33.6498 53.344 33.7189 53.5037 33.857C53.6633 33.9951 53.7616 34.191 53.7768 34.4016C53.792 34.6121 53.723 34.8201 53.5849 34.9798L49.4458 39.7614C49.3814 39.845 49.3012 39.9149 49.2097 39.9673C49.1182 40.0196 49.0172 40.0533 48.9126 40.0664C48.808 40.0794 48.7018 40.0717 48.6002 40.0434C48.4986 40.0152 48.4036 39.9672 48.3208 39.9021L45.4458 37.6416L45.446 37.6411ZM45.3075 32.7136C46.2683 31.7525 47.5327 31.1543 48.8851 31.0209C50.2376 30.8876 51.5944 31.2272 52.7245 31.9821C53.8546 32.737 54.6879 33.8604 55.0826 35.1608C55.4773 36.4612 55.4088 37.8583 54.8889 39.1139C54.369 40.3695 53.4298 41.406 52.2314 42.0468C51.0329 42.6876 49.6494 42.8931 48.3164 42.6281C46.9835 42.3632 45.7837 41.6442 44.9214 40.5938C44.0591 39.5434 43.5877 38.2266 43.5875 36.8675C43.5865 36.096 43.738 35.3319 44.0332 34.6191C44.3284 33.9063 44.7616 33.2589 45.3079 32.7141L45.3075 32.7136ZM44.1784 31.5844C45.4005 30.3624 47.0086 29.6019 48.7286 29.4325C50.4486 29.2632 52.1742 29.6954 53.6112 30.6557C55.0482 31.6159 56.1078 33.0447 56.6095 34.6987C57.1112 36.3526 57.0238 38.1293 56.3624 39.726C55.701 41.3228 54.5064 42.6408 52.9821 43.4555C51.4578 44.2702 49.6982 44.5312 48.0031 44.194C46.308 43.8568 44.7823 42.9423 43.6858 41.6063C42.5894 40.2702 41.9901 38.5954 41.9901 36.8671C41.9889 35.8858 42.1816 34.9139 42.5571 34.0074C42.9326 33.1008 43.4836 32.2774 44.1784 31.5844ZM45.1389 49.1913C46.198 49.81 47.3232 50.3077 48.4934 50.6752V58.8594C48.4922 59.0634 48.4107 59.2587 48.2664 59.4029C48.1222 59.5471 47.927 59.6287 47.723 59.6299H9.319C9.11502 59.6287 8.91972 59.5472 8.77548 59.4029C8.63124 59.2587 8.54968 59.0634 8.5485 58.8594V56.9238H42.7715C43.399 56.9225 44.0004 56.6727 44.4441 56.229C44.8878 55.7853 45.1376 55.1839 45.1389 54.5564V49.1918V49.1913ZM50.0904 50.7768V58.8587C50.0891 59.4861 49.8392 60.0875 49.3955 60.5312C48.9519 60.9749 48.3505 61.2248 47.723 61.2262H9.319C8.69151 61.2249 8.09009 60.975 7.64639 60.5313C7.20268 60.0876 6.95282 59.4862 6.9515 58.8587V56.9238H4.3675C3.74001 56.9225 3.13857 56.6727 2.69486 56.229C2.25114 55.7853 2.00129 55.1839 2 54.5564V11.1107C1.99964 10.9031 2.08037 10.7036 2.225 10.5547L8.567 3.09693C8.64119 2.99664 8.73789 2.91517 8.8493 2.85907C8.96072 2.80297 9.08376 2.77381 9.2085 2.77393C12.004 2.77393 42.771 2.77943 42.771 2.77393C43.3984 2.77581 43.9995 3.02583 44.4431 3.4694C44.8868 3.91298 45.1369 4.51407 45.1389 5.14143V7.07655H47.723C48.3503 7.07856 48.9513 7.32864 49.3948 7.7722C49.8383 8.21576 50.0884 8.81678 50.0904 9.44405V22.9634L61.4198 26.2284C61.5858 26.2759 61.7319 26.3761 61.836 26.514C61.94 26.6518 61.9963 26.8198 61.9964 26.9925L62 34.8524C61.9884 38.5275 60.767 42.0965 58.5243 45.008C56.4004 47.7816 53.4451 49.8032 50.0904 50.7773V50.7768ZM48.4934 23.0608V9.44405C48.4931 9.23981 48.4118 9.04403 48.2674 8.8996C48.123 8.75517 47.9272 8.67388 47.723 8.67355H45.1389V24.0275L48.4934 23.0608ZM43.5419 24.4877L37.5757 26.2069C37.3922 26.2408 37.2263 26.3379 37.1069 26.4814C36.9874 26.6249 36.922 26.8056 36.922 26.9923V34.8522C36.9336 38.5273 38.155 42.0963 40.3978 45.0078C41.301 46.1842 42.3585 47.2335 43.5419 48.1276V54.5564C43.5407 54.7604 43.4591 54.9556 43.3149 55.0998C43.1707 55.244 42.9754 55.3256 42.7715 55.3268H4.3675C4.16354 55.3256 3.96826 55.2441 3.82402 55.0999C3.67979 54.9557 3.59821 54.7604 3.597 54.5564V11.9052H7.647C8.27287 11.9031 8.87246 11.6534 9.3147 11.2105C9.75694 10.7676 10.0058 10.1677 10.007 9.5418V4.36768L42.7715 4.3708C42.9758 4.37113 43.1716 4.45244 43.316 4.59689C43.4604 4.74135 43.5416 4.93717 43.5419 5.14143V24.4877ZM14.802 27.5669L17.2376 28.9732C17.3282 29.0262 17.4284 29.0608 17.5324 29.075C17.6364 29.0891 17.7421 29.0826 17.8436 29.0556C17.945 29.0287 18.0401 28.9819 18.1234 28.918C18.2067 28.8541 18.2765 28.7744 18.3288 28.6834C18.3811 28.5924 18.4149 28.4919 18.4281 28.3878C18.4414 28.2837 18.4339 28.178 18.4062 28.0768C18.3784 27.9755 18.3308 27.8808 18.2662 27.7981C18.2016 27.7153 18.1213 27.6462 18.0299 27.5947L15.5941 26.1884C15.5035 26.1349 15.4032 26.0999 15.299 26.0854C15.1948 26.0709 15.0888 26.0773 14.987 26.1041C14.8853 26.1309 14.7899 26.1777 14.7063 26.2416C14.6228 26.3056 14.5528 26.3855 14.5004 26.4768C14.4479 26.568 14.4141 26.6687 14.4009 26.7731C14.3877 26.8775 14.3954 26.9834 14.4234 27.0849C14.4515 27.1863 14.4994 27.2811 14.5644 27.3638C14.6294 27.4466 14.7101 27.5156 14.802 27.5669ZM30.361 14.5551L21.117 19.8919L23.571 21.3088L32.815 15.9713L30.361 14.5546V14.5551ZM20.2224 21.215L20.2089 24.8526C20.2088 24.9916 20.1723 25.1282 20.103 25.2488C20.0337 25.3693 19.934 25.4696 19.8139 25.5396C19.6937 25.6096 19.5573 25.6468 19.4182 25.6477C19.2792 25.6485 19.1424 25.6129 19.0214 25.5443L16.3 23.9991C16.1776 23.9296 16.0758 23.8289 16.0049 23.7072C15.9341 23.5856 15.8968 23.4473 15.8968 23.3066L15.8946 18.7163L13.5321 17.3526V28.0252L18.5506 30.9227C18.5646 30.9307 18.5781 30.9393 18.5915 30.9477L22.7708 33.3602V22.6864L20.2221 21.215H20.2224ZM16.7865 17.3918L26.0306 12.0543L23.5695 10.6338C20.4873 12.4133 17.4064 14.1925 14.327 15.9713L16.7865 17.3913V17.3918ZM27.6206 12.9728L18.3766 18.3103L19.5239 18.9728L28.7679 13.6353L27.6206 12.9728ZM17.4914 19.6377V22.8439L18.6233 23.4871L18.635 20.2979L17.4914 19.6377ZM11.9375 15.9718L11.9358 28.4843C11.9357 28.6343 11.9779 28.7812 12.0575 28.9083C12.1371 29.0354 12.2508 29.1375 12.3858 29.2029L17.7524 32.3002C17.767 32.3088 17.7819 32.3166 17.7966 32.3241L23.107 35.3899C23.2421 35.4859 23.4038 35.5375 23.5695 35.5375C23.7352 35.5375 23.8969 35.4859 24.032 35.3899L34.8015 29.1723C34.9228 29.1027 35.0235 29.0023 35.0936 28.8813C35.1636 28.7603 35.2005 28.6229 35.2005 28.4831H35.2039V15.9718C35.2039 15.8187 35.1599 15.6688 35.0771 15.54C34.9943 15.4111 34.8763 15.3088 34.737 15.2452L23.9656 9.02655C23.8432 8.95614 23.7043 8.91961 23.5631 8.92073C23.4219 8.92185 23.2835 8.96058 23.1623 9.03293C19.5549 11.1157 15.9487 13.1971 12.3436 15.2773C12.2203 15.3466 12.1177 15.4474 12.0463 15.5695C11.9748 15.6915 11.9372 15.8304 11.9371 15.9718H11.9375ZM33.607 17.3508L24.3684 22.6847V33.3605L33.607 28.0267V17.3508ZM8.48838 39.7146H11.6268C11.8385 39.7146 12.0416 39.6304 12.1914 39.4807C12.3411 39.3309 12.4253 39.1278 12.4253 38.916C12.4253 38.7043 12.3411 38.5012 12.1914 38.3514C12.0416 38.2017 11.8385 38.1175 11.6268 38.1175H8.48838C8.2766 38.1175 8.0735 38.2017 7.92375 38.3514C7.774 38.5012 7.68988 38.7043 7.68988 38.916C7.68988 39.1278 7.774 39.3309 7.92375 39.4807C8.0735 39.6304 8.2766 39.7146 8.48838 39.7146ZM14.5568 39.7146H35.3C35.5118 39.7146 35.7149 39.6304 35.8646 39.4807C36.0144 39.3309 36.0985 39.1278 36.0985 38.916C36.0985 38.7043 36.0144 38.5012 35.8646 38.3514C35.7149 38.2017 35.5118 38.1175 35.3 38.1175H14.5568C14.345 38.1175 14.1419 38.2017 13.9921 38.3514C13.8424 38.5012 13.7583 38.7043 13.7583 38.916C13.7583 39.1278 13.8424 39.3309 13.9921 39.4807C14.1419 39.6304 14.345 39.7146 14.5568 39.7146ZM8.48838 49.4981H26.5304C26.7422 49.4981 26.9453 49.4139 27.095 49.2642C27.2447 49.1144 27.3289 48.9113 27.3289 48.6996C27.3289 48.4878 27.2447 48.2847 27.095 48.1349C26.9453 47.9852 26.7422 47.9011 26.5304 47.9011H8.48838C8.2766 47.9011 8.0735 47.9852 7.92375 48.1349C7.774 48.2847 7.68988 48.4878 7.68988 48.6996C7.68988 48.9113 7.774 49.1144 7.92375 49.2642C8.0735 49.4139 8.2766 49.4981 8.48838 49.4981ZM29.4604 49.4981C29.2486 49.4981 29.0455 49.4139 28.8958 49.2642C28.746 49.1144 28.6619 48.9113 28.6619 48.6996C28.6619 48.4878 28.746 48.2847 28.8958 48.1349C29.0455 47.9852 29.2486 47.9011 29.4604 47.9011H38.6506C38.8624 47.9011 39.0655 47.9852 39.2152 48.1349C39.365 48.2847 39.4491 48.4878 39.4491 48.6996C39.4491 48.9113 39.365 49.1144 39.2152 49.2642C39.0655 49.4139 38.8624 49.4981 38.6506 49.4981H29.4604ZM8.48838 44.6063H35.6534C35.8652 44.6063 36.0683 44.5222 36.218 44.3724C36.3677 44.2227 36.4519 44.0196 36.4519 43.8078C36.4519 43.596 36.3677 43.3929 36.218 43.2432C36.0683 43.0934 35.8652 43.0093 35.6534 43.0093H8.48838C8.2766 43.0093 8.0735 43.0934 7.92375 43.2432C7.774 43.3929 7.68988 43.596 7.68988 43.8078C7.68988 44.0196 7.774 44.2227 7.92375 44.3724C8.0735 44.5222 8.2766 44.6063 8.48838 44.6063ZM8.41013 5.7413L4.52675 10.3082H7.64688C7.74696 10.3087 7.84615 10.2894 7.93874 10.2514C8.03133 10.2134 8.11549 10.1575 8.18638 10.0868C8.25766 10.0151 8.31412 9.93009 8.35251 9.83658C8.39091 9.74306 8.41048 9.64289 8.41013 9.5418V5.7413Z" fill="#252525"/>
</svg>
