<svg width="38" height="38" viewBox="0 0 38 38" fill="none" xmlns="http://www.w3.org/2000/svg">
<g clip-path="url(#clip0_163_2626)">
<path d="M22.1667 31.6667V33.25C22.1667 33.6699 21.9999 34.0727 21.7029 34.3696C21.406 34.6665 21.0033 34.8333 20.5833 34.8333H4.75C4.33007 34.8333 3.92735 34.6665 3.63041 34.3696C3.33348 34.0727 3.16667 33.6699 3.16667 33.25V4.75C3.16667 4.33007 3.33348 3.92735 3.63041 3.63041C3.92735 3.33348 4.33007 3.16667 4.75 3.16667H5.54167C6.41567 3.16667 7.125 3.876 7.125 4.75C7.125 5.624 7.83433 6.33333 8.70833 6.33333H16.625C17.499 6.33333 18.2083 5.624 18.2083 4.75C18.2083 3.876 18.9177 3.16667 19.7917 3.16667H20.5833C21.0033 3.16667 21.406 3.33348 21.7029 3.63041C21.9999 3.92735 22.1667 4.33007 22.1667 4.75V6.33333C22.1667 6.75326 22.3335 7.15599 22.6304 7.45292C22.9273 7.74985 23.3301 7.91667 23.75 7.91667C24.1699 7.91667 24.5727 7.74985 24.8696 7.45292C25.1665 7.15599 25.3333 6.75326 25.3333 6.33333V4.75C25.3333 3.49022 24.8329 2.28204 23.9421 1.39124C23.0513 0.500445 21.8431 0 20.5833 0L4.75 0C3.49022 0 2.28204 0.500445 1.39124 1.39124C0.500445 2.28204 0 3.49022 0 4.75L0 33.25C0 34.5098 0.500445 35.718 1.39124 36.6088C2.28204 37.4996 3.49022 38 4.75 38H20.5833C21.8431 38 23.0513 37.4996 23.9421 36.6088C24.8329 35.718 25.3333 34.5098 25.3333 33.25V31.6667C25.3333 31.2467 25.1665 30.844 24.8696 30.5471C24.5727 30.2501 24.1699 30.0833 23.75 30.0833C23.3301 30.0833 22.9273 30.2501 22.6304 30.5471C22.3335 30.844 22.1667 31.2467 22.1667 31.6667Z" fill="#252525"/>
<path d="M38.0007 15.8335V13.8543C38.0007 12.3264 36.7577 11.0835 35.2298 11.0835H18.6048C17.0769 11.0835 15.834 12.3264 15.834 13.8543V15.8335H38.0007ZM15.834 19.0002V24.146C15.834 25.6739 17.0769 26.9168 18.6048 26.9168H35.2298C36.7577 26.9168 38.0007 25.6739 38.0007 24.146V19.0002H15.834Z" fill="#252525"/>
</g>
<defs>
<clipPath id="clip0_163_2626">
<rect width="38" height="38" fill="white"/>
</clipPath>
</defs>
</svg>
