<svg width="92" height="98" viewBox="0 0 92 98" fill="none" xmlns="http://www.w3.org/2000/svg">
<g filter="url(#filter0_f_1030_4262)">
<ellipse cx="46" cy="71" rx="29" ry="10" fill="black" fill-opacity="0.24"/>
</g>
<g clip-path="url(#clip0_1030_4262)">
<path d="M45.2084 33.9856C46.9309 36.9691 47.1181 41.4823 45.6263 44.0662C44.1346 46.65 41.5288 46.3259 39.8063 43.3424C38.0838 40.3588 37.8967 35.8457 39.3884 33.2619C40.8801 30.6781 43.4859 31.0022 45.2084 33.9856Z" fill="#284363"/>
<path d="M43.0841 36.3788C43.9258 37.8367 44.0172 40.042 43.2883 41.3046C42.5594 42.5672 41.2861 42.4088 40.4445 40.9509C39.6028 39.4931 39.5114 37.2878 40.2403 36.0252C40.9692 34.7627 42.2425 34.921 43.0841 36.3788Z" fill="#D9DBDF"/>
<path d="M42.7311 36.9899C43.3477 38.0579 43.4146 39.6734 42.8807 40.5983C42.3467 41.5232 41.414 41.4072 40.7975 40.3392C40.1809 39.2712 40.114 37.6556 40.6479 36.7308C41.1818 35.8059 42.1146 35.922 42.7311 36.9899Z" fill="#2E527C"/>
<path d="M42.4748 37.4344C42.9279 38.2192 42.977 39.4062 42.5846 40.0859C42.1922 40.7655 41.5068 40.6804 41.0537 39.8956C40.6006 39.1108 40.5515 37.9237 40.9439 37.2442C41.3363 36.5643 42.0217 36.6496 42.4748 37.4344Z" fill="#D9DBDF"/>
<path d="M72.146 49.5726C73.8685 52.5562 74.0556 57.0693 72.5638 59.6531C71.0721 62.2369 68.4664 61.9128 66.7439 58.9294C65.0213 55.9459 64.8342 51.4326 66.326 48.8488C67.8179 46.265 70.4235 46.5891 72.146 49.5726Z" fill="#284363"/>
<path d="M70.0218 51.9648C70.8636 53.4227 70.9549 55.6279 70.2261 56.8906C69.4972 58.1532 68.2239 57.9948 67.3823 56.5369C66.5405 55.079 66.4492 52.8737 67.178 51.6111C67.9069 50.3486 69.1801 50.5069 70.0218 51.9648Z" fill="#D9DBDF"/>
<path d="M69.6689 52.5758C70.2855 53.6437 70.3524 55.2593 69.8185 56.1842C69.2844 57.109 68.3518 56.9931 67.7352 55.9252C67.1186 54.8572 67.0517 53.2416 67.5856 52.3168C68.1195 51.3919 69.0522 51.5078 69.6689 52.5758Z" fill="#2E527C"/>
<path d="M69.6634 53.0203C70.1165 53.8052 70.1656 54.9922 69.7732 55.6718C69.3808 56.3514 68.6955 56.2662 68.2424 55.4814C67.7893 54.6966 67.7401 53.5096 68.1325 52.8299C68.5249 52.1503 69.2103 52.2355 69.6634 53.0203Z" fill="#D9DBDF"/>
<path d="M34.396 43.4017L39.8268 46.537L27.0788 53.8971L27.8155 55.1729L34.7783 51.1529L41.3 47.3876L46.7141 50.5132L34.0411 57.8418L34.7787 59.1176L41.6697 55.1327L41.6758 55.1433L48.2064 51.3749L53.6435 54.514L40.9056 61.8433L41.6404 63.12L62.0194 51.3942L68.5149 55.1434L69.2516 53.8677L62.4121 49.9198L62.437 49.8764L56.6072 46.5275L62.0123 43.4087L68.529 47.1711L69.2656 45.8955L62.7364 42.1257V35.8623L68.529 39.2066L69.2656 37.9308L62.7364 34.1611V27.8976L68.529 31.2419L69.2656 29.9662L62.7364 26.1966V24.6307H61.2628V25.3459L55.8385 22.2142V18.6574H54.3652V21.3636L48.9415 18.2322V12.6836H47.4682V17.381L43.1377 14.8808L42.0377 6.6123L40.5769 6.80713L41.6597 14.9458L36.639 17.845L35.1311 10.5858L33.6885 10.8851L35.2954 18.6208L29.4411 22.0014L28.1732 14.541L26.721 14.7874L28.0804 22.7869L21.396 26.6468L22.1327 27.9226L28.3438 24.3362L29.5136 31.2201L22.4656 35.2747L23.2004 36.5514L29.7768 32.7681L30.9563 39.7091L23.6952 43.9034L24.4319 45.1792L30.9519 41.413L32.9183 42.5483L20.246 49.8767L20.9837 51.1525L27.8771 47.1659L27.8816 47.1737L34.396 43.4017ZM32.4245 40.5625L42.7206 34.6151L40.7342 38.0285L34.3901 41.6973L32.4245 40.5625ZM31.1377 31.9853L37.3313 28.4224L38.7417 35.2121L32.3168 38.9234L31.1377 31.9853ZM37.0159 26.9042L30.8745 30.4373L29.7041 23.5506L35.6107 20.14L37.0159 26.9042ZM42.8075 23.5725L38.3601 26.131L36.9545 19.3642L41.8699 16.5258L42.8075 23.5725ZM43.9553 32.2004L40.0852 34.436L38.6755 27.6491L43.0175 25.1513L43.9553 32.2004ZM45.0184 33.5969L46.7056 34.571L43.3055 36.54L45.0184 33.5969ZM47.4682 25.3459L44.2856 23.5084L43.3828 16.7237L47.468 19.0823V25.3459H47.4682ZM47.4682 33.31L45.4334 32.1352L44.5308 25.3512L47.4683 27.047V33.31H47.4682ZM53.6288 38.5682L48.204 41.7003L42.7472 38.5657L48.1777 35.421L53.6288 38.5682ZM54.3652 29.3278L48.9415 26.1964V19.9329L54.3652 23.0643V29.3278ZM54.3652 37.2921L48.9415 34.1605V27.8974L54.3652 31.0288V37.2921ZM61.2628 33.3101L55.8385 30.1784V23.9149L61.2628 27.0466V33.3101ZM61.2628 41.2747L55.8385 38.1428V31.8795L61.2628 35.0113V41.2747ZM55.1299 45.6787L49.6809 42.5486L55.1022 39.4187L60.5388 42.5577L55.1299 45.6787ZM49.6798 50.5244L55.0972 47.3983L60.5448 50.5427L55.1191 53.6646L49.6798 50.5244ZM42.7729 46.5369L48.1882 43.4104L53.5973 46.5326L48.1859 49.6619L42.7729 46.5369ZM35.8669 42.5499L41.2734 39.419L46.715 42.56L41.2999 45.6865L35.8669 42.5499Z" fill="#D9DBDF"/>
<path d="M19.9037 18.8983L23.3002 44.391L19.977 50.1468C19.8792 50.3161 19.8527 50.5172 19.9031 50.706C19.9538 50.8947 20.0773 51.0555 20.2465 51.1531L47.8365 67.0823C47.9507 67.1481 48.0777 67.1812 48.2048 67.1812C48.332 67.1812 48.459 67.1481 48.5732 67.0823L69.2514 55.1433C69.3352 55.0949 69.4086 55.0305 69.4675 54.9538C69.5264 54.877 69.5696 54.7894 69.5946 54.696C69.6197 54.6026 69.626 54.5051 69.6134 54.4092C69.6008 54.3133 69.5694 54.2208 69.521 54.1371C69.4727 54.0532 69.4083 53.9798 69.3315 53.9209C69.2548 53.8619 69.1672 53.8187 69.0737 53.7937C68.9803 53.7687 68.8828 53.7623 68.7869 53.775C68.691 53.7876 68.5985 53.8191 68.5148 53.8675L48.2049 65.5936L21.6212 50.2456L24.3334 45.5479L47.8368 59.1175C47.951 59.1832 48.078 59.2163 48.2051 59.2163C48.3323 59.2163 48.4593 59.1832 48.5735 59.1175L69.2656 47.1708C69.3776 47.1062 69.4706 47.0132 69.5353 46.9013C69.5999 46.7893 69.634 46.6623 69.634 46.533V30.6038C69.6338 30.4983 69.6109 30.3941 69.5668 30.2982C69.5228 30.2023 69.4587 30.1171 69.3788 30.0482L69.3799 30.0469L41.8831 6.23377L38.4966 0.368548C38.4483 0.284702 38.384 0.211205 38.3072 0.152265C38.2305 0.0933244 38.1429 0.050098 38.0494 0.0250603C37.956 2.26395e-05 37.8585 -0.0063346 37.7626 0.00635252C37.6666 0.0190396 37.5741 0.050522 37.4904 0.0989972L16.7979 12.046C16.6287 12.1436 16.5052 12.3044 16.4545 12.493C16.404 12.6818 16.4306 12.8829 16.5283 13.0522L19.9037 18.8983ZM67.6327 30.4834L50.5265 40.3596L50.5254 40.3602L48.2911 41.6503L21.8794 18.7775L41.2216 7.61014L67.6327 30.4834ZM62.8068 42.9265L68.1605 39.8429V46.1076L62.8068 49.1987V42.9265ZM62.8068 34.9706L68.1605 31.8795V38.1425L62.8068 41.2261V34.9706ZM55.8388 46.94L61.3336 43.7752V50.0494L55.8388 53.2219V46.94ZM55.8388 38.9938L61.3336 35.8213V42.0748L55.8388 45.2396V38.9938ZM48.9418 50.9126L54.3654 47.7887V54.0726L48.9418 57.2042V50.9126ZM48.9418 42.9759L54.3654 39.8444V46.0881L48.9418 49.212V42.9759ZM42.0441 47.8309L47.4684 50.9687V57.2037L42.0441 54.072V47.8309ZM42.0441 39.8439L47.4684 42.9756V49.2661L42.0441 46.1283V39.8439ZM35.1467 43.8408L40.5709 46.9786V53.2215L35.1467 50.0898V43.8408ZM35.1467 35.8617L40.5709 38.9934V45.2761L35.1467 42.1384V35.8617ZM35.1467 32.2163L40.5709 36.9139V37.2924L35.1467 34.1607V32.2163ZM28.2491 39.8507L33.6733 42.9885V49.2392L28.2491 46.1075V39.8507ZM28.2491 31.8794L33.6733 35.0111V41.2861L28.2491 38.1483V31.8794ZM28.2491 26.2428L33.6733 30.9404V33.3101L28.2491 30.1784V26.2428ZM23.8423 37.3015L26.7759 38.9984V45.2569L24.7462 44.0851L23.8423 37.3015ZM22.6926 28.6712L26.7759 31.0287V37.296L23.5966 35.4568L22.6926 28.6712ZM21.6019 20.4863L26.7759 24.9669V29.3277L22.447 26.8285L21.6019 20.4863ZM20.8846 17.6509L18.1725 12.9533L37.5894 1.74333L40.3015 6.44045L20.8846 17.6509Z" fill="#D9DBDF"/>
<path d="M19.0488 13.0714C19.3071 13.0714 19.5607 13.0031 19.7841 12.8734L37.0015 2.93284C37.7061 2.52613 37.9477 1.62497 37.5406 0.920529C37.1339 0.215939 36.2332 -0.0257169 35.5283 0.381283L18.3107 10.3219C17.6061 10.7286 17.3645 11.6297 17.7716 12.3343C17.901 12.5585 18.0872 12.7447 18.3114 12.8741C18.5356 13.0035 18.79 13.0716 19.0488 13.0714ZM51.6727 42.023C51.9193 42.023 52.1696 41.9608 52.3993 41.8302L65.1612 34.5768C65.8687 34.1744 66.1162 33.2752 65.7142 32.5678C65.3123 31.8605 64.4126 31.6129 63.7052 32.0148L50.9433 39.2683C50.2358 39.6707 49.9884 40.5699 50.3903 41.2773C50.519 41.5039 50.7055 41.6923 50.9308 41.8234C51.1561 41.9544 51.4121 42.0233 51.6727 42.023Z" fill="#F43834"/>
<path d="M17.1665 13.4204C17.2916 13.4204 17.4182 13.3887 17.5343 13.3216L18.6268 12.6909C18.7106 12.6426 18.784 12.5782 18.8429 12.5014C18.9018 12.4247 18.945 12.3371 18.9701 12.2437C18.9951 12.1502 19.0015 12.0527 18.9888 11.9568C18.9762 11.8609 18.9448 11.7685 18.8964 11.6847C18.848 11.6009 18.7836 11.5275 18.7069 11.4686C18.6301 11.4097 18.5425 11.3665 18.4491 11.3415C18.3556 11.3165 18.2582 11.3101 18.1623 11.3227C18.0664 11.3354 17.9739 11.3668 17.8901 11.4151L16.7976 12.0459C16.657 12.1269 16.5471 12.252 16.4849 12.402C16.4228 12.5519 16.4119 12.7181 16.4539 12.8748C16.496 13.0316 16.5887 13.17 16.7175 13.2687C16.8464 13.3673 17.0042 13.4207 17.1665 13.4204Z" fill="#D1D1D1"/>
<path d="M23.3158 46.5891C25.0384 49.5727 25.2254 54.0858 23.7337 56.6696C22.242 59.2534 19.6362 58.9293 17.9137 55.9458C16.1912 52.9622 16.0041 48.4491 17.4958 45.8653C18.9875 43.2817 21.5933 43.6057 23.3158 46.5891Z" fill="#284363"/>
<path d="M21.1915 48.9814C22.0333 50.4393 22.1246 52.6445 21.3957 53.9071C20.6667 55.1696 19.3936 55.0114 18.5518 53.5535C17.7101 52.0956 17.6187 49.8903 18.3476 48.6277C19.0766 47.3652 20.3499 47.5235 21.1915 48.9814Z" fill="#D9DBDF"/>
<path d="M20.8386 49.5924C21.4551 50.6604 21.5221 52.276 20.9882 53.2008C20.4541 54.1257 19.5215 54.0098 18.9049 52.9418C18.2883 51.8739 18.2213 50.2583 18.7553 49.3334C19.2893 48.4084 20.222 48.5245 20.8386 49.5924Z" fill="#2E527C"/>
<path d="M20.8377 50.0369C21.2908 50.8217 21.3399 52.0087 20.9475 52.6885C20.5551 53.3681 19.8698 53.2829 19.4167 52.4981C18.9636 51.7133 18.9144 50.5263 19.3068 49.8467C19.6992 49.1668 20.3846 49.2521 20.8377 50.0369Z" fill="#D9DBDF"/>
<path d="M50.2536 62.1752C51.9761 65.1587 52.1631 69.6718 50.6714 72.2558C49.1797 74.8396 46.5739 74.5155 44.8514 71.532C43.1289 68.5484 42.9417 64.0353 44.4336 61.4513C45.9253 58.8676 48.531 59.1916 50.2536 62.1752Z" fill="#284363"/>
<path d="M48.1292 64.5673C48.971 66.0252 49.0623 68.2305 48.3335 69.4931C47.6046 70.7557 46.3313 70.5973 45.4897 69.1394C44.6479 67.6815 44.5566 65.4763 45.2854 64.2137C46.0143 62.9512 47.2876 63.1094 48.1292 64.5673Z" fill="#D9DBDF"/>
<path d="M47.7763 65.1783C48.3929 66.2463 48.4598 67.8619 47.9259 68.7867C47.3918 69.7116 46.4592 69.5957 45.8426 68.5276C45.226 67.4596 45.1591 65.8441 45.693 64.9192C46.2269 63.9945 47.1597 64.1104 47.7763 65.1783Z" fill="#2E527C"/>
<path d="M47.7753 65.6228C48.2284 66.4076 48.2775 67.5946 47.8851 68.2743C47.4927 68.9539 46.8074 68.8687 46.3543 68.084C45.9012 67.2992 45.852 66.1122 46.2444 65.4326C46.637 64.7528 47.3223 64.838 47.7753 65.6228Z" fill="#D9DBDF"/>
</g>
<defs>
<filter id="filter0_f_1030_4262" x="0" y="44" width="92" height="54" filterUnits="userSpaceOnUse" color-interpolation-filters="sRGB">
<feFlood flood-opacity="0" result="BackgroundImageFix"/>
<feBlend mode="normal" in="SourceGraphic" in2="BackgroundImageFix" result="shape"/>
<feGaussianBlur stdDeviation="8.5" result="effect1_foregroundBlur_1030_4262"/>
</filter>
<clipPath id="clip0_1030_4262">
<rect width="74" height="74" fill="white" transform="translate(8)"/>
</clipPath>
</defs>
</svg>
