<svg width="20" height="20" viewBox="0 0 20 20" fill="none" xmlns="http://www.w3.org/2000/svg">
<g clip-path="url(#clip0_175_8072)">
<path d="M10 3.4375C8.70206 3.4375 7.43327 3.82238 6.35407 4.54348C5.27488 5.26458 4.43374 6.2895 3.93704 7.48864C3.44034 8.68778 3.31038 10.0073 3.5636 11.2803C3.81682 12.5533 4.44183 13.7226 5.35961 14.6404C6.2774 15.5582 7.44672 16.1832 8.71972 16.4364C9.99272 16.6896 11.3122 16.5597 12.5114 16.063C13.7105 15.5663 14.7354 14.7251 15.4565 13.6459C16.1776 12.5667 16.5625 11.2979 16.5625 10C16.5607 8.26008 15.8687 6.59194 14.6384 5.36162C13.4081 4.13131 11.7399 3.43932 10 3.4375ZM12.9875 12.2625C12.9293 12.3362 12.8553 12.3958 12.7709 12.4369C12.6865 12.4781 12.5939 12.4996 12.5 12.5C12.3587 12.5011 12.2215 12.4524 12.1125 12.3625L9.6125 10.4875C9.53884 10.4293 9.47924 10.3552 9.43813 10.2708C9.39701 10.1865 9.37544 10.0939 9.375 10V5.625C9.375 5.45924 9.44085 5.30027 9.55806 5.18306C9.67527 5.06585 9.83424 5 10 5C10.1658 5 10.3247 5.06585 10.4419 5.18306C10.5592 5.30027 10.625 5.45924 10.625 5.625V9.7L12.8875 11.3875C12.9525 11.4376 13.0069 11.5003 13.0472 11.5719C13.0876 11.6434 13.1132 11.7223 13.1225 11.8039C13.1318 11.8854 13.1247 11.9681 13.1015 12.0469C13.0783 12.1256 13.0395 12.199 12.9875 12.2625Z" fill="#252525"/>
<path d="M10 0.625C8.1458 0.625 6.33324 1.17483 4.79153 2.20497C3.24982 3.23511 2.04821 4.69929 1.33863 6.41234C0.629062 8.1254 0.443406 10.0104 0.805142 11.829C1.16688 13.6475 2.05976 15.318 3.37088 16.6291C4.682 17.9402 6.35246 18.8331 8.17103 19.1949C9.98961 19.5566 11.8746 19.3709 13.5877 18.6614C15.3007 17.9518 16.7649 16.7502 17.795 15.2085C18.8252 13.6668 19.375 11.8542 19.375 10C19.372 7.51451 18.3834 5.13167 16.6258 3.37416C14.8683 1.61665 12.4855 0.627977 10 0.625ZM10 17.8544C8.44656 17.8544 6.92799 17.3937 5.63635 16.5307C4.3447 15.6676 3.33799 14.4409 2.74351 13.0057C2.14903 11.5705 1.99349 9.99129 2.29655 8.46769C2.59961 6.94409 3.34767 5.54457 4.44612 4.44612C5.54458 3.34766 6.94409 2.59961 8.46769 2.29654C9.99129 1.99348 11.5705 2.14902 13.0057 2.7435C14.4409 3.33798 15.6676 4.3447 16.5307 5.63634C17.3937 6.92799 17.8544 8.44655 17.8544 10C17.8524 12.0825 17.0242 14.0791 15.5517 15.5517C14.0791 17.0242 12.0825 17.8524 10 17.8544Z" fill="#252525"/>
</g>
<defs>
<clipPath id="clip0_175_8072">
<rect width="20" height="20" fill="white"/>
</clipPath>
</defs>
</svg>
