<svg width="24" height="24" viewBox="0 0 24 24" fill="none" xmlns="http://www.w3.org/2000/svg">
<rect x="1" y="1" width="22" height="22" rx="3" stroke="#252525" stroke-width="2"/>
<path d="M7 13C7 12.4477 6.55228 12 6 12C5.44771 12 5 12.4477 5 13L7 13ZM7 20L7 13L5 13L5 20L7 20Z" fill="#252525"/>
<path d="M13 6C13 5.44771 12.5523 5 12 5C11.4477 5 11 5.44771 11 6L13 6ZM13 20L13 6L11 6L11 20L13 20Z" fill="#252525"/>
<path d="M19 10C19 9.44771 18.5523 9 18 9C17.4477 9 17 9.44771 17 10L19 10ZM19 20L19 10L17 10L17 20L19 20Z" fill="#252525"/>
</svg>
