<svg width="92" height="98" viewBox="0 0 92 98" fill="none" xmlns="http://www.w3.org/2000/svg">
<g filter="url(#filter0_f_1032_4264)">
<ellipse cx="46" cy="71" rx="29" ry="10" fill="black" fill-opacity="0.3"/>
</g>
<g clip-path="url(#clip0_1032_4264)">
<path d="M40.0017 0L19.0453 12.2681V32.8518L40.0017 45.1167L60.9583 32.8518V12.2681L40.0017 0Z" fill="#FFE6C6"/>
<path d="M60.9583 32.8523L40.0017 45.1172V24.5335L60.9583 12.2686V32.8523Z" fill="#FFD2A6"/>
<path d="M19.0453 32.8523L40.0017 45.1172V24.5335L19.0453 12.2686V32.8523Z" fill="#FCBC90"/>
<path d="M21.9112 15.6211L20.0571 17.9252L20.7697 18.3422V19.9079L23.0466 21.2405V19.6749L23.7651 20.0953L21.9112 15.6211Z" fill="#284363"/>
<path d="M39.946 0.719727L32.2385 5.1843L36.9651 7.96103L44.5919 3.46018L39.946 0.719727Z" fill="white"/>
<path d="M40.0237 1.80371L41.028 2.39759L35.3926 5.64983L34.3883 5.05595L40.0237 1.80371ZM41.4598 2.71064L42.4641 3.30452L36.8287 6.55677L35.8244 5.96289L41.4598 2.71064Z" fill="#C8CED6"/>
<g opacity="0.2">
<path d="M46.141 3.59375L25.2891 15.9221L32.2694 20.0074L53.1206 7.67965L46.141 3.59375Z" fill="white"/>
</g>
<g opacity="0.2">
<path d="M50.457 6.11344L32.2938 16.8226L30.7059 15.8946L48.8692 5.18555L50.457 6.11344Z" fill="#424242"/>
</g>
<path d="M84.3807 47.7661L84.2574 47.6735L84.2576 47.6736C84.2494 47.6673 84.2424 47.6599 84.234 47.6535L77.1094 42.3147L72.9465 27.6842L70.0144 25.9682L69.8238 25.8566L60.9582 20.668L40.0016 32.9053V45.1172L19.0562 32.8576V43.1624C19.0562 43.7623 19.2119 44.3517 19.5077 44.8713C19.8035 45.391 20.2289 45.8226 20.7413 46.1228L40.0017 57.395L63.4235 71.1027L64.6592 71.1728V71.2305L65.027 71.1936L65.6759 71.2305L65.8857 71.1078L85.1919 59.8086L85.1923 59.8083L85.2662 59.7651C85.3142 59.7369 85.3527 59.6994 85.3819 59.6561C85.5344 59.495 85.6196 59.2805 85.6199 59.0572V50.2605C85.6199 49.7755 85.5078 49.2972 85.2926 48.8641C85.0774 48.4309 84.7651 48.0549 84.3807 47.7661Z" fill="#FFB931"/>
<path d="M30.9808 42.5569L30.9882 42.5681C32.3042 41.8816 33.8951 42.5946 35.0558 44.6325C36.6561 47.4422 36.8299 51.6927 35.4441 54.126C35.0799 54.7653 34.6434 55.2106 34.17 55.4761L34.1691 55.4869L30.666 57.5329L27.4961 44.5964L30.9808 42.5569ZM58.8161 58.758L58.8235 58.7692C60.1395 58.0827 61.7304 58.7957 62.8911 60.8336C64.4914 63.6434 64.6652 67.8938 63.2793 70.3271C62.9152 70.9665 62.4786 71.4117 62.0052 71.6772L62.0044 71.688L58.5012 73.734L55.3313 60.7976L58.8161 58.758Z" fill="#212938"/>
<path d="M85.3701 59.2304L79.8904 52.0485L66.1718 60.0823C65.7241 60.3445 65.2106 60.4682 64.6944 60.4383C64.1782 60.4084 63.6819 60.2261 63.2666 59.9139L56.1678 54.5765L75.0109 43.5433L70.8504 28.9082L51.9241 39.9601L40.0019 32.9049V45.1168L19.0562 32.8574V43.1622C19.0562 43.7621 19.2119 44.3515 19.5077 44.8711C19.8035 45.3907 20.2289 45.8224 20.7413 46.1226L40.0017 57.3947L63.4235 71.1025L65.6759 71.2303L85.2662 59.7649C85.3102 59.7391 85.3484 59.7041 85.378 59.6621C85.4076 59.6201 85.4281 59.5722 85.4379 59.5216C85.4478 59.471 85.4468 59.4188 85.4351 59.3686C85.4234 59.3183 85.4012 59.2712 85.3701 59.2304Z" fill="#FBD821"/>
<path d="M77.1097 42.3141L72.9468 27.6836L51.9241 39.9596L56.1678 54.5761L77.1097 42.3141Z" fill="#E8B83D"/>
<path d="M42.5304 35.902L50.7189 40.698L54.1463 53.4432L42.5304 46.6413V35.902ZM53.3153 40.8061L57.0853 54.1098L76.2338 42.8216L72.4433 29.5244L53.3153 40.8061Z" fill="#33AEFF"/>
<path d="M59.4257 62.8634C61.026 65.6732 61.1998 69.9236 59.814 72.3569C58.4281 74.7903 56.0073 74.4851 54.407 71.6753C52.8067 68.8655 52.6329 64.6151 54.0187 62.1818C55.4046 59.7485 57.8254 60.0537 59.4257 62.8634Z" fill="#284363"/>
<path d="M58.2974 64.8446C59.1781 66.391 59.2737 68.7302 58.5111 70.0693C57.7484 71.4085 56.4161 71.2406 55.5353 69.6942C54.6546 68.1479 54.559 65.8086 55.3218 64.4696C56.0843 63.1303 57.4167 63.2983 58.2974 64.8446Z" fill="#C8CED6"/>
<path d="M57.9539 65.4475C58.6156 66.6094 58.6874 68.3669 58.1144 69.3729C57.5414 70.3792 56.5404 70.253 55.8787 69.0911C55.217 67.9292 55.1451 66.1717 55.7181 65.1656C56.2911 64.1594 57.2922 64.2856 57.9539 65.4475Z" fill="#9FACBC"/>
<path d="M57.8068 65.7067C58.3746 66.7036 58.4362 68.2118 57.9445 69.0754C57.4527 69.9388 56.5937 69.8306 56.026 68.8336C55.4581 67.8366 55.3965 66.3284 55.8882 65.4649C56.3798 64.6013 57.2389 64.7095 57.8068 65.7067Z" fill="#C8CED6"/>
<path d="M31.5904 46.6622C33.1907 49.4719 33.3645 53.7223 31.9786 56.1556C30.5927 58.589 28.1719 58.2839 26.5716 55.474C24.9713 52.6642 24.7975 48.4138 26.1834 45.9805C27.5694 43.5473 29.9901 43.8526 31.5904 46.6622Z" fill="#284363"/>
<path d="M30.462 48.6435C31.3427 50.1898 31.4383 52.529 30.6755 53.8681C29.9128 55.2074 28.5805 55.0393 27.6998 53.4929C26.8191 51.9466 26.7234 49.6075 27.4861 48.2683C28.249 46.9292 29.5813 47.0971 30.462 48.6435Z" fill="#C8CED6"/>
<path d="M30.1186 49.2473C30.7804 50.409 30.8522 52.1665 30.2792 53.1727C29.7062 54.1788 28.7051 54.0528 28.0434 52.8909C27.3817 51.729 27.3099 49.9715 27.8829 48.9654C28.4559 47.9592 29.4569 48.0854 30.1186 49.2473Z" fill="#9FACBC"/>
<path d="M29.9715 49.5054C30.5394 50.5024 30.601 52.0107 30.1092 52.8741C29.6175 53.7375 28.7585 53.6293 28.1906 52.6323C27.6227 51.6353 27.5611 50.127 28.0528 49.2636C28.5446 48.4002 29.4036 48.5084 29.9715 49.5054Z" fill="#C8CED6"/>
<path d="M84.3807 47.7655L84.2574 47.6729L84.2576 47.673C84.8828 48.1679 84.8236 49.1488 84.1374 49.56L84.1364 49.5607H84.1362C84.1332 49.5626 84.1307 49.5648 84.1275 49.5666L66.3515 59.9765C65.8384 60.2773 65.4124 60.7096 65.1161 61.2299C64.8198 61.7502 64.6637 62.3403 64.6633 62.9411L64.6589 71.2299L65.8854 71.1072L85.1916 59.808C85.3217 59.7318 85.4297 59.6223 85.5049 59.4904C85.58 59.3585 85.6196 59.2089 85.6196 59.0566V50.2598C85.6197 49.7748 85.5077 49.2966 85.2926 48.8634C85.0774 48.4302 84.7651 48.0542 84.3807 47.7655Z" fill="#F4CA34"/>
<path d="M68.1338 64.4463L66.0031 65.7002C65.9137 65.7526 65.8394 65.8279 65.7877 65.9186C65.7361 66.0093 65.7089 66.1122 65.7089 66.2169V66.3885C65.7089 66.5999 65.9347 66.7322 66.1154 66.6264L68.2462 65.3715C68.3356 65.3192 68.4099 65.2439 68.4615 65.1532C68.5131 65.0625 68.5403 64.9597 68.5403 64.855V64.6844C68.5402 64.4727 68.3145 64.3406 68.1338 64.4463ZM84.8715 54.6427L82.7408 55.8967C82.6513 55.949 82.577 56.0243 82.5254 56.115C82.4737 56.2057 82.4465 56.3086 82.4465 56.4134V56.5849C82.4465 56.7964 82.6724 56.9286 82.853 56.8228L84.9839 55.568C85.0733 55.5156 85.1476 55.4403 85.1992 55.3496C85.2508 55.2589 85.278 55.156 85.278 55.0513V54.8807C85.278 54.6692 85.0522 54.5369 84.8715 54.6427Z" fill="#F0C419"/>
<g opacity="0.2">
<path d="M45.1887 37.459L49.9896 51.0091L54.1185 53.4268L52.3983 46.986L50.0268 40.2925L45.1887 37.459Z" fill="white"/>
</g>
<g opacity="0.2">
<path d="M42.8542 36.091L42.783 36.0492L42.5304 35.9014V46.6405L47.6552 49.6415L42.8542 36.091Z" fill="white"/>
</g>
<path d="M70.359 59.846L79.8577 54.3032C80.8034 53.7514 81.984 54.4433 81.984 55.5494C81.984 56.1108 81.8382 56.6624 81.5611 57.1486C81.2841 57.6347 80.8857 58.0384 80.4059 58.3189L70.9058 63.8747C69.9601 64.4278 68.7784 63.7359 68.7784 62.6291V62.617C68.7784 62.055 68.9245 61.503 69.202 61.0165C69.4795 60.5301 69.8786 60.1263 70.359 59.846Z" fill="#212938"/>
<path d="M68.1424 62.1448C68.1424 63.053 67.5976 64.1082 66.9256 64.5015C66.2537 64.8948 65.7089 64.4774 65.7089 63.569C65.7089 62.6607 66.2537 61.6055 66.9256 61.2122C67.5976 60.819 68.1424 61.2364 68.1424 62.1448ZM84.7713 52.4272C84.7713 53.3354 84.2265 54.3907 83.5545 54.7839C82.8825 55.1772 82.3377 54.7598 82.3377 53.8514C82.3377 52.943 82.8825 51.888 83.5545 51.4947C84.2265 51.1014 84.7713 51.5188 84.7713 52.4272Z" fill="white"/>
<path d="M85.9547 56.2812V58.5768C85.9547 58.8151 85.8928 59.0492 85.7753 59.2555C85.6578 59.4619 85.4887 59.6333 85.2851 59.7524L66.014 71.0838C65.6096 71.3205 65.1508 71.4448 64.6839 71.4443C64.217 71.4437 63.7585 71.3184 63.3546 71.0808L61.3746 69.916V66.8203L61.5636 66.7009L64.4135 68.3754C64.5019 68.4274 64.6023 68.4548 64.7045 68.4549C64.8067 68.455 64.9071 68.4277 64.9956 68.3759L85.624 56.2465V56.0898L85.9547 56.2812Z" fill="#C8CED6"/>
<g opacity="0.2">
<path d="M71.6445 45.5149L74.6635 37.3125L72.4433 29.5244L68.5583 31.8495L61.6414 51.3719L71.6445 45.5149Z" fill="white"/>
</g>
<g opacity="0.2">
<path d="M57.4526 53.8239L64.3656 34.3125L55.6768 39.4178L54.1463 43.7378L57.0682 54.049L57.4526 53.8239Z" fill="white"/>
</g>
</g>
<defs>
<filter id="filter0_f_1032_4264" x="0" y="44" width="92" height="54" filterUnits="userSpaceOnUse" color-interpolation-filters="sRGB">
<feFlood flood-opacity="0" result="BackgroundImageFix"/>
<feBlend mode="normal" in="SourceGraphic" in2="BackgroundImageFix" result="shape"/>
<feGaussianBlur stdDeviation="8.5" result="effect1_foregroundBlur_1032_4264"/>
</filter>
<clipPath id="clip0_1032_4264">
<rect width="73" height="74" fill="white" transform="translate(16)"/>
</clipPath>
</defs>
</svg>
