<svg width="92" height="98" viewBox="0 0 92 98" fill="none" xmlns="http://www.w3.org/2000/svg">
<g filter="url(#filter0_f_1032_4266)">
<ellipse cx="46" cy="71" rx="29" ry="10" fill="black" fill-opacity="0.24"/>
</g>
<g clip-path="url(#clip0_1032_4266)">
<path d="M18.2618 32.7688L48.5225 15.5576L78.7831 32.7688L78.8041 32.7568V55.7527L48.5225 72.9995L18.2408 55.7527V32.7568L18.2618 32.7688Z" fill="#ED7064"/>
<path d="M18.2408 55.7527L48.5225 72.9995V50.0038L18.2408 32.7568V55.7527Z" fill="#C40041"/>
<path d="M48.5225 50.0038L78.8041 32.7568V55.7527L48.5225 72.9995V50.0038Z" fill="#F43834"/>
<path d="M16.6357 23.9144L48.5225 5.77832L80.4092 23.9144L80.4312 23.9019V31.858L48.5225 50.0316L16.6137 31.858V23.9019L16.6357 23.9144Z" fill="#FF8A5C"/>
<path d="M16.6137 31.8585L48.5225 50.0321V42.0759L16.6137 23.9023V31.8585Z" fill="#F43834"/>
<path d="M48.5225 42.0759L80.4312 23.9023V31.8585L48.5225 50.0321V42.0759Z" fill="#FF5331"/>
<path d="M35.6845 65.6884L27.7572 61.1734V30.2229L59.6068 12.083L67.5302 16.5896L35.6845 34.7273V65.6884Z" fill="#FF812C"/>
<path d="M61.5194 65.5956L69.4467 61.0806V30.1302L37.5972 11.9902L29.6737 16.4968L61.5194 34.6345V65.5956Z" fill="#FF9F2C"/>
<path d="M61.5194 34.6345L69.4467 30.1302L37.5972 11.9902L29.6737 16.4968L61.5194 34.6345Z" fill="#FFD800"/>
<path d="M35.6845 34.7273L27.7572 30.2229L59.6068 12.083L67.5302 16.5896L35.6845 34.7273Z" fill="#FFD800"/>
<path d="M81.4717 29.2232L79.6326 24.7702L87.3863 22.3385L51.1935 15.8994L45.2832 22.7848L81.4717 29.2232Z" fill="#F0C419"/>
<path d="M48.2175 52.2783L44.4581 49.2179L39.7913 55.7926L44.3627 19.7942L52.7883 16.2842L48.2175 52.2783Z" fill="#F0C419"/>
<path d="M51.254 19.1933C50.9832 18.8628 50.8011 18.4705 50.7243 18.0524C50.6475 17.6343 50.6786 17.2038 50.8146 16.8007C52.1918 12.703 56.093 2.21049 62.5933 0.266865C68.6674 -1.5493 76.3124 6.23376 71.4683 13.624C67.611 19.5086 58.4651 21.2432 54.8985 21.7058C54.4617 21.7632 54.0173 21.7089 53.6079 21.5482C53.1985 21.3874 52.8378 21.1255 52.5605 20.7877L51.254 19.1933Z" fill="#FFD800"/>
<path d="M67.1602 8.70656C70.0227 7.16144 71.5311 8.923 70.5537 11.773C69.5761 14.6231 64.574 17.3398 61.6034 18.7734C58.6329 20.2071 54.5542 20.7246 54.5542 20.7246C54.5542 20.7246 64.2978 10.2517 67.1602 8.70656Z" fill="#DCA700"/>
<path d="M41.5314 18.7905C42.5213 18.0193 43.6512 17.6091 44.7836 17.5211C46.2915 17.4038 47.6312 16.641 48.4881 15.4114C49.1317 14.4877 50.057 13.7274 51.2293 13.2673C53.707 12.2947 56.6122 13.1166 58.1997 15.2301C60.3686 18.1176 59.4612 22.1295 56.3991 23.8735C55.6016 24.3292 54.7074 24.5955 53.7875 24.6511C52.3381 24.7387 51.047 25.474 50.2454 26.6685C49.7366 27.4266 49.0558 28.0573 48.257 28.5107C45.1948 30.2547 41.2189 29.0239 39.7687 25.7269C38.7072 23.3136 39.4387 20.4208 41.5314 18.7905Z" fill="#FFE252"/>
<path d="M43.7891 22.2732C43.5604 21.9131 43.2436 21.6155 42.8678 21.4079C42.492 21.2002 42.0693 21.0891 41.6386 21.0848C37.2626 21.0363 25.9358 21.2616 21.9579 26.6928C18.2409 31.7679 23.2139 41.4315 31.8738 39.3173C38.7694 37.6337 43.4078 29.6666 45.0115 26.4902C45.2087 26.1015 45.3012 25.6692 45.2803 25.235C45.2594 24.8008 45.1257 24.3792 44.8921 24.0106L43.7891 22.2732Z" fill="#FFD800"/>
<path d="M28.5623 33.6995C26.1499 35.8668 27.3476 37.8473 30.3975 37.8627C33.4476 37.878 37.6792 34.0959 40.0198 31.7914C42.3605 29.4868 44.1836 25.8506 44.1836 25.8506C44.1836 25.8506 30.9748 31.532 28.5623 33.6995Z" fill="#DCA700"/>
</g>
<defs>
<filter id="filter0_f_1032_4266" x="0" y="44" width="92" height="54" filterUnits="userSpaceOnUse" color-interpolation-filters="sRGB">
<feFlood flood-opacity="0" result="BackgroundImageFix"/>
<feBlend mode="normal" in="SourceGraphic" in2="BackgroundImageFix" result="shape"/>
<feGaussianBlur stdDeviation="8.5" result="effect1_foregroundBlur_1032_4266"/>
</filter>
<clipPath id="clip0_1032_4266">
<rect width="74" height="73" fill="white" transform="translate(15)"/>
</clipPath>
</defs>
</svg>
