<svg width="92" height="98" viewBox="0 0 92 98" fill="none" xmlns="http://www.w3.org/2000/svg">
<g filter="url(#filter0_f_1032_4265)">
<ellipse cx="46" cy="71" rx="29" ry="10" fill="black" fill-opacity="0.24"/>
</g>
<g clip-path="url(#clip0_1032_4265)">
<path d="M73.3961 7.63384C73.0343 7.35997 72.6476 7.12072 72.241 6.91924L61.9913 0.984008L61.9908 0.985149C56.3931 -2.31025 47.8795 2.89712 42.5436 13.0919C36.9785 8.88468 27.9558 14.0939 22.3905 24.7274C16.8652 35.2844 16.8324 47.2095 22.2782 51.4976L42.5498 66.8225L53.2485 72.9998L53.2487 72.9999L73.3961 34.5049C78.9613 23.8715 78.9613 11.8412 73.3961 7.63384Z" fill="#C40041"/>
<path d="M73.3961 7.63358C67.831 3.42639 58.8079 8.63576 53.2427 19.2691C47.6776 15.0619 38.6547 20.2711 33.0896 30.9046C27.5643 41.4616 27.5315 53.3867 32.9771 57.6748L53.2488 72.9997L73.3962 34.5047C78.9613 23.8713 78.9613 11.8408 73.3961 7.63358Z" fill="#F43834"/>
<path d="M84.78 34.7986L80.8499 32.5244L76.9378 34.7831V28.87L73.0077 26.5957L65.8763 30.7131V41.1694L58.034 45.6971L58.0341 55.2054L61.9642 57.4796L65.8763 55.2211V61.134L69.8064 63.4083L76.9378 59.2911V48.8347L84.78 44.307V34.7986Z" fill="#9FACBC"/>
<path d="M84.7801 44.3072L84.7799 34.7988L76.9378 39.3265V28.8701L69.8064 32.9875V43.4437L61.9642 47.9716V57.4799L69.8064 52.9522V63.4085L76.9378 59.2912V48.8349L84.7801 44.3072Z" fill="#D0D4D6"/>
<path d="M76.9378 28.87L73.0077 26.5957L65.8762 30.7131L69.8064 32.9873L76.9378 28.87ZM69.8064 43.4436L65.8762 41.1693L58.034 45.6971L61.9642 47.9714L69.8064 43.4436Z" fill="#C8CED6"/>
</g>
<defs>
<filter id="filter0_f_1032_4265" x="0" y="44" width="92" height="54" filterUnits="userSpaceOnUse" color-interpolation-filters="sRGB">
<feFlood flood-opacity="0" result="BackgroundImageFix"/>
<feBlend mode="normal" in="SourceGraphic" in2="BackgroundImageFix" result="shape"/>
<feGaussianBlur stdDeviation="8.5" result="effect1_foregroundBlur_1032_4265"/>
</filter>
<clipPath id="clip0_1032_4265">
<rect width="73" height="73" fill="white" transform="translate(15)"/>
</clipPath>
</defs>
</svg>
