<svg width="46" height="38" viewBox="0 0 46 38" fill="none" xmlns="http://www.w3.org/2000/svg">
<path d="M29.1346 3.775L25.7773 0.417696C25.645 0.285276 25.4878 0.180229 25.3149 0.108559C25.1419 0.036889 24.9566 0 24.7693 0C24.5821 0 24.3968 0.036889 24.2238 0.108559C24.0509 0.180229 23.8937 0.285276 23.7614 0.417696L8.31249 15.8685C8.16836 16.0114 8.05687 16.1838 7.9857 16.3739L5.96979 21.7471C5.87366 22.0032 5.85328 22.2816 5.91108 22.549C5.96888 22.8163 6.10242 23.0614 6.29576 23.255C6.48909 23.4485 6.73405 23.5823 7.00137 23.6404C7.26869 23.6985 7.54708 23.6784 7.80329 23.5825L13.1765 21.5666C13.3674 21.4959 13.5405 21.3844 13.6838 21.2398L29.1346 5.789C29.267 5.65682 29.372 5.49985 29.4436 5.32706C29.5152 5.15427 29.5521 4.96905 29.5521 4.782C29.5521 4.59494 29.5152 4.40972 29.4436 4.23693C29.372 4.06414 29.267 3.90717 29.1346 3.775Z" fill="#252525"/>
<path d="M40.375 7.59961H31.3177C31.2588 7.66611 31.2132 7.74211 31.1486 7.80481L15.6978 23.2556C15.2634 23.6923 14.7388 24.0289 14.1607 24.2417L8.8027 26.2519C8.32306 26.4332 7.81447 26.5259 7.3017 26.5255C6.73908 26.5276 6.18168 26.4176 5.66202 26.202C5.14236 25.9864 4.67085 25.6694 4.275 25.2696C3.69653 24.6884 3.29703 23.9533 3.12392 23.1517C2.95081 22.3502 3.01136 21.5158 3.2984 20.7476L5.3143 15.3763C5.5309 14.8006 5.871 14.2743 6.3004 13.8468L12.5476 7.59961H5.225C3.83955 7.60062 2.51114 8.15143 1.53148 9.13109C0.551819 10.1107 0.0010065 11.4392 0 12.8246L0 32.7746C0.0010065 34.1601 0.551819 35.4885 1.53148 36.4681C2.51114 37.4478 3.83955 37.9986 5.225 37.9996H40.375C41.7604 37.9986 43.0889 37.4478 44.0685 36.4681C45.0482 35.4885 45.599 34.1601 45.6 32.7746V12.8246C45.599 11.4392 45.0482 10.1107 44.0685 9.13109C43.0889 8.15143 41.7604 7.60062 40.375 7.59961ZM38.475 29.4496H7.125C6.74707 29.4496 6.38461 29.2995 6.11737 29.0322C5.85013 28.765 5.7 28.4025 5.7 28.0246C5.7 27.6467 5.85013 27.2842 6.11737 27.017C6.38461 26.7497 6.74707 26.5996 7.125 26.5996H38.475C38.8529 26.5996 39.2154 26.7497 39.4826 27.017C39.7499 27.2842 39.9 27.6467 39.9 28.0246C39.9 28.4025 39.7499 28.765 39.4826 29.0322C39.2154 29.2995 38.8529 29.4496 38.475 29.4496ZM38.475 19.9496H28.025C27.6471 19.9496 27.2846 19.7995 27.0174 19.5322C26.7501 19.265 26.6 18.9025 26.6 18.5246C26.6 18.1467 26.7501 17.7842 27.0174 17.517C27.2846 17.2497 27.6471 17.0996 28.025 17.0996H38.475C38.8529 17.0996 39.2154 17.2497 39.4826 17.517C39.7499 17.7842 39.9 18.1467 39.9 18.5246C39.9 18.9025 39.7499 19.265 39.4826 19.5322C39.2154 19.7995 38.8529 19.9496 38.475 19.9496Z" fill="#252525"/>
</svg>
