<svg width="18" height="20" viewBox="0 0 18 20" fill="none" xmlns="http://www.w3.org/2000/svg">
<path d="M9 0C5.48574 0 2.55469 2.83086 2.55469 6.44531C2.55469 7.82039 2.96789 9.04656 3.7609 10.1955L8.50676 17.601C8.73699 17.961 9.26348 17.9603 9.49324 17.601L14.2597 10.1704C15.0356 9.07344 15.4453 7.78543 15.4453 6.44531C15.4453 2.89137 12.5539 0 9 0ZM9 9.375C7.38465 9.375 6.07031 8.06066 6.07031 6.44531C6.07031 4.82996 7.38465 3.51562 9 3.51562C10.6154 3.51562 11.9297 4.82996 11.9297 6.44531C11.9297 8.06066 10.6154 9.375 9 9.375Z" fill="white"/>
<path d="M13.5806 13.4648L10.6302 18.0776C9.86648 19.2683 8.12926 19.2644 7.36922 18.0788L4.41398 13.4661C1.81383 14.0672 0.210938 15.1685 0.210938 16.4846C0.210938 18.7682 4.73938 20.0002 9 20.0002C13.2606 20.0002 17.7891 18.7682 17.7891 16.4846C17.7891 15.1676 16.1839 14.0657 13.5806 13.4648Z" fill="white"/>
</svg>
