<svg width="92" height="98" viewBox="0 0 92 98" fill="none" xmlns="http://www.w3.org/2000/svg">
<g filter="url(#filter0_f_1032_4263)">
<ellipse cx="46" cy="71" rx="29" ry="10" fill="black" fill-opacity="0.24"/>
</g>
<path d="M26.4618 15.5601C26.4598 13.8112 27.7342 11.9664 30.2296 10.5258C34.7881 7.89398 41.6837 7.6081 45.6314 9.88736C47.4007 10.9089 48.2747 12.2724 48.2934 13.703H48.2941V18.1418L48.2913 18.142C48.2918 18.1564 48.2903 18.171 48.2905 18.1855L48.2941 18.1852V22.5545L48.2913 22.5547C48.2918 22.5691 48.2903 22.5837 48.2905 22.5982L48.2941 22.5979V24.8657L48.2913 24.866C48.2924 24.9007 48.2895 24.9358 48.2893 24.9706L48.2941 24.9702V27.238L48.2913 27.2382C48.3406 29.0149 47.066 30.9005 44.5256 32.367C39.9671 34.9988 33.0715 35.2847 29.1238 33.0054C27.2931 31.9485 26.43 30.5247 26.4723 29.0399L26.4739 26.8261C26.4731 26.7734 26.4709 26.7206 26.4723 26.6677L26.4733 24.4539C26.4733 24.4214 26.4715 24.389 26.4723 24.3565L26.4716 22.1429L26.4732 20.0413C26.4732 20.0087 26.4713 19.9764 26.4722 19.9437L26.4587 17.7738H26.4585V15.5602L26.4618 15.5601Z" fill="#DCA700"/>
<path d="M29.1238 23.9087C33.0715 26.188 39.9671 25.9021 44.5256 23.2703C47.0453 21.8156 48.3179 19.9489 48.2905 18.1849L48.2941 18.1846V20.4524L48.2914 20.4526C48.3406 22.2293 47.066 24.1148 44.5256 25.5814C39.9671 28.2132 33.0715 28.499 29.1238 26.2198C27.2931 25.1628 26.43 23.7391 26.4723 22.2543L26.4733 20.0411C26.471 21.4904 27.3335 22.875 29.1238 23.9087Z" fill="#CC8200"/>
<path d="M29.1238 28.3217C33.0715 30.6009 39.9671 30.315 44.5256 27.6833C47.0453 26.2286 48.3179 24.3618 48.2905 22.5979L48.2941 22.5977V24.8655L48.2914 24.8658C48.3406 26.6425 47.066 28.5281 44.5256 29.9948C39.9671 32.6265 33.0715 32.9124 29.1238 30.6332C27.2931 29.5762 26.43 28.1524 26.4723 26.6678L26.4733 24.4546C26.471 25.9035 27.3335 27.2881 29.1238 28.3217Z" fill="#CC8200"/>
<path d="M30.2296 10.5258C25.6711 13.1575 25.176 17.1388 29.1238 19.418C33.0715 21.6973 39.9672 21.4114 44.5256 18.7796C49.084 16.1479 49.5791 12.1666 45.6314 9.88736C41.6837 7.6081 34.7881 7.89398 30.2296 10.5258Z" fill="#DCA700"/>
<path d="M48.2934 13.7031C48.3164 15.4645 47.041 17.3275 44.5256 18.7798C39.9671 21.4116 33.0715 21.6974 29.1238 19.4182C27.3371 18.3865 26.4635 17.0061 26.4618 15.5602L26.4586 15.5605V17.7741C26.4586 17.7741 26.5264 20.203 29.1238 21.7383C33.0478 24.0582 39.9671 23.7317 44.5256 21.0999C47.0659 19.6332 48.3405 17.7477 48.2912 15.971L48.2941 15.9708V13.7031H48.2934Z" fill="#CC8200"/>
<path d="M31.4991 11.2593C27.7503 13.4236 27.3431 16.6978 30.5897 18.5723C33.8363 20.4467 39.5073 20.2115 43.2562 18.0472C47.005 15.8828 47.4122 12.6088 44.1656 10.7342C40.919 8.85977 35.248 9.09478 31.4991 11.2593Z" fill="#FFD800"/>
<path d="M32.5071 13.6783C31.9248 15.3535 34.6188 16.6489 35.7989 17.0821C37.3317 17.6447 39.0246 17.7729 40.5435 17.0808L41.5719 17.6745L42.5413 17.1149L41.5101 16.5194C41.9094 16.2273 42.2037 15.9155 42.39 15.5837L40.734 14.6276C40.5263 15.0012 40.248 15.3309 39.9146 15.5983L35.7395 13.1878C36.1854 13.0155 36.6793 12.9201 37.148 12.8398L36.1254 11.6494C35.3666 11.7766 34.6969 11.9772 34.1136 12.2489L33.1597 11.6981L32.1903 12.2577L33.1654 12.8207C32.8347 13.0869 32.6136 13.3724 32.5071 13.6783C32.6136 13.3724 32.3536 14.12 32.5071 13.6783ZM34.8663 13.8031L38.8253 16.0888C37.9394 16.242 34.2525 15.2003 34.8663 13.8031Z" fill="#DCA700"/>
<path d="M87 27.6906V37.234L37.6667 65.6503L13 51.4261V41.9319L62.3333 13.4492L87 27.6906Z" fill="#007A6E"/>
<path d="M87 27.6904V37.2338L37.6667 65.6501V56.1898L87 27.6904Z" fill="#009F5E"/>
<path d="M37.6657 58.0861L87 29.5928V31.4947L37.6657 59.9969L13.0348 45.7762V43.8743L37.6657 58.0861Z" fill="#00917F"/>
<path d="M37.675 61.8743L87 33.3965V35.2984L37.675 63.7849L13 49.5578V47.658L37.675 61.8743Z" fill="#00917F"/>
<path d="M87 29.5928V31.4947L37.6657 59.9969V58.0861L87 29.5928ZM87 33.3964V35.2983L37.675 63.7848V61.8743L87 33.3964Z" fill="#00AC65"/>
<path d="M22.0354 47.1546L13 41.9319L62.3333 13.4492L87 27.6906L37.6667 56.19L22.0354 47.1546Z" fill="#00C169"/>
<path d="M17.7191 41.9384L37.6932 53.448L82.3022 27.6907L62.336 16.1729L17.7191 41.9384Z" fill="#FFE6C6"/>
<path d="M77.6458 27.691L62.3524 18.8613L22.4664 41.9388L37.719 50.7258L77.6458 27.691Z" fill="#00AC65"/>
<path d="M45.889 22.9434L70.5555 37.1902V46.706L54.1453 56.1533V46.6703L29.4584 32.4295L45.889 22.9434Z" fill="#E5AC91"/>
<path d="M45.889 22.9434L70.5555 37.1902L54.1453 46.6703L29.4584 32.4295L45.889 22.9434Z" fill="#FFD6A0"/>
<path d="M54.1453 46.6705V56.1535L70.5555 46.7062V37.1904L54.1453 46.6705Z" fill="#E5AC91"/>
<path d="M31.6627 31.1568L43.7051 24.2041L68.364 38.4498L56.3415 45.3983L31.6627 31.1568Z" fill="#FFE6C6"/>
<path d="M68.364 38.4502V47.9687L56.3406 54.8942L56.3415 45.3987L68.364 38.4502Z" fill="#FFCBA1"/>
<path d="M60.4668 20.2039C61.8784 21.0189 64.0137 21.1073 65.2363 20.4016C66.4588 19.6958 66.3056 18.4628 64.8939 17.6478C63.4823 16.8328 61.347 16.7444 60.1244 17.4501C58.9018 18.156 59.0552 19.3888 60.4668 20.2039ZM61.8592 27.3168C62.6768 27.7889 63.9136 27.8402 64.6216 27.4313C65.3297 27.0225 65.241 26.3084 64.4234 25.8364C63.6057 25.3643 62.369 25.313 61.6609 25.7219C60.9529 26.1306 61.0416 26.8446 61.8592 27.3168ZM34.4786 43.0921C35.2963 43.5642 36.533 43.6155 37.2411 43.2066C37.9491 42.7978 37.8604 42.0837 37.0428 41.6117C36.2252 41.1396 34.9884 41.0883 34.2803 41.4972C33.5721 41.9059 33.661 42.6201 34.4786 43.0921ZM20.4199 43.3567C21.8316 44.1718 23.9669 44.2602 25.1895 43.5545C26.4119 42.8487 26.2586 41.6157 24.8471 40.8009C23.4354 39.9858 21.3001 39.8974 20.0776 40.6031C18.855 41.3089 19.0083 42.5417 20.4199 43.3567ZM75.2855 28.7776C76.6971 29.5926 78.8324 29.6811 80.055 28.9753C81.2774 28.2696 81.1242 27.0366 79.7126 26.2217C78.301 25.4067 76.1656 25.3182 74.9431 26.024C73.7205 26.7297 73.8738 27.9626 75.2855 28.7776ZM35.164 51.9376C36.5756 52.7526 38.7111 52.841 39.9335 52.1353C41.156 51.4295 41.0028 50.1967 39.5911 49.3817C38.1795 48.5667 36.0442 48.4782 34.8216 49.184C33.5992 49.8897 33.7524 51.1226 35.164 51.9376Z" fill="#FFE6C6"/>
<path d="M63.1414 38.715L43.1637 27.1895L41.0292 28.4211L61.0069 39.9712L63.1414 38.715ZM56.4698 39.8552L41.2122 31.0434L39.0901 32.2754L54.3476 41.072L56.4698 39.8552Z" fill="#E6C190"/>
<defs>
<filter id="filter0_f_1032_4263" x="0" y="44" width="92" height="54" filterUnits="userSpaceOnUse" color-interpolation-filters="sRGB">
<feFlood flood-opacity="0" result="BackgroundImageFix"/>
<feBlend mode="normal" in="SourceGraphic" in2="BackgroundImageFix" result="shape"/>
<feGaussianBlur stdDeviation="8.5" result="effect1_foregroundBlur_1032_4263"/>
</filter>
</defs>
</svg>
