<svg width="38" height="38" viewBox="0 0 38 38" fill="none" xmlns="http://www.w3.org/2000/svg">
<g clip-path="url(#clip0_163_2619)">
<path d="M32.8548 15.8334H5.14646C4.20201 15.8347 3.2966 16.2104 2.62878 16.8782C1.96095 17.5461 1.58521 18.4515 1.58396 19.3959V34.4376C1.58396 36.4025 3.18312 38.0001 5.14646 38.0001H32.8548C34.8181 38.0001 36.4173 36.4025 36.4173 34.4376V19.3959C36.4173 17.431 34.8181 15.8334 32.8548 15.8334ZM8.31312 28.1042H7.52146C7.20651 28.1042 6.90447 27.9791 6.68177 27.7564C6.45907 27.5337 6.33396 27.2317 6.33396 26.9167C6.33396 26.6018 6.45907 26.2998 6.68177 26.0771C6.90447 25.8544 7.20651 25.7292 7.52146 25.7292H8.31312C8.62807 25.7292 8.93011 25.8544 9.15281 26.0771C9.37551 26.2998 9.50062 26.6018 9.50062 26.9167C9.50062 27.2317 9.37551 27.5337 9.15281 27.7564C8.93011 27.9791 8.62807 28.1042 8.31312 28.1042ZM19.0006 32.4584C15.9448 32.4584 13.459 29.9726 13.459 26.9167C13.459 23.8609 15.9448 21.3751 19.0006 21.3751C22.0565 21.3751 24.5423 23.8609 24.5423 26.9167C24.5423 29.9726 22.0565 32.4584 19.0006 32.4584ZM30.4798 28.1042H29.6881C29.3732 28.1042 29.0711 27.9791 28.8484 27.7564C28.6257 27.5337 28.5006 27.2317 28.5006 26.9167C28.5006 26.6018 28.6257 26.2998 28.8484 26.0771C29.0711 25.8544 29.3732 25.7292 29.6881 25.7292H30.4798C30.7947 25.7292 31.0968 25.8544 31.3195 26.0771C31.5422 26.2998 31.6673 26.6018 31.6673 26.9167C31.6673 27.2317 31.5422 27.5337 31.3195 27.7564C31.0968 27.9791 30.7947 28.1042 30.4798 28.1042ZM20.0662 0.411744C19.7747 0.146501 19.3947 -0.000488281 19.0006 -0.000488281C18.6065 -0.000488281 18.2265 0.146501 17.935 0.411744L13.5809 4.37008C13.3443 4.58507 13.1784 4.86662 13.1049 5.17769C13.0314 5.48876 13.0538 5.8148 13.1691 6.11291C13.2844 6.41103 13.4873 6.66727 13.7509 6.84793C14.0146 7.02858 14.3268 7.1252 14.6465 7.12508H17.4173V12.6667C17.4173 13.0867 17.5841 13.4894 17.881 13.7863C18.178 14.0833 18.5807 14.2501 19.0006 14.2501C19.4205 14.2501 19.8233 14.0833 20.1202 13.7863C20.4171 13.4894 20.584 13.0867 20.584 12.6667V7.12508H23.3548C23.6744 7.1252 23.9866 7.02858 24.2503 6.84793C24.514 6.66727 24.7168 6.41103 24.8321 6.11291C24.9474 5.8148 24.9698 5.48876 24.8963 5.17769C24.8228 4.86662 24.6569 4.58507 24.4204 4.37008L20.0662 0.411744ZM7.00371 2.78674C6.7122 2.5215 6.33224 2.37451 5.93812 2.37451C5.544 2.37451 5.16405 2.5215 4.87254 2.78674L0.518373 6.74508C0.281841 6.96007 0.115917 7.24162 0.0424223 7.55269C-0.031072 7.86376 -0.00869481 8.1898 0.106611 8.48791C0.221917 8.78603 0.424751 9.04227 0.688439 9.22293C0.952126 9.40358 1.26432 9.5002 1.58396 9.50008H4.35479V12.6667C4.35479 13.0867 4.5216 13.4894 4.81854 13.7863C5.11547 14.0833 5.5182 14.2501 5.93812 14.2501C6.35805 14.2501 6.76078 14.0833 7.05771 13.7863C7.35464 13.4894 7.52146 13.0867 7.52146 12.6667V9.50008H10.2923C10.6119 9.5002 10.9241 9.40358 11.1878 9.22293C11.4515 9.04227 11.6543 8.78603 11.7696 8.48791C11.8849 8.1898 11.9073 7.86376 11.8338 7.55269C11.7603 7.24162 11.5944 6.96007 11.3579 6.74508L7.00371 2.78674ZM37.4829 6.74508L33.1287 2.78674C32.8372 2.5215 32.4572 2.37451 32.0631 2.37451C31.669 2.37451 31.289 2.5215 30.9975 2.78674L26.6434 6.74508C26.4068 6.96007 26.2409 7.24162 26.1674 7.55269C26.0939 7.86376 26.1163 8.1898 26.2316 8.48791C26.3469 8.78603 26.5497 9.04227 26.8134 9.22293C27.0771 9.40358 27.3893 9.5002 27.709 9.50008H30.4798V12.6667C30.4798 13.0867 30.6466 13.4894 30.9435 13.7863C31.2405 14.0833 31.6432 14.2501 32.0631 14.2501C32.483 14.2501 32.8858 14.0833 33.1827 13.7863C33.4796 13.4894 33.6465 13.0867 33.6465 12.6667V9.50008H36.4173C36.7369 9.5002 37.0491 9.40358 37.3128 9.22293C37.5765 9.04227 37.7793 8.78603 37.8946 8.48791C38.0099 8.1898 38.0323 7.86376 37.9588 7.55269C37.8853 7.24162 37.7194 6.96007 37.4829 6.74508Z" fill="#252525"/>
</g>
<defs>
<clipPath id="clip0_163_2619">
<rect width="38" height="38" fill="white"/>
</clipPath>
</defs>
</svg>
