<svg width="18" height="18" viewBox="0 0 18 18" fill="none" xmlns="http://www.w3.org/2000/svg">
<path d="M9.09891 4.29735C12.1319 4.32711 14.0319 4.1384 14.2885 7.50012H17.987C17.987 2.29229 13.4451 1.59033 9.00263 1.59033C4.55978 1.59033 0.0182055 2.29229 0.0182055 7.50012H3.68802C3.97195 4.07433 6.09115 4.26794 9.09891 4.29735ZM1.85241 9.17433C2.75323 9.17433 3.50281 9.22824 3.66946 8.34213C3.69187 8.22169 3.70482 8.08515 3.70482 7.92725H0C0 9.2454 0.829401 9.17433 1.85241 9.17433ZM14.3123 7.92725H14.2777C14.2777 8.0862 14.2913 8.22309 14.3169 8.34213C14.4926 9.15927 15.2412 9.10851 16.1388 9.10851C17.1667 9.10851 18 9.17608 18 7.92725H14.3123Z" fill="#252525"/>
<path d="M12.5055 7.02952V6.50576C12.5055 6.27154 12.2355 6.25684 11.9022 6.25684H11.3578C11.0249 6.25684 10.7549 6.27154 10.7549 6.50576V7.30715H6.90376V6.50576C6.90376 6.27154 6.63382 6.25684 6.30087 6.25684H5.75611C5.42316 6.25684 5.15323 6.27154 5.15323 6.50576V7.48676C4.27586 8.39843 1.40499 12.2794 1.30066 12.7492L1.30206 15.8844C1.30206 16.1739 1.53768 16.4096 1.82722 16.4096H15.8315C16.121 16.4096 16.3566 16.1739 16.3566 15.8844V12.7334C16.2533 12.2773 13.3832 8.39808 12.5055 7.48641V7.02952ZM6.714 13.1711C6.64586 13.1729 6.57806 13.161 6.51459 13.1361C6.45112 13.1113 6.39327 13.074 6.34444 13.0264C6.29562 12.9789 6.25682 12.922 6.23032 12.8592C6.20383 12.7964 6.19018 12.729 6.19018 12.6608C6.19018 12.5926 6.20383 12.5252 6.23032 12.4624C6.25682 12.3996 6.29562 12.3427 6.34444 12.2952C6.39327 12.2476 6.45112 12.2103 6.51459 12.1855C6.57806 12.1606 6.64586 12.1487 6.714 12.1505C6.84702 12.154 6.97342 12.2093 7.06627 12.3046C7.15912 12.3999 7.21109 12.5277 7.21109 12.6608C7.21109 12.7939 7.15912 12.9217 7.06627 13.017C6.97342 13.1123 6.84702 13.1676 6.714 13.1711ZM6.714 11.4205C6.64586 11.4223 6.57806 11.4105 6.51459 11.3856C6.45112 11.3608 6.39327 11.3235 6.34444 11.2759C6.29562 11.2284 6.25682 11.1715 6.23032 11.1087C6.20383 11.0459 6.19018 10.9784 6.19018 10.9103C6.19018 10.8421 6.20383 10.7746 6.23032 10.7118C6.25682 10.649 6.29562 10.5922 6.34444 10.5446C6.39327 10.4971 6.45112 10.4598 6.51459 10.4349C6.57806 10.4101 6.64586 10.3982 6.714 10.4C6.84702 10.4035 6.97342 10.4588 7.06627 10.5541C7.15912 10.6494 7.21109 10.7772 7.21109 10.9103C7.21109 11.0433 7.15912 11.1711 7.06627 11.2665C6.97342 11.3618 6.84702 11.4171 6.714 11.4205ZM6.714 9.67037C6.64586 9.67215 6.57806 9.66028 6.51459 9.63543C6.45112 9.61059 6.39327 9.57329 6.34444 9.52573C6.29562 9.47817 6.25682 9.42131 6.23032 9.35852C6.20383 9.29572 6.19018 9.22825 6.19018 9.16009C6.19018 9.09193 6.20383 9.02446 6.23032 8.96166C6.25682 8.89887 6.29562 8.84201 6.34444 8.79445C6.39327 8.74689 6.45112 8.70959 6.51459 8.68475C6.57806 8.6599 6.64586 8.64803 6.714 8.64981C6.84702 8.6533 6.97342 8.70859 7.06627 8.8039C7.15912 8.89922 7.21109 9.02702 7.21109 9.16009C7.21109 9.29316 7.15912 9.42096 7.06627 9.51628C6.97342 9.61159 6.84702 9.66689 6.714 9.67037ZM8.81463 13.1711C8.7465 13.1729 8.6787 13.161 8.61523 13.1361C8.55175 13.1113 8.4939 13.074 8.44508 13.0264C8.39626 12.9789 8.35745 12.922 8.33096 12.8592C8.30446 12.7964 8.29081 12.729 8.29081 12.6608C8.29081 12.5926 8.30446 12.5252 8.33096 12.4624C8.35745 12.3996 8.39626 12.3427 8.44508 12.2952C8.4939 12.2476 8.55175 12.2103 8.61523 12.1855C8.6787 12.1606 8.7465 12.1487 8.81463 12.1505C8.94766 12.154 9.07406 12.2093 9.16691 12.3046C9.25976 12.3999 9.31172 12.5277 9.31172 12.6608C9.31172 12.7939 9.25976 12.9217 9.16691 13.017C9.07406 13.1123 8.94766 13.1676 8.81463 13.1711ZM8.81463 11.4205C8.7465 11.4223 8.6787 11.4105 8.61523 11.3856C8.55175 11.3608 8.4939 11.3235 8.44508 11.2759C8.39626 11.2284 8.35745 11.1715 8.33096 11.1087C8.30446 11.0459 8.29081 10.9784 8.29081 10.9103C8.29081 10.8421 8.30446 10.7746 8.33096 10.7118C8.35745 10.649 8.39626 10.5922 8.44508 10.5446C8.4939 10.4971 8.55175 10.4598 8.61523 10.4349C8.6787 10.4101 8.7465 10.3982 8.81463 10.4C8.94766 10.4035 9.07406 10.4588 9.16691 10.5541C9.25976 10.6494 9.31172 10.7772 9.31172 10.9103C9.31172 11.0433 9.25976 11.1711 9.16691 11.2665C9.07406 11.3618 8.94766 11.4171 8.81463 11.4205ZM8.81463 9.67037C8.7465 9.67215 8.6787 9.66028 8.61523 9.63543C8.55175 9.61059 8.4939 9.57329 8.44508 9.52573C8.39626 9.47817 8.35745 9.42131 8.33096 9.35852C8.30446 9.29572 8.29081 9.22825 8.29081 9.16009C8.29081 9.09193 8.30446 9.02446 8.33096 8.96166C8.35745 8.89887 8.39626 8.84201 8.44508 8.79445C8.4939 8.74689 8.55175 8.70959 8.61523 8.68475C8.6787 8.6599 8.7465 8.64803 8.81463 8.64981C8.94766 8.6533 9.07406 8.70859 9.16691 8.8039C9.25976 8.89922 9.31172 9.02702 9.31172 9.16009C9.31172 9.29316 9.25976 9.42096 9.16691 9.51628C9.07406 9.61159 8.94766 9.66689 8.81463 9.67037ZM10.9153 13.1711C10.7799 13.1711 10.6501 13.1173 10.5543 13.0216C10.4586 12.9258 10.4048 12.796 10.4048 12.6606C10.4048 12.5252 10.4586 12.3954 10.5543 12.2997C10.6501 12.204 10.7799 12.1502 10.9153 12.1502C11.0507 12.1502 11.1805 12.204 11.2762 12.2997C11.3719 12.3954 11.4257 12.5252 11.4257 12.6606C11.4257 12.796 11.3719 12.9258 11.2762 13.0216C11.1805 13.1173 11.0507 13.1711 10.9153 13.1711ZM10.9153 11.4205C10.7799 11.4205 10.6501 11.3668 10.5543 11.271C10.4586 11.1753 10.4048 11.0455 10.4048 10.9101C10.4048 10.7747 10.4586 10.6449 10.5543 10.5491C10.6501 10.4534 10.7799 10.3996 10.9153 10.3996C11.0507 10.3996 11.1805 10.4534 11.2762 10.5491C11.3719 10.6449 11.4257 10.7747 11.4257 10.9101C11.4257 11.0455 11.3719 11.1753 11.2762 11.271C11.1805 11.3668 11.0507 11.4205 10.9153 11.4205ZM10.9153 9.67037C10.7799 9.67037 10.6501 9.61659 10.5543 9.52086C10.4586 9.42513 10.4048 9.2953 10.4048 9.15991C10.4048 9.02453 10.4586 8.8947 10.5543 8.79897C10.6501 8.70324 10.7799 8.64946 10.9153 8.64946C11.0507 8.64946 11.1805 8.70324 11.2762 8.79897C11.3719 8.8947 11.4257 9.02453 11.4257 9.15991C11.4257 9.2953 11.3719 9.42513 11.2762 9.52086C11.1805 9.61659 11.0507 9.67037 10.9153 9.67037Z" fill="#252525"/>
</svg>
