<svg width="17" height="17" viewBox="0 0 17 17" fill="none" xmlns="http://www.w3.org/2000/svg">
<g clip-path="url(#clip0_175_8080)">
<path d="M16.7923 15.7912L11.958 10.9569C12.8944 9.8002 13.4582 8.33041 13.4582 6.7296C13.4582 3.01939 10.4393 0.000488281 6.72908 0.000488281C3.01886 0.000488281 0 3.01935 0 6.72957C0 10.4398 3.0189 13.4587 6.72911 13.4587C8.32992 13.4587 9.79971 12.8949 10.9564 11.9584L15.7907 16.7928C15.9288 16.9309 16.1102 17.0003 16.2915 17.0003C16.4729 17.0003 16.6542 16.9309 16.7923 16.7928C17.0693 16.5158 17.0693 16.0682 16.7923 15.7912ZM6.72911 12.042C3.79946 12.042 1.41666 9.65922 1.41666 6.72957C1.41666 3.79992 3.79946 1.41712 6.72911 1.41712C9.65876 1.41712 12.0416 3.79992 12.0416 6.72957C12.0416 9.65922 9.65873 12.042 6.72911 12.042Z" fill="#949494"/>
</g>
<defs>
<clipPath id="clip0_175_8080">
<rect width="17" height="17" fill="white"/>
</clipPath>
</defs>
</svg>
