<svg width="64" height="64" viewBox="0 0 64 64" fill="none" xmlns="http://www.w3.org/2000/svg">
<path fill-rule="evenodd" clip-rule="evenodd" d="M44.0877 45.1583L54.192 39.9229C55.0404 39.4802 56.0247 39.3744 56.9478 39.6268C57.4007 39.75 57.8246 39.9618 58.195 40.2501C58.5655 40.5383 58.875 40.8972 59.1056 41.306C59.5772 42.1432 59.698 43.133 59.4417 44.0591C59.1855 44.9851 58.5729 45.772 57.738 46.2476L40.7143 56.074C39.3247 57.0001 37.6375 57.3697 35.988 57.1091L23.4889 55.3038L22.842 55.681L23.3795 56.5299C23.4352 56.6184 23.4729 56.717 23.4905 56.8201C23.5081 56.9232 23.5052 57.0287 23.482 57.1307C23.4588 57.2326 23.4157 57.329 23.3552 57.4143C23.2947 57.4997 23.2181 57.5722 23.1295 57.6279L16.4176 61.8748C16.3291 61.9305 16.2305 61.9682 16.1274 61.9858C16.0244 62.0033 15.9188 62.0004 15.8169 61.9772C15.7149 61.954 15.6185 61.9109 15.5332 61.8505C15.4479 61.79 15.3753 61.7133 15.3196 61.6248L4.54615 44.5998C4.49045 44.5113 4.45274 44.4127 4.43516 44.3096C4.41758 44.2065 4.42048 44.101 4.4437 43.999C4.46691 43.8971 4.50999 43.8007 4.57046 43.7154C4.63094 43.6301 4.70763 43.5575 4.79615 43.5019L11.5086 39.2546C11.5972 39.199 11.6958 39.1613 11.7988 39.1437C11.9019 39.1261 12.0074 39.129 12.1094 39.1522C12.2113 39.1754 12.3077 39.2185 12.393 39.279C12.4783 39.3395 12.5509 39.4161 12.6065 39.5046L14.2596 42.1171L23.6082 38.8773C25.0431 38.3607 26.6118 38.3524 28.0522 38.8535L42.119 43.5643C42.9461 43.8406 43.6453 44.4067 44.0877 45.1583ZM27.3233 28.8408C27.2328 28.7883 27.1534 28.7186 27.0899 28.6355C27.0263 28.5525 26.9797 28.4577 26.9528 28.3566C26.9258 28.2555 26.9191 28.1501 26.9329 28.0464C26.9466 27.9427 26.9807 27.8428 27.0331 27.7523C27.0856 27.6617 27.1553 27.5824 27.2384 27.5189C27.3215 27.4553 27.4162 27.4087 27.5173 27.3818C27.6184 27.3548 27.7238 27.3481 27.8275 27.3618C27.9312 27.3756 28.0311 27.4097 28.1217 27.4621L31.7199 29.5396C31.8104 29.5921 31.8897 29.6618 31.9533 29.7449C32.0168 29.8279 32.0634 29.9227 32.0904 30.0238C32.1173 30.1248 32.1241 30.2302 32.1103 30.3339C32.0965 30.4376 32.0624 30.5376 32.01 30.6281C31.9575 30.7186 31.8878 30.7979 31.8047 30.8614C31.7217 30.925 31.6269 30.9716 31.5258 30.9985C31.4247 31.0255 31.3194 31.0322 31.2157 31.0184C31.112 31.0046 31.012 30.9706 30.9215 30.9181L27.3233 28.8408ZM50.1216 9.50863L35.706 17.8315L40.0894 20.3623L54.505 12.0395L50.1216 9.50863ZM34.7752 19.1336V25.1161C34.7752 25.2606 34.7359 25.4024 34.6617 25.5264C34.5874 25.6504 34.4809 25.7519 34.3535 25.8201C34.2261 25.8883 34.0826 25.9206 33.9383 25.9137C33.7939 25.9067 33.6542 25.8608 33.5339 25.7806L29.5439 23.5711C29.4198 23.5023 29.3165 23.4014 29.2445 23.2791C29.1725 23.1569 29.1346 23.0175 29.1347 22.8756H29.1322V15.8756L24.8806 13.421V30.0651C29.6846 32.8382 34.488 35.6123 39.2909 38.3873V21.7409L34.7752 19.1338V19.1336ZM30.0684 14.5765L25.674 12.0395C30.4789 9.26542 35.2841 6.49172 40.0896 3.71838L44.4825 6.25476L30.0684 14.5765ZM46.0724 7.17276L48.5285 8.58888L34.113 16.9123L31.6584 15.495L46.0724 7.17276ZM30.729 16.7978L33.1782 18.2123V23.765L30.729 22.4083V16.7978ZM23.2855 12.0403L23.2838 30.5238C23.2837 30.6737 23.3259 30.8206 23.4055 30.9477C23.4851 31.0748 23.5989 31.1769 23.7338 31.2424C29.0535 34.3138 34.3734 37.3846 39.6934 40.4549C39.8158 40.5253 39.9547 40.5618 40.0959 40.5607C40.2371 40.5596 40.3754 40.5209 40.4966 40.4485C45.8306 37.369 51.164 34.2906 56.4966 31.2133C56.6175 31.1432 56.7178 31.0427 56.7876 30.9217C56.8573 30.8006 56.894 30.6634 56.894 30.5238L56.8958 12.0403C56.8958 11.8871 56.8518 11.7373 56.769 11.6085C56.6862 11.4797 56.5682 11.3774 56.4289 11.3138C51.1144 8.24542 45.8012 5.17726 40.4893 2.10926C40.3665 2.03811 40.227 2.00107 40.0851 2.00197C39.9432 2.00287 39.8041 2.04168 39.6823 2.11438C34.3642 5.1848 29.0464 8.25563 23.7289 11.3269C23.596 11.3928 23.4841 11.4945 23.4059 11.6206C23.3277 11.7466 23.2863 11.892 23.2863 12.0404L23.2855 12.0403ZM55.298 13.4211V30.0651C50.4933 32.8391 45.6899 35.6132 40.8879 38.3873V21.7409L55.2981 13.4211H55.298ZM11.6848 41.0266L6.31827 44.4225L16.2404 60.1029L21.607 56.7071L11.6848 41.0266ZM21.9895 54.334L22.9038 53.8008C23.0634 53.6998 23.2538 53.6592 23.4407 53.6861L36.2127 55.531C36.8432 55.628 37.4862 55.6098 38.1103 55.4773C38.8341 55.3189 39.2629 55.075 39.8881 54.7148L56.9106 44.8876C57.4214 44.5561 57.739 44.2425 57.9072 43.635C57.9792 43.3782 57.9999 43.1096 57.9679 42.8448C57.9359 42.5799 57.8519 42.324 57.7206 42.0918C57.5927 41.8651 57.4209 41.6662 57.2155 41.5064C57.01 41.3467 56.7748 41.2293 56.5236 41.1611C55.9865 41.0162 55.4144 41.0795 54.9219 41.3385L44.5804 46.6973C44.6179 47.133 44.5644 47.8513 44.3621 48.2561C43.9501 49.112 43.2734 49.8123 42.4323 50.2535C42.0311 50.4584 41.5928 50.5804 41.1435 50.6125C40.6941 50.6445 40.243 50.5858 39.8168 50.4399L29.5404 46.9983C29.4407 46.9655 29.3484 46.9134 29.2689 46.8449C29.1894 46.7765 29.1243 46.6929 29.0772 46.5991C29.0301 46.5054 29.002 46.4032 28.9945 46.2985C28.9871 46.1939 29.0004 46.0887 29.0337 45.9892C29.067 45.8897 29.1197 45.7978 29.1887 45.7187C29.2576 45.6396 29.3416 45.575 29.4356 45.5284C29.5297 45.4819 29.632 45.4544 29.7367 45.4476C29.8414 45.4408 29.9465 45.4547 30.0458 45.4886L40.322 48.9301C40.5504 49.0073 40.7919 49.0378 41.0322 49.0197C41.2725 49.0017 41.5068 48.9354 41.721 48.825C42.2356 48.5508 42.6517 48.1227 42.9113 47.6006C43.0639 47.0934 43.0141 46.5468 42.7721 46.0756C42.5302 45.6044 42.115 45.2454 41.6139 45.0739L27.546 40.3623C26.4382 39.9713 25.2289 39.9774 24.125 40.3796L15.132 43.4964L21.9895 54.334Z" fill="#252525"/>
</svg>
