<svg xmlns="http://www.w3.org/2000/svg">
	<symbol id="clock" viewBox="0 0 20 20">
		<g clip-path="url(#clip0_175_8072)">
		<path d="M10 3.4375C8.70206 3.4375 7.43327 3.82238 6.35407 4.54348C5.27488 5.26458 4.43374 6.2895 3.93704 7.48864C3.44034 8.68778 3.31038 10.0073 3.5636 11.2803C3.81682 12.5533 4.44183 13.7226 5.35961 14.6404C6.2774 15.5582 7.44672 16.1832 8.71972 16.4364C9.99272 16.6896 11.3122 16.5597 12.5114 16.063C13.7105 15.5663 14.7354 14.7251 15.4565 13.6459C16.1776 12.5667 16.5625 11.2979 16.5625 10C16.5607 8.26008 15.8687 6.59194 14.6384 5.36162C13.4081 4.13131 11.7399 3.43932 10 3.4375ZM12.9875 12.2625C12.9293 12.3362 12.8553 12.3958 12.7709 12.4369C12.6865 12.4781 12.5939 12.4996 12.5 12.5C12.3587 12.5011 12.2215 12.4524 12.1125 12.3625L9.6125 10.4875C9.53884 10.4293 9.47924 10.3552 9.43813 10.2708C9.39701 10.1865 9.37544 10.0939 9.375 10V5.625C9.375 5.45924 9.44085 5.30027 9.55806 5.18306C9.67527 5.06585 9.83424 5 10 5C10.1658 5 10.3247 5.06585 10.4419 5.18306C10.5592 5.30027 10.625 5.45924 10.625 5.625V9.7L12.8875 11.3875C12.9525 11.4376 13.0069 11.5003 13.0472 11.5719C13.0876 11.6434 13.1132 11.7223 13.1225 11.8039C13.1318 11.8854 13.1247 11.9681 13.1015 12.0469C13.0783 12.1256 13.0395 12.199 12.9875 12.2625Z" fill="currentColor"/>
		<path d="M10 0.625C8.1458 0.625 6.33324 1.17483 4.79153 2.20497C3.24982 3.23511 2.04821 4.69929 1.33863 6.41234C0.629062 8.1254 0.443406 10.0104 0.805142 11.829C1.16688 13.6475 2.05976 15.318 3.37088 16.6291C4.682 17.9402 6.35246 18.8331 8.17103 19.1949C9.98961 19.5566 11.8746 19.3709 13.5877 18.6614C15.3007 17.9518 16.7649 16.7502 17.795 15.2085C18.8252 13.6668 19.375 11.8542 19.375 10C19.372 7.51451 18.3834 5.13167 16.6258 3.37416C14.8683 1.61665 12.4855 0.627977 10 0.625ZM10 17.8544C8.44656 17.8544 6.92799 17.3937 5.63635 16.5307C4.3447 15.6676 3.33799 14.4409 2.74351 13.0057C2.14903 11.5705 1.99349 9.99129 2.29655 8.46769C2.59961 6.94409 3.34767 5.54457 4.44612 4.44612C5.54458 3.34766 6.94409 2.59961 8.46769 2.29654C9.99129 1.99348 11.5705 2.14902 13.0057 2.7435C14.4409 3.33798 15.6676 4.3447 16.5307 5.63634C17.3937 6.92799 17.8544 8.44655 17.8544 10C17.8524 12.0825 17.0242 14.0791 15.5517 15.5517C14.0791 17.0242 12.0825 17.8524 10 17.8544Z" fill="currentColor"/>
		</g>
		<defs>
		<clipPath id="clip0_175_8072">
		<rect width="20" height="20" fill="currentColor"/>
		</clipPath>
		</defs>
	</symbol>
	<symbol id="mail" viewBox="0 0 19 20">
		<path d="M0 4.69621V15.2925L5.92581 9.33621L0 4.69621ZM0.888287 3.90527L9.50393 10.6515L18.3244 3.90527H0.888287ZM13.1117 9.36645L19 15.1148V4.86289L13.1117 9.36645Z" fill="currentColor"/>
		<path d="M12.1774 10.0813L9.83305 11.8743C9.73628 11.9484 9.61968 11.9883 9.50003 11.9882C9.37819 11.9883 9.2596 11.947 9.16189 11.8704L6.84808 10.0586L0.842224 16.0953H18.3378L12.1774 10.0813Z" fill="currentColor"/>
	</symbol>
	<symbol id="telephone" viewBox="0 0 18 18">
		<path d="M9.09891 4.29735C12.1319 4.32711 14.0319 4.1384 14.2885 7.50012H17.987C17.987 2.29229 13.4451 1.59033 9.00263 1.59033C4.55978 1.59033 0.0182055 2.29229 0.0182055 7.50012H3.68802C3.97195 4.07433 6.09115 4.26794 9.09891 4.29735ZM1.85241 9.17433C2.75323 9.17433 3.50281 9.22824 3.66946 8.34213C3.69187 8.22169 3.70482 8.08515 3.70482 7.92725H0C0 9.2454 0.829401 9.17433 1.85241 9.17433ZM14.3123 7.92725H14.2777C14.2777 8.0862 14.2913 8.22309 14.3169 8.34213C14.4926 9.15927 15.2412 9.10851 16.1388 9.10851C17.1667 9.10851 18 9.17608 18 7.92725H14.3123Z" fill="currentColor"/>
		<path d="M12.5055 7.02952V6.50576C12.5055 6.27154 12.2355 6.25684 11.9022 6.25684H11.3578C11.0249 6.25684 10.7549 6.27154 10.7549 6.50576V7.30715H6.90376V6.50576C6.90376 6.27154 6.63382 6.25684 6.30087 6.25684H5.75611C5.42316 6.25684 5.15323 6.27154 5.15323 6.50576V7.48676C4.27586 8.39843 1.40499 12.2794 1.30066 12.7492L1.30206 15.8844C1.30206 16.1739 1.53768 16.4096 1.82722 16.4096H15.8315C16.121 16.4096 16.3566 16.1739 16.3566 15.8844V12.7334C16.2533 12.2773 13.3832 8.39808 12.5055 7.48641V7.02952ZM6.714 13.1711C6.64586 13.1729 6.57806 13.161 6.51459 13.1361C6.45112 13.1113 6.39327 13.074 6.34444 13.0264C6.29562 12.9789 6.25682 12.922 6.23032 12.8592C6.20383 12.7964 6.19018 12.729 6.19018 12.6608C6.19018 12.5926 6.20383 12.5252 6.23032 12.4624C6.25682 12.3996 6.29562 12.3427 6.34444 12.2952C6.39327 12.2476 6.45112 12.2103 6.51459 12.1855C6.57806 12.1606 6.64586 12.1487 6.714 12.1505C6.84702 12.154 6.97342 12.2093 7.06627 12.3046C7.15912 12.3999 7.21109 12.5277 7.21109 12.6608C7.21109 12.7939 7.15912 12.9217 7.06627 13.017C6.97342 13.1123 6.84702 13.1676 6.714 13.1711ZM6.714 11.4205C6.64586 11.4223 6.57806 11.4105 6.51459 11.3856C6.45112 11.3608 6.39327 11.3235 6.34444 11.2759C6.29562 11.2284 6.25682 11.1715 6.23032 11.1087C6.20383 11.0459 6.19018 10.9784 6.19018 10.9103C6.19018 10.8421 6.20383 10.7746 6.23032 10.7118C6.25682 10.649 6.29562 10.5922 6.34444 10.5446C6.39327 10.4971 6.45112 10.4598 6.51459 10.4349C6.57806 10.4101 6.64586 10.3982 6.714 10.4C6.84702 10.4035 6.97342 10.4588 7.06627 10.5541C7.15912 10.6494 7.21109 10.7772 7.21109 10.9103C7.21109 11.0433 7.15912 11.1711 7.06627 11.2665C6.97342 11.3618 6.84702 11.4171 6.714 11.4205ZM6.714 9.67037C6.64586 9.67215 6.57806 9.66028 6.51459 9.63543C6.45112 9.61059 6.39327 9.57329 6.34444 9.52573C6.29562 9.47817 6.25682 9.42131 6.23032 9.35852C6.20383 9.29572 6.19018 9.22825 6.19018 9.16009C6.19018 9.09193 6.20383 9.02446 6.23032 8.96166C6.25682 8.89887 6.29562 8.84201 6.34444 8.79445C6.39327 8.74689 6.45112 8.70959 6.51459 8.68475C6.57806 8.6599 6.64586 8.64803 6.714 8.64981C6.84702 8.6533 6.97342 8.70859 7.06627 8.8039C7.15912 8.89922 7.21109 9.02702 7.21109 9.16009C7.21109 9.29316 7.15912 9.42096 7.06627 9.51628C6.97342 9.61159 6.84702 9.66689 6.714 9.67037ZM8.81463 13.1711C8.7465 13.1729 8.6787 13.161 8.61523 13.1361C8.55175 13.1113 8.4939 13.074 8.44508 13.0264C8.39626 12.9789 8.35745 12.922 8.33096 12.8592C8.30446 12.7964 8.29081 12.729 8.29081 12.6608C8.29081 12.5926 8.30446 12.5252 8.33096 12.4624C8.35745 12.3996 8.39626 12.3427 8.44508 12.2952C8.4939 12.2476 8.55175 12.2103 8.61523 12.1855C8.6787 12.1606 8.7465 12.1487 8.81463 12.1505C8.94766 12.154 9.07406 12.2093 9.16691 12.3046C9.25976 12.3999 9.31172 12.5277 9.31172 12.6608C9.31172 12.7939 9.25976 12.9217 9.16691 13.017C9.07406 13.1123 8.94766 13.1676 8.81463 13.1711ZM8.81463 11.4205C8.7465 11.4223 8.6787 11.4105 8.61523 11.3856C8.55175 11.3608 8.4939 11.3235 8.44508 11.2759C8.39626 11.2284 8.35745 11.1715 8.33096 11.1087C8.30446 11.0459 8.29081 10.9784 8.29081 10.9103C8.29081 10.8421 8.30446 10.7746 8.33096 10.7118C8.35745 10.649 8.39626 10.5922 8.44508 10.5446C8.4939 10.4971 8.55175 10.4598 8.61523 10.4349C8.6787 10.4101 8.7465 10.3982 8.81463 10.4C8.94766 10.4035 9.07406 10.4588 9.16691 10.5541C9.25976 10.6494 9.31172 10.7772 9.31172 10.9103C9.31172 11.0433 9.25976 11.1711 9.16691 11.2665C9.07406 11.3618 8.94766 11.4171 8.81463 11.4205ZM8.81463 9.67037C8.7465 9.67215 8.6787 9.66028 8.61523 9.63543C8.55175 9.61059 8.4939 9.57329 8.44508 9.52573C8.39626 9.47817 8.35745 9.42131 8.33096 9.35852C8.30446 9.29572 8.29081 9.22825 8.29081 9.16009C8.29081 9.09193 8.30446 9.02446 8.33096 8.96166C8.35745 8.89887 8.39626 8.84201 8.44508 8.79445C8.4939 8.74689 8.55175 8.70959 8.61523 8.68475C8.6787 8.6599 8.7465 8.64803 8.81463 8.64981C8.94766 8.6533 9.07406 8.70859 9.16691 8.8039C9.25976 8.89922 9.31172 9.02702 9.31172 9.16009C9.31172 9.29316 9.25976 9.42096 9.16691 9.51628C9.07406 9.61159 8.94766 9.66689 8.81463 9.67037ZM10.9153 13.1711C10.7799 13.1711 10.6501 13.1173 10.5543 13.0216C10.4586 12.9258 10.4048 12.796 10.4048 12.6606C10.4048 12.5252 10.4586 12.3954 10.5543 12.2997C10.6501 12.204 10.7799 12.1502 10.9153 12.1502C11.0507 12.1502 11.1805 12.204 11.2762 12.2997C11.3719 12.3954 11.4257 12.5252 11.4257 12.6606C11.4257 12.796 11.3719 12.9258 11.2762 13.0216C11.1805 13.1173 11.0507 13.1711 10.9153 13.1711ZM10.9153 11.4205C10.7799 11.4205 10.6501 11.3668 10.5543 11.271C10.4586 11.1753 10.4048 11.0455 10.4048 10.9101C10.4048 10.7747 10.4586 10.6449 10.5543 10.5491C10.6501 10.4534 10.7799 10.3996 10.9153 10.3996C11.0507 10.3996 11.1805 10.4534 11.2762 10.5491C11.3719 10.6449 11.4257 10.7747 11.4257 10.9101C11.4257 11.0455 11.3719 11.1753 11.2762 11.271C11.1805 11.3668 11.0507 11.4205 10.9153 11.4205ZM10.9153 9.67037C10.7799 9.67037 10.6501 9.61659 10.5543 9.52086C10.4586 9.42513 10.4048 9.2953 10.4048 9.15991C10.4048 9.02453 10.4586 8.8947 10.5543 8.79897C10.6501 8.70324 10.7799 8.64946 10.9153 8.64946C11.0507 8.64946 11.1805 8.70324 11.2762 8.79897C11.3719 8.8947 11.4257 9.02453 11.4257 9.15991C11.4257 9.2953 11.3719 9.42513 11.2762 9.52086C11.1805 9.61659 11.0507 9.67037 10.9153 9.67037Z" fill="currentColor"/>
	</symbol>
	<symbol id="user" viewBox="0 0 24 24">
		<path d="M12 2.52002C6.77266 2.52002 2.52002 6.77271 2.52002 12C2.52002 15.1786 4.09258 17.9966 6.50046 19.7174V17.6229C6.50046 15.8564 7.93249 14.4244 9.69897 14.4244H14.301C16.0675 14.4244 17.4995 15.8565 17.4995 17.6229V19.7174C19.9075 17.9966 21.48 15.1786 21.48 12C21.4799 6.77271 17.2273 2.52002 12 2.52002ZM12 12.457C10.1903 12.457 8.71783 10.9847 8.71783 9.17486C8.71783 7.36516 10.1902 5.89282 12 5.89282C13.8098 5.89282 15.2821 7.36516 15.2821 9.17486C15.2821 10.9847 13.8097 12.457 12 12.457Z" fill="currentColor"/>
		<path d="M12 0C5.37253 0 0 5.37253 0 12C0 18.6275 5.37253 24 12 24C18.6275 24 24 18.6275 24 12C24 5.37253 18.6274 0 12 0ZM12 22.6989C6.10064 22.6989 1.30111 17.8994 1.30111 12C1.30111 6.10064 6.10064 1.30111 12 1.30111C17.8994 1.30111 22.6989 6.10064 22.6989 12C22.6989 17.8994 17.8994 22.6989 12 22.6989Z" fill="currentColor"/>
	</symbol>
	<symbol id="heart" viewBox="0 0 24 23">
		<path d="M22.0625 2.4527C20.782 1.02752 19.0367 0.159039 17.1732 0.0197736C15.3096 -0.119492 13.4643 0.480643 12.0037 1.70097C10.543 0.480643 8.69768 -0.119492 6.83416 0.0197736C4.97064 0.159039 3.2253 1.02752 1.9448 2.4527C0.634239 3.98759 -0.0608541 5.99282 0.00418511 8.05104C0.0692243 10.1093 0.889385 12.0619 2.29397 13.5027L10.7615 22.3734C11.0889 22.7163 11.5329 22.9089 11.9958 22.9089C12.4587 22.9089 12.9027 22.7163 13.2301 22.3734L21.6976 13.5027C23.1044 12.0641 23.9275 10.1126 23.9954 8.05435C24.0634 5.9961 23.3711 3.98967 22.0625 2.4527ZM20.4712 12.2096L12.0037 21.0803L3.53616 12.2096C2.4485 11.1072 1.80854 9.6079 1.74952 8.02369C1.69049 6.43948 2.21695 4.89246 3.21929 3.70466C3.74014 3.12097 4.36834 2.65374 5.06609 2.33108C5.76383 2.00842 6.51668 1.83702 7.27932 1.82718H7.36662C8.11391 1.82469 8.85423 1.97773 9.5446 2.27742C10.235 2.57712 10.8616 3.01748 11.3882 3.57297C11.5519 3.74441 11.7739 3.84072 12.0054 3.84072C12.2369 3.84072 12.4589 3.74441 12.6226 3.57297C13.1614 3.0083 13.8031 2.56279 14.5094 2.26287C15.2158 1.96295 15.9725 1.81474 16.7345 1.82702C17.4966 1.8393 18.2486 2.01183 18.9458 2.33438C19.643 2.65692 20.2712 3.12289 20.7933 3.70466C21.7949 4.89315 22.3205 6.44058 22.2605 8.02479C22.2005 9.60901 21.5596 11.1079 20.4712 12.2096Z" fill="currentColor"/>
	</symbol>
	<symbol id="compare" viewBox="0 0 24 24" fill="none">
		<rect x="1" y="1" width="22" height="22" rx="3" stroke="currentColor" stroke-width="2"/>
		<path d="M7 13C7 12.4477 6.55228 12 6 12C5.44771 12 5 12.4477 5 13L7 13ZM7 20L7 13L5 13L5 20L7 20Z" fill="currentColor"/>
		<path d="M13 6C13 5.44771 12.5523 5 12 5C11.4477 5 11 5.44771 11 6L13 6ZM13 20L13 6L11 6L11 20L13 20Z" fill="currentColor"/>
		<path d="M19 10C19 9.44771 18.5523 9 18 9C17.4477 9 17 9.44771 17 10L19 10ZM19 20L19 10L17 10L17 20L19 20Z" fill="currentColor"/>
	</symbol>
	<symbol id="cart" viewBox="0 0 24 22">
		<path d="M4.77487 2.20659C4.77274 2.19787 4.77035 2.18923 4.76769 2.18066C4.4456 1.1023 3.91218 0 2.3996 0H0.686824C0.307514 0 0 0.307815 0 0.687495C0 1.06718 0.307514 1.37499 0.686824 1.37499H2.3996C2.81711 1.37499 3.11591 1.45793 3.44785 2.56207L3.74332 3.71332H5.16176L4.77487 2.20659ZM22.9315 5.58734C22.6038 5.26379 22.1694 5.08589 21.7077 5.08589H21.7062L4.09918 5.09894L6.37343 13.9595C6.3749 13.9647 6.37629 13.9702 6.37772 13.9755C6.74648 15.2804 7.56008 16.0288 8.60991 16.0288H10.0082V16.7711C8.86145 17.0727 8.01408 18.1106 8.01408 19.3414C8.01408 20.8073 9.21659 22 10.695 22C12.1734 22 13.376 20.8073 13.376 19.3414C13.376 18.1106 12.5285 17.0727 11.3818 16.7711V16.0288H18.6985V16.7711C17.5517 17.0727 16.7042 18.1106 16.7042 19.3414C16.7042 20.8073 17.9069 22 19.3852 22C20.8636 22 22.0663 20.8073 22.0663 19.3414C22.0663 18.1106 21.2187 17.0727 20.0721 16.7711V16.0288H21.0623C22.3752 16.0288 23.4435 14.9692 23.4435 13.6666V6.81035C23.4435 6.34773 23.2617 5.9133 22.9314 5.58734H22.9315Z" fill="currentColor"/>
	</symbol>
	<symbol id="search" viewBox="0 0 17 17">
		<g clip-path="url(#clip0_175_8080)">
		<path d="M16.7923 15.7912L11.958 10.9569C12.8944 9.8002 13.4582 8.33041 13.4582 6.7296C13.4582 3.01939 10.4393 0.000488281 6.72908 0.000488281C3.01886 0.000488281 0 3.01935 0 6.72957C0 10.4398 3.0189 13.4587 6.72911 13.4587C8.32992 13.4587 9.79971 12.8949 10.9564 11.9584L15.7907 16.7928C15.9288 16.9309 16.1102 17.0003 16.2915 17.0003C16.4729 17.0003 16.6542 16.9309 16.7923 16.7928C17.0693 16.5158 17.0693 16.0682 16.7923 15.7912ZM6.72911 12.042C3.79946 12.042 1.41666 9.65922 1.41666 6.72957C1.41666 3.79992 3.79946 1.41712 6.72911 1.41712C9.65876 1.41712 12.0416 3.79992 12.0416 6.72957C12.0416 9.65922 9.65873 12.042 6.72911 12.042Z" fill="currentColor"/>
		</g>
		<defs>
		<clipPath id="clip0_175_8080">
		<rect width="17" height="17" fill="currentColor"/>
		</clipPath>
		</defs>
	</symbol>
	<symbol id="arrow-right" viewBox="0 0 17 16">
		<path d="M16.7071 8.70711C17.0976 8.31658 17.0976 7.68342 16.7071 7.29289L10.3431 0.928933C9.95262 0.538409 9.31946 0.538409 8.92893 0.928933C8.53841 1.31946 8.53841 1.95262 8.92893 2.34315L14.5858 8L8.92893 13.6569C8.53841 14.0474 8.53841 14.6805 8.92893 15.0711C9.31946 15.4616 9.95262 15.4616 10.3431 15.0711L16.7071 8.70711ZM-8.74228e-08 9L16 9L16 7L8.74228e-08 7L-8.74228e-08 9Z" fill="currentColor"/>
	</symbol>
	<symbol id="arrow-left" viewBox="0 0 17 16">
		<path d="M0.292892 7.29289C-0.0976315 7.68342 -0.0976315 8.31658 0.292892 8.70711L6.65685 15.0711C7.04738 15.4616 7.68054 15.4616 8.07107 15.0711C8.46159 14.6805 8.46159 14.0474 8.07107 13.6569L2.41421 8L8.07107 2.34315C8.46159 1.95262 8.46159 1.31946 8.07107 0.928932C7.68054 0.538408 7.04738 0.538408 6.65685 0.928932L0.292892 7.29289ZM17 7L1 7L1 9L17 9L17 7Z" fill="currentColor"/>
	</symbol>
	<symbol id="vk" viewBox="0 0 26 15">
		<path fill-rule="evenodd" clip-rule="evenodd" d="M12.4126 14.9301H13.9338C13.9338 14.9301 14.3775 14.8667 14.6311 14.6132C14.8529 14.3913 14.8529 13.9476 14.8529 13.9476C14.8529 13.9476 14.8212 11.9194 15.772 11.6024C16.691 11.3172 17.8953 13.5673 19.163 14.423C20.1137 15.0885 20.8427 14.9301 20.8427 14.9301L24.2337 14.8984C24.2337 14.8984 26.0084 14.8033 25.1528 13.4089C25.0894 13.2821 24.6774 12.363 22.6491 10.4932C20.5257 8.52833 20.811 8.84525 23.378 5.42253C24.9309 3.36256 25.5647 2.09489 25.3746 1.52444C25.1844 1.01737 24.0435 1.14414 24.0435 1.14414L20.2405 1.17583C20.2405 1.17583 19.9553 1.14414 19.7334 1.2709C19.4799 1.42936 19.3531 1.71459 19.3531 1.71459C19.3531 1.71459 18.751 3.33087 17.9587 4.69362C16.2473 7.57758 15.5818 7.73604 15.2966 7.54589C14.6628 7.13389 14.8212 5.86622 14.8212 4.97885C14.8212 2.18997 15.2332 1.01737 13.9972 0.732143C13.5852 0.637067 13.2683 0.573684 12.2225 0.541992C10.8597 0.541992 9.71883 0.541992 9.0533 0.858911C8.60961 1.08075 8.2927 1.55613 8.48285 1.55613C8.73638 1.58782 9.30684 1.71459 9.59206 2.12658C9.97236 2.66534 9.97236 3.83794 9.97236 3.83794C9.97236 3.83794 10.1942 7.13389 9.4336 7.54589C8.92653 7.83111 8.22931 7.26066 6.7081 4.63024C5.9475 3.29918 5.34536 1.80967 5.34536 1.80967C5.34536 1.80967 5.21859 1.52444 5.02844 1.39767C4.86998 1.2709 4.55306 1.17583 4.20445 1.17583L0.813424 1.20752C0.813424 1.20752 0.274663 1.20752 0.0845116 1.46106C-0.105639 1.6829 0.0845116 2.09489 0.0845116 2.09489C0.0845116 2.09489 2.93678 8.71848 6.13765 12.0461C9.08499 15.1519 12.4126 14.9301 12.4126 14.9301Z" fill="currentColor"/>
	</symbol>
	<symbol id="tg" viewBox="0 0 24 20">
		<path d="M9.68579 13.1335L9.31576 18.3381C9.84517 18.3381 10.0745 18.1107 10.3494 17.8376L12.8315 15.4655L17.9746 19.2319C18.9178 19.7576 19.5824 19.4808 19.8368 18.3642L23.2127 2.54531L23.2137 2.54438C23.5128 1.15002 22.7094 0.604767 21.7904 0.946832L1.94692 8.54402C0.592646 9.0697 0.613151 9.82467 1.71671 10.1667L6.78989 11.7447L18.5739 4.37121C19.1284 4.00398 19.6327 4.20717 19.2179 4.5744L9.68579 13.1335Z" fill="currentColor"/>
	</symbol>
	<symbol id="ig" viewBox="0 0 20 20">
		<g clip-path="url(#clip0_219_11144)">
		<path d="M15.8137 3.70117C15.546 3.70117 15.3282 3.91902 15.3282 4.18672C15.3282 4.45441 15.546 4.67227 15.8137 4.67227C16.0814 4.67227 16.2993 4.45445 16.2993 4.18672C16.2993 3.91898 16.0814 3.70117 15.8137 3.70117ZM10 5.6959C7.62648 5.6959 5.69547 7.62691 5.69547 10.0004C5.69547 12.3739 7.62648 14.305 10 14.305C12.3736 14.305 14.3046 12.374 14.3046 10.0005C14.3046 7.62695 12.3736 5.6959 10 5.6959Z" fill="currentColor"/>
		<path d="M14.5173 0H5.4827C2.45953 0 0 2.45953 0 5.48273V14.5173C0 17.5405 2.45953 20 5.4827 20H14.5173C17.5405 20 20 17.5405 20 14.5173V5.48273C20 2.45953 17.5405 0 14.5173 0ZM10 15.4856C6.9752 15.4856 4.51441 13.0248 4.51441 10C4.51441 6.9752 6.97523 4.51445 10 4.51445C13.0248 4.51445 15.4856 6.97523 15.4856 10C15.4856 13.0248 13.0248 15.4856 10 15.4856ZM15.8137 5.85297C14.8947 5.85297 14.1471 5.10531 14.1471 4.18633C14.1471 3.26734 14.8947 2.51965 15.8137 2.51965C16.7327 2.51965 17.4804 3.2673 17.4804 4.18629C17.4804 5.10527 16.7327 5.85297 15.8137 5.85297Z" fill="currentColor"/>
		</g>
		<defs>
		<clipPath id="clip0_219_11144">
		<rect width="20" height="20" fill="currentColor"/>
		</clipPath>
		</defs>
	</symbol>
	<symbol id="location" viewBox="0 0 18 20">
		<path d="M9 0C5.48574 0 2.55469 2.83086 2.55469 6.44531C2.55469 7.82039 2.96789 9.04656 3.7609 10.1955L8.50676 17.601C8.73699 17.961 9.26348 17.9603 9.49324 17.601L14.2597 10.1704C15.0356 9.07344 15.4453 7.78543 15.4453 6.44531C15.4453 2.89137 12.5539 0 9 0ZM9 9.375C7.38465 9.375 6.07031 8.06066 6.07031 6.44531C6.07031 4.82996 7.38465 3.51562 9 3.51562C10.6154 3.51562 11.9297 4.82996 11.9297 6.44531C11.9297 8.06066 10.6154 9.375 9 9.375Z" fill="currentColor"/>
		<path d="M13.5806 13.4648L10.6302 18.0776C9.86648 19.2683 8.12926 19.2644 7.36922 18.0788L4.41398 13.4661C1.81383 14.0672 0.210938 15.1685 0.210938 16.4846C0.210938 18.7682 4.73938 20.0002 9 20.0002C13.2606 20.0002 17.7891 18.7682 17.7891 16.4846C17.7891 15.1676 16.1839 14.0657 13.5806 13.4648Z" fill="currentColor"/>
	</symbol>
	<symbol id="trash" viewBox="0 0 21 21">
		<g clip-path="url(#clip0_175_9167)">
		<path d="M5.25 16.625C5.25 17.5875 6.0375 18.375 7 18.375H14C14.9625 18.375 15.75 17.5875 15.75 16.625V6.125H5.25V16.625ZM7.4025 10.395L8.63625 9.16125L10.5 11.0163L12.355 9.16125L13.5888 10.395L11.7338 12.25L13.5888 14.105L12.355 15.3388L10.5 13.4837L8.645 15.3388L7.41125 14.105L9.26625 12.25L7.4025 10.395ZM13.5625 3.5L12.6875 2.625H8.3125L7.4375 3.5H4.375V5.25H16.625V3.5H13.5625Z" fill="#FF4B33"/>
		</g>
		<defs>
		<clipPath id="clip0_175_9167">
		<rect width="21" height="21" fill="currentColor"/>
		</clipPath>
		</defs>
	</symbol>
	<symbol id="close" viewBox="0 0 19 19" fill="none">
		<path d="M1 1L18 18M18 1L1 18" stroke="currentColor" stroke-width="2"/>
	</symbol>
	<symbol id="cart-plus" viewBox="0 0 21 21">
		<path d="M19.0312 5.25H17.7187V3.9375C17.7187 3.76345 17.6496 3.59653 17.5265 3.47346C17.4035 3.35039 17.2365 3.28125 17.0625 3.28125C16.8884 3.28125 16.7215 3.35039 16.5985 3.47346C16.4754 3.59653 16.4062 3.76345 16.4062 3.9375V5.25H15.0937C14.9197 5.25 14.7528 5.31914 14.6297 5.44221C14.5066 5.56528 14.4375 5.7322 14.4375 5.90625C14.4375 6.0803 14.5066 6.24722 14.6297 6.37029C14.7528 6.49336 14.9197 6.5625 15.0937 6.5625H16.4062V7.875C16.4062 8.04905 16.4754 8.21597 16.5985 8.33904C16.7215 8.46211 16.8884 8.53125 17.0625 8.53125C17.2365 8.53125 17.4035 8.46211 17.5265 8.33904C17.6496 8.21597 17.7187 8.04905 17.7187 7.875V6.5625H19.0312C19.2053 6.5625 19.3722 6.49336 19.4953 6.37029C19.6184 6.24722 19.6875 6.0803 19.6875 5.90625C19.6875 5.7322 19.6184 5.56528 19.4953 5.44221C19.3722 5.31914 19.2053 5.25 19.0312 5.25ZM18.4406 10.5C18.284 10.5 18.1325 10.5561 18.0136 10.658C17.8947 10.76 17.8162 10.9011 17.7922 11.0558L17.6269 12.1144C17.5581 12.5796 17.3238 13.0043 16.9669 13.3106C16.61 13.6168 16.1546 13.7839 15.6844 13.7812H9.68624C9.216 13.7839 8.76058 13.6168 8.40371 13.3106C8.04684 13.0043 7.81249 12.5796 7.74374 12.1144L6.89062 6.5625H11.8125C11.9865 6.5625 12.1535 6.49336 12.2765 6.37029C12.3996 6.24722 12.4687 6.0803 12.4687 5.90625C12.4687 5.7322 12.3996 5.56528 12.2765 5.44221C12.1535 5.31914 11.9865 5.25 11.8125 5.25H6.63468L6.3538 4.11863C6.24772 3.69206 6.00195 3.31327 5.65562 3.04259C5.3093 2.7719 4.88236 2.6249 4.4428 2.625H2.1853C2.01125 2.625 1.84433 2.69414 1.72126 2.81721C1.59819 2.94028 1.52905 3.1072 1.52905 3.28125C1.52905 3.4553 1.59819 3.62222 1.72126 3.74529C1.84433 3.86836 2.01125 3.9375 2.1853 3.9375H4.4428C4.58936 3.93761 4.73167 3.98678 4.84703 4.07717C4.9624 4.16756 5.04419 4.29397 5.07937 4.43625L6.44437 12.3112C6.51467 12.7847 6.6888 13.2367 6.95429 13.6349C7.21977 14.0331 7.57003 14.3677 7.97999 14.6147C7.74368 14.8896 7.57722 15.2175 7.49473 15.5706C7.41224 15.9236 7.41617 16.2913 7.50618 16.6425C7.64412 17.1848 7.97531 17.6582 8.43755 17.9736C8.89979 18.289 9.46128 18.4248 10.0166 18.3555C10.5719 18.2862 11.0828 18.0166 11.4533 17.5973C11.8239 17.1779 12.0286 16.6377 12.0291 16.0781C12.0277 15.7369 11.9492 15.4003 11.7994 15.0938H13.5712C13.3435 15.5574 13.2828 16.0854 13.3993 16.5887C13.4739 16.9293 13.625 17.2485 13.8413 17.522C14.0575 17.7955 14.3332 18.0162 14.6475 18.1674C14.9617 18.3185 15.3062 18.3961 15.6549 18.3943C16.0036 18.3925 16.3473 18.3113 16.6599 18.157C16.9726 18.0026 17.246 17.779 17.4594 17.5033C17.6728 17.2276 17.8207 16.9068 17.8917 16.5655C17.9628 16.2241 17.9552 15.871 17.8695 15.533C17.7838 15.195 17.6223 14.881 17.3972 14.6147C17.8054 14.3664 18.1539 14.0313 18.4182 13.6332C18.6824 13.2352 18.8559 12.7838 18.9262 12.3112L19.087 11.2547C19.1012 11.1615 19.0951 11.0663 19.0691 10.9756C19.0431 10.885 18.998 10.801 18.9366 10.7293C18.8753 10.6577 18.7992 10.6002 18.7136 10.5606C18.628 10.521 18.5349 10.5003 18.4406 10.5ZM9.73218 17.0625C9.53749 17.0625 9.34717 17.0048 9.18529 16.8966C9.02341 16.7884 8.89724 16.6347 8.82273 16.4548C8.74823 16.275 8.72873 16.077 8.76672 15.8861C8.8047 15.6951 8.89845 15.5197 9.03612 15.3821C9.17379 15.2444 9.34919 15.1506 9.54014 15.1127C9.73109 15.0747 9.92901 15.0942 10.1089 15.1687C10.2888 15.2432 10.4425 15.3694 10.5507 15.5312C10.6588 15.6931 10.7166 15.8834 10.7166 16.0781C10.7166 16.3392 10.6128 16.5896 10.4282 16.7742C10.2436 16.9588 9.99325 17.0625 9.73218 17.0625ZM15.6384 17.0625C15.4437 17.0625 15.2534 17.0048 15.0915 16.8966C14.9297 16.7884 14.8035 16.6347 14.729 16.4548C14.6545 16.275 14.635 16.077 14.673 15.8861C14.7109 15.6951 14.8047 15.5197 14.9424 15.3821C15.08 15.2444 15.2554 15.1506 15.4464 15.1127C15.6373 15.0747 15.8353 15.0942 16.0151 15.1687C16.195 15.2432 16.3487 15.3694 16.4569 15.5312C16.5651 15.6931 16.6228 15.8834 16.6228 16.0781C16.6228 16.3392 16.5191 16.5896 16.3345 16.7742C16.1499 16.9588 15.8995 17.0625 15.6384 17.0625Z" fill="currentColor"/>
	</symbol>
	<symbol id="check" viewBox="0 0 13 17">
		<path d="M10.3975 4.08144L5.20517 10.3387L2.53374 7.64416C2.42205 7.52791 2.28832 7.43506 2.14036 7.37104C1.99241 7.30702 1.83318 7.2731 1.67198 7.27126C1.51078 7.26942 1.35082 7.2997 1.20144 7.36033C1.05206 7.42096 0.916254 7.51074 0.801936 7.62441C0.687618 7.73808 0.59708 7.87338 0.535604 8.02241C0.474127 8.17145 0.442942 8.33123 0.443868 8.49244C0.444794 8.65365 0.477813 8.81307 0.540998 8.96138C0.604183 9.1097 0.69627 9.24395 0.811886 9.3563L4.43046 12.9992C4.65684 13.2269 4.96421 13.3557 5.28531 13.3574H5.33874C5.50794 13.3495 5.67365 13.3065 5.82539 13.2313C5.97714 13.156 6.11161 13.0501 6.22031 12.9202L12.2675 5.63451C12.4732 5.38654 12.5721 5.06697 12.5423 4.7461C12.5124 4.42524 12.3564 4.12937 12.1084 3.92359C11.8604 3.7178 11.5408 3.61894 11.22 3.64878C10.8991 3.67861 10.6032 3.83468 10.3975 4.08266V4.08144Z" fill="currentColor"/>
	</symbol>
	<symbol id="chevron-down" viewBox="0 0 14 8" fill="none">
		<path d="M1 1L7 7L13 1" stroke="currentColor" stroke-linecap="round"/>
	</symbol>
</svg>