<svg width="24" height="24" viewBox="0 0 24 24" fill="none" xmlns="http://www.w3.org/2000/svg">
<path d="M20.7188 10.6875H17.0625V7.3125H19.0312L20.7188 10.6875ZM4.31962 15H1.5V16.5L3.19687 17.0655C3.22348 16.6605 3.33765 16.2661 3.53149 15.9095C3.72532 15.5529 3.99422 15.2426 4.31962 15Z" fill="#252525"/>
<path d="M21 11.25H16.5V6.75H20.25V4.5H15V15H7.68038C8.03129 15.2609 8.31639 15.6003 8.51295 15.9909C8.7095 16.3815 8.81208 16.8127 8.8125 17.25H15.1875C15.1875 16.5041 15.4838 15.7887 16.0113 15.2613C16.5387 14.7338 17.2541 14.4375 18 14.4375C18.7459 14.4375 19.4613 14.7338 19.9887 15.2613C20.5162 15.7887 20.8125 16.5041 20.8125 17.25H22.5V12L21 11.25ZM6 15C5.55499 15 5.11998 15.132 4.74997 15.3792C4.37996 15.6264 4.09157 15.9778 3.92127 16.389C3.75097 16.8001 3.70642 17.2525 3.79323 17.689C3.88005 18.1254 4.09434 18.5263 4.40901 18.841C4.72368 19.1557 5.12459 19.37 5.56105 19.4568C5.9975 19.5436 6.4499 19.499 6.86104 19.3287C7.27217 19.1584 7.62357 18.87 7.87081 18.5C8.11804 18.13 8.25 17.695 8.25 17.25C8.25 16.6533 8.01295 16.081 7.59099 15.659C7.16903 15.2371 6.59674 15 6 15ZM6 18C5.85167 18 5.70666 17.956 5.58332 17.8736C5.45999 17.7912 5.36386 17.6741 5.30709 17.537C5.25033 17.4 5.23547 17.2492 5.26441 17.1037C5.29335 16.9582 5.36478 16.8246 5.46967 16.7197C5.57456 16.6148 5.7082 16.5434 5.85368 16.5144C5.99917 16.4855 6.14997 16.5003 6.28701 16.5571C6.42406 16.6139 6.54119 16.71 6.6236 16.8333C6.70601 16.9567 6.75 17.1017 6.75 17.25C6.75 17.4489 6.67098 17.6397 6.53033 17.7803C6.38968 17.921 6.19891 18 6 18Z" fill="#252525"/>
<path d="M18 15C17.555 15 17.12 15.132 16.75 15.3792C16.38 15.6264 16.0916 15.9778 15.9213 16.389C15.751 16.8001 15.7064 17.2525 15.7932 17.689C15.88 18.1254 16.0943 18.5263 16.409 18.841C16.7237 19.1557 17.1246 19.37 17.561 19.4568C17.9975 19.5436 18.4499 19.499 18.861 19.3287C19.2722 19.1584 19.6236 18.87 19.8708 18.5C20.118 18.13 20.25 17.695 20.25 17.25C20.25 16.6533 20.0129 16.081 19.591 15.659C19.169 15.2371 18.5967 15 18 15ZM18 18C17.8517 18 17.7067 17.956 17.5833 17.8736C17.46 17.7912 17.3639 17.6741 17.3071 17.537C17.2503 17.4 17.2355 17.2492 17.2644 17.1037C17.2934 16.9582 17.3648 16.8246 17.4697 16.7197C17.5746 16.6148 17.7082 16.5434 17.8537 16.5144C17.9992 16.4855 18.15 16.5003 18.287 16.5571C18.4241 16.6139 18.5412 16.71 18.6236 16.8333C18.706 16.9567 18.75 17.1017 18.75 17.25C18.75 17.4489 18.671 17.6397 18.5303 17.7803C18.3897 17.921 18.1989 18 18 18ZM1.5 4.5V14.4375H14.4375V4.5H1.5ZM13.0312 13.4062H3.46875V12.8438H13.0312V13.4062ZM13.0312 6.28125H3.46875V5.71875H13.0312V6.28125Z" fill="#252525"/>
</svg>
