<svg width="24" height="24" viewBox="0 0 24 24" fill="none" xmlns="http://www.w3.org/2000/svg">
<path d="M12 2.52002C6.77266 2.52002 2.52002 6.77271 2.52002 12C2.52002 15.1786 4.09258 17.9966 6.50046 19.7174V17.6229C6.50046 15.8564 7.93249 14.4244 9.69897 14.4244H14.301C16.0675 14.4244 17.4995 15.8565 17.4995 17.6229V19.7174C19.9075 17.9966 21.48 15.1786 21.48 12C21.4799 6.77271 17.2273 2.52002 12 2.52002ZM12 12.457C10.1903 12.457 8.71783 10.9847 8.71783 9.17486C8.71783 7.36516 10.1902 5.89282 12 5.89282C13.8098 5.89282 15.2821 7.36516 15.2821 9.17486C15.2821 10.9847 13.8097 12.457 12 12.457Z" fill="#252525"/>
<path d="M12 0C5.37253 0 0 5.37253 0 12C0 18.6275 5.37253 24 12 24C18.6275 24 24 18.6275 24 12C24 5.37253 18.6274 0 12 0ZM12 22.6989C6.10064 22.6989 1.30111 17.8994 1.30111 12C1.30111 6.10064 6.10064 1.30111 12 1.30111C17.8994 1.30111 22.6989 6.10064 22.6989 12C22.6989 17.8994 17.8994 22.6989 12 22.6989Z" fill="#252525"/>
</svg>
