<svg width="26" height="15" viewBox="0 0 26 15" fill="none" xmlns="http://www.w3.org/2000/svg">
<path fill-rule="evenodd" clip-rule="evenodd" d="M12.4126 14.9301H13.9338C13.9338 14.9301 14.3775 14.8667 14.6311 14.6132C14.8529 14.3913 14.8529 13.9476 14.8529 13.9476C14.8529 13.9476 14.8212 11.9194 15.772 11.6024C16.691 11.3172 17.8953 13.5673 19.163 14.423C20.1137 15.0885 20.8427 14.9301 20.8427 14.9301L24.2337 14.8984C24.2337 14.8984 26.0084 14.8033 25.1528 13.4089C25.0894 13.2821 24.6774 12.363 22.6491 10.4932C20.5257 8.52833 20.811 8.84525 23.378 5.42253C24.9309 3.36256 25.5647 2.09489 25.3746 1.52444C25.1844 1.01737 24.0435 1.14414 24.0435 1.14414L20.2405 1.17583C20.2405 1.17583 19.9553 1.14414 19.7334 1.2709C19.4799 1.42936 19.3531 1.71459 19.3531 1.71459C19.3531 1.71459 18.751 3.33087 17.9587 4.69362C16.2473 7.57758 15.5818 7.73604 15.2966 7.54589C14.6628 7.13389 14.8212 5.86622 14.8212 4.97885C14.8212 2.18997 15.2332 1.01737 13.9972 0.732143C13.5852 0.637067 13.2683 0.573684 12.2225 0.541992C10.8597 0.541992 9.71883 0.541992 9.0533 0.858911C8.60961 1.08075 8.2927 1.55613 8.48285 1.55613C8.73638 1.58782 9.30684 1.71459 9.59206 2.12658C9.97236 2.66534 9.97236 3.83794 9.97236 3.83794C9.97236 3.83794 10.1942 7.13389 9.4336 7.54589C8.92653 7.83111 8.22931 7.26066 6.7081 4.63024C5.9475 3.29918 5.34536 1.80967 5.34536 1.80967C5.34536 1.80967 5.21859 1.52444 5.02844 1.39767C4.86998 1.2709 4.55306 1.17583 4.20445 1.17583L0.813424 1.20752C0.813424 1.20752 0.274663 1.20752 0.0845116 1.46106C-0.105639 1.6829 0.0845116 2.09489 0.0845116 2.09489C0.0845116 2.09489 2.93678 8.71848 6.13765 12.0461C9.08499 15.1519 12.4126 14.9301 12.4126 14.9301Z" fill="white"/>
</svg>
