<svg width="20" height="20" viewBox="0 0 20 20" fill="none" xmlns="http://www.w3.org/2000/svg">
<g clip-path="url(#clip0_175_8092)">
<path fill-rule="evenodd" clip-rule="evenodd" d="M15 20H5C3.67392 20 2.40215 19.4732 1.46447 18.5355C0.526784 17.5979 0 16.3261 0 15V5C0 3.67392 0.526784 2.40215 1.46447 1.46447C2.40215 0.526784 3.67392 0 5 0L15 0C16.3261 0 17.5979 0.526784 18.5355 1.46447C19.4732 2.40215 20 3.67392 20 5V15C20 16.3261 19.4732 17.5979 18.5355 18.5355C17.5979 19.4732 16.3261 20 15 20Z" fill="#373737"/>
<path fill-rule="evenodd" clip-rule="evenodd" d="M9.375 5.625H15C15.7216 5.62591 16.416 5.34941 16.9394 4.85271C17.4629 4.356 17.7754 3.6771 17.8123 2.95643C17.8493 2.23576 17.6078 1.52847 17.1378 0.980864C16.6679 0.433257 16.0054 0.0872349 15.2875 0.014375C15.1919 0.0090625 15.0972 0 15 0H5C3.67392 0 2.40215 0.526784 1.46447 1.46447C0.526784 2.40215 0 3.67392 0 5L0 15C0 12.5136 0.98772 10.129 2.74587 8.37087C4.50403 6.61272 6.8886 5.625 9.375 5.625Z" fill="#6B6B6B"/>
<path fill-rule="evenodd" clip-rule="evenodd" d="M15 10C14.0111 10 13.0444 10.2932 12.2222 10.8427C11.3999 11.3921 10.759 12.173 10.3806 13.0866C10.0022 14.0002 9.90315 15.0055 10.0961 15.9755C10.289 16.9454 10.7652 17.8363 11.4645 18.5355C12.1637 19.2348 13.0546 19.711 14.0246 19.9039C14.9945 20.0969 15.9998 19.9978 16.9134 19.6194C17.8271 19.241 18.6079 18.6001 19.1574 17.7779C19.7068 16.9556 20 15.9889 20 15V5C20 6.32608 19.4732 7.59785 18.5355 8.53553C17.5979 9.47322 16.3261 10 15 10Z" fill="#252525"/>
<path fill-rule="evenodd" clip-rule="evenodd" d="M6.77281 14.7168C6.85599 14.6932 6.94317 14.687 7.02885 14.6987C7.11453 14.7104 7.19685 14.7398 7.27062 14.7849C8.51314 15.5252 9.98332 15.786 11.4046 15.5182C12.826 15.2505 14.1005 14.4726 14.9885 13.331C15.8765 12.1894 16.3168 10.7627 16.2266 9.31918C16.1364 7.87567 15.5218 6.51487 14.4986 5.49271C13.4753 4.47055 12.1139 3.85748 10.6703 3.76879C9.22668 3.6801 7.80041 4.12192 6.65974 5.01114C5.51907 5.90036 4.7426 7.17571 4.47636 8.59732C4.21012 10.0189 4.47247 11.4888 5.21406 12.7306C5.25903 12.8041 5.28824 12.8862 5.29986 12.9716C5.31148 13.057 5.30525 13.1439 5.28156 13.2268C5.1075 13.8427 4.6875 15.3127 4.6875 15.3127L6.77281 14.7168ZM4.13094 13.3546C3.23745 11.8485 2.92452 10.068 3.25091 8.34743C3.5773 6.6269 4.52056 5.08469 5.90357 4.01042C7.28658 2.93614 9.01419 2.4037 10.762 2.51306C12.5098 2.62243 14.1576 3.36608 15.3959 4.60438C16.6342 5.84268 17.3778 7.49045 17.4872 9.23825C17.5965 10.986 17.0641 12.7137 15.9898 14.0967C14.9155 15.4797 13.3733 16.4229 11.6528 16.7493C9.93227 17.0757 8.15176 16.7628 6.64562 15.8693C6.64562 15.8693 4.65281 16.4387 3.66594 16.7209C3.61232 16.7361 3.5556 16.7368 3.50164 16.7228C3.44768 16.7088 3.39844 16.6806 3.35902 16.6412C3.3196 16.6018 3.29143 16.5526 3.27743 16.4986C3.26342 16.4446 3.2641 16.3879 3.27937 16.3343L4.13094 13.3546Z" fill="white"/>
<path fill-rule="evenodd" clip-rule="evenodd" d="M6.86908 7.74609C6.96627 9.1454 7.56346 10.4631 8.55163 11.4586C9.5398 12.4541 10.853 13.061 12.2516 13.1686H12.2522C12.4755 13.1859 12.6999 13.1546 12.9099 13.0769C13.12 12.9992 13.3108 12.877 13.4691 12.7186L13.6872 12.5005C13.7902 12.3974 13.8481 12.2577 13.8481 12.112V11.6489C13.8481 11.5908 13.832 11.5339 13.8014 11.4845C13.7709 11.4351 13.7273 11.3952 13.6753 11.3692L12.2819 10.6727C12.2232 10.6433 12.1568 10.6331 12.092 10.6436C12.0272 10.6541 11.9674 10.6847 11.921 10.7311L11.3147 11.3373C11.2783 11.3737 11.2336 11.4006 11.1843 11.4155C11.1351 11.4304 11.083 11.433 11.0325 11.423L11.0297 11.4223C10.4247 11.3014 9.86904 11.004 9.43277 10.5677C8.99649 10.1314 8.69912 9.57579 8.57814 8.97078L8.57752 8.96797C8.56749 8.91752 8.57006 8.86537 8.58499 8.81615C8.59993 8.76693 8.62677 8.72215 8.66314 8.68578L9.26939 8.07953C9.3158 8.03313 9.34642 7.97329 9.35691 7.9085C9.3674 7.84372 9.35722 7.77727 9.32783 7.71859L8.63127 6.32516C8.60528 6.27323 8.56535 6.22956 8.51596 6.19904C8.46656 6.16852 8.40964 6.15235 8.35158 6.15234H7.95783C7.86433 6.15237 7.77188 6.17202 7.68645 6.21002C7.60102 6.24803 7.52452 6.30354 7.46189 6.37297L7.25439 6.60359C7.11795 6.75501 7.01337 6.93235 6.94691 7.12503C6.88044 7.31772 6.85344 7.52181 6.86752 7.72516L6.86908 7.74609Z" fill="white"/>
</g>
<defs>
<clipPath id="clip0_175_8092">
<rect width="20" height="20" fill="white"/>
</clipPath>
</defs>
</svg>
