<svg width="38" height="38" viewBox="0 0 38 38" fill="none" xmlns="http://www.w3.org/2000/svg">
<path d="M27.3451 7.93095L23.9837 2.17237C23.9043 2.03697 23.7989 1.9186 23.6736 1.82408C23.5483 1.72955 23.4055 1.66074 23.2535 1.6216C23.1015 1.58246 22.9432 1.57376 22.7879 1.596C22.6325 1.61824 22.483 1.67099 22.3481 1.7512L12.0723 7.9167L27.3451 7.93095Z" fill="#252525"/>
<path d="M4.75 9.49984C3.87917 9.49984 3.16667 8.78734 3.16667 7.9165C3.16667 7.04567 3.87917 6.33317 4.75 6.33317H10.0858L15.3742 3.1665H4.75C2.40667 3.1665 0.459167 4.8765 0.0791667 7.12484C0.0475 7.2515 0 7.37817 0 7.52067V31.6665C0 34.279 2.1375 36.4165 4.75 36.4165H31.6667C33.4083 36.4165 34.8333 34.9915 34.8333 33.2498V30.0832H30.875C26.9483 30.0832 23.75 26.8848 23.75 22.9582C23.75 19.0315 26.9483 15.8332 30.875 15.8332H34.8333V12.6665C34.8333 10.9248 33.4083 9.49984 31.6667 9.49984H4.75ZM30.0833 6.33317C30.0833 4.734 28.8958 3.404 27.3442 3.19817L30.0833 7.9165V6.33317Z" fill="#252525"/>
<path d="M36.8125 18.2085H30.875C28.2562 18.2085 26.125 20.3397 26.125 22.9585C26.125 25.5773 28.2562 27.7085 30.875 27.7085H36.8125C37.1274 27.7085 37.4295 27.5834 37.6522 27.3607C37.8749 27.138 38 26.8359 38 26.521V19.396C38 19.0811 37.8749 18.779 37.6522 18.5563C37.4295 18.3336 37.1274 18.2085 36.8125 18.2085ZM30.875 24.5418C30.4551 24.5418 30.0523 24.375 29.7554 24.0781C29.4585 23.7811 29.2917 23.3784 29.2917 22.9585C29.2917 22.5386 29.4585 22.1358 29.7554 21.8389C30.0523 21.542 30.4551 21.3752 30.875 21.3752C31.2949 21.3752 31.6977 21.542 31.9946 21.8389C32.2915 22.1358 32.4583 22.5386 32.4583 22.9585C32.4583 23.3784 32.2915 23.7811 31.9946 24.0781C31.6977 24.375 31.2949 24.5418 30.875 24.5418Z" fill="#252525"/>
</svg>
