<svg width="18" height="16" viewBox="0 0 18 16" fill="none" xmlns="http://www.w3.org/2000/svg">
<path d="M7.67064 0.767744L0.205867 13.6962C0.0710267 13.9296 2.49561e-05 14.1945 6.57757e-09 14.4641C-2.49429e-05 14.7337 0.0709278 14.9986 0.205725 15.2321C0.340522 15.4656 0.534413 15.6595 0.767905 15.7943C1.0014 15.9291 1.26626 16 1.53587 16H16.4642C16.7338 16 16.9987 15.9291 17.2322 15.7943C17.4657 15.6595 17.6596 15.4656 17.7944 15.2321C17.9292 14.9986 18.0001 14.7337 18.0001 14.4641C18.0001 14.1945 17.9291 13.9296 17.7942 13.6962L10.3303 0.767744C10.1955 0.534319 10.0016 0.340483 9.76821 0.205716C9.53478 0.0709488 9.26999 0 9.00045 0C8.73091 0 8.46612 0.0709488 8.23269 0.205716C7.99926 0.340483 7.80542 0.534319 7.67064 0.767744Z" fill="#E17B1D"/>
<path d="M9.09792 4.75488H8.9032C8.42379 4.75488 8.03516 5.14352 8.03516 5.62292V9.772C8.03516 10.2514 8.42379 10.64 8.9032 10.64H9.09792C9.57732 10.64 9.96596 10.2514 9.96596 9.772V5.62292C9.96596 5.14352 9.57732 4.75488 9.09792 4.75488Z" fill="white"/>
<path d="M9.00056 13.9308C9.53373 13.9308 9.96596 13.4986 9.96596 12.9654C9.96596 12.4322 9.53373 12 9.00056 12C8.46738 12 8.03516 12.4322 8.03516 12.9654C8.03516 13.4986 8.46738 13.9308 9.00056 13.9308Z" fill="white"/>
</svg>
