<svg width="581" height="718" viewBox="0 0 581 718" fill="none" xmlns="http://www.w3.org/2000/svg"><path fill-rule="evenodd" clip-rule="evenodd" d="M164.939 595.593C112.021 582.574 30.2628 616.102 5.45939 567.328C-20.4581 516.362 53.537 461.498 67.8775 404.726C76.8783 369.094 53.8085 327.418 73.8845 296.442C95.1406 263.645 155.481 274.569 174.393 240.38C200.043 194.012 160.346 128.708 190.707 85.2589C216.838 47.8639 272.416 49.6648 315.782 38.0429C366.137 24.5481 427.545 -20.6439 467.604 11.0523C514.136 47.869 489.79 127.824 503.487 186.56C511.292 220.027 523.326 251.056 531.364 284.459C538.82 315.439 543.622 346.028 549.419 377.424C556.826 417.54 599.514 466.934 570.542 496.645C535.869 532.202 457.694 464.548 426.622 503.352C382.468 558.492 454.335 664.948 399.936 709.703C359.203 743.214 315.729 654.66 269.81 632.363C236.172 616.029 201.378 604.558 164.939 595.593Z" fill="#D4D7F9"/></svg>