<svg width="80" height="80" viewBox="0 0 80 80" fill="none" xmlns="http://www.w3.org/2000/svg"><rect width="80" height="80" rx="22.8571" fill="white"/><path d="M50.7142 29.2941C50.7142 26.4547 49.5854 23.7316 47.5761 21.7239C45.5668 19.7161 42.8416 18.5882 39.9999 18.5882C37.1583 18.5882 34.4332 19.7161 32.4239 21.7239C30.4146 23.7316 29.2858 26.4547 29.2858 29.2941V32.2346H33.5714V29.2941C33.5714 27.5905 34.2487 25.9566 35.4543 24.752C36.6599 23.5473 38.295 22.8705 39.9999 22.8705C41.7049 22.8705 43.34 23.5473 44.5456 24.752C45.7512 25.9566 46.4285 27.5905 46.4285 29.2941V32.2346H50.7142V29.2941Z" fill="#CDD1FC"/><path fill-rule="evenodd" clip-rule="evenodd" d="M29.2858 33.5764C27.5808 33.5764 25.9456 34.2532 24.74 35.4578C23.5344 36.6625 22.8571 38.2963 22.8571 40V54.9882C22.8571 56.6918 23.5344 58.3257 24.74 59.5303C25.9456 60.735 27.5808 61.4117 29.2858 61.4117H50.7142C52.4192 61.4117 54.0544 60.735 55.26 59.5303C56.4656 58.3257 57.1429 56.6918 57.1429 54.9882V40C57.1429 38.2963 56.4656 36.6625 55.26 35.4578C54.0544 34.2532 52.4192 33.5764 50.7142 33.5764H46.4285H33.5714H29.2858ZM45.2484 42.2421C46.7009 42.8433 48.0375 43.6889 49.2009 44.7405C49.4817 44.9944 49.4806 45.4296 49.2128 45.6972L48.5663 46.3432C48.2985 46.6108 47.8656 46.609 47.5824 46.3579C45.5649 44.5692 42.9095 43.4829 40.0001 43.4829C37.0908 43.4829 34.4354 44.5692 32.4179 46.3579C32.1346 46.6091 31.7018 46.6108 31.434 46.3432L30.7875 45.6972C30.5197 45.4296 30.5186 44.9944 30.7994 44.7405C31.9627 43.6889 33.2994 42.8433 34.7519 42.2421C36.4158 41.5535 38.1991 41.199 40.0001 41.199C41.8011 41.199 43.5845 41.5535 45.2484 42.2421ZM40.0001 45.7669C42.2783 45.7669 44.3618 46.5994 45.9626 47.9766C46.2496 48.2235 46.2481 48.6596 45.9803 48.9271L45.3338 49.5731C45.066 49.8407 44.6338 49.8377 44.3407 49.598C43.1585 48.631 41.6471 48.0508 40.0001 48.0508C38.3531 48.0508 36.8417 48.631 35.6595 49.598C35.3665 49.8377 34.9343 49.8407 34.6665 49.5731L34.02 48.9271C33.7522 48.6596 33.7506 48.2235 34.0376 47.9766C35.6384 46.5994 37.722 45.7669 40.0001 45.7669ZM42.7135 51.2259C41.9545 50.6658 41.016 50.3347 40.0001 50.3347C38.9842 50.3347 38.0457 50.6658 37.2868 51.226C36.9822 51.4508 36.9847 51.8895 37.2525 52.1571L39.5153 54.4181C39.783 54.6856 40.2172 54.6856 40.485 54.4181L42.7478 52.1571C43.0156 51.8895 43.0181 51.4508 42.7135 51.2259Z" fill="#CDD1FC"/></svg>