<svg width="226" height="143" viewBox="0 0 226 143" fill="none" xmlns="http://www.w3.org/2000/svg"><g filter="url(#filter0_dddd_1_1187)"><rect x="27.8571" y="5" width="40" height="40" rx="11.4286" fill="white" shape-rendering="crispEdges"/><path d="M53.2144 19.6471C53.2144 18.2274 52.65 16.8659 51.6453 15.862C50.6407 14.8582 49.2781 14.2942 47.8573 14.2942C46.4364 14.2942 45.0739 14.8582 44.0692 15.862C43.0646 16.8659 42.5002 18.2274 42.5002 19.6471V21.1174H44.643V19.6471C44.643 18.7953 44.9816 17.9784 45.5844 17.3761C46.1872 16.7737 47.0048 16.4354 47.8573 16.4354C48.7097 16.4354 49.5273 16.7737 50.1301 17.3761C50.7329 17.9784 51.0715 18.7953 51.0715 19.6471V21.1174H53.2144V19.6471Z" fill="#CDD1FC"/><path fill-rule="evenodd" clip-rule="evenodd" d="M42.5002 21.7883C41.6477 21.7883 40.8301 22.1267 40.2273 22.729C39.6245 23.3313 39.2859 24.1483 39.2859 25.0001V32.4942C39.2859 33.346 39.6245 34.1629 40.2273 34.7652C40.8301 35.3676 41.6477 35.706 42.5002 35.706H53.2144C54.0669 35.706 54.8845 35.3676 55.4873 34.7652C56.0901 34.1629 56.4287 33.346 56.4287 32.4942V25.0001C56.4287 24.1483 56.0901 23.3313 55.4873 22.729C54.8845 22.1267 54.0669 21.7883 53.2144 21.7883H51.0715H44.643H42.5002ZM50.4815 26.1212C51.2077 26.4217 51.876 26.8445 52.4577 27.3703C52.5981 27.4973 52.5976 27.7149 52.4637 27.8487L52.1404 28.1717C52.0065 28.3055 51.7901 28.3046 51.6485 28.179C50.6397 27.2847 49.312 26.7416 47.8573 26.7416C46.4027 26.7416 45.075 27.2847 44.0662 28.179C43.9246 28.3046 43.7082 28.3055 43.5743 28.1717L43.251 27.8487C43.1171 27.7149 43.1166 27.4973 43.257 27.3703C43.8387 26.8445 44.507 26.4217 45.2332 26.1212C46.0652 25.7768 46.9568 25.5996 47.8573 25.5996C48.7578 25.5996 49.6495 25.7768 50.4815 26.1212ZM47.8573 27.8835C48.9964 27.8835 50.0382 28.2998 50.8386 28.9884C50.9821 29.1119 50.9813 29.3299 50.8474 29.4637L50.5242 29.7867C50.3903 29.9204 50.1742 29.9189 50.0276 29.7991C49.4365 29.3156 48.6808 29.0255 47.8573 29.0255C47.0338 29.0255 46.2782 29.3156 45.687 29.7991C45.5405 29.9189 45.3244 29.9204 45.1905 29.7867L44.8673 29.4637C44.7334 29.3299 44.7326 29.1119 44.8761 28.9884C45.6765 28.2998 46.7183 27.8835 47.8573 27.8835ZM49.214 30.6131C48.8346 30.333 48.3653 30.1674 47.8573 30.1674C47.3494 30.1674 46.8801 30.333 46.5007 30.6131C46.3484 30.7255 46.3496 30.9448 46.4835 31.0786L47.6149 32.2091C47.7488 32.3429 47.9659 32.3429 48.0998 32.2091L49.2312 31.0786C49.3651 30.9448 49.3663 30.7255 49.214 30.6131Z" fill="#CDD1FC"/></g><path d="M77.0049 30.5V18.8636H81.3685C82.2625 18.8636 83.0125 19.0189 83.6185 19.3295C84.2284 19.6402 84.6886 20.0758 84.9992 20.6364C85.3136 21.1932 85.4708 21.8428 85.4708 22.5852C85.4708 23.3314 85.3117 23.9792 84.9935 24.5284C84.6791 25.0739 84.2151 25.4962 83.6015 25.7955C82.9878 26.0909 82.234 26.2386 81.3401 26.2386H78.2321V24.4886H81.056C81.5787 24.4886 82.0068 24.4167 82.3401 24.2727C82.6734 24.125 82.9196 23.911 83.0787 23.6307C83.2416 23.3466 83.3231 22.9981 83.3231 22.5852C83.3231 22.1723 83.2416 21.8201 83.0787 21.5284C82.9159 21.233 82.6678 21.0095 82.3344 20.858C82.0011 20.7027 81.5712 20.625 81.0446 20.625H79.1128V30.5H77.0049ZM83.0162 25.2273L85.8969 30.5H83.5446L80.7151 25.2273H83.0162ZM91.0589 30.6705C90.1839 30.6705 89.4282 30.4886 88.7918 30.125C88.1592 29.7576 87.6725 29.2386 87.3316 28.5682C86.9907 27.8939 86.8202 27.1004 86.8202 26.1875C86.8202 25.2898 86.9907 24.5019 87.3316 23.8239C87.6763 23.142 88.1573 22.6117 88.7748 22.233C89.3922 21.8504 90.1176 21.6591 90.9509 21.6591C91.4888 21.6591 91.9964 21.7462 92.4736 21.9205C92.9547 22.0909 93.3789 22.3561 93.7464 22.7159C94.1176 23.0758 94.4092 23.5341 94.6214 24.0909C94.8335 24.6439 94.9395 25.303 94.9395 26.0682V26.6989H87.7861V25.3125H92.9679C92.9642 24.9186 92.8789 24.5682 92.7123 24.2614C92.5456 23.9508 92.3126 23.7064 92.0134 23.5284C91.7179 23.3504 91.3732 23.2614 90.9793 23.2614C90.5589 23.2614 90.1895 23.3636 89.8714 23.5682C89.5532 23.7689 89.3051 24.0341 89.127 24.3636C88.9528 24.6894 88.8638 25.0473 88.86 25.4375V26.6477C88.86 27.1553 88.9528 27.5909 89.1384 27.9545C89.324 28.3144 89.5835 28.5909 89.9168 28.7841C90.2501 28.9735 90.6403 29.0682 91.0873 29.0682C91.3865 29.0682 91.6573 29.0265 91.8998 28.9432C92.1422 28.8561 92.3524 28.7292 92.5304 28.5625C92.7085 28.3958 92.8429 28.1894 92.9339 27.9432L94.8543 28.1591C94.7331 28.6667 94.502 29.1098 94.1611 29.4886C93.824 29.8636 93.3922 30.1553 92.8657 30.3636C92.3392 30.5682 91.7369 30.6705 91.0589 30.6705ZM96.6796 30.5V21.7727H98.6455V23.2557H98.7478C98.9296 22.7557 99.2307 22.3655 99.6512 22.0852C100.072 21.8011 100.574 21.6591 101.157 21.6591C101.748 21.6591 102.246 21.803 102.651 22.0909C103.06 22.375 103.348 22.7633 103.515 23.2557H103.606C103.799 22.7708 104.125 22.3845 104.583 22.0966C105.045 21.8049 105.592 21.6591 106.225 21.6591C107.028 21.6591 107.683 21.9129 108.191 22.4205C108.699 22.928 108.952 23.6686 108.952 24.642V30.5H106.89V24.9602C106.89 24.4186 106.746 24.0227 106.458 23.7727C106.17 23.5189 105.818 23.392 105.401 23.392C104.905 23.392 104.517 23.5473 104.236 23.858C103.96 24.1648 103.822 24.5644 103.822 25.0568V30.5H101.805V24.875C101.805 24.4242 101.668 24.0644 101.395 23.7955C101.127 23.5265 100.774 23.392 100.339 23.392C100.043 23.392 99.7743 23.4678 99.5319 23.6193C99.2894 23.767 99.0963 23.9773 98.9523 24.25C98.8084 24.5189 98.7364 24.8333 98.7364 25.1932V30.5H96.6796ZM113.096 25.3864V30.5H111.039V21.7727H113.005V23.2557H113.107C113.308 22.767 113.628 22.3788 114.067 22.0909C114.511 21.803 115.058 21.6591 115.709 21.6591C116.312 21.6591 116.836 21.7879 117.283 22.0455C117.734 22.303 118.083 22.6761 118.329 23.1648C118.579 23.6534 118.702 24.2462 118.698 24.9432V30.5H116.641V25.2614C116.641 24.678 116.49 24.2216 116.187 23.892C115.887 23.5625 115.473 23.3977 114.942 23.3977C114.583 23.3977 114.262 23.4773 113.982 23.6364C113.706 23.7917 113.488 24.017 113.329 24.3125C113.173 24.608 113.096 24.9659 113.096 25.3864ZM124.596 30.6705C123.744 30.6705 123.005 30.483 122.38 30.108C121.755 29.733 121.27 29.2083 120.925 28.5341C120.584 27.8598 120.414 27.072 120.414 26.1705C120.414 25.2689 120.584 24.4792 120.925 23.8011C121.27 23.1231 121.755 22.5966 122.38 22.2216C123.005 21.8466 123.744 21.6591 124.596 21.6591C125.448 21.6591 126.187 21.8466 126.812 22.2216C127.437 22.5966 127.92 23.1231 128.261 23.8011C128.605 24.4792 128.778 25.2689 128.778 26.1705C128.778 27.072 128.605 27.8598 128.261 28.5341C127.92 29.2083 127.437 29.733 126.812 30.108C126.187 30.483 125.448 30.6705 124.596 30.6705ZM124.607 29.0227C125.069 29.0227 125.456 28.8958 125.766 28.642C126.077 28.3845 126.308 28.0398 126.459 27.608C126.615 27.1761 126.692 26.6951 126.692 26.1648C126.692 25.6307 126.615 25.1477 126.459 24.7159C126.308 24.2803 126.077 23.9337 125.766 23.6761C125.456 23.4186 125.069 23.2898 124.607 23.2898C124.134 23.2898 123.74 23.4186 123.425 23.6761C123.115 23.9337 122.882 24.2803 122.726 24.7159C122.575 25.1477 122.499 25.6307 122.499 26.1648C122.499 26.6951 122.575 27.1761 122.726 27.608C122.882 28.0398 123.115 28.3845 123.425 28.642C123.74 28.8958 124.134 29.0227 124.607 29.0227ZM132.074 30.5L129.609 21.7727H131.705L133.239 27.9091H133.319L134.887 21.7727H136.961L138.529 27.875H138.614L140.126 21.7727H142.228L139.756 30.5H137.614L135.978 24.6023H135.859L134.222 30.5H132.074ZM146.175 30.6761C145.622 30.6761 145.124 30.5777 144.681 30.3807C144.242 30.1799 143.893 29.8845 143.636 29.4943C143.382 29.1042 143.255 28.6231 143.255 28.0511C143.255 27.5587 143.346 27.1515 143.528 26.8295C143.709 26.5076 143.958 26.25 144.272 26.0568C144.586 25.8636 144.94 25.7178 145.334 25.6193C145.732 25.517 146.143 25.4432 146.567 25.3977C147.079 25.3447 147.494 25.2973 147.812 25.2557C148.13 25.2102 148.361 25.142 148.505 25.0511C148.653 24.9564 148.726 24.8106 148.726 24.6136V24.5795C148.726 24.1515 148.6 23.8201 148.346 23.5852C148.092 23.3504 147.726 23.233 147.249 23.233C146.745 23.233 146.346 23.3428 146.05 23.5625C145.759 23.7822 145.562 24.0417 145.459 24.3409L143.539 24.0682C143.69 23.5379 143.94 23.0947 144.289 22.7386C144.637 22.3788 145.064 22.1098 145.567 21.9318C146.071 21.75 146.628 21.6591 147.238 21.6591C147.658 21.6591 148.077 21.7083 148.494 21.8068C148.91 21.9053 149.291 22.0682 149.636 22.2955C149.98 22.5189 150.257 22.8239 150.465 23.2102C150.677 23.5966 150.783 24.0795 150.783 24.6591V30.5H148.806V29.3011H148.738C148.613 29.5436 148.437 29.7708 148.209 29.983C147.986 30.1913 147.704 30.3598 147.363 30.4886C147.026 30.6136 146.63 30.6761 146.175 30.6761ZM146.709 29.1648C147.122 29.1648 147.48 29.0833 147.783 28.9205C148.086 28.7538 148.319 28.5341 148.482 28.2614C148.649 27.9886 148.732 27.6913 148.732 27.3693V26.3409C148.668 26.3939 148.558 26.4432 148.403 26.4886C148.251 26.5341 148.081 26.5739 147.891 26.608C147.702 26.642 147.514 26.6723 147.329 26.6989C147.143 26.7254 146.982 26.7481 146.846 26.767C146.539 26.8087 146.264 26.8769 146.022 26.9716C145.779 27.0663 145.588 27.1989 145.448 27.3693C145.308 27.536 145.238 27.7519 145.238 28.017C145.238 28.3958 145.376 28.6818 145.653 28.875C145.929 29.0682 146.281 29.1648 146.709 29.1648ZM160.334 21.7727L157.226 30.5H154.954L151.846 21.7727H154.039L156.045 28.2557H156.136L158.147 21.7727H160.334ZM165.324 30.6705C164.449 30.6705 163.694 30.4886 163.057 30.125C162.425 29.7576 161.938 29.2386 161.597 28.5682C161.256 27.8939 161.086 27.1004 161.086 26.1875C161.086 25.2898 161.256 24.5019 161.597 23.8239C161.942 23.142 162.423 22.6117 163.04 22.233C163.658 21.8504 164.383 21.6591 165.217 21.6591C165.754 21.6591 166.262 21.7462 166.739 21.9205C167.22 22.0909 167.645 22.3561 168.012 22.7159C168.383 23.0758 168.675 23.5341 168.887 24.0909C169.099 24.6439 169.205 25.303 169.205 26.0682V26.6989H162.052V25.3125H167.234C167.23 24.9186 167.145 24.5682 166.978 24.2614C166.811 23.9508 166.578 23.7064 166.279 23.5284C165.984 23.3504 165.639 23.2614 165.245 23.2614C164.824 23.2614 164.455 23.3636 164.137 23.5682C163.819 23.7689 163.571 24.0341 163.393 24.3636C163.218 24.6894 163.129 25.0473 163.126 25.4375V26.6477C163.126 27.1553 163.218 27.5909 163.404 27.9545C163.59 28.3144 163.849 28.5909 164.182 28.7841C164.516 28.9735 164.906 29.0682 165.353 29.0682C165.652 29.0682 165.923 29.0265 166.165 28.9432C166.408 28.8561 166.618 28.7292 166.796 28.5625C166.974 28.3958 167.109 28.1894 167.199 27.9432L169.12 28.1591C168.999 28.6667 168.768 29.1098 168.427 29.4886C168.09 29.8636 167.658 30.1553 167.131 30.3636C166.605 30.5682 166.003 30.6705 165.324 30.6705ZM176.562 18.8636L179.59 28.0227H179.709L182.732 18.8636H185.05L180.948 30.5H178.346L174.249 18.8636H176.562ZM186.583 30.5V18.8636H188.691V28.733H193.816V30.5H186.583ZM195.645 30.5V18.8636H203.214V20.6307H197.753V23.7898H202.822V25.5568H197.753V28.733H203.259V30.5H195.645ZM211.688 22.0625C211.635 21.5663 211.412 21.1799 211.018 20.9034C210.628 20.6269 210.12 20.4886 209.495 20.4886C209.056 20.4886 208.679 20.5549 208.364 20.6875C208.05 20.8201 207.809 21 207.643 21.2273C207.476 21.4545 207.391 21.714 207.387 22.0057C207.387 22.2481 207.442 22.4583 207.552 22.6364C207.665 22.8144 207.819 22.9659 208.012 23.0909C208.205 23.2121 208.419 23.3144 208.654 23.3977C208.889 23.4811 209.126 23.5511 209.364 23.608L210.455 23.8807C210.895 23.983 211.317 24.1212 211.722 24.2955C212.131 24.4697 212.497 24.6894 212.819 24.9545C213.145 25.2197 213.402 25.5398 213.592 25.9148C213.781 26.2898 213.876 26.7292 213.876 27.233C213.876 27.9148 213.701 28.5152 213.353 29.0341C213.004 29.5492 212.501 29.9527 211.842 30.2443C211.186 30.5322 210.393 30.6761 209.461 30.6761C208.556 30.6761 207.77 30.536 207.103 30.2557C206.44 29.9754 205.921 29.5663 205.546 29.0284C205.175 28.4905 204.974 27.8352 204.944 27.0625H207.018C207.048 27.4678 207.173 27.8049 207.393 28.0739C207.612 28.3428 207.898 28.5436 208.251 28.6761C208.607 28.8087 209.004 28.875 209.444 28.875C209.902 28.875 210.304 28.8068 210.648 28.6705C210.997 28.5303 211.27 28.3371 211.467 28.0909C211.663 27.8409 211.764 27.5492 211.768 27.2159C211.764 26.9129 211.675 26.6629 211.501 26.4659C211.326 26.2652 211.082 26.0985 210.768 25.9659C210.457 25.8295 210.093 25.7083 209.677 25.6023L208.353 25.2614C207.395 25.0152 206.637 24.642 206.08 24.142C205.527 23.6383 205.251 22.9697 205.251 22.1364C205.251 21.4508 205.436 20.8504 205.807 20.3352C206.182 19.8201 206.692 19.4205 207.336 19.1364C207.98 18.8485 208.709 18.7045 209.523 18.7045C210.349 18.7045 211.073 18.8485 211.694 19.1364C212.319 19.4205 212.809 19.8163 213.165 20.3239C213.521 20.8277 213.705 21.4072 213.717 22.0625H211.688ZM222.079 22.0625C222.026 21.5663 221.802 21.1799 221.408 20.9034C221.018 20.6269 220.511 20.4886 219.886 20.4886C219.446 20.4886 219.069 20.5549 218.755 20.6875C218.44 20.8201 218.2 21 218.033 21.2273C217.867 21.4545 217.781 21.714 217.778 22.0057C217.778 22.2481 217.833 22.4583 217.942 22.6364C218.056 22.8144 218.209 22.9659 218.403 23.0909C218.596 23.2121 218.81 23.3144 219.045 23.3977C219.279 23.4811 219.516 23.5511 219.755 23.608L220.846 23.8807C221.285 23.983 221.708 24.1212 222.113 24.2955C222.522 24.4697 222.887 24.6894 223.209 24.9545C223.535 25.2197 223.793 25.5398 223.982 25.9148C224.172 26.2898 224.266 26.7292 224.266 27.233C224.266 27.9148 224.092 28.5152 223.744 29.0341C223.395 29.5492 222.891 29.9527 222.232 30.2443C221.577 30.5322 220.783 30.6761 219.851 30.6761C218.946 30.6761 218.16 30.536 217.494 30.2557C216.831 29.9754 216.312 29.5663 215.937 29.0284C215.565 28.4905 215.365 27.8352 215.334 27.0625H217.408C217.439 27.4678 217.564 27.8049 217.783 28.0739C218.003 28.3428 218.289 28.5436 218.641 28.6761C218.997 28.8087 219.395 28.875 219.834 28.875C220.293 28.875 220.694 28.8068 221.039 28.6705C221.387 28.5303 221.66 28.3371 221.857 28.0909C222.054 27.8409 222.154 27.5492 222.158 27.2159C222.154 26.9129 222.065 26.6629 221.891 26.4659C221.717 26.2652 221.473 26.0985 221.158 25.9659C220.848 25.8295 220.484 25.7083 220.067 25.6023L218.744 25.2614C217.785 25.0152 217.028 24.642 216.471 24.142C215.918 23.6383 215.641 22.9697 215.641 22.1364C215.641 21.4508 215.827 20.8504 216.198 20.3352C216.573 19.8201 217.083 19.4205 217.726 19.1364C218.37 18.8485 219.1 18.7045 219.914 18.7045C220.74 18.7045 221.463 18.8485 222.084 19.1364C222.709 19.4205 223.2 19.8163 223.556 20.3239C223.912 20.8277 224.096 21.4072 224.107 22.0625H222.079Z" fill="#636363"/><defs><filter id="filter0_dddd_1_1187" x="3.8147e-06" y="0" width="95.7143" height="142.857" filterUnits="userSpaceOnUse" color-interpolation-filters="sRGB"><feFlood flood-opacity="0" result="BackgroundImageFix"/><feColorMatrix in="SourceAlpha" type="matrix" values="0 0 0 0 0 0 0 0 0 0 0 0 0 0 0 0 0 0 127 0" result="hardAlpha"/><feOffset dy="4.28571"/><feGaussianBlur stdDeviation="4.64286"/><feComposite in2="hardAlpha" operator="out"/><feColorMatrix type="matrix" values="0 0 0 0 0.415686 0 0 0 0 0.596078 0 0 0 0 0.886275 0 0 0 0.04 0"/><feBlend mode="normal" in2="BackgroundImageFix" result="effect1_dropShadow_1_1187"/><feColorMatrix in="SourceAlpha" type="matrix" values="0 0 0 0 0 0 0 0 0 0 0 0 0 0 0 0 0 0 127 0" result="hardAlpha"/><feOffset dy="17.1429"/><feGaussianBlur stdDeviation="8.57143"/><feComposite in2="hardAlpha" operator="out"/><feColorMatrix type="matrix" values="0 0 0 0 0.415686 0 0 0 0 0.596078 0 0 0 0 0.886275 0 0 0 0.03 0"/><feBlend mode="normal" in2="effect1_dropShadow_1_1187" result="effect2_dropShadow_1_1187"/><feColorMatrix in="SourceAlpha" type="matrix" values="0 0 0 0 0 0 0 0 0 0 0 0 0 0 0 0 0 0 127 0" result="hardAlpha"/><feOffset dy="39.2857"/><feGaussianBlur stdDeviation="11.7857"/><feComposite in2="hardAlpha" operator="out"/><feColorMatrix type="matrix" values="0 0 0 0 0.415686 0 0 0 0 0.596078 0 0 0 0 0.886275 0 0 0 0.02 0"/><feBlend mode="normal" in2="effect2_dropShadow_1_1187" result="effect3_dropShadow_1_1187"/><feColorMatrix in="SourceAlpha" type="matrix" values="0 0 0 0 0 0 0 0 0 0 0 0 0 0 0 0 0 0 127 0" result="hardAlpha"/><feOffset dy="70"/><feGaussianBlur stdDeviation="13.9286"/><feComposite in2="hardAlpha" operator="out"/><feColorMatrix type="matrix" values="0 0 0 0 0.415686 0 0 0 0 0.596078 0 0 0 0 0.886275 0 0 0 0.01 0"/><feBlend mode="normal" in2="effect3_dropShadow_1_1187" result="effect4_dropShadow_1_1187"/><feBlend mode="normal" in="SourceGraphic" in2="effect4_dropShadow_1_1187" result="shape"/></filter></defs></svg>