<svg width="234" height="223" viewBox="0 0 234 223" fill="none" xmlns="http://www.w3.org/2000/svg"><g filter="url(#filter0_iii_2004_253)"><path d="M142.028 217.974C121.015 223.587 98.8131 223.953 77.7316 218.856C56.6372 213.756 37.1783 203.299 21.7499 188.14C18.2886 184.739 15.061 181.132 12.0876 177.338C-3.54311 157.397 -2.76232 133.294 7.30026 115.234C16.6029 98.5378 33.3402 87.0152 51.8611 83.2043L80.53 77.3055L84.9143 53.6803C88.1952 36.0035 98.3956 19.8286 113.549 9.8448C129.51 -0.670658 151.29 -4.13843 171.978 6.30734C178.183 9.44084 184.129 13.1156 189.725 17.3169C207.057 30.3297 220.353 47.896 227.692 68.3042C235.038 88.7342 235.947 110.733 230.526 131.74C225.119 152.694 213.71 171.582 198.071 186.604C182.448 201.611 163.043 212.361 142.028 217.974ZM86.1911 183.865C101.311 187.52 117.41 187.288 132.738 183.194L134.171 182.799C148.936 178.609 162.384 170.967 173.132 160.643L174.163 159.636C184.71 149.165 192.136 136.436 195.668 122.745L195.998 121.419C199.271 107.701 198.522 93.5744 193.816 80.4849C188.957 66.973 180.066 55.0824 168.111 46.1064C164.246 43.2046 160.108 40.6429 155.751 38.443C140.325 30.6542 124.031 42.6052 120.47 59.4444L120.309 60.2501L115.598 85.6394C113.163 98.7615 103.142 109.144 90.1621 112.072L89.5415 112.205L59.1164 118.466L58.276 118.651C40.8543 122.719 29.424 140.58 40.1593 154.789L40.4216 155.129C42.1784 157.37 44.0739 159.526 46.1028 161.584L46.9801 162.461C57.1807 172.483 70.2269 179.744 84.7783 183.511L86.1911 183.865Z" fill="black"/></g><defs><filter id="filter0_iii_2004_253" x="-33.3333" y="-30" width="267.333" height="270.778" filterUnits="userSpaceOnUse" color-interpolation-filters="sRGB"><feFlood flood-opacity="0" result="BackgroundImageFix"/><feBlend mode="normal" in="SourceGraphic" in2="BackgroundImageFix" result="shape"/><feColorMatrix in="SourceAlpha" type="matrix" values="0 0 0 0 0 0 0 0 0 0 0 0 0 0 0 0 0 0 127 0" result="hardAlpha"/><feOffset dy="18.3333"/><feGaussianBlur stdDeviation="16.6667"/><feComposite in2="hardAlpha" operator="arithmetic" k2="-1" k3="1"/><feColorMatrix type="matrix" values="0 0 0 0 1 0 0 0 0 0.592157 0 0 0 0 0.788235 0 0 0 1 0"/><feBlend mode="normal" in2="shape" result="effect1_innerShadow_2004_253"/><feColorMatrix in="SourceAlpha" type="matrix" values="0 0 0 0 0 0 0 0 0 0 0 0 0 0 0 0 0 0 127 0" result="hardAlpha"/><feOffset/><feGaussianBlur stdDeviation="12.5"/><feComposite in2="hardAlpha" operator="arithmetic" k2="-1" k3="1"/><feColorMatrix type="matrix" values="0 0 0 0 1 0 0 0 0 1 0 0 0 0 1 0 0 0 0.9 0"/><feBlend mode="normal" in2="effect1_innerShadow_2004_253" result="effect2_innerShadow_2004_253"/><feColorMatrix in="SourceAlpha" type="matrix" values="0 0 0 0 0 0 0 0 0 0 0 0 0 0 0 0 0 0 127 0" result="hardAlpha"/><feOffset dx="-33.3333" dy="-30"/><feGaussianBlur stdDeviation="18.3333"/><feComposite in2="hardAlpha" operator="arithmetic" k2="-1" k3="1"/><feColorMatrix type="matrix" values="0 0 0 0 0.145098 0 0 0 0 0 0 0 0 0 0.560784 0 0 0 0.9 0"/><feBlend mode="normal" in2="effect2_innerShadow_2004_253" result="effect3_innerShadow_2004_253"/></filter></defs></svg>