<svg width="108" height="89" viewBox="0 0 108 89" fill="none" xmlns="http://www.w3.org/2000/svg"><g filter="url(#filter0_iii_2046_284)"><path d="M49.0668 31.3677C35.2376 36.7202 26.1201 46.5912 28.4306 53.5963L28.5496 53.9282C31.2252 60.8404 44.438 62.1927 58.2508 57.0465L58.9092 56.7969C72.9578 51.3593 82.143 41.2586 79.4255 34.2367C76.7076 27.2148 63.1156 25.9302 49.0668 31.3677L38.96 5.25536C49.1579 1.30831 60.4594 -0.754413 71.1291 0.253785C79.9317 1.08558 98.2864 5.39511 105.538 24.1299L105.864 25.0057C112.456 43.3481 102.025 58.5097 96.1694 64.949C88.9587 72.8778 79.2139 78.9621 69.016 82.9092C58.818 86.8564 47.5155 88.9185 36.8456 87.9103C28.0428 87.0784 9.68857 82.7694 2.4373 64.035C-4.81398 45.3003 5.85643 29.7565 11.8053 23.2151C19.016 15.2862 28.762 9.2025 38.96 5.25536L49.0668 31.3677Z" fill="black"/></g><defs><filter id="filter0_iii_2046_284" x="-33.3333" y="-30" width="141.308" height="136.497" filterUnits="userSpaceOnUse" color-interpolation-filters="sRGB"><feFlood flood-opacity="0" result="BackgroundImageFix"/><feBlend mode="normal" in="SourceGraphic" in2="BackgroundImageFix" result="shape"/><feColorMatrix in="SourceAlpha" type="matrix" values="0 0 0 0 0 0 0 0 0 0 0 0 0 0 0 0 0 0 127 0" result="hardAlpha"/><feOffset dy="18.3333"/><feGaussianBlur stdDeviation="16.6667"/><feComposite in2="hardAlpha" operator="arithmetic" k2="-1" k3="1"/><feColorMatrix type="matrix" values="0 0 0 0 1 0 0 0 0 0.592157 0 0 0 0 0.788235 0 0 0 1 0"/><feBlend mode="normal" in2="shape" result="effect1_innerShadow_2046_284"/><feColorMatrix in="SourceAlpha" type="matrix" values="0 0 0 0 0 0 0 0 0 0 0 0 0 0 0 0 0 0 127 0" result="hardAlpha"/><feOffset/><feGaussianBlur stdDeviation="12.5"/><feComposite in2="hardAlpha" operator="arithmetic" k2="-1" k3="1"/><feColorMatrix type="matrix" values="0 0 0 0 1 0 0 0 0 1 0 0 0 0 1 0 0 0 0.9 0"/><feBlend mode="normal" in2="effect1_innerShadow_2046_284" result="effect2_innerShadow_2046_284"/><feColorMatrix in="SourceAlpha" type="matrix" values="0 0 0 0 0 0 0 0 0 0 0 0 0 0 0 0 0 0 127 0" result="hardAlpha"/><feOffset dx="-33.3333" dy="-30"/><feGaussianBlur stdDeviation="18.3333"/><feComposite in2="hardAlpha" operator="arithmetic" k2="-1" k3="1"/><feColorMatrix type="matrix" values="0 0 0 0 0.145098 0 0 0 0 0 0 0 0 0 0.560784 0 0 0 0.9 0"/><feBlend mode="normal" in2="effect2_innerShadow_2046_284" result="effect3_innerShadow_2046_284"/></filter></defs></svg>