<svg width="189" height="181" viewBox="0 0 189 181" fill="none" xmlns="http://www.w3.org/2000/svg"><g filter="url(#filter0_iii_2046_283)"><path d="M113.856 176.908C96.8628 181.447 78.8838 181.752 61.7678 177.614C44.6386 173.473 28.7356 164.957 16.0688 152.511C-2.87891 133.895 -3.62322 108.612 6.33331 89.7631C15.2182 72.9435 31.8921 61.3993 50.1103 57.6506L57.9261 56.0425L58.5084 52.9027C61.7991 35.1723 72.2206 18.6794 87.8027 8.84583C104.676 -1.80285 128.235 -4.38959 148.943 9.8112C150.07 10.5836 151.181 11.3815 152.277 12.204C166.474 22.8626 177.438 37.3094 183.502 54.1736C189.574 71.0601 190.314 89.2264 185.85 106.527C181.4 123.775 172.035 139.226 159.305 151.453C146.592 163.665 130.85 172.369 113.856 176.908ZM70.227 142.622C81.3813 145.319 93.2582 145.148 104.566 142.128L105.624 141.836C116.517 138.745 126.438 133.107 134.367 125.491C142.552 117.628 148.302 107.958 150.992 97.5321L151.236 96.5538C153.65 86.4333 153.098 76.012 149.625 66.3554C146.041 56.3872 139.482 47.6147 130.662 40.9928C129.98 40.481 129.287 39.9831 128.583 39.5002C114.331 29.7271 97.6385 41.8224 94.0646 58.6666L93.9044 59.4723L92.994 64.3755C90.5585 77.4976 80.5387 87.881 67.5591 90.8086L66.9385 90.9423L57.3656 92.912L56.5624 93.0882C39.7849 97.0194 28.9474 114.695 41.2999 126.832C48.8251 134.226 58.4495 139.582 69.1843 142.361L70.227 142.622Z" fill="black"/></g><defs><filter id="filter0_iii_2046_283" x="-33.3333" y="-30" width="222.045" height="228.859" filterUnits="userSpaceOnUse" color-interpolation-filters="sRGB"><feFlood flood-opacity="0" result="BackgroundImageFix"/><feBlend mode="normal" in="SourceGraphic" in2="BackgroundImageFix" result="shape"/><feColorMatrix in="SourceAlpha" type="matrix" values="0 0 0 0 0 0 0 0 0 0 0 0 0 0 0 0 0 0 127 0" result="hardAlpha"/><feOffset dy="18.3333"/><feGaussianBlur stdDeviation="16.6667"/><feComposite in2="hardAlpha" operator="arithmetic" k2="-1" k3="1"/><feColorMatrix type="matrix" values="0 0 0 0 1 0 0 0 0 0.592157 0 0 0 0 0.788235 0 0 0 1 0"/><feBlend mode="normal" in2="shape" result="effect1_innerShadow_2046_283"/><feColorMatrix in="SourceAlpha" type="matrix" values="0 0 0 0 0 0 0 0 0 0 0 0 0 0 0 0 0 0 127 0" result="hardAlpha"/><feOffset/><feGaussianBlur stdDeviation="12.5"/><feComposite in2="hardAlpha" operator="arithmetic" k2="-1" k3="1"/><feColorMatrix type="matrix" values="0 0 0 0 1 0 0 0 0 1 0 0 0 0 1 0 0 0 0.9 0"/><feBlend mode="normal" in2="effect1_innerShadow_2046_283" result="effect2_innerShadow_2046_283"/><feColorMatrix in="SourceAlpha" type="matrix" values="0 0 0 0 0 0 0 0 0 0 0 0 0 0 0 0 0 0 127 0" result="hardAlpha"/><feOffset dx="-33.3333" dy="-30"/><feGaussianBlur stdDeviation="18.3333"/><feComposite in2="hardAlpha" operator="arithmetic" k2="-1" k3="1"/><feColorMatrix type="matrix" values="0 0 0 0 0.145098 0 0 0 0 0 0 0 0 0 0.560784 0 0 0 0.9 0"/><feBlend mode="normal" in2="effect2_innerShadow_2046_283" result="effect3_innerShadow_2046_283"/></filter></defs></svg>