<svg width="227" height="170" viewBox="0 0 227 170" fill="none" xmlns="http://www.w3.org/2000/svg"><g filter="url(#filter0_iii_2004_254)"><path d="M127.648 121.627C168.447 105.836 195.123 76.5027 187.23 56.1102C179.336 35.7181 139.864 31.9883 99.0649 47.7795C58.2658 63.5708 31.5902 92.9033 39.4827 113.296C47.2523 133.37 85.6225 137.299 125.736 122.354L127.648 121.627ZM141.364 157.066C116.658 166.628 90.6297 171.033 67.6506 168.862C47.2053 166.93 15.9879 157.869 4.04457 127.012C-7.89844 96.1552 9.08418 68.4384 22.9011 53.2453C38.4305 36.1693 60.6422 21.904 85.3485 12.3414C110.055 2.77874 136.083 -1.62713 159.062 0.544202C179.507 2.47613 210.724 11.537 222.668 42.3939C234.611 73.251 217.628 100.968 203.811 116.161C188.282 133.237 166.071 147.503 141.364 157.066Z" fill="black"/></g><defs><filter id="filter0_iii_2004_254" x="-33.3333" y="-30" width="260.046" height="217.739" filterUnits="userSpaceOnUse" color-interpolation-filters="sRGB"><feFlood flood-opacity="0" result="BackgroundImageFix"/><feBlend mode="normal" in="SourceGraphic" in2="BackgroundImageFix" result="shape"/><feColorMatrix in="SourceAlpha" type="matrix" values="0 0 0 0 0 0 0 0 0 0 0 0 0 0 0 0 0 0 127 0" result="hardAlpha"/><feOffset dy="18.3333"/><feGaussianBlur stdDeviation="16.6667"/><feComposite in2="hardAlpha" operator="arithmetic" k2="-1" k3="1"/><feColorMatrix type="matrix" values="0 0 0 0 1 0 0 0 0 0.592157 0 0 0 0 0.788235 0 0 0 1 0"/><feBlend mode="normal" in2="shape" result="effect1_innerShadow_2004_254"/><feColorMatrix in="SourceAlpha" type="matrix" values="0 0 0 0 0 0 0 0 0 0 0 0 0 0 0 0 0 0 127 0" result="hardAlpha"/><feOffset/><feGaussianBlur stdDeviation="12.5"/><feComposite in2="hardAlpha" operator="arithmetic" k2="-1" k3="1"/><feColorMatrix type="matrix" values="0 0 0 0 1 0 0 0 0 1 0 0 0 0 1 0 0 0 0.9 0"/><feBlend mode="normal" in2="effect1_innerShadow_2004_254" result="effect2_innerShadow_2004_254"/><feColorMatrix in="SourceAlpha" type="matrix" values="0 0 0 0 0 0 0 0 0 0 0 0 0 0 0 0 0 0 127 0" result="hardAlpha"/><feOffset dx="-33.3333" dy="-30"/><feGaussianBlur stdDeviation="18.3333"/><feComposite in2="hardAlpha" operator="arithmetic" k2="-1" k3="1"/><feColorMatrix type="matrix" values="0 0 0 0 0.145098 0 0 0 0 0 0 0 0 0 0.560784 0 0 0 0.9 0"/><feBlend mode="normal" in2="effect2_innerShadow_2004_254" result="effect3_innerShadow_2004_254"/></filter></defs></svg>