<svg width="60" height="60" viewBox="0 0 60 60" fill="none" xmlns="http://www.w3.org/2000/svg">
<path fill-rule="evenodd" clip-rule="evenodd" d="M33.4414 1.27652C23.6018 0.110235 18.076 1.4035 11.1081 6.50456C8.18836 8.64213 7.20516 9.88704 4.78723 14.51C0.679914 22.3632 -0.392469 26.3748 0.111576 31.997C0.689742 38.4389 3.02993 43.6746 7.61961 48.7936C10.9302 52.4867 12.1845 53.4062 17.0039 55.6782C23.6551 58.813 28.1324 59.7005 33.627 58.9727C40.5552 58.0551 46.7266 53.9958 51.712 47.0757C54.5058 43.1984 59.4082 30.9376 59.5524 27.4675C59.951 17.9056 53.0797 9.24499 40.9985 4.08108C37.5995 2.62872 34.1988 1.36676 33.4414 1.27652ZM44.4199 10.4281C46.174 11.3034 48.845 13.437 50.5266 15.3038C56.8573 22.3336 57.799 26.728 54.6858 34.7149C49.7244 47.4439 40.8989 54.994 30.2316 55.634C26.5499 55.8552 25.6681 55.636 19.6402 53.0009C14.2205 50.6326 12.548 49.5935 10.1236 47.0912C5.90208 42.7321 3.83967 38.155 3.37196 32.1027C3.0168 27.5089 3.20042 26.329 4.98884 21.7152C9.07403 11.176 16.3812 5.74428 27.2511 5.16691C30.0218 5.01942 36.5432 6.51539 39.4895 7.974C40.4869 8.46732 42.7054 9.5717 44.4199 10.4281ZM42.0214 21.1653C39.7133 22.5333 37.9172 26.4736 38.8429 28.1368C40.5132 31.1386 45.0022 28.1751 45.5751 23.6922C45.9738 20.5709 44.6334 19.6172 42.0214 21.1653ZM25.3921 14.8968C23.6063 15.7945 22.069 19.4407 22.615 21.4831C22.9028 22.5602 23.495 23.0227 24.7938 23.1843C26.2715 23.3677 26.83 22.9619 28.0534 20.8187C30.5253 16.4856 28.9965 13.0837 25.3921 14.8968ZM42.3132 39.7154C36.6973 43.4694 31.8506 45.3691 29.0104 44.9301C23.8901 44.1387 16.6253 35.7799 15.893 29.8378C15.5466 27.024 14.05 25.8375 12.9869 27.5338C12.6871 28.0118 12.7673 30.0517 13.1647 32.0669C14.9254 40.9811 23.7112 49.0419 31.0749 48.4985C33.9679 48.2845 40.0174 45.3447 42.9382 42.7324C45.3033 40.617 48.1884 36.8313 47.5975 36.6182C47.3648 36.5345 44.987 37.9281 42.3132 39.7154Z" fill="#E6FC97"/>
</svg>
