<svg xmlns="http://www.w3.org/2000/svg">
	<symbol id="ok" viewBox="0 0 159 138">
		<path fill-rule="evenodd" clip-rule="evenodd" d="M124.676 99.5279C130.277 95.4928 134.179 90.9746 138.295 83.749C144.079 73.5969 146.515 65.2522 145.733 58.2758C144.388 46.2773 136.705 39.5168 120.672 36.2264C108.944 33.819 100.651 34.9013 86.7043 40.6625L76.8157 44.7472L72.3291 41.5765C66.3502 37.3496 48.5061 31.6169 45.3653 32.9143C43.3652 33.7405 43.1756 34.6865 44.3947 37.7481C47.1279 44.6077 48.3047 56.8505 46.4592 59.2205C45.4947 60.457 40.8008 63.935 36.0264 66.9497C24.1658 74.4367 21.24 78.0058 19.7093 86.8537C18.5858 93.3548 18.9288 95.6565 22.4597 105.293C26.3878 116.013 26.6577 116.401 32.6807 119.985C40.7827 124.805 50.6603 125.623 65.357 122.688C74.8974 120.784 80.5849 118.828 99.2807 111.02C111.634 105.862 123.062 100.69 124.676 99.5279ZM86.9698 109.873C83.8911 110.262 76.2724 112.298 70.038 114.397C56.4943 118.957 50.525 119.601 45.941 117C44.0629 115.933 41.0799 114.328 39.3123 113.433C34.894 111.193 26.9411 99.6015 25.9172 93.9082C24.1316 83.9725 32.6146 73.4468 48.4855 65.9063L54.6631 62.8214L52.2523 52.6329C51.2328 47.3657 51.063 40.1733 51.5939 39.954C52.7178 39.4897 66.1541 45.1509 74.0795 49.1282L79.5707 51.8838L88.5209 48.1868C98.207 44.1857 104.023 43.3319 115.836 44.1758C125.605 44.8737 131.162 49.0466 135.138 58.6711C141.08 73.0567 135.178 85.9172 117.147 97.8762C111.09 101.894 92.9018 109.124 86.9698 109.873Z" fill="#E6FC97"/>
		<path fill-rule="evenodd" clip-rule="evenodd" d="M60.4291 64.6518C58.9888 65.998 57.8062 67.926 57.56 69.3282C57.0899 72.0071 58.5882 73.8839 62.585 75.6221C64.2969 76.3667 64.2718 76.2819 63.0771 77.2823C60.3297 79.5824 58.3163 82.0405 56.8444 84.891C55.8442 86.8281 55.2429 89.2195 55.5234 90.1449C56.1464 92.1998 60.1567 93.6108 63.8661 93.0804C68.8805 92.3633 71.9314 89.6097 72.5507 85.2418C72.8447 83.1695 72.3071 81.0931 70.9394 79.019L70.2118 77.9156L71.8682 76.8008C73.9082 75.4278 76.3781 74.1028 78.6595 73.1574C80.9449 72.2103 80.9464 72.209 80.5316 71.6221C79.8529 70.6619 78.4758 70.3572 76.2238 70.6691C73.856 70.997 69.3348 72.7779 67.3751 74.1544C66.6085 74.6927 66.4011 74.7399 65.9053 74.4885C64.9846 74.0218 62.5748 72.1543 62.1893 71.6089C61.8199 71.0863 61.7801 70.8854 61.9155 70.2273C62.2325 68.6874 64.641 65.5818 66.1127 64.8155C66.9227 64.3936 67.9561 64.3395 68.5149 64.6892C69.4251 65.259 69.2903 67.443 68.2695 68.6691C68.049 68.9341 67.6132 69.3677 67.3013 69.6325C66.6938 70.1485 66.6851 70.4658 67.2705 70.7566C68.1717 71.2042 69.9727 70.2245 70.7424 68.8679C72.2687 66.1776 70.8034 62.6574 67.8517 61.9227C65.9053 61.4382 62.5448 62.6738 60.4291 64.6518ZM40.4457 80.9697C40.4345 81.0336 39.8044 81.6586 39.0457 82.3584C37.5019 83.7823 37.0951 84.4051 37.263 85.0876C37.4182 85.7179 38.2772 86.1274 39.2276 86.0244C39.8702 85.9545 39.9742 85.896 40.3198 85.4082C41.2015 84.1642 41.5602 81.9052 41.0017 81.115C40.8017 80.8321 40.4843 80.7491 40.4457 80.9697ZM45.7132 78.5194C45.6637 78.8719 45.7466 79.8517 45.8974 80.6968C46.1648 82.195 46.1592 82.2479 45.6712 82.822C44.2577 84.4848 43.534 86.7601 44.0556 87.9018C44.1953 88.2075 44.3743 88.4686 44.4535 88.4818C44.5328 88.4951 45.0008 88.069 45.4939 87.5349C46.8744 86.039 46.8362 86.0437 47.0258 87.3437C47.6009 91.2853 47.7299 99.3677 47.2233 99.7257C46.9033 99.9519 45.2999 96.9527 44.3597 94.3689C44.0699 93.5727 43.46 91.7355 43.0041 90.2863C42.4561 88.5435 42.0623 87.5484 41.8411 87.3474C40.9351 86.5239 38.3423 86.9207 38.4729 87.8627C38.4976 88.04 38.7195 88.5428 38.9663 88.9801C39.213 89.4174 39.7572 90.7162 40.1754 91.8665C41.2993 94.9568 42.1215 96.6212 43.5075 98.6111C45.7416 101.819 47.4693 102.604 48.3945 100.832C49.0413 99.5934 49.1862 94.5257 48.6884 90.5405C48.5634 89.5389 48.5117 88.7279 48.5735 88.7382C48.6353 88.7487 48.9936 89.5296 49.3695 90.4738C50.978 94.5135 52.5639 97.0226 53.9731 97.7577C55.1136 98.3525 55.1815 98.0039 54.3093 96.0313C52.6316 92.2367 49.3436 83.2747 49.4726 82.8476C49.5198 82.6919 50.1409 81.9931 50.8531 81.2949C53.1886 79.0048 54.139 77.3307 53.4918 76.6462C53.1859 76.3223 52.9703 76.4559 50.1468 78.7176L48.4187 80.1016L48.257 79.6463C47.9506 78.784 47.1485 77.8106 46.6549 77.7021C46.0384 77.5668 45.8205 77.7558 45.7132 78.5194ZM54.634 76.307C54.3168 77.3601 54.7387 78.7549 55.4868 79.1266C55.7414 79.253 55.7872 79.4378 55.7191 80.0612L55.6342 80.8385L55.9773 80.596C56.8399 79.9863 57.0932 77.0793 56.3725 76.0597C56.0109 75.5481 55.3899 75.3491 55.0046 75.6213C54.8899 75.7025 54.723 76.0111 54.634 76.307ZM69.1811 80.1175C70.4061 81.6858 70.9342 83.8969 70.4318 85.3539C69.3843 88.3921 64.9332 90.6059 60.8955 90.0967C59.9458 89.9769 59.9187 89.8502 60.5552 88.4997C61.4949 86.5061 63.4884 83.9065 65.8163 81.6394C67.3879 80.1088 67.6398 79.8826 68.1222 79.5702C68.537 79.3014 68.548 79.3072 69.1811 80.1175Z" fill="currentColor"/>
		<path fill-rule="evenodd" clip-rule="evenodd" d="M111.503 54.9366C110.886 55.9595 111.155 57.7188 112.506 61.5146C113.643 64.7064 114.233 65.9988 115.555 68.1938C116.655 70.0195 116.802 70.221 117.051 70.2508C117.651 70.3228 117.661 69.6381 117.102 66.7421C116.502 63.6318 114.519 55.5621 114.122 54.6098C113.669 53.5258 112.247 53.7033 111.503 54.9366ZM84.6117 72.7731C81.8338 75.8723 80.9 79.9546 82.0762 83.8585C82.4642 85.1459 83.5795 87.0575 84.4103 87.8591C85.526 88.9354 87.0222 89.6072 88.6042 89.7419L89.4445 89.8134L90.7149 91.8094C92.0641 93.9291 92.9373 94.9807 94.2038 96.0112C96.4382 97.8293 98.7697 98.2309 100.53 97.1008C102.627 95.7538 103.477 92.3772 102.892 87.7155C102.558 85.0575 101.46 81.271 100.436 79.2471C100.063 78.5114 100.055 78.4392 100.226 77.3893C100.323 76.7886 100.433 75.8638 100.469 75.3343C100.506 74.8048 100.566 74.3782 100.604 74.3862C100.641 74.3943 101.067 75.332 101.55 76.4702C102.385 78.4393 103.653 81.1401 105.482 84.8436C106.548 87.0017 107.984 89.2965 108.414 89.5288C109.323 90.0189 109.973 89.8751 109.904 89.1994C109.883 88.9898 109.698 88.162 109.493 87.3599C108.859 84.8751 108.07 80.1559 108.268 80.0288C108.307 80.0041 108.803 80.2005 109.37 80.465C110.864 81.1609 114.467 81.9088 116.438 81.9324C119.664 81.9709 122.324 81.1721 124.055 79.6454C125.812 78.0957 126.485 75.8723 125.568 74.6484L125.246 74.219L124.732 74.5732C124.449 74.768 123.472 75.4545 122.562 76.0986C119.964 77.9375 118.178 78.6614 115.52 78.9525C113.276 79.1983 110.337 78.9081 108.957 78.3045C108.211 77.9784 108.192 77.9569 108.286 77.551C108.753 75.528 109.229 69.2171 109.23 65.0208C109.23 62.3743 109.048 60.8469 108.639 60.0767C108.353 59.5364 108.284 59.4786 107.803 59.3752C107.124 59.2293 106.749 59.4723 106.385 60.2939C105.86 61.4756 105.581 63.8713 105.473 68.1013C105.349 72.9817 105.514 76.6202 106 79.7511C106.112 80.4709 106.173 81.0788 106.137 81.1023C105.921 81.2405 103.076 74.5423 101.605 70.4336C100.305 66.8037 100.006 66.0894 99.6451 65.7518C99.2487 65.3805 98.1803 65.7413 98.0598 66.2874C98.0288 66.4279 98.0814 66.8425 98.1769 67.2085C98.4472 68.2458 98.753 70.1691 98.8212 71.2615C98.9349 73.0838 98.8925 75.7106 98.7442 76.0181C98.7138 76.0814 98.3065 75.6005 97.8394 74.9495C95.5871 71.8106 92.4695 69.8663 90.0175 70.0714C88.1767 70.2253 85.8553 71.3857 84.6117 72.7731ZM88.6671 73.2831C86.7089 76.4043 86.6543 82.217 88.534 87.4238C88.766 88.0664 88.9188 88.6158 88.8737 88.6448C88.7316 88.736 87.5059 87.8654 86.9324 87.2657C86.595 86.9129 86.1124 86.2243 85.6838 85.4845C84.4248 83.3106 84.1191 81.1901 84.6847 78.5505C84.9691 77.223 85.1211 76.8225 85.7045 75.8621C86.485 74.5772 87.225 73.7916 88.3524 73.0509L89.1355 72.5366L88.6671 73.2831ZM92.291 72.3437C93.1972 72.9225 94.6032 74.2738 95.6179 75.5407C96.593 76.7584 98.0519 79.3622 97.9984 79.7895C97.9486 80.1874 96.7273 82.8625 96.1644 83.8064C95.1695 85.4754 93.7074 87.1646 92.6954 87.8144C92.2799 88.0812 92.331 88.1633 91.7614 86.3111C90.6123 82.5742 90.2057 78.2661 90.7139 75.2103C90.9594 73.7335 91.3956 72.1182 91.5808 71.9993C91.6277 71.9691 91.9473 72.124 92.291 72.3437ZM107.585 63.7505C107.559 65.0423 107.271 68.1332 107.133 68.5924L107.027 68.9441L107.023 68.5043C107.004 66.8176 107.36 62.6868 107.521 62.7215C107.567 62.7314 107.596 63.1945 107.585 63.7505ZM99.1283 82.5314C99.438 83.2411 100.069 86.3011 100.27 88.0627C100.47 89.8274 100.476 92.3901 100.283 93.4749C100.115 94.4162 99.6372 95.7551 99.4199 95.8946C99.3289 95.953 98.9938 95.9123 98.6753 95.8042C97.0532 95.2533 95.7403 94.0338 94.2454 91.6898C93.7128 90.8547 93.1954 89.9722 93.0956 89.7288L92.9142 89.2862L93.7764 88.6641C95.8453 87.1712 97.4707 85.1775 98.5093 82.8585C98.6939 82.4466 98.8611 82.0956 98.8812 82.0788C98.9012 82.0618 99.0124 82.2655 99.1283 82.5314ZM119.068 70.0685C119.058 70.1159 118.595 70.5449 118.039 71.0219C116.548 72.3025 116.327 72.6953 116.738 73.3351C116.918 73.6167 117.095 73.7031 117.642 73.777C118.016 73.8275 118.424 73.8029 118.549 73.7223C118.863 73.5213 119.431 72.4931 119.603 71.8161C119.767 71.1733 119.663 70.1935 119.411 70.0096C119.24 69.8839 119.104 69.9073 119.068 70.0685Z" fill="currentColor"/>
	</symbol>
	<symbol id="up" viewBox="0 0 86 80">
		<path d="M43.409 45.2782L77.4814 79.8564L85.9996 71.2119L51.9271 36.6337L43.409 45.2782Z" fill="currentColor"/>
		<path d="M42.591 45.2782L8.51855 79.8564L0.000436189 71.2119L34.0729 36.6337L42.591 45.2782Z" fill="currentColor"/>
		<path d="M43.41 8.64443L77.4824 43.2227L86.0005 34.5781L51.9281 -0.000133218L43.41 8.64443Z" fill="currentColor"/>
		<path d="M42.591 8.64443L8.51855 43.2227L0.000436189 34.5781L34.0729 -0.000133218L42.591 8.64443Z" fill="currentColor"/>
	</symbol>
	<symbol id="btn" viewBox="0 0 250 47">
		<path d="M5.5 13L0 0H249.5L243.5 33L249.5 46.5H0L5.5 13Z" fill="currentColor"/>
	</symbol>
	<symbol id="" viewBox="">
	</symbol>
	<symbol id="" viewBox="">
	</symbol>
	<symbol id="" viewBox="">
	</symbol>
</svg>