<svg width="216" height="41" viewBox="0 0 216 41" fill="none" xmlns="http://www.w3.org/2000/svg">
<g clip-path="url(#clip0_137_588)">
<path d="M26.1016 14.6456L26.5556 10.8862L23.3513 10.5639C22.0583 10.4332 20.761 10.3287 19.4637 10.2851C18.3826 10.2459 17.1675 10.32 16.0302 10.6075C14.681 10.9516 13.4443 11.6007 12.6616 12.7463C11.8183 13.9835 11.6799 15.604 11.6799 17.6296V23.6497C11.6799 25.7407 12.2205 27.2958 13.3578 28.3544C14.867 29.7614 17.1805 30.1665 19.1653 30.0576L27.0745 29.6177V21.7548C29.7513 21.3584 32.5578 20.5307 32.5578 19.9775C32.5578 19.2239 27.4032 17.9737 24.4064 17.9737H18.9189C18.7243 17.9737 18.5686 18.1305 18.5686 18.3265V21.6328C18.5686 21.8245 18.7243 21.9857 18.9189 21.9857H23.0832V25.9803L18.1102 26.1327C16.8216 26.1327 15.9567 25.3094 15.9567 24.1507C15.9567 23.4711 15.9653 18.0216 15.9567 16.8498C15.9437 15.2337 16.614 14.4104 18.214 14.2274C19.7102 14.0575 21.574 14.2579 23.1048 14.3929L26.1016 14.6587V14.6456Z" fill="#EDB91F"/>
<path d="M40.7005 20.5C40.7005 9.17839 31.5892 0 20.3503 0C9.11135 0 0 9.17839 0 20.5C0 31.8216 9.11135 41 20.3503 41C31.5892 41 40.7005 31.8216 40.7005 20.5ZM36.3459 20.5C36.3459 29.3996 29.1849 36.6134 20.3503 36.6134C11.5157 36.6134 4.35459 29.3996 4.35459 20.5C4.35459 11.6004 11.5157 4.38663 20.3503 4.38663C29.1849 4.38663 36.3459 11.6004 36.3459 20.5Z" fill="#EDB91F"/>
<path d="M212.804 20.3388V15.6037H209.929C209.449 15.6037 208.925 15.6516 208.476 15.8302C208.134 15.9653 207.879 16.1874 207.702 16.5098C207.464 16.9323 207.408 17.5073 207.408 17.9865C207.408 18.4657 207.464 19.0276 207.706 19.4458C207.888 19.7682 208.151 19.986 208.489 20.121C208.938 20.2996 209.457 20.3475 209.933 20.3475H212.809L212.804 20.3388ZM212.804 22.9177H210.871L207.49 28.402H203.792L207.585 22.6302C207.027 22.5082 206.487 22.3034 206.007 21.9811C205.358 21.5455 204.874 20.9574 204.558 20.2386C204.229 19.485 204.104 18.6617 204.104 17.8428C204.104 16.9323 204.268 16.0306 204.705 15.2247C205.146 14.4145 205.834 13.8351 206.659 13.4474C207.658 12.9813 208.835 12.8419 209.929 12.8419H216V28.402H212.804V22.9177ZM190.491 23.1224L197.557 12.8419H200.247V28.402H197.047V18.1215L189.981 28.402H187.291V12.8419H190.491V23.1224ZM177.267 15.7736V28.402H174.067V12.8419H183.429V15.7736H177.263H177.267ZM159.671 18.7532V22.5125C159.671 23.1616 159.784 23.8325 160.104 24.4031C160.385 24.9041 160.787 25.2743 161.302 25.527C161.92 25.8319 162.629 25.9321 163.312 25.9278C164.268 25.9278 165.345 25.7492 166.063 25.0565C166.755 24.39 166.949 23.4404 166.949 22.5082V18.7488C166.949 18.1172 166.841 17.4856 166.543 16.9193C166.275 16.4052 165.872 16.0262 165.362 15.7518C164.739 15.4164 164.004 15.3075 163.308 15.3075C162.638 15.3075 161.959 15.4164 161.349 15.7213C160.826 15.9827 160.415 16.3617 160.117 16.8713C159.788 17.4376 159.667 18.0954 159.667 18.7445L159.671 18.7532ZM156.411 22.3688V18.9405C156.411 18.078 156.549 17.2285 156.869 16.4227C157.176 15.6516 157.626 14.9764 158.227 14.4058C158.854 13.809 159.602 13.3864 160.411 13.0946C161.336 12.7635 162.327 12.6328 163.308 12.6328C164.29 12.6328 165.28 12.7635 166.205 13.0946C167.014 13.3864 167.767 13.809 168.389 14.4058C168.986 14.9764 169.44 15.6516 169.743 16.4227C170.063 17.2242 170.201 18.0736 170.201 18.9405V22.3688C170.201 23.2269 170.063 24.0764 169.747 24.8736C169.444 25.6402 168.99 26.3067 168.394 26.8687C167.767 27.4611 167.018 27.8793 166.21 28.1625C165.28 28.4892 164.285 28.6111 163.304 28.6111C162.322 28.6111 161.328 28.4848 160.398 28.1625C159.589 27.8793 158.845 27.4611 158.214 26.8687C157.617 26.3067 157.163 25.6402 156.861 24.8736C156.541 24.0764 156.407 23.2269 156.407 22.3688H156.411ZM149.194 15.7344H144.528V22.8393C144.528 24.6427 143.589 26.9819 142.314 28.2583L142.167 28.4064H138.257L139.127 27.5352C140.407 26.2501 141.397 24.7167 141.397 22.8393V12.8463H152.554V28.4108H149.198V15.7387L149.194 15.7344Z" fill="#1D1D1B"/>
<path d="M65.3796 22.3649V18.9366C65.3796 18.0741 65.518 17.2246 65.838 16.4187C66.145 15.6477 66.5947 14.9725 67.1958 14.4019C67.8228 13.8051 68.5709 13.3825 69.3796 13.0907C70.305 12.7596 71.2952 12.6289 72.2769 12.6289C73.2585 12.6289 74.2488 12.7596 75.1742 13.0907C75.9828 13.3825 76.7352 13.8051 77.358 14.4019C77.9547 14.9725 78.4088 15.6477 78.7115 16.4187C79.0315 17.2203 79.1698 18.0697 79.1698 18.9366V22.3649C79.1698 23.223 79.0315 24.0725 78.7158 24.8697C78.4131 25.6363 77.959 26.3028 77.3623 26.8648C76.7352 27.4572 75.9871 27.8754 75.1785 28.1585C74.2488 28.4809 73.2542 28.6072 72.2725 28.6072C71.2909 28.6072 70.2963 28.4809 69.3666 28.1585C68.558 27.8754 67.8142 27.4572 67.1828 26.8648C66.5861 26.3028 66.132 25.6363 65.8293 24.8697C65.5093 24.0725 65.3752 23.223 65.3752 22.3649M68.6358 18.7493V22.5086C68.6358 23.1621 68.7482 23.8285 69.0682 24.3992C69.3493 24.9002 69.7515 25.2704 70.2661 25.5231C70.8844 25.828 71.5936 25.9282 72.2769 25.9238C73.2325 25.9238 74.3093 25.7452 75.0271 25.0526C75.719 24.3861 75.9136 23.4365 75.9136 22.5043V18.7449C75.9136 18.1133 75.8055 17.4816 75.5071 16.9153C75.239 16.4013 74.8369 16.0223 74.3266 15.7479C73.7039 15.4125 72.9688 15.3036 72.2725 15.3036C71.6023 15.3036 70.9234 15.4125 70.318 15.7174C69.7947 15.9788 69.3796 16.3578 69.0855 16.8674C68.7525 17.4337 68.6358 18.0915 68.6358 18.7406V18.7493Z" fill="#1D1D1B"/>
<path d="M92.5795 25.0958L93.1849 27.6398L92.7525 27.7922C92.3633 27.9273 91.9698 28.0492 91.572 28.1625C91.1222 28.2888 90.6682 28.3977 90.2098 28.4761C89.7298 28.5633 89.2412 28.6068 88.7525 28.6068C87.0314 28.6112 85.2714 28.2278 84.0087 26.9689C82.7547 25.7187 82.3655 23.9632 82.3655 22.2381V18.9972C82.3655 17.2721 82.7547 15.5253 84.0087 14.2751C85.2714 13.0118 87.0271 12.6285 88.7525 12.6328C89.2368 12.6328 89.7212 12.6721 90.2012 12.7505C90.6639 12.8245 91.1222 12.9247 91.572 13.051C91.9784 13.1687 92.3849 13.2993 92.7785 13.4605L93.1979 13.6304L92.493 16.1657L91.9741 15.9653C91.6282 15.8303 91.2736 15.717 90.919 15.6168C90.5514 15.5123 90.1795 15.4295 89.8033 15.3641C89.4574 15.3075 89.1071 15.2683 88.7568 15.2727C88.1341 15.2727 87.4682 15.3772 86.9363 15.717C86.4736 16.0176 86.1579 16.4358 85.9503 16.9498C85.6952 17.5988 85.613 18.3263 85.613 19.019V22.2381C85.613 22.7522 85.6606 23.2705 85.7903 23.7715C85.9028 24.194 86.0757 24.5905 86.3395 24.9433C86.586 25.27 86.9017 25.514 87.2736 25.6882C87.732 25.9017 88.2552 25.9714 88.7568 25.9714C89.1114 25.9714 89.466 25.9278 89.812 25.8668C90.2012 25.7971 90.586 25.7056 90.9709 25.6011C91.3384 25.4965 91.7017 25.392 92.0649 25.27L92.5882 25.1001L92.5795 25.0958Z" fill="#1D1D1B"/>
<path d="M100.251 15.7735V28.4019H97.0552V12.8418H106.417V15.7735H100.251Z" fill="#1D1D1B"/>
<path d="M113.142 21.4844V25.7011H119.883V28.4019H109.942V12.8418H119.883V15.5426H113.142V18.8228H118.936V21.4844H113.142Z" fill="#1D1D1B"/>
<path d="M123.741 22.3649V18.9366C123.741 18.0741 123.879 17.2246 124.199 16.4187C124.506 15.6477 124.956 14.9725 125.557 14.4019C126.184 13.8051 126.932 13.3825 127.741 13.0907C128.666 12.7596 129.656 12.6289 130.638 12.6289C131.62 12.6289 132.61 12.7596 133.535 13.0907C134.344 13.3825 135.096 13.8051 135.719 14.4019C136.316 14.9725 136.77 15.6477 137.073 16.4187C137.393 17.2203 137.531 18.0697 137.531 18.9366V22.3649C137.531 23.223 137.393 24.0725 137.077 24.8697C136.774 25.6363 136.32 26.3028 135.723 26.8648C135.096 27.4572 134.348 27.8754 133.54 28.1585C132.61 28.4809 131.615 28.6072 130.634 28.6072C129.652 28.6072 128.657 28.4809 127.728 28.1585C126.919 27.8754 126.175 27.4572 125.544 26.8648C124.947 26.3028 124.493 25.6363 124.19 24.8697C123.87 24.0725 123.736 23.223 123.736 22.3649M126.997 18.7493V22.5086C126.997 23.1621 127.109 23.8285 127.429 24.3992C127.71 24.9002 128.113 25.2704 128.627 25.5231C129.246 25.828 129.955 25.9282 130.638 25.9238C131.594 25.9238 132.67 25.7452 133.388 25.0526C134.08 24.3861 134.275 23.4365 134.275 22.5043V18.7449C134.275 18.1133 134.167 17.4816 133.868 16.9153C133.6 16.4013 133.198 16.0223 132.688 15.7479C132.065 15.4125 131.33 15.3036 130.634 15.3036C129.963 15.3036 129.284 15.4125 128.675 15.7174C128.151 15.9788 127.741 16.3578 127.442 16.8674C127.109 17.4337 126.993 18.0915 126.993 18.7406L126.997 18.7493Z" fill="#1D1D1B"/>
<path d="M54.4346 23.3967V28.4019H51.2346V12.8418H56.4195C57.2325 12.8418 58.08 12.8941 58.8757 13.0727C59.546 13.2251 60.186 13.4865 60.7222 13.9265C61.2541 14.3577 61.6173 14.9284 61.8422 15.5731C62.1103 16.3311 62.1838 17.1849 62.1838 17.982C62.1838 18.7792 62.106 19.6504 61.8422 20.4258C61.6173 21.0923 61.2627 21.6891 60.7352 22.1596C60.2033 22.6344 59.5719 22.935 58.8887 23.1179C58.093 23.3314 57.2368 23.3924 56.4152 23.3924H54.426L54.4346 23.3967ZM54.4346 15.4424V20.8005H56.4238C56.7698 20.8005 57.1114 20.77 57.4487 20.6872C57.7341 20.6175 57.9849 20.4868 58.2141 20.2995C58.4606 20.0948 58.6206 19.7986 58.733 19.5023C58.906 19.0362 58.9492 18.483 58.9535 17.9864C58.9535 17.4767 58.8973 16.8625 58.6508 16.4051C58.4692 16.0653 58.2184 15.8258 57.8638 15.6776C57.4227 15.4947 56.9038 15.4424 56.4281 15.4424H54.4389H54.4346Z" fill="#1D1D1B"/>
</g>
<defs>
<clipPath id="clip0_137_588">
<rect width="216" height="41" fill="white"/>
</clipPath>
</defs>
</svg>
