<svg width="12" height="7" viewBox="0 0 12 7" fill="none" xmlns="http://www.w3.org/2000/svg"><path d="M11.7508 0.288658C11.6711 0.197192 11.5763 0.124593 11.4719 0.0750502C11.3674 0.025507 11.2554 0 11.1423 0C11.0291 0 10.9171 0.025507 10.8127 0.0750502C10.7082 0.124593 10.6134 0.197192 10.5338 0.288658L6.6085 4.7581C6.52883 4.84956 6.43404 4.92216 6.3296 4.9717C6.22516 5.02125 6.11314 5.04676 6 5.04676C5.88686 5.04676 5.77484 5.02125 5.6704 4.9717C5.56596 4.92216 5.47117 4.84956 5.3915 4.7581L1.46623 0.288658C1.38655 0.197192 1.29176 0.124593 1.18732 0.0750502C1.08289 0.025507 0.970865 0 0.857725 0C0.744585 0 0.632564 0.025507 0.528125 0.0750502C0.423686 0.124593 0.328896 0.197192 0.249222 0.288658C0.0895969 0.471497 0 0.718831 0 0.976639C0 1.23445 0.0895969 1.48178 0.249222 1.66462L4.18306 6.14382C4.66515 6.69206 5.31865 7 6 7C6.68135 7 7.33485 6.69206 7.81694 6.14382L11.7508 1.66462C11.9104 1.48178 12 1.23445 12 0.976639C12 0.718831 11.9104 0.471497 11.7508 0.288658Z" fill="#E84F13"/></svg>