<svg width="36" height="36" viewBox="0 0 36 36" fill="none" xmlns="http://www.w3.org/2000/svg"><path d="M1.38219 12.5154H4.05238V21.6432H1.38219V12.5154ZM31.9476 12.5154H34.6178V21.6432H31.9476V12.5154ZM8.09754 12.5154L4.0988 36H17.324V32.2623C17.324 32.0833 17.3952 31.9116 17.522 31.785C17.6488 31.6584 17.8207 31.5873 18 31.5873C18.1793 31.5873 18.3512 31.6584 18.478 31.785C18.6048 31.9116 18.676 32.0833 18.676 32.2623V36H31.9012L27.9025 12.5154H8.09754ZM18.676 26.5986C18.676 26.7776 18.6048 26.9493 18.478 27.0759C18.3512 27.2025 18.1793 27.2736 18 27.2736C17.8207 27.2736 17.6488 27.2025 17.522 27.0759C17.3952 26.9493 17.324 26.7776 17.324 26.5986V23.7465C17.324 23.5675 17.3952 23.3958 17.522 23.2692C17.6488 23.1426 17.8207 23.0715 18 23.0715C18.1793 23.0715 18.3512 23.1426 18.478 23.2692C18.6048 23.3958 18.676 23.5675 18.676 23.7465V26.5986ZM18 18.0131C17.8207 18.0131 17.6488 17.9419 17.522 17.8153C17.3952 17.6888 17.324 17.5171 17.324 17.3381V15.0881C17.324 14.909 17.3952 14.7373 17.522 14.6108C17.6488 14.4842 17.8207 14.4131 18 14.4131C18.1793 14.4131 18.3512 14.4842 18.478 14.6108C18.6048 14.7373 18.676 14.909 18.676 15.0881V17.3381C18.676 17.5171 18.6048 17.6888 18.478 17.8153C18.3512 17.9419 18.1793 18.0131 18 18.0131ZM26.2138 2.59875L25.7713 0H10.2287L9.78619 2.59875H26.2138ZM0 3.49875V11.6154H36V3.49875H0ZM6.4729 9.5175H3.05731C2.89595 9.5175 2.7412 9.4535 2.62711 9.33957C2.51301 9.22564 2.44891 9.07112 2.44891 8.91C2.44891 8.74888 2.51301 8.59436 2.62711 8.48043C2.7412 8.36651 2.89595 8.3025 3.05731 8.3025H6.4729C6.63426 8.3025 6.789 8.36651 6.9031 8.48043C7.0172 8.59436 7.0813 8.74888 7.0813 8.91C7.0813 9.07112 7.0172 9.22564 6.9031 9.33957C6.789 9.4535 6.63426 9.5175 6.4729 9.5175ZM6.4729 6.81165H3.05731C2.89595 6.81165 2.7412 6.74765 2.62711 6.63372C2.51301 6.51979 2.44891 6.36527 2.44891 6.20415C2.44891 6.04303 2.51301 5.88851 2.62711 5.77458C2.7412 5.66065 2.89595 5.59665 3.05731 5.59665H6.4729C6.63426 5.59665 6.789 5.66065 6.9031 5.77458C7.0172 5.88851 7.0813 6.04303 7.0813 6.20415C7.0813 6.36527 7.0172 6.51979 6.9031 6.63372C6.789 6.74765 6.63426 6.81165 6.4729 6.81165ZM15.296 9.5175H11.8804C11.7191 9.5175 11.5643 9.4535 11.4502 9.33957C11.3361 9.22564 11.272 9.07112 11.272 8.91C11.272 8.74888 11.3361 8.59436 11.4502 8.48043C11.5643 8.36651 11.7191 8.3025 11.8804 8.3025H15.296C15.4574 8.3025 15.6121 8.36651 15.7262 8.48043C15.8403 8.59436 15.9044 8.74888 15.9044 8.91C15.9044 9.07112 15.8403 9.22564 15.7262 9.33957C15.6121 9.4535 15.4574 9.5175 15.296 9.5175ZM15.296 6.81165H11.8804C11.7191 6.81165 11.5643 6.74765 11.4502 6.63372C11.3361 6.51979 11.272 6.36527 11.272 6.20415C11.272 6.04303 11.3361 5.88851 11.4502 5.77458C11.5643 5.66065 11.7191 5.59665 11.8804 5.59665H15.296C15.4574 5.59665 15.6121 5.66065 15.7262 5.77458C15.8403 5.88851 15.9044 6.04303 15.9044 6.20415C15.9044 6.36527 15.8403 6.51979 15.7262 6.63372C15.6121 6.74765 15.4574 6.81165 15.296 6.81165ZM24.1196 9.5175H20.704C20.5426 9.5175 20.3879 9.4535 20.2738 9.33957C20.1597 9.22564 20.0956 9.07112 20.0956 8.91C20.0956 8.74888 20.1597 8.59436 20.2738 8.48043C20.3879 8.36651 20.5426 8.3025 20.704 8.3025H24.1196C24.2809 8.3025 24.4357 8.36651 24.5498 8.48043C24.6639 8.59436 24.728 8.74888 24.728 8.91C24.728 9.07112 24.6639 9.22564 24.5498 9.33957C24.4357 9.4535 24.2809 9.5175 24.1196 9.5175ZM24.1196 6.81165H20.704C20.5426 6.81165 20.3879 6.74765 20.2738 6.63372C20.1597 6.51979 20.0956 6.36527 20.0956 6.20415C20.0956 6.04303 20.1597 5.88851 20.2738 5.77458C20.3879 5.66065 20.5426 5.59665 20.704 5.59665H24.1196C24.2809 5.59665 24.4357 5.66065 24.5498 5.77458C24.6639 5.88851 24.728 6.04303 24.728 6.20415C24.728 6.36527 24.6639 6.51979 24.5498 6.63372C24.4357 6.74765 24.2809 6.81165 24.1196 6.81165ZM32.9427 9.5175H29.5271C29.3657 9.5175 29.211 9.4535 29.0969 9.33957C28.9828 9.22564 28.9187 9.07112 28.9187 8.91C28.9187 8.74888 28.9828 8.59436 29.0969 8.48043C29.211 8.36651 29.3657 8.3025 29.5271 8.3025H32.9427C33.104 8.3025 33.2588 8.36651 33.3729 8.48043C33.487 8.59436 33.5511 8.74888 33.5511 8.91C33.5511 9.07112 33.487 9.22564 33.3729 9.33957C33.2588 9.4535 33.104 9.5175 32.9427 9.5175ZM32.9427 6.81165H29.5271C29.3657 6.81165 29.211 6.74765 29.0969 6.63372C28.9828 6.51979 28.9187 6.36527 28.9187 6.20415C28.9187 6.04303 28.9828 5.88851 29.0969 5.77458C29.211 5.66065 29.3657 5.59665 29.5271 5.59665H32.9427C33.104 5.59665 33.2588 5.66065 33.3729 5.77458C33.487 5.88851 33.5511 6.04303 33.5511 6.20415C33.5511 6.36527 33.487 6.51979 33.3729 6.63372C33.2588 6.74765 33.104 6.81165 32.9427 6.81165Z" fill="#3C3D43"/></svg>