<svg xmlns="http://www.w3.org/2000/svg"><symbol id="wa" viewBox="0 0 25 25" fill="none"><path fill-rule="evenodd" clip-rule="evenodd" d="M21.3586 3.63333C19.0077 1.29167 15.8824 0.00104167 12.5529 0C5.69186 0 0.107808 5.55625 0.104668 12.3875C0.103622 14.5708 0.677203 16.7021 1.7668 18.5812L0 25L6.59828 23.2771C8.41637 24.2646 10.4637 24.7844 12.5466 24.7854H12.5518C19.4118 24.7854 24.9969 19.2281 25 12.3969C25.0021 9.0875 23.7084 5.97396 21.3586 3.63333ZM12.5529 22.6927H12.5487C10.6919 22.6927 8.87168 22.1958 7.28281 21.2573L6.90496 21.0344L2.98932 22.0562L4.03496 18.2562L3.78899 17.8667C2.75277 16.2271 2.20641 14.3323 2.20745 12.3875C2.20955 6.71042 6.85158 2.09167 12.5581 2.09167C15.3213 2.09167 17.9192 3.16458 19.8723 5.11042C21.8254 7.05729 22.9004 9.64375 22.8993 12.3948C22.8962 18.074 18.2552 22.6927 12.5529 22.6927ZM18.228 14.9812C17.9171 14.826 16.3879 14.0771 16.1022 13.974C15.8175 13.8708 15.6102 13.8187 15.4019 14.1281C15.1936 14.4375 14.5991 15.1354 14.417 15.3427C14.2359 15.549 14.0538 15.575 13.7429 15.4198C13.4321 15.2646 12.4293 14.9385 11.2414 13.8833C10.3171 13.0625 9.69227 12.049 9.5112 11.7385C9.33012 11.4281 9.49236 11.2615 9.64727 11.1073C9.78752 10.9688 9.95813 10.7458 10.1141 10.5646C10.2711 10.3854 10.3224 10.2563 10.427 10.049C10.5307 9.84271 10.4794 9.66146 10.4009 9.50625C10.3224 9.35208 9.70065 7.82812 9.44212 7.20833C9.18987 6.60417 8.93343 6.68646 8.74189 6.67708C8.56081 6.66771 8.35357 6.66667 8.14528 6.66667C7.93804 6.66667 7.601 6.74375 7.31631 7.05417C7.03161 7.36458 6.22776 8.11354 6.22776 9.63646C6.22776 11.1604 7.34247 12.6323 7.49738 12.8385C7.65229 13.0448 9.69018 16.1719 12.8103 17.5125C13.5524 17.8312 14.1323 18.0219 14.5834 18.1646C15.3287 18.4 16.0069 18.3667 16.5428 18.2875C17.1405 18.199 18.3829 17.5385 18.6425 16.8156C18.902 16.0927 18.902 15.4719 18.8235 15.3437C18.7461 15.2135 18.5388 15.1365 18.228 14.9812Z" fill="currentColor"/></symbol><symbol id="tg" viewBox="0 0 26 22" fill="none"><path d="M1.75195 9.45741C9.75254 5.87974 20.1059 1.51783 21.5351 0.914107C25.2839 -0.666045 26.4342 -0.363215 25.8607 3.13616C25.4488 5.65133 24.2603 13.9785 23.3131 19.1616C22.751 22.2352 21.4899 22.5995 19.5069 21.2697C18.5533 20.6298 13.7401 17.3944 12.6955 16.6347C11.7419 15.9424 10.4267 15.1096 12.0761 13.4693C12.663 12.885 16.5105 9.1507 19.5082 6.24405C19.901 5.86227 19.4076 5.23526 18.9544 5.54133C14.914 8.26486 9.31202 12.0451 8.59905 12.5375C7.52195 13.281 6.4875 13.622 4.63058 13.0797C3.22755 12.6701 1.85698 12.1816 1.32353 11.9952C-0.730731 11.2783 -0.243108 10.3497 1.75195 9.45741Z" fill="currentColor"/></symbol><symbol id="arrow-right" viewBox="0 0 24 10" fill="none"><path d="M23.4243 5.42426C23.6586 5.18995 23.6586 4.81005 23.4243 4.57574L19.6059 0.757359C19.3716 0.523045 18.9917 0.523045 18.7574 0.757359C18.523 0.991674 18.523 1.37157 18.7574 1.60589L22.1515 5L18.7574 8.39411C18.523 8.62843 18.523 9.00833 18.7574 9.24264C18.9917 9.47696 19.3716 9.47696 19.6059 9.24264L23.4243 5.42426ZM0 5V5.6H23V5V4.4H0V5Z" fill="currentColor"/></symbol><symbol id="arrow-left" viewBox="0 0 24 10" fill="none"><path d="M0.575736 5.42426C0.341421 5.18995 0.341421 4.81005 0.575736 4.57574L4.39411 0.757359C4.62843 0.523045 5.00833 0.523045 5.24264 0.757359C5.47696 0.991674 5.47696 1.37157 5.24264 1.60589L1.84853 5L5.24264 8.39411C5.47696 8.62843 5.47696 9.00833 5.24264 9.24264C5.00833 9.47696 4.62843 9.47696 4.39411 9.24264L0.575736 5.42426ZM24 5V5.6H1V5V4.4H24V5Z" fill="currentColor"/></symbol><symbol id="play" viewBox="0 0 22 22" fill="none"><path d="M19 9.26795C20.3333 10.0377 20.3333 11.9623 19 12.7321L8.5 18.7942C7.16667 19.564 5.5 18.6018 5.5 17.0622L5.5 4.93782C5.5 3.39822 7.16667 2.43597 8.5 3.20577L19 9.26795Z" fill="currentColor"/></symbol><symbol id="search" viewBox="0 0 18 21" fill="none"><path d="M13.3923 4.37534C10.9126 1.47809 6.55336 1.13968 3.65607 3.61936C0.75879 6.09913 0.420317 10.4583 2.90009 13.3556C5.37988 16.2528 9.73907 16.5913 12.6363 14.1116C15.5335 11.6318 15.8719 7.27259 13.3923 4.37534ZM14.152 3.7251C16.8815 6.91429 16.6263 11.6487 13.6544 14.5321L17.9267 19.5237L17.1669 20.1739L12.8946 15.1823C9.58705 17.6737 4.87007 17.195 2.14037 14.0058C-0.698528 10.689 -0.311039 5.69853 3.00583 2.85963C6.3227 0.0208391 11.3132 0.408264 14.152 3.7251Z" fill="currentColor"/></symbol><symbol id="star" viewBox="0 0 17 17" fill="none"><path d="M8.5 0L11.2479 4.71785L16.584 5.87336L12.9462 9.94465L13.4962 15.3766L8.5 13.175L3.50383 15.3766L4.05381 9.94465L0.416019 5.87336L5.7521 4.71785L8.5 0Z" fill="currentColor"/></symbol><symbol id="house" viewBox="0 0 18 18" fill="none"><path d="M17.3407 6.78979L11.652 1.09688C10.9479 0.394448 9.99425 0 9 0C8.00575 0 7.05207 0.394448 6.348 1.09688L0.659258 6.78979C0.449578 6.99825 0.283336 7.24628 0.170171 7.51951C0.0570054 7.79274 -0.000832799 8.08573 9.0596e-06 8.38149V15.7487C9.0596e-06 16.3457 0.237062 16.9184 0.659018 17.3406C1.08097 17.7628 1.65327 18 2.25001 18H15.75C16.3467 18 16.919 17.7628 17.341 17.3406C17.7629 16.9184 18 16.3457 18 15.7487V8.38149C18.0008 8.08573 17.943 7.79274 17.8298 7.51951C17.7167 7.24628 17.5504 6.99825 17.3407 6.78979ZM11.25 16.4991H6.75V13.5468C6.75 12.9497 6.98705 12.3771 7.40901 11.9549C7.83097 11.5327 8.40326 11.2955 9 11.2955C9.59674 11.2955 10.169 11.5327 10.591 11.9549C11.0129 12.3771 11.25 12.9497 11.25 13.5468V16.4991ZM16.5 15.7487C16.5 15.9477 16.421 16.1386 16.2803 16.2793C16.1397 16.42 15.9489 16.4991 15.75 16.4991H12.75V13.5468C12.75 12.5517 12.3549 11.5973 11.6516 10.8936C10.9484 10.1899 9.99456 9.79459 9 9.79459C8.00544 9.79459 7.05161 10.1899 6.34835 10.8936C5.64509 11.5973 5.25 12.5517 5.25 13.5468V16.4991H2.25001C2.05109 16.4991 1.86033 16.42 1.71968 16.2793C1.57903 16.1386 1.50001 15.9477 1.50001 15.7487V8.38149C1.5007 8.1826 1.57965 7.992 1.71976 7.85092L7.4085 2.16026C7.83128 1.73921 8.4035 1.50283 9 1.50283C9.5965 1.50283 10.1687 1.73921 10.5915 2.16026L16.2802 7.85317C16.4198 7.99369 16.4987 8.18339 16.5 8.38149V15.7487Z" fill="currentColor"/></symbol><symbol id="location" viewBox="0 0 24 30" fill="none"><path fill-rule="evenodd" clip-rule="evenodd" d="M12.646 29.765C12.459 29.91 12.2395 30 12 30C11.986 30 11.9715 30 11.9575 29.999C11.7335 29.9895 11.5295 29.901 11.354 29.7645C10.7581 29.2937 10.1778 28.8034 9.614 28.2945C8.24338 27.0684 6.95086 25.7576 5.744 24.37C2.9665 21.16 4.26462e-06 16.671 4.67297e-06 12C5.25237e-06 5.3725 5.37251 -1.62847e-06 12 -1.04907e-06C18.6275 -4.69679e-07 24 5.3725 24 12C24 16.671 21.0335 21.16 18.256 24.37C17.0491 25.7576 15.7566 27.0684 14.386 28.2945C13.8222 28.8034 13.2419 29.2942 12.646 29.765Z" fill="currentColor"/><circle cx="12" cy="12" r="4.5" fill="white"/></symbol><symbol id="envelope" viewBox="0 0 15 15" fill="none"><path d="M4.375 3.75C4.375 3.405 4.655 3.125 5 3.125H10C10.3456 3.125 10.625 3.405 10.625 3.75C10.625 4.095 10.3456 4.375 10 4.375H5C4.655 4.375 4.375 4.095 4.375 3.75ZM5 6.875H8.75C9.09562 6.875 9.375 6.595 9.375 6.25C9.375 5.905 9.09562 5.625 8.75 5.625H5C4.655 5.625 4.375 5.905 4.375 6.25C4.375 6.595 4.655 6.875 5 6.875ZM15 7.9425V11.875C15 13.5981 13.5981 15 11.875 15H3.125C1.40188 15 0 13.5981 0 11.875V7.9425C0 7.095 0.35125 6.27187 0.963125 5.68563L1.875 4.81187V2.5C1.875 1.12125 2.99625 0 4.375 0H10.625C12.0037 0 13.125 1.12125 13.125 2.5V4.81187L14.0369 5.685C14.6487 6.27125 15 7.09375 15 7.94187V7.9425ZM3.125 2.5V7.65188L6.17375 10.7013C6.8825 11.4094 8.1175 11.4094 8.82563 10.7013L11.875 7.65188V2.5C11.875 1.81062 11.3144 1.25 10.625 1.25H4.375C3.68563 1.25 3.125 1.81062 3.125 2.5ZM13.75 7.9425C13.75 7.82063 13.7375 7.69937 13.7137 7.58062L9.70938 11.585C9.11938 12.175 8.335 12.5 7.5 12.5C6.665 12.5 5.88062 12.175 5.29 11.585L1.28625 7.58C1.2625 7.69875 1.25 7.82 1.25 7.94187V11.8744C1.25 12.9081 2.09125 13.7494 3.125 13.7494H11.875C12.9087 13.7494 13.75 12.9081 13.75 11.8744V7.94187V7.9425Z" fill="currentColor"/></symbol><symbol id="calendar" viewBox="0 0 15 15" fill="none"><path d="M0 11.875C0.000992411 12.7035 0.330551 13.4978 0.916387 14.0836C1.50222 14.6694 2.2965 14.999 3.125 15H11.875C12.7035 14.999 13.4978 14.6694 14.0836 14.0836C14.6694 13.4978 14.999 12.7035 15 11.875V6.25H0V11.875ZM10.625 9.0625C10.8104 9.0625 10.9917 9.11748 11.1458 9.2205C11.3 9.32351 11.4202 9.46993 11.4911 9.64123C11.5621 9.81254 11.5807 10.001 11.5445 10.1829C11.5083 10.3648 11.419 10.5318 11.2879 10.6629C11.1568 10.794 10.9898 10.8833 10.8079 10.9195C10.626 10.9557 10.4375 10.9371 10.2662 10.8661C10.0949 10.7952 9.94851 10.675 9.8455 10.5208C9.74248 10.3667 9.6875 10.1854 9.6875 10C9.6875 9.75136 9.78627 9.5129 9.96209 9.33709C10.1379 9.16127 10.3764 9.0625 10.625 9.0625ZM7.5 9.0625C7.68542 9.0625 7.86668 9.11748 8.02085 9.2205C8.17502 9.32351 8.29518 9.46993 8.36614 9.64123C8.43709 9.81254 8.45566 10.001 8.41949 10.1829C8.38331 10.3648 8.29402 10.5318 8.16291 10.6629C8.0318 10.794 7.86475 10.8833 7.6829 10.9195C7.50104 10.9557 7.31254 10.9371 7.14123 10.8661C6.96993 10.7952 6.82351 10.675 6.7205 10.5208C6.61748 10.3667 6.5625 10.1854 6.5625 10C6.5625 9.75136 6.66127 9.5129 6.83709 9.33709C7.0129 9.16127 7.25136 9.0625 7.5 9.0625ZM4.375 9.0625C4.56042 9.0625 4.74168 9.11748 4.89585 9.2205C5.05002 9.32351 5.17018 9.46993 5.24114 9.64123C5.31209 9.81254 5.33066 10.001 5.29449 10.1829C5.25831 10.3648 5.16902 10.5318 5.03791 10.6629C4.9068 10.794 4.73975 10.8833 4.5579 10.9195C4.37604 10.9557 4.18754 10.9371 4.01623 10.8661C3.84493 10.7952 3.69851 10.675 3.5955 10.5208C3.49248 10.3667 3.4375 10.1854 3.4375 10C3.4375 9.75136 3.53627 9.5129 3.71209 9.33709C3.8879 9.16127 4.12636 9.0625 4.375 9.0625Z" fill="currentColor"/><path d="M11.875 1.25H11.25V0.625C11.25 0.45924 11.1842 0.300269 11.0669 0.183058C10.9497 0.065848 10.7908 0 10.625 0C10.4592 0 10.3003 0.065848 10.1831 0.183058C10.0658 0.300269 10 0.45924 10 0.625V1.25H5V0.625C5 0.45924 4.93415 0.300269 4.81694 0.183058C4.69973 0.065848 4.54076 0 4.375 0C4.20924 0 4.05027 0.065848 3.93306 0.183058C3.81585 0.300269 3.75 0.45924 3.75 0.625V1.25H3.125C2.2965 1.25099 1.50222 1.58055 0.916387 2.16639C0.330551 2.75222 0.000992411 3.5465 0 4.375L0 5H15V4.375C14.999 3.5465 14.6694 2.75222 14.0836 2.16639C13.4978 1.58055 12.7035 1.25099 11.875 1.25Z" fill="currentColor"/></symbol><symbol id="calculator" viewBox="0 0 48 48" fill="none"><path d="M34 14C34 14.5304 33.7893 15.0391 33.4142 15.4142C33.0391 15.7893 32.5304 16 32 16H16C15.4696 16 14.9609 15.7893 14.5858 15.4142C14.2107 15.0391 14 14.5304 14 14C14 13.4696 14.2107 12.9609 14.5858 12.5858C14.9609 12.2107 15.4696 12 16 12H32C32.5304 12 33.0391 12.2107 33.4142 12.5858C33.7893 12.9609 34 13.4696 34 14ZM46 10V38C45.9968 40.6512 44.9422 43.1929 43.0676 45.0676C41.1929 46.9422 38.6512 47.9968 36 48H12C9.34881 47.9968 6.80712 46.9422 4.93244 45.0676C3.05776 43.1929 2.00318 40.6512 2 38V10C2.00318 7.34881 3.05776 4.80712 4.93244 2.93244C6.80712 1.05776 9.34881 0.00317572 12 0L36 0C38.6512 0.00317572 41.1929 1.05776 43.0676 2.93244C44.9422 4.80712 45.9968 7.34881 46 10ZM14 36C14 35.6044 13.8827 35.2178 13.6629 34.8889C13.4432 34.56 13.1308 34.3036 12.7654 34.1522C12.3999 34.0009 11.9978 33.9613 11.6098 34.0384C11.2219 34.1156 10.8655 34.3061 10.5858 34.5858C10.3061 34.8655 10.1156 35.2219 10.0384 35.6098C9.96126 35.9978 10.0009 36.3999 10.1522 36.7654C10.3036 37.1308 10.56 37.4432 10.8889 37.6629C11.2178 37.8827 11.6044 38 12 38C12.5304 38 13.0391 37.7893 13.4142 37.4142C13.7893 37.0391 14 36.5304 14 36ZM14 28C14 27.6044 13.8827 27.2178 13.6629 26.8889C13.4432 26.56 13.1308 26.3036 12.7654 26.1522C12.3999 26.0009 11.9978 25.9613 11.6098 26.0384C11.2219 26.1156 10.8655 26.3061 10.5858 26.5858C10.3061 26.8655 10.1156 27.2219 10.0384 27.6098C9.96126 27.9978 10.0009 28.3999 10.1522 28.7654C10.3036 29.1308 10.56 29.4432 10.8889 29.6629C11.2178 29.8827 11.6044 30 12 30C12.5304 30 13.0391 29.7893 13.4142 29.4142C13.7893 29.0391 14 28.5304 14 28ZM22 36C22 35.6044 21.8827 35.2178 21.6629 34.8889C21.4432 34.56 21.1308 34.3036 20.7654 34.1522C20.3999 34.0009 19.9978 33.9613 19.6098 34.0384C19.2219 34.1156 18.8655 34.3061 18.5858 34.5858C18.3061 34.8655 18.1156 35.2219 18.0384 35.6098C17.9613 35.9978 18.0009 36.3999 18.1522 36.7654C18.3036 37.1308 18.56 37.4432 18.8889 37.6629C19.2178 37.8827 19.6044 38 20 38C20.5304 38 21.0391 37.7893 21.4142 37.4142C21.7893 37.0391 22 36.5304 22 36ZM22 28C22 27.6044 21.8827 27.2178 21.6629 26.8889C21.4432 26.56 21.1308 26.3036 20.7654 26.1522C20.3999 26.0009 19.9978 25.9613 19.6098 26.0384C19.2219 26.1156 18.8655 26.3061 18.5858 26.5858C18.3061 26.8655 18.1156 27.2219 18.0384 27.6098C17.9613 27.9978 18.0009 28.3999 18.1522 28.7654C18.3036 29.1308 18.56 29.4432 18.8889 29.6629C19.2178 29.8827 19.6044 30 20 30C20.5304 30 21.0391 29.7893 21.4142 29.4142C21.7893 29.0391 22 28.5304 22 28ZM38 36C38 35.4696 37.7893 34.9609 37.4142 34.5858C37.0391 34.2107 36.5304 34 36 34H28C27.4696 34 26.9609 34.2107 26.5858 34.5858C26.2107 34.9609 26 35.4696 26 36C26 36.5304 26.2107 37.0391 26.5858 37.4142C26.9609 37.7893 27.4696 38 28 38H36C36.5304 38 37.0391 37.7893 37.4142 37.4142C37.7893 37.0391 38 36.5304 38 36ZM28 30C28.3956 30 28.7822 29.8827 29.1111 29.6629C29.44 29.4432 29.6964 29.1308 29.8478 28.7654C29.9991 28.3999 30.0387 27.9978 29.9616 27.6098C29.8844 27.2219 29.6939 26.8655 29.4142 26.5858C29.1345 26.3061 28.7781 26.1156 28.3902 26.0384C28.0022 25.9613 27.6001 26.0009 27.2346 26.1522C26.8692 26.3036 26.5568 26.56 26.3371 26.8889C26.1173 27.2178 26 27.6044 26 28C26 28.5304 26.2107 29.0391 26.5858 29.4142C26.9609 29.7893 27.4696 30 28 30ZM38 28C38 27.6044 37.8827 27.2178 37.6629 26.8889C37.4432 26.56 37.1308 26.3036 36.7654 26.1522C36.3999 26.0009 35.9978 25.9613 35.6098 26.0384C35.2219 26.1156 34.8655 26.3061 34.5858 26.5858C34.3061 26.8655 34.1156 27.2219 34.0384 27.6098C33.9613 27.9978 34.0009 28.3999 34.1522 28.7654C34.3036 29.1308 34.56 29.4432 34.8889 29.6629C35.2178 29.8827 35.6044 30 36 30C36.5304 30 37.0391 29.7893 37.4142 29.4142C37.7893 29.0391 38 28.5304 38 28ZM38 14C38 12.4087 37.3679 10.8826 36.2426 9.75736C35.1174 8.63214 33.5913 8 32 8H16C14.4087 8 12.8826 8.63214 11.7574 9.75736C10.6321 10.8826 10 12.4087 10 14C10 15.5913 10.6321 17.1174 11.7574 18.2426C12.8826 19.3679 14.4087 20 16 20H32C33.5913 20 35.1174 19.3679 36.2426 18.2426C37.3679 17.1174 38 15.5913 38 14Z" fill="currentColor"/></symbol><symbol id="arrow-up-right" viewBox="0 0 13 13" fill="none"><path d="M12.9137 0.686292C12.9137 0.354921 12.6451 0.0862917 12.3137 0.0862917L6.91371 0.0862917C6.58234 0.0862917 6.31371 0.354921 6.31371 0.686292C6.31371 1.01766 6.58234 1.28629 6.91371 1.28629L11.7137 1.28629L11.7137 6.08629C11.7137 6.41766 11.9823 6.68629 12.3137 6.68629C12.6451 6.68629 12.9137 6.41766 12.9137 6.08629L12.9137 0.686292ZM1 12L1.42426 12.4243L12.738 1.11056L12.3137 0.686292L11.8894 0.262028L0.575736 11.5757L1 12Z" fill="currentColor"/></symbol><symbol id="close" viewBox="0 0 17 17" fill="none"><path d="M14.4394 0.439424C15.0252 -0.146362 15.9747 -0.146362 16.5605 0.439424C17.1463 1.02521 17.1463 1.97473 16.5605 2.56052L10.6211 8.49997L16.5605 14.4394L16.664 14.5537C17.1442 15.1428 17.1095 16.0115 16.5605 16.5605C16.0115 17.1095 15.1428 17.1442 14.5537 16.664L14.4394 16.5605L8.49997 10.6211L2.56052 16.5605C1.97473 17.1463 1.02521 17.1463 0.439424 16.5605C-0.146362 15.9747 -0.146362 15.0252 0.439424 14.4394L6.37888 8.49997L0.439424 2.56052L0.335908 2.44626C-0.144209 1.85711 -0.109601 0.988449 0.439424 0.439424C0.988449 -0.109601 1.85711 -0.144209 2.44626 0.335908L2.56052 0.439424L8.49997 6.37888L14.4394 0.439424Z" fill="currentColor"/></symbol><symbol id="check" viewBox="0 0 21 16" fill="none"><path d="M19.2539 0.334042C19.6217 -0.0779017 20.254 -0.113792 20.666 0.253964C21.0779 0.621772 21.1138 1.2541 20.7461 1.66607L9.02732 14.7901C8.20718 15.7086 6.75989 15.6755 5.98338 14.7198L0.223613 7.63092L0.163066 7.54791C-0.114969 7.12429 -0.0326166 6.55013 0.36912 6.22369C0.770973 5.89719 1.35026 5.93394 1.70799 6.29303L1.77635 6.3692L7.53611 13.4581L19.2539 0.334042Z" fill="currentColor"/></symbol><symbol id="hamburger" viewBox="0 0 24 20" fill="none"><path d="M22.5 0C23.3284 0 24 0.671573 24 1.5C24 2.32843 23.3284 3 22.5 3H1.5C0.671573 3 0 2.32843 0 1.5C0 0.671573 0.671573 0 1.5 0H22.5Z" fill="currentColor"/><path d="M16.5 8.25C17.3284 8.25 18 8.92157 18 9.75C18 10.5784 17.3284 11.25 16.5 11.25H1.5C0.671573 11.25 0 10.5784 0 9.75C0 8.92157 0.671573 8.25 1.5 8.25H16.5Z" fill="currentColor"/><path d="M22.5 16.5C23.3284 16.5 24 17.1716 24 18C24 18.8284 23.3284 19.5 22.5 19.5H1.5C0.671573 19.5 0 18.8284 0 18C0 17.1716 0.671573 16.5 1.5 16.5H22.5Z" fill="currentColor"/></symbol><symbol id="chevron-down" viewBox="0 0 9 5" fill="none"><path d="M8.81308 0.206184C8.75333 0.140851 8.68223 0.0889952 8.60391 0.0536073C8.52558 0.0182193 8.44156 0 8.35671 0C8.27185 0 8.18783 0.0182193 8.10951 0.0536073C8.03118 0.0889952 7.96008 0.140851 7.90033 0.206184L4.95638 3.39864C4.89662 3.46397 4.82553 3.51583 4.7472 3.55122C4.66887 3.58661 4.58485 3.60483 4.5 3.60483C4.41514 3.60483 4.33113 3.58661 4.2528 3.55122C4.17447 3.51583 4.10338 3.46397 4.04362 3.39864L1.09967 0.206184C1.03992 0.140851 0.968823 0.0889952 0.890494 0.0536073C0.812164 0.0182193 0.728149 0 0.643294 0C0.558439 0 0.474423 0.0182193 0.396094 0.0536073C0.317765 0.0889952 0.246672 0.140851 0.186917 0.206184C0.0671977 0.336784 0 0.513451 0 0.697599C0 0.881748 0.0671977 1.05841 0.186917 1.18901L3.1373 4.38844C3.49886 4.78004 3.98898 5 4.5 5C5.01101 5 5.50113 4.78004 5.8627 4.38844L8.81308 1.18901C8.9328 1.05841 9 0.881748 9 0.697599C9 0.513451 8.9328 0.336784 8.81308 0.206184Z" fill="currentColor"/></symbol><symbol id="warehouse" viewBox="0 0 20 20" fill="none"><path d="M20 19.9994H15.8333V10.8328C15.8333 9.91194 15.0875 9.16611 14.1667 9.16611H5.83333C4.9125 9.16611 4.16667 9.91194 4.16667 10.8328V19.9994H0V8.36861C0 7.59944 0.354167 6.87361 0.959167 6.39944L8.45917 0.530273C9.36417 -0.17806 10.635 -0.17806 11.54 0.530273L19.04 6.39944C19.6458 6.87361 19.9992 7.59944 19.9992 8.36861L20 19.9994ZM9.16667 16.6661H6.66667V19.9994H9.16667V16.6661ZM9.16667 11.6661H6.66667V14.9994H9.16667V11.6661ZM13.3333 16.6661H10.8333V19.9994H13.3333V16.6661Z" fill="currentColor"/></symbol><symbol id="comment-info" viewBox="0 0 20 20" fill="none"><path d="M10 0C7.34784 0 4.8043 1.05357 2.92893 2.92893C1.05357 4.8043 0 7.34784 0 10C0 12.6522 1.05357 15.1957 2.92893 17.0711C4.8043 18.9464 7.34784 20 10 20H20V10C19.9971 7.34872 18.9426 4.80684 17.0679 2.9321C15.1932 1.05736 12.6513 0.00286757 10 0ZM10 4.16667C10.2472 4.16667 10.4889 4.23998 10.6945 4.37733C10.9 4.51468 11.0602 4.7099 11.1548 4.93831C11.2495 5.16672 11.2742 5.41805 11.226 5.66053C11.1777 5.90301 11.0587 6.12573 10.8839 6.30055C10.7091 6.47537 10.4863 6.59442 10.2439 6.64265C10.0014 6.69088 9.75005 6.66613 9.52165 6.57152C9.29324 6.47691 9.09801 6.31669 8.96066 6.11113C8.82331 5.90557 8.75 5.66389 8.75 5.41667C8.75 5.08515 8.8817 4.7672 9.11612 4.53278C9.35054 4.29836 9.66848 4.16667 10 4.16667ZM11.6667 15.8333H10V10H8.33333V8.33333H10C10.442 8.33333 10.8659 8.50893 11.1785 8.82149C11.4911 9.13405 11.6667 9.55797 11.6667 10V15.8333Z" fill="currentColor"/></symbol><symbol id="chevron-left" viewBox="0 0 7 12" fill="none"><path d="M6.71134 0.249224C6.80281 0.328897 6.87541 0.423687 6.92495 0.528126C6.97449 0.632565 7 0.744586 7 0.857726C7 0.970866 6.97449 1.08289 6.92495 1.18733C6.87541 1.29176 6.80281 1.38655 6.71134 1.46623L2.2419 5.3915C2.15044 5.47117 2.07784 5.56596 2.0283 5.6704C1.97875 5.77484 1.95324 5.88686 1.95324 6C1.95324 6.11314 1.97875 6.22516 2.0283 6.3296C2.07784 6.43404 2.15044 6.52883 2.2419 6.6085L6.71134 10.5338C6.80281 10.6134 6.87541 10.7082 6.92495 10.8127C6.97449 10.9171 7 11.0291 7 11.1423C7 11.2554 6.97449 11.3674 6.92495 11.4719C6.87541 11.5763 6.80281 11.6711 6.71134 11.7508C6.5285 11.9104 6.28117 12 6.02336 12C5.76555 12 5.51822 11.9104 5.33538 11.7508L0.856181 7.81694C0.307941 7.33485 -2.44352e-07 6.68135 -2.14569e-07 6C-1.84786e-07 5.31865 0.307941 4.66515 0.856181 4.18306L5.33538 0.249224C5.51822 0.0895986 5.76555 -5.39594e-08 6.02336 -4.26903e-08C6.28117 -3.14211e-08 6.5285 0.0895986 6.71134 0.249224Z" fill="currentColor"/></symbol><symbol id="chevron-right" viewBox="0 0 7 12" fill="none"><path d="M0.288657 0.249224C0.197191 0.328897 0.124593 0.423687 0.0750497 0.528126C0.0255065 0.632565 -4.9199e-07 0.744586 -4.87044e-07 0.857726C-4.82099e-07 0.970866 0.0255066 1.08289 0.0750497 1.18733C0.124593 1.29176 0.197191 1.38655 0.288657 1.46623L4.7581 5.3915C4.84956 5.47117 4.92216 5.56596 4.9717 5.6704C5.02125 5.77484 5.04676 5.88686 5.04676 6C5.04676 6.11314 5.02125 6.22516 4.9717 6.3296C4.92216 6.43404 4.84956 6.52883 4.7581 6.6085L0.288658 10.5338C0.197192 10.6134 0.124593 10.7082 0.0750501 10.8127C0.025507 10.9171 -4.24379e-08 11.0291 -3.74923e-08 11.1423C-3.25468e-08 11.2554 0.025507 11.3674 0.0750502 11.4719C0.124593 11.5763 0.197192 11.6711 0.288658 11.7508C0.471497 11.9104 0.718831 12 0.976639 12C1.23445 12 1.48178 11.9104 1.66462 11.7508L6.14382 7.81694C6.69206 7.33485 7 6.68135 7 6C7 5.31865 6.69206 4.66515 6.14382 4.18306L1.66462 0.249224C1.48178 0.0895986 1.23445 -5.39594e-08 0.976639 -4.26903e-08C0.71883 -3.14211e-08 0.471497 0.0895986 0.288657 0.249224Z" fill="currentColor"/></symbol><symbol id="clock" viewBox="0 0 15 15" fill="none"><path d="M7.5 15C3.36437 15 0 11.6356 0 7.5C0 3.36437 3.36437 0 7.5 0C11.6356 0 15 3.36437 15 7.5C15 11.6356 11.6356 15 7.5 15ZM7.5 1.25C4.05375 1.25 1.25 4.05375 1.25 7.5C1.25 10.9462 4.05375 13.75 7.5 13.75C10.9462 13.75 13.75 10.9462 13.75 7.5C13.75 4.05375 10.9462 1.25 7.5 1.25ZM10.625 7.5C10.625 7.15438 10.3456 6.875 10 6.875H8.125V3.75C8.125 3.40438 7.845 3.125 7.5 3.125C7.155 3.125 6.875 3.40438 6.875 3.75V7.5C6.875 7.84562 7.155 8.125 7.5 8.125H10C10.3456 8.125 10.625 7.84562 10.625 7.5Z" fill="currentColor"/></symbol><symbol id="" viewBox="" fill="none"/><symbol id="" viewBox="" fill="none"/></svg>