<svg width="30" height="30" viewBox="0 0 30 30" fill="none" xmlns="http://www.w3.org/2000/svg"><path d="M21.5184 11.9723C21.4272 12.0406 19.8091 12.9181 19.8091 14.8683C19.8091 17.1243 21.868 17.9222 21.9294 17.9421C21.92 17.9906 21.602 19.0353 20.8438 20.0992C20.168 21.0352 19.4618 21.9699 18.3873 21.9699C17.3134 21.9699 17.0369 21.3696 15.7964 21.3696C14.5881 21.3696 14.1584 21.9898 13.1757 21.9898C12.193 21.9898 11.5073 21.1235 10.7192 20.0595C9.80611 18.8096 9.06836 16.8688 9.06836 15.0262C9.06836 12.071 11.0653 10.5038 13.0307 10.5038C14.0748 10.5038 14.9453 11.1638 15.6006 11.1638C16.2249 11.1638 17.1977 10.4646 18.3862 10.4646C18.8363 10.4646 20.4539 10.5032 21.5184 11.9723ZM17.822 9.21356C18.3131 8.65294 18.6609 7.87485 18.6609 7.09676C18.6609 6.98861 18.6516 6.87929 18.6311 6.79102C17.8314 6.82025 16.8803 7.30312 16.3068 7.94325C15.8566 8.43547 15.4363 9.21415 15.4363 10.0028C15.4363 10.1214 15.4568 10.2401 15.4667 10.2781C15.517 10.2875 15.5994 10.298 15.6813 10.298C16.3986 10.298 17.3006 9.83557 17.822 9.21356Z" fill="#0F2027" fill-opacity="0.61"/></svg>