<svg width="30" height="30" viewBox="0 0 30 30" fill="none" xmlns="http://www.w3.org/2000/svg"><path d="M7.87301 8.62305C7.44275 8.62305 7.09375 8.97205 7.09375 9.40231V21.3046C7.09375 21.7349 7.44275 22.0839 7.87301 22.0839H23.4875C23.9177 22.0839 24.2667 21.7349 24.2667 21.3046V9.40231C24.2667 8.97205 23.9177 8.62305 23.4875 8.62305H7.87301ZM16.6641 9.37132H23.1285C23.3442 9.37132 23.5184 9.54612 23.5184 9.76125V20.9462C23.5183 21.0496 23.4771 21.1486 23.404 21.2216C23.3309 21.2946 23.2318 21.3356 23.1285 21.3356H17.1616C17.061 20.9801 16.9862 20.6177 16.9336 20.2553C16.8927 19.967 16.8693 19.6864 16.8547 19.4169V19.4134L16.8629 19.4111C16.864 19.4345 16.8617 19.4567 16.8629 19.4801C17.1096 19.4655 17.3563 19.4468 17.603 19.4169C18.9245 19.2636 20.2159 18.914 21.4344 18.3799L21.1356 17.6959C20.0135 18.1858 18.8264 18.5107 17.6111 18.6605C17.3644 18.6903 17.1137 18.7172 16.8629 18.7324V18.7558L16.8582 18.7546V18.7464C16.8582 18.7398 16.8597 18.7351 16.8629 18.7324C16.8594 18.7061 16.8629 18.6827 16.8629 18.6605C16.8983 18.0258 17.0049 17.3971 17.1809 16.7863C17.1844 16.7822 17.1844 16.7752 17.1879 16.7682C17.237 16.5957 17.2931 16.4349 17.3451 16.2847L17.5287 15.7837H14.2585C14.4758 14.2816 14.9055 12.8179 15.5347 11.4367C15.8584 10.7207 16.236 10.0303 16.6641 9.37132ZM10.7638 11.2467H11.5261L11.5279 13.139L10.7597 13.1332L10.7638 11.2467ZM19.0323 11.2601V13.1203H19.7303V11.2601H19.0323ZM10.1862 17.6731C12.0446 18.4961 14.0738 18.8594 16.1023 18.7324C16.0906 18.9725 16.0906 19.2219 16.1023 19.4807C15.8357 19.4988 15.5651 19.5064 15.2991 19.5064C15.1605 19.5064 15.0255 19.5023 14.8869 19.4988C13.1608 19.445 11.4613 19.0577 9.88225 18.3583L10.1862 17.6731Z" fill="#0F2027" fill-opacity="0.61"/></svg>