<svg xmlns="http://www.w3.org/2000/svg"><symbol id="share" viewBox="0 0 16 16" fill="none"><path d="M13.333 12.6664C13.3328 11.9301 12.7363 11.3333 12 11.3333C11.5278 11.3333 11.1139 11.5793 10.877 11.9496C10.8697 11.9645 10.8649 11.9808 10.8564 11.9955C10.8466 12.0124 10.8324 12.0266 10.8213 12.0423C10.7225 12.2285 10.667 12.4409 10.667 12.6664C10.667 13.4027 11.2636 14.0003 12 14.0003C12.7364 14.0003 13.333 13.4027 13.333 12.6664ZM5.33301 8.00034C5.33301 7.75892 5.26845 7.53257 5.15625 7.33725C5.15461 7.33453 5.152 7.33219 5.15039 7.32944C5.14915 7.32731 5.14868 7.32474 5.14746 7.3226C4.91536 6.93029 4.48885 6.66635 4 6.66635C3.26362 6.66635 2.66699 7.26396 2.66699 8.00034C2.66717 8.73657 3.26373 9.33334 4 9.33334C4.73627 9.33334 5.33283 8.73657 5.33301 8.00034ZM13.333 3.33334C13.333 2.59696 12.7364 2.00034 12 2.00034C11.2636 2.00034 10.667 2.59696 10.667 3.33334C10.667 4.06972 11.2636 4.66635 12 4.66635C12.7364 4.66635 13.333 4.06972 13.333 3.33334ZM14.667 3.33334C14.667 4.8061 13.4728 6.00034 12 6.00034C11.2589 6.00034 10.5888 5.69736 10.1055 5.20932L6.56348 7.27573C6.6285 7.50631 6.66699 7.74895 6.66699 8.00034C6.66696 8.25108 6.62918 8.49294 6.56445 8.72299L10.1064 10.7874C10.5896 10.3007 11.26 10.0003 12 10.0003C13.4727 10.0003 14.6668 11.1937 14.667 12.6664C14.667 14.1391 13.4728 15.3333 12 15.3333C10.5272 15.3333 9.33301 14.1391 9.33301 12.6664C9.33304 12.414 9.37 12.1702 9.43555 11.9388L5.89453 9.87534C5.41122 10.3636 4.74127 10.6664 4 10.6664C2.52735 10.6664 1.33318 9.47295 1.33301 8.00034C1.33301 6.52758 2.52724 5.33334 4 5.33334C4.74069 5.33334 5.41033 5.63583 5.89355 6.12338L9.43457 4.05698C9.36975 3.82672 9.33301 3.58433 9.33301 3.33334C9.33301 1.86058 10.5272 0.666351 12 0.666351C13.4728 0.666351 14.667 1.86058 14.667 3.33334Z" fill="currentColor"/></symbol><symbol id="telegram" viewBox="0 0 16 16" fill="none"><path fill-rule="evenodd" clip-rule="evenodd" d="M1.67494 7.23256C5.61199 5.51724 8.2373 4.38639 9.55089 3.84002C13.3014 2.28003 14.0808 2.00904 14.5887 2.0001C14.7004 1.99813 14.9502 2.02582 15.112 2.15711C15.2487 2.26798 15.2863 2.41774 15.3043 2.52285C15.3222 2.62797 15.3446 2.86742 15.3268 3.05451C15.1236 5.19002 14.2442 10.3723 13.7968 12.7642C13.6074 13.7762 13.2347 14.1156 12.8738 14.1488C12.0895 14.2209 11.494 13.6305 10.7344 13.1325C9.54574 12.3534 8.87424 11.8683 7.72047 11.108C6.38708 10.2293 7.25146 9.74635 8.01135 8.95709C8.21022 8.75054 11.6657 5.60745 11.7326 5.32232C11.741 5.28666 11.7488 5.15373 11.6698 5.08355C11.5908 5.01336 11.4743 5.03736 11.3902 5.05645C11.271 5.08351 9.37209 6.33859 5.69359 8.8217C5.1546 9.19181 4.66641 9.37214 4.229 9.36269C3.74679 9.35228 2.81922 9.09005 2.12967 8.8659C1.2839 8.59097 0.611707 8.44562 0.67024 7.9787C0.700728 7.73551 1.03563 7.48679 1.67494 7.23256Z" fill="currentColor"/></symbol><symbol id="plus" viewBox="0 0 16 16" fill="none"><path fill-rule="evenodd" clip-rule="evenodd" d="M16 7.238V8.76181H8.8V15.619H7.2V8.76181H0V7.238H7.2V0.380859H8.8V7.238H16Z" fill="currentColor"/></symbol><symbol id="" viewBox="" fill="none"/><symbol id="" viewBox="" fill="none"/><symbol id="" viewBox="" fill="none"/></svg>