<svg width="96" height="96" viewBox="0 0 96 96" fill="none" xmlns="http://www.w3.org/2000/svg"><path d="M7.0134 5.58301C2.2966 5.71634 1.54674 12.831 6.11314 14.0715L12.0683 16.1739L19.0742 52.7019C19.9126 57.0731 21.3014 61.0294 23.2395 64.4331C26.0897 69.4454 31.0347 73.1446 37.1457 73.1446H67.4678C72.9398 73.2438 72.9398 64.4875 67.4678 64.5953H37.1467C32.8299 64.0385 31.0401 61.8635 29.4571 58.6753H69.4795C73.151 58.6753 75.2011 55.4155 76.1067 51.6449L84.8619 21.8635C85.3291 16.9675 82.735 16.0011 78.1953 16.0011L20.6966 16.0449L19.1521 11.3217C18.735 9.91581 17.6683 8.82994 16.3297 8.45234L7.0134 5.58301Z" fill="#D9D9D9"/><path d="M39.224 77.5063C35.641 77.5063 32.7344 80.4151 32.7344 84.0034C32.7344 87.5853 35.641 90.4941 39.224 90.4941C42.8069 90.4941 45.7072 87.5853 45.7072 84.0034C45.7072 80.4151 42.8069 77.5063 39.224 77.5063Z" fill="#D9D9D9"/><path d="M65.077 77.5063C61.4994 77.5063 58.5938 80.4151 58.5938 84.0034C58.5938 87.5853 61.4994 90.4941 65.077 90.4941C68.6599 90.4941 71.5655 87.5853 71.5655 84.0034C71.5655 80.4151 68.6599 77.5063 65.077 77.5063Z" fill="#D9D9D9"/><path d="M7.0134 5.58301C2.2966 5.71634 1.54674 12.831 6.11314 14.0715L12.0683 16.1739L19.0742 52.7019C19.9126 57.0731 21.3014 61.0294 23.2395 64.4331C26.0897 69.4454 31.0401 73.1446 37.1457 73.1446H67.4678C72.9398 73.2438 72.9398 64.4875 67.4678 64.5889H37.1467C32.8299 64.0385 31.0401 61.8635 29.4571 58.6753H63.3302C49.2406 54.0033 39.0742 40.7201 39.0689 25.0454C39.0742 21.9307 39.4742 18.911 40.2305 16.0289L20.6966 16.0459L19.1521 11.3227C18.735 9.91687 17.6683 8.83101 16.3297 8.45341L7.0134 5.58301Z" fill="#C4C4C4"/><path d="M49.4996 38.0735C44.8265 38.0735 40.227 40.114 36.2996 43.874C34.7102 45.3535 35.7214 48.0127 37.8878 48.0681C38.5374 48.0852 39.171 47.8345 39.6329 47.3791C42.8436 44.3039 46.21 42.9172 49.4996 42.9172C52.7934 42.9172 56.1662 44.3028 59.3769 47.3791C60.3273 48.3743 61.922 48.3743 62.8766 47.3791C63.827 46.3785 63.7545 44.786 62.7166 43.874C58.7828 40.114 54.1769 38.0735 49.4996 38.0735ZM59.5763 28.5332C57.6425 28.5332 56.0766 30.1023 56.0766 32.0372C56.0766 33.9732 57.6436 35.5412 59.5763 35.5412C61.5091 35.5412 63.0825 33.9732 63.0825 32.0372C63.0835 30.1023 61.5102 28.5332 59.5763 28.5332ZM39.4334 28.5332C37.4942 28.5332 35.9273 30.1023 35.9273 32.0372C35.9273 33.9732 37.4942 35.5412 39.4334 35.5412C41.3673 35.5412 42.9331 33.9732 42.9331 32.0372C42.9331 30.1023 41.3662 28.5332 39.4334 28.5332Z" fill="white"/></svg>