<svg width="61" height="20" viewBox="0 0 61 20" fill="none" xmlns="http://www.w3.org/2000/svg"><g clip-path="url(#clip0_3834_1144)"><path d="M59.0989 12.2232L60.7898 13.3504C60.241 14.1588 58.9284 15.5456 56.6591 15.5456C53.8409 15.5456 51.7422 13.3653 51.7422 10.5916C51.7422 7.64004 53.8632 5.6377 56.4217 5.6377C58.9951 5.6377 60.2559 7.68453 60.6637 8.78953L60.8862 9.35315L54.2562 12.0971C54.7605 13.0909 55.5466 13.5952 56.6591 13.5952C57.7715 13.5952 58.5427 13.0464 59.0989 12.2232ZM53.9003 10.4359L58.3277 8.59671C58.0829 7.98118 57.3562 7.54363 56.4885 7.54363C55.3835 7.54363 53.8484 8.52255 53.9003 10.4359Z" fill="white"/><path d="M48.5469 0.586914H50.6827V15.0928H48.5469V0.586914Z" fill="white"/><path d="M45.1809 6.02294H47.2426V14.8332C47.2426 18.4894 45.0845 19.9948 42.5334 19.9948C40.1306 19.9948 38.6844 18.3781 38.1431 17.0655L40.0342 16.2794C40.3753 17.0877 41.1985 18.0444 42.5334 18.0444C44.1723 18.0444 45.1809 17.0284 45.1809 15.1299V14.4179H45.1068C44.6173 15.0112 43.6829 15.5452 42.4963 15.5452C40.0193 15.5452 37.75 13.3871 37.75 10.6061C37.75 7.81021 40.0193 5.62988 42.4963 5.62988C43.6755 5.62988 44.6173 6.15642 45.1068 6.73488H45.1809V6.02294ZM45.3292 10.6061C45.3292 8.85588 44.1649 7.58031 42.6817 7.58031C41.1836 7.58031 39.9229 8.85588 39.9229 10.6061C39.9229 12.334 41.1836 13.5873 42.6817 13.5873C44.1649 13.5948 45.3292 12.334 45.3292 10.6061Z" fill="white"/><path d="M26.0251 10.5688C26.0251 13.424 23.8002 15.5227 21.0711 15.5227C18.342 15.5227 16.1172 13.4166 16.1172 10.5688C16.1172 7.69876 18.342 5.60742 21.0711 5.60742C23.8002 5.60742 26.0251 7.69876 26.0251 10.5688ZM23.8596 10.5688C23.8596 8.78892 22.5692 7.56527 21.0711 7.56527C19.5731 7.56527 18.2827 8.78892 18.2827 10.5688C18.2827 12.3338 19.5731 13.5723 21.0711 13.5723C22.5692 13.5723 23.8596 12.3338 23.8596 10.5688Z" fill="white"/><path d="M36.8454 10.5916C36.8454 13.4468 34.6206 15.5456 31.8914 15.5456C29.1623 15.5456 26.9375 13.4468 26.9375 10.5916C26.9375 7.72161 29.1623 5.6377 31.8914 5.6377C34.6206 5.6377 36.8454 7.7142 36.8454 10.5916ZM34.6725 10.5916C34.6725 8.81178 33.3821 7.58812 31.884 7.58812C30.386 7.58812 29.0956 8.81178 29.0956 10.5916C29.0956 12.3567 30.386 13.5952 31.884 13.5952C33.3895 13.5952 34.6725 12.3492 34.6725 10.5916Z" fill="white"/><path d="M7.97552 13.3728C4.86818 13.3728 2.4357 10.8661 2.4357 7.75881C2.4357 4.65147 4.86818 2.14483 7.97552 2.14483C9.65155 2.14483 10.8752 2.80487 11.78 3.6503L13.2706 2.15967C12.0099 0.950844 10.3264 0.03125 7.97552 0.03125C3.71869 0.03125 0.136719 3.50198 0.136719 7.75881C0.136719 12.0156 3.71869 15.4864 7.97552 15.4864C10.2745 15.4864 12.0099 14.7299 13.367 13.3209C14.7612 11.9266 15.1914 9.9688 15.1914 8.38176C15.1914 7.88488 15.132 7.37317 15.0653 6.99495H7.97552V9.05662H13.0259C12.8776 10.347 12.4697 11.2295 11.869 11.8302C11.1422 12.5644 9.99269 13.3728 7.97552 13.3728Z" fill="white"/></g><defs><clipPath id="clip0_3834_1144"><rect width="60.9524" height="20" fill="white" transform="translate(0.046875)"/></clipPath></defs></svg>