<svg width="58" height="40" viewBox="0 0 58 40" fill="none" xmlns="http://www.w3.org/2000/svg"><g clip-path="url(#clip0_3741_16884)"><path fill-rule="evenodd" clip-rule="evenodd" d="M5.89796 36.6646L5.50155 35.6345H2.13205L1.73564 36.6891C1.58699 37.106 1.43833 37.3758 1.33923 37.5229C1.24012 37.6701 1.04192 37.7437 0.794162 37.7437C0.595956 37.7437 0.39775 37.6701 0.22432 37.5229C0.0508897 37.3758 -0.0234375 37.2041 -0.0234375 37.0079C-0.0234375 36.8853 0.00133823 36.7872 0.026114 36.6646C0.0756654 36.542 0.125217 36.3703 0.22432 36.1741L2.33026 30.8522C2.37981 30.705 2.45414 30.5088 2.55324 30.3126C2.62757 30.0919 2.72667 29.9203 2.82577 29.7731C2.92487 29.626 3.04875 29.5279 3.19741 29.4298C3.34606 29.3317 3.54427 29.3071 3.76725 29.3071C3.99023 29.3071 4.18844 29.3562 4.36187 29.4298C4.51052 29.5279 4.6344 29.626 4.7335 29.7731C4.83261 29.9203 4.90693 30.0674 4.98126 30.2145C5.05559 30.3617 5.12992 30.5824 5.22902 30.8522L7.38451 36.1496C7.55794 36.542 7.63226 36.8363 7.63226 37.0325C7.63226 37.2286 7.55794 37.4003 7.38451 37.5475C7.23585 37.6946 7.03765 37.7927 6.81466 37.7927C6.69079 37.7927 6.56691 37.7682 6.4678 37.7191C6.3687 37.6701 6.29437 37.621 6.22005 37.5229C6.14572 37.4494 6.09617 37.3267 6.02184 37.1551C5.99707 36.9344 5.94751 36.7872 5.89796 36.6646ZM2.57801 34.3838H5.05559L3.8168 30.9993L2.57801 34.3838Z" fill="white"/><path fill-rule="evenodd" clip-rule="evenodd" d="M10.23 32.3731V32.5693C10.5273 32.226 10.8246 31.9562 11.1467 31.7845C11.4687 31.6129 11.8156 31.5393 12.212 31.5393C12.6828 31.5393 13.1287 31.6619 13.5251 31.9072C13.9215 32.1524 14.2436 32.4958 14.4666 32.9617C14.6896 33.4277 14.8135 33.9672 14.8135 34.6049C14.8135 35.0709 14.7391 35.5123 14.6153 35.9047C14.4914 36.2971 14.2932 36.6159 14.0702 36.8857C13.8472 37.1555 13.5499 37.3517 13.2526 37.4988C12.9305 37.646 12.5837 37.7195 12.2368 37.7195C11.7908 37.7195 11.4192 37.6214 11.1219 37.4498C10.8246 37.2781 10.5273 37.0083 10.2547 36.6895V38.9948C10.2547 39.657 10.007 40.0004 9.51147 40.0004C9.21416 40.0004 9.04073 39.9023 8.94162 39.7306C8.84252 39.5589 8.79297 39.3137 8.79297 38.9703V32.3731C8.79297 32.0788 8.8673 31.8581 8.99117 31.711C9.11505 31.5638 9.28848 31.4902 9.51147 31.4902C9.73445 31.4902 9.90788 31.5638 10.0565 31.711C10.1556 31.8826 10.23 32.1034 10.23 32.3731ZM13.2526 34.6049C13.2526 34.2125 13.2031 33.8446 13.0544 33.5748C12.9305 33.2805 12.7571 33.0598 12.5341 32.9127C12.3111 32.7655 12.0634 32.692 11.8156 32.692C11.3944 32.692 11.0228 32.8636 10.7503 33.1825C10.4529 33.5258 10.3043 33.9918 10.3043 34.6539C10.3043 35.2671 10.4529 35.733 10.7503 36.0764C11.0476 36.4197 11.3944 36.5914 11.8404 36.5914C12.0881 36.5914 12.3359 36.5178 12.5589 36.3707C12.7819 36.2235 12.9553 36.0028 13.0792 35.7085C13.1783 35.3652 13.2526 35.0218 13.2526 34.6049Z" fill="white"/><path fill-rule="evenodd" clip-rule="evenodd" d="M17.4643 32.3731V32.5693C17.7616 32.226 18.059 31.9562 18.381 31.7845C18.7031 31.6129 19.05 31.5393 19.4464 31.5393C19.9171 31.5393 20.3631 31.6619 20.7595 31.9072C21.1559 32.1524 21.478 32.4958 21.701 32.9617C21.924 33.4277 22.0478 33.9672 22.0478 34.6049C22.0478 35.0709 21.9735 35.5123 21.8496 35.9047C21.7258 36.2971 21.5276 36.6159 21.3046 36.8857C21.0816 37.1555 20.7843 37.3517 20.487 37.4988C20.1649 37.646 19.818 37.7195 19.4712 37.7195C19.0252 37.7195 18.6536 37.6214 18.3563 37.4498C18.059 37.2781 17.7616 37.0083 17.4891 36.6895V38.9948C17.4891 39.657 17.2414 40.0004 16.7458 40.0004C16.4485 40.0004 16.2751 39.9023 16.176 39.7306C16.0769 39.5589 16.0273 39.3137 16.0273 38.9703V32.3731C16.0273 32.0788 16.1017 31.8581 16.2256 31.711C16.3494 31.5638 16.5229 31.4902 16.7458 31.4902C16.9688 31.4902 17.1423 31.5638 17.2909 31.711C17.39 31.8826 17.4643 32.1034 17.4643 32.3731ZM20.487 34.6049C20.487 34.2125 20.4374 33.8446 20.2888 33.5748C20.1649 33.2805 19.9915 33.0598 19.7685 32.9127C19.5455 32.7655 19.2977 32.692 19.05 32.692C18.6288 32.692 18.2572 32.8636 17.9846 33.1825C17.6873 33.5258 17.5387 33.9918 17.5387 34.6539C17.5387 35.2671 17.6873 35.733 17.9846 36.0764C18.2819 36.4197 18.6288 36.5914 19.0748 36.5914C19.3225 36.5914 19.5703 36.5178 19.7933 36.3707C20.0162 36.2235 20.1897 36.0028 20.3135 35.7085C20.4126 35.3652 20.487 35.0218 20.487 34.6049Z" fill="white"/><path fill-rule="evenodd" clip-rule="evenodd" d="M23.2617 36.787V30.1653C23.2617 29.871 23.336 29.6258 23.4599 29.4786C23.6086 29.3315 23.782 29.2334 24.005 29.2334C24.228 29.2334 24.4262 29.307 24.5748 29.4541C24.7235 29.6013 24.7978 29.8465 24.7978 30.1408V36.7625C24.7978 37.0813 24.7235 37.3021 24.5748 37.4492C24.4262 37.5964 24.2527 37.6699 24.005 37.6699C23.782 37.6699 23.6086 37.5964 23.4599 37.4247C23.336 37.3266 23.2617 37.0813 23.2617 36.787Z" fill="white"/><path fill-rule="evenodd" clip-rule="evenodd" d="M30.6955 34.9967H27.6728C27.6728 35.34 27.7471 35.6589 27.8958 35.9041C28.0444 36.1739 28.2179 36.3701 28.4409 36.4927C28.6638 36.6399 28.9116 36.6889 29.1841 36.6889C29.3576 36.6889 29.531 36.6644 29.6796 36.6153C29.8283 36.5663 29.977 36.5172 30.1256 36.4191C30.2743 36.321 30.3981 36.2229 30.522 36.1248C30.6459 36.0267 30.7946 35.8796 30.9928 35.7079C31.0671 35.6343 31.191 35.6098 31.3396 35.6098C31.4883 35.6098 31.6369 35.6589 31.736 35.7324C31.8351 35.806 31.8847 35.9286 31.8847 36.1003C31.8847 36.2475 31.8351 36.3946 31.7113 36.5908C31.6122 36.7625 31.4387 36.9587 31.2157 37.1303C30.9928 37.302 30.7202 37.4492 30.3981 37.5473C30.0761 37.6699 29.6796 37.7189 29.2585 37.7189C28.2674 37.7189 27.4994 37.4492 26.9543 36.8851C26.4093 36.321 26.1367 35.5608 26.1367 34.6043C26.1367 34.1628 26.211 33.7459 26.3349 33.3535C26.4588 32.9611 26.657 32.6423 26.9295 32.3725C27.2021 32.1028 27.4994 31.882 27.8958 31.7349C28.2674 31.5877 28.6886 31.5142 29.1594 31.5142C29.754 31.5142 30.2743 31.6368 30.7202 31.882C31.1414 32.1273 31.4635 32.4706 31.6865 32.863C31.9095 33.2554 32.0086 33.6723 32.0086 34.0893C32.0086 34.4817 31.8847 34.7269 31.6865 34.8495C31.414 34.9476 31.1166 34.9967 30.6955 34.9967ZM27.6976 34.1383H30.4725C30.4477 33.6233 30.299 33.2309 30.0513 32.9611C29.8035 32.6914 29.4814 32.5687 29.085 32.5687C28.6886 32.5687 28.3913 32.6914 28.1436 32.9611C27.8958 33.2309 27.7471 33.6233 27.6976 34.1383Z" fill="white"/><path fill-rule="evenodd" clip-rule="evenodd" d="M43.8539 34.2614V35.831C43.8539 36.0517 43.8291 36.1988 43.8044 36.3215C43.7548 36.4441 43.6805 36.5667 43.5814 36.6648C43.4575 36.7629 43.3336 36.861 43.1602 36.9591C42.6647 37.2289 42.1692 37.4251 41.7232 37.5477C41.2525 37.6703 40.7569 37.7194 40.2119 37.7194C39.5677 37.7194 38.9979 37.6213 38.4776 37.4251C37.9573 37.2289 37.5113 36.9591 37.1397 36.5912C36.768 36.2234 36.4955 35.7819 36.2973 35.2424C36.0991 34.7273 36 34.1387 36 33.4766C36 32.8389 36.0991 32.2503 36.2973 31.7353C36.4955 31.1958 36.768 30.7543 37.1397 30.3864C37.5113 30.0186 37.9573 29.7243 38.5023 29.5526C39.0474 29.3564 39.642 29.2583 40.311 29.2583C40.856 29.2583 41.3516 29.3319 41.7975 29.479C42.2187 29.6262 42.5656 29.8224 42.8381 30.0431C43.1106 30.2638 43.3088 30.5091 43.4327 30.7543C43.5566 30.9996 43.6309 31.2203 43.6309 31.4165C43.6309 31.6127 43.5566 31.8089 43.4079 31.956C43.2593 32.1032 43.0611 32.1768 42.8381 32.1768C42.7142 32.1768 42.6151 32.1522 42.4912 32.1032C42.3674 32.0541 42.293 31.9806 42.2187 31.8825C42.0205 31.5636 41.8471 31.3184 41.6984 31.1467C41.5498 30.975 41.3516 30.8524 41.1286 30.7298C40.8808 30.6072 40.5835 30.5581 40.1871 30.5581C39.7907 30.5581 39.4438 30.6317 39.1465 30.7543C38.8492 30.8769 38.5767 31.0731 38.3537 31.3429C38.1307 31.5882 37.9821 31.907 37.8582 32.2749C37.7343 32.6427 37.6848 33.0351 37.6848 33.5011C37.6848 34.4576 37.9077 35.1933 38.3537 35.7329C38.7997 36.2479 39.4191 36.5176 40.2119 36.5176C40.6083 36.5176 40.9551 36.4686 41.302 36.3705C41.6489 36.2724 41.9957 36.1253 42.3426 35.9291V34.6047H41.0542C40.7322 34.6047 40.5092 34.5557 40.3358 34.4576C40.1871 34.3595 40.088 34.2123 40.088 33.9916C40.088 33.8199 40.1623 33.6482 40.2862 33.5501C40.4101 33.4275 40.6083 33.3785 40.8313 33.3785H42.739C42.962 33.3785 43.1602 33.403 43.3336 33.4275C43.507 33.4766 43.6309 33.5501 43.73 33.6973C43.7796 33.7463 43.8539 33.9671 43.8539 34.2614Z" fill="white"/><path fill-rule="evenodd" clip-rule="evenodd" d="M51.1092 34.6288C51.1092 35.0948 51.0349 35.5117 50.8862 35.8796C50.7376 36.272 50.5394 36.5908 50.2668 36.8606C49.9943 37.1303 49.6722 37.3511 49.3006 37.4982C48.929 37.6454 48.5078 37.7189 48.037 37.7189C47.5663 37.7189 47.1451 37.6454 46.7735 37.4982C46.4018 37.3511 46.0798 37.1303 45.8072 36.8606C45.5347 36.5908 45.3365 36.2475 45.1878 35.8796C45.0392 35.5117 44.9648 35.0703 44.9648 34.6288C44.9648 34.1628 45.0392 33.7459 45.1878 33.3535C45.3365 32.9611 45.5347 32.6423 45.8072 32.3725C46.0798 32.1028 46.4018 31.882 46.7735 31.7349C47.1451 31.5877 47.5663 31.5142 48.037 31.5142C48.5078 31.5142 48.929 31.5877 49.3006 31.7349C49.6722 31.882 49.9943 32.1028 50.2668 32.3725C50.5394 32.6423 50.7376 32.9856 50.8862 33.3535C51.0349 33.7459 51.1092 34.1628 51.1092 34.6288ZM49.5484 34.6288C49.5484 34.0157 49.3997 33.5252 49.1272 33.1818C48.8546 32.8385 48.483 32.6668 48.0123 32.6668C47.715 32.6668 47.4424 32.7404 47.2194 32.8876C46.9965 33.0347 46.823 33.2799 46.6991 33.5742C46.5753 33.8685 46.5009 34.2364 46.5009 34.6288C46.5009 35.0212 46.5505 35.3891 46.6744 35.6834C46.7982 35.9777 46.9717 36.1984 47.1947 36.3701C47.4176 36.5172 47.6902 36.6153 48.0123 36.6153C48.483 36.6153 48.8546 36.4437 49.1272 36.1003C49.4245 35.7079 49.5484 35.2419 49.5484 34.6288Z" fill="white"/><path fill-rule="evenodd" clip-rule="evenodd" d="M56.5353 36.861V36.7138C56.3371 36.9591 56.1141 37.1308 55.9159 37.2779C55.7177 37.4251 55.4947 37.5477 55.2717 37.6213C55.0488 37.6948 54.7762 37.7439 54.5037 37.7439C54.1321 37.7439 53.7852 37.6703 53.4879 37.5232C53.1658 37.376 52.8933 37.1553 52.6703 36.861C52.4473 36.5667 52.2739 36.2479 52.15 35.8555C52.0261 35.4631 51.9766 35.0462 51.9766 34.6047C51.9766 33.6482 52.1995 32.9125 52.6703 32.373C53.141 31.8334 53.7604 31.5636 54.5285 31.5636C54.9744 31.5636 55.3461 31.6372 55.6434 31.7844C55.9407 31.9315 56.238 32.1768 56.5353 32.4711V30.2148C56.5353 29.8959 56.6096 29.6752 56.7335 29.5035C56.8574 29.3319 57.0308 29.2583 57.2786 29.2583C57.5016 29.2583 57.6998 29.3319 57.8236 29.479C57.9475 29.6262 58.0218 29.8469 58.0218 30.1412V36.861C58.0218 37.1553 57.9475 37.376 57.8236 37.5232C57.675 37.6703 57.5016 37.7439 57.3033 37.7439C57.1051 37.7439 56.9069 37.6703 56.7831 37.5232C56.6096 37.3515 56.5353 37.1308 56.5353 36.861ZM53.5127 34.6047C53.5127 35.0216 53.587 35.365 53.7109 35.6593C53.8347 35.9536 54.0082 36.1743 54.2559 36.3215C54.4789 36.4686 54.7267 36.5422 54.9992 36.5422C55.2717 36.5422 55.5195 36.4686 55.7425 36.3215C55.9655 36.1743 56.1389 35.9781 56.2875 35.6838C56.4114 35.3895 56.4857 35.0462 56.4857 34.6047C56.4857 34.1878 56.4114 33.8444 56.2875 33.5501C56.1637 33.2558 55.9655 33.0351 55.7425 32.888C55.5195 32.7408 55.2717 32.6673 54.9992 32.6673C54.7267 32.6673 54.4541 32.7408 54.2312 32.9125C54.0082 33.0596 53.8347 33.3049 53.7109 33.5992C53.5622 33.869 53.5127 34.2123 53.5127 34.6047Z" fill="white"/><path fill-rule="evenodd" clip-rule="evenodd" d="M35.3518 7.38179C33.8405 7.62704 32.453 8.11754 31.462 8.82876C24.9212 13.4639 26.8537 22.5627 33.5184 24.8925C34.8067 25.334 36.764 25.7754 37.7303 24.8189C38.2506 24.3039 38.3744 23.6172 37.978 22.857C37.6559 22.2438 37.0613 22.0722 36.1198 21.9986C33.2211 21.7533 31.016 19.6442 30.8178 16.7258C30.5948 13.6601 32.8494 11.2322 35.4013 10.7417C39.0434 10.055 40.0096 12.6546 41.6201 12.017C42.735 11.5755 43.9985 9.5645 39.9353 7.94586C38.647 7.43084 36.8879 7.11202 35.3518 7.38179ZM24.4257 12.9489C24.3266 13.047 24.3514 13.0225 24.2523 13.1697L24.1532 13.3168C24.1284 13.3658 24.0541 13.562 24.0045 13.6356L19.5944 23.2739C19.1732 24.1568 18.8511 25.1623 17.9097 25.334C16.7948 25.5302 15.8781 24.7208 15.9028 23.6908C15.9276 23.0532 19.9413 14.5921 20.5111 13.3413C21.2296 11.7717 22.0472 9.71165 22.8896 8.16659C23.286 7.43084 24.4752 6.91582 25.3919 7.65156C25.9618 8.11754 26.3334 9.22115 26.7298 10.0795C27.6961 12.0906 26.2591 10.9624 25.6892 15.6712L24.4257 12.9489ZM40.4804 19.7423C39.2168 19.7668 38.0276 19.8895 37.4825 19.0556C36.8631 18.1237 37.2595 17.0691 37.978 16.6031C38.7213 16.1372 40.2326 16.3334 41.2236 16.3334C44.3206 16.3334 43.8746 17.4615 43.8746 20.8459C43.8746 22.1212 43.9985 23.1022 43.1066 23.6172C42.1156 24.2058 41.1245 23.6418 40.7281 23.0286C40.3069 22.391 40.4556 20.6252 40.4804 19.7423ZM22.84 22.0967C23.5833 21.9005 26.9033 21.925 27.4236 22.2929C28.811 23.2248 28.2412 25.0397 26.9776 25.334C26.1104 25.5302 22.8896 25.4811 22.2702 25.1132C21.1553 24.4511 21.2792 22.5136 22.84 22.0967Z" fill="white"/><path fill-rule="evenodd" clip-rule="evenodd" d="M15.5822 5.51798C14.8389 6.3273 13.947 6.89137 14.1452 8.53453C14.9133 10.6682 18.3323 9.63815 20.5126 9.51552C21.0577 9.491 21.8505 9.3929 21.7266 8.77978C21.5284 7.67616 18.035 8.7062 16.4989 7.92141C16.9201 6.35182 21.3302 3.92386 23.1884 3.31074C25.4182 2.575 28.3913 2.3788 30.8936 2.45237C31.513 2.4769 32.8261 2.59952 33.3712 2.86929C33.3216 3.21264 32.8509 3.40884 32.6279 3.58051L29.7787 5.32178C29.085 5.71417 28.4408 5.98395 27.7719 6.4254C27.3011 6.74422 25.7898 7.28376 26.4588 7.82331C26.6322 7.94593 26.6074 7.97046 26.9295 7.92141C27.0534 7.89688 27.3011 7.79879 27.4498 7.74974L30.2495 6.62159C30.8441 6.35182 31.4387 6.08205 32.0333 5.81227C32.4049 5.6406 33.6437 5.07653 33.8915 5.052C34.1145 4.73318 34.387 4.68413 34.7586 4.43888C35.0064 4.26721 35.3037 3.89934 35.5019 3.85029C35.7497 3.13907 36.1213 2.62405 35.6753 1.7902C35.4028 1.27518 34.8577 0.882783 34.387 0.66206C32.5536 -0.269884 27.3755 -0.0246356 25.4677 0.416811C24.774 0.588485 24.0307 0.637535 23.3866 0.833733C20.1905 1.81473 18.0102 3.18812 15.5822 5.51798Z" fill="#F28569"/></g><defs><clipPath id="clip0_3741_16884"><rect width="58" height="40" fill="white"/></clipPath></defs></svg>