<svg width="63" height="18" viewBox="0 0 63 18" fill="none" xmlns="http://www.w3.org/2000/svg"><g clip-path="url(#clip0_3834_1136)"><path d="M60.096 15.6737C61.3186 15.6737 62.1847 15.4529 62.83 14.9775V12.8209C62.1677 13.2793 61.3696 13.568 60.2488 13.568C58.3639 13.568 57.5828 12.1077 57.5828 9.79822C57.5828 7.36992 58.5337 6.13029 60.2658 6.13029C61.2847 6.13029 62.2866 6.4869 62.813 6.82652V4.58501C62.2526 4.27935 61.2847 4.05859 59.9602 4.05859C56.5809 4.05859 54.8319 6.4869 54.8319 9.88312C54.8488 13.602 56.5639 15.6737 60.096 15.6737ZM43.5734 14.6888V12.5322C42.7583 13.0926 41.3658 13.585 40.0922 13.585C38.1564 13.585 37.4262 12.668 37.3073 10.8001H43.6922V9.40765C43.6922 5.51897 41.9771 4.05859 39.3451 4.05859C36.1186 4.05859 34.5903 6.52086 34.5903 9.9001C34.5903 13.7888 36.5092 15.6737 39.8715 15.6737C41.5526 15.6737 42.7922 15.2152 43.5734 14.6888ZM19.3413 4.26237V8.67746H15.8092V4.26237H13.1602V15.4529H15.8092V10.7831H19.3413V15.4529H21.9903V4.26237H19.3413ZM33.9281 13.3473H32.7564V4.26237H25.047V5.21331C25.047 7.94727 24.8771 11.4793 23.9432 13.3473H23.0941V18.0001H25.5394V15.4529H31.4658V18.0001H33.9111V13.3473H33.9281ZM52.013 15.4529H55.0187L50.7734 9.42463L54.5092 4.26237H51.8432L48.1073 9.42463V4.26237H45.4583V15.4529H48.1073V9.95105L52.013 15.4529ZM39.2771 6.13029C40.5847 6.13029 40.9922 7.21708 40.9922 8.62652V8.84727H37.3073C37.3753 7.06425 38.0205 6.13029 39.2771 6.13029ZM30.1073 13.3473H26.3715C27.1017 11.6661 27.3054 8.60954 27.3054 6.67369V6.33407H30.1073V13.3473Z" fill="white"/><path d="M10.9533 15.4528H8.25327V2.08868H7.04761C4.84007 2.08868 3.68535 3.19245 3.68535 4.83962C3.68535 6.70755 4.48346 7.57358 6.13063 8.67736L7.48912 9.59434L3.58346 15.4528H0.679688L4.19478 10.2226C2.17403 8.77925 1.03629 7.36981 1.03629 4.99245C1.03629 2.02075 3.10799 0 7.03063 0H10.9363L10.9533 15.4528Z" fill="white"/></g><defs><clipPath id="clip0_3834_1136"><rect width="62.3208" height="18" fill="white" transform="translate(0.679688)"/></clipPath></defs></svg>