<svg width="54" height="54" viewBox="0 0 54 54" fill="none" xmlns="http://www.w3.org/2000/svg"><rect width="54" height="54" rx="27" fill="#34356D"/><path d="M28.7263 15.7924C27.6453 16.3517 26.3545 16.3516 25.2737 15.7924C20.6032 13.3763 15 16.7803 15 22.0322C15 25.3374 17.7459 39 22.039 39C23.5449 39 24.9154 37.4669 26.229 34.3133C26.5129 33.6315 27.4871 33.6313 27.771 34.3133C29.0846 37.4669 30.455 39 31.961 39C36.2121 39 39 25.4425 39 22.0322C38.9999 16.7821 33.3987 13.3752 28.7263 15.7924ZM31.9609 37.7493C31.0702 37.7493 29.9649 36.322 28.9285 33.8332C28.2162 32.1233 25.784 32.1225 25.0715 33.8333C24.0351 36.322 22.9297 37.7493 22.039 37.7493C19.2936 37.7493 16.2535 25.9134 16.2535 22.0323C16.2535 17.7109 20.8642 14.9204 24.6968 16.9029C26.139 17.649 27.861 17.649 29.3032 16.9029C33.1318 14.9223 37.7465 17.7068 37.7465 22.0323C37.7465 25.8967 34.7084 37.7493 31.9609 37.7493Z" fill="white"/><path d="M35.4487 21.4062C35.1026 21.4062 34.822 21.6862 34.822 22.0317C34.822 23.0758 34.3918 26.046 33.4355 29.38C33.3402 29.712 33.5328 30.0583 33.8655 30.1533C34.1968 30.2483 34.5449 30.0572 34.6404 29.7242C35.6301 26.2739 36.0753 23.1488 36.0753 22.0317C36.0754 21.6862 35.7948 21.4062 35.4487 21.4062Z" fill="white"/><path d="M22.0392 17.9258C19.7706 17.9258 17.9248 19.7676 17.9248 22.0314C17.9248 22.3769 18.2054 22.6568 18.5515 22.6568C18.8976 22.6568 19.1783 22.3769 19.1783 22.0314C19.1783 20.4572 20.4616 19.1766 22.0392 19.1766C22.3853 19.1766 22.6659 18.8967 22.6659 18.5512C22.6659 18.2057 22.3853 17.9258 22.0392 17.9258Z" fill="white"/></svg>