<svg width="48" height="48" viewBox="0 0 48 48" fill="none" xmlns="http://www.w3.org/2000/svg">
<path d="M40.0001 29L38.5201 19.392C38.375 18.4482 37.897 17.5875 37.1725 16.9654C36.4481 16.3433 35.525 16.0008 34.5701 16H13.4321C12.4765 15.9999 11.5525 16.3419 10.8272 16.9641C10.1019 17.5862 9.62335 18.4475 9.4781 19.392L6.7081 37.392C6.62044 37.962 6.65708 38.5443 6.81551 39.0988C6.97394 39.6534 7.25042 40.1671 7.62599 40.6048C8.00156 41.0425 8.46733 41.3938 8.99138 41.6346C9.51543 41.8754 10.0854 42.0001 10.6621 42H24.0001M35.0001 34V38M35.0001 44.02L35.0201 43.998M28.0001 10C28.0001 8.93913 27.5787 7.92172 26.8285 7.17157C26.0784 6.42143 25.061 6 24.0001 6C22.9392 6 21.9218 6.42143 21.1717 7.17157C20.4215 7.92172 20.0001 8.93913 20.0001 10" stroke="#CC4B50" stroke-width="3" stroke-linecap="round" stroke-linejoin="round"/>
</svg>
