<svg width="49" height="48" viewBox="0 0 49 48" fill="none" xmlns="http://www.w3.org/2000/svg">
<path d="M40.5001 29L39.0201 19.392C38.875 18.4482 38.397 17.5875 37.6725 16.9654C36.9481 16.3433 36.025 16.0008 35.0701 16H13.9321C12.9765 15.9999 12.0525 16.3419 11.3272 16.9641C10.6019 17.5862 10.1233 18.4475 9.9781 19.392L7.2081 37.392C7.12044 37.962 7.15708 38.5443 7.31551 39.0988C7.47394 39.6534 7.75042 40.1671 8.12599 40.6048C8.50156 41.0425 8.96733 41.3938 9.49138 41.6346C10.0154 41.8754 10.5854 42.0001 11.1621 42H24.5001" stroke="#4BCC6D" stroke-width="3" stroke-linecap="round" stroke-linejoin="round"/>
<path d="M28.5 38L34.5 44L44.5 34M28.5 10C28.5 8.93913 28.0786 7.92172 27.3284 7.17157C26.5783 6.42143 25.5609 6 24.5 6C23.4391 6 22.4217 6.42143 21.6716 7.17157C20.9214 7.92172 20.5 8.93913 20.5 10" stroke="#4BCC6D" stroke-width="3" stroke-linecap="round" stroke-linejoin="round"/>
</svg>
