<svg width="72" height="72" viewBox="0 0 72 72" fill="none" xmlns="http://www.w3.org/2000/svg">
<circle cx="36" cy="36" r="36" fill="#CC4B50" fill-opacity="0.1"/>
<path d="M30.1665 22.6667H25.9998C25.1158 22.6667 24.2679 23.0179 23.6428 23.643C23.0177 24.2681 22.6665 25.1159 22.6665 26V49.3333C22.6665 50.2174 23.0177 51.0652 23.6428 51.6904C24.2679 52.3155 25.1158 52.6667 25.9998 52.6667H35.9998M41.8332 22.6667H45.9998C46.8839 22.6667 47.7317 23.0179 48.3569 23.643C48.982 24.2681 49.3332 25.1159 49.3332 26V41" stroke="#CC4B50" stroke-width="2" stroke-linecap="round"/>
<path d="M29.3335 26.6667V23.5C29.3335 23.279 29.4213 23.067 29.5776 22.9107C29.7339 22.7545 29.9458 22.6667 30.1668 22.6667C30.6268 22.6667 31.0068 22.2933 31.0868 21.84C31.3335 20.42 32.2902 17.6667 36.0002 17.6667C39.7102 17.6667 40.6668 20.42 40.9135 21.84C40.9935 22.2933 41.3735 22.6667 41.8335 22.6667C42.0545 22.6667 42.2665 22.7545 42.4228 22.9107C42.579 23.067 42.6668 23.279 42.6668 23.5V26.6667C42.6668 26.9319 42.5615 27.1862 42.3739 27.3738C42.1864 27.5613 41.932 27.6667 41.6668 27.6667H30.3335C30.0683 27.6667 29.8139 27.5613 29.6264 27.3738C29.4389 27.1862 29.3335 26.9319 29.3335 26.6667Z" stroke="#CC4B50" stroke-width="2" stroke-linecap="round"/>
<path d="M41.8335 50.1667L45.1668 53.5L53.5002 45.1667" stroke="#CC4B50" stroke-width="2" stroke-linecap="round" stroke-linejoin="round"/>
</svg>
