<svg width="72" height="72" viewBox="0 0 72 72" fill="none" xmlns="http://www.w3.org/2000/svg">
<circle cx="36" cy="36" r="36" fill="#CC4B50" fill-opacity="0.1"/>
<path d="M49.3332 37.6667V25.5817C49.3333 25.4501 49.3074 25.3198 49.2571 25.1983C49.2067 25.0767 49.1329 24.9663 49.0398 24.8733L43.7932 19.6267C43.6058 19.4391 43.3516 19.3336 43.0865 19.3333H23.6665C23.4013 19.3333 23.1469 19.4387 22.9594 19.6262C22.7719 19.8138 22.6665 20.0681 22.6665 20.3333V51.6667C22.6665 51.9319 22.7719 52.1862 22.9594 52.3738C23.1469 52.5613 23.4013 52.6667 23.6665 52.6667H39.3332" stroke="#CC4B50" stroke-width="2" stroke-linecap="round" stroke-linejoin="round"/>
<path d="M42.6665 19.3333V25C42.6665 25.2652 42.7719 25.5196 42.9594 25.7071C43.1469 25.8946 43.4013 26 43.6665 26H49.3332M42.6665 47.6667H52.6665M52.6665 47.6667L47.6665 42.6667M52.6665 47.6667L47.6665 52.6667" stroke="#CC4B50" stroke-width="2" stroke-linecap="round" stroke-linejoin="round"/>
</svg>
