<svg width="72" height="72" viewBox="0 0 72 72" fill="none" xmlns="http://www.w3.org/2000/svg">
<circle cx="36" cy="36" r="36" fill="#CC4B50" fill-opacity="0.1"/>
<path d="M36 30V20M52 24V48C52 49.0609 51.5786 50.0783 50.8284 50.8284C50.0783 51.5786 49.0609 52 48 52H24C22.9391 52 21.9217 51.5786 21.1716 50.8284C20.4214 50.0783 20 49.0609 20 48V24C20 22.9391 20.4214 21.9217 21.1716 21.1716C21.9217 20.4214 22.9391 20 24 20H48C49.0609 20 50.0783 20.4214 50.8284 21.1716C51.5786 21.9217 52 22.9391 52 24Z" stroke="#CC4B50" stroke-width="2" stroke-linecap="round" stroke-linejoin="round"/>
</svg>
