<svg width="49" height="48" viewBox="0 0 49 48" fill="none" xmlns="http://www.w3.org/2000/svg">
<path d="M4.5 40V38C4.5 34.287 5.975 30.726 8.6005 28.1005C11.226 25.475 14.787 24 18.5 24" stroke="#4BCC6D" stroke-width="3" stroke-linecap="round" stroke-linejoin="round"/>
<path d="M32.1079 24.626C32.4111 24.2932 32.7805 24.0273 33.1924 23.8454C33.6043 23.6634 34.0496 23.5695 34.4999 23.5695C34.9502 23.5695 35.3955 23.6634 35.8074 23.8454C36.2192 24.0273 36.5886 24.2932 36.8919 24.626C37.5419 25.34 38.4719 25.726 39.4359 25.68C39.8859 25.6589 40.3353 25.732 40.7554 25.8946C41.1755 26.0572 41.5571 26.3057 41.8756 26.6243C42.1942 26.9428 42.4427 27.3243 42.6053 27.7445C42.7679 28.1646 42.841 28.614 42.8199 29.064C42.7739 30.026 43.1599 30.958 43.8719 31.608C45.2819 32.892 45.2819 35.108 43.8719 36.392C43.1599 37.042 42.7739 37.972 42.8199 38.936C42.841 39.386 42.7679 39.8354 42.6053 40.2555C42.4427 40.6757 42.1942 41.0572 41.8756 41.3757C41.5571 41.6943 41.1755 41.9428 40.7554 42.1054C40.3353 42.268 39.8859 42.3411 39.4359 42.32C38.9606 42.2975 38.4862 42.3802 38.0464 42.562C37.6067 42.7438 37.2125 43.0204 36.8919 43.372C36.5886 43.7048 36.2192 43.9707 35.8074 44.1526C35.3955 44.3346 34.9502 44.4285 34.4999 44.4285C34.0496 44.4285 33.6043 44.3346 33.1924 44.1526C32.7805 43.9707 32.4111 43.7048 32.1079 43.372C31.7873 43.0204 31.3931 42.7438 30.9533 42.562C30.5136 42.3802 30.0392 42.2975 29.5639 42.32C29.1139 42.3411 28.6644 42.268 28.2443 42.1054C27.8242 41.9428 27.4427 41.6943 27.1241 41.3757C26.8056 41.0572 26.5571 40.6757 26.3945 40.2555C26.2319 39.8354 26.1588 39.386 26.1799 38.936C26.2021 38.4605 26.1192 37.986 25.937 37.5463C25.7548 37.1066 25.4778 36.7124 25.1259 36.392C24.793 36.0887 24.5272 35.7194 24.3452 35.3075C24.1633 34.8956 24.0693 34.4503 24.0693 34C24.0693 33.5497 24.1633 33.1044 24.3452 32.6925C24.5272 32.2806 24.793 31.9113 25.1259 31.608C25.8399 30.958 26.2259 30.028 26.1799 29.064C26.1588 28.614 26.2319 28.1646 26.3945 27.7445C26.5571 27.3243 26.8056 26.9428 27.1241 26.6243C27.4427 26.3057 27.8242 26.0572 28.2443 25.8946C28.6644 25.732 29.1139 25.6589 29.5639 25.68C30.5259 25.726 31.4579 25.34 32.1079 24.626Z" stroke="#4BCC6D" stroke-width="3"/>
<path d="M31.228 34L33.408 36.18L37.772 31.82M18.5 24C20.6217 24 22.6566 23.1571 24.1569 21.6569C25.6571 20.1566 26.5 18.1217 26.5 16C26.5 13.8783 25.6571 11.8434 24.1569 10.3431C22.6566 8.84285 20.6217 8 18.5 8C16.3783 8 14.3434 8.84285 12.8431 10.3431C11.3429 11.8434 10.5 13.8783 10.5 16C10.5 18.1217 11.3429 20.1566 12.8431 21.6569C14.3434 23.1571 16.3783 24 18.5 24Z" stroke="#4BCC6D" stroke-width="3" stroke-linecap="round" stroke-linejoin="round"/>
</svg>
