<svg width="48" height="48" viewBox="0 0 48 48" fill="none" xmlns="http://www.w3.org/2000/svg">
<mask id="mask0_201_885" style="mask-type:luminance" maskUnits="userSpaceOnUse" x="0" y="0" width="48" height="48">
<path d="M0 0H48V48H0V0Z" fill="white"/>
</mask>
<g mask="url(#mask0_201_885)">
<path d="M37.242 24.242L41.486 20M41.486 20L45.728 15.758M41.486 20L37.24 15.758M41.486 20L45.728 24.242M2 40V38C2 34.287 3.475 30.726 6.1005 28.1005C8.72601 25.475 12.287 24 16 24M16 24C19.713 24 23.274 25.475 25.8995 28.1005C28.525 30.726 30 34.287 30 38V40M16 24C18.1217 24 20.1566 23.1571 21.6569 21.6569C23.1571 20.1566 24 18.1217 24 16C24 13.8783 23.1571 11.8434 21.6569 10.3431C20.1566 8.84285 18.1217 8 16 8C13.8783 8 11.8434 8.84285 10.3431 10.3431C8.84285 11.8434 8 13.8783 8 16C8 18.1217 8.84285 20.1566 10.3431 21.6569C11.8434 23.1571 13.8783 24 16 24Z" stroke="#CC4B50" stroke-width="3" stroke-linecap="round" stroke-linejoin="round"/>
</g>
</svg>
