<svg width="49" height="48" viewBox="0 0 49 48" fill="none" xmlns="http://www.w3.org/2000/svg">
<path d="M38.5 32.25C37.492 34.23 35.816 35.952 33.682 37.252L34.652 40.452C34.7063 40.6313 34.7179 40.8208 34.6859 41.0053C34.6538 41.1899 34.579 41.3644 34.4674 41.5148C34.3559 41.6653 34.2106 41.7875 34.0433 41.8718C33.876 41.956 33.6913 41.9999 33.504 42H29.976C29.7164 42 29.4637 41.9158 29.256 41.76L26.466 39.666H21.592L18.802 41.76C18.5943 41.9158 18.3416 42 18.082 42H14.554C14.3667 41.9999 14.182 41.956 14.0147 41.8718C13.8474 41.7875 13.7021 41.6653 13.5906 41.5148C13.479 41.3644 13.4042 41.1899 13.3721 41.0053C13.3401 40.8208 13.3517 40.6313 13.406 40.452L14.376 37.252C10.796 35.07 8.5 31.698 8.5 27.916C8.5 21.336 15.452 16 24.03 16C25.768 16 27.94 16.596 29.5 17L38.5 14L38.332 21.256L42.5 23V30L38.648 32" stroke="#4BCC6D" stroke-width="3" stroke-linecap="round" stroke-linejoin="round"/>
<path d="M31.5 26C31.2348 26 30.9804 25.8946 30.7929 25.7071C30.6054 25.5196 30.5 25.2652 30.5 25C30.5 24.7348 30.6054 24.4804 30.7929 24.2929C30.9804 24.1054 31.2348 24 31.5 24C31.7652 24 32.0196 24.1054 32.2071 24.2929C32.3946 24.4804 32.5 24.7348 32.5 25C32.5 25.2652 32.3946 25.5196 32.2071 25.7071C32.0196 25.8946 31.7652 26 31.5 26Z" fill="#4BCC6D" stroke="#4BCC6D" stroke-width="3" stroke-linecap="round" stroke-linejoin="round"/>
<path d="M4.5 20C4.5 20 4.5 24.8 8.5 26" stroke="#4BCC6D" stroke-width="3" stroke-linecap="round" stroke-linejoin="round"/>
<path d="M26.1 15.506C26.36 14.762 26.5 13.962 26.5 13.13C26.5 9.192 23.366 6 19.5 6C15.634 6 12.5 9.192 12.5 13.13C12.5 15.012 13.216 16.726 14.388 18" stroke="#4BCC6D" stroke-width="3" stroke-linejoin="round"/>
</svg>
