<svg width="40" height="40" viewBox="0 0 40 40" fill="none" xmlns="http://www.w3.org/2000/svg">
<path d="M17.4998 7.5V15.2783C17.5002 15.4483 17.4572 15.6155 17.375 15.7642C17.2927 15.913 17.174 16.0383 17.0298 16.1283L4.6365 23.8733C4.49287 23.9631 4.37439 24.0879 4.29218 24.236C4.20997 24.3841 4.16673 24.5506 4.1665 24.72V26.22C4.1665 26.372 4.20116 26.5221 4.26785 26.6587C4.33455 26.7954 4.43152 26.915 4.55139 27.0085C4.67127 27.102 4.81089 27.167 4.95965 27.1984C5.1084 27.2299 5.26237 27.227 5.40984 27.19L16.2565 24.4767C16.404 24.4397 16.5579 24.4368 16.7067 24.4682C16.8554 24.4997 16.9951 24.5646 17.1149 24.6582C17.2348 24.7517 17.3318 24.8713 17.3985 25.008C17.4652 25.1446 17.4998 25.2946 17.4998 25.4467V30.38C17.4997 30.5224 17.4691 30.6631 17.4102 30.7927C17.3513 30.9224 17.2654 31.0379 17.1582 31.1317L13.5582 34.2817C12.7948 34.9517 13.3965 36.2 14.3948 36.0183L19.8215 35.0333C19.9394 35.012 20.0602 35.012 20.1782 35.0333L25.6048 36.0183C26.6032 36.2017 27.2048 34.9517 26.4415 34.2833L22.8415 31.1333C22.7341 31.0394 22.6481 30.9236 22.5891 30.7937C22.5302 30.6637 22.4998 30.5227 22.4998 30.38V25.4467C22.4999 25.2948 22.5345 25.145 22.6011 25.0085C22.6677 24.872 22.7645 24.7525 22.8842 24.659C23.0039 24.5655 23.1433 24.5005 23.2918 24.4689C23.4404 24.4373 23.5941 24.44 23.7415 24.4767L34.5915 27.19C34.7389 27.2267 34.8926 27.2294 35.0412 27.1978C35.1897 27.1662 35.3291 27.1012 35.4488 27.0077C35.5685 26.9142 35.6653 26.7947 35.7319 26.6582C35.7985 26.5217 35.8331 26.3719 35.8332 26.22V24.72C35.8329 24.5506 35.7897 24.3841 35.7075 24.236C35.6253 24.0879 35.5068 23.9631 35.3632 23.8733L22.9698 16.1267C22.826 16.0367 22.7073 15.9117 22.6251 15.7633C22.5429 15.6149 22.4998 15.448 22.4998 15.2783V7.5C22.4998 6.83696 22.2364 6.20107 21.7676 5.73223C21.2988 5.26339 20.6629 5 19.9998 5C19.3368 5 18.7009 5.26339 18.2321 5.73223C17.7632 6.20107 17.4998 6.83696 17.4998 7.5Z" stroke="#CC4B50" stroke-width="2" stroke-linecap="round" stroke-linejoin="round"/>
</svg>
