<svg width="64" height="64" viewBox="0 0 64 64" fill="none" xmlns="http://www.w3.org/2000/svg">
<path d="M13.3324 32.0002H26.6658V20.0002C26.6658 19.2929 26.3848 18.6146 25.8847 18.1145C25.3846 17.6144 24.7063 17.3335 23.9991 17.3335H13.3324C12.6252 17.3335 11.9469 17.6144 11.4468 18.1145C10.9467 18.6146 10.6658 19.2929 10.6658 20.0002V29.3335C10.6658 30.0407 10.9467 30.719 11.4468 31.2191C11.9469 31.7192 12.6252 32.0002 13.3324 32.0002Z" fill="#F5F5F5"/>
<path d="M39.9991 32.0002H53.3324V20.0002C53.3324 19.2929 53.0515 18.6146 52.5514 18.1145C52.0513 17.6144 51.373 17.3335 50.6658 17.3335H39.9991C39.2919 17.3335 38.6136 17.6144 38.1135 18.1145C37.6134 18.6146 37.3324 19.2929 37.3324 20.0002V29.3335C37.3324 30.0407 37.6134 30.719 38.1135 31.2191C38.6136 31.7192 39.2919 32.0002 39.9991 32.0002Z" fill="#F5F5F5"/>
<path d="M26.6658 32.0002H13.3324C12.6252 32.0002 11.9469 31.7192 11.4468 31.2191C10.9467 30.719 10.6658 30.0407 10.6658 29.3335V20.0002C10.6658 19.2929 10.9467 18.6146 11.4468 18.1145C11.9469 17.6144 12.6252 17.3335 13.3324 17.3335H23.9991C24.7063 17.3335 25.3846 17.6144 25.8847 18.1145C26.3848 18.6146 26.6658 19.2929 26.6658 20.0002V32.0002ZM26.6658 32.0002C26.6658 38.6668 23.9991 42.6668 15.9991 46.6668M53.3324 32.0002H39.9991C39.2919 32.0002 38.6136 31.7192 38.1135 31.2191C37.6134 30.719 37.3324 30.0407 37.3324 29.3335V20.0002C37.3324 19.2929 37.6134 18.6146 38.1135 18.1145C38.6136 17.6144 39.2919 17.3335 39.9991 17.3335H50.6658C51.373 17.3335 52.0513 17.6144 52.5514 18.1145C53.0515 18.6146 53.3324 19.2929 53.3324 20.0002V32.0002ZM53.3324 32.0002C53.3324 38.6668 50.6658 42.6668 42.6658 46.6668" stroke="#F5F5F5" stroke-width="3" stroke-linecap="round"/>
<path d="M13.3322 32.0002H26.6655V20.0002C26.6655 19.2929 26.3846 18.6146 25.8845 18.1145C25.3844 17.6144 24.7061 17.3335 23.9989 17.3335H13.3322C12.6249 17.3335 11.9467 17.6144 11.4466 18.1145C10.9465 18.6146 10.6655 19.2929 10.6655 20.0002V29.3335C10.6655 30.0407 10.9465 30.719 11.4466 31.2191C11.9467 31.7192 12.6249 32.0002 13.3322 32.0002Z" fill="#F5F5F5"/>
<path d="M39.9989 32.0002H53.3322V20.0002C53.3322 19.2929 53.0512 18.6146 52.5511 18.1145C52.051 17.6144 51.3728 17.3335 50.6655 17.3335H39.9989C39.2916 17.3335 38.6133 17.6144 38.1132 18.1145C37.6131 18.6146 37.3322 19.2929 37.3322 20.0002V29.3335C37.3322 30.0407 37.6131 30.719 38.1132 31.2191C38.6133 31.7192 39.2916 32.0002 39.9989 32.0002Z" fill="#F5F5F5"/>
<path d="M26.6655 32.0002H13.3322C12.6249 32.0002 11.9467 31.7192 11.4466 31.2191C10.9465 30.719 10.6655 30.0407 10.6655 29.3335V20.0002C10.6655 19.2929 10.9465 18.6146 11.4466 18.1145C11.9467 17.6144 12.6249 17.3335 13.3322 17.3335H23.9989C24.7061 17.3335 25.3844 17.6144 25.8845 18.1145C26.3846 18.6146 26.6655 19.2929 26.6655 20.0002V32.0002ZM26.6655 32.0002C26.6655 38.6668 23.9989 42.6668 15.9989 46.6668M53.3322 32.0002H39.9989C39.2916 32.0002 38.6133 31.7192 38.1132 31.2191C37.6131 30.719 37.3322 30.0407 37.3322 29.3335V20.0002C37.3322 19.2929 37.6131 18.6146 38.1132 18.1145C38.6133 17.6144 39.2916 17.3335 39.9989 17.3335H50.6655C51.3728 17.3335 52.051 17.6144 52.5511 18.1145C53.0512 18.6146 53.3322 19.2929 53.3322 20.0002V32.0002ZM53.3322 32.0002C53.3322 38.6668 50.6655 42.6668 42.6655 46.6668" stroke="#F5F5F5" stroke-width="5" stroke-linecap="round"/>
</svg>
