<svg width="40" height="40" viewBox="0 0 40 40" fill="none" xmlns="http://www.w3.org/2000/svg">
<g clip-path="url(#clip0_250_399)">
<path d="M1.6665 38.3333C2.88208 38.3333 4.04787 37.8402 4.90741 36.9623C5.76695 36.0845 6.24984 34.8939 6.24984 33.6525C6.24984 34.8939 6.73272 36.0845 7.59226 36.9623C8.45181 37.8402 9.6176 38.3333 10.8332 38.3333C12.0487 38.3333 13.2145 37.8402 14.0741 36.9623C14.9336 36.0845 15.4165 34.8939 15.4165 33.6525C15.4165 34.8939 15.8994 36.0845 16.7589 36.9623C17.6185 37.8402 18.7843 38.3333 19.9998 38.3333C21.2154 38.3333 22.3812 37.8402 23.2407 36.9623C24.1003 36.0845 24.5832 34.8939 24.5832 33.6525C24.5832 34.8939 25.0661 36.0845 25.9256 36.9623C26.7851 37.8402 27.9509 38.3333 29.1665 38.3333C30.3821 38.3333 31.5479 37.8402 32.4074 36.9623C33.267 36.0845 33.7498 34.8939 33.7498 33.6525C33.7498 34.8939 34.2327 36.0845 35.0923 36.9623C35.9518 37.8402 37.1176 38.3333 38.3332 38.3333M10.0693 17.6393V8.12765C10.0693 7.57537 10.517 7.12765 11.0693 7.12765H28.9304C29.4827 7.12765 29.9304 7.57537 29.9304 8.12765V17.6393M19.9998 1.66666V7.12765M10.0693 31.312C10.0693 31.0406 9.88595 30.1106 9.64303 29.0091C8.95859 25.8823 7.59275 22.9583 5.7472 20.3682L5.57376 20.1238C5.51664 20.0432 5.48595 19.947 5.48595 19.8482V19.8482C5.48595 19.7036 5.57203 19.5729 5.70487 19.5158L17.8869 14.2769C18.5131 14.0079 19.0475 13.5561 19.4234 12.9782C19.7992 12.4004 19.9998 11.7221 19.9998 11.0284M19.9998 11.0284C19.9998 12.4467 20.8325 13.7276 22.1128 14.2769L34.1529 19.4548C34.3781 19.5516 34.5829 19.7649 34.5137 20V20V20C34.428 20.2912 34.1611 20.4921 33.9894 20.7425C32.2777 23.2387 31.0083 26.0319 30.3551 29.0091C30.1153 30.1091 29.9304 31.0406 29.9304 31.312M19.9998 11.0284V31.312" stroke="#CC4B50" stroke-width="2" stroke-linecap="round"/>
</g>
<defs>
<clipPath id="clip0_250_399">
<rect width="40" height="40" fill="white"/>
</clipPath>
</defs>
</svg>
