<svg xmlns="http://www.w3.org/2000/svg">
	<symbol id="tg" viewBox="0 0 24 24" fill="none">
		<path d="M21 5L2 12.5L9 13.5M21 5L18.5 20L9 13.5M21 5L9 13.5M9 13.5V19L12.249 15.723" stroke="currentColor" stroke-width="1.5" stroke-linecap="round" stroke-linejoin="round"/>
	</symbol>
	<symbol id="chevron-left" viewBox="0 0 10 18" fill="none">
		<path d="M9 1L1 9L9 17" stroke="currentColor" stroke-width="2" stroke-linecap="round" stroke-linejoin="round"/>
	</symbol>
	<symbol id="chevron-right" viewBox="0 0 10 18" fill="none">
		<path d="M1 1L9 9L1 17" stroke="currentColor" stroke-width="2" stroke-linecap="round" stroke-linejoin="round"/>
	</symbol>
	<symbol id="close" viewBox="0 0 24 24" fill="none">
		<path d="M19.5459 17.9541C19.7572 18.1654 19.876 18.4521 19.876 18.751C19.876 19.0499 19.7572 19.3365 19.5459 19.5479C19.3346 19.7592 19.0479 19.8779 18.749 19.8779C18.4501 19.8779 18.1635 19.7592 17.9521 19.5479L12 13.5938L6.0459 19.546C5.83455 19.7573 5.54791 19.8761 5.24902 19.8761C4.95014 19.8761 4.66349 19.7573 4.45215 19.546C4.2408 19.3346 4.12207 19.048 4.12207 18.7491C4.12207 18.4502 4.2408 18.1636 4.45215 17.9522L10.4062 12L4.45402 6.04598C4.24268 5.83464 4.12395 5.54799 4.12395 5.2491C4.12395 4.95022 4.24268 4.66357 4.45402 4.45223C4.66537 4.24089 4.95201 4.12215 5.2509 4.12215C5.54978 4.12215 5.83643 4.24089 6.04777 4.45223L12 10.4063L17.954 4.45129C18.1654 4.23995 18.452 4.12122 18.7509 4.12122C19.0498 4.12122 19.3364 4.23995 19.5478 4.45129C19.7591 4.66264 19.8778 4.94928 19.8778 5.24817C19.8778 5.54705 19.7591 5.8337 19.5478 6.04504L13.5937 12L19.5459 17.9541Z" fill="currentColor"/>
	</symbol>
	<symbol id="file" viewBox="0 0 24 24" fill="none">
		<path d="M21.4383 11.662L12.2483 20.852C11.1225 21.9778 9.59552 22.6103 8.00334 22.6103C6.41115 22.6103 4.88418 21.9778 3.75834 20.852C2.63249 19.7261 2 18.1992 2 16.607C2 15.0148 2.63249 13.4878 3.75834 12.362L12.9483 3.17198C13.6989 2.42142 14.7169 1.99976 15.7783 1.99976C16.8398 1.99976 17.8578 2.42142 18.6083 3.17198C19.3589 3.92254 19.7806 4.94052 19.7806 6.00198C19.7806 7.06344 19.3589 8.08142 18.6083 8.83198L9.40834 18.022C9.22252 18.2078 9.00192 18.3552 8.75913 18.4558C8.51634 18.5563 8.25613 18.6081 7.99334 18.6081C7.73055 18.6081 7.47033 18.5563 7.22754 18.4558C6.98476 18.3552 6.76416 18.2078 6.57834 18.022C6.39252 17.8362 6.24512 17.6156 6.14455 17.3728C6.04398 17.13 5.99222 16.8698 5.99222 16.607C5.99222 16.3442 6.04398 16.084 6.14455 15.8412C6.24512 15.5984 6.39252 15.3778 6.57834 15.192L15.0683 6.71198" stroke="currentColor" stroke-width="1.5" stroke-linecap="round" stroke-linejoin="round"/>
	</symbol>
	<symbol id="wa" viewBox="0 0 24 24" fill="none">
		<path d="M4.53333 17.6L5.12933 17.8987L5.31333 17.5293L5.06667 17.2L4.53333 17.6ZM6.4 19.4667L6.8 18.9333L6.47067 18.6867L6.10133 18.8707L6.4 19.4667ZM2.66667 21.3333L2.07067 21.0347C2.00825 21.1597 1.98671 21.3012 2.00909 21.4392C2.03148 21.5771 2.09665 21.7045 2.1954 21.8034C2.29415 21.9023 2.42148 21.9677 2.55941 21.9903C2.69733 22.0129 2.83886 21.9916 2.964 21.9293L2.66667 21.3333ZM8 8L7.63067 7.44533C7.53927 7.50615 7.4643 7.58861 7.41243 7.68537C7.36056 7.78213 7.33339 7.89021 7.33333 8H8ZM16 16V16.6667C16.1098 16.6666 16.2179 16.6394 16.3146 16.5876C16.4114 16.5357 16.4938 16.4607 16.5547 16.3693L16 16ZM2 12C2 14.2507 2.744 16.3293 4 18L5.06667 17.2C3.93894 15.7012 3.33043 13.8757 3.33333 12H2ZM12 2C9.34784 2 6.8043 3.05357 4.92893 4.92893C3.05357 6.80429 2 9.34783 2 12H3.33333C3.33333 9.70145 4.24643 7.49705 5.87174 5.87174C7.49706 4.24642 9.70146 3.33333 12 3.33333V2ZM22 12C22 9.34783 20.9464 6.80429 19.0711 4.92893C17.1957 3.05357 14.6522 2 12 2V3.33333C13.1381 3.33333 14.2651 3.5575 15.3166 3.99304C16.3681 4.42858 17.3235 5.06697 18.1283 5.87174C18.933 6.67651 19.5714 7.63192 20.007 8.68341C20.4425 9.7349 20.6667 10.8619 20.6667 12H22ZM12 22C14.6522 22 17.1957 20.9464 19.0711 19.0711C20.9464 17.1957 22 14.6522 22 12H20.6667C20.6667 13.1381 20.4425 14.2651 20.007 15.3166C19.5714 16.3681 18.933 17.3235 18.1283 18.1283C17.3235 18.933 16.3681 19.5714 15.3166 20.0069C14.2651 20.4425 13.1381 20.6667 12 20.6667V22ZM6 20C7.7296 21.3008 9.83583 22.0029 12 22V20.6667C10.1243 20.6697 8.29876 20.0611 6.8 18.9333L6 20ZM2.964 21.9293L6.69733 20.0627L6.10133 18.8707L2.36667 20.7373L2.964 21.9293ZM3.936 17.3027L2.06933 21.036L3.26133 21.632L5.12933 17.8987L3.936 17.3027ZM7.33333 8V9.33333H8.66667V8H7.33333ZM14.6667 16.6667H16V15.3333H14.6667V16.6667ZM7.33333 9.33333C7.33333 11.2783 8.10595 13.1435 9.48122 14.5188C10.8565 15.894 12.7217 16.6667 14.6667 16.6667V15.3333C13.0754 15.3333 11.5492 14.7012 10.424 13.576C9.29881 12.4508 8.66667 10.9246 8.66667 9.33333H7.33333ZM8.36933 8.55466L8.65467 8.36533L7.91467 7.256L7.63067 7.44533L8.36933 8.55466ZM9.68133 8.81066L9.868 9.92533L11.1827 9.70666L10.996 8.59066L9.68133 8.81066ZM9.58 10.5907L8.29733 11.4453L9.036 12.5547L10.3187 11.7L9.58 10.5907ZM9.868 9.92533C9.8893 10.0522 9.87345 10.1825 9.82235 10.3006C9.77125 10.4186 9.68708 10.5194 9.58 10.5907L10.3187 11.7C10.6394 11.4863 10.8916 11.1845 11.0449 10.8309C11.1982 10.4772 11.246 10.0868 11.1827 9.70666L9.868 9.92533ZM8.65467 8.36533C8.74731 8.30374 8.85388 8.26631 8.96469 8.25645C9.0755 8.24659 9.18701 8.26462 9.28907 8.30888C9.39113 8.35315 9.48048 8.42226 9.549 8.5099C9.61751 8.59754 9.66301 8.70094 9.68133 8.81066L10.996 8.59066C10.9409 8.26139 10.8043 7.95114 10.5986 7.6882C10.3929 7.42526 10.1247 7.218 9.81832 7.08531C9.51198 6.95262 9.17729 6.89873 8.84478 6.92854C8.51227 6.95835 8.19252 7.07093 7.91467 7.256L8.65467 8.36533ZM16.5547 16.3693L16.744 16.0853L15.6347 15.3453L15.4453 15.6307L16.5547 16.3693ZM15.408 13.004L14.2933 12.8173L14.0747 14.1333L15.1893 14.3187L15.4093 13.004H15.408ZM12.3 13.6813L11.4453 14.964L12.5547 15.7027L13.4093 14.42L12.3 13.6813ZM14.2933 12.8173C13.9132 12.754 13.5228 12.8018 13.1691 12.9551C12.8155 13.1084 12.5137 13.3606 12.3 13.6813L13.4093 14.42C13.4806 14.3129 13.5814 14.2288 13.6994 14.1776C13.8175 14.1265 13.9478 14.1107 14.0747 14.132L14.2933 12.8173ZM16.744 16.0853C16.9291 15.8075 17.0416 15.4877 17.0715 15.1552C17.1013 14.8227 17.0474 14.488 16.9147 14.1817C16.782 13.8753 16.5747 13.6071 16.3118 13.4014C16.0489 13.1957 15.7386 13.0591 15.4093 13.004L15.1893 14.3187C15.2991 14.337 15.4025 14.3825 15.4901 14.451C15.5777 14.5195 15.6468 14.6089 15.6911 14.7109C15.7354 14.813 15.7534 14.9245 15.7435 15.0353C15.7337 15.1461 15.6963 15.2527 15.6347 15.3453L16.744 16.0853Z" fill="currentColor"/>
	</symbol>
</svg>