<svg xmlns="http://www.w3.org/2000/svg">
	<symbol id="tg" viewBox="0 0 24 24" fill="none">
		<path d="M21 5L2 12.5L9 13.5M21 5L18.5 20L9 13.5M21 5L9 13.5M9 13.5V19L12.249 15.723" stroke="currentColor" stroke-width="1.5" stroke-linecap="round" stroke-linejoin="round"/>
	</symbol>
	<symbol id="chevron-left" viewBox="0 0 10 18" fill="none">
		<path d="M9 1L1 9L9 17" stroke="currentColor" stroke-width="2" stroke-linecap="round" stroke-linejoin="round"/>
	</symbol>
	<symbol id="chevron-right" viewBox="0 0 10 18" fill="none">
		<path d="M1 1L9 9L1 17" stroke="currentColor" stroke-width="2" stroke-linecap="round" stroke-linejoin="round"/>
	</symbol>
	<symbol id="close" viewBox="0 0 24 24" fill="none">
		<path d="M19.5459 17.9541C19.7572 18.1654 19.876 18.4521 19.876 18.751C19.876 19.0499 19.7572 19.3365 19.5459 19.5479C19.3346 19.7592 19.0479 19.8779 18.749 19.8779C18.4501 19.8779 18.1635 19.7592 17.9521 19.5479L12 13.5938L6.0459 19.546C5.83455 19.7573 5.54791 19.8761 5.24902 19.8761C4.95014 19.8761 4.66349 19.7573 4.45215 19.546C4.2408 19.3346 4.12207 19.048 4.12207 18.7491C4.12207 18.4502 4.2408 18.1636 4.45215 17.9522L10.4062 12L4.45402 6.04598C4.24268 5.83464 4.12395 5.54799 4.12395 5.2491C4.12395 4.95022 4.24268 4.66357 4.45402 4.45223C4.66537 4.24089 4.95201 4.12215 5.2509 4.12215C5.54978 4.12215 5.83643 4.24089 6.04777 4.45223L12 10.4063L17.954 4.45129C18.1654 4.23995 18.452 4.12122 18.7509 4.12122C19.0498 4.12122 19.3364 4.23995 19.5478 4.45129C19.7591 4.66264 19.8778 4.94928 19.8778 5.24817C19.8778 5.54705 19.7591 5.8337 19.5478 6.04504L13.5937 12L19.5459 17.9541Z" fill="currentColor"/>
	</symbol>
	<symbol id="file" viewBox="0 0 24 24" fill="none">
		<path d="M21.4383 11.662L12.2483 20.852C11.1225 21.9778 9.59552 22.6103 8.00334 22.6103C6.41115 22.6103 4.88418 21.9778 3.75834 20.852C2.63249 19.7261 2 18.1992 2 16.607C2 15.0148 2.63249 13.4878 3.75834 12.362L12.9483 3.17198C13.6989 2.42142 14.7169 1.99976 15.7783 1.99976C16.8398 1.99976 17.8578 2.42142 18.6083 3.17198C19.3589 3.92254 19.7806 4.94052 19.7806 6.00198C19.7806 7.06344 19.3589 8.08142 18.6083 8.83198L9.40834 18.022C9.22252 18.2078 9.00192 18.3552 8.75913 18.4558C8.51634 18.5563 8.25613 18.6081 7.99334 18.6081C7.73055 18.6081 7.47033 18.5563 7.22754 18.4558C6.98476 18.3552 6.76416 18.2078 6.57834 18.022C6.39252 17.8362 6.24512 17.6156 6.14455 17.3728C6.04398 17.13 5.99222 16.8698 5.99222 16.607C5.99222 16.3442 6.04398 16.084 6.14455 15.8412C6.24512 15.5984 6.39252 15.3778 6.57834 15.192L15.0683 6.71198" stroke="currentColor" stroke-width="1.5" stroke-linecap="round" stroke-linejoin="round"/>
	</symbol>
	<symbol id="ig" viewBox="0 0 24 24" fill="none">
		<path d="M12 16C13.0609 16 14.0783 15.5786 14.8284 14.8284C15.5786 14.0783 16 13.0609 16 12C16 10.9391 15.5786 9.92172 14.8284 9.17157C14.0783 8.42143 13.0609 8 12 8C10.9391 8 9.92172 8.42143 9.17157 9.17157C8.42143 9.92172 8 10.9391 8 12C8 13.0609 8.42143 14.0783 9.17157 14.8284C9.92172 15.5786 10.9391 16 12 16Z" stroke="currentColor" stroke-width="1.5" stroke-linecap="round" stroke-linejoin="round"/>
		<path d="M3 16V8C3 6.67392 3.52678 5.40215 4.46447 4.46447C5.40215 3.52678 6.67392 3 8 3H16C17.3261 3 18.5979 3.52678 19.5355 4.46447C20.4732 5.40215 21 6.67392 21 8V16C21 17.3261 20.4732 18.5979 19.5355 19.5355C18.5979 20.4732 17.3261 21 16 21H8C6.67392 21 5.40215 20.4732 4.46447 19.5355C3.52678 18.5979 3 17.3261 3 16Z" stroke="currentColor" stroke-width="1.5"/>
		<path d="M17.5 6.51002L17.51 6.49902" stroke="currentColor" stroke-width="1.5" stroke-linecap="round" stroke-linejoin="round"/>
	</symbol>
	<symbol id="fb" viewBox="0 0 24 24" fill="none">
		<path d="M21 8V16C21 17.3261 20.4732 18.5979 19.5355 19.5355C18.5979 20.4732 17.3261 21 16 21H8C6.67392 21 5.40215 20.4732 4.46447 19.5355C3.52678 18.5979 3 17.3261 3 16V8C3 6.67392 3.52678 5.40215 4.46447 4.46447C5.40215 3.52678 6.67392 3 8 3H16C17.3261 3 18.5979 3.52678 19.5355 4.46447C20.4732 5.40215 21 6.67392 21 8Z" stroke="currentColor" stroke-width="1.5" stroke-linecap="round" stroke-linejoin="round"/>
		<path d="M11 21V12C11 9.812 11.5 8 15 8M9 13H15" stroke="currentColor" stroke-width="1.5" stroke-linecap="round" stroke-linejoin="round"/>
	</symbol>
</svg>