<svg width="40" height="40" viewBox="0 0 40 40" fill="none" xmlns="http://www.w3.org/2000/svg">
<path d="M16.0148 11.6667H23.9848C25.1381 11.6667 26.2441 12.1248 27.0596 12.9403C27.875 13.7557 28.3332 14.8617 28.3332 16.015C28.3332 16.1878 28.2645 16.3536 28.1423 16.4758C28.0201 16.598 27.8543 16.6667 27.6815 16.6667H12.3165C12.144 16.6662 11.9786 16.5974 11.8568 16.4752C11.7349 16.353 11.6665 16.1875 11.6665 16.015C11.6665 14.8617 12.1246 13.7557 12.9401 12.9403C13.7556 12.1248 14.8616 11.6667 16.0148 11.6667Z" stroke="#CC4B50" stroke-width="2" stroke-linecap="round" stroke-linejoin="round"/>
<path d="M26.6667 25.0167L26.6833 24.9983M13.3333 25.0167L13.35 24.9983M15 5H25C27.6522 5 30.1957 6.05357 32.0711 7.92893C33.9464 9.8043 35 12.3478 35 15V21.6667C35 24.3188 33.9464 26.8624 32.0711 28.7377C30.1957 30.6131 27.6522 31.6667 25 31.6667H15C12.3478 31.6667 9.8043 30.6131 7.92893 28.7377C6.05357 26.8624 5 24.3188 5 21.6667V15C5 12.3478 6.05357 9.8043 7.92893 7.92893C9.8043 6.05357 12.3478 5 15 5Z" stroke="#CC4B50" stroke-width="2" stroke-linecap="round" stroke-linejoin="round"/>
<path d="M17.4998 31.6667L14.1665 35.8333M22.4998 31.6667L25.8332 35.8333M27.4998 31.6667L30.8332 35.8333M12.4998 31.6667L9.1665 35.8333" stroke="#CC4B50" stroke-width="2" stroke-linecap="round"/>
</svg>
