<svg width="130" height="35" viewBox="0 0 130 35" fill="none" xmlns="http://www.w3.org/2000/svg"><path d="M21.5719 19.3772C21.6466 18.0414 22.2991 16.8645 23.2835 16.0302C24.2489 15.2108 25.5482 14.71 26.966 14.71C28.3823 14.71 29.6817 15.2108 30.6478 16.0302C31.6315 16.8645 32.2839 18.0415 32.3593 19.3758C32.4341 20.7484 31.8837 22.0235 30.9184 22.9686C29.934 23.9301 28.5338 24.5334 26.966 24.5334C25.3981 24.5334 23.9952 23.9301 23.0115 22.9686C22.0454 22.0235 21.4965 20.7484 21.5719 19.3772Z" fill="white"/><path d="M12.9822 22.0828C12.9914 22.6055 13.1577 23.6213 13.4071 24.4147C13.9314 26.0938 14.8206 27.6471 16.058 29.0162C17.3278 30.4233 18.8914 31.5537 20.6974 32.3562C22.5958 33.1989 24.6526 33.6284 26.7891 33.6248C28.9221 33.622 30.9789 33.184 32.8773 32.3349C34.6833 31.5247 36.2455 30.3895 37.5131 28.9816C38.7498 27.6069 39.6377 26.0507 40.1633 24.3715C40.4276 23.5231 40.5946 22.662 40.6615 21.7981C40.7271 20.9469 40.6996 20.0942 40.5791 19.2422C40.3437 17.5822 39.7708 16.0245 38.8886 14.6047C38.0818 13.2999 37.0418 12.1577 35.8051 11.1963L35.8079 11.1941L23.3278 1.58759C23.3166 1.57911 23.3075 1.56994 23.2955 1.56217C22.4767 0.932054 21.0997 0.934179 20.1993 1.56571C19.2888 2.20431 19.1845 3.26038 19.9949 3.92653L19.9914 3.93006L25.1966 8.17353L9.33145 8.19046H9.31031C7.99895 8.19186 6.73836 9.05438 6.4889 10.1443C6.2324 11.2549 7.1231 12.176 8.48657 12.181L8.48448 12.1859L16.5259 12.1704L2.17644 23.2123C2.15812 23.2258 2.13838 23.2399 2.12147 23.2533C0.767842 24.2924 0.330266 26.0203 1.18289 27.1138C2.0482 28.2257 3.88803 28.2278 5.25576 27.1202L13.0872 20.6947C13.0872 20.6947 12.973 21.5621 12.9822 22.0828ZM33.1063 24.9875C31.4926 26.6356 29.2335 27.5702 26.7891 27.5751C24.3412 27.5794 22.082 26.6533 20.4684 25.008C19.6799 24.2063 19.1007 23.2837 18.7434 22.3011C18.3932 21.3354 18.2572 20.3104 18.3474 19.2762C18.4327 18.2653 18.7328 17.301 19.212 16.4286C19.6828 15.5711 20.331 14.7961 21.1315 14.1406C22.7001 12.8591 24.697 12.1654 26.7856 12.1626C28.8763 12.1598 30.8718 12.8471 32.4418 14.1243C33.2408 14.777 33.8884 15.5492 34.3592 16.4053C34.8405 17.277 35.1385 18.2377 35.2273 19.2515C35.3161 20.2842 35.1801 21.3078 34.8299 22.2742C34.4719 23.2597 33.8948 24.1822 33.1063 24.9875Z" fill="white"/><path d="M107.074 19.3563C107.194 18.0085 108.234 17.1538 109.821 17.1538C111.411 17.1538 112.449 18.0085 112.57 19.3563H107.074ZM112.407 22.6843C112.001 23.6831 111.043 24.2744 109.741 24.2744C108.111 24.2744 107.014 23.2543 106.969 21.643H116.339V21.169C116.339 17.1326 113.976 14.8643 109.741 14.8643C105.629 14.8643 103.142 17.1538 103.142 20.7444C103.142 24.357 105.668 26.643 109.741 26.643C112.185 26.643 114.081 25.8031 115.249 24.3267L112.407 22.6843Z" fill="white"/><path d="M65.4996 19.3634C65.624 18.0156 66.6631 17.1608 68.2519 17.1608C69.8388 17.1608 70.8773 18.0156 70.9992 19.3634H65.4996ZM70.8367 22.6913C70.4292 23.693 69.4719 24.2843 68.1675 24.2843C66.5406 24.2843 65.4405 23.2614 65.3974 21.6493H74.7652V21.1782C74.7652 17.1396 72.4026 14.8706 68.1675 14.8706C64.0529 14.8706 61.5713 17.1608 61.5713 20.7515C61.5713 24.3641 64.0955 26.6501 68.1675 26.6501C70.6113 26.6501 72.508 25.8129 73.6785 24.3344L70.8367 22.6913Z" fill="white"/><path d="M60.7327 12.4263H57.3539V26.284H60.7327V12.4263Z" fill="white"/><path d="M75.6044 16.1068H79.0023V16.9319C80.2052 15.6448 81.6493 14.9941 83.2787 14.9941C85.1551 14.9941 86.5757 15.6448 87.3095 16.7524C87.9214 17.6672 87.962 18.7713 87.962 20.2223V26.2827H84.559V20.9577C84.559 18.7481 84.116 17.728 82.1806 17.728C80.2255 17.728 79.0023 18.8957 79.0023 20.8559V26.2827H75.6044V16.1068Z" fill="white"/><path d="M98.9073 20.9172C98.9073 22.8139 97.6428 24.0579 95.6871 24.0579C93.7295 24.0579 92.465 22.8563 92.465 20.9391C92.465 18.9936 93.7124 17.7928 95.6871 17.7928C97.6428 17.7928 98.9073 19.0148 98.9073 20.9172ZM98.9073 16.5678C98.0478 15.6445 96.8049 15.138 95.0771 15.138C91.3498 15.138 88.8044 17.4424 88.8044 20.896C88.8044 24.2818 91.332 26.6504 95.0162 26.6504C96.7053 26.6504 97.945 26.2224 98.9073 25.2623V26.2824H102.307V11.5459L98.9073 12.4247V16.5678Z" fill="white"/><path d="M49.631 17.7951C51.6068 17.7951 52.8491 18.996 52.8491 20.9415C52.8491 22.8587 51.5871 24.0603 49.631 24.0603C47.6763 24.0603 46.4136 22.8163 46.4136 20.9196C46.4136 19.0172 47.6763 17.7951 49.631 17.7951ZM46.4136 12.4271L43.0122 11.5483V26.2848H46.4136V25.2648C47.3705 26.2248 48.6128 26.6529 50.3032 26.6529C53.9892 26.6529 56.5133 24.2843 56.5133 20.8984C56.5133 17.4448 53.9674 15.1404 50.2419 15.1404C48.5106 15.1404 47.2683 15.6469 46.4136 16.5702V12.4271Z" fill="white"/><path d="M117.178 26.286V16.1102H120.578V16.7388C121.597 15.5097 122.674 14.8979 123.899 14.8979C124.142 14.8979 124.448 14.9375 124.855 14.9777V17.879C124.527 17.8359 124.162 17.8359 123.775 17.8359C121.798 17.8359 120.578 19.1428 120.578 21.3651V26.286H117.178Z" fill="white"/></svg>