<svg width="370" height="201" viewBox="0 0 370 201" fill="none" xmlns="http://www.w3.org/2000/svg"><g clip-path="url(#clip0_3_2053)"><mask id="mask0_3_2053" style="mask-type:luminance" maskUnits="userSpaceOnUse" x="0" y="0" width="370" height="201"><path d="M370 0H0V201H370V0Z" fill="white"/></mask><g mask="url(#mask0_3_2053)"><path opacity="0.497559" d="M364.645 0.485504H5.35524C2.66649 0.485504 0.486816 2.6592 0.486816 5.34058V195.659C0.486816 198.34 2.66649 200.514 5.35524 200.514H364.645C367.333 200.514 369.513 198.34 369.513 195.659V5.34058C369.513 2.6592 367.333 0.485504 364.645 0.485504Z" stroke="#CFF64A"/><path opacity="0.253976" d="M0 18.4493H41.4895C42.9223 18.4493 44.2394 17.6647 44.9187 16.4066L49.5287 7.86871C50.2079 6.61062 51.525 5.82608 52.9579 5.82608H134.14C135.492 5.82608 136.747 6.52581 137.456 7.67451L142.965 16.6008C143.674 17.7496 144.929 18.4493 146.281 18.4493H370" stroke="#CFF64A"/><g opacity="0.253976"><path d="M130.96 11.1667L133.992 14.1892" stroke="#CFF64A" stroke-linecap="round"/><path d="M133.882 11.1667L130.85 14.1892" stroke="#CFF64A" stroke-linecap="round"/></g><path opacity="0.253976" d="M10.7106 13.1087C12.0549 13.1087 13.1448 12.0218 13.1448 10.6812C13.1448 9.34046 12.0549 8.25362 10.7106 8.25362C9.3662 8.25362 8.27637 9.34046 8.27637 10.6812C8.27637 12.0218 9.3662 13.1087 10.7106 13.1087Z" stroke="#CFF64A"/><path opacity="0.253976" d="M22.3948 13.1087C23.7391 13.1087 24.829 12.0218 24.829 10.6812C24.829 9.34046 23.7391 8.25362 22.3948 8.25362C21.0504 8.25362 19.9606 9.34046 19.9606 10.6812C19.9606 12.0218 21.0504 13.1087 22.3948 13.1087Z" stroke="#CFF64A"/><path opacity="0.253976" d="M33.1052 13.1087C34.4496 13.1087 35.5394 12.0218 35.5394 10.6812C35.5394 9.34046 34.4496 8.25362 33.1052 8.25362C31.7609 8.25362 30.671 9.34046 30.671 10.6812C30.671 12.0218 31.7609 13.1087 33.1052 13.1087Z" stroke="#CFF64A"/><g opacity="0.501465"><g opacity="0.49907"><path d="M37 26.2174L42.8421 32.0435" stroke="#CFF64A" stroke-linecap="round"/><path d="M42.8421 26.2174L37 32.0435" stroke="#CFF64A" stroke-linecap="round"/><path d="M21.421 29.1304H29.2105" stroke="#CFF64A" stroke-linecap="round"/><path d="M27.2632 26.2174L29.2106 29.1304L27.2632 32.0435" stroke="#CFF64A" stroke-linecap="round"/><path d="M16.5527 29.1304H8.76318" stroke="#CFF64A" stroke-linecap="round"/><path d="M10.7106 26.2174L8.76318 29.1304L10.7106 32.0435" stroke="#CFF64A" stroke-linecap="round"/></g><path opacity="0.25279" d="M345.658 23.3044H56.4737C54.8604 23.3044 53.5526 24.6085 53.5526 26.2174V31.0725C53.5526 32.6813 54.8604 33.9855 56.4737 33.9855H345.658C347.271 33.9855 348.579 32.6813 348.579 31.0725V26.2174C348.579 24.6085 347.271 23.3044 345.658 23.3044Z" fill="#CFF64A"/><g opacity="0.49907"><path d="M359.289 26.2174C359.827 26.2174 360.263 25.7827 360.263 25.2464C360.263 24.7101 359.827 24.2754 359.289 24.2754C358.752 24.2754 358.316 24.7101 358.316 25.2464C358.316 25.7827 358.752 26.2174 359.289 26.2174Z" fill="#CFF64A"/><path d="M359.289 29.1304C359.827 29.1304 360.263 28.6957 360.263 28.1594C360.263 27.6231 359.827 27.1884 359.289 27.1884C358.752 27.1884 358.316 27.6231 358.316 28.1594C358.316 28.6957 358.752 29.1304 359.289 29.1304Z" fill="#CFF64A"/><path d="M359.289 32.0435C359.827 32.0435 360.263 31.6087 360.263 31.0725C360.263 30.5362 359.827 30.1014 359.289 30.1014C358.752 30.1014 358.316 30.5362 358.316 31.0725C358.316 31.6087 358.752 32.0435 359.289 32.0435Z" fill="#CFF64A"/></g></g><path opacity="0.253976" d="M0.973633 38.8406H370" stroke="#CFF64A"/><g opacity="0.501651"><path d="M78.8685 46.1232H10.7106C9.3662 46.1232 8.27637 47.21 8.27637 48.5507V63.1159C8.27637 64.4566 9.3662 65.5435 10.7106 65.5435H78.8685C80.2128 65.5435 81.3027 64.4566 81.3027 63.1159V48.5507C81.3027 47.21 80.2128 46.1232 78.8685 46.1232Z" stroke="#CFF64A"/><path d="M18.0128 52.17V59.2319H17.1552V53.0665H17.1138L15.3849 54.2112V53.3424L17.1552 52.17H18.0128ZM20.2395 59.287C20.0689 59.287 19.9225 59.2262 19.8004 59.1043C19.6783 58.9824 19.6171 58.8365 19.6171 58.6664C19.6171 58.4962 19.6783 58.3503 19.8004 58.2284C19.9225 58.1066 20.0689 58.0457 20.2395 58.0457C20.4101 58.0457 20.5565 58.1066 20.6786 58.2284C20.8008 58.3503 20.8619 58.4962 20.8619 58.6664C20.8619 58.779 20.833 58.8825 20.7755 58.9767C20.7201 59.071 20.6452 59.1468 20.5507 59.2043C20.4585 59.2595 20.3548 59.287 20.2395 59.287Z" fill="#CFF64A"/><path d="M59.8816 54.3768H29.6974C29.4286 54.3768 29.2106 54.5942 29.2106 54.8623C29.2106 55.1304 29.4286 55.3478 29.6974 55.3478H59.8816C60.1505 55.3478 60.3685 55.1304 60.3685 54.8623C60.3685 54.5942 60.1505 54.3768 59.8816 54.3768Z" fill="#CFF64A"/><path d="M68.158 54.3768L71.3642 57.5743C71.7444 57.9534 72.361 57.9534 72.7412 57.5743L75.9474 54.3768" stroke="#CFF64A" stroke-linecap="round"/></g><g opacity="0.247838"><path d="M78.8685 118.949H10.7106C9.3662 118.949 8.27637 120.036 8.27637 121.377V135.942C8.27637 137.283 9.3662 138.37 10.7106 138.37H78.8685C80.2128 138.37 81.3027 137.283 81.3027 135.942V121.377C81.3027 120.036 80.2128 118.949 78.8685 118.949Z" stroke="#CFF64A"/><path d="M15.1724 130.61V129.906L18.2843 124.996H18.796V126.085H18.4503L16.099 129.796V129.851H20.2898V130.61H15.1724ZM18.5056 132.058V130.396V130.068V124.996H19.3216V132.058H18.5056ZM21.8613 132.113C21.6907 132.113 21.5443 132.052 21.4222 131.931C21.3 131.808 21.2389 131.663 21.2389 131.493C21.2389 131.322 21.3 131.176 21.4222 131.055C21.5443 130.933 21.6907 130.871 21.8613 130.871C22.0318 130.871 22.1782 130.933 22.3004 131.055C22.4225 131.176 22.4837 131.322 22.4837 131.493C22.4837 131.605 22.4548 131.708 22.3972 131.803C22.3419 131.897 22.2669 131.973 22.1725 132.031C22.0803 132.085 21.9765 132.113 21.8613 132.113Z" fill="#CFF64A"/><path d="M59.8816 127.203H29.6974C29.4286 127.203 29.2106 127.42 29.2106 127.688C29.2106 127.956 29.4286 128.174 29.6974 128.174H59.8816C60.1505 128.174 60.3685 127.956 60.3685 127.688C60.3685 127.42 60.1505 127.203 59.8816 127.203Z" fill="#CFF64A"/><path d="M68.158 127.203L71.3642 130.4C71.7444 130.779 72.361 130.779 72.7412 130.4L75.9474 127.203" stroke="#CFF64A" stroke-linecap="round"/></g><g opacity="0.247838"><path d="M78.8685 70.3985H10.7106C9.3662 70.3985 8.27637 71.4854 8.27637 72.8261V87.3913C8.27637 88.732 9.3662 89.8188 10.7106 89.8188H78.8685C80.2128 89.8188 81.3027 88.732 81.3027 87.3913V72.8261C81.3027 71.4854 80.2128 70.3985 78.8685 70.3985Z" stroke="#CFF64A"/><path d="M15.3383 83.5072V82.8866L17.6757 80.3349C17.95 80.0361 18.1759 79.7763 18.3534 79.5556C18.5309 79.3326 18.6623 79.1234 18.7476 78.928C18.8351 78.7303 18.879 78.5234 18.879 78.3074C18.879 78.0591 18.8191 77.8442 18.6991 77.6625C18.5816 77.4809 18.4203 77.3407 18.2151 77.2419C18.0099 77.143 17.7794 77.0936 17.5236 77.0936C17.2515 77.0936 17.0142 77.1499 16.8112 77.2625C16.6108 77.3729 16.4552 77.528 16.3445 77.7281C16.2362 77.9281 16.182 78.1625 16.182 78.4315H15.3659C15.3659 78.0177 15.4616 77.6544 15.653 77.3419C15.8443 77.0292 16.1047 76.7856 16.4344 76.6108C16.7664 76.4361 17.1386 76.3487 17.5512 76.3487C17.9661 76.3487 18.3338 76.4361 18.6542 76.6108C18.9747 76.7856 19.2259 77.0212 19.408 77.3177C19.5901 77.6142 19.6812 77.9441 19.6812 78.3074C19.6812 78.5671 19.6339 78.8211 19.5394 79.0694C19.4472 79.3154 19.2859 79.5901 19.0553 79.8935C18.8271 80.1946 18.5101 80.5624 18.1045 80.997L16.5139 82.6934V82.7487H19.8056V83.5072H15.3383ZM21.8422 83.5624C21.6716 83.5624 21.5252 83.5015 21.403 83.3796C21.2809 83.2578 21.2198 83.1118 21.2198 82.9417C21.2198 82.7716 21.2809 82.6257 21.403 82.5038C21.5252 82.3819 21.6716 82.321 21.8422 82.321C22.0128 82.321 22.1591 82.3819 22.2813 82.5038C22.4035 82.6257 22.4646 82.7716 22.4646 82.9417C22.4646 83.0544 22.4357 83.1579 22.3782 83.2521C22.3228 83.3463 22.2479 83.4222 22.1534 83.4797C22.0612 83.5348 21.9575 83.5624 21.8422 83.5624Z" fill="#CFF64A"/><path d="M59.8816 78.6522H29.6974C29.4286 78.6522 29.2106 78.8696 29.2106 79.1377C29.2106 79.4058 29.4286 79.6232 29.6974 79.6232H59.8816C60.1505 79.6232 60.3685 79.4058 60.3685 79.1377C60.3685 78.8696 60.1505 78.6522 59.8816 78.6522Z" fill="#CFF64A"/><path d="M68.158 78.6522L71.3642 81.8496C71.7444 82.2288 72.361 82.2288 72.7412 81.8496L75.9474 78.6522" stroke="#CFF64A" stroke-linecap="round"/></g><g opacity="0.247838"><path d="M78.8685 143.225H10.7106C9.3662 143.225 8.27637 144.311 8.27637 145.652V160.217C8.27637 161.558 9.3662 162.645 10.7106 162.645H78.8685C80.2128 162.645 81.3027 161.558 81.3027 160.217V145.652C81.3027 144.311 80.2128 143.225 78.8685 143.225Z" stroke="#CFF64A"/><path d="M17.5513 156.429C17.1456 156.429 16.7803 156.35 16.4553 156.189C16.1302 156.027 15.8697 155.807 15.6738 155.526C15.4779 155.246 15.3707 154.926 15.3522 154.568H16.182C16.2144 154.887 16.3595 155.152 16.6178 155.361C16.8782 155.568 17.1894 155.671 17.5513 155.671C17.8418 155.671 18.0999 155.603 18.3258 155.468C18.554 155.332 18.7327 155.146 18.8617 154.909C18.9932 154.67 19.0589 154.4 19.0589 154.099C19.0589 153.791 18.9908 153.516 18.8548 153.275C18.7211 153.031 18.5367 152.84 18.3017 152.699C18.0665 152.559 17.798 152.487 17.496 152.485C17.2793 152.483 17.0569 152.516 16.8287 152.585C16.6004 152.652 16.4126 152.738 16.265 152.844L15.4629 152.747L15.8916 149.271H19.5706V150.03H16.6109L16.3619 152.112H16.4034C16.5485 151.998 16.7307 151.903 16.9497 151.827C17.1687 151.751 17.3969 151.712 17.6343 151.712C18.0677 151.712 18.4537 151.816 18.7926 152.023C19.1338 152.228 19.4011 152.508 19.5948 152.865C19.7907 153.221 19.8887 153.628 19.8887 154.085C19.8887 154.536 19.7873 154.938 19.5844 155.292C19.3839 155.644 19.1073 155.922 18.7546 156.127C18.4018 156.328 18.0008 156.429 17.5513 156.429ZM21.6046 156.389C21.434 156.389 21.2877 156.328 21.1655 156.206C21.0433 156.084 20.9822 155.938 20.9822 155.768C20.9822 155.597 21.0433 155.452 21.1655 155.33C21.2877 155.208 21.434 155.147 21.6046 155.147C21.7752 155.147 21.9215 155.208 22.0437 155.33C22.1659 155.452 22.227 155.597 22.227 155.768C22.227 155.881 22.1981 155.984 22.1405 156.078C22.0852 156.172 22.0103 156.248 21.9158 156.306C21.8236 156.361 21.7199 156.389 21.6046 156.389Z" fill="#CFF64A"/><path d="M59.8816 151.478H29.6974C29.4286 151.478 29.2106 151.696 29.2106 151.964C29.2106 152.232 29.4286 152.449 29.6974 152.449H59.8816C60.1505 152.449 60.3685 152.232 60.3685 151.964C60.3685 151.696 60.1505 151.478 59.8816 151.478Z" fill="#CFF64A"/><path d="M68.158 151.478L71.3642 154.676C71.7444 155.055 72.361 155.055 72.7412 154.676L75.9474 151.478" stroke="#CFF64A" stroke-linecap="round"/></g><g opacity="0.247838"><path d="M78.8685 94.6739H10.7106C9.3662 94.6739 8.27637 95.7608 8.27637 97.1015V111.667C8.27637 113.008 9.3662 114.094 10.7106 114.094H78.8685C80.2128 114.094 81.3027 113.008 81.3027 111.667V97.1015C81.3027 95.7608 80.2128 94.6739 78.8685 94.6739Z" stroke="#CFF64A"/><path d="M17.731 107.879C17.2747 107.879 16.8678 107.801 16.5105 107.645C16.1555 107.488 15.8731 107.271 15.6633 106.993C15.4559 106.713 15.343 106.387 15.3245 106.017H16.1958C16.2143 106.245 16.2927 106.442 16.431 106.607C16.5692 106.77 16.7502 106.896 16.9738 106.986C17.1974 107.076 17.4452 107.12 17.7172 107.12C18.0215 107.12 18.2912 107.068 18.5263 106.962C18.7615 106.856 18.9459 106.709 19.0796 106.52C19.2133 106.332 19.2801 106.113 19.2801 105.866C19.2801 105.606 19.2155 105.376 19.0865 105.179C18.9574 104.979 18.7684 104.823 18.5194 104.71C18.2704 104.598 17.9662 104.541 17.6066 104.541H17.0395V103.783H17.6066C17.8878 103.783 18.1344 103.733 18.3465 103.631C18.5609 103.53 18.728 103.387 18.8478 103.203C18.97 103.02 19.0312 102.803 19.0312 102.555C19.0312 102.316 18.9781 102.108 18.8721 101.931C18.766 101.754 18.6162 101.616 18.4226 101.518C18.2313 101.419 18.0054 101.369 17.7448 101.369C17.5005 101.369 17.27 101.414 17.0533 101.503C16.8389 101.59 16.6638 101.719 16.5277 101.887C16.3918 102.052 16.318 102.252 16.3065 102.486H15.4767C15.4905 102.116 15.6023 101.791 15.812 101.514C16.0218 101.233 16.2961 101.015 16.6349 100.858C16.9761 100.702 17.3507 100.624 17.7587 100.624C18.1966 100.624 18.5724 100.713 18.8859 100.889C19.1994 101.064 19.4403 101.295 19.6086 101.583C19.7768 101.87 19.861 102.181 19.861 102.514C19.861 102.911 19.7561 103.251 19.5464 103.531C19.3389 103.811 19.0565 104.005 18.6992 104.114V104.169C19.1464 104.242 19.4956 104.432 19.7468 104.738C19.9981 105.041 20.1238 105.417 20.1238 105.866C20.1238 106.249 20.0189 106.594 19.8092 106.9C19.6017 107.203 19.3181 107.443 18.9585 107.618C18.599 107.791 18.1897 107.879 17.731 107.879ZM21.9278 107.838C21.7572 107.838 21.6109 107.777 21.4887 107.655C21.3666 107.533 21.3054 107.387 21.3054 107.217C21.3054 107.047 21.3666 106.901 21.4887 106.78C21.6109 106.657 21.7572 106.596 21.9278 106.596C22.0984 106.596 22.2447 106.657 22.3669 106.78C22.4891 106.901 22.5502 107.047 22.5502 107.217C22.5502 107.33 22.5214 107.433 22.4637 107.527C22.4084 107.621 22.3335 107.697 22.239 107.755C22.1468 107.81 22.0431 107.838 21.9278 107.838Z" fill="#CFF64A"/><path d="M59.8816 102.928H29.6974C29.4286 102.928 29.2106 103.145 29.2106 103.413C29.2106 103.681 29.4286 103.899 29.6974 103.899H59.8816C60.1505 103.899 60.3685 103.681 60.3685 103.413C60.3685 103.145 60.1505 102.928 59.8816 102.928Z" fill="#CFF64A"/><path d="M68.158 102.928L71.3642 106.125C71.7444 106.504 72.361 106.504 72.7412 106.125L75.9474 102.928" stroke="#CFF64A" stroke-linecap="round"/></g><g opacity="0.247838"><path d="M78.8685 167.5H10.7106C9.3662 167.5 8.27637 168.587 8.27637 169.928V184.493C8.27637 185.834 9.3662 186.92 10.7106 186.92H78.8685C80.2128 186.92 81.3027 185.834 81.3027 184.493V169.928C81.3027 168.587 80.2128 167.5 78.8685 167.5Z" stroke="#CFF64A"/><path d="M17.5921 180.705C17.3017 180.701 17.0112 180.646 16.7208 180.54C16.4303 180.434 16.1653 180.256 15.9256 180.006C15.6858 179.752 15.4933 179.411 15.3481 178.981C15.2029 178.549 15.1302 178.006 15.1302 177.354C15.1302 176.729 15.1891 176.174 15.3066 175.691C15.4242 175.207 15.5947 174.798 15.8184 174.467C16.0419 174.134 16.3116 173.882 16.6274 173.709C16.9456 173.537 17.304 173.45 17.7028 173.45C18.0992 173.45 18.452 173.53 18.7608 173.688C19.072 173.845 19.3256 174.063 19.5216 174.344C19.7175 174.623 19.8442 174.947 19.9019 175.312H19.0582C18.9798 174.995 18.8277 174.732 18.6017 174.522C18.3758 174.314 18.0762 174.209 17.7028 174.209C17.1541 174.209 16.7219 174.447 16.4062 174.922C16.0926 175.398 15.9347 176.066 15.9325 176.926H15.9878C16.1169 176.73 16.2701 176.564 16.4476 176.426C16.6274 176.286 16.8256 176.178 17.0424 176.102C17.259 176.026 17.4884 175.988 17.7305 175.988C18.1361 175.988 18.5073 176.09 18.8438 176.292C19.1804 176.492 19.4501 176.768 19.6529 177.123C19.8557 177.474 19.9572 177.878 19.9572 178.333C19.9572 178.77 19.8592 179.17 19.6632 179.533C19.4673 179.894 19.1919 180.181 18.8369 180.395C18.4842 180.607 18.0693 180.71 17.5921 180.705ZM17.5921 179.946C17.8826 179.946 18.143 179.875 18.3736 179.729C18.6064 179.584 18.7896 179.39 18.9233 179.146C19.0594 178.903 19.1273 178.632 19.1273 178.333C19.1273 178.041 19.0616 177.775 18.9302 177.536C18.8011 177.295 18.6226 177.103 18.3943 176.961C18.1684 176.818 17.9102 176.747 17.6198 176.747C17.4008 176.747 17.1968 176.791 17.0078 176.878C16.8187 176.963 16.6528 177.08 16.5099 177.23C16.3693 177.379 16.2587 177.55 16.1779 177.743C16.0972 177.935 16.0569 178.136 16.0569 178.346C16.0569 178.627 16.1226 178.889 16.254 179.133C16.3877 179.376 16.5698 179.573 16.8003 179.722C17.0331 179.872 17.2971 179.946 17.5921 179.946ZM21.5927 180.664C21.4221 180.664 21.2758 180.603 21.1536 180.481C21.0314 180.359 20.9703 180.213 20.9703 180.044C20.9703 179.873 21.0314 179.727 21.1536 179.606C21.2758 179.483 21.4221 179.422 21.5927 179.422C21.7633 179.422 21.9096 179.483 22.0318 179.606C22.1539 179.727 22.2151 179.873 22.2151 180.044C22.2151 180.156 22.1862 180.259 22.1286 180.353C22.0733 180.448 21.9983 180.523 21.9039 180.582C21.8117 180.636 21.708 180.664 21.5927 180.664Z" fill="#CFF64A"/><path d="M59.8816 175.754H29.6974C29.4286 175.754 29.2106 175.971 29.2106 176.239C29.2106 176.507 29.4286 176.725 29.6974 176.725H59.8816C60.1505 176.725 60.3685 176.507 60.3685 176.239C60.3685 175.971 60.1505 175.754 59.8816 175.754Z" fill="#CFF64A"/><path d="M68.158 175.754L71.3642 178.951C71.7444 179.33 72.361 179.33 72.7412 178.951L75.9474 175.754" stroke="#CFF64A" stroke-linecap="round"/></g><g opacity="0.247838"><path d="M8.27637 200.514H81.3027V193.717C81.3027 192.644 80.4308 191.775 79.3553 191.775H10.2237C9.14823 191.775 8.27637 192.644 8.27637 193.717V200.514Z" stroke="#CFF64A"/></g><path fill-rule="evenodd" clip-rule="evenodd" d="M105.956 65.0571V57.824H104.488L105.197 56.6374H107.247V65.0571H105.956ZM111.012 64.4512C111.012 64.0346 111.353 63.6938 111.771 63.6938C112.189 63.6938 112.531 64.0346 112.531 64.4512C112.531 64.8677 112.189 65.2086 111.771 65.2086C111.353 65.2086 111.012 64.8677 111.012 64.4512Z" fill="#CFF64A"/><path fill-rule="evenodd" clip-rule="evenodd" d="M114.971 56.6374H116.54L118.717 61.1313L120.692 56.6374H122.034L118.224 65.0571H116.882L117.971 62.6713L114.971 56.6374ZM123.798 64.4386V67.9478H122.558V59.7427H123.798V60.3234C124.254 59.7806 124.849 59.6039 125.38 59.6039C126.785 59.6039 127.975 60.6768 127.975 62.3684C127.975 64.1608 126.659 65.2212 125.393 65.2212C125.102 65.2212 124.355 65.1202 123.798 64.4386ZM125.228 60.7147C124.444 60.7147 123.722 61.2701 123.722 62.4315C123.722 63.5423 124.444 64.1104 125.228 64.1104C126.127 64.1104 126.709 63.3403 126.709 62.4188C126.709 61.4721 126.127 60.7147 125.228 60.7147ZM132.031 59.6039C133.638 59.6039 134.879 60.7652 134.879 62.4062C134.879 64.0346 133.638 65.2212 132.031 65.2212C130.423 65.2212 129.183 64.0346 129.183 62.4062C129.183 60.7652 130.423 59.6039 132.031 59.6039ZM132.031 64.1104C133.005 64.1104 133.613 63.4413 133.613 62.4188C133.613 61.207 132.815 60.7147 132.031 60.7147C131.246 60.7147 130.448 61.207 130.448 62.4188C130.448 63.4413 131.056 64.1104 132.031 64.1104ZM136.364 59.7427H137.605V61.6362L139.377 59.7427H141.023L138.694 62.0654L141.149 65.0571H139.58L137.807 62.8733L137.605 63.0752V65.0571H136.364V59.7427ZM145.298 59.7427H149.931V65.0571H148.69V60.8788H146.539V65.0571H145.298V59.7427ZM155.429 63.2646L156.467 63.8453C156.239 64.2492 155.91 64.6027 155.568 64.8172C155.138 65.095 154.568 65.2212 153.999 65.2212C153.29 65.2212 152.708 65.0445 152.201 64.5395C151.695 64.0346 151.417 63.3025 151.417 62.5072C151.417 61.6867 151.708 60.8914 152.265 60.3234C152.708 59.8816 153.29 59.6039 154.05 59.6039C154.898 59.6039 155.442 59.9699 155.758 60.2981C156.442 61.005 156.505 61.9897 156.505 62.5451V62.6966H152.682C152.708 63.0752 152.872 63.5044 153.138 63.7695C153.429 64.0599 153.784 64.1104 154.087 64.1104C154.429 64.1104 154.682 64.0346 154.936 63.8453C155.151 63.6812 155.315 63.4666 155.429 63.2646ZM152.771 61.6867H155.239C155.189 61.3964 155.049 61.1439 154.86 60.9672C154.695 60.8157 154.429 60.6642 154.024 60.6642C153.594 60.6642 153.315 60.8409 153.151 61.005C152.974 61.1691 152.834 61.4216 152.771 61.6867ZM159.231 64.4386V67.9478H157.991V59.7427H159.231V60.3234C159.687 59.7806 160.282 59.6039 160.814 59.6039C162.219 59.6039 163.409 60.6768 163.409 62.3684C163.409 64.1608 162.092 65.2212 160.826 65.2212C160.535 65.2212 159.788 65.1202 159.231 64.4386ZM160.662 60.7147C159.877 60.7147 159.156 61.2701 159.156 62.4315C159.156 63.5423 159.877 64.1104 160.662 64.1104C161.561 64.1104 162.143 63.3403 162.143 62.4188C162.143 61.4721 161.561 60.7147 160.662 60.7147ZM164.894 59.7427H166.983C167.299 59.7427 167.793 59.7554 168.198 60.0583C168.388 60.2098 168.692 60.5254 168.692 61.0808C168.692 61.51 168.489 61.9013 168.059 62.1159C168.312 62.1664 168.578 62.2926 168.78 62.4693C169.021 62.6839 169.198 63.0121 169.198 63.4918C169.198 64.1356 168.882 64.5017 168.616 64.7036C168.173 65.0318 167.629 65.0571 167.388 65.0571H164.894V59.7427ZM166.135 61.8129H166.768C167.059 61.8129 167.223 61.7246 167.261 61.6993C167.464 61.5731 167.502 61.3964 167.502 61.2701C167.502 61.0808 167.413 60.9419 167.287 60.8536C167.122 60.74 166.932 60.7526 166.742 60.7526H166.135V61.8129ZM166.135 64.0472H167.059C167.261 64.0472 167.515 64.022 167.704 63.8958C167.818 63.82 167.958 63.6685 167.958 63.4287C167.958 63.1889 167.844 63.0374 167.717 62.9616C167.527 62.8354 167.274 62.8228 167.097 62.8228H166.135V64.0472ZM170.684 65.0571V59.7427H171.924V61.6236H172.633C173.152 61.6236 173.76 61.6362 174.241 62.1664C174.595 62.5577 174.659 63.0121 174.659 63.3277C174.659 63.9462 174.418 64.3628 174.178 64.6027C173.709 65.0571 173.152 65.0571 172.621 65.0571H170.684ZM171.924 63.9967H172.494C172.735 63.9967 172.975 63.9841 173.14 63.8831C173.228 63.82 173.418 63.6685 173.418 63.3403C173.418 63.0753 173.304 62.9111 173.152 62.8102C172.95 62.6839 172.697 62.6839 172.507 62.6839H171.924V63.9967ZM175.215 65.0571V59.7427H176.456V65.0571H175.215ZM178.22 59.7427H179.461V62.7597L183.106 59.263V65.0571H181.866V61.9644L178.22 65.461V59.7427ZM178.625 57.4453L179.638 57.155C179.853 57.8871 180.372 57.9755 180.676 57.9755C181.22 57.9755 181.537 57.723 181.714 57.155L182.726 57.4453C182.435 58.493 181.397 58.9348 180.676 58.9348C179.954 58.9348 178.916 58.493 178.625 57.4453Z" fill="#CFF64A"/><path fill-rule="evenodd" clip-rule="evenodd" d="M279.323 58.5795H284.588V65.7873H285.55V68.8926H284.335V66.9991H278.892V68.8926H277.677V65.7873C278.285 65.8125 278.766 65.2824 279.019 64.6512C279.184 64.2346 279.323 63.6035 279.323 62.4421V58.5795ZM280.614 59.7913V62.4421C280.614 63.7423 280.475 64.3861 280.323 64.7901C280.146 65.2571 279.905 65.5601 279.665 65.7873H283.297V59.7913H280.614ZM289.179 61.5459C290.787 61.5459 292.027 62.7072 292.027 64.3482C292.027 65.9766 290.787 67.1632 289.179 67.1632C287.572 67.1632 286.331 65.9766 286.331 64.3482C286.331 62.7072 287.572 61.5459 289.179 61.5459ZM289.179 66.0524C290.154 66.0524 290.762 65.3833 290.762 64.3609C290.762 63.149 289.964 62.6567 289.179 62.6567C288.395 62.6567 287.597 63.149 287.597 64.3609C287.597 65.3833 288.205 66.0524 289.179 66.0524ZM292.808 66.9991L294.099 61.2051L296.302 65.2571L298.504 61.2051L299.795 66.9991H298.53L297.998 64.3356L296.302 67.4031L294.606 64.3356L294.074 66.9991H292.808ZM304.753 62.3033V61.6848H305.994V66.9991H304.753V66.4437C304.209 67.0749 303.538 67.1632 303.159 67.1632C301.513 67.1632 300.576 65.7999 300.576 64.3356C300.576 62.6063 301.766 61.5459 303.171 61.5459C303.564 61.5459 304.247 61.6469 304.753 62.3033ZM303.323 62.6567C302.424 62.6567 301.842 63.4141 301.842 64.3609C301.842 65.2824 302.424 66.0524 303.323 66.0524C304.108 66.0524 304.829 65.4843 304.829 64.3735C304.829 63.2122 304.108 62.6567 303.323 62.6567ZM307.661 66.9991V61.6848H308.901V65.863H310.673V61.6848H311.914V65.863H313.686V61.6848H314.926V66.9991H307.661ZM316.593 66.9991V61.6848H317.834V63.654H320.036V61.6848H321.277V66.9991H320.036V64.7901H317.834V66.9991H316.593ZM326.678 65.2066L327.716 65.7873C327.488 66.1912 327.159 66.5447 326.817 66.7593C326.387 67.037 325.817 67.1632 325.248 67.1632C324.539 67.1632 323.956 66.9865 323.45 66.4816C322.944 65.9766 322.665 65.2445 322.665 64.4492C322.665 63.6287 322.956 62.8335 323.513 62.2654C323.956 61.8236 324.539 61.5459 325.298 61.5459C326.146 61.5459 326.691 61.912 327.007 62.2402C327.691 62.9471 327.754 63.9317 327.754 64.4871V64.6386H323.931C323.956 65.0173 324.121 65.4465 324.387 65.7116C324.678 66.0019 325.032 66.0524 325.336 66.0524C325.678 66.0524 325.931 65.9766 326.184 65.7873C326.399 65.6232 326.564 65.4086 326.678 65.2066ZM324.02 63.6287H326.488C326.437 63.3384 326.298 63.0859 326.108 62.9092C325.944 62.7577 325.678 62.6062 325.273 62.6062C324.842 62.6062 324.564 62.783 324.399 62.9471C324.222 63.1112 324.083 63.3636 324.02 63.6287ZM332.876 65.2066L333.914 65.7873C333.686 66.1912 333.357 66.5447 333.016 66.7593C332.585 67.037 332.016 67.1632 331.446 67.1632C330.737 67.1632 330.155 66.9865 329.649 66.4816C329.142 65.9766 328.864 65.2445 328.864 64.4492C328.864 63.6287 329.155 62.8335 329.712 62.2654C330.155 61.8236 330.737 61.5459 331.497 61.5459C332.345 61.5459 332.889 61.912 333.205 62.2402C333.889 62.9471 333.952 63.9317 333.952 64.4871V64.6386H330.13C330.155 65.0173 330.319 65.4465 330.585 65.7116C330.876 66.0019 331.231 66.0524 331.535 66.0524C331.876 66.0524 332.13 65.9766 332.383 65.7873C332.598 65.6232 332.762 65.4086 332.876 65.2066ZM330.218 63.6287H332.687C332.636 63.3384 332.497 63.0859 332.307 62.9092C332.142 62.7577 331.876 62.6062 331.471 62.6062C331.041 62.6062 330.762 62.783 330.598 62.9471C330.421 63.1112 330.282 63.3636 330.218 63.6287ZM279.006 75.6839L278.209 74.9896C278.386 74.775 278.652 74.5604 279.019 74.3963C279.462 74.207 279.93 74.1691 280.272 74.1691C280.728 74.1691 281.196 74.2322 281.627 74.5352C282.032 74.8255 282.183 75.1663 282.183 75.6208C282.183 75.8858 282.145 76.1131 281.956 76.3529C281.791 76.5675 281.601 76.6685 281.449 76.7316C281.74 76.7947 282.032 76.9336 282.221 77.1229C282.5 77.4006 282.563 77.7415 282.563 78.0065C282.563 78.4988 282.411 78.8775 282.107 79.1805C281.69 79.5971 281.095 79.7864 280.234 79.7864C279.854 79.7864 279.323 79.7485 278.842 79.4708C278.538 79.2941 278.209 78.9912 278.006 78.5241L278.994 78.0192C279.095 78.2338 279.259 78.4484 279.462 78.5746C279.677 78.7134 279.968 78.7766 280.259 78.7766C280.475 78.7766 280.88 78.7387 281.108 78.5115C281.221 78.3852 281.297 78.2211 281.297 78.0444C281.297 77.8677 281.234 77.7162 281.133 77.6152C280.918 77.388 280.551 77.388 280.247 77.388H279.69V76.3781H280.158C280.335 76.3781 280.614 76.3403 280.766 76.2393C280.867 76.1636 280.994 76.0373 280.994 75.7722C280.994 75.545 280.88 75.3935 280.766 75.3178C280.589 75.1916 280.335 75.1789 280.171 75.1789C279.918 75.1789 279.715 75.2168 279.475 75.3304C279.323 75.4062 279.158 75.5198 279.006 75.6839ZM287.85 74.9265V74.3079H289.091V79.6223H287.85V79.0669C287.306 79.698 286.635 79.7864 286.255 79.7864C284.61 79.7864 283.673 78.4231 283.673 76.9588C283.673 75.2294 284.863 74.1691 286.268 74.1691C286.66 74.1691 287.344 74.2701 287.85 74.9265ZM286.42 75.2799C285.521 75.2799 284.939 76.0373 284.939 76.9841C284.939 77.9056 285.521 78.6756 286.42 78.6756C287.205 78.6756 287.926 78.1075 287.926 76.9967C287.926 75.8354 287.205 75.2799 286.42 75.2799ZM291.213 74.3079H295.213V78.4862H296.023V81.1371H294.884V79.6223H291.163V81.1371H290.024V78.4862C290.505 78.461 290.834 78.1201 290.998 77.7919C291.15 77.4637 291.213 77.0346 291.213 76.3908V74.3079ZM293.973 78.4862V75.444H292.403V76.8578C292.403 77.7793 292.112 78.2338 291.783 78.4862H293.973ZM300.905 74.9265V74.3079H302.146V79.6223H300.905V79.0669C300.361 79.698 299.69 79.7864 299.311 79.7864C297.665 79.7864 296.728 78.4231 296.728 76.9588C296.728 75.2294 297.918 74.1691 299.323 74.1691C299.716 74.1691 300.399 74.2701 300.905 74.9265ZM299.475 75.2799C298.576 75.2799 297.994 76.0373 297.994 76.9841C297.994 77.9056 298.576 78.6756 299.475 78.6756C300.26 78.6756 300.981 78.1075 300.981 76.9967C300.981 75.8354 300.26 75.2799 299.475 75.2799ZM303.813 79.6223V74.3079H305.053V76.2772H307.256V74.3079H308.496V79.6223H307.256V77.4132H305.053V79.6223H303.813ZM310.163 74.3079H311.404V77.3249L315.049 73.8283V79.6223H313.809V76.5296L310.163 80.0263V74.3079ZM320.45 77.8298L321.488 78.4105C321.26 78.8144 320.931 79.1679 320.589 79.3825C320.159 79.6602 319.589 79.7864 319.02 79.7864C318.311 79.7864 317.729 79.6097 317.222 79.1048C316.716 78.5998 316.438 77.8677 316.438 77.0724C316.438 76.2519 316.729 75.4567 317.286 74.8886C317.729 74.4468 318.311 74.1691 319.071 74.1691C319.919 74.1691 320.463 74.5352 320.779 74.8634C321.463 75.5703 321.526 76.5549 321.526 77.1103V77.2618H317.703C317.729 77.6405 317.893 78.0697 318.159 78.3347C318.45 78.6251 318.805 78.6756 319.108 78.6756C319.45 78.6756 319.703 78.5998 319.957 78.4105C320.172 78.2464 320.336 78.0318 320.45 77.8298ZM317.792 76.2519H320.26C320.21 75.9616 320.07 75.7091 319.881 75.5324C319.716 75.3809 319.45 75.2294 319.045 75.2294C318.615 75.2294 318.336 75.4062 318.172 75.5703C317.995 75.7344 317.855 75.9868 317.792 76.2519Z" fill="#CFF64A"/><g opacity="0.253929"><path d="M278.961 91.2753C279.767 91.2753 280.421 90.6232 280.421 89.8188C280.421 89.0144 279.767 88.3623 278.961 88.3623C278.154 88.3623 277.5 89.0144 277.5 89.8188C277.5 90.6232 278.154 91.2753 278.961 91.2753Z" fill="#CFF64A"/><path d="M278.961 96.1304C279.767 96.1304 280.421 95.4783 280.421 94.6739C280.421 93.8695 279.767 93.2174 278.961 93.2174C278.154 93.2174 277.5 93.8695 277.5 94.6739C277.5 95.4783 278.154 96.1304 278.961 96.1304Z" fill="#CFF64A"/><path d="M278.961 100.985C279.767 100.985 280.421 100.333 280.421 99.529C280.421 98.725 279.767 98.0724 278.961 98.0724C278.154 98.0724 277.5 98.725 277.5 99.529C277.5 100.333 278.154 100.985 278.961 100.985Z" fill="#CFF64A"/><path d="M278.961 105.841C279.767 105.841 280.421 105.188 280.421 104.384C280.421 103.58 279.767 102.928 278.961 102.928C278.154 102.928 277.5 103.58 277.5 104.384C277.5 105.188 278.154 105.841 278.961 105.841Z" fill="#CFF64A"/><path d="M349.553 89.8188H283.467" stroke="#CFF64A" stroke-linecap="round"/><path d="M345.171 94.6739H283.467" stroke="#CFF64A" stroke-linecap="round"/><path d="M341.276 99.529H283.467" stroke="#CFF64A" stroke-linecap="round"/><path d="M327.645 104.384H283.467" stroke="#CFF64A" stroke-linecap="round"/></g><path fill-rule="evenodd" clip-rule="evenodd" d="M278.602 124.291H277.286L279.058 115.24L281.995 121.779L284.956 115.24L286.551 124.291H285.235L284.374 119.216L281.919 124.682L279.488 119.204L278.602 124.291ZM291.994 119.595V118.976H293.235V124.291H291.994V123.735C291.45 124.367 290.779 124.455 290.399 124.455C288.754 124.455 287.817 123.092 287.817 121.627C287.817 119.898 289.007 118.838 290.412 118.838C290.804 118.838 291.488 118.939 291.994 119.595ZM290.564 119.948C289.665 119.948 289.083 120.706 289.083 121.653C289.083 122.574 289.665 123.344 290.564 123.344C291.349 123.344 292.07 122.776 292.07 121.665C292.07 120.504 291.349 119.948 290.564 119.948ZM298.475 120.113H296.918V124.291H295.678V120.113H294.121V118.976H298.475V120.113ZM302.956 122.498L303.994 123.079C303.766 123.483 303.437 123.836 303.095 124.051C302.665 124.329 302.095 124.455 301.526 124.455C300.817 124.455 300.235 124.278 299.728 123.773C299.222 123.268 298.943 122.536 298.943 121.741C298.943 120.92 299.235 120.125 299.792 119.557C300.235 119.115 300.817 118.838 301.576 118.838C302.424 118.838 302.969 119.204 303.285 119.532C303.969 120.239 304.032 121.223 304.032 121.779V121.93H300.209C300.235 122.309 300.399 122.738 300.665 123.003C300.956 123.294 301.31 123.344 301.614 123.344C301.956 123.344 302.209 123.268 302.462 123.079C302.677 122.915 302.842 122.7 302.956 122.498ZM300.298 120.92H302.766C302.715 120.63 302.576 120.378 302.386 120.201C302.222 120.049 301.956 119.898 301.551 119.898C301.121 119.898 300.842 120.075 300.678 120.239C300.5 120.403 300.361 120.655 300.298 120.92ZM306.563 123.672V127.182H305.323V118.976H306.563V119.557C307.019 119.014 307.614 118.838 308.146 118.838C309.551 118.838 310.741 119.911 310.741 121.602C310.741 123.395 309.424 124.455 308.158 124.455C307.867 124.455 307.12 124.354 306.563 123.672ZM307.994 119.948C307.209 119.948 306.488 120.504 306.488 121.665C306.488 122.776 307.209 123.344 307.994 123.344C308.893 123.344 309.475 122.574 309.475 121.653C309.475 120.706 308.893 119.948 307.994 119.948ZM312.032 118.976H313.272V121.993L316.918 118.497V124.291H315.677V121.198L312.032 124.695V118.976ZM322.386 119.595V118.976H323.626V124.291H322.386V123.735C321.842 124.367 321.171 124.455 320.791 124.455C319.145 124.455 318.209 123.092 318.209 121.627C318.209 119.898 319.399 118.838 320.804 118.838C321.196 118.838 321.88 118.939 322.386 119.595ZM320.956 119.948C320.057 119.948 319.475 120.706 319.475 121.653C319.475 122.574 320.057 123.344 320.956 123.344C321.74 123.344 322.462 122.776 322.462 121.665C322.462 120.504 321.74 119.948 320.956 119.948ZM329.576 118.976V124.291H328.335V120.113H326.765V122.221C326.765 122.675 326.702 123.268 326.259 123.748C325.778 124.278 325.082 124.379 324.512 124.291V123.155C324.879 123.243 325.221 123.104 325.386 122.915C325.55 122.713 325.576 122.423 325.576 122.221V118.976H329.576ZM331.145 124.291V118.976H332.386V120.857H333.094C333.613 120.857 334.221 120.87 334.702 121.4C335.056 121.791 335.12 122.246 335.12 122.561C335.12 123.18 334.879 123.597 334.639 123.836C334.17 124.291 333.613 124.291 333.082 124.291H331.145ZM332.386 123.23H332.955C333.196 123.23 333.436 123.218 333.601 123.117C333.689 123.054 333.879 122.902 333.879 122.574C333.879 122.309 333.765 122.145 333.613 122.044C333.411 121.918 333.158 121.918 332.968 121.918H332.386V123.23ZM335.677 124.291V118.976H336.917V124.291H335.677Z" fill="#CFF64A"/><path d="M286.263 133.514H280.421C279.076 133.514 277.987 134.601 277.987 135.942V140.797C277.987 142.138 279.076 143.225 280.421 143.225H286.263C287.608 143.225 288.697 142.138 288.697 140.797V135.942C288.697 134.601 287.608 133.514 286.263 133.514Z" stroke="#CFF64A"/><path d="M280.546 136.913C281.084 136.913 281.519 136.478 281.519 135.942C281.519 135.406 281.084 134.971 280.546 134.971C280.008 134.971 279.572 135.406 279.572 135.942C279.572 136.478 280.008 136.913 280.546 136.913Z" fill="#CFF64A"/><path d="M279.007 141.976L281.261 138.752C281.323 138.664 281.444 138.642 281.533 138.704C281.542 138.71 281.551 138.717 281.559 138.726L283.151 140.314C283.227 140.389 283.35 140.389 283.426 140.314C283.441 140.298 283.453 140.281 283.463 140.263L285.208 136.783C285.231 136.734 285.29 136.715 285.338 136.739C285.356 136.748 285.369 136.762 285.379 136.778L288.084 141.546C288.167 141.691 288.211 141.856 288.211 142.023V142.254C288.211 142.522 287.992 142.739 287.724 142.739H279.407C279.138 142.739 278.92 142.522 278.92 142.254C278.92 142.155 278.95 142.057 279.007 141.976Z" fill="#CFF64A" stroke="#CFF64A"/><path d="M301.842 133.514H296C294.655 133.514 293.566 134.601 293.566 135.942V140.797C293.566 142.138 294.655 143.225 296 143.225H301.842C303.187 143.225 304.276 142.138 304.276 140.797V135.942C304.276 134.601 303.187 133.514 301.842 133.514Z" stroke="#CFF64A"/><path d="M296.125 136.913C296.663 136.913 297.098 136.478 297.098 135.942C297.098 135.406 296.663 134.971 296.125 134.971C295.587 134.971 295.151 135.406 295.151 135.942C295.151 136.478 295.587 136.913 296.125 136.913Z" fill="#CFF64A"/><path d="M294.586 141.976L296.84 138.752C296.902 138.664 297.023 138.642 297.112 138.704C297.121 138.71 297.129 138.717 297.138 138.726L298.73 140.314C298.806 140.389 298.929 140.389 299.005 140.314C299.02 140.298 299.032 140.281 299.042 140.263L300.787 136.783C300.81 136.734 300.869 136.715 300.917 136.739C300.935 136.748 300.948 136.762 300.958 136.778L303.663 141.546C303.746 141.691 303.789 141.856 303.789 142.023V142.254C303.789 142.522 303.571 142.739 303.303 142.739H294.985C294.717 142.739 294.499 142.522 294.499 142.254C294.499 142.155 294.529 142.057 294.586 141.976Z" fill="#CFF64A" stroke="#CFF64A"/><path d="M317.421 133.514H311.579C310.234 133.514 309.145 134.601 309.145 135.942V140.797C309.145 142.138 310.234 143.225 311.579 143.225H317.421C318.766 143.225 319.855 142.138 319.855 140.797V135.942C319.855 134.601 318.766 133.514 317.421 133.514Z" stroke="#CFF64A"/><path d="M311.704 136.913C312.242 136.913 312.677 136.478 312.677 135.942C312.677 135.406 312.242 134.971 311.704 134.971C311.166 134.971 310.73 135.406 310.73 135.942C310.73 136.478 311.166 136.913 311.704 136.913Z" fill="#CFF64A"/><path d="M310.165 141.976L312.419 138.752C312.481 138.664 312.602 138.642 312.691 138.704C312.7 138.71 312.708 138.717 312.717 138.726L314.309 140.314C314.385 140.389 314.508 140.389 314.584 140.314C314.599 140.298 314.611 140.281 314.621 140.263L316.366 136.783C316.389 136.734 316.448 136.715 316.496 136.739C316.514 136.748 316.527 136.762 316.537 136.778L319.242 141.546C319.325 141.691 319.368 141.856 319.368 142.023V142.254C319.368 142.522 319.15 142.739 318.882 142.739H310.564C310.296 142.739 310.078 142.522 310.078 142.254C310.078 142.155 310.108 142.057 310.165 141.976Z" fill="#CFF64A" stroke="#CFF64A"/><path opacity="0.497233" d="M258.513 76.2246H104.671C102.52 76.2246 100.776 77.9636 100.776 80.1087V155.848C100.776 157.993 102.52 159.732 104.671 159.732H258.513C260.664 159.732 262.408 157.993 262.408 155.848V80.1087C262.408 77.9636 260.664 76.2246 258.513 76.2246Z" stroke="#CFF64A"/><path d="M181.592 134.971C172.181 134.971 164.553 127.363 164.553 117.978C164.553 108.593 172.181 100.986 181.592 100.986C191.003 100.986 198.632 108.593 198.632 117.978C198.632 127.363 191.003 134.971 181.592 134.971ZM187.325 118.764C187.408 118.704 187.48 118.632 187.54 118.549C187.856 118.116 187.76 117.508 187.325 117.193L179.244 111.332C179.077 111.211 178.876 111.146 178.671 111.146C178.134 111.146 177.697 111.58 177.697 112.117V123.839C177.697 124.045 177.763 124.244 177.883 124.41C178.2 124.844 178.809 124.94 179.244 124.625L187.325 118.764Z" fill="#CFF64A"/><path opacity="0.251535" d="M359.289 46.1232H91.5263C90.1819 46.1232 89.092 47.21 89.092 48.5507V170.899C89.092 172.24 90.1819 173.326 91.5263 173.326H359.289C360.634 173.326 361.724 172.24 361.724 170.899V48.5507C361.724 47.21 360.634 46.1232 359.289 46.1232Z" stroke="#CFF64A"/></g></g><defs><clipPath id="clip0_3_2053"><rect width="370" height="201" fill="white"/></clipPath></defs></svg>