<svg width="370" height="201" viewBox="0 0 370 201" fill="none" xmlns="http://www.w3.org/2000/svg"><g clip-path="url(#clip0_3_1976)"><mask id="mask0_3_1976" style="mask-type:luminance" maskUnits="userSpaceOnUse" x="0" y="0" width="370" height="201"><path d="M370 0H0V201H370V0Z" fill="white"/></mask><g mask="url(#mask0_3_1976)"><path opacity="0.500186" d="M364.659 0.485504H6.31231C3.63061 0.485504 1.45667 2.6592 1.45667 5.34058V195.659C1.45667 198.34 3.63061 200.514 6.31231 200.514H364.659C367.34 200.514 369.514 198.34 369.514 195.659V5.34058C369.514 2.6592 367.34 0.485504 364.659 0.485504Z" stroke="#CFF64A"/><g opacity="0.498698"><path opacity="0.498396" d="M11.6534 13.1087C12.9942 13.1087 14.0812 12.0218 14.0812 10.6812C14.0812 9.34046 12.9942 8.25362 11.6534 8.25362C10.3126 8.25362 9.22559 9.34046 9.22559 10.6812C9.22559 12.0218 10.3126 13.1087 11.6534 13.1087Z" stroke="#CFF64A"/><path opacity="0.498396" d="M23.307 13.1087C24.6478 13.1087 25.7348 12.0218 25.7348 10.6812C25.7348 9.34046 24.6478 8.25362 23.307 8.25362C21.9661 8.25362 20.8792 9.34046 20.8792 10.6812C20.8792 12.0218 21.9661 13.1087 23.307 13.1087Z" stroke="#CFF64A"/><path opacity="0.498396" d="M33.9893 13.1087C35.3302 13.1087 36.4172 12.0218 36.4172 10.6812C36.4172 9.34046 35.3302 8.25362 33.9893 8.25362C32.6485 8.25362 31.5615 9.34046 31.5615 10.6812C31.5615 12.0218 32.6485 13.1087 33.9893 13.1087Z" stroke="#CFF64A"/><path opacity="0.49514" d="M1.94214 38.8406H370" stroke="#CFF64A"/><path opacity="0.501046" d="M1.94214 18.4493H369.029" stroke="#CFF64A"/></g><path d="M143.294 7.41502H144.169V10.9322H145.386V7.41502H146.257V10.9322H147.459V7.41502H148.33V11.6522H143.294V7.41502ZM149.219 11.6522V8.47431H150.101V9.70739H150.349L151.213 8.47431H152.249L151.125 10.0509L152.26 11.6522H151.213L150.43 10.5246H150.101V11.6522H149.219ZM153.938 11.7142C153.617 11.7142 153.339 11.646 153.104 11.5094C152.871 11.3715 152.692 11.1798 152.564 10.9343C152.437 10.6874 152.374 10.4011 152.374 10.0756C152.374 9.74743 152.437 9.4605 152.564 9.21499C152.692 8.9681 152.871 8.77637 153.104 8.63982C153.339 8.50189 153.617 8.43293 153.938 8.43293C154.26 8.43293 154.537 8.50189 154.77 8.63982C155.005 8.77637 155.185 8.9681 155.313 9.21499C155.439 9.4605 155.503 9.74743 155.503 10.0756C155.503 10.4011 155.439 10.6874 155.313 10.9343C155.185 11.1798 155.005 11.3715 154.77 11.5094C154.537 11.646 154.26 11.7142 153.938 11.7142ZM153.942 11.0315C154.089 11.0315 154.21 10.9901 154.308 10.9074C154.407 10.8232 154.48 10.7087 154.53 10.564C154.581 10.4191 154.607 10.2543 154.607 10.0694C154.607 9.88464 154.581 9.71976 154.53 9.57498C154.48 9.43015 154.407 9.31567 154.308 9.23153C154.21 9.14739 154.089 9.10533 153.942 9.10533C153.795 9.10533 153.67 9.14739 153.569 9.23153C153.47 9.31567 153.396 9.43015 153.344 9.57498C153.295 9.71976 153.27 9.88464 153.27 10.0694C153.27 10.2543 153.295 10.4191 153.344 10.564C153.396 10.7087 153.47 10.8232 153.569 10.9074C153.67 10.9901 153.795 11.0315 153.942 11.0315ZM155.889 11.6522L155.886 10.9528H155.99C156.065 10.9528 156.129 10.935 156.184 10.8991C156.238 10.8619 156.284 10.8019 156.32 10.7191C156.356 10.6363 156.384 10.5267 156.405 10.3901C156.426 10.2522 156.439 10.0825 156.446 9.88114L156.497 8.47431H158.915V11.6522H158.075V9.1674H157.29L157.24 10.1377C157.229 10.4039 157.196 10.6329 157.143 10.8246C157.093 11.0164 157.021 11.1736 156.931 11.2963C156.839 11.4177 156.73 11.5074 156.601 11.5653C156.473 11.6232 156.324 11.6522 156.155 11.6522H155.889ZM160.504 11.7122C160.301 11.7122 160.121 11.677 159.962 11.6066C159.803 11.535 159.678 11.4294 159.586 11.2901C159.494 11.1494 159.449 10.9742 159.449 10.7646C159.449 10.588 159.482 10.4398 159.546 10.3197C159.611 10.1998 159.699 10.1032 159.811 10.0301C159.923 9.95707 160.05 9.90182 160.192 9.86463C160.335 9.82735 160.486 9.80123 160.643 9.78598C160.828 9.76666 160.976 9.74879 161.09 9.73219C161.203 9.71432 161.285 9.68807 161.336 9.65359C161.387 9.61911 161.412 9.56808 161.412 9.50049V9.48808C161.412 9.35704 161.371 9.25567 161.288 9.18395C161.207 9.11222 161.091 9.07636 160.94 9.07636C160.782 9.07636 160.656 9.11153 160.563 9.18188C160.468 9.25084 160.406 9.33774 160.376 9.44256L159.56 9.37636C159.602 9.18326 159.684 9.01636 159.805 8.87567C159.926 8.73362 160.083 8.62465 160.274 8.54879C160.467 8.47155 160.691 8.43293 160.945 8.43293C161.122 8.43293 161.291 8.45362 161.452 8.495C161.614 8.53637 161.759 8.60051 161.884 8.6874C162.011 8.7743 162.112 8.88602 162.184 9.02257C162.257 9.15774 162.294 9.31981 162.294 9.50877V11.6522H161.458V11.2115H161.434C161.382 11.3108 161.314 11.3984 161.229 11.4743C161.143 11.5488 161.04 11.6073 160.92 11.6501C160.8 11.6915 160.662 11.7122 160.504 11.7122ZM160.757 11.1039C160.886 11.1039 161.001 11.0784 161.101 11.0273C161.2 10.975 161.277 10.9046 161.334 10.8163C161.391 10.7281 161.419 10.628 161.419 10.5164V10.1791C161.391 10.197 161.353 10.2136 161.305 10.2288C161.258 10.2426 161.205 10.2557 161.145 10.2681C161.086 10.2791 161.027 10.2895 160.968 10.2991C160.908 10.3074 160.855 10.315 160.806 10.3219C160.702 10.337 160.612 10.3612 160.535 10.3942C160.458 10.4273 160.398 10.4722 160.356 10.5287C160.312 10.584 160.291 10.6529 160.291 10.7356C160.291 10.8557 160.334 10.9473 160.422 11.0108C160.51 11.0729 160.622 11.1039 160.757 11.1039ZM164.327 11.6522V8.47431H165.207V9.70739H165.456L166.321 8.47431H167.356L166.232 10.0509L167.368 11.6522H166.321L165.537 10.5246H165.207V11.6522H164.327ZM169.045 11.7142C168.724 11.7142 168.446 11.646 168.212 11.5094C167.979 11.3715 167.798 11.1798 167.672 10.9343C167.545 10.6874 167.482 10.4011 167.482 10.0756C167.482 9.74743 167.545 9.4605 167.672 9.21499C167.798 8.9681 167.979 8.77637 168.212 8.63982C168.446 8.50189 168.724 8.43293 169.045 8.43293C169.367 8.43293 169.645 8.50189 169.878 8.63982C170.112 8.77637 170.292 8.9681 170.42 9.21499C170.547 9.4605 170.61 9.74743 170.61 10.0756C170.61 10.4011 170.547 10.6874 170.42 10.9343C170.292 11.1798 170.112 11.3715 169.878 11.5094C169.645 11.646 169.367 11.7142 169.045 11.7142ZM169.05 11.0315C169.196 11.0315 169.318 10.9901 169.416 10.9074C169.514 10.8232 169.588 10.7087 169.638 10.564C169.688 10.4191 169.714 10.2543 169.714 10.0694C169.714 9.88464 169.688 9.71976 169.638 9.57498C169.588 9.43015 169.514 9.31567 169.416 9.23153C169.318 9.14739 169.196 9.10533 169.05 9.10533C168.903 9.10533 168.778 9.14739 168.677 9.23153C168.578 9.31567 168.503 9.43015 168.452 9.57498C168.402 9.71976 168.377 9.88464 168.377 10.0694C168.377 10.2543 168.402 10.4191 168.452 10.564C168.503 10.7087 168.578 10.8232 168.677 10.9074C168.778 10.9901 168.903 11.0315 169.05 11.0315ZM173.062 10.6777L173.922 8.47431H174.593L173.353 11.6522H172.768L171.558 8.47431H172.226L173.062 10.6777ZM172.026 8.47431V11.6522H171.183V8.47431H172.026ZM174.142 11.6522V8.47431H174.974V11.6522H174.142ZM175.656 11.6522V8.47431H178.434V11.6522H177.592V9.1674H176.487V11.6522H175.656ZM179.691 9.45084H180.641C181.061 9.45084 181.389 9.55153 181.625 9.75287C181.861 9.9529 181.979 10.2205 181.979 10.5556C181.979 10.7736 181.926 10.9653 181.82 11.1308C181.714 11.2949 181.56 11.4232 181.36 11.5156C181.16 11.6066 180.92 11.6522 180.641 11.6522H179.138V8.47431H179.98V10.9591H180.641C180.788 10.9591 180.91 10.9219 181.005 10.8474C181.1 10.7729 181.148 10.6777 181.15 10.5618C181.148 10.4391 181.1 10.3391 181.005 10.2619C180.91 10.1832 180.788 10.1439 180.641 10.1439H179.691V9.45084ZM184.32 9.73015V10.4295H182.596V9.73015H184.32ZM183.277 8.47431V11.6522H182.398V8.47431H183.277ZM185.272 11.7142C184.957 11.7142 184.685 11.6439 184.457 11.5032C184.228 11.3625 184.051 11.168 183.927 10.9197C183.805 10.6715 183.743 10.3867 183.743 10.0653C183.743 9.74394 183.805 9.4605 183.927 9.21499C184.051 8.96947 184.228 8.77775 184.457 8.63982C184.685 8.50189 184.957 8.43293 185.272 8.43293C185.588 8.43293 185.859 8.50189 186.088 8.63982C186.316 8.77775 186.493 8.96947 186.615 9.21499C186.739 9.4605 186.801 9.74394 186.801 10.0653C186.801 10.3867 186.739 10.6715 186.615 10.9197C186.493 11.168 186.316 11.3625 186.088 11.5032C185.859 11.6439 185.588 11.7142 185.272 11.7142ZM185.272 11.0026C185.436 11.0026 185.569 10.9626 185.669 10.8825C185.77 10.8012 185.844 10.6901 185.891 10.5494C185.938 10.4073 185.961 10.246 185.961 10.0653C185.961 9.88464 185.938 9.72461 185.891 9.58532C185.844 9.44463 185.77 9.33429 185.669 9.25429C185.569 9.17429 185.436 9.13429 185.272 9.13429C185.11 9.13429 184.977 9.17429 184.875 9.25429C184.773 9.33292 184.698 9.44187 184.649 9.58118C184.603 9.72053 184.579 9.88182 184.579 10.0653C184.579 10.2474 184.603 10.4088 184.649 10.5494C184.698 10.6901 184.773 10.8012 184.875 10.8825C184.977 10.9626 185.11 11.0026 185.272 11.0026ZM187.093 9.1674V8.47431H189.973V9.1674H188.949V11.6522H188.109V9.1674H187.093ZM191.842 11.7142C191.514 11.7142 191.234 11.648 190.998 11.5156C190.763 11.3818 190.582 11.1929 190.456 10.9488C190.329 10.7032 190.265 10.4129 190.265 10.0778C190.265 9.75083 190.329 9.46394 190.456 9.21705C190.582 8.97016 190.761 8.77775 190.991 8.63982C191.223 8.50189 191.495 8.43293 191.807 8.43293C192.016 8.43293 192.212 8.46672 192.392 8.5343C192.574 8.60051 192.733 8.70051 192.868 8.8343C193.005 8.9681 193.111 9.13636 193.187 9.33912C193.262 9.54049 193.3 9.77637 193.3 10.0467V10.2888H190.617V9.74258H192.471C192.471 9.61566 192.443 9.50325 192.388 9.40532C192.333 9.3074 192.256 9.23084 192.158 9.17567C192.062 9.11913 191.949 9.09085 191.821 9.09085C191.687 9.09085 191.569 9.12188 191.465 9.18395C191.363 9.24464 191.283 9.3267 191.225 9.43015C191.167 9.53222 191.138 9.64601 191.137 9.77151V10.2908C191.137 10.448 191.165 10.584 191.223 10.6984C191.282 10.8129 191.366 10.9012 191.474 10.9632C191.581 11.0253 191.709 11.0564 191.856 11.0564C191.954 11.0564 192.044 11.0426 192.125 11.015C192.207 10.9873 192.277 10.946 192.334 10.8908C192.392 10.8356 192.436 10.7681 192.467 10.6881L193.282 10.7418C193.24 10.9377 193.156 11.1087 193.027 11.2549C192.9 11.3998 192.736 11.5128 192.535 11.5942C192.335 11.6742 192.104 11.7142 191.842 11.7142ZM193.876 12.8439V8.47431H194.744V9.00809H194.784C194.823 8.92257 194.878 8.83568 194.952 8.7474C195.026 8.65775 195.123 8.58327 195.242 8.52396C195.361 8.46327 195.511 8.43293 195.688 8.43293C195.92 8.43293 196.134 8.49362 196.33 8.615C196.525 8.73499 196.682 8.91637 196.799 9.15912C196.917 9.4005 196.975 9.70325 196.975 10.0674C196.975 10.4219 196.918 10.7212 196.803 10.9653C196.69 11.208 196.536 11.3921 196.34 11.5177C196.146 11.6418 195.927 11.7039 195.686 11.7039C195.515 11.7039 195.37 11.6756 195.249 11.6191C195.131 11.5625 195.034 11.4915 194.958 11.4059C194.882 11.3191 194.824 11.2315 194.784 11.1433H194.757V12.8439H193.876ZM194.739 10.0632C194.739 10.2522 194.765 10.417 194.817 10.5577C194.87 10.6984 194.945 10.8081 195.044 10.8866C195.144 10.9639 195.265 11.0026 195.407 11.0026C195.55 11.0026 195.672 10.9632 195.771 10.8846C195.871 10.8046 195.946 10.6943 195.997 10.5536C196.049 10.4115 196.075 10.2481 196.075 10.0632C196.075 9.87978 196.05 9.7184 195.999 9.57912C195.948 9.4398 195.873 9.33084 195.773 9.25222C195.674 9.1736 195.551 9.13429 195.407 9.13429C195.264 9.13429 195.143 9.17222 195.042 9.24809C194.944 9.32394 194.87 9.43153 194.817 9.57083C194.765 9.71014 194.739 9.87425 194.739 10.0632ZM199.775 9.7115V10.4046H198.115V9.7115H199.775ZM198.405 8.47431V11.6522H197.563V8.47431H198.405ZM200.327 8.47431V11.6522H199.491V8.47431H200.327ZM202.447 11.7142C202.126 11.7142 201.848 11.646 201.613 11.5094C201.38 11.3715 201.2 11.1798 201.073 10.9343C200.946 10.6874 200.883 10.4011 200.883 10.0756C200.883 9.74743 200.946 9.4605 201.073 9.21499C201.2 8.9681 201.38 8.77637 201.613 8.63982C201.848 8.50189 202.126 8.43293 202.447 8.43293C202.769 8.43293 203.046 8.50189 203.279 8.63982C203.514 8.77637 203.694 8.9681 203.821 9.21499C203.948 9.4605 204.012 9.74743 204.012 10.0756C204.012 10.4011 203.948 10.6874 203.821 10.9343C203.694 11.1798 203.514 11.3715 203.279 11.5094C203.046 11.646 202.769 11.7142 202.447 11.7142ZM202.451 11.0315C202.598 11.0315 202.719 10.9901 202.817 10.9074C202.915 10.8232 202.989 10.7087 203.039 10.564C203.09 10.4191 203.115 10.2543 203.115 10.0694C203.115 9.88464 203.09 9.71976 203.039 9.57498C202.989 9.43015 202.915 9.31567 202.817 9.23153C202.719 9.14739 202.598 9.10533 202.451 9.10533C202.304 9.10533 202.179 9.14739 202.079 9.23153C201.979 9.31567 201.904 9.43015 201.853 9.57498C201.803 9.71976 201.779 9.88464 201.779 10.0694C201.779 10.2543 201.803 10.4191 201.853 10.564C201.904 10.7087 201.979 10.8232 202.079 10.9074C202.179 10.9901 202.304 11.0315 202.451 11.0315ZM208.11 8.47431V9.1674H206.79V11.6522H205.934V8.47431H208.11ZM208.647 12.8439V8.47431H209.516V9.00809H209.556C209.595 8.92257 209.65 8.83568 209.723 8.7474C209.798 8.65775 209.895 8.58327 210.013 8.52396C210.133 8.46327 210.282 8.43293 210.46 8.43293C210.692 8.43293 210.906 8.49362 211.101 8.615C211.297 8.73499 211.454 8.91637 211.571 9.15912C211.689 9.4005 211.747 9.70325 211.747 10.0674C211.747 10.4219 211.69 10.7212 211.575 10.9653C211.462 11.208 211.308 11.3921 211.112 11.5177C210.918 11.6418 210.699 11.7039 210.458 11.7039C210.287 11.7039 210.142 11.6756 210.021 11.6191C209.903 11.5625 209.806 11.4915 209.73 11.4059C209.654 11.3191 209.596 11.2315 209.556 11.1433H209.529V12.8439H208.647ZM209.51 10.0632C209.51 10.2522 209.537 10.417 209.589 10.5577C209.641 10.6984 209.717 10.8081 209.816 10.8866C209.916 10.9639 210.037 11.0026 210.178 11.0026C210.322 11.0026 210.444 10.9632 210.543 10.8846C210.642 10.8046 210.717 10.6943 210.768 10.5536C210.82 10.4115 210.847 10.2481 210.847 10.0632C210.847 9.87978 210.821 9.7184 210.771 9.57912C210.719 9.4398 210.645 9.33084 210.545 9.25222C210.446 9.1736 210.323 9.13429 210.178 9.13429C210.035 9.13429 209.913 9.17222 209.814 9.24809C209.716 9.32394 209.641 9.43153 209.589 9.57083C209.537 9.71014 209.51 9.87425 209.51 10.0632ZM213.241 11.7122C213.038 11.7122 212.858 11.677 212.699 11.6066C212.54 11.535 212.415 11.4294 212.323 11.2901C212.231 11.1494 212.186 10.9742 212.186 10.7646C212.186 10.588 212.218 10.4398 212.283 10.3197C212.348 10.1998 212.436 10.1032 212.548 10.0301C212.66 9.95707 212.787 9.90182 212.929 9.86463C213.072 9.82735 213.222 9.80123 213.379 9.78598C213.565 9.76666 213.713 9.74879 213.827 9.73219C213.94 9.71432 214.022 9.68807 214.073 9.65359C214.124 9.61911 214.149 9.56808 214.149 9.50049V9.48808C214.149 9.35704 214.108 9.25567 214.025 9.18395C213.944 9.11222 213.828 9.07636 213.677 9.07636C213.519 9.07636 213.393 9.11153 213.299 9.18188C213.205 9.25084 213.143 9.33774 213.113 9.44256L212.297 9.37636C212.339 9.18326 212.42 9.01636 212.541 8.87567C212.663 8.73362 212.82 8.62465 213.011 8.54879C213.205 8.47155 213.428 8.43293 213.681 8.43293C213.858 8.43293 214.027 8.45362 214.188 8.495C214.351 8.53637 214.496 8.60051 214.621 8.6874C214.748 8.7743 214.848 8.88602 214.921 9.02257C214.994 9.15774 215.031 9.31981 215.031 9.50877V11.6522H214.195V11.2115H214.17C214.119 11.3108 214.05 11.3984 213.965 11.4743C213.879 11.5488 213.777 11.6073 213.657 11.6501C213.537 11.6915 213.399 11.7122 213.241 11.7122ZM213.494 11.1039C213.623 11.1039 213.738 11.0784 213.837 11.0273C213.937 10.975 214.014 10.9046 214.071 10.8163C214.127 10.7281 214.155 10.628 214.155 10.5164V10.1791C214.128 10.197 214.09 10.2136 214.042 10.2288C213.995 10.2426 213.942 10.2557 213.882 10.2681C213.823 10.2791 213.764 10.2895 213.705 10.2991C213.645 10.3074 213.591 10.315 213.543 10.3219C213.44 10.337 213.349 10.3612 213.273 10.3942C213.195 10.4273 213.135 10.4722 213.092 10.5287C213.049 10.584 213.028 10.6529 213.028 10.7356C213.028 10.8557 213.071 10.9473 213.158 11.0108C213.246 11.0729 213.358 11.1039 213.494 11.1039ZM217.236 12.7321V7.41502H218.115V12.7321H217.236ZM217.236 11.7142C216.991 11.7142 216.769 11.6749 216.568 11.5963C216.366 11.5163 216.192 11.4039 216.046 11.2591C215.899 11.1129 215.787 10.9397 215.706 10.7398C215.627 10.5384 215.587 10.317 215.587 10.0756C215.587 9.83152 215.627 9.60946 215.706 9.40946C215.787 9.20808 215.899 9.03499 216.046 8.89016C216.192 8.74396 216.366 8.63154 216.568 8.55293C216.769 8.47293 216.991 8.43293 217.236 8.43293H217.399V11.7142H217.236ZM217.236 11.0273H217.333V9.11982H217.236C217.117 9.11982 217.011 9.14464 216.919 9.19429C216.827 9.24395 216.748 9.31222 216.685 9.39912C216.622 9.48464 216.573 9.58532 216.54 9.70118C216.508 9.81705 216.493 9.94183 216.493 10.0756C216.493 10.2522 216.522 10.4129 216.579 10.5577C216.637 10.7012 216.722 10.8156 216.835 10.9012C216.946 10.9853 217.079 11.0273 217.236 11.0273ZM218.115 11.7142H217.951V8.43293H218.115C218.359 8.43293 218.582 8.47293 218.784 8.55293C218.985 8.63154 219.159 8.74396 219.305 8.89016C219.451 9.03499 219.564 9.20808 219.644 9.40946C219.724 9.60946 219.765 9.83152 219.765 10.0756C219.765 10.317 219.724 10.5384 219.644 10.7398C219.564 10.9397 219.451 11.1129 219.305 11.2591C219.159 11.4039 218.985 11.5163 218.784 11.5963C218.582 11.6749 218.359 11.7142 218.115 11.7142ZM218.115 11.0273C218.234 11.0273 218.339 11.0032 218.431 10.955C218.524 10.9053 218.602 10.837 218.665 10.7501C218.729 10.6632 218.777 10.5625 218.81 10.448C218.843 10.3322 218.859 10.2081 218.859 10.0756C218.859 9.89774 218.83 9.73704 218.771 9.59359C218.713 9.44877 218.629 9.3336 218.519 9.24809C218.408 9.16257 218.274 9.11982 218.115 9.11982H218.017V11.0273H218.115ZM221.183 10.4895L222.327 8.47431H223.196V11.6522H222.356V9.63083L221.216 11.6522H220.341V8.47431H221.183V10.4895ZM223.902 11.6522V8.47431H224.784V9.70739H225.033L225.897 8.47431H226.932L225.809 10.0509L226.945 11.6522H225.897L225.113 10.5246H224.784V11.6522H223.902ZM228.159 10.4895L229.304 8.47431H230.172V11.6522H229.332V9.63083L228.192 11.6522H227.317V8.47431H228.159V10.4895Z" fill="#71852F"/><path opacity="0.253441" d="M158.78 38.8406V200.515" stroke="#CFF64A" stroke-linecap="square"/><path opacity="0.246396" d="M369.514 173.326H158.78" stroke="#CFF64A" stroke-linecap="square"/><g opacity="0.24807"><path d="M334.068 193.717C337.555 193.717 340.381 190.892 340.381 187.406C340.381 183.92 337.555 181.094 334.068 181.094C330.582 181.094 327.756 183.92 327.756 187.406C327.756 190.892 330.582 193.717 334.068 193.717Z" stroke="#CFF64A"/><path d="M330.286 188.529C331.547 190.369 332.808 191.29 334.068 191.29C335.293 191.29 336.518 190.421 337.743 188.683C337.805 188.595 337.784 188.474 337.696 188.413C337.663 188.389 337.624 188.377 337.585 188.377H330.366C330.313 188.377 330.269 188.421 330.269 188.474C330.269 188.493 330.275 188.513 330.286 188.529Z" stroke="#CFF64A"/><path d="M332.126 186.435C332.662 186.435 333.097 185.782 333.097 184.978C333.097 184.174 332.662 183.522 332.126 183.522C331.59 183.522 331.155 184.174 331.155 184.978C331.155 185.782 331.59 186.435 332.126 186.435Z" fill="#CFF64A"/><path d="M336.01 186.435C336.546 186.435 336.982 185.782 336.982 184.978C336.982 184.174 336.546 183.522 336.01 183.522C335.474 183.522 335.039 184.174 335.039 184.978C335.039 185.782 335.474 186.435 336.01 186.435Z" fill="#CFF64A"/></g><g opacity="0.24807"><path d="M360.289 182.551C360.289 181.478 359.42 180.609 358.347 180.609C357.273 180.609 356.404 181.478 356.404 182.551V187.406C356.404 188.479 357.273 189.348 358.347 189.348C359.42 189.348 360.289 188.479 360.289 187.406V182.551Z" fill="#CFF64A"/><path d="M361.745 185.949H354.948V187.406C354.948 189.283 356.469 190.804 358.346 190.804C360.224 190.804 361.745 189.283 361.745 187.406V185.949Z" stroke="#CFF64A"/><path d="M358.454 191.29V193.232" stroke="#CFF64A" stroke-linecap="round"/></g><path opacity="0.0629185" d="M159.265 38.8406H1.94214V73.7971H159.265V38.8406Z" fill="#CFF64A"/><path opacity="0.24807" d="M167.034 186.436L171.872 182.289C172.958 181.358 174.591 181.476 175.532 182.552C176.442 183.593 176.337 185.174 175.296 186.085C175.277 186.102 175.258 186.118 175.239 186.134L170.037 190.418C169.435 190.913 168.556 190.87 168.005 190.32C167.516 189.83 167.516 189.036 168.005 188.546C168.032 188.52 168.06 188.494 168.089 188.47L172.861 184.494" stroke="#CFF64A" stroke-linecap="round"/><path opacity="0.496489" fill-rule="evenodd" clip-rule="evenodd" d="M185.664 182.547V185.623H188.997V182.547H190.186V190.319H188.997V186.742H185.664V190.319H184.476V182.547H185.664ZM195.527 185.984V185.413H196.669V190.319H195.527V189.806C195.026 190.389 194.408 190.47 194.059 190.47C192.544 190.47 191.681 189.212 191.681 187.86C191.681 186.264 192.777 185.285 194.07 185.285C194.432 185.285 195.061 185.378 195.527 185.984ZM194.21 186.31C193.383 186.31 192.847 187.01 192.847 187.884C192.847 188.734 193.383 189.445 194.21 189.445C194.933 189.445 195.597 188.921 195.597 187.895C195.597 186.823 194.933 186.31 194.21 186.31ZM198.211 185.413H202.476V190.319H201.334V186.462H199.353V190.319H198.211V185.413ZM204.019 185.413H205.161V188.198L208.517 184.97V190.319H207.375V187.464L204.019 190.692V185.413ZM213.858 185.635V186.916C213.334 186.404 212.821 186.31 212.471 186.31C211.935 186.31 211.597 186.532 211.387 186.742C211.178 186.951 210.968 187.324 210.968 187.872C210.968 188.443 211.189 188.827 211.411 189.049C211.667 189.293 212.028 189.445 212.448 189.445C212.914 189.445 213.462 189.258 213.858 188.816V190.086C213.578 190.261 213.124 190.47 212.366 190.47C211.551 190.47 210.968 190.237 210.502 189.748C210.152 189.387 209.803 188.804 209.803 187.907C209.803 186.986 210.187 186.369 210.548 186.008C210.933 185.623 211.551 185.285 212.518 185.285C212.891 185.285 213.334 185.343 213.858 185.635ZM218.64 185.984V185.413H219.782V190.319H218.64V189.806C218.139 190.389 217.521 190.47 217.172 190.47C215.657 190.47 214.794 189.212 214.794 187.86C214.794 186.264 215.89 185.285 217.183 185.285C217.544 185.285 218.174 185.378 218.64 185.984ZM217.323 186.31C216.496 186.31 215.96 187.01 215.96 187.884C215.96 188.734 216.496 189.445 217.323 189.445C218.046 189.445 218.71 188.921 218.71 187.895C218.71 186.823 218.046 186.31 217.323 186.31ZM224.704 186.462H223.27V190.319H222.128V186.462H220.695V185.413H224.704V186.462ZM225.616 190.319V185.413H226.759V187.149H227.411C227.889 187.149 228.448 187.161 228.891 187.65C229.217 188.012 229.276 188.431 229.276 188.722C229.276 189.293 229.054 189.678 228.833 189.899C228.402 190.319 227.889 190.319 227.399 190.319H225.616ZM226.759 189.34H227.283C227.504 189.34 227.726 189.328 227.877 189.235C227.959 189.177 228.134 189.037 228.134 188.734C228.134 188.489 228.029 188.338 227.889 188.245C227.702 188.128 227.469 188.128 227.295 188.128H226.759V189.34ZM236.986 185.635V186.916C236.462 186.404 235.949 186.31 235.6 186.31C235.064 186.31 234.726 186.532 234.516 186.742C234.306 186.951 234.096 187.324 234.096 187.872C234.096 188.443 234.318 188.827 234.539 189.049C234.796 189.293 235.157 189.445 235.576 189.445C236.043 189.445 236.59 189.258 236.986 188.816V190.086C236.707 190.261 236.252 190.47 235.495 190.47C234.679 190.47 234.096 190.237 233.63 189.748C233.281 189.387 232.931 188.804 232.931 187.907C232.931 186.986 233.316 186.369 233.677 186.008C234.061 185.623 234.679 185.285 235.646 185.285C236.019 185.285 236.462 185.343 236.986 185.635ZM240.545 185.285C242.025 185.285 243.167 186.357 243.167 187.872C243.167 189.375 242.025 190.47 240.545 190.47C239.065 190.47 237.923 189.375 237.923 187.872C237.923 186.357 239.065 185.285 240.545 185.285ZM240.545 189.445C241.442 189.445 242.001 188.827 242.001 187.884C242.001 186.765 241.267 186.31 240.545 186.31C239.822 186.31 239.088 186.765 239.088 187.884C239.088 188.827 239.647 189.445 240.545 189.445ZM246.818 185.285C248.298 185.285 249.44 186.357 249.44 187.872C249.44 189.375 248.298 190.47 246.818 190.47C245.338 190.47 244.196 189.375 244.196 187.872C244.196 186.357 245.338 185.285 246.818 185.285ZM246.818 189.445C247.715 189.445 248.275 188.827 248.275 187.884C248.275 186.765 247.541 186.31 246.818 186.31C246.096 186.31 245.361 186.765 245.361 187.884C245.361 188.827 245.921 189.445 246.818 189.445ZM254.432 182.046H255.597C255.434 182.85 254.851 183.479 254.059 183.7L253.29 183.91C252.835 184.038 252.369 184.166 252.02 184.644C251.751 185.005 251.623 185.576 251.612 185.973H251.623C252.054 185.39 252.812 185.285 253.29 185.285C254.036 185.285 254.595 185.565 255.003 185.984C255.422 186.415 255.714 187.056 255.714 187.849C255.714 189.387 254.572 190.47 253.092 190.47C252.229 190.47 251.635 190.144 251.297 189.818C250.493 189.06 250.47 187.977 250.47 187.301C250.47 185.833 250.656 184.749 251.215 183.933C251.577 183.397 252.02 183.048 252.684 182.885L253.5 182.687C254.21 182.512 254.374 182.244 254.432 182.046ZM253.092 189.445C253.989 189.445 254.548 188.827 254.548 187.884C254.548 186.765 253.814 186.31 253.092 186.31C252.369 186.31 251.635 186.765 251.635 187.884C251.635 188.827 252.194 189.445 253.092 189.445ZM256.999 190.319V185.413H258.142V189.27H259.773V185.413H260.915V189.27H262.547V185.413H263.689V189.27H264.504V191.717H263.456V190.319H256.999ZM268.855 188.664L269.811 189.2C269.601 189.573 269.298 189.899 268.983 190.097C268.587 190.354 268.063 190.47 267.538 190.47C266.886 190.47 266.349 190.307 265.883 189.841C265.417 189.375 265.161 188.699 265.161 187.965C265.161 187.208 265.429 186.474 265.942 185.949C266.349 185.541 266.886 185.285 267.585 185.285C268.366 185.285 268.867 185.623 269.158 185.926C269.787 186.578 269.846 187.487 269.846 188V188.14H266.326C266.349 188.489 266.501 188.886 266.746 189.13C267.014 189.398 267.34 189.445 267.62 189.445C267.934 189.445 268.167 189.375 268.401 189.2C268.599 189.049 268.75 188.851 268.855 188.664ZM266.408 187.208H268.68C268.634 186.94 268.505 186.707 268.331 186.544C268.179 186.404 267.934 186.264 267.561 186.264C267.165 186.264 266.909 186.427 266.757 186.578C266.594 186.73 266.466 186.963 266.408 187.208ZM271.131 190.319V185.413H272.273V187.231H274.301V185.413H275.443V190.319H274.301V188.28H272.273V190.319H271.131ZM276.985 185.413H278.127V188.198L281.484 184.97V190.319H280.342V187.464L276.985 190.692V185.413ZM286.464 188.664L287.419 189.2C287.209 189.573 286.906 189.899 286.592 190.097C286.195 190.354 285.671 190.47 285.147 190.47C284.494 190.47 283.958 190.307 283.492 189.841C283.026 189.375 282.769 188.699 282.769 187.965C282.769 187.208 283.037 186.474 283.55 185.949C283.958 185.541 284.494 185.285 285.193 185.285C285.974 185.285 286.475 185.623 286.766 185.926C287.396 186.578 287.454 187.487 287.454 188V188.14H283.935C283.958 188.489 284.11 188.886 284.354 189.13C284.622 189.398 284.949 189.445 285.228 189.445C285.543 189.445 285.776 189.375 286.009 189.2C286.207 189.049 286.359 188.851 286.464 188.664ZM284.016 187.208H286.289C286.242 186.94 286.114 186.707 285.939 186.544C285.788 186.404 285.543 186.264 285.17 186.264C284.774 186.264 284.517 186.427 284.366 186.578C284.203 186.73 284.075 186.963 284.016 187.208ZM288.95 189.76C288.95 189.375 289.264 189.06 289.649 189.06C290.033 189.06 290.348 189.375 290.348 189.76C290.348 190.144 290.033 190.459 289.649 190.459C289.264 190.459 288.95 190.144 288.95 189.76ZM291.98 189.76C291.98 189.375 292.294 189.06 292.679 189.06C293.063 189.06 293.378 189.375 293.378 189.76C293.378 190.144 293.063 190.459 292.679 190.459C292.294 190.459 291.98 190.144 291.98 189.76ZM295.009 189.76C295.009 189.375 295.324 189.06 295.709 189.06C296.093 189.06 296.408 189.375 296.408 189.76C296.408 190.144 296.093 190.459 295.709 190.459C295.324 190.459 295.009 190.144 295.009 189.76Z" fill="#CFF64A"/><path opacity="0.246745" d="M1.94214 73.3116H158.779" stroke="#CFF64A" stroke-linecap="square"/><g opacity="0.246024"><path d="M1.94214 108.268H158.779" stroke="#CFF64A" stroke-linecap="square"/><path d="M0.971069 142.254H157.808" stroke="#CFF64A" stroke-linecap="square"/><path d="M0.971069 176.239H157.808" stroke="#CFF64A" stroke-linecap="square"/><path d="M19.4225 102.442C25.5904 102.442 30.5905 97.4423 30.5905 91.2754C30.5905 85.1082 25.5904 80.1087 19.4225 80.1087C13.2546 80.1087 8.25452 85.1082 8.25452 91.2754C8.25452 97.4423 13.2546 102.442 19.4225 102.442Z" stroke="#CFF64A"/><path d="M19.4225 137.399C25.5904 137.399 30.5905 132.399 30.5905 126.232C30.5905 120.065 25.5904 115.065 19.4225 115.065C13.2546 115.065 8.25452 120.065 8.25452 126.232C8.25452 132.399 13.2546 137.399 19.4225 137.399Z" stroke="#CFF64A"/><path d="M18.4514 171.384C24.6194 171.384 29.6194 166.384 29.6194 160.217C29.6194 154.05 24.6194 149.051 18.4514 149.051C12.2835 149.051 7.28345 154.05 7.28345 160.217C7.28345 166.384 12.2835 171.384 18.4514 171.384Z" stroke="#CFF64A"/><path d="M88.3727 87.3913H41.7585C41.2221 87.3913 40.7874 87.826 40.7874 88.3623C40.7874 88.8986 41.2221 89.3333 41.7585 89.3333H88.3727C88.909 89.3333 89.3438 88.8986 89.3438 88.3623C89.3438 87.826 88.909 87.3913 88.3727 87.3913Z" fill="#CFF64A"/><path d="M88.3727 121.377H41.7585C41.2221 121.377 40.7874 121.812 40.7874 122.348C40.7874 122.884 41.2221 123.319 41.7585 123.319H88.3727C88.909 123.319 89.3438 122.884 89.3438 122.348C89.3438 121.812 88.909 121.377 88.3727 121.377Z" fill="#CFF64A"/><path d="M88.3727 154.391H41.7585C41.2221 154.391 40.7874 154.826 40.7874 155.362C40.7874 155.898 41.2221 156.333 41.7585 156.333H88.3727C88.909 156.333 89.3438 155.898 89.3438 155.362C89.3438 154.826 88.909 154.391 88.3727 154.391Z" fill="#CFF64A"/></g><path d="M20.3937 67.4855C26.5616 67.4855 31.5617 62.486 31.5617 56.3188C31.5617 50.1516 26.5616 45.1522 20.3937 45.1522C14.2258 45.1522 9.22571 50.1516 9.22571 56.3188C9.22571 62.486 14.2258 67.4855 20.3937 67.4855Z" stroke="#CFF64A"/><path opacity="0.500535" fill-rule="evenodd" clip-rule="evenodd" d="M133.996 53.6072L133.35 53.1265L134.722 51.37C134.608 51.3962 134.512 51.4049 134.407 51.4049C133.717 51.4049 133.28 51.0991 133.044 50.8631C132.746 50.566 132.51 50.1377 132.51 49.5347C132.51 48.9492 132.738 48.4336 133.087 48.0753C133.454 47.6995 133.944 47.481 134.591 47.481C135.386 47.481 135.849 47.8044 136.094 48.0578C136.339 48.3113 136.601 48.7307 136.601 49.3774C136.601 49.7969 136.505 50.129 136.321 50.4873C136.103 50.9243 135.875 51.1864 135.613 51.5273L133.996 53.6072ZM134.547 50.6446C134.844 50.6446 135.159 50.531 135.386 50.295C135.605 50.0678 135.727 49.7357 135.727 49.4299C135.727 49.1153 135.605 48.8094 135.386 48.5997C135.168 48.3899 134.853 48.2676 134.556 48.2676C134.232 48.2676 133.918 48.4161 133.725 48.5997C133.533 48.7919 133.385 49.0978 133.385 49.4561C133.385 49.7794 133.507 50.1028 133.725 50.3213C133.918 50.5048 134.224 50.6446 134.547 50.6446ZM137.615 50.1552C137.615 49.8668 137.851 49.6309 138.139 49.6309C138.428 49.6309 138.664 49.8668 138.664 50.1552C138.664 50.4436 138.428 50.6796 138.139 50.6796C137.851 50.6796 137.615 50.4436 137.615 50.1552ZM137.615 52.9954C137.615 52.707 137.851 52.4711 138.139 52.4711C138.428 52.4711 138.664 52.707 138.664 52.9954C138.664 53.2838 138.428 53.5198 138.139 53.5198C137.851 53.5198 137.615 53.2838 137.615 52.9954ZM140.691 49.0628H139.835C139.861 48.5909 140.062 48.1889 140.333 47.9267C140.735 47.5422 141.224 47.481 141.609 47.481C142.055 47.481 142.492 47.5684 142.868 47.9617C143.173 48.2763 143.287 48.6521 143.287 49.0716C143.287 49.3512 143.235 49.5959 143.086 49.8406C142.929 50.094 142.728 50.2426 142.562 50.33C142.859 50.4436 143.042 50.6446 143.139 50.7932C143.305 51.0379 143.383 51.3612 143.383 51.6933C143.383 52.2701 143.165 52.7158 142.885 52.9954C142.466 53.4149 141.915 53.5023 141.46 53.5023C141.015 53.5023 140.534 53.4149 140.158 53.0129C139.896 52.7333 139.704 52.2701 139.66 51.8244H140.516C140.56 52.0866 140.683 52.3138 140.831 52.4536C140.953 52.5672 141.172 52.7158 141.539 52.7158C141.81 52.7158 142.063 52.6109 142.221 52.4711C142.387 52.3138 142.527 52.0429 142.527 51.6496C142.527 51.4574 142.492 51.1777 142.265 50.9592C142.011 50.7145 141.696 50.697 141.513 50.697H141.338V49.9455H141.46C141.836 49.9455 142.072 49.8231 142.203 49.692C142.343 49.5522 142.431 49.3337 142.431 49.0716C142.431 48.7657 142.299 48.5822 142.203 48.486C142.002 48.2938 141.758 48.2676 141.583 48.2676C141.373 48.2676 141.128 48.3025 140.936 48.5035C140.735 48.7133 140.691 49.0279 140.691 49.0628ZM144.039 53.1702L146.941 48.3987H144.074V47.5772H148.409L144.738 53.6072L144.039 53.1702Z" fill="#CFF64A"/><g opacity="0.500535"><path d="M146.093 59.9726L147.473 61.3526C147.852 61.7318 147.852 62.3466 147.473 62.7258L145.413 64.7856L145.487 64.9593C145.697 65.453 145.466 66.0231 144.972 66.2326C144.608 66.3873 144.186 66.3053 143.906 66.0254L141.45 63.5697C141.071 63.1905 141.071 62.5757 141.45 62.1965C141.709 61.9378 142.091 61.8464 142.438 61.9602L142.66 62.0324L144.72 59.9726C145.098 59.5933 145.714 59.5933 146.093 59.9726Z" fill="#CFF64A"/><path d="M142.316 64.4359L143.003 65.1225L139.429 68.1462C139.388 68.1808 139.327 68.1758 139.292 68.1348C139.261 68.0986 139.261 68.0456 139.292 68.0094L142.316 64.4359Z" fill="#CFF64A"/></g><path opacity="0.249628" d="M123.333 62.1449H41.7585C41.2221 62.1449 40.7874 62.5797 40.7874 63.1159C40.7874 63.6522 41.2221 64.087 41.7585 64.087H123.333C123.869 64.087 124.304 63.6522 124.304 63.1159C124.304 62.5797 123.869 62.1449 123.333 62.1449Z" fill="#CFF64A"/><path d="M18.0941 60.2029V53.141H22.7704V54.3719H19.5873V56.0547H22.46V57.2857H19.5873V60.2029H18.0941Z" fill="#CFF64A"/><path opacity="0.127465" d="M146.64 22.3333H34.9606C33.3516 22.3333 32.0472 23.6375 32.0472 25.2464V32.0435C32.0472 33.6523 33.3516 34.9565 34.9606 34.9565H146.64C148.25 34.9565 149.554 33.6523 149.554 32.0435V25.2464C149.554 23.6375 148.25 22.3333 146.64 22.3333Z" fill="#CFF64A"/><path d="M42.7848 25.4229V31.0725H42.1006V26.0298H39.2535V31.0725H38.5692V25.4229H42.7848ZM45.7982 31.1607C45.4157 31.1607 45.0799 31.0697 44.7912 30.8877C44.5043 30.7056 44.2799 30.4508 44.118 30.1235C43.958 29.7962 43.878 29.4137 43.878 28.976C43.878 28.5346 43.958 28.1493 44.118 27.8202C44.2799 27.491 44.5043 27.2353 44.7912 27.0532C45.0799 26.8712 45.4157 26.7801 45.7982 26.7801C46.1807 26.7801 46.5155 26.8712 46.8024 27.0532C47.0912 27.2353 47.3156 27.491 47.4756 27.8202C47.6374 28.1493 47.7184 28.5346 47.7184 28.976C47.7184 29.4137 47.6374 29.7962 47.4756 30.1235C47.3156 30.4508 47.0912 30.7056 46.8024 30.8877C46.5155 31.0697 46.1807 31.1607 45.7982 31.1607ZM45.7982 30.5759C46.0888 30.5759 46.3279 30.5014 46.5155 30.3525C46.7031 30.2035 46.842 30.0077 46.9321 29.7649C47.0222 29.5221 47.0673 29.2592 47.0673 28.976C47.0673 28.6927 47.0222 28.4289 46.9321 28.1843C46.842 27.9397 46.7031 27.742 46.5155 27.5912C46.3279 27.4404 46.0888 27.3649 45.7982 27.3649C45.5076 27.3649 45.2684 27.4404 45.0809 27.5912C44.8933 27.742 44.7544 27.9397 44.6643 28.1843C44.5742 28.4289 44.5291 28.6927 44.5291 28.976C44.5291 29.2592 44.5742 29.5221 44.6643 29.7649C44.7544 30.0077 44.8933 30.2035 45.0809 30.3525C45.2684 30.5014 45.5076 30.5759 45.7982 30.5759ZM49.3634 30.1125L51.4049 26.8353H52.1554V31.0725H51.5043V27.7953L49.4737 31.0725H48.7123V26.8353H49.3634V30.1125ZM55.0695 31.1607C54.6722 31.1607 54.33 31.0669 54.0432 30.8793C53.7562 30.6918 53.5355 30.4334 53.381 30.1042C53.2265 29.775 53.1493 29.3989 53.1493 28.976C53.1493 28.5456 53.2283 28.1658 53.3865 27.8367C53.5465 27.5056 53.7691 27.2473 54.0542 27.0615C54.3411 26.8739 54.6759 26.7801 55.0584 26.7801C55.3563 26.7801 55.6249 26.8353 55.864 26.9457C56.1031 27.056 56.299 27.2105 56.4517 27.4091C56.6043 27.6077 56.699 27.8395 56.7358 28.1043H56.0847C56.0351 27.9111 55.9247 27.7401 55.7536 27.5912C55.5845 27.4404 55.3563 27.3649 55.0695 27.3649C54.8156 27.3649 54.593 27.4312 54.4018 27.5636C54.2123 27.6941 54.0642 27.879 53.9576 28.1181C53.8527 28.3553 53.8004 28.6339 53.8004 28.9539C53.8004 29.2812 53.8519 29.5663 53.9548 29.8091C54.0597 30.0518 54.2068 30.2403 54.3963 30.3745C54.5876 30.5088 54.8119 30.5759 55.0695 30.5759C55.2386 30.5759 55.3923 30.5465 55.5302 30.4876C55.6682 30.4288 55.7849 30.3442 55.8806 30.2339C55.9762 30.1235 56.0443 29.9911 56.0847 29.8367H56.7358C56.699 30.0867 56.608 30.3121 56.4626 30.5125C56.3192 30.7111 56.1289 30.8692 55.8916 30.9869C55.6561 31.1028 55.3821 31.1607 55.0695 31.1607ZM57.6876 31.0725V26.8353H58.3388V28.678H58.7691L60.292 26.8353H61.1308L59.4202 28.8766L61.1528 31.0725H60.314L58.9236 29.2849H58.3388V31.0725H57.6876Z" fill="#CFF64A"/><path fill-rule="evenodd" clip-rule="evenodd" d="M169.621 31.0716V28.1449C169.204 28.177 168.499 28.2197 168.168 28.2197C167.688 28.2197 166.929 28.177 166.427 27.7818C165.765 27.2584 165.733 26.3932 165.733 26.0514V23.9473H166.822V25.8912C166.822 26.1903 166.822 26.6923 167.207 26.9914C167.453 27.1836 167.848 27.2157 168.339 27.2157C168.809 27.2157 169.236 27.1836 169.621 27.1409V23.9473H170.711V31.0716H169.621ZM175.809 27.0982V26.5748H176.856V31.0716H175.809V30.6016C175.35 31.1357 174.784 31.2104 174.463 31.2104C173.074 31.2104 172.284 30.0569 172.284 28.8179C172.284 27.3545 173.288 26.4573 174.474 26.4573C174.805 26.4573 175.382 26.5428 175.809 27.0982ZM174.602 27.3973C173.844 27.3973 173.352 28.0381 173.352 28.8392C173.352 29.6189 173.844 30.2705 174.602 30.2705C175.264 30.2705 175.873 29.7898 175.873 28.8499C175.873 27.8672 175.264 27.3973 174.602 27.3973ZM181.57 27.5361H180.256V31.0716H179.209V27.5361H177.895V26.5748H181.57V27.5361ZM188.872 26.7778V27.9527C188.391 27.4827 187.921 27.3973 187.601 27.3973C187.109 27.3973 186.799 27.6002 186.607 27.7925C186.415 27.9847 186.223 28.3265 186.223 28.8285C186.223 29.3519 186.425 29.7044 186.628 29.9073C186.863 30.1316 187.195 30.2705 187.579 30.2705C188.006 30.2705 188.509 30.0996 188.872 29.6937V30.858C188.615 31.0182 188.199 31.2104 187.504 31.2104C186.757 31.2104 186.223 30.9968 185.795 30.5482C185.475 30.2171 185.154 29.683 185.154 28.8606C185.154 28.0168 185.507 27.4507 185.838 27.1196C186.19 26.7671 186.757 26.4573 187.643 26.4573C187.985 26.4573 188.391 26.5107 188.872 26.7778ZM192.948 26.5748H196.857V31.0716H195.81V27.5361H193.994V31.0716H192.948V26.5748ZM199.52 30.5482V33.5176H198.473V26.5748H199.52V27.0661C199.905 26.6069 200.407 26.4573 200.855 26.4573C202.041 26.4573 203.045 27.3652 203.045 28.7965C203.045 30.3132 201.934 31.2104 200.866 31.2104C200.62 31.2104 199.99 31.125 199.52 30.5482ZM200.727 27.3973C200.065 27.3973 199.456 27.8672 199.456 28.8499C199.456 29.7898 200.065 30.2705 200.727 30.2705C201.486 30.2705 201.977 29.6189 201.977 28.8392C201.977 28.0381 201.486 27.3973 200.727 27.3973ZM207.578 29.5549L208.454 30.0462C208.261 30.388 207.984 30.6871 207.695 30.8686C207.332 31.1036 206.851 31.2104 206.371 31.2104C205.772 31.2104 205.281 31.0609 204.854 30.6337C204.426 30.2064 204.191 29.5869 204.191 28.914C204.191 28.2197 204.437 27.5468 204.907 27.0661C205.281 26.6923 205.772 26.4573 206.413 26.4573C207.129 26.4573 207.588 26.7671 207.855 27.0448C208.432 27.6429 208.486 28.4761 208.486 28.946V29.0742H205.26C205.281 29.3946 205.42 29.7578 205.644 29.9821C205.89 30.2278 206.189 30.2705 206.445 30.2705C206.734 30.2705 206.947 30.2064 207.161 30.0462C207.343 29.9073 207.481 29.7258 207.578 29.5549ZM205.334 28.2197H207.417C207.375 27.974 207.257 27.7604 207.097 27.6109C206.958 27.4827 206.734 27.3545 206.392 27.3545C206.029 27.3545 205.794 27.5041 205.655 27.6429C205.505 27.7818 205.388 27.9954 205.334 28.2197ZM209.867 26.5748H213.776V31.0716H212.729V27.5361H210.913V31.0716H209.867V26.5748ZM217.561 26.4573C218.917 26.4573 219.964 27.44 219.964 28.8285C219.964 30.2064 218.917 31.2104 217.561 31.2104C216.204 31.2104 215.157 30.2064 215.157 28.8285C215.157 27.44 216.204 26.4573 217.561 26.4573ZM217.561 30.2705C218.383 30.2705 218.896 29.7044 218.896 28.8392C218.896 27.8138 218.223 27.3973 217.561 27.3973C216.899 27.3973 216.226 27.8138 216.226 28.8392C216.226 29.7044 216.738 30.2705 217.561 30.2705ZM221.73 26.5748H225.106V30.1103H225.789V32.3533H224.828V31.0716H221.687V32.3533H220.726V30.1103C221.132 30.0889 221.409 29.8005 221.548 29.5228C221.676 29.2451 221.73 28.8819 221.73 28.3372V26.5748ZM224.059 30.1103V27.5361H222.734V28.7324C222.734 29.5121 222.488 29.8967 222.211 30.1103H224.059ZM230.118 27.0982V26.5748H231.165V31.0716H230.118V30.6016C229.659 31.1357 229.093 31.2104 228.773 31.2104C227.384 31.2104 226.593 30.0569 226.593 28.8179C226.593 27.3545 227.597 26.4573 228.783 26.4573C229.114 26.4573 229.691 26.5428 230.118 27.0982ZM228.911 27.3973C228.153 27.3973 227.662 28.0381 227.662 28.8392C227.662 29.6189 228.153 30.2705 228.911 30.2705C229.574 30.2705 230.183 29.7898 230.183 28.8499C230.183 27.8672 229.574 27.3973 228.911 27.3973ZM232.781 26.5748H234.544C234.811 26.5748 235.228 26.5855 235.569 26.8418C235.73 26.97 235.986 27.237 235.986 27.707C235.986 28.0702 235.815 28.4013 235.452 28.5829C235.666 28.6256 235.89 28.7324 236.061 28.8819C236.264 29.0635 236.413 29.3412 236.413 29.7471C236.413 30.2919 236.146 30.6016 235.922 30.7725C235.548 31.0502 235.089 31.0716 234.886 31.0716H232.781V26.5748ZM233.828 28.3265H234.362C234.608 28.3265 234.747 28.2518 234.779 28.2304C234.95 28.1236 234.982 27.974 234.982 27.8672C234.982 27.707 234.907 27.5895 234.8 27.5148C234.661 27.4186 234.501 27.4293 234.341 27.4293H233.828V28.3265ZM233.828 30.2171H234.608C234.779 30.2171 234.993 30.1957 235.153 30.0889C235.249 30.0248 235.366 29.8967 235.366 29.6937C235.366 29.4908 235.27 29.3626 235.164 29.2985C235.003 29.1917 234.79 29.181 234.64 29.181H233.828V30.2171ZM241.084 27.0982V26.5748H242.131V31.0716H241.084V30.6016C240.625 31.1357 240.059 31.2104 239.738 31.2104C238.35 31.2104 237.559 30.0569 237.559 28.8179C237.559 27.3545 238.563 26.4573 239.749 26.4573C240.08 26.4573 240.657 26.5428 241.084 27.0982ZM239.877 27.3973C239.119 27.3973 238.628 28.0381 238.628 28.8392C238.628 29.6189 239.119 30.2705 239.877 30.2705C240.54 30.2705 241.149 29.7898 241.149 28.8499C241.149 27.8672 240.54 27.3973 239.877 27.3973ZM246.845 27.5361H245.531V31.0716H244.484V27.5361H243.17V26.5748H246.845V27.5361ZM250.918 29.5549L251.794 30.0462C251.602 30.388 251.324 30.6871 251.036 30.8686C250.672 31.1036 250.192 31.2104 249.711 31.2104C249.113 31.2104 248.621 31.0609 248.194 30.6337C247.767 30.2064 247.532 29.5869 247.532 28.914C247.532 28.2197 247.778 27.5468 248.248 27.0661C248.621 26.6923 249.113 26.4573 249.754 26.4573C250.469 26.4573 250.929 26.7671 251.196 27.0448C251.773 27.6429 251.826 28.4761 251.826 28.946V29.0742H248.6C248.621 29.3946 248.76 29.7578 248.985 29.9821C249.23 30.2278 249.529 30.2705 249.786 30.2705C250.074 30.2705 250.288 30.2064 250.502 30.0462C250.683 29.9073 250.822 29.7258 250.918 29.5549ZM248.675 28.2197H250.758C250.715 27.974 250.598 27.7604 250.437 27.6109C250.299 27.4827 250.074 27.3545 249.732 27.3545C249.369 27.3545 249.134 27.5041 248.995 27.6429C248.846 27.7818 248.728 27.9954 248.675 28.2197ZM256.903 26.5748V31.0716H255.856V27.5361H254.532V29.3199C254.532 29.7044 254.478 30.2064 254.104 30.6123C253.698 31.0609 253.111 31.1464 252.63 31.0716V30.1103C252.94 30.185 253.228 30.0676 253.367 29.9073C253.506 29.7364 253.528 29.4908 253.528 29.3199V26.5748H256.903ZM261.67 29.5549L262.546 30.0462C262.354 30.388 262.076 30.6871 261.788 30.8686C261.425 31.1036 260.944 31.2104 260.463 31.2104C259.865 31.2104 259.374 31.0609 258.946 30.6337C258.519 30.2064 258.284 29.5869 258.284 28.914C258.284 28.2197 258.53 27.5468 259 27.0661C259.374 26.6923 259.865 26.4573 260.506 26.4573C261.222 26.4573 261.681 26.7671 261.948 27.0448C262.525 27.6429 262.578 28.4761 262.578 28.946V29.0742H259.352C259.374 29.3946 259.513 29.7578 259.737 29.9821C259.983 30.2278 260.282 30.2705 260.538 30.2705C260.827 30.2705 261.04 30.2064 261.254 30.0462C261.435 29.9073 261.574 29.7258 261.67 29.5549ZM259.427 28.2197H261.51C261.467 27.974 261.35 27.7604 261.19 27.6109C261.051 27.4827 260.827 27.3545 260.485 27.3545C260.122 27.3545 259.886 27.5041 259.748 27.6429C259.598 27.7818 259.481 27.9954 259.427 28.2197ZM263.447 31.0716L264.536 26.1689L266.395 29.5976L268.254 26.1689L269.343 31.0716H268.275L267.826 28.8179L266.395 31.4134L264.964 28.8179L264.515 31.0716H263.447Z" fill="#CFF64A"/><g opacity="0.249605"><path d="M352.52 26.2174C353.056 26.2174 353.491 25.7827 353.491 25.2464C353.491 24.7101 353.056 24.2754 352.52 24.2754C351.984 24.2754 351.549 24.7101 351.549 25.2464C351.549 25.7827 351.984 26.2174 352.52 26.2174Z" fill="#CFF64A"/><path d="M352.52 29.1304C353.056 29.1304 353.491 28.6957 353.491 28.1594C353.491 27.6231 353.056 27.1884 352.52 27.1884C351.984 27.1884 351.549 27.6231 351.549 28.1594C351.549 28.6957 351.984 29.1304 352.52 29.1304Z" fill="#CFF64A"/><path d="M352.52 32.0435C353.056 32.0435 353.491 31.6087 353.491 31.0725C353.491 30.5362 353.056 30.1014 352.52 30.1014C351.984 30.1014 351.549 30.5362 351.549 31.0725C351.549 31.6087 351.984 32.0435 352.52 32.0435Z" fill="#CFF64A"/></g><g opacity="0.252837"><path d="M330.184 30.587C332.061 30.587 333.583 29.0654 333.583 27.1884C333.583 25.3114 332.061 23.7899 330.184 23.7899C328.306 23.7899 326.785 25.3114 326.785 27.1884C326.785 29.0654 328.306 30.587 330.184 30.587Z" stroke="#CFF64A"/><path d="M327.756 29.6159L324.515 32.8565" stroke="#CFF64A" stroke-linecap="round"/></g><g opacity="0.247163"><path d="M10.6824 25.7319H22.3359" stroke="#CFF64A" stroke-linecap="round"/><path d="M10.6824 28.6449H22.3359" stroke="#CFF64A" stroke-linecap="round"/><path d="M10.6824 31.558H22.3359" stroke="#CFF64A" stroke-linecap="round"/></g><path opacity="0.495303" d="M212.677 71.3696C210.264 71.3696 208.307 73.3259 208.307 75.7391V102.928C208.307 105.341 210.264 107.297 212.677 107.297H355.618C355.763 107.297 355.901 107.231 355.993 107.118C356.163 106.911 356.132 106.605 355.925 106.435L351.485 102.819C350.241 101.805 349.519 100.284 349.519 98.6793V75.7391C349.519 73.3259 347.562 71.3696 345.149 71.3696H212.677Z" fill="#BB9A6A" fill-opacity="0.145522" stroke="#CFF64A"/><g opacity="0.746605"><path d="M238.898 78.1667H219.475C218.134 78.1667 217.047 79.2535 217.047 80.5942V98.0725C217.047 99.4134 218.134 100.5 219.475 100.5H238.898C240.239 100.5 241.325 99.4134 241.325 98.0725V80.5942C241.325 79.2535 240.239 78.1667 238.898 78.1667Z" stroke="#CFF64A"/><path d="M223.359 86.4203C224.433 86.4203 225.302 85.5508 225.302 84.4783C225.302 83.4057 224.433 82.5362 223.359 82.5362C222.286 82.5362 221.417 83.4057 221.417 84.4783C221.417 85.5508 222.286 86.4203 223.359 86.4203Z" fill="#CFF64A"/><path d="M218.075 99.2493L224.773 89.786C224.835 89.6985 224.956 89.6777 225.044 89.7397C225.053 89.7466 225.062 89.7543 225.071 89.7628L228.989 93.7901C229.064 93.867 229.187 93.8686 229.264 93.7939C229.28 93.7781 229.293 93.7598 229.303 93.7396L233.375 85.3712C233.398 85.3229 233.456 85.3028 233.505 85.3263C233.522 85.3351 233.537 85.3493 233.547 85.3668L239.82 96.76C239.852 96.8185 239.878 96.8801 239.898 96.9438L240.455 98.7599C240.612 99.2726 240.324 99.8154 239.811 99.9727C239.719 100.001 239.623 100.015 239.526 100.015H218.471C218.203 100.015 217.985 99.798 217.985 99.53C217.985 99.429 218.016 99.3309 218.075 99.2493Z" fill="#CFF64A" stroke="#CFF64A"/></g><path fill-rule="evenodd" clip-rule="evenodd" d="M250.512 77.6778H251.689C252.691 77.6778 253.321 77.8059 253.834 78.2837C254.253 78.6798 254.451 79.1809 254.451 79.8218C254.451 80.1247 254.405 80.4393 254.218 80.7423C254.043 81.0452 253.81 81.1967 253.635 81.2783C253.775 81.3132 254.253 81.4414 254.638 81.8376C255.057 82.2804 255.15 82.8164 255.15 83.2941C255.15 83.8534 255.011 84.2962 254.638 84.6924C254.02 85.3449 253.053 85.4498 252.458 85.4498H250.512V77.6778ZM251.701 78.7964V81.0219H252.062C252.354 81.0219 252.75 80.987 253.029 80.719C253.297 80.4626 253.332 80.1014 253.332 79.8334C253.332 79.6004 253.297 79.3207 253.053 79.0877C252.785 78.8313 252.447 78.7964 252.109 78.7964H251.701ZM251.701 82.0007V84.3312H252.423C252.761 84.3312 253.297 84.2729 253.6 84.0282C253.834 83.8418 253.985 83.5155 253.985 83.1659C253.985 82.8513 253.868 82.5484 253.67 82.3503C253.344 82.0357 252.866 82.0007 252.447 82.0007H251.701ZM260.255 81.1151V80.5442H261.397V85.4498H260.255V84.9371C259.754 85.5197 259.136 85.6012 258.786 85.6012C257.271 85.6012 256.409 84.3428 256.409 82.9911C256.409 81.3948 257.504 80.416 258.798 80.416C259.159 80.416 259.788 80.5092 260.255 81.1151ZM258.938 81.4414C258.11 81.4414 257.574 82.1405 257.574 83.0145C257.574 83.8651 258.11 84.5758 258.938 84.5758C259.66 84.5758 260.325 84.0515 260.325 83.0261C260.325 81.9541 259.66 81.4414 258.938 81.4414ZM263.075 85.4498V80.5442H264.217V84.4011H265.848V80.5442H266.99V84.4011H268.622V80.5442H269.764V85.4498H263.075ZM275.031 81.1151V80.5442H276.173V85.4498H275.031V84.9371C274.53 85.5197 273.913 85.6012 273.563 85.6012C272.048 85.6012 271.186 84.3428 271.186 82.9911C271.186 81.3948 272.281 80.416 273.575 80.416C273.936 80.416 274.565 80.5092 275.031 81.1151ZM273.714 81.4414C272.887 81.4414 272.351 82.1405 272.351 83.0145C272.351 83.8651 272.887 84.5758 273.714 84.5758C274.437 84.5758 275.101 84.0515 275.101 83.0261C275.101 81.9541 274.437 81.4414 273.714 81.4414ZM281.942 84.8788V88.1181H280.8V80.5442H281.942V81.0802C282.361 80.5792 282.909 80.416 283.399 80.416C284.692 80.416 285.788 81.4065 285.788 82.9678C285.788 84.6225 284.576 85.6012 283.41 85.6012C283.142 85.6012 282.455 85.508 281.942 84.8788ZM283.259 81.4414C282.536 81.4414 281.872 81.9541 281.872 83.0261C281.872 84.0515 282.536 84.5758 283.259 84.5758C284.086 84.5758 284.622 83.8651 284.622 83.0145C284.622 82.1405 284.086 81.4414 283.259 81.4414ZM290.799 81.1151V80.5442H291.941V85.4498H290.799V84.9371C290.297 85.5197 289.68 85.6012 289.33 85.6012C287.815 85.6012 286.953 84.3428 286.953 82.9911C286.953 81.3948 288.048 80.416 289.342 80.416C289.703 80.416 290.332 80.5092 290.799 81.1151ZM289.482 81.4414C288.654 81.4414 288.118 82.1405 288.118 83.0145C288.118 83.8651 288.654 84.5758 289.482 84.5758C290.204 84.5758 290.868 84.0515 290.868 83.0261C290.868 81.9541 290.204 81.4414 289.482 81.4414ZM297.325 77.1767H298.49C298.327 77.9807 297.744 78.6099 296.952 78.8313L296.183 79.0411C295.728 79.1692 295.262 79.2974 294.912 79.7751C294.644 80.1364 294.516 80.7073 294.504 81.1035H294.516C294.947 80.5209 295.705 80.416 296.183 80.416C296.928 80.416 297.488 80.6957 297.896 81.1151C298.315 81.5463 298.606 82.1871 298.606 82.9795C298.606 84.5176 297.464 85.6012 295.984 85.6012C295.122 85.6012 294.528 85.275 294.19 84.9487C293.386 84.1913 293.362 83.1077 293.362 82.4318C293.362 80.9637 293.549 79.88 294.108 79.0644C294.469 78.5284 294.912 78.1788 295.577 78.0157L296.392 77.8176C297.103 77.6428 297.266 77.3748 297.325 77.1767ZM295.984 84.5758C296.882 84.5758 297.441 83.9583 297.441 83.0145C297.441 81.8958 296.707 81.4414 295.984 81.4414C295.262 81.4414 294.528 81.8958 294.528 83.0145C294.528 83.9583 295.087 84.5758 295.984 84.5758ZM302.394 80.416C303.874 80.416 305.016 81.488 305.016 83.0028C305.016 84.5059 303.874 85.6012 302.394 85.6012C300.914 85.6012 299.772 84.5059 299.772 83.0028C299.772 81.488 300.914 80.416 302.394 80.416ZM302.394 84.5758C303.291 84.5758 303.851 83.9583 303.851 83.0145C303.851 81.8958 303.116 81.4414 302.394 81.4414C301.671 81.4414 300.937 81.8958 300.937 83.0145C300.937 83.9583 301.497 84.5758 302.394 84.5758ZM309.817 81.5929H308.384V85.4498H307.242V81.5929H305.808V80.5442H309.817V81.5929ZM314.327 81.1151V80.5442H315.469V85.4498H314.327V84.9371C313.826 85.5197 313.208 85.6012 312.859 85.6012C311.344 85.6012 310.481 84.3428 310.481 82.9911C310.481 81.3948 311.577 80.416 312.87 80.416C313.232 80.416 313.861 80.5092 314.327 81.1151ZM313.01 81.4414C312.183 81.4414 311.647 82.1405 311.647 83.0145C311.647 83.8651 312.183 84.5758 313.01 84.5758C313.733 84.5758 314.397 84.0515 314.397 83.0261C314.397 81.9541 313.733 81.4414 313.01 81.4414ZM250.302 93.1674H251.445V95.9522L254.801 92.7246V98.0725H253.659V95.2182L250.302 98.4453V93.1674ZM260.511 93.1674V98.0725H259.369V94.2161H257.924V96.162C257.924 96.5815 257.866 97.1286 257.458 97.5714C257.015 98.0608 256.374 98.154 255.85 98.0725V97.0243C256.188 97.1053 256.502 96.9776 256.654 96.8029C256.805 96.6164 256.828 96.3484 256.828 96.162V93.1674H260.511ZM262.189 93.1674H263.331V95.9522L266.687 92.7246V98.0725H265.545V95.2182L262.189 98.4453V93.1674ZM271.314 93.1674H273.237C273.528 93.1674 273.982 93.179 274.355 93.4587C274.53 93.5985 274.81 93.8898 274.81 94.4025C274.81 94.7987 274.623 95.1599 274.227 95.358C274.46 95.4046 274.705 95.5211 274.891 95.6842C275.113 95.8823 275.276 96.1853 275.276 96.6281C275.276 97.2218 274.985 97.5598 274.74 97.7462C274.332 98.0492 273.831 98.0725 273.61 98.0725H271.314V93.1674ZM272.456 95.0783H273.039C273.307 95.0783 273.458 94.9968 273.493 94.9735C273.68 94.8569 273.714 94.6938 273.714 94.5773C273.714 94.4025 273.633 94.2743 273.516 94.1928C273.365 94.0879 273.19 94.0996 273.015 94.0996H272.456V95.0783ZM272.456 97.1403H273.307C273.493 97.1403 273.726 97.117 273.901 97.0009C274.006 96.931 274.134 96.7912 274.134 96.5698C274.134 96.3484 274.029 96.2086 273.913 96.1387C273.738 96.0222 273.505 96.0105 273.342 96.0105H272.456V97.1403ZM279.063 93.0392C280.543 93.0392 281.685 94.1112 281.685 95.626C281.685 97.1286 280.543 98.2239 279.063 98.2239C277.583 98.2239 276.441 97.1286 276.441 95.626C276.441 94.1112 277.583 93.0392 279.063 93.0392ZM279.063 97.1985C279.961 97.1985 280.52 96.5815 280.52 95.6376C280.52 94.519 279.786 94.0646 279.063 94.0646C278.341 94.0646 277.607 94.519 277.607 95.6376C277.607 96.5815 278.166 97.1985 279.063 97.1985ZM283.107 93.1674H287.372V98.0725H286.23V94.2161H284.249V98.0725H283.107V93.1674ZM290.193 97.5015V100.741H289.051V93.1674H290.193V93.7034C290.612 93.2023 291.16 93.0392 291.649 93.0392C292.943 93.0392 294.038 94.0296 294.038 95.591C294.038 97.2452 292.826 98.2239 291.661 98.2239C291.393 98.2239 290.705 98.1307 290.193 97.5015ZM291.509 94.0646C290.787 94.0646 290.123 94.5773 290.123 95.6493C290.123 96.6747 290.787 97.1985 291.509 97.1985C292.337 97.1985 292.873 96.4882 292.873 95.6376C292.873 94.7637 292.337 94.0646 291.509 94.0646ZM297.826 93.0392C299.306 93.0392 300.448 94.1112 300.448 95.626C300.448 97.1286 299.306 98.2239 297.826 98.2239C296.346 98.2239 295.204 97.1286 295.204 95.626C295.204 94.1112 296.346 93.0392 297.826 93.0392ZM297.826 97.1985C298.723 97.1985 299.282 96.5815 299.282 95.6376C299.282 94.519 298.548 94.0646 297.826 94.0646C297.103 94.0646 296.369 94.519 296.369 95.6376C296.369 96.5815 296.928 97.1985 297.826 97.1985ZM305.668 93.3888V94.6705C305.144 94.1578 304.631 94.0646 304.282 94.0646C303.746 94.0646 303.408 94.286 303.198 94.4957C302.988 94.7055 302.778 95.0783 302.778 95.626C302.778 96.1969 303 96.5815 303.221 96.8029C303.478 97.0476 303.839 97.1985 304.258 97.1985C304.725 97.1985 305.272 97.0126 305.668 96.5698V97.8394C305.389 98.0142 304.934 98.2239 304.177 98.2239C303.361 98.2239 302.778 97.9909 302.312 97.5015C301.963 97.1403 301.613 96.5582 301.613 95.6609C301.613 94.7404 301.998 94.1229 302.359 93.7616C302.743 93.3771 303.361 93.0392 304.328 93.0392C304.701 93.0392 305.144 93.0975 305.668 93.3888Z" fill="#CFF64A"/><path opacity="0.495303" d="M316.588 120.891C319.001 120.891 320.958 122.848 320.958 125.261V152.449C320.958 154.862 319.001 156.819 316.588 156.819H173.647C173.502 156.819 173.364 156.753 173.272 156.64C173.102 156.432 173.133 156.126 173.34 155.957L177.78 152.341C179.024 151.327 179.746 149.806 179.746 148.201V125.261C179.746 122.848 181.703 120.891 184.116 120.891H316.588Z" stroke="#CFF64A"/><g opacity="0.501232"><path d="M309.79 127.688H290.367C289.026 127.688 287.939 128.775 287.939 130.116V147.594C287.939 148.935 289.026 150.022 290.367 150.022H309.79C311.131 150.022 312.218 148.935 312.218 147.594V130.116C312.218 128.775 311.131 127.688 309.79 127.688Z" stroke="#CFF64A"/><path d="M294.252 135.942C295.325 135.942 296.194 135.073 296.194 134C296.194 132.927 295.325 132.058 294.252 132.058C293.179 132.058 292.31 132.927 292.31 134C292.31 135.073 293.179 135.942 294.252 135.942Z" fill="#CFF64A"/><path d="M288.967 148.771L295.665 139.308C295.727 139.22 295.848 139.2 295.936 139.262C295.946 139.269 295.954 139.276 295.963 139.284L299.882 143.312C299.956 143.389 300.08 143.391 300.156 143.316C300.172 143.3 300.185 143.282 300.195 143.262L304.267 134.893C304.29 134.845 304.349 134.824 304.397 134.848C304.415 134.856 304.429 134.871 304.439 134.888L310.713 146.281C310.745 146.341 310.771 146.402 310.79 146.466L311.348 148.282C311.504 148.794 311.217 149.337 310.704 149.494C310.612 149.523 310.515 149.537 310.418 149.537H289.363C289.095 149.537 288.878 149.32 288.878 149.052C288.878 148.951 288.909 148.853 288.967 148.771Z" fill="#CFF64A" stroke="#CFF64A"/></g><path d="M294.704 133.516L291.236 130.176M294.704 133.516L298.431 130.261M294.704 133.516L297.6 136.303M294.704 133.516L291.673 136.165" stroke="#CB3D3C" stroke-linecap="round" stroke-linejoin="round"/><path d="M307.449 137.027C306.104 137.248 304.641 137.099 303.414 137.692C290.85 143.754 321.133 145.648 306.647 139.871" stroke="#CB3D3C" stroke-linecap="round"/><path d="M289.055 149.125C291.048 147.654 293.717 146.812 295.034 144.714C295.591 143.827 295.01 143.25 294.309 148.288" stroke="#CB3D3C" stroke-linecap="round"/><path d="M294.453 144.962H291.231H291.046H290.907H290.817H290.773" stroke="#CB3D3C" stroke-linecap="round"/><path fill-rule="evenodd" clip-rule="evenodd" d="M190.302 127.199H192.015C192.493 127.199 193.157 127.246 193.717 127.618C194.369 128.05 194.684 128.795 194.684 129.506C194.684 129.961 194.568 130.66 193.927 131.207C193.309 131.732 192.598 131.813 192.027 131.813H191.491V134.971H190.302V127.199ZM191.491 128.294V130.718H192.027C193.053 130.718 193.542 130.217 193.542 129.494C193.542 129.063 193.367 128.294 192.015 128.294H191.491ZM199.509 130.636V130.065H200.651V134.971H199.509V134.458C199.008 135.041 198.39 135.122 198.04 135.122C196.525 135.122 195.663 133.864 195.663 132.512C195.663 130.916 196.758 129.937 198.052 129.937C198.413 129.937 199.042 130.03 199.509 130.636ZM198.192 130.963C197.364 130.963 196.828 131.662 196.828 132.536C196.828 133.386 197.364 134.097 198.192 134.097C198.914 134.097 199.579 133.573 199.579 132.547C199.579 131.475 198.914 130.963 198.192 130.963ZM202.993 131.336L202.259 130.695C202.422 130.497 202.667 130.298 203.005 130.147C203.413 129.972 203.844 129.937 204.158 129.937C204.578 129.937 205.009 129.996 205.405 130.275C205.778 130.543 205.918 130.858 205.918 131.277C205.918 131.522 205.883 131.732 205.708 131.953C205.557 132.151 205.382 132.244 205.242 132.303C205.51 132.361 205.778 132.489 205.953 132.664C206.209 132.92 206.268 133.235 206.268 133.48C206.268 133.934 206.128 134.284 205.848 134.563C205.464 134.948 204.916 135.122 204.123 135.122C203.774 135.122 203.284 135.088 202.842 134.831C202.562 134.668 202.259 134.388 202.072 133.957L202.981 133.491C203.075 133.689 203.226 133.887 203.413 134.004C203.611 134.132 203.879 134.19 204.147 134.19C204.345 134.19 204.718 134.155 204.928 133.946C205.032 133.829 205.102 133.678 205.102 133.514C205.102 133.351 205.044 133.212 204.951 133.118C204.753 132.909 204.415 132.909 204.135 132.909H203.622V131.976H204.054C204.217 131.976 204.473 131.941 204.613 131.848C204.706 131.778 204.823 131.662 204.823 131.417C204.823 131.207 204.718 131.068 204.613 130.998C204.45 130.881 204.217 130.869 204.065 130.869C203.832 130.869 203.646 130.904 203.424 131.009C203.284 131.079 203.133 131.184 202.993 131.336ZM211.395 126.698H212.561C212.397 127.502 211.815 128.131 211.022 128.353L210.253 128.562C209.799 128.69 209.333 128.819 208.983 129.296C208.715 129.658 208.587 130.229 208.575 130.625H208.587C209.018 130.042 209.775 129.937 210.253 129.937C210.999 129.937 211.558 130.217 211.966 130.636C212.386 131.068 212.677 131.708 212.677 132.501C212.677 134.039 211.535 135.122 210.055 135.122C209.193 135.122 208.598 134.796 208.26 134.47C207.456 133.713 207.433 132.629 207.433 131.953C207.433 130.485 207.619 129.401 208.179 128.586C208.54 128.05 208.983 127.7 209.647 127.537L210.463 127.339C211.174 127.164 211.337 126.896 211.395 126.698ZM210.055 134.097C210.952 134.097 211.512 133.48 211.512 132.536C211.512 131.417 210.778 130.963 210.055 130.963C209.333 130.963 208.598 131.417 208.598 132.536C208.598 133.48 209.158 134.097 210.055 134.097ZM216.465 129.937C217.945 129.937 219.087 131.009 219.087 132.524C219.087 134.027 217.945 135.122 216.465 135.122C214.985 135.122 213.842 134.027 213.842 132.524C213.842 131.009 214.985 129.937 216.465 129.937ZM216.465 134.097C217.362 134.097 217.921 133.48 217.921 132.536C217.921 131.417 217.187 130.963 216.465 130.963C215.742 130.963 215.008 131.417 215.008 132.536C215.008 133.48 215.567 134.097 216.465 134.097ZM221.65 134.4V137.639H220.508V130.065H221.65V130.601C222.07 130.1 222.618 129.937 223.107 129.937C224.401 129.937 225.496 130.928 225.496 132.489C225.496 134.144 224.284 135.122 223.119 135.122C222.851 135.122 222.163 135.029 221.65 134.4ZM222.967 130.963C222.245 130.963 221.58 131.475 221.58 132.547C221.58 133.573 222.245 134.097 222.967 134.097C223.795 134.097 224.331 133.386 224.331 132.536C224.331 131.662 223.795 130.963 222.967 130.963ZM232.232 129.937C233.712 129.937 234.854 131.009 234.854 132.524C234.854 134.027 233.712 135.122 232.232 135.122C230.752 135.122 229.61 134.027 229.61 132.524C229.61 131.009 230.752 129.937 232.232 129.937ZM232.232 134.097C233.129 134.097 233.688 133.48 233.688 132.536C233.688 131.417 232.954 130.963 232.232 130.963C231.509 130.963 230.775 131.417 230.775 132.536C230.775 133.48 231.334 134.097 232.232 134.097ZM236.276 134.971V130.065H237.418V133.922H239.049V130.065H240.191V133.922H241.823V130.065H242.965V134.971H236.276ZM244.643 130.065H245.785V132.85L249.141 129.623V134.971H247.999V132.116L244.643 135.344V130.065ZM254.525 126.698H255.69C255.527 127.502 254.945 128.131 254.152 128.353L253.383 128.562C252.928 128.69 252.462 128.819 252.113 129.296C251.845 129.658 251.716 130.229 251.705 130.625H251.717C252.148 130.042 252.905 129.937 253.383 129.937C254.129 129.937 254.688 130.217 255.096 130.636C255.516 131.068 255.807 131.708 255.807 132.501C255.807 134.039 254.665 135.122 253.185 135.122C252.322 135.122 251.728 134.796 251.39 134.47C250.586 133.713 250.563 132.629 250.563 131.953C250.563 130.485 250.749 129.401 251.309 128.586C251.67 128.05 252.113 127.7 252.777 127.537L253.593 127.339C254.304 127.164 254.467 126.896 254.525 126.698ZM253.185 134.097C254.082 134.097 254.642 133.48 254.642 132.536C254.642 131.417 253.907 130.963 253.185 130.963C252.462 130.963 251.728 131.417 251.728 132.536C251.728 133.48 252.288 134.097 253.185 134.097ZM259.594 129.937C261.074 129.937 262.216 131.009 262.216 132.524C262.216 134.027 261.074 135.122 259.594 135.122C258.114 135.122 256.972 134.027 256.972 132.524C256.972 131.009 258.114 129.937 259.594 129.937ZM259.594 134.097C260.492 134.097 261.051 133.48 261.051 132.536C261.051 131.417 260.317 130.963 259.594 130.963C258.872 130.963 258.138 131.417 258.138 132.536C258.138 133.48 258.697 134.097 259.594 134.097ZM263.638 130.065H264.78V131.813L266.412 130.065H267.927L265.782 132.209L268.043 134.971H266.598L264.967 132.955L264.78 133.142V134.971H263.638V130.065ZM271.97 130.065H273.112V132.85L276.469 129.623V134.971H275.327V132.116L271.97 135.344V130.065ZM192.458 142.56C193.938 142.56 195.08 143.632 195.08 145.147C195.08 146.65 193.938 147.746 192.458 147.746C190.978 147.746 189.836 146.65 189.836 145.147C189.836 143.632 190.978 142.56 192.458 142.56ZM192.458 146.72C193.356 146.72 193.915 146.103 193.915 145.159C193.915 144.04 193.181 143.586 192.458 143.586C191.736 143.586 191.002 144.04 191.002 145.159C191.002 146.103 191.561 146.72 192.458 146.72ZM199.882 143.737H198.448V147.594H197.306V143.737H195.873V142.689H199.882V143.737ZM200.93 142.689H202.853C203.145 142.689 203.599 142.7 203.972 142.98C204.147 143.12 204.426 143.411 204.426 143.924C204.426 144.32 204.24 144.681 203.844 144.879C204.077 144.926 204.322 145.042 204.508 145.206C204.729 145.404 204.893 145.707 204.893 146.149C204.893 146.744 204.601 147.082 204.357 147.268C203.949 147.571 203.448 147.594 203.226 147.594H200.93V142.689ZM202.072 144.6H202.655C202.923 144.6 203.075 144.518 203.11 144.495C203.296 144.378 203.331 144.215 203.331 144.099C203.331 143.924 203.249 143.796 203.133 143.714C202.981 143.609 202.807 143.621 202.632 143.621H202.072V144.6ZM202.072 146.662H202.923C203.11 146.662 203.343 146.639 203.517 146.522C203.622 146.452 203.751 146.312 203.751 146.091C203.751 145.87 203.646 145.73 203.529 145.66C203.354 145.543 203.121 145.532 202.958 145.532H202.072V146.662ZM209.752 145.94L210.708 146.476C210.498 146.848 210.195 147.175 209.88 147.373C209.484 147.629 208.96 147.746 208.435 147.746C207.783 147.746 207.247 147.583 206.78 147.116C206.314 146.65 206.058 145.975 206.058 145.24C206.058 144.483 206.326 143.749 206.839 143.225C207.247 142.817 207.783 142.56 208.482 142.56C209.263 142.56 209.764 142.898 210.055 143.201C210.684 143.854 210.743 144.763 210.743 145.275V145.415H207.223C207.247 145.765 207.398 146.161 207.643 146.406C207.911 146.674 208.237 146.72 208.517 146.72C208.831 146.72 209.065 146.65 209.298 146.476C209.496 146.324 209.647 146.126 209.752 145.94ZM207.305 144.483H209.577C209.531 144.215 209.402 143.982 209.228 143.819C209.076 143.679 208.831 143.539 208.459 143.539C208.062 143.539 207.806 143.702 207.654 143.854C207.491 144.005 207.363 144.238 207.305 144.483ZM215.544 143.737H214.111V147.594H212.968V143.737H211.535V142.689H215.544V143.737ZM219.541 147.594V142.689H220.683V144.506H222.711V142.689H223.853V147.594H222.711V145.555H220.683V147.594H219.541ZM229.12 143.26V142.689H230.262V147.594H229.12V147.082C228.619 147.664 228.002 147.746 227.652 147.746C226.137 147.746 225.275 146.487 225.275 145.136C225.275 143.539 226.37 142.56 227.664 142.56C228.025 142.56 228.654 142.654 229.12 143.26ZM227.803 143.586C226.976 143.586 226.44 144.285 226.44 145.159C226.44 146.01 226.976 146.72 227.803 146.72C228.526 146.72 229.19 146.196 229.19 145.171C229.19 144.099 228.526 143.586 227.803 143.586ZM234.889 142.689H236.812C237.103 142.689 237.557 142.7 237.93 142.98C238.105 143.12 238.385 143.411 238.385 143.924C238.385 144.32 238.198 144.681 237.802 144.879C238.035 144.926 238.28 145.042 238.466 145.206C238.688 145.404 238.851 145.707 238.851 146.149C238.851 146.744 238.56 147.082 238.315 147.268C237.907 147.571 237.406 147.594 237.185 147.594H234.889V142.689ZM236.031 144.6H236.614C236.882 144.6 237.033 144.518 237.068 144.495C237.254 144.378 237.289 144.215 237.289 144.099C237.289 143.924 237.208 143.796 237.091 143.714C236.94 143.609 236.765 143.621 236.59 143.621H236.031V144.6ZM236.031 146.662H236.882C237.068 146.662 237.301 146.639 237.476 146.522C237.581 146.452 237.709 146.312 237.709 146.091C237.709 145.87 237.604 145.73 237.488 145.66C237.313 145.543 237.08 145.532 236.917 145.532H236.031V146.662ZM242.638 142.56C244.118 142.56 245.26 143.632 245.26 145.147C245.26 146.65 244.118 147.746 242.638 147.746C241.158 147.746 240.016 146.65 240.016 145.147C240.016 143.632 241.158 142.56 242.638 142.56ZM242.638 146.72C243.536 146.72 244.095 146.103 244.095 145.159C244.095 144.04 243.361 143.586 242.638 143.586C241.916 143.586 241.182 144.04 241.182 145.159C241.182 146.103 241.741 146.72 242.638 146.72ZM246.682 142.689H250.947V147.594H249.805V143.737H247.824V147.594H246.682V142.689ZM253.768 147.023V150.263H252.625V142.689H253.768V143.225C254.187 142.724 254.735 142.56 255.224 142.56C256.518 142.56 257.613 143.551 257.613 145.112C257.613 146.767 256.401 147.746 255.236 147.746C254.968 147.746 254.28 147.652 253.768 147.023ZM255.084 143.586C254.362 143.586 253.698 144.099 253.698 145.171C253.698 146.196 254.362 146.72 255.084 146.72C255.912 146.72 256.448 146.01 256.448 145.159C256.448 144.285 255.912 143.586 255.084 143.586ZM261.401 142.56C262.881 142.56 264.023 143.632 264.023 145.147C264.023 146.65 262.881 147.746 261.401 147.746C259.921 147.746 258.779 146.65 258.779 145.147C258.779 143.632 259.921 142.56 261.401 142.56ZM261.401 146.72C262.298 146.72 262.857 146.103 262.857 145.159C262.857 144.04 262.123 143.586 261.401 143.586C260.678 143.586 259.944 144.04 259.944 145.159C259.944 146.103 260.503 146.72 261.401 146.72ZM269.243 142.91V144.192C268.719 143.679 268.206 143.586 267.857 143.586C267.321 143.586 266.983 143.807 266.773 144.017C266.563 144.227 266.353 144.6 266.353 145.147C266.353 145.718 266.575 146.103 266.796 146.324C267.053 146.569 267.414 146.72 267.833 146.72C268.299 146.72 268.847 146.534 269.243 146.091V147.361C268.964 147.536 268.509 147.746 267.752 147.746C266.936 147.746 266.353 147.513 265.887 147.023C265.538 146.662 265.188 146.079 265.188 145.182C265.188 144.262 265.573 143.644 265.934 143.283C266.318 142.898 266.936 142.56 267.903 142.56C268.276 142.56 268.719 142.619 269.243 142.91Z" fill="#CFF64A"/><path opacity="0.24807" d="M167.034 186.436L171.872 182.289C172.958 181.358 174.591 181.476 175.532 182.552C176.442 183.593 176.337 185.174 175.296 186.085C175.277 186.102 175.258 186.118 175.239 186.134L170.037 190.418C169.435 190.913 168.556 190.87 168.005 190.32C167.516 189.83 167.516 189.036 168.005 188.546C168.032 188.52 168.06 188.494 168.089 188.47L172.861 184.494" stroke="#CFF64A" stroke-linecap="round"/><path d="M41.5632 54.3768V47.3149H45.9429V48.2321H42.6289V50.3838H45.6292V51.2975H42.6289V54.3768H41.5632ZM47.2535 54.3768V47.3149H51.6332V48.2321H48.3191V50.3838H51.3194V51.2975H48.3191V54.3768H47.2535ZM56.8302 50.3734L55.8956 50.539C55.8566 50.4194 55.7945 50.3056 55.7095 50.1976C55.6266 50.0896 55.514 50.001 55.3715 49.9321C55.229 49.8631 55.0508 49.8287 54.8369 49.8287C54.545 49.8287 54.3012 49.8941 54.1058 50.0252C53.9105 50.1539 53.8127 50.3206 53.8127 50.5252C53.8127 50.7022 53.8782 50.8447 54.0093 50.9527C54.1403 51.0608 54.3518 51.1493 54.6439 51.2183L55.4852 51.4113C55.9726 51.524 56.3359 51.6976 56.575 51.932C56.8141 52.1665 56.9337 52.4711 56.9337 52.8458C56.9337 53.163 56.8417 53.4458 56.6578 53.6941C56.4762 53.94 56.2221 54.1332 55.8956 54.2734C55.5715 54.4136 55.1955 54.4837 54.768 54.4837C54.1748 54.4837 53.6909 54.3573 53.3161 54.1044C52.9414 53.8493 52.7114 53.4872 52.6264 53.0183L53.623 52.8665C53.6852 53.1262 53.8127 53.3228 54.0058 53.4561C54.199 53.5872 54.4507 53.6527 54.7611 53.6527C55.099 53.6527 55.3692 53.5826 55.5715 53.4423C55.7739 53.2999 55.875 53.1262 55.875 52.9216C55.875 52.7562 55.8129 52.617 55.6888 52.5044C55.5669 52.3918 55.3795 52.3067 55.1266 52.2492L54.23 52.0527C53.7357 51.94 53.3701 51.7608 53.1334 51.5148C52.8988 51.2688 52.7816 50.9574 52.7816 50.5803C52.7816 50.2677 52.8689 49.9941 53.0436 49.7596C53.2184 49.5252 53.4598 49.3424 53.7679 49.2114C54.0759 49.0781 54.4288 49.0114 54.8266 49.0114C55.3991 49.0114 55.8497 49.1356 56.1784 49.3839C56.5073 49.6298 56.7245 49.9597 56.8302 50.3734ZM60.2986 54.4837C59.786 54.4837 59.3446 54.3676 58.9744 54.1354C58.6065 53.9009 58.3237 53.578 58.126 53.1665C57.9283 52.755 57.8294 52.2838 57.8294 51.7527C57.8294 51.2148 57.9306 50.7401 58.1329 50.3287C58.3353 49.9148 58.6203 49.5918 58.9882 49.3597C59.3561 49.1275 59.7895 49.0114 60.2883 49.0114C60.6907 49.0114 61.0493 49.0861 61.3643 49.2356C61.6793 49.3827 61.9333 49.5895 62.1264 49.8563C62.3219 50.1229 62.4379 50.4344 62.4747 50.7907H61.4712C61.416 50.5424 61.2896 50.3287 61.0919 50.1493C60.8965 49.97 60.6344 49.8803 60.3055 49.8803C60.0182 49.8803 59.7665 49.9562 59.5503 50.1079C59.3365 50.2574 59.1698 50.4711 59.0502 50.7493C58.9307 51.0252 58.871 51.3516 58.871 51.7286C58.871 52.1148 58.9295 52.4481 59.0468 52.7286C59.1641 53.009 59.3296 53.2263 59.5434 53.3803C59.7596 53.5343 60.0136 53.6113 60.3055 53.6113C60.501 53.6113 60.6781 53.5757 60.8366 53.5045C60.9976 53.4308 61.1321 53.3263 61.2401 53.1906C61.3505 53.055 61.4275 52.8917 61.4712 52.7009H62.4747C62.4379 53.0435 62.3264 53.3493 62.1402 53.6183C61.954 53.8871 61.7045 54.0986 61.3919 54.2527C61.0815 54.4067 60.7171 54.4837 60.2986 54.4837ZM64.6086 51.2321V54.3768H63.5775V47.3149H64.5948V49.9424H64.6603C64.7845 49.6574 64.9741 49.4309 65.2293 49.2632C65.4846 49.0953 65.8179 49.0114 66.2294 49.0114C66.5927 49.0114 66.91 49.0861 67.1812 49.2356C67.4548 49.3849 67.6663 49.608 67.8158 49.9045C67.9675 50.1987 68.0434 50.5665 68.0434 51.0079V54.3768H67.0122V51.1321C67.0122 50.7436 66.9122 50.4425 66.7123 50.2286C66.5122 50.0125 66.234 49.9045 65.8777 49.9045C65.6339 49.9045 65.4155 49.9562 65.2224 50.0597C65.0316 50.1631 64.881 50.3149 64.7707 50.5148C64.6626 50.7125 64.6086 50.9516 64.6086 51.2321ZM71.6506 54.4837C71.154 54.4837 70.7207 54.3699 70.3505 54.1423C69.9804 53.9147 69.6929 53.5964 69.4883 53.1872C69.2837 52.778 69.1814 52.2998 69.1814 51.7527C69.1814 51.2033 69.2837 50.7229 69.4883 50.3114C69.6929 49.8999 69.9804 49.5804 70.3505 49.3528C70.7207 49.1252 71.154 49.0114 71.6506 49.0114C72.1473 49.0114 72.5806 49.1252 72.9508 49.3528C73.3209 49.5804 73.6083 49.8999 73.813 50.3114C74.0176 50.7229 74.1198 51.2033 74.1198 51.7527C74.1198 52.2998 74.0176 52.778 73.813 53.1872C73.6083 53.5964 73.3209 53.9147 72.9508 54.1423C72.5806 54.3699 72.1473 54.4837 71.6506 54.4837ZM71.654 53.6183C71.976 53.6183 72.2426 53.5332 72.4542 53.3631C72.6657 53.1929 72.822 52.9665 72.9232 52.6837C73.0266 52.401 73.0784 52.0895 73.0784 51.7492C73.0784 51.4113 73.0266 51.101 72.9232 50.8182C72.822 50.5332 72.6657 50.3045 72.4542 50.1321C72.2426 49.9597 71.976 49.8734 71.654 49.8734C71.3299 49.8734 71.061 49.9597 70.8471 50.1321C70.6356 50.3045 70.4781 50.5332 70.3747 50.8182C70.2735 51.101 70.2229 51.4113 70.2229 51.7492C70.2229 52.0895 70.2735 52.401 70.3747 52.6837C70.4781 52.9665 70.6356 53.1929 70.8471 53.3631C71.061 53.5332 71.3299 53.6183 71.654 53.6183ZM77.5021 54.4837C77.0054 54.4837 76.5721 54.3699 76.2019 54.1423C75.8318 53.9147 75.5444 53.5964 75.3398 53.1872C75.1351 52.778 75.0329 52.2998 75.0329 51.7527C75.0329 51.2033 75.1351 50.7229 75.3398 50.3114C75.5444 49.8999 75.8318 49.5804 76.2019 49.3528C76.5721 49.1252 77.0054 49.0114 77.5021 49.0114C77.9986 49.0114 78.432 49.1252 78.8022 49.3528C79.1723 49.5804 79.4597 49.8999 79.6643 50.3114C79.8689 50.7229 79.9713 51.2033 79.9713 51.7527C79.9713 52.2998 79.8689 52.778 79.6643 53.1872C79.4597 53.5964 79.1723 53.9147 78.8022 54.1423C78.432 54.3699 77.9986 54.4837 77.5021 54.4837ZM77.5055 53.6183C77.8274 53.6183 78.0941 53.5332 78.3056 53.3631C78.5171 53.1929 78.6735 52.9665 78.7746 52.6837C78.8781 52.401 78.9298 52.0895 78.9298 51.7492C78.9298 51.4113 78.8781 51.101 78.7746 50.8182C78.6735 50.5332 78.5171 50.3045 78.3056 50.1321C78.0941 49.9597 77.8274 49.8734 77.5055 49.8734C77.1813 49.8734 76.9123 49.9597 76.6986 50.1321C76.4871 50.3045 76.3295 50.5332 76.2261 50.8182C76.1249 51.101 76.0743 51.4113 76.0743 51.7492C76.0743 52.0895 76.1249 52.401 76.2261 52.6837C76.3295 52.9665 76.4871 53.1929 76.6986 53.3631C76.9123 53.5332 77.1813 53.6183 77.5055 53.6183ZM82.1534 47.3149V54.3768H81.1223V47.3149H82.1534ZM84.22 54.4424C84.0315 54.4424 83.8694 54.3756 83.7337 54.2423C83.598 54.1067 83.5303 53.9434 83.5303 53.7526C83.5303 53.5642 83.598 53.4033 83.7337 53.2699C83.8694 53.1343 84.0315 53.0665 84.22 53.0665C84.4085 53.0665 84.5705 53.1343 84.7062 53.2699C84.8419 53.4033 84.9097 53.5642 84.9097 53.7526C84.9097 53.8792 84.8775 53.9952 84.8131 54.1009C84.7511 54.2044 84.6682 54.2872 84.5648 54.3492C84.4614 54.4113 84.3464 54.4424 84.22 54.4424ZM86.2909 54.3768V49.0804H87.2875V49.9217H87.3427C87.4392 49.6367 87.6094 49.4125 87.853 49.2494C88.099 49.0838 88.3773 49.0011 88.6876 49.0011C88.752 49.0011 88.8279 49.0033 88.9153 49.008C89.0049 49.0125 89.075 49.0183 89.1256 49.0252V50.0114C89.0842 49.9999 89.0106 49.9872 88.9049 49.9735C88.7991 49.9573 88.6934 49.9493 88.5876 49.9493C88.344 49.9493 88.1266 50.001 87.9358 50.1044C87.7473 50.2056 87.5978 50.347 87.4875 50.5286C87.3772 50.7079 87.3219 50.9125 87.3219 51.1424V54.3768H86.2909ZM93.3734 52.1803V49.0804H94.408V54.3768H93.3941V53.4596H93.339C93.2171 53.7423 93.0217 53.978 92.7527 54.1665C92.486 54.3526 92.1538 54.4458 91.756 54.4458C91.4157 54.4458 91.1146 54.3711 90.8525 54.2216C90.5927 54.0699 90.3881 53.8458 90.2386 53.5492C90.0915 53.2527 90.0179 52.886 90.0179 52.4492V49.0804H91.049V52.3252C91.049 52.6861 91.1491 52.9734 91.3491 53.1872C91.5492 53.4009 91.8089 53.5078 92.1284 53.5078C92.3216 53.5078 92.5136 53.4596 92.7044 53.3631C92.8975 53.2665 93.0573 53.1205 93.1838 52.9251C93.3125 52.7297 93.3758 52.4815 93.3734 52.1803Z" fill="#CFF64A"/></g></g><defs><clipPath id="clip0_3_1976"><rect width="370" height="201" fill="white"/></clipPath></defs></svg>