<svg width="189" height="74" viewBox="0 0 189 74" fill="none" xmlns="http://www.w3.org/2000/svg"><path d="M25.2492 24.9307C16.9494 18.7361 24.0348 6.32695 15.5377 4.27579C9.51652 2.82301 5.76262 7.7841 3.61066 12.341C2.83852 14.2395 2.19039 16.2218 1.65491 18.2647C3.34813 24.5752 9.49971 29.7928 25.2492 24.9307Z" fill="white"/><path d="M57.9475 56.4473C53.5846 54.3457 55.2137 50.8396 51.1719 49.7713C42.2883 47.4231 41.6243 43.5785 39.7826 38.9521C35.4591 56.7409 41.1879 68.6732 47.0882 71.6849C54.2104 68.7482 60.3193 63.1833 64.5946 55.9303C62.2069 52.8169 60.9656 57.9 57.9475 56.4473Z" fill="white"/><path d="M56.0689 44.4207C56.5349 45.397 57.5704 45.7334 58.382 45.1717C59.1933 44.611 59.4726 43.3639 59.0061 42.3865C58.5415 41.4101 57.5051 41.0738 56.6938 41.6355C55.8826 42.1967 55.6033 43.4432 56.0689 44.4207Z" fill="white"/><path d="M21.5374 48.2718C18.9481 45.8442 16.4368 45.7879 12.96 45.7119C9.91191 45.6436 6.1512 45.538 1.52344 43.5798C5.13018 57.9466 14.834 69.1198 27.0118 72.7435C24.6255 68.9032 24.3602 63.7473 24.1267 59.1216C23.8983 54.5763 23.6821 50.2813 21.5374 48.2718Z" fill="white"/><path d="M55.8611 7.57344L57.1037 12.1418L61.4939 0L51.4117 5.28654L55.1911 6.77868C19.5457 39.2024 0.0386148 29.4432 0.901572 21.5404C0.312032 24.6337 0 27.8553 0 31.1645C0 34.2374 0.274332 37.2321 0.784851 40.1214C0.992868 40.1661 1.20634 40.1984 1.408 40.2591L1.5606 40.316C6.1811 42.4678 9.80782 42.5466 13.0066 42.6183C16.6789 42.6981 19.8496 42.7697 23.1162 45.8296C26.1764 48.6979 26.4389 53.9019 26.6925 58.9345C26.9426 63.9076 27.202 69.0503 29.9876 72.1206C30.5267 72.6326 30.861 73.1494 31.0795 73.6482C32.551 73.8714 34.0475 74 35.5691 74C38.8294 74 41.9859 73.4689 44.9846 72.48C37.6561 73.9184 25.4983 45.6414 55.8611 7.57344Z" fill="white"/><path d="M32.2964 13.1771C34.4442 13.1771 36.1852 11.0804 36.1852 8.49389C36.1852 5.90741 34.4442 3.81067 32.2964 3.81067C30.1487 3.81067 28.4076 5.90741 28.4076 8.49389C28.4076 11.0804 30.1487 13.1771 32.2964 13.1771Z" fill="white"/><path d="M70.0037 20.4113C69.7339 22.3355 69.0571 23.9824 67.9598 25.3192C65.1242 28.7756 60.3721 29.1454 58.3882 29.1394C65.7266 38.4139 65.703 47.3667 65.5585 48.9776C65.435 50.3763 66.7598 51.5232 67.4061 50.2777C67.5355 49.9682 67.799 49.2648 67.8521 49.1636C69.9601 43.6906 71.1373 37.5929 71.1373 31.1642C71.1378 27.4498 70.7421 23.8478 70.0037 20.4113Z" fill="white"/><path d="M58.7201 27.0655C64.7618 27.0655 69.3887 23.7273 68.3399 16.0401C67.0664 14.4822 64.9003 13.2165 63.0686 14.4834C59.5986 16.8851 62.479 23.1047 58.7201 27.0655Z" fill="white"/><path d="M85.68 19V4.3H95.655V6.085H87.57V11.125H93.975V12.91H87.57V19H85.68ZM97.6726 6.169C97.4486 5.945 97.3366 5.672 97.3366 5.35C97.3366 5.028 97.4486 4.755 97.6726 4.531C97.8966 4.307 98.1696 4.195 98.4916 4.195C98.8136 4.195 99.0866 4.307 99.3106 4.531C99.5346 4.755 99.6466 5.028 99.6466 5.35C99.6466 5.672 99.5346 5.945 99.3106 6.169C99.0866 6.393 98.8136 6.505 98.4916 6.505C98.1696 6.505 97.8966 6.393 97.6726 6.169ZM97.6516 19V8.5H99.3316V19H97.6516ZM102.266 19V8.5H103.946V10.18H103.967C104.163 9.83 104.401 9.536 104.681 9.298C105.367 8.696 106.207 8.395 107.201 8.395H108.461V10.075H107.201C106.249 10.075 105.465 10.383 104.849 10.999C104.247 11.601 103.946 12.378 103.946 13.33V19H102.266ZM109.508 15.745H111.293C111.447 16.123 111.65 16.438 111.902 16.69C112.532 17.32 113.344 17.635 114.338 17.635C115.234 17.635 115.892 17.488 116.312 17.194C116.746 16.9 116.963 16.522 116.963 16.06C116.963 15.808 116.872 15.591 116.69 15.409C116.522 15.227 116.242 15.066 115.85 14.926C115.458 14.786 115.108 14.681 114.8 14.611C114.506 14.527 114.072 14.429 113.498 14.317C111.188 13.841 110.033 12.812 110.033 11.23C110.033 10.404 110.383 9.711 111.083 9.151C111.783 8.577 112.763 8.29 114.023 8.29C115.591 8.29 116.83 8.815 117.74 9.865C118.104 10.341 118.37 10.866 118.538 11.44H116.753C116.627 11.16 116.445 10.901 116.207 10.663C115.675 10.131 114.947 9.865 114.023 9.865C113.281 9.865 112.707 10.005 112.301 10.285C111.909 10.565 111.713 10.88 111.713 11.23C111.713 11.482 111.797 11.699 111.965 11.881C112.147 12.063 112.434 12.224 112.826 12.364C113.218 12.504 113.561 12.616 113.855 12.7C114.163 12.77 114.604 12.861 115.178 12.973C117.488 13.449 118.643 14.478 118.643 16.06C118.643 16.956 118.265 17.705 117.509 18.307C116.753 18.909 115.696 19.21 114.338 19.21C112.63 19.21 111.314 18.636 110.39 17.488C109.998 16.984 109.704 16.403 109.508 15.745ZM120.004 10.075V8.5H121.369V6.19H123.049V8.5H126.409V10.075H123.049V17.425H126.514V19H121.369V10.075H120.004ZM134.714 19V4.3H144.689V6.085H136.604V11.125H143.009V12.91H136.604V19H134.714ZM146.686 19V4.3H148.366V17.425H150.781V19H146.686ZM152.49 6.169C152.266 5.945 152.154 5.672 152.154 5.35C152.154 5.028 152.266 4.755 152.49 4.531C152.714 4.307 152.987 4.195 153.309 4.195C153.631 4.195 153.904 4.307 154.128 4.531C154.352 4.755 154.464 5.028 154.464 5.35C154.464 5.672 154.352 5.945 154.128 6.169C153.904 6.393 153.631 6.505 153.309 6.505C152.987 6.505 152.714 6.393 152.49 6.169ZM152.469 19V8.5H154.149V19H152.469ZM157.923 17.656C156.943 16.606 156.453 15.304 156.453 13.75C156.453 12.196 156.943 10.901 157.923 9.865C158.903 8.815 160.093 8.29 161.493 8.29C162.375 8.29 163.124 8.458 163.74 8.794C164.356 9.13 164.797 9.487 165.063 9.865L165.252 10.18H165.273V8.5H166.953V22.99H157.923V21.415H165.273V17.32H165.252L165.063 17.614C164.811 17.992 164.377 18.356 163.761 18.706C163.145 19.042 162.389 19.21 161.493 19.21C160.093 19.21 158.903 18.692 157.923 17.656ZM159.141 10.957C158.469 11.685 158.133 12.616 158.133 13.75C158.133 14.884 158.469 15.815 159.141 16.543C159.827 17.271 160.681 17.635 161.703 17.635C162.725 17.635 163.572 17.271 164.244 16.543C164.93 15.815 165.273 14.884 165.273 13.75C165.273 12.616 164.93 11.685 164.244 10.957C163.572 10.229 162.725 9.865 161.703 9.865C160.681 9.865 159.827 10.229 159.141 10.957ZM169.901 19V4.3H171.581V10.075H171.602C171.812 9.739 172.085 9.445 172.421 9.193C173.191 8.591 174.101 8.29 175.151 8.29C176.425 8.29 177.44 8.696 178.196 9.508C178.966 10.306 179.351 11.405 179.351 12.805V19H177.671V12.91C177.671 11.902 177.419 11.146 176.915 10.642C176.411 10.124 175.718 9.865 174.836 9.865C173.87 9.865 173.086 10.187 172.484 10.831C171.882 11.461 171.581 12.294 171.581 13.33V19H169.901ZM181.137 10.075V8.5H182.502V6.19H184.182V8.5H187.542V10.075H184.182V17.425H187.647V19H182.502V10.075H181.137ZM84.84 39.8H86.73C86.884 40.332 87.136 40.808 87.486 41.228C88.27 42.166 89.418 42.635 90.93 42.635C92.134 42.635 93.044 42.397 93.66 41.921C94.29 41.445 94.605 40.843 94.605 40.115C94.605 39.499 94.353 39.009 93.849 38.645C93.345 38.281 92.631 37.966 91.707 37.7C91.539 37.644 91.266 37.567 90.888 37.469C90.524 37.371 90.237 37.294 90.027 37.238C89.817 37.182 89.537 37.098 89.187 36.986C88.837 36.874 88.557 36.776 88.347 36.692C88.137 36.594 87.885 36.475 87.591 36.335C87.297 36.181 87.059 36.034 86.877 35.894C86.709 35.754 86.52 35.586 86.31 35.39C86.114 35.18 85.96 34.963 85.848 34.739C85.75 34.515 85.659 34.263 85.575 33.983C85.505 33.703 85.47 33.402 85.47 33.08C85.47 31.932 85.953 30.945 86.919 30.119C87.885 29.293 89.152 28.88 90.72 28.88C92.792 28.88 94.36 29.566 95.424 30.938C95.872 31.54 96.194 32.219 96.39 32.975H94.5C94.374 32.583 94.15 32.198 93.828 31.82C93.058 31.05 92.022 30.665 90.72 30.665C89.67 30.665 88.844 30.903 88.242 31.379C87.654 31.841 87.36 32.408 87.36 33.08C87.36 33.402 87.451 33.696 87.633 33.962C87.815 34.228 88.032 34.452 88.284 34.634C88.536 34.802 88.886 34.977 89.334 35.159C89.796 35.327 90.202 35.46 90.552 35.558C90.902 35.656 91.364 35.775 91.938 35.915C92.582 36.083 93.149 36.272 93.639 36.482C94.129 36.692 94.605 36.958 95.067 37.28C95.529 37.602 95.879 38.001 96.117 38.477C96.369 38.953 96.495 39.499 96.495 40.115C96.495 41.319 95.998 42.341 95.004 43.181C94.01 44.007 92.652 44.42 90.93 44.42C88.676 44.42 86.989 43.65 85.869 42.11C85.379 41.452 85.036 40.682 84.84 39.8ZM99.7846 42.656C98.7766 41.62 98.2726 40.318 98.2726 38.75C98.2726 37.182 98.7766 35.88 99.7846 34.844C100.793 33.808 102.039 33.29 103.523 33.29C105.245 33.29 106.61 33.906 107.618 35.138C108.052 35.684 108.367 36.293 108.563 36.965H106.883C106.729 36.587 106.498 36.237 106.19 35.915C105.518 35.215 104.629 34.865 103.523 34.865C102.501 34.865 101.647 35.229 100.961 35.957C100.289 36.685 99.9526 37.616 99.9526 38.75C99.9526 39.884 100.303 40.815 101.003 41.543C101.703 42.271 102.543 42.635 103.523 42.635C104.671 42.635 105.588 42.25 106.274 41.48C106.582 41.158 106.82 40.773 106.988 40.325H108.668C108.486 41.039 108.164 41.69 107.702 42.278C106.638 43.566 105.245 44.21 103.523 44.21C102.039 44.21 100.793 43.692 99.7846 42.656ZM110.777 44V29.3H112.457V35.075H112.478C112.688 34.739 112.961 34.445 113.297 34.193C114.067 33.591 114.977 33.29 116.027 33.29C117.301 33.29 118.316 33.696 119.072 34.508C119.842 35.306 120.227 36.405 120.227 37.805V44H118.547V37.91C118.547 36.902 118.295 36.146 117.791 35.642C117.287 35.124 116.594 34.865 115.712 34.865C114.746 34.865 113.962 35.187 113.36 35.831C112.758 36.461 112.457 37.294 112.457 38.33V44H110.777ZM123.882 42.656C122.846 41.62 122.328 40.318 122.328 38.75C122.328 37.182 122.846 35.88 123.882 34.844C124.918 33.808 126.22 33.29 127.788 33.29C129.356 33.29 130.658 33.808 131.694 34.844C132.73 35.88 133.248 37.182 133.248 38.75C133.248 40.318 132.73 41.62 131.694 42.656C130.658 43.692 129.356 44.21 127.788 44.21C126.22 44.21 124.918 43.692 123.882 42.656ZM125.079 35.957C124.365 36.685 124.008 37.616 124.008 38.75C124.008 39.884 124.365 40.815 125.079 41.543C125.793 42.271 126.696 42.635 127.788 42.635C128.88 42.635 129.783 42.271 130.497 41.543C131.211 40.815 131.568 39.884 131.568 38.75C131.568 37.616 131.211 36.685 130.497 35.957C129.783 35.229 128.88 34.865 127.788 34.865C126.696 34.865 125.793 35.229 125.079 35.957ZM136.474 42.656C135.438 41.62 134.92 40.318 134.92 38.75C134.92 37.182 135.438 35.88 136.474 34.844C137.51 33.808 138.812 33.29 140.38 33.29C141.948 33.29 143.25 33.808 144.286 34.844C145.322 35.88 145.84 37.182 145.84 38.75C145.84 40.318 145.322 41.62 144.286 42.656C143.25 43.692 141.948 44.21 140.38 44.21C138.812 44.21 137.51 43.692 136.474 42.656ZM137.671 35.957C136.957 36.685 136.6 37.616 136.6 38.75C136.6 39.884 136.957 40.815 137.671 41.543C138.385 42.271 139.288 42.635 140.38 42.635C141.472 42.635 142.375 42.271 143.089 41.543C143.803 40.815 144.16 39.884 144.16 38.75C144.16 37.616 143.803 36.685 143.089 35.957C142.375 35.229 141.472 34.865 140.38 34.865C139.288 34.865 138.385 35.229 137.671 35.957ZM148.142 44V29.3H149.822V42.425H152.237V44H148.142Z" fill="white"/></svg>