<svg width="43" height="41" viewBox="0 0 43 41" fill="none" xmlns="http://www.w3.org/2000/svg"><g clip-path="url(#clip0_1_108)"><path d="M30.0984 1.19482H43.008L25.7543 33.142C25.7543 33.142 22.8473 24.6784 21.598 21.658" fill="white"/><path d="M33.2828 40.6968H43.008V1.19482C43 21.8381 34.3444 40.6968 33.2828 40.6968Z" fill="white"/><path d="M25.7543 33.1422H17.7275L0 1.19505C3.14375 0.793971 9.42309 0.253743 12.5342 0L25.7543 33.1422Z" fill="white"/><path d="M10.2805 20.5288C7.6185 31.0714 -0.00815905 41.0082 6.55188e-06 41.0002C8.83517 41.0002 10.7378 39.715 10.7378 39.0357C10.7378 38.6591 10.7378 26.8969 10.7378 21.331C10.5826 21.069 10.4356 20.7989 10.2805 20.5288Z" fill="white"/><path d="M0 1.19482V40.9998C4.83404 32.9946 7.65115 27.756 10.1417 20.2911C4.00115 9.40465 0 1.19482 0 1.19482Z" fill="white"/><path d="M32.6134 39.1336L33.2829 40.697V19.9556L32.6134 21.077" fill="url(#paint0_linear_1_108)"/><path d="M33.2504 19.9964V40.6315L33.2748 40.6968C33.9689 40.6968 43 18.3675 43 1.19482C43 1.19482 37.4881 12.7197 33.2504 19.9964Z" fill="white"/></g><defs><linearGradient id="paint0_linear_1_108" x1="28.2182" y1="34.4337" x2="38.3597" y2="26.241" gradientUnits="userSpaceOnUse"><stop stop-color="white"/><stop offset="0.5" stop-color="white"/><stop offset="1" stop-color="white"/></linearGradient><clipPath id="clip0_1_108"><rect width="43" height="41" fill="white"/></clipPath></defs></svg>