<svg width="119" height="38" viewBox="0 0 119 38" fill="none" xmlns="http://www.w3.org/2000/svg"><path fill-rule="evenodd" clip-rule="evenodd" d="M53.1165 29.5696H42.8079V20.1108H52.9541V22.202H45.5704V23.8142H52.5637V25.7903H45.5704V27.4197H53.1165V29.5719V29.5696Z" fill="white"/><path fill-rule="evenodd" clip-rule="evenodd" d="M112.425 29.5695H102.277V20.2593H112.265V22.3171H104.996V23.9016H111.88V25.8466H104.996V27.4507H112.425V29.5695Z" fill="white"/><path fill-rule="evenodd" clip-rule="evenodd" d="M67.0937 29.5696H62.9228L57.4323 22.4945H57.3782V29.5696H54.6421V20.1108H58.8809L64.3047 27.1928H64.3577V20.1108H67.0937V29.5696Z" fill="white"/><path fill-rule="evenodd" clip-rule="evenodd" d="M100.146 29.5696H95.9751L90.4845 22.4945H90.4304V29.5696H87.6943V20.1108H91.9332L97.3558 27.1928H97.4099V20.1108H100.146V29.5696Z" fill="white"/><path fill-rule="evenodd" clip-rule="evenodd" d="M75.1524 29.6947C74.2772 29.6947 73.5218 29.6732 72.8861 29.6302C72.3393 29.6014 71.7967 29.5193 71.2659 29.385C70.8755 29.2887 70.5078 29.117 70.1834 28.8794C69.9003 28.6578 69.6777 28.3683 69.5363 28.0376C69.3693 27.6368 69.2648 27.2127 69.2265 26.7802C69.1689 26.1993 69.142 25.6158 69.1459 25.0321V24.7557C69.1418 24.1674 69.1699 23.5792 69.23 22.9939C69.2694 22.5578 69.3763 22.1305 69.5466 21.7272C69.6895 21.3977 69.9128 21.1095 70.1961 20.8889C70.5211 20.6533 70.8893 20.4838 71.2797 20.3902C71.8108 20.2581 72.3534 20.1779 72.8999 20.1507C73.5356 20.11 74.2864 20.0901 75.1524 20.0908H75.5727C76.3012 20.0908 76.9392 20.1066 77.4865 20.1381C77.96 20.1603 78.4311 20.2177 78.896 20.3096C79.2356 20.3732 79.5637 20.4877 79.8691 20.6493C80.1121 20.7816 80.3201 20.9699 80.4759 21.1986C80.6325 21.4407 80.7379 21.7123 80.7857 21.9966C80.8473 22.3549 80.8762 22.7179 80.8721 23.0814V23.4453H78.1924V23.3301C78.1979 23.1444 78.1641 22.9596 78.0934 22.7878C78.0091 22.6281 77.8689 22.505 77.6996 22.4423C77.4369 22.3379 77.1594 22.2754 76.8774 22.2569C76.525 22.2208 76.0602 22.2028 75.4828 22.2028H75.2525C74.7282 22.2028 74.281 22.2116 73.911 22.2293C73.601 22.2388 73.2926 22.2774 72.9898 22.3444C72.7784 22.3889 72.5788 22.4772 72.4036 22.6035C72.2541 22.7229 72.1421 22.8828 72.0812 23.0641C72.0019 23.2956 71.9558 23.5371 71.9442 23.7815C71.9246 24.066 71.9142 24.4091 71.9142 24.8087V24.9768C71.9142 25.3684 71.9246 25.7023 71.9442 25.981C71.9561 26.2208 72.0022 26.4578 72.0812 26.6846C72.1427 26.8657 72.2545 27.0255 72.4036 27.1452C72.579 27.2711 72.7786 27.3593 72.9898 27.4043C73.2927 27.4707 73.601 27.5093 73.911 27.5195C74.2818 27.5379 74.729 27.5471 75.2525 27.5471H75.4828C75.9089 27.5471 76.2763 27.539 76.5849 27.5229C76.8455 27.5119 77.1054 27.4869 77.3633 27.4481C77.5379 27.425 77.7085 27.3777 77.87 27.3076C77.9849 27.256 78.0854 27.1769 78.1625 27.0773C78.2331 26.9818 78.2801 26.8709 78.2995 26.7537C78.3232 26.6102 78.3344 26.4649 78.3329 26.3195V26.0558H74.7125V24.2306H80.9792V26.3322C80.9833 26.7329 80.9533 27.1331 80.8893 27.5287C80.8401 27.8426 80.7314 28.1443 80.5692 28.4177C80.4136 28.6695 80.2015 28.8816 79.9497 29.0372C79.6429 29.2203 79.3084 29.3526 78.9594 29.4287C78.4867 29.5359 78.006 29.6045 77.5222 29.6337C76.9649 29.6736 76.315 29.694 75.5727 29.6947H75.1524Z" fill="white"/><path fill-rule="evenodd" clip-rule="evenodd" d="M85.677 29.5863H82.9041V20.2012H85.677V29.5863Z" fill="white"/><path fill-rule="evenodd" clip-rule="evenodd" d="M48.4689 16.9415C47.7012 16.9415 47.0276 16.9211 46.448 16.8804C45.9441 16.8509 45.4434 16.7804 44.951 16.6697C44.5836 16.5905 44.2311 16.4537 43.9065 16.2644C43.6404 16.1039 43.4144 15.885 43.2455 15.6241C43.0725 15.342 42.9552 15.0292 42.9001 14.7029C42.8282 14.2939 42.7943 13.8791 42.7987 13.4638V7.34912H45.5889V12.5645C45.5889 12.8869 45.5993 13.1633 45.6223 13.3947C45.6375 13.598 45.6841 13.7977 45.7605 13.9866C45.8236 14.1424 45.9269 14.2787 46.0599 14.3816C46.2157 14.4919 46.3918 14.5702 46.5781 14.6119C46.8389 14.6764 47.1054 14.715 47.3738 14.7271C47.6882 14.7455 48.0647 14.7535 48.4989 14.7535H48.7349C49.1702 14.7535 49.541 14.7443 49.86 14.7236C50.1278 14.7093 50.3937 14.6708 50.6546 14.6085C50.8415 14.5687 51.018 14.4902 51.1728 14.3781C51.3051 14.2743 51.4085 14.1384 51.4733 13.9832C51.5493 13.7941 51.5959 13.5945 51.6115 13.3913C51.6338 13.161 51.6449 12.8854 51.6449 12.5645V7.34912H54.4339V13.4696C54.4384 13.8834 54.4068 14.2968 54.3395 14.7052C54.2885 15.0312 54.1743 15.3442 54.0033 15.6264C53.837 15.887 53.6133 16.1061 53.3492 16.2667C53.0274 16.456 52.6776 16.5928 52.3128 16.672C51.8176 16.783 51.3143 16.8535 50.8077 16.8828C50.2235 16.9242 49.5429 16.9446 48.766 16.9438L48.4689 16.9415Z" fill="white"/><path fill-rule="evenodd" clip-rule="evenodd" d="M68.7711 16.8261H64.6014L59.1108 9.72682H59.0567V16.8215H56.3218V7.34082H60.5595L65.9821 14.4481H66.0362V7.34082H68.7711V16.8261Z" fill="white"/><path fill-rule="evenodd" clip-rule="evenodd" d="M76.9939 12.1277C77.4737 12.1277 77.8575 12.1127 78.1454 12.0828C78.3732 12.071 78.5955 12.0085 78.796 11.8997C78.9378 11.8121 79.0402 11.673 79.0816 11.5116C79.1322 11.2962 79.1551 11.0753 79.1496 10.8541V10.6906C79.1548 10.4721 79.132 10.2538 79.0816 10.0411C79.0611 9.96113 79.0246 9.88614 78.9743 9.82064C78.924 9.75514 78.8611 9.70048 78.7891 9.65993C78.5859 9.55582 78.3631 9.49542 78.1351 9.48259C77.8506 9.45265 77.4695 9.43768 76.9939 9.43768H73.5174V12.1277H76.9939ZM81.9605 16.826H79.2037V16.0602C79.2056 15.8218 79.1941 15.5834 79.1691 15.3463C79.1538 15.1698 79.1062 14.9977 79.0287 14.8384C78.9583 14.7024 78.8535 14.5873 78.7247 14.5045C78.5661 14.4095 78.3917 14.3439 78.2099 14.311C77.9497 14.2604 77.686 14.2296 77.4211 14.2189C77.1087 14.2028 76.7371 14.1947 76.3064 14.1947H73.5174V16.8306H70.7537V7.34072H78.1109C78.7495 7.33044 79.3878 7.37823 80.0178 7.48351C80.4429 7.54855 80.8465 7.71308 81.1959 7.96371C81.4844 8.19029 81.6934 8.50287 81.7924 8.85615C81.9135 9.30297 81.9701 9.7648 81.9605 10.2276V10.5616C81.9648 10.8892 81.9355 11.2165 81.873 11.5381C81.8246 11.7942 81.7289 12.039 81.5908 12.2601C81.4604 12.4616 81.288 12.6324 81.0853 12.761C80.8505 12.9036 80.5931 13.0048 80.3241 13.0604V13.1146C80.6034 13.1557 80.8777 13.2252 81.1429 13.3218C81.3426 13.396 81.5165 13.5264 81.6438 13.6972C81.777 13.8911 81.8626 14.1136 81.8937 14.3467C81.9434 14.6872 81.9657 15.031 81.9605 15.375V16.826Z" fill="white"/><path fill-rule="evenodd" clip-rule="evenodd" d="M94.0763 16.8261H83.7688V7.34082H93.9139V9.43778H86.5302V11.0499H93.5235V13.0306H86.5302V14.6669H94.0763V16.8261Z" fill="white"/><path fill-rule="evenodd" clip-rule="evenodd" d="M103.396 13.1493L101.463 9.34342H101.395L99.475 13.1493H103.396ZM108.28 16.8342H105.268L104.399 15.1322H98.4847L97.6291 16.8342H94.6443L99.7376 7.3501H103.16L108.28 16.8342Z" fill="white"/><path fill-rule="evenodd" clip-rule="evenodd" d="M118.434 16.8332H109.299V7.34912H112.088V14.6269H118.434V16.8332Z" fill="white"/><path fill-rule="evenodd" clip-rule="evenodd" d="M29.6927 21.3084C29.3714 22.8561 27.9435 26.8289 23.3891 28.98L21.5605 26.9233L18.4743 30.0256C16.7184 30.0021 14.9917 29.5729 13.4291 28.7714C11.8666 27.9699 10.5105 26.818 9.46696 25.4056C9.79473 25.5078 10.1332 25.5715 10.4757 25.5956C10.9812 25.6048 11.5282 25.4194 11.5282 24.5707V16.199C11.5353 15.9838 11.492 15.7699 11.4018 15.5744C11.3116 15.3789 11.177 15.2072 11.0086 15.073C10.8403 14.9388 10.6429 14.8457 10.4322 14.8013C10.2215 14.7569 10.0034 14.7623 9.79515 14.8172C8.36608 15.1465 7.2249 18.7117 7.2249 18.7117C7.20888 17.0656 7.55154 15.4359 8.22907 13.9356C8.90659 12.4354 9.90272 11.1008 11.1482 10.0244C12.7875 8.60646 14.7943 7.68074 16.937 7.354C15.3767 8.243 14.5004 9.69279 14.5004 10.9088C14.5004 12.8664 15.6795 12.6292 16.0285 12.3413V23.6403C16.0879 23.782 16.1653 23.9155 16.2588 24.0376C16.4147 24.2532 16.6198 24.4284 16.8572 24.5486C17.0946 24.6688 17.3573 24.7305 17.6233 24.7285C18.8037 24.7285 20.3352 23.3812 20.3352 23.3812V14.2356C20.3352 13.3052 19.6339 12.1813 18.9315 11.7955C18.9315 11.7955 20.2316 11.5652 21.2346 12.3333C21.423 12.1031 21.6233 11.8829 21.8345 11.6734C24.1756 9.37611 26.3808 8.72204 28.2175 8.395C28.2175 8.395 24.8781 11.0194 24.8781 14.5408C24.8781 17.1594 24.946 23.5459 24.946 23.5459C26.1851 24.7423 28.0275 23.0139 29.6927 21.3084Z" fill="white"/><path fill-rule="evenodd" clip-rule="evenodd" d="M18.6251 0C14.9414 0 11.3404 1.09234 8.27754 3.13889C5.21467 5.18544 2.82745 8.09428 1.41776 11.4976C0.00807 14.9009 -0.360769 18.6457 0.357884 22.2586C1.07654 25.8716 2.8504 29.1902 5.45517 31.795C8.05993 34.3997 11.3786 36.1736 14.9915 36.8923C18.6044 37.6109 22.3493 37.2421 25.7526 35.8324C29.1559 34.4227 32.0647 32.0355 34.1113 28.9726C36.1578 25.9097 37.2502 22.3088 37.2502 18.6251C37.2502 13.6854 35.2879 8.94804 31.795 5.45516C28.3021 1.96228 23.5648 0 18.6251 0ZM18.6251 36.5039C15.0887 36.5039 11.6317 35.4553 8.69135 33.4905C5.75097 31.5258 3.45925 28.7333 2.10598 25.466C0.75272 22.1988 0.398703 18.6037 1.0887 15.1353C1.7787 11.6669 3.48172 8.48095 5.9824 5.98043C8.48308 3.47991 11.6691 1.77709 15.1376 1.08732C18.606 0.397542 22.2011 0.75179 25.4683 2.10526C28.7354 3.45874 31.5278 5.75064 33.4923 8.69115C35.4569 11.6317 36.5053 15.0887 36.5051 18.6251C36.5051 23.3672 34.6213 27.915 31.2682 31.2682C27.915 34.6213 23.3672 36.5051 18.6251 36.5051V36.5039Z" fill="white"/></svg>