<svg width="130" height="33" viewBox="0 0 130 33" fill="none" xmlns="http://www.w3.org/2000/svg"><g clip-path="url(#clip0_1_83)"><path d="M39.0606 24.8447C38.8784 24.8447 38.7304 24.6938 38.7304 24.5108V22.4481C38.7304 22.2639 38.8437 22.0151 38.9828 21.8968L49.8511 12.6003C49.9897 12.4816 49.9546 12.3843 49.7727 12.3843H40.3454C40.1635 12.3843 40.0148 12.2339 40.0148 12.0498V10.181C40.0148 9.99792 40.1635 9.84717 40.3454 9.84717H55.5334C55.7149 9.84717 55.864 9.99792 55.864 10.181V11.8655C55.864 12.0498 55.7502 12.2968 55.6109 12.4154L44.2558 22.1018C44.1165 22.2205 44.1516 22.3172 44.3337 22.3172H55.9913C56.1722 22.3172 56.3217 22.468 56.3217 22.6516V24.5108C56.3217 24.6938 56.1722 24.8447 55.9913 24.8447H39.0606Z" fill="white"/><path d="M57.5193 10.1816C57.5193 9.99792 57.6679 9.84717 57.8496 9.84717H65.8441C66.0263 9.84717 66.3239 9.84994 66.5045 9.85214C66.5045 9.85214 69.1656 9.89672 70.0081 9.99524C70.8499 10.0944 71.6033 10.3008 72.267 10.6143C72.9323 10.9282 73.4868 11.3463 73.929 11.8674C74.3723 12.3896 74.5943 12.9748 74.5943 13.6228C74.5943 14.3247 74.3206 14.9692 73.7738 15.5559C73.2278 16.1421 72.4868 16.5818 71.5513 16.8754C72.8705 17.1409 73.8857 17.5943 74.5943 18.2355C75.3032 18.8772 75.6575 19.6314 75.6575 20.4966C75.6575 21.1788 75.4293 21.8416 74.9706 22.4868C74.5132 23.1307 73.8879 23.6463 73.0949 24.0312C72.3018 24.4162 71.3242 24.6533 70.1633 24.742C69.434 24.7967 67.6765 24.8314 64.89 24.8449H57.8495C57.6678 24.8449 57.5192 24.6943 57.5192 24.51V10.1816H57.5193ZM62.222 12.3433C62.0406 12.3433 61.8916 12.4936 61.8916 12.677V15.4769C61.8916 15.6608 62.0406 15.8114 62.222 15.8114H64.4266C64.6078 15.8114 64.9056 15.8104 65.0876 15.809C65.0876 15.809 67.5194 15.7946 67.9333 15.7601C68.6809 15.6987 69.2696 15.5205 69.6972 15.2235C70.1264 14.9269 70.3406 14.536 70.3406 14.0518C70.3406 13.5878 70.1559 13.2117 69.7871 12.9213C69.4177 12.6313 68.8685 12.4553 68.1393 12.3947C67.7064 12.3603 66.4607 12.3432 64.4024 12.3432L62.222 12.3433ZM62.222 18.3076C62.0406 18.3076 61.8916 18.4582 61.8916 18.641V21.9834C61.8916 22.1663 62.0406 22.3172 62.222 22.3172H65.6085C65.7906 22.3172 66.0868 22.3155 66.2689 22.3137C66.2689 22.3137 68.5137 22.2867 68.9373 22.2246C69.5868 22.1433 70.1168 21.9439 70.5249 21.6275C70.9331 21.3099 71.1381 20.885 71.1381 20.3532C71.1381 19.9026 70.9798 19.5219 70.6665 19.2069C70.3494 18.8943 69.8948 18.6656 69.2987 18.5226C68.7033 18.3788 67.4107 18.3076 65.4218 18.3076H62.222Z" fill="white"/><path d="M76.4579 24.8447C76.2765 24.8447 76.1283 24.6941 76.1283 24.5098V13.9308C76.1283 13.7467 76.2765 13.5962 76.4579 13.5962H82.6986C82.8811 13.5962 83.1782 13.6017 83.3598 13.6078C83.3598 13.6078 86.0263 13.6976 86.8124 13.8993C87.5995 14.1014 88.2285 14.4606 88.7008 14.9775C89.1738 15.4941 89.4107 16.0852 89.4107 16.7498C89.4107 17.5931 89.0525 18.2907 88.3352 18.8399C87.6195 19.3904 86.5492 19.7367 85.1234 19.8797C85.8321 20.167 86.4174 20.4812 86.879 20.8236C87.3414 21.1669 87.9625 21.7748 88.7458 22.6508L90.5057 24.5983C90.6281 24.733 90.5804 24.8447 90.3974 24.8447H87.1378C86.9558 24.8447 86.7029 24.7367 86.5757 24.6053L84.6684 22.6356C84.5404 22.5037 84.3312 22.2906 84.2018 22.1607C84.2018 22.1607 83.0188 20.9712 82.7086 20.7427C82.3987 20.5154 82.0696 20.3599 81.7221 20.2755C81.3749 20.1913 80.8256 20.1487 80.0712 20.1487H79.7373C79.5562 20.1487 79.4066 20.2986 79.4066 20.4831V24.5098C79.4066 24.6941 79.2588 24.8447 79.0769 24.8447H76.4579ZM79.4066 18.0188C79.4066 18.2034 79.5563 18.3532 79.7374 18.3532H81.5021C81.6848 18.3532 81.9816 18.3505 82.1627 18.3471C82.1627 18.3471 84.3888 18.3075 84.7796 18.2154C85.1709 18.1229 85.4777 17.9641 85.6994 17.7397C85.9216 17.5152 86.0314 17.2329 86.0314 16.895C86.0314 16.5169 85.8858 16.2114 85.594 15.9786C85.3019 15.7461 84.8905 15.5987 84.3593 15.5376C84.0934 15.5121 83.2956 15.4994 81.9654 15.4994H79.7375C79.5564 15.4994 79.4067 15.6497 79.4067 15.834V18.0188H79.4066Z" fill="white"/><path d="M89.9748 13.9309C89.9748 13.7468 90.1226 13.5967 90.3046 13.5967H92.9228C93.1048 13.5967 93.253 13.7468 93.253 13.9309V19.3539C93.253 19.5385 93.2573 19.839 93.2618 20.0225C93.2618 20.0225 93.2939 21.2824 93.376 21.569C93.5153 22.0284 93.8489 22.3977 94.3773 22.6765C94.9057 22.9559 95.6271 23.0956 96.5432 23.0956C97.4735 23.0956 98.1751 22.9633 98.6478 22.7003C99.1205 22.4366 99.4051 22.113 99.5015 21.7288C99.597 21.3457 99.6443 20.7085 99.6443 19.8185V13.9309C99.6443 13.7468 99.7927 13.5967 99.9761 13.5967H102.593C102.776 13.5967 102.925 13.7468 102.925 13.9309V19.17C102.925 19.3539 102.918 19.6544 102.911 19.8388C102.911 19.8388 102.836 21.8083 102.658 22.3667C102.481 22.9232 102.154 23.3949 101.678 23.7784C101.202 24.1616 100.565 24.4673 99.7663 24.6947C98.9692 24.9226 97.9283 25.0358 96.6425 25.0358C95.0929 25.0358 93.9158 24.9125 93.1151 24.664C92.3129 24.4162 91.6804 24.0937 91.2157 23.6975C90.7495 23.3014 90.4424 22.8857 90.2958 22.4505C90.0811 21.8062 89.9748 20.8543 89.9748 19.5967V13.9309Z" fill="white"/><path d="M103.098 21.1848L105.958 20.992C106.14 20.98 106.349 21.1064 106.425 21.2743C106.425 21.2743 106.869 22.2561 107.457 22.604C108.044 22.9522 108.836 23.1254 109.833 23.1254C110.889 23.1254 111.684 22.9713 112.22 22.662C112.754 22.3517 113.022 21.9901 113.022 21.5766C113.022 21.3096 112.91 21.0842 112.684 20.8967C112.46 20.7105 112.067 20.5481 111.506 20.4097C111.121 20.3181 110.247 20.1535 108.879 19.9195C107.122 19.6182 105.889 19.2468 105.179 18.8069C104.182 18.1865 103.683 17.4335 103.683 16.5425C103.683 15.9703 103.919 15.4337 104.388 14.9358C104.858 14.4368 105.533 14.0568 106.415 13.7963C107.298 13.5352 108.362 13.4048 109.61 13.4048C111.649 13.4048 113.183 13.7138 114.214 14.3332C115.244 14.952 115.785 15.7781 115.837 16.8114L112.888 16.9008C112.707 16.9067 112.497 16.7742 112.422 16.6066C112.422 16.6066 112.116 15.9178 111.654 15.6648C111.193 15.4111 110.501 15.2846 109.578 15.2846C108.625 15.2846 107.879 15.4202 107.339 15.6912C106.992 15.8653 106.818 16.0979 106.818 16.3901C106.818 16.6558 106.982 16.8833 107.307 17.0721C107.719 17.3123 108.724 17.5635 110.319 17.8241C111.915 18.0849 113.095 18.355 113.859 18.6334C114.623 18.912 115.222 19.2932 115.655 19.7766C116.086 20.2601 116.302 20.857 116.302 21.5685C116.302 22.213 116.043 22.8164 115.527 23.3787C115.009 23.942 114.279 24.3597 113.334 24.6336C112.388 24.9072 111.21 25.0452 109.799 25.0452C107.746 25.0452 106.17 24.7154 105.069 24.0578C103.968 23.4012 103.311 22.4431 103.098 21.1848Z" fill="white"/><path d="M117.088 24.8447C116.905 24.8447 116.757 24.6939 116.757 24.5109V13.9308C116.757 13.7467 116.905 13.5962 117.088 13.5962H119.706C119.888 13.5962 120.036 13.7467 120.036 13.9308V17.6891C120.036 17.8731 120.184 18.024 120.367 18.024H126.131C126.313 18.024 126.462 17.8731 126.462 17.6891V13.9308C126.462 13.7467 126.611 13.5962 126.792 13.5962H129.41C129.593 13.5962 129.741 13.7467 129.741 13.9308V24.5109C129.741 24.6939 129.593 24.8447 129.41 24.8447H126.792C126.611 24.8447 126.462 24.6939 126.462 24.5109V20.2607C126.462 20.0766 126.313 19.9264 126.131 19.9264H120.367C120.184 19.9264 120.036 20.0766 120.036 20.2607V24.5109C120.036 24.6939 119.888 24.8447 119.706 24.8447H117.088Z" fill="white"/><path fill-rule="evenodd" clip-rule="evenodd" d="M21.8051 0.237108C23.5045 0.139352 24.7256 1.9952 25.2378 3.24126C25.5296 3.94985 25.7737 5.10523 25.07 5.45561C24.5202 5.72994 23.8621 5.7726 23.0837 5.87571C21.2254 6.1201 20.0438 5.6713 19.3715 4.53371C19.1786 4.20782 18.9769 3.63334 19.0967 3.06287C19.3309 1.93733 20.0186 1.04059 20.8787 0.533534C21.0389 0.438361 21.4409 0.258152 21.8051 0.237108Z" fill="white"/><path d="M16.5979 7.01515C17.5935 7.01678 18.6341 7.17996 19.6037 7.44061C20.6647 7.7268 21.6622 8.10511 22.4982 8.44228C24.0999 9.08889 25.274 9.56084 25.274 9.56084C25.274 9.56084 26.0828 8.99554 26.3911 8.78529C27.1377 8.32033 27.8325 7.85192 28.7527 7.64914C29.0503 7.5838 29.6047 7.58113 29.8821 7.63096C30.9717 7.82714 31.633 8.30703 31.7252 9.24222C31.8502 10.4991 30.2639 11.8294 29.8908 12.1839C29.5571 12.5003 27.9576 14.0289 25.9904 14.1886C25.0332 14.2669 24.1282 13.948 23.4771 13.6713C23.2597 13.5786 22.6937 13.2933 22.6937 13.2933C22.6937 13.2933 21.8194 14.1353 21.017 14.9856C20.2107 15.8395 18.2134 18.3119 18.2134 18.3167C20.4178 18.1564 22.9494 18.8681 24.5548 19.4952C28.3303 20.9705 31.9732 23.5666 34.4348 27.0776C35.2798 28.2846 36.0858 29.6164 36.696 31.0455C36.8633 31.438 37.1931 32.2696 36.8994 32.6245C36.5948 32.9915 35.893 32.5559 35.4978 32.3611C34.7788 32.0081 33.247 30.8237 32.14 29.9256C31.6339 29.5142 30.8521 28.8036 30.7158 28.176C30.6293 27.7742 30.8701 27.249 30.9532 26.8372C31.0868 26.1788 30.7072 25.6701 30.4446 25.339C29.8281 24.5613 28.7711 24.0756 27.7768 23.6813C25.803 22.8963 24.4193 22.6456 21.0731 22.217C17.7275 21.7887 15.488 22.0585 15.2401 22.0683C14.9822 22.3781 14.6508 22.7769 14.3927 23.0867C13.6809 23.8332 11.0324 26.479 10.2665 27.0662C8.89654 28.1163 7.36594 29.1347 5.74515 29.9256C2.62534 31.4471 0.635438 31.2067 0.409001 30.9546C0.183227 30.7028 0.174528 29.9861 0.64962 29.0014C1.12906 28.0085 2.26909 26.7208 2.79476 26.1745C3.31949 25.6269 4.29491 24.7213 5.62054 23.704C7.45207 22.2972 10.2378 20.8813 11.623 20.1932C13.5556 19.2322 15.4899 18.7708 15.9753 18.6377C18.6323 14.9435 21.4463 12.599 21.4463 12.599C21.4463 12.599 20.3175 11.8688 19.841 11.5469C18.804 10.8463 17.7821 10.0961 16.5856 9.5681C15.8323 9.2362 14.5878 8.76702 13.5106 9.04288C12.185 9.38168 10.4398 10.3885 9.73932 11.2578C9.50617 11.5466 9.30866 12.0747 9.23066 12.5241C9.16835 12.8789 9.26479 13.3961 9.17015 13.6507C9.00394 14.0972 8.28417 14.4925 7.72361 14.7412C6.96185 15.0784 6.17939 15.4267 5.31147 15.6492C5.01885 15.7237 4.50301 15.8645 4.34351 15.6456C4.13182 15.3548 4.46141 14.9188 4.57345 14.7184C5.02887 13.9007 5.57572 13.2146 6.15198 12.519C7.90825 10.3994 9.82015 8.81973 12.5049 7.73838C13.1787 7.46711 14.4724 7.01209 16.5979 7.01515ZM29.716 8.85445C29.2586 8.89797 28.7566 8.98444 28.3435 9.14753C27.7335 9.38742 27.1908 9.67829 26.6315 10.0201C27.8653 10.3992 29.2844 10.6146 30.3994 9.93167C30.6706 9.76505 30.9151 9.54037 30.9269 9.2735C30.9407 8.97267 30.1728 8.81131 29.716 8.85445ZM13.021 22.343C13.021 22.343 12.403 22.4574 12.0711 22.5257C11.7397 22.5946 10.9743 22.816 10.4613 22.951C9.05745 23.3193 5.3767 24.7646 3.7214 26.4372C3.18126 26.9828 2.75723 27.6336 2.44267 28.4089C2.35635 28.6216 2.18126 29.1149 2.35721 29.4113C2.50706 29.6635 2.9519 29.719 3.33329 29.6345C4.1167 29.4609 4.82286 29.1345 5.45139 28.7842C7.81342 27.466 10.0819 25.5519 11.4912 24.0127C11.9476 23.514 12.5319 22.899 12.6971 22.713C12.8625 22.5257 13.021 22.343 13.021 22.343Z" fill="white"/></g><defs><clipPath id="clip0_1_83"><rect width="130" height="33" fill="white"/></clipPath></defs></svg>