<svg width="96" height="96" viewBox="0 0 96 96" fill="none" xmlns="http://www.w3.org/2000/svg"><path d="M90.1952 48C93.4011 48 96.0362 45.3918 95.6494 42.2092C95.1251 37.895 94.0162 33.6629 92.3462 29.6312C89.934 23.8076 86.3983 18.5161 81.9411 14.0589C77.4839 9.60166 72.1924 6.06601 66.3688 3.65378C62.3371 1.98379 58.105 0.874883 53.7907 0.350578C50.6082 -0.03619 48 2.59892 48 5.80485C48 9.01077 50.6151 11.5625 53.7803 12.0717C56.5696 12.5205 59.3037 13.2936 61.926 14.3797C66.341 16.2085 70.3527 18.889 73.7318 22.2682C77.111 25.6473 79.7915 29.659 81.6203 34.074C82.7064 36.6963 83.4795 39.4304 83.9283 42.2197C84.4375 45.3849 86.9892 48 90.1952 48Z" fill="url(#paint0_linear_2025_405)"/><defs><linearGradient id="paint0_linear_2025_405" x1="51.3072" y1="11.3216" x2="86.6928" y2="46.0118" gradientUnits="userSpaceOnUse"><stop stop-color="#FF5632" stop-opacity="0"/><stop offset="1" stop-color="#FF5632"/></linearGradient></defs></svg>