<svg width="99" height="32" viewBox="0 0 99 32" fill="none" xmlns="http://www.w3.org/2000/svg"><path d="M32.0294 16C32.0294 7.16344 24.8594 0 16.0147 0C7.17003 0 0 7.16344 0 16C0 24.8366 7.17003 32 16.0147 32C24.8594 32 32.0294 24.8366 32.0294 16Z" fill="#F65648"/><path d="M11.9616 13.7652C12.0249 13.7094 12.0566 13.6815 12.0616 13.6542C12.0659 13.6304 12.0593 13.606 12.0435 13.5876C12.0254 13.5666 11.9846 13.5587 11.903 13.5428C10.9517 13.3578 9.96678 13.2493 9.10278 13.2403C9.06129 13.2399 9.04062 13.2396 9.02453 13.2319C9.01019 13.225 8.99854 13.2143 8.99046 13.2007C8.98129 13.1853 8.97933 13.1649 8.97532 13.1241L8.65503 9.83302C8.65102 9.79222 8.64906 9.77178 8.65517 9.75483C8.66056 9.73993 8.67032 9.72691 8.68305 9.71753C8.69761 9.70683 8.7177 9.70298 8.75796 9.6952C13.584 8.76233 18.3875 8.71447 23.2858 9.69702C23.326 9.70502 23.346 9.70902 23.3605 9.71978C23.3731 9.72924 23.3828 9.74225 23.3881 9.75716C23.3941 9.77411 23.3921 9.79447 23.388 9.83513L23.0556 13.1245C23.0515 13.1652 23.0494 13.1855 23.0403 13.2009C23.0322 13.2144 23.0205 13.2251 23.0062 13.2319C22.9902 13.2396 22.9696 13.2399 22.9282 13.2403C22.0641 13.2492 21.0791 13.3577 20.1275 13.5428C20.046 13.5587 20.0052 13.5666 19.987 13.5876C19.9713 13.606 19.9646 13.6304 19.969 13.6542C19.9739 13.6815 20.0057 13.7094 20.0691 13.7652C22.3617 15.7844 23.9831 18.4448 24.0195 22.1823C24.0199 22.2271 24.0201 22.2496 24.0115 22.2669C24.0039 22.282 23.9914 22.2945 23.9764 22.3023C23.9592 22.3111 23.9368 22.3111 23.892 22.3111H20.5894C20.5445 22.3111 20.5221 22.3111 20.5051 22.3025C20.49 22.2948 20.478 22.2831 20.4702 22.2681C20.4614 22.2512 20.461 22.2282 20.4604 22.1823C20.4175 19.0627 18.814 16.983 16.0851 15.2027C16.0599 15.1863 16.0473 15.178 16.0337 15.1748C16.0216 15.172 16.0089 15.172 15.9969 15.1748C15.9833 15.178 15.9706 15.1863 15.9454 15.2027C13.2166 16.983 11.613 19.0627 11.5702 22.1823C11.5696 22.2282 11.5693 22.2512 11.5604 22.2681C11.5526 22.2831 11.5406 22.2948 11.5255 22.3025C11.5085 22.3111 11.4861 22.3111 11.4412 22.3111H8.13863C8.09379 22.3111 8.07137 22.3111 8.05411 22.3023C8.03912 22.2945 8.02667 22.282 8.0191 22.2669C8.01044 22.2496 8.01066 22.2271 8.01109 22.1823C8.04749 18.4448 9.66898 15.7844 11.9616 13.7652Z" fill="white"/><path d="M52.6971 22.5455H42.0925V10.3273H45.7438V19.0545H52.6971V22.5455Z" fill="#252129"/><path d="M67.1475 22.5455H63.1991L62.4129 20.3811H57.6784L56.8922 22.5455H53.0487L58.22 10.3273H61.9587L67.1475 22.5455ZM58.6917 17.344H61.3996L60.0369 13.8182L58.6917 17.344Z" fill="#252129"/><path d="M73.2287 18.5484L76.2336 10.3273H80.1296L75.1155 22.5455H71.2368L66.2402 10.3273H70.2235L73.2287 18.5484Z" fill="#252129"/><path d="M93.3024 22.5455H89.354L88.5678 20.3811H83.8333L83.0471 22.5455H79.2036L84.3749 10.3273H88.1136L93.3024 22.5455ZM84.8466 17.344H87.5546L86.1918 13.8182L84.8466 17.344Z" fill="#252129"/></svg>