<svg width="54" height="24" viewBox="0 0 54 24" fill="none" xmlns="http://www.w3.org/2000/svg"><path fill-rule="evenodd" clip-rule="evenodd" d="M45.04 10.2801C45.04 9.78804 45.3807 9.38989 45.803 9.38989C46.2254 9.38989 46.564 9.78804 46.564 10.2801C46.564 10.7721 46.2234 11.171 45.803 11.171C45.3827 11.171 45.04 10.7728 45.04 10.2801ZM45.803 10.9613C45.9254 10.9683 46.0469 10.9343 46.1518 10.8638C46.2566 10.7933 46.3401 10.6895 46.3913 10.5658C46.4426 10.4421 46.4593 10.3042 46.4393 10.1698C46.4193 10.0354 46.3635 9.91082 46.2791 9.81203C46.1948 9.71324 46.0857 9.64481 45.966 9.61558C45.8463 9.58635 45.7214 9.59765 45.6076 9.64803C45.4937 9.69841 45.396 9.78555 45.3272 9.89821C45.2583 10.0109 45.2214 10.1439 45.2213 10.2801C45.2174 10.456 45.2765 10.6265 45.3855 10.7542C45.4946 10.8819 45.6447 10.9564 45.803 10.9613ZM45.6995 10.6722V10.3641H45.8139L45.9168 10.6722H46.0905L45.9679 10.3255C46.0028 10.3093 46.0325 10.2818 46.053 10.2465C46.0736 10.2113 46.084 10.1699 46.083 10.1279C46.0838 10.09 46.0764 10.0524 46.0616 10.0182C46.0468 9.98401 46.025 9.95417 45.9979 9.93111C45.9461 9.89716 45.8861 9.88182 45.8262 9.8872H45.5435V10.6706L45.6995 10.6722ZM45.6995 10.2309H45.786C45.8187 10.2346 45.8518 10.2292 45.8821 10.215C45.8945 10.2043 45.9045 10.1905 45.9111 10.1747C45.9177 10.1589 45.9209 10.1416 45.9202 10.1241C45.9198 10.109 45.9161 10.0943 45.9095 10.0811C45.9028 10.0679 45.8934 10.0567 45.8821 10.0484C45.8512 10.0345 45.8177 10.0296 45.7846 10.0341H45.6995V10.2309Z" fill="#C8C8C8"/><path fill-rule="evenodd" clip-rule="evenodd" d="M34.1379 4.35773L33.9295 5.87163C33.4764 5.60367 33.1426 5.49845 32.787 5.49845C31.8373 5.49845 31.1656 6.5718 31.1656 8.1031C31.1656 9.16283 31.6166 9.7979 32.3578 9.7979C32.6726 9.7979 33.0186 9.68588 33.4417 9.43911L33.2189 11.0287C32.7509 11.1801 32.4457 11.2316 32.0921 11.2316C30.716 11.2316 29.8604 10.0787 29.8604 8.228C29.8604 5.7384 31.0423 4.00046 32.7339 4.00046C32.9268 3.99621 33.1194 4.02168 33.3061 4.07615L33.832 4.22754C33.9881 4.29415 34.0235 4.30475 34.1379 4.35773Z" fill="#C8C8C8"/><path fill-rule="evenodd" clip-rule="evenodd" d="M29.9035 5.39475C29.8604 5.38551 29.8166 5.38069 29.7727 5.38037C29.3524 5.38037 29.1146 5.62713 28.7243 6.30157L28.8381 5.44093H27.6799L26.8965 11.1006H28.1786C28.6371 7.64137 28.7543 7.04414 29.3687 7.04414C29.3999 7.04358 29.4311 7.04561 29.4621 7.05019C29.5467 6.47931 29.7093 5.92616 29.9444 5.40989L29.9035 5.39475Z" fill="#C8C8C8"/><path fill-rule="evenodd" clip-rule="evenodd" d="M22.2653 11.0319C21.9716 11.1507 21.6621 11.2139 21.3497 11.2188C20.6984 11.2188 20.3428 10.7775 20.3428 9.97366C20.3429 9.80379 20.3552 9.6342 20.3796 9.4665L20.4586 8.91469L20.5165 8.46052L21.0703 4.6001H22.3388L22.1917 5.44106H22.845L22.6686 6.81719H22.0173L21.6801 9.17886C21.6695 9.25664 21.6624 9.33495 21.659 9.41352C21.659 9.70343 21.7952 9.83286 22.0936 9.83286C22.209 9.83728 22.3242 9.81962 22.4342 9.78064L22.2653 11.0319Z" fill="#C8C8C8"/><path fill-rule="evenodd" clip-rule="evenodd" d="M17.236 7.23421C17.236 7.94801 17.5324 8.44533 18.2034 8.81169C18.7164 9.09554 18.7981 9.17805 18.7981 9.43541C18.7981 9.78739 18.5706 9.95014 18.0685 9.95014C17.6792 9.94783 17.2932 9.87101 16.9274 9.72305L16.751 11.028L16.8089 11.0417L17.0432 11.0969C17.1182 11.1151 17.2292 11.131 17.3757 11.1484C17.6795 11.1802 17.9132 11.1953 18.0781 11.1953C19.4167 11.1953 20.036 10.5943 20.036 9.30295C20.036 8.52859 19.7778 8.07064 19.1401 7.72774C18.6074 7.44616 18.5474 7.37955 18.5474 7.11689C18.5474 6.80957 18.7586 6.65212 19.1681 6.65212C19.4737 6.65781 19.7786 6.68588 20.0809 6.73614L20.2628 5.42966C19.8926 5.36279 19.5186 5.32535 19.1435 5.31763C17.7231 5.31763 17.2313 6.1866 17.236 7.23421Z" fill="#C8C8C8"/><path fill-rule="evenodd" clip-rule="evenodd" d="M44.3001 11.1006H43.0929L43.1563 10.5465C42.8047 10.9848 42.4437 11.1756 41.977 11.1756C41.0444 11.1756 40.4326 10.2415 40.4326 8.82903C40.4326 6.9465 41.383 5.35767 42.5111 5.35767C43.0071 5.35767 43.3824 5.59611 43.7374 6.13203L44.0146 4.14429H45.2729L44.3021 11.1036L44.3001 11.1006ZM42.4171 9.7684C43.0132 9.7684 43.4301 8.98193 43.4301 7.86165C43.4301 7.14255 43.1924 6.75045 42.7489 6.75045C42.1705 6.75045 41.7597 7.5407 41.7597 8.65417C41.7624 9.39522 41.9831 9.7684 42.4171 9.7684Z" fill="#C8C8C8"/><path fill-rule="evenodd" clip-rule="evenodd" d="M26.3072 10.9817C25.8835 11.1336 25.4409 11.2103 24.9958 11.2088C23.5733 11.2088 22.8301 10.3391 22.8301 8.6753C22.8301 6.7307 23.7757 5.29932 25.0605 5.29932C26.1089 5.29932 26.782 6.10168 26.782 7.35897C26.776 7.82978 26.7218 8.2983 26.6206 8.75553H24.087C24.0785 8.81334 24.0741 8.87181 24.074 8.93039C24.074 9.59196 24.4542 9.92501 25.1961 9.92501C25.6568 9.9244 26.1107 9.80111 26.5197 9.56546L26.3072 10.9817ZM25.5912 7.61254C25.598 7.49446 25.6 7.39757 25.6 7.32642C25.6 6.86392 25.3759 6.59369 24.9958 6.59369C24.5918 6.59369 24.3016 6.95476 24.1824 7.60876L25.5912 7.61254Z" fill="#C8C8C8"/><path fill-rule="evenodd" clip-rule="evenodd" d="M12.1137 11.1012H10.839L11.5693 5.75265L9.93774 11.1012H9.06437L8.95878 5.78444L8.18965 11.1012H6.99609L7.99208 4.14111H9.82874L9.87915 8.44813L11.1197 4.14111H13.1015L12.1137 11.1012Z" fill="#C8C8C8"/><path fill-rule="evenodd" clip-rule="evenodd" d="M15.3988 8.57987C15.3043 8.56451 15.2089 8.55642 15.1134 8.55565C14.3899 8.55565 14.0234 8.84783 14.0234 9.41932C14.0234 9.7713 14.2032 9.99611 14.4819 9.99611C15.0003 9.99611 15.3764 9.41932 15.3982 8.57987H15.3988ZM16.3267 11.1005H15.2701L15.2933 10.5131C14.971 10.9817 14.5439 11.1989 13.9566 11.1989C13.2631 11.1989 12.791 10.5684 12.791 9.65625C12.791 8.27482 13.6187 7.47246 15.0337 7.47246C15.2072 7.47366 15.3804 7.48782 15.5521 7.51484C15.5832 7.39515 15.6004 7.27152 15.6032 7.14697C15.6032 6.7738 15.3811 6.63149 14.7857 6.63149C14.4268 6.6301 14.0696 6.68462 13.7243 6.79348L13.5472 6.85025L13.4355 6.88734L13.6085 5.6187C14.2455 5.39843 14.6645 5.31592 15.1372 5.31592C16.2341 5.31592 16.8145 5.89044 16.8145 6.9759C16.8145 7.25748 16.7961 7.4664 16.7089 8.09845L16.4425 10.1036L16.3989 10.4654L16.3662 10.7538L16.3437 10.9514L16.3267 11.1005Z" fill="#C8C8C8"/><path fill-rule="evenodd" clip-rule="evenodd" d="M36.3361 8.57987C36.2421 8.56455 36.1471 8.55645 36.0521 8.55565C35.3265 8.55565 34.9621 8.84783 34.9621 9.41932C34.9621 9.7713 35.144 9.99611 35.4226 9.99611C35.9437 9.99611 36.3157 9.41932 36.3389 8.57987H36.3361ZM37.2647 11.1005H36.206L36.2312 10.5131C35.909 10.9817 35.4784 11.1989 34.8946 11.1989C34.2011 11.1989 33.7256 10.5684 33.7256 9.657C33.7256 8.27558 34.5519 7.47321 35.9696 7.47321C36.1433 7.47444 36.3167 7.4886 36.4887 7.5156C36.519 7.39573 36.5359 7.27218 36.5392 7.14773C36.5392 6.77455 36.3171 6.63225 35.7217 6.63225C35.3623 6.63005 35.0045 6.68459 34.6589 6.79423L34.477 6.851L34.3673 6.88809L34.5445 5.6187C35.1821 5.39843 35.6011 5.31592 36.0705 5.31592C37.1679 5.31592 37.7491 5.89044 37.7491 6.9759C37.7491 7.25748 37.7273 7.4664 37.6448 8.09845L37.3723 10.1036L37.3328 10.4654L37.2967 10.7538L37.2742 10.9514L37.2647 11.1005Z" fill="#C8C8C8"/><path fill-rule="evenodd" clip-rule="evenodd" d="M40.828 5.39475C40.7856 5.38523 40.7425 5.38041 40.6992 5.38037C40.2809 5.38037 40.0411 5.62713 39.6494 6.30157L39.7625 5.44093H38.6098L37.8291 11.1006H39.1071C39.5656 7.64137 39.6862 7.04414 40.2966 7.04414C40.3265 7.04159 40.3565 7.04363 40.3858 7.05019C40.472 6.47912 40.636 5.92599 40.8723 5.40989L40.828 5.39475Z" fill="#C8C8C8"/><path fill-rule="evenodd" clip-rule="evenodd" d="M35.4765 16.5899C35.4765 17.873 35.1195 18.6284 34.5561 18.6284C34.1474 18.642 33.8953 18.1334 33.8953 17.3711C33.8953 16.4703 34.2598 15.4492 34.8443 15.4492C35.3144 15.4492 35.4765 16.0025 35.4765 16.5899ZM36.732 16.6134C36.732 15.1873 36.0978 14.0776 34.9056 14.0776C33.5336 14.0776 32.6445 15.4265 32.6445 17.4143C32.6445 18.8366 33.1698 20 34.4689 20C35.7783 20 36.73 18.9667 36.73 16.6134H36.732Z" fill="#C8C8C8"/><path fill-rule="evenodd" clip-rule="evenodd" d="M33.0522 13.0763L32.8567 14.5842C32.4329 14.3177 32.1243 14.2057 31.7905 14.2057C30.8994 14.2057 30.2768 15.2836 30.2768 16.8149C30.2768 17.8746 30.6937 18.5119 31.3879 18.5119C31.6842 18.5119 32.0078 18.3999 32.4016 18.1532L32.1972 19.7427C31.7564 19.8941 31.4683 19.9464 31.1406 19.9464C29.8564 19.9464 29.0566 18.792 29.0566 16.9413C29.0566 14.4509 30.1609 12.7122 31.7421 12.7122C31.9229 12.7107 32.103 12.7361 32.2776 12.7879L32.7654 12.9393C32.863 12.9796 32.9587 13.0254 33.0522 13.0763Z" fill="#C8C8C8"/><path fill-rule="evenodd" clip-rule="evenodd" d="M25.1632 14.1124C25.1234 14.101 25.0824 14.0957 25.0413 14.0965C24.6543 14.0965 24.4282 14.3448 24.0644 15.017L24.1679 14.1578H23.0915L22.3633 19.8183H23.5548C23.9826 16.356 24.0964 15.7595 24.668 15.7595C24.6969 15.759 24.7259 15.7613 24.7545 15.7663C24.8332 15.197 24.9856 14.6432 25.2068 14.1223L25.1632 14.1124Z" fill="#C8C8C8"/><path fill-rule="evenodd" clip-rule="evenodd" d="M40.7223 19.7579H39.5996L39.6568 19.2053C39.3298 19.6413 38.9892 19.8343 38.5538 19.8343C37.6852 19.8343 37.1123 18.8988 37.1123 17.4833C37.1123 15.6045 38.002 14.0104 39.0539 14.0104C39.5178 14.0104 39.8714 14.2541 40.1956 14.7901L40.4579 12.8H41.6304L40.7223 19.7579ZM38.9605 18.4272C39.5219 18.4272 39.9088 17.6415 39.9088 16.5197C39.9088 15.7983 39.6881 15.4115 39.278 15.4115C38.7364 15.4115 38.3515 16.198 38.3515 17.3152C38.3542 18.0525 38.5606 18.4272 38.9633 18.4272H38.9605Z" fill="#C8C8C8"/><path fill-rule="evenodd" clip-rule="evenodd" d="M13.9919 19.7343C13.5997 19.8879 13.1869 19.9659 12.7711 19.9652C11.4406 19.9652 10.7471 19.0932 10.7471 17.4302C10.7471 15.4878 11.6327 14.0549 12.8297 14.0549C13.8113 14.0549 14.4374 14.8558 14.4374 16.1131C14.431 16.5832 14.3815 17.0514 14.2896 17.5104H11.9181C11.912 17.5687 11.9086 17.6273 11.9079 17.686C11.9079 18.3461 12.2642 18.6791 12.955 18.6791C13.3881 18.6777 13.8137 18.5543 14.1922 18.3203L13.9919 19.7343ZM13.3256 16.3674C13.3311 16.2478 13.3345 16.1524 13.3345 16.079C13.3345 15.618 13.1253 15.3478 12.7711 15.3478C12.3909 15.3478 12.1205 15.7111 12.0108 16.3613L13.3256 16.3674Z" fill="#C8C8C8"/><path fill-rule="evenodd" clip-rule="evenodd" d="M28.1635 19.7343C27.7713 19.8877 27.3585 19.9657 26.9427 19.9652C25.6095 19.9652 24.916 19.0932 24.916 17.4302C24.916 15.4878 25.8016 14.0549 26.9986 14.0549C27.981 14.0549 28.6091 14.8558 28.6091 16.1131C28.6034 16.5834 28.5531 17.0517 28.4592 17.5104H26.0898C26.0823 17.5952 26.0782 17.6368 26.0782 17.686C26.0782 18.3461 26.4325 18.6791 27.124 18.6791C27.5574 18.6776 27.9835 18.5542 28.3625 18.3203L28.1635 19.7343ZM27.4939 16.3674C27.502 16.2478 27.5061 16.1524 27.5061 16.079C27.5061 15.618 27.2949 15.3478 26.9427 15.3478C26.5626 15.3478 26.2915 15.7111 26.1818 16.3613L27.4939 16.3674Z" fill="#C8C8C8"/><path fill-rule="evenodd" clip-rule="evenodd" d="M44.7901 19.7343C44.396 19.8877 43.9814 19.9658 43.5638 19.9652C42.2334 19.9652 41.5371 19.0932 41.5371 17.4302C41.5371 15.4878 42.4227 14.0549 43.6217 14.0549C44.6034 14.0549 45.2288 14.8558 45.2288 16.1131C45.2244 16.5833 45.1753 17.0517 45.0823 17.5104H42.7129C42.7064 17.5687 42.703 17.6273 42.7027 17.686C42.7027 18.3461 43.0583 18.6791 43.7498 18.6791C44.1831 18.6777 44.609 18.5543 44.9876 18.3203L44.7901 19.7343ZM44.1204 16.3674C44.1259 16.2478 44.1293 16.1524 44.1293 16.079C44.1293 15.618 43.9208 15.3478 43.5659 15.3478C43.1857 15.3478 42.916 15.7111 42.8056 16.3613L44.1204 16.3674Z" fill="#C8C8C8"/><path fill-rule="evenodd" clip-rule="evenodd" d="M10.4649 14.3683C10.1706 14.1503 9.82314 14.038 9.46955 14.0466C8.98791 14.0466 8.60028 14.1578 8.60028 14.7278C8.60028 15.733 10.3565 15.3576 10.3565 17.5104C10.3565 19.4716 9.19842 19.9803 8.14929 19.9803C7.68263 19.9803 7.14581 19.8092 6.75 19.6139L7.03476 18.1757C7.27388 18.4164 7.75553 18.5814 8.14929 18.5814C8.52398 18.5814 9.11258 18.4679 9.11258 17.7397C9.11258 16.6005 7.35699 17.0244 7.35699 15.0245C7.35699 13.195 8.38228 12.647 9.37145 12.647C9.92804 12.647 10.4519 12.7378 10.7585 12.9649L10.4649 14.3683Z" fill="#C8C8C8"/><path fill-rule="evenodd" clip-rule="evenodd" d="M17.4798 19.7319C17.2339 19.8636 16.9055 19.9499 16.4212 19.9499C15.3802 19.9499 14.7344 18.7941 14.7344 17.3861C14.7344 15.543 15.6684 14.073 17.0431 14.073C17.3429 14.073 17.8007 14.2168 18.1618 14.4515L17.8995 15.8011C17.644 15.6149 17.3776 15.4983 17.1038 15.4983C16.4668 15.4983 16.0138 16.147 16.0138 17.3097C16.0138 17.9781 16.3442 18.5276 16.8653 18.5276C17.1466 18.5341 17.4234 18.4483 17.661 18.2809L17.4798 19.7319Z" fill="#C8C8C8"/><path fill-rule="evenodd" clip-rule="evenodd" d="M21.9364 18.3151C21.8751 18.8018 21.8185 19.2749 21.7845 19.7828H20.6379L20.7347 18.8684H20.7231C20.3634 19.4898 19.9921 19.913 19.3429 19.913C18.6221 19.913 18.2324 19.0712 18.2324 17.9722C18.2324 17.5937 18.2535 17.3787 18.3298 16.7868L18.6541 14.167H19.9308L19.5902 16.7951C19.5452 17.0773 19.5174 17.3626 19.507 17.6489C19.507 17.9797 19.6433 18.3151 19.9839 18.2946C20.5078 18.2946 20.8164 17.5838 20.9036 16.7542L21.2558 14.167H22.4916L21.9364 18.3151Z" fill="#C8C8C8"/><path fill-rule="evenodd" clip-rule="evenodd" d="M45.9789 19.7147H45.7861V18.7761H45.5068V18.5747H46.2583V18.7761H45.9789V19.7147Z" fill="#C8C8C8"/><path fill-rule="evenodd" clip-rule="evenodd" d="M47.2575 19.7147H47.0776V18.7624H47.0749L46.9025 19.7147H46.7138L46.5449 18.7624H46.5422V19.7147H46.3623V18.5747H46.6443L46.8113 19.4732H46.814L46.9782 18.5747H47.2575V19.7147Z" fill="#C8C8C8"/></svg>