<svg width="54" height="24" viewBox="0 0 54 24" fill="none" xmlns="http://www.w3.org/2000/svg"><path d="M23.8559 12.5405L22.1825 17.5559L22.0044 16.5361C21.5891 15.2878 20.6871 13.9779 19.6348 13.446L21.1658 19.8856H22.9776L25.6677 12.5405H23.8559Z" fill="#C8C8C8"/><path d="M25.292 19.89L26.3601 12.5317H28.0731L27.001 19.89H25.292Z" fill="#C8C8C8"/><path d="M33.2033 12.7122C32.867 12.5628 32.333 12.4045 31.6723 12.4045C29.9791 12.4045 28.7923 13.4023 28.7804 14.8309C28.7686 15.8903 29.631 16.4793 30.2758 16.8309C30.9444 17.1914 31.1659 17.4199 31.1659 17.7452C31.158 18.2375 30.6319 18.4617 30.1413 18.4617C29.4569 18.4617 29.093 18.3518 28.5312 18.0793L28.3097 17.9606L28.0684 19.6089C28.4679 19.8155 29.2077 19.9914 29.9752 20.0001C31.7712 20.0001 32.9382 19.0111 32.9541 17.4859C32.962 16.6463 32.5031 16.0089 31.518 15.4859C30.9207 15.143 30.5528 14.9188 30.5607 14.5716C30.5607 14.2683 30.8692 13.9386 31.5418 13.9386C32.1035 13.9298 32.5031 14.0705 32.8196 14.2199L32.9739 14.3034L33.2033 12.7122Z" fill="#C8C8C8"/><path d="M37.5912 12.5405H36.2698C35.8584 12.5405 35.5538 12.6724 35.3718 13.1515L32.832 19.8944H34.6281C34.6281 19.8944 34.9208 18.9889 34.9881 18.7867C35.1819 18.7867 36.9265 18.7911 37.1758 18.7911C37.2272 19.046 37.3854 19.8944 37.3854 19.8944H38.9718L37.5912 12.5405ZM35.4826 17.2834C35.625 16.8614 36.163 15.2262 36.163 15.2262C36.1512 15.2482 36.3015 14.7999 36.3885 14.5273L36.5032 15.1603C36.5032 15.1603 36.8316 16.9186 36.8988 17.2834H35.4826Z" fill="#C8C8C8"/><path d="M20.6277 12.5364H17.8703L17.8545 12.6638C19.9987 13.2748 21.4149 14.7693 22.0044 16.5408L21.4031 13.1606C21.3002 12.6902 20.9995 12.554 20.6277 12.5364Z" fill="#C8C8C8"/><path d="M12.6995 10.756H11.6076L10.3496 4.45709L11.5562 4.23291L12.4147 9.16478L14.6063 4.29884H15.7654L12.6995 10.756Z" fill="#C8C8C8"/><path d="M18.3682 8.69887H15.7691C15.6979 9.57359 16.0658 9.95601 16.6869 9.95601C17.2051 9.95601 17.664 9.74063 18.1586 9.39777L18.1546 10.2725C17.672 10.6066 17.1142 10.8219 16.4575 10.8219C15.326 10.8219 14.5783 10.1055 14.8038 8.48348C15.0056 7.01975 15.9194 6.13623 16.9757 6.13623C18.1902 6.13623 18.5977 7.15161 18.4197 8.43074C18.4038 8.51865 18.3761 8.63293 18.3682 8.69887ZM16.8372 6.90986C16.4337 6.90986 16.0579 7.2659 15.8799 7.99997H17.49C17.5216 7.30107 17.3238 6.90986 16.8372 6.90986Z" fill="#C8C8C8"/><path d="M20.066 8.14942L19.71 10.7296H18.7012L19.3262 6.22854H20.1807V7.13403C20.521 6.61095 20.9838 6.17579 21.6207 6.13623L21.6247 7.24392C20.9878 7.29227 20.4181 7.6615 20.066 8.14942Z" fill="#C8C8C8"/><path d="M21.6123 10.7296L22.2374 6.22853H23.2422L22.6171 10.7296H21.6123ZM22.8505 5.47248C22.5143 5.47248 22.2809 5.21314 22.3363 4.83952C22.3877 4.4571 22.6963 4.18896 23.0286 4.18896C23.3569 4.18896 23.5864 4.4571 23.5349 4.83952C23.4835 5.21314 23.1789 5.47248 22.8505 5.47248Z" fill="#C8C8C8"/><path d="M26.0274 4.99778C25.6832 4.99778 25.4775 5.16482 25.4182 5.56482L25.3272 6.22855H26.0986V7.14284H25.2006L24.7021 10.7297H23.7052L24.2037 7.14284H23.6182L23.7448 6.22855H24.3303L24.4371 5.45493C24.5755 4.45712 25.1966 4.0835 26.0274 4.0835C26.2054 4.0835 26.336 4.10108 26.4349 4.11866L26.4428 5.03295C26.3439 5.01536 26.1975 4.99778 26.0274 4.99778Z" fill="#C8C8C8"/><path d="M26.0391 10.7296L26.6641 6.22853H27.669L27.0479 10.7296H26.0391ZM27.2813 5.47248C26.945 5.47248 26.7116 5.21314 26.767 4.83952C26.8184 4.4571 27.127 4.18896 27.4593 4.18896C27.7876 4.18896 28.0171 4.4571 27.9657 4.83952C27.9103 5.21314 27.6057 5.47248 27.2813 5.47248Z" fill="#C8C8C8"/><path d="M31.5733 8.69887H28.9742C28.903 9.57359 29.2709 9.95601 29.892 9.95601C30.4102 9.95601 30.8691 9.74063 31.3636 9.39777L31.3597 10.2725C30.877 10.6066 30.3192 10.8219 29.6625 10.8219C28.5311 10.8219 27.7834 10.1055 28.0089 8.48348C28.2107 7.01975 29.1245 6.13623 30.1808 6.13623C31.3953 6.13623 31.8028 7.15161 31.6247 8.43074C31.6049 8.51865 31.5812 8.63293 31.5733 8.69887ZM30.0423 6.90986C29.6388 6.90986 29.263 7.2659 29.0849 7.99997H30.6951C30.7267 7.30107 30.5289 6.90986 30.0423 6.90986Z" fill="#C8C8C8"/><path d="M34.5527 10.7297L34.5566 10.1055C34.2204 10.4879 33.7773 10.822 33.2155 10.822C32.369 10.822 31.7874 10.1231 31.9971 8.6022C32.2305 6.92308 33.1641 6.18022 34.1017 6.18022C34.4894 6.18022 34.7861 6.25495 35.0195 6.34725L35.3202 4.17582L36.3527 4L35.4191 10.7297H34.5527ZM34.8929 7.27033C34.6595 7.13846 34.4736 7.07253 34.1333 7.07253C33.6032 7.07253 33.1523 7.54725 33.0177 8.53626C32.8951 9.41099 33.176 9.82418 33.6191 9.82418C33.987 9.82418 34.3074 9.58242 34.6279 9.20879L34.8929 7.27033Z" fill="#C8C8C8"/><path d="M38.5008 10.7737C38.0261 10.7737 37.6344 10.6902 37.2744 10.5495L37.9351 5.77152L38.7144 5.63525L38.4296 7.70558C38.659 7.48141 38.9755 7.25284 39.3632 7.25284C40.012 7.25284 40.4472 7.7891 40.285 8.93196C40.1149 10.1847 39.4186 10.7737 38.5008 10.7737ZM39.0665 7.99569C38.8133 7.99569 38.5562 8.1847 38.3307 8.43965L38.1171 9.9869C38.2674 10.0484 38.3702 10.0792 38.5878 10.0792C39.0705 10.0792 39.4067 9.75394 39.5175 8.97591C39.6045 8.32097 39.4067 7.99569 39.0665 7.99569Z" fill="#C8C8C8"/><path d="M42.0851 10.9142C41.6974 11.7538 41.3097 12.0175 40.7203 12.0175C40.5858 12.0175 40.5146 12.0043 40.4473 11.9824L40.4434 11.2835C40.5423 11.3098 40.6451 11.3318 40.7915 11.3318C41.013 11.3318 41.2069 11.2175 41.3374 10.9714L41.4403 10.7472L40.7875 7.38455L41.5985 7.27026L41.9743 9.70103L42.9911 7.32301H43.7467L42.0851 10.9142Z" fill="#C8C8C8"/></svg>