<svg width="80" height="80" viewBox="0 0 80 80" fill="none" xmlns="http://www.w3.org/2000/svg"><path fill-rule="evenodd" clip-rule="evenodd" d="M27.8823 12.6916C25.9228 14.6143 21.616 13.3787 18.8109 13.3787C13.1035 13.3787 7.20024 13.7596 2.88292 18.1409C1.80024 19.2395 1.07335 21.1374 0.749643 22.6145C0.32155 24.5682 -0.315315 26.6619 0.180774 28.675C1.83951 35.4079 10.8275 37.438 13.6911 43.2497C14.8619 45.6252 9.27702 47.5362 8.14502 48.3005C1.10113 53.054 0.373272 59.1912 0.891867 62.8752C1.80408 69.3536 6.69984 74.7873 13.1222 75.7183C17.1752 76.3057 21.3426 74.3811 25.0681 73.1207C28.1816 72.0678 32.7737 68.2997 36.3033 70.0902C39.4719 71.698 42.6366 75.6512 45.1204 78.1715C47.3796 80.4635 52.6987 80.0748 55.5019 79.7589C56.9322 79.5976 58.8065 79.018 60.0529 78.1715C70.8208 70.8579 60.0438 61.7912 60.1951 60.2777C60.4432 57.7953 65.6176 58.9245 69.2966 57.6801C76.353 55.2934 81.6304 47.2238 79.5364 39.7863C78.1405 34.8297 73.0724 32.3089 68.7278 30.8396C66.9436 30.2361 61.421 30.964 60.6218 28.5307C60.1554 27.1109 61.2797 17.0792 60.9709 13.8792C59.8039 1.79266 47.3586 -1.63967 39.435 0.678989C33.3632 2.4554 30.4781 10.1441 27.8823 12.6916Z" fill="#F5DF93"/><mask id="path-2-outside-1_147_354" maskUnits="userSpaceOnUse" x="8.75253" y="6.24122" width="61.2666" height="63.0596" fill="black"><rect fill="white" x="8.75253" y="6.24122" width="61.2666" height="63.0596"/><path d="M25.8826 31.8099L20.047 36.2431C19.2296 36.044 18.3483 35.6695 17.4033 35.1196C16.4582 34.5697 15.7303 33.5931 15.2195 32.1898C14.2619 29.5586 15.1921 27.1343 18.0103 24.9167L24.4677 19.7356L26.9015 18.8498C28.7871 18.1635 30.4776 18.169 31.973 18.8663C33.4683 19.5635 34.5591 20.855 35.2454 22.7407L47.7189 57.0113C47.2685 57.2745 46.5848 57.6475 45.6679 58.1302C44.8109 58.6408 43.9 59.0717 42.9352 59.4228C41.9705 59.7739 41.0695 60.0274 40.2323 60.1831C39.4389 60.3229 38.7073 60.2912 38.0374 60.0881C37.3675 59.8849 36.7594 59.5103 36.213 58.9643C35.6945 58.3584 35.2358 57.5073 34.8367 56.411L25.8826 31.8099ZM51.6959 49.6043C51.0256 47.7626 51.037 46.0202 51.7303 44.3774C52.4235 42.7345 53.7568 41.554 55.7302 40.8357C57.7035 40.1175 59.4837 40.1648 61.0708 40.9777C62.6579 41.7906 63.7866 43.1179 64.4569 44.9597C65.1273 46.8015 65.1158 48.5438 64.4226 50.1867C63.7293 51.8295 62.396 53.0101 60.4227 53.7283C58.4493 54.4466 56.6691 54.3992 55.0821 53.5864C53.495 52.7735 52.3663 51.4461 51.6959 49.6043Z"/></mask><path d="M25.8826 31.8099L20.047 36.2431C19.2296 36.044 18.3483 35.6695 17.4033 35.1196C16.4582 34.5697 15.7303 33.5931 15.2195 32.1898C14.2619 29.5586 15.1921 27.1343 18.0103 24.9167L24.4677 19.7356L26.9015 18.8498C28.7871 18.1635 30.4776 18.169 31.973 18.8663C33.4683 19.5635 34.5591 20.855 35.2454 22.7407L47.7189 57.0113C47.2685 57.2745 46.5848 57.6475 45.6679 58.1302C44.8109 58.6408 43.9 59.0717 42.9352 59.4228C41.9705 59.7739 41.0695 60.0274 40.2323 60.1831C39.4389 60.3229 38.7073 60.2912 38.0374 60.0881C37.3675 59.8849 36.7594 59.5103 36.213 58.9643C35.6945 58.3584 35.2358 57.5073 34.8367 56.411L25.8826 31.8099ZM51.6959 49.6043C51.0256 47.7626 51.037 46.0202 51.7303 44.3774C52.4235 42.7345 53.7568 41.554 55.7302 40.8357C57.7035 40.1175 59.4837 40.1648 61.0708 40.9777C62.6579 41.7906 63.7866 43.1179 64.4569 44.9597C65.1273 46.8015 65.1158 48.5438 64.4226 50.1867C63.7293 51.8295 62.396 53.0101 60.4227 53.7283C58.4493 54.4466 56.6691 54.3992 55.0821 53.5864C53.495 52.7735 52.3663 51.4461 51.6959 49.6043Z" fill="white"/><path d="M25.8826 31.8099L27.762 31.1258L26.8338 28.5756L24.6728 30.2173L25.8826 31.8099ZM20.047 36.2431L19.5736 38.1863L20.4987 38.4117L21.2568 37.8357L20.047 36.2431ZM17.4033 35.1196L16.3974 36.8482L16.3974 36.8482L17.4033 35.1196ZM18.0103 24.9167L19.2471 26.4884L19.2545 26.4825L19.2619 26.4766L18.0103 24.9167ZM24.4677 19.7356L23.7836 17.8563L23.4735 17.9691L23.2161 18.1757L24.4677 19.7356ZM31.973 18.8663L32.8182 17.0536L32.8182 17.0536L31.973 18.8663ZM47.7189 57.0113L48.7281 58.738L50.1692 57.8957L49.5983 56.3272L47.7189 57.0113ZM45.6679 58.1302L44.7362 56.3605L44.6896 56.385L44.6443 56.412L45.6679 58.1302ZM40.2323 60.1831L40.5793 62.1528L40.5887 62.1511L40.598 62.1494L40.2323 60.1831ZM38.0374 60.0881L37.457 62.002L38.0374 60.0881ZM36.213 58.9643L34.6935 60.2647L34.7441 60.3239L34.7992 60.3789L36.213 58.9643ZM24.6728 30.2173L18.8371 34.6506L21.2568 37.8357L27.0925 33.4024L24.6728 30.2173ZM20.5203 34.3C19.9361 34.1576 19.2348 33.8714 18.4091 33.3909L16.3974 36.8482C17.4619 37.4676 18.5231 37.9304 19.5736 38.1863L20.5203 34.3ZM18.4091 33.3909C17.9949 33.1499 17.508 32.6298 17.0989 31.5057L13.3401 32.8738C13.9525 34.5563 14.9215 35.9894 16.3974 36.8482L18.4091 33.3909ZM17.0989 31.5057C16.771 30.6048 16.7879 29.84 17.0662 29.1146C17.362 28.3438 18.018 27.4555 19.2471 26.4884L16.7735 23.3449C15.1844 24.5954 13.9662 26.0281 13.3317 27.6817C12.6798 29.3807 12.7104 31.1436 13.3401 32.8738L17.0989 31.5057ZM19.2619 26.4766L25.7193 21.2956L23.2161 18.1757L16.7587 23.3567L19.2619 26.4766ZM25.1517 21.615L27.5855 20.7292L26.2174 16.9704L23.7836 17.8563L25.1517 21.615ZM27.5855 20.7292C29.0876 20.1825 30.2136 20.2526 31.1277 20.6789L32.8182 17.0536C30.7416 16.0853 28.4867 16.1445 26.2174 16.9704L27.5855 20.7292ZM31.1277 20.6789C32.0418 21.1051 32.8193 21.9226 33.3661 23.4247L37.1248 22.0566C36.2989 19.7874 34.8947 18.022 32.8182 17.0536L31.1277 20.6789ZM33.3661 23.4247L45.8395 57.6953L49.5983 56.3272L37.1248 22.0566L33.3661 23.4247ZM46.7097 55.2845C46.2988 55.5247 45.6471 55.881 44.7362 56.3605L46.5996 59.8999C47.5225 59.4141 48.2381 59.0244 48.7281 58.738L46.7097 55.2845ZM44.6443 56.412C43.8982 56.8565 43.1014 57.234 42.2512 57.5434L43.6193 61.3022C44.6986 60.9094 45.7235 60.4251 46.6915 59.8484L44.6443 56.412ZM42.2512 57.5434C41.3696 57.8643 40.5761 58.0849 39.8665 58.2169L40.598 62.1494C41.5629 61.9699 42.5713 61.6836 43.6193 61.3022L42.2512 57.5434ZM39.8852 58.2135C39.3543 58.307 38.9448 58.2733 38.6178 58.1742L37.457 62.002C38.4697 62.3091 39.5235 62.3388 40.5793 62.1528L39.8852 58.2135ZM38.6178 58.1742C38.2941 58.076 37.9652 57.8878 37.6268 57.5497L34.7992 60.3789C35.5536 61.1328 36.4409 61.6939 37.457 62.002L38.6178 58.1742ZM37.7325 57.6639C37.4244 57.3038 37.0677 56.6928 36.7161 55.727L32.9573 57.0951C33.4038 58.3218 33.9646 59.413 34.6935 60.2647L37.7325 57.6639ZM36.7161 55.727L27.762 31.1258L24.0033 32.4939L32.9573 57.0951L36.7161 55.727ZM51.7303 44.3774L49.8876 43.5998L51.7303 44.3774ZM61.0708 40.9777L61.9825 39.1976L61.0708 40.9777ZM64.4226 50.1867L66.2653 50.9643L64.4226 50.1867ZM55.0821 53.5864L54.1703 55.3665L55.0821 53.5864ZM53.5753 48.9203C53.059 47.5018 53.0961 46.2849 53.5729 45.1549L49.8876 43.5998C48.9779 45.7556 48.9921 48.0233 49.8165 50.2884L53.5753 48.9203ZM53.5729 45.1549C54.0114 44.1159 54.8623 43.28 56.4142 42.7151L55.0461 38.9564C52.6514 39.828 50.8356 41.3531 49.8876 43.5998L53.5729 45.1549ZM56.4142 42.7151C57.9661 42.1503 59.1553 42.2437 60.1591 42.7578L61.9825 39.1976C59.8122 38.086 57.4409 38.0847 55.0461 38.9564L56.4142 42.7151ZM60.1591 42.7578C61.2506 43.3169 62.0612 44.2252 62.5776 45.6438L66.3363 44.2757C65.5119 42.0106 64.0651 40.2643 61.9825 39.1976L60.1591 42.7578ZM62.5776 45.6438C63.0939 47.0623 63.0567 48.2792 62.5799 49.4091L66.2653 50.9643C67.1749 48.8085 67.1607 46.5407 66.3363 44.2757L62.5776 45.6438ZM62.5799 49.4091C62.1415 50.4482 61.2906 51.2841 59.7386 51.8489L61.1067 55.6077C63.5015 54.7361 65.3172 53.2109 66.2653 50.9643L62.5799 49.4091ZM59.7386 51.8489C58.1867 52.4138 56.9976 52.3204 55.9938 51.8063L54.1703 55.3665C56.3407 56.4781 58.7119 56.4793 61.1067 55.6077L59.7386 51.8489ZM55.9938 51.8063C54.9022 51.2472 54.0916 50.3389 53.5753 48.9203L49.8165 50.2884C50.6409 52.5534 52.0877 54.2998 54.1703 55.3665L55.9938 51.8063Z" fill="#191919" mask="url(#path-2-outside-1_147_354)"/></svg>