<svg width="81" height="85" viewBox="0 0 81 85" fill="none" xmlns="http://www.w3.org/2000/svg"><path fill-rule="evenodd" clip-rule="evenodd" d="M21.9965 84.2287C15.1212 83.2141 7.2332 79.4874 5.43575 73.4029C2.82636 64.57 -2.9829 51.0372 4.62341 43.016C6.17768 41.377 7.95068 43.5027 8.49763 44.9467C9.35056 47.1979 8.86028 57.8137 12.8418 56.8999C14.7179 56.4693 12.3311 49.0018 12.1084 47.5644C11.2261 41.8654 10.1691 26.9489 16.6652 23.6469C17.3787 23.2844 18.4857 23.7812 19.1472 24.017C23.7739 25.6678 21.1665 30.243 22.0544 34.2115C22.1686 34.7218 22.6926 37.9292 23.7701 37.6819C25.4278 37.3014 26.0365 31.3306 26.3038 29.8943C27.3817 24.0986 23.5166 3.38413 34.3963 3.5985C42.0673 3.74958 39.9007 13.9899 39.662 19.2045C39.6292 19.9213 38.3698 25.4779 40.3236 25.4233C42.2786 25.3684 44.421 20.558 44.9664 19.1357C47.4964 12.5384 49.9161 3.16986 58.0807 1.29579C60.5528 0.728417 64.1333 0.196213 66.0892 2.59088C71.4242 9.1226 62.9803 19.0974 59.6869 24.3212C58.931 25.5203 55.0903 29.9355 56.1048 31.6184C56.9249 32.9789 61.9567 30.2048 62.7623 29.6728C64.9894 28.2015 76.2472 23.0116 78.6008 26.9162C80.5997 30.2325 80.3693 32.8615 77.9686 35.1642C72.5949 40.3188 47.9842 48.8514 47.8977 49.7036C47.6818 51.8335 67.8607 46.7456 70.5596 50.0632C72.8578 52.8883 69.1316 57.0415 66.0568 57.7891C60.8837 59.0466 35.9023 60.637 34.598 64.2633C33.2926 67.8929 48.9334 64.6441 54.9981 66.1184C56.3667 66.4511 58.5252 71.1873 50.2592 75.1273C41.5032 79.3008 27.4036 85.0267 21.9965 84.2287Z" fill="#F5DF93"/><mask id="path-2-outside-1_101_4291" maskUnits="userSpaceOnUse" x="11.6319" y="6.32102" width="68.7841" height="65.7957" fill="black"><rect fill="white" x="11.6319" y="6.32102" width="68.7841" height="65.7957"/><path d="M28.302 21.6081C30.8015 20.6983 33.1358 20.2212 35.3047 20.1767C37.4577 20.0884 39.4134 20.3449 41.1718 20.9465C42.9303 21.548 44.4316 22.4665 45.6759 23.7021C46.9203 24.9378 47.8536 26.4107 48.4761 28.1209C50.152 32.7254 49.1389 38.0603 45.4368 44.1256L39.3336 54.1687L55.1205 48.4228C55.5592 48.8094 56.0238 49.3355 56.5144 50.0012C57.0488 50.6509 57.4757 51.4143 57.7949 52.2914C58.3695 53.87 58.4337 55.1379 57.9874 56.0949C57.5252 57.0081 56.724 57.6721 55.5838 58.0871L32.7587 66.3948C31.5545 66.0881 30.4838 65.5343 29.5467 64.7332C28.6374 63.8722 27.9273 62.7401 27.4166 61.3369C26.8739 59.8459 26.726 58.4844 26.9728 57.2523C27.2037 55.9764 27.5802 54.8958 28.1022 54.0105L34.3545 42.9448C35.1436 41.565 35.7751 40.3668 36.2493 39.3499C36.7075 38.2892 37.0441 37.3721 37.2592 36.5986C37.5181 35.8091 37.6395 35.1193 37.6234 34.5292C37.6511 33.9232 37.5772 33.379 37.4016 32.8966C36.9547 31.6688 36.0554 30.9035 34.7038 30.6009C33.3959 30.2823 31.9527 30.4103 30.374 30.9849C28.6199 31.6234 27.145 32.483 25.9492 33.5638C24.7813 34.5849 23.8486 35.5699 23.1512 36.519C22.2141 36.2641 21.3608 35.8298 20.5911 35.216C19.8215 34.6023 19.2451 33.7691 18.862 32.7167C18.0321 30.4364 18.4919 28.357 20.2417 26.4786C21.9755 24.5564 24.6622 22.9329 28.302 21.6081ZM61.5606 49.8779C60.8902 48.0361 60.9017 46.2937 61.5949 44.6509C62.2882 43.008 63.6215 41.8275 65.5948 41.1093C67.5682 40.391 69.3484 40.4383 70.9355 41.2512C72.5225 42.0641 73.6513 43.3914 74.3216 45.2332C74.992 47.075 74.9805 48.8174 74.2873 50.4602C73.594 52.1031 72.2607 53.2836 70.2874 54.0018C68.314 54.7201 66.5338 54.6728 64.9467 53.8599C63.3597 53.047 62.2309 51.7197 61.5606 49.8779Z"/></mask><path d="M28.302 21.6081C30.8015 20.6983 33.1358 20.2212 35.3047 20.1767C37.4577 20.0884 39.4134 20.3449 41.1718 20.9465C42.9303 21.548 44.4316 22.4665 45.6759 23.7021C46.9203 24.9378 47.8536 26.4107 48.4761 28.1209C50.152 32.7254 49.1389 38.0603 45.4368 44.1256L39.3336 54.1687L55.1205 48.4228C55.5592 48.8094 56.0238 49.3355 56.5144 50.0012C57.0488 50.6509 57.4757 51.4143 57.7949 52.2914C58.3695 53.87 58.4337 55.1379 57.9874 56.0949C57.5252 57.0081 56.724 57.6721 55.5838 58.0871L32.7587 66.3948C31.5545 66.0881 30.4838 65.5343 29.5467 64.7332C28.6374 63.8722 27.9273 62.7401 27.4166 61.3369C26.8739 59.8459 26.726 58.4844 26.9728 57.2523C27.2037 55.9764 27.5802 54.8958 28.1022 54.0105L34.3545 42.9448C35.1436 41.565 35.7751 40.3668 36.2493 39.3499C36.7075 38.2892 37.0441 37.3721 37.2592 36.5986C37.5181 35.8091 37.6395 35.1193 37.6234 34.5292C37.6511 33.9232 37.5772 33.379 37.4016 32.8966C36.9547 31.6688 36.0554 30.9035 34.7038 30.6009C33.3959 30.2823 31.9527 30.4103 30.374 30.9849C28.6199 31.6234 27.145 32.483 25.9492 33.5638C24.7813 34.5849 23.8486 35.5699 23.1512 36.519C22.2141 36.2641 21.3608 35.8298 20.5911 35.216C19.8215 34.6023 19.2451 33.7691 18.862 32.7167C18.0321 30.4364 18.4919 28.357 20.2417 26.4786C21.9755 24.5564 24.6622 22.9329 28.302 21.6081ZM61.5606 49.8779C60.8902 48.0361 60.9017 46.2937 61.5949 44.6509C62.2882 43.008 63.6215 41.8275 65.5948 41.1093C67.5682 40.391 69.3484 40.4383 70.9355 41.2512C72.5225 42.0641 73.6513 43.3914 74.3216 45.2332C74.992 47.075 74.9805 48.8174 74.2873 50.4602C73.594 52.1031 72.2607 53.2836 70.2874 54.0018C68.314 54.7201 66.5338 54.6728 64.9467 53.8599C63.3597 53.047 62.2309 51.7197 61.5606 49.8779Z" fill="white"/><path d="M35.3047 20.1767L35.3457 22.1763L35.3662 22.1759L35.3867 22.175L35.3047 20.1767ZM41.1718 20.9465L40.5245 22.8388L40.5245 22.8388L41.1718 20.9465ZM45.6759 23.7021L47.0852 22.283L47.0852 22.283L45.6759 23.7021ZM45.4368 44.1256L43.7296 43.0836L43.7276 43.087L45.4368 44.1256ZM39.3336 54.1687L37.6245 53.1301L34.6679 57.9952L40.0177 56.0481L39.3336 54.1687ZM55.1205 48.4228L56.4428 46.9223L55.5521 46.1373L54.4364 46.5434L55.1205 48.4228ZM56.5144 50.0012L54.9044 51.1878L54.936 51.2306L54.9698 51.2717L56.5144 50.0012ZM57.9874 56.0949L59.7718 56.9981L59.7864 56.9694L59.8 56.9401L57.9874 56.0949ZM32.7587 66.3948L32.2651 68.3329L32.863 68.4852L33.4427 68.2742L32.7587 66.3948ZM29.5467 64.7332L28.1716 66.1855L28.2085 66.2204L28.2471 66.2534L29.5467 64.7332ZM26.9728 57.2523L28.9339 57.6452L28.9375 57.6268L28.9409 57.6084L26.9728 57.2523ZM28.1022 54.0105L29.825 55.0264L29.8344 55.0105L29.8435 54.9944L28.1022 54.0105ZM34.3545 42.9448L32.6184 41.9519L32.6133 41.9609L34.3545 42.9448ZM36.2493 39.3499L38.0619 40.1952L38.074 40.1693L38.0853 40.143L36.2493 39.3499ZM37.2592 36.5986L35.3588 35.9753L35.3445 36.0188L35.3323 36.0629L37.2592 36.5986ZM37.6234 34.5292L35.6255 34.4378L35.6221 34.5108L35.6241 34.5839L37.6234 34.5292ZM34.7038 30.6009L34.2304 32.5441L34.2486 32.5485L34.2668 32.5526L34.7038 30.6009ZM25.9492 33.5638L27.2655 35.0696L27.278 35.0587L27.2903 35.0476L25.9492 33.5638ZM23.1512 36.519L22.6262 38.4489L23.9503 38.8091L24.7628 37.7033L23.1512 36.519ZM20.2417 26.4786L21.7051 27.8418L21.7161 27.8301L21.7268 27.8182L20.2417 26.4786ZM28.986 23.4875C31.3242 22.6365 33.4395 22.2154 35.3457 22.1763L35.2637 18.1771C32.8321 18.227 30.2789 18.7602 27.6179 19.7287L28.986 23.4875ZM35.3867 22.175C37.331 22.0952 39.0347 22.3292 40.5245 22.8388L41.8191 19.0541C39.792 18.3607 37.5843 18.0815 35.2227 18.1784L35.3867 22.175ZM40.5245 22.8388C42.014 23.3483 43.2501 24.1118 44.2667 25.1213L47.0852 22.283C45.6132 20.8213 43.8465 19.7476 41.8191 19.0541L40.5245 22.8388ZM44.2667 25.1213C45.2941 26.1415 46.071 27.3606 46.5967 28.805L50.3555 27.4369C49.6363 25.4607 48.5464 23.734 47.0852 22.283L44.2667 25.1213ZM46.5967 28.805C47.9836 32.6154 47.2631 37.2946 43.7296 43.0837L47.1439 45.1676C51.0147 38.826 52.3204 32.8355 50.3555 27.4369L46.5967 28.805ZM43.7276 43.087L37.6245 53.1301L41.0428 55.2074L47.1459 45.1643L43.7276 43.087ZM40.0177 56.0481L55.8045 50.3022L54.4364 46.5434L38.6496 52.2893L40.0177 56.0481ZM53.7981 49.9232C54.0962 50.186 54.4665 50.5936 54.9044 51.1878L58.1244 48.8147C57.5811 48.0775 57.0221 47.4328 56.4428 46.9223L53.7981 49.9232ZM54.9698 51.2717C55.3453 51.7283 55.6654 52.2883 55.9155 52.9754L59.6743 51.6073C59.2859 50.5404 58.7523 49.5736 58.059 48.7307L54.9698 51.2717ZM55.9155 52.9754C56.4121 54.3398 56.2952 54.9915 56.1748 55.2497L59.8 56.9401C60.5721 55.2843 60.3269 53.4003 59.6743 51.6073L55.9155 52.9754ZM56.203 55.1917C56.0118 55.5693 55.6567 55.9322 54.8998 56.2077L56.2679 59.9665C57.7913 59.412 59.0385 58.4468 59.7718 56.9981L56.203 55.1917ZM54.8998 56.2077L32.0746 64.5154L33.4427 68.2742L56.2679 59.9665L54.8998 56.2077ZM33.2522 64.4566C32.3428 64.2251 31.5484 63.8132 30.8462 63.2129L28.2471 66.2534C29.4193 67.2554 30.7662 67.9512 32.2651 68.3329L33.2522 64.4566ZM30.9217 63.2808C30.2773 62.6707 29.7208 61.82 29.296 60.6528L25.5372 62.0209C26.1339 63.6602 26.9974 65.0737 28.1716 66.1855L30.9217 63.2808ZM29.296 60.6528C28.8462 59.4169 28.7758 58.4343 28.9339 57.6452L25.0118 56.8594C24.6762 58.5344 24.9017 60.2748 25.5372 62.0209L29.296 60.6528ZM28.9409 57.6084C29.1402 56.5069 29.4499 55.6626 29.825 55.0264L26.3794 52.9946C25.7105 54.1291 25.2672 55.4459 25.0048 56.8962L28.9409 57.6084ZM29.8435 54.9944L36.0958 43.9286L32.6133 41.9609L26.3609 53.0267L29.8435 54.9944ZM36.0907 43.9376C36.8969 42.5278 37.5569 41.2781 38.0619 40.1952L34.4367 38.5047C33.9934 39.4554 33.3902 40.6023 32.6184 41.9519L36.0907 43.9376ZM38.0853 40.143C38.5654 39.0317 38.9386 38.0245 39.1861 37.1343L35.3323 36.0629C35.1496 36.7198 34.8496 37.5468 34.4133 38.5568L38.0853 40.143ZM39.1596 37.2218C39.4633 36.2958 39.647 35.3675 39.6227 34.4746L35.6241 34.5839C35.632 34.8711 35.5729 35.3224 35.3588 35.9753L39.1596 37.2218ZM39.6213 34.6207C39.659 33.798 39.5618 32.9839 39.281 32.2126L35.5223 33.5807C35.5927 33.7741 35.6433 34.0484 35.6255 34.4378L39.6213 34.6207ZM39.281 32.2126C38.5845 30.299 37.1099 29.0901 35.1407 28.6492L34.2668 32.5526C35.001 32.717 35.3249 33.0385 35.5223 33.5807L39.281 32.2126ZM35.1771 28.6577C33.4002 28.2249 31.5474 28.4295 29.6899 29.1055L31.058 32.8643C32.3579 32.3912 33.3916 32.3398 34.2304 32.5441L35.1771 28.6577ZM29.6899 29.1055C27.7312 29.8185 26.0231 30.8011 24.6081 32.0801L27.2903 35.0476C28.2668 34.1649 29.5085 33.4283 31.058 32.8643L29.6899 29.1055ZM24.6328 32.0581C23.3875 33.1468 22.3456 34.2378 21.5395 35.3347L24.7628 37.7033C25.3516 36.9021 26.1751 36.0229 27.2655 35.0696L24.6328 32.0581ZM23.6761 34.5892C23.0059 34.4068 22.3976 34.0985 21.8381 33.6523L19.3442 36.7797C20.324 37.5611 21.4224 38.1214 22.6262 38.4489L23.6761 34.5892ZM21.8381 33.6523C21.3941 33.2983 21.0163 32.788 20.7414 32.0327L16.9826 33.4007C17.4738 34.7503 18.2488 35.9062 19.3442 36.7797L21.8381 33.6523ZM20.7414 32.0327C20.4379 31.1988 20.4005 30.4973 20.5373 29.8788C20.6757 29.253 21.0235 28.5736 21.7051 27.8418L18.7782 25.1154C17.7101 26.2621 16.9531 27.5615 16.6316 29.015C16.3086 30.4759 16.4562 31.9543 16.9826 33.4007L20.7414 32.0327ZM21.7268 27.8182C23.1598 26.2294 25.5131 24.7515 28.986 23.4875L27.6179 19.7287C23.8113 21.1142 20.7911 22.8833 18.7565 25.1391L21.7268 27.8182ZM61.5949 44.6509L59.7523 43.8733L61.5949 44.6509ZM70.9355 41.2512L71.8472 39.4711L70.9355 41.2512ZM74.2873 50.4602L76.1299 51.2378L74.2873 50.4602ZM64.9467 53.8599L64.035 55.64L64.9467 53.8599ZM63.44 49.1938C62.9237 47.7753 62.9608 46.5584 63.4376 45.4285L59.7523 43.8733C58.8426 46.0291 58.8568 48.2969 59.6812 50.5619L63.44 49.1938ZM63.4376 45.4285C63.876 44.3894 64.7269 43.5535 66.2789 42.9886L64.9108 39.2299C62.516 40.1015 60.7003 41.6267 59.7523 43.8733L63.4376 45.4285ZM66.2789 42.9886C67.8308 42.4238 69.02 42.5172 70.0237 43.0313L71.8472 39.4711C69.6768 38.3595 67.3056 38.3582 64.9108 39.2299L66.2789 42.9886ZM70.0237 43.0313C71.1153 43.5904 71.9259 44.4987 72.4422 45.9173L76.201 44.5492C75.3766 42.2841 73.9298 40.5378 71.8472 39.4711L70.0237 43.0313ZM72.4422 45.9173C72.9585 47.3358 72.9214 48.5527 72.4446 49.6826L76.1299 51.2378C77.0396 49.082 77.0254 46.8142 76.201 44.5492L72.4422 45.9173ZM72.4446 49.6826C72.0062 50.7217 71.1553 51.5576 69.6033 52.1225L70.9714 55.8812C73.3662 55.0096 75.1819 53.4844 76.1299 51.2378L72.4446 49.6826ZM69.6033 52.1225C68.0514 52.6873 66.8622 52.5939 65.8585 52.0798L64.035 55.64C66.2054 56.7516 68.5766 56.7529 70.9714 55.8812L69.6033 52.1225ZM65.8585 52.0798C64.7669 51.5207 63.9563 50.6124 63.44 49.1938L59.6812 50.5619C60.5056 52.827 61.9524 54.5733 64.035 55.64L65.8585 52.0798Z" fill="#191919" mask="url(#path-2-outside-1_101_4291)"/></svg>