<svg width="80" height="81" viewBox="0 0 80 81" fill="none" xmlns="http://www.w3.org/2000/svg"><path fill-rule="evenodd" clip-rule="evenodd" d="M28.6556 31.2134C27.34 28.5509 26.7063 27.6858 25.7742 25.2878C23.8647 20.3758 21.4085 15.6776 19.5311 10.7942C19.0102 9.43914 17.561 5.37981 16.6496 4.46819C16.6309 4.44926 16.6309 4.407 16.6496 4.38808C17.0364 4.00126 19.0111 3.81755 19.6112 3.66742C21.4196 3.21516 22.8572 2.28382 24.4134 1.50545C24.6082 1.408 25.3276 2.64762 25.374 2.78655C26 4.66546 26.8728 6.42626 27.7752 8.23169C30.6469 13.978 33.464 19.7748 36.3394 25.5281C36.657 26.1636 38.8052 31.2134 39.6209 31.2134C39.6869 31.2134 39.4713 29.8659 39.4609 29.7721C39.3677 28.9338 39.3808 28.0542 39.3808 27.2096C39.3808 24.6769 39.3124 22.1279 39.4609 19.6024C39.7046 15.4573 39.941 11.3515 39.941 7.19076C39.941 6.44928 39.5553 2.2772 39.8611 1.66551C39.9255 1.53652 40.5108 1.89401 40.5814 1.90583C41.7768 2.10516 43.0597 2.18574 44.2631 2.30622C45.0708 2.38696 48.067 1.5474 48.6653 2.146C48.9667 2.44751 48.7454 8.12304 48.7454 8.87239C48.7454 14.6331 48.7463 20.4215 49.0655 26.1686C49.1256 27.2509 48.1129 32.2258 48.9117 33.025C48.9304 33.0437 50.4151 30.5914 50.6663 30.1725C51.6652 28.5069 53.163 27.0047 54.4281 25.5281C57.8185 21.5708 61.3923 17.5196 65.0733 13.837C66.2757 12.634 67.3603 11.2264 68.5951 10.0735C69.3261 9.39073 70.7561 7.99152 70.7561 7.99152C71.8728 10.4847 76.1431 12.1068 78.1196 13.837C78.6603 14.3103 79.3486 14.831 79.9605 15.1982C80.3252 15.4171 78.061 17.7009 77.3993 18.5615C75.59 20.9146 72.6483 22.9471 70.2758 24.7273C65.103 28.6088 59.8575 32.2502 54.8283 36.3382C54.4519 36.6442 50.106 40.2585 50.106 40.262C50.106 40.3954 50.3728 40.262 50.5062 40.262C51.0648 40.262 51.6284 40.3662 52.187 40.422C53.4932 40.5527 54.8157 40.8101 56.109 40.9826C60.8439 41.6142 65.4464 43.0263 70.1957 43.7052C70.7398 43.7829 74.9592 43.9064 75.1583 44.1056C75.2375 44.1849 75.0274 44.8185 74.9981 44.9063C74.3776 46.769 74.2942 48.7969 73.7174 50.6717C73.4567 51.5195 73.2506 52.3669 73.0772 53.2341C73.0488 53.3762 72.8578 54.6458 72.7571 54.5955C70.2826 53.3577 67.8577 52.9723 65.0733 52.3534C61.4881 51.5562 57.9648 50.2133 54.4281 49.2304C52.2838 48.6345 50.0743 47.8585 47.945 47.1484C47.5054 47.0019 44.8235 46.0048 44.8235 46.1874C44.8235 46.9907 45.7567 48.4786 45.8639 49.5507C46.2428 53.3412 46.7868 57.3343 47.8649 61.0014C48.5249 63.2465 49.5385 65.4987 49.946 67.8079C50.2089 69.2988 52.187 72.8527 52.187 74.8785C51.2496 75.8017 43.6725 77.9471 43.1426 77.417C43.0058 77.2801 43.1818 76.5722 43.1426 76.376C42.8141 74.7327 42.4903 73.0618 42.1021 71.4112C40.6307 65.1549 39.8626 58.8283 38.6605 52.5134C38.4543 51.4307 38.6999 45.4442 38.0235 44.7674C37.9781 44.722 36.9475 45.8277 36.8995 45.9473C36.6442 46.5861 36.4286 47.0656 36.0192 47.6289C35.0011 49.0292 33.7709 50.3901 32.6575 51.7127C28.258 56.9396 23.1417 62.1453 17.8502 66.4466C16.3234 67.6878 14.6671 69.1255 13.3681 70.6106C13.1952 70.8082 11.5772 72.9027 11.5273 72.8527C10.7838 72.1088 6.81851 65.9932 6.32468 65.0052C6.17872 64.713 4.95007 62.711 5.04401 62.5228C5.71721 61.176 7.65642 60.2607 8.80595 59.3199C13.6063 55.3906 18.9645 51.737 24.1734 48.3496C26.3249 46.9504 28.4159 45.401 30.5766 44.0255C30.804 43.8805 33.0577 43.0024 33.0577 42.7442C33.0577 42.7349 31.0803 42.1382 30.9768 42.1037C28.5529 41.2953 25.6553 41.2756 23.1329 41.1427C17.5459 40.8486 11.7656 40.3689 6.16469 40.7425C5.82407 40.7652 0.249491 41.1506 0.081625 40.9826C-0.258994 40.6418 0.572141 38.609 0.641968 38.26C1.01884 36.3745 1.98506 30.6078 2.72288 29.1314C2.82975 28.9178 5.88129 28.8144 6.96493 28.731C11.8726 28.3533 16.5142 29.3679 21.372 29.692C22.8177 29.7883 25.1164 29.8433 26.4144 30.4927C26.9439 30.7575 27.4585 30.7875 28.0152 30.9732C28.1278 31.0107 28.8955 31.2134 28.6556 31.2134Z" fill="#F5DF93"/><mask id="path-2-outside-1_101_4301" maskUnits="userSpaceOnUse" x="9.69223" y="9.8194" width="51.8696" height="59.6394" fill="black"><rect fill="white" x="9.69223" y="9.8194" width="51.8696" height="59.6394"/><path d="M26.7757 18.7996C31.8188 16.9641 36.0389 16.62 39.4362 17.7673C42.8175 18.8707 45.1466 21.1765 46.4234 24.6846C47.1896 26.7896 47.2739 28.795 46.6764 30.701C46.1068 32.5471 45.1902 34.1222 43.9267 35.4264C44.9753 35.442 45.9901 35.5693 46.9709 35.8082C47.9518 36.0472 48.8929 36.4496 49.7941 37.0155C50.6953 37.5813 51.5129 38.3267 52.2468 39.2514C52.9806 40.1762 53.6029 41.3402 54.1137 42.7435C54.8 44.6292 54.9979 46.4691 54.7074 48.2633C54.4607 50.0416 53.8054 51.7203 52.7413 53.2995C51.6772 54.8787 50.2324 56.2985 48.4067 57.5589C46.6408 58.8472 44.5739 59.9223 42.2059 60.7842C37.6452 62.4442 33.9714 63.0612 31.1843 62.6354C28.3973 62.2097 26.6446 61.0101 25.9264 59.0367C25.4955 57.8527 25.4134 56.7404 25.6802 55.6997C25.9311 54.6151 26.3853 53.6801 27.0429 52.8944C28.1434 53.1891 29.5449 53.424 31.2475 53.5989C32.9778 53.714 35.0271 53.3406 37.3951 52.4787C39.6315 51.6647 41.1324 50.6715 41.8975 49.4991C42.7065 48.3107 42.8796 47.0807 42.4167 45.809C41.9539 44.5373 41.1642 43.7321 40.0477 43.3935C38.9751 43.039 37.3864 43.2448 35.2815 44.0109L29.0983 46.2614C28.6157 45.8908 28.1372 45.3945 27.6625 44.7727C27.1879 44.1509 26.775 43.3576 26.4239 42.3928C26.0568 41.3842 25.8332 40.4972 25.7533 39.7317C25.7012 38.9064 25.7628 38.1887 25.938 37.5787L32.1212 35.3282C35.2786 34.179 36.4183 32.3985 35.5405 29.9866C35.1255 28.8464 34.286 28.1091 33.022 27.7745C31.758 27.44 30.1175 27.6398 28.1002 28.374C26.3023 29.0284 24.8034 29.8223 23.6036 30.7556C22.3878 31.6451 21.4532 32.5564 20.7996 33.4895C19.8625 33.2346 19.0172 32.8222 18.2635 32.2523C17.4938 31.6385 16.9174 30.8054 16.5344 29.753C15.7363 27.5604 16.2939 25.5448 18.2071 23.7062C20.1044 21.8238 22.9606 20.1882 26.7757 18.7996Z"/></mask><path d="M26.7757 18.7996C31.8188 16.9641 36.0389 16.62 39.4362 17.7673C42.8175 18.8707 45.1466 21.1765 46.4234 24.6846C47.1896 26.7896 47.2739 28.795 46.6764 30.701C46.1068 32.5471 45.1902 34.1222 43.9267 35.4264C44.9753 35.442 45.9901 35.5693 46.9709 35.8082C47.9518 36.0472 48.8929 36.4496 49.7941 37.0155C50.6953 37.5813 51.5129 38.3267 52.2468 39.2514C52.9806 40.1762 53.6029 41.3402 54.1137 42.7435C54.8 44.6292 54.9979 46.4691 54.7074 48.2633C54.4607 50.0416 53.8054 51.7203 52.7413 53.2995C51.6772 54.8787 50.2324 56.2985 48.4067 57.5589C46.6408 58.8472 44.5739 59.9223 42.2059 60.7842C37.6452 62.4442 33.9714 63.0612 31.1843 62.6354C28.3973 62.2097 26.6446 61.0101 25.9264 59.0367C25.4955 57.8527 25.4134 56.7404 25.6802 55.6997C25.9311 54.6151 26.3853 53.6801 27.0429 52.8944C28.1434 53.1891 29.5449 53.424 31.2475 53.5989C32.9778 53.714 35.0271 53.3406 37.3951 52.4787C39.6315 51.6647 41.1324 50.6715 41.8975 49.4991C42.7065 48.3107 42.8796 47.0807 42.4167 45.809C41.9539 44.5373 41.1642 43.7321 40.0477 43.3935C38.9751 43.039 37.3864 43.2448 35.2815 44.0109L29.0983 46.2614C28.6157 45.8908 28.1372 45.3945 27.6625 44.7727C27.1879 44.1509 26.775 43.3576 26.4239 42.3928C26.0568 41.3842 25.8332 40.4972 25.7533 39.7317C25.7012 38.9064 25.7628 38.1887 25.938 37.5787L32.1212 35.3282C35.2786 34.179 36.4183 32.3985 35.5405 29.9866C35.1255 28.8464 34.286 28.1091 33.022 27.7745C31.758 27.44 30.1175 27.6398 28.1002 28.374C26.3023 29.0284 24.8034 29.8223 23.6036 30.7556C22.3878 31.6451 21.4532 32.5564 20.7996 33.4895C19.8625 33.2346 19.0172 32.8222 18.2635 32.2523C17.4938 31.6385 16.9174 30.8054 16.5344 29.753C15.7363 27.5604 16.2939 25.5448 18.2071 23.7062C20.1044 21.8238 22.9606 20.1882 26.7757 18.7996Z" fill="white"/><path d="M39.4362 17.7673L38.7963 19.6621L38.806 19.6654L38.8157 19.6686L39.4362 17.7673ZM46.6764 30.701L44.7679 30.1027L44.7653 30.1113L46.6764 30.701ZM43.9267 35.4264L42.4903 34.0347L39.2714 37.3572L43.8969 37.4261L43.9267 35.4264ZM46.9709 35.8082L46.4976 37.7514L46.9709 35.8082ZM49.7941 37.0155L48.7305 38.7092L49.7941 37.0155ZM52.2467 39.2514L53.8134 38.0082L53.8134 38.0082L52.2467 39.2514ZM54.7074 48.2633L52.7331 47.9437L52.7295 47.9661L52.7264 47.9885L54.7074 48.2633ZM52.7413 53.2995L54.3999 54.4171L52.7413 53.2995ZM48.4067 57.5589L47.2704 55.913L47.249 55.9278L47.2279 55.9432L48.4067 57.5589ZM31.1843 62.6354L30.8823 64.6125L30.8823 64.6125L31.1843 62.6354ZM25.6802 55.6997L27.6176 56.1964L27.6234 56.1735L27.6288 56.1504L25.6802 55.6997ZM27.0429 52.8944L27.5603 50.9625L26.3281 50.6325L25.5093 51.6107L27.0429 52.8944ZM31.2475 53.5989L31.043 55.5884L31.0788 55.5921L31.1147 55.5945L31.2475 53.5989ZM41.8975 49.4991L40.2443 48.3736L40.2333 48.3897L40.2227 48.406L41.8975 49.4991ZM40.0477 43.3935L39.4201 45.2925L39.4436 45.3003L39.4673 45.3075L40.0477 43.3935ZM29.0983 46.2614L27.88 47.8475L28.7506 48.5163L29.7823 48.1408L29.0983 46.2614ZM27.6625 44.7727L29.2523 43.5592L29.2523 43.5592L27.6625 44.7727ZM25.7533 39.7317L23.7572 39.8577L23.7598 39.8987L23.7641 39.9395L25.7533 39.7317ZM25.938 37.5787L25.254 35.6993L24.297 36.0476L24.0158 37.0265L25.938 37.5787ZM23.6036 30.7556L24.7845 32.3698L24.8083 32.3523L24.8316 32.3342L23.6036 30.7556ZM20.7996 33.4895L20.2746 35.4194L21.6312 35.7884L22.4377 34.6369L20.7996 33.4895ZM18.2635 32.2523L17.0165 33.816L17.0366 33.8321L17.0572 33.8476L18.2635 32.2523ZM18.2071 23.7062L19.5929 25.1482L19.6044 25.1372L19.6158 25.1259L18.2071 23.7062ZM27.4598 20.679C32.2793 18.9249 35.9971 18.7169 38.7963 19.6621L40.0761 15.8724C36.0807 14.5231 31.3582 15.0034 26.0917 16.9203L27.4598 20.679ZM38.8157 19.6686C41.5797 20.5706 43.4653 22.4049 44.544 25.3687L48.3028 24.0006C46.8278 19.948 44.0552 17.1708 40.0566 15.8659L38.8157 19.6686ZM44.544 25.3687C45.1792 27.1137 45.2182 28.6663 44.768 30.1027L48.5848 31.2992C49.3295 28.9237 49.1999 26.4654 48.3028 24.0006L44.544 25.3687ZM44.7653 30.1113C44.2824 31.6762 43.5207 32.9712 42.4903 34.0347L45.3632 36.818C46.8598 35.2733 47.9311 33.418 48.5875 31.2906L44.7653 30.1113ZM43.8969 37.4261C44.8018 37.4396 45.6675 37.5492 46.4976 37.7514L47.4443 33.865C46.3126 33.5894 45.1488 33.4444 43.9566 33.4266L43.8969 37.4261ZM46.4976 37.7514C47.2585 37.9368 48.0015 38.2514 48.7305 38.7092L50.8576 35.3217C49.7842 34.6477 48.6451 34.1575 47.4443 33.865L46.4976 37.7514ZM48.7305 38.7092C49.4199 39.1421 50.0719 39.7282 50.6801 40.4947L53.8134 38.0082C52.9539 36.9251 51.9707 36.0206 50.8576 35.3217L48.7305 38.7092ZM50.6801 40.4947C51.2504 41.2133 51.7785 42.1753 52.2343 43.4275L55.9931 42.0595C55.4274 40.5052 54.7109 39.1392 53.8134 38.0082L50.6801 40.4947ZM52.2343 43.4275C52.8162 45.0264 52.9635 46.5208 52.7331 47.9437L56.6817 48.583C57.0323 46.4174 56.7838 44.2319 55.9931 42.0595L52.2343 43.4275ZM52.7264 47.9885C52.5241 49.4468 51.9871 50.8397 51.0827 52.1819L54.3999 54.4171C55.6237 52.6009 56.3974 50.6364 56.6884 48.5381L52.7264 47.9885ZM51.0827 52.1819C50.1792 53.5227 48.9239 54.7715 47.2704 55.913L49.543 59.2048C51.5408 57.8255 53.1752 56.2346 54.3999 54.4171L51.0827 52.1819ZM47.2279 55.9432C45.6349 57.1054 43.7397 58.0976 41.5218 58.9048L42.8899 62.6636C45.4081 61.7471 47.6468 60.589 49.5855 59.1746L47.2279 55.9432ZM41.5218 58.9048C37.0784 60.5221 33.7821 61.0091 31.4864 60.6584L30.8823 64.6125C34.1607 65.1134 38.212 64.3662 42.8899 62.6636L41.5218 58.9048ZM31.4864 60.6584C29.138 60.2996 28.1892 59.406 27.8058 58.3527L24.047 59.7208C25.1001 62.6142 27.6566 64.1197 30.8823 64.6125L31.4864 60.6584ZM27.8058 58.3527C27.4883 57.4803 27.4672 56.7828 27.6176 56.1964L23.7429 55.203C23.3596 56.6979 23.5026 58.2251 24.047 59.7208L27.8058 58.3527ZM27.6288 56.1504C27.815 55.3452 28.1379 54.7022 28.5766 54.1782L25.5093 51.6107C24.6327 52.6579 24.0472 53.885 23.7317 55.249L27.6288 56.1504ZM26.5256 54.8263C27.7659 55.1585 29.2817 55.4074 31.043 55.5884L31.4519 51.6094C29.8081 51.4405 28.521 51.2198 27.5603 50.9625L26.5256 54.8263ZM31.1147 55.5945C33.2185 55.7344 35.5587 55.2755 38.0791 54.3581L36.711 50.5993C34.4954 51.4057 32.7372 51.6936 31.3802 51.6033L31.1147 55.5945ZM38.0791 54.3581C40.4654 53.4896 42.4556 52.3034 43.5724 50.5922L40.2227 48.406C39.8092 49.0396 38.7977 49.8398 36.711 50.5993L38.0791 54.3581ZM43.5508 50.6246C44.6953 48.9434 44.9946 47.044 44.2961 45.1249L40.5373 46.493C40.7646 47.1174 40.7178 47.6781 40.2443 48.3736L43.5508 50.6246ZM44.2961 45.1249C43.6571 43.3692 42.4487 42.0317 40.6281 41.4796L39.4673 45.3075C39.8797 45.4325 40.2507 45.7053 40.5373 46.493L44.2961 45.1249ZM40.6754 41.4946C38.9212 40.9148 36.774 41.3394 34.5974 42.1316L35.9655 45.8903C37.9988 45.1503 39.0291 45.1633 39.4201 45.2925L40.6754 41.4946ZM34.5974 42.1316L28.4142 44.382L29.7823 48.1408L35.9655 45.8903L34.5974 42.1316ZM30.3166 44.6753C30.0069 44.4375 29.6488 44.0787 29.2523 43.5592L26.0727 45.9862C26.6255 46.7104 27.2246 47.3441 27.88 47.8475L30.3166 44.6753ZM29.2523 43.5592C28.9319 43.1394 28.6055 42.5392 28.3032 41.7088L24.5445 43.0769C24.9445 44.176 25.4439 45.1623 26.0727 45.9862L29.2523 43.5592ZM28.3032 41.7088C27.9719 40.7984 27.8002 40.077 27.7424 39.5239L23.7641 39.9395C23.8662 40.9174 24.1416 41.97 24.5445 43.0769L28.3032 41.7088ZM27.7493 39.6058C27.7075 38.9436 27.7642 38.4655 27.8603 38.1309L24.0158 37.0265C23.7614 37.912 23.6949 38.8692 23.7572 39.8577L27.7493 39.6058ZM26.6221 39.4581L32.8052 37.2076L31.4372 33.4488L25.254 35.6993L26.6221 39.4581ZM32.8052 37.2076C34.5701 36.5652 36.1188 35.6303 37.0285 34.2091C38.0073 32.68 38.021 30.9542 37.4199 29.3025L33.6611 30.6706C33.9378 31.4308 33.8205 31.8012 33.6596 32.0526C33.4295 32.412 32.8296 32.942 31.4372 33.4488L32.8052 37.2076ZM37.4199 29.3025C36.7612 27.493 35.3728 26.3279 33.5337 25.8411L32.5103 29.708C33.1992 29.8903 33.4897 30.1998 33.6611 30.6706L37.4199 29.3025ZM33.5337 25.8411C31.6947 25.3544 29.5934 25.7022 27.4162 26.4947L28.7843 30.2534C30.6415 29.5775 31.8214 29.5256 32.5103 29.708L33.5337 25.8411ZM27.4162 26.4947C25.4707 27.2028 23.7762 28.0875 22.3756 29.177L24.8316 32.3342C25.8307 31.5571 27.1339 30.8541 28.7843 30.2534L27.4162 26.4947ZM22.4227 29.1415C21.0835 30.1212 19.974 31.1821 19.1614 32.3421L22.4377 34.6369C22.9324 33.9307 23.6921 33.1689 24.7845 32.3698L22.4227 29.1415ZM21.3245 31.5597C20.6269 31.3699 20.0141 31.0687 19.4697 30.657L17.0572 33.8476C18.0202 34.5758 19.0982 35.0994 20.2746 35.4194L21.3245 31.5597ZM19.5104 30.6886C19.0665 30.3346 18.6887 29.8243 18.4137 29.0689L14.655 30.437C15.1462 31.7866 15.9211 32.9425 17.0165 33.816L19.5104 30.6886ZM18.4137 29.0689C18.1398 28.3162 18.1264 27.691 18.2816 27.1301C18.4421 26.5498 18.8266 25.8846 19.5929 25.1482L16.8213 22.2641C15.6744 23.3663 14.8235 24.6282 14.4264 26.0636C14.024 27.5182 14.1309 28.9971 14.655 30.437L18.4137 29.0689ZM19.6158 25.1259C21.229 23.5253 23.7886 22.0152 27.4598 20.679L26.0917 16.9203C22.1325 18.3613 18.9798 20.1222 16.7985 22.2864L19.6158 25.1259Z" fill="#191919" mask="url(#path-2-outside-1_101_4301)"/></svg>