<svg width="238" height="177" viewBox="0 0 238 177" fill="none" xmlns="http://www.w3.org/2000/svg"><path fill-rule="evenodd" clip-rule="evenodd" d="M69.0059 38.9035C72.4294 48.0652 88.4061 59.1148 94.7465 53.736C97.467 51.3572 96.9899 50.0007 90.0879 41.3503C73.6238 20.8183 66.2182 31.5506 69.0059 38.9035ZM136.042 38.8143C136.021 46.8495 145.24 45.032 148.979 36.2997C152.745 27.3546 155.787 14.9043 156.898 6.79071C158.466 -1.17868 149.693 -1.85468 145.269 5.79728C139.987 14.767 136.012 33.2359 136.042 38.8143ZM9.47179 77.1044C4.65903 81.3365 31.6733 98.0586 39.3341 95.5691C48.2612 92.6345 48.2852 90.3905 39.2421 84.3219C24.9868 74.6995 14.9714 72.2244 9.47179 77.1044ZM106.283 80.776C104.113 85.2987 101.755 91.3103 100.98 94.0214C94.7056 118.38 94.5882 118.624 86.9072 116.141C69.2007 110.577 43.6261 111.539 54.5699 128.219C61.2521 138.268 76.6624 155.512 81.1855 161.442C92.9922 177.107 96.9941 178.952 106.116 173.104C128.709 158.456 163.919 145.877 191.156 142.705C197.905 141.959 198.012 141.108 194.227 128.314C186.56 102.454 192.501 72.5223 189.703 64.5632C186.556 55.6093 171.996 68.2468 155.349 94.3199L153.634 96.9554L149.492 95.8706C140.997 93.674 138.832 98.4999 145.423 104.821C150.782 109.949 154.136 111.107 159.924 105.313C163.236 102.014 167.482 96.4574 173.321 88.2063C175.633 84.9548 177.625 82.5271 177.72 82.7985C178.165 84.0647 180.977 109.7 181.009 109.791L166.848 113.447C155.746 116.842 156.514 123.075 168.423 120.82C169.663 120.587 181.748 117.965 181.748 117.965C181.748 117.965 183.076 123.189 182.827 126.528C182.488 129.899 180.481 131.418 176.328 131.455C143.926 132.072 100.725 160.366 100.634 160.398C99.0111 161.273 68.6821 125.291 69.5033 123.58C69.6206 123.335 71.9329 123.843 74.6758 124.709C105.449 133.911 107.791 132.478 114.856 100.83L118.162 85.9497L122.704 89.3325C135.933 99.2141 146.23 89.1926 136.019 82.112C132.554 79.7731 127.012 76.4369 118.197 71.3044C114.217 68.9435 110.565 71.8529 106.283 80.776ZM223.474 38.06C220.886 41.1038 209.604 63.3603 208.695 67.1348C206.829 75.4122 216.233 73.8344 222.121 64.8548C229.015 54.4036 237.987 37.43 237.415 35.802C236.361 32.5143 227.016 33.9699 223.474 38.06ZM14.6719 160.128C29.0212 158.742 36.9045 156.886 39.3169 154.209C43.2789 149.869 40.3503 148.765 27.7562 149.94C26.5755 150.05 14.8539 150.816 7.52799 153.391C2.28224 155.235 -8.36755 162.23 14.6719 160.128Z" fill="#F5DF93"/></svg>