<svg width="424" height="435" viewBox="0 0 424 435" fill="none" xmlns="http://www.w3.org/2000/svg"><path d="M162.179 80.4074C159.969 81.3722 155.181 94.1398 149.757 113.501C131.331 179.741 127.694 176.686 132.12 181.368C136.857 186.38 138.018 183.91 151.913 141.806C166.793 96.6492 170.101 77.1641 162.179 80.4074Z" fill="#F5DF93"/><path d="M84.7372 145.242C83.0695 145.195 82.7798 146.343 82.3499 152.494C81.771 161.657 86.8952 171.173 90.5222 167.744C93.4274 164.873 88.4573 145.347 84.7372 145.242Z" fill="#F5DF93"/><path d="M53.4079 154.503C33.914 112.743 26.142 99.2369 20.3467 97.5974C15.6365 96.181 16.0629 99.2741 22.0526 109.97C27.2535 119.039 35.8812 136.357 43.9298 153.723C50.5255 167.966 52.4985 170.846 56.487 172.82C62.0627 175.416 61.3391 171.48 53.4079 154.503Z" fill="#F5DF93"/><path d="M227.316 117.482C225.173 118.385 213.317 135.96 206.823 147.716C205.267 150.561 200.703 157.622 196.755 163.352C188.996 174.432 188.78 175.261 192.333 179.02C195.699 182.581 195.568 182.705 207.607 163.208C228.59 129.264 235.045 114.298 227.316 117.482Z" fill="#F5DF93"/><path d="M84.4594 104.923C84.643 114.365 82.1163 119.75 86.729 124.63C94.1468 132.477 94.986 132.308 95.5648 114.03C96.6465 80.1676 93.0723 52.0797 87.4641 50.638C82.0428 49.3941 86.0244 69.8548 84.4594 104.923Z" fill="#F5DF93"/><path d="M324.612 330.19C333.57 331.213 341.039 330.396 343.413 328.152C346.711 325.035 343.836 320.011 337.96 318.947C299.008 311.688 251.959 311.583 252.273 318.653C252.591 325.595 258.775 327.117 291.542 328.36C305.968 328.959 320.837 329.763 324.612 330.19Z" fill="#F5DF93"/><path d="M290.547 188.075C281.954 192.327 264.265 205.052 223.302 228.163C215.149 232.748 215.018 232.872 215.034 236.852C215.072 240.063 217.595 243.922 220.208 244.573C222.374 245.148 278.947 212.526 297.333 200.141C304.404 195.205 300.379 183.152 290.547 188.075Z" fill="#F5DF93"/><path d="M325.357 385.801C300.802 371.052 251.563 348.418 246.268 349.552C242.588 350.283 245.894 358.272 251.019 360.92L270.195 370.639C299.687 385.591 337.863 402.2 339.38 400.766C342.417 397.771 338.614 393.749 325.357 385.801Z" fill="#F5DF93"/><path d="M324.765 249.506C321.793 250.193 313.404 251.754 289.758 254.876C279.064 256.244 258.644 261.061 257.061 262.557C253.896 265.549 273.32 264.17 309.676 258.774C317.541 257.584 325.076 256.704 326.483 256.872C333.081 257.379 330.321 248.25 324.765 249.506Z" fill="#F5DF93"/></svg>