<svg width="123" height="165" viewBox="0 0 123 165" fill="none" xmlns="http://www.w3.org/2000/svg"><path fill-rule="evenodd" clip-rule="evenodd" d="M61.5425 0.444908C37.8661 -1.3438 12.8661 8.87319 4.11071 38.8709C-2.36607 61.2581 -2.23604 61.4609 20.5308 61.8294C39.7402 62.1158 38.5227 62.8954 41.5868 48.9166C44.1949 37.0181 49.0003 31.0078 59.0912 28.3362C81.4706 22.5155 90.0394 52.6479 88.1791 61.135C86.1364 70.4541 78.4037 73.9042 56.1042 75.3823C37.8693 76.6176 30.8274 82.4865 26.277 100.064C24.9615 105.269 23.4675 109.302 22.7392 109.84C19.4667 112.436 27.8144 117.318 37.5656 118.584C66.8373 122.296 66.3666 122.455 67.1567 111.291C67.6355 104.333 68.5199 103.48 75.7988 102.896C93.368 101.514 104.85 94.0898 113.49 78.5427C135.964 38.4715 113.331 4.47147 61.5425 0.444908ZM87.3238 11.3282C105.443 18.1777 117.61 46.2209 110.224 64.3975C103.399 81.2144 91.5605 89.8689 71.1223 92.8013C61.2218 94.2066 57.3611 97.895 55.0528 108.028L53.8126 113.686C43.4425 112.459 42.7769 112.314 35.9015 111.853C42.4467 87.5623 41.33 84.7013 74.035 80.7078C94.5484 78.2279 102.192 63.2474 93.8433 42.058C80.4497 8.0774 24.9732 16.4975 27.3584 52.1637C27.4279 53.8359 27.3675 55.3051 27.1646 55.4351C26.8603 55.63 15.5143 55.6719 14.6822 55.4895C14.599 55.4713 16.2599 45.1092 16.5267 41.5051C18.7008 10.5008 54.5997 -0.902492 87.3238 11.3282ZM28.9132 126.628C12.4404 130.168 7.84539 148.346 21.2576 156.78C47.9987 173.629 78.0676 162.169 65.7795 139.854C62.1937 133.138 38.2575 124.578 28.9132 126.628ZM49.1199 136.29C55.5576 138.747 60.2148 145.349 59.1205 150.342C57.096 159.578 33.4607 159.193 26.9661 149.834C23.7929 145.214 26.2734 127.532 49.1199 136.29Z" fill="#F5DF93"/></svg>