<svg width="108" height="172" viewBox="0 0 108 172" fill="none" xmlns="http://www.w3.org/2000/svg"><path d="M60.8409 61.2614C53.329 53.6501 47.3146 43.7685 43.2851 32.495C40.1852 23.8049 35.6618 7.75509 35.619 5.21581C35.5523 1.25927 28.4391 -0.215717 28.5684 7.46117C28.6351 11.4177 26.4238 34.4331 18.7425 48.3258C11.4637 61.5617 8.6268 64.9771 3.40888 67.3096C0.418072 68.6005 0.906348 69.5368 5.18304 70.9415C15.7562 74.4257 20.6287 83.145 30.7013 116.527C36.5806 135.921 39.9958 135.273 42.5362 114.26C45.0195 93.3666 55.132 69.5092 62.5879 66.7846C65.0542 65.916 64.8681 65.3875 60.8409 61.2614ZM36.6734 99.3551L35.6409 104.689C35.1476 103.457 28.5673 77.5177 17.6433 70.7316C14.6588 68.8916 14.1144 68.1329 15.8269 68.104C21.3189 68.0115 29.6358 53.2812 31.9973 39.1828C33.129 32.7252 33.3021 32.486 34.9052 36.4757C38.2383 44.9847 43.6303 52.9863 50.9612 60.3646L55.769 65.2461C55.1323 66.0247 41.9329 71.4446 36.6734 99.3551Z" fill="#F5DF93"/><path d="M104.59 130.109C95.1914 122.706 88.1745 109.416 87.9885 98.373C87.9069 93.5307 81.3766 88.0876 79.1872 101.888C76.5221 119.004 74.6519 123.702 68.0914 130.487C62.691 136.013 62.6259 135.659 69.567 137.433C76.0336 139.096 80.9602 147.519 84.3477 162.761C86.4566 172.236 93.4909 172.53 93.623 162.841C93.8065 149.193 96.808 141.522 103.819 136.915C108.258 133.945 108.361 133.058 104.59 130.109ZM97.5565 133.358C95.5016 134.102 89.9741 139.097 88.7108 141.245C86.9899 144.287 87.049 144.286 84.9264 141.013C83.1071 138.209 78.8616 135.15 76.0771 134.665C73.9432 134.228 74.0003 134.11 77.3687 130.686C78.9953 129.064 81.2436 125.776 82.3849 123.394C84.9557 118.212 84.6024 118.278 87.2103 122.309C89.2108 125.347 92.4564 128.659 96.5257 131.78C97.6607 132.529 98.0259 133.173 97.5565 133.358Z" fill="#F5DF93"/></svg>