<svg width="126" height="126" viewBox="0 0 126 126" fill="none" xmlns="http://www.w3.org/2000/svg"><g clip-path="url(#clip0_35_307)"><path d="M121.443 0C123.855 0 126 2.14468 126 4.55745C126 6.97021 123.855 9.11489 121.443 9.11489C119.03 9.11489 116.885 6.97021 116.885 4.55745C116.885 2.14468 119.03 0 121.443 0Z" fill="#4A68F5"/><path d="M121.443 38.8723C123.855 38.8723 126 41.017 126 43.4298C126 45.8426 123.855 47.9872 121.443 47.9872C119.03 47.9872 116.885 45.8426 116.885 43.4298C116.885 41.017 119.03 38.8723 121.443 38.8723Z" fill="#4A68F5"/><path d="M82.57 38.8723C84.9828 38.8723 87.1274 41.017 87.1274 43.4298C87.1274 45.8426 84.9828 47.9872 82.57 47.9872C80.1572 47.9872 78.0125 45.8426 78.0125 43.4298C78.0125 41.017 79.8891 38.8723 82.57 38.8723Z" fill="#4A68F5"/><path d="M43.4299 47.9872C40.9129 47.9872 38.8724 45.9468 38.8724 43.4298C38.8724 40.9128 40.9129 38.8723 43.4299 38.8723C45.9469 38.8723 47.9873 40.9128 47.9873 43.4298C47.9873 45.9468 45.9469 47.9872 43.4299 47.9872Z" fill="#4A68F5"/><path d="M4.55754 38.8723C6.97031 38.8723 9.11499 41.017 9.11499 43.4298C9.11499 45.8426 6.97031 47.9872 4.55754 47.9872C2.14478 47.9872 9.25064e-05 45.8426 9.25064e-05 43.4298C9.25064e-05 41.017 2.14478 38.8723 4.55754 38.8723Z" fill="#4A68F5"/><path d="M121.443 78.0128C123.855 78.0128 126 80.1574 126 82.5702C126 84.983 123.855 87.1276 121.443 87.1276C119.03 87.1276 116.885 84.983 116.885 82.5702C116.885 80.1574 119.03 78.0128 121.443 78.0128Z" fill="#4A68F5"/><path d="M82.57 78.0128C84.9828 78.0128 87.1274 80.1574 87.1274 82.5702C87.1274 84.983 84.9828 87.1276 82.57 87.1276C80.1572 87.1276 78.0125 84.983 78.0125 82.5702C78.0125 80.1574 79.8891 78.0128 82.57 78.0128Z" fill="#4A68F5"/><path d="M43.4299 78.0128C45.8426 78.0128 47.9873 80.1574 47.9873 82.5702C47.9873 84.983 45.8426 87.1276 43.4299 87.1276C41.0171 87.1276 38.8724 84.983 38.8724 82.5702C38.8724 80.1574 41.0171 78.0128 43.4299 78.0128Z" fill="#4A68F5"/><path d="M4.55754 78.0128C6.97031 78.0128 9.11499 80.1574 9.11499 82.5702C9.11499 84.983 6.97031 87.1276 4.55754 87.1276C2.14478 87.1276 9.25064e-05 84.983 9.25064e-05 82.5702C9.25064e-05 80.1574 2.14478 78.0128 4.55754 78.0128Z" fill="#4A68F5"/><path d="M4.55754 116.885C6.97031 116.885 9.11499 119.03 9.11499 121.443C9.11499 123.855 6.97031 126 4.55754 126C2.14478 126 9.25064e-05 123.855 9.25064e-05 121.443C9.25064e-05 119.03 2.14478 116.885 4.55754 116.885Z" fill="#4A68F5"/></g><defs><clipPath id="clip0_35_307"><rect width="126" height="126" fill="white" transform="matrix(-1 0 0 1 126 0)"/></clipPath></defs></svg>