<svg width="741" height="660" viewBox="0 0 741 660" fill="none" xmlns="http://www.w3.org/2000/svg"><g filter="url(#filter0_f_166_370)"><path d="M354.964 68.7332L67.9322 147.967C53.3118 152.003 44.7337 167.123 48.7696 181.743L127.205 465.883C128.869 471.908 132.414 476.895 137.03 480.411C143.61 485.432 152.386 487.418 160.981 485.046L448.013 405.812C456.334 403.515 462.697 397.623 465.893 390.278C468.404 384.525 468.857 378.083 467.176 372.035L388.74 87.8957C384.704 73.2754 369.584 64.6973 354.964 68.7332Z" fill="#3451D6"/><path d="M82.3836 131.079L143.21 351.428C144.19 354.976 146.268 357.911 148.992 359.976L129.419 452.841C124.638 449.208 121.185 444.103 119.595 438.313L41.1591 154.173C37.1232 139.552 45.7012 124.433 60.3216 120.397L93.6659 111.192C85.057 113.569 80.0071 122.47 82.3836 131.079ZM381.129 60.3252L459.565 344.465C461.304 350.764 460.703 357.148 458.283 362.708L393.833 293.03C395.424 289.574 395.739 285.666 394.722 281.999L333.895 61.6496C331.519 53.0408 322.618 47.9908 314.016 50.3654L347.353 41.1627C361.974 37.1268 377.093 45.7049 381.129 60.3252Z" fill="#4E6BF0"/><path d="M458.283 362.708C455.087 370.052 448.724 375.944 440.403 378.241L153.371 457.475C144.775 459.848 136 457.861 129.419 452.841L148.992 359.976C146.175 357.843 144.142 354.837 143.21 351.428L82.3836 131.079C80.0072 122.47 85.0571 113.569 93.6659 111.192L314.016 50.3654C322.618 47.9908 331.519 53.0408 333.895 61.6496L394.722 281.999C395.777 285.822 395.363 289.697 393.833 293.03L458.283 362.708Z" fill="#627CF1"/><path d="M333.895 61.6496L394.722 281.999C395.777 285.822 395.363 289.697 393.833 293.03C391.914 297.219 388.231 300.556 383.445 301.877L163.095 362.704C158.034 364.101 152.87 362.933 148.992 359.976C146.175 357.843 144.142 354.837 143.21 351.428L82.3836 131.079C80.0072 122.47 85.0571 113.569 93.6659 111.192L314.016 50.3654C322.618 47.9908 331.519 53.0408 333.895 61.6496Z" fill="#F4F4F4" fill-opacity="0.14"/><path d="M373.037 34.07L372.985 33.3126L373.037 34.07Z" fill="white"/><path d="M297.991 101.964C296.824 97.7382 292.412 95.2351 288.186 96.4017L250.544 106.793C246.317 107.959 243.814 112.371 244.981 116.598L263.402 183.331L210.138 125.73C206.985 122.319 201.168 120.423 197.212 121.515L139.451 137.46C135.224 138.626 132.721 143.038 133.888 147.264L179.841 313.733C181.008 317.959 185.42 320.462 189.646 319.296L227.288 308.905C231.514 307.738 234.018 303.326 232.851 299.1L211.544 221.914L273.095 288.477C276.248 291.887 282.065 293.784 286.02 292.692L341.371 277.412C344.589 276.524 345.623 273.92 344.198 271.143C344.266 270.253 344.194 269.339 343.944 268.432L297.991 101.964Z" fill="#3451D6"/></g><g clip-path="url(#clip0_166_370)" filter="url(#filter1_f_166_370)"><g filter="url(#filter2_f_166_370)"><path d="M359.5 253.5L349 432.5L430 404V236H380.5L369 242L359.5 253.5Z" fill="black" fill-opacity="0.25"/></g></g><path d="M683.21 279.764L385.776 265.666C370.626 264.948 357.766 276.644 357.048 291.795L343.092 586.231C342.797 592.474 344.612 598.317 347.904 603.096C352.593 609.917 360.314 614.537 369.221 614.96L666.654 629.057C675.277 629.466 683.158 625.849 688.482 619.865C692.66 615.18 695.097 609.199 695.383 602.929L709.338 308.492C710.056 293.342 698.36 280.482 683.21 279.764Z" fill="#3451D6"/><path d="M404.769 254.118L393.946 482.453C393.772 486.129 394.833 489.565 396.778 492.376L349.258 574.527C345.845 569.586 344.154 563.659 344.446 557.662L358.402 263.225C359.12 248.075 371.98 236.379 387.13 237.097L421.683 238.734C412.762 238.312 405.191 245.197 404.769 254.118ZM710.692 279.923L696.737 574.359C696.427 580.887 693.868 586.765 689.837 591.295L650.292 505.011C652.881 502.222 654.397 498.606 654.572 494.806L665.395 266.471C665.817 257.55 658.932 249.979 650.018 249.557L684.564 251.194C699.714 251.912 711.41 264.772 710.692 279.923Z" fill="#4E6BF0"/><path d="M689.837 591.295C684.513 597.279 676.631 600.896 668.008 600.488L370.575 586.39C361.668 585.968 353.948 581.347 349.258 574.527L396.779 492.376C394.766 489.471 393.77 485.982 393.946 482.453L404.769 254.118C405.192 245.197 412.763 238.312 421.683 238.734L650.018 249.557C658.932 249.979 665.818 257.55 665.395 266.471L654.572 494.806C654.385 498.767 652.784 502.32 650.293 505.011L689.837 591.295Z" fill="#627CF1"/><path d="M665.395 266.471L654.572 494.806C654.384 498.767 652.784 502.32 650.292 505.011C647.163 508.394 642.625 510.418 637.665 510.183L409.33 499.36C404.086 499.112 399.543 496.394 396.778 492.376C394.765 489.471 393.77 485.982 393.946 482.453L404.769 254.118C405.191 245.197 412.762 238.312 421.683 238.734L650.018 249.557C658.932 249.979 665.817 257.55 665.395 266.471Z" fill="#F4F4F4" fill-opacity="0.14"/><path d="M711.179 252.453L711.366 251.717L711.179 252.453Z" fill="white"/><path d="M598.537 283.634L469.706 277.528C465.81 277.343 462.472 280.379 462.287 284.275L460.244 327.389C460.059 331.284 463.095 334.623 466.99 334.808L507.222 336.715L501.43 458.922C501.224 463.262 504.608 466.982 508.95 467.188L547.44 469.012C551.781 469.218 555.501 465.835 555.707 461.494L561.499 339.287L595.821 340.914C599.717 341.098 603.055 338.062 603.24 334.166L605.283 291.053C605.468 287.157 602.432 283.818 598.537 283.634Z" fill="#3451D6"/><defs><filter id="filter0_f_166_370" x="38.1619" y="31.3126" width="432.012" height="456.73" filterUnits="userSpaceOnUse" color-interpolation-filters="sRGB"><feFlood flood-opacity="0" result="BackgroundImageFix"/><feBlend mode="normal" in="SourceGraphic" in2="BackgroundImageFix" result="shape"/><feGaussianBlur stdDeviation="1" result="effect1_foregroundBlur_166_370"/></filter><filter id="filter1_f_166_370" x="110.006" y="74.4822" width="366.018" height="401.791" filterUnits="userSpaceOnUse" color-interpolation-filters="sRGB"><feFlood flood-opacity="0" result="BackgroundImageFix"/><feBlend mode="normal" in="SourceGraphic" in2="BackgroundImageFix" result="shape"/><feGaussianBlur stdDeviation="1" result="effect1_foregroundBlur_166_370"/></filter><filter id="filter2_f_166_370" x="279" y="166" width="221" height="336.5" filterUnits="userSpaceOnUse" color-interpolation-filters="sRGB"><feFlood flood-opacity="0" result="BackgroundImageFix"/><feBlend mode="normal" in="SourceGraphic" in2="BackgroundImageFix" result="shape"/><feGaussianBlur stdDeviation="35" result="effect1_foregroundBlur_166_370"/></filter><clipPath id="clip0_166_370"><rect width="283.232" height="334.49" fill="white" transform="translate(112.006 151.839) rotate(-15.43)"/></clipPath></defs></svg>