<svg width="843" height="773" viewBox="0 0 843 773" fill="none" xmlns="http://www.w3.org/2000/svg"><path d="M326.146 488.964C321.09 488.964 316.756 487.519 313.506 484.989C307.727 479.93 306.644 471.258 310.978 460.78L356.483 348.043C362.623 332.506 379.236 316.607 396.572 309.742C406.323 305.767 415.352 305.044 421.853 307.574L502.029 341.539C507.446 343.707 510.697 348.404 511.058 354.547C512.142 369.001 498.418 388.874 479.276 401.159L353.233 479.931C343.843 485.712 334.092 488.964 326.146 488.964ZM413.185 308.658C408.49 308.658 403.434 309.742 397.655 312.271C381.042 319.136 365.151 334.312 359.011 349.127L313.506 461.864C309.894 471.258 310.255 478.485 315.311 482.821C322.535 488.964 336.981 486.796 351.788 477.401L477.832 398.63C498.779 385.261 509.252 366.11 508.53 354.909C508.169 349.85 505.641 346.236 501.307 344.43L421.13 310.464C418.602 309.019 416.074 308.658 413.185 308.658Z" fill="#F5F5F5"/><path d="M323.257 502.695C318.562 502.695 314.228 501.611 310.978 499.081C304.477 494.384 302.671 485.712 306.283 474.51L346.01 352.018C355.039 323.834 392.599 297.095 414.268 303.599L506.363 331.783C512.864 333.59 516.476 338.287 517.559 344.791C520.087 359.606 506.724 382.009 486.861 396.101L355.039 490.409C343.843 498.359 332.647 502.695 323.257 502.695ZM407.045 305.406C386.821 305.406 356.483 328.892 348.899 352.74L309.172 475.233C305.922 484.989 307.366 492.577 312.784 496.552C321.09 502.695 337.703 499.081 353.594 487.88L485.416 393.571C507.447 378.034 517.198 356.715 515.031 345.152C514.309 339.732 511.058 336.119 505.641 334.674L413.546 306.49C411.379 305.767 409.212 305.406 407.045 305.406Z" fill="#F5F5F5"/><path d="M321.452 517.509C317.118 517.509 313.145 516.425 309.895 514.619C302.672 509.921 300.144 501.249 303.033 489.686L334.815 357.438C342.038 327.086 381.043 295.649 405.601 300.347L510.337 321.304C517.56 322.75 522.255 327.086 524.061 334.312C528.033 349.85 515.754 373.698 494.807 390.681L357.929 501.611C345.288 511.728 331.926 517.509 321.452 517.509ZM400.184 302.515C377.431 302.515 344.205 331.06 337.704 357.799L305.922 490.048C303.394 500.165 305.561 508.115 311.34 511.728C319.646 516.787 336.621 514.98 356.123 499.081L492.64 388.151C515.032 370.084 524.061 346.959 520.81 334.674C519.366 328.892 515.393 325.279 509.253 323.834L404.518 302.876C403.434 302.876 401.99 302.515 400.184 302.515Z" fill="#F5F5F5"/><path d="M320.729 533.047C316.756 533.047 312.783 532.324 309.533 530.517C301.588 526.181 298.337 517.509 300.143 505.224L322.896 363.942C327.952 331.422 368.04 294.927 395.488 297.817L513.586 310.464C521.893 311.187 527.671 315.884 530.199 323.111C535.617 339.371 524.06 365.026 503.113 384.177L362.623 513.173C348.177 525.82 333.008 533.047 320.729 533.047ZM392.238 300.347C366.596 300.347 330.48 334.674 325.785 364.303L303.032 505.585C301.226 516.425 304.116 524.013 310.617 527.627C320.368 532.685 339.148 529.433 360.095 510.644L500.585 381.647C523.337 360.69 530.922 336.119 526.949 323.472C524.782 317.33 520.087 313.355 512.864 312.632L394.766 299.985C394.405 300.347 393.321 300.347 392.238 300.347Z" fill="#F5F5F5"/><path d="M321.452 549.307C317.84 549.307 314.229 548.584 310.978 547.139C302.311 543.164 297.977 534.492 299.06 521.845L310.256 371.53C312.784 336.842 353.234 294.927 383.932 295.649L515.754 297.817C525.505 297.817 532.006 302.154 535.617 310.103C542.479 326.724 532.006 354.186 511.059 375.866L368.041 524.013C352.872 540.273 335.537 549.307 321.452 549.307ZM383.571 298.54C355.039 298.54 316.034 339.371 313.506 371.891L302.311 522.207C301.588 533.408 305.2 541.357 312.423 544.609C325.786 550.391 347.816 541.357 366.235 522.207L509.253 374.059C532.006 350.211 538.507 324.556 533.089 311.187C530.2 304.322 524.422 300.708 516.115 300.708L384.293 298.54C383.932 298.54 383.932 298.54 383.571 298.54Z" fill="#F5F5F5"/><path d="M323.979 566.651C320.729 566.651 317.478 566.29 314.589 565.206C305.199 561.954 299.782 552.92 299.782 540.273L297.615 381.647C296.893 344.791 337.703 297.095 371.652 294.927L517.559 285.171C528.394 284.448 536.7 288.784 540.673 297.095C549.341 314.078 540.673 342.984 519.726 367.555L375.625 535.937C359.373 555.45 339.509 566.651 323.979 566.651ZM519.726 288.061C519.004 288.061 518.281 288.061 517.559 288.061L371.652 297.817C339.87 299.985 300.143 346.598 300.504 381.286L302.671 539.912C302.671 551.475 307.366 559.063 315.673 562.315C330.841 567.735 354.678 556.172 373.819 534.131L517.92 365.748C540.312 339.371 545.368 311.91 538.506 298.54C534.894 291.675 528.394 288.061 519.726 288.061Z" fill="#F5F5F5"/><path d="M327.591 584.356C324.702 584.356 322.174 583.995 319.645 583.272C309.172 580.382 302.671 571.71 301.588 558.702L283.891 392.487C279.918 354.186 320.368 300.708 357.206 295.288L517.92 271.801C530.199 269.995 539.951 273.969 545.368 283.003C555.48 300.347 548.618 331.06 528.394 357.799L385.376 547.5C368.04 570.264 345.649 584.356 327.591 584.356ZM518.281 272.885L518.642 274.331L357.928 297.817C322.896 302.876 283.169 355.631 287.141 391.765L304.838 557.979C306.283 569.903 311.7 577.491 321.09 580.02C338.787 585.079 364.429 570.626 383.57 545.332L526.588 355.631C546.09 329.615 552.952 300.347 543.562 284.087C538.867 276.137 530.199 272.524 519.365 274.331L518.281 272.885Z" fill="#F5F5F5"/><path d="M333.731 602.423C331.564 602.423 329.397 602.062 327.591 601.7C316.034 599.532 308.45 590.86 305.561 577.852L269.806 405.134C261.5 365.387 301.227 305.406 341.676 296.372L517.198 256.987C530.922 253.735 542.479 257.709 548.98 267.104C560.898 284.448 555.842 316.968 536.701 346.236L396.572 558.34C379.237 585.44 354.317 602.423 333.731 602.423ZM517.559 258.432L517.921 259.877L342.399 299.263C304.116 307.935 265.111 366.832 273.057 404.411L308.811 577.13C311.339 589.415 318.201 597.003 328.314 598.81C348.538 602.784 375.625 585.44 394.405 556.533L534.534 344.43C553.314 316.246 558.37 285.171 546.813 268.549C540.673 259.877 530.922 256.625 517.921 259.516L517.559 258.432Z" fill="#F5F5F5"/><path d="M342.038 621.212C340.593 621.212 339.509 621.212 338.065 620.851C325.424 619.406 316.034 611.456 311.7 597.726L256.082 419.949C250.304 401.882 254.277 377.673 267.278 353.463C281.363 326.724 303.394 306.128 325.063 299.624L515.754 242.172C531.283 237.474 544.285 240.727 552.592 251.205C566.677 268.911 563.787 302.153 545.73 333.951L411.38 569.18C392.961 600.616 365.152 621.212 342.038 621.212ZM528.394 242.895C524.421 242.895 520.449 243.617 516.115 244.701L325.424 302.515C304.839 308.658 283.169 328.892 269.445 354.908C257.166 378.034 253.193 402.243 258.611 419.226L314.951 597.003C318.924 609.65 327.23 616.876 338.787 617.96C361.54 620.49 390.071 599.532 408.49 567.735L542.84 332.506C560.176 302.154 563.065 269.272 550.063 253.012C544.646 246.147 537.423 242.895 528.394 242.895Z" fill="#F5F5F5"/><path d="M352.872 640.002C352.511 640.002 352.15 640.002 352.15 640.002C338.065 639.641 327.23 632.052 321.09 618.322L241.636 436.932C233.691 419.226 235.496 394.294 246.331 368.639C259.333 337.926 282.085 313.355 305.922 304.322L511.42 226.634C528.755 220.13 543.924 222.66 554.036 233.861C570.288 251.567 569.927 286.255 553.314 320.22L427.27 578.936C409.574 615.07 379.236 640.002 352.872 640.002ZM511.781 227.718L512.142 229.164L307.005 306.851C283.891 315.523 261.5 339.732 248.859 369.723C238.386 394.655 236.58 418.503 244.164 435.486L323.618 616.876C329.397 629.523 339.148 636.75 352.15 636.75C377.792 637.111 407.407 612.902 424.742 577.491L550.786 318.775C566.676 285.893 567.399 252.289 551.869 235.668C542.479 225.55 528.394 223.382 512.503 229.164L511.781 227.718Z" fill="#F5F5F5"/><path d="M366.235 658.791C352.15 658.791 340.232 651.926 332.648 638.918L227.19 456.082C217.078 438.738 216.355 413.445 225.023 386.345C235.858 352.018 259.333 323.111 285.697 311.187L505.641 210.374C524.783 201.702 542.118 203.148 554.759 215.072C573.178 232.777 575.706 267.827 560.898 304.322L446.412 587.608C430.521 626.994 398.739 656.262 369.486 658.43C368.402 658.791 367.319 658.791 366.235 658.791ZM528.756 207.845C521.894 207.845 514.67 209.652 506.725 213.265L287.142 313.716C261.5 325.279 239.108 353.463 228.274 387.067C219.967 413.083 220.689 437.654 230.079 454.276L335.537 637.111C343.121 650.119 354.678 656.623 369.486 655.539C397.656 653.733 428.354 625.187 443.884 586.524L558.37 303.238C572.455 268.188 570.288 233.5 552.953 216.878C546.091 211.097 538.146 207.845 528.756 207.845Z" fill="#F5F5F5"/><path d="M382.848 677.219C368.763 677.219 356.845 671.077 348.177 659.153L213.827 477.04C201.548 460.057 197.936 434.402 204.437 405.857C212.744 368.639 236.219 334.674 264.389 319.498L498.057 194.114C519.004 182.913 539.229 183.636 554.036 195.921C574.983 213.265 580.4 249.399 567.76 287.7L468.442 595.196C454.718 637.834 422.936 671.077 390.793 676.135C388.265 676.858 385.376 677.219 382.848 677.219ZM498.418 195.56L499.14 197.005L265.833 322.388C238.386 337.203 215.272 370.085 207.326 406.579C201.187 434.041 204.437 458.973 216.355 475.233L350.705 657.346C360.456 670.715 374.18 676.135 390.793 673.606C421.853 668.547 452.551 636.027 465.914 594.474L565.232 286.977C577.15 249.76 572.094 214.71 552.23 198.089C538.145 186.526 519.726 186.165 499.501 196.644L498.418 195.56Z" fill="#F5F5F5"/><path d="M402.351 694.925C388.627 694.925 376.347 689.505 366.596 679.026L200.103 500.527C184.935 484.267 178.434 457.889 182.406 428.26C187.824 387.79 210.577 349.85 240.553 331.06L487.583 177.854C510.336 163.762 533.45 163.039 551.147 175.686C574.622 192.669 583.29 229.525 573.538 269.633L493.362 601.339C482.527 646.145 451.107 684.085 416.797 693.118C412.102 694.202 407.046 694.925 402.351 694.925ZM489.028 180.384L242.72 333.59C213.466 351.656 191.074 389.235 185.657 428.621C181.684 457.528 187.824 483.182 202.631 498.72L369.124 677.22C381.403 690.228 398.017 694.925 416.436 690.228C449.662 681.556 480.36 644.699 490.834 600.616L571.01 268.911C580.4 229.886 572.094 194.114 549.702 178.216C532.728 165.93 510.697 167.014 489.028 180.384Z" fill="#F5F5F5"/><path d="M425.465 711.546C412.463 711.546 399.823 706.849 389.71 698.177L188.185 526.181C169.766 510.644 160.376 483.544 161.821 452.469C163.627 409.47 185.296 367.194 217.078 344.791L474.943 161.594C499.502 144.25 525.866 141.721 546.813 154.729C573.178 170.989 585.457 207.484 578.595 249.76L522.255 604.952C514.67 652.649 485.055 693.841 448.218 707.21C440.272 710.462 432.688 711.546 425.465 711.546ZM517.56 149.309C504.197 149.309 490.112 154.367 476.388 164.123L218.522 347.32C187.824 369.362 166.516 410.554 164.71 452.469C163.265 482.821 172.655 508.837 190.352 524.013L391.877 696.009C407.407 709.017 426.909 712.269 447.495 704.681C483.25 691.673 512.142 651.203 519.726 604.591L576.067 249.399C582.568 208.206 571.011 173.157 545.369 157.258C536.701 152.199 527.311 149.309 517.56 149.309Z" fill="#F5F5F5"/><path d="M451.829 727.445C439.188 727.445 427.27 723.832 416.435 716.605L176.989 554.727C155.319 539.912 141.957 512.451 140.512 479.208C138.706 434.041 158.57 388.151 191.074 361.774L458.69 146.057C485.055 124.738 514.67 120.041 539.589 133.41C568.843 148.947 585.095 185.442 581.845 229.164L553.675 606.759C550.063 655.901 522.254 701.429 484.333 719.857C473.498 724.554 462.663 727.445 451.829 727.445ZM460.857 148.225L193.241 363.942C161.459 389.597 141.957 434.763 143.762 478.846C145.207 511.005 157.847 537.744 178.795 551.836L418.241 713.714C437.382 726.722 460.496 727.806 483.249 716.605C520.087 698.538 547.535 654.455 551.146 606.036L579.317 228.441C582.567 186.165 566.676 150.393 538.506 135.578C514.67 122.931 486.5 127.629 460.857 148.225Z" fill="#F5F5F5"/><path d="M482.166 741.176C470.609 741.176 459.052 738.285 448.218 732.504L167.238 584.718C141.235 570.987 123.9 543.164 119.566 507.753C113.787 461.141 131.123 411.638 164.349 381.286L439.55 130.881C467.359 105.587 500.224 98.3604 529.839 111.007C562.343 125.099 583.29 161.955 583.651 206.4L589.069 604.952C589.791 655.901 565.232 703.958 526.228 727.806C511.781 736.84 496.974 741.176 482.166 741.176ZM440.634 131.965L441.717 133.049L166.155 383.815C133.651 413.445 116.677 461.864 122.455 507.753C126.789 542.08 143.763 569.18 168.683 582.55L449.662 730.336C473.138 742.621 499.863 741.176 525.144 725.638C563.065 702.513 587.263 655.178 586.541 605.314L581.123 206.761C580.401 163.039 560.537 127.629 529.117 113.898C500.947 101.612 469.165 108.839 442.078 133.41L440.634 131.965Z" fill="#F5F5F5"/><path d="M515.753 753.1C505.28 753.1 494.445 751.293 484.333 746.957L159.292 617.599C128.594 605.314 106.564 576.768 98.6182 539.189C88.1446 490.771 102.591 439.1 136.54 404.773L417.158 116.427C445.689 86.7978 483.249 76.319 516.837 87.8818C553.675 100.528 578.595 135.939 583.651 182.19L628.073 599.532C633.49 650.842 612.182 702.513 574.261 731.42C556.203 745.873 535.978 753.1 515.753 753.1ZM419.325 118.957L138.706 407.302C105.841 441.268 91.7562 491.855 101.869 539.189C109.814 575.684 131.122 603.507 160.737 615.431L485.777 744.789C513.948 755.991 545.729 750.932 572.455 730.336C610.015 701.79 630.601 651.203 625.184 600.978L580.762 183.274C576.066 138.107 551.869 103.781 516.115 91.1338C483.611 79.9324 447.134 90.0498 419.325 118.957Z" fill="#F5F5F5"/><path d="M553.313 762.495C544.285 762.495 535.256 761.411 526.227 758.52L153.875 653.01C117.759 642.893 90.3113 613.986 78.3932 573.516C63.5858 524.375 75.1428 470.174 108.008 431.873L390.793 103.781C420.408 69.4537 461.219 55.3616 500.223 65.479C541.034 75.9577 571.371 110.646 581.122 157.981L670.689 591.583C681.524 643.254 664.911 696.732 627.712 731.42C606.042 752.016 579.678 762.495 553.313 762.495ZM392.96 106.31L110.175 434.402C77.6709 471.981 66.8362 525.097 80.9213 573.155C92.8394 612.54 119.565 640.725 154.597 650.481L526.949 755.991C561.259 765.747 597.013 755.991 625.545 729.613C662.021 695.648 678.273 642.893 667.8 592.306L578.233 158.703C568.843 112.453 539.228 78.8484 499.501 68.731C461.58 58.9749 421.853 72.7057 392.96 106.31Z" fill="#F5F5F5"/><path d="M594.847 768.999C587.985 768.999 580.762 768.276 573.9 767.192L151.347 690.589C109.092 683.001 75.5047 653.733 58.5303 610.734C39.3891 561.592 47.3345 504.863 79.1162 463.309L360.457 93.3018C390.072 54.2776 434.494 35.4882 479.277 43.4375C524.783 51.3869 560.898 84.6297 576.067 132.687L717.279 578.936C733.531 629.885 721.613 685.892 686.942 725.638C661.661 753.823 629.157 768.999 594.847 768.999ZM459.414 44.5215C422.576 44.5215 387.544 62.5883 362.985 95.1085L81.2832 464.754C50.2237 505.947 42.2783 561.231 61.0584 609.288C77.3104 651.565 110.537 680.11 151.709 687.337L574.261 763.94C615.072 771.167 655.16 756.352 684.775 723.109C718.724 684.446 730.281 629.162 714.39 579.298L573.178 133.049C558.37 86.0751 522.977 53.5549 478.916 45.9669C472.054 44.8829 465.553 44.5215 459.414 44.5215Z" fill="#F5F5F5"/><path d="M638.547 772.251C634.574 772.251 630.602 772.251 626.629 771.889L151.709 729.974C103.314 725.638 61.0586 696.009 39.3892 650.481C15.5529 600.978 19.5256 543.887 50.2239 498.358L325.786 84.6297C355.04 40.5468 402.712 17.06 453.274 21.396C503.836 25.732 546.813 57.5295 567.761 105.948L767.119 561.231C789.149 611.456 783.371 668.186 751.228 712.992C724.141 750.57 682.969 772.251 638.547 772.251ZM440.995 23.9254C395.85 23.9254 354.317 46.6895 327.953 86.4364L52.3908 499.804C22.4149 544.609 18.4421 600.616 41.9173 649.035C63.2255 693.841 104.397 722.748 152.07 727.084L626.99 768.637C674.302 772.612 720.168 751.293 748.7 711.185C780.12 667.463 785.899 611.818 764.229 562.315L564.871 107.032C544.285 59.3362 502.391 28.6227 452.913 24.2867C448.94 23.9254 444.967 23.9254 440.995 23.9254Z" fill="#F5F5F5"/><path d="M686.219 771.528H156.403C100.063 771.528 49.8623 742.26 21.6921 693.479C-6.47809 644.699 -6.47809 586.524 21.6921 537.744L286.419 78.8483C314.59 30.0681 364.79 0.799927 421.131 0.799927C477.471 0.799927 527.672 30.0681 555.842 78.8483L820.931 538.105C849.101 586.886 849.101 645.061 820.931 693.841C792.76 742.26 742.56 771.528 686.219 771.528ZM287.503 79.571L288.586 80.2937L23.859 539.189C-3.58884 586.886 -3.58884 644.338 23.859 692.034C51.3069 739.73 100.785 768.637 156.042 768.637H685.858C741.115 768.637 790.593 740.092 818.041 692.034C845.489 644.338 845.489 586.886 818.041 539.189L553.675 80.2937C526.227 32.5974 476.749 3.69061 421.492 3.69061C366.235 3.69061 316.757 32.2361 289.309 80.2937L287.503 79.571Z" fill="#F5F5F5"/></svg>