<svg width="843" height="773" viewBox="0 0 843 773" fill="none" xmlns="http://www.w3.org/2000/svg"><g clip-path="url(#clip0_35_202)"><path d="M326.523 488.913C321.467 488.913 317.133 487.468 313.883 484.939C308.104 479.88 307.021 471.208 311.355 460.729L356.86 347.993C363 332.455 379.613 316.556 396.949 309.691C406.7 305.716 415.729 304.994 422.23 307.523L502.406 341.489C507.824 343.657 511.074 348.354 511.435 354.497C512.519 368.95 498.795 388.823 479.654 401.109L353.61 479.88C344.22 485.661 334.469 488.913 326.523 488.913ZM413.562 308.607C408.867 308.607 403.811 309.691 398.032 312.22C381.419 319.086 365.528 334.262 359.389 349.077L313.883 461.813C310.271 471.208 310.632 478.435 315.689 482.771C322.912 488.913 337.358 486.745 352.165 477.351L478.209 398.58C499.156 385.21 509.629 366.059 508.907 354.858C508.546 349.799 506.018 346.186 501.684 344.379L421.507 310.414C418.979 308.968 416.451 308.607 413.562 308.607Z" fill="#3B5DF8"/><path d="M323.634 502.644C318.939 502.644 314.605 501.56 311.355 499.031C304.854 494.333 303.048 485.661 306.66 474.46L346.387 351.967C355.416 323.783 392.976 297.044 414.645 303.548L506.74 331.732C513.241 333.539 516.852 338.237 517.936 344.741C520.464 359.555 507.101 381.958 487.238 396.05L355.416 490.359C344.22 498.308 333.024 502.644 323.634 502.644ZM407.422 305.355C387.197 305.355 356.86 328.842 349.276 352.69L309.549 475.183C306.298 484.939 307.743 492.527 313.16 496.501C321.467 502.644 338.08 499.031 353.971 487.829L485.793 393.521C507.824 377.983 517.575 356.665 515.408 345.102C514.686 339.682 511.435 336.069 506.018 334.623L413.923 306.439C411.756 305.716 409.589 305.355 407.422 305.355Z" fill="#3B5DF8"/><path d="M321.828 517.459C317.494 517.459 313.522 516.375 310.271 514.568C303.048 509.871 300.52 501.199 303.409 489.636L335.191 357.387C342.414 327.035 381.419 295.599 405.978 300.296L510.713 321.254C517.936 322.699 522.631 327.035 524.437 334.262C528.41 349.799 516.13 373.647 495.183 390.63L358.305 501.56C345.665 511.677 332.302 517.459 321.828 517.459ZM400.56 302.464C377.807 302.464 344.581 331.01 338.08 357.749L306.299 489.997C303.77 500.115 305.937 508.064 311.716 511.677C320.022 516.736 336.997 514.929 356.499 499.031L493.016 388.101C515.408 370.034 524.437 346.909 521.186 334.623C519.742 328.842 515.769 325.228 509.629 323.783L404.894 302.826C403.811 302.826 402.366 302.464 400.56 302.464Z" fill="#3B5DF8"/><path d="M321.106 532.996C317.133 532.996 313.161 532.273 309.91 530.467C301.965 526.131 298.714 517.459 300.52 505.173L323.273 363.891C328.329 331.371 368.418 294.876 395.865 297.767L513.963 310.414C522.27 311.136 528.049 315.834 530.577 323.06C535.994 339.32 524.437 364.975 503.49 384.126L363 513.123C348.554 525.769 333.385 532.996 321.106 532.996ZM392.615 300.296C366.973 300.296 330.857 334.623 326.162 364.253L303.409 505.535C301.604 516.375 304.493 523.963 310.994 527.576C320.745 532.635 339.525 529.383 360.472 510.593L500.962 381.597C523.715 360.639 531.299 336.068 527.326 323.422C525.159 317.279 520.464 313.304 513.241 312.582L395.143 299.935C394.782 300.296 393.698 300.296 392.615 300.296Z" fill="#3B5DF8"/><path d="M321.828 549.256C318.217 549.256 314.605 548.534 311.355 547.088C302.687 543.114 298.353 534.442 299.437 521.795L310.632 371.479C313.161 336.791 353.61 294.876 384.308 295.599L516.13 297.767C525.881 297.767 532.382 302.103 535.994 310.052C542.856 326.674 532.382 354.135 511.435 375.815L368.417 523.963C353.249 540.223 335.913 549.256 321.828 549.256ZM383.947 298.49C355.416 298.49 316.411 339.32 313.883 371.841L302.687 522.156C301.965 533.358 305.576 541.307 312.799 544.559C326.162 550.34 348.193 541.307 366.612 522.156L509.629 374.009C532.382 350.161 538.883 324.506 533.466 311.136C530.576 304.271 524.798 300.658 516.491 300.658L384.669 298.49C384.308 298.49 384.308 298.49 383.947 298.49Z" fill="#3B5DF8"/><path d="M324.356 566.6C321.106 566.6 317.856 566.239 314.966 565.155C305.576 561.903 300.159 552.87 300.159 540.223L297.992 381.597C297.27 344.741 338.08 297.044 372.029 294.876L517.936 285.12C528.771 284.398 537.077 288.734 541.05 297.044C549.718 314.027 541.05 342.934 520.103 367.505L376.002 535.887C359.75 555.399 339.886 566.6 324.356 566.6ZM520.103 288.011C519.381 288.011 518.658 288.011 517.936 288.011L372.029 297.767C340.247 299.935 300.52 346.547 300.881 381.235L303.048 539.862C303.048 551.424 307.743 559.012 316.05 562.264C331.218 567.684 355.055 556.122 374.196 534.08L518.297 365.698C540.689 339.32 545.745 311.859 538.883 298.49C535.272 291.624 528.771 288.011 520.103 288.011Z" fill="#3B5DF8"/><path d="M327.968 584.306C325.079 584.306 322.551 583.944 320.022 583.222C309.549 580.331 303.048 571.659 301.965 558.651L284.268 392.437C280.295 354.135 320.745 300.658 357.583 295.238L518.297 271.751C530.576 269.944 540.328 273.919 545.745 282.952C555.857 300.296 548.995 331.01 528.771 357.749L385.753 547.45C368.417 570.214 346.026 584.306 327.968 584.306ZM518.658 272.835L519.019 274.28L358.305 297.767C323.273 302.826 283.546 355.581 287.518 391.714L305.215 557.928C306.66 569.852 312.077 577.44 321.467 579.97C339.164 585.028 364.806 570.575 383.947 545.282L526.965 355.581C546.467 329.564 553.329 300.296 543.939 284.036C539.244 276.087 530.576 272.473 519.742 274.28L518.658 272.835Z" fill="#3B5DF8"/><path d="M334.108 602.372C331.941 602.372 329.774 602.011 327.968 601.65C316.411 599.482 308.827 590.81 305.938 577.802L270.183 405.083C261.876 365.337 301.604 305.355 342.053 296.322L517.575 256.936C531.299 253.684 542.856 257.659 549.357 267.053C561.275 284.398 556.219 316.918 537.077 346.186L396.949 558.29C379.613 585.39 354.694 602.372 334.108 602.372ZM517.936 258.381L518.297 259.827L342.775 299.212C304.493 307.884 265.488 366.782 273.433 404.361L309.188 577.079C311.716 589.364 318.578 596.952 328.69 598.759C348.915 602.734 376.002 585.39 394.782 556.483L534.91 344.379C553.691 316.195 558.747 285.12 547.19 268.499C541.05 259.827 531.299 256.575 518.297 259.465L517.936 258.381Z" fill="#3B5DF8"/><path d="M342.414 621.162C340.97 621.162 339.886 621.162 338.442 620.801C325.801 619.355 316.411 611.406 312.077 597.675L256.459 419.898C250.681 401.831 254.653 377.622 267.655 353.413C281.74 326.674 303.771 306.078 325.44 299.574L516.13 242.121C531.66 237.424 544.662 240.676 552.968 251.155C567.053 268.86 564.164 302.103 546.106 333.9L411.756 569.13C393.337 600.566 365.528 621.162 342.414 621.162ZM528.771 242.844C524.798 242.844 520.825 243.567 516.492 244.651L325.801 302.464C305.215 308.607 283.546 328.842 269.822 354.858C257.543 377.983 253.57 402.193 258.987 419.176L315.328 596.952C319.3 609.599 327.607 616.826 339.164 617.91C361.917 620.439 390.448 599.482 408.867 567.684L543.217 332.455C560.553 302.103 563.442 269.221 550.44 252.961C545.023 246.096 537.8 242.844 528.771 242.844Z" fill="#3B5DF8"/><path d="M353.249 639.951C352.888 639.951 352.527 639.951 352.527 639.951C338.442 639.59 327.607 632.002 321.467 618.271L242.013 436.881C234.068 419.176 235.873 394.243 246.708 368.589C259.71 337.875 282.462 313.304 306.299 304.271L511.797 226.584C529.132 220.08 544.301 222.609 554.413 233.811C570.665 251.516 570.304 286.204 553.691 320.17L427.647 578.886C409.951 615.019 379.613 639.951 353.249 639.951ZM512.158 227.668L512.519 229.113L307.382 306.8C284.268 315.472 261.877 339.682 249.236 369.673C238.763 394.605 236.957 418.453 244.541 435.436L323.995 616.826C329.774 629.473 339.525 636.699 352.527 636.699C378.169 637.061 407.784 612.851 425.119 577.44L551.163 318.724C567.053 285.843 567.776 252.239 552.246 235.617C542.856 225.5 528.771 223.332 512.88 229.113L512.158 227.668Z" fill="#3B5DF8"/><path d="M366.612 658.741C352.527 658.741 340.608 651.876 333.024 638.867L227.567 456.032C217.454 438.688 216.732 413.394 225.4 386.294C236.234 351.967 259.71 323.06 286.074 311.136L506.018 210.324C525.159 201.652 542.495 203.097 555.135 215.021C573.554 232.727 576.082 267.776 561.275 304.271L446.788 587.558C430.898 626.943 399.116 656.212 369.862 658.38C368.779 658.741 367.695 658.741 366.612 658.741ZM529.132 207.795C522.27 207.795 515.047 209.601 507.101 213.215L287.519 313.666C261.876 325.228 239.485 353.413 228.65 387.017C220.343 413.033 221.066 437.604 230.456 454.225L335.913 637.061C343.498 650.069 355.055 656.573 369.862 655.489C398.032 653.682 428.731 625.137 444.26 586.474L558.747 303.187C572.832 268.137 570.665 233.449 553.329 216.828C546.467 211.047 538.522 207.795 529.132 207.795Z" fill="#3B5DF8"/><path d="M383.225 677.169C369.14 677.169 357.222 671.026 348.554 659.102L214.204 476.989C201.924 460.007 198.313 434.352 204.814 405.806C213.12 368.589 236.595 334.623 264.766 319.447L498.434 194.064C519.381 182.862 539.605 183.585 554.413 195.87C575.36 213.215 580.777 249.348 568.137 287.65L468.819 595.146C455.095 637.783 423.313 671.026 391.17 676.085C388.642 676.808 385.753 677.169 383.225 677.169ZM498.795 195.509L499.517 196.954L266.21 322.338C238.762 337.153 215.648 370.034 207.703 406.529C201.563 433.99 204.814 458.923 216.732 475.183L351.082 657.296C360.833 670.665 374.557 676.085 391.17 673.556C422.23 668.497 452.928 635.977 466.291 594.423L565.609 286.927C577.527 249.709 572.471 214.66 552.607 198.038C538.522 186.476 520.103 186.114 499.878 196.593L498.795 195.509Z" fill="#3B5DF8"/><path d="M402.727 694.874C389.003 694.874 376.724 689.454 366.973 678.976L200.48 500.476C185.311 484.216 178.81 457.839 182.783 428.209C188.201 387.739 210.953 349.799 240.929 331.01L487.96 177.804C510.713 163.712 533.827 162.989 551.524 175.636C574.999 192.618 583.666 229.475 573.915 269.583L493.739 601.289C482.904 646.094 451.483 684.034 417.173 693.068C412.478 694.152 407.422 694.874 402.727 694.874ZM489.405 180.333L243.096 333.539C213.843 351.606 191.451 389.185 186.034 428.57C182.061 457.477 188.201 483.132 203.008 498.669L369.501 677.169C381.78 690.177 398.393 694.874 416.812 690.177C450.039 681.505 480.737 644.649 491.21 600.566L571.387 268.86C580.777 229.836 572.471 194.064 550.079 178.165C533.105 165.88 511.074 166.964 489.405 180.333Z" fill="#3B5DF8"/><path d="M425.841 711.496C412.84 711.496 400.199 706.798 390.087 698.126L188.562 526.131C170.143 510.593 160.753 483.493 162.197 452.418C164.003 409.42 185.672 367.143 217.454 344.741L475.32 161.544C499.878 144.199 526.243 141.67 547.19 154.678C573.554 170.938 585.833 207.433 578.971 249.709L522.631 604.902C515.047 652.598 485.432 693.79 448.594 707.16C440.649 710.412 433.064 711.496 425.841 711.496ZM517.936 149.258C504.573 149.258 490.488 154.317 476.764 164.073L218.899 347.27C188.2 369.311 166.892 410.504 165.086 452.418C163.642 482.771 173.032 508.787 190.729 523.963L392.254 695.958C407.783 708.966 427.286 712.218 447.872 704.63C483.626 691.622 512.519 651.153 520.103 604.541L576.443 249.348C582.944 208.156 571.387 173.106 545.745 157.208C537.077 152.149 527.687 149.258 517.936 149.258Z" fill="#3B5DF8"/><path d="M452.206 727.394C439.565 727.394 427.647 723.781 416.812 716.554L177.366 554.676C155.697 539.861 142.334 512.4 140.889 479.157C139.083 433.99 158.947 388.101 191.451 361.723L459.068 146.006C485.432 124.687 515.047 119.99 539.967 133.359C569.22 148.897 585.472 185.392 582.222 229.113L554.052 606.708C550.44 655.85 522.631 701.378 484.71 719.806C473.875 724.504 463.04 727.394 452.206 727.394ZM461.235 148.174L193.618 363.891C161.836 389.546 142.334 434.713 144.14 478.796C145.584 510.955 158.225 537.693 179.172 551.786L418.618 713.664C437.759 726.672 460.873 727.756 483.626 716.554C520.464 698.488 547.912 654.405 551.524 605.986L579.694 228.391C582.944 186.114 567.053 150.342 538.883 135.527C515.047 122.881 486.877 127.578 461.235 148.174Z" fill="#3B5DF8"/><path d="M482.543 741.125C470.986 741.125 459.429 738.235 448.594 732.453L167.615 584.667C141.611 570.936 124.276 543.114 119.942 507.703C114.164 461.09 131.499 411.588 164.725 381.235L439.926 130.83C467.735 105.537 500.601 98.3099 530.215 110.957C562.719 125.049 583.666 161.905 584.028 206.349L589.445 604.902C590.167 655.85 565.609 703.908 526.604 727.756C512.158 736.789 497.35 741.125 482.543 741.125ZM441.01 131.914L442.093 132.998L166.531 383.765C134.027 413.394 117.053 461.813 122.831 507.703C127.165 542.03 144.139 569.13 169.059 582.499L450.039 730.285C473.514 742.571 500.239 741.125 525.52 725.588C563.442 702.462 587.639 655.128 586.917 605.263L581.5 206.71C580.777 162.989 560.914 127.578 529.493 113.847C501.323 101.562 469.541 108.789 442.454 133.359L441.01 131.914Z" fill="#3B5DF8"/><path d="M516.13 753.049C505.657 753.049 494.822 751.243 484.71 746.907L159.669 617.549C128.971 605.263 106.941 576.718 98.9951 539.139C88.5216 490.72 102.968 439.049 136.917 404.722L417.535 116.377C446.066 86.7472 483.626 76.2685 517.214 87.8312C554.052 100.478 578.972 135.889 584.028 182.14L628.45 599.482C633.867 650.792 612.559 702.462 574.638 731.369C556.58 745.823 536.355 753.049 516.13 753.049ZM419.702 118.906L139.083 407.252C106.218 441.217 92.1332 491.804 102.246 539.139C110.191 575.634 131.499 603.457 161.114 615.381L486.154 744.739C514.325 755.94 546.106 750.881 572.832 730.285C610.392 701.74 630.978 651.153 625.561 600.927L581.138 183.224C576.443 138.057 552.246 103.73 516.492 91.0832C483.988 79.8818 447.511 89.9992 419.702 118.906Z" fill="#3B5DF8"/><path d="M553.691 762.444C544.662 762.444 535.633 761.36 526.604 758.469L154.252 652.96C118.136 642.842 90.6885 613.935 78.7704 573.466C63.963 524.324 75.52 470.124 108.385 431.822L391.17 103.73C420.785 69.4031 461.596 55.3111 500.601 65.4284C541.411 75.9072 571.748 110.595 581.5 157.93L671.066 591.533C681.901 643.203 665.288 696.681 628.089 731.369C606.419 751.965 580.055 762.444 553.691 762.444ZM393.337 106.259L110.552 434.352C78.0481 471.931 67.2134 525.047 81.2985 573.104C93.2166 612.49 119.942 640.674 154.974 650.43L527.326 755.94C561.636 765.696 597.391 755.94 625.922 729.563C662.399 695.597 678.651 642.842 668.177 592.255L578.61 158.653C569.22 112.402 539.606 78.7978 499.878 68.6805C461.957 58.9244 422.23 72.6551 393.337 106.259Z" fill="#3B5DF8"/><path d="M595.224 768.948C588.362 768.948 581.138 768.225 574.276 767.141L151.724 690.538C109.469 682.95 75.8811 653.682 58.9068 610.683C39.7655 561.542 47.7109 504.812 79.4927 463.258L360.833 93.2512C390.448 54.227 434.87 35.4376 479.654 43.387C525.159 51.3364 561.275 84.5792 576.443 132.637L717.655 578.886C733.907 629.834 721.989 685.841 687.318 725.588C662.037 753.772 629.533 768.948 595.224 768.948ZM459.79 44.471C422.952 44.471 387.92 62.5378 363.361 95.0579L81.6596 464.704C50.6002 505.896 42.6548 561.18 61.4349 609.238C77.6869 651.514 110.913 680.06 152.085 687.286L574.638 763.889C615.448 771.116 655.537 756.301 685.151 723.059C719.1 684.396 730.657 629.111 714.766 579.247L573.554 132.998C558.747 86.0245 523.354 53.5044 479.292 45.9163C472.431 44.8323 465.93 44.471 459.79 44.471Z" fill="#3B5DF8"/><path d="M638.923 772.2C634.951 772.2 630.978 772.2 627.005 771.839L152.085 729.924C103.69 725.588 61.4348 695.958 39.7654 650.43C15.9291 600.927 19.9018 543.836 50.6001 498.308L326.162 84.5792C355.416 40.4963 403.088 17.0095 453.65 21.3455C504.212 25.6815 547.19 57.479 568.137 105.898L767.495 561.18C789.525 611.406 783.747 668.136 751.604 712.941C724.517 750.52 683.346 772.2 638.923 772.2ZM441.371 23.8748C396.226 23.8748 354.694 46.639 328.329 86.3858L52.767 499.753C22.7911 544.559 18.8184 600.566 42.2935 648.985C63.6017 693.79 104.774 722.697 152.446 727.033L627.366 768.587C674.678 772.561 720.545 751.243 749.076 711.134C780.497 667.413 786.275 611.767 764.606 562.264L565.247 106.982C544.662 59.2857 502.768 28.5722 453.289 24.2362C449.316 23.8748 445.344 23.8748 441.371 23.8748Z" fill="#3B5DF8"/><path d="M686.596 771.477H156.78C100.44 771.477 50.239 742.209 22.0688 693.429C-6.10138 644.649 -6.10138 586.474 22.0688 537.694L286.796 78.7978C314.966 30.0175 365.167 0.74939 421.507 0.74939C477.848 0.74939 528.049 30.0175 556.219 78.7978L821.307 538.055C849.477 586.835 849.477 645.01 821.307 693.79C793.137 742.209 742.936 771.477 686.596 771.477ZM287.88 79.5205L288.963 80.2431L24.2357 539.139C-3.21213 586.835 -3.21213 644.287 24.2357 691.984C51.6836 739.68 101.162 768.587 156.419 768.587H686.235C741.492 768.587 790.97 740.041 818.418 691.984C845.866 644.287 845.866 586.835 818.418 539.139L554.052 80.2431C526.604 32.5469 477.125 3.64007 421.869 3.64007C366.612 3.64007 317.133 32.1856 289.685 80.2431L287.88 79.5205Z" fill="#3B5DF8"/></g><defs><clipPath id="clip0_35_202"><rect width="841.855" height="771.451" fill="white" transform="translate(0.760498 0.74939)"/></clipPath></defs></svg>