<svg width="49" height="48" viewBox="0 0 49 48" fill="none" xmlns="http://www.w3.org/2000/svg"><rect x="0.5" width="48" height="48" rx="24" fill="#0077B5"/><path d="M37.8242 35.3251C36.2492 35.2876 34.7117 35.2876 33.1367 35.3251C32.7992 35.3251 32.7242 35.2501 32.7242 34.9126C32.7242 32.1376 32.7242 29.3251 32.7242 26.5501C32.7242 25.9126 32.6867 25.2751 32.4992 24.6751C31.9367 22.7251 29.6867 22.0126 28.0742 23.3251C27.2117 24.0001 26.8742 24.9376 26.8742 26.0626C26.8742 28.6876 26.8742 31.3126 26.8742 33.9376C26.8742 34.2751 26.8367 34.6126 26.8742 34.9876C26.9117 35.2876 26.7617 35.3626 26.4992 35.3251C24.8867 35.3251 23.3117 35.3251 21.6992 35.3251C21.3992 35.3251 21.3242 35.2501 21.3242 34.9501C21.3617 32.5876 21.3617 30.2251 21.3617 27.8251C21.3617 24.9001 21.3617 21.9751 21.3242 19.0876C21.3242 18.7501 21.3992 18.6751 21.6992 18.6751C23.3117 18.6751 24.8867 18.6751 26.4992 18.6751C26.7992 18.6751 26.8742 18.7501 26.8742 19.0501C26.8742 19.6501 26.8742 20.2501 26.8742 20.9626C26.9867 20.8501 27.0242 20.8126 27.0617 20.7751C28.5242 18.6376 30.5867 18.0376 33.0242 18.4126C35.8367 18.8626 37.6367 20.8126 38.0867 23.8126C38.1992 24.5251 38.2367 25.2376 38.2367 25.9501C38.2367 28.9501 38.2367 31.9126 38.2367 34.9126C38.2367 35.2126 38.1617 35.3251 37.8242 35.3251Z" fill="white"/><path d="M18.325 27C18.325 29.625 18.325 32.25 18.325 34.875C18.325 35.2125 18.25 35.325 17.9125 35.325C16.3375 35.2875 14.7625 35.325 13.1875 35.325C12.8875 35.325 12.8125 35.25 12.8125 34.95C12.8125 29.6625 12.8125 24.3375 12.8125 19.05C12.8125 18.7875 12.8875 18.675 13.1875 18.675C14.8 18.675 16.4125 18.675 18.025 18.675C18.3625 18.675 18.4 18.7875 18.4 19.0875C18.325 21.7125 18.325 24.3375 18.325 27Z" fill="white"/><path d="M18.5874 14.325C18.2124 15.825 16.6749 16.6875 14.9124 16.3875C13.0374 16.0875 11.9874 14.25 12.6624 12.45C13.1124 11.325 14.1999 10.65 15.5874 10.6875C17.6874 10.65 19.0749 12.3375 18.5874 14.325Z" fill="white"/></svg>