<svg width="49" height="48" viewBox="0 0 49 48" fill="none" xmlns="http://www.w3.org/2000/svg"><rect x="0.5" width="48" height="48" rx="24" fill="#5181B8"/><path fill-rule="evenodd" clip-rule="evenodd" d="M39.7658 16.5346C39.9884 15.7929 39.7658 15.2478 38.7071 15.2478H35.2062C34.316 15.2478 33.9059 15.7187 33.6834 16.238C33.6834 16.238 31.903 20.5773 29.3809 23.396C28.5649 24.2119 28.1941 24.4712 27.749 24.4712C27.5264 24.4712 27.2044 24.2119 27.2044 23.4702V16.5346C27.2044 15.6444 26.9461 15.2478 26.2041 15.2478H20.7028C20.1467 15.2478 19.8121 15.6609 19.8121 16.0525C19.8121 16.8964 21.0729 17.091 21.203 19.4645V24.62C21.203 25.7503 20.9989 25.9553 20.5538 25.9553C19.367 25.9553 16.4804 21.5963 14.768 16.6089C14.4324 15.6394 14.0958 15.2478 13.2011 15.2478H9.70028C8.70005 15.2478 8.5 15.7187 8.5 16.238C8.5 17.1653 9.68703 21.7643 14.0263 27.8467C16.9195 32.0002 20.9949 34.2522 24.7038 34.2522C26.9293 34.2522 27.2044 33.7521 27.2044 32.8907V29.7512C27.2044 28.751 27.4152 28.5514 28.1196 28.5514C28.6392 28.5514 29.5292 28.811 31.6064 30.8137C33.9799 33.187 34.371 34.2522 35.7064 34.2522H39.2072C40.2074 34.2522 40.7075 33.7521 40.419 32.7651C40.1034 31.7814 38.9701 30.3546 37.4663 28.6627C36.6503 27.6982 35.4263 26.6597 35.0557 26.1406C34.5363 25.4729 34.6846 25.1764 35.0557 24.5832C35.0557 24.5832 39.3207 18.5748 39.7658 16.5349V16.5346Z" fill="white"/></svg>