<svg width="49" height="48" viewBox="0 0 49 48" fill="none" xmlns="http://www.w3.org/2000/svg"><rect x="0.5" width="48" height="48" rx="24" fill="#0DC143"/><path d="M35.2504 13.2115C32.6775 10.5628 29.1207 9.125 25.4883 9.125C17.7694 9.125 11.564 15.4061 11.6396 23.0493C11.6396 25.4709 12.3207 27.8169 13.4558 29.9358L11.4883 37.125L18.8288 35.2331C20.8721 36.3682 23.1423 36.898 25.4126 36.898C33.0558 36.898 39.2613 30.6169 39.2613 22.9736C39.2613 19.2655 37.8234 15.7845 35.2504 13.2115ZM25.4883 34.552C23.445 34.552 21.4018 34.0223 19.6613 32.9628L19.2072 32.7358L14.818 33.8709L15.9531 29.5574L15.6504 29.1034C12.3207 23.7304 13.9099 16.6169 19.3586 13.2872C24.8072 9.95743 31.845 11.5466 35.1748 16.9953C38.5045 22.4439 36.9153 29.4818 31.4667 32.8115C29.7261 33.9466 27.6072 34.552 25.4883 34.552ZM32.1477 26.152L31.3153 25.7736C31.3153 25.7736 30.1045 25.2439 29.3477 24.8655C29.2721 24.8655 29.1964 24.7899 29.1207 24.7899C28.8937 24.7899 28.7423 24.8655 28.591 24.9412C28.591 24.9412 28.5153 25.0169 27.4558 26.2277C27.3802 26.3791 27.2288 26.4547 27.0775 26.4547H27.0018C26.9261 26.4547 26.7748 26.3791 26.6991 26.3034L26.3207 26.152C25.4883 25.7736 24.7315 25.3196 24.1261 24.7142C23.9748 24.5628 23.7477 24.4115 23.5964 24.2601C23.0667 23.7304 22.5369 23.125 22.1586 22.4439L22.0829 22.2926C22.0072 22.2169 22.0072 22.1412 21.9315 21.9899C21.9315 21.8385 21.9315 21.6872 22.0072 21.6115C22.0072 21.6115 22.3099 21.2331 22.5369 21.0061C22.6883 20.8547 22.764 20.6277 22.9153 20.4764C23.0667 20.2493 23.1423 19.9466 23.0667 19.7196C22.991 19.3412 22.0829 17.298 21.8558 16.8439C21.7045 16.6169 21.5531 16.5412 21.3261 16.4655H21.0991C20.9477 16.4655 20.7207 16.4655 20.4937 16.4655C20.3423 16.4655 20.191 16.5412 20.0396 16.5412L19.964 16.6169C19.8126 16.6926 19.6613 16.8439 19.5099 16.9196C19.3586 17.0709 19.2829 17.2223 19.1315 17.3736C18.6018 18.0547 18.2991 18.8872 18.2991 19.7196C18.2991 20.325 18.4504 20.9304 18.6775 21.4601L18.7531 21.6872C19.4342 23.125 20.3423 24.4115 21.5531 25.5466L21.8558 25.8493C22.0829 26.0764 22.3099 26.2277 22.4613 26.4547C24.0504 27.8169 25.8667 28.8007 27.9099 29.3304C28.1369 29.4061 28.4396 29.4061 28.6667 29.4818C28.8937 29.4818 29.1964 29.4818 29.4234 29.4818C29.8018 29.4818 30.2558 29.3304 30.5586 29.1791C30.7856 29.0277 30.9369 29.0277 31.0883 28.8764L31.2396 28.725C31.391 28.5736 31.5423 28.498 31.6937 28.3466C31.845 28.1953 31.9964 28.0439 32.0721 27.8926C32.2234 27.5899 32.2991 27.2115 32.3748 26.8331C32.3748 26.6818 32.3748 26.4547 32.3748 26.3034C32.3748 26.3034 32.2991 26.2277 32.1477 26.152Z" fill="white"/></svg>