<svg width="103" height="132" viewBox="0 0 103 132" fill="none" xmlns="http://www.w3.org/2000/svg">
<path fill-rule="evenodd" clip-rule="evenodd" d="M101.083 26.2392L76.8438 2V26.2392H101.083ZM23 47.0764H34.9917V58.9834H23V47.0764Z" fill="#37979F"/>
<path d="M76.8438 2H2V130H101.083V26.2392M76.8438 2L101.083 26.2392M76.8438 2V26.2392H101.083M78.6661 47.0764L72.4136 53.0299M66.1611 58.9834L72.4136 53.0299M72.4136 53.0299L66.1611 47.0764M72.4136 53.0299L78.6661 58.9834M34.9917 100.233C35.5587 94.9878 39.8395 84.4983 52.4269 84.4983C65.0143 84.4983 70 94.9878 70 100.233M23 47.0764H34.9917V58.9834H23V47.0764Z" stroke="#1A1A1A" stroke-width="3"/>
</svg>
