<svg width="30" height="15" viewBox="0 0 30 15" fill="none" xmlns="http://www.w3.org/2000/svg"><path d="M4.54189 10.2456C4.46982 10.0379 4.35802 9.87237 4.20649 9.74906C3.89822 9.49778 3.53953 9.29816 3.13041 9.15019C2.79693 9.02962 2.45797 9.01729 2.11353 9.1132C2.30041 8.89151 2.53538 8.77958 2.81844 8.77738C3.00423 8.77574 3.21193 8.82479 3.44156 8.92453C3.68297 9.02921 3.89438 9.14019 4.07578 9.25747C4.42927 9.486 4.71124 9.78523 4.54189 10.2456Z" fill="#C49AA7"/><path d="M4.54179 10.245C4.46082 10.4517 4.3075 10.5758 4.11555 10.6942C3.67082 10.9684 3.14922 11.1056 2.69051 10.8278C2.27537 10.5762 2.04341 10.2228 1.99464 9.76733C1.97052 9.54127 2.01012 9.32301 2.11343 9.11256C2.45787 9.01666 2.79683 9.02899 3.13031 9.14956C3.53943 9.29753 3.89812 9.49715 4.20639 9.74843C4.35792 9.87174 4.46972 10.0372 4.54179 10.245Z" fill="#78223D"/><path d="M18.8272 13.7867C16.8074 14.2473 14.7794 14.5565 12.7432 14.7144C11.4641 14.8133 10.1955 14.8392 8.93745 14.7921C7.1433 14.7251 5.32943 14.4842 3.66229 13.8985C2.32028 13.4274 0.874274 12.6013 0.286912 11.2424C-0.201392 10.1117 -0.035746 8.91433 0.552027 7.84935C1.12377 6.81396 2.0042 5.94751 2.96601 5.22451C4.3109 4.21338 5.83582 3.42132 7.4191 2.79121C8.36064 2.41635 9.3319 2.09164 10.3329 1.81707C12.5031 1.22135 14.7135 0.854578 16.964 0.716746C16.986 0.715376 17.004 0.706333 17.0183 0.689618C17.38 0.265846 17.9485 0.046767 18.4968 0.00895226C19.2859 -0.0453037 20.0158 0.147057 20.6863 0.586037C20.7842 0.650158 20.8668 0.741818 20.9901 0.752094C22.9281 0.914862 24.8714 1.29383 26.6364 2.09616C27.9599 2.69791 29.3303 3.68479 29.8108 5.10901C30.4882 7.11607 29.2411 8.83623 27.7474 10.0171C26.4058 11.0776 24.8003 11.8696 23.1702 12.4874C21.7834 13.0131 20.3209 13.4459 18.8272 13.7867ZM17.3323 1.01474C17.2353 1.13367 17.1664 1.25629 17.1256 1.38261C17.0828 1.51442 17.0597 1.69637 17.0561 1.92846C17.0512 2.24372 17.3964 2.4291 17.6755 2.4291C18.5716 2.43019 19.4417 2.29263 20.286 2.01642C20.4474 1.96381 20.5833 1.88654 20.6937 1.7846C20.82 1.62457 20.8564 1.47167 20.8027 1.32589C20.7651 1.22396 20.6782 1.12558 20.5421 1.03077C19.9335 0.608781 19.2742 0.417378 18.5642 0.456563C18.1014 0.482047 17.6418 0.649748 17.3323 1.01474ZM3.24962 5.73871C2.42221 6.45925 1.52 7.58834 1.77484 8.76923C1.77565 8.77271 1.77741 8.77591 1.77992 8.77845C1.78243 8.78099 1.7856 8.78278 1.78904 8.7836C1.79248 8.78441 1.79607 8.78423 1.79938 8.78307C1.80268 8.78191 1.80558 8.77982 1.80772 8.77704C2.01324 8.52193 2.30658 8.3756 2.68774 8.33806C3.13864 8.29367 3.52994 8.45356 3.93275 8.6562C4.46585 8.92419 5.02444 9.30357 5.04006 9.95917C5.04856 10.3094 4.91607 10.6138 4.6426 10.8725C4.62944 10.8845 4.63164 10.8926 4.64917 10.8967L5.23407 11.0303C5.7769 11.1311 6.33261 11.2018 6.90121 11.2424C7.00205 11.2509 7.10494 11.2577 7.20989 11.263C8.41147 11.3257 9.61359 11.3384 10.8163 11.3012C11.6041 11.2768 12.3919 11.248 13.1797 11.2149C13.2257 11.2129 13.2581 11.2343 13.2767 11.279C13.2783 11.3305 13.2459 11.3624 13.1793 11.3748C11.4146 11.7071 9.65223 11.8407 7.8922 11.7755C6.58718 11.727 5.36724 11.5737 4.14731 11.2276C4.11936 11.2198 4.06551 11.2264 4.03427 11.242C3.56734 11.4771 3.09548 11.4966 2.61869 11.3004C1.94871 10.9789 1.48835 10.3209 1.55535 9.56252C1.55946 9.51443 1.5533 9.46264 1.53192 9.41907C1.2864 8.91707 1.22173 8.39026 1.33792 7.83866C1.36148 7.72631 1.39039 7.61575 1.42464 7.50696C1.44602 7.43983 1.43615 7.43489 1.39505 7.49216C1.04156 7.98293 0.734935 8.54933 0.607516 9.13176C0.240466 10.8051 1.15254 12.055 2.5595 12.831C3.62078 13.4159 4.81441 13.7538 6.01297 13.9622C7.5868 14.2368 9.19886 14.3251 10.7924 14.2873C12.6492 14.2429 14.5399 14.0563 16.4646 13.7275C18.0619 13.4546 19.5923 13.0972 21.0558 12.6555C22.4883 12.2235 23.9433 11.6695 25.2611 10.9835C25.5759 10.8196 25.9368 10.6135 26.3437 10.3653C26.4421 10.3053 26.5375 10.2404 26.6298 10.1708C27.3009 9.74748 27.9011 9.24055 28.4305 8.65003C28.7026 8.34615 28.9317 8.01307 29.1178 7.65082C29.2652 7.36365 29.3676 7.06771 29.4248 6.763C29.6813 5.33796 28.8761 4.12829 27.756 3.33953C27.7221 3.31569 27.7171 3.32062 27.7412 3.35432C27.9459 3.63903 28.0988 3.9521 28.2 4.29353C28.2095 4.37793 28.2197 4.45465 28.2304 4.52371C28.2912 4.91912 28.2606 5.29672 28.1387 5.6565C27.8518 6.50405 27.1851 7.14854 26.4066 7.62082C26.1406 7.78221 25.876 7.91443 25.6129 8.01746C25.5551 8.0402 25.5143 8.03048 25.4904 7.98828C25.4778 7.94142 25.4963 7.89867 25.5459 7.86003C26.2463 7.31747 26.9529 6.7408 27.4478 6.00588C27.6201 5.74994 27.7332 5.47661 27.7869 5.18587C27.89 4.62523 27.7018 4.0539 27.3643 3.60218C26.8588 2.94782 26.0873 2.50144 25.326 2.18905C24.9553 2.03697 24.6593 1.93107 24.4382 1.87133C23.4213 1.59649 22.3725 1.40878 21.2918 1.30822C21.2781 1.30685 21.2718 1.31301 21.2729 1.32671C21.2838 1.46756 21.2705 1.60553 21.233 1.74062C21.125 2.00532 20.942 2.20139 20.6839 2.32881C20.6154 2.36278 20.546 2.39621 20.4759 2.4291C19.5067 2.75518 18.5509 2.90356 17.6085 2.87424C17.1786 2.86081 16.8687 2.66516 16.6788 2.28729C16.5977 2.07575 16.5763 1.86297 16.6147 1.64896L16.6874 1.28315C16.6879 1.28069 16.6877 1.27816 16.6871 1.27576C16.6864 1.27336 16.6852 1.27114 16.6835 1.26928C16.6818 1.26741 16.6798 1.26596 16.6775 1.26501C16.6751 1.26407 16.6726 1.26366 16.6702 1.26383C14.2585 1.43482 11.8969 1.87448 9.58523 2.58282C7.8511 3.11428 6.18396 3.81755 4.61341 4.74772C4.11442 5.04338 3.65982 5.37371 3.24962 5.73871ZM2.11353 9.11327C2.01022 9.32371 1.97063 9.54197 1.99474 9.76804C2.04352 10.2235 2.27548 10.5769 2.69062 10.8285C3.14932 11.1063 3.67092 10.9691 4.11566 10.6949C4.30761 10.5765 4.46092 10.4524 4.54189 10.2457C4.71124 9.7853 4.42927 9.48607 4.07579 9.25754C3.89439 9.14026 3.68298 9.02928 3.44157 8.9246C3.21194 8.82486 3.00423 8.77581 2.81845 8.77745C2.53538 8.77965 2.30041 8.89158 2.11353 9.11327Z" fill="#660000"/><path d="M20.6938 1.7842C20.5897 1.61596 20.4412 1.46936 20.2482 1.3444C19.6353 0.946799 18.9746 0.761836 18.2663 0.789512C17.9643 0.801295 17.653 0.876239 17.3324 1.01435C17.6419 0.649351 18.1014 0.48165 18.5643 0.456166C19.2742 0.416981 19.9335 0.608384 20.5421 1.03037C20.6783 1.12519 20.7652 1.22356 20.8027 1.32549C20.8564 1.47127 20.8201 1.62418 20.6938 1.7842Z" fill="#C49AA7"/><path d="M20.6938 1.7845C20.5834 1.88644 20.4475 1.96371 20.2861 2.01632C19.4418 2.29254 18.5717 2.43009 17.6756 2.429C17.3965 2.429 17.0513 2.24362 17.0562 1.92836C17.0598 1.69627 17.0829 1.51432 17.1257 1.38252C17.1665 1.25619 17.2354 1.13357 17.3324 1.01464C17.653 0.876538 17.9643 0.801594 18.2663 0.789811C18.9746 0.762135 19.6353 0.947098 20.2483 1.3447C20.4412 1.46965 20.5897 1.61625 20.6938 1.7845Z" fill="#78223D"/><path d="M16.6146 1.64884C16.0613 1.67761 15.5671 1.71735 15.132 1.76804C14.6544 1.82394 14.0811 1.90587 13.4122 2.01384C13.3002 2.03165 13.0325 2.07631 12.6091 2.14783C11.9868 2.25306 11.1706 2.43912 10.1606 2.70601C9.98988 2.75068 9.70038 2.8322 9.29209 2.95057C9.19234 2.97962 9.10808 3.01058 9.0393 3.04347C8.77871 3.14074 8.51017 3.23186 8.23368 3.3168C8.08078 3.36366 7.93528 3.42531 7.78073 3.47751C7.66701 3.51615 7.55535 3.55698 7.44574 3.6C6.69136 3.89649 6.02865 4.18887 5.45759 4.47714C5.03478 4.6906 4.6358 4.90571 4.26067 5.12246C3.99487 5.27591 3.73058 5.44238 3.46779 5.62186C3.41107 5.66091 3.35764 5.72051 3.2968 5.76202C3.28502 5.77024 3.27283 5.77079 3.26022 5.76366C3.25063 5.75818 3.24707 5.74983 3.24954 5.73859C3.65974 5.3736 4.11434 5.04326 4.61333 4.7476C6.18388 3.81744 7.85102 3.11416 9.58515 2.5827C11.8968 1.87436 14.2584 1.4347 16.6701 1.26371C16.6726 1.26354 16.6751 1.26395 16.6774 1.26489C16.6797 1.26584 16.6817 1.2673 16.6834 1.26916C16.6851 1.27102 16.6863 1.27324 16.687 1.27564C16.6877 1.27804 16.6878 1.28057 16.6873 1.28303L16.6146 1.64884Z" fill="#FFCC81"/><path d="M27.3642 3.60274C27.3629 3.6285 27.349 3.64096 27.3227 3.64014C27.3082 3.63987 27.2951 3.63494 27.2833 3.62535C27.1249 3.49546 26.9401 3.37325 26.7288 3.25871C26.3035 3.02771 25.8766 2.83562 25.448 2.68244C25.4286 2.67559 25.3949 2.65723 25.3469 2.62737L24.2951 2.29566C24.1545 2.26525 24.0043 2.23017 23.8446 2.19044C22.9864 1.97725 22.1158 1.8275 21.2329 1.74118C21.2705 1.60609 21.2837 1.46812 21.2728 1.32728C21.2717 1.31358 21.278 1.30741 21.2917 1.30878C22.3724 1.40935 23.4212 1.59705 24.4381 1.87189C24.6593 1.93163 24.9552 2.03754 25.3259 2.18962C26.0872 2.502 26.8587 2.94838 27.3642 3.60274Z" fill="#FFCC81"/><path d="M16.6147 1.64844C16.5763 1.86245 16.5977 2.07522 16.6788 2.28677C16.6528 2.38487 16.6128 2.48557 16.5588 2.58887C16.5018 2.69793 16.4667 2.77767 16.4536 2.82809C16.4319 2.90948 16.4256 2.99867 16.4347 3.09567C16.4659 3.4319 16.9106 3.59549 17.2 3.62631C17.4691 3.65481 17.7289 3.65235 17.9793 3.61892C18.7377 3.51739 19.4602 3.23583 20.0817 2.77589C20.2226 2.67149 20.354 2.55572 20.4759 2.42857C20.5461 2.39569 20.6154 2.36226 20.6839 2.32828C20.942 2.20086 21.1251 2.0048 21.233 1.7401C22.1159 1.82641 22.9865 1.97617 23.8447 2.18935C24.0045 2.22909 24.1546 2.26416 24.2952 2.29458C24.0039 2.43816 23.7103 2.59203 23.4144 2.75616C23.3358 2.79973 23.2524 2.81823 23.1649 2.81617C22.4486 2.80055 21.769 2.79507 21.1262 2.79973C21.1098 2.79985 21.0937 2.80381 21.0792 2.81131C21.0646 2.8188 21.052 2.82962 21.0423 2.84289L20.4936 3.5959C20.4728 3.62432 20.4415 3.64338 20.4064 3.64892L19.4487 3.79525C19.4258 3.79873 19.4047 3.80941 19.3883 3.82574C19.3718 3.84207 19.3611 3.86321 19.3575 3.88608C19.3474 3.95048 19.3772 3.98925 19.4471 4.00241C19.7619 4.06132 20.0712 4.11037 20.3748 4.14955C20.3987 4.15265 20.423 4.15049 20.446 4.14325C20.4689 4.13601 20.4899 4.12385 20.5076 4.10763C20.7402 3.89472 20.9938 3.66824 21.2684 3.4282C21.3732 3.33654 21.5018 3.33571 21.6362 3.32544C22.1489 3.28735 22.6355 3.24913 23.0958 3.21076C23.3169 3.19227 23.543 3.17541 23.7498 3.11623C24.2838 2.9636 24.809 2.81576 25.3252 2.67272C25.334 2.67026 25.3409 2.66505 25.3458 2.65711C25.3524 2.64669 25.3528 2.63642 25.347 2.62628C25.395 2.65615 25.4287 2.67451 25.4481 2.68136C25.8767 2.83453 26.3036 3.02662 26.7289 3.25762C26.9402 3.37216 27.125 3.49437 27.2834 3.62426C27.2952 3.63385 27.3083 3.63878 27.3228 3.63906C27.3491 3.63988 27.363 3.62741 27.3644 3.60165C27.7018 4.05337 27.8901 4.6247 27.7869 5.18535C27.7332 5.47608 27.6202 5.74942 27.4478 6.00535C26.9529 6.74028 26.2464 7.31695 25.546 7.85951C25.4964 7.89815 25.4779 7.9409 25.4905 7.98775C24.5114 8.47222 23.5077 8.90024 22.4793 9.27181C22.4193 9.29318 22.3605 9.30291 22.3029 9.30099C21.7472 9.40238 21.1862 9.52473 20.6198 9.66804C20.6392 9.52007 20.6603 9.3784 20.6831 9.24304C20.7192 9.03095 20.5803 8.87064 20.3875 8.77529C20.2207 8.69253 20.0609 8.61197 19.9083 8.5336C19.7887 8.47195 19.6464 8.44153 19.5108 8.44482C19.2423 8.45222 18.975 8.4614 18.7089 8.47236C18.6626 8.47427 18.6333 8.49537 18.6209 8.53566C18.6182 8.54489 18.6173 8.55459 18.6183 8.56416C18.6194 8.57374 18.6223 8.583 18.627 8.59139C18.6317 8.59979 18.638 8.60715 18.6456 8.61304C18.6531 8.61893 18.6618 8.62322 18.6711 8.62567C18.8081 8.66239 18.9487 8.7013 19.0928 8.7424C19.3423 8.81351 19.5075 9.03876 19.667 9.22783C19.7656 9.34484 19.801 9.47061 19.773 9.60515C19.7504 9.71284 19.6625 9.83533 19.6033 9.94302C19.2246 10.0518 18.8526 10.1836 18.4873 10.3384C18.4416 10.3579 18.4176 10.4001 18.4154 10.465C17.5037 10.6563 16.6335 10.8188 15.8045 10.9525C15.5763 10.9892 15.3221 11.025 15.0421 11.0598C14.8215 11.0872 14.5669 11.121 14.2784 11.1613C13.9449 11.2076 13.611 11.2467 13.2767 11.2785C13.2581 11.2338 13.2257 11.2124 13.1797 11.2143C12.3919 11.2475 11.6041 11.2763 10.8163 11.3007C9.61361 11.3379 8.41149 11.3252 7.20991 11.2624C7.10496 11.2572 7.00207 11.2504 6.90123 11.2419L7.09606 10.4876C7.10592 10.4495 7.13058 10.4295 7.17004 10.4276L8.93624 10.3351C8.94297 10.3348 8.94958 10.3332 8.95566 10.3303C8.96173 10.3273 8.96716 10.3232 8.97161 10.3182C8.97606 10.3131 8.97945 10.3072 8.98156 10.3008C8.98367 10.2944 8.98448 10.2876 8.98392 10.2809L8.87294 8.99642C8.87242 8.98955 8.87445 8.98275 8.87864 8.97735C8.88282 8.97195 8.88885 8.96834 8.89555 8.96724L9.84009 8.81392C9.84804 8.81261 9.85618 8.81331 9.86378 8.81597C9.87139 8.81862 9.8782 8.82315 9.8836 8.82912C9.889 8.83509 9.89281 8.84232 9.89469 8.85015C9.89657 8.85798 9.89645 8.86616 9.89435 8.87393L9.87709 8.93723C9.74693 9.41951 9.90599 9.74737 10.3543 9.92083C10.69 10.0504 11.0719 10.0924 11.5002 10.0466C11.6066 10.0354 11.7277 10.0119 11.8636 9.97632C12.0061 9.93878 12.1265 9.90096 12.2249 9.86287C12.8012 9.64037 13.2627 9.27181 13.6096 8.7572C13.799 8.58977 13.9131 8.39892 13.952 8.18464C14.049 7.65071 13.7445 7.29928 13.3182 6.99388C12.6162 6.49037 11.5401 6.21745 10.7694 6.73082C10.3713 6.99607 10.1422 7.37491 10.0822 7.86732C10.0671 7.99282 10.0597 8.08928 10.06 8.15669L8.58398 8.67664C8.57122 8.68115 8.55955 8.68836 8.54977 8.69779C8.53999 8.70722 8.53231 8.71865 8.52726 8.73131L8.18611 9.58255C8.18035 9.59685 8.17133 9.60961 8.15977 9.61982C8.14821 9.63002 8.13443 9.63739 8.11952 9.64133L6.77586 9.99687C6.71306 10.0135 6.65379 10.0409 6.60077 10.0778L5.23409 11.0298L4.64919 10.8962C4.63166 10.8921 4.62947 10.884 4.64262 10.8719C4.91609 10.6133 5.04858 10.3088 5.04008 9.95864C5.02447 9.30305 4.46588 8.92367 3.93277 8.65568C3.52996 8.45304 3.13866 8.29315 2.68776 8.33754C2.3066 8.37508 2.01326 8.52141 1.80774 8.77652C1.8056 8.7793 1.8027 8.78139 1.7994 8.78255C1.79609 8.78371 1.79251 8.78389 1.78906 8.78307C1.78562 8.78225 1.78245 8.78047 1.77994 8.77793C1.77743 8.77538 1.77567 8.77219 1.77486 8.76871C1.52002 7.58782 2.42223 6.45872 3.24964 5.73819C3.24717 5.74942 3.25073 5.75778 3.26033 5.76326C3.27293 5.77038 3.28512 5.76983 3.29691 5.76161C3.35774 5.7201 3.41117 5.6605 3.46789 5.62145C3.73068 5.44197 3.99497 5.2755 4.26077 5.12205C4.63591 4.9053 5.03488 4.6902 5.45769 4.47673C6.02875 4.18847 6.69147 3.89609 7.44584 3.5996C7.55545 3.55658 7.66711 3.51575 7.78083 3.47711C7.93538 3.42491 8.08088 3.36325 8.23379 3.3164C8.51027 3.23145 8.77881 3.14034 9.03941 3.04306C9.38056 3.22063 9.71774 3.39778 10.051 3.57452C10.0953 3.59809 10.1403 3.60809 10.1858 3.60453C10.7672 3.55822 11.3027 3.51629 11.7921 3.47875C11.809 3.47752 11.826 3.48069 11.8413 3.48797C11.8567 3.49524 11.8699 3.50637 11.8796 3.52027C12.0983 3.83293 12.3091 4.13736 12.5122 4.43358C12.5414 4.47591 12.6071 4.52935 12.6556 4.48167C12.6861 4.45207 12.6943 4.41645 12.6803 4.3748C12.5869 4.09667 12.4932 3.80758 12.3992 3.50753C12.3005 3.19186 12.0757 3.08869 11.7493 3.09526C11.4622 3.10102 11.1618 3.09513 10.8483 3.07759C10.8215 3.07624 10.7957 3.06725 10.774 3.05169C10.6232 2.94428 10.4764 2.83905 10.3333 2.73602C10.2807 2.69821 10.2223 2.69697 10.1607 2.70561C11.1707 2.43871 11.9869 2.25265 12.6092 2.14743C13.0326 2.07591 13.3003 2.03124 13.4124 2.01343C14.0812 1.90547 14.6545 1.82354 15.1321 1.76764C15.5672 1.71694 16.0614 1.67721 16.6147 1.64844ZM14.5209 5.26961C14.5064 5.33044 14.4835 5.391 14.4523 5.45129C14.409 5.53459 14.3833 5.59309 14.3754 5.6268C14.334 5.79888 14.3677 5.93754 14.4765 6.04276C14.668 6.22731 14.9837 6.23841 15.2386 6.21375C15.5118 6.18689 15.7714 6.09441 16.0175 5.9363C16.1531 5.84916 16.2694 5.71476 16.3812 5.59186C16.4426 5.52418 16.4858 5.44512 16.5107 5.3547C16.8325 4.86023 16.6521 4.39864 16.1905 4.10927C15.7762 3.8495 15.2928 3.63453 14.8251 3.84498C14.2652 4.09653 14.2447 4.79364 14.5209 5.26961ZM20.4142 6.93141C20.3825 7.00786 20.3479 7.0828 20.3107 7.15624C20.2391 7.29681 20.1964 7.41437 20.1976 7.57919C20.2038 8.22368 21.2318 8.22368 21.6572 8.18011C22.6297 8.08065 23.626 7.64002 24.2948 6.92853C24.4896 6.72109 24.6583 6.45708 24.8008 6.13647C24.8904 6.06249 24.9472 6.01399 24.9713 5.99097C25.2878 5.68763 25.1801 5.19932 24.8904 4.90133C24.4271 4.42453 23.6939 4.20504 23.0321 4.2371C22.0411 4.2852 21.1409 4.7661 20.607 5.61446C20.5415 5.71832 20.4856 5.8182 20.4393 5.91411C20.2755 6.25252 20.2671 6.59162 20.4142 6.93141ZM5.64594 5.51294C5.54072 5.62885 5.46208 5.76983 5.41001 5.93589C5.40563 5.94932 5.40467 5.96302 5.40713 5.97699C5.41097 5.99919 5.40522 6.01796 5.38987 6.0333C5.38163 6.04154 5.37654 6.0523 5.37549 6.06372C5.37 6.11496 5.3663 6.16333 5.36439 6.20882C5.36274 6.24773 5.35274 6.2902 5.33438 6.33623C5.29876 6.42666 5.27341 6.52216 5.25834 6.62272C5.23752 6.76384 5.24327 6.8951 5.27561 7.01649C5.34014 7.26023 5.57977 7.46451 5.81447 7.54548C5.96764 7.5981 6.07396 7.62783 6.13342 7.63468C7.06852 7.73908 7.98922 7.26393 8.4167 6.41638C8.49589 6.25937 8.56384 6.09345 8.62057 5.91863C8.86061 5.70201 8.86677 5.34483 8.65304 5.09698C8.29914 4.68677 7.69698 4.53469 7.16881 4.59552C6.5213 4.6706 6.01368 4.97641 5.64594 5.51294ZM16.352 6.2939C16.5822 6.50023 16.8208 6.69342 17.0676 6.87345C17.0912 6.89071 17.1182 6.90044 17.1486 6.90263C17.32 6.91496 17.5033 6.9236 17.6793 6.91825C17.8374 6.91332 17.9841 6.9236 18.1195 6.94908C18.3516 6.99292 18.5893 7.04252 18.8326 7.09787C18.8466 7.10116 18.8582 7.09773 18.8675 7.0876C18.8704 7.08459 18.8725 7.08105 18.8739 7.07718C18.8754 7.07331 18.876 7.06919 18.8757 7.06508C18.8755 7.06097 18.8744 7.05694 18.8726 7.05325C18.8708 7.04956 18.8682 7.04629 18.8651 7.04362C18.6735 6.87866 18.499 6.7263 18.3414 6.58655C18.311 6.55942 18.2751 6.5438 18.2337 6.53969C17.9181 6.50846 17.6187 6.49133 17.3356 6.48832C17.2242 6.48708 17.1182 6.46365 17.0159 6.42748C16.7879 6.34665 16.5482 6.26883 16.297 6.19402C16.2926 6.19265 16.2879 6.19262 16.2835 6.19393C16.2792 6.19523 16.2753 6.19781 16.2723 6.20134C16.2694 6.20487 16.2676 6.20919 16.2672 6.21374C16.2667 6.21829 16.2677 6.22287 16.2698 6.2269C16.2883 6.26184 16.3237 6.26841 16.352 6.2939Z" fill="#FFA841"/><path d="M16.6788 2.28711C16.8687 2.66498 17.1786 2.86063 17.6086 2.87406C18.5509 2.90338 19.5067 2.755 20.4759 2.42892C20.354 2.55606 20.2226 2.67183 20.0817 2.77623C19.4603 3.23618 18.7377 3.51773 17.9793 3.61926C17.7289 3.65269 17.4691 3.65515 17.2 3.62666C16.9106 3.59583 16.4659 3.43224 16.4347 3.09602C16.4256 2.99901 16.4319 2.90982 16.4536 2.82844C16.4667 2.77802 16.5018 2.69828 16.5588 2.58922C16.6128 2.48591 16.6528 2.38521 16.6788 2.28711Z" fill="#D1742E"/><path d="M24.2951 2.29492L25.3469 2.62662C25.3527 2.63676 25.3523 2.64704 25.3457 2.65745C25.3408 2.6654 25.3339 2.6706 25.3251 2.67307C24.8089 2.81611 24.2837 2.96394 23.7497 3.11657C23.5429 3.17576 23.3168 3.19261 23.0957 3.21111C22.6354 3.24947 22.1488 3.2877 21.6361 3.32578C21.5017 3.33606 21.3731 3.33688 21.2683 3.42854C20.9937 3.66858 20.7401 3.89506 20.5075 4.10797C20.4898 4.12419 20.4688 4.13635 20.4459 4.1436C20.4229 4.15084 20.3986 4.15299 20.3747 4.1499C20.0711 4.11072 19.7618 4.06167 19.447 4.00275C19.3771 3.9896 19.3473 3.95082 19.3574 3.88643C19.361 3.86356 19.3718 3.84242 19.3882 3.82608C19.4046 3.80975 19.4258 3.79907 19.4486 3.79559L20.4063 3.64927C20.4414 3.64373 20.4727 3.62467 20.4935 3.59624L21.0422 2.84324C21.0519 2.82997 21.0645 2.81915 21.0791 2.81165C21.0936 2.80416 21.1097 2.80019 21.1261 2.80008C21.7689 2.79542 22.4485 2.8009 23.1648 2.81652C23.2523 2.81857 23.3358 2.80008 23.4143 2.75651C23.7102 2.59237 24.0038 2.43851 24.2951 2.29492Z" fill="#F06A21"/><path d="M10.1606 2.70556C10.2222 2.69693 10.2806 2.69816 10.3332 2.73598C10.4763 2.83901 10.6231 2.94423 10.7739 3.05165C10.7956 3.0672 10.8214 3.07619 10.8482 3.07754C11.1617 3.09508 11.4621 3.10097 11.7492 3.09522C12.0756 3.08864 12.3004 3.19181 12.3991 3.50748C12.4931 3.80753 12.5868 4.09662 12.6802 4.37475C12.6942 4.4164 12.686 4.45203 12.6555 4.48162C12.607 4.5293 12.5413 4.47587 12.5121 4.43353C12.309 4.13731 12.0982 3.83288 11.8795 3.52022C11.8698 3.50632 11.8566 3.49519 11.8412 3.48792C11.8259 3.48064 11.8089 3.47747 11.792 3.47871C11.3026 3.51625 10.7671 3.55817 10.1857 3.60448C10.1402 3.60804 10.0952 3.59804 10.0509 3.57448C9.71764 3.39773 9.38046 3.22058 9.03931 3.04301C9.10809 3.01013 9.19235 2.97917 9.29209 2.95012C9.70038 2.83175 9.98988 2.75022 10.1606 2.70556Z" fill="#F06A21"/><path d="M29.4248 6.7625C29.393 6.7203 29.3796 6.66605 29.3845 6.59973C29.3903 6.52136 29.3909 6.46779 29.3866 6.43902C29.3002 5.85974 29.0705 5.32787 28.6973 4.8434C28.5257 4.6209 28.3599 4.43744 28.1999 4.29303C28.0988 3.9516 27.9459 3.63854 27.7412 3.35383C27.7171 3.32013 27.722 3.31519 27.756 3.33903C28.8761 4.1278 29.6813 5.33746 29.4248 6.7625Z" fill="#FFCC81"/><path d="M16.5107 5.35456C16.2992 5.57816 16.0568 5.7238 15.7836 5.79149C15.535 5.85314 15.3017 5.84108 15.0836 5.75532C14.8523 5.66462 14.6648 5.50267 14.5209 5.26948C14.2447 4.79351 14.2652 4.0964 14.8251 3.84485C15.2928 3.6344 15.7762 3.84937 16.1905 4.10914C16.6521 4.39851 16.8325 4.86009 16.5107 5.35456ZM14.8103 4.52551C14.7829 4.68006 14.7992 4.82283 14.8592 4.95381C14.9299 5.10808 15.05 5.23166 15.2197 5.32456C15.3736 5.40895 15.5367 5.41896 15.7088 5.35456C15.8514 5.30154 16.0265 5.20906 16.1325 5.10589C16.1775 5.06205 16.206 5.00423 16.218 4.93243C16.2391 4.80173 16.2054 4.69774 16.1169 4.62046C15.9585 4.48236 15.7567 4.36439 15.5115 4.26657C15.2509 4.16258 14.8695 4.17819 14.8103 4.52551Z" fill="#660000"/><path d="M16.2181 4.93307C15.9243 4.69084 15.6244 4.53506 15.3183 4.46573C15.1753 4.43312 15.006 4.45326 14.8103 4.52615C14.8695 4.17883 15.2509 4.16321 15.5115 4.2672C15.7568 4.36503 15.9586 4.483 16.117 4.6211C16.2055 4.69837 16.2392 4.80237 16.2181 4.93307Z" fill="#C49AA7"/><path d="M24.8006 6.13681C24.6661 6.20531 24.535 6.24765 24.4073 6.26382C24.2659 6.2819 24.1805 6.29642 24.1512 6.30738C23.9202 6.39493 23.7607 6.60538 23.6633 6.83145C23.5511 7.09286 23.2256 7.24494 22.9711 7.3403C22.5785 7.48773 22.1698 7.56979 21.745 7.58651C21.184 7.60829 20.6727 7.47759 20.4141 6.93174C20.267 6.59195 20.2753 6.25285 20.4392 5.91444C20.4855 5.81853 20.5414 5.71865 20.6069 5.6148C21.1408 4.76643 22.041 4.28553 23.032 4.23744C23.6937 4.20538 24.427 4.42487 24.8902 4.90166C25.18 5.19966 25.2877 5.68796 24.9712 5.9913C24.9471 6.01432 24.8902 6.06282 24.8006 6.13681ZM20.7651 6.45371C20.7487 6.49235 20.7499 6.53482 20.7688 6.58113C20.7979 6.6521 20.8131 6.68978 20.8145 6.69416C20.8627 6.84104 20.9486 6.95119 21.0722 7.02463C21.159 7.07615 21.2869 7.10848 21.4557 7.12163C22.0437 7.1674 22.6019 7.05203 23.1302 6.77555C23.1787 6.75006 23.2145 6.71362 23.2375 6.66621C23.4237 6.28272 23.6604 5.98267 24.0797 5.85607C24.2667 5.79935 24.5133 5.84004 24.6551 5.67604C24.7045 5.61932 24.7224 5.5515 24.709 5.47258C24.6646 5.31146 24.5607 5.17541 24.3974 5.06443C24.107 4.86768 23.8107 4.75013 23.5088 4.71177C22.7733 4.61778 22.1203 4.79178 21.5498 5.23377C21.2133 5.49437 20.9597 5.831 20.789 6.24368C20.7632 6.30643 20.7553 6.37644 20.7651 6.45371Z" fill="#660000"/><path d="M28.1999 4.29297C28.36 4.43738 28.5258 4.62083 28.6973 4.84334C29.0705 5.32781 29.3003 5.85968 29.3866 6.43896C29.391 6.46773 29.3903 6.5213 29.3845 6.59967C29.3796 6.66598 29.393 6.72024 29.4248 6.76244C29.3675 7.06715 29.2652 7.36309 29.1178 7.65026C28.9317 8.01252 28.7026 8.34559 28.4305 8.64948C27.9011 9.23999 27.3009 9.74693 26.6298 10.1703C26.5777 10.1843 26.5258 10.2041 26.474 10.2299C26.1384 10.3965 25.8114 10.551 25.4933 10.6935C24.668 11.0637 23.83 11.3861 22.9794 11.6607C21.8771 12.0166 20.7989 12.3257 19.704 12.5596C19.071 12.6947 18.4306 12.8223 17.7828 12.9423C17.4762 12.9994 17.1568 13.0261 16.851 13.0779C16.1668 13.1941 15.4434 13.2878 14.6808 13.3591C14.4141 13.3837 14.1496 13.4077 13.8871 13.431C13.7024 13.4472 13.5127 13.4596 13.3182 13.4684C13.1294 13.4769 12.9399 13.4863 12.7497 13.4968C10.9289 13.5958 9.04677 13.5214 7.23166 13.2201C6.41755 13.085 5.63111 12.8836 4.87235 12.6159C4.05686 12.3286 3.22946 11.9057 2.58291 11.3261C2.58045 11.3238 2.57877 11.3208 2.57809 11.3174C2.57742 11.3141 2.57777 11.3107 2.57912 11.3076C2.58047 11.3045 2.58274 11.3019 2.58563 11.3001C2.58851 11.2984 2.59187 11.2975 2.59524 11.2977L2.61867 11.2998C3.09547 11.496 3.56733 11.4765 4.03426 11.2414C4.0655 11.2258 4.11934 11.2192 4.14729 11.227C5.36723 11.5731 6.58716 11.7264 7.89218 11.7749C9.65221 11.8402 11.4146 11.7066 13.1793 11.3742C13.2458 11.3619 13.2783 11.3299 13.2767 11.2784C13.611 11.2466 13.9449 11.2076 14.2784 11.1613C14.5669 11.121 14.8215 11.0872 15.042 11.0598C15.3221 11.025 15.5763 10.9892 15.8045 10.9525C16.6334 10.8188 17.5037 10.6563 18.4154 10.465C18.6628 10.4992 18.9488 10.4884 19.2732 10.4325C20.3528 10.2465 21.3519 9.93148 22.2704 9.48757C22.3132 9.46701 22.3421 9.44605 22.3572 9.42468C22.39 9.37727 22.3719 9.33603 22.3029 9.30096C22.3604 9.30288 22.4192 9.29315 22.4792 9.27178C23.5076 8.9002 24.5114 8.47219 25.4904 7.98772C25.5143 8.02992 25.5551 8.03964 25.6129 8.0169C25.876 7.91387 26.1405 7.78165 26.4066 7.62026C27.1851 7.14798 27.8518 6.50349 28.1387 5.65594C28.2606 5.29616 28.2912 4.91856 28.2304 4.52315C28.2197 4.45409 28.2095 4.37737 28.1999 4.29297Z" fill="#F06A21"/><path d="M16.218 4.93363C16.206 5.00542 16.1775 5.06324 16.1325 5.10709C16.0265 5.21025 15.8514 5.30274 15.7088 5.35576C15.5367 5.42015 15.3736 5.41015 15.2196 5.32575C15.05 5.23286 14.9299 5.10928 14.8592 4.95501C14.7992 4.82402 14.7828 4.68126 14.8102 4.52671C15.0059 4.45382 15.1752 4.43368 15.3183 4.46629C15.6244 4.53562 15.9243 4.6914 16.218 4.93363Z" fill="#78223D"/><path d="M8.62059 5.92C8.50085 6.02193 8.37658 6.07619 8.24779 6.08276C7.9576 6.09756 7.88814 6.2591 7.77182 6.47448C7.71797 6.57436 7.61316 6.6467 7.51451 6.69972C7.19144 6.87345 6.82316 6.96305 6.40966 6.96853C6.15729 6.97182 5.95931 6.92907 5.81573 6.84029C5.47786 6.63108 5.35619 6.26033 5.46635 5.88711C5.48471 5.82491 5.51252 5.76052 5.54979 5.69393C5.58349 5.63447 5.61555 5.57459 5.64597 5.51431C6.0137 4.97778 6.52133 4.67197 7.16884 4.59689C7.69701 4.53606 8.29917 4.68814 8.65306 5.09835C8.8668 5.3462 8.86064 5.70338 8.62059 5.92ZM5.90903 5.97507C5.82984 6.11071 5.84669 6.24334 5.95959 6.37295C5.97493 6.39049 6.0111 6.41666 6.0681 6.45146C6.10728 6.4753 6.14839 6.49064 6.19141 6.49749C6.54654 6.5538 6.96127 6.46626 7.2757 6.32322C7.40641 6.26403 7.44381 6.12017 7.51986 6.01124C7.68454 5.77504 7.90979 5.65146 8.19559 5.6405C8.24299 5.63858 8.29218 5.61227 8.34315 5.56158C8.37411 5.48047 8.34082 5.40086 8.24327 5.32277C7.93253 5.0741 7.57658 4.99559 7.17623 5.04656C6.60819 5.11945 6.18579 5.42895 5.90903 5.97507Z" fill="#660000"/><path d="M24.7092 5.47304C24.3825 5.22944 24.04 5.07886 23.6816 5.02132C22.9439 4.90294 22.2597 5.05461 21.6289 5.47633C21.2869 5.70486 20.9991 6.03081 20.7653 6.45417C20.7555 6.37689 20.7634 6.30688 20.7892 6.24413C20.9599 5.83146 21.2135 5.49482 21.55 5.23423C22.1205 4.79224 22.7735 4.61823 23.509 4.71222C23.8109 4.75059 24.1071 4.86814 24.3976 5.06489C24.5609 5.17587 24.6648 5.31192 24.7092 5.47304Z" fill="#C49AA7"/><path d="M24.709 5.47306C24.7224 5.55198 24.7044 5.6198 24.6551 5.67652C24.5133 5.84052 24.2667 5.79983 24.0797 5.85655C23.6604 5.98315 23.4237 6.2832 23.2375 6.66669C23.2145 6.7141 23.1787 6.75054 23.1302 6.77603C22.6019 7.05251 22.0437 7.16788 21.4557 7.12211C21.2869 7.10896 21.159 7.07663 21.0722 7.02511C20.9486 6.95167 20.8627 6.84152 20.8145 6.69464C20.8131 6.69026 20.7979 6.65258 20.7688 6.58161C20.7499 6.5353 20.7487 6.49283 20.7651 6.45419C20.9989 6.03083 21.2867 5.70488 21.6287 5.47635C22.2595 5.05463 22.9437 4.90296 23.6814 5.02134C24.0398 5.07888 24.3823 5.22946 24.709 5.47306Z" fill="#78223D"/><path d="M8.34306 5.56102C8.09671 5.39277 7.84215 5.29755 7.57936 5.27536C6.92582 5.22055 6.36902 5.45361 5.90894 5.97452C6.1857 5.4284 6.6081 5.11889 7.17614 5.046C7.57648 4.99503 7.93244 5.07354 8.24318 5.32221C8.34073 5.40031 8.37402 5.47991 8.34306 5.56102Z" fill="#C49AA7"/><path d="M8.3432 5.56107C8.29223 5.61176 8.24304 5.63807 8.19564 5.63999C7.90984 5.65095 7.68459 5.77453 7.51991 6.01074C7.44387 6.11966 7.40646 6.26352 7.27575 6.32271C6.96132 6.46575 6.54659 6.5533 6.19146 6.49698C6.14844 6.49013 6.10733 6.47479 6.06815 6.45095C6.01115 6.41615 5.97498 6.38998 5.95964 6.37244C5.84674 6.24283 5.82989 6.11021 5.90908 5.97457C6.36916 5.45365 6.92597 5.2206 7.57951 5.2754C7.84229 5.2976 8.09686 5.39282 8.3432 5.56107Z" fill="#78223D"/><path d="M14.5208 5.26953C14.6646 5.50272 14.8522 5.66467 15.0835 5.75537C15.3016 5.84114 15.5349 5.85319 15.7834 5.79154C16.0566 5.72386 16.299 5.57822 16.5106 5.35461C16.4856 5.44504 16.4425 5.5241 16.3811 5.59178C16.2693 5.71468 16.153 5.84908 16.0173 5.93622C15.7712 6.09433 15.5116 6.18681 15.2384 6.21367C14.9836 6.23833 14.6679 6.22723 14.4764 6.04268C14.3676 5.93745 14.3339 5.7988 14.3753 5.62672C14.3832 5.59301 14.4088 5.53451 14.4521 5.45121C14.4834 5.39092 14.5062 5.33036 14.5208 5.26953Z" fill="#D1742E"/><path d="M5.64593 5.51367C5.61552 5.57396 5.58346 5.63383 5.54975 5.69329C5.51248 5.75988 5.48467 5.82427 5.46631 5.88648C5.35616 6.25969 5.47782 6.63044 5.81569 6.83966C5.95927 6.92844 6.15725 6.97118 6.40963 6.9679C6.82312 6.96242 7.1914 6.87281 7.51447 6.69908C7.61312 6.64606 7.71793 6.57372 7.77178 6.47384C7.8881 6.25846 7.95757 6.09692 8.24775 6.08213C8.37654 6.07555 8.50081 6.02129 8.62056 5.91936C8.56383 6.09418 8.49588 6.2601 8.41668 6.41712C7.98921 7.26466 7.06851 7.73981 6.13341 7.63541C6.07395 7.62856 5.96763 7.59883 5.81445 7.54622C5.57976 7.46524 5.34013 7.26096 5.2756 7.01722C5.24326 6.89583 5.23751 6.76457 5.25833 6.62345C5.2734 6.52289 5.29875 6.42739 5.33437 6.33696C5.35273 6.29093 5.36273 6.24846 5.36438 6.20955C5.36629 6.16406 5.36999 6.11569 5.37548 6.06445C5.37653 6.05304 5.38162 6.04227 5.38986 6.03404C5.40521 6.01869 5.41096 5.99992 5.40712 5.97773C5.40466 5.96375 5.40562 5.95005 5.41 5.93662C5.46207 5.77057 5.54071 5.62958 5.64593 5.51367Z" fill="#D1742E"/><path d="M24.8008 6.13672C24.6583 6.45732 24.4896 6.72134 24.2948 6.92877C23.6261 7.64027 22.6297 8.08089 21.6572 8.18036C21.2318 8.22393 20.2038 8.22393 20.1977 7.57943C20.1964 7.41461 20.2392 7.29706 20.3107 7.15648C20.348 7.08305 20.3825 7.0081 20.4143 6.93165C20.6728 7.4775 21.1841 7.60821 21.7452 7.58642C22.1699 7.56971 22.5786 7.48764 22.9713 7.34021C23.2257 7.24486 23.5513 7.09277 23.6635 6.83136C23.7609 6.60529 23.9204 6.39485 24.1514 6.3073C24.1807 6.29634 24.266 6.28181 24.4074 6.26373C24.5351 6.24756 24.6662 6.20522 24.8008 6.13672Z" fill="#D1742E"/><path d="M16.352 6.29429C16.3237 6.2688 16.2883 6.26222 16.2698 6.22729C16.2677 6.22326 16.2668 6.21868 16.2672 6.21413C16.2676 6.20957 16.2694 6.20526 16.2724 6.20173C16.2753 6.1982 16.2792 6.19562 16.2835 6.19432C16.2879 6.19301 16.2926 6.19304 16.297 6.19441C16.5482 6.26921 16.7879 6.34703 17.0159 6.42787C17.1182 6.46404 17.2243 6.48747 17.3356 6.4887C17.6187 6.49172 17.9181 6.50884 18.2337 6.54008C18.2751 6.54419 18.311 6.55981 18.3414 6.58694C18.499 6.72669 18.6735 6.87904 18.8651 7.044C18.8682 7.04667 18.8708 7.04995 18.8726 7.05364C18.8744 7.05733 18.8755 7.06135 18.8757 7.06547C18.876 7.06958 18.8754 7.07369 18.874 7.07757C18.8725 7.08144 18.8704 7.08498 18.8675 7.08798C18.8582 7.09812 18.8466 7.10155 18.8326 7.09826C18.5893 7.04291 18.3516 6.99331 18.1195 6.94947C17.9841 6.92398 17.8374 6.91371 17.6793 6.91864C17.5033 6.92398 17.32 6.91535 17.1486 6.90302C17.1182 6.90083 17.0912 6.8911 17.0677 6.87384C16.8208 6.69381 16.5822 6.50062 16.352 6.29429Z" fill="#F06A21"/><path d="M13.6097 8.75855C13.5609 8.7854 13.5146 8.81212 13.4708 8.8387C13.4256 8.86582 13.3795 8.88939 13.3327 8.90939C12.6598 9.19917 11.9179 9.30357 11.1624 9.30809C10.6495 9.31097 10.2775 9.09929 10.0897 8.60688L10.0601 8.15803C10.0598 8.09062 10.0672 7.99417 10.0823 7.86867C10.1423 7.37625 10.3714 6.99742 10.7695 6.73217C11.5402 6.21879 12.6163 6.49172 13.3183 6.99523C13.7445 7.30062 14.0491 7.65205 13.9521 8.18598C13.9132 8.40026 13.7991 8.59112 13.6097 8.75855ZM10.7194 7.39927C10.6624 7.4675 10.6151 7.57451 10.5776 7.72028C10.5326 7.89621 10.5099 8.07199 10.5093 8.24764C10.509 8.40191 10.5418 8.52426 10.6076 8.61469C10.7185 8.76649 10.8639 8.84527 11.0437 8.85103C11.4514 8.86446 11.8952 8.82445 12.375 8.73101C12.6893 8.6699 12.9655 8.58632 13.2036 8.48028C13.3365 8.42136 13.4319 8.32313 13.4897 8.18557C13.5949 7.83578 13.4038 7.63232 13.1584 7.43873C12.6504 7.03756 12.0096 6.80821 11.3721 6.95454C11.1052 7.01564 10.8876 7.16389 10.7194 7.39927Z" fill="#660000"/><path d="M13.4897 8.18558C13.4371 8.11899 13.3863 8.05953 13.3372 8.00719C13.0607 7.7118 12.7331 7.49203 12.3544 7.3479C12.0119 7.21719 11.6672 7.17252 11.3203 7.2139C11.1424 7.235 10.9421 7.29679 10.7194 7.39928C10.8876 7.16389 11.1052 7.01565 11.3721 6.95454C12.0096 6.80821 12.6504 7.03757 13.1584 7.43873C13.4038 7.63233 13.5949 7.83579 13.4897 8.18558Z" fill="#C49AA7"/><path d="M13.4895 8.18582C13.4317 8.32338 13.3364 8.42161 13.2035 8.48053C12.9653 8.58657 12.6891 8.67015 12.3748 8.73125C11.895 8.82469 11.4512 8.8647 11.0435 8.85128C10.8637 8.84552 10.7184 8.76674 10.6074 8.61493C10.5416 8.52451 10.5089 8.40216 10.5092 8.24788C10.5097 8.07224 10.5324 7.89645 10.5774 7.72053C10.6149 7.57475 10.6622 7.46775 10.7192 7.39952C10.942 7.29703 11.1423 7.23524 11.3201 7.21414C11.667 7.17277 12.0117 7.21743 12.3543 7.34814C12.733 7.49227 13.0606 7.71204 13.337 8.00743C13.3861 8.05977 13.4369 8.11923 13.4895 8.18582Z" fill="#78223D"/><path d="M2.61877 11.3009L2.59534 11.2988C2.59197 11.2986 2.58861 11.2994 2.58573 11.3012C2.58284 11.303 2.58057 11.3056 2.57922 11.3087C2.57787 11.3118 2.57752 11.3152 2.57819 11.3185C2.57887 11.3218 2.58055 11.3248 2.58301 11.3272C3.22956 11.9067 4.05697 12.3297 4.87245 12.617C5.63121 12.8847 6.41765 13.0861 7.23176 13.2212C9.04687 13.5225 10.929 13.5969 12.7498 13.4978C12.94 13.4874 13.1295 13.478 13.3183 13.4695C13.5128 13.4607 13.7025 13.4482 13.8872 13.4321C14.1497 13.4088 14.4142 13.3848 14.6809 13.3601C15.4435 13.2889 16.1669 13.1952 16.8511 13.079C17.1569 13.0272 17.4763 13.0005 17.7829 12.9433C18.4307 12.8233 19.0711 12.6958 19.7041 12.5607C20.799 12.3268 21.8772 12.0177 22.9796 11.6617C23.8301 11.3872 24.6681 11.0648 25.4934 10.6946C25.8116 10.5521 26.1385 10.3976 26.4741 10.231C26.5259 10.2052 26.5778 10.1853 26.6299 10.1714C26.5376 10.241 26.4422 10.3058 26.3438 10.3658C25.9369 10.614 25.576 10.8201 25.2612 10.984C23.9434 11.67 22.4884 12.224 21.0559 12.656C19.5924 13.0978 18.062 13.4551 16.4647 13.728C14.54 14.0568 12.6493 14.2434 10.7925 14.2878C9.19895 14.3256 7.58689 14.2373 6.01306 13.9627C4.81449 13.7543 3.62086 13.4164 2.55958 12.8315C1.15263 12.0555 0.240552 10.8056 0.607602 9.13227C0.735021 8.54984 1.04165 7.98344 1.39514 7.49267C1.43624 7.4354 1.4461 7.44033 1.42473 7.50747C1.39048 7.61625 1.36157 7.72682 1.338 7.83917C1.22182 8.39077 1.28649 8.91758 1.53201 9.41958C1.55338 9.46315 1.55955 9.51494 1.55544 9.56303C1.48844 10.3214 1.94879 10.9794 2.61877 11.3009Z" fill="#C64A16"/><path d="M10.06 8.1582L10.0896 8.60705C10.0551 8.6561 10.0225 8.70446 9.9918 8.75214C9.99016 8.75488 9.99057 8.75762 9.99303 8.76036C9.99577 8.76338 9.99769 8.76639 9.99879 8.7694C9.99934 8.77187 9.99865 8.77393 9.99673 8.77557L9.9211 8.82859C9.91206 8.83517 9.90754 8.84394 9.90754 8.8549C9.90782 8.88285 9.89768 8.9108 9.87713 8.93875L9.89439 8.87545C9.89649 8.86768 9.89661 8.8595 9.89473 8.85167C9.89285 8.84384 9.88904 8.83661 9.88364 8.83064C9.87824 8.82466 9.87143 8.82014 9.86382 8.81749C9.85622 8.81483 9.84808 8.81413 9.84013 8.81544L8.89559 8.96875C8.88889 8.96986 8.88286 8.97347 8.87868 8.97887C8.87449 8.98427 8.87246 8.99107 8.87298 8.99794L8.98396 10.2824C8.98452 10.2891 8.98371 10.2959 8.9816 10.3023C8.97949 10.3087 8.9761 10.3146 8.97165 10.3197C8.9672 10.3247 8.96177 10.3289 8.9557 10.3318C8.94962 10.3347 8.94301 10.3364 8.93628 10.3367L7.17008 10.4291C7.13062 10.4311 7.10596 10.4511 7.0961 10.4892L6.90127 11.2434C6.33268 11.2028 5.77696 11.1321 5.23413 11.0313L6.60081 10.0794C6.65383 10.0424 6.7131 10.015 6.7759 9.99838L8.11956 9.64284C8.13447 9.6389 8.14825 9.63154 8.15981 9.62134C8.17137 9.61113 8.18039 9.59837 8.18615 9.58407L8.5273 8.73282C8.53235 8.72016 8.54003 8.70874 8.54981 8.69931C8.55959 8.68988 8.57126 8.68267 8.58402 8.67816L10.06 8.1582Z" fill="#F06A21"/><path d="M20.6197 9.66878L19.6032 9.94376C19.6624 9.83607 19.7503 9.71358 19.7729 9.60589C19.8009 9.47135 19.7655 9.34557 19.6669 9.22856C19.5074 9.03949 19.3422 8.81425 19.0927 8.74314C18.9485 8.70204 18.808 8.66312 18.671 8.62641C18.6617 8.62396 18.653 8.61966 18.6455 8.61377C18.6379 8.60789 18.6316 8.60053 18.6269 8.59213C18.6222 8.58373 18.6193 8.57447 18.6182 8.5649C18.6172 8.55532 18.6181 8.54563 18.6208 8.53639C18.6332 8.49611 18.6625 8.47501 18.7088 8.47309C18.9749 8.46213 19.2422 8.45295 19.5107 8.44555C19.6463 8.44227 19.7886 8.47268 19.9082 8.53434C20.0608 8.61271 20.2205 8.69327 20.3874 8.77602C20.5802 8.87138 20.7191 9.03168 20.683 9.24377C20.6602 9.37914 20.6391 9.52081 20.6197 9.66878Z" fill="#F06A21"/><path d="M10.0896 8.60547C10.2774 9.09788 10.6494 9.30956 11.1623 9.30669C11.9178 9.30216 12.6597 9.19776 13.3326 8.90799C13.3794 8.88798 13.4255 8.86442 13.4707 8.83729C13.5145 8.81071 13.5608 8.78399 13.6096 8.75714C13.2627 9.27175 12.8011 9.64031 12.2249 9.86281C12.1265 9.9009 12.0061 9.93871 11.8636 9.97625C11.7277 10.0119 11.6065 10.0353 11.5002 10.0465C11.0719 10.0923 10.6899 10.0504 10.3543 9.92076C9.90597 9.74731 9.7469 9.41944 9.87706 8.93717C9.89761 8.90922 9.90775 8.88127 9.90748 8.85332C9.90748 8.84236 9.912 8.83359 9.92104 8.82701L9.99667 8.77399C9.99859 8.77235 9.99927 8.77029 9.99872 8.76782C9.99763 8.76481 9.99571 8.7618 9.99297 8.75878C9.9905 8.75604 9.99009 8.7533 9.99174 8.75056C10.0224 8.70288 10.055 8.65452 10.0896 8.60547Z" fill="#D1742E"/><path d="M22.3028 9.30078C22.3719 9.33586 22.3899 9.37709 22.3571 9.4245C22.342 9.44587 22.3131 9.46684 22.2703 9.48739C21.3518 9.9313 20.3527 10.2463 19.2731 10.4323C18.9487 10.4882 18.6627 10.4991 18.4153 10.4648C18.4175 10.3999 18.4415 10.3577 18.4872 10.3382C18.8525 10.1834 19.2245 10.0516 19.6032 9.94281L20.6196 9.66783C21.186 9.52452 21.7471 9.40217 22.3028 9.30078Z" fill="#660000"/></svg>