<svg width="79" height="61" viewBox="0 0 79 61" fill="none" xmlns="http://www.w3.org/2000/svg">
<path d="M31.1787 24L29.8867 21.5254H23.5088L22.2168 24H21.2803L26.1953 14.6074H27.2002L32.1152 24H31.1787ZM26.7012 15.4346L23.9258 20.7393H29.4697L26.7012 15.4346ZM33.9678 24V14.6074H34.8223V24H33.9678ZM37.1055 24V22.5166H38.2949V24H37.1055ZM40.585 24V14.6074H41.4395V24H40.585ZM53.6963 24V17.7998C53.6963 17.2803 53.6257 16.8542 53.4844 16.5215C53.3477 16.1842 53.1494 15.9176 52.8896 15.7217C52.6344 15.5257 52.3223 15.389 51.9531 15.3115C51.584 15.234 51.1693 15.1953 50.709 15.1953C50.1758 15.1953 49.6517 15.2614 49.1367 15.3936C48.6263 15.5212 48.1432 15.6852 47.6875 15.8857C47.2318 16.0817 46.8125 16.3005 46.4297 16.542C46.0469 16.7835 45.7233 17.016 45.459 17.2393V24H44.6045V14.6074H45.459V16.2549C45.778 16.0544 46.1289 15.8447 46.5117 15.626C46.8991 15.4027 47.3138 15.1999 47.7559 15.0176C48.2025 14.8307 48.6787 14.6781 49.1846 14.5596C49.6904 14.4411 50.2236 14.3818 50.7842 14.3818C51.4176 14.3818 51.9691 14.4593 52.4385 14.6143C52.9124 14.7646 53.3044 14.9811 53.6143 15.2637C53.9287 15.5417 54.1634 15.8812 54.3184 16.2822C54.4733 16.6787 54.5508 17.123 54.5508 17.6152V24H53.6963Z" fill="#37979F"/>
<path d="M21.1426 40.9688C21.1426 41.4844 21.0879 41.9434 20.9785 42.3457C20.873 42.7441 20.7227 43.0918 20.5273 43.3887C20.332 43.6855 20.0938 43.9375 19.8125 44.1445C19.5352 44.3516 19.2246 44.5176 18.8809 44.6426C18.541 44.7676 18.1699 44.8594 17.7676 44.918C17.3691 44.9727 16.9492 45 16.5078 45H12.3535V36.9492H16.4961C17.1562 36.9492 17.7695 37.0137 18.3359 37.1426C18.9023 37.2715 19.3926 37.4922 19.8066 37.8047C20.2246 38.1133 20.5508 38.5254 20.7852 39.041C21.0234 39.5566 21.1426 40.1992 21.1426 40.9688ZM20.3867 40.9688C20.3867 40.5312 20.3438 40.1445 20.2578 39.8086C20.1719 39.4727 20.0488 39.1816 19.8887 38.9355C19.7285 38.6855 19.5332 38.4766 19.3027 38.3086C19.0723 38.1406 18.8125 38.0059 18.5234 37.9043C18.2344 37.7988 17.9199 37.7246 17.5801 37.6816C17.2402 37.6387 16.8789 37.6172 16.4961 37.6172H13.0859V44.3262H16.4961C17.0703 44.3262 17.5957 44.2754 18.0723 44.1738C18.5488 44.0684 18.957 43.8887 19.2969 43.6348C19.6406 43.377 19.9082 43.0332 20.0996 42.6035C20.291 42.1699 20.3867 41.625 20.3867 40.9688ZM23.2754 45V36.9492H24.0078V45H23.2754ZM31.4609 36.8027C31.832 36.8027 32.1777 36.8223 32.498 36.8613C32.8184 36.8965 33.125 36.9492 33.418 37.0195C33.7109 37.0859 33.9961 37.168 34.2734 37.2656C34.5508 37.3594 34.8301 37.4648 35.1113 37.582V38.4727C34.8887 38.332 34.6504 38.1992 34.3965 38.0742C34.1465 37.9492 33.875 37.8398 33.582 37.7461C33.293 37.6523 32.9805 37.5781 32.6445 37.5234C32.3125 37.4688 31.9551 37.4414 31.5723 37.4414C30.791 37.4414 30.1094 37.5234 29.5273 37.6875C28.9453 37.8516 28.4609 38.0859 28.0742 38.3906C27.6875 38.6953 27.3965 39.0664 27.2012 39.5039C27.0098 39.9414 26.9141 40.4336 26.9141 40.9805C26.9141 41.4922 27.0078 41.9648 27.1953 42.3984C27.3867 42.8281 27.6738 43.1992 28.0566 43.5117C28.4434 43.8242 28.9258 44.0684 29.5039 44.2441C30.082 44.4199 30.7598 44.5078 31.5371 44.5078C31.8418 44.5078 32.1426 44.4961 32.4395 44.4727C32.7402 44.4492 33.0234 44.4199 33.2891 44.3848C33.5547 44.3457 33.7969 44.3047 34.0156 44.2617C34.2344 44.2148 34.4199 44.168 34.5723 44.1211V41.6777H31.2969V40.9922H35.3047V44.5312C35.0156 44.6328 34.7227 44.7227 34.4258 44.8008C34.1328 44.8789 33.8281 44.9453 33.5117 45C33.1992 45.0508 32.873 45.0898 32.5332 45.1172C32.1973 45.1445 31.8438 45.1582 31.4727 45.1582C30.7148 45.1582 30.0117 45.0742 29.3633 44.9062C28.7148 44.7344 28.1523 44.4766 27.6758 44.1328C27.2031 43.7852 26.832 43.3496 26.5625 42.8262C26.293 42.3027 26.1582 41.6875 26.1582 40.9805C26.1582 40.5078 26.2207 40.0781 26.3457 39.6914C26.4707 39.3008 26.6465 38.9512 26.873 38.6426C27.1035 38.3301 27.3789 38.0586 27.6992 37.8281C28.0234 37.5977 28.3809 37.4082 28.7715 37.2598C29.166 37.1074 29.5898 36.9941 30.043 36.9199C30.4961 36.8418 30.9688 36.8027 31.4609 36.8027ZM37.6426 45V36.9492H38.375V45H37.6426ZM44.3516 37.6172V45H43.625V37.6172H39.9629V36.9492H48.0137V37.6172H44.3516ZM56.8848 45V44.1094C56.6035 44.2617 56.2832 44.4023 55.9238 44.5312C55.5684 44.6602 55.1914 44.7715 54.793 44.8652C54.3984 44.959 53.9922 45.0312 53.5742 45.082C53.1562 45.1328 52.7461 45.1582 52.3438 45.1582C51.8203 45.1582 51.3496 45.1113 50.9316 45.0176C50.5176 44.9238 50.166 44.7852 49.877 44.6016C49.5879 44.4141 49.3652 44.1836 49.209 43.9102C49.0527 43.6328 48.9746 43.3125 48.9746 42.9492C48.9746 42.5898 49.0645 42.2734 49.2441 42C49.4277 41.7227 49.6875 41.4824 50.0234 41.2793C50.3594 41.0723 50.7637 40.8984 51.2363 40.7578C51.7129 40.6133 52.2441 40.4922 52.8301 40.3945C53.416 40.293 54.0488 40.2109 54.7285 40.1484C55.4121 40.082 56.1309 40.0273 56.8848 39.9844V39.3691C56.8848 39.1191 56.8379 38.8984 56.7441 38.707C56.6504 38.5156 56.5195 38.3496 56.3516 38.209C56.1836 38.0645 55.9863 37.9453 55.7598 37.8516C55.5332 37.7539 55.2871 37.6758 55.0215 37.6172C54.7598 37.5586 54.4824 37.5176 54.1895 37.4941C53.9004 37.4668 53.6094 37.4531 53.3164 37.4531C52.9219 37.4531 52.5625 37.4727 52.2383 37.5117C51.9141 37.5508 51.6113 37.6055 51.3301 37.6758C51.0488 37.7422 50.7793 37.8203 50.5215 37.9102C50.2637 38 50.0039 38.0957 49.7422 38.1973V37.3418C50.2852 37.1973 50.8633 37.0723 51.4766 36.9668C52.0938 36.8574 52.748 36.8027 53.4395 36.8027C54.0254 36.8027 54.5723 36.8535 55.0801 36.9551C55.5879 37.0527 56.0293 37.2109 56.4043 37.4297C56.7793 37.6484 57.0742 37.9316 57.2891 38.2793C57.5039 38.623 57.6113 39.043 57.6113 39.5391V45H56.8848ZM56.8848 40.6348C55.6074 40.7051 54.5156 40.8047 53.6094 40.9336C52.707 41.0625 51.9688 41.2207 51.3945 41.4082C50.8203 41.5957 50.3984 41.8145 50.1289 42.0645C49.8633 42.3145 49.7305 42.5977 49.7305 42.9141C49.7305 43.1719 49.7949 43.4004 49.9238 43.5996C50.0566 43.7988 50.2461 43.9668 50.4922 44.1035C50.7383 44.2363 51.0371 44.3379 51.3887 44.4082C51.7402 44.4746 52.1348 44.5078 52.5723 44.5078C52.8301 44.5078 53.0957 44.4941 53.3691 44.4668C53.6465 44.4355 53.9219 44.3945 54.1953 44.3438C54.4688 44.2891 54.7383 44.2266 55.0039 44.1562C55.2695 44.082 55.5195 44.002 55.7539 43.916C55.9883 43.8301 56.2012 43.7383 56.3926 43.6406C56.5879 43.543 56.752 43.4434 56.8848 43.3418V40.6348ZM60.9922 42.2168C60.9922 42.5801 61.0215 42.8926 61.0801 43.1543C61.1387 43.416 61.2617 43.6309 61.4492 43.7988C61.6367 43.9668 61.9062 44.0918 62.2578 44.1738C62.6133 44.252 63.084 44.291 63.6699 44.291H67.3086V45H63.5234C62.8789 45 62.3457 44.9492 61.9238 44.8477C61.5059 44.7422 61.1719 44.582 60.9219 44.3672C60.6758 44.1484 60.5039 43.873 60.4062 43.541C60.3086 43.209 60.2598 42.8145 60.2598 42.3574V36.9492H60.9922V42.2168Z" fill="#37979F"/>
<line x1="42.7226" y1="13.584" x2="45.7226" y2="11.584" stroke="#37979F"/>
<line x1="34.7226" y1="13.584" x2="37.7226" y2="11.584" stroke="#37979F"/>
<rect x="0.5" y="0.5" width="78" height="60" stroke="#37979F"/>
</svg>
