<svg width="160" height="188" viewBox="0 0 160 188" fill="none" xmlns="http://www.w3.org/2000/svg"><path d="M76.7971 98.5723C77.4661 98.8466 78.1039 99.0612 78.7028 99.3568C86.7603 103.346 94.797 107.381 102.878 111.334C105.049 112.393 107.344 113.228 109.592 114.146C110.991 114.716 111.054 114.998 109.91 115.909C99.3478 124.273 88.6123 132.445 77.4184 140.077C76.3146 140.825 75.5589 140.929 74.4552 140.063C64.3665 132.164 54.2299 124.325 44.1173 116.463C42.788 115.427 42.8732 114.931 44.8103 114.19C55.5831 110.067 65.6419 104.701 75.5903 99.1123C75.9487 98.912 76.3535 98.7641 76.7971 98.5723Z" fill="#D9D9D9"/><path d="M77.3725 183.76C73.452 184.529 70.3873 183.057 67.2673 180.932C58.0344 174.661 48.6222 168.637 39.2877 162.507C38.9606 162.285 38.7201 161.952 38.4319 161.671C38.8127 161.419 39.1637 161.064 39.5834 160.938C48.3967 158.362 57.2174 155.83 66.0232 153.254C69.0342 152.373 72.0123 151.397 75.0083 150.456C77.1395 149.789 79.0915 150.463 81.0525 151.145C87.2985 153.298 93.5608 155.43 99.8067 157.585C102.995 158.681 106.154 159.865 109.374 160.886C110.86 161.367 112.455 161.537 113.995 161.886C114.383 161.967 114.742 162.167 115.115 162.315C114.866 162.626 114.679 163.018 114.352 163.24C109.857 166.334 105.376 169.451 100.818 172.464C95.4576 176.009 90.0824 179.54 84.5758 182.893C83.4093 183.604 81.6813 183.553 80.1968 183.737C79.2708 183.855 78.3209 183.76 77.3725 183.76Z" fill="#D9D9D9"/><path d="M150.266 123.932C149.956 124.583 149.808 125.153 149.457 125.582C141.732 135.198 133.985 144.792 126.246 154.399L125.965 154.726C123.834 157.161 124.488 156.821 121.414 155.924C115.814 154.288 110.268 152.498 104.738 150.684C99.0668 148.818 93.4422 146.85 87.7952 144.925C87.15 144.702 86.4884 144.496 85.8656 144.222C85.5385 144.074 85.2667 143.807 84.9709 143.599C85.2443 143.304 85.4608 142.934 85.8043 142.719C87.725 141.52 89.8099 140.505 91.6067 139.166C98.6382 133.91 105.585 128.558 112.562 123.251C113.745 122.34 115.028 121.518 116.117 120.526C117.945 118.861 119.86 118.662 122.287 119.38C130.913 121.904 139.741 123.487 148.797 123.805C149.177 123.821 149.558 123.872 150.266 123.932Z" fill="#D9D9D9"/><path d="M108.782 68.127C109.98 68.6457 111.076 69.1417 112.196 69.5923C118.085 71.9842 123.982 74.3222 129.854 76.7355C133.292 78.1425 136.677 79.6448 140.091 81.0959C141.25 81.5848 141.351 82.1917 140.566 83.1468C133.627 91.5777 126.712 100.031 119.797 108.478C118.255 110.365 118.202 110.365 116.102 109.299C106.634 104.517 97.1594 99.7428 87.686 94.9674C86.4329 94.3321 85.1724 93.7024 83.9283 93.0501C82.847 92.4887 82.8544 91.9998 83.7416 91.1712C91.1166 84.3165 98.4588 77.439 105.81 70.563C106.409 70.0073 106.923 69.3777 107.536 68.8376C107.863 68.5491 108.315 68.3856 108.782 68.127Z" fill="#D9D9D9"/><path d="M76.9674 43.3652C77.5499 43.7362 78.1488 44.0389 78.6476 44.4468C85.5552 50.146 92.4538 55.8453 99.3314 61.5672C102.224 63.9734 102.162 63.9734 99.5181 66.5942C92.4851 73.574 85.485 80.5851 78.4684 87.572C77.1228 88.9122 76.9286 88.898 75.5516 87.5279C69.2116 81.2062 62.8865 74.8702 56.548 68.5556C54.9529 66.9723 53.3265 65.4103 51.6627 63.8924C50.6665 62.9743 50.783 62.3006 51.8568 61.5232C59.0287 56.3569 66.1693 51.1523 73.3113 45.9562C74.1745 45.3351 74.9915 44.6614 75.8383 44.0247C76.1415 43.8016 76.4925 43.6466 76.9674 43.3652Z" fill="#D9D9D9"/><path d="M115.728 39.4035C115.495 39.8555 115.371 40.2108 115.153 40.4922C111.723 44.7858 108.268 49.0567 104.869 53.3716C104.022 54.4532 103.322 54.3707 102.334 53.572C96.3826 48.7682 90.3936 44.0013 84.4344 39.2117C82.5914 37.7307 82.6064 37.3981 84.0536 35.5775C88.2384 30.3061 92.3994 25.0133 96.5693 19.7362C96.8889 19.3283 97.2235 18.9218 97.5491 18.5139C98.1256 17.7734 98.6782 17.7081 99.5101 18.3149C103.78 21.409 107.312 25.1171 110.096 29.4334C111.621 31.8012 113.115 34.1932 114.538 36.6207C115.052 37.4933 115.34 38.4783 115.728 39.4035Z" fill="#D9D9D9"/><path d="M56.6643 18.6992C56.8733 19.1213 57.0212 19.5946 57.3094 19.9641C61.6033 25.4573 65.9047 30.9348 70.215 36.4123C70.8841 37.2637 70.8677 37.9004 69.8804 38.6252C62.3038 44.1852 54.766 49.7963 47.2132 55.3847C46.1155 56.1919 45.5868 56.0214 45.1044 54.8147C43.463 50.7144 41.8306 46.6127 40.1578 42.5266C39.9323 41.9723 39.6366 41.4023 39.2244 40.9575C38.1356 39.8034 38.3372 38.5741 39.1691 37.5309C43.354 32.3191 47.5791 27.1301 51.8954 22.0221C52.7587 21.0002 54.1133 20.3422 55.2559 19.5349C55.5202 19.3501 55.8398 19.2322 56.1355 19.0829L56.6643 18.6992Z" fill="#D9D9D9"/><path d="M6.29712 163.246C7.10661 163.304 7.41727 163.253 7.65922 163.35C10.9494 164.748 14.4114 164.608 17.8809 164.333C19.709 164.193 21.537 164.031 23.3487 163.8C25.9937 163.468 28.2191 164.333 30.2413 165.784C35.3984 169.464 40.4226 173.306 45.7127 176.806C49.2837 179.176 53.2191 181.063 56.9992 183.165C57.5757 183.483 58.1672 183.787 59.1006 184.284C58.4151 184.535 58.097 184.699 57.7699 184.757C52.8069 185.601 47.8439 186.459 42.866 187.244C41.9714 187.385 41.0215 187.244 40.1045 187.193C30.5982 186.644 23.2949 182.085 17.0176 175.867C13.8663 172.736 11.0122 169.345 8.07143 166.029C7.4337 165.311 7.02895 164.407 6.29712 163.246Z" fill="#D9D9D9"/><path d="M95.6289 184.432C96.2666 183.855 96.64 183.38 97.1374 183.106C105.928 178.355 114.087 172.736 122.139 166.992C124.753 165.126 127.459 164.585 130.579 164.83C135.9 165.238 141.174 165.222 146.176 163.076C146.564 162.906 147.015 162.846 147.825 162.957C147.475 163.639 147.264 164.445 146.743 164.978C142.947 168.886 139.19 172.832 135.222 176.578C132.477 179.16 129.614 181.707 126.448 183.795C122.279 186.541 117.3 187.274 112.291 187.155C110.058 187.097 107.865 186.245 105.633 185.883C102.708 185.408 99.76 185.06 96.8267 184.661C96.5474 184.624 96.2741 184.557 95.6289 184.432Z" fill="#D9D9D9"/><path d="M0.346313 94.8155C0.416509 91.3747 0.588264 88.2351 2.46263 85.4523C2.74939 85.0302 3.10036 84.6308 3.49614 84.2826C4.37583 83.5208 5.13006 83.491 5.93209 84.5114C11.6329 91.7882 17.3351 99.0651 23.13 106.268C24.5235 107.992 26.2574 109.48 27.8674 111.049C28.8711 112.027 28.8786 112.308 27.4627 112.648C24.3054 113.396 21.1391 114.143 17.934 114.699C14.5811 115.284 11.1743 115.601 7.80645 116.097C6.2278 116.335 5.32421 115.898 4.61628 114.462C1.91002 108.954 0.479237 103.218 0.470276 97.1634C0.470276 96.2822 0.385145 95.4082 0.346313 94.8155Z" fill="#D9D9D9"/><path d="M148.865 116.268C146.796 115.95 144.757 115.668 142.735 115.313C137.595 114.395 132.46 113.455 127.327 112.478C126.82 112.381 126.206 112.063 125.965 111.679C125.841 111.471 126.353 110.849 126.672 110.479C129.458 107.185 132.319 103.943 135.042 100.604C139.205 95.4965 143.28 90.3146 147.395 85.1697C147.628 84.874 147.877 84.5784 148.149 84.3197C149.09 83.4087 149.744 83.4016 150.319 84.5485C151.114 86.1247 151.907 87.7606 152.273 89.4561C153.12 93.4172 153.369 97.4436 152.607 101.456C151.946 104.956 151.207 108.443 150.39 111.915C150.062 113.292 149.456 114.61 148.865 116.268Z" fill="#D9D9D9"/><path d="M91.8633 15.5559C87.0795 20.6184 82.3884 25.526 77.7839 30.4933C76.9116 31.4256 76.4457 31.4257 75.6362 30.4706C71.7709 25.8813 67.834 21.3433 63.9299 16.7839C63.7432 16.5693 63.579 16.3476 63.2683 15.9482C64.0853 15.3925 64.8544 14.8453 65.6565 14.3336C66.5197 13.7936 67.0723 13.2378 66.5122 12.1577C66.333 11.8024 66.4107 11.0846 66.6825 10.7961C69.7711 7.53861 72.8746 4.2882 76.0648 1.12023C77.3328 -0.137586 77.9392 -0.123384 79.137 1.17991C82.5915 4.94055 85.9594 8.768 89.3512 12.5727C90.2294 13.5647 91.0613 14.6008 91.8633 15.5559Z" fill="#D9D9D9"/><path d="M137.642 71.6053C136.389 71.1605 135.557 70.9245 134.779 70.5834C127.032 67.1412 119.276 63.6989 111.544 60.2054C109.786 59.4138 109.825 59.2134 111.015 57.7623C114.461 53.5284 117.853 49.2575 121.361 45.0748C122.294 43.9648 123.531 43.0765 124.659 42.1143C125.795 41.145 126.884 41.5586 127.553 42.5364C128.586 44.0387 129.66 45.6006 130.244 47.2805C132.134 52.714 133.806 58.2143 135.564 63.6847C136.141 65.4982 136.747 67.3046 137.276 69.1323C137.47 69.7762 137.486 70.4655 137.642 71.6053Z" fill="#D9D9D9"/><path d="M16.8989 70.5292C17.3664 68.2339 17.568 66.1461 18.2296 64.2004C20.0263 58.8778 21.9157 53.585 23.9782 48.359C24.6159 46.7601 25.7973 45.2792 26.9877 43.9546C28.3034 42.4807 29.7178 42.5404 30.7304 44.1905C32.4181 46.9449 33.8638 49.8244 35.3036 52.7038C36.5567 55.2052 37.5514 57.826 38.8746 60.299C39.5736 61.6094 38.9523 62.0599 37.9023 62.4977C33.4367 64.3396 28.98 66.1915 24.5069 68.0122C22.6012 68.7896 20.679 69.5002 18.7434 70.2023C18.276 70.3729 17.7398 70.3885 16.8989 70.5292Z" fill="#D9D9D9"/><path d="M79.6514 98.3828C80.328 98.6571 80.9657 98.8717 81.5646 99.1673C89.6237 103.157 97.6588 107.192 105.74 111.137C107.903 112.203 110.206 113.04 112.446 113.957C113.855 114.527 113.916 114.808 112.773 115.719C102.201 124.083 91.4741 132.256 80.2802 139.888C79.1765 140.635 78.4222 140.739 77.3096 139.874C67.2283 131.974 57.0918 124.136 46.9716 116.275C45.6424 115.237 45.735 114.741 47.6721 114.002C58.4464 109.879 68.5038 104.513 78.4446 98.9229C78.8106 98.7239 79.2153 98.5747 79.6514 98.3828Z" fill="url(#paint0_linear_182_611)"/><path d="M80.2336 183.572C76.3131 184.341 73.2484 182.868 70.1209 180.743C60.8955 174.474 51.4833 168.448 42.1488 162.32C41.8142 162.097 41.5738 161.764 41.293 161.483C41.6738 161.231 42.0248 160.876 42.4445 160.749C51.2503 158.174 60.0785 155.643 68.8843 153.066C71.8952 152.185 74.8748 151.208 77.8693 150.268C80.0006 149.602 81.9452 150.276 83.9136 150.957C90.1595 153.11 96.4219 155.242 102.668 157.397C105.856 158.492 109.015 159.676 112.235 160.698C113.721 161.178 115.316 161.349 116.856 161.697C117.245 161.778 117.603 161.979 117.976 162.126C117.727 162.438 117.54 162.83 117.213 163.052C112.718 166.146 108.237 169.263 103.679 172.276C98.3187 175.822 92.9435 179.352 87.4369 182.705C86.2704 183.415 84.5424 183.364 83.0578 183.549C82.1319 183.667 81.1745 183.572 80.2336 183.572Z" fill="url(#paint1_linear_182_611)"/><path d="M153.127 123.748C152.817 124.399 152.662 124.969 152.319 125.398C144.595 135.014 136.847 144.615 129.1 154.217L128.828 154.543C126.695 156.977 127.349 156.637 124.277 155.741C118.676 154.105 113.129 152.314 107.599 150.501C101.928 148.634 96.296 146.666 90.6489 144.742C90.0037 144.52 89.3496 144.312 88.7283 144.038C88.3937 143.89 88.1294 143.623 87.8247 143.417C88.1055 143.12 88.3235 142.75 88.6581 142.536C90.5862 141.336 92.6637 140.321 94.4604 138.983C101.492 133.727 108.447 128.374 115.425 123.067C116.606 122.156 117.891 121.335 118.98 120.343C120.808 118.677 122.721 118.478 125.148 119.196C133.774 121.72 142.603 123.305 151.658 123.622C152.039 123.637 152.42 123.688 153.127 123.748Z" fill="url(#paint2_linear_182_611)"/><path d="M111.646 67.9375C112.843 68.4563 113.94 68.9523 115.06 69.4113C120.941 71.7877 126.845 74.1413 132.718 76.546C136.148 77.9531 139.54 79.4554 142.954 80.9065C144.113 81.4025 144.215 82.0022 143.429 82.9573C136.483 91.3882 129.575 99.8347 122.651 108.288C121.119 110.169 121.058 110.176 118.965 109.11C109.498 104.32 100.015 99.5533 90.5495 94.7793C89.289 94.1426 88.0359 93.513 86.7918 92.8692C85.7105 92.2992 85.7179 91.8103 86.6051 90.9817C93.9712 84.127 101.322 77.2495 108.673 70.3735C109.265 69.8178 109.786 69.1882 110.4 68.6481C110.727 68.3596 111.178 68.1962 111.646 67.9375Z" fill="url(#paint3_linear_182_611)"/><path d="M48.163 67.9375C48.614 68.263 49.1576 68.5671 49.5624 68.9892C54.1908 73.6893 58.7953 78.4121 63.3939 83.135C66.1629 85.9775 68.8931 88.8498 71.6859 91.6625C72.5492 92.5352 72.712 93.0468 71.4052 93.7134C61.0595 98.9976 50.7453 104.343 40.422 109.666C39.5662 110.109 38.9285 109.857 38.361 109.191C34.2314 104.283 30.045 99.4126 25.9543 94.4752C22.4923 90.3152 19.1244 86.0883 15.7177 81.8757C14.6364 80.544 14.7842 80.2555 16.4868 79.6785C26.7399 76.2206 37.1393 73.0895 46.8636 68.3966C47.2131 68.226 47.5939 68.1379 48.163 67.9375Z" fill="url(#paint4_linear_182_611)"/><path d="M6.66235 123.62C8.22607 123.819 9.40744 124.181 10.5276 124.063C14.1135 123.701 17.6995 123.264 21.2466 122.656C24.7862 122.049 28.2871 121.228 31.7879 120.443C33.5607 120.037 35.3186 119.562 37.0376 118.992C38.1115 118.637 38.912 118.8 39.7603 119.458C47.679 125.551 55.5976 131.636 63.5476 137.683C65.8118 139.408 68.2 140.985 70.5104 142.65C70.8286 142.872 71.3184 143.347 71.2482 143.487C71.0616 143.85 70.6583 144.235 70.2536 144.36C62.1796 146.87 54.0817 149.32 46.0152 151.83C41.8214 153.139 37.6529 154.516 33.4905 155.908C32.5033 156.242 31.9193 155.916 31.3443 155.206C27.4462 150.416 23.4869 145.67 19.6366 140.837C15.7086 135.899 11.8807 130.888 8.03042 125.892C7.54801 125.256 7.19853 124.522 6.66235 123.62Z" fill="url(#paint5_linear_182_611)"/><path d="M79.8289 43.1758C80.4128 43.5467 81.0117 43.8494 81.5091 44.2573C88.4166 49.9566 95.3167 55.6572 102.193 61.3792C105.08 63.784 105.025 63.784 102.38 66.4048C95.3481 73.386 88.3479 80.3956 81.3313 87.3825C79.9857 88.7227 79.79 88.7085 78.4055 87.3385C72.0745 81.0167 65.7494 74.6807 59.4109 68.3661C57.8158 66.7828 56.1894 65.2209 54.5256 63.703C53.5294 62.7848 53.6385 62.1111 54.7198 61.3337C61.8917 56.1604 69.0322 50.9628 76.1727 45.7667C77.0375 45.1456 77.8529 44.472 78.7012 43.8352C79.0044 43.6135 79.3465 43.4572 79.8289 43.1758Z" fill="url(#paint6_linear_182_611)"/><path d="M118.584 39.2195C118.35 39.6715 118.233 40.0268 118.015 40.3082C114.585 44.6018 111.124 48.8727 107.732 53.189C106.884 54.2692 106.184 54.1882 105.196 53.388C99.2462 48.5842 93.2556 43.8173 87.298 39.0276C85.4535 37.5396 85.4699 37.2141 86.9156 35.3935C91.102 30.122 95.2555 24.8293 99.4329 19.5522C99.751 19.1372 100.086 18.7378 100.405 18.3313C100.988 17.5908 101.533 17.5169 102.372 18.1238C106.644 21.225 110.174 24.9259 112.96 29.2494C114.485 31.6172 115.971 34.0092 117.401 36.4296C117.915 37.3022 118.202 38.3028 118.584 39.2195Z" fill="url(#paint7_linear_182_611)"/><path d="M59.519 18.5156C59.737 18.9377 59.8849 19.411 60.1732 19.7805C64.4596 25.2737 68.7684 30.7512 73.0697 36.2288C73.7463 37.0872 73.7314 37.7168 72.7426 38.4431C65.1675 44.0016 57.6297 49.6127 50.068 55.2011C48.9792 56.0084 48.4505 55.8378 47.9681 54.6312C46.3267 50.5308 44.6853 46.4291 43.02 42.343C42.7945 41.7887 42.4913 41.2188 42.0791 40.7739C40.9978 39.6199 41.192 38.3905 42.0328 37.3473C46.2177 32.1355 50.4339 26.9465 54.7591 21.8385C55.6224 20.8181 56.9755 20.1586 58.1196 19.3513C58.3839 19.1666 58.702 19.0486 58.9978 18.9008L59.519 18.5156Z" fill="url(#paint8_linear_182_611)"/><path d="M9.15942 163.062C9.95995 163.114 10.2796 163.07 10.52 163.166C13.8102 164.565 17.2722 164.424 20.7417 164.151C22.5698 164.01 24.3978 163.847 26.2095 163.618C28.8545 163.284 31.0799 164.151 33.1021 165.601C38.2592 169.281 43.2834 173.122 48.5735 176.624C52.1445 178.992 56.0799 180.879 59.86 182.983C60.4365 183.3 61.019 183.604 61.9614 184.1C61.2759 184.351 60.9578 184.515 60.6232 184.573C55.6603 185.417 50.6973 186.276 45.7268 187.06C44.8322 187.201 43.8838 187.06 42.9653 187.009C33.4516 186.461 26.1557 181.901 19.8784 175.683C16.7271 172.552 13.8655 169.163 10.9322 165.845C10.2945 165.128 9.88976 164.225 9.15942 163.062Z" fill="url(#paint9_linear_182_611)"/><path d="M98.49 184.242C99.1277 183.665 99.5011 183.183 99.991 182.917C108.789 178.165 116.948 172.546 125 166.802C127.614 164.937 130.321 164.396 133.44 164.64C138.761 165.048 144.035 165.032 149.037 162.886C149.425 162.716 149.876 162.656 150.686 162.768C150.327 163.449 150.126 164.255 149.604 164.788C145.808 168.696 142.052 172.642 138.083 176.388C135.338 178.972 132.468 181.517 129.301 183.605C125.14 186.351 120.161 187.085 115.152 186.967C112.919 186.907 110.726 186.056 108.494 185.693C105.569 185.218 102.621 184.872 99.6878 184.471C99.4085 184.434 99.1352 184.367 98.49 184.242Z" fill="url(#paint10_linear_182_611)"/><path d="M3.20813 94.6339C3.27833 91.1916 3.44112 88.0535 5.32445 85.2692C5.60374 84.8471 5.96219 84.4478 6.35946 84.1081C7.23766 83.3378 7.99188 83.3079 8.7939 84.3298C14.4947 91.6066 20.1969 98.882 25.9918 106.085C27.3853 107.81 29.1192 109.298 30.7293 110.867C31.7329 111.844 31.7404 112.125 30.3171 112.466C27.1672 113.214 24.0009 113.962 20.7958 114.516C17.4429 115.101 14.0362 115.42 10.6608 115.916C9.08962 116.152 8.18604 115.715 7.47961 114.28C4.77185 108.773 3.34105 103.035 3.33209 96.9804C3.33209 96.0992 3.23949 95.2251 3.20813 94.6339Z" fill="url(#paint11_linear_182_611)"/><path d="M151.728 116.088C149.66 115.769 147.614 115.488 145.599 115.133C140.457 114.215 135.316 113.274 130.189 112.297C129.676 112.201 129.069 111.882 128.828 111.497C128.695 111.291 129.216 110.668 129.529 110.299C132.32 107.004 135.183 103.763 137.906 100.424C142.068 95.3161 146.135 90.1342 150.251 84.9893C150.492 84.6936 150.734 84.398 151.013 84.1308C151.954 83.2283 152.608 83.2212 153.183 84.3682C153.976 85.9443 154.771 87.5802 155.137 89.2758C155.983 93.2354 156.233 97.2632 155.47 101.275C154.809 104.776 154.063 108.262 153.253 111.734C152.926 113.112 152.32 114.429 151.728 116.088Z" fill="url(#paint12_linear_182_611)"/><path d="M94.7245 15.3665C89.9408 20.429 85.2496 25.3366 80.6376 30.3039C79.7744 31.2362 79.3069 31.2362 78.4989 30.2825C74.6247 25.6919 70.6967 21.1552 66.7912 16.5944C66.6045 16.3798 66.4417 16.1581 66.1221 15.7587C66.9465 15.203 67.7172 14.6558 68.5177 14.1442C69.3809 13.6041 69.9335 13.0413 69.3735 11.9682C69.1942 11.6129 69.2734 10.8952 69.5452 10.6067C72.6338 7.34917 75.7374 4.10016 78.926 0.930762C80.194 -0.327049 80.8004 -0.312826 81.9982 0.990465C85.4527 4.75111 88.8206 8.57856 92.2124 12.3833C93.0906 13.3753 93.924 14.4114 94.7245 15.3665Z" fill="url(#paint13_linear_182_611)"/><path d="M140.504 71.4217C139.251 70.9769 138.419 70.741 137.641 70.3999C129.893 66.9576 122.131 63.5153 114.407 60.0219C112.649 59.2231 112.688 59.0298 113.869 57.5787C117.316 53.3448 120.715 49.0739 124.224 44.8912C125.157 43.7812 126.394 42.8929 127.521 41.9307C128.649 40.9614 129.747 41.375 130.414 42.3528C131.449 43.8551 132.516 45.417 133.107 47.097C134.989 52.5304 136.669 58.0307 138.419 63.5011C139.002 65.3146 139.61 67.121 140.139 68.9488C140.333 69.594 140.348 70.2819 140.504 71.4217Z" fill="url(#paint14_linear_182_611)"/><path d="M19.7621 70.3476C20.2296 68.0522 20.4312 65.9644 21.0853 64.0187C22.8821 58.6961 24.7714 53.4034 26.8414 48.1774C27.4791 46.5785 28.6605 45.0975 29.8508 43.7729C31.1666 42.2991 32.581 42.3588 33.5936 44.0089C35.2738 46.7632 36.727 49.6427 38.1668 52.5222C39.4198 55.0236 40.4145 57.6444 41.7378 60.1174C42.4293 61.4278 41.8154 61.8783 40.7655 62.316C36.2999 64.1594 31.8432 66.0099 27.3701 67.8305C25.4644 68.6079 23.5422 69.3186 21.6051 70.0221C21.1391 70.1912 20.6029 70.2069 19.7621 70.3476Z" fill="url(#paint15_linear_182_611)"/><path d="M135.394 157.781C135.869 156.945 136.039 156.523 136.327 156.182C142.706 148.559 149.107 140.948 155.479 133.317C156.357 132.258 157.05 131.066 157.835 129.942C158.512 128.964 159.166 128.95 159.492 130.074C159.858 131.34 160.146 132.754 159.92 134.028C159.431 136.833 158.73 139.623 157.889 142.355C156.334 147.396 153.775 151.941 149.917 155.82C148.641 157.1 147.163 157.76 145.342 157.774C142.192 157.797 139.034 157.781 135.394 157.781Z" fill="url(#paint16_linear_182_611)"/><path d="M23.145 157.797C19.7069 157.591 16.2614 157.397 12.8233 157.146C12.3722 157.116 11.8824 156.835 11.5164 156.553C6.40561 152.527 3.04518 147.464 1.43517 141.401C0.90646 139.44 0.315027 137.463 0.082038 135.465C-0.121081 133.739 0.0969773 131.971 0.261265 130.231C0.300096 129.757 0.804901 129.32 1.18575 128.736C7.62731 139.069 15.1173 148.441 23.605 157.132C23.4497 157.353 23.3018 157.575 23.145 157.797Z" fill="url(#paint17_linear_182_611)"/><defs><linearGradient id="paint0_linear_182_611" x1="50.5994" y1="129.96" x2="92.5773" y2="91.1092" gradientUnits="userSpaceOnUse"><stop stop-color="#D9D9D9"/><stop offset="1" stop-color="white"/></linearGradient><linearGradient id="paint1_linear_182_611" x1="46.4307" y1="175.333" x2="79.0167" y2="132.629" gradientUnits="userSpaceOnUse"><stop stop-color="#D9D9D9"/><stop offset="1" stop-color="white"/></linearGradient><linearGradient id="paint2_linear_182_611" x1="92.1992" y1="147.01" x2="129.809" y2="109.307" gradientUnits="userSpaceOnUse"><stop stop-color="#D9D9D9"/><stop offset="1" stop-color="white"/></linearGradient><linearGradient id="paint3_linear_182_611" x1="89.8431" y1="99.3543" x2="130.699" y2="66.7046" gradientUnits="userSpaceOnUse"><stop stop-color="#D9D9D9"/><stop offset="1" stop-color="white"/></linearGradient><linearGradient id="paint4_linear_182_611" x1="18.8705" y1="99.3998" x2="59.6691" y2="67.2087" gradientUnits="userSpaceOnUse"><stop stop-color="#D9D9D9"/><stop offset="1" stop-color="white"/></linearGradient><linearGradient id="paint5_linear_182_611" x1="10.9891" y1="146.732" x2="48.2188" y2="109.438" gradientUnits="userSpaceOnUse"><stop stop-color="#D9D9D9"/><stop offset="1" stop-color="white"/></linearGradient><linearGradient id="paint6_linear_182_611" x1="57.2244" y1="77.077" x2="98.4106" y2="50.499" gradientUnits="userSpaceOnUse"><stop stop-color="#D9D9D9"/><stop offset="1" stop-color="white"/></linearGradient><linearGradient id="paint7_linear_182_611" x1="88.0612" y1="44.9244" x2="117.781" y2="29.452" gradientUnits="userSpaceOnUse"><stop stop-color="#D9D9D9"/><stop offset="1" stop-color="white"/></linearGradient><linearGradient id="paint8_linear_182_611" x1="43.492" y1="46.4021" x2="73.2393" y2="31.5274" gradientUnits="userSpaceOnUse"><stop stop-color="#D9D9D9"/><stop offset="1" stop-color="white"/></linearGradient><linearGradient id="paint9_linear_182_611" x1="12.6961" y1="181.107" x2="36.0966" y2="151.457" gradientUnits="userSpaceOnUse"><stop stop-color="#D9D9D9"/><stop offset="1" stop-color="white"/></linearGradient><linearGradient id="paint10_linear_182_611" x1="101.986" y1="180.911" x2="125.695" y2="151.469" gradientUnits="userSpaceOnUse"><stop stop-color="#D9D9D9"/><stop offset="1" stop-color="white"/></linearGradient><linearGradient id="paint11_linear_182_611" x1="5.09893" y1="107.869" x2="31.1246" y2="94.7884" gradientUnits="userSpaceOnUse"><stop stop-color="#D9D9D9"/><stop offset="1" stop-color="white"/></linearGradient><linearGradient id="paint12_linear_182_611" x1="130.623" y1="107.935" x2="156.072" y2="95.7159" gradientUnits="userSpaceOnUse"><stop stop-color="#D9D9D9"/><stop offset="1" stop-color="white"/></linearGradient><linearGradient id="paint13_linear_182_611" x1="68.0383" y1="23.2502" x2="93.7654" y2="9.54582" gradientUnits="userSpaceOnUse"><stop stop-color="#D9D9D9"/><stop offset="1" stop-color="white"/></linearGradient><linearGradient id="paint14_linear_182_611" x1="114.868" y1="63.9104" x2="139.678" y2="50.8108" gradientUnits="userSpaceOnUse"><stop stop-color="#D9D9D9"/><stop offset="1" stop-color="white"/></linearGradient><linearGradient id="paint15_linear_182_611" x1="21.2541" y1="63.4403" x2="42.3905" y2="53.6046" gradientUnits="userSpaceOnUse"><stop stop-color="#D9D9D9"/><stop offset="1" stop-color="white"/></linearGradient><linearGradient id="paint16_linear_182_611" x1="137.043" y1="150.645" x2="159.822" y2="139.316" gradientUnits="userSpaceOnUse"><stop stop-color="#D9D9D9"/><stop offset="1" stop-color="white"/></linearGradient><linearGradient id="paint17_linear_182_611" x1="1.58154" y1="150.531" x2="23.9246" y2="140.055" gradientUnits="userSpaceOnUse"><stop stop-color="#D9D9D9"/><stop offset="1" stop-color="white"/></linearGradient></defs></svg>