<svg width="56" height="67" viewBox="0 0 56 67" fill="none" xmlns="http://www.w3.org/2000/svg"><path d="M26.8792 35.2549C27.1134 35.353 27.3366 35.4297 27.5462 35.5355C30.3664 36.9623 33.1792 38.4055 36.0077 39.8191C36.7673 40.1978 37.5707 40.4967 38.3574 40.8251C38.8472 41.0289 38.8692 41.1296 38.4688 41.4554C34.772 44.4469 31.0146 47.3698 27.0967 50.0994C26.7104 50.3668 26.4459 50.4039 26.0596 50.0944C22.5285 47.2691 18.9807 44.4657 15.4412 41.6537C14.976 41.2831 15.0058 41.1057 15.6838 40.8409C19.4543 39.3662 22.9749 37.4468 26.4568 35.448C26.5823 35.3764 26.724 35.3235 26.8792 35.2549Z" fill="#25686B"/><path d="M27.0802 65.7235C25.708 65.9985 24.6354 65.4719 23.5434 64.7119C20.3118 62.4692 17.0175 60.3144 13.7505 58.122C13.636 58.0427 13.5518 57.9238 13.4509 57.8231C13.5842 57.7332 13.7071 57.6061 13.854 57.5608C16.9386 56.6398 20.0259 55.7339 23.1079 54.8128C24.1618 54.4977 25.2041 54.1485 26.2527 53.812C26.9987 53.5736 27.6819 53.8145 28.3682 54.0585C30.5543 54.8286 32.7461 55.5911 34.9322 56.3617C36.0483 56.7536 37.1538 57.1771 38.2809 57.5425C38.801 57.7143 39.3593 57.7753 39.8982 57.8999C40.0341 57.9289 40.1596 58.0005 40.2903 58.0534C40.203 58.1647 40.1376 58.305 40.0231 58.3843C38.4497 59.4909 36.8815 60.6057 35.2861 61.6833C33.41 62.9511 31.5287 64.2143 29.6014 65.4134C29.1931 65.6676 28.5883 65.6493 28.0687 65.7154C27.7446 65.7575 27.4121 65.7235 27.0802 65.7235Z" fill="#25686B"/><path d="M52.5934 44.3254C52.4847 44.5582 52.433 44.7621 52.3101 44.9156C49.6065 48.3549 46.8951 51.7861 44.1863 55.2224L44.088 55.3393C43.3421 56.21 43.571 56.0885 42.4953 55.7678C40.535 55.1827 38.5941 54.5422 36.6584 53.8936C34.6736 53.2262 32.7049 52.5221 30.7285 51.8339C30.5027 51.7541 30.2711 51.6803 30.0531 51.5822C29.9386 51.5294 29.8435 51.4338 29.74 51.3596C29.8357 51.2539 29.9114 51.1217 30.0317 51.045C30.7039 50.6159 31.4336 50.253 32.0625 49.7741C34.5235 47.8944 36.9548 45.98 39.397 44.0819C39.811 43.7561 40.26 43.4623 40.6411 43.1075C41.2809 42.5117 41.9511 42.4406 42.8005 42.6973C45.8198 43.6001 48.9097 44.1663 52.0791 44.2802C52.2124 44.2858 52.3457 44.3041 52.5934 44.3254Z" fill="#25686B"/><path d="M38.0737 24.3662C38.4929 24.5517 38.8766 24.7292 39.2686 24.8903C41.3298 25.7458 43.3935 26.582 45.4489 27.4451C46.6523 27.9484 47.8368 28.4857 49.0318 29.0047C49.4374 29.1795 49.473 29.3966 49.198 29.7382C46.7694 32.7535 44.3491 35.777 41.9288 38.798C41.3894 39.4731 41.3706 39.4731 40.6356 39.0918C37.322 37.3813 34.0057 35.6739 30.69 33.9659C30.2515 33.7387 29.8103 33.5135 29.3748 33.2802C28.9964 33.0794 28.999 32.9045 29.3095 32.6082C31.8907 30.1565 34.4605 27.6967 37.0334 25.2375C37.243 25.0387 37.4229 24.8135 37.6377 24.6204C37.7522 24.5172 37.91 24.4587 38.0737 24.3662Z" fill="#25686B"/><path d="M26.9387 15.5098C27.1426 15.6424 27.3522 15.7507 27.5268 15.8966C29.9444 17.935 32.359 19.9733 34.7662 22.0199C35.7787 22.8804 35.7567 22.8804 34.8315 23.8178C32.3699 26.3142 29.9199 28.8217 27.4641 31.3207C26.9931 31.8 26.9251 31.7949 26.4432 31.3049C24.2242 29.0439 22.0104 26.7778 19.7919 24.5193C19.2336 23.953 18.6643 23.3944 18.082 22.8515C17.7334 22.5231 17.7741 22.2822 18.15 22.0041C20.6601 20.1563 23.1593 18.2949 25.6591 16.4364C25.9612 16.2143 26.2471 15.9734 26.5435 15.7456C26.6496 15.6658 26.7725 15.6104 26.9387 15.5098Z" fill="#25686B"/><path d="M40.505 14.0937C40.4234 14.2553 40.38 14.3824 40.3037 14.483C39.103 16.0187 37.8939 17.5462 36.7041 19.0895C36.4078 19.4763 36.1626 19.4468 35.8171 19.1611C33.734 17.443 31.6378 15.7381 29.5521 14.025C28.907 13.4954 28.9123 13.3764 29.4188 12.7253C30.8835 10.8399 32.3398 8.94689 33.7993 7.05949C33.9112 6.9136 34.0283 6.76822 34.1422 6.62233C34.344 6.35749 34.5374 6.33411 34.8286 6.55116C36.3231 7.65778 37.5593 8.984 38.5337 10.5278C39.0674 11.3746 39.5902 12.2301 40.0883 13.0984C40.2682 13.4105 40.369 13.7627 40.505 14.0937Z" fill="#25686B"/><path d="M19.8324 6.6875C19.9056 6.83847 19.9573 7.00774 20.0582 7.13991C21.5611 9.10458 23.0666 11.0637 24.5752 13.0227C24.8094 13.3272 24.8036 13.5549 24.4581 13.8142C21.8063 15.8027 19.168 17.8096 16.5245 19.8083C16.1403 20.0971 15.9553 20.0361 15.7864 19.6045C15.212 18.138 14.6406 16.671 14.0551 15.2095C13.9762 15.0113 13.8727 14.8075 13.7284 14.6483C13.3474 14.2356 13.4179 13.7959 13.7091 13.4228C15.1738 11.5588 16.6526 9.70287 18.1633 7.87596C18.4655 7.51047 18.9396 7.27512 19.3395 6.98639C19.432 6.92031 19.5439 6.87812 19.6474 6.82474L19.8324 6.6875Z" fill="#25686B"/><path d="M2.20361 58.3857C2.48694 58.4066 2.59567 58.3883 2.68035 58.4228C3.83194 58.923 5.04364 58.8727 6.25795 58.7746C6.89778 58.7243 7.5376 58.6663 8.17168 58.584C9.09745 58.465 9.87633 58.7746 10.5841 59.2936C12.3891 60.6097 14.1476 61.9837 15.9991 63.2357C17.249 64.083 18.6264 64.7581 19.9494 65.5099C20.1512 65.6238 20.3582 65.7325 20.6849 65.9099C20.445 65.9999 20.3336 66.0584 20.2192 66.0792C18.4821 66.3812 16.7451 66.6882 15.0028 66.9688C14.6897 67.0191 14.3572 66.9688 14.0363 66.9505C10.709 66.7543 8.15286 65.1236 5.95581 62.8997C4.85284 61.7798 3.85389 60.567 2.82462 59.381C2.60142 59.1243 2.45975 58.801 2.20361 58.3857Z" fill="#25686B"/><path d="M33.47 65.9636C33.6932 65.7572 33.8239 65.5874 33.9979 65.4893C37.0748 63.79 39.9305 61.7806 42.7485 59.726C43.6633 59.0585 44.6105 58.8654 45.7025 58.9528C47.565 59.0987 49.4108 59.0931 51.1614 58.3255C51.2973 58.2645 51.4552 58.2432 51.7385 58.2828C51.6162 58.5268 51.5425 58.815 51.3601 59.0057C50.0313 60.4035 48.7166 61.8147 47.3277 63.1546C46.3669 64.0782 45.3648 64.9891 44.2566 65.7359C42.7977 66.7179 41.0549 66.9802 39.3016 66.9375C38.5201 66.9167 37.7527 66.6122 36.9713 66.4826C35.9477 66.3128 34.9158 66.1883 33.8892 66.0454C33.7914 66.0322 33.6958 66.0083 33.47 65.9636Z" fill="#25686B"/><path d="M0.12085 33.9114C0.145418 32.6807 0.205533 31.5578 0.861565 30.5625C0.961931 30.4116 1.08477 30.2687 1.22329 30.1442C1.53119 29.8717 1.79517 29.861 2.07588 30.226C4.07116 32.8286 6.06696 35.4313 8.09518 38.0074C8.58289 38.624 9.18978 39.1562 9.75329 39.7174C10.1046 40.0672 10.1072 40.1678 9.61163 40.2893C8.50657 40.5567 7.39837 40.8241 6.27658 41.0228C5.10304 41.2322 3.91068 41.3456 2.73191 41.523C2.17938 41.6079 1.86312 41.4518 1.61535 40.9379C0.66815 38.9682 0.167373 36.9166 0.164237 34.7511C0.164237 34.436 0.134441 34.1233 0.12085 33.9114Z" fill="#25686B"/><path d="M52.1025 41.5844C51.3786 41.4705 50.665 41.3699 49.9572 41.2428C48.158 40.9144 46.3608 40.5784 44.5642 40.2287C44.387 40.1941 44.1721 40.0803 44.0874 39.943C44.0441 39.8688 44.2234 39.6461 44.3352 39.514C45.3101 38.3357 46.3117 37.1762 47.2646 35.9821C48.7215 34.1552 50.148 32.3019 51.5882 30.4618C51.6697 30.356 51.757 30.2503 51.8522 30.1578C52.1815 29.8319 52.4104 29.8294 52.6117 30.2396C52.8898 30.8033 53.1674 31.3884 53.2954 31.9949C53.5918 33.4116 53.6791 34.8516 53.4125 36.2866C53.1809 37.5386 52.9222 38.7855 52.6363 40.0274C52.5218 40.5199 52.3095 40.9912 52.1025 41.5844Z" fill="#25686B"/><path d="M32.1523 5.56332C30.478 7.37396 28.8361 9.1292 27.2245 10.9058C26.9192 11.2393 26.7561 11.2393 26.4728 10.8977C25.12 9.25629 23.742 7.63321 22.3756 6.00251C22.3103 5.92575 22.2528 5.84645 22.144 5.70362C22.43 5.50486 22.6992 5.30916 22.9799 5.12616C23.282 4.933 23.4754 4.73424 23.2794 4.34791C23.2167 4.22083 23.2439 3.96413 23.339 3.86094C24.42 2.69587 25.5063 1.53333 26.6228 0.400281C27.0666 -0.0495851 27.2789 -0.0445059 27.6981 0.421626C28.9072 1.76665 30.086 3.13557 31.2731 4.49635C31.5805 4.85116 31.8716 5.22172 32.1523 5.56332Z" fill="#25686B"/><path d="M48.1746 25.6103C47.736 25.4512 47.4448 25.3668 47.1725 25.2448C44.461 24.0136 41.7465 22.7825 39.0403 21.533C38.425 21.2499 38.4386 21.1782 38.8552 20.6592C40.0612 19.1449 41.2483 17.6174 42.4762 16.1214C42.8029 15.7244 43.2357 15.4067 43.6304 15.0626C44.0282 14.7159 44.4093 14.8638 44.6435 15.2136C45.0052 15.7509 45.3811 16.3095 45.5854 16.9103C46.2467 18.8537 46.8322 20.8209 47.4474 22.7774C47.6492 23.426 47.8614 24.0721 48.0465 24.7258C48.1144 24.9561 48.1202 25.2026 48.1746 25.6103Z" fill="#25686B"/><path d="M5.91455 25.2251C6.07817 24.4042 6.14873 23.6575 6.3803 22.9616C7.00915 21.0579 7.67041 19.1649 8.39231 17.2958C8.61552 16.7239 9.029 16.1943 9.44562 15.7205C9.90615 15.1934 10.4012 15.2147 10.7556 15.8049C11.3463 16.79 11.8523 17.8199 12.3562 18.8497C12.7948 19.7444 13.1429 20.6817 13.6061 21.5662C13.8507 22.0349 13.6333 22.196 13.2658 22.3526C11.7028 23.0114 10.143 23.6737 8.57736 24.3249C7.91035 24.6029 7.23759 24.8571 6.56013 25.1082C6.39651 25.1692 6.20885 25.1748 5.91455 25.2251Z" fill="#25686B"/><path d="M27.8781 35.1875C28.1149 35.2856 28.3381 35.3624 28.5478 35.4681C31.3684 36.895 34.1807 38.3381 37.0093 39.7492C37.7662 40.1304 38.5723 40.4298 39.3564 40.7577C39.8493 40.9615 39.8707 41.0622 39.4708 41.388C35.7704 44.3795 32.0161 47.3024 28.0982 50.0321C27.7119 50.2994 27.4479 50.3365 27.0585 50.027C23.53 47.2017 19.9822 44.3983 16.4402 41.5868C15.9749 41.2157 16.0073 41.0383 16.6853 40.774C20.4563 39.2993 23.9764 37.3799 27.4558 35.3807C27.5838 35.3095 27.7255 35.2561 27.8781 35.1875Z" fill="url(#paint0_linear_301_9707)"/><path d="M28.0814 65.6558C26.7092 65.9308 25.6366 65.4042 24.542 64.6442C21.313 62.402 18.0188 60.2467 14.7517 58.0548C14.6346 57.975 14.5504 57.8561 14.4521 57.7554C14.5854 57.6655 14.7083 57.5384 14.8552 57.4931C17.9372 56.5721 21.0271 55.6667 24.1092 54.7451C25.163 54.43 26.2059 54.0808 27.2539 53.7443C27.9999 53.5064 28.6805 53.7473 29.3694 53.9908C31.5555 54.7609 33.7474 55.5234 35.9334 56.294C37.0495 56.6859 38.1551 57.1094 39.2821 57.4748C39.8022 57.6467 40.3605 57.7077 40.8994 57.8322C41.0353 57.8612 41.1608 57.9328 41.2915 57.9857C41.2042 58.097 41.1388 58.2373 41.0244 58.3166C39.4509 59.4232 37.8827 60.538 36.2873 61.6156C34.4112 62.8839 32.5299 64.1466 30.6026 65.3457C30.1943 65.5999 29.5895 65.5816 29.0699 65.6477C28.7458 65.6899 28.4107 65.6558 28.0814 65.6558Z" fill="url(#paint1_linear_301_9707)"/><path d="M53.5951 44.26C53.4864 44.4928 53.432 44.6966 53.3123 44.8502C50.6087 48.2895 47.8968 51.7232 45.1853 55.1574L45.0902 55.2738C44.3437 56.1446 44.5727 56.0231 43.4974 55.7024C41.5372 55.1173 39.5957 54.4768 37.66 53.8282C35.6752 53.1607 33.704 52.4567 31.7275 51.7684C31.5017 51.6891 31.2727 51.6149 31.0553 51.5168C30.9382 51.4639 30.8457 51.3684 30.739 51.2947C30.8373 51.1884 30.9136 51.0563 31.0307 50.9795C31.7056 50.5505 32.4327 50.1876 33.0615 49.7087C35.5226 47.8289 37.9569 45.9146 40.3992 44.0165C40.8126 43.6907 41.2622 43.3969 41.6433 43.042C42.2831 42.4463 42.9527 42.3751 43.8022 42.6318C46.8215 43.5346 49.9114 44.1014 53.0807 44.2148C53.214 44.2203 53.3473 44.2386 53.5951 44.26Z" fill="url(#paint2_linear_301_9707)"/><path d="M39.0761 24.2988C39.4953 24.4844 39.879 24.6618 40.2711 24.826C42.3296 25.6759 44.396 26.5177 46.4514 27.3777C47.6521 27.881 48.8392 28.4183 50.0342 28.9373C50.4398 29.1147 50.4754 29.3292 50.2004 29.6708C47.7692 32.6862 45.3515 35.7071 42.9281 38.7306C42.3918 39.4031 42.3704 39.4057 41.638 39.0244C38.3244 37.3114 35.0056 35.6065 31.6925 33.899C31.2513 33.6713 30.8127 33.4461 30.3773 33.2158C29.9988 33.012 30.0014 32.8371 30.3119 32.5408C32.8901 30.0891 35.463 27.6294 38.0359 25.1701C38.2429 24.9713 38.4253 24.7462 38.6401 24.553C38.7546 24.4498 38.9125 24.3913 39.0761 24.2988Z" fill="url(#paint3_linear_301_9707)"/><path d="M16.8574 24.2988C17.0153 24.4152 17.2055 24.524 17.3472 24.675C18.9672 26.356 20.5788 28.0452 22.1883 29.7343C23.1574 30.751 24.113 31.7783 25.0905 32.7843C25.3926 33.0964 25.4496 33.2794 24.9922 33.5178C21.3712 35.4077 17.7612 37.3195 14.1481 39.2232C13.8485 39.3818 13.6253 39.2918 13.4267 39.0534C11.9813 37.2982 10.5161 35.5562 9.08434 33.7902C7.87264 32.3024 6.69387 30.7906 5.50151 29.2839C5.12305 28.8077 5.1748 28.7045 5.77071 28.4981C9.35929 27.2613 12.9991 26.1415 16.4026 24.463C16.5249 24.402 16.6582 24.3705 16.8574 24.2988Z" fill="url(#paint4_linear_301_9707)"/><path d="M2.33154 44.2129C2.87885 44.2841 3.29233 44.4137 3.68438 44.3715C4.93947 44.2419 6.19456 44.0858 7.43605 43.8683C8.67493 43.6512 9.90023 43.3574 11.1255 43.0768C11.746 42.9314 12.3613 42.7617 12.9629 42.5578C13.3388 42.4307 13.619 42.4892 13.9159 42.7246C16.6874 44.9037 19.459 47.0799 22.2415 49.2428C23.0339 49.8599 23.8698 50.4236 24.6785 51.0194C24.7898 51.0987 24.9613 51.2684 24.9367 51.3188C24.8714 51.4484 24.7302 51.5861 24.5886 51.6309C21.7627 52.5286 18.9284 53.4049 16.1051 54.3026C14.6373 54.7708 13.1783 55.2634 11.7214 55.761C11.3759 55.8805 11.1715 55.7641 10.9703 55.5099C9.60593 53.7969 8.22015 52.0996 6.87254 50.3707C5.49775 48.6048 4.15798 46.8125 2.81037 45.0257C2.64153 44.798 2.5192 44.5357 2.33154 44.2129Z" fill="url(#paint5_linear_301_9707)"/><path d="M27.9403 15.4424C28.1447 15.5751 28.3543 15.6833 28.5284 15.8292C30.946 17.8676 33.3611 19.9065 35.7678 21.953C36.7782 22.8131 36.7589 22.8131 35.8331 23.7504C33.3721 26.2473 30.922 28.7543 28.4662 31.2533C27.9952 31.7326 27.9267 31.7275 27.4422 31.2375C25.2263 28.9765 23.0125 26.7104 20.794 24.4519C20.2357 23.8856 19.6665 23.327 19.0841 22.7841C18.7355 22.4557 18.7736 22.2148 19.1521 21.9367C21.6623 20.0864 24.1615 18.2275 26.6607 16.3691C26.9633 16.1469 27.2487 15.906 27.5457 15.6782C27.6518 15.5989 27.7715 15.543 27.9403 15.4424Z" fill="url(#paint6_linear_301_9707)"/><path d="M41.5043 14.0275C41.4222 14.1892 41.3815 14.3163 41.3051 14.4169C40.1044 15.9525 38.8932 17.4801 37.7061 19.0238C37.4092 19.4102 37.164 19.3812 36.8185 19.095C34.7359 17.3769 32.6392 15.672 30.5541 13.9589C29.9085 13.4267 29.9142 13.3103 30.4202 12.6591C31.8855 10.7737 33.3392 8.88075 34.8013 6.99335C34.9126 6.84492 35.0297 6.70208 35.1416 6.5567C35.3454 6.29187 35.5362 6.26543 35.83 6.48248C37.325 7.59164 38.5608 8.91532 39.5357 10.4616C40.0694 11.3085 40.5895 12.164 41.0903 13.0297C41.2701 13.3418 41.3705 13.6997 41.5043 14.0275Z" fill="url(#paint7_linear_301_9707)"/><path d="M20.8318 6.62207C20.9081 6.77304 20.9599 6.94231 21.0607 7.07448C22.561 9.03915 24.0691 10.9982 25.5746 12.9573C25.8114 13.2643 25.8061 13.4895 25.4601 13.7493C22.8088 15.7373 20.1705 17.7442 17.5239 19.7429C17.1428 20.0316 16.9578 19.9706 16.7889 19.5391C16.2145 18.0726 15.64 16.6055 15.0571 15.1441C14.9782 14.9459 14.8721 14.742 14.7278 14.5829C14.3493 14.1702 14.4173 13.7305 14.7116 13.3574C16.1763 11.4933 17.652 9.63745 19.1658 7.81054C19.468 7.44556 19.9416 7.2097 20.342 6.92097C20.4345 6.85489 20.5458 6.8127 20.6493 6.75983L20.8318 6.62207Z" fill="url(#paint8_linear_301_9707)"/><path d="M3.20557 58.3203C3.48575 58.3386 3.59762 58.3229 3.68178 58.3574C4.83336 58.8576 6.04506 58.8073 7.25938 58.7097C7.8992 58.6594 8.53903 58.6009 9.17311 58.5191C10.0989 58.3996 10.8778 58.7097 11.5855 59.2282C13.3905 60.5442 15.149 61.9182 17.0005 63.1707C18.2504 64.0176 19.6278 64.6926 20.9509 65.445C21.1526 65.5583 21.3565 65.6671 21.6863 65.8445C21.4464 65.9345 21.3351 65.9929 21.218 66.0138C19.4809 66.3157 17.7439 66.6228 16.0042 66.9034C15.6911 66.9537 15.3592 66.9033 15.0377 66.885C11.7079 66.6888 9.15429 65.0581 6.95723 62.8342C5.85426 61.7144 4.8527 60.502 3.82605 59.3156C3.60284 59.0589 3.46118 58.7361 3.20557 58.3203Z" fill="url(#paint9_linear_301_9707)"/><path d="M34.4717 65.8961C34.6949 65.6897 34.8256 65.5174 34.997 65.4223C38.0765 63.7225 40.9322 61.7131 43.7502 59.6584C44.665 58.9915 45.6127 58.7978 46.7042 58.8853C48.5667 59.0312 50.4125 59.0256 52.1631 58.258C52.299 58.197 52.4569 58.1757 52.7402 58.2158C52.6148 58.4593 52.5442 58.7475 52.3618 58.9381C51.033 60.336 49.7183 61.7471 48.3294 63.0871C47.3686 64.0112 46.3639 64.9216 45.2557 65.6683C43.7994 66.6504 42.0566 66.9127 40.3033 66.8705C39.5218 66.8492 38.7545 66.5447 37.973 66.4151C36.9495 66.2453 35.9176 66.1212 34.8909 65.9779C34.7932 65.9647 34.6975 65.9408 34.4717 65.8961Z" fill="url(#paint10_linear_301_9707)"/><path d="M1.1228 33.8459C1.14737 32.6148 1.20435 31.4924 1.86352 30.4966C1.96127 30.3456 2.08673 30.2028 2.22577 30.0813C2.53314 29.8058 2.79712 29.7951 3.07783 30.1606C5.07311 32.7632 7.06892 35.3653 9.09713 37.9415C9.58484 38.5586 10.1917 39.0908 10.7552 39.652C11.1065 40.0012 11.1091 40.1019 10.611 40.2239C9.50852 40.4912 8.40032 40.7586 7.27853 40.9569C6.10499 41.1663 4.91263 41.2802 3.73125 41.4576C3.18133 41.5419 2.86508 41.3859 2.61783 40.8725C1.67011 38.9027 1.16933 36.8506 1.16619 34.6852C1.16619 34.37 1.13378 34.0574 1.1228 33.8459Z" fill="url(#paint11_linear_301_9707)"/><path d="M53.1053 41.5194C52.3813 41.4055 51.6652 41.3049 50.96 41.1778C49.1602 40.8494 47.361 40.5129 45.5664 40.1637C45.3871 40.1291 45.1744 40.0153 45.0902 39.8775C45.0437 39.8038 45.2261 39.5812 45.3354 39.449C46.3124 38.2707 47.3144 37.1112 48.2674 35.9172C49.7243 34.0902 51.1477 32.2369 52.5883 30.3968C52.6725 30.291 52.7572 30.1853 52.8549 30.0897C53.1842 29.767 53.4132 29.7644 53.6145 30.1746C53.892 30.7384 54.1701 31.3234 54.2982 31.9299C54.5946 33.3461 54.6819 34.7867 54.4148 36.2216C54.1837 37.4736 53.9223 38.7206 53.639 39.9624C53.5245 40.455 53.3123 40.9262 53.1053 41.5194Z" fill="url(#paint12_linear_301_9707)"/><path d="M33.1535 5.49594C31.4792 7.30659 29.8373 9.06182 28.223 10.8384C27.9209 11.1719 27.7573 11.1719 27.4745 10.8308C26.1185 9.1889 24.7437 7.56634 23.3768 5.93513C23.3114 5.85837 23.2544 5.77908 23.1426 5.63624C23.4311 5.43748 23.7009 5.24178 23.981 5.05878C24.2832 4.86562 24.4766 4.66432 24.2806 4.28054C24.2178 4.15345 24.2456 3.89676 24.3407 3.79357C25.4217 2.62849 26.5079 1.46645 27.624 0.332894C28.0678 -0.116972 28.28 -0.111885 28.6993 0.354248C29.9083 1.69927 31.0871 3.06819 32.2742 4.42897C32.5816 4.78378 32.8733 5.15435 33.1535 5.49594Z" fill="url(#paint13_linear_301_9707)"/><path d="M49.177 25.5439C48.7384 25.3848 48.4473 25.3004 48.1749 25.1784C45.463 23.9472 42.7463 22.7161 40.0427 21.4666C39.4275 21.1809 39.4411 21.1118 39.8545 20.5928C41.061 19.0785 42.2508 17.551 43.4787 16.055C43.8054 15.658 44.2382 15.3403 44.6329 14.9962C45.0275 14.6495 45.4117 14.7974 45.6454 15.1472C46.0077 15.6845 46.3809 16.2431 46.5879 16.8439C47.2465 18.7873 47.8346 20.7545 48.4473 22.711C48.6511 23.3596 48.8639 24.0057 49.0489 24.6594C49.1169 24.8902 49.1221 25.1362 49.177 25.5439Z" fill="url(#paint14_linear_301_9707)"/><path d="M6.91699 25.1597C7.08061 24.3388 7.15118 23.592 7.38014 22.8961C8.00899 20.9925 8.67025 19.0995 9.39476 17.2304C9.61797 16.6585 10.0315 16.1288 10.4481 15.6551C10.9086 15.1279 11.4036 15.1493 11.758 15.7395C12.3461 16.7246 12.8547 17.7545 13.3587 18.7843C13.7972 19.679 14.1454 20.6163 14.6085 21.5008C14.8505 21.9695 14.6357 22.1306 14.2682 22.2872C12.7052 22.9465 11.1454 23.6083 9.57981 24.2595C8.9128 24.5375 8.24004 24.7917 7.56205 25.0433C7.39896 25.1038 7.21129 25.1094 6.91699 25.1597Z" fill="url(#paint15_linear_301_9707)"/><path d="M47.3877 56.4314C47.5539 56.1325 47.6135 55.9815 47.7144 55.8595C49.947 53.1329 52.1875 50.4108 54.4174 47.6816C54.7248 47.3029 54.9674 46.8764 55.2423 46.4743C55.4791 46.1246 55.7081 46.1195 55.822 46.5216C55.9501 46.9745 56.051 47.4803 55.9721 47.9358C55.8006 48.9392 55.5554 49.937 55.2611 50.914C54.717 52.717 53.821 54.3427 52.4708 55.7299C52.0244 56.1879 51.5068 56.4237 50.8696 56.4288C49.7672 56.437 48.6616 56.4314 47.3877 56.4314Z" fill="url(#paint16_linear_301_9707)"/><path d="M8.10079 56.4367C6.89745 56.363 5.6915 56.2938 4.48817 56.2038C4.3303 56.1932 4.15884 56.0925 4.03077 55.9919C2.24197 54.5518 1.06582 52.7411 0.502311 50.5726C0.317262 49.8712 0.11026 49.1641 0.0287134 48.4494C-0.0423786 47.8323 0.0339422 47.1999 0.0914431 46.5777C0.105034 46.4079 0.281716 46.2519 0.415014 46.043C2.66957 49.7385 5.29108 53.0904 8.26179 56.1988C8.20742 56.2781 8.15567 56.3574 8.10079 56.4367Z" fill="url(#paint17_linear_301_9707)"/><defs><linearGradient id="paint0_linear_301_9707" x1="17.7099" y1="46.4814" x2="32.6951" y2="32.9094" gradientUnits="userSpaceOnUse"><stop stop-color="#E3C74F"/><stop offset="1" stop-color="#8C6B36"/></linearGradient><linearGradient id="paint1_linear_301_9707" x1="16.2504" y1="62.709" x2="27.9692" y2="47.6804" gradientUnits="userSpaceOnUse"><stop stop-color="#E3C74F"/><stop offset="1" stop-color="#8C6B36"/></linearGradient><linearGradient id="paint2_linear_301_9707" x1="32.2701" y1="52.5797" x2="45.7191" y2="39.3862" gradientUnits="userSpaceOnUse"><stop stop-color="#E3C74F"/><stop offset="1" stop-color="#8C6B36"/></linearGradient><linearGradient id="paint3_linear_301_9707" x1="31.4452" y1="35.5353" x2="45.985" y2="24.1648" gradientUnits="userSpaceOnUse"><stop stop-color="#E3C74F"/><stop offset="1" stop-color="#8C6B36"/></linearGradient><linearGradient id="paint4_linear_301_9707" x1="6.605" y1="35.5516" x2="21.1205" y2="24.3437" gradientUnits="userSpaceOnUse"><stop stop-color="#E3C74F"/><stop offset="1" stop-color="#8C6B36"/></linearGradient><linearGradient id="paint5_linear_301_9707" x1="3.84591" y1="52.4793" x2="17.1588" y2="39.4289" gradientUnits="userSpaceOnUse"><stop stop-color="#E3C74F"/><stop offset="1" stop-color="#8C6B36"/></linearGradient><linearGradient id="paint6_linear_301_9707" x1="20.0287" y1="27.5674" x2="34.6257" y2="18.3494" gradientUnits="userSpaceOnUse"><stop stop-color="#E3C74F"/><stop offset="1" stop-color="#8C6B36"/></linearGradient><linearGradient id="paint7_linear_301_9707" x1="30.8212" y1="16.0679" x2="41.3179" y2="10.7202" gradientUnits="userSpaceOnUse"><stop stop-color="#E3C74F"/><stop offset="1" stop-color="#8C6B36"/></linearGradient><linearGradient id="paint8_linear_301_9707" x1="15.2223" y1="16.5959" x2="25.7229" y2="11.4576" gradientUnits="userSpaceOnUse"><stop stop-color="#E3C74F"/><stop offset="1" stop-color="#8C6B36"/></linearGradient><linearGradient id="paint9_linear_301_9707" x1="4.4434" y1="64.774" x2="12.8531" y2="54.3464" gradientUnits="userSpaceOnUse"><stop stop-color="#E3C74F"/><stop offset="1" stop-color="#8C6B36"/></linearGradient><linearGradient id="paint10_linear_301_9707" x1="35.6954" y1="64.7046" x2="44.2123" y2="54.3546" gradientUnits="userSpaceOnUse"><stop stop-color="#E3C74F"/><stop offset="1" stop-color="#8C6B36"/></linearGradient><linearGradient id="paint11_linear_301_9707" x1="1.78459" y1="38.5794" x2="10.9721" y2="34.0607" gradientUnits="userSpaceOnUse"><stop stop-color="#E3C74F"/><stop offset="1" stop-color="#8C6B36"/></linearGradient><linearGradient id="paint12_linear_301_9707" x1="45.7185" y1="38.6036" x2="54.6967" y2="34.3849" gradientUnits="userSpaceOnUse"><stop stop-color="#E3C74F"/><stop offset="1" stop-color="#8C6B36"/></linearGradient><linearGradient id="paint13_linear_301_9707" x1="23.8132" y1="8.31561" x2="32.9029" y2="3.57738" gradientUnits="userSpaceOnUse"><stop stop-color="#E3C74F"/><stop offset="1" stop-color="#8C6B36"/></linearGradient><linearGradient id="paint14_linear_301_9707" x1="40.2043" y1="22.8574" x2="48.9688" y2="18.3288" gradientUnits="userSpaceOnUse"><stop stop-color="#E3C74F"/><stop offset="1" stop-color="#8C6B36"/></linearGradient><linearGradient id="paint15_linear_301_9707" x1="7.4392" y1="22.6893" x2="14.8932" y2="19.2949" gradientUnits="userSpaceOnUse"><stop stop-color="#E3C74F"/><stop offset="1" stop-color="#8C6B36"/></linearGradient><linearGradient id="paint16_linear_301_9707" x1="47.9648" y1="53.8791" x2="56.0051" y2="49.966" gradientUnits="userSpaceOnUse"><stop stop-color="#E3C74F"/><stop offset="1" stop-color="#8C6B36"/></linearGradient><linearGradient id="paint17_linear_301_9707" x1="0.55354" y1="53.8381" x2="8.4338" y2="50.2221" gradientUnits="userSpaceOnUse"><stop stop-color="#E3C74F"/><stop offset="1" stop-color="#8C6B36"/></linearGradient></defs></svg>