<svg width="52" height="59" viewBox="0 0 52 59" fill="none" xmlns="http://www.w3.org/2000/svg"><path d="M24.7765 30.8926C24.9905 30.9785 25.1945 31.0458 25.3861 31.1384C27.9634 32.3887 30.534 33.6532 33.119 34.8919C33.8131 35.2237 34.5474 35.4856 35.2664 35.7734C35.714 35.952 35.7341 36.0402 35.3681 36.3257C31.9897 38.9469 28.5558 41.508 24.9753 43.8999C24.6222 44.1341 24.3805 44.1667 24.0275 43.8954C20.8004 41.4198 17.5581 38.9634 14.3235 36.4994C13.8983 36.1747 13.9255 36.0192 14.5451 35.7872C17.991 34.4951 21.2084 32.8132 24.3905 31.0618C24.5052 30.999 24.6346 30.9527 24.7765 30.8926Z" fill="#F9F9F9"/><path d="M24.9606 57.5896C23.7066 57.8306 22.7263 57.3691 21.7283 56.7033C18.7751 54.7381 15.7644 52.85 12.7787 50.929C12.6741 50.8595 12.5971 50.7553 12.5049 50.6671C12.6268 50.5882 12.739 50.4769 12.8733 50.4372C15.6923 49.6302 18.5137 48.8364 21.3304 48.0294C22.2935 47.7532 23.2461 47.4472 24.2044 47.1524C24.8861 46.9435 25.5105 47.1546 26.1377 47.3684C28.1355 48.0432 30.1386 48.7113 32.1365 49.3865C33.1564 49.7299 34.1668 50.101 35.1968 50.4212C35.6721 50.5718 36.1823 50.6252 36.6748 50.7343C36.7991 50.7597 36.9137 50.8225 37.0331 50.8688C36.9534 50.9664 36.8936 51.0893 36.789 51.1588C35.3511 52.1285 33.9179 53.1052 32.4599 54.0495C30.7454 55.1604 29.026 56.2672 27.2647 57.3179C26.8916 57.5406 26.3388 57.5246 25.864 57.5825C25.5678 57.6195 25.264 57.5896 24.9606 57.5896Z" fill="#F9F9F9"/><path d="M48.2767 38.8389C48.1773 39.0429 48.13 39.2215 48.0177 39.356C45.547 42.3697 43.069 45.3762 40.5935 48.3872L40.5036 48.4896C39.8219 49.2526 40.0312 49.1461 39.048 48.8651C37.2566 48.3524 35.4828 47.7912 33.7138 47.2229C31.8999 46.638 30.1008 46.0212 28.2945 45.4181C28.0881 45.3481 27.8765 45.2835 27.6773 45.1976C27.5726 45.1513 27.4857 45.0675 27.3911 45.0025C27.4785 44.9099 27.5478 44.7941 27.6577 44.7268C28.272 44.3509 28.9389 44.0328 29.5136 43.6133C31.7627 41.9662 33.9846 40.2887 36.2166 38.6256C36.5949 38.3401 37.0053 38.0826 37.3535 37.7717C37.9383 37.2497 38.5507 37.1874 39.327 37.4123C42.0863 38.2033 44.9102 38.6995 47.8066 38.7993C47.9284 38.8042 48.0502 38.8202 48.2767 38.8389Z" fill="#F9F9F9"/><path d="M35.0074 21.3496C35.3906 21.5122 35.7412 21.6676 36.0995 21.8088C37.9832 22.5585 39.8692 23.2912 41.7476 24.0475C42.8474 24.4884 43.9299 24.9592 45.0219 25.414C45.3927 25.5672 45.4251 25.7574 45.1739 26.0567C42.9544 28.6989 40.7425 31.3481 38.5307 33.9952C38.0376 34.5867 38.0204 34.5867 37.3488 34.2527C34.3205 32.7539 31.2898 31.2577 28.2596 29.7612C27.8588 29.5621 27.4556 29.3647 27.0577 29.1603C26.7118 28.9844 26.7142 28.8311 26.9979 28.5715C29.3569 26.4233 31.7054 24.2679 34.0568 22.113C34.2483 21.9389 34.4127 21.7416 34.609 21.5723C34.7136 21.4819 34.8579 21.4307 35.0074 21.3496Z" fill="#F9F9F9"/><path d="M24.831 13.5898C25.0173 13.7061 25.2089 13.801 25.3684 13.9288C27.5779 15.7149 29.7845 17.501 31.9844 19.2942C32.9098 20.0483 32.8897 20.0483 32.0441 20.8696C29.7945 23.057 27.5555 25.2542 25.3111 27.4438C24.8807 27.8639 24.8186 27.8594 24.3781 27.43C22.3502 25.4489 20.327 23.4632 18.2996 21.4843C17.7894 20.9881 17.2691 20.4986 16.737 20.0229C16.4183 19.7351 16.4556 19.524 16.7991 19.2804C19.0931 17.6613 21.3771 16.0302 23.6615 14.4018C23.9377 14.2072 24.199 13.9961 24.4698 13.7965C24.5668 13.7266 24.6791 13.678 24.831 13.5898Z" fill="#F9F9F9"/><path d="M37.2293 12.349C37.1547 12.4906 37.1151 12.602 37.0454 12.6902C35.948 14.0358 34.843 15.3742 33.7558 16.7265C33.4849 17.0654 33.2608 17.0396 32.9451 16.7893C31.0413 15.2838 29.1257 13.7899 27.2195 12.2889C26.63 11.8248 26.6348 11.7205 27.0977 11.15C28.4363 9.49793 29.7672 7.83923 31.101 6.18543C31.2033 6.05759 31.3103 5.93021 31.4144 5.80237C31.5988 5.57032 31.7756 5.54983 32.0417 5.74002C33.4075 6.70967 34.5373 7.87174 35.4278 9.22445C35.9155 9.9665 36.3933 10.7161 36.8485 11.4769C37.0129 11.7504 37.1051 12.059 37.2293 12.349Z" fill="#F9F9F9"/><path d="M18.3366 5.85938C18.4035 5.99166 18.4508 6.13998 18.543 6.25579C19.9164 7.97729 21.2923 9.6939 22.671 11.4105C22.885 11.6773 22.8797 11.8768 22.564 12.104C20.1405 13.8464 17.7294 15.6049 15.3136 17.3563C14.9624 17.6093 14.7933 17.5558 14.639 17.1777C14.114 15.8927 13.5919 14.6072 13.0568 13.3267C12.9847 13.1529 12.8901 12.9743 12.7582 12.8349C12.41 12.4733 12.4745 12.088 12.7406 11.761C14.0791 10.1277 15.4306 8.50154 16.8112 6.90074C17.0873 6.58049 17.5206 6.37427 17.8861 6.12127C17.9707 6.06337 18.0729 6.0264 18.1675 5.97963L18.3366 5.85938Z" fill="#F9F9F9"/><path d="M2.2262 51.1602C2.48512 51.1784 2.58449 51.1624 2.66188 51.1927C3.7143 51.631 4.82167 51.5869 5.93142 51.5009C6.51615 51.4568 7.10088 51.406 7.68036 51.3339C8.5264 51.2296 9.23821 51.5009 9.88505 51.9557C11.5346 53.1088 13.1417 54.3128 14.8338 55.4098C15.976 56.1523 17.2348 56.7438 18.4439 57.4026C18.6283 57.5023 18.8175 57.5977 19.1161 57.7531C18.8968 57.8319 18.7951 57.8832 18.6904 57.9014C17.103 58.166 15.5155 58.435 13.9232 58.6809C13.6371 58.725 13.3333 58.6809 13.0399 58.6649C9.99923 58.4929 7.66316 57.0641 5.65529 55.1154C4.6473 54.1342 3.73437 53.0714 2.79373 52.0323C2.58974 51.8073 2.46028 51.5241 2.2262 51.1602Z" fill="#F9F9F9"/><path d="M30.8002 57.7986C31.0042 57.6177 31.1236 57.4689 31.2827 57.383C34.0945 55.894 36.7043 54.1333 39.2797 52.3329C40.1158 51.7481 40.9814 51.5789 41.9794 51.6555C43.6815 51.7833 45.3683 51.7784 46.9682 51.1058C47.0924 51.0524 47.2367 51.0337 47.4956 51.0684C47.3838 51.2822 47.3165 51.5348 47.1497 51.7018C45.9354 52.9267 44.7339 54.1631 43.4646 55.3372C42.5865 56.1465 41.6707 56.9447 40.658 57.599C39.3246 58.4595 37.7319 58.6894 36.1296 58.652C35.4154 58.6337 34.7142 58.3669 34 58.2533C33.0646 58.1046 32.1215 57.9954 31.1833 57.8703C31.094 57.8587 31.0065 57.8378 30.8002 57.7986Z" fill="#F9F9F9"/><path d="M0.322815 29.7154C0.345268 28.6371 0.400206 27.6532 0.999748 26.7811C1.09147 26.6488 1.20373 26.5236 1.33033 26.4145C1.61171 26.1757 1.85296 26.1664 2.1095 26.4862C3.93296 28.7667 5.75691 31.0472 7.61047 33.3045C8.05619 33.8448 8.61082 34.3111 9.12581 34.8029C9.44684 35.1093 9.44923 35.1975 8.99635 35.304C7.98644 35.5382 6.97367 35.7725 5.94847 35.9467C4.87599 36.1302 3.7863 36.2295 2.70904 36.385C2.20408 36.4593 1.91506 36.3226 1.68862 35.8723C0.822987 34.1463 0.365332 32.3487 0.362466 30.4512C0.362466 30.1751 0.335236 29.9012 0.322815 29.7154Z" fill="#F9F9F9"/><path d="M47.8283 36.4378C47.1667 36.338 46.5146 36.2498 45.8677 36.1385C44.2234 35.8507 42.581 35.5563 40.9391 35.2499C40.7771 35.2196 40.5808 35.1198 40.5034 34.9996C40.4637 34.9346 40.6276 34.7395 40.7298 34.6236C41.6208 33.5912 42.5361 32.5752 43.407 31.529C44.7384 29.9282 46.0421 28.3042 47.3582 26.6918C47.4327 26.5992 47.5125 26.5065 47.5995 26.4255C47.9004 26.1399 48.1097 26.1377 48.2936 26.4972C48.5477 26.9911 48.8014 27.5038 48.9185 28.0352C49.1893 29.2765 49.2691 30.5384 49.0255 31.7958C48.8138 32.8928 48.5774 33.9854 48.3161 35.0735C48.2114 35.5051 48.0175 35.918 47.8283 36.4378Z" fill="#F9F9F9"/><path d="M29.5957 4.87431C28.0655 6.46086 26.565 7.99885 25.0922 9.55555C24.8132 9.84774 24.6642 9.84775 24.4052 9.54843C23.1689 8.11021 21.9096 6.68801 20.6608 5.25914C20.6011 5.19188 20.5486 5.1224 20.4492 4.99724C20.7105 4.82309 20.9566 4.6516 21.2131 4.49126C21.4892 4.322 21.666 4.14784 21.4868 3.80933C21.4295 3.69798 21.4543 3.47305 21.5413 3.38263C22.5292 2.36176 23.5219 1.34311 24.5423 0.35029C24.9479 -0.0438973 25.1419 -0.0394467 25.525 0.368993C26.63 1.54755 27.7073 2.74704 28.7922 3.93939C29.0731 4.25029 29.3392 4.57499 29.5957 4.87431Z" fill="#F9F9F9"/><path d="M44.2386 22.4406C43.8378 22.3011 43.5717 22.2272 43.3228 22.1203C40.8448 21.0415 38.364 19.9627 35.8908 18.8679C35.3286 18.6198 35.341 18.557 35.7217 18.1023C36.8238 16.7754 37.9087 15.4369 39.0309 14.1261C39.3295 13.7782 39.725 13.4999 40.0857 13.1983C40.4493 12.8945 40.7975 13.0242 41.0116 13.3306C41.3421 13.8014 41.6856 14.2909 41.8724 14.8174C42.4767 16.5202 43.0118 18.2439 43.5741 19.9583C43.7585 20.5266 43.9524 21.0927 44.1215 21.6655C44.1836 21.8673 44.1889 22.0833 44.2386 22.4406Z" fill="#F9F9F9"/><path d="M5.61755 22.1046C5.76708 21.3852 5.83157 20.7309 6.0432 20.1211C6.6179 18.4531 7.22222 16.7944 7.88195 15.1566C8.08594 14.6555 8.46382 14.1914 8.84456 13.7763C9.26544 13.3144 9.71785 13.3331 10.0417 13.8502C10.5816 14.7134 11.044 15.6158 11.5045 16.5182C11.9053 17.3022 12.2235 18.1235 12.6468 18.8985C12.8703 19.3092 12.6716 19.4504 12.3358 19.5875C10.9074 20.1648 9.48185 20.7452 8.05107 21.3157C7.4415 21.5594 6.82667 21.7821 6.20754 22.0021C6.05801 22.0556 5.88651 22.0605 5.61755 22.1046Z" fill="#F9F9F9"/><path d="M25.6897 30.832C25.9061 30.918 26.1101 30.9853 26.3016 31.0779C28.8794 32.3282 31.4496 33.5927 34.0345 34.8291C34.7263 35.1632 35.4629 35.4255 36.1795 35.7128C36.63 35.8914 36.6496 35.9796 36.2841 36.2651C32.9023 38.8864 29.4713 41.4475 25.8908 43.8393C25.5378 44.0736 25.2965 44.1061 24.9406 43.8349C21.716 41.3593 18.4737 38.9028 15.2366 36.4393C14.8114 36.1141 14.8411 35.9587 15.4607 35.7271C18.907 34.4349 22.1239 32.7531 25.3037 31.0013C25.4207 30.9389 25.5502 30.8922 25.6897 30.832Z" fill="url(#paint0_linear_273_1422)"/><path d="M25.8757 57.5307C24.6217 57.7717 23.6414 57.3103 22.641 56.6444C19.6902 54.6797 16.6795 52.7912 13.6938 50.8705C13.5868 50.8006 13.5099 50.6964 13.42 50.6082C13.5419 50.5294 13.6541 50.418 13.7884 50.3784C16.605 49.5713 19.4288 48.778 22.2455 47.9705C23.2086 47.6943 24.1616 47.3883 25.1195 47.0935C25.8012 46.885 26.4232 47.0962 27.0528 47.3095C29.0506 47.9843 31.0537 48.6524 33.0516 49.3277C34.0715 49.6711 35.0819 50.0421 36.1119 50.3623C36.5872 50.5129 37.0974 50.5663 37.5899 50.6755C37.7142 50.7009 37.8288 50.7637 37.9482 50.81C37.8685 50.9075 37.8087 51.0305 37.7041 51.0999C36.2662 52.0696 34.833 53.0464 33.375 53.9906C31.6605 55.1019 29.9411 56.2083 28.1798 57.2591C27.8067 57.4818 27.2539 57.4657 26.7791 57.5236C26.4829 57.5606 26.1767 57.5307 25.8757 57.5307Z" fill="url(#paint1_linear_273_1422)"/><path d="M49.192 38.7823C49.0926 38.9863 49.0429 39.1649 48.9335 39.2994C46.4627 42.313 43.9843 45.3218 41.5064 48.331L41.4194 48.433C40.7372 49.196 40.9465 49.0895 39.9638 48.8084C38.1723 48.2958 36.3981 47.7346 34.6291 47.1662C32.8152 46.5814 31.0137 45.9645 29.2074 45.3614C29.001 45.2919 28.7918 45.2269 28.593 45.1409C28.486 45.0946 28.4015 45.0109 28.304 44.9463C28.3938 44.8532 28.4636 44.7374 28.5706 44.6702C29.1873 44.2942 29.8518 43.9762 30.4265 43.5566C32.6757 41.9095 34.9004 40.2321 37.1323 38.5689C37.5102 38.2834 37.9211 38.026 38.2693 37.7151C38.854 37.1931 39.466 37.1307 40.2423 37.3556C43.0016 38.1467 45.8255 38.6433 48.7219 38.7426C48.8437 38.7475 48.9655 38.7636 49.192 38.7823Z" fill="url(#paint2_linear_273_1422)"/><path d="M35.923 21.291C36.3062 21.4536 36.6568 21.609 37.0151 21.7529C38.8964 22.4976 40.7848 23.2352 42.6632 23.9889C43.7605 24.4298 44.8455 24.9006 45.9375 25.3554C46.3082 25.5108 46.3407 25.6988 46.0894 25.9981C43.8676 28.6403 41.6581 31.2873 39.4434 33.9366C38.9532 34.5259 38.9336 34.5281 38.2644 34.1941C35.2361 32.693 32.203 31.1991 29.1752 29.703C28.772 29.5035 28.3712 29.3061 27.9732 29.1044C27.6274 28.9258 27.6298 28.7725 27.9135 28.5129C30.2697 26.3647 32.621 24.2093 34.9724 22.0544C35.1615 21.8803 35.3283 21.683 35.5246 21.5137C35.6292 21.4233 35.7735 21.3721 35.923 21.291Z" fill="url(#paint3_linear_273_1422)"/><path d="M15.6177 21.291C15.7619 21.393 15.9358 21.4883 16.0653 21.6206C17.5458 23.0936 19.0186 24.5737 20.4895 26.0538C21.3752 26.9446 22.2485 27.8448 23.1418 28.7262C23.4179 28.9997 23.47 29.1601 23.052 29.369C19.7428 31.025 16.4437 32.7002 13.1416 34.3682C12.8679 34.5072 12.6639 34.4284 12.4824 34.2195C11.1615 32.6815 9.82242 31.155 8.51394 29.6077C7.40658 28.304 6.32931 26.9793 5.23962 25.6591C4.89375 25.2418 4.94105 25.1514 5.48565 24.9705C8.76522 23.8869 12.0916 22.9056 15.2021 21.4349C15.3138 21.3814 15.4357 21.3538 15.6177 21.291Z" fill="url(#paint4_linear_273_1422)"/><path d="M2.3432 38.7421C2.84338 38.8045 3.22125 38.9181 3.57955 38.8811C4.72656 38.7675 5.87357 38.6308 7.00816 38.4401C8.14036 38.25 9.26014 37.9925 10.3799 37.7466C10.947 37.6193 11.5093 37.4705 12.0591 37.2919C12.4026 37.1805 12.6587 37.2318 12.93 37.438C15.4629 39.3474 17.9958 41.2542 20.5387 43.1495C21.2629 43.6902 22.0268 44.1841 22.7658 44.7062C22.8676 44.7756 23.0243 44.9244 23.0018 44.9685C22.9421 45.0821 22.8131 45.2028 22.6837 45.242C20.1011 46.0286 17.5109 46.7965 14.9307 47.5831C13.5893 47.9933 12.2559 48.4249 10.9245 48.8609C10.6088 48.9656 10.422 48.8636 10.238 48.6409C8.99119 47.1399 7.72474 45.6527 6.49318 44.1378C5.23676 42.5905 4.01236 41.02 2.78079 39.4543C2.62649 39.2548 2.5147 39.025 2.3432 38.7421Z" fill="url(#paint5_linear_273_1422)"/><path d="M25.7462 13.5312C25.933 13.6475 26.1246 13.7424 26.2836 13.8702C28.4931 15.6563 30.7002 17.4428 32.8996 19.236C33.8231 19.9897 33.8054 19.9897 32.9593 20.811C30.7102 22.9989 28.4711 25.1956 26.2268 27.3852C25.7964 27.8053 25.7338 27.8008 25.2909 27.3714C23.2659 25.3903 21.2427 23.4046 19.2153 21.4257C18.7051 20.9295 18.1848 20.44 17.6526 19.9643C17.334 19.6766 17.3689 19.4654 17.7147 19.2218C20.0088 17.6005 22.2928 15.9716 24.5767 14.3432C24.8533 14.1486 25.1142 13.9375 25.3855 13.7379C25.4825 13.6684 25.5919 13.6194 25.7462 13.5312Z" fill="url(#paint6_linear_273_1422)"/><path d="M38.143 12.2915C38.068 12.4331 38.0307 12.5445 37.9609 12.6327C36.8636 13.9783 35.7567 15.3167 34.6718 16.6694C34.4005 17.0079 34.1764 16.9825 33.8606 16.7318C31.9574 15.2263 30.0413 13.7324 28.1356 12.2314C27.5456 11.765 27.5509 11.663 28.0133 11.0925C29.3524 9.44043 30.6809 7.78173 32.0171 6.12792C32.1189 5.99787 32.2259 5.87271 32.3281 5.74532C32.5144 5.51326 32.6888 5.4901 32.9573 5.68029C34.3236 6.65217 35.4529 7.81202 36.3438 9.16695C36.8316 9.909 37.3069 10.6586 37.7646 11.4172C37.9289 11.6906 38.0207 12.0042 38.143 12.2915Z" fill="url(#paint7_linear_273_1422)"/><path d="M19.25 5.80273C19.3197 5.93502 19.367 6.08334 19.4592 6.19915C20.8303 7.92065 22.2085 9.63727 23.5843 11.3539C23.8007 11.6229 23.796 11.8202 23.4797 12.0478C21.0567 13.7898 18.6456 15.5483 16.2269 17.2996C15.8787 17.5526 15.7096 17.4992 15.5553 17.121C15.0302 15.836 14.5052 14.5506 13.9726 13.27C13.9004 13.0963 13.8034 12.9177 13.6716 12.7783C13.3257 12.4166 13.3878 12.0313 13.6568 11.7044C14.9954 10.0711 16.344 8.44491 17.7275 6.84411C18.0036 6.5243 18.4364 6.31763 18.8023 6.06464C18.8869 6.00674 18.9886 5.96977 19.0832 5.92345L19.25 5.80273Z" fill="url(#paint8_linear_273_1422)"/><path d="M3.14178 51.1016C3.39784 51.1176 3.50007 51.1038 3.57699 51.1341C4.62941 51.5724 5.73677 51.5283 6.84652 51.4427C7.43125 51.3986 8.01599 51.3474 8.59546 51.2757C9.44151 51.171 10.1533 51.4428 10.8002 51.8971C12.4497 53.0502 14.0568 54.2542 15.7489 55.3517C16.8911 56.0937 18.1499 56.6852 19.359 57.3444C19.5434 57.4437 19.7297 57.5391 20.0312 57.6945C19.8119 57.7733 19.7102 57.8246 19.6032 57.8428C18.0157 58.1074 16.4282 58.3764 14.8383 58.6223C14.5522 58.6664 14.2488 58.6223 13.955 58.6063C10.9119 58.4343 8.57827 57.0055 6.5704 55.0568C5.5624 54.0756 4.64709 53.0133 3.70884 51.9737C3.50485 51.7487 3.37539 51.4659 3.14178 51.1016Z" fill="url(#paint9_linear_273_1422)"/><path d="M31.7152 57.7398C31.9192 57.559 32.0386 57.408 32.1953 57.3247C35.0096 55.8353 37.6194 54.0746 40.1948 52.2742C41.0308 51.6898 41.8969 51.5201 42.8944 51.5967C44.5965 51.7246 46.2834 51.7197 47.8833 51.0471C48.0075 50.9937 48.1517 50.975 48.4107 51.0101C48.296 51.2235 48.2315 51.476 48.0648 51.6431C46.8504 52.8679 45.6489 54.1044 44.3796 55.2785C43.5016 56.0883 42.5834 56.886 41.5706 57.5403C40.2397 58.4008 38.647 58.6307 37.0447 58.5937C36.3305 58.575 35.6292 58.3082 34.915 58.1946C33.9796 58.0458 33.0366 57.9371 32.0983 57.8115C32.009 57.8 31.9216 57.779 31.7152 57.7398Z" fill="url(#paint10_linear_273_1422)"/><path d="M1.23822 29.6568C1.26067 28.578 1.31274 27.5946 1.91515 26.722C2.00449 26.5897 2.11914 26.4646 2.24622 26.3581C2.52712 26.1167 2.76837 26.1074 3.0249 26.4276C4.84837 28.7081 6.67232 30.9882 8.52588 33.2455C8.97159 33.7862 9.52623 34.2526 10.0412 34.7443C10.3622 35.0503 10.3646 35.1385 9.90936 35.2454C8.90184 35.4797 7.88907 35.7139 6.86388 35.8877C5.79139 36.0712 4.70171 36.1709 3.62206 36.3264C3.11949 36.4003 2.83047 36.2636 2.60451 35.8137C1.7384 34.0878 1.28074 32.2896 1.27787 30.3922C1.27787 30.116 1.24825 29.8421 1.23822 29.6568Z" fill="url(#paint11_linear_273_1422)"/><path d="M48.7447 36.3796C48.083 36.2798 47.4286 36.1916 46.7841 36.0803C45.1393 35.7926 43.495 35.4977 41.855 35.1917C41.6911 35.1614 41.4967 35.0616 41.4198 34.9409C41.3772 34.8764 41.544 34.6813 41.6438 34.5655C42.5367 33.533 43.4525 32.517 44.3234 31.4707C45.6548 29.87 46.9556 28.246 48.2722 26.6336C48.3491 26.541 48.4265 26.4483 48.5159 26.3646C48.8168 26.0817 49.0261 26.0795 49.21 26.439C49.4637 26.9329 49.7178 27.4456 49.8349 27.977C50.1057 29.2179 50.1855 30.4802 49.9414 31.7375C49.7302 32.8346 49.4914 33.9272 49.2324 35.0153C49.1278 35.4469 48.9339 35.8598 48.7447 36.3796Z" fill="url(#paint12_linear_273_1422)"/><path d="M30.511 4.81572C28.9808 6.40226 27.4803 7.94026 26.0051 9.49696C25.729 9.78915 25.5795 9.78915 25.321 9.49028C24.0818 8.05161 22.8254 6.62987 21.5761 5.20055C21.5164 5.13329 21.4644 5.06381 21.3621 4.93865C21.6258 4.7645 21.8723 4.59301 22.1284 4.43267C22.4045 4.26341 22.5813 4.08703 22.4021 3.75074C22.3448 3.63939 22.3701 3.41446 22.4571 3.32404C23.445 2.30317 24.4377 1.28495 25.4576 0.291693C25.8632 -0.102494 26.0572 -0.098037 26.4403 0.310403C27.5453 1.48896 28.6226 2.68844 29.7075 3.8808C29.9884 4.1917 30.2549 4.5164 30.511 4.81572Z" fill="url(#paint13_linear_273_1422)"/><path d="M45.1544 22.382C44.7536 22.2425 44.4875 22.1686 44.2386 22.0617C41.7602 20.9829 39.2775 19.9042 36.8067 18.8093C36.2444 18.559 36.2568 18.4984 36.6347 18.0437C37.7373 16.7168 38.8246 15.3784 39.9468 14.0675C40.2454 13.7196 40.6409 13.4413 41.0016 13.1397C41.3623 12.836 41.7134 12.9656 41.9269 13.272C42.258 13.7428 42.5991 14.2323 42.7883 14.7588C43.3902 16.4616 43.9276 18.1853 44.4875 19.8997C44.6738 20.468 44.8683 21.0342 45.0374 21.607C45.0995 21.8092 45.1043 22.0247 45.1544 22.382Z" fill="url(#paint14_linear_273_1422)"/><path d="M6.53339 22.046C6.68291 21.3266 6.74741 20.6723 6.95665 20.0625C7.53135 18.3945 8.13567 16.7358 8.79779 15.098C9.00178 14.5969 9.37966 14.1328 9.7604 13.7177C10.1813 13.2558 10.6337 13.2745 10.9576 13.7916C11.495 14.6548 11.9598 15.5572 12.4204 16.4596C12.8212 17.2436 13.1393 18.0649 13.5626 18.8399C13.7838 19.2506 13.5874 19.3918 13.2516 19.529C11.8232 20.1066 10.3977 20.6866 8.96691 21.2571C8.35734 21.5008 7.74251 21.7235 7.1229 21.944C6.97385 21.997 6.80234 22.0019 6.53339 22.046Z" fill="url(#paint15_linear_273_1422)"/><path d="M43.5195 49.4473C43.6714 49.1854 43.7259 49.0531 43.8181 48.9462C45.8585 46.557 47.906 44.1719 49.9439 41.7805C50.2248 41.4486 50.4465 41.0749 50.6978 40.7226C50.9142 40.4162 51.1234 40.4117 51.2276 40.764C51.3446 41.1609 51.4368 41.6041 51.3647 42.0032C51.208 42.8824 50.9839 43.7567 50.715 44.6128C50.2177 46.1927 49.3989 47.6171 48.1649 48.8326C47.7569 49.2339 47.284 49.4406 46.7016 49.445C45.6941 49.4522 44.6837 49.4473 43.5195 49.4473Z" fill="url(#paint16_linear_273_1422)"/><path d="M7.61533 49.451C6.51561 49.3865 5.41351 49.3259 4.31379 49.247C4.16952 49.2377 4.01282 49.1495 3.89578 49.0613C2.26101 47.7995 1.18614 46.2129 0.671154 44.3128C0.50204 43.6981 0.312863 43.0786 0.238338 42.4523C0.173368 41.9116 0.243117 41.3575 0.295666 40.8123C0.308087 40.6636 0.469555 40.5268 0.591374 40.3438C2.65179 43.5819 5.04757 46.5189 7.76247 49.2426C7.71278 49.3121 7.66549 49.3816 7.61533 49.451Z" fill="url(#paint17_linear_273_1422)"/><defs><linearGradient id="paint0_linear_273_1422" x1="16.397" y1="40.7281" x2="29.5706" y2="28.2841" gradientUnits="userSpaceOnUse"><stop stop-color="white"/><stop offset="1" stop-color="white"/></linearGradient><linearGradient id="paint1_linear_273_1422" x1="15.0634" y1="54.9487" x2="25.2186" y2="41.3655" gradientUnits="userSpaceOnUse"><stop stop-color="white"/><stop offset="1" stop-color="white"/></linearGradient><linearGradient id="paint2_linear_273_1422" x1="29.7033" y1="46.0723" x2="41.4867" y2="34.0158" gradientUnits="userSpaceOnUse"><stop stop-color="white"/><stop offset="1" stop-color="white"/></linearGradient><linearGradient id="paint3_linear_273_1422" x1="28.9492" y1="31.1368" x2="41.8086" y2="20.6482" gradientUnits="userSpaceOnUse"><stop stop-color="white"/><stop offset="1" stop-color="white"/></linearGradient><linearGradient id="paint4_linear_273_1422" x1="6.2481" y1="31.151" x2="19.0924" y2="20.8073" gradientUnits="userSpaceOnUse"><stop stop-color="white"/><stop offset="1" stop-color="white"/></linearGradient><linearGradient id="paint5_linear_273_1422" x1="3.72716" y1="45.9854" x2="15.3918" y2="34.0593" gradientUnits="userSpaceOnUse"><stop stop-color="white"/><stop offset="1" stop-color="white"/></linearGradient><linearGradient id="paint6_linear_273_1422" x1="18.5159" y1="24.1556" x2="31.5301" y2="15.5839" gradientUnits="userSpaceOnUse"><stop stop-color="white"/><stop offset="1" stop-color="white"/></linearGradient><linearGradient id="paint7_linear_273_1422" x1="28.3797" y1="14.0794" x2="37.8021" y2="9.07267" gradientUnits="userSpaceOnUse"><stop stop-color="white"/><stop offset="1" stop-color="white"/></linearGradient><linearGradient id="paint8_linear_273_1422" x1="14.1235" y1="14.5421" x2="23.5598" y2="9.7262" gradientUnits="userSpaceOnUse"><stop stop-color="white"/><stop offset="1" stop-color="white"/></linearGradient><linearGradient id="paint9_linear_273_1422" x1="4.27303" y1="56.7565" x2="11.5703" y2="47.3193" gradientUnits="userSpaceOnUse"><stop stop-color="white"/><stop offset="1" stop-color="white"/></linearGradient><linearGradient id="paint10_linear_273_1422" x1="32.8336" y1="56.6958" x2="40.2299" y2="47.3213" gradientUnits="userSpaceOnUse"><stop stop-color="white"/><stop offset="1" stop-color="white"/></linearGradient><linearGradient id="paint11_linear_273_1422" x1="1.84302" y1="33.8045" x2="10.0982" y2="29.5698" gradientUnits="userSpaceOnUse"><stop stop-color="white"/><stop offset="1" stop-color="white"/></linearGradient><linearGradient id="paint12_linear_273_1422" x1="41.994" y1="33.8247" x2="50.0708" y2="29.8664" gradientUnits="userSpaceOnUse"><stop stop-color="white"/><stop offset="1" stop-color="white"/></linearGradient><linearGradient id="paint13_linear_273_1422" x1="21.975" y1="7.2864" x2="30.129" y2="2.85325" gradientUnits="userSpaceOnUse"><stop stop-color="white"/><stop offset="1" stop-color="white"/></linearGradient><linearGradient id="paint14_linear_273_1422" x1="36.9543" y1="20.028" x2="44.8186" y2="15.7899" gradientUnits="userSpaceOnUse"><stop stop-color="white"/><stop offset="1" stop-color="white"/></linearGradient><linearGradient id="paint15_linear_273_1422" x1="7.01063" y1="19.8813" x2="13.7215" y2="16.6939" gradientUnits="userSpaceOnUse"><stop stop-color="white"/><stop offset="1" stop-color="white"/></linearGradient><linearGradient id="paint16_linear_273_1422" x1="44.0469" y1="47.2109" x2="51.2733" y2="43.5427" gradientUnits="userSpaceOnUse"><stop stop-color="white"/><stop offset="1" stop-color="white"/></linearGradient><linearGradient id="paint17_linear_273_1422" x1="0.717972" y1="47.1741" x2="7.81133" y2="43.7793" gradientUnits="userSpaceOnUse"><stop stop-color="white"/><stop offset="1" stop-color="white"/></linearGradient></defs></svg>