<svg width="500" height="664" viewBox="0 0 500 664" fill="none" xmlns="http://www.w3.org/2000/svg">
<path fill-rule="evenodd" clip-rule="evenodd" d="M346.534 163.862C254.127 56.4375 40.171 53.5381 -51.5655 83.6614C30.0563 11.6343 145.451 -18.7389 258.003 13.0346C415.683 57.5475 514.335 208.943 497.612 366.548C413.317 399.881 243.916 450.583 134.561 426.288C-10.7913 393.997 11.269 307.844 69.6177 269.31C-59.9971 340.134 53.3613 430.702 131.627 452.696L127.31 467.988C125.917 467.588 124.525 467.181 123.134 466.766C-60.3197 411.963 2.68061 300.899 25.4304 281.702C5.42211 285.849 -112.925 376.768 -17.0476 488.226C89.0416 611.556 355.336 597.117 412.971 553.107L412.697 555.533C330.814 645.025 202.63 686.104 77.9341 650.903C-84.7838 604.968 -184.641 445.211 -159.717 282.267C-72.9758 249.017 89.0941 202.288 194.926 225.8C340.278 258.092 318.218 344.244 259.869 382.778C389.484 311.954 276.126 221.386 197.86 199.392L202.177 184.1C203.57 184.5 204.962 184.907 206.353 185.323C389.807 240.125 326.806 351.189 304.056 370.386C324.065 366.239 442.412 275.32 346.534 163.862ZM-150.965 241.934L-151 242.056C-89.2518 213.352 51.0574 171.623 173.054 193.843L177.561 177.875C55.2807 150.935 -72.1011 180.151 -138.461 205.688C-143.263 217.383 -147.448 229.474 -150.965 241.934ZM156.433 458.245C286.188 481.879 436.659 433.17 491.289 404.734C489.987 410.495 488.526 416.253 486.903 422.003C485.073 428.486 483.062 434.87 480.877 441.149C419.319 467.605 282.705 503.026 151.925 474.213L156.433 458.245ZM202.971 278.724L197.66 240.135L172.954 270.25C163.687 281.547 150.497 288.93 136.021 290.922L97.4319 296.233L127.547 320.939C138.844 330.207 146.227 343.397 148.219 357.872L153.53 396.462L178.236 366.346C187.503 355.049 200.694 347.667 215.169 345.674L253.758 340.364L223.643 315.658C212.346 306.39 204.963 293.2 202.971 278.724Z" fill="white"/>
</svg>
