<svg width="678" height="670" viewBox="0 0 678 670" fill="none" xmlns="http://www.w3.org/2000/svg">
<path fill-rule="evenodd" clip-rule="evenodd" d="M627.12 83.7841C486.935 -35.6872 211.565 3.4162 99.7748 60.4671C190.186 -48.3773 332.311 -110.485 483.225 -92.2065C694.649 -66.6 851.654 108.094 861.725 313.859C760.134 373.543 552.717 472.569 407.405 463.256C214.261 450.878 225.349 335.814 292.575 274.645C140.283 391.551 304.002 485.179 408.923 497.76L406.44 518.264C404.57 518.03 402.701 517.785 400.832 517.53C154.247 483.867 212.928 328.613 238.304 299.404C213.437 308.736 79.6394 449.195 225.088 573.153C386.028 710.313 725.149 638.465 790.36 570.405L790.494 573.576C703.244 704.903 546.836 783.321 379.639 763.071C161.46 736.646 1.23238 551.455 0.626836 337.191C105.376 277.125 304.173 184.668 444.802 193.68C637.946 206.058 626.859 321.122 559.633 382.292C711.924 265.386 548.206 171.758 443.284 159.176L445.768 138.673C447.637 138.907 449.506 139.151 451.376 139.407C697.961 173.07 639.279 328.323 613.904 357.532C638.771 348.201 772.568 207.742 627.12 83.7841ZM3.79346 283.639L3.77378 283.801C77.3327 234.576 249.183 152.897 410.314 157.015L412.908 135.605C250.466 125.482 92.7141 188.502 12.5984 234.583C8.7713 250.565 5.81691 266.932 3.79346 283.639ZM441.893 499.922C613.272 504.302 796.776 411.625 861.247 364.168C860.728 371.827 860.004 379.515 859.071 387.225C858.018 395.918 856.713 404.519 855.164 413.021C781.399 459.321 613.031 532.159 439.3 521.332L441.893 499.922ZM467.687 266.57L451.184 211.544L422.022 261.04C414.604 273.629 402.708 282.955 388.712 287.152L333.686 303.655L383.181 332.817C395.771 340.235 405.097 352.131 409.294 366.127L425.797 421.153L454.959 371.658C462.377 359.068 474.273 349.742 488.269 345.545L543.295 329.042L493.799 299.88C481.21 292.462 471.884 280.566 467.687 266.57Z" fill="#CC4B50"/>
</svg>
