<svg width="264" height="190" viewBox="0 0 264 190" fill="none" xmlns="http://www.w3.org/2000/svg">
<circle opacity="0.82" cx="146" cy="146" r="146" fill="white"/>
<path d="M117.125 109.964L117.214 109.866M152.625 109.964L152.714 109.866M117.125 145.464L117.214 145.366M152.625 145.464L152.714 145.366M117.125 180.964L117.214 180.866M152.625 180.964L152.714 180.866M188.125 216.375H86.95C85.5377 216.375 84.1833 215.814 83.1847 214.815C82.186 213.817 81.625 212.462 81.625 211.05V79.7C81.625 78.2877 82.186 76.9333 83.1847 75.9347C84.1833 74.936 85.5377 74.375 86.95 74.375H134.875V61.95C134.875 60.5377 135.436 59.1833 136.435 58.1847C137.433 57.186 138.788 56.625 140.2 56.625H182.8C184.212 56.625 185.567 57.186 186.565 58.1847C187.564 59.1833 188.125 60.5377 188.125 61.95V109.875M188.125 216.375H236.05C237.462 216.375 238.817 215.814 239.815 214.815C240.814 213.817 241.375 212.462 241.375 211.05V115.2C241.375 113.788 240.814 112.433 239.815 111.435C238.817 110.436 237.462 109.875 236.05 109.875H188.125M188.125 216.375V180.875M188.125 109.875V145.375M188.125 180.875V145.375M188.125 180.875H205.875M188.125 145.375H205.875" stroke="#4E4E4E" stroke-opacity="0.83" stroke-width="10" stroke-linecap="round" stroke-linejoin="round"/>
</svg>
