<svg width="1000" height="747" viewBox="0 0 1000 747" fill="none" xmlns="http://www.w3.org/2000/svg">
<path opacity="0.7" d="M498.032 589.83H495.037L492.902 587.973L494.177 582.429L489.907 580.322C489.907 580.322 482.53 582.456 481.255 582.872C479.979 583.288 480.839 585.034 480.839 585.034L478.675 587.197L474.821 585.45L468.359 585.894L465.448 583.898L460.706 586.06L457.267 594.21L447.311 596.428L444.732 601.168L439.547 604.606H436.968L434.389 609.318L425.348 612.34L421.05 609.318L412.425 608.487L405.132 608.043L397.367 603.303L390.49 606.324L383.169 611.065L378.011 618.799L376.291 616.221L373.269 610.178H368.554L363.812 612.34L356.907 613.199L351.749 613.643L346.203 608.902L342.32 607.6L339.769 602.887L330.701 601.584L326.403 604.19L322.104 607.184L314.367 601.168L312.648 594.266L304.911 595.125L300.585 589.581L295.427 586.171H291.572L288.106 590.024L282.56 582.706L277.402 580.544L271.384 574.999H267.058L260.624 570.703L253.747 570.259L249.005 573.696L238.245 568.54L232.227 562.497L223.908 556.481H220.025L216.587 559.503L209.709 548.414L207.13 542.399L207.546 535.081L202.804 527.79L207.13 523.465L209.266 526.071L211.845 522.19L207.546 511.434L202.36 504.116L201.529 494.663L195.982 489.479L190.436 483.935L186.997 473.207L177.097 470.601L174.934 466.332L159.016 464.585L154.274 460.289L152.999 454.273L141.379 439.636L138.357 436.199L134.835 437.668L130.536 438.5L128.401 439.359L124.935 436.365H121.912L124.519 433.787L121.052 430.765L110.736 432.928L104.275 431.625L97.8134 437.169L93.0991 441.466L84.7797 447.481L80.5091 450.059L73.6039 445.763L71.0249 438.888L69.7216 428.991L66.6989 424.694L64.5636 416.932L58.5458 413.911L53.8038 419.455L52.9441 423.308L54.2198 427.605L51.2247 432.789L44.3474 431.902L40.4927 434.923L40.881 441.383H34.8633L32.2843 437.086L24.9632 442.242L17.6421 444.82L13.8152 440.135L14.6194 429.989L19.3892 420.314L18.9455 416.212L14.2035 410.418L14.6194 403.543L7.10427 404.596L3 394.478L13.5656 392.122C14.4808 391.845 22.7725 386.106 22.7725 386.106L21.885 381.366L33.5599 377.069L28.8456 372.356L28.6237 368.697L37.6642 362.876L46.2609 358.995L51.4189 364.816L58.5458 362.876L63.9257 363.292L68.446 358.773L67.7803 354.92L57.6862 348.461L53.9979 356.417L38.5238 348.461L45.318 336.541L43.5986 332.022L44.0423 333.186L45.5398 330.719L49.0063 325.175L61.9013 326.034L85.9998 325.175L85.1402 314.419L97.6193 313.975L117.031 319.159L124.768 315.278L138.967 314.419L150.614 313.975L166.088 316.997L172.106 314.475L178.151 324.787L186.748 326.09L188.911 324.371L191.046 319.215L195.15 314.918L192.571 312.312L192.987 308.459L193.431 302.416L188.273 295.097L183.947 280.959V274.279L173.603 271.7L177.902 266.96L184.779 266.544L202 261.832L203.276 263.523L210.181 262.248L211.04 255.345L206.742 249.33L208.018 231.699L212.344 218.365L220.941 220.499L229.565 220.943L237.302 221.802L241.6 222.246L243.736 218.365L248.478 215.759L251.944 209.743L247.646 200.734L246.758 190.837L249.781 186.097L256.243 182.66V178.779L259.681 173.235L265.782 168.189L271.328 169.714L273.048 176.228L275.627 174.925L279.065 183.242L287.246 190.144L290.241 194.857L292.848 197.463L294.983 194.857L299.309 193.998L302.304 194.857L308.766 197.019L313.064 193.998L319.886 198.156L323.768 205.031L328.067 213.347L332.365 216.812L336.663 223.687L337.107 230.146V235.303L332.809 240.043L335.831 247.361L340.546 252.074L352.609 255.511L366.475 255.095L373.352 254.236L382.392 258.117L387.55 261.305L396.147 263.024L401.693 268.568L410.29 269.012L412.453 272.893L417.195 274.168L420.218 280.599L427.067 291.383L434.416 303.857L443.873 302.998L458.958 302.554L478.37 304.273L488.27 302.139L491.293 299.561L521.409 300.836L525.264 305.16L534.748 309.013L548.087 314.169L557.987 318.051L569.08 316.36L569.495 318.91L576.817 321.488L585.857 314.613L593.594 306.297L626.317 297.26L636.217 295.097L645.23 289.941L655.574 288.638L662.035 275.332L671.519 264.243L672.795 259.919L667.248 254.791L660.371 248.747L659.955 239.294L663.81 233.75L675.429 231.172L680.975 233.334L691.319 239.35L693.871 234.61L703.355 226.293L708.097 220.749L715.418 221.608L728.757 211.296L727.869 205.752L733.915 198.433L736.91 198.017L739.073 193.721L742.539 194.996L753.271 186.402L759.732 187.261L765.279 185.958L769.993 188.537L772.156 179.084L768.301 171.765L753.216 156.269L742.9 152.416H736.937L735.662 159.734L732.223 165.75L729.644 162.728L715.445 161.009L710.26 166.554L702.966 161.009L701.663 151.972L702.966 138.638L706.405 111.527L706.183 111.361L711.73 111.527H715.584L722.378 114.299L733.027 105.262L740.126 102.989L743.565 98.8305L743.898 93.9792L738.074 93.314L737.769 88.4627L736.771 81.3661L739.378 74.9347L738.407 67.5054L736.466 61.9612L740.154 56.1397L741.457 51.9538L745.312 47.7401L745.007 41.6138L741.457 34.822C741.457 34.822 738.546 29.6659 737.908 28.6956C737.27 27.7254 733.721 30.9688 733.721 30.9688L730.781 31.6063L728.23 29.6659L731.446 21.3495L735.329 14.2529L745.978 12.9776L750.803 9.73427L757.597 7.82149L764.696 6.18594L768.579 2.63762L775.345 2L783.082 4.27317L788.268 7.82149L791.041 7.48885L797.503 9.42929L798.806 7.48885C798.806 7.48885 806.155 7.82149 807.125 7.82149C808.096 7.82149 810.37 11.3698 810.37 11.3698L816.193 15.2508L821.351 19.7416L825.206 23.6227L827.48 31.3568L832.305 32.0222L831.335 37.1783L839.959 47.2966L843.342 55.0309L845.505 54.8368L849.832 62.9869L856.709 67.7273L859.954 77.1802L863.17 80.2018L863.808 86.2173L869.743 92.6764L879.754 94.617L886.52 94.2841L893.952 100.411L901.356 98.1652L906.514 102.684L918.605 111.61H928.616L927.008 116.129L931.195 120.952L929.587 129.684L939.598 139.359L946.059 138.056L948.832 140.995L958.816 139.026L963.336 133.87L968.882 126.136L974.706 122.588L982.776 115.491L989.209 117.404L991.899 124.001L996.087 131.431L998 137.89L993.813 143.046L994.478 150.78L995.421 160.455L998 170.795L996.087 181.107L993.313 194.968L988.488 200.789L988.128 216.896L985.881 218.198L980.335 213.347L976.481 204.67L965.166 209.466L973.874 228.539L974.206 241.429L977.423 244.035L976.786 252.711V257.895L968.716 257.563L968.411 264.354L963.558 262.414L962.587 258.561L961.284 257.258L958.067 258.228V264.354L959.343 266.267L958.067 270.481L955.294 269.511L952.049 273.696L950.441 278.548L943.979 283.066L939.792 283.732L948.139 289.775L945.56 296.871L940.402 296.567L934.246 296.871L930.363 295.569L927.146 296.871L921.6 291.327L918.993 288.112L917.385 291.66L916.414 299.062L912.227 310.372L910.286 311.675L906.404 316.831L903.187 319.603L901.245 326.09L896.392 329.943L893.924 342.944C892.869 342.607 891.754 342.493 890.652 342.612C879.476 344.469 869.105 348.156 862.422 358.329C860.036 362.269 856.518 365.399 852.327 367.311C851.731 367.474 851.105 367.496 850.499 367.376C849.892 367.256 849.322 366.996 848.833 366.618C848.097 366.014 847.934 364.66 847.801 363.553L847.779 363.375C847.724 362.848 848.251 362.155 848.639 361.656C850.192 359.688 852.438 358.052 851.135 354.975C850.359 353.173 850.053 351.205 849.194 349.431C848.213 347.351 847.796 345.05 847.986 342.758C848.176 340.466 848.965 338.265 850.275 336.374C850.941 335.265 851.44 334.046 852.078 332.909C853.742 329.86 854.657 326.672 851.884 323.9C848.667 320.379 844.951 317.662 839.876 318.882C838.005 319.354 836.346 320.437 835.162 321.959C832.999 325.175 831.39 328.806 829.477 332.216C828.173 334.462 827.147 337.705 825.178 338.537C816.554 342.279 815.362 350.124 813.282 357.692C812.753 359.601 811.612 361.283 810.034 362.48C808.455 363.677 806.527 364.322 804.546 364.317C802.605 364.456 800.608 364.428 798.695 364.761C793.759 365.676 791.069 373.438 794.341 377.402C798.14 381.976 802.134 386.467 808.04 388.102C813.947 389.738 816.332 393.674 818.412 398.747C818.918 400.34 820.02 401.675 821.487 402.475C822.954 403.276 824.674 403.48 826.288 403.044C828.169 402.647 829.911 401.757 831.335 400.466C834.801 396.668 837.63 392.094 842.427 389.627C843.515 388.882 844.779 388.436 846.093 388.334C847.407 388.232 848.725 388.477 849.915 389.045C852.08 390.497 854.362 391.767 856.737 392.843C859.215 393.557 861.783 393.911 864.363 393.896C867.58 393.979 870.852 393.536 874.069 393.702C875.658 394.037 877.081 394.914 878.093 396.184C879.105 397.454 879.643 399.037 879.615 400.66C879.617 402.61 879.394 404.555 878.949 406.454C878.45 408.367 877.48 410.39 875.206 410.39C869.238 410.578 863.454 412.505 858.567 415.934C853.395 418.811 849.261 423.244 846.753 428.603C845.374 431.543 843.591 434.277 841.457 436.725C839.254 440 838.103 443.868 838.157 447.814C837.63 453.552 839.21 458.182 844.59 460.954C846.92 462.146 849.166 463.504 851.551 464.585C855.704 466.611 858.998 470.051 860.841 474.288C864.058 480.719 867.69 486.929 870.741 493.416C872.849 498.217 876.46 502.205 881.029 504.781C883.737 506.605 886.134 508.851 888.129 511.434C891.151 514.733 890.181 518.78 885.91 520.943C884.857 521.367 883.743 521.62 882.61 521.691H882.471L881.251 521.081L882.139 521.858H882.61C885.882 524.713 889.709 526.958 891.845 531.033C892.553 532.074 892.872 533.331 892.745 534.583C892.619 535.835 892.054 537.003 891.151 537.88C888.679 539.883 886.344 542.051 884.163 544.367C883.341 545.865 882.894 547.539 882.859 549.246H882.305L881.667 549.717H882.804V549.329C883.994 549.092 885.219 549.093 886.409 549.331C887.599 549.569 888.73 550.039 889.737 550.715C892.369 552.64 894.811 554.813 897.03 557.202C900.441 561.388 902.798 565.879 899.332 571.423C897.744 574.264 896.967 577.486 897.086 580.738C897.362 583.321 896.956 585.931 895.91 588.309C894.864 590.687 893.214 592.75 891.124 594.293C889.639 595.593 888.431 597.178 887.573 598.955C886.716 600.731 886.225 602.663 886.132 604.633C885.886 607.907 884.843 611.071 883.093 613.85C881.343 616.628 878.94 618.936 876.093 620.573C872.017 622.791 873.57 625.535 873.32 628.695C872.789 633.82 873.155 638.998 874.401 643.998C875.233 646.881 874.18 648.71 871.046 649.985C869.271 650.706 867.025 650.595 866.304 652.758C865.619 655.626 864.369 658.33 862.626 660.71C860.883 663.09 858.683 665.099 856.154 666.618C855.67 667.055 855.323 667.623 855.156 668.254C852.383 676.127 845.478 680.063 839.127 684.443C837.574 685.524 835.522 685.885 834.968 688.019C834.315 690.223 833.097 692.217 831.432 693.803C829.768 695.389 827.717 696.51 825.484 697.056C821.324 698.871 816.982 700.237 812.533 701.131C806.76 701.836 801.141 703.474 795.894 705.982C792.955 707.396 790.653 705.317 788.795 704.18C786.937 703.044 785.356 703.016 784.33 705.262C782.63 708.802 780.175 711.927 777.138 714.418C774.101 716.908 770.554 718.703 766.748 719.677C757.902 722.144 750.137 727.328 741.042 728.852C740.47 729.093 739.967 729.472 739.58 729.956C739.192 730.441 738.932 731.014 738.823 731.625C738.768 732.512 739.544 733.454 740.126 734.397L740.736 733.842L740.487 734.951L740.043 734.48C740.223 736.435 740.223 738.402 740.043 740.357C739.853 741.316 739.421 742.212 738.788 742.959C738.156 743.706 737.344 744.279 736.429 744.626C735.513 744.973 734.525 745.081 733.556 744.94C732.588 744.799 731.671 744.415 730.892 743.822C727.555 741.663 725.204 738.277 724.347 734.397C723.543 728.603 719.91 726.967 715.224 725.831C713.41 725.089 711.558 724.442 709.677 723.89C708.01 723.62 706.303 723.734 704.686 724.223L704.214 723.225L694.536 720.952L687.437 718.679L680.365 715.158L678.091 711.582L676.788 705.151L676.15 699.939C676.15 699.939 668.774 698.359 667.831 698.359C666.888 698.359 660.427 696.419 660.427 696.419L656.211 692.87L652.024 694.173L646.478 695.781L647.781 700.937L640.349 699.939H637.104L632.612 704.486H628.397L620.993 706.426L613.561 703.848L607.432 706.426L603.55 708.366L597.726 709.004L596.45 709.974L594.509 712.58L596.755 719.649L597.726 729.324L591.93 730.627L589.157 725.775L589.795 722.227L587.549 720.952L579.812 723.724H574.959L571.409 725.637L568.83 721.451L568.497 715.657L566.251 714.049L563.672 715.657L560.122 715.324L556.24 714.354L561.786 708.228L562.757 702.684L563.727 697.5L561.453 695.587L554.021 694.617V693.314L549.169 690.736L548.864 684.609L544.038 685.58L542.097 679.758L536.273 680.091L531.753 683.306L531.559 675.711L526.817 671.83L526.401 666.674L527.261 660.215H529.84L533.251 659.327L531.115 653.783L531.975 652.064L534.138 648.183L537.577 642.639L536.717 630.165L534.998 623.29L533.251 617.745L529.84 616.47L528.536 612.589L523.822 604.855H518.664L514.366 605.715H510.483L504.937 603.136H500.611L499.308 599.671L501.027 595.374L498.032 589.83Z" stroke="#E5E5E5" stroke-width="3" stroke-miterlimit="10"/>
</svg>
