<svg width="707" height="529" viewBox="0 0 707 529" fill="none" xmlns="http://www.w3.org/2000/svg">
<path d="M351.751 417.94H349.629L348.116 416.623L349.02 412.69L345.994 411.196C345.994 411.196 340.768 412.71 339.864 413.005C338.96 413.3 339.569 414.539 339.569 414.539L338.036 416.072L335.305 414.833L330.727 415.148L328.664 413.732L325.304 415.266L322.867 421.047L315.813 422.62L313.986 425.982L310.312 428.42H308.484L306.657 431.763L300.252 433.906L297.206 431.763L291.095 431.173L285.928 430.858L280.426 427.496L275.553 429.639L270.366 433.001L266.711 438.487L265.493 436.659L263.351 432.372H260.011L256.651 433.906L251.758 434.515L248.104 434.83L244.174 431.468L241.423 430.544L239.615 427.201L233.19 426.277L230.145 428.125L227.099 430.249L221.617 425.982L220.399 421.086L214.917 421.696L211.852 417.763L208.197 415.345H205.466L203.01 418.078L199.08 412.887L195.425 411.353L191.161 407.421H188.096L183.538 404.373L178.665 404.058L175.305 406.497L167.681 402.839L163.417 398.553L157.523 394.286H154.772L152.335 396.429L147.462 388.564L145.635 384.298L145.93 379.107L142.57 373.936L145.635 370.868L147.148 372.717L148.975 369.964L145.93 362.335L142.255 357.144L141.666 350.439L137.736 346.762L133.806 342.83L131.37 335.221L124.355 333.372L122.823 330.344L111.544 329.106L108.184 326.058L107.281 321.791L99.0476 311.409L96.9059 308.971L94.4105 310.014L91.365 310.603L89.852 311.213L87.3959 309.089H85.2542L87.1012 307.261L84.6451 305.117L77.3357 306.651L72.7575 305.727L68.1794 309.659L64.839 312.707L58.9444 316.974L55.9185 318.803L51.0259 315.755L49.1986 310.879L48.2751 303.859L46.1334 300.811L44.6204 295.306L40.3566 293.163L36.9967 297.095L36.3876 299.828L37.2914 302.876L35.1693 306.553L30.2964 305.924L27.5652 308.067L27.8403 312.648H23.5765L21.7492 309.601L16.5618 313.258L11.3746 315.086L8.66303 311.763L9.23286 304.567L12.6125 297.705L12.2981 294.795L8.93814 290.685L9.23286 285.809L3.90805 286.556L1 279.38L8.4862 277.708C9.13461 277.512 15.0096 273.441 15.0096 273.441L14.3808 270.079L22.653 267.032L19.3127 263.689L19.1555 261.094L25.561 256.964L31.6522 254.212L35.3068 258.341L40.3566 256.964L44.1685 257.259L47.3712 254.054L46.8996 251.321L39.7475 246.74L37.1342 252.383L26.1701 246.74L30.9841 238.285L29.7659 235.08L30.0802 235.906L31.1413 234.156L33.5974 230.224L42.7341 230.833L59.8089 230.224L59.1998 222.595L68.0418 222.28L81.796 225.957L87.278 223.204L97.3382 222.595L105.591 222.28L116.555 224.423L120.819 222.634L125.102 229.948L131.193 230.873L132.726 229.653L134.239 225.996L137.147 222.949L135.319 221.1L135.614 218.367L135.928 214.081L132.274 208.89L129.209 198.862V194.124L121.88 192.295L124.925 188.933L129.798 188.638L142 185.295L142.904 186.495L147.796 185.59L148.405 180.694L145.36 176.428L146.264 163.922L149.329 154.465L155.42 155.979L161.531 156.293L167.013 156.903L170.059 157.217L171.571 154.465L174.931 152.616L177.388 148.35L174.342 141.959L173.713 134.94L175.855 131.578L180.433 129.139V126.387L182.87 122.454L187.192 118.876L191.122 119.957L192.34 124.578L194.168 123.654L196.604 129.552L202.4 134.448L204.523 137.791L206.37 139.639L207.882 137.791L210.948 137.181L213.07 137.791L217.648 139.325L220.694 137.181L225.527 140.131L228.278 145.007L231.324 150.906L234.369 153.364L237.415 158.24L237.729 162.821V166.478L234.684 169.841L236.825 175.031L240.165 178.374L248.713 180.812L258.537 180.517L263.41 179.908L269.816 182.66L273.47 184.922L279.561 186.141L283.491 190.073L289.582 190.388L291.115 193.141L294.475 194.045L296.617 198.607L301.47 206.255L306.677 215.103L313.377 214.494L324.066 214.179L337.82 215.398L344.835 213.884L346.977 212.056L368.315 212.96L371.046 216.027L377.766 218.76L387.217 222.418L394.232 225.17L402.092 223.971L402.386 225.78L407.574 227.609L413.979 222.732L419.461 216.834L442.647 210.424L449.661 208.89L456.047 205.233L463.376 204.309L467.954 194.871L474.674 187.006L475.578 183.938L471.648 180.301L466.775 176.015L466.481 169.31L469.212 165.377L477.445 163.549L481.375 165.082L488.704 169.349L490.511 165.987L497.231 160.088L500.591 156.156L505.778 156.765L515.23 149.451L514.601 145.518L518.884 140.327L521.006 140.032L522.539 136.985L524.995 137.889L532.599 131.794L537.177 132.404L541.107 131.479L544.447 133.308L545.98 126.603L543.249 121.412L532.56 110.421L525.25 107.688H521.026L520.122 112.879L517.686 117.146L515.858 115.002L505.798 113.783L502.124 117.716L496.956 113.783L496.033 107.373L496.956 97.9157L499.393 78.686L499.235 78.568L503.165 78.686H505.896L510.71 80.6522L518.255 74.2422L523.286 72.6299L525.722 69.6806L525.958 66.2397L521.832 65.7678L521.615 62.3269L520.908 57.2933L522.755 52.7316L522.067 47.4621L520.692 43.5297L523.305 39.4006L524.229 36.4316L526.96 33.4429L526.744 29.0975L524.229 24.2802C524.229 24.2802 522.166 20.623 521.714 19.9349C521.262 19.2467 518.747 21.5472 518.747 21.5472L516.664 21.9994L514.856 20.623L517.135 14.7243L519.886 9.69078L527.431 8.78627L530.85 6.48581L535.664 5.12911L540.694 3.96903L543.445 1.45226L548.24 1L553.721 2.61233L557.396 5.12911L559.361 4.89317L563.939 6.26949L564.862 4.89317C564.862 4.89317 570.069 5.12911 570.757 5.12911C571.445 5.12911 573.056 7.64588 573.056 7.64588L577.182 10.3986L580.837 13.5839L583.568 16.3367L585.179 21.8224L588.598 22.2944L587.911 25.9515L594.021 33.1283L596.418 38.6141L597.951 38.4764L601.016 44.2572L605.889 47.6195L608.188 54.3243L610.467 56.4675L610.919 60.7342L615.124 65.3156L622.217 66.692L627.012 66.4559L632.278 70.8013L637.524 69.2087L641.178 72.4137L649.745 78.7449H656.839L655.699 81.9499L658.666 85.3712L657.526 91.5648L664.62 98.4269L669.198 97.5028L671.163 99.587L678.236 98.191L681.439 94.5338L685.369 89.048L689.495 86.5312L695.213 81.4977L699.771 82.8544L701.677 87.534L704.644 92.8035L706 97.3849L703.033 101.042L703.505 106.528L704.173 113.39L706 120.724L704.644 128.038L702.679 137.87L699.26 141.999L699.005 153.423L697.413 154.347L693.484 150.906L690.753 144.751L682.736 148.153L688.905 161.681L689.141 170.824L691.421 172.672L690.969 178.826V182.503L685.251 182.267L685.035 187.084L681.596 185.708L680.908 182.975L679.985 182.051L677.706 182.739V187.084L678.609 188.441L677.706 191.43L675.741 190.742L673.442 193.711L672.302 197.152L667.724 200.357L664.757 200.828L670.671 205.115L668.844 210.148L665.189 209.932L660.827 210.148L658.076 209.224L655.797 210.148L651.867 206.216L650.02 203.935L648.881 206.452L648.193 211.702L645.226 219.724L643.851 220.648L641.1 224.305L638.821 226.272L637.445 230.873L634.007 233.606L632.258 242.827C631.51 242.588 630.72 242.507 629.939 242.591C622.021 243.909 614.672 246.524 609.937 253.74C608.246 256.534 605.754 258.754 602.785 260.11C602.362 260.226 601.919 260.241 601.489 260.156C601.059 260.071 600.655 259.887 600.309 259.619C599.787 259.19 599.672 258.23 599.578 257.444L599.562 257.318C599.523 256.945 599.896 256.453 600.171 256.099C601.272 254.703 602.863 253.543 601.94 251.361C601.39 250.083 601.174 248.687 600.564 247.428C599.869 245.953 599.574 244.321 599.709 242.695C599.843 241.07 600.403 239.508 601.331 238.167C601.802 237.381 602.156 236.516 602.608 235.709C603.787 233.547 604.435 231.285 602.47 229.319C600.191 226.822 597.558 224.895 593.962 225.76C592.637 226.095 591.461 226.863 590.622 227.943C589.089 230.224 587.95 232.799 586.594 235.218C585.67 236.811 584.943 239.111 583.548 239.701C577.438 242.355 576.593 247.92 575.119 253.288C574.745 254.641 573.936 255.834 572.818 256.683C571.7 257.533 570.333 257.99 568.93 257.987C567.554 258.085 566.14 258.066 564.784 258.301C561.286 258.95 559.38 264.456 561.699 267.267C564.391 270.512 567.22 273.697 571.405 274.857C575.591 276.017 577.28 278.809 578.754 282.408C579.113 283.537 579.894 284.484 580.933 285.052C581.973 285.62 583.191 285.764 584.334 285.455C585.667 285.174 586.902 284.543 587.911 283.627C590.367 280.933 592.371 277.689 595.77 275.939C596.541 275.41 597.436 275.094 598.367 275.022C599.299 274.949 600.232 275.123 601.075 275.526C602.609 276.556 604.226 277.457 605.909 278.219C607.665 278.726 609.485 278.978 611.312 278.967C613.591 279.026 615.91 278.711 618.189 278.829C619.315 279.066 620.324 279.689 621.041 280.59C621.758 281.49 622.139 282.613 622.119 283.764C622.121 285.148 621.963 286.527 621.648 287.874C621.294 289.23 620.606 290.666 618.995 290.666C614.766 290.799 610.669 292.166 607.206 294.598C603.541 296.638 600.612 299.782 598.835 303.584C597.858 305.669 596.595 307.608 595.082 309.345C593.522 311.668 592.706 314.411 592.744 317.21C592.371 321.28 593.491 324.564 597.303 326.53C598.953 327.375 600.545 328.339 602.234 329.106C605.177 330.542 607.511 332.983 608.817 335.987C611.096 340.549 613.67 344.953 615.831 349.554C617.326 352.96 619.884 355.789 623.121 357.616C625.039 358.909 626.738 360.503 628.151 362.335C630.293 364.675 629.605 367.546 626.579 369.079C625.833 369.38 625.044 369.559 624.241 369.61H624.143L623.278 369.177L623.907 369.728H624.241C626.56 371.753 629.271 373.346 630.784 376.236C631.286 376.974 631.512 377.866 631.423 378.754C631.333 379.642 630.933 380.47 630.293 381.093C628.541 382.514 626.887 384.051 625.342 385.694C624.759 386.756 624.442 387.943 624.418 389.154H624.025L623.573 389.489H624.379V389.213C625.222 389.045 626.09 389.046 626.933 389.214C627.776 389.383 628.577 389.717 629.291 390.197C631.156 391.562 632.886 393.103 634.459 394.798C636.875 397.767 638.545 400.952 636.089 404.884C634.964 406.899 634.414 409.184 634.498 411.491C634.693 413.323 634.406 415.174 633.665 416.861C632.924 418.548 631.755 420.011 630.273 421.106C629.221 422.027 628.366 423.152 627.758 424.412C627.15 425.672 626.803 427.042 626.737 428.44C626.562 430.762 625.823 433.006 624.583 434.977C623.344 436.947 621.641 438.585 619.624 439.746C616.735 441.319 617.836 443.265 617.659 445.507C617.282 449.142 617.542 452.814 618.425 456.36C619.015 458.405 618.268 459.703 616.048 460.607C614.79 461.119 613.199 461.04 612.688 462.574C612.203 464.609 611.317 466.526 610.082 468.214C608.847 469.902 607.288 471.327 605.496 472.405C605.153 472.714 604.907 473.118 604.789 473.565C602.824 479.149 597.931 481.941 593.432 485.048C592.331 485.814 590.878 486.07 590.485 487.584C590.022 489.147 589.159 490.562 587.98 491.687C586.8 492.811 585.347 493.607 583.765 493.994C580.817 495.281 577.741 496.25 574.589 496.884C570.498 497.384 566.517 498.546 562.799 500.325C560.716 501.328 559.086 499.853 557.769 499.047C556.453 498.241 555.333 498.221 554.606 499.814C553.401 502.325 551.662 504.542 549.51 506.308C547.358 508.075 544.845 509.348 542.148 510.039C535.88 511.788 530.379 515.465 523.934 516.547C523.529 516.717 523.173 516.986 522.898 517.33C522.623 517.673 522.439 518.08 522.362 518.513C522.323 519.142 522.873 519.811 523.286 520.479L523.718 520.086L523.541 520.872L523.227 520.538C523.354 521.925 523.354 523.32 523.227 524.707C523.091 525.387 522.786 526.022 522.338 526.552C521.889 527.082 521.314 527.489 520.666 527.735C520.017 527.981 519.317 528.057 518.63 527.958C517.944 527.858 517.294 527.585 516.742 527.164C514.378 525.633 512.712 523.231 512.105 520.479C511.535 516.37 508.962 515.21 505.641 514.404C504.355 513.878 503.044 513.418 501.711 513.027C500.53 512.835 499.32 512.916 498.174 513.263L497.84 512.555L490.983 510.943L485.953 509.331L480.942 506.834L479.331 504.297L478.408 499.736L477.956 496.039C477.956 496.039 472.729 494.918 472.061 494.918C471.393 494.918 466.815 493.542 466.815 493.542L463.828 491.025L460.861 491.949L456.931 493.09L457.855 496.747L452.589 496.039H450.29L447.107 499.264H444.12L438.874 500.64L433.608 498.811L429.266 500.64L426.515 502.016L422.389 502.468L421.485 503.157L420.109 505.005L421.701 510.019L422.389 516.881L418.282 517.805L416.317 514.364L416.769 511.847L415.178 510.943L409.696 512.909H406.257L403.742 514.266L401.915 511.297L401.679 507.187L400.087 506.047L398.26 507.187L395.745 506.952L392.994 506.263L396.924 501.918L397.612 497.986L398.299 494.309L396.688 492.952L391.422 492.264V491.34L387.984 489.511L387.768 485.166L384.349 485.854L382.973 481.725L378.847 481.961L375.644 484.242L375.507 478.854L372.147 476.101L371.852 472.444L372.461 467.863H374.288L376.705 467.234L375.192 463.301L375.801 462.082L377.334 459.329L379.771 455.397L379.161 446.549L377.943 441.673L376.705 437.74L374.288 436.836L373.365 434.083L370.025 428.597H366.37L363.324 429.207H360.574L356.644 427.378H353.579L352.655 424.92L353.873 421.873L351.751 417.94Z" fill="#E5E5E5" stroke="white" stroke-width="0.136538" stroke-miterlimit="10"/>
<circle cx="559" cy="257" r="16" fill="#BDBCBC"/>
<circle cx="548" cy="368" r="24" fill="#CC4B50"/>
<circle cx="511" cy="499" r="16" fill="#BDBCBC"/>
<path d="M548.688 330H545.928V318.6L538.008 330H535.848V313.2H538.608V324.6L546.528 313.2H548.688V330ZM556.891 326.736L559.963 318H562.723L558.115 330.384C557.555 331.904 556.771 333.04 555.763 333.792C554.755 334.544 553.587 334.88 552.259 334.8V332.376C553.795 332.472 554.859 331.704 555.451 330.072L555.523 329.904L550.483 318H553.243L556.891 326.736Z" fill="#232323"/>
<path d="M532.026 216H542.026V230H540.626V217.32H533.426V230H532.026V216ZM549.649 219.76C551.142 219.76 552.336 220.287 553.229 221.34C554.149 222.38 554.609 223.613 554.609 225.04C554.609 225.107 554.596 225.313 554.569 225.66H545.789C545.922 226.66 546.349 227.46 547.069 228.06C547.789 228.66 548.689 228.96 549.769 228.96C551.289 228.96 552.362 228.393 552.989 227.26L554.149 227.94C553.709 228.66 553.102 229.227 552.329 229.64C551.569 230.04 550.709 230.24 549.749 230.24C548.176 230.24 546.896 229.747 545.909 228.76C544.922 227.773 544.429 226.52 544.429 225C544.429 223.493 544.916 222.247 545.889 221.26C546.862 220.26 548.116 219.76 549.649 219.76ZM549.649 221.04C548.609 221.04 547.736 221.347 547.029 221.96C546.336 222.573 545.922 223.38 545.789 224.38H553.249C553.102 223.313 552.696 222.493 552.029 221.92C551.336 221.333 550.542 221.04 549.649 221.04ZM559.429 224.8L564.789 230H563.029L558.029 225.18V230H556.709V220H558.029V224.42L562.789 220H564.589L559.429 224.8ZM567.911 227.7L573.871 220H574.991V230H573.671V222.3L567.711 230H566.591V220H567.911V227.7ZM584.863 224.36V220H586.183V230H584.863V225.64H579.103V230H577.783V220H579.103V224.36H584.863Z" fill="#232323"/>
<path d="M463.6 458H471.4V459.32H465V472H463.6V458ZM475.973 470.38L479.213 462H480.613L476.333 472.92C475.933 473.933 475.373 474.713 474.653 475.26C473.947 475.82 473.16 476.067 472.293 476V474.76C473.493 474.907 474.407 474.213 475.033 472.68L475.293 472.06L470.813 462H472.213L475.973 470.38ZM490.418 463.96V462H491.738V472H490.418V470.04C489.498 471.507 488.151 472.24 486.378 472.24C484.951 472.24 483.731 471.733 482.718 470.72C481.718 469.707 481.218 468.467 481.218 467C481.218 465.533 481.718 464.293 482.718 463.28C483.731 462.267 484.951 461.76 486.378 461.76C488.151 461.76 489.498 462.493 490.418 463.96ZM483.678 469.82C484.438 470.58 485.371 470.96 486.478 470.96C487.585 470.96 488.518 470.58 489.278 469.82C490.038 469.033 490.418 468.093 490.418 467C490.418 465.893 490.038 464.96 489.278 464.2C488.518 463.427 487.585 463.04 486.478 463.04C485.371 463.04 484.438 463.427 483.678 464.2C482.918 464.96 482.538 465.893 482.538 467C482.538 468.093 482.918 469.033 483.678 469.82ZM501.613 466.36V462H502.933V472H501.613V467.64H495.853V472H494.533V462H495.853V466.36H501.613ZM507.044 465.8H509.784C510.704 465.8 511.491 466.093 512.144 466.68C512.798 467.253 513.124 467.993 513.124 468.9C513.124 469.82 512.798 470.567 512.144 471.14C511.518 471.713 510.731 472 509.784 472H505.724V462H507.044V465.8ZM507.044 470.72H509.784C510.358 470.72 510.838 470.553 511.224 470.22C511.611 469.873 511.804 469.433 511.804 468.9C511.804 468.367 511.611 467.933 511.224 467.6C510.838 467.253 510.358 467.08 509.784 467.08H507.044V470.72ZM520.993 466.98V462H522.313V472H520.993V468.2C520.22 468.6 519.267 468.8 518.133 468.8C516.813 468.8 515.813 468.5 515.133 467.9C514.453 467.287 514.113 466.387 514.113 465.2V462H515.433V465.2C515.433 466.027 515.647 466.627 516.073 467C516.513 467.373 517.187 467.56 518.093 467.56C519.107 467.56 520.073 467.367 520.993 466.98ZM532.319 466.8L536.799 472H535.199L531.119 467.18V472H529.799V467.18L525.719 472H524.119L528.599 466.8L524.319 462H525.919L529.799 466.44V462H531.119V466.44L534.999 462H536.599L532.319 466.8ZM546.175 470.74C545.148 471.74 543.908 472.24 542.455 472.24C540.975 472.24 539.728 471.74 538.715 470.74C537.701 469.727 537.195 468.48 537.195 467C537.195 465.52 537.701 464.28 538.715 463.28C539.728 462.267 540.975 461.76 542.455 461.76C543.921 461.76 545.161 462.267 546.175 463.28C547.201 464.28 547.715 465.52 547.715 467C547.715 468.467 547.201 469.713 546.175 470.74ZM539.655 469.82C540.415 470.58 541.348 470.96 542.455 470.96C543.561 470.96 544.495 470.58 545.255 469.82C546.015 469.033 546.395 468.093 546.395 467C546.395 465.893 546.015 464.96 545.255 464.2C544.495 463.427 543.561 463.04 542.455 463.04C541.348 463.04 540.415 463.427 539.655 464.2C538.895 464.96 538.515 465.893 538.515 467C538.515 468.093 538.895 469.033 539.655 469.82ZM553.493 470.38L556.733 462H558.133L553.853 472.92C553.453 473.933 552.893 474.713 552.173 475.26C551.466 475.82 550.679 476.067 549.813 476V474.76C551.013 474.907 551.926 474.213 552.553 472.68L552.813 472.06L548.333 462H549.733L553.493 470.38Z" fill="#232323"/>
</svg>
