<svg width="126" height="48" viewBox="0 0 126 48" fill="none" xmlns="http://www.w3.org/2000/svg">
<path d="M71.76 26.6V15.2H74.52V32H72.36L64.44 20.6V32H61.68V15.2H63.84L71.76 26.6ZM87.2113 21.704V20H89.8033V32H87.2113V30.272C86.2353 31.632 84.8353 32.312 83.0113 32.312C81.3633 32.312 79.9553 31.704 78.7873 30.488C77.6193 29.272 77.0353 27.776 77.0353 26C77.0353 24.224 77.6193 22.728 78.7873 21.512C79.9553 20.296 81.3633 19.688 83.0113 19.688C84.8353 19.688 86.2353 20.36 87.2113 21.704ZM80.7073 28.76C81.4273 29.48 82.3313 29.84 83.4193 29.84C84.5073 29.84 85.4113 29.48 86.1313 28.76C86.8513 28.024 87.2113 27.104 87.2113 26C87.2113 24.896 86.8513 23.984 86.1313 23.264C85.4113 22.528 84.5073 22.16 83.4193 22.16C82.3313 22.16 81.4273 22.528 80.7073 23.264C79.9873 23.984 79.6273 24.896 79.6273 26C79.6273 27.088 79.9873 28.008 80.7073 28.76ZM105.929 19.688C107.289 19.688 108.385 20.128 109.217 21.008C110.049 21.888 110.465 23.072 110.465 24.56V32H107.873V24.728C107.873 23.912 107.665 23.272 107.249 22.808C106.833 22.344 106.265 22.112 105.545 22.112C104.729 22.112 104.089 22.384 103.625 22.928C103.161 23.456 102.929 24.24 102.929 25.28V32H100.337V24.728C100.337 23.896 100.137 23.256 99.7365 22.808C99.3525 22.344 98.8005 22.112 98.0805 22.112C97.2805 22.112 96.6325 22.384 96.1365 22.928C95.6565 23.472 95.4165 24.256 95.4165 25.28V32H92.8245V20H95.4165V21.44C96.1845 20.272 97.3285 19.688 98.8485 19.688C100.385 19.688 101.521 20.32 102.257 21.584C103.041 20.32 104.265 19.688 105.929 19.688ZM124.831 27.104H115.279C115.471 28 115.903 28.696 116.575 29.192C117.263 29.688 118.111 29.936 119.119 29.936C120.479 29.936 121.511 29.44 122.215 28.448L124.351 29.696C123.183 31.44 121.431 32.312 119.095 32.312C117.159 32.312 115.583 31.72 114.367 30.536C113.167 29.336 112.567 27.824 112.567 26C112.567 24.224 113.159 22.728 114.343 21.512C115.511 20.296 117.031 19.688 118.903 19.688C120.647 19.688 122.087 20.304 123.223 21.536C124.359 22.768 124.927 24.264 124.927 26.024C124.927 26.344 124.895 26.704 124.831 27.104ZM115.255 24.992H122.311C122.135 24.048 121.735 23.32 121.111 22.808C120.503 22.296 119.759 22.04 118.879 22.04C117.919 22.04 117.119 22.304 116.479 22.832C115.839 23.36 115.431 24.08 115.255 24.992Z" fill="#232323"/>
<path fill-rule="evenodd" clip-rule="evenodd" d="M33.1378 8.77033C24.5837 3.1014 9.61487 7.10886 3.81377 11.0133C8.08537 4.3873 15.5303 0 24 0C35.8655 0 45.7199 8.6107 47.6553 19.9243C42.4361 23.906 31.627 30.7728 23.5272 31.2311C12.7614 31.8403 12.6038 25.4018 15.9124 21.5681C8.27216 29.0545 17.9548 33.1364 23.8423 33.1294V34.2801C23.7374 34.2797 23.6323 34.2787 23.5272 34.2771C9.66292 34.067 11.8686 25.0867 13.0765 23.3011C11.7636 23.9838 5.30405 32.6491 14.1793 38.5309C23.9999 45.0392 42.2756 38.7935 45.4266 34.5922L45.4552 34.7668C41.5091 42.615 33.3834 48 24 48C11.7554 48 1.65244 38.8303 0.183597 26.9832C5.57499 22.9592 15.9512 16.5137 23.7898 16.0701C34.5557 15.4609 34.7132 21.8994 31.4047 25.7331C39.0449 18.2468 29.3623 14.1649 23.4747 14.1718V13.0211C23.5797 13.0216 23.6847 13.0226 23.7898 13.0242C37.6542 13.2342 35.4485 22.2145 34.2406 24.0001C35.5535 23.3174 42.013 14.6522 33.1378 8.77033ZM0 24L3.61463e-06 24.0091C3.73891 20.7937 12.6968 15.1248 21.6367 14.2732V13.0716C12.5842 13.5998 4.28099 18.1422 0.158388 21.2277C0.0537683 22.1373 0 23.0624 0 24ZM25.6804 33.0281C35.1889 32.1223 44.718 25.7668 47.9659 22.7101C47.9885 23.1372 48 23.5673 48 24C48 24.4879 47.9854 24.9723 47.9567 25.4529C44.1869 28.508 35.3623 33.6647 25.6804 34.2297V33.0281ZM29.7637 23.8818C27.1321 22.7321 25.0315 20.6315 23.8818 18C22.7321 20.6315 20.6315 22.7321 18 23.8818C20.6315 25.0315 22.7321 27.1321 23.8818 29.7637C25.0315 27.1321 27.1321 25.0315 29.7637 23.8818Z" fill="#CC4B50"/>
</svg>
