<svg width="115" height="48" viewBox="0 0 115 48" fill="none" xmlns="http://www.w3.org/2000/svg">
<path d="M69.8 26.5V17H72.1V31H70.3L63.7 21.5V31H61.4V17H63.2L69.8 26.5ZM82.6761 22.42V21H84.8361V31H82.6761V29.56C81.8628 30.6933 80.6961 31.26 79.1761 31.26C77.8028 31.26 76.6294 30.7533 75.6561 29.74C74.6828 28.7267 74.1961 27.48 74.1961 26C74.1961 24.52 74.6828 23.2733 75.6561 22.26C76.6294 21.2467 77.8028 20.74 79.1761 20.74C80.6961 20.74 81.8628 21.3 82.6761 22.42ZM77.2561 28.3C77.8561 28.9 78.6094 29.2 79.5161 29.2C80.4228 29.2 81.1761 28.9 81.7761 28.3C82.3761 27.6867 82.6761 26.92 82.6761 26C82.6761 25.08 82.3761 24.32 81.7761 23.72C81.1761 23.1067 80.4228 22.8 79.5161 22.8C78.6094 22.8 77.8561 23.1067 77.2561 23.72C76.6561 24.32 76.3561 25.08 76.3561 26C76.3561 26.9067 76.6561 27.6733 77.2561 28.3ZM98.2738 20.74C99.4071 20.74 100.32 21.1067 101.014 21.84C101.707 22.5733 102.054 23.56 102.054 24.8V31H99.8938V24.94C99.8938 24.26 99.7204 23.7267 99.3738 23.34C99.0271 22.9533 98.5538 22.76 97.9538 22.76C97.2738 22.76 96.7404 22.9867 96.3538 23.44C95.9671 23.88 95.7738 24.5333 95.7738 25.4V31H93.6138V24.94C93.6138 24.2467 93.4471 23.7133 93.1138 23.34C92.7938 22.9533 92.3338 22.76 91.7338 22.76C91.0671 22.76 90.5271 22.9867 90.1138 23.44C89.7138 23.8933 89.5138 24.5467 89.5138 25.4V31H87.3538V21H89.5138V22.2C90.1538 21.2267 91.1071 20.74 92.3738 20.74C93.6538 20.74 94.6004 21.2667 95.2138 22.32C95.8671 21.2667 96.8871 20.74 98.2738 20.74ZM114.025 26.92H106.065C106.225 27.6667 106.585 28.2467 107.145 28.66C107.719 29.0733 108.425 29.28 109.265 29.28C110.399 29.28 111.259 28.8667 111.845 28.04L113.625 29.08C112.652 30.5333 111.192 31.26 109.245 31.26C107.632 31.26 106.319 30.7667 105.305 29.78C104.305 28.78 103.805 27.52 103.805 26C103.805 24.52 104.299 23.2733 105.285 22.26C106.259 21.2467 107.525 20.74 109.085 20.74C110.539 20.74 111.739 21.2533 112.685 22.28C113.632 23.3067 114.105 24.5533 114.105 26.02C114.105 26.2867 114.079 26.5867 114.025 26.92ZM106.045 25.16H111.925C111.779 24.3733 111.445 23.7667 110.925 23.34C110.419 22.9133 109.799 22.7 109.065 22.7C108.265 22.7 107.599 22.92 107.065 23.36C106.532 23.8 106.192 24.4 106.045 25.16Z" fill="white"/>
<path fill-rule="evenodd" clip-rule="evenodd" d="M33.1377 8.77032C24.5837 3.10141 9.61495 7.10882 3.8138 11.0132C8.08541 4.38728 15.5303 0 24 0C35.8655 0 45.7199 8.61068 47.6553 19.9242C42.4361 23.906 31.627 30.7727 23.5272 31.2311C12.7614 31.8403 12.6038 25.4018 15.9123 21.5681C8.27213 29.0545 17.9547 33.1363 23.8423 33.1294V34.2801C23.7373 34.2797 23.6323 34.2786 23.5272 34.2771C9.66288 34.067 11.8686 25.0867 13.0764 23.3011C11.7635 23.9838 5.30402 32.649 14.1793 38.5309C23.9999 45.0392 42.2756 38.7935 45.4266 34.5922L45.4552 34.7668C41.5091 42.615 33.3834 48 24 48C11.7554 48 1.65242 38.8303 0.183593 26.9832C5.57499 22.9592 15.9512 16.5137 23.7898 16.0701C34.5557 15.4609 34.7132 21.8994 31.4047 25.7331C39.0449 18.2467 29.3623 14.1649 23.4747 14.1718V13.0211C23.5797 13.0216 23.6847 13.0226 23.7898 13.0242C37.6541 13.2342 35.4484 22.2145 34.2406 24.0001C35.5535 23.3174 42.013 14.6522 33.1377 8.77032ZM0 24L3.59967e-06 24.0091C3.73893 20.7936 12.6968 15.1248 21.6366 14.2732V13.0716C12.5841 13.5998 4.28101 18.1422 0.158392 21.2277C0.0537698 22.1373 0 23.0624 0 24ZM25.6804 33.0281C35.1889 32.1223 44.718 25.7668 47.9659 22.71C47.9885 23.1372 48 23.5672 48 24C48 24.4878 47.9854 24.9723 47.9567 25.4529C44.187 28.5079 35.3623 33.6647 25.6804 34.2296V33.0281ZM29.7637 23.8818C27.1321 22.7321 25.0315 20.6315 23.8818 18C22.7321 20.6315 20.6315 22.7321 18 23.8818C20.6315 25.0315 22.7321 27.1321 23.8818 29.7637C25.0315 27.1321 27.1321 25.0315 29.7637 23.8818Z" fill="#F5F5F5"/>
</svg>
