<svg width="274" height="274" viewBox="0 0 274 274" fill="none" xmlns="http://www.w3.org/2000/svg">
<path fill-rule="evenodd" clip-rule="evenodd" d="M210.276 67.9118C172.328 23.7971 84.4655 22.6064 46.7931 34.9768C80.3117 5.39836 127.699 -7.07457 173.92 5.97345C238.672 24.253 279.184 86.4246 272.317 151.147C237.701 164.835 168.135 185.656 123.227 175.679C63.5372 162.419 72.5964 127.039 96.5578 111.215C43.3304 140.3 89.882 177.492 122.022 186.524L120.25 192.804C119.678 192.64 119.106 192.472 118.535 192.302C43.1979 169.796 69.0695 124.187 78.4119 116.304C70.1954 118.007 21.5952 155.343 60.968 201.115C104.534 251.761 213.891 245.832 237.558 227.759L237.446 228.755C203.82 265.506 151.181 282.375 99.973 267.919C33.1515 249.056 -7.8557 183.45 2.37965 116.536C38.0006 102.882 104.556 83.6919 148.017 93.3472C207.707 106.608 198.648 141.987 174.686 157.811C227.913 128.727 181.362 91.5346 149.222 82.5025L150.994 76.2229C151.566 76.3869 152.138 76.5542 152.709 76.7248C228.046 99.23 202.174 144.839 192.832 152.723C201.049 151.02 249.649 113.683 210.276 67.9118ZM5.97357 99.9728L5.9595 100.023C31.3167 88.2352 88.9359 71.0988 139.035 80.2238L140.886 73.6665C90.6702 62.6033 38.3599 74.6009 11.1088 85.088C9.13657 89.8906 7.41803 94.8561 5.97357 99.9728ZM132.209 188.803C185.494 198.508 247.286 178.506 269.721 166.828C269.186 169.194 268.586 171.558 267.919 173.92C267.168 176.582 266.342 179.203 265.445 181.782C240.165 192.646 184.064 207.192 130.358 195.36L132.209 188.803ZM149.494 101.811L149.14 99.2339L147.49 101.245C138.222 112.542 125.032 119.924 110.557 121.916L107.98 122.271L109.991 123.921C121.288 133.188 128.67 146.379 130.662 160.854L131.017 163.431L132.667 161.42C141.934 150.123 155.125 142.74 169.6 140.748L172.177 140.394L170.166 138.744C158.869 129.476 151.487 116.286 149.494 101.811Z" fill="white"/>
</svg>
