<svg width="264" height="211" viewBox="0 0 264 211" fill="none" xmlns="http://www.w3.org/2000/svg">
<circle opacity="0.82" cx="146" cy="167" r="146" fill="white"/>
<g clip-path="url(#clip0_244_2095)">
<path d="M106.908 213.55V204.061C106.908 191.478 111.907 179.41 120.804 170.512C129.702 161.615 141.77 156.616 154.353 156.616M154.353 156.616C166.936 156.616 179.003 161.615 187.901 170.512C196.798 179.41 201.797 191.478 201.797 204.061V213.55M154.353 156.616C161.902 156.616 169.143 153.617 174.482 148.279C179.82 142.94 182.819 135.7 182.819 128.15C182.819 120.6 179.82 113.359 174.482 108.021C169.143 102.682 161.902 99.6831 154.353 99.6831C146.803 99.6831 139.562 102.682 134.224 108.021C128.885 113.359 125.886 120.6 125.886 128.15C125.886 135.7 128.885 142.94 134.224 148.279C139.562 153.617 146.803 156.616 154.353 156.616ZM49.9751 213.55V204.061C49.9751 196.511 52.9742 189.27 58.3128 183.932C63.6513 178.593 70.8919 175.594 78.4417 175.594M78.4417 175.594C83.4749 175.594 88.302 173.595 91.861 170.036C95.42 166.477 97.4194 161.65 97.4194 156.616C97.4194 151.583 95.42 146.756 91.861 143.197C88.302 139.638 83.4749 137.639 78.4417 137.639C73.4085 137.639 68.5814 139.638 65.0224 143.197C61.4634 146.756 59.464 151.583 59.464 156.616C59.464 161.65 61.4634 166.477 65.0224 170.036C68.5814 173.595 73.4085 175.594 78.4417 175.594ZM258.73 213.55V204.061C258.73 196.511 255.731 189.27 250.393 183.932C245.054 178.593 237.813 175.594 230.264 175.594M230.264 175.594C235.297 175.594 240.124 173.595 243.683 170.036C247.242 166.477 249.241 161.65 249.241 156.616C249.241 151.583 247.242 146.756 243.683 143.197C240.124 139.638 235.297 137.639 230.264 137.639C225.23 137.639 220.403 139.638 216.844 143.197C213.285 146.756 211.286 151.583 211.286 156.616C211.286 161.65 213.285 166.477 216.844 170.036C220.403 173.595 225.23 175.594 230.264 175.594Z" stroke="#4E4E4E" stroke-opacity="0.83" stroke-width="10" stroke-linecap="round" stroke-linejoin="round"/>
</g>
<defs>
<clipPath id="clip0_244_2095">
<rect width="298" height="298" fill="white" transform="translate(15)"/>
</clipPath>
</defs>
</svg>
