<svg width="24" height="24" viewBox="0 0 24 24" fill="none" xmlns="http://www.w3.org/2000/svg"><g clip-path="url(#clip0_3741_17135)"><path fill-rule="evenodd" clip-rule="evenodd" d="M17.2724 11.526C18.1785 13.4802 20.6332 14.8851 20.233 16.9906C19.811 19.21 17.4423 20.3481 15.417 21.2858C13.2489 22.2896 10.8679 23.1916 8.60328 22.3753C6.22377 21.5175 3.96647 19.5357 3.56916 17.0149C3.20205 14.6857 5.51619 13.0433 6.82862 11.1158C7.74156 9.77497 8.54511 8.43284 9.95161 7.64128C11.6129 6.70632 13.5988 5.44634 15.2992 6.34862C16.9828 7.24204 16.4649 9.78419 17.2724 11.526Z" fill="#FFD5CA"/><path d="M15.4131 19C15.0792 19.9799 14.8302 20.9868 14.6689 22.0088L14.6055 22.4473C14.5793 22.6465 14.402 22.7733 14.1963 22.8564C13.984 22.9423 13.7019 22.9984 13.3945 23.0352C12.9321 23.0904 12.396 23.1036 11.918 23.1035L11.4648 23.0996C10.961 23.0962 10.2317 23.097 9.61914 23.0264C9.31342 22.9911 9.02922 22.9373 8.81445 22.8535C8.63301 22.7827 8.47124 22.6781 8.41602 22.5186L8.39941 22.4473C8.2438 21.2746 7.97234 20.1197 7.59082 19L7.53809 18.8438L7.70117 18.8691C7.80228 18.8849 7.90461 18.8956 8.00684 18.9004H14.9971C15.0993 18.8956 15.2016 18.8849 15.3027 18.8691L15.4658 18.8438L15.4131 19Z" fill="white"/><path fill-rule="evenodd" clip-rule="evenodd" d="M11.499 23.9004H11.5762C12.4157 23.9004 13.3365 23.897 14.0703 23.7197C14.8041 23.5424 15.312 23.2018 15.3984 22.5527L15.4746 22.0371C15.6691 20.8364 15.9936 19.66 16.4424 18.5283L16.4541 18.4961L16.4844 18.4785C16.9149 18.2235 17.272 17.8611 17.5205 17.4268C17.7381 17.0464 17.866 16.6221 17.8955 16.1865L17.9023 16V10.9004H18.502C18.5545 10.9004 18.6067 10.8892 18.6553 10.8691C18.7037 10.8491 18.7481 10.8203 18.7852 10.7832C18.8222 10.7461 18.851 10.7017 18.8711 10.6533C18.8811 10.629 18.8894 10.6038 18.8945 10.5781L18.9023 10.5V8.5C18.9024 8.44747 18.8912 8.39522 18.8711 8.34668C18.851 8.29827 18.8222 8.25386 18.7852 8.2168C18.7481 8.17973 18.7037 8.15094 18.6553 8.13086C18.631 8.12081 18.6057 8.11251 18.5801 8.10742L18.502 8.09961H17.9023V8C17.9008 7.49945 17.769 7.00774 17.5205 6.57324C17.272 6.13886 16.9149 5.77651 16.4844 5.52148L16.4541 5.50391L16.4424 5.47168C15.9936 4.34003 15.6691 3.1636 15.4746 1.96289L15.3984 1.44727C15.312 0.798435 14.8043 0.457629 14.0615 0.280273C13.3187 0.102941 12.3802 0.0996094 11.5049 0.0996094H11.4277C10.5882 0.0996094 9.66744 0.103012 8.93359 0.280273C8.24568 0.446502 7.75572 0.756265 7.62598 1.3291L7.60547 1.44727C7.4257 2.82669 7.07524 4.17853 6.5625 5.47168L6.5498 5.50391L6.52051 5.52148C6.08971 5.77653 5.73198 6.13868 5.4834 6.57324C5.26581 6.95363 5.13788 7.37787 5.1084 7.81348L5.10156 8V16C5.10306 16.5005 5.23487 16.9923 5.4834 17.4268C5.70092 17.807 6.00192 18.1317 6.3623 18.3779L6.51953 18.4785L6.5498 18.4961L6.56152 18.5283C7.07434 19.8216 7.42565 21.1732 7.60547 22.5527L7.62598 22.6709C7.75573 23.2436 8.246 23.5535 8.94238 23.7197C9.68526 23.8971 10.6237 23.9004 11.499 23.9004ZM14.6689 22.0088C14.8302 20.9868 15.0792 19.9799 15.4131 19L15.4658 18.8438L15.3027 18.8691C15.2016 18.8849 15.0993 18.8956 14.9971 18.9004H8.00684C7.90461 18.8956 7.80228 18.8849 7.70117 18.8691L7.53809 18.8438L7.59082 19C7.97234 20.1197 8.2438 21.2746 8.39941 22.4473L8.41602 22.5186C8.47124 22.6781 8.63301 22.7827 8.81445 22.8535C9.02922 22.9373 9.31342 22.9911 9.61914 23.0264C10.2317 23.097 10.961 23.0962 11.4648 23.0996L11.918 23.1035C12.396 23.1036 12.9321 23.0904 13.3945 23.0352C13.7019 22.9984 13.984 22.9423 14.1963 22.8564C14.402 22.7733 14.5793 22.6465 14.6055 22.4473L14.6689 22.0088ZM5.90234 8V16L5.91211 16.208C5.96038 16.6884 6.17321 17.14 6.51758 17.4844C6.91125 17.878 7.44522 18.099 8.00195 18.0996H15.002L15.21 18.0898C15.6903 18.0416 16.142 17.8287 16.4863 17.4844C16.88 17.0907 17.1009 16.5567 17.1016 16V8L17.0918 7.79199C17.0435 7.31163 16.8307 6.85999 16.4863 6.51562C16.0927 6.12196 15.5587 5.90103 15.002 5.90039H8.00195C7.44522 5.90103 6.91125 6.12196 6.51758 6.51562C6.12391 6.90929 5.90298 7.44327 5.90234 8ZM13.4023 0.973633C12.7973 0.901395 12.0751 0.900391 11.5674 0.900391H11.5078C10.9646 0.900391 10.2243 0.901415 9.61035 0.973633C9.30429 1.00966 9.02221 1.06433 8.80957 1.14844C8.62991 1.21954 8.47077 1.32355 8.41602 1.48145L8.39844 1.55273C8.24283 2.72538 7.97232 3.88028 7.59082 5L7.53809 5.15625L7.70117 5.13086C7.75171 5.12297 7.80265 5.11647 7.85352 5.11133L8.00684 5.09961H14.9971L15.1504 5.11133C15.2013 5.11647 15.2522 5.12297 15.3027 5.13086L15.4658 5.15625L15.4131 5C15.0792 4.02012 14.8302 3.01322 14.6689 1.99121L14.6055 1.55273C14.5792 1.35407 14.3998 1.22975 14.1953 1.14844C13.9837 1.06429 13.7041 1.00966 13.4023 0.973633Z" fill="#252525"/></g><defs><clipPath id="clip0_3741_17135"><rect width="24" height="24" fill="white"/></clipPath></defs></svg>