<svg width="25" height="24" viewBox="0 0 25 24" fill="none" xmlns="http://www.w3.org/2000/svg"><path d="M11.5508 14.5C11.5508 13.1076 12.1039 11.7723 13.0885 10.7877C14.073 9.80312 15.4084 9.25 16.8008 9.25H4.05078V6.25H19.0508V9.25H16.8008C17.8741 9.24916 18.9217 9.57914 19.8008 10.195V5.5C19.8004 5.1023 19.6422 4.721 19.361 4.43978C19.0798 4.15856 18.6985 4.0004 18.3008 4H4.80078C4.40308 4.0004 4.02178 4.15856 3.74056 4.43978C3.45934 4.721 3.30118 5.1023 3.30078 5.5V14.5C3.30118 14.8977 3.45934 15.279 3.74056 15.5602C4.02178 15.8414 4.40308 15.9996 4.80078 16H11.7711C11.6254 15.5133 11.5512 15.008 11.5508 14.5Z" fill="#D0D0D0"/><path d="M16.8008 10C15.9108 10 15.0407 10.2639 14.3007 10.7584C13.5607 11.2529 12.9839 11.9557 12.6433 12.7779C12.3027 13.6002 12.2136 14.505 12.3872 15.3779C12.5609 16.2508 12.9895 17.0526 13.6188 17.682C14.2481 18.3113 15.05 18.7399 15.9229 18.9135C16.7958 19.0872 17.7006 18.9981 18.5229 18.6575C19.3451 18.3169 20.0479 17.7401 20.5424 17.0001C21.0369 16.26 21.3008 15.39 21.3008 14.5C21.3008 13.3065 20.8267 12.1619 19.9828 11.318C19.1388 10.4741 17.9943 10 16.8008 10Z" fill="#D0D0D0"/><path d="M15.3342 16.3124C15.222 16.4245 15.0402 16.4244 14.9281 16.3123C14.8159 16.2 14.8159 16.0181 14.9282 15.9059L18.2952 12.5414C18.4081 12.4286 18.5911 12.429 18.7035 12.5422C18.8154 12.6549 18.815 12.837 18.7026 12.9492L15.3342 16.3124ZM18.0355 16.6023C17.844 16.6023 17.669 16.5559 17.5103 16.463C17.3537 16.3682 17.2279 16.2425 17.1331 16.0858C17.0384 15.9272 16.991 15.7512 16.991 15.5577C16.991 15.3682 17.0393 15.1941 17.136 15.0355C17.2328 14.8769 17.3604 14.7502 17.5191 14.6554C17.6777 14.5606 17.8498 14.5132 18.0355 14.5132C18.227 14.5132 18.4021 14.5606 18.5607 14.6554C18.7193 14.7482 18.8451 14.874 18.9379 15.0326C19.0327 15.1893 19.0801 15.3643 19.0801 15.5577C19.0801 15.7512 19.0327 15.9272 18.9379 16.0858C18.8451 16.2425 18.7193 16.3682 18.5607 16.463C18.4021 16.5559 18.227 16.6023 18.0355 16.6023ZM18.0355 16.0771C18.1303 16.0771 18.2164 16.0539 18.2938 16.0075C18.3731 15.9591 18.4359 15.8953 18.4824 15.816C18.5307 15.7367 18.5549 15.6506 18.5549 15.5577C18.5549 15.4649 18.5307 15.3788 18.4824 15.2995C18.4359 15.2202 18.3731 15.1573 18.2938 15.1109C18.2164 15.0626 18.1303 15.0384 18.0355 15.0384C17.9427 15.0384 17.8566 15.0626 17.7773 15.1109C17.6999 15.1573 17.637 15.2202 17.5887 15.2995C17.5423 15.3788 17.5191 15.4649 17.5191 15.5577C17.5191 15.6506 17.5423 15.7367 17.5887 15.816C17.637 15.8953 17.6999 15.9591 17.7773 16.0075C17.8566 16.0539 17.9427 16.0771 18.0355 16.0771ZM15.5953 14.3391C15.4038 14.3391 15.2288 14.2927 15.0702 14.1998C14.9115 14.105 14.7848 13.9793 14.6901 13.8226C14.5972 13.664 14.5508 13.488 14.5508 13.2946C14.5508 13.105 14.5991 12.9309 14.6959 12.7723C14.7926 12.6137 14.9202 12.487 15.0789 12.3922C15.2375 12.2974 15.4096 12.25 15.5953 12.25C15.7868 12.25 15.9609 12.2974 16.1176 12.3922C16.2762 12.485 16.4029 12.6108 16.4977 12.7694C16.5925 12.9261 16.6399 13.1011 16.6399 13.2946C16.6399 13.488 16.5925 13.664 16.4977 13.8226C16.4029 13.9793 16.2762 14.105 16.1176 14.1998C15.9609 14.2927 15.7868 14.3391 15.5953 14.3391ZM15.5953 13.8139C15.6882 13.8139 15.7743 13.7907 15.8536 13.7443C15.9329 13.6959 15.9957 13.6321 16.0422 13.5528C16.0905 13.4735 16.1147 13.3874 16.1147 13.2946C16.1147 13.2017 16.0905 13.1156 16.0422 13.0363C15.9957 12.957 15.9329 12.8941 15.8536 12.8477C15.7743 12.7994 15.6882 12.7752 15.5953 12.7752C15.5025 12.7752 15.4164 12.7994 15.3371 12.8477C15.2597 12.8941 15.1969 12.957 15.1485 13.0363C15.1001 13.1156 15.076 13.2017 15.076 13.2946C15.076 13.3874 15.1001 13.4735 15.1485 13.5528C15.1969 13.6321 15.2597 13.6959 15.3371 13.7443C15.4145 13.7907 15.5006 13.8139 15.5953 13.8139Z" fill="#252525"/></svg>