<svg width="25" height="24" viewBox="0 0 25 24" fill="none" xmlns="http://www.w3.org/2000/svg"><path d="M2.57342 12.0263C2.35842 12.1055 2.2476 12.3438 2.32592 12.5596L2.5876 13.2796L4.58008 11.2871L2.57342 12.0263Z" fill="#D0D0D0"/><path d="M4.46094 18.4268L5.66095 21.7268C5.69845 21.831 5.77677 21.916 5.87677 21.9618C5.93259 21.9876 5.99259 22.001 6.05259 22.001C6.10177 22.001 6.15009 21.9927 6.19677 21.9752L7.52097 21.4868L4.46094 18.4268Z" fill="#D0D0D0"/><path d="M22.2767 15.6089L20.9034 11.833L17.6075 15.1289L19.2408 14.5272C19.455 14.4455 19.6967 14.5572 19.7758 14.7739C19.8558 14.9897 19.745 15.2297 19.5292 15.3089L17.4541 16.0739C17.4066 16.0914 17.3583 16.0997 17.31 16.0997C17.1408 16.0997 16.9808 15.9955 16.9191 15.8272C16.9183 15.8247 16.9191 15.8222 16.9183 15.8197L13.4258 19.3122L22.0292 16.1422C22.245 16.063 22.3558 15.8247 22.2767 15.6089Z" fill="#D0D0D0"/><path d="M22.1787 8.78862L15.512 2.12188C15.3495 1.95937 15.0853 1.95937 14.9228 2.12188L2.42266 14.622C2.26016 14.7845 2.26016 15.0487 2.42266 15.2112L9.0894 21.8779C9.17022 21.9596 9.2769 22.0004 9.38358 22.0004C9.49026 22.0004 9.5969 21.9596 9.67858 21.8787L22.1787 9.37862C22.3412 9.2153 22.3412 8.95194 22.1787 8.78862ZM7.17856 13.5453L5.51187 15.212C5.43019 15.2928 5.32354 15.3337 5.21686 15.3337C5.11018 15.3337 5.00354 15.2929 4.92186 15.212C4.75936 15.0495 4.75936 14.7853 4.92186 14.6228L6.58856 12.9561C6.75106 12.7936 7.01524 12.7936 7.17774 12.9561C7.34024 13.1187 7.34106 13.382 7.17856 13.5453ZM14.3744 14.0745C14.0794 14.3695 13.6786 14.5112 13.2328 14.5112C12.4961 14.5112 11.6352 14.1253 10.9152 13.4045C10.3886 12.8778 10.0185 12.2478 9.8744 11.6311C9.7144 10.9436 9.84609 10.3453 10.2452 9.94531C10.6444 9.5453 11.2427 9.41362 11.9311 9.57448C12.5478 9.71867 13.1778 10.0878 13.7044 10.6153C14.862 11.772 15.157 13.292 14.3744 14.0745ZM19.6787 9.37862L18.012 11.0453C17.9303 11.1261 17.8237 11.167 17.717 11.167C17.6103 11.167 17.5037 11.1262 17.422 11.0453C17.2595 10.8828 17.2595 10.6186 17.422 10.4561L19.0887 8.78944C19.2512 8.62694 19.5154 8.62694 19.6779 8.78944C19.8404 8.95194 19.8412 9.2153 19.6787 9.37862Z" fill="#D0D0D0"/></svg>