<svg width="24" height="24" viewBox="0 0 24 24" fill="none" xmlns="http://www.w3.org/2000/svg"><path d="M6 7.48242L7.93753 10.9456V13.0581L6.00227 16.5145L6 7.48242Z" fill="#252525"/><path d="M13.4414 9.68556L15.2569 8.5728L18.9725 8.56934L13.4414 11.9577V9.68556Z" fill="#252525"/><path d="M13.4318 7.46213L13.4421 12.0473L11.5 10.854V4L13.4319 7.46213H13.4318Z" fill="#252525"/><path d="M18.9732 8.56929L15.2575 8.57276L13.4318 7.46213L11.5 4L18.973 8.56929H18.9732Z" fill="#252525"/><path d="M13.4421 16.5339V14.3093L11.5 13.1387L11.5011 19.9995L13.4421 16.5339Z" fill="#252525"/><path d="M15.2503 15.4311L7.93739 10.9456L6 7.48242L18.9626 15.4265L15.2502 15.4311H15.2503Z" fill="#252525"/><path d="M11.5 19.9995L13.4407 16.5339L15.2517 15.4313L18.964 15.4268L11.5 19.9995Z" fill="#252525"/><path d="M6.00391 16.5146L11.5148 13.1387L9.66203 12.002L7.93917 13.0582L6.00391 16.5146Z" fill="#252525"/></svg>