<svg width="24" height="24" viewBox="0 0 24 24" fill="none" xmlns="http://www.w3.org/2000/svg"><g clip-path="url(#clip0_3741_17123)"><path fill-rule="evenodd" clip-rule="evenodd" d="M9.38867 8.68553C11.5236 7.40518 11.9988 5.58093 14.4861 5.68507C17.2377 5.80028 19.1018 6.30371 20.4844 8.68555C21.8631 11.0606 23.062 13.2046 21.889 15.6877C20.8341 17.9209 17.8846 18.0679 15.8003 19.393C13.5527 20.822 12.0369 23.9328 9.39038 23.6342C6.65702 23.3258 5.04572 20.4685 3.76372 18.0348C2.54995 15.7306 1.45014 12.9879 2.53508 10.6204C3.54897 8.40789 7.30149 9.93724 9.38867 8.68553Z" fill="#FFD5CA"/><path fill-rule="evenodd" clip-rule="evenodd" d="M10.1731 22.3064C10.1731 22.2069 10.2126 22.1115 10.283 22.0412C10.3533 21.9709 10.4487 21.9314 10.5481 21.9314H13.4554C13.5548 21.9314 13.6502 21.9709 13.7205 22.0412C13.7908 22.1115 13.8304 22.2069 13.8304 22.3064C13.8304 22.4058 13.7908 22.5012 13.7205 22.5715C13.6502 22.6418 13.5548 22.6814 13.4554 22.6814H10.5481C10.4487 22.6814 10.3533 22.6418 10.283 22.5715C10.2126 22.5012 10.1731 22.4058 10.1731 22.3064ZM6.30073 1.54688V22.4531C6.30097 22.6644 6.385 22.8669 6.53439 23.0163C6.68379 23.1657 6.88634 23.2498 7.09761 23.25H16.9058C17.1171 23.2498 17.3197 23.1658 17.4691 23.0164C17.6185 22.867 17.7025 22.6644 17.7027 22.4531V1.54688C17.7025 1.33559 17.6185 1.13301 17.4691 0.983605C17.3197 0.834202 17.1171 0.750186 16.9058 0.75H15.3486L14.991 1.85002C14.9666 1.92538 14.9188 1.99105 14.8547 2.03761C14.7906 2.08417 14.7134 2.10923 14.6342 2.10919H9.36917C9.28997 2.10919 9.2128 2.08411 9.14872 2.03755C9.08465 1.991 9.03696 1.92535 9.0125 1.85002L8.65484 0.75H7.09766C6.88638 0.750223 6.68382 0.834251 6.53443 0.983646C6.38503 1.13304 6.301 1.3356 6.30078 1.54688H6.30073ZM7.09761 24H16.9058C17.316 23.9996 17.7092 23.8365 17.9992 23.5465C18.2892 23.2565 18.4523 22.8633 18.4527 22.4531V1.54688C18.4522 1.13677 18.2891 0.743594 17.9991 0.453604C17.7091 0.163613 17.3159 0.000483816 16.9058 0L7.09766 0C6.68755 0.000483816 6.29438 0.163613 6.00438 0.453604C5.71439 0.743594 5.55127 1.13677 5.55078 1.54688V22.4531C5.55119 22.8633 5.7143 23.2565 6.0043 23.5465C6.29431 23.8365 6.68753 23.9996 7.09766 24H7.09761Z" fill="#252525"/></g><defs><clipPath id="clip0_3741_17123"><rect width="24" height="24" fill="white"/></clipPath></defs></svg>