<svg width="24" height="24" viewBox="0 0 24 24" fill="none" xmlns="http://www.w3.org/2000/svg"><g clip-path="url(#clip0_3805_5423)"><g clip-path="url(#clip1_3805_5423)"><path d="M20.7188 12.1875H17.0625V8.8125H19.0312L20.7188 12.1875ZM4.31962 16.5H1.5V18L3.19687 18.5655C3.22348 18.1605 3.33765 17.7661 3.53149 17.4095C3.72532 17.0529 3.99422 16.7426 4.31962 16.5Z" fill="#252525"/><path d="M21 12.75H16.5V8.25H20.25V6H15V16.5H7.68038C8.03129 16.7609 8.31639 17.1003 8.51295 17.4909C8.7095 17.8815 8.81208 18.3127 8.8125 18.75H15.1875C15.1875 18.0041 15.4838 17.2887 16.0113 16.7613C16.5387 16.2338 17.2541 15.9375 18 15.9375C18.7459 15.9375 19.4613 16.2338 19.9887 16.7613C20.5162 17.2887 20.8125 18.0041 20.8125 18.75H22.5V13.5L21 12.75ZM6 16.5C5.55499 16.5 5.11998 16.632 4.74997 16.8792C4.37996 17.1264 4.09157 17.4778 3.92127 17.889C3.75097 18.3001 3.70642 18.7525 3.79323 19.189C3.88005 19.6254 4.09434 20.0263 4.40901 20.341C4.72368 20.6557 5.12459 20.87 5.56105 20.9568C5.9975 21.0436 6.4499 20.999 6.86104 20.8287C7.27217 20.6584 7.62357 20.37 7.87081 20C8.11804 19.63 8.25 19.195 8.25 18.75C8.25 18.1533 8.01295 17.581 7.59099 17.159C7.16903 16.7371 6.59674 16.5 6 16.5ZM6 19.5C5.85167 19.5 5.70666 19.456 5.58332 19.3736C5.45999 19.2912 5.36386 19.1741 5.30709 19.037C5.25033 18.9 5.23547 18.7492 5.26441 18.6037C5.29335 18.4582 5.36478 18.3246 5.46967 18.2197C5.57456 18.1148 5.7082 18.0434 5.85368 18.0144C5.99917 17.9855 6.14997 18.0003 6.28701 18.0571C6.42406 18.1139 6.54119 18.21 6.6236 18.3333C6.70601 18.4567 6.75 18.6017 6.75 18.75C6.75 18.9489 6.67098 19.1397 6.53033 19.2803C6.38968 19.421 6.19891 19.5 6 19.5Z" fill="#252525"/><path d="M18 16.5C17.555 16.5 17.12 16.632 16.75 16.8792C16.38 17.1264 16.0916 17.4778 15.9213 17.889C15.751 18.3001 15.7064 18.7525 15.7932 19.189C15.88 19.6254 16.0943 20.0263 16.409 20.341C16.7237 20.6557 17.1246 20.87 17.561 20.9568C17.9975 21.0436 18.4499 20.999 18.861 20.8287C19.2722 20.6584 19.6236 20.37 19.8708 20C20.118 19.63 20.25 19.195 20.25 18.75C20.25 18.1533 20.0129 17.581 19.591 17.159C19.169 16.7371 18.5967 16.5 18 16.5ZM18 19.5C17.8517 19.5 17.7067 19.456 17.5833 19.3736C17.46 19.2912 17.3639 19.1741 17.3071 19.037C17.2503 18.9 17.2355 18.7492 17.2644 18.6037C17.2934 18.4582 17.3648 18.3246 17.4697 18.2197C17.5746 18.1148 17.7082 18.0434 17.8537 18.0144C17.9992 17.9855 18.15 18.0003 18.287 18.0571C18.4241 18.1139 18.5412 18.21 18.6236 18.3333C18.706 18.4567 18.75 18.6017 18.75 18.75C18.75 18.9489 18.671 19.1397 18.5303 19.2803C18.3897 19.421 18.1989 19.5 18 19.5ZM14.4375 6H11.2984L10.0931 7.6875H14.2159L5.04938 15.9375H14.4375V6ZM3.669 11.0625L5.694 6H1.5V15.9375H4.15237L6.58988 11.0625H3.669Z" fill="#252525"/><path d="M7.5 3L4.5 10.5H7.5L5.25 15L12.75 8.25H9L12.75 3H7.5Z" fill="#252525"/></g></g><defs><clipPath id="clip0_3805_5423"><rect width="24" height="24" fill="white"/></clipPath><clipPath id="clip1_3805_5423"><rect width="24" height="24" fill="white"/></clipPath></defs></svg>