<svg width="31" height="24" viewBox="0 0 31 24" fill="none" xmlns="http://www.w3.org/2000/svg"><path d="M19.5382 8C17.5501 8 15.7734 9.02227 15.7734 10.911C15.7734 13.077 18.9244 13.2266 18.9244 14.3148C18.9244 14.7729 18.3951 15.1831 17.4912 15.1831C16.2082 15.1831 15.2494 14.61 15.2494 14.61L14.8391 16.5159C14.8391 16.5159 15.9437 17 17.4102 17C19.5838 17 21.2942 15.9275 21.2942 14.0065C21.2942 11.7177 18.1301 11.5726 18.1301 10.5626C18.1301 10.2037 18.5646 9.81042 19.466 9.81042C20.483 9.81042 21.3128 10.2272 21.3128 10.2272L21.7143 8.3864C21.7143 8.3864 20.8115 8 19.5382 8ZM1.34892 8.13893L1.30078 8.41679C1.30078 8.41679 2.13718 8.56864 2.8905 8.87156C3.86045 9.21892 3.92955 9.42114 4.0929 10.0492L5.87299 16.8567H8.25921L11.9354 8.13893H9.55461L7.19247 14.0662L6.22857 9.04197C6.14017 8.46695 5.69241 8.13893 5.14433 8.13893H1.34892ZM12.8927 8.13893L11.0251 16.8567H13.2953L15.1564 8.13893H12.8927ZM25.5546 8.13893C25.0072 8.13893 24.7171 8.42968 24.5043 8.93777L21.1782 16.8567H23.559L24.0196 15.5369H26.92L27.2001 16.8567H29.3008L27.4682 8.13893H25.5546ZM25.8642 10.4942L26.5699 13.7656H24.6793L25.8642 10.4942Z" fill="#D0D0D0"/></svg>