<svg width="30" height="22" viewBox="0 0 30 22" fill="none" xmlns="http://www.w3.org/2000/svg"><path d="M29.6007 10.011L20.0552 0.385979C19.798 0.135512 19.4535 -0.00308085 19.096 5.19784e-05C18.7385 0.0031848 18.3964 0.147792 18.1436 0.402729C17.8908 0.657665 17.7474 1.00253 17.7443 1.36305C17.7411 1.72357 17.8786 2.0709 18.127 2.33023L25.3448 9.6081H1.36365C1.00199 9.6081 0.655138 9.75297 0.399404 10.0108C0.14367 10.2687 0 10.6184 0 10.9831C0 11.3478 0.14367 11.6975 0.399404 11.9554C0.655138 12.2132 1.00199 12.3581 1.36365 12.3581H25.3448L18.127 19.636C17.9968 19.7628 17.8929 19.9145 17.8214 20.0823C17.7499 20.2501 17.7123 20.4305 17.7107 20.6131C17.7092 20.7956 17.7437 20.9767 17.8122 21.1457C17.8808 21.3146 17.9821 21.4682 18.1101 21.5973C18.2381 21.7264 18.3904 21.8285 18.558 21.8976C18.7256 21.9667 18.9051 22.0015 19.0862 21.9999C19.2673 21.9984 19.4462 21.9604 19.6126 21.8884C19.7789 21.8163 19.9294 21.7116 20.0552 21.5802L29.6007 11.9552C29.8564 11.6974 30 11.3477 30 10.9831C30 10.6185 29.8564 10.2688 29.6007 10.011Z" fill="#1F1F1F"/></svg>