<svg width="24" height="17" viewBox="0 0 24 17" fill="none" xmlns="http://www.w3.org/2000/svg"><path d="M20.2758 7.92444H21.5058L20.6247 7.06626L14.854 1.44594C14.7496 1.33924 14.6941 1.19978 14.6954 1.05773C14.6967 0.914493 14.7556 0.774752 14.8637 0.669388C14.9724 0.563605 15.122 0.501368 15.281 0.500022C15.4388 0.498687 15.5885 0.557426 15.6989 0.659952L23.3317 8.09389C23.3317 8.09391 23.3317 8.09393 23.3317 8.09395C23.4411 8.2005 23.5 8.34213 23.5 8.48694C23.5 8.63175 23.4411 8.77339 23.3317 8.87994C23.3317 8.87996 23.3317 8.87998 23.3317 8.88L15.6953 16.3174L15.6952 16.3174L15.6891 16.3236C15.6353 16.3779 15.5701 16.4219 15.4971 16.4525C15.424 16.483 15.345 16.4993 15.2647 16.5C15.1844 16.5007 15.1051 16.4857 15.0315 16.4564L14.8464 16.9209L15.0315 16.4564C14.9579 16.4271 14.8918 16.3841 14.8369 16.3306C14.7821 16.2772 14.7394 16.2143 14.7108 16.1462C14.6821 16.0781 14.6679 16.0055 14.6686 15.9327C14.6692 15.8599 14.6847 15.7876 14.7146 15.7199L14.2571 15.5181L14.7146 15.7199C14.7445 15.6522 14.7883 15.59 14.8442 15.5374L14.8442 15.5375L14.8505 15.5314L20.6247 9.90763L21.5058 9.04944H20.2758H1.09092C0.930003 9.04944 0.778247 8.98706 0.66838 8.88006C0.558962 8.77349 0.5 8.63181 0.5 8.48694C0.5 8.34208 0.558962 8.2004 0.66838 8.09383L0.323106 7.73932L0.66838 8.09383C0.778247 7.98683 0.930002 7.92444 1.09092 7.92444H20.2758Z" fill="#3656E9" stroke="#3656E9"/></svg>