<svg width="24" height="17" viewBox="0 0 24 17" fill="none" xmlns="http://www.w3.org/2000/svg"><path d="M3.72416 9.07556L2.49416 9.07556L3.37531 9.93375L9.14596 15.5541C9.25043 15.6608 9.30588 15.8002 9.30462 15.9423C9.30334 16.0855 9.24444 16.2252 9.13626 16.3306C9.02765 16.4364 8.87803 16.4986 8.71897 16.5C8.56117 16.5013 8.41148 16.4426 8.3011 16.34L0.668315 8.90611C0.668298 8.90609 0.668279 8.90607 0.668262 8.90606C0.558917 8.7995 0.499997 8.65787 0.499997 8.51306C0.499997 8.36825 0.558917 8.22662 0.668262 8.12006C0.668279 8.12004 0.668298 8.12002 0.668315 8.12001L8.3047 0.682558L8.30475 0.682611L8.31087 0.676443C8.36474 0.622117 8.42991 0.578071 8.50293 0.547521C8.57597 0.516961 8.65499 0.500701 8.73528 0.500024C8.81557 0.499343 8.8949 0.514263 8.96853 0.543603L9.15362 0.0791219L8.96854 0.543605C9.04215 0.572935 9.10816 0.615915 9.16307 0.669387C9.21794 0.722833 9.2606 0.785653 9.28923 0.853813C9.31785 0.921951 9.33208 0.99447 9.33143 1.06727C9.33078 1.14008 9.31526 1.21239 9.2854 1.28009L9.74288 1.48186L9.2854 1.28009C9.25553 1.34782 9.21171 1.40998 9.15582 1.46255L9.15577 1.4625L9.14955 1.46856L3.37531 7.09237L2.49416 7.95056L3.72416 7.95056L22.9091 7.95056C23.07 7.95056 23.2218 8.01294 23.3316 8.11994C23.441 8.22651 23.5 8.36819 23.5 8.51306C23.5 8.65792 23.441 8.7996 23.3316 8.90617L23.6769 9.26068L23.3316 8.90617C23.2218 9.01317 23.07 9.07556 22.9091 9.07556L3.72416 9.07556Z" fill="#3656E9" stroke="#3656E9"/></svg>