<svg width="58" height="58" viewBox="0 0 58 58" fill="none" xmlns="http://www.w3.org/2000/svg"><circle cx="29" cy="29" r="28.5" fill="url(#paint0_radial_151_276)" stroke="white"/><path d="M37.1667 18.3333H35.8833C35.6126 17.1107 34.8961 16.0121 33.8548 15.2228C32.8135 14.4334 31.5109 14.0016 30.1667 14L27.8333 14C26.4891 14.0016 25.1865 14.4334 24.1452 15.2228C23.1039 16.0121 22.3874 17.1107 22.1167 18.3333H20.8333C19.2868 18.3351 17.8042 18.9063 16.7106 19.9217C15.617 20.9372 15.0019 22.3139 15 23.75V27H43V23.75C42.9981 22.3139 42.383 20.9372 41.2894 19.9217C40.1959 18.9063 38.7132 18.3351 37.1667 18.3333ZM24.548 18.3333C24.7884 17.7018 25.2331 17.1548 25.8212 16.7669C26.4093 16.3791 27.112 16.1694 27.8333 16.1667H30.1667C30.888 16.1694 31.5907 16.3791 32.1788 16.7669C32.7669 17.1548 33.2116 17.7018 33.452 18.3333H24.548Z" fill="#3656E9"/><path d="M30.1667 30.2C30.1667 30.5183 30.0437 30.8235 29.825 31.0485C29.6062 31.2736 29.3094 31.4 29 31.4C28.6906 31.4 28.3938 31.2736 28.175 31.0485C27.9562 30.8235 27.8333 30.5183 27.8333 30.2V29H15V35C15.0019 36.5907 15.617 38.1157 16.7106 39.2405C17.8042 40.3653 19.2868 40.9981 20.8333 41H37.1667C38.7132 40.9981 40.1959 40.3653 41.2894 39.2405C42.383 38.1157 42.9981 36.5907 43 35V29H30.1667V30.2Z" fill="#3656E9"/><defs><radialGradient id="paint0_radial_151_276" cx="0" cy="0" r="1" gradientUnits="userSpaceOnUse" gradientTransform="translate(25 18) rotate(61.0203) scale(37.1517 57.0341)"><stop stop-color="white"/><stop offset="1" stop-color="#AFBEFF"/></radialGradient></defs></svg>