<svg width="39" height="34" viewBox="0 0 39 34" fill="none" xmlns="http://www.w3.org/2000/svg"><path d="M34.1638 6.30951H29.4655V18.799C29.4655 22.7292 26.2709 25.9268 22.3442 25.9268H14.8903L12.2134 27.0196C12.9554 28.741 14.6671 29.9491 16.656 29.9491H24.5579L34.4812 34L34.4707 29.9394C36.9951 29.7805 39.0001 27.6745 39.0001 25.1085V11.1501C39.0001 8.48099 36.8305 6.30951 34.1638 6.30951Z" fill="#1F1F1F"/><path d="M14.4422 23.6396H22.3442C25.0109 23.6396 27.1804 21.4681 27.1804 18.799V4.84058C27.1804 2.17148 25.0109 0 22.3442 0H4.83623C2.16953 0 0 2.17148 0 4.84058V18.799C0 21.3635 2.00279 23.4685 4.52514 23.6296L4.52194 27.6893L14.4422 23.6396ZM18.1351 12.9515V10.6643L20.4202 10.6642L20.4202 12.9514L18.1351 12.9515ZM9.04526 12.9514H6.7601V10.6642H9.04526V12.9514ZM12.4476 10.6642H14.7328V12.9514H12.4476V10.6642Z" fill="#1F1F1F"/></svg>