<svg width="58" height="58" viewBox="0 0 58 58" fill="none" xmlns="http://www.w3.org/2000/svg"><circle cx="29" cy="29" r="28.5" fill="url(#paint0_radial_151_272)" stroke="white"/><path d="M42.4575 18.7464C42.0007 18.5521 41.4977 18.501 41.0124 18.5997C40.5271 18.6983 40.0816 18.9422 39.7325 19.3004L36.5 22.6013L30.7675 16.7475C30.2987 16.2689 29.6629 16 29 16C28.3371 16 27.7013 16.2689 27.2325 16.7475L21.5 22.6013L18.2675 19.3004C17.9179 18.9434 17.4725 18.7004 16.9876 18.6019C16.5027 18.5035 16.0001 18.554 15.5434 18.7472C15.0866 18.9404 14.6962 19.2675 14.4215 19.6872C14.1468 20.1069 14.0001 20.6004 14 21.1053V34.6178C14.002 36.3098 14.6611 37.932 15.8328 39.1284C17.0044 40.3249 18.593 40.998 20.25 41H37.75C39.407 40.998 40.9956 40.3249 42.1672 39.1284C43.3389 37.932 43.998 36.3098 44 34.6178V21.1053C44.0001 20.6004 43.8536 20.1068 43.5791 19.6869C43.3045 19.2671 42.9142 18.9397 42.4575 18.7464Z" fill="#2C2C2C"/><defs><radialGradient id="paint0_radial_151_272" cx="0" cy="0" r="1" gradientUnits="userSpaceOnUse" gradientTransform="translate(25 18) rotate(61.0203) scale(37.1517 57.0341)"><stop stop-color="white"/><stop offset="1" stop-color="#E3E3E3"/></radialGradient></defs></svg>