<svg width="32" height="32" viewBox="0 0 32 32" fill="none" xmlns="http://www.w3.org/2000/svg"><path d="M16 32C24.8366 32 32 24.8366 32 16C32 7.16344 24.8366 0 16 0C7.16344 0 0 7.16344 0 16C0 24.8366 7.16344 32 16 32Z" fill="#4A6EA9"/><path d="M13.9882 17.0885H11.8955C11.5671 17.0885 11.4492 16.9685 11.4492 16.6379V14.0842C11.4492 13.7558 11.5734 13.6316 11.8976 13.6316H13.9882V11.7895C13.9634 10.962 14.1619 10.1432 14.5629 9.41898C14.9798 8.68784 15.6478 8.13279 16.4429 7.85687C16.9589 7.66912 17.5043 7.57501 18.0534 7.57898H20.1229C20.4197 7.57898 20.544 7.7095 20.544 8.00003V10.4021C20.544 10.7032 20.4176 10.8232 20.1229 10.8232C19.5566 10.8232 18.9903 10.8232 18.4261 10.8463C17.8618 10.8695 17.5545 11.1263 17.5545 11.7158C17.5418 12.3474 17.5545 12.9663 17.5545 13.6106H19.9861C20.3313 13.6106 20.4492 13.7285 20.4492 14.0758V16.6148C20.4492 16.9579 20.3397 17.0653 19.9924 17.0674H17.5419V23.9179C17.5419 24.2842 17.4282 24.4 17.0661 24.4H14.4303C14.1124 24.4 13.9882 24.2758 13.9882 23.9579V17.0885Z" fill="white"/></svg>