<svg width="30" height="30" viewBox="0 0 30 30" fill="none" xmlns="http://www.w3.org/2000/svg"><path d="M20.0343 16.0249L30 21.9424L25.7456 23.1807L28.7865 28.5432L26.308 30L23.267 24.639L20.0859 27.7711L20.0343 16.0249ZM17.1723 5.82722H20.0343V8.74083H27.1895C27.569 8.74083 27.933 8.89432 28.2014 9.16752C28.4697 9.44073 28.6205 9.81127 28.6205 10.1976V16.0249H25.7584V11.6544H11.4482V26.2225H17.1723V29.1361H10.0172C9.63764 29.1361 9.27365 28.9826 9.00529 28.7094C8.73692 28.4362 8.58615 28.0657 8.58615 27.6793V20.3953H5.7241V17.4817H8.58615V10.1976C8.58615 9.81127 8.73692 9.44073 9.00529 9.16752C9.27365 8.89432 9.63764 8.74083 10.0172 8.74083H17.1723V5.82722ZM2.86205 17.4817V20.3953H0V17.4817H2.86205ZM2.86205 11.6544V14.5681H0V11.6544H2.86205ZM2.86205 5.82722V8.74083H0V5.82722H2.86205ZM2.86205 0V2.91361H0V0H2.86205ZM8.58615 0V2.91361H5.7241V0H8.58615ZM14.3102 0V2.91361H11.4482V0H14.3102ZM20.0343 0V2.91361H17.1723V0H20.0343Z" fill="#8E8E8E"/></svg>