<svg width="122" height="145" viewBox="0 0 122 145" fill="none" xmlns="http://www.w3.org/2000/svg"><path d="M118.979 17.2423L62.219 0.179272C61.4242 -0.0597574 60.5769 -0.0597574 59.7822 0.179272L3.021 17.2423C2.14779 17.5048 1.3823 18.0424 0.838106 18.7754C0.293913 19.5083 9.7088e-06 20.3975 0 21.311V83.8751C0 92.0126 3.2878 100.343 9.77155 108.634C14.7235 114.967 21.5746 121.325 30.134 127.534C44.5132 137.964 58.6726 144.362 59.2683 144.629C59.8132 144.874 60.4035 145 61.0006 145C61.5976 145 62.1879 144.874 62.7328 144.629C63.3283 144.362 77.4874 137.964 91.8666 127.534C100.426 121.325 107.277 114.967 112.229 108.634C118.713 100.343 122 92.0129 122 83.8751V21.311C122 20.3975 121.706 19.5082 121.162 18.7752C120.618 18.0423 119.852 17.5047 118.979 17.2423Z" fill="#3656E9"/><path d="M60.9939 84.9836C60.6127 84.9835 60.2472 84.8346 59.9777 84.5696L58.7876 83.3999C58.3881 83.0049 57.9128 82.6918 57.3892 82.4786C56.8657 82.2655 56.3043 82.1565 55.7376 82.1582H53.8073C52.6637 82.1582 51.5669 81.7117 50.7583 80.9169C49.9497 80.1221 49.4954 79.0441 49.4954 77.9201V58.1423C49.4954 57.7677 49.6468 57.4083 49.9163 57.1434C50.1859 56.8785 50.5515 56.7296 50.9327 56.7296H55.2446V59.555H52.37V77.9201C52.37 78.2947 52.5214 78.6541 52.791 78.919C53.0605 79.1839 53.4261 79.3328 53.8073 79.3328H55.7376C56.6819 79.3304 57.6173 79.5121 58.4897 79.8673C59.362 80.2226 60.1541 80.7443 60.8199 81.4024L60.9939 81.5733L61.1678 81.4024C61.8337 80.7443 62.6257 80.2226 63.4981 79.8673C64.3705 79.5121 65.3058 79.3304 66.2501 79.3328H68.1804C68.5616 79.3328 68.9272 79.1839 69.1968 78.919C69.4663 78.6541 69.6177 78.2947 69.6177 77.9201V59.555H58.1192V56.7296H71.0551C71.4363 56.7296 71.8018 56.8785 72.0714 57.1434C72.3409 57.4083 72.4924 57.7677 72.4924 58.1423V77.9201C72.4924 79.0441 72.0381 80.1221 71.2294 80.9169C70.4208 81.7117 69.324 82.1582 68.1804 82.1582H66.2501C65.6834 82.1565 65.1221 82.2655 64.5985 82.4786C64.075 82.6918 63.5997 83.0049 63.2001 83.3999L62.01 84.5696C61.7406 84.8346 61.375 84.9835 60.9939 84.9836ZM65.3058 35.5392H56.6819C56.3007 35.5392 55.9351 35.3904 55.6656 35.1254C55.396 34.8605 55.2446 34.5012 55.2446 34.1265V33.1828C54.3566 31.7636 53.8611 30.141 53.8073 28.4757C53.8073 26.7805 54.5073 22.825 60.9939 22.825C67.4805 22.825 68.1804 26.7805 68.1804 28.4757C68.1266 30.141 67.6311 31.7636 66.7431 33.1828V34.1265C66.7431 34.5012 66.5917 34.8605 66.3221 35.1254C66.0526 35.3904 65.687 35.5392 65.3058 35.5392ZM58.1695 32.7138H63.8369C63.8308 32.5078 63.8721 32.3032 63.9577 32.1151C64.0433 31.927 64.171 31.7603 64.3313 31.6275C64.9332 30.6797 65.2694 29.5924 65.3058 28.4757C65.3058 27.703 65.3058 25.6503 60.9939 25.6503C56.6819 25.6503 56.6819 27.703 56.6819 28.4757C56.7184 29.5924 57.0546 30.6797 57.6564 31.6275C57.817 31.7611 57.9461 31.9275 58.0347 32.1151C58.1233 32.3027 58.1693 32.507 58.1695 32.7138Z" fill="white"/><path d="M59.5569 20H62.4315V24.2381H59.5569V20ZM68.1808 59.5555V56.7301C68.7214 56.7296 69.2509 56.5793 69.7085 56.2964C70.1661 56.0136 70.5333 55.6096 70.7679 55.1309C69.7279 55.007 68.7622 54.5379 68.0303 53.8011C67.2985 53.0644 66.8445 52.1042 66.7434 51.0793C66.7434 46.4767 71.9264 42.2344 75.1402 40.0462C74.4388 39.8681 73.7173 39.7779 72.9929 39.7777H68.7758L69.1969 40.1917C69.3767 40.3685 69.5055 40.589 69.5702 40.8308C69.6349 41.0725 69.6332 41.3268 69.5653 41.5677C69.4973 41.8085 69.3655 42.0274 69.1834 42.2018C69.0013 42.3763 68.7753 42.5002 68.5286 42.5608C66.892 42.955 65.4264 43.853 64.3456 45.1237C63.2648 46.3944 62.6254 47.9712 62.5206 49.6242C62.4631 50.4902 62.4315 51.4438 62.4315 52.492V58.1428H59.5569V52.492C59.5569 51.4381 59.5885 50.4139 59.6503 49.4505C59.7658 47.5987 60.3749 45.8095 61.4163 44.2622C62.4577 42.7149 63.8949 41.4641 65.5835 40.6352L64.29 39.3638C64.089 39.1663 63.9522 38.9146 63.8967 38.6406C63.8413 38.3666 63.8698 38.0826 63.9785 37.8245C64.0873 37.5664 64.2715 37.3458 64.5078 37.1905C64.7441 37.0353 65.0219 36.9524 65.3061 36.9523H72.9929C74.7775 36.9542 76.5373 37.3628 78.1342 38.1461L78.883 38.5134C79.1159 38.6275 79.3129 38.8017 79.4529 39.0173C79.593 39.2329 79.6708 39.4818 79.6782 39.7375C79.6856 39.9932 79.6222 40.246 79.4948 40.4691C79.3674 40.6921 79.1808 40.877 78.9549 41.004C76.3576 42.4619 69.6181 47.1238 69.6181 51.0793C69.6181 51.6557 70.7377 52.492 72.4927 52.492C72.8739 52.492 73.2395 52.6408 73.509 52.9058C73.7786 53.1707 73.93 53.53 73.93 53.9047C73.93 55.4034 73.3243 56.8407 72.2461 57.9004C71.1679 58.9601 69.7056 59.5555 68.1808 59.5555Z" fill="white"/><path d="M81.1163 45.4287H72.4924V42.6033H79.5195C79.1759 41.3319 78.3912 41.2019 78.2014 41.1906L78.2417 38.3652C79.7336 38.3652 82.5536 39.5462 82.5536 44.016C82.5536 44.3907 82.4022 44.75 82.1326 45.0149C81.8631 45.2799 81.4975 45.4287 81.1163 45.4287Z" fill="white"/><path d="M78.1309 38.9087L75.4777 37.821L76.7885 34.73C76.8043 34.4715 76.4119 34.1268 75.768 34.1268H72.0913C71.4474 34.1268 71.055 34.4715 71.055 34.6594L72.3817 37.821L69.7284 38.9087L68.4176 35.822C68.2609 35.4537 68.1803 35.0585 68.1804 34.6594C68.2512 33.7063 68.7016 32.8191 69.4338 32.1905C70.166 31.5618 71.121 31.2423 72.0913 31.3014H75.768C76.7384 31.2423 77.6933 31.5618 78.4255 32.1905C79.1577 32.8191 79.6081 33.7063 79.6789 34.6594C79.6783 35.055 79.5987 35.4466 79.4446 35.8121L78.1309 38.9087Z" fill="white"/><path d="M72.4927 28.4763H75.3673V32.7144H72.4927V28.4763ZM76.8047 69.4445C76.5823 69.4469 76.3623 69.3985 76.1622 69.3032L73.5908 68.0318H71.0554V65.2064H73.93C74.1524 65.204 74.3723 65.2524 74.5725 65.3477L76.5215 66.3055L78.6631 64.2006C78.9338 63.9382 79.2991 63.7919 79.6793 63.7937H81.9962L81.1913 61.4147C81.1194 61.2025 81.0998 60.9764 81.1341 60.7553C81.1684 60.5341 81.2557 60.3241 81.3888 60.1426C81.5218 59.9611 81.6968 59.8132 81.8994 59.7111C82.102 59.6091 82.3263 59.5558 82.5539 59.5556C83.1964 59.5556 83.6779 58.1429 83.8834 56.7302H81.1166C80.7925 56.7305 80.4779 56.6232 80.2237 56.4256C79.9695 56.2281 79.7907 55.9519 79.7163 55.6419C79.6419 55.3319 79.6763 55.0063 79.8139 54.7179C79.9514 54.4295 80.1841 54.1952 80.4741 54.0532C81.2589 53.6675 81.8123 52.2562 82.15 50.6486L77.8266 54.8937C77.4646 55.2217 77.226 55.6603 77.1496 56.1383C77.0731 56.6163 77.1633 57.1057 77.4054 57.527C77.4875 57.6858 77.6056 57.824 77.7506 57.9308C77.8957 58.0376 78.0638 58.1102 78.242 58.1429C78.6232 58.1429 78.9888 58.2918 79.2583 58.5567C79.5278 58.8216 79.6793 59.181 79.6793 59.5556C79.6843 60.3269 79.493 61.0871 79.1227 61.7671C78.7524 62.4472 78.215 63.0253 77.5592 63.449C75.7971 64.4294 73.4284 64.0141 70.3152 62.1776L71.7956 59.7562C74.7536 61.5009 75.8718 61.1407 76.1435 60.9895C76.3244 60.8796 76.468 60.7193 76.556 60.529C75.9324 60.1806 75.4034 59.6898 75.0138 59.0979C74.3983 58.1342 74.1398 56.9913 74.282 55.862C74.4242 54.7327 74.9583 53.6862 75.7942 52.899L82.9808 45.8355C83.1825 45.6395 83.4388 45.5066 83.7172 45.4534C83.9957 45.4003 84.2839 45.4293 84.5456 45.5368C84.8073 45.6444 85.0308 45.8256 85.1879 46.0578C85.3451 46.2899 85.4288 46.5626 85.4285 46.8414C85.4518 49.2558 85.0089 51.6526 84.1234 53.9048H85.4285C85.8097 53.9048 86.1753 54.0537 86.4449 54.3186C86.7144 54.5835 86.8658 54.9429 86.8658 55.3175C86.8658 57.8604 86.1802 60.7239 84.375 61.8696L85.3538 64.76C85.4257 64.9722 85.4453 65.1983 85.411 65.4194C85.3767 65.6406 85.2894 65.8506 85.1564 66.0321C85.0233 66.2136 84.8483 66.3615 84.6457 66.4636C84.4432 66.5656 84.2188 66.6189 83.9912 66.6191H80.2743L77.8208 69.0306C77.5513 69.2955 77.1858 69.4444 76.8047 69.4445Z" fill="white"/><path d="M82.5539 79.3331C82.3315 79.3355 82.1116 79.2872 81.9114 79.1918C80.9686 78.7271 76.786 76.5402 75.6519 73.6823H71.0554V70.8569H76.8047C77.1859 70.8569 77.5515 71.0058 77.821 71.2707C78.0906 71.5356 78.242 71.895 78.242 72.2696C78.242 73.2924 80.1105 74.852 81.9258 75.9539C82.369 73.812 82.5795 71.6299 82.5539 69.4442C82.5503 69.1231 82.658 68.8103 82.8594 68.5575C83.0609 68.3046 83.3439 68.1268 83.662 68.0532C83.98 67.9797 84.3141 68.0148 84.6091 68.1529C84.9041 68.291 85.1424 68.5237 85.2848 68.8128C85.8482 69.9217 88.2011 70.9827 90.4807 71.682C89.5958 70.2015 88.5252 68.836 87.2942 67.6176C87.0723 67.3992 86.9293 67.1153 86.887 66.8094C86.8448 66.5035 86.9057 66.1924 87.0604 65.9237C87.2151 65.655 87.455 65.4436 87.7436 65.3216C88.0321 65.1997 88.3534 65.174 88.6582 65.2485C90.7165 65.7521 92.8053 66.1268 94.9119 66.3702C93.547 65.3273 92.0839 64.4148 90.5425 63.6451C90.253 63.5033 90.0207 63.2697 89.883 62.982C89.7453 62.6944 89.7104 62.3695 89.7839 62.0599C89.8573 61.7503 90.0349 61.4741 90.2879 61.276C90.5408 61.0778 90.8544 60.9694 91.1778 60.9681C94.4955 61.0072 97.7416 60.0187 100.456 58.1427H92.6151C92.2551 58.1417 91.9085 58.008 91.644 57.7679C91.3794 57.5278 91.2162 57.1989 91.1866 56.8463C91.157 56.4936 91.2631 56.1428 91.484 55.8633C91.7048 55.5839 92.0244 55.3961 92.3794 55.3371C96.1739 54.5716 99.5684 52.5064 101.958 49.5097L93.0736 52.4184C92.7359 52.5273 92.369 52.5093 92.044 52.3678C91.719 52.2264 91.4588 51.9716 91.3137 51.6527C91.1686 51.3338 91.1489 50.9733 91.2584 50.6409C91.3679 50.3085 91.5988 50.0278 91.9065 49.853C95.5273 48.0436 98.4744 45.1568 100.328 41.6043L94.8544 45.1911C94.5724 45.3791 94.2316 45.4625 93.8928 45.4264C93.554 45.3903 93.2392 45.2371 93.0047 44.994C92.7702 44.751 92.6312 44.434 92.6125 44.0995C92.5938 43.7651 92.6966 43.435 92.9026 43.1681C93.709 42.1474 94.302 40.9799 94.6473 39.733C94.9927 38.486 95.0836 37.1842 94.9148 35.9026L88.2888 44.8464L85.9647 43.1851L94.327 31.8835C94.4735 31.6885 94.6676 31.533 94.8914 31.4313C95.1153 31.3296 95.3616 31.2849 95.6076 31.3015C95.8539 31.3213 96.0908 31.4032 96.2955 31.5393C96.5002 31.6754 96.6658 31.8611 96.7761 32.0784C97.9023 34.5758 98.1717 37.3653 97.5437 40.0263L101.879 37.1853C102.095 37.0432 102.347 36.9616 102.608 36.9494C102.868 36.9372 103.127 36.9947 103.356 37.1159C103.586 37.237 103.778 37.4173 103.911 37.6373C104.044 37.8573 104.114 38.1088 104.114 38.3649C103.813 41.6942 102.339 44.8158 99.9454 47.1901L105.102 45.4948C105.373 45.4049 105.665 45.3962 105.94 45.4699C106.216 45.5436 106.463 45.6962 106.65 45.9084C106.836 46.1206 106.955 46.3827 106.99 46.6613C107.024 46.9399 106.974 47.2223 106.845 47.4726C105.132 50.5856 102.714 53.2697 99.7772 55.3173H104.114C104.381 55.3173 104.642 55.3903 104.869 55.5283C105.096 55.6662 105.28 55.8636 105.399 56.0982C105.519 56.3329 105.569 56.5956 105.545 56.8569C105.521 57.1181 105.424 57.3677 105.263 57.5776C102.764 60.4948 99.3502 62.514 95.5573 63.3188C97.2234 64.3536 98.6261 65.7497 99.6579 67.4001C99.7678 67.616 99.8194 67.8561 99.808 68.0972C99.7966 68.3384 99.7225 68.5727 99.5927 68.7777C99.463 68.9827 99.282 69.1516 99.0669 69.2683C98.8519 69.385 98.61 69.4456 98.3644 69.4442C96.2434 69.3957 94.1293 69.1888 92.0402 68.8255C93.165 70.2247 93.8628 71.9089 94.0524 73.6823C94.0525 73.8918 94.0051 74.0987 93.9138 74.288C93.8224 74.4773 93.6894 74.6443 93.5243 74.7768C93.3592 74.9093 93.1661 75.0041 92.9592 75.0542C92.7522 75.1044 92.5365 75.1087 92.3276 75.0668C89.8723 74.5993 87.5056 73.76 85.3121 72.579C85.1339 75.0131 84.6783 77.8244 83.5644 78.9192C83.2963 79.1828 82.9331 79.3315 82.5539 79.3331ZM89.7405 94.8728C88.3191 94.8728 86.9297 94.4585 85.7478 93.6824C84.566 92.9062 83.6449 91.803 83.101 90.5124C82.557 89.2217 82.4147 87.8014 82.692 86.4313C82.9693 85.0611 83.6538 83.8025 84.6588 82.8147C85.6639 81.8268 86.9444 81.1541 88.3385 80.8815C89.7325 80.609 91.1775 80.7489 92.4907 81.2835C93.8038 81.8181 94.9262 82.7234 95.7159 83.885C96.5056 85.0466 96.9271 86.4123 96.9271 87.8093C96.9248 89.6819 96.1669 91.4773 94.8196 92.8014C93.4724 94.1256 91.6458 94.8705 89.7405 94.8728ZM89.7405 83.5712C88.8877 83.5712 88.054 83.8198 87.3449 84.2854C86.6358 84.7511 86.0831 85.413 85.7568 86.1874C85.4304 86.9619 85.345 87.814 85.5114 88.6361C85.6778 89.4582 86.0885 90.2134 86.6915 90.8061C87.2945 91.3988 88.0628 91.8024 88.8993 91.9659C89.7357 92.1295 90.6027 92.0455 91.3906 91.7248C92.1785 91.404 92.8519 90.8608 93.3257 90.1638C93.7995 89.4669 94.0524 88.6475 94.0524 87.8093C94.0524 86.6853 93.5981 85.6073 92.7895 84.8125C91.9808 84.0177 90.8841 83.5712 89.7405 83.5712Z" fill="white"/><path d="M88.303 76.5078H91.1776V82.1586H88.303V76.5078Z" fill="white"/><path d="M86.8659 77.9206H92.6152V80.746H86.8659V77.9206ZM83.9913 86.3967H95.4898V89.2221H83.9913V86.3967ZM86.8659 97.6983C86.7262 97.6981 86.5873 97.6781 86.4534 97.639L72.0803 93.4009C71.7841 93.3137 71.5244 93.1349 71.3398 92.8911C71.1552 92.6473 71.0555 92.3514 71.0555 92.0475V87.8094H73.9301V90.9965L86.4563 94.6893L88.7244 92.4614L90.7567 94.459L87.8821 97.2844C87.6126 97.5493 87.2471 97.6982 86.8659 97.6983ZM53.8077 59.5555C52.2829 59.5555 50.8206 58.9602 49.7424 57.9004C48.6642 56.8407 48.0585 55.4034 48.0585 53.9047C48.0585 53.5301 48.2099 53.1707 48.4795 52.9058C48.749 52.6409 49.1146 52.492 49.4958 52.492C51.2508 52.492 52.3704 51.6557 52.3704 51.0793C52.3704 47.1153 45.6309 42.4619 43.0279 41.004C42.802 40.877 42.6153 40.6922 42.4879 40.4691C42.3605 40.2461 42.2972 39.9932 42.3045 39.7375C42.3119 39.4819 42.3898 39.2329 42.5298 39.0174C42.6699 38.8018 42.8669 38.6276 43.0997 38.5134L43.85 38.1461C45.448 37.3619 47.2095 36.9533 48.9956 36.9524H56.6824C56.9666 36.9525 57.2444 37.0353 57.4807 37.1906C57.717 37.3458 57.9012 37.5664 58.01 37.8245C58.1187 38.0826 58.1472 38.3666 58.0918 38.6406C58.0363 38.9146 57.8995 39.1663 57.6985 39.3639L56.405 40.6353C58.0936 41.4645 59.5308 42.7156 60.5722 44.2631C61.6136 45.8106 62.2226 47.6 62.3382 49.4519C62.4 50.414 62.4316 51.4382 62.4316 52.492V58.1428H59.557V52.492C59.557 51.4438 59.5254 50.4903 59.4679 49.6299C59.3631 47.9769 58.7237 46.4001 57.6429 45.1294C56.5621 43.8587 55.0965 42.9607 53.4599 42.5664C53.2132 42.5059 52.9872 42.382 52.8051 42.2075C52.623 42.0331 52.4912 41.8142 52.4232 41.5733C52.3553 41.3325 52.3536 41.0782 52.4183 40.8365C52.483 40.5947 52.6118 40.3742 52.7915 40.1974L53.2127 39.7778H48.9956C48.2712 39.778 47.5497 39.8682 46.8483 40.0462C50.0621 42.2345 55.245 46.4768 55.245 51.0793C55.144 52.1042 54.69 53.0644 53.9581 53.8012C53.2263 54.5379 52.2605 55.0071 51.2206 55.131C51.4552 55.6096 51.8224 56.0136 52.28 56.2965C52.7376 56.5793 53.2671 56.7296 53.8077 56.7301V59.5555Z" fill="white"/><path d="M49.4958 45.4287H40.8719C40.4907 45.4287 40.1251 45.2799 39.8555 45.0149C39.586 44.75 39.4346 44.3907 39.4346 44.016C39.4346 39.5462 42.2546 38.3652 43.7465 38.3652L43.7868 41.1906C43.597 41.2033 42.8123 41.3319 42.4687 42.6033H49.4958V45.4287Z" fill="white"/><path d="M52.2598 38.9087L49.6066 37.821L50.9174 34.73C50.9332 34.4715 50.5408 34.1268 49.8969 34.1268H46.2203C45.5763 34.1268 45.184 34.4715 45.184 34.6594L46.5106 37.821L43.8573 38.9087L42.5465 35.822C42.3898 35.4537 42.3092 35.0585 42.3093 34.6594C42.3801 33.7063 42.8305 32.8191 43.5627 32.1905C44.2949 31.5618 45.2499 31.2423 46.2203 31.3014H49.8969C50.8673 31.2423 51.8222 31.5618 52.5544 32.1905C53.2866 32.8191 53.737 33.7063 53.8078 34.6594C53.8072 35.055 53.7276 35.4466 53.5735 35.8121L52.2598 38.9087Z" fill="white"/><path d="M46.6208 28.4763H49.4954V32.7144H46.6208V28.4763ZM45.1835 69.4445C44.8023 69.4444 44.4368 69.2955 44.1673 69.0306L41.7138 66.6191H37.9969C37.7693 66.6189 37.545 66.5656 37.3424 66.4636C37.1399 66.3615 36.9649 66.2136 36.8318 66.0321C36.6988 65.8506 36.6115 65.6406 36.5772 65.4194C36.5428 65.1983 36.5624 64.9722 36.6344 64.76L37.6132 61.8696C35.8079 60.7239 35.1223 57.8604 35.1223 55.3175C35.1223 54.9429 35.2737 54.5835 35.5433 54.3186C35.8128 54.0537 36.1784 53.9048 36.5596 53.9048H37.8647C36.9792 51.6526 36.5364 49.2558 36.5596 46.8414C36.5597 46.562 36.644 46.2889 36.802 46.0567C36.9599 45.8244 37.1843 45.6434 37.4469 45.5365C37.7095 45.4296 37.9985 45.4016 38.2773 45.4561C38.556 45.5106 38.8121 45.6451 39.0131 45.8426L46.1997 52.9061C47.0359 53.6931 47.5702 54.7395 47.7127 55.8688C47.8551 56.9981 47.5969 58.1411 46.9816 59.105C46.5908 59.6959 46.062 60.1865 45.4393 60.536C45.5291 60.7281 45.6746 60.8898 45.8576 61.0008C46.1321 61.1506 47.2532 61.5009 50.1983 59.7633L51.6787 62.1846C48.5655 64.0211 46.1982 64.4351 44.4347 63.4561C43.7769 63.0324 43.2376 62.4534 42.8662 61.772C42.4949 61.0906 42.3033 60.3286 42.3089 59.5556C42.3089 59.181 42.4603 58.8216 42.7299 58.5567C42.9994 58.2918 43.365 58.1429 43.7462 58.1429C43.9245 58.1106 44.0929 58.0385 44.2384 57.9322C44.3839 57.8259 44.5027 57.6883 44.5856 57.5298C44.8265 57.1082 44.9157 56.6191 44.8388 56.1415C44.7618 55.6639 44.5232 55.2258 44.1616 54.898L39.8381 50.6556C40.1759 52.2633 40.7293 53.6746 41.514 54.0602C41.8002 54.2043 42.0289 54.4385 42.1637 54.7253C42.2985 55.0122 42.3315 55.3352 42.2575 55.6427C42.1835 55.9502 42.0068 56.2245 41.7555 56.4216C41.5043 56.6188 41.193 56.7274 40.8716 56.7302H38.1047C38.3074 58.1585 38.7846 59.5556 39.4343 59.5556C39.6619 59.5558 39.8862 59.6091 40.0888 59.7111C40.2913 59.8132 40.4663 59.9611 40.5994 60.1426C40.7324 60.3241 40.8197 60.5341 40.854 60.7553C40.8884 60.9764 40.8688 61.2025 40.7968 61.4147L39.9919 63.7937H42.3089C42.69 63.7938 43.0556 63.9427 43.3251 64.2076L45.4667 66.3125L47.4156 65.3547C47.6152 65.257 47.8352 65.2062 48.0581 65.2064H50.9328V68.0318H48.3973L45.826 69.3032C45.6258 69.3985 45.4059 69.4469 45.1835 69.4445Z" fill="white"/><path d="M39.4345 79.3332C39.0533 79.3331 38.6878 79.1842 38.4183 78.9193C37.3044 77.8244 36.8487 75.0132 36.6705 72.5791C34.4788 73.7595 32.1141 74.5988 29.6607 75.0668C29.4519 75.1087 29.2362 75.1045 29.0292 75.0543C28.8222 75.0041 28.6292 74.9094 28.4641 74.7769C28.299 74.6443 28.166 74.4774 28.0746 74.2881C27.9833 74.0988 27.9359 73.8919 27.936 73.6824C28.1256 71.9089 28.8234 70.2247 29.9482 68.8255C27.8591 69.1889 25.745 69.3957 23.624 69.4443C23.379 69.4444 23.138 69.383 22.924 69.2658C22.7099 69.1486 22.5299 68.9795 22.401 68.7747C22.2721 68.5699 22.1986 68.3361 22.1875 68.0955C22.1764 67.8549 22.2281 67.6156 22.3376 67.4001C23.3674 65.7505 24.7676 64.3545 26.4311 63.3189C22.6382 62.5141 19.2244 60.4948 16.7249 57.5777C16.5648 57.3678 16.4672 57.1182 16.4433 56.8569C16.4193 56.5956 16.4698 56.3329 16.5892 56.0983C16.7086 55.8636 16.8921 55.6663 17.1191 55.5283C17.3462 55.3904 17.6079 55.3173 17.8748 55.3173H22.2112C19.2771 53.2689 16.8615 50.5849 15.1511 47.4727C15.0243 47.2227 14.9757 46.9415 15.0114 46.6645C15.0472 46.3874 15.1657 46.127 15.3519 45.9161C15.5382 45.7052 15.7839 45.5533 16.0579 45.4796C16.332 45.4059 16.6221 45.4137 16.8917 45.5019L22.0487 47.1972C19.6516 44.8219 18.1751 41.6975 17.8748 38.365C17.8747 38.1092 17.9453 37.8583 18.0791 37.6389C18.2128 37.4195 18.4046 37.2398 18.634 37.1192C18.8635 36.9985 19.1219 36.9414 19.3818 36.9538C19.6417 36.9662 19.8933 37.0477 20.1098 37.1896L24.4447 40.0306C23.8167 37.3696 24.086 34.5801 25.2123 32.0827C25.3229 31.8667 25.4882 31.6823 25.6921 31.547C25.8961 31.4118 26.132 31.3302 26.3772 31.3103C26.6224 31.2903 26.8687 31.3325 27.0926 31.4329C27.3164 31.5332 27.5103 31.6884 27.6557 31.8836L36.0194 43.1851L33.701 44.8493L27.0736 35.8928C26.9021 37.176 26.9916 38.48 27.3371 39.7289C27.6825 40.9778 28.2769 42.1469 29.0858 43.1682C29.2895 43.4348 29.3906 43.7637 29.3713 44.0966C29.352 44.4295 29.2135 44.745 28.9803 44.9872C28.7471 45.2294 28.4343 45.3827 28.0972 45.42C27.7601 45.4574 27.4204 45.3763 27.1383 45.1911L21.6549 41.5987C23.5107 45.1562 26.4639 48.0455 30.0919 49.853C30.3997 50.0279 30.6306 50.3086 30.7401 50.641C30.8496 50.9734 30.8299 51.3338 30.6848 51.6528C30.5397 51.9717 30.2795 52.2265 29.9545 52.3679C29.6294 52.5093 29.2626 52.5274 28.9248 52.4185L20.0307 49.5098C22.4189 52.5056 25.8118 54.5707 29.6047 55.3371C29.9594 55.396 30.2786 55.5835 30.4995 55.8625C30.7204 56.1416 30.8268 56.4918 30.7978 56.8442C30.7687 57.1966 30.6063 57.5254 30.3425 57.7659C30.0788 58.0063 29.733 58.1407 29.3733 58.1427H21.5327C24.2467 60.0189 27.4928 61.0074 30.8106 60.9681C31.1346 60.9678 31.4493 61.0752 31.7035 61.2727C31.9577 61.4703 32.1365 61.7465 32.2109 62.0565C32.2853 62.3665 32.2509 62.6921 32.1133 62.9805C31.9758 63.2689 31.7431 63.5031 31.4531 63.6452C29.9128 64.4146 28.4506 65.3266 27.0865 66.3689C29.1923 66.1269 31.2802 65.7527 33.3374 65.2486C33.6422 65.1741 33.9634 65.1998 34.252 65.3217C34.5405 65.4436 34.7805 65.6551 34.9352 65.9238C35.0899 66.1925 35.1508 66.5035 35.1086 66.8094C35.0663 67.1153 34.9233 67.3992 34.7014 67.6177C33.4713 68.8354 32.4012 70.1999 31.5163 71.6792C33.7959 70.9728 36.1502 69.9176 36.7108 68.8128C36.8553 68.5278 37.0936 68.2991 37.387 68.1639C37.6805 68.0287 38.0117 67.9949 38.3271 68.068C38.6425 68.1411 38.9235 68.3169 39.1246 68.5667C39.3256 68.8165 39.4348 69.1258 39.4345 69.4443C39.4085 71.63 39.619 73.8121 40.0626 75.954C41.8779 74.8507 43.7464 73.2925 43.7464 72.2697C43.7464 71.895 43.8978 71.5357 44.1674 71.2708C44.4369 71.0058 44.8025 70.857 45.1837 70.857H50.933V73.6824H46.3336C45.1995 76.5332 41.0155 78.7201 40.0741 79.1919C39.8748 79.2868 39.6559 79.3351 39.4345 79.3332ZM60.9942 92.0474C60.613 92.0474 60.2475 91.8985 59.978 91.6335C57.3867 88.9863 55.149 86.0255 53.3189 82.8225C53.6259 84.3339 54.2104 85.7777 55.0437 87.0832C55.2085 87.3532 55.2767 87.6696 55.2377 87.9821C55.1986 88.2946 55.0545 88.5853 54.8281 88.8081C54.3559 89.3743 53.7502 89.8185 53.0636 90.1021C52.377 90.3857 51.6303 90.5002 50.8884 90.4355C50.225 90.3252 49.6086 90.0273 49.1148 89.578L47.2678 90.4864C46.998 90.6188 46.6926 90.6644 46.3949 90.6167C46.0972 90.569 45.8223 90.4305 45.6092 90.2208L44.5686 89.198C42.9089 89.0582 41.3205 88.4717 39.9778 87.5028C39.7635 87.3355 39.6022 87.1116 39.5129 86.8574C39.4236 86.6031 39.41 86.3291 39.4737 86.0676C39.5374 85.806 39.6757 85.5677 39.8725 85.3808C40.0692 85.1938 40.3162 85.066 40.5843 85.0122C41.3227 84.063 41.9048 83.0057 42.3091 81.8788C42.5304 77.6478 47.7896 76.5106 50.933 76.5106V79.336C50.8755 79.336 45.1837 79.4292 45.1837 82.1614C45.1839 82.3311 45.1532 82.4995 45.0932 82.6587C44.6602 83.8676 44.0812 85.0211 43.3684 86.0943C43.9527 86.2918 44.5659 86.3939 45.1837 86.3966C45.5649 86.3967 45.9304 86.5456 46.1999 86.8106L46.9042 87.5028L48.8532 86.545C49.0221 86.462 49.206 86.4125 49.3944 86.3994C49.5828 86.3863 49.7719 86.4098 49.9511 86.4686C50.1302 86.5273 50.2958 86.6202 50.4384 86.7419C50.581 86.8636 50.6977 87.0118 50.7821 87.1779C50.8223 87.2499 51.0695 87.6017 51.357 87.6483C51.5779 87.6569 51.7953 87.5917 51.9736 87.4632C51.048 85.7016 49.8061 82.6954 50.8884 80.8165C51.1867 80.3271 51.6178 79.929 52.1335 79.667C52.6491 79.405 53.2288 79.2894 53.8076 79.3332C54.0747 79.333 54.3365 79.4061 54.5638 79.5441C54.791 79.6821 54.9746 79.8796 55.094 80.1144C56.7175 83.1537 58.6977 85.9957 60.9942 88.5821C63.2881 85.9953 65.2659 83.1534 66.8871 80.1144C67.0071 79.8785 67.1918 79.6803 67.4204 79.5422C67.649 79.4041 67.9124 79.3317 68.1807 79.3332C68.7604 79.2883 69.3414 79.4034 69.8581 79.6654C70.3749 79.9275 70.8069 80.3261 71.1057 80.8165C72.188 82.694 70.9476 85.6988 70.0205 87.4562C70.2012 87.5854 70.4211 87.6506 70.6443 87.6412C70.9217 87.5974 71.1818 87.2174 71.2063 87.1722C71.2906 87.0061 71.4074 86.858 71.55 86.7363C71.6926 86.6146 71.8581 86.5217 72.0373 86.4629C72.2164 86.4041 72.4056 86.3806 72.594 86.3937C72.7823 86.4069 72.9662 86.4563 73.1351 86.5393L75.0841 87.4971L75.7884 86.8049C76.0589 86.542 76.4243 86.3952 76.8046 86.3966C77.4211 86.3924 78.0328 86.2893 78.6156 86.0915C77.9029 85.0183 77.3238 83.8648 76.8909 82.6558C76.8323 82.4964 76.8031 82.328 76.8046 82.1586C76.8046 79.4547 71.1129 79.3332 71.0554 79.3332V76.5078C74.1901 76.5078 79.4493 77.6478 79.6721 81.876C80.0775 83.0028 80.6595 84.0604 81.3968 85.0108C81.665 85.0638 81.9122 85.1908 82.1094 85.377C82.3066 85.5633 82.4457 85.801 82.5103 86.0622C82.5749 86.3234 82.5623 86.5973 82.474 86.8517C82.3858 87.1061 82.2255 87.3305 82.012 87.4986C80.6693 88.4675 79.0809 89.054 77.4212 89.1938L76.3806 90.2166C76.1674 90.4263 75.8926 90.5648 75.5949 90.6125C75.2972 90.6601 74.9918 90.6145 74.7219 90.4822L72.875 89.5738C72.381 90.0227 71.7647 90.3207 71.1014 90.4313C70.3595 90.4962 69.6127 90.3818 68.926 90.0982C68.2394 89.8145 67.6337 89.3702 67.1617 88.8039C66.9353 88.5811 66.7912 88.2904 66.7521 87.9779C66.713 87.6654 66.7813 87.349 66.9461 87.079C67.7738 85.7803 68.3534 84.3441 68.6565 82.8409C66.828 86.0367 64.5938 88.9913 62.0075 91.6335C61.7387 91.8978 61.3743 92.0466 60.9942 92.0474ZM79.2294 91.9768L80.1377 89.2969L88.7573 92.1223L87.8489 94.7994L79.2294 91.9768Z" fill="white"/><path d="M35.5347 97.6389L34.7097 94.9321L48.058 90.9964V87.8093H50.9327V92.0474C50.9327 92.3513 50.833 92.6472 50.6484 92.891C50.4638 93.1348 50.2041 93.3136 49.9079 93.4008L35.5347 97.6389Z" fill="white"/><path d="M33.2324 92.1209L41.8563 89.2927L42.7647 91.9712L34.1408 94.7994L33.2324 92.1209Z" fill="white"/><path d="M26.6711 84.2426L29.2008 82.9033L39.2634 101.268L36.7338 102.608L26.6711 84.2426Z" fill="white"/><path d="M27.9364 84.9839H23.6244C23.3879 84.9839 23.1549 84.9265 22.9463 84.8169C22.7377 84.7072 22.5599 84.5486 22.4286 84.3552L19.554 80.1171L21.9456 78.549L24.3934 82.1585H27.0481L27.8214 80.637L26.5738 76.9541L29.3047 76.0613L30.742 80.2994C30.8629 80.6544 30.8355 81.0421 30.6658 81.3773L29.2285 84.2026C29.1087 84.4383 28.9242 84.6364 28.6958 84.7745C28.4675 84.9125 28.2044 84.985 27.9364 84.9839ZM60.9946 109C60.758 109 60.5251 108.942 60.3165 108.833C60.1079 108.723 59.93 108.564 59.7987 108.371L56.9241 104.133C56.767 103.901 56.6831 103.628 56.6826 103.349C56.6826 100.468 58.0725 89.5045 58.1314 89.0468L60.9831 89.3971C60.9687 89.5045 59.6823 99.6632 59.5659 102.934L60.9946 105.044L62.4232 102.938C62.3068 99.666 61.0204 89.5087 61.0061 89.4014L63.8577 89.051C63.9166 89.5116 65.3065 100.468 65.3065 103.349C65.306 103.628 65.2221 103.901 65.065 104.133L62.1904 108.371C62.0591 108.564 61.8813 108.723 61.6727 108.833C61.4641 108.942 61.2311 109 60.9946 109Z" fill="white"/><path d="M66.744 107.588C66.5045 107.588 66.2688 107.529 66.0583 107.417C65.8478 107.304 65.6692 107.142 65.5387 106.945C65.4082 106.748 65.3299 106.521 65.311 106.287C65.292 106.052 65.333 105.817 65.4303 105.601C65.9138 104.567 66.3104 103.495 66.616 102.396L65.7278 101.523C65.5671 101.365 65.447 101.171 65.3772 100.959C65.3074 100.746 65.29 100.52 65.3263 100.299C65.3626 100.079 65.4517 99.8697 65.5862 99.6895C65.7207 99.5093 65.8968 99.363 66.1 99.2627V99.2147C64.7928 97.4569 63.2451 95.8848 61.5006 94.5429L63.3548 92.3814C67.0846 95.4752 68.9761 97.7398 68.9761 99.1129C68.9843 99.5814 68.9009 100.047 68.7303 100.485L69.1931 100.94C69.3455 101.089 69.4617 101.271 69.5331 101.47C69.6045 101.67 69.6293 101.883 69.6057 102.094C69.4783 102.899 69.2688 103.689 68.9804 104.453C69.9236 104.268 70.7786 103.783 71.4135 103.073C72.0484 102.363 72.4278 101.467 72.4932 100.524C72.4932 98.6877 65.6574 92.048 62.432 92.048V89.2227C66.7842 89.2227 75.3678 96.7227 75.3678 100.524C75.3678 104.552 71.661 107.588 66.744 107.588ZM55.2455 107.588C50.3284 107.588 46.6216 104.552 46.6216 100.524C46.6216 96.7227 55.2052 89.2227 59.5574 89.2227V92.048C56.3321 92.048 49.4962 98.6877 49.4962 100.524C49.5617 101.466 49.9406 102.361 50.5746 103.071C51.2086 103.781 52.0625 104.266 53.0047 104.452C52.7163 103.688 52.5069 102.897 52.3795 102.092C52.3558 101.882 52.3806 101.669 52.452 101.469C52.5234 101.269 52.6396 101.088 52.792 100.938L53.2548 100.483C53.0842 100.046 53.0008 99.58 53.009 99.1115C53.009 97.7384 54.9005 95.4738 58.6303 92.38L60.4845 94.5415C58.74 95.8834 57.1923 97.4555 55.8851 99.2132V99.2613C56.0883 99.3616 56.2644 99.5079 56.3989 99.6881C56.5334 99.8683 56.6225 100.077 56.6588 100.298C56.6951 100.519 56.6777 100.745 56.6079 100.957C56.5381 101.17 56.418 101.363 56.2573 101.522L55.3691 102.395C55.6745 103.493 56.0711 104.565 56.5548 105.6C56.6522 105.815 56.6935 106.05 56.6749 106.285C56.6564 106.519 56.5785 106.745 56.4485 106.943C56.3184 107.14 56.1403 107.303 55.9302 107.415C55.7201 107.528 55.4847 107.587 55.2455 107.588Z" fill="white"/></svg>