<svg width="76" height="76" viewBox="0 0 76 76" fill="none" xmlns="http://www.w3.org/2000/svg"><circle cx="38" cy="38" r="37.5" fill="url(#paint0_radial_254_925)" stroke="white"/><path d="M36.0576 61C35.424 60.9977 34.7984 60.8591 34.2242 60.5937C33.2862 60.1797 32.5329 59.4408 32.1056 58.5155C31.6783 57.5902 31.6064 56.5423 31.9033 55.5682L34.9223 45.6667H27.809C26.9028 45.6678 26.0088 45.4585 25.1989 45.0555C24.389 44.6525 23.6855 44.0672 23.145 43.3463C22.6045 42.6254 22.2418 41.789 22.0862 40.9042C21.9306 40.0194 21.9862 39.1108 22.2487 38.2511L28.0972 19.0845C28.4537 17.899 29.1885 16.8601 30.1915 16.1236C31.1944 15.3872 32.4112 14.9929 33.6594 15.0001H40.8017C41.6135 15.0008 42.4131 15.1962 43.1321 15.5697C43.8511 15.9433 44.4682 16.4838 44.9306 17.145C45.393 17.8063 45.6869 18.5687 45.7873 19.3671C45.8878 20.1654 45.7916 20.976 45.5072 21.7295L42.2522 30.3334H47.1975C48.2517 30.3333 49.2859 30.6178 50.1892 31.1564C51.0924 31.695 51.8305 32.4673 52.3243 33.3903C52.818 34.3133 53.0486 35.3522 52.9915 36.3953C52.9343 37.4385 52.5914 38.4465 51.9997 39.311L39.622 59.0527C39.2393 59.6465 38.7126 60.1359 38.09 60.4761C37.4673 60.8163 36.7686 60.9964 36.0576 61Z" fill="#3656E9"/><defs><radialGradient id="paint0_radial_254_925" cx="0" cy="0" r="1" gradientUnits="userSpaceOnUse" gradientTransform="translate(32.7586 23.5862) rotate(61.0203) scale(48.6816 74.7344)"><stop stop-color="white"/><stop offset="1" stop-color="#AFBEFF"/></radialGradient></defs></svg>