<svg width="58" height="58" viewBox="0 0 58 58" fill="none" xmlns="http://www.w3.org/2000/svg"><circle cx="29" cy="29" r="28.5" fill="url(#paint0_radial_151_269)" stroke="white"/><path d="M27.8833 47C27.3928 46.9982 26.9084 46.8897 26.4639 46.682C25.7377 46.358 25.1545 45.7797 24.8237 45.0556C24.4929 44.3315 24.4372 43.5113 24.6671 42.749L27.0044 35H21.4973C20.7957 35.0009 20.1036 34.8371 19.4766 34.5217C18.8495 34.2063 18.3049 33.7482 17.8865 33.184C17.468 32.6198 17.1872 31.9653 17.0667 31.2728C16.9462 30.5804 16.9893 29.8693 17.1926 29.1965L21.7204 14.1966C21.9964 13.2688 22.5653 12.4557 23.3418 11.8794C24.1182 11.303 25.0603 10.9945 26.0267 11.0001H31.5562C32.1847 11.0006 32.8037 11.1536 33.3604 11.4459C33.917 11.7382 34.3947 12.1612 34.7527 12.6787C35.1107 13.1962 35.3383 13.7929 35.416 14.4177C35.4937 15.0425 35.4193 15.6768 35.1991 16.2666L32.6792 23H36.5078C37.3239 23 38.1246 23.2227 38.8239 23.6442C39.5232 24.0657 40.0946 24.67 40.4769 25.3924C40.8591 26.1148 41.0377 26.9278 40.9934 27.7442C40.9491 28.5605 40.6837 29.3494 40.2255 30.026L30.6428 45.476C30.3466 45.9408 29.9388 46.3238 29.4568 46.59C28.9747 46.8562 28.4337 46.9972 27.8833 47Z" fill="#2C2C2C"/><defs><radialGradient id="paint0_radial_151_269" cx="0" cy="0" r="1" gradientUnits="userSpaceOnUse" gradientTransform="translate(25 18) rotate(61.0203) scale(37.1517 57.0341)"><stop stop-color="white"/><stop offset="1" stop-color="#E3E3E3"/></radialGradient></defs></svg>