<svg width="28" height="33" viewBox="0 0 28 33" fill="none" xmlns="http://www.w3.org/2000/svg"><path d="M14 0.000244141C10.2882 0.00426619 6.72963 1.46095 4.10501 4.05068C1.48038 6.64042 0.00407624 10.1517 0 13.8141C0 21.1106 11.76 31.1271 13.0956 32.246L14 33.0002L14.9044 32.246C16.24 31.1271 28 21.1106 28 13.8141C27.9959 10.1517 26.5196 6.64042 23.895 4.05068C21.2704 1.46095 17.7118 0.00426619 14 0.000244141ZM14 20.7211C12.6155 20.7211 11.2622 20.316 10.111 19.557C8.95986 18.7981 8.06266 17.7194 7.53284 16.4573C7.00303 15.1952 6.86441 13.8065 7.1345 12.4667C7.4046 11.1268 8.07129 9.89614 9.05025 8.93019C10.0292 7.96423 11.2765 7.30641 12.6344 7.0399C13.9922 6.7734 15.3997 6.91018 16.6788 7.43295C17.9579 7.95572 19.0511 8.841 19.8203 9.97684C20.5895 11.1127 21 12.4481 21 13.8141C20.9978 15.6453 20.2596 17.4008 18.9473 18.6957C17.635 19.9905 15.8558 20.7189 14 20.7211Z" fill="white"/><path d="M14 18.0002C16.2091 18.0002 18 16.2094 18 14.0002C18 11.7911 16.2091 10.0002 14 10.0002C11.7909 10.0002 10 11.7911 10 14.0002C10 16.2094 11.7909 18.0002 14 18.0002Z" fill="white"/></svg>