<svg width="32" height="32" viewBox="0 0 32 32" fill="none" xmlns="http://www.w3.org/2000/svg"><path d="M16 32C24.8366 32 32 24.8366 32 16C32 7.16344 24.8366 0 16 0C7.16344 0 0 7.16344 0 16C0 24.8366 7.16344 32 16 32Z" fill="#FF9800"/><path d="M16.0004 7.5791C15.1601 7.5791 14.3387 7.82827 13.6401 8.29509C12.9414 8.76191 12.3969 9.42543 12.0753 10.2017C11.7538 10.978 11.6697 11.8322 11.8336 12.6563C11.9975 13.4805 12.4021 14.2375 12.9963 14.8316C13.5904 15.4258 14.3474 15.8304 15.1716 15.9943C15.9957 16.1582 16.8499 16.0741 17.6262 15.7526C18.4025 15.431 19.066 14.8865 19.5328 14.1878C19.9996 13.4892 20.2488 12.6678 20.2488 11.8275C20.2491 11.2695 20.1394 10.717 19.926 10.2014C19.7126 9.68583 19.3996 9.21738 19.0051 8.82282C18.6105 8.42826 18.1421 8.11534 17.6265 7.90193C17.1109 7.68853 16.5584 7.57883 16.0004 7.5791ZM16.0004 13.9454C15.5815 13.9454 15.172 13.8212 14.8237 13.5885C14.4755 13.3558 14.204 13.025 14.0437 12.638C13.8834 12.251 13.8415 11.8252 13.9232 11.4143C14.0049 11.0035 14.2066 10.6261 14.5028 10.3299C14.799 10.0338 15.1764 9.83204 15.5872 9.75032C15.998 9.6686 16.4239 9.71055 16.8109 9.87084C17.1979 10.0311 17.5286 10.3026 17.7613 10.6509C17.9941 10.9992 18.1183 11.4086 18.1183 11.8275C18.1185 12.1057 18.064 12.3813 17.9576 12.6383C17.8513 12.8954 17.6953 13.129 17.4986 13.3257C17.3019 13.5224 17.0683 13.6784 16.8112 13.7848C16.5541 13.8911 16.2786 13.9457 16.0004 13.9454Z" fill="white"/><path d="M22.2608 16.7264C22.1683 16.5612 22.0441 16.4159 21.8954 16.2988C21.7467 16.1816 21.5764 16.095 21.3941 16.0437C21.2119 15.9925 21.0213 15.9777 20.8334 16.0002C20.6454 16.0227 20.4637 16.082 20.2987 16.1748C17.4061 17.7958 14.5934 17.7958 11.7008 16.1748C11.5349 16.0822 11.3524 16.0231 11.1637 16.001C10.975 15.979 10.7838 15.9942 10.601 16.0461C10.4183 16.0979 10.2475 16.1852 10.0984 16.303C9.94938 16.4208 9.82499 16.5668 9.73238 16.7327C9.63976 16.8986 9.58072 17.0811 9.55864 17.2697C9.53655 17.4584 9.55185 17.6496 9.60365 17.8324C9.70828 18.2016 9.95526 18.514 10.2903 18.7011C11.2392 19.2397 12.253 19.6549 13.3071 19.9369L11.2608 21.9832C10.992 22.2521 10.841 22.6167 10.841 22.9969C10.841 23.3771 10.992 23.7417 11.2608 24.0106C11.5297 24.2794 11.8943 24.4304 12.2745 24.4304C12.6547 24.4304 13.0193 24.2794 13.2882 24.0106L15.9997 21.2885L18.7113 24C18.9802 24.2689 19.3448 24.4199 19.725 24.4199C20.1052 24.4199 20.4698 24.2689 20.7387 24C21.0075 23.7312 21.1585 23.3666 21.1585 22.9864C21.1585 22.6062 21.0075 22.2415 20.7387 21.9727L18.6924 19.9264C19.7465 19.6444 20.7603 19.2291 21.7092 18.6906C21.8747 18.5981 22.0202 18.4738 22.1375 18.3249C22.2548 18.1761 22.3416 18.0055 22.3929 17.823C22.4441 17.6405 22.4588 17.4497 22.4362 17.2615C22.4135 17.0733 22.3539 16.8915 22.2608 16.7264Z" fill="white"/></svg>