<svg width="24" height="26" viewBox="0 0 24 26" fill="none" xmlns="http://www.w3.org/2000/svg"><path d="M21.312 18.0964C19.7563 16.753 18.1776 15.9392 16.641 17.2806L15.7235 18.0913C15.0522 18.6798 13.8041 21.4295 8.97843 15.8246C4.15375 10.2268 7.02484 9.3552 7.69714 8.77178L8.61967 7.96006C10.1482 6.61565 9.57134 4.92322 8.46893 3.18107L7.80367 2.12583C6.69623 0.387743 5.49031 -0.753736 3.95779 0.588643L3.12973 1.31919C2.4524 1.81738 0.559111 3.43676 0.0998575 6.51317C-0.452855 10.2045 1.2907 14.4315 5.28531 19.0694C9.27489 23.7094 13.1811 26.0401 16.8812 25.9995C19.9563 25.966 21.8134 24.2999 22.3943 23.6942L23.2253 22.9626C24.7539 21.6213 23.8042 20.2556 22.2476 18.9091L21.312 18.0964Z" fill="black"/></svg>