<svg width="28" height="30" viewBox="0 0 28 30" fill="none" xmlns="http://www.w3.org/2000/svg"><path d="M24.864 20.8804C23.049 19.3304 21.2072 18.3914 19.4145 19.9392L18.3441 20.8746C17.5609 21.5536 16.1048 24.7264 10.4748 18.2591C4.84604 11.8001 8.19565 10.7945 8.98 10.1213L10.0563 9.18468C11.8395 7.63344 11.1666 5.68064 9.88042 3.67046L9.10428 2.45289C7.81227 0.447396 6.40536 -0.869695 4.61742 0.679204L3.65135 1.52214C2.86114 2.09698 0.652297 3.96549 0.1165 7.5152C-0.528331 11.7744 1.50582 16.6517 6.16619 22.0032C10.8207 27.357 15.3779 30.0462 19.6948 29.9994C23.2824 29.9608 25.449 28.0384 26.1267 27.3395L27.0962 26.4953C28.8795 24.9476 27.7716 23.3718 25.9555 21.8182L24.864 20.8804Z" fill="#3656E9"/></svg>