<svg width="32" height="32" viewBox="0 0 32 32" fill="none" xmlns="http://www.w3.org/2000/svg"><path d="M16 32C24.8366 32 32 24.8366 32 16C32 7.16344 24.8366 0 16 0C7.16344 0 0 7.16344 0 16C0 24.8366 7.16344 32 16 32Z" fill="#03A9F4"/><path d="M23.9192 17.7789C25.1381 12.3052 20.3402 7.32837 14.7087 8.28206C11.6497 6.38521 7.57814 8.52837 7.57814 12.1684C7.57641 12.9831 7.79461 13.7831 8.20971 14.4842C7.07708 19.9726 11.915 24.8757 17.5423 23.8547C21.5276 25.9642 25.9255 21.7684 23.9192 17.7789ZM18.5655 21.0799C17.0918 21.6884 14.6539 21.6926 13.1823 20.9221C11.0771 19.8021 10.7108 17.2821 12.5213 17.2821C13.8855 17.2821 13.4539 18.8736 14.8371 19.5221C15.4687 19.8147 16.8287 19.8442 17.6181 19.3115C18.4076 18.7789 18.315 17.9684 17.8939 17.5747C16.7697 16.5368 13.555 16.9431 12.0834 15.1326C11.7405 14.6711 11.5576 14.1103 11.5626 13.5354C11.5675 12.9604 11.76 12.4028 12.1108 11.9473C13.4792 10.1852 17.4939 10.0778 19.2223 11.4084C20.816 12.6421 20.3866 14.28 19.0981 14.28C17.5508 14.28 18.3655 12.2547 15.8666 12.2547C14.056 12.2547 13.3402 13.5431 14.6181 14.1705C16.3529 15.0294 20.7571 14.7368 20.7571 18.1052C20.7571 19.501 19.8981 20.5431 18.5655 21.0863V21.0799Z" fill="white"/></svg>