<svg xmlns="http://www.w3.org/2000/svg"><symbol id="arrow-right" viewBox="0 0 30 22" fill="none"><path d="M29.6007 10.011L20.0552 0.385979C19.798 0.135512 19.4535 -0.00308085 19.096 5.19784e-05C18.7385 0.0031848 18.3964 0.147792 18.1436 0.402729C17.8908 0.657665 17.7474 1.00253 17.7443 1.36305C17.7411 1.72357 17.8786 2.0709 18.127 2.33023L25.3448 9.6081H1.36365C1.00199 9.6081 0.655138 9.75297 0.399404 10.0108C0.14367 10.2687 0 10.6184 0 10.9831C0 11.3478 0.14367 11.6975 0.399404 11.9554C0.655138 12.2132 1.00199 12.3581 1.36365 12.3581H25.3448L18.127 19.636C17.9968 19.7628 17.8929 19.9145 17.8214 20.0823C17.7499 20.2501 17.7123 20.4305 17.7107 20.6131C17.7092 20.7956 17.7437 20.9767 17.8122 21.1457C17.8808 21.3146 17.9821 21.4682 18.1101 21.5973C18.2381 21.7264 18.3904 21.8285 18.558 21.8976C18.7256 21.9667 18.9051 22.0015 19.0862 21.9999C19.2673 21.9984 19.4462 21.9604 19.6126 21.8884C19.7789 21.8163 19.9294 21.7116 20.0552 21.5802L29.6007 11.9552C29.8564 11.6974 30 11.3477 30 10.9831C30 10.6185 29.8564 10.2688 29.6007 10.011Z" fill="currentColor"/></symbol><symbol id="arrow-up" viewBox="0 0 15 21" fill="none"><path d="M7.05098 3.17405L7.05098 1.97398L6.19889 2.81903L1.24038 7.73662C1.1584 7.81388 1.04849 7.85724 0.933662 7.85625C0.817643 7.85525 0.707478 7.80907 0.626672 7.72893C0.546001 7.64893 0.500991 7.54157 0.500016 7.43021C0.49905 7.32001 0.541268 7.21301 0.618917 7.13197L7.1777 0.627332C7.17772 0.627315 7.17773 0.627296 7.17775 0.627279C7.25948 0.546281 7.37116 0.500044 7.48848 0.500044C7.60579 0.500044 7.71748 0.546281 7.79921 0.627279C7.79922 0.627296 7.79924 0.627315 7.79926 0.627332L14.3617 7.13561L14.3617 7.13566L14.3679 7.14167C14.4095 7.18152 14.4425 7.22897 14.4651 7.28112C14.4877 7.33326 14.4995 7.38918 14.5 7.44566C14.5005 7.50214 14.4896 7.55825 14.468 7.61075C14.4463 7.66325 14.4142 7.71124 14.3733 7.75178C14.3324 7.79233 14.2836 7.82463 14.2295 7.84657C14.1754 7.86852 14.1173 7.87961 14.0587 7.8791C14 7.8786 13.9421 7.86651 13.8884 7.84364C13.8348 7.82078 13.7865 7.78766 13.7464 7.74643L13.7464 7.74638L13.7403 7.74026L8.77806 2.81903L7.92598 1.97398L7.92598 3.17405L7.92598 19.5248C7.92598 19.6375 7.8809 19.7463 7.79931 19.8273C7.71757 19.9083 7.60584 19.9546 7.48848 19.9546C7.37112 19.9546 7.25939 19.9083 7.17765 19.8273C7.09606 19.7463 7.05098 19.6375 7.05098 19.5248L7.05098 3.17405Z" fill="currentColor" stroke="currentColor"/></symbol><symbol id="" viewBox="" fill="none"/><symbol id="" viewBox="" fill="none"/><symbol id="" viewBox="" fill="none"/><symbol id="" viewBox="" fill="none"/><symbol id="" viewBox="" fill="none"/><symbol id="" viewBox="" fill="none"/><symbol id="" viewBox="" fill="none"/></svg>