<svg width="32" height="32" viewBox="0 0 32 32" fill="none" xmlns="http://www.w3.org/2000/svg"><path d="M16 32C24.8366 32 32 24.8366 32 16C32 7.16344 24.8366 0 16 0C7.16344 0 0 7.16344 0 16C0 24.8366 7.16344 32 16 32Z" fill="#03A9F4"/><path d="M26.3647 9.5726C25.5851 9.91308 24.7605 10.1393 23.9163 10.2442C24.8062 9.71646 25.4714 8.88042 25.7857 7.89471C24.9528 8.3891 24.0414 8.73728 23.091 8.92418C22.5086 8.30134 21.7523 7.86816 20.9203 7.681C20.0884 7.49383 19.2194 7.56134 18.4264 7.87473C17.6334 8.18813 16.953 8.73291 16.4738 9.43823C15.9946 10.1435 15.7387 10.9767 15.7394 11.8294C15.7364 12.1549 15.7696 12.4797 15.8384 12.7979C14.1478 12.7148 12.4937 12.2761 10.9843 11.5103C9.47478 10.7445 8.14384 9.66885 7.07837 8.35365C6.5307 9.28925 6.36103 10.3987 6.60403 11.4552C6.84703 12.5117 7.48435 13.4355 8.38574 14.0379C7.71294 14.0197 7.0544 13.8399 6.46574 13.5137V13.56C6.46763 14.5407 6.80708 15.4908 7.42702 16.2507C8.04697 17.0106 8.90961 17.5339 9.86995 17.7326C9.50652 17.8281 9.13201 17.8748 8.75626 17.8715C8.48571 17.8765 8.21539 17.8525 7.94995 17.8C8.22508 18.6434 8.75477 19.3808 9.46616 19.9109C10.1776 20.441 11.0357 20.7376 11.9226 20.76C10.4197 21.9347 8.56695 22.5728 6.65942 22.5726C6.31954 22.5755 5.97985 22.5558 5.64258 22.5137C7.58757 23.7677 9.8547 24.4303 12.1689 24.421C19.9899 24.421 24.2657 17.9431 24.2657 12.3284C24.2657 12.141 24.2657 11.96 24.251 11.7789C25.0837 11.1779 25.8 10.4303 26.3647 9.5726Z" fill="white"/></svg>