<svg width="38" height="25" viewBox="0 0 38 25" fill="none" xmlns="http://www.w3.org/2000/svg"><path d="M0 0.000396729H38V24.9999H0V0.000396729Z" fill="#F0F0F0"/><path d="M21.375 0H16.625V10.1559H0V14.8433H16.625V24.9992H21.375V14.8433H38V10.1559H21.375V0Z" fill="#D80027"/><path d="M29.2262 16.8473L37.9999 21.6574V16.8473H29.2262ZM23.1304 16.8473L37.9999 24.9992V22.694L27.3352 16.8473H23.1304ZM34.0392 24.9992L23.1304 19.0181V24.9992H34.0392Z" fill="#0052B4"/><path d="M23.1304 16.8473L37.9999 24.9992V22.694L27.3352 16.8473H23.1304Z" fill="#F0F0F0"/><path d="M23.1304 16.8473L37.9999 24.9992V22.694L27.3352 16.8473H23.1304Z" fill="#D80027"/><path d="M6.705 16.8471L0 20.523V16.8471H6.705ZM14.8696 17.8837V24.9991H1.89191L14.8696 17.8837Z" fill="#0052B4"/><path d="M10.6647 16.8473L0 22.694V24.9992L14.8696 16.8473H10.6647Z" fill="#D80027"/><path d="M8.77377 8.15191L0 3.3418V8.15191H8.77377ZM14.8696 8.15191L0 0V2.30516L10.6647 8.15191H14.8696ZM3.96076 0L14.8696 5.98107V0H3.96076Z" fill="#0052B4"/><path d="M14.8696 8.15191L0 0V2.30516L10.6647 8.15191H14.8696Z" fill="#F0F0F0"/><path d="M14.8696 8.15191L0 0V2.30516L10.6647 8.15191H14.8696Z" fill="#D80027"/><path d="M31.295 8.15204L37.9999 4.47613V8.15204H31.295ZM23.1304 7.1154V6.10352e-05H36.108L23.1304 7.1154Z" fill="#0052B4"/><path d="M27.3352 8.15191L37.9999 2.30516V0L23.1304 8.15191H27.3352Z" fill="#D80027"/></svg>