<svg width="32" height="32" viewBox="0 0 32 32" fill="none" xmlns="http://www.w3.org/2000/svg"><path d="M16 32C24.8366 32 32 24.8366 32 16C32 7.16344 24.8366 0 16 0C7.16344 0 0 7.16344 0 16C0 24.8366 7.16344 32 16 32Z" fill="#4CAF50"/><path d="M15.9999 7.57886C14.4485 7.57945 12.9274 8.0086 11.6045 8.81895C10.2815 9.62931 9.20814 10.7894 8.50277 12.1711C7.7974 13.5529 7.48746 15.1027 7.60712 16.6495C7.72679 18.1963 8.27143 19.6799 9.18094 20.9368L8.12831 24.0652L11.3683 23.0294C12.4644 23.7524 13.7144 24.2091 15.0184 24.3629C16.3224 24.5168 17.6444 24.3636 18.8786 23.9156C20.1129 23.4675 21.2253 22.737 22.127 21.7825C23.0286 20.8279 23.6946 19.6757 24.0716 18.418C24.4486 17.1602 24.5263 15.8317 24.2985 14.5385C24.0706 13.2454 23.5435 12.0234 22.7592 10.9703C21.975 9.91715 20.9553 9.06199 19.7817 8.47314C18.608 7.88428 17.313 7.57803 15.9999 7.57886ZM20.4757 19.4883L19.5788 20.3852C18.6357 21.3283 16.1346 20.2904 13.9178 18.0694C11.7009 15.8483 10.7073 13.3536 11.6041 12.421L12.5009 11.5241C12.6746 11.3645 12.9019 11.2759 13.1378 11.2759C13.3737 11.2759 13.601 11.3645 13.7746 11.5241L15.0967 12.842C15.2045 12.9468 15.2836 13.0776 15.3264 13.2217C15.3692 13.3658 15.3742 13.5186 15.3411 13.6652C15.3079 13.8119 15.2376 13.9475 15.1369 14.0592C15.0363 14.1709 14.9086 14.2549 14.7662 14.3031C14.5561 14.3702 14.38 14.5158 14.2745 14.7095C14.169 14.9032 14.1423 15.1302 14.1999 15.3431C14.4357 16.3325 15.7094 17.5599 16.6546 17.7957C16.8664 17.8401 17.0871 17.8067 17.2762 17.7015C17.4653 17.5963 17.6102 17.4264 17.6841 17.2231C17.7317 17.0786 17.816 16.9489 17.9288 16.8467C18.0415 16.7445 18.1788 16.6733 18.3272 16.64C18.4757 16.6067 18.6302 16.6125 18.7758 16.6567C18.9214 16.701 19.053 16.7822 19.1578 16.8925L20.4778 18.2146C20.6371 18.3886 20.7253 18.616 20.725 18.8519C20.7246 19.0878 20.6356 19.3149 20.4757 19.4883Z" fill="white"/></svg>