<svg width="32" height="28" viewBox="0 0 32 28" fill="none" xmlns="http://www.w3.org/2000/svg"><path d="M28.0322 5.19606H24.1772V15.4815C24.1772 18.7182 21.5559 21.3514 18.334 21.3514H12.2179L10.0215 22.2514C10.6303 23.669 12.0348 24.6639 13.6667 24.6639H20.1504L28.2927 28L28.284 24.6559C30.3554 24.5251 32.0004 22.7907 32.0004 20.6776V9.18242C32.0004 6.98434 30.2203 5.19606 28.0322 5.19606Z" fill="#3656E9"/><path d="M11.8501 19.4678H18.3338C20.5219 19.4678 22.302 17.6796 22.302 15.4815V3.98635C22.302 1.78828 20.5219 0 18.3338 0H3.96821C1.78014 0 0 1.78828 0 3.98635V15.4815C0 17.5934 1.64332 19.327 3.71296 19.4597L3.71033 22.8029L11.8501 19.4678ZM14.8802 10.6659V8.78234L16.7551 8.78227L16.7552 10.6659L14.8802 10.6659ZM7.42179 10.6659H5.54678V8.78227H7.42179V10.6659ZM10.2135 8.78227H12.0885V10.6659H10.2135V8.78227Z" fill="#3656E9"/></svg>