<svg width="28" height="28" viewBox="0 0 28 28" fill="none" xmlns="http://www.w3.org/2000/svg"><path d="M7.228 26.247C9.3018 27.3984 11.635 28.0017 14.007 28C21.737 28 28 21.723 28 13.993C28 6.263 21.737 0 14.007 0C6.277 0 0 6.263 0 13.993C0 16.479 0.652 18.789 1.78 20.813L0 28L7.228 26.247ZM8.002 7.812C8.16505 7.65942 8.36275 7.54875 8.57806 7.48952C8.79337 7.4303 9.01985 7.42428 9.238 7.472L9.687 7.567C10.135 7.662 10.502 7.961 10.678 8.369L11.561 10.325C11.6681 10.5603 11.7047 10.8216 11.6661 11.0772C11.6276 11.3328 11.5157 11.5718 11.344 11.765L10.801 12.404C10.7126 12.5078 10.6575 12.6358 10.6429 12.7714C10.6283 12.9069 10.6548 13.0437 10.719 13.164C12.322 16.044 14.428 16.982 15.365 17.267C15.5 17.3106 15.6458 17.3076 15.7789 17.2585C15.912 17.2093 16.0247 17.1169 16.099 16.996L16.493 16.384C16.873 15.8 17.621 15.596 18.449 16.004L20.079 16.819C20.705 17.118 20.989 17.851 20.759 18.504C19.93 20.908 17.811 20.609 17.811 20.609C13.111 20.487 9.428 16.153 7.839 13.925C7.105 12.879 6.657 11.615 6.793 10.325C6.929 9.048 7.526 8.246 8.002 7.812Z" fill="#ECECEC"/></svg>