<svg width="673" height="34" viewBox="0 0 673 34" fill="none" xmlns="http://www.w3.org/2000/svg"><line x1="0.148804" y1="23.7109" x2="672.149" y2="23.7109" stroke="#AFC5D2" stroke-width="2" stroke-dasharray="8.57 8.57"/><path d="M37.3631 3.79403V2.27273H44.5308V3.79403H41.8589V11H40.035V3.79403H37.3631ZM47.7108 11.1278C47.0375 11.1278 46.458 10.9915 45.9722 10.7188C45.4892 10.4432 45.1171 10.054 44.8557 9.55114C44.5943 9.04545 44.4636 8.44744 44.4636 7.7571C44.4636 7.08381 44.5943 6.4929 44.8557 5.98438C45.1171 5.47585 45.485 5.07955 45.9594 4.79545C46.4367 4.51136 46.9963 4.36932 47.6384 4.36932C48.0702 4.36932 48.4722 4.43892 48.8443 4.57812C49.2193 4.71449 49.546 4.92045 49.8244 5.19602C50.1057 5.47159 50.3244 5.81818 50.4807 6.2358C50.6369 6.65057 50.7151 7.13636 50.7151 7.69318V8.19176H45.1881V7.06676H49.0063C49.0063 6.8054 48.9494 6.57386 48.8358 6.37216C48.7222 6.17045 48.5645 6.01278 48.3628 5.89915C48.1639 5.78267 47.9324 5.72443 47.6682 5.72443C47.3926 5.72443 47.1483 5.78835 46.9352 5.91619C46.725 6.04119 46.5602 6.21023 46.4409 6.4233C46.3216 6.63352 46.2605 6.8679 46.2577 7.12642V8.19602C46.2577 8.51989 46.3173 8.79972 46.4367 9.03551C46.5588 9.27131 46.7307 9.45312 46.9523 9.58097C47.1739 9.70881 47.4367 9.77273 47.7406 9.77273C47.9423 9.77273 48.127 9.74432 48.2946 9.6875C48.4622 9.63068 48.6057 9.54545 48.725 9.43182C48.8443 9.31818 48.9352 9.17898 48.9977 9.0142L50.6767 9.125C50.5915 9.52841 50.4168 9.88068 50.1526 10.1818C49.8912 10.4801 49.5531 10.7131 49.1384 10.8807C48.7264 11.0455 48.2506 11.1278 47.7108 11.1278ZM51.8997 13.4545V4.45455H53.6895V5.55398H53.7705C53.85 5.37784 53.9651 5.19886 54.1156 5.01705C54.269 4.83239 54.4679 4.67898 54.7122 4.55682C54.9594 4.43182 55.2662 4.36932 55.6327 4.36932C56.11 4.36932 56.5503 4.49432 56.9537 4.74432C57.3571 4.99148 57.6796 5.36506 57.921 5.86506C58.1625 6.36222 58.2832 6.9858 58.2832 7.7358C58.2832 8.46591 58.1653 9.08239 57.9296 9.58523C57.6966 10.0852 57.3784 10.4645 56.975 10.723C56.5744 10.9787 56.1256 11.1065 55.6284 11.1065C55.2761 11.1065 54.9764 11.0483 54.7293 10.9318C54.485 10.8153 54.2847 10.669 54.1284 10.4929C53.9722 10.3139 53.8528 10.1335 53.7705 9.9517H53.7151V13.4545H51.8997ZM53.6767 7.72727C53.6767 8.11648 53.7307 8.45597 53.8386 8.74574C53.9466 9.03551 54.1028 9.26136 54.3074 9.4233C54.5119 9.58239 54.7605 9.66193 55.0531 9.66193C55.3486 9.66193 55.5986 9.58097 55.8031 9.41903C56.0077 9.25426 56.1625 9.02699 56.2676 8.73722C56.3756 8.4446 56.4296 8.10795 56.4296 7.72727C56.4296 7.34943 56.377 7.01705 56.2719 6.73011C56.1668 6.44318 56.0119 6.21875 55.8074 6.05682C55.6028 5.89489 55.3514 5.81392 55.0531 5.81392C54.7577 5.81392 54.5077 5.89205 54.3031 6.0483C54.1014 6.20455 53.9466 6.42614 53.8386 6.71307C53.7307 7 53.6767 7.33807 53.6767 7.72727ZM63.3628 8.9929L65.1355 4.45455H66.5162L63.9636 11H62.7577L60.2648 4.45455H61.6412L63.3628 8.9929ZM61.2278 4.45455V11H59.4935V4.45455H61.2278ZM65.5872 11V4.45455H67.3003V11H65.5872ZM70.4388 8.60511L72.7953 4.45455H74.5851V11H72.855V6.83665L70.507 11H68.7044V4.45455H70.4388V8.60511ZM80.5957 7.00284V8.4304H77.1781V7.00284H80.5957ZM77.7747 4.45455V11H76.0403V4.45455H77.7747ZM81.7335 4.45455V11H80.0119V4.45455H81.7335ZM85.0084 11.1236C84.5908 11.1236 84.2186 11.0511 83.8919 10.9062C83.5652 10.7585 83.3067 10.5412 83.1163 10.2543C82.9288 9.96449 82.8351 9.60369 82.8351 9.17188C82.8351 8.80824 82.9019 8.50284 83.0354 8.25568C83.1689 8.00852 83.3507 7.80966 83.5808 7.65909C83.8109 7.50852 84.0723 7.39489 84.3649 7.31818C84.6604 7.24148 84.97 7.1875 85.2939 7.15625C85.6746 7.11648 85.9814 7.07955 86.2144 7.04545C86.4473 7.00852 86.6163 6.95455 86.7215 6.88352C86.8266 6.8125 86.8791 6.70739 86.8791 6.56818V6.54261C86.8791 6.27273 86.7939 6.06392 86.6234 5.91619C86.4558 5.76847 86.2172 5.6946 85.9075 5.6946C85.5808 5.6946 85.3209 5.76705 85.1277 5.91193C84.9345 6.05398 84.8067 6.23295 84.7442 6.44886L83.0652 6.3125C83.1504 5.91477 83.318 5.57102 83.568 5.28125C83.818 4.98864 84.1405 4.7642 84.5354 4.60795C84.9331 4.44886 85.3933 4.36932 85.9161 4.36932C86.2797 4.36932 86.6277 4.41193 86.9601 4.49716C87.2953 4.58239 87.5922 4.71449 87.8507 4.89347C88.1121 5.07244 88.318 5.30256 88.4686 5.58381C88.6192 5.86222 88.6945 6.19602 88.6945 6.58523V11H86.9729V10.0923H86.9217C86.8166 10.2969 86.676 10.4773 86.4999 10.6335C86.3237 10.7869 86.1121 10.9077 85.8649 10.9957C85.6178 11.081 85.3323 11.1236 85.0084 11.1236ZM85.5283 9.87074C85.7953 9.87074 86.0311 9.81818 86.2357 9.71307C86.4402 9.60511 86.6007 9.46023 86.7172 9.27841C86.8337 9.09659 86.8919 8.89062 86.8919 8.66051V7.96591C86.8351 8.00284 86.757 8.03693 86.6575 8.06818C86.5609 8.09659 86.4516 8.12358 86.3294 8.14915C86.2073 8.17187 86.0851 8.19318 85.9629 8.21307C85.8408 8.23011 85.73 8.24574 85.6305 8.25994C85.4175 8.29119 85.2314 8.34091 85.0723 8.40909C84.9132 8.47727 84.7896 8.5696 84.7016 8.68608C84.6135 8.79972 84.5695 8.94176 84.5695 9.11222C84.5695 9.35938 84.659 9.5483 84.8379 9.67898C85.0198 9.80682 85.2499 9.87074 85.5283 9.87074ZM89.7193 11L89.7108 9.55966H89.9281C90.0815 9.55966 90.2136 9.52273 90.3244 9.44886C90.4381 9.37216 90.5318 9.24858 90.6057 9.07812C90.6796 8.90767 90.7378 8.68182 90.7804 8.40057C90.823 8.11648 90.8514 7.76705 90.8656 7.35227L90.9722 4.45455H95.9494V11H94.2193V5.8821H92.6043L92.502 7.88068C92.4764 8.42898 92.4097 8.90057 92.3017 9.29545C92.1966 9.69034 92.0503 10.0142 91.8628 10.267C91.6753 10.517 91.4494 10.7017 91.1852 10.821C90.921 10.9403 90.6142 11 90.2648 11H89.7193Z" fill="#7E8B99"/><rect x="60.8899" y="17.823" width="11.7895" height="11.7895" rx="5.89474" fill="white"/><rect x="60.8899" y="17.823" width="11.7895" height="11.7895" rx="5.89474" stroke="#2196F3" stroke-width="1.07177"/><rect x="63.5693" y="20.502" width="6.43062" height="6.43062" rx="3.21531" fill="#2196F3"/><path d="M72.5492 22.043H106.973C107.565 22.043 108.045 22.5228 108.045 23.1147V23.9712C108.045 24.5631 107.565 25.043 106.973 25.043H72.5492V22.043Z" fill="#2196F3"/><path d="M331.26 5.32812H329.394C329.36 5.08665 329.29 4.87216 329.185 4.68466C329.08 4.49432 328.945 4.33239 328.78 4.19886C328.615 4.06534 328.425 3.96307 328.209 3.89205C327.996 3.82102 327.765 3.78551 327.515 3.78551C327.063 3.78551 326.669 3.89773 326.334 4.12216C325.999 4.34375 325.739 4.66761 325.554 5.09375C325.37 5.51705 325.277 6.03125 325.277 6.63636C325.277 7.25852 325.37 7.78125 325.554 8.20455C325.742 8.62784 326.003 8.94744 326.338 9.16335C326.674 9.37926 327.061 9.48722 327.502 9.48722C327.749 9.48722 327.978 9.45455 328.188 9.3892C328.401 9.32386 328.59 9.22869 328.755 9.10369C328.919 8.97585 329.056 8.82102 329.164 8.6392C329.275 8.45739 329.351 8.25 329.394 8.01705L331.26 8.02557C331.212 8.42614 331.091 8.8125 330.898 9.18466C330.708 9.55398 330.451 9.88494 330.127 10.1776C329.806 10.4673 329.422 10.6974 328.976 10.8679C328.533 11.0355 328.032 11.1193 327.472 11.1193C326.694 11.1193 325.998 10.9432 325.384 10.5909C324.773 10.2386 324.29 9.72869 323.935 9.06108C323.583 8.39347 323.407 7.58523 323.407 6.63636C323.407 5.68466 323.586 4.875 323.944 4.20739C324.302 3.53977 324.787 3.03125 325.401 2.68182C326.015 2.32955 326.705 2.15341 327.472 2.15341C327.978 2.15341 328.446 2.22443 328.878 2.36648C329.313 2.50852 329.698 2.71591 330.033 2.98864C330.368 3.25852 330.641 3.58949 330.851 3.98153C331.064 4.37358 331.201 4.82244 331.26 5.32812ZM332.549 11V4.45455H334.365V6.99432H334.876L336.657 4.45455H338.788L336.474 7.7017L338.814 11H336.657L335.042 8.67756H334.365V11H332.549ZM339.197 11L339.189 9.55966H339.406C339.559 9.55966 339.691 9.52273 339.802 9.44886C339.916 9.37216 340.01 9.24858 340.083 9.07812C340.157 8.90767 340.216 8.68182 340.258 8.40057C340.301 8.11648 340.329 7.76705 340.343 7.35227L340.45 4.45455H345.427V11H343.697V5.8821H342.082L341.98 7.88068C341.954 8.42898 341.887 8.90057 341.779 9.29545C341.674 9.69034 341.528 10.0142 341.341 10.267C341.153 10.517 340.927 10.7017 340.663 10.821C340.399 10.9403 340.092 11 339.743 11H339.197ZM348.701 11.1236C348.283 11.1236 347.911 11.0511 347.585 10.9062C347.258 10.7585 346.999 10.5412 346.809 10.2543C346.621 9.96449 346.528 9.60369 346.528 9.17188C346.528 8.80824 346.594 8.50284 346.728 8.25568C346.862 8.00852 347.043 7.80966 347.273 7.65909C347.504 7.50852 347.765 7.39489 348.058 7.31818C348.353 7.24148 348.663 7.1875 348.987 7.15625C349.367 7.11648 349.674 7.07955 349.907 7.04545C350.14 7.00852 350.309 6.95455 350.414 6.88352C350.519 6.8125 350.572 6.70739 350.572 6.56818V6.54261C350.572 6.27273 350.487 6.06392 350.316 5.91619C350.148 5.76847 349.91 5.6946 349.6 5.6946C349.273 5.6946 349.014 5.76705 348.82 5.91193C348.627 6.05398 348.499 6.23295 348.437 6.44886L346.758 6.3125C346.843 5.91477 347.011 5.57102 347.261 5.28125C347.511 4.98864 347.833 4.7642 348.228 4.60795C348.626 4.44886 349.086 4.36932 349.609 4.36932C349.972 4.36932 350.32 4.41193 350.653 4.49716C350.988 4.58239 351.285 4.71449 351.543 4.89347C351.805 5.07244 352.011 5.30256 352.161 5.58381C352.312 5.86222 352.387 6.19602 352.387 6.58523V11H350.666V10.0923H350.614C350.509 10.2969 350.369 10.4773 350.192 10.6335C350.016 10.7869 349.805 10.9077 349.558 10.9957C349.31 11.081 349.025 11.1236 348.701 11.1236ZM349.221 9.87074C349.488 9.87074 349.724 9.81818 349.928 9.71307C350.133 9.60511 350.293 9.46023 350.41 9.27841C350.526 9.09659 350.585 8.89062 350.585 8.66051V7.96591C350.528 8.00284 350.45 8.03693 350.35 8.06818C350.254 8.09659 350.144 8.12358 350.022 8.14915C349.9 8.17187 349.778 8.19318 349.656 8.21307C349.533 8.23011 349.423 8.24574 349.323 8.25994C349.11 8.29119 348.924 8.34091 348.765 8.40909C348.606 8.47727 348.482 8.5696 348.394 8.68608C348.306 8.79972 348.262 8.94176 348.262 9.11222C348.262 9.35938 348.352 9.5483 348.531 9.67898C348.712 9.80682 348.942 9.87074 349.221 9.87074ZM353.284 12.9176V9.55966H353.787C353.932 9.46875 354.048 9.32386 354.136 9.125C354.227 8.92614 354.301 8.69176 354.358 8.42188C354.418 8.15199 354.463 7.8608 354.494 7.5483C354.528 7.23295 354.558 6.91477 354.584 6.59375L354.754 4.45455H359.774V9.55966H360.788V12.9176H359.058V11H355.057V12.9176H353.284ZM355.594 9.55966H358.061V5.85227H356.297L356.229 6.59375C356.18 7.29261 356.111 7.88636 356.02 8.375C355.929 8.8608 355.787 9.25568 355.594 9.55966Z" fill="#7E8B99"/><rect x="336.067" y="17.823" width="11.7895" height="11.7895" rx="5.89474" fill="white"/><rect x="336.067" y="17.823" width="11.7895" height="11.7895" rx="5.89474" stroke="#AFC5D2" stroke-width="1.07177"/><rect x="338.746" y="20.502" width="6.43062" height="6.43062" rx="3.21531" fill="#AFC5D2"/><path d="M595.959 13.1051V9.52983H596.551C596.753 9.38494 596.938 9.1804 597.105 8.91619C597.273 8.64915 597.416 8.28125 597.536 7.8125C597.655 7.34091 597.74 6.72443 597.791 5.96307L598.039 2.27273H603.813V9.52983H604.767V13.0966H602.994V11H597.732V13.1051H595.959ZM598.682 9.52983H602.04V3.79403H599.7L599.564 5.96307C599.527 6.53977 599.466 7.05114 599.381 7.49716C599.298 7.94318 599.198 8.33381 599.078 8.66903C598.962 9.00142 598.83 9.28835 598.682 9.52983ZM608.838 11.1278C608.165 11.1278 607.585 10.9915 607.099 10.7188C606.616 10.4432 606.244 10.054 605.983 9.55114C605.721 9.04545 605.591 8.44744 605.591 7.7571C605.591 7.08381 605.721 6.4929 605.983 5.98438C606.244 5.47585 606.612 5.07955 607.086 4.79545C607.564 4.51136 608.123 4.36932 608.765 4.36932C609.197 4.36932 609.599 4.43892 609.971 4.57812C610.346 4.71449 610.673 4.92045 610.952 5.19602C611.233 5.47159 611.452 5.81818 611.608 6.2358C611.764 6.65057 611.842 7.13636 611.842 7.69318V8.19176H606.315V7.06676H610.133C610.133 6.8054 610.077 6.57386 609.963 6.37216C609.849 6.17045 609.692 6.01278 609.49 5.89915C609.291 5.78267 609.059 5.72443 608.795 5.72443C608.52 5.72443 608.275 5.78835 608.062 5.91619C607.852 6.04119 607.687 6.21023 607.568 6.4233C607.449 6.63352 607.388 6.8679 607.385 7.12642V8.19602C607.385 8.51989 607.444 8.79972 607.564 9.03551C607.686 9.27131 607.858 9.45312 608.079 9.58097C608.301 9.70881 608.564 9.77273 608.868 9.77273C609.069 9.77273 609.254 9.74432 609.422 9.6875C609.589 9.63068 609.733 9.54545 609.852 9.43182C609.971 9.31818 610.062 9.17898 610.125 9.0142L611.804 9.125C611.719 9.52841 611.544 9.88068 611.28 10.1818C611.018 10.4801 610.68 10.7131 610.265 10.8807C609.854 11.0455 609.378 11.1278 608.838 11.1278ZM613.027 11V4.45455H618.75V11H617.015V5.8821H614.74V11H613.027ZM623.156 11.1278C622.494 11.1278 621.922 10.9872 621.439 10.706C620.959 10.4219 620.588 10.027 620.327 9.52131C620.065 9.01278 619.934 8.4233 619.934 7.75284C619.934 7.0767 620.065 6.4858 620.327 5.98011C620.588 5.47159 620.959 5.0767 621.439 4.79545C621.922 4.51136 622.494 4.36932 623.156 4.36932C623.818 4.36932 624.389 4.51136 624.869 4.79545C625.352 5.0767 625.724 5.47159 625.986 5.98011C626.247 6.4858 626.378 7.0767 626.378 7.75284C626.378 8.4233 626.247 9.01278 625.986 9.52131C625.724 10.027 625.352 10.4219 624.869 10.706C624.389 10.9872 623.818 11.1278 623.156 11.1278ZM623.165 9.72159C623.466 9.72159 623.717 9.63636 623.919 9.46591C624.121 9.29261 624.273 9.05682 624.375 8.75852C624.48 8.46023 624.532 8.12074 624.532 7.74006C624.532 7.35938 624.48 7.01989 624.375 6.72159C624.273 6.4233 624.121 6.1875 623.919 6.0142C623.717 5.84091 623.466 5.75426 623.165 5.75426C622.861 5.75426 622.605 5.84091 622.398 6.0142C622.193 6.1875 622.038 6.4233 621.933 6.72159C621.831 7.01989 621.78 7.35938 621.78 7.74006C621.78 8.12074 621.831 8.46023 621.933 8.75852C622.038 9.05682 622.193 9.29261 622.398 9.46591C622.605 9.63636 622.861 9.72159 623.165 9.72159Z" fill="#7E8B99"/><rect x="605.359" y="17.823" width="11.7895" height="11.7895" rx="5.89474" fill="white"/><rect x="605.359" y="17.823" width="11.7895" height="11.7895" rx="5.89474" stroke="#AFC5D2" stroke-width="1.07177"/><rect x="608.038" y="20.502" width="6.43062" height="6.43062" rx="3.21531" fill="#AFC5D2"/><path d="M0 23.1147C0 22.5228 0.479848 22.043 1.07177 22.043H60.861V25.043H1.07177C0.479847 25.043 0 24.5631 0 23.9712V23.1147Z" fill="#2196F3"/></svg>