<svg width="1254" height="63" viewBox="0 0 1254 63" fill="none" xmlns="http://www.w3.org/2000/svg"><line y1="45.1123" x2="1254" y2="45.1123" stroke="#AFC5D2" stroke-width="2" stroke-dasharray="16 16"/><path d="M69.233 8.19105V5.90909H79.9844V8.19105H75.9766V19H73.2408V8.19105H69.233ZM84.7544 19.1918C83.7445 19.1918 82.8752 18.9872 82.1465 18.5781C81.4221 18.1648 80.8638 17.581 80.4718 16.8267C80.0797 16.0682 79.8837 15.1712 79.8837 14.1357C79.8837 13.1257 80.0797 12.2393 80.4718 11.4766C80.8638 10.7138 81.4157 10.1193 82.1273 9.69318C82.8432 9.26705 83.6827 9.05398 84.6458 9.05398C85.2935 9.05398 85.8965 9.15838 86.4547 9.36719C87.0172 9.57173 87.5073 9.88068 87.9249 10.294C88.3468 10.7074 88.6749 11.2273 88.9093 11.8537C89.1436 12.4759 89.2608 13.2045 89.2608 14.0398V14.7876H80.9703V13.1001H86.6976C86.6976 12.7081 86.6124 12.3608 86.4419 12.0582C86.2715 11.7557 86.035 11.5192 85.7324 11.3487C85.4341 11.174 85.0868 11.0866 84.6905 11.0866C84.2772 11.0866 83.9107 11.1825 83.5911 11.3743C83.2757 11.5618 83.0286 11.8153 82.8496 12.1349C82.6706 12.4503 82.579 12.8018 82.5748 13.1896V14.794C82.5748 15.2798 82.6642 15.6996 82.8432 16.0533C83.0265 16.407 83.2843 16.6797 83.6167 16.8714C83.949 17.0632 84.3432 17.1591 84.7992 17.1591C85.1017 17.1591 85.3787 17.1165 85.6301 17.0312C85.8816 16.946 86.0968 16.8182 86.2757 16.6477C86.4547 16.4773 86.5911 16.2685 86.6848 16.0213L89.2033 16.1875C89.0755 16.7926 88.8134 17.321 88.4171 17.7727C88.025 18.2202 87.5179 18.5696 86.8958 18.821C86.2779 19.0682 85.5641 19.1918 84.7544 19.1918ZM91.0378 22.6818V9.18182H93.7225V10.831H93.8439C93.9632 10.5668 94.1358 10.2983 94.3617 10.0256C94.5918 9.74858 94.8901 9.51847 95.2566 9.33523C95.6273 9.14773 96.0875 9.05398 96.6373 9.05398C97.3532 9.05398 98.0137 9.24148 98.6188 9.61648C99.2239 9.98722 99.7076 10.5476 100.07 11.2976C100.432 12.0433 100.613 12.9787 100.613 14.1037C100.613 15.1989 100.436 16.1236 100.083 16.8778C99.7331 17.6278 99.2559 18.1967 98.6507 18.5845C98.0499 18.968 97.3766 19.1598 96.6309 19.1598C96.1025 19.1598 95.6529 19.0724 95.2821 18.8977C94.9157 18.723 94.6152 18.5036 94.3809 18.2393C94.1465 17.9709 93.9675 17.7003 93.8439 17.4276H93.7608V22.6818H91.0378ZM93.7033 14.0909C93.7033 14.6747 93.7843 15.1839 93.9462 15.6186C94.1081 16.0533 94.3425 16.392 94.6493 16.6349C94.9561 16.8736 95.329 16.9929 95.7679 16.9929C96.2111 16.9929 96.5861 16.8714 96.8929 16.6286C97.1998 16.3814 97.432 16.0405 97.5897 15.6058C97.7516 15.1669 97.8326 14.6619 97.8326 14.0909C97.8326 13.5241 97.7537 13.0256 97.5961 12.5952C97.4384 12.1648 97.2061 11.8281 96.8993 11.5852C96.5925 11.3423 96.2154 11.2209 95.7679 11.2209C95.3248 11.2209 94.9498 11.3381 94.6429 11.5724C94.3404 11.8068 94.1081 12.1392 93.9462 12.5696C93.7843 13 93.7033 13.5071 93.7033 14.0909ZM108.232 15.9893L110.892 9.18182H112.963L109.134 19H107.325L103.585 9.18182H105.65L108.232 15.9893ZM105.03 9.18182V19H102.428V9.18182H105.03ZM111.569 19V9.18182H114.139V19H111.569ZM118.846 15.4077L122.381 9.18182H125.066V19H122.471V12.755L118.949 19H116.245V9.18182H118.846V15.4077ZM134.082 13.0043V15.1456H128.955V13.0043H134.082ZM129.85 9.18182V19H127.249V9.18182H129.85ZM135.789 9.18182V19H133.206V9.18182H135.789ZM140.701 19.1854C140.074 19.1854 139.516 19.0767 139.026 18.8594C138.536 18.6378 138.148 18.3118 137.863 17.8814C137.581 17.4467 137.441 16.9055 137.441 16.2578C137.441 15.7124 137.541 15.2543 137.741 14.8835C137.942 14.5128 138.214 14.2145 138.559 13.9886C138.905 13.7628 139.297 13.5923 139.736 13.4773C140.179 13.3622 140.643 13.2812 141.129 13.2344C141.7 13.1747 142.16 13.1193 142.51 13.0682C142.859 13.0128 143.113 12.9318 143.27 12.8253C143.428 12.7187 143.507 12.5611 143.507 12.3523V12.3139C143.507 11.9091 143.379 11.5959 143.123 11.3743C142.872 11.1527 142.514 11.0419 142.05 11.0419C141.559 11.0419 141.17 11.1506 140.88 11.3679C140.59 11.581 140.398 11.8494 140.305 12.1733L137.786 11.9688C137.914 11.3722 138.165 10.8565 138.54 10.4219C138.915 9.98295 139.399 9.64631 139.991 9.41193C140.588 9.1733 141.278 9.05398 142.062 9.05398C142.608 9.05398 143.13 9.1179 143.628 9.24574C144.131 9.37358 144.577 9.57173 144.964 9.8402C145.356 10.1087 145.665 10.4538 145.891 10.8757C146.117 11.2933 146.23 11.794 146.23 12.3778V19H143.648V17.6385H143.571C143.413 17.9453 143.202 18.2159 142.938 18.4503C142.674 18.6804 142.356 18.8615 141.986 18.9936C141.615 19.1214 141.187 19.1854 140.701 19.1854ZM141.481 17.3061C141.881 17.3061 142.235 17.2273 142.542 17.0696C142.849 16.9077 143.089 16.6903 143.264 16.4176C143.439 16.1449 143.526 15.8359 143.526 15.4908V14.4489C143.441 14.5043 143.324 14.5554 143.175 14.6023C143.03 14.6449 142.866 14.6854 142.682 14.7237C142.499 14.7578 142.316 14.7898 142.133 14.8196C141.949 14.8452 141.783 14.8686 141.634 14.8899C141.314 14.9368 141.035 15.0114 140.797 15.1136C140.558 15.2159 140.373 15.3544 140.241 15.5291C140.108 15.6996 140.042 15.9126 140.042 16.1683C140.042 16.5391 140.177 16.8224 140.445 17.0185C140.718 17.2102 141.063 17.3061 141.481 17.3061ZM147.767 19L147.754 16.8395H148.08C148.311 16.8395 148.509 16.7841 148.675 16.6733C148.845 16.5582 148.986 16.3729 149.097 16.1172C149.208 15.8615 149.295 15.5227 149.359 15.1009C149.423 14.6747 149.465 14.1506 149.487 13.5284L149.646 9.18182H157.112V19H154.517V11.3232H152.095L151.941 14.321C151.903 15.1435 151.803 15.8509 151.641 16.4432C151.483 17.0355 151.264 17.5213 150.982 17.9006C150.701 18.2756 150.362 18.5526 149.966 18.7315C149.57 18.9105 149.11 19 148.585 19H147.767Z" fill="#7E8B99"/><rect x="102.365" y="33" width="22" height="22" rx="11" fill="white"/><rect x="102.365" y="33" width="22" height="22" rx="11" stroke="#2196F3" stroke-width="2"/><rect x="107.365" y="38" width="12" height="12" rx="6" fill="#2196F3"/><path d="M124.365 43H199.342C200.446 43 201.342 43.8954 201.342 45C201.342 46.1046 200.446 47 199.342 47H124.365V43Z" fill="#2196F3"/><path d="M610.813 10.4922H608.013C607.962 10.13 607.858 9.80824 607.7 9.52699C607.543 9.24148 607.34 8.99858 607.093 8.7983C606.846 8.59801 606.56 8.4446 606.237 8.33807C605.917 8.23153 605.57 8.17827 605.195 8.17827C604.517 8.17827 603.927 8.34659 603.424 8.68324C602.921 9.01562 602.531 9.50142 602.254 10.1406C601.977 10.7756 601.839 11.5469 601.839 12.4545C601.839 13.3878 601.977 14.1719 602.254 14.8068C602.536 15.4418 602.928 15.9212 603.43 16.245C603.933 16.5689 604.515 16.7308 605.175 16.7308C605.546 16.7308 605.889 16.6818 606.205 16.5838C606.524 16.4858 606.808 16.343 607.055 16.1555C607.302 15.9638 607.506 15.7315 607.668 15.4588C607.835 15.1861 607.95 14.875 608.013 14.5256L610.813 14.5384C610.741 15.1392 610.56 15.7188 610.27 16.277C609.984 16.831 609.599 17.3274 609.113 17.7663C608.631 18.201 608.056 18.5462 607.387 18.8018C606.722 19.0533 605.97 19.179 605.131 19.179C603.963 19.179 602.919 18.9148 601.999 18.3864C601.082 17.858 600.358 17.093 599.825 16.0916C599.297 15.0902 599.033 13.8778 599.033 12.4545C599.033 11.027 599.301 9.8125 599.838 8.81108C600.375 7.80966 601.104 7.04687 602.024 6.52273C602.945 5.99432 603.98 5.73011 605.131 5.73011C605.889 5.73011 606.592 5.83665 607.24 6.04972C607.892 6.26278 608.469 6.57386 608.972 6.98295C609.475 7.38778 609.884 7.88423 610.2 8.4723C610.519 9.06037 610.724 9.73366 610.813 10.4922ZM612.747 19V9.18182H615.47V12.9915H616.237L618.909 9.18182H622.105L618.634 14.0526L622.143 19H618.909L616.486 15.5163H615.47V19H612.747ZM622.718 19L622.706 16.8395H623.032C623.262 16.8395 623.46 16.7841 623.626 16.6733C623.797 16.5582 623.937 16.3729 624.048 16.1172C624.159 15.8615 624.246 15.5227 624.31 15.1009C624.374 14.6747 624.417 14.1506 624.438 13.5284L624.598 9.18182H632.064V19H629.468V11.3232H627.046L626.892 14.321C626.854 15.1435 626.754 15.8509 626.592 16.4432C626.434 17.0355 626.215 17.5213 625.934 17.9006C625.652 18.2756 625.314 18.5526 624.917 18.7315C624.521 18.9105 624.061 19 623.537 19H622.718ZM636.974 19.1854C636.348 19.1854 635.79 19.0767 635.3 18.8594C634.809 18.6378 634.422 18.3118 634.136 17.8814C633.855 17.4467 633.714 16.9055 633.714 16.2578C633.714 15.7124 633.814 15.2543 634.015 14.8835C634.215 14.5128 634.488 14.2145 634.833 13.9886C635.178 13.7628 635.57 13.5923 636.009 13.4773C636.452 13.3622 636.917 13.2812 637.403 13.2344C637.974 13.1747 638.434 13.1193 638.783 13.0682C639.133 13.0128 639.386 12.9318 639.544 12.8253C639.702 12.7187 639.78 12.5611 639.78 12.3523V12.3139C639.78 11.9091 639.653 11.5959 639.397 11.3743C639.145 11.1527 638.787 11.0419 638.323 11.0419C637.833 11.0419 637.443 11.1506 637.153 11.3679C636.863 11.581 636.672 11.8494 636.578 12.1733L634.059 11.9688C634.187 11.3722 634.439 10.8565 634.814 10.4219C635.189 9.98295 635.672 9.64631 636.265 9.41193C636.861 9.1733 637.552 9.05398 638.336 9.05398C638.881 9.05398 639.403 9.1179 639.902 9.24574C640.405 9.37358 640.85 9.57173 641.238 9.8402C641.63 10.1087 641.939 10.4538 642.165 10.8757C642.39 11.2933 642.503 11.794 642.503 12.3778V19H639.921V17.6385H639.844C639.687 17.9453 639.476 18.2159 639.211 18.4503C638.947 18.6804 638.63 18.8615 638.259 18.9936C637.888 19.1214 637.46 19.1854 636.974 19.1854ZM637.754 17.3061C638.155 17.3061 638.508 17.2273 638.815 17.0696C639.122 16.9077 639.363 16.6903 639.537 16.4176C639.712 16.1449 639.8 15.8359 639.8 15.4908V14.4489C639.714 14.5043 639.597 14.5554 639.448 14.6023C639.303 14.6449 639.139 14.6854 638.956 14.7237C638.773 14.7578 638.589 14.7898 638.406 14.8196C638.223 14.8452 638.057 14.8686 637.907 14.8899C637.588 14.9368 637.309 15.0114 637.07 15.1136C636.831 15.2159 636.646 15.3544 636.514 15.5291C636.382 15.6996 636.316 15.9126 636.316 16.1683C636.316 16.5391 636.45 16.8224 636.719 17.0185C636.991 17.2102 637.336 17.3061 637.754 17.3061ZM643.849 21.8764V16.8395H644.603C644.82 16.7031 644.995 16.4858 645.127 16.1875C645.264 15.8892 645.374 15.5376 645.46 15.1328C645.549 14.728 645.617 14.2912 645.664 13.8224C645.715 13.3494 645.76 12.8722 645.798 12.3906L646.054 9.18182H653.584V16.8395H655.105V21.8764H652.51V19H646.508V21.8764H643.849ZM647.313 16.8395H651.014V11.2784H648.368L648.266 12.3906C648.193 13.4389 648.089 14.3295 647.953 15.0625C647.816 15.7912 647.603 16.3835 647.313 16.8395Z" fill="#7E8B99"/><rect x="615.865" y="33" width="22" height="22" rx="11" fill="white"/><rect x="615.865" y="33" width="22" height="22" rx="11" stroke="#AFC5D2" stroke-width="2"/><rect x="620.865" y="38" width="12" height="12" rx="6" fill="#AFC5D2"/><path d="M1117.42 22.1577V16.7947H1118.31C1118.61 16.5774 1118.89 16.2706 1119.14 15.8743C1119.39 15.4737 1119.61 14.9219 1119.79 14.2188C1119.97 13.5114 1120.1 12.5866 1120.17 11.4446L1120.54 5.90909H1129.2V16.7947H1130.64V22.1449H1127.98V19H1120.08V22.1577H1117.42ZM1121.51 16.7947H1126.54V8.19105H1123.04L1122.83 11.4446C1122.78 12.3097 1122.68 13.0767 1122.56 13.7457C1122.43 14.4148 1122.28 15.0007 1122.1 15.5036C1121.93 16.0021 1121.73 16.4325 1121.51 16.7947ZM1136.74 19.1918C1135.73 19.1918 1134.86 18.9872 1134.13 18.5781C1133.41 18.1648 1132.85 17.581 1132.46 16.8267C1132.07 16.0682 1131.87 15.1712 1131.87 14.1357C1131.87 13.1257 1132.07 12.2393 1132.46 11.4766C1132.85 10.7138 1133.4 10.1193 1134.11 9.69318C1134.83 9.26705 1135.67 9.05398 1136.63 9.05398C1137.28 9.05398 1137.88 9.15838 1138.44 9.36719C1139 9.57173 1139.49 9.88068 1139.91 10.294C1140.33 10.7074 1140.66 11.2273 1140.9 11.8537C1141.13 12.4759 1141.25 13.2045 1141.25 14.0398V14.7876H1132.96V13.1001H1138.68C1138.68 12.7081 1138.6 12.3608 1138.43 12.0582C1138.26 11.7557 1138.02 11.5192 1137.72 11.3487C1137.42 11.174 1137.07 11.0866 1136.68 11.0866C1136.26 11.0866 1135.9 11.1825 1135.58 11.3743C1135.26 11.5618 1135.02 11.8153 1134.84 12.1349C1134.66 12.4503 1134.57 12.8018 1134.56 13.1896V14.794C1134.56 15.2798 1134.65 15.6996 1134.83 16.0533C1135.01 16.407 1135.27 16.6797 1135.6 16.8714C1135.94 17.0632 1136.33 17.1591 1136.79 17.1591C1137.09 17.1591 1137.37 17.1165 1137.62 17.0312C1137.87 16.946 1138.08 16.8182 1138.26 16.6477C1138.44 16.4773 1138.58 16.2685 1138.67 16.0213L1141.19 16.1875C1141.06 16.7926 1140.8 17.321 1140.4 17.7727C1140.01 18.2202 1139.51 18.5696 1138.88 18.821C1138.27 19.0682 1137.55 19.1918 1136.74 19.1918ZM1143.03 19V9.18182H1151.61V19H1149.01V11.3232H1145.59V19H1143.03ZM1158.22 19.1918C1157.23 19.1918 1156.37 18.9808 1155.64 18.5589C1154.92 18.1328 1154.37 17.5405 1153.97 16.782C1153.58 16.0192 1153.39 15.1349 1153.39 14.1293C1153.39 13.1151 1153.58 12.2287 1153.97 11.4702C1154.37 10.7074 1154.92 10.1151 1155.64 9.69318C1156.37 9.26705 1157.23 9.05398 1158.22 9.05398C1159.21 9.05398 1160.07 9.26705 1160.79 9.69318C1161.51 10.1151 1162.07 10.7074 1162.46 11.4702C1162.86 12.2287 1163.05 13.1151 1163.05 14.1293C1163.05 15.1349 1162.86 16.0192 1162.46 16.782C1162.07 17.5405 1161.51 18.1328 1160.79 18.5589C1160.07 18.9808 1159.21 19.1918 1158.22 19.1918ZM1158.23 17.0824C1158.68 17.0824 1159.06 16.9545 1159.36 16.6989C1159.67 16.4389 1159.89 16.0852 1160.05 15.6378C1160.2 15.1903 1160.28 14.6811 1160.28 14.1101C1160.28 13.5391 1160.2 13.0298 1160.05 12.5824C1159.89 12.1349 1159.67 11.7812 1159.36 11.5213C1159.06 11.2614 1158.68 11.1314 1158.23 11.1314C1157.78 11.1314 1157.39 11.2614 1157.08 11.5213C1156.77 11.7812 1156.54 12.1349 1156.38 12.5824C1156.23 13.0298 1156.15 13.5391 1156.15 14.1101C1156.15 14.6811 1156.23 15.1903 1156.38 15.6378C1156.54 16.0852 1156.77 16.4389 1157.08 16.6989C1157.39 16.9545 1157.78 17.0824 1158.23 17.0824Z" fill="#7E8B99"/><rect x="1129.37" y="33" width="22" height="22" rx="11" fill="white"/><rect x="1129.37" y="33" width="22" height="22" rx="11" stroke="#AFC5D2" stroke-width="2"/><rect x="1134.37" y="38" width="12" height="12" rx="6" fill="#AFC5D2"/><path d="M0 45C0 43.8954 0.895431 43 2 43H102.178V47H2C0.895432 47 0 46.1046 0 45Z" fill="#2196F3"/></svg>