<svg width="210" height="33" viewBox="0 0 210 33" fill="none" xmlns="http://www.w3.org/2000/svg"><path d="M27.8081 27.1093L17.1719 30.7322V20.1912L27.8081 16.5684V27.1093Z" fill="#2196F3"/><path d="M17.1714 20.1914L0 14.3438V24.8847L17.1714 30.7323V20.1914Z" fill="#0A3D8C"/><path d="M42.6971 21.6408L27.8076 16.5703V27.1113L42.6971 32.1817V21.6408Z" fill="#0A3D8C"/><path d="M53.3334 28.5605L42.6973 32.1833V21.6424L53.3334 18.0195V28.5605Z" fill="#2196F3"/><path d="M38.4438 12.9472L27.8076 16.5701V6.02911L38.4438 2.40625V12.9472Z" fill="#2196F3"/><path d="M27.8072 6.02926L10.6357 0.181641V10.7226L27.8072 16.5702V6.02926Z" fill="#0A3D8C"/><path d="M80.7795 18.2477L78.0356 21.1838V26.4877H73.333V5.51367H78.0356V15.3116L87.0866 5.51367H92.3432L83.8749 14.8624L92.8398 26.4877H87.3205L80.7795 18.2477Z" fill="#2196F3"/><path d="M94.4814 17.2582V5.51367H99.2114V17.0786C99.2114 21.0632 100.905 22.7123 103.768 22.7123C106.658 22.7123 108.323 21.0632 108.323 17.0786V5.51367H112.995V17.2582C112.995 23.4337 109.55 26.847 103.738 26.847C97.9257 26.847 94.4814 23.4309 94.4814 17.2582Z" fill="#2196F3"/><path d="M135.023 20.7642C135.023 24.3895 132.221 26.4877 126.848 26.4877H116.277V5.51367H126.262C131.373 5.51367 134 7.70034 134 10.9663C134 13.0631 132.95 14.6814 131.285 15.581C133.564 16.3305 135.023 18.127 135.023 20.7642ZM120.978 9.16841V14.113H125.68C127.986 14.113 129.236 13.2709 129.236 11.626C129.236 9.98104 127.98 9.16841 125.68 9.16841H120.978ZM130.265 20.2561C130.265 18.4891 128.95 17.6498 126.498 17.6498H120.978V22.833H126.498C128.95 22.8316 130.265 22.0526 130.265 20.2547V20.2561Z" fill="#2196F3"/><path d="M153.041 22.5916V26.4877H137.214V5.51367H152.661V9.40841H141.915V13.9628H151.405V17.7382H141.915V22.5916H153.041Z" fill="#2196F3"/><path d="M168.253 26.4933L164.311 20.6505H159.96V26.4933H155.228V5.51367H164.077C169.537 5.51367 172.954 8.42034 172.954 13.1235C172.954 16.2702 171.406 18.5775 168.749 19.7453L173.333 26.4821L168.253 26.4933ZM163.814 9.46876H159.96V16.7796H163.814C166.704 16.7796 168.165 15.4014 168.165 13.1305C168.165 10.8161 166.704 9.46876 163.814 9.46876Z" fill="#2196F3"/><path d="M180.337 10.1816V-0.00017786H184.235C184.971 -0.00017786 185.582 0.115826 186.07 0.347833C186.56 0.576527 186.926 0.889737 187.168 1.28746C187.414 1.68519 187.536 2.13595 187.536 2.63974C187.536 3.05404 187.457 3.40868 187.297 3.70366C187.138 3.99532 186.925 4.2323 186.656 4.41459C186.388 4.59689 186.088 4.72781 185.756 4.80735V4.90678C186.118 4.92667 186.464 5.0377 186.795 5.23988C187.13 5.43874 187.404 5.72047 187.616 6.08505C187.828 6.44963 187.934 6.89045 187.934 7.40749C187.934 7.93448 187.806 8.40844 187.551 8.82937C187.296 9.24698 186.911 9.57676 186.398 9.81871C185.884 10.0607 185.238 10.1816 184.459 10.1816H180.337ZM182.182 8.64045H184.165C184.835 8.64045 185.317 8.51284 185.612 8.25763C185.91 7.99911 186.06 7.66767 186.06 7.26332C186.06 6.96171 185.985 6.68993 185.836 6.44798C185.687 6.20271 185.475 6.01048 185.199 5.87127C184.924 5.72875 184.596 5.65749 184.215 5.65749H182.182V8.64045ZM182.182 4.33008H184.006C184.324 4.33008 184.611 4.27208 184.866 4.15607C185.122 4.03675 185.322 3.86938 185.468 3.65394C185.617 3.43519 185.692 3.17667 185.692 2.87837C185.692 2.48396 185.552 2.15915 185.274 1.90394C184.999 1.64873 184.59 1.52113 184.046 1.52113H182.182V4.33008ZM192.84 10.3308C192.074 10.3308 191.413 10.1717 190.856 9.85352C190.302 9.53202 189.877 9.07795 189.578 8.4913C189.28 7.90134 189.131 7.20697 189.131 6.4082C189.131 5.62269 189.28 4.9333 189.578 4.34002C189.88 3.74343 190.301 3.27941 190.841 2.94798C191.381 2.61322 192.016 2.44585 192.745 2.44585C193.216 2.44585 193.66 2.52208 194.078 2.67454C194.498 2.82369 194.87 3.05569 195.191 3.37056C195.516 3.68543 195.771 4.08647 195.957 4.57369C196.142 5.05759 196.235 5.63429 196.235 6.3038V6.85565H189.976V5.64258H194.51C194.507 5.29788 194.432 4.9913 194.286 4.72283C194.14 4.45105 193.937 4.23728 193.675 4.0815C193.416 3.92572 193.115 3.84783 192.77 3.84783C192.402 3.84783 192.079 3.93732 191.801 4.1163C191.522 4.29196 191.305 4.52397 191.149 4.81232C190.997 5.09736 190.919 5.41057 190.916 5.75195V6.8109C190.916 7.25503 190.997 7.63619 191.159 7.95437C191.322 8.26924 191.549 8.51119 191.84 8.68022C192.132 8.84594 192.473 8.9288 192.864 8.9288C193.126 8.9288 193.363 8.89234 193.575 8.81942C193.787 8.74319 193.971 8.63216 194.127 8.48633C194.283 8.34049 194.401 8.15986 194.48 7.94442L196.161 8.13335C196.055 8.57747 195.852 8.96526 195.554 9.2967C195.259 9.62482 194.881 9.88003 194.421 10.0623C193.96 10.2413 193.433 10.3308 192.84 10.3308ZM201.571 2.54528V3.93732H197.181V2.54528H201.571ZM198.265 0.715731H200.065V7.88477C200.065 8.12672 200.101 8.31232 200.174 8.44158C200.25 8.56753 200.35 8.6537 200.472 8.70011C200.595 8.74651 200.731 8.76971 200.88 8.76971C200.993 8.76971 201.095 8.76142 201.188 8.74485C201.284 8.72828 201.357 8.71336 201.407 8.70011L201.71 10.1071C201.614 10.1402 201.476 10.1767 201.297 10.2164C201.122 10.2562 200.906 10.2794 200.651 10.286C200.2 10.2993 199.794 10.2314 199.433 10.0822C199.072 9.92975 198.785 9.69442 198.573 9.37624C198.364 9.05806 198.262 8.66033 198.265 8.18306V0.715731ZM205.274 10.3358C204.79 10.3358 204.354 10.2496 203.966 10.0772C203.582 9.90157 203.277 9.64305 203.051 9.30167C202.829 8.96029 202.718 8.53936 202.718 8.03888C202.718 7.60801 202.798 7.25172 202.957 6.96999C203.116 6.68827 203.333 6.46289 203.608 6.29386C203.883 6.12482 204.193 5.99722 204.538 5.91104C204.886 5.82156 205.245 5.75692 205.617 5.71715C206.064 5.67075 206.427 5.62932 206.705 5.59286C206.984 5.55309 207.186 5.49343 207.312 5.41388C207.441 5.33102 207.506 5.20342 207.506 5.03107V5.00124C207.506 4.62672 207.395 4.33671 207.173 4.13121C206.951 3.92572 206.631 3.82298 206.213 3.82298C205.772 3.82298 205.423 3.91909 205.164 4.11133C204.909 4.30356 204.737 4.5306 204.647 4.79244L202.967 4.5538C203.099 4.08978 203.318 3.702 203.623 3.39045C203.928 3.07558 204.301 2.84026 204.742 2.68448C205.182 2.52539 205.67 2.44585 206.203 2.44585C206.571 2.44585 206.937 2.48893 207.302 2.57511C207.667 2.66128 208 2.8038 208.301 3.00266C208.603 3.19821 208.845 3.46502 209.027 3.80309C209.213 4.14116 209.305 4.56374 209.305 5.07084V10.1816H207.575V9.13263H207.516C207.406 9.34476 207.252 9.54362 207.053 9.72923C206.858 9.91152 206.611 10.059 206.313 10.1717C206.018 10.2811 205.671 10.3358 205.274 10.3358ZM205.741 9.01332C206.102 9.01332 206.415 8.94206 206.68 8.79954C206.946 8.6537 207.149 8.46147 207.292 8.22283C207.438 7.9842 207.511 7.72402 207.511 7.44229V6.54244C207.454 6.58884 207.358 6.63192 207.222 6.6717C207.09 6.71147 206.941 6.74627 206.775 6.7761C206.609 6.80593 206.445 6.83245 206.283 6.85565C206.12 6.87885 205.979 6.89873 205.86 6.91531C205.592 6.95176 205.351 7.01142 205.139 7.09428C204.927 7.17714 204.76 7.29315 204.637 7.44229C204.515 7.58813 204.453 7.77705 204.453 8.00906C204.453 8.34049 204.574 8.59073 204.816 8.75977C205.058 8.9288 205.366 9.01332 205.741 9.01332Z" fill="#9EA8B3"/></svg>