<?xml version="1.0" encoding="UTF-8"?><svg id="a" data-name="katman 1" xmlns="http://www.w3.org/2000/svg" width="137.9" height="155.85" viewBox="0 0 137.9 155.85"><path d="m130.2,24.05l.8,5c.6,4.6.9,9.2.8,13.9,0,10.3-1.2,20.5-3.6,30.5-3.2,13.5-8.8,26.4-16.5,38-8.9,13.2-21.8,26.1-40.5,36.7l-2.3,1.3-2.3-1.3c-18.7-10.4-31.6-23.4-40.5-36.7-7.8-11.6-13.3-24.4-16.5-38-2.4-10-3.6-20.2-3.6-30.5,0-4.6.2-9.3.8-13.9l.7-5c.1-.4.1-.8,0-1.2s-.2-.8-.5-1.1c-.2-.3-.5-.6-.8-.8s-.7-.3-1-.4c-.4-.1-.8-.1-1.2,0-.4.1-.8.3-1.1.5-.3.2-.6.5-.8.8-.2.4-.3.8-.4,1.2l-.8,5c-.6,4.9-.9,9.9-.9,14.9,0,10.8,1.3,21.5,3.8,32,1.7,7.1,4,14.1,6.9,20.8,2.9,6.7,6.4,13.1,10.5,19.2,9.4,14,23,27.7,42.6,38.5l3.7,2.1c.5.2,1,.3,1.5.3s1-.1,1.5-.3l3.7-2.1c19.5-10.9,33.2-24.6,42.6-38.5,8.2-12.2,14.1-25.8,17.4-40,2.5-10.5,3.7-21.2,3.7-32,0-5-.3-10-.9-15l-.8-5c-.1-.4-.2-.8-.4-1.2-.2-.3-.5-.6-.8-.8s-.7-.4-1.1-.5c-.4-.1-.8-.1-1.2,0s-.8.2-1.2.4c-.3.2-.6.5-.8.8s-.4.7-.5,1.1v1.3Z" style="fill:#fff;fill-rule:evenodd"/><path d="m24.3,20.65l44.8-14.1,45.7,14.4c.4.1.8.1,1.2.1s.8-.1,1.2-.3.7-.4,1-.8c.3-.3.5-.7.5-1.1.1-.4.1-.8.1-1.2s-.1-.8-.3-1.2-.4-.7-.7-1-.7-.5-1.1-.5L70,.15c-.6-.2-1.2-.2-1.8,0L22.6,14.55c-.4.1-.7.3-1.1.5-.3.3-.6.6-.7,1-.2.4-.3.8-.3,1.2s0,.8.1,1.2.3.8.5,1.1.6.6,1,.8c.3.2.7.3,1.2.3.2.1.6.1,1,0Z" style="fill:#fff;fill-rule:evenodd"/><path d="m2.2,24.95l64.1,129.2c.2.5.6.9,1,1.2,1,.6,2.2.6,3.2,0,.5-.3.9-.7,1.2-1.2l39.1-75.5.1-.1,25-53.7c.2-.4.3-.8.3-1.2s0-.8-.2-1.2c-.1-.4-.3-.8-.6-1.1-.2-.3-.6-.6-.9-.8-.3-.2-.7-.3-1.2-.3-.4,0-.8,0-1.2.1s-.8.3-1.1.6-.6.6-.7,1l-25,53.7-36.4,70.3L7.5,21.95c-.2-.3-.5-.7-.7-1-.3-.3-.7-.5-1.1-.6-.4-.2-.8-.2-1.2-.1-.4,0-.8.1-1.2.3-.3.2-.7.5-.9.8-.2.3-.4.7-.5,1.1-.1.4-.2.8-.1,1.2.1.5.2.9.4,1.3Z" style="fill:#fff;fill-rule:evenodd"/><path d="m32.9,82.55h71.4c.4,0,.8-.1,1.2-.2s.7-.4.9-.7c.3-.3.5-.6.6-1,.3-.8.3-1.6,0-2.4-.1-.4-.4-.7-.6-1-.3-.3-.6-.5-.9-.7-.4-.1-.8-.2-1.2-.2H32.9c-.4,0-.8.1-1.2.2-.4.1-.7.4-.9.7-.3.3-.5.6-.6,1-.3.8-.3,1.6,0,2.4.1.4.3.7.6,1,.3.3.6.5.9.7.4.1.8.1,1.2.2Z" style="fill:#fff;fill-rule:evenodd"/></svg>