<svg width="60" height="60" viewBox="0 0 60 60" fill="none" xmlns="http://www.w3.org/2000/svg"><g clip-path="url(#clip0_36_1072)"><path d="M22.2656 44.5312C34.5626 44.5312 44.5312 34.5626 44.5312 22.2656C44.5312 9.96866 34.5626 0 22.2656 0C9.96866 0 0 9.96866 0 22.2656C0 34.5626 9.96866 44.5312 22.2656 44.5312Z" fill="url(#paint0_linear_36_1072)"/><path d="M22.2656 41.4395C32.855 41.4395 41.4395 32.8551 41.4395 22.2657C41.4395 11.6762 32.855 3.0918 22.2656 3.0918C11.6762 3.0918 3.09174 11.6762 3.09174 22.2657C3.09174 32.8551 11.6762 41.4395 22.2656 41.4395Z" fill="url(#paint1_linear_36_1072)"/><path d="M0 22.2657C0 34.5626 9.96867 44.5313 22.2656 44.5313C34.5626 44.5313 44.5312 34.5626 44.5312 22.2657C44.5312 19.6025 44.062 17.0493 43.2046 14.6821H1.32668C0.469219 17.0493 0 19.6025 0 22.2657Z" fill="url(#paint2_linear_36_1072)"/><path d="M6.52147 38.0099C15.2167 46.7051 29.3146 46.7052 38.0099 38.0099C46.7052 29.3146 46.7051 15.2168 38.0099 6.52146C36.1267 4.63826 33.9895 3.16463 31.7094 2.09717L2.09729 31.7093C3.16463 33.9896 4.63827 36.1267 6.52147 38.0099Z" fill="url(#paint3_linear_36_1072)"/><path d="M22.2656 39.2263C31.6327 39.2263 39.2263 31.6327 39.2263 22.2656C39.2263 12.8985 31.6327 5.30493 22.2656 5.30493C12.8985 5.30493 5.30493 12.8985 5.30493 22.2656C5.30493 31.6327 12.8985 39.2263 22.2656 39.2263Z" fill="url(#paint4_linear_36_1072)"/><path d="M39.2263 22.2656C39.2263 12.8986 31.6327 5.30493 22.2656 5.30493C12.8986 5.30493 5.30493 12.8984 5.30493 22.2656C5.30493 24.2942 5.66235 26.2392 6.31556 28.0424H38.2156C38.8688 26.2392 39.2263 24.2942 39.2263 22.2656Z" fill="url(#paint5_linear_36_1072)"/><path d="M34.2586 10.2726C27.635 3.64904 16.8962 3.64904 10.2727 10.2726C3.6491 16.8962 3.6491 27.635 10.2727 34.2585C11.7072 35.693 13.3351 36.8156 15.0721 37.6287L37.6288 15.072C36.8156 13.3351 35.6931 11.7071 34.2586 10.2726Z" fill="url(#paint6_linear_36_1072)"/><path d="M22.4892 6.05737L21.217 22.0497L33.8343 34.6669C33.9772 34.5333 34.1192 34.398 34.2586 34.2585C37.4381 31.079 39.0904 26.9512 39.2174 22.7854L22.4892 6.05737Z" fill="url(#paint7_linear_36_1072)"/><path d="M20.7647 23.7665L25.8074 28.8092C26.634 29.6359 27.9847 29.6703 28.8176 28.8499C28.8285 28.8391 28.8394 28.8283 28.8501 28.8174C29.6705 27.9846 29.636 26.634 28.8094 25.8073L23.7667 20.7646L20.7647 23.7665Z" fill="url(#paint8_linear_36_1072)"/><path d="M22.2656 7.37085C22.1076 7.37085 21.956 7.43364 21.8442 7.54542C21.7324 7.65719 21.6696 7.80879 21.6696 7.96687V10.265C21.6696 10.4231 21.7324 10.5747 21.8442 10.6865C21.956 10.7983 22.1076 10.861 22.2656 10.861C22.4237 10.861 22.5753 10.7983 22.6871 10.6865C22.7989 10.5747 22.8616 10.4231 22.8616 10.265V7.96698C22.8617 7.8887 22.8463 7.81119 22.8163 7.73886C22.7864 7.66654 22.7425 7.60082 22.6871 7.54546C22.6318 7.4901 22.5661 7.44619 22.4937 7.41623C22.4214 7.38627 22.3439 7.37085 22.2656 7.37085Z" fill="url(#paint9_linear_36_1072)"/><path d="M22.2656 33.6702C22.1076 33.6702 21.956 33.733 21.8442 33.8447C21.7324 33.9565 21.6696 34.1081 21.6696 34.2662V36.5643C21.6696 36.7224 21.7324 36.874 21.8442 36.9858C21.956 37.0976 22.1076 37.1604 22.2656 37.1604C22.4237 37.1604 22.5753 37.0976 22.6871 36.9858C22.7989 36.874 22.8616 36.7224 22.8616 36.5643V34.2662C22.8616 34.1081 22.7988 33.9565 22.687 33.8448C22.5753 33.733 22.4237 33.6702 22.2656 33.6702Z" fill="url(#paint10_linear_36_1072)"/><path d="M36.5642 21.6697H34.2661C34.108 21.6697 33.9564 21.7325 33.8446 21.8442C33.7328 21.956 33.67 22.1076 33.67 22.2657C33.67 22.4238 33.7328 22.5754 33.8446 22.6871C33.9564 22.7989 34.108 22.8617 34.2661 22.8617H36.5642C36.7223 22.8617 36.8739 22.7989 36.9857 22.6871C37.0974 22.5754 37.1602 22.4238 37.1602 22.2657C37.1602 22.1076 37.0974 21.956 36.9857 21.8442C36.8739 21.7325 36.7223 21.6697 36.5642 21.6697Z" fill="url(#paint11_linear_36_1072)"/><path d="M10.8612 22.2657C10.8612 22.1076 10.7984 21.956 10.6866 21.8442C10.5748 21.7325 10.4232 21.6697 10.2652 21.6697H7.96699C7.80891 21.6697 7.65732 21.7325 7.54554 21.8442C7.43377 21.956 7.37097 22.1076 7.37097 22.2657C7.37097 22.4238 7.43377 22.5754 7.54554 22.6871C7.65732 22.7989 7.80891 22.8617 7.96699 22.8617H10.2652C10.4232 22.8617 10.5748 22.7989 10.6866 22.6871C10.7983 22.5753 10.8611 22.4238 10.8612 22.2657Z" fill="url(#paint12_linear_36_1072)"/><path d="M15.6325 9.5845C15.5521 9.45029 15.4221 9.35306 15.2707 9.31378C15.1193 9.2745 14.9585 9.29632 14.823 9.37453C14.6875 9.45275 14.5882 9.58109 14.5465 9.73187C14.5048 9.88265 14.524 10.0438 14.6 10.1805L15.7491 12.1707C15.8294 12.3049 15.9594 12.4022 16.1108 12.4414C16.2622 12.4807 16.423 12.4589 16.5585 12.3807C16.694 12.3025 16.7933 12.1741 16.835 12.0233C16.8767 11.8726 16.8575 11.7114 16.7815 11.5747L15.6325 9.5845Z" fill="url(#paint13_linear_36_1072)"/><path d="M28.7821 32.3604C28.7017 32.2262 28.5717 32.1289 28.4203 32.0897C28.2689 32.0504 28.1081 32.0722 27.9726 32.1504C27.8371 32.2286 27.7378 32.357 27.6961 32.5078C27.6544 32.6585 27.6736 32.8197 27.7496 32.9564L28.8987 34.9466C28.979 35.0808 29.109 35.178 29.2604 35.2173C29.4118 35.2566 29.5726 35.2348 29.7081 35.1566C29.8436 35.0783 29.9429 34.95 29.9846 34.7992C30.0263 34.6484 30.0071 34.4873 29.9311 34.3506L28.7821 32.3604Z" fill="url(#paint14_linear_36_1072)"/><path d="M32.9564 16.7817L34.9466 15.6327C35.0808 15.5523 35.178 15.4224 35.2173 15.271C35.2566 15.1195 35.2348 14.9587 35.1566 14.8232C35.0783 14.6877 34.95 14.5884 34.7992 14.5467C34.6484 14.505 34.4873 14.5242 34.3506 14.6003L32.3604 15.7493C32.2262 15.8297 32.1289 15.9596 32.0897 16.111C32.0504 16.2625 32.0722 16.4233 32.1504 16.5588C32.2286 16.6942 32.357 16.7936 32.5078 16.8353C32.6585 16.877 32.8197 16.8577 32.9564 16.7817Z" fill="url(#paint15_linear_36_1072)"/><path d="M11.5748 27.7497L9.58462 28.8987C9.45041 28.9791 9.35318 29.109 9.3139 29.2605C9.27462 29.4119 9.29644 29.5727 9.37466 29.7082C9.45287 29.8437 9.58121 29.943 9.732 29.9847C9.88278 30.0264 10.0439 30.0072 10.1806 29.9311L12.1708 28.7821C12.305 28.7017 12.4023 28.5718 12.4416 28.4204C12.4808 28.2689 12.459 28.1081 12.3808 27.9726C12.3026 27.8372 12.1742 27.7379 12.0235 27.6961C11.8727 27.6544 11.7115 27.6737 11.5748 27.7497Z" fill="url(#paint16_linear_36_1072)"/><path d="M29.713 9.36648C29.6452 9.32734 29.5704 9.30194 29.4928 9.29172C29.4152 9.2815 29.3363 9.28667 29.2607 9.30694C29.1851 9.3272 29.1142 9.36216 29.0521 9.40981C28.99 9.45747 28.9379 9.51689 28.8988 9.58468L27.7498 11.5749C27.7106 11.6427 27.6852 11.7175 27.675 11.7951C27.6648 11.8727 27.67 11.9516 27.6902 12.0272C27.7105 12.1028 27.7455 12.1737 27.7931 12.2358C27.8408 12.2979 27.9002 12.35 27.968 12.3891C28.0358 12.4282 28.1106 12.4536 28.1882 12.4639C28.2658 12.4741 28.3447 12.4689 28.4203 12.4486C28.4959 12.4284 28.5668 12.3934 28.6289 12.3458C28.691 12.2981 28.7431 12.2387 28.7822 12.1709L29.9312 10.1807C29.9704 10.1129 29.9958 10.0381 30.006 9.96047C30.0162 9.88286 30.011 9.804 29.9908 9.72839C29.9705 9.65279 29.9356 9.58191 29.8879 9.51981C29.8402 9.45771 29.7808 9.40561 29.713 9.36648Z" fill="url(#paint17_linear_36_1072)"/><path d="M16.5634 32.1421C16.4956 32.103 16.4208 32.0776 16.3432 32.0674C16.2656 32.0571 16.1867 32.0623 16.1111 32.0826C16.0355 32.1028 15.9646 32.1378 15.9025 32.1854C15.8404 32.2331 15.7883 32.2925 15.7492 32.3603L14.6002 34.3505C14.561 34.4183 14.5356 34.4931 14.5254 34.5707C14.5152 34.6484 14.5204 34.7272 14.5406 34.8028C14.5609 34.8784 14.5959 34.9493 14.6435 35.0114C14.6912 35.0735 14.7506 35.1256 14.8184 35.1647C14.8862 35.2039 14.961 35.2293 15.0386 35.2395C15.1162 35.2497 15.1951 35.2445 15.2707 35.2243C15.3463 35.204 15.4172 35.1691 15.4793 35.1214C15.5414 35.0737 15.5935 35.0143 15.6326 34.9465L16.7816 32.9563C16.8606 32.8194 16.882 32.6567 16.8411 32.504C16.8002 32.3514 16.7003 32.2212 16.5634 32.1421Z" fill="url(#paint18_linear_36_1072)"/><path d="M12.1708 15.7491L10.1806 14.6001C10.1128 14.561 10.038 14.5356 9.96041 14.5254C9.8828 14.5151 9.80394 14.5203 9.72833 14.5406C9.65272 14.5608 9.58185 14.5958 9.51975 14.6435C9.45765 14.6911 9.40555 14.7505 9.36642 14.8183C9.32728 14.8861 9.30188 14.9609 9.29166 15.0386C9.28144 15.1162 9.28661 15.195 9.30687 15.2706C9.32714 15.3462 9.36209 15.4171 9.40975 15.4792C9.45741 15.5413 9.51683 15.5934 9.58462 15.6325L11.5748 16.7816C11.7117 16.8606 11.8744 16.882 12.0271 16.8411C12.1798 16.8002 12.31 16.7003 12.389 16.5634C12.4681 16.4265 12.4895 16.2638 12.4486 16.1111C12.4076 15.9584 12.3077 15.8282 12.1708 15.7491Z" fill="url(#paint19_linear_36_1072)"/><path d="M34.9467 28.8988L32.9565 27.7498C32.8887 27.7106 32.8139 27.6852 32.7363 27.675C32.6587 27.6648 32.5798 27.67 32.5042 27.6902C32.4286 27.7105 32.3577 27.7455 32.2956 27.7931C32.2335 27.8408 32.1814 27.9002 32.1423 27.968C32.1032 28.0358 32.0778 28.1106 32.0675 28.1882C32.0573 28.2658 32.0625 28.3447 32.0828 28.4203C32.103 28.4959 32.138 28.5668 32.1856 28.6289C32.2333 28.691 32.2927 28.7431 32.3605 28.7822L34.3507 29.9312C34.4876 30.0103 34.6503 30.0317 34.803 29.9908C34.9557 29.9498 35.0859 29.8499 35.1649 29.713C35.244 29.5761 35.2654 29.4134 35.2244 29.2607C35.1835 29.108 35.0836 28.9778 34.9467 28.8988Z" fill="url(#paint20_linear_36_1072)"/><path d="M22.2656 22.0497H21.217V11.9327C21.217 10.1753 21.4304 8.42456 21.8525 6.71866L21.9893 6.16601C22.0607 5.87761 22.4707 5.87761 22.5421 6.16601L22.6788 6.71866C23.1009 8.42454 23.3143 10.1754 23.3143 11.9327V22.0497H22.2656Z" fill="url(#paint21_linear_36_1072)"/><path d="M22.0966 22.2657L23.0116 22.7778L19.8224 28.4769C18.9642 30.0105 17.923 31.4341 16.7216 32.7167L16.3324 33.1321C16.1293 33.3489 15.7715 33.1487 15.8501 32.8622L16.0006 32.3132C16.4654 30.6184 17.1341 28.9864 17.9922 27.4528L21.1815 21.7537L22.0966 22.2657Z" fill="url(#paint22_linear_36_1072)"/><path d="M22.2656 24.3883C23.438 24.3883 24.3884 23.4379 24.3884 22.2656C24.3884 21.0932 23.438 20.1428 22.2656 20.1428C21.0933 20.1428 20.1429 21.0932 20.1429 22.2656C20.1429 23.4379 21.0933 24.3883 22.2656 24.3883Z" fill="url(#paint23_linear_36_1072)"/><path d="M20.1429 22.2657C20.1429 23.438 21.0933 24.3884 22.2656 24.3884C23.438 24.3884 24.3884 23.438 24.3884 22.2657C24.3884 22.0117 24.3436 21.7683 24.2619 21.5427H20.2696C20.1855 21.7745 20.1426 22.0191 20.1429 22.2657Z" fill="url(#paint24_linear_36_1072)"/><path d="M20.7647 23.7667C21.5937 24.5956 22.9377 24.5956 23.7666 23.7667C24.5956 22.9377 24.5956 21.5936 23.7666 20.7648C23.5924 20.5903 23.3891 20.4476 23.1659 20.343L20.3428 23.1661C20.4475 23.3893 20.5902 23.5925 20.7647 23.7667Z" fill="url(#paint25_linear_36_1072)"/><path d="M42.6012 60.0024C52.2117 60.0024 60.0025 52.2116 60.0025 42.6012C60.0025 32.9907 52.2117 25.2 42.6012 25.2C32.9908 25.2 25.2 32.9907 25.2 42.6012C25.2 52.2116 32.9908 60.0024 42.6012 60.0024Z" fill="url(#paint26_linear_36_1072)"/><path d="M40.2811 25.3577C31.7707 26.4899 25.2 33.7845 25.2 42.6011C25.2 51.4177 31.7707 58.7123 40.2811 59.8446C48.7914 58.7123 55.3528 51.4177 55.3528 42.6011C55.3528 33.7845 48.7914 26.4899 40.2811 25.3577Z" fill="url(#paint27_linear_36_1072)"/><path d="M25.2 42.6012C25.2 52.2159 32.9865 60.0024 42.6012 60.0024C52.216 60.0024 60.0025 52.2159 60.0025 42.6012V42.3784H25.2V42.6012Z" fill="url(#paint28_linear_36_1072)"/><path d="M42.6012 60.0024C52.2067 60.0024 60.0024 52.2159 60.0024 42.6012C60.0024 32.9864 52.2067 25.2092 42.6012 25.2092H42.3785V60.0024H42.6012Z" fill="url(#paint29_linear_36_1072)"/><path d="M30.2951 54.9073C37.0885 61.7007 48.1047 61.7007 54.8981 54.9073C61.6915 48.1138 61.6915 37.0977 54.8981 30.3043C54.8424 30.2486 54.7867 30.2022 54.7311 30.1465L30.1373 54.7402C30.193 54.7959 30.2394 54.8516 30.2951 54.9073Z" fill="url(#paint30_linear_36_1072)"/><path d="M40.2068 55.7982C46.2191 55.7982 51.093 49.8897 51.093 42.6011C51.093 35.3126 46.2191 29.4041 40.2068 29.4041C34.1945 29.4041 29.3206 35.3126 29.3206 42.6011C29.3206 49.8897 34.1945 55.7982 40.2068 55.7982Z" fill="url(#paint31_linear_36_1072)"/><path d="M51.093 42.6011C51.093 49.8864 46.2207 55.7982 40.2068 55.7982C34.193 55.7982 29.3206 49.8864 29.3206 42.6011V42.4248H51.093V42.6011Z" fill="url(#paint32_linear_36_1072)"/><path d="M40.2068 55.7982C34.193 55.7982 29.3206 49.8957 29.3206 42.6011C29.3206 35.3065 34.193 29.4041 40.2068 29.4041H40.346V55.7889C40.2996 55.7982 40.2532 55.7982 40.2068 55.7982Z" fill="url(#paint33_linear_36_1072)"/><path d="M47.9098 51.9374C43.6592 57.0881 36.7637 57.0881 32.5132 51.9374C28.2626 46.7866 28.2626 38.434 32.5132 33.2832C32.5503 33.2461 32.5781 33.1997 32.6152 33.1626L48.0118 51.8167C47.9747 51.8538 47.9376 51.8909 47.9098 51.9374Z" fill="url(#paint34_linear_36_1072)"/><path d="M42.6012 25.2092C41.8124 25.2092 41.0421 25.2649 40.2811 25.367C48.7914 26.4992 55.3621 33.7938 55.3621 42.6104C55.3621 51.4271 48.8007 58.7217 40.2811 59.8539C41.0421 59.956 41.8124 60.0117 42.6012 60.0117C52.2067 60.0024 60.0024 52.2159 60.0024 42.6012C60.0024 32.9864 52.2067 25.2092 42.6012 25.2092Z" fill="url(#paint35_linear_36_1072)"/><path d="M31.7057 42.6011C31.7057 35.8077 35.947 30.2115 41.404 29.4876C41.0142 29.4319 40.6152 29.4041 40.2068 29.4041C34.193 29.4041 29.3206 35.3065 29.3206 42.6011C29.3206 49.8957 34.193 55.7982 40.2068 55.7982C40.6152 55.7982 41.0142 55.7704 41.404 55.7147C35.9563 55.0001 31.7057 49.4039 31.7057 42.6011Z" fill="url(#paint36_linear_36_1072)"/><path d="M40.4296 49.6915C39.8356 49.6915 39.2788 49.6172 38.7591 49.4594C38.2393 49.311 37.7753 49.1161 37.3855 48.8748C36.9865 48.6335 36.6802 48.3643 36.4575 48.0581C36.2347 47.7518 36.1234 47.4455 36.1234 47.1207C36.1234 46.9444 36.1605 46.7681 36.2347 46.5732C36.309 46.3783 36.4018 46.2019 36.5224 46.0349C36.6431 45.8678 36.7823 45.7286 36.9493 45.6173C37.1164 45.5059 37.2927 45.4502 37.4783 45.4502C37.6918 45.4502 37.896 45.5152 38.0908 45.6358C38.2857 45.7657 38.4992 45.905 38.7219 46.0627C38.9447 46.2205 39.1952 46.3783 39.4737 46.536C39.7521 46.6938 40.0769 46.8052 40.4481 46.8701V43.659C39.9841 43.492 39.5201 43.2971 39.056 43.0836C38.5827 42.8702 38.1651 42.6103 37.7846 42.3133C37.4041 42.0071 37.0978 41.6359 36.8565 41.1904C36.6152 40.7449 36.4946 40.2066 36.4946 39.5756C36.4946 38.9445 36.6059 38.3876 36.8194 37.9236C37.0329 37.4503 37.3298 37.0605 37.6918 36.7357C38.0537 36.4108 38.4714 36.151 38.9447 35.9654C39.418 35.7705 39.9191 35.6406 40.4481 35.557V35.0002C40.4481 34.8517 40.5131 34.7311 40.6523 34.6197C40.7915 34.5083 40.9679 34.4619 41.1999 34.4619C41.3855 34.4619 41.5525 34.5176 41.7103 34.6197C41.8681 34.7311 41.9516 34.8517 41.9516 35.0002V35.5013C42.2579 35.5013 42.6105 35.5292 43.0189 35.5849C43.4272 35.6406 43.817 35.7241 44.179 35.854C44.5409 35.9839 44.8564 36.151 45.107 36.3737C45.3669 36.5965 45.4968 36.8749 45.4968 37.2183C45.4968 37.3482 45.469 37.506 45.4318 37.6916C45.3854 37.8772 45.3112 38.0535 45.2184 38.2299C45.1163 38.4062 44.9864 38.5454 44.8286 38.666C44.6708 38.7867 44.4852 38.8424 44.2718 38.8424C44.114 38.8424 43.9655 38.8053 43.817 38.7403C43.6685 38.6753 43.52 38.6011 43.353 38.5083C43.1859 38.4248 42.991 38.3412 42.7683 38.2577C42.5456 38.1742 42.2764 38.1278 41.9609 38.0999V40.9955C42.4064 41.1625 42.8611 41.3574 43.3251 41.5709C43.7892 41.7843 44.2068 42.0535 44.578 42.3876C44.9585 42.7217 45.2648 43.1115 45.4968 43.5755C45.7381 44.0395 45.8495 44.6057 45.8495 45.2739C45.8495 45.8957 45.7567 46.4525 45.5618 46.9351C45.3669 47.427 45.107 47.8539 44.7636 48.2158C44.4203 48.5778 44.0119 48.8748 43.5386 49.1068C43.0653 49.3388 42.5363 49.4966 41.9516 49.5894V50.1555C41.9516 50.304 41.8681 50.4246 41.7103 50.5267C41.5525 50.6288 41.3762 50.6845 41.1999 50.6845C40.9771 50.6845 40.7915 50.6288 40.6523 50.5267C40.5131 50.4246 40.4481 50.2947 40.4481 50.1462L40.4296 49.6915ZM39.353 39.3064C39.353 39.5941 39.4644 39.8354 39.6964 40.0303C39.9284 40.2252 40.2347 40.4015 40.6152 40.5593V38.1927C40.1697 38.2855 39.8449 38.434 39.6407 38.6382C39.4551 38.8424 39.353 39.0651 39.353 39.3064ZM42.9353 45.6173C42.9353 45.2832 42.824 45.014 42.6012 44.7913C42.3785 44.5778 42.0908 44.3829 41.7289 44.2066V46.8609C42.0722 46.7773 42.3599 46.6474 42.592 46.4432C42.824 46.2576 42.9353 45.9792 42.9353 45.6173Z" fill="url(#paint37_linear_36_1072)"/></g><defs><linearGradient id="paint0_linear_36_1072" x1="8.64598" y1="8.64598" x2="33.215" y2="33.215" gradientUnits="userSpaceOnUse"><stop stop-color="#FE5694"/><stop offset="1" stop-color="#E41F2D"/></linearGradient><linearGradient id="paint1_linear_36_1072" x1="35.6853" y1="35.6854" x2="6.80283" y2="6.80289" gradientUnits="userSpaceOnUse"><stop stop-color="#FE5694"/><stop offset="1" stop-color="#E41F2D"/></linearGradient><linearGradient id="paint2_linear_36_1072" x1="22.2656" y1="25.6373" x2="22.2656" y2="46.9151" gradientUnits="userSpaceOnUse"><stop stop-color="#C41926" stop-opacity="0"/><stop offset="0.363" stop-color="#BF1C27" stop-opacity="0.363"/><stop offset="0.8" stop-color="#B12529" stop-opacity="0.8"/><stop offset="1" stop-color="#A72B2B"/></linearGradient><linearGradient id="paint3_linear_36_1072" x1="31.5669" y1="28.4119" x2="40.7315" y2="34.4671" gradientUnits="userSpaceOnUse"><stop stop-color="#C41926" stop-opacity="0"/><stop offset="0.363" stop-color="#BF1C27" stop-opacity="0.363"/><stop offset="0.8" stop-color="#B12529" stop-opacity="0.8"/><stop offset="1" stop-color="#A72B2B"/></linearGradient><linearGradient id="paint4_linear_36_1072" x1="32.6402" y1="32.6402" x2="13.925" y2="13.925" gradientUnits="userSpaceOnUse"><stop stop-color="#F5FBFF"/><stop offset="1" stop-color="#DBD5EF"/></linearGradient><linearGradient id="paint5_linear_36_1072" x1="20.3252" y1="16.5861" x2="16.2328" y2="4.61188" gradientUnits="userSpaceOnUse"><stop stop-color="#DBD5EF" stop-opacity="0"/><stop offset="0.259" stop-color="#D9D2EC" stop-opacity="0.259"/><stop offset="0.429" stop-color="#D2CAE3" stop-opacity="0.43"/><stop offset="0.575" stop-color="#C6BCD4" stop-opacity="0.575"/><stop offset="0.707" stop-color="#B6A9BF" stop-opacity="0.707"/><stop offset="0.828" stop-color="#A08FA4" stop-opacity="0.828"/><stop offset="0.942" stop-color="#867082" stop-opacity="0.942"/><stop offset="1" stop-color="#765D6E"/></linearGradient><linearGradient id="paint6_linear_36_1072" x1="13.9362" y1="18.2667" x2="6.35766" y2="14.6289" gradientUnits="userSpaceOnUse"><stop stop-color="#DBD5EF" stop-opacity="0"/><stop offset="0.259" stop-color="#D9D2EC" stop-opacity="0.259"/><stop offset="0.429" stop-color="#D2CAE3" stop-opacity="0.43"/><stop offset="0.575" stop-color="#C6BCD4" stop-opacity="0.575"/><stop offset="0.707" stop-color="#B6A9BF" stop-opacity="0.707"/><stop offset="0.828" stop-color="#A08FA4" stop-opacity="0.828"/><stop offset="0.942" stop-color="#867082" stop-opacity="0.942"/><stop offset="1" stop-color="#765D6E"/></linearGradient><linearGradient id="paint7_linear_36_1072" x1="28.9944" y1="20.4547" x2="21.2643" y2="19.5957" gradientUnits="userSpaceOnUse"><stop stop-color="#DBD5EF" stop-opacity="0"/><stop offset="0.259" stop-color="#D9D2EC" stop-opacity="0.259"/><stop offset="0.429" stop-color="#D2CAE3" stop-opacity="0.43"/><stop offset="0.575" stop-color="#C6BCD4" stop-opacity="0.575"/><stop offset="0.707" stop-color="#B6A9BF" stop-opacity="0.707"/><stop offset="0.828" stop-color="#A08FA4" stop-opacity="0.828"/><stop offset="0.942" stop-color="#867082" stop-opacity="0.942"/><stop offset="1" stop-color="#765D6E"/></linearGradient><linearGradient id="paint8_linear_36_1072" x1="28.1613" y1="26.2055" x2="21.189" y2="23.4772" gradientUnits="userSpaceOnUse"><stop stop-color="#DBD5EF" stop-opacity="0"/><stop offset="0.259" stop-color="#D9D2EC" stop-opacity="0.259"/><stop offset="0.429" stop-color="#D2CAE3" stop-opacity="0.43"/><stop offset="0.575" stop-color="#C6BCD4" stop-opacity="0.575"/><stop offset="0.707" stop-color="#B6A9BF" stop-opacity="0.707"/><stop offset="0.828" stop-color="#A08FA4" stop-opacity="0.828"/><stop offset="0.942" stop-color="#867082" stop-opacity="0.942"/><stop offset="1" stop-color="#765D6E"/></linearGradient><linearGradient id="paint9_linear_36_1072" x1="87.3325" y1="53.7286" x2="10.4815" y2="1.03624" gradientUnits="userSpaceOnUse"><stop stop-color="#DBD5EF" stop-opacity="0"/><stop offset="0.259" stop-color="#D9D2EC" stop-opacity="0.259"/><stop offset="0.429" stop-color="#D2CAE3" stop-opacity="0.43"/><stop offset="0.575" stop-color="#C6BCD4" stop-opacity="0.575"/><stop offset="0.707" stop-color="#B6A9BF" stop-opacity="0.707"/><stop offset="0.828" stop-color="#A08FA4" stop-opacity="0.828"/><stop offset="0.942" stop-color="#867082" stop-opacity="0.942"/><stop offset="1" stop-color="#765D6E"/></linearGradient><linearGradient id="paint10_linear_36_1072" x1="75.0667" y1="71.6181" x2="-1.78429" y2="18.9256" gradientUnits="userSpaceOnUse"><stop stop-color="#DBD5EF" stop-opacity="0"/><stop offset="0.259" stop-color="#D9D2EC" stop-opacity="0.259"/><stop offset="0.429" stop-color="#D2CAE3" stop-opacity="0.43"/><stop offset="0.575" stop-color="#C6BCD4" stop-opacity="0.575"/><stop offset="0.707" stop-color="#B6A9BF" stop-opacity="0.707"/><stop offset="0.828" stop-color="#A08FA4" stop-opacity="0.828"/><stop offset="0.942" stop-color="#867082" stop-opacity="0.942"/><stop offset="1" stop-color="#765D6E"/></linearGradient><linearGradient id="paint11_linear_36_1072" x1="85.4045" y1="56.5406" x2="8.55346" y2="3.84816" gradientUnits="userSpaceOnUse"><stop stop-color="#DBD5EF" stop-opacity="0"/><stop offset="0.259" stop-color="#D9D2EC" stop-opacity="0.259"/><stop offset="0.429" stop-color="#D2CAE3" stop-opacity="0.43"/><stop offset="0.575" stop-color="#C6BCD4" stop-opacity="0.575"/><stop offset="0.707" stop-color="#B6A9BF" stop-opacity="0.707"/><stop offset="0.828" stop-color="#A08FA4" stop-opacity="0.828"/><stop offset="0.942" stop-color="#867082" stop-opacity="0.942"/><stop offset="1" stop-color="#765D6E"/></linearGradient><linearGradient id="paint12_linear_36_1072" x1="76.9946" y1="68.8063" x2="0.143639" y2="16.1139" gradientUnits="userSpaceOnUse"><stop stop-color="#DBD5EF" stop-opacity="0"/><stop offset="0.259" stop-color="#D9D2EC" stop-opacity="0.259"/><stop offset="0.429" stop-color="#D2CAE3" stop-opacity="0.43"/><stop offset="0.575" stop-color="#C6BCD4" stop-opacity="0.575"/><stop offset="0.707" stop-color="#B6A9BF" stop-opacity="0.707"/><stop offset="0.828" stop-color="#A08FA4" stop-opacity="0.828"/><stop offset="0.942" stop-color="#867082" stop-opacity="0.942"/><stop offset="1" stop-color="#765D6E"/></linearGradient><linearGradient id="paint13_linear_36_1072" x1="84.4083" y1="57.9934" x2="7.55731" y2="5.30104" gradientUnits="userSpaceOnUse"><stop stop-color="#DBD5EF" stop-opacity="0"/><stop offset="0.259" stop-color="#D9D2EC" stop-opacity="0.259"/><stop offset="0.429" stop-color="#D2CAE3" stop-opacity="0.43"/><stop offset="0.575" stop-color="#C6BCD4" stop-opacity="0.575"/><stop offset="0.707" stop-color="#B6A9BF" stop-opacity="0.707"/><stop offset="0.828" stop-color="#A08FA4" stop-opacity="0.828"/><stop offset="0.942" stop-color="#867082" stop-opacity="0.942"/><stop offset="1" stop-color="#765D6E"/></linearGradient><linearGradient id="paint14_linear_36_1072" x1="77.9909" y1="67.3532" x2="1.13988" y2="14.6608" gradientUnits="userSpaceOnUse"><stop stop-color="#DBD5EF" stop-opacity="0"/><stop offset="0.259" stop-color="#D9D2EC" stop-opacity="0.259"/><stop offset="0.429" stop-color="#D2CAE3" stop-opacity="0.43"/><stop offset="0.575" stop-color="#C6BCD4" stop-opacity="0.575"/><stop offset="0.707" stop-color="#B6A9BF" stop-opacity="0.707"/><stop offset="0.828" stop-color="#A08FA4" stop-opacity="0.828"/><stop offset="0.942" stop-color="#867082" stop-opacity="0.942"/><stop offset="1" stop-color="#765D6E"/></linearGradient><linearGradient id="paint15_linear_36_1072" x1="87.9076" y1="52.8899" x2="11.0566" y2="0.197503" gradientUnits="userSpaceOnUse"><stop stop-color="#DBD5EF" stop-opacity="0"/><stop offset="0.259" stop-color="#D9D2EC" stop-opacity="0.259"/><stop offset="0.429" stop-color="#D2CAE3" stop-opacity="0.43"/><stop offset="0.575" stop-color="#C6BCD4" stop-opacity="0.575"/><stop offset="0.707" stop-color="#B6A9BF" stop-opacity="0.707"/><stop offset="0.828" stop-color="#A08FA4" stop-opacity="0.828"/><stop offset="0.942" stop-color="#867082" stop-opacity="0.942"/><stop offset="1" stop-color="#765D6E"/></linearGradient><linearGradient id="paint16_linear_36_1072" x1="74.4915" y1="72.457" x2="-2.35953" y2="19.7646" gradientUnits="userSpaceOnUse"><stop stop-color="#DBD5EF" stop-opacity="0"/><stop offset="0.259" stop-color="#D9D2EC" stop-opacity="0.259"/><stop offset="0.429" stop-color="#D2CAE3" stop-opacity="0.43"/><stop offset="0.575" stop-color="#C6BCD4" stop-opacity="0.575"/><stop offset="0.707" stop-color="#B6A9BF" stop-opacity="0.707"/><stop offset="0.828" stop-color="#A08FA4" stop-opacity="0.828"/><stop offset="0.942" stop-color="#867082" stop-opacity="0.942"/><stop offset="1" stop-color="#765D6E"/></linearGradient><linearGradient id="paint17_linear_36_1072" x1="88.6134" y1="51.8607" x2="11.7623" y2="-0.831807" gradientUnits="userSpaceOnUse"><stop stop-color="#DBD5EF" stop-opacity="0"/><stop offset="0.259" stop-color="#D9D2EC" stop-opacity="0.259"/><stop offset="0.429" stop-color="#D2CAE3" stop-opacity="0.43"/><stop offset="0.575" stop-color="#C6BCD4" stop-opacity="0.575"/><stop offset="0.707" stop-color="#B6A9BF" stop-opacity="0.707"/><stop offset="0.828" stop-color="#A08FA4" stop-opacity="0.828"/><stop offset="0.942" stop-color="#867082" stop-opacity="0.942"/><stop offset="1" stop-color="#765D6E"/></linearGradient><linearGradient id="paint18_linear_36_1072" x1="73.7859" y1="73.486" x2="-3.06518" y2="20.7936" gradientUnits="userSpaceOnUse"><stop stop-color="#DBD5EF" stop-opacity="0"/><stop offset="0.259" stop-color="#D9D2EC" stop-opacity="0.259"/><stop offset="0.429" stop-color="#D2CAE3" stop-opacity="0.43"/><stop offset="0.575" stop-color="#C6BCD4" stop-opacity="0.575"/><stop offset="0.707" stop-color="#B6A9BF" stop-opacity="0.707"/><stop offset="0.828" stop-color="#A08FA4" stop-opacity="0.828"/><stop offset="0.942" stop-color="#867082" stop-opacity="0.942"/><stop offset="1" stop-color="#765D6E"/></linearGradient><linearGradient id="paint19_linear_36_1072" x1="80.6244" y1="63.5122" x2="3.77343" y2="10.8197" gradientUnits="userSpaceOnUse"><stop stop-color="#DBD5EF" stop-opacity="0"/><stop offset="0.259" stop-color="#D9D2EC" stop-opacity="0.259"/><stop offset="0.429" stop-color="#D2CAE3" stop-opacity="0.43"/><stop offset="0.575" stop-color="#C6BCD4" stop-opacity="0.575"/><stop offset="0.707" stop-color="#B6A9BF" stop-opacity="0.707"/><stop offset="0.828" stop-color="#A08FA4" stop-opacity="0.828"/><stop offset="0.942" stop-color="#867082" stop-opacity="0.942"/><stop offset="1" stop-color="#765D6E"/></linearGradient><linearGradient id="paint20_linear_36_1072" x1="81.7747" y1="61.8345" x2="4.9237" y2="9.14215" gradientUnits="userSpaceOnUse"><stop stop-color="#DBD5EF" stop-opacity="0"/><stop offset="0.259" stop-color="#D9D2EC" stop-opacity="0.259"/><stop offset="0.429" stop-color="#D2CAE3" stop-opacity="0.43"/><stop offset="0.575" stop-color="#C6BCD4" stop-opacity="0.575"/><stop offset="0.707" stop-color="#B6A9BF" stop-opacity="0.707"/><stop offset="0.828" stop-color="#A08FA4" stop-opacity="0.828"/><stop offset="0.942" stop-color="#867082" stop-opacity="0.942"/><stop offset="1" stop-color="#765D6E"/></linearGradient><linearGradient id="paint21_linear_36_1072" x1="21.6509" y1="13.9998" x2="23.3272" y2="13.9998" gradientUnits="userSpaceOnUse"><stop stop-color="#5A5A5A"/><stop offset="1" stop-color="#444444"/></linearGradient><linearGradient id="paint22_linear_36_1072" x1="18.1035" y1="27.2029" x2="19.7113" y2="28.0962" gradientUnits="userSpaceOnUse"><stop stop-color="#5A5A5A"/><stop offset="1" stop-color="#444444"/></linearGradient><linearGradient id="paint23_linear_36_1072" x1="20.9672" y1="20.9671" x2="23.3095" y2="23.3095" gradientUnits="userSpaceOnUse"><stop stop-color="#C8EFFE"/><stop offset="0.103" stop-color="#C0EEFE"/><stop offset="0.258" stop-color="#ABEBFD"/><stop offset="0.446" stop-color="#89E6FD"/><stop offset="0.661" stop-color="#5ADEFC"/><stop offset="0.894" stop-color="#1ED5FB"/><stop offset="1" stop-color="#01D0FB"/></linearGradient><linearGradient id="paint24_linear_36_1072" x1="22.2656" y1="22.1964" x2="22.2656" y2="24.3791" gradientUnits="userSpaceOnUse"><stop stop-color="#0290CF" stop-opacity="0"/><stop offset="0.872" stop-color="#0290CF" stop-opacity="0.872"/><stop offset="1" stop-color="#0290CF"/></linearGradient><linearGradient id="paint25_linear_36_1072" x1="22.208" y1="22.2081" x2="23.8481" y2="23.8482" gradientUnits="userSpaceOnUse"><stop stop-color="#0290CF" stop-opacity="0"/><stop offset="0.872" stop-color="#0290CF" stop-opacity="0.872"/><stop offset="1" stop-color="#0290CF"/></linearGradient><linearGradient id="paint26_linear_36_1072" x1="34.7707" y1="34.7753" x2="43.842" y2="43.8464" gradientUnits="userSpaceOnUse"><stop stop-color="#FEF0AE"/><stop offset="1" stop-color="#FAC600"/></linearGradient><linearGradient id="paint27_linear_36_1072" x1="47.4282" y1="50.1209" x2="50.7752" y2="53.6394" gradientUnits="userSpaceOnUse"><stop stop-color="#FEF0AE" stop-opacity="0"/><stop offset="0.1" stop-color="#FEF0AE" stop-opacity="0.021"/><stop offset="0.224" stop-color="#FEF0AE" stop-opacity="0.081"/><stop offset="0.361" stop-color="#FEF0AE" stop-opacity="0.181"/><stop offset="0.507" stop-color="#FEF0AE" stop-opacity="0.32"/><stop offset="0.66" stop-color="#FEF0AE" stop-opacity="0.498"/><stop offset="0.82" stop-color="#FEF0AE" stop-opacity="0.717"/><stop offset="0.982" stop-color="#FEF0AE" stop-opacity="0.97"/><stop offset="1" stop-color="#FEF0AE"/></linearGradient><linearGradient id="paint28_linear_36_1072" x1="42.5992" y1="48.7026" x2="42.5992" y2="59.8703" gradientUnits="userSpaceOnUse"><stop stop-color="#FE9738" stop-opacity="0"/><stop offset="0.102" stop-color="#FE9738" stop-opacity="0.02"/><stop offset="0.227" stop-color="#FE9738" stop-opacity="0.078"/><stop offset="0.361" stop-color="#FE9738" stop-opacity="0.175"/><stop offset="0.505" stop-color="#FE9738" stop-opacity="0.31"/><stop offset="0.654" stop-color="#FE9738" stop-opacity="0.483"/><stop offset="0.808" stop-color="#FE9738" stop-opacity="0.695"/><stop offset="0.965" stop-color="#FE9738" stop-opacity="0.94"/><stop offset="1" stop-color="#FE9738"/></linearGradient><linearGradient id="paint29_linear_36_1072" x1="48.6981" y1="42.6037" x2="59.8659" y2="42.6037" gradientUnits="userSpaceOnUse"><stop stop-color="#FE9738" stop-opacity="0"/><stop offset="0.102" stop-color="#FE9738" stop-opacity="0.02"/><stop offset="0.227" stop-color="#FE9738" stop-opacity="0.078"/><stop offset="0.361" stop-color="#FE9738" stop-opacity="0.175"/><stop offset="0.505" stop-color="#FE9738" stop-opacity="0.31"/><stop offset="0.654" stop-color="#FE9738" stop-opacity="0.483"/><stop offset="0.808" stop-color="#FE9738" stop-opacity="0.695"/><stop offset="0.965" stop-color="#FE9738" stop-opacity="0.94"/><stop offset="1" stop-color="#FE9738"/></linearGradient><linearGradient id="paint30_linear_36_1072" x1="52.9098" y1="52.9142" x2="55.0296" y2="55.034" gradientUnits="userSpaceOnUse"><stop stop-color="#FE9738" stop-opacity="0"/><stop offset="0.102" stop-color="#FE9738" stop-opacity="0.02"/><stop offset="0.227" stop-color="#FE9738" stop-opacity="0.078"/><stop offset="0.361" stop-color="#FE9738" stop-opacity="0.175"/><stop offset="0.505" stop-color="#FE9738" stop-opacity="0.31"/><stop offset="0.654" stop-color="#FE9738" stop-opacity="0.483"/><stop offset="0.808" stop-color="#FE9738" stop-opacity="0.695"/><stop offset="0.965" stop-color="#FE9738" stop-opacity="0.94"/><stop offset="1" stop-color="#FE9738"/></linearGradient><linearGradient id="paint31_linear_36_1072" x1="22.485" y1="24.8814" x2="50.2935" y2="52.69" gradientUnits="userSpaceOnUse"><stop stop-color="#FEF0AE"/><stop offset="1" stop-color="#FAC600"/></linearGradient><linearGradient id="paint32_linear_36_1072" x1="40.2072" y1="47.2286" x2="40.2072" y2="55.697" gradientUnits="userSpaceOnUse"><stop stop-color="#FE9738" stop-opacity="0"/><stop offset="0.102" stop-color="#FE9738" stop-opacity="0.02"/><stop offset="0.227" stop-color="#FE9738" stop-opacity="0.078"/><stop offset="0.361" stop-color="#FE9738" stop-opacity="0.175"/><stop offset="0.505" stop-color="#FE9738" stop-opacity="0.31"/><stop offset="0.654" stop-color="#FE9738" stop-opacity="0.483"/><stop offset="0.808" stop-color="#FE9738" stop-opacity="0.695"/><stop offset="0.965" stop-color="#FE9738" stop-opacity="0.94"/><stop offset="1" stop-color="#FE9738"/></linearGradient><linearGradient id="paint33_linear_36_1072" x1="36.3899" y1="42.6036" x2="29.4001" y2="42.6036" gradientUnits="userSpaceOnUse"><stop stop-color="#FE9738" stop-opacity="0"/><stop offset="0.102" stop-color="#FE9738" stop-opacity="0.02"/><stop offset="0.227" stop-color="#FE9738" stop-opacity="0.078"/><stop offset="0.361" stop-color="#FE9738" stop-opacity="0.175"/><stop offset="0.505" stop-color="#FE9738" stop-opacity="0.31"/><stop offset="0.654" stop-color="#FE9738" stop-opacity="0.483"/><stop offset="0.808" stop-color="#FE9738" stop-opacity="0.695"/><stop offset="0.965" stop-color="#FE9738" stop-opacity="0.94"/><stop offset="1" stop-color="#FE9738"/></linearGradient><linearGradient id="paint34_linear_36_1072" x1="33.1834" y1="49.6576" x2="31.5711" y2="51.2699" gradientUnits="userSpaceOnUse"><stop stop-color="#FE9738" stop-opacity="0"/><stop offset="0.102" stop-color="#FE9738" stop-opacity="0.02"/><stop offset="0.227" stop-color="#FE9738" stop-opacity="0.078"/><stop offset="0.361" stop-color="#FE9738" stop-opacity="0.175"/><stop offset="0.505" stop-color="#FE9738" stop-opacity="0.31"/><stop offset="0.654" stop-color="#FE9738" stop-opacity="0.483"/><stop offset="0.808" stop-color="#FE9738" stop-opacity="0.695"/><stop offset="0.965" stop-color="#FE9738" stop-opacity="0.94"/><stop offset="1" stop-color="#FE9738"/></linearGradient><linearGradient id="paint35_linear_36_1072" x1="17.3848" y1="20.6595" x2="63.212" y2="57.6045" gradientUnits="userSpaceOnUse"><stop stop-color="#FE9738" stop-opacity="0"/><stop offset="0.102" stop-color="#FE9738" stop-opacity="0.02"/><stop offset="0.227" stop-color="#FE9738" stop-opacity="0.078"/><stop offset="0.361" stop-color="#FE9738" stop-opacity="0.175"/><stop offset="0.505" stop-color="#FE9738" stop-opacity="0.31"/><stop offset="0.654" stop-color="#FE9738" stop-opacity="0.483"/><stop offset="0.808" stop-color="#FE9738" stop-opacity="0.695"/><stop offset="0.965" stop-color="#FE9738" stop-opacity="0.94"/><stop offset="1" stop-color="#FE9738"/></linearGradient><linearGradient id="paint36_linear_36_1072" x1="9.15367" y1="25.2923" x2="48.287" y2="47.6052" gradientUnits="userSpaceOnUse"><stop stop-color="#FE9738" stop-opacity="0"/><stop offset="0.102" stop-color="#FE9738" stop-opacity="0.02"/><stop offset="0.227" stop-color="#FE9738" stop-opacity="0.078"/><stop offset="0.361" stop-color="#FE9738" stop-opacity="0.175"/><stop offset="0.505" stop-color="#FE9738" stop-opacity="0.31"/><stop offset="0.654" stop-color="#FE9738" stop-opacity="0.483"/><stop offset="0.808" stop-color="#FE9738" stop-opacity="0.695"/><stop offset="0.965" stop-color="#FE9738" stop-opacity="0.94"/><stop offset="1" stop-color="#FE9738"/></linearGradient><linearGradient id="paint37_linear_36_1072" x1="-22.56" y1="2.36117" x2="50.5395" y2="48.4941" gradientUnits="userSpaceOnUse"><stop stop-color="#FE9738" stop-opacity="0"/><stop offset="0.102" stop-color="#FE9738" stop-opacity="0.02"/><stop offset="0.227" stop-color="#FE9738" stop-opacity="0.078"/><stop offset="0.361" stop-color="#FE9738" stop-opacity="0.175"/><stop offset="0.505" stop-color="#FE9738" stop-opacity="0.31"/><stop offset="0.654" stop-color="#FE9738" stop-opacity="0.483"/><stop offset="0.808" stop-color="#FE9738" stop-opacity="0.695"/><stop offset="0.965" stop-color="#FE9738" stop-opacity="0.94"/><stop offset="1" stop-color="#FE9738"/></linearGradient><clipPath id="clip0_36_1072"><rect width="60" height="60" fill="white"/></clipPath></defs></svg>