<svg width="60" height="60" viewBox="0 0 60 60" fill="none" xmlns="http://www.w3.org/2000/svg"><g clip-path="url(#clip0_14_137)"><path d="M21.9727 60C34.1078 60 43.9453 50.1625 43.9453 38.0273C43.9453 25.8922 34.1078 16.0547 21.9727 16.0547C9.83749 16.0547 0 25.8922 0 38.0273C0 50.1625 9.83749 60 21.9727 60Z" fill="url(#paint0_linear_14_137)"/><path d="M19.043 16.2539C8.29688 17.6836 0 26.8945 0 38.0273C0 49.1602 8.29688 58.3711 19.043 59.8008C29.7891 58.3711 38.0742 49.1602 38.0742 38.0273C38.0742 26.8945 29.7891 17.6836 19.043 16.2539Z" fill="url(#paint1_linear_14_137)"/><path d="M0 38.0273C0 50.168 9.83203 60 21.9727 60C34.1133 60 43.9453 50.168 43.9453 38.0273V37.7461H0V38.0273Z" fill="url(#paint2_linear_14_137)"/><path d="M21.9727 60C34.1016 60 43.9453 50.168 43.9453 38.0273C43.9453 25.8867 34.1016 16.0664 21.9727 16.0664H21.6914V60H21.9727Z" fill="url(#paint3_linear_14_137)"/><path d="M6.43359 53.5664C15.0117 62.1445 28.9219 62.1445 37.5 53.5664C46.0781 44.9883 46.0781 31.0781 37.5 22.5C37.4297 22.4297 37.3594 22.3711 37.2891 22.3008L6.23438 53.3555C6.30469 53.4258 6.36328 53.4961 6.43359 53.5664Z" fill="url(#paint4_linear_14_137)"/><path d="M18.9492 54.6914C26.541 54.6914 32.6953 47.2306 32.6953 38.0273C32.6953 28.824 26.541 21.3633 18.9492 21.3633C11.3575 21.3633 5.20312 28.824 5.20312 38.0273C5.20312 47.2306 11.3575 54.6914 18.9492 54.6914Z" fill="url(#paint5_linear_14_137)"/><path d="M32.6953 38.0273C32.6953 47.2266 26.543 54.6914 18.9492 54.6914C11.3555 54.6914 5.20312 47.2266 5.20312 38.0273V37.8047H32.6953V38.0273Z" fill="url(#paint6_linear_14_137)"/><path d="M18.9492 54.6914C11.3555 54.6914 5.20312 47.2383 5.20312 38.0273C5.20312 28.8164 11.3555 21.3633 18.9492 21.3633H19.125V54.6797C19.0664 54.6914 19.0078 54.6914 18.9492 54.6914Z" fill="url(#paint7_linear_14_137)"/><path d="M28.6758 49.8164C23.3086 56.3203 14.6016 56.3203 9.23438 49.8164C3.86719 43.3125 3.86719 32.7656 9.23438 26.2617C9.28125 26.2148 9.31641 26.1562 9.36328 26.1094L28.8047 49.6641C28.7578 49.7109 28.7109 49.7578 28.6758 49.8164Z" fill="url(#paint8_linear_14_137)"/><path d="M21.9727 16.0664C20.9766 16.0664 20.0039 16.1367 19.043 16.2656C29.7891 17.6953 38.0859 26.9062 38.0859 38.0391C38.0859 49.1719 29.8008 58.3828 19.043 59.8125C20.0039 59.9414 20.9766 60.0117 21.9727 60.0117C34.1016 60 43.9453 50.168 43.9453 38.0273C43.9453 25.8867 34.1016 16.0664 21.9727 16.0664Z" fill="url(#paint9_linear_14_137)"/><path d="M8.21484 38.0273C8.21484 29.4492 13.5703 22.3828 20.4609 21.4687C19.9688 21.3984 19.4648 21.3633 18.9492 21.3633C11.3555 21.3633 5.20312 28.8164 5.20312 38.0273C5.20312 47.2383 11.3555 54.6914 18.9492 54.6914C19.4648 54.6914 19.9688 54.6562 20.4609 54.5859C13.582 53.6836 8.21484 46.6172 8.21484 38.0273Z" fill="url(#paint10_linear_14_137)"/><path d="M19.2305 46.9805C18.4805 46.9805 17.7773 46.8867 17.1211 46.6875C16.4648 46.5 15.8789 46.2539 15.3867 45.9492C14.8828 45.6445 14.4961 45.3047 14.2148 44.918C13.9336 44.5312 13.793 44.1445 13.793 43.7344C13.793 43.5117 13.8398 43.2891 13.9336 43.043C14.0273 42.7969 14.1445 42.5742 14.2969 42.3633C14.4492 42.1523 14.625 41.9766 14.8359 41.8359C15.0469 41.6953 15.2695 41.625 15.5039 41.625C15.7734 41.625 16.0312 41.707 16.2773 41.8594C16.5234 42.0234 16.793 42.1992 17.0742 42.3984C17.3555 42.5977 17.6719 42.7969 18.0234 42.9961C18.375 43.1953 18.7852 43.3359 19.2539 43.418V39.3633C18.668 39.1523 18.082 38.9063 17.4961 38.6367C16.8984 38.3672 16.3711 38.0391 15.8906 37.6641C15.4102 37.2773 15.0234 36.8086 14.7188 36.2461C14.4141 35.6836 14.2617 35.0039 14.2617 34.207C14.2617 33.4102 14.4023 32.707 14.6719 32.1211C14.9414 31.5234 15.3164 31.0312 15.7734 30.6211C16.2305 30.2109 16.7578 29.8828 17.3555 29.6484C17.9531 29.4023 18.5859 29.2383 19.2539 29.1328V28.4297C19.2539 28.2422 19.3359 28.0898 19.5117 27.9492C19.6875 27.8086 19.9102 27.75 20.2031 27.75C20.4375 27.75 20.6484 27.8203 20.8477 27.9492C21.0469 28.0898 21.1523 28.2422 21.1523 28.4297V29.0625C21.5391 29.0625 21.9844 29.0977 22.5 29.168C23.0156 29.2383 23.5078 29.3438 23.9648 29.5078C24.4219 29.6719 24.8203 29.8828 25.1367 30.1641C25.4648 30.4453 25.6289 30.7969 25.6289 31.2305C25.6289 31.3945 25.5938 31.5938 25.5469 31.8281C25.4883 32.0625 25.3945 32.2852 25.2773 32.5078C25.1484 32.7305 24.9844 32.9063 24.7852 33.0586C24.5859 33.2109 24.3516 33.2812 24.082 33.2812C23.8828 33.2812 23.6953 33.2344 23.5078 33.1523C23.3203 33.0703 23.1328 32.9766 22.9219 32.8594C22.7109 32.7539 22.4648 32.6484 22.1836 32.543C21.9023 32.4375 21.5625 32.3789 21.1641 32.3437V36C21.7266 36.2109 22.3008 36.457 22.8867 36.7266C23.4727 36.9961 24 37.3359 24.4688 37.7578C24.9492 38.1797 25.3359 38.6719 25.6289 39.2578C25.9336 39.8438 26.0742 40.5586 26.0742 41.4023C26.0742 42.1875 25.957 42.8906 25.7109 43.5C25.4648 44.1211 25.1367 44.6602 24.7031 45.1172C24.2695 45.5742 23.7539 45.9492 23.1563 46.2422C22.5586 46.5352 21.8906 46.7344 21.1523 46.8516V47.5664C21.1523 47.7539 21.0469 47.9062 20.8477 48.0352C20.6484 48.1641 20.4258 48.2344 20.2031 48.2344C19.9219 48.2344 19.6875 48.1641 19.5117 48.0352C19.3359 47.9062 19.2539 47.7422 19.2539 47.5547L19.2305 46.9805ZM17.8711 33.8672C17.8711 34.2305 18.0117 34.5352 18.3047 34.7812C18.5977 35.0273 18.9844 35.25 19.4648 35.4492V32.4609C18.9023 32.5781 18.4922 32.7656 18.2344 33.0234C18 33.2812 17.8711 33.5625 17.8711 33.8672ZM22.3945 41.8359C22.3945 41.4141 22.2539 41.0742 21.9727 40.793C21.6914 40.5234 21.3281 40.2773 20.8711 40.0547V43.4062C21.3047 43.3008 21.668 43.1367 21.9609 42.8789C22.2539 42.6445 22.3945 42.293 22.3945 41.8359Z" fill="url(#paint11_linear_14_137)"/><path d="M43.9453 38.0273C43.9453 26.0391 34.3359 16.2891 22.4062 16.0664V24.7148L42.7734 45.0937C43.5352 42.8789 43.9453 40.5 43.9453 38.0273Z" fill="url(#paint12_linear_14_137)"/><path d="M33.7734 19.5V33.3633L43.3828 42.9727C43.7461 41.3906 43.9453 39.7383 43.9453 38.0391C43.9453 30.2461 39.8906 23.4023 33.7734 19.5Z" fill="url(#paint13_linear_14_137)"/><path d="M57.5273 0H24.082C22.7109 0 21.6094 1.10156 21.6094 2.47266V22.8984C21.6094 24.2695 22.7109 25.3711 24.082 25.3711H27.2461C27.9727 25.3711 28.6523 25.7344 29.0508 26.3438L33.4453 32.9883C34.043 33.9023 35.3789 33.9023 35.9883 32.9883L40.3828 26.3438C40.7812 25.7344 41.4609 25.3711 42.1875 25.3711H57.5391C58.9102 25.3711 60.0117 24.2695 60.0117 22.8984V2.47266C60 1.10156 58.8984 0 57.5273 0Z" fill="url(#paint14_linear_14_137)"/><path d="M42.1758 25.3711H57.5273C58.8984 25.3711 60 24.2695 60 22.8984V18.1289H45.9844L40.3711 26.3438C40.7695 25.7344 41.4492 25.3711 42.1758 25.3711Z" fill="url(#paint15_linear_14_137)"/><path d="M21.6094 18.1289V22.8984C21.6094 24.2695 22.7109 25.3711 24.082 25.3711H27.2461C27.9727 25.3711 28.6523 25.7344 29.0508 26.3438L23.4375 18.1289H21.6094Z" fill="url(#paint16_linear_14_137)"/><path d="M57.5273 0H46.8398V25.3711H57.5273C58.8984 25.3711 60 24.2695 60 22.8984V2.47266C60 1.10156 58.8984 0 57.5273 0Z" fill="url(#paint17_linear_14_137)"/><path d="M50.3906 4.93359L32.2383 16.8398L41.0742 25.6758C41.4023 25.4766 41.7773 25.3711 42.1758 25.3711H57.5273C58.8984 25.3711 60 24.2695 60 22.8984V14.5312L50.3906 4.93359Z" fill="url(#paint18_linear_14_137)"/><path d="M52.3828 11.25C52.125 12.668 51.5391 14.0508 50.6016 15.3984C49.4648 17.0391 47.8359 18.2695 45.9961 19.0313C44.5312 19.6289 43.2305 20.5313 42.1875 21.6328C41.4375 22.418 40.1719 22.418 39.4219 21.6328C38.3789 20.5313 37.0781 19.6289 35.6133 19.0313C33.7617 18.2695 32.1445 17.0391 31.0078 15.3984C30.0703 14.0508 29.4844 12.668 29.2266 11.25C28.8633 9.22266 29.3789 7.16016 30.6445 5.57812C31.8164 4.11328 33.4688 3.25781 35.2969 3.16406C35.4023 3.16406 35.5195 3.15234 35.625 3.15234C37.3477 3.15234 38.9648 3.82031 40.1953 5.01563C40.418 5.23828 40.6172 5.46094 40.8047 5.70703C40.9922 5.46094 41.1914 5.23828 41.4141 5.01563C42.6445 3.80859 44.2617 3.15234 45.9844 3.15234C46.0898 3.15234 46.207 3.15234 46.3125 3.16406C48.1523 3.25781 49.8047 4.11328 50.9648 5.57812C52.2305 7.14844 52.7461 9.22266 52.3828 11.25Z" fill="url(#paint19_radial_14_137)"/><path d="M52.3828 11.25C52.125 12.668 51.5391 14.0508 50.6016 15.3984C49.4648 17.0391 47.8359 18.2695 45.9961 19.0313C44.5312 19.6289 43.2305 20.5313 42.1875 21.6328C41.4375 22.418 40.1719 22.418 39.4219 21.6328C38.3789 20.5313 37.0781 19.6289 35.6133 19.0313C33.7617 18.2695 32.1445 17.0391 31.0078 15.3984C30.0703 14.0508 29.4844 12.668 29.2266 11.25C28.8633 9.22266 29.3789 7.16016 30.6445 5.57812C31.8164 4.11328 33.4688 3.25781 35.2969 3.16406C35.4023 3.16406 35.5195 3.15234 35.625 3.15234C37.3477 3.15234 38.9648 3.82031 40.1953 5.01563C40.418 5.23828 40.6172 5.46094 40.8047 5.70703C40.9922 5.46094 41.1914 5.23828 41.4141 5.01563C42.6445 3.80859 44.2617 3.15234 45.9844 3.15234C46.0898 3.15234 46.207 3.15234 46.3125 3.16406C48.1523 3.25781 49.8047 4.11328 50.9648 5.57812C52.2305 7.14844 52.7461 9.22266 52.3828 11.25Z" fill="url(#paint20_radial_14_137)"/><path d="M46.3125 3.16406C46.207 3.16406 46.0898 3.15234 45.9844 3.15234C44.2617 3.15234 42.6445 3.82031 41.4141 5.01563C41.1914 5.23828 40.9922 5.46094 40.8047 5.70703C40.6172 5.46094 40.418 5.23828 40.1953 5.01563C39.6802 4.51262 39.0864 4.09701 38.4375 3.78516V20.707C38.7891 21 39.1289 21.3047 39.4336 21.6328C40.1836 22.418 41.4492 22.418 42.1992 21.6328C43.2422 20.5313 44.543 19.6289 46.0078 19.0313C47.8594 18.2695 49.4766 17.0391 50.6133 15.3984C51.5391 14.0508 52.1367 12.668 52.3945 11.25C52.7578 9.22266 52.2422 7.16016 50.9766 5.57812C49.8047 4.10156 48.1523 3.24609 46.3125 3.16406Z" fill="url(#paint21_linear_14_137)"/><path d="M30.1523 13.9688C30.3984 14.4492 30.6797 14.918 31.0078 15.3867C32.1445 17.0273 33.7734 18.2578 35.6133 19.0195C37.0781 19.6172 38.3789 20.5195 39.4219 21.6211C40.1719 22.4062 41.4375 22.4062 42.1875 21.6211C43.2305 20.5195 44.5313 19.6172 45.9961 19.0195C47.8477 18.2578 49.4648 17.0273 50.6016 15.3867C50.9297 14.918 51.2109 14.4492 51.4453 13.9688H30.1523Z" fill="url(#paint22_linear_14_137)"/><path d="M46.3125 3.16406C46.207 3.16406 46.0898 3.15234 45.9844 3.15234C44.2617 3.15234 42.6445 3.82031 41.4141 5.01563C41.1914 5.23828 40.9922 5.46094 40.8047 5.70703C40.6172 5.46094 40.418 5.23828 40.1953 5.01563C39.6802 4.51262 39.0864 4.09701 38.4375 3.78516V20.707C38.7891 21 39.1289 21.3047 39.4336 21.6328C40.1836 22.418 41.4492 22.418 42.1992 21.6328C43.2422 20.5313 44.543 19.6289 46.0078 19.0313C47.8594 18.2695 49.4766 17.0391 50.6133 15.3984C51.5391 14.0508 52.1367 12.668 52.3945 11.25C52.7578 9.22266 52.2422 7.16016 50.9766 5.57812C49.8047 4.10156 48.1523 3.24609 46.3125 3.16406Z" fill="url(#paint23_linear_14_137)"/><path d="M40.1953 5.01562C38.9648 3.80859 37.3477 3.15234 35.625 3.15234C35.5195 3.15234 35.4023 3.15234 35.2969 3.16406C33.457 3.25781 31.8047 4.11328 30.6445 5.57812C29.3789 7.14844 28.8633 9.22266 29.2266 11.25C29.4844 12.6914 30.0938 14.0977 31.0547 15.4688L40.8047 5.71875C40.6172 5.46094 40.418 5.23828 40.1953 5.01562Z" fill="url(#paint24_linear_14_137)"/></g><defs><linearGradient id="paint0_linear_14_137" x1="12.085" y1="28.1455" x2="23.5393" y2="39.5998" gradientUnits="userSpaceOnUse"><stop stop-color="#FEF0AE"/><stop offset="1" stop-color="#FAC600"/></linearGradient><linearGradient id="paint1_linear_14_137" x1="28.0677" y1="47.5226" x2="32.2939" y2="51.9655" gradientUnits="userSpaceOnUse"><stop stop-color="#FEF0AE" stop-opacity="0"/><stop offset="0.1" stop-color="#FEF0AE" stop-opacity="0.021"/><stop offset="0.224" stop-color="#FEF0AE" stop-opacity="0.081"/><stop offset="0.361" stop-color="#FEF0AE" stop-opacity="0.181"/><stop offset="0.507" stop-color="#FEF0AE" stop-opacity="0.32"/><stop offset="0.66" stop-color="#FEF0AE" stop-opacity="0.498"/><stop offset="0.82" stop-color="#FEF0AE" stop-opacity="0.717"/><stop offset="0.982" stop-color="#FEF0AE" stop-opacity="0.97"/><stop offset="1" stop-color="#FEF0AE"/></linearGradient><linearGradient id="paint2_linear_14_137" x1="21.9701" y1="45.7317" x2="21.9701" y2="59.8332" gradientUnits="userSpaceOnUse"><stop stop-color="#FE9738" stop-opacity="0"/><stop offset="0.102" stop-color="#FE9738" stop-opacity="0.02"/><stop offset="0.227" stop-color="#FE9738" stop-opacity="0.078"/><stop offset="0.361" stop-color="#FE9738" stop-opacity="0.175"/><stop offset="0.505" stop-color="#FE9738" stop-opacity="0.31"/><stop offset="0.654" stop-color="#FE9738" stop-opacity="0.483"/><stop offset="0.808" stop-color="#FE9738" stop-opacity="0.695"/><stop offset="0.965" stop-color="#FE9738" stop-opacity="0.94"/><stop offset="1" stop-color="#FE9738"/></linearGradient><linearGradient id="paint3_linear_14_137" x1="29.6713" y1="38.0305" x2="43.7729" y2="38.0305" gradientUnits="userSpaceOnUse"><stop stop-color="#FE9738" stop-opacity="0"/><stop offset="0.102" stop-color="#FE9738" stop-opacity="0.02"/><stop offset="0.227" stop-color="#FE9738" stop-opacity="0.078"/><stop offset="0.361" stop-color="#FE9738" stop-opacity="0.175"/><stop offset="0.505" stop-color="#FE9738" stop-opacity="0.31"/><stop offset="0.654" stop-color="#FE9738" stop-opacity="0.483"/><stop offset="0.808" stop-color="#FE9738" stop-opacity="0.695"/><stop offset="0.965" stop-color="#FE9738" stop-opacity="0.94"/><stop offset="1" stop-color="#FE9738"/></linearGradient><linearGradient id="paint4_linear_14_137" x1="34.9894" y1="51.0498" x2="37.6661" y2="53.7265" gradientUnits="userSpaceOnUse"><stop stop-color="#FE9738" stop-opacity="0"/><stop offset="0.102" stop-color="#FE9738" stop-opacity="0.02"/><stop offset="0.227" stop-color="#FE9738" stop-opacity="0.078"/><stop offset="0.361" stop-color="#FE9738" stop-opacity="0.175"/><stop offset="0.505" stop-color="#FE9738" stop-opacity="0.31"/><stop offset="0.654" stop-color="#FE9738" stop-opacity="0.483"/><stop offset="0.808" stop-color="#FE9738" stop-opacity="0.695"/><stop offset="0.965" stop-color="#FE9738" stop-opacity="0.94"/><stop offset="1" stop-color="#FE9738"/></linearGradient><linearGradient id="paint5_linear_14_137" x1="-3.42832" y1="15.6525" x2="31.6857" y2="50.7667" gradientUnits="userSpaceOnUse"><stop stop-color="#FEF0AE"/><stop offset="1" stop-color="#FAC600"/></linearGradient><linearGradient id="paint6_linear_14_137" x1="18.9497" y1="43.8704" x2="18.9497" y2="54.5636" gradientUnits="userSpaceOnUse"><stop stop-color="#FE9738" stop-opacity="0"/><stop offset="0.102" stop-color="#FE9738" stop-opacity="0.02"/><stop offset="0.227" stop-color="#FE9738" stop-opacity="0.078"/><stop offset="0.361" stop-color="#FE9738" stop-opacity="0.175"/><stop offset="0.505" stop-color="#FE9738" stop-opacity="0.31"/><stop offset="0.654" stop-color="#FE9738" stop-opacity="0.483"/><stop offset="0.808" stop-color="#FE9738" stop-opacity="0.695"/><stop offset="0.965" stop-color="#FE9738" stop-opacity="0.94"/><stop offset="1" stop-color="#FE9738"/></linearGradient><linearGradient id="paint7_linear_14_137" x1="14.1295" y1="38.0305" x2="5.30344" y2="38.0305" gradientUnits="userSpaceOnUse"><stop stop-color="#FE9738" stop-opacity="0"/><stop offset="0.102" stop-color="#FE9738" stop-opacity="0.02"/><stop offset="0.227" stop-color="#FE9738" stop-opacity="0.078"/><stop offset="0.361" stop-color="#FE9738" stop-opacity="0.175"/><stop offset="0.505" stop-color="#FE9738" stop-opacity="0.31"/><stop offset="0.654" stop-color="#FE9738" stop-opacity="0.483"/><stop offset="0.808" stop-color="#FE9738" stop-opacity="0.695"/><stop offset="0.965" stop-color="#FE9738" stop-opacity="0.94"/><stop offset="1" stop-color="#FE9738"/></linearGradient><linearGradient id="paint8_linear_14_137" x1="10.0807" y1="46.9377" x2="8.0448" y2="48.9736" gradientUnits="userSpaceOnUse"><stop stop-color="#FE9738" stop-opacity="0"/><stop offset="0.102" stop-color="#FE9738" stop-opacity="0.02"/><stop offset="0.227" stop-color="#FE9738" stop-opacity="0.078"/><stop offset="0.361" stop-color="#FE9738" stop-opacity="0.175"/><stop offset="0.505" stop-color="#FE9738" stop-opacity="0.31"/><stop offset="0.654" stop-color="#FE9738" stop-opacity="0.483"/><stop offset="0.808" stop-color="#FE9738" stop-opacity="0.695"/><stop offset="0.965" stop-color="#FE9738" stop-opacity="0.94"/><stop offset="1" stop-color="#FE9738"/></linearGradient><linearGradient id="paint9_linear_14_137" x1="-9.86836" y1="10.3214" x2="47.998" y2="56.9721" gradientUnits="userSpaceOnUse"><stop stop-color="#FE9738" stop-opacity="0"/><stop offset="0.102" stop-color="#FE9738" stop-opacity="0.02"/><stop offset="0.227" stop-color="#FE9738" stop-opacity="0.078"/><stop offset="0.361" stop-color="#FE9738" stop-opacity="0.175"/><stop offset="0.505" stop-color="#FE9738" stop-opacity="0.31"/><stop offset="0.654" stop-color="#FE9738" stop-opacity="0.483"/><stop offset="0.808" stop-color="#FE9738" stop-opacity="0.695"/><stop offset="0.965" stop-color="#FE9738" stop-opacity="0.94"/><stop offset="1" stop-color="#FE9738"/></linearGradient><linearGradient id="paint10_linear_14_137" x1="-20.2618" y1="16.1713" x2="29.1522" y2="44.346" gradientUnits="userSpaceOnUse"><stop stop-color="#FE9738" stop-opacity="0"/><stop offset="0.102" stop-color="#FE9738" stop-opacity="0.02"/><stop offset="0.227" stop-color="#FE9738" stop-opacity="0.078"/><stop offset="0.361" stop-color="#FE9738" stop-opacity="0.175"/><stop offset="0.505" stop-color="#FE9738" stop-opacity="0.31"/><stop offset="0.654" stop-color="#FE9738" stop-opacity="0.483"/><stop offset="0.808" stop-color="#FE9738" stop-opacity="0.695"/><stop offset="0.965" stop-color="#FE9738" stop-opacity="0.94"/><stop offset="1" stop-color="#FE9738"/></linearGradient><linearGradient id="paint11_linear_14_137" x1="-60.3069" y1="-12.7839" x2="31.9964" y2="45.4685" gradientUnits="userSpaceOnUse"><stop stop-color="#FE9738" stop-opacity="0"/><stop offset="0.102" stop-color="#FE9738" stop-opacity="0.02"/><stop offset="0.227" stop-color="#FE9738" stop-opacity="0.078"/><stop offset="0.361" stop-color="#FE9738" stop-opacity="0.175"/><stop offset="0.505" stop-color="#FE9738" stop-opacity="0.31"/><stop offset="0.654" stop-color="#FE9738" stop-opacity="0.483"/><stop offset="0.808" stop-color="#FE9738" stop-opacity="0.695"/><stop offset="0.965" stop-color="#FE9738" stop-opacity="0.94"/><stop offset="1" stop-color="#FE9738"/></linearGradient><linearGradient id="paint12_linear_14_137" x1="33.186" y1="29.8591" x2="30.9584" y2="22.1734" gradientUnits="userSpaceOnUse"><stop stop-color="#FE9738" stop-opacity="0"/><stop offset="0.102" stop-color="#FE9738" stop-opacity="0.02"/><stop offset="0.227" stop-color="#FE9738" stop-opacity="0.078"/><stop offset="0.361" stop-color="#FE9738" stop-opacity="0.175"/><stop offset="0.505" stop-color="#FE9738" stop-opacity="0.31"/><stop offset="0.654" stop-color="#FE9738" stop-opacity="0.483"/><stop offset="0.808" stop-color="#FE9738" stop-opacity="0.695"/><stop offset="0.965" stop-color="#FE9738" stop-opacity="0.94"/><stop offset="1" stop-color="#FE9738"/></linearGradient><linearGradient id="paint13_linear_14_137" x1="42.1384" y1="33.2998" x2="36.9589" y2="30.2923" gradientUnits="userSpaceOnUse"><stop stop-color="#FE9738" stop-opacity="0"/><stop offset="0.102" stop-color="#FE9738" stop-opacity="0.02"/><stop offset="0.227" stop-color="#FE9738" stop-opacity="0.078"/><stop offset="0.361" stop-color="#FE9738" stop-opacity="0.175"/><stop offset="0.505" stop-color="#FE9738" stop-opacity="0.31"/><stop offset="0.654" stop-color="#FE9738" stop-opacity="0.483"/><stop offset="0.808" stop-color="#FE9738" stop-opacity="0.695"/><stop offset="0.965" stop-color="#FE9738" stop-opacity="0.94"/><stop offset="1" stop-color="#FE9738"/></linearGradient><linearGradient id="paint14_linear_14_137" x1="37.8937" y1="4.27969" x2="46.2532" y2="28.429" gradientUnits="userSpaceOnUse"><stop stop-color="#FD4755"/><stop offset="1" stop-color="#A72B2B"/></linearGradient><linearGradient id="paint15_linear_14_137" x1="50.1836" y1="21.8471" x2="50.1836" y2="25.0714" gradientUnits="userSpaceOnUse"><stop stop-color="#C41926" stop-opacity="0"/><stop offset="0.162" stop-color="#BF1A26" stop-opacity="0.051"/><stop offset="0.371" stop-color="#B21E26" stop-opacity="0.198"/><stop offset="0.605" stop-color="#9D2426" stop-opacity="0.441"/><stop offset="0.856" stop-color="#802D26" stop-opacity="0.776"/><stop offset="1" stop-color="#6D3326"/></linearGradient><linearGradient id="paint16_linear_14_137" x1="25.3291" y1="23.0753" x2="25.3291" y2="25.5946" gradientUnits="userSpaceOnUse"><stop stop-color="#C41926" stop-opacity="0"/><stop offset="0.162" stop-color="#BF1A26" stop-opacity="0.051"/><stop offset="0.371" stop-color="#B21E26" stop-opacity="0.198"/><stop offset="0.605" stop-color="#9D2426" stop-opacity="0.441"/><stop offset="0.856" stop-color="#802D26" stop-opacity="0.776"/><stop offset="1" stop-color="#6D3326"/></linearGradient><linearGradient id="paint17_linear_14_137" x1="55.845" y1="12.6871" x2="60.2105" y2="12.6871" gradientUnits="userSpaceOnUse"><stop stop-color="#C41926" stop-opacity="0"/><stop offset="0.162" stop-color="#BF1A26" stop-opacity="0.051"/><stop offset="0.371" stop-color="#B21E26" stop-opacity="0.198"/><stop offset="0.605" stop-color="#9D2426" stop-opacity="0.441"/><stop offset="0.856" stop-color="#802D26" stop-opacity="0.776"/><stop offset="1" stop-color="#6D3326"/></linearGradient><linearGradient id="paint18_linear_14_137" x1="52.6591" y1="22.9384" x2="43.3862" y2="12.6629" gradientUnits="userSpaceOnUse"><stop stop-color="#C41926" stop-opacity="0"/><stop offset="0.162" stop-color="#BF1A26" stop-opacity="0.051"/><stop offset="0.371" stop-color="#B21E26" stop-opacity="0.198"/><stop offset="0.605" stop-color="#9D2426" stop-opacity="0.441"/><stop offset="0.856" stop-color="#802D26" stop-opacity="0.776"/><stop offset="1" stop-color="#6D3326"/></linearGradient><radialGradient id="paint19_radial_14_137" cx="0" cy="0" r="1" gradientUnits="userSpaceOnUse" gradientTransform="translate(38.8699 8.32488) scale(12.2275 12.2275)"><stop stop-color="#F3FAFF"/><stop offset="1" stop-color="#D5DAF3"/></radialGradient><radialGradient id="paint20_radial_14_137" cx="0" cy="0" r="1" gradientUnits="userSpaceOnUse" gradientTransform="translate(36.9581 6.76242) scale(18.0246 18.0246)"><stop stop-color="#DBD5EF" stop-opacity="0"/><stop offset="0.766" stop-color="#765D6E"/><stop offset="0.811" stop-color="#796072" stop-opacity="0.968"/><stop offset="0.854" stop-color="#836C7E" stop-opacity="0.871"/><stop offset="0.896" stop-color="#937F93" stop-opacity="0.709"/><stop offset="0.937" stop-color="#AA9BB0" stop-opacity="0.481"/><stop offset="0.978" stop-color="#C7BED6" stop-opacity="0.191"/><stop offset="1" stop-color="#DBD5EF" stop-opacity="0"/></radialGradient><linearGradient id="paint21_linear_14_137" x1="38.6614" y1="10.2605" x2="51.2352" y2="16.0937" gradientUnits="userSpaceOnUse"><stop stop-color="#DBD5EF" stop-opacity="0"/><stop offset="0.267" stop-color="#D8D2EC" stop-opacity="0.023"/><stop offset="0.443" stop-color="#D1C9E2" stop-opacity="0.098"/><stop offset="0.593" stop-color="#C4B9D1" stop-opacity="0.225"/><stop offset="0.729" stop-color="#B2A4BA" stop-opacity="0.405"/><stop offset="0.855" stop-color="#9A889C" stop-opacity="0.638"/><stop offset="0.971" stop-color="#7E6678" stop-opacity="0.92"/><stop offset="1" stop-color="#765D6E"/></linearGradient><linearGradient id="paint22_linear_14_137" x1="40.8042" y1="15.6889" x2="40.8042" y2="22.1854" gradientUnits="userSpaceOnUse"><stop stop-color="#DBD5EF" stop-opacity="0"/><stop offset="0.267" stop-color="#D8D2EC" stop-opacity="0.023"/><stop offset="0.443" stop-color="#D1C9E2" stop-opacity="0.098"/><stop offset="0.593" stop-color="#C4B9D1" stop-opacity="0.225"/><stop offset="0.729" stop-color="#B2A4BA" stop-opacity="0.405"/><stop offset="0.855" stop-color="#9A889C" stop-opacity="0.638"/><stop offset="0.971" stop-color="#7E6678" stop-opacity="0.92"/><stop offset="1" stop-color="#765D6E"/></linearGradient><linearGradient id="paint23_linear_14_137" x1="45.5952" y1="13.8381" x2="51.2987" y2="18.5047" gradientUnits="userSpaceOnUse"><stop stop-color="white" stop-opacity="0"/><stop offset="0.092" stop-color="white" stop-opacity="0.024"/><stop offset="0.218" stop-color="white" stop-opacity="0.092"/><stop offset="0.362" stop-color="white" stop-opacity="0.203"/><stop offset="0.52" stop-color="white" stop-opacity="0.359"/><stop offset="0.69" stop-color="white" stop-opacity="0.559"/><stop offset="0.866" stop-color="white" stop-opacity="0.798"/><stop offset="1" stop-color="white"/></linearGradient><linearGradient id="paint24_linear_14_137" x1="35.8473" y1="5.48637" x2="38.7689" y2="2.46891" gradientUnits="userSpaceOnUse"><stop stop-color="#DBD5EF" stop-opacity="0"/><stop offset="0.267" stop-color="#D8D2EC" stop-opacity="0.023"/><stop offset="0.443" stop-color="#D1C9E2" stop-opacity="0.098"/><stop offset="0.593" stop-color="#C4B9D1" stop-opacity="0.225"/><stop offset="0.729" stop-color="#B2A4BA" stop-opacity="0.405"/><stop offset="0.855" stop-color="#9A889C" stop-opacity="0.638"/><stop offset="0.971" stop-color="#7E6678" stop-opacity="0.92"/><stop offset="1" stop-color="#765D6E"/></linearGradient><clipPath id="clip0_14_137"><rect width="60" height="60" fill="white"/></clipPath></defs></svg>