<svg width="60" height="60" viewBox="0 0 60 60" fill="none" xmlns="http://www.w3.org/2000/svg"><path d="M42.4102 38.7304L34.3945 31.535C33.0117 30.2929 30.8203 31.2772 30.8203 33.1288V37.0663H18.1406C17.4492 37.0663 16.8867 37.6288 16.8867 38.3202V42.3163C16.8867 43.0077 17.4492 43.5702 18.1406 43.5702H30.8203V47.5077C30.8203 49.3593 33.0117 50.3436 34.3945 49.1014L42.4102 41.9061C43.3594 41.0741 43.3594 39.5858 42.4102 38.7304Z" fill="url(#paint0_linear_172_376)"/><path d="M42.4102 38.7305L38.8594 35.543L30.8203 43.582V47.5195C30.8203 49.3711 33.0117 50.3555 34.3945 49.1133L42.4102 41.918C43.3594 41.0742 43.3594 39.5859 42.4102 38.7305Z" fill="url(#paint1_linear_172_376)"/><path d="M30.8203 43.582V47.5195C30.8203 49.3711 33.0117 50.3555 34.3945 49.1133L40.5586 43.582H30.8203Z" fill="url(#paint2_linear_172_376)"/><path d="M30.8203 37.078V33.1405C30.8203 31.2889 33.0117 30.3046 34.3945 31.5468L40.5586 37.078H30.8203Z" fill="url(#paint3_linear_172_376)"/><path d="M14.5078 44.5078C22.5203 44.5078 29.0156 38.0124 29.0156 30C29.0156 21.9876 22.5203 15.4922 14.5078 15.4922C6.49537 15.4922 0 21.9876 0 30C0 38.0124 6.49537 44.5078 14.5078 44.5078Z" fill="url(#paint4_linear_172_376)"/><path d="M14.5078 41.7305C20.9864 41.7305 26.2383 36.4786 26.2383 30C26.2383 23.5214 20.9864 18.2695 14.5078 18.2695C8.02925 18.2695 2.77734 23.5214 2.77734 30C2.77734 36.4786 8.02925 41.7305 14.5078 41.7305Z" fill="url(#paint5_linear_172_376)"/><path d="M4.93359 30C4.93359 23.8828 9.60938 18.8672 15.5859 18.3281C15.2344 18.293 14.8711 18.2812 14.5078 18.2812C8.02734 18.2812 2.77734 23.5313 2.77734 30.0117C2.77734 36.4922 8.02734 41.7422 14.5078 41.7422C14.8711 41.7422 15.2344 41.7305 15.5859 41.6953C9.60938 41.1328 4.93359 36.1172 4.93359 30Z" fill="url(#paint6_linear_172_376)"/><path d="M0 30C0 38.0156 6.49219 44.5078 14.5078 44.5078C22.5234 44.5078 29.0156 38.0156 29.0156 30C29.0156 28.957 28.8984 27.9375 28.6992 26.9531H0.316406C0.117188 27.9375 0 28.957 0 30Z" fill="url(#paint7_linear_172_376)"/><path d="M14.5078 44.5078C22.5234 44.5078 29.0156 38.0156 29.0156 30C29.0156 21.9844 22.5234 15.4922 14.5078 15.4922C13.4648 15.4922 12.4453 15.6094 11.4609 15.8086V44.1914C12.457 44.4023 13.4648 44.5078 14.5078 44.5078Z" fill="url(#paint8_linear_172_376)"/><path d="M4.25391 40.2656C9.92578 45.9375 19.1133 45.9375 24.7734 40.2656C30.4453 34.5938 30.4453 25.4062 24.7734 19.7461C24.0352 19.0078 23.2383 18.3633 22.3945 17.8242L2.33203 37.8867C2.87109 38.7305 3.51562 39.5273 4.25391 40.2656Z" fill="url(#paint9_linear_172_376)"/><path d="M18.3633 30.8086C18.0938 30.3281 17.7539 29.9062 17.3438 29.5781C16.9336 29.2383 16.5 28.9687 16.0195 28.7578C15.7969 28.6523 15.5742 28.5586 15.3633 28.4648V25.8281C15.5625 25.8398 15.7383 25.875 15.8906 25.9219C16.125 25.9922 16.3242 26.0625 16.4883 26.1445C16.6523 26.2266 16.8047 26.2969 16.9453 26.3672C17.0742 26.4375 17.2266 26.4727 17.3906 26.4727C17.5781 26.4727 17.7422 26.4258 17.8711 26.3203C18.0117 26.2148 18.1172 26.0859 18.2109 25.9336C18.293 25.7812 18.3633 25.6289 18.3984 25.4648C18.4336 25.3008 18.457 25.1602 18.457 25.043C18.457 24.7031 18.3164 24.4336 18.0469 24.2344C17.7773 24.0352 17.4492 23.8828 17.0742 23.7773C16.6992 23.6719 16.3125 23.6016 15.9258 23.5664C15.7148 23.543 15.5273 23.5312 15.3633 23.5195V23.1914C15.3633 22.7227 14.9766 22.3359 14.5078 22.3359C14.0391 22.3359 13.6523 22.7227 13.6523 23.1914V23.6484C13.5703 23.6719 13.4766 23.6836 13.3945 23.707C12.8672 23.8359 12.3867 24.0469 11.9648 24.3281C11.543 24.6094 11.2148 24.9844 10.9453 25.4414C10.6875 25.8984 10.5586 26.4492 10.5586 27.1055C10.5586 27.7852 10.6992 28.3594 10.9687 28.8047C11.2383 29.2617 11.5781 29.6367 11.9883 29.9531C12.3984 30.2695 12.832 30.5273 13.3125 30.7383C13.4297 30.7852 13.5469 30.8438 13.6523 30.8906V33.9492C13.5469 33.9141 13.4414 33.8906 13.3477 33.8437C13.0664 33.7148 12.8203 33.5625 12.5977 33.3984C12.3867 33.2344 12.1875 33.0938 12.0117 32.9531C11.8359 32.8242 11.6367 32.7539 11.4258 32.7539C11.2617 32.7539 11.1094 32.8008 10.9687 32.9062C10.8281 33 10.6992 33.1289 10.5938 33.2695C10.4883 33.4102 10.4063 33.5742 10.3477 33.7383C10.2891 33.9023 10.2539 34.0664 10.2539 34.2187C10.2539 34.5117 10.3594 34.793 10.582 35.0625C10.8047 35.332 11.0977 35.5781 11.4844 35.7773C11.8711 35.9883 12.3164 36.1523 12.8203 36.2812C13.0898 36.3516 13.3711 36.3984 13.6523 36.4336V36.7969C13.6523 37.2656 14.0391 37.6523 14.5078 37.6523C14.9766 37.6523 15.3633 37.2656 15.3633 36.7969V36.4102C15.6445 36.3633 15.9141 36.3047 16.1602 36.2227C16.6875 36.0586 17.1562 35.8125 17.543 35.4844C17.9297 35.1562 18.2344 34.7578 18.4453 34.2773C18.6562 33.7969 18.7617 33.2461 18.7617 32.6133C18.7734 31.8984 18.6445 31.2891 18.3633 30.8086ZM13.2656 26.8477C13.2656 26.5898 13.3945 26.3555 13.6523 26.1445V27.5625C13.3945 27.3633 13.2656 27.1289 13.2656 26.8477ZM15.9141 33.4336C15.8203 33.5742 15.6797 33.6914 15.5273 33.7852C15.4805 33.8086 15.4219 33.8437 15.3633 33.8672V31.8047C15.4688 31.875 15.5625 31.957 15.6563 32.0273C15.9258 32.2617 16.0664 32.5547 16.0664 32.9062C16.0664 33.1172 16.0195 33.293 15.9141 33.4336Z" fill="url(#paint10_linear_172_376)"/><path d="M17.5898 18.0702L25.6055 10.8749C26.9883 9.6327 29.1797 10.6171 29.1797 12.4686V16.4061H41.8594C42.5508 16.4061 43.1133 16.9686 43.1133 17.66V21.6561C43.1133 22.3475 42.5508 22.91 41.8594 22.91H29.1797V26.8475C29.1797 28.6991 26.9883 29.6835 25.6055 28.4413L17.5898 21.246C16.6406 20.4139 16.6406 18.9257 17.5898 18.0702Z" fill="url(#paint11_linear_172_376)"/><path d="M17.5898 18.0702L25.6055 10.8749C26.9883 9.6327 29.1797 10.6171 29.1797 12.4686V16.4061H41.8594C42.5508 16.4061 43.1133 16.9686 43.1133 17.66V21.6561C43.1133 22.3475 42.5508 22.91 41.8594 22.91H29.1797V26.8475C29.1797 28.6991 26.9883 29.6835 25.6055 28.4413L17.5898 21.246C16.6406 20.4139 16.6406 18.9257 17.5898 18.0702Z" fill="url(#paint12_linear_172_376)"/><path d="M29.1797 22.9219V26.8594C29.1797 28.7109 26.9883 29.6953 25.6055 28.4531L19.4414 22.9219H29.1797Z" fill="url(#paint13_linear_172_376)"/><path d="M29.1797 16.4179V12.4804C29.1797 10.6288 26.9883 9.64441 25.6055 10.8866L19.4414 16.4179H29.1797Z" fill="url(#paint14_linear_172_376)"/><path d="M45.4922 44.5078C53.5046 44.5078 60 38.0124 60 30C60 21.9876 53.5046 15.4922 45.4922 15.4922C37.4797 15.4922 30.9844 21.9876 30.9844 30C30.9844 38.0124 37.4797 44.5078 45.4922 44.5078Z" fill="url(#paint15_linear_172_376)"/><path d="M45.4922 41.7305C51.9707 41.7305 57.2227 36.4786 57.2227 30C57.2227 23.5214 51.9707 18.2695 45.4922 18.2695C39.0136 18.2695 33.7617 23.5214 33.7617 30C33.7617 36.4786 39.0136 41.7305 45.4922 41.7305Z" fill="url(#paint16_linear_172_376)"/><path d="M35.9062 30C35.9062 23.8828 40.582 18.8672 46.5586 18.3281C46.207 18.293 45.8438 18.2812 45.4805 18.2812C39 18.2812 33.75 23.5313 33.75 30.0117C33.75 36.4922 39 41.7422 45.4805 41.7422C45.8438 41.7422 46.207 41.7305 46.5586 41.6953C40.5937 41.1328 35.9062 36.1172 35.9062 30Z" fill="url(#paint17_linear_172_376)"/><path d="M30.9727 30C30.9727 38.0156 37.4648 44.5078 45.4805 44.5078C53.4961 44.5078 59.9883 38.0156 59.9883 30C59.9883 28.957 59.8711 27.9375 59.6719 26.9531H31.3008C31.0898 27.9375 30.9727 28.957 30.9727 30Z" fill="url(#paint18_linear_172_376)"/><path d="M45.4922 44.5078C53.5078 44.5078 60 38.0156 60 30C60 21.9844 53.5078 15.4922 45.4922 15.4922C44.4492 15.4922 43.4297 15.6094 42.4453 15.8086V44.1914C43.4297 44.4023 44.4492 44.5078 45.4922 44.5078Z" fill="url(#paint19_linear_172_376)"/><path d="M35.2266 40.2656C40.8984 45.9375 50.0859 45.9375 55.7461 40.2656C61.418 34.5938 61.418 25.4062 55.7461 19.7461C55.0078 19.0078 54.2109 18.3633 53.3672 17.8242L33.3047 37.8867C33.8438 38.7305 34.4883 39.5273 35.2266 40.2656Z" fill="url(#paint20_linear_172_376)"/><path d="M50.3086 31.7344C50.0859 31.5703 49.7461 31.4883 49.2656 31.4883C48.9141 31.4883 48.6094 31.5469 48.3516 31.6523C48.0937 31.7578 47.9531 31.9805 47.9297 32.3086C47.918 32.4844 47.8945 32.6719 47.8711 32.8711C47.8477 33.0703 47.7773 33.2578 47.6719 33.4336C47.5664 33.6094 47.4141 33.75 47.2148 33.8672C47.0156 33.9844 46.7461 34.043 46.3945 34.043C45.8906 34.043 45.4922 33.9023 45.2227 33.6211C44.9531 33.3398 44.8125 32.9062 44.8125 32.3086V32.168H45.9375C46.4062 32.168 46.793 31.7812 46.793 31.3125C46.793 30.8438 46.4062 30.457 45.9375 30.457H44.8125V29.5547H45.9375C46.4062 29.5547 46.793 29.168 46.793 28.6992C46.793 28.2305 46.4062 27.8437 45.9375 27.8437H44.8125V27.7031C44.8125 27.1172 44.9531 26.6719 45.2227 26.3906C45.4922 26.1094 45.8789 25.9687 46.3828 25.9687C46.7578 25.9687 47.0391 26.0273 47.2383 26.1562C47.4375 26.2734 47.5898 26.4258 47.6953 26.5898C47.8008 26.7539 47.8594 26.9297 47.8828 27.1055C47.9062 27.2812 47.918 27.4219 47.918 27.5391C47.9414 27.8555 48.082 28.0664 48.3398 28.1836C48.5977 28.3008 48.9023 28.3594 49.2773 28.3594C49.7461 28.3594 50.0859 28.2773 50.2969 28.1133C50.5195 27.9492 50.625 27.5977 50.625 27.082C50.625 26.5312 50.5195 26.0391 50.2969 25.6055C50.0742 25.1719 49.7695 24.8203 49.3711 24.5156C48.9727 24.2227 48.5156 24 47.9883 23.8477C47.4609 23.6953 46.8867 23.625 46.2656 23.625C45.7031 23.625 45.1641 23.6953 44.6602 23.8477C44.1562 23.9883 43.7109 24.2344 43.3359 24.5625C42.9492 24.8906 42.6562 25.3125 42.4336 25.8398C42.2109 26.3555 42.1055 26.9883 42.1055 27.7383V27.8789H41.1914C40.7227 27.8789 40.3359 28.2656 40.3359 28.7344C40.3359 29.2031 40.7227 29.5898 41.1914 29.5898H42.1055V30.4922H41.1914C40.7227 30.4922 40.3359 30.8789 40.3359 31.3477C40.3359 31.8164 40.7227 32.2031 41.1914 32.2031H42.1055V32.3437C42.1055 33.0937 42.2109 33.7266 42.4336 34.2422C42.6562 34.7578 42.9492 35.1797 43.3359 35.5078C43.7227 35.8359 44.1562 36.0703 44.6602 36.2227C45.1641 36.3633 45.7031 36.4453 46.2656 36.4453C46.8867 36.4453 47.4609 36.3633 47.9883 36.1992C48.5156 36.0352 48.9727 35.8008 49.3711 35.4961C49.7695 35.1914 50.0742 34.8047 50.2969 34.3594C50.5195 33.9023 50.625 33.3984 50.625 32.8125C50.6367 32.25 50.5312 31.9102 50.3086 31.7344Z" fill="url(#paint21_linear_172_376)"/><path d="M42.4102 41.9296L34.3945 49.1249C33.0117 50.3671 30.8203 49.3827 30.8203 47.5311V43.5936H19.6406C21.5156 42.8905 23.2734 41.7772 24.7734 40.2772C25.7461 39.3046 26.5547 38.2264 27.1875 37.0897H30.8203V33.1522C30.8203 31.3007 33.0117 30.3163 34.3945 31.5585L42.4102 38.7538C43.3594 39.5858 43.3594 41.0741 42.4102 41.9296Z" fill="url(#paint22_linear_172_376)"/><path d="M42.4102 41.9296L34.3945 49.1249C33.0117 50.3671 30.8203 49.3827 30.8203 47.5311V43.5936H19.6406C21.5156 42.8905 23.2734 41.7772 24.7734 40.2772C25.7461 39.3046 26.5547 38.2264 27.1875 37.0897H30.8203V33.1522C30.8203 31.3007 33.0117 30.3163 34.3945 31.5585L42.4102 38.7538C43.3594 39.5858 43.3594 41.0741 42.4102 41.9296Z" fill="url(#paint23_linear_172_376)"/><path d="M42.4102 38.7305L38.8594 35.543L30.8203 43.582V47.5195C30.8203 49.3711 33.0117 50.3555 34.3945 49.1133L42.4102 41.918C43.3594 41.0742 43.3594 39.5859 42.4102 38.7305Z" fill="url(#paint24_linear_172_376)"/><path d="M30.8203 43.582V47.5195C30.8203 49.3711 33.0117 50.3555 34.3945 49.1133L40.5586 43.582H30.8203Z" fill="url(#paint25_linear_172_376)"/><path d="M30.8203 37.078V33.1405C30.8203 31.2889 33.0117 30.3046 34.3945 31.5468L40.5586 37.078H30.8203Z" fill="url(#paint26_linear_172_376)"/><defs><linearGradient id="paint0_linear_172_376" x1="26.7879" y1="34.9886" x2="33.7218" y2="48.4384" gradientUnits="userSpaceOnUse"><stop stop-color="#00F2A6"/><stop offset="0.245" stop-color="#00EDA3"/><stop offset="0.499" stop-color="#01E19A"/><stop offset="0.757" stop-color="#04CC8C"/><stop offset="1" stop-color="#07B27B"/></linearGradient><linearGradient id="paint1_linear_172_376" x1="36.2293" y1="43.0478" x2="38.4014" y2="45.6375" gradientUnits="userSpaceOnUse"><stop stop-color="#07B27B" stop-opacity="0"/><stop offset="0.191" stop-color="#06AF78" stop-opacity="0.04"/><stop offset="0.389" stop-color="#06A671" stop-opacity="0.16"/><stop offset="0.59" stop-color="#059766" stop-opacity="0.359"/><stop offset="0.794" stop-color="#038255" stop-opacity="0.638"/><stop offset="0.997" stop-color="#026841" stop-opacity="0.994"/><stop offset="1" stop-color="#026841"/></linearGradient><linearGradient id="paint2_linear_172_376" x1="32.473" y1="46.6264" x2="30.468" y2="46.6264" gradientUnits="userSpaceOnUse"><stop stop-color="#9CF8D2" stop-opacity="0"/><stop offset="0.122" stop-color="#9CF8D2" stop-opacity="0.017"/><stop offset="0.249" stop-color="#9CF8D2" stop-opacity="0.067"/><stop offset="0.378" stop-color="#9CF8D2" stop-opacity="0.151"/><stop offset="0.508" stop-color="#9CF8D2" stop-opacity="0.268"/><stop offset="0.639" stop-color="#9CF8D2" stop-opacity="0.42"/><stop offset="0.772" stop-color="#9CF8D2" stop-opacity="0.605"/><stop offset="0.903" stop-color="#9CF8D2" stop-opacity="0.819"/><stop offset="1" stop-color="#9CF8D2"/></linearGradient><linearGradient id="paint3_linear_172_376" x1="33.4754" y1="34.0314" x2="30.6329" y2="34.0314" gradientUnits="userSpaceOnUse"><stop stop-color="#9CF8D2" stop-opacity="0"/><stop offset="0.122" stop-color="#9CF8D2" stop-opacity="0.017"/><stop offset="0.249" stop-color="#9CF8D2" stop-opacity="0.067"/><stop offset="0.378" stop-color="#9CF8D2" stop-opacity="0.151"/><stop offset="0.508" stop-color="#9CF8D2" stop-opacity="0.268"/><stop offset="0.639" stop-color="#9CF8D2" stop-opacity="0.42"/><stop offset="0.772" stop-color="#9CF8D2" stop-opacity="0.605"/><stop offset="0.903" stop-color="#9CF8D2" stop-opacity="0.819"/><stop offset="1" stop-color="#9CF8D2"/></linearGradient><linearGradient id="paint4_linear_172_376" x1="5.20336" y1="20.6909" x2="23.1682" y2="38.6556" gradientUnits="userSpaceOnUse"><stop stop-color="#FEF0AE"/><stop offset="0.147" stop-color="#FDEEA9"/><stop offset="0.299" stop-color="#FDEB9D"/><stop offset="0.453" stop-color="#FDE688"/><stop offset="0.609" stop-color="#FCDF6B"/><stop offset="0.767" stop-color="#FBD646"/><stop offset="0.923" stop-color="#FACC18"/><stop offset="1" stop-color="#FAC600"/></linearGradient><linearGradient id="paint5_linear_172_376" x1="-10.1107" y1="5.3768" x2="29.0118" y2="44.4991" gradientUnits="userSpaceOnUse"><stop stop-color="#FE9738" stop-opacity="0"/><stop offset="0.121" stop-color="#FE9738" stop-opacity="0.016"/><stop offset="0.246" stop-color="#FE9738" stop-opacity="0.065"/><stop offset="0.373" stop-color="#FE9738" stop-opacity="0.147"/><stop offset="0.502" stop-color="#FE9738" stop-opacity="0.262"/><stop offset="0.632" stop-color="#FE9738" stop-opacity="0.41"/><stop offset="0.762" stop-color="#FE9738" stop-opacity="0.59"/><stop offset="0.892" stop-color="#FE9738" stop-opacity="0.8"/><stop offset="1" stop-color="#FE9738"/></linearGradient><linearGradient id="paint6_linear_172_376" x1="-9.18187" y1="8.22152" x2="25.4206" y2="42.8241" gradientUnits="userSpaceOnUse"><stop stop-color="#FE9738" stop-opacity="0"/><stop offset="0.121" stop-color="#FE9738" stop-opacity="0.016"/><stop offset="0.246" stop-color="#FE9738" stop-opacity="0.065"/><stop offset="0.373" stop-color="#FE9738" stop-opacity="0.147"/><stop offset="0.502" stop-color="#FE9738" stop-opacity="0.262"/><stop offset="0.632" stop-color="#FE9738" stop-opacity="0.41"/><stop offset="0.762" stop-color="#FE9738" stop-opacity="0.59"/><stop offset="0.892" stop-color="#FE9738" stop-opacity="0.8"/><stop offset="1" stop-color="#FE9738"/></linearGradient><linearGradient id="paint7_linear_172_376" x1="14.5125" y1="32.257" x2="14.5125" y2="45.4982" gradientUnits="userSpaceOnUse"><stop stop-color="#FE9738" stop-opacity="0"/><stop offset="0.121" stop-color="#FE9738" stop-opacity="0.016"/><stop offset="0.246" stop-color="#FE9738" stop-opacity="0.065"/><stop offset="0.373" stop-color="#FE9738" stop-opacity="0.147"/><stop offset="0.502" stop-color="#FE9738" stop-opacity="0.262"/><stop offset="0.632" stop-color="#FE9738" stop-opacity="0.41"/><stop offset="0.762" stop-color="#FE9738" stop-opacity="0.59"/><stop offset="0.892" stop-color="#FE9738" stop-opacity="0.8"/><stop offset="1" stop-color="#FE9738"/></linearGradient><linearGradient id="paint8_linear_172_376" x1="16.7695" y1="30" x2="30.0107" y2="30" gradientUnits="userSpaceOnUse"><stop stop-color="#FE9738" stop-opacity="0"/><stop offset="0.121" stop-color="#FE9738" stop-opacity="0.016"/><stop offset="0.246" stop-color="#FE9738" stop-opacity="0.065"/><stop offset="0.373" stop-color="#FE9738" stop-opacity="0.147"/><stop offset="0.502" stop-color="#FE9738" stop-opacity="0.262"/><stop offset="0.632" stop-color="#FE9738" stop-opacity="0.41"/><stop offset="0.762" stop-color="#FE9738" stop-opacity="0.59"/><stop offset="0.892" stop-color="#FE9738" stop-opacity="0.8"/><stop offset="1" stop-color="#FE9738"/></linearGradient><linearGradient id="paint9_linear_172_376" x1="20.7762" y1="36.2636" x2="25.7296" y2="41.217" gradientUnits="userSpaceOnUse"><stop stop-color="#F5FBFF" stop-opacity="0"/><stop offset="0.12" stop-color="#F5FBFF" stop-opacity="0.016"/><stop offset="0.245" stop-color="#F5FBFF" stop-opacity="0.065"/><stop offset="0.372" stop-color="#F5FBFF" stop-opacity="0.147"/><stop offset="0.501" stop-color="#F5FBFF" stop-opacity="0.261"/><stop offset="0.63" stop-color="#F5FBFF" stop-opacity="0.408"/><stop offset="0.761" stop-color="#F5FBFF" stop-opacity="0.588"/><stop offset="0.89" stop-color="#F5FBFF" stop-opacity="0.797"/><stop offset="1" stop-color="#F5FBFF"/></linearGradient><linearGradient id="paint10_linear_172_376" x1="-1.05434" y1="14.2814" x2="22.2041" y2="37.5398" gradientUnits="userSpaceOnUse"><stop stop-color="#FE9738" stop-opacity="0"/><stop offset="0.121" stop-color="#FE9738" stop-opacity="0.016"/><stop offset="0.246" stop-color="#FE9738" stop-opacity="0.065"/><stop offset="0.373" stop-color="#FE9738" stop-opacity="0.147"/><stop offset="0.502" stop-color="#FE9738" stop-opacity="0.262"/><stop offset="0.632" stop-color="#FE9738" stop-opacity="0.41"/><stop offset="0.762" stop-color="#FE9738" stop-opacity="0.59"/><stop offset="0.892" stop-color="#FE9738" stop-opacity="0.8"/><stop offset="1" stop-color="#FE9738"/></linearGradient><linearGradient id="paint11_linear_172_376" x1="25.6952" y1="9.71824" x2="32.9632" y2="25.0059" gradientUnits="userSpaceOnUse"><stop stop-color="#FF4565"/><stop offset="0.238" stop-color="#F53A60"/><stop offset="0.649" stop-color="#DB1E54"/><stop offset="1" stop-color="#C00148"/></linearGradient><linearGradient id="paint12_linear_172_376" x1="30.2204" y1="19.1854" x2="34.6481" y2="23.0282" gradientUnits="userSpaceOnUse"><stop stop-color="#C41926" stop-opacity="0"/><stop offset="0.186" stop-color="#C01926" stop-opacity="0.038"/><stop offset="0.38" stop-color="#B61C26" stop-opacity="0.152"/><stop offset="0.576" stop-color="#A62126" stop-opacity="0.343"/><stop offset="0.775" stop-color="#8F2826" stop-opacity="0.609"/><stop offset="0.973" stop-color="#713126" stop-opacity="0.949"/><stop offset="1" stop-color="#6D3326"/></linearGradient><linearGradient id="paint13_linear_172_376" x1="25.7917" y1="25.9685" x2="29.8036" y2="25.9685" gradientUnits="userSpaceOnUse"><stop stop-color="#C41926" stop-opacity="0"/><stop offset="0.186" stop-color="#C01926" stop-opacity="0.038"/><stop offset="0.38" stop-color="#B61C26" stop-opacity="0.152"/><stop offset="0.576" stop-color="#A62126" stop-opacity="0.343"/><stop offset="0.775" stop-color="#8F2826" stop-opacity="0.609"/><stop offset="0.973" stop-color="#713126" stop-opacity="0.949"/><stop offset="1" stop-color="#6D3326"/></linearGradient><linearGradient id="paint14_linear_172_376" x1="25.7917" y1="13.3734" x2="29.8036" y2="13.3734" gradientUnits="userSpaceOnUse"><stop stop-color="#C41926" stop-opacity="0"/><stop offset="0.186" stop-color="#C01926" stop-opacity="0.038"/><stop offset="0.38" stop-color="#B61C26" stop-opacity="0.152"/><stop offset="0.576" stop-color="#A62126" stop-opacity="0.343"/><stop offset="0.775" stop-color="#8F2826" stop-opacity="0.609"/><stop offset="0.973" stop-color="#713126" stop-opacity="0.949"/><stop offset="1" stop-color="#6D3326"/></linearGradient><linearGradient id="paint15_linear_172_376" x1="36.1784" y1="20.6909" x2="54.1432" y2="38.6556" gradientUnits="userSpaceOnUse"><stop stop-color="#FEF0AE"/><stop offset="0.147" stop-color="#FDEEA9"/><stop offset="0.299" stop-color="#FDEB9D"/><stop offset="0.453" stop-color="#FDE688"/><stop offset="0.609" stop-color="#FCDF6B"/><stop offset="0.767" stop-color="#FBD646"/><stop offset="0.923" stop-color="#FACC18"/><stop offset="1" stop-color="#FAC600"/></linearGradient><linearGradient id="paint16_linear_172_376" x1="20.8643" y1="5.3768" x2="59.9866" y2="44.4991" gradientUnits="userSpaceOnUse"><stop stop-color="#FE9738" stop-opacity="0"/><stop offset="0.121" stop-color="#FE9738" stop-opacity="0.016"/><stop offset="0.246" stop-color="#FE9738" stop-opacity="0.065"/><stop offset="0.373" stop-color="#FE9738" stop-opacity="0.147"/><stop offset="0.502" stop-color="#FE9738" stop-opacity="0.262"/><stop offset="0.632" stop-color="#FE9738" stop-opacity="0.41"/><stop offset="0.762" stop-color="#FE9738" stop-opacity="0.59"/><stop offset="0.892" stop-color="#FE9738" stop-opacity="0.8"/><stop offset="1" stop-color="#FE9738"/></linearGradient><linearGradient id="paint17_linear_172_376" x1="21.7931" y1="8.22152" x2="56.3956" y2="42.8241" gradientUnits="userSpaceOnUse"><stop stop-color="#FE9738" stop-opacity="0"/><stop offset="0.121" stop-color="#FE9738" stop-opacity="0.016"/><stop offset="0.246" stop-color="#FE9738" stop-opacity="0.065"/><stop offset="0.373" stop-color="#FE9738" stop-opacity="0.147"/><stop offset="0.502" stop-color="#FE9738" stop-opacity="0.262"/><stop offset="0.632" stop-color="#FE9738" stop-opacity="0.41"/><stop offset="0.762" stop-color="#FE9738" stop-opacity="0.59"/><stop offset="0.892" stop-color="#FE9738" stop-opacity="0.8"/><stop offset="1" stop-color="#FE9738"/></linearGradient><linearGradient id="paint18_linear_172_376" x1="45.4875" y1="32.257" x2="45.4875" y2="45.4982" gradientUnits="userSpaceOnUse"><stop stop-color="#FE9738" stop-opacity="0"/><stop offset="0.121" stop-color="#FE9738" stop-opacity="0.016"/><stop offset="0.246" stop-color="#FE9738" stop-opacity="0.065"/><stop offset="0.373" stop-color="#FE9738" stop-opacity="0.147"/><stop offset="0.502" stop-color="#FE9738" stop-opacity="0.262"/><stop offset="0.632" stop-color="#FE9738" stop-opacity="0.41"/><stop offset="0.762" stop-color="#FE9738" stop-opacity="0.59"/><stop offset="0.892" stop-color="#FE9738" stop-opacity="0.8"/><stop offset="1" stop-color="#FE9738"/></linearGradient><linearGradient id="paint19_linear_172_376" x1="47.7445" y1="30" x2="60.9857" y2="30" gradientUnits="userSpaceOnUse"><stop stop-color="#FE9738" stop-opacity="0"/><stop offset="0.121" stop-color="#FE9738" stop-opacity="0.016"/><stop offset="0.246" stop-color="#FE9738" stop-opacity="0.065"/><stop offset="0.373" stop-color="#FE9738" stop-opacity="0.147"/><stop offset="0.502" stop-color="#FE9738" stop-opacity="0.262"/><stop offset="0.632" stop-color="#FE9738" stop-opacity="0.41"/><stop offset="0.762" stop-color="#FE9738" stop-opacity="0.59"/><stop offset="0.892" stop-color="#FE9738" stop-opacity="0.8"/><stop offset="1" stop-color="#FE9738"/></linearGradient><linearGradient id="paint20_linear_172_376" x1="52.3916" y1="36.9041" x2="57.345" y2="41.8575" gradientUnits="userSpaceOnUse"><stop stop-color="#F5FBFF" stop-opacity="0"/><stop offset="0.12" stop-color="#F5FBFF" stop-opacity="0.016"/><stop offset="0.245" stop-color="#F5FBFF" stop-opacity="0.065"/><stop offset="0.372" stop-color="#F5FBFF" stop-opacity="0.147"/><stop offset="0.501" stop-color="#F5FBFF" stop-opacity="0.261"/><stop offset="0.63" stop-color="#F5FBFF" stop-opacity="0.408"/><stop offset="0.761" stop-color="#F5FBFF" stop-opacity="0.588"/><stop offset="0.89" stop-color="#F5FBFF" stop-opacity="0.797"/><stop offset="1" stop-color="#F5FBFF"/></linearGradient><linearGradient id="paint21_linear_172_376" x1="45.4875" y1="-130.978" x2="45.4875" y2="79.3858" gradientUnits="userSpaceOnUse"><stop stop-color="#FE9738" stop-opacity="0"/><stop offset="0.121" stop-color="#FE9738" stop-opacity="0.016"/><stop offset="0.246" stop-color="#FE9738" stop-opacity="0.065"/><stop offset="0.373" stop-color="#FE9738" stop-opacity="0.147"/><stop offset="0.502" stop-color="#FE9738" stop-opacity="0.262"/><stop offset="0.632" stop-color="#FE9738" stop-opacity="0.41"/><stop offset="0.762" stop-color="#FE9738" stop-opacity="0.59"/><stop offset="0.892" stop-color="#FE9738" stop-opacity="0.8"/><stop offset="1" stop-color="#FE9738"/></linearGradient><linearGradient id="paint22_linear_172_376" x1="28.2" y1="35.5303" x2="34.648" y2="48.038" gradientUnits="userSpaceOnUse"><stop stop-color="#00F2A6"/><stop offset="0.245" stop-color="#00EDA3"/><stop offset="0.499" stop-color="#01E19A"/><stop offset="0.757" stop-color="#04CC8C"/><stop offset="1" stop-color="#07B27B"/></linearGradient><linearGradient id="paint23_linear_172_376" x1="30.2708" y1="39.8464" x2="25.1749" y2="36.2543" gradientUnits="userSpaceOnUse"><stop stop-color="#07B27B" stop-opacity="0"/><stop offset="0.191" stop-color="#06AF78" stop-opacity="0.04"/><stop offset="0.389" stop-color="#06A671" stop-opacity="0.16"/><stop offset="0.59" stop-color="#059766" stop-opacity="0.359"/><stop offset="0.794" stop-color="#038255" stop-opacity="0.638"/><stop offset="0.997" stop-color="#026841" stop-opacity="0.994"/><stop offset="1" stop-color="#026841"/></linearGradient><linearGradient id="paint24_linear_172_376" x1="36.2293" y1="43.0478" x2="38.4014" y2="45.6375" gradientUnits="userSpaceOnUse"><stop stop-color="#07B27B" stop-opacity="0"/><stop offset="0.191" stop-color="#06AF78" stop-opacity="0.04"/><stop offset="0.389" stop-color="#06A671" stop-opacity="0.16"/><stop offset="0.59" stop-color="#059766" stop-opacity="0.359"/><stop offset="0.794" stop-color="#038255" stop-opacity="0.638"/><stop offset="0.997" stop-color="#026841" stop-opacity="0.994"/><stop offset="1" stop-color="#026841"/></linearGradient><linearGradient id="paint25_linear_172_376" x1="32.473" y1="46.6264" x2="30.468" y2="46.6264" gradientUnits="userSpaceOnUse"><stop stop-color="#9CF8D2" stop-opacity="0"/><stop offset="0.122" stop-color="#9CF8D2" stop-opacity="0.017"/><stop offset="0.249" stop-color="#9CF8D2" stop-opacity="0.067"/><stop offset="0.378" stop-color="#9CF8D2" stop-opacity="0.151"/><stop offset="0.508" stop-color="#9CF8D2" stop-opacity="0.268"/><stop offset="0.639" stop-color="#9CF8D2" stop-opacity="0.42"/><stop offset="0.772" stop-color="#9CF8D2" stop-opacity="0.605"/><stop offset="0.903" stop-color="#9CF8D2" stop-opacity="0.819"/><stop offset="1" stop-color="#9CF8D2"/></linearGradient><linearGradient id="paint26_linear_172_376" x1="33.4754" y1="34.0314" x2="30.6329" y2="34.0314" gradientUnits="userSpaceOnUse"><stop stop-color="#9CF8D2" stop-opacity="0"/><stop offset="0.122" stop-color="#9CF8D2" stop-opacity="0.017"/><stop offset="0.249" stop-color="#9CF8D2" stop-opacity="0.067"/><stop offset="0.378" stop-color="#9CF8D2" stop-opacity="0.151"/><stop offset="0.508" stop-color="#9CF8D2" stop-opacity="0.268"/><stop offset="0.639" stop-color="#9CF8D2" stop-opacity="0.42"/><stop offset="0.772" stop-color="#9CF8D2" stop-opacity="0.605"/><stop offset="0.903" stop-color="#9CF8D2" stop-opacity="0.819"/><stop offset="1" stop-color="#9CF8D2"/></linearGradient></defs></svg>