<svg width="33" height="33" viewBox="0 0 33 33" fill="none" xmlns="http://www.w3.org/2000/svg"><circle cx="16.5" cy="16.5" r="16.5" fill="#0866FF"/><circle cx="16.4875" cy="14.4875" r="10.4875" fill="white"/><path d="M16.53 4C10.7385 4 6 8.72778 6 14.5506C6 19.8154 9.85397 24.1852 14.8873 24.9749V17.6042H12.2127V14.5506H14.8873V12.2236C14.8873 9.58067 16.4563 8.12759 18.8676 8.12759C20.0154 8.12759 21.2158 8.32765 21.2158 8.32765V10.9285H19.8891C18.5833 10.9285 18.1727 11.7392 18.1727 12.5711V14.5506H21.1L20.6262 17.6042H18.1727V24.9749C20.654 24.583 22.9135 23.317 24.5432 21.4054C26.1729 19.4939 27.0657 17.0626 27.06 14.5506C27.06 8.72778 22.3215 4 16.53 4Z" fill="#0866FF"/><path d="M4.5 8.5L16 1L12.5 12.5L5 17L4.5 8.5Z" fill="#0866FF"/></svg>