<svg width="33" height="33" viewBox="0 0 33 33" fill="none" xmlns="http://www.w3.org/2000/svg"><path d="M16.5 33C25.6127 33 33 25.6127 33 16.5C33 7.3873 25.6127 0 16.5 0C7.3873 0 0 7.3873 0 16.5C0 25.6127 7.3873 33 16.5 33Z" fill="url(#paint0_linear_89_11780)"/><path d="M16.4992 20.4949C14.296 20.4949 12.5039 18.7023 12.5039 16.4991C12.5039 14.2959 14.296 12.5044 16.4992 12.5044C18.7025 12.5044 20.4951 14.2959 20.4951 16.4991C20.4951 18.7023 18.7025 20.4949 16.4992 20.4949ZM16.4992 13.5797C14.8894 13.5797 13.5793 14.8892 13.5793 16.4991C13.5793 18.109 14.8894 19.4196 16.4992 19.4196C18.1096 19.4196 19.4197 18.109 19.4197 16.4991C19.4197 14.8892 18.1096 13.5797 16.4992 13.5797Z" fill="white"/><path d="M21.0672 12.5778C21.3417 12.5778 21.5642 12.3553 21.5642 12.0809C21.5642 11.8065 21.3417 11.584 21.0672 11.584C20.7928 11.584 20.5703 11.8065 20.5703 12.0809C20.5703 12.3553 20.7928 12.5778 21.0672 12.5778Z" fill="white"/><path d="M19.9363 24.3117H13.0589C10.6472 24.3117 8.68555 22.3499 8.68555 19.9387V13.0613C8.68555 10.6492 10.6472 8.6875 13.0589 8.6875H19.9363C22.348 8.6875 24.3097 10.6492 24.3097 13.0613V19.9387C24.3097 22.3499 22.348 24.3117 19.9363 24.3117ZM13.0589 9.76286C11.2406 9.76286 9.7609 11.2424 9.7609 13.0613V19.9387C9.7609 21.7566 11.2406 23.2363 13.0589 23.2363H19.9363C21.7547 23.2363 23.2343 21.7566 23.2343 19.9387V13.0613C23.2343 11.2424 21.7547 9.76286 19.9363 9.76286H13.0589Z" fill="white"/><defs><linearGradient id="paint0_linear_89_11780" x1="16.5" y1="35.0852" x2="16.5" y2="-2.72758" gradientUnits="userSpaceOnUse"><stop offset="0.09694" stop-color="#FFD879"/><stop offset="0.15387" stop-color="#FCCB76"/><stop offset="0.25828" stop-color="#F5AA6C"/><stop offset="0.39756" stop-color="#E9755E"/><stop offset="0.44898" stop-color="#E45F58"/><stop offset="0.67857" stop-color="#D22A9C"/><stop offset="1" stop-color="#6968DF"/></linearGradient></defs></svg>