<svg width="33" height="33" viewBox="0 0 33 33" fill="none" xmlns="http://www.w3.org/2000/svg"><circle cx="16.5" cy="16.5" r="16.5" fill="#CC2127"/><path fill-rule="evenodd" clip-rule="evenodd" d="M16.5451 9C12.1939 9 10 12.1306 10 14.7412C10 16.3217 10.5964 17.7283 11.8754 18.2518C12.0852 18.3378 12.273 18.2548 12.3338 18.0218C12.3762 17.8603 12.4763 17.4533 12.5207 17.2838C12.582 17.0533 12.558 16.9728 12.3886 16.7718C12.0199 16.3353 11.7842 15.7702 11.7842 14.9697C11.7842 12.6466 13.5162 10.5675 16.2935 10.5675C18.7529 10.5675 20.1042 12.0761 20.1042 14.0897C20.1042 16.7397 18.9353 18.9763 17.2009 18.9763C16.2427 18.9763 15.5257 18.1808 15.7554 17.2058C16.0305 16.0417 16.564 14.7847 16.564 13.9447C16.564 13.1927 16.1615 12.5651 15.3289 12.5651C14.3493 12.5651 13.5626 13.5817 13.5626 14.9437C13.5626 15.8113 13.8545 16.3983 13.8545 16.3983C13.8545 16.3983 12.852 20.6599 12.6766 21.4065C12.3269 22.893 12.6243 24.7151 12.6493 24.8991C12.6642 25.0081 12.8037 25.0341 12.867 24.9511C12.9572 24.8331 14.1236 23.3875 14.5202 21.9435C14.6323 21.5349 15.1644 19.4174 15.1644 19.4174C15.4823 20.0264 16.4126 20.5629 17.4016 20.5629C20.3458 20.5629 22.3429 17.8693 22.3429 14.2637C22.3429 11.5386 20.0424 9 16.5451 9Z" fill="white"/></svg>