<svg xmlns="http://www.w3.org/2000/svg"><symbol id="microphone" viewBox="0 0 25 24" fill="none"><path d="M16.25 6C16.25 3.92893 14.5711 2.25 12.5 2.25C10.4289 2.25 8.75 3.92893 8.75 6V12C8.75 14.0711 10.4289 15.75 12.5 15.75C14.5711 15.75 16.25 14.0711 16.25 12V6Z" stroke="currentColor" stroke-width="1.5" stroke-linecap="round" stroke-linejoin="round"/><path d="M12.5 18.75V21.75" stroke="currentColor" stroke-width="1.5" stroke-linecap="round" stroke-linejoin="round"/><path d="M19.25 12C19.25 13.7902 18.5388 15.5071 17.273 16.773C16.0071 18.0388 14.2902 18.75 12.5 18.75C10.7098 18.75 8.9929 18.0388 7.72703 16.773C6.46116 15.5071 5.75 13.7902 5.75 12" stroke="currentColor" stroke-width="1.5" stroke-linecap="round" stroke-linejoin="round"/></symbol><symbol id="heart" viewBox="0 0 35 35" fill="none"><path d="M17.5 30.6249L29.7172 18.2327C30.9994 16.9506 31.7197 15.2116 31.7197 13.3984C31.7197 11.5851 30.9994 9.84614 29.7172 8.56399C28.4351 7.28183 26.6961 6.56152 24.8829 6.56152C23.0696 6.56152 21.3306 7.28183 20.0485 8.56399L17.5 10.9374L14.9516 8.56399C13.6695 7.28183 11.9305 6.56152 10.1172 6.56152C8.30399 6.56152 6.56502 7.28183 5.28286 8.56399C4.0007 9.84614 3.2804 11.5851 3.2804 13.3984C3.2804 15.2116 4.0007 16.9506 5.28286 18.2327L17.5 30.6249Z" stroke="currentColor" stroke-width="1.5" stroke-linecap="round" stroke-linejoin="round"/></symbol><symbol id="magic-wand" viewBox="0 0 24 24" fill="none"><path d="M20.25 12V16.5" stroke="currentColor" stroke-width="1.5" stroke-linecap="round" stroke-linejoin="round"/><path d="M18 14.25H22.5" stroke="currentColor" stroke-width="1.5" stroke-linecap="round" stroke-linejoin="round"/><path d="M7.5 3.75V8.25" stroke="currentColor" stroke-width="1.5" stroke-linecap="round" stroke-linejoin="round"/><path d="M5.25 6H9.75" stroke="currentColor" stroke-width="1.5" stroke-linecap="round" stroke-linejoin="round"/><path d="M15.75 17.25V20.25" stroke="currentColor" stroke-width="1.5" stroke-linecap="round" stroke-linejoin="round"/><path d="M14.25 18.75H17.25" stroke="currentColor" stroke-width="1.5" stroke-linecap="round" stroke-linejoin="round"/><path d="M13.5 7.5L16.5 10.5" stroke="currentColor" stroke-width="1.5" stroke-linecap="round" stroke-linejoin="round"/><path d="M17.0301 3.96951L3.96942 17.0302C3.67652 17.3231 3.67652 17.798 3.96942 18.0909L5.90844 20.0299C6.20133 20.3228 6.6762 20.3228 6.9691 20.0299L20.0298 6.96919C20.3227 6.6763 20.3227 6.20143 20.0298 5.90853L18.0908 3.96951C17.7979 3.67662 17.323 3.67662 17.0301 3.96951Z" stroke="currentColor" stroke-width="1.5" stroke-linecap="round" stroke-linejoin="round"/></symbol><symbol id="search" viewBox="0 0 35 35" fill="none"><path d="M15.3125 26.25C21.3531 26.25 26.25 21.3531 26.25 15.3125C26.25 9.27189 21.3531 4.375 15.3125 4.375C9.27189 4.375 4.375 9.27189 4.375 15.3125C4.375 21.3531 9.27189 26.25 15.3125 26.25Z" stroke="currentColor" stroke-width="1.5" stroke-linecap="round" stroke-linejoin="round"/><path d="M23.0466 23.0469L30.625 30.6252" stroke="currentColor" stroke-width="1.5" stroke-linecap="round" stroke-linejoin="round"/></symbol><symbol id="location" viewBox="0 0 24 24" fill="none"><path d="M5.25 21.75H18.75" stroke="currentColor" stroke-width="1.5" stroke-linecap="round" stroke-linejoin="round"/><path d="M12 12.75C13.6569 12.75 15 11.4069 15 9.75C15 8.09315 13.6569 6.75 12 6.75C10.3431 6.75 9 8.09315 9 9.75C9 11.4069 10.3431 12.75 12 12.75Z" stroke="currentColor" stroke-width="1.5" stroke-linecap="round" stroke-linejoin="round"/><path d="M19.5 9.75C19.5 16.5 12 21.75 12 21.75C12 21.75 4.5 16.5 4.5 9.75C4.5 7.76088 5.29018 5.85322 6.6967 4.4467C8.10322 3.04018 10.0109 2.25 12 2.25C13.9891 2.25 15.8968 3.04018 17.3033 4.4467C18.7098 5.85322 19.5 7.76088 19.5 9.75Z" stroke="currentColor" stroke-width="1.5" stroke-linecap="round" stroke-linejoin="round"/></symbol><symbol id="arrows" viewBox="0 0 10 16" fill="none"><path d="M1 5L5 1L9 5" stroke="currentColor" stroke-width="1.5" stroke-linecap="round" stroke-linejoin="round"/><path d="M9 11L5 15L1 11" stroke="currentColor" stroke-width="1.5" stroke-linecap="round" stroke-linejoin="round"/></symbol><symbol id="hamburger" viewBox="0 0 32 32" fill="none"><path d="M5 16H27" stroke="currentColor" stroke-width="1.5" stroke-linecap="round" stroke-linejoin="round"/><path d="M5 8H27" stroke="currentColor" stroke-width="1.5" stroke-linecap="round" stroke-linejoin="round"/><path d="M5 24H27" stroke="currentColor" stroke-width="1.5" stroke-linecap="round" stroke-linejoin="round"/></symbol><symbol id="close" viewBox="0 0 10 10" fill="none"><path d="M9 1L1 9" stroke="currentColor" stroke-width="1.2" stroke-linecap="round" stroke-linejoin="round"/><path d="M1 1L9 9" stroke="currentColor" stroke-width="1.2" stroke-linecap="round" stroke-linejoin="round"/></symbol><symbol id="backspace" viewBox="0 0 24 24" fill="none"><path d="M5.78156 19.1362L1.5 12L5.78156 4.86375C5.84824 4.75276 5.94252 4.66093 6.05522 4.59718C6.16793 4.53344 6.29521 4.49996 6.42469 4.5H20.25C20.4489 4.5 20.6397 4.57902 20.7803 4.71967C20.921 4.86032 21 5.05109 21 5.25V18.75C21 18.9489 20.921 19.1397 20.7803 19.2803C20.6397 19.421 20.4489 19.5 20.25 19.5H6.42469C6.29521 19.5 6.16793 19.4666 6.05522 19.4028C5.94252 19.3391 5.84824 19.2472 5.78156 19.1362Z" stroke="currentColor" stroke-width="1.2" stroke-linecap="round" stroke-linejoin="round"/><path d="M15 9.75L10.5 14.25" stroke="currentColor" stroke-width="1.2" stroke-linecap="round" stroke-linejoin="round"/><path d="M15 14.25L10.5 9.75" stroke="currentColor" stroke-width="1.2" stroke-linecap="round" stroke-linejoin="round"/></symbol><symbol id="play-circle" viewBox="0 0 44 44" fill="none"><circle cx="21.5" cy="22.5" r="16.5" fill="currentColor"/><path d="M22 38.5C31.1127 38.5 38.5 31.1127 38.5 22C38.5 12.8873 31.1127 5.5 22 5.5C12.8873 5.5 5.5 12.8873 5.5 22C5.5 31.1127 12.8873 38.5 22 38.5Z" stroke="white" stroke-width="1.2" stroke-linecap="round" stroke-linejoin="round"/><path d="M27.5 22L19.25 16.5V27.5L27.5 22Z" stroke="white" stroke-width="1.2" stroke-linecap="round" stroke-linejoin="round"/></symbol><symbol id="play-circle-outline" viewBox="0 0 63 63" fill="none"><path d="M31.5 55.125C44.5477 55.125 55.125 44.5477 55.125 31.5C55.125 18.4523 44.5477 7.875 31.5 7.875C18.4523 7.875 7.875 18.4523 7.875 31.5C7.875 44.5477 18.4523 55.125 31.5 55.125Z" stroke="currentColor" stroke-width="1.5" stroke-linecap="round" stroke-linejoin="round"/><path d="M39.375 31.5L27.5625 23.625V39.375L39.375 31.5Z" stroke="currentColor" stroke-width="1.5" stroke-linecap="round" stroke-linejoin="round"/></symbol><symbol id="arrow-right" viewBox="0 0 31 10" fill="none"><path d="M26 1L30 5L26 9" stroke="currentColor" stroke-linecap="round" stroke-linejoin="round"/><path d="M1 5L30 5" stroke="currentColor" stroke-linecap="round" stroke-linejoin="round"/></symbol><symbol id="arrow-circle-up" viewBox="0 0 44 44" fill="none"><circle cx="22.5" cy="22.5" r="16.5" fill="#1A1D20"/><path d="M22 38.5C31.1127 38.5 38.5 31.1127 38.5 22C38.5 12.8873 31.1127 5.5 22 5.5C12.8873 5.5 5.5 12.8873 5.5 22C5.5 31.1127 12.8873 38.5 22 38.5Z" stroke="currentColor" stroke-width="1.5" stroke-linecap="round" stroke-linejoin="round"/><path d="M16.5 20.625L22 15.125L27.5 20.625" stroke="currentColor" stroke-width="1.5" stroke-linecap="round" stroke-linejoin="round"/><path d="M22 28.875V15.125" stroke="currentColor" stroke-width="1.5" stroke-linecap="round" stroke-linejoin="round"/></symbol><symbol id="plus-circle" viewBox="0 0 25 24" fill="none"><path d="M12.5 21C17.4706 21 21.5 16.9706 21.5 12C21.5 7.02944 17.4706 3 12.5 3C7.52944 3 3.5 7.02944 3.5 12C3.5 16.9706 7.52944 21 12.5 21Z" stroke="currentColor" stroke-width="1.5" stroke-linecap="round" stroke-linejoin="round"/><path d="M8.75 12H16.25" stroke="currentColor" stroke-width="1.5" stroke-linecap="round" stroke-linejoin="round"/><path d="M12.5 8.25V15.75" stroke="currentColor" stroke-width="1.5" stroke-linecap="round" stroke-linejoin="round"/></symbol><symbol id="chat" viewBox="0 0 24 24" fill="none"><path d="M9 10.5H15" stroke="currentColor" stroke-width="1.5" stroke-linecap="round" stroke-linejoin="round"/><path d="M9 13.5H15" stroke="currentColor" stroke-width="1.5" stroke-linecap="round" stroke-linejoin="round"/><path d="M12.375 20.25H4.46906C4.3746 20.2501 4.28104 20.2316 4.19374 20.1955C4.10645 20.1594 4.02713 20.1065 3.96033 20.0397C3.89354 19.9729 3.84058 19.8936 3.80448 19.8063C3.76839 19.719 3.74988 19.6254 3.75 19.5309V11.625C3.75 9.33751 4.6587 7.14371 6.2762 5.5262C7.89371 3.9087 10.0875 3 12.375 3C13.5077 3 14.6292 3.22309 15.6756 3.65654C16.7221 4.08999 17.6729 4.7253 18.4738 5.5262C19.2747 6.32711 19.91 7.27792 20.3435 8.32436C20.7769 9.37079 21 10.4923 21 11.625C21 12.7577 20.7769 13.8792 20.3435 14.9256C19.91 15.9721 19.2747 16.9229 18.4738 17.7238C17.6729 18.5247 16.7221 19.16 15.6756 19.5935C14.6292 20.0269 13.5077 20.25 12.375 20.25Z" stroke="currentColor" stroke-width="1.5" stroke-linecap="round" stroke-linejoin="round"/></symbol><symbol id="speaker" viewBox="0 0 16 16" fill="none"><path d="M5 10.5H2C1.86739 10.5 1.74021 10.4473 1.64645 10.3536C1.55268 10.2598 1.5 10.1326 1.5 10V6C1.5 5.86739 1.55268 5.74021 1.64645 5.64645C1.74021 5.55268 1.86739 5.5 2 5.5H5L9.5 2V14L5 10.5Z" stroke="currentColor" stroke-width="1.2" stroke-linecap="round" stroke-linejoin="round"/><path d="M5 5.5V10.5" stroke="currentColor" stroke-width="1.5" stroke-linecap="round" stroke-linejoin="round"/><path d="M12 6.67822C12.3217 7.04344 12.4991 7.51342 12.4991 8.0001C12.4991 8.48677 12.3217 8.95675 12 9.32197" stroke="currentColor" stroke-width="1.2" stroke-linecap="round" stroke-linejoin="round"/><path d="M13.8545 5C14.5924 5.82503 15.0004 6.8931 15.0004 8C15.0004 9.1069 14.5924 10.175 13.8545 11" stroke="currentColor" stroke-width="1.2" stroke-linecap="round" stroke-linejoin="round"/></symbol><symbol id="menu" viewBox="0 0 33 32" fill="none"><path d="M16.5263 19C18.2322 19 19.6151 17.6569 19.6151 16C19.6151 14.3431 18.2322 13 16.5263 13C14.8204 13 13.4375 14.3431 13.4375 16C13.4375 17.6569 14.8204 19 16.5263 19Z" stroke="currentColor" stroke-width="1.2" stroke-linecap="round" stroke-linejoin="round"/><path d="M6.23042 19C7.93632 19 9.31923 17.6569 9.31923 16C9.31923 14.3431 7.93632 13 6.23042 13C4.52451 13 3.1416 14.3431 3.1416 16C3.1416 17.6569 4.52451 19 6.23042 19Z" stroke="currentColor" stroke-width="1.2" stroke-linecap="round" stroke-linejoin="round"/><path d="M26.8227 19C28.5286 19 29.9115 17.6569 29.9115 16C29.9115 14.3431 28.5286 13 26.8227 13C25.1168 13 23.7339 14.3431 23.7339 16C23.7339 17.6569 25.1168 19 26.8227 19Z" stroke="currentColor" stroke-width="1.2" stroke-linecap="round" stroke-linejoin="round"/></symbol><symbol id="chevron-left" viewBox="0 0 10 18" fill="none"><path d="M9 17L1 9L9 1" stroke="currentColor" stroke-width="1.5" stroke-linecap="round" stroke-linejoin="round"/></symbol><symbol id="chevron-right" viewBox="0 0 10 18" fill="none"><path d="M1 17L9 9L1 1" stroke="currentColor" stroke-width="1.5" stroke-linecap="round" stroke-linejoin="round"/></symbol><symbol id="sliders" viewBox="0 0 24 24" fill="none"><path d="M9.75 9.75C10.9926 9.75 12 8.74264 12 7.5C12 6.25736 10.9926 5.25 9.75 5.25C8.50736 5.25 7.5 6.25736 7.5 7.5C7.5 8.74264 8.50736 9.75 9.75 9.75Z" stroke="currentColor" stroke-width="1.5" stroke-linecap="round" stroke-linejoin="round"/><path d="M15.75 18.75C16.9926 18.75 18 17.7426 18 16.5C18 15.2574 16.9926 14.25 15.75 14.25C14.5074 14.25 13.5 15.2574 13.5 16.5C13.5 17.7426 14.5074 18.75 15.75 18.75Z" stroke="currentColor" stroke-width="1.5" stroke-linecap="round" stroke-linejoin="round"/><path d="M12 7.5H20.25" stroke="currentColor" stroke-width="1.5" stroke-linecap="round" stroke-linejoin="round"/><path d="M3.75 7.5H7.5" stroke="currentColor" stroke-width="1.5" stroke-linecap="round" stroke-linejoin="round"/><path d="M18 16.5H20.25" stroke="currentColor" stroke-width="1.5" stroke-linecap="round" stroke-linejoin="round"/><path d="M3.75 16.5H13.5" stroke="currentColor" stroke-width="1.5" stroke-linecap="round" stroke-linejoin="round"/></symbol><symbol id="refresh" viewBox="0 0 24 24" fill="none"><path d="M17.25 9.75H21.75V5.25" stroke="currentColor" stroke-width="1.5" stroke-linecap="round" stroke-linejoin="round"/><path d="M17.6625 18.0001C16.4831 19.113 15.002 19.8536 13.4041 20.1295C11.8063 20.4054 10.1625 20.2043 8.67833 19.5513C7.1941 18.8983 5.9352 17.8225 5.05893 16.4581C4.18265 15.0938 3.72785 13.5015 3.75136 11.8802C3.77486 10.2588 4.27563 8.68038 5.19109 7.34202C6.10655 6.00366 7.3961 4.96475 8.89863 4.35509C10.4012 3.74543 12.05 3.59207 13.6392 3.91415C15.2284 4.23624 16.6875 5.01949 17.834 6.16605L21.75 9.75012" stroke="currentColor" stroke-width="1.5" stroke-linecap="round" stroke-linejoin="round"/></symbol><symbol id="double-arrows-left" viewBox="0 0 13 10" fill="none"><path d="M5 9L1 5L5 1" stroke="currentColor" stroke-width="1.5" stroke-linecap="round" stroke-linejoin="round"/><path d="M12 9L8 5L12 1" stroke="currentColor" stroke-width="1.5" stroke-linecap="round" stroke-linejoin="round"/></symbol><symbol id="double-arrows-right" viewBox="0 0 13 10" fill="none"><path d="M8 9L12 5L8 1" stroke="currentColor" stroke-width="1.5" stroke-linecap="round" stroke-linejoin="round"/><path d="M1 9L5 5L1 1" stroke="currentColor" stroke-width="1.5" stroke-linecap="round" stroke-linejoin="round"/></symbol><symbol id="calendar" viewBox="0 0 32 32" fill="none"><path d="M10.6665 2.66675V6.66675" stroke="currentColor" stroke-width="1.5" stroke-miterlimit="10" stroke-linecap="round" stroke-linejoin="round"/><path d="M21.3335 2.66675V6.66675" stroke="currentColor" stroke-width="1.5" stroke-miterlimit="10" stroke-linecap="round" stroke-linejoin="round"/><path d="M4.6665 12.1201H27.3332" stroke="currentColor" stroke-width="1.5" stroke-miterlimit="10" stroke-linecap="round" stroke-linejoin="round"/><path d="M28 11.3334V22.6668C28 26.6668 26 29.3334 21.3333 29.3334H10.6667C6 29.3334 4 26.6668 4 22.6668V11.3334C4 7.33342 6 4.66675 10.6667 4.66675H21.3333C26 4.66675 28 7.33342 28 11.3334Z" stroke="currentColor" stroke-width="1.5" stroke-miterlimit="10" stroke-linecap="round" stroke-linejoin="round"/><path d="M20.9264 18.2668H20.9384" stroke="currentColor" stroke-width="2" stroke-linecap="round" stroke-linejoin="round"/><path d="M20.9264 22.2668H20.9384" stroke="currentColor" stroke-width="2" stroke-linecap="round" stroke-linejoin="round"/><path d="M15.9938 18.2668H16.0058" stroke="currentColor" stroke-width="2" stroke-linecap="round" stroke-linejoin="round"/><path d="M15.9938 22.2668H16.0058" stroke="currentColor" stroke-width="2" stroke-linecap="round" stroke-linejoin="round"/><path d="M11.0592 18.2668H11.0712" stroke="currentColor" stroke-width="2" stroke-linecap="round" stroke-linejoin="round"/><path d="M11.0592 22.2668H11.0712" stroke="currentColor" stroke-width="2" stroke-linecap="round" stroke-linejoin="round"/></symbol><symbol id="share" viewBox="0 0 27 27" fill="none"><path d="M15.7241 7.73096L9.58789 11.6755" stroke="currentColor" stroke-width="1.5" stroke-linecap="round" stroke-linejoin="round"/><path d="M9.58789 15.3247L15.7241 19.2692" stroke="currentColor" stroke-width="1.5" stroke-linecap="round" stroke-linejoin="round"/><path d="M6.75 16.875C8.61396 16.875 10.125 15.364 10.125 13.5C10.125 11.636 8.61396 10.125 6.75 10.125C4.88604 10.125 3.375 11.636 3.375 13.5C3.375 15.364 4.88604 16.875 6.75 16.875Z" stroke="currentColor" stroke-width="1.5" stroke-linecap="round" stroke-linejoin="round"/><path d="M18.5625 24.4688C20.4265 24.4688 21.9375 22.9577 21.9375 21.0938C21.9375 19.2298 20.4265 17.7188 18.5625 17.7188C16.6985 17.7188 15.1875 19.2298 15.1875 21.0938C15.1875 22.9577 16.6985 24.4688 18.5625 24.4688Z" stroke="currentColor" stroke-width="1.5" stroke-linecap="round" stroke-linejoin="round"/><path d="M18.5625 9.28125C20.4265 9.28125 21.9375 7.77021 21.9375 5.90625C21.9375 4.04229 20.4265 2.53125 18.5625 2.53125C16.6985 2.53125 15.1875 4.04229 15.1875 5.90625C15.1875 7.77021 16.6985 9.28125 18.5625 9.28125Z" stroke="currentColor" stroke-width="1.5" stroke-linecap="round" stroke-linejoin="round"/></symbol><symbol id="ig" viewBox="0 0 32 32" fill="none"><path d="M16 21C18.7614 21 21 18.7614 21 16C21 13.2386 18.7614 11 16 11C13.2386 11 11 13.2386 11 16C11 18.7614 13.2386 21 16 21Z" stroke="currentColor" stroke-width="1.5" stroke-linecap="round" stroke-linejoin="round"/><path d="M22 4H10C6.68629 4 4 6.68629 4 10V22C4 25.3137 6.68629 28 10 28H22C25.3137 28 28 25.3137 28 22V10C28 6.68629 25.3137 4 22 4Z" stroke="currentColor" stroke-width="1.5" stroke-linecap="round" stroke-linejoin="round"/><path d="M22.5 10.75C23.1904 10.75 23.75 10.1904 23.75 9.5C23.75 8.80964 23.1904 8.25 22.5 8.25C21.8096 8.25 21.25 8.80964 21.25 9.5C21.25 10.1904 21.8096 10.75 22.5 10.75Z" fill="currentColor"/></symbol><symbol id="info" viewBox="0 0 18 18" fill="none"><circle cx="8.5" cy="9.5" r="7.5" fill="#1B262F"/><path d="M9 16.5C13.125 16.5 16.5 13.125 16.5 9C16.5 4.875 13.125 1.5 9 1.5C4.875 1.5 1.5 4.875 1.5 9C1.5 13.125 4.875 16.5 9 16.5Z" stroke="currentColor" stroke-width="1.3" stroke-linecap="round" stroke-linejoin="round"/><path d="M9.00098 12L9.00054 8.99997" stroke="currentColor" stroke-width="1.5" stroke-linecap="round" stroke-linejoin="round"/><path d="M8.99609 6H9.00283" stroke="currentColor" stroke-width="2" stroke-linecap="round" stroke-linejoin="round"/></symbol></svg>