<svg width="33" height="33" viewBox="0 0 33 33" fill="none" xmlns="http://www.w3.org/2000/svg"><circle cx="16.5" cy="16.5" r="16.5" fill="#67C15E"/><g clip-path="url(#clip0_88_11702)"><path fill-rule="evenodd" clip-rule="evenodd" d="M16.9977 8C12.5874 8 9 11.5884 9 15.9999C9 17.7495 9.56421 19.372 10.5233 20.689L9.52653 23.6613L12.6015 22.6785C13.8662 23.5157 15.3755 24 17.0023 24C21.4126 24 25 20.4114 25 16.0001C25 11.5886 21.4126 8.00013 17.0023 8.00013L16.9977 8ZM14.7643 12.0636C14.6092 11.6921 14.4916 11.678 14.2566 11.6685C14.1766 11.6638 14.0874 11.6592 13.9885 11.6592C13.6828 11.6592 13.3632 11.7485 13.1703 11.946C12.9353 12.1859 12.3523 12.7455 12.3523 13.8931C12.3523 15.0407 13.1892 16.1506 13.302 16.3059C13.4195 16.4609 14.9336 18.8501 17.2844 19.8238C19.1228 20.5857 19.6683 20.5151 20.0867 20.4258C20.6979 20.2941 21.4643 19.8424 21.6571 19.297C21.85 18.7514 21.8499 18.2857 21.7934 18.187C21.737 18.0882 21.5818 18.0319 21.3468 17.9142C21.1118 17.7966 19.9691 17.2322 19.7528 17.157C19.5412 17.0771 19.3391 17.1053 19.1793 17.3311C18.9536 17.6462 18.7327 17.9661 18.5539 18.1588C18.4129 18.3094 18.1824 18.3282 17.9897 18.2482C17.7311 18.1401 17.0071 17.8859 16.1137 17.0911C15.4225 16.4751 14.9523 15.7086 14.816 15.4782C14.6796 15.2431 14.802 15.1065 14.91 14.9796C15.0275 14.8337 15.1403 14.7303 15.2579 14.5939C15.3755 14.4576 15.4413 14.387 15.5165 14.227C15.5966 14.0719 15.54 13.9119 15.4836 13.7943C15.4272 13.6767 14.9571 12.5291 14.7643 12.0636Z" fill="white"/></g><defs><clipPath id="clip0_88_11702"><rect width="16" height="16" fill="white" transform="translate(9 8)"/></clipPath></defs></svg>