<svg width="33" height="33" viewBox="0 0 33 33" fill="none" xmlns="http://www.w3.org/2000/svg"><rect width="33" height="33" rx="5" fill="#EBF5FF"/><path d="M16.3829 27.0001C21.0126 27.0001 24.7657 23.2469 24.7657 18.6172C24.7657 13.9875 21.0126 10.2344 16.3829 10.2344C11.7531 10.2344 8 13.9875 8 18.6172C8 23.2469 11.7531 27.0001 16.3829 27.0001Z" fill="#FCCA00"/><path d="M25.396 7.67845L19.8642 6V9.18535V9.77609V16.0977C19.0926 15.0574 17.8559 14.3834 16.461 14.3834C14.1223 14.3834 12.2266 16.2792 12.2266 18.6178C12.2266 20.9565 14.1223 22.8523 16.461 22.8523C16.9094 22.8523 17.3573 22.7817 17.7831 22.6416C18.1963 22.5059 18.5879 22.3057 18.9398 22.0509C19.2884 21.7988 19.5984 21.4932 19.856 21.1485C20.1158 20.8004 20.3215 20.4127 20.4638 20.0018C20.552 19.7469 20.6072 19.4827 20.6458 19.2163C20.7109 18.7717 20.7104 18.3283 20.7104 17.8809C20.7104 17.6151 20.7104 17.3498 20.7104 17.0839C20.7104 16.7623 20.7104 16.4408 20.7104 16.1192C20.7104 15.7634 20.7104 15.4071 20.7104 15.0514C20.7104 14.6824 20.7104 14.3134 20.7104 13.9443C20.7104 13.5836 20.7104 13.2234 20.7104 12.8627C20.7104 12.5323 20.7104 12.2014 20.7104 11.871C20.7104 11.5919 20.7104 11.3128 20.7104 11.0337C20.7104 10.8274 20.7104 10.6211 20.7104 10.4148C20.7104 10.3028 20.7104 10.1914 20.7104 10.0795C20.7104 10.0657 20.7104 10.0519 20.7104 10.0381L25.3954 11.4854V7.67845H25.396Z" fill="#FD3031"/></svg>