<svg width="33" height="33" viewBox="0 0 33 33" fill="none" xmlns="http://www.w3.org/2000/svg"><rect width="33" height="33" rx="5" fill="#FF0000"/><path d="M25.057 12.3063C24.9834 12.0182 24.8424 11.7519 24.6456 11.5291C24.4487 11.3063 24.2017 11.1335 23.925 11.025C21.2469 9.99063 16.9844 10 16.75 10C16.5156 10 12.2531 9.99063 9.575 11.025C9.29825 11.1335 9.05128 11.3063 8.85445 11.5291C8.65762 11.7519 8.51658 12.0182 8.44297 12.3063C8.24063 13.0859 8 14.5109 8 16.875C8 19.2391 8.24063 20.6641 8.44297 21.4438C8.51647 21.7319 8.65746 21.9984 8.8543 22.2214C9.05113 22.4443 9.29816 22.6172 9.575 22.7258C12.1406 23.7156 16.1562 23.75 16.6984 23.75H16.8016C17.3438 23.75 21.3617 23.7156 23.925 22.7258C24.2018 22.6172 24.4489 22.4443 24.6457 22.2214C24.8425 21.9984 24.9835 21.7319 25.057 21.4438C25.2594 20.6625 25.5 19.2391 25.5 16.875C25.5 14.5109 25.2594 13.0859 25.057 12.3063ZM19.4234 17.1352L15.6734 19.6352C15.6264 19.6666 15.5716 19.6846 15.5151 19.6873C15.4586 19.6901 15.4024 19.6774 15.3525 19.6507C15.3026 19.624 15.2609 19.5842 15.2319 19.5357C15.2028 19.4871 15.1875 19.4316 15.1875 19.375V14.375C15.1875 14.3184 15.2028 14.2629 15.2319 14.2143C15.2609 14.1658 15.3026 14.126 15.3525 14.0993C15.4024 14.0726 15.4586 14.0599 15.5151 14.0627C15.5716 14.0654 15.6264 14.0834 15.6734 14.1148L19.4234 16.6148C19.4663 16.6434 19.5015 16.682 19.5258 16.7274C19.5501 16.7728 19.5628 16.8235 19.5628 16.875C19.5628 16.9265 19.5501 16.9772 19.5258 17.0226C19.5015 17.068 19.4663 17.1066 19.4234 17.1352Z" fill="white"/></svg>