<svg xmlns="http://www.w3.org/2000/svg">
	<symbol id="arrow_left" viewBox="0 0 17 57">
		<path d="M15 1L2.6087 28.5L15 56" stroke-width="3" fill="transparent"/>
	</symbol>
	<symbol id="arrow_right" viewBox="0 0 17 57">
		<path d="M2.00006 56L14.3914 28.5L2.00005 1" stroke-width="3" fill="transparent"/>
	</symbol>
	<symbol id="menu" viewBox="0 0 14 14">
		<rect x="0.5" y="0.5" width="5" height="5" rx="0.5"/>
		<rect x="0.5" y="8.5" width="5" height="5" rx="0.5"/>
		<rect x="8.5" y="0.5" width="5" height="5" rx="0.5"/>
		<rect x="8.5" y="8.5" width="5" height="5" rx="0.5"/>
	</symbol>
	<symbol id="list" viewBox="0 0 17 16">
		<rect x="1" y="0.5" width="15" height="15" rx="2.5"/>
		<line x1="5" y1="5" x2="12" y2="5"/>
		<line x1="5" y1="8" x2="12" y2="8"/>
		<line x1="5" y1="11" x2="12" y2="11"/>
	</symbol>
	<symbol id="spiral" viewBox="0 0 97 85">
		<path d="M25.8608 57.396C26.1423 59.6493 26.7052 61.8258 27.524 64.0535C27.7031 64.54 27.8823 65.0009 28.1381 65.385C28.3173 65.8459 28.522 66.3068 28.7778 66.8189C29.264 67.8432 29.9548 69.021 30.6969 70.1221C31.4645 71.2999 32.3345 72.4522 33.1021 73.3484C34.0232 74.4494 34.8676 75.2944 35.712 76.0626C36.5564 76.8308 37.4519 77.5734 38.5266 78.4184C38.7825 78.6232 39.064 78.7768 39.3198 78.9305C39.4734 79.0329 39.6525 79.1097 39.7804 79.2121C42.4671 81.1326 45.5631 82.5665 48.8127 83.5139C52.267 84.5381 55.9004 85.0246 59.3292 84.999C61.7088 84.9734 63.4487 84.8454 65.1631 84.5381C66.8774 84.2565 68.5406 83.7956 70.7155 83.1298C71.3552 82.925 72.3019 82.5921 73.1975 82.208C74.0931 81.8239 74.9886 81.4142 75.5771 81.0814C76.6774 80.5436 78.2894 79.5706 79.3385 78.9049C81.6414 77.4197 83.8931 75.4993 85.8889 73.374C87.9359 71.1975 89.7781 68.765 91.211 66.3068C91.8763 65.1802 92.516 63.9511 93.0789 62.722C93.6418 61.4673 94.1536 60.187 94.5886 58.9579C95.6888 55.8084 96.3285 52.9406 96.6867 50.0471C97.045 47.1793 97.0705 44.2858 96.8914 41.1107C96.8147 39.4463 96.61 38.4221 96.4053 37.2954C96.3285 36.8601 96.2262 36.3992 96.1494 35.9127C96.0215 35.1701 95.868 34.4788 95.7144 33.8386C95.5609 33.1985 95.3562 32.5327 95.1003 31.8158L94.1024 28.8455C93.7186 27.7957 93.3092 26.8483 92.8486 25.9008C92.4136 24.979 91.9275 24.0828 91.3902 23.1098C89.292 19.3458 86.375 15.6073 82.9207 12.381C79.6711 9.33389 75.9098 6.6965 71.867 4.82727C69.2315 3.6238 66.3145 2.47154 63.3464 1.62655C60.8132 0.909585 58.2033 0.371861 55.7213 0.218226L53.5464 0.0133796C51.0389 -0.0122262 48.8895 -0.0122239 46.7402 0.115805C44.5396 0.26944 42.3903 0.551102 39.9339 1.08882C38.936 1.31928 37.7334 1.62655 36.5308 2.01063C35.2514 2.39472 33.9977 2.85562 32.9742 3.23971C32.0274 3.59819 31.0039 4.03349 29.9548 4.52C29.0337 4.9553 28.087 5.3906 27.2682 5.8515C25.6306 6.74771 24.0697 7.72073 22.5601 8.77056C21.076 9.8204 19.6175 10.9727 18.1846 12.2273C16.2912 13.8917 14.5256 15.6841 12.9136 17.579C11.3016 19.4994 9.81756 21.5479 8.46143 23.6988C7.87292 24.5437 7.41235 25.568 6.84942 26.413C6.41444 27.2067 5.97945 28.0261 5.59564 28.8199C5.21183 29.6393 4.82802 30.4587 4.4698 31.3037C3.24161 34.1203 2.29486 37.0906 1.57842 40.1121C0.810795 43.2872 0.350229 46.4879 0.119942 49.6374C-0.135932 53.2991 0.0175867 57.4984 0.580509 61.5953C1.11784 65.513 2.01341 69.3283 3.2416 72.5034L3.67659 73.6557C3.98364 74.4751 4.29069 75.2432 4.6745 76.1394L5.10948 77.0868L15.1653 72.7339L14.7559 71.7864C14.3721 70.8646 13.9627 69.738 13.6045 68.6881C13.1439 67.2798 12.7345 65.9483 12.5298 65.2058C11.6087 61.8002 11.0969 58.241 11.0202 54.6306C10.9434 51.0457 11.276 47.3841 12.0437 43.8249C13.3742 37.6027 15.9074 31.995 19.3361 27.2836C22.8671 22.4185 27.3449 18.4752 32.4368 15.7097C33.8185 14.9672 35.2514 14.3014 36.7099 13.7125C38.1428 13.1492 39.6269 12.6626 41.1365 12.3042L42.9788 11.8433C46.0237 11.2287 49.3757 10.9983 52.83 11.2031C56.0796 11.408 59.3803 12.0225 62.502 13.0723C68.5406 15.1208 73.4022 18.4496 77.0868 22.3672C81.3087 26.8483 83.9954 32.0974 85.0701 37.0138L85.198 37.6027C85.2748 38.0124 85.3771 38.3965 85.4283 38.755C85.5562 39.5743 85.6074 39.984 85.6586 40.3425C85.8377 41.6228 85.9656 42.3654 85.9656 44.5163C85.9912 49.0229 85.0701 53.5807 83.2534 57.7289C81.5134 61.6721 78.9547 65.2314 75.6283 67.9968C73.5813 69.6868 71.3296 71.0439 69.0012 72.0169C64.0372 74.091 58.7151 74.5263 53.8023 73.4764C48.9151 72.4266 44.4373 69.9172 41.2389 66.0507C39.9595 64.4888 38.8592 62.6964 38.0149 60.6991C36.6843 57.5496 36.2749 53.9136 36.8123 50.4312C37.2984 47.1025 38.6546 43.9273 40.8807 41.4692C42.6974 39.4975 44.8979 38.1148 47.2775 37.4235C49.6315 36.7577 52.1135 36.7577 54.5699 37.5515C57.103 38.3709 58.7151 39.7536 59.6362 41.2899C60.7876 43.236 60.9156 45.4125 60.4038 47.0256L60.02 48.3059L71.2529 49.0229L71.4064 48.1011C71.4832 47.6914 71.5343 47.2817 71.5855 46.8976C71.6111 46.5135 71.6623 46.1038 71.6623 45.6941C71.8414 40.1121 69.6665 35.4006 66.161 31.9694C64.2675 30.1002 61.9903 28.6407 59.4827 27.5908C56.9751 26.5666 54.2373 25.9777 51.4227 25.8752C45.2817 25.6704 38.7569 27.8981 33.5115 33.2497C31.311 35.503 29.5454 38.2172 28.2405 41.0851C26.8588 44.1322 26.0144 47.3585 25.7585 50.3544C25.5538 52.8382 25.5794 55.1427 25.8608 57.396Z"/>
	</symbol>
</svg>